<svg xmlns="http://www.w3.org/2000/svg" viewBox="0 0 128 128" width="128" height="128">
  <path d="M65.4,98.3L65.2,98.3L65.1,98.5L65.0,99.0L65.1,104.3L65.1,104.7L65.2,106.7L65.2,108.5L65.2,111.8L65.2,112.4L65.2,113.2L65.3,115.3L65.2,116.2L65.3,117.2L65.3,117.9L65.3,119.2L65.4,119.3L65.5,119.4L65.7,119.4L66.0,119.3L66.1,119.2L66.1,115.5L66.0,114.6L66.0,112.6L66.0,109.5L66.0,108.2L65.9,104.1L65.9,103.3L65.8,98.6L65.8,98.4L65.7,98.3Z M50.4,78.8L50.3,78.9L50.4,82.6L50.4,83.2L50.4,83.9L50.5,84.2L50.5,85.5L50.5,85.8L50.5,87.3L50.5,87.8L50.6,90.1L50.6,90.3L50.6,91.7L50.7,91.9L50.7,95.0L50.8,95.1L50.7,96.1L50.8,97.0L50.8,98.7L50.9,101.4L50.9,103.5L51.0,105.2L50.9,105.7L51.0,108.9L51.0,112.5L51.1,113.5L51.1,115.2L51.1,115.7L51.1,118.2L51.1,118.5L51.2,119.7L51.2,119.9L51.4,120.0L52.1,120.0L52.6,119.9L55.3,119.8L55.7,119.8L56.6,119.8L56.8,119.7L57.9,119.7L58.3,119.7L58.4,119.6L58.4,119.4L58.4,117.8L58.4,117.0L58.3,112.2L58.3,110.9L58.3,110.1L58.2,109.6L58.2,106.7L58.2,106.0L58.2,103.9L58.1,103.1L58.1,98.9L58.0,98.0L58.0,95.4L58.0,94.7L58.0,92.5L57.9,91.4L57.9,90.1L57.9,89.4L57.9,88.3L57.8,87.8L57.7,84.1L57.6,83.9L57.5,83.8L57.1,83.5L56.8,83.3L56.6,83.2L55.8,82.6L55.4,82.4L55.0,82.0L54.8,82.0L53.9,81.2L53.6,81.1L52.5,80.3L52.3,80.0L52.0,79.9L51.3,79.4L50.9,79.1L50.8,79.0Z M79.4,78.1L79.1,78.2L77.9,79.1L77.5,79.5L77.4,79.5L76.2,80.5L75.4,81.1L73.7,82.5L73.4,82.7L73.2,82.9L72.5,83.5L72.4,83.7L72.4,84.8L72.4,85.3L72.4,86.3L72.5,86.7L72.5,88.6L72.5,88.7L72.5,90.3L72.6,90.9L72.6,92.3L72.6,93.7L72.6,94.1L72.9,103.3L72.8,103.9L72.9,105.8L72.9,108.6L73.0,111.3L73.0,112.0L73.0,114.4L73.0,118.2L73.0,119.0L73.1,119.1L73.3,119.2L74.0,119.1L74.3,119.2L75.1,119.1L76.6,119.1L77.1,119.0L79.6,119.0L80.1,118.9L80.2,118.8L80.3,118.7L80.3,115.9L80.2,113.4L80.2,110.3L80.1,109.3L80.2,109.0L80.1,108.6L80.1,104.4L80.1,103.5L80.0,100.3L80.0,99.9L80.0,99.3L80.0,98.6L80.0,98.0L80.0,97.7L80.0,97.2L79.9,96.5L79.9,95.2L79.9,93.4L79.9,93.0L79.8,92.2L79.8,91.8L79.8,91.1L79.8,88.6L79.7,88.4L79.7,86.1L79.6,85.8L79.6,82.8L79.5,82.6L79.6,82.1L79.5,80.8L79.5,79.9L79.5,79.3L79.5,78.5L79.4,78.3Z M49.3,29.0L49.2,29.1L49.2,29.2L49.1,29.4L49.1,30.5L49.2,31.1L49.2,34.9L49.3,36.1L49.3,39.2L49.4,39.9L49.4,40.5L49.4,40.8L49.4,42.7L49.5,43.6L49.5,45.3L49.6,47.6L49.6,49.0L49.6,49.5L49.7,52.2L49.7,52.6L49.7,53.0L49.7,53.7L49.9,61.9L49.9,62.7L49.9,65.5L49.9,66.5L50.0,66.7L50.0,68.1L50.0,69.5L50.1,69.6L50.6,70.1L50.9,70.2L51.4,70.7L52.1,71.1L54.1,72.6L54.3,72.7L54.5,72.9L55.0,73.3L55.3,73.5L55.6,73.7L55.9,74.0L56.1,74.1L56.5,74.4L56.9,74.7L57.2,74.9L57.5,75.1L57.8,75.4L58.2,75.6L58.5,75.9L58.7,76.1L59.2,76.3L64.9,80.5L65.1,80.5L65.2,80.4L65.5,80.1L66.2,79.6L67.3,78.7L68.7,77.6L69.6,76.8L70.4,76.2L70.7,75.9L72.1,74.8L73.1,74.0L73.3,73.8L74.8,72.6L75.1,72.4L75.8,71.7L77.7,70.2L78.5,69.6L78.9,69.3L79.2,69.1L79.3,68.9L79.3,62.3L79.2,62.1L79.2,57.9L79.2,57.4L79.2,54.3L79.1,51.1L79.1,50.0L79.1,48.5L79.1,44.6L79.0,43.7L79.0,42.1L79.0,40.8L79.0,40.4L78.9,37.2L78.8,35.7L78.8,33.9L78.7,30.9L78.7,29.4L78.7,29.2L78.6,29.1L78.5,29.0L77.9,29.0L74.4,29.1L72.6,29.0L71.4,29.1L70.5,29.0L63.5,29.0L62.1,29.0Z M64.2,61.5L65.3,61.5L66.0,61.6L66.3,61.7L66.6,61.8L66.8,61.9L67.0,61.9L67.4,62.0L67.5,62.1L68.0,62.3L68.2,62.4L68.3,62.4L68.4,62.5L68.5,62.6L68.8,62.8L69.2,63.0L69.4,63.2L69.7,63.4L70.7,64.4L71.0,64.9L71.0,65.0L71.3,65.5L71.7,66.2L71.8,66.6L72.0,67.1L72.1,68.0L72.3,68.4L72.3,69.6L72.2,69.8L72.2,70.2L72.1,70.4L72.1,70.8L72.0,71.2L72.0,71.4L71.5,72.6L71.4,72.9L71.2,73.2L70.7,74.0L70.3,74.4L69.6,75.1L69.1,75.5L68.5,75.9L67.8,76.2L67.5,76.3L67.3,76.4L67.0,76.5L66.8,76.6L66.4,76.7L66.2,76.8L66.0,76.8L65.6,76.9L63.9,76.9L63.6,76.8L63.4,76.8L63.0,76.7L62.5,76.6L61.8,76.4L60.9,76.0L60.0,75.3L59.0,74.4L58.6,73.9L58.0,73.1L57.6,72.2L57.6,72.1L57.5,72.0L57.5,71.8L57.4,71.6L57.4,71.4L57.2,71.0L57.1,70.1L57.1,68.3L57.2,68.0L57.2,67.4L57.3,67.1L57.4,66.9L57.6,66.2L58.1,65.4L58.6,64.5L59.0,64.1L59.4,63.6L60.2,62.9L61.6,62.1L62.2,61.9L62.6,61.8L62.8,61.7L63.1,61.7L63.3,61.6Z M79.6,29.0L79.5,29.1L79.4,29.2L79.4,30.3L79.4,30.8L79.4,31.2L79.5,32.3L79.5,35.4L79.6,35.7L79.5,37.1L79.6,37.4L79.6,39.9L79.6,40.9L79.6,42.9L79.7,45.4L79.7,48.4L79.7,48.7L79.7,53.7L79.8,54.2L79.8,59.7L79.8,60.0L79.8,60.8L79.9,61.2L79.8,62.0L79.9,65.4L79.9,67.1L80.0,68.5L80.0,68.9L80.1,69.0L80.3,69.0L83.8,68.9L84.0,68.9L84.8,68.9L86.1,68.9L86.6,68.8L86.8,68.6L86.8,67.4L86.8,60.6L86.8,59.5L86.8,59.0L86.7,56.3L86.7,48.7L86.7,48.6L86.7,45.7L86.6,44.8L86.6,40.9L86.6,40.0L86.6,39.1L86.5,38.5L86.5,36.4L86.4,35.5L86.5,34.5L86.4,34.2L86.4,33.7L86.3,31.0L86.3,29.9L86.3,29.3L86.1,29.0L85.8,29.0L83.4,29.0L82.2,29.0L82.0,29.0L81.7,29.0L81.0,29.0L80.5,29.0L80.2,29.0Z M48.1,29.0L45.2,29.0L44.4,29.0L43.5,29.0L43.3,29.2L43.1,29.2L43.0,29.0L41.5,29.0L41.4,29.1L41.3,29.2L41.3,31.7L41.3,32.2L41.4,37.0L41.4,37.6L41.5,40.5L41.6,45.8L41.6,47.4L41.5,47.6L41.5,47.7L41.6,47.8L41.7,51.6L41.8,52.7L41.8,54.6L41.8,55.1L41.8,56.0L41.8,56.3L41.8,56.8L41.8,57.3L41.8,59.0L41.9,60.1L41.9,61.0L41.9,62.2L41.9,62.5L41.9,64.5L42.0,64.9L42.0,67.2L42.0,69.5L42.0,69.6L42.2,69.7L42.3,69.8L44.1,69.7L44.5,69.7L44.8,69.7L49.1,69.6L49.3,69.5L49.3,69.3L49.3,66.8L49.3,66.6L49.3,64.5L49.2,63.7L49.2,62.9L49.2,62.3L49.2,61.7L49.2,60.6L49.2,58.8L49.1,58.6L49.1,55.5L49.0,54.2L48.9,48.4L48.8,48.0L48.8,45.8L48.8,45.4L48.7,40.2L48.6,39.7L48.6,37.1L48.5,35.9L48.5,34.3L48.5,34.1L48.4,29.8L48.3,29.2L48.2,29.1Z M62.1,8.2L61.5,8.4L61.0,8.4L60.6,8.6L60.4,8.6L60.3,8.7L59.6,8.9L58.6,9.4L58.4,9.6L58.1,9.8L57.7,10.0L56.8,10.9L56.2,11.5L55.7,12.1L55.6,12.3L55.2,12.9L54.8,13.7L54.6,14.2L54.2,15.5L54.1,16.2L54.0,17.4L54.0,18.3L54.1,19.3L54.3,20.3L54.6,21.1L54.9,21.8L55.4,22.9L55.8,23.3L56.0,23.7L56.5,24.3L57.1,24.9L58.0,25.8L58.5,26.1L58.8,26.3L59.9,26.9L60.7,27.2L61.0,27.3L61.3,27.4L61.6,27.5L61.8,27.5L62.7,27.7L63.5,27.8L64.3,27.8L65.6,27.7L65.8,27.6L66.3,27.5L66.5,27.4L66.7,27.4L67.1,27.3L67.3,27.2L67.5,27.1L68.3,26.8L68.4,26.7L69.0,26.4L69.8,25.8L70.6,25.1L71.3,24.4L71.8,23.7L72.3,22.9L72.5,22.5L72.6,22.2L72.7,22.1L73.0,21.3L73.2,20.3L73.3,19.9L73.4,19.3L73.5,18.5L73.4,17.4L73.3,16.9L73.3,16.4L73.2,16.3L73.2,16.0L73.1,15.8L73.0,15.1L72.9,14.8L72.7,14.5L72.6,14.2L72.4,13.8L71.9,12.7L71.6,12.5L71.4,12.1L71.3,12.0L70.9,11.5L69.9,10.5L69.6,10.3L69.0,9.8L68.6,9.6L67.7,9.0L67.6,9.0L67.4,8.9L67.3,8.9L67.0,8.8L66.8,8.7L66.5,8.6L66.2,8.5L66.1,8.5L65.7,8.4L65.6,8.4L65.4,8.3L65.2,8.3L64.9,8.2L64.5,8.2L63.7,8.1Z" fill="#000" fill-rule="evenodd"/>
</svg>