<svg xmlns="http://www.w3.org/2000/svg" viewBox="0 0 128 128" width="128" height="128">
  <path d="M67.3,37.2L65.2,37.9L63.8,38.6L62.7,39.4L60.7,41.7L60.4,42.9L60.1,43.2L59.7,45.2L59.7,46.8L60.1,48.8L60.7,50.2L61.9,51.8L62.8,52.8L64.4,53.8L65.5,54.3L67.2,54.6L69.3,54.6L71.1,54.2L72.3,53.7L73.7,52.9L75.3,51.3L76.3,49.8L76.9,48.2L77.2,46.2L77.1,44.8L76.9,43.4L76.3,42.0L75.3,40.5L74.2,39.3L72.8,38.3L71.0,37.5L69.4,37.2Z M118.9,25.6L113.3,25.5L105.5,25.6L104.2,26.1L92.0,37.9L91.6,38.1L88.1,41.4L86.8,42.9L86.2,43.3L84.7,44.8L84.4,45.0L84.0,45.5L82.6,46.7L81.2,48.2L80.4,48.8L77.6,51.7L75.9,53.1L69.8,59.2L69.1,59.8L63.4,65.3L58.1,70.3L51.6,76.8L51.3,77.0L43.7,84.5L43.0,85.1L40.2,87.9L39.6,88.3L36.2,91.8L35.5,92.3L25.7,102.0L25.7,102.5L26.1,102.7L39.3,102.7L40.2,102.3L54.6,88.2L55.1,87.8L57.2,85.7L57.6,85.5L60.9,82.0L63.1,80.0L65.7,77.3L68.3,75.0L71.6,71.6L72.0,71.3L74.3,69.0L74.6,68.8L75.7,67.6L76.3,67.2L76.5,66.8L78.5,64.8L79.2,64.4L84.9,58.7L85.1,58.6L86.3,57.3L86.8,57.0L89.0,54.8L90.4,53.6L92.6,51.3L96.6,47.6L98.3,45.9L105.2,39.5L110.2,34.5L112.3,32.8L113.6,31.4L116.5,28.7L119.0,26.2Z M33.1,25.4L28.4,25.3L19.7,25.3L19.0,25.4L18.9,25.6L18.9,25.8L19.6,26.7L20.7,27.7L20.9,28.1L22.8,29.8L23.5,30.7L29.7,36.8L30.8,38.0L31.8,38.9L32.6,39.8L35.0,42.1L35.8,43.1L38.3,45.5L39.4,46.7L49.1,56.4L49.2,56.7L50.0,57.3L50.8,58.2L51.3,59.4L51.3,60.5L50.9,61.3L49.9,62.5L49.8,62.8L46.0,66.6L35.8,76.3L28.1,83.9L27.5,84.3L26.2,85.7L25.3,86.8L23.9,87.8L20.7,91.1L17.5,94.0L9.7,101.7L9.2,102.4L9.2,102.7L9.4,103.0L16.1,102.8L22.9,102.8L23.6,102.6L26.6,99.8L28.8,97.6L30.0,96.6L31.6,94.9L32.1,94.5L44.5,82.4L45.0,82.0L57.9,69.4L59.9,67.1L60.2,66.5L60.5,66.2L61.6,64.0L62.1,62.4L62.3,60.6L62.3,58.3L61.6,55.6L61.1,54.5L60.4,53.3L58.0,50.6L56.0,48.7L49.0,41.4L44.9,37.3L44.7,37.0L39.5,31.8L39.3,31.4L38.2,30.5L37.8,29.9L35.9,28.0L35.6,27.9L33.6,25.7Z" fill="#000" fill-rule="evenodd"/>
</svg>