<svg xmlns="http://www.w3.org/2000/svg" viewBox="0 0 128 128" width="128" height="128">
  <path d="M19.2,27.1L18.3,28.0L17.6,29.0L17.0,30.0L16.8,31.2L16.7,34.2L17.3,37.9L18.3,41.0L19.9,44.2L21.9,47.0L24.2,49.4L26.0,50.8L28.4,52.4L30.9,53.6L34.6,54.7L37.9,55.2L41.6,55.2L45.3,54.5L48.2,53.6L48.6,53.6L49.0,53.8L49.1,54.3L49.1,70.5L48.9,72.5L48.3,73.0L47.2,73.1L40.7,73.1L37.3,73.3L34.1,73.9L31.7,74.7L29.9,75.5L26.6,77.4L25.5,78.3L23.1,80.5L20.7,83.6L20.0,84.6L18.9,86.8L18.1,88.8L17.9,90.2L17.5,91.0L17.3,92.0L17.3,93.1L17.0,95.0L17.0,111.8L17.4,114.0L17.9,115.3L18.8,116.5L19.8,117.5L21.3,118.4L23.1,119.0L25.4,118.9L27.6,118.0L28.6,117.2L29.6,116.2L30.3,114.9L30.9,113.1L31.0,111.6L30.9,95.4L31.1,94.1L31.5,92.6L32.4,91.0L33.2,90.0L34.2,89.0L35.3,88.2L37.9,87.2L40.1,86.8L42.6,86.9L45.9,86.8L64.7,86.8L65.2,87.2L65.4,88.7L65.3,91.8L65.6,99.3L66.6,103.1L68.1,106.4L68.4,106.8L68.9,107.8L70.1,109.5L71.3,110.8L71.5,111.2L73.1,112.7L75.3,114.4L78.1,116.0L78.6,116.1L79.0,116.4L81.0,117.2L82.9,117.8L85.4,118.2L88.4,118.4L105.0,118.3L106.8,118.0L108.3,117.2L109.0,116.8L110.2,115.4L110.8,114.5L111.3,113.2L111.6,111.7L111.4,110.0L110.9,108.5L110.4,107.7L109.6,106.7L108.9,106.0L106.7,104.9L103.9,104.5L88.1,104.7L85.7,104.2L85.4,103.9L84.8,103.9L84.1,103.5L82.5,102.4L81.3,101.1L80.5,100.1L80.4,99.6L79.9,99.0L79.4,96.8L79.1,61.4L79.2,56.6L79.0,49.8L79.1,39.4L79.6,38.9L80.1,38.7L89.3,38.6L89.7,38.8L91.3,39.1L92.9,39.7L94.8,41.2L95.9,42.5L96.7,43.7L97.4,45.7L97.6,46.8L97.6,48.0L97.8,49.5L98.5,51.0L99.2,52.1L100.6,53.3L102.5,54.2L103.4,54.4L105.5,54.4L107.2,53.9L108.2,53.5L109.1,52.7L110.1,51.6L110.8,50.5L111.1,49.6L111.4,48.3L111.4,45.1L110.7,41.3L110.0,39.3L109.1,37.4L108.2,35.9L107.9,35.2L107.6,35.0L106.4,33.2L103.8,30.5L101.0,28.4L100.5,28.2L100.0,27.9L99.7,27.9L98.0,26.9L94.1,25.5L91.0,25.0L80.9,24.9L68.0,25.1L63.7,25.0L63.2,24.4L63.0,15.6L62.4,13.4L61.7,12.2L60.2,10.7L58.8,9.9L57.2,9.3L55.0,9.3L52.8,10.0L51.9,10.6L50.8,11.6L49.6,13.4L49.2,14.8L49.1,15.6L49.1,32.8L48.8,34.6L47.8,36.9L46.4,38.7L45.1,39.8L43.1,40.9L41.3,41.4L38.8,41.4L36.2,40.7L35.3,40.3L34.1,39.5L32.2,37.7L31.2,35.9L30.7,34.0L30.6,32.6L30.3,30.6L29.7,29.5L29.7,29.2L28.4,27.5L27.2,26.6L25.5,25.9L24.6,25.8L24.3,25.6L22.9,25.6L21.2,26.0L19.9,26.6Z M23.3,110.4L24.9,110.4L25.6,111.0L25.9,111.5L25.9,112.5L25.5,113.2L24.6,113.8L23.5,113.8L22.8,113.4L22.3,112.7L22.3,111.5L22.6,111.0Z M104.4,109.6L105.3,109.7L106.1,110.3L106.5,110.9L106.5,111.8L106.2,112.5L104.9,113.3L103.7,113.0L103.0,112.3L102.8,111.8L102.8,111.1L103.3,110.2Z M76.7,105.2L78.0,105.3L78.5,105.6L78.9,106.1L79.0,107.4L78.8,107.7L78.1,108.5L77.6,108.7L76.8,108.7L76.0,108.4L75.4,107.5L75.3,106.8L75.6,106.0L76.0,105.5Z M28.4,82.9L29.1,82.9L29.6,83.0L30.3,83.8L30.6,84.5L30.6,85.0L30.3,85.8L29.5,86.5L28.7,86.8L28.1,86.8L27.4,86.5L26.9,85.8L26.6,84.9L26.9,83.8L27.4,83.3Z M55.9,77.9L56.5,77.9L57.4,78.2L57.8,78.7L58.2,79.4L58.2,80.2L57.8,81.0L56.8,81.7L55.5,81.6L54.7,80.9L54.4,80.3L54.3,79.5L54.8,78.6L55.3,78.2Z M72.1,77.8L72.8,77.8L73.5,78.2L74.1,79.0L74.2,80.1L73.9,80.7L73.3,81.2L72.8,81.5L71.8,81.5L71.2,81.2L70.4,80.1L70.4,79.3L70.7,78.7L71.4,78.1Z M39.6,46.4L40.6,46.4L41.1,46.7L41.7,47.3L41.8,47.8L41.8,48.5L41.7,49.0L41.0,49.8L40.3,50.1L39.4,50.1L39.0,49.9L38.3,49.1L38.1,48.7L38.1,47.8L38.3,47.3L38.9,46.7Z M72.1,45.9L72.8,46.0L73.3,46.2L73.9,46.8L74.2,47.6L74.2,48.1L73.9,48.9L72.7,49.7L71.5,49.6L70.7,48.9L70.4,48.4L70.5,47.0L71.1,46.3Z M104.2,45.8L105.2,45.8L106.1,46.4L106.4,47.1L106.4,47.9L106.2,48.5L105.8,48.9L105.0,49.4L104.1,49.4L103.3,48.9L102.9,48.5L102.7,47.9L102.7,47.0L103.0,46.6L103.4,46.1Z M24.0,30.7L24.6,30.9L25.3,31.7L25.4,32.9L25.1,33.5L24.5,34.0L23.3,34.3L22.6,34.0L21.9,33.4L21.7,33.0L21.7,32.2L21.9,31.7L22.7,30.9L23.2,30.7Z M55.4,30.1L56.7,30.1L57.1,30.4L57.7,30.9L58.0,31.7L57.8,32.7L57.2,33.6L56.5,33.9L55.0,33.8L54.2,33.0L54.0,32.4L54.1,31.4L54.3,31.0Z M87.8,29.9L88.7,29.8L89.2,30.0L90.1,30.8L90.2,31.1L90.2,32.4L90.1,32.7L89.4,33.3L88.9,33.5L87.6,33.4L86.8,32.7L86.6,32.3L86.6,31.1L87.0,30.5Z M55.3,14.4L56.2,14.3L57.1,14.6L57.8,15.4L57.8,16.4L57.7,16.9L56.8,17.8L55.6,17.9L55.0,17.7L54.3,16.8L54.1,16.4L54.1,15.6L54.8,14.7Z" fill="#000" fill-rule="evenodd"/>
</svg>