<svg xmlns="http://www.w3.org/2000/svg" viewBox="0 0 128 128" width="128" height="128">
  <path d="M63.3,9.2L61.3,10.7L56.4,15.3L55.8,15.9L55.4,16.2L53.0,18.4L52.2,19.0L51.0,20.2L42.2,28.1L39.7,30.6L38.7,31.4L36.9,33.2L34.3,35.4L31.6,38.0L30.7,38.7L24.5,44.3L22.9,46.0L22.7,46.5L22.6,57.7L22.6,93.9L22.8,98.6L22.7,110.2L22.9,110.7L22.8,116.1L23.0,118.1L23.5,118.5L24.3,118.6L40.2,118.6L45.0,118.7L46.9,118.8L49.8,118.8L50.5,118.1L52.7,114.8L55.3,111.3L55.5,110.9L56.1,110.2L56.7,109.2L57.0,108.9L57.3,108.3L58.0,107.4L60.4,103.9L60.8,103.5L60.9,103.1L63.1,100.0L63.7,99.4L64.4,99.4L65.3,100.4L65.4,100.9L67.1,103.1L67.3,103.7L68.9,105.8L71.4,109.8L73.4,112.7L73.7,113.3L74.7,114.6L76.1,117.0L77.4,118.7L77.8,118.8L79.7,118.9L83.3,118.8L88.3,119.0L103.3,118.9L103.8,118.5L104.0,117.5L104.5,81.8L104.7,80.3L104.7,70.9L104.9,68.9L104.9,62.4L105.0,61.3L104.9,48.6L105.5,21.1L105.4,17.0L105.0,16.7L104.0,16.5L96.0,16.4L93.7,16.5L93.0,17.1L92.8,20.4L92.8,31.0L92.7,32.5L92.4,32.8L91.9,32.8L86.2,28.1L86.0,28.0L85.0,27.1L83.1,25.6L80.7,23.5L78.1,21.4L77.6,20.8L74.7,18.5L73.4,17.3L72.5,16.7L71.1,15.3L67.3,12.2L64.3,9.4L63.7,9.2Z M92.2,61.1L92.3,61.2L92.5,61.7L92.5,72.0L91.9,107.0L91.9,107.2L91.4,107.7L90.9,107.8L85.1,108.0L84.0,107.9L83.7,107.7L83.0,107.0L82.9,106.6L81.7,104.9L80.4,102.6L78.4,99.5L77.1,96.9L76.3,95.8L76.2,95.5L74.3,92.0L74.1,91.2L74.2,75.1L74.5,74.3L75.4,73.4L77.1,72.2L78.2,71.2L79.4,70.4L80.0,69.8L80.7,69.4L85.5,65.7L87.0,64.6L87.8,63.9L88.3,63.6L88.9,63.1L91.4,61.3Z M35.1,60.9L35.7,60.9L42.2,65.5L43.1,66.3L43.5,66.5L44.7,67.5L45.7,68.0L46.5,68.8L52.5,73.0L53.2,73.6L53.5,74.6L53.3,92.2L52.4,93.7L52.1,94.1L52.0,94.4L49.1,98.6L48.8,99.2L46.4,102.7L44.2,106.2L42.6,108.0L42.1,108.2L36.0,108.2L35.2,108.0L34.8,107.6L34.7,103.0L34.7,93.4L34.8,88.7L34.8,64.3L34.8,61.3Z M39.0,47.9L41.5,45.4L42.9,44.2L44.1,43.0L44.5,42.8L50.8,37.0L51.2,36.7L52.8,35.1L53.8,34.3L63.0,25.8L64.0,25.3L64.4,25.3L65.5,26.4L66.1,26.7L66.7,27.4L69.8,29.8L71.1,31.0L72.1,31.6L72.8,32.4L73.5,32.9L74.7,33.9L74.9,34.0L76.6,35.7L77.9,36.6L78.3,37.0L82.2,40.2L83.2,41.2L84.2,42.0L85.7,43.3L86.0,43.5L89.4,46.6L89.6,46.9L89.5,47.4L87.0,49.6L86.5,49.8L83.3,52.3L81.3,53.7L80.4,54.6L79.2,55.3L77.3,56.8L76.5,57.2L76.3,57.1L76.3,56.6L76.6,56.1L76.8,55.4L77.0,55.0L77.6,53.2L77.7,52.3L77.9,51.9L77.9,48.6L77.6,46.5L77.0,44.5L75.8,42.3L75.2,41.3L73.5,39.5L71.9,38.3L70.1,37.2L69.0,36.7L66.8,36.1L63.2,35.9L61.3,36.1L59.1,36.6L58.5,37.0L58.2,37.0L56.4,37.9L54.6,39.4L53.4,40.6L52.4,41.8L51.1,44.1L50.5,45.8L50.1,47.1L50.0,48.4L50.0,50.8L50.4,53.2L51.0,55.1L51.9,56.8L51.9,57.1L51.7,57.3L51.0,57.1L49.3,55.9L48.8,55.5L45.4,53.1L44.7,52.8L42.7,51.1L41.7,50.5L40.9,49.8L39.8,49.2L39.1,48.4Z" fill="#000" fill-rule="evenodd"/>
</svg>