<svg xmlns="http://www.w3.org/2000/svg" viewBox="0 0 128 128" width="128" height="128">
  <path d="M104.2,47.3L103.8,47.3L103.0,47.6L100.9,49.0L97.9,50.5L96.0,51.8L93.8,52.9L89.7,55.4L89.3,55.5L88.8,55.9L88.3,56.0L86.3,57.3L84.5,58.2L83.2,59.1L80.8,60.4L80.2,60.8L79.7,61.4L79.3,79.2L79.3,90.7L79.2,95.0L79.2,105.5L79.0,111.6L79.0,118.3L79.3,118.7L80.3,118.9L83.6,118.9L86.8,119.1L103.4,119.1L104.1,118.7L104.3,117.1L104.4,101.2L104.5,91.8L104.4,84.6L104.6,77.0L104.5,66.3L104.7,55.5L104.7,48.3L104.6,47.8Z M24.0,47.2L23.6,47.5L23.6,118.1L24.1,118.6L24.3,118.7L27.3,118.7L48.5,118.7L48.7,118.6L48.9,118.2L49.0,117.6L49.1,113.5L49.0,108.4L49.2,78.6L49.2,61.8L48.3,61.0L48.0,60.9L44.7,58.8L44.2,58.6L42.8,57.7L40.7,56.6L39.1,55.5L36.8,54.4L32.6,51.8L31.3,51.2L29.8,50.2L28.5,49.5L24.9,47.4L24.5,47.2Z M64.8,9.1L63.9,9.3L62.9,9.9L61.7,10.5L60.7,11.2L57.4,13.0L56.6,13.7L56.0,13.8L55.1,14.4L54.6,14.8L53.5,15.3L51.6,16.5L48.7,18.0L47.8,18.7L45.7,19.8L45.3,20.1L44.7,20.4L44.4,20.6L43.7,20.9L43.2,21.4L42.5,21.6L42.0,22.0L41.4,22.2L40.9,22.6L40.2,22.9L36.7,25.0L36.1,25.3L35.4,25.8L34.7,26.0L34.2,26.4L33.7,26.6L33.1,27.1L31.6,27.9L28.1,29.9L27.6,30.1L25.6,31.4L25.2,31.5L24.7,32.0L24.8,32.4L25.3,32.9L26.5,33.4L27.2,34.0L36.3,39.2L36.8,39.6L37.9,40.1L38.6,40.6L39.0,40.7L40.1,41.4L43.0,43.0L43.7,43.5L44.0,43.6L44.9,44.3L46.4,45.0L46.7,45.4L48.2,46.0L49.4,46.9L51.8,48.1L53.3,49.1L54.5,49.6L55.8,50.5L56.9,51.0L58.7,52.3L61.2,53.7L61.7,54.4L61.8,62.0L61.7,77.5L61.7,96.7L61.5,100.4L61.6,107.1L61.4,112.1L61.4,117.9L61.6,118.4L61.8,118.7L62.2,118.7L65.7,118.7L66.3,118.3L66.4,117.6L66.8,81.1L66.8,76.0L66.9,58.0L66.8,57.5L66.8,57.0L66.9,56.6L66.8,55.7L67.0,54.1L67.3,53.7L68.9,52.7L69.6,52.5L70.2,52.0L70.7,51.8L72.8,50.5L74.1,49.9L75.9,48.7L78.2,47.5L79.1,46.9L80.7,46.1L86.7,42.5L89.3,41.2L90.2,40.5L90.8,40.3L91.3,39.9L94.8,38.0L96.2,37.1L102.9,33.4L104.0,32.5L103.9,31.9L99.8,29.3L98.5,28.7L97.1,27.7L92.0,24.9L89.3,23.2L88.8,23.0L85.4,20.9L81.4,18.8L78.7,17.0L77.4,16.4L76.9,16.0L75.8,15.5L73.1,13.8L72.8,13.7L70.7,12.3L69.2,11.6L68.7,11.2L68.0,10.9L65.9,9.6Z M65.7,26.7L67.8,27.2L70.2,28.4L71.3,29.3L72.4,30.6L73.3,31.9L74.3,34.1L74.5,35.4L74.4,38.4L74.1,39.8L73.3,41.5L72.0,43.4L70.7,44.7L70.4,44.8L69.8,45.4L69.2,45.6L67.7,46.4L65.8,46.8L62.4,46.8L61.2,46.4L60.9,46.4L58.7,45.3L57.2,44.1L55.9,42.6L55.2,41.4L54.6,40.2L54.2,38.4L54.2,36.0L54.7,33.7L55.5,31.9L56.6,30.3L57.5,29.6L57.8,29.2L59.8,27.9L61.7,27.1L63.2,26.9L63.7,26.8Z" fill="#000" fill-rule="evenodd"/>
</svg>