<svg xmlns="http://www.w3.org/2000/svg" viewBox="0 0 128 128" width="128" height="128">
  <path d="M38.8,50.5L36.3,51.7L35.7,51.9L35.2,52.3L34.3,52.7L31.8,54.4L28.0,57.6L24.0,62.1L22.6,64.4L22.2,64.7L20.2,68.7L19.3,70.9L18.3,74.2L18.3,74.6L17.9,76.0L17.9,76.6L17.3,80.1L17.3,85.3L17.7,89.3L18.2,91.3L18.2,91.7L18.5,92.6L18.8,94.2L19.5,95.8L20.1,97.6L21.9,101.1L24.2,104.6L26.4,107.2L28.8,109.7L30.7,111.3L33.6,113.2L34.3,113.9L38.6,116.1L40.6,116.8L41.4,117.2L44.7,118.1L45.8,118.2L47.1,118.6L49.2,118.7L50.8,119.1L52.9,119.1L57.0,118.8L61.7,117.9L65.0,116.8L66.9,115.9L67.3,115.8L71.0,113.9L75.1,110.9L77.4,108.7L79.5,106.6L79.7,106.1L80.1,105.8L80.9,104.7L82.9,101.7L82.8,100.3L80.9,94.7L80.8,93.7L79.9,91.0L79.6,90.6L78.9,90.6L77.3,94.8L75.8,97.8L75.0,98.8L74.7,99.4L73.1,101.5L70.0,104.6L66.3,107.2L63.3,108.7L61.1,109.4L60.4,109.8L59.2,110.0L58.3,110.3L56.9,110.5L56.2,110.8L51.7,110.9L48.1,110.6L47.0,110.3L45.6,110.1L44.9,109.8L44.2,109.7L43.5,109.3L42.7,109.2L42.2,108.8L41.4,108.7L41.2,108.4L40.8,108.3L38.8,107.3L38.4,107.0L37.8,106.7L36.7,105.9L36.3,105.7L34.5,104.2L31.6,101.3L30.4,99.8L30.2,99.4L29.7,98.8L29.5,98.3L28.8,97.4L26.9,93.9L25.5,89.5L25.1,87.2L24.8,84.8L24.9,80.1L25.5,76.5L26.4,73.4L26.8,72.9L26.9,72.3L27.2,71.9L27.6,70.8L28.1,70.0L28.8,68.6L29.1,68.2L29.3,67.8L31.0,65.3L32.8,63.5L33.1,63.0L34.1,62.1L36.4,60.3L39.9,58.0L40.3,56.6L40.3,50.7L40.0,50.4Z M48.1,10.9L47.1,11.8L45.5,13.6L44.5,16.2L44.4,17.2L44.4,19.8L44.7,21.4L44.7,25.3L44.5,31.0L44.5,40.9L44.2,55.2L44.3,57.6L44.1,59.2L44.2,71.3L44.7,71.7L45.7,71.9L49.5,72.2L50.6,72.4L53.5,72.6L60.1,73.4L64.8,73.8L68.1,74.3L72.6,74.6L73.9,74.9L79.0,75.4L79.4,75.5L79.9,76.0L80.1,76.5L80.9,79.2L81.8,81.8L83.1,86.8L83.7,88.2L84.5,91.0L85.2,93.1L85.5,94.4L87.0,98.8L87.1,99.5L87.6,100.7L88.1,102.7L89.3,106.2L89.3,106.6L90.4,109.8L91.3,111.8L91.5,112.1L92.5,112.2L97.1,110.7L97.8,110.3L100.7,109.6L101.1,109.3L101.9,109.2L104.7,108.2L105.1,108.0L106.3,107.7L107.5,107.3L107.9,107.1L110.7,106.2L111.1,105.8L110.7,104.0L109.5,100.3L109.0,99.8L107.6,99.9L106.4,100.4L105.8,100.4L103.7,101.2L102.9,101.3L100.7,102.1L99.7,102.3L99.1,102.6L98.1,102.9L97.5,102.9L96.9,102.4L96.4,101.1L95.9,99.2L95.4,97.9L95.2,97.0L93.9,93.1L93.9,92.8L93.3,91.5L93.0,90.3L91.2,84.8L90.9,83.8L90.3,82.2L89.6,79.6L88.6,76.8L88.4,76.0L87.6,73.7L86.3,69.6L86.1,69.2L86.0,68.6L85.4,67.9L81.0,67.3L77.3,67.1L76.2,66.8L74.4,66.8L71.6,66.4L69.3,66.3L68.3,66.1L67.3,66.1L66.7,65.9L64.8,65.8L61.8,65.4L58.2,65.1L57.7,65.0L55.6,64.9L52.8,64.5L52.3,64.1L52.1,63.7L52.0,60.4L52.2,58.2L52.6,57.8L55.8,57.8L64.1,58.8L65.2,58.8L73.1,59.5L74.3,59.5L75.9,59.8L76.9,59.7L77.3,59.3L77.4,58.4L77.8,52.6L77.6,51.8L77.1,51.5L75.0,51.3L74.3,51.1L73.0,51.1L69.7,50.7L67.6,50.6L66.1,50.4L65.0,50.4L62.3,50.0L57.2,49.7L56.7,49.5L53.0,49.3L52.3,48.6L52.3,30.6L52.3,28.6L52.5,28.1L53.0,27.7L55.6,27.5L57.1,27.0L59.1,26.0L60.5,24.6L61.7,22.9L62.6,20.9L62.8,19.4L62.8,17.4L62.7,16.2L62.2,15.0L61.2,13.0L60.6,12.2L58.9,10.7L57.1,9.8L55.4,9.3L52.2,9.2L50.7,9.5L50.2,9.9L49.7,9.9Z" fill="#000" fill-rule="evenodd"/>
</svg>