<svg xmlns="http://www.w3.org/2000/svg" viewBox="0 0 128 128" width="128" height="128">
  <path d="M118.2,68.4L116.5,68.2L69.7,68.2L69.3,68.3L69.0,68.6L68.9,105.8L69.0,117.5L69.1,118.5L69.3,118.9L70.2,119.0L71.0,118.9L72.0,118.9L78.6,117.4L79.0,117.1L80.9,116.7L81.3,116.4L83.2,115.8L84.0,115.4L85.3,115.0L87.5,113.9L88.0,113.8L92.4,111.4L96.1,108.9L97.1,108.0L99.2,106.4L103.2,102.6L106.4,99.1L110.2,93.7L112.3,90.2L114.9,84.9L116.3,80.9L116.3,80.1L116.7,79.3L116.8,78.2L117.1,77.4L117.4,75.7L117.6,75.0L117.8,73.7L118.0,73.0L118.2,70.5L118.4,69.0Z M107.8,77.1L108.0,77.4L108.0,77.7L107.9,77.9L107.6,79.2L107.4,79.7L107.2,80.5L105.8,83.9L103.9,87.5L101.9,90.6L100.2,92.8L98.0,95.5L96.2,97.4L92.9,100.3L91.4,101.5L86.6,104.6L85.4,105.1L84.9,105.5L83.7,105.9L83.3,106.3L82.7,106.4L81.0,107.2L80.7,107.2L79.9,107.6L78.5,108.0L78.1,108.0L77.8,107.7L77.7,105.8L77.8,98.6L77.6,89.5L77.6,77.6L78.0,77.1L91.1,77.0L103.7,77.0Z M10.1,68.3L9.8,68.8L10.2,72.8L10.4,73.6L10.7,75.3L11.0,76.4L11.0,77.1L11.3,77.9L11.3,78.4L11.6,78.9L11.9,80.4L13.0,83.6L14.3,86.6L14.5,87.0L15.6,89.4L16.4,90.7L17.0,92.1L18.7,94.9L19.3,95.5L20.2,97.0L22.5,99.8L25.6,103.2L28.7,106.2L33.3,109.7L33.7,109.9L34.5,110.6L35.1,110.8L36.2,111.6L38.2,112.6L38.5,112.9L40.9,114.0L42.1,114.6L43.7,115.2L44.4,115.6L46.6,116.3L47.0,116.5L50.9,117.6L51.4,117.8L56.4,118.8L58.3,118.9L58.9,119.1L60.4,119.0L60.5,118.5L60.6,108.0L60.6,76.6L60.5,69.6L60.4,68.5L60.1,68.2L11.8,68.1Z M20.9,77.3L33.5,77.1L50.7,77.1L51.4,77.1L51.8,77.5L51.9,88.1L51.8,102.8L51.8,105.8L51.8,107.9L51.5,108.3L51.0,108.4L50.5,108.0L49.6,107.9L49.0,107.6L47.0,106.9L46.6,106.7L46.0,106.5L45.3,106.1L44.8,105.9L40.9,103.9L37.6,101.7L35.5,100.0L35.3,99.9L31.9,96.8L28.7,93.3L27.4,91.4L26.9,90.9L24.1,86.5L22.0,82.0L21.9,81.5L21.6,81.0L21.3,80.1L21.0,79.5L20.6,78.1L20.6,77.5Z M9.8,58.0L9.8,59.2L10.0,59.4L10.4,59.5L32.9,59.4L53.0,59.6L54.0,59.5L55.9,59.0L58.1,57.7L59.6,56.2L60.5,54.8L61.0,53.9L61.5,51.5L61.5,49.6L61.0,47.5L60.5,46.3L58.9,44.2L58.2,42.1L58.1,40.5L58.6,38.4L59.6,36.9L61.0,35.6L62.7,34.8L64.0,34.6L64.8,34.6L66.4,34.8L68.4,35.9L69.7,37.3L70.6,39.1L71.0,40.6L70.9,42.2L70.3,44.0L68.9,46.1L68.0,48.3L67.8,50.1L67.9,51.8L68.4,53.7L69.5,55.9L71.4,57.9L73.0,58.8L75.2,59.5L76.2,59.6L118.0,59.6L118.4,59.2L118.4,58.3L118.2,57.1L118.0,56.8L117.9,54.7L117.6,53.5L117.0,50.1L115.7,45.9L113.6,40.7L113.2,40.1L112.8,39.1L112.3,38.5L111.4,36.6L108.4,31.9L107.9,31.3L107.7,30.9L105.5,28.2L101.1,23.6L97.2,20.4L93.1,17.4L88.8,15.1L85.0,13.3L79.8,11.4L78.4,11.1L77.9,10.9L77.2,10.8L74.4,10.0L70.8,9.5L65.4,9.1L62.4,9.1L58.3,9.4L53.8,10.0L49.2,11.1L48.5,11.4L47.6,11.6L44.9,12.5L43.3,13.1L42.7,13.6L41.8,13.7L41.4,14.0L39.3,14.8L35.7,16.9L31.5,19.6L30.9,20.2L29.7,21.0L28.0,22.5L24.5,25.9L22.3,28.3L20.7,30.4L18.7,33.2L16.5,36.6L16.0,37.9L15.4,38.8L13.8,42.3L13.2,44.0L12.6,45.4L12.2,46.7L12.0,47.1L10.9,51.1L10.4,54.0L10.3,54.4L10.0,57.5Z M20.7,49.6L21.9,45.9L23.9,41.8L25.5,39.0L27.7,35.7L30.1,32.8L33.1,29.8L36.2,27.1L38.6,25.4L42.1,23.3L44.8,21.9L45.3,21.7L45.6,21.5L46.1,21.4L46.6,21.1L47.1,21.0L47.9,20.6L50.5,19.7L51.1,19.6L52.1,19.2L52.6,19.2L56.2,18.3L58.5,18.0L60.2,17.9L61.4,17.7L66.3,17.7L70.5,18.1L73.2,18.6L74.9,19.1L75.7,19.1L79.7,20.4L80.4,20.8L82.5,21.5L86.0,23.2L90.1,25.7L92.3,27.3L94.5,29.2L94.8,29.4L99.2,33.9L101.0,36.3L101.0,36.5L103.2,39.4L104.4,41.8L104.8,42.2L105.6,44.1L106.0,44.8L107.5,48.5L108.0,50.5L107.6,50.8L107.2,50.9L81.1,50.9L77.0,50.7L76.8,50.5L76.8,50.2L78.1,47.8L78.9,45.7L79.3,44.0L79.5,42.5L79.5,40.5L79.2,38.4L78.7,36.2L78.4,35.9L78.3,35.3L77.4,33.5L75.7,31.1L73.0,28.7L71.2,27.6L68.4,26.5L66.7,26.1L64.7,26.0L63.1,26.0L61.0,26.3L58.5,27.1L56.5,28.2L54.6,29.6L53.1,31.0L51.9,32.6L50.9,34.4L50.5,35.5L49.9,37.4L49.6,39.3L49.5,41.4L49.8,44.0L50.2,45.6L50.9,47.3L51.8,49.2L52.4,50.0L52.3,50.5L51.7,50.6L32.7,50.6L31.9,50.5L22.2,50.5L20.9,50.3L20.7,50.0Z" fill="#000" fill-rule="evenodd"/>
</svg>