<svg xmlns="http://www.w3.org/2000/svg" viewBox="0 0 128 128" width="128" height="128">
  <path d="M119.1,69.2L118.6,69.0L117.9,69.0L117.2,69.1L114.2,69.3L109.9,69.9L107.7,70.0L105.0,70.4L102.5,70.6L100.7,70.9L98.9,71.0L92.6,71.8L91.4,71.8L89.0,72.2L87.8,72.2L85.5,72.6L84.4,72.6L80.0,73.1L79.4,73.6L79.3,99.0L79.4,105.8L79.4,114.1L79.6,117.1L79.8,117.5L80.5,117.5L81.1,117.4L82.7,116.8L83.7,116.5L85.5,115.7L85.8,115.7L86.3,115.4L89.9,113.8L90.9,113.2L91.5,113.0L91.7,112.7L92.2,112.6L94.3,111.4L97.6,109.1L100.5,106.7L104.1,103.4L107.0,100.1L109.3,97.2L110.1,95.8L111.2,94.3L111.4,93.7L112.1,92.9L112.3,92.3L113.0,91.3L114.4,88.5L115.6,85.5L117.5,80.0L118.1,77.2L118.5,74.7L118.7,74.3L118.7,73.0L119.0,72.2L119.0,71.0L119.1,70.4Z M9.4,69.1L9.1,69.5L9.1,70.8L9.3,72.0L9.5,73.9L9.7,74.5L10.0,76.4L10.2,77.0L10.8,79.6L12.0,83.6L12.7,85.1L12.7,85.4L13.1,85.9L13.3,86.7L13.5,86.9L13.9,87.8L14.1,88.4L14.3,88.6L15.0,90.3L16.2,92.1L16.2,92.4L19.3,97.1L22.4,100.9L27.1,105.7L30.7,108.6L34.4,111.1L34.7,111.4L39.4,114.1L41.8,115.2L42.5,115.3L42.9,115.6L44.8,116.3L45.2,116.5L46.3,116.8L46.7,117.0L47.3,117.1L47.8,117.3L48.3,117.2L48.6,116.9L48.6,116.4L48.6,113.0L48.5,109.2L48.5,100.6L48.3,92.9L48.3,77.5L48.2,74.3L48.1,73.5L47.8,73.3L47.2,73.1L43.1,72.6L42.6,72.5L41.5,72.5L40.4,72.2L39.2,72.2L36.1,71.8L34.5,71.7L27.7,70.8L25.7,70.7L25.1,70.6L23.8,70.5L21.1,70.1L17.9,69.9L16.1,69.5L15.1,69.5L12.7,69.1L11.6,69.1L10.5,69.0Z M9.2,58.2L9.3,59.7L9.6,60.0L10.3,60.0L20.8,59.9L26.8,59.9L31.6,60.0L58.5,60.0L58.8,59.9L59.3,59.3L59.7,58.5L59.7,57.9L58.1,55.9L57.3,54.3L57.0,52.9L56.8,51.7L56.9,46.4L57.3,45.1L57.7,44.5L58.9,43.2L60.2,42.7L61.9,42.4L64.1,42.5L66.0,42.5L67.2,42.8L68.4,43.5L69.1,44.3L69.9,45.7L70.3,48.2L70.3,51.7L69.9,54.0L69.0,55.9L67.4,58.0L67.5,58.7L68.1,59.7L68.4,60.0L77.0,60.0L79.8,59.9L99.6,59.9L114.8,59.7L116.0,59.6L118.3,59.6L118.8,59.2L118.3,54.9L117.4,51.3L117.1,50.7L116.6,48.7L115.6,46.0L115.4,45.7L114.5,43.4L113.3,40.9L110.3,35.8L106.9,31.1L103.0,26.8L100.0,24.0L96.3,21.1L93.7,19.4L90.6,17.6L89.5,17.1L89.3,16.9L88.6,16.6L87.3,15.8L86.3,15.5L85.9,15.2L84.6,14.8L84.0,14.5L82.5,14.0L81.8,13.6L79.6,12.9L78.1,12.6L77.1,12.2L75.8,12.0L74.5,11.6L73.9,11.6L72.1,11.2L69.0,10.8L67.4,10.8L66.7,10.7L64.5,10.6L60.4,10.7L54.7,11.3L49.9,12.4L44.6,14.0L43.0,14.7L42.5,14.8L40.9,15.7L40.5,15.8L38.8,16.6L38.4,16.7L34.1,19.2L32.5,20.4L32.0,20.5L29.9,22.1L28.6,23.3L28.4,23.4L26.1,25.2L23.3,28.0L20.0,31.9L17.0,36.0L14.7,40.0L12.7,44.3L12.7,44.5L12.4,45.1L11.1,48.9L10.9,49.9L10.6,50.6L10.5,51.6L10.1,52.4L10.1,53.3L9.7,54.7L9.6,56.0L9.3,56.9Z" fill="#000" fill-rule="evenodd"/>
</svg>