<svg xmlns="http://www.w3.org/2000/svg" viewBox="0 0 128 128" width="128" height="128">
  <path d="M78.4,54.7L75.7,54.5L74.9,54.8L73.2,55.6L71.7,56.9L71.4,57.0L70.9,57.0L69.4,55.7L67.4,54.9L66.8,54.7L64.9,54.8L63.5,55.2L62.6,55.7L61.3,56.7L60.8,57.4L60.0,58.8L59.5,60.3L59.2,62.5L59.3,65.0L60.3,68.1L61.1,69.7L63.4,73.1L65.7,75.2L66.0,75.4L66.9,76.3L67.3,76.5L68.0,77.0L68.5,77.2L69.5,77.9L69.9,78.1L70.8,78.6L71.5,78.6L74.4,77.0L77.2,74.8L79.4,72.7L80.2,71.7L81.4,69.7L82.6,66.7L83.1,64.9L83.3,63.0L83.2,60.0L82.9,59.0L81.8,57.0L80.8,56.0L80.2,55.6Z M103.0,14.7L102.5,15.0L101.8,15.7L102.0,16.5L102.9,17.1L103.0,17.1L103.0,16.6L102.5,16.1L102.5,15.9L103.0,15.2Z M103.0,12.9L102.7,13.1L102.3,13.5L102.3,13.6L102.8,13.7L103.0,13.5Z M89.6,12.9L89.5,15.7L89.7,16.1L90.1,16.6L90.8,16.8L91.5,16.7L92.1,16.5L92.9,16.5L93.1,16.4L93.2,15.7L93.1,12.8L92.8,12.8L92.6,12.9L92.5,15.2L92.0,16.0L91.4,16.3L90.8,16.3L90.1,15.7L90.1,13.1L90.0,12.8Z M94.8,13.0L94.7,16.4L94.9,16.6L95.2,16.5L95.3,16.4L95.3,14.0L95.5,13.6L96.2,13.1L96.7,13.1L97.2,13.6L97.4,16.6L97.5,16.7L97.8,16.4L97.9,14.0L98.4,13.3L98.9,13.2L99.4,13.3L99.8,13.6L99.9,14.6L99.8,16.4L100.0,16.7L100.2,16.8L100.4,16.6L100.4,13.6L100.2,13.1L99.5,12.6L98.9,12.6L98.3,13.0L97.7,13.0L97.1,12.6L96.6,12.6L96.0,12.7L95.9,12.9L95.1,12.8Z M84.5,10.8L84.3,12.5L84.4,16.4L84.7,16.4L84.9,16.3L85.0,14.0L85.2,13.6L85.6,13.3L86.2,13.0L86.9,13.1L87.3,13.5L87.4,14.4L87.5,16.4L87.9,16.4L88.1,15.3L88.0,13.5L87.7,12.9L87.4,12.6L87.0,12.5L86.0,12.5L85.5,12.7L85.1,12.6L85.0,10.9L84.8,10.8Z M61.5,9.2L58.3,10.1L57.3,10.5L56.1,11.2L55.6,11.4L53.9,12.5L50.9,15.3L50.0,16.4L48.2,19.5L48.2,19.7L47.3,21.9L46.4,26.0L46.4,29.1L46.7,30.0L46.9,31.6L47.9,34.5L48.9,36.2L49.6,37.5L51.7,40.2L53.9,42.3L55.8,43.6L57.8,44.5L57.9,44.9L57.6,45.2L55.4,45.2L51.7,45.0L44.1,45.0L41.0,44.9L40.3,44.8L34.6,44.9L33.1,44.7L30.7,44.8L26.9,44.6L26.4,45.2L26.4,48.4L26.5,49.8L26.5,59.8L26.6,62.6L26.4,77.6L26.5,83.9L26.3,85.8L26.2,89.8L26.3,91.0L26.4,91.1L26.8,91.3L29.6,91.3L32.4,91.0L36.4,91.0L38.4,91.3L40.3,91.2L44.0,91.4L44.7,91.3L45.3,91.4L45.8,91.7L46.0,93.3L45.9,100.2L46.1,106.4L45.8,117.5L45.9,118.1L46.2,118.4L47.8,118.5L52.3,118.5L58.7,118.7L59.5,118.4L59.7,118.0L59.9,113.7L59.8,107.9L59.9,92.0L60.3,91.7L60.6,91.6L62.2,91.6L62.8,91.7L64.7,91.7L67.8,91.8L68.1,92.2L68.1,93.4L68.0,103.8L68.1,118.4L68.4,118.8L69.2,118.9L70.9,118.8L74.1,119.0L78.2,119.0L79.5,119.2L81.0,119.1L81.3,118.9L81.6,118.5L81.8,116.1L81.7,111.3L81.9,108.2L81.8,103.7L81.9,100.3L81.8,96.5L81.9,92.4L82.4,91.9L87.1,91.9L88.6,92.0L92.1,92.0L93.6,92.1L97.1,92.0L98.0,92.2L101.1,92.3L101.5,92.1L101.6,91.8L101.6,81.0L101.8,79.8L101.7,67.6L101.9,56.6L101.9,46.2L101.6,45.7L101.2,45.6L85.0,45.6L81.6,45.4L79.0,45.5L77.5,45.3L73.1,45.3L71.2,45.2L71.0,45.0L71.0,44.8L71.3,44.5L72.6,43.9L72.9,43.6L74.4,42.8L75.9,41.6L77.4,40.1L78.4,39.0L79.5,37.4L80.7,35.3L81.9,31.9L82.2,29.5L82.3,26.1L81.9,23.4L81.6,22.6L81.6,22.2L81.3,21.2L80.2,18.7L79.2,17.2L79.1,16.9L78.0,15.3L75.8,13.2L74.8,12.6L73.3,11.4L71.8,10.5L69.8,9.8L67.8,9.3L66.1,9.1L63.3,9.1Z M97.7,85.4L99.1,85.4L99.7,85.8L99.8,89.6L99.5,90.5L99.1,90.8L97.4,90.7L97.0,90.1L96.8,87.6L96.9,86.8L97.1,85.8Z M93.4,85.4L95.2,85.4L95.7,86.0L95.7,90.0L95.5,90.5L95.0,90.8L94.2,90.9L93.6,90.7L93.1,90.5L92.8,90.0L92.9,85.8L93.2,85.5Z M89.4,85.4L90.8,85.3L91.2,85.5L91.5,85.9L91.5,90.0L91.3,90.3L90.8,90.7L89.4,90.7L88.7,90.3L88.5,88.6L88.6,86.2L88.7,85.8L89.0,85.5Z M37.5,84.5L39.2,84.6L39.5,84.7L39.9,85.1L39.9,88.6L39.9,89.4L39.6,89.8L37.5,89.9L37.0,89.3L37.0,85.0Z M33.4,84.5L35.4,84.5L35.7,84.9L35.8,89.2L35.4,89.7L33.7,89.8L33.3,89.6L33.1,89.4L32.8,88.0L32.9,84.8Z M29.2,84.5L30.6,84.4L31.0,84.5L31.4,84.8L31.7,88.4L31.5,89.3L31.1,89.6L30.2,89.7L29.4,89.6L28.9,89.1L28.8,85.3L28.9,84.8Z M41.8,51.1L42.6,50.5L43.7,50.1L52.2,50.1L55.1,50.2L56.2,50.4L64.1,50.2L68.8,50.2L73.2,50.4L75.0,50.3L78.1,50.4L84.4,50.4L85.1,50.5L86.3,51.1L87.0,51.8L87.4,52.6L87.6,53.8L87.4,56.5L87.5,63.3L87.4,64.1L87.4,67.8L87.3,72.8L87.4,76.8L87.2,79.6L87.3,82.3L87.2,84.2L86.8,85.2L86.3,86.0L85.3,86.6L84.5,86.9L78.1,86.9L75.6,86.7L70.1,86.7L68.1,86.5L65.1,86.6L63.3,86.5L56.2,86.5L53.7,86.3L51.3,86.4L50.0,86.3L49.4,86.2L44.2,86.3L43.0,86.0L42.4,85.6L41.4,84.4L41.1,83.1L41.0,53.1L41.3,52.0Z" fill="#000" fill-rule="evenodd"/>
</svg>