<svg xmlns="http://www.w3.org/2000/svg" viewBox="0 0 128 128" width="128" height="128">
  <path d="M23.6,120.0L23.6,120.2L24.1,120.2L24.5,119.7L25.2,119.5L25.7,119.7L26.0,120.1L26.6,120.2L26.5,119.5L26.1,119.2L25.5,118.9L24.8,118.9L23.9,119.3Z M19.3,119.8L19.3,120.2L19.8,120.2L19.9,119.8L20.3,119.4L21.3,119.3L21.7,119.6L22.0,120.2L22.5,120.2L22.3,119.3L21.6,118.8L20.2,118.8L19.5,119.4Z M100.6,35.9L100.4,36.1L100.2,36.9L100.2,38.5L100.4,38.9L101.1,39.2L102.9,39.2L103.2,39.1L103.7,38.4L103.7,37.0L103.4,36.1L103.2,35.9L102.5,35.7L101.1,35.7Z M100.6,30.8L100.2,31.3L100.3,33.6L100.8,33.9L101.7,34.1L102.6,34.1L103.3,33.9L103.6,33.6L103.7,33.1L103.5,31.0L102.9,30.8L101.9,30.6L101.2,30.6Z M108.2,9.6L107.7,9.4L106.0,9.4L105.2,10.2L105.0,12.0L104.6,12.3L104.2,12.3L103.8,11.7L103.7,10.2L103.3,9.5L102.8,9.4L101.0,9.4L100.3,10.1L100.2,11.7L100.1,11.9L99.6,12.4L99.3,12.4L98.9,11.8L98.7,10.1L98.2,9.4L96.4,9.3L96.0,9.4L95.5,9.7L95.2,11.0L95.3,15.3L95.4,15.6L96.0,16.1L99.4,16.3L99.8,16.5L100.0,17.1L100.0,22.3L99.8,24.5L99.3,25.1L98.4,25.4L89.7,25.4L65.0,25.0L64.8,24.8L64.6,24.5L64.3,23.2L64.3,13.3L64.0,12.7L63.2,12.5L62.0,12.5L61.5,12.6L60.9,13.1L60.7,14.8L60.2,15.5L59.8,15.5L59.4,15.2L59.4,13.3L59.3,13.0L58.6,12.4L56.7,12.4L56.3,12.5L55.8,13.4L55.7,14.8L55.6,15.2L55.2,15.5L54.8,15.4L54.5,14.8L54.4,13.1L53.7,12.4L51.8,12.4L51.3,12.5L50.9,13.0L50.7,13.4L50.5,15.0L50.1,15.4L49.8,15.4L49.5,14.9L49.5,13.4L49.3,12.9L49.0,12.6L48.5,12.5L46.4,12.5L45.7,12.9L45.6,13.3L45.5,27.7L45.2,29.0L44.4,29.8L43.3,30.3L41.2,31.6L40.4,32.0L37.0,34.5L36.1,35.4L35.2,36.1L31.5,39.6L30.2,41.1L27.5,44.5L26.8,45.9L25.8,47.3L22.7,53.8L22.1,55.5L22.1,55.9L21.6,57.1L21.6,57.5L21.2,58.8L21.0,60.2L20.7,60.7L20.6,61.7L20.3,63.0L19.9,66.0L19.9,68.2L19.7,68.9L19.8,73.2L20.5,78.5L21.8,84.0L24.1,89.7L26.3,93.9L26.7,94.3L27.0,94.9L27.8,95.9L28.8,97.5L31.7,101.0L35.9,105.1L38.7,107.1L39.6,107.9L44.7,110.9L46.6,111.6L47.0,111.8L47.8,112.0L49.5,112.9L50.4,113.1L52.2,113.8L53.0,113.9L55.2,114.5L56.4,114.6L57.8,114.9L63.5,115.4L70.7,114.9L73.2,114.5L77.2,113.4L78.2,113.0L78.5,113.0L79.3,112.6L80.3,112.4L81.6,111.6L82.5,111.4L83.1,111.0L83.5,110.9L84.9,110.2L85.3,109.9L86.4,109.4L87.7,108.5L88.8,107.9L92.2,105.4L94.7,103.2L97.1,100.8L97.3,100.4L99.0,98.7L99.4,98.5L99.7,98.7L99.6,117.9L99.8,118.6L100.3,118.9L102.2,119.1L102.7,118.9L102.9,118.6L103.2,117.7L103.2,104.6L103.4,97.9L103.3,95.6L103.5,94.5L103.5,92.2L103.8,90.8L104.8,88.9L105.4,87.2L105.4,86.8L106.3,85.0L106.3,84.7L106.8,83.3L107.4,81.2L107.6,79.5L107.9,78.9L108.1,77.1L108.3,76.3L108.5,74.8L108.5,72.0L108.3,71.3L107.4,71.0L105.8,71.0L105.3,71.2L105.0,71.6L104.7,73.2L104.4,76.6L104.0,78.1L103.7,78.1L103.6,66.5L103.8,49.9L103.7,47.1L103.7,42.5L103.6,41.2L102.9,40.8L95.2,40.8L94.5,40.7L74.2,40.7L65.2,40.4L64.4,39.5L64.4,30.0L64.8,29.0L66.0,28.6L71.5,28.8L87.2,28.7L89.2,28.9L103.1,28.9L103.7,28.2L103.7,25.3L103.9,23.8L103.8,18.1L104.0,17.1L104.5,16.4L105.0,16.3L107.7,16.2L108.2,15.9L108.4,15.3L108.6,11.0L108.5,10.1Z M49.8,27.6L50.2,27.6L50.4,27.8L50.6,29.1L50.5,39.3L50.7,40.0L51.0,40.5L51.9,40.7L53.7,40.7L54.2,40.3L54.5,39.6L54.6,29.5L55.2,29.1L55.6,29.6L55.6,40.0L55.9,40.4L56.7,40.7L58.6,40.7L59.2,40.2L59.4,39.8L59.4,37.6L59.4,28.9L59.7,27.9L60.1,27.6L60.5,27.6L60.8,27.9L60.8,40.0L60.9,40.4L61.3,40.7L63.6,40.8L64.0,41.4L64.0,42.0L64.0,46.7L63.9,49.2L63.9,70.7L64.4,74.7L65.0,76.8L65.8,78.6L66.6,80.0L67.5,81.1L68.4,82.5L69.9,83.8L72.7,85.7L74.9,86.8L75.7,87.0L76.2,87.3L78.1,87.8L80.0,87.9L80.8,88.0L83.8,87.9L84.9,87.5L85.8,87.4L87.8,86.7L88.2,86.5L89.1,86.2L90.7,85.0L91.2,84.9L92.3,84.0L94.1,82.2L96.1,79.6L97.3,77.0L97.8,75.2L98.1,74.8L98.3,72.8L98.3,71.3L98.1,70.9L97.5,70.6L96.1,70.6L95.4,70.8L94.9,71.6L94.6,73.7L94.1,75.4L93.8,75.8L93.8,76.3L93.2,77.4L92.2,79.0L90.1,81.2L88.4,82.4L86.1,83.5L85.0,84.0L83.3,84.3L79.3,84.3L75.4,83.3L72.4,81.3L70.2,78.9L69.1,77.2L68.3,75.3L68.2,74.5L67.7,72.8L67.5,62.4L67.7,49.0L67.6,45.6L67.8,44.8L68.4,44.2L69.3,44.1L92.2,44.2L94.7,44.4L96.8,44.3L99.6,44.5L99.9,44.8L100.0,45.7L99.9,57.2L100.0,60.6L100.0,82.7L99.9,84.1L99.9,89.9L99.7,90.7L98.7,92.5L97.2,94.7L96.5,95.5L96.1,96.3L93.5,99.3L92.0,100.6L90.9,101.8L86.3,105.2L83.8,106.5L83.3,107.0L82.7,107.1L82.4,107.4L82.0,107.5L80.5,108.3L76.4,109.9L75.7,110.0L74.8,110.3L74.0,110.4L72.6,110.9L71.5,110.9L68.9,111.5L66.7,111.6L65.7,111.7L61.7,111.7L60.8,111.5L58.6,111.4L54.3,110.5L51.2,109.6L48.0,108.2L47.2,108.0L46.8,107.7L43.6,106.1L40.1,103.7L37.2,101.3L33.5,97.6L30.7,94.1L28.9,91.2L27.0,87.3L26.9,86.8L26.4,85.8L26.4,85.6L25.4,83.2L24.7,80.3L24.5,80.1L23.8,76.6L23.5,73.4L23.5,67.7L23.6,65.3L24.6,60.5L25.8,56.4L26.2,55.2L26.6,54.7L27.0,53.3L27.8,51.6L29.9,47.9L31.0,46.3L31.9,45.2L32.4,44.4L33.5,43.1L33.7,42.8L35.9,40.6L36.4,40.0L38.1,38.4L40.5,36.4L41.9,35.7L42.8,35.0L44.2,34.2L45.1,34.1L45.4,34.5L45.5,39.2L45.7,40.3L46.4,40.6L48.8,40.6L49.4,40.0L49.5,38.8L49.5,29.3L49.5,27.9Z M49.6,20.7L49.7,19.9L50.0,19.6L50.5,19.4L58.1,19.4L60.2,19.5L60.5,19.8L60.2,21.6L59.7,22.5L59.0,23.4L57.8,24.4L55.9,25.0L53.6,24.8L52.8,24.6L51.9,24.0L51.1,23.3L50.2,22.1Z" fill="#000" fill-rule="evenodd"/>
</svg>