<svg xmlns="http://www.w3.org/2000/svg" viewBox="0 0 128 128" width="128" height="128">
  <path d="M91.0,58.8L89.7,58.5L82.7,58.4L81.5,58.7L81.2,58.9L81.3,60.1L81.5,60.4L82.2,64.0L82.9,65.9L84.3,71.3L84.4,71.7L84.8,72.0L85.3,71.7L86.5,69.3L86.9,68.7L86.9,68.4L87.3,67.7L88.3,65.4L88.8,64.7L90.3,61.1L90.8,60.4L90.8,60.1L91.1,59.5Z M19.6,19.8L19.1,20.3L18.1,22.6L18.0,23.2L17.4,24.3L16.9,25.6L16.6,26.0L16.4,27.0L16.1,27.4L15.4,29.8L14.5,32.0L14.5,32.4L13.5,35.9L13.1,36.7L12.0,41.3L11.7,43.0L11.0,45.8L10.8,48.0L10.3,50.0L10.1,52.2L9.9,53.2L9.3,61.7L9.3,70.7L9.6,75.4L10.5,82.4L11.7,89.0L12.7,93.0L13.6,95.6L13.6,96.0L15.0,100.0L15.2,100.9L15.5,101.5L15.7,102.4L16.0,102.9L16.3,103.9L17.9,107.6L18.8,108.5L22.2,110.1L22.5,110.1L25.7,111.4L28.2,112.1L28.8,112.5L30.5,112.8L32.0,113.5L33.6,113.7L34.5,114.1L38.1,114.9L39.3,115.3L41.3,115.6L44.3,116.3L46.6,116.5L48.2,116.9L49.5,116.9L50.2,117.1L52.6,117.2L54.0,117.5L58.1,117.8L65.0,117.9L72.4,117.6L74.5,117.2L80.0,116.7L82.2,116.3L82.9,116.3L83.7,116.0L85.1,115.8L85.9,115.6L89.8,114.9L90.4,114.6L94.7,113.6L100.4,111.9L102.3,111.1L104.8,110.2L105.2,110.2L105.7,109.9L106.4,109.7L107.0,109.3L108.3,108.8L109.2,108.1L109.7,107.3L109.9,106.5L110.6,105.2L110.9,104.2L111.4,103.5L111.4,102.9L111.8,102.4L112.0,101.5L112.1,101.3L112.8,99.7L112.9,99.0L113.4,98.0L113.4,97.6L114.2,95.6L114.6,93.8L115.2,92.1L115.5,90.6L115.8,89.7L115.8,89.1L116.2,88.1L116.4,87.0L116.5,86.7L116.6,85.8L117.2,83.7L117.6,81.1L117.6,80.3L117.9,79.4L118.0,77.7L118.2,77.1L118.3,75.6L118.5,74.9L118.5,73.8L118.8,71.4L118.8,68.9L119.0,66.7L119.0,59.3L118.6,53.8L118.1,49.9L118.1,49.0L117.8,47.6L117.5,45.3L117.2,44.5L116.8,41.7L116.6,41.4L116.6,40.7L115.1,34.7L114.9,34.1L114.1,31.2L112.7,26.8L110.6,22.0L110.1,21.3L108.5,20.3L107.0,19.7L105.9,19.1L102.3,17.8L101.5,17.4L99.7,16.8L98.8,16.4L95.9,15.4L95.1,15.3L94.3,15.0L93.1,14.7L92.7,14.5L89.0,13.5L87.4,13.2L85.2,12.6L82.9,12.3L82.5,12.1L76.0,11.1L70.6,10.6L63.2,10.3L60.2,10.3L59.0,10.5L55.5,10.6L54.7,10.8L50.7,11.0L49.4,11.3L46.7,11.5L43.4,12.3L42.3,12.3L40.7,12.8L40.1,12.8L39.5,13.0L34.5,14.2L33.7,14.5L31.2,15.2L30.2,15.6L27.5,16.4L25.6,17.2L24.8,17.4L24.3,17.7L23.8,17.8Z M66.6,98.2L68.1,98.1L72.2,98.2L72.5,98.2L72.9,98.9L73.1,99.6L73.1,102.8L72.8,109.9L72.6,110.8L72.0,111.3L68.5,111.4L66.3,111.2L65.8,110.6L65.6,109.5L65.6,103.3L65.8,102.0L65.9,99.0Z M54.5,98.1L59.7,98.1L60.5,98.2L60.9,98.7L60.9,108.5L60.6,110.5L60.4,110.8L60.0,111.2L54.7,111.3L54.2,111.1L53.8,110.6L53.6,109.3L53.8,99.0Z M25.3,51.2L26.0,50.9L31.9,50.9L32.7,50.9L33.5,51.6L33.8,52.4L34.5,53.6L37.0,58.5L37.7,60.3L37.9,60.5L38.0,61.0L38.6,62.2L38.9,62.5L39.7,64.2L40.0,64.5L40.6,66.1L42.3,69.6L43.0,70.6L43.4,70.6L43.6,70.5L44.5,68.0L44.9,66.4L45.3,65.3L45.4,64.6L45.8,63.8L45.9,62.7L47.0,59.7L47.4,57.8L48.4,55.3L48.8,53.3L49.5,51.5L50.2,50.9L57.6,50.8L65.4,50.9L68.3,51.0L86.7,51.0L90.1,51.2L95.6,51.2L101.1,51.4L102.6,51.6L102.8,51.9L102.8,52.5L102.6,52.7L102.5,53.4L102.1,53.9L101.5,55.5L100.1,58.2L99.7,59.4L97.7,63.1L97.5,63.7L96.8,65.0L96.1,66.7L94.3,70.2L94.2,70.6L93.7,71.5L93.6,72.0L93.3,72.2L92.9,73.5L91.4,76.3L90.2,79.1L89.7,79.8L89.6,80.2L87.6,84.2L87.6,85.6L88.0,86.5L88.9,91.0L89.4,92.3L89.5,93.2L89.8,94.6L89.8,95.2L89.5,95.5L88.8,95.8L79.1,95.8L44.9,95.3L43.6,95.4L38.7,95.3L37.0,95.2L36.6,94.8L36.6,93.8L37.0,92.9L37.7,89.7L38.5,87.6L39.2,84.9L39.5,84.3L39.5,82.5L36.5,76.4L36.4,76.0L35.6,74.4L35.5,74.0L34.5,72.0L33.6,69.8L32.8,68.4L32.7,67.8L31.7,66.0L31.7,65.7L31.3,65.3L31.1,64.5L30.5,63.4L29.8,61.6L27.9,57.9L27.7,57.2L26.9,55.8L26.3,54.2L26.0,53.8L25.8,53.0L25.2,51.6Z M66.9,16.6L67.6,16.6L67.9,16.8L69.2,17.1L70.8,18.0L72.4,19.2L73.3,20.1L74.2,21.4L75.6,23.9L76.5,26.7L76.7,27.8L77.0,28.3L77.2,31.2L77.2,33.0L77.1,35.5L76.4,38.8L75.6,41.2L74.9,42.7L74.5,43.0L73.8,44.3L72.8,45.4L71.2,47.0L70.0,47.8L69.7,47.9L69.2,48.2L68.5,48.4L68.3,48.7L67.4,48.9L66.3,48.9L65.9,48.6L65.7,48.1L65.7,39.0L66.1,27.1L66.1,19.0L66.2,17.5L66.4,17.0Z M62.3,16.6L62.9,17.2L63.0,18.1L62.7,33.9L62.8,34.9L62.5,44.4L62.3,48.3L61.8,48.8L61.0,48.8L58.7,47.9L56.8,46.7L55.6,45.6L54.3,44.0L53.2,42.1L52.5,40.2L52.4,39.6L52.1,38.9L52.1,38.3L51.6,36.7L51.4,33.2L51.5,31.2L51.9,28.3L52.5,26.4L52.7,25.4L53.2,24.1L54.8,21.2L56.0,19.7L57.7,18.2L58.5,17.7L61.1,16.6Z" fill="#000" fill-rule="evenodd"/>
</svg>