<svg xmlns="http://www.w3.org/2000/svg" viewBox="0 0 128 128" width="128" height="128">
  <path d="M63.4,27.3L62.3,27.4L59.6,27.9L58.4,28.6L58.0,28.7L56.0,29.9L54.2,31.8L53.3,33.0L51.9,35.7L51.3,38.5L51.2,40.9L51.4,43.0L51.6,43.6L51.8,44.8L53.2,47.5L54.6,49.5L54.9,49.6L56.1,50.7L57.4,51.7L59.3,52.6L61.8,53.2L65.0,53.3L65.7,53.0L67.2,52.9L67.8,52.7L69.7,51.9L72.0,50.3L73.9,48.3L74.6,47.3L76.0,44.2L76.5,42.2L76.6,39.6L76.5,37.6L75.4,34.6L74.1,32.3L72.1,30.3L71.1,29.5L68.9,28.2L65.7,27.4Z M10.1,12.6L9.9,13.1L10.0,14.6L9.8,16.7L9.9,62.3L9.7,69.6L9.8,80.5L9.6,83.7L9.7,92.1L9.5,95.9L9.5,114.0L9.7,115.1L9.9,115.3L10.9,115.5L23.8,115.4L48.2,115.7L66.3,115.7L73.9,115.9L89.1,115.8L92.0,116.0L98.4,115.9L106.7,116.1L117.0,116.1L117.8,115.8L118.0,109.5L117.9,105.0L118.1,90.4L118.0,77.3L118.3,66.9L118.3,53.7L118.6,51.5L118.4,43.3L118.6,40.1L118.9,17.0L118.8,14.3L118.7,14.0L118.3,13.5L117.6,13.3L99.7,13.0L94.9,13.1L93.9,12.9L80.4,12.9L71.9,12.6L62.9,12.7L52.2,12.5L45.0,12.6L38.7,12.4L34.5,12.5L21.3,12.3L20.0,12.1L10.6,12.2Z M110.0,84.4L110.3,84.7L110.4,86.5L110.4,104.8L110.2,107.1L109.9,107.3L109.1,107.5L90.9,107.6L88.4,107.4L87.8,107.0L87.8,106.2L88.0,105.8L88.5,105.4L92.4,105.3L93.1,104.9L94.1,103.4L95.2,102.2L95.7,101.3L96.4,100.6L98.3,98.1L100.3,95.7L100.4,95.4L103.0,92.4L104.7,90.1L107.3,87.2L108.7,85.3L109.6,84.4Z M88.4,75.6L89.1,75.7L90.3,76.7L91.3,77.2L93.5,78.9L94.5,79.4L96.3,80.9L96.9,81.6L96.8,82.2L96.1,83.5L94.7,85.1L93.0,88.2L90.2,92.1L89.9,92.5L89.1,92.9L88.6,92.9L88.0,92.4L87.8,91.4L87.9,76.7L88.1,75.9Z M18.1,20.7L22.1,20.6L22.6,20.9L22.6,21.2L19.6,24.3L19.2,25.0L19.1,34.3L19.3,35.2L19.3,45.2L19.1,51.3L19.1,61.9L19.4,62.3L20.1,62.6L22.4,62.9L23.2,63.2L23.7,63.2L24.9,63.6L26.8,63.9L27.6,64.1L31.3,64.9L32.4,65.3L33.3,65.4L34.7,65.9L35.6,65.9L36.4,66.1L36.8,66.3L38.1,66.7L38.5,67.1L38.6,67.5L38.4,79.4L38.1,83.1L38.0,90.8L37.8,94.4L37.5,105.7L37.3,106.9L36.9,107.2L36.4,107.4L30.3,107.6L25.2,107.6L21.7,107.4L19.1,107.5L17.4,107.3L17.0,106.8L16.9,96.4L17.1,91.3L17.3,76.8L17.2,75.1L17.4,69.5L17.3,60.3L17.4,58.7L17.4,36.7L17.6,34.3L17.4,23.0L17.6,21.0Z M32.5,20.9L32.9,20.7L33.6,20.6L47.0,20.5L55.5,20.6L59.6,20.8L63.2,20.7L79.6,20.9L82.6,20.9L93.6,21.1L98.6,21.0L106.0,21.3L108.3,21.2L109.8,21.3L110.4,21.5L110.8,22.1L110.9,22.9L110.9,28.3L110.5,53.4L110.6,57.1L110.4,63.1L110.5,67.2L110.3,77.8L110.1,78.0L109.4,77.9L108.0,76.5L107.6,75.9L103.6,71.7L102.3,70.1L101.1,68.9L99.8,67.3L98.4,65.9L98.2,65.5L94.1,61.2L93.2,59.9L91.9,58.6L90.1,56.5L87.8,54.2L87.2,53.9L74.8,53.7L71.3,53.8L70.8,54.1L70.3,54.6L70.0,55.9L68.9,59.0L68.5,60.6L67.9,61.9L67.4,63.7L66.9,64.9L66.7,65.8L65.7,68.1L65.1,70.0L64.5,71.4L64.0,71.5L63.6,71.2L61.6,65.4L61.1,64.4L60.7,63.0L59.8,60.7L58.7,57.3L57.6,54.6L56.9,53.8L45.3,53.7L37.5,53.9L31.4,53.8L30.1,53.5L29.7,53.0L29.6,52.0L29.6,32.6L30.1,31.3L35.0,26.4L35.6,25.5L35.4,24.6L32.8,21.6Z" fill="#000" fill-rule="evenodd"/>
</svg>