<svg xmlns="http://www.w3.org/2000/svg" viewBox="0 0 128 128" width="128" height="128">
  <path d="M68.2,57.1L67.8,56.6L67.3,56.6L66.1,58.1L65.1,58.7L63.9,58.9L63.2,58.9L62.4,58.6L61.3,57.8L60.5,56.8L59.8,56.7L59.5,57.0L59.5,57.5L60.3,58.6L61.3,59.6L62.0,60.0L63.0,60.2L64.7,60.2L66.6,59.5L67.7,58.2Z M52.0,48.6L52.0,49.1L52.3,49.6L53.2,50.6L54.3,51.3L55.6,51.7L56.7,51.7L58.6,51.0L59.8,49.9L60.3,49.1L60.2,48.4L59.8,48.3L57.9,49.9L56.8,50.3L55.9,50.3L54.2,49.6L53.4,49.1L52.8,48.4L52.3,48.3Z M66.8,49.1L67.7,50.3L69.0,51.3L70.4,51.7L71.7,51.8L73.2,51.4L74.3,50.7L75.3,49.6L75.5,49.1L75.5,48.4L75.3,48.2L74.7,48.3L74.3,48.8L73.2,49.9L72.2,50.4L71.7,50.5L70.5,50.4L69.2,49.9L67.6,48.2L66.9,48.3Z M43.7,9.3L43.4,9.6L43.4,10.8L42.9,12.6L42.9,13.3L42.5,14.7L42.4,16.3L42.3,16.5L41.9,19.1L41.0,23.5L41.0,24.1L39.9,30.4L39.7,32.7L38.9,36.4L38.9,37.9L38.6,38.6L38.4,40.5L37.9,43.3L37.8,44.6L37.4,45.8L37.4,47.1L36.8,50.6L36.4,51.8L36.4,53.2L36.0,54.2L35.9,55.5L35.7,56.1L35.7,56.7L35.0,60.7L34.9,62.2L34.4,64.5L34.1,66.8L33.9,67.4L33.7,69.6L33.4,70.5L33.1,73.2L31.6,81.5L31.1,85.6L30.9,86.0L30.9,91.0L31.0,92.0L31.0,93.1L31.9,97.1L32.6,99.0L33.1,99.8L33.4,100.6L33.7,101.0L34.8,103.2L37.9,107.2L39.8,109.2L41.8,111.1L43.1,112.1L46.5,114.2L49.1,115.6L51.0,116.4L51.9,116.7L52.4,117.0L53.0,117.1L55.3,117.9L56.6,118.1L57.7,118.4L61.9,119.0L64.9,119.1L68.8,118.9L71.3,118.6L75.5,117.6L77.9,116.6L79.5,116.1L81.4,115.1L81.8,115.0L84.1,113.5L84.6,113.3L87.4,111.2L87.8,110.7L88.8,110.0L89.6,109.1L90.7,108.0L90.8,107.7L92.1,106.3L93.4,104.2L94.1,103.2L94.9,101.9L95.1,101.1L95.6,100.3L96.1,98.7L96.3,98.3L97.1,95.3L97.2,92.8L97.5,91.5L97.4,88.5L97.1,85.9L96.6,83.7L96.6,82.7L96.4,82.4L96.2,81.0L95.9,80.0L95.8,78.7L95.5,77.5L94.8,73.5L94.4,72.1L94.0,69.2L93.5,67.7L93.4,66.2L93.1,65.4L93.1,64.2L92.2,60.8L91.7,57.2L91.1,54.3L91.1,53.5L90.6,52.0L90.6,51.2L90.4,50.3L90.4,49.8L89.9,48.1L89.8,47.0L89.4,45.4L89.2,43.9L88.2,38.9L88.1,37.8L87.5,35.6L87.0,32.9L86.9,31.7L86.5,30.4L86.4,29.6L86.0,28.0L86.0,27.3L85.6,26.4L85.5,25.2L85.2,24.5L85.0,21.9L84.3,19.3L84.1,17.5L83.4,14.6L83.2,12.6L83.0,11.9L83.0,11.3L82.7,10.3L82.3,9.6L81.9,9.7L81.6,10.3L81.1,11.8L80.4,13.3L79.0,17.4L78.2,19.1L78.0,20.2L77.7,20.8L77.5,21.4L75.9,25.2L75.5,26.7L75.1,27.4L74.4,29.5L74.0,30.2L73.6,31.5L73.2,32.0L72.8,32.0L72.4,31.6L72.2,30.9L71.6,29.7L71.6,29.5L70.8,28.0L70.2,26.2L69.5,24.7L68.9,23.0L67.7,20.3L67.6,19.8L67.2,19.2L67.0,18.3L66.8,18.2L66.6,17.3L65.7,15.6L65.3,14.3L64.7,13.1L63.5,9.8L63.3,9.6L62.8,9.5L62.5,9.8L62.4,10.3L61.8,11.3L61.4,12.3L61.4,12.7L60.8,14.0L60.0,16.3L59.7,16.8L59.5,17.6L58.1,20.8L57.7,22.3L55.2,28.2L54.7,29.7L54.0,31.2L53.7,31.5L53.3,31.5L52.9,31.0L51.7,27.7L50.6,25.4L50.0,23.7L49.3,22.2L48.9,21.0L48.6,20.4L47.6,17.6L46.9,15.9L46.4,14.3L45.0,11.3L44.5,9.8L44.1,9.3Z M53.8,106.9L54.1,106.9L54.5,107.2L54.6,107.7L55.0,108.2L55.4,108.2L55.8,108.5L55.8,108.7L55.6,108.9L54.8,109.0L54.5,109.2L54.3,109.5L54.4,109.9L54.1,110.2L53.7,110.2L53.4,109.8L53.3,109.2L52.3,108.6L52.3,108.3L52.5,108.1L53.0,108.1L53.4,107.9L53.6,107.6L53.6,107.2Z M74.9,106.7L75.3,106.8L75.7,107.2L75.7,107.7L76.0,107.9L76.7,108.0L76.9,108.2L76.9,108.4L76.7,108.7L75.7,108.9L75.6,109.9L75.1,110.0L74.7,109.7L74.6,109.3L74.2,109.0L73.6,108.8L73.4,108.4L73.7,108.2L74.2,108.2L74.6,107.9L74.6,107.1Z M64.0,96.3L64.3,96.3L64.6,96.4L64.7,96.9L65.0,97.2L66.0,97.4L66.0,97.8L65.8,97.9L65.1,98.1L64.7,98.3L64.7,99.0L64.6,99.3L64.3,99.3L64.1,99.1L63.7,98.3L63.0,98.2L62.7,97.9L62.8,97.6L63.6,97.4L63.8,97.2L63.8,96.4Z M42.8,96.1L43.2,96.1L43.5,96.4L43.7,97.2L44.4,97.3L44.7,97.6L44.7,97.8L44.5,98.0L43.4,98.3L43.4,99.0L43.2,99.4L42.9,99.4L42.5,99.1L42.4,98.6L42.0,98.2L41.7,98.2L41.3,97.9L41.3,97.7L41.5,97.4L42.3,97.3L42.6,97.0L42.5,96.4Z M85.2,95.8L85.8,95.9L86.0,97.0L86.2,97.2L87.1,97.3L87.2,97.8L87.0,98.0L86.4,98.1L86.1,98.3L86.0,98.9L85.7,99.2L85.3,99.2L85.1,98.8L85.0,98.3L84.7,98.0L84.1,97.8L83.8,97.4L84.1,97.2L84.6,97.1L85.0,96.7L85.1,95.9Z M74.5,85.4L75.1,85.4L75.4,86.4L75.7,86.6L76.3,86.7L76.5,86.9L76.5,87.0L76.2,87.3L75.7,87.3L75.2,87.4L75.1,87.9L75.2,88.2L74.9,88.4L74.7,88.4L74.4,88.2L74.4,87.9L74.0,87.4L73.3,87.2L73.2,86.8L74.0,86.6L74.3,86.4L74.3,85.7Z M53.2,85.4L53.6,85.4L53.8,85.6L53.9,86.4L54.2,86.6L55.0,86.7L55.2,86.9L55.1,87.4L54.2,87.6L54.0,88.3L53.7,88.6L53.3,88.5L53.1,88.3L53.0,87.7L52.8,87.5L52.1,87.4L51.8,87.1L51.9,86.7L52.5,86.6L53.0,86.4L53.0,85.5Z M42.1,75.1L42.6,75.1L42.8,75.3L42.9,76.0L43.1,76.2L43.9,76.3L44.2,76.5L44.2,76.7L43.9,76.9L43.1,77.1L43.0,77.8L42.8,78.1L42.3,78.1L41.8,77.1L40.9,76.8L40.8,76.5L41.0,76.3L41.5,76.2L41.9,75.7Z M63.7,74.9L64.2,75.1L64.2,75.6L64.5,75.9L65.2,76.1L65.5,76.4L65.2,76.7L64.6,76.8L64.3,77.0L64.2,77.9L64.1,78.0L63.7,78.0L63.4,77.7L63.3,77.1L62.7,76.9L62.3,76.6L62.4,76.3L63.2,76.2L63.3,76.0L63.3,75.2Z M84.9,74.7L85.2,74.7L85.6,74.9L85.6,75.8L85.8,76.0L86.5,76.1L86.9,76.4L86.7,76.8L86.0,76.9L85.8,77.1L85.6,77.8L85.4,78.0L85.1,77.9L84.8,77.7L84.6,77.1L84.5,76.9L84.0,76.8L83.6,76.4L83.6,76.2L83.8,76.0L84.4,75.9L84.6,75.8L84.6,75.0Z M39.9,48.0L40.9,46.1L41.7,44.7L43.2,43.1L45.1,41.3L48.3,39.3L50.4,38.5L51.1,38.1L54.8,37.0L55.4,36.9L55.7,36.7L57.9,36.5L58.8,36.2L63.3,36.1L67.2,36.2L70.0,36.7L72.1,37.2L73.1,37.6L74.5,37.9L77.0,38.9L79.0,39.9L80.2,40.8L82.0,41.8L83.1,42.7L85.5,45.4L87.0,48.0L87.6,50.2L87.6,50.8L87.7,51.3L87.7,52.6L87.3,55.0L86.8,56.4L85.0,59.5L82.8,61.7L82.6,61.8L81.3,62.9L78.0,64.9L76.0,65.7L75.5,65.8L73.5,66.6L72.0,66.9L71.3,67.1L70.3,67.2L68.7,67.6L67.7,67.6L65.6,68.0L60.5,67.9L59.3,67.6L57.2,67.5L52.8,66.2L48.4,64.3L48.2,64.0L46.1,62.9L43.8,61.0L41.4,58.2L40.4,56.5L39.6,54.2L39.4,52.7L39.4,50.6Z" fill="#000" fill-rule="evenodd"/>
</svg>