<svg xmlns="http://www.w3.org/2000/svg" viewBox="0 0 128 128" width="128" height="128">
  <path d="M68.5,42.1L68.4,41.8L68.3,41.8L67.7,41.8L66.6,42.6L65.9,42.7L65.2,43.0L64.8,43.1L62.8,43.1L61.1,42.6L60.0,42.1L59.8,42.1L59.7,42.5L60.4,43.1L62.4,43.6L64.5,43.7L65.7,43.5L67.1,43.1L68.0,42.6Z M63.6,37.0L63.6,38.3L63.8,39.4L63.9,39.4L64.1,39.0L64.1,37.3L63.9,37.0Z M69.4,35.5L68.7,36.0L68.3,36.8L68.4,37.4L68.9,38.0L69.4,38.3L70.5,38.3L71.1,37.8L71.4,37.4L71.5,36.4L71.2,36.0L70.4,35.4Z M57.7,35.2L57.1,35.5L56.6,36.0L56.4,36.5L56.4,37.1L56.5,37.6L56.9,38.0L57.5,38.3L58.3,38.3L58.7,38.1L59.4,37.4L59.6,36.5L59.2,35.6L58.6,35.3Z M63.7,9.1L59.7,11.8L58.2,13.1L56.9,14.0L54.5,15.8L53.4,16.2L52.3,16.3L50.6,16.9L49.9,16.9L49.1,16.6L48.3,16.6L47.9,16.5L46.1,16.5L44.7,17.0L43.7,17.7L42.9,18.7L42.3,20.0L42.0,21.8L42.0,22.8L42.2,23.8L42.2,24.4L41.7,25.4L40.8,26.2L39.7,26.9L38.8,27.7L38.0,28.3L37.5,28.8L35.7,30.0L34.7,30.9L33.4,31.7L32.8,32.3L32.1,32.7L31.2,33.5L30.1,34.2L29.1,35.2L29.0,35.9L29.4,36.5L38.6,45.7L39.8,46.6L42.2,49.2L42.7,49.6L47.0,53.9L47.5,54.2L48.7,55.4L50.5,56.7L52.2,57.5L52.6,57.8L53.5,58.1L54.2,58.5L55.6,59.0L56.2,59.1L57.5,59.5L58.3,60.2L58.4,60.6L58.5,70.3L58.3,71.0L57.8,71.9L56.9,72.7L56.1,73.1L55.3,73.8L54.7,74.1L52.7,75.8L49.3,78.2L48.5,79.0L47.9,79.3L46.1,80.6L45.1,81.7L44.9,82.4L44.8,114.2L45.0,118.5L45.4,118.8L52.7,118.9L58.6,118.9L63.1,119.1L65.7,119.1L66.4,118.9L70.0,119.1L82.0,119.2L82.6,118.8L82.6,113.3L82.7,110.2L82.6,99.4L82.8,98.0L82.7,82.7L82.5,81.8L82.2,81.4L80.5,79.7L79.8,79.3L79.0,78.6L77.3,77.4L75.9,76.1L75.4,75.9L72.5,73.6L71.7,73.0L70.2,71.7L69.9,71.1L69.7,70.0L69.7,62.3L69.9,61.5L69.9,60.5L70.1,60.2L70.8,59.5L73.9,58.6L75.6,57.8L77.3,57.1L80.6,54.7L83.3,52.0L84.0,51.5L85.7,49.8L86.2,49.4L87.4,48.0L87.9,47.8L89.2,46.4L90.3,45.6L93.1,42.8L93.3,42.7L98.7,37.4L99.2,36.9L99.3,36.3L98.6,35.5L97.9,35.0L95.2,32.6L94.3,32.1L93.3,31.2L90.6,29.3L89.5,28.3L88.1,27.2L87.0,26.2L86.7,25.8L86.7,25.1L87.2,22.4L87.1,20.7L87.0,20.0L86.4,18.9L85.4,17.8L84.0,16.9L82.7,16.5L79.8,16.5L77.6,17.0L76.0,16.5L74.1,16.1L72.7,15.4L71.6,14.7L68.2,11.7L67.7,11.5L66.4,10.4L65.4,9.9L64.6,9.2Z M47.9,83.2L48.2,82.9L48.9,82.8L61.5,82.8L63.8,83.0L66.3,82.9L67.5,83.1L68.7,83.1L69.4,83.0L71.5,82.9L71.8,83.1L73.5,83.1L77.7,83.1L79.4,83.4L79.5,83.5L79.6,84.1L79.4,84.5L77.6,86.5L73.9,90.2L71.9,91.9L69.8,94.1L68.2,95.4L66.9,96.9L64.7,98.7L64.1,99.0L63.6,99.0L63.0,98.7L62.0,97.8L57.9,93.8L53.2,89.3L52.0,87.9L48.3,84.2L47.9,83.7Z M59.0,19.1L59.6,19.1L60.5,19.8L61.0,20.6L61.4,22.4L61.5,23.7L61.3,25.1L60.6,26.5L60.0,26.9L59.1,26.9L58.2,26.2L57.6,25.1L57.4,24.4L57.5,21.7L58.3,19.7Z M68.7,19.0L69.5,19.2L70.4,20.1L70.8,20.9L71.3,22.4L71.4,23.9L71.1,25.2L70.7,26.2L70.0,26.9L69.7,27.0L68.9,27.0L67.8,26.3L67.4,25.8L67.0,24.4L67.0,22.4L67.3,21.1L67.9,19.7L68.3,19.2Z M77.7,18.9L78.3,19.0L79.0,19.5L79.5,20.0L80.1,21.3L80.5,22.6L80.4,25.1L79.8,26.6L79.2,27.2L78.9,27.4L78.1,27.4L77.5,27.1L76.9,26.5L76.6,25.8L76.3,24.9L76.3,23.1L76.6,20.9L77.0,19.6L77.4,19.2Z M50.3,18.8L51.0,18.9L51.9,19.9L52.3,21.1L52.4,22.1L52.5,22.6L52.4,24.2L52.2,25.3L51.8,26.1L51.0,26.7L49.9,26.6L49.2,25.9L48.7,25.0L48.6,23.9L48.6,22.3L48.7,22.0L49.0,20.7L49.3,20.2L49.4,19.7L49.7,19.2Z M46.1,17.4L47.3,17.3L48.2,17.5L48.6,17.8L48.6,18.7L47.6,21.2L47.6,22.0L47.5,22.5L47.5,24.6L47.9,26.2L48.8,27.2L49.6,27.7L49.9,27.8L51.0,27.8L52.0,27.3L52.8,26.4L53.2,25.6L53.6,24.1L53.5,21.7L53.1,20.1L52.2,18.3L52.2,17.7L52.9,17.2L54.0,16.9L56.9,17.2L57.3,17.5L57.6,17.8L57.7,18.6L57.1,20.1L56.7,20.6L56.4,21.7L56.2,24.4L56.7,26.2L57.6,27.4L58.0,27.7L58.7,27.9L59.9,27.9L61.0,27.5L61.6,26.8L62.2,25.8L62.4,25.0L62.6,23.7L62.6,21.9L62.2,20.4L61.3,18.5L61.2,17.8L61.6,17.4L62.8,17.0L65.7,17.0L66.8,17.4L67.3,17.9L67.3,18.4L67.0,19.2L66.3,20.4L66.0,21.4L65.7,23.7L65.8,25.2L66.1,26.4L66.5,27.0L67.2,27.6L68.2,28.0L69.7,28.0L70.8,27.6L71.5,26.8L72.2,25.6L72.5,24.2L72.5,21.7L72.0,20.3L71.3,19.2L70.8,18.3L71.0,17.6L71.4,17.3L72.3,17.1L75.1,17.2L75.7,17.4L76.1,17.8L76.1,18.7L75.2,20.8L74.9,21.7L74.8,23.4L74.9,25.1L75.3,26.8L76.3,27.8L77.4,28.3L78.7,28.4L79.8,28.0L80.8,27.0L81.5,25.7L81.7,24.4L81.7,22.3L81.3,20.8L80.8,19.6L79.8,18.3L79.8,17.7L80.1,17.4L80.5,17.2L81.5,17.2L83.6,17.9L84.6,18.6L85.1,19.2L85.8,20.7L85.9,22.9L85.4,24.6L84.0,27.0L83.2,27.7L82.5,28.1L82.1,28.6L82.2,29.3L83.4,32.1L83.6,33.0L84.0,34.3L84.7,38.3L84.8,40.3L84.6,41.4L84.6,43.5L84.3,44.3L84.1,45.9L83.7,46.7L83.6,47.3L83.3,48.5L82.2,50.5L81.2,52.1L79.8,53.5L78.4,54.6L77.9,54.9L75.6,56.4L74.3,56.9L72.8,57.8L71.0,58.3L70.4,58.4L70.1,58.5L69.0,58.7L68.4,59.1L68.2,59.7L68.1,60.6L68.1,68.4L68.0,69.0L67.8,69.5L67.3,69.9L65.9,70.1L62.4,70.1L61.1,69.8L60.6,69.1L60.4,68.1L60.4,61.8L60.4,59.8L60.1,59.1L59.3,58.7L56.5,58.1L54.4,57.1L53.1,56.7L52.3,56.4L51.8,55.9L49.9,54.7L48.2,53.2L47.0,51.9L46.8,51.4L45.5,49.6L44.8,48.2L44.0,45.3L43.7,42.8L43.6,39.7L44.1,35.2L44.8,32.7L45.7,30.4L46.4,29.1L46.4,28.4L46.2,28.0L44.4,26.1L43.7,24.9L43.2,23.2L43.1,21.3L43.4,20.1L43.8,19.1L44.7,18.1Z M66.4,15.5L66.6,15.2L67.0,15.2L67.2,15.4L67.0,15.7L66.6,15.7Z" fill="#000" fill-rule="evenodd"/>
</svg>