<svg xmlns="http://www.w3.org/2000/svg" viewBox="0 0 128 128" width="128" height="128">
  <path d="M57.9,21.5L54.7,23.0L53.9,23.6L52.0,25.4L50.3,27.8L49.7,28.9L49.0,31.1L48.8,32.1L48.4,33.0L47.3,34.0L46.3,34.5L44.3,35.7L43.7,36.5L43.7,37.2L44.0,37.6L44.5,37.8L47.2,37.9L48.6,37.8L49.2,37.6L50.3,37.1L51.2,36.7L52.7,36.8L53.5,37.2L55.1,39.3L56.8,40.7L57.8,41.3L59.9,42.2L60.5,42.9L60.5,43.4L59.8,44.2L58.7,44.7L57.9,44.8L57.4,45.1L56.7,45.2L54.7,45.8L52.5,46.9L50.8,48.0L50.1,48.3L47.8,50.1L44.1,53.7L43.5,54.6L42.4,56.6L41.8,57.3L41.7,57.6L41.2,58.3L39.4,62.6L38.6,66.4L38.3,67.0L37.8,67.5L37.5,67.5L37.3,67.3L36.0,65.7L35.6,64.8L34.0,62.3L33.2,60.5L32.5,59.6L32.0,58.5L30.8,56.7L30.7,56.4L29.4,54.5L29.1,53.7L27.5,50.9L27.4,50.1L27.5,48.6L27.5,47.0L27.0,45.0L26.6,44.2L26.2,43.7L25.5,43.4L24.3,43.4L22.9,43.8L21.8,44.2L20.8,45.0L20.5,45.6L20.5,46.6L20.7,47.4L21.3,49.0L22.0,50.0L23.1,50.8L23.9,50.9L25.0,51.4L25.8,52.2L26.9,54.1L27.1,54.7L28.0,56.0L28.5,57.0L29.4,58.4L29.8,59.1L32.1,62.8L32.2,63.2L34.1,66.4L34.4,67.1L34.6,67.3L35.9,69.6L36.3,70.1L36.6,70.9L36.5,71.7L35.2,73.4L35.0,74.5L35.3,75.5L36.1,76.9L37.3,78.2L38.4,79.1L39.2,79.4L39.9,79.4L40.1,79.3L40.6,79.2L41.6,78.4L42.7,77.1L42.9,76.3L42.9,75.0L42.6,73.5L42.3,70.9L42.3,69.2L42.4,67.9L42.6,67.5L42.8,66.2L43.1,65.4L43.6,63.3L44.9,60.4L46.1,58.5L48.0,56.3L48.1,55.9L50.7,53.6L51.1,53.4L51.5,53.0L51.9,52.9L52.6,52.3L56.7,50.1L59.4,49.4L60.5,49.4L61.0,50.2L61.2,50.9L61.2,51.4L60.9,52.4L60.1,52.9L57.9,53.0L56.7,53.3L56.1,53.7L55.8,54.5L55.8,56.3L56.0,58.5L56.3,59.5L56.3,62.0L56.6,62.8L56.6,65.2L57.2,69.7L57.1,71.1L57.0,71.5L55.9,72.4L52.5,74.5L50.3,76.6L49.6,77.6L49.5,78.2L49.1,78.9L47.9,82.6L47.6,84.2L47.5,87.9L47.5,97.2L47.3,103.1L47.5,104.4L48.0,105.0L48.6,105.2L49.2,105.3L56.6,105.2L57.4,104.9L58.4,104.8L59.1,104.3L59.2,103.6L59.3,100.8L59.1,97.9L59.1,93.8L59.4,92.0L59.3,88.9L59.7,86.9L60.5,85.3L61.0,84.6L62.4,83.8L63.7,83.4L64.2,83.4L65.9,83.8L67.2,84.6L67.9,85.4L68.6,86.7L68.9,88.1L68.9,89.1L69.7,90.0L69.0,90.5L69.2,95.4L69.1,103.1L69.3,104.0L69.8,104.5L70.9,104.8L72.6,104.8L73.8,104.6L78.8,104.6L79.2,104.8L80.0,104.8L80.7,104.4L81.1,104.0L81.3,103.3L81.4,99.9L81.6,99.0L81.4,96.7L81.6,95.8L81.6,94.0L81.7,93.0L81.7,82.3L81.5,80.6L80.5,78.2L79.7,76.9L78.7,75.7L77.1,74.4L76.5,74.2L75.4,73.5L75.0,73.4L74.3,73.0L73.7,72.9L73.3,72.7L72.5,72.5L71.0,71.9L70.3,71.1L70.4,68.5L70.8,67.2L70.8,66.0L71.0,64.1L71.4,62.4L71.5,61.2L71.7,60.9L71.9,58.6L72.1,57.9L72.1,56.9L72.3,55.9L72.3,53.8L72.1,53.5L71.4,52.9L68.1,52.6L67.2,51.7L67.2,49.8L67.5,49.4L68.5,49.1L71.9,50.0L74.9,51.3L78.8,53.9L81.1,56.2L82.2,57.9L82.6,58.2L83.1,58.9L83.5,60.0L83.8,60.4L83.8,61.4L83.5,62.1L80.4,65.5L79.6,66.5L79.6,66.8L78.7,68.3L78.2,69.9L78.2,70.5L78.1,71.0L78.1,71.7L78.3,72.0L78.3,72.6L78.8,73.5L79.6,74.3L80.8,74.8L82.8,74.9L84.0,74.5L84.6,74.5L84.9,74.7L85.0,78.2L85.2,79.2L85.6,80.1L86.4,81.2L87.5,82.3L89.2,83.3L90.3,83.6L92.3,83.6L94.3,83.0L95.4,82.0L98.1,79.2L100.1,76.4L100.6,75.5L101.7,72.6L102.0,72.1L102.8,70.2L102.8,69.9L103.6,67.2L103.8,64.9L104.1,64.3L104.2,60.8L104.0,56.9L103.8,55.5L103.5,55.1L103.0,52.9L102.3,51.4L101.9,50.1L100.2,46.6L97.8,43.3L95.9,41.4L95.3,41.0L94.5,40.7L93.3,40.6L92.7,41.0L92.2,41.4L91.7,42.2L91.5,43.4L91.5,46.1L91.7,48.6L91.7,50.2L91.4,52.5L91.2,52.8L90.9,54.1L90.5,54.9L89.2,56.7L88.8,57.1L88.2,57.4L87.4,57.2L86.5,56.3L84.8,53.8L81.8,50.8L80.4,49.6L77.7,47.8L77.3,47.7L75.2,46.4L74.5,46.2L74.1,46.0L73.4,45.8L72.9,45.5L71.9,45.4L70.3,44.7L68.2,44.3L67.4,44.0L67.0,43.6L66.7,42.7L66.9,41.7L67.6,40.9L69.7,39.0L70.7,37.7L71.4,37.1L72.2,36.7L73.1,36.7L73.7,36.7L75.5,37.5L77.7,37.6L78.4,37.9L80.1,37.9L80.9,37.6L81.2,37.3L81.2,36.8L81.1,36.4L80.7,35.9L80.0,35.5L78.0,34.4L77.6,34.1L76.8,33.8L75.9,33.1L75.5,32.6L75.2,31.5L74.9,31.1L74.4,29.6L74.1,29.1L74.1,28.8L73.3,27.2L71.9,25.4L70.7,24.3L69.5,23.4L68.9,23.2L68.6,22.8L66.4,21.8L64.6,21.3L63.4,21.0L60.1,20.9L59.6,21.2Z M88.7,61.6L88.8,61.5L89.5,61.5L89.8,61.7L89.8,62.0L89.5,62.3L89.1,62.3L88.7,61.9Z M71.4,9.5L69.1,9.4L67.8,9.2L66.0,9.1L61.5,9.2L59.6,9.4L57.5,9.5L55.9,9.9L53.6,10.2L51.1,10.8L49.8,11.0L47.9,11.7L47.0,11.8L45.3,12.4L45.2,12.5L44.1,12.8L42.8,13.5L41.5,13.9L39.6,14.9L36.5,16.7L34.9,17.8L32.5,19.2L31.3,20.2L29.9,21.2L29.1,21.9L28.6,22.6L27.7,23.4L27.4,23.5L23.6,27.3L19.8,32.4L19.8,32.6L19.1,33.4L18.9,33.9L17.5,35.9L16.8,37.4L15.9,38.7L15.7,39.5L14.9,41.0L14.7,42.0L14.0,43.3L14.0,43.5L13.7,44.0L13.1,46.2L12.8,46.6L12.2,49.4L11.6,50.9L11.6,52.1L10.8,55.5L10.4,60.6L10.2,67.6L11.0,73.5L12.0,78.7L13.4,82.8L13.5,83.0L13.6,83.5L14.3,84.9L15.1,87.4L16.4,89.6L17.5,92.0L18.0,92.8L18.9,93.8L20.0,96.0L21.8,98.2L22.7,99.6L26.3,103.6L28.3,105.3L29.1,106.2L30.6,107.1L33.0,109.2L33.3,109.3L34.8,110.2L36.0,111.1L39.0,112.7L39.9,113.1L40.5,113.5L44.9,115.5L45.8,115.7L47.7,116.5L48.2,116.6L48.4,116.7L50.2,117.3L50.9,117.4L51.4,117.6L53.1,117.8L54.3,118.2L57.5,118.9L61.4,119.0L68.9,119.0L71.3,118.5L74.6,118.1L74.9,117.9L76.5,117.7L77.3,117.4L78.5,117.2L81.6,116.1L82.4,115.9L84.0,115.1L85.5,114.7L87.4,113.8L89.3,112.6L90.4,112.1L93.4,110.4L93.9,109.9L95.0,109.3L96.4,108.1L97.8,107.2L98.6,106.3L100.6,104.8L102.7,102.6L103.1,102.0L104.8,100.4L107.7,96.8L109.2,94.2L111.0,91.7L112.3,88.7L113.6,86.2L114.5,83.4L114.8,83.0L115.0,81.9L115.6,80.7L116.0,79.0L116.3,78.2L116.4,77.0L116.8,75.6L116.9,74.7L117.5,72.0L117.6,70.0L118.0,67.1L117.9,60.4L117.6,59.1L117.3,55.0L116.2,50.5L116.1,49.7L115.9,49.3L115.7,48.4L115.3,47.2L114.8,45.2L114.5,44.6L114.1,43.4L113.1,41.4L113.1,41.2L112.3,39.7L112.1,38.8L110.0,35.1L108.5,33.1L108.2,32.3L107.3,31.3L106.5,30.0L104.1,27.2L103.1,26.4L100.6,23.6L98.4,21.5L93.4,17.7L91.3,16.5L89.1,15.4L88.7,15.0L86.0,13.7L84.0,13.0L83.6,12.7L81.6,11.9L80.4,11.7L79.5,11.3L77.3,10.8L75.4,10.2L73.3,9.9Z M61.2,15.2L65.8,15.2L70.4,15.4L70.9,15.6L72.9,15.8L74.4,16.3L74.9,16.3L76.0,16.7L76.6,16.8L77.0,17.0L78.1,17.2L78.8,17.5L79.6,17.7L81.3,18.5L83.0,19.0L84.0,19.6L84.6,19.7L87.5,21.3L90.3,23.0L91.4,23.8L91.9,24.0L93.0,25.0L96.1,27.4L100.6,32.0L101.3,33.1L102.1,33.9L103.1,35.8L104.6,37.8L104.8,38.2L105.8,39.6L106.5,41.2L106.9,41.7L107.7,43.6L108.2,44.4L108.3,44.9L109.0,46.5L109.2,47.2L109.6,48.0L110.3,50.4L110.7,51.3L111.7,55.3L111.9,57.9L112.1,58.4L112.3,62.8L112.1,68.8L111.8,70.3L111.8,71.2L111.6,72.5L111.6,73.6L111.2,74.9L111.1,75.7L110.8,76.7L110.5,78.0L110.2,78.6L108.4,84.1L107.8,84.9L107.4,85.7L107.3,86.2L107.1,86.4L106.4,88.1L105.3,89.7L105.0,90.5L104.4,91.4L102.3,94.1L101.1,96.0L99.9,97.1L96.7,100.6L95.5,101.4L94.2,102.7L88.8,106.3L87.6,106.9L86.9,107.5L83.2,109.2L81.9,109.8L79.1,110.7L78.3,111.1L77.3,111.2L76.9,111.5L76.3,111.5L75.3,111.9L74.6,111.9L72.9,112.4L71.2,112.6L70.3,112.8L69.4,112.8L68.4,113.1L60.3,113.1L59.8,112.9L58.5,112.8L57.6,112.6L54.3,112.1L49.8,111.0L48.1,110.3L47.3,110.1L46.9,109.9L46.0,109.6L44.8,108.9L44.1,108.7L42.4,107.7L39.7,106.5L33.3,102.0L31.0,99.9L30.2,98.8L27.5,96.1L26.2,94.3L25.2,93.2L23.8,91.0L23.4,90.5L23.1,89.9L21.9,88.1L20.0,84.3L19.5,82.5L19.1,81.8L18.7,80.8L18.4,79.6L18.2,79.2L18.0,78.4L16.9,75.1L16.3,71.9L16.2,70.2L15.9,68.9L15.7,64.6L16.0,61.3L16.0,59.5L16.6,57.0L16.6,56.0L17.5,51.9L17.7,51.3L17.8,50.5L18.7,47.8L19.8,45.7L20.3,44.0L23.0,38.7L24.9,35.5L27.0,32.9L28.6,31.1L28.7,30.8L32.2,27.3L34.3,25.6L35.9,24.5L36.6,23.9L37.5,23.4L37.9,23.0L39.9,21.9L41.5,20.8L43.2,19.9L45.7,19.0L46.7,18.5L47.2,18.4L47.6,18.1L50.3,17.2L52.3,16.8L53.9,16.3L54.4,16.3L56.7,15.7L58.4,15.6Z" fill="#000" fill-rule="evenodd"/>
</svg>