<svg xmlns="http://www.w3.org/2000/svg" viewBox="0 0 128 128" width="128" height="128">
  <path d="M84.6,9.5L83.1,9.6L82.2,9.9L80.7,11.1L80.1,12.1L79.7,13.5L79.7,14.6L79.9,15.7L80.8,17.4L80.8,18.0L80.4,18.4L77.6,18.6L74.2,19.5L72.6,20.3L72.2,20.6L71.1,21.2L68.9,23.3L67.5,25.3L66.6,27.1L66.0,28.9L65.6,31.3L65.6,41.9L65.6,42.8L66.3,45.2L67.1,46.7L67.8,47.7L68.8,48.7L69.7,49.3L72.1,50.5L74.6,51.0L74.9,51.3L75.0,51.5L75.1,68.3L75.0,72.0L75.2,78.4L75.2,115.4L75.4,116.1L75.3,116.8L75.3,118.2L75.6,118.7L75.9,118.8L80.8,118.8L82.0,118.6L82.4,118.2L82.5,114.3L82.4,112.0L82.7,107.2L82.9,96.7L82.9,91.6L83.1,89.7L83.3,82.2L83.6,65.8L83.6,65.4L84.2,64.8L84.6,64.8L85.1,65.1L85.3,66.2L85.4,70.1L85.5,71.2L85.6,77.1L85.8,79.2L85.9,85.9L86.2,93.5L86.4,105.8L86.6,107.3L86.7,116.4L86.9,118.3L87.3,118.6L93.4,118.6L93.8,118.2L93.8,69.4L93.6,61.0L93.7,58.7L93.5,58.0L93.6,51.4L94.1,50.9L95.9,50.7L97.2,50.2L98.9,49.2L100.2,48.1L100.9,47.3L101.0,47.0L101.3,46.6L101.8,45.8L102.3,44.6L102.4,43.9L102.7,43.0L102.7,31.3L102.2,28.8L101.7,27.4L100.7,25.3L100.0,24.3L98.6,22.7L96.9,21.3L95.8,20.7L95.3,20.2L92.6,19.2L92.2,19.2L90.7,18.8L87.9,18.6L87.6,18.3L87.6,17.3L88.3,16.2L88.7,15.2L88.8,14.1L88.5,12.5L87.9,11.3L87.3,10.7L86.4,10.1L85.6,9.7Z M76.2,31.5L76.7,31.0L78.1,30.3L79.6,30.1L80.7,30.2L81.6,30.5L82.4,31.0L83.3,32.0L83.9,33.0L84.1,33.3L84.4,33.3L85.1,32.0L85.8,31.3L86.7,30.7L87.7,30.3L89.8,30.3L90.6,30.5L91.8,31.3L92.2,31.7L92.4,32.2L92.4,42.3L92.2,42.5L92.0,42.5L90.4,41.7L89.2,41.5L88.3,41.5L87.4,41.7L86.5,42.1L84.4,44.2L84.2,44.2L82.7,42.5L82.1,42.1L81.0,41.6L78.5,41.5L77.7,41.8L76.9,42.3L76.3,42.5L76.1,42.3L76.0,41.6L75.9,32.3Z M43.6,9.1L42.5,9.4L41.3,10.2L40.4,11.4L39.9,12.5L39.7,13.6L39.8,14.6L40.1,15.6L41.0,17.2L41.0,18.0L40.8,18.2L38.0,18.4L37.1,18.6L36.6,18.6L34.4,19.2L32.9,19.9L30.2,21.8L28.8,23.3L27.3,25.3L26.7,26.6L26.0,28.4L25.6,30.8L25.6,42.1L25.7,43.4L26.4,45.4L27.2,46.9L28.7,48.5L30.5,49.8L31.1,50.0L31.5,50.3L32.8,50.7L34.6,50.9L35.0,51.3L35.3,72.7L35.2,74.8L35.4,79.8L35.3,82.2L35.6,118.6L35.9,119.0L36.3,119.2L41.8,119.1L42.5,119.0L42.9,118.6L43.2,104.3L43.3,103.0L43.3,96.1L43.5,92.9L43.5,88.0L43.6,86.2L43.6,84.2L43.7,81.4L43.7,76.6L44.0,65.4L44.4,65.0L45.2,65.0L45.4,65.4L45.5,67.0L45.6,67.7L46.0,80.6L46.1,81.9L46.3,89.2L46.4,90.2L46.4,90.9L46.7,98.2L46.8,103.3L46.9,104.9L46.9,108.4L47.1,110.2L47.1,112.1L47.2,113.2L47.4,118.6L47.6,119.0L47.9,119.0L54.2,119.0L54.6,118.6L54.6,115.5L54.1,51.4L54.6,50.9L55.7,50.9L56.6,50.6L56.8,50.5L57.7,50.2L59.3,49.3L61.2,47.5L61.8,46.7L62.8,44.9L63.3,42.6L63.2,30.9L62.4,27.6L61.3,25.3L59.9,23.3L57.7,21.2L55.8,19.9L54.2,19.2L51.1,18.4L49.1,18.3L48.5,18.4L48.0,18.3L47.9,18.1L47.9,17.1L48.7,15.6L49.1,14.6L49.1,13.3L48.7,11.9L48.2,10.9L46.9,9.8L45.9,9.3L45.2,9.1Z M35.1,34.0L35.5,32.7L36.2,31.5L37.4,30.5L38.2,30.2L39.7,29.9L41.3,30.2L42.9,31.2L44.0,32.4L44.4,33.2L44.8,33.1L45.2,32.1L45.9,31.3L47.5,30.3L48.3,30.1L50.0,30.1L50.9,30.3L52.0,30.9L53.2,32.2L53.7,33.2L53.8,33.8L53.9,35.2L53.4,36.8L52.5,38.0L46.0,42.9L44.9,43.6L44.4,43.6L43.6,43.1L42.9,42.6L42.2,42.2L37.9,39.1L37.5,38.7L37.0,38.4L36.2,37.6L35.6,36.7L35.2,35.7Z" fill="#000" fill-rule="evenodd"/>
</svg>