<svg xmlns="http://www.w3.org/2000/svg" viewBox="0 0 128 128" width="128" height="128">
  <path d="M113.4,37.7L113.2,37.6L111.4,37.5L103.7,37.7L103.0,37.9L102.8,38.3L102.7,39.5L102.5,40.3L102.4,41.2L101.9,43.0L101.0,45.3L99.6,47.6L98.3,49.2L96.1,51.2L95.0,52.0L94.6,52.1L94.3,52.3L92.7,53.2L91.7,53.3L91.2,52.8L89.8,49.6L89.2,47.7L89.2,47.0L89.6,46.6L90.8,46.0L91.4,45.6L93.2,43.7L94.3,41.8L94.8,40.4L95.0,38.8L94.9,37.1L94.7,35.9L93.9,33.9L93.0,32.7L92.3,31.9L90.3,30.4L89.9,30.4L89.2,30.0L87.5,29.6L85.4,29.5L83.5,29.9L82.4,30.4L81.1,31.1L80.3,31.7L79.0,33.1L78.4,34.0L77.6,35.9L77.2,37.9L77.2,38.8L77.5,40.9L78.0,42.0L79.0,43.7L81.1,45.8L82.9,46.7L83.4,47.1L83.3,47.9L82.8,49.3L82.5,50.3L81.8,52.0L81.6,52.7L81.2,53.5L80.3,53.5L79.6,53.2L79.0,53.0L78.0,52.4L77.4,52.2L75.5,50.8L73.7,49.0L72.3,47.2L70.9,44.5L70.5,43.4L70.1,41.8L69.8,39.7L69.6,39.2L69.4,38.9L65.3,38.8L64.5,39.0L61.2,39.0L57.8,39.2L56.2,39.1L54.6,39.3L54.3,39.8L54.1,41.8L53.7,43.7L53.3,45.2L52.6,46.9L50.8,49.8L49.2,51.5L47.6,52.9L45.8,54.0L44.6,54.5L43.9,54.6L43.4,54.3L42.5,52.4L41.2,49.0L41.2,48.2L41.6,47.8L43.6,46.6L44.7,45.4L45.9,43.4L46.4,41.8L46.7,40.1L46.6,38.7L46.1,36.9L45.3,35.2L43.9,33.5L42.3,32.3L41.1,31.7L39.6,31.4L38.6,31.4L38.2,31.2L36.3,31.4L34.0,32.2L32.8,33.0L31.7,34.0L30.9,35.1L30.7,35.2L30.1,36.5L29.6,37.9L29.4,39.1L29.4,40.5L29.7,42.1L30.2,43.4L30.9,44.7L31.5,45.5L33.1,47.0L34.1,47.6L35.3,48.2L35.7,48.6L35.6,49.7L35.3,51.0L34.8,52.1L34.6,53.0L34.1,54.2L34.0,54.6L33.5,55.0L32.5,54.9L29.7,53.6L27.4,52.0L25.3,49.7L24.2,48.1L23.0,45.4L22.2,42.7L22.0,40.6L21.8,40.3L19.2,40.2L12.2,40.6L11.8,40.9L11.8,41.9L11.9,42.7L11.9,43.7L12.6,46.9L14.3,51.3L16.0,54.2L17.3,56.1L18.3,57.2L18.8,57.9L21.2,60.2L22.9,61.5L24.9,62.7L27.4,64.1L28.7,64.6L29.0,64.9L29.0,65.2L28.0,67.2L25.6,70.9L24.6,72.2L24.3,72.8L23.8,73.3L23.5,73.8L22.7,74.8L20.8,77.2L17.6,80.8L12.3,85.8L9.1,88.4L9.1,89.1L15.9,97.9L16.5,98.5L17.0,98.6L19.2,97.0L23.7,93.1L27.6,89.3L27.7,89.0L28.7,88.1L31.1,85.4L32.5,83.6L33.9,81.9L38.1,76.0L38.6,75.1L39.1,74.7L39.6,74.7L40.0,75.0L41.1,76.7L42.8,78.7L43.2,79.4L43.5,79.6L46.0,82.7L46.4,83.0L46.4,83.2L53.4,90.2L54.3,90.9L55.6,92.2L56.2,92.5L58.2,94.3L59.9,95.5L60.8,96.3L61.4,96.6L63.1,97.9L63.9,97.9L68.6,94.2L70.9,92.1L75.7,87.4L78.2,84.6L81.7,80.4L86.6,73.6L87.0,73.6L87.5,74.1L89.5,77.0L93.3,81.7L95.8,84.5L100.2,88.9L102.5,90.9L103.1,91.6L105.3,93.4L106.0,93.8L107.3,95.0L111.0,97.8L111.7,97.8L112.4,96.9L113.6,95.1L114.4,94.1L114.7,93.4L115.5,92.6L116.8,90.6L117.2,90.2L117.7,89.2L118.7,88.0L119.2,87.1L118.3,86.2L117.0,85.2L114.0,82.9L113.3,82.1L110.7,80.0L105.5,74.9L102.8,71.8L101.1,69.5L100.4,68.8L99.9,67.9L99.5,67.5L97.7,65.0L97.3,64.0L97.0,63.7L96.9,63.3L97.4,62.8L99.1,62.0L101.3,60.7L103.7,58.9L106.7,56.0L109.1,52.9L111.3,49.0L111.5,48.1L112.0,47.2L112.8,44.6L113.4,41.0Z M62.1,51.8L62.5,51.8L62.8,52.0L64.0,54.0L65.7,56.1L67.0,57.5L68.6,58.9L70.0,60.0L71.4,60.8L72.6,61.7L73.2,61.9L74.8,62.8L75.6,63.1L76.1,63.4L76.2,64.0L74.8,66.4L74.3,66.9L74.3,67.2L72.7,69.5L72.4,70.0L71.8,70.7L71.5,71.3L70.9,71.9L69.5,73.8L66.7,77.3L63.2,80.7L62.6,80.7L61.3,79.6L58.1,76.4L55.3,73.4L51.9,69.1L49.0,64.6L49.0,64.3L49.4,63.9L50.9,63.2L52.8,62.0L56.3,59.2L58.2,57.3L59.4,55.9L61.3,53.2L61.8,52.1Z" fill="#000" fill-rule="evenodd"/>
</svg>