<svg xmlns="http://www.w3.org/2000/svg" viewBox="0 0 128 128" width="128" height="128">
  <path d="M42.0,10.6L41.0,11.4L39.7,12.7L38.8,13.9L38.4,14.9L37.8,17.1L37.8,19.8L38.4,21.8L39.9,24.3L41.6,25.6L42.9,26.2L43.6,27.1L43.5,28.3L42.4,31.0L41.5,32.2L40.3,33.0L22.0,33.2L20.9,33.5L20.6,33.9L20.6,56.0L20.5,56.5L19.9,56.9L15.1,57.0L14.6,57.2L14.2,57.7L14.1,64.5L14.2,65.2L14.6,65.7L15.2,65.9L17.4,66.0L28.4,65.8L29.0,65.6L29.4,65.1L29.5,64.0L29.4,45.3L29.6,42.7L30.3,42.2L33.0,42.2L33.8,42.9L35.7,47.8L36.2,49.5L36.5,50.0L36.8,51.1L37.2,52.1L38.4,55.5L39.1,57.2L41.5,64.3L42.2,66.1L42.2,67.1L41.5,68.1L39.1,70.4L38.2,71.6L35.3,74.4L32.2,77.7L25.7,84.4L25.1,85.4L25.0,96.7L25.2,109.5L24.7,110.0L24.4,110.1L20.1,110.1L19.3,110.2L18.7,110.6L18.6,115.0L18.8,118.2L19.3,118.6L20.9,118.8L33.4,118.8L34.0,118.2L34.1,96.7L34.0,91.1L33.8,89.8L33.9,88.7L35.8,86.4L39.5,82.9L45.1,77.1L46.3,76.1L47.0,76.2L54.6,83.7L55.6,84.6L60.0,89.1L60.4,90.2L60.4,104.8L60.6,106.4L60.5,109.4L60.2,109.8L59.8,110.0L54.8,110.0L54.4,110.1L54.0,110.5L53.9,116.9L54.0,117.9L54.2,118.2L54.5,118.4L62.4,118.5L74.3,118.2L75.2,118.1L75.7,117.5L75.8,113.6L75.6,110.2L74.7,109.8L70.0,109.8L69.7,109.6L69.3,109.1L69.2,89.8L69.5,88.7L71.3,86.7L79.4,78.7L79.6,78.3L82.1,75.8L82.5,75.6L83.2,75.7L84.5,77.1L85.3,77.8L87.7,80.3L87.8,80.6L89.2,81.8L94.9,87.6L95.4,88.5L95.3,103.6L95.5,117.1L96.0,117.6L103.7,117.5L105.0,117.3L108.2,117.3L109.3,117.2L110.1,116.9L110.4,116.5L110.5,115.4L110.3,109.4L109.9,109.1L109.2,109.0L104.6,109.0L104.2,108.6L104.1,108.3L104.1,84.8L103.8,84.2L101.1,81.6L100.8,81.0L92.0,72.2L91.7,71.8L89.7,69.9L88.9,68.9L87.0,67.1L86.9,65.6L87.1,64.8L88.1,62.3L88.6,60.5L89.5,58.4L89.7,57.2L90.1,56.5L90.5,55.1L91.5,52.5L92.5,49.3L93.0,48.1L93.4,46.6L94.0,45.4L94.4,43.8L94.9,42.5L95.6,41.9L96.5,41.8L107.3,41.9L107.8,41.6L108.0,41.2L107.8,25.0L107.9,19.9L108.0,19.5L108.6,18.9L108.9,18.8L113.4,18.7L113.7,18.6L114.1,18.0L114.1,15.5L113.9,11.0L113.2,10.3L112.9,10.2L100.2,9.8L99.6,10.2L99.5,32.1L99.4,32.6L99.1,33.0L89.1,33.1L88.1,32.7L86.5,30.9L85.5,28.6L85.3,26.8L86.0,26.1L87.4,25.3L89.5,23.1L90.3,21.6L90.9,19.6L91.0,17.5L90.8,16.4L89.6,13.7L87.9,11.6L85.7,10.2L84.8,10.0L84.4,9.8L83.4,9.6L81.4,9.5L78.9,10.0L77.1,11.1L75.0,13.4L74.3,14.9L73.8,16.8L73.8,19.7L74.5,21.7L75.0,22.9L75.8,23.9L77.0,25.1L78.0,25.9L78.9,26.2L79.4,27.0L78.9,29.3L78.2,30.8L77.5,31.9L76.5,32.8L75.4,33.1L59.2,33.1L53.5,33.0L52.6,32.8L51.0,31.1L50.9,30.6L50.4,30.0L49.7,27.9L49.6,26.9L49.8,26.5L50.3,26.0L51.8,25.2L53.3,23.7L53.8,23.0L54.9,20.7L55.1,19.5L55.0,16.5L54.3,14.4L53.5,13.1L52.6,11.9L51.5,11.0L50.1,10.3L49.9,10.0L47.7,9.5L45.2,9.5L43.8,9.8Z M60.7,41.8L68.9,42.0L69.4,42.2L69.8,42.7L69.9,43.1L70.5,44.2L71.6,47.7L73.3,52.1L74.4,55.3L74.9,56.4L75.6,58.6L76.3,60.6L76.8,61.4L77.2,62.8L78.4,66.1L78.3,66.9L78.0,67.4L67.2,78.3L65.1,80.2L64.5,80.2L64.1,80.0L59.9,75.8L59.3,75.1L58.4,74.4L54.7,70.7L53.3,69.2L51.5,67.5L51.3,67.0L51.4,66.3L52.7,63.1L53.1,61.6L53.4,60.7L53.5,59.9L54.1,58.0L55.2,55.2L55.7,53.4L56.1,52.6L56.5,51.2L58.3,46.5L59.3,43.3L59.7,42.5L60.3,41.9Z" fill="#000" fill-rule="evenodd"/>
</svg>