<svg xmlns="http://www.w3.org/2000/svg" viewBox="0 0 128 128" width="128" height="128">
  <path d="M22.5,106.6L23.0,107.2L23.4,107.3L24.6,107.2L25.0,107.0L25.1,106.7L25.0,106.4L24.8,106.4L24.2,106.7L23.6,106.7L23.0,106.4L22.7,106.2L22.6,106.2Z M78.0,91.8L77.3,91.5L76.0,91.5L74.8,92.4L74.3,93.3L74.1,95.2L74.2,96.6L74.0,103.5L73.3,104.2L71.0,104.2L69.9,104.1L69.1,104.2L68.5,104.6L67.8,105.5L67.4,106.4L67.4,107.4L67.9,108.3L68.5,108.9L69.1,109.2L70.4,109.4L73.8,109.5L78.0,109.4L78.4,109.3L78.8,109.0L79.1,108.0L79.3,93.6L79.0,92.7Z M57.2,92.5L56.4,91.9L55.9,91.6L55.2,91.5L48.0,91.6L45.2,91.9L44.8,92.3L44.7,93.6L44.6,100.6L44.4,102.0L43.9,102.4L40.8,102.5L39.4,103.2L39.0,103.7L38.6,104.6L38.7,105.8L39.0,106.5L39.9,107.3L41.2,107.8L48.2,107.9L48.7,107.8L48.9,107.4L49.1,97.4L49.3,97.0L49.8,96.6L51.0,96.5L55.7,96.6L56.7,96.4L57.6,95.5L57.9,94.6L57.9,93.7Z M82.5,91.8L81.8,92.6L81.4,93.8L81.3,94.7L81.3,107.7L81.4,108.9L81.7,109.1L82.3,109.3L86.6,109.3L89.4,109.1L90.5,108.6L91.3,107.8L91.6,107.1L91.5,105.6L91.0,104.7L90.7,104.4L89.9,104.0L89.2,103.8L87.5,103.8L87.1,103.7L86.7,103.4L86.5,103.0L86.4,101.9L86.4,95.3L86.6,94.4L86.5,93.3L86.0,92.4L85.2,91.6L84.4,91.4L83.6,91.4Z M29.9,53.9L29.4,54.5L29.3,54.9L28.7,55.7L28.4,56.3L28.4,56.6L27.5,58.1L27.5,58.5L26.6,60.0L26.4,60.9L25.5,62.3L24.6,64.5L24.1,64.9L23.9,65.7L23.6,65.9L22.2,69.0L21.8,69.4L21.4,70.3L20.0,72.6L19.5,72.7L10.2,72.6L9.5,73.0L9.7,73.4L10.6,73.1L15.6,73.3L20.4,73.1L21.4,71.8L21.6,71.0L22.7,69.2L24.5,65.4L24.6,64.9L25.4,63.8L25.5,63.1L26.4,61.6L26.4,61.2L26.7,60.9L27.7,58.6L28.5,57.3L28.6,56.8L28.9,56.5L29.1,55.8L29.4,55.4L29.5,55.0L29.9,54.5Z M9.2,80.6L9.3,81.1L9.9,81.5L11.8,81.5L14.5,81.7L20.9,81.7L22.1,81.9L23.1,82.6L23.1,82.5L23.6,82.0L24.3,81.9L24.6,82.0L25.1,82.4L25.4,82.8L25.4,82.5L25.7,82.1L26.7,81.8L28.4,82.0L30.4,81.9L31.2,82.1L43.2,82.1L44.8,82.3L47.9,82.3L48.6,82.5L48.9,83.0L49.0,83.9L49.0,88.4L49.1,89.5L49.3,89.8L49.8,90.1L55.6,90.2L66.1,90.2L66.8,89.9L67.0,89.6L67.3,83.0L67.7,82.5L68.3,82.4L71.9,82.3L72.7,82.5L73.1,82.9L73.1,83.4L72.7,84.4L71.4,86.6L71.3,87.0L71.1,87.1L70.1,89.3L70.2,89.7L71.0,89.9L84.6,89.8L91.3,89.6L91.8,89.2L91.8,88.7L90.6,86.4L90.2,85.9L89.8,84.9L88.8,83.4L88.8,83.0L89.1,82.5L91.3,82.4L105.3,82.4L105.7,82.5L106.0,83.0L106.0,87.3L106.2,87.9L106.2,90.7L106.3,90.7L106.3,87.7L106.5,87.1L106.6,83.0L106.9,82.5L107.7,82.4L108.0,82.5L108.5,83.1L108.7,83.9L108.5,86.8L108.7,94.1L108.6,95.6L108.8,96.3L108.6,99.1L108.7,100.8L108.5,101.5L108.8,103.5L108.7,106.3L108.6,106.5L107.9,107.1L107.3,107.1L106.8,106.9L106.4,106.2L106.4,99.8L106.2,98.3L106.3,96.6L106.2,96.5L106.0,97.3L106.0,100.1L106.2,100.6L106.2,104.6L106.0,105.4L106.0,107.0L106.2,107.3L106.6,107.7L108.7,107.7L109.0,107.4L109.2,106.5L109.2,99.3L109.1,97.2L108.9,96.6L109.1,95.5L109.1,82.9L109.4,82.5L110.0,82.4L118.0,82.2L118.4,82.1L118.8,81.5L118.8,80.2L118.8,79.5L118.6,79.5L118.5,80.6L118.3,81.2L117.8,81.6L116.8,81.8L98.5,82.0L97.5,81.9L94.1,82.1L88.6,82.0L88.1,81.7L87.4,80.8L86.8,79.6L86.6,79.3L85.0,76.2L83.9,74.6L81.3,69.9L80.9,69.6L80.5,69.6L80.1,69.9L79.6,70.9L79.5,71.3L79.0,72.0L77.7,74.8L76.9,76.1L76.8,76.5L76.1,77.4L75.5,78.8L75.1,79.5L74.4,81.0L73.7,81.9L72.7,82.1L69.6,82.2L67.9,82.0L67.6,81.8L67.3,81.3L67.0,78.5L66.7,76.8L66.5,76.1L65.3,74.0L63.2,72.0L61.3,70.8L59.5,70.3L59.3,70.0L59.3,69.9L59.6,69.6L60.9,69.4L62.9,68.4L64.7,66.7L65.9,65.2L66.5,63.9L67.0,61.6L66.9,59.0L66.5,57.7L65.8,55.9L65.3,55.4L65.1,55.0L62.9,53.0L61.5,52.2L59.4,51.7L57.3,51.7L55.4,52.1L55.0,52.3L54.5,52.4L52.7,53.5L51.8,54.3L50.7,55.6L49.8,57.1L49.8,57.3L49.3,58.2L49.0,59.9L49.0,61.7L49.2,62.7L49.8,64.5L50.8,66.3L52.7,68.1L54.7,69.2L56.5,69.8L56.5,70.1L53.8,70.8L52.1,71.5L51.5,71.9L50.9,72.1L50.4,72.4L49.8,72.6L49.4,72.8L48.7,73.0L46.8,73.8L46.2,73.9L45.8,74.2L43.4,75.0L35.8,75.1L34.9,75.5L34.1,76.4L33.9,77.0L33.9,78.4L34.2,79.1L34.9,79.8L35.3,80.0L36.7,80.2L43.1,80.2L44.9,79.6L45.7,79.2L46.5,79.0L46.6,78.9L47.2,78.8L47.9,78.4L48.6,78.4L48.9,78.9L48.9,81.3L48.4,81.8L47.9,82.0L41.5,82.0L38.6,81.7L31.9,81.6L26.5,81.6L19.9,81.3L15.3,81.3L11.9,81.1L11.0,81.2L10.2,81.1L9.3,80.4Z M78.8,50.7L77.5,51.0L75.7,51.9L73.8,53.5L73.0,54.5L72.0,56.2L71.5,58.0L71.4,61.1L71.6,61.9L72.4,64.1L73.4,65.6L74.6,66.8L75.3,67.3L76.7,68.1L78.2,68.5L79.8,68.8L81.5,68.7L83.0,68.4L84.2,67.9L86.0,66.7L87.3,65.6L88.2,64.4L89.1,62.5L89.6,60.8L89.6,59.0L89.3,57.2L88.9,56.3L88.7,55.5L87.8,54.2L85.9,52.3L84.0,51.3L82.1,50.7Z M32.5,48.7L32.2,49.0L31.9,49.6L31.4,50.3L31.2,50.8L31.2,51.2L31.5,51.1L31.7,50.5L32.5,49.1Z M33.6,46.4L33.5,46.4L33.1,47.2L33.1,47.5L32.7,48.0L32.8,48.3L33.1,47.9L33.1,47.6L33.5,47.0Z M46.6,19.6L45.9,20.7L45.5,21.9L44.8,23.0L44.8,23.3L44.6,23.5L44.5,23.8L43.6,25.2L43.0,26.5L42.7,27.4L42.3,28.1L42.1,28.8L41.7,29.4L41.2,30.5L40.9,30.7L40.5,31.7L40.5,32.1L40.1,32.9L39.9,33.1L39.6,33.8L39.4,34.0L39.1,34.7L37.8,37.1L37.8,37.4L37.4,38.2L37.4,38.5L37.1,38.8L36.9,39.4L36.5,39.9L36.5,40.2L36.1,40.7L36.0,41.1L35.6,41.8L35.5,42.3L34.7,43.5L34.1,45.2L33.9,45.5L33.7,46.3L33.9,46.3L34.0,45.8L34.4,45.2L34.4,44.8L35.3,43.3L35.5,42.5L36.2,41.4L36.5,40.5L36.9,40.0L37.0,39.4L37.3,39.1L37.4,38.7L38.2,37.5L38.5,36.7L38.8,36.3L38.9,35.8L39.5,34.7L39.7,34.1L40.1,33.4L40.1,33.2L40.5,32.6L40.6,32.2L41.1,31.7L41.2,31.2L41.7,30.6L41.7,30.4L42.1,29.6L42.1,29.3L42.8,28.3L42.8,28.0L43.2,27.2L43.8,26.4L44.6,24.7L44.7,24.3L45.3,23.3L45.7,22.2L46.9,20.2L47.5,19.6L71.1,19.5L96.7,19.7L96.9,20.1L96.8,20.7L96.4,21.3L96.3,21.9L95.0,24.5L94.9,25.2L94.6,25.4L94.5,26.0L94.1,26.5L94.0,27.0L92.6,29.7L92.5,30.2L91.8,31.6L91.8,32.0L92.2,32.4L93.7,32.4L96.1,32.9L98.8,33.8L99.4,33.9L99.9,34.2L101.0,34.6L102.9,36.0L103.3,36.1L104.8,37.4L105.1,37.5L107.0,39.4L107.3,40.1L108.0,40.9L108.4,41.4L108.5,42.0L108.9,42.7L109.2,43.8L109.6,44.6L109.8,45.9L109.9,51.9L109.7,54.3L109.4,54.7L109.4,56.1L109.2,56.3L108.9,58.2L108.5,59.4L108.4,60.2L108.0,60.8L107.8,62.1L107.0,64.3L106.9,64.9L106.2,66.1L105.9,67.3L105.5,68.0L105.5,68.2L105.1,68.8L105.0,69.3L104.0,71.7L103.7,72.1L103.6,72.6L103.8,73.0L104.1,73.2L105.3,73.3L117.7,73.2L118.1,73.4L118.4,73.7L118.5,74.1L118.7,74.3L118.7,74.9L118.8,75.1L118.9,75.0L119.0,74.4L118.8,73.4L118.4,72.9L117.8,72.7L106.4,72.8L104.8,72.7L104.6,72.5L104.8,71.5L105.2,70.8L105.5,69.8L105.6,69.0L105.8,68.5L105.9,68.0L106.7,66.4L106.8,65.7L107.4,64.5L107.6,63.2L107.9,62.8L108.0,62.3L108.3,61.8L108.8,59.8L109.1,59.1L109.3,57.7L109.4,57.3L109.4,56.0L109.7,55.5L109.9,54.4L110.1,51.8L110.3,51.1L110.3,47.0L110.1,46.2L110.1,45.5L109.8,44.8L109.8,44.1L109.0,41.8L108.7,41.4L108.3,40.5L108.0,40.2L107.5,39.4L106.5,38.1L105.0,36.6L102.8,35.1L101.5,34.4L101.2,34.4L100.8,34.0L100.0,33.8L99.7,33.5L97.2,32.8L96.8,32.5L95.7,32.4L95.5,32.2L94.5,32.0L93.3,31.9L93.0,31.7L92.7,31.3L92.7,30.9L93.3,29.6L93.4,29.0L93.7,28.6L94.0,27.7L94.5,27.0L94.5,26.6L94.9,26.2L95.1,25.3L95.8,24.3L96.2,23.5L96.5,22.4L97.7,20.1L97.7,19.0L97.1,18.9L93.6,19.0L82.9,19.0L74.2,18.9L51.5,18.9L47.3,19.0L47.1,19.1Z" fill="#000" fill-rule="evenodd"/>
</svg>