<svg xmlns="http://www.w3.org/2000/svg" viewBox="0 0 128 128" width="128" height="128">
  <path d="M87.4,65.0L87.0,65.6L85.8,68.7L85.4,69.3L84.9,70.7L84.4,71.6L84.4,72.2L85.0,72.6L91.1,72.6L91.5,72.4L91.6,71.8L91.1,71.0L89.8,68.3L88.4,66.0L88.1,65.3L87.8,65.0Z M78.3,61.8L77.7,61.6L72.0,61.7L71.4,62.3L71.1,63.2L70.7,63.7L69.7,65.9L69.6,66.4L68.9,67.4L68.8,67.9L68.0,69.4L66.9,72.0L67.4,72.4L68.8,72.5L70.4,72.4L72.9,72.6L73.7,72.3L74.3,71.3L75.5,68.7L75.8,67.7L76.8,65.9L77.8,63.4L78.3,62.6Z M10.0,47.6L10.0,74.5L10.2,83.0L10.2,95.8L10.4,99.4L10.5,113.6L10.6,114.5L11.2,114.9L16.7,115.1L27.7,115.0L30.4,115.2L42.6,115.2L47.4,115.4L59.4,115.4L66.8,115.5L83.7,115.4L89.9,115.7L92.9,115.6L103.6,115.8L115.6,115.8L118.0,115.7L118.3,115.4L118.6,95.8L118.6,75.0L118.4,74.5L117.9,74.2L100.5,74.2L84.4,73.9L83.5,74.2L83.1,74.6L82.7,75.3L82.6,76.2L86.5,84.2L86.9,84.7L87.6,86.4L89.1,89.4L89.6,90.1L90.9,93.2L92.7,96.9L93.3,97.9L94.1,99.7L95.0,101.3L96.4,104.4L97.4,105.2L101.0,105.2L102.6,105.4L103.1,105.7L103.2,106.2L102.5,107.6L102.1,109.0L101.4,110.2L100.9,110.4L93.3,110.3L92.7,110.1L92.0,109.1L91.5,107.9L90.8,106.5L90.7,106.1L89.7,104.0L89.4,103.0L88.8,102.1L88.4,101.0L87.9,99.8L87.4,99.4L85.2,99.2L81.2,99.3L67.6,99.0L66.8,99.5L64.7,104.6L64.7,104.8L65.1,105.3L68.9,105.5L69.3,105.8L69.3,106.4L69.0,107.3L68.1,109.3L68.0,109.8L67.7,110.0L66.6,110.2L63.7,110.2L61.4,110.0L57.3,110.1L56.9,109.8L56.9,109.5L58.5,106.2L59.6,103.2L62.5,97.5L63.1,95.9L63.4,95.3L63.6,94.5L65.4,91.0L66.8,87.5L67.2,87.0L68.2,84.6L68.8,83.5L68.9,83.0L70.2,80.3L71.0,78.3L72.5,75.2L72.5,74.7L72.1,74.6L71.0,74.5L55.1,74.3L54.6,74.2L54.3,73.8L54.3,73.2L54.6,72.9L55.6,72.6L61.2,72.6L61.8,72.3L62.4,71.7L64.3,68.1L64.4,67.6L66.4,63.8L67.3,61.5L69.4,57.4L70.0,57.1L76.0,57.1L79.8,57.3L82.1,57.2L82.7,56.5L84.6,51.7L85.1,51.0L85.4,49.9L86.1,48.5L86.1,48.0L86.0,47.8L80.4,47.6L75.8,47.7L61.9,47.5L42.5,47.5L41.9,47.7L41.7,48.0L41.4,48.6L41.4,49.6L41.6,50.2L41.9,50.8L42.6,52.9L43.5,54.6L44.0,56.4L45.6,60.1L46.1,61.7L47.5,64.9L47.5,65.2L49.3,69.4L50.0,71.4L50.7,72.9L50.7,73.1L51.1,74.0L52.5,77.6L52.9,78.1L53.4,78.2L58.1,78.4L58.5,78.8L58.5,79.2L57.2,82.9L56.8,83.3L53.5,83.4L51.6,83.2L49.5,83.2L48.9,82.8L46.2,75.7L45.8,74.9L45.3,74.5L44.4,74.3L31.1,74.0L27.9,73.7L26.2,73.7L25.8,73.9L25.2,74.6L24.6,76.4L24.2,77.0L24.2,77.7L24.5,78.0L27.6,78.2L28.1,78.6L28.1,79.0L27.6,80.1L27.6,80.4L27.1,81.1L27.0,81.7L26.3,82.6L19.4,82.6L16.9,82.3L16.6,82.0L16.8,81.0L17.5,79.7L19.7,74.7L20.6,73.0L22.8,67.8L24.9,63.8L25.5,62.2L26.8,59.7L28.1,56.5L28.8,55.3L29.4,53.8L30.7,51.2L30.7,50.9L31.7,48.9L32.0,48.1L31.9,47.5L30.3,47.3L27.0,47.4L23.1,47.2L10.6,47.2L10.2,47.3Z M46.9,36.2L46.6,36.5L46.5,37.1L46.0,37.8L45.9,38.4L45.0,40.0L44.9,40.7L42.9,44.7L42.9,45.2L43.6,45.6L47.1,45.6L50.4,45.8L50.9,45.7L51.2,45.3L51.2,44.9L48.9,39.6L48.4,38.2L47.7,36.9L47.7,36.6L47.4,36.3Z M38.3,34.7L37.7,34.3L35.6,34.2L31.6,34.3L31.0,34.6L30.6,35.1L29.5,37.4L29.2,37.8L28.6,39.0L28.6,39.2L28.1,39.9L28.0,40.4L27.0,42.0L26.3,43.5L25.9,44.0L25.7,44.6L25.7,45.1L26.0,45.4L31.8,45.5L33.0,45.3L33.5,44.8L35.1,41.3L37.2,37.5L37.2,37.3L38.1,35.7Z M9.6,13.0L9.5,25.5L9.7,30.5L9.8,43.5L10.0,44.7L10.5,45.2L15.1,45.4L19.1,45.4L19.7,45.2L20.1,44.8L20.9,43.1L21.3,42.7L22.1,41.1L22.7,40.2L23.6,38.3L24.2,37.4L24.9,36.0L27.5,31.7L27.6,31.3L28.7,29.7L29.4,29.4L36.6,29.4L41.3,29.6L41.9,29.1L42.4,28.3L45.4,22.5L45.9,21.7L46.6,20.3L47.2,19.7L49.3,19.6L51.7,19.7L52.1,20.2L52.1,20.6L50.7,23.5L50.7,23.8L49.9,25.6L49.9,25.9L49.1,26.7L47.5,26.8L47.1,27.2L46.2,28.7L46.1,29.6L46.5,29.9L48.7,30.0L49.0,30.2L49.6,30.8L51.0,34.3L52.3,36.8L53.3,39.5L54.3,41.5L54.6,41.9L65.5,42.2L66.2,42.6L67.4,45.3L68.1,45.8L104.0,45.8L111.7,45.6L112.3,45.1L113.5,42.1L114.1,41.6L115.2,41.6L115.5,41.9L115.5,42.3L115.3,42.5L115.1,43.5L114.1,45.7L113.8,46.9L113.3,47.9L113.0,48.9L112.7,49.3L112.2,50.9L111.4,52.1L110.5,52.3L110.1,52.2L109.8,51.9L110.0,51.0L110.9,48.6L110.9,48.0L110.4,47.7L93.0,47.7L92.1,48.3L92.0,48.8L91.3,50.3L91.2,50.9L90.4,52.4L90.4,52.7L89.9,53.4L89.7,54.2L89.3,54.7L87.7,54.8L87.0,55.4L86.5,56.6L86.5,56.9L86.8,57.3L88.3,57.3L89.0,57.5L89.4,57.8L94.3,67.5L94.7,68.0L95.3,68.5L105.0,68.7L105.7,69.3L106.8,71.8L107.3,72.3L107.7,72.5L118.1,72.5L118.5,72.3L118.7,71.9L118.5,66.4L118.7,63.8L118.6,43.3L118.8,33.2L118.8,13.3L118.5,12.8L117.0,12.6L98.3,12.6L18.6,12.6L11.4,12.5L10.1,12.6Z" fill="#000" fill-rule="evenodd"/>
</svg>