<svg xmlns="http://www.w3.org/2000/svg" viewBox="0 0 128 128" width="128" height="128">
  <path d="M19.5,25.8L18.7,27.0L18.5,27.6L18.5,28.8L18.8,30.5L19.3,31.4L20.5,32.6L21.7,33.2L22.4,33.4L23.4,33.4L24.8,32.8L25.8,32.1L26.2,32.1L27.6,33.1L28.8,33.6L29.2,34.0L29.1,34.6L28.4,35.7L27.3,38.6L27.0,40.6L27.0,42.9L27.5,46.4L28.5,49.6L29.3,51.0L29.7,52.2L31.7,56.0L31.7,56.4L31.2,56.9L29.6,57.5L26.4,59.0L24.6,60.2L21.4,62.7L19.4,64.8L17.3,67.3L15.7,69.8L14.0,73.3L13.0,76.2L12.8,77.1L12.5,77.6L12.5,78.0L12.1,78.8L11.4,81.6L10.9,84.5L10.8,86.7L10.5,88.6L10.2,93.9L9.9,95.5L9.9,97.8L9.7,99.5L9.7,103.7L9.4,106.5L9.4,110.1L10.0,110.9L11.9,111.0L14.5,110.9L15.2,110.7L16.3,110.9L19.9,111.0L20.8,110.8L43.6,110.9L44.6,110.7L54.3,110.7L59.2,110.9L60.1,110.7L70.7,110.6L101.1,110.6L104.3,110.4L117.1,110.4L118.0,110.3L118.6,109.9L118.8,108.8L118.9,105.9L118.9,94.3L118.6,92.7L118.4,87.7L118.0,85.5L117.8,82.9L117.4,81.4L117.4,80.1L116.6,77.8L116.5,77.0L116.1,76.2L115.9,75.4L114.5,72.6L114.4,72.1L113.9,71.6L112.6,69.3L110.7,66.7L106.9,63.1L106.3,62.8L105.7,62.2L104.9,61.8L103.7,60.9L102.9,60.5L102.1,59.9L99.6,58.7L97.9,58.1L97.5,57.8L97.0,57.7L96.5,57.4L96.5,56.7L100.4,50.7L100.5,50.2L101.6,48.0L102.7,44.6L103.0,42.4L102.9,40.9L102.4,38.4L102.1,37.9L101.5,35.7L101.2,35.2L101.0,34.2L101.1,33.7L101.7,33.2L103.2,32.2L103.9,32.2L104.4,32.5L105.3,32.9L106.9,32.9L108.2,32.4L109.1,31.9L109.8,31.1L110.4,30.3L110.9,29.2L110.9,28.2L110.1,26.2L109.3,25.4L107.8,24.5L105.9,24.3L105.5,23.9L104.8,22.4L104.2,21.4L102.6,19.6L101.0,18.6L99.7,18.1L98.4,17.8L96.3,17.8L94.5,18.2L92.5,19.2L90.5,21.2L89.9,22.0L89.4,23.3L88.9,25.4L88.9,26.7L89.2,28.4L89.6,29.6L90.4,30.9L91.5,32.2L92.5,33.0L93.3,33.5L93.9,34.0L93.9,34.6L93.2,35.6L91.2,37.3L89.2,38.6L88.4,38.6L87.6,38.2L82.9,35.2L82.1,34.5L82.0,33.7L81.3,31.6L80.9,31.2L80.6,31.2L79.9,31.9L79.4,32.0L78.6,31.6L76.9,30.3L75.8,29.8L68.0,29.9L66.6,29.8L66.1,29.7L65.8,29.3L65.8,28.6L65.2,25.4L65.2,24.6L65.5,23.9L65.5,23.1L64.5,22.2L63.6,22.3L62.9,23.1L63.0,24.0L63.7,24.9L63.7,25.9L63.3,27.3L63.0,29.4L62.7,29.7L62.0,29.9L53.8,29.8L52.4,30.5L50.4,31.8L49.7,31.8L48.8,30.9L48.3,30.9L48.0,31.1L47.6,32.2L47.4,34.1L47.2,34.5L46.8,34.8L43.6,36.7L42.5,37.4L41.2,38.1L40.5,38.1L37.9,36.0L36.7,34.8L36.0,33.8L36.0,33.2L38.2,31.3L39.2,29.9L40.0,27.4L40.1,24.6L39.8,23.1L38.8,21.0L37.2,19.3L35.6,18.2L34.3,17.7L32.6,17.3L30.8,17.3L28.6,17.9L27.1,18.7L25.9,19.7L24.7,21.0L24.1,22.2L23.7,23.6L23.3,24.2L21.5,24.5L20.5,24.9Z M71.6,70.4L71.6,71.2L71.3,71.5L70.6,72.8L70.5,73.2L69.8,74.6L68.7,77.3L67.8,80.5L67.1,82.0L66.8,83.2L66.5,83.7L66.4,84.7L65.5,87.1L65.3,89.2L64.9,90.8L64.3,95.1L64.0,95.3L63.8,94.9L63.5,93.9L63.3,91.2L62.7,87.8L62.3,86.8L61.8,83.8L61.5,83.2L61.2,81.7L60.9,81.2L60.8,80.2L60.4,79.3L60.4,78.8L59.8,76.6L58.8,73.9L57.4,71.1L57.5,70.5L58.6,70.3L70.1,70.2Z M55.6,67.5L56.4,65.8L57.1,65.2L57.4,65.1L70.5,65.0L71.4,65.1L71.8,65.7L72.6,67.9L72.7,68.9L72.3,69.2L71.3,69.3L56.9,69.3L56.6,69.2L56.0,68.6L55.7,68.1Z M58.9,62.1L59.0,61.7L59.6,61.3L68.1,61.3L68.5,61.6L68.6,63.8L68.1,64.1L59.4,64.1L58.8,63.7Z M56.8,58.5L56.8,57.6L57.2,57.2L57.7,57.1L70.9,57.1L71.5,57.5L70.8,59.7L70.2,60.2L69.0,60.2L58.1,60.2L57.6,60.1L57.3,59.8Z M73.2,55.6L73.2,55.9L72.9,56.2L58.5,56.3L56.4,56.2L56.0,55.7L56.1,55.3L57.4,53.8L57.8,53.1L62.2,48.1L62.7,47.8L65.9,47.7L66.5,47.9L70.7,52.6Z M61.5,44.8L61.8,45.2L61.7,47.0L53.9,56.4L54.0,57.1L55.2,57.3L55.6,57.6L55.9,59.1L56.4,60.8L56.8,61.2L57.8,61.3L58.1,61.6L57.6,63.7L57.4,64.0L56.4,64.3L55.5,65.3L55.0,66.2L54.5,66.2L53.7,65.1L51.5,62.7L47.4,58.8L47.2,58.3L48.9,56.4L51.1,54.7L53.8,52.0L59.9,47.3L60.4,46.5L60.6,45.2L61.0,44.9Z M67.2,44.3L67.8,44.4L68.8,45.4L68.8,46.6L69.2,47.3L71.6,49.1L73.1,50.5L73.6,50.7L74.9,51.9L75.5,52.3L78.1,54.7L81.5,57.3L81.8,57.8L81.8,58.3L77.1,62.8L73.8,66.9L73.4,67.0L73.1,66.7L72.8,65.9L72.7,65.3L72.0,64.4L71.3,64.1L70.5,64.1L69.8,63.7L69.6,62.7L69.6,61.6L70.2,61.2L70.9,61.2L71.6,60.7L72.2,58.9L72.4,57.9L72.9,57.3L73.2,57.1L74.1,57.1L74.7,56.9L75.1,56.6L75.1,56.3L74.4,55.3L67.0,47.1L66.9,44.6Z M62.8,44.8L63.1,44.5L63.7,44.3L65.6,44.4L65.9,44.8L66.0,46.1L65.8,46.7L65.1,46.9L64.2,46.9L62.8,46.6L62.7,46.2Z M51.8,38.8L54.5,41.8L55.1,42.6L55.1,43.0L54.6,43.5L53.4,44.0L52.8,44.5L51.3,45.2L48.9,46.8L47.9,47.3L47.3,47.3L46.2,45.8L45.6,44.7L45.6,44.0L47.0,42.7L48.2,41.3L48.6,41.1L50.6,39.2L51.2,38.8Z M76.6,38.1L77.2,38.1L78.4,38.7L79.5,39.8L81.2,40.9L83.1,42.5L83.6,42.8L84.2,43.4L84.3,43.8L83.4,45.9L83.1,47.8L82.7,48.2L81.9,48.0L77.4,45.8L75.4,45.0L74.7,44.5L73.9,42.4L73.9,41.8L74.8,40.1Z M52.7,36.0L54.3,34.5L55.1,34.5L56.4,35.9L56.6,36.2L57.8,37.3L58.2,37.9L59.5,39.4L59.6,40.0L59.3,40.3L58.8,40.4L58.5,40.3L57.6,39.4L57.2,39.4L56.4,40.4L56.0,40.4L53.2,37.5L52.6,36.7Z M74.5,34.1L75.8,35.3L75.8,35.7L75.6,36.1L74.0,38.3L73.5,38.4L72.4,37.4L72.3,36.7L73.8,34.6L74.2,34.2Z M64.1,31.1L64.8,31.1L65.2,31.5L65.3,32.0L65.3,33.6L65.5,34.8L65.5,38.4L65.7,41.1L65.6,42.2L65.8,42.6L65.7,43.2L65.5,43.3L64.0,43.2L64.0,41.6L63.7,41.1L63.1,39.8L63.1,36.9L63.7,31.6Z M55.4,31.1L55.8,30.9L61.9,30.9L62.4,31.0L62.7,31.4L62.7,33.0L62.3,34.8L62.2,38.0L61.8,38.5L61.4,38.4L58.7,35.3L55.8,32.4L55.3,31.7Z M73.3,31.0L73.5,31.4L73.2,32.1L70.8,35.4L70.6,35.9L68.9,37.9L67.3,40.0L66.8,40.1L66.6,39.9L66.3,33.8L66.1,33.1L66.2,31.5L66.8,31.0L68.3,30.9L72.3,30.9Z M64.3,28.3L64.6,28.4L64.8,28.7L64.8,29.4L64.5,29.7L64.1,29.6L64.0,29.4L64.0,28.6Z" fill="#000" fill-rule="evenodd"/>
</svg>