<svg xmlns="http://www.w3.org/2000/svg" viewBox="0 0 128 128" width="128" height="128">
  <path d="M92.4,25.0L92.0,24.8L88.5,24.8L70.2,24.8L67.8,24.6L66.3,24.7L66.0,24.9L65.9,62.7L66.1,63.2L66.5,63.6L67.5,64.1L68.2,64.6L69.2,65.1L69.9,65.6L71.0,66.2L73.4,67.7L75.6,68.8L78.0,70.4L78.7,70.6L81.0,72.1L81.6,72.4L82.0,72.7L84.5,74.1L85.0,74.5L87.8,76.0L89.1,76.9L90.1,77.4L92.0,78.6L92.8,78.9L93.9,79.7L95.4,80.5L96.3,81.2L97.0,81.4L97.1,81.6L98.2,82.1L98.6,82.6L98.6,82.9L98.1,83.7L97.6,84.9L97.0,85.2L93.7,83.3L92.8,82.9L92.0,82.3L91.3,82.0L88.1,80.0L87.4,79.8L85.8,78.7L84.4,78.0L82.8,76.9L82.1,76.6L80.9,75.8L79.9,75.4L78.7,74.6L75.2,72.6L75.0,72.4L73.7,71.7L73.3,71.4L72.5,71.0L69.3,69.1L67.1,67.9L66.6,67.5L64.5,66.3L63.9,66.3L60.9,68.1L59.6,68.8L59.1,69.2L57.3,70.0L57.0,70.4L56.0,70.8L55.1,71.4L54.3,71.7L52.9,72.6L52.7,72.9L51.4,73.5L48.9,75.1L48.3,75.4L46.0,76.9L44.3,77.8L43.8,78.2L42.5,78.8L41.4,79.6L40.2,80.1L37.6,81.8L37.3,81.9L36.8,82.3L35.5,82.9L34.4,83.7L34.1,83.7L33.8,84.1L33.1,84.3L31.8,85.2L31.4,85.6L31.4,86.0L31.9,86.4L32.8,88.3L33.4,89.0L33.5,89.5L34.3,90.7L34.9,91.9L36.3,94.1L37.3,96.1L38.5,97.9L39.1,99.1L39.7,99.9L40.1,100.7L41.2,102.5L41.6,103.4L43.9,107.3L44.1,107.5L44.3,108.1L44.7,108.5L45.2,108.6L46.9,107.6L47.4,107.0L47.4,106.4L39.8,91.2L39.5,90.8L38.0,87.5L38.0,87.2L38.7,86.6L40.2,85.6L41.4,85.0L41.8,84.7L42.1,84.6L44.0,83.3L44.7,83.1L45.4,82.5L46.1,82.2L48.4,80.8L48.9,80.6L49.2,80.3L50.5,79.6L50.7,79.4L51.3,79.2L53.8,77.6L54.4,77.4L55.9,76.3L57.2,75.8L59.6,74.2L61.1,73.4L62.0,72.8L62.6,72.5L63.9,71.7L64.7,71.8L65.5,72.2L66.0,72.6L67.9,73.6L70.6,75.3L72.1,76.0L74.8,77.7L75.1,77.8L76.0,78.4L77.5,79.1L78.3,79.8L79.0,80.0L80.6,81.1L81.5,81.5L86.1,84.3L86.7,84.5L87.8,85.3L88.1,85.4L90.6,87.0L90.6,87.8L81.3,106.7L81.3,107.1L81.7,107.5L83.5,108.6L84.1,108.5L84.5,107.8L85.6,105.7L86.2,105.0L86.9,103.5L87.9,101.9L89.1,99.5L89.4,99.3L89.7,98.5L90.1,98.0L91.4,95.6L92.8,93.2L93.1,92.6L93.3,92.4L94.5,90.2L95.5,88.6L96.6,86.4L97.1,85.9L97.4,86.1L97.5,87.2L98.2,88.8L99.5,90.1L100.9,90.7L102.6,90.8L103.6,90.6L104.9,89.9L106.0,88.7L106.3,87.8L106.5,86.7L106.5,85.5L106.3,84.6L105.7,83.4L104.9,82.6L103.6,81.8L102.5,81.6L101.4,81.6L100.3,81.7L99.9,82.0L99.5,81.9L99.5,81.5L99.9,81.1L100.5,79.6L101.7,77.6L101.9,77.0L102.4,76.3L104.3,72.9L104.5,72.7L105.0,71.7L106.3,69.6L108.3,65.9L108.6,65.6L109.4,64.0L109.8,63.4L110.1,62.7L111.9,59.7L111.9,59.1L111.5,58.8L109.8,57.7L109.3,57.7L108.8,58.2L105.6,63.3L105.0,63.9L104.9,64.3L103.2,66.6L100.4,71.0L97.8,74.8L97.6,75.2L97.0,75.6L96.4,75.5L93.2,73.8L92.5,73.3L90.3,72.1L88.1,70.7L87.8,70.6L85.2,69.0L83.9,68.4L83.4,67.9L82.8,67.7L82.0,67.1L81.4,66.9L78.7,65.2L76.7,64.2L73.9,62.4L73.6,62.3L70.8,60.5L70.6,60.2L70.4,59.2L70.4,35.3L70.5,30.4L70.7,29.9L71.1,29.6L71.9,29.4L73.8,29.4L74.7,29.3L76.5,29.3L78.7,29.0L80.2,29.0L83.4,28.7L85.1,28.7L86.1,28.5L91.9,28.2L92.4,28.1L92.6,27.7L92.6,25.2Z M62.1,24.6L60.1,24.7L39.7,24.5L36.2,24.6L35.7,25.0L35.7,27.4L35.8,27.7L36.2,28.0L38.1,28.2L40.2,28.2L41.9,28.5L43.4,28.5L44.9,28.7L47.2,28.7L48.2,28.9L50.7,29.0L51.5,29.1L56.3,29.4L57.3,29.5L57.9,30.0L58.0,34.4L58.0,59.9L57.9,60.2L57.4,60.7L54.8,62.3L46.5,67.1L45.5,67.8L41.7,70.0L37.7,72.5L36.4,73.1L34.7,74.2L34.2,74.4L33.3,75.0L33.0,75.1L32.5,75.5L31.9,75.8L31.5,75.8L30.5,74.6L30.3,74.2L29.6,73.3L19.3,58.0L19.0,57.6L18.6,57.6L16.6,58.6L16.3,59.0L16.3,59.3L16.5,59.9L16.8,60.1L17.0,60.8L17.6,61.6L19.4,64.9L19.6,65.1L19.8,65.6L20.3,66.3L21.6,68.8L24.0,72.6L29.0,81.6L29.0,82.0L28.5,82.0L27.9,81.6L26.8,81.5L25.6,81.6L24.7,81.8L23.4,82.6L22.5,83.7L22.0,84.6L22.0,85.1L21.9,85.5L21.9,87.0L22.2,88.1L22.9,89.3L24.0,90.2L25.2,90.7L27.3,90.8L28.9,90.2L30.3,88.7L31.0,87.4L31.1,85.7L30.6,84.1L29.8,82.9L29.8,82.5L30.1,82.3L34.8,79.4L36.3,78.7L37.3,77.9L41.3,75.7L41.8,75.3L42.9,74.7L44.7,73.5L46.0,72.9L46.3,72.6L48.9,71.3L50.3,70.3L55.1,67.7L56.9,66.4L57.6,66.1L58.1,65.7L61.1,64.0L62.3,63.0L62.5,62.7L62.5,59.7L62.4,32.7L62.5,25.2L62.4,24.8Z M61.8,16.1L61.2,16.5L60.6,17.2L60.0,18.3L59.7,19.2L59.8,21.1L60.3,22.4L61.1,23.5L62.5,24.4L63.6,24.7L65.0,24.7L65.8,24.4L66.3,24.4L66.4,24.2L67.4,23.6L68.4,22.0L68.8,20.7L68.8,19.6L68.4,18.0L67.1,16.5L66.6,16.1L65.5,15.6L64.7,15.4L63.7,15.4L62.9,15.6Z M60.4,9.2L58.4,9.4L57.2,9.6L56.2,9.6L50.1,10.9L45.5,12.4L45.0,12.7L44.1,12.9L42.2,13.7L40.2,14.8L39.6,14.9L35.0,17.6L31.0,20.4L29.4,21.7L26.6,24.2L23.6,27.3L20.1,31.9L20.0,32.2L19.2,33.1L18.6,34.3L18.2,34.6L17.8,35.6L17.4,35.9L17.3,36.3L16.9,37.1L16.5,37.7L16.5,37.9L16.1,38.3L15.0,40.9L14.7,41.4L14.7,41.7L14.3,42.3L13.7,44.1L13.5,44.4L13.3,45.1L13.0,45.6L12.4,47.5L12.4,48.1L12.1,48.4L12.0,49.5L11.6,50.2L11.5,51.4L11.3,51.6L11.2,52.6L11.1,52.8L11.0,53.8L10.7,55.1L10.6,56.3L10.4,56.7L10.0,61.7L10.0,67.7L10.3,69.0L10.3,70.3L10.5,71.2L10.5,72.1L10.8,73.5L10.9,74.6L11.5,77.5L11.9,78.3L12.0,79.1L12.2,79.5L12.3,80.3L12.6,80.8L12.8,81.7L13.0,82.1L13.1,82.8L13.6,84.1L14.4,85.7L14.5,86.5L14.9,86.9L14.9,87.4L15.3,88.0L15.8,89.2L17.8,92.9L18.8,94.2L19.0,94.7L20.0,96.1L20.2,96.5L21.5,98.0L21.9,98.7L22.7,99.5L24.4,101.8L29.4,106.5L30.4,107.2L31.1,107.9L31.6,108.2L33.7,109.8L35.6,111.0L36.8,111.5L37.6,112.1L38.4,112.4L38.7,112.7L39.2,112.9L40.2,113.6L41.5,114.0L42.6,114.7L43.5,114.9L44.9,115.6L46.5,116.0L47.3,116.5L47.7,116.5L48.0,116.6L49.4,116.9L51.1,117.5L53.3,118.0L58.5,118.9L62.2,119.1L67.9,119.1L69.2,118.9L70.2,118.9L73.4,118.5L76.2,117.8L76.7,117.8L79.4,117.1L80.7,116.6L81.2,116.5L82.1,116.1L82.7,116.0L85.2,115.1L86.6,114.4L87.0,114.3L89.2,113.1L89.9,112.8L90.2,112.6L92.0,111.6L94.9,109.8L95.1,109.5L96.1,109.0L100.2,105.7L102.9,103.0L106.1,99.5L107.3,97.8L107.9,96.9L108.6,96.0L108.6,95.8L109.0,95.4L110.0,93.7L111.0,92.4L111.1,91.8L111.5,91.2L111.7,90.5L112.1,90.1L112.3,89.5L112.6,89.2L112.7,88.7L113.8,86.6L114.1,85.5L114.6,84.7L114.8,83.7L115.2,82.9L115.4,82.0L115.9,80.9L115.9,80.6L116.9,77.3L117.9,71.6L117.9,70.4L118.1,69.9L118.1,68.7L118.2,67.9L118.3,65.1L118.1,58.6L117.7,56.7L117.5,54.5L117.3,54.0L117.2,53.0L116.8,51.9L116.6,50.5L116.3,49.9L116.2,49.3L115.7,48.1L115.7,47.6L115.4,47.1L115.4,46.8L115.2,46.4L114.8,44.8L114.5,44.5L114.4,43.9L114.1,43.5L113.6,41.8L112.9,40.6L112.7,40.5L112.7,40.0L112.3,39.4L111.7,38.1L110.9,36.9L110.8,36.5L109.7,34.8L109.4,34.2L108.7,33.4L108.6,33.1L106.9,30.6L106.3,30.1L105.8,29.3L101.1,24.2L98.8,22.1L95.1,19.2L94.7,19.1L93.7,18.2L93.4,18.2L93.0,17.8L92.6,17.6L91.6,16.9L91.2,16.7L90.8,16.4L90.2,16.1L89.7,16.0L89.5,15.7L88.8,15.4L88.3,15.0L87.8,14.9L86.6,14.1L85.8,14.0L84.5,13.2L83.9,13.1L83.3,12.8L83.0,12.8L81.5,12.0L77.1,10.7L71.8,9.7L71.1,9.7L67.9,9.2Z M62.6,9.5L67.3,9.6L72.3,10.2L77.5,11.2L80.7,12.4L81.0,12.4L81.8,12.8L83.3,13.2L83.8,13.6L85.8,14.2L86.1,14.5L86.6,14.6L86.8,14.9L87.4,15.0L87.7,15.3L88.3,15.5L88.6,15.7L89.1,15.9L89.5,16.2L90.7,16.8L91.2,17.2L92.2,17.7L92.5,18.0L93.7,18.6L94.1,19.0L94.3,19.0L95.4,19.8L99.9,23.5L103.8,27.4L107.1,31.5L108.2,33.4L109.5,35.1L110.0,36.1L110.7,37.2L111.0,37.8L111.3,38.1L111.4,38.5L111.7,38.9L113.1,41.8L113.1,42.2L114.0,43.9L114.0,44.5L114.4,45.1L115.1,47.3L115.4,47.8L115.6,48.9L115.8,49.3L115.9,50.1L116.3,51.2L116.5,52.5L116.7,52.9L117.5,57.9L117.9,63.8L117.8,67.4L117.3,72.9L117.1,73.7L116.7,76.3L116.3,77.5L116.2,78.3L115.8,79.4L115.7,80.0L115.1,81.9L115.1,82.2L114.7,83.0L114.6,83.6L114.4,84.1L114.4,84.5L114.0,84.9L113.8,85.7L112.9,87.4L112.8,87.9L112.6,88.2L112.1,89.3L111.9,89.5L111.8,90.1L111.6,90.2L111.3,90.9L110.9,91.4L110.1,93.0L108.7,94.9L108.2,96.0L107.5,96.6L106.9,97.7L103.8,101.3L101.5,103.7L99.1,105.9L95.2,109.0L94.2,109.5L93.9,109.8L93.6,109.9L92.9,110.5L91.6,111.1L90.9,111.7L86.3,114.0L81.3,116.0L78.2,116.9L76.8,117.2L76.3,117.4L70.4,118.4L65.6,118.7L60.1,118.5L54.7,117.8L53.7,117.5L51.1,117.0L47.6,116.0L46.8,115.6L45.9,115.4L41.0,113.4L40.2,112.8L39.7,112.7L39.3,112.3L38.1,111.9L37.1,111.1L36.6,111.0L36.3,110.7L35.8,110.5L34.9,109.8L34.5,109.6L33.0,108.6L32.5,108.1L31.8,107.7L27.0,103.6L23.6,100.0L19.7,94.9L17.7,91.6L16.5,89.1L16.2,88.9L16.1,88.5L15.0,86.3L14.8,85.5L14.5,85.3L14.4,84.5L14.1,84.1L13.2,81.7L13.1,80.8L12.7,80.0L12.7,79.6L12.2,78.4L12.2,77.8L11.9,77.1L11.4,74.8L11.4,74.2L11.1,73.3L10.7,69.9L10.3,63.8L10.3,62.0L10.5,61.7L10.7,57.6L10.9,57.2L11.2,54.5L11.8,52.2L12.0,50.9L12.4,49.8L12.4,49.2L12.8,48.4L12.8,47.7L13.2,47.0L13.3,46.1L13.7,45.4L13.9,44.6L14.2,44.1L14.4,43.1L15.1,41.9L15.2,41.4L15.6,40.9L16.1,39.5L16.3,39.3L17.0,37.7L17.6,36.9L17.9,36.1L18.2,35.9L18.3,35.4L18.6,35.1L19.1,34.1L19.6,33.5L20.0,32.7L21.8,30.4L22.1,30.2L22.8,29.0L25.2,26.3L29.4,22.3L31.9,20.3L32.6,19.9L33.9,18.9L35.6,17.8L36.0,17.5L37.2,16.9L38.1,16.2L43.1,13.8L43.4,13.8L45.0,13.0L45.8,12.8L48.0,12.0L51.1,11.2L51.9,10.9L52.9,10.8L53.8,10.5L57.5,9.9Z" fill="#000" fill-rule="evenodd"/>
</svg>