<svg xmlns="http://www.w3.org/2000/svg" viewBox="0 0 128 128" width="128" height="128">
  <path d="M86.8,110.1L86.6,110.2L86.6,110.8L87.1,111.2L87.6,111.1L87.8,110.8L87.8,110.1L87.3,110.0Z M92.0,109.9L91.5,110.2L91.2,110.7L91.1,111.9L91.3,112.4L91.8,112.9L92.7,113.0L93.2,112.6L93.5,112.1L93.5,111.1L93.4,110.6L92.9,110.1L92.6,109.9Z M76.5,109.9L76.0,110.3L75.9,110.7L75.8,111.9L75.9,112.4L76.5,113.0L77.2,113.1L77.5,113.0L78.1,112.3L78.2,111.2L77.9,110.5L77.4,110.0Z M50.7,109.6L49.9,110.6L49.8,111.6L50.1,112.3L50.5,112.7L50.8,112.9L51.3,112.9L51.8,112.6L52.1,112.0L52.2,110.8L51.8,110.1L51.2,109.6Z M40.6,109.6L39.9,110.1L39.5,110.9L39.7,112.0L40.1,112.6L40.5,112.9L41.1,113.0L42.0,112.2L42.1,111.2L41.7,110.1L41.2,109.7Z M81.5,11.1L79.7,10.3L77.9,9.7L74.4,9.1L67.8,9.1L63.7,9.3L52.9,9.2L50.2,9.4L47.1,10.2L44.4,11.6L43.0,12.6L40.8,14.9L40.7,15.4L40.1,16.1L39.1,18.1L38.5,19.9L38.2,22.4L38.3,35.0L38.3,35.9L37.7,36.7L35.0,38.7L31.5,41.9L29.5,44.1L25.9,48.9L23.2,53.7L21.7,57.1L21.5,57.9L20.8,59.6L20.6,60.8L20.1,61.8L19.4,65.3L18.7,70.2L18.5,74.4L18.8,99.8L18.8,117.4L18.8,118.2L19.1,118.6L30.4,118.9L47.8,118.8L54.7,118.9L66.9,118.9L78.6,119.0L98.9,118.9L107.1,118.9L109.2,118.9L109.6,118.5L109.7,112.0L109.4,103.3L109.4,86.8L109.2,81.6L109.2,73.9L109.1,73.1L109.2,72.0L109.0,69.9L108.3,65.7L107.9,64.5L107.8,63.4L106.5,59.4L106.1,58.8L105.2,56.2L104.1,54.3L104.1,53.8L103.8,53.6L103.5,52.7L102.7,51.7L102.1,50.5L100.8,48.6L100.4,48.1L98.9,46.0L96.0,42.7L93.1,39.9L90.6,37.9L89.5,37.2L88.7,36.4L88.5,35.6L88.5,30.8L88.5,22.9L88.4,21.1L87.8,18.7L86.5,16.0L85.2,14.2L83.3,12.4Z M83.7,109.0L84.1,109.5L84.1,112.3L83.9,113.2L83.4,113.8L82.6,114.1L81.7,114.1L81.0,113.9L80.4,113.2L80.2,112.6L80.3,109.4L80.5,109.1L80.9,109.1L81.2,109.4L81.4,112.6L82.0,113.1L82.4,113.1L82.9,112.6L83.0,112.3L83.0,109.5L83.4,109.1Z M88.3,109.0L88.7,109.4L89.1,109.9L89.1,110.9L88.9,111.4L88.4,112.0L86.9,112.4L86.6,112.7L86.4,113.7L86.2,113.9L86.0,113.9L85.4,113.2L85.3,109.4L85.7,108.9L86.0,108.8L87.5,108.8Z M76.6,108.8L77.4,108.8L78.2,109.1L79.0,109.9L79.3,110.7L79.3,112.0L79.0,112.9L78.2,113.8L77.2,114.1L76.4,114.0L75.8,113.8L75.1,113.1L74.7,111.9L74.7,110.9L75.0,109.9L75.8,109.1Z M44.4,108.8L45.1,108.8L46.5,110.9L46.9,110.8L47.0,110.7L47.1,109.1L47.3,108.8L47.7,108.8L47.9,109.0L48.1,109.8L48.1,112.2L48.0,113.1L47.7,113.6L46.9,113.5L46.4,112.9L45.8,112.0L45.3,111.5L45.1,112.0L45.0,113.2L44.6,113.5L44.4,113.5L44.0,113.2L43.9,109.6L44.0,109.2Z M96.0,108.8L96.7,108.8L97.2,109.3L97.4,109.7L98.4,110.9L98.6,110.8L98.7,110.6L98.6,109.5L98.8,109.0L99.1,108.8L99.6,108.8L99.8,109.5L99.8,113.2L99.5,113.7L98.7,113.7L98.1,113.0L97.8,112.2L97.2,111.7L97.0,111.7L96.9,111.9L96.8,113.1L96.4,113.7L96.0,113.7L95.8,113.5L95.6,112.7L95.6,109.3Z M91.8,108.7L92.7,108.7L93.5,108.9L94.3,109.7L94.6,110.2L94.6,112.4L94.0,113.3L93.2,113.9L92.0,114.0L91.0,113.7L90.4,113.2L89.9,112.0L89.9,110.9L90.3,109.8L90.9,109.2Z M70.9,108.6L71.6,108.6L72.5,108.8L73.1,109.5L73.1,110.1L72.9,110.2L72.6,110.2L71.5,109.6L70.8,109.7L70.3,110.2L70.1,110.8L70.1,111.6L70.3,112.2L70.8,112.8L71.5,113.0L72.0,112.8L72.7,112.2L72.9,112.2L73.2,112.5L73.0,113.1L72.3,113.8L71.6,113.9L70.6,113.9L69.9,113.5L69.3,112.9L69.0,112.1L68.9,111.2L69.2,109.9L69.9,109.0Z M63.8,108.6L64.0,108.8L64.0,109.1L63.0,110.8L62.5,113.2L62.0,113.3L61.7,113.1L61.6,112.0L61.4,111.2L60.3,109.3L60.3,108.9L60.6,108.7L61.0,108.7L61.5,109.3L61.6,109.6L62.1,110.1L62.2,110.1L62.6,109.8L63.2,108.8L63.4,108.6Z M50.8,108.6L51.9,108.8L52.9,109.5L53.3,110.3L53.4,111.3L53.3,112.2L52.9,112.9L52.2,113.6L51.5,113.9L50.7,113.9L49.8,113.6L49.1,112.9L48.7,112.0L48.8,110.6L49.1,109.7L49.9,108.9Z M41.4,108.6L42.3,109.1L42.9,109.9L43.2,110.8L43.2,112.0L42.7,113.0L42.0,113.6L41.4,113.9L40.4,113.9L39.8,113.7L39.0,113.0L38.5,111.9L38.5,110.8L38.9,109.7L39.6,108.9L40.2,108.7Z M28.9,108.8L29.4,108.6L30.9,108.6L31.8,108.8L31.8,109.5L31.4,109.6L30.1,109.6L29.7,109.9L29.7,110.2L30.0,110.6L31.4,110.7L31.6,110.8L31.6,111.2L31.1,111.5L29.9,111.6L29.5,112.1L29.6,112.5L30.0,112.7L31.6,112.9L31.9,113.2L31.9,113.4L31.6,113.7L29.4,113.8L28.9,113.6L28.5,113.2L28.5,109.3Z M54.4,108.7L54.7,108.5L55.2,108.5L55.8,108.9L56.5,111.0L56.9,110.9L57.1,110.6L57.2,109.4L57.7,108.8L58.1,108.6L58.8,108.6L59.0,108.8L59.0,112.7L59.0,113.2L58.7,113.4L58.4,113.4L58.1,113.2L57.9,111.9L57.6,112.0L57.5,112.6L57.0,113.4L56.3,113.4L55.8,113.0L55.7,112.1L55.4,111.9L55.2,112.5L55.2,113.2L54.8,113.5L54.4,113.4L54.2,113.1L54.1,112.3L54.1,109.3Z M35.2,108.4L36.4,108.5L37.1,109.2L37.3,109.5L37.2,110.0L36.7,110.1L35.8,109.5L35.0,109.5L34.5,109.9L34.3,110.3L34.3,111.9L34.5,112.3L35.1,112.7L35.8,112.8L36.7,112.1L37.2,112.1L37.4,112.3L37.4,112.6L36.8,113.3L35.8,113.8L35.0,113.8L34.1,113.3L33.3,112.5L33.2,112.0L33.2,110.5L33.3,109.9L34.0,108.9L34.5,108.6Z M71.6,96.7L71.6,102.7L71.2,103.7L71.2,103.9L70.6,105.0L69.4,106.1L68.5,106.6L67.1,107.0L66.3,107.1L57.1,107.0L56.7,106.8L56.5,105.9L56.6,104.0L57.0,103.5L66.1,103.4L67.1,103.1L67.6,102.6L68.1,101.8L68.3,96.9L68.8,96.3L70.9,96.3Z M64.0,96.2L64.9,96.2L65.3,96.3L66.2,97.1L66.5,97.6L66.4,99.1L65.8,99.9L64.9,100.3L63.8,100.3L63.0,99.8L62.5,98.9L62.4,97.9L62.7,97.1L63.4,96.5Z M58.1,96.2L58.8,96.2L59.6,96.6L60.1,97.0L60.4,97.8L60.4,98.8L60.2,99.4L59.5,100.1L59.0,100.4L57.9,100.4L57.2,100.1L56.8,99.8L56.4,98.9L56.4,97.9L56.5,97.4L57.3,96.5Z M72.9,96.8L73.0,96.5L73.8,95.8L74.3,95.7L75.3,95.0L76.5,93.8L77.4,92.0L77.6,90.8L77.8,90.1L78.4,89.8L98.8,89.7L99.1,89.8L99.5,90.1L99.6,90.5L99.7,99.1L99.4,100.7L99.0,101.9L98.2,103.4L96.8,105.0L95.0,106.3L94.5,106.4L94.2,106.7L92.8,107.1L73.8,107.1L73.4,107.0L73.1,106.7L73.1,104.0L73.6,103.5L90.4,103.5L91.7,103.3L92.2,103.1L92.7,103.0L93.5,102.6L95.1,101.0L95.6,99.7L95.6,99.3L95.9,98.6L95.9,93.9L95.6,93.6L94.5,93.4L81.0,93.5L80.6,93.9L80.2,95.0L79.1,96.4L77.7,97.9L76.2,98.9L75.0,99.4L73.7,99.8L73.4,99.8L73.0,99.4Z M28.6,90.0L29.0,89.7L29.5,89.6L51.7,89.6L54.6,89.8L55.0,90.1L55.2,91.0L55.1,92.3L54.9,92.8L54.6,93.1L44.0,93.2L43.8,93.8L43.7,100.2L43.9,101.3L43.8,102.6L43.9,103.1L44.3,103.3L54.7,103.4L55.2,103.9L55.1,106.6L54.6,107.0L52.2,107.1L46.8,107.0L42.7,107.2L37.7,107.2L28.9,107.0L28.5,106.6L28.4,105.9L28.5,104.2L28.9,103.5L39.0,103.4L40.0,103.2L40.2,101.5L40.2,93.8L40.2,93.5L39.9,93.2L39.5,93.2L29.0,93.0L28.5,92.5L28.4,92.3L28.4,90.5Z M62.5,51.6L64.3,51.6L65.7,52.3L66.5,53.3L67.1,54.6L67.1,55.9L66.5,57.4L65.6,58.4L65.1,58.7L63.8,59.2L62.3,59.1L61.5,58.7L60.1,57.4L59.6,56.2L59.6,54.4L60.5,52.9L61.4,52.1Z M100.7,64.3L100.6,64.9L100.2,65.4L99.7,65.6L99.1,65.6L97.0,63.5L95.6,61.7L92.8,58.7L92.6,58.3L92.1,57.8L91.8,57.7L91.6,58.0L91.6,73.3L91.1,73.9L90.7,74.1L88.5,74.1L88.0,74.2L87.7,74.5L87.7,86.7L87.2,87.3L86.6,87.5L85.8,87.5L85.3,86.9L85.1,84.2L85.1,75.1L85.0,74.4L84.5,74.1L83.4,74.2L83.1,74.5L83.0,74.9L83.2,80.5L83.1,86.9L82.6,87.5L81.4,87.5L80.9,87.2L80.7,86.9L80.5,85.0L80.4,74.4L80.2,74.2L77.3,74.0L76.8,73.6L76.7,73.3L76.5,57.5L76.0,57.4L72.2,61.8L69.0,66.0L69.0,73.3L68.5,73.9L67.3,74.1L67.0,74.4L67.0,86.8L66.6,87.2L66.3,87.4L65.5,87.4L65.2,87.2L64.8,86.7L64.6,81.3L64.6,74.6L64.4,74.2L63.8,74.0L62.7,74.2L62.5,74.8L62.7,82.5L62.6,86.7L62.5,86.9L61.9,87.4L61.1,87.3L60.7,86.9L60.5,86.3L60.3,74.6L60.1,74.1L59.0,74.0L58.3,73.6L58.0,70.8L58.1,67.2L57.9,66.2L55.2,62.7L50.8,57.6L50.4,57.7L50.3,58.0L50.3,73.6L49.9,74.0L47.7,74.1L47.0,74.4L47.0,86.2L46.9,86.9L46.4,87.3L45.3,87.4L44.8,87.2L44.6,86.9L44.4,84.9L44.4,75.3L44.2,74.4L43.8,74.1L42.7,74.1L42.1,74.4L42.1,86.6L42.0,87.0L41.6,87.3L40.5,87.3L40.2,87.2L39.9,86.8L39.7,86.0L39.6,74.7L39.5,74.4L39.0,74.1L36.4,74.0L35.9,73.5L35.7,63.6L35.8,60.2L35.6,57.8L35.4,57.6L35.1,57.6L28.7,64.9L28.3,65.2L27.9,65.3L27.6,65.2L27.0,64.5L27.0,64.0L27.6,63.1L32.7,57.1L33.3,56.2L34.2,55.4L35.2,54.0L38.2,50.7L39.1,49.9L40.8,49.1L42.9,48.7L45.5,49.2L47.7,50.6L52.2,55.7L57.7,62.3L58.4,62.7L58.8,62.6L60.0,61.3L60.6,60.9L62.6,60.1L64.8,60.2L66.7,61.2L68.3,62.7L68.9,62.6L76.4,53.7L77.0,52.9L77.8,52.1L78.3,51.3L79.3,50.3L80.7,49.4L82.1,48.8L83.1,48.6L84.9,48.6L85.8,48.8L87.3,49.4L88.2,49.9L89.4,51.0L90.8,52.4Z M42.3,38.6L43.8,38.6L45.2,39.1L46.7,40.7L47.3,42.4L47.1,44.3L46.4,45.8L45.2,46.9L43.6,47.5L42.0,47.4L41.3,47.2L40.1,46.4L39.5,45.9L39.1,45.2L38.6,43.5L38.6,42.4L39.0,41.1L39.5,40.4L40.3,39.4L41.1,38.9Z M83.6,38.5L85.3,38.6L86.7,39.3L87.9,40.7L88.5,42.1L88.5,43.5L88.3,44.2L87.4,46.0L86.6,46.8L86.0,47.1L84.3,47.5L83.0,47.4L81.3,46.6L80.3,45.5L79.8,44.6L79.6,43.6L79.7,41.7L80.6,40.1L81.7,39.2L82.4,38.8Z M42.7,20.9L43.4,18.8L44.7,16.9L45.9,15.7L47.5,14.7L48.5,14.1L49.4,14.0L49.9,13.7L52.6,13.5L71.4,13.4L75.3,13.5L76.8,13.7L78.3,14.2L79.7,14.9L80.7,15.7L82.2,17.3L83.0,18.5L83.6,19.8L84.2,22.3L84.3,33.1L83.9,33.5L83.5,33.5L81.6,32.5L79.6,31.8L79.2,31.6L77.1,31.0L76.4,30.6L75.4,30.4L73.4,29.8L72.8,29.8L70.8,29.2L65.4,28.6L61.0,28.6L57.3,29.0L52.4,29.9L48.9,31.0L48.2,31.3L47.7,31.4L47.1,31.7L45.1,32.4L43.7,33.1L43.0,33.2L42.7,33.0L42.5,30.7L42.4,22.4Z" fill="#000" fill-rule="evenodd"/>
</svg>