<svg xmlns="http://www.w3.org/2000/svg" viewBox="0 0 128 128" width="128" height="128">
  <path d="M14.6,107.1L14.1,107.6L13.9,108.0L13.9,108.8L14.2,109.2L14.2,109.5L13.9,110.2L13.9,111.4L14.6,112.1L15.7,112.1L16.0,112.1L16.5,111.6L16.6,111.1L16.6,110.3L16.3,109.5L16.5,108.8L16.5,107.8L16.5,107.6L16.0,107.1Z M14.6,109.9L15.0,109.7L15.6,109.7L16.2,110.3L16.2,111.0L15.7,111.7L14.9,111.7L14.4,111.4L14.2,111.0L14.2,110.4Z M15.0,107.4L15.8,107.4L16.1,107.7L16.1,108.5L15.7,109.2L15.0,109.2L14.6,109.0L14.3,108.7L14.4,107.9Z M10.9,106.9L10.7,107.0L10.2,107.6L10.0,110.2L10.2,111.4L10.5,111.7L10.6,111.7L10.9,112.0L12.1,112.0L12.8,111.4L12.9,110.7L12.8,109.6L12.2,108.9L10.6,108.8L10.5,108.7L10.5,108.0L11.1,107.3L12.1,107.3L12.4,107.7L12.5,108.0L12.8,107.9L12.8,107.6L12.2,106.9Z M11.3,109.2L11.7,109.2L12.4,109.8L12.4,111.0L11.8,111.6L11.0,111.6L10.6,111.1L10.4,110.6L10.6,109.8L10.9,109.4Z M40.7,79.4L40.2,80.0L40.1,80.6L40.1,84.1L40.3,85.6L40.8,86.0L42.5,86.2L58.8,86.2L59.6,86.3L59.9,86.7L60.2,87.5L60.3,93.7L60.3,115.8L60.3,118.3L60.6,118.7L61.0,119.1L66.2,119.1L66.7,119.0L67.1,118.4L67.1,102.1L67.3,100.2L67.6,99.7L68.8,99.4L85.5,99.4L86.5,99.3L87.2,98.8L87.3,96.6L87.3,93.7L87.2,92.9L86.6,92.6L68.2,92.6L67.9,92.5L67.4,92.1L67.3,91.5L67.3,87.0L67.4,86.7L67.9,86.3L73.1,86.1L85.7,86.1L86.9,85.9L87.2,85.6L87.4,84.5L87.4,80.2L87.2,79.7L86.9,79.3L67.7,79.3L63.4,79.2L60.3,79.3Z M63.1,69.2L62.3,69.3L61.4,69.7L60.3,70.7L59.5,71.9L59.2,73.0L59.1,74.2L59.4,75.3L59.8,76.1L61.1,77.5L62.1,78.1L63.8,78.3L64.7,78.2L65.5,77.8L66.3,77.4L67.2,76.5L67.7,75.8L68.0,74.8L68.1,73.4L67.6,71.7L67.3,71.2L66.5,70.3L65.1,69.4L64.0,69.2Z M10.8,49.4L10.5,49.8L10.4,50.4L10.4,55.0L10.6,55.5L11.0,55.8L16.6,56.0L27.9,56.0L29.4,56.1L30.0,56.4L30.1,57.0L30.3,62.4L30.4,87.2L30.5,88.5L30.6,89.0L31.4,89.2L35.5,89.3L36.5,89.2L36.8,89.0L37.1,88.7L37.1,70.8L37.5,69.9L38.6,69.7L55.1,69.6L56.2,69.5L56.5,69.3L56.8,69.0L56.9,63.4L56.6,62.8L55.4,62.7L48.1,62.7L43.7,62.7L42.5,62.5L41.7,62.5L41.0,62.7L38.2,62.6L37.6,62.4L37.3,62.1L37.1,61.5L37.1,57.1L37.2,56.7L37.7,56.2L38.9,56.1L55.0,56.1L56.5,55.9L56.8,55.7L57.0,54.8L57.0,50.6L57.0,49.9L56.5,49.3L17.5,49.1L11.1,49.2Z M70.8,49.2L70.6,49.6L70.5,50.1L70.5,54.2L70.6,55.2L70.8,55.5L71.1,55.7L89.1,55.7L90.0,55.8L90.4,56.0L90.7,56.3L90.9,56.8L90.9,73.7L90.8,78.1L90.8,88.0L91.2,88.8L91.8,88.9L95.9,89.0L96.8,88.9L97.4,88.5L97.5,86.4L97.5,81.6L97.7,77.1L97.6,76.3L97.8,73.8L97.7,71.6L97.9,69.6L98.2,69.3L98.8,69.0L117.0,69.0L117.4,68.9L117.8,68.2L117.8,63.0L117.4,62.4L116.9,62.3L115.5,62.2L104.5,62.2L98.6,62.0L98.0,61.6L97.9,61.2L97.8,60.3L97.9,56.6L98.0,56.3L98.5,55.9L114.1,55.9L116.8,55.8L117.5,55.6L117.8,54.6L117.8,50.4L117.6,49.4L117.2,49.1L116.3,49.0L110.2,49.0L106.3,48.8L101.6,48.8L101.0,49.1L100.7,49.1L100.4,48.8L99.8,48.7L94.3,48.7L88.9,48.8L87.9,48.7L71.7,49.0Z M32.5,39.2L31.3,39.8L30.8,40.2L29.9,41.1L29.4,42.1L29.2,42.8L29.3,44.6L29.9,46.1L31.2,47.4L32.8,48.0L34.5,48.0L35.7,47.5L37.1,46.1L37.8,44.6L37.8,42.9L37.5,41.8L37.1,41.1L35.9,39.9L34.5,39.2Z M93.5,38.5L92.7,38.8L91.7,39.3L91.0,39.9L90.5,40.6L90.1,41.4L89.8,42.5L89.8,43.3L90.0,44.1L90.5,45.2L91.6,46.5L92.2,46.9L93.4,47.4L94.9,47.4L96.5,46.9L97.1,46.5L97.9,45.5L98.6,43.9L98.7,42.4L98.3,41.0L97.9,40.2L96.8,39.2L95.7,38.7L94.9,38.5Z M87.0,19.2L84.7,19.1L73.2,19.2L58.7,19.2L58.0,19.4L44.3,19.4L41.4,19.5L40.8,19.9L40.6,21.0L40.6,25.2L40.7,25.8L41.1,26.2L56.0,26.3L59.0,26.2L59.6,26.3L60.0,26.7L60.2,27.1L60.2,58.3L60.3,59.0L60.7,59.3L61.3,59.4L66.1,59.4L66.6,59.3L67.2,58.7L67.2,49.7L67.3,41.8L67.3,41.2L67.3,40.2L67.7,39.6L68.1,39.5L70.9,39.3L71.7,39.4L76.2,39.2L77.2,39.3L87.0,39.1L87.6,38.8L87.7,38.4L87.7,33.6L87.6,32.9L87.1,32.5L86.5,32.3L80.8,32.3L75.3,32.5L68.0,32.4L67.6,32.1L67.3,31.3L67.4,27.2L67.6,26.8L67.9,26.4L68.8,26.2L81.3,26.1L87.2,25.9L87.6,25.4L87.8,24.7L87.8,20.3L87.7,19.8Z M63.3,9.1L62.2,9.5L61.2,10.0L60.3,11.0L59.7,12.2L59.6,13.0L59.6,14.4L60.0,15.8L61.4,17.3L62.9,18.0L64.4,18.1L65.9,17.6L66.7,17.0L67.6,16.2L68.0,15.5L68.4,14.2L68.4,12.6L67.7,11.0L66.7,10.0L65.8,9.5L64.9,9.2Z" fill="#000" fill-rule="evenodd"/>
</svg>