<svg xmlns="http://www.w3.org/2000/svg" viewBox="0 0 128 128" width="128" height="128">
  <path d="M60.6,71.3L59.2,70.8L57.7,70.8L56.6,71.1L55.6,71.8L54.6,72.8L54.0,74.0L53.8,74.6L53.8,76.5L54.0,77.5L53.5,77.7L52.7,77.4L49.2,74.8L47.5,74.2L45.5,74.2L41.4,75.6L40.8,75.7L38.5,76.6L36.5,77.0L35.6,77.5L29.2,79.4L29.1,79.6L28.0,79.9L27.6,80.3L26.7,80.2L26.0,80.5L25.1,80.7L24.0,81.3L24.0,81.7L24.2,82.0L25.6,83.6L26.3,84.2L28.1,85.0L28.9,85.2L31.4,85.1L33.1,84.5L33.5,84.3L34.5,84.1L36.6,83.4L39.0,82.8L41.2,82.1L41.4,82.2L41.3,82.9L39.4,85.3L38.4,86.9L36.6,89.3L36.0,89.9L34.4,92.3L33.7,93.1L26.2,103.4L25.6,104.4L25.3,105.2L25.3,106.1L25.4,107.2L25.9,108.2L26.5,108.9L27.5,109.6L28.3,109.9L30.3,109.9L31.6,109.3L32.2,108.7L36.4,102.9L37.3,101.8L37.7,101.0L38.9,99.7L39.7,99.3L40.3,99.3L40.7,99.5L41.2,100.0L41.6,100.6L41.6,101.4L41.3,101.9L39.0,105.2L37.8,106.5L37.3,107.3L35.4,109.7L34.7,110.8L34.2,112.3L34.2,113.3L34.7,114.7L35.3,115.7L36.4,116.5L38.0,117.0L38.7,117.0L40.0,116.5L41.1,115.6L44.1,111.7L44.3,111.2L46.4,108.6L47.2,107.3L50.1,103.6L50.5,102.9L51.0,102.2L52.1,100.6L52.6,100.1L53.4,98.8L55.0,96.8L55.7,95.7L56.8,94.5L57.0,94.5L57.3,94.8L57.4,95.7L57.4,104.6L57.5,105.7L57.8,106.6L58.3,107.7L59.0,108.6L60.4,109.9L62.3,110.8L63.0,110.8L63.4,110.4L63.4,92.9L63.2,89.9L63.3,88.5L63.1,86.9L62.9,86.0L62.0,84.6L60.1,82.9L59.5,82.6L57.7,80.9L57.7,80.8L58.0,80.5L59.5,80.4L61.1,79.7L61.8,79.1L62.4,78.3L62.9,77.2L63.2,76.2L63.2,74.9L62.9,73.8L62.4,72.8L61.2,71.6Z M67.8,71.3L66.5,72.4L65.7,73.9L65.5,74.9L65.5,75.9L65.7,77.0L66.2,78.1L67.2,79.2L68.6,80.1L69.8,80.5L70.3,80.5L70.7,80.8L70.7,81.0L70.1,81.7L66.5,84.3L65.5,85.9L65.1,87.3L65.1,110.6L65.3,110.8L66.2,110.8L67.3,110.3L68.3,109.6L69.5,108.4L70.5,106.8L71.0,104.9L71.0,99.7L71.1,94.6L71.3,94.3L71.6,94.2L72.8,95.7L73.6,97.1L74.3,97.9L74.9,99.0L76.3,100.8L76.9,101.8L77.3,102.2L80.3,106.6L80.7,107.0L81.0,107.7L81.9,108.7L83.8,111.6L84.5,112.4L84.7,112.8L86.8,115.5L87.3,116.3L88.1,117.1L89.7,117.6L90.8,117.6L92.0,117.2L92.6,116.8L93.3,116.2L93.8,115.2L94.1,113.9L93.9,112.4L93.0,110.8L92.6,110.4L91.6,108.8L90.8,107.9L88.0,103.8L87.6,103.4L86.8,102.0L86.8,101.0L87.5,100.1L88.0,100.0L88.9,100.0L89.2,100.1L90.0,101.0L95.8,109.4L96.8,110.5L97.3,110.8L98.7,111.3L100.1,111.3L101.4,110.8L102.4,109.9L102.9,109.1L103.1,108.0L103.1,107.0L102.8,105.7L101.8,104.2L101.6,103.7L100.4,102.2L99.7,101.0L98.7,99.9L97.1,97.7L97.0,97.3L96.4,96.7L92.9,91.6L92.5,91.1L91.6,89.7L90.8,88.7L90.8,88.6L87.3,83.6L87.3,83.2L87.5,83.0L88.0,83.0L88.5,83.3L89.0,83.4L91.1,84.2L92.6,84.6L93.7,85.1L94.7,85.3L96.9,86.2L98.4,86.5L99.8,86.5L101.6,86.0L102.8,85.3L104.0,84.3L104.7,83.1L104.6,82.7L104.4,82.5L103.4,82.1L102.7,81.9L101.2,81.3L99.5,80.8L98.7,80.4L97.5,80.0L95.0,79.1L92.9,78.4L92.4,78.1L91.8,78.0L88.6,76.8L87.7,76.6L85.9,75.9L82.4,74.9L81.3,74.8L79.7,75.1L78.5,75.8L75.1,78.0L74.6,77.9L74.6,77.4L74.8,77.1L74.9,76.2L74.9,75.3L74.7,74.2L73.9,72.7L73.1,71.9L71.9,71.1L70.9,70.8L69.1,70.8Z M89.9,33.8L89.1,34.6L84.3,41.4L83.7,42.1L82.6,43.8L81.2,45.7L80.6,46.7L77.3,51.2L76.6,52.4L76.0,54.0L76.0,55.9L77.2,59.6L77.4,60.7L77.1,60.9L76.9,60.9L76.2,60.4L75.3,60.0L74.1,59.8L73.2,59.8L72.3,59.9L71.2,60.4L70.0,61.5L69.3,62.5L68.9,64.5L69.1,65.9L69.8,67.3L71.1,68.5L72.6,69.3L74.4,69.3L75.8,68.9L76.8,68.2L77.6,67.4L78.3,65.9L78.7,65.6L78.9,65.6L79.3,66.1L80.5,70.2L81.0,71.1L82.2,72.5L83.3,73.2L90.2,75.6L90.7,75.7L94.1,76.9L95.2,77.1L95.6,77.4L99.3,78.5L100.2,78.9L101.6,79.2L102.4,79.6L104.4,80.3L105.2,80.5L105.5,80.1L105.6,79.1L105.1,76.9L104.2,75.3L102.9,74.0L101.0,72.9L99.5,72.5L98.9,72.2L97.2,71.7L96.4,71.3L92.0,69.8L91.6,69.4L91.6,69.2L92.0,68.9L93.3,68.6L98.7,66.8L99.6,66.7L108.4,63.8L110.1,63.4L111.3,62.9L112.0,62.9L115.1,61.8L115.6,61.7L116.7,61.3L117.8,60.7L118.8,59.3L119.1,57.3L118.7,56.0L118.0,54.8L116.9,54.0L115.9,53.6L114.4,53.5L113.6,53.7L110.4,54.8L109.8,54.9L107.5,55.7L103.5,56.9L103.1,56.9L102.4,56.5L102.2,56.3L101.8,55.6L102.0,54.5L102.6,54.0L103.1,53.6L110.4,51.4L112.3,50.9L114.1,50.0L115.0,49.0L115.5,47.7L115.5,45.5L114.6,44.0L113.4,43.0L112.3,42.7L110.8,42.7L102.3,45.5L101.5,45.7L99.7,46.4L99.0,46.5L96.3,47.5L94.6,47.9L93.1,48.5L92.0,48.7L91.1,49.1L89.9,49.3L87.7,50.1L87.1,50.1L86.6,50.4L85.8,50.5L85.6,50.3L85.6,50.0L87.0,48.1L88.2,46.2L88.9,45.4L91.2,42.1L91.7,41.2L92.1,40.0L92.3,37.9L91.8,35.9L91.4,35.1L90.3,33.8Z M38.6,32.7L38.2,32.7L37.8,33.1L37.3,33.9L36.9,34.9L36.4,36.4L36.5,38.6L37.3,40.6L43.1,49.0L43.2,49.5L42.8,49.7L41.8,49.5L39.1,48.4L37.8,48.1L37.4,47.9L34.2,46.8L33.8,46.6L33.0,46.4L31.3,45.7L30.3,45.4L27.2,44.2L26.5,44.1L25.9,43.7L22.5,42.7L20.4,41.8L17.2,40.7L15.9,40.7L14.8,41.1L14.1,41.6L13.4,42.2L12.9,43.0L12.7,44.1L12.8,45.7L13.4,47.0L14.2,47.8L15.3,48.5L16.4,48.8L17.8,49.4L18.6,49.6L20.3,50.3L20.9,50.4L21.8,50.8L25.4,52.0L26.1,52.3L26.4,52.7L26.7,53.4L26.7,54.0L26.5,54.5L26.1,55.0L25.3,55.3L24.8,55.3L23.1,54.8L20.5,53.8L18.5,53.2L17.7,52.8L15.1,51.8L13.8,51.4L12.1,51.4L11.2,51.8L10.4,52.4L9.9,52.9L9.3,54.0L9.1,54.7L9.1,55.7L9.5,56.9L9.9,57.8L11.2,58.9L12.1,59.3L13.0,59.5L13.6,59.9L14.6,60.1L15.5,60.5L18.3,61.4L22.1,62.9L24.7,63.7L25.1,63.9L25.9,64.1L26.2,64.3L26.7,64.4L28.9,65.3L29.5,65.4L32.6,66.6L33.5,66.8L36.3,67.9L36.7,68.2L36.7,68.4L36.3,68.8L33.7,69.5L31.8,70.2L30.9,70.4L30.0,70.8L27.1,71.6L25.8,72.3L24.2,73.8L23.3,75.4L22.9,77.1L22.9,78.4L23.0,78.7L23.2,79.0L24.4,78.8L27.0,77.9L29.0,77.5L30.0,77.0L32.0,76.6L33.0,76.2L33.7,76.1L34.3,75.8L36.8,75.1L37.2,74.9L38.0,74.7L41.5,73.5L42.1,73.4L42.8,73.1L44.8,72.5L45.9,71.9L47.3,70.6L48.0,69.6L48.4,68.3L48.6,67.4L48.8,67.1L49.3,65.6L49.3,65.3L49.7,64.9L49.9,64.9L50.2,65.1L50.7,66.4L51.7,67.6L52.8,68.5L53.8,68.9L54.4,68.9L56.1,68.9L57.4,68.4L58.3,67.6L59.1,66.5L59.5,65.8L59.6,65.1L59.6,63.4L59.4,62.6L58.4,61.1L57.4,60.1L56.5,59.7L55.7,59.5L53.6,59.5L52.9,59.7L51.7,60.4L51.4,60.4L51.2,60.1L51.3,59.4L52.2,56.9L52.2,56.5L52.6,55.7L52.7,54.7L52.7,53.5L52.2,51.8L50.7,49.3L49.6,48.0L47.4,44.7L46.0,43.0L44.6,40.7L43.6,39.6L42.4,37.8L40.2,34.8L39.4,33.6Z M58.3,10.6L56.9,11.2L55.7,12.3L54.9,13.9L54.8,14.4L54.8,36.6L54.7,41.1L54.4,41.3L54.3,41.3L53.8,40.8L52.7,39.3L52.2,38.7L48.2,33.0L46.6,31.6L46.3,31.5L45.7,31.1L45.4,31.1L44.6,30.7L43.7,30.5L42.6,30.5L41.1,30.8L40.2,31.3L40.2,31.7L40.7,32.6L44.1,37.3L45.0,38.8L46.3,40.3L47.2,41.9L48.4,43.3L49.1,44.5L52.5,49.2L54.1,51.0L55.2,51.8L56.1,52.2L57.4,52.4L61.2,52.5L61.6,52.6L61.9,52.8L61.9,53.1L60.8,54.0L60.3,54.8L59.8,55.7L59.5,57.1L59.8,59.0L60.5,60.4L61.2,61.2L61.7,61.5L63.4,62.2L65.1,62.3L65.7,62.1L66.8,61.6L68.1,60.4L68.7,59.3L68.9,58.2L68.9,56.9L68.7,55.8L68.0,54.4L66.9,53.5L66.8,53.1L66.8,52.8L67.1,52.7L72.4,52.7L73.5,52.3L74.9,51.4L76.0,50.2L77.2,48.4L77.7,47.9L81.9,41.7L83.4,39.8L84.1,38.6L84.9,37.7L85.7,36.4L88.1,33.0L88.3,32.6L87.8,32.1L85.9,31.6L84.0,31.7L82.2,32.4L80.8,33.4L80.0,34.3L79.6,35.0L78.7,36.1L77.5,37.8L76.8,38.6L74.9,41.2L74.3,41.9L74.0,41.9L73.7,41.6L73.7,14.7L73.5,13.8L73.0,12.9L71.8,11.7L70.2,10.9L68.8,11.1L67.8,11.5L66.7,12.8L66.2,13.8L65.9,14.6L65.9,26.3L65.6,26.9L65.1,27.4L64.7,27.5L63.8,27.5L63.5,27.5L62.9,27.0L62.6,25.9L62.7,15.0L62.5,13.8L62.0,12.8L61.2,11.9L60.2,11.2L59.0,10.7Z" fill="#000" fill-rule="evenodd"/>
</svg>