<svg xmlns="http://www.w3.org/2000/svg" viewBox="0 0 128 128" width="128" height="128">
  <path d="M63.3,109.0L61.8,109.9L61.1,110.6L60.4,111.8L60.0,113.6L60.0,114.3L60.2,115.5L60.6,116.4L61.5,117.5L62.4,118.3L63.3,118.8L64.2,119.0L65.2,119.1L66.6,119.0L67.4,118.7L68.7,117.8L69.3,117.2L70.3,115.6L70.4,113.5L70.4,112.6L69.6,110.9L68.3,109.5L67.9,109.4L67.2,109.0L66.1,108.6L64.7,108.6Z M39.8,102.2L38.9,102.4L37.8,102.9L36.3,104.2L35.8,104.8L35.3,105.9L35.2,106.7L35.2,107.9L35.3,108.8L35.7,109.8L36.6,111.0L37.7,111.9L38.8,112.5L39.8,112.7L41.4,112.6L42.7,112.3L44.1,111.4L44.8,110.6L45.3,109.7L45.7,108.6L45.7,107.1L45.4,105.9L44.9,104.7L44.6,104.3L43.5,103.1L42.0,102.3L41.3,102.2Z M89.0,101.6L86.9,102.1L86.3,102.4L85.5,103.1L84.7,104.3L84.3,105.2L84.0,107.1L84.2,108.2L84.6,109.4L85.4,110.5L86.6,111.5L87.8,112.0L88.4,112.2L90.1,112.2L90.9,112.0L92.0,111.4L93.5,110.2L94.3,108.5L94.5,107.0L94.3,105.7L93.9,104.7L93.0,103.4L92.3,102.7L91.5,102.3L91.1,102.2L90.6,101.8Z M21.8,84.1L19.9,84.9L19.0,85.5L18.2,86.5L17.6,87.7L17.4,88.3L17.4,90.1L17.5,90.9L17.9,91.7L18.6,92.8L19.4,93.7L21.2,94.6L23.0,94.7L24.0,94.6L25.0,94.2L25.8,93.7L26.8,92.7L27.3,92.0L27.7,90.4L27.7,88.8L27.5,87.5L27.2,86.8L25.9,85.5L24.5,84.6L22.9,84.1Z M105.6,83.5L104.0,84.0L103.1,84.7L102.0,85.9L101.3,87.6L101.3,89.5L101.5,90.6L101.9,91.4L103.4,93.0L104.6,93.7L105.3,93.9L107.2,94.0L107.9,93.9L109.4,93.2L110.6,92.0L111.2,91.1L111.5,90.3L111.6,88.0L111.4,87.2L111.0,86.3L110.2,85.2L109.5,84.6L108.0,83.8L107.0,83.5Z M15.0,58.6L13.5,59.1L12.7,59.6L11.3,61.1L10.7,62.2L10.6,62.9L10.6,65.1L11.4,66.8L13.0,68.3L13.7,68.7L14.6,69.0L16.5,69.1L18.1,68.6L19.2,67.9L20.0,67.1L20.3,66.6L20.9,64.8L20.9,62.9L20.2,61.2L18.7,59.6L18.2,59.4L17.9,59.2L16.7,58.8Z M111.6,58.5L109.6,59.4L108.1,61.1L107.5,62.5L107.4,64.5L108.2,66.4L109.7,68.0L111.3,68.8L113.4,68.9L115.1,68.4L115.9,67.8L116.8,66.9L117.7,65.2L117.8,62.8L116.9,60.7L115.5,59.3L114.4,58.8L113.8,58.6Z M105.5,33.7L103.9,34.3L102.4,35.4L101.8,36.3L101.3,37.4L101.1,38.3L101.1,39.5L101.4,40.6L102.0,42.0L102.8,42.8L103.6,43.3L104.7,43.9L105.5,44.1L107.0,44.1L108.5,43.7L109.4,43.1L110.2,42.3L111.0,41.2L111.2,40.5L111.2,37.9L111.0,37.2L110.6,36.3L110.1,35.6L109.0,34.5L108.5,34.2L107.0,33.7Z M20.7,33.9L19.8,34.3L18.3,35.7L17.6,36.7L17.4,37.3L17.3,38.2L17.4,40.1L18.1,41.7L18.5,42.3L19.4,43.1L20.6,43.7L21.4,44.0L23.7,44.0L25.4,43.1L26.6,42.0L27.0,41.3L27.4,39.6L27.4,38.0L27.0,36.8L26.4,36.0L26.2,35.6L25.3,34.6L24.9,34.4L23.0,33.7L21.4,33.7Z M63.8,21.5L63.3,21.7L62.8,22.1L61.9,25.3L60.1,27.9L59.1,28.9L57.8,29.7L56.6,30.3L55.6,30.6L54.1,30.9L52.0,30.9L51.2,30.7L50.4,30.4L49.8,30.3L47.4,28.9L45.1,26.7L44.4,26.7L43.3,27.3L42.6,27.8L42.5,28.2L42.5,28.9L42.9,29.7L43.2,31.3L43.2,34.1L42.3,36.9L41.4,38.4L40.6,39.3L39.2,40.6L38.1,41.3L35.7,42.2L34.1,42.5L31.8,42.3L29.9,41.7L29.3,41.7L28.6,42.2L28.1,43.3L28.1,44.1L29.6,45.7L30.4,46.7L31.3,48.4L32.0,50.4L32.1,53.2L31.6,55.7L31.2,56.8L30.9,57.0L30.2,58.4L28.5,60.2L25.7,61.8L24.5,62.2L23.7,62.3L23.1,62.8L22.9,63.3L22.9,65.2L23.4,65.8L24.5,66.0L26.6,66.8L28.5,68.0L30.0,69.6L30.7,70.5L31.9,73.2L32.2,75.9L31.9,78.6L31.3,80.1L30.1,82.2L28.3,84.3L28.4,84.8L29.1,86.3L29.7,86.8L30.3,86.9L32.2,86.3L32.9,86.3L33.3,86.2L35.2,86.3L36.7,86.7L37.1,86.7L39.2,87.7L40.9,89.2L41.7,90.1L42.9,92.3L43.3,93.5L43.5,95.2L43.5,96.1L43.3,98.0L42.9,99.1L42.9,100.1L43.2,100.5L44.8,101.5L45.3,101.5L46.0,101.3L47.7,99.5L48.7,98.7L50.8,97.7L53.3,97.1L54.3,97.1L56.5,97.5L58.7,98.5L59.5,99.1L61.4,101.1L62.2,102.5L62.3,102.9L62.8,103.8L63.2,105.7L63.6,106.3L64.3,106.5L65.7,106.5L66.5,106.3L66.8,106.1L67.8,103.0L68.9,101.1L69.6,100.3L70.7,99.3L72.2,98.3L74.4,97.5L76.5,97.3L78.5,97.5L79.9,98.0L80.9,98.7L81.4,98.8L82.5,99.7L83.2,100.7L83.8,101.1L84.6,101.1L85.8,100.6L86.6,99.9L86.7,99.1L86.1,97.1L85.9,95.3L86.3,93.1L86.7,91.9L87.3,90.6L88.5,88.8L89.6,87.8L91.6,86.5L92.9,85.9L94.4,85.7L95.6,85.7L97.4,85.9L98.7,86.3L99.4,86.3L100.0,85.8L100.7,84.5L100.7,83.6L100.5,83.3L98.3,80.9L97.5,79.1L96.8,76.8L96.8,74.6L97.1,72.9L97.7,71.2L98.3,70.0L99.9,68.2L100.7,67.6L102.3,66.5L103.5,66.0L105.2,65.6L105.5,65.3L105.9,64.1L105.9,63.2L105.6,62.5L105.3,62.2L102.5,61.4L100.2,59.9L99.1,58.8L97.9,57.2L97.0,54.4L96.8,53.5L96.8,51.0L97.1,49.3L98.3,47.1L99.3,45.7L100.5,44.3L100.5,43.4L99.5,41.8L99.2,41.7L98.5,41.7L96.8,42.2L95.9,42.4L94.4,42.4L91.9,41.8L89.5,40.5L87.7,38.8L86.7,37.0L85.9,34.9L85.6,33.0L85.6,31.9L85.9,30.2L86.3,29.3L86.3,28.3L85.8,27.7L84.4,26.9L83.8,27.0L81.6,29.1L80.7,29.7L78.1,30.9L76.9,31.1L75.2,31.1L73.3,30.8L70.9,29.7L69.8,28.9L68.2,27.3L67.2,25.7L66.4,23.4L66.2,22.2L65.8,21.8L65.0,21.5Z M67.2,30.6L67.6,30.9L69.9,32.5L71.2,33.1L71.6,33.4L74.0,34.0L77.1,34.1L78.3,33.9L78.7,34.2L78.7,34.8L78.2,36.1L78.0,36.3L77.4,37.6L74.8,42.0L74.5,42.8L73.7,43.9L72.9,45.6L72.8,46.1L73.2,46.6L74.0,47.3L74.8,47.6L75.4,47.6L76.0,47.2L78.6,42.7L79.7,40.5L79.9,40.3L80.1,39.8L80.8,38.8L81.0,38.3L81.7,37.3L82.3,36.9L82.7,36.9L83.0,37.3L83.7,38.9L84.3,40.0L85.5,41.3L85.5,41.5L86.5,42.5L88.3,43.7L89.8,44.5L90.6,44.8L91.1,45.2L91.1,45.8L90.5,46.4L89.1,47.1L87.9,48.1L87.5,48.1L86.1,49.1L85.8,49.4L84.7,49.9L83.5,50.7L82.9,50.9L81.5,51.8L80.4,52.7L80.3,53.2L81.0,54.5L81.5,55.1L81.8,55.2L82.4,55.2L84.3,54.2L85.1,53.6L87.8,52.2L88.2,51.8L89.1,51.4L89.8,50.8L90.4,50.6L91.9,49.7L92.6,49.3L93.1,49.3L93.4,49.6L93.3,53.7L93.5,55.3L94.2,57.2L94.7,58.4L96.8,61.3L96.8,61.7L96.5,62.0L95.5,62.2L90.9,62.1L84.3,62.3L84.0,62.4L83.5,62.8L83.4,63.5L83.4,64.6L83.8,65.3L84.6,65.6L95.5,65.6L96.4,65.9L96.7,66.2L96.7,66.5L95.3,68.3L95.1,68.8L94.5,69.8L93.7,71.9L93.5,72.9L93.3,74.5L93.6,78.1L93.1,78.5L92.4,78.3L91.2,77.7L90.3,77.1L88.1,76.0L87.6,75.6L86.0,74.8L85.5,74.3L85.1,74.2L82.7,72.7L81.5,72.7L80.6,74.0L80.3,74.5L80.3,74.9L80.5,75.3L80.9,75.7L82.7,76.7L84.6,78.0L85.3,78.3L86.7,79.1L87.1,79.3L88.3,80.2L90.3,81.3L91.0,81.8L91.5,82.3L91.4,82.7L91.1,83.1L88.7,84.0L86.9,85.2L85.2,86.9L83.9,88.7L83.5,90.0L82.7,90.9L82.3,90.9L81.6,90.1L81.1,89.1L80.2,87.7L79.0,85.4L78.1,84.1L76.8,81.6L76.4,80.9L75.8,80.3L75.2,80.3L74.4,80.6L73.6,81.1L73.1,81.6L73.1,82.3L76.6,88.7L77.3,89.8L78.0,91.3L78.3,91.8L78.8,92.7L78.9,93.7L78.7,93.9L74.1,93.9L72.7,94.2L70.8,94.9L69.2,95.8L67.8,96.8L67.3,96.9L67.0,96.6L66.8,96.0L66.8,93.1L66.7,91.2L66.7,84.3L66.4,83.8L65.8,83.5L64.2,83.5L63.5,83.8L63.2,84.4L63.2,96.7L62.8,97.3L62.4,97.4L59.4,95.3L57.0,94.3L56.0,94.3L55.2,94.0L52.7,94.0L52.0,94.2L50.9,94.2L50.7,93.9L50.6,93.4L51.3,91.8L51.6,91.5L51.8,90.9L53.1,88.8L53.5,87.9L56.4,82.6L56.4,82.0L56.2,81.7L55.2,80.9L54.0,80.4L53.6,80.5L53.1,81.0L48.5,89.4L47.5,90.9L46.9,91.5L46.5,91.5L46.2,91.3L44.9,88.7L43.1,86.4L42.5,86.0L41.0,84.7L38.1,83.3L38.0,83.1L38.0,82.7L38.8,81.9L39.2,81.7L40.7,80.6L43.3,79.1L43.7,78.7L44.1,78.7L46.4,77.1L47.0,76.8L48.4,76.0L48.9,75.4L48.8,74.5L48.4,73.7L47.7,72.9L46.9,72.8L46.5,73.0L44.5,74.2L44.2,74.3L42.4,75.6L40.6,76.5L38.9,77.7L36.1,79.1L35.5,79.0L35.5,74.6L34.9,71.8L34.6,70.9L34.0,69.9L33.7,69.2L32.2,67.2L32.0,66.8L32.0,66.3L32.4,65.9L33.2,65.7L43.3,65.7L45.2,65.6L45.5,65.4L45.7,65.1L45.8,63.0L45.4,62.4L44.9,62.3L33.0,62.2L32.4,62.0L32.1,61.6L32.1,61.2L32.5,60.4L34.1,58.3L34.3,57.6L34.7,56.9L34.8,56.2L35.1,55.5L35.3,53.0L35.2,49.9L35.3,49.6L35.7,49.3L36.2,49.3L36.9,49.5L38.1,50.3L39.1,50.8L40.2,51.6L42.3,52.6L43.8,53.7L44.5,54.0L44.7,54.2L45.2,54.4L46.6,55.2L47.4,55.2L48.0,54.8L48.6,53.4L48.6,52.8L48.1,52.1L46.6,51.2L46.1,51.1L45.8,50.8L44.4,49.9L42.4,48.9L41.7,48.4L39.7,47.3L38.5,46.4L38.0,45.9L37.9,45.7L38.0,45.3L38.4,44.9L40.8,43.7L42.5,42.4L43.1,41.7L44.5,40.0L45.3,38.3L45.7,37.3L46.4,36.5L46.8,36.6L47.7,37.7L51.3,43.8L52.1,45.5L53.1,47.0L53.6,47.4L54.2,47.6L55.2,47.1L56.0,46.5L56.1,46.1L56.0,45.3L53.9,41.9L53.3,40.6L53.0,40.3L52.9,40.0L52.6,39.7L52.3,38.9L51.7,38.2L51.6,37.7L50.4,35.7L50.1,34.5L50.4,34.0L53.0,34.1L55.1,34.1L56.4,33.8L58.7,32.9L60.7,31.7L61.6,30.9L62.4,30.8L62.6,31.0L62.8,32.4L62.8,42.5L63.0,43.7L63.3,44.2L64.3,44.5L65.7,44.4L66.3,43.9L66.3,31.5L66.4,31.0L66.8,30.7Z M88.1,15.8L87.2,16.2L86.9,16.2L85.9,16.7L84.7,17.9L83.9,19.8L83.7,21.4L84.1,22.8L84.7,23.9L86.1,25.3L87.3,25.9L88.6,26.1L89.6,26.1L90.7,25.9L92.0,25.3L93.3,23.8L93.8,22.8L93.9,22.0L93.9,19.6L93.1,18.2L91.9,16.8L90.4,16.1L89.4,15.8Z M38.3,15.8L37.3,16.2L36.5,16.7L35.3,18.2L34.8,19.6L34.8,21.4L35.0,22.3L35.7,23.7L36.9,24.9L38.5,25.7L39.3,25.9L41.4,25.8L42.9,25.1L44.1,24.0L44.8,22.7L44.9,22.0L44.9,19.6L44.4,18.2L43.7,17.4L42.8,16.5L40.9,15.7L39.5,15.6Z M62.9,9.2L62.0,9.6L61.0,10.3L60.3,11.1L59.8,11.9L59.4,13.0L59.3,13.9L59.5,15.3L59.8,16.2L60.3,17.0L61.0,17.8L62.5,18.8L64.0,19.3L65.1,19.3L66.7,18.9L67.6,18.4L68.9,17.0L69.3,16.2L69.7,14.7L69.3,12.4L68.9,11.6L68.3,10.7L66.7,9.5L65.6,9.1Z" fill="#000" fill-rule="evenodd"/>
</svg>