<svg xmlns="http://www.w3.org/2000/svg" viewBox="0 0 128 128" width="128" height="128">
  <path d="M67.6,9.0L67.1,9.1L66.8,9.5L66.8,10.2L67.0,11.1L67.1,12.1L67.3,12.5L67.3,13.6L67.4,14.2L67.4,15.2L67.3,15.7L67.3,16.5L67.0,18.0L66.4,20.2L65.6,21.9L65.3,22.2L64.8,23.0L63.8,24.4L62.8,25.6L61.5,26.9L61.2,26.9L60.2,27.9L58.4,29.1L58.3,29.2L57.2,29.7L56.8,30.1L56.4,30.2L55.1,30.9L54.2,31.2L53.3,31.7L50.7,32.7L49.6,33.3L48.2,33.8L45.8,35.0L43.6,36.6L40.3,39.6L38.5,42.0L38.1,42.7L38.0,43.1L37.1,45.0L36.4,47.6L36.3,49.9L36.7,53.0L37.7,55.7L39.5,59.3L40.1,61.3L40.2,62.6L40.2,65.1L40.4,66.3L40.4,69.0L40.5,69.9L40.5,71.1L40.9,72.9L41.6,74.2L42.7,75.1L44.3,76.0L44.7,76.1L46.7,77.1L47.2,77.3L48.9,78.3L49.7,79.2L50.4,80.6L50.7,82.6L50.9,85.3L51.1,86.4L51.3,90.2L51.5,91.2L51.8,94.5L52.0,95.9L52.1,98.8L52.4,100.0L52.4,101.3L52.6,102.7L52.6,105.0L52.8,105.5L52.9,107.8L53.1,108.6L53.2,111.4L53.5,113.1L53.6,115.2L53.8,116.0L54.6,117.5L55.7,118.5L56.3,118.9L57.6,119.2L59.2,119.1L60.1,118.9L60.7,118.6L61.8,117.5L62.3,116.5L62.6,115.5L63.0,110.1L63.1,105.8L63.4,102.5L63.4,99.2L63.7,97.2L63.8,92.3L64.0,90.3L64.3,84.3L64.5,81.6L64.8,79.7L65.4,78.7L66.5,77.7L71.8,75.1L72.4,74.4L73.0,73.6L73.6,72.3L73.9,71.0L74.0,64.9L74.2,62.9L74.6,61.0L75.0,60.5L75.1,60.1L76.0,58.7L78.0,56.8L81.5,54.2L81.9,53.7L82.6,53.3L83.6,52.4L84.7,51.6L86.5,49.8L88.1,47.9L89.7,45.3L90.6,43.3L91.5,40.1L91.8,37.6L91.8,35.5L91.7,33.8L91.2,31.8L90.8,30.4L89.8,27.8L88.9,26.2L86.5,22.4L85.6,21.6L85.3,21.0L83.6,19.2L79.4,15.7L76.7,13.9L72.0,11.1L71.5,10.9L71.2,10.7L68.0,9.1Z M77.6,27.5L77.8,27.9L77.8,28.9L78.1,30.5L78.1,32.4L78.5,35.1L78.5,36.2L78.9,39.0L79.0,40.9L79.1,41.3L79.1,42.7L79.2,43.3L79.4,45.5L79.5,46.0L79.6,48.2L79.2,48.6L78.7,48.8L77.0,48.9L76.0,49.4L75.6,49.9L75.4,50.5L75.5,52.2L75.2,52.9L74.9,53.2L73.4,53.6L73.2,53.8L73.2,54.2L73.9,54.7L74.2,55.2L74.3,56.0L73.7,56.6L72.7,57.1L72.1,57.7L72.0,58.1L72.0,59.8L72.2,60.4L73.0,62.0L73.2,62.7L73.2,63.7L73.1,64.3L72.5,65.4L71.2,66.8L69.8,67.6L67.3,68.6L67.0,68.6L65.1,69.3L63.8,69.5L63.2,69.7L61.5,69.8L60.1,70.1L58.6,70.2L53.5,70.1L53.1,69.9L51.1,69.7L49.3,69.3L45.4,68.0L43.2,66.7L41.8,65.3L41.3,64.3L41.1,63.7L41.2,62.0L41.5,61.2L41.6,60.4L41.6,58.0L41.5,55.7L41.8,53.2L42.4,51.1L43.3,49.2L44.3,47.8L46.7,45.5L48.6,44.2L48.9,44.1L49.3,43.8L51.8,42.6L53.0,41.8L56.7,39.9L57.0,39.9L57.1,40.0L57.1,40.3L56.9,40.6L56.8,41.6L56.5,42.2L56.3,45.2L56.6,45.6L57.0,45.5L58.8,43.2L60.8,41.4L64.9,38.5L65.9,38.0L66.2,37.7L66.7,37.5L70.1,35.2L72.3,33.5L74.6,31.3L75.9,29.9L76.3,29.1L76.9,28.3L77.0,28.0L77.4,27.5Z" fill="#000" fill-rule="evenodd"/>
</svg>