<svg xmlns="http://www.w3.org/2000/svg" viewBox="0 0 128 128" width="128" height="128">
  <path d="M21.6,58.3L19.7,58.9L18.3,59.9L17.0,61.3L16.3,62.7L16.0,63.8L15.8,65.1L15.9,66.5L16.1,67.4L17.0,69.3L17.8,70.2L18.9,71.1L19.8,71.6L21.6,72.1L24.3,72.0L25.2,71.7L26.6,71.0L27.5,70.2L28.4,69.3L29.0,67.9L29.4,66.5L29.4,63.9L29.1,62.8L28.5,61.5L27.9,60.7L26.6,59.6L25.3,58.8L23.9,58.3Z M62.7,57.0L62.2,57.3L61.5,57.3L60.6,57.8L59.4,58.7L58.3,59.9L57.7,61.1L57.3,62.3L57.2,65.1L57.7,66.6L58.1,67.4L58.3,67.6L58.5,68.0L59.9,69.4L60.8,70.0L62.2,70.6L63.3,70.7L65.7,70.7L67.9,69.7L69.5,68.2L70.2,67.0L70.7,66.1L71.0,64.3L71.0,63.4L70.7,62.1L70.3,61.0L69.7,60.0L68.6,58.7L67.9,58.1L66.9,57.5L65.2,57.0Z M104.7,55.9L103.7,56.1L102.3,56.7L101.3,57.3L100.0,58.7L99.2,60.2L98.8,61.6L98.8,63.8L99.2,65.2L99.9,66.5L100.9,67.8L101.8,68.5L102.9,69.1L104.1,69.5L106.8,69.6L108.2,69.2L109.8,68.3L111.1,66.9L111.4,66.3L111.6,66.1L112.2,64.5L112.4,63.7L112.3,61.5L111.9,60.4L111.1,58.7L109.9,57.4L108.3,56.4L107.1,56.0L106.2,55.9Z M58.4,9.4L56.8,9.6L56.0,9.8L54.7,9.9L52.5,10.3L50.1,11.0L49.3,11.0L49.1,11.2L48.8,11.2L46.3,12.0L42.1,13.7L41.8,13.9L39.8,14.7L36.1,16.8L35.7,17.2L35.3,17.3L33.2,18.8L32.3,19.3L30.4,20.8L29.8,21.1L27.1,23.5L24.9,25.7L22.4,28.5L20.2,31.3L19.7,31.8L18.2,34.1L16.7,36.7L16.6,37.4L17.1,37.8L18.6,38.2L19.8,38.8L20.9,39.1L21.9,39.7L23.1,40.2L26.7,42.5L27.1,42.9L27.5,43.1L29.4,44.7L31.4,46.8L33.0,48.8L33.7,50.0L33.8,50.3L35.3,52.9L36.0,54.4L37.4,58.7L37.9,61.7L37.9,62.4L38.1,62.9L38.1,67.9L37.6,70.7L37.0,73.5L36.0,76.3L34.2,80.1L31.7,83.6L30.6,84.9L27.8,87.6L25.4,89.5L22.9,91.0L20.7,92.1L18.3,93.0L18.0,93.2L18.0,93.6L19.3,95.8L22.5,100.0L25.0,102.7L27.3,104.9L30.5,107.6L30.9,107.8L31.7,108.5L32.2,108.7L34.3,110.3L34.6,110.4L36.2,111.5L40.2,113.6L45.3,115.8L46.1,116.0L48.2,116.8L50.9,117.5L52.1,117.7L53.1,118.0L55.0,118.3L55.7,118.5L60.6,119.0L66.3,119.1L68.7,118.9L69.9,118.7L71.9,118.5L73.1,118.2L76.6,117.6L78.0,117.1L78.4,117.1L78.9,116.9L80.1,116.6L81.2,116.1L82.7,115.7L84.0,115.1L85.7,114.5L89.9,112.4L94.8,109.4L97.9,107.1L99.8,105.4L100.6,104.8L105.0,100.4L105.2,99.9L106.4,98.6L109.2,94.9L111.6,90.8L111.6,90.3L111.4,90.0L110.1,89.7L108.7,89.0L108.3,89.0L105.2,87.6L103.1,86.2L102.8,86.2L100.0,84.0L98.3,82.5L96.2,80.2L95.2,78.6L94.8,78.2L94.5,77.6L93.6,76.2L93.5,75.8L93.1,75.2L93.1,75.0L92.6,74.3L92.0,72.6L91.7,72.0L91.6,71.5L91.3,70.8L91.0,69.7L90.8,69.2L90.5,67.5L90.4,67.2L89.9,63.7L90.0,60.3L90.6,56.4L91.3,53.7L92.0,52.0L92.2,51.3L93.0,49.6L95.0,46.2L96.3,44.4L97.9,42.7L101.6,39.4L105.3,37.1L109.4,35.3L109.6,35.1L109.6,34.5L108.2,32.3L106.4,30.3L106.3,29.8L104.5,27.9L104.4,27.6L101.3,24.4L99.5,22.8L99.1,22.6L97.5,21.1L94.6,19.0L91.2,16.8L90.8,16.7L88.0,15.1L86.8,14.7L86.4,14.3L85.5,14.0L85.0,13.7L82.6,12.8L81.9,12.6L81.6,12.4L80.4,11.9L75.3,10.6L74.8,10.6L72.4,10.0L71.8,10.0L69.8,9.6L66.3,9.4L65.7,9.2Z M28.9,95.9L29.4,95.4L32.4,93.1L34.6,91.1L37.4,88.0L39.6,84.8L41.0,82.4L42.2,79.9L43.8,75.7L44.5,72.8L44.7,71.6L45.0,71.1L45.4,71.1L45.9,72.9L46.1,74.4L46.6,75.4L47.7,78.4L49.1,81.4L51.4,85.3L54.3,89.0L57.5,92.2L60.3,94.5L60.5,94.5L61.1,95.1L63.3,96.6L66.5,98.2L67.0,98.6L68.7,99.3L69.7,99.5L70.0,99.8L72.0,100.5L76.5,101.6L80.3,102.1L85.2,102.2L89.5,101.7L90.5,101.4L91.5,101.3L93.8,100.8L94.0,101.1L93.4,101.7L92.2,102.5L90.0,104.2L89.0,104.7L88.6,105.1L88.1,105.3L87.8,105.6L82.4,108.3L78.4,109.8L74.6,110.9L69.7,111.7L64.7,112.1L60.3,111.9L58.3,111.6L57.4,111.6L52.8,110.7L52.2,110.5L50.9,110.2L50.5,110.0L48.4,109.5L47.8,109.2L45.7,108.4L44.3,107.7L43.5,107.4L39.2,105.1L37.9,104.1L37.3,103.9L35.8,102.9L31.7,99.5L29.6,97.3L29.0,96.6Z M83.4,69.5L83.7,70.0L84.4,72.8L85.0,74.3L85.4,75.7L86.7,78.4L87.8,80.4L88.2,80.9L88.4,81.4L90.4,84.2L93.2,87.5L97.3,91.2L97.3,91.5L97.1,91.7L94.7,92.9L93.9,93.1L92.2,93.8L90.8,94.0L90.4,94.3L89.3,94.4L87.6,94.8L83.8,95.1L82.0,95.0L80.0,95.0L76.8,94.5L73.0,93.4L72.6,93.1L72.1,93.1L71.7,92.7L71.8,92.2L73.6,90.2L76.0,87.2L78.8,82.9L79.1,81.9L79.5,81.3L79.8,80.4L80.2,79.9L81.2,77.5L82.5,73.0L83.0,69.7Z M62.9,38.4L63.4,38.4L64.2,38.9L65.6,39.9L68.8,43.1L69.3,43.9L69.7,44.3L70.6,45.4L72.4,48.1L74.4,52.3L74.7,53.2L75.0,53.7L75.7,56.2L76.0,57.6L76.3,58.6L76.8,63.5L76.6,67.8L76.0,71.9L74.9,75.3L74.2,77.0L74.2,77.2L72.3,80.9L71.3,82.5L71.0,82.7L70.7,83.4L70.0,84.0L69.7,84.6L68.3,86.2L68.2,86.4L65.6,88.8L65.2,89.0L64.7,89.0L64.1,88.7L63.0,87.7L62.7,87.6L62.0,87.2L59.6,84.9L57.0,81.7L55.2,78.8L54.3,77.1L52.8,73.4L51.5,68.4L51.2,65.2L51.1,61.6L51.4,58.8L52.0,55.4L52.2,55.1L52.8,52.6L53.2,51.8L53.5,50.9L55.3,47.1L57.0,44.5L58.8,42.2L59.7,41.3L60.1,40.8Z M31.2,35.3L33.6,34.2L36.1,33.4L37.5,33.1L37.7,33.0L39.1,32.8L40.2,32.5L44.1,32.2L48.0,32.4L51.6,33.0L54.5,33.8L56.0,34.4L56.6,34.9L56.4,35.3L54.9,36.9L52.0,40.4L50.0,43.5L50.0,43.8L48.6,46.2L47.2,49.3L46.3,51.6L45.9,53.7L45.5,54.5L45.4,55.8L44.9,57.5L44.7,57.6L44.3,57.1L43.9,55.4L42.9,52.9L42.7,52.2L42.0,50.7L41.8,49.9L41.1,48.6L40.8,48.3L40.5,47.5L39.8,46.5L39.5,45.8L38.3,44.3L38.2,44.0L37.2,42.8L36.5,41.8L33.9,39.1L30.5,36.3L30.6,35.7Z M35.1,26.3L37.2,24.7L37.6,24.5L37.7,24.3L39.9,23.0L40.5,22.7L40.8,22.4L41.6,22.0L42.5,21.6L43.3,21.1L44.6,20.5L44.9,20.5L46.3,19.7L46.8,19.7L48.9,18.8L52.9,17.7L58.1,16.8L62.4,16.5L66.5,16.5L67.1,16.7L71.6,17.2L76.0,18.2L80.5,19.7L81.1,20.0L82.0,20.2L83.9,21.1L86.7,22.5L87.2,23.0L88.2,23.4L89.2,24.1L89.7,24.3L93.8,27.2L96.6,29.7L98.2,31.3L98.8,32.2L98.8,32.6L95.9,34.9L93.7,36.7L90.4,40.4L89.6,41.7L88.9,42.6L87.3,45.1L85.3,49.4L84.9,50.9L84.6,51.4L84.6,51.8L84.4,52.2L84.1,53.3L83.9,53.8L83.3,56.8L83.1,57.2L82.9,57.2L82.5,56.4L82.3,55.4L82.1,55.1L81.4,52.2L79.6,47.7L78.1,45.0L76.0,41.7L73.5,38.6L71.5,36.5L67.9,33.5L67.6,33.4L66.5,32.4L65.2,31.6L61.9,29.7L59.8,28.7L58.1,28.1L57.8,27.9L54.1,26.7L51.0,26.1L46.6,25.6L43.3,25.5L38.3,26.1L37.5,26.3L36.5,26.4L35.5,26.7L35.0,26.6Z" fill="#000" fill-rule="evenodd"/>
</svg>