<svg xmlns="http://www.w3.org/2000/svg" viewBox="0 0 128 128" width="128" height="128">
  <path d="M90.7,90.3L90.6,89.3L90.5,89.3L90.0,89.7L89.2,91.2L88.4,92.1L87.8,93.1L86.0,95.3L83.6,97.8L81.2,99.7L79.5,100.4L78.9,100.9L77.1,101.6L73.0,102.6L71.8,102.7L70.9,103.0L69.4,103.1L65.7,103.1L63.5,102.8L59.6,101.9L58.1,101.2L56.3,100.7L55.7,100.4L52.9,99.1L49.7,97.0L48.0,95.8L43.9,91.7L43.4,91.0L42.9,90.5L42.5,90.5L42.5,91.0L42.9,92.0L43.0,92.9L43.3,93.5L43.4,94.1L45.0,97.0L47.5,99.9L50.8,102.6L51.4,102.8L52.7,103.4L52.9,103.7L54.5,104.3L55.9,105.1L60.0,106.3L60.4,106.5L62.8,106.9L63.1,107.0L67.8,107.4L71.7,107.2L73.1,107.0L73.8,107.0L74.5,106.7L76.1,106.4L79.3,105.4L82.2,103.9L84.0,102.4L86.3,100.0L87.5,98.6L88.4,96.5L88.9,95.9L89.5,94.0L89.8,93.8Z M109.9,24.3L109.5,24.1L102.4,24.2L101.5,24.4L95.1,24.4L89.1,24.7L81.2,24.7L76.4,25.0L71.3,25.0L70.3,25.2L62.7,25.3L58.3,25.5L54.4,25.5L52.7,25.7L48.1,25.7L47.2,25.9L45.9,25.8L45.3,26.0L35.2,26.1L31.2,26.5L28.3,26.5L24.5,26.8L18.5,26.9L17.0,27.1L16.7,27.4L16.7,38.1L16.9,39.2L16.8,41.4L17.0,49.2L17.0,53.9L17.2,56.8L17.2,62.5L17.5,67.4L17.7,81.3L17.9,83.7L18.0,95.8L18.3,98.6L18.3,103.0L18.5,105.0L18.5,112.4L18.7,113.5L18.7,116.8L18.9,118.5L19.2,118.9L26.5,118.9L27.5,118.7L41.5,118.5L44.4,118.2L46.9,118.3L48.5,118.1L59.5,117.9L61.3,117.8L62.9,117.9L66.5,117.7L71.0,117.7L73.0,117.5L78.2,117.5L79.3,117.3L99.8,117.0L109.1,117.0L111.0,116.9L111.6,116.5L111.7,112.5L111.5,111.4L111.5,102.6L111.2,95.0L111.3,93.4L111.0,77.0L111.0,68.6L110.8,66.0L110.8,60.9L110.5,52.7L110.3,34.9L110.1,24.7Z M92.1,86.1L92.1,87.8L91.9,88.8L91.8,90.4L90.6,94.6L89.7,97.1L89.0,98.2L88.8,98.8L87.9,100.3L86.7,101.9L84.0,104.6L81.2,106.1L80.7,106.5L79.7,106.9L79.4,107.1L76.8,108.0L72.3,108.8L71.0,108.8L70.6,109.0L65.1,109.0L63.2,108.6L61.6,108.5L59.1,108.0L57.3,107.3L56.3,107.1L55.6,106.7L55.2,106.6L54.7,106.3L53.0,105.5L52.0,104.8L49.0,103.1L47.6,101.9L46.0,100.2L44.7,98.4L43.1,96.0L43.0,95.4L42.1,93.8L41.9,92.8L41.7,92.3L41.4,90.4L41.0,89.2L41.0,87.9L41.1,87.3L41.5,87.3L41.8,87.4L44.2,90.1L44.6,90.7L47.7,93.6L50.5,95.7L51.5,96.3L52.0,96.8L53.5,97.5L54.9,98.4L55.3,98.5L55.6,98.8L59.7,100.4L60.1,100.4L60.7,100.6L61.8,100.7L63.0,101.2L66.6,101.5L69.5,101.5L72.5,101.2L74.9,100.6L76.5,99.9L78.2,99.4L81.0,97.8L83.0,96.2L83.6,95.4L85.5,93.7L87.0,91.9L87.6,91.0L88.8,89.5L89.7,88.0L90.2,87.5L91.2,85.9L91.5,85.5L92.0,85.6Z M107.4,56.4L107.6,60.7L107.4,61.2L107.4,62.7L106.7,65.1L106.5,65.5L106.3,66.2L105.8,67.2L104.2,69.4L101.8,71.8L99.6,73.4L98.4,74.0L97.1,74.4L96.4,74.8L94.5,75.3L92.2,75.7L89.7,75.7L89.1,75.5L87.7,75.4L86.7,75.0L85.5,74.9L83.0,73.8L80.5,72.2L79.2,71.1L77.2,68.8L77.2,68.6L75.3,65.6L74.6,63.3L74.3,61.6L74.4,57.3L74.6,56.0L75.7,53.4L77.5,50.9L80.2,48.4L83.0,47.0L85.8,46.2L89.3,46.0L92.7,46.7L95.7,48.1L98.2,50.3L100.1,52.7L100.9,54.5L101.4,55.9L101.7,58.5L101.7,60.1L101.5,60.4L101.5,61.6L101.0,63.1L99.7,65.4L99.0,66.2L97.7,67.5L96.4,68.4L95.1,69.0L92.8,69.6L90.7,69.8L88.3,69.4L88.0,69.2L86.6,68.9L85.4,68.1L85.0,68.0L83.9,67.1L82.6,65.7L81.2,63.3L80.7,61.2L80.6,58.0L80.9,56.8L81.8,55.2L83.3,53.8L85.5,52.6L87.4,52.3L89.3,52.3L90.4,52.5L92.0,53.3L93.5,54.7L94.9,56.8L95.2,58.4L95.2,59.2L95.0,59.6L94.2,59.6L93.9,59.4L93.8,58.3L93.2,56.7L91.3,54.7L89.7,53.9L87.7,53.7L86.2,53.9L84.8,54.5L83.2,56.0L82.6,56.8L82.1,58.2L82.0,60.5L82.4,61.4L82.6,62.5L83.6,64.4L85.3,66.2L86.3,66.8L86.5,67.0L87.1,67.2L87.5,67.6L88.9,67.9L89.8,67.9L90.1,68.1L92.4,68.1L94.1,67.6L94.8,67.2L95.3,67.1L96.4,66.2L96.8,66.1L98.6,64.0L99.7,61.8L100.1,60.0L100.0,58.0L99.5,56.7L99.4,55.6L99.3,55.3L99.2,54.7L97.7,51.9L96.7,50.8L95.5,49.7L94.6,49.4L94.0,48.9L93.5,48.8L93.1,48.5L91.8,48.0L90.1,47.8L89.3,47.5L86.4,47.5L84.3,48.0L81.5,49.4L79.5,50.9L77.8,52.8L76.2,55.9L76.0,57.0L75.7,58.1L75.6,59.3L76.0,63.2L76.2,64.3L76.8,65.3L77.0,66.2L77.6,67.0L78.1,68.0L79.8,69.9L82.1,71.9L82.8,72.3L84.8,73.3L86.0,73.5L86.8,73.9L90.0,74.4L93.5,74.3L94.2,74.1L95.1,74.0L97.0,73.4L100.4,71.3L103.0,68.9L104.4,66.8L105.3,64.9L105.3,64.7L105.7,64.1L106.0,63.0L106.0,62.2L106.3,60.9L106.4,58.2L106.0,55.8L105.0,52.3L103.9,50.2L102.4,48.1L100.8,46.3L97.9,44.1L95.2,42.8L94.1,42.5L93.6,42.2L91.4,41.7L89.2,41.4L86.7,41.4L84.5,41.7L83.0,42.1L80.1,43.1L78.7,44.0L78.2,44.2L76.8,45.1L74.5,47.3L72.4,49.9L70.9,52.4L70.7,53.6L70.3,54.3L70.2,55.3L70.0,55.5L69.7,58.0L69.3,60.0L69.3,62.7L69.1,63.4L68.9,66.4L69.0,67.6L68.7,70.2L68.7,80.2L68.7,82.2L68.5,82.7L68.3,84.9L67.4,86.6L66.4,87.4L65.6,87.6L64.0,87.4L63.2,87.0L62.3,85.9L61.9,84.7L61.4,81.5L61.4,80.0L61.1,79.3L61.1,78.2L60.7,76.5L60.4,72.7L60.1,71.7L59.8,68.4L59.6,67.8L59.6,65.4L59.2,63.3L59.2,62.5L58.6,59.1L58.2,58.0L58.1,56.7L57.6,54.9L56.1,51.9L53.9,48.9L51.4,46.7L48.2,44.7L47.5,44.5L46.9,44.2L46.1,44.0L45.5,43.6L42.7,43.1L40.3,42.9L39.4,43.1L37.7,43.1L35.0,43.7L34.1,44.2L33.6,44.3L30.8,45.7L28.5,47.4L26.4,49.6L25.1,51.3L24.4,52.7L24.3,53.1L23.8,53.9L22.9,56.2L22.3,59.9L22.4,64.0L23.4,67.3L25.4,70.7L28.0,73.3L30.0,74.5L31.8,75.3L32.7,75.5L33.1,75.7L36.0,76.4L39.2,76.4L41.4,75.9L42.8,75.5L44.9,74.4L46.1,73.6L48.4,71.7L49.8,69.7L50.6,68.6L51.2,67.6L51.4,66.5L51.8,65.8L52.0,64.3L52.5,62.0L52.3,58.7L51.7,56.2L49.8,53.3L48.9,52.3L46.9,50.9L44.2,49.5L41.8,49.0L38.8,49.0L37.5,49.2L34.7,50.2L32.4,51.8L30.8,53.5L29.9,54.7L29.2,56.3L28.5,58.4L28.3,59.4L28.4,61.9L29.2,64.5L30.0,66.0L31.5,67.6L33.0,68.9L35.2,69.7L35.9,69.7L36.6,69.8L38.6,69.8L39.5,69.7L41.0,69.1L42.9,67.9L44.0,66.8L44.9,65.6L45.0,65.2L45.5,64.3L45.8,62.6L45.8,60.6L45.4,59.2L45.0,58.3L44.4,57.4L43.5,56.6L43.0,56.2L41.3,55.5L39.9,55.3L39.1,55.4L37.7,56.0L36.7,56.6L35.5,57.8L35.0,58.7L34.6,59.7L34.5,61.4L34.0,61.8L33.4,61.8L33.0,61.6L32.8,61.2L32.8,59.8L33.8,57.4L34.9,56.0L36.9,54.5L38.3,54.0L41.6,53.9L43.3,54.5L44.3,55.1L45.5,56.2L46.9,58.1L47.3,59.5L47.4,63.2L47.2,64.5L46.3,66.4L45.5,67.6L44.4,68.9L41.9,70.4L40.2,71.1L39.6,71.1L38.7,71.3L35.8,71.3L34.1,70.9L33.7,70.6L32.6,70.4L31.3,69.5L30.9,69.4L28.9,67.4L28.2,66.1L27.9,65.7L27.5,64.8L26.9,62.2L27.0,58.6L27.9,55.9L28.3,55.2L28.4,54.6L28.7,54.2L28.9,53.6L29.4,53.0L31.7,50.6L33.0,49.6L35.1,48.6L35.6,48.5L36.3,48.1L38.6,47.6L42.3,47.6L45.7,48.6L47.6,49.6L48.7,50.4L50.9,52.5L52.0,54.4L52.3,55.1L52.6,55.3L52.7,55.8L53.1,56.6L53.6,58.5L53.7,63.3L53.6,64.5L53.1,66.4L52.6,67.8L52.3,68.1L51.5,69.7L50.4,71.3L48.0,73.7L45.8,75.3L43.2,76.5L41.0,77.2L40.0,77.4L38.9,77.4L38.1,77.6L34.7,77.6L33.0,77.2L32.0,76.8L30.4,76.4L29.1,75.7L26.5,73.9L24.8,72.2L23.1,70.2L22.5,69.0L22.4,68.5L22.1,68.0L21.9,67.0L21.5,66.2L21.2,64.7L21.0,63.0L20.9,59.8L21.1,57.6L21.8,54.9L22.0,54.6L22.0,54.3L22.4,53.5L22.5,53.0L23.8,50.7L24.0,50.2L25.8,47.9L27.1,46.5L27.3,46.5L28.7,45.2L29.8,44.6L30.1,44.3L31.6,43.6L31.9,43.3L32.4,43.2L33.0,42.9L34.6,42.3L36.2,42.1L36.8,41.8L39.2,41.5L42.4,41.5L44.1,41.8L44.8,42.1L46.1,42.3L46.6,42.6L47.4,42.8L48.0,43.2L50.6,44.3L52.7,45.7L55.6,48.7L57.6,51.5L58.1,52.9L58.9,54.4L59.1,55.4L59.5,56.7L59.6,57.7L59.9,58.6L60.0,60.7L60.4,61.8L60.5,64.0L60.9,66.2L61.2,70.5L61.4,71.6L61.4,72.7L61.9,74.8L62.0,76.4L62.2,76.9L62.2,77.8L62.4,79.4L62.5,82.3L62.9,84.7L63.5,85.6L64.2,86.2L65.7,86.2L66.2,85.9L67.0,84.9L67.4,82.9L67.4,82.0L67.6,81.6L67.5,76.2L67.7,74.9L67.8,65.6L68.0,63.3L68.0,60.9L68.2,60.2L68.2,59.2L68.4,58.8L68.5,56.7L68.7,55.3L69.9,51.8L70.9,50.0L71.7,49.0L71.9,48.4L74.6,45.5L76.8,43.7L78.3,42.8L81.2,41.4L82.1,41.3L83.7,40.7L86.5,40.3L90.6,40.3L92.2,40.6L92.9,40.8L93.4,40.8L94.4,41.3L95.2,41.4L95.7,41.7L96.2,41.8L97.2,42.3L97.5,42.6L98.3,42.9L100.9,44.7L104.0,48.0L105.3,50.1L106.3,52.2L106.6,53.1L106.8,53.6Z M81.0,13.7L80.5,12.3L79.7,10.9L78.4,9.9L77.7,9.5L76.8,9.4L74.0,9.3L72.4,9.4L67.1,9.5L65.7,9.7L58.3,9.9L57.1,10.1L52.0,10.1L50.2,10.3L49.2,10.6L48.0,11.3L47.0,12.3L46.1,13.8L45.7,15.9L45.5,22.4L46.0,22.8L47.2,22.9L50.8,22.8L52.5,22.6L52.7,21.9L52.7,19.4L52.6,19.1L52.7,18.2L52.7,15.8L52.9,15.2L53.4,14.9L58.5,15.6L58.8,15.8L64.8,15.9L67.8,15.7L71.3,14.9L73.9,14.6L74.3,15.1L74.3,21.5L74.5,21.8L74.9,22.1L80.5,21.8L81.0,21.5L81.1,21.1Z" fill="#000" fill-rule="evenodd"/>
</svg>