<svg xmlns="http://www.w3.org/2000/svg" viewBox="0 0 128 128" width="128" height="128">
  <path d="M33.3,106.2L34.1,106.6L47.9,106.5L49.7,106.8L50.9,106.8L53.3,106.3L56.5,106.3L57.9,106.1L58.4,105.9L58.8,105.6L58.9,105.1L58.9,103.0L59.0,101.5L58.7,100.2L58.0,99.4L51.6,96.5L48.6,94.5L47.5,94.0L46.6,93.1L44.1,91.5L43.4,91.5L42.2,92.8L42.0,93.3L39.1,96.9L37.4,99.4L35.9,101.3L35.3,102.4L33.8,104.3L33.3,105.3Z M30.5,59.3L30.4,60.0L31.2,64.7L31.8,66.3L31.9,67.5L32.4,69.0L34.0,73.0L34.3,73.3L35.8,76.4L37.9,79.2L38.2,79.9L40.8,83.2L42.8,85.2L43.6,85.3L44.3,84.8L49.4,77.7L50.8,76.2L52.5,73.3L53.5,72.3L54.3,71.1L55.1,69.6L59.0,64.5L59.2,64.1L59.2,63.5L59.0,63.4L58.6,63.4L57.6,63.7L56.0,64.0L55.2,64.3L50.7,64.9L47.5,64.9L44.1,64.6L42.5,64.3L42.2,64.1L41.4,64.0L41.2,63.8L40.6,63.6L40.0,63.6L37.5,62.7L37.2,62.4L35.7,62.0L31.2,59.2Z M88.6,42.3L88.4,42.1L85.8,42.1L79.4,42.5L78.8,42.7L77.9,43.4L77.1,44.7L76.3,45.7L74.4,48.7L72.9,50.7L71.4,53.1L70.8,53.6L67.8,57.7L62.8,64.8L60.8,67.4L59.7,69.2L57.6,72.0L57.4,72.4L55.7,74.4L54.9,75.9L47.0,86.6L46.4,87.7L46.4,88.4L46.7,89.0L47.6,89.9L51.1,92.5L51.3,92.5L53.2,93.8L53.7,94.0L55.8,95.2L56.3,95.3L57.6,95.9L58.1,96.0L58.3,96.2L59.7,96.6L59.9,96.8L61.0,96.9L61.8,97.4L64.0,98.0L66.2,98.3L67.2,98.3L67.7,98.5L70.7,98.5L72.5,98.2L75.4,97.4L76.5,96.8L77.6,95.9L78.1,95.3L78.6,94.1L78.8,93.0L78.7,91.6L78.1,90.2L77.2,88.9L75.6,87.5L74.9,87.2L74.2,86.6L74.0,86.1L74.2,85.5L74.7,84.8L74.7,83.9L74.2,83.5L71.5,82.8L71.3,82.6L70.3,82.4L69.8,82.1L69.0,81.9L66.9,80.6L65.5,78.9L65.0,77.0L65.0,75.6L66.0,72.9L67.9,70.1L68.8,69.3L71.4,67.2L72.4,66.7L73.0,66.1L76.1,64.7L76.5,64.4L77.8,63.9L78.2,63.4L78.2,62.8L77.7,61.1L74.9,55.8L75.0,55.3L75.3,55.0L79.7,54.7L83.1,54.7L84.2,54.5L88.1,54.5L88.6,54.4L89.0,54.0L89.0,42.8Z M48.7,35.3L48.3,36.8L48.4,38.1L48.6,38.4L48.8,38.9L49.6,39.8L50.5,40.2L52.4,40.6L55.5,40.5L55.9,40.4L56.3,40.1L56.3,37.6L56.0,36.4L55.2,35.1L54.1,34.2L52.5,33.8L51.1,33.8L49.7,34.4Z M88.4,28.5L87.9,28.6L87.1,29.3L85.9,31.5L84.4,33.5L83.7,34.7L82.8,36.0L81.7,37.9L81.7,38.5L82.0,39.0L82.4,39.2L87.9,39.1L88.5,38.9L88.8,38.2L88.9,33.9L88.8,29.1Z M57.2,28.5L54.9,27.5L53.5,27.3L49.3,27.3L48.0,27.7L46.9,27.9L45.5,28.6L43.4,30.2L42.3,31.2L41.2,33.0L40.7,34.6L40.3,37.2L40.6,39.9L41.5,42.2L42.6,43.6L43.9,44.9L44.3,45.0L45.7,45.9L46.9,46.3L48.2,46.5L50.2,46.5L50.6,46.3L51.5,46.2L52.6,45.7L53.8,44.9L54.6,44.1L54.5,43.3L54.0,43.1L51.5,43.1L49.8,42.8L48.2,42.2L47.3,41.6L46.6,40.9L45.9,39.7L45.5,38.6L45.4,37.0L45.6,36.0L46.1,34.7L47.6,32.9L48.3,32.6L48.9,32.1L50.4,31.5L51.8,31.2L53.0,31.2L54.3,31.5L56.3,32.4L58.0,34.0L58.9,35.6L59.4,38.0L59.5,39.9L60.1,40.3L62.0,40.4L62.8,40.2L63.0,39.8L63.1,37.2L62.7,35.5L62.3,34.2L61.7,33.2L61.7,32.9L60.2,30.9L59.2,29.9L57.6,28.8Z M61.4,21.3L60.6,21.0L59.7,20.9L56.8,19.9L54.8,19.7L53.7,19.5L50.7,19.5L47.6,19.7L44.7,20.5L41.8,21.8L39.7,23.1L36.7,25.7L34.9,28.1L34.7,28.6L33.9,29.8L33.1,31.7L33.0,31.9L32.0,36.1L31.9,40.3L32.1,42.0L32.7,44.2L33.1,45.1L33.2,45.6L34.4,47.5L34.7,47.9L34.8,48.2L36.2,49.8L39.3,52.0L40.7,52.7L42.8,53.4L45.5,54.0L50.8,54.0L53.9,53.1L55.5,52.5L57.5,51.4L60.1,49.0L61.7,46.5L61.8,45.8L62.1,45.5L62.5,44.3L62.4,43.3L62.2,43.1L58.9,43.2L58.1,43.9L57.6,44.7L56.0,46.5L54.1,47.8L53.4,48.1L51.1,48.8L47.9,49.0L45.2,48.4L42.8,47.3L41.3,46.2L39.2,44.0L38.2,41.9L37.4,39.1L37.4,36.4L37.6,34.9L38.0,33.8L38.0,33.5L39.1,31.4L39.2,31.0L40.7,29.0L41.4,28.3L43.4,26.7L46.2,25.4L48.0,25.0L48.6,24.8L49.4,24.8L49.8,24.6L52.5,24.5L53.5,24.6L53.7,24.8L56.1,25.2L59.4,26.7L60.1,27.2L62.7,29.4L64.4,32.1L65.2,33.6L65.4,34.8L65.8,35.5L66.1,37.5L66.1,39.0L66.4,39.8L66.7,40.1L70.5,40.0L70.9,39.7L71.1,39.3L71.1,37.5L70.8,35.1L70.5,34.3L70.4,33.1L70.1,32.7L69.8,31.3L68.8,29.2L68.5,28.9L67.8,27.4L65.8,24.8L63.8,23.1L62.7,22.4Z M109.4,9.4L103.2,9.4L100.9,9.5L100.2,9.7L90.0,9.7L87.5,9.9L82.3,9.9L66.9,10.4L55.3,10.5L50.2,10.7L38.5,10.9L32.8,11.3L19.0,11.5L17.6,11.6L17.2,11.9L17.0,12.3L17.0,18.1L17.3,23.1L17.3,28.8L17.5,31.3L17.5,36.0L17.7,41.8L17.8,50.6L18.0,52.5L18.2,58.2L18.4,75.7L18.6,82.8L18.8,84.8L19.0,96.2L19.1,98.2L19.1,101.3L19.4,106.5L19.4,114.1L19.7,118.5L20.1,118.8L34.1,118.8L35.3,118.6L37.4,118.7L40.3,118.6L45.3,118.6L45.8,118.5L48.2,118.4L61.2,118.4L62.7,118.2L72.0,118.0L73.3,118.1L85.8,117.7L97.2,117.7L104.7,117.5L106.8,117.4L110.4,117.4L110.9,117.4L111.3,117.0L111.3,110.3L111.0,101.3L110.6,70.4L110.5,48.8L110.3,44.8L110.4,40.6L110.3,38.2L110.3,32.1L110.1,31.2L110.2,29.9L110.0,23.9L110.0,17.9L109.8,16.7L109.9,12.7L109.7,9.8Z M91.5,19.0L91.5,20.0L91.8,21.9L91.8,23.7L92.0,24.5L92.0,28.2L92.2,31.9L92.3,32.9L92.3,36.6L92.7,38.4L93.2,38.9L93.8,39.0L97.4,38.9L99.0,38.8L99.8,38.4L99.8,37.7L99.5,37.2L97.0,34.6L97.2,33.6L97.8,32.9L98.1,32.9L100.1,34.4L102.6,36.7L103.7,37.5L105.3,39.1L105.4,39.8L101.1,45.1L99.1,47.0L98.7,47.0L97.9,46.2L97.9,45.4L99.0,43.2L99.3,42.9L99.4,42.0L99.2,41.6L97.8,41.5L95.2,41.7L93.6,41.7L93.2,41.9L92.8,42.8L92.7,45.1L92.9,52.2L93.1,53.3L93.0,57.3L92.3,57.8L88.3,57.8L87.1,58.0L83.7,57.9L81.3,58.1L80.9,58.4L80.9,59.0L81.1,59.2L81.4,60.1L83.3,63.4L83.3,63.6L83.6,64.2L83.6,64.6L83.3,65.0L82.3,65.5L79.9,66.4L78.1,67.3L77.8,67.3L77.4,67.6L77.0,67.6L76.1,68.0L74.7,68.9L74.3,69.0L73.6,69.5L73.0,69.7L72.3,70.4L71.7,70.8L70.1,72.4L69.1,74.1L68.9,74.7L68.9,76.2L69.1,77.3L69.5,78.3L70.7,79.4L72.8,80.3L73.9,80.5L74.9,81.0L75.6,81.1L77.9,81.8L79.8,82.0L80.6,82.6L80.5,82.9L78.4,85.8L78.4,86.5L78.8,86.9L80.1,87.9L81.2,89.1L81.2,89.3L81.8,90.1L82.0,90.9L82.2,91.4L82.2,93.3L81.9,95.1L80.7,97.0L79.4,98.5L76.9,100.1L74.4,100.8L71.3,101.3L69.1,101.3L64.0,100.8L63.9,100.6L63.3,100.6L62.7,100.6L62.3,101.5L62.5,108.0L62.2,109.0L61.7,109.3L60.6,109.5L53.3,109.5L52.5,109.6L41.9,109.6L39.6,109.8L37.0,109.9L32.9,109.8L28.4,110.0L26.7,109.8L26.7,109.2L27.5,107.8L29.2,105.8L30.9,103.0L31.7,102.1L32.3,101.0L32.9,100.5L35.6,96.5L36.9,94.9L37.0,94.4L40.0,90.6L40.8,89.1L40.6,88.2L39.2,86.8L36.6,83.7L34.0,80.0L32.8,77.6L31.9,76.5L31.3,74.6L30.8,73.9L30.7,73.5L30.4,72.9L30.2,72.1L29.8,71.5L29.6,70.7L29.3,70.2L29.2,69.2L28.9,68.6L28.6,67.1L28.3,66.6L27.8,63.4L27.5,62.6L27.2,59.5L26.9,58.0L26.9,53.8L27.1,53.2L27.5,53.2L28.3,53.9L29.6,54.6L30.8,55.6L31.4,55.8L32.5,56.7L36.2,58.6L36.5,58.9L38.6,59.8L40.1,60.2L42.1,60.9L42.5,60.9L43.2,61.2L44.8,61.6L47.5,61.9L50.7,61.8L53.8,61.4L57.0,60.5L57.7,60.4L58.9,59.8L59.7,59.6L62.6,58.1L63.9,56.8L64.4,56.4L66.7,53.7L69.0,50.4L69.0,50.1L69.4,49.3L69.5,48.8L69.9,48.2L70.1,47.2L70.4,46.5L71.0,43.9L70.8,43.1L70.4,42.8L66.6,42.9L65.9,43.2L65.4,43.8L64.8,46.1L63.2,49.2L62.7,49.8L62.2,50.5L60.0,52.9L57.6,54.5L55.0,55.8L53.6,56.2L52.7,56.6L52.2,56.6L51.9,56.8L50.4,56.8L48.8,57.0L45.0,56.9L42.2,56.3L38.3,54.7L37.5,54.2L36.5,53.7L36.3,53.4L35.7,53.1L35.4,52.7L33.8,51.5L30.9,47.9L29.6,45.2L28.8,42.0L28.8,41.2L28.6,40.7L28.6,37.0L28.9,34.9L29.3,33.7L29.3,32.8L30.9,28.6L31.8,27.2L31.9,26.6L32.3,26.2L33.5,24.3L36.7,21.4L38.3,20.3L39.6,19.7L40.8,19.0L41.6,18.8L42.1,18.4L44.0,17.7L44.6,17.6L45.4,17.1L46.6,17.1L48.6,16.5L50.7,16.5L51.2,16.3L54.9,16.4L56.6,16.8L57.9,16.9L58.5,17.1L58.9,17.1L62.1,18.4L64.8,20.0L66.6,21.5L69.5,24.4L69.6,24.7L71.4,26.8L72.1,28.2L72.6,29.6L73.0,30.1L74.0,33.5L74.2,35.0L74.4,35.8L74.6,38.9L75.2,39.6L76.4,39.6L77.2,39.0L77.9,37.8L79.2,36.1L79.3,35.6L79.7,34.8L81.9,32.0L83.2,29.9L83.8,28.6L85.8,26.0L86.9,23.9L88.8,21.4L89.6,20.2L90.8,18.9Z" fill="#000" fill-rule="evenodd"/>
</svg>