<svg xmlns="http://www.w3.org/2000/svg" viewBox="0 0 128 128" width="128" height="128">
  <path d="M69.5,47.6L69.0,47.7L68.9,47.9L68.8,48.3L68.9,54.1L69.1,56.6L69.8,58.6L70.6,59.9L71.8,61.2L72.5,61.8L73.0,62.1L74.0,63.1L75.1,64.8L75.6,66.4L75.6,68.6L75.1,70.2L74.4,71.6L71.6,74.3L70.3,76.3L70.1,77.1L69.8,77.6L69.5,78.9L69.5,81.8L69.8,83.2L70.6,84.9L71.5,86.1L72.5,87.2L73.5,88.0L75.0,89.6L75.9,91.3L76.1,92.6L76.0,94.7L75.6,96.2L74.4,98.0L72.5,99.8L71.8,100.6L71.1,101.8L71.0,102.2L70.6,102.8L70.6,103.5L70.2,104.3L70.1,104.9L70.2,107.5L70.7,109.3L71.7,111.3L72.7,112.5L75.1,114.7L76.0,116.1L76.3,116.8L76.5,117.9L76.7,118.3L77.4,118.6L79.2,118.5L79.4,118.2L79.3,116.5L78.9,115.2L77.6,113.0L76.9,112.2L75.6,111.3L74.7,110.4L73.9,109.2L73.5,108.4L73.2,106.9L73.2,105.3L73.3,104.5L74.1,102.6L74.9,101.5L77.1,99.2L77.6,98.5L78.4,97.1L78.8,95.9L79.0,94.6L79.0,92.4L78.9,91.3L78.1,89.0L77.3,87.9L76.4,86.7L74.0,84.4L73.5,83.8L72.8,82.1L72.7,81.2L72.7,79.5L72.8,78.4L73.6,76.6L74.1,76.0L76.5,73.5L77.3,72.5L77.9,71.3L78.3,70.3L78.6,68.9L78.6,66.4L78.2,64.3L77.1,62.3L76.1,61.1L73.9,59.1L72.7,57.5L72.4,56.6L71.9,54.9L71.8,48.0L71.5,47.7L71.0,47.5Z M83.3,9.1L81.6,9.0L81.1,9.1L80.8,9.4L80.6,11.4L80.7,13.8L80.5,14.2L80.1,14.5L78.2,14.5L77.9,14.4L77.6,14.2L77.5,10.7L77.3,9.2L76.9,9.1L74.9,9.2L74.7,9.3L74.6,9.8L74.6,14.1L74.3,14.5L73.2,14.7L71.8,14.6L71.6,14.5L71.4,14.2L71.2,13.7L71.2,10.1L71.1,9.6L70.8,9.2L68.8,9.2L68.3,9.5L68.2,14.1L67.8,14.6L67.0,14.7L65.2,14.7L64.9,14.4L64.7,14.0L64.6,9.8L64.5,9.5L64.1,9.2L62.6,9.2L61.9,9.4L61.7,10.0L61.6,14.4L61.1,14.7L60.2,14.8L58.6,14.7L58.2,14.4L58.1,13.4L58.1,10.8L57.9,10.4L57.9,9.7L57.3,9.2L55.9,9.2L55.5,9.4L55.3,9.6L55.2,14.2L55.0,14.5L54.7,14.8L52.4,14.8L51.9,14.5L51.8,13.9L51.7,10.3L51.6,9.6L51.3,9.4L49.1,9.3L48.7,9.8L48.7,14.2L48.4,14.7L47.8,14.9L45.8,14.9L45.4,14.6L45.2,14.1L45.2,9.9L44.9,9.5L42.8,9.4L42.5,9.6L42.3,9.9L42.3,12.2L42.4,15.3L42.4,20.9L42.6,22.6L42.5,23.9L42.6,30.9L42.9,36.3L42.9,47.0L43.1,47.8L43.0,49.8L43.3,56.7L43.8,58.5L45.1,60.6L46.1,61.8L48.1,63.5L49.0,64.7L49.6,66.2L49.6,66.7L49.8,67.6L49.8,68.5L49.7,68.9L49.7,69.3L49.0,71.2L48.0,72.7L45.5,75.0L44.6,76.2L43.9,77.6L43.7,78.9L43.4,79.8L43.4,82.0L43.8,83.2L43.8,83.8L44.3,84.9L45.6,86.9L46.8,88.0L47.7,88.6L48.8,89.7L49.9,91.8L50.2,93.2L50.1,95.2L49.5,97.2L48.7,98.3L47.9,99.1L47.4,99.4L45.9,101.0L45.2,102.0L44.8,102.8L44.3,104.3L44.0,106.1L44.0,107.1L44.1,107.6L44.3,109.3L44.7,110.6L45.8,112.4L47.3,113.9L48.3,114.6L49.5,116.0L49.8,116.5L50.1,117.1L50.3,117.3L50.6,118.5L50.9,119.1L51.0,119.2L53.0,119.2L53.3,119.0L53.4,118.1L53.2,116.7L52.5,115.1L51.7,113.9L50.6,112.6L50.1,112.3L48.8,111.0L48.1,109.9L47.7,109.1L47.3,107.8L47.3,106.8L47.5,106.3L47.4,105.4L47.8,104.0L48.4,102.9L49.0,102.1L49.8,101.4L50.1,101.2L51.9,99.2L52.9,97.4L53.0,96.8L53.2,96.4L53.5,94.5L53.4,92.8L52.9,90.6L52.4,89.8L52.4,89.6L51.7,88.4L50.4,87.0L48.8,85.8L47.6,84.4L46.7,82.2L46.7,80.1L46.8,79.1L47.2,78.0L47.4,77.7L47.5,77.3L48.2,76.4L51.0,73.8L51.9,72.5L52.8,70.2L53.0,69.0L53.0,67.3L52.8,66.1L52.5,65.0L51.6,63.0L51.2,62.4L49.4,60.6L48.1,59.5L47.2,58.4L46.7,57.4L46.1,55.5L46.0,53.3L45.9,44.5L45.7,37.5L45.8,35.8L45.6,34.3L45.5,25.0L46.1,24.6L47.7,24.5L48.5,24.5L48.8,24.8L49.0,26.0L49.0,27.4L49.1,29.5L49.3,43.5L49.6,56.2L50.1,58.0L50.8,59.7L51.4,60.6L52.7,62.1L53.7,62.7L55.3,64.4L56.1,66.3L56.2,67.5L56.2,69.5L55.3,71.6L54.8,72.2L52.7,74.1L51.8,75.1L50.9,76.6L50.7,77.2L50.4,77.7L50.1,79.4L50.1,82.1L50.5,83.8L50.7,84.1L50.9,84.7L51.3,85.5L52.0,86.5L53.2,87.7L54.5,88.7L55.3,89.5L56.0,90.5L56.5,91.7L56.7,92.7L56.8,92.8L56.9,93.9L56.5,95.9L56.2,96.4L56.1,97.0L54.8,98.7L53.8,99.7L53.4,100.0L52.1,101.3L51.3,102.7L51.0,103.7L50.5,106.1L50.5,107.6L50.7,107.9L50.9,109.2L51.3,110.1L52.3,112.1L53.5,113.3L55.1,114.6L55.9,115.6L56.5,116.5L56.6,116.9L57.0,117.7L57.1,118.4L57.6,119.1L59.1,119.1L59.7,118.9L60.1,118.6L60.1,118.0L60.0,117.7L59.8,116.5L59.6,116.2L59.4,115.4L59.1,114.7L58.3,113.6L56.4,111.8L55.0,110.4L54.2,108.7L53.8,106.9L53.8,105.8L53.9,105.1L54.6,103.2L54.8,103.0L55.0,102.5L56.7,100.8L57.2,100.4L58.5,98.7L59.4,96.9L59.8,95.1L59.7,92.5L59.4,91.1L59.0,89.9L57.5,87.6L55.6,85.9L54.2,84.4L53.7,83.4L53.3,81.9L53.3,79.5L53.8,77.9L54.6,76.5L57.4,73.8L58.2,72.7L59.1,70.8L59.4,68.4L59.3,66.2L59.1,65.3L58.5,63.9L57.4,62.1L54.2,58.9L53.7,58.2L53.0,56.8L52.5,54.9L52.3,40.0L52.1,38.1L52.2,36.7L52.0,25.1L52.1,24.8L52.4,24.5L53.8,24.4L55.0,24.5L55.3,24.8L55.6,26.3L55.5,30.6L55.6,31.7L55.6,32.6L55.9,44.9L55.9,49.7L56.0,55.5L56.2,56.8L56.5,57.6L56.6,58.1L56.9,58.9L58.2,60.8L59.2,61.8L60.5,62.7L61.4,63.6L61.9,64.3L62.6,65.9L62.8,67.7L62.8,68.9L62.3,70.6L61.4,72.0L58.2,75.1L57.5,76.3L57.3,77.2L57.1,77.4L56.6,79.2L56.6,81.8L57.0,83.3L57.6,84.8L58.3,86.0L59.1,87.0L60.5,88.0L61.6,89.1L62.3,90.0L63.1,91.9L63.3,93.6L63.1,95.4L62.3,97.2L61.5,98.3L60.2,99.4L58.9,100.7L58.2,101.8L57.8,102.9L57.4,103.8L57.1,105.9L57.1,107.2L57.5,109.4L58.3,111.1L59.6,112.7L61.7,114.5L62.7,115.8L63.1,116.6L63.7,118.5L64.1,118.8L66.3,118.8L66.5,118.6L66.6,118.2L66.6,117.3L66.0,115.3L65.7,115.1L65.6,114.7L64.9,113.5L63.7,112.2L62.5,111.3L61.5,110.4L60.8,109.5L60.6,108.7L60.3,108.1L60.0,106.7L60.0,106.0L60.3,104.5L60.7,103.5L61.7,102.1L64.4,99.4L65.2,98.2L66.0,96.4L66.3,94.4L66.3,92.8L66.0,91.2L65.2,89.2L64.0,87.5L63.1,86.6L62.2,85.8L61.1,84.7L60.3,83.5L60.2,83.0L59.8,82.1L59.7,81.5L59.7,79.2L60.0,78.3L60.2,77.9L60.3,77.4L60.6,77.1L60.8,76.6L61.5,75.7L63.6,73.8L64.3,72.8L65.2,71.1L65.4,70.4L65.6,69.9L65.7,68.8L65.7,66.1L65.4,65.3L65.3,64.7L64.4,62.8L63.4,61.5L61.3,59.6L60.1,58.3L59.4,56.8L59.0,55.1L58.8,52.6L58.7,39.3L58.3,26.7L58.4,25.1L58.5,24.7L58.8,24.5L61.5,24.5L61.9,25.1L62.0,27.8L62.0,35.5L62.3,46.1L62.3,52.0L62.5,52.6L62.4,54.6L62.6,56.2L62.8,57.5L63.7,59.3L64.5,60.4L65.4,61.3L67.0,62.7L68.0,63.8L68.9,65.3L69.2,66.8L69.1,68.8L68.5,70.7L67.8,71.9L66.1,73.6L65.7,73.8L64.5,75.4L63.7,76.9L63.1,79.1L63.1,82.1L63.7,83.9L63.9,84.2L64.1,84.9L65.2,86.4L65.9,87.1L67.7,88.4L68.6,89.5L69.5,91.2L69.7,91.9L69.8,92.9L69.7,95.1L69.5,95.6L69.3,96.3L69.0,96.7L68.9,97.1L67.7,98.5L66.3,99.6L64.9,101.2L64.1,102.6L63.5,105.2L63.5,106.9L63.7,108.5L64.0,109.0L64.1,109.7L65.1,111.5L66.7,113.3L68.0,114.2L69.1,115.5L69.7,116.5L70.2,118.5L70.6,118.7L72.6,118.6L73.0,118.2L73.0,117.2L72.6,115.9L71.8,114.2L70.6,112.7L69.8,111.9L69.3,111.6L68.2,110.5L67.5,109.4L67.0,108.4L66.6,107.0L66.8,104.9L66.9,104.2L67.4,103.2L68.4,101.6L69.7,100.6L70.9,99.2L71.7,98.0L72.0,97.2L72.2,97.0L72.7,94.9L72.8,92.8L72.5,90.9L72.0,89.6L71.3,88.4L69.8,86.6L68.5,85.5L67.7,84.7L66.6,83.0L66.1,81.5L66.1,79.2L66.5,77.9L67.3,76.3L68.0,75.5L69.8,74.0L70.9,72.5L71.8,70.6L72.0,69.7L72.1,69.6L72.3,67.6L72.1,66.2L71.8,64.5L70.9,62.8L70.1,61.7L68.9,60.4L68.0,59.9L67.1,58.9L66.4,57.8L66.1,57.5L65.5,55.8L65.4,54.4L65.4,48.9L65.1,33.8L65.2,33.4L65.6,32.9L67.5,31.9L67.8,31.9L69.5,31.3L70.9,31.2L71.1,31.2L71.1,31.5L70.1,32.8L69.8,33.9L69.8,34.4L70.1,35.5L70.8,36.5L71.8,37.1L72.5,37.3L73.8,37.3L74.4,37.0L75.0,36.6L75.6,36.0L75.9,35.2L76.1,34.5L75.9,33.0L75.5,32.2L74.7,31.4L74.8,31.1L75.0,31.0L75.9,31.1L77.0,31.3L77.9,31.7L78.7,31.9L80.5,32.8L80.9,33.2L81.1,39.6L81.3,50.0L81.1,50.9L80.8,51.1L76.1,51.2L75.6,51.4L75.3,51.7L75.3,54.7L75.4,56.1L75.9,57.8L76.5,59.1L77.2,60.1L78.7,61.6L79.5,62.1L79.9,62.4L81.1,64.0L81.6,65.2L82.0,67.0L81.9,68.9L81.6,69.9L81.3,70.5L80.4,71.9L78.1,74.1L77.3,75.1L76.5,76.6L76.4,77.2L76.2,77.4L76.2,77.7L76.0,78.2L76.0,79.0L75.9,79.7L75.9,81.5L76.4,83.4L77.2,85.0L78.0,86.1L79.1,87.2L80.0,87.9L81.2,89.1L82.0,90.5L82.5,92.2L82.5,94.3L82.1,95.9L81.1,97.6L78.2,100.3L77.3,101.7L76.4,104.5L76.4,106.9L76.8,108.7L77.1,109.2L77.2,109.7L77.9,111.0L79.0,112.4L80.6,113.7L81.8,115.0L82.5,116.0L83.2,118.2L83.7,118.5L85.4,118.5L85.9,118.1L85.9,116.9L84.9,114.2L83.7,112.6L82.5,111.6L81.8,111.2L80.7,109.9L79.8,108.3L79.4,106.8L79.4,104.9L80.1,102.9L81.0,101.5L82.4,100.3L83.4,99.4L84.2,98.3L84.9,96.8L85.5,94.6L85.5,92.2L85.1,90.2L84.6,89.0L84.3,88.7L84.2,88.4L82.9,86.7L81.7,85.8L80.2,84.3L79.3,82.7L79.2,82.0L78.9,81.3L78.8,80.5L79.0,78.6L79.7,76.8L80.4,75.8L82.9,73.3L83.7,72.1L84.5,70.2L84.9,68.5L84.9,66.8L84.6,64.8L84.1,63.5L83.5,62.6L83.4,62.1L82.6,61.2L79.7,58.4L79.0,57.2L78.4,55.5L78.4,54.9L78.6,54.4L78.7,54.3L83.7,54.3L83.9,54.2L84.2,54.0L84.3,53.5L84.2,41.1L83.9,31.6L83.7,9.7L83.4,9.2Z M80.8,24.8L80.9,28.8L80.8,29.3L80.5,29.6L80.3,29.6L78.8,28.9L77.7,28.6L76.7,28.4L76.3,28.2L74.0,27.9L71.5,28.0L69.6,28.3L69.4,28.4L68.3,28.6L65.7,29.7L65.2,29.7L65.0,29.5L64.9,25.1L65.0,24.7L65.3,24.5L70.3,24.2L80.1,24.2L80.6,24.5Z M80.8,19.5L80.8,20.5L80.6,20.8L80.3,21.1L79.9,21.1L72.3,21.3L69.6,21.2L68.8,21.4L65.4,21.4L60.8,21.4L46.0,21.5L45.5,21.1L45.3,19.1L45.5,18.3L45.9,18.0L56.4,17.9L60.1,17.9L67.5,17.7L71.0,17.8L73.0,17.6L78.9,17.6L80.5,17.7L80.8,18.2Z" fill="#000" fill-rule="evenodd"/>
</svg>