<svg xmlns="http://www.w3.org/2000/svg" viewBox="0 0 128 128" width="128" height="128">
  <path d="M10.7,88.6L10.7,90.7L10.5,91.4L10.6,94.3L11.0,97.0L11.4,97.8L11.6,99.0L11.9,99.9L12.0,100.6L12.6,102.2L14.5,106.0L15.7,107.7L16.6,108.6L17.2,109.5L21.0,113.2L23.4,114.9L27.2,116.9L28.2,117.1L28.7,117.4L29.1,117.4L30.7,118.0L31.7,118.1L33.5,118.6L36.4,118.9L38.9,118.9L41.0,118.6L41.7,118.6L45.2,117.8L48.8,116.3L49.1,116.3L49.8,115.9L50.3,115.8L53.5,113.7L56.6,111.1L59.2,108.1L60.2,106.8L62.7,102.1L63.4,99.9L64.0,99.0L64.3,99.0L64.7,99.3L65.5,101.4L66.4,103.1L66.4,103.4L67.1,104.8L67.8,105.7L68.7,107.2L70.1,108.9L71.6,110.3L73.2,112.0L75.4,113.8L76.2,114.2L77.9,115.6L78.9,116.0L80.1,116.6L84.7,117.9L88.2,118.2L88.9,118.4L91.7,118.5L95.1,118.1L95.8,117.8L97.0,117.7L98.7,117.3L99.4,116.9L101.7,116.3L102.2,116.0L102.9,115.8L103.3,115.4L105.7,113.9L108.5,111.8L111.0,109.3L113.1,106.5L114.1,104.9L115.2,102.6L116.2,100.1L117.3,96.3L117.7,92.6L117.5,87.9L117.3,87.0L117.3,86.3L116.8,83.9L116.2,82.7L116.0,81.4L115.3,79.9L115.0,79.4L114.8,78.8L114.4,78.3L113.7,76.8L112.0,74.8L111.7,74.1L109.5,71.6L107.5,70.1L107.1,70.2L107.3,73.2L107.5,73.9L107.5,77.5L107.0,79.7L107.0,80.6L106.6,81.4L106.4,82.6L105.9,83.9L105.5,85.2L104.6,86.9L104.4,87.6L102.9,89.9L100.6,92.7L99.2,94.1L95.7,96.8L92.3,98.7L90.0,99.5L86.2,100.4L79.2,100.4L78.2,100.1L77.0,99.9L73.9,99.0L69.7,97.0L66.8,95.0L65.8,93.9L64.7,93.1L64.0,93.3L61.2,95.8L58.4,97.6L55.0,99.3L52.8,100.0L52.1,100.1L51.4,100.4L49.7,100.5L48.1,100.8L43.8,100.7L41.1,100.3L40.3,100.0L39.4,99.9L38.9,99.6L37.9,99.4L35.6,98.5L32.2,96.5L29.8,94.7L27.6,92.5L26.8,91.4L25.9,90.3L25.2,88.9L24.4,87.9L24.2,87.3L23.4,85.9L22.2,82.6L22.1,81.6L21.8,81.0L21.8,80.5L21.5,79.2L21.4,73.6L21.7,71.5L21.7,70.1L21.3,70.1L20.2,70.8L17.6,73.3L15.5,75.7L13.6,78.9L13.4,79.6L12.4,81.4L12.3,82.0L11.8,83.3L11.7,84.1L11.1,85.7Z M38.5,69.5L37.4,69.8L36.4,70.2L34.8,71.6L34.2,72.4L33.6,73.9L33.5,76.2L33.7,76.9L33.9,77.1L33.9,77.5L34.4,78.5L36.5,80.5L37.1,80.7L37.7,81.1L38.2,81.2L40.5,81.2L41.3,81.0L42.9,80.1L44.2,78.6L44.8,77.4L45.1,76.0L45.1,75.0L44.8,73.3L44.2,72.1L42.6,70.5L40.7,69.6Z M87.6,69.3L85.8,70.5L85.0,71.5L84.5,72.3L83.9,73.9L83.9,75.5L84.1,76.5L85.2,78.5L86.3,79.5L87.7,80.3L88.9,80.6L89.8,80.6L92.1,80.2L92.8,79.8L94.3,78.2L95.2,76.4L95.4,75.3L95.4,74.0L95.1,72.8L94.3,71.3L93.1,70.1L91.4,69.1L88.6,69.0Z M116.3,22.2L115.7,21.9L112.2,21.9L110.8,22.1L110.3,22.7L110.0,25.1L109.7,25.8L109.7,26.7L108.8,32.4L107.9,35.4L107.3,36.6L107.0,37.7L106.2,39.1L105.7,40.2L104.6,41.8L100.9,45.5L99.9,46.1L99.0,46.8L97.2,47.8L96.6,47.9L95.8,48.4L95.0,48.6L94.2,49.0L91.3,49.6L87.6,49.9L85.1,49.6L81.4,48.6L77.6,46.7L75.1,44.9L72.9,42.9L72.0,41.7L70.1,38.5L69.1,36.5L69.0,35.8L68.6,34.6L68.6,34.2L68.1,32.9L67.8,30.6L67.6,29.9L67.2,29.5L64.9,29.4L61.0,29.5L60.7,29.8L60.2,33.5L59.9,34.2L59.6,35.5L59.3,35.9L59.2,36.6L58.7,37.7L58.5,38.4L58.2,38.7L58.1,39.1L57.7,39.6L57.6,40.0L56.6,41.5L54.1,44.3L51.3,46.6L48.1,48.4L45.9,49.1L43.2,49.8L42.3,49.8L40.7,50.1L36.3,49.7L32.6,48.6L31.6,48.0L31.0,47.9L29.7,47.1L28.7,46.6L27.0,45.4L25.2,43.6L23.1,41.3L23.0,40.9L21.8,39.1L20.5,36.3L19.8,33.7L19.3,31.1L19.3,29.8L18.8,26.0L18.9,25.4L18.6,23.1L18.0,22.8L12.1,22.9L11.7,23.5L11.7,24.5L11.8,25.3L11.8,27.1L12.2,29.6L12.4,32.6L12.7,34.0L12.7,35.4L13.3,41.1L13.3,42.4L13.6,44.1L13.6,45.5L13.9,47.4L14.0,49.4L15.0,58.0L15.1,61.0L15.4,61.8L15.5,64.4L15.7,64.7L23.3,64.5L25.0,64.7L30.1,64.4L33.9,64.5L42.6,64.3L44.1,64.1L47.3,64.0L64.3,64.0L91.4,63.4L96.6,63.5L112.2,63.3L112.8,62.8L113.3,59.9L113.4,57.1L113.7,55.7L113.7,53.4L114.1,50.3L114.2,48.2L114.6,45.4L114.6,44.1L114.8,43.4L114.8,41.8L115.0,41.0L115.0,40.0L115.1,39.6L115.4,35.4L115.8,33.1L115.7,32.5L115.9,31.7L116.0,28.9L116.3,26.0L116.3,24.8L116.5,24.2L116.5,22.8Z M62.0,9.4L61.2,9.9L60.4,10.1L59.1,11.0L57.8,12.6L57.6,13.1L57.1,13.8L56.7,15.0L56.5,16.3L56.7,18.5L57.3,20.0L58.0,21.2L59.0,22.3L60.3,23.4L62.8,24.3L64.1,24.4L65.9,24.2L67.4,23.6L68.6,22.8L69.9,21.5L70.9,19.7L71.4,18.0L71.5,16.0L71.1,14.3L70.4,13.0L69.6,11.8L68.5,10.7L67.7,10.4L67.3,10.0L65.2,9.3Z" fill="#000" fill-rule="evenodd"/>
</svg>