<svg xmlns="http://www.w3.org/2000/svg" viewBox="0 0 128 128" width="128" height="128">
  <path d="M34.6,59.9L34.3,59.7L33.7,59.6L28.1,59.8L26.8,59.7L25.3,59.9L25.0,60.7L25.0,63.6L24.8,64.1L24.7,65.2L24.1,66.7L22.6,69.2L21.1,70.7L18.7,71.9L16.1,72.7L13.1,72.9L12.8,73.6L12.9,76.6L13.6,77.0L18.0,77.0L22.2,76.8L23.9,76.4L25.2,75.7L26.0,75.6L29.0,73.7L30.9,71.9L32.3,70.2L32.9,69.2L34.1,66.6L34.7,64.5L34.8,63.5L34.8,60.6Z M36.0,59.8L36.0,65.7L36.6,67.9L37.0,68.4L37.1,68.9L37.7,70.2L39.0,71.6L40.4,72.7L41.5,73.2L42.7,73.5L43.1,73.8L44.9,74.1L52.3,74.1L54.0,73.9L58.1,73.9L59.1,73.7L61.6,73.8L61.9,73.7L62.2,73.4L62.4,72.9L62.4,71.8L62.1,68.8L61.5,68.4L57.2,68.5L56.1,68.3L54.3,67.8L52.6,66.9L51.0,65.5L50.1,64.2L49.4,62.3L49.1,61.0L49.0,59.7L48.6,59.3L44.0,59.3L42.1,59.5L36.3,59.6Z M88.9,48.7L88.7,48.5L79.4,48.6L78.4,48.8L78.1,49.2L78.2,59.9L77.7,62.4L77.2,63.7L76.2,65.1L74.9,66.5L74.1,67.0L72.2,67.9L70.1,68.3L69.0,68.3L68.8,68.2L68.4,68.2L68.2,68.3L64.8,68.3L63.7,68.6L63.4,69.0L63.3,69.5L63.3,74.1L63.2,74.3L62.8,74.6L58.2,74.9L57.2,74.8L48.1,75.0L45.7,75.2L43.4,74.9L40.5,74.0L38.5,72.6L36.7,70.7L35.5,68.5L35.3,67.8L35.0,67.7L34.7,68.0L33.6,70.0L32.6,71.4L30.1,74.0L28.0,75.6L25.8,76.7L25.2,76.8L24.3,77.2L21.7,77.8L13.1,78.2L12.8,78.7L12.8,80.5L12.9,81.6L12.9,86.1L12.9,88.6L13.1,89.5L13.0,90.9L13.5,94.3L14.2,96.0L16.1,97.9L16.9,98.4L18.0,98.7L19.0,98.7L19.8,98.9L27.8,98.5L31.6,98.1L34.8,98.0L39.1,97.6L41.2,97.6L42.6,97.5L44.9,97.5L45.9,97.3L51.0,97.0L56.7,96.1L60.4,95.0L65.4,93.1L69.8,90.9L71.0,90.0L72.5,89.1L76.8,85.8L79.5,83.1L82.2,79.9L82.2,79.7L83.7,77.7L84.7,76.0L85.4,74.4L85.9,73.7L85.9,73.2L86.3,72.7L86.3,72.4L86.8,71.6L87.0,70.7L87.4,69.7L87.5,69.0L88.1,67.3L88.9,62.6Z M28.1,30.1L25.1,30.2L24.7,30.5L24.5,30.9L24.5,38.6L24.7,41.5L24.6,44.6L24.8,48.9L24.7,50.4L24.8,51.0L25.1,51.2L25.3,50.4L25.7,47.5L25.9,47.2L26.0,45.9L27.0,41.0L27.2,39.1L27.5,37.9L28.0,35.5L28.0,34.8L28.5,32.9L28.7,30.4Z M76.6,29.6L76.3,29.3L75.9,29.3L73.8,29.3L73.1,29.4L61.6,29.4L58.6,29.6L57.0,29.5L53.1,29.7L48.0,29.7L46.3,29.9L37.4,29.8L30.6,30.0L30.1,30.5L29.5,33.1L29.3,34.8L28.9,35.9L28.2,40.3L27.6,42.4L27.3,45.1L26.9,46.4L26.9,47.0L25.8,52.4L25.8,53.1L25.3,54.9L25.3,55.9L25.7,56.2L27.4,56.3L47.7,56.0L47.9,55.6L47.8,55.1L47.5,54.8L47.2,53.7L46.5,52.1L46.3,51.2L44.9,48.1L44.2,45.8L43.7,45.1L43.2,43.3L42.4,41.8L41.6,39.2L41.3,38.9L41.1,38.3L41.2,37.6L41.9,37.7L42.4,38.7L42.7,39.7L43.1,40.3L43.3,41.1L43.7,41.9L44.8,45.1L45.2,45.6L45.9,47.8L47.1,50.5L47.4,51.5L47.9,52.4L48.3,53.9L49.0,55.1L49.0,55.5L49.3,55.9L49.3,56.5L48.8,56.9L48.1,57.0L25.5,57.3L25.2,57.4L25.1,57.8L25.2,58.5L25.7,58.7L32.6,58.6L34.8,58.5L37.4,58.5L41.2,58.4L49.6,58.4L50.0,58.7L50.1,60.8L50.8,63.3L51.8,64.6L53.2,66.0L54.9,67.0L55.5,67.0L56.4,67.4L57.7,67.5L69.5,67.3L71.8,67.0L73.6,66.1L74.4,65.5L76.0,63.7L76.6,62.4L77.2,60.1L77.2,48.1L77.4,47.8L78.1,47.6L80.9,47.6L81.1,47.3L78.9,45.2L78.4,44.5L77.5,42.9L77.2,41.8L76.9,40.0L76.8,38.0L76.8,32.2Z M45.8,38.6L47.6,36.8L49.2,35.7L50.8,34.8L53.7,33.7L54.9,33.5L55.9,33.1L58.1,33.0L58.2,33.4L56.8,34.1L55.9,34.8L55.0,36.1L54.4,37.9L54.5,40.0L55.2,41.5L56.3,42.7L57.4,43.5L58.9,43.9L60.6,43.9L61.0,43.8L61.5,43.8L62.6,43.2L63.3,42.7L64.0,41.9L64.8,40.4L65.0,39.7L65.0,37.3L64.8,36.6L64.2,35.6L62.7,34.1L61.6,33.5L61.6,33.1L62.8,33.0L66.1,33.8L69.8,35.4L72.6,37.5L73.3,38.1L73.5,38.5L73.5,39.0L73.0,39.7L71.5,40.9L68.6,42.7L66.6,43.4L66.1,43.8L65.0,43.9L64.5,44.2L63.8,44.4L62.2,44.6L60.5,44.6L60.1,44.8L55.4,44.3L54.4,43.9L53.3,43.8L52.4,43.3L52.1,43.3L51.6,42.9L50.7,42.7L48.9,41.5L48.5,41.5L45.9,39.3Z M44.3,36.6L46.4,34.8L48.1,33.7L51.5,31.9L53.1,31.4L53.7,31.4L54.7,31.0L55.4,31.0L55.8,30.7L58.0,30.5L60.7,30.5L63.3,30.7L65.8,31.3L67.5,31.8L70.6,33.3L71.3,33.9L72.5,34.4L75.0,36.6L74.9,37.3L74.6,37.3L72.0,35.3L71.1,34.8L70.1,34.1L67.2,32.8L63.8,31.8L62.8,31.6L61.5,31.6L60.7,31.4L57.2,31.5L56.7,31.7L55.9,31.7L53.8,32.3L53.1,32.4L51.3,33.0L48.5,34.4L48.2,34.8L46.9,35.5L44.8,37.2L44.3,37.1Z M78.2,29.3L77.8,29.8L77.7,30.3L77.9,39.9L78.1,41.4L78.6,42.3L78.6,42.8L79.3,44.0L81.0,45.9L82.0,46.6L83.8,47.4L87.3,47.6L92.1,47.5L92.9,47.3L93.1,47.1L93.1,43.6L92.9,43.0L92.6,42.7L91.0,42.4L90.2,41.8L89.6,41.3L89.1,40.4L88.9,39.7L88.4,39.2L88.4,38.5L88.6,38.1L88.7,37.3L88.6,29.7L88.4,29.3L87.5,29.0Z M103.6,16.9L102.6,17.7L102.0,17.7L101.6,17.2L101.2,17.2L100.9,17.7L101.0,26.2L100.8,26.9L100.6,27.1L99.2,26.9L97.8,26.2L97.1,26.1L94.3,25.0L92.8,24.6L91.6,24.1L91.2,24.2L91.3,25.5L90.5,26.0L90.4,26.4L90.7,26.8L93.2,27.5L96.5,28.8L96.8,28.8L97.8,29.3L98.8,29.5L99.7,30.2L99.7,30.6L95.6,36.0L94.3,38.0L94.4,38.6L95.5,38.7L95.8,39.0L95.9,40.0L96.4,39.9L96.6,39.7L96.9,38.9L97.4,38.5L99.2,36.4L100.9,33.8L102.5,32.2L102.8,32.2L103.4,32.8L108.7,39.7L109.0,39.8L109.2,39.6L109.2,38.9L109.5,38.5L110.8,38.4L110.8,37.9L108.9,35.3L108.0,34.4L107.8,34.0L106.9,32.9L106.4,31.9L105.5,31.0L105.4,30.3L105.8,29.9L106.8,29.4L109.7,28.4L112.1,27.3L112.7,27.2L113.9,26.7L114.2,26.7L114.6,26.5L114.7,26.1L113.8,25.5L113.6,24.8L113.9,24.0L113.9,23.7L113.5,23.7L106.4,26.4L105.8,26.8L105.0,27.0L104.1,27.0L103.9,26.6L103.9,18.9L103.8,17.1Z M103.3,27.7L103.6,27.8L104.1,28.4L104.3,29.0L104.3,30.0L103.3,31.0L102.7,31.3L102.2,31.3L101.5,30.8L100.8,30.2L100.7,29.6L101.2,28.4L101.9,27.8Z M88.4,13.3L88.1,12.8L87.8,12.7L83.7,12.8L83.2,13.3L82.6,15.7L82.3,16.0L81.6,17.4L80.8,18.3L79.7,19.1L78.1,19.7L76.5,20.0L75.3,20.0L73.7,19.6L72.4,19.0L70.5,17.3L69.4,15.3L69.3,14.5L68.9,13.3L68.5,13.1L64.4,13.2L63.9,13.6L63.5,15.5L62.2,17.8L61.1,18.8L60.0,19.6L59.3,19.7L58.8,20.1L57.6,20.3L55.7,20.3L54.1,19.8L53.6,19.5L53.1,19.4L52.0,18.5L51.1,17.6L50.4,16.4L49.8,15.0L49.7,13.9L49.4,13.5L47.0,13.4L44.9,13.5L44.6,13.5L44.4,13.9L43.9,16.1L42.9,17.9L41.2,19.6L39.6,20.3L38.3,20.7L36.4,20.7L35.3,20.5L34.3,20.1L32.7,19.2L31.1,17.4L30.4,16.2L30.0,14.6L29.7,13.9L28.5,13.7L24.9,13.8L24.4,14.1L24.3,14.6L24.5,28.4L25.1,29.0L28.4,29.0L32.5,28.8L41.1,28.8L43.9,28.6L57.4,28.4L60.2,28.5L76.8,28.1L77.8,28.2L88.2,27.9L88.3,27.8L88.6,27.0Z M116.9,10.0L116.3,9.9L106.5,10.0L104.1,9.9L100.7,10.2L97.8,10.1L93.8,10.3L83.5,10.3L81.5,10.5L67.5,10.6L63.4,10.7L62.2,10.9L43.9,11.2L42.5,11.1L40.8,11.3L35.5,11.3L31.3,11.5L24.9,11.5L15.4,11.9L13.4,11.8L10.1,11.9L9.5,12.1L9.3,12.7L9.5,26.8L9.4,29.3L9.6,30.4L9.8,45.7L10.0,48.0L10.0,57.3L10.1,60.7L10.3,62.1L10.3,73.1L10.7,89.1L10.7,96.6L11.1,110.2L11.1,115.7L11.3,117.6L11.5,118.1L11.7,118.4L15.1,118.4L21.9,118.1L35.7,117.7L36.8,117.5L42.2,117.4L51.5,116.9L53.1,117.0L55.4,116.9L58.2,116.9L64.0,116.5L70.5,116.5L71.8,116.3L80.6,116.1L82.2,115.9L83.4,116.0L84.5,115.8L89.5,115.8L91.4,115.7L93.6,115.7L94.9,115.6L102.3,115.5L110.8,115.1L111.9,115.2L113.5,115.0L115.0,115.1L115.7,114.9L118.2,114.9L118.7,114.7L118.9,114.4L118.9,111.4L118.7,106.0L118.7,99.6L118.3,85.6L118.4,84.3L118.1,76.4L118.0,64.0L117.8,62.3L117.9,57.9L117.7,54.9L117.7,49.5L117.5,45.1L117.6,42.8L117.4,37.0L117.5,33.6L117.2,22.0L117.2,10.7Z M115.6,11.2L116.0,11.9L115.9,13.4L116.2,17.0L116.4,43.3L116.6,45.9L116.5,47.9L116.7,49.5L116.8,65.1L117.0,66.2L116.9,71.3L117.3,85.6L117.2,89.0L117.6,107.2L117.5,108.9L117.7,112.9L117.5,113.3L117.0,113.7L115.6,113.7L114.8,113.9L87.3,114.6L79.4,115.0L77.8,114.9L68.1,115.4L63.8,115.4L62.9,115.6L58.0,115.6L56.2,115.7L48.1,115.9L46.4,116.1L39.8,116.2L36.4,116.5L23.7,116.9L20.7,117.1L20.0,117.0L14.9,117.3L12.8,117.2L12.4,116.8L12.1,110.4L11.9,87.6L11.7,84.2L11.5,68.1L11.3,65.4L11.2,56.0L11.0,53.0L11.0,43.5L10.8,40.9L10.7,29.3L10.5,22.0L10.5,13.5L11.1,13.0L27.5,12.7L29.0,12.5L36.8,12.3L46.7,12.3L56.5,12.0L67.6,12.0L74.4,11.7L87.7,11.6L89.6,11.4L96.9,11.4L105.0,11.1L115.1,11.1Z" fill="#000" fill-rule="evenodd"/>
</svg>