<svg xmlns="http://www.w3.org/2000/svg" viewBox="0 0 128 128" width="128" height="128">
  <path d="M53.2,80.0L53.7,80.4L56.4,80.3L57.1,79.6L57.2,78.9L57.1,78.7L54.1,78.6L53.3,79.3Z M78.7,70.5L78.6,71.0L78.6,74.1L79.2,74.8L79.8,74.9L80.1,74.3L80.0,71.3L79.7,70.7L79.3,70.5Z M47.7,53.4L47.7,56.5L48.5,57.2L49.0,57.1L49.2,56.6L49.2,55.1L49.0,53.8L48.3,53.3Z M74.7,48.5L74.4,48.1L74.0,48.0L71.7,48.1L71.0,48.7L70.8,49.3L71.1,49.7L73.8,49.7L74.6,48.9Z M93.1,9.4L67.3,9.4L65.2,9.6L45.0,9.6L34.3,9.9L34.1,10.2L34.1,10.6L34.9,12.1L36.1,14.0L37.6,16.6L37.9,17.5L38.6,18.3L39.0,19.2L41.1,22.5L41.6,23.5L42.8,25.4L44.3,28.1L44.4,32.1L44.3,39.6L43.8,42.2L43.2,43.8L42.9,44.6L42.3,45.1L41.6,45.2L40.4,45.0L28.0,45.0L23.5,42.6L22.7,42.1L19.8,40.5L18.9,39.8L17.5,39.2L16.9,38.7L16.3,38.6L14.3,37.3L12.7,36.5L11.7,35.8L10.2,35.0L9.7,35.1L9.7,54.1L10.0,67.8L9.9,80.5L10.0,91.7L10.1,94.2L10.8,94.3L13.4,92.9L13.8,92.5L13.9,92.5L15.3,91.6L15.9,91.4L16.3,90.9L17.6,90.4L18.3,89.8L21.0,88.3L21.5,87.9L21.9,87.8L22.5,87.3L22.8,87.2L24.9,85.9L26.1,85.4L26.7,84.8L27.5,84.5L28.7,83.8L35.0,83.6L39.5,83.7L43.0,84.4L44.7,85.3L45.2,85.9L45.0,88.2L45.0,99.2L44.4,100.5L43.0,102.7L41.8,105.2L40.8,106.7L40.5,107.6L39.9,108.4L38.7,110.8L37.9,111.8L35.6,116.1L35.1,117.4L34.7,117.8L34.5,118.7L34.8,118.8L36.8,118.9L39.1,118.7L49.9,118.7L55.4,118.6L56.9,118.7L62.3,118.6L64.7,118.4L72.8,118.5L93.9,118.2L93.9,117.3L92.0,114.3L91.9,113.9L91.5,113.6L90.3,111.2L89.9,110.7L83.7,100.0L83.6,94.9L83.7,88.3L84.3,85.3L84.8,84.1L85.1,83.4L85.5,83.1L100.0,83.2L103.1,84.8L104.9,85.9L106.7,86.9L107.1,87.2L107.8,87.4L108.5,88.0L110.4,88.9L111.1,89.4L111.8,89.7L112.1,90.0L114.4,91.2L114.7,91.5L115.3,91.7L116.2,92.3L118.1,93.2L118.4,93.2L118.7,93.0L118.5,71.3L118.2,64.9L118.3,61.0L118.1,58.7L118.1,51.8L118.0,48.1L118.0,46.5L117.8,34.7L117.5,34.4L116.9,34.4L115.7,35.2L114.7,35.7L113.7,36.4L112.0,37.3L110.4,38.4L105.9,40.9L103.5,42.4L100.2,44.3L96.0,44.5L88.5,44.5L86.7,44.2L84.5,43.6L83.5,43.1L83.1,42.6L83.2,28.0L83.9,26.9L86.2,22.3L87.1,21.1L87.4,20.4L87.6,20.1L89.5,16.7L90.1,15.9L90.5,14.8L92.8,10.8L93.2,10.0Z M42.5,113.8L42.5,113.4L42.9,112.8L43.0,112.3L43.4,111.8L46.1,106.7L46.7,106.0L47.0,105.9L47.4,105.9L48.4,106.3L48.8,106.3L50.2,106.9L51.2,107.1L53.3,107.8L54.7,108.0L55.6,108.3L59.3,108.8L63.6,109.1L68.6,108.9L70.6,108.5L72.3,108.5L73.7,108.0L76.9,107.3L77.6,107.0L78.3,106.9L79.2,106.4L79.6,106.4L80.8,106.0L81.5,106.0L81.9,106.1L82.4,106.9L86.0,113.0L86.0,113.3L85.7,113.6L84.8,113.8L59.0,114.1L53.7,114.0L50.1,114.2L43.9,114.2L43.0,114.1Z M79.9,81.7L80.3,81.9L80.4,82.6L80.1,83.2L79.9,84.6L79.6,85.2L79.4,86.7L79.1,87.5L79.0,88.8L79.0,95.2L79.2,100.9L78.9,101.9L78.6,102.1L77.8,102.2L77.4,101.7L77.3,90.6L77.4,87.5L77.8,85.3L78.6,82.7L79.1,81.8Z M74.1,78.9L74.7,79.3L74.8,79.5L74.8,80.0L73.8,83.1L72.9,88.3L73.1,103.0L73.0,103.4L72.4,104.0L71.9,104.1L71.2,103.4L71.0,102.3L71.0,95.8L70.9,91.7L71.0,88.6L71.3,85.2L72.3,80.9L72.9,79.5L73.5,78.9Z M26.1,77.9L26.5,77.6L27.9,77.4L39.2,77.3L42.3,77.8L45.6,78.7L46.7,79.3L46.7,80.1L46.3,80.5L45.8,80.5L42.4,79.4L39.8,79.0L35.1,78.9L26.7,79.1L26.1,78.5Z M68.7,74.8L69.3,75.3L69.3,76.2L68.3,78.9L68.1,79.8L67.2,82.5L67.1,83.5L66.6,85.2L66.5,87.3L66.3,88.2L66.5,103.9L66.3,104.5L66.0,104.7L65.4,104.7L64.8,104.0L64.7,102.9L64.7,87.2L65.6,82.1L66.6,78.5L68.0,75.3L68.4,74.8Z M58.2,71.6L58.8,71.6L60.9,73.2L62.5,74.8L62.8,75.3L62.8,75.7L62.0,78.2L61.8,79.3L61.6,79.6L60.9,82.2L60.4,85.6L60.1,89.8L59.6,90.6L59.0,90.7L57.0,90.6L56.5,90.1L56.2,82.6L55.5,82.1L53.8,82.3L53.4,82.7L53.3,83.2L53.5,86.3L53.4,92.6L53.5,93.7L54.1,94.3L56.7,94.9L57.0,95.1L57.5,95.1L58.6,95.5L59.6,95.6L60.2,96.0L60.4,99.0L60.4,104.1L59.9,104.7L55.7,104.1L53.2,103.3L52.4,103.2L49.9,102.1L49.6,101.8L49.4,97.1L49.4,96.0L49.7,95.6L50.3,95.1L51.8,94.5L52.3,93.7L52.4,91.8L52.2,91.0L51.9,90.7L50.1,90.7L49.8,90.6L49.4,90.1L49.4,88.2L49.6,86.3L50.1,84.5L50.2,83.6L50.6,82.9L50.7,82.1L52.2,78.6L54.2,75.4L56.1,73.1L57.3,72.0Z M24.3,71.6L24.7,71.1L25.0,71.0L35.4,70.8L39.7,70.9L43.3,71.4L47.3,72.5L49.4,73.4L49.6,73.8L49.6,74.2L49.2,74.8L48.1,74.9L46.4,74.2L44.6,73.8L43.6,73.4L41.2,72.9L38.5,72.8L33.1,72.9L25.1,72.9L24.5,72.8L24.3,72.4Z M71.3,69.7L72.3,68.2L73.9,66.4L74.9,65.4L75.4,65.3L76.9,65.5L78.3,66.1L81.6,66.8L82.6,67.2L83.7,67.2L85.9,67.7L90.0,67.8L90.3,68.3L90.5,69.1L90.4,70.6L90.1,71.2L89.3,71.4L82.8,71.5L82.4,71.7L82.1,72.4L82.3,74.2L82.6,74.5L83.3,74.6L93.6,74.5L93.9,74.4L94.5,73.8L95.3,70.5L95.6,68.6L96.2,67.8L104.0,67.6L104.5,68.0L104.6,68.3L104.5,69.7L104.2,70.6L104.0,73.0L103.8,73.3L103.6,74.6L103.3,75.2L103.2,75.9L102.8,76.9L102.6,77.8L102.3,78.2L101.8,78.6L100.3,78.8L95.7,78.7L95.1,78.2L94.5,76.7L94.0,76.1L93.5,75.7L91.1,75.7L90.7,76.1L90.5,76.7L90.4,78.4L90.0,78.8L87.5,78.9L83.0,78.0L79.7,76.8L77.3,75.6L75.1,74.2L73.8,73.1L73.5,73.0L71.8,71.3L71.2,70.5Z M23.6,65.4L24.0,65.0L24.8,64.8L38.1,64.6L42.0,64.9L44.4,65.3L49.9,66.8L53.2,68.3L53.6,68.7L53.6,69.2L53.2,69.6L52.5,69.6L46.8,67.4L46.4,67.4L43.0,66.5L39.2,66.2L24.2,66.5L23.6,65.9Z M74.6,59.3L74.8,58.9L75.1,58.7L76.0,58.7L79.3,60.0L80.0,60.1L80.5,60.3L85.9,61.5L89.6,61.6L96.1,61.5L104.0,61.5L104.3,61.5L104.6,61.8L104.7,62.4L104.3,62.9L103.5,63.1L95.5,63.1L87.9,63.3L86.2,63.0L84.9,63.0L83.9,62.7L82.4,62.6L82.1,62.4L81.5,62.4L77.6,61.2L75.0,60.1L74.7,59.7Z M62.9,57.8L63.6,58.0L67.0,60.6L69.7,62.2L70.3,62.9L70.3,63.3L69.9,64.0L68.9,65.1L68.4,66.0L67.4,67.1L65.7,69.9L65.1,70.4L64.6,70.4L64.1,70.1L61.3,67.8L58.3,65.8L57.7,65.2L58.0,64.2L60.1,61.6L62.2,58.4Z M41.0,55.0L41.1,55.3L40.7,55.4Z M78.6,54.1L79.2,53.4L80.0,53.4L81.2,53.8L82.1,53.9L82.6,54.2L86.7,55.1L87.3,55.0L88.8,55.1L94.7,55.1L102.2,55.0L103.3,55.1L103.8,55.6L103.9,56.4L103.4,56.8L102.7,57.0L99.5,56.9L91.2,57.1L86.7,56.9L83.4,56.4L80.1,55.4L79.1,55.0L78.6,54.5Z M23.8,59.7L24.0,56.7L25.4,51.3L26.0,50.0L26.3,49.8L27.0,49.6L31.6,49.5L32.6,49.7L33.4,50.7L33.8,51.8L34.2,52.3L34.8,52.5L37.0,52.4L37.2,52.2L37.3,51.6L37.3,50.1L37.5,49.8L37.9,49.5L39.1,49.4L41.3,49.6L44.9,50.3L45.4,50.6L46.3,50.8L47.6,51.3L51.6,53.5L53.2,54.6L54.5,55.8L56.2,57.5L56.5,57.9L56.4,58.9L55.5,60.2L53.2,62.6L52.7,62.8L51.7,62.7L49.1,61.7L48.2,61.6L46.9,61.2L44.6,60.6L42.5,60.4L41.4,60.2L38.1,60.0L37.6,59.7L37.4,58.9L37.5,57.3L37.9,56.8L38.8,56.5L41.6,56.6L42.2,56.4L45.6,56.4L46.0,55.9L45.9,53.7L45.3,53.2L42.6,53.2L41.9,53.4L40.9,54.1L40.8,53.7L40.5,53.3L34.5,53.3L34.0,53.8L33.8,54.1L33.6,55.1L33.2,55.9L32.9,57.6L32.7,58.2L32.6,59.3L32.2,59.9L31.8,60.1L31.0,60.2L25.6,60.2L24.1,60.1Z M81.5,48.3L81.7,47.9L82.1,47.7L82.7,47.7L84.4,48.4L88.6,49.0L91.9,49.0L94.4,48.8L100.4,48.8L101.5,49.0L102.0,49.6L102.0,50.3L101.5,50.7L87.9,50.8L84.0,50.1L81.9,49.4L81.5,49.0Z M14.5,43.1L15.1,43.1L16.1,43.6L16.3,43.8L17.1,44.1L17.4,44.4L21.3,46.4L22.2,47.3L22.2,47.8L22.0,48.1L21.9,48.7L20.8,51.7L20.7,52.6L19.8,56.3L19.6,58.2L19.4,58.8L19.2,60.2L19.2,67.4L19.3,68.6L19.6,69.6L19.8,72.2L20.1,72.9L20.2,74.2L20.6,75.1L20.8,76.3L21.3,77.4L21.4,78.6L22.3,80.5L22.4,81.7L22.0,82.2L20.9,83.0L19.4,83.7L15.6,86.0L14.9,86.0L14.6,85.5L14.6,75.7L14.4,67.8L14.5,63.0L14.3,56.6L14.4,52.6L14.2,50.9L14.2,44.1Z M112.5,42.3L113.1,42.3L113.4,42.6L113.5,43.1L113.6,54.7L113.9,62.9L114.0,76.6L114.2,80.1L114.2,83.6L114.1,84.9L113.8,85.3L113.4,85.3L112.7,84.9L112.4,84.6L110.4,83.7L108.9,82.7L108.1,82.4L106.6,81.4L106.1,80.7L106.3,79.6L107.6,75.7L108.3,72.3L108.5,70.2L108.8,69.0L109.0,63.8L108.8,60.3L108.5,59.0L108.2,56.1L107.9,55.0L107.7,53.8L107.4,53.2L107.1,51.6L106.4,49.8L106.1,48.7L105.8,48.3L105.8,47.9L105.5,47.3L105.5,46.5L106.6,45.7Z M49.8,25.9L50.5,26.0L50.7,26.5L50.7,37.0L50.5,41.3L49.4,45.1L48.7,46.4L48.3,46.7L48.1,46.7L47.6,46.2L47.6,45.5L48.1,44.7L48.1,43.9L48.9,41.4L49.2,38.6L49.1,26.9L49.2,26.5Z M56.3,24.1L56.8,24.4L57.0,25.2L57.0,32.4L57.1,38.8L56.6,43.5L55.7,47.0L54.8,49.1L54.5,49.6L53.9,49.7L53.5,49.5L53.2,49.0L53.2,48.0L54.3,45.0L55.2,40.2L55.0,27.0L55.1,24.9L55.6,24.3Z M68.4,23.7L70.0,23.7L71.0,24.0L72.5,24.2L73.5,24.6L74.4,24.6L75.2,25.0L77.3,25.6L77.9,25.9L78.5,26.5L78.6,27.4L78.5,32.6L78.1,33.1L76.6,33.6L76.0,34.3L75.9,34.8L75.9,36.1L76.1,36.8L76.6,37.2L78.2,37.3L78.6,37.8L78.5,41.3L77.8,44.8L76.8,47.7L74.7,51.7L73.8,52.9L71.7,55.4L70.5,56.5L69.7,56.9L69.1,56.7L66.5,54.8L65.7,53.9L65.1,53.1L65.2,52.3L65.7,51.2L65.7,50.8L66.4,48.7L66.5,47.9L67.0,46.7L67.0,46.2L67.5,44.0L68.2,37.8L68.7,37.3L70.7,37.3L71.4,37.6L71.7,38.9L71.8,45.7L72.4,46.2L73.4,46.2L74.5,45.9L74.7,45.5L74.8,44.5L74.6,34.9L74.4,34.3L73.7,33.8L71.5,33.1L68.6,32.5L68.1,32.0L67.9,30.4L67.9,24.6L68.0,24.2Z M62.5,23.3L63.0,23.7L63.1,24.0L63.2,25.8L63.2,31.5L63.4,34.3L63.3,40.4L63.0,41.7L62.9,43.4L61.8,48.3L61.5,48.7L60.8,50.9L59.7,53.3L59.3,53.8L58.9,53.8L58.4,53.2L58.4,52.5L59.3,50.7L60.6,46.8L61.5,42.2L61.8,39.2L61.8,30.9L61.6,24.3L61.7,23.9L62.2,23.3Z M85.3,14.4L85.3,14.8L83.7,18.2L82.6,19.7L81.7,21.6L81.0,22.2L80.3,22.2L77.3,21.1L74.4,20.5L73.8,20.2L71.2,19.5L69.4,19.5L68.0,19.2L64.5,19.0L62.1,19.0L56.6,19.5L50.4,21.0L47.9,22.0L46.5,22.2L46.0,21.9L44.9,19.8L44.1,18.6L42.1,14.9L42.1,14.6L42.8,14.2L46.5,14.2L48.8,14.0L56.5,14.1L65.7,13.9L84.6,13.9L85.0,14.0Z" fill="#000" fill-rule="evenodd"/>
</svg>