<svg xmlns="http://www.w3.org/2000/svg" viewBox="0 0 128 128" width="128" height="128">
  <path d="M96.2,106.5L96.1,105.6L95.5,104.3L94.4,103.2L92.7,102.9L75.1,103.1L71.7,103.3L58.6,103.4L55.5,103.6L37.2,103.8L36.4,104.0L35.5,104.4L34.8,105.0L34.2,106.1L34.0,107.0L34.0,108.0L34.2,108.6L34.7,109.4L35.4,110.0L36.4,110.6L38.1,110.9L42.8,110.9L45.5,110.7L54.6,110.6L58.8,110.4L61.0,110.5L70.3,110.2L77.9,110.2L80.3,110.0L87.2,110.0L91.1,109.9L92.6,110.0L93.9,109.8L94.7,109.3L95.7,108.2L96.1,107.4Z M36.5,94.2L35.3,95.0L34.4,95.8L33.9,97.0L34.0,98.9L34.2,99.3L35.0,100.4L35.8,101.0L36.7,101.2L38.0,101.2L39.5,100.5L40.2,99.7L40.4,99.0L40.5,98.8L40.6,97.0L40.1,95.7L39.1,94.7L38.1,94.2Z M45.5,94.2L44.5,94.8L43.7,95.8L43.3,97.0L43.4,98.7L43.7,99.5L44.7,100.6L46.1,101.0L47.7,101.0L48.5,100.5L49.3,99.8L49.6,99.1L50.0,97.7L50.0,97.1L49.7,96.2L49.4,95.5L48.2,94.4L47.4,94.1Z M55.3,94.0L54.1,94.4L53.2,95.3L52.8,96.0L52.5,97.1L52.5,98.0L53.0,99.2L54.0,100.3L55.2,100.9L56.6,100.9L57.8,100.3L58.5,99.6L59.3,98.0L59.4,97.3L58.7,95.5L57.5,94.2L56.7,94.0Z M64.2,93.9L63.2,94.4L62.4,95.1L61.8,96.1L61.6,97.7L62.0,98.9L62.5,99.6L63.1,100.2L64.2,100.8L65.5,100.9L66.4,100.6L67.3,100.0L67.8,99.5L68.4,98.3L68.5,96.7L67.9,95.3L67.2,94.6L66.4,94.0L65.5,93.8Z M73.6,93.7L72.4,94.2L71.5,95.1L71.2,95.8L71.0,96.5L71.0,98.2L71.5,99.3L72.5,100.1L73.9,100.7L74.9,100.7L76.1,100.1L77.0,99.3L77.6,98.0L77.6,96.5L77.1,95.1L76.5,94.5L75.9,94.0L75.0,93.7Z M83.3,93.5L82.5,93.7L81.5,94.1L81.0,94.7L80.5,95.6L80.5,96.0L80.3,96.2L80.2,97.8L80.7,99.0L81.9,100.1L82.9,100.5L83.9,100.5L84.9,100.2L86.2,99.1L86.7,98.1L86.8,96.3L86.6,95.7L85.5,94.2L84.1,93.5Z M93.4,93.4L91.8,93.5L91.2,93.8L90.5,94.4L89.7,95.3L89.3,97.0L89.5,98.1L90.2,99.2L90.9,99.9L92.5,100.4L93.7,100.2L94.5,99.9L95.6,98.8L96.1,97.2L96.1,96.3L95.4,94.7L94.4,93.8Z M36.4,84.9L35.5,85.2L34.8,85.7L34.0,86.9L33.7,87.7L33.8,89.3L34.4,90.4L35.0,91.0L35.7,91.5L36.6,91.8L38.3,91.7L39.8,90.4L40.4,89.1L40.4,87.5L40.0,86.5L38.9,85.3L37.3,84.8Z M56.2,84.6L55.0,84.7L53.6,85.2L52.7,86.1L52.3,87.1L52.3,89.0L52.5,89.6L52.9,90.3L53.6,91.0L54.8,91.5L56.3,91.5L57.5,91.0L58.4,90.0L58.9,88.5L58.8,87.1L58.4,86.1L57.5,85.2Z M45.5,84.7L44.5,85.1L43.8,85.8L43.3,86.5L43.1,87.0L42.9,88.5L43.4,90.0L44.4,91.0L45.8,91.6L46.9,91.6L47.9,91.2L49.1,90.1L49.6,88.9L49.6,87.5L49.4,86.6L48.6,85.6L48.2,85.2L46.7,84.6Z M64.4,84.3L63.1,84.7L62.3,85.4L61.5,86.6L61.4,88.2L61.8,89.7L62.6,90.5L63.6,91.0L64.4,91.2L65.4,91.2L66.5,90.8L67.3,90.1L67.7,89.5L67.8,88.5L68.0,88.1L68.0,86.9L67.4,85.7L66.5,84.8L65.5,84.4Z M82.7,84.1L81.5,84.7L80.3,85.9L79.8,87.2L79.9,88.5L80.5,89.9L81.4,90.6L81.5,90.6L81.8,90.9L83.5,91.1L84.9,90.7L85.5,90.1L86.1,89.4L86.5,88.4L86.5,87.0L86.2,86.0L85.2,84.8L84.2,84.2Z M73.8,84.1L72.4,84.6L71.5,85.2L71.1,85.8L70.6,86.8L70.5,87.7L70.9,89.3L71.5,90.0L72.7,91.0L73.4,91.1L74.9,91.0L75.8,90.6L76.9,89.4L77.2,88.7L77.3,87.2L76.9,86.0L75.9,84.8L74.9,84.3Z M91.1,84.2L89.8,85.2L89.3,86.1L89.0,87.1L89.3,89.0L89.7,89.8L90.5,90.5L91.1,90.8L91.8,91.0L93.0,91.0L93.7,90.8L94.9,89.9L95.5,88.7L95.6,86.5L95.0,85.3L93.8,84.3L93.0,84.0Z M73.0,61.0L72.6,60.2L63.6,60.4L56.5,60.3L55.9,60.8L55.9,61.7L56.8,64.3L58.2,66.2L59.2,67.1L60.1,67.8L62.1,68.6L63.5,68.9L65.6,68.9L67.0,68.6L68.5,68.0L69.9,67.0L70.7,66.1L71.8,64.8L72.4,63.7L72.9,62.0Z M52.5,37.0L52.5,37.5L53.5,39.9L54.7,41.4L56.7,43.2L57.6,43.9L60.5,45.1L62.3,45.5L63.5,45.6L66.2,45.3L66.5,45.1L68.3,44.7L70.3,43.6L71.8,42.4L73.4,40.6L74.7,38.2L75.0,37.4L75.0,37.1L74.7,36.8L73.5,36.8L73.0,37.0L72.5,38.0L71.1,40.0L70.0,41.1L67.6,42.6L65.5,43.2L63.4,43.3L60.5,42.8L58.3,41.6L57.2,40.8L55.4,38.6L54.7,37.3L54.3,36.9L52.9,36.8Z M57.3,27.1L56.5,28.0L56.4,29.1L56.7,29.8L57.1,30.0L57.9,30.1L58.5,30.0L59.3,29.1L59.3,28.1L58.5,27.2Z M68.8,27.0L68.2,27.5L67.9,28.0L67.9,28.9L68.0,29.1L68.6,29.8L69.1,30.0L69.6,30.0L70.2,29.7L70.6,29.2L70.7,28.2L70.4,27.4L70.0,27.1L69.5,27.0Z M91.2,9.4L88.6,9.2L54.8,9.4L37.4,9.3L36.3,9.4L35.9,9.7L35.8,16.1L36.0,25.8L36.0,36.1L36.2,42.4L36.1,45.0L36.2,45.4L36.5,45.8L38.0,45.7L40.3,45.0L42.3,44.0L43.5,43.0L44.8,41.7L46.1,40.0L46.6,38.9L47.2,37.3L47.6,35.2L47.4,23.1L47.5,22.0L47.8,21.4L48.2,21.2L49.9,21.0L66.9,21.0L69.2,20.9L70.7,20.6L72.6,19.9L74.3,19.0L76.0,17.5L77.9,15.0L78.5,13.7L79.0,12.3L79.1,11.4L79.3,11.2L79.6,11.3L79.9,13.0L80.1,20.0L80.1,27.8L80.3,30.9L80.2,34.0L80.4,35.4L81.2,38.2L81.6,39.3L82.1,39.8L82.8,41.0L84.7,42.9L87.3,44.4L88.9,45.0L90.4,45.3L91.4,45.3L91.9,45.5L92.4,46.2L92.5,48.3L92.4,49.6L91.6,52.9L91.3,53.3L91.1,54.0L90.8,54.2L90.5,54.9L89.8,55.9L88.0,57.8L85.6,59.1L84.1,59.5L83.6,59.8L82.2,60.0L81.7,60.2L81.5,60.8L81.5,63.0L81.3,63.3L81.0,65.0L80.5,66.4L80.2,67.0L80.0,67.7L78.0,71.0L76.0,73.0L74.0,74.6L70.8,76.3L67.6,77.2L65.5,77.5L63.6,77.5L60.6,77.0L58.9,76.6L58.0,76.1L57.6,76.1L54.4,74.2L51.9,72.0L50.0,69.7L48.9,67.9L47.8,65.0L47.3,62.6L47.2,60.9L46.9,60.5L28.4,60.5L28.3,60.3L28.6,60.0L30.0,59.3L32.0,57.9L33.5,56.2L34.5,54.6L35.5,52.0L35.8,50.3L35.8,46.2L35.6,46.0L21.2,46.0L18.3,46.2L17.9,46.5L17.7,47.0L17.7,55.0L18.0,60.4L18.1,60.6L18.8,60.7L24.2,60.7L24.5,60.8L25.0,61.3L25.2,62.8L25.3,67.3L25.2,72.3L25.5,78.9L25.5,93.3L25.6,97.8L25.6,104.3L25.8,108.0L26.2,110.2L27.0,112.4L27.5,113.4L28.5,114.9L29.7,116.0L31.7,117.5L34.2,118.6L35.8,119.0L37.7,119.0L41.8,118.9L43.4,119.0L44.5,118.8L50.0,118.8L51.9,118.6L55.4,118.7L56.7,118.5L65.8,118.5L67.7,118.3L74.9,118.3L78.1,118.1L85.0,118.1L93.9,117.9L96.0,117.5L98.6,116.3L100.0,115.3L101.1,114.2L102.7,112.0L103.2,111.1L103.5,109.9L103.6,109.6L104.1,107.0L103.8,99.5L103.6,82.1L103.5,80.4L103.5,77.5L103.4,71.7L103.4,60.6L103.5,60.2L104.0,59.9L110.1,59.8L110.4,59.7L110.5,59.3L110.3,45.9L110.2,45.6L109.5,45.3L98.6,45.6L96.7,45.4L93.4,45.5L92.6,45.3L92.3,45.0L92.1,44.1L92.0,41.0L92.1,35.7L91.7,27.8L91.8,26.0L91.5,17.3L91.5,11.2L91.5,10.0Z M99.0,84.8L99.5,87.2L99.5,89.9L99.6,91.6L99.6,95.5L99.8,98.4L99.8,107.8L99.3,109.4L98.6,110.6L97.3,112.0L96.3,112.8L95.2,113.2L93.9,113.6L82.0,113.8L79.2,114.0L77.8,113.9L71.9,114.1L69.0,114.0L66.8,114.2L64.4,114.1L62.8,114.3L59.5,114.2L56.8,114.4L55.6,114.3L42.9,114.7L37.3,114.7L35.9,114.6L34.1,114.0L32.5,112.8L31.3,111.5L31.0,110.9L30.7,110.6L30.1,108.7L30.0,107.2L30.0,100.2L29.8,98.9L29.7,87.5L30.5,85.0L31.3,83.9L32.6,82.5L34.0,81.7L36.1,81.0L37.9,80.9L45.8,80.9L62.2,80.5L72.1,80.5L76.1,80.3L85.0,80.3L87.7,80.1L93.3,80.1L94.5,80.4L96.2,81.2L97.8,82.7L98.4,83.4Z" fill="#000" fill-rule="evenodd"/>
</svg>