<svg xmlns="http://www.w3.org/2000/svg" viewBox="0 0 128 128" width="128" height="128">
  <path d="M13.1,86.3L13.1,86.7L13.5,87.9L14.5,89.8L15.0,90.5L15.7,91.9L18.5,96.3L20.0,98.1L20.3,98.7L22.3,101.0L25.3,104.0L28.0,106.5L30.1,108.2L30.3,108.2L33.6,110.6L34.5,111.0L36.1,112.1L37.6,112.8L38.6,113.5L40.3,114.2L40.7,114.5L42.4,115.1L43.9,115.8L44.6,116.0L46.3,116.7L47.2,116.9L49.2,117.6L50.8,117.9L51.6,118.2L54.6,118.7L55.4,118.9L57.0,118.9L57.0,118.1L56.8,118.0L56.7,117.2L55.9,115.5L55.5,114.5L54.7,112.5L53.9,111.0L53.9,110.7L53.6,110.2L53.3,109.2L52.5,107.5L52.2,107.1L51.3,104.4L50.3,102.5L50.2,102.0L49.4,100.1L49.4,99.8L48.2,97.5L47.0,94.3L46.3,93.1L45.9,91.8L45.4,90.9L45.2,90.0L44.5,88.8L44.4,88.2L43.7,86.8L43.5,86.2L42.8,85.9L32.3,85.9L20.3,86.1L14.4,86.0L13.4,86.1Z M115.1,85.7L114.5,85.6L110.6,85.6L110.1,85.7L110.1,86.0L109.5,86.5L108.9,86.5L108.4,86.0L107.3,85.6L104.5,85.8L100.9,85.6L92.7,85.8L86.5,85.7L85.6,85.8L85.0,86.1L84.5,87.0L84.0,88.7L82.7,91.7L82.2,93.3L81.8,94.0L79.5,100.1L79.1,100.8L78.6,102.0L77.8,103.9L77.8,104.1L77.0,105.7L76.3,107.7L76.1,107.9L75.9,108.8L74.9,110.9L74.6,112.1L72.8,116.1L72.7,116.7L72.5,117.0L72.2,118.0L72.0,118.3L72.1,118.9L73.5,119.0L75.1,118.6L76.2,118.5L77.8,118.1L79.0,117.6L79.5,117.6L83.5,116.3L83.9,116.1L84.7,115.9L85.6,115.4L86.3,115.3L87.5,114.6L87.8,114.6L92.2,112.3L94.4,111.0L97.4,108.8L99.2,107.2L100.5,106.3L101.6,105.2L102.0,104.9L105.5,101.4L108.4,97.9L110.4,95.2L110.6,94.7L111.4,93.5L113.2,90.3L113.6,90.0L114.0,89.2L114.5,87.7L115.0,86.9L115.2,86.1Z M60.3,59.0L59.4,59.8L59.0,60.4L58.9,62.2L59.1,62.5L59.5,62.7L60.1,62.6L61.0,62.2L61.4,62.2L61.8,62.7L62.1,63.5L62.2,64.3L61.6,65.1L61.2,65.2L61.2,65.6L62.3,66.5L62.3,67.1L62.0,67.6L61.6,68.6L61.6,69.1L61.9,69.4L62.6,69.4L63.3,69.1L64.2,68.4L64.8,67.5L64.7,66.8L63.5,66.3L63.0,65.9L63.1,65.0L63.8,63.2L63.7,62.5L63.3,62.2L62.0,61.7L61.5,61.2L60.8,59.2L60.7,59.0Z M60.1,56.4L59.8,56.3L59.1,56.4L58.1,57.5L57.5,58.5L57.1,60.1L57.1,61.1L57.2,61.5L57.5,61.5L57.7,61.2L57.9,60.1L58.2,59.3L60.2,57.4L60.3,56.8Z M60.6,13.7L59.4,14.0L57.7,14.2L56.9,14.5L55.8,14.7L54.9,15.0L54.2,15.1L53.6,15.4L52.9,15.5L51.1,16.3L50.2,16.6L48.9,17.4L46.7,18.3L44.7,19.7L42.0,22.0L40.1,24.0L37.5,27.6L36.5,29.6L35.8,30.5L34.9,32.7L34.7,33.5L34.5,33.8L34.2,34.8L34.0,35.2L33.9,35.9L33.2,38.3L32.9,40.5L32.7,42.7L32.7,47.2L33.2,50.9L33.6,52.6L33.6,53.1L34.5,56.5L34.7,57.0L34.8,57.7L36.4,62.5L37.1,64.2L37.4,65.1L39.5,69.8L39.9,70.1L40.6,70.1L41.1,69.8L45.0,68.3L45.8,68.3L45.9,68.7L44.1,73.1L44.1,73.6L43.6,74.5L43.3,75.5L42.9,76.2L42.8,77.1L43.2,77.4L49.7,77.5L49.9,77.6L50.5,78.2L52.0,81.2L53.3,84.3L53.6,84.8L54.0,86.0L54.6,87.0L54.6,87.4L55.7,89.5L57.2,93.2L57.8,94.1L57.9,94.7L59.0,96.8L60.3,100.1L60.8,100.9L60.9,101.3L62.0,103.5L62.1,104.1L63.3,106.2L63.4,106.8L64.2,108.0L64.5,108.0L64.8,107.8L65.2,106.8L66.3,103.5L66.8,102.1L67.1,101.0L67.7,99.4L67.7,99.1L69.8,94.1L69.9,93.5L70.1,93.1L70.4,91.9L71.1,90.6L72.1,87.5L72.5,87.0L73.2,84.6L75.3,79.1L75.8,78.8L76.9,78.7L80.3,78.8L86.1,78.6L86.5,78.3L87.0,77.3L87.8,75.0L87.8,74.3L86.6,72.4L86.6,71.9L87.2,71.1L87.3,70.4L87.1,70.0L86.4,69.0L86.3,68.6L86.8,68.0L87.0,66.5L86.9,66.0L86.1,65.1L86.0,64.7L86.1,64.4L86.7,63.9L86.9,62.9L86.5,61.6L85.5,59.6L85.2,58.6L85.0,57.6L83.9,55.0L83.9,51.9L83.7,50.7L83.7,49.8L84.3,49.0L84.3,48.4L83.3,45.6L82.0,43.3L81.1,42.2L81.0,41.9L79.2,39.7L76.9,37.5L74.1,35.4L70.7,33.6L69.1,33.1L68.6,32.4L68.6,31.6L69.1,29.5L69.8,27.6L70.8,25.7L72.7,23.0L74.8,20.9L76.4,19.7L78.4,18.8L80.1,18.3L81.7,18.0L83.6,17.9L83.8,17.7L82.3,17.0L79.6,16.1L78.5,15.8L76.9,15.2L74.9,14.9L73.4,14.5L72.3,14.4L71.6,14.2L69.5,13.9L67.1,13.8L66.0,13.6Z M82.7,62.7L83.2,62.7L83.8,63.2L83.8,63.8L83.6,64.3L83.2,64.7L82.8,64.7L82.4,64.1L82.4,63.0Z M79.5,50.4L79.7,50.7L79.5,51.4L79.1,52.0L75.7,53.5L75.2,54.0L73.8,57.7L73.8,58.5L73.9,58.9L74.4,59.2L75.4,59.4L75.7,59.7L76.8,60.0L77.3,60.3L77.8,60.9L77.7,61.6L77.2,63.0L76.8,63.8L76.4,65.4L76.0,66.0L75.9,66.8L75.5,67.6L75.2,68.6L74.7,70.1L74.7,70.9L75.2,71.4L76.4,71.9L77.5,72.2L78.0,72.1L78.4,71.6L79.3,68.9L79.8,67.8L80.1,67.5L81.1,67.6L82.0,68.2L82.0,69.2L80.8,72.4L80.8,73.1L81.3,73.7L83.1,74.3L84.2,75.1L84.2,76.0L83.9,76.5L83.4,76.9L72.5,77.0L72.1,77.3L71.4,79.5L70.8,81.0L70.4,82.2L69.7,83.9L69.3,85.2L68.9,86.1L68.6,86.5L67.7,86.7L66.1,86.6L65.1,86.8L62.5,86.6L62.1,86.3L62.1,86.0L63.1,83.0L64.5,79.5L64.9,78.0L64.8,77.3L64.2,77.0L60.0,77.1L59.5,77.3L59.0,78.6L58.2,80.8L57.9,81.3L57.8,81.9L57.3,82.9L57.1,83.1L56.8,83.1L56.1,82.4L55.4,80.9L53.1,75.7L53.1,74.7L53.6,73.1L54.9,69.9L55.9,66.7L56.5,65.1L56.6,64.0L56.0,62.4L55.8,61.0L55.8,59.4L56.3,57.7L57.0,56.7L58.3,55.5L59.3,54.9L59.8,54.7L60.3,54.7L60.8,55.1L61.4,56.7L62.1,59.6L62.5,60.2L65.7,61.3L67.9,62.3L68.8,62.5L69.2,62.0L69.5,60.9L70.0,59.8L70.2,59.0L71.0,57.3L71.1,56.8L72.5,53.3L73.6,52.4L76.9,51.2L77.7,50.8L78.2,50.7L78.9,50.4Z M53.9,35.8L54.2,36.2L54.7,37.1L55.1,38.5L55.8,39.8L56.1,41.0L56.3,41.3L61.5,41.6L64.0,42.3L66.6,43.7L67.7,44.5L69.4,46.1L70.8,48.0L72.1,50.4L72.4,51.5L72.5,52.2L72.1,52.8L71.1,53.3L68.1,54.3L65.8,55.3L65.1,55.2L64.5,54.6L63.9,53.7L62.2,52.3L61.2,51.7L60.1,51.4L57.7,51.4L55.3,52.4L53.9,53.7L53.3,54.6L52.1,57.0L51.9,58.5L51.8,60.7L52.0,61.7L52.0,62.8L52.4,64.4L52.3,65.2L52.0,65.5L50.7,66.0L50.0,66.2L49.7,66.4L49.2,66.5L48.5,66.9L47.2,67.3L46.7,67.3L46.2,66.9L45.2,64.8L44.0,61.4L43.5,58.9L43.2,57.9L42.8,54.3L42.8,52.0L43.0,49.8L43.4,47.7L44.8,44.0L45.8,42.3L46.9,40.6L49.4,38.3L51.1,37.0L53.0,35.9Z M85.5,13.5L82.4,12.2L78.0,10.9L74.7,10.1L69.5,9.3L65.9,9.1L62.0,9.1L57.3,9.6L55.2,10.0L53.9,10.2L52.8,10.5L52.1,10.9L51.5,10.9L50.3,11.4L49.8,11.5L45.6,13.4L43.2,14.8L42.6,15.3L41.0,16.3L37.4,19.6L37.2,20.0L35.9,21.4L33.6,24.4L31.6,27.9L30.0,31.5L29.7,32.4L29.5,32.8L29.4,33.6L29.0,34.5L28.8,35.8L28.5,36.5L28.0,39.7L27.7,43.8L28.0,49.1L28.7,53.1L29.5,56.2L29.5,56.6L30.2,58.7L30.8,61.0L32.2,65.0L32.5,65.5L33.4,68.0L34.1,69.5L34.4,70.3L34.9,71.2L35.4,71.8L35.8,71.9L37.1,71.3L37.5,70.8L37.5,70.2L36.5,68.1L35.7,65.8L34.1,62.1L32.0,55.3L31.3,51.8L30.8,48.0L30.6,45.1L30.7,41.5L31.1,38.9L31.1,38.2L31.5,36.3L33.2,31.5L35.3,27.5L36.4,25.7L39.1,22.3L42.4,19.2L44.5,17.7L46.9,16.3L47.5,16.1L51.5,14.2L52.4,14.0L52.7,13.8L53.9,13.4L56.2,12.8L56.8,12.8L57.6,12.6L59.4,12.3L62.6,12.1L64.9,12.1L68.0,12.3L73.0,13.1L74.9,13.5L75.4,13.5L77.3,14.1L78.2,14.2L79.1,14.5L81.0,15.0L84.4,16.2L85.0,16.2L85.6,15.2L85.8,14.6L85.8,13.9Z" fill="#000" fill-rule="evenodd"/>
</svg>