<svg xmlns="http://www.w3.org/2000/svg" viewBox="0 0 128 128" width="128" height="128">
  <path d="M72.8,87.8L72.7,87.4L72.4,87.4L69.3,89.0L66.7,89.8L64.2,89.8L63.3,89.6L62.6,89.3L61.5,89.0L59.5,87.8L58.8,87.8L58.8,88.1L59.7,89.0L61.7,90.1L64.0,90.7L66.0,90.8L69.0,90.3L71.6,89.0L72.5,88.3Z M59.8,73.0L58.4,73.6L57.6,74.4L57.4,75.2L57.3,76.2L57.5,77.0L58.4,78.3L59.6,78.7L60.6,78.8L61.7,78.3L62.4,77.7L62.9,76.9L62.9,75.8L62.7,74.7L62.0,73.6L60.9,73.1Z M72.0,73.0L71.0,73.3L70.5,73.7L70.0,74.3L69.5,75.3L69.4,76.3L69.7,77.4L70.5,78.2L71.4,78.6L72.6,78.8L73.8,78.5L74.5,77.9L75.2,77.0L75.3,75.9L75.1,74.7L74.7,74.1L74.3,73.6L73.0,73.0Z M61.5,9.4L60.4,9.8L58.8,10.7L57.5,11.8L56.9,12.6L56.4,13.7L56.1,14.8L55.9,15.8L56.0,17.5L56.6,19.2L57.9,20.7L59.6,21.4L60.7,21.7L62.3,21.9L63.8,22.5L64.5,23.2L64.5,23.8L64.1,24.2L63.5,24.6L62.4,24.6L61.0,24.3L58.7,23.2L56.2,20.8L54.1,19.0L53.2,18.5L52.7,18.1L50.5,17.2L50.0,17.2L49.5,17.0L48.2,16.7L45.0,16.7L42.3,17.5L41.0,18.0L40.3,18.5L39.8,18.8L38.0,20.3L36.9,22.1L36.4,23.8L36.4,25.5L36.9,27.3L38.2,28.9L40.2,30.1L40.7,30.6L40.7,31.0L40.5,31.3L40.0,31.4L37.5,31.4L35.1,31.8L33.5,32.2L31.7,33.1L31.2,33.5L30.1,34.0L29.3,34.7L27.5,36.5L25.9,38.9L25.4,39.9L24.9,41.5L24.8,42.8L25.1,44.4L25.9,46.3L26.9,47.6L28.7,49.2L28.9,49.9L28.2,50.5L25.0,51.1L22.1,52.2L20.9,52.9L19.0,54.3L17.8,55.7L17.0,56.8L16.4,57.9L16.2,58.8L15.8,59.4L15.8,60.0L15.6,60.2L15.2,62.9L15.4,65.5L15.7,67.0L16.6,69.3L17.9,71.3L19.2,72.6L20.8,73.9L21.7,74.3L23.7,75.2L25.5,75.6L25.8,75.7L26.2,76.2L26.2,76.6L25.9,77.0L24.3,78.5L22.7,80.3L21.9,81.6L21.7,82.2L21.3,83.1L21.2,83.6L20.8,84.4L20.4,87.1L20.4,88.8L20.7,90.9L21.4,93.1L22.2,94.8L22.9,95.8L25.0,98.3L26.0,99.1L28.3,100.4L28.9,100.5L30.3,101.2L33.5,102.1L37.3,102.6L41.1,102.6L43.7,102.4L49.2,101.5L50.2,101.5L50.9,102.0L50.8,102.7L49.5,105.1L47.8,107.6L47.5,108.3L46.6,109.5L42.9,115.6L42.6,116.0L42.3,116.7L41.5,117.7L41.3,118.3L41.7,118.6L42.8,118.6L43.6,118.8L48.8,118.9L71.4,118.9L72.8,119.0L79.3,118.9L80.3,119.1L84.8,118.9L84.8,118.3L84.4,117.9L83.3,115.6L83.0,115.2L81.9,112.9L81.5,112.1L81.5,111.8L80.5,110.1L80.4,109.7L79.7,108.4L79.6,108.0L78.6,106.2L77.7,104.0L77.8,103.4L78.3,102.9L79.0,102.9L83.2,104.4L84.1,104.6L84.7,104.8L86.3,105.0L89.9,105.0L91.4,104.8L92.3,104.8L93.5,104.6L94.6,104.1L96.0,103.8L97.6,103.3L99.6,102.2L101.7,100.7L103.7,98.7L104.4,97.5L105.5,94.9L106.0,92.9L105.9,90.7L105.1,88.9L104.1,87.4L103.0,86.4L102.1,85.7L102.0,85.0L102.3,84.7L104.7,84.1L105.1,83.9L106.2,83.6L107.6,82.8L108.9,81.9L110.2,80.6L110.8,79.8L111.6,77.9L111.8,76.7L111.9,74.7L111.7,74.1L111.6,73.1L111.3,72.3L110.7,71.4L110.4,70.5L109.8,69.9L109.7,69.7L107.6,67.6L105.9,66.4L105.9,65.7L106.3,65.3L107.9,64.7L109.7,63.6L111.3,62.1L112.1,60.8L112.8,58.9L113.0,57.5L113.0,55.7L112.5,53.7L111.3,51.2L110.4,50.2L108.9,49.1L108.0,48.5L107.1,48.2L106.6,47.8L105.5,47.5L103.6,47.3L103.3,47.1L103.0,46.8L103.0,46.4L103.4,46.0L106.0,44.5L108.0,42.3L108.8,40.7L109.3,38.8L109.4,37.0L109.2,35.8L108.9,34.8L108.0,33.3L106.3,31.3L104.7,30.1L103.0,29.4L101.7,29.1L99.5,28.9L94.8,29.2L93.7,29.4L93.2,29.7L91.5,30.1L91.0,30.4L88.3,30.6L87.3,30.6L85.6,30.3L84.9,29.8L84.8,29.6L84.8,28.9L85.1,28.4L86.3,27.8L87.8,27.8L89.3,28.1L90.7,28.1L92.4,28.4L94.8,28.4L96.0,27.9L97.0,27.2L97.6,26.6L98.4,25.4L98.7,24.6L98.9,23.7L98.8,21.9L98.5,20.7L97.9,19.4L97.6,18.9L95.8,17.3L94.9,16.8L92.8,16.2L90.1,16.2L88.0,16.5L87.6,16.7L86.7,16.9L85.2,17.4L84.8,17.6L83.2,17.9L82.9,18.1L81.8,18.3L79.4,18.1L79.2,17.9L78.1,17.7L75.8,16.5L73.7,14.8L71.5,12.7L70.6,12.0L70.5,12.0L69.1,10.9L67.2,9.8L65.9,9.4L64.6,9.1L63.5,9.1Z M88.1,82.3L88.6,81.7L89.1,81.5L90.3,81.4L91.1,81.5L92.8,82.1L95.0,83.1L95.5,83.5L95.7,84.0L95.3,84.4L94.8,84.5L91.1,84.4L89.9,84.0L88.7,83.5L88.2,83.0Z M42.2,74.0L42.2,74.7L41.9,75.2L41.7,75.5L40.9,76.0L39.7,76.3L36.3,76.4L34.4,76.2L32.7,75.8L32.2,75.2L32.2,74.8L33.3,74.0L34.5,73.5L35.7,73.3L37.0,72.8L38.6,72.6L39.8,72.6L41.1,72.9L41.6,73.2L42.0,73.6Z M52.2,68.5L55.0,66.7L55.4,66.7L56.0,66.3L57.9,65.7L60.6,65.3L65.0,65.1L69.7,65.1L72.6,65.5L74.7,65.9L76.3,66.3L77.6,67.0L78.0,67.1L79.8,68.2L80.8,69.2L81.9,70.5L82.8,72.3L83.6,75.0L83.6,75.7L83.8,76.2L84.1,79.0L84.1,82.3L83.7,85.1L83.2,86.8L82.7,87.4L82.5,88.1L81.6,89.6L80.3,91.2L79.3,92.2L76.8,94.0L75.5,94.4L74.7,94.9L73.5,95.3L72.4,95.4L70.8,95.8L67.7,96.1L61.5,96.0L57.4,95.3L56.1,94.9L53.6,93.7L51.8,92.3L50.7,91.1L49.2,88.7L48.3,86.8L48.1,85.4L47.5,83.6L47.4,81.9L47.4,79.0L47.5,78.5L47.6,76.8L48.3,74.1L49.2,72.2L49.9,71.0L51.0,69.7Z M93.0,65.9L93.1,65.1L93.7,64.6L94.3,64.2L94.7,64.1L97.2,64.2L99.2,64.7L100.0,65.3L100.0,65.6L99.4,66.1L97.4,66.6L96.6,66.6L96.1,66.7L94.4,66.7L93.3,66.3Z M34.4,50.2L35.0,49.7L36.7,49.2L39.9,48.7L41.6,48.8L43.2,49.3L44.4,50.1L44.8,50.7L44.9,51.6L44.6,52.1L43.7,52.7L42.6,52.8L41.3,52.6L38.3,51.7L36.4,51.5L35.2,51.1L34.4,50.5Z M91.5,47.0L91.6,46.7L92.4,46.0L93.7,45.8L94.9,45.9L97.3,46.5L97.8,46.9L97.9,47.4L97.4,47.8L95.2,48.1L94.8,48.2L93.2,48.3L92.5,48.2L92.0,48.0L91.6,47.6Z M41.9,31.3L42.2,30.9L42.5,30.8L48.7,30.9L50.5,31.6L51.1,32.3L51.2,33.1L50.6,33.7L49.9,33.9L48.8,34.1L47.8,34.0L46.8,33.8L43.8,32.4L42.3,31.9L41.9,31.6Z" fill="#000" fill-rule="evenodd"/>
</svg>