<svg xmlns="http://www.w3.org/2000/svg" viewBox="0 0 128 128" width="128" height="128">
  <path d="M64.0,99.6L62.3,100.4L61.4,101.3L60.8,102.6L60.8,103.8L61.3,105.1L61.8,105.8L62.4,106.3L64.0,107.0L65.3,107.0L65.5,106.8L66.4,106.5L67.4,105.5L68.0,104.3L68.0,102.6L67.5,101.4L66.2,100.0L65.1,99.6Z M71.6,81.8L70.8,82.2L69.9,83.2L69.4,84.5L69.6,85.7L70.0,86.5L70.9,87.5L71.8,87.8L73.3,87.8L74.4,87.3L75.1,86.5L75.4,85.9L75.6,85.0L75.5,84.1L75.0,83.1L73.8,82.1L73.3,81.8Z M55.4,81.7L54.6,82.0L53.3,83.1L53.0,84.2L53.0,85.5L53.3,86.4L54.5,87.6L55.5,87.8L56.3,87.8L57.4,87.6L58.3,86.8L58.7,86.1L58.9,85.5L58.9,84.2L58.6,83.2L57.5,82.2L56.8,81.8Z M118.6,86.1L118.3,85.5L118.1,83.8L116.7,79.4L114.9,76.1L112.6,72.9L109.3,69.7L106.1,67.3L102.9,65.7L102.1,65.5L101.6,65.1L99.6,64.5L97.3,64.0L95.5,63.9L92.2,65.7L91.4,66.0L90.8,66.4L88.4,67.5L87.3,67.8L85.5,68.6L84.4,68.9L84.2,69.1L82.6,69.6L82.3,69.6L78.7,70.7L77.8,70.8L77.1,71.1L75.7,71.3L74.6,71.6L73.6,71.6L71.4,72.1L69.5,72.1L66.3,72.5L62.5,72.5L55.4,71.8L49.3,70.6L48.1,70.2L47.4,70.1L46.9,69.8L45.7,69.6L44.7,69.2L44.0,69.1L43.2,68.6L39.2,67.1L33.2,64.0L32.1,64.0L30.6,64.1L28.8,64.6L28.1,65.0L27.0,65.2L23.3,66.9L20.9,68.4L19.0,69.8L17.2,71.5L15.7,73.1L14.1,75.2L13.8,75.8L12.7,77.5L11.3,80.3L11.2,80.9L11.0,81.2L9.9,84.9L9.9,85.7L9.3,88.7L9.3,92.4L9.8,96.2L11.0,100.2L12.5,103.8L14.3,106.5L15.5,108.2L18.6,111.3L20.9,113.1L21.0,113.1L22.9,114.4L25.2,115.6L27.4,116.5L28.9,116.8L29.4,117.1L33.6,117.8L41.5,118.0L51.7,117.8L55.0,118.0L95.4,118.0L98.6,117.5L102.4,116.3L105.9,114.6L107.9,113.3L109.9,111.6L113.0,108.3L114.4,106.5L116.7,102.3L118.1,97.9L118.5,96.2L118.9,92.9L118.9,89.1Z M47.1,75.4L47.8,75.2L51.0,76.1L56.4,77.1L62.6,77.7L66.2,77.7L67.3,77.5L70.6,77.4L71.6,77.1L73.7,76.9L77.5,76.2L78.0,75.9L79.4,75.8L80.2,75.4L81.2,75.4L81.7,75.8L82.4,79.4L82.5,80.5L82.8,81.4L83.1,83.7L83.4,84.9L84.2,89.8L84.5,90.6L84.6,91.8L84.6,96.0L84.5,97.4L83.7,100.3L83.2,101.7L82.2,103.6L82.1,104.0L80.6,106.0L80.2,106.8L78.2,108.8L75.0,111.3L73.0,112.3L72.1,112.5L71.7,112.8L71.1,112.9L70.4,113.3L69.0,113.6L66.8,114.0L63.3,114.1L60.3,113.6L58.4,113.1L56.6,112.5L56.2,112.1L54.3,111.3L51.9,109.7L48.9,106.8L46.9,104.0L45.5,101.1L44.6,97.8L44.1,94.8L44.1,92.9L44.5,89.8L44.9,87.9L45.1,85.9L45.5,84.6L45.6,83.3L45.9,81.9L45.9,81.1L46.3,79.0L46.8,76.7L46.9,75.6Z M104.4,71.5L107.7,74.0L110.2,76.7L112.1,79.7L112.8,81.2L114.5,85.7L114.6,88.0L114.9,89.3L114.9,92.7L114.6,93.9L114.6,95.3L113.9,98.0L112.9,100.6L111.6,103.0L108.9,106.7L105.7,109.6L102.1,111.6L101.8,111.9L101.2,112.0L99.3,112.8L96.2,113.5L93.3,113.8L80.8,113.7L80.0,113.5L79.8,113.4L79.8,113.1L81.2,112.0L83.4,109.7L85.2,107.4L86.6,105.0L87.9,101.9L88.1,101.7L88.7,100.1L89.2,97.9L89.9,92.9L90.4,92.4L91.5,92.0L93.0,90.7L93.4,90.1L94.1,88.6L94.2,87.7L94.2,86.4L92.7,79.8L92.3,78.8L92.1,77.5L91.8,76.5L91.6,75.2L90.9,73.3L90.8,71.5L91.2,71.0L93.6,69.8L95.6,68.5L96.9,68.5L99.5,69.2L100.3,69.6L102.3,70.4Z M24.5,71.4L28.5,69.4L31.6,68.5L32.8,68.5L35.2,69.8L37.8,71.5L37.8,72.2L36.1,78.7L35.3,82.8L34.7,84.9L34.7,85.5L34.4,86.7L34.4,87.8L34.6,88.8L35.4,90.5L36.6,91.7L37.5,92.2L38.3,92.5L38.8,92.9L39.0,93.3L39.2,96.3L39.5,97.7L39.7,98.0L39.8,98.9L40.5,101.2L41.5,103.7L43.2,106.5L44.5,108.3L46.1,110.3L49.2,113.1L49.0,113.5L34.9,113.7L31.0,113.1L30.1,112.7L29.0,112.5L27.1,111.6L26.6,111.5L25.8,111.0L24.2,110.3L22.0,108.7L19.6,106.3L18.1,104.6L16.7,102.6L15.8,100.9L14.8,98.5L14.3,96.7L13.8,94.0L13.8,93.0L13.6,92.1L13.6,89.3L14.4,84.7L15.1,82.6L16.5,79.6L18.7,76.4L22.1,72.9Z M53.0,10.3L52.5,11.1L52.4,12.4L52.2,13.3L51.4,17.7L51.4,18.3L51.1,19.2L51.1,20.6L50.7,22.1L50.7,22.9L50.4,23.9L49.9,28.0L49.6,28.8L48.9,34.0L48.4,35.9L48.4,37.0L48.1,38.0L48.1,38.7L47.8,40.3L47.6,40.8L47.4,43.4L47.0,44.7L47.0,45.6L46.6,47.5L46.1,51.0L45.8,51.9L45.8,53.2L45.5,54.5L45.3,56.4L45.0,57.1L44.7,59.8L44.5,60.7L44.3,62.4L44.0,63.4L43.7,66.0L44.2,66.2L83.3,66.3L84.6,66.2L84.8,65.6L84.1,61.6L84.1,60.8L83.9,60.4L83.7,58.7L83.4,58.0L83.4,56.7L82.6,53.2L82.6,52.6L81.7,47.8L81.7,47.1L81.2,45.3L80.9,42.6L80.5,41.1L80.5,40.4L79.7,36.7L79.4,34.3L78.0,27.2L77.9,25.2L77.2,22.7L76.9,19.7L76.5,18.6L76.0,15.2L75.6,13.4L75.4,11.5L75.1,10.5L74.5,10.2L70.6,10.2L68.3,10.3L67.8,10.2Z" fill="#000" fill-rule="evenodd"/>
</svg>