<svg xmlns="http://www.w3.org/2000/svg" viewBox="0 0 128 128" width="128" height="128">
  <path d="M79.1,118.7L75.3,118.0L72.4,117.6L71.4,117.6L69.4,117.3L64.0,117.0L59.0,117.1L56.9,117.3L55.3,117.3L54.2,117.6L52.3,117.8L49.4,118.3L48.8,118.3L48.0,118.6L46.9,118.7L46.9,118.9L53.6,119.1L78.6,119.0L79.1,118.9Z M26.0,119.0L42.4,119.0L44.7,118.4L45.6,118.3L46.5,118.0L50.5,117.3L50.9,117.2L57.1,116.4L59.5,116.4L61.1,116.3L65.1,116.3L68.2,116.5L69.9,116.5L71.9,116.8L72.7,116.8L73.9,117.1L74.7,117.1L75.6,117.3L77.5,117.6L78.2,117.8L80.5,118.2L81.1,118.4L82.6,118.7L83.6,119.0L96.6,119.1L100.2,119.0L100.4,118.7L100.3,118.6L98.9,118.0L98.2,117.6L93.8,115.8L92.9,115.5L92.1,115.1L91.8,115.1L91.4,114.9L87.8,113.7L87.2,113.6L86.4,113.3L85.6,113.2L84.5,112.8L80.5,111.9L78.4,111.6L77.2,111.2L76.2,111.1L75.7,111.0L74.3,110.9L71.6,110.5L67.6,110.1L60.7,110.1L56.4,110.3L52.1,110.9L50.6,111.0L50.2,111.1L47.1,111.6L42.0,112.7L40.0,113.4L39.0,113.5L38.6,113.8L37.7,114.0L34.7,114.9L34.6,115.1L33.8,115.3L33.2,115.6L32.7,115.7L31.8,116.2L30.5,116.6L26.1,118.6Z M18.0,115.5L18.0,118.3L18.1,118.7L18.3,119.0L23.2,119.0L24.1,118.7L25.5,117.9L28.8,116.4L30.3,115.9L30.6,115.7L31.1,115.6L31.7,115.3L32.5,115.0L33.0,114.7L33.8,114.5L36.5,113.5L43.0,111.6L44.3,111.5L47.4,110.7L48.0,110.7L48.9,110.5L49.6,110.5L53.6,109.8L61.3,109.3L67.2,109.4L71.7,109.7L72.4,109.9L75.1,110.1L76.5,110.5L77.2,110.5L85.4,112.2L86.2,112.5L87.2,112.7L88.0,113.0L89.6,113.5L92.0,114.3L92.4,114.5L93.0,114.6L94.9,115.4L95.4,115.5L96.2,115.9L98.8,116.9L102.8,118.9L107.9,119.1L108.2,119.0L108.6,118.7L108.6,115.9L108.5,115.5L107.9,114.9L104.4,113.0L103.8,112.8L102.5,112.0L102.3,112.0L99.3,110.6L97.2,109.9L95.6,109.2L94.9,109.1L94.5,108.7L93.9,108.7L92.0,107.9L90.1,107.3L89.5,107.3L87.8,106.7L82.5,105.4L79.4,104.9L78.1,104.4L77.3,104.4L76.2,104.2L74.8,104.1L72.9,103.8L68.9,103.4L59.9,103.4L56.1,103.5L51.8,104.0L50.0,104.4L49.3,104.4L48.9,104.5L47.8,104.6L42.7,105.6L42.5,105.8L39.1,106.5L37.7,107.0L37.0,107.1L36.5,107.3L34.3,107.9L30.4,109.3L29.0,110.0L28.1,110.2L20.4,113.8L20.2,114.0L18.7,114.8L18.2,115.2Z M37.5,82.7L37.5,82.9L37.9,83.0L38.2,82.9Z M45.1,81.6L45.1,81.8L45.7,81.7L45.7,81.5Z M32.2,77.2L32.2,77.5L32.6,78.0L34.3,79.8L35.5,80.6L37.7,81.6L39.3,82.0L40.7,82.2L43.7,82.2L44.4,81.9L41.0,81.9L39.3,81.5L37.5,81.0L35.8,80.1L34.1,78.9L32.6,77.1Z M66.0,76.2L64.6,76.2L62.8,77.1L61.6,78.3L61.5,78.6L61.2,79.0L60.9,80.0L60.9,80.8L61.3,80.7L61.4,79.5L62.5,78.0L64.2,76.7L65.0,76.5L66.0,76.4Z M40.2,73.6L40.2,73.8L40.7,74.7L40.8,75.7L41.0,75.7L40.9,74.5Z M38.7,72.2L38.4,72.1L37.8,71.3L37.4,71.3L36.0,72.7L35.8,73.3L36.0,73.8L36.1,73.0L36.5,72.4L37.5,72.1L38.3,72.3Z M48.3,67.2L47.2,68.0L46.6,68.7L46.3,70.0L46.5,71.4L46.8,71.9L47.5,72.6L48.3,73.0L49.2,73.2L50.5,73.0L51.4,72.5L52.3,71.7L52.5,71.0L52.5,70.1L52.9,69.5L52.9,69.1L52.8,68.8L51.7,67.8L50.5,67.2L49.7,67.1L48.9,67.1Z M54.3,66.2L54.3,66.5L55.0,67.1L55.1,66.7L54.7,66.2Z M34.1,63.0L33.3,63.0L32.7,63.2L31.7,63.7L30.9,64.4L30.4,65.3L30.3,66.2L30.6,67.1L31.6,68.3L32.3,68.7L33.3,68.9L34.4,68.7L35.3,68.2L36.1,67.4L36.9,67.3L37.2,67.1L37.2,66.2L36.4,64.4L35.3,63.4Z M33.0,59.4L32.6,59.5L32.5,59.8L32.8,59.8Z M52.4,9.7L51.3,10.4L49.5,11.9L46.5,15.0L46.0,15.8L44.2,17.6L43.9,18.2L42.9,19.3L42.4,20.1L40.8,22.1L39.4,24.6L38.4,25.9L36.9,28.6L35.7,31.0L34.1,33.6L32.2,37.9L31.7,39.5L30.9,41.3L30.4,43.1L30.2,43.5L30.0,44.4L29.5,45.6L29.1,47.3L28.2,48.4L28.0,49.1L27.8,49.5L27.5,51.2L26.9,53.7L26.7,55.0L26.8,55.9L27.3,56.5L27.5,57.1L27.5,58.0L27.2,59.6L27.1,60.9L26.8,62.3L26.6,64.0L26.6,71.0L26.0,73.2L25.7,75.3L25.7,77.5L25.9,78.0L25.9,78.6L26.4,80.3L27.2,81.9L27.2,82.3L27.4,82.6L27.6,82.8L28.2,83.9L28.8,84.8L31.3,87.4L33.2,88.7L34.2,89.3L34.7,89.9L34.7,90.4L32.7,93.9L30.7,97.1L30.3,97.8L29.5,98.8L27.3,102.6L26.3,103.9L26.1,104.4L25.8,104.8L25.0,106.4L23.6,108.5L23.2,109.2L21.6,111.7L21.5,112.0L21.7,112.2L21.9,112.2L22.2,111.9L23.4,110.1L23.5,109.8L24.0,109.2L24.6,108.7L29.9,108.7L30.8,108.3L34.4,107.0L38.9,105.8L39.2,105.3L37.0,105.1L27.4,105.1L27.0,104.9L27.0,104.4L27.5,103.7L28.1,103.3L49.0,103.4L50.5,103.3L52.0,103.0L54.9,102.7L56.1,102.5L59.4,102.3L59.9,101.7L60.1,101.1L60.3,98.3L60.6,96.5L60.8,93.8L60.9,93.1L61.2,90.3L61.4,89.8L61.5,87.1L61.8,85.8L61.9,84.1L62.8,83.4L63.8,83.3L65.3,82.5L65.8,82.0L66.0,82.0L66.5,81.6L67.9,80.0L68.3,80.0L68.5,80.4L68.4,83.1L68.4,85.9L68.1,89.0L68.1,93.3L67.9,94.2L67.9,96.1L67.6,98.8L67.6,101.6L67.9,102.0L68.4,102.2L69.5,102.4L71.1,102.4L72.1,102.6L73.4,102.6L74.5,102.9L76.1,103.0L77.2,103.3L78.9,103.4L79.5,103.7L81.7,103.9L83.4,104.4L84.2,104.4L85.4,104.9L86.1,104.9L87.1,105.4L88.1,105.5L88.8,105.8L89.6,105.9L89.9,106.2L91.0,106.4L92.9,107.3L94.0,107.5L94.5,107.4L94.8,107.1L94.9,103.6L95.4,103.2L96.0,103.3L96.7,103.6L97.2,103.7L99.6,105.0L100.0,105.4L100.1,105.9L100.0,109.5L100.5,110.1L103.9,111.7L105.5,112.6L106.1,112.8L107.0,113.3L107.5,113.3L107.9,112.7L108.0,111.3L107.5,110.1L106.2,108.4L104.7,107.0L102.9,105.7L101.9,105.1L101.3,104.9L99.5,103.9L97.7,103.1L97.3,102.7L97.4,102.5L98.2,102.5L100.5,102.8L105.4,102.9L107.2,102.5L108.0,102.2L109.0,101.3L109.5,99.9L109.3,98.9L108.8,98.0L107.9,96.9L105.6,95.3L103.5,94.4L102.5,93.8L96.7,91.7L96.5,91.5L96.5,91.2L97.0,90.9L102.4,90.8L107.3,90.2L108.3,90.0L109.0,89.6L110.0,88.6L110.2,87.9L110.1,86.7L109.8,86.1L108.4,84.8L106.3,83.5L103.6,82.3L99.1,80.8L98.0,80.5L97.4,80.1L97.4,80.0L97.9,79.6L100.4,79.3L101.3,79.0L102.5,78.9L103.5,78.5L105.5,78.0L106.8,77.5L107.7,76.9L108.7,75.6L108.9,75.2L108.8,73.7L108.3,72.8L107.3,71.9L104.9,70.7L102.5,69.9L101.0,69.5L100.7,69.4L98.9,69.1L98.2,68.9L95.9,68.5L95.6,68.4L93.6,68.1L93.1,67.7L93.1,67.6L93.4,67.3L95.1,66.8L95.5,66.6L96.1,66.5L96.7,66.1L97.4,66.0L97.9,65.7L98.7,65.5L99.2,65.2L100.7,64.7L102.6,63.6L104.0,62.3L104.6,61.4L104.9,60.7L104.8,59.3L104.4,58.7L103.0,57.5L101.5,57.0L100.3,56.8L99.3,56.5L96.4,56.2L89.6,56.3L89.2,56.1L89.2,55.7L89.5,55.5L94.0,52.6L96.3,50.8L97.4,49.7L98.3,48.1L98.5,47.4L98.5,46.4L98.2,45.6L96.3,44.2L95.5,43.9L93.5,43.7L91.0,43.7L89.5,43.9L88.1,44.2L87.0,44.3L83.2,45.4L82.7,45.4L82.4,45.1L82.4,44.8L86.9,40.2L88.1,38.8L89.4,37.0L89.9,35.6L89.9,34.5L89.6,33.5L88.6,32.7L88.1,32.4L87.0,32.2L85.8,32.2L83.5,32.7L80.3,33.8L78.9,34.4L77.6,35.1L77.0,35.3L75.7,36.0L74.5,36.5L74.1,36.5L73.9,36.4L73.9,36.0L77.9,29.7L79.5,26.5L79.8,25.4L79.8,23.8L79.1,22.7L78.6,22.2L78.1,21.9L76.9,21.7L76.1,21.7L74.0,22.2L72.2,23.1L71.8,23.6L70.5,24.2L68.4,25.7L66.2,27.4L65.6,27.8L65.2,27.8L64.9,27.4L64.9,27.2L65.6,25.8L65.7,25.1L66.5,23.7L66.6,23.2L67.1,22.3L68.0,19.4L68.2,17.9L68.2,17.0L68.1,16.3L67.7,15.7L67.1,15.0L66.5,14.8L65.5,14.8L64.1,15.2L62.8,16.0L61.1,17.1L57.5,20.2L55.6,21.9L55.2,22.2L54.8,22.2L54.6,21.9L54.6,21.3L54.8,20.3L55.1,19.8L55.2,18.8L55.6,17.8L56.1,15.0L56.1,11.0L55.6,10.0L54.7,9.3L53.7,9.2Z M30.3,99.6L30.3,99.0L31.0,98.2L31.4,98.0L32.3,97.9L58.7,97.9L59.3,98.2L59.5,98.6L59.5,99.1L59.4,99.6L59.0,99.9L58.7,100.0L30.9,99.9Z M33.5,93.9L34.3,92.6L35.3,92.4L58.6,92.4L59.5,92.5L60.0,92.9L60.0,93.9L59.9,94.1L59.5,94.4L53.1,94.4L51.2,94.6L37.2,94.6L33.9,94.5L33.6,94.4Z M95.8,92.3L96.5,92.3L98.4,93.0L99.1,93.2L100.1,93.6L100.6,94.2L100.6,96.2L100.6,97.7L100.4,98.4L100.3,101.1L100.2,101.4L99.8,101.7L97.9,101.7L97.6,101.5L95.8,101.3L95.2,100.8L95.1,98.2L95.3,94.8L95.3,92.9L95.6,92.4Z M60.7,87.7L60.5,88.7L59.9,89.1L52.8,89.1L52.4,88.7L53.7,87.9L55.6,87.1L60.0,87.1L60.3,87.2Z M96.3,81.1L97.6,81.2L99.6,81.7L100.7,82.2L101.1,82.5L101.1,85.3L101.0,89.1L100.8,89.6L100.3,90.1L98.8,90.3L96.3,90.2L95.6,89.6L95.5,86.9L95.8,82.4L96.0,81.4Z M94.5,69.2L96.4,69.2L99.3,69.8L100.1,70.5L100.7,73.2L100.8,74.7L101.0,75.0L101.1,76.1L101.1,77.8L100.7,78.3L99.0,78.8L97.4,79.0L96.3,78.9L95.9,78.6L95.6,77.5L95.6,76.7L95.3,75.8L95.3,75.1L94.9,72.2L94.6,70.8L94.4,70.3L94.4,69.4Z M64.7,61.8L65.2,62.3L65.9,63.7L66.2,64.5L66.2,65.2L65.8,65.4L64.2,65.7L63.1,66.2L62.1,67.1L61.8,67.2L61.4,67.2L60.8,66.6L60.3,65.7L60.3,65.2L60.4,64.8L62.9,62.4L64.1,61.7Z M60.0,58.3L60.2,58.5L60.3,58.9L59.7,62.9L59.5,63.3L59.2,63.7L59.0,63.7L58.3,63.0L57.4,61.8L57.4,61.2L57.6,60.7L59.6,58.4Z M61.7,57.6L62.3,58.1L63.3,59.4L63.7,60.0L63.8,60.6L63.5,61.2L61.8,62.8L60.7,63.5L60.4,63.4L60.3,62.7L60.8,59.4L61.2,58.0L61.5,57.6Z M90.7,56.9L95.5,56.8L95.8,56.9L96.3,57.5L97.4,60.0L98.6,63.4L98.7,64.3L98.2,65.0L95.8,65.9L95.2,66.0L94.2,66.4L93.6,66.4L93.1,65.9L92.8,65.2L92.4,63.8L92.1,63.1L92.0,62.5L91.7,61.8L91.6,61.2L91.4,60.9L90.8,59.0L90.4,58.2L90.3,57.3Z M28.6,56.2L29.0,55.8L29.8,55.4L30.6,55.3L31.2,55.1L32.3,55.1L33.2,55.6L34.4,56.5L37.1,59.0L37.6,59.2L39.1,60.4L41.6,61.9L43.7,62.7L45.6,62.9L48.3,62.9L53.8,62.1L56.0,62.1L56.6,62.3L57.5,63.0L58.4,64.1L60.4,67.1L61.0,68.5L60.9,70.9L61.2,72.3L61.6,73.1L63.2,74.7L63.4,74.8L64.2,74.5L64.3,74.3L63.5,74.3L62.8,73.9L62.2,73.2L61.4,71.5L61.4,69.8L61.8,68.5L62.8,67.0L63.5,66.5L64.7,66.0L66.6,66.0L68.0,66.6L68.8,67.3L69.5,68.4L70.0,69.8L70.0,71.3L69.4,72.9L68.2,74.2L67.8,74.3L66.5,74.2L66.1,74.3L66.6,74.3L67.3,74.8L68.1,75.7L68.3,77.2L68.0,78.9L67.1,80.5L65.5,82.0L64.7,82.5L64.3,82.6L63.9,82.9L63.0,83.1L61.8,83.1L60.2,82.9L58.8,84.2L57.9,84.8L57.1,85.3L55.9,86.2L55.4,86.3L54.0,87.2L51.6,88.2L49.4,88.8L48.7,89.1L43.8,90.1L40.2,90.3L37.3,89.9L36.5,89.6L35.5,89.3L34.9,89.0L34.3,88.9L34.1,88.6L33.7,88.6L32.4,87.7L29.4,84.8L28.4,83.4L27.9,82.9L26.7,79.9L26.4,78.3L26.3,75.0L26.6,73.6L26.6,73.1L27.3,70.8L27.4,63.8L27.7,62.1L27.8,60.0Z M55.7,54.0L56.0,54.0L56.2,54.2L56.3,54.6L56.4,58.1L56.3,59.7L56.1,59.9L55.6,59.9L55.1,59.5L54.0,58.5L53.7,58.0L53.8,57.2L55.2,54.5Z M57.3,53.1L58.3,53.6L59.9,55.2L60.3,55.8L60.3,56.5L59.9,57.2L57.9,59.5L57.5,59.6L57.1,59.5L56.9,58.2L56.9,53.9L57.0,53.4Z M29.9,50.4L30.3,50.9L30.3,54.2L29.6,55.1L29.3,55.1L28.4,55.4L27.9,55.4L27.6,55.2L27.5,54.7L28.4,52.8L28.7,52.0L29.3,51.1L29.3,50.7L29.6,50.4Z M29.3,48.6L29.4,48.8L29.4,49.2L28.6,50.8L28.2,50.8L28.2,49.9L28.4,49.2L28.8,48.7Z M43.4,47.4L43.6,47.5L43.6,48.0L43.2,48.9L43.2,49.9L42.9,50.6L42.7,50.6L42.6,50.1L42.8,49.4L42.8,47.8L43.1,47.4Z M30.8,48.4L31.2,47.7L32.4,47.2L33.2,47.1L34.6,46.7L36.1,46.6L37.3,46.4L38.4,46.4L38.9,46.8L39.1,47.4L39.1,51.3L39.3,51.6L39.9,51.8L40.5,51.9L41.8,51.8L42.1,51.7L42.5,50.9L42.7,50.8L42.9,51.5L43.4,52.1L43.9,52.3L45.6,52.5L46.4,51.8L47.6,48.3L48.0,47.9L48.8,47.9L51.4,48.9L53.8,50.2L55.1,51.0L55.6,51.5L55.6,52.3L55.1,53.7L53.8,55.7L53.8,56.0L53.3,56.9L52.8,57.3L52.4,57.3L51.8,57.1L50.7,56.3L47.0,54.6L44.6,53.9L42.0,53.5L38.4,53.5L35.8,53.7L31.7,54.4L31.2,54.0L31.0,53.5Z M84.3,45.7L87.7,44.8L89.0,44.7L89.5,45.0L89.8,45.3L90.5,46.6L91.6,48.1L92.0,49.1L92.8,50.2L93.3,51.2L93.4,52.0L92.4,52.8L91.0,53.8L90.5,54.1L90.1,54.4L89.0,54.7L88.3,53.9L88.1,53.4L87.4,52.3L87.2,51.5L86.0,49.5L85.7,49.2L85.0,48.0L84.6,47.6L84.0,46.4Z M76.7,36.3L79.5,34.9L80.3,34.6L81.0,34.6L82.4,35.7L84.8,38.2L85.6,39.3L85.7,40.3L84.9,41.3L82.7,43.5L82.4,43.7L81.9,43.7L81.3,43.2L78.7,40.1L76.2,37.5L76.2,36.8Z M66.3,28.3L67.0,27.6L69.0,26.1L69.7,25.7L70.2,25.7L71.7,26.6L74.8,29.1L76.0,30.3L76.1,31.3L75.3,32.6L74.2,34.2L73.8,34.6L73.3,34.6L72.8,34.3L69.0,31.2L67.1,29.8L66.3,29.0Z M56.2,22.3L59.3,19.5L60.2,19.4L62.1,20.3L64.9,22.1L65.5,22.6L65.7,23.2L65.2,24.7L64.9,25.2L64.2,26.9L63.9,27.2L63.4,27.3L62.3,26.8L60.3,25.5L59.4,25.0L58.0,24.1L56.6,23.4L56.1,22.8Z M45.0,18.1L45.2,17.6L47.5,15.0L48.3,14.5L48.9,14.5L50.5,15.0L51.3,15.4L54.0,16.3L54.5,16.5L54.8,16.9L54.8,17.9L54.7,18.8L54.3,19.5L54.2,20.5L53.7,21.3L53.3,21.6L52.6,21.6L52.0,21.4L49.2,20.2L48.9,20.2L45.9,19.2L45.0,18.6Z" fill="#000" fill-rule="evenodd"/>
</svg>