<svg xmlns="http://www.w3.org/2000/svg" viewBox="0 0 128 128" width="128" height="128">
  <path d="M60.7,51.6L59.0,51.8L58.4,52.1L57.9,52.1L57.1,52.5L55.0,53.0L53.5,53.6L52.0,54.7L50.5,55.5L48.7,57.3L47.6,58.2L46.6,59.1L46.3,59.8L44.8,61.6L44.1,62.5L43.1,64.6L42.7,65.9L42.0,67.7L41.8,68.5L41.8,69.6L41.4,71.0L41.4,75.5L41.5,76.2L41.5,77.0L42.2,79.0L42.3,79.8L42.7,81.1L43.3,82.1L43.4,82.7L44.0,84.0L44.4,84.6L44.6,85.1L45.7,86.2L45.9,87.0L46.9,88.1L50.2,91.2L51.8,92.2L52.6,92.4L52.9,92.7L54.1,93.5L55.7,94.1L56.5,94.8L57.5,95.0L58.2,95.4L60.8,95.6L61.4,95.7L63.5,95.7L63.8,95.6L64.4,95.5L65.3,95.8L65.6,95.8L66.7,95.4L67.8,95.2L68.1,94.9L68.7,94.7L69.9,94.7L72.2,93.5L73.7,93.2L74.4,92.8L75.4,92.0L75.8,91.8L77.6,90.0L78.3,89.7L78.8,89.7L79.2,89.4L79.2,88.4L80.0,87.6L80.3,86.6L81.4,85.9L81.4,85.4L82.2,84.4L83.2,82.3L83.3,81.3L83.9,80.4L83.9,79.6L84.2,78.9L84.3,77.7L84.6,76.9L84.7,75.4L84.9,74.1L84.5,70.2L84.3,69.7L84.2,68.1L83.6,66.4L83.4,66.1L82.7,64.2L81.9,62.3L79.3,58.9L75.6,55.4L74.1,54.7L73.2,54.0L72.3,53.8L71.3,53.1L69.4,52.5L68.6,52.1L64.5,51.4Z M119.0,81.6L118.1,80.3L118.1,78.6L117.6,77.6L117.7,76.7L117.4,75.3L116.8,73.8L116.7,72.3L116.3,71.6L116.0,70.6L115.5,69.3L115.4,68.6L115.0,68.0L114.5,66.3L113.7,64.6L112.9,63.4L112.4,62.0L111.8,61.3L111.3,59.9L109.3,57.3L108.6,55.9L108.1,55.3L107.8,54.7L106.7,53.5L103.8,50.0L103.4,49.8L102.6,49.1L102.0,48.2L101.1,47.8L100.0,46.6L99.1,46.0L97.8,44.8L97.5,44.7L96.6,44.8L96.4,44.5L96.1,43.7L95.3,43.3L94.5,42.3L92.0,41.0L91.3,40.4L90.5,40.1L89.9,39.5L88.8,38.8L87.6,38.5L87.0,38.1L86.6,38.0L85.5,37.2L83.3,36.4L82.1,36.2L81.4,35.8L80.7,35.8L80.5,35.6L78.7,35.5L77.8,34.9L76.9,34.7L75.8,34.6L75.0,34.1L73.9,33.8L73.4,33.8L72.4,33.5L70.8,33.6L69.5,33.2L68.8,33.3L68.0,32.5L67.4,32.5L66.8,33.2L65.8,33.2L65.1,32.7L64.6,32.7L64.0,33.2L62.9,33.0L62.1,33.3L61.5,33.3L60.8,33.0L59.5,33.0L58.9,33.5L57.7,33.3L55.9,33.4L53.0,34.1L52.5,34.5L51.7,34.5L50.6,35.0L49.5,34.9L48.7,35.4L47.6,35.5L46.8,35.8L46.4,35.8L45.4,36.3L44.0,36.5L43.1,37.1L42.7,37.4L42.0,37.5L41.4,38.0L40.3,38.5L39.9,38.9L38.0,39.5L35.7,40.7L34.5,41.7L33.1,42.3L30.6,44.2L28.8,45.3L22.7,51.4L22.3,52.2L21.9,52.6L21.6,53.5L20.1,54.7L18.6,57.3L17.6,58.3L16.4,60.3L15.5,62.1L14.9,62.8L14.6,63.7L14.0,64.6L13.8,65.1L12.7,66.8L11.8,70.4L11.5,70.9L11.1,72.0L10.9,73.1L10.5,74.5L10.5,75.0L10.0,76.3L10.0,77.3L9.8,78.0L9.8,78.9L9.3,81.3L9.1,84.4L9.3,84.8L9.8,85.2L10.7,85.3L10.9,85.0L11.3,84.2L12.0,83.1L12.3,81.8L12.9,81.0L13.9,78.4L14.6,77.3L14.7,76.7L15.1,76.0L15.6,74.5L16.9,73.1L17.6,71.8L19.0,70.1L19.8,68.6L20.7,68.0L21.1,67.2L23.8,64.5L24.5,63.5L25.0,63.1L25.4,63.0L26.7,61.5L28.3,60.4L29.5,59.0L31.3,57.7L31.7,57.5L32.5,56.9L32.9,56.8L34.5,55.9L35.1,55.3L35.2,55.0L35.4,54.7L37.2,54.4L38.0,53.8L39.2,53.1L40.5,52.9L41.2,52.1L42.3,51.4L43.0,51.3L43.9,50.8L44.9,50.9L45.9,50.4L46.5,50.4L47.5,49.7L48.7,49.2L48.9,49.2L49.3,49.5L50.4,49.5L54.2,48.3L54.7,48.3L56.6,47.8L58.9,47.8L59.8,47.4L60.7,47.3L61.2,47.0L63.1,47.1L64.2,47.4L67.7,47.3L68.5,47.6L70.5,47.6L71.0,47.8L72.2,47.8L72.8,48.0L73.6,48.0L74.1,48.2L74.9,48.2L75.7,48.5L76.5,48.6L77.1,49.0L78.0,49.1L78.9,49.4L80.1,49.5L80.8,50.0L82.4,50.1L83.7,50.7L84.5,50.8L85.9,51.7L87.2,52.0L88.0,52.6L88.7,52.8L89.8,53.6L91.2,54.1L92.8,55.6L93.6,55.8L94.9,56.7L96.2,57.3L99.7,60.3L100.8,60.8L101.7,61.9L103.8,63.5L104.7,64.5L105.1,65.3L107.3,67.6L108.1,68.8L108.8,69.6L109.7,71.4L111.1,72.8L111.9,74.4L112.9,75.5L113.5,77.3L114.3,78.6L114.5,79.5L115.5,81.2L115.9,82.1L116.7,83.3L117.1,83.5L117.6,83.5L118.6,82.9L119.0,82.5Z" fill="#000" fill-rule="evenodd"/>
</svg>