<svg xmlns="http://www.w3.org/2000/svg" viewBox="0 0 128 128" width="128" height="128">
  <path d="M99.7,32.5L95.1,29.2L94.4,29.0L92.9,28.0L92.5,27.9L89.8,26.6L87.1,25.5L82.7,24.2L78.7,23.5L73.3,23.4L72.0,23.5L70.6,23.5L69.6,23.7L69.0,23.7L67.2,24.1L66.3,24.2L65.8,24.4L65.2,24.5L63.9,25.0L63.2,25.1L62.7,25.4L60.7,26.0L59.5,26.6L58.9,26.8L57.6,27.5L57.1,27.6L56.9,27.8L53.6,29.6L51.7,31.0L49.4,33.0L46.7,35.8L42.4,41.8L40.5,45.8L40.4,46.2L39.4,48.6L39.2,49.7L38.4,52.0L38.3,53.6L38.0,54.3L37.8,56.6L37.7,57.1L37.7,63.6L38.4,67.6L39.1,70.2L40.7,73.7L41.5,74.9L41.8,75.6L42.9,77.1L45.5,80.1L47.5,81.9L50.2,83.9L53.6,85.6L56.2,86.6L57.8,86.9L58.7,87.3L59.1,87.3L61.2,87.7L64.2,87.9L68.0,87.7L71.0,87.2L72.7,86.7L73.0,86.5L73.7,86.3L74.2,86.0L74.5,86.0L75.3,85.6L75.9,85.5L77.4,84.7L79.9,83.2L82.1,81.5L83.5,80.2L84.8,78.9L86.3,77.0L87.7,74.9L89.4,71.6L90.7,67.9L90.8,67.2L91.0,66.5L91.6,62.8L91.6,58.9L91.1,55.4L90.9,54.9L90.2,52.1L89.1,49.7L89.1,49.5L88.6,48.8L88.5,48.2L86.4,45.0L84.8,43.0L82.5,40.7L81.3,39.7L78.8,37.9L78.1,37.6L77.3,37.0L75.5,36.3L74.6,35.7L74.1,35.6L73.6,35.3L73.0,35.3L72.3,35.0L71.1,34.7L70.6,34.5L66.3,33.9L62.9,33.9L61.1,34.0L60.2,34.3L57.8,34.6L57.2,34.8L56.9,34.6L57.0,34.3L58.2,32.9L60.4,31.0L62.9,29.4L66.0,27.9L67.2,27.5L67.9,27.5L69.1,27.1L69.9,27.1L70.8,26.8L74.7,26.7L76.7,26.8L78.0,27.1L79.4,27.3L80.1,27.6L81.6,27.9L83.2,28.5L84.1,29.0L84.3,29.0L84.6,29.2L85.2,29.4L87.1,30.4L91.0,33.1L93.4,35.2L95.3,37.0L97.9,40.1L100.5,44.1L101.6,46.2L102.2,46.9L102.6,48.0L102.9,48.2L105.6,54.5L106.0,55.8L106.6,57.2L106.6,57.5L107.5,60.0L107.5,62.3L107.1,63.7L107.0,64.8L106.7,65.3L106.6,66.0L106.2,67.2L106.1,67.7L105.8,68.3L105.7,69.0L104.4,72.5L102.3,76.7L101.9,77.4L100.9,79.3L100.4,79.8L99.2,81.8L97.1,84.9L93.9,88.5L90.4,91.7L86.4,94.6L85.5,95.1L84.5,95.8L83.1,96.3L82.7,96.6L78.6,98.3L78.1,98.4L76.9,98.8L76.3,98.9L75.7,99.2L74.6,99.5L70.7,100.3L69.6,100.4L69.1,100.5L68.2,100.5L66.5,100.9L62.3,100.9L58.7,100.4L57.7,100.4L57.4,100.2L56.0,100.0L55.2,99.7L54.4,99.6L48.9,97.8L46.7,96.7L46.2,96.6L44.3,95.5L43.7,95.3L42.1,94.2L41.6,94.1L38.7,91.9L37.2,90.7L34.0,87.6L30.8,83.9L28.9,81.3L27.7,79.2L27.4,78.9L25.1,75.0L25.0,74.5L24.8,74.3L22.1,68.6L21.7,67.2L20.9,65.5L19.9,62.4L19.6,62.0L19.3,61.8L9.6,62.0L9.1,62.3L9.1,62.8L9.5,63.7L9.8,64.8L10.1,65.4L11.9,70.3L12.3,70.9L12.8,72.1L14.5,75.5L17.1,79.7L20.0,83.6L21.4,85.1L21.8,85.8L26.0,90.0L28.3,92.0L30.8,94.0L34.8,96.7L40.0,99.6L45.0,101.8L47.5,102.5L48.2,102.8L48.5,102.8L49.2,103.1L50.1,103.2L51.3,103.6L52.2,103.6L53.6,104.0L54.3,104.0L57.1,104.6L61.2,104.9L66.7,104.8L72.3,104.0L76.5,103.1L77.0,102.9L77.6,102.8L79.1,102.2L79.4,102.2L80.5,101.8L81.0,101.7L82.7,101.0L83.0,101.0L84.6,100.2L85.3,100.1L86.9,99.2L87.3,99.2L88.3,98.5L89.2,98.2L92.4,96.2L92.7,95.9L93.3,95.7L94.1,95.1L94.4,95.0L94.8,94.6L95.3,94.4L98.9,91.6L101.9,88.9L105.7,84.9L107.9,82.3L109.5,80.2L109.7,79.8L110.4,79.0L113.4,74.2L114.4,72.0L115.1,71.0L115.2,70.6L116.0,69.1L116.6,67.5L116.8,67.2L117.0,66.6L118.2,63.8L118.3,63.1L118.6,62.5L118.8,61.6L119.2,60.7L119.1,59.8L118.8,59.2L118.6,58.5L117.9,57.3L117.8,56.7L117.5,56.4L117.4,56.0L115.5,52.3L114.1,49.9L113.8,49.2L112.3,47.1L111.7,46.0L111.1,45.4L110.8,44.8L109.0,42.4L108.7,41.9L106.5,39.2L105.4,38.1L105.3,37.9L102.2,34.7Z M65.5,54.9L65.8,55.0L66.5,55.1L66.9,55.4L67.5,55.6L68.3,56.2L69.0,56.9L70.0,58.4L70.4,59.9L70.5,60.9L70.2,62.5L69.6,63.8L68.5,65.2L67.3,66.1L66.1,66.6L64.2,66.9L63.2,66.7L61.8,66.2L60.9,65.6L59.9,64.7L59.1,63.4L58.7,62.3L58.6,60.1L59.1,58.5L59.4,57.7L60.9,56.1L62.8,55.1L64.2,54.9Z" fill="#000" fill-rule="evenodd"/>
</svg>