<svg xmlns="http://www.w3.org/2000/svg" viewBox="0 0 128 128" width="128" height="128">
  <path d="M9.1,59.3L9.1,60.1L9.4,62.7L9.6,63.7L9.6,64.3L9.9,65.7L9.9,66.3L10.2,68.1L10.4,68.4L10.6,68.4L12.4,66.7L13.0,66.7L13.4,67.0L17.9,71.2L19.6,72.5L21.0,73.9L22.9,75.5L23.2,75.6L24.0,76.5L24.6,76.8L26.4,78.4L27.8,79.5L28.8,80.4L36.3,86.1L38.9,87.8L42.7,90.6L43.1,90.7L44.2,91.5L44.7,91.7L47.1,93.4L48.8,94.3L50.8,95.1L51.8,95.7L53.3,96.1L53.7,96.4L54.8,96.6L55.3,96.9L55.7,96.9L57.0,97.3L60.9,98.0L62.7,98.1L66.7,98.1L69.5,97.8L70.7,97.4L71.2,97.4L75.2,96.4L78.9,95.0L79.2,94.7L79.9,94.5L80.2,94.2L80.6,94.1L80.9,93.8L82.8,92.8L84.4,91.6L88.9,88.0L92.8,84.5L100.6,76.5L105.3,71.0L107.6,68.1L107.5,67.5L103.2,63.8L102.7,63.8L102.0,64.5L101.8,65.0L98.5,68.9L93.4,74.7L87.8,80.4L83.8,83.9L78.9,87.6L75.9,89.4L75.3,89.6L73.3,90.4L70.4,91.2L66.5,91.9L62.0,91.9L57.7,91.1L57.3,90.9L55.3,90.3L53.0,89.4L52.7,89.1L50.0,87.8L48.6,86.8L47.7,86.3L45.1,84.7L44.5,84.1L43.4,83.5L41.9,82.3L37.5,79.2L36.6,78.4L35.9,78.0L32.8,75.5L31.5,74.5L28.2,71.7L27.1,70.9L17.6,62.4L17.0,61.8L17.0,61.4L18.5,59.7L18.7,59.2L18.6,59.1L9.4,59.0Z M78.5,57.0L78.1,56.5L77.9,56.0L77.5,55.4L76.9,55.5L76.5,55.9L76.3,57.1L76.0,57.9L75.6,58.4L74.8,58.6L74.3,59.0L73.4,60.1L72.9,61.3L72.3,61.8L72.0,61.8L71.8,61.6L71.7,60.8L71.2,60.3L71.0,59.9L70.8,59.7L70.4,59.7L69.9,60.2L69.7,60.7L69.7,61.7L69.9,62.4L69.8,63.3L69.5,63.7L69.1,63.7L68.8,63.4L68.6,62.7L68.6,60.5L68.7,60.3L69.7,59.4L69.7,59.1L69.5,59.0L68.1,59.1L66.9,59.8L66.3,59.8L66.1,59.7L66.1,59.4L66.6,59.1L66.8,58.6L66.8,58.3L65.2,58.2L64.7,57.6L63.4,57.8L59.0,57.8L58.3,57.7L56.9,57.7L55.5,57.5L52.4,56.8L51.8,56.8L51.3,57.4L51.0,57.6L50.6,57.6L50.2,58.1L49.7,60.4L49.1,61.7L49.1,62.7L48.9,64.0L49.1,65.4L49.8,67.7L50.4,68.9L52.3,70.9L54.3,71.0L56.0,72.1L57.0,72.5L58.5,72.6L58.9,72.4L59.6,72.5L60.2,72.9L60.9,74.0L61.4,74.2L61.9,74.0L62.7,74.0L63.1,74.2L64.5,76.0L65.1,76.5L65.8,76.4L65.9,76.0L65.9,75.3L66.2,74.3L66.8,73.7L68.4,72.7L68.9,72.5L69.7,72.5L70.7,71.8L71.7,71.5L73.0,71.5L74.2,71.9L74.6,72.3L75.0,73.2L76.5,74.6L77.0,74.7L77.5,74.3L77.6,73.7L76.4,72.1L75.3,71.1L75.2,70.6L75.2,70.0L75.9,68.5L76.3,68.0L77.2,66.3L77.1,65.9L76.8,65.5L76.7,65.0L77.0,64.2L77.3,62.4L77.6,61.6L78.4,60.5L78.4,60.1L77.9,59.4L77.9,58.9L78.1,58.3L78.5,57.8Z M63.1,39.6L61.6,39.8L60.9,39.8L59.2,40.2L58.7,40.2L58.0,40.5L57.3,40.6L55.8,41.1L53.5,42.0L52.7,42.5L51.3,43.2L50.9,43.6L49.4,44.5L48.0,45.6L45.3,48.4L43.3,51.2L42.6,52.6L42.3,53.0L41.5,54.6L41.2,55.7L40.6,57.1L40.2,59.3L39.8,62.0L39.8,66.3L40.2,69.1L40.9,71.8L41.4,72.7L41.9,74.1L42.9,76.3L43.5,77.1L43.7,77.5L45.6,80.1L46.8,81.4L49.4,83.6L51.8,85.3L53.9,86.3L55.6,87.1L57.9,87.8L58.3,88.0L62.6,88.6L66.5,88.6L70.7,87.9L73.7,86.9L74.0,86.6L75.0,86.3L76.9,85.2L77.2,85.1L77.8,84.6L79.0,83.8L80.2,82.8L82.2,81.0L84.4,78.2L84.5,77.8L85.6,76.1L85.8,75.5L86.5,74.5L86.6,73.9L87.0,73.2L88.2,69.1L88.4,67.0L88.5,66.7L88.6,66.0L88.6,62.6L88.3,60.9L88.2,59.7L87.9,58.8L87.6,57.3L87.4,57.1L87.4,56.7L86.1,53.3L84.5,50.6L82.8,48.4L80.1,45.6L78.1,44.0L77.2,43.6L76.3,42.9L74.7,42.0L71.7,40.8L68.6,40.0L65.7,39.7Z M64.9,46.4L67.7,46.8L69.2,47.2L71.4,48.0L74.7,50.0L75.4,50.6L77.5,52.6L79.3,55.1L80.2,56.8L81.3,59.9L81.8,62.4L81.9,65.0L81.4,68.3L80.9,69.9L80.6,70.5L80.2,71.9L79.3,73.2L79.2,73.7L78.6,74.3L78.4,74.8L75.9,77.6L75.3,78.0L74.7,78.5L72.4,80.0L69.4,81.2L67.1,81.7L65.4,81.9L63.2,81.9L60.9,81.6L59.2,81.1L57.3,80.4L55.4,79.5L53.3,78.1L51.9,76.8L50.5,75.4L49.1,73.5L48.6,72.3L48.3,71.9L47.4,69.9L47.3,69.2L47.1,68.7L46.9,67.3L46.6,66.3L46.5,62.8L46.6,61.8L47.1,59.5L47.3,59.1L47.4,58.3L47.8,57.6L47.8,57.4L49.0,55.1L49.9,53.7L52.2,51.2L54.9,49.1L57.2,47.9L58.4,47.4L61.3,46.6Z M21.2,60.4L21.2,61.0L25.3,64.7L25.9,64.6L26.6,63.9L26.7,63.7L28.1,62.0L29.2,60.4L30.7,58.8L31.2,58.1L37.3,51.2L41.1,47.4L44.9,44.0L49.4,40.7L51.7,39.4L52.4,39.1L53.3,38.6L55.3,37.8L56.4,37.6L57.1,37.3L57.6,37.3L58.0,37.1L58.7,37.1L59.0,36.9L61.2,36.5L66.7,36.5L68.0,36.8L69.5,37.0L72.6,37.8L72.7,38.0L73.6,38.2L74.0,38.5L74.4,38.6L74.9,38.9L76.3,39.5L80.9,42.1L81.7,42.7L82.2,43.0L87.3,46.5L92.0,50.2L92.5,50.5L96.0,53.5L98.0,55.1L99.6,56.6L100.3,57.1L104.4,60.9L106.6,63.1L107.2,63.6L111.1,67.5L111.1,68.3L109.7,69.9L109.7,70.2L109.9,70.3L118.7,70.2L118.9,70.1L119.2,69.6L118.9,68.4L118.7,65.3L118.6,64.8L118.4,62.0L118.3,61.0L118.0,60.8L117.7,60.8L116.1,62.4L115.6,62.5L115.3,62.3L110.9,58.0L104.0,51.7L103.8,51.6L103.0,50.9L98.4,47.0L98.2,47.0L97.5,46.3L92.5,42.4L88.2,39.2L87.2,38.7L84.0,36.5L83.5,36.3L82.2,35.3L80.2,34.1L79.5,33.8L78.0,33.0L76.8,32.6L76.0,32.2L71.4,30.9L70.6,30.8L69.5,30.5L67.6,30.3L67.0,30.2L61.5,30.1L59.2,30.5L58.0,30.6L57.0,30.9L55.7,31.0L55.0,31.3L52.9,31.9L52.6,32.1L51.8,32.2L51.4,32.5L51.1,32.5L50.3,33.0L49.9,33.1L47.9,34.1L47.0,34.7L46.7,34.8L45.7,35.5L45.4,35.6L43.2,37.2L40.2,39.6L37.3,42.3L33.4,46.0L29.9,49.9L29.3,50.5L26.7,53.5L23.8,57.0Z" fill="#000" fill-rule="evenodd"/>
</svg>