<svg xmlns="http://www.w3.org/2000/svg" viewBox="0 0 128 128" width="128" height="128">
  <path d="M48.1,61.9L47.9,62.7L48.0,62.8L48.4,62.8L50.1,61.7L51.4,61.1L52.3,60.5L52.5,60.5L54.4,59.6L57.0,58.7L57.8,58.8L57.8,59.0L56.6,61.1L56.5,61.7L56.3,62.2L56.1,63.4L56.3,65.9L56.7,67.2L57.1,68.0L58.2,69.7L59.1,70.6L60.9,71.7L62.7,72.5L65.1,72.6L65.9,72.5L67.4,72.1L68.3,71.7L68.7,71.4L69.1,71.2L70.0,70.5L71.3,68.9L71.9,67.9L72.0,67.4L72.3,66.9L72.6,65.0L72.6,63.5L72.0,61.1L71.6,60.3L71.2,59.8L70.9,59.0L70.4,58.6L70.4,58.4L71.7,58.4L75.5,59.4L76.9,60.2L78.0,60.5L79.3,61.1L80.1,61.7L80.5,61.7L80.5,61.1L78.9,59.0L76.6,56.8L74.8,55.5L72.9,54.5L72.5,54.4L70.8,53.6L68.8,53.0L66.3,52.6L62.7,52.5L61.1,52.8L58.3,53.5L55.5,54.7L55.0,55.2L53.4,56.1L52.0,57.3L50.1,59.2Z M63.4,32.5L61.7,32.6L58.8,33.0L57.0,33.5L55.5,33.8L54.8,34.2L53.6,34.5L50.6,35.8L47.8,37.3L45.5,39.0L43.6,40.6L41.2,43.1L39.1,45.7L38.5,46.8L37.7,47.9L36.0,51.2L35.3,53.5L35.1,53.9L34.5,56.2L34.2,57.0L34.0,58.5L33.8,58.8L33.7,59.8L33.5,62.3L33.5,65.9L33.8,68.8L34.1,69.6L34.2,70.9L34.7,72.9L35.4,74.6L35.5,75.4L35.9,75.9L35.9,76.5L36.3,77.3L36.7,77.6L36.9,78.5L37.2,78.7L38.9,81.9L40.6,84.2L43.7,87.4L45.7,89.1L48.8,91.3L49.6,91.7L51.7,92.9L53.8,93.8L54.7,94.0L55.3,94.3L57.5,94.8L58.2,95.1L60.6,95.5L61.5,95.7L62.9,95.7L64.2,95.9L67.7,95.7L69.1,95.4L70.0,95.3L70.4,95.1L70.9,95.1L72.9,94.7L73.3,94.4L73.9,94.3L74.5,94.0L76.5,93.4L80.2,91.5L82.7,89.8L84.9,87.8L86.9,85.9L88.6,83.9L90.2,81.5L90.9,80.2L91.2,79.9L91.3,79.4L91.7,78.9L91.8,78.5L93.0,76.0L93.6,74.3L93.6,74.0L93.9,73.3L94.6,70.1L94.7,69.8L95.1,65.7L95.1,63.5L94.8,59.5L94.5,57.9L94.1,56.8L93.4,54.2L93.1,53.6L92.9,52.9L92.6,52.5L92.1,51.1L90.7,48.1L90.0,47.0L89.1,45.9L87.7,43.9L85.4,41.4L81.4,38.0L80.2,37.4L79.6,36.8L75.9,35.1L74.1,34.3L70.8,33.3L69.4,33.2L67.4,32.7Z M45.2,71.6L46.1,71.6L46.3,71.9L46.2,72.2L45.8,72.3L45.3,72.1L45.1,71.9Z M60.1,44.9L62.4,44.6L65.9,44.6L67.5,44.8L69.5,45.3L71.4,46.0L73.7,47.1L75.1,48.0L77.0,49.6L78.3,50.9L80.5,53.8L81.8,56.3L82.7,58.7L83.1,60.3L83.5,63.8L83.2,68.2L82.2,71.6L80.9,74.3L78.8,77.2L77.2,78.9L76.2,79.8L74.2,81.1L72.5,82.1L70.4,82.9L68.5,83.5L67.0,83.7L64.4,83.9L60.6,83.5L59.8,83.2L58.5,82.9L56.6,82.1L54.2,80.8L52.0,79.2L51.0,78.3L48.8,75.7L47.4,73.4L46.8,72.3L46.1,70.7L45.7,68.9L45.5,68.4L45.2,66.1L45.1,63.1L45.3,61.1L45.9,58.5L46.3,57.5L46.4,56.9L46.6,56.7L47.2,55.5L47.2,55.2L48.0,53.8L49.1,52.1L50.7,50.3L53.6,47.8L55.2,46.8L57.1,45.9Z M58.3,9.4L57.2,9.6L55.7,9.7L54.6,10.0L53.7,10.1L52.0,10.6L50.5,10.8L49.1,11.4L47.8,11.6L46.1,12.4L45.3,12.5L44.8,12.9L43.5,13.3L42.8,13.7L41.1,14.3L36.8,16.6L34.5,18.3L33.8,18.6L32.8,19.5L32.1,19.9L29.9,21.7L29.4,21.9L28.6,22.8L26.7,24.5L26.1,25.3L24.4,27.0L21.7,30.3L18.5,34.9L18.2,35.6L17.6,36.4L17.4,37.1L17.0,37.6L15.6,40.3L15.3,41.3L14.9,42.0L14.7,42.7L14.4,43.2L12.2,49.9L12.0,51.5L11.6,52.2L11.5,53.8L11.2,54.8L10.6,59.9L10.4,63.2L10.4,66.6L10.7,68.4L10.7,70.0L11.1,71.9L11.2,73.5L11.5,74.2L11.7,75.9L12.1,76.8L12.5,78.7L13.3,81.0L13.5,82.3L15.9,88.1L16.2,88.3L16.9,90.0L17.6,91.1L17.7,91.5L18.2,92.1L19.0,93.7L19.3,94.0L21.3,97.0L25.3,101.8L28.7,105.2L30.3,106.4L32.3,108.2L36.0,110.8L36.3,110.8L39.7,112.9L42.6,114.3L43.0,114.4L44.1,115.1L45.7,115.7L46.7,115.9L47.5,116.4L48.9,116.8L49.6,116.8L50.4,117.2L52.5,117.6L53.4,118.0L54.4,118.1L55.8,118.5L57.7,118.8L63.1,119.2L69.1,119.1L69.6,118.9L71.9,118.8L74.1,118.3L74.6,118.3L77.2,117.6L77.6,117.6L78.2,117.3L79.3,117.2L81.9,116.3L82.3,115.9L83.2,115.9L83.6,115.5L84.1,115.5L84.9,115.1L85.5,114.9L86.1,114.5L87.5,114.0L87.8,113.8L88.3,113.6L89.4,112.9L90.7,112.3L93.3,110.6L93.8,110.4L95.1,109.4L95.7,109.1L100.7,104.8L103.1,102.4L104.4,100.8L105.3,99.9L108.3,95.8L109.4,93.9L110.1,92.9L110.2,92.5L110.4,92.3L111.0,91.2L111.4,90.7L111.5,90.3L113.3,86.8L113.7,85.6L113.7,85.3L114.2,84.4L114.7,83.2L114.7,82.6L115.5,80.7L115.7,79.4L115.9,78.9L116.1,77.7L116.5,76.7L116.6,75.5L116.9,74.4L117.1,72.5L117.4,71.2L117.8,65.9L117.6,64.6L117.6,60.2L117.5,59.8L117.4,58.3L116.8,54.3L115.5,48.7L113.7,43.4L111.8,39.3L111.6,39.1L110.4,36.8L107.4,31.9L104.3,27.9L103.4,27.0L103.2,26.7L102.4,26.0L101.7,25.1L97.6,21.4L96.0,20.2L95.4,19.6L90.0,16.1L88.5,15.5L87.4,14.8L85.4,13.9L84.6,13.4L84.3,13.4L82.3,12.5L81.2,12.2L80.6,11.9L79.0,11.5L78.6,11.2L77.0,10.9L76.3,10.6L75.1,10.4L72.5,9.8L68.6,9.3L66.9,9.3L66.1,9.1L61.9,9.1Z M60.3,21.0L66.0,21.0L68.1,21.1L68.5,21.3L69.5,21.3L71.0,21.5L71.7,21.8L72.7,21.9L75.6,22.7L76.6,22.9L80.0,24.2L80.3,24.4L82.2,25.2L82.5,25.5L83.9,26.1L84.1,26.3L86.7,27.8L90.4,30.5L92.9,32.9L95.4,35.4L98.6,39.6L100.6,42.7L101.0,43.8L101.5,44.4L103.3,48.6L104.7,52.7L105.5,56.2L106.1,61.0L106.2,65.5L106.0,70.2L105.7,71.2L105.5,73.4L104.2,78.2L103.0,81.0L102.8,81.8L101.9,83.6L101.7,83.9L101.6,84.3L101.0,85.6L99.8,87.4L99.3,88.4L96.4,92.3L93.4,95.5L92.1,96.8L91.5,97.2L90.9,97.8L90.2,98.3L89.9,98.7L88.7,99.4L87.4,100.6L86.4,101.0L85.3,101.9L84.8,102.0L83.6,102.7L81.2,103.8L80.7,104.1L77.0,105.5L74.4,106.2L73.4,106.3L71.3,106.9L68.5,107.3L63.1,107.4L61.5,107.1L59.5,107.0L56.9,106.6L56.3,106.4L54.2,106.0L53.1,105.6L52.3,105.5L48.3,104.0L46.9,103.4L45.3,102.5L45.1,102.5L44.1,102.0L43.1,101.4L42.7,101.2L41.8,100.5L40.6,99.8L37.6,97.5L34.6,94.8L31.5,91.3L31.0,90.5L29.7,89.0L28.7,87.2L27.9,86.1L26.8,83.8L26.6,83.7L25.7,81.9L25.6,81.2L25.2,80.5L25.1,80.0L24.8,79.7L24.6,78.6L24.2,77.7L23.6,75.5L23.5,75.2L22.6,71.2L22.4,68.8L22.0,66.7L22.0,61.8L22.2,59.4L22.3,58.9L22.6,56.5L22.7,56.2L23.0,54.3L23.3,53.6L23.4,52.9L23.6,52.4L24.3,49.8L24.6,49.3L25.2,47.5L26.0,46.0L26.1,45.3L27.2,43.6L27.9,42.0L28.7,41.0L29.2,39.8L30.0,38.9L30.2,38.5L31.6,36.6L33.3,34.6L35.9,32.0L37.9,30.3L40.6,28.2L42.6,27.1L44.3,26.0L47.4,24.4L50.4,23.2L55.4,21.9L57.0,21.7L57.7,21.4Z" fill="#000" fill-rule="evenodd"/>
</svg>