<svg xmlns="http://www.w3.org/2000/svg" viewBox="0 0 128 128" width="128" height="128">
  <path d="M76.1,68.9L74.3,68.9L73.8,69.5L73.8,69.8L73.1,71.1L73.2,71.5L73.8,71.4L75.0,70.5L76.2,69.3Z M71.2,68.8L69.4,68.8L69.3,69.0L69.3,72.4L69.5,72.4L70.0,71.9L70.5,71.0L70.9,70.5L71.4,69.3L71.4,69.0Z M64.8,68.9L64.8,69.4L65.5,71.0L66.1,71.7L66.3,72.2L66.5,72.4L66.8,72.3L66.9,71.1L66.7,68.9L66.4,68.8L65.2,68.8Z M60.2,68.8L59.9,69.1L61.5,70.7L62.6,71.5L63.0,71.3L63.0,71.1L62.6,70.4L62.1,69.1L61.8,68.8Z M75.6,62.6L75.3,63.1L75.0,66.2L75.4,66.5L78.1,66.5L78.5,66.0L78.6,65.4L79.0,64.8L79.1,63.6L79.3,63.2L79.2,62.6L77.2,62.5L75.9,62.5Z M69.5,62.6L69.2,63.2L69.3,66.2L69.7,66.5L72.2,66.4L72.4,66.2L72.8,64.5L72.8,62.7L72.6,62.5L72.0,62.4L70.4,62.4Z M63.5,62.5L63.2,63.0L63.2,63.6L63.5,65.3L63.8,66.2L64.3,66.5L66.5,66.5L66.8,66.3L66.8,62.6L66.4,62.4Z M56.9,62.7L57.3,64.6L57.9,66.1L58.4,66.5L61.0,66.4L61.1,65.3L60.9,64.6L60.9,63.7L60.5,62.5L57.5,62.4Z M75.0,56.3L75.3,59.3L75.7,59.9L77.8,59.9L78.4,60.1L79.2,59.9L79.4,59.6L79.4,59.1L79.2,58.7L79.1,58.0L78.6,56.4L78.3,56.1L75.5,56.0Z M64.0,56.1L63.7,56.4L63.4,57.7L63.3,59.7L63.7,60.0L66.5,60.0L66.9,59.4L66.8,56.3L66.5,56.0Z M58.0,56.1L57.7,56.4L57.0,58.6L57.0,59.8L57.2,59.9L57.7,60.0L60.3,59.9L60.8,59.4L61.1,57.1L61.0,56.2L60.5,56.0Z M72.2,56.1L71.3,55.9L69.7,56.0L69.4,56.2L69.2,56.5L69.2,59.3L69.5,59.9L72.8,59.9L72.8,58.0L72.4,56.4Z M63.0,50.6L62.4,50.7L60.9,51.8L60.0,52.7L59.8,53.1L59.8,53.4L60.3,53.6L61.8,53.6L62.5,52.4L62.6,51.8L63.1,50.9Z M73.0,50.6L73.0,50.9L74.2,53.4L74.6,53.6L76.6,53.5L76.7,53.1L75.0,51.5L73.6,50.5Z M69.3,49.9L69.3,53.0L69.6,53.6L70.2,53.6L71.4,53.5L71.4,52.9L70.3,50.8L69.5,49.9Z M66.8,49.9L66.4,49.9L65.4,51.9L65.0,52.4L64.8,53.4L65.1,53.6L66.1,53.7L66.5,53.6L66.8,53.4Z M66.7,20.3L64.1,20.4L62.2,20.8L60.9,20.8L60.4,21.0L59.1,21.1L56.9,21.7L54.7,22.0L54.5,22.2L50.7,23.1L49.5,23.7L48.8,23.7L48.2,24.1L47.1,24.3L46.7,24.6L44.0,25.5L42.6,26.3L41.0,27.0L39.0,28.0L38.2,28.6L37.6,28.7L37.2,29.1L35.9,29.8L32.1,32.1L30.6,33.4L29.3,34.3L25.0,38.0L22.0,41.1L18.3,45.2L15.3,49.3L14.8,50.3L13.9,51.6L13.5,52.4L13.1,52.8L11.4,56.1L11.1,56.5L11.1,56.8L10.7,57.5L10.5,58.1L9.3,60.4L9.3,60.9L9.6,61.1L23.4,61.0L23.8,60.7L24.3,59.7L25.6,57.9L26.3,56.6L27.6,54.7L30.6,51.2L34.4,47.4L39.2,43.4L42.1,41.6L44.8,40.0L50.7,37.3L51.3,37.2L53.6,36.4L56.1,35.8L56.9,35.5L57.9,35.4L60.2,34.8L61.0,34.9L60.3,35.4L58.9,35.8L57.0,36.7L54.7,38.2L52.4,40.0L52.2,40.0L51.0,41.1L48.9,43.4L47.0,45.8L45.7,47.9L44.9,50.0L44.6,50.3L43.8,52.7L43.2,54.9L43.0,56.4L42.7,57.9L42.5,62.1L42.8,65.3L43.2,67.4L43.7,69.4L44.6,71.9L45.5,73.8L46.6,75.5L47.0,76.4L48.8,78.7L51.9,81.8L54.7,83.9L58.1,85.7L60.3,86.6L61.2,86.8L62.2,87.2L62.7,87.2L64.9,87.7L67.2,87.8L68.2,88.0L70.1,87.9L72.7,87.5L77.5,86.2L78.5,85.7L78.8,85.5L81.3,84.2L84.6,81.8L87.1,79.4L88.4,77.9L90.4,74.9L91.8,72.2L93.0,69.0L93.3,67.4L93.5,67.1L93.9,65.0L94.2,62.6L94.1,58.3L93.8,57.6L93.5,54.8L92.6,51.7L91.9,50.1L91.5,49.0L90.5,47.3L90.3,46.8L90.0,46.4L89.7,45.8L89.0,44.9L89.0,44.7L87.6,43.0L85.7,40.9L83.6,39.1L83.2,38.9L81.4,37.6L79.0,36.3L77.3,35.6L76.9,35.2L77.3,35.1L79.4,35.6L80.6,36.1L82.8,36.8L83.1,37.1L84.6,37.7L85.1,38.0L86.5,38.6L88.5,39.8L92.4,42.5L96.5,46.4L98.2,48.4L99.6,50.2L102.4,54.7L104.0,58.1L104.9,60.4L104.9,60.8L104.4,61.2L101.4,61.2L101.0,61.4L100.8,61.7L100.5,65.0L100.1,67.4L98.7,72.6L96.9,76.7L96.6,76.9L96.4,77.6L96.1,77.8L95.9,78.4L94.9,80.0L93.1,82.3L90.2,85.5L86.8,88.5L83.0,90.9L82.4,91.1L82.2,91.4L80.5,92.0L80.0,92.4L77.4,93.2L74.1,94.1L69.6,94.7L66.1,94.7L63.7,94.3L62.9,94.3L60.9,93.9L60.3,93.9L56.9,93.1L52.8,91.8L50.0,90.6L46.0,88.5L42.4,86.2L37.8,82.2L34.9,79.2L33.3,77.4L32.8,76.6L31.9,75.5L31.7,75.0L30.1,72.8L29.5,71.7L29.0,71.2L28.3,71.2L27.4,71.6L25.9,71.8L24.2,72.4L22.9,72.7L22.5,72.9L21.7,73.0L20.5,73.4L16.9,74.4L16.5,74.7L16.5,75.1L17.8,77.7L19.5,80.6L20.3,81.6L20.5,82.2L24.9,88.0L28.4,91.6L31.6,94.4L33.9,96.3L37.8,99.0L41.1,101.0L41.9,101.2L42.9,101.9L44.9,102.8L49.6,104.7L53.9,106.0L55.7,106.4L57.7,107.0L61.5,107.6L62.4,107.6L65.1,107.9L69.9,107.9L72.6,107.7L73.1,107.5L74.3,107.5L76.3,107.1L76.9,107.1L80.6,106.0L81.4,106.0L82.3,105.5L84.5,104.9L85.1,104.6L86.0,104.3L86.3,104.1L86.9,104.0L90.4,102.2L93.6,100.2L97.1,97.5L102.2,92.6L104.9,89.4L107.7,85.1L108.2,83.9L108.6,83.4L109.6,81.3L110.6,79.0L111.0,78.4L111.2,77.3L111.9,75.6L112.7,72.3L112.9,71.8L113.0,70.7L113.3,69.9L113.5,67.7L113.9,66.3L114.0,63.1L114.4,61.7L114.6,61.5L118.5,61.5L119.0,61.3L119.0,60.9L117.6,56.0L116.8,54.0L116.7,53.5L115.5,51.1L115.3,50.4L113.0,46.1L111.1,42.9L110.7,42.6L110.0,41.4L108.9,40.0L108.1,38.9L104.9,35.4L101.8,32.5L97.5,29.1L96.4,28.5L95.9,28.1L94.5,27.3L93.6,26.6L93.0,26.5L89.5,24.6L87.4,23.8L86.7,23.4L85.2,23.0L84.7,22.6L84.0,22.5L83.4,22.2L82.6,22.1L79.8,21.3L77.8,21.0L76.6,20.7L71.1,20.3Z M67.1,46.8L69.4,46.8L71.9,47.3L74.2,48.2L76.6,49.7L78.6,51.8L80.1,54.1L81.2,56.9L81.8,59.4L81.8,62.4L81.5,63.2L81.3,64.8L80.2,67.7L78.6,70.1L76.9,71.9L75.0,73.3L72.7,74.4L71.8,74.6L71.0,75.0L69.4,75.2L67.0,75.2L66.5,75.0L65.3,75.0L63.6,74.4L61.7,73.6L59.6,72.2L58.3,71.0L57.4,69.9L56.0,67.7L55.0,65.0L54.5,62.0L54.6,59.4L54.9,57.5L55.5,55.6L55.8,55.2L55.9,54.7L56.3,54.2L56.8,53.1L57.8,51.9L57.9,51.7L60.3,49.4L61.7,48.5L62.0,48.5L62.3,48.2L62.9,48.0L63.6,47.6L64.7,47.4L64.8,47.3Z" fill="#000" fill-rule="evenodd"/>
</svg>