<svg xmlns="http://www.w3.org/2000/svg" viewBox="0 0 128 128" width="128" height="128">
  <path d="M110.3,58.9L109.7,57.9L107.5,56.0L106.1,55.2L104.2,54.6L98.9,53.9L93.4,53.5L92.6,53.3L89.8,53.1L89.1,52.9L85.6,52.7L83.2,52.3L80.5,52.2L77.7,51.7L75.8,51.6L75.5,51.8L75.7,52.3L77.7,54.4L79.4,56.8L80.3,58.7L81.2,61.0L81.6,64.2L81.6,67.2L81.1,70.3L80.3,72.5L78.5,75.7L77.3,77.4L75.5,79.4L73.6,80.6L71.9,82.0L70.2,82.8L68.3,83.5L66.5,83.8L64.7,84.3L61.8,84.7L61.1,85.0L58.8,85.4L58.1,85.6L56.7,85.7L56.0,86.0L54.4,86.2L50.9,87.1L49.5,87.3L48.6,87.7L47.8,87.8L46.9,88.2L46.1,88.2L40.9,90.1L38.5,91.2L35.7,92.9L33.4,94.6L30.9,97.0L28.6,100.5L27.5,102.9L27.0,104.8L26.7,106.5L26.6,109.6L27.2,110.1L54.4,110.1L59.8,109.9L60.2,109.4L60.4,107.1L60.4,101.5L60.5,100.7L60.6,98.1L61.2,94.9L62.0,92.1L62.5,91.0L63.6,89.3L64.6,88.2L65.9,86.8L67.1,85.9L68.8,84.9L71.2,83.7L77.3,81.7L78.5,81.5L79.6,81.1L80.6,80.9L81.4,80.5L86.2,79.2L87.3,78.7L88.4,78.5L89.3,78.2L91.6,77.6L95.1,76.4L96.4,76.1L97.7,75.7L98.1,75.7L99.1,75.2L101.5,74.6L102.2,74.3L103.3,74.1L105.5,73.3L107.5,72.3L109.9,70.2L110.8,68.8L111.6,66.9L111.8,65.2L111.8,63.1L111.2,60.5Z M100.2,18.8L99.3,18.2L91.7,18.2L88.9,18.4L70.2,18.3L67.5,18.4L67.0,18.6L66.8,19.1L66.9,22.7L66.7,27.8L66.1,31.8L65.6,33.6L65.6,34.1L64.7,36.2L64.4,36.6L64.1,37.2L63.6,37.7L63.3,38.3L61.8,39.9L60.5,41.0L59.0,42.0L58.2,42.3L57.9,42.6L55.6,43.5L50.5,44.9L49.6,45.3L47.7,45.7L45.0,46.7L43.6,46.9L41.7,47.6L41.0,47.7L39.8,48.1L38.5,48.4L36.3,49.2L35.9,49.2L34.8,49.6L34.0,49.7L32.9,50.2L30.7,50.8L30.2,51.0L29.1,51.2L28.4,51.6L26.9,51.9L26.6,52.1L25.3,52.3L24.8,52.6L24.0,52.7L20.9,53.9L20.1,54.5L18.5,56.0L17.7,57.0L16.9,58.5L16.4,60.3L16.2,61.3L16.2,63.3L16.4,64.5L17.0,66.4L17.7,67.6L19.4,69.7L20.8,70.7L21.9,71.3L24.5,72.0L27.0,72.2L28.3,72.5L31.4,72.8L32.8,73.0L33.7,73.0L37.2,73.6L40.5,73.9L42.5,74.3L44.4,74.4L45.4,74.6L47.9,74.8L49.6,75.2L51.3,75.2L51.4,74.8L49.4,72.7L48.2,71.1L46.7,68.2L46.0,65.9L45.4,62.3L45.7,58.5L46.7,54.8L48.3,51.8L48.6,51.6L49.1,50.8L51.5,48.0L53.8,46.1L56.1,44.9L58.9,43.9L62.6,43.0L62.9,42.8L64.8,42.6L66.0,42.2L67.1,42.1L70.5,41.2L71.6,41.2L73.4,40.7L76.6,40.1L82.6,38.5L88.0,36.3L88.4,35.9L89.5,35.5L90.8,34.6L91.6,34.3L94.1,32.3L96.9,29.3L98.3,27.1L98.9,26.0L99.1,25.0L99.7,23.5L100.2,20.6Z M88.7,20.3L90.2,20.4L90.8,20.8L90.9,21.6L91.0,23.6L91.4,24.0L94.0,24.1L94.3,24.2L94.8,24.8L94.8,26.5L94.3,27.2L91.9,27.3L91.2,27.6L91.0,30.4L90.9,30.7L90.3,31.2L88.9,31.2L88.2,30.8L87.9,29.7L87.9,28.2L87.5,27.5L87.0,27.4L84.9,27.4L84.3,27.2L84.0,26.7L84.0,25.0L84.3,24.5L85.1,24.2L87.0,24.1L87.6,23.8L87.8,20.9L88.3,20.4Z M117.2,18.2L116.8,18.0L106.3,18.0L104.2,18.2L103.8,18.4L103.5,18.9L103.3,21.0L102.9,23.8L102.3,25.7L101.9,26.5L101.6,27.5L100.8,28.9L98.9,31.6L97.1,33.5L96.0,34.5L92.2,37.3L90.3,38.5L86.8,40.1L85.1,40.7L84.0,41.2L81.7,41.8L79.7,42.6L75.9,43.3L75.0,43.7L73.3,43.9L72.1,44.2L67.9,44.8L66.7,45.2L65.4,45.3L64.2,45.6L62.4,45.9L61.9,46.2L60.4,46.5L59.0,46.9L55.9,48.4L54.1,49.5L51.6,52.2L49.8,55.2L48.8,58.2L48.3,61.0L48.4,63.0L48.8,65.3L49.9,68.4L52.1,71.6L54.0,73.5L57.2,75.3L58.7,75.7L60.6,76.1L63.1,76.2L64.0,75.9L65.5,75.7L68.3,74.4L70.0,73.1L71.7,71.1L72.7,69.3L73.3,67.2L73.3,64.0L72.7,61.6L71.9,60.1L70.3,58.3L68.8,57.2L67.5,56.6L64.9,56.3L63.0,56.6L61.1,57.8L59.6,59.5L59.1,61.2L59.2,62.8L60.1,64.6L60.5,64.9L61.4,65.3L62.9,65.4L63.5,65.8L63.5,68.0L62.6,68.5L61.5,68.5L59.3,67.9L58.6,67.4L57.5,66.1L56.5,64.6L56.1,62.5L56.1,61.0L56.4,59.6L57.2,57.8L58.5,56.1L60.0,54.8L62.4,53.6L64.7,53.3L65.9,53.3L67.7,53.6L69.4,54.1L71.3,55.1L73.2,56.9L74.4,58.5L75.7,61.0L76.4,63.8L76.4,67.0L75.9,69.1L75.5,70.4L73.9,73.2L72.6,74.7L71.5,75.7L69.4,77.2L67.1,78.4L65.2,78.9L63.5,79.2L60.8,79.2L55.3,78.5L52.5,78.3L52.2,78.1L50.9,77.9L49.7,77.9L46.5,77.4L44.5,77.3L40.2,76.7L38.2,76.6L31.0,75.7L29.5,75.7L28.8,75.5L23.5,74.9L22.6,74.5L21.5,74.4L20.8,74.0L19.9,73.7L19.1,73.0L18.6,72.9L17.5,72.0L15.1,69.3L14.0,67.3L13.5,65.4L13.2,63.4L13.2,61.8L13.6,59.2L14.1,57.6L14.7,56.4L16.0,54.4L17.8,52.5L19.9,51.1L22.3,50.1L26.4,49.0L27.6,48.5L28.0,48.5L29.2,48.1L30.0,48.0L31.9,47.2L32.9,47.1L36.5,45.9L38.4,45.5L39.2,45.2L39.9,45.1L40.2,44.9L43.2,44.1L46.0,43.2L46.7,43.1L47.5,42.7L48.7,42.6L51.0,41.7L52.4,41.4L56.1,40.1L59.1,38.4L60.6,36.9L61.7,35.5L62.5,33.7L63.3,31.2L63.7,27.6L63.7,26.2L63.9,24.9L63.7,19.6L63.4,18.8L63.2,18.5L60.6,18.3L53.0,18.5L38.4,18.5L37.7,18.3L36.7,18.3L35.3,18.6L22.2,18.5L19.6,18.7L10.3,18.7L9.7,18.9L9.5,19.1L9.4,21.0L9.6,25.2L9.6,36.8L9.9,48.4L10.2,85.7L10.1,108.9L10.3,109.8L10.6,110.1L11.2,110.2L22.2,110.2L22.7,110.0L23.2,109.0L23.9,105.0L24.7,102.1L26.4,98.4L28.0,96.2L30.7,93.2L32.7,91.5L34.5,90.2L35.2,89.9L35.8,89.4L41.0,86.8L41.8,86.7L44.1,85.7L45.3,85.5L48.0,84.6L54.4,83.1L55.0,83.1L57.7,82.6L59.2,82.5L60.2,82.1L62.0,81.9L63.3,81.5L64.1,81.5L65.1,81.2L66.8,80.9L68.8,80.1L70.8,79.2L73.4,77.2L74.7,75.9L75.5,75.0L77.1,72.5L78.3,69.4L78.7,66.3L78.7,64.5L78.5,62.5L77.7,59.8L76.0,56.7L75.0,55.4L73.0,53.6L71.6,52.7L69.3,51.6L67.1,51.0L63.7,50.9L62.1,51.4L61.3,51.5L59.2,52.4L57.5,53.7L56.2,55.0L55.9,55.6L55.2,56.4L54.5,57.8L53.9,59.4L53.7,61.1L53.7,62.8L54.3,65.0L55.1,66.9L56.2,68.3L56.7,68.8L58.2,69.9L59.0,70.1L59.5,70.4L60.7,70.7L62.3,70.8L63.7,70.6L64.6,70.3L66.1,69.5L66.9,68.7L67.7,67.5L68.1,66.3L68.1,64.5L67.3,62.7L66.2,61.9L64.8,61.7L64.1,61.8L63.5,61.4L63.4,59.7L63.6,59.2L64.2,58.8L65.9,58.7L66.8,58.9L68.3,59.6L69.4,60.6L70.4,62.1L71.1,64.2L71.1,66.5L70.7,67.9L70.2,69.1L69.5,70.2L68.0,71.7L65.7,73.1L64.0,73.7L61.9,73.9L59.9,73.7L58.3,73.2L56.2,72.2L55.0,71.3L53.5,69.8L52.2,67.7L51.5,66.1L50.9,64.2L50.8,62.8L50.8,61.4L51.0,59.0L51.7,56.8L53.2,54.2L53.8,53.3L56.6,50.6L57.0,50.5L58.0,49.7L59.5,49.0L60.5,48.7L60.7,48.5L63.6,48.0L67.1,48.0L69.4,48.3L71.9,48.4L74.0,48.8L77.1,49.0L82.6,49.6L83.9,49.6L92.8,50.6L94.3,50.6L97.4,50.9L99.6,51.0L100.9,51.3L104.7,51.6L105.8,52.0L106.6,52.1L109.7,53.7L112.0,56.0L113.9,59.0L114.9,62.7L114.8,66.1L114.5,67.5L114.0,69.1L113.0,70.9L111.9,72.4L110.6,73.8L108.9,75.1L106.7,76.1L105.9,76.3L105.1,76.7L103.8,77.0L103.3,77.2L102.2,77.4L101.2,77.9L100.5,78.0L98.0,78.8L96.6,79.1L95.2,79.7L92.5,80.3L88.3,81.7L85.7,82.4L83.7,83.1L82.6,83.3L81.7,83.7L81.0,83.8L80.5,84.0L79.5,84.2L78.4,84.7L77.6,84.8L77.1,85.1L76.0,85.3L74.9,85.7L72.9,86.3L69.9,87.6L67.7,89.1L66.5,90.3L65.4,91.9L64.7,93.5L63.8,96.5L63.4,98.7L63.3,101.2L63.3,106.9L63.4,109.2L63.6,109.6L64.3,110.0L88.9,110.0L90.3,109.8L118.5,109.8L118.8,109.2L118.5,84.9L118.5,83.0L118.4,82.1L118.4,75.4L118.2,74.3L118.2,58.8L117.9,48.1L117.9,38.1L117.7,36.7L117.8,33.1L117.6,29.7L117.6,23.1L117.4,21.5L117.4,18.9Z" fill="#000" fill-rule="evenodd"/>
</svg>