<svg xmlns="http://www.w3.org/2000/svg" viewBox="0 0 128 128" width="128" height="128">
  <path d="M32.2,108.3L32.2,108.6L32.5,108.7L32.7,109.0L35.5,109.1L35.4,108.8L34.8,108.3L34.5,108.3L33.8,108.8L33.2,108.7L32.6,108.3Z M42.3,109.1L42.2,108.6L41.7,108.2L41.4,108.2L40.8,108.6L39.2,108.3L39.2,108.6L39.8,109.1Z M51.7,108.1L51.7,108.5L52.0,108.4L52.0,108.2Z M44.9,108.5L45.2,108.3L45.2,108.1L44.9,108.2Z M45.7,108.1L46.1,108.2L46.1,108.5L46.9,109.1L49.1,109.0L49.1,108.5L48.7,108.1L48.1,108.1L47.8,108.4L46.9,108.4L46.1,108.0Z M58.9,108.0L58.5,108.0L58.5,108.4L58.7,108.4Z M52.7,108.0L53.0,108.5L53.4,108.9L53.9,109.1L55.7,109.1L55.9,108.9L55.9,108.5L55.4,108.0L55.0,108.0L54.2,108.4L53.8,108.3L53.3,108.0Z M59.4,107.9L59.9,108.6L60.6,109.0L62.4,109.1L62.8,108.8L62.8,108.5L62.3,108.0L61.7,108.0L61.4,108.2L60.8,108.3L59.8,107.9Z M72.2,107.9L72.2,108.2L72.7,108.0L73.1,108.0L73.8,108.6L74.3,108.8L75.6,108.9L76.5,108.6L76.5,108.2L76.3,108.0L75.7,107.7L74.9,108.0L74.2,108.0L73.6,107.7Z M65.2,108.0L65.3,108.3L65.5,108.4L65.7,108.0L66.2,108.0L66.9,108.6L67.8,108.9L69.1,108.9L69.6,108.5L69.5,108.1L69.1,107.8L68.5,107.8L68.0,108.1L67.4,108.1L66.4,107.7Z M35.2,107.4L35.3,107.8L36.0,107.7L36.0,107.5L35.6,107.2L35.3,107.2Z M42.0,107.0L42.0,107.3L42.3,107.7L42.9,107.5L42.5,107.1Z M48.8,107.0L48.8,107.2L49.1,107.5L49.6,107.5L49.5,107.0Z M62.4,106.9L62.4,107.1L62.7,107.4L63.3,107.4L63.3,107.0L63.0,106.8Z M55.5,106.9L55.5,107.1L55.8,107.4L56.5,107.4L56.5,107.1L56.3,106.9Z M76.0,106.7L76.1,107.1L76.9,107.1L76.9,106.8L76.7,106.6Z M69.1,106.7L69.6,107.3L70.1,107.2L70.1,106.9L69.8,106.6Z M85.5,105.3L85.1,105.4L84.9,105.8L84.9,106.3L85.3,106.5L85.8,106.0L85.7,105.4Z M92.2,105.1L91.9,105.3L91.7,105.7L91.7,106.1L92.0,106.3L92.4,106.3L92.6,105.9L92.6,105.6Z M79.9,105.0L79.9,106.3L80.0,106.7L80.4,107.2L81.5,107.6L83.3,107.6L84.0,107.3L84.1,106.8L83.5,106.3L82.9,106.3L82.7,106.6L82.5,106.7L80.9,106.6L80.4,106.0L80.3,105.2L80.1,104.9Z M86.7,104.8L86.6,105.2L86.8,105.8L86.8,106.5L87.4,107.2L88.3,107.5L89.9,107.5L90.9,107.2L90.9,106.5L90.4,106.2L89.9,106.2L89.4,106.6L89.1,106.7L87.8,106.6L87.3,106.1L86.9,104.8Z M93.5,104.6L93.6,106.4L94.2,107.1L95.0,107.4L96.7,107.4L97.3,107.3L97.7,107.0L97.8,106.6L97.2,106.1L96.7,106.1L95.8,106.6L94.7,106.5L94.1,106.0L94.0,105.2L93.7,104.6Z M31.5,108.9L31.4,108.4L30.6,108.3L29.7,107.8L29.1,107.7L28.2,107.1L26.9,105.9L26.9,105.2L27.4,104.6L27.4,104.2L27.0,103.8L26.6,103.8L26.4,104.0L26.3,104.6L25.2,106.4L25.0,106.7L24.8,107.3L24.2,108.0L23.8,108.1L23.3,108.1L22.1,107.7L21.4,107.2L20.1,106.1L20.0,105.3L20.5,104.6L20.5,104.3L20.2,104.0L19.6,104.1L19.3,105.1L18.9,105.5L18.1,107.2L17.2,108.1L15.9,108.0L14.6,107.3L13.3,106.1L13.2,105.5L13.7,104.7L13.7,104.3L13.4,104.0L12.8,104.1L12.4,105.2L11.9,106.1L11.6,106.4L10.7,108.1L11.4,107.9L11.6,107.5L12.3,106.8L13.0,106.7L15.1,108.7L16.0,109.1L16.6,109.1L17.0,108.9L19.2,106.7L19.8,106.7L22.3,108.9L23.6,109.0L26.0,106.7L26.8,106.7L28.3,108.2L29.2,108.8L29.9,108.9L30.3,108.7L31.0,108.7L31.2,108.9Z M81.1,103.8L81.1,104.1L81.7,104.3L81.6,103.8Z M90.3,103.7L90.3,104.0L90.9,104.5L91.2,104.4L91.1,104.0L90.8,103.6Z M87.8,103.7L87.9,104.1L88.5,104.1L88.4,103.7Z M83.5,103.7L83.4,104.1L83.6,104.4L84.0,104.6L84.3,104.5L84.3,104.1L83.9,103.7Z M97.0,103.5L97.0,103.8L97.4,104.2L98.0,104.3L98.0,103.9L97.4,103.4Z M94.6,103.6L94.7,104.0L95.4,104.0L95.4,103.7L95.2,103.5L94.8,103.4Z M118.8,106.9L118.5,106.6L117.1,106.1L115.6,104.7L115.4,104.4L115.4,103.9L115.7,103.6L116.0,102.9L115.5,102.5L115.2,102.5L114.9,102.8L114.7,103.5L114.0,104.6L114.0,104.7L113.2,105.9L112.4,106.6L111.4,106.5L111.2,106.3L110.5,106.2L109.7,105.5L108.7,104.6L108.7,104.1L109.2,103.4L109.2,102.9L108.9,102.6L108.3,102.6L108.1,102.8L108.0,103.6L107.4,104.4L106.6,105.9L105.9,106.7L105.6,106.8L104.6,106.7L103.5,106.2L102.0,104.8L101.9,104.1L102.3,103.7L102.4,102.9L102.1,102.7L101.5,102.7L101.3,102.9L101.2,103.7L100.8,104.1L100.8,104.4L100.0,105.4L99.7,106.2L99.4,106.5L99.0,107.5L101.1,105.5L101.5,105.5L103.2,107.1L104.3,107.8L105.4,107.8L106.5,106.8L107.1,106.1L107.9,105.4L108.7,105.5L109.8,106.8L111.4,107.8L112.3,107.6L113.3,106.7L114.7,105.3L115.2,105.4L116.7,106.9L117.5,107.4L118.6,107.4L118.8,107.3Z M78.9,105.3L78.6,104.9L78.2,104.7L77.2,104.6L75.8,103.6L74.8,102.5L74.1,102.3L73.6,102.8L73.5,103.1L72.5,104.4L71.9,104.9L70.9,104.8L69.1,103.8L67.7,102.4L67.2,102.4L66.1,103.9L65.1,105.0L64.2,105.0L63.0,104.5L62.3,104.0L60.9,102.6L60.5,102.6L60.0,102.9L59.8,103.5L59.1,104.4L58.3,105.1L57.5,105.1L56.4,104.6L55.1,103.7L54.3,102.8L53.6,102.6L53.3,102.9L53.1,103.6L51.8,105.0L51.4,105.2L50.7,105.2L50.1,105.0L49.8,104.7L49.1,104.5L48.2,103.7L47.2,102.7L46.8,102.7L46.4,103.0L46.1,103.9L44.7,105.3L44.0,105.3L43.1,105.0L41.7,104.1L40.5,102.9L39.9,102.8L39.4,103.3L39.3,103.8L38.0,105.3L37.1,105.4L36.2,105.1L35.6,104.6L35.2,104.6L34.2,103.6L33.7,102.9L33.1,102.9L32.9,102.9L32.4,104.1L30.9,105.8L31.2,106.2L31.7,106.2L32.3,106.5L33.2,106.5L33.6,106.7L33.6,107.0L33.2,107.6L33.6,107.7L33.9,107.6L33.9,107.2L34.7,106.3L34.9,105.4L36.5,106.3L38.4,106.2L38.9,106.4L40.2,106.5L40.0,107.6L40.6,107.6L40.7,107.0L41.6,106.1L41.5,105.4L41.8,105.2L42.4,105.8L43.6,106.2L45.3,106.1L46.2,106.3L46.8,106.3L47.1,106.7L46.9,107.0L47.0,107.5L47.3,107.5L48.3,106.3L48.4,105.2L48.8,105.2L49.5,105.8L50.6,106.2L52.2,106.0L52.9,106.3L53.5,106.3L53.9,106.5L53.8,107.3L53.9,107.4L54.4,107.3L54.5,106.8L55.1,106.3L55.2,105.0L55.5,105.1L56.2,105.7L56.9,106.0L57.9,106.1L58.3,105.9L58.9,105.9L59.5,106.2L60.4,106.2L60.6,106.3L60.6,106.6L60.5,106.8L60.5,107.2L60.6,107.4L60.9,107.4L61.9,106.2L62.0,104.8L62.2,104.8L62.9,105.5L63.5,105.8L65.7,105.8L66.0,106.0L67.3,106.1L67.4,106.4L67.2,106.6L67.1,106.9L67.4,107.2L67.9,107.1L68.0,106.7L68.8,105.9L68.8,105.0L69.1,104.8L69.1,105.0L70.2,105.6L71.1,105.8L72.5,105.7L72.8,105.9L73.9,105.9L74.2,106.1L74.3,106.3L74.1,106.6L74.1,107.0L74.2,107.1L74.7,107.0L74.8,106.6L75.6,105.8L75.6,105.0L75.8,104.8L77.7,105.8L78.3,106.5L78.5,106.5L78.9,106.1Z M32.1,105.9L32.2,105.6L32.6,105.5L32.7,105.9Z M52.5,105.6L52.6,105.3L53.3,105.5L53.1,105.7Z M45.8,105.5L45.9,105.3L46.6,105.6L46.0,105.7Z M38.7,105.8L38.9,105.4L39.9,105.4L39.7,105.8Z M59.4,105.4L59.6,105.2L60.0,105.3L59.9,105.6Z M66.3,105.2L66.4,105.0L66.9,105.3L66.5,105.4Z M73.0,105.1L73.3,104.8L73.7,104.8L73.9,105.0L73.8,105.3L73.3,105.4L73.0,105.3Z M32.9,104.6L33.0,104.3L33.3,104.1L33.9,104.2L34.0,104.6L33.7,104.8L33.1,104.8Z M39.8,104.5L39.9,104.1L40.1,104.0L40.6,104.1L40.9,104.5L40.4,104.7L40.1,104.7Z M46.6,104.2L47.0,103.9L47.2,103.9L47.5,104.2L47.5,104.5L47.3,104.6L46.7,104.6Z M53.4,104.0L53.6,103.8L54.2,103.8L54.5,104.1L54.4,104.5L53.7,104.6L53.5,104.5Z M60.2,104.0L60.6,103.7L61.1,103.8L61.4,104.2L61.0,104.5L60.5,104.5L60.2,104.2Z M73.9,103.8L74.1,103.5L74.6,103.5L75.0,103.8L75.0,104.0L74.8,104.2L74.1,104.2Z M67.0,103.8L67.4,103.5L67.7,103.5L68.1,103.8L68.1,104.1L67.9,104.3L67.3,104.3L67.0,104.0Z M85.8,101.0L85.8,101.2L86.0,101.2L86.4,100.9L86.8,100.9L87.5,101.6L88.4,101.9L89.7,101.8L90.1,101.5L90.1,101.2L89.8,100.9L89.4,100.7L89.0,100.7L88.5,101.1L88.0,101.1L87.3,100.9L86.8,100.6L86.2,100.6Z M82.8,99.6L83.0,100.2L83.7,100.2L83.7,99.9L83.4,99.6Z M16.7,99.7L16.7,100.5L17.2,100.4L17.2,99.6Z M89.5,99.6L89.6,99.9L89.9,100.1L90.6,100.2L90.5,99.6L90.1,99.5L89.7,99.5Z M99.1,98.4L98.6,98.5L98.5,99.1L98.9,99.5L99.3,99.0L99.3,98.6Z M100.5,98.1L100.3,98.7L100.4,99.6L101.2,100.3L101.8,100.5L103.7,100.5L104.5,100.2L104.5,99.6L103.9,99.2L103.4,99.2L103.0,99.5L102.6,99.7L101.2,99.5L100.9,99.2L100.8,98.6Z M93.4,98.3L93.4,99.1L93.6,99.7L94.3,100.4L95.1,100.6L96.6,100.6L97.4,100.4L97.6,100.2L97.5,99.5L97.2,99.3L96.7,99.3L95.9,99.8L94.9,99.8L94.0,99.2L93.8,98.2Z M19.7,97.8L19.5,98.1L20.0,98.3L20.1,97.8Z M13.0,97.2L12.7,97.5L12.3,98.5L10.8,101.0L10.8,101.2L12.3,99.9L12.9,99.8L14.6,101.5L15.1,101.9L16.5,101.9L16.6,101.7L16.5,101.3L15.0,100.8L13.3,99.4L13.2,98.5L13.5,98.0L13.6,97.6L13.4,97.3Z M31.8,97.1L32.1,96.8L31.8,96.8Z M24.9,96.8L24.9,97.1L25.4,97.1L25.2,96.8Z M97.0,96.8L97.3,97.4L97.9,97.4L97.9,97.1L97.7,96.8Z M94.6,96.8L94.8,97.2L95.3,97.2L95.2,96.8Z M103.8,96.6L103.8,96.9L104.2,97.4L104.7,97.3L104.7,97.0L104.2,96.5Z M101.4,96.5L101.3,96.8L101.5,97.0L102.0,97.0L101.9,96.6Z M38.4,96.6L38.6,97.0L39.0,97.0L39.3,96.7L39.1,96.5Z M45.2,96.5L45.3,96.8L45.5,96.9L46.1,96.8L46.1,96.5L45.9,96.4Z M44.0,101.8L43.8,100.9L43.6,100.9L43.2,101.3L42.5,101.6L42.0,101.5L41.8,101.2L41.9,100.6L42.4,99.9L42.7,99.0L42.7,97.0L42.1,96.4L40.9,96.5L40.3,96.7L40.3,100.5L40.1,101.2L39.5,101.5L39.1,101.5L38.8,101.2L38.8,100.2L39.6,99.5L39.6,99.1L39.2,98.7L39.3,98.0L39.0,97.8L37.9,97.9L37.0,98.5L37.0,98.7L37.5,99.1L37.5,99.5L36.8,100.7L36.7,101.1L36.0,101.6L35.3,101.6L35.0,101.2L35.0,100.9L35.6,99.9L35.8,99.1L35.8,97.0L35.2,96.5L34.3,96.5L33.5,96.9L33.5,100.7L32.8,101.6L32.3,101.5L32.0,101.1L32.0,100.1L32.8,99.7L32.9,99.5L32.4,98.8L32.3,97.9L32.0,97.8L31.3,97.9L30.5,98.2L30.2,98.5L30.3,98.9L30.7,99.1L30.8,99.4L30.5,100.0L30.0,100.7L30.0,101.0L29.1,101.7L28.6,101.7L28.2,101.3L28.1,101.0L28.7,100.1L29.0,99.3L29.0,97.2L28.8,96.8L28.5,96.6L27.1,96.7L26.7,97.1L26.6,99.8L26.8,100.5L26.5,101.2L26.0,101.7L25.5,101.6L25.1,101.2L25.1,100.3L25.9,99.7L25.5,98.0L24.7,97.9L24.2,98.2L23.3,98.2L22.6,97.8L22.0,97.9L22.0,98.1L22.7,98.8L23.9,99.2L23.8,99.9L23.2,100.6L21.7,100.3L20.9,100.9L19.7,100.9L19.0,100.3L18.7,99.7L18.7,99.4L18.5,99.4L18.5,100.7L19.0,101.3L19.4,101.5L22.6,101.5L23.7,100.6L24.8,100.6L25.0,100.8L25.0,101.2L24.8,101.4L24.7,102.0L25.0,102.5L25.5,102.5L25.9,102.3L26.8,101.4L27.4,101.4L28.2,102.5L29.9,102.5L30.3,101.9L30.2,101.1L30.7,100.5L31.4,100.5L31.7,100.8L31.5,101.3L31.5,102.0L31.8,102.4L32.0,102.5L32.6,102.4L33.0,101.8L33.4,101.8L33.7,101.4L34.3,101.5L34.5,102.0L35.0,102.4L36.6,102.5L37.1,101.9L37.1,101.0L37.5,100.5L38.3,100.5L38.5,100.7L38.4,102.0L38.7,102.4L39.2,102.4L39.7,101.8L40.0,101.8L40.6,101.2L41.0,101.2L41.8,102.2L42.2,102.4L43.3,102.4L43.7,102.2Z M58.9,96.4L58.9,96.6L59.6,96.6L59.5,96.3Z M52.1,96.4L52.1,96.6L52.2,96.7L52.7,96.6L52.5,96.3Z M65.5,96.2L65.8,96.6L66.6,96.4L66.6,96.2L66.4,96.1Z M72.4,96.3L73.0,96.5L73.4,96.2L73.2,96.1L72.6,96.1Z M83.2,101.2L82.6,100.8L82.2,100.8L81.7,101.2L81.1,101.2L80.5,100.9L80.2,100.6L79.7,100.6L79.5,100.8L79.1,100.7L78.6,100.9L77.4,100.8L76.8,101.1L76.3,101.1L75.8,100.5L75.8,100.2L76.7,99.1L76.8,96.4L76.3,96.0L74.6,96.1L74.3,96.4L74.4,100.1L74.1,100.8L73.9,101.1L73.2,100.9L72.9,100.0L72.9,99.7L73.8,99.0L73.4,98.0L73.4,97.5L73.1,97.2L72.4,97.3L71.2,97.8L71.1,98.0L71.6,98.5L71.7,99.1L70.1,101.2L69.4,101.2L69.0,100.7L69.0,100.3L69.7,99.5L69.9,99.2L70.0,96.7L69.9,96.4L69.4,96.1L68.0,96.1L67.4,96.5L67.5,100.2L67.0,101.0L66.4,101.0L66.1,100.7L66.1,99.7L66.8,99.1L66.8,98.5L66.6,98.2L66.5,97.4L65.9,97.3L65.2,97.7L64.3,97.8L64.2,98.2L64.8,98.7L64.8,99.2L64.3,99.6L63.9,100.8L63.5,101.2L62.5,101.2L62.3,100.4L63.1,99.2L63.2,97.2L63.1,96.5L62.7,96.2L61.4,96.2L60.7,96.5L60.7,100.4L60.2,101.2L59.7,101.1L59.3,100.7L59.3,99.8L60.0,99.3L60.0,98.6L59.6,97.5L58.8,97.5L57.5,98.0L57.6,98.4L58.0,98.9L58.0,99.3L57.4,100.0L57.4,100.6L56.4,101.3L55.9,101.3L55.5,101.0L55.5,100.5L56.1,99.7L56.3,98.4L56.3,96.9L56.2,96.6L55.7,96.2L54.9,96.2L54.1,96.4L53.9,96.7L53.9,100.2L53.4,101.3L53.0,101.4L52.6,101.1L52.4,100.5L52.5,99.8L53.2,99.3L53.2,98.9L52.9,98.5L52.9,97.9L52.7,97.6L52.1,97.6L51.1,97.8L50.7,98.1L50.8,98.5L51.2,98.9L51.2,99.4L50.3,101.1L49.8,101.4L49.0,101.4L48.7,101.1L48.7,100.6L49.3,99.7L49.5,99.3L49.5,96.9L48.9,96.3L47.7,96.4L47.1,96.8L47.1,100.8L46.5,101.5L46.3,101.5L45.7,101.1L45.7,99.8L46.4,99.3L46.4,99.0L46.1,98.7L46.1,97.9L45.7,97.6L44.2,97.9L43.9,98.5L44.4,99.0L44.4,99.4L44.2,99.8L43.8,100.2L43.8,100.5L44.7,100.2L45.0,100.2L45.3,100.5L45.2,101.9L45.6,102.3L46.2,102.2L47.2,101.2L47.5,101.2L47.9,101.2L48.6,102.1L49.0,102.3L50.4,102.2L50.8,101.8L50.9,100.6L51.5,100.2L52.1,100.3L52.0,101.8L52.2,102.1L52.8,102.1L53.2,101.8L53.3,101.5L53.9,101.4L54.2,101.2L54.6,101.2L55.3,102.0L56.3,102.3L57.0,102.2L57.5,101.8L57.5,100.5L57.8,100.2L58.8,100.3L58.9,101.8L59.2,102.1L59.6,102.1L61.1,101.1L61.4,101.1L61.8,101.4L61.8,101.6L62.3,102.0L63.9,102.1L64.3,101.7L64.4,101.4L64.3,100.5L64.9,100.0L65.4,100.0L65.7,100.4L65.6,101.3L65.7,101.8L66.1,102.0L66.8,101.8L67.0,101.5L67.8,101.0L68.4,101.1L68.6,101.4L69.2,101.9L70.8,101.8L71.2,101.5L71.3,100.3L72.0,99.9L72.2,99.9L72.5,100.3L72.5,101.5L72.7,101.8L73.3,101.8L74.1,101.2L74.7,100.9L75.2,100.9L75.9,101.8L76.4,101.9L77.5,101.8L78.1,101.5L78.2,101.3L79.1,101.6L79.2,101.5L79.4,101.1L79.9,101.0L80.7,101.7L81.0,101.9L82.7,102.0L83.1,101.8Z M118.8,100.3L118.6,99.9L116.8,99.1L115.4,97.8L115.3,97.4L115.9,96.3L115.9,96.1L115.4,95.7L115.1,95.7L114.8,96.0L114.7,96.8L114.4,97.1L113.3,99.0L112.5,99.9L111.4,99.8L109.7,98.8L108.7,97.8L108.7,97.3L109.2,96.6L109.2,96.1L108.8,95.8L108.3,95.8L108.1,96.0L108.0,96.8L107.7,97.1L106.4,99.4L105.8,100.1L105.8,100.5L106.0,100.5L107.9,98.6L108.3,98.6L110.3,100.5L111.4,101.0L112.3,100.9L114.4,98.6L115.1,98.5L116.8,100.2L117.4,100.6L118.5,100.7Z M92.5,99.0L92.5,98.4L92.3,98.0L91.1,97.7L90.1,97.1L88.1,95.3L87.7,95.3L87.3,95.7L87.2,96.2L85.8,97.8L85.3,97.9L84.3,97.8L83.4,97.3L81.1,95.4L80.9,95.4L80.5,95.8L80.3,96.3L78.7,98.3L78.8,98.7L80.8,99.1L80.9,99.3L80.9,100.2L81.1,100.3L81.7,100.2L81.8,99.5L82.4,99.0L82.3,98.0L82.5,97.8L82.9,97.9L83.7,98.5L84.6,98.8L86.1,98.7L86.6,98.9L87.7,99.0L88.0,99.3L87.7,99.5L87.8,100.0L88.2,100.1L89.1,99.1L89.3,98.6L89.3,98.0L89.8,97.9L90.4,98.4L91.1,98.6L91.9,99.5L92.2,99.5Z M80.8,96.9L81.0,96.6L81.3,96.6L81.7,96.9L81.7,97.1L81.5,97.3L80.9,97.3L80.8,97.2Z M87.7,96.6L88.3,96.5L88.6,96.8L88.5,97.2L87.7,97.2L87.6,97.0Z M26.9,95.5L28.1,96.0L28.9,96.0L29.3,95.7L29.2,95.3L28.9,95.1L27.3,95.2Z M26.1,95.0L26.1,95.2L26.5,95.2L26.5,95.0Z M67.3,94.8L67.6,94.8L68.8,95.5L69.8,95.5L70.3,95.3L70.3,94.7L70.1,94.5L69.2,94.5L68.9,94.7L67.8,94.5Z M63.5,94.9L62.9,94.5L61.8,94.8L61.0,94.8L61.0,95.0L61.3,95.3L62.3,95.6L63.4,95.4Z M31.7,94.3L31.5,94.6L31.6,95.3L32.0,95.4L32.5,95.2L32.6,94.9L31.9,94.3Z M101.1,94.1L101.2,94.3L101.7,94.4L102.5,94.8L104.0,94.9L104.3,94.7L104.3,94.3L104.0,94.0L103.4,94.0L102.9,94.2L102.2,94.2L101.6,94.0Z M106.2,94.2L107.0,93.9L107.3,94.0L107.9,94.5L108.9,94.8L110.1,94.7L110.4,94.4L110.2,93.9L109.8,93.6L109.5,93.6L108.9,94.0L108.3,94.0L107.6,93.7L106.7,93.8L106.3,93.6Z M41.8,93.4L42.2,94.1L42.8,94.0L42.8,93.8L42.3,93.4Z M10.3,92.9L10.0,92.9L9.9,93.1L9.9,93.6L10.3,93.5Z M110.0,92.6L110.0,92.8L110.3,93.0L110.9,93.0L110.9,92.8L110.7,92.6Z M51.1,92.3L50.7,92.8L50.8,93.3L51.2,93.4L51.4,93.1L51.4,92.4Z M52.6,92.1L52.5,93.2L53.2,94.2L54.1,94.4L55.8,94.4L56.5,94.3L56.7,93.6L56.1,93.0L55.6,93.1L55.1,93.6L54.1,93.7L53.5,93.4L53.1,93.0L52.9,92.7L52.8,92.0Z M85.2,91.9L84.9,92.3L85.0,92.8L85.4,92.9L85.6,92.8L85.5,91.9Z M11.6,93.6L11.8,94.3L12.3,94.6L13.0,94.8L15.1,94.8L15.8,94.6L16.8,93.8L17.6,93.8L18.1,94.3L17.8,94.8L17.9,95.4L18.2,95.7L18.8,95.7L19.1,95.4L19.1,94.9L18.6,94.8L18.3,94.3L18.3,93.7L18.5,93.3L19.0,92.9L19.0,92.6L18.7,91.9L18.7,91.2L18.5,91.1L17.9,91.1L17.2,91.4L16.5,91.4L15.6,91.0L15.1,91.1L15.1,91.4L15.5,91.8L16.6,92.3L17.0,92.7L17.0,93.0L16.5,93.8L14.8,93.6L14.2,94.1L12.8,94.1L11.9,93.4L11.7,93.4Z M12.8,91.1L12.9,91.4L13.3,91.2L13.2,91.1Z M53.8,90.6L53.9,91.1L54.3,91.1L54.4,90.8L54.2,90.6Z M87.7,90.1L87.8,90.5L88.0,90.6L88.5,90.3L88.2,90.0Z M44.3,94.4L44.3,94.7L45.1,94.3L46.5,92.8L47.1,92.8L49.3,94.8L50.4,94.9L50.7,94.7L50.8,94.4L50.4,94.1L49.0,93.5L47.6,92.4L47.3,91.9L47.3,91.3L47.8,90.8L47.8,90.2L47.4,89.9L46.9,90.0L46.7,90.8L46.2,91.4L46.0,92.0L45.6,92.4L45.5,92.8Z M31.5,90.0L31.5,90.3L31.7,90.4L32.3,90.3L32.0,89.9Z M17.7,90.1L17.7,90.3L17.9,90.4L18.7,90.3L18.5,90.0Z M19.8,90.1L19.6,90.5L19.6,92.9L19.8,93.2L19.8,93.9L19.5,94.5L19.5,94.9L20.3,94.7L21.4,95.7L21.7,95.8L23.1,95.7L23.4,95.4L23.4,95.0L23.2,94.8L22.8,94.7L22.5,94.9L21.7,95.0L21.5,94.9L21.2,94.5L21.3,94.0L22.0,92.9L22.1,90.5L21.9,90.1L21.4,89.8L20.1,89.9Z M33.4,90.2L33.5,93.9L33.0,94.8L34.1,94.6L34.8,95.5L35.8,95.7L36.8,95.6L37.4,95.0L38.2,95.2L38.6,94.8L38.9,94.8L39.8,95.6L40.4,95.8L42.1,95.7L42.1,95.0L41.5,94.5L41.2,94.5L40.7,94.9L40.2,94.9L39.0,94.4L38.1,94.4L37.6,94.7L36.8,94.5L35.9,94.8L35.1,94.7L34.9,94.5L34.9,94.1L35.5,93.2L35.7,92.8L35.7,90.1L35.4,89.8L34.6,89.7L33.9,89.8Z M37.5,92.2L37.6,92.5L38.3,92.7L39.9,92.8L40.1,93.3L39.9,94.0L40.6,94.0L40.7,93.5L41.5,92.4L41.5,91.7L41.8,91.6L42.1,92.0L42.9,92.4L43.7,92.4L43.9,92.2L43.9,91.8L42.2,91.0L40.4,89.3L39.8,89.2L38.8,90.7Z M39.0,92.0L39.4,91.7L39.7,91.8L39.5,92.2Z M39.9,90.5L40.6,90.5L40.7,90.8L40.3,91.1L39.9,91.0Z M92.8,89.1L93.1,89.4L93.6,89.4L93.7,89.1Z M112.3,93.4L112.3,93.6L112.9,93.5L114.4,91.8L114.9,91.7L115.3,91.9L116.9,93.5L117.4,93.8L118.5,93.9L118.8,93.5L118.3,93.0L117.1,92.5L115.4,91.0L115.4,90.4L115.9,89.7L115.8,89.1L115.4,88.9L115.1,88.9L114.8,89.2L114.7,89.6L113.6,91.8Z M98.4,94.3L98.4,93.9L98.1,93.6L97.8,93.6L97.4,94.0L96.7,94.0L96.2,93.1L96.9,92.4L97.2,91.2L97.2,89.4L97.0,89.1L96.5,88.9L95.7,88.9L95.0,89.1L94.8,89.3L94.8,91.3L94.5,91.7L94.2,91.6L93.9,91.3L93.9,90.5L93.5,90.2L92.9,90.2L92.3,90.5L91.6,90.5L90.7,89.9L90.3,90.0L90.1,90.3L90.5,90.8L91.8,91.3L92.2,91.7L91.9,92.4L91.3,92.8L89.9,92.7L89.2,93.1L87.9,93.1L87.3,92.6L87.1,92.2L87.1,91.4L86.7,91.3L86.7,92.8L87.3,93.6L87.9,93.9L90.3,93.9L91.1,93.5L92.0,92.8L92.7,92.8L93.0,93.3L92.8,94.4L93.1,94.6L93.8,94.6L95.0,93.8L95.6,93.8L95.8,94.2L96.4,94.7L97.9,94.7Z M94.7,91.9L94.7,93.2L94.3,93.8L93.9,93.9L93.4,93.4L93.4,92.5L93.7,92.2L94.4,91.9Z M84.9,93.9L82.5,92.5L81.4,91.4L81.4,91.0L81.9,90.3L81.9,89.6L81.6,89.4L81.0,89.4L80.9,89.5L80.7,90.5L79.9,91.5L79.3,92.7L78.7,93.5L78.0,94.0L76.9,92.8L76.9,91.4L77.6,90.9L77.5,90.6L77.0,90.2L76.8,89.6L76.5,89.4L75.4,88.8L74.8,89.1L74.7,89.4L74.2,89.7L74.1,90.2L73.8,90.5L72.6,89.3L72.2,89.4L72.2,90.4L72.1,90.7L71.7,91.0L71.3,91.0L70.4,90.5L70.0,90.1L69.9,89.6L68.8,88.9L68.1,88.9L67.4,89.7L67.3,90.1L67.3,90.6L67.1,90.8L66.7,90.6L66.5,90.1L65.8,89.4L65.3,89.3L65.1,89.4L65.3,90.8L65.0,91.1L63.7,90.7L63.2,90.1L63.1,89.6L61.8,88.9L61.4,88.9L60.6,89.8L60.2,90.6L60.0,90.6L58.9,89.4L58.6,89.4L58.4,89.5L58.5,90.6L58.1,91.1L57.5,91.0L56.7,90.5L56.1,90.6L56.2,91.1L56.6,91.4L58.3,92.5L58.5,92.8L58.6,94.6L58.9,94.7L59.0,94.6L59.1,93.5L59.0,92.3L59.3,91.7L59.7,91.7L60.3,92.3L60.5,93.1L61.1,93.8L61.5,94.0L62.1,94.0L62.4,93.8L63.6,94.0L63.8,93.7L63.1,93.0L63.1,91.8L63.4,91.4L64.0,91.4L64.4,92.1L64.8,92.1L65.4,92.6L65.2,94.0L65.4,94.6L65.8,94.5L65.9,94.3L65.8,91.9L66.1,91.6L66.6,91.6L67.0,91.9L67.4,93.3L68.0,93.8L69.9,93.8L70.5,94.0L70.7,93.7L70.0,93.1L69.9,92.8L70.0,91.5L70.3,91.2L70.7,91.2L72.3,92.8L72.2,94.2L72.5,94.5L72.8,94.3L72.7,92.0L73.1,91.6L73.6,91.7L74.0,92.1L74.2,93.1L75.3,94.0L76.7,93.7L77.0,94.0L77.0,94.3L76.0,94.4L75.8,94.5L74.6,94.5L74.2,94.4L73.8,94.4L73.8,94.6L74.0,94.8L74.7,94.9L75.8,95.4L76.6,95.4L77.4,95.1L79.2,93.8L80.5,92.3L81.2,92.4L83.4,94.3L84.5,94.4Z M24.2,87.8L24.2,88.5L25.3,88.2L25.9,88.9L26.6,89.2L26.9,89.5L26.9,89.9L26.3,90.5L26.3,91.0L26.1,91.1L25.9,91.1L25.0,90.0L24.3,90.0L24.3,91.3L23.9,91.7L23.4,91.8L23.4,92.0L23.4,92.5L24.2,92.8L24.5,93.1L24.4,95.0L24.7,95.0L24.9,94.8L24.8,93.4L25.0,93.3L24.6,92.4L25.2,92.0L25.6,92.1L26.0,92.5L26.6,93.9L27.3,94.4L27.9,94.4L28.3,94.2L28.8,94.2L29.1,94.4L29.9,94.4L30.2,93.8L29.6,93.8L28.9,93.4L29.0,92.1L29.2,91.9L29.8,91.9L30.7,92.4L30.7,92.8L30.3,93.4L30.3,93.7L31.9,93.7L31.9,93.4L32.7,92.8L32.7,92.4L32.3,91.8L32.3,91.1L31.5,91.1L30.9,91.2L29.8,91.2L29.1,90.9L29.0,90.2L28.3,89.8L28.2,89.3L28.5,88.8L28.5,88.5L28.3,88.0L27.4,87.9L26.8,88.3L26.5,88.3L25.5,87.8Z M83.9,87.9L83.5,87.5L81.6,87.8L81.7,88.1L82.4,88.5L83.4,88.5L83.8,88.3Z M80.6,87.6L80.8,87.8L81.4,87.8L81.4,87.7L81.2,87.6Z M110.7,87.0L110.1,87.0L109.6,87.3L108.6,87.0L107.9,87.1L107.7,88.9L105.8,91.1L105.8,91.4L108.2,92.0L108.3,92.3L108.0,92.6L108.0,93.0L108.8,92.9L109.6,91.6L109.7,90.9L109.9,90.9L111.2,91.5L112.0,91.3L112.1,90.9L111.9,90.7L111.3,90.5L110.3,89.9L108.5,88.1L108.8,87.7L109.7,88.0L110.4,88.0L111.1,87.8L111.1,87.4Z M107.9,89.9L108.0,89.5L108.6,89.4L108.9,89.7L108.7,90.1L108.0,90.1Z M99.2,87.1L99.2,87.6L99.5,87.7L100.3,87.3L100.9,87.8L101.4,88.0L102.0,88.5L102.0,88.8L101.3,89.4L101.2,89.8L101.0,89.9L99.9,88.9L99.5,88.9L99.4,90.3L98.4,91.0L98.4,91.4L99.3,91.7L99.5,92.1L99.5,93.9L99.7,94.1L100.0,93.8L100.0,91.3L100.2,91.1L100.7,91.1L101.2,91.6L101.6,92.8L102.0,93.2L102.6,93.5L103.2,93.2L104.1,93.2L104.6,93.4L104.5,92.8L104.0,92.3L104.1,91.1L104.6,90.6L104.7,90.2L104.2,89.7L104.1,89.2L103.3,88.5L103.5,87.6L103.2,87.0L102.4,87.0L102.1,87.3L101.5,87.3L100.6,86.8L99.9,86.8Z M28.1,87.0L28.1,87.2L28.4,87.4L29.0,87.4L28.9,86.9Z M103.0,86.0L103.6,86.4L104.1,86.3L104.1,86.0L103.6,85.8L103.2,85.8Z M43.3,85.9L43.3,85.5L42.6,85.2L37.2,85.5L37.4,86.0L37.8,86.2L39.0,86.2L40.9,86.0L42.8,86.0Z M85.6,85.0L85.0,85.0L84.7,85.6L84.7,85.9L85.0,86.1L85.3,86.1L85.5,86.0L85.7,85.5Z M50.2,85.8L50.1,85.3L49.3,85.0L44.5,85.3L44.1,85.5L44.6,86.0L45.1,86.2L46.1,86.0L49.7,86.0Z M92.2,84.8L92.0,84.8L91.7,85.2L91.7,85.6L92.0,86.0L92.4,85.7L92.4,85.0Z M93.4,84.3L93.4,86.0L94.0,86.7L94.6,87.0L96.9,87.0L97.7,86.6L97.6,86.1L97.0,85.7L96.6,85.7L96.0,86.2L94.4,86.1L93.9,85.5L93.9,84.7L93.7,84.3Z M86.5,84.5L86.6,86.0L87.2,86.8L88.5,87.2L90.6,87.0L90.8,86.8L90.9,86.3L90.3,85.9L89.9,85.9L89.6,86.1L89.0,86.4L88.3,86.4L87.5,86.1L87.0,85.3L86.9,84.3Z M11.7,84.4L11.0,84.3L9.7,85.0L9.6,85.3L9.9,85.6L10.2,85.7L10.3,86.0L9.9,86.6L10.0,86.9L11.4,86.9L11.7,86.4L12.1,86.3L12.2,86.0L11.8,85.3Z M90.2,83.3L90.2,83.6L90.6,84.1L91.1,84.1L91.1,83.8L90.7,83.2Z M10.9,83.3L10.9,83.5L11.1,83.6L11.8,83.5L11.8,83.3L11.6,83.2Z M97.0,83.1L96.9,83.4L97.4,83.9L97.8,83.9L97.8,83.4L97.7,83.2Z M94.5,83.2L94.5,83.5L94.7,83.7L95.3,83.6L95.3,83.3L95.1,83.1Z M87.7,83.3L87.7,83.5L87.9,83.8L88.5,83.8L88.5,83.4L88.3,83.2L87.8,83.1Z M22.7,83.5L22.1,83.0L19.4,83.0L18.3,82.8L17.6,82.9L17.1,83.8L16.5,84.3L16.5,85.0L16.7,85.2L17.0,85.9L17.0,87.7L15.3,88.2L14.9,88.2L14.4,87.8L14.3,87.5L14.9,86.7L15.2,85.6L15.1,83.5L14.8,83.1L13.8,83.1L12.8,83.4L12.7,84.3L12.9,84.4L12.8,85.6L12.6,85.9L12.9,86.6L12.8,87.5L12.3,88.0L11.7,88.0L11.4,87.7L11.4,87.5L11.2,87.5L11.0,88.7L11.3,89.0L11.6,89.0L13.0,88.0L13.4,87.9L14.4,89.0L15.2,89.1L16.7,88.8L17.1,88.4L17.1,88.1L17.8,87.3L18.5,87.4L18.6,87.7L18.3,88.2L18.3,88.5L18.6,88.8L19.2,88.8L19.9,88.3L20.8,88.1L21.6,88.8L22.2,88.9L22.7,88.1L22.9,86.5L23.2,86.0L23.1,85.6L22.4,84.8L22.4,84.3L22.7,84.0Z M51.9,82.4L51.4,82.9L51.3,83.3L50.6,84.0L50.6,84.5L51.2,85.5L51.2,87.1L52.2,86.8L52.6,86.9L52.7,87.3L52.5,88.1L52.7,88.3L53.5,88.3L53.9,87.9L54.4,87.7L55.2,87.7L55.9,88.5L56.6,88.3L57.1,86.9L57.1,84.9L56.6,84.3L56.6,84.0L56.9,83.6L56.8,82.9L56.1,82.6L54.0,82.6L53.4,82.5Z M113.3,81.9L113.4,82.3L114.2,82.2L114.2,81.9Z M84.4,83.9L83.8,83.2L83.3,82.4L82.5,81.9L82.0,81.8L81.2,82.6L80.8,83.6L80.6,83.6L79.4,82.4L79.0,82.4L78.9,83.8L78.7,84.0L77.5,84.3L77.1,84.0L77.4,82.8L77.2,82.6L76.6,82.3L74.3,82.4L73.9,82.2L72.3,82.2L71.9,82.5L71.7,83.0L71.0,83.7L70.9,84.2L71.7,85.0L71.7,87.2L72.2,87.2L72.5,86.7L72.8,86.6L73.1,86.9L72.9,87.8L73.2,88.1L73.9,88.1L74.6,87.6L75.4,87.4L75.7,87.5L76.3,88.2L76.9,88.2L77.1,88.1L77.4,87.4L77.5,85.9L78.4,85.3L78.8,85.3L79.2,85.7L79.0,87.4L79.2,87.7L79.5,87.7L79.5,84.9L79.8,84.6L80.7,84.9L80.9,86.0L81.5,86.7L82.0,86.9L84.3,86.8L84.3,86.6L83.6,86.0L83.7,84.5L84.2,84.3Z M98.9,84.4L99.0,84.9L99.2,85.0L101.1,85.1L101.4,85.3L101.3,85.7L101.1,86.0L101.2,86.3L102.0,86.3L102.8,84.9L102.8,84.3L102.9,84.2L103.2,84.2L104.4,84.8L106.0,84.8L106.3,85.4L106.3,87.1L106.7,87.1L106.8,84.4L107.2,84.2L107.8,84.4L108.3,85.9L109.3,86.4L111.6,86.4L112.4,85.8L113.0,85.8L113.2,86.0L113.2,87.2L113.6,87.7L114.6,87.3L115.5,86.6L115.8,86.6L116.8,87.7L118.5,87.5L118.8,87.1L118.8,86.9L118.5,86.6L117.7,86.9L117.1,86.9L116.6,86.3L117.5,84.6L117.6,82.8L117.5,82.2L116.7,81.7L115.5,81.9L115.0,82.5L115.2,83.6L115.0,84.8L115.2,85.6L115.0,86.3L114.7,86.9L114.2,86.8L113.8,86.4L113.8,85.4L114.6,84.7L114.6,84.4L114.2,84.0L114.1,83.1L113.1,83.1L112.9,83.3L111.5,83.2L110.9,82.7L110.6,81.9L109.7,81.4L109.0,81.5L108.9,81.8L108.2,82.5L108.2,82.8L108.0,83.1L107.8,83.1L106.8,82.0L106.3,81.9L106.2,83.2L105.9,83.5L105.2,83.7L104.2,83.7L103.1,83.0L101.7,81.5L101.2,81.4L100.9,81.8L100.6,82.6L99.6,83.8Z M100.4,84.2L100.8,84.3L100.7,84.5L100.3,84.4Z M111.1,84.0L111.7,84.0L112.5,84.5L112.4,85.0L111.5,85.8L111.1,85.7L110.9,85.5L110.9,84.2Z M101.1,82.9L101.6,82.6L102.1,83.0L101.8,83.4L101.2,83.4L101.1,83.2Z M11.6,81.5L12.1,82.2L12.9,82.5L14.3,82.5L14.8,82.3L14.9,81.9L14.0,81.2L13.3,81.6L12.2,81.5L11.8,81.2Z M10.9,81.2L10.5,81.3L10.5,81.9L10.9,81.8Z M14.3,80.2L14.3,80.4L14.8,80.9L15.0,80.9L15.2,80.7L15.2,80.5L14.9,80.1Z M43.3,79.1L43.2,78.6L42.3,78.3L37.1,78.7L37.1,79.0L37.9,79.4L40.3,79.2L42.8,79.2Z M92.2,78.0L91.6,78.2L91.5,78.4L91.5,79.1L91.7,79.2L92.2,79.2L92.4,78.8L92.4,78.2Z M99.0,77.9L98.8,77.9L98.4,78.5L98.4,79.0L98.7,79.2L99.1,79.1L99.3,78.5Z M93.3,77.6L93.4,79.2L94.2,80.0L95.1,80.3L96.1,80.3L97.4,80.0L97.6,79.8L97.6,79.5L97.0,79.0L96.5,79.0L96.1,79.3L95.5,79.5L94.4,79.3L93.8,78.7L93.8,77.7L93.6,77.5Z M100.3,77.4L100.1,77.8L100.1,78.8L100.4,79.4L100.8,79.8L102.0,80.2L103.0,80.2L104.3,79.9L104.4,79.2L103.8,78.8L103.2,78.9L102.8,79.3L101.5,79.3L101.2,79.2L100.8,78.7L100.5,77.4Z M96.9,76.4L96.9,76.7L97.2,77.0L97.8,77.1L97.8,76.5L97.4,76.3Z M94.4,76.6L94.7,76.9L95.1,76.9L95.3,76.7L95.0,76.3L94.6,76.3Z M101.2,76.1L101.2,76.6L101.4,76.8L102.0,76.7L102.0,76.4L101.6,76.0Z M23.3,77.5L23.1,78.0L23.7,78.7L23.8,80.4L24.0,80.8L24.9,80.4L25.2,80.5L25.3,81.0L25.1,81.3L25.1,81.9L25.7,82.6L25.4,83.6L24.6,84.5L24.5,84.8L23.7,85.3L23.6,85.8L24.4,85.9L25.0,86.1L26.1,86.2L26.3,86.4L26.1,87.0L26.3,87.4L26.9,87.3L27.7,86.0L27.9,85.0L29.1,85.8L30.2,85.9L30.8,86.3L32.2,86.3L33.9,86.0L34.9,86.0L35.5,86.2L36.4,86.1L36.4,85.5L35.5,85.2L34.3,85.4L31.7,85.5L30.1,85.1L28.2,84.1L26.9,82.9L26.8,82.6L26.3,82.1L26.3,81.7L26.6,81.4L27.1,81.2L27.8,81.2L28.5,82.0L29.1,81.9L29.5,81.1L29.7,79.2L30.0,78.9L30.2,78.9L30.7,79.4L31.9,79.5L32.4,79.3L34.4,79.2L36.2,79.2L36.5,78.9L36.2,78.6L29.9,78.6L29.5,78.4L29.2,78.0L29.1,77.5L29.4,77.2L29.5,76.6L29.0,76.2L26.5,76.2L25.6,75.9L24.4,76.0L24.0,76.4L23.9,76.8Z M25.8,84.0L26.2,83.7L26.8,83.7L26.9,83.9L26.9,84.2L26.8,84.3L26.0,84.3Z M44.9,75.8L43.8,77.4L43.8,77.7L44.3,78.4L44.3,79.7L44.6,80.4L44.9,80.5L45.0,80.2L45.4,80.0L45.7,80.1L45.9,80.3L45.7,81.4L45.9,81.6L46.4,81.6L47.3,81.0L48.4,80.9L49.0,81.7L49.7,81.7L50.2,80.7L50.4,79.3L50.4,78.5L49.8,77.5L49.8,77.3L50.1,76.9L49.9,76.0L49.4,75.8Z M86.0,75.8L86.8,75.9L87.0,75.8L86.9,75.5L86.3,75.4L86.1,75.5Z M77.8,76.9L77.8,77.4L78.4,77.9L78.5,79.6L78.7,80.1L79.0,80.1L79.4,79.7L79.8,79.7L80.0,79.9L80.0,80.2L79.7,80.9L80.1,81.3L80.7,81.3L81.3,80.7L82.4,80.6L83.0,81.2L83.7,81.3L84.0,81.0L84.3,80.3L85.0,79.5L85.6,79.3L86.0,79.4L86.0,79.6L86.0,80.7L86.1,81.1L86.3,81.2L87.1,81.1L88.2,80.3L88.9,80.4L89.1,80.9L89.6,81.2L91.1,81.2L91.6,80.9L91.5,80.2L91.0,80.2L90.5,80.5L89.8,80.5L89.4,80.1L89.5,79.5L90.1,79.0L90.4,78.0L90.4,75.9L89.8,75.4L88.8,75.4L87.8,75.8L88.0,79.2L87.8,79.9L87.5,80.5L87.1,80.5L86.6,80.0L86.6,79.1L87.6,78.1L87.1,77.7L86.9,76.8L86.7,76.6L86.2,76.6L85.0,77.0L84.5,77.4L84.2,77.4L83.9,77.1L83.9,76.6L84.1,76.4L84.2,75.9L83.6,75.4L82.7,75.3L81.3,75.5L80.9,75.3L79.0,75.3L78.7,75.6L78.6,76.0Z M84.5,78.0L85.1,78.0L85.3,78.2L85.0,78.8L84.5,78.7Z M113.0,75.2L113.2,75.6L114.0,75.6L114.2,75.4L114.2,75.2L114.0,75.1Z M103.8,76.3L103.8,76.7L104.2,77.1L104.6,77.3L105.2,77.3L105.7,77.6L105.8,79.1L106.0,79.6L106.6,79.2L107.0,79.2L107.3,79.4L107.0,80.6L107.5,80.9L108.0,80.9L108.5,80.3L109.1,80.1L109.7,80.2L110.3,80.9L111.1,80.8L111.4,79.8L112.2,79.2L112.9,79.0L113.2,79.3L113.1,80.4L113.4,80.9L114.0,80.9L115.4,79.9L115.9,79.9L116.3,80.6L116.7,80.9L118.3,80.9L118.7,80.5L118.7,80.0L118.5,79.9L117.0,80.1L116.6,79.8L116.6,79.2L117.3,78.4L117.5,77.7L117.6,75.8L117.0,75.0L116.1,75.0L115.4,75.2L115.0,75.5L115.1,79.2L114.7,79.8L114.4,80.1L113.7,79.7L113.8,78.7L114.6,77.9L114.6,77.6L114.1,77.1L114.1,76.3L113.4,76.2L111.4,77.1L111.2,76.8L111.4,75.5L110.8,75.0L109.9,74.9L109.5,75.1L108.4,75.1L108.0,74.9L106.6,74.8L106.1,75.1L105.8,75.8L105.4,76.2Z M111.8,77.5L112.1,77.5L112.3,77.7L112.3,78.0L112.1,78.2L111.7,78.0Z M107.8,73.5L107.9,73.9L108.4,73.9L109.0,74.2L109.9,74.5L110.8,74.4L111.2,74.0L110.8,73.5L110.1,73.5L109.8,73.7L108.8,73.7L108.2,73.4Z M14.3,73.3L14.3,73.6L14.6,74.0L15.0,74.1L15.2,73.9L15.2,73.7L14.9,73.3Z M112.8,73.8L113.1,74.0L113.3,73.5L113.7,73.3L114.6,74.1L114.9,74.3L116.2,74.4L116.8,74.3L117.1,74.1L117.1,73.8L116.5,73.1L116.1,73.1L115.7,73.5L115.1,73.6L114.6,73.2L113.5,72.9L112.9,73.2Z M96.1,72.5L96.7,73.0L97.2,72.9L97.2,72.5L96.9,72.3L96.2,72.2Z M116.6,72.1L116.7,72.5L117.0,72.7L117.4,72.7L117.6,72.5L117.6,72.3L117.4,72.1Z M18.1,72.1L18.2,73.5L18.6,74.1L19.1,74.3L21.7,74.4L22.0,74.3L22.3,74.1L22.2,73.5L21.7,73.0L21.1,73.2L20.7,73.6L19.4,73.6L18.7,73.0L18.4,72.2L18.3,72.0Z M19.2,70.6L19.2,70.8L19.4,71.0L20.0,70.9L19.9,70.6Z M29.9,70.8L30.0,71.6L30.5,72.2L30.5,73.4L30.7,74.0L31.5,73.6L32.0,73.7L32.1,74.1L31.9,74.4L31.9,74.9L32.3,75.2L32.7,75.1L33.2,74.6L33.8,74.3L34.6,74.3L35.4,75.2L35.8,75.1L36.2,74.4L36.5,73.0L36.5,72.3L36.7,72.1L37.1,72.2L37.9,72.6L40.9,72.3L43.0,72.4L43.2,72.2L43.2,71.9L42.9,71.6L41.6,71.5L40.8,71.7L36.7,71.8L35.9,71.0L36.3,69.8L36.1,69.5L35.4,69.2L33.3,69.3L32.9,69.1L31.1,69.1L30.9,69.2L30.7,69.8Z M21.7,70.7L21.7,70.8L22.2,71.4L23.4,71.6L23.7,72.0L23.8,74.3L24.6,73.6L25.1,73.6L25.2,73.8L25.1,75.1L25.8,75.2L26.5,74.6L27.0,74.4L27.6,74.4L28.3,75.2L28.9,75.2L29.3,74.8L29.7,71.8L29.2,71.1L29.4,69.8L29.0,69.4L28.4,69.2L27.2,69.4L26.5,69.4L25.8,69.1L24.1,69.2L23.8,69.9L23.4,70.5L21.8,70.5Z M12.2,69.0L11.6,70.3L10.1,71.8L10.1,72.3L12.2,72.9L11.9,73.9L11.2,74.3L10.7,74.3L10.4,74.7L10.5,75.2L10.9,75.3L11.1,74.8L11.5,74.8L11.9,75.7L12.0,76.3L11.5,77.3L10.8,77.9L10.2,78.9L10.3,79.2L11.2,79.4L12.1,79.4L12.6,79.6L12.7,79.8L12.4,80.2L12.4,80.5L13.0,80.8L13.2,80.7L13.3,80.2L13.7,79.7L14.0,78.5L14.4,78.5L14.9,78.9L15.4,79.1L16.6,79.2L16.9,79.5L16.9,80.5L17.1,80.7L18.3,80.5L18.4,80.9L18.3,81.2L18.3,81.8L18.6,82.1L19.2,82.0L19.8,81.4L20.9,81.4L21.5,82.0L22.1,82.1L22.6,81.4L22.8,79.9L22.8,78.8L22.4,77.8L22.6,77.3L22.6,76.8L22.4,76.4L22.0,76.2L19.6,76.2L19.2,76.0L17.5,76.0L17.2,76.3L16.9,77.0L16.4,77.5L15.7,77.9L15.3,77.9L14.5,77.5L13.4,76.5L13.3,76.0L13.6,75.8L14.4,75.7L14.8,75.3L14.8,75.0L14.0,74.3L13.0,74.8L12.3,74.7L12.1,74.3L12.5,74.1L13.0,74.0L13.2,73.4L13.8,72.6L13.9,71.7L14.3,71.7L15.1,72.3L15.7,72.4L16.4,73.0L16.5,73.3L16.7,73.3L17.0,73.0L17.0,72.1L16.6,71.6L15.7,71.4L14.3,70.6L13.7,69.8L12.7,69.0Z M11.4,78.6L12.1,78.6L12.0,78.9Z M12.2,77.6L12.2,77.3L12.6,77.0L12.9,77.0L13.3,77.5L12.9,77.7Z M11.6,71.7L11.8,71.8L11.7,72.1L11.5,72.0Z M12.1,70.5L12.3,70.3L12.9,70.3L13.2,70.7L12.8,70.9L12.4,70.9L12.1,70.7Z M86.0,68.7L86.0,69.1L86.1,69.1L86.9,69.1L86.9,68.7L86.7,68.6Z M99.5,68.9L100.6,68.9L100.6,68.6L99.6,68.5Z M53.1,68.5L52.9,68.6L52.8,69.2L52.6,69.4L51.1,69.7L50.7,70.7L50.7,71.1L51.5,71.7L51.5,72.2L52.2,73.3L52.2,73.6L51.8,74.2L51.1,74.9L51.1,75.4L51.4,75.8L51.5,76.4L50.5,77.2L50.5,77.7L51.0,78.3L51.2,80.3L51.7,80.3L52.1,80.0L52.4,80.0L52.7,80.3L52.7,80.6L52.4,80.9L52.4,81.3L52.6,81.5L53.1,81.6L53.9,81.0L54.9,80.9L55.2,80.9L55.6,81.5L56.4,81.6L56.8,81.2L57.1,80.0L57.1,78.1L56.6,77.5L56.6,77.1L56.9,76.6L56.9,76.1L56.6,75.7L56.7,74.9L55.4,73.8L55.3,72.9L55.9,72.0L55.9,71.3L55.5,70.5L55.7,70.3L56.9,70.3L56.9,69.7L56.2,69.1L55.6,69.1L54.8,68.4Z M53.8,75.4L55.4,75.3L55.6,75.6L55.5,75.8L54.0,75.8L53.9,75.8Z M52.7,70.8L52.6,71.0L51.6,71.2L51.9,70.7L52.3,70.6Z M110.6,68.5L109.2,67.8L108.6,68.5L108.3,68.6L108.0,69.3L107.6,69.4L106.8,68.5L106.2,68.3L106.1,69.6L105.1,70.6L105.2,71.0L105.8,71.2L106.1,71.5L106.1,73.3L106.3,73.7L106.7,73.6L106.8,71.5L106.6,70.8L107.1,70.6L107.5,70.7L107.9,71.0L108.0,71.9L108.6,72.6L109.5,73.0L109.7,73.0L110.1,72.7L110.6,72.7L111.0,73.0L111.4,72.9L111.3,72.4L110.8,72.0L110.7,71.5L110.8,70.7L111.0,70.4L111.4,70.2L111.4,69.7L110.9,69.1L110.9,68.9Z M112.5,70.7L112.5,70.9L112.7,71.1L114.9,71.6L114.7,72.5L115.4,72.5L116.7,70.4L117.6,70.9L118.4,70.9L118.8,70.6L118.7,70.4L117.0,69.5L115.0,67.7L114.7,67.7L114.4,68.1L114.3,68.6L113.8,69.2Z M113.9,70.5L114.5,70.5L114.4,70.8Z M114.6,69.2L114.9,69.0L115.2,69.0L115.5,69.2L115.4,69.6L114.7,69.6Z M32.5,67.6L32.5,67.9L32.7,68.1L33.6,68.3L34.3,68.7L35.5,68.7L36.0,68.4L36.0,68.2L35.5,67.7L33.6,67.9L33.0,67.5Z M23.7,67.6L23.7,68.0L24.0,68.2L24.3,68.2L25.0,67.8L25.7,68.5L27.0,68.9L28.3,68.6L28.4,68.1L28.0,67.6L27.6,67.4L27.3,67.4L26.9,67.8L26.6,67.9L26.0,67.8L25.4,67.4L24.2,67.4Z M27.9,66.4L27.8,66.7L28.1,66.9L28.8,67.0L28.8,66.6L28.5,66.4Z M10.6,63.0L10.8,63.4L11.5,63.3L11.5,62.9Z M17.3,63.0L18.0,63.2L18.5,62.9L18.2,62.7L17.5,62.7Z M23.4,67.8L22.9,67.4L22.3,67.5L21.9,67.8L21.3,67.8L20.9,67.3L21.0,66.9L21.7,65.8L21.8,63.3L21.5,62.7L21.0,62.5L19.4,62.9L19.3,65.7L19.5,66.1L19.5,66.7L19.3,67.2L18.9,67.5L18.3,67.4L18.0,66.9L18.2,66.2L18.9,65.5L18.5,65.1L18.4,64.1L18.3,64.0L17.7,64.0L16.5,64.3L16.3,64.5L16.4,65.2L16.7,65.5L16.7,65.7L16.5,66.3L16.1,66.6L15.8,67.3L15.2,67.8L15.0,67.9L14.4,67.8L14.1,67.4L14.1,67.2L15.0,65.7L14.9,62.9L14.2,62.7L13.0,62.8L12.6,63.1L12.6,67.0L11.9,67.8L11.6,67.7L11.1,67.4L11.2,66.4L12.0,65.7L11.6,64.9L11.6,64.2L10.6,64.1L9.6,64.5L9.5,65.0L9.9,65.3L10.0,65.7L9.8,66.1L9.8,66.6L10.3,66.6L11.0,67.4L10.7,67.8L10.7,68.4L11.2,68.7L11.8,68.7L12.8,67.7L13.5,67.7L13.7,68.3L14.3,68.7L15.1,68.8L15.9,68.6L16.3,68.2L16.4,66.9L16.7,66.7L17.3,66.7L17.5,66.9L17.5,68.1L17.9,68.6L18.5,68.5L19.7,67.6L20.2,67.6L20.5,67.9L20.6,68.3L21.2,68.6L22.9,68.5Z M23.6,65.1L23.7,65.4L24.7,65.7L24.9,65.8L25.9,65.8L26.1,66.2L25.8,66.7L26.1,67.0L26.7,67.0L26.8,66.7L26.8,66.3L27.4,65.7L27.4,64.8L27.6,64.6L28.0,64.7L28.7,65.3L29.4,65.5L30.7,65.4L31.0,65.7L31.0,67.9L31.4,67.9L31.5,67.6L31.4,65.1L31.8,64.7L32.2,64.8L32.7,65.2L32.7,65.6L33.1,66.5L33.8,67.1L34.5,67.2L34.8,67.0L35.5,67.0L36.3,67.2L36.3,66.9L35.5,66.1L35.6,65.0L35.9,64.5L36.7,64.4L37.2,64.9L37.3,65.2L37.3,66.7L37.5,67.2L37.7,67.2L38.3,66.6L38.7,66.6L39.0,67.2L38.6,67.5L38.6,68.0L39.0,68.2L39.5,68.2L40.3,67.5L40.6,67.4L41.5,67.5L41.8,68.0L42.1,68.3L42.8,68.2L43.1,67.4L43.3,65.8L43.2,64.7L42.7,64.1L42.7,63.8L43.1,63.2L43.1,62.9L42.6,62.4L40.3,62.4L38.9,62.2L38.0,62.2L37.7,62.3L37.6,62.9L37.1,63.5L36.8,63.7L35.8,63.6L35.5,62.8L34.4,62.1L33.7,62.2L32.6,63.7L32.4,63.7L31.4,62.5L30.9,62.6L30.8,64.0L30.6,64.1L28.8,64.2L27.2,63.0L26.4,62.1L25.7,62.2L25.4,62.9Z M25.8,63.5L26.0,63.3L26.6,63.4L26.7,63.8L26.5,64.0L26.0,64.0L25.8,63.8Z M106.3,62.0L107.4,62.0L107.1,61.7L106.6,61.7Z M98.1,63.8L98.5,63.9L98.8,64.2L98.8,66.7L99.0,66.9L99.5,66.0L100.2,65.9L100.3,66.5L100.1,66.8L100.2,67.4L100.4,67.4L101.0,67.4L101.5,66.9L102.8,66.7L103.3,67.4L103.9,67.5L104.4,67.2L104.6,66.4L105.2,65.8L105.7,65.6L106.1,65.6L106.4,66.0L106.4,66.7L106.3,67.2L106.6,67.4L107.3,67.4L108.4,66.6L109.0,66.5L109.7,67.4L111.1,67.5L112.2,67.1L113.1,66.1L113.4,65.7L114.4,64.7L115.0,64.6L115.3,64.8L116.2,65.8L117.3,66.7L118.1,66.8L118.7,66.5L118.6,66.1L116.7,65.2L115.4,64.0L115.3,63.3L115.8,62.6L115.8,62.1L115.6,61.9L115.0,61.9L114.8,62.1L114.5,63.1L112.6,65.8L110.8,66.6L110.2,66.6L109.8,66.2L109.8,65.8L110.6,64.8L110.7,62.1L110.3,61.6L109.6,61.5L108.4,61.8L108.2,62.0L108.3,65.7L107.7,66.6L107.4,66.6L106.9,65.8L107.0,65.2L107.6,64.7L107.4,63.0L107.2,62.8L106.3,62.8L104.8,63.5L104.5,63.5L104.2,63.2L104.2,62.9L104.5,62.5L104.5,62.0L104.1,61.7L101.8,61.7L101.1,61.5L99.2,61.6L99.1,62.1L98.2,63.0Z M104.9,64.1L105.4,64.1L105.6,64.3L105.6,64.6L105.3,64.9L105.0,64.9L104.8,64.7Z M84.6,63.2L84.5,63.7L85.2,64.5L85.3,66.4L85.7,66.4L86.2,66.0L86.5,66.0L86.7,66.2L86.5,67.0L86.5,67.4L86.7,67.6L87.4,67.6L87.9,67.1L88.2,67.0L89.2,67.0L90.0,67.7L90.6,67.6L90.8,67.4L91.0,66.8L91.1,65.1L91.1,64.0L91.6,63.9L92.0,64.5L92.1,66.6L92.3,66.6L92.9,65.9L93.4,65.9L93.6,66.1L93.6,66.4L93.2,67.3L93.9,68.2L93.8,68.8L93.3,69.5L92.0,70.8L91.9,71.3L92.0,71.5L92.9,71.5L93.2,71.7L94.5,71.8L94.4,72.9L95.2,72.9L95.2,72.5L96.0,71.4L96.0,70.6L96.1,70.6L97.2,71.2L98.4,71.3L98.6,71.7L98.1,72.5L98.5,72.5L98.9,72.4L99.5,72.4L99.7,72.6L99.5,73.9L99.9,74.3L100.6,74.2L101.2,73.6L101.8,73.3L102.2,73.3L103.1,74.3L104.6,74.3L105.0,74.1L105.2,73.5L104.9,73.2L104.5,73.2L103.9,73.6L103.5,73.6L103.0,73.0L103.1,72.5L103.8,71.6L104.0,69.1L103.3,68.4L102.3,68.4L101.3,68.9L101.5,70.8L101.3,71.2L101.0,71.2L100.7,70.9L100.6,70.1L100.4,69.7L99.8,69.6L99.2,70.0L98.1,70.2L97.2,70.1L96.1,69.3L94.6,67.8L94.4,67.2L94.8,66.9L96.0,66.9L96.7,67.6L97.3,67.5L97.6,67.3L97.8,66.6L97.9,64.3L97.8,64.0L97.5,63.5L97.7,62.1L97.3,61.7L94.7,61.8L94.3,61.6L92.7,61.5L92.3,61.8L92.2,62.3L91.4,63.1L90.9,63.3L90.9,62.2L90.3,61.8L87.9,61.8L87.2,61.6L85.9,61.6L85.5,61.9L85.4,62.3Z M101.2,71.5L101.5,71.8L101.6,72.5L101.3,72.7L101.1,73.5L100.4,73.5L100.2,73.3L100.1,72.7L100.3,71.8Z M94.2,69.6L94.5,69.3L94.9,69.3L95.2,69.6L95.2,69.8L95.0,70.0L94.4,70.0Z M18.8,61.4L19.8,61.6L20.2,62.0L20.6,62.1L21.7,62.1L22.2,61.8L22.2,61.5L21.8,61.1L21.5,61.0L20.8,61.3L19.1,61.0Z M53.9,62.4L53.7,62.4L53.2,63.0L52.8,64.1L51.4,66.4L50.5,67.4L49.9,67.7L48.8,67.4L48.4,66.8L48.4,66.1L49.1,65.2L49.1,64.8L48.8,63.9L48.9,63.7L49.9,63.6L50.0,63.0L49.7,62.6L49.2,62.5L48.8,62.2L48.8,61.8L49.3,61.7L49.7,61.4L49.7,61.1L49.2,60.6L48.6,60.6L48.1,60.8L47.1,60.6L46.2,60.7L46.4,61.4L45.8,61.9L45.9,62.4L45.4,62.8L44.6,62.8L44.2,63.0L43.8,64.0L44.0,64.5L44.4,64.6L44.8,64.1L45.3,64.1L45.0,64.8L44.6,65.0L44.6,65.6L45.2,66.4L45.3,67.1L45.2,67.4L44.1,68.2L44.1,68.5L44.5,69.1L44.5,69.5L43.7,70.5L43.7,70.8L44.3,71.7L44.4,73.8L44.7,73.8L45.1,73.4L45.7,73.5L45.7,73.9L45.4,74.5L45.9,74.9L46.5,74.9L47.0,74.3L47.7,74.1L48.4,74.2L48.7,74.7L49.0,75.0L49.4,75.0L49.9,74.6L50.3,72.0L50.2,71.4L49.7,70.8L50.0,69.9L49.8,68.8L50.5,67.7L51.0,67.4L52.8,65.6L53.2,65.4L53.8,65.5L55.2,67.0L56.0,67.5L56.8,67.6L57.4,67.4L57.4,67.0L57.2,66.7L55.4,65.9L53.9,64.5L53.9,64.0L54.4,63.0Z M47.1,68.6L47.7,68.5L48.5,68.9L47.2,69.1L47.1,69.0Z M87.1,60.5L87.3,60.6L88.1,60.7L89.4,61.3L90.2,61.3L90.6,61.1L90.6,60.6L90.1,60.2L88.5,60.4L87.4,60.1Z M92.2,60.5L92.5,60.8L92.8,60.7L93.0,60.2L93.2,60.2L93.8,60.7L94.7,61.2L95.9,61.2L96.6,60.9L96.7,60.6L96.1,59.9L95.7,59.8L95.3,60.2L94.8,60.3L93.7,60.0L93.2,59.7L92.4,59.8Z M96.1,58.8L96.1,59.1L96.7,59.5L97.0,59.5L97.2,59.3L97.2,59.1L96.8,58.8Z M109.8,58.7L109.8,58.9L110.1,59.1L110.7,59.1L110.7,58.8L110.5,58.6Z M23.4,58.6L23.2,58.8L23.1,59.4L23.2,59.6L23.6,59.7L23.9,58.8L23.7,58.6Z M24.9,58.6L25.0,59.8L25.9,60.6L28.3,60.7L28.9,60.6L29.0,59.9L28.8,59.6L28.5,59.4L28.2,59.4L27.3,60.0L26.3,60.0L25.7,59.6L25.1,58.5Z M113.6,57.1L113.7,58.6L114.3,59.3L114.9,59.6L117.3,59.6L117.9,59.2L117.9,58.8L117.4,58.4L116.7,58.4L116.4,58.8L115.1,58.9L114.7,58.7L114.1,58.0L113.9,57.1Z M28.5,57.0L28.5,57.2L28.6,57.4L29.3,57.5L29.3,57.2L28.9,56.9Z M26.0,56.9L26.1,57.3L26.6,57.4L26.8,57.2L26.6,56.9Z M10.7,56.2L10.8,56.5L11.5,56.3L11.3,56.1Z M14.8,56.1L14.4,55.9L13.6,55.9L12.8,56.2L12.8,56.6L13.3,56.9L13.3,57.5L13.5,57.7L13.4,58.5L12.6,58.5L12.6,60.2L12.3,60.6L11.9,60.9L11.6,60.9L11.1,60.4L11.1,59.8L12.0,58.9L11.6,58.1L11.6,57.5L11.3,57.2L10.8,57.2L10.0,57.6L9.5,57.7L9.3,58.0L9.8,58.4L9.9,59.0L9.6,59.3L9.5,59.9L10.4,59.9L10.8,60.3L10.6,61.0L10.7,61.7L11.5,61.9L12.2,61.4L12.8,60.8L13.3,60.8L13.8,61.7L14.3,61.9L15.5,61.9L16.2,61.5L16.2,61.0L16.0,60.8L14.5,61.0L14.0,60.6L14.1,60.1L14.7,59.5L14.9,59.0Z M117.3,55.8L117.3,56.1L117.6,56.4L118.0,56.5L118.1,56.3L118.0,55.9Z M114.9,55.9L115.1,56.3L115.4,56.2L115.4,55.9L115.2,55.7Z M38.0,56.0L38.9,56.0L38.9,55.8L38.2,55.7Z M43.7,61.2L43.7,60.6L43.5,60.5L42.9,60.5L42.0,60.7L41.5,60.4L41.5,59.9L42.1,59.0L42.3,58.5L42.3,56.1L41.9,55.5L41.2,55.5L40.1,55.8L39.9,56.3L40.0,59.7L39.7,60.4L39.4,60.6L38.9,60.6L38.6,60.4L38.6,59.8L38.5,59.6L38.5,59.3L39.1,58.9L39.3,58.3L38.9,57.8L38.9,57.1L38.2,56.9L36.9,57.3L36.7,57.6L36.7,57.8L37.3,58.3L37.3,58.6L36.5,59.7L35.8,59.9L34.8,59.4L33.3,58.2L33.3,57.5L33.7,56.9L33.7,56.4L33.4,56.0L32.8,56.1L32.6,56.9L31.1,59.3L31.0,59.8L30.2,60.7L30.2,60.9L30.5,60.8L32.2,59.0L32.9,58.9L33.2,58.9L35.0,60.7L35.8,61.1L36.5,61.1L36.9,60.9L36.9,60.0L37.3,59.6L37.9,59.6L38.1,59.8L38.1,61.5L39.1,61.4L40.2,60.6L40.6,60.6L41.3,61.4L41.7,61.5L43.3,61.5Z M98.6,60.0L99.2,59.8L100.8,58.1L101.2,58.0L101.4,58.1L102.9,59.5L103.8,60.2L104.6,60.3L105.5,60.0L106.0,60.5L106.3,60.5L106.6,60.0L106.9,59.9L107.7,60.6L108.3,60.9L109.7,60.9L110.3,60.6L110.3,60.2L109.7,59.6L109.3,59.6L108.8,60.0L108.2,60.1L107.5,59.6L105.4,59.7L104.2,59.0L103.5,58.9L102.6,58.2L101.7,57.2L101.6,56.8L102.1,56.0L102.1,55.5L101.8,55.2L101.2,55.3L100.6,56.8Z M43.7,57.5L43.7,58.3L44.3,58.4L44.7,58.8L44.6,60.7L44.7,60.9L45.1,61.0L45.3,60.8L45.1,58.1L45.4,57.8L45.9,57.9L46.4,58.3L46.5,59.0L47.1,59.9L47.8,60.2L50.0,60.0L50.0,59.8L49.2,59.0L49.3,58.1L49.5,57.6L50.4,57.5L50.8,57.8L50.9,59.4L51.3,60.1L51.7,59.7L52.4,59.7L52.5,60.1L52.3,60.9L52.7,61.2L53.0,61.2L54.1,60.6L54.9,60.6L55.6,61.2L56.1,61.2L56.5,60.9L56.7,60.6L56.9,59.2L56.9,57.7L56.4,57.2L56.7,56.3L56.7,55.8L56.0,55.4L53.8,55.5L53.0,55.2L51.9,55.2L51.3,55.5L51.0,56.1L50.3,56.7L49.8,56.7L49.4,56.4L49.3,56.0L48.7,55.4L47.9,55.1L47.4,55.1L47.1,55.6L46.6,56.1L46.5,56.8L46.1,56.8L45.3,55.7L44.7,55.5L44.5,55.6L44.5,57.0Z M91.1,56.6L90.4,55.9L90.1,55.3L89.2,54.7L88.5,54.7L87.6,55.6L87.4,56.2L87.0,56.1L86.0,55.1L85.6,55.2L85.6,56.4L85.1,56.9L84.5,57.1L84.1,57.1L83.7,56.8L83.7,56.4L84.0,56.0L84.0,55.5L83.4,55.1L82.6,55.0L82.1,55.2L81.0,55.2L80.7,55.0L79.4,54.9L79.0,55.0L77.8,56.4L77.7,57.0L78.3,57.7L78.4,59.7L79.5,59.3L79.8,59.6L79.6,60.6L79.9,60.9L80.6,60.9L81.2,60.4L82.2,60.2L82.6,60.5L82.8,60.9L83.5,61.0L84.0,60.6L84.2,59.7L84.2,58.6L84.5,58.2L85.0,58.0L85.4,58.0L85.7,58.3L85.6,60.1L85.8,60.5L86.2,60.4L86.1,57.7L86.4,57.4L87.1,57.5L87.4,57.8L87.8,59.3L88.6,59.7L89.3,59.7L89.8,59.5L90.8,59.6L90.9,59.3L90.3,58.8L90.3,57.3L90.4,57.2L90.9,57.0Z M28.9,54.5L28.5,54.2L27.9,54.2L27.6,54.4L25.8,54.3L26.0,54.6L27.9,55.3L28.8,55.1Z M21.9,54.4L21.4,54.2L21.0,54.2L20.7,54.4L18.7,54.4L18.8,54.7L19.5,54.9L19.9,55.5L19.8,55.8L19.3,56.3L19.1,57.0L18.9,57.2L18.6,57.2L17.7,56.0L17.3,55.9L17.1,56.1L17.1,57.4L16.2,58.2L16.3,58.7L17.1,58.9L17.3,59.4L17.1,60.7L17.4,61.2L17.7,61.1L17.7,58.6L18.0,58.2L18.4,58.3L18.9,58.8L19.2,59.7L20.0,60.4L20.8,60.6L21.2,60.3L21.6,60.3L21.8,60.5L22.5,60.3L21.9,59.7L21.8,59.4L21.8,58.4L22.3,57.7L22.2,57.3L21.7,57.1L21.7,56.0L21.2,55.7L21.4,55.4L21.9,55.2Z M20.2,57.2L20.4,57.0L21.1,57.1L21.1,57.3L20.8,57.5L20.4,57.5Z M10.2,54.2L10.2,54.7L11.1,54.4L11.7,55.0L12.8,55.4L13.9,55.4L14.5,55.1L14.5,54.7L14.1,54.2L13.3,54.1L12.9,54.5L12.3,54.5L11.4,53.9Z M58.7,53.3L58.0,53.7L58.0,54.1L58.5,54.1L58.8,53.9L59.1,53.9L59.5,54.5L59.5,55.6L59.1,55.9L58.0,55.9L57.6,56.5L57.6,57.4L58.1,57.5L58.8,57.2L58.7,57.7L58.4,57.9L58.3,58.7L58.9,59.9L58.7,60.4L57.8,61.1L57.9,61.7L58.9,61.9L59.5,62.4L59.3,62.6L58.1,62.7L57.6,63.4L57.6,64.1L58.4,64.6L58.4,65.5L58.7,65.8L58.9,66.5L58.8,67.2L57.8,68.0L57.8,68.2L58.2,68.6L59.3,68.8L59.6,69.2L59.4,69.4L58.3,69.5L57.8,69.8L57.7,70.9L58.0,71.3L58.3,71.3L58.3,70.9L58.9,70.5L59.4,70.6L59.4,70.9L58.9,71.1L58.5,71.6L58.5,72.2L58.9,73.2L58.9,73.8L58.5,74.3L57.9,74.7L57.9,75.1L58.2,75.4L59.1,75.5L59.5,75.7L59.7,75.9L59.4,76.2L58.3,76.3L57.8,76.7L57.7,77.9L58.6,78.2L58.4,78.4L58.4,78.8L58.9,79.9L58.9,80.5L58.7,80.9L58.0,81.5L58.1,83.1L57.3,84.0L57.3,84.4L57.9,85.2L58.1,87.0L58.6,87.1L58.9,86.8L59.5,86.9L59.6,87.2L59.3,87.7L59.3,88.1L59.6,88.4L60.1,88.4L61.1,87.7L62.0,87.7L62.7,88.4L63.2,88.4L63.6,88.1L64.0,86.0L63.9,84.8L63.5,84.3L63.7,82.9L63.3,82.5L63.7,81.7L63.4,81.3L62.8,81.0L62.3,80.5L62.2,79.6L62.8,78.8L62.9,78.1L62.5,77.6L62.5,77.3L62.7,77.1L63.7,77.1L63.9,76.9L63.9,76.6L63.4,76.0L62.6,75.9L62.4,75.8L62.4,75.5L62.6,75.3L63.6,75.1L63.6,74.8L62.5,74.1L62.1,73.5L62.1,72.9L62.3,72.4L62.8,71.9L62.8,71.4L62.4,70.8L62.4,70.3L63.6,70.3L63.8,70.2L63.8,69.9L63.6,69.4L63.1,69.1L62.8,69.1L62.5,68.9L62.5,68.6L63.4,68.4L63.5,68.0L62.3,67.1L62.1,66.7L62.1,66.0L62.8,65.0L62.3,63.7L62.5,63.5L63.7,63.4L63.7,62.9L63.3,62.5L62.6,62.3L62.3,62.1L62.3,61.8L63.1,61.7L63.5,61.5L63.5,61.3L62.1,60.1L62.0,59.2L62.7,58.3L62.3,56.9L62.4,56.7L63.7,56.6L63.7,56.2L63.4,55.8L62.2,55.4L62.2,55.1L62.5,54.6L62.5,54.2L62.1,53.7L61.4,53.5L60.9,53.9L60.3,53.9L59.6,53.4Z M60.5,82.0L62.5,82.0L62.7,82.1L62.7,82.5L60.6,82.6L60.5,82.5Z M58.6,77.5L58.9,77.2L59.3,77.2L59.5,77.4L59.5,77.5L59.0,77.8L58.9,77.8Z M58.3,64.5L58.6,63.7L59.2,63.7L59.4,64.1L58.8,64.2L58.7,64.5Z M64.8,53.5L64.7,53.9L65.2,54.2L65.4,53.9L65.9,53.7L66.3,54.1L66.2,55.7L64.8,55.8L64.5,56.1L64.5,56.5L64.2,56.9L64.4,57.4L64.8,57.5L65.5,56.8L66.1,56.9L66.0,57.2L65.7,57.2L65.2,57.8L65.2,58.8L65.6,59.2L65.7,60.0L65.6,60.3L64.6,61.2L64.6,61.5L65.5,61.8L65.9,61.8L66.4,62.2L66.3,62.5L66.1,62.6L64.9,62.6L64.6,62.9L64.3,63.6L64.6,64.3L64.9,64.4L65.4,63.8L65.6,63.7L65.7,64.0L65.3,64.5L65.2,64.9L65.7,66.7L65.6,67.2L64.7,67.8L64.7,68.2L64.9,68.4L66.2,68.8L66.4,69.1L65.8,69.4L64.9,69.4L64.4,70.2L64.4,70.7L64.8,71.1L65.1,71.1L65.3,71.3L65.3,72.3L65.7,73.0L65.7,73.6L64.8,74.9L64.9,75.3L66.0,75.5L66.4,75.8L66.4,75.9L66.2,76.1L64.9,76.2L64.4,77.1L64.4,77.5L64.8,77.9L65.0,77.9L65.7,77.3L66.0,77.5L65.3,78.1L65.4,79.1L65.8,79.9L65.8,80.3L65.7,80.8L64.8,81.4L65.0,82.9L64.2,83.8L64.1,84.3L64.8,85.0L65.0,87.1L65.7,86.7L66.1,86.7L66.4,87.0L66.1,87.7L66.4,88.2L66.9,88.3L67.6,87.7L68.7,87.6L69.5,88.3L70.1,88.3L70.6,87.7L70.8,85.0L70.5,84.3L70.5,83.9L70.7,83.2L70.5,82.6L70.2,82.4L70.2,82.0L70.5,81.7L70.5,81.5L69.7,80.9L69.0,80.1L69.0,79.4L69.4,79.0L69.7,78.4L69.2,77.5L69.3,77.0L70.8,77.2L71.4,77.7L71.6,78.1L71.7,80.0L72.0,80.3L72.4,79.9L72.9,79.8L73.1,80.0L73.1,80.4L72.8,80.8L72.8,81.0L73.2,81.4L73.7,81.4L74.3,80.8L74.6,80.7L75.7,80.7L76.2,81.3L76.5,81.4L77.1,81.2L77.5,80.0L77.5,78.3L77.1,77.5L77.1,76.8L77.4,76.5L77.4,76.0L76.9,75.5L77.2,74.6L76.4,74.1L75.8,73.4L75.8,72.7L76.5,71.6L76.4,71.0L76.0,70.3L76.2,70.1L76.8,70.1L77.6,70.4L78.3,71.0L78.5,71.8L78.5,73.5L78.7,73.5L79.3,72.9L79.6,72.9L79.9,73.2L79.7,74.2L80.1,74.5L80.7,74.5L81.4,73.9L82.3,73.8L82.7,74.1L82.8,74.4L83.6,74.6L84.1,74.1L84.2,73.6L85.1,72.6L86.0,72.7L86.0,74.1L86.3,74.4L88.2,73.6L88.8,73.7L89.4,74.4L89.7,74.5L90.8,74.5L91.9,74.1L92.5,74.2L92.8,74.1L92.8,74.0L93.0,73.7L93.2,73.7L93.8,74.2L94.6,74.6L96.0,74.7L96.6,74.5L96.7,74.1L96.3,73.6L95.9,73.3L95.5,73.4L95.1,73.9L94.4,73.8L93.9,73.4L92.7,73.3L92.4,73.4L92.2,73.7L91.6,73.4L91.0,73.4L90.3,73.8L89.8,73.7L89.4,73.3L89.4,73.0L90.2,71.9L90.3,69.0L89.5,68.5L88.3,68.7L87.8,69.0L87.9,70.9L87.7,71.7L87.9,72.0L87.9,72.7L87.6,73.4L87.2,73.7L86.8,73.6L86.6,72.4L87.5,71.5L87.5,71.3L87.0,70.8L87.0,70.1L86.6,69.8L85.9,69.9L84.4,70.6L84.2,70.6L84.0,70.1L84.1,69.1L84.0,68.9L83.2,68.5L79.0,68.5L78.6,69.2L78.0,69.7L77.6,69.7L77.0,69.1L76.1,68.9L76.1,68.4L77.1,68.2L77.0,67.5L76.0,67.1L75.7,66.5L75.8,65.8L76.4,64.8L76.1,63.4L77.3,63.5L78.2,64.2L78.4,66.1L78.5,66.3L79.0,66.4L79.6,66.1L79.9,66.4L79.6,67.2L79.9,67.7L80.4,67.8L81.2,67.1L82.2,67.0L82.9,67.7L83.5,67.8L84.0,67.4L84.3,65.9L84.3,64.4L83.9,63.6L83.9,63.1L84.1,62.7L84.0,62.2L83.3,61.8L82.1,61.8L81.4,62.0L80.7,61.7L79.0,61.7L78.6,62.1L78.3,62.7L77.9,63.1L77.7,63.1L77.1,62.3L75.9,62.0L75.6,61.5L75.2,61.3L74.2,61.3L73.9,60.9L73.9,60.7L74.1,60.5L74.8,60.3L75.5,60.3L75.8,60.7L76.2,61.1L76.6,61.1L77.1,60.7L77.3,60.1L77.3,59.2L77.5,58.8L77.5,57.9L77.0,57.0L77.2,55.5L76.9,55.3L74.4,55.3L73.9,55.1L72.1,55.1L71.7,55.4L71.7,55.6L71.1,56.4L70.8,56.4L70.5,56.1L70.5,55.9L69.9,55.5L69.1,55.4L69.0,55.0L69.3,54.4L69.3,53.9L68.8,53.4L68.1,53.4L67.6,53.8L66.9,53.7L66.1,53.2Z M67.2,82.1L67.4,81.9L68.0,81.8L69.2,81.9L69.6,82.3L68.9,82.5L67.6,82.5Z M74.0,75.4L74.0,75.0L74.1,74.9L75.6,74.9L76.2,75.2L76.1,75.5L74.4,75.6Z M84.7,71.2L85.1,71.4L85.1,71.7L84.9,71.9L84.5,71.8L84.4,71.5Z M65.3,71.0L65.4,70.5L65.9,70.4L66.2,70.8L65.9,70.9Z M69.2,56.6L70.4,56.7L71.3,57.5L71.6,60.1L72.4,59.5L72.8,59.4L73.0,59.6L73.0,60.1L72.8,60.3L72.8,61.1L73.1,62.3L72.9,62.5L71.8,62.5L71.4,62.7L71.3,63.2L71.4,64.1L71.8,64.2L72.3,63.6L72.9,63.8L72.3,64.3L72.1,64.7L72.1,65.4L72.5,66.1L72.5,66.7L72.4,67.2L71.6,67.6L71.5,68.1L72.0,68.5L72.9,68.6L73.3,69.1L72.8,69.3L71.9,69.3L71.4,69.7L71.3,70.0L71.4,70.9L71.6,71.0L72.0,70.9L72.4,70.3L73.0,70.4L73.0,70.6L72.5,70.9L72.1,71.6L72.1,72.1L72.6,73.0L72.6,73.5L72.4,74.0L71.6,74.6L71.8,76.1L71.1,76.7L70.9,76.7L70.1,75.8L69.3,75.7L69.3,75.2L70.3,75.0L70.4,74.7L69.4,74.1L68.9,73.2L68.9,72.9L69.6,71.7L69.6,71.3L69.2,70.6L69.3,70.2L70.3,70.2L70.6,69.9L70.6,69.6L70.2,69.1L69.5,69.0L69.1,68.7L69.4,68.4L70.3,68.3L70.3,67.9L69.6,67.4L68.9,66.6L68.9,65.8L69.6,64.9L69.6,64.5L69.1,63.6L69.3,63.4L70.4,63.3L70.5,62.7L69.9,62.3L69.3,62.2L69.1,61.9L69.2,61.7L70.3,61.5L70.3,61.1L69.3,60.6L69.1,60.3L68.8,59.6L68.9,58.9L69.5,58.2L69.5,57.7L69.1,57.1Z M14.1,53.0L14.2,53.5L15.0,53.5L15.0,53.1Z M62.0,52.4L61.9,52.7L62.2,53.0L62.9,53.0L63.0,52.7L62.7,52.4Z M68.8,52.3L68.9,52.8L69.1,53.0L69.8,52.9L69.8,52.5L69.6,52.3Z M96.1,52.0L96.2,52.6L97.1,52.7L97.2,52.3L96.8,52.0Z M109.8,51.9L109.8,52.2L110.0,52.3L110.7,52.4L110.8,52.1L110.6,51.9Z M37.5,51.7L36.8,51.9L36.8,52.7L37.1,52.8L37.4,52.5Z M50.6,51.3L50.4,51.9L50.5,52.5L50.8,52.6L51.0,52.4L51.1,51.6L50.8,51.3Z M38.6,51.0L38.6,52.8L39.0,53.4L40.1,53.8L41.8,53.9L42.3,53.8L42.8,53.3L42.8,53.0L42.1,52.4L41.7,52.4L41.0,53.0L39.6,52.9L39.1,52.4L39.1,52.2L38.8,51.7L38.8,51.2Z M52.2,50.9L52.2,52.5L52.4,52.8L52.4,53.0L52.8,53.3L53.5,53.6L55.1,53.7L56.0,53.5L56.4,53.2L56.2,52.4L55.8,52.2L55.4,52.2L54.8,52.7L53.9,52.8L53.2,52.6L52.6,52.1L52.3,50.9Z M72.6,50.7L72.5,51.6L72.9,52.6L73.6,53.2L74.2,53.4L76.1,53.4L76.9,53.1L76.9,52.4L76.5,52.1L75.8,52.1L75.4,52.5L74.9,52.6L74.0,52.5L73.3,52.0L72.9,50.6Z M113.7,50.6L113.8,52.0L114.6,52.7L115.4,52.9L117.3,52.8L117.8,52.5L117.8,52.0L117.4,51.6L116.8,51.6L116.3,52.1L114.9,52.1L114.1,51.3L113.9,50.5Z M42.0,49.9L42.1,50.4L42.4,50.6L43.1,50.6L43.1,50.3L42.5,49.8Z M39.6,49.8L39.7,50.4L40.3,50.5L40.4,50.5L40.3,49.9Z M55.7,49.7L55.7,50.1L56.3,50.5L56.7,50.4L56.5,49.8L56.2,49.6Z M53.3,49.8L53.5,50.2L54.0,50.2L54.0,49.8L53.9,49.6L53.5,49.6Z M76.2,49.6L76.2,49.9L76.4,50.1L77.2,50.3L77.2,49.8L77.0,49.6Z M73.8,49.5L73.8,49.8L74.0,50.0L74.5,50.1L74.5,49.5Z M43.7,53.8L43.7,54.0L43.9,54.0L46.1,52.0L46.4,51.9L46.8,52.0L47.9,53.1L48.9,53.9L49.9,54.1L50.4,53.9L50.5,53.6L50.5,53.4L48.7,52.6L47.1,51.2L47.0,50.5L47.4,49.9L47.4,49.3L47.1,49.0L46.5,49.1L46.1,50.3L44.5,52.9Z M31.0,49.2L31.0,49.4L31.2,49.5L31.9,49.5L31.9,49.1L31.2,49.0Z M117.2,48.9L117.2,49.4L117.4,49.6L117.9,49.8L118.1,49.7L118.0,49.1Z M114.8,49.0L114.8,49.3L115.0,49.5L115.4,49.4L115.4,49.1L115.2,48.9Z M77.9,53.6L78.2,53.6L80.2,51.6L80.8,51.5L81.2,51.8L83.2,53.7L83.6,53.9L84.5,53.9L85.0,53.8L86.7,51.8L87.2,51.4L87.7,51.4L90.0,53.6L91.8,53.6L92.5,53.9L92.8,53.5L93.2,53.4L93.8,54.0L93.9,54.8L93.3,55.9L91.8,57.5L91.8,57.8L94.2,58.2L94.4,58.4L94.2,59.3L95.0,59.3L95.1,58.9L95.9,57.8L95.9,57.1L96.1,57.1L97.3,57.7L98.1,57.6L98.4,57.2L98.2,57.0L97.4,56.8L96.6,56.3L95.2,55.0L95.2,54.5L96.5,54.1L96.6,53.8L96.0,53.1L95.4,53.2L95.1,53.5L94.4,53.5L93.4,52.9L91.6,53.0L90.6,52.6L89.0,51.6L88.0,50.6L88.0,50.0L88.5,49.3L88.4,48.8L88.0,48.5L87.7,48.5L87.4,48.8L87.2,49.7L86.0,51.8L85.1,52.7L84.3,52.8L83.2,52.4L81.4,51.0L81.1,50.3L81.7,49.1L81.4,48.7L80.9,48.6L80.5,48.9L80.5,49.4L79.3,51.5Z M94.0,56.0L94.4,55.7L94.8,55.7L95.0,55.9L94.9,56.3L94.4,56.4L94.0,56.2Z M99.4,48.2L99.5,48.6L100.3,48.6L100.3,48.2Z M105.5,50.5L105.7,50.9L106.7,51.2L107.9,51.2L108.0,51.4L108.0,51.7L107.9,51.9L107.9,52.2L108.0,52.3L108.6,52.3L108.7,51.8L109.4,51.0L109.4,50.3L109.9,50.2L110.7,50.7L111.2,50.8L111.8,51.4L112.0,51.9L112.3,51.9L112.7,51.5L112.8,51.0L112.5,50.3L111.4,50.0L110.3,49.4L108.4,47.5L107.8,47.5L107.6,47.7L107.3,48.6Z M107.1,50.3L107.4,50.2L107.5,50.5Z M107.7,48.9L108.0,48.7L108.6,48.8L108.7,49.2L108.5,49.4L107.8,49.3Z M39.4,47.4L40.1,47.5L40.6,48.0L41.7,48.2L42.5,48.0L42.6,47.5L42.1,47.1L41.6,47.1L41.5,47.3L41.1,47.4L39.9,47.1Z M9.9,51.6L9.9,52.0L12.2,52.4L12.2,53.6L12.9,53.5L13.1,52.9L13.6,52.2L13.5,51.4L13.7,51.2L14.2,51.3L14.8,51.8L15.4,52.1L16.6,52.0L17.1,52.4L17.2,53.0L17.0,53.9L17.3,54.3L17.6,54.3L17.7,54.1L17.6,51.8L17.9,51.5L18.3,51.5L18.9,52.0L19.1,52.9L19.9,53.7L20.8,53.8L21.1,53.6L21.6,53.6L22.1,53.8L22.3,53.5L21.7,52.7L21.7,52.3L22.2,51.3L22.6,51.3L23.4,51.9L23.9,52.0L24.1,52.2L24.1,53.2L23.9,53.5L23.9,54.0L24.1,54.3L24.5,54.2L24.6,53.9L24.4,51.5L24.6,51.3L25.2,51.4L25.8,52.0L26.1,53.0L26.8,53.6L27.6,53.7L28.2,53.5L28.6,53.7L29.5,53.7L30.2,52.9L31.1,53.0L31.0,54.2L31.3,54.8L31.9,54.8L32.9,54.0L33.4,53.9L33.7,53.9L34.1,54.4L35.0,54.9L36.0,54.9L36.6,54.6L36.8,54.0L36.5,53.8L36.0,53.8L35.5,54.0L35.0,54.0L34.6,53.8L34.6,53.2L35.2,52.4L35.3,51.9L35.4,49.8L35.1,49.0L33.7,48.9L33.1,49.1L32.9,49.3L32.9,52.0L33.1,52.4L33.0,53.3L32.5,53.9L32.0,53.9L31.5,53.1L31.5,52.8L32.0,52.2L32.5,52.0L32.0,51.3L31.9,50.5L31.8,50.3L31.0,50.3L30.3,50.5L29.3,50.4L28.6,49.9L28.5,49.2L27.5,48.7L26.9,48.6L26.6,48.8L25.7,50.3L25.4,50.3L24.6,49.2L23.8,49.2L23.9,50.4L23.6,50.7L23.4,50.7L22.0,50.1L21.0,48.8L21.3,47.7L20.5,47.1L20.2,47.1L19.8,47.5L19.0,47.5L18.1,47.1L17.4,47.1L16.8,47.2L16.9,47.8L17.3,47.8L17.4,47.5L17.8,47.4L19.7,48.8L19.7,49.0L19.0,49.7L18.8,50.3L18.6,50.4L17.6,49.2L17.0,49.1L16.9,49.6L17.1,50.4L16.8,50.7L15.1,50.8L13.8,50.0L12.7,48.9L12.1,48.8L11.9,48.8L11.5,49.8Z M28.9,51.1L29.7,51.2L30.2,51.7L30.2,52.2L29.4,52.9L29.1,52.9L28.5,52.5L28.6,51.4Z M11.9,50.1L12.1,49.9L12.7,49.9L12.9,50.0L12.9,50.4L12.7,50.5L12.0,50.5Z M80.3,46.7L80.4,47.1L81.3,47.2L82.1,47.6L83.0,47.7L83.6,47.5L83.7,47.3L83.5,46.9L83.0,46.7L82.2,47.0L81.3,47.0L80.9,46.7Z M91.9,50.6L91.9,51.0L94.4,51.5L94.3,52.1L94.1,52.2L94.1,52.5L94.3,52.6L94.9,52.5L95.2,51.9L95.8,51.3L95.8,50.3L96.1,50.3L96.8,50.8L97.4,51.0L98.5,51.1L98.5,51.5L98.0,51.9L98.0,52.2L98.5,52.2L98.8,52.1L99.2,52.1L99.5,52.3L99.5,53.7L99.8,53.9L100.3,53.9L100.9,53.7L101.4,53.1L102.1,52.9L103.1,53.9L103.4,54.0L104.6,53.9L105.6,53.5L106.2,53.7L106.6,53.3L107.0,53.3L107.3,53.6L107.6,54.5L107.0,55.6L105.6,57.2L105.6,57.4L105.8,57.6L108.0,58.1L108.1,58.4L108.0,58.9L108.1,59.0L108.5,59.0L109.4,58.0L109.6,57.2L110.0,57.1L111.0,57.6L111.3,57.6L112.1,58.6L112.4,58.6L112.7,58.3L112.7,57.2L112.4,57.0L110.5,56.2L108.9,54.8L108.9,54.4L109.8,54.1L110.3,53.8L110.3,53.5L109.7,52.9L109.4,52.9L108.7,53.3L108.0,53.3L107.2,52.8L106.6,52.7L105.6,53.1L104.6,52.9L104.0,53.2L103.3,53.2L102.9,52.8L103.0,52.2L103.6,51.5L103.8,50.6L103.8,48.6L103.5,48.2L102.4,48.0L101.7,48.2L101.3,48.6L101.4,50.5L101.2,50.8L101.0,50.8L100.4,50.4L100.4,49.5L100.2,49.3L99.6,49.3L98.8,49.7L97.4,50.0L95.9,48.9L94.4,47.3L94.5,47.1L94.8,47.1L95.6,47.5L97.0,47.5L97.2,47.4L97.3,47.1L97.0,46.6L96.4,46.5L96.0,46.8L95.4,46.8L94.2,46.5L93.9,46.8L93.9,47.8L93.3,49.0Z M106.9,57.2L107.1,57.0L107.6,57.2L107.4,57.3Z M107.9,55.7L108.1,55.5L108.3,55.5L108.7,55.7L108.7,55.9L108.5,56.1L108.0,56.1Z M101.2,51.0L101.4,51.4L101.2,52.9L100.4,53.1L100.1,52.8L100.0,51.9L100.6,51.3Z M93.2,50.6L93.3,50.5L93.8,50.7Z M94.0,49.2L94.3,48.9L94.8,48.9L95.0,49.1L94.9,49.5L94.4,49.6Z M87.2,46.8L87.4,47.0L87.9,47.0L88.9,47.5L90.2,47.6L90.6,47.3L90.3,46.7L90.1,46.6L89.4,46.6L89.3,46.8L88.7,46.9L87.7,46.5L87.4,46.5Z M20.8,46.0L20.8,46.5L21.4,46.8L21.7,46.7L21.9,46.4L21.3,45.9Z M62.0,45.6L62.0,46.0L62.3,46.2L62.6,46.2L62.9,45.8L62.5,45.5Z M68.8,45.4L68.9,45.9L69.1,46.1L69.9,46.0L69.7,45.6L69.1,45.4Z M11.2,45.3L11.2,46.3L11.8,47.1L12.8,47.3L14.2,47.3L15.0,47.1L15.1,46.4L14.7,46.0L14.2,46.0L13.6,46.5L12.3,46.5L11.6,45.9L11.4,45.3Z M9.8,45.3L9.6,45.3L9.3,45.6L9.3,45.9L9.5,46.1L9.9,45.9Z M112.4,43.9L111.9,44.0L111.8,44.7L112.0,45.1L112.5,44.9L112.6,44.1Z M105.6,43.9L105.2,44.0L105.1,44.2L105.2,45.1L105.7,45.0L105.8,44.8L105.8,44.0Z M106.8,43.6L106.9,45.1L107.6,45.9L108.2,46.1L110.2,46.1L111.0,45.8L111.1,45.4L110.5,44.8L110.1,44.8L109.6,45.3L109.1,45.4L108.0,45.3L107.4,44.6L107.1,43.6Z M113.5,43.6L113.6,45.0L114.6,45.9L116.4,46.1L117.5,45.9L117.8,45.6L117.8,45.3L117.3,44.8L116.8,44.8L116.1,45.3L114.8,45.3L114.2,44.6L114.1,43.9L113.7,43.5Z M14.6,43.5L14.7,43.8L15.0,44.1L15.4,44.1L15.4,43.7L15.1,43.5Z M12.2,43.5L12.2,43.7L12.4,43.9L12.7,43.8L12.7,43.6L12.5,43.4Z M110.6,42.3L110.6,42.7L110.9,43.0L111.3,42.9L111.2,42.4Z M117.3,42.2L117.3,42.6L117.5,42.8L118.0,42.8L118.0,42.5L117.8,42.3Z M24.0,42.5L24.2,42.7L24.8,42.7L25.1,42.4L24.8,42.2L24.2,42.2Z M108.0,42.2L108.0,42.5L108.1,42.7L108.7,42.7L108.6,42.2Z M30.9,42.5L31.9,42.5L31.8,42.2L31.5,42.1L31.0,42.2Z M114.7,42.0L114.7,42.4L115.2,42.8L115.5,42.4L115.4,42.2Z M51.5,42.0L51.7,42.2L52.2,42.2L52.4,42.0L52.2,41.9Z M44.6,42.0L44.9,42.3L45.6,42.2L45.6,42.0Z M16.6,44.6L16.6,45.1L17.9,45.4L18.7,45.4L18.9,45.6L18.8,46.4L19.2,46.7L19.5,46.7L19.7,46.5L19.8,46.0L20.4,45.2L20.3,44.5L20.5,44.3L20.8,44.3L21.7,45.0L22.9,45.1L23.1,45.3L23.1,46.2L23.9,46.1L24.2,46.4L24.3,47.0L24.1,47.7L24.5,48.1L25.2,48.0L25.7,47.4L26.3,47.1L26.8,47.1L27.8,48.1L29.5,48.0L29.8,47.7L29.8,46.5L30.2,46.1L31.0,46.2L31.0,47.7L31.3,48.0L32.0,47.9L32.6,47.3L33.3,47.0L33.7,47.1L34.3,47.8L35.2,48.1L36.1,48.0L36.6,47.5L36.5,47.0L36.0,46.9L35.4,47.2L35.1,47.2L34.6,47.1L34.4,46.7L34.5,46.2L35.2,45.2L35.3,42.6L35.1,42.2L34.7,42.0L33.6,42.1L32.9,42.4L32.9,46.2L32.6,46.9L32.3,47.1L32.1,47.1L31.7,46.7L31.7,46.2L32.4,45.4L32.6,45.1L31.9,44.4L31.9,43.6L31.8,43.4L31.1,43.4L29.8,43.8L29.7,44.3L30.0,44.6L30.2,45.3L29.5,46.2L29.5,46.4L28.5,47.3L28.1,47.3L27.7,47.0L27.6,46.4L28.3,45.4L28.5,44.6L28.5,42.7L27.9,42.1L26.8,42.1L26.0,42.4L25.9,43.1L26.1,43.8L26.1,46.1L25.6,47.1L25.1,47.2L24.7,46.9L24.7,45.7L25.4,45.1L25.1,44.7L25.1,43.7L24.9,43.5L24.1,43.5L23.1,43.8L22.0,43.9L21.2,43.6L21.0,43.3L20.3,42.9L19.3,41.8L18.7,41.8L18.3,42.7L17.4,43.8Z M17.9,44.6L18.1,44.4L18.6,44.6L18.4,44.8Z M18.6,43.3L18.9,43.0L19.4,43.0L19.7,43.4L19.4,43.7L18.9,43.7Z M72.1,42.0L72.9,42.0L72.9,41.7L72.2,41.6Z M99.4,41.4L99.5,41.8L100.1,41.8L100.3,41.6L100.1,41.2L99.6,41.2Z M57.7,44.0L57.7,44.5L58.3,44.6L59.0,45.0L60.1,45.1L60.1,45.4L59.9,45.6L60.0,46.0L60.4,46.2L60.7,46.0L60.8,45.5L61.3,45.1L61.5,44.7L61.6,43.7L63.0,44.5L63.7,44.7L65.1,44.6L65.7,44.8L66.9,44.9L66.8,45.7L67.1,46.1L67.5,46.0L67.8,45.2L68.3,44.6L68.3,43.7L68.9,43.7L69.6,44.3L70.9,44.4L71.1,44.8L70.8,45.6L71.9,45.5L72.1,45.7L72.2,46.1L72.0,47.0L72.4,47.4L73.0,47.3L74.1,46.6L74.7,46.6L75.6,47.4L75.8,47.5L77.0,47.5L77.4,47.4L77.6,47.1L77.6,46.6L77.5,46.4L77.1,46.4L76.4,46.8L75.8,46.7L75.5,46.2L75.7,45.6L76.3,44.7L76.4,42.1L75.9,41.6L75.5,41.5L74.4,41.7L73.9,42.1L74.1,43.4L74.1,45.6L73.6,46.6L73.1,46.7L72.5,45.8L72.6,45.2L73.4,44.6L73.4,44.2L73.0,43.8L73.0,43.3L72.8,42.9L72.4,42.8L71.1,43.3L70.0,43.4L69.0,42.9L67.4,41.2L67.0,41.0L66.4,41.3L65.7,42.7L65.3,43.1L65.0,43.6L64.6,43.7L63.8,43.7L62.6,43.3L61.6,42.4L60.6,41.4L60.2,41.1L59.9,41.1L59.6,41.4L59.3,42.1Z M59.1,43.9L59.4,44.2L59.0,44.1Z M65.8,44.0L66.1,43.7L66.3,43.7L66.5,44.0L66.3,44.2Z M59.8,42.7L60.1,42.4L60.5,42.4L60.8,42.6L60.8,42.9L60.6,43.1L60.2,43.2Z M66.6,42.6L66.9,42.3L67.3,42.3L67.6,42.6L67.5,43.0L66.6,42.9Z M30.4,40.7L30.5,40.9L31.0,40.9L31.1,40.5L31.4,40.4L32.3,41.2L33.1,41.5L34.6,41.4L34.8,41.3L34.9,40.7L34.4,40.3L33.8,40.3L33.6,40.5L32.7,40.6L32.0,40.2L30.7,40.2L30.5,40.3Z M23.6,40.7L24.0,40.9L24.7,40.5L25.3,41.2L26.3,41.6L27.7,41.5L28.1,41.1L28.1,40.9L27.5,40.3L27.0,40.3L26.5,40.6L25.9,40.6L25.3,40.4L25.1,40.2L24.3,40.2L23.7,40.3Z M37.3,40.2L37.3,40.7L37.5,40.9L38.6,40.5L39.2,41.1L40.0,41.4L40.3,41.8L40.3,42.0L39.6,42.4L39.7,43.1L39.5,43.3L39.1,43.3L38.1,42.0L37.5,42.0L37.5,43.6L36.5,44.2L36.5,44.5L36.7,44.7L37.7,45.0L37.6,47.2L37.8,47.3L38.2,47.2L38.2,45.2L38.0,44.6L38.5,44.3L39.0,44.4L39.4,44.8L39.6,45.7L40.2,46.4L40.9,46.7L41.2,46.7L41.5,46.4L43.1,46.6L43.7,46.0L44.4,45.8L44.8,46.3L44.7,47.3L44.9,47.7L45.6,47.8L46.9,46.9L47.4,46.9L48.0,47.5L48.6,47.8L50.0,47.7L50.5,47.2L50.3,46.5L50.4,46.0L50.9,45.7L51.3,45.7L51.6,46.0L51.6,47.3L51.9,47.6L52.5,47.5L53.5,47.0L53.7,46.7L54.3,46.7L54.7,47.3L55.3,47.7L56.9,47.6L57.4,47.2L58.3,47.2L58.6,46.9L59.0,47.0L59.7,47.9L59.7,48.4L58.6,50.1L57.6,50.9L57.7,51.4L60.0,51.9L60.1,52.9L60.6,52.9L61.4,51.9L61.9,50.6L62.7,51.2L63.5,51.5L65.1,51.4L66.0,51.7L66.7,51.7L67.0,52.1L66.8,52.3L66.9,52.8L67.2,52.9L67.6,52.8L67.8,52.2L68.4,51.5L68.5,50.5L68.8,50.5L69.7,51.2L70.4,51.3L70.9,52.2L71.3,52.3L71.7,52.0L71.8,51.2L71.6,50.8L70.0,50.3L68.9,49.5L67.8,48.6L67.6,48.1L67.8,47.9L69.1,47.7L69.2,47.5L69.2,47.1L68.6,46.6L68.0,46.6L67.5,47.0L66.8,46.9L65.9,46.4L65.5,46.4L65.1,46.7L64.8,46.7L64.8,47.1L65.1,47.1L65.8,46.8L66.4,47.6L66.4,48.4L65.9,49.3L64.7,50.5L63.8,50.5L62.8,50.2L60.9,48.6L60.9,48.2L61.1,48.0L61.9,47.9L62.4,47.5L62.3,47.1L61.7,46.7L61.3,46.7L60.6,47.1L60.1,47.1L59.0,46.5L58.6,46.7L58.0,46.7L57.7,46.9L57.4,46.9L57.0,46.6L56.5,46.6L56.0,46.9L55.3,46.8L55.0,46.4L55.0,46.1L55.7,45.1L55.9,43.3L55.8,42.1L55.4,41.8L53.9,41.8L53.4,42.1L53.4,44.9L53.6,45.7L53.4,46.2L52.8,46.9L52.6,46.9L52.2,46.3L52.2,45.4L53.0,44.6L52.5,44.1L52.5,43.6L52.2,43.0L51.8,43.0L51.2,43.3L50.5,43.4L50.3,43.6L50.3,44.0L50.7,44.8L50.1,45.7L50.1,46.2L49.6,46.8L49.2,47.0L48.5,46.9L48.2,46.5L48.2,46.2L49.0,45.0L49.0,42.2L48.7,41.9L48.3,41.8L46.9,42.0L46.6,42.3L46.6,45.1L46.8,45.7L46.4,46.5L46.0,46.9L45.7,46.9L45.2,46.4L45.3,45.5L46.2,44.6L45.7,44.1L45.7,43.6L45.4,43.1L44.9,43.1L44.3,43.4L43.5,43.4L42.5,43.1L42.1,42.2L41.4,41.6L41.4,41.4L41.9,41.0L41.9,40.7L41.3,40.2L40.7,40.1L40.3,40.4L39.6,40.4L38.4,39.8L37.7,39.9Z M65.7,50.8L65.9,50.6L66.3,50.6L66.4,51.0Z M59.9,49.5L60.2,49.2L60.6,49.2L61.0,49.5L60.9,50.0L60.1,50.0L59.9,49.8Z M66.7,49.4L66.9,49.2L67.4,49.2L67.7,49.5L67.6,49.8L66.9,49.8Z M42.6,43.9L43.8,44.4L43.9,44.8L43.8,45.2L43.0,45.9L42.4,45.8L42.2,45.6L42.4,44.0Z M105.0,46.3L104.8,46.1L104.5,46.1L103.9,46.4L103.3,46.4L102.9,46.0L102.9,45.5L103.5,44.8L103.7,44.3L103.8,42.0L103.3,41.3L102.2,41.2L101.4,41.5L101.3,45.4L100.9,46.2L100.1,46.2L100.1,44.7L100.8,44.2L100.7,43.8L100.4,43.6L100.4,42.9L100.2,42.5L99.5,42.5L98.9,42.8L97.5,42.6L97.1,42.2L96.9,41.6L96.2,41.2L96.1,40.7L96.4,40.5L96.5,40.1L96.1,39.6L95.3,39.5L94.9,39.8L94.2,39.8L93.1,39.2L92.6,39.2L92.2,39.5L92.4,39.7L93.1,39.8L93.6,40.3L94.9,41.0L94.9,41.4L94.4,41.8L94.2,42.6L94.0,42.6L93.0,41.6L92.4,41.3L92.2,41.5L92.3,42.6L92.0,42.9L91.4,42.9L90.6,42.6L89.7,41.4L89.0,41.0L88.4,41.0L88.1,41.5L87.6,42.0L87.5,42.3L87.1,42.6L86.0,41.4L85.5,41.5L85.4,42.7L85.1,43.0L84.4,43.0L83.8,42.7L83.4,42.3L83.4,42.0L83.0,41.6L82.2,41.1L81.6,41.0L80.9,42.0L80.6,42.8L80.3,42.8L79.2,41.6L78.7,41.6L78.7,42.8L77.7,43.7L77.7,44.0L77.9,44.3L78.4,44.4L78.7,44.8L78.7,46.5L79.1,46.9L79.2,46.8L79.2,44.6L79.1,44.1L79.4,43.7L80.1,43.8L80.4,44.1L80.7,45.3L81.1,45.8L81.9,46.2L82.2,46.2L82.6,45.9L83.3,45.9L83.9,46.1L83.8,45.7L83.3,45.1L83.4,43.8L83.8,43.5L84.3,43.5L84.8,44.2L85.2,44.2L85.6,44.5L85.6,46.4L85.9,46.7L86.1,46.4L86.0,44.1L86.5,43.7L87.0,43.8L87.4,44.2L87.6,45.2L88.2,45.8L88.9,46.1L89.5,45.8L90.0,45.8L90.6,46.2L90.9,46.2L90.8,45.6L90.2,45.1L90.2,43.7L90.4,43.5L91.0,43.5L91.6,44.2L92.3,44.4L92.5,44.7L92.3,44.9L92.3,46.5L92.7,46.8L92.9,46.4L92.9,44.5L92.8,44.0L93.1,43.7L93.6,43.7L94.1,44.1L94.3,45.0L94.8,45.7L95.7,46.0L96.2,45.7L97.8,46.0L98.7,45.3L99.1,45.3L99.4,45.5L99.4,46.9L99.6,47.1L100.2,47.1L101.6,46.2L102.3,46.3L102.4,46.7L103.1,47.2L104.1,47.2L104.9,47.0Z M97.9,43.5L98.7,44.0L98.7,44.2L97.8,45.1L97.3,45.3L97.1,45.2L96.9,44.7L97.1,43.6Z M27.5,39.2L27.5,39.4L27.8,39.7L28.5,39.9L28.5,39.3L28.1,39.1Z M34.6,39.0L34.4,39.5L34.8,39.7L35.4,39.7L35.4,39.4L35.2,39.1Z M41.4,38.8L41.4,39.3L41.8,39.6L42.4,39.6L42.6,39.3L42.0,38.9Z M17.9,38.3L17.8,38.9L18.0,39.6L18.6,40.2L19.2,40.3L21.0,40.3L21.9,40.1L21.9,39.5L21.6,39.1L20.8,39.2L20.5,39.5L19.2,39.6L18.7,39.4L18.3,38.8L18.2,38.5Z M16.6,38.3L16.3,38.4L16.0,38.7L16.2,39.3L16.6,39.3L16.6,39.1Z M95.9,38.3L96.1,38.8L96.5,39.0L97.0,38.9L97.0,38.6L96.5,38.2Z M106.8,37.4L106.8,38.3L107.6,39.0L108.0,39.2L110.1,39.3L110.8,39.1L111.0,38.5L110.5,38.0L109.9,38.0L109.5,38.5L108.0,38.5L107.6,38.2L107.1,37.4Z M105.2,37.1L105.0,37.9L105.4,38.2L105.6,38.1L105.8,37.4L105.7,37.2Z M99.9,36.9L99.8,37.5L100.0,38.4L100.7,39.1L101.7,39.4L103.2,39.4L104.0,39.1L104.1,38.6L103.5,38.1L103.1,38.1L102.8,38.5L102.2,38.6L100.9,38.5L100.3,37.8L100.4,37.2L100.2,36.9Z M21.5,36.6L21.5,36.9L21.7,37.1L22.1,37.2L22.2,36.8L21.7,36.5Z M18.9,36.6L18.9,36.9L19.1,36.9L19.7,36.9L19.7,36.7L19.4,36.4L19.1,36.4Z M9.8,40.2L9.8,40.3L10.2,40.2L11.6,38.6L12.2,38.6L14.6,40.7L15.6,40.8L16.0,40.6L16.1,40.3L15.7,40.0L15.0,39.8L13.9,39.2L12.6,38.0L12.5,37.2L13.0,36.7L13.0,36.1L12.7,35.8L12.0,35.9L11.8,37.0L11.5,37.4L10.5,39.2Z M103.5,35.6L103.8,36.2L104.4,36.2L104.4,35.7L104.0,35.5Z M101.1,35.5L101.1,35.7L101.4,36.0L101.8,35.8L101.8,35.6L101.5,35.4Z M110.4,35.4L110.4,35.7L110.8,36.1L111.3,36.0L111.3,35.7L111.1,35.5Z M108.0,35.4L108.0,35.6L108.2,35.9L108.6,35.9L108.6,35.4Z M51.4,35.2L51.6,35.4L52.2,35.4L52.3,35.1L51.8,35.0Z M44.5,35.2L44.6,35.4L44.9,35.5L45.5,35.4L45.5,35.2L45.2,35.0Z M58.4,35.0L58.5,35.3L59.0,35.4L59.2,35.2L59.0,34.9Z M72.0,35.0L72.1,35.2L72.8,35.2L72.8,34.9Z M65.0,34.9L65.0,35.2L65.2,35.2L66.0,35.2L66.0,35.0L65.8,34.9Z M78.9,34.8L79.2,35.2L79.5,35.2L79.7,34.9L79.5,34.7Z M85.8,34.6L85.9,34.9L86.3,35.0L86.5,34.8L86.5,34.6Z M111.9,39.4L112.3,39.4L114.2,37.5L114.6,37.3L114.9,37.4L116.7,39.2L117.2,39.5L118.2,39.6L118.5,39.3L118.5,39.0L118.2,38.7L117.8,38.6L116.3,37.7L115.1,36.6L115.1,36.1L115.6,35.4L115.6,34.8L115.2,34.5L114.7,34.6L114.5,35.4L113.7,36.6L113.5,37.1Z M91.7,37.0L91.8,37.3L94.1,37.7L94.3,37.9L94.1,38.8L94.6,38.9L94.8,38.7L95.0,38.2L95.6,37.5L95.7,36.6L96.1,36.6L96.5,36.9L97.7,37.4L98.0,37.8L98.2,38.3L98.7,38.3L99.0,37.7L99.0,37.2L98.5,36.6L97.2,36.3L95.8,35.3L94.5,34.0L94.0,34.0L93.8,34.2L93.5,35.0Z M93.0,36.9L93.1,36.7L93.6,36.9L93.4,37.0Z M93.9,35.3L94.4,35.2L94.8,35.2L95.0,35.7L94.8,35.9L94.1,35.9L93.8,35.6Z M57.8,33.3L58.0,33.6L58.4,33.6L58.8,33.4L59.0,33.4L59.6,33.9L60.4,34.2L61.6,34.2L62.3,33.9L62.3,33.6L62.0,33.2L61.6,33.0L61.1,33.0L60.7,33.4L59.8,33.3L59.3,33.0L58.9,33.0L58.5,33.2L58.3,33.0Z M51.1,33.4L51.5,33.6L51.9,33.2L52.1,33.2L52.7,33.9L53.9,34.3L54.9,34.3L55.4,33.9L55.4,33.5L54.9,33.1L54.3,33.1L53.8,33.5L53.3,33.5L52.5,33.0L51.4,33.1Z M44.1,33.4L44.1,33.6L44.5,33.8L44.9,33.3L45.2,33.3L46.0,34.1L46.4,34.3L47.9,34.4L48.6,34.1L48.5,33.6L47.9,33.2L47.5,33.2L47.0,33.5L46.4,33.5L45.5,33.3L45.1,33.0L44.7,33.0Z M23.4,37.7L23.4,38.2L24.4,38.5L25.7,38.6L25.9,38.7L25.6,39.3L25.8,39.7L26.3,39.7L26.6,39.0L27.1,38.4L27.2,37.3L27.6,37.3L28.5,38.0L29.0,38.2L30.9,38.2L31.6,38.6L32.3,38.6L32.7,38.8L32.4,39.5L32.8,39.7L33.1,39.7L33.3,39.5L33.4,39.1L34.0,38.2L34.1,37.3L34.4,37.3L35.5,38.1L37.9,38.1L38.4,38.4L39.1,38.3L39.5,38.6L39.3,38.8L39.2,39.3L39.4,39.5L40.0,39.6L40.2,39.5L40.3,39.1L40.9,38.2L40.9,37.1L41.3,37.1L42.2,37.8L43.5,38.0L43.7,38.2L43.3,38.9L43.5,39.1L44.3,39.0L44.7,39.4L44.6,40.4L44.9,40.9L45.6,40.8L46.7,40.1L47.2,39.9L48.1,40.8L48.8,41.0L49.6,41.0L49.9,40.9L50.4,40.3L50.3,39.2L50.5,39.0L51.2,38.9L51.5,39.2L51.4,40.4L51.9,40.9L52.9,40.5L53.9,39.9L54.1,39.9L54.9,40.8L56.4,40.9L56.8,40.8L57.2,40.3L57.1,39.2L57.9,38.7L58.1,38.7L58.4,39.3L58.4,40.5L58.9,40.8L59.3,40.8L59.9,40.2L60.6,39.8L61.0,39.8L61.7,40.6L62.2,40.8L63.2,40.8L63.8,40.6L64.0,40.4L63.9,39.3L64.6,38.7L65.0,38.8L65.3,39.1L65.1,40.5L65.4,40.8L66.2,40.7L66.5,40.3L67.5,39.7L67.9,39.8L68.1,40.3L69.0,40.7L70.1,40.7L70.6,40.5L70.8,40.1L70.8,39.4L71.4,38.7L72.0,38.8L72.1,39.0L72.0,40.3L72.3,40.6L73.0,40.5L74.2,39.6L74.7,39.7L75.3,40.4L75.8,40.6L77.3,40.5L77.6,40.2L77.5,39.1L78.3,38.6L78.8,38.6L79.0,38.8L78.8,39.9L79.0,40.4L79.2,40.5L79.7,40.5L81.0,39.6L81.7,39.7L82.1,40.3L82.5,40.5L84.2,40.4L84.4,40.2L84.4,39.2L85.1,38.6L85.6,38.6L85.8,38.7L85.7,40.2L86.0,40.4L86.5,40.4L87.8,39.5L88.4,39.5L89.0,40.3L89.9,40.5L90.8,40.4L91.5,40.0L91.4,39.4L90.7,39.4L90.2,39.7L89.6,39.7L89.1,39.2L89.2,38.6L89.9,37.8L90.0,35.2L89.5,34.5L88.6,34.5L87.7,34.8L87.7,36.8L87.5,37.1L87.2,37.2L86.6,36.8L86.7,36.2L86.1,35.9L85.6,35.9L84.7,36.2L84.4,36.5L84.5,36.9L85.0,37.1L85.0,37.5L84.3,38.4L84.1,39.0L83.4,39.7L82.7,39.7L82.5,39.5L82.4,38.8L82.9,38.1L83.2,37.2L83.2,35.2L82.7,34.6L81.6,34.6L80.9,34.9L80.7,35.2L80.9,36.5L80.9,38.5L80.5,39.3L80.2,39.6L79.7,39.6L79.5,39.4L79.5,38.8L79.3,38.6L79.4,38.3L80.1,37.8L80.2,37.4L79.8,36.9L79.8,36.3L79.6,35.9L79.0,35.8L77.5,36.4L77.5,36.8L78.1,37.3L77.9,38.0L77.5,38.5L77.3,39.1L76.6,39.8L75.8,39.9L75.5,39.5L75.4,39.1L76.3,37.6L76.3,35.2L75.9,34.8L74.7,34.7L74.1,34.9L73.9,35.2L74.0,38.8L73.3,39.8L72.9,39.8L72.5,39.4L72.5,38.6L72.7,38.1L73.4,37.6L73.4,37.4L72.9,36.8L72.9,36.1L72.1,36.0L70.8,36.5L70.7,36.9L71.1,37.4L71.2,37.8L69.8,39.8L69.1,39.9L68.7,39.7L68.5,39.3L69.1,38.6L69.4,37.6L69.4,35.2L69.1,34.8L68.0,34.8L67.1,35.1L67.1,38.6L66.5,39.8L65.9,39.8L65.7,39.5L65.7,38.4L66.4,37.8L66.5,37.4L66.0,37.0L66.0,36.2L65.2,36.1L64.9,36.3L64.0,36.4L63.8,36.7L63.8,37.0L64.2,37.3L64.4,37.7L63.7,38.6L63.5,39.3L62.8,40.0L62.3,40.0L61.8,39.5L61.8,39.2L62.3,38.5L62.6,37.8L62.6,35.3L62.3,34.9L61.3,34.8L60.3,35.1L60.3,37.1L59.8,37.7L59.4,37.3L59.1,36.2L58.5,36.1L57.9,36.4L57.2,36.5L57.1,36.7L57.1,37.0L57.6,37.5L57.6,37.8L56.9,38.7L56.8,39.3L56.1,40.0L55.4,40.0L55.0,39.6L55.0,39.2L55.5,38.6L55.8,37.9L55.9,36.8L55.8,35.4L55.6,35.1L54.3,35.0L53.6,35.1L53.3,35.3L53.5,36.5L53.5,37.2L53.3,37.7L52.9,37.7L52.5,37.3L52.4,36.4L52.2,36.2L51.6,36.2L51.3,36.4L50.4,36.6L50.2,36.8L50.2,37.1L50.7,37.9L50.1,38.7L50.1,39.2L49.2,40.1L48.5,40.1L48.2,39.7L48.2,39.2L48.7,38.6L48.9,38.0L49.0,35.6L48.8,35.2L48.4,35.0L47.1,35.1L46.6,35.2L46.5,35.4L46.7,36.9L46.7,39.1L46.1,40.0L45.4,40.1L45.3,40.0L45.2,38.8L45.9,38.1L46.0,37.8L45.6,37.2L45.5,36.3L45.2,36.2L43.8,36.7L42.5,36.9L41.4,36.1L40.3,35.0L40.3,34.5L41.2,34.4L41.6,34.2L41.7,33.7L41.4,33.4L40.9,33.2L40.5,33.3L40.3,33.6L39.5,33.6L38.4,33.0L37.4,33.2L37.2,33.4L37.2,33.6L37.6,33.9L38.0,33.6L38.6,33.6L39.0,34.4L38.9,35.2L37.8,36.8L37.1,37.2L36.4,37.2L35.4,36.9L33.6,35.5L33.5,35.0L33.9,34.6L34.9,34.3L34.9,33.9L34.4,33.4L33.6,33.5L33.4,33.7L32.8,33.7L31.6,33.1L30.7,33.1L30.4,33.6L30.5,33.9L31.0,33.8L31.2,33.6L31.7,33.6L32.0,34.1L32.1,35.2L31.8,35.7L31.8,36.0L30.4,37.3L29.7,37.4L29.1,37.0L28.4,36.9L27.3,35.9L27.0,35.8L26.3,34.9L25.6,34.8L25.2,35.2L24.9,36.0Z M53.1,38.0L53.3,38.1L53.4,39.1L52.8,40.0L52.4,40.0L52.2,39.6L52.2,38.5L52.4,38.2Z M60.2,38.0L60.2,39.2L59.6,39.9L59.3,39.9L58.9,39.4L58.8,38.9L59.4,38.1L59.8,37.9Z M87.4,37.4L87.7,38.0L87.7,38.6L87.3,39.5L87.1,39.7L86.6,39.7L86.3,39.3L86.3,38.2L86.6,37.8Z M38.5,37.5L38.6,37.3L38.9,37.6Z M25.7,36.1L26.3,36.1L26.3,36.7L25.7,36.7Z M32.3,36.2L32.7,35.9L33.3,36.0L33.5,36.4L33.1,36.7L32.5,36.7L32.3,36.5Z M39.1,36.1L39.5,35.8L39.9,35.8L40.3,36.1L40.3,36.3L39.9,36.6L39.4,36.6L39.1,36.3Z M64.7,33.0L64.8,33.4L65.2,33.5L65.4,33.3L65.8,33.3L66.4,33.8L67.0,34.1L68.5,34.1L69.1,33.8L69.1,33.6L68.8,33.1L68.3,32.9L68.0,32.9L67.5,33.3L66.8,33.3L66.0,32.8L64.8,32.8Z M86.5,32.7L86.5,33.1L86.7,33.4L87.6,33.8L89.0,33.9L89.8,33.6L89.7,33.4L89.1,32.7L88.5,32.7L87.9,33.1Z M82.7,33.7L82.6,33.2L82.5,32.9L82.1,32.7L81.8,32.7L81.3,33.2L80.6,33.2L80.1,32.8L79.5,32.8L79.9,33.5L80.4,33.8L81.2,34.0L82.4,34.0Z M86.2,32.5L85.8,32.5L85.2,32.8L85.3,33.4L85.7,33.4Z M34.3,32.4L34.6,32.8L35.2,32.9L35.3,32.7L35.3,32.5L35.1,32.2L34.4,32.2Z M41.2,32.0L41.4,32.6L42.2,32.6L42.2,32.4L42.0,32.1Z M48.1,31.9L48.2,32.3L48.5,32.6L49.0,32.6L49.0,32.3L48.7,31.9Z M62.0,31.9L61.9,32.3L62.3,32.5L62.6,32.5L62.8,32.3L62.8,32.0L62.4,31.9Z M55.0,31.9L55.0,32.3L55.4,32.5L55.8,32.4L55.8,32.1L55.6,31.9Z M68.6,31.9L68.6,32.0L68.9,32.3L69.7,32.3L69.6,31.9L69.3,31.8Z M89.3,31.6L89.4,32.0L89.7,32.2L90.1,32.1L90.0,31.8Z M82.5,31.7L82.4,32.0L82.6,32.2L83.2,32.2L83.3,31.9L83.0,31.7Z M24.8,31.8L24.8,32.6L25.6,33.4L27.8,33.5L28.7,33.2L28.8,32.6L28.5,32.2L28.2,32.0L27.7,32.1L27.1,32.6L26.6,32.7L25.5,32.4L25.1,31.9L25.0,31.6Z M23.4,31.4L22.9,31.6L22.9,32.3L23.4,32.2L23.5,31.6Z M93.1,30.1L93.0,31.6L93.7,32.3L94.8,32.6L96.1,32.6L97.2,32.3L97.3,31.9L96.8,31.3L96.1,31.4L95.5,31.9L94.2,31.8L93.5,31.0L93.4,30.2Z M28.3,29.6L28.4,30.1L28.6,30.2L29.1,30.2L29.1,29.9L28.7,29.5Z M25.9,29.6L26.0,30.0L26.3,29.9L26.3,29.6Z M22.7,33.5L22.1,33.0L20.8,32.3L19.3,31.0L19.3,30.4L19.8,29.6L19.8,29.3L19.5,28.9L18.9,28.9L17.7,31.5L16.9,32.6L16.2,33.2L15.5,33.2L14.2,32.6L12.4,31.1L12.3,30.6L12.9,29.8L12.9,29.4L12.6,29.1L12.2,29.1L11.9,29.5L11.7,30.2L10.9,31.4L10.4,32.5L9.9,33.1L9.9,33.4L10.2,33.4L10.9,32.4L11.6,31.9L11.9,31.8L12.2,31.9L14.6,33.9L15.2,34.2L15.9,34.2L16.6,33.6L18.3,31.9L18.8,31.8L19.7,32.3L21.0,33.6L21.6,33.9L22.5,33.9Z M96.7,29.0L97.1,29.5L97.6,29.5L97.6,29.1L97.4,28.8L97.0,28.7Z M94.2,28.7L94.3,29.1L94.4,29.2L94.8,28.8L94.6,28.6Z M71.9,28.3L72.8,28.3L72.7,28.0L72.2,27.9Z M118.6,32.2L118.3,31.9L117.2,31.6L115.3,30.1L115.0,29.7L115.0,29.3L115.4,28.8L115.6,28.2L115.3,27.8L114.9,27.7L114.6,28.0L114.5,28.5L112.7,31.6L112.1,31.9L111.0,31.9L109.4,30.9L108.3,29.8L108.3,29.3L108.8,28.6L108.8,28.2L108.6,27.8L107.9,27.9L107.5,29.1L106.2,31.0L106.0,31.6L105.4,32.1L104.6,32.1L103.4,31.7L102.7,31.2L101.4,29.9L101.4,29.5L101.8,28.9L101.9,28.2L101.5,27.9L101.2,27.9L101.0,28.2L100.6,29.3L100.4,29.4L98.8,32.1L98.4,32.4L98.6,32.6L98.9,32.5L100.5,30.8L101.2,30.7L103.3,32.8L104.7,33.2L105.5,32.8L107.3,30.8L108.1,30.7L110.2,32.7L111.5,33.1L112.2,32.8L113.7,31.1L114.5,30.5L114.9,30.6L116.6,32.4L117.2,32.7L118.1,32.8L118.3,32.7Z M92.1,30.8L92.1,30.3L91.7,29.9L90.2,29.5L88.5,28.2L87.7,27.2L87.2,27.2L86.2,28.8L85.4,29.7L84.9,29.9L84.3,29.9L83.2,29.5L81.7,28.3L80.9,27.3L80.2,27.4L79.6,28.7L78.3,30.0L78.0,30.5L78.9,30.7L79.3,31.0L80.3,31.0L80.6,31.4L80.4,31.7L80.4,32.0L80.6,32.1L81.9,30.8L81.8,30.0L82.0,29.8L82.3,29.8L83.4,30.6L85.9,30.7L86.1,30.9L87.0,30.9L87.2,31.0L87.4,32.0L87.6,32.1L88.0,32.0L88.2,31.5L88.8,30.7L88.8,30.0L89.3,29.9L89.5,30.2L90.9,30.7L91.4,31.6L91.7,31.6L91.9,31.4Z M87.0,28.7L87.3,28.5L87.8,28.5L88.1,28.7L88.1,28.9L87.9,29.1L87.4,29.2L87.0,28.9Z M80.2,28.7L80.5,28.5L80.8,28.5L81.1,28.6L81.3,28.9L81.0,29.2L80.4,29.2Z M51.1,26.3L51.1,26.8L51.3,26.8L51.3,26.3Z M58.0,26.3L58.3,26.6L58.3,26.2Z M78.9,33.0L78.9,32.8L77.9,32.9L77.0,32.7L76.0,33.1L75.4,32.6L75.4,32.2L76.0,31.4L76.2,30.7L76.2,28.5L76.0,28.1L75.7,27.9L74.3,28.0L73.9,28.3L73.9,32.0L73.4,32.8L72.8,32.9L72.5,32.6L72.5,31.5L73.0,31.1L73.2,30.6L72.9,30.2L72.8,29.4L72.5,29.1L72.1,29.1L70.8,29.6L69.8,29.6L69.1,29.3L68.1,28.5L67.7,27.9L67.8,27.5L68.7,27.3L69.1,27.0L69.1,26.8L68.4,26.1L67.9,26.1L67.4,26.5L66.8,26.5L65.7,26.1L66.2,26.9L66.3,27.8L65.9,28.6L64.4,30.1L63.8,30.1L62.7,29.7L60.9,28.3L60.8,27.7L61.1,27.4L61.7,27.4L62.2,27.1L62.2,26.7L61.6,26.2L61.0,26.2L60.4,26.6L58.9,26.2L59.5,27.3L59.2,28.6L57.8,30.1L56.8,30.1L55.8,29.7L54.0,28.3L53.9,27.8L54.1,27.5L55.2,27.2L55.3,27.0L55.2,26.5L54.9,26.3L54.3,26.2L53.7,26.7L53.3,26.7L52.5,26.2L52.0,26.2L52.0,26.4L52.3,26.7L52.7,27.9L52.4,28.3L52.4,28.6L51.4,29.8L50.7,30.2L49.8,30.2L48.7,29.6L47.4,28.6L46.9,27.9L46.5,27.7L45.9,27.9L45.4,28.9L44.3,30.2L43.9,30.3L42.4,30.1L42.0,29.7L41.6,29.6L39.9,27.9L39.1,27.8L38.9,28.5L38.5,29.2L37.4,30.2L36.9,30.4L36.6,30.4L35.2,30.0L34.1,29.1L33.0,27.9L32.3,27.9L31.5,29.3L30.7,30.2L30.1,30.8L30.1,31.1L30.2,31.3L31.0,31.4L32.4,31.9L32.3,32.7L32.8,32.9L33.3,32.8L33.5,32.1L33.9,31.6L34.0,30.3L34.3,30.3L35.4,31.2L39.4,31.5L39.6,31.9L39.2,32.3L39.5,32.7L39.9,32.7L40.6,31.7L40.8,31.1L40.7,30.3L41.1,30.2L42.9,31.2L44.7,31.2L45.4,31.4L46.2,31.4L46.4,31.6L46.2,32.3L46.5,32.6L47.0,32.5L47.1,32.0L47.8,31.1L47.8,30.2L48.2,30.2L48.8,30.7L49.8,31.1L51.6,31.1L52.1,31.3L52.8,31.3L53.1,31.7L53.1,32.4L53.8,32.4L53.9,31.9L54.5,31.2L54.5,30.4L54.8,30.2L55.2,30.2L55.7,30.7L56.7,31.0L58.3,30.9L59.0,31.3L59.8,31.3L60.0,31.5L59.8,32.3L60.5,32.4L60.7,32.1L60.8,31.8L61.4,31.1L61.4,30.4L61.6,30.2L62.0,30.2L62.8,30.8L63.7,31.0L65.1,30.9L65.6,31.1L66.5,31.1L66.7,31.2L66.8,31.7L66.7,32.3L67.4,32.3L68.2,31.0L68.1,30.2L68.4,30.0L68.6,30.0L69.2,30.5L70.9,30.9L70.8,31.8L71.7,31.9L72.0,32.1L72.0,33.5L72.3,33.7L73.0,33.6L74.1,32.8L74.6,32.8L75.4,33.6L76.3,33.8L77.2,33.7L77.8,33.2L78.6,33.4Z M38.3,30.6L38.5,30.4L38.8,30.4L38.9,30.8L38.3,30.8Z M45.4,30.3L45.6,30.6L45.4,30.5Z M65.8,30.1L66.2,30.2L66.1,30.5L65.7,30.4Z M32.4,29.2L33.1,29.1L33.3,29.7L32.5,29.8L32.3,29.6Z M39.1,29.3L39.4,29.0L40.0,29.0L40.3,29.4L40.0,29.7L39.4,29.7Z M46.0,29.2L46.3,28.9L46.7,28.9L47.1,29.4L46.9,29.6L46.1,29.6Z M59.7,28.9L59.9,28.7L60.5,28.7L60.7,29.0L60.7,29.2L60.6,29.4L60.1,29.5L59.7,29.2Z M66.4,28.9L66.8,28.6L67.3,28.6L67.6,28.9L67.5,29.3L67.3,29.4L66.6,29.3Z M52.8,28.9L53.0,28.7L53.7,28.7L53.9,28.9L53.9,29.2L53.6,29.5L52.9,29.4Z M71.5,26.6L71.6,26.8L71.8,26.8L72.2,26.3L72.5,26.3L73.2,26.9L74.0,27.2L75.4,27.2L75.8,27.0L75.9,26.6L75.4,26.1L74.7,26.1L74.1,26.5L72.6,26.1L71.6,26.3Z M65.3,26.0L64.7,26.1L64.7,26.7L64.9,26.8L65.1,26.6Z M61.8,25.1L61.9,25.5L62.7,25.5L62.4,25.1Z M54.9,25.1L54.9,25.4L55.5,25.8L55.8,25.7L55.7,25.2L55.4,25.1Z M68.6,25.0L68.7,25.5L69.6,25.5L69.6,25.3L69.1,24.9Z M75.4,24.9L75.4,25.1L75.8,25.5L76.3,25.5L76.3,25.1L76.0,24.9Z M30.2,24.3L30.0,24.3L29.7,24.6L29.7,25.2L29.9,25.4L30.2,25.3L30.4,25.0L30.4,24.5Z M37.0,24.2L36.5,24.7L36.5,25.0L36.8,25.3L37.1,25.2L37.3,24.8L37.3,24.5Z M38.4,24.1L38.5,25.5L39.1,26.2L40.8,26.5L42.4,26.1L42.5,25.6L41.9,25.1L41.6,25.1L40.8,25.6L39.7,25.6L39.2,25.4L38.6,24.5L38.6,24.1Z M86.3,24.0L86.3,24.8L86.5,25.1L87.3,25.7L88.2,25.9L89.4,25.9L90.4,25.5L90.5,25.1L90.0,24.6L89.4,24.6L89.0,25.1L87.5,25.1L86.9,24.6L86.6,24.1Z M45.3,24.1L45.2,25.1L45.7,25.9L46.8,26.3L48.4,26.3L49.1,26.1L49.4,25.8L49.1,25.1L48.8,24.9L48.5,24.9L48.1,25.2L47.5,25.4L46.1,25.3L45.6,24.7L45.4,24.0Z M43.8,24.0L43.4,24.5L43.5,25.1L43.9,25.1L44.0,25.0L44.0,24.2Z M91.9,23.7L91.3,23.8L91.3,24.7L91.6,24.8L91.9,24.5Z M85.0,23.7L84.5,24.0L84.5,24.6L84.7,24.8L85.1,24.6Z M79.4,23.6L79.4,24.9L80.0,25.5L80.6,25.8L82.9,25.9L83.4,25.7L83.5,25.0L83.0,24.6L82.6,24.6L81.9,25.1L80.5,25.1L80.1,24.8L79.6,23.6Z M31.6,23.6L31.4,24.0L31.5,25.4L31.7,25.8L32.2,26.3L33.2,26.6L35.2,26.5L35.7,26.0L35.7,25.7L35.2,25.2L34.6,25.2L34.3,25.5L33.7,25.7L33.1,25.7L32.3,25.4L32.0,25.1L31.8,23.6Z M93.0,23.3L93.0,24.8L93.5,25.4L94.6,25.8L96.1,25.8L97.2,25.5L97.2,25.0L96.6,24.5L96.2,24.5L95.6,25.0L94.4,25.1L93.8,24.8L93.4,24.2L93.2,23.3Z M35.1,22.8L35.4,23.4L36.0,23.3L36.0,23.0L35.5,22.5Z M41.9,22.5L42.1,23.1L42.6,23.3L42.8,23.2L42.8,22.9L42.4,22.5Z M32.6,22.5L32.5,22.9L32.8,23.2L33.4,23.1L33.4,22.9L33.0,22.5Z M48.8,22.4L48.8,22.7L49.3,23.2L49.6,22.9L49.5,22.6L49.1,22.3Z M46.3,22.4L46.3,22.7L46.5,22.9L47.1,22.8L47.1,22.5L46.9,22.3Z M39.4,22.5L39.4,22.8L39.7,23.1L40.2,23.0L40.2,22.6L40.0,22.4L39.6,22.3Z M83.1,22.0L83.1,22.3L83.4,22.7L83.8,22.3L83.4,22.0Z M10.1,26.3L10.8,25.9L11.5,25.1L12.0,25.1L12.4,25.2L14.3,27.0L14.9,27.3L15.7,27.4L16.8,26.6L18.3,25.1L18.8,24.9L19.2,25.1L20.5,26.5L21.5,27.1L22.6,27.3L23.1,27.1L23.7,26.4L24.7,25.6L25.1,25.0L25.7,24.9L27.0,25.9L27.6,26.6L28.5,27.0L29.2,27.0L29.6,26.8L29.6,26.6L28.9,26.0L27.7,25.5L26.1,24.1L26.1,23.5L26.5,22.9L26.5,22.3L26.2,22.0L25.7,22.1L25.5,22.8L23.8,25.5L23.0,26.3L21.9,26.1L20.6,25.4L19.2,24.1L19.1,23.7L19.6,23.0L19.6,22.3L19.3,22.0L19.0,22.0L18.7,22.3L18.5,23.2L16.7,26.0L16.4,26.4L15.4,26.4L14.3,25.9L12.3,24.1L12.3,23.6L12.9,22.9L12.9,22.5L12.6,22.2L12.2,22.2L11.9,22.5L11.8,23.0L10.5,25.1Z M89.8,21.9L90.0,22.6L90.4,22.8L90.8,22.7L90.8,22.4L90.3,21.9Z M87.3,22.1L87.8,22.6L88.0,22.6L88.1,22.4L88.0,22.0Z M80.6,22.0L80.9,22.6L81.2,22.5L81.1,22.0Z M96.5,21.9L96.6,22.3L97.0,22.7L97.5,22.4L97.3,22.0L96.9,21.8Z M94.0,22.1L94.5,22.6L94.9,22.5L94.9,22.1L94.5,21.8L94.2,21.8Z M98.3,26.0L98.8,25.9L100.3,24.2L100.8,23.9L101.2,24.0L103.0,25.8L104.2,26.4L104.8,26.4L105.3,26.1L107.4,23.9L107.9,23.8L109.0,24.8L109.7,25.6L110.4,26.1L111.0,26.3L111.6,26.3L112.3,25.9L114.3,23.8L114.7,23.8L116.8,25.8L117.2,26.0L118.1,26.0L118.5,25.8L118.5,25.6L117.9,25.0L117.4,24.9L116.3,24.2L115.0,23.0L115.0,22.4L115.5,21.7L115.5,21.3L115.2,21.0L114.7,21.0L114.5,21.3L114.2,22.3L114.0,22.4L113.6,23.3L112.6,24.7L111.9,25.1L111.3,25.1L110.4,24.9L109.7,24.4L108.2,23.1L108.2,22.5L108.7,21.9L108.6,21.0L108.1,20.9L107.8,21.2L107.4,22.3L107.0,22.7L106.9,23.2L106.4,23.7L106.2,24.4L105.2,25.3L104.5,25.3L103.8,25.1L102.1,23.9L101.3,23.2L101.3,22.9L101.9,22.0L101.9,21.4L101.5,21.1L101.1,21.2L100.8,21.6L100.7,22.1L100.0,23.3L99.6,23.6L99.3,24.5L98.4,25.4Z M78.4,24.2L78.4,23.8L78.1,23.4L76.2,22.7L75.3,22.0L73.8,20.5L73.2,20.8L72.7,21.8L71.5,23.1L70.4,23.1L69.1,22.5L67.1,20.6L66.7,20.6L66.2,21.0L65.8,21.8L64.4,23.3L63.6,23.3L62.6,22.9L60.1,20.6L59.8,20.6L59.6,20.8L59.1,21.8L57.9,23.2L57.4,23.4L56.6,23.3L55.5,22.7L54.8,22.2L53.6,20.9L52.9,20.8L52.7,20.9L52.4,21.7L50.7,23.5L50.8,24.0L51.8,24.4L53.1,24.6L53.2,24.9L52.9,25.1L52.9,25.3L53.3,25.7L53.7,25.7L53.7,25.2L54.5,24.3L54.5,23.6L54.9,23.4L55.6,23.9L56.7,24.2L58.4,24.2L58.9,24.4L59.6,24.4L60.0,24.7L59.7,25.3L60.0,25.6L60.4,25.6L60.8,24.8L61.2,24.4L61.4,23.3L61.7,23.3L62.7,24.0L66.6,24.3L66.8,24.5L66.5,25.1L66.6,25.4L67.3,25.5L68.2,24.0L68.0,23.4L68.2,23.2L68.5,23.2L69.7,23.9L70.5,24.1L72.1,24.0L72.4,24.2L73.5,24.2L73.9,24.5L73.8,24.8L73.5,24.9L73.6,25.3L74.2,25.3L74.3,24.9L75.0,24.1L75.1,23.2L75.8,23.4L76.3,23.8L77.0,23.9L77.5,24.5L77.6,24.8L78.2,24.8Z M52.2,23.4L52.4,23.7L52.1,23.7Z M58.8,23.6L59.0,23.4L59.3,23.4L59.5,23.6L59.3,23.8Z M72.5,23.3L73.0,23.2L73.2,23.3L73.2,23.5L72.6,23.6L72.5,23.5Z M59.6,22.2L59.9,21.9L60.6,22.0L60.6,22.5L60.5,22.7L59.8,22.7L59.6,22.5Z M52.8,22.1L53.0,21.9L53.6,21.9L53.8,22.1L53.7,22.6L53.0,22.7L52.8,22.5Z M73.3,22.0L73.6,21.7L74.1,21.7L74.4,22.0L74.4,22.3L74.2,22.5L73.4,22.5Z M67.5,22.2L67.4,22.6L66.8,22.6L66.6,22.5L66.5,22.1L66.7,21.9L67.2,21.8Z M116.7,18.8L116.7,19.0L117.1,19.2L118.1,19.2L118.3,19.0L118.3,18.8Z M109.9,18.8L110.0,19.1L110.3,19.3L111.0,19.5L111.8,19.4L112.3,19.0L112.3,18.8Z M103.0,18.8L103.1,19.1L104.0,19.6L104.8,19.6L105.6,19.0L105.6,18.8Z M96.1,18.8L96.2,19.1L97.3,19.7L98.0,19.6L98.9,19.0L98.9,18.8Z M89.3,18.8L89.3,19.0L89.5,19.3L90.3,19.7L91.2,19.7L91.8,19.1L92.1,19.0L92.1,18.8Z M82.3,18.8L82.5,19.2L83.4,19.8L84.6,19.7L85.3,19.0L85.3,18.8Z M78.3,18.8L77.9,18.8L77.9,19.2L78.1,19.2Z M73.3,19.0L74.6,19.3L75.7,19.3L76.4,19.1L76.5,18.8L73.3,18.8Z M66.3,19.0L67.2,19.3L69.1,19.3L69.6,19.1L69.7,18.8L66.3,18.8Z M59.3,18.8L59.3,19.0L59.6,19.2L60.6,19.4L62.4,19.3L62.8,19.0L62.8,18.8Z M54.6,18.8L54.8,19.2L55.6,19.8L57.0,19.7L56.6,18.8Z M47.8,18.8L47.8,19.0L48.4,19.6L49.6,20.1L50.4,20.0L51.3,19.0L51.3,18.8L50.5,18.8L50.4,19.1L49.8,19.0L49.8,18.8Z M40.8,18.8L40.8,19.0L41.6,19.8L42.6,20.2L43.4,20.0L44.6,19.0L44.6,18.8L43.8,18.8L43.7,19.1L43.0,19.2L42.5,19.0L42.5,18.8Z M33.7,18.8L33.7,19.0L34.4,19.7L35.6,20.3L36.4,20.3L36.8,20.1L38.0,19.0L38.0,18.8L37.1,18.8L36.9,19.2L36.2,19.3L35.3,19.0L35.3,18.8Z M26.8,18.8L26.8,19.0L27.4,19.7L27.9,19.9L28.3,20.2L28.8,20.4L29.5,20.4L29.9,20.2L31.1,19.1L31.1,18.8L30.3,18.8L30.2,19.2L29.9,19.4L29.0,19.4L28.2,19.0L28.2,18.8Z M19.9,18.8L19.9,19.0L20.9,20.0L21.9,20.5L22.6,20.5L23.1,20.3L24.3,19.0L24.3,18.8L23.5,18.8L23.5,19.0L23.1,19.5L22.2,19.5L21.3,19.1L21.2,18.8Z M12.9,18.8L12.9,19.0L14.0,20.1L15.3,20.7L15.9,20.6L17.5,19.0L17.5,18.8L16.8,18.8L16.8,19.1L16.2,19.6L15.3,19.6L14.2,19.1L14.1,18.8Z M10.7,18.8L10.1,18.8L10.0,19.4L9.5,20.0L9.9,20.0L10.7,19.0Z" fill="#000" fill-rule="evenodd"/>
</svg>