<svg xmlns="http://www.w3.org/2000/svg" viewBox="0 0 128 128" width="128" height="128">
  <path d="M34.7,118.1L34.9,118.3L35.3,118.0L35.2,117.9Z M41.7,117.1L41.8,117.5L42.9,117.9L45.9,118.7L46.0,118.4L45.7,118.2L44.8,118.1L44.4,117.9L43.8,117.8L42.9,117.3Z M30.0,117.1L30.2,117.7L30.6,117.9L30.9,117.8L30.8,117.4Z M28.8,116.5L28.8,116.7L29.1,116.6Z M113.0,116.1L112.6,116.2L111.4,117.6L111.4,117.9L112.0,117.9L112.6,117.1L113.1,116.4Z M30.9,115.7L31.1,116.1L32.2,116.7L32.6,117.0L33.7,117.5L34.0,117.8L34.5,117.8L34.5,117.6L34.1,117.5L33.5,116.8L33.0,116.8L31.3,115.7Z M27.7,113.4L27.7,113.6L28.3,114.0L28.6,114.0L28.5,113.7Z M113.1,113.2L112.7,113.3L110.0,116.5L108.8,117.8L109.0,118.1L109.2,118.1L110.9,116.4L111.1,115.8L112.3,114.6L113.1,113.4Z M28.4,111.7L28.4,111.9L29.0,112.5L30.3,113.6L30.7,113.6L32.5,114.9L33.1,115.2L34.1,115.9L35.7,116.8L36.6,117.0L37.0,117.4L37.4,117.5L37.8,117.8L39.6,118.5L40.1,118.5L40.0,118.1L38.7,117.5L38.3,117.4L36.7,116.5L35.2,115.9L34.5,115.4L33.8,115.1L33.1,114.6L31.9,114.0L30.9,113.2L29.5,112.2L28.8,111.9L28.6,111.6Z M113.2,110.0L112.7,110.2L111.9,111.5L110.6,112.8L109.8,114.1L108.3,115.8L107.4,116.6L106.4,117.9L106.4,118.1L106.8,118.1L107.3,117.8L111.9,112.5L112.0,112.2L112.9,111.1L113.2,110.4Z M27.4,108.6L27.4,108.9L29.4,110.6L32.6,112.9L33.5,113.3L34.3,114.0L36.3,115.0L36.8,115.4L39.9,116.8L40.5,116.6L40.5,116.4L36.6,114.5L35.8,114.2L34.9,113.7L34.3,113.3L33.8,113.1L33.2,112.5L32.7,112.4L32.2,111.9L31.3,111.5L30.7,110.8L30.3,110.7L29.6,110.1L28.8,109.7L27.7,108.7Z M113.2,106.9L113.0,106.9L112.6,107.2L112.0,108.3L110.9,109.6L110.1,110.9L108.7,112.5L107.9,113.6L107.1,114.3L106.6,115.1L104.5,117.2L104.1,117.8L104.1,118.0L104.6,117.9L105.7,116.9L109.6,112.5L112.2,109.0L113.3,107.2Z M113.3,103.5L113.1,103.5L112.7,103.9L111.9,105.2L111.5,105.6L111.3,106.1L110.9,106.5L110.8,106.9L109.7,108.3L109.3,109.0L106.9,112.0L101.7,117.6L101.5,118.0L102.2,117.9L103.4,116.8L106.0,114.1L107.9,111.8L109.1,110.1L109.9,109.3L111.9,106.4L112.0,106.0L112.4,105.5L112.5,105.1L113.3,104.0Z M113.2,99.8L112.6,100.4L111.4,102.8L110.3,104.1L110.0,104.8L109.1,106.0L108.2,107.5L106.3,109.8L105.1,111.5L98.8,117.9L98.8,118.2L99.2,118.2L99.6,117.9L102.5,115.2L103.4,114.2L104.5,113.1L107.6,109.5L107.9,108.8L110.0,106.1L110.9,104.8L111.6,103.2L112.8,101.6L113.4,100.3L113.4,100.0Z M27.3,98.7L27.6,99.1L27.6,98.8Z M113.3,95.8L113.1,95.8L112.6,96.5L110.9,100.2L109.9,101.5L109.9,101.9L108.6,103.7L108.4,104.1L107.2,105.7L107.0,106.2L105.7,107.7L105.6,108.2L103.5,110.5L103.3,110.9L101.3,112.8L101.2,113.2L97.6,116.6L96.0,117.9L96.1,118.2L96.6,118.1L97.8,117.2L103.1,112.1L103.3,111.7L104.5,110.4L106.9,107.2L107.9,106.1L108.7,104.8L109.7,103.5L109.9,102.8L110.5,102.0L111.5,100.0L112.3,98.9L113.1,96.6L113.4,96.3Z M68.3,93.7L68.8,93.6L69.0,93.4L68.3,93.5Z M70.7,92.5L70.4,92.5L69.7,93.1L70.3,93.0Z M74.8,92.1L74.5,92.1L73.8,92.3L73.2,92.9L70.5,94.3L69.7,94.9L68.3,95.4L68.0,95.7L69.2,95.6L69.5,95.2L69.9,95.2L70.5,94.8L71.0,94.8L71.6,94.4L72.1,94.3L74.4,92.8L74.8,92.3Z M68.0,91.9L67.4,91.9L67.1,92.2L66.5,92.3L66.3,92.5L66.8,92.5L67.0,92.3L67.6,92.3L68.0,92.1Z M113.3,90.9L113.1,91.1L112.7,91.8L112.5,92.6L111.7,94.2L110.9,96.4L109.7,98.3L108.8,100.1L108.2,101.1L107.9,101.3L107.3,102.6L106.8,103.0L106.7,103.4L105.3,105.5L102.4,109.2L101.3,110.3L100.6,111.3L97.4,114.4L93.7,117.4L93.1,117.9L93.1,118.2L93.5,118.2L97.3,115.3L102.4,110.3L102.8,109.5L105.8,106.0L106.6,104.7L107.0,104.2L108.5,101.9L109.5,100.0L110.4,98.8L110.4,98.6L111.0,97.4L111.0,97.1L111.4,96.5L111.5,96.1L112.3,94.6L112.5,93.7L112.8,93.3L112.8,92.9L113.4,91.6Z M76.1,91.1L76.5,91.0L76.8,90.5Z M58.5,90.0L58.6,90.2L58.9,90.3L59.7,90.2L59.4,89.9Z M77.9,89.4L77.7,89.4L77.1,90.0L77.0,90.2L77.4,90.2L77.8,89.9Z M113.5,84.8L113.1,84.8L112.8,85.9L112.7,86.7L112.0,88.5L112.0,89.1L111.7,89.3L110.9,91.8L110.0,93.5L109.6,94.9L108.8,96.5L108.4,97.0L108.3,97.5L106.5,100.5L106.2,101.2L105.1,102.6L104.2,104.1L101.8,107.2L98.0,111.5L94.9,114.3L92.6,115.9L91.1,117.2L90.7,117.3L89.8,118.0L89.8,118.4L90.7,118.1L91.4,117.5L91.6,117.5L92.8,116.7L97.1,113.1L99.2,111.0L103.3,106.4L105.5,103.4L107.1,100.9L107.6,99.9L109.2,97.3L110.1,95.2L110.2,94.6L110.7,93.9L110.9,93.3L111.1,93.0L111.2,92.4L112.1,90.4L112.5,89.0L112.8,88.5L113.1,87.1L113.5,86.0Z M108.7,82.0L108.2,82.7L107.9,83.6L107.8,84.5L107.6,84.8L107.3,86.2L106.6,88.0L106.3,89.1L106.0,89.5L105.7,90.5L105.4,91.1L104.5,93.2L104.0,94.3L103.7,94.5L103.0,96.2L101.5,98.5L101.2,99.4L97.7,103.9L97.5,104.3L95.6,106.4L95.2,106.6L91.1,110.4L88.6,112.2L88.1,112.7L86.4,113.9L84.6,114.8L83.8,115.5L83.1,115.7L82.8,116.0L82.2,116.2L80.7,117.1L80.1,117.2L78.7,118.1L78.0,118.2L77.9,118.4L77.9,118.7L78.6,118.6L79.1,118.2L81.0,117.6L84.0,116.1L87.9,113.6L89.0,112.7L89.6,112.5L90.8,111.4L92.0,110.5L93.6,109.0L93.9,108.9L95.8,107.0L98.7,103.6L100.1,101.9L101.3,100.0L101.4,99.5L102.1,98.8L104.0,95.7L105.3,92.9L105.8,92.1L106.9,89.2L107.9,86.1L108.1,85.1L108.4,84.6L108.4,84.2L108.8,83.2Z M85.8,80.1L85.4,80.3L84.7,81.5L84.1,83.2L83.0,84.8L82.5,85.9L82.0,86.4L81.7,87.0L81.1,87.6L80.4,88.8L77.6,91.6L74.3,94.2L72.7,95.2L71.4,95.8L71.0,96.2L70.5,96.3L69.1,97.0L68.8,97.3L67.2,97.5L66.7,97.9L66.1,98.0L66.1,98.2L66.7,98.3L67.4,97.8L68.2,97.8L68.9,97.6L69.0,97.4L69.5,97.3L72.4,96.2L72.6,95.9L73.9,95.4L76.6,93.6L78.9,91.6L80.5,89.9L82.9,86.8L83.1,86.2L83.7,85.5L83.9,84.9L84.3,84.7L84.4,83.9L84.8,83.5L85.3,82.5L85.8,80.6Z M19.2,79.1L19.2,79.9L19.6,80.1L19.4,79.3Z M20.8,77.8L20.7,78.9L21.3,80.5L21.4,80.5L21.2,78.7L20.9,78.5Z M102.5,77.7L102.0,78.8L101.3,82.5L100.3,84.8L100.3,85.5L98.3,90.1L98.0,90.6L97.1,92.6L96.4,93.5L96.0,94.4L94.0,97.1L94.0,97.3L91.4,100.6L89.1,102.9L88.3,103.5L86.4,105.2L85.8,105.5L85.1,106.2L84.6,106.4L81.9,108.4L78.9,110.0L77.5,110.5L76.8,111.0L75.7,111.5L73.9,112.1L73.3,112.5L72.5,112.5L69.8,113.5L69.0,113.6L67.4,114.0L64.1,114.6L62.5,114.6L61.3,114.7L55.8,114.7L54.9,114.5L53.9,114.5L50.1,113.8L49.1,113.5L47.7,113.3L46.9,112.9L44.9,112.5L44.4,112.1L43.7,112.0L43.4,111.7L42.4,111.5L41.8,111.1L41.3,111.0L40.7,110.6L40.0,110.4L35.3,107.7L32.3,105.5L31.3,104.6L28.8,102.9L28.9,103.3L29.8,104.0L31.1,105.4L33.6,107.3L34.1,107.5L35.1,108.3L35.8,108.6L38.5,110.4L40.9,111.5L41.4,111.5L41.9,111.9L42.7,112.1L43.2,112.5L49.8,114.5L55.7,115.3L59.2,115.4L60.8,115.2L63.9,115.2L68.9,114.4L73.7,113.0L76.0,112.0L76.8,111.8L79.4,110.5L80.6,109.7L82.0,109.1L83.9,107.7L85.2,107.0L85.4,106.6L86.6,105.9L91.2,101.6L93.2,99.3L96.2,95.2L96.5,94.5L97.1,93.9L98.1,91.6L98.7,91.0L98.8,90.4L99.5,89.1L100.1,87.8L100.3,86.9L101.1,85.1L101.7,82.3L102.0,81.8L102.3,80.0L102.5,79.4Z M99.2,76.6L99.0,76.8L99.0,77.2L98.7,77.7L98.4,78.8L98.3,80.4L98.0,81.1L97.9,82.0L97.5,82.7L97.4,83.2L96.4,85.6L96.3,86.3L95.4,87.8L94.9,89.1L93.9,91.0L93.0,92.2L91.5,94.8L88.2,98.7L84.4,102.2L81.6,104.3L81.1,104.5L80.0,105.3L79.7,105.4L79.3,105.8L75.1,107.8L73.6,108.2L70.4,109.4L68.1,109.9L67.1,110.4L66.1,110.4L64.1,110.8L62.2,111.0L54.4,110.9L53.8,110.7L52.8,110.7L51.6,110.4L50.2,110.2L48.3,109.5L45.6,108.9L43.8,108.0L42.1,107.4L41.6,107.1L39.9,106.3L39.5,106.0L39.0,105.8L37.0,104.4L36.6,104.3L34.4,102.7L33.5,102.3L33.2,102.0L33.2,101.9L31.6,100.2L31.2,100.0L29.6,98.5L29.4,98.1L28.3,97.0L26.9,95.1L26.5,95.0L26.5,95.3L27.6,96.7L29.7,98.8L29.7,99.0L32.0,101.4L33.0,102.1L33.1,102.1L34.1,103.2L35.3,104.2L38.4,106.2L40.1,107.0L40.7,107.4L41.2,107.5L41.6,107.9L42.3,108.1L42.9,108.5L43.2,108.5L45.5,109.5L46.9,109.9L48.3,110.5L50.5,111.1L56.6,111.9L62.5,111.9L64.1,111.6L65.1,111.6L66.0,111.4L67.1,111.4L67.4,111.2L69.0,110.9L71.9,110.1L74.4,108.9L75.4,108.6L77.9,107.4L79.0,106.6L80.0,106.2L83.2,104.0L86.4,101.4L89.6,98.1L90.8,96.7L91.1,96.2L91.7,95.6L93.6,93.0L94.2,91.6L94.9,90.8L95.1,89.9L96.0,88.5L96.6,86.9L96.6,86.6L97.2,85.5L97.3,84.8L98.0,83.2L98.0,82.3L98.2,81.3L98.5,80.9L98.8,78.7L99.0,78.4L99.0,78.0L99.2,77.3Z M72.4,75.7L72.2,75.7L71.8,76.1L71.0,78.1L71.4,78.0L71.6,77.4L72.1,77.0Z M22.3,75.3L22.0,75.4L22.3,76.8L22.3,78.1L22.7,79.9L23.1,80.5L23.3,80.5L23.3,79.7L22.4,76.8Z M18.5,75.1L18.5,76.5L18.7,76.9L18.7,77.5L19.0,77.8L18.7,75.1Z M113.3,74.5L113.1,74.6L112.9,76.5L112.7,77.0L112.6,79.8L112.4,80.2L112.4,80.6L112.1,81.1L111.9,82.7L111.7,83.0L111.7,83.7L110.6,86.9L110.5,87.7L108.3,93.4L107.9,94.0L107.9,94.3L105.2,99.5L104.3,100.7L103.5,101.9L100.4,106.1L98.4,108.2L97.8,109.1L93.5,113.0L89.6,116.1L88.5,116.7L87.9,117.2L86.9,117.8L86.6,118.0L86.6,118.2L87.4,118.1L88.4,117.4L89.2,117.0L89.4,116.8L91.6,115.4L95.2,112.5L99.8,107.8L100.8,106.3L102.0,105.1L102.4,104.5L103.4,103.4L103.5,102.9L104.8,101.1L105.0,100.6L105.8,99.6L108.2,95.2L108.4,94.4L109.1,93.3L109.9,91.2L110.3,90.4L110.5,89.4L111.4,87.0L111.5,86.4L111.7,86.2L111.9,84.9L112.2,83.9L112.2,83.3L112.5,82.6L112.7,80.1L113.2,78.5L113.2,77.6L113.4,77.3L113.4,76.2L113.6,75.4Z M88.9,74.3L88.7,74.3L88.5,74.6L87.8,77.8L86.9,80.7L86.1,82.4L85.9,83.1L83.7,87.1L82.3,89.1L80.7,91.0L78.4,93.2L76.4,94.8L71.7,97.7L71.1,97.9L70.7,98.2L69.6,98.5L69.3,98.7L68.7,98.8L67.9,99.3L65.6,99.9L64.7,100.0L64.4,100.4L65.8,100.4L68.0,99.8L68.4,99.6L69.3,99.5L72.1,98.4L74.2,97.4L75.6,96.5L76.4,96.1L79.3,93.7L81.5,91.5L82.8,90.1L84.3,88.0L84.9,86.9L85.8,85.6L87.1,83.0L87.2,82.5L87.9,80.8L88.1,79.6L88.5,78.7L88.8,77.0Z M76.5,74.3L76.3,74.3L75.8,74.9L75.5,76.2L74.4,78.7L74.1,79.8L74.4,79.8L74.7,79.5L76.0,77.0L76.6,75.0Z M74.7,74.3L74.4,74.3L74.2,74.6L73.8,75.9L73.4,76.6L72.2,79.5L72.5,79.5L74.2,76.7L74.8,74.8L74.8,74.5Z M101.3,74.1L100.9,75.0L100.7,77.0L100.3,78.5L99.9,81.1L99.5,81.8L99.4,82.7L99.2,82.9L99.0,84.1L98.7,84.5L98.5,85.2L98.0,86.3L97.6,87.6L95.0,92.6L93.9,94.2L93.7,94.6L93.3,95.0L93.3,95.3L92.3,96.5L92.0,97.0L88.6,100.9L86.3,102.9L85.8,103.4L85.2,103.8L82.4,106.0L78.7,108.2L76.0,109.4L74.7,110.0L74.0,110.1L73.7,110.4L69.6,111.6L68.8,111.6L67.9,111.9L66.6,112.0L64.1,112.5L59.5,112.8L56.1,112.6L55.1,112.7L52.7,112.4L52.3,112.2L51.4,112.2L46.0,110.9L44.4,110.4L43.7,109.9L41.9,109.2L41.4,109.1L36.2,106.1L33.3,104.0L33.0,104.0L32.7,103.6L30.7,101.9L30.1,101.8L30.4,102.2L31.4,103.2L33.4,105.0L33.6,105.0L34.1,105.4L35.2,106.1L36.1,106.9L38.4,108.3L43.8,110.8L45.3,111.2L45.9,111.5L47.5,111.9L48.8,112.5L50.1,112.6L50.7,112.9L55.3,113.6L63.5,113.6L65.1,113.2L66.5,113.1L67.8,112.7L68.9,112.6L71.7,111.8L73.3,111.2L73.9,111.1L74.5,110.7L76.8,109.8L78.7,108.9L79.1,108.5L79.4,108.5L84.0,105.7L85.5,104.5L86.4,103.6L87.6,102.7L91.1,99.1L92.4,97.4L92.9,96.9L96.0,92.3L97.4,89.5L97.5,89.1L98.0,88.3L99.0,85.9L99.6,83.3L100.0,82.7L100.1,81.7L100.9,78.7L101.1,75.8L101.3,75.4Z M104.6,73.8L104.3,76.5L103.5,79.4L103.5,81.1L103.1,81.8L102.9,83.2L102.4,84.6L101.9,85.7L101.7,86.7L101.5,86.9L101.5,87.2L101.2,87.9L100.7,89.3L98.1,94.3L95.9,97.7L95.2,98.4L94.4,99.7L93.9,100.3L93.5,101.2L93.1,101.3L92.8,101.8L92.5,101.9L89.1,105.3L86.6,107.2L85.2,108.4L83.2,109.5L82.7,110.0L80.8,111.0L80.2,111.5L79.7,111.5L76.0,113.4L74.8,113.6L72.6,114.6L72.3,114.6L69.9,115.3L63.4,116.5L60.3,116.7L56.9,116.7L51.3,115.9L45.1,114.5L44.9,114.3L43.8,114.0L43.0,113.6L42.5,113.5L41.9,113.1L41.1,112.9L40.8,112.6L37.5,111.2L36.8,110.6L35.4,110.0L34.9,109.4L33.1,108.3L30.1,106.1L29.9,106.1L28.8,105.1L28.6,105.1L28.9,105.7L31.8,108.2L35.0,110.4L35.7,110.6L36.1,111.0L36.4,111.1L37.4,111.8L38.3,112.1L42.4,114.1L43.0,114.1L43.8,114.6L44.7,114.7L45.5,115.1L46.4,115.3L46.7,115.5L48.2,115.7L49.5,116.2L50.1,116.2L50.9,116.5L54.4,117.0L57.4,117.0L58.3,117.2L61.1,117.2L62.1,117.0L64.5,116.9L65.2,116.8L66.8,116.7L67.2,116.5L67.7,116.5L69.8,116.0L70.8,115.7L71.6,115.6L73.3,114.9L75.0,114.5L76.8,113.6L77.6,113.5L82.1,111.1L82.5,110.7L84.5,109.6L88.4,106.7L92.6,102.8L93.7,101.1L93.9,101.0L96.7,97.6L97.6,96.3L97.7,95.9L98.2,95.3L98.7,94.2L99.2,93.5L99.3,93.1L100.0,92.3L100.1,91.8L100.8,90.5L100.9,90.0L101.5,88.8L102.3,86.6L102.6,86.0L103.4,82.9L103.6,82.5L103.7,81.4L104.1,80.4L104.4,79.0L104.6,76.7Z M103.0,73.8L102.8,73.9L102.5,75.0L102.5,76.4L102.7,76.3L103.0,75.6Z M78.6,71.6L78.3,71.7L78.2,72.0L78.1,73.7L77.4,75.3L77.4,76.2L77.1,76.6L76.8,78.0L76.5,78.5L76.6,78.9L76.8,78.8L76.9,78.4L77.4,77.8L77.4,77.5L77.8,77.0L78.3,75.3L78.3,73.6L78.6,73.1L78.7,72.5Z M16.7,71.5L16.5,71.6L16.4,72.4L16.7,73.1Z M101.3,70.6L101.3,70.8L101.4,70.8L101.4,70.6Z M20.0,69.7L19.7,71.2L20.0,72.5L20.0,75.2L20.2,75.6L20.3,76.7L20.5,77.1L20.7,77.1L20.7,75.7L20.4,74.9L20.4,73.6L20.3,73.0L20.3,70.2Z M106.6,69.4L106.4,73.4L106.1,74.0L105.9,77.1L105.6,78.3L105.5,79.6L105.0,81.0L104.9,82.1L104.4,84.3L104.0,84.8L103.8,85.9L103.5,86.4L103.2,87.8L102.3,90.0L102.0,90.3L101.9,91.0L101.3,91.9L101.2,92.3L100.8,92.7L100.7,93.2L100.0,94.2L99.4,95.5L99.2,95.7L98.3,97.3L98.0,97.6L96.9,99.4L96.4,99.8L96.4,100.0L94.2,102.8L93.9,102.9L90.7,106.1L89.2,107.5L84.3,111.1L80.0,113.5L79.4,113.6L78.9,114.0L78.4,114.1L77.9,114.5L77.6,114.5L75.4,115.5L75.1,115.5L73.4,116.2L71.6,116.6L70.4,117.0L68.7,117.2L67.9,117.6L66.9,117.7L66.5,117.9L62.8,118.3L60.3,118.4L54.7,118.3L53.3,118.0L52.3,118.0L49.5,117.3L47.1,116.9L46.7,116.7L42.7,115.5L42.0,115.0L40.5,114.6L38.9,113.8L35.9,112.3L34.4,111.4L33.4,110.5L32.0,109.8L31.2,109.1L29.5,108.0L27.7,106.2L27.3,106.1L27.3,106.5L27.8,107.2L32.0,110.5L33.8,111.5L34.2,111.9L36.3,112.9L36.9,113.5L37.5,113.6L38.1,114.0L39.1,114.4L40.0,114.9L40.3,114.9L40.9,115.4L41.8,115.6L42.4,115.9L43.4,116.1L44.1,116.5L45.1,116.7L45.6,116.9L46.9,117.2L47.2,117.4L49.0,117.7L50.1,118.0L51.2,118.0L53.9,118.6L57.2,118.9L61.8,118.9L63.5,118.6L65.8,118.5L66.9,118.2L68.3,118.1L69.3,117.8L70.2,117.8L71.6,117.4L73.0,116.8L74.1,116.7L75.1,116.2L75.9,116.0L76.6,115.7L78.2,115.1L79.1,114.6L79.6,114.5L81.6,113.5L83.2,112.4L83.5,112.3L86.2,110.6L87.3,109.6L88.1,109.1L88.5,109.0L89.4,108.3L90.3,107.2L91.1,106.7L94.6,103.1L96.1,101.1L96.2,100.8L97.7,99.3L99.2,96.9L99.3,96.5L99.9,95.9L100.3,95.1L100.9,94.3L101.8,92.4L102.1,91.4L102.5,90.9L103.2,88.9L103.8,87.7L105.6,81.7L105.7,80.2L106.1,79.4L106.3,76.7L106.7,74.7Z M25.4,69.4L25.2,70.3L25.0,70.6L25.2,72.5L25.1,73.9L25.6,76.8L26.1,78.5L26.3,79.9L26.7,80.6L26.7,81.6L27.2,82.2L27.6,83.5L28.4,85.2L28.7,85.5L28.8,86.2L29.3,87.1L30.1,88.3L30.2,88.7L30.8,89.3L30.9,89.7L32.4,91.8L34.4,94.1L36.6,96.3L39.0,98.2L42.0,100.2L45.2,101.9L45.9,102.0L46.6,102.4L47.2,102.5L49.3,103.2L51.2,103.5L51.3,103.7L52.1,103.6L51.3,103.4L51.1,103.1L49.7,102.8L47.6,101.8L46.0,101.2L41.0,98.6L37.7,96.1L34.7,93.3L33.1,91.5L31.8,89.5L30.9,88.6L29.6,85.9L28.8,84.9L28.7,84.4L27.9,82.9L27.4,80.9L27.0,80.3L26.4,77.3L26.0,76.4L26.0,75.6L25.6,73.0Z M90.9,69.3L90.7,69.3L90.5,70.7L90.5,72.9L90.3,73.3L89.9,75.9L88.7,80.6L88.4,81.3L87.4,84.0L87.0,84.5L86.4,86.0L85.2,87.8L84.7,88.7L83.2,90.5L83.0,91.0L79.2,94.7L78.0,95.7L75.7,97.4L74.7,97.8L74.4,98.2L72.2,99.4L69.4,100.3L67.6,101.2L66.4,101.4L65.2,101.9L63.4,102.1L63.5,102.4L65.5,102.3L66.7,101.9L67.4,101.9L68.1,101.7L70.1,101.2L74.6,99.2L75.7,98.5L76.2,98.3L76.8,97.7L79.0,96.4L80.8,94.9L83.0,92.6L85.9,88.9L86.2,88.2L87.5,86.3L87.9,85.1L88.6,83.8L89.6,80.8L89.9,80.4L90.2,78.8L90.7,77.1L90.7,76.2L91.0,74.7L91.1,70.6Z M18.2,68.7L18.1,71.4L18.2,72.4L18.4,72.4L18.4,70.5Z M80.2,68.1L80.0,68.1L79.9,68.7L79.9,71.4L79.3,75.0L79.4,76.1L79.8,76.0L80.3,74.4L80.7,71.8L80.7,70.1Z M101.3,67.7L101.0,67.7L101.0,68.1L101.2,68.6L101.3,70.3L101.4,70.3L101.5,68.9Z M21.8,67.3L21.5,68.0L21.4,69.4L21.5,70.9L21.8,71.4Z M102.8,66.9L102.8,68.7L103.1,69.2L103.1,67.6Z M99.4,66.6L99.3,67.8L99.5,71.1Z M92.4,65.9L92.2,66.1L92.0,66.9L92.1,71.8L91.9,74.2L91.7,74.7L91.7,76.0L91.2,77.6L91.1,78.7L90.6,80.2L90.5,81.2L89.8,83.0L89.5,83.7L89.5,83.9L88.6,85.4L88.5,85.9L87.6,87.7L86.6,89.0L86.0,90.1L84.9,91.5L80.4,96.0L79.1,96.9L78.9,97.3L76.8,98.7L73.8,100.5L71.1,101.8L68.7,102.5L68.3,102.8L64.5,103.7L61.4,104.1L61.4,104.4L65.2,104.2L67.4,103.8L68.0,103.5L69.2,103.3L73.6,101.7L75.1,100.9L75.7,100.5L77.3,99.7L80.8,97.2L83.0,95.1L86.0,91.5L86.2,91.1L87.8,88.9L89.1,86.3L89.5,85.9L90.4,83.8L90.5,83.3L90.7,83.1L90.8,82.3L91.6,80.5L92.7,75.7L93.0,72.6L92.9,68.6Z M16.7,65.8L16.4,66.7L16.5,68.6L16.7,68.8Z M81.4,65.1L81.1,65.2L81.1,66.3L81.4,67.0L81.3,68.2L81.5,69.9L81.3,74.1L81.4,74.4L81.8,74.5L82.1,73.7L82.5,72.0L82.5,69.9L82.3,67.7L81.7,65.5Z M102.4,64.4L102.6,64.4L102.5,63.6Z M18.8,63.4L18.6,63.4L18.5,63.5L18.5,64.7L18.2,65.3L18.2,66.1L18.7,65.6Z M99.0,63.3L98.8,63.4L98.8,64.3L99.0,65.4L99.2,65.7L99.2,64.5Z M17.1,63.1L17.0,63.1L17.0,64.0Z M109.6,62.9L109.3,62.9L109.2,63.1L109.2,63.9L109.4,64.4L109.8,71.2L109.7,73.4L109.5,74.2L109.5,76.0L109.3,76.5L109.1,78.6L108.8,80.2L108.9,81.0L109.1,80.9L109.9,77.3L109.8,76.0L110.1,74.4L110.2,68.6Z M93.4,62.5L93.2,63.9L93.5,65.1L93.7,67.1L93.8,71.1L93.7,74.7L93.5,76.5L93.1,77.9L93.1,78.6L92.1,82.2L91.5,83.5L90.7,85.7L89.9,87.1L89.6,87.4L88.9,89.1L87.8,90.5L87.5,91.2L84.5,94.8L82.4,96.8L79.6,98.8L78.3,99.9L76.2,101.0L75.3,101.7L74.6,101.9L74.3,102.2L70.4,103.9L69.0,104.3L68.2,104.4L67.3,104.8L62.4,105.8L58.7,106.1L58.2,106.2L59.5,106.4L62.6,106.4L65.6,106.1L67.2,105.6L67.8,105.6L69.4,105.1L69.9,105.1L71.8,104.4L73.6,103.5L74.4,103.3L76.2,102.4L77.1,101.8L78.2,101.3L80.0,100.0L80.7,99.3L82.0,98.4L85.1,95.3L87.2,92.9L90.4,87.9L90.5,87.4L90.8,86.9L91.0,86.3L91.9,84.6L92.6,82.4L93.4,80.3L93.6,78.8L93.9,77.9L94.1,76.1L94.5,74.3L94.8,70.8L94.7,66.7L94.3,65.6L94.0,63.7Z M17.2,62.2L17.1,62.2L17.1,62.4L17.2,62.4Z M83.2,60.4L83.2,61.0L83.4,61.3L84.3,65.1L84.1,66.5L83.6,65.6L83.4,64.5L82.8,63.0L82.4,62.9L82.2,63.1L82.2,63.5L82.5,64.2L82.5,64.9L83.0,66.8L83.1,70.8L83.2,71.2L83.5,71.7L83.9,71.6L84.1,71.1L84.3,68.7L84.7,68.5L85.2,68.8L85.5,68.8L85.8,66.5L85.6,65.9L85.6,65.2L85.3,64.5L85.2,64.4L85.1,63.5L84.0,60.8L83.7,60.5Z M107.2,60.3L107.0,60.3L107.0,61.1L107.3,62.7L107.6,63.5L107.6,64.4L107.8,64.8L107.8,66.7L108.0,67.1L108.0,70.6L107.8,72.2L107.7,75.7L107.4,78.6L107.1,79.6L107.1,80.5L106.7,81.8L106.4,83.4L105.9,84.4L105.9,84.9L105.6,85.5L105.6,85.9L105.1,86.9L104.7,88.5L104.5,89.0L104.4,89.6L104.1,89.9L103.5,91.3L102.8,92.5L102.0,94.4L101.5,95.0L101.1,96.3L100.6,96.7L99.7,98.4L99.2,98.8L98.6,99.9L98.0,100.6L97.4,101.6L94.4,104.9L94.3,105.1L92.1,107.2L89.3,109.6L87.8,110.6L87.4,111.2L85.9,112.0L83.8,113.5L83.4,113.6L83.0,113.9L82.2,114.1L80.5,115.2L79.5,115.6L78.8,116.0L78.1,116.1L76.6,116.9L75.3,117.3L74.8,117.6L74.2,117.7L73.0,118.2L72.1,118.3L71.4,118.7L71.4,118.9L72.0,118.9L74.1,118.2L75.3,118.0L75.7,117.8L77.9,117.1L80.0,116.1L80.4,116.0L81.1,115.6L83.5,114.4L84.6,113.6L87.1,112.1L87.8,111.5L88.5,111.1L93.3,107.0L94.4,105.9L94.6,105.5L95.7,104.5L98.2,101.4L99.3,99.7L100.5,98.2L101.1,97.0L102.8,94.2L104.5,90.6L105.5,87.9L105.8,87.3L106.3,85.5L106.6,85.0L106.8,84.0L106.8,83.4L107.1,83.0L107.4,80.7L107.7,80.5L107.7,79.7L108.1,77.3L108.1,76.1L108.5,73.6L108.6,70.5L108.3,70.0L108.1,65.1L107.9,64.9L107.8,62.5L107.7,61.3Z M19.2,60.2L18.9,61.2L19.0,62.2L19.2,62.1L19.4,61.0L19.4,60.4Z M95.0,60.5L94.4,59.7L94.4,61.3L95.0,64.5L95.3,68.6L95.5,68.9L95.6,70.0L95.8,70.5L95.6,72.6L95.6,75.7L95.4,76.0L95.3,77.1L94.4,80.3L94.3,81.2L93.9,82.2L93.8,82.9L93.4,83.5L93.0,84.8L91.7,87.2L91.6,87.9L88.6,92.6L86.2,95.6L83.5,98.3L81.5,99.9L77.9,102.2L77.1,102.6L75.7,103.5L73.0,104.6L72.3,105.1L70.4,105.6L70.0,105.9L68.9,106.1L66.1,106.9L65.4,106.9L63.4,107.3L60.9,107.6L57.8,107.7L55.9,107.6L55.5,107.4L54.2,107.4L53.3,107.2L51.2,106.9L50.1,106.4L49.0,106.2L47.6,105.6L45.1,104.8L41.1,102.9L39.8,101.9L39.1,101.7L37.7,100.6L37.2,100.3L34.8,98.4L32.2,95.9L30.2,93.6L29.2,92.2L28.2,91.2L27.7,90.0L27.1,89.3L26.8,88.6L26.4,88.6L26.7,89.2L27.1,89.8L27.3,90.3L27.7,90.9L27.8,91.2L28.8,92.5L28.8,92.9L29.9,94.2L30.3,94.8L32.9,97.6L35.4,99.8L38.6,102.2L41.1,103.7L44.7,105.4L47.6,106.5L49.1,107.0L50.4,107.1L51.2,107.4L52.2,107.4L53.3,107.8L54.0,107.8L55.9,108.2L62.5,108.3L63.3,108.1L64.6,108.1L65.9,107.7L68.5,107.2L68.9,107.1L69.9,107.0L72.8,105.8L73.9,105.5L74.1,105.3L75.4,104.9L75.7,104.6L77.9,103.5L83.4,99.4L88.0,94.6L90.6,91.1L90.9,90.2L91.7,89.2L92.6,87.1L92.8,86.9L94.1,83.4L94.4,83.0L94.7,81.5L94.9,81.0L95.0,80.2L95.3,79.5L95.3,78.8L95.5,78.5L95.7,76.1L96.1,74.6L96.1,71.2L96.3,69.7L96.2,65.7L95.9,64.2L95.8,63.1Z M17.8,59.6L17.5,59.7L17.2,60.4L17.4,61.2L17.8,60.4Z M84.2,58.1L84.1,58.6L84.8,60.2L84.9,60.8L85.3,61.9L86.2,66.0L86.7,66.8L87.5,66.8L87.5,66.2L87.2,65.6L86.9,63.0L86.6,62.6L86.6,62.2L86.2,61.4L86.1,60.9L85.1,58.9L84.5,58.2Z M111.8,57.5L111.7,58.2L112.0,59.0L112.2,61.0L112.6,61.4L112.7,63.3L112.9,63.5L112.9,65.6L113.1,67.9L113.1,69.7L113.2,70.3L113.4,70.6L113.2,73.6L113.4,73.6L113.6,72.5L113.6,68.6L113.4,65.3L113.2,63.8L113.0,63.4L112.9,62.0L112.7,61.6L112.7,60.4L112.4,59.9L112.2,58.3L112.0,58.1Z M95.6,57.0L95.3,56.7L95.1,56.8L95.1,57.6L95.6,59.0L95.7,59.8L96.1,61.0L96.3,62.4L96.6,63.2L96.7,64.5L97.3,67.0L97.5,69.9L97.4,75.2L97.2,76.4L97.0,76.9L97.0,77.5L96.7,78.4L96.7,79.1L96.2,80.8L95.9,81.5L95.9,82.0L95.7,82.6L95.4,82.8L95.4,83.2L94.8,84.8L94.7,85.5L91.9,90.8L91.0,92.3L90.3,93.0L89.6,94.4L88.0,96.3L83.7,100.5L83.2,100.8L81.1,102.5L78.9,104.0L77.4,104.7L76.7,104.9L75.7,105.5L75.1,105.6L74.5,106.1L72.7,106.6L71.4,107.2L70.0,107.5L69.4,107.9L68.0,108.2L67.7,108.3L66.1,108.5L65.3,108.8L60.8,109.3L56.8,109.3L56.2,109.2L52.3,108.9L51.7,108.6L47.7,107.6L44.1,106.3L43.7,106.0L43.1,105.9L40.8,104.8L39.6,104.0L38.1,103.1L35.2,100.9L34.4,100.6L30.5,96.7L28.2,93.8L27.7,93.3L27.6,93.0L26.6,92.0L26.7,92.7L27.7,94.4L29.3,96.3L30.9,97.9L35.5,102.2L37.4,103.4L37.8,103.8L40.5,105.3L42.1,106.1L42.4,106.3L43.1,106.5L43.6,106.9L45.1,107.5L45.7,107.6L46.3,108.0L47.1,108.2L47.8,108.5L51.2,109.2L51.9,109.4L53.3,109.5L56.4,110.1L62.8,110.1L64.9,109.7L66.4,109.6L69.6,108.9L73.7,107.5L75.4,106.8L79.0,104.7L82.7,102.2L85.5,99.7L87.6,97.6L89.6,95.5L91.5,92.9L93.4,89.7L94.9,86.8L94.9,86.0L95.5,85.1L96.0,83.9L96.1,82.8L96.7,81.3L96.8,80.4L97.1,79.3L97.2,78.1L97.6,76.5L97.7,74.1L98.1,71.9L97.7,65.0L97.2,61.6L96.9,60.8L96.6,59.4Z M85.0,56.0L85.2,56.8L86.4,59.6L86.5,60.3L86.9,61.2L87.1,62.8L87.7,63.5L88.0,63.5L88.3,63.2L88.2,61.9L87.6,60.1L86.0,56.7L85.3,56.0Z M107.5,55.2L107.5,56.1L107.9,57.1L108.1,58.3L108.3,58.5L108.6,59.4L108.6,60.0L109.1,61.8L109.1,62.4L109.3,62.4L109.3,62.0L109.1,61.4L109.0,60.3L108.8,59.8L108.7,58.1L108.4,57.6L108.1,56.0L107.7,55.2Z M107.3,54.2L107.1,53.5L107.1,54.2Z M95.7,53.4L95.9,54.8L96.3,56.0L96.6,56.4L96.6,56.8L97.9,61.0L98.5,62.3L98.6,60.6L97.7,57.1L96.5,54.3L96.2,54.1L95.9,53.4Z M14.2,53.4L13.9,53.7L13.9,54.1L14.1,53.9Z M85.3,52.9L85.3,53.4L85.5,53.6L86.4,55.2L86.4,55.7L87.0,56.5L87.2,57.3L87.9,58.8L88.0,59.3L88.6,60.7L89.1,60.8L89.4,60.4L89.2,59.3L88.5,57.5L87.7,56.3L87.4,55.4L86.4,54.2L86.1,53.4L85.5,52.8Z M102.4,51.3L102.5,52.3L102.8,52.6L103.0,52.6L102.9,52.0L102.5,51.3Z M108.1,51.2L108.0,51.8L108.1,52.2L108.4,52.4L108.5,53.9L108.9,54.6L109.6,57.2L109.9,58.0L110.1,59.2L110.4,59.8L110.7,62.3L110.9,62.8L110.9,64.1L111.2,65.5L111.4,68.3L111.4,73.6L111.1,75.1L111.0,77.3L110.5,79.7L110.5,80.7L110.2,81.5L110.0,83.0L109.7,83.7L109.5,85.1L108.5,87.8L108.0,89.6L107.6,90.3L107.5,90.9L106.6,92.6L106.3,93.5L105.6,94.5L105.3,95.5L104.4,97.3L104.1,97.6L103.8,98.3L102.7,99.7L101.9,101.3L101.3,102.0L100.9,102.8L99.5,104.2L99.4,104.6L99.0,105.2L97.9,106.2L96.7,107.7L92.3,111.6L90.3,113.1L87.9,115.1L86.8,115.7L85.9,116.4L85.3,116.6L83.5,117.8L83.1,117.9L82.7,118.2L82.7,118.5L83.2,118.4L84.4,117.7L85.3,117.4L87.4,116.1L88.1,115.5L89.0,115.1L90.0,114.2L90.6,113.9L92.6,112.4L94.7,110.5L96.5,108.5L98.1,107.1L100.7,104.0L104.9,97.6L105.2,96.9L106.1,95.5L107.4,92.8L107.5,92.3L108.1,91.2L108.3,90.2L108.8,89.3L108.8,89.0L109.0,88.6L109.4,87.6L109.9,85.4L110.2,84.7L110.2,84.1L111.0,80.9L111.2,79.5L111.4,79.1L111.5,77.2L111.8,76.2L112.0,70.7L111.8,68.9L111.7,64.5L111.5,64.4L111.5,63.4L111.3,62.9L111.2,61.7L110.5,59.4L110.2,57.2L109.5,55.2L109.3,53.9L108.8,52.9L108.6,52.3L108.2,51.8Z M104.0,50.9L104.0,51.4L104.4,51.7L104.6,52.5L104.8,52.6L104.8,52.3L104.6,52.1L104.6,51.6L104.4,51.1Z M96.7,50.9L96.3,51.2L96.6,52.2L97.6,54.4L98.4,56.9L98.7,57.1L99.0,57.9L99.3,57.9L99.3,57.0L98.6,54.4L97.2,51.6Z M19.2,50.2L18.9,50.4L18.1,51.8L17.9,52.7L17.4,53.4L17.3,54.2L17.1,54.4L16.9,55.8L16.5,56.7L16.5,57.5L16.0,58.2L16.1,58.9L16.2,58.4L16.4,58.2L16.4,57.8L16.7,57.5L16.8,56.2L17.0,56.1L17.0,55.9L17.8,54.3L18.1,53.3L18.7,52.1Z M84.9,49.6L85.0,50.0L86.0,51.3L86.5,52.4L86.9,52.8L87.6,54.2L87.9,54.5L88.5,55.6L88.5,56.1L88.9,56.6L89.4,57.7L89.9,58.1L90.1,57.9L90.0,57.0L89.0,54.7L88.5,53.9L88.4,53.5L86.1,50.4L85.1,49.5Z M101.5,49.4L101.5,49.9L101.9,50.4L101.8,49.7Z M16.0,48.8L15.6,49.2L15.3,50.1L15.1,50.3L15.0,50.9L15.3,50.8L15.4,50.3L15.7,50.1L15.7,49.8L16.0,49.4Z M96.4,47.6L96.4,48.1L96.7,48.4L97.4,49.8L98.6,52.8L99.6,54.2L100.0,54.5L99.7,52.9L98.9,50.9L98.5,50.5L98.0,49.2L96.8,47.5Z M84.4,46.3L84.5,46.7L85.4,47.8L85.4,48.0L86.9,49.6L87.8,51.2L88.5,52.1L88.6,52.6L89.7,54.4L90.2,54.8L90.7,54.7L90.7,54.1L90.0,52.8L87.6,49.3L85.0,46.3Z M97.1,45.4L97.2,46.2L97.7,46.7L97.8,47.1L98.1,47.5L98.2,48.0L98.6,48.4L99.4,50.1L100.2,51.2L100.5,52.2L101.0,52.8L101.1,53.1L101.3,53.1L100.8,51.4L100.3,50.7L100.1,49.7L99.2,48.0L99.0,47.4L98.0,45.9L97.6,45.5Z M83.6,43.0L83.6,43.2L84.1,43.9L86.4,46.4L88.0,48.3L90.2,51.5L90.8,51.9L91.0,51.7L91.0,51.5L89.6,49.0L87.7,46.6L85.0,43.7L83.9,43.0Z M97.1,42.2L97.2,42.9L98.1,44.0L98.2,44.5L99.3,46.2L100.0,47.5L100.7,48.3L100.9,48.3L100.8,47.5L99.7,45.3L98.6,43.9L98.2,43.2L97.2,42.1Z M83.9,41.0L84.0,41.4L88.3,45.8L90.8,49.2L91.3,49.1L91.2,48.5L89.0,45.3L85.4,41.8L84.5,41.1Z M68.8,40.6L69.1,40.9L70.0,41.1L70.2,41.3L70.7,41.5L71.0,41.8L71.7,42.0L73.5,42.9L74.0,43.0L74.7,43.3L75.0,43.3L75.0,43.2L74.0,42.4L73.3,42.1L73.0,42.1L72.2,41.5L71.4,41.3L70.6,41.0L70.3,41.0L69.5,40.5Z M96.0,37.8L95.9,38.0L96.2,38.7L98.1,41.1L99.4,43.3L101.7,46.5L102.6,48.5L103.0,48.9L103.1,49.4L103.3,49.6L103.6,49.6L103.3,48.3L102.5,47.1L102.2,46.8L102.0,46.1L100.5,43.4L97.8,39.6Z M81.2,36.8L81.9,37.6L83.8,38.9L84.2,39.4L86.8,41.7L91.1,46.4L91.5,46.5L91.7,46.4L91.6,45.8L88.9,42.6L86.7,40.4L83.1,37.5L82.2,36.9Z M95.2,34.4L95.0,34.7L95.2,35.1L95.8,35.6L98.8,39.2L99.5,40.4L101.2,42.5L102.0,44.0L103.0,45.3L103.3,46.0L103.9,46.9L104.3,48.1L104.8,48.8L105.3,50.0L105.8,50.4L105.8,49.7L105.4,49.0L105.1,48.2L104.6,47.6L103.1,44.5L102.8,44.3L101.3,41.4L99.2,38.5L96.2,35.1Z M94.4,31.2L94.2,31.5L96.2,33.8L97.1,34.6L100.3,38.4L100.7,38.8L100.9,39.2L102.8,41.8L102.9,42.1L103.4,42.7L105.4,46.2L105.6,46.7L105.8,47.0L107.1,49.9L107.6,50.4L107.7,50.9L107.8,50.9L107.8,50.7L107.5,50.0L107.5,49.4L107.1,48.3L106.7,47.7L104.3,43.0L103.5,41.9L102.5,40.2L101.3,38.8L101.1,38.1L98.2,34.7L96.6,33.0L94.7,31.3Z M44.0,23.8L42.8,23.8L41.7,24.1L36.9,26.3L32.0,29.3L27.7,32.6L24.3,35.9L22.5,37.9L20.4,40.7L19.9,41.2L19.2,42.3L18.7,43.4L17.5,45.2L17.3,46.1L16.7,46.9L16.1,48.4L16.3,48.4L16.7,48.0L16.8,47.5L17.1,47.0L17.2,46.4L18.4,45.1L19.1,43.7L19.8,42.9L20.1,42.2L21.3,40.7L22.1,39.9L24.1,37.3L28.6,33.1L30.7,31.4L35.2,28.3L39.5,26.1L40.5,25.7L41.1,25.3L41.7,25.2L42.5,24.8L43.5,24.4L43.9,24.1Z M44.3,21.7L43.8,21.6L43.0,21.8L42.7,22.0L41.8,22.2L41.5,22.5L40.5,22.7L40.1,23.0L38.5,23.6L36.3,24.7L32.4,27.0L28.2,29.9L26.3,31.5L22.6,35.1L20.2,38.0L19.6,39.0L18.1,41.0L18.1,41.1L17.5,41.8L17.0,42.6L17.0,43.0L17.3,43.1L17.7,42.8L18.3,41.7L21.0,38.2L23.2,35.7L25.8,33.2L30.4,29.3L34.1,27.0L36.9,25.3L37.3,25.2L38.4,24.6L39.6,24.2L41.6,23.2L42.7,22.9L44.1,22.3L44.4,22.0Z M45.1,19.7L44.2,19.6L37.1,22.3L35.0,23.4L34.1,24.0L33.5,24.2L33.2,24.5L32.7,24.7L30.1,26.3L27.8,28.0L24.7,30.5L22.1,33.2L19.9,35.7L19.8,35.9L19.0,36.8L18.9,37.2L19.1,37.4L19.4,37.3L23.5,32.9L27.8,29.1L31.8,26.3L34.2,25.0L35.1,24.3L36.5,23.7L37.0,23.3L37.5,23.2L38.2,22.8L40.1,22.1L40.6,21.8L41.5,21.6L41.9,21.3L44.7,20.4L45.1,20.1Z M93.5,19.4L93.6,19.7L99.0,24.1L100.5,25.7L101.3,26.2L103.7,28.8L106.2,31.6L106.6,32.3L107.3,33.0L108.3,34.4L109.5,36.3L111.2,38.6L112.0,40.1L112.2,40.4L112.5,40.3L112.2,39.5L110.3,36.1L107.3,32.0L106.6,31.3L104.9,29.1L102.1,26.1L97.8,22.1L94.7,19.9Z M46.0,17.6L45.9,17.5L44.4,17.6L39.1,19.5L34.3,21.8L33.2,22.5L31.6,23.3L30.7,24.0L30.1,24.2L28.0,25.7L23.9,29.0L19.9,33.0L20.0,33.5L20.6,33.4L22.8,31.2L27.3,27.3L32.4,23.9L38.4,20.8L39.6,20.4L41.0,19.7L41.6,19.7L42.5,19.2L43.5,19.0L45.5,18.3L46.0,17.9Z M92.2,16.6L92.2,16.8L93.0,17.6L96.1,19.7L98.1,21.3L99.5,22.3L102.7,25.2L108.0,31.2L108.4,31.8L109.1,32.5L111.5,36.0L111.9,36.3L112.1,36.3L112.1,36.0L111.4,34.7L110.9,34.1L108.8,31.2L106.4,28.2L101.7,23.3L98.5,20.6L95.1,18.0L94.9,18.0L94.0,17.3L92.6,16.5Z M46.9,15.5L46.2,15.4L44.3,15.8L42.8,16.4L42.2,16.5L41.4,16.9L39.9,17.3L37.3,18.5L36.5,18.7L32.4,20.8L28.8,23.0L28.2,23.3L27.6,24.0L24.3,26.3L21.5,28.8L21.5,29.4L22.2,29.3L26.3,25.9L26.8,25.6L28.3,24.3L29.1,24.0L29.9,23.3L32.1,22.1L33.1,21.4L36.6,19.7L39.7,18.5L40.4,18.1L41.1,17.9L42.0,17.5L42.5,17.5L43.8,16.9L45.3,16.5L45.9,16.2L46.6,16.1L46.9,15.9Z M48.4,13.3L47.7,13.2L45.9,13.5L45.1,13.9L44.7,13.9L43.1,14.4L42.7,14.4L36.9,16.5L35.0,17.6L34.4,17.7L33.2,18.5L32.5,18.7L30.5,20.0L29.1,20.7L24.1,24.3L23.1,25.2L23.1,25.5L23.3,25.7L23.8,25.6L26.2,23.7L29.9,21.2L31.9,20.2L32.4,19.7L32.9,19.7L36.5,17.7L40.5,16.2L41.9,15.8L43.5,15.2L47.4,14.3L48.2,13.9L48.4,13.7Z M89.6,13.0L89.6,13.3L95.2,16.8L100.6,20.9L103.3,23.3L107.5,27.7L110.6,31.7L111.1,32.3L111.6,32.2L111.4,31.6L107.3,26.5L103.8,22.9L101.3,20.6L97.3,17.4L95.5,16.1L95.0,15.9L94.7,15.5L93.1,14.7L90.7,13.2L90.3,13.0Z M50.1,11.3L49.5,11.1L48.7,11.1L47.9,11.4L47.3,11.4L46.1,11.8L45.2,11.9L42.5,12.6L37.0,14.6L33.7,16.1L33.2,16.5L31.2,17.4L28.8,18.7L25.4,21.1L24.5,21.9L24.5,22.0L24.7,22.2L25.4,22.1L26.4,21.3L32.4,17.7L38.3,15.1L45.1,12.9L46.1,12.8L47.7,12.3L48.2,12.3L49.8,11.8L50.1,11.5Z M86.4,9.5L86.4,9.7L87.8,10.7L91.6,12.5L94.9,14.5L97.7,16.5L99.0,17.6L99.8,18.0L104.2,21.8L108.3,26.0L108.6,26.4L109.9,27.7L110.2,27.9L109.9,27.1L109.0,26.0L107.7,24.7L106.7,23.3L105.7,22.6L102.1,18.9L100.1,17.3L96.4,14.6L94.5,13.5L92.4,12.1L91.7,11.8L89.2,10.3L88.9,10.3L87.8,9.7L87.4,9.6L87.1,9.3L86.5,9.3Z M73.3,10.1L70.9,9.6L68.3,9.3L66.8,9.5L66.9,9.7L67.5,10.0L70.0,10.3L72.8,11.2L73.0,11.6L67.0,10.8L64.6,10.8L64.2,10.9L64.5,11.2L69.3,12.2L69.8,12.4L69.7,12.7L69.3,12.8L67.8,12.5L64.6,12.3L61.9,12.3L61.3,12.5L61.4,12.8L64.1,13.2L65.6,13.5L66.0,13.9L60.7,13.9L58.7,14.0L57.5,14.3L57.6,14.5L58.1,14.7L59.7,14.7L61.2,14.9L61.6,15.1L61.6,15.4L60.7,15.5L58.1,15.5L55.1,15.9L54.4,16.1L54.2,16.4L54.6,16.6L56.5,16.7L60.1,16.6L61.3,16.9L61.3,17.2L56.7,17.3L55.2,17.6L54.2,17.6L53.3,17.9L51.9,18.1L51.7,18.3L51.8,18.6L52.1,18.7L57.9,18.6L58.1,18.7L58.1,18.9L53.6,19.3L51.7,19.7L51.4,19.9L50.1,20.1L49.8,20.3L50.1,20.7L54.2,20.7L54.7,20.5L56.3,20.8L54.8,20.8L54.1,21.0L52.0,21.3L49.7,22.0L48.6,22.1L48.0,22.6L48.0,22.9L54.4,22.2L55.3,22.5L54.2,22.6L52.3,23.0L51.7,23.0L49.1,23.7L48.4,24.0L47.0,24.4L45.6,25.1L42.8,25.7L41.9,26.1L40.2,26.7L37.0,28.3L36.5,28.6L36.0,28.7L35.2,29.2L34.0,30.2L30.2,32.7L26.0,36.6L22.6,40.4L20.6,43.2L18.8,46.5L18.5,46.8L18.1,48.0L17.1,49.6L17.0,50.8L16.4,51.4L16.0,52.3L15.9,53.3L15.4,53.9L15.4,54.4L14.9,55.3L14.9,56.5L14.7,56.7L14.6,57.1L14.8,57.1L14.9,56.5L15.2,56.1L15.2,55.8L15.7,54.9L16.4,52.6L16.8,52.1L17.1,50.8L17.4,50.5L18.1,48.9L18.8,47.8L19.3,46.6L20.9,44.3L25.4,38.6L27.4,36.5L29.9,34.3L32.9,31.9L35.5,30.2L39.0,28.3L42.6,26.7L44.4,25.7L45.2,25.5L45.6,25.2L46.2,25.2L46.6,25.1L47.2,25.1L48.6,24.7L51.8,24.4L51.9,24.8L50.2,25.3L47.9,25.9L46.9,26.3L45.2,26.8L44.8,27.1L43.8,27.2L38.9,29.3L35.1,31.5L33.3,32.6L28.6,36.5L25.9,39.2L22.7,43.2L22.1,44.3L21.9,44.8L21.1,45.8L20.8,46.6L20.3,47.4L19.6,48.7L19.6,49.3L20.0,49.2L20.3,48.8L20.4,48.3L21.7,46.4L22.6,44.8L26.5,40.0L30.0,36.4L31.8,35.1L32.4,34.5L33.3,33.9L33.9,33.4L35.5,32.4L36.0,31.9L36.5,31.7L36.8,31.5L38.8,30.4L43.1,28.3L43.4,28.3L43.6,28.1L44.8,27.6L45.2,27.3L50.4,26.3L50.6,26.5L50.6,26.7L50.1,27.1L48.2,27.5L47.8,27.8L45.9,28.3L45.3,28.7L41.7,29.9L37.5,32.0L35.1,33.6L33.0,35.2L32.4,35.5L29.4,38.1L25.6,42.2L24.2,44.3L24.0,44.7L23.4,45.4L22.9,46.4L22.5,46.7L21.8,48.3L21.4,48.7L21.3,49.2L20.6,50.4L20.0,51.8L20.0,52.1L19.1,53.9L18.7,55.6L18.0,57.6L18.0,58.2L18.1,58.2L18.5,57.1L18.7,57.0L19.0,55.7L19.2,55.3L19.5,54.4L19.8,54.1L20.5,52.0L21.3,50.7L21.5,50.0L23.4,47.1L23.5,46.7L25.9,43.3L28.1,40.9L30.9,38.0L32.9,36.4L37.1,33.4L41.8,30.7L43.3,30.3L44.0,29.8L45.1,29.5L45.9,29.2L46.3,29.2L47.0,28.8L49.2,28.3L50.3,28.5L49.5,29.1L47.0,29.7L46.4,30.1L45.3,30.4L44.1,31.0L43.3,31.2L41.0,32.3L40.5,32.4L34.6,36.0L30.6,39.5L27.9,42.2L26.3,44.5L25.5,45.4L24.6,46.9L24.0,47.7L22.9,50.0L22.5,50.4L22.2,51.1L21.9,52.1L21.6,52.4L21.3,53.4L20.5,55.0L20.0,56.8L19.9,57.8L19.3,59.1L19.3,60.0L19.7,59.8L20.0,58.3L20.3,57.9L20.5,56.9L20.7,56.7L21.6,53.9L22.4,52.5L22.4,51.9L23.0,51.2L24.6,48.2L25.5,47.2L26.7,45.2L27.4,44.5L28.2,43.3L32.2,39.3L34.8,37.1L36.6,35.9L37.1,35.5L38.9,34.5L39.5,34.0L42.7,32.4L45.0,31.4L45.4,31.4L48.4,30.4L50.0,30.1L50.8,30.3L50.3,30.6L49.1,30.9L48.4,31.3L47.4,31.5L45.5,32.2L44.7,32.6L43.7,32.9L40.3,34.6L38.4,35.7L37.7,36.2L35.9,37.3L33.5,39.2L29.9,42.7L28.8,44.1L26.4,47.3L25.9,48.2L25.0,49.5L24.6,50.6L23.7,52.0L23.6,52.6L22.6,54.5L22.6,54.8L22.0,56.1L21.4,58.2L21.0,59.1L20.9,60.4L20.7,61.1L20.7,62.3L20.4,62.5L20.2,63.8L20.2,64.7L20.0,65.3L20.1,67.3L19.9,67.7L20.0,68.0L20.3,67.9L20.3,65.0L20.5,64.1L20.7,63.8L20.8,61.8L21.3,61.1L21.3,60.3L22.0,58.4L22.1,57.8L22.4,57.2L22.5,56.6L23.0,55.7L23.1,55.0L23.5,54.4L23.5,53.9L24.0,53.1L24.2,52.4L24.5,52.2L26.9,47.9L28.1,46.5L28.2,46.3L28.7,45.9L29.9,44.2L34.1,40.0L36.2,38.3L38.5,36.7L39.4,36.3L39.7,35.9L43.0,34.2L45.9,33.0L47.9,32.4L50.1,31.9L50.8,32.1L50.5,32.4L47.2,33.4L44.6,34.5L40.4,36.5L39.3,37.3L39.1,37.3L37.1,38.6L35.3,40.0L33.4,41.7L30.5,44.7L28.8,46.8L27.0,49.6L26.7,50.5L26.3,50.8L24.0,55.8L23.9,56.5L23.5,57.0L23.5,57.9L23.1,58.5L22.5,60.5L22.4,62.2L22.0,62.9L21.9,64.7L21.7,65.6L22.0,66.0L22.3,65.2L22.5,63.2L22.8,62.4L23.0,60.5L23.3,60.3L23.5,58.8L23.8,58.3L23.8,57.8L24.5,56.7L25.0,54.9L26.1,53.0L26.3,52.4L28.4,49.0L30.9,45.7L32.6,43.9L35.5,41.1L37.4,39.6L42.2,36.6L47.2,34.5L48.3,34.3L49.4,33.8L50.5,33.8L50.6,34.2L49.7,34.4L48.9,34.7L48.0,34.9L44.5,36.5L44.0,36.6L38.5,39.7L35.2,42.4L30.4,47.5L27.6,52.1L27.5,52.7L27.0,53.4L26.9,53.9L26.0,55.4L25.5,57.3L25.1,58.0L24.9,58.8L24.5,59.3L24.3,61.1L24.0,61.7L23.8,63.4L23.5,64.2L23.6,66.0L23.3,67.3L23.4,68.4L23.2,71.2L23.5,74.8L23.7,75.6L23.8,76.9L24.1,77.3L24.3,79.3L24.5,79.9L24.6,80.1L25.0,81.6L25.5,82.3L26.3,84.7L26.6,85.0L27.7,87.7L28.7,89.1L29.5,90.7L31.3,93.3L33.0,95.2L34.6,96.8L38.3,99.8L40.2,101.0L40.5,101.4L44.4,103.4L45.9,104.0L50.0,105.2L50.4,105.2L51.2,105.5L51.9,105.4L51.7,105.1L51.2,105.1L51.1,104.9L50.7,104.9L50.1,104.6L48.6,104.2L47.1,103.5L45.0,102.8L41.1,100.8L38.0,98.7L34.1,95.3L30.2,90.7L30.0,90.2L29.4,89.5L28.9,88.5L28.3,87.8L27.8,86.5L26.9,85.1L26.8,84.4L26.7,84.3L26.6,83.7L25.9,82.5L25.8,81.8L25.0,79.7L24.9,78.7L24.2,76.4L23.8,73.1L23.8,70.7L23.6,70.4L23.6,68.6L23.8,68.4L23.9,67.6L23.8,65.5L24.0,64.6L24.3,64.2L24.5,61.6L24.9,61.0L25.1,59.9L25.5,59.2L25.6,58.3L25.9,57.6L25.9,57.3L26.9,55.3L27.0,54.7L27.4,54.3L28.3,52.4L28.7,52.0L30.3,49.4L33.2,45.8L37.6,41.7L40.9,39.4L43.0,38.3L43.6,37.9L44.6,37.5L45.1,37.1L48.2,36.0L50.1,35.6L50.5,35.7L50.4,35.9L50.1,36.2L49.1,36.4L48.8,36.7L47.7,36.9L47.3,37.2L44.9,38.1L42.6,39.3L40.3,40.8L36.6,43.5L34.0,46.2L31.8,48.7L29.2,52.8L28.6,54.4L28.1,54.9L27.8,56.0L27.1,57.3L26.8,58.7L26.5,59.5L26.5,60.2L25.7,62.4L25.5,64.9L25.2,65.8L25.1,68.0L25.4,68.6L25.6,66.5L25.8,65.6L25.9,63.6L26.4,62.4L26.6,60.8L26.8,60.5L27.6,58.2L27.9,57.7L28.2,56.5L28.9,55.4L29.0,54.9L29.6,54.1L30.3,52.5L33.3,48.4L37.5,44.1L38.9,43.0L42.4,40.6L45.3,39.0L46.1,38.9L47.8,38.0L50.5,37.3L51.1,37.4L51.0,37.8L50.0,38.0L49.8,38.2L48.8,38.4L48.2,38.8L47.1,39.0L46.4,39.5L45.9,39.6L45.4,40.0L42.0,41.7L40.6,42.6L37.1,45.5L33.7,49.3L32.4,51.0L31.7,52.4L31.1,53.0L29.2,56.8L28.9,58.2L28.6,59.0L28.5,59.7L27.9,61.1L27.8,61.7L27.6,62.1L27.6,62.6L27.2,63.7L27.1,65.1L26.9,65.6L26.9,66.7L26.7,67.2L26.9,71.4L26.8,73.2L27.2,75.1L27.3,76.6L27.6,77.3L27.7,78.5L28.4,80.2L28.6,81.3L29.1,82.7L29.6,83.3L30.1,84.8L30.9,85.9L31.2,86.9L32.3,88.5L32.3,88.7L34.1,91.2L35.7,93.0L38.2,95.3L41.5,97.8L45.9,100.2L47.0,100.6L48.3,101.2L50.9,101.7L51.2,101.9L52.1,101.8L51.8,101.4L50.8,101.2L50.2,100.8L48.3,100.2L46.4,99.3L45.9,99.2L45.4,98.8L42.9,97.6L39.5,95.3L36.8,92.9L33.1,88.6L32.0,86.7L31.6,86.3L29.5,82.0L29.4,81.4L29.1,81.0L29.1,80.5L28.6,79.6L28.6,79.1L27.9,77.0L27.8,75.8L27.5,74.5L27.4,72.7L27.1,72.0L27.1,71.2L27.3,70.6L27.2,69.2L27.4,68.8L27.6,65.2L27.9,64.0L28.1,62.4L28.5,61.7L28.5,61.2L28.8,60.2L29.0,58.9L29.5,58.3L30.4,56.0L31.0,55.1L32.0,53.1L32.9,51.9L34.7,49.7L34.8,49.5L36.9,47.1L40.2,44.3L40.7,44.0L41.6,43.2L45.2,41.1L46.5,40.5L47.3,40.3L47.7,40.0L48.9,39.6L50.8,39.1L51.1,39.2L51.0,39.5L50.6,39.8L50.0,39.9L49.3,40.2L48.3,40.5L45.5,41.8L43.4,43.0L40.5,45.0L38.5,46.5L36.4,48.6L34.9,50.6L33.1,53.1L32.4,54.7L31.9,55.5L31.5,56.6L31.0,57.2L30.3,59.1L29.9,60.8L29.7,61.2L29.0,63.5L28.5,68.1L28.5,72.6L28.9,76.0L29.6,78.2L29.7,79.1L30.2,80.2L30.4,81.2L30.6,81.4L30.7,82.0L31.0,82.7L31.0,82.9L32.3,85.5L33.3,86.9L33.6,87.6L35.6,90.2L36.3,91.0L36.4,91.2L38.5,93.3L40.4,94.9L42.4,96.4L46.8,98.7L47.3,98.8L49.2,99.7L51.7,100.2L53.1,100.3L53.0,99.9L52.1,99.7L51.6,99.5L51.2,99.5L51.1,99.3L49.3,98.7L47.0,97.7L46.1,97.2L45.7,97.1L45.2,96.7L43.8,96.1L41.1,94.3L39.6,93.1L37.3,90.9L34.7,87.7L32.5,84.3L31.6,82.4L31.5,81.9L30.9,81.0L30.9,80.7L30.7,80.4L30.4,78.8L29.8,77.2L29.5,76.0L28.9,71.3L29.0,67.1L30.2,61.3L30.4,61.1L31.2,58.4L33.3,54.4L36.3,50.4L41.1,45.6L45.2,43.2L48.5,41.6L50.3,41.2L51.1,40.9L51.7,41.1L50.7,41.4L50.2,41.8L49.1,42.1L47.5,42.9L47.0,43.0L42.7,45.4L39.4,48.2L37.3,50.3L35.3,52.8L33.5,56.0L32.8,57.6L32.6,58.3L32.1,59.2L32.0,60.4L31.7,60.7L31.6,61.3L31.2,62.1L31.2,62.5L30.9,63.4L30.5,66.4L30.2,67.5L30.1,70.5L30.4,74.4L30.6,74.6L30.7,75.9L31.1,77.1L31.4,78.6L32.1,80.4L32.2,81.0L32.7,81.8L33.0,82.8L33.9,84.4L34.1,84.9L37.1,89.2L38.9,91.2L42.6,94.4L45.8,96.3L47.8,97.3L51.2,98.4L55.4,99.0L56.4,98.9L56.4,98.7L55.6,98.5L54.3,98.3L53.6,98.0L53.2,98.0L51.0,97.4L46.9,95.7L46.5,95.4L44.3,94.3L42.5,93.1L39.8,90.9L36.8,87.6L36.2,86.4L35.2,85.3L33.6,82.6L33.1,81.3L33.0,80.7L32.2,79.3L31.5,76.7L31.5,76.0L31.1,74.7L31.1,74.0L30.9,72.6L30.8,68.4L31.0,67.0L31.0,65.3L31.5,64.2L31.7,62.5L32.0,62.3L32.2,60.6L32.5,60.3L33.1,58.6L33.4,58.1L34.3,56.1L35.5,54.2L38.0,51.1L40.5,48.5L43.7,46.2L45.2,45.2L46.0,44.9L46.3,44.6L46.9,44.4L49.5,43.2L51.6,42.5L52.7,42.8L50.1,43.6L48.6,44.3L47.8,44.5L47.3,44.9L46.6,45.1L42.9,47.5L41.5,48.6L38.4,51.7L36.3,54.8L35.2,56.7L35.1,57.1L34.6,57.9L33.7,60.0L33.6,60.6L33.2,61.3L33.1,62.4L32.6,63.6L32.2,65.6L32.1,67.7L31.9,69.1L31.9,70.9L32.7,76.7L33.1,78.5L33.7,80.0L34.0,80.4L34.1,81.1L35.3,83.6L36.1,84.6L36.4,85.5L38.4,88.1L41.0,90.8L43.5,92.8L45.0,93.8L45.4,93.9L47.6,95.2L51.7,96.7L55.2,97.3L57.4,97.3L57.6,97.0L57.1,96.8L55.6,96.7L53.4,96.2L49.1,94.7L45.9,93.2L44.3,92.2L42.4,90.7L40.2,88.7L37.5,85.6L36.6,84.3L35.6,82.5L35.3,81.6L34.3,79.7L34.1,78.5L33.6,77.3L33.0,74.8L33.0,74.2L32.7,73.2L32.6,67.0L33.1,65.6L33.2,63.7L33.4,63.5L33.6,62.4L34.2,60.4L34.7,59.7L34.9,59.1L35.2,58.5L35.3,58.0L35.8,57.1L38.4,53.4L40.2,51.3L42.2,49.5L44.4,47.8L45.3,47.4L45.9,46.9L47.1,46.4L47.7,45.9L49.9,45.1L50.7,44.6L51.1,44.6L52.4,44.1L53.5,44.3L52.7,44.8L51.3,45.1L51.0,45.3L50.6,45.3L49.5,45.9L48.7,46.1L48.4,46.4L47.8,46.5L47.3,46.9L46.9,47.0L45.9,47.6L45.8,47.6L43.1,49.6L39.8,52.9L38.1,55.2L36.5,58.3L36.3,58.6L36.1,59.3L35.6,60.1L35.4,60.8L35.2,61.3L35.1,61.9L34.7,62.5L34.3,64.6L34.0,65.7L34.0,66.7L33.7,67.5L33.6,70.9L33.8,73.1L34.4,76.6L35.0,78.5L35.6,79.8L35.7,80.3L36.9,82.7L37.3,83.1L37.7,84.2L38.7,85.4L39.5,86.7L43.1,90.2L45.8,92.2L49.7,94.2L50.1,94.2L51.2,94.7L52.8,95.2L56.9,95.7L58.7,95.7L59.6,95.4L58.6,95.2L57.4,95.2L55.0,94.6L54.4,94.6L53.6,94.3L53.2,94.3L51.1,93.6L47.3,92.0L44.6,90.1L42.3,88.2L40.8,86.8L39.5,85.1L37.1,81.6L37.1,81.3L35.9,78.5L34.8,74.8L34.4,71.1L34.5,67.8L34.8,65.2L35.0,64.9L35.2,63.5L35.5,62.8L35.7,61.8L37.2,58.4L38.4,56.6L38.4,56.4L40.4,53.9L41.1,53.2L41.2,52.9L43.7,50.6L46.1,49.1L47.2,48.2L48.0,48.0L49.1,47.5L49.3,47.2L50.1,46.9L50.7,46.5L51.2,46.4L51.6,46.2L52.6,45.9L54.3,45.7L54.4,46.1L49.5,47.6L49.1,47.9L48.6,48.0L47.4,48.9L46.7,49.1L44.6,50.7L41.5,53.8L40.2,55.3L38.4,58.2L38.3,58.7L37.2,61.0L37.1,61.5L36.6,62.4L36.1,64.3L36.0,65.6L35.7,66.2L35.4,68.4L35.3,71.8L36.3,76.6L36.7,77.7L37.0,79.0L37.6,80.2L37.7,80.7L38.9,82.7L40.8,85.5L42.0,86.9L44.7,89.2L46.8,90.7L48.8,91.8L50.9,92.7L51.5,92.8L52.6,93.3L53.2,93.3L55.5,93.8L59.7,93.8L59.6,93.5L57.5,93.3L54.4,92.9L53.8,92.6L53.3,92.6L52.3,92.2L51.5,92.1L50.8,91.6L50.3,91.5L48.8,90.6L47.3,90.0L45.0,88.3L43.7,87.2L41.5,84.8L39.8,82.7L39.6,82.1L39.2,81.6L38.4,79.9L37.3,77.3L36.7,75.2L36.2,71.5L36.2,68.0L36.5,65.4L36.8,64.2L37.2,63.4L37.3,62.5L37.8,61.2L38.1,60.8L38.4,60.0L38.8,59.3L39.1,58.5L40.5,56.5L42.5,54.1L43.9,52.8L45.6,51.5L46.4,51.0L46.7,51.2L44.8,52.8L43.1,54.5L41.3,56.9L40.3,58.4L39.4,60.3L39.4,60.6L38.4,62.5L37.8,64.7L37.2,68.6L37.2,72.0L37.9,76.3L38.2,76.7L38.4,78.0L38.6,78.2L39.3,79.9L39.6,80.4L39.9,81.2L41.2,83.1L42.5,84.8L46.1,88.1L47.7,89.1L49.8,90.1L50.5,90.3L51.2,90.7L51.5,90.7L52.6,91.2L53.6,91.3L54.8,91.8L57.0,92.1L59.4,92.2L59.7,91.8L59.5,91.7L56.5,91.6L55.5,91.3L54.5,91.2L53.0,90.7L52.3,90.6L51.5,90.1L51.0,90.1L50.6,89.7L48.0,88.3L46.1,87.0L43.6,84.6L43.4,84.2L42.6,83.4L41.1,81.2L39.7,78.6L38.4,74.6L38.0,71.0L38.0,67.9L38.3,65.5L38.5,64.8L38.7,63.5L39.1,63.0L39.2,62.4L40.3,60.0L41.7,57.7L43.8,55.2L45.3,54.1L46.4,53.0L47.5,52.5L47.8,52.2L48.0,52.5L46.2,53.8L43.9,56.3L42.7,58.1L41.3,60.5L41.2,61.2L40.6,62.1L40.3,63.1L40.2,63.7L39.8,64.6L39.8,65.3L39.5,65.6L39.3,66.6L38.9,69.8L39.0,72.6L39.8,76.7L40.6,78.4L41.0,79.5L42.4,81.8L43.9,83.7L47.0,86.6L49.2,88.0L51.9,89.1L52.5,89.0L52.3,88.4L51.3,88.0L51.1,87.7L51.2,87.4L53.0,87.8L54.0,87.8L54.2,87.7L54.3,87.3L54.1,86.9L54.4,86.6L54.9,86.6L55.5,86.2L55.5,85.3L56.5,84.5L56.4,83.6L56.6,83.3L57.2,83.1L57.3,82.7L57.1,81.9L57.8,81.2L57.6,80.3L58.3,79.9L58.7,79.5L58.7,78.4L59.8,77.8L59.8,76.7L61.7,75.6L62.5,75.0L63.9,73.6L65.0,72.0L65.3,71.9L66.1,71.9L66.8,71.1L67.3,70.9L68.0,70.9L68.9,70.1L69.6,70.0L70.4,69.3L71.2,69.2L72.1,68.5L72.5,68.5L73.1,68.2L73.9,67.5L74.4,67.4L75.3,66.1L75.8,66.1L76.3,65.8L76.4,64.2L77.0,63.9L77.3,63.5L77.3,62.1L78.0,61.4L78.2,61.1L78.2,60.2L79.0,59.2L79.0,57.8L79.7,57.1L79.7,56.2L79.4,55.3L80.0,54.7L80.0,53.9L79.4,52.8L78.8,52.1L78.8,51.7L79.2,51.2L79.3,50.8L77.9,49.2L76.5,47.8L74.7,46.5L71.3,44.6L68.0,43.4L67.5,43.4L66.4,43.0L65.4,42.9L62.9,42.1L62.9,41.8L64.9,41.8L66.4,42.1L69.5,43.1L73.8,45.2L76.9,47.2L77.4,47.1L77.4,46.8L76.0,45.5L73.6,44.0L73.2,43.9L71.6,43.0L69.2,42.1L68.5,42.1L66.6,41.3L65.1,41.0L64.7,40.8L64.4,40.4L64.7,40.0L65.6,40.0L67.2,40.4L68.3,40.4L68.2,40.1L65.8,39.3L65.3,38.9L65.4,38.5L67.5,38.5L67.7,38.3L67.7,38.0L66.9,37.8L66.3,37.1L66.8,36.8L68.2,36.9L68.4,36.7L68.4,36.5L67.4,35.7L67.5,35.4L68.9,35.4L69.3,35.2L69.3,35.0L68.7,34.5L68.1,34.3L67.7,33.8L67.9,33.6L69.4,33.7L70.7,33.6L68.8,32.4L69.0,32.0L71.6,32.4L72.9,32.7L73.3,32.5L69.6,30.9L69.4,30.7L69.5,30.4L71.4,30.6L74.2,31.5L74.6,31.7L75.7,32.0L77.7,33.0L77.9,33.3L78.7,33.5L78.9,33.7L81.4,35.1L86.3,38.8L90.3,42.7L91.0,43.6L91.7,43.6L91.7,43.2L90.2,41.3L88.6,39.7L85.2,36.8L82.9,35.2L82.1,34.5L80.3,33.6L80.0,33.4L79.4,33.2L79.1,32.9L78.0,32.4L75.1,31.2L74.7,30.8L74.1,30.7L73.2,30.3L72.0,29.9L71.1,29.3L71.1,29.1L71.7,29.1L73.3,29.4L74.1,29.8L74.5,29.8L76.6,30.6L79.9,32.3L84.6,35.4L88.4,38.4L90.9,40.9L91.6,40.8L91.6,40.6L90.7,39.3L87.2,35.7L87.4,35.7L89.0,36.8L91.0,38.4L91.6,38.3L91.6,37.9L89.6,35.7L89.9,35.4L90.7,35.8L91.3,35.8L91.4,35.3L90.3,33.8L90.4,33.5L91.3,33.5L91.3,33.0L90.0,31.3L90.2,31.1L90.7,31.1L91.4,31.4L91.6,31.3L91.6,30.9L89.2,28.7L89.3,28.3L90.1,28.3L91.5,29.1L92.5,30.0L92.7,29.9L92.2,29.3L91.4,28.8L90.2,27.5L88.4,26.1L87.7,25.5L87.7,25.1L88.3,25.1L90.3,26.1L93.1,28.3L95.9,31.0L96.6,31.5L100.2,35.4L103.5,39.7L105.8,43.4L106.2,44.3L107.0,45.3L107.3,46.3L107.8,47.2L108.0,48.0L108.3,48.3L108.4,48.7L109.0,49.8L109.0,50.1L109.2,50.3L109.7,51.7L109.9,52.2L110.1,53.0L110.4,53.4L110.7,54.8L111.2,56.0L111.4,56.1L111.4,55.2L110.9,54.1L110.7,52.8L110.2,51.6L109.8,50.8L109.8,50.3L109.5,50.0L109.4,49.5L108.7,47.7L108.2,47.0L108.1,46.5L107.2,45.2L107.1,44.6L106.1,42.6L102.5,37.1L99.8,33.8L99.4,33.6L99.2,33.2L95.2,29.3L93.9,28.2L92.1,27.0L91.6,26.4L89.5,25.1L88.0,23.8L86.8,23.1L85.3,21.9L85.3,21.7L85.9,21.7L86.8,22.0L89.0,23.4L89.6,23.6L89.9,24.0L91.6,25.0L93.0,26.2L94.6,27.3L97.7,30.2L101.8,34.6L102.0,34.9L102.4,35.2L102.8,36.1L103.8,37.1L105.2,39.4L106.6,41.2L107.0,42.2L107.7,43.2L108.5,44.8L108.8,45.1L109.2,46.3L109.9,47.4L110.3,48.6L110.9,49.7L111.1,50.7L111.7,52.1L111.9,52.3L112.0,53.0L112.8,54.9L112.8,53.9L112.4,52.3L111.5,50.2L111.4,49.6L110.9,48.9L110.8,48.0L109.4,45.3L109.1,44.4L108.8,44.2L108.2,42.8L107.7,42.2L107.4,41.3L106.5,39.8L102.5,34.4L100.4,32.1L100.3,31.7L97.4,28.9L96.5,28.3L95.6,27.2L94.7,26.6L93.8,25.7L92.7,25.1L90.6,23.4L89.7,23.0L88.6,22.2L87.2,21.5L86.1,20.7L83.5,19.2L83.2,18.9L83.2,18.7L83.4,18.6L83.9,18.6L84.7,18.8L86.9,19.9L87.4,20.3L88.5,20.8L89.6,21.7L90.6,22.1L92.5,23.6L93.7,24.2L94.5,25.1L96.2,26.3L99.6,29.5L100.0,30.1L102.9,33.2L103.5,34.2L104.0,34.6L105.9,37.0L109.7,43.1L111.0,46.1L112.0,47.9L112.1,48.4L112.6,48.9L112.7,49.6L113.2,50.2L113.2,49.8L112.6,48.5L112.3,47.3L110.8,44.2L110.8,43.9L110.3,43.2L109.9,42.1L109.6,41.8L108.8,40.1L108.3,39.6L108.1,39.0L104.4,33.8L100.3,29.2L98.8,27.7L94.9,24.4L94.2,24.0L93.6,23.4L91.3,21.8L90.2,21.3L89.8,20.9L89.0,20.6L88.0,19.8L87.5,19.7L86.5,18.9L81.1,16.2L80.3,15.6L80.6,15.5L81.0,15.5L82.4,15.9L85.4,17.2L88.2,18.6L89.0,19.1L89.5,19.2L91.0,20.4L91.5,20.6L91.7,20.9L92.4,21.2L93.1,21.9L94.6,22.7L100.1,27.5L104.5,32.3L106.7,35.2L109.2,38.9L109.9,40.1L110.9,41.4L111.4,42.8L111.8,43.2L112.7,45.3L112.9,45.4L113.1,45.4L113.2,45.1L112.0,42.4L111.1,41.2L110.9,40.6L110.1,39.1L108.2,36.3L108.2,36.1L107.1,34.7L107.1,34.6L104.5,31.3L99.8,26.2L95.6,22.7L93.7,21.6L93.3,21.1L92.7,20.7L91.3,20.0L88.5,18.1L87.8,17.8L87.1,17.3L81.2,14.4L78.5,13.3L78.1,12.9L78.3,12.7L79.6,12.9L81.1,13.6L83.4,14.4L88.4,16.6L88.7,16.6L88.5,16.3L87.3,15.6L86.9,15.3L81.8,12.9L80.3,12.4L78.3,11.5L77.7,11.4L75.4,10.6L73.8,10.3Z M49.3,66.8L49.7,66.9L49.4,68.4L49.4,71.4L49.7,72.9L50.4,75.1L50.1,75.2L49.6,74.6L49.1,73.5L48.4,70.9L48.4,68.9L48.7,68.4L48.9,67.5Z M52.6,62.1L52.5,62.4L52.3,62.2Z M56.6,59.6L58.8,59.2L60.8,59.2L61.6,59.4L61.7,59.8L58.2,59.6L57.4,59.9Z M55.1,58.3L55.3,58.6L55.0,58.5Z M51.9,57.9L52.2,57.8L52.4,58.1L52.3,58.1Z M59.2,56.0L58.1,56.1L57.7,56.3L56.9,56.3L55.1,56.9L54.9,57.1L53.7,57.3L53.3,57.6L53.0,57.4L54.0,56.8L54.8,56.6L55.2,56.3L57.0,55.9L58.7,55.7Z M53.8,55.2L53.7,55.5L53.2,55.4L53.3,55.2Z M58.4,54.2L58.1,54.5L56.5,54.6L56.3,54.8L54.2,55.2L53.9,55.1L54.2,54.8L56.3,54.2L57.6,54.0Z M52.8,53.9L52.2,54.2L51.9,54.5L51.4,54.6L51.2,54.4L52.3,53.7Z M48.6,53.8L49.0,53.9L48.7,54.0L48.1,54.7L47.3,55.3L45.5,57.2L44.8,58.2L44.7,58.6L44.3,59.0L43.6,60.5L44.1,60.3L45.2,58.8L47.4,56.7L49.5,55.2L50.1,55.0L50.2,54.8L50.6,55.0L49.0,56.2L47.3,58.0L46.5,59.2L46.6,59.5L46.9,59.5L47.8,58.6L50.5,56.6L52.2,55.8L52.5,56.0L52.2,56.0L51.8,56.5L51.3,56.6L49.1,58.6L48.4,59.6L48.5,60.2L48.7,60.2L50.9,58.4L51.9,58.1L51.8,58.5L50.9,59.2L49.3,61.0L49.3,61.2L48.8,61.7L47.9,63.4L47.9,64.2L49.0,63.0L49.8,61.8L51.2,60.4L51.7,60.2L52.1,60.3L52.0,60.6L51.1,61.3L50.5,62.0L49.3,63.7L48.6,65.4L48.0,67.7L47.9,71.7L48.0,73.0L48.5,74.2L48.5,74.6L49.9,77.3L49.7,77.5L49.1,77.1L48.0,75.7L46.9,72.6L46.6,71.0L46.4,71.0L46.3,72.8L46.5,73.3L46.5,74.0L46.9,75.1L48.0,77.5L49.3,79.4L49.1,79.7L48.1,79.0L46.6,76.6L45.5,73.9L44.9,71.5L44.6,70.8L44.4,71.4L44.6,73.5L45.0,75.3L45.5,76.3L45.5,76.5L46.9,79.1L48.8,81.3L49.0,81.9L48.7,81.9L48.0,81.5L45.8,78.8L45.0,77.3L44.9,76.9L44.4,76.0L44.3,75.3L44.0,74.9L43.5,73.0L43.2,71.6L43.1,68.8L42.9,68.9L42.7,69.8L42.6,72.5L43.4,76.1L44.5,78.4L46.5,81.3L48.6,83.4L48.8,83.7L49.1,84.0L49.1,84.3L48.1,83.9L46.0,82.0L44.1,79.4L43.3,77.7L42.7,76.2L42.5,75.8L41.7,73.1L41.6,71.7L41.4,70.6L41.2,67.8L41.0,67.8L40.8,68.7L40.7,71.6L40.9,73.9L41.6,76.2L41.8,77.2L43.4,80.1L45.3,82.6L48.3,85.4L49.4,86.1L50.1,87.0L49.7,87.0L48.7,86.5L46.6,85.0L44.9,83.4L43.5,81.6L42.5,80.0L41.8,78.5L41.5,78.1L41.4,77.4L40.9,76.7L40.8,76.1L40.4,74.9L40.1,73.1L39.8,72.5L39.6,70.1L39.6,67.5L39.9,66.5L39.9,65.7L40.6,63.3L41.1,62.6L41.1,62.1L41.3,61.6L41.6,61.4L42.6,59.4L44.7,56.9L45.2,56.5L46.4,55.3Z M50.0,53.1L49.8,53.5L49.5,53.3Z M56.8,52.8L53.6,53.6L53.3,53.3L54.5,52.8L55.0,52.8L56.1,52.4L56.5,52.4Z M56.4,50.9L56.0,51.2L53.5,51.7L51.6,52.6L51.0,52.4L52.1,51.7L53.0,51.5L53.6,51.1L54.1,51.1L55.3,50.7Z M48.2,50.2L48.0,50.5L47.5,50.4L48.0,50.0Z M55.3,49.4L55.0,49.6L54.2,49.7L51.3,50.7L51.1,50.9L50.4,51.0L49.8,51.5L49.4,51.3L50.1,50.7L51.0,50.5L51.2,50.2L52.0,50.0L52.5,49.6L53.7,49.5L54.3,49.2Z M54.7,47.6L54.2,48.0L53.0,48.1L51.7,48.9L50.6,49.1L50.1,49.5L49.1,49.7L49.1,49.9L48.4,50.1L48.1,50.0L48.2,49.7L48.7,49.6L49.3,49.2L50.1,48.9L50.4,48.6L50.9,48.5L51.7,48.1L52.6,47.9L53.5,47.5Z M60.1,45.3L60.2,45.2L61.7,45.2L62.9,45.6L61.4,45.6Z M60.8,43.3L63.4,43.4L65.5,43.8L67.5,44.4L68.1,44.7L68.4,45.2L67.4,45.1L65.7,44.5L65.2,44.5L64.0,44.2L63.3,44.2L62.5,43.9L60.9,43.8L60.8,43.7Z M86.5,35.1L86.9,35.2L87.2,35.5L87.0,35.7L86.4,35.3Z M85.8,34.5L85.9,34.9L85.6,34.7Z M78.7,28.2L79.1,28.3L79.1,28.6L78.7,28.5Z M71.9,27.4L73.8,27.8L74.9,28.3L75.3,28.3L76.8,28.9L79.9,30.4L83.0,32.3L83.6,32.9L84.9,33.6L85.0,34.0L84.3,33.9L83.2,32.9L78.1,30.4L77.7,30.3L75.9,29.3L71.9,27.8Z M76.0,27.1L76.4,27.1L78.4,27.9L78.4,28.2L77.9,28.2L76.0,27.3Z M74.2,26.3L75.0,26.6L75.0,26.9L74.1,26.5Z M52.0,9.1L51.5,9.0L50.2,9.1L48.4,9.5L47.4,9.6L47.1,9.8L45.8,10.0L42.6,10.8L38.4,12.2L38.3,12.3L34.8,13.6L33.6,14.4L31.8,15.1L31.5,15.4L28.3,17.1L26.8,18.1L26.5,18.8L26.8,18.9L27.5,18.7L29.6,17.3L31.2,16.5L32.5,15.7L38.5,13.1L39.3,13.0L41.9,12.0L43.1,11.8L46.3,10.9L46.8,10.9L47.6,10.6L48.4,10.6L49.2,10.3L50.1,10.3L50.7,10.1L51.4,10.0L52.1,9.5Z M71.3,8.7L73.7,9.5L75.3,9.8L77.2,10.4L78.0,10.5L79.2,11.0L80.0,11.1L80.9,11.5L81.7,11.6L83.6,12.5L84.4,12.7L85.1,13.2L85.9,13.2L85.6,12.9L84.8,12.6L84.1,12.2L83.1,11.9L80.2,10.6L79.1,10.3L78.8,10.1L77.6,9.8L76.6,9.3L76.1,9.3L74.7,8.9L74.0,8.8L73.7,8.6L72.5,8.5L72.0,8.3L71.5,8.3Z M97.2,7.7L97.2,7.9L99.9,9.5L101.8,11.0L102.4,11.0L102.4,10.6L98.5,8.0L98.4,7.7Z M93.8,7.7L93.9,8.0L94.8,8.3L96.2,9.4L97.2,9.9L99.2,11.3L99.7,11.5L104.1,14.9L104.3,14.9L105.2,15.8L106.0,16.4L106.4,16.4L106.4,16.2L103.5,13.4L100.7,11.3L96.4,8.5L95.4,8.0L95.2,7.7Z M90.1,7.7L90.2,8.0L93.1,9.4L94.6,10.4L95.7,11.0L96.3,11.5L96.7,11.6L98.0,12.4L102.8,16.0L105.4,18.2L107.0,19.8L107.7,20.0L107.8,19.8L104.4,16.4L103.7,16.0L100.6,13.3L99.2,12.4L98.3,11.7L96.0,10.4L94.5,9.3L93.8,9.1L92.4,8.1L91.8,8.0L91.7,7.7Z M85.6,7.7L85.6,7.9L88.3,8.9L90.8,10.3L92.1,10.9L98.0,14.5L104.1,19.4L109.0,24.2L109.5,24.3L109.4,23.9L108.4,22.7L106.1,20.6L105.8,20.1L102.4,17.0L99.2,14.4L94.8,11.5L94.3,11.4L93.7,10.9L90.9,9.5L89.6,8.7L87.9,8.0L87.8,7.7Z M54.0,7.7L47.6,7.7L47.5,8.0L46.1,8.1L45.4,8.4L44.5,8.5L43.0,8.9L42.7,9.1L42.4,9.1L39.0,10.1L34.8,11.8L33.6,12.5L29.9,14.3L28.7,15.0L28.4,15.3L28.4,15.6L29.3,15.5L30.3,14.9L30.9,14.7L31.3,14.4L33.2,13.6L35.0,12.6L37.4,11.8L38.4,11.3L41.8,10.3L42.3,10.1L45.0,9.5L45.3,9.3L48.0,8.9L48.8,8.6L52.5,8.2L54.0,7.9Z M44.0,7.7L40.4,7.7L40.3,8.0L35.7,9.5L35.0,10.0L34.7,10.0L33.3,10.6L32.9,11.0L32.4,11.1L31.1,11.7L30.8,12.5L33.0,11.8L33.4,11.4L34.6,11.1L35.4,10.6L35.8,10.6L37.8,9.7L39.3,9.3L41.6,8.5L44.0,7.9Z M35.0,8.3L35.1,8.7L35.4,8.7L36.3,8.3L38.0,7.9L38.0,7.7L35.4,7.7L35.4,7.9Z" fill="#000" fill-rule="evenodd"/>
</svg>