<svg xmlns="http://www.w3.org/2000/svg" viewBox="0 0 128 128" width="128" height="128">
  <path d="M29.8,120.2L30.5,120.2L30.0,120.1Z M25.8,120.2L26.7,120.2L26.4,120.0L26.0,120.1Z M32.1,120.2L34.0,120.2L34.2,119.9L32.7,119.9L32.4,119.9Z M32.1,61.0L26.1,65.0L25.7,65.5L25.7,66.3L26.8,67.7L27.8,69.3L29.5,71.6L29.9,72.4L35.4,80.1L36.6,82.1L37.0,82.5L37.4,83.3L39.1,85.7L39.2,86.0L41.7,89.5L42.2,90.4L42.6,90.8L42.8,91.1L43.9,92.7L45.3,94.9L53.1,105.8L53.8,106.9L54.8,108.3L55.5,109.4L56.3,110.4L56.6,111.0L57.5,112.2L58.0,113.0L59.5,114.9L60.2,116.2L62.1,118.4L62.8,119.0L63.5,119.1L64.4,118.4L65.4,117.9L66.2,117.1L67.2,116.6L67.5,116.3L69.2,115.3L69.5,114.9L69.5,114.4L66.4,109.6L66.0,109.2L64.3,106.5L63.5,105.6L63.5,105.3L62.8,104.5L61.8,102.8L60.7,101.5L59.5,99.6L58.9,98.9L57.5,96.6L57.1,96.4L56.9,95.8L56.1,94.8L55.8,94.1L55.4,93.7L54.5,92.2L53.5,91.1L51.5,88.0L50.7,86.9L50.5,86.5L50.1,86.1L49.7,85.3L48.6,83.9L47.2,81.7L44.8,78.4L44.1,77.2L43.1,75.9L41.1,72.7L40.0,71.3L37.4,67.4L37.2,67.0L36.5,66.2L36.3,65.7L35.8,65.3L34.3,62.8L32.7,60.9Z M94.0,21.9L93.6,22.0L93.4,22.3L93.3,23.4L93.4,51.8L93.6,53.6L93.5,56.5L93.6,61.9L93.6,75.4L93.8,79.7L93.8,86.0L94.0,86.5L94.4,86.7L102.0,86.6L102.5,86.2L102.7,84.6L102.7,69.4L102.5,66.6L102.6,64.9L102.4,59.0L102.3,42.4L102.2,38.8L102.1,23.1L101.9,22.2L101.3,22.1Z M80.8,12.5L80.3,12.9L80.2,13.1L80.4,25.9L80.3,34.1L80.5,37.1L80.4,41.0L80.6,48.2L80.5,53.2L80.8,75.2L80.7,77.2L81.0,77.6L89.2,77.7L89.6,77.5L89.7,77.1L89.6,73.7L89.8,68.9L89.6,63.3L89.6,48.6L89.5,46.6L89.6,44.2L89.3,35.2L89.4,32.5L89.2,20.4L89.2,13.6L89.1,13.2L88.7,12.8L88.3,12.7Z M54.3,11.9L53.8,12.3L53.8,12.5L53.8,21.4L53.9,29.6L53.8,35.5L54.1,48.1L54.0,52.0L54.1,56.5L54.1,60.1L54.2,76.6L54.5,77.4L54.8,77.6L63.1,77.7L63.4,77.5L63.5,77.1L63.6,75.0L63.6,58.9L63.2,31.2L63.3,25.2L63.2,20.9L63.2,12.8L62.9,12.1L62.6,12.0Z M67.9,9.1L67.4,9.4L67.2,9.9L67.2,31.0L67.4,35.5L67.4,50.3L67.5,55.1L67.5,56.4L67.6,74.0L67.8,74.3L68.2,74.4L75.5,74.7L76.2,74.6L76.3,74.4L76.5,73.4L76.3,37.9L76.2,37.6L76.3,32.8L76.2,26.8L76.2,20.8L76.1,18.8L76.2,17.3L76.0,15.6L75.9,9.8L75.6,9.3L74.9,9.1L73.0,9.2L71.2,9.1Z" fill="#000" fill-rule="evenodd"/>
</svg>