<svg xmlns="http://www.w3.org/2000/svg" viewBox="0 0 128 128" width="128" height="128">
  <path d="M50.3,41.8L46.1,42.7L44.1,43.4L41.5,44.6L39.7,45.8L37.6,47.3L36.8,48.4L35.4,49.8L32.7,53.9L32.2,55.4L31.3,57.1L31.3,57.7L30.9,58.8L30.4,61.7L30.4,64.5L30.6,65.3L30.7,66.7L31.1,68.9L31.8,71.2L32.7,73.2L33.6,74.7L36.6,78.6L38.9,80.7L39.8,81.2L40.4,81.7L41.3,82.2L41.7,82.3L42.1,82.6L44.2,83.5L44.8,83.7L45.0,83.9L46.1,84.1L46.5,84.4L47.8,84.5L48.8,84.8L50.3,85.0L56.0,84.8L56.5,84.6L57.6,84.4L58.6,84.0L58.9,84.0L59.6,83.6L60.7,83.4L61.7,83.0L62.6,82.3L63.9,81.7L67.1,79.1L69.7,76.1L71.3,73.6L72.3,71.5L73.1,68.4L73.3,68.2L73.8,65.9L73.8,62.0L73.7,61.4L73.7,60.6L72.9,56.6L72.2,55.1L72.1,54.4L71.5,53.5L71.2,52.9L70.2,51.2L68.9,49.4L67.4,47.8L64.7,45.6L64.0,45.3L62.2,44.1L58.8,42.7L57.8,42.6L57.0,42.3L56.4,42.3L55.5,42.0L53.5,41.8Z M68.6,9.2L60.8,9.2L58.4,9.5L57.2,9.5L56.3,9.6L55.7,9.9L54.4,10.0L51.5,10.5L51.0,10.8L48.6,11.4L47.6,11.8L47.0,11.8L45.2,12.6L43.9,12.9L41.7,14.0L40.3,14.5L39.0,15.3L38.4,15.5L37.5,16.2L36.7,16.5L35.5,17.4L35.6,17.8L36.1,17.7L36.7,17.3L38.1,16.8L39.4,16.2L40.1,16.0L40.8,15.6L43.4,15.0L45.7,14.2L50.8,13.3L56.4,12.8L58.0,13.0L59.1,12.9L63.8,13.2L65.4,13.6L66.7,13.7L67.3,14.0L68.9,14.2L69.8,14.5L71.6,15.0L76.1,16.6L76.5,16.8L76.9,16.9L77.4,17.2L77.6,17.2L79.9,18.3L80.1,18.6L81.7,19.3L86.0,21.9L90.0,25.1L90.2,25.2L93.9,28.8L94.0,29.1L97.6,33.1L98.8,35.0L99.0,35.6L99.8,36.5L100.1,37.3L100.7,38.2L100.9,38.7L101.5,39.4L102.0,40.6L103.3,43.2L103.8,44.6L104.1,45.8L103.8,46.1L103.2,46.2L102.6,45.6L101.2,42.0L100.8,41.6L99.3,38.4L99.0,38.2L98.1,36.5L95.6,32.9L92.8,29.7L90.6,27.5L88.5,25.6L88.2,25.5L87.8,25.0L84.0,22.2L82.8,21.7L82.2,21.2L79.8,19.8L78.8,19.4L76.9,18.4L74.8,17.6L74.1,17.4L73.3,17.0L72.7,16.9L70.7,16.2L68.6,15.8L68.0,15.5L64.4,14.8L60.6,14.4L55.0,14.4L53.6,14.5L52.9,14.6L51.8,14.6L48.2,15.1L47.9,15.3L46.5,15.4L46.0,15.7L44.0,16.0L42.3,16.7L40.9,17.0L36.1,19.0L33.8,20.3L32.2,20.9L31.3,21.7L30.4,22.1L29.8,22.6L27.8,23.9L25.4,26.0L23.5,27.9L23.2,28.4L23.6,28.4L27.3,25.7L28.0,25.4L29.1,24.7L32.2,23.0L32.5,23.0L34.0,22.3L37.4,21.1L38.7,20.8L39.4,20.4L40.5,20.3L40.7,20.1L42.1,19.9L44.0,19.5L45.2,19.4L45.6,19.2L49.9,18.8L52.5,18.8L57.6,19.1L59.1,19.5L60.4,19.6L61.2,19.9L61.8,20.0L65.6,21.2L67.1,21.6L68.9,22.4L69.3,22.7L70.3,23.0L74.6,25.3L75.7,26.2L77.0,26.9L79.2,28.7L79.7,29.0L80.2,29.6L82.1,31.1L83.3,32.4L85.4,34.7L87.5,37.4L88.9,39.6L90.3,42.2L90.5,42.4L90.6,42.8L91.8,45.0L92.2,46.3L92.8,47.4L92.9,48.4L92.4,48.7L92.0,48.6L91.7,48.4L90.7,46.3L90.2,44.8L89.9,44.4L88.8,42.2L88.1,41.1L87.8,40.5L87.0,39.2L86.3,38.4L86.3,38.3L85.6,37.4L84.8,36.5L83.9,35.1L79.7,30.8L76.8,28.4L73.1,26.1L72.6,25.9L71.6,25.2L69.2,24.1L67.7,23.3L65.9,22.8L63.3,21.8L60.0,21.0L57.2,20.7L55.6,20.3L48.8,20.3L46.3,20.4L42.9,20.9L37.6,22.3L36.1,23.0L34.9,23.3L30.5,25.5L30.1,25.6L28.2,26.7L27.6,27.3L27.3,27.4L26.3,28.1L25.9,28.2L24.3,29.6L22.9,30.5L19.0,34.1L17.5,35.9L15.7,38.4L15.6,39.0L15.3,39.2L14.8,40.5L14.3,41.3L14.4,41.7L14.6,41.7L15.8,40.0L16.3,39.6L16.9,38.8L17.9,37.8L18.8,36.6L21.9,33.8L23.0,33.1L25.0,31.5L26.5,30.6L29.1,29.2L30.2,28.8L30.5,28.5L30.8,28.5L32.2,27.8L37.1,26.2L40.2,25.7L41.3,25.3L43.3,25.3L44.3,25.0L49.2,25.0L51.6,25.4L53.5,25.5L57.3,26.4L58.3,26.8L58.6,26.8L60.1,27.3L60.9,27.8L61.2,27.8L61.7,28.1L63.3,28.7L64.8,29.4L65.5,30.0L66.1,30.2L68.5,31.6L73.3,35.6L76.0,38.4L77.8,41.0L78.8,42.3L81.3,46.8L82.6,50.1L82.6,50.7L82.2,51.0L81.9,51.0L81.5,50.7L80.8,49.4L80.1,47.6L79.5,46.5L78.9,45.2L78.0,43.7L77.6,43.3L77.1,42.3L76.7,41.9L76.1,40.9L75.4,40.2L74.8,39.3L71.2,35.6L67.1,32.4L62.4,29.8L58.7,28.3L57.7,28.1L56.3,27.6L55.5,27.5L55.0,27.3L53.5,27.1L52.4,26.7L51.5,26.6L50.3,26.6L49.3,26.4L44.9,26.3L44.3,26.5L43.1,26.5L41.7,26.7L41.0,26.7L38.5,27.4L37.8,27.4L36.7,27.9L36.3,27.9L33.6,28.7L33.3,28.9L32.4,29.2L31.8,29.6L31.2,29.8L28.1,31.4L24.5,33.7L22.4,35.3L20.2,37.3L18.2,39.4L15.6,42.5L13.9,45.4L11.9,49.4L10.8,52.2L10.3,54.7L10.2,56.3L10.2,58.3L10.4,60.0L10.8,61.0L11.5,61.8L12.1,62.2L12.6,62.2L13.0,61.9L13.1,61.3L13.4,58.7L13.6,58.0L13.6,57.5L14.0,55.7L14.8,53.3L15.8,50.7L17.7,47.2L19.5,44.8L21.7,42.3L25.1,39.2L25.5,39.0L26.8,38.0L27.1,37.9L29.1,36.5L30.3,36.0L30.7,35.9L31.2,35.6L34.0,34.4L36.9,33.7L37.4,33.4L38.4,33.3L39.4,33.0L43.7,32.7L47.2,32.8L48.8,33.1L49.7,33.1L51.0,33.5L52.3,33.7L54.2,34.4L55.1,34.6L56.6,35.3L57.5,35.6L57.7,35.8L58.4,36.0L60.0,36.9L60.9,37.7L61.2,37.8L63.4,39.3L67.1,42.9L69.4,45.8L70.7,47.8L71.6,49.5L72.8,52.2L73.8,55.2L74.6,59.3L74.8,61.7L74.7,66.3L74.3,68.6L74.2,69.6L73.9,70.1L73.4,72.6L72.8,74.3L72.1,75.5L71.9,76.4L71.6,76.7L70.5,79.0L67.1,83.5L65.3,85.2L64.6,86.1L62.3,88.0L59.0,90.2L56.8,91.3L55.6,91.7L55.1,92.0L52.4,92.9L51.2,93.1L50.6,93.4L46.0,94.1L43.7,94.2L42.6,94.0L40.6,94.0L35.9,93.1L35.0,92.7L34.0,92.5L31.1,91.4L26.7,88.9L23.8,86.8L22.4,85.4L19.2,81.9L18.9,81.3L18.3,80.7L18.1,80.1L17.2,78.9L16.4,77.4L16.3,77.0L15.4,75.3L15.2,74.6L14.9,74.1L13.6,69.6L13.0,65.1L12.7,64.6L12.1,64.6L11.1,65.7L10.2,67.4L9.7,69.4L9.7,73.5L10.0,76.2L10.8,79.5L13.0,85.8L13.3,86.1L13.8,87.3L16.4,92.2L18.0,94.5L18.3,95.1L19.1,96.3L19.8,97.0L20.5,98.2L23.1,101.2L26.3,104.5L28.6,106.3L30.0,107.6L30.4,107.8L34.0,110.4L35.0,110.9L35.3,111.2L36.4,111.7L37.3,112.4L38.1,112.7L38.6,113.1L39.8,113.6L40.3,113.9L41.5,114.3L43.3,115.2L44.3,115.4L47.0,116.6L49.6,117.1L50.3,117.5L51.7,117.6L53.1,118.0L54.4,118.1L55.7,118.5L57.0,118.5L58.9,118.8L63.1,119.1L64.7,118.9L66.6,119.0L71.9,118.4L77.1,117.4L81.7,116.0L84.7,114.8L85.2,114.5L85.9,114.4L87.3,113.5L90.1,112.2L92.2,110.8L93.3,110.3L93.6,110.0L94.4,109.7L95.3,108.8L98.0,107.0L100.7,104.6L105.3,100.0L106.1,99.0L106.3,98.6L107.6,97.0L108.5,95.6L108.9,95.2L108.9,95.1L109.6,94.3L112.1,90.0L113.3,87.3L114.0,86.2L114.9,83.7L115.3,82.9L116.6,79.0L117.2,76.3L117.7,74.5L118.1,72.2L118.1,71.0L118.5,69.2L118.6,66.5L118.7,65.6L118.7,61.8L118.6,60.6L118.5,57.7L117.8,53.1L117.4,51.2L117.1,50.5L116.9,49.3L116.8,49.0L116.5,47.8L116.1,47.0L115.7,45.4L114.9,43.4L114.6,42.5L111.9,36.9L110.8,35.2L110.6,34.7L109.7,33.4L109.6,33.1L105.9,28.2L102.4,24.4L99.7,21.9L99.1,21.6L97.5,20.2L96.5,19.6L96.0,19.1L94.7,18.3L94.3,17.9L91.6,16.4L90.8,15.8L89.5,15.3L88.9,14.9L85.9,13.6L85.2,13.2L81.9,12.1L80.6,11.4L78.9,11.1L75.9,10.2L74.7,10.1L73.0,9.7L72.1,9.7L70.9,9.5L69.8,9.5Z" fill="#000" fill-rule="evenodd"/>
</svg>