<svg xmlns="http://www.w3.org/2000/svg" viewBox="0 0 128 128" width="128" height="128">
  <path d="M72.5,9.1L70.9,9.2L68.9,9.6L66.8,10.3L65.8,10.9L65.0,12.0L64.4,13.0L64.4,13.4L64.1,13.6L63.4,15.1L63.1,15.5L63.0,15.9L61.9,18.0L61.9,18.3L61.5,19.0L60.8,20.7L60.8,20.9L60.4,21.6L59.8,23.7L59.4,24.3L58.4,27.7L56.7,34.5L56.5,35.8L56.3,36.5L56.0,39.1L55.9,39.3L55.7,40.6L55.2,45.5L54.9,45.9L54.1,45.9L53.7,45.1L53.5,43.5L53.3,42.6L53.1,39.3L52.8,37.5L52.7,28.8L53.1,21.6L53.5,16.4L53.7,15.7L53.7,15.1L53.5,14.8L52.9,14.7L51.4,15.4L51.2,15.4L50.9,15.6L49.5,16.2L48.0,17.2L47.2,18.0L46.6,19.8L46.5,20.4L46.2,20.9L46.2,21.5L45.9,22.4L45.5,23.9L45.1,25.8L44.8,27.3L44.6,28.8L43.8,32.6L43.7,33.9L43.3,36.0L43.0,39.4L43.0,46.3L43.3,47.7L43.5,51.6L43.0,52.4L42.7,52.5L42.3,52.4L41.8,51.4L40.2,47.5L39.3,44.4L38.2,39.2L37.6,34.5L37.5,33.9L37.5,31.7L37.2,29.8L37.2,27.8L36.8,27.5L36.3,27.6L34.6,28.9L32.3,31.3L31.6,32.4L31.1,36.2L30.9,40.5L31.0,47.4L31.5,53.6L32.8,61.0L34.1,66.4L35.8,71.6L36.2,72.3L36.8,74.0L38.6,77.4L41.0,81.0L42.5,82.6L42.8,83.2L43.7,84.1L46.6,86.8L47.7,87.6L48.1,87.9L51.1,89.6L54.6,90.9L57.0,91.5L57.3,91.9L57.0,92.2L55.3,92.9L53.7,93.7L50.9,95.9L48.8,97.9L47.0,100.3L46.5,101.2L45.9,102.0L45.1,103.4L44.5,104.3L44.4,104.7L43.7,106.2L43.4,107.1L43.0,107.8L42.3,110.0L41.8,111.2L41.7,111.9L41.2,113.2L41.2,113.5L41.0,113.9L40.8,114.9L40.1,117.4L40.1,118.0L40.4,118.4L40.6,118.4L46.6,118.7L53.8,118.7L75.4,119.1L80.6,119.1L81.4,118.8L82.8,119.0L83.4,118.8L83.6,118.4L83.6,117.3L83.2,116.2L82.8,114.3L82.0,112.2L81.8,111.1L79.7,106.2L79.4,105.7L79.2,105.1L77.4,101.7L77.2,101.6L76.9,101.0L74.9,98.3L72.2,95.6L70.5,94.3L70.0,94.1L69.0,93.3L67.8,92.6L67.3,92.5L66.9,92.2L66.9,91.9L67.2,91.8L69.8,91.3L74.0,90.1L76.7,88.9L78.6,87.8L79.2,87.6L81.0,86.3L82.5,85.0L82.8,84.9L83.8,83.9L84.0,83.8L86.1,81.6L87.2,80.1L87.2,79.5L82.9,79.1L79.1,78.4L77.1,77.8L74.6,76.7L74.4,76.5L74.4,76.3L74.6,76.0L75.1,76.0L76.4,76.3L76.8,76.6L77.1,76.6L78.6,77.1L82.5,77.7L86.9,77.7L88.7,77.4L89.6,77.0L90.3,76.2L91.9,73.7L94.8,67.9L96.6,63.0L97.2,60.4L97.3,58.6L96.7,57.3L95.0,54.8L93.7,53.5L93.3,53.1L92.9,53.1L92.5,53.5L92.2,54.2L89.9,58.0L88.8,59.6L86.8,61.5L86.0,62.1L84.6,62.5L83.6,62.6L81.7,62.1L80.8,61.5L79.9,60.5L78.9,58.7L78.3,56.7L78.0,54.9L78.1,51.1L78.5,48.4L78.5,47.9L78.8,47.3L78.9,46.2L79.2,44.9L79.6,42.9L82.0,34.7L82.2,34.3L82.9,32.0L84.0,29.2L84.7,27.2L85.0,26.5L85.4,25.4L86.1,23.8L86.5,22.7L87.1,21.7L88.3,19.0L88.3,18.5L87.9,18.0L85.0,17.9L82.4,18.3L81.4,18.9L80.7,19.7L77.7,24.1L76.4,26.4L75.1,28.5L73.9,30.9L73.5,31.4L73.1,32.7L72.0,34.8L70.5,38.2L69.4,40.8L69.1,41.9L68.9,42.3L68.1,44.9L67.7,45.2L67.2,45.2L66.8,44.9L66.6,43.7L66.7,36.1L66.9,34.8L66.9,33.5L67.5,29.1L68.5,24.0L69.2,21.5L69.4,20.3L70.5,16.9L70.7,15.8L71.3,14.3L72.0,12.1L72.3,11.8L72.3,11.6L72.8,10.3L72.9,9.4Z M63.2,58.4L64.3,58.0L65.1,57.8L67.2,57.8L68.4,58.1L69.4,58.5L70.8,59.3L71.6,60.1L72.3,61.0L73.2,62.6L73.5,63.6L73.7,65.5L73.4,67.1L73.3,67.3L73.1,68.2L72.8,68.5L72.6,69.2L71.1,70.9L70.7,71.1L69.5,72.0L69.0,72.0L68.8,71.7L69.6,70.4L69.8,69.6L70.0,68.6L69.8,66.9L69.0,65.0L68.0,64.0L67.1,63.3L65.8,62.9L65.0,62.7L63.5,62.8L62.2,63.2L61.2,63.8L60.0,65.1L59.6,65.7L59.2,66.2L58.9,66.1L58.9,63.9L59.3,62.5L60.0,61.1L61.6,59.3L61.8,59.3Z" fill="#000" fill-rule="evenodd"/>
</svg>