<svg xmlns="http://www.w3.org/2000/svg" viewBox="0 0 128 128" width="128" height="128">
  <path d="M31.4,113.6L31.1,113.9L30.8,114.4L31.8,114.4L31.8,117.3L32.0,117.7L32.0,113.8L31.8,113.6Z M38.0,113.5L37.7,113.5L37.2,114.0L37.1,114.4L37.0,117.2L37.1,117.6L37.5,118.0L37.9,118.2L38.6,118.2L39.3,118.0L39.5,117.5L39.4,117.0L39.3,116.9L39.2,117.3L38.9,117.6L38.6,117.7L38.0,117.7L37.6,117.6L37.4,117.3L37.4,116.4L37.6,116.0L38.0,115.7L38.6,115.7L39.1,116.0L39.4,116.0L39.4,115.8L38.9,115.3L38.7,115.2L37.7,115.2L37.4,114.9L37.4,114.4L37.8,114.0L38.6,113.9L38.9,114.0L39.1,114.3L39.4,114.4L39.4,114.0L39.2,113.7L38.8,113.5Z M34.0,113.5L33.7,113.7L33.6,114.1L33.6,115.5L33.8,115.7L34.2,115.7L34.4,115.5L35.1,115.5L35.4,115.7L35.8,116.3L35.8,116.9L35.7,117.4L35.3,117.7L34.4,117.7L33.9,117.2L33.6,117.2L33.6,117.4L34.0,118.0L34.7,118.2L35.1,118.2L35.5,118.0L36.1,117.2L36.1,116.5L35.9,115.9L35.5,115.2L35.1,115.1L34.2,115.0L34.0,114.8L34.0,114.4L34.3,114.0L35.5,113.9L35.6,113.8L35.6,113.6L35.0,113.5Z M86.3,108.2L86.0,108.2L85.9,108.4L85.7,109.2L84.9,110.7L83.8,113.4L80.9,118.8L80.9,119.1L81.0,119.2L85.8,119.3L86.3,118.8L86.6,116.9L86.7,114.0L86.7,111.9L86.6,111.2L86.5,108.8L86.4,108.4Z M76.8,9.2L72.9,9.2L72.4,9.3L72.1,9.6L72.1,12.8L72.3,16.0L72.7,18.3L72.9,18.4L73.5,17.5L73.7,16.7L74.3,15.6L74.6,14.6L75.6,12.5L75.8,11.9L76.8,10.0L76.9,9.4Z M86.6,9.0L80.4,9.0L79.7,9.2L79.0,10.0L78.9,10.3L78.1,11.6L76.9,14.0L76.8,14.4L76.4,15.1L73.8,21.5L73.4,22.9L73.4,23.2L73.0,24.1L72.9,24.8L72.8,25.0L72.3,27.0L72.1,28.4L71.8,29.5L71.6,32.0L71.6,33.4L71.3,33.9L70.7,34.0L52.7,34.1L52.3,34.3L48.3,38.7L46.6,40.4L46.1,41.0L44.0,43.4L42.3,45.1L41.8,45.3L41.2,45.4L31.1,45.4L30.5,45.5L30.3,45.7L30.2,58.3L30.2,59.1L30.1,65.2L30.2,71.1L30.0,91.9L30.2,94.2L30.8,94.4L71.5,94.4L71.8,94.7L72.0,95.1L72.3,98.4L72.5,99.0L72.9,101.5L73.2,102.4L73.5,102.4L73.9,102.0L74.0,101.6L75.3,98.9L75.5,98.2L77.1,95.0L77.8,94.4L79.1,94.4L79.3,94.6L79.3,95.1L78.2,97.2L77.7,98.2L75.0,104.0L74.6,105.2L73.9,107.1L73.8,107.9L73.1,109.9L72.6,112.7L72.4,113.3L72.1,116.8L72.1,118.6L72.4,119.1L72.7,119.2L77.9,119.3L78.3,119.1L78.9,118.4L79.6,117.1L80.1,116.3L80.9,114.6L82.6,111.4L84.9,106.1L86.5,100.4L87.1,97.1L87.2,95.3L87.4,94.7L87.7,94.4L97.8,94.3L98.1,94.0L98.0,62.5L97.8,59.2L97.9,50.7L97.8,48.2L97.8,45.9L97.7,45.5L97.3,45.2L91.9,45.2L91.7,45.1L91.6,44.8L92.5,43.8L94.7,41.5L94.9,41.1L96.3,39.8L97.6,38.3L97.8,37.9L97.7,34.6L97.4,34.1L96.9,34.0L91.7,34.0L88.7,33.9L86.8,34.0L86.3,33.8L86.1,33.5L86.3,26.5L86.1,24.0L86.0,23.7L85.7,23.8L85.5,24.1L85.2,24.8L84.5,26.2L84.0,27.5L83.7,27.9L82.7,29.9L82.4,30.3L82.2,30.7L81.0,32.8L80.6,33.4L79.9,33.9L79.1,34.0L78.7,33.7L78.7,33.4L79.3,32.1L80.9,29.3L81.0,28.9L81.3,28.5L82.4,26.1L83.0,24.6L83.7,23.3L84.3,21.6L84.9,20.3L85.1,19.5L85.3,19.2L86.0,17.0L86.6,14.6L87.2,11.1L87.2,9.4L87.0,9.2Z M71.8,83.6L72.0,83.2L72.4,82.9L87.2,82.9L93.6,83.1L94.1,83.4L94.1,83.8L94.3,89.8L93.9,90.3L93.6,90.4L90.8,90.4L82.9,90.3L72.3,90.3L71.9,90.0L71.8,89.8Z M34.7,71.7L40.9,71.7L41.4,71.7L41.7,72.2L41.7,89.0L41.6,90.0L41.2,90.3L35.1,90.4L34.7,90.3L34.3,90.0L34.1,87.4L34.1,80.1L34.3,74.5L34.2,73.0L34.4,72.0Z M71.8,72.0L72.1,71.7L72.9,71.6L92.8,71.6L93.6,71.7L94.0,72.1L94.1,73.2L94.0,78.4L93.7,78.7L93.4,78.8L72.3,78.7L71.8,78.3Z M45.7,71.8L46.1,71.7L49.4,71.6L63.2,71.7L63.7,72.0L63.9,89.6L63.7,90.0L63.4,90.3L62.6,90.4L46.1,90.4L45.9,90.3L45.5,89.9L45.4,72.4Z M71.8,61.1L71.9,60.6L72.1,60.4L73.8,60.2L93.6,60.3L93.9,60.8L93.9,67.2L93.5,67.7L91.9,67.8L72.3,67.6L72.1,67.5L71.8,67.2Z M34.7,49.3L41.2,49.3L41.7,49.6L41.8,51.2L41.8,64.4L41.7,66.9L41.6,67.3L41.1,67.6L35.1,67.6L34.6,67.5L34.3,67.1L34.3,52.2L34.4,49.8L34.5,49.4Z M71.8,49.6L72.1,49.2L72.9,49.1L93.3,49.1L93.8,49.4L93.9,49.9L93.9,55.5L93.2,56.1L72.2,56.1L71.9,55.9L71.8,55.5Z M92.0,38.1L92.0,38.5L86.0,44.8L85.4,45.2L64.4,45.3L63.8,45.6L63.7,66.9L63.4,67.5L61.2,67.7L46.7,67.7L45.9,67.6L45.5,67.2L45.3,64.4L45.4,47.7L46.1,46.6L47.5,45.2L49.8,42.6L50.0,42.3L50.6,41.7L52.5,39.6L53.7,38.3L54.3,38.1L55.5,38.0L62.0,38.1L68.0,37.9L77.6,38.0L88.0,37.9L91.7,37.9Z" fill="#000" fill-rule="evenodd"/>
</svg>