<svg xmlns="http://www.w3.org/2000/svg" viewBox="0 0 128 128" width="128" height="128">
  <path d="M28.9,97.2L28.1,97.5L27.2,98.8L27.0,99.4L27.1,100.5L27.5,101.1L28.1,101.7L29.0,102.1L29.8,102.2L30.7,101.9L31.5,101.1L31.9,100.3L31.9,98.9L31.6,98.2L30.8,97.5L30.1,97.2Z M84.6,96.3L83.7,96.8L83.1,97.4L82.8,97.8L82.6,99.2L83.0,100.0L83.9,100.7L84.4,101.0L85.5,101.0L86.3,100.7L87.1,99.8L87.3,99.0L87.2,97.9L86.8,97.2L86.2,96.7L85.4,96.3Z M74.4,118.2L74.0,117.7L73.3,117.5L71.2,116.0L69.0,113.8L67.8,112.4L66.4,110.3L64.8,107.4L63.8,104.2L63.3,101.2L63.3,80.6L63.2,80.0L62.9,79.6L58.1,79.5L53.8,79.7L33.2,79.8L29.1,80.0L28.2,80.1L27.3,80.1L24.9,80.6L23.2,81.3L22.8,81.3L20.1,82.5L17.7,84.1L16.9,84.9L16.5,85.1L14.1,87.7L12.3,90.4L12.2,90.9L11.4,92.6L10.4,95.9L10.1,98.7L10.2,102.3L10.5,103.9L11.3,106.7L11.7,107.2L12.5,109.3L15.1,112.7L17.3,114.8L19.5,116.2L21.6,117.2L23.9,118.1L25.4,118.4L29.1,118.9L45.7,118.5L65.8,118.5L73.9,118.7L74.4,118.5Z M29.1,95.0L30.7,95.1L32.2,95.8L33.6,97.3L34.2,98.6L34.3,99.4L34.1,100.7L33.5,102.0L33.1,102.4L31.7,103.7L29.8,104.2L29.0,104.2L27.1,103.7L26.5,103.2L25.8,102.5L25.1,101.4L24.8,99.9L24.9,98.9L25.1,97.9L25.6,97.1L27.2,95.7L28.0,95.3Z M66.3,79.5L65.9,80.0L65.8,81.6L65.8,97.2L66.3,103.3L66.6,104.9L67.7,107.5L68.8,109.5L70.9,112.0L72.0,113.2L73.9,114.7L77.0,116.4L79.5,117.3L80.7,117.5L81.6,117.9L83.9,118.2L85.7,118.2L88.7,117.9L92.3,116.7L95.1,115.3L97.5,113.5L98.8,112.2L101.1,109.5L102.5,107.0L103.4,104.4L104.3,100.5L104.3,97.3L104.0,95.1L103.4,92.7L101.7,88.8L100.3,86.7L99.0,85.2L96.9,83.1L94.2,81.5L91.8,80.4L89.1,79.7L88.5,79.7L86.2,79.2L66.8,79.3Z M84.6,94.1L85.7,94.1L87.6,94.8L89.0,96.2L89.5,97.3L89.7,98.1L89.6,99.8L88.6,101.9L87.3,102.9L85.7,103.5L83.9,103.4L82.4,102.7L81.6,102.0L80.7,100.6L80.4,99.3L80.5,97.5L81.0,96.3L82.7,94.6Z M103.9,59.0L103.2,58.3L88.7,58.5L82.9,58.4L79.2,58.6L69.0,58.4L66.5,58.5L66.2,58.8L66.0,59.2L66.1,63.0L65.9,66.4L65.9,76.4L66.4,76.9L67.3,77.1L86.1,77.1L90.3,77.3L90.5,77.5L91.3,77.6L93.4,78.3L96.7,80.0L99.3,81.9L101.5,84.1L102.7,85.6L102.9,86.1L103.1,86.3L103.6,86.2L103.8,85.7L103.9,83.9Z M103.8,31.7L103.1,30.7L102.6,30.5L101.5,30.5L101.0,30.7L100.3,31.4L99.9,32.5L99.9,42.1L99.7,51.0L99.3,51.4L98.1,51.5L97.7,51.2L97.5,50.7L97.5,32.8L97.4,32.1L96.9,31.0L96.1,30.5L94.8,30.6L93.9,31.5L93.6,32.3L93.5,51.0L93.3,51.4L92.9,51.6L92.0,51.7L91.5,51.6L91.1,51.2L90.9,50.2L91.0,36.2L90.9,33.3L90.7,32.1L90.2,31.3L89.2,30.7L88.0,30.8L87.4,31.2L86.7,32.1L86.5,32.5L86.3,34.1L86.2,51.1L86.1,51.3L85.6,51.7L84.6,51.7L84.1,51.2L84.0,33.2L83.7,31.9L82.9,31.0L82.4,30.7L81.2,30.7L80.8,30.9L80.0,31.8L79.6,33.3L79.6,47.0L79.5,49.2L78.9,51.0L77.9,51.6L76.3,51.9L66.6,52.1L66.2,52.8L66.3,55.9L66.6,56.1L68.6,56.2L74.2,56.0L103.1,56.1L103.6,56.0L104.0,55.2L104.1,33.4Z M56.1,11.4L55.4,11.4L54.6,11.8L52.9,11.7L52.2,11.5L52.0,11.8L51.9,44.1L52.0,46.9L52.2,47.6L52.6,48.3L53.0,48.7L53.6,49.0L54.8,48.9L55.5,48.3L56.0,47.4L56.3,45.5L56.3,11.8Z M118.0,9.9L117.6,9.6L117.3,9.5L115.1,9.6L108.8,9.4L106.6,9.6L60.4,9.6L59.2,9.8L58.9,10.1L58.7,11.4L58.8,25.4L58.6,29.6L58.7,35.4L58.5,47.9L58.8,48.9L59.2,49.1L74.6,49.2L75.7,48.9L76.7,47.9L77.0,46.9L77.1,31.4L77.3,30.5L78.2,29.0L79.3,28.1L80.8,27.6L82.4,27.7L83.8,28.2L84.5,28.7L85.3,28.8L86.6,28.0L88.0,27.6L88.9,27.6L90.3,28.1L90.6,28.4L91.8,28.6L93.3,27.8L94.4,27.4L96.0,27.4L96.8,27.6L98.4,28.5L99.0,28.5L99.5,28.2L101.0,27.8L102.5,27.9L104.6,28.7L106.0,30.1L106.4,31.4L106.6,32.8L106.7,40.1L106.5,46.9L106.6,48.0L107.0,48.6L107.8,48.9L115.4,48.8L116.7,48.4L117.6,47.5L118.1,45.8L118.2,26.8Z" fill="#000" fill-rule="evenodd"/>
</svg>