<svg xmlns="http://www.w3.org/2000/svg" viewBox="0 0 128 128" width="128" height="128">
  <path d="M23.9,112.1L23.3,112.4L22.9,112.9L22.9,113.2L23.2,113.2L23.8,112.9L24.0,113.2L24.1,116.7L24.2,116.9L24.5,116.9L24.4,112.4L24.3,112.3Z M31.4,111.9L31.2,112.0L30.5,112.7L30.5,113.0L30.9,112.9L31.1,112.8L31.5,112.8L31.7,116.6L32.0,116.5L32.1,116.3L31.9,112.2L31.8,112.0Z M26.8,111.9L26.3,112.2L26.0,112.6L26.0,116.3L26.5,117.0L27.0,117.1L27.8,117.1L28.2,117.0L28.6,116.5L28.7,114.7L27.9,113.9L26.7,113.9L26.3,113.5L26.3,113.2L26.6,112.7L27.0,112.4L27.8,112.4L28.4,113.0L28.6,112.9L28.6,112.4L28.3,112.0L28.0,111.9Z M27.3,114.3L27.5,114.3L28.2,114.6L28.3,115.0L28.2,116.0L27.7,116.6L26.8,116.5L26.5,116.2L26.4,115.2L26.6,114.7Z M54.1,38.5L53.5,38.9L53.5,39.8L53.6,40.1L54.0,40.5L54.9,40.5L55.4,39.8L55.4,39.2L55.2,38.9L54.7,38.5Z M73.5,38.2L73.2,38.4L72.9,38.8L72.8,39.3L73.0,39.9L73.6,40.3L74.1,40.3L74.6,39.9L74.8,38.9L74.4,38.4L74.0,38.2Z M38.3,36.6L38.1,36.7L37.6,37.4L37.6,38.1L38.2,38.7L38.9,38.8L39.5,38.4L39.7,37.7L39.5,37.1L39.1,36.8Z M89.0,36.3L88.5,36.7L88.3,37.0L88.3,37.7L88.8,38.3L89.5,38.4L90.1,38.0L90.3,37.2L90.0,36.6L89.6,36.3Z M63.5,9.1L62.5,9.3L61.3,9.8L60.1,11.0L59.5,12.4L59.4,13.8L59.6,14.8L60.4,16.2L61.2,17.1L61.2,17.5L60.8,17.6L59.3,17.8L55.8,18.5L55.6,18.7L54.7,18.8L51.8,19.8L50.4,20.5L50.1,20.5L48.3,21.4L45.5,23.0L41.4,26.1L37.4,30.0L37.3,30.3L36.0,31.9L34.2,34.4L33.5,36.0L33.1,36.5L32.1,38.9L31.0,42.2L30.6,42.7L30.1,42.8L23.0,42.9L22.6,43.2L22.4,43.6L22.5,48.5L22.6,48.9L23.1,49.4L24.5,49.5L26.4,49.8L27.8,50.2L29.0,50.9L30.4,51.8L31.5,53.0L32.4,54.4L32.4,54.5L32.9,55.1L34.1,55.2L39.5,55.1L47.0,55.1L47.3,55.2L47.7,55.6L47.7,56.0L48.2,57.6L50.6,62.1L50.6,62.6L50.4,62.9L49.6,63.4L48.5,64.6L48.2,65.7L48.3,66.6L48.8,67.9L49.7,69.4L50.0,70.2L54.2,77.6L54.8,79.0L55.0,79.7L55.1,84.0L55.1,90.8L55.5,102.1L55.4,104.7L55.6,107.3L55.7,115.2L55.8,118.8L56.2,119.0L57.0,119.1L74.1,118.8L74.9,118.6L75.1,118.2L75.1,110.7L74.9,109.0L74.9,100.1L74.7,89.1L74.6,71.9L78.2,57.9L78.2,56.4L77.6,55.2L77.6,55.0L77.9,54.8L78.8,54.7L90.4,54.5L94.0,54.6L95.9,54.5L96.3,54.2L96.9,52.9L97.8,51.7L99.4,50.3L100.2,49.9L100.5,49.6L102.9,48.8L105.5,48.6L105.6,48.5L105.8,47.6L105.7,43.3L105.6,42.4L105.3,42.2L105.0,42.1L98.5,42.1L98.1,42.0L97.5,41.3L96.7,38.9L96.3,38.3L95.8,36.9L93.1,32.2L92.8,32.0L92.8,31.8L90.6,29.2L87.9,26.4L87.3,26.0L85.3,24.3L83.2,22.9L80.7,21.4L79.9,21.1L78.6,20.4L78.4,20.4L77.2,19.9L75.1,19.1L70.3,17.9L67.0,17.5L66.5,17.4L66.4,17.1L67.2,16.2L68.0,14.8L68.1,12.5L67.9,11.8L67.2,10.7L66.2,9.7L64.8,9.2Z M72.4,80.6L72.4,81.0L71.9,81.6L70.4,81.7L58.1,81.8L57.8,81.6L57.6,81.3L57.7,80.6L58.2,80.2L66.7,80.2L68.6,80.1L71.8,80.1L72.0,80.1Z M51.0,65.0L51.8,65.1L52.3,65.6L53.3,67.2L54.0,68.8L54.3,69.2L56.0,72.4L56.4,72.9L59.1,73.5L60.5,74.2L61.7,75.4L62.2,76.2L62.7,77.4L62.7,77.9L62.4,78.2L57.4,78.2L57.0,78.1L56.6,77.7L55.3,75.5L54.9,74.6L52.7,70.8L52.0,69.3L50.8,67.3L50.4,66.4L50.4,65.6Z M50.6,55.5L51.2,55.5L51.9,56.2L53.4,59.1L53.9,59.9L55.0,62.2L55.9,63.8L58.2,68.3L58.9,69.6L59.4,69.8L61.8,69.7L62.1,69.5L62.2,69.0L58.7,56.6L58.7,55.7L59.1,55.3L59.5,55.2L59.9,55.6L60.4,56.4L61.0,59.0L61.3,59.5L61.4,60.5L61.7,61.2L61.9,62.2L62.6,64.3L62.8,65.3L63.3,66.9L63.9,69.1L64.4,69.6L64.8,69.7L66.4,69.6L66.7,69.5L66.9,68.8L67.0,67.8L66.8,57.7L66.9,56.0L67.1,55.6L67.4,55.3L68.0,55.3L68.4,55.8L68.6,56.6L68.6,68.1L68.7,69.3L69.1,69.6L69.4,69.6L71.1,69.6L71.6,69.2L74.3,58.0L74.5,57.5L75.0,57.0L75.4,56.9L75.9,57.2L76.1,57.6L76.0,58.7L75.1,61.8L74.9,62.9L74.6,63.7L74.5,65.0L74.2,65.4L74.1,66.1L73.8,66.9L73.2,70.0L72.8,71.2L72.7,77.3L72.6,77.6L72.2,78.1L64.8,78.2L64.3,77.9L63.6,75.7L62.8,74.3L62.1,73.5L60.3,72.0L58.7,71.5L57.5,70.6L55.9,67.3L54.4,64.7L54.3,64.2L53.9,63.8L53.0,61.8L52.2,60.4L52.1,60.0L50.8,57.8L50.3,56.4L50.4,55.7Z M54.8,55.2L55.8,55.2L56.2,55.6L56.2,56.2L56.6,57.5L56.8,58.0L57.0,59.1L57.5,60.5L57.8,61.6L57.7,61.9L57.4,61.9L57.0,61.4L56.6,60.2L55.8,58.7L55.7,58.4L55.3,57.8L55.2,57.4L54.8,56.8L54.7,56.0L54.4,55.6L54.4,55.5Z M62.8,55.1L64.2,55.1L64.6,55.7L64.5,56.4L64.7,58.8L64.7,62.1L64.4,62.5L64.3,62.5L64.0,62.1L63.9,61.1L63.2,59.3L63.2,58.7L62.8,58.0L62.7,56.8L62.4,55.9L62.5,55.3Z M72.6,54.9L72.9,55.1L72.9,55.5L72.5,56.4L71.6,60.0L71.2,60.8L71.0,60.7L70.9,55.6L71.1,55.0L71.4,54.9Z M95.5,46.7L95.3,47.4L95.0,47.9L93.8,49.0L92.0,50.0L90.8,50.3L90.0,50.7L86.2,51.6L84.6,51.7L83.1,52.1L81.1,52.1L76.6,52.6L47.5,52.9L45.7,52.6L44.6,52.6L40.5,51.9L38.4,51.2L37.9,51.1L36.8,50.5L36.3,50.3L35.6,49.6L36.0,49.6L36.4,49.9L36.8,49.9L37.2,50.2L38.3,50.6L40.5,51.2L44.3,51.7L45.9,51.8L66.6,51.8L68.2,51.7L69.2,51.7L71.8,51.6L76.1,51.6L76.9,51.4L78.3,51.4L81.5,51.1L81.9,51.0L82.7,51.0L83.8,50.7L86.2,50.5L89.3,49.8L90.1,49.5L91.7,49.1L93.5,48.2L95.1,46.7Z M25.3,44.7L26.6,44.6L27.0,44.7L27.6,45.4L27.8,45.8L27.8,46.5L27.4,47.1L27.0,47.5L26.5,47.8L25.8,47.8L25.3,47.6L24.7,47.1L24.4,46.3L24.4,45.9L24.7,45.2Z M59.8,49.8L59.6,50.1L59.3,50.2L48.4,50.2L48.3,50.1L48.1,49.6L49.5,49.0L51.1,47.9L52.6,46.4L53.8,44.4L54.4,44.1L54.7,44.4L55.4,45.8L56.4,47.1L57.9,48.6L58.3,48.7L58.9,49.2L59.7,49.6Z M102.1,43.8L102.9,43.9L103.3,44.1L103.8,44.7L104.1,45.3L104.1,45.8L103.7,46.4L102.7,47.1L102.1,47.1L101.5,46.8L100.9,46.2L100.7,45.7L100.8,45.0L101.0,44.5L101.4,44.1Z M68.6,49.7L69.1,49.2L70.5,48.4L72.1,46.9L72.9,45.9L72.9,45.5L73.3,45.1L73.7,44.3L74.1,43.7L74.4,43.7L74.7,44.0L75.8,45.8L77.7,47.6L79.3,48.6L80.6,49.0L80.7,49.3L80.3,49.5L79.0,49.8L73.3,50.1L69.1,50.0L68.7,49.9Z M33.3,44.0L33.9,43.6L35.2,43.3L35.9,43.0L36.4,43.1L36.6,43.5L36.8,44.9L37.6,46.9L39.1,48.6L39.1,49.0L38.5,49.0L37.6,48.6L35.6,47.6L34.5,46.6L33.6,45.0Z M95.0,43.1L95.1,43.5L94.9,44.1L94.3,45.3L93.4,46.3L92.3,47.2L91.4,47.6L90.0,48.0L89.5,47.9L89.4,47.7L90.4,46.5L91.4,44.7L91.7,42.7L92.0,42.4L92.4,42.4L93.6,42.8L94.7,42.8Z M65.8,21.8L66.1,21.8L66.7,22.1L68.0,23.2L68.4,23.4L72.6,26.9L74.9,29.2L76.7,31.4L78.5,33.9L80.3,37.0L82.2,41.2L83.4,44.7L83.6,46.3L83.8,46.6L83.8,47.1L83.4,47.5L82.3,47.5L82.0,47.4L81.0,47.2L79.4,46.5L78.4,45.9L77.3,44.8L76.6,43.9L76.1,42.8L75.6,41.6L75.0,41.2L74.2,41.2L73.0,41.3L72.5,41.9L72.2,43.0L71.5,44.6L70.8,45.5L69.1,47.1L66.7,48.2L66.2,48.2L65.8,47.9L65.6,42.8L65.6,41.1L65.5,34.2L65.5,22.1Z M62.2,21.8L62.4,22.0L62.4,22.7L62.4,47.9L62.0,48.2L61.3,48.2L59.9,47.7L58.6,46.9L57.8,46.2L56.9,45.0L56.1,43.5L55.6,42.0L55.1,41.6L53.5,41.6L53.1,41.6L52.7,42.2L52.2,43.6L51.2,45.2L49.8,46.6L48.5,47.4L46.5,48.1L45.4,48.2L45.1,48.0L45.1,46.5L46.5,41.6L48.1,37.7L50.1,34.0L51.7,31.7L52.6,30.7L52.6,30.5L54.9,27.8L56.8,25.9L59.3,23.7L59.6,23.6L60.6,22.6L61.7,21.9Z M58.5,19.9L58.6,20.3L58.1,20.9L53.7,24.9L51.3,27.5L49.1,30.4L47.7,32.3L45.6,36.2L44.2,39.3L43.0,43.1L42.2,46.3L42.0,46.8L42.0,47.3L41.7,47.8L41.1,47.9L39.9,47.2L39.1,46.3L38.5,45.2L38.2,44.0L38.2,42.8L38.5,41.3L38.7,40.8L38.7,40.1L38.5,39.7L37.9,39.5L37.4,39.5L35.7,41.1L34.6,41.6L33.7,41.7L33.3,41.4L33.6,40.2L34.5,37.8L35.5,35.9L36.7,33.9L38.8,31.1L41.0,28.8L42.6,27.2L46.1,24.6L50.5,22.2L53.9,20.9L56.2,20.2L57.4,20.1L57.8,19.9Z M69.1,19.9L69.3,19.7L69.9,19.7L73.8,20.5L78.5,22.2L79.9,22.9L82.6,24.4L85.8,26.8L87.8,28.5L88.5,29.3L89.3,30.0L91.7,33.1L93.4,35.8L94.9,38.9L95.2,40.0L95.2,40.5L94.6,41.0L93.7,41.1L92.8,40.6L91.3,39.2L91.0,39.0L90.4,39.0L90.0,39.3L89.6,39.7L89.6,40.1L90.1,41.9L90.1,43.4L89.7,44.7L89.1,45.5L88.3,46.3L87.7,46.7L87.0,46.8L86.6,46.3L86.6,45.6L86.2,44.9L86.2,44.2L85.7,42.9L85.7,42.6L85.4,42.0L84.9,40.5L84.3,39.3L84.2,38.9L82.5,35.3L81.2,33.1L80.5,32.1L80.4,31.8L77.9,28.4L74.7,24.9L72.6,22.9L72.3,22.8L69.7,20.6L69.1,20.1Z M61.0,19.9L61.0,19.7L61.3,19.5L62.4,19.5L63.2,19.3L65.8,19.3L66.3,19.4L66.7,19.5L66.7,19.8L66.4,20.2L65.8,20.6L64.6,21.0L62.4,20.9L61.7,20.6Z M62.9,12.1L63.4,11.9L64.3,11.9L64.7,12.1L65.1,12.5L65.4,13.1L65.4,13.6L65.2,14.2L64.7,14.7L64.2,14.9L63.3,14.9L62.4,14.1L62.2,13.6L62.3,12.9Z" fill="#000" fill-rule="evenodd"/>
</svg>