<svg xmlns="http://www.w3.org/2000/svg" viewBox="0 0 128 128" width="128" height="128">
  <path d="M9.9,86.3L10.4,86.3L12.0,85.3L12.4,85.2L12.8,84.9L13.4,84.8L14.7,84.1L17.7,83.1L18.0,83.3L18.0,85.4L18.2,86.0L18.6,87.0L19.2,88.1L20.6,89.4L21.8,90.1L23.1,90.4L24.8,90.4L25.9,90.1L26.8,89.7L27.5,89.2L28.4,88.3L29.2,86.9L29.6,85.8L29.8,83.5L29.9,83.3L30.2,83.3L31.3,83.9L32.0,84.4L32.7,84.6L34.9,85.7L36.9,87.0L37.3,87.1L37.9,87.5L38.4,87.6L38.6,87.8L39.9,88.4L40.4,88.4L41.5,89.0L42.7,89.3L43.3,89.6L44.0,89.6L46.1,90.3L47.3,90.5L47.5,90.7L50.3,91.3L55.3,91.7L59.0,91.6L60.5,91.4L62.2,91.1L66.8,89.7L67.1,89.4L67.5,89.3L68.6,88.8L70.2,87.8L71.7,86.0L72.0,85.3L72.2,85.0L72.5,83.8L72.5,82.8L72.3,81.7L72.0,80.9L71.8,80.2L72.2,79.7L73.0,79.1L74.3,77.9L74.7,77.3L75.3,76.0L75.3,74.9L75.5,74.4L75.4,73.4L75.2,72.4L74.9,72.0L74.7,71.4L74.4,71.0L74.4,70.6L75.9,68.5L76.3,67.2L76.3,66.0L76.1,65.2L76.0,64.4L76.5,63.8L77.4,63.6L79.2,62.8L80.2,61.9L81.4,60.4L81.8,59.5L81.8,58.0L81.5,57.1L81.4,56.4L80.9,55.2L81.0,54.9L81.2,54.7L82.0,54.5L83.6,54.6L85.6,54.4L93.6,54.4L100.3,54.2L103.9,54.2L104.5,54.1L104.7,53.8L105.2,53.7L105.5,53.4L107.3,52.5L108.6,51.7L109.0,51.6L111.1,50.4L112.0,50.1L112.2,49.8L112.7,49.7L113.4,49.2L115.1,48.4L116.2,47.7L118.4,46.7L119.1,46.2L119.0,45.7L110.6,41.7L110.0,41.5L106.4,39.6L104.6,39.0L103.8,38.4L91.3,38.6L83.3,38.8L82.5,38.7L76.8,39.0L76.1,38.9L56.0,39.3L48.3,39.3L46.5,39.5L45.4,39.5L44.2,39.8L41.3,40.1L39.2,40.6L38.2,40.7L35.5,41.4L34.7,41.7L34.1,41.7L33.7,42.0L32.5,42.2L30.6,43.0L30.1,43.0L29.9,42.9L29.7,40.9L29.2,39.7L28.4,38.5L27.4,37.5L26.3,36.9L25.2,36.6L23.7,36.5L22.2,36.8L20.7,37.5L19.6,38.4L19.1,39.1L18.6,40.1L18.2,41.7L18.2,42.9L18.6,44.4L18.7,44.7L18.7,44.9L18.4,45.1L17.0,45.1L14.3,44.7L13.7,44.4L12.4,44.2L11.0,43.7L9.3,42.8L9.0,42.9L9.2,49.3L9.1,51.0L9.3,53.7L9.3,61.0L9.5,66.5L9.4,68.0L9.6,73.1L9.7,83.5Z M23.2,82.3L24.9,82.4L25.4,82.7L25.9,83.2L26.2,83.7L26.4,84.4L26.3,85.1L25.9,85.9L25.0,86.7L24.6,86.9L23.1,86.8L22.5,86.4L21.9,85.7L21.6,84.9L21.6,84.3L21.8,83.6L22.4,82.7Z M51.3,82.3L51.8,81.7L52.7,81.2L54.4,81.2L58.7,81.7L65.6,81.7L67.1,81.5L67.7,81.9L68.0,82.7L68.1,83.7L67.7,84.7L67.3,85.2L66.9,85.6L66.3,85.6L65.6,84.8L65.1,84.9L64.1,86.6L63.5,87.1L63.2,87.0L63.1,86.9L63.2,86.2L62.9,85.5L62.7,85.3L62.3,85.3L61.7,85.7L61.4,86.4L60.8,87.0L60.3,87.3L60.1,87.3L59.8,87.0L59.7,86.2L59.4,85.4L59.0,85.2L58.7,85.3L58.3,85.7L58.0,86.5L57.5,87.1L56.9,87.3L56.4,87.3L56.1,87.1L56.0,86.8L56.0,86.2L56.4,85.3L56.5,84.6L56.4,83.3L56.0,82.2L55.7,82.1L55.3,82.1L55.2,84.4L54.7,85.1L54.1,85.4L53.6,85.4L52.8,85.0L51.9,84.1L51.4,83.0Z M58.4,73.3L58.7,72.9L59.6,72.9L60.6,73.2L63.0,73.5L65.1,73.6L65.8,73.4L67.8,73.3L70.2,72.9L70.7,73.3L70.9,74.0L70.9,75.1L70.4,76.2L69.4,77.0L68.7,77.0L68.0,76.3L67.6,76.2L67.4,76.4L67.2,77.0L67.0,77.3L66.6,77.3L66.1,76.9L65.4,75.8L64.9,75.8L64.7,76.1L64.4,76.9L63.9,77.3L63.7,77.3L63.4,77.0L63.0,76.0L62.5,75.9L62.0,76.7L61.5,77.0L61.2,77.0L60.7,76.3L60.2,76.2L59.4,77.0L58.9,77.1L58.6,76.9L58.7,76.4L58.8,75.4L58.7,74.4Z M57.5,72.7L57.7,72.9L57.7,73.4L57.3,75.3L56.9,76.2L56.2,77.0L55.3,77.4L54.2,77.4L53.3,77.0L52.7,76.4L52.2,75.4L52.2,74.5L52.5,73.9L53.0,73.4L54.1,72.8L55.3,72.5L56.9,72.5Z M24.7,67.3L24.9,67.1L25.2,67.1L26.4,67.8L26.8,67.9L28.1,68.5L32.2,69.7L32.6,69.7L34.3,70.0L38.2,70.2L41.2,69.8L44.0,69.1L44.7,68.7L46.4,68.0L47.2,67.4L47.9,67.2L48.1,67.3L48.1,67.9L47.7,68.8L47.1,69.9L46.2,70.9L44.9,71.8L44.6,72.1L43.5,72.7L42.0,73.3L40.7,73.9L37.3,74.6L35.4,74.6L35.2,74.7L35.2,75.1L35.4,75.5L36.7,77.1L38.2,78.5L38.6,78.6L39.6,79.4L44.4,81.6L45.2,81.8L45.3,81.9L47.6,82.7L48.0,83.1L48.0,83.6L48.5,84.5L48.6,85.0L49.4,86.1L50.1,86.8L50.2,87.2L49.1,87.2L47.5,86.7L45.2,84.4L44.9,84.4L44.6,84.8L44.5,86.2L44.3,86.4L43.6,86.4L43.5,86.3L42.7,86.1L42.0,85.7L41.2,84.8L40.8,83.9L40.4,83.4L39.9,83.6L39.7,84.7L39.5,84.9L39.0,84.8L37.4,84.0L36.1,83.0L35.3,82.1L34.7,80.6L34.3,80.2L34.0,80.2L33.9,80.3L33.7,81.2L33.6,81.3L33.1,81.4L31.9,80.3L31.6,79.6L31.3,78.5L31.0,77.8L30.7,77.7L30.4,78.0L30.3,78.3L29.8,78.5L29.6,78.3L29.2,76.8L29.2,73.9L29.0,73.4L28.8,73.2L28.3,73.2L27.9,73.9L27.8,74.3L27.7,74.5L27.4,74.5L27.3,74.3L26.9,73.1L27.0,70.6L26.6,70.3L25.8,71.5L25.6,71.5L25.3,71.2L24.8,70.3L24.6,69.4L24.4,67.9Z M19.1,66.0L19.5,66.0L19.8,66.2L19.8,67.7L20.1,68.5L20.1,69.2L20.5,71.7L21.9,75.9L22.9,77.9L22.9,78.1L22.5,78.3L21.3,78.2L19.9,77.5L19.2,77.0L18.1,75.9L17.2,74.1L17.2,73.6L16.8,72.5L16.8,69.8L16.9,68.5L17.1,68.2L17.3,67.7L17.7,67.2L18.4,66.4Z M72.3,65.2L72.3,66.5L72.2,67.0L71.7,67.7L71.1,68.4L70.5,68.3L70.1,67.0L69.7,66.6L69.4,66.6L69.0,67.0L68.7,67.8L68.0,68.5L67.7,68.5L67.2,67.9L67.2,67.6L66.6,67.1L66.2,67.2L65.7,67.6L65.4,68.2L65.2,68.4L64.9,68.5L64.5,68.0L64.4,67.4L64.1,67.1L63.8,67.1L63.2,68.0L62.6,68.6L62.0,68.9L61.4,68.9L61.0,68.5L61.1,67.5L61.1,65.9L60.6,65.0L60.2,64.6L59.9,64.6L60.0,65.4L60.0,66.3L59.8,67.1L59.3,67.9L58.5,68.4L57.8,68.5L56.5,68.1L55.3,67.0L55.0,66.3L55.0,65.7L55.4,64.9L56.0,64.3L57.1,63.8L59.4,63.4L62.5,63.7L63.5,63.6L63.9,63.0L64.5,61.4L64.8,61.0L65.2,60.7L66.1,60.9L68.2,61.9L69.5,62.3L69.9,62.6L71.3,63.1L71.7,63.5Z M73.8,52.9L74.2,52.7L74.6,52.8L75.7,53.9L77.1,55.7L77.7,56.8L78.0,58.3L78.0,58.9L77.6,59.5L76.7,59.6L75.6,59.0L74.1,57.5L73.2,56.2L73.2,55.9L73.0,55.2L73.0,54.2L73.2,53.4Z M23.4,48.9L23.7,49.1L23.7,49.2L23.1,50.3L22.3,52.2L22.1,53.1L21.9,53.4L21.7,54.4L21.1,56.4L20.9,58.1L20.9,60.7L20.4,61.0L20.0,61.0L19.1,60.4L18.2,59.4L17.5,57.7L17.4,56.6L17.4,55.1L17.7,53.6L18.2,52.5L18.9,51.4L20.4,50.1L22.5,49.0Z M103.7,49.1L103.5,49.8L103.0,50.5L102.6,50.9L101.9,51.0L78.6,51.4L77.9,51.1L74.4,47.8L74.3,47.4L74.6,47.2L77.2,47.1L82.8,47.1L85.0,46.9L101.6,46.7L102.3,46.8L103.0,47.1L103.3,47.5L103.7,48.4Z M25.3,57.4L26.1,53.5L26.3,53.2L27.0,51.3L28.0,49.5L28.6,48.8L30.0,47.4L30.7,46.8L34.6,45.0L35.2,45.0L36.8,44.4L37.9,44.2L38.5,44.0L40.2,43.8L40.4,43.6L42.7,43.3L43.5,43.1L45.3,43.0L46.6,42.8L50.5,42.8L56.1,43.4L59.5,44.1L61.1,44.7L61.7,44.8L62.6,45.3L64.8,46.1L65.4,46.5L65.8,46.5L68.4,48.0L69.3,48.6L69.7,48.8L71.4,50.0L71.6,50.3L71.7,50.7L71.3,51.9L71.3,53.1L71.5,54.2L71.8,54.8L72.0,55.5L72.6,56.8L74.4,59.3L74.4,59.7L73.8,59.7L73.3,59.5L73.0,59.5L71.7,58.7L71.1,58.2L70.8,58.2L70.6,58.9L70.5,59.1L69.9,59.0L69.1,58.3L68.7,57.7L68.1,55.9L67.8,55.9L67.7,56.0L67.5,57.5L67.2,57.7L67.0,57.7L66.7,57.4L66.0,56.2L65.8,55.9L65.4,55.9L65.2,56.1L65.3,57.7L65.0,58.1L64.7,58.0L63.9,57.3L63.3,56.5L62.9,56.5L62.7,56.7L62.6,57.4L62.3,57.7L61.7,57.6L60.8,57.0L58.9,55.5L58.4,55.6L57.7,56.6L57.3,57.0L56.6,57.0L56.1,56.7L54.8,55.3L54.1,54.1L53.8,52.3L53.7,50.6L53.3,50.7L53.2,51.1L52.7,51.5L52.3,51.1L52.1,50.7L51.7,50.2L51.5,50.3L51.2,51.3L51.2,52.6L51.5,55.2L51.5,55.8L51.0,55.8L49.5,54.0L48.9,53.9L48.8,54.1L48.8,54.6L49.5,56.4L49.7,57.7L49.6,60.1L49.3,60.5L49.0,60.5L48.7,60.3L47.2,57.4L47.0,57.3L46.7,57.3L46.6,57.4L46.7,60.6L46.4,61.9L46.0,62.2L45.5,62.2L45.2,62.1L44.8,61.7L44.0,60.0L43.8,59.8L43.6,59.8L43.3,60.1L43.6,61.4L43.6,62.9L43.4,63.4L43.2,63.6L42.4,63.6L41.5,62.8L41.2,62.3L40.8,62.3L40.6,63.9L40.5,64.2L39.5,65.0L38.5,65.2L37.8,65.0L37.3,64.4L37.3,63.9L37.0,63.7L36.9,63.7L36.6,63.9L36.3,65.1L35.8,65.6L35.2,65.9L34.3,65.9L33.5,65.4L33.2,64.8L33.1,64.0L32.8,63.7L32.7,63.7L32.4,64.0L32.3,64.5L31.9,64.9L31.2,64.9L30.4,64.3L29.9,63.9L29.4,63.0L29.4,62.4L29.5,62.1L29.5,61.6L29.0,61.6L28.5,62.1L27.8,62.1L27.5,61.9L27.2,61.4L27.2,60.4L27.4,59.5L27.4,59.0L27.0,58.9L26.7,59.5L26.4,59.8L26.1,59.8L25.6,59.5Z M104.3,42.1L104.9,42.2L106.4,42.9L108.5,43.8L109.0,44.4L108.9,44.8L108.6,45.2L108.4,46.1L108.5,47.1L108.8,47.6L108.8,47.9L108.4,48.3L104.9,50.2L104.6,50.2L104.4,49.9L104.4,47.6L103.5,46.3L103.5,45.9L103.9,45.0L104.1,44.5L104.1,42.3Z M103.6,44.1L102.8,45.3L101.9,45.9L101.4,45.9L73.0,46.5L72.1,46.2L69.0,44.3L68.4,44.1L66.9,43.2L65.8,42.9L65.4,42.6L65.4,42.3L65.8,42.2L67.2,42.1L75.6,42.0L81.6,41.8L90.2,41.8L93.7,41.7L101.5,41.6L102.4,41.7L103.3,42.3L103.6,43.2Z M23.1,40.0L24.9,40.0L25.5,40.4L26.0,40.9L26.4,41.9L26.4,42.8L26.2,43.2L25.4,44.2L24.5,44.6L23.6,44.6L22.6,44.2L21.9,43.5L21.6,42.6L21.6,42.1L21.8,41.1L22.5,40.4Z" fill="#000" fill-rule="evenodd"/>
</svg>