<svg xmlns="http://www.w3.org/2000/svg" viewBox="0 0 128 128" width="128" height="128">
  <path d="M23.0,54.2L22.2,55.6L21.1,58.2L20.3,59.8L20.2,60.2L19.1,62.2L18.9,62.8L16.7,67.3L15.8,68.7L15.7,69.4L16.0,69.7L18.2,69.6L18.9,68.9L19.6,67.0L20.2,66.1L20.9,65.9L22.9,65.8L26.2,65.9L26.8,66.5L27.2,67.2L27.8,69.2L28.3,69.7L30.4,69.7L31.1,69.4L31.1,68.8L30.1,67.2L29.7,66.3L29.2,65.6L28.6,64.2L28.3,63.8L27.2,61.1L25.6,58.2L25.0,56.6L24.1,54.8L23.6,54.1Z M23.5,59.4L23.8,59.7L24.3,60.8L25.1,62.9L25.2,63.3L24.7,63.7L21.8,63.7L21.4,63.3L21.8,62.0L22.9,59.8L23.2,59.5Z M98.8,53.9L98.6,54.3L98.7,61.1L98.8,62.2L98.7,69.0L99.0,69.4L99.4,69.5L101.2,69.4L101.5,69.0L101.5,63.6L101.8,63.3L102.0,63.3L102.7,64.0L106.0,67.6L107.3,68.8L108.3,69.4L108.8,69.5L110.3,69.5L110.5,69.3L110.5,68.7L109.4,67.7L109.1,67.2L108.8,67.1L105.8,63.8L105.1,62.7L105.2,62.2L107.2,61.0L108.1,60.0L108.6,59.1L108.8,57.7L108.5,56.5L108.0,55.5L106.8,54.6L105.8,54.1L105.1,53.9L99.1,53.8Z M103.3,55.1L104.4,55.5L105.2,56.2L105.7,57.4L105.8,58.7L105.5,59.5L104.0,61.1L102.5,61.8L101.8,61.8L101.5,61.5L101.5,59.3L101.3,58.6L101.4,55.9L101.8,55.3L102.5,55.0Z M51.6,37.0L50.9,37.6L50.7,38.1L50.6,39.7L50.9,40.5L51.7,41.2L52.3,41.5L53.0,41.5L53.2,41.2L52.3,40.4L52.0,39.6L51.8,38.4L52.1,37.1L52.0,37.0Z M67.2,34.7L66.0,34.7L64.4,35.0L62.3,35.0L61.7,35.3L60.8,35.3L59.7,35.8L59.5,36.0L59.3,36.4L59.3,37.4L59.5,38.0L59.9,38.5L60.6,38.8L63.7,39.2L64.3,39.4L64.9,39.8L65.4,40.7L65.4,41.0L64.9,41.4L64.0,41.4L62.7,41.2L61.3,41.3L60.6,41.8L60.6,42.4L61.1,42.8L64.0,42.8L65.9,43.1L66.3,43.5L66.3,44.0L66.0,44.8L65.4,45.5L64.4,46.2L62.5,47.0L59.9,47.5L58.4,48.0L58.1,48.2L57.8,48.2L56.5,48.9L55.2,50.1L54.4,51.4L54.1,51.8L53.4,51.8L52.7,51.7L50.9,51.1L49.5,50.1L48.7,49.3L48.4,48.3L48.4,47.4L48.7,46.3L49.3,44.9L49.5,44.2L49.3,43.2L48.7,42.4L47.7,41.5L47.3,41.4L46.6,41.4L46.2,41.6L46.2,42.1L47.0,44.0L47.0,44.3L46.9,44.5L46.5,44.4L45.9,43.7L45.2,43.3L44.5,43.1L44.0,43.2L43.8,43.3L43.8,43.7L44.1,44.2L44.2,44.8L44.7,45.6L45.1,46.0L45.1,46.4L44.8,46.4L44.4,46.0L43.4,45.7L42.6,45.7L42.3,46.0L42.3,46.3L43.0,47.2L44.4,48.6L44.3,48.9L43.9,49.0L43.3,48.8L43.0,48.9L42.8,49.0L42.8,49.6L43.0,50.0L43.6,50.7L43.9,50.8L45.1,51.1L46.0,52.0L46.1,52.5L45.4,52.9L45.1,53.2L45.0,53.4L45.4,53.8L46.1,54.0L47.6,53.9L48.0,54.2L47.9,54.5L46.9,55.0L47.1,55.4L47.6,55.5L48.4,55.5L49.6,55.0L50.2,55.0L51.2,55.1L52.1,55.5L52.6,55.9L52.6,56.1L51.6,57.0L48.6,58.7L46.2,59.6L45.7,59.6L44.8,59.8L43.0,59.8L42.3,59.6L41.2,58.9L39.5,57.2L39.2,57.0L38.6,56.4L37.0,55.7L35.6,55.7L34.7,56.0L34.4,56.3L34.2,56.9L34.4,57.2L35.1,57.4L35.8,58.1L37.0,58.3L37.2,58.6L37.2,58.7L36.9,59.0L35.7,59.0L34.3,59.3L33.9,59.7L33.9,60.0L35.1,61.0L35.9,61.1L37.0,60.6L37.5,60.6L37.6,60.8L37.6,61.1L37.4,61.3L36.4,61.8L35.7,62.6L35.4,63.3L35.4,63.9L35.7,64.2L36.2,64.2L36.7,63.9L37.3,63.7L38.7,62.6L39.4,62.4L39.8,62.7L39.8,63.1L39.1,64.0L39.1,64.4L39.5,64.7L40.0,64.7L40.6,64.5L41.9,63.3L42.6,63.3L43.3,63.6L44.7,63.7L44.9,64.0L44.9,64.3L44.4,64.9L44.5,65.2L44.8,65.4L46.2,65.4L47.6,64.5L48.4,63.7L48.7,63.6L49.3,63.6L49.3,64.0L48.7,64.7L48.7,65.4L49.0,65.5L49.7,65.5L50.3,65.3L50.9,64.9L52.7,62.8L53.3,62.6L53.8,62.6L54.5,62.9L55.7,64.2L57.0,65.0L58.1,65.3L60.7,65.6L61.5,65.9L62.4,66.1L64.3,67.0L65.6,68.1L65.8,68.3L65.7,68.7L65.3,68.7L63.2,68.3L60.8,68.3L59.2,69.0L57.9,69.8L57.0,71.1L56.3,72.9L56.0,74.1L56.0,76.7L55.6,77.1L54.6,77.2L53.7,76.9L52.4,76.2L51.4,75.9L50.2,75.2L49.3,74.1L48.6,71.5L48.1,71.0L47.0,70.2L46.6,70.1L45.1,70.1L44.1,70.6L43.7,71.1L43.5,71.5L43.7,72.0L44.4,72.0L45.0,72.2L45.8,72.6L46.4,72.7L46.8,73.0L46.8,73.1L46.5,73.3L45.1,73.3L44.0,73.6L43.5,74.1L43.5,74.4L44.0,74.8L44.6,75.2L45.5,75.3L45.9,75.1L46.4,75.1L46.6,75.4L46.6,75.7L46.2,75.9L45.5,75.9L44.6,76.3L44.3,76.6L44.2,77.1L44.5,77.3L46.3,77.6L46.6,77.9L46.6,78.3L46.2,78.7L46.2,79.2L46.6,79.5L47.3,79.6L48.2,79.2L48.7,78.7L49.4,78.8L50.6,80.0L50.6,80.3L49.8,81.0L49.8,81.3L50.2,81.6L51.4,81.7L52.0,81.4L52.4,81.4L52.6,81.7L52.3,82.0L52.3,82.3L52.6,82.6L53.5,82.6L54.1,82.3L54.8,82.3L54.8,82.6L54.5,82.9L54.5,83.4L54.7,83.4L55.9,83.4L56.6,83.2L57.9,82.3L59.8,81.9L60.3,81.5L60.6,81.1L60.8,80.6L60.7,76.8L61.4,74.8L62.4,73.7L63.4,73.0L64.3,72.6L65.9,72.6L66.5,73.0L66.7,73.3L66.7,74.4L66.3,76.2L66.3,77.5L66.0,78.7L65.9,81.5L66.2,82.8L66.6,83.4L67.1,83.9L68.0,84.3L69.1,84.4L69.6,84.1L70.6,84.0L71.4,83.6L71.8,83.7L72.0,83.8L72.0,84.2L71.6,85.8L71.0,86.9L70.2,87.8L69.5,88.3L68.6,88.6L67.7,88.6L66.1,88.2L64.8,87.7L63.8,87.4L63.1,87.4L62.0,87.8L60.6,89.3L60.4,89.9L60.7,90.3L61.7,90.0L62.4,90.0L63.0,89.8L63.1,89.9L63.1,90.1L62.3,91.3L62.2,92.1L62.5,92.5L62.8,92.5L63.5,92.1L64.5,91.8L65.3,91.1L65.8,91.2L65.8,91.6L65.1,92.7L65.1,93.5L65.5,93.9L65.7,93.9L66.5,93.3L67.1,93.1L68.1,91.5L68.7,91.5L68.8,91.7L69.0,92.1L68.9,93.0L69.2,93.3L69.5,93.3L69.9,93.1L70.3,92.8L70.6,92.2L70.9,91.5L71.3,91.1L72.0,90.8L73.0,89.9L73.4,89.8L73.9,90.4L74.6,90.5L74.8,90.2L75.3,89.3L75.6,87.2L75.8,87.0L76.0,87.3L76.3,88.1L76.6,88.3L76.9,88.2L77.5,87.4L77.8,86.6L77.8,85.6L77.6,83.6L77.9,83.4L78.9,84.6L79.3,84.6L79.5,84.2L79.6,83.1L79.3,81.9L78.5,80.2L78.2,77.8L78.1,77.3L77.7,76.9L77.3,76.7L76.4,76.6L76.0,76.9L75.3,77.0L74.2,77.8L73.5,78.0L73.1,78.0L72.8,77.6L72.8,74.1L73.1,73.3L73.5,73.2L74.6,73.7L76.4,74.1L78.2,74.1L78.8,73.9L80.3,73.2L81.1,72.6L82.2,71.4L82.9,69.9L83.0,69.1L83.0,66.9L82.7,65.7L82.7,64.6L82.9,64.1L82.8,62.3L82.5,61.8L82.3,61.5L81.8,61.5L81.4,62.2L81.1,62.3L80.9,62.2L80.8,61.6L81.0,59.9L80.7,59.0L80.0,58.1L79.4,58.1L79.3,58.7L79.0,59.0L78.7,58.9L79.0,56.5L78.9,55.0L78.7,54.7L78.4,54.7L77.9,55.2L77.5,55.3L77.2,54.9L77.4,53.6L78.0,52.5L78.9,51.5L79.6,51.1L80.3,50.7L81.8,50.4L83.6,50.7L84.6,51.1L86.2,52.5L87.1,54.3L87.3,55.8L87.3,57.0L87.1,59.1L86.8,60.0L86.5,61.6L86.8,64.5L87.1,65.8L87.5,66.7L87.7,66.9L88.6,68.5L89.1,69.2L89.7,69.6L90.0,69.0L90.0,67.7L89.7,66.1L89.0,63.7L89.0,63.3L89.5,63.3L90.4,64.0L90.8,64.0L90.9,63.8L91.0,63.4L90.6,61.9L89.5,60.0L89.5,59.7L89.7,59.6L91.3,61.1L91.8,61.0L91.9,59.5L91.5,58.3L90.8,57.4L90.8,57.1L91.2,57.0L91.5,57.2L91.9,57.2L92.1,57.0L92.1,56.3L91.5,54.7L90.0,53.1L89.9,52.5L88.6,50.3L87.1,48.9L86.5,48.7L85.7,48.2L84.3,47.8L82.9,47.5L81.5,47.5L79.2,48.1L77.6,48.9L76.0,50.4L75.0,52.0L74.3,54.3L74.2,56.8L74.5,58.0L75.3,59.9L77.0,62.1L79.3,64.7L79.9,65.8L80.1,66.3L80.4,67.7L80.4,69.2L80.2,70.1L79.6,71.2L78.9,71.7L77.8,72.3L77.1,72.5L76.4,72.5L75.3,72.3L74.2,71.7L73.2,70.5L71.9,67.7L70.8,66.1L68.6,64.0L66.0,61.8L65.1,60.9L64.3,59.9L63.9,58.8L63.9,57.7L64.1,57.5L64.2,57.1L64.4,56.8L64.7,56.8L64.9,57.1L65.0,57.8L65.3,58.0L65.7,58.1L66.0,57.9L67.4,56.6L67.7,56.0L67.9,53.9L68.4,53.8L68.6,54.0L68.7,54.4L69.0,54.7L69.4,54.7L70.1,54.1L70.6,53.3L70.9,51.3L71.0,50.7L71.4,50.4L71.7,50.4L71.8,50.5L72.1,51.3L72.8,51.3L73.8,49.3L73.9,48.6L74.2,47.9L74.6,46.4L74.6,44.3L74.2,42.5L73.5,40.1L71.5,37.4L71.5,36.8L71.7,36.3L71.7,35.9L71.3,35.5L69.3,35.6L68.8,35.3Z M12.7,48.9L11.5,51.4L11.5,51.7L10.7,53.8L9.7,57.5L9.3,60.7L9.2,61.1L9.1,66.9L9.3,68.0L9.4,69.4L9.7,70.5L9.9,72.1L10.3,72.9L10.4,73.7L11.6,77.2L13.1,80.5L13.6,81.2L15.0,83.6L17.8,87.0L21.4,90.6L22.1,90.9L24.0,92.6L24.2,92.6L26.0,94.0L26.8,94.5L27.4,95.0L28.0,95.4L29.2,95.9L30.1,96.5L32.9,97.8L34.7,98.3L35.2,98.6L36.6,99.1L38.3,99.5L39.8,100.0L42.8,100.6L43.6,101.0L44.2,101.0L46.2,101.4L49.5,101.9L50.6,102.2L58.2,102.9L64.7,103.1L67.7,102.9L68.6,102.8L69.9,102.8L71.2,102.5L72.6,102.5L73.9,102.3L75.0,102.3L77.0,101.9L77.8,101.9L78.8,101.7L79.3,101.5L82.1,101.0L86.6,99.9L87.3,99.8L89.3,99.1L89.8,99.1L91.5,98.4L92.4,98.2L93.3,97.9L93.7,97.6L94.6,97.4L95.9,97.0L96.2,96.7L97.0,96.5L98.0,95.9L99.4,95.4L100.0,94.9L100.6,94.8L103.7,92.7L104.3,92.0L104.7,91.9L105.8,91.0L107.2,89.6L108.4,88.7L109.3,87.7L110.8,86.3L112.5,84.2L112.8,83.6L113.7,82.3L113.9,81.9L115.2,80.1L115.6,78.8L116.0,78.2L116.1,77.7L116.4,77.3L116.9,76.3L117.0,75.8L117.2,75.5L117.3,74.7L117.7,74.1L118.4,71.2L119.1,66.9L119.1,62.2L118.9,59.6L118.1,55.5L117.7,54.7L117.6,53.8L117.3,53.5L116.9,52.0L116.1,50.5L115.5,48.9L114.8,47.7L113.4,45.7L113.4,45.3L112.0,43.4L109.7,40.9L108.9,40.2L108.4,39.9L106.4,37.9L105.5,37.4L104.2,36.2L103.7,36.0L104.0,36.6L107.3,39.6L107.6,40.1L108.6,41.0L109.4,42.2L109.7,42.4L110.3,43.5L111.0,44.3L112.8,47.9L113.4,48.8L113.7,50.1L114.5,51.7L114.6,52.5L114.9,53.2L114.9,53.5L115.5,55.0L116.3,59.6L116.5,62.1L116.5,65.9L116.2,69.7L115.0,75.0L114.5,76.6L112.8,80.5L111.9,82.0L111.9,82.3L111.1,83.4L110.8,84.1L108.6,87.3L106.9,89.2L105.2,90.7L103.3,92.2L102.2,92.8L101.5,93.5L99.8,94.4L98.9,94.8L98.3,94.9L98.0,95.2L96.9,95.6L96.1,95.8L95.1,96.3L92.6,97.0L92.2,97.2L90.3,97.7L89.5,97.8L88.6,98.1L87.2,98.2L85.7,98.7L83.9,98.9L83.2,99.2L78.9,99.6L77.8,99.9L76.1,100.0L75.5,100.2L71.5,100.5L70.8,100.6L68.7,100.6L64.6,100.9L59.0,100.8L56.8,100.6L54.5,100.6L51.6,100.1L49.6,100.0L48.1,99.7L46.2,99.6L45.9,99.4L43.3,98.9L42.7,98.9L39.7,98.2L38.3,98.1L36.9,97.6L34.6,97.1L32.2,96.3L31.9,96.3L30.9,95.9L30.3,95.5L29.5,95.3L28.1,94.5L27.3,94.4L26.5,93.5L25.3,93.1L22.9,91.0L22.7,90.9L20.7,88.7L20.4,88.1L18.7,86.6L17.4,84.7L15.5,81.2L15.0,79.8L14.3,78.4L13.8,76.9L13.7,76.3L13.5,75.9L13.2,74.8L12.6,72.9L12.5,72.0L12.2,70.9L11.7,66.5L11.7,61.8L12.1,57.9L13.1,53.8L13.9,51.1L14.8,48.9L15.6,47.5L15.9,46.6L16.4,45.9L16.4,45.7L16.8,45.0L19.2,41.3L20.4,39.9L22.3,37.8L23.6,36.7L23.8,36.7L24.7,36.0L25.0,35.8L26.9,34.5L30.5,32.8L33.9,31.6L35.1,31.3L37.5,30.6L38.2,30.6L39.0,30.2L40.4,30.1L41.7,29.7L42.9,29.6L43.4,29.4L47.3,28.8L48.4,28.5L49.4,28.4L49.7,28.3L50.5,28.3L53.8,27.8L55.2,27.8L56.6,27.6L63.5,27.6L64.1,27.4L69.8,27.6L76.4,28.1L77.9,28.4L79.9,28.6L81.2,28.9L82.5,29.0L85.7,29.8L87.9,30.2L89.4,30.6L90.8,30.9L92.5,31.4L93.2,31.5L94.5,32.0L96.5,32.4L100.5,34.2L102.4,35.4L103.1,35.6L103.0,35.1L100.8,33.6L99.9,33.2L98.7,32.4L97.9,32.2L97.2,31.8L96.6,31.7L95.4,31.0L94.8,30.9L92.5,29.9L85.3,27.8L84.8,27.8L83.6,27.4L82.6,27.4L81.5,27.0L80.6,27.0L77.6,26.3L73.5,25.9L72.6,25.7L71.7,25.7L69.7,25.4L67.4,25.4L65.8,25.2L59.9,25.2L59.0,25.4L57.2,25.4L53.9,25.8L53.0,25.8L51.6,26.1L49.0,26.3L48.1,26.6L46.3,26.8L46.0,27.0L45.1,27.0L44.4,27.4L43.6,27.4L42.4,27.8L40.9,28.1L40.5,28.3L39.7,28.4L39.3,28.7L37.0,29.2L36.2,29.6L35.4,29.8L32.4,31.0L31.7,31.1L30.5,31.7L30.0,31.9L29.0,32.5L28.3,32.8L27.3,33.5L26.1,34.1L25.1,34.9L24.3,35.3L23.6,36.1L21.4,37.8L18.2,41.0L17.6,41.8L16.7,42.7L16.4,43.2L15.3,44.6Z" fill="#000" fill-rule="evenodd"/>
</svg>