<svg xmlns="http://www.w3.org/2000/svg" viewBox="0 0 128 128" width="128" height="128">
  <path d="M33.2,77.3L33.2,77.4L33.5,77.5L33.5,77.3Z M35.6,73.5L34.9,74.3L34.7,75.0L34.7,75.5L34.9,76.1L35.8,77.3L35.8,77.9L35.6,78.0L35.6,78.3L36.6,78.4L37.0,78.0L37.0,77.6L35.8,75.5L35.8,74.9L36.0,74.3L36.2,74.0L36.2,73.6Z M33.9,69.1L33.7,69.1L33.5,69.4L33.6,70.2L34.5,69.9Z M75.3,72.8L74.8,72.4L72.2,71.4L71.7,71.1L69.4,70.5L67.5,69.8L63.6,68.8L60.2,68.4L57.2,68.6L55.0,69.1L53.0,70.2L52.2,70.8L51.3,71.2L50.9,71.5L49.2,72.1L48.3,72.3L46.0,72.3L44.9,72.0L44.3,71.7L43.4,71.8L43.4,72.3L44.0,73.3L44.8,73.9L46.8,74.8L49.1,75.0L49.3,75.4L49.2,75.5L46.3,75.8L46.1,75.9L46.1,76.3L47.0,77.5L48.5,78.0L49.3,78.0L50.5,78.5L51.0,78.8L52.2,80.1L53.1,82.1L53.1,82.5L53.7,84.4L53.7,85.8L53.4,86.8L52.7,87.5L51.9,88.1L50.9,88.5L49.2,88.9L46.6,89.0L45.6,88.8L44.5,88.8L42.5,88.5L42.0,88.5L41.0,88.1L40.3,88.1L39.6,87.7L38.7,86.7L37.0,84.3L36.3,83.7L35.7,83.7L33.9,84.4L32.9,85.3L32.9,85.8L34.4,87.2L34.5,87.6L34.3,87.7L33.3,87.6L31.5,86.9L30.9,87.0L30.5,87.4L29.3,89.7L29.1,90.3L29.2,90.7L29.4,90.9L32.4,91.1L32.7,91.1L32.9,91.5L32.6,91.8L32.0,92.0L30.9,92.7L30.2,93.4L30.1,94.0L32.1,96.2L32.5,96.5L33.0,96.4L34.3,95.2L36.2,94.4L37.5,94.4L38.7,94.8L39.4,95.2L40.3,96.0L41.0,97.1L41.4,98.7L41.8,98.9L42.1,98.9L43.9,98.1L44.8,97.5L45.1,97.1L45.1,96.6L44.8,95.8L42.9,93.4L43.0,93.0L43.2,92.9L44.2,93.0L45.5,93.4L47.1,95.1L48.8,95.9L49.3,96.1L49.9,96.1L50.2,95.9L50.2,95.6L49.4,94.5L49.5,94.3L49.8,94.2L51.1,95.4L52.5,96.3L53.1,96.4L53.8,96.4L54.2,96.2L54.2,95.7L53.3,94.5L53.3,94.3L53.4,94.1L53.8,94.3L54.5,95.0L55.9,95.9L56.3,96.0L57.3,95.9L57.7,95.6L57.7,95.3L57.5,94.8L57.0,94.4L56.8,94.0L57.0,93.8L57.5,94.0L59.3,95.2L60.1,95.2L60.9,95.0L61.2,94.7L61.2,94.4L60.2,93.3L60.3,93.0L60.6,93.0L61.6,93.4L62.1,93.7L62.9,94.0L63.5,94.0L64.5,93.7L65.4,93.1L65.3,92.6L63.0,91.1L61.4,89.7L60.3,88.3L59.3,85.8L59.3,82.2L59.7,81.4L59.9,80.4L60.5,79.4L61.8,78.1L62.4,77.6L64.2,76.8L66.5,76.3L71.3,76.3L72.0,76.1L72.8,75.8L74.0,75.0L74.9,74.1L75.3,73.3Z M30.9,53.7L30.9,53.9L31.6,54.5L31.7,54.5L31.5,54.1Z M30.2,49.2L30.1,50.0L31.0,49.9L31.4,50.2L32.2,51.3L32.6,51.6L33.9,51.7L34.0,51.5L33.6,51.1L33.0,50.2L31.9,49.0L31.3,48.8L30.8,48.8Z M64.8,25.5L64.5,25.3L64.1,25.2L62.7,25.2L61.9,25.3L60.8,25.7L59.2,26.7L57.0,27.6L56.3,27.6L55.4,27.9L54.3,27.6L53.7,27.7L53.7,27.9L54.0,28.3L55.2,28.7L57.0,28.7L57.8,28.6L59.8,27.9L61.9,26.5L63.1,25.9L64.8,25.7Z M72.0,17.5L68.2,17.5L66.3,17.9L65.5,17.9L64.2,18.2L63.1,18.7L61.5,19.2L61.0,19.4L60.5,19.9L60.1,21.2L60.1,23.0L60.2,23.5L61.0,24.2L61.6,24.3L62.6,24.2L63.4,23.7L65.1,22.3L66.2,21.8L67.0,21.8L67.6,22.0L68.3,22.6L68.7,23.8L68.7,25.2L68.3,26.1L67.6,26.7L66.9,27.1L65.3,27.5L62.3,27.6L61.5,28.0L60.8,28.7L60.3,29.5L60.1,30.2L60.3,31.2L60.5,31.4L60.9,31.4L63.0,30.2L63.8,29.9L64.9,29.8L66.0,29.5L68.6,29.5L68.7,29.9L68.5,30.2L66.6,31.2L65.7,31.9L65.1,32.1L63.8,33.2L62.7,33.7L61.7,34.5L59.0,36.2L58.4,36.8L56.7,37.9L52.6,41.6L52.2,42.5L51.1,43.7L50.3,45.1L49.9,45.9L49.8,46.5L49.2,47.6L48.6,49.6L48.4,52.1L48.5,52.2L49.0,52.2L50.3,51.5L52.3,50.7L52.9,50.7L53.2,50.8L53.1,51.1L52.2,51.5L51.1,51.9L49.4,52.7L48.5,53.4L48.0,53.6L47.6,54.0L47.3,54.1L45.8,55.1L44.5,55.7L43.4,56.5L41.0,57.8L38.4,58.7L37.7,58.7L37.3,58.5L37.3,57.9L37.3,55.3L38.8,54.0L39.5,53.0L39.9,51.6L39.8,50.0L39.4,48.9L38.8,48.1L38.0,47.4L37.2,46.9L35.6,46.5L34.7,46.5L34.5,46.6L34.6,46.8L35.8,47.0L36.5,47.3L37.7,48.2L38.5,49.5L38.6,50.1L38.8,50.7L38.7,51.9L38.4,52.9L38.0,53.5L36.7,54.7L36.2,54.8L35.4,55.3L35.5,55.5L35.8,55.5L36.2,55.7L36.3,56.3L36.2,58.8L35.9,59.1L35.3,59.2L34.8,59.0L33.9,58.2L33.4,57.5L33.2,56.1L33.6,55.7L34.3,55.4L33.0,55.0L32.7,55.1L32.7,55.5L32.9,55.9L32.9,56.3L32.7,56.7L32.2,56.6L31.6,56.3L31.1,56.3L30.4,56.7L30.0,57.1L28.7,57.9L28.5,58.6L30.2,59.7L30.2,60.1L30.0,60.2L29.1,60.4L27.2,60.1L26.8,60.4L26.4,61.8L26.1,63.6L26.2,64.3L26.7,64.6L29.7,64.0L30.3,64.0L30.6,64.2L30.6,64.5L28.6,66.4L28.3,67.0L28.6,67.9L30.2,69.8L30.8,69.8L32.1,68.2L32.7,67.8L33.2,67.8L33.5,68.1L33.6,68.6L33.8,68.6L33.9,68.3L33.9,67.6L34.4,67.0L35.4,66.8L36.2,66.9L36.7,67.4L36.7,68.8L36.5,69.1L36.2,69.4L36.2,69.7L38.3,70.5L39.3,71.6L39.9,72.5L40.1,73.3L40.1,74.6L39.9,75.3L39.2,76.0L39.2,76.2L39.5,76.5L40.3,76.3L40.8,75.8L41.2,74.5L41.2,73.3L40.8,72.1L40.3,71.3L39.6,70.7L38.3,69.8L37.8,69.4L37.7,68.1L37.8,67.9L38.3,67.9L38.5,67.9L39.4,68.8L39.8,69.0L40.3,68.9L41.8,67.2L41.9,66.6L41.0,65.6L39.9,64.7L39.0,64.2L38.9,63.8L39.2,63.5L40.9,63.0L41.5,63.0L41.9,63.1L42.9,64.0L43.6,64.3L44.6,64.4L45.1,64.0L45.7,62.7L45.9,62.4L46.1,62.4L46.3,62.7L46.3,63.9L46.4,64.4L46.9,64.8L47.6,64.9L48.1,64.6L48.6,62.8L49.0,62.3L49.2,62.3L49.4,62.5L49.4,63.1L49.2,63.5L49.2,64.7L49.7,65.3L50.1,65.4L50.6,65.4L51.1,64.9L51.4,63.8L51.8,62.9L51.9,62.7L52.2,62.7L52.4,62.9L52.3,64.6L52.5,65.4L53.1,66.0L54.7,66.1L54.9,65.8L54.8,63.1L55.2,61.8L55.5,61.1L56.0,60.2L57.0,59.2L58.4,58.2L58.6,58.2L58.8,58.7L58.2,59.3L57.8,60.5L57.8,61.6L58.5,62.0L59.0,62.0L60.6,60.5L61.2,60.4L61.4,60.7L60.6,61.6L60.1,62.4L60.1,63.1L61.0,63.8L61.4,64.0L61.9,64.0L63.3,62.8L63.6,62.7L64.1,62.7L64.1,63.1L63.4,63.8L63.1,64.4L63.1,65.1L63.8,65.7L64.8,65.8L65.7,65.4L66.7,65.2L68.1,65.2L69.7,65.4L71.3,66.1L72.8,67.0L74.0,68.0L75.2,69.4L75.9,70.7L76.3,72.2L76.3,73.8L76.1,74.9L74.6,77.3L73.2,79.1L72.8,79.7L72.4,80.0L71.7,81.3L70.7,82.5L70.5,83.0L69.5,84.4L69.5,84.7L68.3,87.1L68.2,87.7L67.5,89.4L67.2,91.4L67.0,92.9L66.1,95.2L65.4,96.3L64.2,97.8L62.4,99.4L62.5,99.8L62.7,99.9L63.9,99.9L65.7,99.4L67.3,97.8L67.9,96.9L68.0,96.6L68.5,96.1L68.7,96.2L68.7,96.7L67.9,98.1L67.7,98.8L67.7,99.1L67.9,99.3L69.0,99.3L70.0,98.9L71.7,97.4L73.5,96.6L74.6,96.3L77.4,96.2L79.1,96.5L80.2,97.1L80.6,97.4L81.0,98.2L81.0,99.6L80.1,101.5L79.2,102.6L78.3,103.5L75.0,106.2L73.3,107.3L71.6,108.2L71.0,108.3L70.0,108.3L67.5,106.8L67.2,106.8L67.0,106.5L65.3,105.7L64.6,105.7L64.3,105.9L63.6,106.7L62.7,108.0L62.5,108.6L62.9,109.0L64.0,109.2L64.7,109.7L64.7,109.9L64.1,110.3L62.1,110.7L61.5,111.2L61.3,112.4L61.6,114.8L61.9,115.0L62.2,115.0L64.2,113.9L65.1,113.9L65.1,114.2L63.7,116.2L63.6,117.0L63.9,117.6L66.4,119.1L66.8,119.1L67.1,118.7L68.3,116.8L69.5,115.6L70.6,115.0L71.9,114.6L73.2,114.6L74.2,114.7L75.5,115.2L77.1,116.6L77.6,116.7L78.0,116.5L78.7,115.7L79.8,113.7L79.8,113.1L79.3,112.5L76.9,111.4L76.5,111.0L76.5,110.8L78.5,109.7L81.0,109.4L81.3,109.3L82.6,109.0L84.6,107.8L84.8,107.4L84.7,107.0L83.0,106.8L82.9,106.5L83.3,106.2L85.1,106.0L86.4,105.6L87.3,104.8L87.6,104.2L87.5,103.9L86.1,103.7L85.9,103.3L88.4,102.7L89.0,102.3L89.6,101.7L89.8,100.9L89.6,100.7L88.4,100.5L88.0,100.1L88.3,99.9L89.3,99.8L90.6,99.3L91.3,98.7L91.7,98.0L91.7,97.5L91.5,97.4L89.9,97.3L89.6,97.1L89.6,96.8L91.1,96.3L91.3,96.1L92.5,95.6L93.0,94.7L93.2,93.7L92.9,93.4L92.1,93.4L91.5,93.7L90.7,93.7L88.1,93.7L85.4,93.3L83.6,92.7L82.2,91.9L81.7,91.5L80.5,90.0L80.2,89.5L80.1,88.5L79.9,88.0L79.9,86.2L80.3,83.9L80.6,83.2L81.2,80.9L81.4,80.3L81.7,78.2L81.7,75.9L81.9,75.9L82.2,76.2L82.6,76.9L83.6,80.2L84.2,81.2L84.4,82.0L85.1,83.2L85.9,84.2L87.0,85.2L88.0,85.8L89.2,86.3L89.6,86.3L90.7,86.7L92.2,86.7L93.7,86.3L95.0,85.8L96.4,84.7L97.4,83.6L98.1,82.6L98.6,81.4L99.3,79.1L99.3,77.7L99.2,76.9L99.2,75.8L98.6,73.4L96.5,68.1L96.3,66.9L95.6,65.2L95.5,62.0L95.6,61.1L96.0,60.3L96.0,58.9L95.6,58.2L95.2,56.8L94.9,56.6L94.6,56.6L94.3,56.7L94.0,57.2L93.4,58.7L93.0,59.0L92.9,57.9L93.4,56.0L94.1,54.7L94.1,54.0L93.9,53.7L93.7,52.7L93.1,51.9L92.6,52.0L92.4,52.2L91.7,53.6L91.5,54.5L91.2,54.8L90.9,54.9L90.9,54.4L91.2,52.8L91.7,51.7L92.5,50.5L92.5,49.3L91.8,47.6L91.6,47.4L91.1,47.4L90.1,48.5L89.5,49.7L89.3,49.9L88.9,49.9L88.8,49.6L88.6,47.8L88.7,45.9L89.1,44.3L90.0,42.8L91.1,41.8L92.5,41.2L93.7,41.0L94.0,40.9L95.8,40.8L97.4,40.4L98.7,39.9L99.7,39.1L99.8,38.4L99.7,38.3L99.3,38.0L98.2,37.8L94.9,37.7L94.9,37.6L95.2,37.3L96.7,37.0L97.7,37.0L98.5,36.9L100.8,36.9L101.2,36.7L101.5,36.2L101.8,35.6L101.8,34.8L101.3,34.3L99.4,34.1L97.8,34.3L97.1,34.5L96.4,34.5L96.3,34.3L97.4,33.6L97.9,33.6L98.8,33.4L100.4,33.2L101.5,33.0L102.0,32.5L102.1,30.7L101.9,30.3L101.5,30.0L100.4,30.0L98.2,30.3L95.9,31.2L94.0,32.1L93.4,32.5L90.9,34.8L88.9,37.4L87.7,39.9L86.6,43.4L86.4,45.0L86.4,49.0L87.0,52.8L87.4,54.3L87.7,55.6L88.8,58.3L89.3,60.1L94.8,70.8L95.8,73.4L95.9,74.3L96.5,76.1L96.6,78.9L96.3,80.2L95.9,81.4L94.6,82.9L93.7,83.6L92.4,84.0L91.1,84.0L90.0,83.6L89.2,83.2L88.6,82.8L87.5,81.4L86.9,80.2L86.3,78.3L86.0,77.7L85.3,75.5L85.1,75.4L85.1,75.1L84.7,74.1L83.7,72.6L81.6,70.4L80.7,68.5L80.3,67.9L80.2,67.5L79.2,65.5L78.6,64.6L77.9,62.9L75.8,58.6L75.0,57.5L74.6,56.3L73.2,53.5L73.1,52.8L73.9,52.0L74.1,51.5L74.2,48.1L74.6,46.2L75.0,45.9L75.3,46.1L75.4,48.4L75.8,49.5L76.1,49.9L76.7,49.8L78.0,48.5L78.7,47.4L78.6,46.6L78.1,45.5L77.6,43.3L77.6,41.1L78.0,41.0L78.2,41.2L78.9,43.3L79.6,44.4L80.2,44.4L80.6,43.9L81.4,41.8L81.4,40.7L81.1,39.8L80.3,38.5L80.1,37.6L79.9,37.2L79.8,36.5L79.4,35.4L79.5,34.7L79.6,34.7L80.1,35.3L81.3,37.3L81.7,37.4L82.1,36.9L82.1,34.8L82.0,33.6L82.0,31.3L81.4,27.5L81.3,27.2L81.1,26.1L80.7,25.3L80.3,23.9L79.5,22.6L81.0,21.3L81.2,20.9L81.1,20.1L80.2,19.4L77.6,18.6L77.3,18.6L76.5,18.2L75.2,17.9Z M66.0,50.4L66.0,50.8L64.9,52.2L64.8,52.6L64.4,53.0L63.4,53.0L63.1,52.7L63.2,52.2L64.1,51.2L65.2,50.5L65.7,50.4Z M61.0,50.3L60.6,50.7L59.1,51.5L58.2,51.5L57.8,51.1L57.8,50.9L58.1,50.7L58.8,50.4L60.4,50.0L60.8,50.0Z M70.5,49.6L70.5,50.1L69.8,53.0L69.6,53.4L69.3,53.5L68.6,53.5L68.3,53.1L68.5,52.2L69.8,50.0L70.2,49.6Z M75.6,26.0L76.0,26.5L76.0,27.6L75.9,28.0L75.5,28.7L74.9,29.4L73.9,29.9L72.7,29.9L72.5,29.8L72.6,29.5L73.4,29.3L73.9,29.0L75.0,28.0L75.2,27.6L75.4,26.9L75.4,26.3Z M67.2,19.1L67.4,19.0L67.7,19.0L68.7,19.6L69.8,19.6L71.3,19.0L72.3,19.0L72.7,19.3L72.6,20.6L72.4,20.9L71.8,21.4L70.9,21.4L70.5,21.2L69.7,20.3L68.4,20.3L67.7,20.0L67.4,19.7Z M48.9,9.8L48.7,10.4L48.8,10.9L49.3,11.0L50.1,10.8L50.0,10.4L49.5,9.8Z M51.2,9.2L50.9,9.3L51.1,9.3L52.0,10.2L53.4,12.2L53.7,13.8L53.7,14.9L53.3,16.4L52.9,17.1L52.2,18.0L51.0,19.1L49.5,19.8L48.1,20.1L46.6,20.0L45.9,19.8L44.8,19.3L42.4,17.3L42.2,16.9L42.4,16.6L42.9,16.6L43.6,17.1L44.1,17.1L44.4,16.8L44.5,16.3L45.1,15.6L45.1,15.2L44.9,15.0L44.7,15.0L43.4,15.9L42.5,16.0L42.2,16.7L41.1,17.3L40.1,17.5L39.6,17.4L39.3,17.1L38.8,16.9L38.4,16.9L37.2,17.1L36.0,17.6L35.8,17.9L35.8,18.3L36.6,19.6L36.8,20.4L36.4,20.7L35.9,20.7L35.1,20.5L34.6,20.1L33.8,20.1L33.4,20.4L32.9,21.1L32.0,23.0L32.0,23.6L32.1,23.8L33.6,24.2L34.3,24.6L35.4,25.6L35.8,26.5L36.0,27.1L36.0,28.4L35.8,29.4L35.3,30.2L33.7,31.7L33.9,32.5L35.0,33.7L35.3,34.3L35.6,34.6L36.3,34.6L37.8,32.9L38.2,32.1L38.5,31.7L38.7,31.0L39.2,30.9L39.5,31.3L40.2,33.2L40.2,33.9L39.3,36.3L39.4,37.7L39.8,38.0L40.3,38.0L40.9,37.8L41.7,37.8L42.0,38.1L42.0,38.3L41.8,38.5L40.9,38.8L40.1,39.4L39.9,39.9L40.0,40.3L40.6,41.0L41.3,41.0L42.1,40.8L43.0,40.9L43.1,41.1L42.8,41.4L41.9,41.8L41.4,42.2L41.4,43.0L41.7,43.6L41.9,43.8L42.6,43.8L43.5,43.5L45.0,43.5L45.1,43.6L45.1,43.8L44.9,44.0L43.7,44.4L42.8,45.1L42.9,46.0L43.5,47.0L44.1,47.0L44.8,46.6L45.9,46.3L47.6,46.2L48.0,46.0L49.6,44.1L52.6,41.3L52.6,40.7L50.5,38.5L49.2,36.9L48.2,35.9L47.8,35.2L46.6,33.6L45.9,32.4L43.6,28.7L43.0,27.6L42.8,26.8L42.8,26.1L42.9,25.6L43.7,24.5L44.5,23.1L46.3,20.9L46.6,20.8L48.9,20.9L50.3,20.5L51.3,20.1L52.5,19.2L53.5,18.2L54.2,16.9L54.7,15.0L54.7,13.8L54.4,12.6L53.8,11.5L52.9,10.3L52.3,9.7L51.8,9.4L51.4,9.4Z M35.8,23.8L36.2,23.8L36.5,24.0L36.9,24.6L36.9,24.9L36.5,24.9L35.8,24.2Z M39.8,18.7L40.2,18.9L41.7,20.3L41.8,20.9L41.5,21.5L38.8,24.5L38.0,24.6L37.4,24.3L36.3,23.4L35.9,22.9L35.9,22.3L36.9,20.9L38.8,19.0L39.2,18.7Z M40.3,18.2L40.6,17.9L41.1,17.7L41.9,17.8L42.2,17.9L42.6,18.6L42.5,19.5L42.2,19.8L41.8,19.8L41.0,19.0L40.3,18.6Z" fill="#000" fill-rule="evenodd"/>
</svg>