<svg xmlns="http://www.w3.org/2000/svg" viewBox="0 0 128 128" width="128" height="128">
  <path d="M72.1,105.1L71.5,105.1L70.4,105.7L70.0,106.1L69.9,106.9L69.5,107.9L69.1,108.5L68.5,109.0L68.2,109.5L68.2,110.3L67.9,111.1L67.2,112.1L67.1,112.5L67.5,114.2L67.8,114.5L68.2,114.5L68.8,114.2L69.6,113.5L70.7,112.4L71.9,110.6L72.4,108.9L72.7,107.3L72.5,105.8L72.3,105.3Z M43.5,107.9L43.6,108.2L45.2,109.0L45.6,109.4L45.7,111.7L46.1,111.6L47.3,110.3L47.7,110.2L49.7,110.9L50.2,110.8L50.1,110.1L49.7,109.8L49.0,108.6L49.2,108.0L50.2,106.7L50.2,106.4L50.1,106.2L48.1,106.6L47.5,106.2L46.9,105.2L46.5,104.8L46.2,104.8L46.0,105.1L45.7,106.9L45.3,107.3L43.7,107.7Z M85.3,107.3L83.6,106.7L83.0,106.1L82.8,105.7L82.7,104.2L82.3,104.1L81.8,105.0L81.1,105.7L80.9,105.7L80.3,105.7L79.5,105.5L78.7,105.4L78.6,105.5L78.6,105.7L79.3,106.7L79.7,107.4L79.7,107.7L79.4,108.5L78.7,109.4L78.7,109.7L78.7,109.9L79.1,109.9L80.7,109.3L81.3,109.3L81.6,109.5L82.7,110.8L83.1,110.7L83.1,108.6L83.5,108.3L85.2,107.6Z M31.5,100.3L31.5,100.6L32.9,101.7L33.2,102.1L33.2,102.6L32.8,104.0L32.8,104.5L32.9,104.6L33.6,104.4L34.5,103.7L35.0,103.7L35.7,103.9L36.9,104.8L37.3,104.7L37.4,104.4L36.8,102.9L36.8,102.5L37.2,102.0L38.6,100.7L38.4,100.4L36.8,100.3L36.4,100.1L36.0,99.8L35.5,98.2L35.2,97.9L34.9,98.0L34.4,99.3L34.0,99.9L33.3,100.1L32.4,100.1Z M90.4,99.7L90.4,100.0L91.1,100.5L92.0,101.5L91.9,102.6L91.6,103.3L91.6,103.8L92.2,103.7L93.7,102.7L94.5,102.8L95.7,103.7L96.0,103.7L96.1,103.5L95.6,101.7L95.6,101.4L97.2,99.9L97.1,99.6L94.9,99.3L94.5,98.9L94.0,97.7L93.7,97.4L93.4,97.5L93.2,98.4L92.5,99.3L92.0,99.5L90.8,99.5Z M26.9,88.4L26.3,88.4L25.5,89.6L25.0,90.0L23.9,89.8L23.0,89.4L22.5,89.5L22.7,90.2L23.1,90.5L23.6,91.5L23.6,91.9L22.4,93.7L22.5,94.0L23.2,94.0L24.2,93.6L24.8,93.6L25.2,93.7L25.9,94.4L26.3,95.1L26.7,95.2L26.9,95.0L27.0,93.2L27.4,92.8L29.2,92.0L29.2,91.8L29.0,91.5L28.1,91.2L27.2,90.6L27.1,90.3Z M95.3,88.1L94.6,88.0L93.8,88.3L93.3,89.1L92.6,89.8L91.5,90.0L91.1,90.3L90.9,91.9L90.5,92.8L89.2,93.9L89.0,94.4L89.0,94.8L89.2,95.2L89.8,95.2L91.2,94.6L92.2,93.8L94.0,92.0L95.0,90.3L95.5,88.6Z M98.8,90.9L99.0,91.2L100.9,91.7L101.3,92.1L101.7,93.5L101.7,94.2L101.9,94.4L102.2,94.3L102.8,93.3L103.4,92.7L104.5,92.7L105.7,93.0L105.9,92.7L104.6,90.8L105.0,89.8L105.7,88.9L105.6,88.4L105.1,88.4L103.9,88.9L103.3,88.9L102.9,88.7L101.8,87.6L101.3,87.6L101.3,88.9L101.1,89.7L100.8,90.0L99.0,90.7Z M88.0,79.8L88.5,81.1L90.1,82.4L90.7,83.5L90.7,83.9L91.1,84.3L92.0,84.6L92.7,85.0L93.2,85.6L93.6,86.3L94.0,86.6L95.3,86.7L95.5,86.5L95.4,85.2L94.9,83.8L93.6,81.7L92.8,80.9L91.3,80.0L90.4,79.7L89.5,79.5L88.5,79.5Z M15.5,81.1L15.8,81.3L18.0,81.4L18.6,82.1L19.1,83.5L19.4,83.6L19.9,82.8L20.0,81.9L20.3,81.4L21.5,81.1L22.6,81.1L22.9,80.8L21.7,80.0L21.0,79.2L21.0,78.8L21.5,77.4L21.5,77.0L21.0,76.9L19.7,77.9L18.9,77.9L18.5,77.8L17.5,77.0L16.9,76.9L16.8,77.3L17.2,78.1L17.4,78.8L17.3,79.5L16.0,80.6L15.5,80.8Z M111.4,75.4L110.8,75.5L109.3,76.6L108.5,76.6L107.4,75.8L106.8,75.6L106.7,76.2L107.0,76.8L107.1,78.0L106.2,79.0L105.3,79.5L105.3,79.8L107.7,80.0L108.3,80.6L108.9,82.3L109.3,82.2L109.9,80.6L110.5,80.0L112.6,79.8L112.6,79.5L111.5,78.7L110.9,78.0L111.2,76.6L111.5,75.9Z M15.5,63.0L15.2,63.0L15.3,65.4L15.0,65.7L13.1,66.5L13.1,67.0L14.6,67.4L15.4,67.9L15.5,69.8L15.6,70.0L16.0,70.1L16.3,69.8L16.4,69.4L17.4,68.3L17.8,68.2L18.8,68.5L19.8,68.4L19.8,68.1L19.5,67.8L18.7,66.7L18.7,66.2L19.5,64.7L19.6,64.2L19.3,64.1L18.5,64.5L17.3,64.6L17.0,64.5Z M108.1,62.8L108.2,63.2L109.3,64.7L109.3,65.1L108.7,66.0L108.1,66.6L108.1,67.0L108.2,67.2L108.5,67.2L109.3,66.9L110.5,66.8L110.7,66.9L111.5,67.7L112.1,68.5L112.4,68.5L112.5,67.9L112.5,66.8L112.7,66.2L113.1,65.9L114.6,65.4L114.7,65.0L113.1,64.3L112.8,64.0L112.6,63.5L112.7,62.1L112.5,61.7L112.1,61.7L111.6,62.5L110.9,63.1L110.7,63.2L110.1,63.2L108.5,62.7Z M104.6,57.3L104.0,57.3L102.9,57.8L101.7,59.1L100.9,59.6L100.5,60.0L99.8,61.7L98.4,63.0L98.3,63.3L98.2,64.2L98.4,64.5L99.5,64.3L100.4,63.9L100.6,63.7L101.2,63.4L102.7,62.1L104.0,60.3L104.1,59.8L104.6,58.6Z M14.2,52.4L14.3,52.7L15.6,53.4L16.2,54.0L16.3,54.5L15.8,56.1L15.9,56.5L16.1,56.6L17.8,55.4L18.4,55.4L19.9,56.4L20.3,56.4L20.4,56.1L19.9,55.0L19.7,53.9L19.9,53.5L20.7,52.7L21.3,52.4L21.1,52.1L18.9,52.0L18.6,51.7L18.4,51.2L18.1,50.8L18.0,50.4L17.8,50.1L17.5,50.2L17.0,51.7L16.4,52.1Z M97.6,48.6L97.5,48.8L97.5,49.1L98.0,50.4L99.7,51.7L100.5,53.7L102.1,55.0L102.8,56.0L104.1,56.2L104.5,56.1L104.7,56.0L104.8,55.4L104.4,53.5L103.1,51.1L102.2,50.3L100.4,49.1L99.1,48.6Z M113.0,50.7L112.9,50.5L111.8,50.5L110.9,50.4L110.3,49.7L110.1,48.9L109.7,48.0L109.3,48.0L108.8,49.7L108.4,50.1L107.7,50.3L106.0,50.3L105.9,50.6L106.8,51.3L107.6,52.1L107.6,52.6L107.3,53.6L106.8,54.4L106.9,54.7L107.3,54.7L108.9,53.7L109.5,53.6L110.1,53.8L111.3,54.8L111.4,54.8L111.6,54.6L111.4,53.7L111.3,53.5L111.2,52.5L111.6,51.9L112.9,51.0Z M23.6,37.8L22.8,39.1L22.3,39.6L21.7,39.6L20.7,39.3L20.3,39.4L20.3,39.9L20.7,40.3L21.3,41.3L21.1,42.0L20.4,43.0L20.3,43.3L20.4,43.5L20.8,43.6L22.3,43.0L22.9,43.1L24.0,44.2L24.5,44.3L24.7,44.1L24.6,42.5L24.7,42.2L25.1,41.9L26.2,41.3L26.5,40.9L26.4,40.7L25.1,40.4L24.4,39.9L24.3,39.3L24.2,38.1L23.9,37.8Z M102.9,35.6L102.6,35.6L102.4,38.0L101.7,38.4L99.9,39.0L99.7,39.2L100.1,39.6L101.6,40.2L102.1,40.7L102.1,42.8L102.2,43.1L102.6,43.0L103.6,41.6L103.9,41.2L104.3,41.1L105.2,41.2L106.9,41.7L107.0,41.6L107.0,41.2L105.6,39.3L105.7,38.8L106.7,37.6L106.8,37.2L106.1,37.1L105.2,37.4L104.4,37.4L104.0,37.1L103.5,36.3Z M89.4,30.5L89.0,31.3L89.0,31.9L89.6,33.3L89.6,34.1L89.3,35.2L89.3,35.7L90.5,37.5L90.7,38.1L90.7,39.2L90.8,39.5L91.3,39.9L91.7,39.9L92.0,39.6L92.3,38.8L92.5,37.6L92.5,35.6L92.4,34.6L91.9,33.0L91.0,31.6L90.1,30.8L89.7,30.5Z M88.2,29.7L87.6,29.2L86.0,28.7L82.7,28.7L80.1,29.9L79.0,30.7L77.9,32.0L77.8,32.8L78.3,33.1L79.5,33.2L80.3,32.7L81.4,32.4L82.5,32.4L82.8,32.5L83.5,32.5L84.6,31.6L85.5,31.1L87.4,30.9L88.0,30.4L88.2,30.0Z M29.2,28.3L29.2,28.7L29.7,29.6L29.9,30.4L29.6,31.0L28.4,32.0L28.5,32.4L30.8,32.4L31.3,33.0L32.0,34.5L32.2,34.5L32.5,34.1L32.6,32.9L32.8,32.3L33.4,31.9L34.9,31.6L35.2,31.3L34.7,30.9L33.7,30.4L33.3,30.0L33.3,27.9L32.9,27.8L32.3,28.4L31.5,28.9L30.8,28.8L29.6,28.2Z M60.5,28.0L60.6,28.5L62.3,29.6L63.1,29.6L63.2,28.1L62.8,27.5L61.9,27.5Z M92.8,25.4L93.2,27.6L92.4,28.5L91.7,29.1L91.6,29.1L91.3,29.3L91.3,29.5L91.7,29.7L93.3,29.8L93.8,30.0L94.1,30.3L94.3,30.7L94.4,31.7L94.6,32.0L94.9,32.0L95.7,30.2L96.0,30.0L96.5,29.8L98.1,29.8L98.2,29.5L96.8,28.0L96.8,27.5L97.4,26.2L97.4,25.6L97.1,25.5L95.6,26.5L94.9,26.5L93.4,25.4Z M59.2,22.3L58.0,22.5L56.6,22.5L55.7,22.7L54.1,22.9L50.6,23.9L50.1,24.2L48.6,24.7L48.1,24.8L47.7,25.1L47.5,25.1L46.5,25.6L45.9,25.8L45.3,26.2L44.3,26.7L42.4,28.0L39.6,30.4L38.3,31.8L37.8,32.5L36.8,33.6L35.1,36.2L34.5,37.6L33.8,38.8L33.3,40.0L32.4,43.8L32.3,44.9L32.3,48.5L32.6,51.0L33.0,52.8L33.2,53.2L33.4,53.8L34.7,56.4L35.8,58.0L37.1,59.5L38.9,61.2L41.3,62.8L44.1,64.0L45.6,64.5L48.2,65.1L50.1,65.4L50.8,65.5L51.0,65.8L51.1,73.2L50.8,74.0L49.1,77.0L46.5,82.3L45.9,83.1L45.1,84.8L44.5,85.5L44.1,86.4L42.8,87.6L41.4,88.5L40.4,88.8L38.9,88.8L38.3,88.7L37.2,88.0L36.3,86.9L36.3,86.6L36.4,86.4L37.6,86.7L39.0,86.7L40.3,86.4L41.2,85.8L42.0,85.2L42.9,83.9L43.4,83.1L43.8,81.9L43.8,80.0L43.3,77.9L42.4,76.3L41.2,75.1L39.1,74.0L38.7,74.0L37.2,73.6L34.6,73.7L33.4,74.0L32.2,74.7L31.5,75.2L29.5,77.4L28.6,79.0L27.9,81.3L27.9,84.4L28.3,86.7L28.8,88.0L30.7,90.9L32.4,92.8L34.0,94.0L35.6,94.8L38.4,95.6L39.5,95.6L40.0,95.8L52.4,95.8L52.6,96.0L52.8,97.1L52.7,99.6L52.9,104.9L53.5,107.9L54.7,110.7L55.7,111.9L56.7,112.9L57.6,113.7L59.0,114.5L59.9,114.8L61.9,115.2L65.4,115.3L66.4,115.1L66.8,115.0L66.9,114.5L66.6,113.9L65.8,112.9L65.4,112.8L64.2,112.6L63.3,112.1L62.6,111.5L60.1,111.5L59.2,111.1L58.5,110.5L57.8,110.5L57.2,110.8L56.5,110.7L56.5,110.4L56.7,110.4L58.0,109.4L58.2,107.8L58.7,107.1L60.0,105.8L60.0,105.5L59.7,104.9L59.0,104.9L58.0,105.4L57.4,105.4L56.9,104.9L56.6,104.0L56.5,102.9L56.8,101.6L57.7,100.5L57.7,99.7L57.2,99.2L56.3,99.3L55.8,99.7L55.2,99.7L54.7,99.2L54.5,98.0L54.5,96.9L54.7,96.2L55.3,95.0L56.4,94.0L58.9,92.8L59.1,92.5L59.1,92.1L58.2,90.0L58.2,89.7L57.8,89.1L57.1,87.3L56.4,86.0L56.3,85.5L55.5,83.9L55.4,83.4L55.1,82.9L54.9,82.3L54.7,82.1L54.1,80.5L53.6,79.3L53.1,78.7L52.9,78.7L52.6,79.0L48.5,87.1L46.6,89.9L45.2,91.2L43.7,92.0L42.3,92.6L40.6,92.9L39.2,92.9L36.8,92.5L36.5,92.3L35.6,92.0L33.5,90.7L32.0,89.2L30.6,87.1L30.2,86.2L30.0,85.2L29.8,84.5L29.9,81.9L30.2,80.7L30.6,79.7L31.4,78.4L32.5,77.3L33.8,76.5L35.2,76.0L36.8,76.0L37.9,76.3L38.8,76.7L39.6,77.3L40.4,78.1L40.8,79.1L41.0,79.9L41.0,81.2L40.6,82.4L39.4,83.5L38.5,83.9L37.8,84.1L36.3,84.0L35.6,83.7L35.0,83.0L34.8,82.3L34.8,81.8L34.9,81.4L34.8,80.9L34.5,80.9L33.7,81.6L33.2,82.6L32.9,83.5L32.9,85.6L33.3,86.9L34.1,88.3L35.7,89.9L36.3,90.3L37.5,90.8L39.3,91.2L40.8,91.2L41.1,91.0L42.5,90.8L44.5,89.6L46.1,87.8L46.2,87.5L47.4,85.6L47.6,85.1L47.8,84.8L48.3,83.9L48.5,83.4L49.5,81.7L50.2,80.1L50.9,79.0L51.1,78.4L51.4,78.0L52.5,75.8L53.5,74.0L53.8,73.1L54.5,72.2L57.4,66.4L57.9,65.7L58.8,65.4L71.1,65.4L71.5,65.5L71.5,65.8L69.0,69.4L68.2,70.6L67.2,71.9L62.7,78.5L62.7,79.0L63.0,79.5L63.7,81.5L64.3,82.8L64.3,83.1L64.6,83.6L65.8,86.8L66.1,87.2L66.2,87.9L66.9,89.2L67.0,89.6L67.4,90.4L67.6,91.3L67.8,91.7L68.1,93.1L67.9,94.2L67.5,94.8L66.6,95.6L66.1,95.7L65.7,96.0L64.2,96.5L63.5,97.0L63.5,97.7L65.4,102.9L65.8,103.4L67.8,103.7L68.6,104.1L69.4,104.8L69.8,104.9L71.1,104.6L71.5,104.3L71.5,103.8L70.7,102.6L69.9,101.9L69.4,101.7L68.7,100.9L68.6,97.2L68.7,96.3L69.1,95.8L75.2,95.6L77.5,95.6L86.4,95.5L87.2,95.4L87.5,95.2L87.5,94.8L87.3,94.3L86.8,93.8L86.2,93.6L85.4,92.9L84.8,92.0L84.7,91.5L84.3,91.1L83.9,91.1L83.5,91.2L83.4,91.6L83.4,93.0L83.3,93.3L83.1,93.6L80.9,93.6L79.8,93.2L78.9,92.5L77.9,91.3L77.1,91.4L76.9,91.7L77.0,93.1L76.7,93.6L75.5,93.6L73.9,93.2L73.2,92.7L72.6,92.0L72.1,90.7L71.9,89.1L72.0,88.7L71.9,84.7L71.7,84.3L71.3,84.1L68.3,84.0L67.7,83.8L67.0,83.2L66.2,82.5L65.8,81.6L65.7,80.0L65.8,79.1L66.2,78.3L67.0,77.5L68.2,76.9L72.9,76.7L75.3,76.7L76.4,76.9L77.4,77.7L77.6,78.3L77.8,84.8L78.1,85.1L78.6,85.2L83.8,85.2L84.3,85.0L84.4,84.8L84.5,84.1L85.0,83.0L85.6,82.3L85.7,82.3L86.8,81.5L87.0,80.0L86.7,79.8L85.5,80.0L84.3,80.9L82.9,82.3L81.4,82.3L81.1,81.8L80.9,81.1L80.7,75.3L80.3,73.9L79.5,73.0L78.7,72.7L73.3,72.7L73.1,72.1L73.3,71.9L73.8,70.8L74.1,70.5L74.7,69.3L75.8,67.8L76.0,67.3L76.8,66.2L76.9,65.9L77.5,65.4L77.9,65.2L82.7,65.0L84.1,65.0L94.1,64.8L95.8,64.9L96.6,64.7L97.0,64.3L96.9,63.4L96.6,63.0L96.0,62.7L94.8,61.7L94.4,60.8L94.0,60.5L93.4,60.5L93.2,60.7L93.0,62.8L92.8,63.1L92.5,63.2L90.4,63.2L88.9,62.9L88.3,62.5L87.6,61.8L86.7,60.6L86.1,60.6L85.7,60.9L85.6,62.7L85.2,63.0L82.7,63.0L81.5,62.8L80.8,62.5L79.7,61.8L79.2,61.3L78.7,60.3L78.4,58.6L78.4,56.2L78.6,55.0L78.9,54.8L79.7,54.7L85.5,54.6L86.7,54.5L93.3,54.3L93.9,54.0L94.2,52.9L94.8,51.8L96.0,50.8L96.3,50.1L96.5,49.1L96.2,48.7L95.5,48.8L93.8,49.7L93.0,50.5L92.4,51.2L92.0,51.3L89.4,51.4L88.2,51.6L85.6,51.5L85.2,51.2L85.4,50.4L86.1,49.4L86.8,48.1L89.2,44.5L90.6,42.3L90.9,41.4L90.4,40.9L90.0,40.8L89.2,40.9L88.1,41.4L87.0,41.4L86.0,41.0L85.6,41.0L85.0,41.5L85.0,42.1L85.4,42.5L86.5,43.3L86.9,43.7L87.1,44.1L86.2,45.3L84.9,46.3L83.6,46.6L82.0,46.5L81.5,46.9L81.4,47.4L82.0,48.0L83.8,49.1L83.8,49.5L82.2,51.1L81.1,51.6L79.7,51.7L78.0,51.7L77.6,51.3L76.5,48.6L75.4,46.6L75.4,46.1L75.7,45.5L77.3,43.3L77.5,42.8L78.6,41.2L79.9,39.0L79.9,38.4L79.1,37.2L78.7,36.5L78.6,35.9L78.6,35.1L78.4,34.8L77.5,33.8L77.0,33.9L76.7,34.7L76.8,36.0L77.1,37.1L77.1,38.0L75.1,41.4L73.6,43.3L73.3,43.3L73.1,42.9L72.7,34.7L72.4,34.5L71.9,34.5L70.5,34.9L68.2,35.3L66.2,35.3L64.1,34.8L63.4,34.8L63.2,35.2L63.2,35.5L63.5,36.1L64.1,36.4L68.9,36.4L69.4,36.8L69.4,37.6L69.2,38.2L68.6,38.8L67.1,39.3L66.2,39.3L65.4,39.7L65.4,40.4L66.1,40.9L67.4,41.4L69.0,42.4L71.1,44.1L71.9,45.0L72.9,46.9L72.8,47.3L72.5,47.5L65.3,47.7L63.0,47.7L60.7,47.4L55.3,46.0L54.9,45.7L54.5,45.7L53.3,45.1L51.2,43.7L50.0,42.7L48.7,41.4L48.0,39.9L47.7,35.2L47.7,33.0L48.0,31.7L48.8,30.3L50.3,28.8L51.7,27.8L52.1,27.6L52.5,27.2L52.6,25.5L52.9,25.1L53.7,24.4L55.7,24.3L61.4,25.1L66.8,25.5L68.4,25.9L68.9,26.2L69.4,26.7L69.6,27.3L69.8,29.2L69.8,31.6L69.5,31.8L69.1,31.9L65.0,32.0L63.8,32.3L63.4,32.7L63.2,33.1L63.4,33.8L64.1,34.0L69.8,34.0L72.1,33.9L72.6,33.6L72.7,33.5L72.7,30.5L72.7,28.5L72.5,27.9L72.4,26.6L71.9,25.4L71.0,24.4L69.3,23.4L66.7,22.6L65.9,22.6L64.0,22.3Z M68.7,62.5L68.8,61.8L69.4,61.4L73.9,61.3L74.3,61.5L74.2,61.8L73.8,62.2L73.5,62.8L73.1,63.2L69.8,63.2L69.4,63.1Z M64.0,58.5L64.8,57.8L66.7,57.7L70.3,57.7L70.8,57.8L70.9,58.2L70.8,59.3L70.5,59.6L64.6,59.7L64.0,59.1Z M72.4,58.3L73.1,57.8L73.7,57.6L75.4,57.6L75.6,57.9L75.3,59.0L75.1,59.3L74.6,59.4L72.9,59.4L72.4,58.9Z M68.3,54.8L68.7,54.2L69.4,54.0L75.3,53.9L75.8,54.2L75.9,55.2L75.5,55.6L74.7,55.7L69.0,55.7L68.4,55.3Z M59.5,54.5L60.1,54.0L60.5,53.8L63.8,54.1L66.2,54.1L66.5,54.1L66.7,54.4L66.8,55.7L66.6,55.8L63.1,55.8L60.3,55.7L59.9,55.5L59.6,55.2Z M70.5,50.1L70.4,51.7L70.2,51.8L63.8,51.8L63.3,51.6L63.0,51.3L63.1,50.1L63.4,49.9L63.8,49.8L70.1,49.7Z M75.1,51.2L75.1,51.4L74.8,51.7L72.3,51.7L71.9,51.3L71.8,50.5L71.9,50.1L72.3,49.8L72.9,49.7L74.2,49.6L74.7,50.1Z M56.1,49.3L56.5,48.8L57.3,48.7L58.5,49.1L61.5,49.6L61.8,49.9L61.6,50.5L61.8,51.2L61.7,51.6L59.9,51.6L57.4,51.1L56.4,50.5L56.1,50.0Z M34.6,48.0L34.8,47.8L35.1,48.1L35.8,49.7L36.9,51.8L39.3,54.8L41.4,56.6L41.6,56.6L44.1,58.4L45.8,59.3L46.9,59.6L47.7,60.0L50.1,60.6L56.4,61.3L67.0,61.4L67.5,61.7L67.4,62.2L67.4,63.1L67.0,63.4L63.3,63.3L60.5,63.4L55.5,63.4L52.3,63.3L48.5,62.8L45.9,62.1L45.6,61.8L43.5,61.0L42.9,60.6L42.4,60.5L42.1,60.2L41.5,60.0L40.3,59.1L37.7,56.7L36.4,55.1L35.1,52.4L34.6,50.3Z M35.8,40.5L36.1,40.3L36.4,40.5L37.1,43.0L38.0,45.5L39.1,47.5L40.0,48.9L40.8,50.0L42.8,52.0L45.1,53.9L46.4,54.7L46.9,54.9L49.1,56.0L49.7,56.1L51.0,56.6L55.8,57.5L62.2,57.8L62.4,57.9L62.6,58.3L62.5,58.8L62.6,59.4L62.2,59.7L58.1,59.6L56.0,59.4L55.4,59.3L53.3,59.2L51.2,58.9L47.3,57.8L47.0,57.6L46.5,57.5L45.3,56.9L44.4,56.2L43.8,56.0L41.5,54.1L39.0,51.7L38.0,50.5L36.4,48.0L36.4,47.5L35.9,46.7L35.4,44.4L35.4,42.3Z M38.9,34.7L39.2,34.5L39.6,34.8L39.8,36.6L40.4,39.4L40.6,39.6L40.8,40.8L41.6,42.7L43.1,45.1L44.5,46.9L46.8,49.0L48.5,50.2L49.9,51.0L50.6,51.3L51.0,51.6L51.3,51.6L52.6,52.2L54.6,52.9L56.5,53.3L57.1,53.3L58.2,53.6L58.3,53.7L58.3,54.1L58.2,54.3L58.1,55.3L56.5,55.4L54.4,55.1L54.1,54.9L52.3,54.6L50.9,54.1L50.3,54.0L49.7,53.6L49.3,53.5L48.0,52.9L46.4,51.7L46.0,51.6L44.1,50.2L42.6,48.8L40.8,46.5L40.8,46.4L40.0,45.1L39.0,43.1L39.0,42.8L38.6,42.1L38.2,40.9L38.0,39.7L38.0,37.2L38.3,35.6Z M43.0,30.3L43.3,30.2L43.6,30.5L43.7,32.7L44.0,34.9L44.8,37.8L45.9,40.2L47.3,42.4L49.8,44.9L51.7,46.3L52.9,47.0L54.5,47.7L54.9,48.1L54.9,48.4L54.5,48.9L54.7,49.9L54.6,50.2L54.1,50.3L51.7,49.2L51.3,49.1L48.1,47.2L45.3,44.4L43.7,42.0L42.2,39.0L41.7,37.2L41.4,34.9L41.4,33.8L41.7,32.1L42.2,31.2Z M38.8,23.2L38.8,23.5L40.8,23.9L41.3,24.6L41.6,26.1L42.0,26.2L42.4,25.6L42.7,25.0L43.3,24.3L45.8,24.3L44.6,23.1L44.2,22.6L44.2,21.9L45.0,20.3L44.9,20.0L44.5,20.0L43.3,20.7L42.6,20.7L42.0,20.4L41.2,19.5L40.7,19.5L40.7,20.4L40.8,21.2L40.8,21.9L40.4,22.3L40.0,22.7Z M80.4,18.8L80.4,19.3L80.7,19.6L81.3,20.7L81.3,21.5L80.2,22.9L80.1,23.2L80.7,23.3L81.5,23.1L82.3,23.1L83.0,23.6L83.6,24.9L84.1,24.9L84.3,24.6L84.3,23.7L84.5,22.7L84.9,22.3L86.3,21.9L86.5,21.7L86.5,21.5L86.4,21.3L85.2,20.7L84.8,20.4L84.7,18.2L84.3,18.3L83.1,19.5L82.4,19.5L80.8,18.8Z M54.5,14.3L54.4,16.0L54.1,16.6L53.7,16.9L51.7,17.2L51.6,17.5L51.9,17.9L52.3,17.9L52.9,18.3L53.2,18.4L53.7,18.9L53.8,20.1L53.7,20.7L53.7,21.3L54.1,21.4L55.2,20.2L55.6,19.9L56.4,20.0L57.7,20.7L58.1,20.7L58.1,20.4L57.3,19.0L57.2,18.2L57.4,17.9L58.6,16.7L58.6,16.3L56.2,16.3L55.9,16.0L55.3,14.8L54.9,14.3Z M66.6,15.5L66.6,15.9L67.8,17.1L68.1,17.7L68.1,18.2L67.3,19.6L67.4,19.9L67.9,19.9L69.0,19.4L69.7,19.3L70.1,19.5L71.2,20.7L71.5,20.7L71.5,18.4L72.3,17.8L73.7,17.1L73.5,16.7L72.2,16.5L71.4,16.2L71.1,15.8L70.9,15.2L70.9,14.3L70.6,13.9L70.3,13.9L70.0,14.7L69.3,15.6L68.2,15.7L67.3,15.5Z M58.7,10.2L55.1,10.7L50.1,11.8L45.6,13.4L45.0,13.4L44.7,13.7L43.7,13.9L42.8,14.4L41.6,14.7L41.1,15.1L40.4,15.3L36.6,17.4L36.3,17.7L36.0,17.8L35.5,18.2L35.0,18.3L33.9,19.1L32.8,19.7L32.4,20.2L31.9,20.4L28.9,22.7L25.1,26.1L23.1,28.2L20.3,31.6L19.7,32.5L18.2,34.5L17.8,35.3L17.4,35.7L16.9,36.7L15.9,38.1L14.6,40.7L14.5,41.2L13.2,43.7L13.0,44.3L12.8,44.6L12.6,45.5L12.0,46.8L11.8,47.8L11.5,48.1L11.3,49.3L11.0,49.7L10.9,50.8L10.5,52.0L10.3,53.2L10.2,53.3L10.0,55.1L9.7,56.2L9.5,58.2L9.3,59.4L9.1,61.8L9.2,68.2L9.6,70.5L9.7,72.2L9.9,73.0L10.0,74.2L10.6,76.7L10.8,77.2L11.4,79.9L11.8,80.6L12.0,81.6L12.2,81.9L12.3,82.4L12.6,82.8L12.8,83.8L13.5,85.2L13.6,85.8L14.4,87.2L15.1,88.9L15.8,90.0L15.9,90.6L16.2,90.8L16.3,91.3L17.1,92.3L17.3,92.8L18.5,94.5L21.5,98.4L25.3,102.5L29.6,106.4L31.6,107.7L32.0,108.1L32.4,108.3L33.2,109.0L33.8,109.3L36.0,110.7L37.1,111.2L37.7,111.7L42.4,113.9L43.1,114.1L45.7,115.2L46.9,115.4L48.8,116.2L49.7,116.3L50.9,116.7L53.0,117.2L53.6,117.2L54.7,117.5L57.3,117.9L60.6,118.2L67.1,118.2L68.4,118.1L69.8,118.1L71.5,117.8L71.9,117.7L73.1,117.6L74.7,117.2L75.3,117.2L80.2,116.0L81.5,115.6L82.3,115.2L82.8,115.1L85.0,114.2L85.8,114.0L86.4,113.6L87.2,113.2L87.7,113.1L88.4,112.7L89.4,112.3L90.1,111.8L90.5,111.7L90.7,111.5L91.2,111.3L93.1,110.1L95.6,108.6L99.5,105.7L102.7,102.8L106.1,99.0L109.3,95.1L109.8,94.0L110.1,93.7L111.9,90.9L112.0,90.6L112.4,90.1L113.8,87.2L113.8,87.0L114.1,86.8L114.6,85.6L115.2,83.9L115.5,83.5L115.6,82.9L115.9,82.4L116.1,81.6L116.4,81.1L116.6,80.3L116.9,79.5L117.0,78.9L117.3,78.2L117.4,77.5L117.7,76.7L117.8,75.9L118.1,74.9L118.4,72.6L118.7,71.4L118.8,68.9L119.1,66.4L119.1,61.6L119.0,59.4L118.7,58.3L118.6,56.5L118.4,55.7L118.2,54.2L117.8,53.1L117.6,51.6L117.4,51.1L117.2,49.8L116.6,48.2L116.6,47.9L116.3,47.4L115.9,45.8L115.2,44.4L115.1,43.7L113.8,41.1L113.8,40.8L113.4,40.1L113.3,39.7L112.9,39.4L112.7,38.8L110.6,35.2L107.1,30.3L104.3,27.1L100.8,23.7L99.2,22.3L98.8,22.2L98.0,21.5L96.7,20.4L96.1,20.2L94.8,19.1L93.9,18.7L93.4,18.3L93.1,18.2L92.5,17.7L91.2,17.1L90.3,16.4L89.2,15.9L88.9,15.7L87.8,15.3L86.8,14.6L85.3,14.2L83.9,13.5L83.5,13.4L82.7,13.0L80.3,12.2L75.4,11.0L72.3,10.5L70.8,10.4L70.1,10.2L67.7,10.2L67.0,10.0L61.6,10.0Z M62.2,10.6L67.7,10.6L73.2,11.3L78.3,12.4L80.0,12.9L81.1,13.4L82.0,13.5L86.2,15.1L91.5,17.8L96.4,21.1L96.6,21.3L97.1,21.5L100.1,24.1L100.3,24.2L104.4,28.2L107.3,31.6L110.5,36.0L113.3,41.1L113.4,41.5L113.8,42.1L114.4,43.9L115.0,45.2L115.7,47.3L116.0,48.0L116.1,48.5L116.4,49.2L116.5,50.1L116.9,51.0L117.0,51.9L117.3,52.7L117.7,54.7L117.8,56.3L118.1,57.0L118.5,62.2L118.4,66.8L118.2,68.6L118.1,70.7L117.8,72.1L117.6,73.9L117.3,74.8L117.2,75.7L117.0,76.3L116.7,77.7L116.5,78.2L116.3,79.1L116.1,79.5L115.0,82.7L114.7,83.3L114.6,83.9L114.2,84.6L114.0,85.2L113.8,85.6L113.1,87.2L112.9,87.5L112.2,88.9L112.0,89.2L111.8,89.6L111.2,90.5L109.8,93.0L106.7,97.3L104.0,100.5L99.9,104.5L97.9,106.1L97.5,106.2L96.4,107.2L93.9,108.9L93.2,109.4L92.9,109.5L92.4,109.9L91.9,110.1L91.6,110.4L90.1,111.2L88.7,111.8L88.4,112.1L87.9,112.2L86.4,113.0L86.0,113.1L85.3,113.5L83.3,114.3L82.7,114.4L81.9,114.8L80.9,115.0L79.4,115.6L74.6,116.8L73.0,117.0L72.1,117.2L70.7,117.3L70.3,117.4L67.5,117.7L61.1,117.7L56.9,117.3L51.4,116.3L45.9,114.7L41.7,113.0L39.5,111.9L39.1,111.8L38.0,111.2L37.6,110.9L36.4,110.3L32.4,107.7L32.0,107.3L29.1,105.2L27.8,104.1L23.1,99.3L18.7,93.7L18.4,93.2L17.7,92.3L17.1,91.2L16.9,90.9L16.7,90.4L16.0,89.4L15.9,88.8L14.6,86.5L14.1,85.1L13.7,84.5L13.7,84.2L13.3,83.4L13.1,82.7L12.8,82.2L12.6,81.3L12.2,80.4L12.2,79.9L11.9,79.4L11.8,78.4L11.5,77.9L11.4,77.1L11.0,75.9L10.9,74.6L10.6,73.7L10.4,71.8L10.2,71.1L10.0,67.5L9.8,66.4L9.8,63.5L10.2,56.9L10.4,56.3L10.6,54.7L11.3,51.9L11.4,50.7L12.2,48.3L12.3,47.7L12.6,47.1L12.7,46.5L13.2,45.7L13.3,45.2L13.6,44.7L13.7,44.2L14.0,43.7L14.2,43.0L14.5,42.5L14.6,42.1L15.1,41.0L15.4,40.8L15.5,40.3L16.7,38.3L17.3,37.1L19.5,33.8L20.2,32.9L20.3,32.5L23.9,28.3L28.5,23.9L31.6,21.5L32.3,21.1L33.2,20.2L35.1,19.1L36.1,18.3L37.3,17.8L39.2,16.6L40.8,15.9L41.0,15.7L43.7,14.6L44.0,14.4L44.8,14.2L45.3,13.9L46.4,13.7L47.2,13.3L47.5,13.3L48.1,13.0L50.6,12.4L51.2,12.2L57.1,11.0Z" fill="#000" fill-rule="evenodd"/>
</svg>