<svg xmlns="http://www.w3.org/2000/svg" viewBox="0 0 128 128" width="128" height="128">
  <path d="M35.9,44.3L35.7,44.7L35.7,45.1L36.1,46.2L36.7,46.8L38.0,47.6L38.4,48.1L38.5,49.1L38.7,49.1L38.8,46.9L38.8,46.2L38.4,45.1L38.0,44.7L37.2,44.3Z M37.1,45.3L37.6,45.4L37.8,45.8L37.5,46.1L37.0,46.0L36.9,45.5Z M118.9,58.3L118.2,56.7L116.9,55.2L115.4,54.1L114.4,53.6L113.4,53.3L113.0,53.3L112.6,53.2L110.9,53.2L108.2,53.4L107.8,53.5L106.8,53.6L106.2,53.8L105.1,54.0L104.7,54.2L103.4,54.5L102.0,55.1L101.3,55.0L101.2,54.3L101.6,53.2L101.9,51.7L101.9,50.8L101.8,50.1L101.3,48.6L100.8,47.6L100.1,46.6L98.0,44.6L96.5,43.3L95.7,42.9L95.1,42.8L94.8,43.1L93.3,46.4L93.0,46.8L92.5,47.9L91.9,48.6L91.8,49.0L91.1,49.6L90.8,49.6L90.0,49.3L89.8,49.1L89.7,48.7L90.5,47.7L91.9,44.7L92.2,44.3L92.8,42.4L93.0,40.7L93.1,40.4L93.1,39.3L92.7,38.9L88.2,39.0L86.7,39.1L79.5,39.0L76.6,39.3L75.0,39.3L74.2,39.0L72.6,38.0L71.9,37.8L71.2,37.4L70.6,37.2L70.4,37.1L69.1,36.6L67.4,36.2L65.9,36.2L64.1,36.4L62.6,36.9L61.8,37.2L60.7,38.1L59.3,39.5L58.4,40.7L56.9,42.1L55.9,43.7L55.3,44.9L55.1,46.0L55.1,48.6L55.7,50.4L56.9,52.4L56.9,53.3L56.4,53.9L56.0,54.0L55.3,53.3L55.3,52.8L54.9,52.2L54.8,51.8L54.1,50.4L53.7,49.2L53.3,48.6L53.2,48.0L52.8,47.0L52.5,46.8L52.5,46.3L51.3,44.0L51.3,41.3L50.8,40.2L50.1,39.3L49.2,38.6L48.6,38.3L47.5,38.0L47.1,37.8L45.6,37.7L44.8,37.3L44.6,37.3L44.0,37.0L41.6,36.5L38.7,36.5L37.2,36.7L36.5,37.0L34.4,38.1L32.7,38.2L31.7,38.6L30.5,39.7L29.7,41.1L29.5,41.7L29.3,43.2L29.3,53.4L29.5,55.3L29.5,57.6L29.6,58.8L29.5,63.1L29.1,63.4L26.1,63.6L24.3,63.5L24.0,63.1L23.6,62.2L23.1,61.3L22.1,60.3L20.7,59.5L19.1,59.1L18.0,59.1L16.3,59.5L15.4,60.1L14.1,61.4L14.0,61.7L13.7,62.0L13.4,62.8L13.0,63.2L11.4,63.9L10.2,65.1L9.7,65.9L9.3,67.0L9.1,68.2L9.1,69.6L9.6,71.2L10.6,72.5L12.8,74.1L13.7,76.0L14.6,76.9L15.3,77.4L16.6,78.0L18.1,78.3L19.6,78.3L20.7,77.8L22.0,77.1L22.8,76.3L23.4,75.2L23.8,74.9L24.2,74.7L27.9,75.2L28.1,75.5L28.0,75.8L27.2,76.3L26.1,77.4L25.6,78.2L25.1,79.6L24.8,80.6L24.9,81.6L25.5,83.0L25.5,83.8L25.1,85.3L25.1,86.4L25.3,87.7L25.6,88.6L26.1,89.5L27.2,90.5L28.5,91.4L29.2,91.6L31.2,91.8L32.1,91.6L33.0,91.2L33.6,91.1L34.4,91.5L36.1,91.9L37.5,91.9L38.0,91.8L39.1,91.3L39.9,90.8L40.8,89.9L41.9,88.0L42.1,87.1L42.0,85.2L41.7,84.5L41.8,84.0L44.2,81.7L46.4,80.0L50.0,76.9L50.7,76.5L52.6,76.5L55.1,76.3L57.9,75.5L58.8,75.5L60.1,75.0L60.8,75.0L60.9,75.3L60.3,76.3L59.8,77.4L59.5,80.2L58.7,81.4L58.1,82.7L57.9,83.3L57.9,85.3L58.3,86.4L59.0,87.7L60.7,89.3L62.3,89.9L64.0,90.0L64.4,90.1L65.9,91.3L66.7,91.5L67.0,91.8L68.8,92.1L70.9,91.8L71.7,91.3L72.7,90.7L73.6,89.6L74.2,88.2L74.4,87.9L74.5,87.1L74.5,86.4L75.0,85.8L78.6,84.8L79.1,84.8L79.8,84.5L80.5,84.4L81.1,84.1L84.6,83.2L84.9,82.9L84.9,82.5L84.6,82.1L84.5,81.6L83.4,80.0L82.8,78.9L82.2,78.1L81.4,76.5L81.2,75.5L81.3,74.2L81.7,73.5L82.5,72.9L82.9,73.0L83.3,73.4L84.6,75.2L85.8,76.5L86.7,77.3L87.9,77.8L89.2,78.1L90.1,78.1L90.5,78.4L90.5,78.6L90.3,78.9L90.3,79.2L90.0,80.2L89.7,81.9L90.0,83.6L90.2,84.2L90.8,85.1L91.6,85.9L92.7,86.8L93.1,86.9L93.6,87.5L93.9,88.1L94.2,88.6L95.6,90.0L97.7,91.0L99.6,91.1L101.4,90.8L102.3,90.1L102.5,90.1L103.6,89.0L104.7,87.5L105.4,87.1L106.0,87.0L106.3,86.7L106.5,86.7L107.2,86.4L108.2,85.3L108.5,84.9L108.6,84.6L108.9,84.3L109.3,83.0L109.4,81.7L109.2,80.6L108.6,79.1L108.0,78.3L106.4,77.0L106.1,76.5L106.6,72.7L106.8,72.4L107.1,70.3L107.3,69.5L107.9,68.9L109.3,68.8L113.7,67.7L114.8,67.1L115.4,67.0L116.6,66.1L117.7,65.0L118.5,63.7L118.9,62.5L119.2,61.0L119.2,60.0L118.9,59.0Z M50.7,73.8L50.8,73.7L51.0,73.7L51.2,73.8L51.1,74.1L50.8,74.1Z M51.7,72.9L52.3,72.3L53.0,72.3L53.5,73.0L53.6,73.6L53.4,73.9L53.0,74.0L52.2,74.0L51.7,73.4Z M35.2,72.8L35.6,72.4L36.0,72.3L37.2,73.2L37.2,73.3L37.0,73.4L35.4,73.4L35.3,73.3Z M83.0,69.3L83.0,69.6L82.9,69.8L81.4,70.3L80.2,71.3L79.4,72.3L78.8,73.7L78.7,75.9L78.9,76.8L79.7,78.9L80.2,79.7L80.9,80.7L80.9,81.0L80.7,81.2L79.8,81.5L79.1,81.5L78.9,81.2L78.9,79.9L78.6,79.6L78.4,80.0L78.4,81.5L78.1,81.8L77.7,82.1L76.8,82.0L76.7,81.8L76.6,80.9L76.3,80.6L76.3,82.0L76.0,82.4L75.5,82.7L74.9,82.6L74.6,82.3L74.6,81.5L74.2,81.2L74.2,82.6L74.0,83.0L73.6,83.3L73.0,83.3L72.7,83.1L72.5,81.7L72.4,81.7L72.3,81.8L72.1,83.5L71.6,83.8L70.9,83.7L70.6,83.2L70.6,82.5L70.4,82.3L70.4,83.3L70.6,84.0L71.3,84.7L71.7,85.5L71.8,86.8L71.3,88.0L70.4,88.8L69.5,89.2L68.3,89.2L67.0,88.6L66.5,88.2L66.2,87.7L66.0,86.8L65.8,86.5L65.4,86.6L64.9,86.9L64.2,87.1L63.3,87.2L62.2,86.9L61.6,86.6L61.1,86.0L60.8,85.5L60.6,84.8L60.6,84.1L61.0,83.0L61.5,82.4L61.9,82.0L63.4,81.3L63.3,80.9L62.8,80.4L62.8,80.2L62.5,79.6L62.5,78.1L63.0,77.3L63.6,76.7L64.4,76.2L65.1,76.0L65.6,76.0L66.5,76.3L66.8,76.6L67.2,76.8L67.7,77.3L68.2,78.1L68.4,78.9L68.7,79.1L69.1,79.1L69.8,78.8L71.1,77.8L71.2,77.4L69.0,75.2L68.5,74.3L68.2,73.1L68.2,72.2L68.5,71.1L70.0,69.6L71.3,69.1L71.6,69.1L72.4,68.8L73.9,68.8L75.6,68.5L80.1,68.5L81.7,68.7L82.4,68.9Z M11.6,68.0L11.6,67.7L12.1,66.9L12.9,66.1L13.9,65.8L15.7,65.9L15.8,65.7L15.8,65.4L15.6,65.1L15.7,64.0L16.3,62.8L16.9,62.3L17.9,61.8L19.0,61.8L19.7,61.9L20.6,62.5L21.1,63.1L21.4,63.6L21.5,64.5L21.3,65.4L20.9,66.1L20.9,66.5L21.0,66.5L22.0,66.6L24.9,66.3L28.3,66.3L29.0,66.2L31.3,66.1L32.1,66.2L32.8,66.6L32.9,67.0L33.1,67.2L33.6,68.8L34.0,69.3L34.5,70.6L34.7,70.9L35.0,71.0L35.3,71.5L35.3,71.8L34.9,72.4L34.3,73.1L33.1,73.1L32.8,72.9L32.8,72.6L33.5,71.6L33.4,71.2L32.9,71.4L32.7,71.9L32.0,72.7L31.8,72.9L31.2,72.9L30.3,72.8L30.0,72.6L30.0,72.2L30.5,71.4L30.5,71.1L30.4,71.1L29.1,72.5L28.3,72.7L27.5,72.5L27.2,72.1L27.2,71.7L27.6,71.4L27.7,71.1L27.4,71.0L26.9,71.8L26.4,72.2L25.8,72.3L24.8,72.1L24.6,71.9L24.6,71.6L25.0,70.9L25.0,70.6L24.8,70.6L24.6,70.9L24.4,71.3L23.6,71.9L22.8,71.9L22.2,71.8L22.0,71.6L22.0,71.3L22.4,70.6L22.3,70.3L22.1,70.3L21.2,71.9L21.3,73.4L20.9,74.3L20.4,74.8L19.4,75.5L17.8,75.5L17.3,75.4L16.5,74.9L16.0,74.3L15.6,73.2L15.6,71.8L15.4,71.4L13.6,71.4L12.4,70.6L11.6,69.5Z M53.7,58.0L53.8,57.7L54.1,57.9L53.9,58.1Z M41.2,58.0L41.3,58.4L40.8,59.2L39.3,61.0L38.8,61.9L37.5,63.4L36.8,64.4L35.7,65.7L34.7,67.1L34.1,67.7L33.7,67.7L33.1,67.0L33.1,65.9L36.4,61.7L38.6,58.6L39.4,57.7L40.1,57.7Z M69.7,57.7L69.6,57.9L68.6,58.9L67.5,59.1L59.7,59.2L59.5,59.0L59.6,58.6L60.3,57.8L60.5,57.7L61.5,57.5L69.4,57.3L69.6,57.4Z M38.0,56.4L38.6,56.9L38.8,57.4L38.8,57.7L37.2,59.6L36.7,60.3L35.8,61.4L35.2,62.4L33.2,64.7L32.9,64.8L32.7,64.6L32.6,64.3L32.6,63.0L32.8,62.4L33.2,62.1L33.7,61.2L34.8,59.9L35.7,58.6L37.2,56.6L37.5,56.4Z M53.2,55.5L53.5,55.8L53.6,56.3L53.6,56.8L53.3,57.4L52.4,58.2L50.9,58.2L50.9,57.8L51.6,57.0L52.1,56.2L52.8,55.6Z M43.4,55.4L43.2,56.1L42.0,57.3L41.3,57.5L40.9,57.5L39.4,57.1L38.4,56.1L38.1,55.6L38.4,55.3L39.2,55.1L41.1,54.9L42.7,55.1L43.2,55.2Z M75.2,55.1L75.5,54.8L75.8,54.8L76.5,54.9L77.9,55.9L78.0,56.1L77.3,56.1L76.0,55.7L75.9,55.6L75.4,55.4L75.2,55.2Z M36.5,54.8L37.2,55.6L37.0,56.1L33.9,60.0L33.1,61.1L32.8,61.2L32.6,61.0L32.4,60.3L32.4,59.5L32.6,59.1L35.2,55.9L35.7,55.1L36.1,54.7Z M77.1,54.4L77.5,54.1L78.0,54.0L78.5,54.0L78.9,54.2L80.6,55.4L81.2,55.7L82.1,56.5L82.8,56.9L82.8,57.3L81.7,57.3L79.7,56.5L79.4,56.2L77.4,55.0L77.2,54.8Z M35.0,53.2L35.6,53.8L35.6,54.5L34.3,56.0L33.4,57.3L32.8,57.9L32.6,57.9L32.3,57.7L32.3,56.2L32.6,55.8L34.1,53.8L34.6,53.3Z M79.4,53.6L79.9,53.1L80.5,53.1L81.5,53.8L81.9,53.9L82.7,54.4L83.2,54.8L83.5,54.9L83.8,55.2L84.9,55.7L85.1,56.0L86.2,56.6L86.5,57.0L86.2,57.2L85.9,57.3L84.8,57.3L84.1,57.1L83.8,56.8L80.7,54.9L79.4,53.8Z M72.1,53.3L72.1,53.7L72.0,54.0L71.5,54.5L71.3,54.6L66.3,54.8L62.8,54.8L62.5,54.6L62.3,54.0L63.1,53.3L63.7,53.3L71.9,53.1Z M52.2,53.1L52.5,53.4L52.8,54.0L52.8,54.6L52.6,54.8L50.9,57.0L49.8,58.6L49.0,59.4L48.9,59.6L48.0,60.7L48.0,60.8L47.2,61.8L46.3,63.1L46.1,63.2L45.5,64.1L44.1,65.8L43.5,66.7L42.2,68.3L39.1,72.4L38.4,73.2L38.0,73.2L37.6,72.9L37.4,72.7L37.3,72.1L37.8,71.4L40.4,68.1L41.3,66.9L41.3,66.7L42.8,64.9L43.7,63.5L45.9,60.8L46.0,60.5L46.8,59.6L46.8,59.5L47.7,58.2L48.7,57.1L48.9,56.7L50.1,55.3L51.2,53.8L51.9,53.1Z M78.2,53.1L78.1,53.3L77.3,53.7L75.0,54.5L73.0,54.6L72.7,54.6L72.5,54.3L72.5,54.0L72.9,53.3L73.4,53.0L77.0,52.9L78.1,53.0Z M81.3,52.8L82.1,52.1L83.0,52.2L83.9,52.9L84.0,52.9L84.6,53.5L84.8,53.5L85.2,53.9L86.0,54.3L86.4,54.7L88.0,55.6L88.3,55.9L88.3,56.1L87.8,56.5L86.9,56.5L84.6,55.1L83.9,54.9L83.0,54.1L82.2,53.7L81.3,52.9Z M33.6,51.5L34.2,52.1L34.3,52.6L33.3,54.0L32.8,54.5L32.6,54.6L32.3,54.2L32.3,52.8L32.8,52.0L33.4,51.5Z M83.3,51.6L83.9,51.1L84.5,51.1L86.9,52.7L87.5,53.3L87.8,53.3L90.0,54.7L90.2,54.9L90.2,55.1L89.8,55.5L89.1,55.6L88.4,55.3L88.2,55.1L86.6,54.3L85.3,53.3L84.9,53.2L84.0,52.5L83.9,52.5L83.3,52.0Z M73.2,51.2L73.2,51.6L72.8,52.0L72.8,52.2L72.5,52.5L71.9,52.7L69.2,52.7L68.5,52.8L63.7,52.8L63.4,52.8L63.2,52.5L63.3,51.6L64.1,51.2L66.9,51.1L69.6,51.2L71.0,51.0L72.9,51.0Z M82.8,51.0L82.5,51.4L82.1,51.5L80.9,52.1L80.1,52.3L74.0,52.5L73.4,52.2L73.4,52.0L73.6,51.8L73.7,51.3L74.2,50.9L82.5,50.7Z M51.1,50.7L51.5,51.1L51.7,51.7L51.7,52.2L51.1,53.2L49.6,55.2L49.0,55.8L48.4,56.8L47.3,57.9L45.9,60.0L43.6,62.8L42.4,64.6L41.4,65.8L40.6,66.9L40.1,67.5L38.6,69.5L37.7,70.6L37.2,71.3L36.8,71.7L36.2,71.6L35.6,71.1L35.6,70.9L36.4,69.8L36.5,69.4L37.7,68.0L37.7,67.9L38.5,66.7L39.3,65.9L41.3,63.1L42.4,61.8L43.1,60.6L43.9,59.7L44.0,59.4L44.7,58.6L47.3,55.1L48.4,54.0L48.6,53.4L49.5,52.5L50.5,51.0L50.9,50.7Z M32.8,50.5L32.8,50.9L32.6,51.1L32.4,50.9L32.4,50.6Z M84.9,50.5L85.6,49.9L86.1,49.7L86.8,49.9L91.0,52.7L91.4,53.1L91.5,53.6L90.9,54.1L89.8,54.1L87.1,52.5L86.4,51.9L85.4,51.3L85.0,50.9Z M74.2,48.9L74.1,49.5L73.2,50.4L71.1,50.7L63.7,50.6L63.3,50.5L62.3,50.1L61.3,49.2L61.3,49.1L61.7,48.9L73.8,48.6Z M85.7,49.0L85.0,49.7L84.3,50.1L84.0,50.2L75.5,50.5L74.7,50.4L74.4,50.2L74.4,49.7L74.6,49.1L75.0,48.7L75.2,48.6L80.8,48.6L82.5,48.5L85.3,48.5L85.6,48.6Z M50.1,47.9L50.4,48.4L50.7,49.1L50.7,49.6L50.3,50.4L48.5,53.0L47.7,53.8L46.1,56.1L45.5,56.6L45.2,57.3L43.2,59.7L42.8,60.4L41.9,61.4L41.6,62.1L40.0,63.9L38.0,66.7L36.5,68.5L36.0,69.3L35.4,69.9L34.9,70.0L34.4,69.6L34.3,69.3L34.2,68.8L34.5,68.2L37.7,64.0L38.0,63.8L38.8,62.7L38.9,62.3L39.6,61.6L39.6,61.5L42.0,58.4L42.1,58.1L42.9,57.3L44.5,55.0L47.6,51.2L47.6,51.0L48.1,50.4L49.2,48.7L49.4,48.1L49.6,47.8Z M88.6,60.9L88.7,60.7L89.1,60.6L89.8,60.9L90.2,60.9L91.6,61.3L92.6,61.8L93.4,61.8L94.2,62.1L94.6,62.1L96.3,62.6L97.0,62.8L98.5,63.1L99.5,63.1L100.9,63.4L101.7,63.3L102.8,63.6L105.0,63.6L105.5,63.7L106.9,63.7L108.3,63.5L109.0,63.5L110.5,63.1L112.0,62.5L113.0,61.5L113.2,61.0L113.2,60.2L112.9,59.5L112.1,58.8L110.9,58.5L109.3,58.6L107.7,58.8L105.9,59.4L104.9,59.5L104.0,59.9L102.9,60.1L102.1,60.4L99.3,60.9L97.8,60.9L96.3,60.6L94.7,59.8L93.9,59.2L92.8,58.0L92.5,57.5L92.5,57.3L92.2,56.9L91.9,55.9L91.9,54.6L92.1,54.3L92.2,53.3L92.5,52.8L92.9,51.7L94.4,49.4L94.6,49.0L94.8,48.8L95.0,48.2L95.2,48.0L95.9,46.7L96.3,46.7L96.7,46.9L97.1,47.5L97.1,47.8L96.4,49.3L95.9,50.0L95.7,50.4L95.1,51.2L95.0,51.6L95.2,51.6L95.9,50.8L96.4,50.2L96.5,49.7L96.9,49.4L97.0,49.1L97.5,48.3L98.1,48.3L98.5,48.9L98.5,49.5L97.0,51.9L96.8,52.5L96.1,53.3L96.1,53.6L96.3,53.6L96.5,53.5L96.9,52.6L97.6,51.9L98.5,50.7L99.0,50.5L99.4,50.9L99.4,51.8L99.3,52.4L98.6,53.8L96.8,55.6L96.0,56.6L96.0,57.4L96.7,58.2L97.2,58.4L98.1,58.6L99.4,58.5L102.2,57.9L104.4,57.1L104.7,57.1L106.7,56.4L108.8,56.3L109.5,56.1L110.7,55.9L111.8,56.0L113.8,56.6L114.8,57.1L116.1,58.7L116.6,59.8L116.6,61.4L116.1,62.7L114.9,64.0L113.8,64.7L112.9,65.2L111.1,65.7L110.5,65.7L108.3,66.2L105.4,66.4L100.6,66.3L99.0,66.1L96.5,65.9L94.0,65.6L93.4,65.3L90.8,62.6L89.4,61.4Z M75.0,46.8L74.9,47.3L74.3,48.0L73.4,48.3L71.8,48.4L60.9,48.4L60.4,48.0L60.1,47.4L60.3,46.9L60.6,46.5L60.9,46.5L73.3,46.3L74.6,46.4Z M87.9,46.5L87.7,47.1L87.3,47.6L86.7,47.9L86.1,48.1L75.6,48.2L75.2,48.1L75.2,47.6L75.2,47.0L75.8,46.4L76.0,46.3L80.1,46.3L86.2,46.2L87.6,46.3Z M44.0,45.5L44.0,45.8L43.8,45.9L43.4,45.9L43.4,45.6L43.6,45.5Z M75.8,44.4L75.6,45.0L75.3,45.5L75.1,45.8L74.5,45.9L61.0,46.0L60.9,45.9L60.8,45.4L61.5,44.7L62.7,44.2L66.9,44.2L67.9,44.0L71.9,44.1L74.5,44.0L75.5,44.1Z M89.2,44.3L89.0,45.0L88.5,45.5L87.9,45.8L78.7,45.9L76.3,45.8L76.0,45.5L76.0,44.8L76.1,44.5L76.4,44.2L76.7,44.0L77.7,43.9L80.5,44.0L88.5,43.8L88.9,43.9Z M34.2,43.2L34.4,43.4L34.4,43.7L34.0,44.2L34.0,44.7L33.8,45.3L33.7,46.2L33.6,46.5L33.6,47.1L33.4,47.6L33.4,49.9L33.2,49.9L32.8,49.6L32.4,48.6L32.1,47.3L32.1,46.3L32.3,45.3L32.6,44.5L33.6,43.4Z M46.8,43.2L47.1,43.2L48.2,44.0L48.8,44.7L49.2,45.5L49.4,46.7L49.2,47.6L48.4,49.2L47.8,49.8L47.5,49.8L47.4,49.6L47.3,48.6L47.6,48.3L47.6,47.6L47.4,47.4L47.3,45.5L47.0,44.2L46.7,43.5Z M106.5,81.2L106.5,82.8L106.3,83.2L105.6,84.1L104.4,84.8L103.2,84.8L102.8,84.6L102.3,84.6L102.1,84.9L102.0,86.3L101.6,87.1L100.9,87.8L100.2,88.2L99.6,88.4L98.8,88.4L97.9,88.1L97.3,87.7L96.9,87.3L96.4,86.2L96.2,85.6L96.3,84.6L96.1,84.4L94.9,84.3L93.9,84.0L93.3,83.5L92.6,82.2L92.6,80.9L93.0,80.2L93.7,79.4L95.1,78.7L96.7,78.9L96.9,78.6L96.8,76.2L96.4,75.9L95.7,75.8L90.5,75.8L89.3,75.6L88.3,75.3L87.6,75.0L86.9,74.3L85.8,72.9L84.9,71.5L84.6,71.1L84.5,70.8L83.8,69.7L83.3,68.7L82.2,67.3L82.5,68.2L82.2,68.5L79.9,68.2L76.4,68.2L75.6,68.3L73.0,68.4L71.6,68.8L70.3,68.9L68.6,69.3L68.3,69.6L67.5,69.5L67.1,69.1L66.7,68.3L66.5,68.4L66.5,68.6L66.8,69.2L66.7,69.9L66.0,70.2L65.4,70.2L64.9,69.7L64.6,69.0L64.4,69.0L64.7,70.1L64.7,70.4L64.3,70.9L63.2,70.9L62.8,70.5L62.4,69.6L62.2,69.4L62.1,69.6L62.1,69.8L62.3,70.3L62.5,71.3L61.9,71.8L61.0,71.9L60.5,71.4L60.0,70.2L59.8,70.1L59.8,70.5L60.0,70.9L60.0,71.4L60.2,71.6L60.2,72.1L59.5,72.6L58.8,72.5L58.5,72.2L57.9,70.8L57.6,70.9L57.7,71.4L57.9,71.9L58.0,72.7L57.7,73.1L57.2,73.2L56.8,73.2L56.4,72.7L55.6,71.2L55.3,71.1L55.3,71.4L55.6,71.9L55.9,73.2L55.6,73.6L55.3,73.7L54.6,73.7L54.2,73.5L53.7,72.7L53.5,71.6L53.9,70.9L53.9,70.3L53.3,69.2L53.0,68.2L52.6,68.0L52.6,68.4L52.8,68.5L53.0,69.3L53.2,69.4L53.3,70.1L53.3,70.9L52.8,71.4L52.2,71.4L51.7,70.8L51.2,69.8L50.9,69.7L51.0,70.4L51.5,71.6L51.5,72.2L50.8,72.9L50.3,72.8L49.7,72.0L49.6,71.5L49.0,71.1L49.0,71.4L49.7,73.2L49.6,73.7L49.3,74.1L48.9,74.3L48.4,74.2L48.1,73.7L48.0,73.3L47.6,72.6L47.3,72.7L47.4,73.3L47.6,73.4L48.0,74.7L47.9,75.1L47.3,75.7L46.8,75.7L46.4,75.2L46.4,75.0L46.0,74.2L45.7,74.2L45.7,74.7L46.3,76.1L46.3,76.4L45.7,77.0L45.0,77.1L44.5,76.3L44.4,75.9L44.2,75.8L44.0,75.8L44.0,76.3L44.5,77.0L44.5,77.9L44.1,78.4L43.7,78.6L43.4,78.6L42.9,78.1L42.6,77.4L42.2,77.4L42.7,78.6L42.7,79.4L42.0,80.0L41.4,80.1L41.2,79.9L40.8,79.0L40.5,79.0L40.5,79.6L40.9,80.3L40.9,80.7L40.7,81.0L40.2,81.5L39.7,81.5L39.3,81.1L39.1,80.7L38.8,80.6L38.8,81.0L39.1,81.7L39.1,82.2L38.9,82.6L38.3,83.0L37.8,83.0L37.6,82.7L37.2,81.9L37.0,81.9L36.9,82.3L37.5,83.5L38.9,84.8L39.3,85.5L39.3,87.4L38.9,88.0L38.3,88.7L37.8,89.0L37.1,89.2L35.8,89.2L35.2,89.0L34.6,88.5L33.7,87.5L33.4,87.4L32.3,88.5L31.6,89.0L31.0,89.1L29.9,89.0L29.2,88.7L28.7,88.4L28.1,87.7L27.7,86.9L27.7,85.7L27.9,85.1L29.1,83.6L29.1,83.3L28.5,82.7L28.1,82.2L27.7,81.1L27.7,80.1L28.1,79.3L28.7,78.6L29.2,78.1L29.9,77.9L31.3,78.0L32.5,78.6L33.5,79.9L34.0,79.9L37.0,76.0L38.5,73.8L40.3,71.6L40.9,70.8L41.9,69.6L42.1,69.1L43.4,67.6L44.1,66.5L44.7,65.9L45.3,65.1L48.0,61.7L48.1,61.4L48.9,60.4L49.9,59.3L51.4,58.8L55.7,58.7L56.4,58.4L57.6,57.1L59.5,53.8L60.1,52.4L60.0,51.9L58.2,49.7L57.7,48.6L57.4,46.8L57.7,45.4L58.2,44.5L59.6,42.9L60.5,42.3L62.1,41.9L74.9,41.6L75.8,41.7L76.3,42.0L76.3,42.4L76.0,43.2L75.8,43.4L75.4,43.5L66.9,43.8L62.5,43.7L62.1,43.8L61.3,44.2L60.4,45.0L59.8,46.1L59.8,47.7L60.0,47.9L60.0,48.4L60.2,48.8L60.9,49.5L61.6,50.1L62.8,50.7L63.0,50.9L63.0,51.7L62.3,53.6L61.9,54.5L61.7,54.7L61.3,55.6L61.6,55.7L62.2,55.3L67.1,55.1L70.8,55.1L70.9,55.2L71.1,55.6L70.9,56.1L70.3,56.6L69.6,56.9L65.2,56.9L62.0,57.1L61.3,56.9L61.0,56.5L60.9,56.5L60.3,57.1L59.3,58.5L58.5,59.3L58.3,59.8L60.8,59.7L64.8,59.7L65.5,59.5L67.9,59.6L68.0,59.9L67.1,60.6L65.5,61.4L57.8,61.5L57.5,61.3L57.4,61.0L57.1,61.0L56.7,61.4L56.7,61.8L56.9,62.0L58.3,62.1L59.6,62.0L64.2,61.9L65.1,61.7L65.6,61.7L67.2,61.0L68.2,60.0L68.4,60.0L69.6,58.7L70.2,58.3L75.0,58.3L75.7,58.4L77.8,58.5L78.3,58.7L79.6,58.7L81.6,59.1L82.1,59.3L84.6,59.9L85.3,60.0L87.0,60.5L88.0,61.0L88.4,61.4L88.7,61.5L89.6,62.2L93.6,66.2L94.0,66.9L94.6,67.6L95.3,68.1L95.9,68.8L97.1,69.6L98.9,70.5L99.6,70.7L101.1,70.8L102.2,71.0L103.7,71.0L104.2,71.3L104.2,72.1L103.7,72.4L103.5,72.4L102.7,71.8L102.3,71.8L102.6,72.3L103.0,72.6L103.7,73.4L103.7,74.0L103.5,74.5L103.3,74.7L103.0,74.7L102.3,74.2L102.0,74.3L103.2,75.5L103.2,76.2L102.8,76.7L102.4,76.7L101.9,76.3L101.6,76.4L101.6,76.6L102.4,77.3L102.7,77.8L102.7,78.4L102.5,78.6L102.1,78.6L101.7,78.4L101.5,78.6L102.7,79.6L104.5,79.6L105.3,79.9L106.3,80.8Z M44.7,41.6L45.7,42.7L46.0,43.4L46.3,43.7L46.8,45.0L47.0,46.2L47.1,46.5L47.1,47.5L47.3,48.2L47.1,49.6L46.7,51.1L46.5,51.5L45.9,51.7L45.7,51.5L45.6,50.8L45.5,50.6L45.3,50.6L45.5,52.2L45.3,53.1L45.1,53.5L44.4,54.3L43.9,54.6L42.4,54.6L41.5,54.4L40.9,54.0L40.6,53.5L40.6,53.0L40.9,52.6L40.9,52.2L42.0,51.2L42.1,50.9L42.1,48.6L42.4,47.8L42.9,47.3L43.9,46.8L44.5,46.2L44.8,45.7L45.0,44.7L44.9,44.4L44.7,44.2L44.4,44.1L43.4,44.2L42.7,44.7L42.1,45.5L41.8,47.1L41.9,49.4L41.6,50.7L41.1,51.1L40.2,51.2L39.4,50.9L39.0,50.4L38.8,50.5L38.7,50.9L38.9,51.5L39.8,52.2L40.1,52.9L40.1,53.5L39.9,54.0L39.6,54.5L38.6,54.8L37.4,54.8L36.5,54.3L36.0,53.8L35.7,53.1L35.6,51.2L35.4,51.2L35.3,51.6L35.1,51.8L34.9,51.8L34.6,51.6L34.0,50.3L34.0,50.0L33.7,49.6L33.6,49.1L33.6,47.3L33.9,46.0L34.4,44.5L34.8,43.9L34.9,43.4L35.4,42.3L35.8,41.9L36.2,41.6L39.4,41.6L41.6,41.8L43.7,41.6Z M90.0,41.9L90.0,42.2L89.6,42.9L89.1,43.3L77.1,43.5L76.8,43.4L76.5,43.0L76.5,42.7L76.8,42.0L77.1,41.7L77.6,41.6L84.4,41.6L88.7,41.5L89.7,41.6Z M35.4,41.2L35.4,41.6L35.1,42.1L33.9,42.6L32.6,43.7L32.1,43.7L31.8,43.2L31.8,42.5L32.1,41.7L32.6,41.1L33.3,40.9L34.7,40.8L35.2,41.0Z M45.8,40.6L46.3,40.5L46.9,40.5L47.8,41.0L48.4,41.6L48.5,42.1L48.7,42.4L48.7,42.8L48.4,43.0L47.8,42.9L46.8,42.2L45.8,42.0L45.4,41.5L45.4,41.1Z M42.7,40.5L43.1,39.9L43.4,39.6L44.2,39.7L44.8,40.3L44.8,40.7L44.5,41.1L44.1,41.1L42.9,41.1L42.7,40.9Z M35.7,40.1L36.6,39.6L37.4,39.7L38.0,40.3L38.0,41.2L37.7,41.4L36.7,41.4L36.3,41.2L35.6,40.6Z M40.9,38.8L41.8,38.8L42.4,39.0L42.7,39.4L42.5,40.1L42.2,40.8L41.8,41.3L41.1,41.4L40.9,41.3L40.5,40.9L40.5,39.0Z M38.3,39.0L38.5,38.8L39.4,38.8L39.8,39.0L40.0,39.6L40.1,41.1L39.8,41.4L38.8,41.3L38.5,40.9L38.3,40.3L38.0,40.1L38.0,39.3Z M62.0,41.2L62.0,41.0L62.2,40.6L63.0,39.9L64.3,39.1L65.7,38.6L67.2,38.6L68.5,38.9L70.5,39.8L72.1,40.9L72.1,41.1L71.8,41.3L62.3,41.4Z" fill="#000" fill-rule="evenodd"/>
</svg>