<svg xmlns="http://www.w3.org/2000/svg" viewBox="0 0 128 128" width="128" height="128">
  <path d="M68.2,69.5L60.5,69.5L59.9,69.9L59.6,72.7L59.1,74.6L58.8,76.6L57.8,80.3L57.0,82.4L56.7,82.9L56.1,84.4L56.1,84.8L56.3,84.9L57.1,84.9L59.3,84.4L60.0,84.0L60.8,84.0L61.1,84.3L62.0,85.4L63.3,86.8L63.9,87.2L64.7,87.3L65.2,87.0L66.0,86.3L67.7,84.3L68.1,84.0L68.7,84.0L70.0,84.5L71.3,84.8L72.6,84.7L72.7,84.4L71.3,81.2L70.0,76.9L70.0,76.2L69.6,75.1L69.5,74.2L69.3,73.6L69.2,72.6L68.9,71.5L68.7,69.9Z M57.5,66.1L57.5,66.7L57.6,66.9L58.0,67.2L63.5,67.4L63.5,67.7L63.3,67.7L59.3,67.8L59.0,68.1L59.1,68.5L59.6,68.9L68.1,68.8L69.2,68.7L69.5,68.5L69.7,68.3L69.6,68.0L69.2,67.7L65.2,67.7L64.6,67.7L64.4,67.5L64.5,67.3L70.3,67.2L70.6,67.1L71.2,66.5L71.2,66.1L70.9,65.6L69.7,65.4L59.0,65.5L57.9,65.6L57.6,65.8Z M58.9,64.6L59.3,65.0L59.7,65.1L62.1,65.0L67.7,65.0L69.3,64.8L69.5,64.6L69.6,64.3L69.4,64.0L68.9,63.9L60.1,63.9L59.2,64.0L59.0,64.3Z M110.0,60.4L110.0,60.6L110.1,60.6Z M51.8,53.8L51.0,55.7L51.0,58.4L51.3,59.2L52.0,60.3L53.2,61.4L54.8,61.9L56.7,61.9L57.8,61.3L58.7,60.3L59.1,59.1L59.1,58.0L58.7,57.0L58.1,56.3L57.3,56.0L56.2,56.0L55.8,56.2L55.2,56.8L55.1,58.1L55.2,58.3L55.6,58.6L55.9,58.6L56.1,58.4L56.1,57.7L56.4,57.5L56.7,57.5L57.2,57.9L57.2,58.4L57.0,58.9L56.6,59.3L55.3,59.4L54.5,58.7L54.2,58.2L54.2,56.9L54.4,56.5L54.8,56.0L55.3,55.5L55.8,55.2L57.1,55.1L58.3,55.3L59.1,55.8L59.7,56.3L60.1,57.0L60.6,58.4L60.7,58.9L60.6,62.7L60.7,62.9L61.1,63.2L63.7,63.2L65.3,63.1L67.3,63.2L67.8,62.9L67.9,62.1L67.6,61.1L67.6,60.3L66.8,56.6L66.0,55.2L65.6,54.6L65.2,53.8L63.3,52.1L62.3,51.4L61.1,50.9L59.6,50.6L57.3,50.5L55.3,50.9L53.7,51.7L52.7,52.6L52.3,53.3Z M35.5,43.2L35.8,43.3L35.7,43.1Z M116.2,41.1L116.0,41.0L115.7,41.0L114.1,42.1L111.2,43.7L110.4,44.3L109.8,44.5L109.1,45.0L108.5,45.3L107.9,45.3L107.6,43.5L107.0,42.4L105.9,41.0L104.9,40.3L103.5,39.7L102.4,39.5L100.9,39.6L99.9,39.9L99.1,39.9L98.4,39.2L97.8,38.8L97.0,38.1L96.2,37.8L95.2,37.2L94.2,37.1L93.5,36.7L91.2,36.7L90.4,37.0L89.4,37.8L88.0,38.2L87.4,38.8L87.0,39.5L85.4,40.1L84.8,40.7L84.7,41.0L84.0,41.6L81.6,43.0L81.4,43.2L81.4,43.6L81.6,43.8L84.4,45.5L84.8,45.5L85.2,44.9L85.7,44.9L86.8,45.6L88.1,46.3L88.6,46.9L88.8,47.4L89.8,48.8L90.9,49.8L90.9,50.1L90.0,51.5L89.4,53.0L89.2,54.1L89.2,55.5L89.5,56.6L89.8,57.6L90.3,58.4L90.9,58.9L91.2,59.5L94.3,62.4L94.3,62.6L94.0,62.9L93.1,63.3L91.8,64.4L91.6,64.4L91.1,63.9L90.9,63.2L90.3,61.9L90.3,61.7L89.5,60.4L89.4,60.0L89.4,59.5L89.1,58.9L89.0,57.9L88.7,57.2L88.7,56.8L88.3,55.5L88.3,54.1L87.9,53.3L87.1,52.5L86.3,52.3L85.3,52.3L83.9,52.7L82.9,53.8L82.8,53.8L82.6,53.6L82.6,53.0L82.4,52.7L82.4,49.2L82.2,48.2L80.5,48.1L74.6,48.1L72.9,48.2L68.6,48.2L67.1,48.3L65.4,48.2L51.2,48.2L48.7,48.4L46.2,48.4L45.8,48.6L45.7,49.5L45.7,54.1L45.5,54.3L45.2,54.3L44.4,53.3L42.8,52.8L41.1,52.8L40.2,53.6L39.8,54.4L39.7,56.6L39.1,58.9L39.0,59.9L38.5,61.3L38.2,62.0L37.1,64.9L36.9,65.1L36.5,65.1L35.4,64.2L34.2,63.6L34.1,63.5L34.1,63.2L36.1,61.2L37.6,59.4L38.5,57.6L38.8,56.5L38.8,54.1L38.5,53.4L38.5,52.9L38.1,52.1L37.1,50.9L37.1,50.5L38.5,49.0L39.0,48.2L39.3,47.9L39.7,46.9L40.1,46.6L42.5,45.2L42.8,45.2L43.2,45.8L43.6,45.8L46.4,43.9L46.5,43.6L46.2,43.2L45.1,42.5L43.9,41.9L42.3,40.5L41.7,40.2L40.9,40.0L40.4,39.3L39.7,38.6L38.3,38.4L36.9,37.5L35.3,37.5L34.6,37.3L34.1,37.4L33.5,37.8L32.6,37.8L31.8,38.5L31.0,38.7L30.2,39.5L29.7,39.9L28.8,41.0L26.7,40.7L25.6,40.7L24.9,40.8L23.3,41.6L22.6,42.1L21.3,43.5L20.5,45.5L20.3,46.6L20.1,46.9L19.5,46.7L18.6,46.1L17.9,45.9L16.2,44.8L15.5,44.5L12.6,42.8L12.0,42.6L11.8,42.8L11.9,43.2L12.5,43.9L12.9,45.1L13.0,46.9L12.8,47.8L12.2,49.2L11.5,50.1L10.2,51.2L9.2,51.6L9.1,52.0L10.4,53.1L10.6,53.4L11.0,53.7L11.8,55.3L11.8,57.5L11.5,58.2L10.7,59.7L10.8,60.2L12.3,60.7L12.8,61.1L13.6,61.8L14.2,62.9L14.4,63.5L14.4,65.4L14.5,65.7L16.0,65.5L21.3,65.4L22.0,65.3L22.7,65.3L23.1,65.6L23.0,66.0L22.3,67.1L21.6,68.6L21.3,68.8L21.0,68.8L20.6,68.6L19.5,67.7L18.5,67.3L18.2,67.1L17.3,66.9L16.3,66.8L14.4,67.2L13.5,67.6L13.1,68.0L12.7,68.2L11.9,69.0L11.3,69.9L10.7,71.4L10.7,73.7L11.5,76.0L12.3,77.1L13.0,77.8L12.9,78.3L12.6,78.8L12.4,79.6L12.2,81.2L12.3,82.9L13.0,84.9L13.6,86.1L15.0,87.5L16.3,88.3L16.6,88.3L17.7,88.8L18.6,89.0L20.3,89.0L21.4,88.8L23.5,88.2L23.8,88.3L24.3,88.9L25.1,89.2L25.7,89.6L26.8,89.7L27.3,89.5L28.1,88.7L28.6,88.7L31.8,90.2L33.0,91.2L33.7,91.5L34.5,91.4L35.3,91.0L36.1,90.9L36.5,90.5L37.4,88.8L37.9,88.3L39.3,88.6L42.0,88.6L43.0,88.4L44.1,88.0L45.0,87.6L46.1,86.9L47.3,85.6L48.2,84.2L48.6,83.3L48.8,82.4L49.3,82.1L49.4,82.1L49.7,82.3L49.9,82.7L52.0,85.1L53.7,86.4L54.5,86.8L54.9,87.2L55.5,87.4L56.4,88.0L59.5,89.1L62.8,89.7L65.6,89.7L68.4,89.2L70.6,88.6L72.0,88.0L72.2,87.8L73.4,87.3L76.2,85.3L78.0,83.4L79.4,81.6L79.7,81.6L79.9,81.8L80.5,83.8L81.7,85.5L82.6,86.3L83.6,87.0L83.9,87.2L84.6,87.4L85.6,87.8L87.2,88.0L89.5,87.9L90.6,87.6L91.2,87.6L91.7,88.1L92.7,89.9L93.0,90.1L93.7,90.2L94.1,90.5L94.7,90.6L95.6,90.5L96.5,89.9L97.0,89.4L97.5,89.2L98.6,88.6L99.1,88.4L99.7,88.0L100.6,87.7L101.2,87.8L101.9,88.6L102.3,88.7L102.9,88.7L104.7,87.7L105.3,87.1L106.6,87.3L107.4,87.6L108.8,87.8L110.6,87.7L112.1,87.2L113.8,86.2L114.7,85.5L115.7,84.2L116.4,82.7L116.8,80.8L116.8,79.5L116.5,78.1L116.1,77.0L116.0,76.4L116.3,75.8L117.3,74.7L118.0,73.2L118.2,72.0L118.2,70.4L118.1,69.7L117.7,68.7L117.0,67.6L116.4,67.0L114.9,66.0L114.1,65.6L113.2,65.4L111.8,65.3L110.1,65.7L108.8,66.5L107.9,67.4L107.3,67.5L106.9,67.2L106.9,67.0L105.7,65.1L105.5,64.6L105.5,64.3L105.6,64.1L114.2,64.1L114.1,62.4L114.6,60.9L115.4,59.8L116.0,59.2L116.8,58.8L117.7,58.5L117.8,57.9L117.4,57.6L116.6,55.5L116.6,54.0L117.0,52.5L117.4,52.0L118.4,50.9L119.2,50.3L119.2,50.0L118.9,49.6L118.0,49.2L117.2,48.6L116.3,47.7L115.8,46.9L115.4,46.0L115.3,45.3L115.2,43.8L115.4,42.8L115.7,42.0L116.2,41.3Z M25.5,80.0L25.7,79.9L28.2,79.9L28.6,80.0L29.2,80.9L29.7,82.6L30.0,83.0L30.2,83.5L31.1,84.7L32.1,85.0L32.2,85.2L34.3,86.4L35.9,86.8L36.4,87.4L36.3,87.8L35.8,87.8L36.0,88.5L35.4,88.8L35.5,89.4L35.3,89.6L34.8,89.7L34.2,90.2L33.6,90.2L33.4,90.2L32.5,89.4L29.9,88.1L29.4,88.0L28.6,87.5L27.9,87.5L27.5,87.6L26.7,88.6L25.9,88.5L25.5,87.9L25.0,87.5L24.9,87.2L25.4,86.7L25.9,86.4L26.6,86.4L27.3,85.8L27.7,85.6L28.0,85.3L28.0,84.8L27.6,84.0L26.8,82.8L26.2,82.4L25.3,82.1L25.3,81.9L25.8,81.4L25.8,81.0L25.5,80.5Z M103.2,78.9L103.3,79.5L103.1,79.8L103.1,80.3L103.3,80.9L102.9,81.2L102.4,81.4L102.1,81.7L100.9,83.8L100.9,84.2L101.5,84.8L101.8,84.9L102.1,85.2L103.4,85.4L104.0,85.9L104.0,86.2L103.4,86.7L103.4,87.0L102.9,87.5L102.3,87.5L101.3,86.6L101.0,86.4L100.4,86.4L98.8,87.3L98.6,87.5L98.2,87.6L96.3,88.6L95.5,89.3L94.8,89.4L94.2,89.0L93.6,88.8L93.5,88.7L93.4,88.1L93.0,88.0L92.9,87.7L92.9,87.2L92.5,87.0L92.5,86.7L92.7,86.3L93.4,85.8L94.5,85.5L96.6,84.2L97.3,83.9L98.1,83.4L98.6,82.7L99.8,79.4L100.2,78.9Z M20.3,78.8L20.7,79.2L20.9,79.5L20.9,80.2L20.6,81.0L20.1,81.6L19.8,81.7L19.2,81.7L18.7,81.6L18.2,80.8L18.2,80.4L18.4,79.8L19.2,78.9Z M42.1,77.8L42.5,77.8L43.5,78.1L44.4,79.0L44.8,79.9L44.8,81.0L44.6,81.7L44.0,82.4L43.6,82.7L42.8,82.7L42.0,82.3L41.5,81.9L40.9,80.8L40.8,80.1L40.4,79.4L40.5,78.8L41.4,78.1Z M108.3,77.7L108.8,77.6L109.6,77.6L110.1,77.9L110.7,78.7L110.7,79.6L110.1,80.3L109.6,80.6L108.9,80.5L108.2,80.0L107.9,79.4L108.0,78.2Z M87.1,77.4L87.8,77.6L88.2,78.0L88.3,78.4L87.4,81.2L86.4,82.2L85.9,82.4L85.3,82.4L84.9,82.2L84.4,81.7L83.9,80.8L83.7,80.1L83.9,79.1L84.3,78.4L85.2,77.5L86.0,77.3Z M47.8,79.7L47.8,82.2L47.3,83.5L47.0,83.9L46.8,84.5L45.7,85.7L44.2,86.7L42.8,87.3L41.7,87.5L39.9,87.5L38.2,87.2L37.4,86.7L36.4,85.8L35.8,85.5L34.7,85.4L34.0,84.8L33.0,84.4L32.2,83.8L31.5,83.5L30.9,82.7L30.3,81.1L29.7,79.8L29.6,79.4L29.1,78.4L29.0,77.1L29.1,76.9L29.7,76.8L31.1,77.9L32.6,79.2L35.5,82.4L36.9,83.3L37.0,83.5L38.6,84.3L40.3,84.7L42.2,84.7L42.8,84.6L44.4,83.7L45.0,83.0L45.4,82.4L45.8,81.1L45.8,80.0L45.7,79.5L45.2,78.3L44.6,77.6L44.1,77.2L43.3,76.8L42.8,76.7L41.7,76.7L41.2,76.8L40.6,77.1L40.1,77.6L39.5,78.3L39.0,79.4L39.0,80.3L39.0,80.5L39.7,80.6L40.0,80.9L40.4,82.4L41.4,83.2L41.3,83.5L41.0,83.5L39.5,83.0L38.4,82.1L37.7,80.9L37.6,80.1L37.6,79.0L37.8,78.2L38.2,77.3L38.6,76.8L39.8,75.7L41.4,75.1L42.3,75.0L44.0,75.2L45.7,76.2L46.8,77.4L47.4,78.4Z M80.8,79.2L81.0,78.3L81.5,77.2L82.2,76.3L82.8,75.7L83.4,75.2L85.0,74.6L86.3,74.4L87.6,74.5L89.0,75.1L89.4,75.4L90.6,76.7L90.9,77.4L91.1,78.4L91.1,80.2L90.3,81.5L89.5,82.4L88.1,83.0L87.2,83.0L87.1,82.7L87.9,82.2L88.6,81.1L88.7,80.2L89.0,79.9L89.3,79.9L89.7,79.7L89.7,78.8L89.4,77.9L89.1,77.6L89.1,77.5L87.9,76.5L87.0,76.2L85.8,76.2L84.7,76.6L84.1,77.1L83.4,77.8L82.9,79.2L82.9,80.7L83.1,81.3L84.2,83.0L85.1,83.6L86.2,84.0L88.6,84.0L90.4,83.5L91.6,82.8L93.0,81.7L96.4,78.0L97.7,76.8L99.1,75.8L99.4,75.8L99.7,76.1L99.6,77.1L99.3,77.8L99.2,78.3L97.8,82.2L97.3,82.7L94.4,84.3L92.5,85.0L91.1,86.3L89.2,86.8L86.3,86.8L86.0,86.7L84.8,86.4L83.4,85.6L82.8,85.1L81.8,83.8L81.0,82.4L80.7,80.9Z M31.8,72.8L32.6,72.8L34.3,73.9L36.1,74.8L37.6,75.8L37.6,76.2L36.9,77.3L36.6,78.7L36.6,80.2L36.6,80.8L36.9,81.1L36.9,81.4L36.7,81.6L36.3,81.5L35.3,80.6L34.5,79.7L32.3,77.5L31.2,76.5L30.5,76.0L29.9,75.5L29.9,75.2L30.5,74.3Z M96.9,72.0L98.7,74.2L98.7,74.6L98.2,75.1L97.7,75.4L95.7,77.4L95.3,77.6L92.6,80.7L92.4,80.8L91.9,80.8L91.9,80.5L92.1,79.8L92.1,78.3L91.9,77.2L91.0,75.5L91.0,75.0L91.7,74.4L96.1,71.9L96.6,71.9Z M16.0,72.0L16.3,71.9L16.8,72.0L17.4,72.8L17.4,73.1L17.3,73.3L16.7,73.7L16.2,73.7L15.5,73.2L15.5,72.4Z M112.1,70.5L112.8,70.7L113.2,71.2L113.2,71.7L112.8,72.1L112.5,72.3L112.0,72.3L111.3,71.7L111.3,71.2L111.4,70.9Z M13.7,68.7L15.3,68.0L16.8,67.9L18.6,68.4L19.4,68.9L20.3,69.8L20.6,70.3L20.6,70.9L20.3,71.7L20.1,73.4L19.7,73.7L18.5,73.6L18.4,73.5L18.4,72.8L18.2,71.9L17.4,71.1L16.7,70.8L16.0,70.8L15.5,71.0L14.8,71.7L14.5,72.5L14.6,73.5L14.8,73.9L15.5,74.7L16.5,74.9L19.8,74.9L20.3,75.5L20.4,76.9L20.3,77.4L19.7,77.6L17.9,77.7L15.3,77.6L14.2,77.1L13.4,76.6L12.4,75.5L11.9,74.6L11.5,73.4L11.6,71.9L11.9,70.9L12.3,70.1Z M115.1,67.2L115.7,67.7L116.8,69.2L117.2,70.2L117.2,72.3L117.0,72.9L116.6,73.8L115.5,75.1L114.4,75.8L113.4,76.2L112.5,76.3L108.7,76.3L108.5,76.1L108.5,74.1L108.9,73.6L110.2,73.5L112.0,73.5L112.8,73.4L113.1,73.2L114.1,72.3L114.2,71.2L114.0,70.4L113.0,69.5L112.5,69.3L111.9,69.3L111.3,69.6L110.6,70.3L110.3,71.3L110.3,72.1L109.9,72.4L109.0,72.4L108.6,72.0L108.4,70.5L108.0,69.6L108.0,69.0L108.5,68.3L109.8,67.1L111.2,66.5L113.2,66.5L114.2,66.8Z M45.6,65.9L45.9,66.1L46.0,71.9L46.2,74.5L46.0,74.7L45.7,74.7L44.6,74.2L43.0,73.9L40.7,73.9L40.5,73.7L40.5,73.1L41.4,69.1L42.2,68.4L42.8,68.2L43.4,67.7L43.4,67.4L42.2,66.5L42.2,66.2L42.3,66.1L42.5,66.1L43.5,66.5L44.8,66.6L45.1,66.4Z M82.7,65.3L82.8,65.3L83.5,66.1L84.5,66.1L85.0,65.9L85.7,65.3L86.1,65.4L86.2,65.9L85.8,66.3L84.8,66.9L84.7,67.2L85.1,67.5L86.4,68.0L86.9,68.5L87.3,69.4L87.4,70.4L88.2,72.8L88.2,73.1L87.9,73.3L85.3,73.4L84.2,73.6L82.9,74.3L82.4,74.4L82.3,74.2L82.4,71.7L82.6,71.0L82.6,65.6Z M32.9,64.7L34.0,64.7L34.9,65.1L35.9,66.2L36.2,66.9L36.6,68.5L37.1,69.5L38.0,70.3L38.6,70.6L39.2,70.7L39.6,70.9L39.8,71.6L39.4,72.8L39.2,74.3L38.8,74.8L38.2,74.8L37.7,74.4L33.4,72.1L32.8,71.7L32.6,71.4L32.6,70.9L32.8,70.5L32.7,68.5L31.9,67.1L31.8,66.4L32.5,65.1Z M95.5,63.9L96.2,64.8L96.7,65.6L96.7,66.0L96.0,67.0L95.8,67.9L95.7,69.1L95.9,70.1L95.9,70.5L95.5,70.9L94.7,71.5L94.1,71.7L92.7,72.7L92.2,72.8L90.0,74.2L89.8,74.2L89.4,73.7L89.3,73.1L89.1,72.8L88.6,70.7L88.7,70.3L88.8,70.1L90.3,69.7L91.2,68.8L91.8,67.7L92.4,65.7L93.0,64.8L93.7,64.3L94.4,63.9Z M13.3,60.0L13.6,59.7L14.4,59.5L18.4,59.5L19.5,59.7L20.3,59.7L24.8,60.7L26.3,61.3L26.7,61.6L26.7,61.8L26.2,62.6L25.4,63.3L24.7,63.7L24.0,63.9L23.5,64.2L21.1,64.4L16.2,64.5L15.7,64.5L15.4,64.2L15.0,62.3L14.4,61.4L13.5,60.4Z M115.1,58.4L115.0,58.7L114.4,59.3L113.8,60.2L113.4,61.3L113.2,62.7L112.8,63.0L106.0,63.1L105.0,62.9L103.8,62.6L102.6,61.9L102.0,61.2L101.8,60.6L101.8,60.3L102.0,60.1L102.8,59.9L103.1,59.7L104.2,59.3L107.6,58.5L111.4,58.0L113.6,58.0L114.8,58.1Z M45.4,57.6L45.6,57.6L45.8,57.9L45.8,61.8L45.5,62.1L44.9,62.0L44.6,61.6L44.6,61.0L44.9,59.7L45.1,57.9Z M82.8,57.6L83.1,57.8L83.3,58.5L83.3,59.2L83.6,60.6L83.6,61.2L83.4,61.5L82.7,61.6L82.6,61.4L82.5,57.7Z M43.6,54.5L44.8,55.7L44.8,56.1L44.2,57.3L43.8,59.9L43.5,61.3L43.5,62.1L43.6,62.4L44.4,63.1L44.9,63.5L45.1,63.7L45.1,64.0L44.4,64.8L44.4,65.2L44.2,65.3L43.8,65.3L43.2,64.8L42.9,64.1L42.2,63.5L41.8,63.5L41.6,63.7L41.3,64.6L40.9,66.5L40.9,66.9L41.4,67.4L41.4,67.7L41.2,67.9L40.9,68.0L40.6,68.3L40.2,69.2L39.9,69.5L39.2,69.6L38.6,69.3L37.8,68.7L37.4,67.6L37.4,66.9L37.7,66.4L38.1,65.1L38.6,64.1L38.6,63.9L39.7,61.2L39.8,60.2L40.2,59.0L40.2,58.6L40.8,56.3L40.7,55.1L41.0,54.4L41.4,54.1L41.8,54.1L42.0,54.3L42.8,54.3L43.0,54.6Z M84.2,54.0L84.9,54.1L85.2,53.7L85.8,53.8L86.2,53.6L86.6,53.6L86.9,53.8L87.3,54.3L87.4,56.0L87.6,57.1L87.8,57.3L88.1,58.9L88.5,60.2L88.6,60.8L89.5,62.7L91.0,66.1L91.0,66.9L90.5,68.0L89.9,68.6L89.3,68.9L88.4,69.0L88.0,68.5L87.8,67.7L87.1,67.2L86.8,67.2L86.6,67.0L86.6,66.9L87.3,66.4L87.4,65.9L86.5,62.9L85.9,62.9L85.4,63.5L85.0,64.5L84.4,64.8L84.2,64.8L83.9,64.6L83.9,64.4L83.1,63.5L83.1,63.2L83.5,62.7L84.1,62.4L84.6,61.9L84.8,61.4L84.4,59.5L84.2,58.9L84.1,57.6L83.8,56.6L83.3,55.7L83.4,55.3L83.9,54.6L84.0,54.1Z M11.7,52.8L12.0,52.5L14.2,52.8L15.8,53.0L16.5,53.3L17.1,53.4L19.0,54.0L20.1,54.2L21.4,54.8L23.3,55.4L24.6,56.0L25.9,56.5L27.5,57.3L27.7,57.3L28.1,57.6L28.1,58.0L27.7,58.7L27.4,59.7L27.0,60.2L26.2,60.1L23.8,59.5L23.0,59.4L21.3,58.9L18.4,58.5L15.2,58.4L13.0,58.7L12.6,58.4L12.8,56.8L12.7,55.4L12.3,54.0L11.8,53.2Z M116.5,51.2L116.5,51.7L116.2,51.9L116.0,52.4L115.7,53.8L115.7,55.5L115.7,56.2L115.9,56.5L115.9,56.9L115.7,57.1L113.8,56.9L111.5,56.9L109.7,57.1L106.7,57.6L104.6,58.2L104.2,58.2L103.6,58.5L102.8,58.7L102.1,58.9L101.4,59.0L101.1,58.8L100.8,57.7L100.2,56.8L100.2,56.5L100.6,56.2L101.4,55.7L102.7,55.2L103.4,54.8L103.7,54.8L105.3,54.0L105.8,53.8L106.6,53.4L108.1,53.0L110.2,52.2L113.7,51.2L114.3,51.2L115.2,51.0L116.3,51.0Z M81.1,49.4L81.4,49.8L81.5,72.3L80.9,75.8L80.4,77.3L79.8,78.9L79.1,80.2L77.4,82.6L75.1,84.8L72.4,86.5L71.1,87.2L70.6,87.2L70.3,87.5L69.4,87.8L66.4,88.5L63.4,88.6L61.4,88.4L59.2,87.9L58.0,87.4L57.2,87.2L55.6,86.4L53.8,85.1L51.5,83.0L49.4,80.3L47.8,76.8L47.3,75.0L47.3,74.4L47.0,72.8L47.0,70.1L47.0,63.4L46.8,57.1L46.8,54.6L46.7,53.7L46.7,51.7L46.8,49.8L47.2,49.6L48.1,49.5L56.9,49.5L61.3,49.3L65.2,49.4L73.4,49.3L80.8,49.3Z M38.0,47.6L37.4,48.8L36.9,49.2L36.3,49.5L35.0,49.4L34.1,48.5L33.9,48.1L34.0,47.7L34.2,47.5L37.8,47.4Z M89.9,46.9L90.0,46.7L91.7,46.9L93.8,46.8L94.1,47.0L94.1,47.4L93.8,48.0L93.2,48.6L92.6,48.8L91.8,48.8L91.2,48.6L90.3,47.8L89.9,47.2Z M27.5,46.9L27.8,46.5L28.3,46.4L29.5,46.5L29.9,46.7L30.7,46.8L32.3,47.2L32.6,47.3L32.9,47.8L32.9,48.5L31.7,48.5L28.6,48.0L27.7,47.6L27.5,47.3Z M100.7,46.0L100.6,46.3L100.2,46.7L99.4,47.0L97.8,47.2L97.2,47.5L96.5,47.6L95.9,47.8L95.4,47.8L95.1,47.6L95.1,46.7L95.5,46.4L95.9,46.2L96.9,46.1L99.4,45.3L100.2,45.3L100.5,45.6Z M14.0,45.3L14.8,45.3L15.0,45.6L15.6,45.8L18.2,47.3L18.6,47.4L19.5,48.0L19.9,48.1L20.2,48.4L21.1,48.8L22.2,49.6L24.3,50.6L24.6,50.9L25.7,51.4L26.6,52.0L27.0,52.2L28.1,52.9L29.9,53.8L30.3,54.1L30.4,54.6L29.5,56.3L29.0,56.6L28.6,56.6L27.0,55.8L25.9,55.5L23.8,54.5L23.1,54.4L21.0,53.5L20.5,53.4L18.2,52.6L13.9,51.7L12.3,51.5L12.0,51.3L12.0,51.0L13.0,49.8L13.1,49.3L13.4,48.9L13.8,47.8Z M114.3,44.0L114.3,45.0L114.6,46.7L115.4,48.2L116.2,49.3L116.2,49.5L116.0,49.8L113.6,50.1L112.4,50.6L111.7,50.6L110.9,50.9L110.2,51.0L108.8,51.6L107.9,51.8L107.2,52.2L106.8,52.2L105.3,52.8L104.7,53.2L103.9,53.4L102.7,54.1L101.0,54.7L99.5,55.6L99.0,55.6L98.6,55.2L97.8,53.8L97.8,53.3L98.2,52.8L98.5,52.8L99.1,52.2L100.0,51.8L101.4,50.9L103.5,49.7L104.7,48.8L105.6,48.5L107.3,47.3L108.9,46.5L109.5,46.0L111.1,45.2L111.9,44.5L112.2,44.5L112.9,44.0L113.3,43.9L113.7,43.7L114.0,43.7Z M41.4,43.7L42.1,43.3L44.1,43.4L44.4,43.7L44.4,44.0L44.1,44.1L41.8,44.2L41.4,44.0Z M83.4,43.2L83.6,43.0L86.0,43.0L86.4,43.2L86.5,43.6L86.3,43.7L83.6,43.8L83.4,43.6Z M36.5,41.6L37.2,42.2L37.6,43.0L37.6,43.4L37.1,44.7L36.9,45.0L36.4,45.9L36.1,46.2L35.6,46.4L34.2,46.4L28.9,45.3L27.8,45.2L27.3,45.4L26.8,45.9L26.5,46.6L26.5,47.2L26.7,48.0L27.3,48.8L29.5,49.3L30.2,49.3L30.8,49.6L33.2,50.0L34.7,50.4L35.5,50.9L36.6,51.9L37.0,52.5L37.6,53.7L37.8,54.8L37.7,56.7L37.1,58.1L35.7,60.0L32.2,63.5L31.9,64.0L31.2,64.9L31.1,65.3L30.5,66.5L30.5,66.9L31.3,67.9L31.6,68.7L31.8,69.5L31.7,70.4L31.5,71.1L30.4,72.9L28.9,74.6L28.3,75.8L28.0,76.9L28.1,78.4L27.8,78.7L24.8,78.7L24.6,78.6L24.1,78.1L23.8,77.6L23.7,77.1L24.3,75.8L24.7,73.7L24.7,72.0L24.6,71.2L24.4,71.1L24.1,71.1L23.9,71.4L23.8,72.0L23.8,73.9L23.4,75.0L23.4,75.3L22.6,77.0L22.6,77.4L24.5,80.7L24.4,81.2L23.5,81.9L23.5,82.2L24.5,82.7L25.7,83.0L26.4,83.9L26.7,84.5L26.7,84.9L26.4,85.2L25.0,85.6L23.8,86.7L21.9,87.5L20.1,88.0L18.0,87.8L16.6,87.2L15.3,86.3L14.6,85.6L13.9,84.6L13.6,84.0L13.2,82.4L13.1,81.8L13.2,80.5L13.4,80.0L13.5,79.4L13.9,78.7L14.2,78.5L14.6,78.5L16.0,78.9L17.2,78.9L17.4,79.2L17.1,80.0L17.2,81.4L17.6,82.0L18.5,82.8L19.1,83.0L19.9,83.0L20.7,82.6L21.4,81.9L21.8,81.0L21.8,79.3L21.5,78.1L21.4,76.6L21.2,76.3L21.1,75.0L21.1,72.9L21.2,72.0L21.4,71.6L21.7,70.7L22.5,68.9L23.2,67.7L23.3,67.5L23.5,67.2L23.6,66.8L23.8,66.6L24.4,65.3L24.9,64.8L25.9,64.2L26.4,63.7L27.4,62.6L28.0,61.3L28.1,60.2L28.5,59.0L28.9,58.6L29.1,58.5L29.9,57.6L30.5,56.3L31.7,54.3L31.6,53.7L30.6,52.9L28.6,52.0L27.0,50.9L23.5,49.0L23.1,48.8L21.6,47.8L21.2,47.2L21.3,46.0L21.6,44.9L22.0,44.1L23.0,43.0L23.6,42.6L24.2,42.4L24.4,42.1L25.4,41.9L27.5,41.8L29.7,42.4L30.6,42.5L32.9,43.1L33.4,43.1L33.7,42.9L34.0,42.4L34.7,41.7L35.4,41.5Z M41.7,41.6L41.7,41.8L41.5,41.9L41.0,42.0L40.5,42.7L40.4,43.4L39.9,44.5L40.1,45.3L39.0,45.8L38.3,46.0L37.8,45.8L37.8,45.5L38.8,43.8L39.0,43.2L39.4,42.5L40.5,41.5L41.4,41.4Z M85.8,41.4L86.0,41.1L86.4,41.0L87.1,41.0L87.6,41.2L89.0,42.8L90.1,44.8L90.2,45.3L89.9,45.5L89.5,45.5L87.5,44.8L87.4,44.5L87.9,44.2L87.9,43.8L87.4,42.9L87.4,42.5L87.2,42.0L86.8,41.6Z M91.7,40.9L93.0,41.0L93.9,41.7L94.1,42.1L94.3,42.4L94.9,42.4L100.5,40.8L101.6,40.7L102.9,40.8L103.9,41.1L105.2,41.8L105.7,42.4L106.4,43.4L106.8,44.2L106.9,45.0L106.9,46.1L106.4,46.7L104.7,47.7L104.1,48.2L103.0,48.7L101.8,49.6L100.5,50.1L100.2,50.4L98.4,51.6L97.1,52.2L96.5,52.8L96.5,53.3L97.0,54.1L97.3,54.8L97.8,55.6L98.3,56.7L98.8,57.2L99.4,57.5L99.9,58.0L100.2,58.9L100.3,60.0L100.9,61.3L102.3,62.9L102.6,63.0L103.0,63.4L103.3,63.5L104.1,64.2L106.6,68.7L107.5,70.7L107.7,72.3L107.5,75.7L107.1,77.9L107.0,78.8L107.1,79.8L107.3,80.4L107.9,81.1L108.5,81.5L109.2,81.6L109.8,81.6L110.7,81.1L111.6,80.0L111.7,78.7L111.4,78.0L111.4,77.8L111.6,77.6L112.5,77.5L113.0,77.3L114.8,77.0L115.2,77.3L115.4,77.7L115.7,78.7L115.9,80.6L115.7,81.7L115.3,82.7L114.9,83.6L114.4,84.2L113.6,85.1L112.0,86.0L111.4,86.2L111.1,86.4L109.9,86.6L107.7,86.5L106.8,86.3L105.3,85.7L104.0,84.6L102.9,84.2L102.6,84.2L102.3,83.9L102.2,83.5L102.9,82.3L103.2,81.9L104.4,81.5L105.2,81.0L105.2,80.6L105.0,80.4L104.8,80.4L104.3,79.9L104.5,79.3L105.3,78.0L106.1,76.6L106.1,75.8L105.3,74.5L104.9,73.3L104.7,72.5L104.7,71.5L104.6,70.9L104.2,70.3L103.9,70.3L103.9,72.7L104.0,73.6L105.0,76.0L104.7,76.9L104.0,77.6L100.9,77.7L100.6,77.4L100.7,75.6L100.2,74.5L99.9,74.0L97.6,71.3L96.7,69.6L96.7,68.5L96.8,67.7L97.1,67.0L97.8,66.1L97.8,65.6L96.6,63.4L94.5,61.1L93.4,60.3L91.1,57.9L90.4,56.3L90.2,54.9L90.3,53.5L90.6,52.4L91.2,51.4L92.1,50.5L92.8,49.9L93.9,49.4L96.3,48.8L96.8,48.6L97.6,48.5L98.1,48.3L99.1,48.2L100.9,47.5L101.3,47.1L101.5,46.6L101.5,45.4L101.3,45.0L100.5,44.3L100.2,44.2L99.7,44.2L97.6,44.6L95.1,45.3L94.1,45.5L93.6,45.7L91.9,45.7L91.5,45.3L90.8,44.1L90.3,42.9L90.4,42.0L91.2,41.1Z M39.5,40.2L39.5,40.5L39.0,41.3L38.5,41.7L38.2,41.7L36.9,40.5L35.7,40.2L35.0,40.3L34.7,40.5L34.2,40.7L32.9,41.8L32.1,41.8L31.5,41.6L30.9,41.0L30.9,40.6L31.0,40.5L31.8,40.4L32.3,39.7L33.1,39.9L33.5,39.4L33.6,39.1L33.9,38.9L34.7,39.1L35.3,38.7L35.7,38.7L36.3,39.1L37.4,39.0L37.7,39.1L38.5,39.7L39.2,39.8Z M88.3,39.7L88.6,39.3L89.5,39.3L90.4,38.5L91.3,38.6L91.9,38.3L92.4,38.3L92.8,38.6L93.8,38.4L94.4,38.7L95.4,38.8L96.0,39.5L96.9,39.8L97.0,40.1L96.9,40.3L96.2,40.8L95.7,40.9L95.4,41.1L94.9,41.1L93.5,40.1L92.7,39.8L91.7,39.7L90.6,40.2L89.8,41.0L89.2,41.1L88.6,40.5L88.3,40.1Z" fill="#000" fill-rule="evenodd"/>
</svg>