<svg xmlns="http://www.w3.org/2000/svg" viewBox="0 0 128 128" width="128" height="128">
  <path d="M83.6,9.9L81.9,9.4L80.1,9.4L79.1,9.7L77.4,11.2L76.2,13.8L75.7,14.2L67.2,14.2L66.3,14.4L64.4,14.3L60.1,14.8L59.3,15.1L58.0,15.3L57.3,15.5L55.6,15.8L52.3,16.8L51.8,17.1L50.9,17.3L47.4,19.1L45.0,20.8L43.7,21.4L41.1,23.6L37.7,27.0L34.9,31.1L33.2,34.2L31.7,38.0L31.0,40.5L30.8,41.8L30.6,42.4L30.1,47.9L29.7,48.3L25.3,48.4L11.9,48.1L11.5,48.4L11.3,49.0L11.2,52.3L11.2,72.7L11.4,73.3L11.6,73.4L12.3,73.6L22.1,73.7L22.7,73.8L23.2,74.2L22.7,75.7L22.1,76.6L21.6,78.3L21.0,79.2L21.0,79.5L20.5,80.3L19.5,82.8L19.6,83.4L20.0,83.6L24.0,83.7L24.3,83.8L24.6,84.3L23.5,89.0L23.3,90.9L23.0,91.8L22.7,94.0L22.2,95.6L22.0,97.4L21.8,98.3L21.7,100.1L21.3,101.3L20.9,105.2L21.0,108.4L21.2,109.6L21.9,111.7L22.9,113.7L23.7,114.9L24.8,115.9L26.3,117.0L27.7,117.5L30.7,118.2L40.9,118.3L45.9,118.4L55.4,118.4L55.8,117.8L55.8,117.2L55.3,115.7L54.7,114.7L53.2,113.2L51.8,112.1L49.1,110.8L46.7,110.1L44.1,109.8L43.0,109.6L40.8,109.5L40.6,109.4L40.3,108.6L42.1,105.8L43.2,104.3L46.3,101.2L47.4,100.4L51.1,98.4L53.7,97.6L55.6,97.3L58.5,97.3L59.6,97.4L63.0,98.4L65.1,99.6L66.9,100.9L70.6,105.1L73.2,108.7L73.9,109.9L77.0,114.0L79.1,116.1L81.0,117.4L82.1,118.0L85.0,118.7L88.5,118.8L95.0,118.7L97.7,118.9L109.0,119.0L110.4,118.9L110.7,118.6L110.6,117.9L110.4,117.2L109.0,114.8L107.9,113.7L105.8,112.3L101.7,110.9L100.1,110.5L99.2,110.5L97.1,110.1L94.0,110.1L93.5,110.0L93.0,109.7L92.5,108.1L92.2,105.8L92.0,105.4L91.9,103.8L91.2,100.2L91.2,99.3L90.1,93.8L89.6,89.2L89.4,88.7L89.3,87.4L88.8,85.3L88.5,82.0L88.0,79.3L88.4,79.0L88.7,79.0L89.4,79.4L90.6,80.0L92.4,80.6L95.2,80.7L97.3,80.1L98.7,79.2L99.8,78.3L100.8,77.1L101.5,75.6L101.9,75.0L102.5,74.9L105.4,74.9L107.8,74.7L116.2,69.3L116.8,68.7L117.0,67.5L117.0,60.0L116.8,55.6L116.6,55.2L115.8,54.5L114.7,53.9L113.1,52.8L111.8,52.1L109.0,50.3L108.5,50.2L108.1,49.8L107.0,49.1L102.6,49.0L100.7,48.8L94.0,48.8L93.0,48.7L92.6,48.2L92.0,46.8L91.7,45.5L91.3,44.4L91.2,43.8L90.8,43.0L90.6,41.7L91.0,41.4L91.5,41.3L99.3,41.3L100.2,40.6L100.5,39.7L100.4,39.0L99.9,38.5L98.7,37.7L97.8,37.4L96.7,36.7L95.2,36.0L93.5,35.0L93.0,34.8L92.7,34.4L92.7,34.2L93.1,33.9L95.9,33.8L99.3,33.4L101.1,32.8L102.7,31.9L103.9,30.5L104.5,29.2L104.6,26.2L104.5,25.8L104.0,25.5L96.3,25.3L95.0,25.1L94.6,24.6L94.4,22.6L93.7,20.6L92.7,18.7L92.0,17.9L90.1,16.2L89.3,15.6L86.4,14.3L86.1,13.9L85.5,12.0L84.9,11.1Z M29.9,105.8L29.9,104.7L30.2,103.7L30.2,103.0L30.4,102.6L30.6,100.6L31.6,96.0L32.0,94.9L32.2,92.5L32.7,90.8L33.3,87.1L33.6,85.9L33.8,84.2L35.1,78.1L35.3,76.5L35.8,74.7L36.4,74.0L42.2,73.9L43.5,74.1L46.7,76.3L47.7,76.6L49.0,77.5L51.1,78.4L53.3,79.1L56.6,79.5L58.4,79.5L60.3,79.2L62.5,78.6L65.8,76.5L68.3,74.5L68.9,74.2L78.3,74.3L79.0,74.8L78.9,76.0L78.7,76.4L77.1,79.2L75.9,80.5L73.4,82.7L70.2,84.7L69.8,84.8L67.9,85.7L66.9,85.9L64.2,86.7L61.2,87.1L60.1,87.4L58.6,87.4L58.1,87.6L54.4,87.9L51.8,88.3L50.9,88.3L48.7,88.8L45.2,90.3L42.0,92.3L40.8,93.4L38.4,95.7L37.5,96.5L37.3,96.8L35.6,98.6L33.3,101.7L30.8,105.4L30.3,105.9Z M98.0,73.0L98.7,72.1L99.2,72.0L100.1,72.8L100.3,73.3L100.3,73.5L99.9,73.8L98.4,73.8L98.0,73.5Z M93.4,73.1L94.2,72.0L94.5,72.0L95.6,73.0L95.7,73.4L95.2,73.8L94.0,73.8L93.5,73.6Z M88.7,73.0L89.5,72.0L90.1,71.9L90.9,72.8L91.0,73.4L90.5,73.7L88.8,73.6Z M66.3,57.5L66.9,56.9L76.5,57.1L97.0,57.1L98.9,57.3L100.7,57.2L104.2,57.4L105.3,57.5L106.5,58.1L107.8,59.3L108.5,60.9L108.5,62.5L107.9,64.0L107.1,64.9L105.8,65.7L104.3,66.0L100.0,66.0L97.4,65.8L90.9,65.9L75.8,65.6L67.3,65.6L66.7,65.4L66.3,64.8Z M19.7,57.3L20.3,56.7L21.2,56.6L31.3,56.8L31.7,57.2L33.4,60.9L35.4,64.7L35.4,64.9L34.9,65.2L22.4,65.2L21.6,65.0L20.4,65.0L20.0,64.7L19.7,64.1Z M74.1,25.4L75.6,26.0L77.6,27.4L79.3,29.1L80.1,30.4L80.4,31.3L80.4,32.7L80.2,33.2L79.2,34.6L78.6,35.1L77.7,35.6L76.0,35.9L73.7,35.9L70.0,35.0L68.2,34.0L66.9,33.5L66.5,33.1L63.8,31.7L62.7,31.0L62.0,30.7L59.1,28.6L58.6,28.4L58.1,28.5L58.0,28.7L58.0,50.7L57.8,71.3L57.6,71.9L57.0,72.2L55.7,72.1L53.5,71.4L52.1,70.5L50.9,70.1L49.5,69.0L47.5,67.3L45.8,65.6L44.1,63.4L42.6,61.2L42.1,60.0L41.3,58.9L40.0,55.7L39.6,54.0L39.3,53.3L38.9,50.6L38.9,45.4L39.3,42.7L40.2,39.9L40.6,39.2L41.0,37.7L41.9,36.3L42.1,35.7L43.5,33.6L44.8,31.9L46.9,29.7L48.0,28.8L51.4,26.6L54.4,25.2L55.3,25.0L55.6,24.7L59.5,23.8L61.0,23.6L64.7,23.5L66.4,23.6L67.9,24.0L69.4,24.1L72.6,24.9L73.0,25.2Z M87.4,23.1L88.3,23.1L88.9,23.7L89.1,24.1L88.9,24.9L88.2,25.5L87.3,25.4L86.7,24.7L86.8,23.7Z" fill="#000" fill-rule="evenodd"/>
</svg>