<svg xmlns="http://www.w3.org/2000/svg" viewBox="0 0 128 128" width="128" height="128">
  <path d="M73.8,60.6L73.2,60.8L72.5,61.5L72.2,62.0L71.8,63.1L71.8,64.1L72.2,65.0L73.3,66.0L74.0,66.3L75.5,66.2L76.5,65.6L77.3,64.7L77.5,63.6L77.5,62.7L76.9,61.4L76.0,60.7L75.0,60.5Z M62.7,60.0L61.5,60.5L60.3,61.2L59.0,62.5L58.0,63.9L57.7,64.6L57.4,64.9L56.6,67.7L56.4,70.6L56.6,71.9L56.9,73.3L57.8,75.2L58.3,76.0L59.0,76.8L60.0,77.6L61.0,78.1L61.9,78.4L64.1,78.5L65.5,78.1L67.3,77.0L68.5,75.8L69.0,75.0L69.9,73.3L70.4,71.6L70.7,70.6L70.7,68.6L70.3,65.5L69.4,63.7L68.4,62.3L67.6,61.5L66.4,60.6L65.2,60.3L63.7,60.0Z M51.6,59.9L50.6,60.5L49.9,61.3L49.6,62.4L49.7,63.6L50.1,64.5L50.5,65.0L51.7,65.6L53.2,65.6L53.9,65.3L54.7,64.8L55.2,63.8L55.5,62.8L55.3,61.8L54.8,60.8L54.0,60.2L53.2,59.9Z M71.2,22.5L70.5,22.7L69.9,23.3L69.7,23.9L69.7,24.8L69.8,25.2L70.9,26.1L71.9,26.1L72.5,25.8L73.0,25.2L73.2,24.6L73.2,24.0L72.5,22.8L72.1,22.6Z M64.7,22.5L63.6,22.8L62.2,24.1L61.8,25.0L61.4,26.2L61.3,28.0L61.5,28.4L61.5,28.9L61.9,29.9L62.9,31.2L63.9,31.9L65.4,32.0L66.5,31.7L67.5,30.8L68.0,30.0L68.5,29.0L68.6,28.3L68.6,26.3L68.3,25.1L67.7,24.0L66.8,23.0L66.1,22.7Z M58.6,22.3L57.8,22.9L57.5,23.5L57.5,24.5L57.9,25.2L58.6,25.7L59.9,25.7L60.2,25.5L60.8,24.9L61.1,24.2L61.1,23.6L60.7,22.9L60.3,22.5L59.5,22.2Z M45.1,9.6L44.5,10.0L43.9,10.3L42.6,11.5L41.9,12.4L41.3,13.9L41.0,15.5L41.0,16.7L41.7,19.5L43.1,22.3L44.0,23.4L45.2,24.6L46.4,25.5L47.0,26.2L47.5,27.8L48.1,29.1L48.4,29.4L48.4,29.8L50.1,31.9L51.1,32.8L52.5,33.9L52.9,34.0L53.4,34.6L53.4,35.1L52.5,36.9L52.2,37.2L52.0,37.7L50.6,40.1L50.0,40.9L49.5,40.9L47.7,39.5L45.5,38.0L43.1,36.9L40.8,36.1L39.4,35.9L39.2,35.8L38.1,35.6L34.5,35.6L31.1,36.4L29.3,37.1L26.8,38.6L25.5,39.7L23.5,41.9L21.8,45.0L21.3,46.1L20.9,47.4L20.5,49.4L20.4,54.0L20.7,55.6L21.8,59.6L23.4,62.3L25.4,64.9L26.4,66.0L28.6,67.8L29.2,68.1L30.2,68.8L31.0,69.1L31.7,69.8L32.0,70.1L32.3,71.1L33.5,73.4L34.5,74.8L36.0,76.3L37.9,78.0L40.8,79.8L42.0,80.4L42.3,80.7L42.3,80.9L41.4,81.6L41.1,81.6L39.9,82.4L39.3,82.6L39.1,82.8L37.8,83.4L36.0,84.5L35.7,84.6L35.3,85.0L34.9,85.1L33.3,86.2L32.8,86.4L30.3,88.3L30.3,88.6L30.7,88.7L34.2,88.4L34.5,88.6L34.5,88.9L32.0,91.5L32.0,92.2L34.1,91.9L35.3,91.6L36.3,91.6L36.5,91.8L36.3,92.2L34.9,93.6L33.9,95.0L33.9,95.4L34.0,95.5L34.5,95.5L37.0,94.9L37.6,95.0L37.7,95.4L36.7,96.5L35.6,98.0L35.6,98.2L35.8,98.4L36.3,98.4L41.1,96.4L41.9,96.2L43.4,95.5L46.3,94.6L47.0,94.6L47.3,94.9L47.3,96.8L46.4,97.6L45.5,97.9L44.6,98.4L43.9,98.6L41.7,99.6L40.7,99.9L40.4,100.1L39.9,100.3L39.5,100.6L38.9,100.7L38.7,101.0L38.1,101.1L37.8,101.4L37.2,101.6L34.2,103.3L33.9,103.6L33.4,103.8L31.7,104.9L31.2,105.1L30.3,105.7L29.8,106.2L29.8,106.5L30.3,106.7L32.4,106.4L34.2,106.3L34.4,106.4L34.4,106.7L31.0,109.9L31.0,110.2L31.3,110.4L32.0,110.4L35.0,109.9L35.3,110.2L35.2,110.6L34.1,112.0L33.7,112.8L32.7,114.1L32.6,114.4L32.8,114.6L34.2,114.5L34.6,114.2L35.7,114.0L36.3,113.7L36.9,113.7L37.0,113.8L36.9,114.6L35.3,117.7L34.9,118.6L34.9,118.8L35.1,119.0L35.5,119.0L38.3,116.8L39.9,115.7L40.6,115.5L41.0,115.1L43.0,114.2L47.7,112.4L50.4,111.6L51.6,111.3L52.2,111.1L53.7,110.9L54.8,110.6L55.8,110.5L56.6,110.3L59.2,110.1L60.8,109.9L64.5,109.9L69.3,110.3L70.6,110.6L71.3,110.6L74.6,111.3L75.1,111.7L76.1,111.8L77.1,112.2L78.2,112.4L78.7,112.8L79.2,112.8L83.5,114.6L86.7,116.3L86.9,116.6L87.4,116.7L90.6,119.0L91.1,119.1L91.1,118.6L89.6,116.4L88.8,114.7L89.1,114.5L89.9,114.5L91.2,114.9L92.9,115.2L93.5,115.1L93.6,114.7L90.6,111.3L90.6,111.0L90.7,110.8L91.0,110.8L91.7,111.0L94.9,111.4L95.6,111.4L95.9,111.3L95.9,111.0L95.1,110.3L92.4,108.1L91.8,107.5L91.8,107.3L92.0,107.1L93.1,107.1L96.1,107.7L96.9,107.7L97.0,107.4L96.7,107.1L96.4,107.0L94.9,106.0L93.7,105.3L93.4,105.0L92.2,104.4L91.6,103.9L89.9,102.8L89.4,102.7L88.5,102.1L87.3,101.5L86.7,101.1L84.5,100.0L82.4,98.9L79.3,97.5L78.9,97.2L78.7,96.7L78.8,95.7L79.2,95.4L80.0,95.4L81.7,95.8L82.9,95.9L83.8,96.2L87.1,96.8L87.9,97.2L88.7,97.2L89.5,97.6L90.6,97.8L90.8,97.6L90.8,97.3L89.5,96.1L88.5,94.9L88.5,94.3L90.2,94.6L91.5,95.0L92.3,94.9L92.3,94.7L89.9,92.2L89.9,91.7L91.3,91.8L93.0,92.4L94.0,92.5L94.1,92.3L94.1,92.0L91.7,89.7L91.7,89.4L91.9,89.3L92.7,89.3L94.6,89.5L95.2,89.7L95.9,89.6L95.8,89.3L94.6,88.3L94.1,88.0L92.2,86.5L91.8,86.3L90.8,85.5L87.8,83.9L86.1,83.2L85.7,82.9L85.3,82.8L84.6,82.4L83.3,81.9L83.2,81.7L83.2,81.3L83.4,81.1L83.9,80.9L85.3,80.0L86.3,79.4L89.0,77.5L91.1,75.5L91.7,74.7L93.2,72.3L94.0,70.6L94.4,70.2L95.3,69.9L97.0,69.1L97.5,68.9L100.2,67.2L101.4,66.3L103.0,64.6L105.1,62.0L106.1,60.1L106.9,58.0L107.1,57.7L107.7,54.7L107.9,51.1L107.5,48.8L106.9,48.2L107.0,47.2L105.8,44.7L105.0,43.3L103.8,41.9L101.9,40.2L99.2,38.5L96.7,37.5L95.2,37.1L92.2,36.8L88.5,37.0L87.8,37.2L86.2,37.5L86.0,37.6L85.3,37.8L84.7,38.1L83.9,38.3L83.6,38.6L83.2,38.6L79.3,40.9L79.2,40.9L78.7,40.4L76.3,35.6L76.2,34.9L76.6,34.4L78.7,33.0L80.0,31.7L81.3,30.2L81.4,29.8L82.0,29.0L82.8,27.1L83.3,26.6L84.9,25.5L87.1,23.4L88.5,21.3L89.4,18.7L89.4,15.5L89.1,14.6L87.8,12.7L86.4,11.4L84.2,10.5L81.6,10.4L78.1,11.4L76.8,12.1L76.0,12.3L71.1,10.7L68.8,10.4L68.1,10.2L64.8,10.0L62.6,10.1L60.7,10.5L59.7,10.6L59.0,10.8L58.0,11.0L55.4,11.8L54.5,11.7L53.6,11.0L51.9,10.0L50.4,9.5L48.7,9.2L47.3,9.1L45.9,9.3L45.6,9.6Z M41.4,87.4L41.9,86.8L42.7,86.0L44.1,85.5L44.5,85.1L45.0,85.1L45.6,84.7L46.0,84.7L47.3,84.0L49.0,83.5L50.4,83.6L51.9,84.0L52.5,84.0L53.5,84.4L56.5,84.9L56.9,85.1L58.7,85.1L59.7,85.4L61.1,85.5L66.6,85.4L67.2,85.2L68.8,85.1L70.8,84.7L72.2,84.7L75.4,84.0L76.7,84.0L81.8,85.9L82.4,86.3L83.2,87.1L83.7,88.0L83.7,89.3L83.1,90.2L82.5,90.6L81.7,90.8L79.8,90.8L78.0,90.4L74.7,89.3L74.3,89.3L74.2,89.4L74.0,90.9L74.0,94.1L73.8,99.6L73.9,100.0L74.5,100.4L77.5,101.5L80.3,102.9L82.2,104.2L82.8,104.8L83.1,105.6L83.0,107.1L82.8,107.4L82.1,108.2L81.0,108.5L80.0,108.5L79.0,108.0L75.0,106.7L73.2,106.4L71.5,106.0L64.7,105.2L61.0,105.2L58.2,105.3L57.7,105.5L56.9,105.5L54.0,106.0L53.7,106.1L52.9,106.2L49.4,107.1L47.0,107.8L46.6,108.1L45.6,108.3L43.7,108.3L43.1,108.0L42.8,108.0L42.4,107.5L42.0,106.8L41.8,105.8L42.3,104.6L43.3,103.5L44.8,102.5L47.5,101.2L49.8,100.4L51.3,100.0L51.7,99.7L51.9,91.4L52.0,89.1L51.8,88.9L51.2,88.8L49.1,89.5L48.5,89.6L47.8,89.9L46.9,90.1L46.5,90.3L45.8,90.4L45.6,90.5L45.2,90.5L44.1,90.8L42.7,90.7L42.1,90.4L41.4,89.6L41.1,88.4Z M25.7,51.5L25.8,50.3L26.4,48.4L27.2,46.6L27.5,46.3L28.0,45.4L29.9,43.6L31.3,42.6L33.2,41.8L34.3,41.7L34.9,41.5L37.5,41.4L39.9,41.8L41.3,42.4L43.4,43.6L44.6,44.4L47.0,46.8L47.3,47.5L47.7,47.7L48.4,47.7L50.3,46.9L51.8,46.5L53.6,46.3L54.8,46.0L55.5,46.0L57.8,45.6L59.5,45.6L60.6,45.4L66.9,45.5L69.7,46.0L71.6,46.1L72.2,46.4L73.2,46.4L74.2,46.8L75.7,47.0L77.5,47.7L78.4,47.9L79.6,48.4L80.1,48.3L81.7,46.4L82.6,45.5L84.9,43.9L86.7,43.1L88.5,42.6L90.5,42.3L91.7,42.3L93.8,42.6L94.8,43.0L95.6,43.2L96.0,43.5L96.3,43.5L97.2,44.0L98.4,44.8L99.5,45.8L100.5,47.1L101.5,48.9L101.9,50.1L102.3,52.0L102.3,53.4L101.9,55.6L101.2,57.8L100.4,59.4L99.5,60.7L97.6,62.7L95.2,64.2L93.1,65.1L91.7,65.5L90.3,65.6L89.8,66.1L89.2,68.6L87.9,71.2L85.8,73.6L82.8,75.8L80.5,76.8L80.0,77.1L77.5,78.0L76.8,78.4L72.5,79.6L71.7,79.7L70.9,79.9L70.0,79.9L67.7,80.4L66.8,80.4L65.9,80.5L61.0,80.5L59.3,80.4L58.7,80.2L57.2,80.1L55.9,79.8L55.0,79.8L52.2,79.1L48.4,77.8L47.8,77.4L47.0,77.2L44.5,75.9L42.4,74.7L41.7,74.1L40.6,73.4L38.8,71.6L37.9,70.3L36.7,67.8L36.2,66.5L36.0,65.3L35.6,65.0L34.8,64.7L34.2,64.6L33.1,64.2L30.7,62.8L28.9,61.0L27.7,59.4L26.8,57.8L26.1,55.8L25.7,53.5Z M55.5,40.1L57.0,37.1L57.4,36.6L57.7,36.5L60.7,37.2L63.8,37.6L66.5,37.6L67.1,37.5L67.9,37.5L70.7,36.9L71.5,36.6L72.2,36.6L72.6,37.0L73.4,38.6L73.9,39.8L74.5,41.0L74.5,41.3L74.3,41.5L73.9,41.5L73.4,41.4L72.6,41.4L70.8,40.9L68.8,40.8L67.3,40.4L65.0,40.3L61.9,40.2L60.0,40.4L58.0,40.4L55.8,40.6L55.5,40.3Z M45.5,16.4L46.1,15.0L47.0,14.2L48.1,13.8L49.9,13.8L50.3,14.1L51.2,14.3L52.2,14.9L53.0,15.6L54.0,16.9L54.6,16.9L55.4,16.4L56.7,16.0L57.0,15.8L57.6,15.7L59.0,15.2L62.4,14.7L65.3,14.6L69.6,14.9L70.8,15.2L75.0,16.4L76.4,17.0L77.0,17.0L77.3,16.9L78.4,15.7L79.2,15.2L80.7,14.8L82.1,14.7L82.8,14.8L83.6,15.2L84.5,15.9L85.1,17.0L85.2,18.4L84.9,19.4L84.7,19.7L84.5,20.4L82.8,22.3L81.7,22.9L80.0,23.4L79.5,23.9L79.3,24.9L78.4,27.3L77.0,29.2L75.3,30.8L73.4,31.9L71.5,32.6L70.4,33.0L70.3,33.1L66.8,33.7L63.9,33.8L62.7,33.7L61.9,33.5L61.0,33.4L60.2,33.1L59.0,32.9L58.5,32.6L57.1,32.1L56.6,31.7L56.1,31.5L53.7,29.9L52.1,28.3L51.1,26.7L50.5,25.5L50.0,22.7L49.8,22.4L48.0,21.6L46.7,20.2L46.2,19.4L46.1,19.0L45.6,18.1L45.5,17.4Z" fill="#000" fill-rule="evenodd"/>
</svg>