<svg xmlns="http://www.w3.org/2000/svg" viewBox="0 0 128 128" width="128" height="128">
  <path d="M46.1,65.6L45.7,66.0L45.6,66.6L46.5,69.4L46.5,70.1L46.7,71.3L46.7,73.1L46.3,76.1L45.3,78.8L44.3,80.1L43.4,81.0L42.1,81.8L40.2,82.5L38.6,82.5L37.9,82.3L37.7,82.1L37.1,82.1L36.9,82.5L37.0,83.0L38.5,85.6L40.9,88.8L42.3,90.4L43.9,92.0L44.2,92.1L46.5,94.2L46.9,94.3L49.2,96.0L52.5,97.8L55.5,98.9L59.1,99.8L59.7,99.8L62.2,100.2L67.0,100.2L68.5,100.0L69.3,99.8L70.5,99.6L74.7,98.4L76.7,97.4L77.1,97.4L79.8,95.7L80.7,95.3L82.1,94.3L85.0,91.6L87.3,89.1L89.1,86.6L90.3,84.7L91.0,83.1L91.3,82.9L91.4,82.3L92.2,81.1L93.0,79.2L94.4,74.5L94.9,72.1L94.9,71.0L94.8,70.6L94.4,70.3L92.7,69.4L92.4,69.4L90.9,68.7L90.7,68.7L88.2,67.6L85.5,66.7L84.5,66.5L83.7,66.2L82.9,66.1L80.1,65.3L79.1,65.2L78.2,64.9L76.5,64.7L75.8,64.4L74.0,64.2L72.7,63.8L63.8,63.3L58.7,63.5L51.2,64.4L50.4,64.7L47.9,65.1Z M37.5,61.6L35.8,62.1L34.6,63.0L33.9,63.9L33.3,65.0L32.8,66.4L32.4,68.6L32.5,71.3L32.9,73.6L33.3,74.9L34.1,76.7L35.0,78.1L36.2,79.2L37.4,80.1L38.6,80.5L39.8,80.5L41.3,80.1L42.3,79.4L43.2,78.5L44.0,77.0L44.6,75.4L44.7,74.1L44.8,73.6L44.9,72.1L44.7,70.4L44.4,68.8L43.7,66.8L43.0,65.5L41.8,63.7L41.2,63.1L39.8,62.2L38.6,61.7Z M87.0,47.0L86.2,47.2L85.2,47.6L83.7,49.1L82.8,50.4L82.3,51.9L82.1,53.0L82.0,55.9L82.2,57.4L82.7,59.3L83.3,61.1L83.8,62.1L85.1,63.9L85.9,64.4L86.6,65.2L87.7,65.8L88.8,66.0L90.1,66.0L90.5,66.0L91.7,65.4L93.0,64.2L94.0,62.8L94.5,61.1L94.8,59.8L94.9,56.6L94.4,54.4L94.1,53.8L94.0,53.0L92.7,50.4L91.1,48.6L90.3,47.9L88.6,47.2L87.9,47.0Z M38.0,47.0L37.1,47.0L35.8,47.7L34.9,48.6L34.4,49.4L33.3,51.7L32.2,55.0L32.1,56.3L31.8,57.1L31.6,60.5L31.6,62.0L31.8,62.4L32.5,62.4L33.8,61.1L35.0,60.5L37.2,60.0L39.1,60.0L39.4,59.9L39.7,59.5L39.7,58.9L39.3,57.7L39.0,56.4L38.9,52.3L39.2,50.3L39.2,48.5L38.9,47.7Z M46.1,44.5L44.7,44.9L43.3,45.8L42.5,46.8L41.5,48.5L41.0,49.9L40.7,51.3L40.6,51.7L40.5,55.0L40.8,56.9L41.5,59.2L42.1,60.2L43.0,61.6L44.4,62.9L45.3,63.3L46.3,63.5L47.7,63.5L48.6,63.3L49.8,62.4L51.0,61.1L51.6,60.2L52.2,58.8L52.6,57.3L53.0,55.0L53.0,53.5L52.6,50.9L51.8,48.7L50.9,47.1L49.1,45.2L48.2,44.7L47.8,44.7L47.0,44.5Z M72.9,43.4L71.8,43.7L71.0,44.2L69.7,45.5L68.9,46.8L68.3,48.7L68.0,50.0L68.0,53.9L68.3,55.3L68.5,55.5L68.5,55.9L69.3,58.3L70.1,59.7L70.9,60.6L71.9,61.5L73.4,62.4L74.0,62.5L75.2,62.5L76.1,62.3L77.4,61.6L78.5,60.6L79.1,59.7L79.8,58.3L80.2,56.8L80.6,54.7L80.6,52.7L79.8,49.1L78.2,45.9L76.9,44.5L75.7,43.8L74.3,43.4Z M59.5,42.9L58.4,43.2L57.3,43.7L56.4,44.5L55.4,45.9L54.5,48.1L54.1,49.9L54.0,53.5L54.2,54.4L54.9,56.9L55.5,58.4L56.2,59.4L57.2,60.6L58.5,61.5L59.6,62.0L60.9,62.1L62.1,61.9L63.4,61.1L64.4,60.2L65.0,59.3L65.8,57.8L66.3,55.7L66.6,54.3L66.6,51.8L66.0,48.8L65.0,46.7L63.7,44.8L62.3,43.6L61.5,43.2L60.5,42.9Z M77.9,33.2L77.3,34.3L77.4,35.4L77.8,36.7L78.8,39.1L79.3,40.9L79.8,42.1L81.0,47.0L81.5,47.5L82.2,47.3L82.8,46.7L84.4,45.6L85.9,45.0L88.7,45.0L89.8,45.4L90.1,45.4L90.4,45.1L90.4,44.7L90.1,44.1L88.9,42.2L88.5,41.8L87.5,40.3L86.3,38.7L83.3,35.7L81.3,33.9L80.0,33.0L78.8,32.9Z M53.2,28.9L52.6,28.7L51.9,28.7L51.1,28.9L50.6,29.3L49.2,30.3L47.2,32.3L47.1,32.5L46.5,33.1L44.7,35.8L43.2,38.7L41.6,43.2L41.6,43.8L41.8,44.0L42.4,43.9L43.1,43.5L44.7,42.9L46.9,42.6L48.0,42.7L49.3,43.1L50.3,43.6L51.3,44.3L51.8,44.3L52.1,44.0L52.4,40.0L52.8,38.2L53.3,34.2L53.8,31.9L53.7,29.7Z M65.4,28.3L65.0,28.9L64.9,29.6L64.9,30.4L66.5,36.5L66.7,38.3L67.1,39.4L67.4,41.4L67.4,41.9L67.8,43.3L68.5,43.4L70.2,42.1L71.1,41.7L73.3,41.2L74.6,41.3L75.9,41.7L77.3,42.4L77.8,42.3L77.9,41.8L77.7,41.2L75.8,36.8L75.6,36.5L75.2,35.7L74.3,34.2L73.9,33.5L71.6,30.6L70.5,29.5L68.9,28.5L67.7,28.0L66.5,27.8L66.1,27.9Z M58.8,27.5L58.2,27.8L57.5,28.7L56.7,30.3L56.5,31.1L56.2,31.5L55.6,33.3L55.0,36.0L54.9,37.1L54.4,39.7L54.4,40.8L54.2,42.3L54.2,43.3L54.4,43.5L54.7,43.5L55.9,42.2L57.6,41.2L59.5,40.9L61.5,41.1L63.1,41.8L63.8,42.2L64.9,43.2L65.4,43.3L65.7,43.1L65.7,42.4L64.9,39.2L64.9,38.7L64.5,37.5L64.4,36.5L64.1,35.6L64.0,34.7L63.0,31.8L61.8,29.3L60.8,27.9L59.9,27.4Z M53.7,9.8L52.9,10.1L50.8,10.4L50.2,10.6L47.7,11.2L45.3,12.0L44.7,12.1L44.3,12.3L42.4,13.0L37.2,15.4L36.4,15.9L35.2,16.5L33.6,17.7L32.4,18.2L28.0,21.7L26.2,23.3L23.8,25.7L19.9,30.5L19.8,30.8L19.2,31.5L17.5,34.0L14.9,38.7L14.4,40.0L13.9,41.0L13.6,41.9L12.9,43.6L11.5,47.7L10.9,50.0L10.8,50.9L10.5,51.9L10.0,54.7L9.5,59.6L9.5,65.2L10.0,71.2L10.4,72.7L10.4,73.4L10.7,74.5L10.9,75.8L11.7,78.7L12.1,79.7L12.3,80.7L12.7,81.4L13.4,83.8L13.9,84.5L14.9,87.2L17.2,91.2L17.4,91.9L17.8,92.2L18.3,93.3L19.9,95.5L20.6,96.6L23.7,100.4L25.9,102.7L29.1,105.7L32.2,108.2L36.1,110.8L41.2,113.7L46.6,115.9L47.9,116.2L48.5,116.6L50.7,117.1L51.5,117.4L57.1,118.5L60.6,118.9L66.8,119.1L67.7,118.9L71.4,118.8L76.7,117.9L77.6,117.5L78.8,117.4L79.3,117.1L80.9,116.8L86.4,114.8L91.0,112.5L96.3,109.1L98.9,107.2L101.2,105.1L105.4,100.9L108.1,97.6L108.3,97.1L109.5,95.6L110.1,94.5L110.7,93.8L113.7,88.3L115.3,84.4L116.7,80.1L116.8,79.1L117.5,77.1L117.8,74.9L118.0,74.5L118.2,72.7L118.5,71.1L118.5,70.0L118.7,68.3L118.7,62.5L118.4,58.4L117.3,52.1L116.2,48.2L114.1,42.6L113.2,41.1L113.1,40.5L112.2,38.7L110.1,35.1L107.5,31.5L106.9,30.8L106.7,30.4L104.8,28.4L104.4,27.7L101.2,24.4L99.6,23.0L98.4,22.1L97.6,21.2L94.1,18.7L89.1,15.7L87.0,14.8L85.5,14.0L79.4,11.7L74.3,10.3L69.4,9.5L64.7,9.2L58.6,9.2L55.5,9.6L54.6,9.8Z M59.0,18.6L64.7,18.6L65.3,18.7L67.7,18.8L71.6,19.4L75.7,20.3L78.9,21.4L82.8,23.0L85.5,24.4L90.4,27.5L93.4,30.0L97.4,33.9L100.1,37.2L102.5,40.8L102.9,41.5L103.2,41.8L105.5,46.3L106.5,49.3L107.0,50.5L107.9,53.5L108.3,55.3L108.4,55.6L108.6,57.0L108.8,57.7L109.2,60.6L109.2,61.9L109.3,62.7L109.3,66.8L109.0,71.4L108.6,73.2L108.4,74.6L107.0,79.8L106.6,80.5L106.2,81.9L105.4,83.5L105.2,84.2L104.7,84.9L103.5,87.5L102.7,88.6L102.4,89.3L101.5,90.7L98.7,94.3L95.1,98.1L91.8,100.9L87.6,103.7L82.4,106.4L80.8,106.9L80.0,107.3L79.2,107.5L78.1,108.0L76.0,108.5L75.7,108.6L74.4,108.9L73.8,109.1L72.3,109.3L71.2,109.6L68.4,109.8L66.7,110.0L62.3,110.0L59.6,109.9L57.9,109.6L56.2,109.2L55.7,109.2L54.3,108.8L53.4,108.7L48.8,107.3L48.1,106.9L47.6,106.8L46.3,106.2L45.9,106.1L44.0,105.2L43.6,104.9L42.7,104.5L38.5,102.0L36.3,100.2L36.1,100.1L34.9,99.1L34.3,98.7L31.4,95.9L28.3,92.4L26.4,89.7L25.4,87.8L24.2,85.9L22.8,83.0L21.9,81.4L21.8,80.8L21.5,80.4L21.3,79.7L20.4,77.4L20.3,76.8L20.1,76.5L19.9,75.3L19.6,74.4L19.0,71.5L19.0,70.6L18.5,67.2L18.4,60.0L19.0,55.3L19.6,52.5L20.9,48.1L23.3,42.7L25.1,39.4L27.4,36.0L30.1,32.8L30.9,32.0L31.0,31.8L34.0,28.9L37.6,26.2L39.4,25.1L39.8,24.8L41.8,23.8L43.3,22.9L47.0,21.3L48.2,21.0L48.3,20.8L51.0,20.2L51.4,19.9L52.8,19.7L53.4,19.5L54.7,19.3L55.5,19.0L56.4,19.0Z" fill="#000" fill-rule="evenodd"/>
</svg>