<svg xmlns="http://www.w3.org/2000/svg" viewBox="0 0 128 128" width="128" height="128">
  <path d="M27.8,55.1L27.9,55.4L28.2,55.3L28.1,55.0Z M79.9,16.8L79.4,16.9L74.4,21.9L73.8,22.3L62.4,33.8L60.7,35.4L59.1,37.1L58.4,37.6L54.6,41.5L50.7,45.2L49.8,46.3L46.6,49.5L43.7,52.2L43.3,52.8L42.1,53.9L41.0,54.6L39.8,54.3L38.0,53.4L34.3,51.0L31.2,48.5L27.9,45.2L25.1,41.5L23.4,38.5L23.0,37.3L22.6,36.8L22.0,35.0L21.5,33.0L21.5,31.7L21.3,31.4L21.1,30.0L20.9,29.7L20.6,29.7L20.3,30.2L19.5,32.2L19.4,33.0L19.1,33.7L19.0,34.4L18.6,35.9L18.2,39.6L18.2,43.6L18.7,46.8L19.6,51.1L20.1,52.8L20.4,53.2L20.3,53.5L19.7,53.4L18.5,52.4L16.0,50.0L15.0,48.8L13.7,46.7L12.4,44.2L12.0,43.0L11.7,42.6L11.1,40.1L10.6,40.0L10.5,40.2L9.7,42.8L9.4,44.9L9.2,46.8L9.2,50.2L9.8,54.9L10.3,56.7L10.6,57.2L10.6,57.6L11.2,59.4L13.2,63.5L15.5,66.9L17.3,68.9L19.4,70.9L21.5,72.6L24.1,74.2L24.4,74.6L24.3,75.2L23.1,77.2L22.0,79.7L21.4,81.4L21.3,82.0L21.0,82.4L20.4,85.5L20.3,89.4L20.6,92.9L20.9,93.6L21.2,95.4L22.0,97.9L23.0,100.0L23.5,100.9L25.1,103.2L26.9,105.2L28.4,106.4L30.7,108.0L31.3,108.3L31.9,108.7L33.4,109.4L35.1,109.9L35.5,110.1L37.0,110.4L38.1,110.7L39.7,110.9L42.7,110.9L44.5,110.7L45.6,110.4L47.0,110.2L50.5,109.0L52.0,108.2L53.9,106.9L56.0,104.8L56.8,103.9L58.0,101.9L59.3,99.4L59.8,98.0L60.5,95.1L60.8,91.4L60.8,89.9L60.7,89.5L60.2,89.4L54.6,89.3L54.2,89.5L54.2,89.8L54.2,92.9L54.2,93.8L53.6,96.0L52.6,98.5L50.9,100.7L49.7,101.8L48.1,102.7L46.0,103.5L44.3,103.8L43.5,104.1L41.7,104.1L39.2,103.6L37.7,103.0L35.5,101.8L34.6,101.0L32.9,99.2L31.4,96.5L30.9,95.0L30.6,93.1L30.6,89.9L30.7,89.4L30.9,87.4L31.3,86.1L32.2,83.5L32.6,82.9L32.8,82.3L34.0,80.5L36.1,78.0L37.8,76.5L38.6,76.1L63.5,76.1L63.9,76.2L64.1,76.4L64.2,76.8L64.0,111.0L64.4,111.5L64.7,111.6L66.5,111.6L68.2,111.4L74.4,111.4L75.0,111.2L75.3,111.0L75.4,102.1L75.4,99.5L75.6,81.8L75.5,77.2L75.7,76.4L76.0,76.2L77.6,76.1L78.5,76.2L78.9,76.8L78.8,96.6L78.7,103.7L78.7,111.0L79.3,111.3L89.4,111.2L89.7,110.9L89.9,108.7L89.9,100.3L90.1,96.1L90.1,77.2L90.2,76.5L90.6,76.3L92.4,76.2L93.0,76.4L93.3,76.8L93.2,110.6L93.5,111.2L94.1,111.3L103.9,111.2L104.3,110.8L104.3,110.3L104.4,106.7L104.5,77.2L104.7,76.6L105.0,76.3L107.3,76.3L107.7,76.8L107.9,77.4L107.7,85.8L107.7,110.8L108.2,111.2L118.2,111.2L118.7,110.8L119.0,68.1L118.6,65.8L118.5,64.1L118.3,63.3L118.2,62.2L116.9,57.9L116.4,56.9L115.0,54.3L113.6,52.3L112.2,50.5L109.0,47.4L106.4,45.7L104.6,44.6L104.0,44.5L102.3,43.6L101.4,43.5L100.9,43.1L99.8,43.0L98.9,42.6L97.7,42.5L97.3,42.4L95.9,42.3L95.4,42.1L91.5,41.9L86.3,42.0L80.4,41.9L80.1,41.5L79.9,38.2L80.2,17.3Z M55.5,53.2L56.4,53.2L57.0,53.4L57.8,54.2L58.0,54.9L58.0,56.2L57.6,56.7L57.0,57.2L56.2,57.6L55.5,57.6L54.7,57.2L54.2,56.6L53.8,55.6L53.8,54.7L54.6,53.6Z M12.3,50.9L12.5,50.7L12.8,50.7L14.1,52.4L15.9,54.4L19.9,58.2L23.0,60.5L26.7,62.7L30.6,64.6L30.8,64.6L34.5,66.0L35.5,66.2L36.6,66.6L37.8,66.8L38.5,67.0L39.6,67.1L41.3,67.5L45.2,67.9L45.5,68.3L38.4,75.4L37.8,75.6L36.2,75.4L35.4,75.1L34.6,75.0L33.5,74.6L32.8,74.5L32.1,74.1L31.3,74.1L29.8,73.5L29.3,73.2L27.9,72.6L24.2,70.4L21.2,68.1L18.7,65.5L17.1,63.2L16.6,62.6L14.8,59.4L13.6,56.6L13.6,56.3L12.8,53.6Z M21.1,40.8L21.3,40.8L21.7,41.3L22.1,42.1L25.3,46.8L27.7,49.6L29.7,51.6L30.6,52.3L31.5,53.3L33.1,54.3L33.7,54.9L34.6,55.3L35.1,55.7L37.4,56.9L38.1,57.4L38.1,57.7L37.5,58.4L35.6,60.4L34.0,61.6L33.5,61.7L32.9,61.4L32.4,61.3L31.3,60.8L29.5,59.5L28.3,58.6L26.9,57.2L25.1,54.7L23.8,52.5L23.8,52.3L23.5,51.7L22.0,47.9L21.1,43.5Z" fill="#000" fill-rule="evenodd"/>
</svg>