<svg xmlns="http://www.w3.org/2000/svg" viewBox="0 0 128 128" width="128" height="128">
  <path d="M41.5,10.3L40.2,11.3L39.9,11.7L39.6,12.5L38.4,14.3L36.0,19.0L34.8,20.8L33.7,23.1L33.3,23.6L29.5,30.9L28.3,32.7L27.6,33.4L26.5,33.8L24.3,33.8L23.0,33.5L21.4,33.5L21.0,33.9L21.1,35.7L21.9,37.6L22.6,38.6L24.8,40.7L24.9,41.6L23.5,46.5L23.2,47.0L22.7,48.8L22.5,49.9L22.0,51.0L20.8,58.4L20.8,61.2L21.1,64.8L21.6,66.8L22.3,68.5L23.9,71.0L25.3,72.4L26.6,73.3L28.5,74.2L32.4,75.2L34.3,75.3L34.7,74.8L34.8,72.7L35.1,71.5L35.4,70.9L35.4,69.9L34.9,69.2L33.3,68.6L31.0,67.3L29.9,66.1L29.4,65.1L29.0,63.5L28.9,60.6L29.7,56.4L29.9,56.0L30.9,53.0L32.2,50.3L32.6,49.8L33.3,48.3L34.4,46.6L35.4,44.8L36.7,42.8L37.3,42.8L37.3,43.6L36.7,45.1L36.7,46.1L37.1,46.4L43.2,46.6L44.1,46.9L44.7,47.6L45.0,48.2L45.2,49.3L45.3,69.6L45.0,79.2L44.4,79.7L42.0,79.8L15.1,79.7L13.5,79.9L11.8,80.8L10.8,81.9L10.3,83.0L10.1,84.2L10.3,86.2L10.9,86.9L11.3,87.0L15.2,87.0L16.1,87.2L17.2,87.8L18.1,88.9L19.1,91.0L19.9,93.8L20.2,94.2L20.2,94.6L20.5,95.1L22.1,100.1L22.5,100.9L22.7,101.8L23.1,102.4L24.3,106.1L25.1,107.9L25.7,108.8L26.9,110.0L28.1,111.0L30.2,112.1L30.7,112.7L30.9,113.4L30.9,114.3L30.7,114.8L30.7,115.7L30.5,116.6L30.5,117.9L30.7,118.3L31.1,118.7L34.6,118.8L35.8,118.4L37.0,117.2L37.1,116.8L38.5,114.5L39.3,113.7L40.2,113.4L70.0,113.4L71.3,113.3L86.9,113.3L95.7,113.4L96.6,113.8L97.3,114.4L98.8,117.2L100.0,118.5L101.5,118.9L103.8,118.9L104.9,118.7L105.2,118.3L105.2,117.1L104.9,115.1L105.1,113.8L105.8,113.0L107.2,112.1L108.4,110.9L109.1,109.7L109.4,108.5L110.8,99.6L111.6,92.9L112.4,88.9L112.9,87.8L113.7,87.2L114.2,86.9L115.3,86.7L117.0,86.7L117.4,86.6L118.0,86.3L118.2,85.4L118.1,83.4L117.5,81.8L117.1,81.1L116.4,80.6L114.9,79.8L104.3,79.8L103.2,79.7L102.7,79.4L102.6,78.6L103.1,77.7L103.7,75.8L103.8,73.6L103.7,71.7L103.3,69.5L101.8,65.2L100.4,62.8L100.3,62.4L99.6,61.8L98.0,61.3L97.2,60.8L95.8,60.3L95.2,59.7L94.9,58.7L94.9,57.8L95.1,57.3L95.6,56.9L97.0,56.9L96.9,56.2L96.2,55.0L95.8,54.6L95.7,54.1L94.3,52.0L93.6,50.5L92.2,48.4L92.0,47.9L91.6,47.5L91.4,47.0L90.6,46.0L88.8,42.8L87.6,41.4L87.4,40.8L86.8,40.1L83.9,35.9L83.5,35.5L79.6,29.9L78.9,29.2L77.4,27.2L76.9,26.2L75.3,24.3L74.8,23.5L71.1,19.0L66.6,12.9L64.3,10.7L62.7,9.9L60.0,9.4L53.9,9.3L50.2,9.5L44.4,9.5L42.7,9.8Z M46.2,22.3L46.6,22.3L47.0,22.5L47.7,23.1L47.9,23.7L47.9,24.3L47.7,24.9L47.3,25.3L46.6,25.6L46.1,25.6L45.5,25.3L44.7,24.3L44.7,23.5L45.0,23.0L45.5,22.6Z" fill="#000" fill-rule="evenodd"/>
</svg>