<svg xmlns="http://www.w3.org/2000/svg" viewBox="0 0 128 128" width="128" height="128">
  <path d="M23.4,9.2L23.1,9.6L23.0,11.2L23.3,12.7L23.3,14.5L23.8,17.3L24.3,19.6L25.7,23.2L27.3,25.5L28.5,27.9L29.3,29.0L29.7,30.0L29.7,30.3L29.4,30.5L28.7,30.5L26.9,30.0L25.3,30.4L24.2,31.5L23.7,33.0L23.4,33.5L22.9,34.5L22.4,35.0L20.9,35.9L20.2,36.1L18.7,36.2L16.7,35.9L15.5,36.1L14.6,36.6L14.4,37.0L14.0,38.1L13.9,39.1L14.6,40.2L15.4,40.9L17.1,41.5L18.9,41.5L20.7,41.0L21.6,40.5L22.2,40.5L23.0,40.2L23.8,40.2L25.9,40.6L26.3,40.9L28.0,41.7L29.4,42.9L30.1,43.9L30.5,44.7L30.7,46.1L30.7,48.1L30.5,49.9L30.0,51.2L28.3,52.8L26.2,54.1L18.1,58.2L17.8,58.5L16.2,59.5L14.3,61.4L13.3,63.3L12.7,65.2L12.6,66.4L12.6,68.7L12.8,69.5L13.6,70.2L14.2,70.3L14.8,70.0L15.1,69.7L15.4,69.0L15.2,66.0L15.6,65.1L16.5,63.5L17.3,62.7L18.5,61.9L19.4,61.5L21.6,61.0L27.2,61.0L27.8,61.2L29.6,61.6L30.0,61.9L30.0,62.0L29.6,62.4L28.5,62.7L26.0,63.7L25.5,64.0L24.9,64.2L22.6,65.6L20.7,67.1L19.4,68.6L18.9,69.4L18.0,70.4L17.6,71.6L17.1,73.5L17.2,76.7L18.0,78.8L18.6,79.3L19.4,79.3L20.1,79.1L21.1,78.0L21.5,77.3L21.5,76.7L21.1,75.8L21.1,74.3L21.3,73.1L21.7,71.9L22.3,70.8L23.8,68.9L24.6,68.2L26.0,67.3L28.5,66.8L31.7,66.9L33.5,67.2L35.0,67.3L35.8,67.6L36.5,67.7L37.7,68.2L39.9,70.5L40.5,71.9L40.7,72.8L40.6,74.7L39.8,76.7L38.2,79.3L36.6,81.2L35.3,83.9L34.4,87.3L34.3,89.9L34.8,92.4L35.8,95.2L36.3,96.2L38.0,100.3L38.9,102.0L39.3,103.6L39.8,104.2L41.0,106.8L41.5,107.5L42.0,109.0L43.2,111.7L43.2,112.0L43.0,112.3L42.7,112.5L41.7,112.6L38.8,112.6L35.3,112.3L33.6,112.4L30.9,112.2L25.9,112.0L22.5,112.2L21.1,112.6L20.2,113.5L19.1,115.1L18.6,116.6L18.7,117.0L18.9,117.1L19.3,117.1L20.7,115.7L21.6,115.3L22.5,115.1L24.7,115.1L24.9,115.2L25.0,115.7L24.2,116.7L22.1,118.4L22.0,118.9L22.2,119.0L22.6,119.1L23.6,118.8L25.3,118.5L30.2,118.4L31.2,118.3L35.0,118.2L54.2,118.3L63.5,118.5L64.1,118.2L63.8,115.7L63.8,113.1L64.0,111.3L64.0,105.5L64.2,105.0L64.2,104.3L64.2,104.2L64.7,104.1L65.4,104.6L67.1,107.2L67.8,108.7L69.6,111.7L70.4,113.4L71.2,114.4L72.4,116.6L73.3,117.8L74.0,118.4L74.5,118.8L77.0,118.9L80.0,118.5L89.9,118.5L94.0,118.7L102.8,118.8L109.9,118.7L111.2,118.9L115.7,118.8L115.7,118.5L115.6,118.3L113.3,116.3L111.5,115.3L108.8,114.4L104.6,113.3L103.1,112.6L101.8,112.5L99.5,111.7L98.5,111.5L97.1,110.9L94.9,110.3L94.0,109.9L93.2,109.7L92.6,109.4L91.8,109.2L90.8,108.7L89.6,108.5L87.9,107.8L86.7,107.4L85.1,106.8L83.8,106.0L83.2,104.6L83.2,104.1L82.8,102.9L82.7,102.0L82.3,100.3L82.2,98.0L81.9,97.5L81.9,96.4L81.5,95.4L80.8,92.2L80.6,91.7L80.0,89.5L79.6,88.7L79.5,87.9L79.0,86.5L77.8,83.8L77.7,83.3L77.3,82.5L77.3,82.3L76.7,81.0L76.0,80.1L75.6,79.1L72.8,75.9L70.4,73.7L69.8,73.4L67.9,71.8L65.5,70.1L63.8,69.4L61.9,68.1L60.3,67.3L58.9,66.1L57.6,65.3L57.1,64.9L54.0,63.0L52.8,62.1L52.4,62.0L51.4,61.0L49.4,59.5L48.6,58.7L46.9,57.4L46.0,56.1L44.7,54.9L42.9,52.2L42.6,51.6L41.9,50.5L40.5,47.4L39.8,46.3L39.5,45.5L38.8,44.2L38.2,42.7L37.5,41.5L36.9,39.9L36.6,39.4L36.3,38.5L35.8,37.2L35.5,36.2L35.2,35.4L35.0,32.3L35.3,31.4L35.9,30.3L39.5,27.0L41.9,24.3L42.0,23.8L43.2,21.9L43.4,21.1L44.4,19.0L46.4,13.4L46.5,12.5L46.0,12.5L43.0,15.4L42.2,15.9L39.6,18.5L39.3,19.1L38.2,20.2L37.1,21.7L35.6,24.4L34.9,26.2L34.6,28.2L34.4,28.8L33.4,29.8L33.1,30.0L32.6,30.0L32.0,29.2L31.4,25.4L30.8,23.8L30.7,22.9L30.3,22.0L29.9,20.1L28.6,16.3L28.0,15.2L26.8,13.4L25.6,10.9L24.2,9.3L23.7,9.1Z M50.7,98.1L51.3,98.1L52.2,99.1L52.7,100.2L53.2,101.0L53.6,102.2L56.1,107.1L57.0,108.3L58.2,110.6L58.2,111.0L57.9,111.3L56.2,111.3L55.1,111.1L51.3,110.9L50.8,110.8L50.5,110.4L50.1,108.8L50.2,100.9L50.5,98.5Z M63.8,73.3L63.8,75.7L64.0,76.2L63.9,84.1L63.7,85.1L63.6,86.4L63.1,88.2L62.7,89.0L61.8,90.0L60.5,90.9L58.9,91.6L56.5,92.0L53.0,92.0L52.6,91.8L50.8,91.7L49.0,91.1L47.2,90.0L46.5,89.4L45.6,88.4L44.7,87.0L43.8,84.5L43.6,81.8L43.3,80.0L43.3,74.5L43.4,73.7L43.7,73.4L44.5,73.0L45.4,73.0L45.7,73.2L46.0,73.8L46.1,75.5L46.1,81.4L46.8,84.2L47.6,85.9L48.9,87.5L50.4,88.4L51.4,88.8L53.2,89.2L54.8,89.2L58.2,88.5L58.9,88.1L60.4,86.7L61.3,84.5L61.6,83.5L61.7,79.0L61.5,77.1L61.4,73.5L61.7,73.0L62.2,72.8L63.3,72.9Z M28.2,34.0L28.5,34.3L28.5,34.8L28.2,35.1L27.8,35.3L27.3,35.3L26.8,34.9L26.8,34.5L27.0,34.2L27.8,34.0Z" fill="#000" fill-rule="evenodd"/>
</svg>