<svg xmlns="http://www.w3.org/2000/svg" viewBox="0 0 128 128" width="128" height="128">
  <path d="M41.8,18.7L40.9,21.1L40.3,22.2L39.5,24.3L38.8,25.8L38.2,27.5L38.7,27.8L46.5,27.9L48.0,28.1L48.8,28.1L50.3,28.8L51.6,30.0L52.5,32.1L52.7,33.3L52.4,36.0L52.0,37.4L51.1,39.2L49.6,43.4L49.0,44.5L48.5,46.0L47.4,48.5L47.2,49.2L46.7,50.1L45.9,52.6L45.5,53.1L45.3,53.9L44.3,56.0L43.5,58.1L43.2,58.6L43.0,59.3L41.5,62.6L41.2,63.7L40.5,65.0L40.5,65.2L39.3,67.8L38.5,70.1L37.2,72.9L37.2,73.2L34.2,80.0L34.1,80.5L33.5,81.8L33.1,83.1L32.1,85.0L30.3,89.8L29.6,91.0L27.6,96.3L26.6,98.5L26.0,100.1L25.6,100.8L25.5,101.3L25.1,102.1L25.0,102.5L24.6,103.2L24.1,104.7L22.6,108.3L22.6,108.5L20.9,112.3L20.0,114.9L19.2,116.6L18.7,117.8L18.7,118.1L19.2,118.3L27.4,118.3L27.9,118.1L28.5,117.3L30.0,114.0L30.2,113.2L30.5,112.5L30.6,111.9L31.0,111.4L31.5,110.3L31.6,109.7L31.8,109.5L32.0,108.8L32.4,108.2L33.5,105.3L33.8,104.7L33.9,104.2L34.2,103.7L34.8,102.1L35.7,100.4L35.8,99.7L36.2,99.2L36.7,97.2L37.5,95.7L38.2,93.9L38.5,93.4L39.1,91.6L39.8,90.2L40.0,89.5L40.8,88.0L40.8,87.7L41.5,86.4L41.6,86.0L42.8,84.1L44.2,82.3L46.4,80.0L50.1,77.7L51.6,77.2L52.8,76.5L54.0,76.3L54.9,75.9L55.8,75.8L57.2,75.3L60.2,74.7L65.5,74.6L67.5,74.9L70.1,75.6L70.5,75.9L71.4,76.1L72.8,76.9L73.7,77.0L73.9,77.3L75.3,77.9L80.2,81.0L83.3,83.8L83.6,83.9L85.6,85.9L87.3,88.4L88.2,89.4L89.6,91.5L90.3,93.1L91.0,94.0L91.4,95.0L93.0,97.8L93.4,98.7L95.2,102.3L95.6,103.5L96.5,105.2L96.7,106.1L97.0,106.4L98.2,109.9L98.6,110.7L99.3,112.9L99.4,113.5L99.7,114.1L100.0,115.6L100.9,118.6L101.2,118.9L103.5,119.1L107.8,119.1L109.4,118.8L109.6,118.6L109.5,117.5L109.0,115.7L108.8,115.3L108.6,114.1L107.8,112.2L107.8,111.6L107.5,111.2L107.2,110.0L107.0,109.9L106.3,107.8L106.0,107.2L105.8,106.4L105.1,104.8L104.9,104.1L104.7,103.7L104.5,102.9L104.2,102.3L103.7,100.8L103.2,100.1L102.6,98.5L101.6,96.7L101.3,95.8L100.5,94.4L100.3,93.8L99.4,92.4L98.4,90.3L97.9,89.7L96.8,87.8L94.6,84.6L91.8,81.4L91.5,80.8L89.8,78.9L86.8,76.1L82.4,72.8L78.5,70.5L77.1,69.9L76.4,69.4L73.7,68.4L72.9,68.0L72.6,68.0L71.9,67.6L70.5,67.4L67.9,66.6L64.0,66.1L60.4,66.1L59.8,66.3L58.7,66.3L54.5,67.1L53.9,67.3L51.7,67.8L49.7,68.6L49.3,68.6L49.1,68.4L49.1,67.9L49.7,66.2L50.1,65.7L50.6,64.2L50.9,63.7L51.6,61.8L52.0,61.0L52.1,60.5L52.4,60.0L52.6,59.2L53.3,57.8L53.5,57.2L53.8,56.7L53.9,56.2L54.7,54.7L54.8,54.0L55.6,52.7L56.3,50.6L56.7,49.9L56.7,49.6L57.1,49.0L58.1,46.4L59.4,43.6L60.7,40.3L62.3,36.7L62.4,36.2L63.0,35.1L63.7,33.1L64.1,32.3L64.2,31.9L64.6,31.3L65.5,28.9L66.3,28.4L67.0,28.2L85.0,28.4L89.7,28.4L93.0,28.5L94.4,28.4L104.5,28.7L104.7,28.4L105.2,27.1L105.7,26.2L106.0,25.1L106.8,23.7L108.1,20.3L108.0,19.8L107.7,19.7L100.1,19.5L100.1,18.9L100.3,18.6L100.5,17.7L100.7,17.5L100.9,16.7L101.2,16.1L101.4,15.2L101.6,15.0L101.9,14.0L102.1,13.7L102.3,13.0L102.6,12.6L102.8,11.7L103.1,11.3L103.2,9.9L102.9,9.7L101.9,9.6L95.3,9.6L94.9,9.9L94.6,10.9L93.9,12.1L93.4,13.6L92.6,15.4L91.3,18.7L90.7,19.2L86.0,19.1L85.2,18.9L85.1,18.6L85.5,18.1L85.6,17.5L85.8,17.1L86.1,16.1L86.7,14.9L87.0,14.0L87.3,13.6L87.5,12.9L88.3,11.2L88.7,10.2L88.7,9.7L88.5,9.5L83.2,9.4L80.0,9.4L79.0,11.0L77.9,14.1L77.5,14.9L77.0,16.3L76.8,16.6L76.0,18.7L75.6,19.0L73.4,19.1L71.2,19.0L70.6,18.8L70.3,18.5L70.7,17.1L71.2,15.6L71.3,15.5L71.7,14.2L72.0,13.7L72.5,12.0L72.9,11.4L73.3,10.4L73.3,9.4L71.8,9.2L69.6,9.3L65.4,9.1L64.0,9.2L63.6,9.6L63.5,10.3L62.6,12.0L62.1,13.6L60.9,16.2L60.8,17.0L60.0,18.3L59.7,18.6L51.1,18.7L42.4,18.4Z M57.3,20.5L58.4,20.4L59.4,20.7L60.7,21.7L61.2,22.7L61.3,24.6L61.1,24.8L61.1,25.2L60.9,25.6L60.0,26.4L59.2,27.0L57.8,27.1L57.0,26.9L55.6,26.0L54.8,24.8L54.7,23.3L54.9,22.7L55.3,21.9L55.9,21.2Z" fill="#000" fill-rule="evenodd"/>
</svg>