<svg xmlns="http://www.w3.org/2000/svg" viewBox="0 0 128 128" width="128" height="128">
  <path d="M54.8,9.2L54.4,14.3L54.3,18.2L54.1,18.5L54.1,20.8L53.9,22.3L53.9,25.1L53.6,27.6L53.6,29.1L53.5,29.6L53.4,31.9L53.2,32.4L53.2,33.6L53.5,34.5L53.8,34.9L54.8,35.6L56.5,36.4L58.5,36.9L59.2,37.2L63.2,37.3L65.2,37.2L67.1,36.9L69.1,36.4L69.6,36.2L70.5,36.1L72.2,35.7L75.0,35.7L75.7,35.9L76.5,36.2L77.2,37.2L77.6,38.0L77.6,44.3L77.3,47.3L76.2,50.0L75.4,51.0L74.6,51.5L73.5,51.9L71.5,52.2L65.1,52.2L62.6,51.9L59.3,51.7L58.3,51.5L56.1,51.3L55.2,51.0L50.6,50.6L48.3,50.0L46.9,49.9L46.1,49.6L44.6,49.4L43.2,48.9L40.4,48.6L39.7,48.4L37.7,48.0L37.5,47.9L35.7,47.7L31.7,47.8L29.9,48.6L28.4,49.6L27.7,50.2L26.7,52.3L26.6,52.8L26.2,53.8L25.8,56.3L25.7,58.3L25.7,60.7L25.8,61.6L25.7,62.3L26.0,63.4L26.2,66.5L26.7,69.3L26.7,70.4L26.9,70.9L26.9,71.7L27.4,74.7L27.6,77.4L27.6,79.7L27.4,82.4L27.0,84.1L26.1,86.4L26.0,87.7L26.1,88.4L26.1,89.4L26.7,94.2L26.7,95.1L27.0,97.1L27.0,99.0L27.4,100.8L27.4,102.1L27.6,103.0L27.8,106.1L28.0,107.4L28.0,108.5L28.3,109.5L28.4,111.2L28.7,112.5L28.8,113.7L29.7,118.2L30.1,118.5L33.7,118.8L40.3,118.8L40.7,118.5L40.7,117.7L40.0,112.2L40.0,110.5L39.6,105.7L39.6,104.2L39.7,103.6L40.0,103.4L40.3,103.3L40.7,103.7L41.1,104.4L41.2,105.0L42.1,106.8L42.6,108.3L44.0,111.5L44.5,113.2L45.3,114.7L46.4,117.6L46.9,118.5L47.3,118.9L48.0,119.0L52.7,119.2L58.8,119.2L59.1,119.1L59.5,118.8L59.4,118.2L58.8,116.9L58.5,115.9L56.9,111.6L55.9,108.2L54.5,104.4L53.9,102.2L53.8,101.1L52.5,97.2L52.1,95.6L51.9,95.0L51.8,93.3L51.5,92.4L51.5,88.7L52.0,84.7L52.4,83.5L52.7,83.1L52.8,82.6L53.1,82.1L53.8,81.6L54.7,81.6L55.6,81.8L56.6,82.3L58.8,82.8L59.1,82.8L60.2,83.2L61.4,83.4L63.8,84.0L64.5,84.0L67.1,84.4L67.8,84.4L70.0,84.7L70.7,85.2L71.0,87.5L71.0,89.1L71.2,89.9L71.4,95.4L71.2,96.1L71.3,102.0L71.2,103.5L71.2,105.3L70.9,107.3L70.9,111.0L70.8,111.8L70.9,118.5L71.2,118.9L72.4,119.1L82.3,119.0L83.2,118.9L94.7,118.7L95.3,118.5L95.6,118.1L95.4,116.9L95.3,108.9L95.1,106.5L95.2,104.5L95.0,96.5L95.0,91.0L95.1,90.4L95.0,89.1L95.3,85.4L96.0,81.6L96.0,80.4L96.4,79.0L96.4,78.3L96.7,77.4L97.3,73.9L97.5,73.0L97.6,71.0L97.9,69.5L97.9,68.8L98.1,68.0L98.0,66.0L98.2,65.5L98.3,63.1L98.4,62.0L98.5,56.5L98.4,53.3L98.2,52.7L98.3,49.9L98.2,49.2L98.0,37.6L98.8,36.7L99.6,36.5L100.6,36.4L101.3,36.2L102.0,36.1L102.3,35.9L102.5,35.6L102.4,34.4L102.7,30.8L102.5,30.2L102.4,28.2L102.3,27.6L102.2,26.5L101.7,26.0L99.8,25.5L99.0,25.2L98.3,25.1L96.0,24.2L95.6,23.8L94.2,20.6L92.7,18.5L91.3,16.7L89.5,15.3L86.0,13.5L82.2,12.6L65.2,12.6L60.0,11.6L56.6,10.1L55.2,9.1Z M59.5,16.8L60.1,16.8L61.4,17.7L63.2,18.5L65.2,19.1L69.5,19.2L74.1,18.9L77.2,18.9L77.9,19.1L80.0,19.2L82.3,19.6L82.9,19.9L83.3,20.0L85.6,21.2L87.9,23.5L87.9,23.7L90.8,26.4L91.8,26.9L94.7,28.8L95.9,29.3L96.4,29.8L96.6,30.1L96.6,31.0L96.3,31.4L95.8,31.9L94.7,32.2L93.6,32.2L91.8,32.5L91.3,32.7L90.8,33.2L90.6,36.0L90.7,38.2L90.6,39.2L90.5,43.0L90.6,45.3L90.6,46.9L90.5,48.3L90.6,55.2L90.5,65.4L90.2,68.5L90.2,69.8L89.9,70.4L89.8,73.0L89.6,74.0L89.0,76.2L88.3,81.1L88.2,83.7L88.0,84.2L87.7,89.8L87.8,101.1L88.0,102.1L88.2,104.0L88.2,106.3L88.5,108.5L88.6,110.2L88.8,111.0L88.9,111.9L88.6,112.7L88.2,113.2L87.8,113.3L87.2,113.2L86.6,112.6L86.3,111.7L86.3,110.8L85.9,110.0L85.2,108.9L84.7,106.6L84.6,101.8L84.5,101.1L84.4,93.7L84.3,92.7L84.2,92.2L84.2,88.5L84.0,86.0L83.9,85.2L83.9,81.6L83.7,80.1L83.5,80.0L83.2,80.3L83.0,81.1L82.4,82.4L82.1,83.7L81.7,84.5L80.6,89.4L80.6,91.1L80.4,91.8L80.4,95.6L80.2,96.5L80.2,99.9L80.1,102.1L80.1,107.0L80.4,112.2L80.2,112.9L79.9,113.2L79.2,113.3L78.9,113.2L78.5,112.7L78.2,110.8L77.4,109.1L77.2,108.2L77.3,106.5L77.2,106.1L77.2,104.6L77.4,104.2L77.3,101.5L77.6,92.2L77.7,90.8L77.7,88.8L77.9,87.4L78.0,81.0L78.2,79.1L78.2,78.3L78.1,77.9L77.6,77.6L75.3,77.6L74.0,77.4L70.0,77.2L68.2,76.8L67.2,76.7L66.0,76.4L64.4,76.2L62.1,75.5L59.9,75.2L59.0,75.0L58.5,74.7L56.7,74.4L55.6,73.9L54.6,73.7L52.7,72.9L51.8,72.6L50.8,72.4L50.0,72.1L49.4,72.2L49.1,72.4L48.5,73.7L47.4,76.9L46.8,78.3L46.7,79.1L46.4,79.6L45.1,83.4L45.1,84.2L44.7,85.5L44.6,87.0L44.4,87.5L44.4,90.8L44.8,93.6L45.8,97.0L46.3,99.8L46.8,101.3L47.0,102.1L48.3,105.2L48.9,107.1L49.3,107.7L49.7,108.8L49.9,109.2L50.6,111.3L51.1,112.1L51.2,112.9L50.8,113.4L50.1,113.5L49.7,113.2L49.1,112.5L48.6,111.6L47.7,110.6L47.4,110.0L47.1,108.7L46.4,107.2L46.1,106.0L45.5,104.8L45.3,103.8L44.7,102.5L44.2,101.1L43.8,100.3L43.6,99.5L43.4,99.3L42.8,97.0L42.5,96.4L41.7,93.6L41.7,93.3L41.2,92.1L41.1,91.4L40.7,90.2L40.4,87.5L40.4,86.0L40.7,84.9L41.1,82.7L41.1,78.7L40.6,76.2L40.7,73.9L40.4,72.7L40.2,72.7L39.6,75.8L38.7,78.3L38.4,79.3L37.2,82.1L35.1,86.4L34.4,88.2L34.2,89.6L34.0,90.2L33.8,96.9L33.9,98.9L34.1,100.0L34.1,101.5L34.3,102.1L34.4,104.9L34.8,108.4L34.8,109.7L35.1,110.7L35.1,111.7L34.7,112.2L34.2,112.5L33.9,112.5L33.5,112.2L33.4,112.0L33.0,110.8L32.6,110.1L32.3,109.3L32.3,107.8L32.1,107.1L32.3,103.8L32.1,99.0L31.6,97.0L31.3,94.1L31.3,93.0L31.0,91.5L31.0,89.7L31.4,87.6L31.7,86.8L31.8,85.8L32.1,85.1L32.3,83.8L32.7,81.8L32.9,79.4L32.7,74.7L32.6,74.0L32.4,70.4L31.6,65.6L31.6,64.8L31.2,62.0L31.2,59.6L31.4,58.8L32.4,57.3L33.1,56.8L34.0,56.6L34.5,56.3L36.1,56.0L36.8,56.0L37.1,56.1L38.7,56.2L40.8,56.8L41.2,57.0L45.0,57.6L45.6,57.9L46.5,58.0L47.5,58.3L49.4,58.4L50.6,58.7L52.3,58.8L54.0,59.2L57.0,59.4L57.5,59.6L58.2,59.6L60.5,60.0L61.8,60.0L63.8,60.2L67.4,60.2L68.4,60.0L72.8,60.1L76.3,59.6L76.9,59.3L77.8,59.2L78.2,58.9L78.7,58.8L79.6,58.3L80.7,57.3L81.7,55.8L82.4,54.4L82.7,53.3L83.0,52.6L83.9,47.5L83.9,45.3L84.5,39.9L84.5,36.3L84.2,33.1L83.8,31.9L83.1,30.7L81.6,29.5L80.7,28.9L79.7,28.8L79.0,28.5L77.8,28.3L75.7,28.3L74.2,28.5L71.4,29.2L70.2,29.4L69.9,29.6L67.7,30.1L66.0,30.2L63.9,30.1L62.3,29.6L60.5,28.8L58.8,27.2L58.7,27.0L58.7,26.6L59.1,26.3L60.0,26.5L62.3,27.5L64.3,27.8L66.4,27.5L67.8,26.9L69.7,26.6L70.1,26.4L71.2,26.2L71.6,25.9L72.4,25.9L73.6,25.5L75.1,25.3L75.7,25.1L79.9,24.8L81.7,25.1L83.7,25.9L84.2,25.9L84.2,25.5L83.3,24.6L81.3,23.1L79.9,22.5L78.8,22.4L78.1,22.2L74.1,22.1L72.3,21.9L67.2,22.0L64.5,21.5L63.8,21.2L62.8,20.8L61.6,20.2L59.6,18.2L59.3,17.8L59.1,17.1Z" fill="#000" fill-rule="evenodd"/>
</svg>