<svg xmlns="http://www.w3.org/2000/svg" viewBox="0 0 128 128" width="128" height="128">
  <path d="M37.3,58.5L35.3,57.3L33.6,56.8L32.5,56.8L31.0,57.0L30.3,57.3L29.9,57.4L29.0,57.9L28.0,58.8L27.4,59.5L26.8,60.5L26.3,62.3L26.2,63.7L26.4,65.2L26.8,66.1L27.7,66.9L29.2,67.4L30.3,67.4L30.7,67.2L31.3,67.1L31.6,66.8L31.6,66.3L31.4,66.1L30.3,65.7L29.6,65.1L29.2,64.1L29.2,63.4L29.6,62.4L30.4,61.6L30.7,61.5L31.7,61.5L32.4,62.0L33.6,63.4L34.2,63.6L38.7,63.3L39.2,62.7L39.1,61.5L38.6,60.3Z M88.6,58.8L88.2,59.4L87.3,61.4L87.4,62.6L87.8,63.0L89.1,63.0L92.7,62.9L93.1,62.7L94.0,61.7L94.8,61.1L96.0,61.0L96.6,61.2L97.3,62.0L97.7,62.6L97.7,63.5L97.5,64.2L96.9,64.9L96.2,65.3L95.7,65.4L95.1,65.7L95.0,66.1L95.4,66.5L95.9,66.7L96.8,66.9L97.9,66.6L99.3,65.9L100.0,65.2L100.4,64.5L100.6,63.5L100.6,61.9L100.5,61.4L100.0,59.9L99.4,59.0L98.5,58.0L96.7,56.7L95.4,56.4L93.9,56.2L92.1,56.5L90.0,57.6Z M29.0,54.3L27.5,55.1L26.7,55.3L25.4,56.1L24.5,57.0L23.3,58.4L23.1,59.2L21.8,61.2L21.7,62.1L21.4,62.9L21.1,64.6L21.1,66.4L21.4,67.9L21.9,69.3L22.5,70.4L23.6,71.9L25.1,73.5L25.2,73.5L26.8,74.6L27.4,74.7L27.7,75.0L28.6,75.3L29.9,75.6L31.5,75.6L33.0,75.8L35.3,75.4L35.7,75.2L36.5,75.0L38.0,74.2L39.0,73.5L41.1,71.2L42.1,69.8L43.0,67.3L43.0,65.9L42.8,65.6L42.4,65.4L41.2,65.2L39.6,65.1L38.8,65.3L36.0,65.4L35.5,65.5L35.0,66.0L34.5,67.0L33.4,68.1L32.7,68.6L31.8,69.1L31.1,69.2L29.7,69.2L27.9,68.8L26.8,68.2L25.8,67.2L25.0,65.8L24.5,63.6L24.6,62.3L24.9,60.7L25.2,59.9L25.7,59.2L25.9,58.6L26.6,57.6L27.2,57.1L27.6,56.9L29.0,55.9L29.8,55.7L30.3,55.3L31.1,55.2L31.8,54.7L31.8,54.4L31.4,54.1L29.9,54.1Z M96.9,53.3L95.5,53.3L95.1,53.5L95.0,53.9L95.4,54.3L98.1,55.3L100.0,56.6L101.2,58.0L101.8,58.9L102.3,60.2L102.7,62.3L102.7,63.4L102.5,64.2L101.8,65.9L100.5,67.3L99.9,67.8L98.8,68.4L97.0,68.6L96.6,68.8L95.9,68.8L94.4,68.4L93.3,67.7L91.7,66.1L90.8,65.0L90.2,64.7L84.2,64.7L83.8,64.9L83.4,65.2L83.3,66.2L83.5,67.4L84.2,69.2L84.5,69.4L85.3,71.0L86.3,72.1L86.6,72.3L87.7,73.3L90.1,74.7L90.7,74.7L91.1,75.0L92.9,75.2L93.6,75.4L95.7,75.4L97.7,75.0L98.9,74.7L100.5,73.9L102.4,72.6L104.0,70.8L104.3,70.3L104.8,69.6L105.5,68.1L105.7,67.2L106.0,66.4L106.1,63.8L105.7,62.1L104.7,59.5L103.6,57.8L102.4,56.4L100.7,54.9L99.0,54.0Z M118.7,55.9L118.3,54.5L117.9,53.6L117.5,51.9L117.1,50.6L115.9,48.6L115.8,47.9L114.4,45.6L114.2,45.2L113.1,44.1L112.4,43.2L110.5,41.3L105.3,37.3L102.2,35.9L100.3,35.3L98.8,34.6L97.0,34.3L96.2,34.0L94.9,34.0L94.2,33.7L92.8,33.6L88.3,33.6L86.5,33.7L85.7,34.0L83.8,34.1L82.2,34.8L79.5,35.7L78.0,36.4L76.9,37.2L76.2,37.4L75.2,38.1L73.3,39.7L72.4,40.7L71.9,40.9L70.9,42.2L70.3,42.7L69.2,44.2L68.8,45.1L67.5,47.0L65.7,51.4L65.3,52.6L64.4,56.6L64.1,60.7L64.1,63.4L64.3,65.2L64.2,69.5L64.4,70.1L64.5,81.7L64.4,82.3L64.2,82.5L63.6,82.8L63.2,82.8L62.6,82.6L62.3,82.3L62.1,81.0L62.1,76.6L62.1,73.9L61.9,72.8L62.0,69.4L61.7,58.4L61.4,57.3L61.3,55.5L60.9,53.7L60.3,52.2L60.1,50.9L59.1,48.8L58.6,48.3L56.9,45.3L54.8,42.8L52.8,40.8L49.6,38.4L47.8,37.3L47.4,37.2L45.8,36.3L44.6,35.9L40.6,34.7L36.8,34.3L33.9,34.3L30.7,34.9L26.9,36.2L26.3,36.6L25.2,37.0L23.7,37.7L23.3,38.1L22.3,38.6L21.8,39.0L20.9,39.4L19.9,40.3L17.9,41.7L15.2,44.4L14.8,45.1L13.3,46.8L12.1,48.8L11.4,50.9L11.0,51.5L10.6,52.8L10.3,54.5L9.7,56.1L9.3,59.0L9.2,64.2L10.0,67.9L10.6,69.6L11.7,71.6L15.3,76.3L16.3,77.3L16.7,77.4L17.4,78.1L17.7,78.3L18.0,78.7L21.4,80.7L25.2,82.0L28.2,82.5L30.4,82.5L31.4,82.3L31.8,81.9L31.9,80.0L31.8,79.1L31.5,78.4L31.0,78.1L30.3,78.1L28.1,77.6L26.2,76.7L25.6,76.2L24.5,75.6L22.9,74.3L22.2,73.6L21.8,72.7L20.9,71.6L20.1,70.1L19.5,67.8L19.3,64.9L19.6,62.6L20.1,60.7L20.8,59.0L21.7,57.6L21.8,57.1L24.5,54.5L27.1,53.0L29.7,52.0L31.1,51.8L34.0,52.0L34.3,52.2L35.9,52.4L36.9,52.8L39.3,54.1L39.7,54.5L40.4,54.9L41.3,55.9L42.5,57.6L42.7,58.2L43.4,59.0L44.3,61.4L44.6,62.5L44.9,75.8L45.0,78.0L45.0,93.2L45.1,94.0L45.4,94.4L46.7,94.6L49.1,94.7L61.3,94.7L66.1,94.5L81.0,94.6L81.5,94.4L81.7,94.0L81.7,88.4L81.5,87.0L81.6,84.0L81.4,80.4L81.4,71.2L81.3,69.6L81.3,65.7L81.4,63.6L81.8,62.1L82.2,61.2L82.4,59.8L82.6,59.6L83.2,58.0L84.2,56.4L85.7,54.6L87.3,53.2L88.7,52.2L90.9,51.4L93.5,50.8L94.8,50.8L97.5,51.4L97.9,51.6L100.4,52.2L102.3,53.4L102.6,53.5L102.8,53.7L103.3,54.1L105.3,56.1L106.0,57.2L106.2,58.1L107.0,59.5L107.6,61.5L108.0,64.2L108.0,66.1L107.8,67.5L107.6,68.5L107.0,70.0L106.3,71.4L105.9,71.8L105.1,73.1L103.2,75.0L101.2,76.2L99.2,77.2L95.7,77.8L95.1,78.3L95.1,81.1L95.3,81.9L95.7,82.2L96.9,82.4L98.7,82.4L100.4,82.1L101.5,81.7L103.5,81.2L107.0,79.9L107.4,79.6L108.9,78.9L111.7,77.0L114.8,73.5L116.7,70.8L116.8,70.4L117.7,68.9L118.1,67.9L118.2,67.0L118.6,65.9L118.6,65.4L119.0,63.4L119.0,61.4L119.0,59.0L118.7,57.5Z" fill="#000" fill-rule="evenodd"/>
</svg>