<svg xmlns="http://www.w3.org/2000/svg" viewBox="0 0 128 128" width="128" height="128">
  <path d="M108.4,38.2L107.5,37.4L107.3,36.9L106.4,35.8L104.8,34.4L104.2,33.4L101.5,30.6L100.1,29.6L99.0,28.4L96.3,26.6L96.0,26.2L94.8,25.3L91.9,23.6L91.3,23.4L89.9,22.4L89.6,22.4L88.8,22.0L87.7,21.7L85.2,20.4L82.6,19.6L81.8,19.2L79.2,18.6L78.3,18.3L76.6,18.1L73.4,17.4L72.2,17.4L70.6,16.8L68.2,16.7L67.7,16.5L67.0,16.5L66.5,16.3L65.7,16.3L64.3,16.1L59.9,16.0L55.1,16.4L54.0,16.7L52.7,16.8L50.2,17.2L49.5,17.2L48.6,17.4L47.1,17.6L42.4,19.0L41.7,19.3L38.6,20.4L36.4,21.5L36.0,21.6L33.7,22.7L32.1,23.9L31.8,24.0L30.6,24.7L29.8,25.6L28.7,26.4L26.9,27.5L25.0,29.1L21.7,32.7L20.2,34.4L18.3,37.1L17.6,38.7L16.5,40.1L16.5,40.4L15.6,41.8L15.2,42.7L15.0,43.0L14.5,44.0L14.0,45.5L13.4,46.8L11.7,52.8L11.0,56.2L9.7,66.3L9.3,82.0L9.5,83.7L9.7,89.1L10.0,91.6L10.1,94.1L10.8,97.8L11.0,100.4L12.3,107.6L13.4,111.3L13.9,112.0L14.5,112.2L25.3,112.3L27.7,112.1L31.1,112.2L32.5,112.0L47.5,112.1L58.2,111.9L69.3,111.9L69.8,111.8L70.2,111.1L69.3,108.1L69.1,107.6L68.7,106.0L68.0,103.9L68.0,103.3L67.4,101.7L66.8,99.0L66.1,97.1L65.9,95.5L65.5,94.2L65.1,92.3L65.1,91.1L64.7,89.9L64.6,88.2L64.3,85.8L64.2,83.5L64.3,78.5L64.5,75.9L64.9,73.8L66.2,70.0L67.1,68.3L68.9,65.8L69.1,65.3L71.3,63.2L73.0,61.8L75.1,60.8L77.2,60.0L78.1,59.8L82.9,59.8L85.2,60.3L86.8,60.9L87.5,61.3L89.0,61.9L91.6,63.8L94.8,67.1L96.2,69.3L96.7,70.6L97.0,72.0L97.1,74.1L96.9,75.9L96.0,79.3L95.1,81.0L93.8,82.8L92.1,84.1L89.6,85.4L87.7,85.7L85.5,85.5L83.8,85.0L81.1,83.6L79.8,82.3L78.9,81.2L77.5,78.9L76.6,76.8L76.3,75.0L76.3,73.0L76.6,70.5L77.1,69.1L77.7,68.0L79.0,66.2L79.0,65.5L78.7,65.2L77.7,65.2L76.5,65.6L75.0,66.2L72.6,67.9L71.8,68.7L71.6,69.2L71.1,69.6L70.3,71.4L69.2,74.2L68.6,77.5L68.5,81.7L68.8,84.7L69.8,88.5L70.7,91.0L71.1,91.7L72.0,93.8L72.9,95.3L75.4,98.9L76.6,100.1L78.4,101.4L78.8,101.9L79.0,102.0L79.6,102.6L81.2,103.4L81.5,103.8L85.1,105.1L86.2,105.2L87.0,105.5L88.2,105.7L91.5,105.7L93.4,105.5L96.3,104.8L99.3,103.8L103.6,101.3L106.1,99.1L109.1,96.0L111.9,92.2L114.3,88.1L114.4,87.7L115.2,86.1L116.4,82.9L117.0,81.5L118.2,76.7L118.3,75.7L118.5,74.8L118.7,72.0L118.9,71.2L118.9,65.2L118.8,64.3L118.7,62.2L118.5,61.9L118.3,59.9L117.8,58.5L117.7,57.7L117.1,55.9L116.8,54.5L116.0,52.8L115.6,51.1L114.9,49.9L114.0,47.6L112.8,45.2L111.2,42.5L110.9,41.7L110.0,40.7L109.7,40.0L108.5,38.7Z" fill="#000" fill-rule="evenodd"/>
</svg>