<svg xmlns="http://www.w3.org/2000/svg" viewBox="0 0 128 128" width="128" height="128">
  <path d="M74.4,77.5L73.2,78.1L71.9,79.6L71.4,80.7L71.4,82.5L72.2,84.2L73.1,85.2L74.3,85.8L76.5,85.8L77.8,85.1L78.9,83.9L79.5,82.3L79.5,80.9L79.3,80.0L78.6,78.8L77.2,77.7L75.6,77.4Z M79.0,61.9L78.3,62.1L77.3,62.6L76.2,63.7L75.5,65.2L75.4,66.8L76.0,68.5L77.3,69.9L78.7,70.4L79.8,70.4L81.2,70.0L82.0,69.2L82.3,68.7L82.9,68.1L83.4,67.0L83.6,65.6L83.0,63.9L82.0,62.8L80.7,62.1L79.9,61.9Z M65.6,55.3L64.9,55.6L64.1,56.2L63.1,57.4L62.6,58.6L62.7,60.5L63.3,61.8L64.3,62.8L65.3,63.4L66.0,63.5L67.8,63.5L68.7,63.0L69.8,61.9L70.5,60.2L70.6,58.9L70.1,57.3L68.8,55.8L67.4,55.3Z M52.1,48.5L50.8,49.0L49.6,50.1L49.1,51.0L48.9,51.6L48.8,53.0L49.2,54.4L49.9,55.5L51.1,56.3L52.2,56.6L52.9,56.6L54.5,56.1L55.7,55.3L56.0,54.8L56.6,53.7L56.7,52.0L56.0,50.3L55.0,49.3L53.8,48.6Z M52.6,27.6L51.5,27.8L50.8,28.3L50.0,29.2L49.6,30.0L49.5,31.7L50.0,33.0L51.0,34.1L51.5,34.5L53.1,34.7L54.1,34.4L55.1,33.7L56.0,32.4L56.2,30.7L56.0,29.8L55.2,28.6L54.0,27.8L53.1,27.6Z M47.6,21.5L47.6,22.0L48.6,23.0L49.3,24.1L50.1,24.6L50.7,24.8L51.6,24.7L52.6,24.3L54.3,22.8L54.3,22.4L53.9,22.0L52.5,21.2L51.7,21.1L51.2,20.9L48.8,20.9Z M115.2,9.6L114.1,9.3L110.9,9.3L109.7,9.5L101.7,9.5L97.6,9.8L93.4,9.8L88.6,10.1L76.2,10.1L72.6,10.2L64.4,10.2L48.9,10.5L46.4,10.4L43.4,10.6L41.9,10.5L40.9,10.7L38.1,10.8L26.5,10.8L20.0,11.1L13.6,11.1L11.6,11.2L11.2,11.4L11.0,11.8L11.0,25.5L11.2,29.0L11.2,52.2L11.3,53.5L11.3,69.3L11.4,74.8L11.4,87.8L11.6,92.0L11.5,99.8L11.8,118.1L12.3,118.7L13.4,118.9L20.4,118.9L21.1,118.7L27.6,118.8L31.8,118.5L40.6,118.5L43.5,118.3L45.6,118.4L46.5,118.2L51.9,118.4L53.3,118.1L69.3,118.0L72.6,117.8L79.0,117.8L83.7,117.7L95.8,117.7L100.4,117.4L105.9,117.4L109.1,117.2L111.4,117.2L112.6,117.5L116.2,117.4L116.7,117.2L117.0,116.6L117.1,112.7L116.9,111.1L117.0,105.8L116.8,103.1L117.2,102.1L117.2,101.5L116.7,99.3L116.7,95.2L116.7,91.0L116.5,80.5L116.6,71.6L116.3,58.1L116.1,55.0L116.2,53.3L115.9,39.5L116.0,33.5L115.6,17.2L115.6,10.2Z M104.0,107.8L104.0,109.2L103.6,110.4L102.7,111.1L102.2,111.3L100.9,111.3L97.8,111.3L93.9,111.0L92.8,110.6L91.6,109.8L90.8,109.8L89.8,110.6L88.4,111.3L87.5,111.5L85.5,111.5L83.7,111.7L81.0,111.6L79.3,111.2L77.7,110.2L77.1,110.2L76.6,110.2L76.5,110.5L75.6,111.1L74.3,111.7L73.0,111.9L69.1,111.9L66.9,111.5L65.7,111.2L64.7,110.6L63.5,110.4L62.1,111.3L60.0,112.0L58.1,112.2L54.3,112.3L53.6,112.2L52.4,111.7L51.3,110.9L50.4,110.7L48.3,111.9L47.2,112.3L45.0,112.5L40.0,112.4L38.8,111.9L38.0,111.2L37.1,111.2L35.1,112.2L33.3,112.6L28.4,112.8L26.1,112.6L25.4,112.4L24.9,111.7L24.5,110.5L24.5,109.1L24.9,108.0L25.8,107.2L27.3,106.9L33.8,106.9L35.6,107.6L37.1,108.5L37.7,108.6L38.3,108.3L39.1,107.6L41.0,106.8L42.1,106.7L47.5,106.7L48.3,106.9L49.8,107.8L51.0,107.9L52.3,107.0L53.7,106.6L56.0,106.4L60.1,106.4L61.2,106.7L62.9,107.8L63.7,107.9L64.3,107.7L65.5,106.9L67.4,106.2L73.0,106.1L73.8,106.3L74.2,106.6L74.8,106.8L76.3,107.8L77.0,107.9L77.6,107.7L79.5,106.2L81.1,105.9L87.8,105.9L89.5,106.5L90.1,106.9L90.9,106.9L91.7,106.7L92.5,106.0L94.0,105.6L100.0,105.6L102.8,105.8L103.7,106.5Z M98.9,53.6L99.7,55.2L100.4,56.1L101.3,57.6L102.6,62.0L103.5,64.0L103.8,66.0L104.2,66.8L104.4,67.8L104.8,71.8L105.0,72.8L105.0,73.6L105.2,73.9L105.4,75.7L105.3,78.2L104.5,83.0L104.2,83.5L103.7,85.1L102.2,88.5L100.7,90.5L100.1,91.1L98.7,92.0L96.6,92.8L94.1,93.1L91.4,92.4L90.6,92.5L89.7,93.5L89.7,94.0L90.3,94.9L91.0,95.6L92.8,96.9L93.4,97.4L93.7,98.0L93.8,98.8L93.6,99.6L92.7,100.5L92.0,100.9L90.0,101.5L87.4,101.8L57.8,102.4L56.7,102.2L55.8,101.7L55.1,100.7L55.3,99.9L55.8,99.1L56.8,98.2L57.8,97.7L58.0,97.7L59.1,97.2L61.7,96.4L65.6,95.9L68.3,96.0L71.5,95.7L75.5,95.6L76.3,95.3L76.4,94.9L75.5,94.1L72.6,92.8L71.9,92.1L69.0,90.4L66.7,88.4L63.7,85.2L62.9,83.9L61.9,81.7L61.3,79.0L61.3,77.2L61.7,76.0L63.1,73.7L65.3,71.7L67.8,70.4L68.0,70.0L67.8,69.6L66.5,69.1L65.3,69.1L63.8,69.5L61.6,70.4L60.6,70.6L59.3,70.6L55.7,70.0L51.6,68.5L51.0,68.1L50.3,67.9L49.7,67.6L48.6,67.4L48.0,67.8L47.2,69.2L47.2,69.6L47.0,69.9L44.8,75.4L44.7,76.0L43.5,78.5L41.5,83.6L40.3,86.3L39.9,86.9L39.5,88.4L36.8,94.3L35.3,96.5L34.2,97.6L33.0,99.3L32.1,101.4L30.8,102.6L29.6,102.9L28.1,103.1L26.4,103.1L24.5,102.8L23.8,102.5L23.2,101.8L23.2,100.6L23.6,99.7L24.1,99.2L24.8,98.9L26.2,97.9L28.2,96.9L29.6,95.8L30.8,94.4L32.0,92.6L33.1,89.8L33.3,88.8L33.6,88.4L34.2,86.3L34.3,85.5L35.3,82.4L35.4,81.7L35.7,81.1L35.9,80.0L36.2,79.6L36.3,78.7L37.3,76.1L37.4,75.1L37.8,74.3L38.5,71.1L38.9,70.1L39.2,68.5L39.7,66.7L39.9,65.1L40.1,64.6L40.1,63.6L40.4,62.5L40.4,53.6L40.9,50.5L41.4,49.5L42.4,46.0L42.8,45.0L42.8,43.8L42.7,43.5L42.7,42.6L43.3,41.7L44.9,41.2L46.9,41.1L59.7,41.0L60.9,41.2L61.5,41.8L61.3,42.5L60.8,42.9L60.7,43.7L61.1,44.2L62.2,45.1L64.4,46.2L66.3,46.7L67.0,47.1L68.2,47.2L70.2,48.1L72.2,48.7L73.0,48.8L74.5,49.5L75.6,49.8L77.7,50.6L82.5,53.4L85.5,56.1L87.0,57.6L87.2,58.0L88.8,59.8L90.7,62.7L92.8,66.7L94.5,71.3L94.6,72.3L95.0,74.1L95.3,76.5L95.2,82.2L95.1,83.0L94.7,84.1L94.6,85.1L93.1,88.7L93.2,89.6L93.8,90.1L94.4,90.3L95.4,90.3L96.2,90.0L97.2,89.5L98.2,88.5L99.6,86.4L100.6,84.3L101.5,81.8L102.2,77.8L102.3,72.6L102.1,71.1L101.6,69.1L101.5,67.4L100.7,63.6L99.8,61.4L99.8,61.2L99.4,60.5L99.2,59.5L97.9,56.9L96.1,54.2L95.4,53.4L95.2,52.9L94.3,52.0L93.7,51.1L91.6,49.0L88.4,46.2L85.2,44.2L84.3,43.9L82.2,42.7L81.8,42.6L81.2,41.9L81.2,41.3L81.9,40.8L82.5,40.7L85.2,41.7L86.3,42.2L87.5,43.2L88.6,43.8L91.7,45.8L94.4,48.3L98.0,52.3Z M36.0,38.1L36.9,38.0L37.7,37.6L38.2,37.6L39.8,38.2L41.0,39.1L41.4,39.9L41.3,41.3L40.7,42.7L40.0,43.5L38.7,43.9L37.5,43.9L36.7,43.6L36.0,43.1L35.1,42.1L34.7,41.2L34.8,39.8L35.3,38.7Z M64.9,17.8L65.6,18.6L65.5,19.0L64.1,20.0L63.3,20.3L61.9,21.1L61.4,21.6L61.4,22.5L62.1,25.5L62.0,28.8L61.4,31.4L60.9,32.6L60.0,35.3L60.0,36.3L60.3,37.2L60.8,37.7L60.8,38.0L60.3,38.6L59.4,39.0L46.9,39.5L44.6,39.5L43.9,39.4L43.1,38.5L43.1,38.2L43.6,37.5L44.5,37.0L45.0,36.4L45.5,35.1L45.5,33.6L45.0,31.9L44.1,31.0L42.4,29.8L36.7,27.1L34.5,25.7L33.9,25.1L33.0,23.8L32.5,22.3L32.5,21.4L33.8,20.5L34.5,20.3L38.3,20.2L39.9,20.0L43.9,19.7L44.4,19.5L46.8,17.5L48.5,17.0L49.9,17.0L51.1,17.3L53.4,17.5L53.8,17.7L55.2,17.7L56.5,17.1L57.5,16.5L58.9,16.3L60.7,16.6L61.0,16.7L61.7,16.8L62.0,17.0L63.5,17.5L64.0,17.5Z" fill="#000" fill-rule="evenodd"/>
</svg>