<svg xmlns="http://www.w3.org/2000/svg" viewBox="0 0 128 128" width="128" height="128">
  <path d="M53.8,103.1L53.5,103.2L53.0,104.0L52.0,106.1L52.0,106.5L51.6,106.9L51.4,107.7L50.3,109.7L49.7,111.9L49.5,114.0L49.7,114.9L50.4,116.6L51.4,117.6L53.1,118.7L54.5,119.1L54.8,118.8L53.7,118.1L52.9,117.4L52.5,116.6L51.8,115.0L51.6,113.8L51.6,111.9L52.0,109.1L52.5,107.6L52.8,107.0L52.9,105.9L53.8,103.7Z M100.8,97.0L100.4,97.4L100.2,98.1L99.1,100.3L95.9,105.2L94.9,107.3L94.3,109.2L94.3,111.0L94.7,112.4L95.3,113.6L96.4,114.7L97.2,115.3L99.4,116.3L100.8,116.7L102.2,116.9L103.1,117.2L104.1,117.2L104.6,117.0L103.2,116.6L100.9,115.7L99.7,115.1L98.2,113.9L97.3,112.7L96.7,111.0L96.6,109.5L97.0,107.5L98.2,104.7L99.2,103.0L99.9,101.2L100.0,100.6L100.9,98.1L101.0,97.2L100.9,97.0Z M32.5,96.7L32.2,96.8L32.2,97.6L32.6,100.2L32.7,104.5L31.8,109.0L31.3,110.4L30.4,111.9L30.1,112.8L29.5,113.4L29.0,114.2L27.3,115.9L26.2,116.6L23.8,117.8L23.7,118.0L23.9,118.2L26.0,117.7L27.3,117.2L29.5,115.9L31.7,114.0L32.3,113.1L33.1,111.7L33.8,109.7L34.2,108.1L34.3,103.1L33.6,99.4L32.9,97.3Z M66.7,95.0L66.5,95.0L66.4,95.2L66.3,97.0L65.9,98.4L64.5,100.8L62.4,103.1L58.5,106.4L57.6,106.8L56.6,107.7L54.8,109.6L54.7,109.8L53.9,110.6L53.4,112.0L53.4,113.8L53.6,114.7L54.3,116.0L55.7,117.5L56.6,118.0L57.2,118.2L58.1,118.7L58.3,118.6L58.3,118.3L57.6,118.2L56.2,116.8L56.1,116.5L55.5,115.7L55.0,114.2L55.0,112.8L55.7,111.4L57.0,110.1L62.8,105.5L64.0,104.4L65.7,102.2L66.8,99.9L67.2,98.6L67.2,96.5L67.0,95.5Z M33.1,94.3L33.4,94.9L34.1,95.8L34.3,96.3L35.4,98.1L35.5,98.5L36.0,99.2L36.5,100.3L37.2,102.2L37.9,105.0L38.1,105.3L38.2,107.2L38.2,109.2L37.7,111.3L36.9,113.5L36.4,114.6L35.7,115.4L34.8,116.3L34.0,116.8L33.3,117.4L33.3,117.6L33.6,117.6L34.6,117.2L36.2,115.8L36.4,115.7L37.8,114.2L38.8,112.5L39.5,111.2L40.1,109.3L40.3,107.7L40.3,106.4L39.9,104.0L38.7,101.0L37.5,99.3L37.3,98.9L35.1,96.2L33.8,94.9L33.6,94.6Z M77.2,68.9L79.1,69.3L79.6,69.6L80.7,69.9L81.4,70.2L81.9,70.3L82.5,70.7L84.0,71.2L87.0,72.7L90.7,74.8L93.2,76.7L95.7,79.1L98.1,82.0L99.5,84.2L100.4,86.0L101.6,88.9L101.6,89.3L102.1,90.7L102.5,93.5L102.5,97.4L101.4,101.9L100.6,104.6L100.1,108.1L100.2,110.4L100.4,111.3L101.4,113.3L102.4,114.3L103.4,115.1L103.6,115.4L104.0,115.5L104.4,115.8L105.0,115.8L104.9,115.5L103.7,114.8L102.8,113.8L102.1,112.6L101.7,111.3L101.6,109.9L101.8,108.2L102.4,106.3L102.4,105.9L103.8,102.1L104.1,100.7L104.6,99.5L105.1,96.7L105.3,94.9L105.1,92.3L104.5,89.3L103.4,86.0L102.2,84.0L102.2,83.7L101.0,81.9L99.8,80.3L97.2,77.6L94.7,75.5L92.2,73.9L91.9,73.8L90.8,73.1L89.6,72.6L88.9,72.1L86.9,71.4L85.6,70.8L80.9,69.4L79.6,69.2L78.3,68.7L77.7,68.6Z M62.2,49.2L62.1,49.2L61.2,49.8L60.5,51.0L59.1,52.4L58.0,54.0L57.1,54.8L56.9,55.4L55.5,57.1L55.1,58.0L53.9,59.6L53.4,60.7L52.3,62.3L51.2,64.5L49.5,68.8L48.7,71.4L48.6,72.7L48.3,73.7L48.3,75.5L48.3,78.9L48.7,81.5L49.2,83.8L50.4,87.6L53.7,95.5L54.0,97.1L54.2,97.3L54.2,97.9L54.4,98.8L54.4,99.6L54.7,99.5L54.7,99.2L54.9,99.0L55.0,98.4L54.8,93.7L53.9,89.4L53.3,87.7L53.0,87.3L52.3,84.6L52.1,84.3L51.6,81.4L51.6,80.6L51.2,78.6L51.1,74.6L51.2,73.0L51.6,70.2L52.0,68.6L52.1,67.7L53.5,63.5L54.8,60.9L57.3,56.6L60.5,51.9L60.8,51.2L61.1,50.9L61.2,50.5L62.1,49.7Z M40.3,38.1L40.1,38.2L39.6,39.1L39.1,39.6L38.6,40.7L36.4,43.7L36.3,44.2L35.1,45.5L33.6,47.6L32.7,49.3L31.8,50.4L31.2,51.7L29.7,55.3L29.1,57.3L29.0,58.4L28.3,59.0L28.2,59.4L27.3,60.6L27.3,61.0L26.5,62.6L25.4,65.8L24.6,69.8L24.4,70.1L24.3,72.3L24.0,73.2L24.0,76.5L24.7,80.3L25.7,83.1L26.9,85.8L27.9,87.5L29.4,89.4L29.6,89.4L29.6,89.1L29.1,88.4L28.7,86.9L27.4,83.3L26.6,80.0L26.0,76.0L25.9,71.6L26.2,68.1L26.3,67.7L26.5,65.6L26.8,64.6L26.9,63.6L27.7,60.8L28.0,60.6L28.0,60.3L28.4,60.0L28.5,61.2L28.2,63.1L28.2,64.9L28.4,65.4L28.5,67.2L28.9,68.6L29.1,69.1L29.5,69.2L29.5,65.8L29.7,64.2L29.9,61.6L30.5,58.9L31.2,57.1L32.4,54.1L32.7,53.8L33.1,52.5L33.4,52.1L34.1,50.5L34.5,50.1L35.7,47.7L36.9,46.0L39.0,41.9L39.0,41.7L39.4,41.0L40.2,39.1Z M72.4,30.5L72.3,30.9L72.5,32.5L72.3,34.3L71.8,36.2L71.4,36.8L70.5,38.8L69.4,40.9L69.1,41.2L68.9,41.6L67.8,43.0L66.0,45.8L65.3,46.7L64.3,48.5L63.4,50.6L62.8,52.9L62.7,55.7L63.0,57.5L63.7,59.8L64.9,61.9L65.8,63.1L66.9,64.4L69.1,66.0L71.5,67.2L72.6,67.5L72.7,67.7L73.2,67.7L73.2,67.5L72.7,67.4L72.5,67.2L70.9,66.4L69.4,65.4L68.6,64.7L68.4,64.6L66.6,62.6L65.2,59.9L65.0,59.0L64.9,58.8L64.6,57.1L64.6,55.0L65.1,52.5L65.6,51.4L65.8,50.4L66.1,50.1L67.0,47.9L70.4,42.8L71.7,40.1L72.8,36.8L73.2,34.2L73.2,32.2L72.9,30.8L72.7,30.5Z M72.6,27.6L72.9,27.7L73.9,28.8L74.6,29.9L75.1,31.2L75.3,32.8L75.3,34.4L75.1,36.7L74.1,40.1L74.1,41.7L74.4,42.6L74.7,43.1L75.1,44.0L76.4,45.1L76.8,45.1L76.8,44.8L76.2,44.3L75.8,43.7L75.5,43.0L75.4,42.4L75.5,41.4L75.8,40.3L76.7,38.2L77.2,36.4L77.4,35.2L77.4,33.2L77.2,31.8L76.9,30.9L76.2,29.4L75.2,28.3L74.4,27.7L73.4,27.4Z M61.3,24.3L60.6,24.3L59.5,24.5L59.0,24.9L58.0,25.1L56.9,25.8L55.1,27.4L53.9,29.3L53.3,30.8L52.4,35.2L52.3,40.7L52.0,43.3L51.6,44.2L50.6,46.3L49.2,48.0L47.4,49.7L47.4,49.9L48.0,49.9L48.6,49.4L49.3,49.1L50.9,47.7L52.0,46.5L53.3,44.6L53.8,43.4L54.3,41.7L54.6,39.2L54.5,36.3L54.8,34.7L54.8,33.9L55.3,31.1L55.8,29.7L56.9,27.7L57.9,26.7L59.9,25.3L61.3,24.6Z M61.2,22.6L59.7,22.2L58.0,22.2L55.3,22.8L54.7,23.1L54.4,23.1L53.1,23.9L52.9,24.3L52.2,24.7L51.0,25.8L50.2,26.7L49.3,28.3L48.4,29.9L48.1,30.8L47.7,32.4L47.2,36.8L46.5,39.8L45.4,41.9L44.7,42.9L43.3,44.5L42.3,45.2L42.3,45.5L42.8,45.4L43.0,45.1L43.6,45.0L45.5,43.7L46.6,42.5L47.4,41.4L48.2,39.9L48.5,38.7L48.8,38.1L49.5,35.0L49.9,32.3L50.2,31.2L51.6,28.5L52.9,26.6L55.2,24.6L56.6,23.8L58.0,23.2L59.4,22.9L60.9,22.9Z M66.3,22.0L65.1,22.5L64.3,23.0L63.7,23.9L63.2,25.3L63.2,26.2L63.4,27.0L64.1,28.3L64.9,29.0L66.5,29.6L68.4,29.5L69.4,29.0L70.5,28.0L71.2,26.6L71.2,24.8L70.7,23.9L70.6,23.4L69.3,22.4L67.8,21.9Z M59.9,17.0L58.5,16.2L58.0,16.1L57.2,15.7L53.9,15.1L52.5,15.1L51.2,15.3L49.7,16.0L48.6,16.6L46.5,18.4L45.3,20.3L44.5,22.2L43.6,23.9L43.2,25.2L41.7,28.1L41.3,28.6L40.8,29.6L39.2,31.6L38.1,32.7L37.5,32.9L37.4,33.3L38.2,33.2L40.0,32.2L41.0,31.5L42.6,29.8L44.2,27.8L44.7,26.7L45.6,25.4L46.9,22.4L48.4,19.5L49.6,18.2L50.7,17.3L52.0,16.7L54.3,16.3L56.6,16.4L60.1,17.3Z M63.3,14.2L62.9,14.7L62.8,15.2L63.1,15.1L64.4,14.3L65.3,13.9L66.9,14.0L68.2,14.8L69.5,16.3L69.6,16.8L69.5,17.0L68.1,16.6L65.8,16.6L64.1,17.1L63.9,17.5L66.1,17.5L67.3,18.1L68.1,18.7L68.9,19.7L70.4,22.8L71.8,24.1L73.8,25.1L75.9,25.1L76.0,24.9L75.8,24.8L74.3,24.4L73.6,23.9L72.6,22.9L72.2,22.2L72.0,21.6L72.2,21.4L72.4,21.4L74.0,22.7L75.1,23.0L76.9,22.7L77.8,22.2L77.9,21.9L76.0,22.1L75.1,21.7L73.9,20.6L73.0,19.1L72.1,16.9L71.2,15.4L71.1,15.1L70.0,13.8L68.6,12.9L67.7,12.5L66.5,12.4L65.4,12.7L64.4,13.3Z M57.5,13.7L56.2,13.3L54.4,13.0L52.8,12.6L50.4,12.4L48.6,12.4L46.4,12.8L46.0,13.0L45.3,13.2L43.1,14.3L41.5,15.5L40.9,16.2L40.5,16.5L38.7,18.5L37.5,20.1L36.8,21.2L35.4,24.9L34.5,26.6L34.4,27.0L33.1,28.6L31.8,29.9L31.3,30.2L31.0,30.7L31.3,30.8L32.4,30.4L33.6,29.5L35.3,27.9L37.2,25.5L38.7,22.8L39.4,21.4L41.1,18.9L42.6,17.4L44.8,15.6L46.9,14.6L48.0,14.2L50.1,13.7L53.8,13.6L56.0,13.8L56.9,14.0L57.6,13.9Z M56.6,12.3L53.7,11.0L50.8,10.3L49.8,9.9L45.1,9.2L43.0,9.2L41.1,9.4L38.4,10.3L35.7,12.1L33.3,14.7L33.3,14.9L32.1,16.6L31.4,18.1L31.1,18.5L30.6,19.8L29.5,22.0L29.0,23.4L27.2,26.4L26.0,27.6L25.0,28.1L24.6,28.2L24.0,28.6L23.1,28.9L23.2,29.2L25.0,29.0L26.1,28.5L28.1,27.2L29.1,26.3L29.4,25.8L30.4,24.6L32.2,21.5L33.0,19.7L35.1,16.0L35.9,14.8L37.5,13.2L38.5,12.4L39.1,12.1L39.3,11.9L40.9,11.3L42.5,10.9L46.1,10.8L49.1,11.0L50.5,11.4L51.6,11.5L56.2,12.6L56.6,12.5Z M60.3,11.3L60.3,11.5L61.0,11.3L61.9,10.7L62.5,10.6L64.2,10.5L65.2,10.7L67.2,11.6L69.1,12.3L70.5,12.5L72.0,12.3L72.8,11.7L72.9,11.5L72.4,11.5L72.1,11.6L70.4,11.5L69.5,11.0L67.4,9.7L65.4,9.1L63.7,9.1L62.4,9.4L61.2,10.1Z" fill="#000" fill-rule="evenodd"/>
</svg>