<svg xmlns="http://www.w3.org/2000/svg" viewBox="0 0 128 128" width="128" height="128">
  <path d="M112.7,96.9L112.8,97.3L113.2,97.4L113.1,97.0Z M111.7,89.8L112.0,90.0L112.6,90.0L112.4,89.7L112.0,89.6Z M18.9,89.3L19.0,89.5L19.2,89.6L19.7,89.5L19.6,89.3L19.4,89.2Z M111.8,88.2L112.3,88.4L114.0,88.4L114.5,88.3L114.6,88.0L112.0,87.9Z M17.5,88.0L17.5,88.3L17.8,88.5L19.3,88.5L19.2,88.3L18.8,88.0Z M111.8,86.9L112.0,87.1L112.3,87.2L114.2,87.0L112.9,86.8Z M112.0,85.6L112.0,86.0L112.3,86.0L114.5,86.0L114.9,85.8L114.8,85.5Z M17.8,85.4L17.8,85.6L18.4,85.9L20.1,86.0L20.3,85.7L18.6,85.3Z M115.6,83.9L115.5,83.6L114.9,83.6L114.6,83.8L113.0,84.0L110.4,84.2L110.5,84.4L110.8,84.6L112.3,84.7L113.8,84.5L114.5,84.3L115.2,84.2Z M17.1,83.5L17.4,83.8L17.8,83.8L17.8,83.5L17.6,83.4Z M114.3,82.4L113.5,82.4L112.0,82.9L110.4,83.0L110.0,83.3L110.5,83.5L112.8,83.3L114.2,82.8Z M17.5,81.9L17.5,82.1L18.0,82.5L19.0,83.2L19.6,83.4L20.1,83.4L20.1,83.1L20.0,82.9L19.4,82.7L19.1,82.4L18.6,82.3L18.0,81.9Z M113.8,80.9L113.5,80.6L113.1,80.6L112.7,81.0L111.9,81.4L111.5,81.4L111.0,81.7L109.7,81.7L109.4,81.9L109.4,82.1L110.1,82.3L112.4,82.2L113.5,81.7L113.8,81.4Z M18.3,80.2L18.4,80.7L19.2,81.1L19.1,80.8L18.5,80.2Z M19.1,79.4L19.1,79.7L20.0,80.5L20.4,80.8L20.9,80.8L21.0,80.4L20.6,80.1L19.5,79.4Z M113.8,79.4L113.7,79.3L113.1,79.2L112.0,79.8L109.9,80.4L108.9,80.5L108.4,80.8L108.5,81.0L108.9,81.1L110.5,80.9L112.0,80.5L112.5,80.5L113.5,79.9Z M20.6,78.3L20.6,78.6L21.6,79.3L22.1,79.4L22.7,79.4L22.9,79.3L22.9,79.0L22.6,78.8L21.5,78.2L20.7,78.1Z M107.6,77.6L107.1,77.6L106.4,78.3L106.4,78.6L107.1,78.3L107.6,77.8Z M111.7,76.5L111.8,76.7L112.0,76.7L112.0,76.5Z M106.2,76.1L106.0,75.9L105.8,75.9L105.3,76.3L104.2,77.3L104.2,77.7L104.8,77.8L105.3,77.6L106.0,76.8Z M22.5,75.8L22.8,76.5L23.3,76.8L24.2,77.2L24.6,77.1L24.7,76.8L23.3,75.8Z M113.1,77.6L112.6,77.6L111.5,78.3L110.7,78.4L109.9,77.5L110.0,77.3L110.4,77.2L110.5,76.7L109.5,75.7L108.9,75.5L108.7,75.6L108.9,76.1L109.4,76.5L109.4,76.9L109.3,77.1L108.6,77.1L108.4,77.3L108.3,78.3L106.9,80.0L106.9,80.4L107.7,80.5L109.3,79.8L110.6,79.5L111.5,79.1L112.9,78.1Z M104.6,75.0L104.0,75.0L103.7,75.2L103.2,75.7L102.7,75.9L102.3,76.5L102.5,76.8L102.9,76.8L104.1,76.1L104.7,75.5Z M110.8,74.8L110.8,75.1L111.5,75.4L112.4,75.6L112.9,75.5L112.8,75.2L111.9,75.1L111.4,74.8Z M101.8,74.8L101.4,74.8L100.9,75.2L100.8,75.6L100.5,75.9L100.6,76.5L101.1,76.6L101.6,76.3L101.8,75.7Z M33.2,74.8L33.3,75.2L33.5,75.2L33.7,75.0L33.4,74.7Z M99.2,74.3L98.9,74.4L98.4,75.4L98.4,76.5L99.0,76.4L99.3,75.9L99.5,74.6Z M34.6,74.2L34.5,74.6L34.7,74.9L35.1,74.9L35.2,74.6Z M33.1,74.2L33.3,74.4L33.3,74.2Z M97.4,74.1L97.0,74.2L96.9,74.8L96.6,75.6L96.4,75.7L96.0,75.8L96.0,76.3L96.7,76.6L96.9,76.6L97.3,76.2L97.5,75.7L97.6,74.4Z M27.0,73.6L26.3,73.6L25.7,74.0L25.4,74.0L24.7,74.7L24.0,74.8L24.0,75.1L24.7,75.8L25.5,76.3L26.2,76.5L26.1,75.9L25.7,75.6L25.5,75.2L25.6,75.0L26.1,75.0L27.1,75.6L27.4,75.6L27.5,75.2L26.9,74.4L27.0,73.9L27.2,73.9L27.2,73.7Z M31.2,73.5L31.2,74.0L31.6,74.6L32.1,74.7L31.9,74.2L31.4,73.4Z M29.4,72.7L29.4,73.3L29.8,74.3L30.3,74.9L30.7,75.1L30.7,74.6L30.0,73.1L29.8,72.8Z M94.5,72.9L95.7,73.1L96.2,73.0L96.3,72.7L95.9,72.6L94.6,72.6L94.5,72.7Z M37.5,72.2L37.5,72.5L38.4,73.5L39.0,73.5L39.0,73.2L38.0,72.2Z M31.7,70.8L31.7,71.0L31.8,71.1L33.0,71.0L32.7,70.7Z M95.2,69.7L94.1,69.7L91.8,70.4L92.0,70.6L92.9,70.6L94.1,70.2L94.9,70.1L95.2,70.0Z M31.1,69.1L32.6,69.1L32.9,69.0L31.4,68.9Z M34.0,69.1L35.4,69.1L35.5,69.0L35.2,68.8L34.4,68.8Z M25.7,66.8L25.3,66.9L25.2,67.2L25.2,67.9L25.4,68.0L25.7,67.6Z M32.4,66.6L32.6,67.0L32.9,67.1L34.4,67.1L35.0,67.3L35.9,67.1L35.0,66.9L34.4,66.6L33.4,66.3L33.0,66.3Z M28.4,65.8L28.7,66.1L29.1,66.4L29.6,66.5L29.9,66.8L31.0,66.8L31.0,66.6L30.0,66.5L28.9,65.8Z M22.2,65.7L21.9,65.9L21.7,66.2L21.8,66.6L22.1,66.6L22.3,66.4Z M20.6,64.9L20.2,65.0L20.1,65.2L20.2,66.3L20.6,66.2L20.6,66.0Z M32.8,64.5L32.9,64.7L33.4,64.9L35.5,65.2L37.6,66.0L38.1,65.7L37.3,65.1L34.9,64.3L33.9,64.1Z M88.0,64.3L88.0,64.5L90.6,64.5L91.1,64.1L90.3,64.0L89.3,64.0Z M24.1,63.7L24.1,64.0L24.2,64.1L24.7,64.0L24.5,63.7Z M103.7,63.3L103.1,63.2L102.7,63.4L101.5,64.3L101.5,64.7L102.1,64.6L103.4,63.8L103.7,63.5Z M92.8,62.0L92.5,61.8L91.8,61.6L90.9,61.6L90.5,61.8L89.6,61.8L88.9,62.1L89.0,62.4L92.5,62.4Z M104.3,60.9L104.2,60.9L103.6,61.0L102.3,62.0L102.4,62.3L103.2,62.1L104.2,61.4Z M29.8,60.7L29.8,61.0L30.0,61.5L30.5,62.0L30.9,62.3L31.7,62.2L31.7,62.0L31.1,61.4Z M89.0,60.4L89.0,60.7L90.4,60.7L91.0,60.5L92.1,60.5L92.8,60.7L93.5,60.6L93.5,60.3L92.6,59.9L91.1,59.9Z M22.7,59.7L23.1,60.2L23.5,60.4L23.5,60.2L23.0,59.7Z M34.1,58.9L34.1,59.1L34.7,59.3L37.0,59.3L37.9,59.0L37.6,58.7L35.9,58.7Z M93.6,57.9L92.5,57.6L91.1,57.7L89.5,58.2L89.5,58.5L90.2,58.5L91.6,58.2L93.4,58.3L93.6,58.2Z M21.2,56.7L21.2,56.9L22.8,57.5L24.0,58.5L24.6,58.6L24.6,58.4L23.8,57.4L23.3,57.3L23.1,57.0L22.3,56.9L22.1,56.7Z M107.9,56.2L107.6,56.0L106.6,56.5L105.6,57.5L105.4,57.9L104.4,58.8L104.3,59.0L104.5,59.2L105.0,59.1L105.9,58.3L106.5,57.9L107.9,56.7Z M88.8,56.5L89.7,56.6L91.0,56.3L93.8,56.2L93.8,55.9L93.1,55.7L91.0,55.6L89.4,55.9Z M21.5,55.1L21.6,55.3L21.9,55.4L22.1,55.3L21.9,55.1Z M32.5,54.3L33.6,54.8L35.3,55.1L37.1,55.1L37.6,54.9L37.6,54.6L35.5,54.5L33.4,54.1Z M22.1,53.8L22.1,54.1L22.6,54.2L23.8,55.2L24.2,55.1L24.2,54.7L23.7,54.3L22.8,53.8Z M108.0,53.2L107.6,53.2L107.4,53.4L107.2,53.4L106.2,54.1L105.8,54.7L105.9,54.8L106.4,54.8L108.0,53.5Z M93.6,53.2L93.2,52.9L92.3,52.8L91.1,53.1L89.4,53.7L89.5,53.9L90.1,54.0L92.3,53.5L93.3,53.5Z M33.1,51.9L34.1,52.4L35.2,52.7L37.4,52.9L38.5,52.8L38.5,52.6L38.1,52.4L36.1,52.3L33.7,51.7Z M21.4,51.1L21.4,51.2L21.6,51.4L21.9,51.4L22.3,51.7L22.8,51.9L23.5,52.6L23.8,52.8L24.2,52.7L24.1,52.0L23.3,51.4L22.8,51.3L22.1,51.0Z M92.7,50.8L92.6,50.7L91.1,50.7L89.8,51.2L89.4,51.6L90.2,51.6L91.3,51.2L92.6,51.1L92.7,51.0Z M108.5,50.4L107.9,50.4L107.0,50.7L105.4,51.9L103.9,52.8L104.0,53.2L104.6,53.2L105.7,52.6L106.9,51.7L108.2,51.0Z M33.4,50.0L38.1,50.7L38.1,50.6L37.8,50.4L35.9,49.9L33.6,49.7Z M92.2,48.6L91.1,48.6L90.6,48.8L89.9,48.9L88.4,49.5L88.0,49.7L88.0,50.0L88.5,50.0L89.0,49.7L89.3,49.7L90.7,49.2L92.1,49.0L92.2,48.8Z M21.2,48.4L22.2,48.7L22.8,49.1L23.5,49.8L24.2,49.9L24.2,49.3L23.4,48.7L22.8,48.5L22.5,48.2L21.4,48.2Z M37.0,47.8L37.1,48.2L37.9,48.5L38.1,48.7L39.1,48.7L39.0,48.5L38.1,48.0L37.6,47.8Z M109.5,47.2L107.9,47.4L107.4,47.8L106.0,48.4L104.9,49.3L104.9,49.7L105.4,49.8L107.4,48.5L109.4,47.7L109.6,47.5Z M86.1,46.7L85.7,46.7L85.4,47.0L85.4,47.1L85.8,47.1Z M91.3,46.4L90.4,46.5L89.8,46.7L89.6,47.0L88.5,47.1L88.2,47.4L88.0,47.4L87.3,47.7L87.2,48.0L88.3,47.7L89.0,47.2L91.0,46.9L91.4,46.7Z M92.3,45.6L92.3,45.8L93.1,46.1L93.6,46.5L94.6,46.6L94.6,46.1L94.2,45.9L93.9,45.9L93.3,45.6Z M20.8,45.3L20.7,45.6L21.6,45.9L22.1,46.3L22.4,46.4L23.0,46.8L23.4,46.8L23.4,46.5L23.0,46.1L21.9,45.5L21.4,45.3Z M89.5,45.2L87.5,45.7L86.9,46.2L86.7,46.2L86.7,46.4L87.3,46.4L88.0,46.0L88.3,46.0L89.5,45.4Z M30.2,45.3L30.5,45.6L31.9,45.9L32.9,46.0L33.3,45.7L33.0,45.5L31.5,45.2L31.2,45.1L30.3,45.1Z M109.6,45.1L108.9,45.0L106.8,45.6L105.9,46.2L105.8,46.7L106.7,46.6L107.4,46.2L109.0,45.7L109.7,45.3Z M35.8,44.9L35.9,45.1L37.6,45.6L38.1,46.1L38.9,46.1L38.9,45.9L38.6,45.6L37.8,45.2Z M86.8,44.5L86.2,44.6L85.6,45.1L84.9,45.3L84.4,45.9L83.6,46.3L82.9,47.1L83.0,47.4L84.7,46.0L85.2,45.8L86.0,45.1L86.6,44.9L86.8,44.7Z M32.5,44.0L32.5,44.2L32.7,44.3L33.5,44.1Z M93.6,43.9L93.7,44.1L94.3,44.2L94.6,44.6L95.2,44.7L95.7,45.1L96.4,45.1L96.3,44.7L95.1,44.1L94.8,44.1L94.3,43.8Z M38.5,43.7L38.5,44.1L39.3,44.5L39.6,44.3L39.0,43.8Z M109.5,43.5L109.3,43.2L108.3,43.2L106.3,44.0L106.3,44.1L107.1,44.2L108.2,43.9L109.3,43.8Z M95.1,42.6L95.1,42.9L96.0,43.1L95.7,42.6Z M42.4,42.4L42.5,42.7L42.7,43.0L43.1,43.1L43.1,42.6Z M31.8,42.4L31.8,42.6L32.3,42.8L33.2,42.9L33.5,43.1L34.2,43.1L33.9,42.6L33.6,42.4Z M20.1,42.2L20.3,42.6L21.4,42.7L22.7,43.6L23.2,43.5L23.2,43.1L22.7,42.7L22.1,42.4L20.8,42.1Z M107.1,41.4L110.1,41.4L110.2,41.0L109.8,40.9L108.1,40.9L107.1,41.1Z M95.7,41.1L96.0,41.0L96.0,40.9Z M29.3,41.0L29.6,41.4L33.9,41.4L34.1,41.2L34.1,41.0L33.9,40.7L33.2,40.5L30.8,40.5L29.9,40.7Z M19.4,39.2L19.4,39.4L21.1,39.5L22.4,40.3L22.4,40.0L21.4,39.2L20.5,39.0Z M106.9,39.0L107.2,38.9L107.1,38.7Z M97.4,38.6L97.3,39.0L98.4,39.2L100.0,40.0L101.3,40.2L101.3,40.0L100.9,39.6L100.5,39.5L99.7,38.8L99.0,38.6Z M108.2,38.6L108.3,38.9L108.9,39.0L110.5,39.0L110.7,38.8L110.5,38.5L110.0,38.3L108.9,38.3L108.4,38.5Z M28.8,38.5L28.8,38.8L28.9,38.9L30.8,38.6L31.8,38.6L32.4,38.8L32.9,38.7L32.9,38.3L32.1,38.0L30.2,38.0L29.3,38.2Z M20.2,37.5L20.3,37.8L21.1,38.0L22.1,38.5L22.6,38.6L22.7,38.5L22.6,38.1L22.1,37.7L21.1,37.4Z M97.8,36.4L97.9,36.6L98.5,36.8L99.7,36.7L101.9,37.3L102.5,37.3L102.7,37.1L102.7,36.9L100.8,36.1L99.2,36.1Z M31.9,35.6L31.7,35.4L31.2,35.2L29.4,35.2L28.0,35.6L26.9,36.3L27.0,36.7L27.4,36.7L29.1,35.9L29.9,35.8L31.7,35.9Z M98.2,33.7L98.5,34.0L100.8,34.0L102.6,34.5L103.9,34.5L103.9,34.2L103.8,34.0L102.2,33.6L100.3,33.4Z M19.8,33.6L21.1,33.7L21.6,33.9L22.2,33.9L22.4,33.7L22.3,33.4L21.9,33.3L20.1,33.3Z M107.5,33.2L107.7,33.5L109.1,33.6L109.4,33.8L110.4,33.7L110.3,33.4L109.2,33.2Z M30.9,33.2L30.7,32.9L29.1,32.8L27.1,33.3L25.3,34.1L25.5,34.4L25.8,34.4L26.8,33.9L27.5,33.9L28.0,33.6L28.9,33.4L30.9,33.4Z M107.5,31.5L107.9,31.8L108.8,31.8L110.5,32.3L111.0,32.3L111.1,32.0L110.6,31.6L109.3,31.3L107.9,31.3Z M99.1,31.8L100.2,31.8L101.1,31.5L102.1,31.5L102.7,31.8L103.0,31.8L103.3,32.0L103.8,31.9L103.1,31.3L102.2,31.0L100.2,31.2Z M27.2,30.9L27.2,31.1L28.3,31.1L28.3,30.9L27.8,30.8Z M105.8,29.6L105.8,29.9L106.1,30.0L108.8,29.9L109.4,30.2L110.0,30.2L110.0,29.9L109.6,29.6L108.2,29.4L107.8,29.3L106.9,29.3Z M99.7,29.9L103.3,29.8L104.3,30.3L104.8,30.3L105.0,30.0L104.3,29.5L103.5,29.3L101.0,29.3L100.0,29.6Z M28.2,28.7L27.8,28.4L26.7,28.4L26.4,28.6L25.5,28.7L24.6,29.1L24.7,29.3L25.2,29.3L26.3,29.1L26.8,28.8Z M104.6,27.4L105.1,27.4L105.0,27.2Z M103.5,27.2L102.3,27.2L101.6,27.4L101.2,27.4L100.0,28.0L101.4,28.0L103.5,27.3Z M26.6,26.5L25.2,26.4L23.1,26.9L22.1,27.4L21.0,28.2L20.8,28.4L20.5,28.6L20.6,28.8L21.5,28.7L24.0,27.3L26.6,26.7Z M106.7,25.4L105.3,25.1L102.4,25.2L101.4,25.7L100.5,25.8L100.5,26.0L101.4,26.0L102.6,25.6L104.6,25.6L105.7,25.7L106.7,25.7Z M26.8,23.9L26.2,23.7L24.8,23.7L22.9,24.1L21.2,24.9L21.1,25.1L21.1,25.4L21.6,25.4L23.3,24.6L25.2,24.2L26.6,24.2Z M101.6,24.1L102.2,24.2L102.9,23.8L106.8,23.7L106.9,23.7L106.9,23.4L103.8,23.3L102.8,23.5L102.5,23.8Z M111.4,19.2L109.8,17.9L108.4,17.0L107.3,16.7L104.8,16.6L102.0,17.2L99.5,18.2L97.2,19.5L95.9,20.3L94.4,21.6L93.1,22.0L92.4,22.5L89.8,25.2L88.7,26.7L88.0,28.2L86.5,29.8L86.0,30.6L85.9,30.9L85.4,31.4L84.5,32.8L84.0,33.3L83.9,33.7L83.1,34.7L82.8,35.5L82.4,36.0L81.7,37.4L80.7,38.7L80.3,39.5L79.6,40.6L77.3,45.3L77.0,46.5L76.6,47.7L76.1,48.4L75.7,50.0L75.7,50.4L74.8,52.3L74.0,55.1L73.3,55.8L73.1,56.4L73.1,56.8L72.5,57.5L72.0,58.8L71.4,59.4L70.9,59.6L70.4,60.3L69.6,60.4L68.5,61.2L66.6,61.3L65.8,61.2L65.5,61.0L64.1,61.1L63.7,60.9L62.5,61.2L62.0,60.7L61.4,60.6L61.0,60.9L60.9,61.4L60.7,61.5L60.5,61.4L60.4,60.9L60.1,60.6L59.3,60.3L58.4,60.1L56.9,59.4L56.4,58.9L55.9,57.4L55.0,56.9L54.4,55.8L53.7,55.2L53.2,54.0L52.6,51.9L50.3,46.5L49.9,45.9L49.7,45.3L49.2,44.3L49.0,44.1L48.3,42.5L47.9,41.7L47.6,41.4L46.4,39.0L45.0,36.7L44.2,35.1L43.1,33.5L42.9,32.9L42.5,32.2L41.9,31.6L41.0,30.1L39.7,28.5L34.0,22.8L33.7,22.6L32.3,21.3L29.3,19.2L27.5,18.5L26.5,17.9L24.6,17.5L23.5,17.6L22.1,17.6L20.6,18.0L18.2,19.2L15.5,21.6L14.2,23.1L12.9,25.5L12.5,26.0L11.7,27.7L10.7,30.6L10.1,33.0L9.9,34.3L9.7,38.5L9.4,39.8L9.4,43.9L9.3,44.3L9.3,47.7L9.4,48.5L9.4,49.5L9.6,49.9L9.9,53.3L10.1,53.7L10.4,55.3L11.5,58.7L11.9,60.2L12.1,60.6L12.7,62.4L13.7,64.0L13.6,64.3L13.4,64.3L12.5,63.5L12.0,63.5L11.9,63.9L11.9,66.2L11.4,67.3L11.4,67.9L11.9,68.7L12.7,71.1L13.2,71.7L13.2,72.0L12.9,72.2L12.1,72.3L12.1,72.5L12.4,72.8L13.0,73.2L13.1,73.4L12.8,73.7L12.9,74.0L14.4,74.1L14.4,74.4L13.1,74.8L13.2,75.1L14.8,75.1L14.9,75.5L14.4,75.9L14.0,76.0L14.2,76.8L15.0,76.9L15.3,77.2L15.9,77.2L16.5,76.8L17.2,76.8L17.4,77.0L17.4,77.3L17.0,77.7L18.5,77.3L20.6,77.0L21.6,77.8L22.6,78.1L23.7,78.3L23.8,78.2L23.9,77.8L23.1,77.6L21.2,76.5L18.6,76.4L18.0,75.6L17.1,75.3L16.8,75.0L16.6,74.5L16.2,74.1L15.4,74.0L15.2,73.8L15.4,73.1L14.5,72.3L14.8,71.7L14.8,71.3L14.0,70.6L14.0,70.3L14.4,70.0L14.4,69.7L13.6,68.8L13.4,68.4L13.4,68.1L13.8,67.7L13.6,67.3L13.8,66.0L14.5,65.8L14.7,65.4L15.0,65.4L16.0,66.0L16.7,66.6L17.7,66.6L19.0,66.4L19.4,65.8L19.3,65.0L19.0,64.8L18.3,65.5L17.9,65.5L17.3,64.9L15.7,63.7L14.4,62.4L14.1,62.0L14.0,61.1L13.1,59.3L13.1,58.6L12.6,57.9L12.6,56.7L11.8,54.3L11.5,52.3L11.5,51.0L10.9,48.0L11.0,44.1L11.2,43.3L11.2,40.2L11.6,37.8L11.6,36.5L11.9,35.4L12.0,34.4L12.2,34.1L12.3,33.4L12.7,31.9L14.3,28.2L16.0,25.2L16.5,24.4L17.6,23.3L19.4,22.1L21.0,21.2L23.2,20.6L24.2,20.6L25.0,20.8L27.1,21.1L28.8,22.1L30.9,23.7L31.7,24.4L33.9,26.0L38.5,30.7L39.0,31.5L40.0,32.6L40.3,33.1L42.2,35.5L42.0,36.3L42.7,37.6L43.5,38.6L43.6,39.0L43.4,39.2L42.6,39.1L42.1,39.6L42.1,39.9L43.8,41.8L45.1,43.6L45.1,44.0L45.4,44.3L45.4,44.6L45.2,44.8L44.9,44.7L44.0,44.1L43.7,44.1L43.8,44.5L44.6,45.2L45.4,46.1L45.4,46.7L45.0,46.7L44.3,46.5L43.8,46.0L42.9,44.6L40.8,42.6L40.1,42.4L40.1,42.8L41.5,44.2L42.9,46.0L43.3,46.4L43.7,46.6L45.8,48.6L46.6,49.7L46.7,50.1L46.4,50.2L44.9,49.4L44.3,49.7L46.0,51.1L46.8,52.5L46.7,52.9L46.1,52.7L44.6,51.7L44.0,51.6L44.0,51.8L45.8,53.5L45.9,53.8L45.6,54.0L45.5,54.3L46.6,55.3L46.9,55.5L47.7,56.3L47.8,56.9L47.5,56.8L46.2,55.5L45.5,55.0L44.8,54.9L44.8,55.3L46.1,56.7L46.1,57.9L44.9,57.7L44.7,58.0L45.6,59.1L45.6,59.9L45.9,60.3L47.1,60.8L47.7,61.4L47.8,61.7L47.7,61.9L47.2,61.9L46.2,61.1L45.3,60.8L45.0,60.5L43.9,60.5L43.9,61.6L44.5,62.4L45.7,63.5L45.6,63.8L45.2,63.8L44.5,63.5L43.8,63.6L43.6,64.0L44.0,64.4L43.9,64.7L43.4,64.7L41.5,64.0L40.9,63.7L40.2,63.6L39.5,63.3L38.4,63.1L37.7,62.9L35.4,62.5L34.4,62.5L34.0,62.9L34.0,63.5L34.2,63.5L35.9,63.6L36.2,63.5L36.6,63.5L38.0,63.8L38.5,64.1L39.9,64.5L41.8,65.5L42.4,65.7L44.6,67.7L44.4,68.0L44.2,67.8L43.2,67.7L42.3,67.4L41.7,67.0L40.8,66.7L40.1,66.7L40.2,67.1L41.8,67.6L42.8,68.2L42.8,68.6L42.6,68.7L41.6,68.7L40.7,68.6L40.1,68.6L42.1,69.5L43.6,70.8L43.3,71.1L42.4,71.1L42.5,71.8L41.5,72.4L41.5,72.8L41.8,73.2L41.9,73.7L41.1,74.5L41.3,75.2L41.0,75.4L40.5,75.5L40.0,76.3L39.5,76.4L39.1,77.1L38.8,77.1L38.3,76.8L36.7,76.8L36.9,77.3L36.8,77.7L35.9,77.3L35.5,77.3L35.6,77.7L36.0,78.2L36.1,78.7L35.8,78.7L35.0,78.3L34.6,78.3L34.7,78.8L35.2,79.4L35.5,79.6L35.5,79.8L35.0,79.8L34.5,79.4L33.9,79.3L33.7,79.4L33.7,79.8L34.1,80.3L33.6,80.7L33.4,80.7L32.4,80.1L31.8,79.9L31.7,80.3L32.3,81.0L32.5,81.4L32.4,81.6L31.8,81.4L31.0,80.8L30.7,80.9L30.8,81.2L31.1,81.6L31.1,82.0L30.9,82.2L30.6,82.2L30.1,81.9L29.7,81.5L29.1,81.4L29.1,81.6L30.1,82.5L30.6,82.7L31.0,83.2L31.3,83.3L31.6,83.6L31.3,83.6L30.8,83.4L29.8,83.3L29.0,83.0L28.5,82.7L28.1,82.7L28.2,83.3L28.6,83.7L29.9,84.3L29.9,84.6L29.3,84.4L28.5,84.4L26.7,83.7L26.2,83.8L26.2,83.9L26.7,84.4L27.0,84.4L27.6,85.1L27.4,85.3L27.1,85.3L25.8,84.8L24.9,84.5L24.4,84.5L24.4,84.9L24.8,85.3L26.2,85.6L26.4,85.9L26.2,86.1L24.2,86.0L24.3,86.2L25.0,86.8L24.8,87.1L24.4,87.1L23.4,86.6L23.3,86.5L22.6,86.2L22.3,86.3L22.3,86.5L22.6,86.7L22.7,87.0L22.6,87.1L21.4,87.0L20.9,87.3L20.0,87.3L19.4,87.5L19.5,87.7L19.9,88.0L21.6,88.2L22.1,88.6L22.1,88.8L21.1,89.3L20.3,90.3L19.6,90.6L18.6,90.8L18.0,91.1L17.0,91.1L17.0,91.6L18.3,92.6L18.2,92.9L17.5,93.0L17.5,93.3L18.0,93.8L18.1,94.1L18.1,95.1L17.5,95.6L17.5,95.8L17.8,96.2L18.3,96.2L18.6,96.6L18.0,96.8L18.0,97.2L19.3,97.2L19.6,97.3L19.6,97.6L19.5,97.7L18.5,98.2L17.9,98.2L17.6,98.6L18.0,99.0L18.9,99.1L19.1,99.2L18.7,100.6L19.2,101.3L18.8,101.7L18.8,102.0L19.2,102.3L19.8,102.3L20.0,102.5L19.8,102.8L18.7,103.1L18.4,103.3L18.5,103.7L19.1,103.8L19.7,104.2L19.6,104.5L19.0,104.7L18.9,104.9L19.6,105.1L19.7,105.3L19.6,105.6L19.1,105.9L18.8,106.3L18.9,106.9L19.1,107.0L19.4,107.4L19.1,107.8L18.9,108.4L19.2,108.7L19.8,108.7L20.2,109.0L20.2,109.2L20.0,109.4L18.0,109.9L18.0,110.2L18.4,110.4L18.5,110.7L17.4,111.0L17.3,111.4L24.7,111.4L25.3,111.1L26.5,111.0L27.3,110.4L27.8,109.6L28.0,108.9L28.6,108.4L29.2,108.4L30.3,109.0L31.3,109.9L31.8,110.8L32.1,111.1L32.5,111.3L48.7,111.3L61.0,111.5L70.4,111.5L74.2,111.6L98.3,111.5L98.9,111.3L100.0,110.3L101.2,109.4L102.0,109.1L102.3,109.1L103.0,109.8L103.1,110.5L103.5,111.0L104.8,111.5L108.3,111.5L110.3,111.1L110.1,110.6L109.9,110.4L109.7,109.4L109.8,109.3L110.1,109.1L110.5,109.1L110.7,108.9L110.3,107.9L110.8,107.9L111.0,107.6L110.8,106.9L110.8,106.5L111.3,105.8L111.3,105.3L110.9,104.8L110.9,104.4L111.4,104.1L111.5,103.3L111.0,102.7L110.0,102.3L109.9,102.1L110.3,101.8L111.0,101.8L111.6,102.2L112.2,102.7L112.6,102.6L112.6,102.2L112.0,101.7L112.0,101.3L112.5,100.8L112.6,100.3L112.5,99.7L111.2,99.1L110.5,98.6L110.6,98.3L111.0,98.3L112.4,98.7L112.6,98.8L113.0,98.7L112.5,98.0L112.0,97.7L111.4,96.9L109.7,96.5L109.4,96.3L109.3,96.0L109.4,95.8L110.9,96.0L111.3,95.7L112.3,95.7L112.2,95.4L111.5,95.1L111.1,94.9L111.1,94.7L111.5,94.5L111.5,94.1L110.1,93.8L109.8,93.6L109.8,93.3L110.7,93.1L112.0,93.1L112.2,92.9L112.2,92.7L111.9,92.4L112.0,92.1L112.8,92.1L113.0,91.7L111.6,91.5L111.1,91.2L109.0,91.0L108.9,90.8L108.9,90.6L110.6,90.6L111.3,90.9L111.5,90.9L111.5,90.6L111.0,90.3L110.6,89.7L110.2,89.5L108.8,89.1L108.9,88.9L109.3,88.8L109.4,88.4L109.4,88.1L108.6,87.5L106.1,87.5L106.0,87.3L106.3,87.0L107.2,87.0L107.5,86.7L107.4,86.0L107.7,85.5L107.6,85.1L106.7,85.2L105.4,86.4L103.4,86.6L102.5,86.5L102.6,86.3L104.2,86.1L105.3,85.8L105.1,85.1L104.7,84.9L103.8,84.9L103.8,84.6L104.0,84.4L104.9,84.0L105.0,83.8L104.7,83.4L102.1,83.8L101.8,83.6L101.8,83.4L102.1,83.1L102.6,82.9L103.2,82.4L103.2,82.0L102.5,81.9L101.2,82.6L100.4,82.8L99.9,82.7L99.9,82.4L101.3,81.9L101.8,81.4L101.9,81.0L101.3,80.9L100.5,81.2L98.8,81.1L99.1,80.1L99.0,79.9L98.6,79.8L97.1,79.8L96.0,80.3L95.7,80.1L96.6,79.6L96.8,79.6L97.6,78.9L96.8,78.8L96.7,77.9L96.1,77.9L95.1,78.5L94.6,78.3L94.9,78.0L95.0,77.6L94.3,76.9L94.3,76.0L93.6,76.3L92.3,77.6L91.9,77.5L91.9,77.3L92.5,76.6L92.9,75.8L92.9,75.2L92.6,74.9L92.3,74.9L91.6,74.3L90.6,74.0L88.5,73.9L87.6,73.2L87.4,72.2L86.4,71.3L86.7,71.0L88.0,70.5L90.3,70.1L91.1,69.8L92.0,69.6L92.6,69.1L92.6,68.9L92.0,68.7L90.5,68.9L89.0,69.3L88.0,70.1L87.5,70.1L87.0,69.8L87.0,69.3L86.7,69.0L85.9,68.9L85.7,68.7L85.8,68.5L87.7,67.6L88.8,67.3L89.3,67.1L90.5,66.9L93.1,66.2L94.6,66.1L95.1,66.0L95.1,65.8L94.0,65.6L91.3,65.7L90.7,65.9L89.4,66.0L87.2,66.5L85.5,67.2L85.3,67.2L85.1,67.1L85.1,66.7L86.1,65.9L87.0,64.4L86.7,64.1L85.3,64.3L85.1,64.0L86.0,62.9L85.9,62.4L84.9,62.0L84.0,62.0L83.7,61.9L83.5,61.5L84.5,60.5L85.5,60.7L86.0,60.6L87.5,59.0L87.5,58.7L87.4,58.5L87.0,58.5L85.8,59.3L85.3,59.2L85.2,58.9L85.6,58.2L86.3,57.5L86.3,57.2L86.0,56.7L85.9,56.0L84.9,56.2L84.8,55.7L85.0,55.2L84.9,54.9L84.3,55.1L84.1,54.9L84.1,54.7L84.5,54.1L84.7,53.4L85.1,52.8L85.3,52.3L84.5,52.4L84.4,52.3L84.4,51.5L84.3,51.3L83.7,51.2L83.7,51.0L84.0,50.5L84.1,49.9L83.4,49.7L83.0,49.4L82.6,49.2L82.5,49.0L82.9,48.2L82.9,47.6L82.2,47.7L81.7,47.7L81.7,47.4L83.9,45.1L83.9,44.7L83.7,44.2L83.7,42.8L85.2,41.3L85.4,40.8L85.4,40.5L85.1,40.5L83.9,41.0L83.8,40.8L83.9,40.5L84.4,40.0L85.3,39.8L86.5,38.5L86.5,38.1L86.0,37.6L86.0,37.2L87.1,35.9L87.1,35.3L86.8,34.5L86.9,33.9L87.2,33.5L87.5,32.9L88.9,31.3L89.6,30.2L94.1,25.5L97.7,22.5L102.3,20.2L104.5,19.7L106.9,19.7L108.0,20.2L110.0,21.5L111.5,22.9L112.5,24.3L113.5,26.3L114.0,27.9L115.1,30.1L115.5,32.3L116.3,35.2L116.4,35.9L116.6,36.4L117.1,39.5L117.5,43.4L117.6,50.7L117.4,51.6L117.4,52.7L117.0,54.7L117.0,55.3L116.1,57.9L116.1,58.6L115.1,60.9L113.3,62.9L112.1,63.3L111.9,63.5L111.9,63.7L111.3,64.2L110.1,64.4L110.1,64.7L110.5,64.9L112.0,65.0L113.0,64.8L113.4,65.0L114.2,66.0L114.9,68.7L114.6,70.6L114.0,72.0L113.1,72.7L113.2,73.4L113.0,73.6L111.6,73.7L111.6,73.9L113.2,74.5L115.1,74.5L115.3,74.3L115.3,74.1L114.5,73.9L114.2,73.7L114.2,73.4L115.2,71.6L115.4,70.6L115.6,70.1L115.6,69.3L115.8,68.6L115.8,65.9L115.4,64.4L114.5,64.0L114.5,63.9L115.1,63.5L115.7,62.8L115.9,62.4L116.7,61.6L117.0,61.1L117.1,60.4L117.2,60.2L117.6,58.9L117.8,56.9L118.6,54.2L118.9,52.1L119.0,46.6L118.8,44.7L118.6,44.1L118.6,40.0L117.7,34.3L117.3,32.9L117.1,31.3L116.7,30.3L116.2,27.7L116.0,27.2L115.4,25.2L113.0,21.1Z M108.4,104.3L108.8,104.3L108.9,104.8L108.4,104.7L108.3,104.5Z M109.4,99.1L110.1,99.3L110.0,99.6L109.4,99.4L109.3,99.2Z M90.1,99.7L90.6,101.1L90.2,102.3L88.1,104.8L86.8,105.6L85.8,106.1L84.9,106.4L82.5,106.4L81.0,106.0L80.1,105.0L79.6,103.7L79.7,102.1L80.0,101.0L80.7,99.9L81.6,99.2L82.6,98.7L83.4,98.7L83.4,100.0L83.9,102.2L84.5,104.0L85.0,104.7L85.7,104.6L86.0,104.2L86.1,103.5L86.1,102.2L85.9,101.4L85.7,99.9L85.5,99.3L85.0,98.5L85.0,98.2L85.2,98.1L86.5,98.0L87.4,98.2L89.0,98.7Z M40.9,100.0L41.6,99.2L43.2,98.2L44.1,98.1L44.7,97.8L45.6,97.8L45.9,98.0L46.1,98.5L45.6,100.3L45.5,102.8L45.9,104.5L46.4,104.9L46.6,104.9L47.1,104.3L47.1,103.7L47.8,101.6L48.1,99.8L48.1,98.9L48.3,98.6L48.7,98.5L50.2,99.4L51.2,100.7L52.0,102.4L52.0,103.5L51.8,104.1L51.2,105.5L50.6,106.1L50.2,106.3L48.2,106.4L47.7,106.2L46.4,106.1L45.2,105.8L43.5,104.8L42.2,103.7L41.0,101.8L40.8,100.7Z M101.4,96.6L101.5,96.4L102.0,96.4L102.2,96.5L102.2,96.7L101.6,96.7Z M105.8,94.6L105.9,94.9L105.7,94.8Z M108.6,94.3L108.8,94.1L109.9,94.3L109.9,94.6L108.9,94.6Z M101.0,94.0L101.7,93.9L102.2,94.1L102.2,94.2L102.0,94.4L101.3,94.4L101.1,94.3Z M103.8,92.6L106.0,92.7L106.3,93.0L106.1,93.1L104.4,93.1L103.8,92.9Z M108.4,92.1L108.5,91.9L109.4,91.9L109.9,92.1L109.8,92.4L109.4,92.4Z M99.6,91.5L101.4,91.5L101.6,91.6L101.6,91.9L99.8,91.9L99.7,91.8Z M101.4,90.7L101.5,90.5L102.3,90.7Z M103.9,90.5L104.0,90.1L104.3,90.0L105.0,90.0L105.4,90.1L105.6,90.5L105.4,90.7L104.3,90.6Z M99.1,89.1L98.1,89.5L97.6,90.0L96.3,90.0L96.5,89.6L97.7,89.3L98.2,88.9Z M105.1,88.6L105.0,88.9L104.4,88.6Z M36.1,87.5L36.6,87.5L37.8,88.1L37.5,88.4L36.9,88.1L36.7,87.9L36.1,87.7Z M101.2,87.7L100.3,88.0L99.2,88.0L99.2,87.7L100.3,87.4L100.9,87.4Z M32.4,86.3L32.7,86.1L32.9,86.4Z M33.9,84.5L34.2,84.5L35.6,85.1L36.3,85.8L36.1,86.0L35.6,85.9L34.6,85.2L33.9,84.9L33.8,84.8Z M93.1,84.3L93.5,84.2L93.8,84.4L93.5,84.5Z M36.5,84.2L37.1,84.2L37.8,84.6L38.5,85.2L38.4,85.4L37.8,85.4L36.4,84.4Z M33.4,82.4L33.9,82.4L33.9,82.7L33.4,82.5Z M97.7,81.5L97.8,81.4L98.1,81.7L97.8,81.8Z M53.3,78.3L53.7,78.3L54.0,79.0L53.9,79.3L53.6,79.3Z M93.3,77.9L93.0,78.1L93.0,78.3L92.0,79.2L91.7,79.0L92.0,78.7L92.1,78.3L92.4,77.9L93.0,77.8Z M83.6,73.5L83.6,73.7L82.3,75.2L82.0,75.3L81.9,75.2L81.9,74.9L82.8,73.7L83.4,73.4Z M83.3,72.0L83.3,72.2L81.9,73.5L81.4,73.6L81.4,73.2L82.6,72.1L82.9,71.9Z M79.4,71.1L79.3,71.5L78.8,71.7L78.8,71.5L79.2,71.0Z M83.0,66.0L82.9,66.6L81.4,68.1L80.8,69.4L80.3,69.6L80.0,69.3L80.0,68.8L80.6,68.0L82.3,66.2L82.7,66.0Z M82.3,64.9L82.3,65.1L81.4,65.9L81.3,66.2L80.9,66.6L80.5,66.5L80.5,66.3L81.9,64.8Z M81.6,63.0L81.6,63.3L81.0,63.8L80.8,63.7L80.8,63.5L81.3,63.0Z M49.3,60.4L49.5,60.4L49.8,60.9L49.7,61.1L49.5,61.1L49.3,60.9Z M83.2,59.5L83.3,60.0L82.6,60.9L82.2,61.2L82.0,60.9L82.4,60.1L82.9,59.6Z M48.0,52.2L48.2,52.2L48.4,52.4L48.4,52.7L48.2,52.7L47.9,52.3Z M83.3,51.2L83.5,51.5L83.4,51.8L82.8,52.4L81.8,53.1L81.1,53.8L80.9,53.5L81.2,53.3L81.5,52.4L82.1,51.8Z M81.9,50.1L81.7,50.4L81.4,50.4L81.6,50.0Z M83.2,41.5L83.2,41.7L82.9,42.0L82.7,41.7L82.9,41.5Z M83.4,41.0L83.8,41.1L83.6,41.3Z" fill="#000" fill-rule="evenodd"/>
</svg>