<svg xmlns="http://www.w3.org/2000/svg" viewBox="0 0 128 128" width="128" height="128">
  <path d="M90.2,61.1L89.6,62.1L89.6,62.9L90.2,64.6L90.6,65.1L91.5,66.8L92.3,67.5L93.1,69.1L94.4,70.6L94.9,71.5L97.1,73.5L98.4,75.1L99.5,75.9L100.9,76.8L102.8,77.6L103.6,77.7L104.4,78.1L107.6,78.2L108.7,77.9L109.1,77.6L109.1,77.3L108.8,77.1L108.0,77.1L107.7,77.2L104.9,77.2L103.7,77.0L101.8,76.3L101.0,75.7L100.3,75.4L99.5,74.6L97.7,72.5L97.4,71.9L97.7,71.7L98.0,71.7L99.2,72.7L100.1,73.3L101.3,73.8L101.8,74.2L103.4,74.9L104.4,75.2L105.3,75.6L106.2,75.7L108.7,75.7L110.5,75.1L111.2,74.7L111.3,74.2L111.2,74.0L110.5,74.0L110.0,74.3L108.8,74.4L107.9,74.7L105.9,74.7L103.7,74.1L102.8,73.6L102.6,73.6L101.8,73.2L100.1,71.9L98.7,70.5L98.6,70.0L99.4,70.0L99.8,70.3L100.7,70.7L101.8,71.5L102.1,71.6L104.2,72.6L105.3,72.8L105.9,73.1L109.8,73.0L112.0,72.3L112.7,71.8L112.7,71.5L112.5,71.4L111.8,71.4L111.2,71.7L110.5,71.8L110.2,71.9L105.4,71.9L104.2,71.5L103.8,71.5L103.1,71.2L102.3,70.5L101.0,69.9L100.1,69.0L100.2,68.6L100.5,68.5L101.0,68.7L102.1,69.3L103.0,69.6L103.9,70.1L105.0,70.3L105.5,70.6L106.2,70.8L108.7,70.8L110.2,70.6L111.4,70.2L112.1,69.9L112.7,69.5L113.2,69.3L113.4,69.0L113.5,68.7L113.4,68.5L112.6,68.5L111.3,69.0L110.5,69.6L109.7,69.9L106.4,69.9L105.9,69.8L104.3,69.3L103.7,68.7L102.6,68.1L102.0,67.5L101.7,67.0L102.0,66.7L103.0,66.7L103.5,66.9L104.0,66.9L104.4,67.1L105.9,67.4L110.2,67.4L110.8,67.1L112.2,66.1L112.7,65.9L112.7,65.6L112.0,65.5L110.5,66.3L108.7,66.4L108.2,66.6L105.5,66.5L104.4,66.2L104.0,65.9L103.6,65.9L102.4,65.0L101.8,64.8L101.0,64.3L99.9,63.3L98.7,62.0L98.4,61.8L97.3,60.6L96.3,59.8L95.4,59.4L94.7,58.8L94.1,58.6L93.1,58.7L92.4,59.0L92.1,59.3L92.1,59.6L91.8,60.0L91.3,60.3L90.9,60.4Z M28.1,48.1L28.1,48.9L28.4,49.2L29.6,49.1L30.0,48.5L30.0,48.1L29.5,47.6L28.7,47.6Z M119.1,52.1L119.0,51.9L118.6,51.9L117.6,53.1L116.9,54.2L114.8,56.2L114.2,56.5L113.7,57.0L113.0,57.4L110.5,58.3L108.6,58.4L108.0,58.5L105.7,58.4L105.2,58.1L105.2,57.8L105.5,57.2L107.6,57.1L108.4,57.0L109.9,56.4L110.9,56.2L112.4,55.3L115.7,52.8L116.8,51.7L117.7,50.4L118.0,49.4L118.4,49.0L118.4,48.7L118.2,48.6L117.8,48.6L117.4,48.9L116.9,50.0L114.6,52.6L112.5,54.1L111.7,54.5L111.3,54.9L108.7,55.9L107.7,55.9L107.1,56.2L105.8,56.2L105.4,56.1L105.2,55.5L105.4,55.2L105.9,54.9L107.0,54.9L107.9,54.6L108.7,54.4L109.6,53.9L110.2,53.8L110.5,53.5L111.2,53.3L112.4,52.2L113.6,51.5L115.0,50.0L116.3,48.4L117.1,47.1L117.4,46.1L117.4,45.6L117.0,45.6L116.6,45.9L116.5,46.5L115.5,48.1L114.3,49.5L113.0,50.7L112.0,51.2L109.7,52.9L108.1,53.7L107.6,53.7L106.6,54.0L105.9,54.0L105.5,53.7L105.4,53.3L105.5,52.5L105.8,52.2L108.2,51.7L110.7,50.2L113.6,47.4L114.4,46.2L116.0,43.6L116.0,43.1L115.8,42.9L115.5,42.9L115.0,43.3L114.8,44.0L114.5,44.3L114.3,44.7L114.0,45.1L114.0,45.3L113.7,45.7L113.2,46.7L110.6,49.0L109.5,49.8L107.3,50.7L106.6,50.9L105.9,50.9L105.4,50.5L105.5,50.0L105.9,49.4L109.5,47.5L110.5,46.8L111.1,46.2L111.6,45.3L112.6,44.2L113.7,42.2L113.7,41.7L113.3,41.7L112.9,42.1L112.7,42.4L112.0,43.4L111.8,43.9L110.2,45.8L109.0,46.9L108.6,47.1L108.3,47.4L107.7,47.5L106.4,48.4L105.7,48.6L104.6,48.7L102.4,48.3L97.1,48.3L95.9,48.1L94.9,48.1L94.1,48.4L93.4,49.3L93.4,53.1L93.1,54.3L93.1,55.1L93.4,55.6L93.5,55.6L94.3,56.2L95.3,56.8L99.6,58.1L101.9,59.1L103.4,59.5L106.4,59.4L106.9,59.6L107.8,59.6L112.3,58.8L114.4,57.8L115.6,57.0L117.4,55.1L117.8,54.4L118.8,53.3L119.1,52.6Z M77.9,29.0L76.8,28.8L76.5,28.7L74.8,28.7L73.4,28.5L71.8,28.5L69.3,28.3L67.8,28.4L67.0,28.7L66.0,28.8L64.9,29.3L63.4,29.4L62.5,29.9L61.9,30.5L60.8,31.0L59.9,31.7L59.1,32.1L58.1,33.1L57.2,34.4L56.4,35.2L55.7,36.2L55.2,36.7L54.8,37.5L54.3,38.2L52.8,38.7L52.1,38.7L51.5,38.9L50.6,39.0L47.8,39.8L46.2,40.5L45.1,41.1L44.5,41.2L43.9,41.6L43.1,41.8L41.8,42.7L40.5,43.1L39.8,43.6L38.5,43.7L38.0,44.0L36.6,44.3L35.9,44.3L35.2,44.0L34.0,42.8L33.4,41.6L33.1,41.2L32.6,40.5L32.0,39.9L31.5,39.6L30.9,39.6L30.1,40.3L29.6,41.2L29.2,41.5L28.4,41.4L26.8,40.2L25.9,40.2L25.3,40.7L25.0,41.4L25.0,44.4L24.8,44.7L20.7,47.8L19.5,48.4L16.2,48.7L15.4,49.0L12.8,49.0L11.6,48.7L10.3,48.6L9.6,48.8L9.2,49.3L9.1,51.8L9.3,52.1L9.6,52.4L10.8,53.1L11.5,53.2L13.3,53.7L13.7,53.7L14.0,53.9L14.0,54.2L13.1,55.2L13.4,55.6L14.0,55.5L15.3,54.2L15.6,54.0L16.4,54.0L17.1,54.4L17.1,54.9L16.8,55.4L16.8,56.0L17.0,56.2L17.5,56.1L17.8,55.6L18.3,55.1L18.4,54.7L19.0,54.3L19.4,54.3L19.7,54.4L21.4,54.3L22.4,54.7L24.3,54.7L25.6,55.0L25.8,55.5L25.6,55.7L25.0,55.9L24.8,56.2L23.8,56.6L22.5,56.9L21.2,57.0L20.6,57.4L19.6,57.7L16.9,57.8L16.5,57.7L16.2,57.3L16.1,57.0L15.6,56.4L15.3,56.2L15.0,56.2L14.7,56.5L15.0,57.5L14.6,57.9L13.7,57.8L13.1,57.4L12.7,56.5L12.1,55.9L11.8,55.9L11.5,56.2L11.5,57.0L11.2,57.2L10.4,57.3L9.9,57.8L9.6,58.7L9.5,59.7L10.1,60.5L10.6,60.8L12.7,61.5L13.0,61.7L14.0,61.9L14.5,62.1L15.3,62.2L15.8,62.4L17.0,62.7L22.4,62.7L24.7,62.1L26.1,61.7L26.4,61.5L29.2,60.9L30.1,60.6L31.8,60.5L32.8,60.2L35.4,60.2L36.5,60.4L37.3,60.4L39.0,60.9L41.6,61.4L43.8,62.1L46.4,62.6L46.7,62.8L46.9,63.1L46.8,63.8L46.5,64.6L46.4,65.6L46.0,67.1L45.5,67.7L44.9,68.1L43.2,68.8L41.9,69.6L41.2,69.9L40.5,70.3L39.7,70.6L38.9,71.2L37.3,71.9L34.7,72.0L34.2,72.2L33.4,72.3L32.5,72.6L31.9,72.7L30.6,73.3L29.4,73.4L28.4,73.9L25.2,76.5L23.5,78.4L23.2,79.1L23.4,83.7L24.3,85.3L24.6,85.2L24.7,84.6L24.6,84.3L24.6,83.4L24.3,81.7L24.3,80.2L24.6,79.3L26.7,77.5L27.9,77.0L29.7,76.5L30.3,76.5L30.6,76.6L30.6,76.8L30.5,77.0L30.2,77.1L29.3,77.8L28.1,79.6L27.7,80.4L27.4,81.8L27.4,83.9L27.6,85.0L27.9,85.4L28.2,85.4L28.4,84.9L28.3,83.9L28.3,83.1L28.4,82.6L28.7,82.3L29.3,80.8L30.0,79.6L30.8,78.9L31.6,78.3L33.5,77.5L34.0,77.7L33.6,78.2L32.4,79.1L32.1,79.7L31.2,80.9L30.7,82.6L30.6,84.0L30.8,85.1L31.2,86.2L31.5,86.5L31.8,86.5L32.0,86.4L31.7,85.3L31.7,83.8L32.3,81.8L33.4,80.6L35.3,78.7L37.4,77.8L38.1,77.8L38.3,78.0L38.2,78.3L36.1,80.6L35.8,81.5L35.3,82.3L35.3,84.0L35.1,85.2L35.1,86.0L35.4,87.4L36.5,90.2L36.9,90.6L37.4,90.6L37.4,90.0L37.2,89.6L36.7,88.0L36.4,87.4L36.1,85.7L36.4,82.4L36.8,81.5L38.1,80.2L38.4,80.1L39.2,79.2L41.2,79.0L41.3,79.0L41.4,79.5L41.1,80.1L40.3,81.1L39.6,82.7L39.1,84.2L39.0,85.3L39.3,86.7L39.3,87.6L39.7,89.0L40.4,89.9L41.5,90.5L41.8,90.4L41.9,89.9L41.0,89.0L40.6,88.1L40.6,86.3L40.4,85.8L40.4,84.9L40.6,84.0L41.2,83.0L43.8,79.9L44.9,79.3L45.7,79.3L46.4,79.0L47.6,77.8L48.1,76.7L48.6,76.2L50.2,73.4L50.9,72.9L51.5,72.1L52.7,71.1L54.2,68.9L55.9,66.8L56.5,65.8L57.1,65.8L57.2,67.1L57.6,68.7L57.6,69.3L58.0,70.8L57.8,74.2L58.1,74.6L58.1,75.4L57.7,76.4L57.2,77.1L55.7,78.6L54.3,79.5L53.5,80.4L52.8,80.8L51.2,82.1L49.7,83.1L48.1,83.9L46.5,85.0L45.6,86.3L44.3,88.9L44.3,91.8L44.6,92.8L45.0,94.0L45.1,94.6L45.5,94.9L45.8,94.9L46.1,94.6L46.1,93.2L45.5,91.6L45.5,90.3L46.1,88.3L46.3,88.1L46.9,86.8L47.8,85.9L49.2,84.9L49.7,84.8L50.3,84.9L50.4,85.0L50.4,85.2L49.1,87.2L48.7,89.0L47.7,90.9L47.5,92.1L47.1,93.6L47.1,94.6L47.3,95.2L47.9,96.2L48.4,97.6L48.7,98.4L49.1,98.7L49.4,98.7L49.6,98.6L49.6,98.1L49.1,96.8L49.0,95.9L48.7,94.6L48.5,93.3L48.6,92.0L48.8,91.0L49.7,89.3L49.9,88.7L50.3,88.1L52.0,86.7L52.7,86.5L52.8,86.6L52.8,87.0L52.1,87.9L51.7,89.8L50.9,91.1L50.7,92.1L50.6,93.7L50.7,94.9L50.9,95.9L50.9,96.7L51.2,97.5L51.3,97.7L51.4,98.1L51.7,98.7L52.6,99.8L52.9,99.9L53.1,99.8L53.1,99.2L52.6,98.5L52.2,97.7L51.8,95.8L51.8,93.2L52.3,90.9L52.7,90.2L53.1,89.7L53.7,88.8L54.9,87.5L55.9,87.2L56.0,87.4L55.9,87.9L55.1,89.3L54.4,90.9L54.2,92.5L53.9,93.7L53.9,94.5L54.6,96.5L54.8,97.8L55.5,99.3L56.0,99.8L56.3,99.7L56.5,99.6L56.5,99.1L55.7,97.7L55.3,96.3L55.3,94.3L55.0,93.4L55.2,93.0L55.3,91.8L56.2,89.8L57.1,88.9L57.5,88.7L57.7,88.9L57.6,89.6L57.1,90.9L57.1,92.1L57.0,92.5L56.9,95.6L57.1,96.3L57.1,96.9L57.6,97.8L58.4,98.7L58.7,99.3L59.3,99.8L59.7,99.8L59.9,99.6L59.8,99.2L58.3,97.1L57.9,96.1L57.9,92.6L58.3,91.3L59.3,89.5L59.6,88.5L60.1,88.0L60.5,87.2L60.9,86.8L61.9,86.4L62.6,85.5L63.3,83.6L63.7,81.7L64.5,80.4L65.0,78.5L66.0,76.7L66.6,74.3L66.7,72.3L66.8,72.0L67.1,70.6L67.4,70.3L68.4,70.3L69.8,70.9L70.7,71.1L71.6,71.1L72.2,70.9L73.1,71.1L74.0,71.1L74.7,70.9L75.6,70.9L76.5,70.6L77.1,70.5L78.2,70.0L79.4,69.7L80.5,68.7L81.4,68.2L82.2,67.6L84.2,65.6L84.5,65.5L84.8,65.0L86.3,63.6L86.8,62.4L88.1,60.9L88.9,59.3L89.0,59.0L89.4,58.4L89.9,57.6L90.5,55.9L90.6,55.1L90.9,54.4L91.1,52.6L91.5,51.5L91.5,49.7L91.8,48.4L91.8,47.1L91.4,46.0L91.3,44.3L90.6,42.5L90.1,41.5L89.6,40.0L88.9,38.4L86.8,35.7L84.4,33.2L83.7,32.8L83.1,32.2L82.1,31.7L81.5,31.1Z M31.7,46.9L32.0,47.7L32.0,48.1L31.7,48.7L30.5,49.7L28.3,50.3L27.0,50.3L26.7,49.9L26.3,49.2L26.2,48.4L26.7,47.4L27.3,46.8L27.7,46.6L29.8,46.5L30.2,46.6L31.2,46.6Z" fill="#000" fill-rule="evenodd"/>
</svg>