<svg xmlns="http://www.w3.org/2000/svg" viewBox="0 0 128 128" width="128" height="128">
  <path d="M92.1,15.4L91.4,15.3L91.2,15.6L90.2,18.7L88.8,22.3L88.2,24.5L87.8,25.3L86.8,28.6L85.6,31.7L83.7,37.4L82.4,40.6L81.8,42.6L81.5,43.3L81.1,44.8L80.9,44.9L79.9,48.1L79.5,48.7L79.5,49.3L79.0,50.5L78.6,51.7L78.2,52.6L77.3,55.5L76.4,57.5L76.1,58.5L75.5,60.2L75.3,61.2L75.1,61.3L75.0,62.0L74.5,62.9L72.8,68.0L71.9,70.2L71.8,70.8L71.2,72.2L70.9,73.6L70.1,75.4L68.4,80.5L68.1,81.1L67.9,82.0L67.0,84.4L66.9,85.0L66.2,86.6L65.0,90.2L64.8,91.6L65.4,91.9L68.1,91.7L72.0,90.5L74.6,89.4L76.7,88.1L78.9,86.5L80.4,84.9L81.8,83.2L82.1,82.8L82.1,82.5L81.8,82.1L79.8,80.9L78.1,79.7L74.9,76.4L73.3,74.3L73.1,73.7L73.1,73.1L73.5,72.2L74.8,70.4L75.9,69.1L77.9,67.2L80.6,65.1L82.9,63.8L84.7,62.9L85.4,63.0L85.7,63.5L85.7,83.3L85.3,84.1L84.5,85.1L84.2,85.6L82.1,88.1L79.3,90.5L76.4,92.2L73.3,93.6L70.5,94.5L68.5,94.8L67.7,95.0L64.6,95.3L60.4,95.1L57.9,94.6L54.7,93.6L53.4,93.1L53.0,92.8L52.5,92.7L52.0,92.2L50.3,91.4L46.7,88.6L43.9,85.5L42.9,83.9L42.7,64.0L43.0,63.4L43.6,63.4L45.3,64.0L46.5,64.6L46.8,64.8L49.3,66.3L50.9,67.5L52.7,69.1L55.4,72.4L56.1,73.6L55.7,74.8L54.5,76.5L53.3,77.9L49.9,81.0L48.6,81.9L48.5,81.9L47.1,82.9L47.0,83.8L48.4,85.4L50.4,87.1L52.7,88.8L53.2,88.9L54.1,89.5L56.1,90.4L59.1,91.3L60.0,91.4L60.3,91.6L63.2,91.9L63.7,91.8L64.0,91.6L63.8,90.2L63.5,89.6L62.5,86.6L62.0,85.8L61.5,84.0L61.5,83.7L61.1,83.2L60.3,80.6L58.7,76.3L58.6,75.4L57.3,72.5L56.7,70.5L55.3,67.1L55.2,66.6L53.1,61.4L53.0,60.9L50.8,55.4L50.6,54.4L49.6,51.9L49.6,51.6L49.3,51.1L49.2,50.6L47.5,46.5L45.8,41.4L44.5,38.4L43.0,33.8L41.9,31.3L40.8,27.9L39.9,25.7L38.8,22.3L38.3,21.5L37.3,18.4L37.0,17.8L37.0,17.5L36.2,15.6L35.8,15.5L35.5,15.8L33.8,18.9L33.5,19.3L33.3,19.9L32.7,21.0L32.5,21.5L31.6,23.0L31.0,24.4L30.6,25.0L30.1,26.2L29.9,26.4L29.7,27.0L28.7,28.5L28.2,29.8L27.9,30.2L26.8,32.6L25.9,34.0L25.2,35.7L24.1,37.5L23.1,39.7L22.6,40.3L20.9,43.9L19.6,46.4L19.4,47.0L18.7,48.0L16.4,52.7L15.7,53.8L15.1,55.0L14.6,55.5L14.1,57.0L13.7,57.3L13.2,58.6L12.5,59.7L10.8,64.0L9.6,69.2L9.3,72.2L9.4,76.7L9.9,80.4L10.4,82.1L10.6,83.2L11.2,84.7L11.2,85.2L12.0,87.1L12.4,87.7L14.1,91.0L15.6,93.1L15.7,93.5L18.1,96.4L21.2,99.4L22.2,100.1L23.1,100.9L24.5,101.8L27.6,104.0L28.4,104.3L29.3,104.9L31.9,106.2L33.9,106.9L35.7,107.8L37.3,108.4L37.9,108.5L38.3,108.7L39.2,109.0L40.0,109.4L41.8,109.8L42.8,110.3L43.5,110.3L44.6,110.8L46.7,111.1L47.7,111.4L48.6,111.5L49.6,111.9L50.8,112.0L53.1,112.5L55.3,112.7L60.9,113.1L68.8,113.1L70.9,112.8L72.1,112.8L74.4,112.4L75.9,112.3L83.1,110.8L88.2,109.1L94.6,106.6L95.4,106.1L96.0,105.9L97.1,105.2L97.7,105.0L99.8,103.8L101.6,102.9L102.4,102.4L103.9,101.5L105.5,100.2L106.0,100.1L108.1,98.0L108.6,97.7L111.5,94.5L113.0,92.5L115.1,89.1L115.4,88.3L116.5,86.1L116.8,85.0L117.4,84.3L117.8,84.2L117.5,83.4L117.5,82.9L117.9,82.1L118.2,80.3L118.5,79.2L119.0,75.3L118.9,70.3L118.7,69.8L118.6,68.2L118.0,65.2L116.8,61.2L114.9,57.1L112.8,53.3L111.3,50.5L110.0,48.2L108.7,45.7L107.9,44.6L107.7,43.8L107.4,43.6L106.6,42.0L105.5,40.0L103.8,36.8L103.2,35.8L101.5,32.6L100.5,31.0L100.1,30.1L99.4,29.2L99.1,28.3L98.5,27.3L98.2,26.7L97.1,24.9L96.8,24.0L96.0,22.9L95.3,21.4L95.0,21.0L93.8,18.5L92.5,16.4Z M36.2,82.1L36.6,81.8L36.9,81.8L37.3,82.2L37.1,82.5L36.6,82.6L36.2,82.2Z M23.4,64.0L24.1,64.0L24.3,64.4L24.4,75.3L24.6,78.0L24.7,84.3L24.4,84.6L23.7,84.6L20.3,83.2L20.0,82.8L18.7,82.2L18.0,81.5L17.5,81.4L15.5,79.7L13.4,77.5L13.1,77.0L12.0,75.6L11.7,74.8L11.7,74.2L12.0,73.5L13.0,71.9L16.3,68.4L17.1,67.9L18.2,66.8L20.2,65.5Z M104.4,62.5L105.6,62.9L109.6,65.0L111.7,66.5L114.4,69.1L116.2,71.3L117.1,72.5L117.0,73.7L115.7,75.7L114.4,77.2L112.0,79.4L109.5,81.3L106.5,83.0L104.8,83.7L104.2,83.7L103.9,83.3L103.8,63.2L103.9,62.9Z" fill="#000" fill-rule="evenodd"/>
</svg>