<svg xmlns="http://www.w3.org/2000/svg" viewBox="0 0 128 128" width="128" height="128">
  <path d="M49.1,102.5L49.1,104.9L49.3,107.2L49.6,108.1L49.9,110.1L50.2,110.8L50.5,111.1L51.2,111.1L52.5,110.2L53.2,110.0L54.9,109.1L55.5,109.0L55.9,108.7L57.3,108.6L59.4,109.8L61.4,111.4L63.8,113.6L64.3,113.7L64.8,113.3L64.9,109.7L64.5,106.8L64.3,103.1L64.1,102.6L63.8,102.4L63.3,102.4L61.3,103.7L59.1,105.0L57.6,105.4L56.6,105.4L54.8,104.6L53.9,104.3L51.6,103.2L50.3,102.3L49.3,102.2Z M84.1,102.6L83.7,102.2L82.6,102.2L81.3,102.7L79.8,102.9L74.1,104.8L72.5,105.0L71.7,105.5L70.7,105.6L70.3,105.9L69.0,106.1L68.4,106.5L67.6,107.5L67.6,108.7L68.3,109.2L70.0,109.0L70.5,108.7L71.3,108.6L73.9,107.7L75.5,107.4L76.0,107.1L77.4,106.8L77.7,106.7L81.9,105.5L83.0,105.0L83.7,104.6L84.2,103.2Z M94.4,15.0L93.7,15.2L91.6,17.0L88.7,19.7L85.0,23.5L81.5,28.0L81.2,28.7L79.9,30.6L79.6,31.3L79.1,32.0L78.5,33.7L77.9,34.6L77.6,36.1L77.1,36.8L76.0,40.1L75.0,44.7L74.4,49.4L74.4,58.0L73.9,58.5L73.6,58.4L72.8,57.6L68.4,51.3L65.1,47.0L64.9,46.5L62.4,43.1L62.4,42.9L57.6,37.3L53.7,33.3L51.4,31.2L44.9,25.8L44.1,25.3L41.8,23.6L38.3,21.5L35.7,20.2L30.7,17.1L29.8,17.0L29.6,17.2L29.8,20.2L30.1,21.2L30.2,22.6L31.0,26.3L31.2,26.6L31.5,28.5L32.2,29.7L33.0,32.1L34.1,34.3L36.1,37.4L37.1,38.7L37.7,39.8L41.2,44.3L45.4,48.4L46.2,49.0L48.4,50.9L51.5,52.9L52.2,53.2L52.5,53.6L54.4,54.5L55.5,54.8L55.8,55.1L58.5,56.2L59.1,56.6L59.9,56.8L60.9,57.4L62.8,57.9L64.5,58.8L65.4,59.0L65.5,59.4L65.2,59.7L63.4,59.9L62.5,60.2L59.2,60.7L57.4,61.1L54.8,62.0L53.0,62.9L52.5,63.0L51.1,63.9L50.6,64.0L48.8,65.6L47.6,66.2L45.7,67.9L44.1,69.6L41.2,73.7L40.3,76.2L39.8,78.8L39.8,80.9L40.1,82.5L41.0,84.6L42.1,86.3L44.0,88.2L44.3,88.3L45.3,89.2L45.5,89.2L46.1,89.8L48.6,91.2L51.0,92.3L51.7,92.8L52.8,93.1L53.6,93.5L55.5,93.8L56.3,94.3L56.4,95.0L55.6,97.1L55.4,99.3L55.5,100.2L55.8,100.9L56.0,102.3L56.3,102.8L56.8,103.2L57.4,103.2L58.2,102.8L60.8,101.3L62.4,100.6L63.5,99.9L67.0,98.3L67.4,98.4L67.9,98.9L67.7,102.6L68.1,103.0L69.0,103.0L70.4,102.4L72.4,101.8L75.5,100.6L76.4,100.4L78.4,99.4L78.7,99.4L82.1,97.7L84.7,96.0L85.3,95.2L85.4,94.6L85.8,94.0L86.9,90.4L87.4,86.5L87.7,81.1L87.9,80.2L87.8,76.5L87.2,73.2L86.3,70.8L86.3,70.6L84.6,67.3L81.8,63.6L81.7,63.0L82.1,62.3L83.6,60.8L85.6,58.4L87.8,55.3L90.1,50.9L90.4,49.5L91.1,48.0L91.1,47.6L91.6,46.5L91.8,45.5L91.9,45.3L92.5,43.6L93.1,41.0L93.3,38.7L93.9,35.0L94.3,31.3L94.4,19.5L94.6,18.1L94.6,15.2Z M57.5,83.2L58.1,82.8L58.4,82.8L59.1,83.4L59.2,83.7L59.1,83.9L57.8,83.7L57.5,83.5Z M53.9,67.3L55.3,67.3L56.7,67.8L57.5,68.6L58.1,69.3L58.7,71.1L58.4,72.9L57.9,73.8L57.0,74.8L55.4,75.5L53.7,75.5L52.0,74.6L51.0,73.6L50.4,71.9L50.4,70.9L50.8,69.6L51.0,69.1L52.5,67.8Z M19.0,11.8L16.6,14.0L15.1,16.1L14.7,17.3L14.3,17.9L13.5,21.2L13.4,24.1L13.5,34.8L13.3,45.0L13.3,76.2L13.5,86.1L13.5,105.6L13.7,107.3L14.2,109.4L15.8,112.8L16.7,113.9L18.9,115.9L21.5,117.4L23.4,118.1L24.9,118.3L26.5,118.4L41.6,118.4L45.2,118.6L76.7,118.6L102.5,119.0L105.3,118.6L106.7,118.2L108.6,117.3L110.3,116.0L111.6,114.8L112.8,113.2L113.9,111.2L114.4,109.7L114.8,107.9L114.9,99.1L114.9,22.3L114.8,21.3L114.0,18.3L112.9,16.1L111.6,14.3L110.0,12.8L107.7,11.2L106.2,10.7L105.7,10.4L103.9,9.9L101.7,9.8L84.2,9.8L81.0,9.6L67.6,9.7L58.6,9.5L52.6,9.6L44.5,9.4L30.7,9.5L27.9,9.3L25.4,9.5L23.2,9.8L20.6,10.9Z M20.0,14.5L21.3,13.4L23.8,12.2L26.2,11.6L64.5,11.6L77.0,11.8L84.9,11.7L96.6,12.0L101.8,11.9L103.8,12.2L106.7,13.3L108.1,14.2L110.2,16.3L111.2,17.6L112.4,20.3L112.5,21.5L112.9,23.2L113.0,26.2L113.0,34.9L112.8,41.0L112.9,102.9L112.7,107.0L112.4,108.4L112.0,109.1L112.0,109.4L110.4,112.2L108.3,114.4L107.0,115.0L106.4,115.6L104.3,116.4L101.8,116.8L98.6,116.8L98.1,116.6L81.0,116.6L78.5,116.5L30.0,116.5L26.8,116.5L23.1,115.5L21.7,114.9L20.4,113.9L18.4,111.9L17.3,110.2L16.3,107.8L16.0,106.7L15.8,103.9L16.0,95.5L15.8,74.7L15.6,73.8L15.8,71.8L15.8,22.0L16.6,19.2L17.4,17.7L18.4,16.2Z" fill="#000" fill-rule="evenodd"/>
</svg>