<svg xmlns="http://www.w3.org/2000/svg" viewBox="0 0 128 128" width="128" height="128">
  <path d="M40.5,79.9L39.3,80.8L37.6,82.5L35.5,85.4L35.1,86.5L34.7,88.4L34.7,91.6L35.5,94.9L36.0,96.0L36.4,96.5L36.8,97.4L37.3,98.0L38.5,99.9L39.3,100.7L39.6,101.4L40.4,102.1L41.9,104.0L43.1,105.1L44.9,107.0L44.9,107.6L44.7,107.9L44.2,108.0L43.8,108.4L43.2,109.4L43.2,109.8L44.5,110.0L46.1,110.0L46.6,109.8L47.9,108.5L48.1,108.0L48.1,107.4L47.6,106.6L45.7,104.9L45.2,104.1L44.0,102.8L42.6,100.5L42.4,100.0L42.0,99.5L41.1,97.3L40.8,96.8L40.7,96.3L40.0,94.9L39.8,93.6L39.5,92.7L39.4,91.9L39.1,91.0L39.1,86.0L39.6,84.1L39.9,83.5L40.4,81.9L41.2,80.4L41.1,79.9Z M33.5,58.4L32.8,58.4L31.7,58.7L30.5,59.6L29.4,60.9L29.0,62.0L28.8,62.4L28.7,63.8L29.0,65.2L29.4,66.0L30.0,66.9L30.6,67.6L31.2,68.0L31.9,68.2L32.4,68.1L32.6,67.7L32.5,66.2L32.2,64.8L32.2,63.4L32.4,62.0L32.9,60.5L33.7,58.9L33.7,58.7Z M51.7,15.7L51.1,16.3L48.4,19.9L48.1,20.7L47.8,20.9L47.3,23.3L47.3,25.0L47.7,26.2L47.7,27.0L47.6,27.4L47.0,27.9L46.4,28.1L44.9,28.8L43.9,29.5L42.9,30.0L42.0,30.7L39.8,33.0L39.0,34.0L37.7,36.3L36.9,38.8L36.6,40.4L36.6,41.7L36.8,43.9L37.4,45.3L38.5,47.1L40.1,48.6L41.1,49.3L41.9,49.6L42.4,49.7L43.2,50.1L45.5,50.2L47.3,50.6L47.7,50.9L48.0,51.6L48.0,53.1L47.8,53.8L47.2,54.5L46.5,54.6L46.1,54.9L43.0,55.5L42.6,55.9L41.6,56.3L41.1,56.4L39.8,57.0L39.0,57.6L37.9,58.1L36.7,59.0L35.9,59.9L34.9,61.2L34.3,62.4L34.0,63.7L34.1,65.9L34.3,67.1L34.9,68.3L35.7,69.3L36.6,70.1L37.5,70.6L38.4,70.9L40.0,71.0L40.6,70.9L41.4,70.6L42.5,69.7L42.8,69.4L43.2,68.4L43.6,66.5L44.4,65.8L45.3,65.8L46.0,66.1L46.5,66.7L46.9,67.3L47.9,72.9L48.9,75.8L49.6,77.0L49.5,77.4L49.0,77.8L47.2,78.4L46.0,79.1L44.9,80.3L43.5,81.9L42.2,84.2L42.1,84.8L41.7,85.8L41.5,87.5L41.6,91.0L42.2,94.1L42.9,95.7L43.3,97.0L45.3,100.5L48.1,104.0L51.5,107.4L51.6,108.4L51.4,109.1L51.1,109.4L51.2,109.9L51.4,110.0L58.1,110.2L60.3,110.0L60.9,110.2L67.8,110.2L69.9,110.4L75.8,110.4L76.9,110.5L83.6,110.5L84.2,110.1L84.1,109.6L83.5,108.5L83.6,108.0L84.0,107.6L86.8,106.7L88.6,105.7L89.8,104.9L93.7,101.8L96.7,98.7L98.5,96.1L99.6,94.7L99.9,94.0L100.5,93.3L101.9,90.9L102.0,90.1L102.3,89.7L102.7,88.8L103.8,85.7L103.9,85.6L104.0,85.1L104.5,84.1L105.1,81.5L106.0,79.0L107.2,77.0L109.4,74.8L109.3,74.2L107.7,73.4L107.1,72.8L106.3,71.3L106.0,70.5L106.0,69.4L106.4,68.1L106.8,67.3L107.6,66.5L108.8,65.9L110.0,65.7L110.8,65.8L111.3,65.5L111.2,64.8L110.7,63.5L110.4,62.3L110.4,60.8L110.8,58.9L111.4,57.1L111.4,56.6L111.2,56.3L110.0,55.0L109.6,54.2L109.2,53.0L108.9,51.1L108.4,50.5L107.3,49.9L106.8,49.3L106.0,48.2L105.8,47.2L105.8,45.7L105.9,45.1L106.9,43.6L108.4,42.4L108.5,41.6L108.1,41.1L106.1,39.1L105.2,38.5L103.9,37.4L102.5,36.5L98.0,34.4L96.8,34.1L94.6,33.8L94.3,33.6L93.4,33.6L92.9,33.5L91.8,33.5L89.1,33.8L88.5,34.0L87.4,34.2L85.5,35.0L85.0,35.4L83.4,36.3L82.6,36.9L81.0,38.7L79.7,40.6L78.3,44.0L77.5,47.8L77.4,50.2L78.1,50.8L79.1,51.4L79.5,51.8L80.4,52.4L82.4,54.2L83.7,55.6L85.8,58.3L86.2,59.2L86.9,60.1L88.2,62.7L88.2,62.9L89.1,65.1L89.2,66.0L89.8,67.3L90.4,69.7L90.5,71.7L90.6,72.4L90.6,74.7L90.5,75.4L90.1,75.7L89.9,75.4L89.7,74.6L89.6,71.5L89.3,71.0L88.9,68.1L87.8,64.9L87.6,64.6L87.5,64.1L87.1,63.5L86.4,62.0L83.6,57.9L80.7,55.0L78.9,53.5L75.5,51.4L75.1,50.7L74.6,48.9L74.2,47.7L73.8,47.3L73.8,46.9L73.4,46.4L72.8,44.9L72.0,43.6L71.3,42.6L67.7,39.2L65.2,37.2L64.6,36.6L64.3,35.9L63.6,33.4L62.6,31.5L61.5,30.1L61.2,29.2L61.3,28.5L61.7,27.7L61.9,26.9L62.2,26.5L62.2,26.0L62.6,24.8L62.8,23.0L62.8,21.3L62.7,19.6L62.1,17.5L61.1,15.4L60.3,13.9L59.9,13.5L59.4,13.5L59.1,13.7L56.1,16.9L54.9,19.1L54.2,20.8L54.1,21.7L54.1,22.4L53.9,22.9L53.9,24.9L54.1,25.5L54.1,26.6L53.8,26.9L53.3,26.9L52.6,26.5L52.2,25.7L52.0,24.7L51.9,22.5L52.2,20.8L52.7,18.5L52.7,16.8L52.5,15.9L52.2,15.6Z M45.9,35.5L46.4,35.4L47.1,35.4L47.7,35.6L48.0,35.9L48.2,36.5L48.3,37.2L48.0,38.0L47.6,38.4L47.2,38.6L46.3,38.6L45.4,37.9L45.3,37.3L45.3,36.4L45.4,36.0Z M60.4,9.4L56.8,9.9L55.7,9.9L54.9,10.2L53.1,10.5L52.2,10.8L51.0,11.0L50.5,11.2L48.9,11.6L48.2,11.7L46.5,12.3L46.1,12.6L45.1,12.7L44.4,13.1L42.3,13.9L41.6,14.3L40.0,14.9L36.4,16.9L35.7,17.5L34.8,17.9L30.6,20.8L29.6,21.7L28.5,22.5L23.6,27.3L21.4,29.9L21.1,30.5L19.6,32.1L18.0,34.8L16.8,36.3L16.6,36.9L15.8,38.3L15.5,38.7L15.4,39.1L14.6,40.4L12.3,45.6L12.1,46.7L11.4,48.5L11.3,49.1L10.9,50.1L10.8,50.8L10.5,51.6L10.4,52.6L10.1,53.6L9.4,57.4L9.1,60.3L9.1,68.9L9.3,69.4L9.7,73.1L10.1,75.0L10.4,75.9L11.0,78.9L12.7,84.1L14.7,88.5L15.2,89.2L15.5,89.9L16.4,91.7L17.2,92.7L17.3,93.2L18.0,94.0L18.9,95.6L21.3,98.7L22.9,100.4L23.7,101.5L27.7,105.2L28.4,105.6L31.7,108.4L32.6,108.9L34.3,110.2L35.0,110.4L35.3,110.8L36.3,111.2L37.0,111.7L38.2,112.2L39.2,112.9L40.3,113.4L40.7,113.5L42.2,114.4L43.3,114.7L44.3,115.2L44.9,115.3L45.6,115.7L47.0,116.1L48.5,116.5L50.9,117.3L53.7,117.8L54.3,117.8L55.3,118.2L57.8,118.4L59.3,118.7L61.1,118.6L62.4,118.9L67.5,118.9L69.6,118.6L70.8,118.6L75.8,117.8L79.2,116.9L80.0,116.9L80.9,116.5L81.4,116.4L81.9,116.1L83.6,115.6L85.2,114.8L86.2,114.5L87.0,114.1L88.9,113.3L89.3,113.0L90.7,112.5L91.7,111.7L92.8,111.2L95.7,109.1L97.4,108.0L98.3,107.2L99.1,106.7L101.9,104.3L104.6,101.5L105.9,100.2L106.8,98.9L108.5,97.0L109.1,96.2L109.2,95.8L111.1,93.2L111.4,92.3L112.5,90.8L112.7,90.1L112.9,89.8L113.6,88.3L114.2,87.2L114.6,85.9L115.3,84.5L115.4,83.8L116.0,82.7L116.3,81.5L116.5,81.4L117.8,76.6L118.3,74.0L118.3,73.4L118.7,71.7L118.7,70.7L119.0,69.5L119.1,61.0L118.7,57.4L118.7,56.3L118.5,55.6L118.4,54.7L117.5,51.0L117.4,50.2L117.2,49.7L117.0,48.8L116.2,46.6L116.2,46.3L116.0,45.9L115.6,44.6L115.3,44.3L115.3,43.8L114.5,42.4L114.3,41.4L113.8,40.7L112.6,38.1L111.9,37.1L111.7,36.6L110.9,35.5L110.4,34.6L110.0,34.2L109.9,33.8L108.4,31.8L108.1,31.3L106.4,29.3L106.4,29.0L103.1,25.3L101.3,23.8L100.6,22.9L99.9,22.5L98.8,21.5L94.1,18.1L92.3,17.2L92.0,16.8L89.9,15.8L89.5,15.7L88.5,15.0L86.4,14.1L84.6,13.2L80.3,11.8L79.9,11.8L78.3,11.1L74.0,10.2L69.5,9.8L68.1,9.4L65.5,9.4L64.2,9.3L62.7,9.5Z M67.4,10.5L70.1,10.7L72.3,11.2L73.6,11.3L74.8,11.6L76.1,11.8L78.3,12.4L79.6,12.6L81.4,13.2L81.5,13.4L82.1,13.5L82.9,13.9L83.4,13.9L85.1,14.7L86.0,15.0L87.1,15.6L91.3,17.7L92.8,18.8L94.9,20.1L95.5,20.8L97.4,22.1L98.6,23.3L99.5,23.9L103.4,27.7L106.7,31.5L110.0,36.5L110.0,36.8L110.8,37.9L111.2,39.0L111.6,39.5L112.2,40.8L113.1,42.4L113.2,42.8L113.6,43.6L113.7,44.2L114.5,45.9L114.9,47.6L115.1,47.7L115.3,48.8L115.7,49.8L115.7,50.5L116.1,51.1L116.2,52.0L116.5,52.6L116.7,54.6L117.0,55.8L117.0,56.4L117.3,57.5L117.3,59.7L117.6,61.1L117.8,65.7L117.4,70.2L116.5,75.5L116.3,76.1L115.2,80.9L114.4,82.7L113.9,84.4L113.6,84.8L113.5,85.3L113.1,86.3L110.8,90.9L110.0,91.9L109.9,92.4L109.1,93.6L109.1,93.7L107.4,96.2L103.9,100.6L103.2,101.1L101.0,103.5L96.6,107.2L94.8,108.5L93.9,109.0L93.3,109.6L92.4,110.0L92.1,110.3L90.8,110.8L90.5,111.1L89.8,111.3L87.2,112.9L85.8,113.3L82.9,114.7L80.3,115.3L78.8,116.0L78.1,116.1L77.1,116.4L73.8,117.0L72.6,117.1L70.9,117.5L67.3,117.8L66.7,117.9L61.8,117.9L60.7,117.8L58.9,117.4L57.5,117.4L55.0,116.9L54.4,116.9L52.5,116.5L51.2,116.1L50.3,116.0L49.4,115.7L47.7,115.3L46.1,114.5L45.3,114.3L43.9,113.6L42.3,113.0L41.6,112.6L41.2,112.5L40.8,112.2L39.2,111.6L38.1,110.8L36.3,109.9L34.6,108.6L33.4,108.0L28.1,103.7L23.6,99.1L20.0,94.3L19.2,92.9L17.6,90.5L17.5,90.1L17.2,89.8L16.4,88.2L16.3,87.8L15.9,87.2L15.8,86.7L14.0,83.1L13.6,81.9L13.5,81.2L13.2,80.5L13.1,79.9L12.6,78.3L12.6,77.9L11.9,75.4L11.8,74.6L11.5,73.4L10.7,66.9L10.7,65.3L10.6,61.8L10.7,60.3L10.9,59.9L11.0,57.7L11.2,56.8L11.2,56.1L11.5,55.3L11.7,53.4L12.3,51.6L12.8,49.0L13.5,47.3L13.6,46.7L13.9,46.1L13.9,45.7L14.2,45.3L14.3,44.5L14.8,43.6L15.0,42.9L15.2,42.7L15.8,41.2L16.7,39.8L18.2,36.7L20.4,33.2L21.6,31.8L21.8,31.3L25.3,27.3L28.3,24.3L30.5,22.4L31.8,21.5L33.0,20.4L35.4,18.9L35.7,18.6L36.5,18.3L38.0,17.2L40.4,16.1L42.0,15.2L43.4,14.7L44.9,14.0L45.6,13.9L45.9,13.6L47.0,13.4L47.7,13.0L48.6,12.8L49.9,12.3L51.5,12.1L51.9,11.9L53.4,11.6L54.8,11.2L56.2,11.1L57.1,10.9L58.0,10.9L59.8,10.6L64.3,10.4Z" fill="#000" fill-rule="evenodd"/>
</svg>