<svg xmlns="http://www.w3.org/2000/svg" viewBox="0 0 128 128" width="128" height="128">
  <path d="M35.6,70.5L35.6,71.3L35.9,71.7L37.4,72.1L38.6,72.2L40.8,71.9L41.5,71.7L41.9,71.2L41.8,70.6L41.1,70.5L40.5,70.9L39.1,71.2L38.1,71.2L36.8,70.9L36.0,70.5Z M41.6,62.6L40.7,63.4L40.4,63.9L40.4,64.6L40.7,65.2L41.3,65.8L41.9,66.0L42.5,65.9L42.8,65.8L43.5,65.1L43.6,64.8L43.6,63.8L43.5,63.4L42.7,62.7Z M35.2,62.6L34.6,63.0L34.0,63.9L34.0,64.6L34.3,65.3L34.8,65.8L35.2,66.0L35.9,66.0L36.6,65.6L37.1,65.1L37.2,64.0L37.0,63.4L36.6,63.0L36.0,62.6Z M83.0,55.2L82.9,55.1L82.6,55.0L80.5,55.8L79.1,55.8L77.4,55.2L76.8,55.3L76.7,55.7L77.0,56.2L77.5,56.5L79.3,56.7L79.7,56.9L80.2,56.9L82.0,56.5L82.5,56.3L83.0,55.8Z M76.2,47.4L75.3,48.1L75.0,48.7L75.0,49.5L75.3,50.0L76.1,50.7L77.1,50.8L78.2,49.9L78.3,49.2L78.2,48.4L78.0,48.0L77.4,47.5Z M82.7,47.2L82.1,47.4L81.7,47.8L81.4,48.4L81.4,49.1L81.6,49.7L82.0,50.2L82.5,50.5L83.3,50.6L83.8,50.4L84.5,49.7L84.6,49.2L84.6,48.4L84.3,47.7L83.8,47.3Z M44.5,24.2L42.6,24.3L42.0,24.6L41.5,24.7L40.7,25.2L39.5,26.3L38.8,27.9L38.8,28.5L39.1,28.7L39.7,28.7L40.8,27.5L41.6,27.1L43.2,27.1L43.7,27.1L44.8,27.9L45.4,28.4L45.9,29.7L46.2,31.1L45.9,40.4L46.0,42.1L45.7,54.0L45.5,55.0L45.4,59.0L45.2,59.3L44.9,59.3L42.3,57.5L41.9,57.2L40.3,56.8L37.7,56.7L36.0,57.1L34.9,57.6L33.6,58.5L32.7,59.3L32.1,60.1L30.8,62.2L30.3,64.5L30.4,66.8L30.9,68.6L31.7,69.9L32.7,71.1L33.2,71.2L33.3,70.6L33.2,70.1L33.2,69.4L33.4,68.0L33.7,67.4L33.7,66.9L32.4,65.8L32.1,65.3L32.0,63.9L32.2,63.1L32.5,62.6L33.2,62.0L34.0,61.8L36.2,61.6L43.0,61.6L43.8,61.8L44.4,62.3L44.9,63.0L45.1,63.8L45.0,65.3L43.9,66.7L44.3,68.5L44.3,69.3L43.9,70.8L43.0,71.8L41.9,72.6L40.7,73.1L39.7,73.3L37.6,73.3L36.6,73.1L35.3,72.6L34.5,72.6L34.2,73.0L33.9,73.7L33.8,74.5L33.5,75.3L33.3,76.5L33.1,77.2L32.9,78.4L32.7,79.2L32.1,83.2L31.9,84.0L31.9,84.6L30.6,91.3L30.9,95.3L31.2,97.6L31.3,101.0L31.4,101.7L31.4,104.0L31.3,104.4L30.9,104.5L26.9,104.6L26.5,104.7L26.2,105.2L26.0,113.3L26.1,114.3L26.6,115.9L27.3,116.4L27.9,116.6L31.8,116.7L33.2,118.4L34.4,119.0L34.8,119.1L35.9,119.1L37.3,118.6L38.2,117.8L38.9,116.8L39.6,116.7L41.9,116.7L43.5,116.3L43.9,115.9L44.3,115.5L44.6,115.0L44.8,113.8L45.1,106.1L45.0,104.8L44.8,104.6L44.5,104.6L43.5,105.2L42.4,105.3L42.0,105.2L40.7,104.4L35.9,104.5L35.3,104.1L35.3,102.5L35.5,101.8L35.5,100.5L35.7,99.2L35.7,97.8L36.0,96.3L36.2,91.7L36.5,89.9L36.6,87.6L36.8,85.9L36.8,84.4L37.1,82.9L37.4,82.6L37.6,82.6L38.8,83.8L41.8,87.4L41.9,87.8L41.8,89.5L41.8,90.9L42.3,93.0L43.3,94.7L43.7,95.2L45.1,96.5L47.4,97.7L48.5,98.1L50.1,98.3L51.0,98.3L53.0,97.8L54.9,96.8L56.6,95.2L57.7,93.4L57.7,92.9L57.2,92.4L56.6,92.4L55.0,93.0L53.5,93.0L52.8,92.8L47.4,89.9L46.6,89.3L46.6,89.0L48.6,87.7L49.3,87.5L50.5,86.7L52.5,85.6L52.7,85.4L53.7,84.9L54.2,84.8L54.9,86.0L55.3,87.6L55.6,88.3L55.6,89.4L54.6,91.0L54.6,91.4L54.9,91.9L55.6,92.0L57.7,91.0L58.9,89.8L60.1,88.1L60.1,87.9L60.5,87.0L60.8,85.7L60.8,84.0L60.5,82.7L59.7,81.2L58.7,79.9L57.1,78.8L56.1,78.4L54.1,78.4L53.1,78.5L52.7,78.1L52.3,76.6L52.0,75.9L51.8,74.7L51.5,74.3L50.6,70.5L50.4,70.2L50.4,69.8L50.0,68.5L50.0,66.3L50.3,62.9L50.6,55.9L50.8,53.7L50.9,50.0L51.0,49.2L51.0,46.9L50.9,46.4L50.9,45.6L50.6,44.1L50.6,42.6L50.4,42.1L50.1,38.2L49.9,37.8L49.8,36.0L49.4,32.6L49.2,29.8L48.8,27.9L48.3,26.9L47.8,26.1L46.8,25.2L45.9,24.6Z M33.1,109.0L34.2,108.8L34.5,109.2L34.7,110.4L34.8,113.0L35.2,115.2L35.9,116.1L37.2,116.7L37.2,117.1L36.2,117.8L34.8,117.9L34.0,117.4L33.6,117.0L33.3,116.5L32.7,113.8L32.4,111.0L32.4,109.6L32.8,109.2Z M41.1,106.1L41.9,106.4L43.1,106.4L43.5,106.2L43.9,106.2L44.0,106.4L44.1,107.6L43.9,113.8L43.6,114.7L42.8,115.5L41.5,115.4L40.8,114.7L40.7,114.0L40.8,106.5Z M33.2,81.0L33.5,81.0L33.7,81.3L33.6,81.8L33.5,81.9L33.2,81.8L32.9,81.5L32.9,81.2Z M45.2,75.7L46.3,75.6L47.8,76.0L48.9,76.6L49.7,77.3L50.2,78.0L50.8,79.6L50.9,81.0L50.4,82.7L50.1,83.2L48.7,84.6L47.4,85.3L45.1,85.4L43.5,84.7L42.8,84.3L41.9,83.3L41.5,82.6L41.3,81.8L41.2,79.9L41.5,78.8L42.3,77.4L43.2,76.6L44.3,76.0Z M84.4,9.1L83.2,9.1L82.1,9.3L81.0,9.8L80.2,10.3L79.6,11.0L78.9,12.0L78.6,12.9L78.6,13.5L78.9,13.7L79.6,13.7L80.8,12.4L81.2,12.1L81.8,12.0L83.0,12.0L84.4,12.5L85.2,13.4L85.7,14.5L85.9,15.6L86.1,18.1L86.0,20.7L86.2,32.7L86.1,43.5L85.9,43.7L85.4,43.7L84.0,42.5L82.3,41.8L81.4,41.6L78.3,41.5L76.6,42.1L74.8,43.1L73.4,44.5L72.6,45.7L71.8,47.4L71.5,48.8L71.5,51.0L71.7,51.5L72.0,53.1L73.0,54.8L73.8,55.7L74.3,56.0L74.5,56.0L74.6,55.3L74.4,54.6L74.4,53.5L74.6,52.7L74.9,52.3L74.9,51.6L74.6,51.3L74.2,51.2L73.5,50.4L73.1,49.4L73.2,48.0L73.5,47.6L74.3,46.9L75.8,46.7L78.2,46.6L84.5,46.7L85.3,46.9L85.7,47.3L86.1,48.4L86.1,49.5L85.7,50.3L84.9,51.1L84.9,51.7L85.3,52.8L85.3,53.9L85.2,54.7L84.8,55.5L83.7,56.7L82.5,57.4L80.9,57.9L78.6,57.9L76.6,57.4L76.4,57.2L75.9,57.2L75.4,57.8L75.4,58.4L75.0,59.3L74.3,63.3L74.1,65.5L73.7,67.7L73.6,68.9L73.5,69.4L72.5,76.2L73.1,81.2L73.3,83.9L73.7,87.2L73.7,88.5L73.4,88.9L72.9,89.0L69.2,89.2L68.9,89.4L68.7,89.8L68.7,97.8L68.8,98.9L69.3,100.1L70.0,100.8L71.0,101.0L74.4,101.0L76.2,102.8L77.4,103.2L78.7,103.2L79.5,103.0L80.1,102.7L80.9,101.9L81.3,101.2L81.7,100.9L84.9,100.7L86.1,100.3L86.7,99.7L87.0,99.1L87.3,97.7L87.3,89.4L87.2,89.0L87.0,88.8L86.5,88.8L85.9,89.3L85.3,89.5L84.2,89.5L83.1,88.8L82.6,88.6L80.0,88.9L78.2,88.9L77.9,88.8L77.5,88.3L77.5,85.6L77.8,81.6L78.0,76.5L78.2,74.7L78.5,69.0L78.7,67.4L78.9,67.2L79.4,67.4L82.1,70.2L83.4,71.9L83.6,72.4L83.5,75.2L83.7,76.0L84.1,77.5L85.5,79.5L86.9,80.8L88.1,81.5L89.2,81.9L90.8,82.3L93.4,82.3L94.5,82.0L95.9,81.4L97.1,80.6L98.5,79.1L99.3,77.6L99.4,76.8L98.9,76.4L98.4,76.4L97.5,76.9L96.8,77.1L95.0,77.1L93.0,76.3L92.4,75.9L89.4,74.5L88.5,73.9L88.3,73.4L88.8,72.9L91.7,71.1L92.0,71.0L93.0,70.3L95.2,69.1L95.6,69.1L95.9,69.5L97.0,73.1L97.0,74.0L96.3,75.0L96.3,75.6L96.6,76.0L96.9,76.0L97.6,76.0L99.1,75.2L100.8,73.6L101.6,72.2L102.2,70.5L102.1,67.4L101.8,66.8L101.7,66.3L100.7,64.7L99.8,63.8L98.2,62.8L97.3,62.6L95.7,62.5L94.5,62.7L94.0,62.5L92.8,58.9L92.7,58.0L91.8,55.6L91.6,54.5L91.2,53.5L91.0,52.6L91.0,50.1L91.2,44.5L91.4,31.5L91.0,29.6L90.8,27.8L90.3,24.7L90.2,23.3L89.6,20.3L89.6,19.1L89.4,18.9L89.3,17.2L89.0,15.9L88.8,13.7L88.3,12.1L88.0,11.6L86.5,10.0L85.1,9.3Z M76.2,93.1L76.6,93.2L76.9,93.5L77.3,97.5L77.7,99.3L78.3,100.1L79.0,100.6L79.5,100.7L79.8,100.9L79.8,101.3L79.4,101.7L78.5,102.1L77.6,102.1L77.0,101.9L76.3,101.3L75.8,100.5L75.1,97.0L74.8,93.9L75.1,93.5Z M83.3,90.4L83.7,90.4L84.4,90.6L86.0,90.5L86.2,90.7L86.2,98.1L85.8,99.1L85.1,99.6L84.3,99.6L83.9,99.4L83.5,99.0L83.1,98.1L83.0,91.0L83.1,90.6Z M86.9,60.1L88.4,60.2L90.1,60.9L90.9,61.6L91.8,63.0L92.2,64.5L92.0,66.2L91.6,67.4L91.0,68.1L90.4,68.7L89.2,69.4L87.5,69.8L86.9,69.8L85.9,69.6L84.6,68.9L83.5,67.8L83.2,67.4L82.7,66.2L82.6,65.5L82.7,63.9L83.1,62.7L83.7,61.9L84.5,61.1L85.8,60.3Z" fill="#000" fill-rule="evenodd"/>
</svg>