<svg xmlns="http://www.w3.org/2000/svg" viewBox="0 0 128 128" width="128" height="128">
  <path d="M104.6,25.9L104.2,25.9L103.8,26.8L103.2,27.7L102.2,29.8L101.8,30.3L101.7,30.7L101.1,31.5L100.4,33.0L99.7,34.1L99.5,34.6L98.7,35.6L97.0,38.7L96.6,39.0L96.0,40.1L91.7,46.2L91.3,46.6L90.9,46.4L90.9,45.7L91.3,44.5L91.4,42.8L91.6,42.6L91.7,41.1L91.9,40.8L92.1,39.5L92.9,27.0L92.8,20.8L92.6,15.9L92.4,15.7L92.0,15.8L91.1,18.9L90.8,19.7L90.8,20.1L89.8,22.7L89.5,24.1L87.8,28.4L87.4,29.8L87.4,30.5L86.9,31.3L86.3,32.5L85.6,34.8L85.0,36.3L84.9,36.8L83.9,38.7L83.1,40.8L82.9,41.1L82.4,41.0L82.0,29.4L81.7,27.6L81.7,26.7L81.2,24.0L81.1,21.6L80.5,18.8L80.1,16.0L79.8,15.4L79.5,13.4L79.2,12.6L79.2,11.7L79.0,11.1L78.6,10.7L78.4,10.8L78.2,11.2L78.1,13.2L77.8,15.1L77.6,17.1L77.3,18.2L77.2,19.7L76.9,20.9L76.7,22.7L76.0,26.1L75.6,29.3L75.2,31.0L75.1,32.0L74.4,34.5L74.2,35.7L73.8,37.0L73.6,38.1L73.4,38.2L73.1,38.2L72.8,38.0L72.7,36.5L72.4,35.9L72.2,34.7L71.9,33.8L71.9,33.1L71.4,31.4L70.5,27.2L70.2,26.8L70.0,25.5L69.2,23.4L68.7,21.3L66.7,15.3L65.4,12.2L64.7,9.9L64.3,9.3L64.0,9.4L63.8,10.0L63.9,32.1L63.7,35.7L63.8,37.3L63.7,37.7L63.6,37.9L63.2,37.8L62.8,37.3L61.2,33.3L60.1,31.1L59.8,30.3L59.4,29.6L58.0,26.4L56.6,24.0L56.0,22.5L54.2,19.1L52.7,15.7L51.3,13.4L50.6,12.6L50.4,12.8L50.4,13.6L50.8,15.3L50.9,17.8L51.4,20.5L51.4,22.3L51.7,23.4L52.0,26.5L52.2,27.3L52.3,28.7L52.5,29.3L52.5,30.4L52.9,32.1L53.0,34.0L53.4,36.1L53.4,37.3L53.7,38.8L53.6,40.3L53.4,40.3L52.9,39.8L51.7,37.5L50.9,36.6L50.4,35.5L48.9,33.4L47.0,30.3L46.5,29.7L46.2,28.9L44.3,26.2L43.7,25.1L42.3,23.4L41.7,22.2L40.6,20.9L39.3,18.9L39.1,18.8L38.9,19.0L38.9,19.7L39.2,20.5L40.2,26.3L40.6,27.5L41.3,31.2L42.4,34.6L42.8,37.3L43.2,38.5L43.3,39.4L44.1,42.1L44.3,43.8L44.7,44.5L44.7,45.3L44.5,45.5L44.3,45.5L43.9,45.3L41.7,42.3L40.7,41.2L39.8,39.7L39.1,39.0L38.0,37.5L35.1,34.1L34.5,33.1L32.1,30.4L31.9,29.8L30.8,28.8L30.7,28.5L30.0,27.8L29.5,27.9L29.5,28.3L30.1,30.1L30.4,31.5L32.5,37.5L33.5,41.2L34.5,43.7L35.9,48.9L36.9,51.2L37.1,52.2L37.5,53.2L37.4,53.8L37.0,53.8L36.6,53.2L34.6,51.3L33.5,49.8L30.9,47.2L24.8,40.6L23.4,39.3L23.1,38.8L22.6,38.6L22.4,38.8L22.4,39.2L23.9,42.7L24.2,43.8L25.4,46.7L25.7,47.2L26.0,48.3L26.3,48.6L26.9,50.3L27.7,52.0L28.0,53.0L28.7,54.2L28.8,54.7L29.5,56.3L30.2,58.3L30.7,59.0L31.2,60.5L32.5,63.1L32.7,64.0L32.5,64.3L32.3,64.3L30.8,62.8L27.7,60.1L26.9,59.2L26.3,58.8L23.6,56.5L19.0,52.3L18.7,52.3L18.6,53.0L18.8,53.5L20.5,56.8L21.1,58.2L21.5,58.8L21.6,59.3L23.4,62.9L23.7,63.4L24.1,64.2L25.4,66.5L26.2,68.2L26.9,69.2L28.1,71.7L28.9,73.0L29.0,73.6L28.8,73.7L28.2,73.6L24.4,71.1L22.4,69.3L20.3,68.1L18.2,66.6L17.8,66.5L17.6,66.6L17.7,67.1L18.8,69.2L19.2,70.1L19.9,71.3L21.0,73.6L22.8,76.9L23.0,77.1L24.4,79.9L25.0,80.8L25.5,81.8L25.8,82.2L25.9,82.7L25.8,82.8L25.3,82.8L23.4,81.6L23.0,81.2L22.6,81.1L19.2,78.8L18.5,78.8L18.5,79.4L19.2,80.8L19.8,82.5L20.6,84.0L21.9,88.5L22.5,91.7L22.6,95.4L22.2,96.9L22.1,97.7L21.4,99.8L19.9,102.8L17.2,107.0L13.6,111.1L13.0,112.1L12.2,113.0L11.8,113.7L10.8,114.7L10.9,115.2L11.1,115.4L11.9,115.4L12.4,115.2L18.0,115.0L22.6,115.1L24.5,115.4L25.7,115.4L26.4,115.6L29.4,115.8L30.9,116.1L31.6,116.3L34.0,116.6L34.2,116.8L35.8,117.0L37.2,117.5L38.5,117.5L39.3,117.8L41.0,118.0L42.6,118.4L48.4,119.0L50.6,119.0L54.8,118.8L55.5,118.6L56.3,118.6L60.3,117.7L61.3,117.6L62.0,117.3L63.3,117.1L66.7,116.1L67.0,115.8L67.8,115.7L68.7,115.5L68.8,115.3L69.2,115.3L72.6,113.9L73.1,113.8L73.7,113.5L74.2,113.4L76.2,112.4L77.2,112.2L80.5,110.5L81.0,110.2L85.4,108.0L86.7,107.2L87.5,106.8L88.9,105.8L89.5,105.5L90.1,105.1L90.3,105.1L92.7,103.6L95.3,101.8L96.3,101.3L97.8,100.1L99.1,99.3L102.1,96.9L102.8,96.2L102.7,95.8L102.4,95.6L100.4,95.6L98.9,95.4L98.1,95.1L96.6,95.0L96.2,94.8L96.1,94.4L96.6,94.0L97.2,93.9L98.5,93.2L99.4,93.0L99.7,92.7L100.2,92.6L105.8,89.8L106.9,88.9L107.5,88.7L108.7,87.9L109.7,86.9L110.0,86.8L110.2,86.5L110.2,86.1L104.5,85.9L101.1,85.4L100.9,85.2L101.0,84.8L102.7,83.5L103.7,83.0L111.0,77.9L113.8,75.4L115.1,74.4L115.6,73.8L115.6,73.3L115.0,73.2L114.1,73.5L113.4,73.9L110.6,74.4L109.3,74.9L107.5,75.0L106.6,75.2L105.3,75.3L103.6,75.6L102.6,75.6L102.4,75.4L102.4,75.0L102.7,74.7L103.7,73.9L108.2,69.5L110.7,66.4L111.4,65.8L114.0,62.1L114.8,61.3L115.4,60.1L116.7,58.3L117.3,57.1L117.2,56.7L116.9,56.7L114.8,58.2L110.9,60.3L108.7,61.8L107.1,62.5L106.7,62.8L103.3,64.6L102.1,65.0L101.7,64.9L101.8,64.3L102.3,63.9L103.0,62.6L103.7,61.6L103.8,61.3L107.5,55.0L107.7,54.3L108.0,54.1L108.7,52.4L109.1,51.7L109.6,50.2L110.4,48.7L110.7,47.9L110.9,47.5L111.1,46.7L111.8,45.3L111.9,44.6L112.4,43.4L113.4,40.3L113.3,39.5L113.0,39.5L108.4,44.9L103.2,50.4L99.1,54.3L98.0,54.9L97.7,54.7L97.7,54.4L98.1,53.7L98.2,53.1L99.8,49.0L100.0,48.1L100.7,46.4L101.1,44.7L101.2,44.6L101.7,43.2L102.2,40.9L102.4,40.7L104.1,32.4L104.2,31.1L104.5,29.5L104.8,27.1L104.8,26.2Z M28.5,103.3L29.5,103.3L30.2,103.5L31.1,104.4L31.4,105.0L32.0,106.7L32.0,107.8L31.4,109.1L30.8,109.8L30.1,110.1L29.0,110.1L28.2,109.6L27.5,108.9L26.9,107.3L26.9,105.7L27.2,104.6L27.6,104.0Z" fill="#000" fill-rule="evenodd"/>
</svg>