<svg xmlns="http://www.w3.org/2000/svg" viewBox="0 0 128 128" width="128" height="128">
  <path d="M118.8,58.6L117.9,55.1L116.5,51.5L115.9,50.6L115.7,50.1L115.5,49.9L115.1,49.1L114.4,48.1L113.1,46.6L110.7,44.2L108.6,42.6L105.4,40.8L103.5,40.0L103.0,39.9L100.6,39.1L97.3,38.6L94.2,38.5L92.5,38.6L88.4,39.6L86.0,40.5L85.7,40.8L83.9,41.6L83.0,42.3L81.7,43.1L80.2,44.3L77.4,46.9L76.7,47.8L75.6,49.5L74.4,51.6L73.5,54.2L73.2,55.6L72.9,58.6L73.0,61.4L73.4,63.9L74.1,66.2L74.3,66.5L74.4,67.2L75.6,69.6L78.0,72.6L80.0,74.4L80.8,75.0L83.3,76.4L84.9,77.1L86.8,77.6L88.2,77.8L88.8,78.1L92.7,78.1L95.4,77.9L98.3,76.9L99.8,76.2L101.9,74.7L104.8,71.8L105.6,70.5L106.5,68.8L107.1,66.7L107.5,64.8L107.6,63.8L107.6,61.4L107.4,60.1L107.1,59.1L106.8,58.6L106.8,58.2L105.8,56.2L104.3,54.2L102.9,53.0L101.5,52.1L98.8,50.9L95.0,51.2L90.0,51.3L89.7,51.4L89.4,51.8L89.4,52.9L89.5,53.2L90.0,53.4L90.4,53.4L92.7,54.0L93.3,54.1L95.5,55.1L96.3,55.7L97.1,56.5L97.2,57.0L96.8,57.4L96.1,57.6L93.4,57.6L90.9,57.3L89.9,57.3L89.7,57.6L89.7,59.1L90.0,59.4L91.5,59.4L94.0,59.8L95.1,60.1L95.7,60.4L96.4,61.1L97.1,62.8L97.1,64.1L96.8,65.0L96.4,65.7L94.9,67.1L93.8,67.7L92.7,68.0L90.1,68.0L88.9,67.7L87.5,67.1L85.7,65.7L84.9,64.6L83.6,61.7L83.3,59.9L83.3,58.5L83.6,56.7L84.2,55.1L85.8,53.0L87.7,51.2L89.9,49.9L92.1,49.0L93.2,48.8L95.2,48.7L98.6,49.2L100.0,49.6L100.5,49.9L100.7,49.9L102.4,50.8L104.8,52.6L106.2,54.1L107.4,55.7L107.5,56.3L108.1,57.4L108.6,58.9L108.7,59.4L108.9,59.8L109.2,62.4L109.0,65.4L108.2,68.5L107.8,69.5L106.6,71.8L105.2,73.7L103.9,75.0L101.9,76.5L100.4,77.4L100.0,77.6L99.6,77.9L97.2,78.8L93.6,79.5L89.7,79.5L88.6,79.3L86.9,79.1L84.5,78.5L83.3,78.1L81.1,77.0L79.9,76.2L79.6,75.9L78.7,75.4L76.8,73.8L74.0,71.0L71.9,68.5L70.4,66.1L69.9,65.5L69.8,65.2L69.2,64.1L68.8,63.6L68.6,63.0L67.3,60.9L66.4,59.2L65.9,58.5L65.5,57.5L65.2,57.3L65.1,56.7L63.5,54.1L63.2,53.8L62.8,53.0L62.4,52.6L61.8,51.6L59.7,49.0L56.7,46.1L55.4,45.1L55.1,45.0L52.8,43.4L49.3,41.7L45.7,40.5L44.1,40.2L43.5,40.0L43.0,40.0L40.5,39.6L38.3,39.4L34.3,39.5L32.8,39.9L31.6,39.9L30.5,40.2L29.8,40.3L28.8,40.7L28.2,40.8L25.8,41.6L25.3,41.9L23.1,42.9L19.6,45.0L18.7,45.9L17.9,46.4L15.1,49.3L14.1,50.6L12.6,53.0L11.0,56.5L10.7,57.7L10.2,59.1L10.2,59.5L9.9,60.3L9.6,61.9L9.1,65.2L9.1,67.4L9.3,69.1L9.9,72.3L10.8,75.0L12.0,77.5L13.9,80.5L17.2,83.9L18.2,84.5L19.3,85.4L20.3,86.0L20.6,86.3L22.8,87.3L23.1,87.5L26.9,88.8L28.2,89.1L28.5,89.2L31.0,89.6L33.4,89.7L36.9,89.4L39.6,88.9L42.9,87.7L45.6,86.3L45.9,86.0L46.5,85.7L46.9,85.2L47.1,85.2L47.8,84.7L49.3,83.4L51.2,81.4L53.0,79.0L54.4,76.2L54.8,75.1L55.4,72.4L55.4,71.4L55.6,70.6L55.6,68.9L55.3,66.3L54.8,64.0L53.9,61.6L53.3,60.2L51.4,57.4L49.7,55.7L48.1,54.3L47.2,53.8L46.7,53.4L45.1,52.6L44.8,52.6L42.9,51.8L41.8,51.6L40.8,51.3L38.0,51.0L35.6,51.0L32.3,51.5L31.2,52.0L30.7,52.1L29.0,53.0L28.5,53.1L26.5,54.5L24.3,56.6L23.6,57.6L21.9,60.7L21.5,61.9L21.5,62.5L21.2,63.1L20.9,66.2L21.2,68.9L22.4,72.2L23.4,73.7L25.5,75.6L28.1,77.1L29.8,77.7L34.2,77.4L36.8,77.4L38.4,77.5L38.9,77.4L39.2,77.0L39.2,75.6L38.8,75.3L36.6,75.0L35.8,74.7L35.2,74.7L33.9,74.1L31.9,73.0L31.3,72.3L31.3,71.7L31.9,71.3L35.0,71.3L37.7,71.6L38.0,71.8L38.5,71.8L38.8,71.6L38.9,71.0L38.8,69.9L38.4,69.5L37.3,69.3L35.1,69.2L33.8,69.0L33.1,68.7L32.2,68.0L31.6,66.8L31.4,66.1L31.4,65.3L31.7,64.0L32.7,62.5L33.4,61.9L34.3,61.4L35.9,60.9L37.7,60.9L40.0,61.4L40.3,61.6L41.0,61.9L42.0,62.5L43.3,63.7L44.1,64.8L45.0,66.9L45.4,68.9L45.3,71.3L44.4,73.7L43.1,75.6L41.7,77.0L40.6,77.7L40.5,77.9L38.9,78.7L36.2,79.6L34.6,79.9L32.3,80.0L30.8,79.8L29.5,79.3L28.6,79.2L28.2,79.0L27.5,78.7L26.6,78.3L24.0,76.5L22.9,75.4L21.6,73.8L20.9,72.6L20.3,71.1L20.0,69.8L19.6,68.9L19.4,67.4L19.3,65.7L19.4,63.9L19.8,62.7L20.1,61.1L20.4,60.6L20.7,59.4L21.3,58.4L21.5,57.8L22.1,57.2L23.0,55.7L24.8,53.9L25.8,53.0L26.7,52.5L27.0,52.2L29.2,51.0L31.3,50.4L31.9,50.1L32.8,50.0L33.1,49.9L35.2,49.6L39.2,49.6L40.6,49.9L42.2,50.1L42.4,50.2L43.8,50.6L44.1,50.8L44.8,50.9L47.6,52.2L50.0,53.9L51.9,55.7L53.8,58.1L55.7,60.9L56.3,62.2L59.5,68.0L63.3,74.1L65.7,77.1L70.1,81.4L72.4,83.3L75.1,85.1L75.6,85.3L75.9,85.5L76.3,85.7L76.6,86.0L77.7,86.5L77.9,86.5L80.2,87.6L82.6,88.4L84.5,88.8L87.1,89.2L89.4,89.3L91.0,89.5L94.9,89.4L96.3,89.2L99.8,88.4L103.5,87.1L105.9,86.0L109.9,83.3L112.0,81.4L112.1,81.1L112.9,80.3L113.6,79.3L114.1,78.8L115.2,77.2L116.3,75.2L117.7,71.6L118.4,69.5L119.0,65.9L119.2,64.0L119.1,61.0Z M29.3,75.0L29.6,74.7L30.1,74.5L30.7,74.5L31.7,74.9L32.0,75.3L32.1,76.2L31.7,76.6L31.2,76.8L30.4,76.8L29.8,76.6L29.2,76.2L29.1,75.9L29.1,75.5Z M96.7,52.5L97.1,52.1L97.6,51.8L98.5,51.9L99.0,52.1L99.4,52.6L99.4,53.6L99.1,54.0L98.0,54.2L97.3,54.1L97.0,53.9L96.6,53.3Z" fill="#000" fill-rule="evenodd"/>
</svg>