<svg xmlns="http://www.w3.org/2000/svg" viewBox="0 0 128 128" width="128" height="128">
  <path d="M12.2,9.7L11.8,10.4L11.8,19.2L12.3,19.9L23.1,20.1L35.9,20.0L37.9,20.2L38.4,20.6L38.6,21.0L38.6,22.8L38.1,23.2L36.7,23.5L12.6,23.6L12.2,23.7L11.9,24.1L11.8,29.3L12.0,33.7L12.3,34.2L12.6,34.3L26.8,34.5L37.7,34.4L38.2,34.6L38.5,34.9L38.7,35.5L38.9,42.4L38.8,46.5L39.1,61.9L39.0,65.3L38.5,65.8L37.9,66.0L37.1,66.0L36.4,65.8L36.0,65.3L35.9,64.8L35.9,57.6L35.7,53.4L35.8,49.3L35.5,38.4L35.1,37.8L34.1,37.7L30.0,38.7L27.2,39.8L26.0,40.6L25.1,40.9L24.2,41.6L23.7,41.8L21.5,43.5L19.7,45.0L17.6,47.4L16.0,49.5L14.9,51.4L13.8,53.5L12.8,56.2L11.7,61.1L11.8,61.9L11.5,63.3L11.5,65.9L11.9,69.0L12.5,71.8L14.2,76.3L15.1,78.0L17.3,81.2L19.7,83.8L22.2,85.9L23.4,86.8L24.0,87.1L25.8,88.3L26.5,88.6L26.8,88.8L29.1,89.8L33.1,91.0L35.6,91.4L38.6,91.6L39.3,91.9L39.5,93.4L39.5,101.5L39.7,105.5L39.6,115.7L39.8,118.1L40.0,118.5L40.6,118.8L42.1,118.9L47.7,118.9L61.0,118.6L63.3,118.5L63.7,117.9L63.8,115.7L63.6,113.3L63.6,91.6L63.8,91.0L64.3,90.6L66.0,90.6L66.4,90.8L66.9,91.3L67.0,100.5L67.2,103.5L67.1,107.3L67.4,117.9L67.7,118.5L72.9,118.5L77.2,118.5L80.2,118.2L90.3,118.0L90.8,117.6L91.0,117.0L90.8,90.8L91.2,90.4L91.7,90.2L92.6,90.2L93.7,90.6L93.9,90.8L94.1,91.6L94.2,106.3L94.4,109.5L94.4,113.0L94.6,117.3L95.3,117.9L96.6,117.9L98.7,117.7L106.4,117.6L109.4,117.3L112.8,117.3L115.5,117.1L116.3,117.0L116.7,116.4L116.7,108.7L116.4,101.4L116.0,66.8L115.9,66.3L115.7,66.0L114.9,65.7L91.9,65.7L85.2,65.8L82.1,66.0L64.5,66.1L64.1,66.0L63.6,65.5L63.4,64.7L63.5,63.3L64.2,62.6L89.8,62.3L90.9,62.5L91.4,62.3L94.6,62.2L97.2,61.9L100.1,60.9L104.6,58.5L106.2,57.4L108.6,55.2L108.7,54.8L110.0,53.6L111.8,51.3L112.3,50.4L112.8,49.8L112.9,49.2L113.2,49.0L114.2,46.8L115.2,44.5L116.0,41.5L116.5,38.5L116.6,36.8L116.5,32.9L116.3,31.6L115.9,30.4L115.8,29.5L114.9,26.5L113.9,24.0L113.0,22.4L111.1,19.4L109.4,17.5L106.0,14.4L103.6,12.7L99.3,10.7L95.0,9.5L93.8,9.5L93.4,9.8L93.3,15.4L93.2,15.9L92.5,16.4L90.7,16.4L90.1,15.8L89.9,10.3L89.7,9.9L89.2,9.6L73.2,9.5L66.6,9.5L66.2,9.9L66.2,11.2L66.9,14.6L68.8,19.4L69.2,19.8L70.1,20.0L73.0,20.1L91.9,20.1L92.8,20.3L93.3,20.8L93.2,22.8L92.7,23.3L91.7,23.5L72.3,23.5L71.9,23.6L71.8,23.7L71.8,24.0L73.4,26.3L74.6,27.4L77.4,29.7L79.2,30.9L82.2,32.4L84.5,33.4L88.8,34.4L92.9,34.8L93.2,35.0L93.4,35.4L93.5,36.6L93.1,37.4L91.6,37.6L63.9,37.6L63.2,37.0L63.0,36.2L62.9,27.6L62.6,26.5L62.6,26.0L62.9,25.3L62.7,10.6L62.5,9.9L62.3,9.7L61.9,9.5L58.4,9.5L39.5,9.5L39.2,9.6L38.8,10.3L38.7,15.6L38.3,16.2L37.7,16.4L36.0,16.3L35.5,15.8L35.4,10.3L35.3,10.0L34.7,9.5L12.8,9.5Z" fill="#000" fill-rule="evenodd"/>
</svg>