<svg xmlns="http://www.w3.org/2000/svg" viewBox="0 0 128 128" width="128" height="128">
  <path d="M41.0,48.4L40.6,48.9L40.6,49.4L41.4,53.3L42.0,55.6L42.2,56.9L42.5,57.5L43.2,60.6L43.3,61.6L43.5,62.2L43.7,63.6L44.1,65.1L44.5,67.2L45.2,69.6L45.5,71.7L45.9,72.4L46.0,73.4L46.3,74.4L46.6,76.4L46.8,76.6L46.9,77.4L47.3,78.8L47.4,79.7L48.2,82.4L49.1,86.8L49.3,87.1L50.8,94.3L51.1,94.8L52.0,99.1L52.1,99.4L52.4,101.1L52.6,101.8L53.3,105.2L53.6,105.8L53.7,106.7L54.6,110.0L54.7,111.2L55.3,113.0L55.5,113.2L56.2,113.5L64.2,113.2L79.0,113.3L79.4,113.1L79.6,112.8L80.2,109.8L80.9,105.4L81.4,103.3L81.4,102.5L81.8,101.3L81.9,99.8L82.4,97.9L82.4,97.1L83.0,94.5L83.1,93.4L83.8,90.4L84.0,88.9L84.1,88.5L84.7,84.9L85.1,83.5L85.2,82.1L85.5,81.0L86.0,77.4L86.5,75.7L86.6,74.5L87.0,73.0L87.0,72.3L87.8,68.7L87.8,67.9L88.1,67.2L88.1,65.9L88.8,63.1L88.9,61.8L89.4,59.4L89.4,58.6L90.2,55.2L90.2,54.5L90.7,52.5L90.8,51.4L91.1,50.4L91.1,49.0L90.7,48.5L90.3,48.4Z M80.0,101.4L80.0,101.8L78.4,103.4L78.1,103.5L77.3,104.4L73.7,107.5L68.7,112.3L68.1,112.5L67.1,112.1L64.0,109.8L61.5,107.8L58.9,105.8L58.2,105.1L56.9,104.3L54.7,102.4L54.2,101.8L54.2,101.7L54.6,101.4L56.0,101.2L79.2,101.1L79.7,101.1Z M103.0,17.6L102.5,17.6L102.4,17.8L103.0,18.4L103.4,18.6L105.0,19.7L108.0,22.5L108.9,23.6L110.2,26.1L111.4,29.3L111.8,31.8L111.7,35.3L111.2,37.8L110.8,39.0L110.4,39.6L110.2,40.3L108.9,42.4L106.8,44.7L104.7,46.3L102.4,47.4L99.7,48.2L97.2,48.3L93.4,48.3L92.8,48.5L92.6,48.8L92.1,50.8L91.9,51.0L91.1,55.0L91.1,55.5L90.6,57.7L90.5,58.6L90.0,60.7L88.8,67.5L88.4,69.2L88.2,71.0L88.7,71.5L94.4,71.5L98.3,70.8L100.8,70.1L103.0,69.2L106.8,67.1L110.8,63.8L112.8,61.7L114.3,59.6L114.3,59.4L115.4,57.7L116.5,55.6L117.2,53.6L117.4,53.2L118.0,51.1L118.1,50.9L118.7,48.5L119.0,45.6L118.9,41.0L118.7,39.0L118.4,38.3L117.9,35.6L117.7,35.3L117.4,33.9L116.1,31.0L114.1,27.4L112.3,25.0L110.9,23.5L108.9,21.6L107.0,20.0L104.2,18.2Z M26.4,15.4L24.1,16.3L22.2,17.5L21.9,17.8L20.3,18.8L17.5,21.2L14.9,24.2L13.8,25.9L12.6,27.8L11.6,30.3L11.2,31.0L11.2,31.3L10.7,32.2L10.1,34.9L9.8,35.9L9.6,37.6L9.4,38.0L9.2,40.5L9.2,43.3L9.6,45.5L9.6,46.3L9.9,47.2L9.9,48.3L10.4,49.5L10.6,50.8L11.2,52.4L11.8,53.4L12.1,54.5L12.7,55.7L14.4,58.4L15.7,60.3L18.2,63.1L19.2,64.0L22.0,66.3L24.6,67.8L27.3,69.2L28.6,69.6L29.0,69.8L33.8,71.0L36.7,71.3L42.3,71.4L44.2,71.1L44.5,70.9L44.5,70.2L44.1,69.0L44.0,67.5L43.7,66.8L43.6,66.0L43.2,64.9L43.2,64.3L42.7,63.0L42.5,61.2L41.3,56.8L40.6,52.8L39.6,49.6L39.6,49.2L39.3,48.7L38.8,48.3L38.4,48.3L33.9,48.3L33.3,48.1L30.2,47.8L27.5,47.0L25.5,45.9L23.2,44.3L21.2,42.3L19.8,40.2L18.6,37.9L18.4,36.9L18.1,36.5L17.6,34.5L17.4,32.8L17.4,29.6L18.1,26.1L18.4,25.7L18.7,24.6L19.9,22.3L21.1,20.8L22.6,19.3L22.9,19.1L23.3,18.6L25.4,17.2L26.2,16.9L26.5,16.7L28.3,15.7L29.1,15.6L29.6,15.1L29.6,14.9L28.6,14.8Z" fill="#000" fill-rule="evenodd"/>
</svg>