<svg xmlns="http://www.w3.org/2000/svg" viewBox="0 0 128 128" width="128" height="128">
  <path d="M21.6,9.3L21.2,9.8L21.0,11.4L20.5,12.7L20.4,13.9L19.7,16.6L19.6,18.7L19.5,19.2L19.6,21.9L19.4,22.6L19.4,26.5L19.6,28.7L20.1,31.3L20.1,32.6L20.5,34.3L21.0,35.7L21.2,36.5L22.2,38.4L22.9,39.2L23.2,39.9L24.3,40.8L25.3,42.1L26.9,43.2L30.1,45.0L32.8,45.9L33.3,46.8L33.9,50.2L34.3,51.4L34.6,53.4L35.0,55.1L35.1,56.2L35.3,56.7L35.8,58.6L36.1,61.6L36.6,63.4L36.8,65.6L37.3,67.1L37.4,68.0L37.9,70.1L38.0,71.1L38.4,72.5L38.4,73.8L38.8,74.9L38.8,75.3L39.5,77.1L39.8,79.6L40.3,81.0L40.4,82.0L41.2,84.0L41.7,86.5L41.8,88.1L42.6,90.5L42.8,91.9L43.2,93.1L43.5,94.7L43.9,95.8L44.0,96.7L44.3,97.6L44.8,98.6L44.9,99.4L45.4,100.9L45.6,101.7L45.6,103.1L45.1,104.2L45.0,104.7L44.6,105.8L44.0,107.0L43.9,107.6L43.5,108.4L42.7,111.1L41.9,112.8L41.9,113.7L42.4,115.5L42.7,115.9L43.4,116.5L44.5,117.3L44.8,117.4L45.1,117.7L45.4,117.8L46.2,118.3L47.5,118.8L48.8,119.0L55.8,119.0L56.9,118.8L57.5,118.8L58.4,118.3L59.7,118.3L61.9,117.9L63.8,117.9L65.6,117.8L71.1,117.8L71.4,118.0L71.9,118.0L73.2,118.3L76.0,118.3L77.5,118.5L79.7,118.3L81.1,117.8L82.1,116.9L82.7,115.3L83.8,114.0L84.5,112.7L84.5,111.8L84.0,110.3L83.3,107.0L82.4,104.2L82.2,104.0L82.0,102.8L81.5,101.9L81.6,100.1L82.1,98.4L82.2,96.7L82.6,95.6L82.6,95.2L83.5,92.0L83.5,90.9L83.9,90.0L84.0,88.6L84.5,87.5L84.5,86.2L84.8,85.3L84.9,84.4L85.2,83.5L85.4,81.6L87.5,73.6L87.6,72.5L88.0,71.1L88.2,69.2L88.6,68.3L88.7,66.1L89.2,65.2L89.2,64.8L89.6,63.6L90.0,61.1L90.2,60.5L90.6,58.7L91.2,57.2L91.4,55.8L91.7,55.3L92.0,54.4L92.4,51.4L92.9,50.1L93.6,49.5L95.3,48.7L96.3,48.4L101.2,45.6L103.6,43.2L103.7,42.9L104.8,41.7L106.0,39.9L106.5,38.9L106.5,38.7L106.7,38.4L107.7,35.1L108.5,29.4L108.6,25.2L108.9,24.3L108.8,22.0L108.9,21.5L108.9,20.7L108.8,20.1L108.8,19.5L108.5,19.1L108.6,17.8L108.3,16.7L108.3,15.8L108.0,14.8L107.8,12.5L107.6,11.8L107.4,11.4L107.2,10.3L106.5,9.7L105.9,9.7L105.5,10.1L105.1,10.6L104.9,11.4L104.4,12.5L104.3,13.4L103.5,15.7L103.4,16.7L103.2,17.5L101.7,20.8L101.5,21.7L100.8,23.0L100.2,23.6L99.9,24.4L98.1,26.1L97.1,26.8L96.3,27.6L95.7,27.9L95.2,28.3L94.7,28.4L92.4,29.6L91.9,29.6L90.8,30.0L89.1,30.3L88.2,30.7L86.4,30.6L85.6,30.8L84.7,31.1L84.4,31.4L84.2,31.8L84.2,39.4L84.0,40.0L83.9,43.4L83.3,47.8L82.6,48.9L82.0,48.8L81.4,48.2L81.2,47.6L80.9,46.3L80.9,44.2L81.1,43.5L81.0,40.2L81.2,39.1L81.2,31.7L81.0,30.9L80.5,29.9L79.9,29.4L79.3,29.2L77.4,29.2L76.8,29.4L75.7,30.4L75.0,32.2L74.8,34.1L74.6,35.0L74.3,38.9L74.2,44.3L73.5,47.6L73.1,48.0L72.4,48.0L71.7,47.1L71.5,46.6L71.4,45.6L71.2,45.0L70.6,42.3L70.4,39.2L70.5,34.9L70.4,32.1L70.3,30.9L69.7,29.4L68.6,28.0L67.4,27.5L66.6,27.5L65.3,28.0L64.6,28.7L63.8,30.0L63.4,31.3L62.9,33.7L62.8,37.5L62.7,39.1L62.8,43.1L62.8,46.2L62.4,47.4L62.1,48.7L61.5,49.3L61.0,49.3L60.5,48.9L60.3,48.5L59.5,45.0L59.5,43.2L59.7,41.1L59.7,39.3L59.9,38.6L59.9,36.9L60.1,35.1L60.2,31.8L59.8,29.3L59.1,28.1L58.2,27.5L57.6,27.3L56.9,27.4L56.2,27.9L55.8,28.3L55.3,29.4L55.0,31.0L54.9,32.3L54.7,33.2L54.7,34.6L54.4,35.9L54.4,39.8L54.0,41.6L53.5,46.3L53.4,46.8L53.0,47.1L52.8,47.1L52.5,46.8L52.2,44.7L52.1,40.0L51.9,38.8L52.0,35.7L51.7,32.0L50.9,30.4L50.5,30.0L49.1,29.4L47.8,29.4L46.9,30.2L46.4,31.0L45.8,33.7L45.8,36.1L45.6,36.9L45.8,40.7L45.4,41.7L45.2,45.3L44.6,48.1L44.5,48.3L44.0,48.4L43.6,48.1L43.0,46.9L42.6,45.9L42.3,43.6L42.5,34.9L42.6,33.8L42.6,31.5L42.3,31.3L41.1,30.9L38.1,30.8L36.7,30.4L35.5,30.3L33.5,29.8L30.3,28.2L29.4,27.5L28.5,26.0L28.0,24.7L27.6,24.1L27.5,23.4L27.0,22.4L27.0,21.8L26.5,19.9L26.3,19.6L26.2,19.0L25.3,16.6L25.3,16.3L24.9,15.2L24.9,14.8L24.3,13.2L24.0,12.1L23.3,9.8L22.7,9.2L22.4,9.2Z M72.4,104.3L72.9,104.2L74.2,104.5L75.4,105.1L76.5,106.3L77.4,107.9L77.9,109.4L77.8,110.4L77.3,111.2L76.9,111.4L75.1,111.3L74.0,110.8L73.1,109.8L72.8,108.9L72.6,108.4L72.4,107.3L72.0,105.8L72.1,104.7Z M57.0,103.9L57.4,104.4L57.4,104.9L56.8,106.8L56.1,108.4L54.8,110.3L54.2,110.9L52.4,111.7L51.5,111.8L50.6,111.3L49.7,110.4L49.3,109.7L49.3,108.4L49.7,107.1L50.1,106.3L51.1,105.5L51.4,105.5L54.3,104.1L56.1,103.7L56.6,103.7Z M47.3,64.0L47.8,64.2L48.3,64.7L48.7,65.4L49.1,66.6L49.0,67.8L48.7,68.5L48.3,69.3L47.5,69.9L45.6,70.5L44.5,70.4L43.9,70.0L43.4,69.5L42.7,68.2L42.8,66.9L43.2,65.6L43.6,65.0L44.5,64.2L45.8,63.9Z M79.0,63.5L81.4,63.4L82.1,63.6L82.9,64.0L83.7,64.8L84.1,65.8L84.1,67.1L83.3,68.9L82.3,70.0L81.0,70.6L78.0,70.6L76.6,69.6L76.1,68.9L76.0,68.5L75.8,66.9L76.0,66.1L76.7,64.9L77.2,64.3Z M38.8,59.5L39.1,59.6L40.7,61.4L41.7,61.9L42.2,62.5L42.0,63.1L40.9,64.2L40.4,65.2L40.4,65.5L40.1,66.0L39.6,65.9L39.3,65.6L39.2,65.0L38.9,63.3L38.5,61.6L38.4,60.0Z M87.7,58.6L88.0,58.6L87.7,60.9L87.0,65.1L86.8,65.3L86.3,65.2L86.0,64.4L85.0,63.2L85.0,62.7L85.8,61.9L86.4,60.6L87.3,59.5L87.5,58.8Z M85.2,54.6L85.5,55.6L85.4,57.3L84.7,58.6L83.7,59.6L82.8,60.1L82.0,60.3L81.5,60.5L79.8,60.6L78.3,60.9L76.2,61.8L74.8,62.8L74.5,62.7L74.5,62.4L74.8,61.4L75.2,60.9L76.0,59.1L77.1,57.4L79.1,55.3L79.8,54.8L81.3,53.9L82.3,53.6L83.6,53.6L84.3,53.8Z M40.8,54.4L41.6,53.9L42.1,53.9L42.6,53.6L44.1,53.7L44.8,53.9L46.6,55.0L48.4,57.0L48.5,57.3L49.6,59.0L50.6,61.1L51.0,62.3L52.0,64.3L52.6,66.4L52.9,66.7L53.7,68.9L54.9,74.9L55.0,77.5L55.2,78.8L55.3,79.0L55.6,83.0L56.0,86.6L56.2,87.7L56.3,91.5L56.5,92.8L56.7,93.6L56.8,97.2L57.0,98.8L57.2,99.2L57.2,100.4L57.0,100.9L56.7,101.1L55.5,101.5L54.5,101.6L52.5,102.1L50.4,103.1L48.3,104.9L47.4,106.2L47.1,108.2L47.1,109.6L47.3,110.5L48.3,112.5L49.0,113.2L50.3,113.9L51.8,114.3L53.1,114.3L54.3,113.9L56.3,112.4L57.5,111.1L58.3,109.4L58.4,108.9L59.4,106.8L59.5,106.1L59.5,105.1L59.9,104.2L60.4,103.7L61.2,103.4L63.5,103.1L67.0,103.2L68.5,103.7L68.9,104.3L69.1,105.0L69.2,106.6L69.8,108.3L69.9,109.0L70.4,110.4L70.8,110.9L72.1,112.2L74.1,113.6L75.8,114.2L77.9,114.3L79.2,113.6L80.2,112.7L80.6,111.6L80.5,110.2L79.8,107.6L78.9,106.0L77.0,104.2L75.5,103.0L71.9,101.4L71.4,100.8L71.3,100.0L71.3,97.2L71.0,94.7L71.1,92.3L70.8,89.5L71.1,88.2L71.0,83.5L71.3,80.2L71.3,77.9L71.7,76.4L71.8,73.5L72.3,70.9L72.3,69.4L72.6,67.9L72.8,67.2L72.8,66.6L72.9,66.5L73.3,66.3L73.6,66.6L73.6,68.0L73.9,68.9L74.4,70.1L74.9,70.8L75.7,71.6L76.9,72.4L79.2,73.4L79.9,73.6L80.8,73.6L82.4,73.2L83.9,72.3L85.6,70.3L85.9,70.4L85.9,70.9L85.5,72.1L85.2,73.9L84.9,74.6L84.9,75.0L84.5,76.0L84.3,78.1L83.9,79.3L83.8,80.2L83.5,80.8L83.5,81.9L83.0,83.5L82.7,86.3L82.4,87.4L82.1,87.7L81.9,89.2L81.6,90.0L81.5,91.0L81.1,92.1L81.0,93.3L80.7,94.1L80.6,94.7L80.2,95.6L78.8,100.9L79.2,103.0L80.0,105.3L80.3,106.8L80.6,107.4L80.8,108.8L81.7,111.5L81.7,112.3L81.4,113.2L80.3,114.9L79.6,115.5L78.5,115.9L74.3,116.0L73.0,115.9L68.6,115.7L67.1,115.4L60.7,115.4L59.1,115.5L55.7,115.5L54.8,115.8L53.7,115.8L52.9,115.9L50.6,115.9L49.7,116.1L47.3,116.1L46.5,115.9L45.7,115.5L44.9,114.6L44.5,113.7L44.5,112.7L44.9,110.6L45.3,109.8L45.8,108.1L46.7,106.2L47.4,103.7L47.8,103.1L47.9,101.9L47.3,99.9L47.2,98.5L46.5,96.5L46.4,95.2L45.8,94.0L45.8,93.3L44.2,87.7L44.0,86.3L43.1,83.5L43.0,81.8L42.3,79.3L41.9,76.5L41.4,75.0L41.2,73.2L40.9,72.6L40.9,71.4L41.2,71.2L41.7,71.2L43.1,72.2L45.9,73.3L46.9,73.2L48.1,72.7L49.1,72.1L49.7,71.5L50.4,70.1L51.4,67.1L51.5,65.2L50.7,63.9L49.2,62.4L45.9,61.0L42.8,60.3L41.4,59.5L40.1,58.3L39.5,57.1L39.5,56.2L40.0,55.2Z M48.6,31.5L48.8,31.5L49.2,31.8L49.5,33.8L49.5,37.1L49.3,38.4L49.3,40.7L49.2,41.2L49.2,43.6L49.5,45.9L50.0,47.5L50.4,48.3L51.5,49.2L52.5,49.7L53.8,49.8L54.3,49.6L54.7,49.2L55.5,46.7L56.2,41.7L56.2,39.0L56.5,37.3L56.7,31.3L56.7,30.8L57.2,29.8L57.6,29.7L57.9,30.0L58.1,31.3L58.2,33.7L58.1,35.6L57.6,38.4L57.4,40.1L57.3,43.3L57.5,45.9L57.9,48.0L58.6,49.6L60.0,50.9L60.6,51.3L61.1,51.4L62.1,51.3L62.9,50.7L63.5,50.0L64.2,48.3L64.9,43.1L64.8,40.5L65.0,39.3L65.1,35.7L65.7,31.9L66.1,30.8L66.6,30.2L67.0,29.9L67.4,29.9L67.7,30.2L68.0,32.1L68.0,33.5L67.8,34.1L67.8,41.2L68.0,43.0L68.2,43.6L68.2,44.1L68.9,46.8L69.8,48.3L71.0,49.6L71.4,49.8L72.4,50.1L73.2,50.1L74.3,49.5L75.5,48.1L75.9,47.1L76.5,44.1L76.5,43.2L76.3,42.6L76.3,38.6L76.9,33.7L77.3,32.0L77.5,31.8L77.9,31.7L78.3,32.3L78.4,33.1L78.2,43.5L78.4,46.0L78.4,47.7L78.9,49.2L79.3,49.9L80.0,50.8L80.0,51.3L79.7,51.6L78.3,52.3L77.6,53.0L77.5,53.3L77.0,53.9L76.8,54.4L74.6,57.6L73.7,59.2L72.7,60.6L71.9,62.0L71.8,62.4L71.2,63.7L70.4,66.2L70.1,68.1L70.0,69.7L69.8,70.3L69.6,72.9L69.2,74.8L69.2,77.3L68.9,77.9L68.8,79.3L68.9,84.8L68.7,87.4L68.7,90.1L68.5,91.0L68.5,98.2L68.7,98.8L68.7,100.0L68.0,100.6L64.7,100.7L62.1,101.0L61.2,101.0L60.3,100.8L59.8,100.4L59.7,100.1L59.5,95.6L59.5,92.5L59.2,91.3L59.2,88.7L58.7,87.0L58.7,85.6L58.4,83.5L58.3,81.7L57.7,78.8L57.7,77.4L57.2,75.1L57.0,73.2L56.1,70.4L56.1,69.4L55.6,68.2L55.4,66.9L55.2,66.5L55.0,65.6L54.6,64.7L54.3,63.1L53.8,61.8L52.6,59.3L52.0,58.5L51.8,57.9L50.3,55.6L49.7,54.9L49.5,54.4L47.8,52.8L46.8,52.1L46.1,51.3L46.2,50.8L46.9,49.5L47.3,48.0L47.4,45.3L47.6,44.6L47.8,41.5L47.6,38.6L47.8,37.3L47.8,34.5L48.2,31.8Z M106.1,15.1L106.2,15.3L106.5,20.5L106.3,21.3L106.3,23.4L106.0,25.8L106.0,27.4L105.7,28.2L105.6,30.9L104.8,34.1L104.4,35.0L104.4,35.2L104.2,35.6L103.8,36.6L102.1,39.7L101.4,40.5L99.9,42.0L99.0,42.6L97.7,43.1L97.1,43.6L95.6,44.5L95.3,44.8L92.9,45.8L92.6,46.1L91.0,46.7L90.6,47.2L90.2,48.9L89.7,50.1L89.5,52.0L89.1,53.0L88.8,55.3L88.7,55.4L88.2,55.6L87.6,54.5L86.1,52.9L84.5,51.9L84.0,51.3L84.0,50.9L85.2,48.3L85.4,47.4L85.8,46.3L85.9,45.1L86.2,44.4L86.2,42.1L86.3,41.6L86.3,39.3L86.5,38.5L86.3,36.6L86.6,35.6L86.6,33.2L87.3,32.7L88.7,32.6L90.0,32.3L90.7,32.0L91.6,31.9L92.1,31.7L93.9,31.2L95.8,30.4L96.3,30.3L98.1,29.3L100.5,27.3L102.3,25.1L103.6,22.4L103.9,21.4L103.9,21.0L104.3,20.1L104.8,17.7L105.2,16.8L105.4,15.4L105.6,15.1Z M22.3,15.0L22.5,15.0L22.9,15.3L23.1,16.3L23.1,16.9L23.4,18.2L23.8,19.0L23.8,19.4L24.6,22.1L24.6,22.5L25.5,24.6L25.6,25.2L26.0,25.7L26.6,27.1L27.6,28.8L28.5,29.6L29.8,30.6L30.7,31.1L31.3,31.3L31.7,31.6L32.7,32.0L33.9,32.2L36.0,32.8L39.1,33.3L39.4,33.5L39.8,33.9L39.8,40.7L40.3,45.3L40.8,47.2L41.2,48.2L41.9,49.2L42.6,49.8L43.3,50.6L43.3,50.9L42.6,51.4L41.2,51.8L40.0,52.5L38.7,53.8L37.9,54.8L37.4,54.8L37.3,54.6L36.4,52.1L36.1,50.2L36.0,49.8L35.9,48.6L35.5,47.4L35.3,45.5L35.0,44.5L34.4,44.0L32.3,43.4L29.6,41.8L25.9,38.8L24.9,37.8L24.5,37.1L24.1,35.9L23.9,34.6L23.4,33.2L23.1,31.6L23.0,30.4L22.6,29.3L22.4,27.1L22.2,26.6L22.2,23.8L21.7,19.5L21.7,16.8L21.9,15.5Z" fill="#000" fill-rule="evenodd"/>
</svg>