<svg xmlns="http://www.w3.org/2000/svg" viewBox="0 0 128 128" width="128" height="128">
  <path d="M58.1,83.0L57.4,83.2L55.7,84.2L54.3,85.6L53.6,86.8L53.2,88.1L53.1,90.2L53.6,91.8L54.1,92.7L54.7,93.5L56.2,94.8L58.3,95.8L60.8,95.8L62.1,95.4L63.1,94.8L65.0,93.0L65.7,91.6L66.0,90.3L65.8,87.6L64.7,85.3L62.9,83.7L62.1,83.3L60.9,83.0Z M118.6,9.8L118.2,9.6L98.3,9.8L81.1,10.2L78.0,10.1L76.3,10.3L69.6,10.3L64.4,10.5L55.0,10.5L52.8,10.7L47.0,10.6L36.7,10.9L10.1,11.1L9.6,11.3L9.4,11.6L9.4,24.7L9.6,32.3L9.5,38.4L9.7,47.9L9.7,58.3L9.9,65.0L9.9,76.2L10.3,117.1L10.6,118.5L11.0,118.7L27.2,118.5L68.7,118.6L97.9,118.3L117.8,118.4L118.3,118.1L118.5,90.1L118.4,74.2L118.6,62.5L118.8,10.3Z M57.9,72.4L60.8,72.4L64.2,73.0L66.4,73.8L67.7,74.4L70.0,76.0L71.2,77.0L73.2,79.2L74.7,81.5L75.8,84.2L76.5,87.4L76.6,90.5L76.3,92.8L75.4,95.7L74.2,98.1L72.8,100.2L71.3,101.7L70.0,102.8L68.4,104.0L67.1,104.6L64.3,105.8L61.2,106.4L58.2,106.4L55.3,105.8L53.9,105.3L52.0,104.4L50.1,103.2L49.8,102.8L49.3,102.6L47.4,100.8L46.1,99.3L44.9,97.7L44.3,96.4L43.5,94.4L42.7,90.9L42.7,87.4L43.7,83.6L44.8,81.0L46.7,78.4L49.1,76.0L52.1,74.1L54.3,73.2Z M52.7,66.4L52.9,66.7L52.6,67.1L50.9,67.9L49.4,68.8L46.8,71.1L44.9,73.0L43.4,75.1L41.9,78.1L40.9,81.4L40.9,82.1L40.6,84.0L40.6,87.2L40.8,89.5L41.7,92.8L43.5,96.8L44.5,98.1L44.7,98.5L46.9,101.1L46.7,101.3L46.4,101.2L42.9,97.8L41.4,95.8L39.2,92.3L38.7,91.0L38.1,90.1L37.6,88.7L37.1,88.0L35.6,83.4L34.7,78.7L34.6,74.3L35.0,70.8L35.3,70.1L35.6,69.8L36.6,69.8L37.8,70.1L38.9,70.6L39.9,71.4L41.3,73.0L41.8,73.0L43.7,71.2L47.3,68.6L48.8,67.9L49.3,67.8L50.3,67.2Z M99.7,47.2L100.1,47.6L100.2,49.9L100.0,54.8L99.9,73.4L99.7,75.6L99.6,80.2L98.9,84.2L97.5,88.2L95.4,92.6L93.2,95.9L91.6,97.7L89.3,100.0L86.1,102.6L83.5,104.3L80.4,105.9L76.3,107.4L73.9,108.0L73.2,108.0L72.3,108.3L68.4,108.6L64.1,108.6L59.7,108.0L57.3,107.4L55.6,106.6L55.4,106.4L55.9,106.4L56.2,106.5L57.1,106.6L58.9,107.1L59.8,107.1L60.6,107.3L63.2,107.3L67.8,106.5L71.1,105.3L72.7,104.5L74.4,103.3L75.8,102.2L78.9,99.0L80.3,97.0L81.3,95.2L82.9,91.4L83.4,88.9L83.7,86.8L83.7,81.9L83.9,81.0L83.7,80.1L83.8,68.1L84.3,64.9L85.3,61.5L85.7,60.9L86.8,58.4L88.9,55.2L89.8,54.0L92.5,51.4L95.7,49.0L97.1,48.2L97.4,48.2L98.0,47.8Z M101.7,46.3L103.3,46.0L103.9,45.8L106.0,45.5L107.7,45.5L107.9,45.7L107.8,47.1L107.6,47.3L106.7,47.3L106.2,47.5L105.4,48.2L105.2,48.6L105.2,49.6L105.5,50.3L106.1,51.0L107.6,51.3L107.9,51.8L107.7,61.2L107.2,61.3L105.7,60.4L105.2,59.7L105.2,55.2L104.6,53.9L103.4,51.9L100.9,47.3L100.9,46.9Z M107.9,40.6L107.6,40.9L106.6,40.9L103.5,41.4L100.8,42.0L98.3,42.9L94.4,44.8L92.3,46.1L89.7,48.1L87.6,50.1L86.2,51.8L84.7,53.9L83.2,56.4L82.1,58.8L81.0,62.1L80.1,66.7L79.9,76.5L79.6,76.8L79.0,76.8L78.0,76.3L77.5,76.0L73.8,74.1L73.5,73.8L71.6,72.9L65.5,69.6L65.2,69.0L65.6,68.6L66.5,68.3L67.0,68.0L67.7,67.9L68.3,67.5L68.4,65.4L68.1,65.0L67.0,65.1L64.2,66.1L62.4,67.2L61.4,67.3L61.0,67.2L58.3,65.6L56.8,64.9L53.5,63.0L53.5,62.5L54.8,61.5L58.8,59.0L60.7,58.2L62.1,57.5L63.4,57.1L63.9,56.8L68.0,55.8L68.3,55.6L68.5,54.6L68.5,53.2L68.1,52.8L66.9,52.9L62.4,54.1L60.8,54.9L59.5,55.3L56.3,56.9L53.1,58.9L50.8,60.8L50.2,61.1L49.7,61.1L47.1,59.8L44.4,58.1L43.2,57.7L42.5,57.0L42.6,56.5L46.2,53.2L49.3,50.9L53.7,48.3L56.6,47.1L56.9,46.8L59.2,46.0L59.6,45.8L60.3,45.7L63.2,44.6L63.8,44.6L66.1,43.9L68.1,43.7L68.4,43.4L68.5,43.0L68.4,41.7L68.1,41.4L67.3,41.4L64.7,41.8L60.4,43.0L58.0,43.9L57.4,44.0L57.0,44.3L56.3,44.5L53.5,45.8L51.4,47.0L51.0,47.1L49.6,48.0L49.2,48.1L46.9,49.7L43.2,52.6L40.9,54.8L39.8,55.6L39.2,55.5L31.9,51.6L31.6,51.2L31.7,50.7L35.7,46.5L39.5,43.3L43.6,40.3L49.3,37.1L50.2,36.9L51.0,36.3L52.3,35.8L52.7,35.6L53.5,35.4L54.0,35.0L57.1,33.9L57.9,33.8L58.4,33.6L60.6,32.9L65.2,31.8L68.0,31.5L68.5,31.0L68.6,30.0L68.5,29.4L68.2,29.1L66.1,29.2L65.6,29.4L62.6,29.8L56.9,31.4L52.0,33.1L45.7,36.1L40.8,39.2L36.1,42.8L32.3,46.3L29.1,49.7L28.5,49.7L24.1,47.4L23.3,46.8L22.5,46.5L20.8,45.4L20.8,45.1L21.2,44.4L24.5,40.7L28.5,36.8L32.9,33.1L36.6,30.5L40.6,28.0L47.8,24.4L48.6,24.2L51.4,23.0L54.4,22.1L55.5,21.6L61.9,20.0L65.7,19.5L66.8,19.3L68.0,19.3L68.7,19.1L71.7,18.8L76.5,18.7L78.9,18.9L79.2,19.4L79.3,20.1L79.2,49.9L79.0,55.1L79.0,66.4L79.2,66.7L79.4,65.9L79.7,63.9L80.6,60.7L82.5,56.1L82.9,55.8L83.0,55.4L84.1,53.6L86.2,50.6L89.2,47.7L93.4,44.5L97.0,42.6L98.9,41.8L102.0,40.9L104.5,40.4L105.5,40.4L106.3,40.2L107.8,40.3Z" fill="#000" fill-rule="evenodd"/>
</svg>