<svg xmlns="http://www.w3.org/2000/svg" viewBox="0 0 128 128" width="128" height="128">
  <path d="M40.2,9.5L39.9,9.8L39.8,13.7L39.4,14.3L38.8,14.6L37.7,14.9L36.1,15.3L34.3,15.9L33.0,16.1L31.8,16.6L30.2,17.0L28.8,17.6L27.6,17.8L26.2,18.4L25.5,19.0L25.5,19.2L25.8,20.6L25.8,21.1L26.2,22.0L26.7,22.1L27.8,21.4L28.6,21.4L29.5,21.8L29.9,22.3L30.2,22.8L30.2,23.2L30.0,23.6L29.6,24.1L28.9,24.5L27.9,24.5L27.4,24.8L27.3,25.9L27.5,26.5L27.9,26.9L28.6,27.1L29.8,26.8L32.6,26.4L33.3,26.2L34.7,26.1L35.7,25.8L37.3,25.6L37.8,25.7L37.9,25.8L38.1,27.0L38.4,28.0L38.4,29.4L38.0,32.4L38.0,34.0L38.1,34.4L38.1,35.1L37.6,36.2L37.3,37.2L37.0,40.3L36.7,40.9L36.7,44.6L36.4,45.3L36.3,46.3L35.9,47.3L35.8,48.8L35.3,51.3L35.3,51.9L34.7,53.1L34.6,54.2L34.0,57.2L34.0,69.3L34.3,70.8L34.4,73.1L34.7,74.2L34.8,75.5L35.1,76.4L35.3,78.7L35.4,79.1L35.7,86.5L36.1,88.4L36.4,89.0L36.9,93.2L37.8,97.1L38.8,99.3L38.8,99.7L38.2,100.7L38.2,101.6L38.4,102.9L38.7,106.2L38.9,106.9L39.3,109.7L39.3,113.1L39.5,117.2L39.8,118.7L40.2,119.2L40.5,119.2L42.0,119.0L42.4,118.6L42.3,114.2L42.1,113.2L42.0,110.9L41.5,107.3L41.6,100.8L41.5,100.5L41.3,99.3L41.4,96.7L41.1,94.1L41.2,91.6L40.8,90.8L40.8,87.5L41.0,85.3L41.0,84.1L41.3,82.1L41.6,81.7L42.2,81.5L43.9,81.3L44.9,81.4L45.5,81.9L45.5,87.3L45.7,88.2L45.8,90.9L46.0,91.8L46.0,92.6L45.9,93.4L45.9,95.6L46.1,96.5L46.0,104.2L45.8,105.4L45.8,109.2L45.9,111.4L45.8,114.4L45.3,116.1L45.3,118.4L45.9,118.9L47.9,118.9L48.4,118.5L48.7,116.9L48.8,116.6L49.7,115.7L49.9,115.0L49.8,110.1L50.0,109.1L49.9,106.4L50.0,105.5L50.0,104.9L49.9,104.3L50.0,98.8L50.0,97.3L50.4,93.0L50.4,90.7L50.5,89.9L50.4,87.8L50.7,86.6L50.7,84.0L51.1,82.4L51.1,81.5L51.7,81.0L52.4,80.8L54.1,80.9L55.3,80.7L57.0,80.7L58.1,80.4L59.2,80.5L59.6,80.4L60.8,80.4L61.2,80.7L62.0,81.0L63.5,81.0L64.1,81.1L66.7,81.0L67.1,80.9L69.1,81.0L72.1,80.7L75.9,80.5L76.5,80.7L76.8,81.1L76.9,82.4L76.9,88.6L77.0,91.4L77.0,95.2L77.5,97.2L77.5,98.4L77.3,99.4L77.3,100.2L77.4,100.8L77.4,101.9L77.6,102.7L77.6,106.9L77.7,108.0L77.6,108.8L77.6,110.3L77.3,113.5L77.0,118.1L77.1,118.6L77.3,119.0L79.2,119.1L79.5,118.9L79.9,117.7L80.5,116.9L80.7,116.4L80.7,111.0L80.6,109.0L80.7,108.0L80.5,106.6L80.4,101.6L80.2,101.1L80.2,99.0L80.4,98.1L80.4,91.6L80.4,89.7L80.7,87.2L80.8,84.1L81.0,83.7L81.0,82.4L81.4,81.5L81.4,80.7L81.7,80.3L82.3,80.1L84.8,80.1L86.0,80.6L86.3,81.0L86.4,85.1L86.0,87.3L86.0,87.8L86.3,88.9L86.0,89.9L86.1,92.6L85.9,93.1L85.9,94.2L86.3,95.6L86.3,101.2L86.2,102.3L85.8,103.5L85.8,106.6L85.4,109.3L85.4,110.9L85.1,113.4L84.8,114.6L84.8,116.9L84.9,118.1L85.3,118.5L86.1,118.7L87.0,118.7L87.4,118.4L87.5,117.2L87.7,116.8L88.0,116.5L88.5,116.5L88.8,116.1L88.9,115.7L89.1,109.8L89.3,108.0L89.2,102.2L89.8,98.8L89.7,97.8L90.0,95.3L90.1,93.4L90.5,92.0L90.5,90.2L90.7,88.0L90.6,86.6L90.8,85.8L91.2,85.1L91.3,84.2L91.3,81.2L91.6,79.7L91.9,78.9L91.8,78.0L91.9,76.9L92.1,75.9L92.1,74.5L92.6,72.7L92.6,71.7L92.3,71.2L92.3,70.5L92.9,68.4L92.9,67.4L93.3,66.5L93.4,64.3L93.6,63.6L93.7,62.3L94.0,61.7L93.6,59.9L93.7,58.9L94.1,58.1L94.1,56.6L94.5,55.9L94.5,55.4L94.8,54.0L95.1,53.8L95.3,54.0L96.0,55.6L95.9,56.5L96.0,57.2L96.3,62.8L96.1,65.8L96.5,66.8L96.9,69.8L97.3,71.2L97.2,73.1L97.4,73.8L97.7,74.0L98.1,74.0L98.8,73.6L99.3,73.5L99.6,73.2L101.0,69.9L101.3,69.5L102.1,68.8L102.5,68.3L102.8,65.9L102.6,61.1L102.7,57.3L101.8,55.5L101.6,54.3L100.8,52.4L100.5,52.1L99.4,49.5L97.1,47.3L95.0,44.8L93.3,44.2L92.6,43.8L91.9,43.6L89.9,43.9L86.7,43.9L84.4,43.5L81.7,43.2L81.0,43.0L79.8,42.9L78.9,42.5L78.7,42.3L78.6,41.9L78.6,40.8L78.9,38.7L78.8,36.7L78.7,36.4L78.9,33.7L79.5,33.3L86.4,32.7L87.1,32.4L88.0,31.7L89.1,31.6L90.0,31.4L90.6,31.1L92.4,29.2L93.9,27.4L94.3,26.0L95.2,24.2L95.2,23.9L95.3,23.8L96.0,21.6L96.7,17.3L97.7,15.3L98.1,14.9L98.4,14.8L98.7,14.3L99.0,12.5L98.9,11.9L98.4,11.6L97.2,11.5L96.5,11.3L85.1,10.9L84.1,10.5L82.7,10.2L79.6,10.2L77.8,10.4L76.3,10.4L75.3,10.2L74.7,10.5L74.2,10.5L73.3,10.2L72.9,10.2L72.3,10.5L71.0,11.8L70.2,12.2L69.5,13.1L68.9,15.0L67.4,18.7L67.0,19.4L66.8,19.9L65.9,21.1L65.1,23.0L64.7,23.5L64.3,24.5L64.3,25.1L64.5,25.5L64.4,26.2L63.1,29.2L63.0,29.9L62.2,31.6L61.6,33.3L61.3,33.9L60.7,35.6L59.8,37.1L59.4,38.7L59.1,39.0L58.9,38.9L58.6,38.3L58.5,37.0L58.2,35.7L58.2,34.0L57.8,32.7L57.7,31.9L57.2,30.4L57.0,30.0L56.7,28.8L56.2,28.0L55.7,26.2L54.5,23.9L54.5,23.5L54.2,23.3L53.2,21.4L51.0,18.1L50.4,17.0L48.6,14.7L48.0,13.0L46.6,10.7L45.3,9.1L45.0,9.1L44.7,9.4L44.6,10.6L44.6,11.8L44.3,13.5L44.0,13.9L43.7,13.9L43.0,13.1L42.5,12.2L42.4,11.6L41.8,10.7L40.7,9.5Z M43.5,48.5L44.0,48.6L44.2,49.0L44.2,62.0L44.4,63.0L44.3,63.9L44.6,64.9L44.6,67.7L44.4,68.2L44.4,70.1L44.6,72.6L44.6,76.2L44.2,76.6L43.7,76.8L42.7,76.6L42.1,76.1L41.8,75.6L41.6,74.7L40.0,71.8L39.9,67.4L39.3,65.9L39.1,65.0L39.5,62.3L40.0,61.1L40.2,57.4L40.5,56.2L40.4,55.2L40.0,53.4L40.1,52.3L40.2,51.9L41.2,50.9L41.8,49.9L42.7,49.0Z M91.8,46.8L91.9,48.0L91.7,48.5L91.7,49.7L91.5,50.5L91.3,55.8L91.0,56.2L90.7,57.0L90.8,60.3L90.5,62.9L90.2,63.6L90.3,67.4L90.2,68.9L90.1,75.5L89.9,75.6L89.1,75.7L88.5,75.9L86.9,75.9L85.7,76.0L82.9,75.9L82.3,76.1L80.4,76.1L75.9,75.3L71.5,75.2L70.8,75.6L69.7,76.5L69.0,76.9L68.3,77.5L67.7,77.8L67.0,78.7L66.7,78.7L65.3,77.3L64.3,76.3L64.0,76.1L59.4,76.1L56.7,76.4L50.9,76.4L49.8,75.8L48.3,75.6L48.0,75.4L47.8,74.9L48.0,70.6L47.8,69.5L47.9,66.9L47.7,63.3L47.8,58.1L48.1,57.6L48.3,54.9L48.2,51.0L47.9,49.9L47.9,48.5L47.6,46.7L47.7,46.3L48.2,45.9L50.4,45.9L50.7,46.1L54.1,46.1L54.5,45.9L58.8,45.9L60.0,46.3L62.0,46.2L62.7,46.3L64.3,46.4L64.7,46.6L65.4,47.3L66.0,48.7L66.5,49.3L66.9,49.3L67.4,48.5L68.6,47.6L69.1,46.6L69.8,46.2L71.1,46.0L71.9,46.1L73.1,45.7L76.0,45.8L76.6,45.9L78.9,45.9L80.3,46.1L82.4,46.2L83.4,46.5L85.7,46.4L86.3,46.6L88.9,46.6L89.3,46.4L91.2,46.4L91.5,46.5Z M44.0,25.0L45.7,24.5L46.7,24.1L47.3,24.0L48.2,24.5L49.0,24.6L49.9,25.3L50.3,25.5L51.1,26.2L51.5,26.9L51.7,27.3L51.5,28.5L52.1,30.3L52.5,31.3L52.8,32.1L53.8,34.3L53.8,34.5L54.5,36.0L55.1,37.6L55.0,39.2L54.4,41.3L54.1,41.6L54.0,42.5L53.8,42.9L53.4,43.0L50.9,43.0L50.2,42.8L46.6,42.5L43.9,41.5L43.1,40.8L42.9,40.5L43.0,39.3L42.8,38.4L42.8,37.0L43.1,36.1L43.2,31.9L42.9,30.9L42.9,29.0L43.4,27.5L43.5,25.6L43.6,25.4Z M35.4,19.5L35.5,19.0L36.1,18.1L37.1,17.2L38.9,16.0L39.2,16.1L39.3,16.3L38.8,16.6L38.0,17.5L37.8,17.9L37.8,18.7L38.2,19.6L38.8,20.1L39.3,20.4L40.5,20.4L41.2,20.0L41.7,19.4L42.1,18.5L42.0,17.5L41.7,17.0L41.8,16.6L42.6,16.6L43.9,17.4L44.6,18.3L44.6,18.7L42.7,20.7L42.2,21.1L40.6,21.5L38.5,21.5L38.2,21.7L37.8,21.7L36.7,21.2L36.1,20.7Z M93.5,14.5L93.6,14.9L93.0,15.6L92.4,16.0L91.3,17.0L90.9,17.2L89.7,17.3L88.5,17.7L87.3,18.4L85.4,18.7L84.8,18.3L84.1,18.3L82.6,19.1L80.5,19.2L78.3,19.6L76.3,20.2L75.6,20.7L75.2,21.1L75.0,21.8L75.2,22.2L75.8,22.9L76.5,22.9L76.9,22.7L77.8,22.5L78.7,22.5L78.9,22.7L79.9,22.9L80.7,22.9L81.4,22.6L82.7,22.8L84.1,22.8L85.1,22.7L86.4,22.1L87.5,22.1L88.4,21.8L89.9,21.8L91.6,21.4L91.8,21.5L92.1,22.0L92.3,23.1L91.9,23.8L90.8,25.3L89.9,25.5L89.5,25.8L88.5,26.7L87.5,27.3L86.1,28.8L84.8,29.0L83.8,29.4L82.8,29.5L80.9,30.0L79.5,30.3L78.2,30.3L77.7,30.1L75.9,30.0L75.2,30.3L73.4,30.1L73.0,30.3L72.0,31.1L72.0,31.7L72.5,32.3L73.3,32.6L74.2,32.7L74.8,33.1L75.2,33.7L75.3,34.6L75.2,36.4L74.9,38.1L74.8,39.3L74.3,40.5L73.9,41.1L73.8,41.7L73.2,42.5L72.0,42.6L70.1,42.5L69.5,42.9L68.4,43.2L67.8,43.9L67.1,44.6L66.4,44.6L64.4,43.8L64.1,43.8L62.8,43.3L62.0,42.7L62.0,42.2L62.6,41.1L63.1,39.1L64.7,35.2L64.7,34.7L65.1,33.7L65.7,33.0L66.6,31.0L66.9,29.2L67.1,28.9L67.3,28.2L67.5,27.9L68.0,26.0L69.3,23.5L69.9,21.4L71.2,19.5L71.8,18.1L72.1,17.1L72.5,16.4L72.6,15.8L73.3,14.9L75.2,13.9L75.8,13.9L76.5,14.2L77.4,14.2L78.3,13.8L84.0,13.9L84.5,14.3L85.1,14.5L87.6,14.3L88.2,14.0L89.3,14.0L90.4,14.3Z" fill="#000" fill-rule="evenodd"/>
</svg>