<svg xmlns="http://www.w3.org/2000/svg" viewBox="0 0 128 128" width="128" height="128">
  <path d="M96.3,12.7L95.9,12.6L94.9,12.7L93.8,13.0L93.5,13.3L93.6,13.9L94.4,15.4L94.4,17.0L94.0,17.9L93.3,19.1L91.9,20.4L90.8,21.1L88.9,21.7L86.5,22.1L84.6,22.1L82.3,21.7L80.7,21.6L79.8,21.3L77.6,21.0L75.9,20.6L71.9,20.1L70.9,19.8L66.6,19.4L63.5,18.9L60.9,18.8L60.3,18.6L57.3,18.4L50.7,18.3L48.7,18.5L47.4,18.5L44.3,19.1L39.1,20.7L36.4,22.4L34.6,24.4L34.5,24.8L34.1,25.4L33.5,27.0L33.4,28.2L33.4,30.9L33.6,32.1L33.7,33.5L34.6,37.1L35.0,39.7L35.5,41.5L36.1,42.1L37.2,42.2L39.4,41.9L39.9,41.0L39.9,40.4L40.3,39.2L41.1,38.1L42.2,37.3L42.8,37.1L43.0,37.0L44.2,36.6L45.3,36.6L47.1,37.1L48.2,37.6L49.1,37.7L50.2,38.3L54.3,39.6L55.5,40.3L55.8,40.3L56.5,40.7L58.0,41.2L58.5,41.5L59.8,42.2L60.2,42.2L60.9,42.7L61.7,43.6L61.6,44.3L61.3,44.6L60.4,44.5L58.2,43.6L56.0,43.0L52.3,42.5L48.9,42.5L48.2,42.8L46.1,43.0L44.9,43.5L44.4,43.5L43.5,43.8L42.4,44.0L40.0,44.9L39.4,45.0L38.9,45.4L36.7,46.0L35.6,46.6L33.8,47.1L33.6,47.3L31.2,48.0L29.7,48.3L28.7,48.6L25.8,49.1L23.1,49.1L20.7,48.6L20.1,48.3L19.2,48.1L16.9,47.1L15.6,46.1L14.0,44.3L13.0,42.5L12.6,41.2L12.3,39.6L12.3,38.2L12.5,36.1L13.0,34.5L13.6,33.2L14.9,31.3L16.2,30.1L18.8,28.6L20.1,28.1L21.2,27.9L21.7,27.4L21.8,26.8L21.7,26.6L21.3,26.4L20.1,26.5L17.8,27.1L15.6,28.1L14.3,29.1L12.3,31.2L11.2,32.7L10.2,34.8L9.3,37.8L9.2,40.8L9.6,43.5L10.2,45.1L11.1,47.0L11.5,47.3L12.3,48.6L13.8,50.2L16.0,51.8L18.7,53.0L20.2,53.1L20.6,53.3L24.6,53.2L26.7,52.8L29.7,51.9L30.1,51.7L33.0,50.5L33.5,50.2L34.0,50.1L35.2,49.6L36.7,48.7L38.9,47.8L39.4,47.7L40.1,47.3L41.9,46.7L42.5,46.4L43.2,46.3L44.1,45.9L46.4,45.4L49.3,45.0L53.4,45.1L54.7,45.4L55.1,45.6L55.4,45.6L56.7,46.0L57.1,46.3L58.1,46.6L61.1,48.0L62.0,48.9L62.1,49.4L61.8,49.9L60.2,50.2L58.2,49.9L53.5,49.9L48.4,49.7L46.6,49.8L46.1,50.2L46.1,52.2L46.4,54.9L46.6,55.4L47.1,56.2L48.4,57.3L49.5,57.7L51.7,58.1L53.6,58.2L56.0,58.6L67.0,59.5L67.5,59.9L67.7,60.4L67.7,63.0L67.3,64.9L66.7,66.5L65.4,68.4L63.2,70.4L63.0,70.5L62.0,71.4L60.2,72.4L59.1,73.3L57.8,73.9L57.4,74.3L56.8,74.4L56.6,74.7L56.0,74.9L54.5,75.8L50.8,78.5L46.4,82.6L43.9,85.5L43.1,86.9L42.9,87.4L42.6,87.7L41.1,90.9L41.0,91.4L40.7,91.7L39.8,95.4L39.3,98.4L39.3,101.2L39.0,101.8L38.7,102.0L37.9,102.3L36.1,102.5L33.5,101.6L28.2,101.0L21.9,101.1L19.3,101.5L18.6,101.5L17.8,101.9L17.9,102.5L19.0,104.1L22.3,108.1L25.3,111.1L25.6,111.2L27.1,112.5L30.1,114.1L32.2,114.9L33.6,115.1L34.6,115.4L38.0,115.8L44.6,115.4L48.4,114.7L49.0,114.7L52.1,115.3L55.7,115.7L60.2,115.6L61.9,115.4L65.4,114.7L66.4,114.7L68.9,115.4L70.9,115.7L74.9,115.7L77.6,115.4L81.4,114.5L82.3,114.5L83.6,114.9L86.5,115.3L86.9,115.5L93.3,115.7L94.1,115.5L96.5,115.3L97.4,115.1L98.4,115.0L99.6,114.7L100.4,114.6L101.7,114.1L102.5,114.1L103.2,114.5L104.6,114.7L105.9,115.0L109.5,115.1L113.1,114.7L114.7,114.5L115.4,114.0L116.9,114.1L118.2,113.9L118.8,113.6L118.9,113.0L118.0,112.1L117.4,110.9L116.4,110.0L115.6,108.8L114.1,107.0L112.4,105.5L110.5,104.1L108.5,103.1L106.7,102.4L103.4,101.7L98.8,101.4L98.3,100.9L98.3,99.9L98.9,97.5L100.1,93.4L100.2,92.1L100.7,90.9L100.8,90.2L101.0,89.7L102.1,85.2L102.5,84.1L102.8,82.6L103.5,80.3L103.5,79.8L104.4,76.4L104.5,75.0L104.7,74.2L105.4,68.5L105.9,66.8L106.1,61.3L106.0,58.6L105.6,56.0L105.4,52.9L104.8,51.2L104.7,50.0L104.4,49.5L104.3,48.8L103.7,47.5L103.6,47.0L101.9,43.0L101.0,41.5L100.9,41.1L98.6,37.4L97.6,36.0L94.3,32.4L94.4,31.6L96.4,29.9L98.6,26.8L99.1,25.7L99.8,23.6L99.9,22.1L100.1,21.4L99.9,19.3L99.0,16.6L97.6,14.0Z M75.1,104.4L75.7,103.9L77.2,103.6L80.0,103.5L81.0,103.3L86.4,103.5L87.3,103.7L89.1,103.8L91.0,104.1L92.3,104.6L94.5,106.6L95.8,108.3L99.4,111.9L99.6,112.3L99.5,112.8L99.0,113.3L96.8,114.1L95.2,114.4L93.8,114.1L93.2,113.8L91.5,111.7L89.1,109.3L88.3,108.9L87.1,107.8L86.5,107.5L86.0,107.5L86.0,107.7L87.4,109.5L88.7,112.1L89.4,113.3L89.6,113.7L89.6,114.2L89.3,114.5L88.3,114.5L86.6,114.3L84.8,113.9L82.5,112.8L81.2,111.7L80.4,110.8L79.9,110.2L77.2,107.0L75.2,104.9Z M38.7,104.1L39.3,103.6L41.2,103.1L44.6,103.1L49.6,103.3L53.4,103.9L54.8,104.3L55.7,104.6L57.1,105.8L63.2,112.8L63.2,113.2L62.8,113.6L62.0,114.0L60.2,114.3L58.5,114.2L57.7,113.7L56.0,111.7L53.2,108.9L51.3,107.5L50.2,107.0L50.1,107.1L50.1,107.5L51.0,108.6L52.3,110.8L53.4,113.3L53.4,113.9L53.2,114.1L52.5,114.2L48.9,113.6L45.9,112.1L44.7,111.2L42.0,108.3L40.7,106.6L38.7,104.5Z M74.2,102.5L73.7,102.8L72.4,103.0L68.3,101.8L67.8,101.8L67.5,101.6L67.5,101.3L69.9,99.1L70.8,98.0L71.2,97.4L71.7,97.0L72.0,97.4L72.3,98.7L72.7,99.7L73.3,101.1L74.0,101.8Z M84.2,96.2L84.5,96.7L84.6,97.9L84.9,99.2L85.6,100.7L86.1,101.3L86.1,101.7L85.5,102.1L84.5,102.3L81.1,102.3L79.8,102.1L79.6,101.8L79.7,101.5L82.1,99.1L82.9,97.7L83.0,97.4L84.0,96.2Z M58.6,95.5L58.9,96.0L58.9,96.8L59.2,97.6L59.4,98.6L60.7,100.7L60.7,101.3L60.4,101.5L59.2,101.7L57.6,101.7L56.1,102.0L54.8,102.0L54.2,101.8L54.0,101.5L54.1,101.0L56.2,98.7L57.9,96.5L58.1,95.9Z M43.9,93.5L44.0,95.8L44.4,97.5L45.0,99.4L45.8,100.6L45.8,101.2L45.5,101.6L43.2,101.8L42.6,101.3L42.5,101.1L42.6,97.0L43.2,94.1L43.4,93.7L43.7,93.5Z M46.6,89.0L47.0,88.8L47.6,90.9L48.0,91.6L48.8,92.3L49.8,93.0L52.0,93.1L53.3,92.7L54.3,92.1L55.9,90.7L57.6,88.7L58.2,88.8L58.4,89.2L58.4,90.6L57.6,93.7L56.8,95.3L56.0,96.4L54.2,98.1L53.0,98.8L51.9,99.2L49.8,99.2L48.3,98.4L47.6,97.6L47.0,96.4L46.3,93.8L46.3,93.0L46.1,92.5L46.1,90.8Z M91.9,88.2L92.1,89.6L93.1,91.3L93.8,91.9L95.6,92.5L95.9,92.9L95.9,94.0L95.0,96.8L93.9,98.3L93.3,98.9L92.3,99.5L90.6,99.9L90.0,99.9L88.5,99.4L87.4,98.4L86.7,96.5L86.5,95.3L86.6,93.4L86.9,92.6L88.5,91.5L90.0,89.9L91.0,88.7L91.2,88.3L91.3,88.1Z M81.0,87.7L81.3,88.3L81.9,90.1L82.3,90.8L83.6,92.2L83.7,93.3L83.3,94.8L82.8,95.9L81.9,97.3L80.4,98.7L78.9,99.5L78.0,99.7L77.1,99.7L76.5,99.5L75.9,99.1L75.2,98.4L74.6,97.4L74.4,96.2L74.4,94.8L74.7,93.4L75.3,92.6L76.2,92.2L77.9,90.9L79.1,89.8L80.2,88.2L80.6,87.7Z M69.7,87.7L69.9,87.8L70.4,89.6L71.3,91.0L71.4,91.8L71.3,93.7L70.8,95.0L70.3,96.1L69.2,97.4L68.2,98.1L67.2,98.7L65.9,99.1L64.9,99.2L64.2,99.1L63.0,98.6L62.2,97.6L61.8,96.3L61.8,94.1L62.1,93.5L62.6,93.1L64.5,92.6L66.2,91.5L68.0,89.6L68.8,88.3L69.4,87.7Z M66.9,79.2L67.3,79.6L67.3,80.0L67.9,81.8L68.8,83.0L69.0,83.7L69.0,84.8L68.6,86.5L68.0,87.6L67.4,88.4L65.4,90.1L64.2,90.5L63.4,90.5L62.8,90.3L62.0,89.9L61.7,89.6L61.1,88.2L61.0,85.8L61.5,83.8L61.8,83.2L62.3,82.7L63.2,82.0L64.2,81.6L66.6,79.3Z M77.9,78.9L78.2,79.2L78.5,80.4L78.9,80.8L79.1,81.3L80.1,82.6L80.4,83.4L80.4,84.5L80.2,85.2L80.0,86.5L79.0,88.1L77.9,89.1L77.1,89.7L76.0,90.2L74.5,90.1L73.8,89.7L73.0,89.0L72.6,88.2L72.5,86.0L72.7,84.6L73.3,83.6L73.9,83.0L74.6,82.5L76.5,80.4L77.1,79.5L77.7,78.9Z M56.2,77.9L56.5,78.1L56.5,79.9L56.7,81.0L57.5,82.2L57.9,82.6L58.1,83.1L58.1,84.1L57.9,85.2L56.4,87.9L54.7,89.7L53.0,90.5L51.5,90.5L50.6,89.8L50.0,89.0L49.6,88.1L49.5,86.5L49.9,84.7L51.3,82.0L53.4,79.8L54.0,79.4L55.6,78.1Z M88.4,77.6L88.7,77.7L88.9,78.7L89.6,80.6L90.0,81.3L91.3,82.7L91.5,83.9L91.4,84.9L91.0,86.5L90.5,87.3L89.3,88.5L88.1,89.5L87.1,89.8L85.9,89.8L84.8,89.3L84.2,88.5L83.8,87.7L83.5,85.8L83.6,83.6L83.9,82.8L85.5,81.4L86.8,80.0L87.8,78.2Z M100.6,77.4L100.8,77.5L100.8,78.1L100.4,79.1L100.3,80.0L99.9,81.1L99.7,82.2L99.4,83.0L99.1,84.2L98.9,84.6L98.7,85.8L98.0,87.8L97.6,88.6L96.7,89.4L96.2,89.7L95.1,89.6L94.3,89.0L93.6,87.7L93.5,85.2L93.7,83.9L94.0,83.2L94.5,82.8L95.8,82.2L97.4,80.8L100.4,77.4Z M66.0,71.1L67.5,73.0L67.8,73.6L67.7,74.6L66.8,76.7L66.1,77.7L64.5,79.3L63.1,80.4L62.4,80.7L61.2,81.0L60.1,80.9L59.2,80.0L59.0,79.0L59.1,77.5L59.7,76.2L61.8,73.9L65.1,71.4L65.6,71.1Z M75.9,70.0L76.2,70.3L76.7,71.5L77.6,72.4L78.0,73.1L78.0,74.3L77.7,76.3L76.7,78.3L75.1,80.2L73.6,81.2L72.9,81.3L71.9,81.3L71.3,80.9L70.7,80.3L70.3,79.4L70.2,77.2L70.7,75.1L71.4,73.9L71.9,73.4L72.1,73.3L73.9,71.8L75.3,70.1Z M85.5,69.6L85.9,69.9L86.8,71.4L88.2,72.9L88.3,73.9L87.9,75.6L86.9,77.5L85.5,79.4L84.0,80.2L82.5,80.3L81.4,79.6L80.6,78.7L80.2,77.3L80.2,75.2L80.4,74.3L80.6,73.8L81.4,73.0L81.8,72.9L82.6,72.3L83.8,71.1L84.3,70.3L84.9,69.7Z M94.4,69.4L94.7,69.4L95.1,69.8L95.7,70.8L96.4,71.6L97.2,72.1L98.2,72.3L100.6,72.2L100.8,72.3L100.9,72.7L100.8,73.4L100.2,74.9L99.9,75.4L99.3,76.8L98.3,78.5L96.9,80.0L96.1,80.5L95.1,80.7L93.8,80.7L93.1,80.3L91.9,79.3L91.2,77.7L90.8,76.1L90.8,74.3L91.2,73.0L91.4,72.4L93.3,70.6Z M70.9,22.5L72.0,22.4L73.8,22.7L74.6,23.3L74.6,24.3L74.5,25.1L73.9,26.1L73.3,26.6L72.7,26.8L71.4,26.8L71.1,26.6L70.4,25.8L70.2,25.3L70.2,23.4Z M62.7,22.6L63.0,21.8L63.5,21.3L64.3,21.2L65.7,21.6L65.9,21.7L66.1,22.3L66.1,24.3L66.6,25.9L68.3,27.9L70.2,28.6L72.7,28.5L74.1,27.7L75.1,26.7L75.9,25.0L76.3,23.8L76.9,23.3L78.3,23.4L79.5,23.7L79.8,24.2L79.8,24.9L79.3,26.6L78.7,27.7L77.1,29.6L76.5,30.0L75.9,30.3L74.4,31.2L73.8,31.3L72.9,31.6L69.5,31.6L67.9,31.2L66.2,30.4L64.7,29.1L64.1,28.4L63.4,27.3L62.7,25.1Z M37.6,25.2L38.6,24.2L39.9,23.1L41.9,22.3L42.1,22.3L42.3,22.1L45.6,21.1L47.5,20.8L48.4,20.8L50.9,20.4L54.4,20.4L59.2,20.7L60.1,21.0L60.5,21.4L60.4,24.5L60.6,25.9L61.9,28.8L62.4,29.5L63.2,30.5L64.3,31.3L65.1,31.8L66.0,32.5L68.1,33.2L69.9,33.6L73.3,33.6L74.7,33.2L76.4,32.6L76.9,32.2L77.3,32.1L78.4,31.4L80.4,29.5L81.6,29.4L85.4,30.7L85.8,31.1L86.4,31.3L89.3,32.8L91.9,34.8L93.5,36.2L95.8,38.4L97.2,40.2L98.3,42.0L98.8,42.4L100.0,44.9L100.4,45.5L101.9,49.0L102.6,51.3L103.3,54.8L103.7,59.1L103.7,61.4L103.2,65.7L102.8,66.8L101.8,68.8L100.9,69.7L99.5,70.2L98.3,70.1L97.2,69.7L96.4,68.9L95.9,67.8L95.9,65.7L96.2,64.1L96.1,63.8L95.8,63.5L95.3,63.4L94.7,64.0L94.5,67.2L94.1,68.2L92.8,69.6L91.6,70.1L89.3,70.1L88.1,69.6L87.1,68.5L86.7,67.2L86.7,65.4L86.8,64.9L86.9,63.6L86.6,63.1L86.0,63.0L85.5,63.4L85.4,63.7L85.0,67.7L84.8,68.1L84.8,68.4L84.1,69.5L83.2,70.4L82.3,71.0L81.6,71.1L80.3,71.1L79.7,70.8L78.8,70.1L77.9,68.6L77.6,67.7L77.5,66.9L77.6,65.7L77.8,65.3L77.8,64.7L77.9,64.5L77.9,63.6L77.6,63.1L77.0,63.0L76.5,63.5L76.3,65.6L75.9,66.8L75.2,68.4L74.5,69.5L73.0,71.0L72.0,71.6L70.6,71.7L69.8,71.5L68.8,70.3L68.7,69.1L69.1,68.2L69.7,67.5L70.1,66.6L70.6,66.1L71.4,64.1L71.6,62.7L71.7,59.0L72.0,58.7L72.8,58.4L73.3,58.1L73.9,58.0L74.9,57.4L76.7,55.7L77.8,54.0L78.3,52.4L78.4,51.2L78.4,48.6L77.9,46.0L77.3,44.6L77.1,44.3L76.4,44.1L75.9,44.1L75.4,44.6L75.8,47.9L75.7,49.7L75.3,51.6L74.5,53.4L73.8,54.4L72.6,55.4L70.7,56.4L69.7,56.7L69.3,56.9L67.5,57.3L65.6,57.3L64.9,57.5L60.1,57.4L57.9,57.0L56.2,56.9L53.7,56.4L51.8,56.3L50.3,55.8L49.7,55.1L48.9,53.3L48.9,52.7L49.3,52.3L55.5,52.2L58.6,52.4L59.2,52.5L61.4,52.5L62.2,52.7L65.0,52.7L65.6,52.3L65.7,51.6L65.6,48.6L65.1,45.8L65.0,42.8L64.5,40.3L64.1,39.8L63.3,39.4L60.7,38.4L60.4,38.4L58.8,37.9L57.9,37.5L54.8,36.5L54.5,36.3L53.2,36.0L52.9,35.8L52.1,35.8L49.1,34.7L48.0,34.5L46.2,33.9L44.4,33.7L43.0,33.7L41.2,34.2L40.1,34.9L39.6,35.4L38.2,37.2L37.8,37.5L37.4,37.4L37.2,37.1L36.7,33.8L36.4,28.7L36.7,27.1Z M97.0,16.7L97.7,18.1L97.9,19.5L97.9,21.4L97.6,22.9L97.0,24.3L96.1,25.8L94.0,27.8L92.2,28.7L91.3,28.9L90.1,28.9L85.6,26.7L83.4,26.0L82.8,25.5L82.8,24.9L83.4,24.3L86.1,24.3L87.9,24.2L90.7,23.5L92.2,22.7L93.4,21.8L94.2,21.0L95.1,19.7L95.8,18.7L96.1,16.6L96.4,16.4L96.6,16.4Z" fill="#000" fill-rule="evenodd"/>
</svg>