<svg xmlns="http://www.w3.org/2000/svg" viewBox="0 0 128 128" width="128" height="128">
  <path d="M65.6,54.1L65.3,54.3L64.8,54.8L64.8,55.4L65.3,56.1L66.0,56.3L66.7,55.7L66.8,54.9L66.4,54.3Z M61.8,54.1L61.5,54.3L61.0,54.8L60.9,55.3L61.1,55.7L61.5,56.1L62.2,56.2L62.8,55.7L62.9,55.0L62.6,54.4L62.3,54.2Z M67.9,49.0L67.2,49.2L66.8,49.5L66.3,50.1L65.8,51.5L65.7,52.4L66.2,53.0L68.0,54.1L68.5,54.1L69.2,53.6L70.2,52.6L70.4,52.1L70.5,51.1L70.2,50.1L69.6,49.5L68.8,49.0Z M59.1,49.0L58.1,49.5L57.7,49.9L57.3,50.7L57.2,51.9L57.7,52.9L58.4,53.6L59.2,54.3L59.8,54.3L61.5,53.2L62.0,52.6L62.1,52.1L61.8,50.9L61.4,50.0L60.9,49.5L59.9,49.0Z M119.1,64.5L118.8,62.6L118.2,60.8L117.5,59.1L115.9,56.1L113.6,53.2L111.8,51.5L109.0,49.1L108.5,48.9L107.6,48.1L105.6,46.9L104.5,46.4L104.3,46.1L99.4,43.6L98.9,43.5L96.6,42.4L91.2,40.3L88.9,39.7L88.4,39.4L87.9,39.3L86.9,38.9L86.2,38.8L85.1,38.4L83.2,38.0L83.0,37.9L82.3,37.9L81.9,38.4L81.7,39.7L80.9,42.2L79.0,46.6L77.3,49.7L75.2,52.9L73.3,55.2L70.5,58.0L67.5,60.5L64.6,62.5L64.2,62.7L63.5,62.6L61.8,61.5L61.2,61.0L60.5,60.7L58.4,59.0L58.2,58.9L55.6,56.5L55.5,56.3L54.2,54.9L52.4,52.8L49.9,49.0L47.9,45.2L47.4,43.9L47.1,43.2L46.6,41.7L46.2,41.3L46.3,40.5L45.7,38.6L45.4,38.3L44.9,38.3L41.2,39.4L40.7,39.5L39.5,39.9L39.0,40.2L38.5,40.2L37.6,40.7L35.9,41.2L35.5,41.5L34.8,41.6L34.3,41.9L33.1,42.4L32.5,42.8L32.0,42.8L30.6,43.6L30.3,43.6L29.8,43.9L27.0,45.3L26.6,45.6L24.6,46.6L22.1,48.1L20.0,49.5L18.3,50.8L16.6,52.3L14.3,54.6L12.8,56.4L11.5,58.5L10.6,60.4L9.4,63.8L9.0,66.2L9.0,67.9L9.3,70.3L9.5,70.9L9.7,72.3L10.3,73.9L11.4,76.4L13.0,78.9L15.3,81.6L17.9,84.0L20.3,85.8L22.7,87.3L25.2,88.3L25.6,88.6L26.1,88.7L26.9,89.1L27.5,89.2L28.1,89.4L30.3,90.0L33.1,90.3L35.0,90.3L37.2,90.0L37.8,90.0L39.0,89.5L39.5,89.4L40.4,89.0L42.3,87.5L44.0,85.6L44.9,83.8L45.3,82.6L45.6,80.4L45.6,79.6L45.3,78.2L44.8,77.0L44.0,75.9L43.2,75.0L42.0,74.2L40.7,73.7L39.5,73.4L37.9,73.4L36.0,74.0L34.8,75.1L33.9,76.2L33.5,77.3L33.3,78.6L33.4,79.8L33.6,80.8L34.3,82.1L34.9,82.7L35.9,83.3L37.0,83.6L38.4,83.6L39.3,83.4L40.1,82.9L41.2,81.8L41.5,81.2L41.8,80.2L42.1,79.9L42.3,80.4L42.3,81.4L42.0,82.5L41.2,83.7L40.2,84.6L38.7,85.2L37.0,85.5L35.9,85.5L34.5,85.3L33.1,84.9L31.6,84.0L29.8,82.5L28.6,80.9L27.7,78.6L27.4,76.5L27.4,75.4L27.7,73.2L28.0,72.6L28.2,72.0L28.6,71.5L28.6,71.2L30.0,69.4L31.7,67.9L33.4,67.0L34.7,66.6L36.2,66.4L37.6,66.4L39.1,66.6L40.4,67.0L41.5,67.5L42.9,68.5L44.6,70.4L46.0,72.9L46.9,75.1L47.4,77.3L47.7,77.7L47.8,78.9L48.0,79.1L49.1,77.1L50.5,75.7L51.9,74.8L52.5,74.7L52.8,74.5L54.0,74.3L55.8,74.3L56.8,74.5L58.9,75.6L60.1,76.8L61.4,78.9L62.6,81.5L63.9,85.9L64.1,85.8L64.7,83.5L65.4,81.4L65.4,81.1L65.8,80.5L65.8,80.3L66.2,79.7L66.3,79.2L66.5,79.0L66.7,78.5L67.1,78.1L67.1,77.8L67.8,76.8L69.3,75.2L70.6,74.5L72.2,74.0L74.2,74.0L75.2,74.2L76.5,74.7L78.0,75.7L79.2,77.1L79.6,78.2L80.0,78.5L80.1,78.4L80.2,77.9L80.5,77.1L80.6,76.1L81.1,74.8L81.1,74.5L81.2,74.4L81.9,72.5L82.6,71.4L82.7,71.0L83.5,69.6L84.6,68.4L86.5,67.0L87.8,66.4L88.7,66.1L90.0,65.8L91.0,65.7L92.9,65.8L93.9,66.0L95.6,66.7L97.4,67.8L98.6,69.0L99.3,70.0L100.4,72.5L100.7,73.8L100.6,77.1L100.1,79.0L98.9,81.3L97.6,82.6L96.5,83.5L94.7,84.4L93.5,84.8L92.0,85.0L90.1,84.9L89.6,84.7L88.7,84.5L87.8,84.0L87.1,83.4L86.4,82.7L85.9,81.8L85.7,80.9L85.7,79.5L86.1,79.2L86.2,79.3L86.4,80.2L87.1,81.3L88.2,82.4L89.4,83.0L91.0,83.0L91.6,83.0L92.4,82.6L93.2,82.1L93.9,81.3L94.5,80.4L94.8,78.9L94.8,77.4L94.1,75.6L93.3,74.5L92.3,73.6L91.3,73.1L90.3,72.9L88.1,72.9L87.4,73.2L86.9,73.3L85.1,74.4L83.8,75.7L83.1,76.8L82.6,78.4L82.6,80.6L82.9,82.4L83.4,83.8L83.8,84.6L84.9,86.1L85.8,87.1L87.6,88.3L88.4,88.6L88.7,88.9L89.0,88.9L89.7,89.2L92.3,89.7L94.8,89.7L97.7,89.4L98.0,89.2L98.3,89.2L100.5,88.6L103.1,87.8L103.6,87.4L105.5,86.6L108.0,84.9L109.7,83.7L111.3,82.3L113.5,80.1L114.9,78.4L115.9,77.0L115.9,76.8L116.2,76.5L116.3,76.2L116.6,76.0L117.1,74.9L117.1,74.5L117.4,74.2L117.8,73.0L118.3,72.1L118.4,71.2L118.8,70.1L118.8,69.7L118.9,69.5L119.1,68.1Z" fill="#000" fill-rule="evenodd"/>
</svg>