<svg xmlns="http://www.w3.org/2000/svg" viewBox="0 0 128 128" width="128" height="128">
  <path d="M70.8,36.8L70.3,36.1L69.6,35.4L68.3,34.7L66.9,34.2L66.4,34.1L66.2,34.0L64.5,33.7L63.2,33.8L61.8,34.0L60.6,34.3L59.3,34.9L58.3,35.5L57.6,36.2L57.1,36.9L56.7,37.9L56.7,38.3L56.7,39.4L56.7,39.7L57.0,40.4L57.2,40.9L57.5,41.3L58.2,42.0L59.4,42.7L60.4,43.2L61.1,43.4L61.4,43.4L61.6,43.5L62.7,43.7L64.3,43.8L65.8,43.6L67.2,43.2L68.7,42.6L69.5,42.1L70.4,41.3L70.8,40.6L71.1,40.0L71.3,39.1L71.3,38.2L71.1,37.5Z M35.9,36.9L35.8,43.3L35.9,43.9L36.0,44.0L36.2,44.0L36.9,43.6L37.5,43.5L37.6,43.4L37.9,43.4L38.2,43.2L40.0,42.9L41.1,42.8L42.7,42.8L43.2,42.9L44.2,42.9L44.6,43.1L45.3,43.2L46.9,43.6L48.6,44.4L49.7,45.1L51.3,46.4L52.8,47.3L53.6,47.8L53.8,47.9L53.9,48.0L55.4,48.7L55.6,48.7L56.3,49.1L57.0,49.3L57.3,49.4L59.0,50.0L59.5,50.0L60.6,50.3L60.8,50.3L61.8,50.4L62.1,50.4L62.4,50.5L62.9,50.5L63.2,50.6L65.3,50.6L65.7,50.5L66.3,50.5L66.8,50.4L67.2,50.4L67.6,50.3L67.9,50.3L68.1,50.3L68.7,50.2L70.4,49.8L72.7,49.0L73.4,48.8L75.6,47.7L76.1,47.4L76.7,47.1L76.8,47.0L77.2,46.9L77.4,46.7L78.9,46.0L79.0,45.9L79.6,45.6L79.9,45.4L80.6,45.1L81.0,44.9L81.3,44.8L83.1,43.8L85.5,42.9L87.6,42.3L88.2,42.3L88.6,42.1L89.2,42.1L89.9,42.0L91.8,41.9L93.8,42.1L93.9,41.8L94.0,39.7L94.0,37.5L94.0,35.7L94.0,35.4L93.7,35.3L92.0,35.6L90.8,35.6L90.3,35.7L88.6,35.7L88.1,35.6L87.5,35.6L87.2,35.5L86.3,35.3L84.9,35.0L84.7,34.9L84.3,34.8L84.0,34.7L83.8,34.6L83.5,34.5L82.7,34.2L81.3,33.4L80.6,33.0L79.3,32.2L77.0,30.6L76.4,30.3L75.2,29.5L75.0,29.4L74.9,29.3L74.7,29.3L74.3,29.0L73.6,28.6L72.8,28.3L72.7,28.2L72.2,28.1L71.7,27.9L71.5,27.8L70.7,27.5L68.2,26.9L67.7,26.9L67.3,26.7L66.4,26.7L66.2,26.6L64.0,26.5L62.2,26.6L60.2,26.9L59.1,27.1L58.0,27.4L57.7,27.5L57.4,27.6L56.1,28.1L55.5,28.3L55.1,28.4L53.8,29.1L52.5,29.9L50.6,31.2L50.0,31.7L49.9,31.7L49.6,32.1L49.2,32.4L48.4,33.1L46.9,34.4L46.6,34.5L46.2,34.9L45.9,34.9L45.7,35.1L44.8,35.6L44.1,35.9L44.0,36.0L43.7,36.0L42.9,36.3L42.6,36.4L42.3,36.5L42.1,36.5L41.7,36.7L41.3,36.7L40.6,36.9L39.2,37.0L38.0,37.0L36.1,36.8L36.0,36.8Z M52.7,37.8L52.9,37.0L53.3,36.2L53.8,35.4L54.4,34.9L54.8,34.5L55.4,34.1L57.1,33.3L57.2,33.2L58.4,32.7L59.4,32.3L61.1,31.9L63.1,31.6L63.6,31.6L64.0,31.5L65.1,31.5L66.1,31.6L66.6,31.6L67.4,31.8L67.8,31.8L70.1,32.4L71.2,32.7L72.5,33.3L73.6,33.9L74.7,34.5L75.2,34.9L75.6,35.4L75.8,35.7L76.0,35.9L76.2,36.3L76.5,37.0L76.7,37.5L76.8,38.3L76.8,39.3L76.7,39.6L76.7,40.0L76.5,40.6L76.1,41.5L75.7,42.0L75.3,42.5L74.7,43.1L74.5,43.3L74.2,43.4L73.9,43.6L73.4,43.8L73.3,44.0L71.7,44.6L70.9,45.1L70.6,45.1L70.3,45.2L69.9,45.3L69.7,45.4L68.4,45.7L67.5,45.9L67.2,46.0L66.1,46.1L65.9,46.1L64.5,46.2L63.2,46.2L61.8,46.0L61.0,45.8L60.6,45.8L59.8,45.6L58.7,45.3L58.5,45.2L58.1,45.1L57.4,44.8L57.2,44.7L56.5,44.4L56.3,44.2L56.0,44.1L55.0,43.6L54.6,43.3L54.0,42.7L53.6,42.3L53.4,41.9L53.3,41.8L53.2,41.6L52.9,41.1L52.7,40.3L52.6,39.5L52.6,38.7Z M118.8,8.3L118.6,8.3L117.6,8.3L114.0,8.3L111.7,8.5L110.3,8.4L101.6,8.4L91.4,8.5L81.5,8.5L79.2,8.6L74.4,8.6L71.5,8.6L70.5,8.6L66.1,8.7L59.0,8.7L50.3,8.8L35.7,8.8L34.4,8.8L31.6,8.8L29.1,8.9L27.4,8.9L25.8,9.0L24.7,9.0L19.5,9.1L15.9,9.1L10.7,9.2L9.7,9.2L9.5,9.2L9.3,9.3L9.3,19.0L9.4,20.9L9.3,21.7L9.4,22.8L9.4,29.7L9.4,29.9L9.4,36.4L9.5,39.5L9.5,44.0L9.6,45.8L9.6,56.7L9.6,58.4L9.6,65.8L9.7,70.9L9.7,90.5L9.6,95.3L9.6,116.7L9.6,119.6L9.7,119.7L9.9,119.8L16.8,119.8L18.0,119.8L25.0,119.7L27.2,119.7L32.0,119.6L35.1,119.6L40.2,119.5L54.0,119.5L66.7,119.6L72.9,119.6L77.6,119.7L79.9,119.6L82.9,119.7L90.5,119.6L106.3,119.6L110.2,119.7L118.0,119.7L118.2,119.6L118.2,112.9L118.3,109.6L118.3,107.8L118.3,100.4L118.3,91.3L118.4,85.5L118.4,73.6L118.5,64.2L118.5,53.2L118.6,46.0L118.6,44.9L118.6,43.1L118.7,29.0L118.8,23.5Z M22.9,113.0L23.0,112.8L23.6,111.9L24.2,110.9L24.4,110.7L24.4,110.6L25.0,109.8L25.6,108.7L25.8,108.6L26.2,107.9L27.2,106.4L27.7,105.5L28.4,104.5L28.8,103.8L30.4,101.5L30.7,100.9L31.1,100.4L31.5,99.8L31.6,99.6L32.2,98.6L33.0,97.4L33.3,97.3L33.9,97.2L34.5,97.3L38.0,97.2L43.8,97.2L44.2,97.1L44.7,97.1L45.7,96.8L46.9,96.3L47.8,95.8L48.8,95.1L49.3,94.5L50.5,93.1L51.9,90.9L52.6,89.6L52.7,89.5L53.1,88.7L53.3,88.2L53.4,88.1L54.0,86.7L54.2,86.4L54.4,86.2L54.5,86.3L54.5,86.6L54.4,87.1L54.3,88.0L54.2,88.1L54.1,89.0L54.1,89.5L54.0,89.7L54.0,91.7L54.2,92.6L54.6,93.8L54.9,94.4L55.3,94.9L56.0,95.7L57.1,96.5L57.8,96.8L58.6,97.1L59.3,97.2L59.8,97.3L65.7,97.3L66.4,97.3L68.2,97.4L70.5,97.3L72.9,97.4L76.2,97.3L77.0,97.2L77.3,97.1L77.4,97.1L78.1,96.9L78.8,96.5L79.7,95.8L80.5,95.0L80.8,94.5L81.2,93.9L81.7,92.2L81.9,91.6L82.2,89.6L82.3,87.9L82.3,87.8L82.4,87.8L82.6,88.0L82.7,88.3L82.8,88.7L83.0,89.4L83.8,91.6L84.0,91.9L84.1,92.3L84.3,92.5L84.6,93.0L85.5,94.2L86.6,95.3L87.7,96.0L88.8,96.6L89.7,97.0L90.4,97.2L91.0,97.3L91.1,97.4L92.5,97.6L101.7,97.7L101.9,97.7L102.2,98.0L102.5,100.9L102.6,103.4L102.7,103.7L102.7,104.2L102.8,105.1L102.8,106.2L103.0,107.2L103.0,107.8L103.1,108.5L103.1,109.2L103.2,110.0L103.3,111.5L103.4,112.0L103.4,113.2L103.3,113.4L103.2,113.4L94.9,113.4L93.3,113.4L92.6,113.1L91.8,112.8L90.6,112.2L90.5,112.0L90.1,111.8L89.3,111.1L88.5,110.3L88.0,109.7L87.6,108.9L87.5,108.7L87.4,108.6L87.4,108.5L87.2,108.0L87.1,107.9L87.1,107.8L86.3,106.2L86.3,105.9L85.9,105.2L85.9,105.1L85.4,103.9L85.4,103.7L84.4,101.1L84.3,100.8L83.8,99.6L83.4,98.2L83.2,98.2L83.1,98.2L83.0,98.2L83.0,98.4L83.1,98.6L83.1,99.2L83.3,100.7L83.3,101.3L83.5,103.4L83.5,104.4L83.3,106.0L83.0,107.1L82.2,108.6L81.4,109.8L80.5,110.7L79.9,111.2L78.8,111.9L78.1,112.3L77.8,112.3L77.6,112.5L77.3,112.5L77.0,112.7L76.3,112.9L76.0,112.9L75.8,113.0L74.7,113.2L74.2,113.2L54.8,113.1L53.8,113.0L53.3,112.9L53.2,112.8L52.9,112.8L52.7,112.7L52.5,112.6L51.6,112.2L51.1,111.9L50.5,111.4L49.8,110.5L49.4,109.8L49.2,108.9L49.0,107.5L49.0,107.0L49.0,106.2L49.1,104.1L49.3,103.2L49.3,102.9L49.5,102.1L49.5,101.9L49.6,101.6L49.9,100.1L50.1,99.5L50.2,99.1L50.3,98.9L50.4,98.7L50.5,98.3L50.6,98.0L50.4,98.0L50.2,98.2L50.1,98.5L49.7,99.1L49.4,99.8L48.8,101.0L48.5,101.8L48.4,101.9L48.2,102.3L48.2,102.4L47.1,104.5L46.8,104.9L46.3,105.7L45.9,106.3L45.3,107.3L44.8,107.9L43.0,109.6L41.6,110.6L40.3,111.3L40.0,111.4L39.1,111.9L37.4,112.5L37.1,112.5L36.7,112.6L36.2,112.7L35.8,112.8L32.9,113.2L31.5,113.2L27.1,113.2L23.4,113.3L23.0,113.2L22.9,113.1Z M31.2,60.7L31.2,60.6L31.4,60.1L31.8,59.4L32.4,58.8L32.8,58.4L33.7,57.8L34.4,57.3L34.8,57.2L34.9,57.2L36.1,56.8L38.2,56.6L40.8,56.5L42.4,56.6L44.5,56.6L45.2,56.7L50.3,56.7L51.8,56.8L51.9,56.8L51.9,57.0L51.7,57.4L49.4,60.9L49.3,61.1L48.9,61.2L46.8,61.1L44.5,61.1L43.5,61.1L40.6,61.1L39.0,61.0L32.9,60.9L31.5,60.9L31.3,60.8Z M31.1,36.1L32.9,33.9L33.4,33.4L33.7,33.0L35.1,31.9L35.2,31.7L35.3,31.7L36.6,30.6L37.1,30.3L37.6,29.9L37.9,29.8L38.8,29.2L40.6,28.3L42.0,27.7L43.1,27.3L43.2,27.3L43.6,27.2L44.0,27.1L44.9,26.8L45.4,26.7L45.9,26.6L46.3,26.5L46.6,26.4L47.0,26.4L47.8,26.2L48.4,26.2L48.7,26.1L50.3,25.8L50.4,25.8L50.8,25.7L51.3,25.7L51.7,25.6L52.5,25.5L53.5,25.3L53.8,25.3L54.0,25.3L54.8,25.2L55.0,25.2L55.4,25.2L56.0,25.1L57.1,25.0L57.4,24.9L60.8,24.7L61.9,24.7L62.8,24.7L65.8,24.7L68.8,24.7L69.8,24.8L70.9,24.9L71.2,24.9L71.8,24.9L72.9,25.1L74.0,25.1L74.3,25.2L74.6,25.2L75.1,25.3L76.3,25.4L80.4,26.1L82.1,26.4L82.5,26.4L82.8,26.5L83.0,26.5L83.8,26.8L84.1,26.8L84.7,27.0L85.3,27.1L86.8,27.6L87.1,27.7L87.7,28.0L89.4,28.8L89.6,29.0L89.8,29.1L90.9,29.9L91.9,30.7L93.4,32.2L94.5,33.7L95.2,34.9L95.7,35.9L96.3,37.2L96.6,38.2L96.7,38.5L97.0,39.4L97.0,39.8L97.3,41.1L97.5,42.4L97.7,44.2L97.7,44.4L97.7,45.1L97.8,45.3L97.8,45.7L97.9,46.0L97.9,46.8L98.0,48.0L98.0,48.5L98.1,49.1L98.3,51.8L98.4,52.3L98.5,54.5L98.7,56.0L98.7,56.7L98.8,57.0L98.9,58.3L99.0,58.8L99.0,59.8L99.2,62.3L99.2,62.8L99.3,63.0L99.3,63.6L99.5,65.7L99.6,67.4L99.7,67.6L99.9,70.5L100.1,72.3L100.1,72.9L100.2,74.3L100.2,74.9L100.3,75.6L100.4,76.4L100.4,76.7L100.4,77.3L100.5,77.9L100.5,78.5L100.7,80.0L100.8,81.4L100.8,81.6L100.9,83.4L101.0,84.4L101.0,85.0L101.1,85.2L101.2,86.9L101.3,87.4L101.4,89.4L101.2,89.6L100.9,89.6L89.5,89.5L88.8,89.4L88.3,89.3L88.1,89.2L87.8,89.2L87.3,89.0L87.1,88.9L85.7,88.1L84.8,87.4L84.0,86.7L83.3,85.8L82.5,84.5L82.3,84.0L82.0,83.1L81.6,81.5L81.5,81.2L81.3,81.2L81.3,81.8L81.3,82.1L81.3,84.6L81.2,85.2L81.2,86.2L81.0,86.8L80.6,87.6L80.3,88.0L79.5,88.8L79.3,88.9L79.2,89.0L78.8,89.2L78.1,89.4L77.4,89.5L71.1,89.5L68.8,89.4L67.6,89.5L59.1,89.4L58.4,89.2L58.3,89.1L58.0,88.9L57.4,88.6L56.9,88.1L56.7,87.8L56.2,87.1L56.1,86.8L55.8,85.6L55.8,84.5L56.0,83.2L56.0,82.9L56.3,81.3L56.3,81.0L56.2,81.0L56.1,81.0L55.9,81.1L55.7,81.8L55.4,82.3L55.4,82.5L55.0,83.2L54.6,83.7L54.6,84.0L54.4,84.2L53.8,84.9L53.1,85.7L52.4,86.4L51.3,87.2L50.2,87.9L49.5,88.2L49.1,88.4L48.8,88.5L48.5,88.7L47.7,88.9L47.3,89.0L47.1,89.0L46.6,89.2L45.8,89.3L45.4,89.4L39.8,89.4L38.7,89.3L38.6,89.3L38.6,89.0L39.2,88.0L39.3,87.9L39.7,87.3L40.2,86.4L40.7,85.8L40.8,85.6L41.1,85.1L41.6,84.2L42.6,82.9L42.8,82.4L44.4,80.0L44.9,79.2L45.1,79.0L45.9,77.7L46.3,77.1L46.8,76.3L48.2,74.2L48.4,73.8L48.9,73.1L48.9,73.0L49.4,72.3L49.6,71.9L49.8,71.7L49.8,71.5L50.0,71.3L50.3,70.8L50.6,70.6L50.9,69.9L51.6,68.9L52.2,67.9L52.7,67.3L52.8,67.1L53.7,65.7L53.9,65.3L54.0,65.1L54.3,64.8L54.4,64.5L55.0,63.7L55.0,63.5L55.2,63.3L55.4,62.9L56.0,62.2L56.2,61.7L56.3,61.6L56.5,61.3L57.0,60.6L57.4,59.9L58.1,58.9L58.4,58.4L58.5,58.3L59.8,56.1L60.7,55.0L60.7,54.8L60.9,54.5L61.5,53.6L61.9,53.0L61.9,53.0L62.8,51.6L63.0,51.3L63.0,51.2L62.8,51.1L62.6,51.1L57.7,51.0L55.3,50.9L47.7,50.9L40.5,50.7L37.0,50.9L35.2,51.1L33.6,51.5L32.1,52.1L30.7,52.8L29.7,53.6L28.4,54.8L27.6,55.7L26.9,56.9L26.2,58.2L26.0,58.2L26.0,58.0L26.0,55.3L26.1,49.9L26.2,49.0L26.2,48.5L26.3,47.7L26.4,46.9L26.8,45.4L26.8,45.3L27.5,42.7L28.6,40.2L29.0,39.2L30.1,37.5L30.3,37.2L30.9,36.4Z M112.9,14.0L113.0,14.2L113.0,22.4L112.9,25.4L112.9,26.2L112.9,27.0L112.8,36.2L112.8,37.7L112.8,46.9L112.7,48.7L112.7,51.7L112.6,53.7L112.7,55.3L112.6,61.0L112.6,63.1L112.5,69.7L112.5,75.5L112.4,76.9L112.4,93.4L112.4,99.5L112.3,99.8L112.3,110.6L112.3,113.0L112.2,113.2L112.2,113.3L112.0,113.3L109.7,113.3L109.5,113.1L109.5,112.5L109.4,112.1L109.3,110.8L109.3,110.6L109.2,109.5L109.1,108.6L109.1,108.1L109.0,107.3L109.0,106.4L108.9,106.1L108.8,104.2L108.7,103.6L108.7,103.0L108.5,101.3L108.5,100.2L108.3,99.3L108.0,95.5L107.8,92.9L107.7,92.0L107.7,91.7L107.6,90.1L107.5,89.8L107.5,89.1L107.2,85.2L107.2,84.5L107.1,84.1L107.0,82.6L106.8,81.2L106.8,80.6L106.8,80.3L106.7,78.7L106.5,77.7L106.5,76.7L106.3,75.4L106.2,72.9L106.0,71.2L106.0,70.4L105.9,69.3L105.9,68.8L105.7,67.6L105.7,67.2L105.6,66.7L105.6,66.0L105.5,64.6L105.3,62.3L105.2,60.8L105.2,60.3L105.0,59.2L105.0,57.8L104.8,56.9L104.8,56.2L104.7,55.5L104.7,54.1L104.6,53.6L104.6,52.9L104.5,52.3L104.4,50.8L104.3,50.5L104.3,49.3L104.2,48.3L104.2,47.7L104.1,47.4L104.1,46.5L104.0,46.2L104.0,45.6L103.8,44.2L103.8,43.2L103.7,42.0L103.6,41.7L103.6,41.2L103.5,40.7L103.5,39.8L103.4,39.6L103.3,38.7L103.2,38.0L103.1,37.6L102.6,35.7L102.1,34.0L101.7,33.2L101.6,33.1L101.6,32.9L101.4,32.5L101.2,32.3L100.7,31.1L100.5,31.0L100.4,30.7L99.9,29.9L99.1,28.7L99.0,28.6L98.1,27.5L96.1,25.5L94.3,24.1L92.6,23.0L92.4,22.9L92.2,22.8L91.0,22.1L90.9,22.1L90.2,21.8L89.5,21.5L88.9,21.2L86.7,20.6L86.0,20.5L85.5,20.4L85.3,20.4L85.0,20.3L84.6,20.2L83.6,19.9L83.1,19.9L82.5,19.7L82.0,19.7L79.6,19.3L79.1,19.3L78.5,19.1L78.1,19.1L77.4,19.0L73.4,18.6L72.9,18.6L72.2,18.5L71.8,18.5L71.5,18.4L70.2,18.4L69.1,18.3L68.3,18.3L67.8,18.2L65.2,18.2L61.6,18.2L57.7,18.4L57.1,18.5L56.5,18.5L55.9,18.6L55.4,18.6L55.2,18.7L54.0,18.8L53.5,18.9L52.4,19.0L52.2,19.1L51.7,19.1L50.8,19.3L50.0,19.3L48.9,19.5L47.5,19.7L46.3,20.0L45.9,20.0L45.4,20.2L45.0,20.2L41.4,21.1L38.7,22.0L38.1,22.3L37.3,22.6L34.7,23.9L34.3,24.2L33.7,24.5L33.5,24.7L32.3,25.5L29.9,27.3L28.5,28.7L26.7,30.6L25.8,31.7L25.2,32.7L25.0,32.9L24.0,34.4L23.8,34.7L23.6,35.1L23.3,35.5L23.2,35.9L22.9,36.3L22.7,36.7L22.6,36.8L21.7,39.0L21.6,39.3L21.5,39.5L20.9,41.2L20.9,41.3L20.4,42.8L20.2,43.9L20.1,44.3L20.0,44.6L19.9,45.6L19.8,46.2L19.7,46.8L19.6,47.2L19.5,49.9L19.4,50.7L19.4,52.9L19.3,53.5L19.3,56.0L19.2,61.3L19.1,69.4L19.0,73.9L19.0,75.1L19.1,75.3L19.3,75.4L20.6,75.4L25.2,75.4L25.4,75.3L25.5,75.1L25.5,74.2L25.6,73.6L25.7,72.6L26.1,70.1L26.4,69.2L27.1,67.2L27.3,67.0L27.4,66.8L27.6,66.8L28.6,66.7L30.3,66.8L36.8,66.9L38.5,66.9L38.8,66.9L39.7,67.0L40.4,66.9L42.7,67.0L44.5,67.0L45.1,67.1L45.2,67.2L45.2,67.3L44.6,68.3L44.4,68.6L44.3,68.9L43.6,69.9L43.1,70.7L42.9,71.0L42.6,71.5L42.1,72.1L42.1,72.3L41.9,72.4L41.2,73.6L41.0,73.9L40.2,75.2L40.1,75.3L40.0,75.5L39.3,76.4L39.2,76.6L39.1,76.8L38.8,77.4L38.6,77.5L38.6,77.7L38.3,77.9L38.2,78.3L37.8,78.7L37.8,78.8L37.3,79.6L37.2,79.7L37.1,79.9L36.4,80.9L36.2,81.3L35.7,81.9L35.7,82.1L35.3,82.6L34.8,83.5L34.2,84.2L33.9,84.8L32.8,86.4L32.6,86.7L32.2,87.3L32.1,87.6L31.4,88.6L31.3,88.9L31.1,89.1L30.3,90.3L30.2,90.4L27.9,94.0L27.7,94.2L26.4,96.4L25.8,97.1L25.3,98.0L25.1,98.3L24.9,98.6L24.1,99.7L23.8,100.3L23.6,100.5L23.3,101.1L22.9,101.5L22.7,101.9L22.4,102.4L21.5,103.9L20.2,105.7L20.0,106.2L19.7,106.6L19.3,107.3L18.6,108.1L18.1,109.0L18.0,109.2L17.8,109.4L17.7,109.6L17.7,109.7L17.5,109.9L17.4,110.2L16.8,110.9L16.7,111.1L16.1,112.0L15.8,112.5L15.6,112.7L15.5,112.7L15.4,112.5L15.3,110.5L15.3,94.6L15.3,89.5L15.4,87.3L15.4,72.2L15.3,69.7L15.4,54.3L15.3,54.0L15.4,53.7L15.3,50.6L15.4,50.1L15.3,49.6L15.3,40.2L15.2,24.7L15.2,22.9L15.2,21.7L15.2,20.1L15.2,18.0L15.2,15.1L15.2,14.9L15.3,14.8L15.5,14.7L21.7,14.6L24.6,14.6L25.4,14.5L26.2,14.5L26.9,14.5L27.5,14.5L29.5,14.4L40.8,14.3L56.8,14.3L65.5,14.2L69.7,14.2L78.8,14.1L84.2,14.1L86.9,14.2L88.6,14.1L97.1,14.0L102.5,14.1L103.9,14.0L109.0,14.0L112.2,13.9Z" fill="#000" fill-rule="evenodd"/>
</svg>