<svg xmlns="http://www.w3.org/2000/svg" viewBox="0 0 128 128" width="128" height="128">
  <path d="M91.2,37.2L90.4,37.3L87.8,38.6L87.5,38.6L86.5,39.2L84.8,39.7L84.2,40.1L82.8,40.4L81.7,40.3L81.1,40.0L80.1,39.0L78.1,36.1L75.6,33.8L72.7,32.2L69.4,31.4L66.0,31.3L63.7,31.5L60.8,32.2L60.6,32.4L60.1,32.5L58.4,33.3L56.5,34.6L55.1,35.9L53.7,37.5L53.6,37.9L52.4,39.6L51.4,41.9L50.8,44.1L50.8,49.0L51.3,51.4L51.9,53.2L52.6,54.7L53.1,55.1L53.3,55.7L54.7,57.2L55.0,57.3L56.3,58.5L58.7,59.7L60.8,60.3L64.1,60.9L65.7,61.7L66.9,63.0L67.5,64.5L67.5,66.0L67.2,66.6L67.0,67.8L66.5,68.9L65.6,70.2L65.4,70.8L64.0,73.1L59.6,79.6L57.6,81.6L56.7,82.2L55.3,82.6L54.0,82.5L52.9,82.0L51.7,80.8L51.0,79.6L50.1,77.4L49.9,76.4L49.2,74.0L48.5,70.1L48.3,69.6L48.1,69.6L47.6,70.1L47.3,71.2L46.6,72.6L46.1,74.3L45.6,75.0L44.1,78.7L43.3,79.7L43.0,79.7L41.8,79.0L39.6,77.2L38.8,76.8L35.7,74.4L35.2,74.4L35.1,74.9L35.5,77.9L36.6,82.5L38.2,86.6L38.4,86.9L38.5,87.3L39.1,88.5L40.2,89.9L43.2,92.2L45.7,93.2L48.9,94.3L52.6,94.9L53.7,94.9L54.5,95.1L62.6,95.3L71.5,95.1L74.0,94.8L76.6,94.2L79.2,93.2L80.4,92.6L82.3,91.2L83.5,90.0L84.5,88.5L85.2,86.1L85.4,84.5L85.5,82.8L85.5,78.5L85.0,74.7L85.0,73.5L84.6,71.5L84.4,69.6L83.5,64.8L83.5,63.5L83.3,63.1L83.3,60.8L83.4,60.1L83.9,59.1L84.2,58.7L84.9,58.3L86.2,57.9L92.4,58.0L94.2,58.2L94.5,57.9L93.8,57.2L92.6,56.6L91.2,55.5L89.0,54.3L84.3,50.9L83.3,50.1L83.2,49.7L83.2,49.2L83.5,48.5L84.7,46.9L85.0,46.3L89.7,39.9L90.4,38.7L91.2,37.7Z M70.4,42.0L72.7,42.1L73.7,42.4L74.7,43.0L75.6,44.0L76.0,44.6L76.6,46.6L76.5,49.1L76.0,50.4L74.2,52.2L72.9,52.7L72.0,52.9L69.7,52.8L68.1,52.0L67.3,51.3L66.5,50.2L65.9,48.4L65.9,46.5L66.0,45.9L66.5,44.7L66.9,44.1L68.2,42.9L68.9,42.5Z M34.7,13.8L30.2,15.9L27.2,17.8L26.0,18.8L24.8,19.5L22.1,22.2L20.7,23.8L19.3,25.8L18.2,27.8L17.7,28.8L17.5,29.1L16.8,30.5L15.4,35.0L14.2,40.2L14.0,42.3L13.8,43.5L13.8,44.3L13.2,47.9L12.7,54.4L12.7,71.7L13.1,75.4L13.2,78.9L13.5,81.3L13.8,84.9L14.0,85.7L14.4,88.4L14.7,89.1L15.3,92.2L15.5,92.7L16.1,95.1L17.1,97.4L17.3,98.2L18.3,100.2L20.4,103.9L23.3,107.5L25.4,109.4L27.5,111.1L29.1,112.2L31.9,113.7L36.8,115.6L41.0,116.7L46.4,117.8L48.0,117.9L49.8,118.2L51.3,118.2L51.9,118.4L54.5,118.7L61.3,119.0L67.6,119.0L70.4,118.7L73.4,118.7L76.2,118.3L77.1,118.0L80.4,117.7L80.8,117.5L82.5,117.3L86.8,116.3L88.4,116.0L91.2,115.2L95.0,113.7L95.6,113.4L96.2,113.3L96.6,113.0L97.6,112.6L100.4,110.9L100.9,110.8L104.5,108.0L107.0,105.1L109.3,102.0L110.4,99.9L111.3,98.3L112.3,95.8L112.7,94.0L113.0,93.6L113.6,91.5L113.8,89.7L114.1,88.6L114.7,85.2L114.7,83.4L115.1,81.4L115.5,77.2L115.6,72.8L115.5,56.8L115.3,55.7L115.3,53.9L114.8,49.5L114.7,47.2L114.5,44.9L114.3,44.4L114.0,41.5L112.6,35.1L111.7,32.2L110.5,29.2L109.7,27.6L107.7,24.4L105.7,22.0L103.8,20.0L101.9,18.4L97.0,15.4L96.4,15.2L96.2,15.0L95.1,14.4L94.0,14.2L92.6,13.4L91.2,12.9L90.5,12.9L89.7,12.5L83.5,11.1L78.3,10.2L77.6,10.2L75.0,9.8L74.0,9.8L72.9,9.5L67.6,9.3L59.0,9.3L57.8,9.4L54.7,9.5L51.5,9.9L49.5,10.3L48.7,10.3L46.7,10.8L45.1,10.9L44.3,11.3L42.8,11.5L42.3,11.7L41.1,11.9L40.2,12.2L39.1,12.4L38.3,12.8L37.6,12.9L35.3,13.7Z M38.3,27.2L39.0,26.9L39.4,26.6L40.4,26.4L40.9,26.0L42.9,25.5L43.3,25.2L44.2,25.0L45.2,24.6L47.6,24.1L48.2,24.1L49.2,23.7L51.0,23.6L54.0,23.1L60.3,22.7L69.5,22.7L74.7,23.0L82.1,24.2L83.5,24.7L84.0,24.7L84.2,24.9L85.8,25.2L88.9,26.5L91.2,27.9L92.4,28.7L94.3,30.6L95.9,32.5L96.2,33.4L97.1,34.8L97.2,35.3L97.4,35.5L98.4,38.6L99.8,45.1L100.1,48.2L100.4,49.1L100.5,52.9L100.8,55.5L100.8,57.9L101.0,58.9L101.0,61.7L101.2,64.1L101.0,75.2L100.5,79.4L100.5,80.7L100.1,83.5L99.9,86.3L99.6,87.3L99.4,88.7L98.6,90.9L98.3,92.2L97.1,94.6L95.4,97.0L94.2,98.1L92.7,99.2L91.8,100.1L89.0,101.5L88.7,101.5L88.0,102.0L87.3,102.2L86.4,102.6L85.0,103.0L84.2,103.1L83.9,103.4L82.9,103.6L82.5,103.8L80.4,104.1L79.5,104.4L78.4,104.4L78.1,104.6L72.6,105.1L71.9,105.3L69.8,105.3L67.0,105.6L58.8,105.6L58.1,105.4L54.0,105.2L48.6,104.4L47.2,104.1L45.3,103.8L40.8,102.5L38.3,101.4L36.9,100.5L33.4,97.1L33.3,96.6L32.4,95.6L31.4,93.7L29.9,89.8L29.0,85.5L28.8,82.8L28.4,81.4L28.4,80.2L28.3,79.6L28.3,78.4L28.0,77.2L28.0,75.8L27.8,74.6L27.5,68.1L27.5,60.1L27.7,55.3L27.6,53.0L28.0,50.5L28.0,48.3L28.3,47.0L28.7,42.6L29.0,41.9L29.0,41.3L29.5,38.9L29.7,38.3L29.9,37.2L30.4,35.9L30.4,35.6L31.9,32.9L33.7,30.6L35.1,29.3Z" fill="#000" fill-rule="evenodd"/>
</svg>