<svg xmlns="http://www.w3.org/2000/svg" viewBox="0 0 128 128" width="128" height="128">
  <path d="M74.1,38.8L71.5,39.5L69.5,40.5L68.1,41.5L66.3,43.3L65.4,44.5L64.2,47.0L63.6,49.0L63.4,50.6L63.6,53.9L64.2,56.0L65.3,58.4L66.4,59.9L68.8,62.0L70.8,63.2L72.9,64.0L74.5,64.2L78.2,64.1L80.0,63.7L81.4,63.1L82.9,62.2L84.3,61.1L86.4,58.7L86.9,57.5L87.3,57.1L87.3,56.8L87.7,56.1L87.8,55.5L88.0,55.0L88.4,53.1L88.4,49.7L88.1,49.0L87.9,47.7L86.8,45.0L85.1,42.8L83.4,41.1L80.5,39.5L79.8,39.4L78.9,39.0L77.4,38.7Z M116.2,9.4L76.1,9.6L72.8,9.5L50.1,9.9L45.1,9.8L33.8,10.0L14.1,10.0L11.0,10.1L10.7,10.4L10.6,22.5L11.4,90.8L11.4,112.2L11.5,118.4L11.7,118.7L12.1,118.9L45.6,118.5L58.8,118.5L63.7,118.3L67.7,118.4L104.2,117.9L117.3,117.9L117.8,117.6L117.9,116.1L117.6,108.4L117.6,100.9L117.1,76.9L117.0,58.0L116.8,52.4L116.6,10.3L116.5,9.7Z M98.7,27.6L99.0,28.0L99.2,29.3L99.3,57.2L99.9,93.1L99.8,99.5L99.0,99.8L83.8,99.8L81.9,100.0L67.1,100.0L66.5,99.9L66.3,99.7L66.1,98.1L66.0,89.4L66.1,88.7L66.5,88.3L70.6,88.0L74.6,87.1L76.5,86.5L78.3,85.6L78.7,85.6L82.1,83.9L82.4,83.5L82.8,83.4L84.0,82.5L85.1,81.9L86.7,80.5L88.7,79.2L90.8,77.4L91.1,77.3L91.5,76.8L93.4,75.2L97.4,71.4L97.4,70.8L96.2,69.1L95.6,69.0L95.1,69.4L92.1,70.9L89.1,72.0L85.7,72.5L81.0,72.5L77.8,72.0L75.0,71.0L72.2,69.7L69.6,68.1L67.6,66.5L63.8,62.6L62.5,60.8L62.4,60.4L61.2,58.6L60.1,56.5L59.1,54.2L58.8,53.1L58.5,52.6L58.5,52.2L58.1,51.6L57.4,49.3L56.4,45.4L55.9,42.5L55.4,41.4L55.3,40.4L55.0,39.5L54.2,36.7L53.2,34.5L51.5,32.6L50.3,31.8L48.3,31.3L46.4,31.3L44.4,31.8L42.9,32.9L42.0,33.9L40.9,35.8L40.3,36.3L30.9,36.4L30.5,36.8L30.5,38.8L30.6,39.2L31.1,39.5L36.8,39.4L40.0,39.5L41.7,40.4L43.0,42.0L43.4,42.9L43.8,44.9L43.9,47.3L43.3,52.3L42.4,56.3L42.3,57.6L41.9,59.5L41.8,65.3L42.4,68.9L42.6,69.2L42.7,69.9L43.1,71.5L43.4,72.0L43.6,72.9L44.6,75.3L46.5,78.5L48.3,80.7L50.6,83.0L53.9,85.3L56.4,86.5L58.2,87.2L59.4,87.4L60.2,87.7L62.2,88.0L62.8,88.4L63.0,92.8L62.9,99.5L62.3,100.1L59.7,100.2L46.4,100.2L30.9,100.5L29.7,100.4L29.3,100.0L29.2,99.3L29.0,90.9L29.1,86.3L28.9,81.6L28.7,50.4L28.5,42.8L28.6,28.6L29.0,28.3L29.3,28.2L50.3,28.0L53.4,28.1L83.7,27.6Z" fill="#000" fill-rule="evenodd"/>
</svg>