<svg xmlns="http://www.w3.org/2000/svg" viewBox="0 0 128 128" width="128" height="128">
  <path d="M65.1,95.6L64.9,95.8L65.1,103.0L65.1,115.1L65.3,115.7L65.7,115.9L67.9,115.9L68.3,115.7L68.3,115.2L68.2,115.0L66.4,115.0L65.9,114.3L65.7,100.1L65.8,97.7L65.7,95.9L65.6,95.7Z M53.8,94.0L53.5,93.9L53.0,94.5L52.3,97.0L51.9,97.9L51.9,98.6L51.5,99.1L51.5,99.8L50.8,101.3L50.6,102.4L49.7,104.8L49.6,105.4L48.3,109.0L47.9,110.8L47.3,112.4L47.4,113.0L48.0,113.1L48.2,112.8L48.2,112.3L49.7,108.1L49.9,106.9L50.7,104.6L50.7,104.2L51.0,103.7L51.1,103.0L51.8,101.3L52.0,100.2L52.8,98.1L52.8,97.7L53.2,96.8L53.4,96.0L53.7,95.3L53.9,94.6Z M42.2,87.3L41.9,87.2L41.5,87.5L40.7,88.5L39.5,89.7L38.3,91.3L35.9,94.0L35.0,95.4L32.2,98.5L29.3,102.1L29.2,102.6L29.4,102.8L29.8,102.8L31.6,100.7L32.0,100.1L33.7,98.1L36.0,95.6L36.6,95.7L37.5,96.5L37.4,97.0L36.8,97.6L35.4,99.6L31.8,103.8L31.6,104.1L31.7,104.6L32.3,104.6L32.6,104.2L33.9,102.5L37.1,98.8L39.0,96.2L42.8,91.8L42.9,91.6L43.2,91.4L44.5,89.6L44.5,89.1L44.0,89.1L42.0,91.2L41.4,92.3L39.0,95.1L38.4,95.6L38.0,95.6L37.6,95.4L37.1,94.9L37.0,94.7L37.2,94.0L41.2,89.1L42.0,88.2L42.4,87.7L42.4,87.4Z M35.9,78.8L35.0,77.3L34.3,77.3L33.0,78.0L32.6,78.1L28.6,80.1L27.8,80.4L22.5,83.2L21.2,83.7L19.8,84.5L19.0,84.7L17.0,85.7L16.7,86.0L16.7,86.4L16.9,86.5L18.0,86.4L18.6,86.0L19.0,85.9L20.2,85.2L20.9,84.9L23.0,83.8L23.5,83.7L23.9,83.4L24.5,83.2L25.0,82.9L25.8,83.0L27.0,84.3L27.4,84.5L27.8,84.5L30.9,83.2L32.0,82.6L32.6,82.3L32.9,82.1L35.2,80.9L36.0,80.0L36.1,79.3Z M35.1,79.1L35.1,79.7L34.5,80.4L28.4,83.4L27.5,83.4L26.8,82.6L26.8,82.2L27.8,81.5L28.6,81.1L29.3,80.9L30.2,80.4L30.7,80.2L33.7,78.7L34.5,78.5L34.7,78.6Z M32.4,65.2L32.3,64.8L31.6,64.0L31.2,63.8L30.6,63.7L23.1,63.9L18.9,64.1L14.3,64.1L12.6,64.3L11.7,64.8L11.2,65.4L11.0,66.6L11.6,67.7L12.5,68.2L12.9,68.3L15.6,68.3L17.1,68.0L18.9,68.1L20.4,67.9L27.7,67.8L28.6,67.6L30.8,67.5L31.6,67.3L32.1,66.8L32.4,66.2Z M31.6,65.5L31.6,66.1L31.2,66.5L30.5,66.7L29.4,66.9L26.6,66.8L25.0,67.0L21.9,67.0L19.7,67.1L17.4,67.1L16.0,67.3L13.2,67.3L12.5,67.0L11.9,66.4L12.0,65.8L12.6,65.3L13.1,65.2L18.0,65.1L18.8,64.9L21.7,65.0L23.8,64.8L30.7,64.7L31.2,64.9Z M14.0,47.6L14.0,47.9L14.3,48.1L18.3,49.6L19.9,49.9L20.7,50.2L22.7,50.7L23.6,51.1L24.4,51.3L24.8,51.5L27.5,52.4L28.4,52.6L29.3,53.0L30.0,53.2L30.6,53.5L32.9,54.2L33.1,54.2L33.3,54.0L33.3,53.6L33.0,53.3L26.6,51.3L25.5,50.8L24.9,50.7L22.9,50.0L22.1,49.8L21.5,49.5L20.6,49.3L15.5,47.6L14.7,47.5Z M24.0,29.9L23.5,31.0L23.6,31.6L24.7,32.9L25.2,33.3L26.1,34.2L29.3,36.8L30.8,37.9L31.2,38.0L31.6,37.8L32.7,36.6L33.3,36.5L33.7,36.7L38.3,40.5L39.3,41.5L39.4,41.9L39.4,42.5L39.1,43.0L38.1,43.0L36.0,41.4L33.8,39.4L33.5,39.3L33.1,39.4L33.1,40.0L34.8,41.4L36.0,42.6L37.3,43.6L38.1,44.0L39.1,43.9L40.2,42.9L40.3,41.7L40.2,41.3L38.1,39.3L33.8,35.8L30.7,32.9L28.3,31.0L27.5,30.2L27.3,30.1L26.4,29.4L25.6,29.0L25.0,29.1Z M24.6,30.7L25.2,30.1L25.8,30.1L26.6,30.6L29.4,32.9L31.9,35.2L32.0,35.9L31.1,36.8L30.7,36.8L29.8,36.2L24.7,31.7L24.4,31.3Z M92.5,23.4L90.9,24.4L89.9,25.4L84.2,29.8L82.5,31.3L81.6,31.9L79.4,33.7L78.0,34.7L75.5,36.9L74.0,37.9L71.6,40.1L69.7,41.5L67.5,43.7L66.5,45.4L65.9,47.1L66.1,49.5L66.1,52.8L66.4,56.2L66.4,58.9L66.1,59.9L65.6,60.4L64.9,60.8L63.0,60.9L62.3,60.7L61.0,60.1L60.3,59.4L60.3,59.1L61.7,57.5L63.1,55.4L63.2,54.9L63.7,54.1L63.8,53.7L64.5,52.3L65.0,50.6L65.5,47.1L65.3,46.0L65.1,45.4L64.9,44.1L64.0,41.8L62.8,40.1L61.3,38.8L60.1,38.1L58.6,37.6L57.3,37.4L55.4,37.5L54.1,37.8L53.0,38.5L52.1,39.4L51.5,40.8L50.9,41.4L49.8,41.9L49.3,42.3L49.4,42.6L50.2,42.9L51.2,43.0L52.0,43.4L52.8,43.6L53.6,44.1L54.1,44.6L54.3,45.1L54.3,46.3L53.5,47.7L52.1,49.0L48.0,51.7L47.1,52.4L46.7,52.6L45.3,53.8L44.7,54.1L41.8,57.0L41.1,57.8L39.7,60.2L39.2,61.8L38.9,62.3L38.7,64.3L38.7,66.3L39.0,68.3L39.5,70.2L40.2,71.8L40.2,72.0L41.1,73.7L42.0,75.2L42.6,75.7L43.3,76.8L46.1,79.5L48.2,80.8L48.7,80.9L48.9,81.2L51.5,82.2L52.0,82.3L52.7,82.6L58.0,83.7L63.9,83.9L74.8,83.6L75.8,83.5L81.3,83.3L83.1,83.0L86.9,82.9L88.1,83.0L88.5,83.4L89.0,84.2L90.0,86.5L92.0,89.9L93.9,94.0L94.3,94.5L95.1,96.1L95.4,96.5L97.0,99.8L97.2,100.3L97.4,100.6L98.1,102.1L98.5,102.6L99.0,102.7L99.9,102.0L103.8,98.1L105.3,96.4L105.7,95.6L108.7,91.7L111.6,86.5L112.0,85.3L113.2,83.1L113.2,82.5L112.8,82.1L110.6,81.2L107.0,80.1L105.0,79.3L104.1,79.1L103.7,78.9L102.9,78.7L101.0,78.0L99.2,77.5L96.8,76.6L96.0,76.5L95.5,76.1L94.9,76.1L92.1,75.1L91.2,74.7L89.3,74.1L89.1,73.9L85.6,72.7L84.8,72.3L83.3,71.9L81.0,70.9L78.4,70.1L77.5,69.6L77.2,69.2L77.5,69.0L78.1,68.9L78.9,68.5L80.0,68.3L83.9,66.3L87.1,64.2L89.5,61.9L90.1,61.0L90.6,60.5L90.8,60.1L91.6,59.0L92.6,56.7L92.9,56.5L93.4,55.0L93.4,54.3L93.1,54.1L90.1,54.1L86.9,54.2L86.7,54.1L86.8,53.8L87.3,53.6L87.6,53.6L89.2,52.9L91.0,51.6L92.0,50.6L92.9,48.9L93.4,47.5L93.6,45.9L93.6,42.0L93.4,38.6L93.1,38.3L92.7,38.3L91.7,38.9L91.0,39.2L89.5,40.2L88.8,40.5L87.7,41.3L87.4,41.3L86.5,41.9L86.1,41.5L86.5,41.2L87.0,41.0L88.1,40.2L90.0,38.4L91.3,36.8L92.6,34.2L93.1,31.9L93.3,29.0L93.1,27.8L93.1,25.4L93.0,23.7Z M40.6,17.3L39.4,17.8L39.1,18.2L39.2,18.5L39.8,18.6L41.0,18.0L41.5,18.0L42.0,18.4L45.4,25.1L45.5,25.7L45.1,26.1L44.0,26.8L43.9,27.3L44.1,27.4L44.3,27.4L45.5,26.8L45.9,26.8L46.4,27.2L49.7,33.6L49.7,34.0L49.4,34.3L48.0,35.1L47.9,35.6L48.0,35.8L48.6,35.8L50.5,34.9L50.7,34.6L50.8,34.0L49.4,31.5L48.6,29.6L47.1,27.0L46.0,24.6L45.8,24.3L44.7,21.9L44.3,21.3L43.8,20.1L42.9,18.6L42.8,18.0L42.0,17.0L41.4,16.9L40.8,17.3Z M59.4,12.5L59.2,13.2L59.4,13.7L59.5,20.5L59.7,21.3L59.9,21.8L59.9,22.3L59.7,22.9L60.0,30.5L60.5,31.3L60.9,31.6L63.1,31.7L63.5,31.6L63.6,31.2L63.6,24.7L63.4,23.4L63.1,12.6L63.1,12.5L62.7,12.4L62.5,12.8L62.7,21.0L62.5,21.3L62.3,21.5L61.2,21.6L60.5,21.2L60.3,20.6L60.1,17.5L60.1,13.9L59.9,12.5Z M61.7,22.5L62.2,22.5L62.6,22.9L62.7,23.7L62.9,30.0L62.7,30.7L62.1,31.0L61.4,30.9L60.9,30.5L60.6,29.6L60.5,26.4L60.4,24.3L60.5,23.1L60.9,22.7Z M62.5,10.1L60.9,10.3L59.2,10.3L57.3,10.6L55.9,10.7L51.3,11.6L50.4,11.9L48.4,12.3L46.3,13.0L45.9,13.2L45.1,13.4L43.9,13.9L43.5,14.3L43.5,14.5L44.1,14.5L44.7,14.2L45.3,14.1L47.8,13.1L48.7,13.0L49.3,12.7L49.7,12.7L50.2,12.5L51.0,12.4L52.7,11.8L53.2,11.8L56.4,11.2L57.2,11.2L58.2,10.9L59.9,10.9L60.2,10.8L63.1,10.6L69.4,10.8L72.2,11.3L73.7,11.4L75.3,11.8L77.1,12.1L79.0,12.6L80.0,12.8L85.0,14.5L86.9,15.6L87.9,15.9L89.8,16.9L90.3,16.9L90.4,17.2L91.1,17.4L92.0,18.1L92.5,18.3L92.7,18.6L93.2,18.7L93.7,19.1L94.7,19.6L99.7,23.4L102.2,25.6L105.7,29.3L108.1,32.3L108.3,32.7L109.4,34.1L111.6,37.6L114.3,42.8L114.4,43.3L114.7,43.8L114.9,44.5L115.5,45.9L115.5,46.3L116.8,50.0L117.5,52.8L118.0,56.5L118.2,56.9L118.5,59.4L118.5,61.2L118.6,62.1L118.6,66.5L118.5,68.7L118.2,69.6L118.2,70.6L118.0,71.0L118.0,71.6L117.3,75.7L116.6,78.7L116.4,78.9L116.2,80.0L115.9,80.4L115.7,81.4L115.4,82.0L115.2,82.8L114.9,83.4L114.8,83.9L114.4,84.5L113.3,87.2L113.1,87.3L112.4,88.9L112.0,89.5L111.9,89.9L109.7,93.2L108.9,94.7L105.2,99.1L102.0,102.5L97.3,106.7L96.9,106.8L95.8,107.7L93.4,109.2L92.7,109.5L90.8,110.7L88.2,112.1L83.2,114.2L77.9,115.9L72.1,117.0L68.7,117.3L63.7,117.4L63.0,117.6L60.1,117.5L59.0,117.2L56.6,117.1L54.9,116.7L53.9,116.6L53.6,116.4L51.7,116.1L51.0,115.8L49.9,115.6L49.1,115.3L48.4,115.2L48.0,115.0L47.1,114.8L46.2,114.4L44.5,113.9L44.1,113.6L43.1,113.3L37.7,110.7L36.5,109.8L36.0,109.7L35.8,109.4L34.2,108.5L33.1,107.7L32.0,107.2L28.8,104.6L24.9,100.9L22.2,98.0L19.5,94.5L16.5,89.6L13.7,83.7L11.6,77.4L11.3,76.2L11.0,74.4L10.8,73.8L10.8,73.1L10.4,71.8L10.4,70.9L10.1,69.0L9.8,62.9L10.0,62.4L10.0,59.4L10.3,57.9L10.3,57.1L10.5,56.3L10.5,55.4L10.8,54.1L11.0,52.7L11.7,50.6L11.9,49.3L12.2,48.6L12.4,47.7L12.6,47.3L12.8,46.4L13.2,45.6L13.3,45.1L13.7,44.5L13.8,44.0L14.2,43.3L15.3,40.7L16.4,38.8L16.6,38.1L18.3,35.5L18.4,35.2L19.3,34.1L19.4,33.7L21.6,31.0L22.0,30.4L24.0,28.1L28.1,24.2L30.1,22.5L32.9,20.4L36.3,18.2L37.1,17.9L39.8,16.4L40.2,16.3L41.1,15.7L43.2,14.9L43.3,14.6L42.9,14.4L42.5,14.4L39.6,15.8L39.1,15.9L38.8,16.2L36.7,17.3L33.8,19.0L30.2,21.6L26.8,24.3L22.6,28.6L18.9,33.3L15.7,38.3L13.8,42.2L13.7,42.7L12.7,44.6L11.8,47.1L11.7,48.0L11.5,48.2L11.1,50.0L10.8,50.6L10.7,51.5L10.4,52.1L10.4,53.0L10.2,53.3L9.9,55.0L9.9,56.0L9.5,57.0L9.1,61.8L9.1,64.7L9.5,71.2L10.4,75.7L11.9,81.0L12.2,81.6L12.8,83.5L13.5,84.9L13.6,85.4L15.9,89.9L16.7,91.1L17.3,92.2L18.1,93.3L18.6,94.3L21.7,98.4L23.8,100.7L26.7,103.6L28.7,105.4L29.0,105.5L32.0,107.9L36.3,110.7L36.8,110.9L37.3,111.3L38.1,111.7L38.7,111.9L40.2,112.8L41.4,113.2L42.5,113.8L43.2,114.0L43.9,114.4L44.6,114.6L45.9,115.1L48.9,116.1L49.6,116.2L50.7,116.6L51.6,116.7L52.5,117.0L54.1,117.2L54.9,117.5L61.3,118.1L65.7,118.2L71.0,117.8L73.8,117.4L76.5,116.7L77.4,116.7L79.0,116.1L81.7,115.4L81.9,115.2L84.3,114.5L84.6,114.2L87.0,113.3L92.1,110.7L94.4,109.4L96.1,108.1L96.4,108.0L99.4,105.7L103.7,101.7L107.4,97.5L108.0,96.6L108.4,96.3L110.5,93.2L110.7,92.5L111.9,90.9L112.0,90.3L112.8,89.2L113.3,88.1L113.4,87.7L115.0,84.5L115.2,83.9L115.7,82.9L115.9,82.2L116.1,81.8L116.4,80.3L116.7,79.9L116.8,79.1L117.5,77.4L118.4,72.9L118.6,70.5L118.9,69.7L119.1,66.1L119.1,61.2L118.4,55.3L118.1,54.5L117.9,52.6L117.6,52.1L117.2,50.1L117.1,49.9L116.9,48.9L116.4,48.0L116.3,47.4L115.7,45.6L115.6,45.0L115.2,44.5L115.0,43.7L114.2,41.8L114.0,41.5L113.9,41.1L113.4,40.3L112.9,39.2L112.5,38.7L112.4,38.2L111.7,37.2L111.6,36.8L110.9,35.9L110.7,35.3L109.6,33.9L109.6,33.7L108.6,32.3L107.5,31.0L107.0,30.2L106.1,29.1L102.0,24.8L101.6,24.6L100.7,23.8L100.5,23.7L99.7,22.9L99.4,22.8L98.7,22.1L98.2,21.8L97.6,21.2L96.2,20.2L95.1,19.6L94.3,18.9L93.4,18.3L92.9,18.2L92.6,17.9L92.1,17.8L91.8,17.4L91.0,17.0L90.5,16.9L89.5,16.1L88.0,15.5L87.6,15.2L87.0,15.0L86.7,14.7L85.5,14.3L83.0,13.3L80.6,12.6L79.9,12.3L74.7,11.1L71.7,10.6L69.9,10.5L67.9,10.2Z" fill="#000" fill-rule="evenodd"/>
</svg>