<svg xmlns="http://www.w3.org/2000/svg" viewBox="0 0 128 128" width="128" height="128">
  <path d="M59.7,9.2L56.5,9.6L54.8,10.0L54.1,10.0L53.4,10.3L52.5,10.4L51.4,10.8L50.3,10.9L49.5,11.3L46.4,12.2L41.1,14.5L40.0,15.2L37.9,16.2L37.7,16.4L36.2,17.1L31.9,20.4L30.5,21.3L29.3,22.3L24.3,27.4L21.0,31.6L20.0,33.2L19.0,34.5L18.6,35.5L18.1,36.1L17.6,37.3L16.8,38.3L16.5,39.2L15.1,41.8L14.5,43.7L13.9,44.9L13.5,46.4L13.3,46.8L13.1,47.8L12.5,49.6L11.7,53.5L11.4,54.1L11.2,56.5L11.0,57.5L10.9,59.8L10.7,60.2L10.6,61.9L10.6,67.1L11.3,72.9L11.5,73.5L11.8,75.6L12.5,78.5L14.3,84.2L15.0,85.5L15.7,87.5L16.1,88.1L16.2,88.5L17.0,90.1L17.6,90.8L18.3,92.4L20.1,95.1L20.4,95.5L21.0,96.5L23.6,99.9L28.0,104.6L31.5,107.6L36.5,111.1L37.4,111.5L38.8,112.5L40.4,113.2L40.8,113.5L42.4,114.1L43.5,114.7L45.2,115.4L45.5,115.6L46.3,115.8L46.8,116.1L47.9,116.4L49.3,116.9L51.0,117.3L51.5,117.5L52.5,117.6L53.3,117.9L54.9,118.1L55.7,118.4L57.0,118.5L57.7,118.7L63.2,119.1L66.9,119.0L72.5,118.5L73.4,118.1L74.8,118.0L76.0,117.6L77.5,117.3L77.6,117.2L78.5,117.0L79.3,116.7L81.7,116.0L83.1,115.3L84.5,114.8L84.9,114.5L85.7,114.3L86.2,114.0L86.8,113.9L89.3,112.5L90.3,111.8L91.0,111.5L91.6,111.0L92.3,110.6L93.9,109.5L94.7,109.1L96.5,107.7L101.7,103.0L104.5,100.1L105.2,98.9L106.5,97.4L107.1,96.3L107.9,95.5L110.6,91.1L110.8,90.6L112.0,88.3L112.4,87.5L112.4,87.2L113.3,85.4L115.1,80.7L115.2,79.9L115.7,78.6L115.8,77.8L116.1,77.0L116.3,75.7L116.6,75.0L116.7,74.1L116.7,73.2L117.0,71.9L117.3,69.9L117.6,64.9L117.5,59.9L117.2,57.7L116.6,54.4L116.3,52.5L115.9,50.9L115.7,50.4L115.6,49.3L115.3,48.5L115.1,47.4L114.8,46.8L114.7,46.0L114.0,44.4L113.8,43.6L112.4,40.3L111.6,38.7L111.6,38.4L110.8,37.2L110.6,36.7L110.3,36.3L109.8,35.2L109.0,34.2L107.8,32.1L107.2,31.4L106.6,30.5L103.2,26.3L102.4,25.6L101.5,24.6L98.6,21.7L97.3,20.9L96.8,20.4L96.5,20.3L95.1,19.1L94.3,18.7L93.5,17.9L92.6,17.5L91.8,16.8L89.8,15.8L89.3,15.4L88.9,15.3L86.7,14.1L85.9,13.8L84.4,13.1L83.7,12.9L82.7,12.4L81.2,12.0L81.0,11.8L78.9,11.3L77.9,10.8L76.6,10.6L75.5,10.2L74.1,10.0L73.4,9.8L71.8,9.7L70.6,9.4L67.2,9.1Z M93.6,25.3L93.8,25.4L95.2,25.7L99.0,27.0L100.3,27.8L101.6,28.4L102.6,29.2L103.3,30.0L103.2,30.1L102.8,30.1L100.9,29.2L98.2,28.5L94.6,28.5L93.3,28.8L90.5,29.8L90.2,30.0L89.2,30.5L87.7,31.7L86.2,33.1L84.4,35.6L83.5,37.9L83.0,39.6L82.7,42.3L83.0,45.1L83.3,46.4L83.9,48.0L85.2,50.2L87.1,52.5L88.7,53.8L89.2,53.9L90.5,54.8L92.3,55.3L93.1,55.7L94.7,56.0L97.8,56.0L99.4,55.7L101.1,55.2L103.0,54.2L105.2,52.5L106.9,50.7L107.1,50.2L107.9,49.0L108.7,47.6L109.0,46.4L109.2,46.0L109.7,43.2L109.6,40.3L109.7,40.0L110.0,39.8L110.3,40.1L110.3,40.8L111.0,42.4L111.4,45.2L111.4,49.1L111.0,51.8L110.1,55.2L109.7,55.8L109.2,57.2L108.3,58.8L106.6,61.3L105.4,62.7L104.0,64.1L102.5,65.4L101.7,65.8L100.3,66.9L99.9,66.9L97.8,68.2L97.0,68.3L96.1,68.8L94.6,69.0L93.6,69.5L91.2,69.9L89.8,69.9L89.1,70.0L87.7,69.9L87.1,69.8L86.4,69.8L85.6,69.5L85.0,69.5L83.1,69.0L82.3,68.6L80.8,68.2L79.9,67.7L79.5,67.6L77.3,66.3L76.3,65.4L75.1,64.7L73.4,63.0L71.5,60.7L70.1,58.5L69.4,57.6L66.8,55.3L64.4,53.9L62.6,53.5L61.7,53.1L59.8,52.9L59.5,52.7L59.4,52.2L60.0,51.2L61.2,50.2L62.5,49.4L63.6,49.3L65.4,49.3L66.5,49.9L67.1,50.0L67.3,50.2L68.6,50.1L69.3,49.5L69.8,48.1L69.8,45.5L70.0,43.2L70.4,41.3L70.7,40.5L71.4,38.0L72.5,36.0L73.5,34.4L73.7,33.9L74.3,33.4L74.8,32.5L77.2,30.0L77.9,29.6L78.5,29.1L80.8,27.6L82.7,26.7L83.1,26.4L85.1,26.0L85.7,25.7L86.8,25.6L88.6,25.2Z M77.5,16.1L78.1,16.2L79.7,16.3L80.0,16.5L81.3,16.6L83.7,17.0L88.5,18.4L89.0,18.7L89.6,18.9L90.2,19.2L91.0,19.4L91.5,19.8L92.9,20.4L93.1,20.6L93.8,20.8L95.7,22.0L97.9,23.6L99.3,24.4L100.3,25.4L102.5,27.4L102.8,27.9L102.8,28.1L102.1,27.9L100.9,26.9L99.4,26.1L98.3,25.3L96.5,24.3L92.9,23.0L90.6,22.5L88.8,22.3L88.3,22.1L83.5,22.1L82.4,22.3L80.9,22.4L78.6,22.9L75.1,24.1L74.3,24.6L72.6,25.3L68.8,27.8L66.3,30.0L64.5,31.9L63.3,33.4L61.0,37.0L60.8,37.9L60.0,39.2L59.8,40.1L59.0,42.2L58.6,43.7L58.6,44.2L58.3,45.1L58.3,46.0L58.1,46.7L57.9,50.7L58.1,51.3L58.2,53.7L58.6,56.0L58.9,56.8L59.2,57.9L59.5,58.5L60.4,61.2L61.2,62.7L61.4,63.5L62.7,65.5L64.7,68.2L67.3,70.7L68.8,72.0L69.7,72.4L70.4,73.1L71.7,73.9L72.2,74.1L73.0,74.6L74.1,75.2L75.9,75.8L76.4,76.2L77.3,76.3L78.0,76.6L78.8,76.7L79.5,77.0L82.9,77.6L87.5,77.6L90.6,77.2L91.7,76.8L92.7,76.6L93.6,76.4L94.1,76.1L95.4,75.7L98.2,74.5L100.3,73.0L102.8,71.1L103.3,70.7L104.1,69.8L105.5,68.5L106.5,67.4L108.7,64.1L110.5,60.6L111.4,57.9L112.0,55.6L112.0,54.3L112.4,53.2L112.5,51.4L112.4,47.2L112.0,45.4L112.0,43.9L111.6,43.0L111.4,42.1L111.0,41.1L111.1,40.0L111.4,40.1L112.0,41.8L112.8,43.2L113.3,45.1L113.9,46.8L115.0,52.2L115.4,55.0L115.7,58.9L115.6,62.7L115.1,66.9L114.9,67.5L114.1,71.4L113.7,72.4L113.4,73.6L112.9,74.6L112.6,75.8L111.2,78.7L111.1,79.2L110.8,79.6L109.8,81.7L108.6,83.6L108.5,83.9L104.5,89.2L102.1,91.7L98.2,95.0L97.5,95.4L96.7,96.1L95.2,97.0L94.9,97.3L94.3,97.5L92.6,98.7L92.0,98.8L91.8,99.1L90.3,99.7L90.1,100.0L89.1,100.5L88.3,100.6L87.6,101.0L85.4,101.8L82.0,102.7L81.5,103.0L78.5,103.5L73.5,103.9L72.7,103.8L72.2,104.0L70.8,103.8L69.2,103.8L68.1,103.6L67.0,103.6L65.9,103.4L65.0,103.4L63.6,103.0L62.7,102.9L61.3,102.5L60.3,102.3L59.6,102.0L57.9,101.4L57.5,101.2L55.6,100.6L50.9,98.3L49.4,97.3L48.5,96.6L47.2,95.9L46.2,95.0L44.2,93.6L42.8,92.2L42.2,91.7L38.0,87.1L37.8,86.6L36.7,85.3L36.7,85.1L35.9,83.9L35.6,83.1L34.9,82.0L34.7,81.6L34.2,80.9L32.6,78.0L31.2,76.2L28.8,73.8L26.0,71.5L25.0,71.0L23.1,69.6L22.7,69.5L22.3,69.2L22.0,69.2L20.2,68.3L19.3,68.2L17.7,67.5L16.2,67.3L15.1,66.9L13.7,66.8L12.9,66.3L12.9,65.9L14.7,63.6L17.2,61.5L18.5,60.7L20.3,60.2L24.0,60.2L24.6,60.5L25.3,60.6L26.9,61.5L27.7,61.8L28.4,62.3L29.9,62.7L31.1,62.7L32.0,62.3L32.7,61.8L33.7,60.0L34.0,59.1L34.0,58.1L34.4,57.1L34.4,53.0L34.4,51.9L34.8,50.6L34.9,49.3L35.2,48.5L35.8,45.5L37.7,40.6L40.1,35.9L42.6,32.1L44.8,29.5L47.3,27.0L49.9,24.7L53.5,22.1L54.1,21.9L55.1,21.2L55.8,21.0L56.0,20.8L59.7,19.0L60.0,19.0L63.3,17.7L63.8,17.6L64.9,17.2L65.4,17.2L66.9,16.8L70.0,16.3L71.0,16.3L71.8,16.2L74.1,16.0Z" fill="#000" fill-rule="evenodd"/>
</svg>