<svg xmlns="http://www.w3.org/2000/svg" viewBox="0 0 128 128" width="128" height="128">
  <path d="M56.4,9.6L55.7,9.9L54.0,10.0L53.1,10.3L51.9,10.5L47.1,11.9L45.2,12.6L44.7,12.7L43.9,13.1L41.8,13.9L37.0,16.3L35.9,17.1L34.8,17.7L33.7,18.5L32.1,19.5L28.2,22.6L25.3,25.5L22.5,28.5L21.8,29.6L21.3,30.0L20.7,31.0L20.1,31.6L19.5,32.5L18.8,33.4L18.7,33.7L17.7,35.3L15.7,38.9L13.2,44.4L11.8,48.6L10.9,52.5L10.5,55.1L10.2,56.0L10.1,57.4L9.9,58.7L9.7,63.2L9.7,66.0L10.1,71.2L10.3,72.1L10.9,76.4L12.5,81.9L14.5,86.9L17.3,92.4L20.6,97.3L24.3,101.8L29.3,106.6L31.2,107.9L32.4,109.0L37.0,112.0L39.5,113.2L39.9,113.6L42.1,114.6L43.0,114.9L44.8,115.8L45.8,116.1L47.1,116.6L51.5,117.8L51.9,118.1L52.5,118.2L56.4,118.6L59.4,118.6L60.4,118.8L62.9,118.8L64.4,119.0L67.7,119.0L68.8,119.1L70.7,119.1L73.2,118.9L73.9,118.6L75.2,118.5L77.8,117.7L78.8,117.6L84.2,115.8L85.8,115.0L86.0,115.0L87.8,114.2L91.4,112.4L92.4,111.6L94.1,110.7L94.5,110.3L94.9,110.2L100.0,106.2L105.0,101.2L107.6,98.0L110.5,93.7L113.5,88.2L113.8,87.3L114.3,86.4L115.1,84.7L115.1,84.4L115.9,82.4L116.5,79.9L116.8,79.3L117.9,74.5L118.7,67.6L118.7,62.8L118.1,56.8L117.8,55.6L117.5,53.2L116.9,51.4L116.7,49.8L114.9,44.4L113.5,41.2L113.0,40.3L112.8,39.7L112.0,38.1L111.3,37.0L110.6,35.8L108.2,32.0L107.0,30.5L106.4,29.5L105.8,29.0L104.8,27.7L101.5,24.3L98.3,21.5L95.7,19.5L93.1,17.7L92.5,17.4L90.3,16.0L86.6,14.1L85.8,13.9L85.4,13.6L83.2,12.7L78.0,11.0L74.3,10.1L67.7,9.2L60.6,9.2L59.0,9.5Z M95.4,24.4L95.7,24.7L95.7,24.9L95.0,26.3L93.1,29.7L91.7,31.7L89.6,33.7L88.7,34.1L87.7,34.1L87.0,34.2L85.0,36.7L80.8,40.8L80.5,41.2L80.5,41.6L81.2,41.6L83.6,40.7L86.0,40.3L86.4,40.0L87.1,39.9L87.6,39.9L89.0,39.5L92.3,39.5L92.7,39.6L92.8,40.2L91.0,41.7L89.3,42.7L88.6,43.2L87.5,43.8L86.7,44.0L86.4,44.3L85.7,44.4L84.2,45.2L82.9,45.3L81.7,45.5L80.9,45.3L79.9,44.5L79.6,44.0L79.6,42.9L79.4,42.7L79.1,42.7L78.0,43.8L75.1,45.9L72.2,47.5L69.7,48.5L67.7,49.4L67.5,49.8L67.5,50.1L67.7,50.4L67.8,51.9L68.3,53.5L68.6,55.6L69.4,58.8L69.7,59.2L70.3,59.4L72.2,59.4L74.0,59.3L77.3,59.3L81.2,58.9L82.9,58.9L86.9,58.5L88.3,58.5L89.3,58.3L92.7,58.0L95.3,57.7L95.7,57.6L99.4,57.2L102.3,56.6L103.9,56.4L105.1,56.1L106.0,56.0L108.8,55.3L109.0,55.1L109.9,55.1L111.5,54.6L112.5,54.5L113.0,54.3L113.5,54.3L113.8,54.5L113.6,55.1L112.6,56.8L112.2,57.2L112.0,57.8L111.3,58.6L111.0,59.3L110.3,60.0L110.0,60.7L108.6,62.7L107.9,63.4L107.3,64.3L106.0,65.9L105.0,67.5L103.5,69.2L102.2,70.5L100.8,72.0L100.5,72.2L98.6,74.0L98.1,74.2L95.4,76.6L94.3,77.1L93.5,77.8L90.1,80.0L88.3,80.7L86.6,81.8L84.5,82.7L83.9,82.8L83.3,83.1L82.6,83.2L81.8,83.6L81.0,83.8L79.1,84.5L77.3,84.8L75.0,85.4L73.2,85.6L70.5,85.8L70.4,87.1L70.8,89.3L71.0,91.3L71.1,91.6L71.3,93.3L71.6,94.7L71.7,96.3L72.0,97.8L72.1,99.0L72.5,100.8L72.5,101.3L72.2,101.7L67.3,101.7L59.8,101.3L51.8,101.0L51.2,100.5L51.2,99.7L51.6,98.9L51.7,97.9L52.1,97.1L52.8,93.9L53.7,90.7L53.8,89.9L54.5,87.6L54.5,86.6L53.3,86.1L52.0,85.9L51.4,85.6L49.3,85.0L48.8,84.7L46.8,84.0L46.3,83.7L45.8,83.6L45.5,83.4L43.8,82.7L41.8,81.8L41.4,81.4L40.3,80.9L39.7,80.4L38.2,79.8L37.7,79.4L35.3,78.0L33.4,76.7L31.1,74.9L29.3,73.2L29.0,73.1L26.7,70.7L25.7,69.4L23.1,66.4L23.0,66.1L21.8,64.5L21.6,63.8L20.6,62.9L19.9,61.7L19.5,61.2L18.8,59.7L18.6,59.5L17.9,58.1L16.8,56.4L16.2,55.1L15.8,54.0L15.6,53.7L15.6,53.4L15.8,53.2L16.3,53.2L17.9,53.6L20.4,53.9L26.0,55.0L28.1,55.1L29.1,55.4L33.4,55.9L35.6,56.3L39.1,56.5L41.2,56.9L42.6,56.9L45.4,57.3L48.6,57.4L49.5,57.6L51.4,57.8L55.6,57.9L59.4,58.2L61.2,58.2L61.8,58.0L62.2,57.4L62.2,57.1L63.2,54.2L63.3,53.6L64.1,51.8L64.4,50.4L64.2,50.2L63.6,50.1L59.9,50.7L56.5,50.7L56.2,50.6L55.9,50.4L55.9,50.1L56.2,49.8L56.5,49.8L59.4,49.8L60.1,49.7L60.9,49.7L64.4,49.0L65.0,48.1L65.1,47.6L65.5,46.6L65.6,45.9L66.1,44.7L66.4,44.7L66.6,44.9L67.1,47.4L67.5,47.8L68.1,47.8L69.6,47.3L71.0,46.7L71.7,46.5L75.6,44.3L77.7,42.7L82.1,37.9L82.1,37.5L81.9,37.3L81.4,37.2L80.6,36.6L80.4,36.2L80.4,35.4L80.5,35.0L80.6,33.7L80.9,32.9L81.3,30.9L82.5,27.7L83.4,25.9L83.9,25.5L84.3,25.5L84.4,25.7L84.4,26.6L84.6,27.2L84.5,29.0L84.6,31.4L84.0,33.3L83.8,33.7L83.6,34.6L82.8,35.9L82.8,36.3L83.0,36.6L83.3,36.6L84.5,35.5L86.1,33.7L86.4,33.1L86.5,32.2L86.9,31.2L89.4,28.4L92.4,25.9L94.1,24.9L94.7,24.6Z" fill="#000" fill-rule="evenodd"/>
</svg>