<svg xmlns="http://www.w3.org/2000/svg" viewBox="0 0 128 128" width="128" height="128">
  <path d="M91.8,62.9L89.3,63.5L88.5,63.9L87.6,64.0L84.3,65.8L82.1,67.5L79.9,69.7L79.2,70.7L78.6,71.4L76.8,74.6L75.8,77.4L75.7,78.2L75.2,80.2L75.0,82.5L75.2,85.8L75.6,87.3L75.9,89.5L76.9,92.0L78.4,94.8L79.4,96.4L80.0,96.9L80.5,97.6L83.1,100.0L86.8,102.3L88.1,102.8L91.1,103.7L92.1,104.0L94.2,104.2L96.9,104.2L98.7,104.0L102.1,103.1L104.1,102.3L106.0,101.2L106.3,101.1L108.4,99.5L110.0,98.0L112.3,95.0L114.0,91.9L115.1,88.6L115.6,85.4L115.6,81.5L115.4,80.3L114.9,77.9L114.3,76.1L113.9,75.2L112.9,73.4L112.8,72.9L111.0,70.1L108.0,67.3L107.3,66.6L106.1,66.0L105.7,65.7L104.7,65.2L104.0,64.7L99.6,63.1L96.4,62.7L94.3,62.7L93.8,62.8Z M110.3,94.8L110.3,95.3L108.8,97.1L107.1,98.7L105.6,99.7L105.3,99.8L105.0,100.1L103.2,101.0L102.0,101.4L101.1,101.9L98.5,102.5L98.2,102.3L98.2,102.0L101.3,98.5L101.9,97.7L102.3,96.9L103.2,95.7L103.6,95.0L104.0,94.6L104.6,94.4L109.2,94.4L110.0,94.4Z M101.3,94.4L101.6,94.8L101.5,95.4L100.3,97.4L98.9,99.0L97.1,100.7L96.8,100.8L96.4,100.8L96.1,100.4L96.1,99.6L96.1,95.4L96.2,94.8L96.7,94.3L100.7,94.3Z M88.7,94.3L89.1,94.1L93.5,94.1L94.1,94.3L94.4,94.6L94.5,94.9L94.5,100.5L94.1,101.0L93.7,101.0L93.0,100.6L91.3,99.0L90.1,97.6L89.3,96.5L88.5,95.1L88.5,94.5Z M80.3,94.4L80.8,94.1L84.8,94.0L85.8,94.1L86.2,94.4L86.9,95.3L87.1,95.8L87.9,96.7L88.5,97.9L89.9,99.7L91.6,101.4L91.9,102.0L91.6,102.3L90.1,102.0L88.5,101.4L87.9,101.1L87.7,101.1L86.2,100.2L85.8,100.1L83.4,98.4L81.5,96.7L80.3,94.9Z M106.8,84.8L107.9,84.6L112.1,84.6L113.5,84.8L113.9,85.1L113.9,86.5L113.7,87.9L113.5,88.3L113.3,89.2L112.6,91.1L112.2,92.0L111.7,92.4L111.4,92.6L106.3,92.6L105.7,92.5L105.3,92.3L105.1,91.8L105.5,90.6L106.0,87.4L106.3,86.8L106.3,85.6L106.5,85.2Z M96.7,84.5L103.5,84.5L104.2,84.6L104.6,84.9L104.7,85.3L104.7,85.8L104.6,86.4L104.6,87.4L104.3,88.8L103.3,91.9L102.7,92.4L101.7,92.6L97.0,92.5L96.4,92.2L96.1,91.4L96.1,86.6L96.3,85.0Z M85.4,84.7L85.8,84.3L87.7,84.2L92.1,84.2L94.0,84.5L94.3,84.8L94.5,85.5L94.4,91.7L94.2,92.1L93.8,92.4L93.4,92.5L88.0,92.5L87.2,92.3L86.8,91.8L85.8,89.1L85.8,88.7L85.4,86.8Z M76.7,84.5L77.2,84.2L83.3,84.2L83.8,84.7L84.4,88.5L85.1,90.9L85.2,92.0L84.8,92.3L84.1,92.4L81.5,92.3L79.8,92.4L78.8,92.2L78.4,91.8L77.2,89.2L77.2,88.6L76.9,87.8L76.8,86.5L76.6,85.8L76.6,84.8Z M105.1,73.7L105.8,73.6L110.6,73.6L111.5,74.0L112.0,74.6L112.6,75.8L113.9,80.1L114.0,82.7L113.7,83.0L113.1,83.2L109.7,83.1L108.0,82.9L107.0,82.9L106.6,82.5L106.4,82.2L106.3,80.8L106.1,79.9L106.0,78.2L105.5,76.8L105.4,76.1L104.8,74.6L104.8,74.0Z M102.0,73.5L102.9,74.3L103.1,75.1L103.5,75.6L104.0,76.6L104.0,77.2L104.3,77.9L104.6,79.6L104.8,80.5L104.8,82.0L104.6,82.6L103.8,82.9L103.0,83.0L97.4,82.9L96.7,82.7L96.3,82.0L96.2,80.0L96.1,79.3L96.3,74.0L96.6,73.7L97.1,73.6L100.0,73.5L100.8,73.3L101.6,73.3Z M87.6,73.6L88.6,73.3L93.1,73.4L93.8,73.5L94.4,74.0L94.6,75.3L94.4,77.4L94.5,81.3L94.4,82.0L93.8,82.7L86.2,82.7L85.5,82.4L85.3,82.2L85.2,80.9L85.8,77.4L86.8,75.2L86.9,74.3L87.1,74.0Z M85.1,73.5L85.3,73.8L85.4,74.3L84.8,76.2L84.7,77.1L84.1,79.1L83.9,81.3L83.6,82.2L82.9,82.7L77.9,82.7L77.1,82.5L76.6,81.9L76.8,79.2L77.6,76.3L78.9,73.8L79.2,73.5L79.8,73.3L82.1,73.2Z M96.6,65.7L96.8,65.7L97.7,66.3L99.1,67.6L100.1,69.0L101.3,71.0L101.4,71.9L101.3,72.0L97.5,72.0L96.7,71.9L96.4,71.5L96.3,70.0L96.1,69.3L96.3,68.4L96.3,66.2Z M94.1,65.4L94.4,65.7L94.5,66.2L94.6,68.3L94.5,70.9L94.3,71.6L93.9,71.9L93.3,72.0L91.8,72.0L90.8,71.9L89.3,71.9L88.9,71.8L88.7,71.6L88.8,70.6L89.5,69.8L89.9,69.0L90.9,68.0L91.8,66.8L92.1,66.7L93.6,65.4Z M91.2,65.0L91.1,65.4L90.7,65.9L90.5,66.3L89.5,67.3L87.8,69.3L87.7,69.7L87.3,70.2L86.9,70.9L86.2,71.7L82.5,71.9L82.0,71.8L81.3,71.8L80.9,71.5L80.9,71.2L81.2,70.6L83.1,68.6L87.1,65.9L89.4,65.0L91.0,64.8Z M98.7,65.0L99.1,64.7L100.6,65.0L101.0,65.2L102.2,65.4L103.0,66.0L104.0,66.3L104.7,66.9L105.9,67.6L107.9,69.2L109.0,70.3L109.8,71.5L109.7,71.8L109.5,72.0L109.2,72.1L105.9,72.1L104.0,71.9L103.5,71.6L102.7,70.1L101.1,68.3L101.0,67.9L100.5,67.3L99.9,66.4L98.7,65.3Z M118.1,48.1L117.1,46.5L115.2,44.6L113.0,43.6L110.1,42.9L106.5,42.9L104.3,43.2L103.6,43.4L102.4,43.5L101.4,43.8L100.8,43.8L99.7,44.1L98.7,44.5L95.4,45.1L93.5,45.7L91.3,46.1L89.1,46.0L88.1,45.5L87.5,44.8L87.3,43.6L87.4,41.4L87.6,39.9L88.1,38.8L88.1,38.2L89.2,34.7L91.0,31.2L93.0,28.0L94.8,25.9L96.7,24.0L96.8,23.4L96.4,23.0L95.8,23.0L95.1,23.3L91.8,26.1L91.1,26.5L88.4,28.9L86.9,29.9L83.3,33.6L81.1,36.1L79.3,37.9L79.2,38.1L78.7,38.5L76.4,41.2L75.8,42.2L75.4,42.5L75.2,42.2L75.2,41.5L75.6,39.8L76.0,38.4L76.4,36.3L76.9,34.9L77.7,31.5L78.9,28.9L79.0,28.1L79.7,26.5L79.9,24.3L79.2,23.5L78.6,23.0L76.9,22.5L74.6,22.5L71.8,23.0L70.3,23.7L68.9,24.2L67.3,25.0L66.7,25.2L66.3,25.6L65.0,26.2L63.4,27.4L61.5,28.5L61.1,28.9L60.4,29.3L51.4,36.7L45.6,42.1L45.4,42.5L44.1,43.8L43.6,44.1L43.1,44.8L41.7,46.1L41.5,46.5L40.2,47.7L36.3,52.0L35.6,53.1L34.2,54.4L32.9,56.2L31.0,58.2L30.3,59.3L29.1,60.7L28.4,61.7L27.7,62.3L25.6,65.1L22.7,68.7L22.3,69.5L20.7,71.3L19.5,73.2L17.2,76.1L16.5,77.2L15.2,78.9L14.6,80.1L13.1,82.1L11.2,85.1L10.8,85.5L9.2,87.9L9.2,88.6L9.6,88.7L10.8,88.0L11.8,87.5L13.7,86.2L14.1,86.2L14.3,85.9L15.1,85.5L16.2,84.8L16.7,84.5L17.0,84.2L19.3,83.1L19.5,82.9L20.9,82.2L22.3,81.2L25.7,79.5L27.1,79.0L29.6,77.8L31.3,77.2L33.9,76.1L34.9,75.9L35.2,75.6L36.2,75.4L38.2,74.6L39.8,74.3L40.5,73.9L41.4,73.7L42.3,73.3L43.1,73.3L43.2,73.1L45.1,72.6L46.1,72.6L47.6,72.2L49.3,72.0L51.1,71.6L53.3,71.4L54.8,71.0L58.4,71.0L61.0,71.7L62.6,72.6L63.0,73.2L63.4,73.9L63.6,74.6L63.6,75.3L63.4,76.6L63.1,77.3L63.0,78.1L62.3,79.9L61.7,81.2L61.7,81.5L61.3,82.2L60.9,83.5L59.4,86.5L59.4,87.0L58.7,88.5L58.3,89.0L56.9,92.0L56.6,92.4L55.5,94.7L54.8,95.6L54.2,97.1L49.4,105.1L49.3,105.6L49.4,105.7L49.8,105.7L51.9,104.7L53.2,104.2L55.4,103.1L56.8,102.2L60.8,100.3L61.2,100.0L63.5,99.0L67.0,97.2L67.2,97.0L68.4,96.4L68.6,96.4L68.9,96.1L69.3,96.0L70.6,95.2L72.1,94.6L73.0,93.8L73.1,92.4L72.8,90.2L72.8,84.0L73.3,81.5L73.3,80.8L73.6,78.6L75.1,74.0L77.0,70.6L77.6,70.0L78.4,69.0L80.7,66.6L81.0,66.4L82.0,65.3L83.2,64.6L83.5,64.4L84.2,63.9L85.8,63.3L86.7,62.7L88.6,62.0L89.6,61.8L90.9,61.4L94.4,60.9L98.1,61.0L99.1,61.4L101.4,61.7L103.5,62.6L104.3,62.8L107.3,64.5L107.7,65.0L108.2,65.2L110.0,66.6L111.3,67.8L115.7,72.6L116.3,72.6L116.6,72.2L116.9,70.6L117.4,69.3L117.6,68.0L118.1,65.6L118.1,64.9L118.6,62.8L118.7,60.4L119.0,59.2L119.1,53.8L118.7,51.5L118.6,49.8L118.3,49.3Z" fill="#000" fill-rule="evenodd"/>
</svg>