<svg xmlns="http://www.w3.org/2000/svg" viewBox="0 0 128 128" width="128" height="128">
  <path d="M63.9,18.9L62.1,19.5L61.0,20.3L60.2,21.1L60.2,21.4L59.3,22.7L59.0,25.1L58.5,27.1L57.9,31.7L57.3,33.9L56.6,38.6L56.3,39.6L56.1,40.9L55.4,43.9L54.9,47.0L54.3,49.3L54.3,49.9L54.1,50.5L53.7,50.9L53.1,50.9L52.0,50.2L50.5,49.6L49.8,49.2L46.6,48.2L44.4,48.1L42.5,48.7L41.0,49.6L40.7,49.6L39.0,50.9L36.6,52.3L36.2,52.6L35.2,53.2L34.7,53.6L34.6,53.6L33.3,54.5L32.8,54.8L30.5,56.3L29.9,56.6L28.8,57.3L27.2,58.1L25.2,59.5L24.4,59.9L24.0,60.3L23.5,60.5L22.9,60.9L22.4,61.2L20.1,62.8L17.5,64.2L16.8,64.8L16.1,65.2L14.2,66.5L12.5,67.5L11.1,68.5L10.0,69.6L9.6,70.4L9.3,71.2L9.2,72.7L9.8,73.7L10.8,74.4L11.7,74.6L14.9,74.5L18.1,74.1L19.5,73.7L20.2,73.7L22.1,73.3L22.9,73.3L27.7,72.5L28.4,72.5L29.5,72.2L31.2,72.1L32.0,71.8L35.7,71.6L36.5,71.3L39.8,71.3L40.5,71.3L43.2,72.1L48.4,74.1L49.1,74.7L49.3,75.1L49.3,75.7L48.5,78.7L48.3,80.8L47.6,82.8L47.5,84.7L47.1,86.0L47.0,87.3L46.5,89.0L46.5,90.0L45.9,92.2L45.7,93.6L45.1,95.7L44.3,100.5L44.1,101.1L44.0,102.0L43.7,103.2L43.4,104.9L43.3,107.0L43.7,108.0L44.1,108.3L44.8,108.7L46.7,109.0L56.4,108.9L59.5,109.1L74.9,109.3L79.6,109.5L80.9,109.4L81.4,109.2L81.9,108.8L82.5,108.1L82.7,107.2L82.8,105.5L82.4,103.2L82.4,102.0L81.6,97.7L81.6,96.6L81.5,96.1L81.4,94.7L81.2,94.0L81.1,92.1L80.8,90.7L80.5,88.2L80.4,87.7L80.3,86.4L79.9,84.0L79.8,82.5L79.6,82.0L79.6,81.2L79.4,80.3L79.3,78.4L78.9,76.5L78.9,75.5L80.0,74.7L81.0,74.6L81.6,74.2L82.7,74.1L83.2,73.8L84.2,73.7L85.0,73.3L85.8,73.2L86.5,72.9L91.4,72.9L93.0,73.3L93.5,73.3L93.7,73.5L95.4,73.7L96.1,73.9L96.7,73.9L98.7,74.4L99.7,74.5L102.2,75.1L103.8,75.4L104.4,75.6L106.0,75.9L106.6,76.1L108.3,76.3L109.1,76.6L110.6,76.8L111.7,77.1L113.1,77.2L115.0,77.6L116.9,77.6L118.0,77.2L118.8,76.2L119.0,75.5L119.0,74.1L118.8,73.6L118.3,72.8L115.5,70.5L113.5,69.2L111.1,67.2L109.8,66.5L108.8,65.6L107.4,64.7L106.3,63.8L104.6,62.8L103.0,61.5L102.6,61.4L101.3,60.3L98.2,58.2L97.4,57.5L95.6,56.4L94.2,55.2L91.9,53.8L91.1,53.0L87.0,50.1L85.2,49.6L82.8,49.6L81.4,50.0L80.1,50.6L79.6,50.7L79.1,51.0L78.6,51.1L76.7,52.0L75.9,52.0L75.6,51.7L75.1,48.3L75.1,47.1L74.9,45.8L74.9,44.9L74.4,40.8L73.4,35.9L73.3,33.9L73.0,32.5L72.7,29.5L71.5,22.9L70.6,21.0L69.7,20.0L67.8,19.0L67.0,18.9Z M88.3,66.1L88.6,65.9L89.0,65.9L89.4,66.4L89.4,66.6L89.0,66.8L88.5,66.8L88.4,66.7Z M65.6,23.0L66.3,23.2L67.2,24.2L67.4,25.1L67.4,25.6L67.0,26.5L66.3,27.1L65.7,27.3L64.9,27.3L64.3,27.0L63.5,26.2L63.3,25.4L63.4,24.5L63.8,23.7L64.4,23.2Z" fill="#000" fill-rule="evenodd"/>
</svg>