<svg xmlns="http://www.w3.org/2000/svg" viewBox="0 0 128 128" width="128" height="128">
  <path d="M107.7,47.4L106.7,48.0L106.1,48.8L105.8,50.0L105.9,51.2L106.3,52.0L107.0,52.6L107.9,53.0L109.2,53.1L110.1,52.7L111.0,51.7L111.4,50.8L111.3,49.4L110.8,48.4L109.9,47.6L109.1,47.3Z M12.0,32.4L11.1,34.1L9.9,37.7L9.8,38.5L9.4,39.8L9.1,42.9L9.2,45.6L9.8,49.1L11.1,52.9L11.9,54.7L12.6,55.6L12.8,56.2L14.2,57.8L14.4,58.3L16.7,60.7L18.5,62.2L19.0,62.8L21.9,64.8L22.9,65.3L24.7,66.5L26.0,67.1L26.3,67.3L28.6,68.5L29.6,69.1L31.0,69.8L32.1,70.6L32.7,70.9L34.8,72.4L37.3,74.9L38.6,77.1L39.2,78.9L39.5,80.6L39.5,82.4L39.4,83.8L38.6,86.2L37.5,88.3L35.9,90.4L33.6,93.0L33.3,93.2L30.0,96.4L28.4,97.8L28.0,98.3L28.0,98.6L28.6,98.6L29.0,98.4L29.8,98.2L30.3,97.9L30.7,97.9L31.7,97.4L32.2,97.3L32.6,97.1L33.9,96.8L34.2,96.6L35.0,96.5L37.5,95.7L40.5,95.2L41.4,94.9L44.8,94.4L46.1,94.1L47.2,94.1L50.2,93.6L56.8,93.6L58.0,93.8L59.2,93.8L63.2,94.3L64.6,94.6L69.5,95.3L70.4,95.6L72.3,95.7L72.6,95.9L74.3,96.1L75.0,96.4L77.6,96.8L83.0,98.2L83.6,98.2L83.9,98.3L86.5,98.8L87.8,98.9L89.0,99.1L93.3,99.4L96.7,99.4L98.2,99.1L99.9,99.0L101.7,98.6L102.1,98.4L102.8,98.3L103.9,97.9L106.3,96.5L107.8,95.3L109.7,93.2L110.5,92.1L111.4,90.4L112.6,87.4L112.8,85.3L113.2,83.8L113.1,77.4L112.8,76.4L112.6,73.2L112.2,70.8L112.2,69.8L112.0,68.5L111.9,65.9L111.6,64.0L111.6,62.4L111.9,59.7L112.4,58.7L113.1,58.0L113.3,57.9L115.4,57.9L117.7,58.2L118.5,58.2L118.8,57.4L119.0,53.8L118.6,53.5L116.0,53.2L115.5,52.9L115.5,52.1L116.1,48.9L116.1,45.9L115.7,43.4L114.8,41.5L113.5,39.6L112.6,38.7L110.9,37.4L109.1,36.5L106.6,35.8L102.6,35.7L100.3,36.2L97.4,37.6L95.6,38.9L94.1,40.5L93.3,41.9L93.0,42.2L92.3,43.4L92.0,44.3L91.2,45.9L90.6,47.9L90.2,48.7L89.7,50.5L89.5,50.7L88.9,53.3L88.0,55.6L87.3,58.3L86.0,61.5L84.8,63.7L83.4,65.6L82.2,66.9L80.6,68.0L79.0,68.7L77.4,69.1L74.8,69.3L73.3,69.1L72.0,68.8L70.2,68.0L69.1,67.2L68.1,66.2L67.4,65.2L66.5,63.2L66.3,62.4L66.3,60.7L66.7,58.9L67.4,57.6L68.8,56.0L69.6,55.5L69.8,55.5L70.5,55.1L71.9,55.0L73.3,55.5L74.1,56.1L74.7,56.8L74.9,57.4L75.3,57.8L75.9,57.8L78.0,57.0L79.4,56.0L81.2,54.3L82.2,52.9L83.4,50.0L83.9,47.7L84.0,45.1L83.6,42.4L82.7,39.5L81.5,37.0L79.9,35.0L77.8,33.1L76.7,32.4L76.1,31.9L74.2,30.8L72.5,30.2L72.0,29.9L70.6,29.5L69.0,29.3L68.4,29.0L65.7,28.9L62.6,29.0L61.7,29.3L60.5,29.4L59.7,29.7L57.6,30.0L55.6,30.7L55.0,30.7L53.2,31.4L52.1,31.6L51.9,31.8L49.4,32.4L49.1,32.7L46.8,33.2L43.7,34.3L42.7,34.4L40.2,35.2L38.4,35.3L37.4,35.6L34.5,35.9L31.6,35.9L28.2,35.6L27.6,35.3L26.0,35.1L22.0,33.8L18.9,32.3L17.3,31.1L16.6,30.5L15.2,28.9L14.8,28.9L14.4,29.2L13.2,30.7Z M13.8,31.4L14.0,31.0L14.3,30.9L14.7,31.4L14.7,31.8L15.4,33.9L16.2,35.6L18.3,38.9L20.7,41.3L23.6,43.4L25.7,44.6L28.4,45.6L31.5,46.3L35.6,46.7L38.0,46.7L41.2,46.5L42.7,46.2L44.7,46.0L46.7,45.6L46.9,45.5L49.1,44.9L49.8,44.6L51.0,44.3L52.5,43.7L53.7,43.4L55.6,42.5L56.4,42.3L57.1,41.9L59.5,41.1L63.0,40.2L65.6,39.9L68.9,40.0L71.6,40.5L73.4,41.4L75.2,42.6L76.6,44.0L77.4,45.1L78.5,47.1L79.0,49.0L79.0,51.6L78.8,53.0L78.1,55.0L77.6,55.6L77.4,56.0L76.0,57.0L75.5,57.0L75.2,55.0L74.5,53.4L73.3,52.0L71.6,50.8L70.6,50.4L68.7,50.0L67.2,50.0L65.1,50.4L64.6,50.8L63.8,50.9L61.9,52.0L60.2,53.3L58.9,54.7L57.6,56.6L56.8,58.5L56.3,60.0L55.8,62.8L55.8,65.6L56.0,67.2L56.5,68.9L58.0,72.3L59.6,74.8L62.1,77.4L63.0,78.0L63.3,78.1L63.7,78.5L64.4,78.8L65.2,79.4L65.8,79.6L67.3,80.4L71.1,81.3L72.9,81.4L74.0,81.7L77.1,81.6L78.9,81.3L81.1,80.8L83.6,79.8L85.9,78.5L88.4,76.7L90.0,75.1L92.0,72.7L93.3,70.5L94.3,68.5L94.5,67.7L94.8,67.2L94.9,66.7L95.2,66.1L96.5,62.3L96.7,61.1L97.1,60.0L97.6,57.5L98.0,56.2L98.6,53.5L98.9,52.6L99.4,50.2L100.5,47.7L101.5,46.2L103.0,44.7L104.5,44.1L105.9,43.7L107.4,43.6L109.1,43.8L110.5,44.4L111.6,45.0L112.8,46.3L113.6,47.7L114.3,49.9L114.3,52.5L114.2,53.4L114.0,54.2L114.0,54.9L113.6,56.1L113.3,56.4L112.1,56.9L111.6,57.4L111.1,58.3L110.7,59.9L110.7,70.7L110.6,75.7L110.3,78.6L110.0,79.2L109.5,82.1L109.0,83.4L108.3,84.9L107.1,86.6L105.7,88.3L104.6,89.3L102.9,90.6L101.2,91.5L99.2,92.1L99.1,92.3L97.1,92.8L96.0,92.9L95.7,93.1L95.0,93.1L94.1,93.3L89.5,93.5L88.4,93.6L85.0,93.6L83.8,93.4L81.4,93.4L79.8,93.1L76.2,92.8L75.3,92.6L71.3,92.4L69.9,92.0L68.8,92.0L65.2,91.6L64.2,91.6L59.0,91.4L53.9,91.6L52.3,91.9L50.9,92.0L50.2,92.2L49.2,92.3L48.6,92.5L47.1,92.6L41.1,93.9L40.5,94.1L40.1,94.1L39.0,94.5L38.0,94.7L37.3,95.0L36.6,95.1L35.8,95.5L35.1,95.6L34.6,95.9L33.8,96.1L33.2,96.4L32.5,96.5L30.7,97.3L30.4,96.9L31.0,96.4L33.1,95.1L33.8,94.5L34.2,94.3L36.1,92.8L37.1,92.2L40.7,89.1L42.5,87.1L44.7,83.7L45.3,82.3L46.0,80.4L46.4,78.0L46.4,74.6L46.2,73.1L45.7,71.1L45.3,69.8L44.4,68.4L44.3,68.1L43.6,67.2L42.1,65.4L39.8,63.2L35.0,59.9L34.3,59.7L32.3,58.4L26.6,55.5L23.0,53.3L19.9,51.0L16.4,47.4L15.6,46.3L15.3,45.6L14.9,45.1L14.0,43.4L14.0,43.0L13.4,41.8L12.9,40.0L12.7,38.0L12.7,36.3L13.2,33.3Z" fill="#000" fill-rule="evenodd"/>
</svg>