<svg xmlns="http://www.w3.org/2000/svg" viewBox="0 0 128 128" width="128" height="128">
  <path d="M55.5,9.0L52.4,9.2L50.5,9.6L49.5,9.7L48.3,10.1L47.8,10.1L46.1,10.9L45.0,11.9L44.2,13.0L43.1,15.5L42.5,17.1L42.0,17.7L40.6,18.0L37.7,18.1L37.4,18.3L37.5,18.6L38.7,19.0L39.9,19.7L40.8,20.6L40.9,21.0L40.4,21.5L38.7,22.3L37.0,22.7L36.9,23.0L38.7,23.5L40.4,23.6L40.7,23.9L40.7,24.1L40.2,24.9L39.3,25.9L37.5,28.3L35.7,30.4L34.7,32.1L33.9,33.8L33.6,35.0L33.6,35.8L34.0,37.1L34.6,38.3L35.7,39.2L36.1,39.4L37.2,39.7L38.0,39.6L39.1,39.2L40.4,38.0L41.9,36.0L42.2,36.0L42.4,36.2L42.2,40.3L42.2,46.2L42.3,48.1L42.7,50.6L42.9,51.2L43.2,52.9L43.4,53.3L43.5,53.9L43.9,55.2L44.7,56.9L45.1,57.5L45.2,57.8L46.2,59.6L47.8,61.7L50.0,63.9L53.1,66.3L55.8,67.7L57.4,68.7L58.8,69.1L59.4,69.6L59.1,69.9L58.6,69.9L46.2,69.9L33.5,69.7L32.1,69.8L31.7,69.9L31.5,70.2L31.3,71.5L31.1,73.5L30.7,76.5L30.6,78.1L30.5,78.5L30.3,81.0L30.0,82.5L29.9,84.2L29.7,85.1L29.8,85.7L30.2,85.7L32.8,83.0L34.2,81.7L36.4,80.1L39.2,78.6L40.8,78.0L44.2,77.0L44.8,76.7L45.7,76.6L46.6,76.3L49.2,75.9L51.2,75.7L55.2,75.7L55.8,75.9L57.1,76.0L60.0,76.6L60.8,76.9L61.2,76.9L61.9,77.3L62.9,77.6L65.1,79.1L65.9,79.7L67.8,81.7L68.8,83.0L70.0,85.0L70.8,86.6L71.7,89.2L72.1,91.5L72.1,95.3L71.5,100.0L71.1,101.8L70.9,102.2L70.7,103.0L70.3,104.2L69.5,105.6L69.3,106.3L68.0,108.4L66.3,110.6L64.2,112.7L63.6,113.0L63.0,113.6L61.6,114.4L60.0,115.3L59.8,115.3L58.8,115.7L56.7,116.2L55.4,116.4L53.0,116.4L51.7,116.1L49.8,115.5L48.6,114.8L48.0,114.2L46.8,112.8L46.0,111.3L45.8,110.5L45.9,109.8L46.3,109.8L46.8,110.2L47.1,110.3L48.3,111.1L48.8,111.2L49.2,111.4L51.5,112.1L53.6,112.4L55.1,112.4L56.4,112.3L58.8,111.7L59.8,111.3L60.7,110.7L61.1,110.6L63.0,109.4L64.3,107.9L64.9,107.0L65.8,105.2L66.7,102.7L67.1,100.4L67.0,97.0L66.5,94.7L65.8,92.7L64.4,90.8L63.0,89.4L61.6,88.3L60.9,88.0L60.4,87.7L59.3,87.1L58.6,87.0L57.7,86.6L55.6,86.2L53.4,86.1L51.7,86.3L49.9,86.7L47.7,87.5L45.7,88.7L44.8,89.5L43.4,90.9L42.4,92.1L40.9,94.8L40.5,95.9L40.2,96.3L39.7,98.0L39.3,101.2L39.3,103.8L39.7,106.5L40.4,108.7L41.3,110.8L42.1,112.0L43.5,113.7L45.7,115.7L48.0,117.1L48.7,117.3L49.1,117.6L50.0,118.0L53.3,118.9L55.2,119.1L58.6,119.2L62.8,118.6L64.4,118.2L64.5,118.0L66.9,117.2L70.4,115.0L72.5,113.2L74.7,110.9L76.8,107.8L77.6,106.3L79.4,102.5L79.5,101.8L79.7,101.5L80.0,100.6L80.2,100.2L80.4,99.1L80.7,98.6L80.8,97.7L81.1,97.0L81.2,96.3L81.6,95.3L82.0,93.0L82.3,91.9L82.5,90.0L82.7,89.5L82.7,88.0L83.4,82.7L83.5,79.2L83.9,75.8L84.1,70.6L83.8,70.2L82.4,70.2L80.5,70.1L71.6,70.1L70.4,69.9L70.0,69.5L69.9,68.5L69.7,67.9L69.6,64.8L69.9,63.9L70.0,62.9L70.8,61.1L72.0,59.1L73.5,57.6L74.4,56.9L75.9,56.4L76.9,56.4L78.1,56.9L78.9,57.6L79.4,58.2L79.7,59.0L79.7,59.9L79.5,61.1L79.0,61.9L78.0,62.9L77.3,63.4L77.4,63.7L78.2,63.7L79.8,63.5L80.7,63.5L82.6,63.0L84.9,61.8L86.1,60.8L88.1,58.4L88.3,57.8L88.9,56.9L89.3,55.4L89.4,52.9L89.0,51.1L88.5,50.3L88.4,49.5L88.8,49.1L90.6,48.3L93.1,46.8L95.2,45.0L96.6,43.4L97.4,42.0L98.1,40.2L98.5,38.1L98.5,34.7L98.4,34.2L98.1,33.5L98.0,32.4L97.8,32.0L97.6,31.2L96.8,29.6L95.2,27.4L92.8,25.0L91.6,24.2L89.9,23.3L87.4,22.5L84.9,22.1L83.3,22.1L82.0,22.3L78.8,23.1L78.0,23.4L77.2,23.9L76.6,24.2L75.3,25.0L73.5,26.5L72.1,28.0L70.4,30.0L69.8,31.0L69.0,32.9L68.6,33.5L68.2,34.6L67.0,37.5L66.9,37.9L66.5,38.8L66.5,39.0L66.0,39.6L65.8,39.6L65.3,39.0L64.8,37.1L64.5,36.5L64.2,35.5L63.0,33.0L61.4,30.9L61.2,30.5L58.6,27.9L56.7,26.3L55.3,25.3L52.1,23.8L49.5,22.9L48.0,22.5L47.7,22.3L47.8,22.1L48.2,21.8L48.9,21.7L50.1,21.2L51.2,21.0L52.3,20.7L52.6,20.4L54.7,19.8L55.0,19.6L56.3,19.2L57.4,18.6L60.4,16.7L62.2,15.1L63.3,13.7L63.6,12.7L63.6,11.6L63.1,10.5L62.1,9.7L61.1,9.3L59.5,9.1Z M77.2,45.2L77.8,44.5L79.2,43.5L80.8,42.7L81.0,42.7L81.7,42.3L82.9,42.0L83.8,41.8L85.2,41.8L86.0,42.0L86.6,42.3L87.3,42.8L88.2,43.8L89.0,45.4L89.0,47.1L88.5,48.4L88.1,48.8L87.7,48.8L85.6,47.1L84.6,46.6L83.2,46.1L80.5,45.7L77.6,45.7L77.2,45.5Z" fill="#000" fill-rule="evenodd"/>
</svg>