<svg xmlns="http://www.w3.org/2000/svg" viewBox="0 0 128 128" width="128" height="128">
  <path d="M66.5,9.4L65.7,9.5L65.5,9.9L65.3,17.3L65.4,22.4L65.7,22.7L66.8,22.7L67.7,22.9L70.7,23.1L72.4,23.6L73.5,23.7L74.4,24.1L75.3,24.2L76.1,24.6L77.2,24.7L78.6,25.5L79.2,25.6L79.7,25.9L81.2,26.4L82.2,26.9L82.5,26.9L83.9,27.8L84.3,27.9L85.4,28.5L85.9,28.9L86.6,29.3L87.1,29.7L88.8,30.8L90.9,32.5L93.6,34.9L95.0,36.5L95.8,37.2L96.2,38.0L96.9,38.6L97.6,39.8L98.2,40.4L98.4,41.0L99.0,41.7L100.4,44.0L102.2,47.9L102.4,48.5L102.6,48.8L103.2,50.4L103.7,52.2L104.3,54.0L104.5,55.7L104.9,56.7L104.9,58.1L105.3,59.6L105.4,65.4L105.3,67.9L104.9,70.8L104.3,73.7L104.0,74.4L103.7,76.0L101.8,80.9L101.1,82.1L99.9,84.6L99.2,85.5L98.7,86.7L97.9,87.6L96.2,90.0L95.8,90.4L93.3,93.3L92.1,94.4L90.9,95.3L89.2,96.8L88.0,97.6L87.1,98.3L86.3,98.9L85.5,99.2L84.2,100.1L81.8,101.2L81.3,101.6L80.6,101.7L79.3,102.4L77.8,102.7L77.5,102.4L77.4,93.5L77.6,87.3L77.6,70.4L78.0,70.1L79.2,69.8L84.7,69.9L85.7,69.8L85.9,69.8L85.9,69.4L85.5,69.0L79.1,64.4L78.2,63.6L78.2,63.2L78.8,62.6L81.7,60.7L83.0,59.5L84.2,58.7L85.7,57.6L85.9,57.1L85.5,57.0L79.2,57.0L78.2,56.9L77.8,56.5L77.7,52.4L77.9,47.2L77.7,46.8L77.3,46.8L76.0,48.1L72.3,52.4L71.9,53.0L71.3,53.6L70.7,53.9L70.2,53.8L69.3,52.9L67.8,51.1L67.1,50.4L66.3,49.5L65.7,48.4L64.6,47.3L64.0,46.8L63.6,46.9L63.0,47.5L59.3,52.1L57.8,53.7L57.1,53.7L56.5,53.3L55.6,52.1L53.7,50.3L53.3,50.1L51.2,47.8L50.5,47.5L50.4,47.7L50.5,64.0L50.4,66.8L50.4,75.1L50.2,102.0L50.1,102.4L49.9,102.6L49.4,102.7L47.4,102.0L44.7,100.7L44.2,100.3L43.3,99.9L41.9,98.9L40.3,98.1L39.2,97.1L37.2,95.8L34.6,93.3L32.4,90.8L31.8,90.3L29.4,87.1L29.2,86.5L28.2,85.1L27.6,83.8L26.7,82.6L26.5,81.8L25.5,79.8L25.2,78.6L24.5,77.2L24.3,76.0L23.5,73.9L23.4,72.7L23.1,71.6L22.7,69.2L22.4,66.1L22.4,61.3L22.7,60.1L22.7,59.3L22.9,58.6L22.9,57.4L23.4,56.0L23.5,54.7L23.8,54.1L23.9,53.0L24.9,50.2L26.1,47.4L26.1,47.1L28.3,43.0L30.0,40.6L30.5,39.6L31.7,38.4L32.1,37.7L32.9,36.7L36.9,32.9L39.7,30.6L41.9,29.2L42.4,29.0L43.3,28.3L48.3,26.0L49.2,25.7L51.6,24.7L52.5,24.6L53.4,24.2L58.4,23.2L62.8,22.8L63.1,22.5L63.2,22.2L63.1,19.0L63.3,13.4L63.3,10.0L63.0,9.5L59.0,9.7L57.8,9.9L56.6,10.2L55.7,10.2L54.1,10.4L49.1,11.6L48.1,12.1L46.6,12.4L46.2,12.8L45.8,12.8L43.3,13.6L40.0,15.3L38.4,15.9L36.9,16.9L35.7,17.4L35.1,18.0L33.4,19.0L32.6,19.6L31.7,20.1L30.1,21.4L29.3,22.2L28.1,23.1L27.5,23.7L26.4,24.4L23.1,27.8L21.9,29.3L21.0,30.2L19.4,32.3L16.5,36.9L13.6,42.5L13.2,43.8L12.4,45.3L12.3,45.8L11.9,46.6L11.4,48.5L11.3,49.1L10.7,50.9L10.4,52.4L10.0,53.6L9.7,55.5L9.5,58.6L9.2,59.6L9.2,68.7L9.5,70.0L9.5,71.5L10.2,75.6L10.8,77.6L10.9,78.4L11.5,79.9L11.7,81.1L13.2,84.7L13.2,84.9L13.6,85.9L13.8,86.5L15.1,89.1L15.8,90.0L16.2,91.2L17.8,93.8L18.1,94.1L18.5,94.9L19.0,95.4L19.4,95.8L19.6,96.2L21.4,98.6L23.1,100.4L24.0,101.6L27.8,105.3L28.9,105.9L30.2,107.2L31.4,108.0L31.9,108.2L33.4,109.5L33.8,109.6L34.4,110.2L35.7,110.9L36.3,111.1L36.8,111.5L38.0,112.3L38.9,112.7L39.6,112.8L40.8,113.6L41.4,113.8L42.0,114.2L42.7,114.4L44.1,115.1L45.0,115.3L45.6,115.7L46.2,115.8L46.9,116.1L47.8,116.3L48.2,116.5L48.9,116.6L49.5,116.9L50.4,117.0L50.6,117.2L51.5,117.3L52.4,117.6L53.3,117.7L55.7,118.2L58.4,118.5L59.4,118.7L62.1,118.8L62.4,118.6L62.6,118.2L62.8,104.1L62.8,69.2L62.8,67.7L61.5,66.7L60.8,66.1L60.3,65.1L60.3,63.9L60.5,63.1L61.1,62.0L61.9,61.2L62.9,60.8L64.8,60.8L65.8,61.3L66.5,61.9L66.8,62.4L67.2,63.6L67.2,64.8L67.0,65.4L66.7,66.1L65.8,66.9L65.3,67.2L64.9,67.6L64.7,68.7L64.8,93.4L64.6,118.1L64.8,118.6L65.2,118.8L69.4,118.6L74.0,118.0L74.5,117.7L75.8,117.6L76.7,117.3L77.5,117.2L81.0,116.2L82.7,115.5L85.4,114.6L85.9,114.3L86.5,114.1L88.0,113.3L90.0,112.4L92.9,110.7L93.9,109.9L94.2,109.9L97.5,107.5L101.7,103.9L104.9,100.7L107.9,96.9L108.2,96.4L108.9,95.5L109.1,95.0L109.8,94.2L111.0,92.5L111.2,91.8L112.4,89.9L113.5,87.7L113.9,87.1L114.4,85.9L114.6,85.5L114.8,84.6L115.8,82.6L116.1,81.2L116.8,79.7L117.0,78.5L117.3,77.8L117.5,76.4L117.8,75.7L117.8,74.7L118.3,73.5L118.3,72.8L118.7,70.8L118.9,68.1L119.0,67.3L119.1,61.6L119.0,60.3L118.8,59.0L118.6,56.1L118.3,55.0L118.1,53.6L117.8,52.7L117.7,51.6L117.5,50.9L117.3,49.9L117.0,49.1L116.9,48.4L116.5,47.5L116.5,46.8L115.5,44.2L115.2,43.7L115.0,43.0L114.7,42.5L114.5,41.7L113.6,40.0L113.5,39.6L111.9,36.6L108.9,31.9L107.0,29.5L106.5,28.9L106.2,28.5L105.4,27.8L105.3,27.5L103.0,25.1L102.5,24.7L99.9,22.3L99.4,21.9L95.9,19.2L90.1,15.7L89.4,15.5L87.6,14.5L87.1,14.4L86.3,13.9L85.4,13.6L83.4,12.8L80.1,11.7L79.4,11.6L79.0,11.4L75.9,10.7L75.4,10.7L73.5,10.2L72.6,10.2L71.9,9.9L70.3,9.9L69.9,9.8L67.6,9.6Z" fill="#000" fill-rule="evenodd"/>
</svg>