<svg xmlns="http://www.w3.org/2000/svg" viewBox="0 0 128 128" width="128" height="128">
  <path d="M36.9,72.7L34.8,72.6L33.6,72.7L32.6,73.1L31.1,74.2L29.8,75.6L29.2,77.2L29.0,77.9L29.0,80.1L29.6,81.7L31.2,83.5L32.2,84.3L33.4,84.7L34.4,84.8L34.8,84.6L34.8,82.6L34.6,82.2L33.9,82.0L32.9,81.3L32.0,80.3L31.8,79.3L31.8,78.2L32.3,76.8L33.4,75.9L34.3,75.5L36.0,75.5L37.7,76.4L38.5,77.3L38.8,77.5L40.6,77.5L41.0,77.3L41.2,76.9L41.2,76.6L40.4,75.1L39.4,74.1L38.4,73.4Z M72.6,48.0L70.5,47.9L69.8,48.3L69.2,50.4L68.6,51.3L67.5,52.4L66.6,52.9L66.3,53.2L66.1,55.1L66.5,55.8L66.9,55.9L67.6,55.7L68.6,55.2L69.8,54.3L71.4,52.8L72.4,50.9L72.8,49.8L72.8,48.3Z M57.0,47.9L56.5,48.5L56.5,49.9L56.8,50.9L57.9,52.9L58.8,53.9L60.2,55.0L61.9,55.8L62.7,55.8L62.9,55.4L62.9,53.2L62.3,52.6L61.9,52.4L61.0,51.7L60.5,51.1L59.9,50.1L59.4,48.3L58.9,47.9Z M50.4,48.2L50.2,48.6L50.2,49.3L50.5,51.1L51.0,52.9L52.3,55.6L53.6,57.4L54.9,58.7L56.6,60.0L58.7,61.1L59.0,61.1L61.2,61.9L62.7,61.9L62.9,61.5L62.9,59.7L62.4,59.1L60.9,58.7L58.8,57.7L57.3,56.7L55.1,54.3L54.0,52.4L53.9,51.7L53.6,51.3L53.1,48.3L52.6,47.9L50.7,48.0Z M78.7,47.9L76.8,47.9L76.3,48.0L76.1,48.3L75.7,50.6L75.1,52.5L74.4,53.8L72.5,56.2L70.4,57.8L68.3,58.7L66.9,59.0L66.5,59.2L66.2,59.5L66.1,61.3L66.1,61.7L66.3,61.9L67.3,62.0L68.4,61.7L71.5,60.5L73.4,59.2L74.6,58.3L76.8,55.7L77.6,54.3L78.3,52.3L78.6,52.0L79.0,49.8L79.0,48.3Z M82.4,37.5L81.4,37.5L79.5,38.3L77.4,40.3L76.5,41.5L76.1,42.6L75.8,43.6L75.8,44.6L76.0,44.9L76.3,45.0L78.5,45.0L78.8,44.7L79.2,43.2L79.9,42.1L81.1,41.1L81.9,40.7L82.4,40.3L82.6,39.5L82.6,37.9Z M82.4,31.2L80.8,31.2L77.4,32.5L76.4,33.1L74.2,34.7L72.8,36.2L72.1,37.0L70.9,38.9L70.0,41.1L69.5,43.6L69.6,44.8L70.3,45.0L71.5,45.1L72.2,45.0L72.5,44.6L72.8,42.5L73.2,41.5L73.8,40.1L74.6,38.8L75.7,37.5L77.0,36.4L78.2,35.6L80.2,34.7L82.3,34.1L82.6,33.7L82.7,31.8Z M58.6,19.9L57.7,20.3L57.2,20.9L56.9,21.6L56.9,22.0L57.1,22.7L57.7,23.3L58.2,23.5L59.4,23.5L59.8,23.3L60.2,22.8L60.7,22.0L60.7,21.5L60.2,20.7L59.8,20.3L59.1,19.9Z M74.0,9.1L71.1,9.1L67.0,9.2L56.0,9.2L55.2,9.5L54.9,9.8L54.6,10.6L54.5,11.2L54.1,12.0L53.6,13.7L53.1,14.1L47.5,14.4L40.4,14.3L40.1,14.5L40.1,14.8L46.0,20.7L46.5,21.2L46.5,21.8L45.8,22.5L43.6,24.1L42.3,25.3L41.4,25.8L40.8,26.4L37.9,28.5L37.9,28.7L38.1,28.9L48.0,28.8L48.4,28.9L48.7,29.3L48.1,31.9L46.2,37.5L46.1,38.2L44.5,43.0L43.9,46.2L43.8,49.6L44.0,51.6L44.5,53.8L45.1,55.5L46.5,58.4L47.3,59.2L47.4,59.6L48.7,61.3L50.6,63.2L52.7,64.9L54.2,65.8L57.2,67.1L59.4,67.8L59.7,68.0L60.1,68.9L59.9,71.3L60.0,73.1L59.8,73.9L59.3,74.4L47.0,74.3L46.4,73.8L45.6,72.6L44.6,71.1L43.5,70.1L41.9,68.8L40.7,68.3L40.3,68.0L38.5,67.3L37.7,67.2L36.9,67.0L34.4,67.0L32.7,67.2L31.0,67.8L29.1,68.7L27.4,69.9L25.8,71.6L24.5,73.6L23.8,75.5L23.3,77.5L23.3,80.5L23.6,82.0L24.4,84.2L24.8,84.7L25.0,85.2L25.7,86.2L27.9,88.3L30.2,89.7L31.7,90.1L33.5,90.5L37.1,90.5L37.7,90.3L39.1,90.1L41.4,88.9L42.8,88.0L44.6,86.2L45.8,84.6L46.4,83.4L47.0,83.0L59.1,82.9L59.4,83.0L59.8,83.5L59.7,89.3L59.3,89.7L57.9,90.1L57.3,90.4L56.1,91.2L55.1,92.4L54.5,93.5L54.3,94.5L54.1,98.1L54.0,108.1L54.2,116.4L54.1,117.5L54.2,118.6L54.5,119.0L54.8,119.1L57.1,119.2L69.7,118.9L72.3,119.0L73.5,118.9L73.8,118.6L73.8,114.8L74.0,112.9L74.0,109.5L73.8,108.5L74.0,106.8L74.0,97.1L74.2,96.3L74.2,94.3L73.6,92.8L72.4,91.1L71.2,90.3L70.7,90.1L69.2,89.7L68.8,89.3L68.8,87.4L68.6,86.5L68.8,85.5L68.7,83.9L68.9,83.3L69.2,83.0L83.6,82.8L104.1,83.0L104.4,82.7L104.4,73.3L104.1,72.4L102.9,70.6L102.3,70.1L100.3,69.1L94.8,68.9L85.7,69.1L85.3,69.2L85.1,69.7L84.9,73.8L84.5,74.3L70.2,74.4L69.4,74.2L68.9,73.8L68.9,69.2L69.0,68.4L69.6,67.8L71.1,67.3L71.4,67.3L73.6,66.4L75.6,65.4L77.4,64.2L79.9,62.0L81.1,60.6L82.1,59.2L83.6,56.5L84.1,54.7L84.4,54.4L84.9,52.9L85.0,51.7L85.3,50.4L85.4,48.7L86.0,47.9L100.5,47.9L104.5,48.0L104.9,47.8L105.0,47.1L105.0,44.1L104.4,40.4L103.7,37.7L101.8,34.2L99.3,31.1L97.7,29.5L97.0,29.1L96.4,28.6L94.8,27.5L91.6,26.0L87.9,25.0L85.3,24.8L83.1,24.8L79.4,25.3L78.6,25.6L77.0,26.0L76.1,26.5L74.9,26.9L74.4,27.3L73.4,27.7L71.5,28.9L69.8,30.2L67.1,33.1L66.6,33.2L66.4,32.9L66.4,24.9L66.5,17.8L66.9,17.4L69.0,17.0L70.9,16.0L71.9,15.3L72.6,14.5L73.6,12.9L74.2,11.6L74.4,9.5L74.2,9.2Z M89.3,28.7L89.8,29.0L90.2,29.1L90.9,29.5L91.4,29.5L93.3,30.5L93.7,30.9L94.7,31.5L96.6,33.1L98.4,35.1L99.5,36.9L99.8,37.5L100.1,37.9L100.4,38.7L101.5,42.2L101.6,44.4L101.4,44.7L101.1,44.9L99.1,44.9L98.6,44.4L98.1,41.6L97.0,38.7L96.6,38.3L96.1,37.2L95.2,36.1L93.2,34.1L92.0,33.3L89.9,32.1L88.1,31.5L86.7,31.2L85.7,31.2L85.4,31.9L85.4,33.4L85.5,33.7L85.9,34.1L86.8,34.3L88.3,34.9L90.3,35.9L91.6,36.8L93.4,38.8L94.5,40.6L95.0,42.1L95.2,42.9L95.2,44.4L94.7,44.9L93.2,44.9L92.7,44.7L92.2,44.0L92.0,42.8L91.2,41.2L90.7,40.4L89.4,39.0L88.3,38.3L87.0,37.6L86.1,37.4L85.7,37.4L85.4,37.6L85.3,39.6L85.6,40.4L87.0,41.2L88.0,42.1L88.8,43.6L88.9,44.5L88.7,44.8L88.3,44.9L83.2,45.0L82.6,45.2L82.4,45.6L82.4,49.4L82.1,51.2L81.8,52.4L80.5,55.8L79.5,57.3L78.1,59.2L75.9,61.3L73.2,63.2L72.7,63.4L72.1,63.8L70.6,64.4L68.4,65.0L66.6,65.4L66.2,65.7L66.1,66.5L66.0,76.5L66.2,77.0L66.6,77.2L74.6,77.2L75.8,77.4L78.8,77.2L98.0,77.3L98.4,77.2L98.7,76.7L98.7,75.1L98.6,74.7L98.1,74.4L88.7,74.3L88.2,74.0L88.1,72.6L88.5,72.0L89.5,71.8L98.8,71.9L100.4,72.6L100.9,73.1L101.3,73.8L101.6,74.7L101.6,78.0L101.4,79.6L100.8,80.0L99.1,79.9L97.2,80.1L75.6,80.0L66.4,80.1L65.9,80.8L65.7,83.5L65.7,91.9L66.2,92.4L67.8,92.5L69.3,92.7L70.1,93.1L70.6,93.6L71.1,94.6L71.1,97.3L71.0,99.3L71.1,100.0L71.0,103.6L71.1,107.2L70.9,115.2L70.4,115.8L69.1,115.9L68.7,115.7L68.3,115.2L68.3,107.6L68.5,106.8L68.4,103.5L68.6,100.5L68.6,97.1L68.5,95.7L68.2,95.4L67.7,95.1L66.3,95.1L66.0,95.3L65.7,95.9L65.5,102.0L65.6,105.4L65.4,107.9L65.5,113.2L65.3,114.0L65.3,115.5L64.8,116.0L63.1,116.0L62.7,115.9L62.4,115.5L62.3,110.4L62.5,109.7L62.5,95.6L62.1,95.2L60.4,95.2L59.8,95.6L59.7,96.4L59.5,115.4L59.0,115.9L57.4,115.9L56.9,115.5L56.9,115.2L56.9,106.8L57.1,106.2L56.9,105.3L57.0,95.6L57.3,94.4L58.1,93.4L59.4,92.7L60.6,92.5L61.9,92.5L62.5,91.9L62.7,90.7L62.6,87.6L62.7,85.5L62.7,80.5L61.9,80.1L50.1,80.0L44.6,80.1L43.9,80.6L43.2,82.5L42.5,83.6L41.1,85.1L39.8,86.1L37.9,86.9L36.3,87.3L33.7,87.3L32.2,86.9L31.8,86.7L31.0,86.4L30.0,85.8L28.5,84.5L27.5,83.0L26.8,81.3L26.4,79.9L26.4,78.0L26.8,76.3L27.4,74.9L28.5,73.4L29.6,72.2L30.7,71.4L32.9,70.5L34.3,70.2L36.1,70.2L37.9,70.5L39.2,71.0L40.7,71.9L42.6,73.8L43.4,75.1L44.0,76.9L44.7,77.3L58.1,77.3L62.1,77.2L62.5,77.1L62.7,76.7L62.9,67.2L62.7,65.6L62.3,65.3L60.0,64.9L59.3,64.6L58.6,64.5L57.9,64.1L57.4,64.0L55.6,63.0L52.5,60.8L51.4,59.6L51.0,59.1L50.5,58.6L49.1,56.7L49.0,56.2L48.6,55.8L48.5,55.4L48.2,55.0L47.3,52.3L47.3,51.3L47.0,50.4L46.9,47.1L47.2,45.9L47.6,45.4L48.4,45.3L59.0,45.3L59.4,45.1L59.5,44.7L59.5,42.8L59.0,42.5L48.8,42.4L48.4,42.0L48.4,41.4L48.9,40.4L49.3,40.2L58.7,40.1L59.1,40.0L59.4,39.7L59.6,39.3L59.6,37.9L59.4,37.6L59.1,37.5L51.5,37.5L50.2,37.3L49.9,37.1L50.1,35.8L50.5,35.0L50.9,34.7L56.9,34.5L59.0,34.6L59.3,34.5L59.6,34.1L59.6,32.3L59.1,31.8L52.3,31.7L52.0,31.6L51.8,31.2L51.8,30.7L52.3,29.4L52.7,29.0L53.1,28.8L62.5,28.8L63.0,29.2L63.2,29.9L63.2,33.6L63.0,44.2L63.1,47.8L63.4,48.3L63.8,48.4L65.8,48.4L66.1,48.2L66.2,47.9L66.2,45.0L66.4,42.7L66.7,41.6L66.7,41.1L67.1,40.3L67.3,39.5L67.6,39.0L67.8,38.3L69.0,36.1L69.8,35.0L71.1,33.5L72.6,32.0L75.3,30.3L77.7,29.1L80.1,28.4L82.0,28.1L85.2,28.0L86.8,28.2L87.4,28.4Z M50.6,22.8L50.6,23.3L50.5,23.6L50.3,24.5L50.0,25.4L50.0,25.8L49.8,26.0L46.9,26.0L46.5,25.8L46.5,25.5L47.1,24.9L50.1,22.6L50.5,22.6Z M56.1,17.4L56.6,17.2L62.1,17.2L62.6,17.3L63.0,17.6L63.2,18.7L63.2,25.1L62.8,25.7L61.9,25.8L54.2,25.9L53.8,25.8L53.6,25.6L53.6,24.9L53.8,24.4L54.0,23.2L54.4,22.2L54.9,20.3L55.3,19.4L55.4,18.7L55.7,18.0L55.7,17.8Z M47.4,17.3L51.6,17.2L52.0,17.4L52.3,17.7L52.3,18.1L51.9,19.1L51.6,20.4L51.4,20.9L51.0,21.2L50.6,21.2L47.3,18.0L47.2,17.5Z M70.0,12.2L69.9,12.8L69.0,13.7L67.8,14.3L67.4,14.4L58.7,14.4L57.8,14.3L57.2,13.9L57.2,13.3L57.6,12.4L57.9,12.1L58.5,12.0L68.6,11.9L69.8,12.0Z" fill="#000" fill-rule="evenodd"/>
</svg>