<svg xmlns="http://www.w3.org/2000/svg" viewBox="0 0 128 128" width="128" height="128">
  <path d="M73.3,112.6L73.3,113.5L73.6,113.8L74.0,114.0L75.3,114.0L75.8,114.3L76.5,114.8L76.9,114.8L76.9,114.4L76.6,114.0L75.8,113.2L73.8,112.3L73.6,112.3Z M80.2,77.3L79.9,77.5L79.4,78.5L79.4,78.8L80.4,79.8L80.7,80.0L81.3,80.0L81.5,79.7L81.5,78.3L80.9,77.4Z M80.0,78.6L80.3,78.4L80.7,78.4L80.9,78.6L80.9,78.9L80.7,79.0L80.4,79.0Z M76.5,74.1L76.4,74.4L76.7,74.7L77.7,75.3L77.9,75.6L78.5,75.9L79.2,76.7L79.6,76.7L80.0,76.6L80.0,76.1L79.4,75.7L79.0,76.0L78.6,75.9L78.2,75.4L78.2,75.0L78.4,74.8L78.8,74.8L78.6,74.3L77.8,74.0Z M62.0,72.3L62.0,72.7L62.3,73.0L62.3,73.4L62.7,73.7L63.5,74.0L64.4,74.0L65.1,73.6L65.2,73.2L64.6,72.9L62.5,72.3Z M57.3,71.7L57.4,72.0L59.5,72.6L60.1,72.6L60.1,72.5L58.0,71.6L57.4,71.5Z M80.2,71.1L80.7,71.0L80.7,70.7L80.4,70.7Z M83.2,70.0L82.6,70.0L82.4,70.1L82.3,70.4L83.0,70.5L83.2,70.3Z M95.8,59.5L95.5,59.7L95.3,60.2L95.4,61.3L95.8,61.9L96.3,61.9L96.8,61.3L96.8,60.5L96.4,59.6Z M88.8,53.0L88.5,52.8L88.0,52.8L86.7,54.1L85.3,55.9L85.0,55.9L84.7,55.6L84.6,55.1L84.4,54.6L84.0,54.4L83.7,54.5L82.8,55.4L81.9,56.7L81.4,58.2L81.1,58.2L80.8,58.0L80.5,56.2L80.2,55.7L79.8,55.7L78.9,56.7L78.1,58.4L78.3,60.5L78.5,60.4L79.1,59.0L79.5,58.5L79.7,58.5L80.0,58.7L79.9,59.5L80.1,59.9L80.9,59.8L81.9,59.3L82.3,58.8L82.9,57.1L83.1,56.7L83.5,56.7L83.7,56.9L83.6,58.5L83.9,58.8L84.7,58.8L85.3,58.6L85.8,58.0L86.1,57.2L86.8,56.0L87.2,55.9L87.3,56.9L86.9,57.8L86.9,58.3L87.1,58.6L87.9,58.6L88.5,57.7L88.9,56.4L89.0,54.1Z M84.6,51.9L84.1,52.0L81.9,54.1L81.1,55.3L81.2,55.7L81.6,55.7L82.2,55.1L82.3,54.9L83.7,53.6L84.2,53.5L85.0,53.5L85.1,52.8L85.0,52.2Z M86.5,51.7L86.1,52.0L86.1,52.6L86.1,52.8L86.7,52.8L87.1,52.3L87.1,52.0L86.8,51.7Z M37.0,13.6L36.8,13.9L36.8,14.3L37.2,14.7L37.7,14.7L38.0,14.3L37.9,13.9L37.6,13.6Z M35.9,9.1L34.6,10.1L33.7,10.2L33.1,10.5L32.3,11.3L31.2,11.8L28.4,12.3L27.1,12.7L26.5,13.2L26.2,13.7L26.2,14.0L26.5,14.1L26.9,13.8L27.6,13.6L30.1,13.5L31.5,13.8L32.0,14.0L32.2,14.3L32.1,14.5L30.7,14.5L29.6,14.7L29.2,14.8L29.2,15.1L31.5,15.5L33.3,16.3L34.2,16.3L35.3,16.6L35.7,17.0L36.6,17.8L37.2,19.0L37.4,20.3L37.3,22.0L36.8,23.9L36.2,25.0L36.1,25.4L35.7,26.1L35.1,27.6L34.6,28.3L33.1,31.2L33.0,31.7L32.6,32.0L31.2,36.1L30.6,38.8L29.8,40.3L29.7,40.7L29.2,41.6L28.8,42.8L28.0,44.3L28.0,44.7L27.6,45.3L27.3,46.5L26.9,49.6L27.1,53.0L27.4,54.6L27.6,54.8L28.5,58.2L30.8,63.0L31.3,63.6L31.7,64.6L32.1,65.0L32.6,66.1L34.3,68.6L37.4,72.3L37.8,72.6L38.5,73.8L39.6,77.1L39.9,78.4L40.3,79.3L40.6,80.6L41.6,83.4L41.9,83.7L42.2,84.6L42.4,84.8L42.8,85.8L44.0,87.5L44.5,88.5L46.1,90.6L47.6,92.4L48.4,93.6L48.8,94.6L48.8,95.9L47.6,98.8L47.4,99.8L46.7,101.2L46.5,102.1L45.4,104.4L45.4,104.8L44.9,105.4L44.3,106.8L44.0,107.2L43.8,107.8L43.0,109.4L42.6,109.9L42.2,110.7L41.7,111.2L40.9,111.6L40.7,111.5L40.4,111.2L38.2,111.2L36.9,110.8L36.2,110.7L35.5,110.3L34.2,110.0L33.4,110.0L32.6,110.4L32.4,110.7L32.7,111.0L33.7,111.3L35.1,111.2L36.0,112.3L36.2,112.4L36.9,112.4L38.1,111.7L39.2,111.9L40.2,111.7L40.4,111.7L40.4,111.9L40.1,112.1L39.1,112.5L34.3,113.3L31.4,113.3L30.8,113.5L28.5,113.4L28.0,113.7L27.5,113.7L26.9,114.4L26.9,114.5L27.0,114.7L28.5,114.6L29.7,115.1L30.0,115.0L30.7,114.4L31.0,114.4L31.8,115.0L32.4,115.0L33.1,114.4L33.6,114.4L34.3,115.0L35.0,115.0L35.3,114.9L36.2,114.0L36.9,114.0L37.2,114.4L37.2,114.6L36.9,115.0L33.3,116.4L32.0,117.1L31.5,117.8L31.1,118.7L31.1,119.0L31.5,119.0L32.2,118.6L33.4,118.4L34.1,117.8L34.3,117.3L34.9,117.2L35.4,117.7L36.0,117.7L36.5,117.3L37.0,116.7L37.5,116.6L37.9,116.8L38.4,116.9L39.0,116.6L39.2,116.6L39.7,116.9L40.2,116.8L40.5,116.5L41.8,115.9L42.6,115.2L43.0,114.6L43.2,113.7L43.4,113.7L43.7,113.9L43.7,114.7L44.2,115.4L45.3,115.9L45.7,116.4L46.1,116.4L46.4,115.5L45.7,114.5L44.7,113.9L44.0,112.9L43.4,112.4L42.9,112.1L42.6,111.7L43.0,111.4L43.4,111.4L44.2,111.7L44.5,111.6L44.5,111.4L44.1,111.0L43.4,110.8L43.2,110.6L43.3,110.2L45.5,110.2L45.6,109.8L45.2,109.5L44.3,109.3L44.0,109.0L44.0,108.7L44.2,108.6L45.4,108.5L46.1,108.8L46.8,108.8L47.2,108.7L49.1,108.7L50.3,108.3L50.9,107.8L51.1,107.5L50.9,107.1L49.8,107.2L49.1,107.0L48.3,107.0L47.3,107.4L45.7,107.3L45.0,107.5L44.9,107.3L44.9,106.9L45.8,106.3L47.5,106.1L47.3,105.6L46.4,105.4L46.1,105.2L46.1,104.8L46.2,104.7L48.0,104.7L48.3,104.4L48.2,104.0L47.9,103.7L46.8,103.6L46.5,103.4L46.5,103.1L46.9,102.8L47.5,102.5L49.0,102.8L49.4,102.3L49.4,101.8L49.2,101.5L48.5,101.2L47.6,101.1L47.6,100.8L48.1,100.4L49.2,100.3L49.6,100.6L50.0,100.6L50.3,100.1L49.4,99.4L48.6,99.1L48.5,98.8L49.1,98.4L49.8,98.4L50.7,98.7L51.2,98.7L51.5,98.4L51.5,98.0L51.2,97.8L50.1,97.4L49.6,97.4L49.0,97.6L48.8,97.4L48.8,97.2L49.5,96.5L49.9,96.3L50.9,96.3L51.7,96.6L52.4,96.6L52.8,96.3L53.6,94.8L53.9,93.6L53.8,89.1L54.1,85.6L54.0,84.4L54.4,82.5L54.4,81.5L54.6,81.0L54.8,80.8L55.1,80.8L55.5,81.1L56.6,82.5L58.1,84.9L59.7,87.9L60.9,89.4L63.0,91.4L65.3,92.9L66.5,93.5L67.4,94.3L69.6,95.7L70.1,96.3L70.4,96.9L70.4,99.3L70.5,99.9L70.4,103.7L70.4,110.6L70.2,111.0L69.8,111.0L68.8,110.7L68.1,110.7L66.3,110.2L65.7,110.2L65.0,109.9L64.3,109.8L62.3,109.3L61.4,109.3L61.0,109.4L60.2,110.2L60.3,110.6L62.0,110.6L62.7,111.2L64.0,111.2L65.3,111.8L66.1,111.8L66.5,111.7L68.4,111.7L68.8,111.5L69.3,111.5L69.7,111.4L70.0,111.4L70.1,111.7L69.6,112.2L68.0,112.4L66.2,112.8L63.3,112.9L61.8,113.2L60.4,113.2L59.3,113.0L56.1,113.2L55.6,113.3L54.8,113.8L54.4,114.3L54.5,114.6L55.2,114.6L55.9,114.8L56.7,114.8L57.7,114.3L58.1,114.2L59.1,114.9L59.8,115.0L60.9,114.4L61.5,114.5L62.0,114.8L62.4,114.8L63.0,114.7L63.9,114.0L64.5,114.0L64.9,114.4L64.9,114.5L64.6,114.8L63.3,115.5L62.2,115.9L60.8,116.1L60.1,116.7L60.0,117.1L60.0,117.4L62.5,117.4L63.0,117.2L63.8,116.4L64.2,116.3L65.3,116.3L66.5,116.5L66.9,116.4L67.8,115.6L69.2,115.6L70.4,115.2L71.5,115.1L71.8,114.9L72.3,114.2L72.6,112.1L72.5,110.9L72.2,110.7L71.8,110.7L71.5,110.4L71.9,110.2L72.3,110.2L72.7,109.8L72.7,109.4L72.3,109.1L71.7,109.0L71.6,108.7L71.9,108.5L72.5,108.4L72.7,108.3L72.7,107.9L72.4,107.6L71.6,107.5L71.5,107.0L72.4,106.4L73.0,106.4L73.4,106.6L74.1,107.2L74.3,107.3L75.5,107.1L76.5,106.7L77.4,105.8L77.4,105.4L73.9,105.4L73.1,105.8L72.3,105.8L71.5,105.6L71.2,105.3L71.2,105.2L71.5,104.8L73.0,104.8L73.2,104.5L73.2,104.3L72.9,104.0L71.3,103.9L71.3,103.5L72.1,103.1L72.8,103.1L73.2,102.9L73.2,102.6L73.0,102.5L72.3,102.2L71.5,102.2L71.3,102.1L71.3,101.8L71.6,101.4L73.1,101.0L73.4,100.8L73.2,100.5L72.2,100.0L71.6,99.9L71.5,99.6L72.0,99.3L73.0,99.3L73.3,99.1L73.4,98.8L73.1,98.6L72.4,98.4L71.9,98.4L71.5,98.6L71.1,98.5L71.1,98.2L71.5,97.8L72.1,97.5L73.4,97.5L73.7,97.4L73.9,97.1L73.9,96.2L73.5,95.0L72.8,93.9L71.8,91.7L71.2,89.8L70.8,88.8L70.7,88.1L70.5,87.6L70.2,85.6L69.9,84.8L69.4,82.6L69.0,81.3L68.4,80.1L68.3,79.6L68.8,79.1L69.6,78.9L71.5,77.8L72.2,77.7L73.4,78.8L73.6,78.9L74.3,79.7L74.8,79.8L75.4,79.2L75.7,79.2L76.8,80.2L77.7,80.7L78.1,80.7L78.4,80.4L78.5,79.5L78.4,79.0L78.1,78.6L76.9,78.3L75.6,77.3L75.3,77.3L75.0,77.7L75.0,78.7L74.7,79.0L74.3,79.0L74.1,78.7L74.2,78.2L74.2,78.0L73.2,77.5L72.7,77.0L72.6,76.6L72.9,76.4L73.7,77.1L74.5,77.1L74.5,76.5L73.6,74.9L73.6,74.7L73.8,74.5L74.2,74.7L75.0,75.7L76.5,77.1L77.0,77.2L77.3,77.5L78.1,77.8L78.8,77.7L78.8,77.2L77.9,76.4L77.6,76.4L77.3,76.8L76.7,76.7L76.5,76.3L76.5,76.0L76.7,75.9L76.6,75.5L75.4,74.5L73.8,73.1L72.0,71.9L71.4,71.3L71.4,71.1L71.5,70.9L71.8,70.9L74.0,72.3L75.2,72.8L76.5,73.0L78.8,72.8L81.2,72.0L83.1,71.7L84.2,71.7L84.8,71.8L85.5,71.8L86.2,72.1L87.9,73.3L88.8,74.3L89.0,74.8L89.0,75.2L88.8,75.4L88.7,75.4L88.0,74.4L86.5,73.1L85.8,72.7L84.3,72.3L83.1,72.2L81.1,72.7L79.6,73.4L79.4,73.6L79.4,74.0L79.8,74.5L81.2,74.5L83.4,75.4L84.5,76.2L84.4,76.5L83.8,76.4L83.2,76.1L82.5,75.9L81.6,75.5L80.7,75.4L80.5,75.5L80.7,76.0L80.9,76.3L81.5,76.5L82.5,76.7L83.7,77.2L85.3,78.6L85.5,79.3L85.7,79.3L85.9,78.9L85.9,77.5L85.3,75.9L84.2,74.8L83.3,74.4L82.5,74.2L82.3,73.9L82.5,73.6L83.1,73.6L85.0,73.6L85.6,73.7L86.2,74.1L87.3,75.3L88.4,77.4L88.4,79.6L88.6,79.6L89.3,79.0L89.5,78.3L89.7,77.9L89.9,77.1L89.9,76.2L89.6,75.1L88.9,73.6L88.4,72.9L87.2,71.7L86.7,71.5L86.3,71.2L85.1,70.9L83.3,71.0L81.9,71.5L81.4,71.5L79.5,72.0L78.1,72.0L77.9,71.7L78.1,71.4L80.7,70.0L82.6,69.4L83.8,69.2L84.9,69.2L85.8,69.4L87.5,69.9L89.7,71.2L92.0,73.6L94.0,75.2L95.0,76.3L95.7,76.5L95.8,76.3L95.8,75.7L95.6,75.2L95.5,74.5L95.3,74.1L95.0,73.1L94.2,71.5L93.2,70.0L92.3,68.9L90.8,67.8L90.3,67.7L89.4,67.2L86.7,66.4L84.9,66.5L83.8,66.8L83.4,66.8L82.2,67.2L81.5,67.6L81.1,67.5L81.1,67.4L81.9,66.7L84.3,65.9L85.4,65.6L87.4,65.7L88.6,66.0L88.9,66.3L89.5,66.4L89.9,66.7L90.4,66.9L90.7,66.8L90.8,66.5L90.4,65.9L89.9,65.2L88.4,63.9L87.2,63.2L85.3,62.7L82.5,62.7L82.6,62.5L83.5,62.1L85.8,62.0L87.2,62.2L89.1,63.2L90.0,64.1L91.2,65.7L91.5,66.5L91.9,66.8L92.3,67.7L93.2,69.0L94.4,70.2L95.9,71.4L96.5,71.5L96.7,71.2L96.3,68.5L96.1,68.2L95.8,66.9L94.3,64.3L92.2,62.0L89.8,60.5L88.1,59.8L85.8,59.8L84.3,59.9L82.1,60.3L81.9,60.5L80.5,60.8L79.6,61.3L78.9,61.8L78.3,62.1L76.8,63.6L74.2,65.7L72.5,66.5L71.9,66.4L71.9,66.2L73.8,65.2L74.6,64.5L75.2,63.6L75.4,62.6L75.6,62.2L75.7,61.7L76.3,60.9L76.6,61.0L76.7,62.1L77.2,62.0L77.5,61.7L77.5,59.6L77.3,59.0L76.9,59.0L76.5,59.2L75.3,60.5L75.0,60.5L74.8,60.3L74.8,60.1L76.1,58.4L76.2,57.9L76.5,57.7L77.0,56.6L77.7,55.6L78.4,55.1L78.1,56.3L78.3,56.2L80.4,54.2L80.6,54.0L80.5,53.6L80.0,53.4L80.0,53.1L80.4,52.6L81.2,52.0L81.6,52.1L81.4,52.8L81.5,52.9L82.1,52.8L82.9,52.0L82.9,51.7L82.6,51.4L82.6,51.1L82.9,50.8L83.7,50.4L86.4,49.8L86.9,49.8L88.3,50.1L89.1,50.7L89.5,50.7L89.6,50.5L89.5,49.5L89.1,48.7L88.0,47.4L86.8,46.7L85.8,46.5L84.7,46.5L84.1,46.7L83.4,46.8L81.6,47.5L80.3,48.4L79.0,49.4L78.0,50.5L76.9,51.8L75.8,53.5L75.7,54.0L75.3,54.8L75.1,55.4L73.8,58.5L72.7,60.2L72.3,60.2L72.6,59.8L72.6,59.4L73.4,57.8L74.4,54.8L75.0,53.6L75.8,51.5L76.6,50.1L77.5,49.0L79.2,47.4L80.0,46.9L82.4,45.8L84.0,45.4L86.3,45.5L88.1,46.1L89.6,47.1L90.1,47.6L90.8,48.6L91.5,50.5L91.9,57.0L92.3,59.0L92.9,60.3L93.2,60.6L93.4,60.6L94.2,59.9L95.1,58.2L95.4,57.1L95.6,55.8L95.5,51.5L94.5,47.8L93.8,46.4L93.0,45.1L91.5,43.5L90.5,42.8L88.5,41.8L85.9,41.3L84.2,41.3L83.0,41.6L82.4,41.6L80.7,42.1L80.6,42.2L80.4,42.2L78.9,42.8L76.9,44.4L75.6,45.7L74.0,47.8L73.0,49.8L72.2,52.0L71.8,53.5L71.5,53.9L71.4,54.9L71.1,55.5L70.8,56.7L70.5,57.2L70.2,57.5L70.0,57.3L70.0,56.4L70.4,54.5L70.4,54.0L70.7,53.3L70.8,52.0L72.1,48.5L73.0,46.8L73.9,45.6L75.5,44.0L77.3,42.4L79.2,41.3L80.8,40.6L83.5,39.8L85.4,39.7L86.2,39.6L88.3,39.7L89.4,40.0L90.3,40.4L90.8,40.5L92.3,41.3L93.5,42.4L94.8,44.0L95.4,45.1L95.7,45.7L95.8,46.7L96.4,47.8L96.9,50.5L97.1,52.0L97.1,58.1L97.3,59.7L97.3,60.5L97.5,61.3L98.7,63.6L99.3,64.3L99.6,64.3L100.0,63.9L100.0,63.7L100.4,63.2L101.1,61.3L101.2,60.6L101.6,59.6L102.0,56.5L102.0,53.9L101.6,50.0L100.8,47.1L100.0,45.5L99.8,44.7L97.7,41.2L95.4,38.6L93.8,37.4L91.9,36.5L90.7,36.1L88.8,35.9L88.1,35.6L86.4,35.6L83.2,35.9L79.8,36.7L78.5,37.1L77.0,37.9L76.6,38.0L73.4,40.3L72.1,41.7L70.7,43.4L68.8,46.9L67.5,50.1L67.0,52.8L66.9,57.1L67.3,61.8L67.3,62.3L66.9,62.8L66.2,62.8L65.3,62.1L64.3,61.0L63.6,59.4L59.7,54.8L57.3,52.5L56.5,51.4L53.2,48.2L52.3,47.4L51.2,46.8L50.0,45.7L49.6,45.5L46.9,43.1L46.7,42.4L46.7,40.5L46.9,39.2L47.1,35.9L47.0,34.1L46.9,33.9L46.9,33.0L47.1,32.3L47.1,30.1L46.8,24.7L46.0,20.2L45.3,18.6L44.8,16.6L44.1,15.2L44.0,14.7L43.4,13.8L42.2,11.6L41.7,11.2L40.8,10.7L40.5,10.3L40.2,10.1L39.1,10.1L38.5,9.3L37.9,9.3L37.2,9.5L36.7,9.5L36.5,9.3Z M40.1,113.4L40.0,113.7L39.6,113.9L39.2,113.9L39.1,113.7L39.1,113.6L39.4,113.3L39.9,113.3Z M68.6,113.1L68.6,113.3L68.4,113.5L67.4,113.8L66.5,114.3L65.9,114.0L66.1,113.8L66.4,113.8L67.6,113.2L68.1,113.0Z M46.1,84.9L46.7,85.0L46.9,85.2L47.5,86.8L47.5,87.2L47.3,87.4L46.7,87.2L46.0,86.5L45.8,86.1L45.8,85.2Z M60.4,84.3L61.1,84.3L61.7,84.8L62.7,86.2L62.8,86.6L62.7,86.7L62.1,86.7L60.7,85.6L60.3,85.1L60.3,84.4Z M43.5,81.7L44.0,81.6L44.8,82.3L45.3,83.2L45.3,83.4L45.2,83.6L44.6,83.5L43.6,82.8L43.4,82.3L43.4,81.8Z M46.0,81.2L46.5,81.0L46.9,81.3L47.6,82.8L48.0,83.2L47.9,83.5L47.5,83.5L47.2,83.3L46.1,82.4L45.7,81.7L45.8,81.3Z M57.8,80.9L58.3,80.9L58.8,81.4L59.3,82.5L60.0,83.4L59.8,83.7L59.4,83.7L58.1,82.6L57.6,81.6L57.6,81.1Z M60.3,80.6L61.1,80.7L61.8,81.3L62.0,81.9L62.0,82.2L62.3,82.6L62.3,83.1L61.6,83.1L60.3,82.0L60.0,81.1L60.0,80.9Z M76.5,79.2L76.8,78.9L77.3,78.9L77.5,79.0L77.6,79.4L76.8,79.4Z M44.6,76.9L45.0,76.9L45.4,77.2L45.7,78.2L46.1,79.0L46.1,79.3L45.9,79.4L45.4,79.4L44.6,78.6L44.3,77.8L44.3,77.1Z M41.3,76.4L41.9,76.4L42.4,76.8L43.0,78.0L43.7,78.9L43.6,79.3L43.0,79.3L42.2,78.6L41.5,77.9L41.1,77.1L41.1,76.7Z M47.9,75.2L48.1,74.9L48.7,74.9L49.4,75.4L49.7,75.7L49.7,75.9L49.6,76.0L48.9,76.0L48.2,75.6Z M50.6,73.8L50.7,73.6L51.1,73.6L52.1,74.0L52.0,74.4L51.1,74.4L50.7,74.2L50.6,74.0Z M43.2,73.4L43.7,72.9L44.3,72.9L44.6,73.1L45.9,74.4L45.8,74.8L45.1,74.9L44.0,74.5L43.4,74.0Z M46.1,71.6L46.4,71.3L46.9,71.4L47.6,71.8L47.9,72.1L47.9,72.4L47.7,72.5L46.9,72.5L46.4,72.1L46.1,71.9Z M39.3,70.5L39.9,70.5L40.5,71.1L41.1,72.3L41.9,73.2L41.6,73.4L41.1,73.4L40.2,73.2L39.6,72.9L39.2,72.4L38.8,71.6L38.8,71.3L38.9,70.9Z M42.3,69.1L42.8,69.0L43.4,69.4L44.0,70.2L43.9,70.6L43.4,70.7L43.1,70.5L42.2,69.7Z M51.0,67.9L51.5,67.9L53.4,69.0L53.8,69.4L53.8,69.8L53.2,69.8L51.2,68.5L50.9,68.2Z M82.8,68.3L83.8,67.8L85.1,67.6L86.5,67.6L87.9,68.1L88.8,68.2L91.5,70.1L93.0,71.6L93.1,72.1L92.5,72.1L91.8,71.4L91.4,71.3L90.3,70.2L88.9,69.4L87.8,68.9L87.6,68.6L85.7,68.3L84.2,68.4L83.0,68.6Z M35.6,66.3L35.9,66.0L36.5,66.0L37.2,66.6L37.9,67.8L38.5,68.3L38.6,68.7L38.4,68.9L37.9,68.9L36.7,68.3L36.1,67.8L35.7,67.1Z M39.2,65.9L39.3,65.7L39.8,65.7L40.1,65.9L41.6,67.7L41.6,67.8L41.5,68.0L41.0,68.0L39.7,67.2L39.2,66.4Z M53.2,65.7L53.4,65.5L53.6,65.5L55.7,66.6L55.9,66.7L55.9,67.1L55.7,67.2L55.2,67.2L55.0,67.0L53.8,66.4L53.3,65.9Z M79.7,64.3L79.7,64.4L78.2,66.3L76.9,67.5L76.1,68.0L75.7,67.7L76.1,67.5L79.0,64.5L79.5,64.2Z M87.2,64.4L87.0,64.6L85.4,64.4L84.4,64.5L82.7,65.0L81.1,65.8L78.1,68.4L77.5,68.8L77.3,68.7L77.4,68.3L80.3,65.4L82.7,64.1L83.3,64.0L83.8,63.8L85.5,63.7L86.1,63.8L86.9,64.1Z M55.3,63.1L55.4,62.9L55.9,62.9L57.3,63.4L57.6,63.4L58.1,63.6L58.4,64.1L58.0,64.4L56.9,64.3L55.5,63.6L55.3,63.3Z M51.5,63.9L51.5,64.7L51.2,65.2L51.0,65.5L49.8,65.9L49.0,65.9L47.6,65.7L47.3,65.5L46.3,65.2L45.2,64.4L45.3,64.1L45.6,64.1L46.5,64.5L47.6,64.8L49.4,64.6L50.2,63.9L50.3,63.2L50.6,62.9L50.8,62.9L51.3,63.4Z M46.3,62.1L47.0,62.1L48.4,63.0L48.9,63.5L49.0,63.9L48.7,64.1L48.2,64.1L47.6,63.9L46.2,62.4Z M37.1,61.8L37.6,61.8L37.9,62.1L39.2,63.7L39.1,64.1L38.8,64.1L38.0,63.8L36.9,62.7L36.9,62.1Z M58.4,60.9L58.7,60.7L59.6,60.9L59.7,61.1L59.7,61.5L59.2,61.6L58.7,61.3Z M73.8,67.2L75.4,66.0L78.3,63.2L79.9,62.1L81.4,61.3L83.3,60.7L84.2,60.5L86.5,60.5L87.8,60.8L89.3,61.4L90.3,62.1L91.6,63.2L93.0,64.8L93.7,66.1L93.8,66.7L94.2,67.2L94.4,68.0L94.2,68.2L94.0,68.2L93.8,68.0L93.2,66.4L93.0,66.2L92.7,65.6L91.6,64.2L90.4,62.8L88.6,62.0L86.8,61.4L84.5,61.4L82.9,61.7L81.2,62.1L80.4,62.5L79.1,63.6L78.0,64.7L77.7,64.8L75.8,66.5L74.2,67.4Z M54.2,61.5L54.1,62.2L53.5,62.7L53.1,62.8L51.9,62.8L50.5,61.9L50.7,61.6L51.9,61.7L52.5,61.5L52.7,61.1L52.7,60.7L53.0,60.4L53.5,60.5L53.9,60.9Z M32.4,60.1L32.8,60.1L33.4,60.6L33.9,61.8L34.6,62.5L34.6,62.8L34.4,62.9L34.1,62.9L33.1,62.4L32.6,61.9L32.2,61.3L32.0,60.5Z M49.9,59.4L50.1,59.1L50.7,59.2L51.7,60.4L51.7,60.8L51.1,60.9L50.8,60.7L49.9,59.8Z M56.5,58.5L56.4,59.3L55.8,59.8L55.6,59.9L54.6,59.9L53.0,59.4L53.0,59.0L55.0,59.0L55.5,58.4L55.6,58.1L55.9,57.8L56.1,57.8L56.3,58.1Z M59.8,56.7L59.7,57.6L59.3,58.1L58.8,58.3L57.7,58.2L56.5,57.4L56.6,57.1L57.1,57.1L57.9,57.3L58.4,57.2L58.8,57.0L58.8,56.7L59.2,56.3L59.5,56.3Z M52.9,56.3L53.4,56.3L54.1,57.1L54.4,57.7L54.2,57.9L53.7,57.8L52.8,57.0L52.7,56.4Z M34.0,56.2L34.6,56.3L34.9,56.7L35.3,57.6L35.9,58.2L36.0,58.6L35.7,58.8L35.0,58.6L34.0,57.7L33.5,56.8L33.5,56.6Z M40.3,56.5L41.9,56.7L42.6,56.3L43.3,55.5L43.4,55.5L43.8,55.8L43.9,56.7L44.1,56.9L44.8,57.1L46.1,58.6L46.5,58.6L46.9,58.3L47.3,58.3L47.4,58.5L47.6,58.9L47.6,59.9L47.0,60.5L46.2,60.9L45.4,60.9L43.9,60.4L43.1,59.8L43.3,59.5L45.1,59.5L45.3,59.4L45.3,59.0L44.0,57.4L43.7,57.4L43.3,57.8L42.8,58.1L42.0,58.1L40.6,57.2L40.3,56.8Z M29.7,55.1L30.2,55.1L30.8,55.7L30.9,56.4L31.2,57.0L31.3,57.5L31.9,58.2L32.0,58.4L31.9,58.6L31.2,58.5L30.7,58.2L29.9,57.3L29.4,56.1L29.4,55.6Z M56.5,54.8L57.1,54.8L57.8,55.4L57.9,55.7L57.6,55.9L57.1,55.9L56.4,55.2Z M79.1,54.0L79.2,54.2L79.1,54.4L78.9,54.1Z M39.7,52.8L40.2,52.8L40.6,53.1L41.4,55.0L41.4,55.4L41.2,55.5L41.0,55.5L40.6,55.2L39.6,53.6Z M44.0,53.6L44.6,53.6L45.1,53.9L46.1,53.9L47.0,53.2L47.4,52.1L47.6,52.0L47.9,52.0L48.1,52.3L48.2,53.0L48.4,53.5L49.9,54.7L50.9,54.4L51.4,54.9L51.5,55.8L51.2,56.2L50.4,56.8L49.2,56.9L48.7,56.7L48.4,56.4L48.4,56.1L48.8,56.0L49.2,55.7L49.2,55.2L48.8,54.7L48.1,54.5L47.3,55.2L46.2,55.2L44.2,54.1L43.9,53.9Z M55.3,52.7L55.3,53.6L55.1,54.0L54.4,54.5L53.5,54.5L52.6,54.1L51.5,53.4L51.2,53.0L51.4,52.8L52.5,53.1L53.3,53.1L54.2,52.1L54.6,51.9L54.9,52.1Z M32.5,51.7L33.0,51.7L33.4,52.1L33.8,53.3L34.2,54.0L34.1,54.5L33.6,54.5L33.1,54.2L32.2,53.1L32.0,52.4Z M52.5,51.3L53.1,51.4L53.7,52.0L53.8,52.3L53.6,52.5L53.0,52.4L52.4,51.7Z M43.0,49.3L43.8,49.3L44.5,49.9L45.4,51.3L45.3,51.7L44.9,51.8L43.1,50.0L43.0,49.7Z M51.9,49.8L51.9,50.5L51.2,51.1L50.4,51.4L49.4,51.3L48.2,50.5L48.2,50.1L48.4,50.1L49.7,50.1L50.1,49.9L51.1,48.8L51.5,48.8L51.6,49.0Z M28.6,48.8L28.9,48.8L29.5,49.2L29.7,49.9L29.8,50.7L30.1,51.4L30.0,51.9L29.5,52.0L28.6,51.0L28.2,50.4L28.1,49.3Z M86.1,48.4L85.9,48.7L84.2,49.0L82.6,49.6L81.3,50.3L79.9,51.4L77.9,53.6L77.1,55.0L76.8,55.3L76.6,56.0L76.2,56.7L76.1,57.3L75.7,57.6L75.7,57.9L75.4,58.0L75.4,57.1L76.7,54.4L76.9,54.1L77.4,53.2L78.4,51.8L79.6,50.6L81.5,49.3L83.2,48.4L84.7,48.1L85.7,48.2Z M31.9,47.4L32.3,47.4L32.6,47.8L32.7,49.0L33.1,49.7L33.1,50.0L33.0,50.1L32.6,50.1L32.2,49.9L31.8,49.4L31.2,48.5L31.3,47.9Z M47.3,47.1L47.9,47.0L49.2,48.3L49.2,48.6L48.7,48.8L47.8,48.2L47.2,47.4Z M34.6,46.8L35.1,46.8L35.5,47.4L35.6,47.8L35.8,48.2L35.8,48.6L35.7,48.7L35.2,48.6L34.6,48.1L34.3,47.4L34.3,47.1Z M37.6,47.4L39.2,45.9L40.2,45.5L41.6,45.1L45.0,45.0L46.6,45.3L46.8,45.7L44.6,45.7L43.0,45.9L42.2,46.2L40.7,46.9L39.4,48.2L38.4,49.6L37.8,51.7L37.8,54.0L38.0,55.5L38.8,58.1L39.4,59.1L39.6,59.9L39.9,60.2L41.5,62.8L42.6,64.3L44.4,65.9L47.3,68.0L48.4,68.6L48.7,68.9L50.3,69.6L51.5,70.4L54.2,71.3L55.5,71.3L56.0,70.6L56.0,69.9L55.8,69.4L55.6,69.0L55.6,68.8L55.7,68.6L57.5,68.6L58.1,68.2L58.2,67.6L58.0,67.0L57.6,66.4L57.2,66.0L57.2,65.4L58.7,65.4L59.2,65.2L59.5,64.9L59.7,64.4L59.7,64.1L59.5,63.7L59.4,63.2L59.7,62.9L60.3,62.9L61.2,62.5L61.6,61.7L61.6,61.0L61.5,60.5L61.5,60.1L62.3,59.7L62.6,59.7L63.2,60.2L63.3,60.4L64.2,61.4L65.2,63.0L65.2,63.2L64.7,63.5L63.9,63.2L63.6,63.2L64.7,64.2L65.2,64.8L65.3,65.4L65.2,65.5L64.3,65.5L63.5,65.4L63.8,65.7L64.0,65.7L65.9,66.7L67.3,68.2L67.3,68.3L67.0,68.6L66.1,68.6L63.2,68.0L62.3,67.5L61.5,67.3L61.0,67.5L61.4,67.7L62.9,68.2L63.7,68.6L64.5,68.9L66.4,69.8L67.9,70.8L68.2,71.1L68.2,71.3L67.8,71.7L67.4,71.8L65.7,71.7L65.2,71.6L63.7,71.4L62.8,71.1L62.2,71.0L61.2,70.6L60.3,70.5L59.9,70.2L58.5,69.7L58.2,69.7L58.3,70.0L60.0,70.9L63.1,71.9L64.2,71.9L65.0,72.5L65.2,72.5L68.1,73.6L69.6,74.6L70.1,75.1L70.1,75.3L69.8,75.5L65.7,75.5L64.1,75.4L58.4,74.0L55.0,72.8L54.5,72.5L53.3,72.1L50.8,71.0L47.0,68.9L44.3,66.9L41.2,63.9L39.8,62.1L38.0,59.2L36.7,56.3L36.3,54.4L36.3,50.4L36.8,48.8Z M32.2,43.5L32.6,43.6L33.0,43.9L33.0,44.7L33.6,45.9L33.6,46.1L33.3,46.3L33.0,46.3L32.1,45.4L31.8,44.7L31.8,44.0L31.9,43.7Z M29.5,43.5L30.0,43.5L30.5,44.0L30.7,44.7L30.6,45.5L31.0,46.3L31.0,46.7L30.8,46.8L30.5,46.8L29.5,45.9L28.8,44.8L28.8,44.3L29.0,43.9Z M90.8,45.0L90.7,45.3L90.4,45.3L89.0,44.4L87.9,43.9L86.5,43.6L84.2,43.6L83.1,43.8L81.2,44.4L79.8,45.1L78.8,45.9L77.6,47.0L75.2,50.1L74.9,50.9L74.6,51.1L74.4,51.9L74.1,52.5L73.9,53.5L73.0,56.0L72.6,57.5L70.9,61.3L70.4,62.1L68.6,64.3L68.0,64.7L67.7,64.4L68.2,63.7L69.1,62.8L69.9,61.7L70.1,61.1L70.5,60.5L70.7,59.7L71.3,58.7L71.4,58.2L72.1,56.9L72.6,55.5L72.6,54.9L73.5,52.1L73.8,51.7L74.2,50.5L74.5,50.2L75.0,49.0L76.1,47.4L78.6,45.0L80.0,44.0L81.5,43.4L83.4,42.8L84.7,42.7L86.5,42.8L88.1,43.0L89.7,44.0Z M31.2,39.6L31.8,39.6L32.2,40.0L32.2,42.2L31.9,42.6L31.2,42.3L30.8,41.7L30.7,41.2L30.7,40.0Z M99.4,52.2L99.3,52.6L99.1,52.5L98.3,48.5L97.3,45.6L96.7,44.3L95.2,42.2L93.4,40.5L91.6,39.5L90.4,39.1L89.9,39.1L88.0,38.6L85.9,38.6L82.7,39.0L81.0,39.4L79.0,40.3L75.7,42.4L74.1,44.0L73.0,45.2L71.6,47.1L70.7,48.9L70.0,51.2L69.8,51.3L69.6,52.0L69.4,52.2L69.2,52.9L68.9,53.2L69.4,50.7L69.8,49.8L70.0,48.9L70.5,48.2L70.7,47.5L71.1,46.6L71.9,45.3L73.4,43.6L73.5,43.4L75.1,41.8L76.5,40.6L76.9,40.4L77.6,39.8L80.0,38.5L80.9,38.2L81.3,38.0L83.1,37.5L85.4,37.2L87.0,37.2L88.8,37.4L91.5,38.2L91.9,38.6L92.5,38.7L94.2,39.8L95.8,41.4L97.2,43.6L98.0,45.4L98.1,46.0L98.5,47.2L98.5,47.8L99.1,49.2Z M46.5,32.4L46.8,32.8L46.8,34.0L46.5,35.3L45.7,37.2L45.4,39.2L45.2,39.5L44.9,39.4L44.8,39.3L44.8,38.7L44.6,38.2L44.7,36.2L45.2,34.4L45.6,33.8L46.1,32.6L46.3,32.4Z M45.4,28.2L45.6,28.7L45.6,29.4L45.4,29.7L45.2,31.7L45.0,32.0L44.7,33.5L44.0,35.4L43.3,37.9L43.0,39.5L42.7,39.6L42.5,39.3L42.4,38.5L42.6,35.4L43.0,34.1L43.0,33.8L44.7,29.9L44.9,28.4L45.1,28.2Z M44.1,25.5L44.4,25.5L44.5,26.3L43.6,29.3L42.2,32.7L42.0,33.9L41.5,35.4L41.0,37.4L41.0,38.2L40.8,38.7L40.9,41.2L40.8,41.3L40.5,41.4L40.2,40.5L39.9,38.8L39.9,36.8L40.1,35.0L40.3,34.7L40.5,33.3L41.0,32.0L41.1,31.8L41.4,30.9L43.3,27.8Z M43.3,22.3L43.4,22.4L43.4,23.2L42.9,25.1L41.3,28.4L40.8,29.7L40.2,30.8L39.7,32.1L39.6,32.8L39.1,34.1L39.0,34.8L38.8,35.4L38.4,37.1L38.1,38.8L37.9,39.4L38.0,42.4L37.6,42.5L37.2,41.9L37.2,40.9L36.9,40.1L36.9,36.7L37.4,33.9L38.3,31.3L39.2,29.4L41.9,25.3L42.5,24.1L42.6,23.5L43.0,23.1Z M43.4,17.3L43.5,18.5L43.0,20.1L41.7,22.9L39.2,27.0L36.9,31.4L36.4,32.6L36.1,34.2L35.6,35.3L35.4,36.3L35.1,37.1L35.0,38.0L35.1,42.3L35.9,44.9L35.9,45.2L35.7,45.4L35.5,45.4L35.3,45.1L34.9,44.3L33.9,42.3L33.4,40.5L33.3,39.3L33.4,36.7L33.9,33.7L34.3,32.5L34.6,32.0L34.8,31.3L36.1,29.0L37.0,27.5L37.7,26.7L37.9,26.3L41.0,22.3L42.9,19.0L43.1,17.9L43.1,17.4Z M41.9,15.8L41.9,16.3L41.6,16.9L40.4,17.7L39.1,17.7L38.1,17.2L37.9,17.0L38.0,16.6L38.2,16.6L39.1,16.6L39.4,16.5L40.5,15.5L40.9,15.4L41.5,15.4Z M35.2,13.7L36.5,12.8L36.6,12.5L37.8,12.4L38.4,12.8L39.4,13.8L39.6,13.9L39.9,14.2L39.9,14.5L39.6,14.9L38.7,15.6L38.0,15.9L37.2,15.9L36.5,15.5L35.2,14.1Z M33.8,12.0L34.7,11.1L35.8,10.8L37.2,10.8L38.2,10.9L39.6,11.5L40.3,12.0L41.5,13.1L41.7,13.6L41.4,14.0L41.1,14.0L40.1,12.9L39.1,12.4L37.2,12.1L35.7,12.6L34.2,12.7L33.8,12.4Z" fill="#000" fill-rule="evenodd"/>
</svg>