<svg xmlns="http://www.w3.org/2000/svg" viewBox="0 0 128 128" width="128" height="128">
  <path d="M70.0,109.0L69.3,109.0L68.8,109.2L68.3,109.7L67.7,110.7L67.7,112.3L68.0,112.8L68.4,113.0L69.4,113.2L70.0,113.2L70.7,112.9L71.1,112.3L71.2,111.9L71.2,111.0L71.1,110.2L70.7,109.4L70.4,109.1Z M61.8,107.1L61.2,107.4L60.4,108.2L60.0,109.2L60.0,110.0L60.1,110.5L60.5,111.0L61.3,111.4L62.4,111.4L63.0,111.1L63.5,110.6L63.7,110.2L63.8,109.1L63.6,108.4L63.2,107.6L62.7,107.3L62.3,107.1Z M75.8,105.8L75.1,106.1L74.8,106.4L74.3,107.4L74.3,108.2L74.7,109.0L75.0,109.2L76.5,109.3L76.9,109.1L77.4,108.5L77.5,108.1L77.5,107.1L77.4,106.5L76.8,105.9L76.5,105.8Z M54.7,103.6L54.2,103.6L53.9,103.8L53.2,104.4L52.8,105.2L52.7,106.3L53.1,106.9L53.5,107.2L54.6,107.2L55.0,106.9L55.4,106.4L55.6,105.7L55.5,104.5L55.3,104.1Z M67.1,95.3L66.2,95.8L65.8,96.4L65.6,97.1L65.6,98.0L65.7,98.4L66.4,98.9L67.1,99.1L67.9,99.1L68.3,98.9L68.8,98.4L69.0,97.8L69.0,96.7L68.8,96.2L68.3,95.5L67.7,95.3Z M59.7,94.6L59.2,94.7L58.9,94.9L58.4,95.3L58.1,95.9L58.0,97.0L58.3,97.6L58.9,97.9L59.6,97.9L60.3,97.5L60.6,97.1L60.9,96.3L60.9,95.7L60.6,95.2L60.4,94.9Z M76.6,93.8L75.4,93.8L75.0,94.1L74.5,94.7L74.3,95.3L74.3,96.2L74.5,96.7L74.8,97.0L75.1,97.2L76.0,97.2L76.7,96.9L77.3,96.3L77.4,95.8L77.4,94.5Z M52.7,93.6L52.0,93.5L51.6,93.7L51.1,94.1L50.6,95.0L50.5,95.8L50.7,96.3L51.2,96.7L52.4,96.7L53.3,96.0L53.5,95.3L53.4,94.5Z M64.7,75.9L64.3,76.2L63.9,77.0L64.0,77.8L64.1,78.1L64.7,78.5L65.8,78.5L66.5,77.9L66.6,76.7L66.0,75.9L65.6,75.8Z M70.9,75.6L70.4,76.0L70.1,76.5L70.1,77.7L70.3,78.1L70.8,78.5L71.2,78.7L71.8,78.7L72.4,78.2L72.6,77.0L72.4,76.4L71.9,75.9L71.3,75.6Z M64.3,9.4L64.1,9.8L64.1,10.4L64.7,10.9L65.4,10.8L65.8,10.3L65.8,9.8L65.3,9.3L65.0,9.2Z M67.1,9.0L66.5,9.3L66.4,9.6L66.4,10.6L65.9,11.4L65.5,11.9L64.7,11.8L64.0,11.3L63.7,11.0L63.5,10.3L63.1,10.1L62.4,10.1L61.9,10.7L61.9,11.1L62.1,11.6L62.8,12.0L63.7,12.3L64.3,12.8L64.6,13.2L64.3,14.5L63.9,15.1L63.8,18.2L64.0,19.3L64.3,20.1L64.4,20.8L64.7,21.7L64.9,23.9L64.7,24.9L63.7,26.4L62.4,27.8L60.4,29.8L59.8,30.6L59.1,32.2L58.9,33.4L58.6,34.5L58.7,36.6L58.9,37.8L59.0,39.4L60.2,45.0L61.7,50.1L62.5,52.2L63.0,54.1L63.6,55.1L63.9,56.3L64.4,57.1L64.4,57.6L65.0,58.9L65.0,59.7L61.1,67.1L60.6,68.2L60.6,68.8L60.8,68.9L61.2,68.8L62.1,68.1L62.5,68.0L63.0,68.0L63.6,68.2L63.9,68.7L63.9,69.1L63.0,68.7L62.0,68.8L61.5,69.3L61.2,69.9L61.2,70.6L61.8,71.3L62.1,71.5L62.8,71.5L63.6,70.7L64.1,70.6L64.2,71.2L63.9,72.4L63.3,73.1L62.8,73.5L62.2,73.8L61.7,73.8L61.1,73.5L60.2,72.7L59.9,71.6L59.7,71.5L59.2,71.5L58.9,71.9L58.9,72.1L58.5,72.7L57.7,74.4L57.3,74.9L56.8,75.9L56.8,76.4L57.5,76.4L58.6,75.3L59.0,75.0L59.7,75.0L60.3,75.1L60.9,75.7L60.9,76.2L60.6,76.3L59.7,75.7L58.9,75.8L58.6,75.9L58.0,76.6L57.8,77.7L58.5,78.5L58.9,78.6L59.7,78.6L60.7,77.7L61.0,77.8L61.0,78.5L60.9,78.7L60.8,79.2L60.0,80.5L59.4,81.1L58.7,81.5L58.1,81.7L57.3,81.7L56.6,81.5L56.2,81.2L55.9,80.5L55.9,79.1L55.5,79.1L55.0,79.8L54.2,81.8L53.1,83.8L53.0,84.3L53.1,84.4L54.0,84.5L54.0,84.7L53.6,85.3L53.6,86.4L54.3,87.0L55.1,87.0L55.6,86.8L56.0,86.4L56.4,85.6L56.4,85.1L56.1,84.6L55.7,84.3L55.1,84.2L54.4,84.4L54.2,84.4L54.2,84.2L54.5,83.8L55.2,83.5L56.0,83.5L56.6,84.1L56.8,84.5L56.8,85.1L56.9,85.3L56.9,86.7L56.7,87.1L56.5,87.6L56.1,88.5L55.3,89.2L54.7,89.6L53.8,89.7L53.0,89.4L52.5,88.9L52.4,88.5L52.4,87.4L52.3,87.3L51.8,87.3L51.3,88.2L51.0,89.4L50.2,91.4L49.8,92.8L49.2,94.4L49.2,94.8L49.3,95.0L49.6,95.0L50.1,94.7L50.5,93.8L51.4,92.9L52.3,92.6L52.8,92.6L53.2,92.8L54.1,93.6L54.4,94.5L54.5,96.7L54.4,97.6L54.2,98.4L53.6,99.6L52.9,100.4L51.9,100.9L50.6,100.8L49.5,100.1L49.2,99.4L48.9,98.2L48.7,98.2L48.4,98.5L48.2,99.3L48.0,102.5L48.2,103.8L48.6,105.5L49.5,108.0L49.9,108.9L50.9,110.3L51.3,110.7L51.7,110.7L51.8,110.5L51.7,109.7L51.5,109.4L51.3,108.3L51.4,106.7L51.7,105.7L52.1,105.0L52.1,104.8L52.5,104.0L53.5,103.0L54.3,102.6L55.0,102.6L55.8,103.2L56.2,104.2L56.5,105.8L56.6,107.7L56.3,109.3L56.0,110.0L55.4,110.9L54.8,111.5L53.5,112.0L53.3,112.3L53.2,112.6L53.3,112.8L53.7,113.2L55.0,114.2L56.6,115.1L57.5,115.8L59.2,116.6L59.8,116.5L59.9,115.9L58.6,114.3L58.2,113.0L58.2,111.5L58.4,110.2L59.2,108.4L60.0,107.3L61.2,106.4L62.3,106.1L63.1,106.4L63.6,106.7L64.2,107.3L64.7,108.6L64.9,109.3L64.9,111.7L64.4,113.5L63.8,115.0L62.8,116.1L62.1,116.4L61.8,116.7L61.8,117.3L62.2,117.6L62.8,117.9L64.9,118.6L67.4,119.1L67.9,119.1L68.3,118.9L68.2,118.6L66.9,117.4L66.4,116.0L66.2,114.1L66.6,111.9L67.1,110.9L67.5,109.5L68.4,108.4L68.9,108.0L69.7,107.9L70.3,107.9L70.9,108.2L71.5,108.9L71.8,109.7L72.2,111.0L72.4,112.2L72.4,114.6L72.0,116.7L71.5,117.6L70.6,118.7L70.6,119.0L70.7,119.1L71.5,119.2L72.3,119.0L74.1,118.1L76.2,116.1L77.3,114.7L77.4,114.2L77.4,113.7L75.3,113.5L74.4,112.9L74.0,112.0L73.7,111.1L73.6,108.4L73.9,106.9L74.5,105.6L75.4,104.7L76.8,104.7L77.8,106.0L77.9,106.5L78.4,107.9L78.6,110.1L78.7,110.2L79.1,110.3L79.4,109.9L79.5,108.5L79.9,106.9L80.1,101.4L80.0,100.2L79.7,99.9L79.4,99.9L79.0,100.3L78.8,100.9L78.1,101.6L77.1,102.0L75.8,102.0L75.0,101.7L74.3,100.9L73.7,100.1L73.5,99.6L73.1,97.9L73.1,96.5L73.3,95.3L73.8,94.1L74.0,93.8L75.0,93.0L75.6,92.9L76.5,92.9L77.0,93.2L77.4,93.6L78.0,94.4L78.4,95.5L78.7,95.8L79.1,95.8L79.4,95.3L79.2,93.6L79.1,93.4L78.6,91.5L77.8,89.1L77.6,88.7L77.1,88.8L76.9,89.0L76.8,89.4L75.6,90.4L74.6,90.5L73.8,90.1L73.2,89.7L72.8,89.1L72.4,87.9L72.2,86.2L72.4,85.3L72.9,85.1L73.1,85.9L73.5,86.5L73.8,86.6L74.7,86.6L75.1,86.4L75.6,85.9L75.6,84.7L75.8,84.7L76.5,85.2L76.7,85.2L76.9,85.0L76.9,84.5L76.5,83.8L76.4,82.8L75.3,79.4L75.1,79.3L74.7,79.3L74.5,79.4L73.9,80.8L73.0,81.6L72.2,81.9L71.1,81.7L70.3,81.0L69.6,79.6L69.3,78.2L69.3,77.3L69.6,76.5L69.7,75.8L70.1,75.1L70.6,74.8L71.3,74.8L71.8,75.0L73.3,76.5L73.8,76.5L74.0,76.4L73.6,74.7L72.4,71.7L71.9,71.2L71.5,71.3L71.4,72.1L71.0,72.9L70.2,73.4L69.6,73.5L68.7,73.1L68.1,72.5L67.4,71.0L67.5,70.5L68.0,70.4L68.8,70.9L69.5,70.9L69.9,70.6L70.1,70.0L70.0,69.3L69.7,68.8L69.1,68.5L68.7,68.5L68.0,68.8L67.8,68.7L67.8,68.4L68.3,67.8L69.1,67.7L70.0,68.3L70.6,68.3L70.7,68.2L70.6,67.5L67.8,60.3L67.7,59.7L68.3,57.9L69.6,55.3L69.6,55.0L70.3,53.2L70.3,52.9L70.6,52.3L71.5,48.2L71.7,44.5L71.5,42.1L70.9,38.6L70.0,35.8L69.0,31.8L68.2,29.2L67.7,27.0L67.4,26.5L67.4,25.8L66.6,23.1L66.2,20.7L66.2,18.9L66.5,18.3L67.1,17.7L68.3,17.3L70.1,17.2L70.6,16.9L70.6,16.6L70.0,15.9L69.8,15.8L67.8,14.2L66.3,12.8L66.3,12.4L67.0,11.1L67.7,10.4L68.0,10.1L67.9,9.4L67.6,9.1Z M67.7,94.4L68.6,94.7L69.2,95.3L69.5,95.9L70.2,98.1L70.3,100.1L70.0,101.9L69.3,103.1L68.7,103.7L68.0,104.1L67.5,104.3L66.5,104.3L65.8,104.1L65.3,103.8L64.6,102.9L64.4,102.4L64.0,100.9L64.0,99.6L64.5,97.5L65.4,95.7L66.2,94.8L67.1,94.4Z M59.3,93.9L59.9,93.9L60.9,94.4L61.3,94.9L61.8,95.9L62.3,98.0L62.2,100.1L61.8,101.2L61.4,102.0L60.8,102.6L60.0,102.9L59.3,102.9L58.1,102.6L57.3,102.1L56.6,101.1L56.2,100.0L56.2,99.0L56.8,96.9L58.0,94.9L58.8,94.1Z M59.3,85.9L59.6,85.9L59.6,86.8L60.2,87.5L60.7,87.7L61.4,87.7L61.9,87.5L62.2,87.2L62.5,86.5L62.9,86.5L63.0,86.8L63.0,88.5L62.8,89.7L62.2,90.8L61.9,91.1L61.2,91.5L60.3,91.5L59.2,91.0L58.6,90.3L58.3,89.5L58.4,87.7L58.7,86.8Z M67.1,84.4L68.3,84.5L69.2,85.3L69.7,85.9L70.0,86.6L70.2,88.1L70.1,89.4L69.7,90.7L68.6,91.9L67.7,92.3L66.8,92.3L65.9,91.7L65.4,90.7L65.1,89.4L65.3,87.3L65.4,86.8L65.8,86.2L66.2,86.1L66.2,87.3L66.4,87.6L67.1,88.1L68.2,88.2L68.6,88.0L69.1,87.4L69.1,86.0L68.3,85.1L67.3,85.0L66.8,85.3L66.4,85.8L66.2,85.8L66.2,85.3L66.8,84.6Z M59.8,85.0L60.5,84.2L61.5,84.1L61.9,84.2L62.4,84.7L62.6,85.2L62.1,85.3L61.5,84.7L60.9,84.7L60.3,85.0L60.1,85.2L59.8,85.1Z M73.1,84.1L73.2,83.8L73.4,83.5L74.0,83.3L74.5,83.3L75.3,83.8L75.6,84.1L75.5,84.4L75.3,84.4L74.5,83.9L74.0,83.9L73.5,84.1Z M65.0,75.0L65.8,75.0L66.4,75.4L66.8,76.3L67.2,76.8L67.4,77.7L67.5,79.8L67.2,81.2L66.4,82.1L65.9,82.4L64.8,82.4L63.8,81.9L63.3,81.5L63.0,80.7L62.8,79.9L62.9,78.3L63.0,77.7L64.0,75.7L64.4,75.3Z M64.7,63.8L64.9,63.7L65.0,63.9L65.2,64.3L65.4,64.5L65.9,64.7L66.5,64.5L67.1,63.9L67.2,63.9L67.5,64.3L67.4,65.4L67.3,65.7L66.8,66.2L66.2,66.5L65.4,66.5L65.0,66.4L64.7,66.1L64.4,65.5L64.4,64.6Z M65.2,62.7L65.4,62.1L65.8,61.8L66.5,61.8L66.8,62.1L66.8,62.4L66.7,62.6L65.9,62.6L65.6,62.8Z M65.7,14.4L66.4,14.3L66.9,14.6L66.8,14.8L66.3,14.9L66.0,15.2L66.0,15.7L66.3,16.1L67.3,16.3L67.2,16.6L66.6,16.9L65.6,16.9L65.0,16.3L65.0,15.0Z" fill="#000" fill-rule="evenodd"/>
</svg>