<svg xmlns="http://www.w3.org/2000/svg" viewBox="0 0 128 128" width="128" height="128">
  <path d="M78.0,98.4L77.2,98.7L75.8,100.1L75.6,100.5L75.6,101.7L75.9,102.9L76.4,103.5L77.4,104.2L78.0,104.3L78.9,104.3L80.0,103.8L80.4,103.4L81.1,102.1L81.1,100.7L80.6,99.5L79.6,98.8L78.7,98.4Z M77.8,91.1L77.0,91.4L75.9,91.4L73.5,92.3L73.2,92.6L71.9,93.4L70.3,94.9L69.6,96.1L68.7,98.1L68.4,100.4L68.3,102.0L68.5,103.4L69.1,105.4L69.6,106.3L70.7,108.0L72.4,109.6L72.8,109.7L74.5,110.9L75.4,111.3L76.1,111.5L78.3,111.5L79.3,111.7L80.0,111.6L82.0,110.9L84.2,109.8L85.5,108.6L86.7,107.0L87.3,105.9L87.5,105.1L88.1,104.0L88.2,102.8L88.2,99.5L87.6,97.4L86.6,95.7L86.2,95.1L84.2,93.1L82.4,92.1L82.2,92.1L80.6,91.4L79.4,91.1Z M77.2,95.8L79.2,95.8L80.0,96.0L81.2,96.6L81.8,97.0L82.9,98.0L83.8,99.5L84.1,100.8L84.1,101.8L83.8,102.9L83.8,103.3L82.8,105.3L81.1,106.5L79.3,107.2L77.2,107.1L75.5,106.5L74.6,105.9L73.9,105.3L73.1,104.1L72.6,102.5L72.6,100.8L73.1,99.0L73.4,98.4L75.2,96.7L76.1,96.2Z M99.1,76.7L98.4,77.1L97.3,78.0L96.9,78.8L96.9,80.2L97.5,81.4L98.4,82.2L99.1,82.5L100.7,82.4L101.6,81.9L102.4,81.0L102.7,80.1L102.5,78.8L102.4,78.3L101.9,77.6L101.1,77.0L100.4,76.7Z M97.1,69.8L95.9,70.3L95.4,70.6L94.7,70.8L93.9,71.4L91.5,73.5L90.8,74.5L90.6,75.4L89.9,76.9L89.7,78.0L89.6,80.2L90.2,82.6L91.1,84.7L92.4,86.5L93.8,87.8L94.9,88.4L96.0,88.9L98.6,89.7L100.3,89.7L102.8,89.4L104.7,88.5L105.7,87.8L106.8,86.9L107.7,85.9L108.5,84.8L109.2,83.5L109.3,82.5L109.8,81.3L109.9,78.6L109.5,76.9L108.3,74.4L107.5,73.2L106.6,72.2L104.9,70.9L103.6,70.3L102.4,69.8L101.1,69.6L98.6,69.6L98.1,69.8Z M98.4,74.0L101.0,74.1L102.4,74.6L103.4,75.1L104.8,76.8L105.4,78.3L105.5,80.3L105.4,81.0L105.1,82.1L104.2,83.3L103.6,83.9L101.7,85.1L101.0,85.2L99.4,85.3L98.1,85.1L97.1,84.7L95.9,83.8L95.0,82.8L94.0,80.3L94.2,78.3L95.0,76.5L96.5,75.1L97.9,74.1Z M99.5,46.0L98.5,46.3L97.6,47.0L96.8,48.2L96.8,49.2L97.0,49.9L97.6,50.9L99.4,51.8L100.3,51.8L101.2,51.4L102.1,50.7L102.5,49.7L102.6,48.6L102.2,47.5L101.6,46.7L100.6,46.1Z M97.7,38.9L95.3,39.7L94.0,40.4L93.4,40.9L91.1,43.3L89.7,46.1L89.4,48.1L89.5,50.5L89.8,51.3L90.1,52.6L90.6,53.3L90.6,53.4L92.2,55.6L94.0,57.3L96.1,58.4L97.7,58.9L99.4,59.1L101.8,58.9L102.4,58.7L103.6,58.4L105.0,57.7L106.0,57.1L106.9,56.2L108.0,55.0L108.3,54.1L109.1,52.9L109.8,49.5L109.8,48.1L109.6,47.7L109.4,46.2L108.6,44.2L107.4,42.4L106.2,41.2L104.3,39.9L103.0,39.4L101.0,38.9Z M99.0,43.1L101.2,43.3L102.3,43.8L103.2,44.5L103.6,44.7L104.0,45.0L104.7,46.3L105.2,47.6L105.5,49.0L105.3,50.5L104.6,51.9L103.1,53.5L102.1,54.2L101.1,54.6L100.0,54.8L98.9,54.8L97.6,54.4L96.2,53.4L95.0,52.2L94.4,51.0L93.9,48.5L93.9,48.1L94.5,46.3L95.0,45.4L95.9,44.5L97.7,43.3Z M77.2,24.2L76.5,24.5L75.9,25.1L75.2,26.6L75.2,27.5L75.4,28.3L76.4,29.4L77.5,29.9L78.5,29.9L79.4,29.6L80.4,28.6L80.8,27.4L80.7,25.9L79.6,24.6L79.0,24.3Z M48.2,24.2L47.3,24.2L46.4,24.3L45.9,24.6L44.9,25.4L44.5,26.4L44.5,27.9L44.8,28.6L45.6,29.5L46.5,30.0L47.7,30.1L48.9,29.6L49.6,29.0L50.2,28.0L50.3,26.8L50.0,25.9L49.7,25.4L48.7,24.4Z M45.6,17.2L43.0,17.9L41.4,19.0L40.3,19.9L38.8,21.7L38.5,22.5L37.9,23.3L37.3,25.3L37.2,28.3L38.1,31.2L39.4,33.2L41.0,34.9L41.7,35.4L42.5,35.8L43.3,36.4L44.1,36.7L46.3,37.1L49.2,37.1L50.8,36.7L53.2,35.5L55.6,33.2L55.8,32.5L56.6,31.3L57.2,29.5L57.4,27.7L57.4,26.2L57.3,24.9L56.9,23.7L55.7,21.4L53.8,19.4L51.4,17.9L49.9,17.4L47.9,17.0Z M46.7,21.4L48.5,21.5L49.3,21.6L51.0,22.7L52.1,24.1L52.6,25.2L53.1,27.4L53.0,28.7L51.7,30.8L50.5,32.0L50.1,32.2L48.8,32.7L47.8,32.9L46.2,32.7L45.7,32.5L44.8,32.3L44.2,32.0L43.1,31.0L42.5,30.1L41.6,28.0L41.7,26.0L41.9,25.3L42.7,23.7L43.8,22.6L45.3,21.7Z M77.0,16.8L74.1,17.5L72.2,18.5L70.7,19.9L69.7,21.4L69.3,21.8L68.6,23.2L68.3,24.2L68.2,25.3L68.0,25.9L68.0,28.3L68.5,30.6L69.8,33.1L70.8,34.2L72.0,35.2L73.3,36.0L75.4,36.9L76.2,37.0L79.0,37.1L81.1,36.7L83.2,35.8L84.6,34.8L85.6,33.8L86.2,32.9L86.3,32.6L86.8,32.0L87.5,30.6L87.6,29.7L87.9,29.2L87.9,28.1L88.1,27.1L88.1,26.2L87.9,24.8L86.9,22.2L85.7,20.6L84.0,19.0L81.6,17.7L78.9,16.9Z M76.9,21.3L79.1,21.3L81.4,22.4L82.7,23.6L83.1,24.2L83.8,26.0L83.9,27.1L83.7,27.8L83.7,28.8L83.3,29.6L82.5,30.7L81.6,31.6L80.6,32.2L79.3,32.7L76.6,32.7L75.2,32.2L73.3,30.5L72.8,29.6L72.3,28.1L72.3,25.9L72.7,24.6L73.2,23.8L74.7,22.3L75.9,21.6Z M41.5,10.5L38.4,11.7L35.9,13.6L34.1,15.3L32.1,18.0L30.8,20.9L30.8,21.2L30.4,22.2L30.2,23.4L29.9,24.0L29.7,28.1L29.9,30.1L30.2,30.7L30.4,31.8L31.9,35.8L32.4,36.2L33.8,38.4L34.9,39.6L37.2,41.9L38.1,43.0L40.8,45.8L41.2,46.0L47.2,52.0L48.9,53.5L49.8,54.5L52.3,56.9L52.6,57.4L54.8,59.3L56.5,61.2L57.1,61.6L57.1,62.0L56.1,62.2L53.1,61.9L50.4,62.0L44.1,61.9L34.7,62.0L32.6,61.9L32.0,61.5L31.9,60.9L31.7,59.0L31.7,41.9L31.4,40.0L30.3,37.8L28.9,36.2L27.9,35.4L27.2,35.0L24.8,34.4L24.3,34.1L24.2,33.7L24.4,33.5L24.6,32.7L25.1,31.9L26.8,28.5L26.8,26.4L26.4,25.4L25.1,24.3L24.3,24.1L22.9,24.2L21.8,24.8L20.8,25.7L20.4,26.7L20.4,28.1L21.1,29.6L22.7,32.0L23.7,34.0L23.0,34.5L21.9,34.7L20.4,35.1L19.2,35.8L18.4,36.6L17.5,38.0L16.7,38.8L14.8,41.7L14.2,42.3L13.9,42.8L12.9,44.2L12.2,45.5L11.2,46.6L10.8,47.3L10.8,47.8L11.2,48.1L13.2,48.1L13.7,48.0L15.8,48.0L17.0,48.1L18.7,48.8L19.1,49.2L19.3,50.2L19.2,51.3L18.5,52.9L17.6,54.8L15.4,58.2L14.4,60.2L12.9,64.6L12.2,68.7L12.1,71.9L12.3,74.4L13.0,76.7L13.5,77.9L14.5,79.5L15.4,80.9L17.2,82.9L18.6,84.1L19.9,84.8L20.3,85.2L22.1,86.3L25.1,87.6L26.4,87.8L28.7,88.5L33.5,89.0L37.5,89.0L39.6,89.3L43.8,89.4L52.1,89.4L52.7,89.6L53.1,90.2L53.2,90.9L53.1,101.9L53.0,102.2L53.1,103.3L53.2,106.3L53.1,109.5L52.7,110.0L52.5,110.1L48.3,110.1L48.0,110.3L48.1,114.5L48.4,114.9L53.9,114.8L57.6,114.9L58.0,114.6L58.1,107.7L57.9,106.2L57.9,101.6L57.7,97.1L57.8,89.6L57.4,88.9L57.4,88.6L57.7,87.9L57.6,85.0L56.9,84.3L55.2,84.3L46.3,84.7L37.2,84.7L35.1,84.7L33.8,84.3L31.0,84.1L30.1,83.7L29.1,83.6L27.2,83.2L25.7,82.5L24.8,82.3L21.9,80.6L20.6,79.7L19.5,78.6L18.5,77.2L17.6,75.7L16.7,72.8L16.6,68.8L16.8,68.1L16.8,67.2L17.1,66.2L17.3,65.8L18.2,63.4L20.6,58.5L20.9,57.6L21.6,56.6L22.8,54.2L23.8,51.6L24.0,50.3L24.0,48.1L23.6,46.8L23.3,46.2L22.1,45.2L21.0,44.6L19.6,44.2L19.2,43.9L19.6,42.9L20.2,42.3L21.0,40.8L22.3,39.6L22.9,39.1L23.7,39.0L25.1,39.2L25.7,39.6L26.6,40.5L26.9,41.0L27.1,41.8L27.1,50.6L27.2,53.7L27.2,54.8L27.3,56.4L27.2,57.8L27.2,64.2L27.1,66.2L27.5,66.6L43.6,66.6L49.6,66.7L55.7,66.7L57.1,66.6L59.1,66.6L59.8,66.7L60.2,67.2L60.5,69.6L60.5,71.7L60.6,73.3L60.6,75.9L60.5,76.4L60.5,77.1L60.7,78.9L60.6,81.9L60.7,84.1L60.6,96.3L60.8,97.0L60.7,98.0L60.9,99.0L60.8,101.6L61.2,105.6L61.9,107.5L62.1,107.9L62.2,108.5L63.7,111.4L66.3,114.3L67.1,115.0L68.5,115.8L69.8,116.9L70.7,117.2L71.7,117.8L74.9,118.7L76.3,119.0L80.1,119.0L82.8,118.6L83.9,118.3L87.0,116.9L88.4,115.9L89.0,115.7L90.4,114.4L92.3,112.4L93.0,111.4L93.1,111.1L94.1,109.6L95.3,106.6L95.7,104.5L95.8,99.7L95.5,97.7L95.3,97.4L95.3,97.0L95.6,96.7L97.6,97.2L102.2,97.2L103.7,96.9L104.5,96.6L105.6,96.4L106.4,96.1L107.0,96.0L108.3,95.1L109.4,94.6L112.0,92.6L114.2,90.1L115.1,88.4L115.7,87.8L116.1,86.9L116.4,85.7L117.1,84.0L117.2,82.9L117.4,82.0L117.5,80.3L117.4,76.8L116.5,73.4L114.7,70.1L113.8,69.1L113.6,68.6L113.0,67.9L110.6,65.8L109.4,65.1L108.4,64.7L108.2,64.5L108.2,64.3L110.4,63.0L111.2,62.3L112.1,61.7L113.2,60.6L114.7,58.5L116.3,55.5L116.7,54.0L116.7,53.0L117.2,51.4L117.2,50.2L117.4,49.2L117.1,45.4L116.5,43.0L115.4,40.5L114.5,39.3L114.1,38.6L112.9,36.9L110.4,34.7L107.7,33.0L104.2,31.6L102.9,31.4L101.2,31.0L98.1,31.1L97.4,31.3L96.1,31.5L95.5,31.7L95.0,31.7L94.9,31.6L95.0,31.0L95.2,30.6L95.5,29.3L95.8,27.2L95.5,23.2L95.1,22.6L95.0,21.8L93.9,19.2L92.3,16.4L89.7,13.7L87.9,12.3L85.0,10.7L82.0,9.6L80.3,9.4L76.3,9.3L72.3,10.0L71.9,10.3L71.0,10.5L70.6,10.8L70.3,10.8L69.7,11.2L68.5,11.7L68.0,12.1L67.5,12.3L64.9,15.0L63.3,17.3L63.1,18.3L62.7,18.6L62.5,18.6L62.0,18.0L62.0,17.7L61.4,16.3L59.1,13.8L57.0,12.3L54.3,10.8L53.1,10.3L49.4,9.4L45.6,9.4Z M65.2,70.3L65.7,70.2L65.9,70.4L66.5,71.1L70.0,74.6L70.1,75.0L78.3,83.1L78.5,83.5L87.0,91.7L89.7,94.9L90.3,96.2L91.2,98.4L91.4,101.1L91.4,103.0L90.4,106.6L88.7,109.5L87.0,111.3L84.9,112.8L83.3,113.7L80.7,114.5L79.2,114.7L76.5,114.5L73.7,113.8L71.5,112.7L69.8,111.5L67.5,109.1L66.9,108.0L66.4,107.1L65.8,105.4L65.6,104.1L65.4,103.7L65.3,100.1L65.3,93.9L65.2,92.6L65.2,83.5L65.3,81.0L65.4,80.4L65.2,79.6L65.1,78.2Z M111.9,84.7L110.9,86.6L110.3,87.5L108.1,89.8L107.2,90.5L104.8,91.8L102.2,92.6L100.6,92.7L98.0,92.6L96.8,92.5L95.4,92.1L92.9,90.9L89.6,88.2L89.0,87.4L87.0,85.4L86.6,84.9L84.4,82.8L83.9,82.1L83.1,81.3L82.7,81.0L76.0,74.4L75.4,73.6L74.7,73.1L74.1,72.4L68.7,67.0L68.8,66.6L77.3,66.6L80.2,66.7L84.8,66.7L85.9,66.6L87.8,66.6L89.2,66.8L90.2,66.8L91.0,66.6L98.7,66.5L101.6,66.6L103.5,67.1L104.8,67.6L107.6,69.1L110.0,71.5L110.3,72.0L111.5,73.6L111.6,74.1L112.1,75.0L112.8,77.8L112.8,81.0L112.5,82.8L112.2,83.6Z M112.4,45.5L112.6,47.1L112.6,51.0L112.0,53.4L110.9,55.7L110.4,56.6L109.7,57.4L109.5,57.8L108.6,58.7L107.7,59.2L107.2,59.8L106.1,60.4L104.4,61.3L103.3,61.4L102.4,61.8L100.6,62.0L93.3,62.0L92.3,61.9L90.2,61.9L87.9,61.8L82.8,61.8L80.7,61.9L72.9,61.9L71.8,62.1L70.1,62.1L69.3,62.3L68.2,62.2L68.1,61.9L69.2,61.2L71.0,59.2L72.4,58.0L73.5,56.7L76.1,54.4L76.6,53.7L80.8,49.6L81.6,48.6L83.9,46.5L91.2,38.7L94.1,36.6L95.0,36.4L95.4,36.2L96.5,36.0L97.1,35.7L100.5,35.7L101.7,35.9L102.4,36.1L103.5,36.2L105.2,37.0L105.6,37.1L107.2,38.1L109.4,40.2L111.3,42.9L111.7,44.3Z M42.4,15.0L43.8,14.5L46.1,14.0L49.0,14.1L51.7,14.7L53.8,15.7L55.7,17.0L58.0,19.6L59.5,22.1L60.3,25.6L60.5,27.7L60.3,30.6L60.4,48.6L60.6,49.4L60.6,51.5L60.5,52.9L61.0,54.2L61.0,54.7L60.6,55.5L60.6,58.2L60.1,58.3L59.6,58.0L57.4,55.8L57.4,55.5L52.1,50.2L51.9,49.9L46.8,44.9L46.5,44.7L45.7,43.7L44.8,43.1L43.4,41.6L43.0,41.3L42.0,40.3L39.4,37.5L38.1,36.2L36.7,34.7L35.7,33.1L35.6,32.6L35.2,32.0L34.8,30.7L34.3,28.5L34.3,26.3L34.6,24.8L34.6,23.9L34.8,23.0L36.0,20.5L37.2,18.9L39.9,16.2Z M83.1,14.8L85.0,15.8L87.6,18.0L88.2,19.0L88.8,19.5L89.2,20.1L90.3,22.3L90.9,24.4L91.1,25.7L91.0,28.8L90.8,30.5L90.4,31.3L90.3,32.1L88.5,34.9L86.7,37.0L85.0,38.6L83.9,40.1L83.0,40.7L77.0,46.7L76.3,47.6L75.9,47.8L74.4,49.4L72.1,51.7L71.3,52.6L68.7,55.0L68.5,55.5L67.9,56.0L66.3,57.8L65.5,58.9L65.2,58.9L65.2,55.3L65.0,51.9L65.2,45.0L65.0,41.3L65.2,40.3L65.2,39.2L65.0,38.6L65.1,36.4L64.9,35.5L64.8,31.6L65.0,28.8L65.0,24.9L65.2,24.0L65.6,23.0L65.7,22.3L67.1,19.5L68.0,18.4L70.0,16.5L71.2,15.9L72.8,14.7L74.5,14.2L76.8,13.8L78.9,13.8L79.5,14.0L81.0,14.1Z" fill="#000" fill-rule="evenodd"/>
</svg>