<svg xmlns="http://www.w3.org/2000/svg" viewBox="0 0 128 128" width="128" height="128">
  <path d="M47.2,10.6L46.3,11.2L45.6,11.9L44.0,14.4L43.7,15.3L43.7,17.5L44.3,19.6L45.3,21.2L46.2,22.0L47.1,22.4L47.8,22.5L48.1,22.8L48.9,23.0L51.5,23.0L52.4,22.9L53.8,21.9L54.9,20.7L55.7,19.1L56.0,17.7L56.0,16.0L55.5,14.0L53.9,11.6L52.6,10.5L52.1,10.2L51.2,10.1L49.1,10.1Z M50.4,12.1L51.8,12.8L52.8,13.7L53.5,14.9L53.7,15.4L53.6,16.0L53.1,16.0L52.3,15.4L50.8,15.4L50.0,15.8L49.5,16.2L49.1,16.8L48.9,17.6L49.1,19.1L49.5,20.0L49.5,20.3L49.3,20.5L49.0,20.5L48.5,20.2L46.4,18.1L45.6,16.2L45.6,15.4L46.3,14.0L47.2,13.2L48.8,12.3L49.4,12.1Z M95.9,15.3L93.9,14.6L90.8,13.9L90.1,13.6L89.4,13.5L85.3,12.0L84.8,12.0L83.3,11.6L82.2,11.5L81.2,11.1L80.2,11.0L79.4,10.8L74.8,10.3L71.2,9.6L69.1,9.6L67.6,9.4L62.7,9.4L61.5,9.3L59.3,9.4L57.4,9.6L57.1,9.9L57.2,11.5L57.4,12.5L57.6,12.8L58.0,16.7L58.0,30.0L58.2,32.4L58.1,36.7L57.6,37.2L56.9,37.3L56.5,37.5L55.0,37.6L53.1,38.3L50.5,39.9L49.5,40.7L48.7,41.7L47.6,44.3L47.2,44.8L46.3,47.8L46.1,49.4L46.3,51.5L45.9,52.9L45.7,55.6L45.5,57.1L45.6,61.6L45.2,62.1L44.8,62.3L42.9,62.8L40.4,62.9L37.6,63.5L35.8,63.6L33.8,63.0L32.8,62.5L31.9,61.9L30.2,60.3L29.5,58.9L29.1,57.0L29.0,54.1L28.8,52.3L28.9,47.4L29.0,46.7L29.0,45.0L29.6,42.3L29.7,39.2L30.3,37.5L31.4,32.5L32.1,30.8L32.5,29.6L32.8,29.1L33.5,27.6L36.5,21.7L37.3,20.7L38.8,19.4L39.4,18.3L40.3,16.9L41.1,15.5L43.1,13.7L45.3,11.1L45.3,10.4L44.5,10.4L41.9,11.8L40.2,12.5L38.9,12.8L36.1,14.0L35.0,14.2L34.0,14.7L33.3,14.7L30.9,15.5L30.5,15.5L28.7,16.4L26.8,17.7L24.3,20.2L22.2,22.7L21.5,23.4L20.0,25.7L19.6,26.7L19.3,27.0L18.8,28.6L18.5,30.1L18.0,31.6L17.6,34.3L17.4,34.6L16.7,38.1L16.7,44.7L16.4,46.3L16.3,48.2L16.2,48.8L16.2,51.5L16.4,55.3L16.9,57.6L16.9,58.5L17.3,61.2L17.6,65.0L18.5,70.0L19.1,74.0L20.3,78.5L20.3,79.1L20.7,81.0L20.8,82.5L21.8,85.9L22.8,87.7L26.6,92.4L27.8,93.7L29.6,95.1L32.3,96.7L33.5,97.1L34.1,97.2L36.5,98.2L39.6,98.3L40.3,98.7L41.3,98.9L42.2,99.2L44.8,99.6L45.8,100.1L46.0,100.8L47.1,103.3L48.2,105.0L48.2,106.0L47.4,108.4L47.4,108.8L47.0,109.4L46.7,109.5L45.6,109.5L44.4,109.7L43.4,110.3L42.5,111.2L40.7,115.5L40.7,116.9L41.0,117.1L41.7,117.1L42.9,116.5L47.1,112.8L48.0,112.7L49.5,113.3L50.8,113.3L51.6,113.0L51.9,112.7L52.1,111.9L49.9,110.2L49.9,109.0L50.3,107.1L50.3,106.1L50.5,105.8L52.7,103.7L55.0,101.4L55.7,101.2L56.9,101.2L57.6,101.5L57.8,102.2L58.4,103.1L58.8,104.4L59.9,106.2L59.9,107.5L59.7,108.5L59.8,110.3L59.6,110.7L59.2,111.1L56.9,111.3L55.7,111.8L54.6,112.6L53.3,115.0L52.5,117.4L52.4,118.5L52.8,118.9L53.1,119.0L53.8,118.9L54.7,118.4L55.9,116.9L56.9,115.8L58.4,114.8L59.0,114.2L60.1,113.6L61.0,113.6L62.9,115.1L63.7,115.4L64.8,115.2L65.6,114.6L65.6,114.1L65.2,113.5L64.1,112.5L62.5,111.7L62.2,111.4L62.5,110.1L62.5,108.8L62.7,108.2L62.6,106.1L62.8,105.8L65.9,102.8L66.3,102.6L68.2,102.7L70.9,103.3L73.6,103.7L77.0,103.8L80.4,104.2L82.4,104.7L84.7,105.0L87.0,105.8L88.5,105.9L90.1,106.4L90.9,106.4L92.2,106.9L93.0,107.0L95.5,107.8L96.9,108.0L98.6,108.6L99.0,108.6L101.3,109.3L102.5,109.1L103.7,108.4L104.8,107.3L105.3,106.5L105.7,105.2L105.7,104.6L106.0,103.6L106.0,102.7L105.8,101.7L105.4,101.1L105.4,100.5L106.5,99.5L107.1,98.6L107.9,97.8L108.0,97.1L108.0,96.3L107.8,95.2L106.9,94.1L106.9,93.8L108.9,92.0L109.7,90.8L110.1,90.0L110.1,88.5L109.7,87.5L109.7,86.8L109.3,85.9L108.6,85.1L108.5,84.7L108.9,84.2L109.7,83.9L110.7,82.8L110.9,82.3L110.7,80.3L109.6,77.9L109.6,77.5L110.5,76.4L111.3,74.3L111.3,73.4L111.1,72.7L110.3,71.2L109.6,71.0L107.1,70.6L102.0,70.7L99.8,71.2L99.0,71.2L97.7,71.6L96.4,71.7L95.8,71.9L94.5,71.9L90.1,72.7L89.8,72.8L88.0,73.1L87.4,73.4L86.9,73.4L85.2,73.8L84.0,73.9L82.8,74.3L82.1,74.3L81.0,73.8L80.3,73.1L79.4,72.5L76.8,71.4L74.3,71.0L72.0,70.9L69.6,70.4L66.8,70.1L62.7,69.4L60.6,69.3L59.6,69.0L57.5,68.9L54.9,68.5L54.0,68.5L52.0,68.0L51.4,67.6L50.4,67.4L49.3,66.5L48.3,64.6L48.3,64.3L47.8,63.0L47.8,62.0L47.7,61.2L47.8,54.0L48.4,51.4L48.6,48.5L49.8,44.8L50.9,43.0L53.1,41.0L56.1,39.5L57.9,39.0L59.9,39.1L61.1,38.9L61.4,38.8L65.1,38.6L68.5,39.2L70.4,39.2L71.7,39.6L74.9,39.8L78.1,39.7L79.6,40.0L81.4,40.0L81.9,40.2L83.4,40.3L85.0,40.6L85.7,40.6L87.7,41.0L91.1,41.1L93.7,41.7L96.5,41.8L99.7,42.6L101.8,43.0L103.8,43.8L104.4,43.9L106.0,44.8L106.6,44.8L107.9,45.4L109.6,46.5L110.9,47.8L111.6,47.8L111.9,47.4L112.1,46.2L112.1,40.0L111.8,38.3L111.3,34.5L111.0,33.5L110.3,30.1L109.7,28.7L107.8,25.3L106.5,23.5L103.4,20.2L98.4,16.6L97.2,16.1Z M81.6,98.0L81.7,97.6L81.8,97.5L83.2,97.5L84.1,97.8L85.8,97.8L87.3,98.1L89.2,98.2L89.1,98.4L88.4,98.5L86.2,98.5L82.4,98.3L81.7,98.2Z M83.0,91.3L83.4,90.9L89.0,90.9L90.5,91.5L91.8,91.7L92.5,91.7L92.8,91.8L93.0,92.1L92.8,92.2L91.0,92.1L83.7,91.9L83.2,91.7L83.0,91.5Z M92.2,84.7L92.0,84.7L91.8,84.8L88.7,85.0L86.7,85.4L85.4,85.3L83.6,85.5L83.2,85.3L83.2,84.8L83.5,84.6L84.1,84.4L88.5,84.2L91.0,84.3Z M95.4,78.5L95.1,78.7L92.7,79.0L91.7,79.3L88.7,79.5L84.0,79.5L83.6,79.4L83.3,79.2L83.3,79.0L83.6,78.7L84.7,78.6L87.5,78.6L88.3,78.4L90.0,78.5L93.3,78.2L95.2,78.2Z M34.3,75.7L34.6,75.4L35.0,75.4L35.2,75.7L35.2,79.1L35.7,81.3L36.6,83.7L39.1,87.5L40.3,88.7L41.6,89.4L42.5,89.5L44.1,90.2L45.0,90.3L46.1,90.8L47.0,91.0L48.7,92.0L51.1,93.0L55.3,93.9L56.3,94.0L57.7,94.4L59.7,94.5L60.6,94.6L65.4,94.7L67.2,94.5L69.3,94.4L70.9,94.6L71.1,95.0L70.4,95.4L68.4,96.0L63.1,96.0L59.6,95.3L54.3,94.5L52.5,94.0L49.8,93.7L49.1,93.4L48.6,93.4L47.9,93.0L47.6,93.0L47.0,92.7L46.2,92.5L44.0,91.5L43.4,91.0L42.5,90.7L41.8,90.3L39.2,89.2L37.3,87.6L35.4,85.5L34.9,84.7L34.3,83.5L33.8,81.6L33.5,79.4L33.5,77.9L33.8,76.6Z M66.0,12.7L70.7,12.6L71.9,12.9L77.1,13.2L80.4,13.9L81.9,14.0L82.7,14.5L85.6,15.2L86.3,15.5L92.2,16.7L95.3,17.7L95.8,18.0L96.7,18.2L97.2,18.5L97.8,18.7L100.4,20.2L101.2,20.9L102.3,21.6L105.1,24.5L106.3,25.9L108.5,29.7L108.8,32.0L108.8,34.9L108.6,35.1L108.2,35.0L106.9,33.8L105.8,33.1L103.8,31.3L103.1,31.0L101.3,29.7L100.5,29.4L99.9,28.9L98.7,28.2L95.0,25.4L91.4,23.3L88.9,21.5L88.1,21.4L87.4,20.9L87.0,20.8L86.5,20.5L84.8,19.9L83.2,19.0L81.8,18.6L80.8,18.1L79.6,17.7L79.3,17.5L77.1,16.8L75.5,16.0L74.1,15.6L73.8,15.4L72.4,15.2L69.7,14.2L67.4,13.7L66.9,13.4L66.2,13.2L65.9,13.0Z" fill="#000" fill-rule="evenodd"/>
</svg>