<svg xmlns="http://www.w3.org/2000/svg" viewBox="0 0 128 128" width="128" height="128">
  <path d="M9.2,59.3L9.2,59.6L9.6,60.0L11.3,60.3L13.0,60.5L15.5,61.2L17.7,61.6L22.5,61.8L25.8,62.2L27.8,62.2L29.8,62.5L32.8,62.7L35.5,63.1L37.6,63.2L39.7,63.5L42.7,63.6L43.9,63.9L47.8,64.2L49.3,64.4L53.1,64.7L53.3,64.8L57.8,65.1L61.3,65.9L63.2,66.7L64.7,67.8L65.8,68.9L67.2,71.4L68.0,73.7L68.3,75.4L68.3,76.5L68.4,77.6L68.4,79.8L68.5,80.9L68.5,84.2L68.8,87.2L69.6,91.5L70.4,93.4L71.5,95.6L72.6,96.8L72.8,97.3L75.0,99.6L75.8,100.1L77.2,101.5L79.1,102.7L80.2,103.2L80.7,103.6L84.6,105.1L85.7,105.2L86.0,105.4L86.8,105.4L87.5,105.6L91.2,106.0L95.3,105.8L96.2,105.5L97.5,105.4L98.3,105.1L99.5,104.8L100.9,104.4L102.4,103.7L105.1,101.8L105.3,101.4L104.9,101.1L104.0,101.3L101.8,101.3L99.9,101.0L98.2,100.4L96.9,99.8L94.5,98.1L93.0,96.6L91.2,94.2L90.0,91.9L89.3,89.7L89.3,89.0L89.0,88.2L88.9,86.9L89.0,82.9L89.5,80.9L90.7,78.5L92.5,76.3L94.1,74.9L97.0,73.1L100.0,71.8L102.7,71.0L105.8,70.5L107.0,70.2L114.7,69.4L117.6,68.9L118.7,68.4L119.1,67.9L119.0,67.3L118.6,66.9L117.3,66.2L116.6,66.2L116.0,65.8L115.1,65.7L114.3,65.4L113.3,65.3L112.9,65.1L110.4,64.4L109.4,64.0L109.2,64.0L109.0,63.8L108.8,63.8L107.4,62.9L107.0,62.9L106.4,62.4L104.4,60.3L103.0,58.1L101.4,54.2L100.7,51.5L100.4,51.0L100.2,49.6L99.6,47.8L99.0,44.7L98.3,42.4L98.3,42.1L97.8,40.5L96.7,37.4L95.4,34.7L95.1,34.4L94.4,33.1L92.8,30.8L91.6,29.5L89.0,26.9L87.2,25.6L84.8,24.2L83.8,23.8L83.0,23.6L81.2,23.0L79.0,22.7L78.3,22.5L77.1,22.5L76.8,22.6L76.6,23.0L76.2,23.0L76.2,22.6L75.7,22.2L72.4,22.4L68.8,22.9L66.9,23.6L66.0,23.7L63.7,24.7L63.5,24.7L62.3,25.4L61.7,25.6L61.3,26.0L61.3,26.2L61.6,26.4L63.1,26.4L64.0,26.6L65.5,26.8L66.5,27.1L68.4,28.0L70.6,29.4L72.7,31.2L74.6,33.8L75.6,35.7L76.8,39.1L77.3,43.0L77.3,45.3L76.9,48.4L76.2,50.7L75.4,52.4L74.6,53.8L74.1,54.3L73.6,55.2L71.7,57.1L69.3,58.7L67.9,59.4L66.9,59.6L66.6,59.8L62.8,60.6L54.2,60.6L48.0,60.3L45.5,60.3L40.9,60.0L36.4,59.9L34.2,59.6L26.4,59.5L24.8,59.2L24.2,59.2L22.9,58.8L22.5,58.8L19.5,57.4L17.5,57.3L15.0,57.4L13.9,57.8L12.9,58.6L9.6,59.0Z" fill="#000" fill-rule="evenodd"/>
</svg>