<svg xmlns="http://www.w3.org/2000/svg" viewBox="0 0 128 128" width="128" height="128">
  <path d="M62.6,8.9L60.8,9.1L59.3,9.4L57.0,10.5L55.4,11.9L55.0,12.5L49.9,17.5L48.5,19.1L47.8,19.6L47.1,20.5L45.8,21.8L42.1,25.7L42.1,26.2L43.4,26.4L47.6,26.5L49.4,26.5L51.2,26.6L58.9,26.7L59.5,26.9L62.5,26.9L63.4,27.0L63.6,27.2L63.6,27.6L63.2,28.2L63.1,28.7L62.3,29.7L62.0,30.3L61.3,31.4L58.1,36.8L57.8,37.5L56.8,38.8L55.9,40.5L55.3,41.2L55.1,41.8L53.1,44.9L52.1,46.8L51.8,47.2L48.5,52.9L47.5,54.2L47.3,54.8L43.0,61.9L41.6,64.9L41.0,68.0L41.1,70.7L41.3,71.9L41.5,72.1L41.5,72.6L42.1,74.3L43.0,76.2L44.3,77.9L46.2,79.8L48.6,81.3L49.0,81.4L50.1,82.0L51.7,82.4L52.3,82.4L54.1,82.7L55.0,82.7L57.1,82.5L58.6,82.1L59.1,82.1L59.2,82.3L59.3,84.2L59.1,88.2L59.2,101.4L59.4,104.6L59.5,114.9L59.7,116.1L59.6,118.6L59.7,119.0L60.1,119.2L61.4,119.2L62.2,119.1L62.7,118.6L62.5,115.1L62.6,113.3L62.5,112.0L62.5,109.0L62.2,105.1L62.2,100.2L62.0,91.1L62.2,89.7L62.1,88.9L62.2,82.3L62.5,80.1L63.2,79.3L64.9,77.9L70.4,72.4L73.9,68.7L75.9,66.8L76.8,65.8L86.8,55.6L87.2,55.1L87.0,54.8L84.3,54.7L56.0,54.2L54.8,54.0L52.9,54.1L51.8,54.0L51.5,53.9L51.5,53.5L52.8,51.1L54.6,48.3L56.7,44.7L57.0,44.3L58.5,41.9L58.8,41.3L60.1,39.3L60.8,37.9L61.1,37.6L62.1,35.9L62.8,35.1L63.3,33.9L64.5,32.1L65.0,31.1L66.4,29.0L66.6,28.6L67.4,27.5L68.2,25.9L68.8,25.1L69.8,23.3L70.5,22.3L70.9,21.5L71.3,20.2L71.4,19.4L71.4,17.1L71.3,16.2L70.5,14.1L69.6,12.7L68.2,11.1L67.0,10.2L66.4,10.0L66.1,9.7L64.2,9.1Z M61.4,15.4L63.0,15.5L64.2,16.1L64.7,16.7L65.0,17.1L65.1,17.7L65.1,19.0L64.7,19.9L63.9,20.7L63.3,21.1L62.8,21.2L61.7,21.2L60.8,21.0L60.3,20.7L59.6,19.9L59.2,18.9L59.2,17.8L59.5,16.8L60.3,16.0Z" fill="#000" fill-rule="evenodd"/>
</svg>