<svg xmlns="http://www.w3.org/2000/svg" viewBox="0 0 128 128" width="128" height="128">
  <path d="M9.3,30.9L9.3,31.5L14.9,37.6L15.3,38.2L15.3,38.8L15.3,54.1L15.5,58.0L15.4,90.6L15.8,93.6L16.2,95.2L17.1,97.6L18.9,100.9L20.3,102.6L22.5,104.8L24.1,106.1L26.5,107.4L29.5,108.6L32.5,109.2L36.2,109.2L39.3,108.6L42.5,107.6L43.0,107.3L43.7,107.0L45.1,106.1L45.8,105.4L45.8,105.2L45.5,104.5L44.6,103.2L43.5,100.9L42.2,97.4L41.4,93.7L41.2,91.6L41.2,56.4L41.4,50.6L41.3,40.0L41.4,32.3L41.7,31.9L41.9,31.9L47.1,37.3L47.6,38.2L47.6,89.4L47.3,90.4L47.7,92.4L47.6,93.4L48.1,94.8L48.2,95.6L48.5,96.4L48.7,97.3L49.0,97.7L49.6,99.3L51.5,102.3L54.3,105.2L56.4,106.9L57.1,107.2L58.2,107.9L59.3,108.5L62.2,109.4L65.9,110.0L69.2,110.0L70.1,109.7L71.5,109.5L74.9,108.3L76.8,107.3L77.5,106.8L78.1,106.1L77.9,105.2L77.0,104.0L76.6,103.0L76.1,102.3L74.6,98.3L73.8,94.8L73.8,93.3L73.6,92.4L73.5,89.0L73.6,67.1L73.8,61.7L73.8,36.1L73.9,33.2L74.1,32.6L74.4,32.6L78.9,37.2L79.2,37.8L79.6,38.3L80.1,39.0L80.2,42.4L79.9,66.6L80.1,71.2L80.0,82.0L80.2,85.6L80.2,92.5L80.4,94.5L81.1,97.2L81.9,99.2L82.9,101.1L85.2,104.3L86.3,105.3L89.0,107.6L90.3,108.2L90.5,108.5L91.3,108.7L91.6,109.0L92.4,109.2L92.5,109.3L94.1,109.9L96.2,110.4L98.4,110.7L101.2,110.7L102.9,110.4L105.1,109.9L107.8,108.8L110.0,107.5L112.1,105.9L114.2,103.7L115.5,101.9L117.0,99.2L117.6,97.4L118.3,94.6L118.6,92.3L118.6,68.2L118.8,64.2L119.0,41.4L118.7,40.3L117.7,39.2L116.8,38.8L116.1,38.6L115.0,38.6L114.2,38.9L113.6,39.3L112.6,40.5L112.3,41.5L112.3,51.3L112.0,62.6L111.4,63.7L110.6,64.5L109.6,64.8L108.6,64.8L107.4,64.3L106.4,63.2L106.0,61.4L106.0,54.6L106.2,49.5L106.1,45.7L106.4,32.2L106.2,30.0L105.9,28.2L104.7,25.4L103.3,23.4L102.1,22.1L101.0,21.1L98.5,19.6L97.4,19.2L95.2,18.7L92.1,18.6L90.2,18.9L88.8,19.4L88.2,19.5L86.7,20.3L84.9,21.6L83.7,22.8L82.4,24.4L81.3,26.5L80.7,28.5L80.3,30.9L80.0,31.3L75.3,31.3L74.2,31.2L74.0,30.9L73.5,28.0L72.6,25.6L71.1,23.2L70.3,22.2L68.5,20.6L67.5,20.1L67.2,19.7L64.8,18.7L62.1,18.0L59.2,18.0L57.1,18.5L54.6,19.5L52.7,20.7L51.1,22.3L49.8,23.9L48.9,25.5L47.9,28.4L47.8,30.2L47.3,30.8L42.6,30.8L41.7,30.7L41.5,30.4L41.0,27.6L40.2,25.2L38.5,22.5L36.9,20.7L34.3,19.0L32.2,18.1L30.0,17.6L27.3,17.6L24.9,18.0L22.5,19.0L21.3,19.7L19.5,21.1L19.4,21.4L18.0,22.9L16.5,25.5L15.8,27.8L15.5,29.9L15.1,30.6L13.1,30.8L10.0,30.8Z M104.0,96.5L104.4,96.3L104.5,96.6Z M89.0,31.2L90.2,31.2L91.4,31.7L92.3,32.6L92.8,33.7L92.8,35.3L92.4,36.1L92.0,36.7L91.3,37.3L90.2,37.7L88.7,37.6L87.7,37.1L87.0,36.5L86.7,36.0L86.3,35.0L86.4,33.5L87.0,32.3L87.7,31.6Z M56.3,30.7L57.6,30.8L58.6,31.2L59.6,32.2L60.0,33.4L60.0,34.4L59.8,35.4L58.7,36.5L57.4,37.1L56.1,37.1L55.3,36.9L54.2,35.9L53.5,34.5L53.5,33.3L54.1,32.1L55.2,31.1Z M23.4,30.2L24.8,30.2L25.5,30.3L26.5,31.0L27.0,31.5L27.4,32.2L27.5,32.9L27.5,34.1L27.4,34.6L26.9,35.4L26.2,36.1L25.1,36.7L23.4,36.7L22.4,36.2L21.7,35.5L21.1,34.5L20.9,33.6L21.1,32.2L21.5,31.5L22.1,31.0Z" fill="#000" fill-rule="evenodd"/>
</svg>