<svg xmlns="http://www.w3.org/2000/svg" viewBox="0 0 128 128" width="128" height="128">
  <path d="M52.5,39.1L51.6,39.4L51.0,39.9L50.1,41.0L49.5,42.4L49.6,44.2L50.2,45.6L51.0,46.5L51.7,46.9L53.0,47.3L54.3,47.3L55.1,47.1L56.0,46.5L57.0,45.4L57.6,44.0L57.6,42.5L57.3,41.8L57.3,41.5L56.9,40.7L56.2,40.0L55.6,39.6L54.3,39.0Z M59.3,9.2L53.3,10.0L48.4,11.3L46.1,12.0L44.9,12.6L44.4,12.7L42.7,13.3L42.6,13.5L42.1,13.6L41.6,13.9L41.0,14.0L40.6,14.4L38.8,15.1L34.7,17.4L34.3,17.8L33.0,18.5L30.2,20.7L26.6,23.8L22.2,28.3L20.1,31.0L19.6,32.0L19.1,32.5L18.9,32.9L18.7,33.1L18.4,33.6L18.1,34.0L15.8,37.8L15.7,38.2L15.2,39.2L14.9,39.5L14.8,40.0L13.4,43.0L13.3,43.5L12.8,44.8L12.5,45.1L11.6,47.8L10.7,51.3L10.3,54.0L10.1,54.3L9.9,56.2L9.8,56.6L9.8,57.3L9.5,58.5L9.4,61.3L9.4,65.7L9.5,69.2L10.3,74.4L11.2,78.4L12.3,81.5L12.7,83.0L15.1,88.7L16.0,90.0L16.9,91.9L17.3,92.2L17.4,92.7L19.1,95.0L19.3,95.6L22.0,99.2L23.7,101.1L27.0,104.4L30.2,107.2L32.3,108.6L33.0,109.3L35.6,110.9L37.1,111.7L37.8,112.3L42.8,114.7L43.1,114.7L43.8,115.1L44.7,115.3L46.3,116.1L48.5,116.7L48.7,116.9L50.0,117.1L51.2,117.5L52.0,117.6L52.7,117.9L53.9,118.0L54.2,118.2L56.9,118.5L57.7,118.8L61.3,119.1L64.0,119.2L69.2,119.0L74.3,118.4L78.7,117.4L83.4,115.9L84.6,115.3L85.3,115.2L86.9,114.4L87.7,114.1L93.2,111.2L96.7,108.8L98.2,107.5L99.1,106.9L100.9,105.3L101.2,105.2L105.8,100.4L105.8,100.2L107.1,98.9L107.3,98.4L108.9,96.5L109.1,95.9L110.2,94.5L111.3,92.8L111.4,92.5L112.0,91.6L114.2,87.2L114.8,85.5L115.1,85.1L115.7,83.3L116.0,82.7L116.4,81.0L117.0,79.4L117.1,78.4L117.3,78.0L118.4,72.7L118.4,71.8L118.7,69.9L118.9,67.5L118.8,61.5L118.6,60.3L118.6,58.9L118.3,56.9L118.0,55.9L117.9,55.0L117.6,54.0L117.6,53.4L116.9,50.5L116.6,49.8L116.0,47.5L115.1,45.1L113.7,41.6L112.4,38.9L109.3,33.8L108.9,33.4L108.1,32.0L107.1,30.8L106.7,30.2L106.3,29.9L106.0,29.3L104.4,27.4L101.6,24.6L101.3,24.5L99.2,22.4L95.3,19.3L94.9,19.1L94.4,18.6L89.8,15.8L85.3,13.6L84.0,13.1L83.3,12.7L82.5,12.6L79.5,11.4L78.5,11.3L76.3,10.5L70.3,9.5L68.2,9.4L66.8,9.1Z M38.6,56.0L39.0,55.5L39.8,55.3L49.3,55.4L49.7,55.9L49.7,56.7L49.5,57.3L49.4,61.2L50.0,65.6L50.7,68.1L51.0,68.7L51.6,70.8L53.5,74.4L55.4,77.1L56.6,78.6L59.8,81.5L61.8,83.0L64.8,84.8L65.2,84.9L65.6,85.2L68.7,86.4L72.3,87.3L74.8,87.7L77.5,87.8L80.4,87.6L83.6,87.0L84.7,86.6L86.2,86.3L88.3,85.5L90.7,84.3L96.0,80.8L100.2,77.1L100.8,76.3L102.0,75.2L104.1,72.7L104.4,72.2L107.1,69.0L109.7,65.1L110.2,64.6L110.8,64.4L111.0,64.6L111.1,65.2L110.9,69.7L110.6,70.5L110.6,72.1L110.2,73.9L110.1,74.2L110.0,75.2L108.7,79.9L107.1,84.0L105.7,86.9L102.6,92.0L100.1,95.2L96.9,98.6L96.4,98.9L95.5,99.8L93.4,101.6L91.5,103.1L90.8,103.4L89.9,104.2L89.1,104.6L88.4,105.1L84.9,106.9L84.2,107.3L82.7,107.8L81.7,108.4L79.2,109.3L77.3,109.8L76.4,110.1L75.4,110.3L74.8,110.5L73.3,110.7L72.6,110.9L71.0,111.2L69.8,111.1L69.4,110.9L69.3,110.5L69.3,107.4L68.9,102.9L68.6,102.4L68.4,101.1L68.1,100.4L68.1,100.0L67.6,98.4L66.3,95.7L65.3,94.0L64.4,93.1L64.1,92.5L61.7,90.0L59.6,88.2L56.0,85.6L54.9,84.6L53.3,83.4L52.1,82.2L51.5,81.8L50.2,80.3L48.5,78.8L46.8,76.9L46.7,76.6L46.0,76.0L45.3,75.0L43.9,73.4L43.6,72.6L42.7,71.4L41.7,69.5L40.0,65.1L40.0,64.7L39.6,63.1L39.5,62.1L39.0,60.2L38.6,57.1Z M56.7,61.9L56.6,59.3L56.8,58.5L56.8,57.4L57.1,55.9L57.4,55.5L57.8,55.3L76.9,55.2L106.2,55.2L106.6,55.3L106.8,55.8L105.2,58.8L104.0,60.5L103.2,61.8L101.7,63.9L101.5,64.3L99.4,67.0L99.4,67.2L99.0,67.5L97.6,69.3L96.7,70.2L96.5,70.5L94.2,72.7L92.0,74.6L89.9,76.2L88.2,77.1L87.1,77.9L86.4,78.1L86.0,78.4L84.2,79.2L83.1,79.4L82.1,79.9L81.4,80.0L81.2,80.2L78.9,80.5L76.0,80.6L75.4,80.4L73.6,80.2L71.3,79.8L68.2,78.5L66.7,77.5L65.8,77.1L64.6,76.3L61.3,73.1L59.5,70.4L59.3,70.0L58.5,68.6L57.8,66.8L57.2,64.9Z M39.2,47.3L40.1,44.2L41.3,41.4L42.3,40.0L42.7,39.2L44.7,37.1L46.3,36.0L48.7,34.9L51.1,34.2L53.0,34.0L55.9,34.1L56.5,34.4L57.9,34.6L59.1,35.0L60.9,35.9L62.4,37.0L64.1,38.6L65.3,40.1L65.9,41.0L67.2,43.8L67.5,45.2L67.8,46.1L67.8,47.5L67.6,47.8L67.0,48.0L52.7,48.0L45.3,48.2L40.1,48.1L39.6,47.9L39.3,47.7Z M69.4,17.2L75.0,18.3L75.5,18.5L78.1,19.2L81.8,20.6L84.2,21.7L87.1,23.3L92.1,26.6L92.9,27.4L94.6,28.7L98.1,32.1L99.7,34.0L101.9,36.8L103.3,38.8L104.9,41.5L105.9,43.3L106.3,44.5L106.7,45.1L107.4,46.6L107.5,47.5L107.1,47.9L80.4,48.1L75.9,48.0L75.4,47.6L75.1,46.9L75.1,46.4L74.5,42.9L73.7,40.8L73.6,40.3L73.1,39.4L73.1,39.2L71.6,36.4L69.1,33.3L66.7,31.0L63.8,29.2L60.8,27.8L59.6,27.4L56.9,26.9L54.3,26.6L52.9,26.6L50.4,26.9L48.4,27.3L45.8,28.2L44.9,28.7L44.6,28.7L43.1,29.6L42.7,29.6L40.8,31.0L37.8,33.9L36.4,35.6L35.2,37.3L33.9,39.7L33.9,39.9L33.0,41.9L32.0,45.1L31.2,49.3L31.1,51.0L30.9,52.7L31.0,59.8L31.8,64.4L32.7,67.6L33.4,69.7L33.8,70.4L34.7,72.6L35.1,73.3L35.4,74.0L36.7,76.0L37.4,77.3L38.2,78.2L38.5,78.9L40.0,80.8L45.7,86.5L48.9,89.4L49.5,90.0L51.1,91.3L56.5,96.1L58.8,98.4L59.8,100.2L60.6,102.4L60.9,103.3L61.1,105.4L61.1,110.9L60.4,111.3L59.1,111.3L54.7,110.6L50.1,109.4L49.0,108.9L48.3,108.7L48.0,108.5L45.9,107.8L41.9,105.9L37.8,103.4L33.8,100.3L30.1,96.8L27.5,93.8L25.0,90.4L24.6,89.6L23.3,87.8L22.6,86.2L21.9,85.2L21.8,84.6L20.3,81.6L20.0,80.4L19.6,79.9L19.5,79.1L19.1,78.1L17.7,72.4L17.7,71.5L17.4,70.3L17.3,68.7L17.0,67.5L16.9,61.5L17.1,58.9L17.8,54.1L18.1,53.5L18.3,52.0L19.1,49.4L19.2,48.7L19.5,48.4L20.9,44.7L22.1,42.2L22.5,41.6L22.7,41.1L25.0,37.2L26.2,35.8L26.2,35.5L29.0,32.2L29.1,32.0L31.3,29.8L34.7,26.9L35.4,26.5L35.9,26.0L39.1,23.8L43.3,21.5L47.8,19.6L49.6,19.1L50.6,18.7L56.4,17.4L60.2,17.0L63.9,16.9Z" fill="#000" fill-rule="evenodd"/>
</svg>