<svg xmlns="http://www.w3.org/2000/svg" viewBox="0 0 128 128" width="128" height="128">
  <path d="M85.3,45.8L83.3,44.9L81.0,44.1L78.7,43.8L75.4,44.0L74.7,44.1L72.4,45.0L71.1,45.8L69.7,47.1L69.2,47.7L68.6,48.7L68.0,50.4L67.6,53.5L67.5,61.2L67.4,63.9L67.1,65.8L67.1,66.8L66.8,67.6L66.4,70.5L66.0,71.9L66.0,72.7L65.6,73.8L65.5,74.5L64.8,76.7L64.6,77.6L64.0,79.2L63.7,80.2L63.5,80.5L63.1,81.6L62.2,83.8L62.1,84.2L61.8,84.6L61.7,85.0L60.9,86.6L60.6,87.5L59.9,88.7L59.8,89.1L59.5,89.7L59.5,89.9L57.9,92.9L57.8,93.4L56.3,95.8L55.7,97.3L55.4,97.7L54.7,99.2L54.4,99.5L54.3,99.9L54.0,100.3L53.3,101.7L52.4,103.0L52.2,103.6L51.2,105.1L50.5,106.6L50.2,106.9L48.9,109.2L48.9,109.4L48.8,109.5L48.4,110.5L47.4,111.8L46.8,113.1L46.1,114.2L46.0,114.6L44.9,116.3L44.1,117.8L44.1,118.2L44.4,118.5L48.9,118.6L54.4,118.6L54.6,118.5L55.1,117.7L55.4,116.5L56.0,114.9L56.2,113.9L57.2,111.5L57.5,110.3L58.6,107.9L58.6,107.5L60.3,104.1L61.7,102.0L62.3,101.4L62.5,101.4L62.7,101.6L62.9,102.4L62.7,109.1L62.9,112.5L62.9,116.1L63.4,117.7L64.2,118.5L64.7,118.7L66.2,119.0L77.3,119.2L83.2,119.2L84.8,118.8L85.3,118.5L85.9,117.7L86.3,116.7L86.4,115.4L86.5,99.5L86.3,97.7L86.1,96.9L85.8,96.5L85.0,95.7L84.2,95.3L83.6,95.2L70.2,95.2L67.8,95.0L67.4,94.7L67.5,94.3L68.5,92.8L69.1,92.4L70.2,90.7L72.2,88.4L73.0,87.2L73.8,86.4L74.1,85.8L75.2,84.7L75.5,84.2L78.9,80.3L79.3,79.7L80.7,78.1L81.6,76.8L82.0,76.3L82.3,75.7L82.7,75.3L84.1,73.3L85.4,70.9L85.8,70.5L86.1,69.8L86.4,69.4L88.3,65.5L89.3,62.6L90.0,59.4L90.2,56.4L90.1,53.3L89.8,51.9L88.6,49.2L87.4,47.7L86.6,46.9Z M55.4,44.1L52.9,43.8L50.2,43.8L47.2,44.4L45.0,45.3L43.6,46.2L41.8,47.8L40.3,49.9L39.2,52.4L39.1,53.2L38.7,54.4L38.4,57.3L38.2,66.3L38.3,73.0L38.2,81.3L38.2,87.0L38.1,91.8L38.1,117.7L38.2,118.0L38.7,118.3L39.3,118.2L39.9,117.8L39.9,117.5L41.1,115.7L41.8,114.2L42.4,113.4L42.7,112.6L43.5,111.5L45.1,108.5L45.8,107.4L45.9,107.1L46.4,106.6L46.6,106.0L47.5,104.5L47.8,103.5L49.1,101.6L54.6,91.3L55.6,88.9L56.0,88.3L57.0,85.6L58.0,83.8L58.6,82.1L59.0,81.2L60.3,77.3L60.6,76.5L60.8,75.6L61.4,73.7L61.6,72.4L61.9,71.6L62.8,66.8L63.2,62.2L63.4,55.8L63.3,53.7L62.9,50.9L62.2,48.9L60.5,46.8L59.0,45.7L58.1,45.2Z M87.8,24.2L86.9,22.5L86.4,21.9L85.1,20.8L83.6,20.0L83.4,20.0L82.5,19.6L79.6,18.9L76.2,19.0L75.5,19.2L74.7,19.3L73.6,19.7L71.5,20.7L70.2,21.8L69.1,22.9L68.4,24.2L68.0,25.6L67.7,29.0L67.8,34.5L67.7,36.6L67.4,37.5L67.3,37.8L66.3,38.6L65.9,38.7L65.1,38.7L64.0,38.2L63.5,37.5L63.3,35.9L63.3,26.5L62.9,24.9L62.6,24.2L61.5,22.6L60.1,21.3L59.0,20.6L57.3,19.9L56.1,19.6L53.4,19.2L52.0,19.2L50.3,19.4L48.9,19.9L46.9,20.8L46.2,21.2L45.0,22.3L44.0,24.0L43.3,26.3L42.5,29.7L42.4,31.3L42.3,32.0L42.2,34.9L42.4,38.2L42.6,38.5L42.7,39.6L43.0,41.3L43.4,41.8L44.2,41.9L46.4,41.0L49.4,40.1L52.0,39.9L52.4,39.8L53.6,39.8L54.1,39.9L55.8,40.1L58.6,40.9L60.6,41.8L63.1,43.6L64.9,45.5L65.2,45.6L65.8,45.5L68.4,43.0L69.4,42.2L70.0,41.9L70.8,41.4L73.2,40.4L75.4,39.9L76.5,39.8L79.9,39.8L82.5,40.4L85.2,41.3L86.7,42.1L87.5,42.2L87.9,41.8L88.2,41.0L88.7,39.0L89.0,36.0L89.0,31.9L88.8,29.2L88.5,27.1L88.3,26.6L88.3,26.2Z M53.8,26.9L55.1,27.0L56.3,27.6L57.2,28.7L57.5,29.1L57.6,29.9L57.6,31.0L57.0,32.3L56.3,33.0L55.6,33.5L54.6,33.8L53.5,33.7L52.1,33.0L51.3,32.2L50.9,31.2L50.8,30.4L51.0,29.1L51.5,28.4L52.4,27.4Z M76.8,26.5L77.8,26.5L78.8,27.0L79.9,28.1L80.2,28.8L80.4,29.5L80.2,31.2L79.6,32.2L78.7,33.0L77.5,33.4L76.3,33.3L74.8,32.6L73.9,31.6L73.5,30.6L73.7,29.0L74.0,28.2L75.2,27.0L76.1,26.6Z M83.7,15.9L83.1,15.1L81.0,13.1L78.9,11.7L77.1,10.9L74.0,9.8L72.4,9.6L71.7,9.4L70.8,9.4L68.9,9.1L66.7,9.0L62.0,9.2L58.1,10.0L55.5,10.8L53.2,11.8L51.2,13.2L49.0,15.1L48.4,15.7L48.4,16.3L48.5,16.4L48.8,16.4L50.1,15.9L52.8,15.4L55.5,15.4L58.0,15.8L59.7,16.3L61.5,17.2L62.7,18.0L63.8,18.8L65.3,20.3L66.0,20.5L67.6,18.8L69.3,17.5L70.2,16.9L71.6,16.3L73.7,15.6L75.0,15.3L78.7,15.2L79.9,15.3L81.7,15.8L82.1,15.8L83.3,16.3L83.6,16.2Z" fill="#000" fill-rule="evenodd"/>
</svg>