<svg xmlns="http://www.w3.org/2000/svg" viewBox="0 0 128 128" width="128" height="128">
  <path d="M67.5,29.8L67.6,30.7L67.8,31.0L68.1,31.1L79.6,31.1L81.0,30.9L82.6,30.9L83.2,30.8L83.5,30.5L83.4,29.6L82.7,29.2L75.5,29.2L72.5,29.1L68.6,29.1L67.9,29.3Z M51.8,20.8L49.8,21.1L47.7,21.9L45.7,23.2L44.1,24.8L43.1,26.7L42.6,28.2L42.3,29.7L42.3,31.4L42.7,33.6L43.3,35.1L44.1,36.4L45.5,38.0L47.3,39.3L49.0,40.0L51.5,40.5L52.2,40.5L54.5,40.2L56.6,39.5L57.8,38.7L59.9,36.8L60.4,36.1L61.6,33.8L62.1,31.6L62.1,30.1L61.7,28.3L61.3,26.9L60.4,25.4L59.8,24.6L59.1,24.0L59.0,23.7L57.6,22.5L55.0,21.3L53.6,21.0Z M51.0,23.1L52.9,23.1L53.2,23.2L54.6,23.5L55.8,24.0L57.6,25.3L58.6,26.4L59.3,27.8L59.8,29.3L59.9,31.5L59.7,32.5L59.3,33.8L58.4,35.4L57.4,36.4L56.3,37.2L54.9,37.9L53.6,38.3L51.4,38.4L50.4,38.2L49.0,37.7L47.8,37.1L46.3,35.6L46.0,35.0L45.9,34.6L46.2,34.4L46.9,34.4L47.7,34.6L48.5,34.6L49.6,34.1L50.5,33.3L51.0,32.4L51.1,31.3L50.9,30.4L50.2,29.6L49.4,28.9L48.6,28.6L47.1,28.7L46.3,29.1L45.7,29.6L45.1,29.6L44.8,29.2L45.0,28.0L45.8,26.3L46.1,25.8L47.2,24.6L49.0,23.7Z M97.6,11.0L95.3,9.8L92.1,9.2L66.4,9.4L37.6,9.3L35.5,9.4L35.0,9.6L33.5,9.7L32.0,10.2L30.9,10.7L30.4,11.2L29.6,11.6L28.8,12.2L27.6,13.5L26.5,15.2L26.0,16.3L25.7,17.5L25.6,20.0L25.5,20.5L25.4,22.5L25.2,23.4L25.3,57.1L25.1,59.8L25.3,62.6L25.4,71.9L25.3,117.3L25.6,117.9L26.3,118.1L28.3,118.4L34.8,118.9L39.7,119.1L42.7,119.0L44.1,118.8L45.4,118.8L46.0,118.6L49.0,118.4L50.5,118.0L51.6,117.9L52.8,117.6L54.0,117.5L56.2,117.1L61.1,115.9L62.4,115.4L63.9,115.1L66.6,114.1L67.4,113.9L72.3,112.0L75.6,110.4L76.7,110.0L77.3,109.5L77.8,109.3L78.0,109.1L80.4,107.9L82.5,106.4L83.9,105.7L86.0,103.9L86.7,103.5L90.3,100.4L92.4,98.2L96.4,93.3L98.3,90.3L98.8,89.2L99.0,88.9L101.4,83.5L101.6,82.6L101.9,81.7L102.5,78.4L102.5,77.8L102.8,76.7L102.9,74.1L102.8,55.0L103.0,47.6L102.9,35.9L103.0,33.3L102.9,32.1L102.9,29.6L102.7,28.1L102.7,19.2L102.1,16.9L100.9,14.2L99.2,12.2Z M64.1,105.4L64.2,104.3L64.9,103.8L68.2,103.7L69.4,103.8L69.9,104.1L69.9,104.3L69.5,104.6L67.2,105.7L65.4,106.3L64.7,106.3L64.3,106.0Z M48.3,104.3L48.8,103.8L49.2,103.6L54.7,103.6L55.4,103.7L55.8,103.9L56.2,104.3L56.3,104.8L56.2,108.5L55.4,109.2L52.9,109.8L52.0,109.9L50.3,110.3L48.6,110.2L48.2,109.7L48.1,108.9L48.1,104.8Z M32.7,104.2L33.2,103.7L34.2,103.4L39.1,103.5L39.6,103.6L40.2,103.9L40.4,104.2L40.6,105.1L40.5,110.2L40.4,110.6L39.6,111.1L37.7,111.2L35.1,111.1L33.3,110.9L32.8,110.3L32.7,109.6Z M79.7,96.4L79.8,98.4L79.6,98.9L78.9,99.7L76.7,101.1L75.0,101.9L73.9,102.6L73.0,103.0L72.6,103.0L72.2,102.6L71.9,101.7L71.8,97.1L72.6,96.1L73.4,95.8L78.6,95.8L79.4,96.1Z M56.2,96.6L57.1,95.9L62.9,95.9L63.5,96.2L64.0,96.7L64.0,102.5L63.8,103.0L63.5,103.3L62.9,103.4L58.8,103.5L57.0,103.4L56.7,103.3L56.2,102.5L56.1,102.0Z M41.1,96.0L41.5,95.8L47.1,95.8L47.6,96.0L48.2,96.6L48.2,102.1L48.1,102.7L47.7,103.3L47.1,103.4L43.7,103.5L41.5,103.4L41.0,103.3L40.8,103.0L40.4,102.5L40.4,97.1L40.5,96.6Z M64.5,88.5L65.1,88.2L66.0,88.1L70.5,88.2L71.1,88.3L71.6,88.5L71.8,88.8L72.0,89.4L72.0,92.7L71.8,95.0L71.2,95.6L70.1,95.7L66.1,95.7L65.1,95.7L64.7,95.5L64.1,94.8L64.0,92.5L64.1,89.1Z M87.0,88.3L87.4,88.7L87.6,89.4L87.6,91.6L87.4,92.2L86.8,93.1L84.9,95.0L84.4,95.3L83.6,95.6L82.8,95.7L80.8,95.6L80.3,95.4L79.9,94.8L79.7,94.0L79.7,90.7L79.9,88.7L80.7,88.1L85.6,88.0Z M48.4,89.0L48.8,88.6L50.4,88.1L51.3,88.0L55.3,88.1L55.7,88.4L56.1,88.9L56.3,90.1L56.3,94.7L56.1,95.1L55.5,95.6L54.6,95.7L49.5,95.7L48.9,95.6L48.2,94.9L48.1,94.6L48.1,89.5Z M32.7,88.7L33.4,88.1L34.6,88.0L39.2,88.0L39.9,88.2L40.4,88.7L40.5,89.4L40.5,94.4L40.4,95.1L39.9,95.5L39.0,95.7L35.0,95.7L33.6,95.7L33.1,95.4L32.7,94.9L32.7,94.4L32.6,94.2L32.6,89.4Z M93.5,80.4L93.9,80.8L94.0,81.6L93.2,83.7L91.4,87.0L90.7,87.6L89.9,87.9L88.9,87.9L88.3,87.7L87.7,87.1L87.6,86.3L87.6,81.9L87.8,80.9L88.3,80.4L88.7,80.3Z M56.5,80.9L57.2,80.4L57.9,80.3L62.6,80.3L63.3,80.5L63.7,80.8L64.0,81.2L64.0,86.7L63.9,87.4L63.6,87.6L62.8,88.0L57.3,87.9L56.7,87.6L56.3,87.1L56.2,85.9L56.2,81.8Z M79.4,80.7L79.9,81.4L79.9,85.7L79.8,87.1L79.2,87.7L78.3,88.0L73.5,88.0L72.8,87.9L72.2,87.3L71.9,86.7L71.9,81.7L72.2,80.9L72.5,80.7L73.4,80.3L76.3,80.3L78.7,80.3Z M41.0,80.5L41.8,80.3L46.4,80.3L47.5,80.4L48.1,81.0L48.1,87.1L47.5,87.8L43.4,88.0L41.3,87.9L40.7,87.4L40.4,86.9L40.4,86.0L40.4,81.2L40.5,81.0Z M64.4,73.1L64.7,72.9L65.6,72.6L70.6,72.6L71.5,73.0L71.8,73.3L72.1,74.8L72.1,78.2L71.7,79.5L71.3,79.9L70.9,80.1L66.1,80.2L64.7,79.9L64.2,79.4L64.0,78.5L64.0,74.8L64.1,73.9Z M48.5,73.3L49.1,72.8L50.1,72.6L54.0,72.6L54.8,72.7L55.8,73.1L56.0,73.3L56.2,73.8L56.2,79.0L56.0,79.6L55.5,80.0L54.8,80.2L49.5,80.2L48.8,79.9L48.4,79.4L48.1,78.4L48.1,74.6Z M79.9,73.3L80.6,72.7L82.0,72.6L86.4,72.6L87.1,72.8L87.5,73.2L87.6,73.6L87.6,77.1L87.5,79.4L87.1,79.9L86.6,80.0L84.9,80.2L81.7,80.2L80.6,80.0L80.2,79.8L79.9,79.2L79.7,78.0L79.8,73.7Z M32.8,73.2L33.4,72.7L34.2,72.6L38.5,72.6L39.1,72.6L40.0,73.0L40.3,73.3L40.4,74.0L40.5,77.3L40.4,79.4L40.0,79.9L39.2,80.1L34.2,80.1L33.3,79.9L33.1,79.8L32.7,79.3L32.5,78.0L32.6,74.8Z M56.5,65.5L57.3,64.9L62.3,64.9L63.0,65.0L63.7,65.4L64.0,65.7L64.0,66.3L64.0,71.2L63.9,71.8L63.5,72.2L62.7,72.5L57.7,72.5L56.8,72.2L56.4,71.7L56.3,70.7L56.3,66.0Z M72.2,65.6L72.6,65.2L73.1,65.0L74.6,64.9L78.3,64.9L79.3,65.2L79.7,65.6L79.9,66.1L79.9,71.3L79.7,71.8L79.4,72.2L78.5,72.5L74.0,72.5L73.1,72.4L72.6,72.2L72.2,71.7L72.0,71.2L72.0,66.2Z M41.0,65.1L42.1,64.9L46.4,64.9L47.4,65.0L47.9,65.4L48.1,65.9L48.1,67.2L48.1,71.3L48.0,71.9L47.5,72.4L41.6,72.5L40.8,71.9L40.4,71.3L40.4,66.2L40.4,65.7Z M88.3,64.9L93.2,64.8L94.7,64.9L95.1,65.4L95.3,66.1L95.3,70.9L95.1,71.6L94.8,72.0L94.3,72.2L88.9,72.4L88.4,72.3L87.7,71.8L87.6,71.5L87.5,66.7L87.6,65.7Z M71.7,57.7L72.0,58.5L72.0,63.6L71.9,64.0L71.4,64.5L70.2,64.8L65.7,64.8L64.7,64.5L64.1,63.9L64.0,58.9L64.1,58.2L64.6,57.6L65.4,57.2L68.8,57.2L70.9,57.2Z M48.5,57.7L49.0,57.4L50.7,57.2L54.9,57.2L55.8,57.6L56.0,57.8L56.2,58.4L56.1,64.0L55.8,64.4L55.2,64.6L53.9,64.8L50.4,64.8L49.4,64.7L48.8,64.5L48.4,64.0L48.2,63.5L48.1,58.9Z M32.9,57.8L33.3,57.4L34.1,57.2L39.0,57.2L39.6,57.3L40.0,57.6L40.3,57.9L40.4,59.1L40.3,64.1L39.8,64.5L39.1,64.7L34.1,64.7L33.1,64.4L32.8,64.1L32.6,63.4L32.6,59.0L32.7,58.4Z M87.1,57.5L87.5,58.0L87.6,58.9L87.6,63.5L87.4,64.1L86.8,64.5L85.7,64.7L80.8,64.7L80.4,64.5L80.1,64.2L79.9,63.5L79.8,59.6L79.9,58.6L80.1,57.8L80.7,57.3L81.4,57.2L85.4,57.1L86.6,57.2Z M72.7,49.5L79.0,49.4L79.7,49.8L79.9,50.3L79.9,55.8L79.8,56.3L79.2,56.9L73.2,57.0L72.9,56.9L72.3,56.4L72.1,55.8L72.0,54.6L72.0,50.9L72.2,50.0Z M41.0,49.6L41.7,49.4L47.0,49.4L47.7,49.6L48.1,50.0L48.2,50.9L48.1,55.8L47.9,56.4L47.4,56.9L45.4,57.1L42.2,57.1L41.3,57.0L40.6,56.4L40.4,55.1L40.4,51.2L40.4,50.4Z M56.9,49.6L57.7,49.4L58.7,49.3L62.2,49.4L63.3,49.5L63.9,50.0L64.0,50.3L64.0,55.8L63.9,56.4L63.5,56.8L63.1,57.0L58.0,57.1L57.3,57.0L56.4,56.3L56.3,50.9L56.4,50.2Z M94.8,49.5L95.2,50.0L95.3,51.2L95.3,55.8L94.9,56.7L94.4,56.8L92.3,57.0L88.9,57.0L88.3,56.8L87.8,56.3L87.6,55.7L87.5,50.8L87.8,49.8L88.4,49.4L88.9,49.3L93.7,49.2Z M95.1,19.6L95.3,20.3L95.3,45.3L95.3,47.1L95.0,47.7L94.5,48.1L86.2,48.4L75.2,48.3L72.4,48.5L34.4,48.5L33.7,48.4L33.1,48.1L32.7,47.7L32.6,45.2L32.7,37.5L32.5,35.2L32.5,29.3L32.7,27.6L32.6,21.4L32.7,20.0L33.2,18.7L34.1,17.9L34.7,17.5L36.5,17.1L55.6,16.9L59.5,17.1L60.7,17.5L61.7,18.1L63.0,19.5L63.4,20.3L63.7,25.5L63.5,30.3L63.5,39.3L63.6,40.9L64.0,41.3L64.2,41.3L64.4,41.2L64.5,40.7L64.6,39.1L64.5,23.4L64.6,21.1L65.3,19.6L65.8,18.7L67.0,17.7L69.0,16.9L70.8,16.9L90.7,16.9L92.3,17.1L93.5,17.6L94.4,18.4Z" fill="#000" fill-rule="evenodd"/>
</svg>