<svg xmlns="http://www.w3.org/2000/svg" viewBox="0 0 128 128" width="128" height="128">
  <path d="M78.1,80.9L76.4,81.2L75.5,81.7L75.0,81.7L73.4,82.7L72.2,83.9L71.4,84.8L70.5,86.5L69.9,88.8L69.8,90.9L70.4,93.3L70.9,94.4L71.8,95.8L73.2,97.1L74.5,98.0L75.9,98.6L76.5,98.7L77.4,99.0L79.5,99.1L81.8,98.6L83.4,97.8L84.6,96.9L86.2,95.3L87.4,92.9L87.6,90.6L87.8,90.2L87.8,89.4L87.6,89.0L87.5,87.6L86.7,85.8L86.0,84.6L84.4,82.9L83.4,82.2L81.2,81.2L79.9,81.0Z M76.9,70.9L74.0,71.4L70.5,72.7L68.2,74.1L66.7,75.1L64.2,77.5L62.4,80.0L62.2,80.7L61.9,81.1L61.1,83.0L60.3,85.2L59.7,88.7L59.8,92.1L60.6,96.0L61.3,97.7L63.0,100.8L65.0,103.2L67.3,105.3L68.6,106.2L70.7,107.2L70.9,107.5L73.6,108.5L74.7,108.6L75.4,108.9L77.7,109.1L80.2,109.1L81.8,109.0L84.6,108.3L87.1,107.3L88.4,106.6L90.1,105.5L91.9,104.1L93.9,101.8L94.7,100.6L95.4,99.3L95.6,99.1L95.9,98.4L96.2,98.0L97.0,95.7L97.8,91.5L97.8,88.6L97.2,84.9L95.8,81.4L94.8,79.7L93.4,77.7L91.2,75.4L88.8,73.7L88.0,73.3L87.5,72.9L85.0,71.8L82.6,71.2L80.4,70.9Z M76.3,74.4L80.0,74.3L82.3,74.6L84.1,75.1L85.7,75.8L86.1,76.1L87.1,76.6L89.7,78.6L90.8,79.7L92.1,81.4L93.6,84.3L94.2,86.1L94.5,87.9L94.7,89.4L94.6,91.5L93.9,94.9L92.5,98.1L91.4,99.7L89.9,101.4L87.1,103.6L83.9,105.1L81.0,105.8L77.1,105.9L74.7,105.4L72.7,104.7L69.6,103.0L66.8,100.4L65.1,98.1L63.8,95.1L63.1,92.4L62.9,89.7L63.2,87.2L63.5,85.8L64.1,84.1L64.5,83.5L65.1,82.1L65.4,81.8L66.6,79.9L68.4,78.1L69.4,77.3L70.8,76.4L73.8,75.0Z M45.7,9.2L45.5,9.3L45.4,9.7L45.4,13.9L45.6,16.3L45.8,17.1L46.1,17.8L47.3,19.9L48.8,21.3L51.0,22.6L52.7,23.2L52.9,23.4L53.0,23.8L52.3,25.0L51.2,27.8L50.6,28.9L50.4,29.7L49.7,31.5L49.4,31.8L48.6,34.3L47.9,35.6L47.4,37.1L46.3,39.6L45.6,41.6L45.0,42.9L44.7,43.8L44.3,44.5L44.2,45.0L43.4,46.6L43.3,47.1L42.5,48.8L42.3,49.7L41.8,50.3L41.5,51.5L40.9,52.8L39.5,56.4L39.0,57.3L37.8,60.6L37.3,61.5L36.5,63.6L36.4,63.8L35.3,66.3L34.7,68.0L34.5,68.3L33.8,70.4L33.0,71.9L32.9,72.7L32.5,73.2L31.9,75.0L31.1,76.6L31.1,77.1L30.2,79.0L30.0,79.7L28.1,83.9L28.1,84.1L24.0,93.9L23.9,94.7L23.1,96.2L23.0,96.9L22.6,97.4L22.5,98.1L22.1,98.6L21.9,99.4L21.2,100.9L21.0,101.7L20.5,102.7L20.6,103.0L21.2,103.1L25.3,100.0L26.2,99.1L27.1,98.6L28.0,97.7L28.4,97.5L31.5,95.0L32.4,94.5L35.1,92.3L36.1,91.6L36.6,91.6L36.7,92.0L36.0,93.3L35.6,94.3L35.2,95.0L34.2,97.5L33.4,99.1L33.3,99.8L32.1,102.3L32.0,103.1L31.3,104.4L31.1,105.1L30.8,105.6L30.6,106.3L29.8,108.1L29.5,109.0L29.3,109.2L29.3,109.6L28.2,111.9L28.0,112.6L27.1,114.4L26.9,115.4L26.2,117.0L26.2,117.6L26.9,117.9L32.0,118.1L40.5,118.1L44.9,118.3L47.4,118.2L51.2,118.4L61.2,118.4L61.8,117.9L62.7,115.7L63.3,114.9L64.1,115.0L66.9,116.5L69.8,117.6L70.1,117.6L72.7,118.4L74.4,118.6L75.9,118.9L78.1,119.1L80.7,119.1L82.5,118.9L83.8,118.6L85.7,118.4L86.2,118.1L89.3,117.2L90.8,116.6L93.3,115.3L96.5,113.2L98.7,111.2L100.1,109.9L101.8,107.9L103.5,105.4L105.4,101.7L106.8,98.0L107.6,94.1L107.7,92.4L107.8,88.7L107.4,85.0L107.2,84.4L106.9,82.8L106.1,80.3L105.5,79.4L105.4,79.0L104.6,77.6L104.1,76.1L103.6,75.4L102.8,73.6L101.1,71.6L100.8,71.0L98.3,68.5L94.7,65.7L91.1,63.7L88.8,62.7L85.8,61.8L85.3,61.5L85.2,61.2L85.3,60.2L85.7,59.7L87.5,55.3L87.7,54.4L89.9,49.4L90.1,48.7L90.2,48.6L91.1,46.1L92.4,43.2L93.8,39.5L95.4,36.0L96.7,32.4L97.0,30.6L96.7,27.5L96.2,25.9L95.8,25.2L95.1,24.4L95.0,23.9L95.2,23.6L97.4,23.0L99.1,22.1L101.2,20.3L102.2,18.8L102.6,17.7L102.9,16.1L103.0,9.6L102.7,9.3L102.3,9.4L100.7,10.7L99.9,11.1L98.7,11.4L97.2,11.7L87.1,11.5L84.6,11.6L50.4,11.3L48.4,10.8L47.3,10.3L46.1,9.3Z M55.4,107.7L55.8,107.7L57.5,109.6L60.2,112.4L60.3,113.0L60.2,113.6L59.7,114.7L59.0,115.3L52.8,115.3L52.4,114.8L52.6,113.7L54.0,110.6L54.9,108.2Z M50.2,94.0L50.3,94.3L50.4,95.9L50.8,97.5L51.1,97.9L51.2,98.9L52.3,101.7L53.3,103.6L52.9,105.3L52.4,106.1L51.8,107.8L51.0,109.8L50.5,110.6L50.4,111.1L50.1,111.6L49.8,112.6L49.0,114.2L49.0,114.4L48.5,115.0L42.0,115.0L41.5,114.7L41.5,114.4L42.7,111.7L43.2,110.1L44.0,108.5L44.1,107.7L44.5,107.2L44.8,106.1L45.2,105.4L45.4,104.6L45.8,104.0L46.1,102.9L46.7,101.8L47.2,100.1L47.6,99.5L47.7,98.7L48.1,98.1L48.4,96.9L49.4,94.2L49.8,93.9Z M52.0,79.4L52.1,79.5L52.1,79.8L51.6,80.9L51.4,81.7L50.4,83.9L50.0,85.3L47.7,90.7L46.8,93.3L45.7,95.6L45.1,97.2L45.0,97.4L45.0,97.6L44.4,98.7L42.9,102.5L42.5,103.2L42.0,104.6L42.0,105.0L41.1,106.6L40.6,108.1L39.2,111.2L39.2,111.5L38.0,114.4L37.4,114.9L31.5,114.9L31.1,114.8L30.8,114.5L30.8,114.1L31.8,111.5L32.2,110.8L32.6,109.6L33.1,108.6L33.1,108.4L34.1,106.2L34.1,105.9L34.4,105.4L34.6,104.7L34.9,104.2L35.6,102.2L36.4,100.7L36.9,99.2L37.4,98.1L37.4,97.8L38.3,96.0L38.6,94.9L39.1,94.2L39.2,93.5L40.0,91.7L40.3,91.2L40.7,89.8L41.7,87.8L41.8,87.4L42.7,86.4L43.5,85.9L44.5,84.9L45.9,84.0L50.2,80.4L51.4,79.5Z M77.2,64.2L81.2,64.2L83.4,64.6L86.3,65.3L88.2,66.0L90.7,67.1L92.4,68.1L95.4,70.2L97.7,72.4L99.1,74.1L99.6,74.9L99.9,75.1L100.5,76.1L101.4,77.7L102.0,78.7L102.9,80.7L103.0,81.2L103.7,83.4L104.1,85.2L104.5,88.3L104.5,92.9L103.7,97.0L103.2,98.3L102.8,99.6L101.9,101.6L100.5,104.1L98.6,106.7L96.1,109.2L94.5,110.6L91.8,112.4L90.6,112.9L90.1,113.3L86.3,114.8L84.4,115.3L80.5,115.8L75.7,115.7L74.9,115.4L72.7,115.1L70.0,114.3L67.9,113.4L66.0,112.4L65.7,112.1L64.1,111.2L61.5,109.0L59.5,107.1L59.1,106.4L58.1,105.4L56.9,103.5L56.6,102.8L56.3,102.5L55.9,101.5L55.4,100.8L55.3,100.1L54.5,98.6L54.0,96.9L53.4,94.0L53.1,92.3L53.1,88.1L53.4,86.1L54.0,82.9L55.7,78.6L57.3,75.8L58.6,74.0L59.8,72.6L62.4,70.0L64.3,68.7L66.9,67.1L69.0,66.1L70.2,65.7L71.4,65.1Z M71.0,53.0L71.4,55.2L71.0,58.6L70.3,60.6L69.9,61.1L69.5,61.9L68.8,62.6L68.3,62.9L66.9,63.5L65.1,64.4L61.6,66.5L59.6,68.3L58.3,69.6L57.5,70.0L57.1,70.4L57.1,70.8L56.6,71.4L55.7,72.3L52.0,75.2L51.2,75.6L50.7,76.2L47.1,78.9L46.2,79.7L45.6,80.0L41.7,83.2L40.9,83.7L39.2,85.2L37.8,86.1L36.5,87.2L34.8,88.4L33.8,89.3L30.2,92.0L28.8,93.3L28.3,93.6L27.9,93.6L27.7,93.4L28.4,91.5L30.2,87.6L30.3,87.0L31.1,85.3L31.4,84.4L32.4,82.1L33.3,81.0L35.6,79.1L37.4,77.9L38.1,77.2L39.0,76.7L41.4,74.6L44.9,72.2L52.1,66.5L53.1,65.8L57.9,62.0L64.3,57.1L64.9,56.6L68.9,53.6L69.7,52.9L70.3,52.6L70.7,52.6Z M68.5,47.9L69.1,48.6L69.1,49.0L68.9,49.4L67.9,50.1L67.4,50.8L63.2,53.9L61.9,55.0L60.6,55.8L55.6,59.9L51.8,62.7L50.3,64.1L48.2,65.6L46.7,66.9L45.9,67.3L44.1,68.7L44.0,68.9L43.5,69.1L42.4,70.1L39.8,72.0L39.2,72.7L38.7,72.8L37.8,73.6L36.4,74.8L36.0,75.0L35.6,75.0L35.5,74.5L35.9,73.6L36.0,73.1L37.1,70.6L37.8,68.4L38.5,67.2L38.8,66.1L39.2,65.4L39.4,64.7L40.1,63.4L40.4,62.6L42.1,61.0L43.7,59.8L46.7,57.5L47.8,56.5L49.4,55.4L50.0,54.8L50.6,54.5L54.1,51.7L56.7,49.8L58.0,48.6L58.6,48.3L61.0,46.3L63.1,44.8L63.9,44.8L65.2,45.3L66.5,46.1Z M58.1,44.1L58.2,44.5L57.9,44.8L56.8,45.4L56.2,46.0L45.8,53.9L44.2,55.3L43.9,55.4L43.6,55.3L43.6,54.8L43.9,53.8L44.5,52.6L44.5,52.2L44.9,51.7L45.4,50.1L45.8,49.6L45.9,49.0L46.8,47.2L47.2,45.7L47.7,44.9L48.2,44.2L48.6,44.1L57.7,44.0Z M52.1,34.5L52.5,34.5L53.8,36.2L54.8,37.2L56.0,38.0L57.7,38.7L59.6,39.2L61.1,39.3L62.9,39.1L64.3,38.7L65.8,37.9L67.3,36.8L68.6,35.5L69.9,32.9L70.2,31.5L70.4,30.0L70.2,28.3L70.4,28.1L70.6,28.1L70.9,28.4L71.4,29.7L71.9,31.5L72.4,34.7L72.5,36.6L72.9,38.7L73.3,39.2L74.2,39.2L74.6,38.7L74.9,38.1L75.1,35.3L75.9,31.5L76.5,29.6L77.0,28.6L77.4,28.1L77.7,28.0L77.9,28.2L77.9,31.5L78.6,33.7L79.5,35.4L80.6,36.7L81.3,37.4L83.5,38.7L86.3,39.4L88.8,39.4L90.2,39.0L90.6,39.1L90.8,39.2L90.6,40.0L89.3,42.8L88.8,44.3L88.5,44.6L88.3,45.4L87.4,47.4L87.4,47.7L87.0,48.3L86.7,49.1L85.7,51.2L85.6,52.0L84.9,53.2L84.4,54.7L83.9,55.6L83.8,56.2L81.9,60.5L81.6,60.8L81.2,61.0L77.6,60.9L75.2,61.2L73.6,61.1L73.6,60.0L74.0,58.9L74.4,56.5L74.4,55.0L74.2,53.1L73.5,50.5L72.4,48.2L71.4,46.8L71.2,46.4L69.5,44.6L67.2,42.9L65.1,41.9L63.3,41.4L61.7,41.0L59.5,40.9L50.8,40.9L49.9,40.7L49.6,40.4L49.7,39.9L49.9,39.5L50.4,37.9L51.2,36.5L51.5,35.3Z M90.2,24.2L91.1,24.4L91.8,25.0L92.8,26.1L93.4,27.1L93.9,28.8L93.9,30.8L93.4,32.6L93.0,33.3L92.2,34.3L91.0,35.5L90.2,35.8L89.7,35.8L89.3,35.4L89.4,24.7L89.7,24.4Z M84.6,24.1L85.4,24.2L85.8,24.8L85.7,35.1L85.5,35.6L85.2,35.9L84.7,35.9L83.7,35.4L82.2,34.1L81.6,33.1L80.8,31.1L80.8,28.9L81.2,27.5L81.9,26.2L83.4,24.7Z M63.9,24.0L64.7,24.4L65.8,25.4L66.9,27.1L67.3,28.2L67.4,30.6L66.9,32.3L66.3,33.3L65.6,34.2L64.1,35.4L63.3,35.6L63.0,35.6L62.7,35.1L62.8,24.5L62.9,24.2L63.2,24.0Z M58.0,23.9L58.5,23.9L58.9,24.0L59.3,24.5L59.3,35.0L59.1,35.5L58.9,35.7L58.2,35.7L56.9,35.0L55.9,34.1L54.9,32.7L54.4,30.9L54.4,28.6L54.5,27.7L55.0,26.6L55.4,25.9L56.9,24.4Z M48.1,13.8L48.6,13.6L49.9,14.1L52.8,14.5L65.9,14.5L71.7,14.7L78.1,14.6L86.6,14.8L95.8,14.8L97.2,14.6L99.8,13.8L100.2,14.0L100.3,14.8L100.0,16.0L99.4,17.3L98.2,18.7L97.2,19.4L94.8,20.1L92.1,20.5L84.4,20.7L81.7,21.0L80.0,21.5L78.8,22.0L77.2,23.0L76.0,24.2L75.3,25.2L74.5,27.0L74.1,27.3L73.8,27.3L73.3,26.7L72.8,25.6L72.2,24.5L70.5,22.7L68.5,21.7L67.1,21.1L64.2,20.4L62.7,20.4L61.8,20.3L58.0,20.1L57.1,19.9L55.7,19.9L53.5,19.5L51.6,18.8L49.9,17.7L48.7,16.4L48.1,15.1Z" fill="#000" fill-rule="evenodd"/>
</svg>