<svg xmlns="http://www.w3.org/2000/svg" viewBox="0 0 128 128" width="128" height="128">
  <path d="M100.6,63.5L100.5,63.4L100.1,63.4L97.3,66.4L95.2,68.5L92.9,70.6L90.3,72.7L85.7,76.0L81.5,78.5L76.9,80.7L74.3,81.8L72.9,82.2L71.5,82.8L71.0,82.9L69.8,83.3L68.9,83.5L68.2,83.8L67.5,83.9L66.4,84.3L64.2,84.7L61.0,84.7L59.5,84.2L58.4,83.6L57.0,82.4L56.0,81.2L55.1,79.5L54.8,78.3L54.7,77.5L54.8,74.6L56.2,70.4L57.5,68.2L59.6,65.6L59.5,65.2L59.1,65.0L49.4,65.0L48.6,65.2L46.3,65.2L44.1,65.4L42.6,65.7L41.6,65.8L39.2,66.3L37.1,67.1L35.8,67.8L34.8,68.2L33.7,68.9L31.9,70.4L30.7,71.8L30.2,72.8L29.5,74.4L29.3,75.8L29.2,77.8L29.5,79.8L29.8,80.2L30.4,82.3L31.2,83.8L31.2,84.1L31.6,84.7L32.0,85.8L32.4,86.6L32.5,87.0L33.2,88.1L33.3,88.5L33.6,88.9L35.3,92.0L35.8,92.7L36.6,94.3L37.7,95.9L37.8,96.3L40.2,99.4L40.4,99.9L41.9,101.5L43.1,103.1L45.7,106.0L49.2,109.6L51.2,111.3L51.5,111.7L56.2,115.5L58.0,116.8L60.0,117.8L61.7,118.4L64.9,119.1L68.1,119.1L70.8,118.8L72.5,118.2L74.4,117.4L75.6,116.6L76.1,116.5L78.1,114.9L79.8,113.2L80.4,112.7L80.9,111.9L82.6,110.1L84.4,107.8L84.4,107.5L86.0,105.5L86.2,105.1L86.8,104.3L87.4,103.2L87.9,102.7L88.8,101.1L89.5,100.2L90.1,98.9L90.9,97.5L91.8,95.7L92.9,93.8L94.1,91.1L94.3,90.2L95.0,88.8L95.3,88.0L95.6,87.3L95.7,86.7L96.0,86.4L96.6,84.4L96.8,84.0L97.2,82.3L97.7,81.2L97.9,79.8L98.7,77.0L98.9,75.4L99.4,73.9L99.6,71.9L99.9,71.2L99.9,70.4L100.0,70.0L100.1,68.5L100.3,68.0L100.3,66.6L100.5,66.0Z M40.3,71.6L41.2,71.6L41.8,71.8L42.9,72.3L43.7,73.3L44.1,74.4L43.9,75.6L43.3,76.8L42.5,77.6L42.1,77.9L41.2,78.1L39.8,77.9L38.9,77.5L38.1,76.6L37.6,75.3L37.7,74.0L38.1,73.1L38.5,72.5L39.2,72.1Z M99.7,49.1L99.2,47.2L98.9,46.7L98.8,46.2L98.3,45.3L98.2,44.7L97.8,44.2L97.7,43.6L97.4,43.3L96.2,40.8L95.6,39.2L95.3,38.9L93.5,35.7L92.7,34.6L92.3,33.7L90.5,31.2L89.8,30.0L85.4,24.4L83.7,22.4L79.0,17.6L73.8,13.1L71.4,11.4L69.5,10.4L67.0,9.6L64.2,9.1L61.4,9.1L59.0,9.5L56.2,10.3L54.3,11.3L51.6,13.2L50.1,14.7L46.6,18.6L42.7,23.6L40.0,27.6L38.5,30.0L38.2,30.9L37.7,31.5L34.2,38.4L33.3,40.7L33.2,41.2L33.1,41.4L32.1,43.7L31.5,46.0L31.3,46.1L31.2,46.8L30.8,47.7L30.7,48.5L30.4,49.3L30.3,50.0L30.0,50.8L29.5,53.1L29.4,53.9L29.1,54.5L28.9,56.2L28.7,57.0L28.7,57.6L28.4,58.4L28.4,59.9L28.0,61.9L27.9,63.7L27.7,64.5L27.7,66.5L28.2,66.5L28.7,65.8L29.4,65.1L30.5,63.6L35.4,58.7L37.5,56.9L37.7,56.9L38.5,56.1L39.5,55.5L40.6,54.5L42.7,53.0L43.9,52.4L46.5,50.7L52.7,47.6L53.0,47.6L54.7,46.8L55.2,46.8L57.7,45.7L58.7,45.5L61.0,44.7L61.9,44.7L62.5,44.3L63.5,44.3L65.1,43.9L67.9,43.9L69.1,44.3L70.9,45.2L72.1,46.2L72.9,47.1L73.8,48.8L74.3,50.5L74.3,53.1L73.9,55.1L73.2,57.2L72.4,58.9L70.6,61.7L69.1,63.4L69.0,63.6L69.5,63.9L71.5,63.8L72.1,63.7L74.8,63.7L76.6,63.5L78.2,63.5L86.7,62.7L90.7,61.9L93.5,60.9L94.8,60.2L96.6,58.9L97.8,57.6L98.8,56.2L99.4,54.8L99.9,52.4L99.9,50.4Z M88.0,50.3L88.8,50.4L89.8,50.7L90.6,51.3L91.0,51.9L91.4,52.6L91.6,53.5L91.4,54.7L90.8,55.8L90.1,56.4L89.6,56.6L88.2,57.0L87.1,56.8L85.9,56.0L85.5,55.5L85.0,54.3L85.1,52.6L85.5,51.9L86.2,51.0L86.7,50.7Z" fill="#000" fill-rule="evenodd"/>
</svg>