<svg xmlns="http://www.w3.org/2000/svg" viewBox="0 0 128 128" width="128" height="128">
  <path d="M84.0,81.3L82.8,81.1L80.2,81.0L79.3,80.6L78.7,80.6L78.3,80.7L75.8,80.7L74.8,80.3L70.8,80.4L64.6,80.1L58.9,80.1L54.8,80.4L53.4,80.3L50.9,80.6L49.5,80.5L47.9,80.7L46.1,80.7L44.9,81.0L43.4,81.1L43.0,81.6L43.0,82.2L43.3,82.7L43.4,83.7L43.7,84.2L43.7,84.5L44.6,86.7L44.7,87.7L45.1,89.3L46.0,91.6L47.7,94.8L49.9,97.7L52.0,100.0L53.6,101.2L54.7,102.0L57.0,103.0L57.9,103.1L58.8,103.5L59.7,103.5L60.6,103.9L61.5,103.9L61.8,104.3L61.9,105.0L61.9,116.3L62.0,117.6L61.9,118.2L62.3,118.9L62.9,119.1L64.6,119.0L65.1,118.6L65.3,118.0L65.3,105.8L65.6,104.3L66.0,103.9L66.5,103.6L67.5,103.4L68.7,102.7L70.6,102.1L72.9,100.8L75.8,98.4L78.2,95.9L79.1,94.9L79.8,93.9L80.1,93.2L80.6,92.6L81.4,91.0L82.0,90.1L82.4,88.8L82.5,88.3L82.8,87.8L83.0,87.0L83.2,86.7L83.4,86.0L83.8,85.2L83.9,84.5L84.4,82.6L84.4,81.8Z M73.3,95.8L73.3,96.4L72.0,97.6L70.6,98.3L69.3,98.6L67.2,98.6L67.0,98.9L67.6,99.2L68.4,99.9L68.4,100.5L67.8,101.2L67.3,101.6L65.3,102.5L63.0,102.6L61.9,102.4L59.9,101.3L59.3,100.8L59.1,100.5L59.1,100.1L60.1,99.3L60.7,99.1L61.2,98.8L63.2,98.4L65.3,98.4L65.5,98.2L65.5,98.0L64.1,96.7L64.0,96.3L64.6,95.6L65.1,95.2L67.2,94.2L68.5,94.0L69.8,94.0L71.7,94.7Z M52.0,95.6L52.3,95.2L53.9,94.3L54.9,93.9L56.8,93.6L58.5,93.9L59.9,94.5L61.1,95.4L61.1,96.0L59.8,97.4L58.4,98.2L57.2,98.4L55.8,98.4L55.0,98.2L53.9,97.8L52.8,97.0L52.0,96.3Z M63.6,90.1L63.8,89.7L64.2,89.2L65.2,88.6L66.1,88.1L68.0,87.6L69.8,87.7L71.0,88.2L72.6,89.1L73.3,89.8L73.3,90.4L71.8,91.7L70.3,92.4L69.4,92.6L67.2,92.5L65.7,92.1L64.4,91.3L63.8,90.6Z M51.2,89.4L52.0,88.7L53.4,87.9L53.6,87.7L54.9,87.4L57.0,87.4L57.5,87.5L59.6,88.7L60.7,89.6L60.8,90.1L60.1,91.0L59.3,91.6L58.0,92.1L57.0,92.4L55.4,92.4L54.7,92.1L54.2,92.0L52.9,91.3L51.2,89.8Z M69.5,84.5L69.9,84.1L70.3,84.0L71.1,83.4L72.3,82.9L73.8,82.6L76.3,82.7L78.5,83.7L80.1,85.0L80.2,85.3L80.2,85.6L79.7,86.3L77.8,87.2L76.0,87.7L74.3,87.8L73.2,87.6L71.4,86.8L69.8,85.4L69.5,85.0Z M57.2,84.4L58.3,83.4L60.3,82.3L62.1,82.0L63.3,82.0L65.0,82.5L66.2,83.0L67.7,83.9L68.0,84.1L68.1,84.6L68.0,85.0L67.4,85.6L65.7,86.5L64.0,87.1L62.1,87.2L61.2,87.1L60.1,86.8L58.2,85.8L57.4,85.2L57.2,84.7Z M55.5,84.1L55.4,84.9L54.3,86.0L52.5,86.8L51.1,87.2L49.7,87.2L47.0,86.7L46.4,86.4L45.6,85.5L45.6,84.9L46.7,83.7L47.5,83.0L48.4,82.5L49.1,82.3L49.5,82.1L52.4,82.0L53.2,82.2L54.5,83.0L55.2,83.7Z M88.1,19.2L87.7,19.2L87.4,19.5L86.3,19.9L84.6,19.9L84.0,19.8L83.9,19.6L83.3,19.5L83.0,19.6L83.6,20.2L84.7,20.7L85.8,20.7L87.0,20.2Z M81.9,18.1L81.7,18.2L81.9,18.4Z M46.3,18.2L46.3,18.4L47.1,19.4L48.1,19.9L48.6,20.1L49.4,20.1L49.8,19.9L50.1,19.7L50.1,19.5L49.9,19.4L48.9,19.3L47.9,18.9L46.7,18.2Z M83.2,16.1L83.2,16.5L83.4,16.5L84.1,16.0L85.1,15.8L85.8,15.8L87.3,16.1L88.2,16.6L88.5,16.6L88.4,16.1L87.3,15.1L86.2,14.7L85.4,14.7L84.6,15.0L83.9,15.4Z M45.1,16.5L45.2,17.1L45.5,17.1L45.6,16.5L46.6,15.6L47.0,15.5L47.5,15.0L49.1,15.0L50.8,15.6L52.3,16.7L52.0,15.8L51.6,15.2L50.9,14.5L50.1,14.2L48.3,14.3L46.4,15.3L46.0,15.8L45.4,16.1Z M70.9,12.8L70.8,12.7L69.7,12.8L68.6,13.5L68.6,13.7L68.7,13.9L70.5,13.7L70.8,13.4Z M85.5,10.1L81.9,10.1L79.9,10.5L78.3,10.6L75.5,11.6L75.7,11.8L77.4,11.8L79.3,11.6L80.1,11.3L82.9,11.2L83.4,11.3L85.6,11.3L86.2,11.5L89.1,13.0L90.0,13.9L90.3,14.9L91.0,16.2L91.5,18.8L91.5,20.3L91.7,20.8L91.6,22.2L91.5,22.6L91.1,22.9L89.6,23.4L87.9,23.6L86.9,23.9L85.1,24.1L84.1,24.5L82.0,24.7L80.4,25.1L77.6,25.1L77.3,24.6L77.4,24.0L77.8,22.7L78.2,22.1L78.3,21.5L78.7,20.7L79.5,17.5L79.5,16.5L79.1,15.4L78.2,14.5L77.0,13.9L76.4,13.9L75.4,13.7L74.9,13.8L74.9,14.2L76.0,14.8L76.5,15.4L77.3,16.6L77.6,18.0L77.5,20.3L77.1,21.5L76.9,23.7L76.6,24.1L76.2,25.2L76.0,26.5L75.6,27.3L75.5,28.3L74.8,30.1L73.3,34.6L72.8,35.6L72.3,37.4L71.6,39.2L71.5,39.8L71.1,40.7L70.6,43.3L69.8,45.6L69.7,47.0L69.5,47.6L69.2,48.9L69.1,51.5L69.2,55.7L70.5,59.6L70.8,60.1L71.0,60.8L72.1,62.4L72.2,62.9L72.9,63.9L73.2,64.4L74.1,65.4L74.4,65.9L77.7,69.3L77.9,69.7L77.8,70.5L77.2,71.8L76.9,73.2L75.2,78.0L75.5,78.3L75.7,78.2L78.6,75.1L79.6,73.9L81.7,71.6L82.1,71.5L82.3,71.6L82.0,73.1L81.3,74.4L81.2,75.0L80.8,75.8L80.6,76.5L79.9,78.1L79.9,78.9L80.3,78.8L82.1,77.0L83.0,76.0L83.9,75.2L86.6,71.7L87.4,71.2L88.4,71.2L88.9,71.1L91.1,70.9L93.3,70.4L93.5,70.2L94.2,70.3L94.9,70.8L96.1,73.1L96.6,73.9L96.9,74.4L97.3,74.9L97.5,74.9L98.0,74.3L99.9,68.3L100.5,67.0L100.9,66.3L101.0,65.5L101.5,64.6L101.6,64.1L102.5,62.5L102.4,61.8L102.1,61.8L101.0,62.7L99.5,63.6L96.5,65.7L95.5,66.2L95.0,66.2L94.6,66.0L93.8,65.1L92.3,62.7L91.4,61.5L90.5,60.1L90.3,59.0L90.3,57.1L90.6,54.9L90.6,53.6L90.8,53.0L90.8,51.2L91.5,47.4L91.6,45.8L92.6,41.6L92.8,38.7L93.4,36.3L93.6,34.0L94.0,32.5L94.1,30.6L94.4,29.1L94.4,26.5L94.6,23.0L94.2,18.8L93.8,17.2L93.1,15.6L92.5,14.4L90.4,12.4L89.3,11.6L88.9,11.2L86.6,10.4Z M86.8,34.6L87.4,34.6L87.6,35.1L87.4,35.6L85.9,37.6L84.5,39.1L81.4,42.9L81.3,43.3L80.8,43.9L80.5,44.5L80.5,45.7L81.3,49.2L81.5,49.6L82.1,52.0L82.8,53.7L83.6,55.4L84.0,56.8L84.3,57.4L85.1,58.4L85.4,59.1L86.4,60.8L87.8,62.6L88.3,63.4L88.3,63.8L88.0,64.0L86.6,63.9L85.8,63.5L84.1,62.9L81.0,61.1L79.9,60.0L79.6,59.4L78.2,57.9L77.6,56.5L76.9,55.6L75.8,53.4L75.8,53.2L75.4,52.5L74.9,51.1L74.3,48.6L74.3,47.4L74.5,46.6L74.6,44.6L74.9,43.9L75.2,42.5L76.1,40.1L77.8,37.8L78.5,37.0L79.4,36.7L80.5,36.5L81.0,36.2L83.3,35.6L85.0,34.9L86.1,34.8Z M67.2,13.2L66.1,13.0L64.9,12.4L63.5,12.1L62.8,11.7L61.9,11.5L61.5,11.2L60.3,11.0L59.5,10.7L58.6,10.6L58.0,10.3L56.2,9.8L55.5,9.7L55.0,9.5L52.8,9.1L48.5,9.3L47.5,9.7L46.5,9.9L44.4,10.9L43.6,11.6L42.9,12.0L41.1,13.8L40.6,14.6L40.1,15.3L38.9,18.4L38.8,19.2L38.4,20.1L38.4,21.2L38.0,22.4L37.9,23.9L37.8,26.9L37.5,30.0L37.5,33.2L37.7,34.3L38.0,39.1L38.1,42.7L38.3,43.5L38.3,46.1L38.1,47.8L38.2,50.3L37.6,55.9L37.4,56.4L37.4,57.3L36.9,58.9L36.7,60.2L36.3,61.5L35.6,62.9L35.0,63.8L34.3,64.6L33.2,66.3L32.5,66.9L31.8,66.8L30.8,66.3L28.2,64.7L27.4,64.3L26.2,63.5L25.9,63.5L25.8,63.6L25.8,64.2L26.2,64.7L26.8,65.9L27.1,66.3L28.0,68.6L30.1,72.4L30.4,73.1L31.1,74.3L31.1,74.4L32.3,75.8L32.7,75.8L32.8,75.7L33.7,73.6L34.2,72.0L34.8,71.2L36.1,71.2L37.0,71.5L39.5,71.6L42.5,71.6L42.9,71.8L43.9,72.7L47.4,77.3L48.3,78.3L48.6,78.2L48.6,77.4L48.3,76.8L48.2,76.0L47.9,75.4L47.8,74.8L47.2,73.4L47.2,73.0L47.0,72.4L47.0,71.1L47.4,71.0L48.2,71.7L51.0,75.8L52.7,77.9L53.0,78.1L53.3,78.1L53.4,77.7L53.1,76.9L53.0,76.1L52.5,74.8L52.1,72.8L51.9,72.4L51.8,71.6L51.3,70.2L51.3,69.3L52.2,68.4L53.3,67.6L54.4,66.5L56.6,63.6L58.5,59.6L59.0,57.9L59.1,57.1L59.7,55.3L60.0,53.8L60.0,50.8L59.8,49.9L59.7,47.7L59.6,47.0L59.5,44.8L59.3,44.3L59.1,41.7L58.6,39.5L58.6,38.9L58.3,37.4L57.8,35.9L57.7,34.8L57.4,33.3L57.4,32.9L56.9,31.4L56.8,30.3L56.5,29.3L55.8,25.6L55.7,20.7L55.9,19.8L56.1,18.4L57.1,16.2L57.7,15.6L58.7,14.8L61.4,14.0L61.4,13.8L58.5,13.8L57.4,13.9L56.2,14.4L55.2,15.5L54.7,16.9L54.7,18.8L55.1,21.0L55.3,23.2L55.2,23.4L54.7,23.8L53.8,23.8L53.4,23.6L52.4,23.4L51.6,23.1L50.1,23.0L46.7,22.2L44.8,22.0L42.3,21.2L42.0,20.9L41.8,20.3L42.9,16.8L43.5,15.8L43.5,15.4L43.7,14.9L44.0,14.6L44.2,14.1L45.2,12.8L46.4,11.6L48.5,10.8L51.3,10.3L53.4,10.4L54.6,10.7L56.2,10.7L57.6,11.2L58.5,11.2L59.6,11.6L60.9,11.8L61.2,12.0L62.1,12.2L64.1,12.8L64.3,13.1L64.3,13.4L64.0,13.6L63.5,13.7L63.5,13.9L64.7,14.0L67.2,13.9L67.4,13.9L67.5,13.5Z M45.4,34.5L47.1,35.4L49.0,35.9L49.3,36.1L50.1,36.3L52.0,37.4L52.6,37.7L53.1,38.2L53.6,39.4L54.0,41.6L54.3,42.0L55.0,44.4L55.0,45.0L55.1,45.6L55.0,47.9L54.2,51.4L53.8,52.4L53.7,53.3L52.9,54.4L50.6,57.1L49.4,58.3L45.6,61.2L44.4,61.8L43.3,62.8L40.1,64.7L39.6,64.8L39.3,64.5L39.5,63.9L40.8,62.4L42.2,60.2L42.6,59.7L43.5,58.3L46.3,54.5L46.5,53.9L47.6,52.4L47.8,51.8L48.2,51.0L48.2,50.7L48.7,49.3L48.8,46.1L48.6,45.1L48.0,44.0L47.3,42.0L46.9,41.3L46.0,38.9L44.6,36.3L44.2,35.3L44.3,34.7L44.5,34.4Z" fill="#000" fill-rule="evenodd"/>
</svg>