<svg xmlns="http://www.w3.org/2000/svg" viewBox="0 0 128 128" width="128" height="128">
  <path d="M77.9,30.6L75.2,31.3L74.0,31.9L72.2,33.3L70.5,35.3L69.8,36.3L69.5,37.4L69.1,38.0L68.7,39.4L68.6,43.4L69.1,45.0L70.0,47.0L70.8,48.1L71.6,48.8L71.7,49.1L73.7,50.7L74.6,51.2L75.5,51.5L75.9,51.8L78.1,52.3L80.8,52.3L83.6,51.4L85.2,50.5L86.6,49.4L88.1,47.8L89.5,45.3L89.8,43.9L90.0,43.3L90.0,39.6L89.7,38.7L89.5,37.7L88.8,36.1L88.2,35.3L87.5,34.6L87.4,34.3L85.3,32.5L84.3,31.8L82.3,31.0L80.2,30.6Z M118.8,16.6L118.4,16.4L116.4,16.2L115.2,16.4L111.7,16.5L87.1,16.5L86.4,16.6L79.5,16.6L74.6,17.2L73.3,17.6L72.7,17.7L71.9,18.0L71.1,18.2L70.6,18.5L69.8,18.7L69.4,19.0L69.0,19.1L66.9,20.2L64.2,22.0L62.4,23.6L60.3,25.8L59.9,26.6L59.3,27.3L58.9,28.0L58.4,28.6L57.3,30.8L56.7,31.1L56.0,30.3L53.7,26.5L52.4,24.9L49.4,22.1L46.9,20.3L44.1,19.0L43.6,18.7L39.9,17.4L35.9,16.7L25.9,16.8L11.0,16.6L10.0,16.7L9.6,16.9L9.4,17.4L9.3,21.0L9.4,35.7L9.2,36.6L9.4,37.3L9.4,39.3L9.2,42.1L9.4,44.4L9.4,47.3L9.5,48.6L9.4,65.1L9.6,66.1L9.7,69.6L10.2,72.6L10.5,73.2L10.6,74.9L11.6,78.6L12.6,81.4L13.3,82.9L13.7,83.9L14.2,84.8L14.5,85.6L15.1,86.5L15.9,88.4L19.4,93.4L22.0,96.5L25.9,100.4L30.5,103.9L31.3,104.2L32.3,105.0L38.0,108.0L41.5,109.2L41.9,109.5L42.7,109.8L43.1,109.8L44.0,110.1L44.9,110.2L46.7,110.8L51.2,111.6L56.0,111.9L57.9,111.9L59.1,111.8L63.0,111.6L64.4,111.3L66.1,111.1L70.8,109.8L71.2,109.8L71.8,109.5L74.4,108.7L74.7,108.5L75.3,108.3L75.7,108.0L76.2,107.9L76.5,107.7L77.6,107.3L79.2,106.3L79.9,106.1L80.2,105.8L80.8,105.5L82.4,104.4L83.6,103.8L85.3,102.4L85.5,102.4L88.5,100.0L93.0,95.3L94.8,93.1L98.0,88.2L98.5,87.0L99.3,85.8L99.6,84.8L100.5,83.0L101.0,81.6L101.3,81.0L101.4,80.5L101.8,79.8L102.3,77.7L102.9,76.0L103.1,75.0L103.2,74.7L103.4,73.5L103.7,72.7L104.2,68.0L104.3,64.8L104.2,62.7L104.2,58.0L104.1,52.5L104.1,38.7L104.3,36.9L105.2,33.9L105.6,33.3L105.7,32.7L106.2,31.5L107.5,29.4L109.2,27.2L111.8,24.8L114.6,23.0L115.1,22.8L115.9,22.3L116.2,22.3L117.7,21.7L118.6,21.6L119.0,21.4L119.1,18.5L119.0,16.9Z M35.7,101.8L36.8,100.2L39.0,97.8L40.3,96.7L40.7,96.5L41.1,96.5L41.8,97.1L42.8,98.6L44.5,100.6L45.0,101.3L47.2,103.8L50.3,106.7L50.2,107.1L48.9,107.2L47.0,106.7L46.5,106.7L45.9,106.4L42.2,105.5L40.1,104.5L39.4,104.3L38.5,103.8L37.1,103.3L36.1,102.7L35.8,102.3Z M78.8,101.2L78.8,101.7L78.3,102.3L76.2,103.4L76.0,103.6L73.8,104.5L72.8,104.8L72.3,105.1L68.2,106.5L64.4,107.2L63.7,107.2L63.5,107.1L63.6,106.6L66.9,103.2L67.3,102.7L69.1,100.8L70.6,99.0L71.6,97.4L72.3,96.5L73.0,95.9L73.7,95.9L76.0,97.8L78.3,100.4Z M45.2,93.6L45.9,93.1L47.0,92.7L47.8,92.2L51.0,91.2L54.0,90.7L54.8,90.7L55.2,91.0L55.3,91.6L55.4,104.2L55.1,104.7L54.4,104.5L52.8,103.4L49.6,100.2L48.2,98.6L45.1,94.5L45.1,93.9Z M68.7,93.2L68.7,93.8L68.5,94.2L67.8,95.4L65.7,98.1L62.6,101.5L60.1,103.6L59.5,103.7L59.3,103.3L59.3,100.4L59.1,97.7L59.1,91.6L59.4,90.9L59.7,90.6L62.6,90.9L65.7,91.7L66.1,92.0L68.0,92.6Z M33.7,81.2L34.2,81.6L34.5,82.1L34.9,83.7L36.5,87.9L36.7,88.2L37.7,90.6L38.5,91.8L38.6,92.7L35.4,95.8L33.9,97.4L33.1,98.6L32.2,99.5L31.6,99.6L30.3,98.6L29.9,98.5L28.0,96.9L25.2,94.2L24.5,93.3L23.1,91.7L21.5,89.6L20.8,88.4L20.8,87.9L21.4,87.2L25.4,84.8L30.5,82.3L32.7,81.4Z M80.0,80.9L81.2,81.1L85.0,82.7L85.6,83.2L87.1,83.7L90.9,85.8L91.5,86.3L92.5,86.8L93.3,87.5L93.3,87.9L92.8,88.8L92.2,89.5L91.1,91.1L88.3,94.4L85.4,97.3L84.8,97.6L83.6,98.6L82.9,99.1L82.5,99.0L79.2,95.4L76.6,93.0L76.0,92.6L75.4,92.0L75.6,91.0L76.1,90.1L76.2,89.6L77.0,88.2L77.0,87.8L77.4,87.3L77.6,86.6L77.9,86.1L78.1,85.4L78.4,84.8L79.4,81.5Z M59.6,77.0L61.9,76.9L63.7,77.2L64.9,77.2L65.3,77.3L66.9,77.6L68.7,77.7L74.7,79.0L75.2,79.4L75.2,80.7L74.6,82.7L74.4,83.2L74.2,83.8L73.5,85.0L73.3,85.9L72.5,87.6L71.7,89.0L71.4,89.3L70.9,89.4L70.1,89.2L68.0,88.3L64.1,87.1L61.1,86.6L60.4,86.6L59.7,86.4L59.4,86.2L59.2,85.8L59.2,83.8L59.0,83.0L59.0,79.1L59.2,77.6Z M55.0,77.0L55.3,77.5L55.3,84.9L55.2,86.2L54.7,86.5L52.1,86.9L49.0,87.6L48.3,88.0L46.7,88.4L45.7,88.9L44.6,89.2L43.0,90.0L42.4,89.9L41.9,89.4L41.8,89.0L41.4,88.6L40.8,87.1L39.9,85.4L39.5,84.1L39.2,83.7L39.1,83.0L38.8,82.6L38.2,80.7L38.2,79.9L38.5,79.5L39.8,79.0L41.5,78.6L42.5,78.5L43.8,78.1L45.5,77.8L46.3,77.8L49.4,77.3L52.9,76.9Z M31.6,66.7L31.9,67.0L32.0,67.5L32.0,69.8L32.2,70.6L32.2,71.7L32.7,75.3L32.9,76.0L32.9,77.1L32.5,77.5L31.8,77.7L30.9,78.2L28.6,79.0L28.1,79.4L27.5,79.5L27.2,79.8L22.9,81.9L21.9,82.6L21.1,83.0L19.0,84.2L18.4,84.2L17.8,83.4L17.6,82.7L16.7,80.9L14.8,75.1L14.6,73.8L14.1,72.0L13.7,69.7L13.7,67.4L13.8,67.0L14.2,66.7L14.8,66.7L18.4,66.6L28.0,66.7L29.0,66.5L31.2,66.5Z M36.3,67.1L36.5,66.7L36.9,66.5L39.2,66.3L54.7,66.4L55.1,66.7L55.2,67.1L55.2,72.5L54.8,73.0L54.3,73.1L52.0,73.1L51.5,73.3L49.9,73.4L46.6,73.8L46.1,74.0L45.4,74.0L44.0,74.4L40.9,74.9L40.7,75.1L39.6,75.2L38.7,75.6L37.5,75.7L37.1,75.2L36.5,72.4L36.4,70.0L36.2,69.0Z M77.3,66.6L77.4,67.7L77.2,68.8L77.0,73.3L76.6,75.0L76.4,75.3L76.1,75.4L74.0,75.1L73.3,74.8L72.2,74.7L70.4,74.2L69.1,74.1L68.2,73.8L67.1,73.8L63.6,73.2L59.9,73.0L59.5,72.9L59.2,72.5L59.0,70.0L59.0,67.1L59.3,66.7L59.8,66.3L71.0,66.3L74.3,66.1L76.6,66.2Z M100.3,66.4L100.3,69.1L100.1,69.3L99.9,71.4L99.2,74.8L97.6,79.8L97.3,80.1L96.2,83.0L95.6,83.8L94.7,83.7L92.5,82.3L86.8,79.4L85.0,78.6L84.8,78.6L83.6,78.0L83.4,78.0L81.7,77.2L81.4,77.2L80.8,76.8L80.8,75.5L81.2,73.6L81.3,72.0L81.5,70.5L81.6,67.2L81.8,66.6L82.0,66.3L83.2,66.1L86.1,66.1L90.2,66.1L96.2,66.0L99.9,66.1Z M13.8,56.4L14.2,56.5L16.0,58.5L18.0,60.4L19.9,61.9L19.9,62.3L19.6,62.5L14.8,62.6L14.2,62.5L13.6,62.0L13.4,57.3L13.6,56.6Z M59.5,56.0L59.7,56.0L60.1,56.6L62.5,59.2L64.3,60.8L65.6,61.8L65.7,62.1L65.4,62.4L59.6,62.4L59.2,62.1L59.0,61.2L59.1,56.6L59.2,56.2Z M100.2,54.6L100.5,54.9L100.5,55.3L100.5,61.8L100.0,62.2L99.7,62.3L94.8,62.4L93.3,62.2L93.1,62.0L93.1,61.8L95.8,59.5L98.2,57.1L99.6,55.0Z M18.2,53.9L18.9,53.7L31.8,53.7L35.2,53.5L43.2,53.6L43.9,53.9L46.4,56.4L51.5,61.6L51.5,62.1L51.3,62.3L42.4,62.2L39.1,62.4L37.5,62.1L32.4,62.1L29.6,61.7L25.4,60.3L22.0,58.3L21.0,57.6L20.1,56.5L18.7,55.4L18.1,54.5Z M13.6,41.8L14.2,41.3L15.0,41.1L20.1,41.1L21.0,41.0L30.7,41.1L31.6,41.6L38.3,48.5L38.4,49.0L38.0,49.2L34.1,49.3L15.4,49.2L15.1,49.1L14.6,48.4L14.0,46.7L13.5,43.6Z M46.8,25.7L47.4,25.8L48.4,26.7L49.9,28.2L50.8,29.5L51.3,30.0L51.4,30.4L52.6,32.3L52.7,32.8L53.1,33.3L54.1,36.3L54.8,41.3L55.0,44.9L55.2,45.8L55.2,52.0L55.1,53.5L55.1,55.1L55.2,57.6L55.2,58.8L55.0,59.0L54.5,59.0L49.7,54.4L46.9,51.6L46.5,50.6L46.4,26.9L46.5,26.2L46.7,25.7Z M13.6,24.4L14.2,24.4L16.1,26.2L16.6,26.9L18.0,28.0L26.0,36.3L26.0,36.6L25.7,36.9L14.8,36.9L13.8,36.7L13.6,36.4L13.4,32.1L13.4,25.7Z M34.3,20.9L36.4,20.9L39.5,21.4L41.1,22.0L41.9,22.8L41.9,27.2L42.1,29.9L42.1,45.4L42.0,45.8L41.8,46.0L41.4,45.9L39.6,44.3L35.5,40.3L34.1,38.7L33.9,38.1L33.7,36.8L33.8,31.9L33.6,29.2L33.6,23.1L33.7,21.8L33.9,21.4Z M17.4,21.0L18.9,20.9L23.8,20.8L29.0,20.9L29.4,21.2L29.6,23.2L29.6,33.2L29.3,33.5L29.1,33.5L25.9,30.5L18.3,22.8L17.2,21.4L17.2,21.3Z M110.0,20.8L110.1,21.2L106.5,24.6L105.0,26.4L103.7,28.2L102.6,30.5L102.1,31.0L101.9,31.0L101.5,30.7L99.9,27.8L97.3,24.5L93.9,21.4L93.9,21.1L94.1,20.9L96.4,20.7L97.2,20.8L101.6,20.6L109.5,20.6Z M78.6,20.6L81.3,20.7L82.9,21.0L83.6,21.0L86.2,21.8L87.7,22.5L88.8,22.8L90.0,23.6L91.1,24.1L94.9,27.7L96.7,30.1L97.3,31.3L98.0,32.4L98.2,33.0L98.4,33.3L98.9,34.7L99.7,37.7L99.7,39.0L99.9,40.9L99.5,45.4L99.1,47.3L98.4,49.1L97.6,50.7L97.5,51.1L96.9,51.8L95.9,53.5L94.5,55.3L92.6,57.1L90.1,59.0L87.3,60.4L85.6,60.9L85.0,61.3L83.2,61.7L80.6,62.0L77.6,62.0L76.5,61.8L75.3,61.7L73.5,61.3L72.6,60.8L71.6,60.6L69.1,59.3L68.5,58.9L67.7,58.5L65.1,56.4L62.7,53.6L62.1,52.8L60.5,49.8L60.4,49.4L60.0,48.9L59.2,45.9L59.1,45.0L58.9,44.3L58.7,42.5L58.9,38.3L59.8,34.6L60.8,32.1L61.1,31.9L61.7,30.5L63.5,28.0L64.5,26.8L67.5,24.4L70.8,22.5L72.6,21.9L73.4,21.4L74.4,21.3L75.7,20.9L77.8,20.8Z" fill="#000" fill-rule="evenodd"/>
</svg>