<svg xmlns="http://www.w3.org/2000/svg" viewBox="0 0 128 128" width="128" height="128">
  <path d="M119.1,28.5L118.8,28.2L118.3,28.0L115.8,28.0L114.3,28.2L113.5,28.1L108.6,28.3L83.1,28.2L80.8,28.3L70.8,28.3L61.4,28.5L59.1,28.4L56.3,28.6L26.6,28.5L25.7,28.7L15.6,28.5L14.7,28.7L10.6,28.7L9.4,28.9L9.3,29.1L9.2,30.8L9.3,48.4L9.4,53.4L9.4,62.0L9.5,67.4L9.6,80.7L9.8,89.0L9.8,99.1L10.0,99.6L10.4,99.9L11.6,100.0L21.1,99.7L32.5,99.7L34.7,99.9L37.9,99.8L44.1,100.1L56.0,99.9L82.7,99.9L108.5,100.2L115.3,100.2L118.5,100.1L118.8,99.7L118.9,99.3L119.0,90.9L119.0,53.9L119.1,48.2L119.0,33.9L119.1,31.7Z M108.9,61.1L109.1,61.4L109.1,61.9L109.0,62.2L107.6,63.8L106.7,65.4L106.3,65.9L104.5,69.6L104.1,70.0L104.1,70.4L103.0,72.7L100.2,77.4L97.6,80.6L96.8,81.1L96.2,81.3L95.6,81.3L95.3,81.1L95.2,80.6L96.0,78.0L96.5,74.7L96.5,72.3L96.3,71.0L95.8,68.9L94.6,65.9L92.9,62.9L92.1,61.9L92.1,61.6L92.5,61.2L96.6,61.3L97.3,61.5L102.5,61.6L104.9,61.4L107.4,61.0Z M94.2,69.4L94.7,72.3L94.7,75.2L94.5,77.4L93.6,80.1L92.7,81.8L91.7,82.7L90.8,82.9L59.8,82.9L58.4,82.1L57.4,81.3L56.4,80.1L55.6,78.9L52.8,73.4L52.8,72.9L53.2,72.6L57.3,72.7L62.0,72.4L64.9,72.4L69.4,72.6L73.6,73.1L79.9,74.4L82.3,75.2L83.3,75.6L84.0,75.8L85.7,76.6L86.5,76.6L87.1,76.1L87.2,75.8L87.2,74.4L86.8,72.8L85.3,70.0L83.1,67.1L81.3,65.1L81.2,64.7L81.2,64.3L81.9,63.7L82.9,63.5L83.9,63.5L84.3,63.2L84.4,62.8L83.7,61.4L83.7,60.8L84.1,60.4L84.5,60.3L86.0,60.4L87.3,60.8L89.3,61.9L90.4,62.8L91.7,64.3L92.8,65.8L93.6,67.5Z M85.3,73.9L85.3,74.3L85.1,74.6L84.4,74.7L79.3,73.0L72.9,71.6L72.0,71.6L70.4,71.3L68.0,71.1L65.2,71.1L63.9,70.9L61.9,71.0L55.2,70.8L52.1,70.4L50.4,69.8L49.6,69.8L49.1,70.1L49.1,70.8L49.5,71.7L50.0,72.3L50.4,73.5L51.8,75.8L53.4,79.4L53.3,80.5L52.9,80.9L52.1,81.3L51.2,81.5L28.5,81.5L27.8,81.3L25.0,81.2L24.2,81.0L22.7,80.4L22.0,79.7L21.8,79.2L21.4,77.3L21.5,74.0L21.7,73.5L22.0,70.6L22.5,68.8L23.1,67.3L23.2,66.4L24.4,63.3L24.8,62.7L25.4,61.2L25.8,60.7L26.1,59.8L26.6,59.2L27.9,56.9L28.2,56.6L29.1,55.2L30.1,53.8L30.9,53.0L31.6,52.0L34.8,49.0L37.3,47.1L37.7,46.9L38.2,46.4L39.5,45.7L39.9,45.3L40.3,45.2L42.0,44.2L44.9,43.0L45.1,42.8L49.5,41.3L50.0,41.3L50.6,41.1L51.7,40.9L52.4,40.7L57.0,40.2L58.8,40.2L62.6,40.6L65.7,41.4L67.2,42.0L68.5,42.4L70.4,43.6L72.2,45.4L73.1,47.3L73.1,48.2L72.4,48.8L71.2,48.8L69.9,48.4L69.1,48.3L68.0,47.9L67.2,47.9L66.9,48.2L66.9,48.6L67.1,48.9L68.0,49.7L68.4,50.5L68.6,51.5L68.4,52.9L68.0,53.6L67.3,54.1L66.6,54.1L65.9,53.8L65.3,53.7L63.8,53.0L59.9,51.9L55.3,51.1L52.4,51.0L49.3,51.2L48.6,51.5L47.8,51.6L45.8,52.4L45.1,52.5L43.3,53.3L41.8,54.2L39.6,55.7L36.8,58.6L34.9,61.2L33.4,64.1L32.4,67.0L31.9,69.4L32.0,72.1L32.2,72.6L32.9,73.5L33.6,73.6L34.2,73.4L35.8,72.2L35.9,72.2L39.3,69.3L44.4,65.9L44.9,65.7L45.9,65.1L47.1,64.6L48.8,63.6L50.1,63.2L53.0,62.0L54.0,61.8L54.4,61.6L55.0,61.5L55.2,61.3L55.9,61.2L57.9,60.6L62.4,59.8L64.1,59.7L65.4,59.5L66.8,59.5L68.4,59.2L74.5,59.2L74.6,58.7L74.3,58.3L72.9,57.2L70.8,56.0L70.0,54.8L70.0,54.4L70.4,54.1L71.2,54.3L73.1,54.3L73.6,54.0L74.0,54.0L74.3,54.2L75.2,56.1L76.6,58.0L76.9,59.1L77.6,59.6L79.4,59.9L80.0,60.3L80.1,61.9L79.8,62.2L79.3,62.3L76.8,60.5L76.4,60.4L75.6,60.4L75.6,60.9L76.2,61.6L77.4,62.4L78.5,63.6L79.3,65.2L82.9,69.4L84.5,71.6Z" fill="#000" fill-rule="evenodd"/>
</svg>