<svg xmlns="http://www.w3.org/2000/svg" viewBox="0 0 128 128" width="128" height="128">
  <path d="M107.9,26.1L107.1,25.4L106.0,25.1L105.8,24.8L102.7,23.4L102.1,22.9L100.4,21.3L99.9,20.1L99.8,17.9L99.5,16.8L98.9,15.7L97.2,14.0L95.9,13.2L94.3,12.7L92.2,12.2L87.9,12.2L86.4,12.3L84.6,12.8L84.1,13.1L83.3,13.3L79.4,15.4L77.4,16.9L75.4,19.1L73.3,22.6L72.6,24.5L72.5,25.3L72.0,26.6L71.8,31.0L72.1,34.8L72.5,36.3L73.5,38.8L74.4,40.6L75.5,42.3L76.0,42.7L76.5,43.4L77.7,44.8L82.1,48.5L85.8,51.0L89.3,53.1L92.5,55.4L94.9,56.7L96.5,57.9L98.5,59.2L101.9,62.0L102.5,62.8L104.6,64.9L106.9,68.1L108.1,70.4L109.1,73.3L109.6,75.2L109.6,76.3L109.7,77.2L109.7,81.6L108.9,85.6L107.4,90.2L106.7,91.3L105.9,93.0L104.1,95.5L103.8,95.3L104.0,93.6L104.2,92.7L104.1,89.6L103.9,88.1L103.4,86.7L102.7,85.4L102.5,84.7L101.3,83.1L99.5,81.2L97.9,80.1L95.2,78.8L93.8,78.4L91.8,78.1L89.0,78.1L88.4,78.4L86.7,78.8L84.3,80.0L82.6,81.4L81.1,83.1L79.5,85.6L78.7,87.9L78.3,89.9L78.3,92.6L78.7,95.2L79.8,97.7L80.8,99.2L83.6,102.0L84.4,102.6L85.9,103.5L87.6,104.1L88.8,104.4L92.7,104.5L92.9,104.5L92.9,104.8L92.1,105.3L89.9,105.8L89.8,106.0L88.0,106.5L86.4,106.7L85.1,107.1L80.9,107.3L77.4,107.1L76.1,106.7L74.8,106.6L73.8,106.3L72.2,106.0L72.0,105.8L70.7,105.6L70.1,105.3L69.8,105.3L69.5,104.9L69.7,104.7L72.5,104.5L74.2,104.1L74.8,103.7L75.7,103.5L76.9,102.6L76.9,101.6L75.9,99.7L75.7,98.8L74.4,96.4L74.0,96.2L73.5,96.2L71.8,97.0L69.3,97.0L67.7,96.5L66.7,96.0L65.0,94.3L64.2,93.1L63.8,91.8L63.9,89.4L64.5,87.4L65.4,86.3L67.1,84.7L68.5,84.1L69.4,83.9L71.1,83.9L72.2,84.2L73.6,84.9L75.0,86.4L75.4,86.6L76.1,86.6L77.3,85.7L79.1,84.0L80.1,83.3L80.6,82.7L80.6,82.4L80.0,81.3L77.7,79.1L75.1,77.3L72.8,76.6L71.0,76.3L69.3,76.3L67.8,76.5L65.8,77.2L63.4,78.2L61.2,79.9L59.3,81.9L57.8,84.6L57.0,86.2L56.4,88.8L56.4,93.4L56.9,95.5L57.4,97.0L58.4,98.8L59.9,100.5L59.9,101.0L59.1,100.8L52.1,96.7L47.5,94.4L47.1,93.9L47.3,93.7L48.5,93.5L49.9,93.1L51.3,92.3L52.7,91.1L54.0,89.5L56.0,85.6L57.3,82.1L57.7,81.6L58.2,80.0L59.7,77.1L60.2,75.4L61.3,73.2L61.4,72.2L60.8,71.5L60.4,71.2L59.8,71.1L57.8,69.9L57.3,69.8L56.2,69.2L55.1,69.2L54.9,69.5L54.4,70.9L53.0,73.8L50.3,80.3L48.4,84.2L46.9,85.5L46.0,85.6L45.3,85.4L44.6,84.9L43.9,84.3L43.7,83.5L43.7,83.0L45.3,78.0L45.6,77.6L46.5,75.2L47.0,74.3L47.5,72.8L48.5,70.6L49.7,67.5L49.6,66.7L49.0,66.0L48.0,65.5L47.4,65.3L46.9,64.9L45.3,64.4L44.3,63.9L43.6,64.0L42.9,64.9L42.8,65.4L42.5,65.9L42.5,66.2L41.7,67.8L40.4,71.5L39.4,73.5L39.2,74.3L38.8,75.0L38.4,76.4L37.3,79.0L36.2,82.5L36.0,83.4L36.0,84.7L36.3,86.6L37.2,88.5L38.1,89.7L38.6,90.2L38.6,90.4L38.4,90.6L38.1,90.6L36.7,90.1L35.9,90.0L35.4,89.7L33.6,89.4L32.2,89.0L30.6,88.9L29.7,88.6L28.0,88.5L27.6,88.4L27.5,87.8L28.6,86.2L28.9,85.3L29.3,84.8L29.6,83.9L31.0,81.6L32.1,79.2L32.5,78.6L34.5,74.1L34.9,73.5L35.2,72.6L36.3,70.5L36.8,69.3L37.5,68.1L38.9,65.1L42.2,60.7L43.8,59.0L45.4,57.6L47.8,56.1L48.1,56.1L50.5,55.0L51.4,54.8L51.7,54.6L53.0,54.6L54.4,54.2L57.5,54.2L60.1,54.8L61.0,55.2L63.1,56.4L64.7,58.0L65.7,58.1L69.5,55.7L72.2,54.4L72.8,53.7L72.8,53.2L72.4,52.6L70.8,51.0L69.3,49.9L66.1,47.9L64.9,47.3L62.7,46.7L62.0,46.3L57.8,45.6L54.2,45.6L51.4,46.0L50.6,46.3L49.6,46.4L47.9,47.0L45.9,47.9L44.6,48.3L41.5,50.2L40.7,51.0L39.7,51.6L36.6,54.6L35.8,55.9L35.3,56.4L34.3,57.6L33.8,58.5L32.5,60.2L31.5,62.2L30.6,63.6L28.5,67.8L28.3,68.6L27.5,70.1L27.1,71.2L25.5,74.4L25.2,74.7L23.5,78.4L21.8,81.7L21.0,82.8L19.8,84.9L19.1,85.8L18.0,87.7L17.2,88.8L17.0,89.4L15.1,91.6L14.5,92.6L13.8,93.2L12.8,94.9L10.7,97.0L10.5,97.0L9.6,97.7L9.6,98.2L10.1,98.3L11.2,98.0L11.7,97.8L14.8,97.4L15.7,97.1L22.3,96.9L25.0,96.9L27.6,97.0L28.2,97.2L31.2,97.5L34.7,98.2L37.4,99.1L38.1,99.2L38.5,99.5L40.9,100.2L41.5,100.6L41.9,100.7L43.0,101.2L44.3,102.1L46.0,102.9L47.8,104.1L49.5,104.9L54.4,107.7L63.3,112.1L68.6,114.1L69.8,114.3L70.3,114.6L72.8,115.2L73.9,115.3L76.7,115.9L78.3,115.9L79.3,116.1L84.0,116.0L87.1,115.6L90.6,114.7L93.0,114.2L94.0,113.8L95.8,113.2L97.6,112.3L98.3,112.1L101.2,110.4L102.9,109.2L103.3,109.2L107.9,105.2L110.5,102.3L111.2,101.7L112.0,100.2L112.5,99.7L113.8,97.3L114.4,96.7L116.7,91.5L117.9,87.9L118.7,83.2L118.9,81.0L118.9,77.8L118.6,74.3L117.8,70.2L116.0,65.1L113.9,61.7L113.4,61.2L112.5,59.8L110.8,57.8L107.7,54.7L105.2,52.7L102.7,50.8L101.6,50.2L99.3,48.6L98.0,47.9L95.8,46.4L93.5,45.2L92.3,44.4L89.5,42.9L87.6,41.5L85.2,39.5L85.0,39.4L83.5,37.9L82.4,36.3L81.4,34.4L80.8,31.9L80.8,29.8L81.4,27.2L82.0,25.8L82.9,24.5L83.7,23.7L85.4,22.5L86.1,22.3L86.6,21.9L88.9,21.4L91.8,21.4L93.4,21.9L94.1,22.5L96.8,25.3L98.0,26.2L99.5,27.1L101.1,27.7L103.2,28.3L106.5,28.4L107.2,28.2L107.8,28.0L108.3,27.3L108.3,26.6Z M89.9,85.7L92.3,85.6L92.9,85.7L94.7,86.7L95.9,88.1L96.6,89.9L96.6,92.3L96.0,93.9L95.6,94.4L94.3,95.7L92.9,96.4L92.3,96.6L90.8,96.7L89.8,96.5L88.0,95.7L86.4,94.1L85.7,92.2L85.8,90.1L86.2,88.5L86.8,87.7L88.5,86.2Z" fill="#000" fill-rule="evenodd"/>
</svg>