<svg xmlns="http://www.w3.org/2000/svg" viewBox="0 0 128 128" width="128" height="128">
  <path d="M87.3,10.6L84.1,9.5L81.4,9.2L80.5,9.2L80.1,9.3L78.1,9.6L75.5,10.5L73.8,11.5L72.8,12.3L70.9,14.3L70.6,14.9L70.3,15.3L69.0,17.7L68.5,19.2L68.2,23.1L68.5,25.7L68.9,28.1L70.2,32.0L71.5,34.9L71.6,35.3L72.1,36.1L72.1,36.4L73.0,38.0L73.4,39.0L76.1,43.2L80.4,49.1L82.9,52.3L92.8,63.5L93.1,64.0L94.3,65.3L94.7,66.0L96.5,68.1L96.7,68.5L97.7,69.6L98.6,70.9L99.3,71.7L100.9,74.1L101.6,74.9L102.7,76.4L104.5,79.1L104.9,80.1L105.7,81.4L106.7,83.5L107.6,85.0L107.8,85.9L108.5,87.1L109.0,88.5L109.1,89.9L109.4,90.7L109.6,92.9L109.6,96.3L109.5,97.4L109.0,100.5L108.2,102.4L108.0,103.4L107.1,105.4L105.0,108.2L101.6,111.5L99.6,112.9L99.0,113.2L98.0,113.9L96.7,114.7L95.2,115.2L94.2,115.7L91.7,116.6L88.3,117.3L88.1,117.5L82.8,118.2L78.7,118.2L76.0,118.1L70.5,117.2L69.6,116.8L68.3,116.6L67.8,116.3L67.0,116.2L65.4,115.7L65.1,115.4L65.1,115.2L65.5,114.9L68.0,114.7L69.4,114.4L70.4,114.4L72.9,114.0L75.2,113.8L76.3,113.5L77.4,113.4L78.0,113.1L81.0,112.5L82.4,112.1L83.0,111.8L85.1,111.0L87.3,109.8L89.7,107.9L90.8,106.7L91.7,105.3L92.0,104.4L92.5,103.5L92.5,103.1L93.0,101.7L93.2,100.3L93.0,97.1L92.1,93.5L91.3,91.5L91.0,91.0L90.8,90.4L90.5,90.0L89.9,88.5L89.5,87.9L89.5,87.6L88.5,86.2L88.1,85.3L86.6,82.9L83.3,78.6L81.2,76.0L77.4,72.3L76.6,71.8L76.3,71.8L75.8,72.7L75.4,72.8L74.8,71.5L74.8,70.1L74.1,69.2L69.0,65.2L66.1,63.3L64.1,61.7L61.3,60.0L60.9,59.6L59.2,58.6L58.1,58.1L56.8,57.3L55.3,56.6L54.3,55.9L53.7,55.8L53.1,55.3L51.8,54.8L50.6,54.2L49.6,53.9L48.7,53.4L47.5,52.9L47.2,52.9L45.1,52.0L42.7,51.3L41.2,51.0L40.3,50.6L37.7,50.1L37.0,49.9L32.4,49.1L28.9,49.0L27.8,48.9L24.9,49.0L22.9,49.6L20.0,51.3L18.6,52.5L17.9,53.6L17.6,54.3L17.0,55.0L16.7,55.9L16.3,57.6L16.1,59.8L16.4,61.7L16.8,63.0L19.7,69.0L20.4,70.0L20.7,70.9L23.5,75.1L24.4,76.1L25.0,77.1L27.2,79.8L27.2,80.2L26.6,80.7L25.5,81.2L24.2,82.2L23.4,83.0L22.9,83.7L22.4,84.7L21.9,86.4L21.7,88.9L21.9,90.0L22.6,92.3L24.5,95.4L25.9,96.9L26.1,97.3L28.9,100.1L33.3,103.7L35.2,104.8L36.4,106.0L36.4,106.4L36.2,106.9L29.5,114.0L29.4,114.4L29.6,114.7L31.5,114.8L34.0,114.7L35.4,114.9L38.7,115.0L45.2,114.9L47.2,115.1L59.1,115.1L61.0,115.5L62.0,116.0L63.5,116.3L64.1,116.7L66.5,117.3L67.0,117.6L71.8,118.5L73.7,118.7L74.5,118.9L77.4,119.1L83.3,119.1L85.5,118.9L85.9,118.7L88.0,118.5L93.2,117.1L96.3,115.8L98.3,114.8L99.5,114.1L100.0,113.9L102.5,112.2L103.5,111.3L106.1,108.4L106.1,108.3L107.1,107.4L107.1,107.2L108.0,106.3L108.0,105.9L108.8,104.8L109.1,104.0L109.9,102.8L111.2,99.6L111.3,98.9L111.6,98.1L111.7,97.0L112.0,96.2L112.1,93.9L112.0,89.6L111.6,88.0L111.5,86.6L111.2,85.7L110.5,84.0L110.2,83.0L109.9,82.5L109.8,82.0L108.9,80.0L108.6,79.7L108.4,79.1L106.6,76.2L105.8,75.1L105.6,74.6L104.3,73.1L102.8,70.7L98.8,65.7L98.5,65.2L97.3,63.9L96.3,62.5L92.6,58.3L92.4,57.9L90.2,55.5L88.7,53.8L85.5,50.4L84.3,48.8L80.8,44.7L79.5,42.7L78.6,41.6L78.1,40.7L77.3,39.7L76.9,39.0L75.7,37.3L75.1,36.0L73.7,33.8L72.9,31.8L71.5,29.1L70.3,25.4L69.9,23.6L69.9,22.0L70.2,20.1L70.4,19.7L70.6,19.0L71.6,17.4L72.8,16.3L73.8,15.7L75.0,15.2L77.4,14.8L79.1,14.8L83.4,15.6L87.4,16.9L88.0,17.0L89.0,17.4L89.6,17.5L91.4,18.2L92.2,18.2L93.2,17.8L93.3,17.3L93.2,17.2L92.1,16.8L90.7,16.2L89.5,15.8L88.7,15.4L88.0,14.8L88.1,13.8L88.4,12.8L88.4,12.1L88.1,11.3Z M31.2,81.8L31.5,81.6L31.9,81.5L35.8,81.6L38.3,82.0L40.3,82.1L41.0,82.4L41.6,82.4L43.5,82.9L44.4,83.0L45.1,83.1L45.5,83.4L46.2,83.5L46.9,83.8L47.7,84.0L49.0,84.5L50.0,84.8L55.4,87.3L55.8,87.6L57.6,88.5L57.9,88.8L59.9,90.0L60.6,90.6L62.0,91.5L66.3,95.4L67.5,96.9L68.1,98.3L68.3,98.9L68.3,99.9L68.1,100.5L67.8,101.1L67.3,101.6L66.4,102.1L65.7,102.3L64.3,102.3L61.5,101.8L57.2,100.4L52.1,98.1L51.3,97.6L50.5,97.3L50.2,97.0L48.9,96.4L47.6,95.5L45.7,94.5L40.6,90.9L38.2,88.7L37.0,88.0L35.7,86.8L34.4,85.5L33.8,85.0L31.2,82.2Z M18.5,54.3L20.2,52.3L20.9,51.8L22.9,51.0L25.7,50.4L29.5,50.6L34.5,51.4L36.3,51.9L37.0,52.0L39.2,52.8L39.9,52.9L41.9,53.4L43.0,53.9L43.2,53.9L43.6,54.2L44.4,54.3L45.2,54.8L45.8,54.9L46.5,55.3L46.9,55.4L47.2,55.7L47.7,55.8L48.3,56.2L49.7,56.7L50.4,57.1L50.6,57.1L52.1,58.0L53.8,58.8L54.6,59.3L55.4,59.7L58.7,61.8L59.9,62.3L61.5,63.6L62.2,63.9L62.8,64.5L64.5,65.6L65.5,66.5L70.3,70.0L72.3,71.8L74.3,73.4L75.3,73.5L75.9,74.1L76.3,75.3L79.5,78.6L84.3,84.2L88.0,89.7L88.8,91.4L89.5,92.3L90.6,94.7L91.4,97.0L91.5,98.1L91.7,98.6L91.7,100.6L91.5,102.4L91.3,102.7L91.2,103.4L90.7,104.8L89.9,106.3L88.8,107.4L86.6,109.2L84.1,110.3L83.8,110.3L81.1,111.2L80.1,111.3L78.9,111.7L77.6,111.8L76.9,112.1L76.3,112.1L74.8,112.5L73.7,112.6L72.5,112.9L70.0,113.1L69.1,113.3L65.0,113.5L63.7,113.7L57.9,113.8L56.0,113.5L54.2,112.9L53.8,112.7L52.7,112.4L48.2,110.6L47.9,110.3L47.2,110.2L46.9,109.9L46.0,109.7L45.6,109.3L43.9,108.6L43.2,108.1L42.7,108.0L41.9,107.4L40.6,106.8L40.2,106.5L39.7,106.4L39.0,105.8L37.5,105.1L34.5,103.0L33.9,102.8L32.4,101.8L29.2,99.1L25.4,94.9L23.2,91.3L22.8,90.0L22.5,88.6L22.5,87.8L23.0,86.0L23.4,85.4L23.7,84.7L25.0,83.3L27.1,82.1L28.2,81.9L28.8,81.9L29.2,82.1L33.9,86.8L35.0,87.6L36.6,89.1L37.3,89.5L39.8,91.8L40.3,92.0L41.5,93.0L43.4,94.2L44.2,94.9L49.4,98.0L51.9,99.2L53.1,99.9L54.7,100.4L55.8,101.0L59.9,102.4L60.6,102.5L62.0,102.9L63.9,103.2L65.8,103.2L67.3,102.7L67.9,102.2L68.5,101.4L69.1,100.0L69.1,98.4L68.8,97.0L68.4,96.1L66.9,93.9L66.1,93.1L65.5,92.2L60.5,87.8L58.6,86.4L57.4,85.8L56.7,85.3L56.4,85.2L54.7,84.1L49.2,81.8L47.5,81.2L46.3,81.1L45.6,80.7L44.2,80.6L43.7,80.3L36.3,79.5L29.6,79.6L28.8,79.3L27.2,77.7L25.8,76.1L23.5,73.0L23.4,72.7L22.4,71.2L21.5,69.6L20.7,68.5L19.8,66.7L19.7,66.2L18.9,64.8L18.4,63.4L18.0,62.8L17.5,61.3L17.1,59.4L17.1,58.7L17.5,56.6Z M84.2,12.4L84.6,12.3L85.3,12.3L85.7,12.8L85.8,13.3L85.3,13.8L84.5,13.8L84.1,13.3Z" fill="#000" fill-rule="evenodd"/>
</svg>