<svg xmlns="http://www.w3.org/2000/svg" viewBox="0 0 128 128" width="128" height="128">
  <path d="M26.3,19.7L24.8,21.0L24.2,22.0L23.6,23.8L22.6,25.4L22.7,25.7L23.8,26.0L24.7,26.5L24.9,27.0L25.0,28.2L24.8,28.5L23.6,28.7L22.4,28.7L21.0,27.3L20.2,27.2L18.6,28.1L17.0,28.6L13.5,29.1L13.1,29.4L13.1,29.7L13.5,30.0L16.7,29.9L17.5,29.7L18.6,29.8L19.2,29.6L21.0,29.6L24.5,29.2L26.9,29.3L27.5,29.1L29.5,28.9L34.4,28.9L36.1,28.8L38.4,28.8L39.9,29.1L41.3,29.6L43.5,30.8L46.1,33.2L46.4,33.7L46.9,34.2L47.8,36.1L48.0,37.2L48.2,37.4L48.5,39.0L48.5,41.4L47.7,44.0L46.5,46.3L45.9,47.0L42.4,50.5L41.1,51.4L39.5,52.9L38.1,53.9L37.4,54.2L36.8,54.9L35.6,55.7L34.5,56.2L33.6,57.0L32.1,58.0L31.5,58.3L30.9,58.8L29.1,59.7L27.8,60.6L27.0,61.0L24.5,62.6L23.9,62.9L19.7,65.8L16.3,68.7L15.8,69.5L13.1,72.5L12.8,73.3L12.3,74.0L11.5,75.8L10.9,76.8L10.6,77.9L10.4,78.3L10.1,79.6L9.9,79.8L9.8,80.6L9.7,81.8L9.2,83.6L9.3,88.6L9.7,89.9L9.8,91.4L10.5,93.7L12.4,97.6L14.8,101.0L16.0,102.3L18.5,104.6L19.2,105.0L21.4,106.7L24.7,108.4L30.1,110.0L31.5,110.1L32.2,110.3L34.7,110.3L35.2,110.5L39.7,110.3L43.3,110.6L48.4,110.5L54.0,110.7L57.3,110.7L57.8,110.5L73.0,110.5L73.5,110.3L74.7,110.3L80.5,110.4L81.9,110.1L86.5,106.3L87.4,105.2L88.3,104.6L89.1,103.8L89.3,103.4L90.4,102.4L94.5,98.1L95.0,97.3L96.2,96.1L96.8,95.2L99.7,91.9L100.3,90.7L101.5,89.3L101.6,89.0L103.2,86.8L104.9,84.2L107.7,79.3L107.9,78.8L108.6,77.8L108.9,76.9L109.3,76.3L109.3,76.1L109.6,75.7L109.8,75.2L110.3,74.4L110.5,73.5L112.1,70.4L113.0,67.8L113.9,66.0L115.4,61.6L115.5,60.4L116.2,59.1L116.2,58.2L116.9,55.8L117.4,53.6L118.0,51.9L118.2,50.4L118.7,49.2L118.8,47.9L118.9,47.4L118.9,44.9L118.8,44.5L118.2,44.4L114.5,46.6L113.1,47.3L112.7,47.6L110.8,48.6L110.5,48.8L108.1,49.9L107.2,50.5L107.0,50.5L105.9,51.1L105.5,51.5L104.1,52.0L103.5,52.5L103.1,52.5L102.6,52.9L102.2,53.0L101.0,53.7L99.7,54.1L99.3,54.4L98.9,54.5L96.8,55.5L94.6,56.4L92.6,57.0L91.3,57.6L90.3,57.7L89.9,57.1L89.8,56.0L88.8,52.8L88.5,51.0L88.0,50.2L87.2,47.2L86.5,45.8L85.9,43.8L85.2,42.3L85.1,41.8L84.7,41.2L84.6,40.7L84.2,40.2L83.4,38.4L82.7,37.4L82.1,36.0L81.7,35.6L81.4,35.6L81.1,35.9L81.0,36.3L80.5,37.4L80.0,38.0L79.7,38.7L76.5,43.2L75.1,44.6L74.8,45.3L73.2,46.7L71.6,48.5L68.0,51.5L67.6,51.7L67.1,52.1L66.4,52.5L64.6,53.8L63.8,54.2L63.4,54.6L63.2,54.6L61.8,55.7L60.8,56.2L60.1,56.8L59.7,56.9L58.5,57.8L57.3,58.4L54.5,60.4L54.2,60.4L52.2,61.7L50.7,62.8L49.9,63.2L49.3,63.8L48.4,64.3L46.1,66.3L45.4,66.7L43.0,68.9L42.4,69.2L39.2,72.2L38.7,72.6L35.7,76.1L33.9,78.6L32.5,81.2L32.2,82.2L31.4,83.8L30.8,84.2L29.8,84.1L29.0,83.9L27.2,82.8L26.3,82.0L25.0,80.1L24.6,78.7L24.6,77.1L24.9,75.8L25.3,75.3L25.9,74.0L26.8,72.9L29.5,70.1L37.4,63.9L41.0,61.7L44.0,59.5L46.5,57.2L46.8,57.1L50.5,53.3L52.3,50.8L53.0,49.4L53.8,48.3L54.2,47.3L54.5,45.8L55.2,44.4L55.8,41.0L55.8,35.8L55.7,35.2L55.3,34.4L55.1,33.1L54.5,31.4L54.0,30.5L53.7,29.5L52.4,27.3L49.9,24.2L47.8,22.3L44.5,20.2L43.8,19.9L43.2,19.5L40.5,18.4L39.6,18.4L38.2,17.9L36.1,17.7L35.5,17.6L32.1,17.7L30.5,17.9L28.0,18.7Z M62.4,94.4L62.6,94.2L63.3,94.2L63.8,94.5L64.5,95.1L64.9,95.2L65.4,95.6L66.3,96.0L68.4,97.8L69.5,98.5L72.6,101.8L72.8,102.3L74.7,104.4L75.8,105.8L76.6,106.5L76.9,107.2L77.5,107.8L77.5,108.3L76.9,108.7L75.6,108.9L72.1,108.7L69.8,108.8L69.2,108.7L68.5,108.3L65.9,105.2L64.3,102.4L64.1,102.2L63.0,100.1L62.4,97.7L62.3,94.9Z M86.2,91.8L86.8,92.3L86.8,93.6L86.5,94.1L86.0,95.2L85.6,97.0L85.4,97.1L85.3,98.0L84.9,98.6L84.5,100.3L84.0,101.1L83.7,102.0L83.3,102.6L82.9,103.7L82.0,105.4L81.4,106.6L80.6,107.6L79.9,107.5L76.4,103.9L75.5,102.5L74.7,101.6L74.3,100.7L73.8,100.1L73.1,98.5L72.9,97.4L72.9,96.4L73.3,95.2L74.5,93.9L75.4,93.3L76.7,92.8L78.9,92.6L80.6,92.3L81.7,92.3L82.1,92.1L84.7,91.8Z M98.1,90.0L98.5,90.4L98.5,90.6L97.9,91.2L97.8,91.6L96.5,93.0L96.1,93.8L95.3,94.5L94.3,95.9L92.4,97.9L92.1,98.4L86.5,103.9L85.8,104.4L84.8,105.2L84.3,105.3L84.1,105.1L84.1,104.6L84.7,103.4L85.2,102.0L86.0,100.3L86.3,99.1L87.9,95.0L88.0,94.2L88.6,91.9L89.1,91.5L89.8,91.2L90.7,91.2L92.6,91.0L97.3,90.0Z M52.7,89.7L53.2,89.5L53.8,89.5L55.8,90.1L57.5,91.0L58.0,91.1L58.8,91.6L60.2,92.1L60.7,92.6L60.9,93.2L60.8,94.3L60.6,94.8L60.6,96.5L60.8,98.0L61.3,99.1L61.7,101.0L62.8,103.2L63.2,103.7L64.1,105.4L65.6,107.5L65.9,108.3L65.6,108.8L58.3,108.9L57.6,108.6L56.6,107.7L55.8,106.6L54.8,105.0L54.6,104.4L53.8,103.1L53.7,102.5L53.3,102.1L52.9,100.8L52.1,99.2L51.8,98.0L51.7,96.5L51.4,95.1L51.4,93.0L52.0,90.8Z M43.1,87.4L43.9,87.3L45.2,87.7L46.0,87.7L47.6,88.0L49.9,88.6L50.6,89.1L50.6,90.2L50.3,90.9L50.1,92.4L49.9,93.2L49.9,95.8L50.0,97.5L50.6,99.1L51.2,101.4L51.8,102.5L51.9,103.2L52.9,105.1L53.4,105.7L54.8,108.3L54.8,108.8L54.6,109.0L53.5,109.2L50.5,109.2L47.9,109.0L46.1,107.0L43.9,103.4L42.3,99.5L41.9,97.3L41.6,95.0L41.7,92.4L42.1,89.7L42.6,88.1Z M88.1,87.1L87.8,89.4L87.3,89.9L84.4,90.4L80.9,90.5L80.6,90.2L80.7,89.9L81.4,89.4L86.0,87.3L86.9,86.7L87.8,86.6Z M32.8,86.5L35.4,86.4L36.1,86.6L37.6,86.6L40.0,86.9L40.7,87.3L40.7,88.3L40.1,90.8L40.0,93.2L40.2,98.2L41.4,102.3L41.8,103.0L41.8,103.2L42.7,105.1L43.7,106.4L44.7,108.3L44.7,108.6L44.4,109.0L41.8,109.0L40.1,109.1L37.7,109.1L36.2,108.9L35.4,108.1L34.6,106.6L33.3,103.8L32.3,101.0L32.2,100.8L32.0,100.1L32.0,99.1L31.7,98.3L31.5,96.5L31.5,95.2L31.3,94.6L31.3,92.2L31.5,91.4L31.6,89.3L32.2,87.1Z M88.8,82.1L88.9,82.7L88.6,83.7L87.4,84.7L84.7,86.2L84.0,86.7L81.8,87.7L80.9,88.2L80.1,88.4L79.1,88.9L78.4,89.4L76.1,90.6L73.5,92.3L72.4,93.4L71.5,94.8L71.4,95.2L71.2,97.0L71.0,97.3L70.4,97.3L70.0,97.1L66.3,94.0L65.2,93.5L64.2,92.7L63.8,92.6L63.2,91.9L63.2,91.4L63.8,90.2L65.8,88.2L67.6,86.7L70.8,85.0L73.7,84.0L74.7,83.5L75.8,83.5L76.8,83.2L78.3,83.0L79.7,82.7L84.0,82.2L86.9,81.6L88.2,81.6L88.6,81.7Z M107.0,76.9L105.4,80.1L104.7,81.2L103.6,83.4L103.1,84.0L102.7,84.8L102.4,85.2L101.8,86.1L100.8,87.3L98.8,88.2L98.3,88.2L96.9,88.7L95.8,88.8L93.9,89.3L90.9,89.7L89.9,89.7L89.5,89.3L89.4,88.5L90.1,84.9L90.2,82.9L90.6,81.4L91.1,80.9L98.7,79.0L101.8,78.1L102.2,77.8L103.0,77.6L103.8,77.2L104.7,77.1L106.3,76.6L106.5,76.6Z M89.5,74.4L89.6,76.8L89.4,78.8L89.2,79.4L88.6,80.0L87.8,80.2L86.4,80.3L86.0,80.5L83.3,80.7L80.5,81.2L79.3,81.3L78.9,81.2L78.7,80.9L78.7,80.7L79.0,80.4L79.6,80.1L80.9,79.2L81.7,78.8L84.7,76.8L88.0,74.4L88.9,74.0L89.1,74.0Z M88.3,71.6L88.2,72.1L86.5,73.6L81.1,77.5L78.6,78.8L77.3,79.7L76.0,80.3L74.0,81.5L68.3,84.4L67.6,84.8L67.1,85.3L65.9,86.0L65.2,86.6L64.7,86.9L63.2,88.4L62.1,89.8L61.8,90.3L61.4,90.6L60.3,90.6L59.7,90.1L59.2,90.0L58.5,89.6L54.4,88.1L53.9,87.9L53.8,87.5L53.9,86.9L55.0,85.3L55.9,84.4L57.4,82.6L58.3,82.1L59.7,80.7L62.7,78.8L63.5,78.5L66.4,76.8L69.6,75.5L70.9,75.3L72.0,74.8L73.1,74.8L75.9,74.0L77.7,73.8L78.5,73.5L80.4,73.2L82.4,72.6L84.1,72.3L85.0,72.0L88.0,71.4Z M112.8,63.0L112.8,63.6L112.4,64.4L112.2,65.5L111.6,66.9L110.9,69.4L109.1,73.0L108.6,73.6L107.7,74.2L107.0,74.2L106.6,74.6L105.1,75.2L104.4,75.6L102.1,76.3L100.5,77.0L99.2,77.3L98.7,77.5L97.8,77.6L95.4,78.5L94.5,78.6L93.7,78.9L92.0,79.1L91.2,79.0L90.9,78.7L90.9,77.4L91.2,75.5L91.2,70.9L91.3,70.5L91.7,70.2L92.6,69.9L94.5,69.1L95.8,68.9L96.7,68.4L98.9,67.8L99.3,67.6L100.1,67.4L100.3,67.2L101.3,67.0L102.7,66.3L103.9,66.0L105.7,65.1L106.5,65.0L107.9,64.3L108.6,64.1L110.1,63.3L111.9,62.7L112.3,62.7Z M84.2,62.5L82.5,64.3L80.7,65.6L80.1,66.0L78.8,67.1L76.1,68.9L75.6,69.4L74.7,69.9L74.0,70.5L72.2,71.4L71.5,72.0L70.8,72.3L70.0,72.9L68.9,73.5L68.6,73.7L68.0,73.9L66.3,75.0L65.0,75.5L64.2,76.1L63.5,76.4L61.8,77.4L61.1,78.0L60.5,78.2L58.1,80.0L56.5,81.4L54.6,83.2L53.0,85.3L52.3,86.5L51.8,87.0L51.4,87.2L50.8,87.2L48.6,86.6L44.9,86.0L44.4,85.8L43.9,85.3L43.9,84.9L44.6,83.2L45.6,82.1L46.6,80.4L48.0,78.8L48.2,78.5L51.9,75.0L54.1,73.5L56.1,72.3L56.9,71.6L57.8,71.2L58.6,70.5L59.8,70.0L61.1,69.1L64.4,67.6L65.5,67.4L67.0,66.7L68.3,66.4L69.9,65.7L70.9,65.6L71.6,65.2L72.4,65.1L73.5,64.7L74.2,64.6L74.8,64.3L77.5,63.7L78.1,63.4L78.9,63.3L80.4,62.8L82.1,62.5L83.1,62.2L84.0,62.2Z M88.7,61.6L89.0,62.1L89.4,64.3L89.4,67.0L89.6,68.8L89.3,69.4L84.7,70.8L80.5,71.5L80.2,71.7L77.0,72.3L76.0,72.7L74.1,72.7L74.1,72.4L74.7,71.9L75.4,71.5L76.7,70.5L77.8,69.9L78.4,69.3L80.2,68.2L80.9,67.5L82.5,66.5L88.0,61.5Z M86.5,50.5L87.2,52.8L87.4,54.5L88.0,56.7L88.1,58.6L87.8,59.0L86.0,59.7L82.8,60.4L82.1,60.8L81.0,61.0L79.1,61.7L78.1,61.7L77.1,62.2L74.2,62.8L73.8,63.0L72.6,63.3L71.7,63.7L71.0,63.6L70.9,63.3L71.6,62.6L72.4,62.2L73.9,61.0L74.8,60.4L76.2,59.2L76.8,58.9L78.3,57.3L80.1,56.0L85.6,50.2L86.0,50.1Z M116.4,48.2L116.3,50.0L116.0,51.2L116.0,52.0L115.7,53.5L115.4,54.3L115.1,55.7L114.6,56.8L114.1,59.1L113.8,59.7L113.3,60.2L112.7,60.4L112.3,60.8L111.2,61.2L110.5,61.7L108.7,62.4L105.7,63.7L103.8,64.3L102.3,65.0L100.2,65.7L99.8,66.0L98.3,66.3L97.1,67.0L94.5,67.8L92.6,68.2L92.0,68.4L91.3,68.4L91.1,68.2L90.9,65.0L90.4,60.1L90.7,59.7L92.0,59.0L93.9,58.4L95.4,57.5L96.3,57.3L99.8,55.9L101.4,55.1L101.8,55.1L103.7,54.0L105.8,53.2L107.7,52.0L109.6,51.2L110.9,50.3L112.6,49.6L115.1,47.9L116.1,47.9Z M81.8,39.1L82.7,40.5L83.9,43.4L84.7,44.9L85.3,47.0L85.3,47.6L84.5,48.8L82.6,50.8L81.8,51.9L78.5,55.1L74.0,59.1L72.3,60.0L69.1,62.4L68.3,62.8L65.0,65.0L64.5,65.2L64.3,65.5L61.7,66.9L58.5,68.9L57.0,69.6L56.5,70.1L52.5,72.7L49.0,75.4L45.2,79.3L44.9,79.9L43.3,81.9L41.9,84.9L41.5,85.3L40.2,85.4L37.9,85.0L34.3,84.7L33.7,84.5L33.5,84.2L33.5,83.2L34.0,82.1L34.2,81.3L34.9,80.2L35.0,79.9L36.4,78.0L36.6,77.5L38.3,75.4L40.7,72.9L41.0,72.5L41.9,71.9L44.6,69.2L46.0,68.3L47.5,67.0L48.3,66.5L51.0,64.3L51.9,63.8L54.1,62.2L57.7,60.2L59.7,58.6L61.6,57.8L62.5,57.0L63.9,56.2L64.6,55.6L68.9,52.7L72.5,49.7L73.1,48.9L74.9,47.3L75.3,46.6L77.8,43.7L81.0,38.8L81.4,38.7Z M35.4,19.0L38.4,19.4L39.3,19.7L39.7,19.7L40.7,20.2L41.8,20.4L44.0,21.5L45.1,22.3L45.9,22.6L47.0,23.4L49.7,26.2L50.5,26.8L51.1,28.0L51.7,28.7L52.4,29.8L53.3,31.7L53.3,32.3L54.1,34.3L54.3,35.8L54.5,36.6L54.6,39.6L54.5,41.8L54.0,44.4L53.3,45.7L53.2,46.4L52.6,47.2L51.7,49.2L50.8,50.5L49.9,51.4L49.7,52.0L46.4,55.6L45.4,56.2L45.0,56.7L42.7,58.4L42.0,59.0L41.4,59.2L40.9,59.7L39.2,60.9L37.7,62.1L35.8,63.2L35.4,63.7L32.2,65.8L27.4,69.7L25.4,71.7L23.2,75.5L23.0,77.6L23.0,78.8L23.2,80.0L23.8,81.6L25.0,83.4L26.9,84.8L28.1,85.4L29.9,86.0L30.4,86.4L30.4,87.6L30.2,88.3L30.2,88.9L29.9,89.9L29.8,91.7L29.5,93.3L29.6,96.2L29.9,97.2L30.1,99.6L30.4,100.5L30.7,101.9L31.4,103.6L31.6,104.6L33.1,107.6L33.2,108.3L32.8,108.6L31.9,108.6L28.4,108.0L27.6,107.6L26.9,107.5L23.4,106.0L22.9,105.6L21.3,104.8L19.2,103.4L18.8,102.9L17.7,102.1L15.1,99.4L14.8,98.7L13.8,97.5L13.5,96.6L12.9,95.8L11.5,92.5L11.4,91.6L10.5,88.4L10.5,83.7L10.6,83.3L10.8,81.4L11.2,80.0L11.3,79.1L12.8,75.6L14.4,73.2L15.1,72.4L15.8,71.4L17.3,69.6L20.5,66.7L23.7,64.6L24.8,64.2L26.4,62.9L26.9,62.7L27.9,62.0L28.9,61.6L30.9,60.3L31.2,60.2L33.1,59.1L33.9,58.4L36.3,56.9L36.8,56.4L38.3,55.5L39.4,54.6L39.8,54.5L40.9,53.3L42.1,52.7L43.8,51.3L44.6,50.5L44.9,50.3L45.5,49.5L46.2,48.9L48.2,46.2L49.4,43.6L49.9,41.0L50.0,38.3L49.8,37.1L49.5,36.6L49.4,36.0L48.5,33.9L47.5,32.6L47.3,32.2L45.6,30.3L42.9,28.6L39.8,27.6L34.7,27.5L33.0,27.6L28.8,27.6L26.7,26.9L25.8,26.1L25.8,25.9L25.4,25.4L25.0,24.2L25.0,23.6L25.4,22.5L26.0,21.6L27.3,20.5L28.3,19.9L29.7,19.4L31.4,19.2L32.3,19.0Z" fill="#000" fill-rule="evenodd"/>
</svg>