<svg xmlns="http://www.w3.org/2000/svg" viewBox="0 0 128 128" width="128" height="128">
  <path d="M69.8,71.9L69.4,71.6L68.8,71.7L67.3,72.8L67.0,73.2L67.0,73.6L67.1,73.8L67.6,73.8L69.2,72.7L69.8,72.2Z M25.8,9.6L25.5,9.9L25.5,14.8L25.7,18.5L25.7,29.6L25.9,37.6L25.9,48.3L26.1,52.1L26.2,64.9L26.2,78.7L26.3,87.4L26.3,103.5L27.4,104.5L29.9,105.6L30.4,105.5L31.2,104.4L32.0,104.1L34.2,104.0L36.1,104.2L36.5,104.5L37.0,105.1L37.0,106.6L37.2,107.3L37.4,107.4L37.9,107.4L39.1,107.0L39.9,106.4L41.1,105.3L42.9,102.8L44.9,100.4L46.2,98.1L46.5,97.4L47.7,95.0L48.0,93.9L48.9,91.8L49.1,91.5L49.6,90.0L49.8,89.7L50.2,88.4L50.7,87.5L51.4,85.5L51.7,85.0L52.5,83.3L53.2,82.2L53.3,81.9L54.9,79.0L55.3,78.5L55.4,78.2L56.4,76.8L58.5,74.4L59.4,73.7L60.4,72.7L63.4,70.5L65.9,69.4L66.8,69.1L69.2,69.1L69.4,69.1L71.1,70.9L71.9,71.0L72.5,70.9L74.0,70.0L74.8,69.8L75.9,69.1L76.8,69.0L77.8,68.5L79.2,68.4L80.2,69.1L81.0,69.9L81.6,70.6L81.5,71.1L80.9,71.6L79.4,72.2L78.2,73.0L75.0,76.1L73.3,78.0L72.8,78.9L72.2,80.2L71.6,83.0L71.1,86.2L71.1,90.3L71.6,93.8L72.0,94.6L72.0,95.1L72.2,95.8L72.2,96.2L72.6,98.0L72.9,98.5L73.0,99.8L73.7,101.7L74.2,102.4L74.9,103.7L76.1,105.2L76.3,105.7L76.9,106.4L77.8,107.9L78.2,108.2L78.3,108.6L79.7,110.3L80.2,111.3L81.0,112.1L84.0,113.3L84.1,113.5L84.6,113.5L85.7,114.0L86.0,114.0L86.5,114.4L88.8,115.1L91.4,115.7L92.3,115.7L92.9,114.9L93.2,114.7L93.7,114.6L96.5,114.6L97.5,114.8L97.9,114.9L98.3,115.5L98.5,116.3L98.5,117.5L98.6,117.9L99.1,118.4L101.2,119.0L102.5,119.0L102.7,118.7L102.8,118.1L102.8,115.7L102.6,112.1L102.6,106.3L102.3,97.8L102.4,94.7L102.2,88.9L102.2,81.8L102.0,81.1L102.0,38.4L101.8,27.0L101.9,10.5L101.8,9.6L101.5,9.4L100.6,9.2L98.0,9.2L97.8,9.3L97.3,9.8L97.3,11.8L96.8,12.4L96.1,12.7L92.5,12.7L91.8,12.4L91.4,11.8L91.2,11.1L91.2,9.6L90.8,9.3L90.1,9.2L80.0,9.2L71.3,9.4L66.8,9.3L58.7,9.4L55.9,9.6L37.6,9.6L37.1,9.6L36.6,10.0L36.5,11.8L36.3,12.3L35.8,12.7L34.5,13.1L31.5,12.8L30.7,12.5L30.2,11.8L30.2,10.0L29.8,9.6Z M97.8,104.3L98.1,105.0L98.2,106.0L98.0,107.6L97.5,108.2L96.7,108.3L93.6,108.3L92.9,108.1L92.3,107.5L92.1,107.1L92.1,104.7L92.2,104.5L92.9,103.8L96.5,103.7L97.0,103.8Z M36.8,94.0L37.0,94.6L37.0,96.7L36.8,97.4L36.3,97.9L35.0,98.1L32.9,98.2L31.5,98.0L30.8,97.5L30.5,96.4L30.6,94.6L30.8,94.0L31.4,93.5L32.1,93.2L35.1,93.1L36.1,93.4Z M97.8,93.8L98.0,94.4L97.8,96.8L97.4,97.4L96.8,97.6L93.3,97.6L92.6,97.5L92.1,97.0L92.0,96.2L92.0,94.4L92.1,93.7L92.6,93.2L93.2,93.1L95.0,93.0L96.8,93.1L97.4,93.4Z M30.7,83.3L31.3,82.8L32.0,82.5L35.3,82.5L36.3,82.8L36.8,83.3L37.0,84.7L37.0,85.5L36.7,86.5L36.2,87.0L35.3,87.3L32.0,87.3L31.3,87.0L30.9,86.7L30.6,85.9L30.5,84.8Z M92.0,83.2L92.5,82.6L93.0,82.4L96.4,82.4L97.3,82.7L97.8,83.6L97.9,84.1L97.9,85.3L97.6,86.4L97.2,86.8L96.7,86.9L93.3,87.0L92.5,86.8L92.0,86.4L91.8,85.4L91.8,83.6Z M91.9,72.6L92.3,72.2L93.1,71.8L96.4,71.8L97.2,72.2L97.5,72.5L97.8,73.3L97.8,75.4L97.6,75.8L96.6,76.3L92.6,76.3L92.0,75.8L91.7,75.3L91.7,73.1Z M31.5,72.1L32.1,71.8L35.6,71.9L36.1,72.1L36.6,72.6L37.0,73.8L37.0,74.6L36.7,75.8L36.2,76.3L35.8,76.6L31.9,76.6L31.4,76.4L30.7,75.6L30.7,73.7L30.8,72.8Z M91.8,62.0L92.3,61.6L93.2,61.2L96.2,61.2L96.9,61.5L97.4,62.0L97.8,62.8L97.8,64.7L97.6,65.1L97.0,65.6L96.0,65.8L93.6,65.9L92.9,65.8L92.3,65.6L92.0,65.3L91.7,64.6L91.5,62.9Z M30.7,62.0L31.1,61.5L31.6,61.2L35.3,61.2L36.0,61.5L36.5,62.0L36.9,63.0L36.8,64.4L36.5,65.3L36.2,65.6L35.6,65.9L31.6,65.9L31.1,65.7L30.7,65.3L30.5,64.7L30.4,62.5Z M91.9,51.2L92.2,50.9L92.8,50.7L95.1,50.7L97.0,50.9L97.6,51.8L97.8,53.6L97.5,54.5L96.9,55.1L96.1,55.3L93.0,55.3L92.4,55.1L92.0,54.7L91.6,54.0L91.5,52.6Z M30.9,50.9L31.4,50.5L32.1,50.5L35.1,50.5L36.0,50.8L36.5,51.2L36.8,52.0L36.8,53.4L36.6,54.5L36.0,55.1L34.5,55.3L31.9,55.3L31.1,55.0L30.6,54.5L30.3,53.0L30.4,51.8Z M91.8,40.7L92.2,40.3L92.8,40.1L96.3,40.1L97.0,40.3L97.5,40.7L97.6,41.0L97.6,43.3L97.4,44.0L97.0,44.4L96.1,44.7L92.8,44.6L92.1,44.3L91.6,43.8L91.5,43.6L91.5,41.6Z M30.5,40.8L31.4,40.1L32.0,39.9L35.6,39.9L36.2,40.2L36.9,41.1L36.9,42.8L36.5,44.2L35.8,44.6L34.4,44.7L31.6,44.6L31.0,44.3L30.6,43.9L30.3,43.1L30.3,41.4Z M46.5,39.8L46.7,39.7L46.9,39.7L47.1,40.2L46.6,40.2Z M91.7,30.0L92.0,29.7L92.9,29.4L96.6,29.6L97.3,30.4L97.5,30.8L97.6,32.0L97.5,32.7L97.3,33.4L96.6,33.9L96.0,34.0L93.1,34.0L91.8,33.7L91.5,33.0L91.5,31.0Z M30.5,30.2L30.9,29.7L31.5,29.4L35.3,29.5L36.0,29.7L36.5,30.4L36.7,31.4L36.6,32.8L36.4,33.5L36.0,33.8L35.2,34.0L32.1,34.1L31.1,33.9L30.7,33.3L30.3,31.7L30.3,30.8Z M30.6,19.4L31.0,19.0L31.6,18.9L35.1,18.9L36.2,19.3L36.6,20.1L36.6,22.0L36.4,22.9L36.0,23.3L35.0,23.5L31.9,23.4L30.9,23.1L30.5,22.6L30.3,21.8L30.3,20.1Z M91.5,19.4L92.3,18.8L93.0,18.8L93.7,18.6L95.7,18.7L96.6,18.9L97.2,19.4L97.4,20.1L97.4,22.1L97.1,22.9L96.7,23.2L96.0,23.4L94.3,23.4L92.0,23.1L91.6,22.7L91.3,21.8L91.4,19.9Z" fill="#000" fill-rule="evenodd"/>
</svg>