<svg xmlns="http://www.w3.org/2000/svg" viewBox="0 0 128 128" width="128" height="128">
  <path d="M73.5,82.7L73.3,83.8L73.6,84.4L75.9,86.2L77.0,86.9L77.9,87.7L78.9,88.3L80.8,89.9L81.3,90.1L83.5,91.8L83.5,92.0L83.1,92.2L82.4,92.2L75.9,91.3L74.7,91.3L74.5,91.6L74.5,92.0L75.0,93.3L78.2,99.7L78.5,99.8L78.8,99.5L79.0,97.2L79.1,96.6L79.6,96.1L80.5,96.1L81.2,96.2L84.7,96.5L85.2,96.7L85.6,97.0L85.7,98.5L85.5,100.3L85.5,102.2L85.3,103.4L84.7,104.0L82.0,105.0L81.9,105.1L81.9,105.5L82.0,105.6L84.7,106.2L84.9,106.3L87.1,106.7L90.3,107.6L90.7,107.6L91.0,107.3L90.8,104.9L90.4,103.8L90.3,102.3L90.0,101.0L89.6,98.0L89.6,96.7L89.9,96.3L90.1,96.3L95.1,100.5L95.3,100.8L95.3,101.3L94.7,102.6L94.7,103.2L94.3,103.9L94.4,104.3L94.8,104.3L95.3,103.9L96.1,103.6L97.4,102.7L98.7,102.0L101.4,100.3L101.4,99.9L100.9,99.4L99.7,98.6L98.4,97.6L93.9,94.5L93.6,94.2L93.6,93.9L93.9,93.5L94.7,93.3L95.6,93.2L97.4,92.7L98.6,92.7L99.2,93.2L100.2,94.7L100.3,95.2L100.5,95.4L101.1,95.3L101.5,94.3L101.8,93.1L102.0,92.7L102.6,90.4L103.1,89.3L103.1,88.3L103.3,88.0L103.2,87.5L102.5,87.4L101.4,87.6L100.3,88.1L96.9,88.9L96.4,89.2L95.3,89.5L94.2,89.7L93.0,90.1L92.0,90.2L91.5,90.5L90.7,90.5L89.9,90.9L89.1,90.9L88.0,90.1L86.5,88.6L86.0,88.3L80.7,82.9L80.1,82.7L77.4,82.5L76.3,82.6L75.2,82.4L74.1,82.4Z M54.5,82.2L54.2,82.1L47.9,82.2L46.9,82.4L40.3,89.2L39.0,90.4L38.6,90.5L37.2,90.4L36.1,89.9L35.4,89.8L34.6,89.4L32.8,89.0L32.2,88.7L30.2,88.3L29.7,87.9L27.0,87.2L26.0,86.7L24.6,86.6L24.3,86.9L24.3,87.2L24.8,88.9L24.9,90.5L25.5,92.2L26.2,95.6L26.6,96.1L27.0,96.0L27.3,94.1L27.6,93.7L27.8,92.6L28.4,91.9L29.8,92.1L31.1,92.6L32.7,92.9L33.4,93.3L33.4,93.7L33.2,93.9L32.7,94.1L31.1,95.3L28.0,97.2L27.1,97.9L25.3,98.9L25.0,99.2L25.1,99.8L25.4,100.0L27.4,100.9L28.3,101.5L28.9,101.7L29.8,102.2L30.0,102.2L30.3,102.4L31.9,103.1L32.6,103.5L33.1,103.6L33.3,103.5L33.3,103.1L31.9,100.9L31.6,100.3L31.6,99.9L32.2,99.3L34.5,97.8L35.9,97.1L37.2,96.1L37.8,96.1L38.1,96.3L38.1,96.6L37.9,96.9L37.7,98.6L36.8,101.9L36.4,104.5L36.1,105.4L36.1,106.5L36.4,106.7L38.7,106.4L40.0,106.1L44.3,105.5L45.2,105.1L45.5,104.9L45.5,104.6L45.2,104.4L44.4,104.1L44.0,103.8L42.3,103.2L41.5,102.8L41.1,102.3L41.1,101.2L41.2,98.9L41.4,98.2L41.4,96.4L41.9,95.8L42.8,95.6L47.8,95.3L48.4,96.1L48.9,99.5L49.4,99.5L50.2,97.4L50.9,96.3L51.1,95.5L52.0,94.0L52.1,93.3L53.0,92.1L53.3,91.4L53.3,90.9L52.9,90.6L52.6,90.6L52.2,90.8L50.7,90.9L49.0,91.3L47.2,91.5L46.0,91.8L45.0,91.7L45.0,91.5L46.1,90.8L47.2,89.7L49.9,88.0L50.3,87.6L54.0,85.0L54.8,84.1L54.8,82.9Z M17.2,21.0L16.7,21.4L16.6,21.7L16.6,31.6L16.8,33.3L17.1,33.5L18.2,33.5L22.5,32.7L24.3,32.6L27.9,31.9L28.5,31.9L28.8,32.2L28.7,32.9L28.2,33.2L27.9,33.2L27.0,33.6L26.6,33.6L25.0,34.3L23.9,34.6L21.6,35.4L20.9,35.5L20.1,35.8L19.2,36.0L18.7,36.3L17.5,36.5L16.7,37.1L16.7,48.6L17.1,49.0L18.0,48.9L18.9,48.6L19.4,48.2L20.0,48.1L20.5,47.8L21.0,47.7L23.9,46.4L27.7,44.9L28.4,44.8L28.7,45.1L28.7,45.5L28.1,46.1L18.3,51.1L18.1,51.4L17.1,51.9L16.7,52.2L16.5,52.5L16.5,54.5L16.5,63.0L16.6,64.7L16.8,64.8L17.5,64.8L19.9,63.1L20.7,62.4L21.7,61.8L22.7,60.9L23.1,60.9L23.4,60.5L25.1,59.5L29.5,56.5L30.0,56.5L30.4,57.0L30.5,57.5L30.3,57.8L29.4,58.7L25.9,61.5L22.1,64.9L21.5,65.3L16.5,69.8L16.3,70.9L16.3,84.4L16.6,84.8L16.9,84.8L17.5,84.4L23.8,77.9L23.9,77.6L26.4,75.2L35.8,65.4L39.8,61.4L40.4,61.1L42.2,61.2L42.4,61.5L42.4,61.7L41.7,62.8L32.6,72.9L32.1,73.7L30.6,75.1L30.2,75.8L28.7,77.4L22.6,84.6L22.6,85.0L22.7,85.2L37.3,85.2L38.6,83.5L39.2,82.3L40.0,81.1L40.5,79.9L41.7,78.2L42.0,77.7L42.8,76.6L42.9,76.0L43.3,75.7L43.4,75.2L44.3,74.0L44.5,73.4L45.2,72.5L45.3,72.1L45.7,71.6L47.6,68.4L48.0,67.9L48.5,66.9L49.5,65.4L50.5,63.7L51.7,61.8L52.1,61.5L52.7,61.3L53.3,61.4L53.6,61.7L53.5,62.3L53.3,62.6L53.2,63.1L52.3,64.8L52.0,65.6L50.5,68.2L48.6,72.1L48.4,72.7L47.6,74.1L47.3,74.9L47.1,75.2L47.1,75.5L46.6,76.2L45.1,79.6L44.6,80.5L44.6,80.9L44.9,81.2L45.2,81.3L54.7,81.2L55.3,81.5L55.6,82.0L55.6,85.1L55.9,86.6L55.9,88.5L56.1,89.7L56.1,91.1L56.2,91.7L56.4,96.3L56.6,97.0L56.7,99.7L56.8,100.5L56.8,103.3L56.5,103.7L55.1,104.5L54.5,104.6L51.5,106.1L51.1,106.2L50.8,106.4L49.5,107.0L49.2,107.0L48.2,107.5L47.9,107.5L46.4,108.4L45.6,108.6L45.0,109.0L45.0,109.5L45.2,109.8L46.8,110.7L47.6,110.9L48.7,111.7L49.3,111.8L49.7,112.2L50.2,112.3L51.0,112.8L51.5,112.9L52.8,113.7L54.0,114.2L54.3,114.5L55.0,114.7L55.2,115.0L56.2,115.5L56.7,115.6L57.2,116.0L58.4,116.5L60.5,117.7L62.3,118.5L62.5,118.8L63.4,119.0L64.4,119.0L65.7,118.2L66.9,117.8L69.3,116.6L70.1,116.3L71.7,115.5L73.4,114.9L74.0,114.5L75.2,114.0L76.0,113.5L77.6,113.0L79.2,112.1L80.3,111.8L81.2,111.2L82.2,110.8L82.7,110.3L82.7,110.0L82.0,109.3L81.7,109.2L81.4,109.0L79.0,107.9L78.5,107.6L75.1,106.1L74.6,105.7L72.6,105.0L71.2,104.2L70.6,103.6L70.9,97.7L71.4,94.3L71.4,93.4L71.6,92.9L71.6,91.2L71.8,90.3L72.1,86.1L72.4,85.0L72.6,82.2L73.2,81.7L76.5,81.7L78.5,81.9L81.1,81.7L82.6,81.9L83.2,81.7L83.1,81.0L82.0,78.8L81.4,77.1L81.0,76.5L80.4,74.7L79.8,73.6L79.3,73.2L79.2,72.1L78.4,70.4L77.5,68.2L77.2,67.7L76.2,64.9L75.7,64.0L75.1,62.3L75.1,62.0L75.4,61.7L76.7,61.7L77.5,62.6L77.7,63.1L79.4,65.8L79.6,66.5L80.3,67.6L80.6,68.2L82.2,70.9L82.9,72.4L83.6,73.5L84.3,75.0L85.1,76.0L85.2,76.6L87.9,81.1L88.2,82.0L89.3,83.7L90.0,85.2L90.3,85.5L104.7,85.9L105.1,85.5L105.1,85.3L104.5,84.4L103.6,83.4L100.4,79.5L98.0,76.8L96.1,74.3L93.4,71.4L91.8,69.3L88.6,65.6L87.8,64.4L86.3,62.6L86.2,62.2L86.4,61.9L88.5,61.9L88.8,62.0L100.3,74.2L100.4,74.4L104.1,78.2L104.9,79.3L108.3,82.7L108.9,83.4L111.2,85.7L111.8,85.7L112.0,85.4L111.9,72.6L111.6,71.6L107.1,67.1L102.7,63.1L101.6,61.9L100.4,60.9L97.5,57.8L97.3,57.4L97.4,56.9L97.6,56.5L98.1,56.5L98.4,56.7L100.0,58.1L101.8,59.3L103.3,60.7L103.9,61.0L104.8,61.9L105.8,62.6L106.7,63.5L108.4,64.7L109.1,65.4L109.8,65.7L110.5,66.5L111.3,67.0L111.8,66.9L111.9,56.0L111.7,55.5L111.8,54.2L111.6,53.7L110.7,52.9L106.5,50.5L106.2,50.4L103.0,48.4L100.9,47.3L100.1,46.8L99.7,46.1L99.8,45.1L99.9,44.9L100.4,44.9L100.9,45.3L102.0,45.7L102.6,46.1L103.1,46.2L103.8,46.6L104.6,46.8L106.3,47.7L106.5,47.7L108.3,48.6L108.7,48.6L111.3,49.9L111.7,49.9L112.0,49.6L112.0,40.0L111.8,38.5L111.3,37.9L110.4,37.6L110.1,37.4L109.0,37.1L108.7,36.9L106.9,36.3L105.9,35.8L105.4,35.7L103.5,34.8L102.2,34.4L101.9,34.4L100.9,34.0L100.0,33.4L99.8,33.0L99.8,32.5L100.1,32.2L100.9,32.1L101.5,32.4L103.1,32.6L105.1,33.3L106.1,33.4L107.0,33.8L109.2,34.1L109.4,34.3L110.5,34.6L111.7,34.7L112.0,34.3L112.0,24.5L111.7,23.5L111.2,22.9L109.8,22.7L109.0,22.4L108.5,22.4L106.7,21.8L105.5,21.7L103.9,21.2L101.5,20.8L98.6,20.1L97.7,20.0L94.6,19.2L93.7,19.1L91.6,18.5L90.1,18.4L89.4,18.1L88.6,18.0L88.5,17.9L87.2,17.6L85.0,17.7L83.5,18.5L82.3,19.6L81.5,20.8L81.1,22.0L81.0,24.7L81.2,26.9L81.1,39.6L80.9,40.2L80.5,40.5L79.6,40.7L75.4,40.7L73.9,40.4L73.5,39.8L73.1,36.4L72.9,35.4L72.9,34.0L72.3,29.9L72.1,26.2L71.8,23.5L71.6,19.0L71.0,14.4L70.3,12.9L69.6,12.2L69.2,11.9L67.7,11.5L64.8,11.0L63.4,10.6L62.7,10.6L62.7,11.6L63.3,12.3L64.3,13.0L64.8,13.1L65.3,13.4L66.0,13.6L66.7,14.1L66.7,14.4L66.5,14.6L64.4,15.4L64.0,15.8L64.3,17.4L65.0,19.5L65.1,20.4L65.5,21.3L65.7,22.7L66.0,23.1L66.3,24.3L66.4,25.2L66.0,25.6L58.4,25.6L57.9,25.7L57.5,26.2L57.2,27.6L57.1,29.6L56.3,34.2L55.9,38.2L55.6,39.7L55.2,40.1L54.5,40.3L49.1,40.1L47.8,40.3L47.1,40.1L46.7,39.6L46.5,38.6L46.6,35.8L47.1,29.8L47.0,22.0L46.6,20.3L46.1,19.4L45.0,18.1L44.0,17.4L43.4,17.3L43.3,17.1L41.9,16.8L39.5,16.9L36.6,17.4L35.7,17.8L34.8,17.9L33.9,18.1L32.4,18.3L31.1,18.6L30.5,18.6L27.9,19.2L27.0,19.3L26.6,19.5L25.2,19.6L24.1,20.0L23.2,20.0L22.5,20.2L20.9,20.4L19.2,20.8Z M92.1,21.9L92.6,22.4L93.2,23.7L93.2,24.7L92.9,26.1L93.0,26.5L94.8,26.5L95.8,26.8L96.8,27.6L97.2,28.8L97.2,29.5L96.8,30.5L95.8,31.3L94.7,31.7L92.5,31.3L92.3,31.7L92.4,32.8L92.2,33.9L92.2,48.2L92.0,49.8L91.6,51.6L91.2,52.3L90.6,52.9L89.1,53.7L88.1,53.9L74.6,53.7L74.3,53.3L74.3,52.0L74.8,49.6L75.2,49.1L81.0,48.9L81.7,49.1L82.7,48.9L86.6,48.9L87.2,48.6L87.9,47.9L88.3,46.9L88.4,45.8L88.6,45.3L88.6,43.0L88.9,41.7L89.0,39.3L89.5,34.4L89.5,31.4L89.1,31.1L87.5,31.7L87.1,31.7L85.4,31.2L84.6,30.4L84.1,29.7L84.1,28.5L84.1,28.0L84.5,27.4L85.3,26.7L86.3,26.4L88.2,26.5L88.4,26.3L88.4,26.1L88.0,25.4L87.9,25.0L87.9,23.5L88.0,23.1L88.7,22.3L89.3,21.8L90.1,21.6L91.3,21.6Z M36.0,21.3L37.1,20.7L38.0,20.7L38.7,20.8L39.4,21.3L40.3,22.4L40.5,23.1L40.5,23.8L39.9,25.7L39.9,26.3L40.0,26.4L40.5,26.4L41.4,26.1L42.5,26.1L43.4,26.5L43.9,27.0L44.2,27.6L44.3,29.1L44.1,29.7L43.6,30.4L42.8,31.0L42.1,31.3L40.7,31.3L39.8,31.0L39.3,30.7L38.7,30.7L38.5,30.8L38.6,35.6L39.0,38.3L39.2,42.0L39.4,43.1L39.5,45.6L40.0,47.8L40.7,48.4L41.7,48.6L49.0,48.8L52.5,48.7L53.4,48.9L54.4,48.9L54.9,49.4L55.1,50.7L55.3,51.4L55.4,53.1L55.1,53.3L40.5,53.3L38.0,52.7L36.7,51.4L36.3,50.4L36.1,49.1L36.3,34.4L36.2,31.1L36.1,30.9L35.5,30.8L34.8,31.1L34.5,31.3L34.1,31.4L32.9,31.3L32.2,31.0L31.5,30.4L31.0,29.2L31.0,28.5L31.2,27.4L31.5,26.8L32.2,26.3L33.1,26.0L35.2,26.0L35.2,25.4L34.9,24.6L34.9,23.2L35.2,22.2Z M54.3,9.5L53.4,10.6L53.1,11.7L53.2,13.0L53.5,14.4L53.5,15.1L53.8,16.5L53.9,16.8L54.0,17.6L54.4,17.7L54.6,17.4L55.5,16.1L56.4,15.1L57.2,14.6L57.8,14.6L58.6,15.4L60.6,17.8L62.7,20.9L62.7,21.2L62.5,21.3L61.8,21.3L58.9,20.7L57.7,20.7L57.0,20.5L54.8,20.1L54.5,20.0L53.4,19.7L52.4,19.6L49.1,18.7L48.9,18.7L48.8,19.1L50.6,20.0L51.7,20.3L52.8,20.9L54.5,21.3L55.5,21.8L59.7,22.7L60.8,22.8L61.0,23.0L60.8,23.2L60.1,23.3L56.0,23.1L55.1,23.4L55.1,23.8L55.2,24.1L56.1,24.8L57.0,25.0L58.3,24.9L64.1,25.1L65.4,24.9L65.7,24.6L65.7,24.1L65.1,22.0L64.0,18.5L63.9,17.8L63.4,16.3L63.3,15.7L62.6,13.9L62.4,12.8L61.7,10.6L61.0,10.1L60.0,10.1L58.6,9.6L58.0,9.6L56.3,9.2L55.3,9.2Z" fill="#000" fill-rule="evenodd"/>
</svg>