<svg xmlns="http://www.w3.org/2000/svg" viewBox="0 0 128 128" width="128" height="128">
  <path d="M9.0,53.6L9.1,54.3L10.6,56.7L11.2,57.2L11.6,57.2L12.8,56.9L15.0,56.2L15.6,56.2L16.0,56.0L18.3,55.5L19.0,55.2L20.2,55.0L20.4,54.8L21.2,54.7L22.4,54.4L23.6,54.3L23.8,54.4L24.3,55.0L24.3,55.5L23.8,55.8L20.9,56.4L18.8,57.0L18.5,57.0L14.4,58.2L13.6,58.3L12.7,58.6L12.5,58.9L12.5,59.3L12.9,59.9L14.1,61.3L15.1,62.3L15.4,62.5L16.0,62.5L16.8,62.2L19.2,61.6L19.4,61.5L20.1,61.4L20.9,61.1L21.9,61.0L23.6,60.5L24.1,60.5L25.2,60.1L26.0,60.1L27.5,59.7L28.2,59.8L28.8,60.4L28.9,60.8L28.4,61.2L21.9,62.5L17.9,63.6L17.4,64.0L17.4,64.3L19.0,65.7L19.6,66.0L20.9,67.1L21.4,67.2L22.0,67.2L24.3,66.6L25.8,66.4L28.7,65.7L29.2,65.5L30.2,65.5L30.7,65.2L31.6,65.2L32.7,64.9L33.4,64.9L33.8,65.0L34.8,65.8L34.8,66.1L34.5,66.3L29.9,67.1L29.2,67.4L26.4,67.9L25.5,68.2L24.4,68.4L24.3,68.9L25.2,69.4L26.2,69.8L26.7,70.1L28.4,70.7L29.2,71.1L30.6,71.4L31.1,71.7L33.3,72.2L34.2,72.3L34.8,72.5L36.7,72.8L37.3,72.8L37.9,73.0L37.9,73.5L36.7,74.7L35.9,75.4L34.4,76.2L33.5,76.5L32.5,76.7L31.9,77.0L31.8,77.9L32.1,79.1L32.3,79.8L32.6,80.1L33.4,80.0L34.0,79.8L34.7,79.7L39.0,78.7L41.6,78.4L42.5,78.1L49.0,77.1L57.5,76.5L64.9,76.4L73.9,76.7L78.0,77.2L79.6,77.3L84.5,78.0L86.0,78.4L87.1,78.4L88.6,78.8L90.2,79.0L91.3,79.3L93.9,79.8L94.9,80.2L95.7,80.2L96.1,79.8L96.4,78.3L96.4,77.4L96.1,77.2L94.6,76.8L93.0,76.0L91.1,74.5L90.6,73.9L90.6,73.6L90.9,73.3L92.1,73.3L92.5,73.1L93.1,73.1L95.7,72.7L96.2,72.5L97.2,72.3L99.3,71.6L99.6,71.6L100.1,71.3L101.0,71.1L101.3,70.9L102.7,70.4L103.1,70.1L103.7,69.9L104.3,69.4L104.3,69.3L103.9,68.9L103.0,68.8L102.6,68.6L101.7,68.4L101.2,68.2L100.0,68.1L98.4,67.7L97.6,67.6L96.9,67.3L94.4,66.9L94.0,66.5L94.0,66.2L94.9,65.5L95.6,65.4L97.4,65.7L98.1,66.0L99.0,66.1L100.5,66.5L101.3,66.6L101.9,66.9L104.5,67.3L106.5,67.9L107.3,67.9L108.5,67.2L110.5,65.7L110.9,65.2L110.9,64.8L110.5,64.5L107.6,63.8L106.9,63.5L104.3,62.9L103.8,62.7L102.5,62.5L101.7,62.2L100.8,62.1L100.5,61.9L100.0,61.8L99.8,61.7L99.7,61.4L100.0,61.0L100.6,60.5L102.2,60.6L103.0,60.9L103.6,61.0L104.7,61.3L105.4,61.4L106.4,61.8L108.6,62.3L109.5,62.6L111.3,63.0L112.2,63.4L112.7,63.5L113.5,63.0L115.1,61.3L115.7,60.5L115.7,60.1L115.4,59.8L113.9,59.4L113.4,59.1L112.9,59.0L112.3,58.7L111.5,58.6L109.3,57.9L107.6,57.5L106.9,57.2L106.0,57.1L104.6,56.7L104.3,56.5L104.3,56.0L105.0,55.2L105.6,55.2L106.1,55.5L106.7,55.5L108.1,56.0L108.4,56.0L110.4,56.6L111.5,56.8L112.2,57.1L114.6,57.7L115.7,58.2L116.6,58.4L117.2,58.4L118.2,57.2L119.3,55.2L119.2,54.7L118.6,54.4L115.4,53.5L114.8,53.2L113.9,53.0L112.1,52.4L109.8,51.8L108.8,51.5L108.3,51.4L107.8,51.2L104.7,50.4L103.7,50.4L103.0,50.1L102.0,49.9L99.0,49.2L96.6,48.9L94.0,48.9L92.5,49.1L91.5,49.5L90.3,50.2L89.4,51.1L89.0,51.8L88.8,52.4L88.8,53.6L89.0,54.3L89.3,54.6L90.1,54.7L90.5,55.1L90.7,55.5L90.7,56.0L90.4,56.6L89.6,57.4L88.0,58.0L85.4,58.6L83.2,58.7L81.5,58.7L80.8,58.5L79.4,57.1L76.9,55.2L76.0,54.7L75.7,54.4L75.2,54.3L74.7,53.8L73.2,53.1L69.8,52.0L69.1,51.9L67.4,51.5L65.5,51.3L62.5,51.3L60.1,51.7L57.2,52.5L55.7,53.1L55.2,53.2L53.4,54.3L52.8,54.5L51.5,55.3L49.4,56.9L48.2,58.2L47.5,58.4L44.3,58.2L42.1,57.8L41.5,57.5L40.6,57.3L39.9,56.9L38.6,55.8L38.4,55.3L38.4,54.9L38.5,54.5L38.9,54.2L39.3,54.0L39.8,53.9L40.1,53.5L40.3,53.2L40.4,51.7L40.2,51.1L39.7,50.2L39.1,49.5L38.0,48.9L36.7,48.4L34.5,48.0L32.4,48.0L29.7,48.3L27.1,48.9L26.0,48.9L24.8,49.3L22.6,49.6L18.1,50.8L17.4,50.9L14.6,51.7L12.9,52.1L12.3,52.3L9.5,53.0L9.2,53.2Z M62.5,55.5L65.9,55.5L66.7,55.5L67.1,55.7L67.2,56.1L67.4,60.7L67.8,61.1L73.5,61.4L74.0,61.9L74.2,64.9L74.2,66.5L73.7,66.8L69.6,66.5L68.4,66.5L67.7,66.7L67.6,67.0L67.7,71.8L67.5,72.4L67.0,72.7L61.8,72.6L61.5,72.5L61.3,72.0L61.5,67.0L61.3,66.7L60.8,66.4L56.3,66.6L55.0,66.5L54.7,66.0L54.7,65.5L55.0,64.4L55.0,63.8L55.2,63.2L55.5,61.7L55.8,61.3L57.1,61.1L61.1,61.1L61.7,60.8L62.0,56.3L62.1,55.7Z" fill="#000" fill-rule="evenodd"/>
</svg>