<svg xmlns="http://www.w3.org/2000/svg" viewBox="0 0 128 128" width="128" height="128">
  <path d="M39.2,71.5L38.1,71.6L37.2,72.0L36.6,72.5L36.2,73.1L35.8,74.1L35.8,75.1L36.1,75.9L36.9,76.7L37.9,77.1L38.8,77.2L39.6,77.0L40.2,76.7L41.2,75.6L41.5,74.7L41.5,73.7L41.2,72.8L40.6,72.2L40.0,71.8Z M90.4,51.2L89.2,51.1L88.4,51.3L87.8,51.7L86.8,52.9L86.6,53.6L86.7,54.9L87.2,55.8L88.4,56.6L89.4,56.8L90.5,56.5L91.6,55.7L92.2,54.7L92.2,52.7L91.5,51.7L90.9,51.3Z M67.7,9.3L61.8,9.2L58.0,9.4L56.6,9.8L54.6,9.9L53.9,10.2L52.3,10.4L51.9,10.6L51.0,10.7L46.3,12.2L44.5,13.0L42.2,13.8L38.1,15.9L37.6,16.3L35.2,17.6L33.1,19.2L31.7,20.0L29.1,22.1L25.2,25.7L21.8,29.6L19.1,33.3L16.3,37.9L14.0,42.6L13.8,43.4L13.0,44.9L11.4,50.0L10.4,54.2L9.9,58.3L9.7,59.4L9.4,63.8L9.4,66.6L9.8,70.9L10.3,74.7L11.4,79.3L11.6,79.8L12.2,82.2L12.9,83.5L13.4,85.4L16.2,91.1L18.4,94.8L21.5,99.0L22.0,99.5L23.2,101.1L24.4,102.2L24.6,102.5L28.7,106.5L33.6,110.0L39.6,113.5L41.7,114.5L42.4,114.6L43.1,115.0L44.9,115.7L45.3,115.9L46.0,116.1L46.9,116.5L47.6,116.6L51.6,117.8L54.5,118.3L57.0,118.6L58.0,118.8L60.5,118.9L61.6,119.0L65.8,119.0L67.3,118.9L68.9,118.9L69.5,118.7L70.2,118.7L70.6,118.6L71.5,118.5L72.3,118.2L73.1,118.2L73.7,118.0L74.3,118.0L76.1,117.5L77.0,117.4L79.0,116.8L79.7,116.7L80.7,116.2L81.5,116.1L83.1,115.4L84.8,114.8L89.7,112.5L93.9,110.0L96.3,108.3L99.3,105.9L104.2,101.2L104.4,100.9L106.1,98.9L106.5,98.4L107.8,96.8L108.3,96.0L108.8,95.5L109.9,93.8L110.6,92.4L111.3,91.5L111.4,91.0L111.7,90.8L112.6,89.0L114.9,84.2L115.4,82.3L116.0,81.1L116.2,80.0L116.6,79.1L117.0,77.5L117.2,76.3L117.5,75.5L117.7,74.3L118.1,72.7L118.5,69.6L118.6,66.0L118.8,65.0L118.8,62.1L118.5,57.4L118.1,55.3L118.0,54.1L117.7,53.0L117.4,51.4L116.8,49.4L116.5,47.9L116.2,47.2L115.7,45.4L115.0,43.9L114.6,42.5L112.5,38.2L109.5,33.2L108.7,32.2L108.2,31.3L107.7,30.8L106.3,28.8L103.0,25.2L99.7,22.2L96.6,19.7L95.1,18.7L94.0,17.9L89.6,15.3L88.8,15.1L87.7,14.4L87.3,14.3L85.0,13.2L83.7,12.8L83.4,12.6L79.0,11.1L77.9,11.0L75.1,10.2L70.5,9.5Z M32.0,73.5L33.4,71.0L35.2,68.6L35.5,68.0L36.8,66.6L37.5,66.2L37.9,66.2L41.7,70.0L44.7,72.5L46.7,73.9L50.5,76.1L54.1,77.5L58.8,78.7L60.6,78.9L61.6,79.1L65.9,79.3L67.5,79.1L68.8,79.1L69.6,78.8L70.9,78.7L72.3,78.3L73.9,78.1L74.2,77.9L76.6,77.4L77.9,76.9L81.1,75.5L82.5,74.8L82.9,74.5L83.5,74.3L86.9,72.0L88.7,70.5L89.6,69.8L90.3,69.8L91.0,70.3L92.1,71.9L92.8,73.0L93.1,73.3L93.2,73.7L95.1,76.3L96.4,78.6L96.7,79.3L96.8,79.9L95.5,81.5L94.2,82.6L93.2,83.6L90.4,85.9L89.8,86.2L89.4,86.7L88.4,87.3L87.6,88.0L87.0,88.3L86.3,88.9L85.6,89.2L85.2,89.6L83.9,90.2L83.1,90.8L82.8,90.8L80.3,92.0L76.1,93.5L74.2,93.9L73.1,94.3L72.2,94.4L71.0,94.7L69.2,94.8L67.6,95.2L66.2,95.2L61.8,95.2L57.8,94.8L56.5,94.4L55.1,94.2L51.4,93.0L50.9,92.6L49.2,92.0L47.4,91.2L46.1,90.2L45.1,89.7L44.5,89.1L43.1,88.2L40.1,85.5L37.2,82.1L36.0,80.5L35.3,79.7L32.1,74.8L32.0,74.4Z M114.0,66.1L114.3,66.5L114.3,68.5L114.1,69.9L114.0,71.5L113.5,73.5L113.5,74.2L112.3,78.9L111.3,81.9L110.8,82.9L110.1,84.9L107.8,89.1L107.5,89.3L107.2,89.3L106.6,88.8L105.9,87.5L104.5,84.3L103.9,83.1L102.9,81.0L102.9,80.3L103.3,79.5L107.3,74.9L108.5,73.2L110.1,71.0L110.5,70.5L111.0,69.6L111.7,68.8L113.0,66.8L113.7,66.1Z M41.1,62.0L42.5,60.6L47.0,57.5L51.0,55.6L51.3,55.6L51.7,55.3L53.7,54.7L54.1,54.5L55.7,54.2L56.9,53.8L58.0,53.7L59.0,53.5L59.8,53.5L60.3,53.3L64.4,53.2L67.8,53.6L70.7,54.2L73.9,55.3L76.2,56.5L79.8,58.7L82.7,61.2L84.6,62.9L86.8,65.3L87.0,66.1L86.5,66.7L85.2,67.8L84.8,68.0L84.0,68.7L82.2,70.0L79.8,71.4L79.1,71.5L76.4,72.7L74.2,73.5L72.4,73.9L72.2,74.0L67.7,74.7L62.7,74.7L60.6,74.5L57.1,73.8L55.2,73.1L54.5,73.0L54.3,72.7L53.6,72.5L51.0,71.2L46.9,68.5L44.6,66.5L41.5,63.2L41.1,62.6Z M14.5,71.1L14.9,70.0L16.1,68.1L16.3,67.6L17.5,65.6L18.3,64.5L18.7,63.5L19.5,62.6L21.1,60.2L22.3,58.6L22.5,58.2L24.1,56.2L24.3,55.8L26.3,53.6L26.4,53.3L27.5,52.5L27.9,52.5L28.4,52.9L30.0,55.7L34.2,61.7L34.3,62.4L33.9,63.1L32.5,64.6L32.0,65.4L31.2,66.4L31.0,67.0L30.3,67.8L29.6,69.0L29.5,69.3L28.2,71.1L27.8,72.0L26.9,73.5L26.8,74.7L27.8,76.6L28.4,77.4L28.8,78.2L31.8,82.5L34.8,86.3L38.0,89.6L41.5,92.5L43.3,93.6L43.9,94.2L47.3,96.0L48.9,96.6L49.7,97.0L50.4,97.2L50.9,97.5L52.1,97.9L53.1,98.0L53.9,98.4L54.7,98.4L55.8,98.8L56.9,98.9L59.1,99.4L63.5,99.7L67.3,99.7L68.9,99.3L71.4,99.1L75.0,98.4L79.7,96.9L81.9,96.1L83.0,95.6L83.1,95.4L83.5,95.3L84.1,94.9L85.5,94.4L86.4,93.6L86.8,93.6L88.0,92.8L89.7,91.8L90.2,91.3L91.2,90.7L95.4,87.4L96.2,86.5L97.2,85.8L98.3,84.7L98.8,84.3L99.1,84.3L99.7,84.9L101.6,88.7L103.8,94.3L103.8,95.0L103.6,95.5L102.1,97.4L98.8,100.8L95.6,103.7L93.5,105.3L89.5,107.9L85.7,109.9L85.5,109.9L84.8,110.3L84.4,110.4L83.8,110.8L83.5,110.8L82.8,111.2L80.8,111.8L80.4,112.1L74.4,113.8L69.2,114.6L65.4,114.8L61.0,114.7L57.2,114.4L52.0,113.4L50.3,112.8L48.9,112.5L46.5,111.7L45.8,111.3L44.0,110.7L43.7,110.5L42.5,110.1L41.4,109.3L38.2,107.7L37.6,107.3L36.1,106.4L35.2,105.7L34.4,105.3L31.4,102.9L30.2,101.7L29.6,101.3L26.4,97.9L26.3,97.6L23.8,94.7L23.1,93.6L22.7,92.9L21.1,90.5L20.5,89.3L19.7,88.1L18.3,84.8L17.5,83.4L17.4,82.8L16.6,81.0L16.0,78.7L15.7,78.0L15.5,77.1L15.0,75.2L14.5,72.3Z M21.2,38.9L21.8,39.6L23.0,42.6L24.0,44.7L24.3,45.4L25.1,47.0L25.2,48.0L24.7,48.9L21.2,52.8L20.2,54.4L19.1,55.5L17.2,58.1L15.2,61.0L14.7,61.5L14.5,61.5L14.2,61.3L14.1,61.0L14.1,59.5L14.3,57.9L14.4,56.1L14.7,55.2L14.9,53.6L15.7,50.8L15.8,50.1L16.1,49.4L17.1,46.1L18.7,42.4L20.3,39.4L20.7,38.9Z M31.4,48.3L31.8,47.6L35.0,44.5L39.3,40.9L41.1,39.9L42.1,39.1L43.8,38.3L44.3,37.9L45.5,37.3L45.7,37.1L48.1,36.0L49.5,35.6L51.0,34.8L52.1,34.6L52.4,34.4L57.0,33.4L58.8,33.2L59.7,33.0L62.6,32.8L65.3,32.8L67.4,33.0L69.8,33.4L70.4,33.4L71.5,33.7L72.2,33.8L76.4,35.1L76.7,35.3L77.9,35.7L81.1,37.5L82.7,38.7L83.9,39.4L87.1,42.0L89.5,44.4L91.4,46.6L94.9,51.4L95.8,53.0L96.0,53.3L96.4,54.1L96.4,54.8L95.8,55.9L93.2,59.5L91.1,61.9L90.6,62.0L89.6,61.4L88.0,59.7L86.3,58.2L85.9,57.8L83.1,55.6L80.4,53.7L76.1,51.5L71.8,49.9L70.2,49.6L69.2,49.5L68.6,49.3L66.0,48.9L60.9,48.9L58.1,49.1L57.1,49.4L55.5,49.6L53.3,50.3L52.8,50.4L49.5,51.7L49.3,51.7L47.7,52.5L46.9,52.8L44.4,54.1L43.3,54.9L42.4,55.3L41.7,55.9L40.9,56.3L40.5,56.7L39.8,57.1L38.9,58.0L38.4,58.3L37.9,58.3L36.7,57.2L34.3,53.8L34.0,53.1L32.1,50.3L31.5,48.9Z M24.7,32.8L25.5,31.6L26.3,30.8L26.4,30.5L30.4,26.5L34.9,22.7L39.2,20.0L40.4,19.5L42.0,18.5L42.7,18.3L45.3,17.1L46.1,16.8L48.1,16.0L49.3,15.6L49.6,15.6L50.2,15.3L51.5,15.1L52.1,14.8L53.4,14.6L54.4,14.3L55.3,14.2L56.5,13.9L57.4,13.9L60.9,13.4L64.7,13.4L68.9,13.6L71.8,13.9L77.2,15.1L78.2,15.5L79.3,15.7L80.7,16.3L81.7,16.6L83.8,17.5L84.3,17.8L85.0,17.9L86.1,18.6L86.5,18.7L87.8,19.3L88.8,20.0L89.3,20.2L92.8,22.4L93.5,23.1L94.7,23.8L97.7,26.3L98.7,27.4L99.8,28.3L102.5,31.4L104.1,33.4L104.4,33.9L106.5,36.8L108.5,40.3L108.6,40.7L110.2,43.8L111.0,46.0L111.2,46.1L112.6,50.5L112.7,51.2L113.0,52.1L113.1,52.8L113.6,54.5L113.8,56.1L113.8,57.0L113.2,58.5L112.9,58.9L112.1,60.5L111.8,60.7L111.4,61.6L110.2,63.4L109.9,64.1L108.9,65.3L107.6,67.4L105.7,69.9L105.5,70.3L104.9,71.0L104.3,71.9L102.6,73.9L101.0,75.6L100.4,75.7L99.5,74.7L96.9,70.6L95.2,68.1L94.1,66.8L93.9,66.3L93.8,65.7L95.4,63.4L97.6,60.8L100.1,57.0L101.3,54.5L101.3,53.7L101.1,52.9L100.2,51.7L100.1,51.3L99.0,49.7L98.8,49.2L95.8,45.0L91.7,40.3L89.2,37.8L88.0,37.0L86.4,35.6L83.2,33.6L82.6,33.3L81.2,32.5L80.8,32.4L79.8,31.9L76.8,30.7L75.6,30.3L74.5,30.1L73.3,29.7L70.7,29.2L65.2,28.5L61.7,28.5L56.9,29.1L56.3,29.3L54.9,29.5L50.2,30.6L49.4,31.0L48.7,31.2L46.6,32.0L46.4,32.0L45.7,32.4L45.3,32.5L44.5,33.0L43.3,33.5L41.7,34.4L41.2,34.6L40.4,35.2L39.2,35.8L37.2,37.2L35.7,38.4L35.5,38.4L31.3,42.0L29.9,43.4L29.5,43.7L28.9,43.7L28.5,43.3L27.5,41.7L25.9,38.2L25.9,38.0L25.5,37.3L25.3,36.6L24.7,35.3L24.3,34.0L24.3,33.5Z" fill="#000" fill-rule="evenodd"/>
</svg>