<svg xmlns="http://www.w3.org/2000/svg" viewBox="0 0 128 128" width="128" height="128">
  <path d="M45.9,56.7L45.1,57.0L44.6,57.6L44.4,58.7L45.0,59.7L45.8,60.1L46.2,60.1L46.9,59.9L47.3,59.6L47.5,59.1L47.6,58.2L47.4,57.6L46.8,56.8Z M119.2,49.2L119.0,49.0L118.6,48.9L116.6,49.1L116.0,49.8L114.9,51.4L111.1,56.1L106.8,60.4L105.1,61.9L104.6,62.2L104.2,62.2L103.5,61.9L98.5,58.3L97.6,57.9L97.4,57.6L96.9,57.5L96.6,57.2L95.7,56.8L95.2,56.4L94.6,56.2L94.1,55.8L92.2,54.9L91.5,54.7L89.6,53.7L87.6,53.0L86.9,52.8L85.1,52.1L82.4,51.4L82.2,51.2L77.0,50.1L76.7,50.0L75.4,49.7L74.5,49.7L73.1,49.4L69.2,49.1L64.0,49.1L58.9,49.5L57.2,49.8L56.6,49.8L56.0,50.0L53.1,50.6L51.7,51.0L51.3,51.0L50.1,51.4L49.2,51.5L48.3,52.0L47.7,52.0L47.4,52.2L46.8,52.4L45.2,53.1L44.0,53.4L41.9,54.3L39.0,55.8L38.5,56.0L36.3,57.3L35.2,58.0L34.6,58.2L33.6,59.1L33.0,59.4L31.7,60.4L31.7,60.7L32.1,61.0L35.8,61.0L36.4,60.4L37.0,60.2L38.2,59.3L38.6,59.1L39.7,58.5L40.1,58.4L44.1,56.4L45.6,56.0L48.1,54.9L48.9,54.7L49.7,54.3L50.9,54.1L51.9,53.7L52.6,53.6L53.5,53.3L54.3,53.2L55.2,52.9L56.8,52.7L57.6,52.4L59.0,52.4L61.3,52.0L62.6,52.0L63.6,51.8L69.9,51.8L74.5,52.3L76.8,52.8L78.7,53.0L80.3,53.5L81.2,53.6L81.5,53.8L82.9,54.1L84.6,54.7L85.1,54.8L86.7,55.4L87.0,55.6L87.7,55.8L88.2,56.1L89.4,56.5L90.2,57.0L91.6,57.5L95.2,59.4L96.9,60.5L97.8,61.0L100.9,63.1L101.6,63.8L101.8,64.3L101.3,64.9L98.1,67.1L97.5,67.4L95.6,68.6L94.2,69.2L94.0,69.5L88.5,71.9L84.4,73.3L84.1,73.3L83.3,73.7L81.8,74.1L81.3,74.1L80.6,74.4L79.0,74.7L77.4,74.9L75.3,75.3L74.3,75.3L71.7,75.6L66.4,75.7L64.2,75.5L63.0,75.5L60.9,75.1L57.8,74.8L55.8,74.4L55.0,74.1L51.9,73.3L46.5,71.3L44.3,70.3L42.8,69.7L41.6,68.9L40.0,68.2L37.0,66.2L36.0,66.1L32.8,66.1L32.7,66.5L33.8,67.5L34.5,67.9L35.5,68.7L36.1,68.9L36.8,69.5L39.2,71.0L39.5,71.0L40.5,71.6L41.0,71.8L41.3,72.1L42.0,72.3L42.2,72.5L42.8,72.7L43.5,73.1L44.8,73.6L45.3,74.0L47.0,74.6L47.3,74.8L47.8,74.9L48.4,75.2L49.8,75.6L50.1,75.6L51.4,76.2L52.0,76.2L54.1,76.9L54.9,77.0L56.4,77.4L57.7,77.6L58.7,77.9L60.1,78.0L60.8,78.2L65.7,78.6L70.6,78.6L75.1,78.3L79.6,77.5L83.4,76.6L84.0,76.3L85.2,76.1L85.8,75.8L86.6,75.6L87.0,75.4L87.6,75.3L88.2,75.0L89.8,74.6L91.9,73.5L93.7,72.8L94.7,72.2L96.2,71.5L97.4,70.7L98.5,70.2L99.7,69.5L100.3,68.9L101.5,68.3L103.7,66.7L104.1,66.4L104.8,66.4L105.6,67.0L109.0,70.4L112.3,74.3L112.8,75.2L114.7,77.7L115.4,78.9L116.2,79.8L118.4,79.9L118.7,79.6L118.6,79.1L118.2,78.6L118.1,78.3L117.4,77.3L116.9,76.4L114.8,73.4L113.5,71.9L112.9,71.0L111.4,69.2L106.9,64.7L106.8,64.3L107.0,64.0L108.6,62.4L108.9,62.3L109.3,61.9L110.5,60.8L111.1,60.0L112.9,58.2L113.3,57.6L114.4,56.4L117.8,51.9L118.1,51.2L118.9,50.0Z M9.1,53.5L9.2,67.4L9.0,71.6L9.2,73.1L9.6,74.4L10.5,75.8L11.3,76.6L12.1,77.1L13.8,77.7L14.8,77.7L16.1,77.4L17.1,77.0L18.1,76.2L18.6,75.8L19.3,74.7L19.7,73.6L19.9,71.9L19.8,66.5L19.6,66.3L19.3,66.2L17.8,66.2L17.4,66.3L17.0,66.6L17.0,72.1L16.8,72.9L16.3,73.7L15.9,74.1L15.0,74.6L14.0,74.6L13.4,74.4L12.6,73.6L12.1,72.5L12.1,59.4L12.0,59.0L12.0,58.5L12.1,58.2L12.2,56.4L12.1,53.7L12.3,52.9L12.8,52.1L13.4,51.6L13.9,51.4L15.4,51.4L16.4,52.3L16.8,52.9L16.9,53.9L16.9,60.7L17.3,62.8L17.8,63.6L18.7,64.4L19.7,64.8L28.0,64.9L29.3,64.9L34.0,65.1L42.1,65.0L58.0,65.3L58.4,65.4L59.0,65.8L61.1,67.9L62.1,68.5L70.6,68.6L71.2,68.7L77.7,68.6L80.3,66.1L81.1,65.6L92.5,65.6L92.8,65.5L93.0,65.2L93.0,63.3L92.6,62.8L91.3,62.7L88.5,62.8L81.3,62.6L80.6,62.3L79.9,61.7L78.1,60.0L77.4,59.6L76.6,59.4L67.6,59.4L62.9,59.3L61.9,59.4L61.6,59.5L59.3,61.6L58.4,62.3L50.4,62.3L43.3,62.2L42.1,62.2L39.8,62.1L34.3,62.1L32.4,61.9L29.9,62.0L21.1,61.9L20.9,61.8L20.1,61.1L20.0,60.4L19.9,53.3L19.7,52.5L19.5,51.8L18.9,50.7L18.5,50.2L17.5,49.3L16.0,48.5L14.5,48.3L13.3,48.4L12.1,48.8L10.9,49.7L9.9,50.9L9.3,52.4Z M61.5,63.7L62.9,62.5L63.5,62.2L71.2,62.2L71.8,62.4L73.9,62.3L76.3,62.5L77.0,62.8L77.7,63.6L77.9,64.0L77.9,64.3L76.9,65.5L76.1,65.8L65.0,65.8L63.5,65.7L62.9,65.5L62.3,64.9L61.7,64.3Z M65.4,61.1L65.4,61.3L65.1,61.4L65.1,61.0Z" fill="#000" fill-rule="evenodd"/>
</svg>