<svg xmlns="http://www.w3.org/2000/svg" viewBox="0 0 128 128" width="128" height="128">
  <path d="M32.6,53.9L31.4,54.4L29.8,55.3L28.1,56.7L26.9,58.3L25.9,60.4L25.8,61.1L25.5,61.5L25.2,63.3L25.2,64.8L25.5,66.7L26.3,68.5L26.5,68.7L27.4,70.4L29.1,71.8L31.3,73.2L33.0,73.8L34.5,73.8L35.1,74.0L37.0,73.9L38.5,73.5L39.3,73.2L40.4,72.5L40.8,72.5L42.5,71.3L43.5,70.2L44.1,68.8L44.7,67.8L45.5,65.4L45.5,62.7L45.2,62.0L45.1,61.2L44.2,58.9L43.4,57.6L41.9,56.1L41.8,55.8L41.3,55.4L39.5,54.5L37.0,53.8L34.2,53.7L33.2,53.9Z M92.1,40.4L91.8,40.7L91.8,42.1L91.6,42.7L91.6,43.4L91.8,43.9L91.7,52.3L91.6,53.7L91.6,56.1L91.6,57.5L91.4,57.9L91.6,59.2L91.6,62.6L91.4,63.7L91.6,65.1L91.6,66.6L91.4,67.1L91.5,76.3L91.3,77.3L91.4,81.3L91.3,87.6L91.6,88.1L92.8,88.1L105.7,88.1L113.4,88.3L118.1,88.3L118.7,88.1L118.9,88.0L118.9,87.8L117.9,86.5L117.4,86.2L116.5,85.3L114.0,83.2L111.7,81.0L109.8,79.4L107.6,77.2L107.0,76.9L106.1,76.1L103.2,73.4L102.0,72.5L99.3,69.9L96.9,67.9L95.2,66.3L94.9,66.1L93.3,64.5L93.2,64.2L94.1,63.5L97.1,60.7L98.6,59.5L106.8,51.9L107.3,51.5L108.2,50.5L110.2,48.9L113.8,45.5L117.7,42.2L119.2,40.7L119.1,40.4Z M9.0,64.0L9.0,64.5L9.7,65.5L10.3,66.5L11.1,67.6L12.1,69.4L12.7,70.1L13.0,70.7L15.7,75.0L16.7,76.1L17.9,77.8L18.6,78.5L19.0,79.3L19.9,80.2L20.2,80.9L21.3,81.9L22.0,82.9L23.1,84.2L23.6,84.5L25.2,86.2L26.1,87.0L26.6,87.2L27.7,88.3L30.8,90.4L31.7,90.9L32.3,91.4L33.6,91.9L34.5,92.6L36.8,93.4L37.7,93.8L38.4,94.0L38.7,94.2L42.6,95.2L47.9,95.3L48.9,95.0L50.2,94.9L52.5,94.2L53.1,94.1L56.6,92.7L57.3,92.5L60.5,90.9L61.2,90.8L63.5,89.3L64.0,89.2L64.9,88.5L65.5,88.3L65.6,88.1L66.2,88.0L66.6,87.7L76.0,87.6L78.9,87.8L81.5,87.7L83.6,87.8L89.5,87.9L89.6,87.8L89.6,85.7L89.8,83.8L89.8,65.7L89.9,59.8L89.8,57.3L90.0,56.2L90.0,46.1L90.1,40.7L89.8,40.4L80.2,40.2L66.6,40.2L65.1,39.6L64.0,38.9L62.8,38.4L62.4,38.1L61.8,38.0L60.2,37.1L57.6,36.2L57.4,36.0L56.9,35.9L55.6,35.2L53.8,34.6L53.0,34.2L50.4,33.6L49.7,33.3L46.9,33.0L44.1,33.1L43.6,33.3L42.3,33.4L41.4,33.7L40.0,33.9L39.5,34.1L37.0,34.8L35.6,35.4L35.1,35.5L32.0,37.1L31.7,37.4L30.6,38.0L29.5,38.8L28.1,39.7L27.6,40.2L26.9,40.7L24.1,43.3L20.5,47.3L20.0,48.0L17.3,51.3L17.1,51.8L15.5,53.8L14.6,55.2L14.3,55.6L14.0,56.3L13.0,57.6L12.7,58.3L11.7,59.7L11.2,60.7L9.8,62.7L9.6,63.2Z M35.3,48.1L37.2,48.1L39.6,48.6L41.1,49.2L42.7,49.8L45.6,51.4L48.2,53.9L49.4,55.5L51.0,58.9L51.4,59.9L51.5,61.4L51.9,62.3L51.9,65.1L51.5,66.3L51.3,67.9L50.7,69.5L50.0,70.7L49.7,71.6L49.4,71.7L49.2,72.3L48.1,73.9L46.2,75.9L45.1,76.9L43.0,78.1L41.8,78.8L40.8,79.1L40.4,79.1L39.5,79.4L38.5,79.5L37.6,79.8L33.2,79.7L29.6,78.7L26.9,77.2L25.7,76.3L23.3,74.1L21.6,71.6L20.0,67.5L19.9,65.4L19.8,64.6L19.8,62.9L20.5,59.3L20.8,58.9L21.3,57.3L21.6,57.0L22.2,55.6L23.8,53.3L26.1,51.0L27.3,50.5L28.6,49.6L29.9,49.2L30.2,48.9L31.5,48.6L32.6,48.6L33.8,48.3L34.8,48.3Z" fill="#000" fill-rule="evenodd"/>
</svg>