<svg xmlns="http://www.w3.org/2000/svg" viewBox="0 0 128 128" width="128" height="128">
  <path d="M119.2,59.6L119.0,59.3L118.7,59.1L118.0,59.0L117.2,58.5L116.2,58.2L115.6,57.8L114.8,57.6L113.2,56.9L112.6,56.8L110.3,55.8L108.4,55.3L107.6,54.8L106.7,54.7L105.5,54.2L105.2,54.2L104.4,53.8L102.6,53.3L102.0,53.1L99.6,52.6L97.4,51.8L96.8,51.8L95.9,51.4L95.2,51.3L94.1,51.0L93.7,51.0L92.0,50.5L89.4,50.1L89.2,49.9L86.9,49.4L85.3,49.2L84.5,48.9L83.3,48.7L82.6,48.7L82.3,48.6L81.1,48.3L80.3,48.3L79.4,48.1L78.8,47.5L78.1,45.9L77.5,44.4L76.8,43.3L76.8,42.9L76.3,42.2L75.5,42.0L72.4,42.0L71.0,42.2L67.8,42.2L67.3,42.3L65.5,42.4L64.4,42.6L62.2,42.7L60.5,43.0L59.8,43.0L57.5,43.5L55.4,43.7L54.4,44.0L51.8,44.3L51.3,44.5L48.5,45.0L47.8,45.3L46.8,45.5L46.2,45.8L43.7,46.3L43.4,46.5L42.2,46.7L40.1,47.4L38.4,47.8L36.0,48.8L35.4,48.9L32.4,50.1L30.6,50.7L30.3,50.9L29.7,51.1L22.5,54.3L21.4,55.0L19.0,56.1L17.6,57.0L16.6,57.3L15.6,58.1L15.2,58.3L12.6,59.8L11.7,60.5L10.3,61.2L9.0,62.2L9.0,62.7L9.4,63.2L9.8,63.4L13.8,66.4L15.4,67.3L15.8,67.6L16.5,68.0L17.7,68.9L19.3,69.7L20.1,70.3L20.7,70.6L22.3,71.7L23.4,72.2L23.6,72.4L25.4,73.3L26.6,73.7L28.1,74.5L29.0,75.1L29.7,75.3L30.5,75.8L31.9,76.2L34.4,77.4L37.0,78.3L38.8,79.1L40.5,79.6L41.2,79.9L42.7,80.4L43.0,80.4L44.8,81.1L45.6,81.2L46.4,81.6L47.8,81.9L48.9,82.3L49.9,82.5L51.5,83.0L52.3,83.1L55.7,83.9L56.2,83.9L56.9,84.2L57.8,84.2L58.4,84.5L62.7,85.2L63.2,85.2L64.0,85.4L70.3,86.0L71.0,86.0L71.6,86.2L75.3,86.2L75.9,85.7L76.5,84.5L76.8,84.0L76.9,83.7L77.7,82.2L78.1,81.1L78.6,80.3L79.3,79.7L81.4,79.4L82.2,79.4L83.1,79.2L86.6,78.8L88.6,78.4L89.7,78.3L90.3,78.1L91.2,78.0L91.8,77.8L93.8,77.5L96.6,76.9L97.3,76.8L98.3,76.4L98.7,76.4L98.9,76.3L100.8,75.9L101.5,75.7L103.4,75.3L105.2,74.7L105.8,74.7L108.6,73.7L109.2,73.7L109.9,73.3L110.3,73.3L110.7,73.1L112.1,72.7L113.7,72.1L114.6,71.9L115.2,71.6L117.7,70.7L118.7,70.2L118.8,69.7L118.0,69.1L114.5,65.8L113.7,65.3L113.0,65.1L97.9,64.9L97.1,64.7L91.0,64.7L90.6,64.6L89.2,64.7L88.4,64.6L85.8,64.6L85.1,64.5L82.8,64.4L76.5,64.5L74.0,64.3L70.8,64.4L68.6,64.2L63.3,64.2L63.0,64.1L59.6,64.1L57.6,64.0L55.9,64.1L49.9,63.9L44.4,63.9L43.7,63.7L42.2,63.8L39.6,63.6L34.1,63.6L31.5,63.5L28.6,63.5L28.2,63.6L27.6,64.4L27.4,64.8L26.7,65.4L26.2,65.7L25.0,66.0L23.6,65.6L23.0,65.2L22.5,64.7L22.1,64.0L21.9,63.4L21.9,62.5L22.1,61.9L22.4,61.1L23.0,60.6L24.6,59.9L25.4,59.9L26.2,60.1L26.9,60.6L27.5,61.1L28.0,62.0L28.3,62.1L29.5,62.2L35.1,62.2L36.8,62.4L38.6,62.4L51.5,62.6L52.7,62.7L54.2,62.6L55.7,62.8L60.9,62.8L61.5,62.9L64.7,62.9L67.7,63.0L73.8,63.0L75.6,63.1L76.9,63.1L81.8,63.3L84.7,63.2L88.6,63.4L89.9,63.4L90.6,63.5L99.9,63.6L100.7,63.7L102.8,63.8L106.4,63.7L109.6,63.9L113.3,63.9L114.0,63.6L115.9,62.1L117.8,61.0L119.2,59.9Z" fill="#000" fill-rule="evenodd"/>
</svg>