<svg xmlns="http://www.w3.org/2000/svg" viewBox="0 0 128 128" width="128" height="128">
  <path d="M18.6,83.5L18.6,83.9L19.0,84.3L19.9,84.3L19.9,83.6L19.5,83.2L19.2,83.1Z M62.6,81.9L62.2,82.4L62.2,83.0L62.8,83.4L63.5,83.2L63.7,82.9L63.6,82.2L63.3,81.9Z M118.9,38.5L118.6,38.3L117.4,38.0L115.6,37.8L113.2,37.9L111.4,38.2L109.2,38.9L107.2,40.0L105.5,41.5L104.9,41.6L99.3,41.1L93.5,40.9L85.9,41.5L84.3,41.9L83.2,41.9L79.7,42.8L78.9,43.1L78.2,43.2L77.5,43.5L76.8,43.6L72.1,45.4L67.6,47.6L64.1,50.1L63.6,50.1L63.3,49.8L63.3,48.0L63.6,47.1L64.4,45.2L65.7,43.6L67.1,42.3L68.5,41.4L68.8,41.3L69.0,41.1L71.0,40.2L72.9,39.6L74.5,39.3L74.8,39.0L74.2,38.7L72.3,38.5L69.9,38.5L66.8,39.0L65.1,39.6L63.8,40.2L62.6,41.1L61.5,42.1L61.1,42.2L58.7,42.1L56.9,41.9L55.5,41.9L54.1,41.7L48.9,41.7L45.5,41.9L41.8,42.3L37.9,43.1L37.1,43.4L36.0,43.6L33.9,44.2L30.3,45.5L30.2,45.6L28.4,46.2L27.1,46.9L26.6,47.1L25.7,47.6L25.4,47.9L23.1,49.1L20.7,50.8L16.8,54.4L14.7,56.7L14.3,56.7L13.9,56.2L13.9,54.0L14.5,51.6L15.5,50.0L15.5,49.7L15.2,49.8L13.5,51.2L11.6,53.8L11.2,54.8L10.8,55.5L10.0,58.3L9.9,61.2L10.1,62.9L10.3,63.8L10.6,64.2L10.6,64.9L9.8,67.4L9.7,68.2L9.3,69.6L9.3,70.8L9.2,71.5L9.2,74.2L9.3,75.0L9.3,75.9L10.1,79.0L11.0,81.0L11.7,82.2L12.7,83.5L14.1,84.7L14.8,85.2L16.6,86.0L18.1,86.1L19.2,86.4L19.5,86.8L20.2,88.0L21.4,89.3L22.3,89.9L23.1,90.3L24.3,90.3L24.3,89.4L23.3,86.4L22.5,82.2L22.5,80.8L22.4,80.4L22.3,76.7L22.5,73.1L22.7,72.2L22.7,71.5L23.0,70.2L23.8,67.5L24.4,67.1L25.5,67.1L26.1,67.2L26.5,67.2L26.6,66.8L26.1,66.3L25.2,64.7L25.1,64.1L26.0,62.1L28.4,58.5L29.9,56.6L32.8,53.7L34.5,52.3L36.2,51.2L36.8,50.8L37.4,50.3L38.7,49.6L39.0,49.4L42.5,47.6L45.3,46.6L45.9,46.2L48.5,45.5L50.5,45.1L51.2,44.8L52.3,44.7L54.0,44.3L55.1,44.3L55.8,44.1L58.4,44.0L59.9,44.1L60.2,44.2L60.4,44.6L60.5,46.9L60.4,47.7L61.0,48.2L61.9,49.8L62.6,50.6L62.7,50.9L62.7,51.3L59.4,54.6L59.4,54.8L58.5,55.8L58.0,55.8L57.7,55.5L57.6,54.6L57.7,52.4L58.5,50.3L59.5,48.5L59.3,48.5L58.2,49.3L56.1,51.7L55.1,53.3L54.4,54.7L53.8,56.7L53.6,58.0L53.6,60.4L53.8,61.9L54.2,63.1L54.2,64.1L53.6,66.1L53.0,69.0L52.9,70.5L52.9,74.0L53.0,75.0L53.7,77.8L54.2,79.0L55.5,81.4L57.0,83.2L58.5,84.3L59.6,84.8L60.7,85.2L62.0,85.3L62.8,85.5L63.3,86.1L63.9,87.1L65.1,88.5L66.5,89.4L67.1,89.6L67.9,89.6L68.1,89.3L68.1,89.1L67.6,87.9L67.6,87.6L67.2,86.5L67.1,85.3L66.8,84.3L66.6,82.9L66.4,82.2L66.3,80.5L66.1,78.9L66.0,75.4L66.4,71.0L66.5,70.2L66.7,70.0L66.8,68.9L67.4,66.8L67.9,66.2L68.3,66.1L69.9,66.3L70.4,66.2L70.2,65.7L69.8,65.3L69.0,64.0L68.9,62.9L69.8,61.1L70.2,60.6L70.3,60.2L71.1,58.9L72.5,57.0L74.1,55.3L77.2,52.4L77.4,52.3L78.8,51.1L79.3,50.8L81.4,49.4L84.6,47.6L86.1,46.9L87.3,46.3L88.9,45.7L89.7,45.5L90.3,45.2L91.2,45.1L92.8,44.5L93.9,44.4L94.4,44.1L96.6,43.8L97.0,43.7L100.4,43.4L103.4,43.3L104.2,43.4L104.6,43.9L104.6,45.8L104.8,46.6L105.3,47.9L106.7,49.9L107.2,50.5L107.4,50.5L107.5,49.8L107.4,49.3L107.4,47.6L107.5,46.9L108.5,44.7L109.4,43.4L110.9,41.9L111.3,41.7L112.0,41.1L112.4,41.0L113.1,40.5L115.9,39.3L117.4,38.9L118.6,38.7Z M21.7,67.6L22.2,67.6L22.5,67.9L22.5,68.3L22.3,69.0L22.3,69.6L22.0,70.4L21.8,72.4L21.7,72.8L21.5,74.6L21.4,78.4L21.7,81.7L21.9,82.3L22.0,83.9L22.1,84.6L22.3,84.9L22.4,85.9L22.7,86.7L22.7,87.5L23.0,88.2L22.9,88.6L22.7,88.7L22.1,88.5L21.3,87.8L20.9,87.2L19.9,85.3L17.8,84.7L16.4,83.6L15.6,82.5L15.2,81.7L14.7,80.1L14.5,78.6L14.5,77.5L14.8,75.8L15.5,73.8L16.4,72.0L17.6,70.4L19.2,68.8L19.8,68.5L20.1,68.2Z M65.3,66.5L65.9,66.5L66.2,66.8L66.3,67.0L65.3,72.3L65.1,77.2L65.4,81.4L65.8,83.2L65.8,84.3L66.1,84.8L66.3,86.1L66.6,86.9L66.7,87.6L66.5,87.8L66.1,87.8L65.8,87.7L64.7,86.6L63.5,84.3L63.0,84.1L61.7,83.8L61.5,83.6L61.3,83.6L59.7,82.1L59.0,80.9L58.9,80.4L58.5,79.6L58.3,78.0L58.3,75.7L58.6,74.7L59.4,72.5L60.5,70.4L61.1,69.6L62.8,67.9L63.5,67.5L63.8,67.2Z M56.4,42.9L56.3,43.2L51.3,43.9L51.1,44.1L48.4,44.5L48.0,44.8L47.4,44.8L46.9,45.1L45.7,45.4L41.5,47.0L41.1,47.3L39.9,47.8L38.0,49.0L37.7,49.1L36.5,50.0L35.5,50.5L31.6,53.6L29.7,55.5L27.8,57.7L27.4,58.5L26.5,59.4L26.2,60.1L25.5,61.1L25.1,61.9L24.9,62.2L24.6,62.2L24.3,61.9L24.2,60.2L24.5,58.0L25.2,56.3L26.4,54.0L27.8,52.2L29.1,50.8L30.9,49.3L33.5,47.5L37.5,45.6L38.4,45.4L39.8,44.8L40.5,44.8L42.5,44.1L43.9,43.9L44.4,43.7L50.4,42.9L52.5,42.9L53.7,42.7L55.8,42.7Z M101.1,42.3L100.7,42.6L96.3,43.0L92.2,43.9L90.9,44.4L89.8,44.6L87.7,45.5L86.6,45.8L85.8,46.2L84.6,46.6L83.1,47.4L81.9,48.2L81.1,48.6L80.5,49.1L79.5,49.5L78.6,50.4L77.2,51.3L77.0,51.5L75.4,52.7L72.1,56.2L71.8,56.8L70.4,58.3L68.9,60.9L68.3,61.2L68.1,60.9L68.0,58.8L68.5,56.5L68.9,55.8L69.2,54.9L70.7,52.5L71.7,51.2L73.9,49.1L76.8,46.9L77.5,46.7L79.0,45.7L79.3,45.7L79.7,45.4L80.4,45.2L80.7,45.0L82.2,44.4L82.8,44.1L84.0,43.9L85.7,43.4L88.9,42.7L89.6,42.7L90.0,42.6L93.1,42.2L96.5,41.9L99.7,41.9L101.0,42.1Z" fill="#000" fill-rule="evenodd"/>
</svg>