<svg xmlns="http://www.w3.org/2000/svg" viewBox="0 0 128 128" width="128" height="128">
  <path d="M11.0,96.5L11.1,97.5L11.4,97.8L11.9,97.8L13.2,96.7L14.4,95.9L16.4,95.0L18.0,94.8L19.7,94.8L22.9,95.5L23.4,95.9L24.5,96.2L26.8,97.3L29.4,98.7L29.8,99.1L30.1,99.2L32.9,101.0L34.3,101.8L35.6,102.8L36.3,103.2L37.9,104.5L38.7,104.9L39.8,105.7L41.5,106.8L42.6,107.6L43.4,108.1L46.0,109.9L46.6,110.2L47.5,110.9L47.8,111.0L50.5,112.9L54.2,114.8L55.9,115.6L56.6,115.8L57.0,116.0L60.6,117.2L61.0,117.5L63.3,118.1L64.3,118.2L66.1,118.6L67.8,118.7L69.3,118.9L74.2,119.0L80.4,118.3L82.3,118.0L84.7,117.2L85.8,117.1L87.9,116.3L88.3,116.3L90.3,115.6L90.8,115.3L92.0,114.8L94.3,113.7L95.9,112.5L97.7,111.5L98.9,110.5L99.2,110.5L100.3,109.5L101.1,109.1L104.2,106.5L109.3,101.5L113.4,96.7L113.6,96.1L114.7,94.8L116.5,92.3L117.2,90.9L117.2,90.7L116.8,90.2L115.9,90.1L73.6,90.1L72.7,90.0L62.0,90.1L59.5,89.9L43.6,89.9L40.1,89.7L31.4,89.7L29.4,89.5L22.3,89.5L20.1,89.4L12.5,89.5L11.4,89.7L11.0,90.2Z M93.9,93.2L96.1,93.2L96.7,93.4L98.0,94.1L99.1,94.9L99.7,95.7L100.3,96.9L100.5,97.7L100.5,99.7L100.2,100.9L99.2,102.4L98.2,103.3L97.2,103.9L96.1,104.2L94.0,104.0L91.9,102.9L90.7,101.6L90.1,100.1L90.0,97.5L90.2,96.4L90.9,95.2L91.8,94.3L92.6,93.7Z M70.3,9.8L69.8,9.7L68.6,11.3L66.4,13.7L64.5,16.3L63.1,17.8L61.9,19.6L60.8,20.6L60.1,21.7L58.8,23.1L58.1,24.1L56.2,26.3L53.8,29.5L52.2,31.3L51.1,32.6L51.1,32.8L43.2,42.6L42.4,43.8L41.4,45.0L41.1,45.5L40.7,45.8L39.4,47.5L39.2,47.9L37.9,49.3L36.0,51.8L35.5,52.3L34.3,54.0L33.6,54.6L32.4,56.4L30.1,59.1L27.8,62.1L26.5,63.7L26.5,63.8L25.8,64.8L24.7,65.8L23.5,67.5L20.2,71.6L19.7,72.5L19.0,73.2L18.1,74.5L17.6,74.9L15.1,78.2L14.3,79.2L12.3,81.8L12.3,82.5L12.7,82.8L13.3,82.9L15.7,82.8L21.1,82.9L25.6,82.8L42.9,82.8L43.7,82.6L49.2,82.5L50.5,82.8L52.5,82.7L56.3,82.9L60.7,82.8L65.8,82.9L67.1,82.7L69.6,82.7L69.9,82.4L70.1,81.9L70.1,70.8L70.3,53.0L70.3,27.1L70.4,26.2L70.3,24.3L70.5,19.7L70.5,13.1Z M77.1,9.3L76.9,9.5L76.9,15.3L77.0,17.7L77.0,32.2L76.9,34.5L76.9,40.7L76.7,45.1L76.7,50.8L76.9,54.3L76.7,59.0L76.6,78.7L76.9,82.4L77.2,82.8L78.0,82.9L84.9,82.9L86.3,83.1L108.6,83.1L110.2,82.9L112.4,83.1L115.7,82.9L116.5,82.1L117.0,81.9L117.1,81.3L116.9,80.9L115.9,79.4L113.3,74.2L112.9,73.7L112.4,72.7L111.3,70.9L110.0,68.3L108.8,66.4L108.1,64.9L107.4,63.7L106.4,61.6L105.5,60.2L105.3,59.6L103.3,56.1L102.9,55.3L102.7,55.0L102.3,54.1L101.4,52.7L99.1,48.2L97.3,45.2L96.0,42.3L95.4,41.5L94.5,39.7L94.3,39.5L92.1,35.6L92.0,35.3L91.3,34.3L91.2,33.7L89.9,31.4L89.5,30.4L88.1,28.2L87.7,27.1L86.9,26.0L85.7,23.6L84.5,21.8L83.9,20.5L82.6,18.4L82.0,17.1L81.7,16.8L80.5,14.7L79.7,13.0L77.9,10.1L77.5,9.3Z" fill="#000" fill-rule="evenodd"/>
</svg>