<svg xmlns="http://www.w3.org/2000/svg" viewBox="0 0 128 128" width="128" height="128">
  <path d="M94.9,9.2L94.8,9.2L94.2,9.8L93.9,10.6L93.0,12.2L92.7,12.5L91.8,14.0L89.0,17.6L87.5,19.1L84.8,21.4L81.2,24.0L80.2,24.5L79.9,24.8L79.5,24.9L78.4,25.4L78.2,25.6L77.6,25.8L77.1,26.1L72.9,27.6L69.4,28.4L64.2,29.0L60.2,28.8L59.8,28.7L58.5,28.6L55.3,27.8L54.5,27.8L54.2,27.5L53.3,27.4L51.0,26.5L49.5,25.8L49.3,25.8L46.5,24.3L42.9,21.8L40.9,20.2L38.9,18.2L36.7,15.4L36.0,14.3L35.6,13.9L34.6,12.2L33.9,10.9L33.8,10.3L33.5,10.0L33.2,10.0L33.2,10.3L33.2,13.8L33.5,16.4L34.2,20.0L34.6,21.0L34.7,21.5L36.0,24.9L37.6,27.8L39.0,30.0L41.0,32.4L42.8,34.3L44.7,36.0L48.2,38.4L50.9,39.9L52.3,40.4L53.5,41.0L54.7,41.2L55.9,41.8L56.4,41.8L58.0,42.2L61.5,42.7L62.3,42.7L62.7,42.8L62.8,43.1L62.2,43.9L58.9,47.2L55.3,52.1L54.4,53.7L53.9,54.2L53.0,56.1L52.2,57.3L50.5,60.9L48.8,65.7L47.8,69.1L47.6,70.7L47.4,71.1L47.2,72.6L46.8,74.5L46.8,76.2L46.5,77.8L46.5,82.2L46.8,87.4L47.4,90.8L48.8,96.7L50.6,101.8L53.1,106.8L53.7,107.6L54.3,108.8L55.3,110.1L55.3,110.2L56.6,112.0L58.2,113.9L60.8,116.7L62.7,118.4L63.7,119.2L64.3,119.2L64.6,119.0L67.1,116.6L71.0,111.9L72.2,110.1L73.0,109.0L73.9,107.3L74.3,106.9L75.2,105.0L75.7,104.4L77.9,99.6L79.5,95.0L79.6,94.4L79.9,93.3L81.2,87.3L81.5,83.0L81.5,78.3L81.2,73.6L79.9,67.5L79.6,66.8L79.4,65.8L79.2,65.4L79.1,64.9L78.7,64.1L78.1,62.2L77.9,61.9L77.2,60.1L76.0,57.6L75.6,57.0L75.4,56.4L73.9,53.8L73.6,53.5L72.3,51.3L70.7,49.2L70.2,48.4L66.5,44.3L65.2,43.1L65.2,42.9L65.6,42.7L67.7,42.5L69.7,42.1L70.6,42.0L71.3,41.7L71.6,41.7L72.5,41.4L73.1,41.3L75.0,40.6L75.4,40.3L76.2,40.1L78.9,38.8L80.8,37.6L82.8,36.0L83.2,35.9L84.8,34.5L87.5,31.6L90.0,28.4L91.2,26.4L92.4,24.0L93.7,20.7L93.8,20.0L94.3,18.3L94.8,15.5L94.9,15.1L94.9,14.0L95.1,12.9L95.1,9.5Z M57.0,95.1L58.6,95.1L59.9,95.6L61.4,96.9L61.9,97.8L62.2,98.8L62.2,100.5L61.8,101.7L61.3,102.5L60.7,103.2L60.0,103.7L58.4,104.3L56.7,104.3L56.0,104.2L54.8,103.6L53.7,102.4L53.3,101.8L52.9,100.7L52.9,99.2L53.2,98.0L53.5,97.4L54.2,96.5L55.1,95.8L56.0,95.3Z M64.9,49.8L65.7,50.6L68.7,54.2L68.8,54.6L70.1,56.4L71.0,58.2L71.5,58.8L71.8,59.6L72.1,59.9L73.0,62.1L73.4,62.7L73.4,63.0L74.3,65.1L75.5,69.2L76.4,73.2L76.9,78.0L76.9,82.6L76.7,85.1L76.4,86.9L76.4,88.1L76.1,88.8L76.1,89.6L75.1,93.7L73.5,98.3L71.8,101.8L71.0,103.3L70.7,103.7L69.6,105.9L69.2,106.2L68.0,108.2L66.4,110.2L64.9,111.9L64.4,112.0L64.1,111.7L64.1,86.6L64.3,69.6L64.2,66.2L64.3,55.7L64.3,50.9L64.3,50.0L64.6,49.8Z" fill="#000" fill-rule="evenodd"/>
</svg>