<svg xmlns="http://www.w3.org/2000/svg" viewBox="0 0 128 128" width="128" height="128">
  <path d="M57.3,63.5L55.6,63.3L52.5,63.3L52.0,63.4L49.7,63.7L47.9,64.1L45.6,64.9L43.8,65.6L41.6,66.8L40.6,67.5L40.1,67.7L38.5,69.0L38.0,69.3L34.9,72.6L33.6,74.3L33.2,75.1L32.8,75.6L31.8,77.5L30.8,79.9L30.5,80.3L29.6,80.2L28.9,79.7L27.6,79.2L25.7,78.9L22.6,79.1L20.9,79.8L20.7,80.1L20.9,80.6L22.2,82.7L22.8,83.4L22.9,83.8L23.4,84.2L24.7,86.1L25.2,86.6L25.8,86.8L26.1,87.1L26.0,88.1L26.8,89.8L27.8,92.3L28.5,93.7L28.9,94.1L29.5,94.0L31.3,92.2L32.0,91.1L32.8,89.3L33.2,87.5L33.3,86.5L33.6,86.0L34.4,85.9L36.6,86.2L40.5,86.2L41.0,86.1L43.0,85.9L47.1,84.7L49.8,83.4L50.7,83.0L52.9,81.6L53.4,81.1L54.2,80.6L55.8,79.1L57.8,77.1L59.3,75.2L60.3,73.5L61.6,70.8L61.8,69.6L61.4,69.3L59.6,69.3L58.6,68.9L57.8,68.9L57.0,68.2L57.0,66.7L57.4,64.3L57.4,63.7Z M55.9,71.7L56.4,71.7L57.1,72.1L57.3,72.4L57.3,73.3L56.9,73.8L56.2,74.1L55.5,74.0L54.9,73.2L55.0,72.3L55.4,72.0Z M68.5,63.5L68.3,63.8L68.3,64.1L68.4,64.2L69.5,67.8L69.5,68.3L68.7,68.8L67.5,69.1L65.4,69.4L65.0,69.8L65.0,70.3L65.4,71.6L66.5,74.0L68.3,76.7L69.9,78.4L69.9,78.7L72.7,81.3L75.3,83.1L76.5,83.7L76.8,83.9L80.1,85.4L81.2,85.7L82.0,86.0L82.8,86.1L83.8,86.5L86.7,86.9L89.8,86.9L91.5,86.7L92.2,86.5L93.4,86.6L93.7,86.9L93.7,87.4L93.9,88.1L93.9,88.9L94.3,90.2L95.3,92.0L96.4,93.4L97.7,94.7L98.5,94.7L100.3,91.1L100.3,90.8L101.2,88.9L101.2,88.0L100.8,87.4L100.8,87.1L101.0,86.9L102.3,86.6L103.3,85.6L106.7,81.6L106.8,81.0L106.2,80.4L105.5,80.3L105.1,80.0L102.5,79.5L100.9,79.6L98.5,80.1L97.9,80.4L97.2,80.3L96.8,79.9L96.0,77.8L95.3,76.3L94.7,75.6L94.1,74.4L93.7,74.0L93.0,72.8L92.0,71.9L91.7,71.3L91.0,70.5L87.1,67.3L82.8,65.0L81.1,64.4L80.4,64.1L78.9,63.7L77.4,63.5L76.8,63.2L71.1,63.0L69.5,63.2Z M73.7,65.9L74.5,65.9L75.0,66.5L75.1,66.7L75.0,67.7L74.4,68.3L73.6,68.3L73.2,68.1L72.9,67.7L72.9,66.8L73.1,66.4Z M71.2,18.0L70.0,18.0L68.7,18.3L67.7,18.3L65.0,18.8L64.6,19.0L63.7,20.0L63.4,19.9L62.9,19.2L62.3,18.8L59.3,18.6L56.7,18.2L55.8,18.3L55.6,18.7L55.8,20.1L56.8,22.8L58.3,24.8L59.9,26.2L59.9,26.6L59.4,27.5L57.9,29.3L56.0,32.9L55.8,33.5L55.4,34.1L55.3,34.8L55.0,35.4L55.0,35.7L54.6,36.6L53.7,40.8L53.7,47.4L54.2,50.5L55.4,53.9L57.0,57.2L58.8,59.9L59.1,60.1L59.4,60.1L59.8,59.9L62.5,57.5L62.8,57.3L63.2,57.3L64.2,57.9L66.1,60.1L66.3,60.3L66.9,60.3L67.9,59.1L68.4,58.1L69.0,57.5L69.6,56.3L70.0,55.8L71.0,53.8L71.8,51.5L72.8,47.4L73.0,45.0L73.0,41.9L72.9,39.5L72.5,38.3L72.2,36.5L70.9,32.9L69.2,29.7L67.4,27.2L67.5,26.6L68.8,25.2L69.8,24.0L70.5,22.9L70.9,22.0L71.7,19.3L71.6,18.3Z M66.2,52.6L67.2,52.5L67.8,52.9L67.9,53.2L67.9,54.0L67.4,54.6L66.4,54.7L65.9,54.2L65.7,53.9L65.7,53.3L65.9,52.9Z M62.0,9.1L58.5,9.5L56.6,9.6L54.7,10.0L54.1,10.0L52.7,10.5L52.3,10.5L50.3,10.9L49.5,11.3L48.9,11.3L47.4,12.0L46.9,12.1L46.4,12.4L45.6,12.5L45.2,12.8L44.4,13.0L44.0,13.3L42.7,13.7L41.7,14.3L40.1,15.0L37.8,16.3L37.0,16.9L36.5,17.1L32.8,19.5L30.4,21.3L24.8,26.6L20.5,31.9L19.6,33.3L19.1,33.8L18.6,34.8L16.5,38.1L16.3,38.7L15.3,40.5L14.6,42.0L14.2,43.2L13.9,43.7L13.9,43.9L13.6,44.2L13.0,46.1L12.9,46.8L12.5,47.4L12.4,47.9L12.1,48.5L12.0,49.3L11.9,49.5L11.5,51.2L11.1,52.4L11.1,52.8L10.8,53.7L10.7,54.8L10.3,57.1L10.3,58.3L10.1,59.0L9.9,62.4L9.9,68.5L10.3,73.5L10.7,74.6L10.8,75.9L11.1,76.7L11.2,77.5L11.5,78.2L11.7,79.5L13.4,84.6L13.8,85.3L13.9,85.8L14.2,86.2L14.3,86.8L14.7,87.3L14.7,87.7L15.0,88.2L15.7,89.9L16.0,90.3L17.0,92.4L17.8,93.3L17.9,93.8L18.9,95.3L21.9,99.4L25.2,103.1L28.7,106.3L30.1,107.3L31.5,108.6L36.4,111.8L37.0,112.0L38.0,112.7L38.5,112.8L40.0,113.7L40.9,114.0L43.4,115.2L43.7,115.2L44.3,115.5L45.2,115.8L47.5,116.7L48.3,116.8L48.9,117.1L50.0,117.3L50.5,117.5L50.9,117.5L52.3,117.9L57.3,118.8L59.2,118.9L59.7,119.0L62.4,119.1L67.1,119.0L71.3,118.6L72.9,118.2L76.0,117.7L77.3,117.2L78.9,116.9L79.6,116.6L81.4,116.1L82.1,115.7L83.2,115.5L86.5,114.0L89.2,112.6L89.5,112.4L91.1,111.6L96.0,108.4L98.0,106.6L98.9,106.0L100.4,104.5L100.7,104.5L104.3,100.7L107.8,96.4L107.9,96.0L109.4,94.0L110.9,91.5L111.3,91.0L113.9,85.7L115.7,80.7L117.1,75.8L118.0,70.1L118.0,69.0L118.2,68.5L118.4,65.6L118.3,59.9L118.0,56.6L117.8,55.6L117.6,53.2L117.4,52.9L117.2,51.3L116.7,49.9L116.6,49.2L116.3,48.5L116.1,47.5L115.4,45.7L115.2,44.7L114.3,43.0L113.8,41.6L112.1,38.1L111.4,37.2L110.9,35.9L110.5,35.5L110.3,35.0L109.7,34.2L109.6,33.9L109.2,33.5L108.7,32.5L107.8,31.2L106.3,29.5L105.5,28.2L101.4,23.9L96.9,20.0L91.4,16.3L90.2,15.7L89.8,15.6L88.9,14.9L88.5,14.8L85.2,13.2L83.9,12.8L82.5,12.1L77.3,10.5L73.1,9.8L67.1,9.1Z M64.8,10.1L69.6,10.5L74.0,11.1L74.6,11.3L75.4,11.4L77.0,11.9L78.4,12.1L80.1,12.8L80.7,12.9L81.5,13.3L83.7,14.0L84.4,14.4L85.2,14.6L87.1,15.6L88.0,16.0L88.7,16.4L89.6,16.8L89.7,17.0L90.3,17.2L90.6,17.5L91.4,17.8L94.5,19.9L99.5,23.9L102.8,27.2L104.6,29.3L106.5,32.0L107.0,32.5L108.2,34.1L108.9,35.5L109.3,35.9L111.8,40.6L114.0,45.6L115.3,49.7L116.5,54.8L117.0,59.6L117.1,66.2L116.9,69.6L116.6,70.9L116.5,72.8L115.9,75.0L115.8,75.8L115.3,77.1L115.1,78.4L114.5,80.3L114.3,81.1L113.9,81.8L113.7,82.9L113.3,83.4L113.0,84.7L112.6,85.4L112.0,86.9L111.7,87.4L111.6,87.8L111.2,88.4L111.1,88.8L110.3,90.1L110.2,90.6L109.0,92.4L108.9,92.8L108.0,93.9L107.4,95.0L105.9,96.7L105.7,97.2L102.3,101.2L99.2,104.1L94.9,107.8L92.2,109.6L91.8,109.9L90.5,110.6L89.6,111.2L89.2,111.3L88.4,111.9L87.5,112.3L87.1,112.6L86.7,112.7L86.0,113.1L82.7,114.6L80.5,115.2L80.1,115.5L78.2,116.1L76.9,116.3L75.4,116.8L73.2,117.1L72.4,117.5L71.4,117.5L70.4,117.8L69.5,117.8L68.9,117.9L66.6,118.1L64.2,118.1L63.2,118.2L58.3,117.9L52.6,117.1L47.6,115.7L44.4,114.6L44.0,114.3L43.7,114.3L42.5,113.7L42.2,113.7L40.5,112.8L38.9,112.1L38.9,112.0L38.2,111.7L38.0,111.5L37.4,111.3L35.8,110.4L31.6,107.3L31.5,107.3L30.6,106.5L29.6,105.8L27.5,103.9L24.9,101.4L21.1,96.7L18.9,93.6L18.8,93.2L18.5,92.9L18.4,92.6L17.6,91.5L17.4,91.0L17.1,90.6L17.0,90.2L16.7,89.9L16.6,89.4L16.2,88.9L15.6,87.3L15.4,87.0L14.8,85.3L14.5,84.8L14.4,84.2L14.0,83.5L13.9,83.0L13.5,82.2L13.5,81.5L12.8,79.9L12.5,78.4L12.2,77.9L12.2,77.3L11.8,75.8L10.9,70.3L10.7,63.7L10.9,62.5L10.9,60.3L11.1,59.7L11.4,56.0L11.7,55.0L11.8,53.8L12.2,52.8L12.3,51.8L12.6,51.1L13.5,47.2L13.8,46.8L14.0,45.8L14.4,45.0L15.0,43.4L15.1,43.2L15.3,42.6L17.2,38.7L17.4,38.5L17.5,38.2L19.0,35.9L21.3,32.7L21.4,32.3L25.3,27.6L29.5,23.5L29.8,23.4L33.6,20.3L38.2,17.2L40.4,16.2L42.7,14.9L44.1,14.5L44.8,14.0L47.3,13.0L48.4,12.8L49.1,12.5L50.7,12.1L50.9,11.9L54.2,11.3L54.4,11.1L56.6,10.9L57.1,10.6L61.2,10.2Z" fill="#000" fill-rule="evenodd"/>
</svg>