<svg xmlns="http://www.w3.org/2000/svg" viewBox="0 0 128 128" width="128" height="128">
  <path d="M50.7,100.3L50.8,100.9L51.9,101.8L54.5,103.5L58.4,104.9L61.1,105.3L63.5,105.1L65.6,104.7L68.5,103.7L69.2,103.2L70.5,102.6L71.0,102.5L72.4,101.5L73.6,100.5L73.6,100.1L72.3,99.0L70.4,97.8L69.2,97.3L68.9,97.1L66.6,96.1L63.0,95.5L59.5,95.5L58.8,95.8L57.9,95.9L55.8,96.6L53.2,98.1L52.1,98.9Z M55.2,99.4L56.1,99.3L56.9,100.0L56.8,101.0L56.4,101.5L56.1,101.7L55.1,101.5L54.6,100.9L54.6,100.2Z M96.9,107.2L96.7,106.8L91.4,101.4L90.8,100.7L85.4,95.1L84.8,94.4L77.2,86.8L76.8,86.3L72.1,81.5L71.7,81.0L65.4,74.8L64.7,73.9L64.1,73.9L58.9,78.9L53.5,84.4L48.0,90.2L45.6,92.5L44.4,93.9L42.6,95.6L42.1,96.4L39.8,98.6L31.6,107.1L31.4,107.7L31.9,108.2L33.7,109.6L35.0,110.4L35.9,111.1L37.0,111.6L38.2,112.5L40.3,113.5L41.1,113.8L41.4,114.0L46.0,115.7L46.6,116.1L48.9,116.6L51.2,117.5L52.6,117.6L53.2,117.9L54.8,118.0L56.8,118.5L58.4,118.6L59.5,118.8L61.8,118.8L62.3,119.0L69.4,118.8L70.3,118.5L71.8,118.4L73.4,118.1L75.1,117.9L78.5,117.1L79.5,116.7L81.1,116.3L82.4,115.7L83.2,115.6L84.0,115.2L85.4,114.7L86.8,113.9L87.4,113.8L89.3,112.6L89.7,112.5L90.3,112.1L90.8,111.9L91.2,111.6L92.3,111.0L93.4,110.2L94.3,109.7L94.8,109.3L95.6,108.8L96.8,107.7Z M48.1,100.0L48.5,99.5L50.2,97.7L52.8,95.9L56.3,94.1L59.1,93.5L60.4,93.3L62.5,93.3L66.0,93.9L69.9,95.4L71.6,96.2L73.6,97.6L74.2,97.9L74.9,98.5L75.5,98.7L75.9,98.7L76.4,98.5L79.7,95.5L80.2,95.4L80.5,95.8L80.5,96.7L80.3,97.5L79.9,98.1L77.8,100.0L77.7,100.3L77.7,100.6L77.9,101.0L80.0,103.0L80.4,103.6L80.4,105.3L80.2,105.7L79.8,105.7L76.1,102.1L75.3,102.0L71.4,104.6L69.6,105.5L67.1,106.5L66.5,106.6L65.5,107.0L64.3,107.1L63.3,107.3L59.5,107.2L56.4,106.5L54.5,105.8L52.3,104.6L49.6,102.7L48.2,101.2L48.0,100.9Z M16.1,63.9L16.1,64.5L17.5,65.8L20.2,67.4L23.2,68.5L24.7,68.8L25.5,69.0L29.9,68.9L31.1,68.4L32.4,68.0L33.9,67.5L36.4,66.2L38.9,64.3L38.9,63.7L38.3,63.1L36.8,62.1L35.9,61.6L35.7,61.3L31.7,59.8L29.8,59.3L28.3,59.1L25.2,59.1L21.6,60.0L19.1,61.3L17.4,62.6Z M20.6,63.1L21.6,63.1L22.0,63.2L22.4,63.8L22.4,64.4L22.2,64.8L21.5,65.3L20.8,65.3L20.5,65.2L20.1,64.6L20.0,63.6Z M84.2,64.0L84.4,64.4L84.9,65.1L86.9,66.5L88.5,67.4L91.2,68.4L92.5,68.5L93.1,68.8L94.8,68.9L97.9,68.8L100.6,68.0L104.0,66.6L106.2,65.1L107.2,64.2L107.0,63.6L105.1,62.2L103.8,61.4L103.2,61.3L101.4,60.3L98.1,59.3L96.6,59.1L93.8,59.1L91.8,59.3L89.9,59.9L89.6,60.1L88.1,60.7L86.3,61.8L84.5,63.4Z M88.8,62.9L89.2,62.8L89.8,63.1L90.3,63.8L90.3,64.6L89.7,65.2L88.7,65.2L88.0,64.4L88.1,63.4Z M106.9,30.7L106.5,30.9L104.5,32.8L98.7,38.8L95.4,42.0L95.1,42.4L74.5,63.1L74.1,63.9L74.1,64.2L76.7,67.0L84.2,74.5L84.6,75.1L88.0,78.5L88.2,78.8L89.0,79.6L90.0,80.7L90.3,80.8L98.8,89.6L98.9,89.9L100.1,91.0L101.5,92.7L106.4,97.4L106.9,97.4L107.3,97.1L108.3,95.8L109.2,94.4L109.8,93.7L110.9,91.6L111.8,90.2L112.2,89.2L112.8,88.2L114.4,84.7L114.5,84.3L114.7,84.0L116.8,77.2L116.9,76.2L117.5,73.9L117.6,72.7L117.9,71.6L118.3,66.9L118.3,60.9L118.1,59.2L118.1,58.2L117.5,54.1L116.8,51.1L116.7,50.1L116.2,48.4L115.8,47.4L115.1,45.1L113.8,41.9L113.8,41.6L112.3,38.7L110.9,36.2L110.3,35.0L108.9,32.8L108.2,32.0L107.8,31.4L107.3,30.8Z M81.7,63.8L82.2,62.8L83.2,61.7L86.4,59.3L88.7,58.3L89.0,58.1L90.3,57.7L91.3,57.6L92.7,57.2L95.7,57.1L98.1,57.4L100.4,58.0L102.0,58.7L102.5,58.8L104.5,59.8L104.9,59.9L106.3,60.9L107.8,61.7L108.9,62.6L109.6,62.6L110.2,62.2L112.8,59.9L113.5,59.6L113.9,60.0L113.9,61.1L113.7,61.6L111.1,64.1L111.1,64.4L111.4,64.9L113.2,66.6L113.7,67.2L113.8,67.8L113.8,69.1L113.7,69.4L113.4,69.5L113.2,69.4L110.6,66.7L109.6,65.9L109.0,65.8L108.2,66.2L107.1,67.1L105.6,67.9L105.1,68.3L102.1,69.7L100.2,70.3L98.7,70.6L97.9,70.8L97.0,70.8L96.2,71.0L93.9,70.9L93.4,70.7L92.1,70.7L90.9,70.3L90.2,70.2L88.5,69.6L88.2,69.4L87.4,69.1L85.4,67.9L83.8,66.7L82.7,65.7L81.8,64.6Z M21.9,30.5L21.5,30.5L21.0,30.9L19.7,32.6L18.8,34.2L18.0,35.1L17.8,35.7L17.1,36.6L16.0,38.9L15.6,39.5L13.0,45.6L12.9,46.4L12.6,46.8L12.1,48.6L12.0,49.2L11.2,52.1L11.1,53.2L10.7,54.8L10.3,57.2L9.8,62.7L9.9,67.2L10.1,68.0L10.3,71.7L11.2,76.8L12.5,81.3L13.7,84.7L13.9,85.0L14.3,86.2L15.3,88.1L15.6,88.8L15.8,89.1L17.3,92.0L17.5,92.3L19.0,94.9L20.6,97.0L21.1,97.4L21.5,97.4L22.4,96.8L29.2,89.7L31.4,87.5L33.2,85.5L35.1,83.8L35.4,83.4L43.1,75.7L44.0,74.6L45.2,73.5L45.3,73.2L54.3,64.0L54.3,63.5L52.9,61.9L39.4,48.3L38.0,46.7L35.9,44.7L35.3,44.0Z M13.4,64.0L14.0,63.0L15.4,61.5L18.5,59.1L19.6,58.6L21.3,57.9L23.3,57.3L26.0,57.0L27.8,57.0L29.9,57.2L30.5,57.4L32.3,57.7L33.5,58.1L36.2,59.3L37.9,60.3L40.4,62.0L40.9,62.2L41.4,62.2L41.9,62.0L45.3,59.1L45.6,59.0L45.9,59.3L45.8,60.8L45.5,61.6L43.1,63.9L43.2,64.3L45.4,66.6L45.9,67.4L45.9,68.8L45.8,69.1L45.4,69.2L45.0,68.9L41.8,65.9L41.4,65.8L40.9,65.8L36.1,68.7L33.1,70.1L32.3,70.3L31.5,70.6L30.2,70.7L29.6,71.0L27.1,71.2L24.4,71.0L23.1,70.7L21.1,70.1L19.7,69.4L19.3,69.3L17.8,68.5L16.1,67.2L14.4,65.8L13.6,64.8Z M50.7,27.4L50.7,28.0L53.4,30.2L54.0,30.3L55.6,31.2L57.8,32.1L60.9,32.5L65.1,32.4L66.7,31.7L67.2,31.6L68.4,31.2L70.9,29.8L73.6,27.8L73.6,27.4L73.3,27.0L70.3,24.9L66.5,23.2L65.0,22.8L63.0,22.5L60.8,22.5L60.1,22.6L59.3,22.6L56.1,23.5L53.4,24.9L51.9,26.1L51.0,27.0Z M55.2,26.6L56.0,26.5L56.3,26.7L56.7,27.1L56.9,27.9L56.3,28.7L55.3,28.8L54.7,28.2L54.7,27.0Z M32.0,19.9L31.6,20.4L31.6,20.9L32.2,21.4L32.7,22.1L35.4,24.7L35.9,25.3L38.6,28.0L39.5,29.1L55.1,44.8L55.4,45.3L57.2,47.0L58.4,48.3L58.8,48.6L63.1,53.1L63.9,53.7L64.7,53.7L65.5,53.0L69.6,48.8L69.8,48.7L72.7,45.6L76.4,42.0L79.2,39.0L79.6,38.8L82.0,36.2L83.6,34.9L84.0,34.3L95.7,22.4L96.1,21.8L96.9,21.2L97.0,20.8L97.0,20.4L95.7,19.1L94.9,18.7L94.3,18.2L92.7,17.3L91.7,16.6L91.3,16.5L91.0,16.2L90.5,16.0L89.4,15.3L86.0,13.6L84.9,13.2L83.4,12.5L79.8,11.3L76.0,10.2L74.9,10.1L73.5,9.7L71.7,9.6L70.5,9.4L66.1,9.2L61.4,9.2L59.7,9.4L57.8,9.5L57.5,9.6L55.5,9.8L53.1,10.2L52.1,10.5L50.8,10.7L48.7,11.4L48.3,11.4L42.9,13.5L42.1,14.0L40.9,14.4L40.7,14.6L39.1,15.3L38.9,15.5L38.1,15.9L36.5,16.9L36.2,17.0L35.7,17.4L34.1,18.3Z M48.1,27.4L48.5,26.6L49.7,25.3L51.6,23.5L53.1,22.6L55.9,21.4L57.1,21.1L58.0,21.0L59.7,20.5L64.0,20.5L65.4,20.8L66.1,21.2L67.8,21.5L70.2,22.6L71.4,23.4L72.0,23.5L74.9,25.7L75.5,25.9L75.9,25.9L76.7,25.6L78.7,23.5L79.6,22.7L80.1,22.6L80.4,22.9L80.3,24.6L79.3,25.8L77.6,27.2L77.5,27.9L80.1,30.7L80.4,31.6L80.4,32.9L80.2,33.2L79.5,33.0L76.4,29.7L75.7,29.3L75.4,29.3L74.6,29.7L72.9,31.0L72.6,31.1L70.5,32.4L68.7,33.3L66.0,34.2L63.8,34.5L60.8,34.6L58.9,34.3L57.1,33.9L55.2,33.3L51.9,31.5L50.1,30.1L48.9,28.9L48.2,28.0Z" fill="#000" fill-rule="evenodd"/>
</svg>