<svg xmlns="http://www.w3.org/2000/svg" viewBox="0 0 128 128" width="128" height="128">
  <path d="M50.7,93.5L50.9,94.0L52.2,95.2L54.5,96.3L54.8,96.6L56.3,97.0L58.8,97.5L62.6,97.5L64.1,97.4L65.5,97.0L66.4,96.9L67.2,96.5L67.9,96.4L69.8,95.7L71.9,94.6L72.9,94.6L74.2,95.2L74.7,95.3L75.1,95.6L75.7,95.7L76.8,96.2L77.3,96.2L77.5,96.0L77.5,95.6L76.8,94.3L76.6,94.0L76.3,93.3L76.4,92.5L76.7,92.0L76.8,91.2L77.3,90.2L77.3,89.5L77.1,89.2L76.6,89.2L74.5,90.2L74.2,90.2L72.6,91.1L71.9,91.1L68.2,89.7L66.2,89.3L63.6,88.9L60.2,88.9L57.4,89.5L57.3,89.7L56.4,89.8L54.8,90.6L54.5,90.6L51.0,93.0Z M54.7,92.4L54.8,92.3L55.4,92.3L55.6,92.4L55.7,92.7L55.6,92.9L55.2,92.9L54.9,92.7Z M57.6,91.9L57.6,90.6L57.7,90.4L58.2,89.9L59.5,89.5L61.0,89.4L61.6,89.3L63.9,89.3L66.4,89.7L70.5,91.0L71.8,91.6L72.5,91.6L73.0,91.5L74.1,90.7L74.6,90.6L76.0,90.0L76.4,90.0L76.7,90.2L76.6,90.9L76.4,91.1L76.4,91.6L76.0,92.4L75.5,93.0L74.9,93.2L69.2,93.5L68.0,93.4L67.0,93.6L62.8,93.6L60.4,93.8L58.8,93.8L58.2,93.7L57.9,93.4Z M22.5,64.9L22.5,65.3L22.8,65.7L23.8,66.6L25.4,67.5L27.8,68.5L29.1,68.9L30.7,69.1L34.8,69.1L38.3,68.6L39.0,68.3L39.3,68.3L41.1,67.7L43.0,66.8L43.4,66.5L44.0,66.3L44.7,66.3L45.3,66.5L47.1,67.3L47.6,67.4L47.9,67.6L48.5,67.9L49.3,67.9L49.4,67.7L49.2,67.0L48.3,65.1L48.3,64.4L48.8,63.5L48.9,62.4L49.2,61.6L49.2,61.0L49.1,60.8L48.5,60.8L48.1,61.1L46.9,61.5L44.6,62.7L43.5,62.7L43.1,62.4L42.3,62.3L41.7,61.9L38.5,60.9L36.8,60.6L34.3,60.3L32.8,60.3L30.4,60.6L30.2,60.8L28.2,61.2L25.6,62.4L23.6,63.7L22.7,64.5Z M26.3,63.9L26.5,63.6L27.1,63.6L27.4,64.0L27.4,64.1L27.2,64.5L26.6,64.6L26.2,64.2Z M29.4,64.3L29.4,62.7L29.6,61.8L30.2,61.4L31.2,61.0L31.9,61.0L32.5,60.9L35.5,60.9L37.7,61.2L41.1,62.1L41.5,62.3L41.9,62.4L42.3,62.7L42.9,62.8L43.6,63.2L44.8,63.1L47.7,61.7L48.2,61.6L48.7,61.9L48.5,63.1L47.8,64.4L47.3,64.8L46.6,64.9L38.4,65.0L37.6,65.2L35.1,65.1L31.6,65.3L30.1,65.1L29.5,64.5Z M77.3,63.9L77.3,64.3L77.9,65.0L79.7,66.2L80.1,66.3L80.5,66.6L82.2,67.4L85.3,68.1L88.7,68.2L92.3,67.7L93.2,67.4L94.3,67.2L95.0,66.9L95.5,66.8L97.3,66.0L98.6,65.3L99.8,65.3L100.9,65.9L101.4,66.0L101.9,66.3L102.6,66.5L103.1,66.8L103.9,66.9L104.1,66.8L104.1,66.3L103.8,65.5L103.2,64.4L103.1,63.5L103.3,63.1L103.5,62.4L103.8,61.8L104.1,60.1L104.0,59.8L103.5,59.7L101.1,60.9L100.3,61.1L100.1,61.4L99.2,61.8L98.8,61.8L98.1,61.6L95.6,60.6L91.9,59.6L90.4,59.5L89.9,59.3L88.0,59.3L86.5,59.5L84.4,59.9L83.1,60.4L82.2,60.6L81.8,60.9L81.4,61.0L80.5,61.4L78.8,62.6Z M81.4,62.6L82.0,62.7L82.4,63.1L82.4,63.4L81.8,63.9L81.4,63.8L81.0,63.5L81.0,63.1Z M84.3,63.4L84.3,61.0L84.4,60.7L85.2,60.2L86.3,60.0L89.9,59.8L92.5,60.1L95.5,61.0L96.0,61.3L97.0,61.5L97.7,61.9L98.7,62.3L99.4,62.2L102.7,60.6L103.3,60.7L103.3,61.6L102.9,62.8L102.3,63.6L101.6,63.9L95.6,64.1L85.5,64.3L84.5,64.0L84.4,63.9Z M49.8,34.8L49.8,35.3L50.4,36.0L52.5,37.4L53.7,37.9L56.4,38.8L57.4,39.0L62.6,39.0L64.5,38.7L64.8,38.5L65.8,38.4L66.3,38.2L67.4,37.9L68.3,37.4L68.8,37.4L71.5,36.0L71.9,36.0L73.0,36.5L74.0,36.7L76.2,37.7L76.9,37.6L76.9,37.0L75.8,34.8L75.8,34.0L76.4,32.7L76.7,31.3L76.7,30.7L76.5,30.5L75.8,30.5L74.8,31.1L74.4,31.2L73.2,31.8L73.0,32.0L72.5,32.1L71.9,32.4L70.9,32.4L68.9,31.5L65.1,30.5L63.3,30.2L59.1,30.3L58.7,30.5L57.1,30.7L55.2,31.3L54.8,31.6L54.3,31.7L52.7,32.5L52.4,32.8L51.8,33.1Z M54.0,33.5L54.6,33.6L54.9,34.0L54.8,34.4L54.3,34.8L54.0,34.8L53.7,34.4L53.7,33.9Z M56.9,34.2L56.9,31.7L57.4,31.3L59.2,30.9L63.1,30.8L65.0,31.0L68.2,31.8L70.0,32.5L71.1,33.1L71.8,33.1L72.3,32.9L75.3,31.4L75.8,31.4L76.0,31.8L75.8,32.9L75.4,33.7L74.6,34.5L72.2,34.7L71.5,34.6L68.9,34.8L65.6,34.8L60.4,35.2L58.2,35.2L57.4,35.0L56.9,34.5Z M67.0,9.1L63.2,9.1L61.9,9.3L60.0,9.3L59.0,9.6L56.2,9.8L53.5,10.4L51.8,10.6L50.7,11.0L49.3,11.2L48.7,11.6L46.9,12.1L45.3,12.5L41.2,14.3L40.4,14.8L39.4,15.1L37.6,16.4L35.8,17.2L31.1,20.5L29.8,21.6L29.2,22.0L28.7,22.5L28.2,22.8L23.1,27.8L20.4,31.2L16.5,37.1L14.6,40.7L14.1,42.1L13.3,43.6L13.1,44.5L12.7,45.3L11.5,49.0L10.7,52.0L10.5,52.5L10.4,53.6L10.2,54.3L10.1,55.5L9.8,56.5L9.7,57.9L9.5,59.1L9.5,60.7L9.3,61.4L9.3,66.6L9.6,70.4L10.6,76.4L10.7,76.8L10.7,77.2L11.2,79.1L11.6,80.3L11.7,80.9L12.3,82.9L13.0,84.4L13.0,84.6L14.9,89.0L15.3,89.5L15.7,90.7L16.9,92.7L19.7,97.0L23.4,101.4L25.9,104.1L28.8,106.7L31.6,108.9L32.0,109.0L33.6,110.3L35.4,111.4L38.3,112.9L39.3,113.5L41.1,114.2L41.3,114.5L47.4,116.8L48.4,116.9L49.5,117.3L51.9,117.8L52.8,118.1L54.0,118.2L55.7,118.6L61.0,119.1L64.9,119.1L65.9,118.9L68.4,118.9L68.9,118.7L71.7,118.5L75.3,117.6L76.1,117.6L77.3,117.2L78.1,117.1L81.3,116.0L82.3,115.5L83.1,115.4L83.5,115.1L85.2,114.5L87.8,113.3L92.1,111.0L96.9,107.7L100.7,104.5L103.7,101.7L104.8,100.3L105.5,99.6L108.3,96.2L111.0,92.1L111.8,90.6L112.6,89.3L113.1,88.0L113.7,87.1L115.5,82.8L115.7,81.7L116.5,79.9L117.0,78.2L117.0,77.4L117.4,76.4L118.0,73.0L118.2,72.7L118.3,71.8L118.4,70.4L118.7,69.5L118.9,66.1L118.8,59.9L118.3,54.9L117.9,53.7L117.7,52.0L117.5,51.8L116.8,48.6L115.6,44.7L113.2,39.3L111.0,35.3L107.4,30.1L104.7,26.9L100.4,22.7L97.7,20.5L96.4,19.7L95.1,18.7L90.9,16.1L90.0,15.7L88.7,14.9L86.5,13.9L85.6,13.4L83.2,12.7L81.4,11.8L80.3,11.5L79.2,11.3L78.9,11.2L78.2,11.1L76.8,10.6L75.6,10.4L74.5,10.1L70.2,9.6L68.9,9.3L67.7,9.3Z M92.3,98.7L92.3,99.0L92.1,99.5L90.4,100.9L87.8,102.6L84.8,104.4L83.2,105.1L82.6,105.5L81.8,105.6L80.7,106.3L79.9,106.5L79.3,106.9L78.4,107.0L77.8,107.3L76.9,107.5L75.3,108.1L74.3,108.2L73.2,108.6L71.7,108.8L70.6,109.1L68.9,109.4L67.8,109.4L66.7,109.6L60.7,109.6L59.3,109.4L58.2,109.5L55.7,109.0L55.1,108.7L54.0,108.6L51.3,107.8L50.2,107.7L47.9,106.9L47.4,106.5L46.2,106.3L44.3,105.3L43.2,104.6L41.7,104.1L41.0,103.5L39.4,102.7L38.5,101.9L37.9,101.6L36.8,100.4L36.8,99.8L37.5,98.8L38.9,97.5L39.2,97.0L50.4,85.5L50.5,85.2L54.8,81.0L57.4,78.2L62.2,73.2L64.0,71.6L64.6,71.7L67.2,74.0L83.1,89.6L83.6,90.0L92.1,98.3Z M28.6,37.0L28.9,37.0L29.5,37.4L39.4,47.1L40.4,47.9L44.9,52.5L45.8,53.2L51.9,59.3L53.5,60.7L56.5,63.8L56.9,64.4L56.9,64.9L56.7,65.3L54.9,67.4L53.3,68.9L52.4,70.0L47.5,75.0L47.2,75.4L42.9,79.7L41.6,81.2L39.0,83.7L38.9,84.1L38.0,84.9L37.1,85.9L35.1,87.6L34.8,88.1L32.6,90.3L32.2,90.9L31.6,91.5L29.8,92.9L29.0,92.7L26.3,89.6L25.9,88.7L24.7,87.3L23.4,84.7L23.3,84.3L22.7,83.5L21.3,80.2L21.0,78.8L20.7,78.2L20.6,77.7L20.5,77.4L20.2,76.0L20.0,75.5L19.3,72.2L18.9,67.6L18.9,62.7L19.1,60.0L19.4,58.3L19.6,56.2L19.7,55.9L20.0,54.4L20.2,53.9L20.4,52.6L20.9,51.7L21.1,50.3L22.2,47.2L23.5,44.7L23.9,43.8L24.3,43.3L24.9,41.9L25.2,41.7L25.4,41.0L27.8,37.6Z M98.9,35.8L99.4,35.9L100.2,36.6L101.1,38.2L102.4,39.9L104.2,42.9L105.5,45.6L106.1,47.3L106.5,48.0L107.8,52.0L108.4,54.3L108.5,55.8L108.8,56.3L108.8,57.6L109.2,59.0L109.4,62.3L109.3,67.7L108.8,71.6L108.4,73.0L108.3,73.9L107.9,74.9L107.6,76.4L106.7,79.3L106.2,80.5L106.1,81.0L105.5,82.4L104.0,85.5L103.2,86.6L102.4,88.3L101.5,89.3L101.1,90.0L99.6,91.7L99.0,91.7L93.7,86.6L92.1,85.3L91.7,85.1L91.2,84.3L84.3,77.4L83.7,77.0L78.9,72.1L76.3,69.8L71.6,65.1L71.4,64.7L71.4,64.0L71.5,63.6L73.6,61.4L75.8,59.3L76.7,58.2L81.9,53.0L82.3,52.4L83.9,50.9L84.8,49.8L96.5,37.9Z M91.5,28.1L91.9,28.5L91.9,29.2L77.6,43.9L75.4,46.0L75.0,46.6L72.6,49.0L72.2,49.3L70.9,50.8L69.6,52.0L69.4,52.4L67.4,54.2L66.9,54.9L65.0,56.8L64.3,57.1L63.4,57.0L59.3,53.1L53.8,47.7L53.7,47.4L53.2,46.9L52.5,46.4L46.1,40.0L45.8,39.9L36.4,30.5L36.0,29.8L36.2,29.1L38.9,26.9L40.7,25.9L41.1,25.5L41.5,25.4L42.4,24.8L43.2,24.5L44.7,23.6L44.9,23.6L47.4,22.4L53.0,20.5L54.5,20.3L55.5,20.0L57.9,19.5L61.8,19.1L65.5,19.1L68.5,19.3L71.1,19.8L72.0,19.8L72.4,19.9L73.7,20.0L74.2,20.2L75.8,20.5L76.9,20.9L77.7,21.0L80.2,21.9L80.5,22.1L82.4,22.8L84.4,23.7L88.8,26.2Z" fill="#000" fill-rule="evenodd"/>
</svg>