<svg xmlns="http://www.w3.org/2000/svg" viewBox="0 0 128 128" width="128" height="128">
  <path d="M118.7,116.4L117.6,116.7L114.6,116.8L114.3,117.0L118.4,117.0L118.7,116.7Z M118.4,94.9L118.2,96.4L118.4,98.4Z M118.0,77.9L118.0,86.1L118.1,87.9L118.2,88.6L118.2,93.4L118.4,93.9L118.4,86.8L118.2,86.3L118.2,83.1L118.3,80.9Z M54.9,10.3L56.5,10.4L57.1,10.2Z M9.7,11.0L9.4,11.4L9.4,19.1L9.6,25.4L9.8,74.8L9.8,77.2L10.0,77.7L10.0,78.6L9.8,79.1L9.8,82.2L9.8,112.4L9.9,115.9L9.8,118.0L10.0,118.5L10.4,118.8L21.5,118.8L24.6,118.6L33.2,118.6L34.5,118.4L44.0,118.4L56.2,118.1L64.9,118.1L68.8,117.9L71.1,118.0L72.4,117.8L82.3,117.8L84.8,117.6L94.9,117.6L97.9,117.4L105.6,117.3L107.1,117.1L113.2,117.1L113.3,116.9L106.5,116.9L106.1,116.8L105.6,116.5L104.8,110.5L103.9,106.8L102.5,102.7L100.3,98.5L97.3,94.1L95.2,91.6L91.6,88.2L88.1,85.6L86.1,84.5L85.5,84.0L84.3,83.5L83.5,83.0L82.1,82.5L81.2,81.8L79.2,81.5L78.4,81.0L77.6,80.7L75.7,80.4L72.6,79.4L69.0,79.4L68.3,79.2L67.5,79.4L66.0,79.4L65.3,79.0L64.9,77.7L65.2,74.8L65.5,74.1L65.7,72.7L66.8,69.5L69.3,64.8L72.3,61.2L75.1,58.6L76.7,57.5L78.2,56.7L78.5,56.4L80.1,55.5L80.4,55.5L82.0,54.8L84.2,54.0L85.9,53.7L86.6,53.4L89.4,53.1L92.9,53.1L94.9,53.2L97.4,53.7L100.3,54.6L103.1,55.8L103.3,55.8L103.8,56.2L104.8,56.5L105.9,57.2L109.4,59.8L112.7,63.2L114.3,65.5L116.2,69.1L117.4,72.2L117.8,73.6L117.8,75.7L117.9,76.2L118.1,76.2L118.2,67.1L118.0,66.5L118.0,65.7L117.8,65.3L117.8,65.6L117.5,65.9L117.2,65.9L115.7,63.6L114.1,61.5L110.0,57.5L107.8,55.8L107.4,55.7L106.5,54.9L104.8,54.0L103.9,53.7L103.5,53.4L103.0,53.3L102.1,52.9L101.8,52.9L101.5,52.6L96.6,51.3L91.9,50.8L88.8,50.9L86.3,51.2L83.4,51.8L80.9,52.7L77.2,54.4L76.0,55.2L75.3,55.5L71.5,58.4L69.3,60.8L67.1,63.6L65.8,65.9L64.0,69.6L63.6,69.8L63.2,69.8L63.0,69.6L61.4,66.4L59.0,62.8L56.5,59.9L54.3,57.9L54.1,57.9L51.9,56.3L49.8,55.0L46.6,53.5L41.7,52.1L38.2,51.6L33.9,51.6L32.1,51.8L29.1,52.4L24.7,53.9L22.7,54.8L20.8,56.1L20.6,56.1L16.4,59.4L14.3,61.5L12.5,63.8L11.6,65.3L11.0,66.0L10.5,65.9L10.4,65.7L10.4,64.0L11.5,62.2L13.7,59.7L16.4,57.1L18.2,55.8L18.4,55.5L18.6,55.5L19.8,54.6L22.4,53.1L25.8,51.6L30.4,50.3L34.5,49.8L38.2,49.8L41.8,50.3L44.3,50.9L48.7,52.4L51.7,53.9L54.2,55.5L58.1,58.8L60.7,61.8L62.9,65.1L63.2,65.4L63.7,65.4L64.1,65.0L65.4,62.7L67.1,60.4L69.2,58.1L71.6,55.8L75.0,53.3L75.4,53.2L76.7,52.4L77.4,52.2L77.9,51.8L81.9,50.2L85.3,49.3L89.5,48.8L93.3,48.8L98.3,49.5L99.7,49.9L101.4,50.3L101.5,50.5L102.1,50.6L106.3,52.4L109.6,54.5L111.5,56.0L113.6,57.9L117.3,62.1L117.9,63.5L118.0,59.0L117.7,56.6L117.7,55.5L117.9,55.0L117.9,53.0L117.6,50.8L117.7,47.0L117.6,46.1L117.3,45.3L117.2,45.8L116.9,46.0L116.3,45.9L113.8,44.1L109.2,41.6L105.9,40.3L104.6,40.3L103.8,39.7L100.5,38.7L98.9,38.5L96.8,38.0L90.2,37.7L85.4,38.1L81.7,38.7L80.2,39.1L79.1,39.6L78.3,39.7L76.5,40.4L75.1,40.8L72.4,42.0L72.1,42.3L70.8,42.9L70.1,43.4L69.7,43.5L69.2,44.0L68.5,44.2L68.0,44.8L67.3,45.0L65.1,46.8L63.2,48.2L62.7,48.2L62.1,47.9L58.7,45.3L56.9,44.4L56.6,44.1L51.0,41.5L44.1,39.5L43.2,39.5L41.4,39.1L37.3,38.9L36.4,38.7L29.5,39.3L24.9,40.3L20.1,41.9L18.7,42.7L18.2,42.8L13.5,45.4L11.9,46.6L11.1,47.1L10.7,47.0L10.4,46.7L10.3,46.0L11.1,45.0L13.2,43.5L14.8,42.8L16.5,41.6L17.2,41.5L19.8,40.1L21.0,39.8L21.4,39.6L23.8,38.7L24.9,38.5L25.4,38.2L29.7,37.4L33.1,37.0L37.4,36.9L41.5,37.2L46.1,38.0L48.8,38.7L49.4,39.0L51.7,39.7L55.9,41.5L56.2,41.7L59.1,43.2L61.7,45.0L62.2,45.5L63.0,45.8L63.7,45.6L64.3,45.0L65.7,44.0L66.4,43.7L67.2,43.0L67.9,42.7L68.3,42.2L69.1,41.9L69.8,41.4L70.5,41.2L70.8,40.9L72.6,40.0L73.1,39.7L73.9,39.5L75.1,38.8L76.5,38.4L76.7,38.2L80.3,37.2L81.5,37.0L82.5,36.6L83.2,36.6L83.5,36.5L86.9,36.0L89.3,35.8L95.0,35.9L100.3,36.6L104.5,37.7L107.7,38.8L109.3,39.6L109.6,39.6L113.2,41.4L116.6,43.5L117.0,43.9L117.4,44.8L117.6,44.2L117.6,41.7L117.4,39.8L117.2,39.8L117.2,40.1L116.8,40.6L116.4,40.6L115.2,40.0L114.2,39.3L112.1,38.2L111.6,38.2L111.0,37.7L107.3,36.2L106.1,35.9L103.7,35.0L99.7,34.1L97.3,33.7L91.7,33.3L86.6,33.5L85.3,33.8L82.9,34.0L81.6,34.4L80.3,34.6L79.4,34.9L78.4,35.0L73.9,36.6L72.9,37.2L71.6,37.6L70.1,38.4L69.4,38.6L69.0,39.0L66.7,40.2L66.4,40.6L65.7,40.9L64.8,41.6L63.2,42.6L62.6,42.6L62.1,42.4L61.7,42.0L61.1,41.7L59.8,40.8L56.7,39.3L55.9,38.7L55.0,38.5L54.5,38.2L50.5,36.6L43.3,34.8L42.1,34.8L40.0,34.5L38.2,34.4L31.9,34.5L30.4,34.8L29.3,34.8L27.6,35.1L24.7,35.9L24.2,35.9L18.0,38.1L16.3,39.0L15.8,39.1L13.7,40.1L13.2,40.6L12.8,40.7L11.2,41.7L10.6,41.7L10.2,41.4L10.5,40.2L10.9,39.8L12.6,38.8L13.2,38.6L13.6,38.2L14.4,38.0L14.7,37.7L17.9,36.2L19.0,35.9L20.6,35.1L24.3,34.0L27.8,33.2L31.1,32.8L35.3,32.5L39.4,32.6L44.0,33.1L46.5,33.5L50.0,34.5L50.7,34.8L52.2,35.1L54.3,35.9L55.2,36.5L59.4,38.3L62.0,40.0L62.8,40.3L63.2,40.3L63.9,40.0L65.5,38.8L69.1,36.7L70.9,35.9L71.3,35.9L73.9,34.6L77.3,33.4L80.8,32.5L85.9,31.6L87.4,31.6L87.7,31.5L95.4,31.5L100.5,32.2L100.9,32.4L103.2,32.8L106.1,33.7L106.8,33.8L108.5,34.6L110.3,35.1L111.9,36.0L112.7,36.2L115.7,37.8L116.0,38.1L116.5,38.2L117.3,38.9L117.4,36.2L117.2,35.5L117.2,34.7L117.4,34.1L117.3,30.8L117.1,30.1L116.5,30.7L116.2,30.7L113.2,29.3L111.4,28.6L110.7,28.2L108.7,27.7L108.2,27.4L106.5,26.8L105.2,26.6L101.5,25.7L98.6,25.2L93.5,24.8L88.8,24.8L85.8,24.9L85.1,25.1L82.9,25.3L80.0,25.8L76.9,26.6L76.0,26.7L74.9,27.2L73.0,27.7L71.8,28.2L70.8,28.4L68.3,29.7L67.6,29.8L63.1,32.3L61.9,32.3L58.2,30.4L54.0,28.8L51.8,28.2L51.0,27.9L46.6,26.8L44.9,26.6L43.9,26.4L42.5,26.4L41.4,26.1L38.4,25.9L33.5,25.9L28.6,26.3L27.8,26.5L27.2,26.5L22.3,27.6L20.5,28.2L20.0,28.2L18.5,28.8L17.9,28.9L13.2,30.9L11.2,31.9L10.6,32.0L10.2,31.8L10.1,31.0L10.2,30.6L11.1,29.8L12.5,29.3L13.2,28.8L19.3,26.5L21.0,26.1L22.2,25.6L26.7,24.7L29.6,24.4L30.7,24.1L32.1,24.1L33.3,23.9L40.3,24.0L47.5,24.9L49.0,25.4L50.9,25.7L51.5,26.1L52.4,26.2L53.0,26.5L55.2,27.0L58.0,28.2L58.5,28.3L62.3,30.1L63.2,30.1L67.8,27.8L68.7,27.5L70.9,26.5L74.9,25.1L78.6,24.3L78.9,24.1L82.9,23.3L89.0,22.8L94.9,22.9L100.3,23.4L104.5,24.4L105.3,24.4L113.0,26.9L116.2,28.3L117.1,29.1L117.1,25.3L116.9,25.3L116.8,25.7L116.5,26.0L115.7,25.9L115.1,25.5L111.7,24.1L109.7,23.5L108.5,23.1L104.0,21.9L98.9,21.0L97.7,21.0L97.1,20.8L95.7,20.8L94.6,20.6L88.9,20.5L83.4,21.0L81.7,21.4L80.3,21.5L76.9,22.3L76.4,22.3L75.4,22.7L73.1,23.2L72.3,23.6L68.8,24.8L67.6,25.4L66.3,25.9L63.6,27.3L62.8,27.6L61.9,27.5L58.6,26.0L58.3,26.0L57.4,25.5L57.0,25.5L56.4,25.1L55.0,24.8L52.5,23.9L50.6,23.5L49.3,23.1L48.2,23.0L42.9,21.9L41.7,21.9L40.5,21.6L34.1,21.5L28.3,22.0L23.3,22.9L19.5,23.9L18.3,24.4L17.1,24.6L16.5,24.9L13.6,25.9L13.1,26.3L12.0,26.5L10.9,27.1L10.5,27.1L10.1,26.8L10.1,25.9L10.2,25.6L10.8,25.1L13.6,23.8L15.5,23.2L17.7,22.3L20.1,21.7L21.4,21.3L23.0,21.1L24.0,20.7L27.2,20.1L32.6,19.6L41.6,19.7L44.7,20.0L45.8,20.3L47.2,20.4L48.0,20.7L49.9,21.0L52.2,21.5L54.9,22.5L55.9,22.7L59.4,23.9L59.9,24.3L62.6,25.3L63.9,24.9L65.1,24.4L65.4,24.1L67.9,23.2L68.4,22.8L68.7,22.8L70.4,22.0L72.7,21.3L74.3,21.0L75.7,20.4L76.2,20.4L76.8,20.1L79.8,19.6L80.1,19.4L86.6,18.5L93.4,18.4L96.3,18.6L97.9,18.9L99.1,18.9L100.2,19.2L101.4,19.2L103.1,19.7L105.1,19.9L109.9,21.3L116.4,23.7L116.9,24.3L117.1,24.3L117.1,21.5L116.9,20.7L116.7,20.7L116.6,21.2L115.8,21.3L115.1,20.9L111.1,19.4L109.6,19.1L109.0,18.8L108.6,18.8L106.6,18.2L104.2,17.6L103.6,17.6L101.9,17.1L96.5,16.5L92.7,16.3L88.0,16.3L82.0,16.8L81.5,17.0L80.2,17.1L78.2,17.6L77.2,17.7L76.8,17.9L74.1,18.4L73.3,18.8L70.4,19.6L68.0,20.6L67.4,20.7L62.7,22.8L61.0,22.3L60.4,21.9L59.4,21.6L58.6,21.2L57.6,21.0L55.3,20.1L54.0,19.8L51.2,18.9L44.3,17.6L42.5,17.5L40.8,17.2L38.5,17.2L37.9,17.0L31.5,17.2L25.7,17.9L21.4,18.9L20.3,19.0L18.0,19.7L17.5,19.9L12.7,21.5L10.8,22.3L10.3,22.3L10.1,22.1L10.1,20.9L10.7,20.4L12.6,19.7L13.0,19.4L15.3,18.7L15.9,18.3L19.7,17.2L23.9,16.4L25.0,16.0L26.1,16.0L28.8,15.5L33.3,15.1L37.4,15.1L42.9,15.4L46.3,16.0L47.0,16.0L47.4,16.2L49.9,16.5L50.3,16.7L53.9,17.5L59.4,19.3L61.9,20.4L62.9,20.5L64.2,19.8L64.5,19.8L65.1,19.4L68.0,18.4L68.5,18.1L72.5,16.7L74.0,16.5L75.4,16.0L82.2,14.7L86.9,14.2L93.7,14.1L96.7,14.3L103.1,15.1L103.9,15.4L105.8,15.7L106.2,15.9L107.2,16.0L108.9,16.5L109.8,16.6L110.2,16.9L111.5,17.2L113.4,18.0L114.2,18.1L115.0,18.5L116.3,18.9L117.0,19.7L117.1,16.9L116.9,16.3L116.7,13.8L116.7,16.0L116.5,16.4L115.7,16.5L111.3,14.8L108.2,14.1L107.9,13.9L101.3,12.6L98.2,12.2L97.2,12.2L96.5,12.0L95.4,12.0L94.7,11.8L85.5,11.8L85.1,12.0L83.8,12.1L83.2,12.3L81.4,12.4L75.1,13.6L74.1,14.0L73.0,14.2L70.2,15.1L69.4,15.2L68.5,15.6L68.2,15.6L67.8,15.9L66.2,16.4L64.8,17.1L63.6,17.5L62.9,18.0L61.7,18.0L59.7,17.1L58.1,16.7L57.6,16.5L55.1,15.7L54.8,15.7L53.4,15.1L46.3,13.7L43.6,13.4L41.4,13.0L32.2,13.0L30.2,13.2L28.1,13.3L24.7,13.9L23.5,13.9L23.0,14.2L22.3,14.2L21.0,14.7L20.1,14.8L19.5,15.0L16.8,15.6L14.6,16.5L13.6,16.6L13.2,16.9L12.2,17.1L10.9,17.8L10.2,17.8L10.0,17.6L10.0,17.2L9.8,16.9L9.8,12.0L10.1,11.5L10.6,11.4L15.0,11.2L17.0,11.3L19.0,11.2L19.8,11.0L23.7,11.1L44.4,10.6L46.7,10.7L48.2,10.6L48.6,10.4L50.8,10.6L51.5,10.4L54.1,10.3L43.7,10.2L27.9,10.5L24.8,10.4L19.6,10.5L15.4,10.8L10.0,10.8Z M10.6,112.6L10.8,112.4L11.1,112.4L11.5,112.9L12.1,113.8L13.4,115.2L14.9,116.5L16.6,117.4L16.8,117.6L16.8,117.9L16.3,118.2L11.4,118.2L10.9,118.1L10.5,117.3Z M75.0,97.8L75.1,97.6L75.4,97.6L75.7,98.0L75.2,98.0Z M10.9,97.6L11.2,97.6L12.7,98.9L13.4,100.0L14.1,101.9L14.2,105.9L14.8,108.1L15.9,110.1L17.2,111.6L17.2,111.9L17.0,112.1L15.9,111.9L14.9,111.5L13.4,110.3L11.7,108.4L10.5,106.3L10.4,98.4L10.5,97.9Z M73.7,95.6L74.0,95.0L74.7,94.3L75.3,94.0L76.4,94.0L77.2,94.4L77.9,95.2L77.9,96.1L77.6,96.9L77.2,96.9L77.1,95.7L76.6,94.9L76.0,94.7L75.3,94.8L74.9,94.9L74.5,95.6L74.5,96.3L74.7,96.8L75.0,97.3L74.9,97.6L74.6,97.6L74.0,96.9L73.7,96.2Z M43.4,55.0L43.7,55.2L45.0,55.5L47.3,56.5L47.6,56.5L49.3,57.4L49.9,58.0L50.5,58.2L51.6,59.0L52.1,59.2L53.7,60.5L57.3,64.4L59.0,66.9L60.8,70.6L61.9,74.3L62.2,76.3L62.3,78.7L61.6,79.5L60.3,79.8L58.8,79.9L56.8,80.4L55.7,80.9L54.8,81.1L49.8,83.1L48.8,83.8L47.5,84.4L44.4,86.4L43.5,87.1L43.1,87.3L41.1,89.3L39.8,90.0L34.8,96.1L34.6,96.8L33.5,98.3L32.6,100.2L32.2,100.7L30.9,103.6L29.5,107.8L28.6,112.1L28.2,112.5L28.1,112.5L27.6,111.8L27.0,110.1L26.2,108.5L25.9,107.7L24.0,104.8L21.4,101.9L19.6,100.3L17.0,98.6L15.5,97.9L15.1,97.9L12.4,96.8L11.3,96.6L10.6,96.1L10.4,95.7L10.4,88.4L10.1,77.7L10.2,76.3L10.6,75.2L10.8,73.7L11.1,73.2L11.4,72.1L12.4,69.5L14.8,65.3L18.2,61.4L20.0,59.8L22.8,57.8L26.9,55.8L27.3,55.8L27.8,55.5L29.0,55.2L29.6,54.9L32.7,54.3L38.1,54.1L38.8,54.3L40.5,54.4Z M117.6,55.7L117.5,57.8L117.2,58.1L116.9,58.1L116.5,57.9L115.8,56.9L113.1,54.4L108.9,51.4L108.2,51.1L107.4,50.4L106.5,50.2L104.8,49.3L100.5,47.8L99.8,47.7L98.0,47.1L97.2,47.1L94.8,46.6L92.9,46.5L87.3,46.6L84.4,47.1L82.9,47.5L82.6,47.7L80.7,48.1L78.1,49.1L74.5,50.9L72.1,52.4L68.9,54.8L67.9,56.1L66.5,57.3L64.8,59.6L63.8,60.5L63.2,60.7L63.0,60.6L61.8,59.5L60.6,57.9L57.5,54.9L56.4,54.1L55.6,53.7L53.8,52.3L50.9,50.7L46.0,48.7L45.5,48.7L44.8,48.4L43.4,48.2L42.9,48.2L41.3,47.7L37.1,47.3L34.3,47.3L33.5,47.5L31.0,47.7L28.4,48.2L28.0,48.4L26.3,48.8L24.7,49.5L23.8,49.7L20.9,51.1L20.3,51.2L18.2,52.7L17.6,53.0L14.7,55.2L11.2,58.6L10.6,58.7L10.3,58.2L10.4,57.2L10.8,56.5L13.1,54.2L14.4,53.2L15.2,52.4L19.3,49.8L20.8,49.2L21.3,48.8L24.3,47.5L28.5,46.3L29.8,46.2L30.7,45.9L32.1,45.8L32.7,45.6L35.4,45.4L39.8,45.6L43.2,46.1L46.5,46.9L50.2,48.2L54.0,50.1L58.1,52.9L59.9,54.5L63.1,57.6L63.8,57.5L66.7,54.2L71.0,50.7L76.3,47.7L77.2,47.4L79.5,46.4L82.9,45.3L87.0,44.6L89.7,44.4L94.7,44.5L96.5,44.8L98.6,45.0L101.0,45.6L104.8,46.9L106.6,47.7L107.4,48.2L107.9,48.2L108.2,48.5L109.8,49.4L111.6,50.5L112.5,51.3L113.7,52.0L116.2,54.1L117.5,55.4Z M117.5,50.1L117.3,51.5L116.7,51.5L114.2,49.6L110.3,47.0L105.6,44.8L102.0,43.5L98.7,42.7L96.9,42.5L96.4,42.3L95.3,42.3L93.9,42.0L89.6,41.9L88.7,42.1L86.1,42.3L81.9,43.1L76.5,44.8L75.8,45.3L72.6,46.6L72.2,47.1L69.3,48.9L66.3,51.4L63.4,53.9L62.9,53.9L62.5,53.7L58.5,50.3L57.8,49.9L55.4,48.2L54.5,47.9L52.9,46.8L49.8,45.5L46.1,44.3L45.6,44.3L44.1,43.8L40.5,43.2L36.6,43.0L31.6,43.2L27.5,44.0L24.8,44.8L21.3,46.1L17.3,48.1L15.1,49.6L14.3,49.9L11.8,52.1L11.1,52.5L10.6,52.5L10.3,52.0L10.5,51.0L11.4,50.0L11.9,49.8L13.1,48.7L14.8,47.5L18.1,45.6L19.7,44.9L20.6,44.4L24.3,43.0L25.7,42.7L27.0,42.2L31.1,41.5L34.0,41.2L39.7,41.3L44.3,41.9L47.7,42.8L49.9,43.7L51.1,44.0L51.6,44.4L52.2,44.5L54.7,45.6L56.8,47.0L58.1,47.6L59.9,49.1L60.5,49.4L61.3,50.1L62.8,51.3L63.5,51.4L66.6,48.6L67.6,48.2L69.4,46.6L71.7,45.3L72.0,45.0L72.8,44.8L73.1,44.5L76.5,42.9L80.9,41.5L82.5,41.2L83.6,40.8L87.6,40.2L92.5,40.0L96.8,40.4L101.0,41.2L104.2,42.1L104.9,42.5L105.8,42.7L106.6,43.2L107.2,43.2L110.6,44.8L111.2,45.3L113.5,46.6L115.4,48.1L116.5,48.7L117.0,49.2Z M117.1,34.2L116.9,35.4L116.1,35.5L113.2,34.0L112.5,33.8L111.7,33.3L109.4,32.4L108.5,32.2L106.5,31.4L105.7,31.3L105.1,31.0L103.9,30.8L102.2,30.2L95.5,29.2L88.4,29.1L83.2,29.7L79.3,30.4L78.0,30.9L76.8,31.1L73.5,32.2L71.8,33.0L71.3,33.1L66.7,35.2L66.0,35.8L63.1,37.4L62.5,37.4L62.1,37.1L61.5,36.9L60.1,36.0L57.1,34.6L56.8,34.6L55.2,33.7L49.0,31.6L44.8,30.8L39.9,30.1L33.4,30.0L28.5,30.6L24.4,31.4L23.8,31.6L22.7,31.8L20.3,32.7L19.7,32.8L16.8,34.0L15.8,34.3L14.5,35.0L12.9,35.7L11.3,36.6L10.7,36.7L10.2,36.3L10.3,35.5L11.3,34.6L14.8,32.8L18.2,31.5L18.5,31.3L23.8,29.7L29.0,28.6L32.9,28.2L36.6,28.2L41.7,28.4L46.6,29.2L50.7,30.1L53.8,31.2L54.7,31.6L55.6,31.8L58.5,33.1L60.6,34.1L62.1,35.0L63.2,35.1L64.3,34.6L65.1,33.9L70.8,31.2L74.4,29.8L75.1,29.8L76.0,29.3L76.5,29.3L78.8,28.5L83.0,27.7L85.8,27.5L87.3,27.2L91.4,27.0L94.8,27.3L96.6,27.3L97.3,27.5L98.8,27.6L104.9,28.8L106.5,29.4L107.6,29.6L108.2,29.8L108.8,29.9L112.4,31.4L116.6,33.4Z M58.2,10.3L65.6,10.3L66.5,10.0L61.3,10.0Z M76.1,10.1L79.9,10.0L76.5,9.9Z M71.2,10.1L72.6,10.2L73.5,10.0L72.3,9.9Z M84.2,9.9L83.4,9.8L82.3,10.1Z M87.8,10.0L92.3,10.1L93.4,9.8L94.3,9.9L94.9,9.8L87.8,9.8Z M105.1,9.8L103.5,9.7L101.9,9.8Z M108.7,9.6L106.2,9.7L105.7,9.8L108.1,9.8L108.7,9.8Z M111.1,9.6L111.2,9.8L114.2,9.6Z M115.5,9.5L115.6,9.7L116.6,10.0L116.8,11.4L116.8,9.8L116.3,9.4Z" fill="#000" fill-rule="evenodd"/>
</svg>