<svg xmlns="http://www.w3.org/2000/svg" viewBox="0 0 128 128" width="128" height="128">
  <path d="M107.0,76.8L106.6,76.5L101.3,76.6L100.7,76.8L99.2,76.8L96.0,77.1L91.1,77.2L90.8,77.3L88.9,77.4L88.6,77.6L87.8,77.6L87.4,77.8L86.0,77.8L80.7,78.6L78.5,79.3L78.0,79.7L77.6,79.7L77.3,80.1L76.0,80.6L74.1,82.3L72.3,84.7L71.3,86.6L71.0,86.8L69.6,89.8L69.2,91.0L68.7,91.9L67.6,94.5L67.6,94.7L67.3,95.2L65.4,100.5L64.9,100.8L64.7,100.8L64.3,100.4L63.5,99.3L63.5,98.9L63.1,98.2L62.1,96.0L60.3,92.8L59.0,90.1L57.3,87.3L56.6,86.5L56.4,85.9L55.8,85.3L54.7,83.6L52.8,81.8L51.0,80.6L47.5,79.3L42.5,78.7L27.8,78.7L26.5,78.6L25.4,78.3L24.4,78.3L23.7,78.2L22.5,78.2L22.0,78.3L22.0,78.9L22.8,80.9L23.1,81.8L23.9,83.4L24.2,84.7L25.5,87.1L27.7,92.1L28.9,94.4L29.2,95.2L29.8,96.5L30.0,97.1L30.6,98.4L32.6,101.7L33.1,102.8L33.7,103.4L34.6,104.8L35.9,106.4L36.8,106.9L37.4,107.6L38.1,107.9L38.7,108.4L39.5,108.7L39.7,109.0L41.1,109.6L41.3,109.6L42.9,110.4L48.1,111.2L49.4,111.2L51.8,111.5L55.4,111.3L60.2,111.4L61.1,111.2L64.5,111.2L69.9,111.1L71.5,110.9L74.4,110.9L75.7,110.6L76.6,110.7L83.7,110.0L85.1,109.6L86.1,109.6L87.3,109.2L88.3,109.0L90.3,108.2L91.1,107.6L92.3,106.9L94.3,105.0L95.1,104.0L96.2,102.2L97.7,99.1L97.8,98.7L98.6,97.1L98.8,96.5L99.7,94.7L100.4,92.8L101.5,90.3L101.5,90.0L102.4,88.3L103.1,86.4L103.8,85.2L104.3,83.8L104.7,83.0L105.2,81.4L105.4,81.2L106.6,78.2L106.9,77.6Z M34.6,88.2L35.0,88.0L36.1,87.7L45.4,87.6L47.7,88.1L48.8,88.8L50.9,90.9L52.3,93.9L53.1,95.0L54.3,97.7L55.0,98.7L55.2,99.5L55.8,100.6L55.8,100.8L56.4,101.7L56.6,102.3L56.6,102.8L56.3,103.1L54.3,103.2L52.5,103.2L51.4,103.1L49.6,103.1L48.9,103.0L47.4,103.0L44.9,102.5L42.5,101.2L40.7,99.3L37.9,95.6L36.8,93.3L36.4,92.7L36.0,91.4L34.7,89.0Z M94.9,85.6L94.9,85.9L94.7,86.3L94.4,87.3L92.2,92.8L91.0,94.8L90.6,95.8L89.7,97.0L89.4,97.5L87.9,99.3L87.0,99.8L86.5,100.3L84.6,101.2L83.8,101.2L83.2,101.7L80.3,102.2L79.0,102.3L78.0,102.6L75.9,102.6L74.3,103.0L73.2,103.0L72.9,102.7L73.1,101.6L73.5,100.9L74.1,99.3L77.2,92.6L78.0,91.2L78.2,90.6L79.4,88.9L80.7,87.6L81.4,87.2L83.2,86.6L85.7,86.2L86.9,85.8L92.3,85.4L94.5,85.4Z M119.1,40.0L118.8,39.7L118.6,39.6L117.1,39.6L114.6,39.9L113.4,39.9L112.4,40.2L106.3,40.4L104.3,40.7L102.5,40.7L100.9,40.9L98.3,41.0L97.0,41.3L95.7,41.3L94.8,41.4L91.7,41.5L90.1,41.8L86.5,42.2L83.1,43.3L82.2,44.1L81.2,44.6L79.0,46.4L76.7,49.2L74.9,51.6L74.7,52.5L74.2,53.1L72.8,55.9L71.8,57.5L70.8,59.9L69.4,62.6L68.8,64.2L67.9,65.8L67.3,67.5L66.2,69.8L65.7,71.0L65.1,72.0L64.7,72.4L64.3,72.3L63.5,71.4L62.7,69.6L62.2,68.9L61.7,67.5L60.3,65.0L60.1,64.4L58.5,61.4L58.3,60.6L57.3,59.1L56.1,56.6L55.7,56.0L55.2,54.8L53.8,52.8L53.2,51.6L51.3,49.3L51.0,48.8L49.7,47.4L47.9,46.0L47.6,45.9L46.9,45.4L43.9,44.1L42.7,43.7L41.0,43.5L40.2,43.2L38.9,43.2L37.4,43.0L35.7,43.0L34.6,42.8L31.9,42.8L30.5,42.7L28.3,42.7L27.1,42.5L22.9,42.7L19.6,42.5L9.6,42.4L9.2,42.7L9.2,43.4L10.3,46.0L10.7,47.4L13.6,53.6L15.5,57.4L16.4,58.9L17.1,60.5L18.1,62.1L18.9,63.9L19.6,65.0L20.0,66.0L20.6,66.8L21.0,67.7L21.7,68.6L25.0,72.3L26.0,73.3L27.4,74.3L29.1,75.1L30.7,76.1L32.3,76.6L32.9,76.9L34.9,77.3L36.6,77.5L37.3,77.8L38.5,77.8L39.7,78.0L41.6,78.0L42.3,78.2L44.4,78.2L47.0,78.4L50.7,78.4L55.1,78.7L65.3,78.7L67.9,78.6L70.0,78.3L71.9,78.3L72.8,78.2L75.7,78.0L77.1,77.8L80.2,77.7L80.9,77.5L82.9,77.4L86.5,76.9L88.0,76.9L91.5,76.3L92.2,76.3L96.4,75.1L98.6,74.1L99.4,73.5L100.4,73.0L102.1,71.5L105.6,67.8L106.7,66.3L107.4,65.1L107.8,64.7L108.0,64.0L109.0,62.4L109.3,61.7L110.2,60.2L110.4,59.6L110.8,59.1L111.8,57.0L112.1,56.2L113.5,53.6L114.3,51.7L114.6,50.8L115.0,50.0L115.3,49.3L117.6,44.5L118.3,42.5L118.6,41.9L118.7,41.4L119.0,40.8Z M22.1,51.4L22.4,51.1L23.4,51.1L25.0,51.2L30.4,51.2L31.7,51.4L35.6,51.5L37.1,51.8L38.8,51.9L40.1,52.2L41.9,53.0L43.5,54.2L45.9,56.8L46.1,57.3L47.1,58.8L47.7,60.2L48.1,60.6L49.2,63.2L50.0,64.4L50.9,66.6L51.8,68.1L51.9,68.5L52.4,69.4L52.4,69.8L52.1,70.0L51.7,70.1L38.0,69.9L34.0,69.1L32.2,68.2L30.5,66.8L29.8,65.6L28.7,64.5L28.0,63.3L28.0,62.9L26.5,61.0L26.3,60.3L25.6,59.1L25.5,58.6L24.7,57.2L24.2,56.0L22.8,53.3Z M106.1,49.5L106.1,49.9L104.8,52.2L102.4,57.7L101.7,58.9L100.3,61.7L97.6,65.0L96.7,65.9L94.9,67.2L94.0,67.6L93.2,67.8L92.0,68.3L90.6,68.4L89.7,68.7L87.9,68.8L87.3,68.9L85.5,68.9L84.9,69.1L82.8,69.1L77.9,69.4L76.5,69.4L76.2,69.2L76.2,68.5L76.7,67.8L77.0,67.0L77.6,66.0L78.4,64.0L78.5,63.5L79.4,61.7L79.5,61.1L80.2,60.1L80.4,59.4L82.3,55.7L83.1,55.0L83.7,53.9L86.0,52.0L88.3,51.1L91.2,50.5L91.6,50.2L92.6,50.1L94.1,50.0L94.9,49.8L96.4,49.8L99.1,49.4L102.3,49.3L103.1,49.2L105.6,49.2Z M104.7,23.5L104.0,21.2L103.4,20.4L101.0,18.2L99.6,17.5L99.0,17.4L98.2,17.1L95.7,16.8L91.0,16.9L86.9,17.6L86.0,17.9L85.1,18.1L84.0,18.7L83.2,18.8L77.8,22.0L77.3,22.5L75.6,23.6L73.1,25.9L72.6,26.7L71.4,27.9L68.0,32.7L67.3,34.2L66.8,34.6L65.9,36.7L65.5,37.4L64.6,40.1L64.2,40.2L63.8,39.7L63.5,38.6L60.9,33.7L59.8,31.9L58.9,30.9L57.9,29.5L56.1,27.4L54.4,25.9L53.7,25.1L52.0,24.0L51.0,23.5L50.6,23.1L47.6,21.2L45.8,20.6L45.5,20.3L43.4,19.8L42.5,19.3L40.5,19.0L40.1,18.8L38.4,18.8L36.4,18.5L31.5,18.5L29.3,18.9L28.6,19.2L28.1,19.2L26.5,19.8L25.1,20.6L24.2,21.6L23.4,22.8L22.8,24.6L22.7,25.8L22.8,26.8L23.2,28.2L24.4,29.8L26.1,31.4L27.0,32.0L29.0,32.5L31.6,32.6L33.3,32.0L33.9,31.7L34.4,31.2L35.1,29.6L35.0,28.2L34.5,26.9L34.1,26.6L34.1,26.2L34.6,25.8L35.3,25.8L36.0,25.9L37.2,25.9L38.2,26.2L38.8,26.6L40.0,26.8L41.6,27.6L41.9,27.6L43.7,28.6L44.2,29.0L45.3,29.5L47.4,31.2L49.0,32.3L50.8,34.1L52.8,36.5L53.2,37.2L53.8,37.9L54.8,39.3L55.8,41.3L57.0,43.2L58.2,45.5L58.4,46.5L59.3,48.7L59.8,50.3L60.0,51.2L60.7,53.3L61.0,55.4L61.4,56.9L61.7,57.2L62.0,57.2L67.1,57.2L67.6,56.7L68.1,53.8L68.5,52.5L69.6,47.5L70.1,46.3L70.5,45.0L70.8,44.4L70.8,44.1L71.1,43.6L72.0,41.3L72.2,41.0L72.3,40.6L75.1,35.7L77.6,32.6L79.6,30.6L82.3,28.4L85.7,26.3L86.9,25.8L87.5,25.8L88.6,25.4L89.3,25.3L90.2,24.9L93.0,24.8L93.5,24.9L93.8,25.1L93.7,25.5L93.1,26.7L93.0,28.5L93.2,29.0L93.7,29.7L94.4,30.4L96.0,31.3L98.6,31.3L100.1,30.6L101.0,30.1L103.0,28.1L103.8,27.1L104.2,26.3L104.7,24.5Z" fill="#000" fill-rule="evenodd"/>
</svg>