<svg xmlns="http://www.w3.org/2000/svg" viewBox="0 0 128 128" width="128" height="128">
  <path d="M48.3,96.6L48.3,96.8L49.1,97.6L49.5,98.2L50.4,99.1L50.9,99.8L54.7,103.4L55.5,104.3L63.6,112.4L64.0,112.4L64.4,112.1L68.9,107.5L69.1,107.1L71.2,105.1L78.9,97.4L78.9,97.1L78.7,96.9L76.1,96.7L74.8,96.8L62.9,96.5L60.2,96.6L56.6,96.5L48.5,96.5Z M47.9,68.6L48.0,69.0L48.3,69.0L49.8,69.0L50.2,68.9L79.0,69.0L79.2,68.9L79.3,68.3L77.3,66.3L76.6,65.8L73.3,62.5L73.1,62.1L69.3,58.5L69.2,58.2L64.1,53.0L63.4,52.9L60.9,55.6L58.5,58.1L57.4,58.9L56.1,60.2L56.0,60.4L51.6,64.7L50.7,65.8L48.6,67.8Z M118.7,79.7L117.6,76.6L116.5,74.7L115.3,73.0L115.1,72.6L114.3,71.7L113.7,70.7L112.0,68.7L111.2,67.7L105.2,61.6L104.8,61.0L101.7,57.9L100.3,56.4L97.1,53.3L96.9,53.0L79.8,35.9L78.2,34.7L68.8,25.2L68.5,24.8L68.6,24.3L75.5,17.4L75.6,16.7L74.9,15.9L74.2,15.8L73.9,16.0L71.9,17.7L71.2,18.6L68.5,21.3L68.1,21.6L67.3,22.4L66.9,22.5L66.5,22.5L65.9,22.3L64.0,20.4L63.4,20.5L61.7,22.3L61.4,22.4L60.8,22.4L59.9,21.8L58.8,20.7L57.8,19.9L54.0,16.1L53.6,15.9L53.3,15.9L52.2,16.8L52.1,17.1L52.2,17.6L56.4,21.9L57.2,22.2L57.4,22.4L57.5,22.9L59.0,24.4L59.1,25.0L56.9,27.3L56.5,27.5L48.0,35.9L47.9,36.5L52.9,41.4L56.9,45.7L58.7,47.3L63.1,51.7L63.6,52.1L64.2,52.1L64.6,51.4L66.4,49.6L67.3,48.4L73.2,42.6L76.3,39.2L78.0,37.8L79.0,36.7L79.3,36.6L79.7,36.9L79.5,37.9L79.6,43.5L79.7,44.4L79.7,48.1L80.2,59.1L80.2,64.2L80.4,66.1L80.3,74.0L80.1,74.2L78.5,74.3L74.4,74.2L70.8,74.5L64.5,74.5L62.1,74.4L61.0,74.2L48.9,74.4L47.9,74.2L47.5,73.9L47.4,73.5L47.4,69.5L47.5,69.0L47.4,66.9L47.4,38.5L47.6,37.0L47.5,36.8L47.0,36.8L41.0,43.1L40.1,43.8L38.8,45.2L38.3,45.6L38.0,46.0L32.4,51.6L31.7,52.5L30.6,53.5L30.4,53.9L23.4,60.8L22.8,61.2L22.3,62.0L19.4,64.6L15.9,68.5L14.5,70.5L14.0,71.0L13.3,72.2L12.4,73.3L11.9,74.2L11.6,74.5L11.1,75.8L10.6,76.7L10.0,78.6L9.9,79.3L9.5,80.3L9.4,82.7L9.2,83.2L9.2,85.3L9.4,85.9L9.5,87.9L9.9,88.8L10.2,90.4L11.0,91.9L11.3,92.2L11.6,92.9L12.0,93.3L12.6,94.4L14.9,96.8L18.4,99.3L21.9,101.2L22.1,101.2L22.9,101.6L24.0,101.7L24.3,102.0L24.9,102.1L28.3,102.5L31.1,102.1L32.3,101.7L33.0,101.7L33.6,101.4L34.8,101.2L36.9,100.2L37.1,100.0L38.3,99.5L39.4,98.7L40.5,98.1L41.8,96.9L42.9,96.1L46.1,92.7L46.7,91.8L47.7,90.9L48.1,90.7L63.7,90.8L64.4,90.6L67.4,90.5L69.2,90.7L70.7,90.5L71.9,90.5L72.8,90.7L76.0,90.5L80.4,90.8L81.1,91.5L81.6,92.5L83.2,94.4L85.3,96.7L87.1,98.2L90.1,100.3L91.6,100.9L92.2,101.3L92.5,101.3L93.1,101.7L94.0,102.1L96.1,102.5L96.4,102.6L98.7,102.7L99.2,102.9L102.1,102.8L105.7,102.1L106.2,101.8L106.8,101.7L107.3,101.3L108.7,100.8L109.6,100.1L111.0,99.4L113.4,97.2L115.9,94.0L116.1,93.4L116.3,93.1L116.9,92.0L117.2,91.1L117.6,90.3L118.5,87.6L119.1,84.8L119.1,82.7Z M80.4,80.1L80.4,84.3L80.1,84.7L79.5,84.9L69.3,84.8L68.5,84.9L60.8,84.9L59.3,84.7L55.6,84.8L53.5,84.6L49.5,84.6L47.7,84.4L47.4,84.0L47.4,80.8L47.4,80.1L47.9,79.8L53.8,79.7L56.5,79.7L58.4,79.6L77.6,79.7L78.7,79.5L80.1,79.7Z" fill="#000" fill-rule="evenodd"/>
</svg>