<svg xmlns="http://www.w3.org/2000/svg" viewBox="0 0 128 128" width="128" height="128">
  <path d="M37.1,84.1L36.7,84.1L36.0,84.9L35.3,84.8L34.8,84.9L34.8,85.0L35.4,85.4L36.3,85.3L37.1,84.5Z M89.0,77.1L88.8,77.2L88.7,77.8L88.6,79.2L88.4,79.5L88.4,80.0L88.7,79.9L88.9,79.6Z M89.4,75.1L89.1,75.1L89.1,75.5L89.4,75.4Z M16.7,74.9L16.5,75.0L16.1,77.1L15.9,77.4L15.7,78.9L15.7,80.9L15.9,80.9L16.0,80.8L16.3,79.5L16.4,77.3L16.8,75.7Z M31.4,67.9L31.2,68.2L31.3,68.7L31.5,68.7L31.7,68.5L31.7,68.1Z M64.5,68.2L63.6,68.9L63.0,70.1L63.1,71.2L63.7,72.0L64.0,72.2L65.2,72.2L65.7,71.7L66.0,70.8L65.9,70.2L65.7,69.8L64.9,69.0L64.9,68.8L65.4,68.4L65.9,68.2L66.6,68.2L67.1,68.4L67.8,68.8L68.2,69.1L68.6,69.9L69.0,71.1L69.0,71.9L68.8,72.5L68.5,73.3L67.6,74.3L67.6,74.4L67.8,74.4L68.6,73.7L68.9,73.2L68.9,73.0L69.3,72.4L69.3,70.7L68.9,69.6L68.6,69.1L68.2,68.7L67.7,68.4L67.1,67.9L66.6,67.8L65.6,67.8Z M22.5,65.5L22.4,66.4L22.6,67.6L22.7,67.9L22.8,69.0L23.1,70.1L23.3,70.3L23.5,70.3L23.5,69.4L23.2,68.6L23.1,67.9L22.8,67.4L22.8,65.9L22.6,65.5Z M78.5,49.1L77.6,48.7L76.9,48.5L75.2,48.5L73.9,48.9L73.2,49.3L72.1,50.2L71.4,51.3L71.0,52.4L71.0,53.9L71.4,55.0L71.9,55.5L72.3,55.7L73.9,55.7L74.5,55.3L74.8,54.8L75.0,54.2L74.9,53.2L74.2,52.4L73.8,52.2L72.9,52.1L72.6,52.2L72.0,52.2L71.9,52.1L71.9,51.7L72.1,50.9L73.6,49.5L74.1,49.3L75.0,49.0L76.7,49.1L77.9,49.7L78.8,50.7L79.1,51.9L79.3,53.6L79.2,54.7L79.0,55.7L78.4,57.2L77.4,58.3L76.2,59.1L74.5,59.5L73.1,59.6L67.9,59.6L65.0,60.1L63.5,60.8L62.3,61.6L61.3,62.7L60.3,64.3L60.3,64.5L59.9,65.2L59.5,66.9L59.5,69.0L59.7,70.6L60.3,72.4L61.1,73.7L61.7,74.4L62.9,75.1L64.3,75.5L65.8,75.5L66.5,75.4L67.4,74.9L67.4,74.6L66.6,74.9L65.4,75.1L64.9,75.1L63.8,74.8L62.4,74.1L61.3,72.9L61.3,72.7L60.9,72.0L60.4,70.3L60.4,68.6L60.9,66.8L61.6,65.7L62.6,64.7L63.3,64.2L63.5,64.2L64.8,63.6L65.9,63.4L67.6,63.4L69.4,63.9L70.9,64.8L72.6,66.5L72.7,67.0L73.3,67.9L73.3,68.5L73.8,69.8L73.8,71.7L73.7,72.2L73.6,73.3L73.3,74.4L72.9,75.1L72.8,75.5L72.4,76.0L72.4,76.2L71.0,77.9L69.5,79.2L68.3,80.0L68.1,80.0L66.7,80.7L65.4,81.1L62.7,81.6L59.2,81.5L56.8,81.0L54.4,80.2L54.2,80.0L53.0,79.4L50.5,77.5L48.7,75.4L48.2,74.7L48.1,74.2L47.9,74.0L47.1,72.5L46.7,71.3L46.3,70.0L46.3,69.1L46.2,68.4L46.2,66.8L46.4,65.3L47.3,63.2L48.9,61.6L49.2,61.6L49.5,61.8L50.1,63.1L51.1,64.5L51.6,65.0L52.8,65.8L53.9,66.2L54.7,66.3L56.0,65.9L56.4,65.7L57.0,65.1L57.3,64.6L57.6,63.4L57.5,62.7L57.2,61.7L56.6,61.0L55.7,60.3L54.0,59.7L51.8,59.6L51.5,59.3L51.3,58.8L51.3,55.9L51.9,53.4L52.3,52.5L53.0,51.5L54.4,50.1L55.3,49.5L55.7,49.4L56.2,49.1L57.5,48.8L59.0,48.9L60.1,49.1L61.5,49.8L62.3,50.4L63.3,51.4L63.8,52.6L64.0,53.4L64.0,54.3L63.6,55.8L63.3,56.4L62.3,57.5L61.6,57.9L60.9,58.0L59.7,58.0L58.6,57.7L58.0,57.2L57.4,56.5L57.2,55.7L57.2,54.8L57.5,54.0L58.1,53.4L58.9,53.0L58.9,52.7L58.7,52.6L58.0,52.6L57.7,52.8L57.1,52.9L56.6,53.4L56.0,54.3L55.7,55.2L55.7,56.2L55.9,56.8L56.3,57.7L57.0,58.4L58.1,59.2L59.2,59.6L60.6,59.6L61.6,59.3L62.6,58.7L63.7,57.7L64.4,56.5L64.7,55.3L64.7,54.3L64.5,53.2L64.0,51.7L63.7,51.1L62.4,49.8L61.5,49.0L59.2,48.3L58.5,48.3L58.1,48.1L56.1,48.3L55.0,48.5L53.5,49.3L52.0,50.2L50.3,52.2L49.5,53.7L49.0,55.1L48.7,56.8L48.7,58.9L48.9,60.2L48.9,60.6L48.2,61.4L48.0,61.5L47.3,62.0L45.6,63.8L44.4,65.8L43.9,67.3L43.5,68.8L43.3,71.1L43.4,73.1L43.7,74.4L44.1,75.7L44.9,77.2L46.4,79.4L47.4,80.4L49.2,81.7L50.1,82.3L51.8,83.0L52.5,83.2L52.9,83.4L53.8,83.5L54.3,83.7L57.9,84.2L60.2,84.2L61.2,84.0L62.0,84.0L63.2,83.7L64.9,83.2L65.2,83.2L66.7,82.5L68.3,81.7L70.5,80.1L71.4,79.0L72.9,76.8L73.0,76.5L73.6,75.4L74.1,73.9L74.3,72.1L74.3,70.7L74.2,70.3L74.1,69.1L73.8,68.6L73.7,68.1L73.1,66.8L72.7,66.4L72.5,65.8L71.0,64.1L70.6,63.9L70.5,63.6L72.7,63.4L74.2,63.2L74.8,63.2L76.7,62.6L78.0,61.9L79.3,60.8L80.0,59.9L80.6,58.8L81.0,57.6L81.3,55.4L81.2,53.9L81.0,52.8L80.3,50.9L79.7,50.2Z M52.0,60.5L52.4,60.3L53.3,60.3L54.2,60.5L54.8,60.8L55.3,61.3L55.6,61.9L55.5,62.9L54.9,63.3L54.4,63.3L53.5,63.0L52.3,61.9L52.0,61.0Z M20.2,43.1L20.0,43.5L20.2,44.3L20.9,45.0L21.4,45.9L22.5,47.4L23.1,48.5L24.5,49.7L24.5,50.0L23.2,51.1L22.8,51.9L22.8,53.2L23.3,54.2L23.3,54.4L23.0,54.8L22.6,54.8L22.0,54.2L20.9,52.6L20.0,51.8L19.3,50.5L19.2,50.2L18.5,49.2L17.7,48.3L16.8,47.8L16.1,47.4L14.9,46.9L14.0,46.4L13.6,46.4L13.3,46.6L13.0,47.8L13.1,48.0L13.5,48.1L14.7,48.0L15.5,48.4L16.1,49.8L17.1,51.2L18.2,52.4L18.8,54.0L19.4,55.1L20.8,56.2L20.8,56.5L20.6,56.7L19.6,56.8L18.6,56.0L17.8,55.8L16.2,55.6L16.0,55.5L15.6,54.8L15.4,53.9L14.6,52.9L14.2,52.2L13.7,51.9L12.6,51.7L9.4,51.5L9.1,51.7L9.2,52.8L9.4,53.0L10.5,52.7L11.8,52.7L12.5,52.9L12.9,53.1L13.2,53.4L14.5,56.1L15.4,57.2L16.3,57.9L16.8,58.1L17.4,58.4L18.5,58.9L21.4,58.9L21.5,59.1L21.5,59.4L20.6,60.5L20.5,60.7L19.4,61.8L19.0,62.5L18.6,62.9L16.8,65.9L16.2,67.5L15.7,68.4L15.3,70.5L14.1,72.7L13.7,74.1L13.6,75.3L13.3,76.3L12.8,76.9L12.1,77.7L11.8,78.3L11.4,78.7L11.1,78.9L10.9,79.4L10.1,80.1L9.4,80.5L9.2,80.7L9.1,81.0L9.6,81.6L10.2,81.7L11.8,79.8L12.2,79.0L13.3,77.5L14.0,76.9L14.5,76.7L14.7,76.5L15.0,75.3L15.8,73.7L15.9,72.8L16.4,72.0L16.8,71.1L17.2,70.7L17.5,70.9L17.3,71.8L17.2,72.1L17.3,72.7L17.6,72.7L17.7,71.8L18.0,71.3L18.3,69.9L18.8,69.1L19.2,67.6L19.8,66.5L20.0,65.8L20.5,64.6L20.8,63.7L21.3,62.7L21.6,62.4L21.9,62.4L22.0,62.5L22.1,63.2L23.1,64.2L23.2,64.9L23.5,65.4L24.2,67.3L24.3,68.4L24.7,69.7L24.7,70.1L25.0,70.4L24.8,72.5L24.7,72.9L24.4,73.0L24.0,72.3L23.9,72.0L23.7,71.9L23.5,72.0L23.7,74.1L23.3,77.4L22.8,78.0L22.7,78.5L22.4,78.9L22.0,79.7L21.4,80.6L19.6,84.0L19.0,84.5L18.8,84.7L17.8,84.7L17.2,84.5L16.3,83.3L15.9,83.3L15.8,83.5L15.9,83.9L17.5,85.4L18.0,85.6L18.6,85.5L19.3,85.1L19.7,84.7L21.3,81.9L21.6,81.6L21.9,81.6L22.1,81.8L23.1,83.9L24.8,85.7L25.5,86.2L25.7,86.4L26.7,87.0L27.4,87.3L28.4,87.3L29.7,86.6L30.6,85.7L31.6,84.2L32.3,82.8L32.7,82.4L33.1,82.4L33.6,82.9L33.9,83.0L33.6,82.1L33.1,81.1L32.9,80.4L32.3,79.4L32.2,79.0L31.7,77.8L31.1,77.0L31.0,75.9L30.5,74.7L30.6,73.2L30.3,72.8L30.1,72.8L29.7,72.5L29.5,72.1L29.5,71.7L29.2,71.0L29.0,71.4L28.3,72.0L26.7,72.1L25.7,71.1L25.5,70.6L25.5,69.9L25.7,69.6L26.5,69.8L28.4,69.7L28.8,70.0L29.1,70.6L29.3,70.8L29.7,68.9L29.9,66.9L30.1,66.3L30.1,65.8L30.3,65.3L30.6,65.0L30.8,64.9L31.0,65.1L31.0,66.1L31.2,66.4L31.4,66.3L31.4,64.6L31.7,64.2L31.9,63.2L31.9,61.4L32.1,61.4L32.6,62.0L33.1,63.5L33.3,63.6L33.3,64.1L33.7,65.2L33.8,66.2L34.3,67.5L34.4,68.5L34.8,69.4L34.9,70.3L35.4,71.1L35.7,71.2L35.8,71.1L36.0,70.1L36.3,70.6L36.5,71.9L36.3,72.1L36.0,72.1L35.8,72.3L35.8,72.7L36.0,73.0L36.0,73.9L36.7,75.6L36.9,77.2L37.2,78.4L37.4,79.9L37.4,82.2L37.6,82.1L37.8,81.8L37.9,80.8L37.6,77.2L37.0,75.0L36.9,73.8L37.1,73.5L38.4,75.4L39.3,76.3L41.0,78.7L42.4,80.3L42.8,81.1L43.2,81.4L43.6,81.4L44.1,80.9L44.2,80.3L43.9,79.9L43.5,79.8L42.9,79.4L42.1,78.7L41.5,77.5L41.1,77.2L40.4,76.3L40.1,75.5L40.0,74.6L39.6,73.8L39.3,72.8L39.0,71.9L38.6,71.3L38.1,70.1L37.8,69.8L37.7,68.8L37.2,67.6L36.9,66.3L36.0,64.6L35.1,63.1L34.9,62.5L33.6,60.7L33.3,59.8L33.6,59.4L35.5,59.3L36.8,58.9L38.6,57.6L39.6,56.8L41.0,55.3L41.5,55.3L42.2,55.6L43.4,56.5L43.9,57.0L44.7,57.6L45.1,57.6L45.5,57.4L45.8,57.2L45.8,56.7L45.4,56.4L45.1,56.4L44.1,56.0L43.4,55.4L41.9,54.0L41.0,53.6L40.7,53.6L40.2,53.8L39.3,54.3L38.4,54.8L37.4,55.7L36.9,56.0L35.0,56.5L33.1,57.7L32.2,57.9L31.9,57.9L31.8,57.6L32.0,57.4L32.6,57.0L33.6,56.1L34.5,55.6L35.0,55.1L35.2,54.8L36.2,53.9L36.5,53.1L37.3,52.6L37.7,52.5L37.9,52.2L39.0,51.7L40.0,50.7L40.6,50.5L41.2,50.5L43.5,51.0L43.9,51.2L44.4,51.2L44.6,51.0L44.4,49.7L44.2,49.5L42.5,49.7L42.0,49.5L41.0,49.4L40.6,49.3L37.9,49.3L36.4,50.1L35.6,50.9L35.3,51.4L34.3,52.2L33.4,53.1L32.8,53.8L32.6,54.3L32.1,55.1L31.4,55.6L31.1,55.5L31.0,54.7L31.3,54.1L31.4,53.5L31.4,52.4L31.0,51.4L30.1,50.4L30.1,50.0L31.5,49.1L32.7,47.8L33.2,46.8L33.4,46.6L34.2,44.1L34.1,43.3L33.8,43.1L33.3,43.3L33.1,43.8L32.6,46.4L31.5,47.9L29.8,49.3L29.1,49.3L28.8,49.0L28.1,48.9L25.7,49.0L25.0,48.7L23.1,47.0L21.4,43.9L20.7,43.1Z M26.5,85.9L26.7,85.8L27.1,85.7L28.9,85.9L28.9,86.1L28.4,86.6L27.4,86.6L26.7,86.3L26.5,86.1Z M31.9,81.7L31.8,82.5L31.7,82.8L30.0,84.2L29.5,84.3L27.0,84.2L26.5,84.4L25.5,84.2L24.2,83.8L23.3,82.9L22.9,82.3L22.8,81.9L23.0,81.8L23.3,81.8L24.3,82.3L24.8,82.3L26.0,82.8L27.6,82.9L29.4,82.6L30.4,82.1L30.7,82.0L31.3,81.6L31.7,81.6Z M22.9,79.2L23.0,78.8L23.5,77.8L24.1,77.2L24.3,77.2L24.8,77.5L25.7,77.9L27.1,78.1L28.0,78.0L28.8,77.7L30.5,77.3L31.0,77.8L31.3,78.5L31.4,79.5L31.4,79.7L31.0,80.2L29.8,80.8L28.6,81.1L26.6,81.3L25.2,81.2L24.5,81.0L23.5,79.9L23.0,79.5Z M29.8,74.9L29.8,75.3L29.1,75.9L28.6,76.1L27.6,76.1L26.7,76.3L25.7,76.3L25.2,76.0L24.7,75.6L24.7,75.1L25.0,74.9L25.2,73.9L25.5,73.5L25.7,73.5L28.1,73.7L28.7,73.4L29.0,73.4L29.3,73.7Z M24.3,64.7L24.4,64.6L24.7,64.6L25.9,65.7L26.5,66.0L27.5,66.1L27.6,66.0L27.8,66.2L27.4,66.4L26.2,66.4L25.9,66.7L25.9,66.9L26.3,67.3L26.7,67.5L27.6,67.5L28.1,67.2L29.1,66.4L29.3,66.4L29.5,66.5L29.5,67.0L28.8,67.7L28.0,68.2L27.4,68.3L26.7,68.3L26.3,68.2L25.5,67.5L24.7,66.8L24.3,65.9Z M26.4,61.3L26.7,61.1L26.9,61.1L27.4,61.3L27.5,61.6L27.3,61.8L26.9,61.8L26.7,61.7Z M23.9,59.8L24.4,60.5L24.6,61.8L24.3,62.1L23.2,62.5L22.8,62.2L22.7,61.1L23.6,59.8Z M23.8,57.2L24.5,56.7L25.0,56.5L25.2,56.7L25.2,56.9L25.5,57.2L26.5,57.3L27.1,58.2L27.1,58.6L26.8,58.8L25.6,58.7L25.3,58.9L25.0,58.9L24.3,57.9L23.8,57.4Z M26.9,50.0L27.7,50.0L28.1,50.4L28.1,50.8L27.8,51.4L27.7,52.1L27.5,52.6L27.2,52.6L27.0,52.2L26.6,50.9L26.6,50.3Z M117.7,47.8L117.5,47.6L115.7,47.8L114.5,47.4L111.2,47.4L110.0,47.7L109.4,48.1L108.3,49.3L108.0,49.6L106.4,51.2L105.2,52.9L104.7,53.4L104.5,53.4L104.3,53.2L104.3,52.6L104.6,51.8L104.6,50.6L104.0,49.3L103.3,48.7L103.2,48.3L104.0,47.6L104.4,47.4L105.2,46.6L105.9,45.7L106.6,44.1L107.0,43.0L107.3,41.6L107.2,41.1L107.0,40.9L106.6,40.9L106.1,41.4L106.1,41.9L105.7,43.6L105.2,45.0L104.0,46.3L102.5,47.4L101.9,47.4L101.3,47.1L98.8,47.2L98.2,47.0L96.1,45.2L95.5,44.3L94.9,43.2L94.6,42.8L94.2,41.9L93.6,41.2L93.0,41.3L92.9,41.4L92.9,42.1L93.4,42.9L93.7,43.6L94.7,44.9L95.0,45.6L95.8,46.5L95.8,46.8L97.2,47.9L97.1,48.3L96.6,48.7L96.1,49.1L95.6,50.1L95.4,50.6L95.4,51.4L95.8,52.2L95.8,52.5L95.6,52.6L95.4,52.6L95.1,52.4L94.4,51.4L93.4,50.5L93.0,50.3L92.6,49.8L91.9,48.0L90.4,46.5L89.6,46.2L88.7,45.5L87.9,45.3L87.5,45.0L87.2,45.0L87.0,44.7L86.3,44.7L86.0,44.8L85.8,45.6L85.8,46.3L87.2,46.3L87.9,46.6L88.2,46.8L88.9,48.5L91.1,51.0L91.3,51.7L91.4,52.5L92.0,53.5L92.6,54.0L92.6,54.4L91.0,54.3L89.1,53.8L88.9,53.6L88.9,53.0L88.7,52.6L87.5,51.4L87.2,50.7L86.5,50.4L85.9,50.3L85.3,50.1L82.8,50.0L82.3,49.8L81.7,49.8L81.5,50.0L81.5,50.5L81.8,51.5L82.2,51.7L83.1,51.3L83.6,51.2L85.1,51.3L85.5,51.4L85.8,51.9L86.2,52.6L86.3,53.1L87.2,54.8L88.2,56.0L88.7,56.4L89.3,56.5L90.5,57.2L91.5,57.5L92.5,57.5L93.6,57.7L93.8,57.9L93.8,58.4L93.2,59.2L92.5,60.1L92.1,60.8L91.5,61.5L90.5,62.9L90.1,63.9L89.7,64.4L89.4,65.2L88.8,66.2L88.2,67.7L88.0,69.1L87.3,70.4L87.3,70.6L87.0,71.1L87.0,71.6L86.5,72.7L86.3,74.1L86.0,74.9L83.9,78.0L82.7,79.1L82.2,79.7L82.1,80.2L82.3,80.6L82.7,80.9L83.0,80.9L83.3,80.6L83.6,79.9L84.2,79.3L84.8,78.3L85.5,77.5L86.2,76.3L86.9,75.8L87.6,75.5L87.8,75.3L88.4,73.8L89.0,72.1L89.3,71.9L89.4,71.5L89.5,71.4L89.6,71.6L89.4,74.0L89.5,74.3L89.6,74.3L90.1,73.3L90.1,72.8L90.6,71.5L90.7,70.7L91.0,70.1L91.0,69.7L91.5,68.4L91.7,68.3L92.1,66.8L92.9,65.2L94.1,61.7L94.3,61.5L94.5,61.4L94.8,61.7L95.1,62.4L94.9,64.1L94.9,64.6L95.1,65.6L95.1,66.8L95.9,69.1L96.0,69.8L96.3,70.6L96.3,74.5L96.2,75.3L95.4,77.5L94.3,79.0L93.9,79.9L93.0,81.4L92.7,82.3L92.0,83.0L91.0,83.7L90.7,83.7L90.0,83.3L89.4,82.4L89.2,82.0L88.8,81.5L88.4,81.6L88.4,82.7L89.6,84.0L90.1,84.3L90.8,84.5L91.2,84.5L92.0,84.2L92.9,83.4L93.4,82.5L93.8,82.0L93.9,81.6L94.5,80.8L94.7,80.8L94.9,81.0L95.0,81.4L95.8,82.9L97.5,84.7L98.5,85.5L100.4,86.3L101.5,86.3L102.9,85.5L104.5,83.6L105.2,82.1L105.6,81.6L105.9,81.6L106.6,82.3L107.3,83.6L107.9,84.2L108.5,84.5L109.3,84.5L109.7,84.4L110.2,83.6L110.2,83.0L110.8,81.7L111.0,80.6L110.9,77.0L110.7,76.4L110.6,75.3L110.2,74.1L110.2,73.5L110.4,73.3L111.0,73.9L111.5,74.6L112.2,75.2L112.6,76.1L114.0,77.6L114.2,78.0L115.0,78.7L115.7,79.9L116.4,80.4L116.9,80.4L117.1,80.1L117.3,79.4L117.3,79.0L116.9,78.7L116.2,78.5L115.4,77.7L114.7,76.5L113.8,75.4L113.4,74.8L113.1,73.9L113.1,73.1L112.6,72.1L112.6,71.5L111.9,70.2L111.3,68.8L111.1,68.6L110.7,67.6L110.8,66.8L110.2,65.0L109.6,63.9L109.4,63.2L108.8,62.4L108.0,60.9L107.2,59.9L106.4,58.4L106.4,58.1L106.8,57.9L107.6,57.9L109.0,57.6L110.2,57.1L110.6,56.9L110.8,56.6L112.0,55.9L114.0,53.8L114.3,53.7L115.0,53.8L117.6,56.2L118.1,56.2L118.6,55.7L118.9,55.7L119.2,55.4L119.2,55.0L119.0,54.8L118.0,54.6L117.4,54.3L115.8,52.9L115.3,52.4L114.5,52.0L113.7,52.0L112.9,52.4L111.9,52.8L110.2,54.3L109.5,54.5L108.5,54.5L107.1,55.1L106.6,55.0L106.6,54.8L106.8,54.5L107.9,53.8L109.1,52.6L109.5,51.6L110.0,51.1L110.9,50.7L111.5,50.2L112.5,49.8L113.2,49.1L113.8,48.8L114.7,48.8L116.4,49.1L117.1,49.4L117.6,49.4L117.9,49.2Z M100.5,85.2L100.8,84.9L101.1,84.9L101.3,85.2L101.2,85.4L100.7,85.4Z M104.4,81.2L104.4,81.4L103.9,81.9L103.4,82.2L102.8,82.9L101.5,83.0L100.1,82.9L99.6,83.1L98.9,83.1L98.5,82.9L97.5,82.8L96.8,82.2L96.2,81.5L96.3,81.1L97.3,81.2L98.5,81.7L98.7,81.7L99.3,82.1L99.7,82.2L100.0,82.1L100.9,82.1L101.6,81.8L102.2,81.7L103.8,81.0L104.1,81.0Z M95.8,78.0L96.2,77.0L96.5,76.6L96.5,76.4L96.7,76.2L97.2,76.2L97.8,76.6L98.5,76.7L98.9,76.9L100.1,77.0L100.7,77.2L101.2,77.1L102.1,76.6L103.4,76.4L103.7,76.6L104.0,77.1L104.2,77.8L104.2,78.3L102.4,79.7L100.9,79.8L100.4,80.0L99.4,80.0L99.1,79.9L97.8,79.9L97.5,79.7L95.9,78.2Z M102.4,73.5L102.4,74.1L101.9,74.6L101.6,74.7L100.6,74.7L99.9,74.9L99.2,74.9L98.5,74.7L97.9,74.1L97.9,73.7L98.3,73.0L98.8,72.6L99.3,72.4L101.2,72.5L101.4,72.3L101.8,72.3L102.0,72.5L102.1,72.9Z M101.8,69.0L101.6,70.0L101.1,70.6L100.5,70.7L99.9,70.6L98.9,69.6L98.7,69.4L98.7,68.9L98.9,68.7L100.0,68.7L100.3,68.9L100.9,68.9L101.2,68.7L101.6,68.7Z M96.3,64.7L96.7,65.3L96.8,65.9L97.1,66.8L97.2,67.8L97.6,68.9L97.5,70.6L97.4,70.8L97.1,70.7L97.0,70.5L97.0,70.1L96.7,69.1L96.6,68.0L96.1,66.6L96.0,65.2L96.1,64.8Z M97.8,64.6L98.2,64.6L98.1,65.0L97.9,65.1L97.7,64.9Z M105.3,60.5L105.6,61.0L105.8,61.7L106.2,62.7L106.4,63.7L106.6,64.4L106.8,65.5L107.1,66.3L107.3,67.7L107.8,68.6L107.9,69.6L108.3,70.4L108.8,72.7L109.0,73.4L109.3,73.9L109.5,74.9L109.7,75.6L109.8,76.6L110.2,77.7L110.3,79.2L110.1,80.8L110.1,82.0L109.8,82.6L109.1,83.5L108.5,83.6L108.0,83.3L107.6,82.7L107.0,81.6L107.0,81.3L106.8,81.1L106.7,80.7L105.6,78.7L104.8,76.6L104.0,74.9L103.9,74.2L103.5,73.0L103.5,71.6L103.2,71.2L102.9,71.1L102.5,70.4L102.3,69.7L102.4,68.7L102.8,67.0L102.9,66.0L103.5,64.1L103.7,63.9L103.9,64.1L103.8,64.5L104.2,66.8L104.4,67.4L104.5,67.4L104.7,66.8L104.5,66.0L104.5,63.7L104.7,62.9L105.0,61.9L105.0,60.7Z M99.8,48.3L100.3,48.3L100.6,48.8L100.6,49.0L100.3,49.3L100.1,49.3L99.7,49.0L99.6,48.6Z" fill="#000" fill-rule="evenodd"/>
</svg>