<svg xmlns="http://www.w3.org/2000/svg" viewBox="0 0 128 128" width="128" height="128">
  <path d="M18.5,34.9L16.1,36.5L14.3,38.0L14.1,38.5L12.2,40.4L11.6,41.7L10.4,43.5L10.3,44.3L9.6,46.2L9.4,49.0L9.4,51.1L10.0,54.6L10.7,56.7L12.5,59.7L15.5,62.8L16.4,63.3L17.2,63.9L18.6,64.8L20.8,65.9L22.6,67.2L24.0,67.9L24.4,68.0L30.3,70.9L30.5,71.2L31.6,71.7L32.3,71.9L34.7,73.2L35.5,73.4L36.8,74.3L39.0,75.4L39.9,76.1L42.0,77.4L45.0,79.8L46.3,81.2L48.7,83.4L51.0,86.4L51.1,86.8L53.1,89.8L53.2,90.2L53.9,91.3L55.0,93.8L55.2,94.9L56.2,97.5L56.7,100.0L57.6,103.0L57.8,104.7L58.1,105.4L58.3,107.5L58.6,108.3L58.7,110.0L59.1,112.2L59.3,114.6L59.5,115.3L59.7,115.5L59.9,115.5L60.1,115.4L60.2,114.9L60.2,108.3L60.0,105.7L60.1,102.1L59.8,96.9L59.8,86.6L59.6,77.2L59.7,74.3L59.3,65.9L58.7,60.0L57.7,55.1L57.6,53.9L57.4,53.4L56.8,51.1L55.9,49.1L55.2,47.0L54.6,45.8L52.7,42.7L52.0,42.0L51.9,41.6L50.7,40.2L47.9,37.5L46.6,36.7L46.0,36.2L45.1,35.9L44.3,35.3L43.3,35.0L42.6,34.3L40.8,33.8L40.2,33.4L39.3,33.3L38.9,33.0L37.5,32.8L36.6,32.5L35.0,32.3L33.2,31.9L27.9,31.9L24.1,32.6L22.4,33.3L21.6,33.4L19.9,34.3L19.6,34.3L18.9,34.8Z M109.5,32.8L108.2,32.3L105.7,31.6L105.0,31.2L103.1,31.1L102.3,30.8L99.7,30.6L95.5,30.7L92.9,31.0L91.9,31.3L89.9,31.6L88.4,32.3L87.0,32.6L82.2,35.0L78.3,38.1L75.6,41.0L75.4,41.4L73.9,43.5L73.0,45.2L72.9,45.8L72.1,47.2L70.8,50.8L69.9,55.2L69.9,56.2L69.7,57.4L69.7,59.6L69.5,60.2L69.5,62.3L69.3,63.3L69.1,66.5L69.2,69.8L69.0,75.2L69.1,77.9L69.0,85.8L69.2,90.4L69.2,101.3L69.4,103.8L69.2,107.4L69.3,111.8L69.1,115.1L69.2,115.6L69.5,115.9L69.8,115.8L69.9,115.5L70.2,111.9L70.6,110.1L70.6,108.2L71.0,106.8L71.1,104.9L71.4,103.8L71.5,102.5L72.0,101.1L72.6,97.8L73.4,95.6L73.6,94.7L73.9,94.1L74.4,92.6L74.9,91.5L75.2,90.7L77.1,86.7L78.2,85.0L79.8,83.0L84.5,78.3L89.9,74.4L91.2,73.7L92.4,72.9L106.6,65.9L109.7,63.7L111.9,62.0L113.5,60.5L115.9,57.6L116.9,56.0L118.3,52.7L118.7,50.6L118.9,46.3L118.1,42.6L117.1,40.0L115.8,37.7L113.1,35.0L111.6,33.9Z M61.3,12.3L60.3,12.6L58.5,13.6L57.4,14.8L56.3,16.4L55.8,17.8L55.5,19.1L55.4,20.9L56.0,23.2L56.9,24.8L57.5,25.5L59.3,26.9L60.1,27.3L62.1,28.0L64.1,28.0L65.2,27.9L66.7,27.4L68.5,26.4L69.7,25.2L70.5,24.2L71.5,21.7L71.5,18.1L71.0,16.6L70.2,15.4L69.0,14.1L67.9,13.3L66.7,12.7L65.2,12.3L64.0,12.1Z" fill="#000" fill-rule="evenodd"/>
</svg>