<svg xmlns="http://www.w3.org/2000/svg" viewBox="0 0 128 128" width="128" height="128">
  <path d="M64.2,9.1L64.0,9.1L63.6,9.4L62.2,10.6L61.0,12.2L60.3,12.9L58.3,15.4L55.7,19.1L55.3,19.5L52.5,23.6L51.5,25.3L51.2,25.6L48.6,30.1L45.5,36.2L45.0,36.9L44.8,37.8L44.0,39.3L43.4,41.0L42.6,42.6L42.5,43.1L41.8,44.8L41.4,45.9L41.3,46.1L41.2,46.6L40.4,47.7L39.3,47.8L37.7,47.8L30.4,47.9L10.3,47.9L10.0,48.0L9.8,48.2L9.8,48.6L10.6,49.9L10.7,50.4L12.2,52.6L13.2,54.6L13.5,54.9L14.4,56.5L16.6,59.6L16.7,60.0L20.1,64.3L20.1,64.5L22.6,67.4L23.0,68.0L25.5,70.8L29.0,74.5L33.7,78.9L34.3,79.7L34.5,80.3L34.3,85.5L34.7,93.7L34.9,95.3L35.1,98.5L35.4,99.5L35.4,100.2L35.9,103.9L36.3,105.0L36.7,105.3L37.6,105.3L38.5,105.1L40.5,104.8L41.5,104.5L42.9,104.4L45.0,103.8L46.6,103.6L47.4,103.2L50.1,102.6L51.4,102.1L53.2,101.7L59.2,99.6L60.2,99.6L60.4,99.8L60.5,100.4L60.4,118.5L60.7,118.8L61.2,119.0L63.0,119.1L66.1,119.0L66.4,118.6L66.6,106.7L66.5,101.1L66.6,100.1L66.9,99.6L67.6,99.6L68.6,99.9L69.9,100.4L70.5,100.5L72.2,101.2L75.8,102.3L76.7,102.7L77.3,102.8L78.1,103.1L79.0,103.2L79.7,103.5L80.8,103.6L81.0,103.8L83.2,104.4L84.3,104.5L85.2,104.8L90.1,105.6L90.8,105.6L91.2,105.4L91.3,105.1L91.4,104.1L91.9,102.3L92.0,101.0L92.2,100.0L92.2,99.2L92.5,97.3L92.5,96.3L92.7,95.7L93.1,91.7L93.1,90.1L93.3,88.9L93.2,84.5L93.3,79.8L94.1,78.9L94.5,78.7L98.0,75.5L101.6,71.9L105.2,67.9L105.7,67.2L108.7,63.6L111.4,60.1L115.0,54.9L115.2,54.2L115.5,53.9L115.9,53.1L116.6,52.2L118.5,48.7L118.5,48.3L118.0,48.0L114.7,48.0L111.5,47.8L90.8,47.8L87.9,47.8L87.4,47.6L87.0,47.2L86.9,46.6L86.6,46.3L85.7,43.6L85.0,42.1L84.9,41.6L84.5,41.0L84.5,40.7L83.6,38.7L83.4,38.3L83.0,37.1L81.5,34.3L81.0,33.4L80.1,31.5L78.9,29.5L77.9,27.6L77.4,26.8L77.3,26.5L76.1,24.8L75.9,24.2L71.5,18.0L69.9,15.9L69.6,15.4L68.5,14.1L68.3,13.7L66.3,11.4L64.5,9.3Z M87.0,85.4L87.1,88.1L86.9,92.9L86.7,93.6L86.4,97.5L86.2,98.3L85.9,98.5L84.7,98.5L83.3,98.2L82.2,97.8L81.0,97.6L80.8,97.5L79.1,97.2L77.2,96.5L75.1,95.9L74.2,95.5L73.9,95.5L73.2,95.2L72.3,94.9L71.7,94.4L72.1,93.9L76.0,91.8L77.5,90.8L78.6,90.3L79.2,89.7L79.7,89.6L80.4,89.0L83.0,87.5L84.1,86.6L85.4,85.9L85.8,85.5L86.6,85.1L86.8,85.1Z M40.6,85.0L41.1,85.0L46.5,88.8L47.6,89.3L48.6,90.1L49.2,90.4L52.3,92.4L54.9,93.8L55.3,94.1L55.3,94.5L54.2,95.1L52.6,95.6L52.0,95.9L47.4,97.2L42.7,98.3L41.4,98.3L41.1,97.9L41.0,97.2L40.7,94.0L40.5,92.5L40.3,89.1L40.3,85.5Z M107.1,54.1L107.4,54.5L107.4,54.9L105.9,57.0L105.7,57.4L103.6,60.1L103.3,60.6L100.0,64.4L99.5,65.2L98.2,66.4L96.9,68.0L93.3,71.3L92.8,71.5L92.5,71.1L92.2,68.7L91.8,66.8L91.7,65.6L91.5,64.8L91.4,63.8L91.0,62.4L90.9,61.4L90.4,58.9L89.3,55.1L89.3,54.3L89.6,54.1L90.1,53.9L92.9,53.8L106.6,54.0Z M20.5,54.0L21.1,53.8L37.6,53.8L38.2,54.0L38.5,54.4L38.5,54.9L36.9,61.2L36.9,61.6L36.4,63.5L36.4,64.0L36.1,65.1L36.0,66.1L35.4,69.5L35.4,70.2L35.1,71.3L34.9,71.5L34.5,71.5L32.6,69.8L32.1,69.1L30.7,67.8L25.8,62.2L24.4,60.4L23.2,59.0L23.1,58.6L21.4,56.5L20.3,54.8L20.2,54.3Z M82.9,54.5L84.0,58.4L84.0,58.9L84.6,61.1L85.8,66.7L86.9,75.0L86.8,76.8L86.0,77.8L82.8,80.2L81.3,81.2L80.3,82.0L79.7,82.3L79.4,82.6L75.4,85.3L70.2,88.2L68.6,88.9L67.3,89.7L66.4,90.1L65.6,90.5L65.1,90.6L64.3,91.1L63.6,91.3L62.8,91.2L60.4,90.0L58.1,88.6L56.3,87.8L55.1,87.0L53.9,86.5L50.9,84.5L50.5,84.4L49.3,83.4L48.5,83.0L43.4,79.3L41.1,77.5L40.8,77.1L40.7,75.5L41.2,71.3L41.8,68.1L41.8,67.0L42.8,62.0L43.4,60.5L43.6,58.8L44.8,54.6L45.5,54.0L46.7,53.8L80.8,53.8L82.3,54.0Z M63.5,18.9L64.2,18.8L66.0,20.9L68.0,23.7L68.4,24.1L69.1,25.3L69.5,25.7L73.2,31.6L75.2,35.5L75.8,36.3L75.9,36.9L77.9,40.8L80.2,46.8L80.2,47.4L80.0,47.6L79.5,47.8L78.3,47.8L48.6,47.8L47.9,47.8L47.5,47.4L47.4,47.0L47.7,46.0L49.4,41.8L49.8,41.4L50.7,39.1L53.4,33.8L56.1,29.2L59.4,24.1L61.8,20.9Z" fill="#000" fill-rule="evenodd"/>
</svg>