<svg xmlns="http://www.w3.org/2000/svg" viewBox="0 0 128 128" width="128" height="128">
  <path d="M63.2,8.9L61.6,9.2L60.1,9.6L58.6,10.3L58.3,10.6L57.7,10.9L56.3,12.1L55.1,13.7L54.7,14.6L54.1,15.2L53.6,15.3L48.0,15.3L47.7,15.4L47.1,15.8L46.9,16.3L46.5,18.1L45.8,19.8L45.5,21.4L44.7,23.5L44.6,24.1L43.8,26.5L43.6,27.4L43.4,27.9L42.8,30.0L42.6,30.3L42.5,31.3L41.8,32.9L41.6,33.8L40.5,37.1L40.4,38.1L40.1,38.6L39.9,39.4L39.8,39.6L39.6,40.8L38.8,43.0L38.7,43.6L38.5,44.0L37.7,46.7L37.2,48.1L36.3,51.8L36.0,55.1L36.0,57.0L36.3,60.9L36.8,62.4L36.8,63.1L37.4,64.7L37.7,65.3L37.7,65.9L38.2,66.7L38.6,67.8L39.7,69.7L41.7,72.8L42.5,73.8L45.2,76.4L48.8,79.2L51.9,80.9L55.0,82.2L56.2,82.5L57.7,83.0L58.1,83.3L57.7,83.6L57.3,83.7L50.2,83.7L49.1,83.8L46.9,84.6L46.0,85.0L44.8,85.9L43.9,86.9L42.8,88.3L41.9,90.7L41.6,92.1L41.6,93.5L41.8,94.6L42.2,95.8L43.4,97.9L45.2,100.0L50.3,104.9L50.8,105.3L52.5,107.1L53.2,107.6L53.7,107.6L54.1,107.4L59.3,102.1L60.2,101.3L60.5,101.2L60.9,101.2L61.1,101.4L61.2,102.2L61.3,113.6L61.5,118.5L61.6,118.8L62.0,119.1L65.6,119.2L67.8,119.0L68.3,118.5L68.4,117.7L68.2,116.8L68.3,114.8L68.1,102.6L68.3,101.6L68.5,101.4L68.9,101.4L69.2,101.5L71.2,103.3L72.9,105.1L73.3,105.4L75.2,107.2L75.7,107.6L76.4,107.6L85.5,98.6L86.5,97.2L87.1,96.0L87.2,95.6L87.5,95.0L87.7,93.8L87.7,91.8L87.4,90.3L86.9,89.0L86.0,87.4L84.0,85.4L82.9,84.7L81.8,84.2L80.1,83.7L75.4,83.5L71.9,83.6L70.8,83.5L70.7,83.1L71.1,82.8L71.8,82.7L72.3,82.4L73.0,82.3L75.2,81.3L75.5,81.3L76.7,80.7L77.0,80.7L77.3,80.4L78.8,79.6L80.4,78.5L82.8,76.7L85.2,74.4L86.5,72.7L87.7,71.0L88.1,70.5L89.5,67.9L90.2,66.4L91.2,63.8L91.2,63.4L91.8,61.0L92.2,57.6L92.2,55.0L91.9,51.9L91.2,48.5L90.8,47.6L90.6,46.9L90.0,45.4L89.4,43.4L88.7,41.7L88.6,41.0L88.1,39.9L88.1,39.7L87.9,39.4L87.8,38.8L87.4,37.8L87.4,37.5L87.1,36.9L86.9,36.0L86.7,35.9L86.2,34.0L85.8,33.3L85.8,32.8L85.5,32.2L85.3,31.4L84.6,29.7L84.6,29.1L83.8,26.8L83.4,26.0L83.0,24.6L80.0,15.6L79.5,15.1L78.9,14.9L74.7,15.1L73.0,14.9L72.2,14.2L72.1,13.7L71.0,12.3L70.0,11.3L68.8,10.4L67.2,9.6L65.9,9.2L64.6,9.0Z M69.0,91.0L69.5,90.6L70.6,90.6L78.9,90.6L79.5,90.9L80.0,91.3L80.4,92.0L80.4,93.0L80.3,93.5L79.7,94.3L77.9,96.2L76.4,97.5L76.1,97.7L75.5,97.7L74.8,97.2L69.6,92.2L69.0,91.5Z M59.7,90.6L60.2,91.1L60.2,91.3L59.6,92.1L54.4,97.4L53.5,97.9L52.8,97.7L50.8,95.7L50.6,95.7L49.7,94.8L48.9,93.7L48.8,93.3L48.8,92.3L49.0,91.8L49.6,91.0L50.5,90.6L53.9,90.5Z M78.0,33.1L78.4,33.5L78.5,34.1L79.0,35.1L79.6,37.3L79.8,37.7L80.4,39.6L80.7,40.2L81.4,42.5L81.7,43.0L83.3,48.1L83.9,49.6L84.1,50.6L84.6,51.9L84.9,53.4L85.0,58.1L84.5,61.1L83.7,63.6L83.1,65.0L82.6,65.7L82.5,66.2L82.1,66.8L79.8,69.8L78.2,71.5L76.8,72.7L74.2,74.3L72.2,75.2L70.1,76.0L68.0,76.5L66.2,76.8L62.5,76.9L59.3,76.4L58.9,76.2L57.8,76.0L57.4,75.8L56.5,75.5L55.9,75.2L55.4,75.1L54.1,74.4L53.9,74.4L51.3,72.7L50.1,71.8L49.6,71.3L49.3,71.1L48.8,70.4L48.0,69.7L46.5,67.8L45.6,66.2L44.8,64.6L43.9,62.5L43.4,60.2L43.0,57.8L43.1,53.7L43.7,50.5L44.5,48.1L45.2,45.4L45.8,43.9L45.9,43.1L46.6,41.1L46.6,40.8L47.1,39.7L47.1,39.1L47.5,38.2L47.9,36.5L48.9,33.6L49.2,33.3L49.7,33.4L50.4,34.5L50.8,35.6L51.3,36.5L52.3,38.8L52.5,39.4L53.3,41.1L53.6,42.2L54.2,43.2L56.8,49.3L57.0,49.6L57.4,50.7L58.1,51.9L58.3,52.8L58.7,53.6L59.0,54.5L59.5,55.1L59.6,55.6L60.7,58.1L61.1,59.2L62.0,60.8L63.6,64.6L63.8,64.9L64.3,65.0L65.3,62.9L66.7,59.3L67.3,58.1L68.1,55.7L68.6,54.9L69.0,53.6L69.8,52.0L70.7,49.5L71.3,48.2L73.1,43.6L73.8,42.4L74.2,41.0L74.7,39.9L75.2,38.5L76.0,36.8L77.2,33.7L77.8,33.1Z M73.8,21.8L74.1,22.1L74.1,22.7L73.4,24.7L73.2,25.0L73.0,25.8L72.7,26.1L72.5,26.8L71.3,29.5L71.0,30.7L70.1,32.7L70.1,32.9L69.8,33.4L69.6,34.0L69.3,34.5L69.2,35.0L68.4,36.5L68.3,37.1L67.2,39.6L67.1,40.0L66.3,41.8L65.9,43.1L65.6,43.6L65.3,44.3L64.9,45.1L64.8,45.5L64.3,46.6L63.9,47.0L63.6,47.0L63.3,46.8L62.4,44.8L62.4,44.5L62.0,43.9L61.1,41.6L60.8,41.2L60.6,40.4L59.8,38.8L59.3,37.6L58.7,36.5L58.7,36.1L58.3,35.5L57.9,34.2L56.6,31.7L56.5,31.2L55.8,29.7L55.7,29.3L55.4,28.8L55.2,28.1L54.6,27.1L53.7,24.8L53.4,24.3L52.8,22.6L53.1,22.2L53.3,22.1L54.0,22.1L54.5,22.3L56.0,24.6L57.3,25.9L58.8,26.9L60.0,27.4L60.5,27.5L61.5,27.9L62.4,28.0L64.4,28.0L66.7,27.6L68.7,26.7L70.7,25.0L71.9,23.5L72.4,22.5L73.0,21.9Z M63.1,15.5L64.2,15.5L64.8,15.7L65.5,16.2L66.3,17.3L66.5,18.1L66.4,19.3L66.1,20.2L65.7,20.7L65.3,21.1L64.1,21.5L62.9,21.5L61.7,21.0L61.0,20.3L60.5,19.1L60.6,17.7L61.1,16.7L62.0,16.0Z" fill="#000" fill-rule="evenodd"/>
</svg>