<svg xmlns="http://www.w3.org/2000/svg" viewBox="0 0 128 128" width="128" height="128">
  <path d="M57.6,9.4L55.4,10.0L54.5,10.1L54.2,10.3L51.8,10.5L51.1,10.9L49.6,11.2L44.6,12.8L42.8,13.8L41.9,14.0L40.4,14.9L39.8,15.1L38.2,16.0L37.0,16.6L34.5,18.2L33.2,19.2L32.4,19.6L30.5,21.3L29.1,22.3L28.7,22.8L27.5,23.8L23.6,27.8L22.9,28.7L22.7,29.3L22.2,29.6L21.0,31.0L20.1,32.2L19.8,32.8L18.9,34.1L18.0,35.7L17.6,36.1L15.4,40.3L15.3,40.7L15.0,41.2L12.9,46.7L12.3,48.4L12.0,50.1L11.8,50.6L11.0,54.6L10.4,58.4L10.3,60.3L10.2,60.8L10.2,66.8L10.4,68.8L10.5,70.9L10.7,72.2L10.7,73.3L11.1,74.6L11.9,78.2L12.1,78.7L13.1,82.4L13.7,83.9L13.9,84.7L14.4,85.5L14.8,86.7L16.2,89.8L17.5,91.9L18.0,92.9L18.5,93.5L19.2,94.8L21.1,97.6L22.9,99.7L23.6,100.8L27.1,104.4L27.5,104.6L30.0,106.9L30.6,107.2L32.2,108.7L33.8,109.6L34.2,110.0L35.3,110.6L36.9,111.8L41.4,114.1L41.8,114.2L43.3,114.9L43.9,115.1L44.7,115.5L45.4,115.7L46.4,116.2L47.4,116.5L49.1,117.2L51.3,117.7L52.6,117.9L53.2,118.1L56.2,118.6L56.9,118.8L58.7,118.9L59.3,119.0L61.8,119.1L62.2,119.0L62.4,118.6L62.4,111.8L62.1,110.5L62.2,101.3L61.8,99.5L61.3,98.8L60.5,98.0L60.1,97.7L59.1,97.5L57.1,97.5L55.5,97.7L54.6,98.0L52.5,98.5L51.3,98.9L50.0,98.9L47.6,99.7L46.5,99.8L43.0,100.9L39.6,101.4L37.4,101.4L36.5,101.3L35.5,100.9L35.3,100.6L34.7,100.4L33.7,99.3L33.0,98.0L33.1,96.2L33.4,95.2L34.0,94.4L35.3,93.3L37.7,92.4L39.0,92.4L40.6,92.7L42.0,93.1L44.0,93.3L45.4,93.7L46.4,93.8L47.2,94.0L48.0,94.0L49.3,94.4L51.3,94.7L51.9,94.9L52.9,95.0L55.8,95.6L57.8,95.7L59.1,95.6L60.7,94.9L61.9,93.9L62.3,93.2L62.8,91.7L62.8,90.5L62.2,89.0L61.7,88.5L60.7,87.7L59.1,87.0L58.3,86.7L56.8,86.7L55.7,86.9L54.6,87.3L53.3,87.4L52.5,87.8L50.5,87.9L49.2,88.5L47.7,88.8L47.2,89.0L46.6,89.0L45.4,89.4L41.1,90.3L40.2,90.6L38.1,90.8L36.1,90.5L34.6,89.7L34.0,89.0L33.2,87.9L32.9,86.8L32.9,86.2L33.2,84.8L33.9,83.6L34.8,82.8L36.5,82.0L37.4,81.6L39.1,81.6L41.8,82.0L42.4,82.3L46.1,82.9L48.3,83.5L51.5,84.0L52.1,84.2L55.3,84.9L58.3,84.9L58.9,84.8L59.7,84.4L60.4,84.2L61.1,83.7L62.2,82.5L62.6,81.1L62.6,79.8L62.3,78.8L61.8,77.9L60.9,77.1L59.1,76.3L58.3,76.1L55.7,76.2L54.1,76.6L52.5,76.7L51.2,77.2L47.4,77.9L46.5,78.3L45.1,78.4L44.3,78.8L43.4,78.8L42.1,79.2L39.8,79.7L37.3,79.8L36.1,79.6L34.5,78.8L33.5,77.8L32.7,76.0L32.7,74.7L32.8,74.0L33.6,72.6L34.9,71.6L37.0,70.7L39.6,70.7L41.5,71.2L42.2,71.2L42.8,71.4L44.4,71.7L47.6,72.5L49.2,72.6L50.9,73.1L53.2,73.4L55.4,74.0L56.6,74.2L58.4,74.0L60.5,73.0L61.8,71.8L62.2,70.9L62.4,69.8L62.4,68.7L61.9,67.5L61.5,66.9L60.5,66.1L58.5,65.0L57.8,64.9L56.2,65.1L54.7,65.5L52.7,65.7L51.2,66.3L50.3,66.4L47.6,67.2L46.8,67.3L45.9,67.6L43.9,67.9L43.0,68.2L42.0,68.3L39.6,68.9L36.5,68.9L35.4,68.5L35.0,68.2L34.4,68.0L33.3,66.9L33.2,66.6L32.8,66.1L32.4,64.8L32.5,64.0L32.8,62.9L33.9,61.5L34.4,61.0L34.9,60.7L35.2,60.5L37.2,59.9L39.1,59.9L41.4,60.4L42.5,60.5L43.7,60.7L45.4,61.3L47.0,61.6L47.6,61.6L50.1,62.3L55.2,63.3L57.6,63.4L58.7,63.2L60.5,62.4L61.4,61.5L61.7,61.1L62.3,59.5L62.3,58.5L61.9,57.2L61.5,56.6L60.6,55.6L59.5,55.0L57.8,54.4L56.4,54.4L54.1,55.0L50.9,55.7L50.0,56.0L49.1,56.1L48.8,56.2L48.5,56.2L46.4,56.9L45.5,57.0L42.7,57.8L41.8,57.8L41.2,58.1L40.2,58.3L39.9,58.4L38.2,58.7L36.6,58.6L35.6,58.3L34.0,57.3L32.9,56.2L32.4,54.3L32.5,52.9L33.0,51.9L33.9,50.9L35.8,49.8L37.1,49.6L40.1,49.7L41.7,50.2L43.5,50.4L44.3,50.6L46.0,50.9L46.8,51.1L47.9,51.2L48.9,51.5L50.2,51.6L52.3,52.1L53.3,52.2L54.2,52.5L55.1,52.5L56.5,52.7L57.4,52.7L58.5,52.5L60.1,51.7L61.5,50.3L61.8,49.6L61.9,48.7L61.8,46.9L61.5,46.1L60.0,44.6L59.6,44.3L57.9,43.7L55.8,43.7L53.3,44.1L51.7,44.7L49.8,45.0L49.4,45.2L47.8,45.7L46.5,45.9L45.3,46.3L44.1,46.4L41.7,47.2L39.8,47.5L38.5,47.9L37.5,47.9L35.2,47.5L34.9,47.2L34.1,46.8L33.4,46.2L32.9,45.4L32.5,43.9L32.3,36.2L32.4,31.3L32.7,30.8L33.5,30.6L36.5,30.7L37.1,30.5L41.8,30.4L48.4,30.4L52.1,30.2L55.4,30.3L56.6,30.1L60.1,30.1L61.3,30.0L66.0,30.0L66.8,29.9L68.7,29.8L72.3,29.9L75.1,29.7L84.1,29.7L87.6,29.5L93.7,29.5L94.1,29.6L94.5,30.1L94.7,32.2L94.8,42.7L94.6,43.7L94.3,44.5L92.9,45.9L91.1,46.7L90.3,46.8L88.2,46.8L85.8,46.4L83.6,45.8L82.5,45.7L80.4,45.1L77.9,44.7L76.7,44.3L74.6,44.0L72.2,43.4L70.2,43.3L68.9,43.5L67.0,44.7L66.1,45.7L65.6,46.5L65.5,47.2L65.5,48.7L66.0,49.8L66.4,50.4L67.1,51.1L67.9,51.7L68.7,52.1L70.6,52.4L72.3,52.2L73.0,52.0L74.5,51.7L80.6,50.2L82.9,49.8L84.2,49.4L86.0,49.2L86.6,48.8L89.0,48.4L91.0,48.5L92.0,48.8L93.0,49.3L93.9,50.1L94.5,50.7L95.3,52.2L95.3,53.0L95.1,53.6L95.0,54.4L94.2,55.7L93.1,56.7L92.2,57.3L90.7,57.7L89.0,57.8L87.4,57.4L85.7,57.1L85.2,56.9L82.6,56.5L81.2,56.1L80.7,56.1L79.8,55.8L77.9,55.5L75.7,55.0L73.8,54.7L71.6,54.2L69.5,54.3L68.1,55.0L67.3,55.5L66.5,56.4L66.0,57.2L65.7,58.0L65.7,59.1L65.9,60.1L66.4,61.1L67.5,62.3L69.5,63.2L71.4,63.3L73.7,62.9L74.2,62.7L74.6,62.7L74.9,62.5L75.3,62.5L75.9,62.3L77.9,61.9L78.4,61.6L79.2,61.4L80.7,61.2L82.9,60.5L84.1,60.3L84.8,60.0L87.9,59.4L88.4,59.1L90.6,59.0L91.4,59.1L92.3,59.4L93.5,60.1L94.4,60.9L94.9,61.8L95.3,63.3L95.1,64.8L94.8,65.6L93.5,66.9L92.3,67.7L91.1,68.1L88.9,68.3L88.5,68.1L87.4,68.1L86.1,67.7L84.1,67.3L83.0,67.0L82.1,66.9L81.6,66.7L79.5,66.4L78.8,66.1L77.8,66.1L75.9,65.6L75.6,65.4L73.7,65.2L72.0,64.8L70.2,64.8L68.7,65.2L68.2,65.4L66.9,66.7L66.1,68.0L65.9,69.0L65.9,69.7L66.1,70.6L66.5,71.4L66.9,72.1L67.8,72.9L68.7,73.4L69.4,73.7L71.6,73.8L72.1,73.7L73.4,73.6L75.9,72.9L77.4,72.6L79.4,72.0L81.5,71.7L83.6,71.0L86.4,70.5L86.6,70.3L89.5,69.8L91.7,70.0L93.1,70.6L93.9,71.1L94.8,72.2L95.4,73.4L95.4,75.5L94.9,76.4L93.5,77.9L92.6,78.5L91.7,78.8L90.7,79.0L89.1,79.0L84.0,77.9L83.0,77.9L80.4,77.2L79.6,77.2L72.9,75.7L70.3,75.7L69.5,75.9L67.7,76.8L67.0,77.5L66.5,78.2L66.1,79.8L66.1,80.8L66.2,81.6L66.6,82.5L68.1,83.8L69.8,84.6L72.6,84.7L73.6,84.4L74.9,84.2L75.5,84.0L76.2,83.9L76.7,83.7L80.0,82.9L81.6,82.6L82.6,82.2L83.7,82.1L86.3,81.3L87.3,81.2L88.5,80.7L91.1,80.6L92.7,81.1L93.8,81.7L95.1,83.1L95.5,84.0L95.6,84.9L95.6,85.7L95.4,86.6L94.8,87.8L93.9,88.6L92.4,89.4L90.9,89.9L89.9,89.9L86.6,89.4L86.4,89.3L85.8,89.3L84.6,88.9L82.6,88.6L80.6,88.1L78.2,87.8L77.9,87.6L72.6,86.6L70.9,86.6L69.6,86.7L68.3,87.4L67.0,88.6L66.5,89.4L66.3,90.5L66.3,91.6L66.5,92.6L67.3,93.8L68.0,94.4L69.2,95.3L69.7,95.5L72.2,95.6L73.3,95.4L78.4,94.0L80.4,93.7L81.6,93.3L83.0,93.0L84.0,92.9L84.9,92.5L85.7,92.4L87.4,91.9L89.8,91.5L91.8,91.6L92.5,91.8L93.5,92.3L94.3,92.8L95.4,94.0L95.8,95.2L95.8,96.8L95.3,98.1L94.1,99.4L92.8,100.1L91.9,100.5L90.8,100.6L89.8,100.6L88.6,100.4L87.0,100.3L85.2,99.8L84.1,99.7L82.6,99.3L82.0,99.3L78.6,98.5L77.5,98.5L76.8,98.2L74.0,97.8L73.2,97.6L70.4,97.6L68.8,98.1L68.1,98.8L67.8,99.3L67.3,100.7L67.3,103.9L67.4,108.5L67.3,110.7L67.5,112.6L67.5,118.3L67.6,118.6L68.1,119.0L69.4,119.0L70.1,118.8L71.9,118.7L74.0,118.1L75.2,118.1L76.6,117.7L78.6,117.3L79.8,116.9L80.3,116.5L81.6,116.2L82.6,115.8L83.3,115.7L83.7,115.4L85.1,114.9L86.2,114.3L87.8,113.6L88.4,113.2L90.6,112.3L91.6,111.4L94.0,110.0L95.6,108.9L96.0,108.7L99.9,105.5L102.1,103.4L103.4,101.9L105.0,100.4L105.4,99.7L107.9,96.5L108.0,96.1L108.9,95.1L109.4,94.1L111.1,91.5L111.2,91.2L111.5,90.8L111.6,90.4L112.1,89.6L112.7,88.2L113.1,87.6L113.3,86.6L114.5,84.4L115.3,81.8L115.7,80.8L115.8,80.0L116.7,77.1L117.5,73.0L117.8,70.0L117.8,68.9L118.1,68.1L118.1,62.6L118.0,61.7L118.0,59.5L117.7,58.3L117.7,57.5L117.6,57.0L117.3,54.3L116.6,52.0L116.6,51.3L115.7,48.0L115.1,46.3L114.9,45.4L114.2,43.9L114.1,43.4L113.3,41.4L111.6,38.1L111.0,36.8L110.4,36.1L108.3,32.4L104.4,27.5L100.7,23.7L98.9,22.1L98.1,21.6L96.8,20.3L92.6,17.3L87.0,14.4L86.6,14.3L84.4,13.1L83.7,13.0L82.2,12.2L80.8,11.9L78.8,11.1L76.8,10.7L75.9,10.2L74.7,10.3L73.6,10.1L72.8,9.8L71.0,9.7L67.6,9.2L63.0,9.1L62.1,9.3L60.2,9.3L59.1,9.5Z M105.5,55.4L105.0,56.1L104.5,56.0L104.6,55.8L105.3,55.4Z M105.0,53.4L105.3,53.5L105.8,54.2L105.5,54.8L104.9,53.8Z M104.6,53.1L104.6,53.3L104.4,53.3L103.9,53.7L103.8,54.2L103.7,55.2L103.2,55.4L103.0,55.2L103.0,54.2L103.2,53.8L104.0,53.0Z" fill="#000" fill-rule="evenodd"/>
</svg>