<svg xmlns="http://www.w3.org/2000/svg" viewBox="0 0 128 128" width="128" height="128">
  <path d="M62.3,59.5L60.8,60.0L59.6,60.6L59.0,61.0L57.8,62.2L57.1,63.1L56.6,64.2L56.1,65.8L56.0,67.1L56.2,69.0L56.7,70.7L58.0,72.6L58.9,73.4L60.3,74.3L61.3,74.7L62.5,74.9L62.8,75.1L65.2,75.1L67.6,74.3L68.9,73.3L70.1,72.0L70.8,71.0L71.3,69.9L71.7,68.1L71.7,66.6L71.2,64.6L70.5,63.1L69.6,62.0L67.8,60.5L65.9,59.7L64.6,59.4Z M24.6,36.1L21.9,37.1L19.9,38.0L17.3,39.8L14.4,42.4L12.3,45.1L12.3,45.2L12.7,45.6L13.9,45.2L15.9,45.2L17.9,45.9L18.9,46.6L19.9,47.6L21.0,49.3L21.5,51.1L21.5,52.6L21.1,54.2L20.3,55.6L18.7,57.3L16.5,58.1L13.9,58.1L12.8,57.9L11.4,57.3L10.3,56.4L9.7,55.6L9.2,55.6L9.1,57.1L9.3,57.8L9.3,58.9L9.8,61.6L11.1,65.0L12.7,67.8L13.5,68.7L13.6,69.1L15.0,70.7L16.7,72.4L18.1,73.5L20.1,74.7L23.2,76.1L23.9,76.2L25.7,76.7L27.5,76.9L28.0,77.1L31.4,77.1L34.1,76.7L35.3,76.3L36.1,76.3L36.3,76.6L35.8,76.9L33.7,77.8L31.3,79.2L30.8,79.8L30.1,80.2L28.2,82.0L27.0,83.5L25.2,86.0L24.6,87.6L24.2,88.2L23.9,89.4L23.5,90.3L22.8,92.9L22.7,94.5L22.8,98.3L23.2,101.0L24.1,103.6L24.2,104.2L26.0,107.7L27.2,109.3L27.5,109.5L27.7,109.1L27.8,107.5L28.2,106.4L29.0,105.0L30.0,103.8L31.9,102.8L33.4,102.4L34.9,102.4L36.5,102.7L38.2,103.8L40.0,105.8L40.4,106.7L40.7,107.9L40.7,109.9L40.4,111.3L39.4,113.1L37.8,114.6L35.9,115.5L36.0,115.7L36.7,116.1L37.7,116.4L38.3,116.7L39.4,116.8L40.1,117.0L40.8,117.0L41.4,117.2L42.8,117.2L46.6,116.9L49.8,116.1L50.3,115.8L50.9,115.7L53.0,114.7L53.2,114.5L54.3,113.9L56.5,112.3L59.3,109.5L60.3,107.9L60.7,107.5L61.8,105.4L62.0,104.6L62.4,104.2L62.4,103.9L62.8,103.1L62.9,102.2L63.2,101.8L63.8,97.8L63.6,93.6L63.3,91.8L62.8,90.3L62.7,89.7L61.1,86.1L60.1,84.6L57.7,81.7L55.8,80.0L53.0,78.0L52.5,77.8L52.2,77.8L50.7,77.0L46.8,75.8L44.2,75.5L43.8,75.4L41.2,75.7L39.7,75.7L39.0,75.9L37.8,75.8L38.1,75.5L39.2,75.1L41.0,73.9L41.6,73.5L42.2,73.2L45.3,70.3L47.1,67.8L48.4,65.6L49.8,61.8L50.2,59.8L50.4,56.0L50.3,54.4L50.0,53.0L49.8,51.6L48.6,48.1L47.8,46.5L47.7,46.1L47.0,45.2L46.3,44.0L45.3,42.6L44.2,41.5L41.6,39.3L40.3,38.6L39.4,37.9L38.6,37.6L37.5,37.1L36.6,36.8L35.7,36.3L32.9,35.7L30.9,35.5L26.5,35.7Z M103.9,35.7L100.9,35.1L100.1,35.1L98.5,34.7L97.8,34.7L97.6,34.9L96.3,34.9L93.3,35.4L91.3,35.9L89.5,36.6L89.1,37.0L88.3,37.2L87.8,37.6L86.6,38.2L85.8,38.7L83.4,40.8L81.0,43.3L79.8,45.1L78.7,47.3L78.7,47.6L77.9,49.6L77.2,52.9L77.0,54.5L77.0,56.7L77.2,58.9L77.6,60.9L77.7,61.1L78.5,63.7L79.3,65.4L80.3,67.1L82.2,69.7L84.2,71.7L85.7,72.8L88.5,74.6L90.8,75.6L90.7,75.9L89.8,75.9L88.9,75.6L88.2,75.6L87.6,75.5L83.0,75.4L81.8,75.5L78.2,76.4L75.0,77.9L72.5,79.6L70.3,81.6L68.0,84.3L67.2,85.7L65.9,88.3L65.2,90.1L64.5,93.3L64.4,97.9L64.7,99.8L65.2,101.8L65.6,102.6L66.0,104.1L66.4,104.9L66.5,105.3L67.1,106.4L68.4,108.4L69.7,110.0L71.1,111.5L74.1,113.9L75.9,114.9L79.0,116.2L82.3,117.0L83.8,117.2L87.1,117.2L90.9,116.5L92.7,115.9L92.8,115.6L92.7,115.5L91.9,115.1L90.3,114.2L88.9,112.5L88.3,111.1L87.9,109.7L87.9,108.4L88.3,106.5L88.6,106.3L88.8,105.6L89.6,104.6L90.3,103.9L91.3,103.3L92.5,102.7L93.5,102.5L95.6,102.5L96.0,102.7L96.9,102.9L98.7,103.8L99.7,104.9L100.6,106.2L101.1,107.5L101.3,109.5L101.7,109.4L102.4,108.6L103.5,106.7L103.8,106.4L104.4,104.9L104.7,104.4L105.6,101.8L106.0,99.5L106.2,97.2L106.1,94.1L105.8,92.2L105.4,90.6L105.2,90.4L105.2,90.1L104.7,88.5L103.5,86.0L103.2,85.8L102.9,85.1L100.6,82.0L98.3,80.0L96.3,78.5L95.5,78.2L94.3,77.4L92.3,76.6L92.1,76.4L92.2,76.2L92.7,76.1L94.1,76.5L96.6,76.8L99.7,76.8L103.3,76.3L106.9,75.1L107.2,74.8L109.1,73.9L109.4,73.5L110.0,73.3L110.7,72.7L111.2,72.4L112.5,71.2L114.8,68.8L116.6,66.1L117.5,64.2L117.7,63.4L118.3,62.0L119.0,59.0L119.1,57.1L119.0,54.6L118.7,54.5L117.3,56.1L116.1,56.9L113.7,57.7L112.9,57.7L111.6,57.5L109.7,56.8L108.5,55.9L107.6,54.9L107.1,54.2L106.5,52.8L106.3,51.3L106.3,50.5L106.5,49.1L106.8,48.7L106.9,48.0L107.5,47.1L108.1,46.4L109.0,45.6L110.9,44.6L112.6,44.4L115.3,44.5L115.4,44.4L115.4,44.1L113.7,42.0L111.3,39.6L110.1,38.7L108.1,37.5L106.4,36.7L106.1,36.5L104.9,36.2Z M57.3,11.1L54.7,12.0L53.9,12.6L53.2,12.9L51.0,14.3L48.2,16.9L46.3,19.2L45.2,21.0L44.2,23.0L43.5,25.0L42.8,28.2L42.6,31.8L42.7,33.4L43.1,36.1L43.6,37.3L43.8,38.2L44.0,38.6L44.2,39.5L45.0,40.8L45.1,41.4L46.7,44.0L49.5,46.8L52.8,49.2L54.8,50.3L55.1,50.3L56.7,51.1L57.7,51.3L58.0,51.5L60.0,51.9L60.8,51.9L62.1,52.1L65.2,52.1L68.5,51.6L70.4,51.0L70.7,50.8L71.2,50.7L72.5,50.0L72.9,49.9L73.4,49.5L75.2,48.5L76.5,47.6L77.8,46.4L79.2,44.9L80.1,43.6L80.5,43.3L81.1,42.0L81.5,41.6L83.0,38.2L83.9,34.8L84.2,32.3L84.2,30.2L84.0,28.2L83.4,25.5L82.4,22.6L82.1,22.2L81.9,21.7L81.4,20.6L80.2,18.9L78.6,17.0L76.1,14.7L73.8,13.1L72.5,12.4L71.6,12.0L70.7,11.6L69.0,11.1L68.4,11.1L68.4,11.5L68.9,12.3L69.4,13.3L69.7,14.6L69.7,16.3L69.4,17.7L68.9,18.9L68.3,19.7L66.3,21.3L64.6,22.0L62.4,22.1L61.1,21.8L60.0,21.3L58.0,19.7L57.5,19.1L56.7,17.0L56.5,15.5L56.7,14.1L57.0,13.1L57.9,11.5L57.8,11.1Z" fill="#000" fill-rule="evenodd"/>
</svg>