<svg xmlns="http://www.w3.org/2000/svg" viewBox="0 0 128 128" width="128" height="128">
  <path d="M75.5,86.6L74.8,86.6L74.0,86.9L71.1,87.6L68.8,87.8L67.9,88.0L66.5,88.0L65.8,88.2L62.0,88.1L61.3,88.0L60.4,88.0L60.0,87.8L59.1,87.8L56.8,87.3L56.2,87.3L55.5,87.1L55.1,87.1L54.8,87.3L54.8,87.6L55.1,87.8L58.2,89.4L60.3,91.0L61.7,92.7L62.7,94.8L63.5,97.0L63.5,98.2L63.8,99.1L63.9,100.8L63.9,105.1L63.6,108.1L63.7,108.4L64.2,108.8L66.6,108.8L66.9,108.6L67.1,108.3L66.8,106.1L66.8,104.8L66.7,104.4L66.7,101.3L67.1,97.3L67.8,94.3L68.0,93.8L69.0,92.1L70.3,90.6L71.6,89.5L73.3,88.4L75.5,87.4L75.8,87.1L75.8,86.8Z M43.7,79.4L43.7,79.6L44.2,80.1L46.3,81.4L49.3,82.9L49.9,82.9L49.9,82.6L47.9,80.6L47.3,80.3L46.6,80.2L46.0,79.9L45.3,79.7L44.3,79.3L43.8,79.3Z M86.2,78.4L85.5,78.4L84.9,78.8L83.0,79.4L82.1,79.9L81.6,80.6L80.6,81.7L80.6,82.2L80.9,82.2L82.5,81.4L84.9,79.8L86.2,78.8Z M39.1,71.5L39.1,71.8L41.6,74.1L42.6,74.6L43.7,75.5L44.3,75.7L44.6,75.6L44.5,75.2L43.8,73.8L43.3,73.4L41.3,72.5L40.7,72.0L40.2,71.8L39.5,71.3L39.2,71.3Z M90.6,70.8L90.0,70.9L88.8,71.7L86.5,73.0L85.3,74.6L85.3,75.2L85.7,75.3L88.2,73.6L90.1,71.8L90.6,71.3Z M36.1,61.5L36.1,61.8L36.5,62.5L36.6,62.8L37.2,63.4L38.4,65.3L40.5,67.7L40.9,67.7L40.9,67.4L40.7,66.5L40.5,66.2L40.4,65.5L40.0,64.8L38.7,63.7L36.3,61.4Z M92.9,60.6L92.5,60.8L92.4,61.1L91.1,62.5L89.3,64.4L88.9,64.8L88.6,66.5L88.4,66.9L88.5,67.4L88.9,67.3L89.3,66.9L91.3,64.2L91.5,63.6L93.0,61.1Z M37.1,51.8L37.0,52.2L37.3,52.6L37.3,53.1L38.3,55.3L38.6,56.3L39.0,56.9L39.1,57.5L39.8,58.7L40.0,59.2L40.4,59.3L40.6,59.0L40.9,58.0L41.0,57.4L40.7,56.6L40.0,55.9L38.4,53.5L38.2,53.1L37.6,52.2Z M92.0,50.7L91.8,50.7L91.4,51.2L91.4,51.4L90.6,52.8L90.0,53.4L89.3,54.9L88.3,56.1L88.2,56.8L88.4,57.6L88.6,58.2L89.0,58.5L89.5,57.9L89.7,57.2L90.9,54.9L91.1,53.8L91.8,52.2L92.1,51.1Z M9.2,49.9L9.2,50.5L10.2,51.6L10.8,52.6L11.4,53.1L14.3,56.9L14.7,57.8L16.1,59.5L17.8,62.2L19.7,65.5L19.9,66.2L20.2,66.5L21.2,68.4L21.9,69.5L23.4,72.7L23.6,73.0L24.2,74.3L25.3,76.1L26.3,78.3L26.8,78.9L28.4,81.9L29.1,82.9L29.5,83.7L29.5,84.3L29.0,84.8L27.7,85.3L26.0,85.7L22.3,85.5L21.0,85.3L20.6,85.4L20.5,85.6L21.0,85.9L23.3,86.4L24.5,86.9L25.6,87.2L28.0,88.4L28.6,88.5L28.9,88.7L30.0,89.1L31.1,89.7L31.7,89.8L31.9,90.1L32.3,90.2L36.4,92.1L38.6,93.8L39.0,94.2L39.9,94.9L41.0,96.1L41.1,96.6L40.9,97.0L39.9,97.7L39.3,98.0L37.5,98.5L34.0,98.3L33.7,98.5L33.7,98.9L36.6,99.3L39.8,99.5L41.3,99.8L42.4,99.9L46.1,100.8L46.4,101.0L48.6,101.5L49.4,101.8L50.6,102.1L51.1,102.3L52.0,102.4L54.1,103.1L55.6,103.4L55.8,103.6L58.4,104.2L58.8,104.2L59.3,104.4L61.0,104.7L62.4,104.6L62.6,104.4L62.7,104.0L62.7,102.9L62.6,102.6L62.4,102.4L61.9,102.2L61.3,102.1L59.8,101.6L58.6,101.1L53.6,98.0L49.6,94.7L47.1,92.4L46.0,91.1L43.3,87.0L39.0,78.2L37.9,76.1L37.1,74.9L36.4,73.3L35.8,72.7L35.4,72.7L35.3,73.2L37.2,77.0L38.0,79.1L38.5,81.5L38.7,81.7L38.7,82.2L39.0,83.2L38.9,86.3L38.4,86.7L37.8,86.6L36.4,85.4L35.2,84.0L31.8,78.7L30.7,76.7L30.7,76.2L30.3,75.7L29.4,73.1L29.0,72.3L27.8,68.9L26.4,63.6L26.4,63.2L26.1,62.2L26.0,60.8L25.7,59.7L25.6,57.9L25.4,57.5L25.3,57.4L24.9,57.4L24.8,58.2L25.2,61.9L25.5,63.3L25.5,66.2L25.0,68.2L24.8,68.7L24.5,69.1L23.9,69.1L23.5,68.7L23.0,67.6L22.0,66.3L19.8,62.5L19.3,61.8L17.6,59.3L16.5,58.0L16.4,57.6L12.5,53.0L9.9,50.1L9.5,49.8Z M119.0,48.9L118.6,48.9L117.2,50.2L115.1,52.6L113.7,54.5L112.4,56.1L108.2,62.5L107.4,64.0L107.1,64.3L107.1,64.6L105.8,66.6L105.2,67.3L104.9,67.4L104.5,67.4L104.1,67.1L103.8,65.5L103.6,63.9L103.6,60.9L103.7,60.0L104.2,57.7L104.2,56.4L103.9,56.1L103.6,56.2L103.3,57.2L103.1,59.5L102.7,60.8L102.2,64.1L101.9,65.0L101.4,67.6L100.4,71.0L99.2,74.6L98.5,76.0L98.5,76.3L97.3,78.6L94.9,82.6L93.3,84.4L92.3,85.4L92.0,85.5L91.6,85.5L91.1,85.3L90.9,83.6L91.0,81.5L91.5,79.3L92.4,76.2L94.1,72.4L94.1,71.9L93.7,71.8L93.1,72.6L91.7,75.5L91.3,76.0L91.3,76.3L88.9,81.2L88.2,83.3L87.8,84.0L86.9,86.1L85.3,89.2L84.1,90.8L79.8,95.5L75.9,98.6L74.0,99.9L73.7,99.9L72.2,100.8L70.7,101.5L68.5,102.1L68.2,102.6L68.2,103.9L68.2,104.2L68.5,104.4L71.1,104.1L76.0,102.9L77.9,102.3L78.4,102.0L80.6,101.5L83.9,100.2L84.2,100.2L84.9,99.9L86.5,99.4L88.5,99.3L89.2,99.0L90.2,98.9L91.5,98.6L92.7,98.4L93.6,98.1L94.5,98.0L95.4,97.7L96.4,97.6L96.7,97.2L96.7,97.0L96.4,96.7L95.7,96.7L94.7,97.1L92.9,97.2L91.5,97.1L90.4,96.4L90.0,96.0L90.0,95.7L90.7,94.4L94.0,91.2L95.0,90.4L95.9,90.0L99.1,88.2L100.4,87.6L100.9,87.3L101.5,87.1L102.0,86.7L104.9,85.6L105.7,85.1L108.7,84.4L109.3,84.0L109.3,83.7L109.1,83.6L108.2,83.6L107.1,83.8L104.5,84.0L103.2,84.0L102.1,83.6L101.1,83.2L100.6,82.7L100.6,82.2L101.0,81.2L101.7,80.1L101.9,79.6L103.1,77.1L103.5,76.7L103.9,75.3L105.2,73.1L105.8,71.4L107.5,68.0L107.6,67.4L108.1,66.5L108.3,66.2L110.1,62.5L110.4,62.3L111.1,60.9L111.3,60.7L111.5,60.0L112.6,58.5L112.9,57.7L113.7,56.6L114.2,55.6L115.2,54.3L116.3,52.7L118.8,49.6L119.1,49.2Z M43.8,54.9L43.5,55.7L43.3,56.0L43.1,56.5L42.7,57.4L41.9,59.7L41.9,60.1L42.2,60.5L44.1,61.3L45.3,61.5L46.2,61.9L46.8,62.0L47.1,62.3L47.2,62.6L46.6,63.6L44.1,66.6L42.4,68.4L42.4,68.8L43.1,69.3L45.3,70.0L47.8,70.6L50.1,70.9L50.9,71.2L51.0,71.8L50.2,72.7L47.8,75.0L46.4,76.2L46.4,76.5L47.2,77.0L47.7,77.1L48.9,77.6L51.4,78.2L51.6,78.3L56.6,79.3L56.9,79.4L57.0,80.0L55.6,81.3L52.9,83.3L52.4,83.4L52.4,84.0L54.1,84.7L54.7,84.7L55.5,85.1L56.3,85.1L56.9,85.4L59.0,85.8L59.7,85.8L61.4,86.1L65.6,86.2L67.2,86.1L67.8,85.9L68.6,85.9L69.6,85.7L71.3,85.5L75.5,84.4L77.3,83.7L77.8,83.3L77.8,83.1L77.5,82.8L76.8,82.5L76.5,82.2L74.3,80.7L73.4,80.0L73.3,79.5L73.7,79.2L75.0,78.9L76.4,78.7L80.7,77.5L82.7,76.7L83.8,76.1L83.8,75.8L83.5,75.3L81.9,74.3L80.9,73.4L79.8,72.6L78.8,71.7L78.7,71.3L78.9,71.1L80.6,70.6L81.4,70.5L81.8,70.3L82.8,70.2L84.5,69.6L84.8,69.4L86.4,68.8L87.5,68.2L87.5,67.6L83.1,63.7L81.8,62.3L81.8,62.0L82.1,61.7L86.1,60.5L87.2,60.0L87.5,59.7L87.5,58.9L87.0,57.5L85.7,55.0L84.2,53.0L84.1,53.0L83.7,53.4L83.5,54.5L82.7,56.9L82.6,57.5L81.7,60.0L81.3,60.9L80.9,61.1L80.3,60.9L75.8,56.1L74.7,54.6L74.4,54.6L74.0,54.9L73.6,56.0L73.4,56.7L70.7,61.7L70.3,62.2L69.8,62.1L69.3,61.5L68.7,60.7L68.0,60.0L67.8,59.4L66.0,57.0L65.7,56.3L65.3,55.6L65.3,54.9L65.6,54.7L69.4,54.5L73.1,54.1L73.6,53.8L73.6,53.4L71.5,50.7L70.0,48.4L68.9,47.1L68.6,47.1L68.5,47.3L65.7,52.4L65.3,53.1L64.7,53.6L64.2,53.7L63.4,52.7L62.4,51.3L61.8,49.9L61.0,48.7L60.4,47.4L60.0,47.1L59.7,47.1L59.4,47.4L57.4,50.2L54.9,53.1L54.7,53.7L55.1,54.1L58.3,54.5L60.0,54.5L60.9,54.6L63.3,54.7L63.6,54.9L63.5,55.7L62.7,57.1L60.2,60.6L58.7,62.2L58.1,62.1L57.6,61.5L55.4,57.6L54.3,55.3L53.8,54.9L53.5,54.9L49.4,60.2L48.4,61.2L47.7,61.2L47.4,60.8L47.3,60.4L47.1,60.0L47.0,59.6L46.5,58.5L46.0,56.2L45.7,55.7L45.3,53.8L45.2,53.5L44.8,53.5Z M70.0,80.0L69.7,80.5L68.5,81.6L67.0,82.9L65.1,84.0L64.6,83.9L63.7,83.3L61.5,81.7L60.2,80.2L60.2,79.9L60.7,79.7L62.8,79.9L66.6,79.9L68.5,79.6L69.6,79.6Z M53.4,71.9L53.6,71.6L55.1,71.6L55.6,71.8L62.8,72.2L63.1,72.3L63.5,72.6L63.5,73.1L62.4,74.6L59.8,77.5L58.8,78.2L58.3,78.2L57.5,77.5L55.2,74.9L53.6,72.5Z M76.1,71.7L76.0,72.4L74.4,75.1L72.7,77.3L72.2,77.8L71.8,78.0L70.8,77.8L68.9,76.2L67.3,74.6L66.4,73.5L65.8,72.7L65.9,72.3L67.0,72.0L70.3,72.0L71.0,71.8L74.7,71.5L75.8,71.5Z M69.3,63.8L69.3,64.4L68.2,66.3L67.1,68.0L66.1,69.7L64.9,71.1L64.5,71.1L64.2,70.9L63.1,69.7L60.4,66.2L59.4,64.4L59.4,64.0L59.7,63.7L64.0,63.8L69.1,63.6Z M48.2,62.9L48.5,62.5L49.3,62.5L51.6,62.9L52.4,63.1L56.9,63.5L57.3,63.7L57.3,64.3L55.4,66.9L53.7,68.7L52.7,69.8L52.1,69.8L51.4,69.1L50.4,67.1L49.3,65.4L48.7,64.0L48.3,63.4Z M80.8,62.5L80.3,64.0L78.4,68.4L77.6,69.7L77.3,70.1L76.7,70.0L75.8,69.2L73.9,67.2L71.5,64.1L71.5,63.6L72.0,63.3L73.1,63.3L74.1,63.0L75.1,63.0L80.0,62.2L80.4,62.2Z M51.0,46.2L50.5,46.5L47.0,50.6L46.3,51.8L46.3,52.1L47.0,52.6L49.0,53.2L50.0,53.3L51.8,53.7L52.9,53.7L53.2,53.4L53.1,52.7L52.2,50.6L52.2,50.0L51.8,48.8L51.4,46.4L51.1,46.2Z M78.0,45.7L77.6,45.7L77.2,46.4L76.6,48.8L74.8,53.1L74.8,53.4L75.1,53.6L75.8,53.6L80.6,52.6L82.7,52.0L83.1,51.6L83.0,51.0L81.9,49.7Z M43.2,43.2L43.1,43.3L43.1,44.0L43.6,47.6L44.2,50.0L44.5,50.5L44.9,50.5L45.5,50.0L45.7,49.5L45.7,48.8L45.1,47.5L44.9,46.9L44.4,45.8L43.6,43.5L43.4,43.2Z M85.3,42.7L85.0,42.9L83.7,47.3L83.1,48.7L83.1,49.3L84.1,50.2L84.4,50.2L84.6,50.0L84.9,48.7L84.9,48.1L85.6,44.0L85.6,42.9Z M49.7,39.0L49.8,40.4L50.5,43.5L50.8,43.9L51.1,43.9L51.5,43.3L51.5,42.8L50.7,40.9L50.0,39.0Z M79.5,38.5L79.1,38.5L78.3,40.6L77.4,42.2L77.4,43.0L77.9,43.5L78.1,43.5L78.4,43.2L78.7,42.4L78.8,41.8L79.6,39.2Z M49.0,19.8L48.9,20.0L49.0,21.1L49.6,22.1L49.7,22.7L50.0,23.2L51.9,27.9L52.5,29.0L52.7,29.7L54.0,32.9L54.2,33.9L54.5,34.5L54.9,36.1L55.1,36.3L55.3,37.8L55.3,39.5L55.0,40.7L54.3,42.1L52.7,43.8L52.6,44.0L52.2,44.5L52.1,44.9L52.8,45.3L55.1,45.8L57.3,46.2L59.0,46.2L59.3,46.0L59.3,45.4L59.0,45.1L58.1,43.1L56.8,39.3L56.3,37.1L55.9,35.9L55.8,34.7L55.5,34.1L55.4,32.7L54.8,30.2L54.7,28.3L54.4,26.9L54.2,24.7L54.0,23.6L53.9,21.8L53.6,20.3L53.3,19.8L52.7,19.7Z M44.1,19.7L43.6,20.0L43.8,20.8L44.2,21.4L47.4,28.0L47.7,28.3L47.8,28.7L48.6,30.5L49.4,31.9L51.5,36.3L52.5,38.1L52.7,38.0L52.6,37.1L52.4,36.7L52.3,36.1L52.1,35.8L51.9,34.9L51.6,34.4L50.8,31.1L50.0,28.5L49.5,26.6L49.2,25.9L49.2,25.6L48.8,24.6L48.8,24.3L48.1,21.9L47.8,21.4L47.6,20.3L47.1,19.8Z M55.6,19.7L55.3,20.0L55.4,20.9L55.8,21.8L56.2,23.4L56.9,25.1L57.6,27.5L57.7,27.6L57.7,28.0L58.6,30.8L59.0,32.9L59.1,34.2L59.3,35.3L59.3,37.0L58.7,39.7L58.7,40.3L59.2,40.7L61.0,40.7L61.3,40.5L61.3,39.7L60.3,34.4L59.9,29.3L59.9,26.6L59.8,24.0L59.9,20.0L59.5,19.6Z M61.8,19.6L61.5,19.8L61.3,20.1L61.3,20.6L61.9,24.4L62.1,25.0L62.3,26.8L62.7,28.4L63.7,34.9L63.7,37.2L63.5,39.2L63.1,40.8L62.3,42.8L60.6,45.7L60.6,46.0L61.0,46.3L61.7,46.5L66.1,46.5L67.6,46.3L67.9,46.1L68.0,45.7L67.5,44.6L67.1,44.2L65.8,41.4L65.0,39.0L64.9,37.4L64.9,35.4L65.3,33.5L65.3,32.7L65.6,31.4L65.8,29.6L66.0,29.2L66.4,26.2L66.5,24.9L66.9,23.2L66.9,22.4L67.2,20.8L67.2,19.9L67.0,19.6L66.6,19.6Z M85.0,19.5L82.0,19.5L81.5,20.0L81.0,21.4L80.8,22.6L80.6,22.9L80.6,23.5L80.2,24.3L79.6,26.9L79.1,28.2L78.6,30.6L78.0,32.2L77.6,34.4L77.1,35.7L77.1,36.1L76.8,36.8L76.7,37.5L76.9,37.7L77.0,37.7L77.6,36.6L78.9,33.5L80.5,30.5L80.6,30.1L82.2,26.8L82.7,25.5L84.9,21.1L85.3,20.0L85.3,19.8Z M79.6,19.5L75.5,19.5L75.0,19.9L74.4,23.6L74.4,24.7L74.2,25.9L74.0,29.0L73.6,30.6L73.2,35.2L72.5,38.3L71.8,40.0L71.8,40.6L70.5,43.5L69.4,45.5L69.4,45.8L69.6,46.0L71.0,46.0L72.5,45.7L73.7,45.6L74.8,45.3L75.8,45.2L76.4,45.1L76.8,44.7L76.7,44.3L74.9,41.9L74.3,40.7L73.9,39.6L73.8,38.2L74.1,36.2L74.5,34.7L74.9,33.9L76.2,29.9L76.9,28.4L77.1,27.7L78.3,25.1L78.4,24.3L79.9,20.7L80.0,19.8Z M73.1,19.6L69.3,19.6L69.0,19.6L68.7,20.0L68.7,31.4L68.3,37.2L67.8,39.7L67.8,40.5L68.1,40.7L69.6,40.6L70.2,40.4L70.4,40.0L69.8,37.9L69.9,33.4L70.0,33.0L70.0,32.3L70.6,29.7L70.9,28.7L71.0,28.0L73.3,20.3L73.3,19.8Z" fill="#000" fill-rule="evenodd"/>
</svg>