<svg xmlns="http://www.w3.org/2000/svg" viewBox="0 0 128 128" width="128" height="128">
  <path d="M115.2,53.7L114.6,56.1L113.5,58.5L110.3,63.8L109.3,64.8L108.5,65.8L104.8,69.5L102.0,71.3L101.5,71.8L101.2,72.4L101.0,73.9L100.4,75.8L99.8,76.7L99.3,78.4L98.0,80.6L96.3,83.1L93.7,85.8L93.2,86.1L91.4,87.7L89.6,88.8L88.8,89.4L85.1,91.2L84.6,91.6L84.3,92.4L83.1,94.2L79.7,97.6L79.1,97.9L78.1,98.8L77.4,99.1L75.5,100.4L74.9,100.6L73.7,101.3L70.7,102.5L70.7,102.8L71.9,103.1L72.1,103.3L72.1,103.7L71.4,104.3L70.6,104.5L68.1,105.9L67.4,106.6L66.6,107.0L64.9,108.5L64.0,108.4L60.4,105.9L58.5,104.9L55.9,104.1L55.3,104.1L55.3,104.5L58.1,107.2L60.1,110.1L61.0,112.2L62.2,114.1L63.7,117.9L64.3,119.0L64.8,119.0L65.1,118.8L65.3,118.3L65.6,117.0L66.1,116.2L66.4,115.1L66.8,114.4L67.0,113.7L67.5,112.8L67.8,112.4L67.9,112.0L68.4,111.1L69.1,110.2L69.7,109.1L71.8,106.0L73.4,104.2L73.7,104.1L74.5,103.2L75.3,103.0L77.6,102.9L93.3,103.0L94.6,102.8L95.1,102.2L95.7,100.1L97.2,97.2L97.9,96.1L98.0,95.8L100.0,93.0L101.5,91.4L105.3,87.9L106.5,87.4L108.2,86.1L110.6,85.1L111.6,84.0L111.8,82.9L112.8,81.0L113.0,80.0L113.4,79.4L113.9,77.9L114.4,75.6L115.0,73.7L115.3,71.2L115.6,70.3L115.8,67.9L116.0,67.1L116.2,59.8L115.7,54.8Z M107.8,70.7L108.0,71.0L108.0,71.6L105.7,75.5L104.4,77.5L104.0,77.9L103.4,79.0L102.5,80.2L101.6,81.6L100.4,83.1L99.7,84.2L97.9,86.2L97.4,87.0L93.2,91.5L88.6,95.6L87.9,96.0L86.9,96.8L86.1,97.2L85.1,97.2L85.1,96.2L86.2,93.2L86.8,92.5L87.8,92.1L88.5,91.6L89.1,91.4L89.9,90.9L90.1,90.9L94.0,88.2L96.5,85.8L97.8,84.3L98.5,83.2L99.2,82.4L101.0,79.6L101.5,78.1L102.3,76.9L102.5,75.7L103.4,73.4L103.9,72.8L105.5,71.7L107.1,70.8Z M112.7,68.7L112.9,69.4L112.5,71.4L112.4,72.5L112.0,73.9L111.7,75.7L110.2,80.4L109.7,81.2L109.4,82.3L108.9,83.1L108.4,83.7L107.0,84.3L103.4,86.6L100.9,88.6L98.6,91.1L98.1,91.9L97.4,92.6L95.8,94.8L95.0,96.3L94.6,97.5L93.9,98.5L93.4,99.8L92.9,100.3L91.7,100.3L90.0,99.9L88.6,99.3L88.4,99.0L88.4,98.5L88.6,98.1L91.0,96.2L91.9,95.7L95.3,92.4L95.5,92.3L98.9,88.7L99.8,87.4L101.2,86.0L102.8,84.1L104.3,81.9L105.1,80.9L105.7,79.8L106.6,78.7L107.1,77.5L107.4,77.3L107.7,76.4L108.7,75.1L108.8,74.8L109.8,73.2L110.7,71.2L111.2,70.6L111.8,69.1L112.3,68.6Z M13.0,52.9L12.7,53.2L12.6,54.6L12.3,55.5L12.2,58.0L12.1,63.5L12.2,64.5L12.5,65.7L12.6,68.4L12.9,69.7L13.4,73.0L15.2,79.1L16.3,81.7L16.4,82.2L16.8,82.7L17.4,84.3L18.2,85.3L18.6,85.6L20.3,86.4L20.5,86.6L22.2,87.3L23.2,88.2L23.6,88.3L25.1,89.4L27.9,92.1L29.9,94.4L31.7,97.1L31.8,97.4L32.6,98.6L33.4,100.3L34.1,102.1L34.7,102.6L37.4,102.7L50.3,102.6L51.3,102.7L54.1,102.7L55.4,102.9L58.2,102.8L58.3,102.6L58.2,102.4L57.5,102.2L57.3,102.1L56.7,101.9L54.8,101.1L50.9,99.0L47.3,96.1L45.8,94.4L43.1,90.7L40.7,89.5L37.9,87.7L34.1,84.5L32.6,82.8L30.6,79.7L30.2,79.2L28.7,76.2L28.6,75.6L27.0,71.3L25.1,69.4L23.4,68.2L20.5,65.4L19.4,63.9L18.3,62.8L18.0,62.2L17.3,61.2L17.1,60.8L15.8,58.9L15.6,58.4L15.3,57.9L14.8,56.1L14.0,54.8L13.6,53.8L13.5,53.2L13.2,52.9Z M20.0,68.9L20.4,68.9L21.6,69.6L23.6,71.1L24.3,71.5L25.0,72.2L25.5,73.0L25.5,73.5L25.8,73.9L26.0,75.1L27.0,77.6L27.9,79.2L28.1,79.4L28.4,80.3L30.1,82.8L31.4,84.4L33.2,86.3L35.9,88.7L37.9,90.0L39.1,90.6L40.0,91.2L41.3,91.9L42.1,92.6L42.6,93.6L42.8,95.1L43.0,95.3L43.0,95.8L42.8,96.0L42.4,96.1L41.2,95.6L40.3,94.8L38.9,94.0L38.1,93.2L36.1,91.7L34.3,89.8L33.8,89.6L31.2,86.6L29.7,84.8L29.4,84.3L28.7,83.6L28.1,82.8L28.1,82.6L26.9,81.2L25.5,79.3L25.2,78.7L24.6,78.1L23.7,76.3L22.7,74.7L22.1,73.6L20.9,71.9L20.7,71.4L19.7,69.4L19.7,69.1Z M15.5,67.1L15.8,67.1L16.1,67.3L19.0,73.1L19.9,74.3L20.0,74.7L20.6,75.4L21.2,76.6L21.9,77.5L23.2,79.8L24.1,80.8L25.1,82.4L26.6,84.2L27.2,85.2L27.9,85.9L29.6,88.1L33.4,92.1L36.6,95.0L40.8,98.1L41.1,98.5L41.1,99.0L40.8,99.2L40.3,99.5L38.8,99.9L37.6,100.3L36.1,100.3L35.6,99.7L34.8,97.8L32.3,93.8L31.5,93.0L30.9,92.1L29.5,90.4L26.9,88.0L26.3,87.8L25.4,86.9L24.5,86.2L21.6,84.8L20.5,84.1L20.0,83.7L19.5,82.7L19.0,81.2L18.0,79.2L17.6,77.7L17.0,76.4L16.5,74.0L16.3,73.5L16.0,72.2L15.8,71.6L15.6,70.0L15.4,69.4L15.2,67.5Z M29.5,22.8L28.8,22.7L25.1,24.1L24.3,25.0L24.1,25.8L23.8,27.4L23.4,28.4L22.7,29.0L20.5,29.5L19.3,29.9L19.0,30.3L18.4,32.0L18.2,35.3L18.1,35.9L17.7,36.5L16.8,37.3L15.3,38.3L14.5,38.7L13.9,39.3L13.2,39.6L12.8,40.1L12.6,40.5L12.5,44.4L12.7,48.2L13.0,49.3L13.1,50.6L13.6,50.6L13.7,50.5L14.5,48.8L16.8,46.0L20.4,42.8L20.5,41.8L20.0,40.9L19.6,39.6L19.1,37.1L19.1,36.4L20.6,34.9L21.4,34.3L23.2,33.4L23.8,32.8L24.0,32.3L23.9,29.3L24.2,28.7L24.7,28.2L27.4,27.2L28.3,27.0L28.8,26.7L29.2,26.3L29.7,23.2Z M97.8,22.1L97.5,22.3L97.6,23.5L97.8,24.0L98.1,25.3L98.6,26.1L99.7,26.5L100.6,26.7L101.8,27.2L103.1,28.3L103.3,28.8L103.2,31.8L103.4,32.3L104.2,33.1L106.6,34.4L108.5,36.2L108.7,37.2L108.0,40.2L107.6,41.2L107.7,42.2L111.1,45.8L112.3,47.5L113.0,48.3L114.2,50.1L114.4,50.3L114.9,50.2L115.3,48.1L115.3,46.4L115.5,44.0L115.4,39.9L115.2,39.2L114.7,38.8L114.0,38.6L112.1,37.4L111.0,36.9L109.6,35.7L109.1,33.8L109.1,32.4L108.9,31.8L109.0,30.4L108.8,29.5L108.3,29.0L107.5,28.6L105.9,28.4L105.4,28.1L104.1,27.8L103.5,27.2L103.3,26.7L103.2,25.9L102.8,24.6L102.5,24.2L102.3,23.3L101.9,22.7L101.3,22.5L100.1,22.4L99.0,22.1Z M61.7,9.2L59.8,9.5L59.6,10.0L59.6,10.5L59.9,11.7L60.0,13.9L60.5,16.3L60.5,17.7L60.8,19.4L61.0,22.8L61.2,23.6L61.3,25.4L61.7,27.8L61.9,30.4L62.3,32.8L62.4,36.5L62.1,36.8L61.7,36.7L61.5,36.4L61.5,35.3L61.1,34.1L61.0,32.7L60.8,32.0L60.7,30.0L60.3,28.6L60.2,27.6L59.9,26.5L59.7,24.5L59.4,23.5L59.2,21.6L58.7,19.3L58.5,17.9L57.7,15.2L57.6,14.3L56.7,10.5L56.2,10.0L55.2,9.9L54.6,10.1L53.1,10.3L50.9,11.0L50.4,11.4L50.3,11.9L53.4,18.1L54.9,22.2L56.5,26.1L56.7,27.4L57.4,28.9L57.6,29.9L58.2,31.7L58.9,34.2L59.0,35.4L59.3,36.9L59.1,37.3L58.7,37.3L58.3,36.8L57.9,34.8L57.6,34.0L57.4,32.9L57.0,31.7L57.0,31.3L56.7,30.6L56.4,29.5L55.6,27.3L54.5,25.1L53.6,22.8L53.1,21.8L52.3,20.7L52.1,20.0L50.4,16.9L49.6,15.8L48.1,13.1L47.4,12.3L46.5,12.2L45.6,12.5L44.9,12.9L44.3,13.0L42.6,13.8L42.1,14.3L42.1,14.6L42.4,15.1L44.0,16.9L45.9,19.3L47.4,20.9L48.8,23.1L50.0,24.6L51.1,26.3L51.4,26.7L54.6,33.1L55.6,36.2L55.6,36.4L55.5,36.6L55.0,36.6L54.8,36.4L53.8,34.5L53.3,34.0L53.2,33.6L52.6,32.7L52.5,32.3L52.1,31.6L50.8,29.9L50.1,28.8L47.3,25.4L46.4,24.1L45.3,23.1L41.6,18.4L39.3,16.2L38.9,16.1L38.2,16.1L37.4,16.4L36.5,17.0L36.0,17.5L33.5,19.0L32.9,19.6L32.2,19.9L31.8,20.3L31.8,20.6L32.0,20.8L33.1,21.3L33.8,21.9L34.3,22.1L35.9,23.0L36.9,23.8L38.1,24.4L42.4,27.6L43.2,28.1L44.4,29.2L45.4,29.9L48.9,33.1L49.3,33.8L50.3,34.9L51.1,36.3L51.8,37.2L52.0,37.7L52.4,38.2L52.4,39.0L52.0,39.5L51.4,39.8L50.5,40.1L48.0,41.4L47.7,41.6L47.0,41.9L45.3,42.9L42.6,45.1L39.9,47.9L39.4,48.8L37.9,50.6L37.3,51.5L35.7,54.6L34.3,58.5L34.0,59.9L33.7,62.5L33.7,67.3L34.0,69.5L34.3,70.8L34.3,71.4L34.8,72.5L34.8,73.2L35.3,74.2L35.5,75.2L36.6,77.4L36.6,77.8L37.1,78.4L37.6,79.7L39.7,82.5L41.5,84.5L44.1,86.9L45.9,88.2L47.9,89.4L48.7,89.8L49.2,90.2L49.5,90.2L51.0,90.9L51.8,91.1L52.6,91.5L53.2,91.6L53.6,91.8L55.2,92.1L55.8,92.3L57.2,92.6L57.9,93.0L58.7,93.6L59.2,94.6L59.6,95.9L60.9,98.5L61.0,99.1L61.9,100.8L62.0,101.4L62.7,102.6L63.5,105.0L64.1,106.0L64.3,106.2L64.7,106.2L65.0,105.9L65.2,105.4L66.2,103.3L66.5,102.1L66.9,101.6L67.3,100.3L68.4,97.9L68.8,96.6L69.7,94.9L69.8,94.4L70.2,93.7L71.0,93.0L71.9,92.6L72.7,92.6L73.2,92.4L75.1,92.1L75.7,91.7L77.3,91.4L78.5,90.7L79.6,90.4L80.8,89.7L81.5,89.5L82.4,89.0L85.0,87.0L85.5,86.8L87.9,84.5L90.5,81.5L91.6,79.7L93.7,75.5L93.7,74.8L94.6,72.5L94.6,71.6L95.1,70.2L95.2,68.2L95.1,66.3L95.3,65.6L95.3,64.6L95.1,61.9L94.7,60.4L94.7,59.6L94.6,58.9L93.2,55.1L93.0,54.9L92.8,54.2L92.1,52.9L92.0,52.4L90.6,50.2L89.1,48.3L88.8,47.8L85.9,44.9L83.0,42.6L80.3,41.1L75.7,39.1L75.2,38.5L75.1,37.8L75.2,37.4L76.2,35.5L78.1,32.7L80.3,30.4L81.3,29.4L83.0,28.1L83.8,27.2L85.0,26.3L85.8,25.6L87.9,24.4L89.0,23.5L89.5,23.3L90.5,22.6L91.0,22.4L91.3,22.1L93.2,21.1L94.4,20.2L94.5,19.8L94.1,19.2L93.3,18.5L92.3,17.9L91.9,17.6L90.5,16.8L89.7,16.2L88.3,15.6L87.3,16.0L81.1,22.7L77.1,27.6L75.0,30.7L72.4,35.2L71.8,36.4L71.4,36.8L71.1,36.8L70.9,36.7L70.9,36.3L71.7,34.3L72.5,32.8L73.0,31.7L75.0,28.3L75.7,26.9L78.8,22.1L80.5,19.8L80.6,19.5L84.0,15.3L84.6,14.3L84.6,14.0L84.3,13.6L83.0,12.9L82.2,12.7L79.6,11.7L78.6,11.8L77.7,13.3L77.6,13.8L76.8,15.2L74.9,19.8L74.5,20.5L74.4,21.0L73.5,22.7L73.2,23.8L72.1,26.2L71.4,28.5L70.9,29.2L70.5,30.1L69.8,33.1L68.8,35.1L68.8,35.6L68.4,36.4L68.1,36.5L67.9,36.4L67.9,35.0L69.3,30.4L69.4,29.7L70.2,27.5L70.3,26.8L70.8,25.7L70.9,25.1L71.3,24.4L71.7,22.8L72.2,21.9L72.8,19.8L73.5,18.2L73.8,17.3L74.0,17.0L74.2,16.1L74.5,15.6L74.8,14.7L74.9,14.6L75.4,13.3L76.1,12.1L76.2,11.6L76.1,11.0L75.6,10.6L74.9,10.5L73.3,10.0L72.1,9.8L70.3,9.9L69.9,10.6L69.6,12.7L69.1,14.7L69.1,15.2L68.7,16.8L68.7,17.4L68.3,19.0L68.1,20.8L67.7,22.3L67.1,25.9L67.0,26.3L66.8,28.2L66.5,29.0L66.5,30.6L66.1,31.7L66.1,32.7L65.7,34.1L65.5,36.4L65.1,37.0L64.7,37.0L64.5,36.8L64.5,35.9L64.7,33.9L64.7,32.4L64.9,31.8L64.9,30.4L65.2,28.1L65.3,26.2L65.6,25.1L65.6,22.9L65.8,22.2L66.0,18.8L66.4,17.0L66.4,15.5L66.8,12.9L66.8,11.2L67.0,10.0L66.5,9.3L66.1,9.2Z M64.0,83.9L64.4,84.0L65.2,84.9L66.8,88.0L67.3,89.2L67.3,89.9L67.0,90.2L66.0,90.5L62.4,90.5L61.7,90.3L61.2,89.9L61.3,88.9L61.8,87.7L62.3,87.0L63.2,84.9Z M51.2,83.6L51.7,83.5L52.2,83.9L52.5,84.6L53.0,85.2L54.0,87.1L54.5,87.6L54.6,88.7L54.2,89.1L53.5,89.1L52.8,88.8L51.5,88.4L50.4,87.9L49.9,87.3L49.7,86.6L50.1,85.2L50.6,84.3Z M77.6,83.1L78.0,83.3L79.0,84.8L79.6,86.5L79.7,87.1L79.2,87.7L77.5,88.4L77.3,88.5L76.1,88.9L75.0,88.9L74.6,88.6L74.5,88.4L74.6,87.6L75.0,87.0L76.8,83.4L77.1,83.1Z M57.2,70.3L57.7,70.4L58.2,71.1L58.7,72.2L59.2,72.7L59.7,74.1L60.3,74.9L60.6,75.9L61.3,77.0L61.5,77.8L62.0,78.5L62.4,79.4L62.4,80.6L61.8,81.9L61.5,83.0L61.0,84.0L60.7,84.3L59.0,87.9L58.5,88.5L57.9,88.5L57.0,87.5L56.1,86.0L55.4,84.4L55.1,84.2L54.5,82.5L53.1,80.0L53.1,79.1L53.3,78.3L53.6,77.8L54.3,76.1L55.0,75.1L55.5,73.8L56.3,72.3L56.7,71.0L57.0,70.4Z M70.6,70.1L71.0,70.1L71.5,70.6L72.1,71.7L73.8,75.1L74.3,75.6L75.1,77.7L75.5,78.3L75.7,78.9L75.7,79.9L75.3,81.1L74.1,83.1L72.9,85.9L72.1,87.3L71.7,88.3L71.1,88.8L70.7,88.8L70.4,88.6L70.1,88.2L69.6,87.0L69.2,86.5L67.8,83.8L67.5,83.0L66.8,82.0L66.3,80.6L66.0,80.1L66.0,79.4L66.3,78.3L67.1,76.9L67.2,76.5L69.1,72.8L69.7,71.4L70.2,70.4Z M44.2,70.1L44.4,70.1L45.0,70.6L45.8,71.8L46.5,73.3L47.0,73.9L47.4,74.7L48.2,75.7L48.3,76.3L49.0,77.4L49.0,77.9L49.5,78.8L49.7,79.4L49.6,80.2L48.6,82.5L48.5,83.1L47.5,84.8L46.9,85.4L46.4,85.4L45.6,85.0L43.0,82.8L41.7,81.3L40.7,79.7L40.3,79.3L40.2,78.7L40.2,77.8L41.2,76.0L41.7,74.6L43.5,70.9Z M84.5,69.1L85.4,70.3L86.9,73.2L87.7,74.3L88.7,76.7L89.1,77.2L89.1,78.2L87.7,80.6L86.3,82.2L84.1,84.4L83.2,85.0L82.7,85.1L82.2,84.9L81.9,84.6L80.8,82.8L80.5,81.9L80.1,81.3L79.3,79.5L79.3,78.7L79.5,77.9L80.1,76.9L80.5,75.7L82.2,72.4L82.8,71.4L82.9,70.9L83.2,70.4L83.6,69.4L84.0,69.1Z M37.5,57.9L37.9,57.9L38.4,58.3L41.1,62.9L41.7,64.5L42.2,65.2L42.6,66.0L42.1,67.9L41.0,69.8L40.7,70.5L39.7,72.4L39.1,73.8L38.5,74.5L38.1,74.5L37.7,74.1L37.2,73.0L37.1,72.1L36.7,71.4L36.6,70.5L36.2,69.5L36.2,67.8L36.1,66.8L36.1,64.0L36.2,63.3L36.2,61.7L36.4,60.7L37.1,58.4Z M50.3,57.1L50.9,57.1L51.7,58.2L53.6,62.2L53.9,62.4L54.1,63.1L54.5,63.5L55.8,66.3L55.8,67.0L54.2,71.1L53.6,72.1L52.3,74.9L51.6,75.7L51.3,75.8L50.7,75.5L49.6,73.7L49.0,72.3L48.3,71.4L48.0,70.5L47.4,69.5L47.1,68.6L46.0,66.5L46.0,65.8L46.7,64.4L47.7,61.7L48.2,61.0L49.6,57.8Z M63.7,56.8L64.2,56.9L65.0,57.7L66.5,60.9L68.1,63.5L68.3,64.2L69.1,65.9L68.9,67.2L68.1,68.8L67.7,70.0L66.3,72.4L65.5,74.3L64.4,75.8L63.9,75.7L63.1,74.7L62.0,72.5L61.5,71.7L60.8,70.0L60.1,69.1L60.0,68.4L59.2,66.8L59.2,65.8L60.5,63.1L60.5,62.9L62.3,59.4L62.8,57.9L63.1,57.6L63.3,57.1Z M90.0,56.7L90.5,56.8L91.0,57.5L91.9,60.2L92.1,62.1L92.4,63.1L92.5,67.0L92.3,67.9L92.3,70.0L91.4,73.2L90.9,73.7L90.5,73.7L90.0,73.3L90.0,73.0L87.9,69.5L87.0,67.4L86.1,65.8L86.1,64.6L86.3,64.2L86.5,63.5L87.4,61.6L87.9,60.8L88.4,59.3L89.1,58.2L89.6,57.1Z M77.9,55.9L78.5,56.5L79.9,59.2L80.9,61.3L81.8,62.8L81.9,63.2L82.5,64.3L82.7,65.6L81.5,68.1L80.9,69.1L80.6,70.1L79.9,71.1L78.3,74.6L77.6,75.3L77.0,75.2L76.2,73.9L75.5,72.4L74.8,71.4L74.8,70.9L74.2,70.2L73.4,68.6L73.2,68.0L72.7,67.1L72.5,66.0L75.0,60.5L75.1,60.0L75.9,58.6L76.5,57.1L77.5,55.9Z M45.3,46.5L46.3,47.4L48.1,50.7L48.7,52.4L48.7,53.1L48.1,54.6L47.7,55.3L47.3,56.5L44.8,61.7L44.4,62.0L44.0,62.1L43.7,61.9L43.2,61.3L42.1,59.3L41.9,59.0L41.2,57.6L40.9,57.2L40.3,55.7L40.0,55.4L39.4,54.3L39.3,53.3L40.1,51.6L40.9,50.6L42.7,48.1L44.4,46.6Z M82.5,46.2L82.7,46.2L83.4,46.5L86.3,49.2L87.1,50.3L87.7,51.0L88.4,52.4L88.4,53.5L87.9,54.6L87.8,55.1L87.3,56.1L86.7,57.0L86.5,57.6L85.3,59.8L85.0,60.4L84.4,61.2L83.9,61.1L83.1,59.9L82.3,58.4L81.6,57.2L81.1,56.0L80.7,55.4L80.5,54.8L79.8,53.4L79.4,52.2L79.4,51.3L80.0,50.0L80.6,49.1L80.7,48.6L81.6,46.9Z M56.5,43.3L57.2,43.3L57.9,44.2L60.1,48.8L60.5,49.2L62.2,52.5L62.2,53.1L61.9,54.1L60.5,57.0L59.9,58.5L59.6,59.0L59.0,60.5L58.2,62.0L57.8,62.4L57.2,62.4L56.6,61.9L56.3,61.1L56.0,60.8L55.7,60.0L54.6,58.2L54.6,57.8L53.7,56.3L53.6,55.9L52.6,54.1L52.3,53.0L52.3,52.0L52.7,51.4L52.8,50.6L53.6,49.3L53.8,48.3L55.5,45.3L56.0,43.8Z M70.3,42.4L71.0,42.5L71.9,43.5L72.9,45.9L73.4,46.5L73.9,47.7L74.5,48.5L75.3,50.2L75.9,51.7L75.9,52.1L75.4,53.5L74.6,55.3L74.3,55.7L73.1,58.5L72.7,59.2L71.7,61.4L70.9,62.3L70.3,62.2L69.7,61.5L69.2,60.4L68.6,59.7L67.4,57.0L66.3,55.5L66.0,54.4L65.6,54.0L65.5,53.5L65.5,52.4L66.1,51.0L66.5,50.3L67.8,47.1L68.4,46.2L68.4,45.7L69.1,44.7L69.8,42.9Z M53.0,42.2L53.2,42.3L53.3,42.7L53.2,43.6L52.4,44.9L50.9,48.3L50.5,48.6L50.0,48.6L49.6,48.3L48.1,45.1L48.1,44.5L49.0,43.6L50.2,43.0L50.6,42.7L51.9,42.2Z M74.5,42.0L75.5,42.0L76.0,42.4L76.7,42.5L77.1,42.8L78.1,43.1L79.0,43.6L79.4,44.1L79.4,44.8L79.1,45.6L78.8,46.1L78.3,47.4L77.8,47.9L77.1,47.9L76.7,47.4L74.5,43.0L74.4,42.5L74.4,42.2Z M59.9,40.3L61.8,40.0L66.5,40.1L67.2,40.3L67.8,41.0L66.8,43.5L66.1,44.8L65.5,46.5L64.9,47.3L64.2,48.8L63.8,49.1L63.5,49.1L62.9,48.6L61.9,46.7L61.2,45.0L60.3,43.7L60.1,43.0L59.6,42.2L59.2,41.0L59.4,40.6Z" fill="#000" fill-rule="evenodd"/>
</svg>