<svg xmlns="http://www.w3.org/2000/svg" viewBox="0 0 128 128" width="128" height="128">
  <path d="M83.7,22.4L82.2,22.4L81.6,22.1L79.3,22.1L78.9,22.3L77.9,22.2L76.5,22.5L76.1,22.5L75.5,22.9L74.6,23.1L74.5,23.3L73.5,23.4L70.7,24.7L70.0,25.3L68.4,26.1L67.2,27.1L65.7,28.7L65.7,29.5L66.3,30.4L66.6,31.0L67.4,32.4L68.6,35.8L69.1,38.2L69.2,42.8L68.6,45.8L67.7,48.7L66.2,51.6L65.1,53.1L64.6,53.5L63.4,53.5L63.2,53.2L63.2,53.1L64.8,50.7L65.3,49.7L65.6,49.3L66.8,46.3L67.3,44.5L67.6,41.6L67.4,38.4L67.1,37.1L67.1,36.6L66.6,34.8L65.1,31.6L64.2,30.1L63.0,28.8L60.3,26.1L59.7,25.8L58.3,24.8L56.3,23.7L55.4,23.3L51.6,22.2L47.5,22.0L46.7,22.2L45.9,22.2L44.5,22.5L44.3,22.6L43.5,22.6L42.4,23.1L41.0,23.5L40.8,23.7L40.0,24.0L37.5,25.3L36.0,26.6L35.7,26.7L33.9,28.5L32.5,30.0L32.0,30.8L31.6,31.5L31.1,32.2L29.7,35.5L29.0,39.0L28.8,40.4L28.8,42.9L29.3,45.7L30.7,49.3L31.6,51.1L32.4,51.9L32.8,52.7L34.4,54.3L35.8,54.0L36.5,53.7L38.9,53.1L41.6,52.6L42.6,52.6L43.2,52.4L46.7,52.4L48.6,52.7L50.9,53.1L54.4,54.3L55.8,55.0L56.2,55.4L56.2,55.6L55.7,56.3L55.3,56.3L54.2,55.9L53.1,55.2L52.0,55.1L51.1,54.7L49.6,54.5L48.7,54.2L46.6,53.9L44.7,53.9L44.2,53.8L43.2,53.8L40.6,54.3L38.8,54.5L37.6,55.1L35.8,55.6L34.0,56.4L31.5,57.8L29.8,59.0L29.2,59.7L27.7,61.0L25.7,63.2L24.5,65.0L23.7,66.4L23.1,67.4L22.5,69.1L22.1,69.8L21.3,72.5L20.9,75.6L20.9,80.0L21.6,82.9L22.3,85.4L23.1,86.8L23.4,87.8L24.5,89.6L26.1,91.7L29.7,95.4L33.2,98.0L34.0,98.4L34.4,98.8L36.4,100.1L37.5,101.1L38.6,101.7L39.0,101.7L39.4,101.1L40.7,97.6L41.2,95.8L43.2,90.0L43.5,88.7L43.8,88.3L43.9,87.3L44.3,86.2L44.6,85.9L45.3,83.4L45.9,81.9L46.0,81.3L46.5,80.2L46.6,79.7L47.9,75.6L48.3,74.9L48.7,73.2L49.5,71.0L49.7,70.2L50.3,68.7L50.6,67.7L50.9,67.0L51.0,66.5L51.7,64.6L51.9,63.9L52.3,63.4L52.7,63.4L53.1,63.4L53.5,63.8L53.5,64.2L52.8,65.8L52.7,66.8L52.3,67.4L52.2,68.2L51.5,69.8L51.5,70.6L51.1,71.3L50.9,72.1L50.7,72.5L50.0,74.7L49.7,75.3L49.6,76.0L49.2,76.9L48.3,79.9L47.9,80.8L47.8,81.6L47.1,83.5L46.8,84.5L46.4,85.4L46.2,86.4L45.1,89.5L45.1,90.0L44.9,90.3L44.3,93.8L44.3,97.5L44.4,98.8L44.8,100.7L45.5,102.7L46.3,104.3L48.1,107.1L49.8,109.1L52.2,111.1L53.4,112.0L54.0,112.3L55.6,113.7L57.2,114.7L59.4,116.5L63.2,119.1L63.8,119.0L65.3,118.0L65.7,117.8L68.4,115.9L68.9,115.4L70.3,114.6L72.9,112.7L73.2,112.7L74.9,111.5L77.0,109.9L79.1,107.7L80.8,105.3L82.1,102.7L83.0,99.4L83.3,97.5L83.4,95.3L83.3,94.4L83.3,93.2L82.9,91.5L81.9,88.1L81.7,87.2L81.3,86.2L81.2,85.6L80.8,84.6L80.6,83.7L78.5,77.2L78.3,76.3L76.9,72.2L74.8,65.5L74.5,65.0L74.3,63.8L74.6,63.4L75.4,63.4L75.7,63.8L76.7,66.2L76.9,67.3L77.5,68.7L78.1,71.0L78.8,72.6L78.9,73.2L79.7,75.6L79.9,76.4L80.1,76.8L80.3,77.6L80.5,78.0L81.1,80.1L81.5,80.9L81.9,82.5L82.5,84.1L82.7,84.9L83.1,86.0L83.3,86.2L83.4,87.1L83.7,87.7L84.3,89.9L84.6,90.5L86.0,94.8L86.1,95.5L86.7,96.8L87.1,98.4L87.7,100.0L87.9,100.8L88.4,101.9L88.8,101.9L90.6,100.7L90.9,100.7L91.9,99.9L92.8,99.4L96.8,96.6L99.2,94.8L101.2,92.8L102.8,91.0L104.9,87.7L105.1,87.2L106.0,85.2L106.5,83.4L106.7,82.9L107.3,79.4L107.4,76.9L107.2,74.4L106.4,70.9L106.2,70.5L105.5,68.6L103.9,65.3L102.3,63.1L99.3,59.9L99.1,59.8L98.3,59.1L97.9,59.0L97.2,58.2L94.0,56.4L92.8,55.9L89.2,54.5L87.5,54.2L86.8,54.2L86.0,53.9L80.4,53.9L78.9,54.2L78.1,54.5L77.1,54.5L76.7,54.7L75.3,55.1L73.8,55.7L72.9,55.9L72.5,56.1L72.1,56.1L71.8,55.7L71.7,55.1L72.1,54.8L72.9,54.4L73.2,54.4L73.7,54.1L76.7,53.3L77.2,53.1L79.7,52.6L85.2,52.5L88.0,52.8L88.4,53.1L89.5,53.2L91.2,53.7L93.7,54.7L94.2,54.7L95.1,54.0L97.1,51.4L98.0,49.9L98.7,48.2L99.2,46.6L99.8,43.8L99.9,40.0L99.6,38.0L99.4,37.4L99.2,36.4L98.4,34.1L97.6,32.4L95.6,29.5L94.1,27.9L92.1,26.1L89.4,24.5L87.5,23.5L86.2,23.0Z M64.4,58.0L65.9,58.4L67.2,59.1L68.2,60.1L68.6,60.9L69.0,61.9L69.2,63.7L69.7,66.1L69.7,67.1L70.6,73.5L70.8,77.0L70.6,77.4L70.2,77.4L70.1,77.3L69.2,75.3L68.6,73.4L68.2,72.8L67.4,70.6L67.0,70.0L66.3,68.5L65.9,68.8L65.8,69.3L65.5,71.3L65.2,72.5L65.1,74.0L64.6,76.5L64.4,78.3L64.2,78.9L63.8,79.0L63.4,78.5L63.4,77.7L63.0,75.7L62.9,74.0L62.6,72.9L62.3,70.2L62.2,69.8L62.1,68.6L61.8,68.3L61.6,68.3L60.8,69.4L58.6,74.5L57.0,77.5L56.6,77.4L56.5,76.8L56.8,73.7L57.1,72.1L57.1,71.2L57.6,68.6L57.8,66.6L58.0,65.8L58.4,62.5L58.6,61.7L59.4,60.2L60.1,59.4L61.0,58.7L62.6,58.1Z M57.3,58.2L57.2,58.6L56.8,59.0L56.2,59.0L55.9,58.7L55.9,58.6L56.5,58.1L57.0,58.0Z M62.4,9.3L61.6,9.7L61.0,9.8L59.7,10.7L58.2,12.3L57.4,13.8L57.2,14.5L57.0,16.8L57.0,18.1L56.9,20.9L57.0,22.1L57.5,22.6L59.2,23.5L61.2,24.9L61.7,24.8L61.8,23.8L61.9,16.8L62.1,15.7L62.6,14.8L63.6,14.2L65.1,14.2L66.0,14.8L66.3,15.2L66.5,15.7L66.5,24.9L66.6,25.1L67.0,25.2L69.4,23.7L71.1,22.9L71.4,22.5L71.7,20.4L71.6,15.8L71.3,14.1L70.6,12.6L69.7,11.4L68.8,10.6L67.3,9.7L65.3,9.1L63.3,9.1Z" fill="#000" fill-rule="evenodd"/>
</svg>