<svg xmlns="http://www.w3.org/2000/svg" viewBox="0 0 128 128" width="128" height="128">
  <path d="M102.0,10.1L98.7,10.0L95.1,10.1L93.5,9.9L91.7,9.9L91.2,10.1L90.9,10.4L90.7,11.3L89.8,14.2L89.4,14.8L89.4,15.6L89.0,16.5L89.0,16.9L88.7,17.3L88.4,18.5L88.2,18.9L88.0,19.6L87.9,19.8L87.2,21.7L86.8,23.7L86.4,24.4L86.0,25.6L85.6,26.5L84.9,29.1L84.6,29.6L84.5,30.2L83.9,31.7L83.6,33.2L83.0,34.8L82.9,35.3L82.4,36.5L82.3,37.1L81.8,38.2L81.1,40.8L79.8,44.2L79.3,46.0L79.1,46.4L78.5,48.4L78.1,49.3L78.0,50.3L77.3,51.9L77.0,53.0L75.8,56.3L75.4,58.2L75.0,58.7L74.4,60.7L74.1,61.3L73.9,62.0L73.6,62.5L73.1,64.5L73.1,65.5L72.8,66.2L72.7,67.8L72.8,68.7L73.1,69.3L73.3,70.8L73.9,72.4L75.0,74.5L76.2,75.9L78.1,77.4L80.8,78.7L82.8,79.1L85.6,79.1L86.8,78.8L89.1,78.0L91.5,76.2L93.1,74.6L93.9,73.2L94.8,70.8L95.1,69.5L95.2,67.0L94.9,65.1L94.6,64.5L94.3,63.2L93.6,62.5L93.5,61.5L93.3,61.2L91.7,59.1L90.9,58.3L88.7,57.1L87.3,56.4L84.6,56.0L82.9,56.0L82.1,56.2L81.5,56.2L81.1,55.9L81.1,55.5L82.2,52.9L84.8,47.8L85.1,46.9L86.1,45.0L87.2,42.7L87.8,41.6L88.0,40.9L90.1,36.9L90.5,35.9L90.8,35.5L91.6,33.5L92.0,32.9L92.1,32.4L92.5,31.9L92.7,31.1L93.9,29.1L95.1,26.1L95.9,24.9L96.3,24.0L97.0,22.9L97.6,21.1L98.0,20.6L99.3,18.0L99.4,17.4L100.5,15.4L101.6,13.1L102.4,11.7L102.7,10.6Z M78.8,9.6L69.4,9.6L68.4,9.4L67.3,9.7L66.7,10.6L66.1,12.7L65.2,15.2L65.1,15.8L64.8,16.3L64.3,18.7L63.9,19.6L62.9,23.0L62.7,23.4L62.5,24.4L61.4,27.1L61.2,28.3L60.5,30.1L60.3,31.0L60.0,31.5L60.0,31.8L59.1,34.1L59.1,35.0L57.7,38.6L57.7,38.9L57.3,39.8L57.2,40.4L56.9,41.0L56.4,43.0L56.0,43.7L56.0,44.3L55.2,46.4L54.5,48.7L54.3,49.1L54.3,49.5L53.7,50.7L53.3,52.6L52.6,54.3L52.0,56.4L51.3,58.2L51.1,59.3L50.8,59.6L50.2,61.8L49.9,62.4L49.0,66.1L49.0,68.6L49.5,70.7L50.2,72.6L51.4,74.4L52.7,76.0L53.5,76.6L55.2,77.7L56.6,78.3L58.6,78.8L61.9,78.8L64.1,78.4L66.1,77.5L67.7,76.3L69.3,74.6L70.5,72.4L71.2,70.8L71.6,68.4L71.5,65.7L70.8,63.3L70.3,62.5L70.2,62.1L69.3,60.6L66.9,58.1L64.3,56.6L62.3,56.0L59.7,55.7L57.6,56.0L57.4,55.7L57.4,55.2L57.6,54.8L57.9,53.7L58.9,51.8L59.1,51.6L59.7,49.9L60.6,48.2L60.9,47.8L61.7,45.8L62.2,45.2L62.6,44.4L62.8,43.8L63.7,42.1L64.1,41.1L64.4,40.8L65.5,38.1L66.0,37.4L67.2,34.8L67.5,34.4L67.6,34.0L68.6,32.1L68.9,31.1L69.5,30.3L69.7,29.6L70.9,27.2L71.4,26.7L72.4,24.2L73.1,23.2L73.6,21.8L73.9,21.4L74.3,20.4L75.7,17.7L75.8,17.3L76.3,16.5L76.9,15.1L78.3,12.5L78.5,11.7L79.3,10.5L79.3,10.0L79.1,9.7Z M45.5,9.1L44.3,9.3L44.1,9.6L43.2,12.2L43.1,12.8L41.5,17.4L41.4,18.1L40.6,19.9L40.5,20.4L40.2,21.1L40.1,22.1L39.8,22.5L39.7,23.3L39.2,24.2L38.6,26.6L37.7,28.7L36.6,32.3L36.3,32.9L36.2,33.4L35.9,34.0L35.7,34.8L35.5,35.2L34.9,36.9L34.7,38.0L34.0,39.3L33.9,40.3L33.2,41.9L33.1,42.8L32.7,43.8L32.6,44.3L32.0,45.8L31.3,48.4L30.6,49.9L30.1,51.8L29.7,52.6L29.1,54.7L28.7,55.5L28.7,56.1L27.9,57.8L27.8,58.8L27.0,60.6L26.4,62.9L26.0,64.0L26.0,65.0L25.6,66.0L25.6,67.9L25.7,69.6L26.4,71.9L27.1,73.0L27.2,73.5L29.0,75.8L30.6,77.2L33.2,78.6L35.6,79.2L38.3,79.2L39.3,79.2L40.3,78.9L40.8,79.0L40.8,79.2L39.8,80.3L39.4,81.0L39.0,81.4L38.0,83.4L37.8,84.3L37.6,84.5L37.4,86.0L37.3,86.3L37.2,88.8L37.5,90.2L37.6,91.3L37.8,91.8L38.6,93.6L39.4,94.6L39.4,94.8L41.6,97.1L44.5,98.7L45.4,99.0L46.4,99.1L47.3,99.4L49.9,99.5L51.6,99.1L52.6,99.2L52.3,99.7L51.1,101.2L49.8,103.4L49.7,103.9L49.4,104.4L49.4,105.2L49.1,106.3L49.1,109.4L49.5,111.1L50.0,112.2L50.4,113.4L51.9,115.6L53.2,116.8L54.3,117.5L56.3,118.3L57.2,118.7L58.4,119.1L62.4,119.1L64.3,118.4L65.4,117.8L66.2,117.5L67.0,117.0L67.6,116.3L68.7,115.3L70.6,112.2L70.6,111.9L71.1,110.2L71.3,108.4L71.3,107.3L70.9,105.0L70.5,103.9L69.7,102.1L68.8,100.7L67.5,99.3L67.6,99.0L68.1,98.9L69.3,99.4L70.2,99.6L71.2,99.6L71.6,99.7L73.9,99.7L75.0,99.4L77.1,98.6L79.2,97.3L80.4,96.1L81.1,95.2L82.4,93.2L83.0,91.8L83.3,89.5L83.4,89.1L83.4,86.4L82.2,82.8L81.7,82.2L81.6,81.9L80.9,80.9L78.6,78.6L76.2,77.4L73.6,76.8L71.1,76.7L69.5,77.0L68.3,77.5L67.8,77.6L66.9,78.1L66.4,78.3L64.9,79.5L63.4,81.2L61.7,84.3L61.4,85.2L61.2,86.8L61.0,87.1L61.0,88.5L61.2,89.1L61.3,90.8L62.0,93.1L62.5,93.8L63.2,95.2L64.6,96.7L64.8,97.0L64.4,97.3L64.1,97.3L63.4,96.9L62.2,96.7L61.6,96.5L59.4,96.5L59.1,96.7L57.9,96.7L56.5,97.2L56.0,97.1L56.0,96.6L57.2,95.5L58.0,94.1L59.1,91.9L59.6,90.1L59.5,88.7L59.7,87.9L59.5,87.2L59.4,85.8L59.1,84.2L57.9,81.8L57.3,81.0L55.3,78.8L55.0,78.8L53.9,78.0L52.2,77.1L50.9,76.6L49.6,76.4L47.8,76.4L46.2,76.5L45.0,76.9L44.5,76.9L44.3,76.8L44.5,76.4L45.3,75.7L46.9,73.2L47.7,71.1L48.0,69.8L48.0,65.9L47.3,63.6L46.7,62.1L46.5,61.9L46.2,61.2L44.6,59.4L43.1,58.1L40.7,56.8L40.2,56.7L39.8,56.4L38.6,56.3L37.8,56.0L35.6,56.0L34.1,56.3L33.4,56.3L33.2,56.1L33.2,55.7L34.2,53.7L34.6,53.2L34.8,52.4L36.3,49.6L36.3,49.3L37.2,47.7L37.3,47.3L37.5,47.0L38.1,46.0L38.2,45.6L39.7,43.0L39.9,42.3L41.1,39.9L41.6,39.3L42.1,37.9L42.8,36.8L44.5,33.3L45.0,32.7L46.1,30.3L46.5,29.7L47.8,27.0L48.0,26.8L49.3,23.9L49.8,23.4L50.4,21.8L51.7,19.6L51.8,19.0L52.6,17.9L54.0,14.9L54.5,14.3L54.9,13.1L55.3,12.6L55.5,12.0L56.4,10.5L56.3,9.7L55.9,9.4L55.3,9.3L49.0,9.3L48.5,9.1Z" fill="#000" fill-rule="evenodd"/>
</svg>