<svg xmlns="http://www.w3.org/2000/svg" viewBox="0 0 128 128" width="128" height="128">
  <path d="M115.2,14.4L114.1,13.6L113.0,12.9L111.7,12.4L111.3,12.4L109.2,11.9L108.1,11.9L107.5,11.7L96.2,11.8L90.9,11.6L84.7,11.8L75.1,11.7L20.4,12.3L19.4,12.4L16.4,13.3L14.6,14.2L13.6,15.0L12.3,16.4L10.7,19.6L10.3,20.7L10.2,21.8L10.2,22.9L9.7,24.7L9.5,38.2L9.6,41.3L9.4,46.4L9.4,54.1L9.6,55.5L9.6,66.6L10.0,75.0L10.2,104.2L11.1,109.7L11.9,111.6L13.0,113.1L14.2,114.0L15.9,115.0L17.4,115.6L20.0,116.1L21.6,116.3L27.7,116.3L35.7,116.6L63.7,116.5L70.0,116.7L106.7,116.7L110.9,116.1L112.3,115.7L113.6,115.0L114.9,114.1L116.6,111.9L117.8,109.2L118.4,107.1L118.7,104.7L118.7,95.0L118.9,91.8L118.5,60.5L118.7,59.5L118.6,52.3L118.4,50.7L118.5,44.9L118.3,40.0L118.1,20.8L117.7,18.9L116.8,16.5Z M95.5,49.7L96.7,51.5L98.0,54.9L98.2,56.2L98.5,56.9L98.9,60.1L99.1,60.7L99.6,67.0L99.6,70.1L99.5,71.8L99.5,75.0L99.4,75.7L99.3,79.5L99.1,80.3L99.1,81.7L98.6,83.5L98.5,84.6L97.4,87.8L96.9,89.0L96.6,89.3L96.4,89.8L94.8,92.2L93.7,93.4L91.8,95.0L91.4,95.1L89.9,96.1L87.0,97.2L85.8,97.2L84.1,97.4L80.6,97.4L77.6,96.6L77.1,96.3L76.7,96.3L75.4,95.7L71.7,94.5L71.1,94.1L70.9,94.1L70.1,93.5L69.1,93.2L66.4,91.3L65.0,90.6L64.5,90.5L63.0,91.1L61.2,92.3L58.8,93.5L58.3,93.9L57.8,94.0L56.0,95.0L52.1,96.6L50.7,97.1L47.5,97.7L43.4,97.8L42.1,97.6L41.5,97.4L40.4,97.2L38.9,96.5L35.9,94.2L34.7,93.1L32.9,90.9L31.6,87.7L31.3,86.5L30.6,84.5L30.5,83.3L30.0,81.6L29.6,78.9L29.4,75.4L29.2,63.0L29.5,62.3L29.7,61.0L29.7,60.0L30.1,58.1L30.1,57.4L30.3,56.9L30.3,56.2L30.6,55.3L31.6,51.5L33.3,48.6L34.4,47.6L35.1,47.2L35.5,46.8L37.7,45.9L38.1,45.9L39.0,45.5L40.5,45.4L44.8,45.5L47.8,46.0L48.9,46.5L49.3,46.5L54.9,48.9L56.1,49.7L56.7,50.3L59.7,52.4L62.0,54.6L63.4,55.6L64.1,55.6L64.6,55.3L69.2,50.8L72.4,48.6L73.1,48.3L74.6,47.4L75.3,47.2L77.2,46.4L80.3,45.5L83.2,45.1L86.7,45.1L88.8,45.5L91.1,46.3L92.9,47.1L94.2,48.2Z M68.3,41.3L68.1,37.5L68.3,36.7L69.1,36.1L69.9,36.1L72.5,36.9L74.4,37.3L75.0,37.6L76.8,38.0L77.5,38.0L78.1,38.3L78.0,38.7L77.5,38.9L76.9,39.0L73.7,40.1L73.1,40.5L71.4,40.9L71.1,41.2L70.3,41.4L69.3,41.9L68.8,41.9Z M99.4,24.4L99.4,25.3L99.1,26.2L97.7,28.1L95.4,30.2L93.9,31.1L91.5,32.3L87.9,33.4L86.0,33.8L80.2,33.6L79.6,33.4L78.1,33.3L76.7,33.0L75.9,32.7L75.6,32.5L75.6,31.9L77.3,30.1L79.2,28.5L81.0,27.3L81.7,27.1L83.1,26.4L84.8,25.7L88.4,24.6L93.4,23.9L97.7,23.8L98.6,23.9Z M19.7,22.1L20.9,20.9L22.8,20.1L24.3,19.8L26.4,19.8L28.2,19.6L29.3,19.8L32.5,19.8L36.7,20.1L38.7,20.4L41.0,20.5L43.4,21.0L44.3,21.0L46.6,21.6L50.1,23.0L52.0,24.1L53.1,24.9L55.4,27.1L55.6,27.5L56.5,28.4L56.7,28.8L58.7,31.6L59.4,33.9L59.7,35.4L59.9,37.9L59.9,41.0L59.2,41.8L58.4,41.8L57.2,41.5L55.0,40.6L52.9,40.0L52.1,39.6L51.0,39.4L50.6,39.1L46.5,38.2L45.3,38.2L44.5,38.0L38.4,38.1L35.6,38.5L33.3,39.0L29.2,40.9L27.2,42.7L25.2,45.8L24.5,47.3L23.9,49.2L23.4,50.2L21.8,56.9L21.7,58.9L21.5,59.3L21.4,71.3L21.8,74.7L21.8,76.4L22.1,79.3L22.3,80.0L22.6,83.5L23.3,86.3L23.3,87.0L23.9,89.1L24.6,90.9L25.0,92.2L26.0,93.9L26.8,96.0L27.8,97.5L30.1,100.1L30.8,100.6L31.5,101.3L31.9,101.4L33.9,103.1L38.8,105.5L42.1,106.2L47.0,106.3L50.5,105.8L52.1,105.5L52.6,105.2L55.3,104.3L57.4,103.3L58.4,103.0L63.3,100.3L64.5,100.1L66.4,100.9L71.6,103.5L75.9,105.4L79.6,106.3L81.5,106.5L84.3,106.5L89.7,105.6L92.4,104.8L94.7,103.5L95.6,103.3L97.7,101.8L99.9,99.7L101.4,97.9L103.8,93.4L104.3,91.7L104.6,91.3L105.6,87.1L105.7,86.0L106.7,81.4L106.8,79.4L107.1,78.5L107.1,77.1L107.3,76.5L107.6,73.8L107.5,73.0L107.6,71.6L107.6,65.5L107.4,60.6L107.1,57.8L106.3,53.7L106.0,53.0L105.7,51.5L105.3,50.5L105.1,49.5L104.7,48.9L103.9,46.6L102.0,43.2L100.7,41.9L96.9,39.1L94.6,38.2L92.6,37.6L92.5,37.1L92.8,36.8L95.0,36.1L98.2,34.6L101.2,32.6L103.1,30.4L103.5,29.6L104.8,27.8L106.3,24.5L106.7,22.9L107.5,20.9L108.1,20.6L109.1,20.7L109.5,21.1L110.2,22.7L110.7,24.8L110.9,27.7L110.9,44.3L111.3,64.1L111.2,68.1L111.5,88.1L111.3,101.5L110.9,102.9L110.7,104.6L109.7,106.4L109.0,107.2L107.9,107.7L107.6,107.7L106.5,108.3L105.5,108.5L101.5,108.9L94.0,109.1L90.3,109.0L87.5,109.2L65.2,109.2L63.0,109.4L40.4,109.5L24.2,108.9L22.2,108.4L21.2,107.9L19.9,106.6L19.4,105.7L18.7,103.9L18.4,102.5L18.4,101.2L18.3,99.9L18.3,96.0L18.0,93.4L18.2,92.0L18.2,90.1L17.8,85.3L17.8,76.7L17.5,70.8L17.7,64.6L17.6,52.5L17.8,49.4L17.7,28.6L17.9,26.9L18.4,24.8L18.9,23.3Z M87.3,19.6L87.3,19.8L86.9,20.1L85.2,20.5L84.9,20.8L84.4,20.9L83.6,21.4L82.0,22.0L80.4,22.8L79.8,22.9L79.3,23.3L78.9,23.4L78.6,23.7L77.8,24.0L77.4,24.4L76.6,24.6L75.5,25.4L74.6,25.8L69.8,29.3L69.1,29.7L68.7,29.7L68.1,29.2L67.8,27.2L67.7,24.3L68.1,21.1L68.4,20.3L68.8,19.9L69.8,19.5L78.9,19.2L84.1,19.4L86.6,19.3L87.1,19.4Z" fill="#000" fill-rule="evenodd"/>
</svg>