<svg xmlns="http://www.w3.org/2000/svg" viewBox="0 0 128 128" width="128" height="128">
  <path d="M50.4,9.3L49.7,9.6L49.0,9.7L46.8,10.5L45.2,11.4L43.6,12.5L42.7,13.5L41.7,14.3L41.4,14.9L40.5,16.0L40.3,16.5L39.5,17.8L39.5,18.0L38.7,19.8L38.7,20.6L38.3,21.8L38.2,25.9L38.5,26.9L38.6,28.1L39.1,29.0L39.3,29.3L40.0,30.8L40.5,31.4L40.6,31.8L42.5,33.6L43.8,34.5L44.0,34.8L44.0,35.0L43.3,35.7L41.2,37.0L38.8,39.1L36.3,41.6L35.6,42.6L34.3,44.0L32.9,46.0L32.9,46.2L31.6,48.0L31.6,48.3L30.4,50.1L30.2,50.7L29.9,51.2L29.8,51.6L29.4,52.2L29.4,52.4L29.0,53.1L28.9,53.4L28.3,54.7L28.1,55.9L28.2,56.2L28.4,56.5L28.9,56.5L36.5,56.5L38.0,56.4L38.4,55.9L40.2,52.4L41.9,49.9L44.6,46.7L47.4,44.0L49.8,41.8L51.8,40.6L52.4,40.0L53.4,39.6L54.0,39.2L56.2,38.4L56.7,38.0L56.8,37.7L56.8,32.9L56.8,31.3L56.5,30.3L55.9,29.9L54.3,29.9L52.3,29.4L50.6,28.6L50.0,28.2L48.9,27.0L48.0,25.1L47.9,23.4L48.3,21.8L48.9,20.9L49.9,19.9L50.8,19.4L52.3,18.9L53.8,18.9L54.9,19.1L56.4,19.9L57.6,21.3L57.9,21.9L58.3,23.3L58.5,25.5L58.7,33.1L58.7,50.4L58.3,50.6L57.9,50.2L57.5,49.4L56.5,48.1L56.3,47.7L55.2,46.5L51.9,46.3L51.2,46.5L46.0,46.6L45.8,46.8L45.9,47.3L46.6,48.4L48.2,50.4L48.4,50.8L49.1,51.6L50.0,53.1L50.3,53.4L51.5,55.7L51.5,56.1L51.2,56.4L48.4,56.1L43.8,56.4L40.4,57.2L38.8,57.9L38.1,58.0L36.8,58.8L36.0,59.1L33.5,61.0L31.4,63.0L30.0,65.1L28.9,67.2L28.7,67.4L28.5,68.4L28.2,69.0L27.7,71.0L27.4,73.1L27.4,77.8L27.8,79.2L27.8,80.2L28.3,82.5L28.9,84.0L29.2,84.8L29.3,85.0L29.4,85.5L31.5,90.0L31.8,90.4L32.7,92.3L33.0,92.7L34.0,94.9L34.6,95.6L35.5,97.4L37.6,100.6L40.8,105.0L41.9,106.2L43.0,107.7L47.0,111.7L49.2,113.6L52.1,115.6L54.4,116.8L54.8,116.8L56.5,117.6L57.0,117.7L57.8,118.0L58.2,118.0L59.0,118.3L60.4,118.5L62.0,118.9L65.6,119.0L66.9,119.1L67.4,119.0L70.0,118.8L72.1,118.3L74.9,117.4L78.3,115.7L80.7,113.9L80.9,113.9L84.5,110.4L88.1,105.9L89.9,103.2L90.8,102.0L91.2,101.2L93.0,98.2L93.4,97.2L94.4,95.7L94.6,95.1L95.3,93.8L96.8,90.6L96.8,90.4L97.7,88.7L99.3,84.7L100.1,81.7L100.8,77.8L100.9,74.5L100.6,70.8L99.8,68.0L98.9,65.6L98.0,64.0L96.2,61.6L93.8,59.3L92.3,58.2L91.9,58.1L91.5,57.7L90.7,57.3L90.2,57.2L89.9,57.0L88.9,56.8L88.5,56.5L84.8,55.7L79.9,55.5L78.1,55.6L77.7,55.7L76.5,55.8L76.1,55.6L76.1,55.2L76.4,54.4L77.6,52.7L77.8,52.2L78.1,51.9L78.4,51.2L80.5,48.2L80.9,47.8L81.0,47.4L81.5,47.0L81.5,46.2L76.4,46.0L73.4,46.1L72.3,46.3L71.8,46.4L71.3,46.9L70.4,48.2L69.3,50.2L69.0,50.4L68.7,50.4L68.5,49.2L68.5,38.4L68.1,24.4L67.8,21.7L67.0,18.4L66.5,17.7L65.8,16.1L64.7,14.6L63.0,12.9L60.7,11.2L57.6,9.8L55.2,9.2L52.5,9.1Z M55.4,91.1L55.7,91.4L55.7,91.9L55.6,92.1L55.3,93.6L54.9,94.2L54.9,94.9L54.6,95.4L54.5,96.0L54.1,96.9L54.0,97.6L53.2,99.6L53.1,100.2L52.7,101.4L52.7,101.8L52.4,102.1L52.2,103.2L51.9,103.6L51.8,104.2L51.6,104.4L51.3,104.4L50.8,103.6L50.0,101.4L49.4,100.0L49.3,99.5L48.5,97.7L48.1,96.1L47.2,94.0L47.1,93.4L46.8,93.0L46.5,91.6L46.9,91.2L48.2,91.1Z M60.5,91.0L61.2,90.8L64.8,90.7L68.8,90.8L69.3,90.9L69.3,91.4L68.9,92.4L68.5,94.6L68.1,95.2L68.1,95.7L67.6,96.9L67.6,97.2L67.2,97.9L67.1,98.6L66.9,99.1L66.7,99.9L66.3,100.8L66.3,101.4L65.9,102.0L65.9,102.5L65.5,103.0L65.3,103.9L65.1,104.0L64.8,104.0L64.3,103.2L63.5,101.1L63.3,100.3L63.0,99.8L62.2,97.6L62.1,96.8L61.2,94.8L61.1,94.2L60.8,93.6L60.2,91.6L60.2,91.3Z M82.4,90.4L82.9,90.9L82.9,91.4L82.6,91.9L82.5,92.6L82.1,93.4L81.7,95.3L81.3,96.1L81.3,96.4L81.0,97.2L80.7,98.2L80.5,98.6L79.9,100.8L79.5,101.4L79.5,102.1L79.1,103.1L79.1,103.4L78.6,104.0L78.4,104.0L78.0,103.2L77.9,102.7L77.4,101.7L77.0,100.4L76.7,99.9L76.4,98.7L75.3,95.9L74.2,92.8L74.0,92.4L73.9,91.7L73.7,91.3L73.7,91.1L74.0,90.7L74.2,90.6L78.3,90.4L79.2,90.5L80.2,90.4Z M39.5,70.8L40.2,70.6L42.4,70.6L43.3,70.4L47.8,70.4L48.3,70.8L48.3,71.5L47.9,72.4L47.9,72.8L47.4,74.1L47.4,74.6L47.0,75.3L46.6,77.3L46.3,77.9L46.0,78.9L45.7,79.5L45.6,80.0L45.4,80.5L45.1,81.7L44.8,82.1L44.5,83.4L44.2,83.9L43.9,83.9L43.5,83.3L43.2,82.1L42.9,81.6L41.8,78.6L40.5,75.3L40.2,74.1L39.1,71.4L39.2,71.0Z M53.2,70.4L55.1,70.4L55.7,70.2L61.7,70.2L62.1,70.5L62.1,71.0L61.6,72.3L61.4,73.3L61.2,73.7L60.6,76.0L60.2,76.6L60.2,77.2L59.4,79.4L59.3,80.0L58.8,81.0L58.3,82.9L57.9,83.7L57.6,83.7L57.1,83.0L56.3,80.6L55.6,79.1L55.3,78.0L53.6,73.6L53.3,72.4L52.8,71.3L52.8,70.8Z M75.3,69.9L75.7,70.2L75.5,71.6L75.2,72.2L75.1,72.8L74.6,74.1L74.6,74.5L74.3,75.0L74.2,75.6L73.4,78.0L73.3,78.7L72.9,79.3L72.8,79.8L72.5,80.4L72.0,82.3L71.6,83.2L71.4,83.5L71.2,83.5L70.8,83.0L70.1,81.4L69.9,80.5L69.6,79.9L69.0,78.0L68.2,76.1L68.2,75.8L66.5,71.3L66.4,70.4L66.6,70.1L67.5,70.0L69.5,70.0L71.9,70.0L72.5,69.8Z M80.4,69.8L82.4,69.7L88.6,69.7L89.1,69.8L89.2,70.7L88.4,73.0L88.2,73.9L87.9,74.5L87.8,75.3L87.4,76.1L87.4,76.8L87.0,77.4L87.0,78.1L86.7,78.5L86.1,80.7L85.9,81.1L85.4,82.7L85.1,83.2L84.8,83.2L84.4,82.6L81.5,74.8L81.4,74.1L80.6,72.5L80.1,70.7L80.1,70.1Z" fill="#000" fill-rule="evenodd"/>
</svg>