<svg xmlns="http://www.w3.org/2000/svg" viewBox="0 0 128 128" width="128" height="128">
  <path d="M74.0,66.5L73.7,66.5L73.6,66.7L73.1,68.1L72.8,68.4L72.3,70.3L71.7,71.7L71.1,73.8L70.8,74.3L69.9,77.0L68.8,79.5L68.6,79.7L67.9,81.0L67.1,82.1L64.4,85.1L64.2,85.0L64.2,84.8L64.5,84.6L64.7,84.0L65.4,83.1L66.5,81.2L66.7,80.6L66.7,79.9L66.5,79.7L66.0,79.5L60.6,79.7L60.2,80.1L60.1,82.7L60.3,88.3L60.7,88.7L61.2,88.4L62.2,87.4L62.7,86.6L63.1,86.4L63.3,86.5L62.5,87.5L62.2,88.1L61.2,89.4L60.3,91.0L60.0,92.6L59.7,96.4L59.2,99.7L59.4,100.4L59.7,100.6L60.0,100.6L60.5,100.3L63.1,97.9L64.0,97.4L66.1,95.7L68.4,93.3L69.7,90.6L70.0,89.5L70.3,86.8L70.4,83.0L70.8,80.2L70.8,79.5L71.1,78.9L71.3,77.4L72.0,75.4L72.5,73.3L72.8,72.7L74.1,68.6L74.3,67.0Z M35.8,66.3L35.7,66.5L35.6,67.0L35.8,68.7L36.7,71.5L37.5,73.3L37.8,74.7L38.2,75.5L38.8,77.5L39.2,78.2L39.2,78.5L39.5,79.2L39.5,80.1L39.8,80.8L39.9,81.5L40.3,82.9L40.4,84.5L40.6,84.8L40.6,86.4L40.8,89.2L41.2,91.2L42.3,93.4L43.0,94.4L43.2,94.9L44.6,96.5L47.2,99.1L47.8,99.8L48.6,100.4L49.2,100.4L49.5,100.1L49.6,99.5L49.9,97.2L50.0,94.6L49.9,94.0L49.9,92.6L49.7,91.2L48.9,89.0L48.6,88.3L48.6,88.0L48.9,88.0L49.5,88.6L50.0,88.7L50.3,88.6L50.5,88.3L50.5,81.1L50.3,80.2L50.1,79.9L49.5,79.8L44.6,79.8L44.2,79.9L43.9,80.2L43.9,80.7L44.1,81.3L44.5,81.8L44.9,82.9L46.5,85.2L46.5,85.5L46.3,85.5L45.8,85.1L42.9,82.1L42.1,81.1L41.2,79.6L41.1,79.1L40.5,78.0L39.2,74.0L38.5,72.6L38.2,71.3L37.9,70.8L36.5,66.7L36.3,66.4Z M35.8,53.8L35.7,54.2L35.8,56.2L36.7,58.5L37.5,61.0L37.8,61.7L37.8,62.2L38.6,64.0L38.8,65.1L39.0,65.5L39.2,66.4L39.8,68.0L40.0,68.8L40.4,69.8L40.7,70.1L41.5,70.1L41.7,69.9L41.8,69.3L41.0,67.1L40.8,66.7L40.8,66.4L40.4,65.7L40.3,65.0L39.9,64.2L39.8,63.7L39.6,63.3L39.5,62.6L39.0,61.8L38.7,60.6L38.0,58.7L37.4,56.6L36.8,55.3L36.4,54.0L36.2,53.8Z M73.9,53.5L73.6,53.5L73.2,53.9L72.3,56.9L71.1,59.7L71.0,60.4L70.8,60.7L70.6,61.5L70.0,62.7L69.4,64.7L69.1,65.0L69.1,65.6L68.8,66.1L68.6,67.0L68.3,67.4L68.2,68.1L67.9,68.7L67.7,69.6L68.0,70.0L68.7,70.1L69.3,69.8L69.5,69.6L69.9,67.3L70.3,66.1L70.4,65.6L70.7,65.0L70.7,64.7L71.1,63.7L71.7,61.7L72.0,61.2L72.1,60.5L72.4,60.2L72.5,59.6L72.9,58.5L72.9,58.2L73.4,56.8L74.1,55.0L74.2,53.9Z M35.8,41.1L35.8,42.7L35.9,43.2L36.6,44.6L37.2,46.5L38.9,50.2L40.4,54.1L41.1,58.0L41.0,61.6L41.2,61.9L41.3,62.1L43.6,62.2L46.6,62.2L48.3,62.1L48.6,61.8L48.6,61.3L48.0,60.2L45.8,57.3L42.5,53.7L41.5,52.2L39.5,48.4L39.4,47.9L38.8,46.8L38.8,46.5L38.1,44.9L37.1,42.8L36.7,41.6L36.2,41.0Z M73.8,39.9L73.2,40.1L72.9,40.8L72.7,41.6L72.5,41.9L71.9,43.8L71.2,45.3L71.0,46.2L70.2,47.7L69.1,51.0L68.4,52.5L67.1,54.5L65.0,57.3L63.1,59.0L61.6,60.8L61.3,61.3L61.3,61.6L61.5,61.9L61.9,62.0L62.9,62.1L64.0,62.0L64.8,62.1L65.7,62.1L66.0,62.0L67.8,62.0L68.5,61.9L68.8,61.6L69.0,61.2L69.0,60.5L68.8,60.2L68.9,56.8L69.2,55.0L69.4,54.5L69.8,52.8L70.7,50.5L70.8,49.7L72.3,46.2L72.9,44.0L73.7,42.4L74.0,41.3L74.0,40.2Z M35.9,28.0L35.8,29.4L36.1,30.3L36.6,31.3L36.8,32.1L37.1,32.5L37.2,33.1L38.7,36.3L40.1,40.1L40.1,40.5L40.6,42.3L40.8,43.6L40.8,45.4L40.9,46.0L40.9,47.3L41.1,48.4L41.7,50.5L42.5,52.0L43.5,53.6L45.3,55.6L46.6,57.0L47.1,57.7L47.7,58.4L48.9,60.4L49.3,60.8L49.8,60.9L50.1,60.6L50.3,60.0L50.3,53.2L50.1,51.0L49.8,49.9L48.6,47.4L47.6,45.9L45.8,43.7L43.1,41.3L40.9,38.3L40.0,36.5L39.2,34.5L38.8,33.8L37.5,30.3L37.2,29.9L36.7,28.6L36.4,28.0Z M73.7,26.8L73.3,26.8L72.9,27.4L72.7,28.2L70.8,32.6L70.7,33.2L68.6,38.1L66.9,40.8L64.6,43.5L62.9,45.1L61.9,46.2L60.6,48.2L60.0,49.8L59.7,50.7L59.7,59.0L59.7,60.4L60.1,60.9L60.6,60.8L61.0,60.5L62.0,59.1L62.6,58.6L63.1,57.8L64.7,55.9L65.4,54.8L66.1,54.0L66.8,52.8L67.3,52.2L68.2,50.2L68.6,48.3L68.7,44.0L69.2,41.3L70.5,37.0L70.6,36.8L70.8,36.0L71.1,35.7L71.4,34.5L71.9,33.6L72.1,32.6L72.6,31.4L72.8,30.5L73.3,29.4L73.6,29.0L73.9,27.9L73.9,27.1Z M36.2,15.2L36.1,15.3L36.0,15.8L36.1,16.8L36.7,18.0L37.0,19.2L38.5,22.3L38.7,23.1L39.8,25.4L40.0,26.4L40.4,27.3L40.8,29.7L40.9,32.5L41.0,33.1L41.0,33.9L41.2,35.1L41.8,37.0L42.2,37.7L43.8,39.9L47.1,43.6L48.6,45.9L49.1,46.4L49.7,46.5L50.1,46.1L50.2,45.7L50.0,41.9L50.1,37.9L49.8,36.1L49.5,35.4L49.1,34.8L48.6,33.7L47.5,32.3L45.8,30.5L43.7,28.6L41.9,26.4L40.4,23.8L40.4,23.4L40.1,23.0L39.8,22.3L39.2,21.3L38.1,18.6L37.5,17.5L37.5,17.2L36.7,15.8L36.7,15.5Z M73.4,14.6L73.0,14.7L72.5,16.0L72.2,16.3L71.2,18.7L70.6,19.7L70.4,20.4L69.1,22.9L69.0,23.3L67.9,25.5L65.9,28.2L64.0,30.1L62.6,31.4L62.4,31.7L61.4,32.8L60.6,34.0L59.8,35.4L59.5,37.1L59.6,43.6L59.7,45.7L60.0,46.2L60.2,46.4L60.8,46.3L61.5,45.5L61.8,45.0L63.8,42.9L66.1,40.1L67.3,37.9L67.9,36.5L68.3,34.8L68.3,30.1L68.4,29.4L68.8,28.1L68.8,27.7L69.6,25.0L70.0,24.4L70.0,24.0L70.6,23.1L71.3,21.2L72.0,19.9L72.0,19.4L72.7,18.1L72.8,17.5L73.1,17.2L73.6,16.1L73.7,15.3L73.7,14.9Z M38.9,9.8L38.7,10.0L38.7,10.6L38.9,10.9L39.2,12.0L39.8,13.2L41.0,17.3L41.3,19.2L41.4,21.4L42.1,24.0L42.9,25.7L44.2,27.4L48.9,32.3L49.1,32.4L49.6,32.4L49.9,32.2L50.1,30.4L50.0,25.1L49.8,23.1L49.2,21.4L48.9,20.7L47.6,19.0L46.3,18.0L45.5,17.4L44.1,16.3L43.8,16.2L41.7,14.0L40.4,11.8L40.4,11.3L40.0,10.7L39.8,10.2L39.4,9.8Z M59.2,9.5L58.5,9.8L57.4,10.5L54.8,12.9L53.7,14.4L52.7,16.0L52.1,17.4L51.4,19.7L51.0,21.4L50.9,33.1L51.1,46.8L51.0,57.9L51.2,60.2L51.1,62.3L50.7,62.7L50.3,62.8L44.4,62.9L43.2,63.0L41.5,63.0L41.2,63.2L40.9,63.5L40.9,64.1L41.2,65.0L41.5,65.6L41.5,66.1L42.2,67.8L42.6,69.3L43.2,70.1L43.5,70.2L44.6,70.3L50.5,70.3L50.9,70.4L51.2,70.7L51.2,71.2L50.6,71.6L41.5,71.8L41.2,72.2L41.2,72.8L41.6,73.8L41.7,74.4L42.1,75.2L42.1,75.8L42.5,76.5L42.5,76.8L43.1,78.6L43.5,78.9L43.9,79.1L50.9,79.2L51.2,79.7L51.4,86.1L51.2,92.6L50.9,95.9L50.9,96.8L50.6,98.3L50.4,100.1L50.3,100.5L50.1,102.3L48.9,107.0L48.0,109.6L46.8,112.2L46.1,113.3L46.0,113.7L45.2,115.0L45.3,115.6L47.3,117.2L48.6,118.8L49.1,119.2L49.5,119.2L49.8,119.1L50.2,118.5L52.0,116.8L54.5,114.8L54.9,114.7L56.0,113.7L58.4,112.5L58.6,112.3L60.1,111.6L61.8,110.6L62.5,110.4L63.7,109.7L64.0,109.7L64.4,109.4L65.8,108.8L66.3,108.6L66.9,108.5L68.4,107.7L69.1,107.6L69.7,107.3L70.0,107.3L70.6,106.9L71.9,106.6L72.2,106.3L73.0,106.1L73.4,105.8L74.0,105.7L75.2,105.1L75.7,105.0L79.8,102.7L83.4,100.1L85.5,98.2L85.9,97.6L87.6,95.6L89.2,93.4L89.3,92.9L90.0,92.0L90.1,91.6L90.8,90.4L91.0,89.6L91.3,89.1L91.9,86.9L92.0,86.7L92.6,83.1L92.6,81.5L92.4,81.1L92.1,81.1L91.7,81.5L90.4,83.5L87.8,86.6L86.0,88.3L84.8,89.2L81.8,91.4L79.0,92.9L78.5,93.1L75.6,94.6L74.8,94.8L74.4,95.0L73.9,95.1L73.5,95.4L71.1,96.3L70.6,96.6L70.3,96.6L69.9,96.9L68.5,97.5L68.3,97.7L66.8,98.3L66.0,98.9L63.9,99.9L63.0,100.6L61.2,101.6L59.5,102.8L58.0,104.0L57.7,104.1L57.6,104.0L57.6,103.5L58.0,102.3L58.0,101.2L58.3,100.6L58.3,99.6L58.6,98.9L58.9,95.5L59.2,93.6L59.4,88.6L59.4,79.5L59.8,79.2L60.3,79.1L64.6,79.1L66.4,78.9L66.8,78.8L67.3,78.1L69.3,72.2L69.2,71.7L68.7,71.4L59.8,71.4L59.5,71.3L59.2,71.0L59.2,70.7L59.5,70.4L60.0,70.2L64.0,70.1L66.0,70.1L66.8,69.9L67.3,69.0L67.6,67.9L68.1,66.9L69.1,63.7L69.1,63.0L68.8,62.7L68.6,62.7L65.4,62.6L60.4,62.7L59.5,62.6L59.2,62.4L59.1,62.1L58.9,55.4L59.0,53.6L58.9,52.7L58.9,34.7L58.7,32.1L58.8,30.5L58.6,29.7L58.7,23.4L58.6,22.4L58.5,17.3L58.9,13.1L59.2,12.3L59.3,11.5L59.7,10.0L59.6,9.7Z M70.3,9.0L69.8,9.0L69.5,9.2L68.9,10.2L69.0,11.0L68.3,11.7L67.8,12.6L66.4,14.6L64.9,16.0L63.3,17.3L61.7,18.9L60.1,21.1L59.7,22.1L59.2,24.5L59.3,26.3L59.2,28.1L59.4,28.6L59.4,31.5L59.6,32.0L60.0,32.3L60.4,32.3L60.7,32.1L62.6,29.9L63.5,29.1L65.7,26.1L67.1,23.6L67.4,22.9L67.6,21.5L67.7,21.2L67.9,18.1L68.3,16.1L68.3,15.7L68.6,15.0L68.7,14.3L69.1,13.1L69.4,12.4L70.0,10.8L70.5,9.8L70.5,9.4Z" fill="#000" fill-rule="evenodd"/>
</svg>