<svg xmlns="http://www.w3.org/2000/svg" viewBox="0 0 128 128" width="128" height="128">
  <path d="M12.6,119.2L12.3,119.0L11.6,119.2L11.0,120.2L12.6,120.2Z M18.2,120.1L18.2,120.2L18.7,120.2L18.8,119.9L19.2,119.5L19.6,119.3L20.5,119.6L20.8,120.0L20.8,120.2L21.3,120.2L21.2,119.5L20.6,118.9L19.3,118.8L18.9,118.9L18.7,119.2Z M14.0,120.2L14.6,120.2L14.6,120.0L15.2,119.4L16.1,119.4L16.8,120.1L17.1,120.1L17.2,119.8L17.1,119.2L16.6,118.9L15.1,118.8L14.8,118.9L14.2,119.5Z M64.7,9.3L63.9,9.5L63.1,10.0L62.4,10.3L58.8,12.5L57.5,13.1L57.1,13.5L56.6,13.7L55.3,14.6L50.5,17.1L50.3,17.4L49.5,17.7L49.0,18.2L48.8,19.0L48.8,47.2L49.6,48.1L50.1,48.3L50.7,48.8L51.2,49.0L53.9,50.7L55.2,51.3L55.7,51.8L56.2,52.0L58.8,53.6L60.3,54.4L61.1,55.2L61.3,55.8L61.3,61.7L61.1,63.7L60.7,64.1L60.1,64.2L55.3,64.1L54.4,63.3L54.3,62.8L52.4,59.7L51.1,57.1L50.5,56.4L50.2,55.5L49.4,54.3L48.4,52.3L47.8,51.6L44.2,51.4L34.6,51.5L19.8,51.3L19.1,51.8L18.6,52.5L17.9,53.8L17.0,55.3L16.6,56.2L11.3,65.5L10.5,67.0L10.7,67.8L11.7,69.4L12.8,71.5L14.2,73.7L15.7,76.7L16.4,77.7L18.2,81.1L19.2,82.6L19.8,82.9L32.0,82.9L36.2,83.1L47.8,83.0L48.6,82.1L49.2,80.8L50.9,78.1L51.1,77.4L53.6,73.2L53.9,72.5L54.3,72.1L54.5,71.4L55.3,70.5L56.7,70.2L60.4,70.3L61.1,70.8L61.1,102.7L60.9,117.4L61.1,118.7L61.3,118.9L61.8,119.0L66.3,119.0L66.8,118.7L66.9,118.2L67.1,112.5L67.3,94.3L67.3,71.3L67.6,70.6L68.0,70.4L73.0,70.4L73.6,70.6L74.1,71.2L74.5,72.2L74.9,72.6L75.2,73.4L75.7,73.9L77.3,77.1L77.7,77.7L80.2,82.3L80.9,83.0L81.3,83.2L87.7,83.4L99.4,83.4L107.6,83.5L109.1,83.4L109.8,82.6L112.3,78.2L112.4,77.8L112.9,77.1L113.1,76.6L113.5,76.0L114.4,74.3L116.5,71.0L117.6,68.8L117.7,67.3L117.4,66.2L115.9,63.5L115.4,62.9L114.7,61.4L114.4,61.1L114.3,60.6L113.9,60.2L113.7,59.5L113.4,59.3L112.6,57.6L112.2,57.0L111.8,56.0L110.7,54.3L110.4,53.6L109.3,52.1L108.2,52.0L106.8,52.0L99.1,52.0L95.4,51.8L81.1,51.8L80.8,52.0L80.2,52.7L79.4,54.2L78.9,55.3L78.0,56.6L77.8,57.1L76.4,59.4L75.0,62.1L73.6,64.1L73.1,64.3L69.5,64.3L67.7,64.1L67.5,63.8L67.4,55.9L67.7,55.2L69.4,53.9L70.2,53.6L70.4,53.4L73.2,51.9L73.7,51.4L74.1,51.3L76.4,49.9L79.3,48.4L79.8,47.7L80.0,41.5L79.9,35.7L80.1,18.8L79.9,18.4L79.2,17.8L78.8,17.7L77.6,16.8L76.6,16.3L76.0,15.9L73.3,14.4L70.8,12.8L70.0,12.4L67.7,10.9Z M81.1,70.8L81.6,70.5L82.3,70.4L90.5,70.6L91.6,70.5L108.6,70.7L109.0,71.0L109.0,71.5L107.5,74.4L106.8,75.3L106.6,76.0L106.0,76.6L105.9,76.9L105.4,77.2L102.6,77.3L85.2,77.1L84.5,76.9L84.0,76.4L82.1,73.1L81.9,72.6L81.7,72.3L81.1,71.2Z M19.6,70.5L19.9,70.2L20.3,70.2L34.0,70.2L47.4,70.3L47.8,70.6L47.8,71.1L45.3,75.6L44.6,76.5L44.1,76.9L42.4,76.9L23.4,76.8L22.9,76.6L22.3,75.8L22.0,74.9L21.7,74.6L20.3,72.0Z M81.2,63.6L82.2,61.7L83.2,60.3L83.5,59.4L84.1,58.6L84.9,57.9L90.1,57.8L96.1,58.0L104.9,58.0L105.3,58.1L105.9,58.6L106.8,60.3L108.1,62.4L108.6,63.6L108.7,64.2L108.4,64.4L105.9,64.5L82.7,64.4L81.7,64.3L81.3,64.1Z M19.9,63.2L22.7,58.1L23.2,57.7L42.6,57.6L44.0,57.8L44.7,58.4L47.4,63.3L47.3,64.0L47.1,64.1L25.8,64.1L20.9,64.0L20.2,63.8L19.9,63.5Z M67.9,18.8L69.0,19.2L73.0,21.6L73.8,22.3L73.9,22.8L73.8,43.8L73.1,44.6L72.3,45.2L68.0,47.5L67.8,47.5L67.5,47.0L67.5,28.7L67.7,20.6L67.6,19.3Z M60.8,18.8L61.1,18.8L61.4,19.2L61.5,20.8L61.3,40.2L61.4,42.8L61.3,47.1L61.0,47.4L60.7,47.4L59.2,46.5L58.6,46.3L56.0,44.7L55.2,44.0L54.9,43.0L54.9,32.8L55.1,22.6L55.2,22.3L56.4,21.2Z" fill="#000" fill-rule="evenodd"/>
</svg>