<svg xmlns="http://www.w3.org/2000/svg" viewBox="0 0 128 128" width="128" height="128">
  <path d="M39.3,53.4L38.4,54.7L38.2,55.2L37.5,56.2L37.4,56.5L34.5,61.0L33.7,62.5L32.8,63.8L31.5,66.0L31.4,66.4L30.4,67.7L30.4,68.3L30.6,68.6L31.7,68.8L32.4,68.7L33.9,68.9L50.5,68.9L52.0,69.1L62.5,69.0L63.1,69.1L63.7,69.5L63.9,71.4L63.7,75.6L63.7,84.4L63.5,84.7L63.2,84.8L55.9,84.7L55.7,84.4L55.9,80.0L55.8,77.8L55.4,77.6L54.1,77.5L50.0,77.5L49.4,78.0L49.4,78.2L49.3,84.1L49.0,84.5L48.5,84.7L42.5,84.6L42.2,84.8L42.0,85.6L41.9,86.6L41.9,90.6L42.1,91.0L42.5,91.1L43.8,91.2L48.1,91.2L48.8,91.4L49.1,91.6L49.3,93.4L49.3,101.2L49.1,103.4L49.2,104.7L49.0,105.3L48.7,105.6L45.5,105.5L43.5,105.3L42.0,105.3L41.7,105.5L41.6,110.1L41.8,111.4L42.1,111.6L44.2,111.4L48.1,111.5L48.6,111.6L49.1,112.0L49.0,113.8L49.1,115.5L49.1,118.2L49.3,118.8L49.7,119.0L51.6,119.2L53.9,119.2L54.4,119.0L54.7,118.6L54.8,118.0L54.7,117.1L54.9,112.4L55.3,112.0L55.8,111.8L62.0,111.7L62.8,111.9L64.9,111.8L65.6,112.0L66.9,111.8L71.2,111.8L74.2,112.0L76.7,112.0L77.0,112.4L77.0,114.2L77.1,115.2L77.0,118.2L77.2,118.7L77.3,118.9L77.9,119.0L82.0,118.8L82.3,118.5L82.5,112.3L82.8,112.0L83.7,111.8L88.3,111.7L88.6,111.5L88.8,110.8L88.7,109.9L88.8,107.0L88.7,106.0L88.6,105.7L88.0,105.3L83.1,105.3L82.8,105.2L82.6,104.9L82.7,97.3L82.6,93.1L82.7,92.0L83.1,91.4L87.9,91.4L88.7,91.3L89.0,91.1L89.1,90.6L89.1,85.5L88.9,85.1L88.4,85.0L86.0,84.8L84.3,85.0L83.0,84.7L82.7,84.3L82.8,83.5L82.7,82.9L82.8,80.3L82.7,78.4L82.4,77.9L81.2,77.8L78.0,77.8L77.8,77.8L77.3,78.4L77.2,84.4L76.8,84.8L71.8,84.8L69.9,84.5L69.6,84.2L69.4,83.4L69.7,75.9L69.6,72.2L69.7,70.1L70.0,69.4L70.9,69.2L76.7,69.1L84.0,69.3L85.2,69.2L85.9,69.4L87.3,69.2L92.8,69.4L94.6,69.2L97.2,69.4L97.7,69.2L97.9,68.9L97.9,68.4L97.7,68.0L91.8,56.2L91.6,56.0L91.2,56.0L90.9,56.2L90.1,57.7L89.8,58.5L89.1,59.4L88.4,60.8L87.4,62.1L87.4,62.4L87.0,62.9L86.0,64.7L85.2,65.8L84.3,67.4L84.1,67.6L83.7,67.6L83.1,66.6L82.8,65.7L82.0,64.7L81.1,63.0L80.2,61.9L79.5,60.5L79.0,59.8L78.9,59.4L77.7,57.6L77.1,56.4L76.1,55.1L75.6,55.1L75.2,55.5L73.6,58.0L73.1,58.6L71.9,60.7L70.5,62.8L69.4,64.8L67.5,67.7L67.1,68.2L66.5,68.3L66.1,67.9L65.9,67.1L65.0,65.8L64.9,65.4L63.1,62.5L62.7,61.6L62.5,61.4L62.0,60.3L61.6,59.8L60.8,58.1L60.3,57.6L60.2,57.3L58.5,54.6L57.9,54.6L56.1,56.9L55.7,57.8L54.5,59.3L53.9,60.4L53.5,60.8L52.8,62.3L51.9,63.3L51.4,64.2L49.5,66.8L49.2,67.1L48.9,67.1L48.7,66.9L47.9,65.4L47.2,64.5L44.6,60.4L42.6,57.7L42.1,56.6L40.3,54.3L40.0,53.7L39.6,53.4Z M69.8,91.2L76.5,91.2L76.8,91.3L77.1,91.7L77.1,101.2L77.3,103.4L77.2,104.9L77.1,105.1L76.7,105.5L70.7,105.6L69.6,105.4L69.2,105.0L69.2,96.2L69.4,94.7L69.3,91.9Z M63.0,91.2L63.4,91.7L63.5,92.2L63.4,94.9L63.4,101.5L63.3,102.9L63.3,105.3L63.0,105.6L62.7,105.7L55.4,105.6L55.1,105.4L55.0,104.4L55.0,100.9L55.2,97.7L55.2,93.9L55.4,91.5L55.7,91.3L56.1,91.1L62.7,91.1Z M84.0,41.7L83.2,42.5L83.1,42.8L82.3,43.9L81.4,45.5L80.5,46.9L79.8,48.2L79.5,48.5L78.7,50.0L78.4,50.4L78.3,51.5L78.6,52.1L79.2,53.1L79.8,54.3L80.6,55.5L81.5,57.2L81.9,57.7L82.2,58.5L82.6,59.0L83.2,60.2L83.9,61.0L84.3,61.0L85.2,60.2L86.3,58.5L86.9,57.2L87.3,56.8L87.8,55.6L88.8,54.2L89.7,52.4L89.7,51.9L88.4,49.4L88.2,49.2L87.6,47.7L86.9,46.4L86.8,46.1L86.2,45.0L85.5,43.4L84.9,42.6L84.6,42.0L84.4,41.7Z M67.5,40.6L67.2,40.6L66.9,40.9L66.0,42.3L64.6,44.1L63.9,45.5L63.0,46.7L62.7,47.3L62.2,47.7L60.7,50.3L60.7,50.9L60.8,51.3L61.8,53.1L62.2,53.7L62.5,54.6L63.4,55.6L65.2,59.1L65.9,60.2L66.3,60.4L66.6,60.4L67.5,59.4L68.7,57.7L68.9,57.2L70.4,55.0L71.0,54.0L72.0,52.6L73.1,50.3L73.1,49.6L72.6,48.5L71.3,46.6L71.0,45.8L70.4,45.2L70.0,44.2L69.7,43.9L68.5,41.8L67.9,40.9Z M48.7,38.4L47.9,39.3L47.2,40.6L46.8,41.1L46.2,42.3L45.6,42.9L44.8,44.5L44.0,45.7L43.2,47.2L42.4,48.5L42.3,49.0L43.2,50.4L44.2,52.4L45.8,54.8L45.9,55.1L46.4,55.8L46.9,56.8L48.4,59.1L48.7,59.4L49.1,59.4L49.4,59.1L51.7,55.9L53.1,53.7L53.5,53.3L54.2,52.1L54.8,51.4L55.5,50.2L55.6,49.3L54.1,46.4L53.2,45.2L52.5,43.7L51.9,42.9L51.7,42.4L51.0,41.4L51.0,41.1L49.9,39.3L49.3,38.5Z M76.4,26.6L76.0,26.6L75.4,27.4L75.1,28.0L73.3,30.6L72.5,32.2L71.4,33.6L71.1,34.3L70.1,35.8L69.8,36.6L69.8,37.2L70.0,37.8L70.7,38.6L71.3,39.9L72.8,42.2L74.8,45.8L75.3,46.4L75.8,46.3L76.5,45.6L77.0,44.8L77.3,44.2L78.1,43.2L78.5,42.3L79.0,41.7L79.2,41.3L79.6,40.7L80.6,39.1L81.4,38.2L81.9,37.3L81.9,36.7L81.4,35.7L80.7,34.6L80.2,33.2L79.8,32.8L79.3,31.6L78.6,30.5L77.4,28.0L76.7,26.9Z M57.6,23.9L57.3,24.0L57.2,24.5L56.0,26.1L55.4,27.1L54.8,27.9L53.9,29.6L53.8,29.9L53.2,30.7L52.9,31.4L52.2,32.3L51.4,33.7L51.4,34.2L51.9,34.9L52.2,35.6L52.7,36.3L52.9,36.9L54.6,39.8L55.5,41.7L56.0,42.3L56.7,43.8L57.3,44.7L57.5,45.2L57.8,45.5L58.4,45.5L59.5,44.0L60.0,43.0L61.1,41.6L61.6,40.7L64.5,36.5L64.9,35.7L64.9,35.2L64.0,33.5L63.4,32.8L61.7,30.1L61.1,29.0L60.5,28.0L60.2,27.4L59.2,25.9L58.5,24.6L58.1,24.0Z M66.8,9.0L66.2,9.5L65.6,10.6L64.6,11.9L63.3,14.3L62.9,14.7L61.7,16.8L61.2,17.3L59.9,19.6L59.9,20.2L61.3,23.0L62.0,23.9L62.6,25.2L63.7,26.8L64.6,28.6L65.8,30.3L66.3,31.5L66.9,31.9L67.3,32.0L67.7,31.6L69.0,29.5L71.2,26.4L71.8,25.2L73.4,23.1L73.8,22.1L73.8,21.5L73.0,19.9L72.5,19.2L72.1,18.1L71.3,17.0L70.7,15.6L70.0,14.5L69.5,13.3L67.7,10.2L67.5,9.6L66.9,9.0Z" fill="#000" fill-rule="evenodd"/>
</svg>