<svg xmlns="http://www.w3.org/2000/svg" viewBox="0 0 128 128" width="128" height="128">
  <path d="M63.5,9.1L63.1,9.3L60.9,12.0L60.5,12.7L57.6,16.3L55.7,19.0L54.8,20.0L52.9,22.7L51.2,24.7L49.3,27.4L48.3,28.5L48.0,29.1L45.0,33.1L44.8,33.5L43.9,34.4L40.0,40.2L38.3,43.9L37.7,45.6L37.1,49.4L37.1,51.8L37.2,52.3L37.2,54.1L37.5,55.6L38.1,57.5L38.9,59.1L40.0,60.6L41.7,62.5L43.7,63.9L45.6,64.8L48.3,65.7L50.1,65.9L52.7,65.8L55.1,65.3L57.2,64.4L59.9,62.6L60.4,62.7L60.5,63.5L60.5,69.0L60.4,71.0L60.5,79.3L60.2,79.7L40.9,79.7L39.5,79.8L39.1,80.1L38.9,80.4L38.9,100.4L39.1,118.2L39.2,118.5L39.6,118.8L41.7,119.0L64.0,119.2L76.8,119.2L77.7,119.1L78.0,118.5L78.1,91.4L77.7,90.8L77.4,90.8L69.2,90.8L67.5,90.6L67.1,90.1L67.0,87.6L67.2,86.7L67.5,86.4L68.1,86.4L76.7,86.4L78.9,86.3L81.9,86.4L82.3,86.7L82.4,87.0L82.5,118.5L82.6,118.8L83.0,119.1L88.5,119.1L88.8,118.9L89.1,118.1L89.1,80.5L88.7,80.0L88.3,79.8L73.5,79.8L68.0,79.7L67.4,79.6L67.0,79.0L66.9,63.1L67.2,62.8L67.6,62.8L69.0,63.7L70.7,64.6L72.2,65.2L72.8,65.2L73.0,65.4L74.2,65.7L77.1,66.0L78.5,65.9L80.3,65.6L82.4,64.9L82.8,64.6L84.4,63.9L86.7,62.2L88.0,60.8L89.4,58.9L90.3,57.1L90.9,55.4L91.1,54.1L91.1,51.2L90.7,48.8L89.8,45.9L88.2,42.2L86.6,39.5L85.8,38.5L84.4,36.3L83.5,35.2L81.3,32.0L80.7,31.4L80.3,30.7L79.4,29.6L77.1,26.2L74.8,23.4L73.9,22.0L73.0,21.1L72.2,19.7L71.7,19.2L69.6,16.3L69.0,15.6L68.7,15.0L66.8,12.7L66.0,11.4L64.1,9.2Z M56.3,97.1L56.6,96.9L58.6,96.9L60.3,97.0L60.8,97.4L61.0,98.0L60.9,101.3L60.5,102.0L60.1,102.2L57.0,102.2L56.5,102.1L56.0,101.6L55.8,100.9L56.0,97.5Z M45.8,86.5L46.5,86.3L59.7,86.4L60.1,86.4L60.5,87.0L60.6,89.5L60.5,90.3L60.2,90.6L58.6,90.8L50.5,90.6L50.3,90.7L49.9,91.1L49.8,105.5L50.0,107.7L50.3,108.2L51.1,108.3L66.6,108.3L66.8,108.2L67.0,107.6L66.9,100.2L67.1,97.8L67.5,97.4L68.0,97.2L70.6,97.2L71.1,97.5L71.3,97.8L71.5,99.3L71.5,111.3L71.4,112.1L71.0,112.7L46.7,112.7L46.1,112.7L45.7,112.4L45.6,112.0L45.4,107.7L45.5,87.3L45.6,86.7Z M63.2,19.0L63.7,18.9L64.0,19.1L64.9,20.0L68.6,25.1L68.7,25.5L69.5,26.4L70.9,28.5L71.9,29.6L74.8,34.0L75.1,34.1L76.9,36.6L77.4,37.5L79.6,40.5L79.8,41.1L80.3,41.6L80.6,42.2L81.3,43.1L82.1,44.4L84.0,48.1L84.4,49.3L84.6,50.9L84.6,52.7L83.9,54.8L83.0,56.2L81.8,57.6L81.5,57.8L81.2,58.2L79.6,59.0L78.0,59.3L76.1,59.3L74.0,58.9L72.3,58.1L70.8,57.1L69.3,55.9L68.9,55.3L69.0,54.9L69.3,54.4L78.8,45.1L79.0,44.5L78.8,43.9L77.5,42.2L76.5,40.6L75.7,39.8L75.2,39.8L74.8,40.1L68.7,46.0L67.8,46.8L67.5,47.0L67.0,46.9L66.9,41.8L67.0,40.9L67.2,40.6L72.0,35.8L72.3,35.3L72.3,34.9L71.7,33.8L69.8,31.3L69.1,30.7L68.8,30.7L68.4,30.9L64.1,35.1L63.5,35.2L63.1,34.9L58.6,30.6L58.0,30.6L57.3,31.2L56.8,32.1L55.0,34.5L54.8,35.2L55.0,35.6L58.6,39.0L59.0,39.5L60.2,40.7L60.4,41.2L60.5,43.3L60.5,46.5L60.4,47.5L60.1,47.6L59.7,47.4L58.8,46.6L54.0,41.9L51.8,39.9L51.2,39.9L50.7,40.4L48.3,43.9L48.3,44.5L49.0,45.4L50.4,46.6L58.2,54.4L58.4,55.0L57.9,55.8L56.2,57.3L54.7,58.2L52.3,59.0L50.0,59.0L48.0,58.5L47.5,58.2L47.1,58.2L46.5,57.8L45.3,56.7L44.4,55.6L43.6,54.1L43.5,53.5L43.3,53.2L43.0,52.1L42.9,50.6L43.0,49.0L43.3,47.4L43.6,46.5L43.9,45.9L44.2,45.1L45.4,42.8L46.9,40.5L47.8,39.6L48.8,37.8L50.9,35.1L51.2,34.6L51.9,33.7L52.3,33.4L52.8,32.6L52.8,32.5L53.5,31.7L56.6,27.5L60.0,23.2L62.8,19.3Z" fill="#000" fill-rule="evenodd"/>
</svg>