<svg xmlns="http://www.w3.org/2000/svg" viewBox="0 0 128 128" width="128" height="128">
  <path d="M10.0,100.4L9.9,102.7L10.1,103.4L10.8,104.5L12.2,105.9L14.4,107.1L16.4,107.8L17.8,108.4L20.4,108.9L22.7,109.1L24.9,109.4L29.4,109.2L32.1,109.0L35.4,108.3L36.2,107.8L37.1,107.6L39.3,106.5L41.1,104.8L41.5,104.2L41.9,102.5L41.9,101.4L41.5,100.4L41.0,99.4L40.2,98.4L38.2,96.6L37.0,95.9L34.7,94.9L33.0,94.7L32.5,94.4L31.7,94.4L30.9,94.2L29.2,93.9L26.7,93.9L25.8,93.8L21.6,93.9L17.9,94.4L16.7,95.0L15.8,95.2L15.5,95.5L14.4,95.8L12.3,97.0L10.6,98.7Z M15.6,101.3L16.3,100.6L17.3,100.2L19.3,100.2L21.2,100.4L29.9,100.5L31.2,100.6L33.3,100.6L34.3,100.7L35.0,101.1L35.5,101.6L35.5,102.4L35.4,102.7L34.9,103.2L34.3,103.5L33.6,103.6L28.9,103.5L27.8,103.7L27.2,103.5L18.9,103.4L17.5,103.3L16.3,102.9L15.7,102.0Z M11.0,24.7L10.3,26.1L9.8,28.7L9.8,37.4L9.6,39.5L9.7,48.1L9.6,53.0L9.5,63.3L9.6,67.0L9.4,67.8L9.3,70.5L9.3,80.4L9.2,82.4L9.2,89.0L9.3,90.7L9.2,95.2L9.4,95.4L10.1,95.2L10.5,94.8L11.0,94.6L11.5,94.1L13.2,93.2L16.9,91.9L18.7,91.5L20.1,91.4L20.9,91.2L22.2,91.0L27.6,91.0L31.2,91.4L35.3,92.2L36.2,92.5L37.7,92.8L38.7,93.2L39.3,93.3L39.8,93.6L41.1,94.1L41.5,94.1L42.4,94.6L43.3,94.8L44.5,95.4L45.6,95.7L46.5,96.1L51.4,97.9L52.1,98.3L53.6,98.7L54.2,99.1L55.4,99.4L55.9,99.7L56.9,100.1L58.3,100.7L59.3,101.0L59.6,101.2L60.7,101.5L62.0,102.1L62.8,102.3L65.8,103.3L66.2,103.5L67.5,103.8L69.2,104.4L69.9,104.5L71.1,104.9L71.7,105.0L72.4,105.3L76.6,106.3L77.9,106.5L78.9,106.8L81.7,107.1L83.1,107.5L85.7,107.8L86.6,108.1L88.4,108.3L89.9,108.6L91.7,108.6L95.0,109.0L100.5,108.9L101.5,108.7L102.6,108.7L106.8,107.6L107.3,107.4L109.1,106.9L109.8,106.5L113.0,105.1L116.5,102.9L118.4,101.5L118.8,100.8L118.8,91.7L118.8,30.4L119.0,28.8L118.4,28.8L117.8,29.6L117.0,30.1L113.4,31.9L112.1,32.1L111.3,32.6L109.7,32.8L109.0,33.1L107.6,33.2L106.3,33.7L104.0,33.7L103.1,34.0L100.5,34.1L96.2,34.1L94.3,34.0L92.2,34.0L90.6,33.7L89.6,33.7L88.7,33.5L87.2,33.3L86.2,33.0L85.7,33.0L85.1,32.8L83.2,32.3L82.9,32.2L81.1,31.9L80.7,31.6L78.9,31.3L77.8,30.8L76.2,30.5L74.6,29.9L73.9,29.8L72.9,29.4L72.4,29.4L71.6,29.1L69.8,28.7L67.3,27.8L64.7,27.1L62.0,26.2L60.7,26.0L60.2,25.7L59.8,25.7L59.1,25.4L57.7,25.1L56.4,24.6L55.5,24.4L53.7,23.8L49.0,22.6L47.6,22.1L47.2,22.1L45.5,21.6L45.2,21.5L43.8,21.2L43.3,21.0L41.7,20.7L41.5,20.6L38.4,20.0L35.7,19.3L30.0,18.8L26.0,18.8L24.9,19.0L22.6,19.0L21.3,19.3L19.9,19.4L18.8,19.7L17.0,20.3L16.8,20.5L16.3,20.6L14.6,21.5L12.8,22.8Z M95.0,40.1L95.5,40.5L96.1,42.1L97.7,44.8L100.3,48.2L102.7,51.0L106.6,54.4L106.9,55.2L106.9,61.4L106.8,61.8L106.6,62.1L105.4,62.1L103.2,61.2L102.8,60.9L101.7,60.4L100.5,59.5L99.4,58.4L99.0,58.4L99.0,58.6L99.5,59.7L99.7,60.4L100.9,62.6L103.0,65.9L105.0,68.1L107.6,70.3L107.8,70.8L107.9,72.2L107.7,77.9L107.4,78.2L106.5,78.2L105.4,77.7L104.9,77.7L104.0,77.2L103.1,76.4L102.3,75.9L101.5,75.2L100.4,73.7L100.0,74.0L100.0,74.1L102.0,78.3L103.3,80.3L107.0,84.9L109.2,87.0L109.4,87.4L109.4,88.4L109.4,92.7L109.2,94.9L108.8,95.2L108.1,95.1L104.4,93.2L102.1,91.6L98.9,88.9L97.0,86.9L96.4,86.0L95.9,86.1L95.9,89.0L96.5,98.6L96.5,101.9L96.1,102.3L93.9,102.4L92.6,102.3L92.2,101.8L92.1,101.4L92.3,97.2L92.3,87.0L92.5,86.2L92.4,85.7L91.9,85.7L91.6,86.2L90.0,87.8L87.6,89.5L86.4,90.6L83.3,92.5L80.8,93.8L80.3,93.8L79.9,93.4L79.9,92.1L80.1,90.8L79.9,89.8L80.0,85.4L80.2,85.0L81.8,83.7L84.7,80.8L87.8,76.4L89.0,73.8L89.5,73.1L89.3,72.8L88.8,72.8L86.8,74.3L86.0,74.6L84.2,75.9L83.9,76.0L82.1,77.1L81.5,77.2L81.1,76.8L81.1,71.6L81.3,69.6L81.7,69.1L82.9,68.2L84.5,66.6L86.4,64.5L87.6,62.4L88.4,61.5L89.4,59.7L90.5,58.3L90.5,57.6L90.1,57.7L88.7,58.9L86.7,60.3L86.1,60.9L84.8,61.5L84.0,62.1L83.5,62.1L83.1,61.5L83.0,60.5L83.3,56.4L83.3,53.9L85.0,52.5L86.9,50.5L90.6,46.4L93.2,42.8L93.2,42.4L93.6,42.1L94.4,40.5L94.8,40.1Z" fill="#000" fill-rule="evenodd"/>
</svg>