<svg xmlns="http://www.w3.org/2000/svg" viewBox="0 0 128 128" width="128" height="128">
  <path d="M64.9,17.8L62.4,21.7L59.7,25.3L54.4,30.8L50.5,34.1L48.9,35.0L47.2,36.4L44.1,38.1L43.7,38.5L43.6,42.2L44.1,42.5L45.4,42.5L49.7,41.0L51.6,40.3L52.7,39.5L54.6,38.7L58.1,36.4L58.8,36.5L58.4,37.3L55.7,40.7L52.1,44.5L47.9,48.0L43.7,50.9L43.4,51.9L43.4,54.4L41.7,57.5L40.2,59.5L39.6,60.6L38.1,62.5L35.6,65.3L32.2,68.7L28.8,71.5L25.9,73.4L24.3,74.3L23.9,74.7L23.1,75.0L22.5,75.7L22.3,79.1L22.5,79.5L23.1,79.7L26.1,79.0L28.8,78.0L30.3,77.1L31.2,76.9L33.6,75.6L36.4,73.8L36.8,73.7L37.0,73.9L36.5,74.8L34.2,77.9L29.3,82.7L26.8,84.8L22.5,87.7L22.2,88.4L22.2,91.7L22.5,92.0L23.0,92.1L25.1,91.6L25.9,91.2L26.7,91.1L27.0,90.9L27.3,90.9L30.4,89.6L32.4,88.6L36.2,86.3L36.6,86.4L36.5,87.0L33.3,90.9L31.7,92.5L31.2,93.1L26.8,97.0L26.5,97.1L25.2,98.2L24.7,98.4L22.6,99.8L22.2,100.3L22.0,100.7L21.9,104.0L22.2,104.4L23.2,104.4L28.1,102.8L29.6,102.0L30.6,101.7L31.8,100.9L32.2,100.8L35.1,99.0L35.5,98.9L37.5,97.4L38.0,97.1L38.4,97.1L38.7,97.5L38.7,104.0L38.9,104.3L39.4,104.5L46.2,104.5L46.6,104.2L46.8,103.0L46.9,97.5L47.2,97.3L47.4,97.3L50.5,99.3L51.8,100.3L56.0,102.6L60.8,104.4L61.9,104.6L62.8,104.9L64.5,104.9L65.6,104.5L66.5,104.4L67.7,103.9L68.3,103.8L68.9,103.5L71.0,102.8L71.5,102.5L72.1,102.4L75.0,100.9L79.9,97.7L80.6,97.6L80.8,97.9L80.8,103.9L80.9,104.5L81.3,104.9L88.3,105.2L89.2,104.9L89.3,104.0L89.3,98.3L89.4,98.1L90.1,98.0L94.8,101.2L97.8,102.8L100.1,103.8L103.1,104.9L104.2,105.0L104.6,105.3L105.4,105.5L106.0,105.4L106.2,105.2L106.2,101.7L104.5,100.3L104.2,100.2L104.1,100.0L103.0,99.4L102.1,98.5L101.1,97.9L99.0,96.3L95.6,92.9L92.5,89.4L90.9,87.0L90.9,86.6L91.1,86.5L91.7,86.6L95.5,89.1L99.3,91.0L102.3,92.1L103.3,92.3L103.7,92.6L105.9,93.0L106.2,92.7L106.3,92.2L106.2,88.9L102.9,86.5L102.2,86.1L98.8,83.3L94.5,78.9L91.4,74.8L91.5,74.4L91.9,74.4L95.7,76.8L97.3,77.5L97.8,77.9L101.3,79.4L105.2,80.6L106.1,80.6L106.4,80.3L106.4,76.5L105.8,75.8L102.2,73.7L98.7,71.0L97.2,69.5L96.2,68.8L92.5,65.0L89.6,61.5L88.6,59.8L87.4,58.3L86.8,57.0L86.0,55.8L85.6,54.8L85.6,51.5L85.3,51.0L82.8,49.3L77.9,45.4L73.3,40.6L72.8,39.7L71.2,37.8L70.8,37.0L71.0,36.8L71.5,36.9L73.6,38.3L76.4,39.9L79.7,41.4L82.6,42.5L84.6,43.0L85.4,43.0L85.8,42.6L85.9,39.1L85.6,38.5L83.5,37.2L83.1,36.9L82.5,36.6L79.7,34.6L75.9,31.4L73.4,28.9L71.1,26.3L67.7,21.6L65.7,18.3L65.3,17.8Z M49.0,86.6L49.1,86.3L49.5,86.3L52.1,88.0L52.7,88.2L52.9,88.5L54.5,89.2L54.9,89.6L56.4,90.1L58.2,91.0L59.3,91.3L60.0,91.7L61.4,92.1L62.3,92.2L63.1,92.6L64.3,92.6L68.1,91.6L68.5,91.3L69.3,91.1L69.8,90.9L72.0,90.1L74.5,88.8L75.0,88.7L78.4,86.6L78.8,86.6L78.9,86.9L77.2,89.3L74.9,92.0L71.5,95.2L67.9,98.1L67.2,98.5L66.3,99.2L64.3,100.4L63.6,100.5L63.0,100.2L62.6,99.8L60.2,98.4L59.6,97.7L58.1,96.6L55.3,94.2L51.2,89.7Z M49.1,73.9L49.6,73.8L52.7,75.8L57.0,78.0L60.7,79.4L63.5,80.2L65.6,80.0L69.2,78.9L69.7,78.6L72.0,77.9L73.2,77.1L73.9,76.9L74.8,76.3L77.2,75.1L78.2,74.4L78.6,74.4L78.8,74.8L76.8,77.3L74.2,80.2L71.2,83.0L67.1,86.2L64.7,87.7L63.5,87.9L61.1,86.5L56.6,82.9L54.2,80.5L50.8,76.7L49.2,74.4Z M51.3,65.1L51.8,64.6L52.6,64.3L55.7,62.6L59.5,59.8L60.2,59.9L60.2,60.1L60.2,66.9L60.2,67.5L60.7,68.0L65.4,68.1L68.3,67.9L68.6,67.3L68.7,61.3L68.8,60.5L68.9,60.3L69.5,60.3L73.6,63.1L76.9,64.9L77.3,65.3L77.3,65.7L75.4,67.6L72.1,70.5L71.2,71.0L70.1,72.0L67.4,73.8L65.2,74.9L64.9,75.2L63.6,75.3L62.2,74.5L59.8,72.8L59.6,72.8L57.0,70.9L56.2,70.1L55.6,69.7L52.0,66.3L51.4,65.5Z M70.7,49.1L71.5,49.4L73.2,50.6L73.7,50.8L75.3,51.8L78.8,53.5L79.6,53.7L81.5,54.5L82.4,54.7L84.4,55.4L84.7,55.8L84.7,56.2L83.8,57.7L82.8,58.8L82.3,59.7L81.7,60.4L80.8,60.4L79.3,59.3L77.8,58.0L74.2,54.4L73.5,53.4L72.7,52.6L70.9,50.1L70.6,49.6Z M58.2,48.9L58.3,49.4L56.4,51.8L56.0,52.4L51.4,57.3L48.5,59.6L47.7,60.0L47.1,60.1L45.2,57.6L44.5,56.3L44.1,55.8L44.1,55.4L44.5,55.0L46.1,54.6L46.8,54.3L47.5,54.2L48.9,53.5L50.8,52.9L55.6,50.4L57.4,49.1Z M64.5,9.4L61.5,11.3L59.8,12.7L58.9,13.3L52.1,18.6L47.3,23.0L42.6,27.6L37.4,33.5L37.0,34.1L34.6,37.0L33.3,39.0L32.5,39.7L32.2,40.4L31.5,41.2L29.5,44.3L29.0,44.9L28.4,46.0L27.8,46.8L26.5,49.3L26.0,49.8L24.3,52.8L23.5,54.6L22.3,56.6L21.1,59.1L21.0,59.6L20.6,60.0L18.0,66.3L18.0,66.6L17.7,67.1L15.5,73.2L14.5,76.9L13.7,79.4L12.8,83.2L12.6,83.9L12.4,85.4L11.9,86.9L11.4,90.6L11.1,91.5L10.8,94.3L10.6,95.4L9.9,102.1L9.9,106.8L10.7,107.4L11.7,107.8L12.2,108.2L15.7,109.6L20.2,111.2L20.4,111.4L25.5,113.0L26.1,113.1L26.9,113.5L30.1,114.2L30.6,114.5L34.1,115.2L35.1,115.6L36.1,115.7L37.6,116.1L38.7,116.2L39.9,116.6L41.7,116.8L43.0,117.1L45.4,117.4L45.9,117.6L48.3,117.8L48.9,117.9L50.0,117.9L51.2,118.2L52.1,118.2L53.8,118.5L62.1,118.9L70.8,118.9L72.1,118.8L75.5,118.7L81.7,118.1L83.4,117.8L86.0,117.5L86.4,117.3L89.1,117.0L89.8,116.8L90.9,116.7L92.6,116.2L93.7,116.1L94.9,115.7L96.4,115.6L97.4,115.2L98.6,115.0L101.3,114.2L102.4,114.0L106.3,112.7L107.9,112.4L108.4,112.1L113.5,110.4L116.2,109.3L116.4,109.2L118.0,108.7L118.4,108.2L118.5,107.1L118.2,98.1L117.9,96.6L117.8,94.7L117.3,91.9L117.3,90.4L116.9,89.0L116.2,84.5L115.9,83.4L115.2,80.1L113.4,73.5L110.1,64.0L109.8,63.5L109.0,61.5L106.5,55.9L106.2,55.6L106.1,55.2L105.7,54.7L105.5,54.1L105.2,53.6L103.9,50.9L103.5,50.5L103.3,49.8L102.2,48.1L102.1,47.8L100.4,44.9L100.1,44.6L99.0,42.8L98.6,42.4L96.8,39.5L96.0,38.6L95.8,38.2L94.4,36.1L90.7,31.7L90.3,31.0L86.4,26.7L80.6,20.9L74.9,16.0L73.8,15.3L71.5,13.4L70.7,12.9L69.4,11.8L68.4,11.2L67.2,10.3L65.5,9.3Z M114.7,90.7L115.0,90.9L115.1,91.6L114.4,92.3L113.9,92.3L113.6,92.0L113.6,91.7Z M66.0,15.5L67.1,16.6L67.8,16.9L71.3,19.8L72.0,20.1L75.4,23.1L80.6,28.0L86.2,34.1L90.2,39.1L93.6,43.8L96.0,47.6L97.1,49.7L97.6,50.2L98.6,52.2L99.4,53.3L102.9,60.3L103.0,60.8L104.2,63.1L104.4,64.1L104.7,64.5L104.7,64.8L106.6,69.3L106.6,69.6L106.9,70.2L107.2,71.4L108.5,74.9L108.9,76.9L109.5,78.5L109.8,80.3L110.5,82.3L110.6,83.3L110.9,84.4L111.2,86.3L111.5,87.1L112.5,93.4L112.6,95.5L112.8,96.3L112.9,98.4L113.1,100.2L113.2,104.3L113.0,104.7L112.2,105.3L109.8,106.0L109.5,106.3L107.0,107.1L106.3,107.4L105.6,107.5L104.9,107.9L103.9,108.1L101.4,108.9L100.7,109.0L100.0,109.3L98.8,109.5L97.8,109.9L96.8,110.0L95.5,110.4L94.6,110.5L93.9,110.8L90.2,111.4L88.3,111.9L83.8,112.6L81.7,112.8L81.1,113.0L79.8,113.0L79.3,113.2L76.5,113.5L69.1,113.8L63.9,113.9L61.5,113.7L58.6,113.7L57.9,113.5L55.5,113.5L53.9,113.3L52.8,113.3L52.1,113.1L50.3,113.0L47.5,112.5L46.1,112.5L44.7,112.1L43.3,112.0L42.0,111.6L40.3,111.4L39.6,111.2L35.5,110.4L34.2,110.0L33.3,109.9L32.3,109.5L31.5,109.4L30.6,109.1L27.6,108.3L27.0,108.1L26.1,107.9L21.4,106.3L15.5,104.0L15.0,103.4L15.0,101.7L15.5,96.2L16.0,93.5L16.0,92.7L16.2,90.9L16.5,90.2L16.6,88.9L17.2,85.7L17.5,85.1L18.7,79.8L19.1,79.1L19.8,76.2L20.3,75.2L21.2,72.1L21.6,71.2L22.3,69.1L23.3,66.6L24.2,64.8L24.8,62.9L25.3,62.2L25.7,61.2L30.1,52.8L30.5,52.2L30.5,52.1L30.8,51.8L32.9,48.1L38.1,40.6L40.1,38.2L41.7,36.1L43.5,34.2L44.3,33.1L48.3,29.0L51.2,26.2L55.5,22.3L61.5,17.6L64.5,15.5L65.4,15.3Z" fill="#000" fill-rule="evenodd"/>
</svg>