<svg xmlns="http://www.w3.org/2000/svg" viewBox="0 0 128 128" width="128" height="128">
  <path d="M93.3,20.0L92.3,19.9L90.5,19.0L89.5,18.9L87.7,18.2L83.9,17.6L82.7,17.6L82.0,17.4L80.7,17.4L80.3,17.2L79.2,17.1L75.7,17.1L75.0,17.3L72.2,17.4L71.3,17.8L70.0,17.9L68.6,18.2L68.3,18.4L67.3,18.5L66.1,18.9L65.4,19.0L64.2,19.5L63.2,19.4L62.8,19.1L61.5,18.9L61.3,18.7L59.7,18.2L57.9,18.0L56.5,17.6L53.9,17.3L50.3,17.2L49.4,17.4L47.6,17.4L45.5,17.7L43.2,17.8L42.4,18.1L40.9,18.2L39.9,18.6L39.1,18.6L38.4,19.0L37.4,19.1L35.1,20.2L34.2,20.3L32.6,21.0L27.8,23.6L26.8,24.5L25.7,25.0L23.8,26.6L23.1,27.1L18.1,32.1L17.7,32.8L16.5,34.1L15.9,35.1L15.3,35.7L14.5,37.2L14.0,38.2L12.9,39.9L11.9,42.2L11.4,44.0L10.7,45.7L10.0,48.6L9.6,51.1L9.6,51.9L9.5,52.4L9.5,53.7L9.2,55.2L9.3,61.2L9.5,62.2L9.5,63.3L9.9,64.8L10.1,65.3L10.3,66.6L10.7,68.2L11.9,71.9L14.0,76.3L15.8,79.1L18.2,82.3L21.0,85.2L23.1,87.1L24.0,87.7L24.7,88.5L25.9,89.4L29.0,91.1L30.0,91.9L30.7,92.2L31.5,92.7L32.5,93.1L32.8,93.3L33.6,93.5L36.1,94.7L41.5,96.1L42.9,96.2L43.2,96.4L46.1,96.9L52.8,97.0L54.2,96.8L56.0,96.7L58.5,96.3L59.3,96.5L59.6,98.3L59.6,100.5L59.8,101.0L59.6,106.9L59.8,110.8L60.1,111.0L61.2,111.2L67.7,111.1L68.2,110.7L68.0,109.3L68.1,98.7L68.0,97.4L67.8,97.1L67.8,96.5L68.0,96.3L68.9,96.2L71.5,96.7L73.0,96.8L75.6,97.2L80.4,97.2L82.4,97.0L84.0,96.6L85.9,96.5L87.2,96.1L88.1,96.1L88.9,95.7L89.8,95.6L90.2,95.3L92.2,94.8L92.7,94.5L93.6,94.3L95.6,93.2L95.8,93.2L96.9,92.6L97.8,92.3L99.0,91.5L99.4,91.5L100.3,90.9L101.1,90.6L104.0,88.5L105.3,87.2L107.6,85.4L107.9,84.8L109.8,82.7L111.8,80.1L112.2,79.3L113.6,77.3L114.7,75.2L115.1,74.7L116.0,72.7L116.4,71.3L116.7,71.0L116.9,70.2L117.2,69.6L117.3,68.8L117.7,68.2L117.7,67.1L118.0,66.5L118.1,65.4L118.5,64.5L118.7,61.8L119.1,59.0L119.0,55.2L118.9,54.4L118.9,51.9L118.4,49.1L118.2,48.9L117.7,46.3L117.3,45.3L117.2,44.5L116.8,43.4L116.4,43.0L116.0,41.6L115.4,40.8L115.0,39.7L114.3,38.7L114.0,38.1L112.1,35.2L111.5,34.1L109.6,31.9L108.2,30.1L106.6,28.5L104.9,27.2L103.2,25.6L98.3,22.3L96.9,21.8L96.1,21.3L95.1,20.9L94.5,20.5Z M76.9,73.9L77.1,74.0L77.1,74.4L76.5,75.2L74.4,78.1L72.7,79.9L70.1,82.4L69.1,83.0L68.6,83.0L68.3,82.7L68.3,81.7L68.2,80.9L68.2,76.8L68.6,76.5L69.0,76.5L69.4,76.2L69.8,76.1L70.4,75.8L71.1,75.7L71.9,75.2L72.4,75.2L72.7,74.9L74.8,74.4L75.7,74.0L76.5,74.0Z M50.0,73.2L51.2,73.3L52.8,73.8L53.2,74.0L55.1,74.4L57.1,75.4L58.5,75.9L59.0,76.4L59.4,77.5L59.4,82.1L59.0,82.7L58.6,82.7L56.7,81.4L56.1,81.1L53.8,78.8L53.2,78.3L52.6,77.6L52.3,77.0L51.4,75.9L50.7,74.7L49.9,74.0L49.8,73.3Z M82.0,56.9L82.4,58.2L82.3,61.1L82.0,61.8L81.9,62.8L81.5,63.6L80.7,64.3L79.2,65.0L78.0,65.2L77.2,65.7L76.0,65.9L72.7,67.0L72.3,67.0L69.7,67.9L69.1,68.0L68.7,67.9L68.5,67.7L68.3,67.3L68.3,61.8L68.4,61.1L68.7,60.7L69.8,60.5L70.9,59.9L71.5,59.8L72.0,59.4L72.7,59.4L73.3,59.0L74.2,58.9L74.9,58.5L77.1,57.9L77.6,57.6L77.9,57.6L78.8,57.2L79.6,57.1L81.1,56.6L81.8,56.7Z M45.5,56.5L45.7,56.2L46.4,56.2L49.3,56.9L51.2,57.8L53.9,58.6L54.2,58.8L56.1,59.4L56.5,59.7L57.3,59.9L57.8,60.2L58.3,60.3L58.9,60.6L59.1,60.8L59.3,61.8L59.3,67.5L59.0,67.8L58.5,67.8L56.1,67.1L54.8,66.5L53.9,66.3L52.3,65.6L48.9,64.4L46.2,63.1L45.7,62.3L45.2,59.4L45.3,57.0Z M78.8,43.0L79.8,44.5L80.3,46.4L80.8,47.5L81.0,48.9L80.6,49.3L79.8,49.4L79.2,49.8L78.9,49.8L77.7,50.3L76.9,50.7L75.4,50.9L74.8,51.2L73.6,51.5L72.0,52.2L69.8,52.7L69.4,52.9L69.0,52.8L68.6,52.4L68.5,46.1L68.9,45.7L70.0,45.5L71.5,44.8L73.3,44.2L74.4,43.5L76.1,43.2L77.2,42.7L78.2,42.6Z M48.6,42.8L49.3,42.2L50.0,42.2L50.3,42.4L50.9,42.4L51.9,43.0L52.4,43.1L53.0,43.4L54.1,43.7L54.6,44.0L55.1,44.1L55.6,44.4L56.9,44.7L57.8,45.3L59.2,45.8L59.5,46.1L59.6,46.5L59.4,52.4L59.2,52.8L59.0,52.9L58.5,52.9L56.7,52.2L56.1,52.1L55.3,51.8L54.5,51.6L53.5,51.1L52.4,50.9L47.9,49.3L46.8,48.6L46.5,48.4L46.5,48.0L46.8,47.5L46.9,46.3L47.5,44.8Z M69.1,31.5L69.5,31.5L70.4,32.1L71.9,33.4L73.0,34.6L74.1,36.2L74.1,36.5L73.7,36.9L72.3,37.6L70.1,38.3L69.4,38.4L68.9,38.2L68.6,38.0L68.6,33.0L68.8,31.9Z M59.2,31.1L59.5,31.5L59.6,34.6L59.5,37.9L59.3,38.3L58.6,38.5L56.1,37.7L55.8,37.4L55.2,37.3L54.3,36.7L53.5,36.0L53.5,35.7L54.0,35.3L54.7,34.4L56.6,32.6L57.8,31.7L58.2,31.6L59.0,31.1Z M77.3,25.7L78.1,25.8L80.0,25.7L80.8,25.8L84.1,25.9L85.9,26.3L86.4,26.3L87.3,26.6L88.2,26.8L89.4,27.2L90.8,27.9L91.5,28.1L93.1,29.0L93.6,29.0L94.7,29.7L95.5,30.3L97.3,31.2L99.5,33.2L99.9,33.5L102.1,35.7L104.8,38.9L105.2,39.7L106.5,41.6L107.3,43.3L108.5,45.7L109.2,47.8L109.5,48.4L109.6,49.0L109.9,49.8L110.8,54.5L110.6,55.3L110.7,59.0L110.6,60.1L110.4,60.9L110.4,62.3L110.2,62.9L110.0,64.4L109.4,66.1L109.2,66.9L108.8,67.5L108.3,69.1L107.5,71.0L107.1,71.7L106.8,72.0L105.8,74.1L103.0,77.9L100.7,80.3L98.1,82.5L94.0,85.2L91.7,86.5L89.9,86.9L89.2,87.4L88.7,87.6L88.4,87.6L87.7,87.9L86.5,88.1L86.3,88.3L85.8,88.5L83.3,88.7L82.1,89.1L81.1,89.2L78.3,89.2L77.7,89.0L77.1,89.0L76.5,88.9L76.2,88.4L77.0,87.7L77.8,86.6L79.5,84.9L80.8,83.4L81.1,82.9L81.7,82.3L83.1,80.7L84.6,78.1L85.8,76.4L86.5,75.0L86.7,74.8L87.3,73.4L87.6,72.9L87.7,72.4L88.9,70.0L89.4,68.3L89.6,67.2L90.2,65.0L90.2,64.2L90.5,62.8L90.5,61.5L90.8,59.8L90.7,58.6L90.9,58.2L90.9,53.9L90.6,50.6L89.5,45.9L89.0,44.3L87.7,41.9L87.6,41.2L87.3,41.0L87.2,40.4L86.9,40.1L86.8,39.5L86.2,38.4L86.0,38.2L85.4,36.9L85.0,36.5L84.5,35.7L83.8,34.8L82.9,33.2L76.9,26.4L76.9,26.0Z M47.6,25.1L51.6,25.2L51.9,25.5L51.9,25.9L46.9,31.0L46.1,32.2L44.9,33.5L42.9,36.3L41.9,38.3L41.4,39.1L41.0,40.1L40.3,41.1L40.0,42.4L39.0,44.4L38.6,46.2L38.2,47.3L38.0,49.0L37.5,50.8L37.4,52.9L37.2,53.5L37.2,57.3L37.0,58.2L37.0,59.5L37.3,60.7L37.3,62.4L37.7,64.2L37.7,65.2L37.8,65.4L38.1,66.8L38.6,68.4L38.8,69.4L39.2,70.3L39.6,70.9L40.1,72.7L40.9,74.1L41.0,74.5L41.6,75.8L42.7,77.6L43.4,78.4L44.3,80.0L45.3,81.1L46.1,82.3L47.0,83.1L47.2,83.6L48.1,84.4L48.9,85.4L52.0,88.4L52.0,88.6L51.8,88.9L51.2,89.0L50.0,89.1L45.3,89.0L44.5,88.8L44.0,88.8L43.0,88.6L42.1,88.1L41.5,88.1L40.7,87.7L39.6,87.5L39.0,87.2L38.0,87.0L37.6,86.8L35.9,86.2L35.1,85.7L34.6,85.6L33.7,85.2L33.2,84.7L32.4,84.4L31.8,83.9L29.9,82.7L28.9,81.9L27.1,80.7L26.0,79.6L25.0,78.2L23.6,76.8L22.3,74.7L20.7,72.7L19.6,70.5L19.1,69.0L18.7,68.2L18.6,67.4L18.0,66.2L17.8,64.9L17.5,64.5L17.0,59.8L16.9,55.8L17.0,54.1L17.2,53.6L17.4,51.5L17.7,50.8L17.8,49.2L18.3,48.0L18.4,47.4L19.3,44.9L20.0,43.6L20.1,43.2L20.6,42.4L20.6,42.1L20.9,41.6L21.1,41.1L21.4,40.7L22.0,39.4L23.7,37.2L24.7,36.2L24.9,35.9L26.5,34.2L29.2,31.7L29.9,31.2L30.4,31.1L31.0,30.6L31.9,30.1L32.8,29.5L33.6,29.2L35.5,28.1L36.1,27.9L36.5,27.7L37.4,27.4L37.8,27.2L38.7,27.0L39.8,26.6L40.2,26.6L40.9,26.3L41.8,26.2L42.6,25.8Z" fill="#000" fill-rule="evenodd"/>
</svg>