<svg xmlns="http://www.w3.org/2000/svg" viewBox="0 0 128 128" width="128" height="128">
  <path d="M64.5,9.1L64.2,9.2L64.1,9.5L64.1,10.5L63.9,11.4L63.7,13.0L61.6,19.2L61.3,21.7L61.3,23.0L61.8,25.8L62.4,27.8L63.0,28.8L63.5,29.9L63.5,30.9L63.3,31.1L62.7,31.2L61.9,30.8L61.4,30.4L60.1,29.0L59.5,28.0L59.4,27.2L58.5,25.2L58.0,23.2L57.7,22.0L57.6,21.3L57.4,21.0L57.2,21.0L56.8,21.5L57.1,22.9L57.2,24.7L57.5,25.4L57.6,27.0L57.8,27.4L57.8,28.2L58.0,29.4L58.1,30.7L58.9,33.9L59.8,35.7L60.6,36.7L61.5,37.5L62.7,38.1L63.3,38.6L63.3,40.8L63.0,41.0L62.2,41.0L60.8,40.3L59.4,39.0L58.6,38.0L57.5,36.1L56.9,34.8L55.6,30.8L55.4,30.0L55.2,29.5L55.1,28.6L54.6,27.5L54.2,27.6L54.1,29.0L54.4,31.5L54.5,33.2L54.7,33.9L54.8,35.6L55.1,37.0L55.1,37.6L55.6,39.7L55.9,40.4L56.0,41.1L56.6,43.0L57.5,45.0L58.6,46.4L59.1,46.9L59.5,47.0L60.2,47.8L60.3,48.0L60.9,48.5L61.5,48.7L62.7,49.0L63.2,49.5L63.3,51.9L63.1,52.7L62.9,52.9L62.0,52.9L61.0,52.5L59.2,51.3L57.6,49.6L57.4,49.3L56.6,48.7L56.5,47.8L55.6,46.2L55.5,45.8L54.9,44.8L54.4,43.3L54.1,42.8L53.5,41.0L52.8,38.0L52.4,37.5L51.8,37.6L51.7,37.8L51.7,38.4L52.1,40.0L52.2,41.8L52.5,43.2L52.6,44.4L52.9,45.5L53.0,46.6L53.7,49.3L53.8,50.2L54.1,51.0L54.4,52.6L54.9,54.2L56.5,57.5L57.4,58.7L58.3,59.7L59.8,60.7L60.9,61.2L62.2,61.7L62.9,62.1L63.0,62.7L63.0,64.1L62.6,64.4L61.8,64.4L60.9,64.1L59.4,63.3L58.0,62.3L56.3,60.7L55.3,59.1L55.1,58.6L54.8,58.3L53.6,55.9L53.4,55.3L53.2,54.9L53.1,54.4L52.8,53.9L52.5,52.8L51.7,51.3L51.4,50.1L51.1,49.3L50.8,49.1L50.6,49.1L50.3,49.3L50.4,50.4L50.6,51.7L50.8,52.3L51.3,55.5L51.4,55.7L51.7,57.5L52.1,58.6L52.1,59.2L52.5,60.9L52.7,61.4L52.9,62.6L53.4,63.6L53.6,64.3L54.3,66.0L56.1,69.1L57.8,71.1L60.1,72.9L60.7,73.2L62.3,73.7L62.6,74.0L62.8,74.3L62.8,76.4L62.3,76.6L61.7,76.6L60.3,76.1L59.4,75.5L57.8,73.9L57.7,73.5L56.9,72.5L55.9,70.8L55.5,70.5L54.8,70.5L53.4,73.5L52.2,74.9L51.7,75.2L51.2,75.7L50.5,76.1L48.7,76.4L46.7,76.3L45.0,75.5L43.4,74.1L42.0,72.2L41.7,72.0L41.4,72.0L41.2,72.2L41.8,75.3L42.2,76.2L42.2,76.5L42.6,77.2L42.6,77.7L43.2,78.9L43.2,79.1L43.6,79.6L43.9,80.4L44.9,81.8L45.8,82.7L46.9,83.5L48.3,84.0L49.6,84.1L50.2,83.9L51.5,83.2L52.2,82.6L52.7,82.1L54.0,79.9L54.9,77.2L55.5,76.9L55.8,77.4L56.5,79.5L57.7,81.7L58.2,82.2L58.6,82.9L59.9,84.1L61.4,84.9L62.4,85.6L62.7,85.9L62.7,87.4L62.4,87.7L61.8,87.7L60.2,86.9L58.2,84.9L57.2,83.0L56.9,82.7L56.9,82.5L56.6,82.2L56.3,82.2L55.9,82.5L55.1,84.1L53.6,86.0L53.0,86.5L51.2,87.2L49.3,87.2L47.6,86.5L45.8,85.1L45.3,85.1L45.2,85.3L45.4,86.4L45.7,87.0L46.6,89.7L47.0,90.5L48.2,92.1L49.9,93.5L51.4,94.0L52.9,94.0L54.3,93.2L55.2,92.0L55.6,91.1L56.0,89.5L56.0,88.6L56.3,88.3L56.6,88.3L56.9,88.6L57.2,89.8L58.0,91.5L59.0,93.2L59.7,94.0L60.7,94.9L61.8,95.3L62.4,95.8L62.6,96.4L62.5,97.5L62.2,97.8L61.5,97.8L60.1,96.8L59.1,95.7L58.1,94.4L58.1,94.2L57.8,93.8L57.4,93.8L56.9,94.1L55.7,95.4L54.0,96.4L53.2,96.5L51.9,96.5L50.4,96.1L49.6,95.6L49.0,95.7L49.0,96.1L49.3,97.4L50.1,99.6L51.0,100.9L51.9,101.8L52.7,102.2L54.0,102.5L55.2,102.2L55.9,101.9L56.7,101.1L57.3,100.1L57.5,99.6L57.8,99.2L58.1,99.2L58.5,99.6L59.2,101.3L59.5,101.6L59.9,102.4L60.6,103.3L61.1,103.8L61.8,104.1L62.3,104.5L62.4,104.8L62.3,118.4L62.4,119.0L63.1,119.2L64.4,119.2L65.0,118.8L65.2,104.9L65.6,104.4L66.9,103.5L67.7,102.5L68.7,100.6L69.3,98.7L69.4,98.5L69.8,98.5L70.1,98.8L70.4,99.7L71.4,101.2L72.0,101.6L73.3,102.2L74.3,102.3L75.0,102.2L76.2,101.5L77.2,100.5L78.7,98.1L78.9,97.5L79.3,96.8L80.0,94.8L79.9,94.3L79.3,94.3L77.8,95.6L76.6,96.4L75.7,96.6L74.5,96.6L73.5,96.3L72.6,95.7L72.0,94.9L71.8,94.7L71.1,93.3L70.8,93.0L70.4,93.0L70.0,93.3L69.2,94.6L67.1,96.7L66.2,97.4L65.8,97.6L65.2,97.4L65.0,97.0L65.1,95.9L65.6,95.3L67.1,94.5L68.7,92.9L69.6,91.7L71.1,88.5L71.5,88.4L71.7,88.6L72.2,90.3L72.8,91.6L73.7,92.6L74.4,93.1L75.5,93.5L77.0,93.6L77.8,93.5L78.8,92.9L80.0,92.0L81.5,90.0L82.5,88.0L83.3,85.4L83.3,84.8L82.8,84.7L82.3,84.9L81.6,85.5L80.7,85.9L79.2,86.5L77.6,86.5L76.8,86.5L75.2,85.9L74.4,85.3L73.4,83.6L72.9,81.7L72.8,81.5L72.3,81.3L71.8,81.7L71.7,82.2L71.5,82.4L71.3,83.0L69.5,85.4L68.8,86.2L67.2,87.4L66.2,87.8L65.6,87.8L65.3,87.7L65.3,85.9L65.7,85.4L67.9,84.1L68.8,83.3L70.2,81.5L71.1,79.9L71.4,78.8L71.7,78.5L72.3,77.0L72.4,76.2L72.6,75.9L72.9,75.9L73.2,76.2L74.0,79.0L75.2,81.4L75.9,82.3L77.2,83.4L78.4,83.9L79.4,83.9L80.7,83.6L81.6,83.1L83.1,81.8L83.9,80.7L83.9,80.4L85.0,78.7L85.0,78.4L85.4,77.5L85.8,76.4L85.9,75.6L86.3,74.7L86.5,73.7L86.8,73.1L86.8,72.7L87.1,71.9L87.1,71.4L86.9,71.3L86.4,71.3L85.6,72.5L84.2,74.0L82.8,75.1L82.3,75.3L81.9,75.7L80.5,76.1L78.4,76.1L77.2,75.7L76.4,75.2L75.1,73.8L75.0,73.5L74.6,73.1L74.3,72.3L73.7,70.1L73.2,69.5L73.0,69.5L72.7,69.7L72.3,70.1L72.0,70.8L71.4,71.5L71.3,72.0L70.7,72.8L68.5,74.9L66.8,76.1L65.9,76.4L65.6,76.4L65.2,76.0L65.3,74.0L65.9,73.6L66.5,73.4L67.3,73.0L67.9,72.5L68.8,72.0L69.5,71.2L71.1,69.4L71.4,68.6L72.3,67.5L73.3,65.4L73.9,63.8L74.5,62.6L76.1,57.6L76.9,53.8L77.5,51.6L77.8,49.6L77.5,49.3L77.2,49.3L76.9,49.6L76.9,49.9L76.6,50.5L76.4,51.5L76.1,51.9L76.1,52.4L75.8,52.9L75.7,53.4L74.7,55.4L74.6,55.8L73.9,57.0L73.7,57.5L73.5,57.7L73.4,58.1L72.9,58.6L72.9,58.8L71.9,60.4L69.4,62.7L68.3,63.6L66.7,64.3L65.6,64.4L65.3,64.0L65.3,62.5L65.4,62.1L66.0,61.5L67.6,60.7L68.7,60.0L69.5,59.2L71.0,57.5L71.7,56.5L71.8,56.0L72.9,53.9L73.6,51.9L74.0,51.2L74.6,49.3L75.2,46.4L75.4,44.3L75.7,42.7L75.7,41.8L75.9,40.7L76.0,39.2L76.1,38.6L76.1,37.1L76.0,37.0L75.6,36.9L75.2,37.3L74.9,38.8L74.9,39.2L74.5,40.4L74.5,40.8L73.6,43.8L73.2,45.0L72.9,45.4L72.8,45.8L72.3,46.7L70.5,49.0L69.2,50.5L68.3,51.4L66.8,52.3L66.2,52.5L65.6,52.5L65.2,52.0L65.3,49.1L67.8,47.6L68.6,47.0L69.5,46.0L69.5,45.8L70.4,44.7L70.6,44.1L71.1,43.5L71.8,41.2L72.1,40.6L72.4,39.5L72.4,39.2L72.6,39.0L73.3,35.3L73.3,34.4L73.5,33.2L73.5,31.9L73.8,30.6L73.9,29.4L74.2,28.4L74.2,27.6L74.0,27.4L73.5,27.4L73.2,27.8L73.2,28.2L72.9,29.5L71.7,33.3L70.8,35.1L69.4,37.4L69.1,37.7L68.7,38.3L67.0,40.1L66.2,40.6L65.5,40.6L65.3,40.3L65.4,38.3L67.0,37.2L67.9,36.1L69.1,34.0L69.5,32.8L69.8,31.5L70.3,30.0L70.5,28.4L70.8,27.7L71.0,26.7L71.3,25.7L71.9,21.2L71.8,20.8L71.5,20.8L71.3,21.0L71.1,21.9L70.8,22.8L70.6,23.8L70.3,24.3L70.1,25.0L69.8,25.5L69.7,26.1L69.1,27.0L68.9,27.6L68.5,28.4L68.1,28.8L67.9,29.2L66.1,30.8L65.3,30.8L65.1,30.6L65.2,29.6L65.4,29.0L66.4,27.2L66.9,25.7L67.2,23.5L67.2,21.6L66.7,18.4L65.8,15.9L65.3,13.3L65.1,12.7L64.9,10.7L64.9,9.4Z" fill="#000" fill-rule="evenodd"/>
</svg>