<svg xmlns="http://www.w3.org/2000/svg" viewBox="0 0 128 128" width="128" height="128">
  <path d="M94.5,82.1L94.5,82.7L95.3,84.7L95.9,85.3L97.4,87.6L99.4,89.6L101.4,91.3L102.4,91.7L102.8,92.1L104.9,92.9L106.0,93.1L107.3,93.6L110.0,93.9L111.9,93.9L112.3,93.6L112.3,93.0L111.7,91.6L110.9,90.1L109.6,88.1L107.2,85.6L105.3,84.1L103.3,83.0L100.1,82.0L95.9,81.7Z M113.0,36.8L112.5,36.4L111.6,36.2L109.6,36.2L108.9,36.4L108.0,36.4L105.6,36.9L103.5,37.6L102.4,38.2L101.5,38.5L99.0,40.1L97.9,41.1L96.9,42.1L95.9,43.8L95.3,45.0L95.2,45.8L95.3,46.8L95.8,47.2L96.9,47.3L100.0,47.3L103.6,46.6L106.5,45.3L108.1,44.1L110.2,42.0L110.7,41.1L111.6,39.9L112.5,38.5L113.0,37.4Z M15.2,34.8L15.8,36.5L16.3,37.0L16.9,38.3L18.0,39.9L20.7,42.9L23.2,44.6L26.0,46.1L29.3,47.1L30.7,47.3L32.5,47.3L33.7,47.1L34.2,46.7L34.1,45.8L32.7,43.2L30.8,40.4L28.7,38.2L26.9,36.8L24.5,35.6L22.5,34.9L21.1,34.5L20.2,34.5L18.6,34.3L16.2,34.3L15.7,34.4Z M47.4,19.7L47.1,20.1L47.6,22.6L48.3,24.3L49.4,26.5L50.5,28.1L53.1,30.7L54.2,31.7L56.9,33.3L59.2,34.4L60.8,35.0L61.8,35.1L62.3,35.3L62.6,36.1L62.0,37.1L61.6,37.7L61.5,38.0L61.1,38.5L60.9,39.1L60.6,39.3L59.6,41.2L59.2,41.7L59.0,42.2L57.2,45.0L56.7,45.9L56.4,46.2L56.0,46.1L55.8,45.4L55.9,43.4L55.6,40.8L54.4,37.7L53.2,35.7L52.1,34.0L50.8,32.6L48.6,30.8L44.3,28.6L43.6,28.3L42.9,28.3L42.5,28.5L42.3,29.1L42.2,33.1L42.5,35.6L43.5,39.0L44.3,41.2L46.5,44.4L48.1,46.0L50.4,47.8L51.5,48.2L51.8,48.6L51.8,48.8L51.5,48.9L40.0,48.8L39.5,48.6L39.4,48.0L40.0,46.7L40.6,44.8L41.1,40.7L41.1,39.2L40.9,38.5L40.9,36.9L40.8,35.7L40.5,35.1L40.3,33.9L39.9,32.8L39.6,32.4L39.4,31.7L37.7,29.0L36.1,27.3L35.4,27.3L34.8,27.9L34.1,29.0L33.1,31.8L32.9,33.3L32.6,34.2L32.6,38.8L33.0,41.2L34.3,44.4L35.0,45.3L35.3,46.0L36.5,47.4L36.6,47.8L36.4,48.0L31.3,48.0L29.8,48.1L28.8,48.4L27.3,48.6L26.8,48.8L26.2,48.9L24.0,49.9L22.1,51.0L19.2,53.6L19.0,54.1L18.0,55.0L17.7,55.6L17.3,56.2L17.1,56.7L16.8,57.1L16.8,57.8L17.7,58.2L20.3,58.7L24.8,58.7L27.9,58.1L31.4,56.9L33.7,55.5L34.6,54.8L36.1,52.9L36.7,52.5L37.2,51.4L37.9,50.7L38.4,50.7L38.9,51.3L39.2,51.9L39.5,52.1L41.8,56.6L42.8,58.1L44.7,61.8L44.5,62.2L44.1,62.2L43.1,61.6L40.9,60.7L40.6,60.4L36.9,59.6L32.8,59.5L32.2,59.6L31.5,59.6L29.4,60.2L25.9,61.7L23.2,63.9L22.8,64.5L22.9,65.1L24.5,66.3L27.8,67.9L28.3,68.0L29.1,68.4L30.7,69.0L33.1,69.5L36.1,69.6L36.8,69.4L38.5,69.3L39.7,68.8L40.2,68.7L43.3,67.0L43.9,66.9L44.0,67.4L43.2,68.6L42.5,70.1L41.8,71.1L41.5,71.9L40.5,73.3L40.2,74.0L39.8,74.5L39.2,75.9L38.8,76.2L38.2,77.4L37.6,77.8L37.1,77.8L35.9,76.6L35.3,75.7L32.7,73.3L31.6,72.6L28.4,71.0L25.6,70.3L22.4,70.1L20.1,70.2L17.7,70.8L17.4,71.1L17.6,71.9L21.0,75.8L23.8,77.9L25.4,78.9L26.9,79.4L30.2,80.1L33.1,80.2L35.2,80.0L35.5,80.1L35.8,80.4L35.8,80.7L34.7,82.5L34.0,83.2L33.8,83.6L33.3,84.1L33.3,84.3L32.9,84.8L32.7,84.7L32.7,84.6L33.4,83.2L33.6,81.7L33.3,81.3L32.7,81.2L30.3,81.0L26.3,81.4L25.7,81.8L25.2,81.9L22.6,82.9L21.4,83.5L19.5,84.9L17.5,86.9L15.4,89.9L15.4,90.9L15.9,91.3L17.1,91.5L21.1,91.5L22.2,91.2L23.2,91.1L25.2,90.5L25.7,90.2L26.2,90.2L28.7,88.8L31.1,86.6L31.4,85.9L32.1,85.2L32.7,85.0L32.3,86.4L31.4,88.4L31.1,90.3L31.2,94.1L32.0,97.3L33.3,99.9L33.6,100.4L34.2,101.0L34.7,101.0L35.1,100.7L36.1,99.7L37.5,97.5L38.8,94.8L39.5,92.2L39.6,90.9L40.0,89.4L39.9,85.4L39.0,82.0L38.4,80.7L38.4,80.2L38.8,80.0L39.9,79.8L51.8,79.9L52.0,80.3L50.4,80.8L48.6,81.7L46.9,82.9L44.9,84.8L43.2,87.3L41.8,90.0L41.6,91.0L41.0,95.0L41.0,97.4L41.5,97.7L42.2,97.7L43.1,97.5L46.2,96.2L47.0,95.6L47.7,95.4L48.9,94.5L51.5,92.2L52.2,91.0L52.6,90.6L53.9,88.1L54.9,84.9L55.2,82.7L55.6,82.5L55.9,82.8L56.4,83.6L56.6,84.7L57.0,85.5L57.1,86.2L57.9,88.5L57.9,89.6L58.1,91.1L58.1,96.4L57.8,99.8L57.8,101.1L57.4,102.2L57.2,104.9L56.7,107.0L56.0,109.0L54.6,111.9L53.2,113.7L51.8,115.2L50.8,116.0L48.2,117.6L47.0,118.1L46.4,118.2L46.3,118.4L46.3,118.8L59.9,119.0L82.0,118.9L82.2,118.8L82.2,118.5L82.0,118.3L78.9,116.7L77.0,115.2L75.6,113.8L74.4,111.9L74.2,111.3L73.0,108.9L72.9,108.3L72.6,107.4L71.7,103.3L71.7,102.4L71.5,101.2L71.2,97.8L71.0,97.0L70.8,93.6L70.8,90.4L71.0,89.7L71.1,88.0L71.4,87.2L71.5,85.6L72.1,84.0L72.3,83.6L72.6,83.6L72.9,84.1L73.0,85.4L73.5,86.8L73.7,88.3L74.1,89.4L74.4,89.9L75.0,91.4L76.7,93.7L77.7,94.9L78.2,95.1L78.7,95.8L80.8,97.2L82.2,97.9L84.3,98.7L85.4,99.0L86.0,99.0L86.4,98.7L86.6,98.0L86.7,94.9L85.8,91.4L84.4,88.1L83.9,87.5L83.0,86.0L81.6,84.5L79.3,82.6L79.0,82.5L78.6,82.1L77.7,81.8L76.9,81.2L74.9,80.6L74.7,80.4L74.7,80.0L79.6,80.0L80.9,79.9L87.8,80.1L88.0,80.5L88.0,81.3L87.5,83.4L87.5,88.5L87.8,89.8L88.0,90.3L88.6,92.6L90.0,95.3L91.1,96.8L93.9,99.7L94.2,99.8L94.8,99.7L95.4,98.8L96.0,97.1L96.5,93.7L96.2,89.2L95.7,87.0L94.7,84.7L93.6,83.0L91.4,80.7L91.7,80.4L92.5,80.4L94.8,80.9L98.0,80.9L100.5,80.6L101.6,80.1L102.3,80.0L104.8,79.1L107.3,77.7L110.2,75.5L110.6,74.9L110.6,74.5L110.0,73.9L108.3,73.0L105.1,72.0L102.0,71.9L100.2,72.1L97.3,72.7L96.0,73.2L93.4,74.5L92.6,75.1L89.9,77.9L89.2,77.9L88.5,77.1L88.5,76.8L88.1,76.3L88.0,75.9L87.6,75.3L86.3,72.6L85.4,71.3L83.9,68.3L83.6,67.9L83.6,67.2L84.6,67.4L87.6,68.9L89.0,69.3L90.3,69.5L90.5,69.7L92.5,69.8L95.1,69.8L97.5,69.3L98.3,69.0L98.7,69.0L101.5,67.7L103.3,66.5L104.5,65.3L104.6,64.7L104.3,64.3L103.5,63.6L102.9,63.3L102.3,62.8L101.4,62.3L99.8,61.6L99.6,61.5L97.2,60.7L94.3,60.2L91.3,60.2L88.6,60.8L88.5,60.9L86.4,61.7L85.1,62.7L83.9,63.4L83.5,63.3L83.5,62.9L84.3,61.6L84.6,60.8L85.1,60.3L86.1,58.2L86.5,57.6L87.1,56.4L87.6,55.8L87.9,55.0L89.7,52.2L90.2,51.8L90.7,51.8L91.2,52.1L92.9,53.8L94.8,55.1L98.0,56.7L100.9,57.7L104.0,58.2L107.1,58.1L108.9,57.6L109.9,57.2L110.3,57.2L111.0,56.7L111.0,56.2L109.7,54.4L107.6,52.5L106.8,52.0L105.7,51.1L103.1,49.8L102.5,49.4L100.2,48.6L98.1,48.1L95.4,48.0L93.6,48.5L92.7,48.4L92.6,48.1L93.5,47.1L93.7,46.6L95.1,44.3L95.3,43.8L95.3,43.2L95.7,42.2L96.0,40.5L96.3,40.0L96.3,39.2L96.6,38.0L96.6,34.7L96.3,32.5L95.3,29.8L94.4,28.3L93.9,28.3L93.5,28.5L90.6,31.4L89.2,33.6L87.8,36.9L87.3,40.1L87.3,42.1L87.8,46.4L88.6,48.3L88.6,48.7L88.5,48.9L87.0,49.1L77.5,49.0L77.0,48.9L76.9,48.7L80.1,46.6L82.3,44.6L83.4,42.9L85.0,40.0L85.9,37.1L86.3,34.2L86.3,32.3L86.1,31.0L85.9,30.3L85.4,30.0L84.2,30.2L82.2,31.0L80.4,32.0L78.3,33.6L75.9,36.3L74.9,37.8L73.5,40.4L72.8,43.2L72.8,46.4L72.5,46.8L72.2,46.8L68.3,40.2L66.1,36.0L66.1,35.8L66.7,35.3L70.9,34.5L72.2,34.0L73.1,33.5L73.4,33.5L76.3,31.7L78.2,30.2L80.2,28.0L80.4,27.3L80.7,27.0L81.6,25.3L81.9,24.9L82.7,22.1L82.9,21.8L83.0,20.3L82.6,19.9L80.6,20.1L76.6,21.3L73.9,22.5L71.9,23.7L70.1,25.3L68.5,26.9L67.8,27.8L66.2,30.3L65.4,32.2L65.3,32.4L64.7,32.4L64.3,31.8L63.5,29.7L62.0,27.6L61.8,27.2L59.9,25.2L59.8,24.9L57.9,23.2L57.2,22.8L56.7,22.3L55.2,21.5L51.7,20.1L48.9,19.6Z M60.3,80.1L61.3,79.9L67.1,80.0L67.4,80.0L67.8,80.4L67.6,81.1L65.9,84.0L65.5,84.8L65.3,85.1L64.7,86.1L64.3,86.6L63.6,86.6L62.9,85.6L62.6,84.9L60.2,80.6Z M79.3,70.5L79.9,70.5L80.9,71.8L82.3,74.5L82.3,75.0L82.0,75.2L81.5,75.4L77.5,75.4L76.9,75.2L76.8,74.7L78.5,71.6Z M48.2,69.8L49.0,69.8L49.2,70.0L51.7,74.5L51.7,74.9L51.5,75.1L45.9,75.1L45.4,74.8L45.4,74.4L45.8,73.8L45.9,73.4L46.3,73.1L47.3,71.1Z M76.5,53.7L77.1,53.5L82.3,53.6L82.7,53.7L83.0,54.1L83.0,54.6L82.6,55.0L80.9,58.3L79.8,59.6L79.3,59.6L79.0,59.5L76.2,54.3L76.2,54.0Z M58.1,53.5L58.9,53.4L69.9,53.5L70.7,53.8L71.1,54.2L72.5,56.9L73.0,57.5L74.2,59.7L75.6,62.0L76.9,64.7L76.9,65.0L76.3,66.3L76.0,66.6L75.2,68.3L74.9,68.6L73.7,70.8L72.7,72.4L72.6,72.7L71.5,74.4L70.9,75.1L70.1,75.4L58.0,75.2L57.2,75.0L56.5,74.0L56.4,73.5L55.9,72.9L55.8,72.5L55.6,72.2L54.8,70.6L53.7,68.8L53.6,68.4L53.2,68.0L52.6,66.6L51.8,65.4L51.5,64.6L51.5,64.2L53.4,60.7L54.2,59.6L55.1,57.9L55.9,56.8L57.2,54.3Z M45.9,53.5L50.6,53.4L51.3,53.5L51.7,53.9L51.7,54.2L51.1,55.5L50.6,56.1L50.4,56.6L49.7,57.7L48.9,58.8L48.4,58.8L48.2,58.6L47.5,57.5L47.3,56.9L47.0,56.5L45.7,54.1L45.7,53.6Z M64.0,43.2L64.7,43.1L66.0,44.8L67.6,48.0L67.7,48.7L67.4,48.9L62.0,49.0L61.2,48.9L60.8,48.7L61.1,47.9L62.3,46.0L63.1,44.4L63.6,43.9Z M64.8,9.2L64.3,9.3L63.0,11.0L61.5,14.5L61.3,15.6L60.9,17.1L60.7,20.1L60.8,21.8L61.1,23.4L61.9,25.8L62.6,26.9L63.1,28.3L63.3,28.4L63.8,29.3L64.5,30.0L65.1,30.1L66.1,29.2L68.0,25.4L68.9,21.7L68.9,21.0L69.1,20.4L69.1,18.6L68.7,15.7L67.6,12.1L66.3,9.9L65.5,9.2Z" fill="#000" fill-rule="evenodd"/>
</svg>