<svg xmlns="http://www.w3.org/2000/svg" viewBox="0 0 128 128" width="128" height="128">
  <path d="M61.4,13.2L59.1,14.8L57.1,16.7L56.9,17.0L57.0,17.7L58.3,19.4L59.1,21.6L59.1,22.2L59.3,22.7L59.3,24.4L59.1,25.1L57.9,26.4L57.1,26.8L56.3,26.8L55.0,26.1L54.0,25.0L53.2,23.5L52.4,21.2L52.0,20.6L51.2,20.7L50.2,21.8L49.8,22.0L48.0,23.8L47.1,25.1L47.6,26.3L48.9,27.2L50.2,28.7L50.4,29.0L51.4,30.1L51.8,30.8L52.2,31.5L53.4,34.9L53.4,38.2L53.1,39.5L52.3,42.1L51.0,44.8L50.1,46.3L49.8,46.8L49.1,47.6L48.3,48.9L46.7,50.7L46.6,50.9L44.6,52.8L44.4,52.9L42.1,54.9L41.1,55.6L40.1,55.6L39.8,55.3L39.3,54.4L39.2,53.8L38.5,51.6L38.0,50.6L37.8,48.4L37.3,46.7L37.3,46.0L37.1,45.5L37.2,41.4L37.6,40.2L37.8,38.8L37.2,38.5L35.5,38.6L34.3,39.0L32.6,39.0L31.8,39.4L31.0,39.4L30.0,39.8L29.6,40.2L29.4,41.0L29.4,43.3L29.0,43.8L27.1,44.0L26.2,44.3L25.7,44.7L25.1,45.3L24.6,46.0L24.3,46.9L24.1,48.0L24.3,49.4L24.5,50.0L25.0,50.6L26.1,51.6L26.5,51.8L27.6,52.0L29.2,51.9L30.6,51.3L31.0,51.4L31.3,51.6L32.6,54.8L33.1,55.7L33.2,56.4L35.1,60.1L36.2,61.8L36.8,63.1L37.8,64.5L38.1,65.2L39.4,67.0L40.0,67.5L40.4,68.3L45.7,73.9L46.5,74.4L49.7,77.2L51.2,78.2L52.6,79.3L52.9,79.7L54.7,81.1L55.6,82.1L55.6,82.4L54.5,82.9L50.7,82.9L48.9,82.7L47.5,82.7L46.1,82.5L44.5,81.9L43.4,81.8L41.5,81.3L40.0,80.6L38.3,80.1L37.5,79.7L37.1,79.6L35.8,78.8L34.2,78.0L33.4,77.4L32.4,76.9L31.0,75.9L30.1,75.6L28.2,73.9L27.0,72.4L26.6,72.3L25.9,72.7L25.3,73.5L23.3,76.6L22.5,77.6L22.0,78.5L21.9,79.1L22.0,79.3L22.5,79.8L24.1,80.7L24.5,81.2L24.5,81.7L23.8,82.6L23.6,83.3L23.7,85.1L24.1,86.2L24.6,87.0L25.1,87.4L26.2,88.1L28.2,88.1L29.2,87.5L29.9,86.8L30.9,85.1L31.3,84.7L31.6,84.6L32.2,84.7L33.1,85.1L35.1,85.6L37.1,86.3L37.9,86.5L39.2,86.9L40.0,87.4L40.3,87.8L40.4,89.0L39.2,90.5L38.4,91.1L37.8,91.9L37.6,92.2L37.6,92.7L38.1,93.2L39.6,94.3L40.9,95.0L41.2,95.2L42.1,95.6L42.4,95.6L42.8,95.3L43.2,94.3L44.0,93.2L44.3,92.7L46.1,90.7L47.3,89.6L48.6,88.9L49.7,88.6L52.4,88.7L53.0,88.9L54.2,89.5L55.1,90.1L56.0,91.1L57.7,94.6L57.9,95.6L57.9,98.1L56.9,102.1L56.0,104.3L54.0,107.4L51.0,111.0L51.0,111.8L51.5,112.1L52.4,112.4L56.8,113.3L58.5,113.3L60.1,113.5L67.5,113.6L68.0,113.5L68.8,113.0L68.7,112.2L68.1,110.7L67.8,109.1L67.8,107.8L67.6,107.0L67.7,102.5L67.9,101.8L68.0,99.7L68.4,98.4L69.0,97.2L69.1,96.8L69.7,96.1L70.4,94.7L71.7,93.0L73.7,91.2L75.4,90.1L76.4,89.6L80.6,88.2L81.0,88.2L81.6,88.6L84.2,91.0L85.2,91.5L85.9,91.6L86.8,91.5L87.4,91.4L89.1,90.4L91.0,88.6L91.3,86.5L91.1,85.5L90.7,84.6L90.5,83.8L90.5,82.9L91.1,81.8L91.5,81.4L92.1,80.4L92.6,80.0L92.9,79.5L93.7,78.5L94.9,77.6L96.7,76.7L97.2,76.6L97.8,76.3L99.4,75.7L100.2,75.2L101.7,74.7L104.6,73.0L105.5,72.1L105.9,71.9L106.7,71.1L108.6,68.1L109.0,67.3L109.6,65.1L110.2,64.1L110.2,63.6L109.6,63.0L109.2,62.8L108.3,62.6L107.8,62.4L106.8,62.2L106.2,62.0L105.0,61.9L104.4,62.3L104.2,65.4L103.1,67.0L101.5,68.6L100.6,69.1L100.0,69.1L99.5,68.7L99.0,66.4L99.0,64.7L99.2,63.8L99.4,62.2L99.9,60.4L100.7,58.5L101.9,56.8L102.7,56.0L102.9,55.7L104.3,54.4L104.9,54.0L105.4,53.4L105.2,52.7L104.3,51.3L103.5,49.6L102.0,47.7L101.4,47.6L100.9,47.9L100.5,48.6L100.0,49.1L99.8,49.5L99.1,50.3L98.6,51.0L97.7,53.2L96.5,56.5L96.2,58.5L95.5,60.6L95.4,62.2L94.9,63.4L94.9,64.1L94.4,66.1L94.1,66.5L93.5,69.0L92.4,70.9L91.7,71.5L91.3,71.5L90.9,71.1L90.8,69.7L90.6,69.3L90.6,67.8L90.4,67.1L90.4,65.8L90.1,64.8L89.4,64.2L88.5,64.2L87.7,64.6L86.2,65.0L85.5,65.5L85.2,66.3L85.5,67.1L85.6,67.9L85.9,68.7L86.0,69.6L86.4,70.9L86.6,71.2L87.1,73.0L87.1,74.8L86.6,76.5L85.6,78.1L84.3,79.4L82.7,80.6L81.1,81.4L80.3,81.6L78.8,81.6L78.3,81.5L77.7,81.2L76.5,80.9L76.2,80.6L75.8,80.5L75.0,79.7L75.0,79.1L75.2,78.9L78.5,77.5L80.1,76.3L81.0,75.4L81.7,74.4L82.2,73.2L82.3,72.3L81.9,71.9L80.3,71.3L79.9,71.3L79.1,71.1L78.5,71.1L77.8,71.7L76.6,73.9L75.8,74.6L74.5,75.1L74.0,75.1L73.0,74.7L72.5,74.1L72.1,73.5L72.1,71.9L72.4,71.1L73.0,70.3L73.3,69.5L74.1,68.2L75.0,67.2L75.0,67.1L75.7,66.4L76.0,65.9L76.3,65.8L77.1,65.0L77.3,64.6L77.3,64.2L77.1,63.8L76.2,63.6L75.2,62.2L74.4,61.5L73.8,61.4L73.1,61.4L72.6,61.6L72.3,61.9L71.5,63.4L70.3,64.8L70.3,65.0L69.3,66.5L69.0,67.4L68.5,68.3L67.7,69.5L67.7,69.8L67.4,70.1L67.4,70.3L66.7,71.9L66.3,73.2L65.8,74.0L65.2,75.8L64.3,77.9L63.6,78.4L63.0,78.4L61.8,78.0L59.0,76.2L58.1,75.8L56.3,74.4L54.4,73.5L50.4,70.2L48.5,68.3L47.5,67.5L47.0,66.6L45.9,65.4L44.9,63.4L44.7,62.1L45.0,61.4L45.7,60.6L46.6,60.1L48.0,59.7L49.1,59.8L49.5,60.6L49.5,61.4L49.8,62.5L49.9,63.4L50.7,64.5L51.5,65.2L52.2,65.6L53.0,65.8L54.4,65.8L55.3,65.5L56.4,64.9L57.0,64.3L57.4,63.7L57.9,62.3L57.8,60.1L58.0,59.7L58.6,59.5L60.5,59.3L61.7,58.9L64.1,58.4L65.8,57.6L67.1,57.3L68.3,56.6L69.1,56.4L69.9,55.8L70.5,55.6L71.7,54.8L72.3,54.7L72.8,54.4L73.2,53.9L73.2,53.1L72.0,51.2L71.3,49.7L71.0,49.4L70.3,47.8L70.0,47.5L69.3,47.6L68.5,48.6L66.2,50.4L65.6,51.1L64.1,52.0L63.3,52.2L62.1,52.9L60.0,53.6L59.2,53.7L58.5,54.0L56.4,54.0L55.0,53.4L54.6,52.9L54.4,52.5L54.3,50.8L54.5,49.8L54.9,48.9L55.0,48.2L55.5,47.3L56.7,44.2L58.2,41.7L58.6,41.4L61.4,41.4L62.4,40.9L63.6,39.7L64.1,38.6L64.2,37.0L63.9,35.9L63.2,34.8L61.6,33.7L61.5,33.4L61.5,33.0L61.9,32.3L62.0,31.3L62.8,29.0L63.1,28.6L63.6,26.8L63.8,25.9L64.1,25.1L64.7,21.7L64.6,20.3L64.1,17.8L63.9,17.3L63.2,15.0L62.4,13.5L62.0,13.2Z M86.4,83.5L86.5,83.7L86.5,83.9L86.0,84.4L85.7,85.0L85.2,85.0L84.8,84.8L84.7,84.5L84.7,84.1L85.0,83.6L85.7,83.4Z M26.8,81.7L26.9,81.5L28.3,81.5L28.8,81.7L29.7,82.4L30.0,82.8L30.1,83.1L29.7,83.4L29.0,83.3L27.3,82.5L26.9,82.1Z M56.1,58.8L56.1,59.1L55.9,59.3L55.1,59.6L51.8,59.7L51.4,59.5L51.0,59.2L51.0,59.0L51.9,58.2L53.6,57.7L54.4,57.7L54.9,57.9Z M30.7,45.9L31.2,46.3L31.8,48.1L31.8,49.2L31.4,49.7L30.9,49.5L30.5,48.1L30.3,46.2L30.4,46.0Z M60.3,34.1L60.5,34.4L60.5,34.8L59.2,37.3L58.7,39.3L58.3,39.8L58.0,40.2L57.8,40.2L57.2,39.6L56.8,38.5L56.8,36.5L57.3,35.7L58.3,34.8L59.5,34.1Z M56.3,10.8L55.4,10.9L55.2,11.1L54.0,11.2L52.6,11.6L51.9,11.6L51.3,11.8L50.5,11.9L48.9,12.5L46.0,13.3L45.4,13.6L44.5,13.8L42.2,14.9L41.7,15.0L38.7,16.6L38.0,17.1L36.7,17.6L34.8,19.0L34.1,19.2L32.1,20.7L30.9,21.4L28.0,23.7L22.5,29.0L20.1,32.1L19.5,32.8L18.9,33.6L18.6,34.3L17.7,35.3L17.6,35.6L17.3,35.9L16.8,36.8L16.7,37.3L15.5,39.0L15.0,40.4L14.2,41.6L14.1,42.2L13.5,43.3L13.1,44.6L12.7,45.3L12.3,46.2L12.2,47.1L11.9,47.6L11.7,48.3L11.5,48.7L11.1,50.8L10.9,51.1L10.7,52.1L10.3,53.4L10.1,55.5L9.8,56.1L9.6,57.3L9.5,59.9L9.4,60.3L9.2,63.3L9.2,66.1L9.4,68.7L9.8,70.5L9.9,72.8L10.6,75.2L10.7,76.8L11.1,78.2L11.5,79.0L11.5,79.7L11.9,81.1L12.3,81.8L12.8,83.3L13.1,83.8L13.5,85.1L14.2,86.0L14.5,87.1L15.2,88.4L15.6,89.5L16.8,91.3L17.0,91.8L17.8,92.7L18.2,93.5L21.0,97.5L21.4,97.8L21.7,98.4L22.2,98.8L24.1,101.0L25.9,102.5L27.9,104.5L29.0,105.2L31.8,107.5L32.6,107.9L33.2,108.5L34.9,109.3L35.2,109.6L36.3,110.2L36.8,110.6L37.2,110.6L37.5,111.0L37.9,111.0L38.9,111.5L39.2,111.8L39.9,112.0L40.3,112.3L41.3,112.8L42.8,113.3L43.9,113.9L44.1,113.9L45.7,114.6L47.6,115.1L49.1,115.6L50.8,115.9L51.6,116.3L57.4,117.4L62.4,117.8L68.1,117.8L69.3,117.7L70.6,117.4L74.5,117.1L75.2,116.8L77.5,116.4L79.1,115.9L80.3,115.8L82.0,115.2L83.6,114.5L85.6,114.0L88.4,112.5L91.0,111.5L92.1,110.6L92.8,110.3L94.3,109.3L95.5,108.7L95.8,108.4L97.0,107.8L98.3,106.6L98.7,106.4L99.8,105.6L100.6,104.7L101.6,104.0L102.0,103.4L103.2,102.5L105.3,100.3L105.9,99.3L107.2,98.0L108.0,97.1L108.2,96.6L108.9,95.9L110.2,93.8L110.5,93.5L110.8,92.9L111.6,91.9L112.4,90.2L114.1,87.1L115.0,85.2L115.1,84.6L115.5,83.7L115.6,83.0L116.5,81.4L116.5,80.7L117.0,79.3L117.6,76.5L118.1,75.2L118.2,74.0L118.6,72.6L118.6,71.0L118.8,69.9L119.0,66.6L119.1,66.2L119.0,64.1L119.0,62.6L119.0,61.5L118.7,60.9L118.8,59.1L118.6,58.3L118.6,57.0L118.2,55.4L118.1,54.1L117.8,53.6L117.3,50.8L116.1,47.2L116.0,46.7L115.7,46.2L115.2,44.9L115.1,44.2L113.8,41.8L113.3,40.2L112.5,39.2L112.1,38.2L112.1,38.0L111.1,36.8L110.5,35.5L108.5,32.8L108.3,32.2L106.6,30.2L106.5,30.0L105.7,29.2L105.2,28.3L104.6,27.9L104.0,27.3L103.5,26.6L101.8,24.8L101.2,24.5L100.3,23.6L97.0,21.0L94.8,19.6L93.5,18.6L92.4,18.1L91.3,17.2L90.5,17.0L90.1,16.7L89.4,16.5L88.9,16.1L87.8,15.7L86.2,14.8L84.4,14.2L83.7,13.8L82.5,13.4L81.9,13.1L79.9,12.7L79.0,12.3L78.3,12.2L77.4,11.9L75.2,11.4L73.5,11.3L73.0,11.0L72.0,11.0L71.2,10.8L69.0,10.9L68.6,10.7L65.7,10.4L62.9,10.4L62.0,10.5L58.8,10.5L57.5,10.8Z M58.9,11.6L62.3,11.5L63.7,11.7L68.7,11.7L70.1,12.0L72.1,12.1L73.7,12.3L76.0,13.0L78.4,13.4L79.7,13.8L80.2,13.8L82.8,14.7L83.3,15.0L84.6,15.4L87.9,17.0L88.7,17.2L90.1,18.2L91.0,18.6L91.6,19.1L92.8,19.7L93.8,20.5L94.9,21.0L97.4,23.1L97.8,23.1L101.8,26.4L102.8,27.8L103.7,28.6L105.3,30.4L105.8,31.2L106.7,32.0L107.4,33.3L108.8,34.9L111.3,39.0L112.0,40.6L112.9,42.1L113.3,43.0L113.6,44.1L114.9,46.4L115.2,48.1L115.8,49.5L116.7,52.4L116.8,53.3L117.2,54.8L117.4,56.5L117.7,57.2L117.8,59.1L118.1,59.7L118.1,68.7L117.7,69.8L117.7,70.5L117.5,71.1L117.6,73.1L117.1,74.6L117.1,75.2L116.9,76.3L116.0,78.9L115.8,79.9L115.7,80.1L115.3,81.4L114.8,82.5L114.5,83.8L113.8,85.1L113.7,85.8L113.2,86.3L113.1,86.6L112.1,88.4L111.8,89.3L111.2,90.5L111.1,90.9L109.9,92.2L109.6,92.9L109.2,93.4L108.7,94.5L108.2,95.0L107.9,95.6L106.6,96.8L106.4,97.4L105.5,98.2L104.4,99.7L103.0,101.2L101.5,102.4L100.3,103.7L99.7,104.1L99.2,104.3L97.8,105.4L97.0,106.3L96.2,106.9L95.0,107.4L94.6,107.8L92.9,109.0L92.1,109.3L91.7,109.7L88.0,111.5L87.7,111.5L82.7,113.7L81.0,114.1L80.1,114.5L77.4,115.2L76.2,115.4L75.1,115.7L73.4,115.9L72.1,116.3L68.1,116.6L65.6,116.5L62.5,116.7L60.2,116.3L56.8,116.2L53.8,115.5L53.2,115.5L51.8,115.1L51.0,115.1L49.6,114.6L48.7,114.5L46.3,113.6L45.5,113.5L44.0,112.7L42.8,112.3L42.1,112.2L40.8,111.4L39.6,111.0L38.9,110.6L36.4,109.3L35.6,108.6L35.5,108.6L32.6,106.8L32.2,106.5L31.4,106.1L29.5,104.4L27.5,102.9L26.8,102.1L25.8,101.4L22.7,98.1L22.5,97.8L21.9,97.2L21.5,96.4L20.8,95.7L20.0,94.3L18.4,92.3L18.0,91.5L17.2,90.3L16.9,89.6L16.1,88.4L15.5,87.0L15.3,86.8L14.3,84.7L14.3,84.1L13.8,83.3L13.2,81.4L12.7,80.2L12.0,77.6L11.2,75.7L11.2,75.0L10.9,73.6L10.7,71.6L10.4,70.7L10.1,66.3L10.2,60.3L10.4,59.1L10.4,58.1L10.7,56.7L10.8,55.2L11.5,53.2L11.5,52.3L11.7,52.0L11.9,50.6L12.4,49.5L12.6,48.4L12.9,47.9L13.9,44.8L14.3,44.2L14.8,42.8L15.2,42.2L15.7,41.0L16.2,40.4L16.8,39.0L17.2,38.5L17.3,38.0L18.8,35.4L21.4,32.0L23.0,30.5L23.7,29.5L24.8,28.1L26.0,27.1L26.2,26.7L27.2,25.9L28.9,24.7L30.1,23.5L31.0,22.7L32.5,21.9L33.5,21.0L34.0,20.9L34.7,20.2L38.5,17.8L39.3,17.6L40.3,17.0L40.8,16.9L41.2,16.6L42.8,16.0L44.4,15.2L45.0,15.0L45.4,14.7L46.3,14.3L47.7,14.1L48.5,13.7L49.5,13.6L49.7,13.4L52.3,12.8L52.8,12.5L55.5,12.2L56.4,11.9L58.4,11.7Z" fill="#000" fill-rule="evenodd"/>
</svg>