<svg xmlns="http://www.w3.org/2000/svg" viewBox="0 0 128 128" width="128" height="128">
  <path d="M118.8,64.2L118.5,63.5L117.9,63.0L115.2,61.6L114.6,61.4L112.9,60.7L110.4,59.9L109.4,59.4L108.2,59.0L107.8,59.0L105.8,58.3L102.5,57.6L100.8,57.5L100.3,57.3L98.5,57.2L97.4,57.0L90.0,56.6L88.3,56.8L85.6,57.0L83.5,57.5L82.2,57.5L81.0,57.8L80.1,57.9L78.1,58.4L77.3,58.7L74.9,59.1L73.7,59.5L72.0,59.7L69.8,60.4L66.9,60.9L66.0,61.2L64.3,61.6L64.0,61.7L63.6,61.7L62.2,62.1L60.3,62.4L60.0,62.6L55.5,63.1L54.7,63.4L51.9,63.4L50.0,63.6L46.8,63.8L42.9,63.7L41.2,63.5L40.2,63.5L38.9,63.2L36.9,63.1L35.6,62.7L32.5,62.2L31.4,61.8L27.8,61.1L27.6,60.9L25.5,60.6L24.7,60.3L23.7,60.3L21.7,59.8L16.1,59.6L14.8,59.9L14.1,59.9L12.9,60.2L11.5,60.6L11.2,60.8L10.1,61.2L9.6,61.7L9.5,62.1L9.4,65.8L9.7,69.7L10.1,72.9L10.6,75.5L11.5,79.4L12.5,81.8L13.3,84.6L13.9,85.4L14.0,86.5L14.5,87.5L15.0,88.1L15.2,88.9L16.2,90.5L16.5,91.3L16.9,91.8L17.6,93.2L20.8,97.7L22.2,99.1L23.2,100.4L23.6,100.6L24.2,100.5L25.2,99.3L25.5,98.5L25.6,97.9L25.5,96.3L24.8,95.0L24.5,94.2L24.5,93.7L25.0,92.8L25.5,92.3L26.6,92.3L27.3,92.5L28.6,93.8L29.5,96.3L30.1,97.4L32.0,99.6L32.5,100.7L32.6,101.2L33.4,103.2L33.4,103.9L32.9,104.9L31.3,105.4L30.6,105.5L30.2,105.7L29.1,105.8L28.7,105.9L28.7,106.3L32.9,109.5L34.8,110.9L36.1,111.4L36.7,111.1L37.1,110.0L37.1,108.1L36.9,107.5L37.0,105.6L37.7,104.4L38.5,103.7L38.6,103.2L38.6,102.4L38.2,101.3L37.3,100.1L36.3,97.9L35.9,97.4L35.4,95.6L34.9,94.6L32.7,91.1L32.3,90.1L32.1,88.8L32.7,87.2L33.3,86.6L33.6,86.4L34.2,86.4L35.3,86.8L35.9,87.3L36.8,88.7L36.8,91.4L37.4,93.0L38.7,94.3L39.6,95.6L40.5,96.1L41.2,96.0L42.1,95.5L43.1,94.1L43.6,92.8L43.6,92.1L43.3,91.1L41.9,89.8L40.9,88.6L40.7,88.1L40.5,87.4L40.5,85.1L40.3,84.5L39.5,83.5L38.0,82.7L36.9,81.3L36.6,80.3L36.6,79.2L36.4,77.9L35.4,74.2L35.5,73.7L36.1,72.6L36.6,72.1L36.9,72.0L38.0,72.0L38.8,72.4L39.3,72.8L39.6,73.3L39.9,74.5L40.0,75.3L39.9,76.1L39.9,77.1L40.0,77.7L40.7,79.2L41.7,80.6L42.5,81.0L42.9,81.1L44.2,81.0L45.0,80.7L45.8,80.3L47.0,77.4L46.9,75.3L46.6,74.4L46.4,72.5L45.9,71.2L45.9,69.9L46.3,68.3L46.4,68.0L47.3,67.2L48.2,66.8L49.1,66.8L49.9,67.7L50.0,68.7L50.9,70.9L51.1,72.5L51.6,73.8L51.7,76.6L51.0,79.6L50.4,80.6L50.1,81.7L49.6,82.4L49.6,82.6L48.8,84.4L48.7,85.4L48.9,86.3L49.5,87.2L50.7,88.6L51.0,88.7L51.6,88.7L52.1,88.6L53.7,87.4L55.1,85.6L55.9,83.7L56.1,82.6L56.5,82.0L57.5,78.1L58.0,77.2L58.5,76.7L59.8,76.1L60.5,76.1L61.2,76.5L61.9,77.4L62.1,78.4L62.1,79.0L61.6,80.8L60.7,82.6L59.4,86.6L58.9,87.1L57.9,89.0L56.3,91.0L55.9,91.8L53.2,94.4L51.1,95.4L50.5,95.8L49.9,96.4L48.7,98.3L48.5,99.2L48.5,100.0L49.0,101.1L49.4,101.5L49.9,101.6L51.4,101.1L53.5,99.8L54.0,99.8L55.9,98.8L57.0,98.8L58.1,99.5L58.4,99.9L58.4,100.2L58.0,100.9L57.9,101.2L57.2,102.0L55.7,103.1L55.5,103.1L54.4,103.6L53.2,104.6L51.7,105.3L51.3,105.8L51.2,106.6L51.5,107.2L51.7,109.5L52.4,110.2L52.9,110.4L53.9,110.6L55.1,111.3L55.4,111.6L55.9,112.8L55.9,115.1L56.1,116.2L56.3,116.5L56.5,117.7L56.7,118.2L57.4,118.8L61.2,119.1L64.3,119.1L65.2,118.8L65.5,118.5L65.6,118.0L65.0,115.7L64.7,115.1L64.7,114.5L65.0,113.7L65.6,113.0L66.4,112.4L67.3,111.5L67.7,110.8L67.5,108.4L67.1,107.2L66.8,105.3L66.5,104.3L65.9,103.6L65.3,103.3L64.5,102.4L63.7,101.6L62.4,99.9L61.4,98.9L60.7,97.9L60.6,97.6L59.8,96.7L59.4,95.8L59.4,94.6L59.9,93.5L60.3,93.0L60.7,92.8L62.1,92.9L62.8,93.5L64.5,95.7L65.5,96.7L67.6,97.5L68.6,97.5L69.7,97.2L70.4,96.5L70.5,95.1L70.2,94.2L69.6,93.0L69.2,91.4L69.0,90.9L68.9,90.3L68.6,89.5L68.4,88.3L67.0,85.2L67.0,82.6L66.8,81.8L66.9,79.4L66.8,78.8L65.9,77.0L65.2,76.0L63.5,74.2L63.3,73.3L63.5,72.8L64.0,72.4L64.5,72.1L65.6,71.9L67.2,72.0L67.7,71.9L68.5,71.4L68.8,71.0L69.2,70.2L70.2,67.2L71.6,64.9L72.8,63.8L74.4,62.6L75.0,62.0L76.4,61.5L77.6,61.5L77.9,61.6L79.2,62.7L79.3,64.1L79.0,65.0L78.3,66.3L77.9,66.7L77.0,67.3L76.1,67.5L75.1,68.4L74.2,68.6L73.6,69.4L73.3,70.5L73.2,72.8L72.9,73.3L72.6,74.7L72.6,75.6L72.9,76.0L73.4,76.1L74.7,76.1L76.1,75.1L78.1,73.3L78.8,72.9L79.1,72.5L80.9,71.6L81.6,71.6L82.1,71.8L82.4,72.1L83.0,73.2L83.0,74.2L82.7,75.1L82.2,75.8L81.6,77.1L80.3,78.7L79.4,79.2L78.6,79.3L77.9,79.8L76.9,80.3L76.6,80.5L76.0,81.7L76.2,82.8L77.0,83.5L78.3,84.0L79.3,84.7L80.1,85.0L80.5,85.0L81.1,84.6L81.8,83.6L83.4,82.1L84.0,82.0L84.8,81.5L85.3,81.1L85.8,80.0L86.2,79.7L86.4,78.9L87.2,77.7L88.2,76.8L88.8,76.5L89.5,76.5L90.5,76.9L91.5,78.1L91.9,79.0L91.9,80.7L91.4,82.1L90.5,83.3L90.3,83.7L88.7,85.3L88.0,86.3L87.1,87.1L85.0,88.5L84.4,89.1L84.0,90.0L83.0,91.2L80.7,92.6L79.7,93.5L78.3,94.4L77.4,95.9L77.3,96.6L76.9,97.6L76.5,99.2L76.3,99.6L76.1,100.5L76.1,101.5L76.2,102.2L77.0,103.8L77.3,104.9L77.3,106.5L77.1,106.7L77.0,107.6L76.5,108.2L76.1,108.7L75.7,109.6L75.7,111.2L76.1,113.0L76.1,115.7L76.3,117.0L76.8,117.4L77.2,117.4L79.0,117.0L81.2,116.3L82.5,115.5L83.9,112.2L84.4,110.1L84.5,108.6L84.9,107.4L85.4,106.7L85.8,106.5L87.8,106.2L88.9,105.2L89.4,104.3L89.5,102.6L89.0,101.1L87.6,99.8L87.0,98.9L85.7,97.5L85.3,96.8L85.2,95.5L85.5,94.7L86.4,94.0L87.9,93.9L88.4,94.1L89.1,94.5L91.0,96.3L92.8,97.4L93.3,97.4L93.7,97.1L94.9,95.2L95.0,94.5L94.3,92.8L93.8,90.0L93.6,86.5L94.0,84.8L94.5,83.6L95.3,82.4L95.6,81.6L95.6,79.0L95.8,77.9L96.3,76.9L97.4,75.7L97.9,75.6L99.3,75.6L99.7,75.7L100.5,76.9L100.7,78.0L100.6,79.9L99.7,82.6L99.8,84.2L98.8,86.2L98.5,87.3L98.5,88.6L98.9,89.4L99.2,89.6L100.0,89.5L100.7,88.6L101.1,87.9L101.9,87.1L103.3,86.3L104.4,86.3L104.9,86.5L105.7,87.4L106.0,88.2L105.5,89.5L104.5,90.5L103.7,91.0L101.8,92.6L100.9,93.7L100.2,94.7L100.2,95.6L100.5,95.7L101.4,95.6L102.2,95.7L102.5,96.1L102.5,96.6L102.2,97.2L100.7,98.8L100.0,99.3L99.7,99.8L99.3,101.8L98.8,102.7L97.9,103.6L96.5,105.8L96.0,107.4L96.0,107.8L96.2,108.1L96.7,108.1L97.0,108.0L101.4,104.3L101.7,103.5L102.1,100.7L102.7,99.7L103.5,98.7L103.8,98.1L103.9,97.3L104.3,96.7L104.8,96.5L105.3,96.5L105.7,96.8L105.6,98.8L105.8,99.1L106.1,99.1L106.7,98.4L107.2,97.8L108.0,96.9L110.6,93.0L110.7,92.7L111.7,91.2L111.8,90.7L113.2,88.5L114.0,86.3L114.9,84.5L115.1,83.8L115.4,83.2L116.2,80.9L116.8,78.9L116.9,77.8L117.4,76.3L118.0,73.2L118.6,68.9Z M10.2,55.1L10.5,55.3L11.1,55.3L17.1,53.0L22.9,51.3L24.5,51.1L25.5,50.8L28.7,50.5L33.3,50.5L39.8,51.5L42.7,52.3L44.2,52.4L46.5,53.2L47.7,53.3L49.1,53.6L49.7,53.6L51.1,54.0L53.3,54.3L55.3,54.8L56.8,54.9L58.1,55.2L60.1,55.4L60.6,55.6L61.7,55.6L62.0,55.8L64.2,56.0L65.8,56.3L70.3,56.6L75.6,56.6L78.1,56.4L79.1,56.1L79.7,56.1L81.2,55.6L83.1,55.4L85.3,54.6L86.2,54.4L86.4,54.2L88.1,54.0L89.6,53.5L90.0,53.5L92.3,52.8L93.0,52.8L95.4,52.2L96.0,52.2L98.4,51.7L98.8,51.5L100.3,51.5L103.0,51.1L107.2,51.3L107.9,51.2L113.5,51.9L116.0,52.4L116.8,52.8L117.3,52.7L117.4,51.7L116.9,50.5L116.5,48.3L115.4,44.8L113.1,39.4L112.3,38.5L111.3,38.5L110.9,38.7L108.9,39.4L107.9,39.4L107.6,39.6L106.1,39.9L105.0,40.3L104.3,40.3L103.2,40.7L101.3,41.0L100.4,41.0L99.6,41.2L97.4,41.4L94.0,41.4L90.4,41.1L87.6,41.0L85.8,40.5L84.0,40.3L83.9,40.1L82.1,39.8L80.3,39.1L78.0,38.5L77.6,38.3L76.6,38.0L75.8,37.5L74.6,37.1L74.1,36.8L72.1,36.1L69.3,34.9L68.4,34.7L67.2,34.0L66.2,33.8L63.4,32.7L61.4,32.1L59.7,31.8L59.0,31.5L57.0,31.2L55.6,31.1L55.2,31.0L54.1,30.9L53.0,30.6L48.6,30.4L45.2,30.4L42.2,30.7L41.2,30.7L39.1,31.1L37.9,31.2L36.5,31.6L35.1,31.8L28.8,33.6L22.1,36.3L20.7,37.1L20.0,37.4L19.6,37.7L17.6,38.7L15.3,40.2L14.8,40.8L14.0,42.2L13.0,45.0L12.6,45.8L10.8,51.9L10.4,54.2L10.2,54.5Z M23.1,27.8L23.1,28.2L23.6,28.3L24.5,28.0L27.3,27.3L28.7,27.0L29.3,26.8L30.2,26.6L31.3,26.6L33.0,26.3L35.8,26.1L37.3,25.8L44.2,25.9L47.1,26.4L48.2,26.4L50.0,26.8L52.4,27.5L54.6,27.9L56.4,28.6L59.5,29.3L61.7,30.1L63.3,30.3L67.6,31.6L70.1,32.2L71.0,32.3L71.6,32.5L73.9,32.8L75.1,33.1L77.0,33.2L78.5,33.5L80.5,33.5L81.5,33.7L85.0,33.7L86.1,33.5L88.7,33.6L91.3,33.3L94.3,33.1L95.7,32.7L97.2,32.6L97.9,32.4L99.2,32.3L100.0,32.0L101.6,31.9L102.7,31.5L105.3,31.1L106.3,30.9L107.1,30.3L107.1,30.1L106.5,29.2L105.2,27.6L104.6,27.1L104.4,26.8L102.8,25.0L100.2,22.7L98.8,21.6L98.1,20.8L96.0,19.3L94.7,18.5L93.1,17.3L90.9,16.2L90.1,15.6L87.8,14.4L87.2,14.3L86.1,13.6L84.3,12.9L84.0,12.9L80.6,11.5L79.9,11.5L77.9,10.8L73.1,9.8L70.9,9.7L69.9,9.4L66.3,9.2L59.4,9.3L56.7,9.7L53.0,10.4L52.5,10.4L47.7,11.7L42.8,13.5L40.8,14.4L40.4,14.8L39.7,15.0L36.5,16.9L36.1,17.0L35.0,17.9L34.1,18.3L31.0,20.4L26.9,23.8Z" fill="#000" fill-rule="evenodd"/>
</svg>