<svg xmlns="http://www.w3.org/2000/svg" viewBox="0 0 128 128" width="128" height="128">
  <path d="M56.4,9.5L55.5,9.8L54.8,9.8L53.0,10.3L51.9,10.3L50.3,10.8L49.0,10.9L48.4,11.2L47.6,11.4L46.4,11.8L46.1,12.0L42.9,13.1L42.4,13.4L41.6,13.5L40.3,14.3L38.9,14.8L38.1,15.3L36.4,16.1L35.5,16.8L34.7,17.2L33.5,18.0L32.0,18.8L30.6,20.1L29.9,20.5L29.1,21.3L28.5,21.7L27.4,22.8L27.0,23.0L26.4,23.7L24.2,25.9L23.1,27.4L21.2,29.6L20.9,30.3L19.6,31.8L19.4,32.3L18.6,33.2L17.6,35.0L17.4,35.2L16.0,37.8L15.8,38.5L15.2,39.6L14.9,40.5L14.2,41.9L13.8,43.4L13.3,44.2L13.2,44.8L12.1,47.9L11.9,49.4L11.2,51.4L11.0,52.9L10.7,54.0L10.5,56.2L10.1,58.5L10.1,59.8L9.9,60.4L9.8,66.8L9.9,69.0L10.1,69.5L10.2,70.8L10.4,71.6L10.3,72.8L10.7,73.8L10.7,74.3L10.9,75.1L10.9,76.1L11.4,77.7L11.4,78.1L11.9,79.3L11.9,80.1L12.6,82.1L12.8,82.5L13.3,84.4L13.9,85.5L14.1,86.4L14.6,87.5L15.5,89.1L15.6,89.5L16.3,90.7L16.8,92.0L17.8,93.7L18.4,94.4L19.2,95.8L22.5,100.2L25.0,103.0L28.6,106.6L30.7,108.2L31.2,108.4L32.1,109.2L34.8,111.0L36.0,111.6L36.5,112.0L38.1,112.9L38.8,113.1L39.3,113.5L43.2,115.3L44.8,115.8L45.0,116.0L45.4,116.1L46.2,116.5L48.0,117.1L49.7,117.5L50.7,117.6L51.7,118.0L54.4,118.5L55.6,118.6L56.8,118.9L60.5,119.1L69.1,119.1L69.8,118.9L71.6,118.8L75.2,118.1L80.9,116.5L81.4,116.1L84.9,114.9L86.1,114.3L88.7,113.2L90.4,112.1L91.2,111.8L91.9,111.2L94.4,109.7L95.9,108.4L96.8,107.9L97.8,106.9L100.4,104.8L103.8,101.6L105.5,99.7L105.6,99.3L106.7,98.1L109.1,94.8L110.1,92.9L110.4,92.6L110.8,91.8L112.7,88.4L113.2,87.4L113.2,86.9L114.1,85.6L114.1,85.3L114.5,84.5L114.7,83.4L115.0,83.0L115.6,81.1L115.8,80.8L116.3,79.0L116.5,77.5L117.1,75.6L117.6,73.2L117.7,72.2L118.0,70.9L118.1,68.3L118.3,67.5L118.3,62.6L118.2,61.3L117.9,59.7L118.0,58.5L117.8,57.8L117.8,55.9L117.7,55.5L117.6,54.4L117.3,53.8L117.3,53.2L116.8,51.3L116.7,50.6L116.4,49.6L116.4,49.1L116.1,48.5L115.9,47.7L115.6,47.1L115.2,45.9L115.1,45.3L114.7,44.7L114.5,43.6L113.2,40.6L112.8,40.0L112.3,38.9L112.0,38.6L111.1,36.7L110.2,35.6L110.0,34.9L109.0,33.8L107.2,31.1L105.6,29.1L100.6,23.7L99.7,23.0L99.1,22.4L97.9,21.4L97.1,20.9L96.1,20.0L95.0,19.4L92.9,17.8L92.3,17.6L91.2,16.7L90.1,16.3L88.4,15.3L87.9,15.2L85.8,14.0L85.4,13.9L84.6,13.5L84.3,13.5L82.7,12.7L81.4,12.5L80.8,12.2L78.9,11.7L76.9,11.0L75.7,10.8L74.0,10.3L72.8,10.3L71.2,9.8L69.3,9.8L68.2,9.7L68.0,9.5L63.9,9.4L62.4,9.1L60.5,9.2L60.1,9.4Z M56.3,15.5L57.7,15.5L60.9,15.2L65.6,15.0L66.2,15.2L67.6,15.2L70.2,15.7L72.6,15.9L73.1,16.1L75.1,16.5L76.3,17.0L77.3,17.2L80.8,18.4L81.4,18.4L83.1,19.2L84.3,19.7L86.1,20.6L86.7,20.8L87.8,21.5L89.1,22.1L91.7,23.9L96.5,27.8L99.6,31.1L103.5,35.7L104.2,36.9L105.1,38.1L105.7,39.5L106.5,40.5L108.3,43.9L108.4,44.7L109.6,47.7L110.0,48.9L110.2,49.2L110.8,51.1L110.8,51.7L111.7,54.0L111.8,54.9L112.0,55.6L112.1,57.0L112.4,58.2L112.6,61.3L112.6,65.3L112.4,66.0L112.4,67.5L112.2,68.5L112.1,70.1L111.7,71.9L111.5,73.7L110.8,76.2L110.5,77.7L109.6,79.7L109.6,80.3L108.9,81.9L108.8,82.6L107.9,84.6L107.5,85.0L107.4,85.6L107.1,85.9L106.0,88.2L105.5,88.9L104.8,90.1L101.2,95.3L96.7,100.2L96.2,100.4L95.4,101.2L94.9,101.4L94.4,102.2L93.7,102.5L93.2,103.0L91.7,103.9L90.8,104.7L89.0,105.7L88.5,106.2L87.7,106.4L87.3,106.7L85.7,107.5L84.7,108.1L84.0,108.3L83.4,108.7L82.9,108.8L82.3,109.2L81.9,109.2L80.5,110.0L78.7,110.5L77.9,110.6L76.4,111.2L75.1,111.5L73.6,112.0L70.4,112.6L69.2,112.7L68.7,112.9L68.2,113.0L66.5,112.8L66.2,112.4L66.0,105.8L66.0,100.8L65.8,98.9L65.9,97.9L66.4,97.5L75.2,97.3L90.9,97.4L91.3,97.3L91.5,96.6L91.3,96.1L91.3,90.0L91.2,87.1L91.2,85.5L91.5,85.3L91.8,85.2L94.3,85.7L95.7,85.7L96.8,85.5L97.8,85.5L99.8,84.9L100.9,84.3L102.3,83.4L104.8,81.0L105.7,79.7L106.9,77.6L106.9,77.3L107.6,75.2L107.9,74.0L107.9,70.2L107.5,68.4L107.1,67.8L107.1,67.1L106.5,65.4L106.2,64.8L105.4,63.8L105.1,63.1L104.2,61.4L101.0,58.0L100.3,57.6L99.3,56.5L97.5,55.1L97.0,54.5L96.1,53.9L95.1,52.9L94.3,52.4L94.0,51.9L92.2,49.9L90.4,47.6L89.2,45.4L88.9,45.1L88.5,45.0L88.1,45.4L86.7,48.0L83.9,51.2L80.8,54.0L80.1,54.5L79.3,55.3L75.0,58.8L71.9,62.2L70.5,64.2L69.6,66.1L68.7,69.2L68.6,70.7L68.7,74.0L69.1,75.6L69.5,76.9L69.9,77.4L70.0,78.1L70.6,79.3L71.2,80.1L72.5,81.6L73.6,82.3L74.7,83.2L78.2,84.8L79.1,85.0L79.9,85.0L80.9,85.4L84.1,85.3L84.6,85.1L85.4,85.2L85.7,85.8L85.7,91.2L85.3,91.6L74.8,91.5L72.9,91.6L66.7,91.7L66.4,91.6L65.8,91.1L65.7,90.4L65.8,88.0L65.6,85.8L65.7,83.0L65.5,78.0L65.6,74.6L65.4,71.6L65.4,57.2L65.9,56.7L66.2,56.6L67.4,56.7L67.7,56.8L70.4,56.9L73.2,56.4L75.5,55.2L77.7,53.7L79.2,51.8L80.1,50.3L80.8,48.9L80.9,48.3L81.4,47.2L81.8,45.4L81.8,42.5L81.6,40.7L81.2,39.9L81.0,38.8L80.4,37.2L80.2,36.5L78.9,34.3L77.7,32.6L75.6,30.1L73.7,28.7L72.8,27.8L70.8,26.7L66.2,22.8L64.5,20.8L63.2,19.1L62.2,17.0L61.8,16.4L61.3,16.5L61.0,16.8L59.8,19.2L57.8,22.0L56.5,23.2L56.0,23.8L52.8,27.2L49.5,30.3L47.1,32.6L45.6,34.4L44.6,35.9L44.2,37.2L43.8,37.8L43.4,38.9L42.9,40.7L42.7,42.3L42.8,45.3L43.4,47.5L44.0,49.3L45.0,51.1L46.2,52.5L46.5,53.0L47.9,54.4L49.1,55.2L50.7,56.0L51.6,56.3L55.0,56.9L58.8,56.8L59.0,56.9L59.3,57.3L59.5,62.0L59.4,67.7L59.6,76.3L59.4,91.2L59.0,91.6L58.3,91.7L57.7,91.7L57.3,91.6L41.7,91.7L41.2,91.6L40.8,91.3L40.6,85.1L40.9,84.9L41.3,84.9L42.4,85.2L44.2,85.4L46.7,85.2L49.1,84.5L49.6,84.1L50.1,84.0L52.4,82.5L54.4,80.1L55.6,78.1L56.4,76.5L56.5,75.4L57.1,73.4L57.2,70.6L56.9,70.0L56.9,69.3L56.7,68.3L55.8,65.6L54.9,64.0L53.9,62.5L51.5,60.1L47.5,56.4L45.8,55.1L44.7,54.0L42.7,52.4L40.1,49.8L39.9,49.2L38.8,48.1L37.3,45.9L36.7,45.8L35.2,48.4L33.7,50.6L32.7,51.9L29.5,55.1L28.8,55.5L27.4,56.9L25.9,58.1L23.3,60.9L22.7,62.0L22.3,62.4L21.2,64.6L20.6,65.4L20.0,67.1L19.3,70.9L19.5,74.6L19.7,75.5L20.5,78.0L22.0,80.5L23.3,81.9L25.4,83.6L26.7,84.3L28.5,85.0L30.2,85.0L30.7,85.2L32.0,85.2L34.2,84.6L34.8,84.6L35.3,85.0L35.5,85.4L35.4,86.4L35.6,91.2L35.6,97.4L35.9,97.9L52.6,97.7L55.2,97.5L59.1,97.6L59.6,97.9L59.7,98.3L59.7,111.3L59.5,111.6L59.5,112.1L59.1,112.6L58.3,112.7L56.7,112.3L55.0,112.2L52.0,111.4L50.4,111.2L49.9,110.8L49.3,110.8L48.7,110.4L48.3,110.4L47.4,110.0L46.4,109.9L45.5,109.4L44.5,109.2L42.6,108.1L41.8,107.9L39.9,106.7L38.6,106.2L37.9,105.5L35.7,104.3L35.2,103.8L34.8,103.6L34.1,102.9L33.7,102.7L32.4,101.8L30.1,99.4L29.1,98.2L26.7,95.7L26.2,94.9L23.9,92.0L23.3,90.8L22.1,89.5L21.7,88.5L21.5,88.3L20.1,85.9L19.9,85.0L18.8,82.8L18.6,82.1L18.3,81.4L18.1,80.6L17.5,79.1L17.2,78.1L17.0,77.6L17.0,77.2L16.4,75.0L16.4,74.4L16.2,73.9L16.2,73.2L15.6,70.4L15.3,65.0L15.4,60.1L15.6,59.7L15.8,55.9L16.0,54.6L16.3,54.0L16.5,52.3L16.8,51.9L16.8,51.1L17.2,50.2L17.8,47.9L18.3,46.9L18.4,46.4L18.5,46.2L18.6,45.8L19.2,44.2L19.6,43.6L19.6,43.4L20.0,42.7L20.1,42.3L20.6,41.2L20.9,40.9L20.9,40.7L21.8,39.2L22.4,37.9L22.7,37.6L22.8,37.2L24.6,34.7L27.2,31.5L27.7,30.7L32.5,25.8L35.1,23.8L38.3,21.7L42.0,19.7L42.5,19.7L42.9,19.4L43.5,19.2L44.5,18.7L45.4,18.5L46.2,18.0L47.2,17.8L47.5,17.6L49.7,17.0L50.3,16.7L51.5,16.5L52.3,16.2L52.8,16.2L54.0,15.8L55.0,15.8Z" fill="#000" fill-rule="evenodd"/>
</svg>