<svg xmlns="http://www.w3.org/2000/svg" viewBox="0 0 128 128" width="128" height="128">
  <path d="M68.8,9.2L63.8,9.2L59.9,9.3L58.6,9.6L57.6,9.6L55.4,10.1L54.7,10.1L54.1,10.3L51.7,10.7L50.8,11.1L49.1,11.5L48.4,11.9L47.3,12.1L46.5,12.5L45.5,12.8L44.2,13.4L43.1,13.7L41.9,14.4L41.7,14.4L41.1,14.8L39.9,15.2L39.3,15.7L38.0,16.4L35.5,18.0L34.8,18.3L29.3,22.5L24.4,27.2L24.4,27.4L22.5,29.5L22.2,30.0L22.1,30.6L21.7,30.7L20.2,32.5L19.6,33.6L18.6,34.9L18.1,36.0L17.5,36.8L16.5,38.8L16.1,39.3L15.5,40.5L15.5,40.7L15.2,41.1L14.1,43.8L13.9,44.1L11.8,50.0L11.6,51.2L11.2,52.3L10.8,54.3L9.9,60.3L9.6,65.6L9.9,69.9L10.3,72.5L10.3,74.2L10.8,75.8L11.1,77.6L11.9,80.2L12.0,80.9L12.8,83.4L13.5,84.9L13.7,85.9L14.2,86.6L15.3,89.4L17.1,92.4L17.2,93.0L20.0,97.1L21.8,99.5L24.1,102.2L27.3,105.4L27.6,105.6L30.3,107.9L33.5,110.3L34.5,110.8L36.1,111.9L38.2,112.9L38.5,113.2L41.2,114.5L41.6,114.6L42.2,115.0L42.8,115.1L44.6,115.9L46.2,116.4L46.5,116.4L47.6,116.9L52.5,118.1L57.2,118.8L62.0,119.2L68.9,118.9L71.3,118.6L73.0,118.2L73.6,118.2L77.8,117.0L79.0,116.9L79.4,116.6L81.7,116.0L83.3,115.2L84.2,115.0L84.4,114.8L86.3,114.1L86.9,113.7L87.3,113.6L87.7,113.3L90.0,112.2L91.8,111.0L92.5,110.7L92.8,110.4L94.0,109.7L94.7,109.1L96.2,108.2L101.1,104.1L104.7,100.4L108.0,96.3L111.0,91.7L111.3,90.9L111.9,90.1L113.2,87.5L113.9,85.9L114.1,85.6L114.3,84.9L115.5,82.0L115.6,81.5L116.1,80.1L116.1,79.7L116.5,78.9L116.5,78.3L117.0,77.1L117.0,76.7L117.4,75.3L117.4,74.7L117.7,73.8L117.8,72.4L118.3,70.2L118.6,65.9L118.6,60.5L118.5,59.3L118.3,58.8L118.3,57.4L118.0,56.0L117.8,54.3L117.5,53.1L117.3,51.5L116.7,49.6L116.2,47.4L115.7,46.0L115.4,45.7L115.4,45.1L115.0,44.2L114.8,43.4L113.8,41.4L113.7,41.0L112.0,37.5L110.8,35.3L110.1,34.4L109.9,33.8L109.4,33.3L108.8,32.2L108.1,31.5L106.2,28.7L102.0,24.3L98.0,20.7L93.9,17.8L93.6,17.7L91.7,16.5L91.1,16.2L90.8,15.9L89.5,15.3L88.3,14.6L87.7,14.4L87.3,14.1L86.0,13.7L84.3,12.8L83.1,12.5L83.0,12.4L82.2,12.1L81.7,11.8L80.8,11.7L80.4,11.5L79.1,11.2L78.4,10.9L74.0,9.9Z M66.2,103.5L66.4,103.2L66.7,103.0L68.5,103.2L69.7,103.4L69.9,103.6L72.0,103.8L73.3,104.3L75.7,104.6L76.5,104.9L77.6,105.0L78.8,105.4L79.6,105.5L80.8,105.9L80.9,106.2L80.6,106.5L79.9,106.8L79.4,107.1L79.1,107.1L77.6,107.8L76.7,107.9L76.1,108.3L75.4,108.4L75.0,108.5L73.9,108.6L73.2,108.9L72.0,109.1L70.0,109.6L66.8,109.7L66.3,109.2L66.2,108.5Z M62.4,109.1L62.0,109.7L61.4,109.9L59.4,109.9L56.4,109.6L55.2,109.3L54.4,109.3L54.2,109.1L53.7,109.1L51.9,108.7L49.3,107.9L48.7,107.4L48.0,107.4L46.8,106.9L46.6,106.6L46.6,106.4L47.2,106.0L49.0,105.6L49.2,105.5L50.0,105.4L51.0,105.1L52.6,104.8L56.6,103.8L61.7,102.9L62.2,103.3L62.2,103.6Z M38.5,102.0L38.7,101.7L43.2,101.7L45.5,101.9L45.7,102.3L43.6,102.9L43.1,102.9L42.3,103.2L40.5,103.4L39.9,103.3L39.0,102.8L38.5,102.2Z M89.2,101.3L89.2,101.5L87.9,102.7L86.8,102.9L85.4,102.5L85.0,102.5L84.3,102.2L83.2,102.0L83.0,101.9L82.2,101.9L82.1,101.5L82.6,101.4L85.7,101.3L86.5,101.1L89.0,101.1Z M31.2,95.6L31.6,95.3L34.9,95.7L38.4,96.5L40.3,96.7L41.5,97.1L42.3,97.2L42.5,97.4L42.3,97.6L41.1,97.4L40.7,97.6L39.0,97.5L38.1,97.7L33.1,97.5L32.8,97.4L31.9,96.8L31.2,96.1Z M96.8,94.9L96.8,95.2L95.7,96.4L95.1,96.8L94.3,97.1L90.8,97.3L87.3,97.2L85.8,97.0L87.4,96.5L88.7,96.4L89.4,96.1L90.2,96.1L92.3,95.5L92.8,95.5L93.5,95.2L95.8,94.9L96.2,94.7L96.7,94.7Z M88.1,87.4L88.2,87.7L88.0,87.6Z M24.9,87.2L25.2,87.0L25.7,87.0L26.3,87.3L27.3,87.5L27.6,87.8L28.3,87.9L29.4,88.3L30.6,88.6L31.2,89.0L31.7,89.1L32.6,89.6L33.3,89.7L33.9,90.1L34.4,90.2L35.2,90.6L36.8,91.1L37.3,91.4L39.0,92.0L39.0,92.3L37.6,92.4L36.2,92.0L34.3,91.9L32.4,91.5L30.5,91.3L29.8,91.1L28.5,91.1L27.8,90.9L27.5,90.6L26.8,90.5L26.1,89.7L25.3,88.6L24.9,87.5Z M103.5,85.9L103.3,86.5L101.8,89.2L101.1,89.8L100.8,90.0L98.1,90.6L95.5,91.1L94.1,91.5L93.0,91.5L91.7,92.0L90.0,92.1L88.2,92.6L87.2,92.5L87.3,92.3L88.4,92.0L90.5,90.9L91.7,90.6L92.3,90.2L93.4,89.8L94.5,89.2L95.0,89.2L95.4,88.8L96.2,88.6L97.9,87.7L98.8,87.4L100.1,86.8L103.0,85.7L103.3,85.7Z M20.8,77.9L21.1,77.7L22.1,77.9L24.4,79.4L27.8,81.1L28.7,81.8L31.1,82.9L32.2,83.7L32.8,83.8L33.9,84.6L37.5,86.5L37.6,86.7L37.6,87.0L36.2,86.8L35.5,86.5L34.9,86.1L34.1,86.1L32.2,85.4L31.6,85.1L30.3,84.8L29.6,84.4L29.0,84.3L28.3,84.1L28.0,83.8L25.6,83.2L25.1,82.9L23.2,82.3L23.0,82.0L22.3,81.8L21.7,81.1L21.1,79.7Z M107.3,76.0L107.5,76.8L107.0,78.1L107.0,78.4L106.5,79.7L106.0,80.2L104.2,81.1L102.7,81.6L102.2,82.0L101.8,82.0L100.4,82.7L99.5,82.9L99.0,83.3L98.6,83.4L96.9,84.2L95.8,84.7L95.3,84.7L94.5,85.2L93.3,85.6L93.1,85.9L91.1,86.5L90.8,86.8L88.8,87.4L88.5,87.2L89.2,86.5L89.7,86.4L92.0,84.8L92.6,84.6L98.0,81.0L99.4,80.3L99.7,80.0L99.9,80.0L100.9,79.2L101.3,79.2L101.9,78.7L102.2,78.6L103.3,77.9L105.7,76.5L106.9,76.0Z M51.2,20.1L52.2,20.2L52.4,20.6L52.6,21.4L52.6,22.3L53.3,26.1L53.4,27.7L53.7,29.2L53.8,30.5L54.0,31.4L54.4,35.5L55.3,40.4L55.3,41.6L56.2,47.0L56.3,49.0L56.0,49.3L55.6,48.1L55.4,47.1L55.1,46.5L55.0,45.6L54.7,44.9L54.4,43.1L54.0,42.0L54.0,41.6L53.5,40.4L53.5,39.7L52.8,37.7L52.7,36.9L52.4,36.1L52.1,34.4L51.5,32.7L51.4,31.9L50.9,30.6L50.4,28.1L49.9,27.7L49.0,27.7L48.5,27.8L48.3,28.0L47.5,28.3L47.2,28.7L47.0,29.2L47.5,31.5L48.1,33.3L48.3,34.7L48.5,35.0L48.7,36.6L49.4,38.6L49.4,39.3L49.9,40.7L50.0,41.0L50.0,41.5L50.5,43.3L50.6,44.0L51.0,45.1L51.4,47.3L51.9,48.9L52.0,49.9L52.6,52.0L52.7,52.9L53.4,55.6L53.4,55.9L53.1,56.0L52.2,54.1L51.3,51.7L50.8,50.7L50.7,50.0L50.1,48.9L49.8,47.7L48.9,45.7L48.5,44.7L48.3,44.3L48.1,43.6L47.4,42.1L47.2,41.4L45.5,37.5L45.2,37.4L44.5,37.4L44.0,37.7L43.3,37.8L42.6,38.3L42.3,38.9L42.3,39.2L43.2,42.0L44.1,44.0L45.3,47.6L46.3,49.6L46.3,50.1L46.8,51.1L47.2,52.5L47.6,53.2L48.7,56.1L49.1,57.8L49.6,58.7L50.3,60.8L50.5,61.2L50.8,62.3L51.1,62.8L51.4,63.8L51.3,64.2L51.1,64.2L50.5,63.5L48.8,60.2L48.5,59.9L48.2,59.2L47.6,58.5L47.3,57.6L46.7,56.8L46.2,55.6L45.8,55.2L45.6,54.6L44.4,52.8L43.5,50.7L42.6,49.7L42.0,48.2L41.4,47.4L40.8,46.8L39.9,46.8L38.5,47.7L38.1,48.3L38.1,48.9L39.4,51.6L40.1,52.8L40.3,53.4L41.1,54.5L43.4,59.1L44.1,60.1L44.4,60.7L44.6,61.0L46.9,65.1L47.4,66.3L47.8,66.8L48.1,67.4L48.8,68.5L50.3,71.5L51.2,72.9L51.8,74.3L52.3,75.0L53.1,76.7L53.5,77.3L55.2,80.8L56.4,82.9L57.8,85.7L57.9,86.1L59.0,88.3L59.0,89.0L58.9,89.0L58.1,88.1L57.7,87.5L56.5,86.1L56.2,85.6L54.7,83.8L53.5,82.1L52.6,81.1L49.1,76.5L46.6,73.4L43.5,69.2L39.8,64.5L39.1,64.3L38.5,64.7L37.3,65.9L37.2,66.2L37.2,66.8L39.6,70.1L40.7,71.7L43.0,74.7L43.1,75.0L43.1,75.4L42.5,75.2L39.0,71.8L38.5,71.5L35.2,68.1L32.5,65.6L32.2,65.5L31.2,65.6L30.3,66.3L29.9,66.9L29.9,67.5L30.3,68.0L38.9,76.7L39.9,77.9L39.7,78.2L39.4,78.2L38.6,77.7L37.0,76.4L36.2,76.0L35.8,75.6L34.4,74.7L32.6,73.2L30.8,72.1L30.0,71.4L28.2,70.2L25.2,67.9L24.3,67.4L22.6,66.2L22.0,66.1L21.5,66.4L20.8,67.4L20.5,67.9L20.6,68.6L21.8,69.7L23.3,70.7L23.9,71.3L24.6,71.7L25.3,72.4L27.6,73.8L28.1,74.4L30.2,75.8L32.7,77.9L36.5,80.6L36.9,81.1L36.7,81.4L36.2,81.3L35.6,80.8L34.0,80.1L32.6,79.2L32.2,79.1L31.2,78.6L30.9,78.3L30.3,78.1L29.4,77.4L28.1,76.9L27.6,76.5L26.5,76.1L26.0,75.6L23.1,74.2L22.9,74.0L21.1,73.0L20.8,72.7L19.9,72.4L19.4,71.8L19.1,71.3L18.6,68.7L18.6,66.7L18.5,65.8L18.5,62.3L18.6,60.0L19.1,57.3L19.1,56.6L19.8,53.6L20.2,52.4L20.3,51.6L20.7,50.6L20.9,49.6L21.2,49.2L21.2,49.0L21.7,48.0L22.1,46.7L22.4,46.2L22.6,45.5L22.7,45.4L23.1,44.6L23.4,44.2L23.5,43.6L24.5,42.0L24.6,41.6L24.9,41.3L25.3,40.3L26.5,38.8L26.7,38.3L29.8,34.2L32.1,31.7L35.2,28.8L38.8,26.0L40.2,25.3L41.3,24.5L42.6,23.9L43.5,23.3L43.9,23.2L45.8,22.1L47.4,21.5L47.9,21.4L49.8,20.6Z M73.4,19.1L75.6,19.6L76.0,19.6L81.1,21.4L81.7,21.8L82.4,21.9L84.1,22.8L84.4,23.0L85.9,23.7L88.6,25.3L92.5,28.1L95.2,30.6L98.6,34.1L100.8,36.9L101.3,37.8L101.7,38.2L102.7,39.7L103.1,40.7L104.5,42.8L104.8,43.8L105.9,46.0L105.9,46.3L106.3,46.9L108.2,53.1L108.4,54.4L108.6,55.1L108.8,56.7L109.0,57.5L109.4,62.1L109.4,67.3L109.1,69.4L108.7,70.1L108.1,70.7L107.3,71.1L106.7,71.7L105.0,72.5L104.2,73.2L103.3,73.5L102.3,74.2L101.7,74.5L100.4,75.4L99.5,75.7L97.7,77.0L96.1,77.7L94.7,78.8L93.9,79.1L93.6,79.4L91.9,80.2L91.7,80.6L91.1,80.8L90.8,80.7L90.8,80.5L91.1,80.1L92.1,79.5L93.1,78.5L94.2,77.7L95.1,76.8L97.4,75.0L98.7,73.8L100.2,72.7L101.4,71.5L103.6,69.7L104.7,68.6L105.3,68.3L106.3,67.2L106.4,66.7L105.9,65.6L104.9,64.5L104.0,64.4L103.6,64.6L98.4,69.1L96.6,70.5L95.3,71.7L94.1,72.4L92.2,74.2L90.1,75.7L89.6,76.3L89.3,76.5L88.0,77.7L86.3,78.8L85.0,80.0L84.5,80.0L84.5,79.8L85.8,78.1L88.6,75.1L89.2,74.2L91.3,72.0L95.2,67.4L95.8,66.9L96.1,66.3L96.9,65.4L96.8,64.5L95.8,63.3L95.4,63.1L94.5,63.2L91.8,65.9L90.4,67.8L88.1,70.1L87.0,71.5L84.9,73.6L83.6,75.3L82.5,76.3L82.2,76.3L82.2,76.1L82.7,75.3L83.6,73.9L83.9,73.3L85.4,71.1L86.4,69.2L86.7,68.9L87.9,66.8L88.2,66.5L89.2,64.7L89.0,64.1L88.0,63.2L87.0,62.7L86.3,62.9L85.1,64.6L84.9,65.1L84.2,66.0L83.7,67.0L83.3,67.4L82.2,69.4L81.0,70.9L80.4,72.1L77.2,76.8L77.0,77.4L76.3,78.3L76.0,78.8L75.4,79.5L73.8,82.1L72.6,83.8L71.7,85.3L70.8,86.4L70.6,87.0L69.7,88.2L69.3,88.5L69.1,88.3L69.2,87.8L70.4,85.1L70.5,84.5L72.1,81.0L72.2,80.5L72.7,79.3L72.9,78.7L73.7,77.1L74.2,75.6L74.5,75.2L74.7,74.5L74.9,74.2L75.6,72.3L76.0,71.6L76.4,70.4L77.6,67.9L78.7,65.1L79.6,63.4L79.9,62.3L81.8,58.3L82.0,57.5L82.4,56.9L82.8,55.7L83.6,54.3L83.6,53.8L84.2,52.9L86.7,47.3L86.6,46.5L86.1,46.0L84.9,45.3L83.9,45.2L83.3,45.8L82.2,48.2L81.7,49.3L81.3,49.9L80.4,52.4L80.0,52.9L79.2,55.0L78.9,55.5L78.8,56.0L77.9,57.6L77.5,58.8L76.8,59.9L76.3,61.5L75.8,62.4L75.6,62.2L75.7,61.4L76.1,60.4L76.7,58.1L77.0,57.7L77.2,56.9L77.6,55.6L77.6,55.2L78.0,54.7L78.1,54.0L78.4,53.4L78.6,52.6L79.6,49.7L80.2,47.7L80.5,47.0L80.6,46.5L80.8,46.2L81.0,45.3L81.7,43.4L82.0,42.3L82.5,41.3L83.1,38.8L83.7,37.4L83.7,36.9L83.4,36.5L81.3,35.6L80.7,35.8L80.2,36.4L79.7,38.0L79.3,38.8L79.1,39.6L78.8,40.1L78.5,41.5L78.2,41.8L78.1,42.5L77.9,42.7L77.4,44.5L76.7,45.9L76.7,46.5L76.2,47.3L76.1,47.9L75.4,49.5L75.1,51.0L74.6,51.9L74.5,52.4L74.0,53.8L74.0,54.2L73.6,54.7L73.3,56.0L72.9,56.7L72.6,56.6L72.9,54.6L73.5,51.9L73.6,50.9L73.9,49.8L74.7,44.9L75.0,43.8L75.0,43.2L75.8,40.0L75.9,38.4L76.3,37.4L76.7,34.2L77.2,32.1L77.2,31.5L77.5,30.9L77.9,27.8L77.7,27.3L77.4,26.9L76.0,26.5L74.9,26.5L74.3,27.1L73.7,29.5L73.4,32.1L72.9,34.1L72.5,36.7L72.2,37.5L72.2,38.1L71.7,40.3L71.5,41.9L71.1,43.3L71.1,43.8L70.9,44.1L70.4,47.5L69.9,49.2L69.7,50.6L69.4,51.2L69.0,51.2L69.2,47.7L69.4,47.0L69.4,44.7L69.5,44.2L69.8,41.4L69.8,39.9L70.0,38.7L70.3,34.6L70.5,33.1L70.6,31.3L70.9,28.7L70.9,27.6L71.3,24.8L71.7,20.3L71.9,19.7L72.4,19.2Z M59.4,18.6L59.9,18.8L60.1,19.0L60.3,19.6L60.8,44.2L60.8,48.4L60.6,48.8L60.4,48.4L60.2,47.7L60.2,46.8L59.9,45.6L59.6,43.3L59.1,41.0L58.5,36.1L58.2,34.7L58.2,33.7L57.6,30.9L57.5,28.6L57.2,27.6L56.9,24.4L56.3,20.6L56.3,19.6L56.6,19.1L57.5,18.7Z M66.3,18.3L67.5,18.5L67.9,19.0L68.0,20.0L67.7,22.7L67.5,23.6L67.4,26.1L67.1,28.3L67.1,29.6L66.7,31.4L66.7,32.9L66.5,34.2L66.3,37.9L66.1,38.5L66.1,39.6L65.9,40.3L65.5,45.8L65.3,47.1L64.9,47.1L64.7,44.7L64.4,29.8L64.2,27.6L64.3,23.3L64.1,19.6L64.2,19.1L64.6,18.5L65.0,18.3Z" fill="#000" fill-rule="evenodd"/>
</svg>