<svg xmlns="http://www.w3.org/2000/svg" viewBox="0 0 128 128" width="128" height="128">
  <path d="M64.0,53.8L62.9,54.7L61.8,55.9L52.1,65.6L51.1,66.8L50.8,68.3L50.7,84.9L50.9,86.2L51.6,86.8L52.7,86.9L53.7,86.9L56.8,87.0L71.4,87.2L77.5,87.0L78.0,86.4L78.1,84.8L78.2,68.8L78.1,67.8L77.4,66.7L74.9,64.1L74.7,63.7L72.5,61.6L71.9,61.2L71.7,60.6L69.1,58.0L65.7,54.4L64.9,53.8Z M63.9,9.3L60.1,12.9L59.7,13.5L56.8,16.2L53.0,20.0L52.7,20.5L51.5,21.6L45.5,27.5L44.9,28.3L39.9,33.3L38.3,35.0L36.5,36.7L36.3,37.0L27.4,45.9L25.0,48.6L20.4,53.1L20.0,54.3L20.0,59.8L19.8,64.2L19.9,72.7L19.8,76.0L19.8,97.8L19.7,106.5L19.7,116.2L19.8,117.1L20.2,117.7L21.2,118.1L30.8,118.1L35.4,118.3L39.0,118.2L41.5,118.3L43.0,118.3L55.2,118.5L61.7,118.4L63.9,118.6L73.5,118.5L75.3,118.7L78.1,118.6L81.3,118.8L97.3,118.9L101.6,118.9L106.3,119.0L107.5,118.9L108.1,118.2L108.2,115.1L108.2,109.5L108.3,107.6L108.3,94.8L108.5,91.3L108.5,85.0L108.3,82.5L108.5,79.6L108.5,60.3L108.4,55.8L108.2,55.0L107.5,53.8L106.0,52.2L105.4,51.7L104.3,50.3L102.6,48.7L102.4,48.3L97.9,43.6L97.4,43.0L96.4,42.1L93.8,39.2L89.8,35.1L89.6,34.8L86.9,32.1L86.4,31.4L83.2,28.3L79.9,24.6L72.5,17.1L66.0,10.1L65.1,9.3Z M63.8,26.6L64.9,26.6L65.3,26.8L66.5,27.9L69.3,30.6L70.6,32.3L73.4,35.0L76.3,38.2L78.2,40.0L79.4,41.5L81.9,44.1L84.2,46.5L84.4,46.9L86.9,49.3L87.3,49.9L92.6,55.5L95.4,58.7L96.3,60.1L96.5,61.6L96.6,65.8L96.6,87.9L96.4,92.9L96.6,94.1L96.4,96.1L96.3,103.1L96.2,104.0L96.2,105.1L95.4,106.0L94.0,106.3L83.8,106.1L79.5,106.2L67.3,105.9L59.9,106.0L57.6,105.8L46.8,105.8L45.8,105.7L37.5,105.7L36.9,105.5L34.0,105.6L32.8,105.3L32.1,104.5L31.9,103.6L31.9,87.5L32.1,75.3L32.0,64.2L32.1,59.8L32.4,58.5L33.0,57.6L38.3,52.2L38.6,51.8L40.3,50.1L41.3,48.9L49.9,40.3L50.6,39.4L54.3,35.7L54.7,35.5L62.0,28.0Z" fill="#000" fill-rule="evenodd"/>
</svg>