<svg xmlns="http://www.w3.org/2000/svg" viewBox="0 0 128 128" width="128" height="128">
  <path d="M119.0,48.1L118.2,47.3L112.2,43.5L111.9,43.4L111.3,42.9L110.6,42.6L109.4,41.7L108.8,41.5L108.4,41.1L107.9,41.0L106.3,39.8L105.8,39.7L103.8,38.3L103.5,38.3L103.0,37.8L102.3,37.5L102.0,37.2L101.2,36.9L98.1,34.9L96.1,33.8L95.5,33.3L93.5,32.2L92.9,31.6L92.1,31.4L91.8,31.1L88.4,29.2L85.8,27.4L85.3,27.3L84.9,26.9L84.3,26.7L80.0,24.0L78.7,23.3L78.2,22.9L74.5,20.8L73.6,20.2L72.1,19.4L68.1,16.9L66.0,15.8L65.5,15.4L64.8,15.2L63.9,15.5L60.5,17.5L59.2,18.1L56.9,19.4L56.3,19.7L56.0,19.9L54.5,20.6L52.8,21.6L51.1,22.4L49.7,23.4L48.8,23.7L47.7,24.5L47.1,24.6L46.7,25.0L44.3,26.1L40.2,28.4L39.6,28.7L38.8,29.2L37.9,29.7L37.5,30.0L37.0,30.2L35.7,31.0L35.1,31.2L34.0,31.9L32.6,32.6L32.3,32.8L31.5,33.1L30.7,33.7L30.4,33.8L29.1,34.6L28.7,34.7L26.9,35.9L24.8,36.9L24.1,37.1L22.8,38.0L21.3,38.7L21.1,38.9L18.4,40.3L18.0,40.4L17.4,40.8L9.4,45.0L9.3,45.4L9.3,45.8L9.7,46.9L10.8,48.4L11.2,49.3L11.8,50.1L12.2,51.0L12.9,51.9L13.6,53.2L14.0,53.5L14.7,53.4L15.6,53.0L16.3,52.5L17.4,52.0L18.8,51.1L20.7,50.2L21.4,50.3L21.5,54.9L21.2,60.9L20.9,70.2L20.7,73.2L20.7,77.0L20.2,88.1L20.2,91.7L20.5,92.1L25.1,92.3L27.8,92.2L34.5,92.5L40.0,92.5L41.4,92.6L43.1,92.6L45.8,92.7L49.7,92.7L50.5,92.9L52.2,93.0L56.7,93.0L58.3,93.1L58.7,93.5L58.8,93.9L58.7,101.0L58.6,102.1L58.2,102.6L57.1,102.6L40.4,102.3L33.7,102.3L32.3,102.1L30.9,102.3L24.4,102.1L20.4,102.1L20.1,102.4L19.9,102.7L19.7,111.6L19.8,112.3L20.8,112.4L21.4,112.2L38.4,112.6L39.6,112.5L46.3,112.7L51.0,112.7L52.6,112.9L57.3,112.9L60.2,113.0L67.8,113.0L68.2,112.9L68.3,112.6L68.4,110.7L68.7,109.7L68.6,106.5L68.8,104.6L68.7,98.6L68.9,93.7L69.2,93.5L70.9,93.3L87.9,93.7L89.7,93.6L91.0,93.8L105.9,93.8L106.3,93.4L106.4,90.3L106.4,87.8L106.8,80.6L106.7,79.1L106.8,73.3L107.0,71.4L107.2,63.1L107.1,62.0L107.5,52.9L107.8,52.5L108.7,52.7L111.4,54.5L113.3,55.5L114.2,56.2L114.8,56.3L115.4,55.7L116.4,53.7L117.0,52.9L118.0,50.7L118.3,50.3L119.1,48.8Z M69.2,79.3L69.5,79.1L69.8,79.1L70.3,79.3L70.7,79.7L71.8,80.3L74.0,82.0L75.2,82.7L76.3,83.6L76.3,83.9L76.0,84.1L75.4,84.2L69.6,84.0L69.2,83.5L69.1,83.0Z M59.0,78.4L58.9,83.3L58.5,83.7L57.6,83.8L51.6,83.5L51.1,83.2L51.1,83.0L52.0,82.1L53.1,81.5L53.7,81.0L54.7,80.5L55.4,79.8L56.0,79.6L56.8,79.0L57.1,78.9L58.3,78.2L58.8,78.2Z M31.4,44.5L31.9,44.0L34.0,43.0L36.0,41.7L36.7,41.5L37.2,41.1L41.0,39.2L42.7,38.1L44.3,37.3L45.8,36.4L46.4,36.1L49.4,34.4L49.7,34.4L50.9,33.5L51.5,33.4L57.3,30.1L60.6,28.4L61.1,28.0L62.1,27.7L63.0,27.0L64.4,26.4L65.2,26.4L67.1,27.5L68.3,28.3L68.6,28.4L74.1,31.9L74.9,32.2L75.6,32.8L77.9,34.1L79.5,35.2L79.8,35.3L80.7,35.9L81.5,36.3L82.0,36.7L83.7,37.6L84.9,38.4L85.2,38.5L85.7,38.9L87.1,39.7L87.8,40.2L89.0,40.8L89.3,41.1L90.0,41.4L90.7,42.0L92.1,42.6L96.2,45.4L96.5,45.4L97.3,46.4L97.4,49.2L97.3,54.2L97.3,61.9L97.1,63.8L97.1,67.8L96.9,68.4L97.0,74.4L96.8,83.5L96.6,84.0L96.1,84.4L86.1,84.4L84.9,84.2L79.1,84.1L78.7,83.4L78.6,75.5L78.3,74.8L76.9,73.9L75.7,72.8L75.1,72.6L74.3,71.8L73.3,71.2L68.0,67.3L67.8,67.3L66.6,66.4L66.0,65.9L64.0,64.5L62.9,64.5L62.4,64.7L62.1,65.0L61.1,65.5L57.9,67.8L55.4,69.2L54.9,69.7L54.5,69.7L52.4,71.3L51.2,71.9L49.2,73.4L49.0,74.3L48.9,78.0L48.8,79.0L48.8,81.9L48.7,82.9L48.4,83.3L48.0,83.5L44.8,83.5L44.0,83.3L41.5,83.3L39.7,83.1L36.6,83.2L35.7,83.0L31.8,83.0L31.1,83.0L30.7,82.8L30.5,82.5L30.4,82.0L30.6,72.1L30.7,70.2L30.9,59.6L31.2,55.1L31.2,45.4Z" fill="#000" fill-rule="evenodd"/>
</svg>