<svg xmlns="http://www.w3.org/2000/svg" viewBox="0 0 128 128" width="128" height="128">
  <path d="M64.9,17.9L63.7,17.9L63.1,18.2L60.6,19.9L59.9,20.5L55.6,23.5L54.5,24.3L53.0,25.4L52.6,25.6L50.0,27.6L40.4,34.4L38.0,36.3L37.5,36.5L34.9,38.5L33.9,39.2L32.5,40.3L28.9,42.7L28.2,43.3L27.6,43.6L25.5,45.3L22.7,47.1L21.1,48.6L18.2,50.6L15.6,52.7L15.4,52.7L14.5,53.4L13.5,54.0L12.3,55.2L9.8,56.9L9.3,57.4L9.1,58.0L9.5,60.4L9.7,61.0L10.2,63.5L11.3,67.9L11.5,69.0L12.5,72.8L12.9,75.0L13.4,76.6L14.6,82.1L15.5,85.0L16.0,87.6L16.8,90.7L17.1,91.7L17.7,94.6L18.6,97.7L19.2,98.3L23.9,100.7L25.7,101.8L26.1,101.9L26.7,102.3L28.9,103.4L29.7,103.9L32.6,105.3L35.5,107.0L36.7,107.5L38.1,108.3L41.0,109.7L42.2,110.3L42.6,110.2L42.7,109.8L41.9,108.6L40.9,107.4L38.8,104.6L37.9,103.7L37.7,103.3L36.4,101.8L30.8,94.5L29.5,93.1L29.1,92.3L28.3,91.5L26.9,89.6L26.9,89.0L28.1,87.8L32.8,84.3L33.6,83.9L34.6,83.0L39.2,79.8L40.9,78.4L43.6,76.6L46.5,74.3L50.7,71.4L53.1,69.4L57.1,66.6L57.9,65.9L60.4,64.3L61.6,63.3L63.6,61.9L64.5,61.9L65.9,62.9L67.9,64.6L68.7,65.0L70.7,66.7L72.1,67.6L72.8,68.3L75.7,70.3L81.6,74.9L82.2,75.2L83.0,75.9L87.9,79.5L90.0,81.1L91.0,81.7L94.5,84.6L96.4,85.9L97.0,86.5L98.3,87.3L99.9,88.6L100.6,89.5L100.5,90.0L98.1,93.3L96.0,95.4L95.7,96.0L94.6,97.1L93.1,99.1L92.4,99.8L91.9,100.6L90.9,101.6L85.2,108.5L84.4,109.6L84.4,110.1L85.0,110.2L86.2,109.8L87.6,109.0L90.8,107.5L91.2,107.1L93.6,106.0L94.0,105.7L95.2,105.2L100.0,102.7L100.4,102.6L100.8,102.3L103.8,100.8L104.0,100.6L107.0,99.2L107.5,98.8L107.9,98.7L109.0,97.8L109.3,97.4L110.1,94.3L110.3,93.2L110.9,91.1L111.2,89.8L111.5,89.0L112.1,86.2L112.3,85.9L112.7,83.5L113.1,82.5L113.9,79.2L114.1,78.7L115.2,74.0L115.7,72.6L116.1,70.5L116.2,70.2L116.5,68.7L116.8,67.8L117.0,66.6L118.2,62.2L118.3,61.5L118.7,60.2L119.1,58.8L119.0,57.5L118.2,56.7L117.5,56.3L115.0,54.1L112.9,52.7L110.5,50.7L108.6,49.6L107.8,48.8L106.2,47.8L103.4,45.5L103.0,45.3L100.8,43.6L100.3,43.3L99.4,42.5L98.9,42.3L97.8,41.4L96.9,40.8L96.3,40.2L92.6,37.7L91.8,37.0L90.7,36.3L90.3,35.9L88.3,34.6L87.8,34.1L87.0,33.7L86.1,33.0L85.9,33.0L83.9,31.3L82.5,30.4L81.4,29.5L81.0,29.4L79.8,28.3L77.2,26.6L75.0,24.8L74.2,24.4L72.4,23.0L68.7,20.5L66.7,18.9L65.5,18.1Z M61.4,26.5L61.6,27.2L61.6,29.4L61.4,31.2L61.4,44.0L61.2,45.9L61.3,49.2L61.2,51.9L61.2,56.2L61.1,56.8L60.7,57.2L59.6,57.5L57.1,57.5L55.8,57.3L54.8,57.5L50.7,57.3L47.4,57.4L46.6,57.1L43.4,57.5L30.9,57.5L30.5,57.3L27.2,57.5L20.1,57.5L19.0,57.4L19.0,56.8L19.6,56.3L27.0,50.8L28.1,50.2L30.3,48.4L34.7,45.2L35.8,44.4L38.0,42.9L40.3,41.0L41.4,40.4L45.1,37.6L45.8,37.3L50.1,33.9L54.1,31.2L55.5,30.1L57.1,29.1L57.5,28.7L59.0,27.7L59.7,27.2L60.8,26.5Z M67.1,26.3L67.3,26.1L67.8,26.1L69.1,27.0L71.4,28.8L72.1,29.2L73.7,30.5L76.5,32.4L77.3,33.1L79.2,34.3L79.8,34.9L86.9,39.9L87.3,40.4L88.5,41.1L90.8,43.0L94.7,45.7L98.6,48.8L101.9,51.1L105.3,53.7L106.7,54.6L107.5,55.4L108.4,55.9L109.5,56.9L109.5,57.1L109.2,57.4L108.0,57.4L107.6,57.5L105.2,57.5L103.8,57.3L100.4,57.5L93.7,57.4L92.9,57.2L87.9,57.4L85.9,57.3L82.7,57.5L81.4,57.3L67.2,57.3L66.8,56.7L66.7,56.2L66.9,30.2Z" fill="#000" fill-rule="evenodd"/>
</svg>