<svg xmlns="http://www.w3.org/2000/svg" viewBox="0 0 128 128" width="128" height="128">
  <path d="M42.7,47.4L35.0,47.4L23.7,47.7L19.3,47.6L16.6,47.8L11.0,47.9L10.5,47.8L10.1,47.9L9.8,48.2L9.7,50.1L9.9,51.0L9.8,57.1L10.0,65.4L9.9,68.9L10.2,79.1L10.2,111.6L10.3,118.3L10.5,118.7L12.1,118.9L41.7,118.6L43.0,118.5L43.5,117.9L43.6,103.3L43.2,74.9L43.2,57.1L43.0,56.6L43.1,49.4L43.0,47.8Z M80.1,46.9L67.2,46.9L65.8,47.0L56.7,47.2L53.0,47.1L48.2,47.3L47.9,47.6L47.9,65.8L48.1,71.3L48.0,74.1L48.2,91.3L48.2,113.9L48.3,117.7L48.8,118.3L55.7,118.4L60.6,118.2L80.2,117.9L81.2,117.6L81.3,108.4L81.2,101.7L81.0,100.6L81.0,83.2L80.7,62.6L80.8,61.4L80.6,56.1L80.6,48.4L80.5,47.3Z M117.5,46.3L112.5,46.2L85.9,46.5L85.5,46.6L85.1,47.0L85.1,61.6L85.3,63.8L85.6,93.9L85.5,97.0L85.7,101.2L85.7,116.9L85.9,117.6L86.5,117.8L97.6,117.5L117.7,117.0L118.5,116.6L118.6,103.3L118.4,87.6L118.5,84.8L118.2,69.9L118.3,62.8L118.1,57.8L118.2,56.2L118.0,47.0L117.9,46.6Z M26.5,12.3L26.2,12.3L25.9,12.6L25.2,14.0L24.1,15.7L23.6,17.0L22.6,18.5L22.0,20.0L20.0,23.3L18.9,25.7L18.5,26.2L17.8,27.8L16.9,29.1L15.6,31.9L14.8,33.2L13.8,35.3L13.7,35.8L13.3,36.2L10.3,42.2L10.3,42.5L10.5,42.7L25.1,42.3L28.7,42.4L40.3,42.1L41.8,42.2L42.4,42.1L42.5,41.6L42.3,41.1L42.0,40.8L39.9,37.0L39.3,35.5L36.4,30.5L33.0,23.8L32.3,22.6L31.4,20.8L30.9,20.1L26.9,12.7Z M117.4,40.9L117.5,40.1L117.0,39.5L116.9,39.0L114.4,34.0L113.9,33.4L112.7,30.8L110.8,27.3L106.8,19.3L106.0,18.1L104.6,15.1L102.9,12.3L101.9,10.1L101.4,9.4L89.3,9.3L86.2,9.5L83.6,9.4L74.7,9.7L68.7,9.6L61.9,9.9L49.8,10.0L42.0,10.3L32.4,10.3L31.5,10.4L31.2,10.6L31.2,11.4L33.5,15.3L33.7,16.1L35.9,19.8L38.9,25.8L40.9,29.1L41.9,31.3L42.1,31.6L42.6,32.7L43.4,34.0L44.7,36.8L45.4,37.7L46.7,40.5L47.3,41.5L47.8,41.8L59.1,41.7L63.6,41.5L72.4,41.5L76.2,41.3L81.4,41.4L92.4,41.1L116.6,41.1Z" fill="#000" fill-rule="evenodd"/>
</svg>