<svg xmlns="http://www.w3.org/2000/svg" viewBox="0 0 128 128" width="128" height="128">
  <path d="M102.9,72.1L102.7,71.8L102.2,71.7L100.9,71.5L76.2,71.5L75.1,71.3L71.5,71.6L61.6,71.5L59.0,71.7L53.4,71.7L49.2,71.5L44.7,71.5L41.0,71.7L26.1,71.7L25.5,71.8L25.1,72.4L24.9,73.4L24.9,117.4L25.1,118.3L25.5,118.9L26.0,119.0L48.8,119.0L50.5,118.8L50.8,118.6L50.8,117.8L50.6,117.2L50.4,117.0L50.2,116.4L49.7,115.5L49.5,115.2L49.3,114.5L47.2,110.3L47.1,109.6L46.8,109.1L46.7,108.4L46.4,107.7L46.2,106.4L46.0,105.6L45.9,101.8L46.2,99.4L46.8,97.2L47.4,95.8L48.5,93.7L50.1,91.4L51.9,89.6L54.7,87.5L57.5,86.1L59.7,85.5L60.2,85.2L63.7,84.8L65.3,84.8L67.9,85.2L70.9,86.2L73.3,87.4L75.8,89.1L76.5,89.8L78.7,92.2L80.0,94.2L81.3,97.3L82.0,100.0L81.9,101.3L82.3,102.5L82.3,104.2L82.1,105.6L81.7,107.2L81.6,108.1L81.3,108.8L81.2,109.5L81.0,109.6L80.3,111.5L80.0,111.9L79.8,112.7L79.5,113.1L78.9,114.7L78.7,115.0L78.7,115.2L78.2,116.2L77.6,117.8L77.6,118.6L77.9,119.0L78.5,119.1L101.3,119.1L102.2,119.0L102.8,118.8L103.1,118.5L103.3,117.9L103.4,115.5L103.3,108.5L103.2,108.1L103.2,107.8L103.3,107.6L103.2,77.9L103.1,72.5Z M102.5,40.8L102.4,40.4L102.1,40.1L101.1,39.8L90.5,39.9L90.0,40.1L89.8,40.2L89.8,40.9L90.3,42.1L90.7,42.7L91.6,45.2L91.9,47.2L91.8,49.6L91.0,51.9L90.5,52.8L89.6,54.1L88.6,55.1L87.1,56.3L85.0,57.3L84.1,57.5L82.2,57.9L79.5,57.8L77.5,57.1L75.4,55.8L73.3,53.5L72.2,51.4L71.7,49.2L71.7,45.9L72.2,44.1L73.0,42.8L73.8,40.8L73.8,40.5L73.6,40.2L71.4,40.0L54.4,40.0L54.1,40.3L54.1,40.9L55.7,44.4L56.2,46.8L56.1,49.6L55.9,49.8L55.6,51.2L54.4,53.5L52.7,55.5L52.0,56.1L50.8,56.7L50.4,57.0L49.3,57.5L47.6,57.9L46.4,58.0L45.2,58.0L43.4,57.7L42.2,57.3L41.2,56.8L39.7,55.9L38.4,54.5L37.2,52.7L36.6,51.5L36.1,49.2L36.1,46.8L36.2,46.2L36.7,44.4L36.9,43.3L38.2,41.2L38.2,40.5L38.0,40.3L37.1,40.1L25.5,40.1L24.9,40.8L24.8,41.6L24.8,55.8L25.0,57.3L24.8,59.1L24.9,65.3L25.1,65.7L25.6,66.1L31.9,66.2L63.4,66.1L69.4,65.9L70.5,66.1L76.0,65.9L77.0,66.1L81.2,66.1L84.5,65.9L92.8,65.9L96.9,66.1L98.9,65.9L101.9,65.9L102.2,65.7L102.4,65.4L102.5,64.1Z M63.7,34.3L63.9,34.8L64.1,34.9L64.8,34.9L67.8,33.8L69.7,33.2L70.6,32.7L79.2,29.9L80.4,29.4L83.5,28.4L84.2,28.0L84.5,28.0L86.7,27.3L88.8,26.4L96.1,24.0L97.4,23.4L99.5,22.8L100.5,22.3L101.1,22.2L101.8,21.8L102.1,21.6L102.1,21.3L101.6,20.9L95.0,18.7L94.7,18.7L93.8,18.3L93.4,18.3L91.0,17.4L89.6,17.1L88.7,16.7L85.2,15.6L83.9,15.3L82.3,14.8L81.8,14.7L79.9,13.9L78.8,13.7L75.6,12.5L75.3,12.5L74.2,12.1L72.5,11.7L64.7,9.1L64.2,9.1L63.8,9.3L63.6,9.9L63.6,24.6L63.8,30.3L63.6,32.4Z" fill="#000" fill-rule="evenodd"/>
</svg>