<svg xmlns="http://www.w3.org/2000/svg" viewBox="0 0 128 128" width="128" height="128">
  <path d="M91.9,43.4L91.6,43.5L91.4,43.8L91.3,44.6L91.4,58.9L91.5,62.6L91.5,71.9L91.8,82.7L91.7,99.7L91.9,102.2L91.9,107.7L92.1,108.0L92.3,108.1L106.0,108.1L106.3,107.7L106.3,99.7L106.2,88.9L106.3,87.2L106.1,84.1L106.2,82.3L105.9,57.6L105.9,43.8L105.8,43.5L105.5,43.4Z M96.8,52.7L98.3,52.3L100.1,52.3L100.9,52.4L101.9,52.9L102.0,53.9L101.7,54.4L101.2,54.2L100.5,53.5L99.3,53.2L98.1,53.3L97.4,53.6L96.4,54.6L96.1,55.3L96.0,56.2L96.2,58.1L96.6,58.8L97.2,59.4L98.1,59.9L99.7,60.1L100.5,59.9L101.6,59.1L101.9,59.1L102.1,59.4L102.0,60.4L101.5,60.8L100.6,61.1L100.0,61.2L98.2,61.1L97.5,60.9L96.7,60.6L96.0,60.1L95.3,59.4L94.9,58.8L94.6,58.0L94.4,57.1L94.4,56.2L94.7,55.2L95.5,53.8Z M74.6,43.4L74.2,44.0L74.2,51.5L74.3,57.0L74.3,58.1L74.4,73.9L74.6,77.8L74.6,91.6L74.8,107.6L75.2,107.9L75.7,108.0L88.8,108.1L89.1,108.0L89.4,107.4L89.4,91.9L89.2,85.1L89.3,82.6L89.1,77.6L89.2,72.2L89.0,65.4L89.1,63.4L89.0,55.6L89.0,43.9L88.9,43.7L88.5,43.4Z M82.4,52.4L82.7,52.7L82.7,53.0L82.2,53.8L82.1,59.2L82.4,59.8L83.0,60.3L83.0,60.6L82.7,60.9L80.4,60.9L80.2,60.6L80.2,60.4L80.8,59.4L80.8,53.9L80.5,53.4L80.1,53.1L80.1,52.7L80.4,52.5Z M57.5,43.4L57.3,43.5L57.0,44.0L57.3,66.6L57.2,70.7L57.4,78.3L57.5,102.2L57.7,107.7L57.9,107.9L58.3,108.0L71.9,107.9L72.3,107.5L72.3,101.2L71.9,67.5L72.0,64.7L71.8,61.1L71.8,44.0L71.6,43.5L71.4,43.4Z M61.7,52.6L62.1,52.4L64.1,52.4L64.4,52.7L64.3,53.1L63.9,53.5L63.7,53.9L63.8,59.5L64.1,59.8L65.6,59.8L66.3,59.7L67.3,58.9L67.7,58.9L67.9,59.1L67.9,59.8L67.7,60.4L67.3,60.9L61.7,60.9L61.5,60.7L61.5,60.3L62.2,59.7L62.4,59.3L62.4,58.1L62.2,57.0L62.3,54.4L62.2,53.8L61.6,53.1Z M40.2,43.3L39.8,43.6L39.8,44.0L39.8,53.3L39.9,56.5L39.8,59.3L40.2,80.0L40.2,96.4L40.3,101.5L40.3,107.4L40.6,107.9L41.2,108.1L53.7,108.0L55.0,107.8L55.1,107.4L55.1,99.7L54.8,71.2L54.9,66.7L54.7,62.2L54.8,59.9L54.6,55.2L54.6,43.7L54.5,43.5L54.0,43.3Z M51.4,52.6L51.5,53.1L51.3,53.3L51.1,53.8L51.1,60.4L50.9,60.9L50.8,61.0L50.3,61.0L46.1,56.6L45.3,55.6L44.9,55.5L44.7,56.0L44.8,59.3L45.0,59.8L45.5,60.5L45.5,60.7L45.2,61.0L44.9,61.1L43.3,61.0L43.1,60.9L43.1,60.5L43.5,59.9L43.7,59.2L43.6,53.5L43.8,52.7L44.5,52.7L48.0,56.4L48.0,56.6L49.6,58.1L49.7,58.1L50.0,57.8L49.8,56.8L49.8,54.7L49.6,53.8L49.5,53.5L49.1,53.1L49.1,52.8L49.3,52.5L49.6,52.4L51.0,52.4Z M22.6,43.3L22.4,43.7L22.6,64.6L22.6,68.8L22.7,71.2L22.8,91.1L23.0,95.3L22.9,98.2L23.0,107.7L23.5,108.1L37.4,108.0L37.7,107.7L37.8,107.3L37.7,82.3L37.5,78.0L37.6,71.2L37.4,66.5L37.3,43.9L36.9,43.4L36.6,43.3Z M27.9,53.1L28.9,52.6L30.0,52.3L31.9,52.3L33.0,52.6L33.6,53.2L33.7,53.9L33.6,54.4L33.0,54.4L32.7,54.0L32.0,53.5L30.4,53.3L29.3,53.5L28.8,53.8L28.2,54.5L27.7,55.8L27.7,57.6L28.1,58.7L28.6,59.4L29.7,60.1L30.4,60.3L32.0,60.3L32.4,60.1L33.2,59.5L33.6,59.4L33.8,59.7L33.8,60.3L33.3,60.9L32.3,61.3L30.4,61.3L29.2,61.1L27.9,60.5L26.7,59.3L26.3,58.6L26.1,57.7L26.1,55.7L26.3,55.5L26.3,55.2L26.7,54.3Z M9.1,40.4L9.2,42.0L9.4,42.1L9.9,42.3L18.1,42.5L20.1,42.4L24.3,42.5L29.2,42.5L45.1,42.6L110.3,42.6L118.7,42.4L119.0,41.8L119.0,40.2L118.6,39.6L118.0,39.4L117.0,39.2L115.1,38.4L114.6,38.3L113.3,37.7L109.9,36.6L109.5,36.3L107.2,35.6L104.3,34.4L101.0,33.4L99.6,32.7L98.6,32.5L98.3,32.2L92.3,30.2L91.9,30.0L91.5,29.9L87.1,28.2L86.4,28.1L85.3,27.6L78.9,25.4L77.9,24.9L74.3,23.7L73.2,23.2L72.5,23.1L69.9,22.0L69.4,22.0L68.1,21.3L66.3,20.8L64.8,20.2L63.9,20.2L61.9,20.8L61.5,21.1L59.1,21.8L57.7,22.4L50.8,24.8L50.5,25.1L49.9,25.2L47.7,25.9L47.2,26.2L46.3,26.5L46.0,26.7L45.5,26.8L44.2,27.3L42.7,27.7L38.7,29.3L36.9,29.8L36.5,30.1L34.1,30.8L32.2,31.6L30.2,32.2L29.8,32.5L28.8,32.7L28.0,33.1L26.6,33.5L22.1,35.2L20.9,35.5L20.5,35.8L19.4,36.0L16.6,37.1L16.0,37.2L15.5,37.5L12.3,38.6L10.8,39.2L9.8,39.5L9.3,39.9Z" fill="#000" fill-rule="evenodd"/>
</svg>