<svg xmlns="http://www.w3.org/2000/svg" viewBox="0 0 128 128" width="128" height="128">
  <path d="M107.3,78.8L105.9,78.9L105.1,79.1L104.3,79.6L103.3,80.6L102.8,81.5L102.4,82.7L102.5,84.4L103.1,85.8L104.4,87.2L105.3,87.7L106.2,87.9L107.7,87.8L109.0,87.2L109.7,86.6L110.3,85.8L110.7,85.0L110.9,84.4L110.9,82.0L110.0,80.5L108.8,79.3L108.4,79.1Z M24.7,73.2L23.6,73.6L23.1,74.0L22.3,74.4L21.2,75.5L20.0,77.1L19.6,78.4L19.4,79.6L19.4,81.3L19.6,82.6L20.4,84.2L21.2,85.2L22.1,86.2L23.1,86.9L23.7,87.2L23.8,87.3L24.9,87.7L26.0,87.9L27.5,88.0L29.1,87.8L30.3,87.3L32.1,86.1L33.1,85.1L33.8,84.1L34.3,83.0L34.7,81.5L34.7,79.4L34.4,78.2L33.9,76.8L32.8,75.4L31.8,74.5L30.6,73.7L29.4,73.2L27.7,72.9L26.3,72.9Z M77.1,72.7L75.9,73.0L74.1,73.9L72.8,74.9L72.1,75.5L71.2,77.1L70.7,78.6L70.6,80.9L70.8,82.0L71.0,82.6L71.0,83.0L71.8,84.5L72.6,85.5L73.6,86.4L75.2,87.3L76.8,87.8L79.4,87.9L81.0,87.5L82.7,86.6L84.1,85.3L85.4,83.3L85.6,82.2L85.9,81.5L85.9,79.0L85.4,77.4L84.5,75.9L83.9,75.1L82.4,73.9L80.9,73.1L79.7,72.8L78.5,72.6Z M94.1,58.8L94.1,76.0L94.3,76.5L94.6,76.8L95.8,77.0L112.7,77.0L113.4,76.8L117.4,76.8L118.0,76.7L118.6,76.7L119.2,76.3L119.2,61.5L119.1,59.3L119.0,58.9L118.5,58.7L117.0,58.6L95.5,58.5L94.4,58.6Z M9.1,40.9L9.1,63.9L9.3,70.3L9.6,70.7L10.1,70.8L16.6,70.9L66.2,70.8L75.3,71.0L86.7,70.8L89.4,70.9L90.0,70.8L90.3,70.7L90.6,70.4L90.6,53.1L90.5,49.0L90.5,41.3L90.1,40.7L89.6,40.5L84.2,40.4L31.0,40.4L30.0,40.3L28.6,40.3L27.8,40.4L9.7,40.4L9.4,40.5Z" fill="#000" fill-rule="evenodd"/>
</svg>