<svg xmlns="http://www.w3.org/2000/svg" viewBox="0 0 128 128" width="128" height="128">
  <path d="M50.8,80.4L49.6,80.6L48.3,81.0L46.6,82.0L45.3,83.3L44.0,85.1L43.5,86.1L43.0,88.2L42.8,89.7L43.0,90.4L43.1,92.1L43.4,93.3L44.7,95.3L45.9,96.7L47.7,98.0L48.7,98.5L50.8,98.9L52.7,99.1L55.4,98.5L56.3,98.1L57.7,97.0L59.1,95.7L59.4,95.1L60.0,94.4L60.1,93.8L60.9,91.5L60.9,87.9L60.5,87.0L60.5,86.1L59.8,84.7L59.3,83.8L57.4,82.1L54.8,80.8L53.0,80.5Z M75.1,80.2L73.8,80.4L73.0,80.7L72.6,80.7L71.1,81.5L68.2,84.7L67.1,88.2L67.0,90.7L67.4,92.5L67.6,93.3L68.8,95.2L71.3,97.5L72.0,98.0L73.3,98.5L75.0,98.8L77.1,98.9L78.2,98.6L79.1,98.5L81.1,97.5L83.2,95.6L84.1,94.3L84.9,92.0L85.2,90.7L85.0,87.7L84.7,86.3L83.9,84.6L83.4,83.7L81.9,82.1L80.2,81.1L78.7,80.5L77.2,80.2Z M30.7,77.5L29.9,77.9L29.2,78.0L27.9,78.8L26.7,79.8L25.1,81.7L24.5,82.8L24.3,83.7L24.1,84.3L24.1,85.5L23.9,86.6L24.1,88.6L24.4,90.0L25.9,92.5L26.6,93.3L28.7,95.0L31.8,95.8L34.5,95.8L34.8,95.7L35.8,95.5L36.3,95.1L36.6,95.1L37.7,94.6L38.3,93.9L39.3,93.3L40.4,92.1L41.2,90.6L41.2,90.2L41.7,88.7L41.9,85.7L41.6,84.9L41.5,83.8L40.9,82.3L40.8,81.7L39.9,80.5L38.9,79.5L37.6,78.6L36.3,78.2L35.9,77.9L33.2,77.3L31.8,77.3Z M93.9,76.8L91.8,77.5L90.6,78.5L89.6,79.0L88.8,79.7L87.7,81.1L86.7,83.0L86.2,84.7L86.0,86.6L86.7,89.3L88.0,91.6L89.3,93.0L90.6,94.0L92.6,95.0L94.2,95.3L96.2,95.3L97.1,95.1L97.4,94.9L98.4,94.8L100.2,93.9L101.9,92.3L102.2,91.8L102.9,91.1L103.1,90.2L103.5,89.6L103.6,88.9L103.9,88.4L104.3,85.5L104.3,84.4L103.1,80.8L102.8,80.3L101.2,78.8L98.3,77.2L96.8,76.8Z M61.8,9.2L61.5,9.5L61.5,15.8L61.5,16.4L60.8,16.9L46.1,17.2L34.2,17.1L33.9,17.4L34.2,47.8L33.7,48.0L32.4,46.3L30.4,44.5L29.3,44.3L28.0,43.6L25.9,43.3L23.7,43.5L22.1,44.2L19.9,46.3L19.1,47.8L18.6,49.8L18.6,51.6L18.9,52.8L19.4,53.8L19.6,54.4L20.0,54.9L21.8,56.3L22.8,56.6L24.2,56.9L25.3,56.9L26.6,56.6L27.4,56.2L28.4,55.3L29.3,54.1L29.7,52.9L29.7,51.6L29.5,50.7L28.9,49.3L27.8,48.1L27.2,47.6L26.6,47.4L25.5,47.4L24.1,48.0L23.1,48.9L22.5,49.8L22.4,51.1L23.1,52.0L23.5,52.2L24.1,52.2L24.7,52.0L25.9,50.6L26.8,50.6L27.5,51.4L27.6,52.4L27.4,53.1L26.6,54.0L25.7,54.5L25.2,54.6L24.1,54.5L23.6,54.3L22.4,54.0L21.6,53.3L20.7,51.5L20.5,49.7L20.9,48.6L21.8,47.2L23.2,46.1L24.5,45.8L26.4,45.8L27.9,46.2L29.4,47.2L30.5,48.3L31.1,49.2L31.4,50.9L31.5,53.0L31.2,54.4L30.6,56.1L29.6,57.7L29.0,59.1L28.2,59.9L28.0,60.6L27.2,61.5L27.0,62.1L25.8,63.5L25.5,64.0L24.5,65.2L23.1,67.2L22.5,67.8L22.1,68.6L21.2,69.6L20.1,71.0L19.4,72.3L19.0,72.7L18.4,73.9L18.1,74.3L17.5,75.6L16.1,77.9L15.6,79.6L14.7,81.6L14.6,82.4L14.3,82.8L14.1,83.8L14.0,84.1L13.7,86.0L13.4,86.8L13.0,90.3L13.2,94.0L13.6,95.0L13.9,96.7L15.1,99.9L16.3,102.0L18.1,104.1L21.5,106.9L22.7,107.3L23.0,107.6L23.5,107.8L24.1,108.2L24.3,108.2L25.1,108.8L26.6,109.0L28.2,109.8L31.9,110.7L33.7,110.9L34.1,111.0L37.7,111.8L40.5,111.9L40.9,112.0L43.6,112.4L49.9,112.6L50.8,112.8L61.0,112.8L62.2,113.0L62.5,113.4L62.7,118.5L63.2,118.9L63.7,119.0L64.4,118.8L65.6,118.8L66.0,118.5L66.0,113.8L66.1,113.4L66.5,112.9L74.3,112.7L76.8,112.5L78.5,112.6L79.3,112.4L82.9,112.2L84.5,111.9L85.8,111.9L86.4,111.7L88.5,111.6L88.7,111.4L91.6,111.1L92.4,110.9L95.9,110.4L98.4,109.8L99.3,109.7L100.1,109.3L101.2,109.1L101.4,108.9L102.4,108.7L104.9,107.6L107.7,105.8L110.5,103.2L113.0,99.9L114.0,97.5L114.6,95.5L114.7,94.2L115.1,92.1L115.1,89.2L114.7,85.0L114.4,84.2L114.2,82.9L113.2,80.0L113.0,79.6L112.9,79.2L111.1,75.6L109.1,72.1L107.4,69.7L107.2,69.3L103.1,64.4L101.5,61.9L100.8,61.2L97.4,56.1L96.0,52.9L95.9,50.6L96.1,49.4L96.4,48.4L97.3,47.0L98.8,45.5L100.1,44.9L101.6,44.6L103.1,44.6L104.4,45.2L105.5,45.9L106.1,46.5L106.9,47.8L107.1,49.1L107.1,50.1L106.8,51.2L105.8,52.7L105.1,53.3L103.9,53.8L102.9,53.8L101.6,53.5L100.8,52.9L100.1,51.9L100.3,50.9L100.7,50.4L101.7,50.4L102.8,51.4L103.8,51.5L104.5,51.2L105.1,50.4L105.0,48.8L104.4,47.7L103.1,47.0L102.3,46.7L101.7,46.7L100.0,47.2L99.2,47.9L98.5,48.9L98.1,50.4L98.1,52.3L98.6,53.4L99.3,54.3L100.8,55.4L102.1,55.9L103.3,55.9L104.7,55.6L106.3,54.9L107.7,53.7L108.7,52.1L108.9,50.5L108.9,48.8L108.8,47.8L108.3,46.7L107.3,45.2L106.2,44.1L105.2,43.4L104.4,43.1L102.6,42.6L100.6,42.6L100.0,42.9L99.0,43.0L96.5,44.2L94.5,46.2L94.1,47.3L93.7,47.9L93.3,47.7L93.0,44.2L93.0,31.2L92.8,25.7L92.8,19.4L92.7,16.8L92.3,16.6L83.2,16.6L80.9,16.8L77.0,16.7L65.7,16.9L65.4,16.7L65.3,16.3L65.2,9.8L64.7,9.2Z M61.6,50.7L61.9,52.1L62.0,58.3L62.2,59.4L62.1,67.8L62.4,74.9L62.4,89.7L61.9,92.5L61.5,94.2L59.8,96.9L58.5,98.2L56.5,99.5L55.6,99.8L54.8,100.2L52.1,100.6L49.4,100.2L47.4,99.6L45.4,98.2L44.3,97.1L43.2,95.5L43.0,94.9L42.2,93.7L41.8,93.4L41.0,93.5L37.7,96.0L37.2,96.1L35.7,96.8L33.1,97.3L31.4,97.2L28.8,96.6L27.8,96.0L27.2,95.5L26.3,94.9L25.0,93.4L23.7,91.5L22.7,88.8L22.5,87.7L22.5,86.1L22.8,84.1L23.4,82.0L23.9,81.1L25.5,78.8L25.7,77.5L25.7,76.0L26.0,75.1L26.2,73.2L26.8,71.6L27.2,71.0L27.2,70.7L27.6,70.0L27.8,69.4L28.2,68.9L28.2,68.5L29.2,66.5L29.6,66.0L30.2,64.7L32.1,61.8L34.1,57.2L34.8,53.8L34.9,51.4L35.2,51.1L36.5,50.9L41.9,50.9L45.2,50.7L52.1,50.6Z M65.9,50.6L68.5,50.4L71.3,50.5L78.5,50.4L90.3,50.4L91.3,50.5L92.5,50.5L92.8,50.8L93.0,51.9L93.0,53.6L93.9,57.1L95.1,59.6L95.4,59.9L96.6,62.3L98.5,65.4L99.0,66.5L99.5,67.1L100.3,68.9L101.0,70.0L101.8,72.5L101.9,73.4L102.6,75.4L102.8,76.6L102.8,78.1L104.5,80.2L105.1,81.7L105.9,84.3L106.0,85.9L105.8,88.0L105.4,89.5L104.4,91.8L103.3,93.1L101.7,94.8L99.9,95.7L99.7,95.9L98.9,96.1L98.3,96.5L96.9,96.7L96.1,96.9L93.7,96.8L92.3,96.4L91.6,96.0L90.9,95.9L90.4,95.6L89.7,95.4L88.1,94.1L87.6,93.6L86.8,92.6L86.7,92.6L86.4,92.9L86.3,93.6L85.9,94.0L85.7,94.7L84.9,95.6L84.7,96.3L82.5,98.4L80.4,99.6L79.7,99.7L78.7,100.1L77.1,100.2L76.4,100.4L74.7,100.3L71.6,99.5L69.6,98.0L68.2,96.8L68.0,96.3L66.7,94.5L66.0,92.6L65.8,91.7L65.6,77.8L65.7,68.3L65.5,64.0L65.6,58.6L65.5,53.8L65.5,51.0Z" fill="#000" fill-rule="evenodd"/>
</svg>