<svg xmlns="http://www.w3.org/2000/svg" viewBox="0 0 128 128" width="128" height="128">
  <path d="M90.6,110.4L90.5,110.0L90.2,109.9L86.4,109.8L69.7,109.9L57.0,110.2L38.3,110.1L37.2,110.2L37.0,110.6L37.3,110.9L38.8,111.1L46.1,111.1L76.7,110.6L89.8,110.7L90.4,110.6Z M97.4,107.9L97.2,107.7L96.7,107.6L81.4,107.6L76.7,107.8L71.9,107.7L47.9,108.0L33.8,107.9L31.9,108.0L31.7,108.1L31.7,108.4L32.1,108.6L35.5,108.7L61.2,108.7L78.1,108.4L85.0,108.5L97.0,108.3Z M101.0,105.5L100.9,105.4L99.6,105.3L89.6,105.4L65.7,105.4L49.1,105.7L47.4,105.5L28.8,105.6L28.4,105.8L28.4,106.1L28.7,106.4L31.7,106.5L57.4,106.5L61.6,106.3L87.6,106.1L89.8,106.2L92.5,106.0L99.6,106.0L100.7,105.9Z M103.5,103.1L86.4,103.0L75.5,103.2L69.1,103.1L66.1,103.3L62.1,103.2L60.5,103.4L26.4,103.4L26.1,103.5L25.9,103.9L26.3,104.1L50.4,104.1L63.5,103.9L71.9,104.0L87.0,103.8L93.7,103.9L98.1,103.7L103.3,103.7L103.5,103.6Z M105.5,100.9L82.3,100.8L44.6,101.1L27.2,101.0L24.3,101.1L24.1,101.2L24.1,101.7L25.5,101.9L69.1,101.7L70.3,101.8L77.8,101.6L83.3,101.7L84.5,101.5L92.2,101.6L95.3,101.4L105.1,101.4L105.5,101.2Z M107.2,98.5L106.8,98.3L102.3,98.3L95.2,98.5L89.4,98.4L84.0,98.6L63.1,98.6L54.2,98.8L23.2,98.8L22.6,98.9L22.5,99.1L22.6,99.5L23.3,99.6L29.5,99.6L34.5,99.5L79.9,99.5L82.2,99.3L106.8,99.1L107.2,98.9Z M108.4,96.4L108.0,96.1L97.3,96.1L89.4,96.3L85.7,96.2L74.0,96.4L61.2,96.4L56.9,96.6L22.1,96.6L21.6,96.7L21.4,96.8L21.5,97.2L21.7,97.3L24.1,97.4L37.2,97.2L55.2,97.3L64.6,97.1L84.4,97.1L87.6,96.9L108.0,96.8L108.3,96.7Z M109.3,94.2L109.2,93.8L108.6,93.8L86.5,94.0L62.1,94.0L55.8,94.2L30.1,94.2L21.1,94.3L20.7,94.5L20.5,94.8L20.6,95.0L36.7,95.1L62.1,94.9L69.1,95.0L73.9,94.8L88.2,94.8L92.2,94.6L107.0,94.6L108.8,94.5Z M109.9,91.7L109.7,91.5L107.7,91.4L73.9,91.8L70.0,91.7L61.4,91.9L57.1,91.8L52.7,92.0L50.7,91.8L43.3,92.0L20.8,92.0L20.1,92.1L19.8,92.3L19.8,92.5L20.2,92.8L46.2,92.6L55.8,92.7L70.5,92.5L74.5,92.6L77.7,92.4L82.2,92.5L84.9,92.3L89.4,92.4L94.9,92.3L109.5,92.3L109.9,92.1Z M110.5,41.6L109.9,41.6L101.3,50.6L99.9,52.3L98.0,54.3L97.7,54.7L94.0,58.5L94.1,58.9L94.8,58.9L95.3,58.3L96.2,57.2L100.2,53.1L103.7,49.2L110.6,42.1Z M32.8,20.2L32.1,20.1L31.2,21.0L30.7,21.6L27.1,25.3L25.9,26.8L22.6,30.0L19.5,33.5L19.3,33.9L19.3,34.3L19.7,34.3L22.0,32.1L23.6,30.2L29.2,24.4L32.4,20.9Z M47.0,18.2L46.4,18.2L46.1,18.3L42.7,22.2L38.6,26.2L37.8,27.3L30.3,35.2L29.9,35.7L26.6,39.2L25.9,40.0L22.1,43.9L20.0,46.3L18.4,47.9L18.3,48.5L18.9,48.6L22.5,44.9L26.1,40.8L32.6,34.2L33.8,32.7L39.6,26.7L42.9,22.9L46.7,19.1L47.1,18.5Z M50.2,18.2L49.7,18.1L48.6,19.0L46.5,21.4L41.5,26.5L40.8,27.4L38.7,29.5L38.6,29.9L36.9,31.7L32.2,36.5L31.2,37.8L24.1,45.1L22.9,46.6L20.0,49.7L18.4,51.3L18.5,51.9L19.0,51.8L19.9,51.0L21.6,48.9L23.2,47.4L27.2,43.1L27.6,42.6L33.5,36.5L37.9,31.5L41.7,27.7L45.8,23.2L50.2,18.7Z M117.6,9.5L103.4,9.5L83.7,9.8L79.2,9.7L74.8,9.9L69.8,9.8L65.8,10.0L55.2,10.0L48.1,10.2L45.5,10.1L33.7,10.4L16.4,10.4L10.4,10.5L10.0,10.6L9.6,11.0L9.9,37.2L9.8,39.8L10.0,45.5L9.9,48.1L10.1,50.4L10.3,90.8L10.5,99.0L10.4,103.6L10.6,105.9L10.5,108.8L10.7,118.4L11.2,118.9L15.4,118.9L20.3,118.7L46.3,118.7L53.6,118.5L69.1,118.6L70.5,118.4L75.1,118.5L85.6,118.4L90.5,118.4L94.9,118.3L117.6,118.3L118.4,118.0L118.6,116.0L118.4,112.2L118.4,84.9L118.3,77.5L118.4,72.1L118.2,70.3L118.2,52.1L117.9,23.7L118.0,19.5L117.8,14.7L117.9,9.7Z M104.8,69.5L104.4,70.9L103.8,72.2L101.9,75.2L98.1,79.0L97.0,79.6L96.7,80.0L93.1,81.7L90.8,82.3L88.1,82.7L84.1,82.8L73.4,82.8L67.4,83.0L65.4,82.9L61.8,83.1L41.2,83.2L39.1,82.8L36.1,82.1L33.9,81.0L31.1,79.2L29.4,77.8L27.2,75.4L27.0,74.8L26.6,74.4L26.2,73.5L25.9,73.3L24.8,70.8L25.0,70.4L26.0,72.1L27.0,73.5L30.4,77.0L30.7,77.1L31.3,77.7L32.7,78.6L34.8,79.7L35.1,79.7L36.7,80.5L38.2,80.7L38.8,81.0L42.9,81.5L51.8,81.3L65.5,81.3L75.2,81.0L85.4,81.0L87.1,80.7L89.1,80.7L92.0,80.2L94.2,79.4L96.1,78.5L96.4,78.2L97.1,77.9L97.5,77.6L98.3,77.1L100.4,75.2L102.5,72.7L103.8,70.8L104.4,69.5Z M18.3,68.4L18.6,67.6L18.8,68.6L18.8,69.7L19.5,72.7L20.5,75.8L21.4,77.5L21.4,77.8L21.2,78.2L19.6,78.3L19.2,78.5L19.3,79.0L22.0,79.2L22.7,79.8L22.8,80.1L22.4,80.6L19.6,80.7L19.3,81.0L19.6,81.4L20.1,81.5L23.5,81.4L24.1,81.6L24.6,82.1L24.6,82.5L24.3,82.8L19.6,82.9L19.3,83.2L19.3,83.5L19.5,83.6L25.7,83.7L26.7,84.2L27.0,84.7L27.0,85.0L26.6,85.1L19.6,85.2L19.4,85.3L19.3,85.8L19.9,86.0L28.7,86.0L29.4,86.3L30.3,87.0L30.2,87.3L29.9,87.4L19.9,87.5L19.3,87.7L19.2,88.0L19.6,88.3L32.4,88.2L33.9,88.7L35.0,89.3L34.9,89.5L34.6,89.6L22.4,89.8L20.3,89.7L19.7,89.8L19.4,90.1L19.5,90.5L19.8,90.6L39.6,90.4L69.1,90.4L77.5,90.2L80.0,90.3L82.3,90.1L84.9,90.2L110.2,89.9L110.4,89.7L110.3,89.3L95.7,89.3L95.0,89.2L94.7,88.9L95.5,88.3L97.2,87.8L109.7,87.7L110.4,87.5L110.4,87.1L110.2,86.9L99.9,86.9L99.5,86.6L99.5,86.4L100.4,85.6L100.9,85.4L109.8,85.3L110.4,85.1L110.4,84.8L110.0,84.6L102.6,84.6L102.3,84.3L102.3,84.0L103.2,83.3L103.7,83.1L109.9,83.0L110.4,82.8L110.4,82.3L110.2,82.2L105.2,82.2L104.8,82.0L104.8,81.7L105.4,81.0L105.9,80.7L110.1,80.7L110.5,80.4L110.4,80.0L110.1,79.9L106.9,79.9L106.7,79.2L107.7,78.4L110.0,78.4L110.5,78.0L110.4,77.7L108.4,77.5L108.2,77.1L109.6,73.8L110.5,70.5L110.6,69.1L110.7,68.9L111.0,68.9L111.2,77.9L111.1,86.4L111.2,89.9L111.2,111.1L110.8,111.4L77.4,111.3L59.4,111.4L56.2,111.6L50.4,111.5L46.1,111.7L33.6,111.8L19.3,111.7L18.7,111.1L18.6,110.7L18.5,107.7Z M92.0,67.4L91.8,67.7L90.9,68.0L86.9,68.6L65.4,68.8L64.9,68.2L64.9,67.8L65.3,67.5L71.3,67.5L75.5,67.3Z M105.2,63.3L104.7,65.5L104.4,65.9L104.1,66.9L103.2,68.4L103.1,68.8L102.2,70.2L101.0,71.5L98.1,74.3L95.8,75.8L94.9,76.1L94.1,76.5L92.8,76.9L92.2,77.3L88.1,78.0L53.6,78.4L42.8,78.4L39.8,78.2L35.7,77.1L34.8,76.5L33.7,76.2L31.7,74.9L29.8,73.3L27.1,70.5L25.6,67.9L25.7,67.6L25.9,67.6L27.9,70.0L30.7,72.7L32.6,73.9L35.7,75.5L36.5,75.6L37.6,76.1L40.5,76.6L53.3,76.6L63.0,76.3L82.1,76.3L87.5,76.1L88.3,75.9L90.2,75.8L92.5,75.2L95.8,73.7L98.0,72.3L98.8,71.5L99.2,71.3L102.4,67.9L103.4,66.4L103.9,65.2L104.6,64.1L104.7,63.6Z M34.2,63.0L34.4,63.5L34.2,64.4L34.0,64.8L32.8,66.1L32.4,66.2L31.8,65.8L31.8,65.2L33.8,63.1Z M103.8,62.0L103.8,62.3L103.4,62.8L103.4,63.1L102.6,64.6L101.1,66.4L98.1,69.3L96.6,70.5L94.3,71.8L92.7,72.4L90.3,73.1L87.5,73.2L86.3,73.4L73.4,73.4L68.7,73.6L62.8,73.5L61.7,73.7L58.0,73.6L49.4,73.9L39.9,73.7L39.5,73.5L36.8,73.0L33.9,71.9L30.0,69.2L27.3,66.3L26.0,64.5L25.1,62.4L25.2,62.0L25.5,62.1L26.0,63.2L27.7,65.2L30.1,67.6L33.1,69.7L35.3,70.5L35.7,70.8L36.5,71.0L37.2,71.4L38.4,71.5L39.2,71.8L40.4,71.8L42.1,72.0L47.3,72.0L58.9,71.8L62.8,71.9L69.5,71.7L81.6,71.7L85.7,71.6L86.8,71.4L89.5,71.3L89.9,71.1L91.4,70.9L93.5,70.1L93.8,70.1L94.1,69.8L95.9,69.1L97.9,67.9L99.0,67.0L99.6,66.7L101.7,64.5L102.8,62.8L103.3,62.3L103.3,62.1L103.5,61.9Z M34.2,59.6L34.3,59.8L34.3,60.9L33.4,62.2L31.3,64.5L30.8,64.7L30.1,64.6L29.9,64.3L29.9,63.8L33.5,59.9L33.9,59.6Z M34.1,56.4L34.3,56.8L34.3,57.5L33.9,58.3L29.7,62.8L29.1,63.2L28.4,63.0L28.3,62.8L28.3,62.1L29.2,61.0L33.5,56.6Z M104.1,56.1L104.1,56.6L103.1,58.9L101.0,61.8L98.4,64.4L95.7,66.2L94.5,66.5L94.3,66.3L94.4,65.9L101.0,59.1L102.8,57.1L103.0,56.7L103.6,56.1Z M18.4,54.7L18.2,55.5L18.1,54.9L18.2,54.7Z M34.1,53.1L34.3,53.4L34.2,54.3L33.8,55.0L30.9,58.3L27.6,61.5L27.3,61.5L26.9,61.0L26.8,60.5L27.4,59.6L33.4,53.2Z M105.5,52.0L105.0,53.6L103.9,54.6L103.1,55.7L101.9,56.8L101.0,57.8L99.8,58.9L98.8,60.3L94.7,64.5L94.0,64.5L93.6,64.1L87.6,64.0L68.3,64.3L65.2,64.2L64.8,63.7L64.9,62.9L65.5,62.5L93.2,62.2L93.8,62.5L94.3,62.5L94.7,62.3L96.0,61.0L96.2,60.6L97.8,59.1L99.4,57.2L105.1,51.5L105.4,51.5Z M38.2,48.4L38.6,48.5L38.7,48.8L38.7,57.1L39.0,66.3L38.8,67.1L38.9,68.2L38.6,68.6L38.0,68.5L37.3,67.9L37.2,67.4L37.1,59.0L37.1,49.6L37.1,49.3Z M60.8,47.8L61.3,47.9L61.7,48.3L62.1,49.3L62.3,68.0L61.8,68.8L61.1,68.8L60.6,68.3L60.4,48.4Z M43.0,43.3L43.3,43.6L43.4,44.7L43.3,46.2L43.7,68.5L43.2,69.1L42.6,69.1L42.2,69.1L41.7,68.4L41.7,63.6L41.5,61.3L41.6,55.8L41.5,45.3L41.8,44.3L42.7,43.4Z M56.2,42.9L57.0,43.6L57.4,44.3L57.5,46.4L57.5,56.2L57.6,57.8L57.5,63.3L57.7,64.7L57.7,68.3L57.4,68.9L56.2,68.8L55.9,68.4L55.8,67.6L55.8,56.6L55.5,49.2L55.5,44.2L55.7,43.0Z M111.0,39.2L111.0,44.6L110.8,45.1L110.1,44.9L108.9,45.9L108.6,46.4L105.7,49.3L104.5,50.8L101.9,53.4L100.2,55.4L94.5,61.2L94.2,61.2L94.0,61.0L93.8,59.7L93.4,59.3L77.6,59.3L65.8,59.5L65.2,59.4L64.8,59.1L64.8,58.5L65.1,58.0L67.8,57.8L85.4,57.8L88.7,57.6L89.8,57.8L91.1,57.8L92.0,57.6L93.4,57.6L93.8,57.2L94.0,56.3L94.6,55.5L98.9,51.1L99.9,49.8L110.5,38.9L110.9,39.0Z M51.2,38.6L51.6,38.6L52.6,39.6L52.8,40.1L52.8,46.8L53.0,49.6L52.9,52.9L53.1,53.9L53.2,68.4L52.6,69.0L51.8,69.0L51.4,68.6L51.2,67.0L51.2,57.8L50.9,49.7L50.9,38.9Z M47.9,38.4L48.1,38.6L48.2,43.2L48.1,54.8L48.4,62.6L48.4,68.1L48.3,68.6L47.9,69.0L47.3,69.1L46.7,68.6L46.5,68.1L46.3,53.1L46.4,44.8L46.2,42.9L46.2,40.1L46.5,39.4L47.4,38.5Z M43.0,17.9L43.0,18.3L41.6,19.9L36.4,25.3L33.0,29.1L26.1,36.3L25.7,36.9L18.4,44.5L18.2,44.5L17.9,44.1L17.9,42.0L18.2,41.6L18.3,41.8L19.0,41.7L21.7,39.0L22.2,38.4L23.3,37.3L40.7,18.6L40.6,18.2L40.1,18.2L39.0,19.2L38.1,20.4L33.2,25.4L30.4,28.4L30.1,28.9L28.5,30.4L27.2,31.9L26.1,32.9L24.8,34.5L23.6,35.7L23.5,35.9L22.1,37.5L18.3,41.4L17.9,41.3L17.8,40.9L17.9,39.0L18.3,38.6L18.9,38.6L20.7,36.8L21.5,35.7L25.5,31.7L27.0,29.9L32.8,24.0L34.4,21.9L37.3,18.9L37.3,18.5L36.7,18.5L36.0,19.1L29.9,25.6L28.3,27.5L21.5,34.5L21.1,35.3L19.5,36.8L18.3,38.2L18.1,38.2L17.9,38.0L17.8,36.9L17.6,25.0L17.7,18.2L18.5,17.6L24.4,17.6L27.9,17.4L42.1,17.5Z M110.8,17.7L111.0,18.2L111.1,26.9L110.9,32.5L111.0,37.8L110.6,38.3L109.9,38.3L108.5,39.7L105.0,43.6L100.0,48.6L99.8,48.9L98.0,50.8L96.5,52.6L94.2,54.7L93.7,54.9L91.9,55.0L84.5,54.9L66.2,55.1L65.3,55.0L64.8,54.6L64.9,53.7L65.2,53.4L65.8,53.2L77.8,53.2L84.9,53.1L89.7,53.1L93.7,53.0L94.7,52.1L99.6,46.8L103.6,42.8L103.7,42.5L109.7,36.3L109.7,35.7L109.1,35.8L94.6,51.1L94.1,51.2L93.7,50.5L93.7,50.0L94.2,49.1L100.8,42.4L101.0,42.0L102.6,40.4L103.0,39.9L103.9,39.0L105.9,36.8L107.5,35.3L109.0,33.6L108.8,33.2L108.4,33.2L107.9,33.7L100.1,41.8L96.7,45.7L93.2,49.0L92.7,49.2L92.3,49.1L92.0,48.8L92.0,48.3L93.0,47.0L93.9,46.1L95.1,44.8L96.0,44.1L100.4,39.4L100.8,38.8L102.2,37.5L102.5,37.0L107.3,32.2L108.0,31.3L107.9,30.9L107.3,30.9L102.2,36.5L100.3,38.3L99.7,39.0L98.2,40.4L94.8,44.3L91.3,47.6L90.7,47.5L90.4,47.3L90.3,46.9L90.7,46.1L105.6,30.5L106.7,29.2L106.7,28.8L106.2,28.8L98.5,37.0L94.6,40.9L90.2,45.7L89.7,45.9L89.2,45.9L88.8,45.7L88.7,45.1L89.1,44.5L105.2,27.6L105.4,27.1L105.3,27.0L104.9,27.0L104.5,27.1L101.2,30.5L101.0,31.0L97.7,34.5L95.3,36.8L95.1,37.2L93.5,38.7L93.1,39.3L91.8,40.5L89.6,43.0L88.1,44.3L87.6,44.3L87.2,44.0L87.1,43.5L88.0,42.2L89.6,40.7L92.2,37.8L98.3,31.5L98.8,30.9L100.6,29.1L100.9,28.6L103.9,25.5L103.8,25.2L103.3,25.2L98.5,30.0L94.1,34.9L86.6,42.6L86.1,42.7L85.5,42.2L85.6,41.5L101.5,24.7L102.1,24.0L102.0,23.6L101.6,23.6L95.2,30.1L90.8,35.1L88.1,37.6L85.3,40.6L84.8,41.1L84.3,41.1L83.9,40.7L83.8,40.1L85.0,38.7L91.7,31.8L92.3,31.0L99.8,23.2L100.4,22.4L100.4,22.1L99.9,22.1L91.2,31.0L89.9,32.7L83.3,39.4L82.7,39.5L82.2,39.1L82.2,38.4L83.7,36.6L90.4,29.9L91.6,28.4L98.3,21.4L98.4,21.1L98.2,20.9L97.8,20.9L82.0,37.5L81.5,37.8L81.0,37.8L80.7,37.4L80.6,36.8L86.9,30.1L90.6,26.0L94.3,22.4L94.7,21.8L96.0,20.5L96.1,19.8L95.5,19.8L94.9,20.4L93.1,22.5L90.8,24.8L90.4,25.4L86.3,29.5L85.8,30.2L80.9,35.3L79.9,36.2L79.5,36.3L78.9,35.7L79.0,35.2L79.6,34.3L93.7,19.6L93.7,18.9L93.3,18.9L92.6,19.5L87.9,24.7L83.9,28.6L78.0,35.0L77.0,35.3L76.3,35.2L76.2,35.0L76.2,34.7L80.4,30.3L81.5,28.9L88.5,21.7L90.0,19.9L91.2,18.7L91.2,18.3L90.7,18.3L83.0,26.3L82.4,27.0L80.1,29.3L74.9,35.1L75.0,35.8L75.6,36.5L85.4,46.1L89.0,49.9L88.9,50.2L88.6,50.3L87.6,50.3L86.7,49.9L72.5,35.7L72.5,35.3L72.8,34.8L78.8,28.6L79.7,27.4L82.2,25.0L82.8,24.2L86.9,20.0L88.4,18.3L88.5,17.9L88.2,17.8L87.8,17.9L84.1,21.7L83.6,22.6L79.2,26.9L72.1,34.5L71.1,35.3L70.1,35.4L69.7,35.2L69.8,34.7L75.6,28.6L75.7,28.4L76.5,27.6L77.1,26.9L82.8,21.1L85.2,18.3L85.3,18.0L85.2,17.8L84.8,17.8L84.4,18.0L79.1,23.9L74.0,29.0L68.5,35.1L68.5,35.7L77.8,45.0L79.1,46.1L82.6,49.8L82.6,50.1L82.4,50.2L80.9,50.3L80.4,50.0L72.3,41.8L71.1,40.8L68.0,37.6L67.1,36.9L66.2,35.7L66.2,35.2L67.1,34.2L70.6,30.6L71.4,29.6L72.5,28.5L75.4,25.3L77.4,23.4L81.9,18.6L82.1,18.2L82.0,17.8L81.3,18.0L79.2,20.0L79.0,20.5L75.4,24.4L73.4,26.4L72.9,27.0L71.7,28.2L65.2,35.0L64.7,35.4L63.4,35.5L63.3,35.3L63.3,34.8L67.9,30.1L73.9,23.5L76.9,20.6L78.9,18.3L78.8,17.9L78.2,17.9L71.9,24.8L64.7,32.2L62.0,35.2L62.0,35.8L65.5,39.6L67.1,41.0L71.8,45.7L72.0,46.1L75.8,49.8L75.9,50.2L75.7,50.3L74.4,50.3L73.4,49.9L69.6,45.9L65.5,42.0L59.6,36.0L59.6,35.5L60.8,34.1L64.7,30.2L66.4,28.3L66.6,27.9L68.0,26.6L69.1,25.3L74.4,19.8L75.6,18.4L75.7,17.9L75.0,17.9L73.3,19.7L69.9,23.5L69.1,24.2L68.8,24.7L64.7,28.7L63.5,30.2L59.1,34.8L58.1,35.5L57.3,35.4L57.1,35.2L57.2,34.6L59.8,32.0L65.7,25.5L66.9,24.4L72.4,18.5L72.4,17.9L72.0,17.9L68.3,21.6L67.2,23.0L60.5,29.9L60.0,30.6L59.0,31.4L58.5,32.2L56.3,34.3L55.6,35.4L55.9,36.2L68.9,48.9L69.5,49.9L69.4,50.3L68.2,50.4L67.4,50.1L54.1,37.0L53.2,35.9L53.2,35.7L53.8,34.8L59.4,29.1L60.2,28.1L66.2,21.7L68.3,19.7L69.2,18.5L69.4,18.0L68.8,17.9L68.3,18.3L67.0,19.8L64.6,22.3L62.2,24.9L60.7,26.3L60.0,27.2L58.7,28.4L52.6,35.0L52.0,35.4L51.4,35.6L51.0,35.6L50.7,35.3L50.7,34.9L51.7,33.8L56.0,29.2L57.1,27.9L60.4,24.3L64.5,20.4L66.2,18.3L66.2,18.0L65.5,18.0L63.6,19.8L62.4,21.3L61.3,22.4L59.5,24.4L57.1,26.8L57.0,27.0L49.6,34.9L45.9,38.6L41.8,43.1L37.8,47.2L36.8,48.5L31.1,54.5L29.4,56.5L28.4,57.5L27.5,58.6L26.3,59.5L25.9,59.4L25.6,59.1L25.5,58.4L26.1,57.6L29.2,54.5L31.3,51.9L35.9,47.3L38.3,44.5L43.3,39.4L47.5,34.7L51.1,31.2L54.9,27.0L55.0,26.8L56.9,24.7L59.4,22.3L63.0,18.4L63.0,18.0L62.4,18.0L61.6,18.6L61.4,19.0L58.5,22.0L57.2,23.6L52.8,28.0L51.7,29.4L50.5,30.4L48.6,32.7L43.0,38.5L41.6,40.0L36.3,45.5L35.3,46.8L34.4,47.5L32.0,50.3L26.4,56.1L26.2,56.5L25.3,57.3L24.9,57.3L24.4,56.7L24.4,56.3L25.1,55.5L34.2,45.8L36.6,43.0L42.3,37.1L43.3,35.8L45.6,33.6L47.3,31.5L50.0,29.0L53.1,25.4L59.4,19.1L59.9,18.3L59.7,18.1L59.1,18.1L57.5,19.6L51.7,26.0L48.3,29.4L45.5,32.7L42.5,35.6L36.4,42.3L35.3,43.2L34.9,43.8L32.8,45.9L31.6,47.3L24.8,54.6L24.3,54.8L24.1,54.8L23.7,54.4L23.7,53.9L24.3,52.9L33.1,43.5L34.2,42.1L39.1,37.1L41.5,34.3L48.2,27.5L50.1,25.3L56.6,18.5L56.6,18.1L56.2,17.9L55.9,18.1L54.8,19.1L51.0,23.4L44.4,30.2L42.1,32.8L38.2,36.8L36.3,39.0L31.4,44.0L25.4,50.7L22.9,53.0L23.0,56.2L22.8,57.0L22.8,58.2L23.1,59.9L23.1,61.2L22.9,61.8L22.9,62.4L23.1,63.3L23.1,64.3L23.4,65.4L23.3,66.2L23.1,66.5L23.1,68.6L23.8,71.3L23.8,71.8L24.3,73.1L24.5,73.9L25.6,76.2L26.7,77.8L27.6,78.8L27.9,79.3L29.9,81.3L31.6,82.6L35.1,84.6L38.7,85.7L40.7,86.0L41.9,86.0L42.7,86.2L80.3,85.7L84.1,85.8L89.1,85.5L91.8,85.0L93.8,84.2L94.4,83.8L94.7,83.8L96.0,83.2L98.1,81.9L101.0,79.4L101.2,78.9L102.4,77.7L102.8,76.8L103.2,76.4L104.8,73.4L104.9,72.6L105.4,71.8L105.4,71.0L105.9,69.6L106.2,67.6L106.1,66.8L105.5,66.2L105.6,65.0L105.9,64.5L106.1,62.9L106.1,61.7L105.5,61.2L105.9,59.5L106.0,58.2L106.2,57.8L106.2,57.2L105.7,56.3L106.0,54.1L106.0,52.9L106.2,52.2L106.1,50.4L106.3,49.9L110.8,45.3L111.0,45.5L110.9,49.7L110.4,49.7L110.3,49.5L110.6,48.7L110.4,48.5L109.9,48.5L108.1,49.9L107.9,50.6L108.1,56.9L108.1,67.6L107.9,69.5L107.6,70.3L107.4,71.5L106.4,74.4L104.2,78.3L101.6,81.3L98.8,83.6L96.3,85.1L95.5,85.3L94.6,85.9L94.0,86.0L92.2,86.7L88.6,87.4L73.7,87.7L69.1,87.6L44.2,87.9L39.9,87.8L36.3,87.0L32.7,85.4L31.4,84.5L30.2,83.8L27.8,81.8L24.7,78.0L24.1,76.8L23.6,76.1L23.5,75.6L22.6,73.8L21.8,71.0L21.5,70.5L21.3,65.8L21.3,53.0L21.7,52.3L24.1,49.7L27.5,46.2L33.5,39.6L34.2,39.1L40.2,32.4L43.6,29.1L43.9,28.6L48.4,23.8L53.2,18.8L53.4,18.1L52.9,18.0L52.1,18.6L50.7,20.3L44.4,26.9L42.6,28.9L40.7,30.8L39.8,32.0L36.3,35.5L31.3,41.0L28.0,44.4L22.6,50.2L20.7,52.1L20.2,52.4L18.9,52.6L18.2,53.5L18.0,52.8L18.1,51.6L17.9,50.2L17.9,48.8L18.1,48.4L17.9,47.5L17.9,45.8L18.2,45.3L18.8,45.2L22.8,41.2L23.3,40.5L29.9,33.7L32.1,31.1L37.1,26.0L41.2,21.4L42.5,20.2L43.9,18.6L44.3,18.0L46.0,17.5L47.2,17.4L67.2,17.4L84.5,17.1L91.3,17.2L98.9,17.0L109.3,17.1L110.3,17.3Z" fill="#000" fill-rule="evenodd"/>
</svg>