<svg xmlns="http://www.w3.org/2000/svg" viewBox="0 0 128 128" width="128" height="128">
  <path d="M63.3,57.7L62.1,58.3L61.0,59.0L60.1,60.0L59.3,61.0L58.7,62.3L58.4,63.7L58.4,65.2L58.6,66.7L59.8,68.9L61.0,70.2L62.2,70.9L63.9,71.6L66.0,71.7L67.2,71.5L68.6,71.0L69.8,70.1L70.7,69.2L71.4,68.2L72.1,66.9L72.4,65.3L72.4,64.1L72.1,62.4L71.5,61.1L70.9,60.2L70.0,59.2L68.7,58.3L66.5,57.5L64.2,57.5Z M65.3,62.5L66.6,62.7L67.2,63.4L67.5,64.1L67.5,65.0L67.0,66.0L66.4,66.6L65.5,66.9L64.2,66.4L63.6,65.9L63.2,65.1L63.2,64.1L63.7,63.2L64.4,62.7Z M18.5,12.8L16.9,14.6L16.4,15.6L15.8,16.2L15.7,16.7L15.4,17.0L14.9,18.1L13.3,22.4L13.2,23.4L12.9,24.5L12.6,26.2L12.6,30.3L12.9,32.9L13.3,34.3L13.3,34.8L14.1,36.8L14.3,37.6L15.8,40.5L18.7,44.4L20.3,46.0L23.5,49.3L24.2,49.7L25.6,51.2L29.0,53.9L29.7,54.7L30.6,55.0L35.8,58.4L36.8,58.8L39.9,60.6L40.4,60.7L42.3,61.7L45.9,63.1L47.9,63.7L48.8,64.2L49.6,64.3L51.7,65.0L52.3,65.5L52.4,66.3L52.3,66.9L50.9,68.2L50.4,68.7L48.9,69.4L48.0,70.0L37.5,74.2L35.3,75.2L34.7,75.7L34.1,75.7L31.0,77.3L30.5,77.6L29.5,78.1L27.5,79.2L24.5,81.5L21.4,84.1L19.3,86.2L17.7,88.2L16.0,90.9L14.9,93.3L14.3,94.9L13.9,96.6L13.7,98.4L13.3,99.8L13.2,101.1L13.2,103.5L13.5,106.2L14.5,109.6L15.8,112.2L18.0,114.8L19.1,115.7L21.6,117.3L22.9,117.8L23.9,118.0L24.5,118.3L28.0,119.0L31.9,118.9L34.6,118.3L37.7,117.1L40.8,115.6L45.0,112.8L47.7,110.3L50.8,106.9L53.7,103.3L55.6,100.6L56.0,99.6L57.5,97.5L59.2,94.1L59.7,92.8L60.0,92.4L60.4,91.2L62.1,87.5L62.7,85.4L63.6,84.0L65.2,79.7L66.2,78.1L66.9,77.6L67.3,77.7L68.7,79.3L70.1,82.1L70.2,82.7L71.2,84.8L72.3,88.5L73.0,90.3L73.1,90.9L73.9,93.2L75.0,95.7L76.0,98.3L77.0,100.2L81.4,106.8L83.6,109.4L87.0,112.5L87.2,112.6L88.8,114.0L91.9,115.8L96.2,117.4L99.2,117.8L101.2,117.7L104.6,116.9L105.2,116.6L107.0,115.8L107.3,115.6L108.8,114.8L110.4,113.6L112.2,111.4L114.3,107.2L114.8,105.3L114.9,103.5L115.1,102.7L115.1,98.8L114.5,95.3L113.3,91.8L112.5,89.8L111.6,88.3L111.4,87.7L110.5,86.0L109.0,83.6L107.0,81.2L107.0,80.9L104.4,78.3L104.2,78.2L101.2,75.7L100.7,75.4L97.9,73.2L92.6,70.3L88.2,68.1L84.2,66.5L83.2,65.8L82.1,65.3L80.2,64.0L79.5,63.1L79.4,62.5L80.1,61.7L82.0,60.3L84.0,59.5L85.3,58.7L87.2,58.1L88.0,57.6L89.6,57.1L90.9,56.3L91.6,56.1L91.9,55.8L92.6,55.6L92.9,55.3L94.3,54.7L95.7,53.8L97.0,53.1L98.9,51.8L100.2,51.1L104.6,47.7L106.9,45.7L108.0,44.5L111.4,40.1L113.9,35.8L115.2,32.2L115.7,27.9L115.7,25.0L115.0,21.9L114.5,20.8L114.3,20.0L113.5,18.8L113.4,18.4L111.5,16.1L109.0,14.0L108.2,13.4L107.7,13.2L107.1,12.8L105.7,12.3L105.1,12.2L104.4,11.8L101.6,11.3L98.6,11.4L96.2,11.6L93.1,12.4L93.0,12.6L91.9,12.9L89.7,13.9L89.4,14.2L87.8,14.9L85.9,16.1L82.9,18.5L80.0,21.4L77.0,24.5L76.1,25.7L75.6,26.7L74.1,28.5L73.1,30.5L72.8,30.7L70.0,36.6L68.3,41.2L68.0,42.7L67.6,43.8L67.5,44.5L66.1,47.9L65.3,49.2L64.4,50.1L63.7,50.3L62.9,49.9L62.0,49.0L60.5,46.0L60.1,45.5L59.6,44.1L59.2,43.4L59.1,42.8L58.6,42.1L58.1,40.7L57.3,39.2L57.2,38.7L56.7,38.0L54.7,32.9L53.1,30.0L53.1,29.5L52.3,28.4L52.2,27.8L51.7,27.1L51.2,25.8L50.5,24.9L50.0,23.6L47.2,19.9L45.7,18.2L45.2,17.4L43.3,15.4L41.1,13.5L38.4,12.0L36.0,11.0L35.1,10.8L34.4,10.5L33.4,10.3L32.6,9.9L31.6,9.8L29.5,9.3L26.3,9.3L23.6,9.8L21.9,10.4L20.8,11.0Z M57.4,73.4L59.7,75.6L60.2,77.4L59.8,78.4L59.7,79.9L59.0,80.9L59.0,81.8L58.5,83.0L58.4,84.5L57.7,85.6L57.6,87.1L56.8,88.6L56.6,90.0L55.7,91.3L55.2,92.8L54.7,93.7L54.4,94.7L53.2,96.4L52.8,97.5L52.3,98.2L51.3,100.0L49.4,101.9L48.8,103.3L48.1,104.0L47.6,105.0L45.4,107.1L43.8,108.3L43.4,108.3L43.6,107.7L44.7,106.2L48.2,100.6L48.8,99.2L50.3,96.5L52.0,92.6L53.0,90.0L53.2,88.8L53.6,88.1L54.6,84.8L54.7,84.1L55.0,83.3L55.2,82.1L55.6,81.0L55.7,79.3L56.0,78.6L56.3,76.4L56.5,76.0L56.6,74.0L56.9,73.5Z M74.6,72.0L75.8,70.5L76.6,69.9L77.0,69.9L77.9,70.5L79.5,70.6L80.8,71.4L82.6,71.7L83.6,72.4L84.9,72.8L86.0,73.4L87.0,73.7L88.1,74.2L89.0,74.9L90.5,75.1L91.8,76.4L93.0,76.8L93.7,77.5L94.5,77.7L95.2,78.2L95.9,79.1L96.6,79.5L97.1,79.6L98.4,80.9L98.9,81.1L100.2,82.5L101.3,83.2L106.4,88.8L106.7,89.6L106.2,89.6L103.4,87.2L101.8,85.7L100.6,84.9L98.3,83.0L97.3,82.5L96.5,81.8L95.5,81.4L93.0,79.8L90.5,78.5L88.0,77.5L87.6,77.2L83.6,75.6L81.5,74.9L81.1,74.7L78.4,74.0L77.6,73.7L76.8,73.6L75.9,73.2L74.5,73.0L74.3,72.8L74.3,72.5Z M66.4,55.7L68.5,56.3L70.4,57.3L71.5,58.2L73.0,59.9L73.6,61.0L74.1,62.7L74.1,66.2L73.6,68.0L73.1,68.9L72.3,70.1L71.1,71.4L70.4,71.7L69.5,72.4L67.6,73.1L66.5,73.4L64.2,73.5L62.4,73.1L61.6,72.6L61.1,72.5L60.3,72.1L58.4,70.4L57.3,68.8L57.1,67.8L56.8,67.3L56.5,65.2L56.5,63.9L56.7,62.3L57.7,60.1L60.0,57.6L60.9,57.0L62.7,56.2L63.6,56.1L64.7,55.7Z M22.8,40.3L23.1,40.3L23.7,40.8L24.7,41.8L28.1,44.6L29.2,45.3L32.7,47.8L33.9,48.4L34.8,49.1L35.7,49.5L37.4,50.5L39.5,51.6L40.0,51.7L40.6,52.2L42.8,53.2L44.4,53.8L44.9,54.1L47.2,54.8L49.5,55.7L52.0,56.2L52.8,56.6L54.0,56.7L54.9,57.1L55.5,57.1L55.8,57.4L55.8,57.7L54.4,59.2L54.1,59.2L52.6,59.2L52.1,59.1L50.5,59.2L49.7,58.3L48.8,58.1L47.9,58.1L46.5,57.4L44.9,57.1L43.9,56.2L43.3,55.8L41.9,55.7L40.9,54.9L39.6,54.5L38.4,53.6L36.6,52.8L35.3,51.7L33.9,51.4L32.6,50.2L31.5,49.8L30.7,48.8L29.5,48.1L28.0,46.6L27.3,46.2L25.8,44.8L25.3,43.9L22.9,41.0L22.7,40.7Z M89.9,19.4L90.2,19.8L86.7,23.9L83.2,28.8L82.1,30.6L78.7,37.4L78.4,38.3L77.6,39.9L75.7,45.7L74.2,51.2L73.9,53.2L73.7,53.6L73.6,54.6L73.3,55.0L72.9,55.0L70.6,53.1L70.4,52.6L70.4,52.3L71.1,51.1L70.8,49.7L71.1,48.9L72.0,47.7L72.0,46.4L72.9,44.8L73.2,43.4L73.6,42.8L74.1,41.0L74.6,40.1L74.7,39.2L75.5,38.2L75.7,37.4L76.9,35.6L77.2,34.7L78.0,33.6L78.3,32.5L79.1,31.7L79.2,31.3L79.5,30.8L79.7,30.3L80.7,29.2L81.1,28.0L83.2,26.0L84.5,24.1L85.8,22.8L86.6,22.3L88.5,20.4Z" fill="#000" fill-rule="evenodd"/>
</svg>