<svg xmlns="http://www.w3.org/2000/svg" viewBox="0 0 128 128" width="128" height="128">
  <path d="M118.8,31.0L118.4,30.7L117.6,30.4L113.2,30.4L111.7,30.6L108.5,30.6L106.4,30.8L103.6,30.7L103.2,30.4L102.8,29.5L98.8,16.8L98.0,15.8L97.6,15.7L97.0,15.7L96.4,16.0L95.7,17.0L93.4,25.0L93.3,25.7L92.6,27.7L92.1,29.8L91.6,30.8L91.0,31.2L77.2,31.9L76.6,32.0L75.9,32.3L75.4,33.2L75.7,34.4L76.6,35.4L79.6,37.4L81.2,38.7L81.6,38.9L83.1,40.2L86.6,42.6L87.8,43.8L87.8,44.7L87.6,45.3L86.9,48.3L84.5,56.9L84.1,57.7L81.7,60.0L76.8,63.6L75.1,64.6L74.5,64.8L74.0,65.2L73.0,65.7L70.0,66.7L67.5,67.1L65.7,67.0L64.4,66.7L63.3,66.2L62.4,65.6L61.5,64.6L61.0,63.8L60.6,62.7L60.5,60.3L61.1,57.3L61.6,55.8L62.4,53.9L62.9,51.7L63.8,49.4L64.3,48.0L64.6,47.4L65.3,45.3L65.3,45.0L65.6,44.3L66.2,42.4L67.3,39.8L67.7,38.1L68.8,35.6L70.5,30.3L70.9,29.3L71.9,25.5L71.9,23.3L71.5,22.0L70.8,20.9L69.2,19.5L68.1,19.0L66.6,18.4L64.4,18.2L56.4,18.2L53.7,18.5L49.9,18.6L44.2,19.0L41.4,19.0L38.9,19.4L32.0,19.6L31.3,19.8L27.9,19.9L25.8,20.2L22.0,20.2L19.9,21.0L19.3,21.8L18.9,22.8L18.9,24.1L19.7,25.7L22.3,29.1L24.9,32.2L26.1,34.0L27.4,35.4L29.0,37.6L29.7,38.3L30.4,39.4L31.1,40.1L32.8,42.4L34.0,43.7L34.4,44.3L38.4,49.2L40.2,51.8L40.8,53.8L40.6,55.6L39.8,57.0L39.1,57.8L37.7,58.8L37.3,58.9L30.6,58.9L28.8,58.6L27.5,58.6L26.7,58.4L24.0,58.3L22.8,58.0L20.1,57.9L19.1,57.7L17.1,57.7L14.4,58.3L12.6,59.2L11.0,60.6L10.0,62.1L9.4,64.0L9.2,65.5L9.3,67.7L10.8,73.2L11.1,73.8L11.4,74.9L12.0,76.7L12.2,76.8L12.9,79.4L13.8,81.5L14.3,83.5L15.5,86.2L16.2,88.7L17.9,92.9L18.6,95.2L19.9,98.7L21.9,104.6L22.3,105.1L22.5,106.1L23.4,107.9L23.7,108.8L25.0,111.6L25.4,111.9L26.8,112.5L27.6,112.6L29.0,111.9L30.0,110.8L31.0,108.4L31.3,107.3L31.8,106.5L32.1,105.2L32.6,104.2L32.7,103.7L33.5,102.1L33.5,101.9L34.5,99.5L34.7,99.2L35.1,97.9L36.4,95.1L36.6,94.0L37.3,92.6L37.4,92.0L37.7,91.5L38.1,90.1L39.3,87.2L39.6,86.8L39.8,85.9L40.5,84.4L41.1,82.6L41.8,81.2L43.2,79.2L44.5,78.6L45.0,78.6L45.9,78.3L47.3,78.6L48.3,79.1L49.4,80.2L49.8,81.1L50.3,81.6L51.2,83.7L51.7,84.5L51.9,85.1L52.7,86.5L52.7,86.8L53.9,89.3L54.3,90.6L54.7,91.1L55.3,92.6L56.4,94.9L56.7,95.7L57.8,98.0L58.1,99.0L59.3,101.5L59.4,102.0L60.6,104.5L61.1,105.9L63.1,109.7L65.0,111.4L66.4,112.1L67.3,112.2L69.0,112.2L70.5,112.1L72.0,111.6L73.0,111.1L75.0,109.1L76.2,106.9L76.3,106.4L77.0,105.0L77.5,103.2L78.0,102.0L78.2,101.0L79.5,96.3L79.5,96.0L79.8,95.4L80.2,93.7L80.4,93.1L80.5,92.2L81.0,90.6L81.1,89.9L81.8,87.4L83.0,81.5L83.2,81.2L83.6,78.3L84.0,77.2L84.6,72.9L85.0,71.6L85.7,67.0L86.1,65.4L86.6,61.2L86.9,60.4L87.3,57.9L89.8,55.7L91.4,54.6L95.1,51.5L96.7,50.5L97.3,50.5L98.7,51.3L101.6,53.6L102.7,54.3L103.4,54.9L105.1,56.0L106.0,56.8L106.7,57.1L108.1,58.3L109.7,59.0L110.9,59.0L111.6,58.2L111.5,56.9L111.1,55.2L110.8,54.8L110.4,53.4L110.3,52.7L109.3,50.2L108.7,47.8L108.5,47.4L107.8,44.8L107.3,43.4L107.2,42.1L108.6,40.7L111.3,38.7L114.3,36.1L115.3,35.5L118.1,33.2L118.8,32.3L119.0,31.7Z M24.4,74.8L24.6,74.9L24.4,75.2L24.3,75.0Z M47.2,59.5L48.4,59.3L50.3,59.3L51.0,59.5L53.1,60.4L54.9,62.2L55.6,63.4L56.1,64.7L56.1,67.5L55.8,68.8L55.1,70.1L54.2,71.1L53.0,72.2L50.9,73.2L49.9,73.4L47.1,73.2L46.0,72.8L44.7,72.0L43.9,71.2L43.2,70.3L42.6,69.1L42.1,67.8L42.1,65.5L42.6,63.5L43.0,62.9L43.2,62.4L44.0,61.5L45.2,60.4Z" fill="#000" fill-rule="evenodd"/>
</svg>