<svg xmlns="http://www.w3.org/2000/svg" viewBox="0 0 128 128" width="128" height="128">
  <path d="M57.4,9.4L54.5,10.0L52.9,10.2L50.0,11.0L48.8,11.2L48.3,11.5L48.0,11.5L46.3,12.1L45.1,12.5L44.5,12.8L43.8,13.0L43.4,13.2L41.6,13.8L38.8,15.2L38.6,15.5L37.3,16.0L36.0,16.9L35.5,17.1L34.2,18.1L32.5,19.0L30.6,20.4L28.0,22.6L26.5,24.2L24.7,25.7L24.1,26.5L23.4,27.2L20.3,31.0L19.2,32.4L18.8,33.2L18.4,33.7L17.7,34.9L17.0,35.9L16.0,37.7L16.0,37.9L15.1,39.3L15.0,39.7L14.7,40.2L14.6,40.6L14.4,40.9L14.1,41.8L13.7,42.4L13.0,44.2L12.8,45.2L12.4,45.7L11.0,50.4L10.9,51.3L10.5,52.5L10.1,55.5L9.9,55.8L9.3,62.2L9.3,66.5L9.5,67.4L9.7,71.3L10.1,72.6L10.2,74.3L10.6,75.2L10.6,75.8L11.9,81.1L12.3,81.7L12.6,83.0L13.8,85.7L14.1,86.7L16.3,91.1L19.2,95.7L20.1,96.8L20.9,97.9L22.3,99.5L22.9,100.4L26.6,104.3L30.8,107.7L31.2,107.9L32.0,108.6L34.7,110.5L36.9,111.9L37.4,112.0L38.3,112.7L39.6,113.3L40.0,113.4L41.5,114.2L41.7,114.2L42.8,114.7L43.3,115.0L44.5,115.4L47.2,116.5L48.6,116.8L49.4,117.2L54.3,118.3L54.9,118.3L56.7,118.7L58.4,118.8L59.5,119.0L63.5,119.2L67.4,119.1L69.1,118.8L71.3,118.7L76.4,117.8L79.4,116.9L79.7,116.9L82.6,115.9L83.2,115.6L85.6,114.7L86.4,114.2L87.3,114.0L91.5,111.8L97.1,108.1L97.9,107.3L98.7,106.8L99.5,106.0L100.4,105.4L104.2,101.6L105.7,99.8L106.2,99.3L108.1,96.9L110.5,93.4L112.9,89.2L113.4,88.0L113.8,87.5L114.0,86.6L114.6,85.6L114.8,84.7L115.2,84.0L115.3,83.5L115.6,83.2L115.7,82.3L117.0,78.8L118.0,74.1L118.1,72.8L118.4,71.5L118.5,70.1L118.8,68.1L118.9,62.3L118.7,60.1L118.6,59.5L118.4,56.5L117.4,51.0L116.9,49.2L116.5,48.5L116.5,47.9L116.1,46.9L116.0,46.3L115.7,45.9L115.6,45.1L115.3,44.7L115.1,43.8L114.4,42.3L114.3,41.8L113.1,39.7L112.5,38.1L111.8,37.0L111.2,35.8L110.8,35.4L109.1,32.5L107.6,30.7L107.1,29.9L105.9,28.5L105.8,28.3L102.7,25.0L101.7,24.2L101.0,24.1L99.8,25.0L98.5,26.5L96.6,28.4L96.3,28.9L95.4,29.9L93.3,32.2L92.8,32.8L91.6,34.1L89.2,36.9L86.0,41.6L84.2,44.7L83.1,47.0L82.7,48.1L82.4,48.6L81.9,50.0L81.5,51.8L80.9,53.4L80.8,54.2L80.4,55.3L80.3,56.5L79.9,57.3L79.6,59.8L79.3,60.9L79.3,62.2L79.1,62.9L79.1,64.4L79.1,74.7L78.6,77.3L78.2,78.8L78.2,79.4L77.8,80.0L77.4,81.3L76.9,82.3L76.8,82.7L75.3,85.3L73.3,88.0L72.0,89.4L70.6,90.6L68.7,92.0L68.6,92.0L67.4,92.8L64.5,94.2L60.6,95.3L59.7,95.4L59.3,95.6L58.3,95.6L57.5,95.7L53.4,95.6L50.6,94.9L49.8,94.9L49.1,94.6L48.3,94.4L46.7,93.6L46.0,93.5L44.2,92.3L43.8,92.2L42.3,91.1L40.7,89.7L38.6,87.5L36.4,84.6L36.3,84.1L35.5,82.8L35.4,82.3L35.0,81.7L34.5,80.4L33.8,77.8L33.7,76.8L33.4,75.5L33.2,73.1L33.3,70.7L33.7,68.0L33.9,67.3L34.2,65.9L34.6,65.2L34.7,64.6L34.9,64.2L35.1,63.6L35.9,62.0L36.4,61.3L36.4,61.0L37.4,59.4L38.5,58.0L40.0,56.3L42.5,54.2L43.8,53.5L44.7,52.7L47.0,51.6L47.2,51.6L47.4,51.4L50.1,50.4L51.4,50.3L53.8,49.7L54.9,49.7L56.2,49.5L57.6,49.5L58.2,49.3L59.7,49.3L60.1,49.1L61.4,49.1L67.1,47.9L73.8,45.7L74.3,45.3L75.0,45.1L78.7,43.2L81.1,41.8L85.5,38.8L87.6,37.1L91.1,33.8L91.3,33.5L93.6,30.9L95.8,28.6L96.4,28.1L98.4,25.5L98.9,25.1L100.1,23.5L100.1,22.9L99.3,22.0L97.0,20.1L96.2,19.6L95.4,19.0L95.0,18.8L94.6,18.4L93.4,17.8L92.3,16.9L90.7,16.1L89.3,15.2L88.0,14.6L87.1,14.3L86.4,13.9L86.0,13.8L85.5,13.4L84.8,13.4L82.6,12.4L81.2,12.1L80.1,11.6L77.5,10.8L75.6,10.5L74.8,10.2L73.8,10.1L71.1,9.5L69.6,9.5L68.9,9.3L66.6,9.1L62.5,9.1Z M59.7,18.5L61.8,18.3L66.1,18.3L70.0,18.6L73.0,19.0L76.5,19.9L77.2,20.3L78.4,20.5L78.8,20.7L79.6,20.9L79.9,21.2L80.8,21.4L81.2,21.7L83.8,22.7L84.7,23.3L85.5,24.0L85.5,24.5L84.7,25.6L82.8,27.7L80.1,30.1L77.8,31.9L73.9,34.3L72.6,34.9L72.2,35.2L71.1,35.7L69.6,36.2L69.2,36.5L67.2,37.1L66.5,37.5L66.1,37.5L63.1,38.3L61.9,38.2L60.2,38.8L58.0,39.0L57.4,39.2L53.6,39.5L49.8,40.1L45.9,41.3L44.1,42.0L43.3,42.2L41.6,43.1L40.7,43.4L40.2,43.8L39.0,44.4L37.3,45.5L33.7,48.4L32.1,50.0L31.3,51.0L30.4,51.9L28.9,54.0L27.1,56.9L26.1,58.9L26.1,59.4L25.7,60.0L25.6,60.5L25.4,60.7L24.9,62.3L24.6,62.9L24.5,63.7L24.3,64.2L24.0,65.5L23.8,66.1L23.2,70.7L23.2,74.6L23.4,76.7L23.6,77.6L23.6,78.5L23.9,79.3L24.0,80.6L24.4,81.7L24.7,82.9L26.0,86.4L27.0,88.3L28.3,90.5L28.9,91.6L30.3,93.4L32.1,95.6L34.6,97.9L37.5,100.2L39.5,101.3L40.2,101.9L41.2,102.2L42.6,103.0L43.0,103.1L44.5,103.8L48.6,105.1L50.2,105.4L55.4,105.9L57.4,105.9L61.8,105.4L66.6,104.2L67.0,103.8L68.7,103.3L69.1,103.0L69.9,102.8L70.1,102.5L70.8,102.4L71.0,102.1L73.5,100.9L75.0,99.9L77.9,97.5L81.1,94.4L83.2,91.6L85.8,87.2L86.4,85.5L86.8,85.0L87.0,84.0L87.7,82.5L87.8,81.6L88.1,81.1L88.1,80.1L88.6,78.3L88.6,77.4L89.0,75.8L89.0,71.5L88.9,68.9L89.0,65.6L89.2,62.9L89.8,59.6L90.1,58.6L90.3,57.3L91.6,53.6L92.0,53.0L92.6,51.3L92.9,50.9L94.1,48.5L94.5,48.0L95.3,46.5L95.7,46.1L96.0,45.4L98.9,41.8L101.5,39.3L102.3,39.2L103.0,40.1L104.8,43.1L105.4,44.4L105.7,45.3L106.5,46.8L106.8,48.0L107.8,50.4L108.0,51.7L108.6,53.3L109.5,58.3L109.7,60.7L109.7,66.9L109.3,71.1L109.0,72.3L108.6,75.0L108.0,76.6L107.9,77.2L107.5,78.2L107.5,78.8L106.7,80.3L105.7,83.2L103.9,86.7L101.2,90.9L100.1,92.2L99.2,93.5L96.7,96.1L96.4,96.5L92.9,99.7L90.4,101.7L89.3,102.2L88.9,102.6L87.4,103.6L85.3,104.8L84.8,105.0L84.6,105.2L83.8,105.4L80.6,107.0L78.6,107.6L77.8,108.0L71.0,109.5L69.0,109.7L68.0,109.9L63.1,110.0L62.7,109.9L59.3,109.9L56.7,109.4L55.3,109.0L54.6,109.0L54.3,108.9L53.6,108.8L53.1,108.6L52.0,108.4L51.2,108.0L50.5,107.9L49.6,107.5L48.1,107.1L47.6,106.8L46.9,106.6L43.0,104.7L42.4,104.3L41.4,103.8L40.4,103.1L39.4,102.5L35.4,99.7L33.0,97.6L30.5,95.1L29.2,93.5L28.3,92.6L25.2,88.0L22.4,82.8L22.0,81.9L21.8,81.0L21.1,79.5L20.9,78.7L20.2,76.7L20.1,75.7L19.8,75.2L18.9,70.8L18.7,68.3L18.8,66.8L18.7,66.1L18.4,65.7L18.5,60.9L19.0,56.8L19.5,54.0L20.7,49.7L22.3,45.6L23.6,43.1L23.7,42.7L24.0,42.3L25.2,40.1L25.5,39.8L25.6,39.5L26.0,39.0L26.4,38.2L29.6,34.1L33.1,30.4L36.6,27.5L38.2,26.3L38.7,26.1L40.2,25.0L40.6,24.9L40.9,24.6L43.2,23.4L43.4,23.2L46.7,21.6L49.8,20.5L55.5,19.0Z" fill="#000" fill-rule="evenodd"/>
</svg>