<svg xmlns="http://www.w3.org/2000/svg" viewBox="0 0 128 128" width="128" height="128">
  <path d="M64.2,57.6L63.9,57.6L63.0,58.5L62.5,59.4L61.9,60.7L60.6,64.9L60.3,67.3L60.3,70.3L60.8,73.4L61.9,76.7L63.0,78.9L63.8,80.0L63.9,80.5L63.9,82.3L63.7,83.7L63.3,83.8L62.8,83.6L62.3,83.2L61.3,81.8L61.0,80.6L60.4,79.3L60.2,78.5L59.1,76.0L57.6,73.8L55.2,71.2L53.1,69.6L49.9,67.7L49.3,67.6L48.8,67.3L48.3,67.2L48.0,67.0L47.2,66.9L45.7,66.4L45.3,66.4L45.1,66.6L45.2,67.7L45.5,68.3L46.1,70.3L47.4,72.9L49.5,75.9L52.1,78.4L55.3,80.6L58.0,81.8L60.3,82.3L61.6,82.9L63.2,84.4L63.6,85.0L63.5,85.9L63.2,86.1L61.2,86.1L60.9,86.0L58.8,84.7L58.0,84.4L57.0,83.9L56.1,83.6L55.7,83.6L54.8,83.2L52.8,82.9L51.4,82.6L49.6,82.5L46.2,82.8L44.2,83.3L41.2,84.4L38.8,85.7L38.2,86.3L38.2,86.7L38.9,87.4L42.1,88.8L45.5,89.9L48.9,90.3L51.4,90.2L54.4,89.7L55.0,89.4L55.7,89.3L56.4,89.0L57.2,88.8L58.5,88.1L59.1,87.9L60.3,87.1L61.2,86.7L62.1,86.6L63.1,86.6L63.4,87.0L63.4,88.8L63.3,89.7L63.3,91.3L63.1,91.8L63.1,94.3L62.9,95.2L62.8,100.2L62.5,102.2L62.3,107.0L62.4,108.6L62.7,108.8L64.6,108.8L64.9,108.7L65.1,108.3L65.0,106.6L64.9,101.9L64.7,100.5L64.7,96.6L64.5,90.2L64.5,87.3L64.9,86.7L66.6,86.7L67.0,87.0L70.5,88.7L73.4,89.6L75.7,90.0L78.9,90.0L81.3,89.7L82.5,89.3L82.9,89.3L83.8,89.0L84.9,88.7L87.2,87.8L88.5,87.0L88.9,86.5L88.9,86.1L88.1,85.5L85.1,84.0L84.3,83.8L82.5,83.1L78.7,82.6L76.5,82.6L74.5,82.7L74.0,83.0L73.0,83.2L72.7,83.3L72.4,83.3L71.9,83.6L70.6,83.9L68.0,85.2L66.6,86.1L65.2,86.1L64.8,86.1L64.6,85.8L64.6,84.4L66.8,82.5L67.3,82.3L68.2,81.8L69.3,81.6L71.5,80.8L73.9,79.7L77.1,77.4L79.1,75.4L80.2,74.1L82.1,71.2L83.1,68.5L83.2,67.9L83.4,67.7L83.4,67.0L81.7,66.9L81.3,67.1L80.5,67.3L79.9,67.6L79.5,67.6L77.8,68.3L74.9,70.0L72.6,71.8L70.4,74.3L68.9,76.5L68.0,78.4L66.8,81.8L65.2,83.2L64.7,83.3L64.3,82.7L64.3,79.8L64.7,78.8L65.4,78.0L65.9,77.0L66.1,76.0L66.7,74.7L66.9,73.4L67.2,72.9L67.6,70.1L67.6,67.2L67.3,65.0L66.8,62.7L65.9,60.6L64.5,57.9Z M49.3,9.2L48.8,9.4L48.9,9.6L49.3,9.7L51.4,11.2L52.3,12.1L53.7,14.5L53.9,15.4L54.1,34.3L54.1,40.7L54.0,44.8L54.0,46.5L53.9,48.1L53.6,48.6L52.1,49.2L51.4,49.3L49.8,50.1L48.5,50.5L47.2,51.4L45.5,52.2L44.2,53.2L43.8,53.4L41.5,55.1L39.3,56.9L36.8,59.5L34.0,63.1L33.1,64.5L31.9,66.7L31.7,67.0L30.8,68.7L30.6,69.5L30.3,69.9L29.6,72.0L29.5,72.6L29.2,73.4L28.4,76.6L28.3,78.0L28.1,78.3L28.1,79.0L27.9,80.1L27.8,85.8L28.0,87.2L28.2,89.5L28.6,90.8L28.8,91.9L29.1,92.8L29.2,93.5L29.4,94.0L30.1,96.3L30.8,97.6L30.9,98.1L31.3,98.8L31.7,99.8L32.5,101.0L33.3,102.6L35.6,105.7L37.4,107.8L41.0,111.2L42.8,112.5L43.4,112.8L44.2,113.4L44.5,113.5L46.4,114.7L49.0,116.0L50.1,116.4L50.8,116.8L51.4,116.8L51.8,117.1L52.8,117.3L53.1,117.6L54.0,117.7L54.8,118.1L58.1,118.7L61.0,119.1L65.1,119.2L67.4,119.0L71.8,118.4L77.4,116.7L78.9,115.9L79.5,115.8L79.9,115.5L81.2,114.9L83.4,113.5L83.8,113.2L84.3,113.0L87.6,110.4L89.9,108.3L93.1,104.8L94.7,102.5L94.9,102.0L96.1,100.2L97.8,96.6L97.8,96.3L98.3,95.5L98.5,94.5L98.9,93.5L99.8,90.1L99.9,88.9L100.2,87.4L100.4,84.0L100.4,80.1L100.1,78.0L99.9,77.3L99.9,76.5L99.7,76.3L99.5,74.6L99.0,73.3L98.7,71.7L97.2,68.1L94.9,63.9L93.4,61.9L92.8,60.9L92.1,60.2L91.1,58.9L87.1,55.1L83.6,52.5L82.7,52.2L81.9,51.7L78.0,49.7L75.3,48.8L74.6,48.1L74.4,43.6L74.5,40.1L74.4,34.7L74.4,27.0L74.2,23.0L74.2,16.1L74.4,14.8L75.2,13.0L76.1,11.8L77.0,10.9L78.9,9.6L78.8,9.4L70.5,9.1L62.4,9.3L58.3,9.1L54.3,9.1L52.9,9.3Z M59.9,14.6L68.0,14.6L68.4,14.7L68.8,15.1L69.0,20.3L69.0,36.0L69.2,47.0L69.0,48.3L69.2,52.5L69.7,52.9L70.2,52.9L70.7,53.2L72.1,53.4L72.7,53.7L74.9,54.2L75.6,54.6L76.1,54.7L76.4,55.0L77.0,55.1L78.3,55.7L80.0,56.8L80.5,57.0L81.6,57.7L82.1,58.0L84.4,59.7L86.8,61.9L89.2,64.8L90.4,66.6L91.9,69.1L93.2,71.8L94.0,74.5L94.2,74.9L94.7,77.0L94.9,78.5L95.1,81.0L95.3,81.7L95.3,85.4L95.0,86.1L94.9,87.4L94.3,90.8L94.0,91.2L94.0,91.9L93.6,93.1L93.1,94.0L93.0,94.7L92.6,95.4L92.4,96.0L92.2,96.3L91.9,96.9L91.7,97.2L91.5,97.6L91.3,97.9L90.7,99.0L89.8,100.6L87.6,103.2L84.7,106.1L82.1,108.2L79.5,109.9L77.9,110.5L76.8,111.3L71.6,113.0L71.1,113.0L69.2,113.5L67.5,113.6L66.5,113.8L61.7,113.9L60.1,113.6L59.4,113.6L58.7,113.4L57.7,113.4L57.1,113.1L55.5,112.8L54.2,112.3L53.6,112.2L50.2,110.8L49.8,110.5L49.5,110.4L49.3,110.2L48.5,109.9L48.2,109.6L47.1,109.1L45.8,108.0L44.6,107.4L41.9,104.9L39.8,102.6L38.7,101.1L36.9,98.3L36.7,97.7L36.4,97.3L35.5,95.5L34.4,92.5L33.3,88.0L33.1,86.2L33.1,81.9L33.3,79.0L34.4,74.2L34.6,73.8L35.3,71.7L35.7,71.2L35.7,70.7L36.0,70.4L37.1,68.0L38.8,65.4L40.9,62.8L44.2,59.7L44.6,59.5L45.5,58.6L47.9,57.0L49.0,56.4L49.3,56.2L52.3,54.7L53.1,54.6L53.6,54.2L54.2,54.2L54.9,53.8L55.6,53.7L56.3,53.4L58.6,52.9L59.1,52.8L59.3,52.5L59.5,51.9L59.4,49.7L59.5,48.8L59.5,47.0L59.4,45.8L59.5,44.1L59.1,15.7L59.4,15.0Z" fill="#000" fill-rule="evenodd"/>
</svg>