<svg xmlns="http://www.w3.org/2000/svg" viewBox="0 0 128 128" width="128" height="128">
  <path d="M68.5,9.7L68.2,9.8L67.7,10.3L67.3,12.5L67.0,18.0L67.1,24.3L67.7,30.6L68.1,32.4L68.7,38.0L69.2,40.4L70.1,42.8L70.1,43.3L72.5,48.3L73.1,49.1L73.6,50.1L76.6,54.7L80.3,59.3L85.3,64.3L88.5,68.7L89.7,71.3L90.6,73.3L91.0,75.3L91.3,77.9L91.3,81.8L90.6,85.8L90.3,86.8L90.1,88.0L89.8,88.4L89.2,90.5L88.0,93.1L87.3,94.2L86.0,96.9L85.7,97.3L85.5,97.9L84.8,98.9L84.8,99.1L83.9,100.1L82.9,101.8L80.8,104.6L77.5,108.6L74.8,111.3L71.5,114.4L68.4,117.0L67.5,117.9L67.3,118.0L67.2,118.3L67.4,118.6L68.2,118.8L93.9,119.0L94.4,118.8L95.1,118.2L96.7,116.3L96.9,116.0L97.3,115.6L100.8,111.5L103.5,107.8L104.2,106.5L105.6,104.5L108.5,99.7L108.9,98.9L109.2,98.6L111.7,93.6L111.8,93.1L112.7,91.3L112.9,90.4L113.2,89.7L113.9,87.3L114.1,86.7L114.9,83.6L115.2,79.7L115.2,76.5L114.7,72.7L114.2,70.9L114.0,70.4L113.8,69.3L112.9,66.7L110.3,61.6L110.0,61.2L109.5,61.1L109.1,60.7L109.1,60.3L109.3,59.9L109.3,59.5L108.9,59.2L106.7,55.8L105.9,54.9L104.0,52.3L103.4,51.8L101.4,49.5L101.3,49.2L97.6,45.4L97.3,45.0L95.8,43.4L94.8,41.9L93.3,39.0L92.8,38.5L91.7,36.1L91.4,35.7L90.3,32.2L89.9,31.7L89.9,31.0L89.3,28.2L89.0,25.2L88.8,24.8L88.7,18.2L88.8,16.0L89.2,11.9L89.2,10.6L88.9,10.3L88.3,10.0L86.1,10.0L84.8,9.8L78.5,9.8L77.5,9.7Z M102.3,101.6L102.5,102.1L102.1,102.2L101.9,101.9Z M42.3,9.4L42.0,9.7L41.8,10.1L42.0,13.6L42.0,18.7L41.6,24.1L41.3,25.0L41.1,27.0L40.6,28.7L40.5,29.6L40.1,30.7L39.7,32.2L38.5,34.9L38.3,35.2L38.2,35.7L37.7,36.2L37.4,36.9L36.5,38.5L34.6,41.2L31.1,45.1L30.7,45.3L30.2,45.9L27.0,49.1L26.1,49.9L25.2,51.0L21.5,55.3L18.8,59.4L18.5,59.8L17.7,61.5L17.1,62.2L14.7,67.4L13.8,70.1L13.3,72.1L13.1,74.0L13.1,77.1L13.5,82.5L14.4,86.5L15.9,90.9L15.9,91.6L16.3,92.1L17.6,95.3L20.3,100.7L21.3,102.3L23.5,106.6L25.9,110.0L26.2,110.7L29.4,115.2L32.2,118.3L33.0,118.6L59.1,118.5L59.5,118.3L59.6,118.0L54.5,113.4L51.4,110.1L48.4,106.8L47.7,105.8L45.2,102.6L44.4,101.2L43.9,100.6L43.7,100.2L43.0,99.4L42.8,98.6L42.1,97.7L41.7,96.8L41.2,96.2L39.6,93.0L38.5,90.4L38.4,89.7L38.0,88.7L37.5,87.0L37.4,86.0L37.2,85.5L36.8,81.9L36.8,79.8L37.2,76.9L38.1,73.4L39.2,70.7L40.9,67.4L41.4,66.8L42.2,65.4L44.2,63.0L47.9,59.6L50.0,57.5L52.9,54.3L54.2,52.3L55.1,51.4L55.1,51.0L56.5,49.1L56.6,48.7L57.4,47.5L59.1,43.8L59.2,43.3L59.7,42.4L60.1,40.8L60.5,40.2L61.2,37.7L61.6,36.9L61.7,36.0L62.0,35.0L62.2,33.4L62.6,32.2L62.7,30.7L63.0,29.9L63.7,23.8L63.7,22.7L63.9,22.1L63.9,10.8L63.7,10.2L63.0,9.7L58.2,9.5L57.3,9.6L55.9,9.3L52.2,9.5L48.6,9.5L45.8,9.3Z" fill="#000" fill-rule="evenodd"/>
</svg>