<svg xmlns="http://www.w3.org/2000/svg" viewBox="0 0 128 128" width="128" height="128">
  <path d="M86.1,84.1L84.4,86.5L84.3,87.4L83.9,87.9L83.7,88.9L82.0,92.0L81.6,93.6L80.2,96.2L80.0,97.3L79.1,98.9L78.5,100.5L77.8,101.7L77.5,102.8L76.6,104.8L76.4,105.5L75.4,107.2L74.8,109.0L74.4,109.5L74.2,110.3L73.3,112.1L72.5,114.0L72.5,114.5L73.0,114.9L79.6,114.8L87.9,115.0L90.8,114.8L92.7,115.0L101.0,115.0L101.4,114.8L101.5,114.2L101.0,113.3L101.0,113.0L97.9,106.8L97.8,106.3L96.4,103.8L96.4,103.5L95.4,101.6L95.4,101.3L94.3,99.4L93.8,98.0L93.4,97.5L93.3,97.0L92.8,96.3L91.6,93.5L91.2,93.0L90.8,91.5L90.3,90.8L90.1,89.8L89.6,89.2L89.1,87.9L88.4,87.1L87.5,85.2L86.6,84.1Z M11.3,14.7L9.7,15.2L9.5,15.9L9.5,25.8L9.3,33.1L9.5,44.4L9.4,52.3L9.8,57.7L9.9,58.3L10.3,61.3L10.8,63.4L11.1,64.0L11.2,65.0L11.5,65.8L11.7,67.0L12.0,67.4L12.2,68.3L13.5,71.4L14.8,73.9L17.5,78.3L19.2,81.6L19.6,83.1L20.4,84.9L21.0,88.0L21.2,91.2L21.0,94.2L21.2,100.0L21.1,102.3L21.3,105.8L21.2,111.4L21.4,114.2L21.7,114.6L23.2,114.8L29.3,114.7L29.7,114.5L29.7,114.3L30.0,114.0L30.0,90.2L29.4,85.5L28.3,80.9L26.7,76.5L24.1,71.7L22.7,69.8L21.0,66.2L20.2,63.9L20.0,62.7L19.6,62.0L19.2,60.3L18.8,58.3L18.7,56.8L18.5,56.2L18.3,27.2L18.6,18.1L18.5,15.3L18.1,14.8L16.8,14.5L15.0,14.5L13.8,14.7Z M41.0,14.2L39.6,14.5L39.1,14.8L38.5,14.8L38.0,15.1L37.1,15.2L36.7,15.5L35.8,15.7L35.0,16.3L34.3,16.6L33.1,17.7L32.4,18.1L30.5,20.2L29.2,22.0L28.9,23.1L28.4,23.8L27.8,25.3L27.7,26.3L27.4,27.1L27.2,28.8L27.2,31.9L27.8,34.9L28.1,35.3L28.9,37.2L29.7,38.6L30.5,39.4L31.5,40.9L33.2,42.5L35.0,43.7L36.9,44.4L37.2,44.7L39.8,45.2L43.1,45.4L45.0,45.1L45.3,44.9L46.7,44.7L49.5,43.5L51.4,42.2L52.8,41.0L54.2,39.6L55.2,38.0L55.9,36.7L55.9,36.4L56.4,35.5L57.0,33.8L57.5,31.2L57.5,27.7L57.0,26.0L56.8,24.7L55.9,22.5L55.2,21.6L54.8,20.8L52.0,17.6L51.6,17.5L50.0,16.2L49.1,16.0L48.3,15.4L47.0,14.9L46.3,14.9L45.2,14.4L43.3,14.2Z M99.7,13.9L98.8,14.2L98.3,14.7L98.4,22.2L98.2,29.3L98.5,54.3L98.9,56.9L99.6,60.1L99.9,60.7L100.2,62.0L100.5,62.4L100.7,63.6L100.9,63.8L101.7,65.8L102.8,68.2L104.0,70.1L104.3,70.8L105.9,73.6L106.4,74.1L106.7,75.1L108.3,78.5L109.7,83.5L110.3,87.6L110.3,91.9L110.2,95.9L110.2,107.6L110.3,109.6L110.3,111.7L110.4,114.1L110.6,114.6L111.4,114.9L112.6,114.9L113.6,114.6L114.8,114.9L118.1,114.9L118.4,114.8L118.9,114.0L118.9,87.0L118.8,85.6L118.3,82.9L117.2,78.4L116.3,76.2L115.6,74.1L115.1,73.4L114.9,72.2L114.2,71.2L113.6,69.6L112.7,68.7L112.1,67.1L110.8,65.4L110.3,64.3L109.6,63.3L109.0,62.2L108.7,61.0L108.1,59.9L107.4,57.9L106.9,55.6L106.9,54.4L106.7,53.9L106.6,52.5L106.7,22.7L106.9,19.8L106.7,15.4L106.4,14.7L105.4,14.1Z M69.0,13.5L68.1,13.9L67.2,14.0L65.7,14.6L65.5,15.5L65.5,27.5L65.6,29.5L65.6,32.2L65.7,36.7L65.7,52.2L65.6,57.4L65.4,58.7L65.1,59.5L65.0,60.7L64.3,63.3L63.9,64.5L63.5,65.1L63.3,66.0L62.7,67.5L62.4,67.8L61.4,70.2L60.4,71.6L59.6,73.0L59.2,73.4L58.9,74.6L57.3,77.8L56.6,80.2L55.9,82.2L55.5,84.5L55.1,85.5L55.1,86.6L54.9,87.5L54.9,92.3L54.7,92.8L54.7,94.0L54.9,94.5L54.8,98.6L55.0,100.0L55.0,110.4L55.1,113.7L55.4,114.6L55.8,114.8L61.8,114.8L62.5,114.6L62.9,114.1L62.9,109.6L63.1,108.7L62.9,107.1L63.0,86.6L64.0,82.5L64.8,80.8L65.1,79.8L66.5,77.2L67.6,75.5L67.7,75.2L68.0,74.9L70.0,71.2L70.6,68.9L71.0,68.3L71.4,66.9L71.7,66.4L72.0,64.9L72.1,64.6L72.2,63.6L72.7,62.2L72.9,60.7L73.4,59.1L73.6,55.5L73.7,54.9L73.8,46.3L73.6,36.9L73.7,16.2L73.6,15.0L73.3,14.5L72.9,14.4L70.0,14.0Z" fill="#000" fill-rule="evenodd"/>
</svg>