<svg xmlns="http://www.w3.org/2000/svg" viewBox="0 0 128 128" width="128" height="128">
  <path d="M78.3,74.9L78.2,76.8L78.3,78.7L78.5,78.6Z M84.8,63.9L84.4,63.9L82.0,66.3L81.8,66.4L81.0,67.2L80.6,67.5L79.2,68.8L78.7,68.8L78.4,68.4L78.5,67.9L78.3,67.0L78.3,61.8L78.3,61.6L78.0,61.8L78.0,64.7L78.2,66.3L78.0,67.2L78.0,68.5L77.9,69.0L77.7,69.1L77.1,68.9L76.4,68.3L72.2,64.2L71.8,64.2L71.8,64.6L76.6,69.1L76.9,69.7L76.6,69.9L75.3,69.9L73.2,70.1L69.6,69.9L69.4,70.0L69.4,70.3L71.3,70.3L76.7,70.5L76.9,70.6L77.0,70.9L76.8,71.2L75.4,72.8L72.0,76.0L72.0,76.4L72.6,76.1L76.0,72.7L77.5,71.5L77.8,71.5L78.0,71.7L78.0,72.6L78.3,73.7L78.5,73.0L78.5,72.0L78.7,71.7L79.1,71.6L81.3,73.4L84.0,76.1L84.3,76.1L84.2,75.7L83.7,75.4L82.4,74.0L82.0,73.7L79.5,71.2L79.4,70.7L79.8,70.4L87.3,70.3L87.3,70.1L86.8,69.9L84.3,70.0L79.5,69.9L79.5,69.3L84.6,64.4Z M63.7,53.6L51.6,53.5L49.9,53.6L42.7,53.6L40.1,53.8L33.8,53.7L33.1,53.8L32.6,54.0L32.5,60.4L32.6,60.6L33.2,61.1L48.1,61.0L49.8,61.1L50.2,61.3L50.2,61.8L49.9,62.2L49.3,63.4L48.9,63.9L48.1,65.3L47.1,66.7L45.3,69.8L44.4,71.1L44.2,71.6L43.1,73.1L42.3,74.4L41.9,75.0L41.8,75.3L40.7,76.9L40.2,77.9L39.7,78.5L39.1,79.7L38.5,80.4L38.2,81.1L36.5,83.6L35.9,84.9L35.1,86.0L35.0,86.7L35.3,86.9L36.7,87.1L42.3,87.1L43.2,86.7L44.4,84.7L45.1,83.8L45.4,83.1L46.4,81.8L46.4,81.5L48.0,79.3L48.8,77.9L51.7,73.5L53.4,70.7L55.2,68.0L55.4,67.5L55.8,67.1L57.1,64.8L57.6,64.2L61.5,57.9L61.9,57.5L62.5,56.2L62.9,55.7L63.9,54.0L63.9,53.7Z M79.0,51.9L76.8,52.0L75.2,52.4L74.6,52.4L71.7,53.2L68.5,54.7L66.5,56.1L65.2,57.3L64.0,58.7L62.6,60.6L61.0,63.9L60.5,65.5L60.0,68.1L60.0,72.0L60.7,75.2L60.9,75.6L61.1,76.5L61.8,77.8L61.9,78.2L63.9,81.4L66.4,83.9L69.3,85.9L72.2,87.2L73.8,87.5L74.6,87.9L76.0,87.9L76.7,88.1L79.9,88.1L82.5,87.7L83.1,87.5L84.0,87.3L86.9,86.1L90.1,83.9L92.4,81.7L94.2,79.2L95.2,77.1L95.9,75.1L96.3,73.4L96.6,70.9L96.6,69.0L96.3,66.9L95.5,63.8L93.8,60.4L92.6,59.1L92.0,58.1L89.7,56.0L88.5,55.2L86.2,53.8L84.8,53.3L84.2,53.0L83.6,52.9L82.6,52.5Z M76.6,59.6L78.5,59.5L79.6,59.6L82.0,60.2L83.1,60.7L85.1,62.0L86.5,63.4L87.9,65.3L88.7,67.4L89.0,68.8L89.1,70.9L88.9,72.3L88.3,74.2L87.2,76.2L86.4,77.2L84.5,78.8L83.0,79.7L80.3,80.6L78.9,80.7L76.2,80.6L74.2,80.0L72.6,79.2L71.8,78.6L71.4,78.5L69.7,76.7L68.6,75.1L67.9,73.5L67.5,71.9L67.4,69.2L67.9,66.8L68.5,65.3L69.3,64.1L71.2,62.0L71.9,61.6L72.3,61.2L74.0,60.3Z M34.6,13.9L32.1,15.1L30.0,16.5L28.4,17.9L26.9,19.4L25.6,21.2L25.6,21.5L24.8,22.7L23.6,25.2L23.5,26.0L23.1,27.0L22.6,30.1L22.6,33.1L22.7,35.1L22.6,35.6L22.2,36.3L21.5,38.4L21.3,39.9L21.3,41.9L21.7,43.9L22.3,45.8L22.9,47.0L24.8,49.1L26.9,50.8L29.3,51.8L30.9,52.2L33.3,52.3L35.2,52.1L37.8,51.1L39.1,50.3L40.3,49.4L41.8,47.9L42.4,46.9L43.4,45.0L43.9,43.3L44.2,41.0L44.3,39.3L44.7,38.9L45.4,38.8L49.8,38.8L50.3,38.5L50.5,38.2L50.5,32.3L50.4,31.9L50.1,31.5L48.9,31.4L47.1,31.5L38.0,31.5L37.5,31.6L37.2,31.9L36.8,36.1L36.9,37.8L36.6,39.0L36.6,41.2L36.4,42.1L35.9,43.0L35.1,43.9L34.4,44.4L32.9,44.8L32.3,44.8L31.2,44.5L30.1,43.8L29.3,42.9L28.9,42.2L28.8,41.5L28.8,40.3L29.0,39.4L29.6,38.4L30.6,37.3L30.8,37.0L30.7,36.4L30.3,35.6L29.8,33.9L29.7,32.7L29.7,30.0L30.1,28.2L31.1,26.0L32.6,23.8L33.7,22.8L35.4,21.5L37.3,20.5L39.3,20.0L40.4,19.8L42.6,19.8L44.2,20.1L45.9,20.5L46.2,20.8L47.0,20.9L47.6,20.5L48.2,19.7L49.3,18.8L50.7,17.9L52.6,17.0L54.6,16.5L57.8,16.4L60.0,16.9L60.4,17.2L61.5,17.5L63.1,18.4L65.2,20.3L66.5,21.8L67.6,24.0L67.8,24.9L68.1,25.3L70.2,25.4L71.7,26.0L72.7,26.7L73.6,27.7L73.9,28.2L74.4,29.5L74.5,31.0L74.7,32.2L74.9,35.6L75.2,38.0L75.2,39.3L75.8,46.2L75.9,47.0L75.9,48.0L76.2,48.9L76.7,49.2L80.8,49.3L81.7,49.5L82.3,49.5L85.0,50.3L88.6,51.8L90.8,53.2L93.0,55.0L95.6,57.9L95.9,58.5L96.8,59.7L97.7,61.5L98.4,63.4L99.3,66.9L99.5,68.7L99.5,71.4L99.0,74.8L98.0,77.9L96.9,80.2L96.2,81.2L96.0,81.7L94.3,83.8L92.0,86.1L90.9,87.0L88.5,88.4L87.4,89.0L86.5,89.2L84.8,90.0L81.1,90.8L80.5,90.8L79.9,91.1L79.8,91.4L79.8,92.4L80.9,105.5L80.9,107.9L80.7,109.1L80.3,109.8L79.1,111.1L78.2,111.4L77.9,111.6L76.6,111.9L69.3,111.8L64.8,112.0L46.9,112.0L44.6,111.9L43.0,111.3L42.3,110.9L41.5,110.1L40.9,109.1L40.6,107.9L40.6,105.9L40.9,102.5L41.0,98.3L41.3,93.5L41.3,90.5L41.1,90.3L40.6,90.0L35.1,90.0L34.7,90.0L34.3,90.4L34.2,91.3L34.2,94.0L33.9,96.2L33.7,104.7L33.5,105.8L33.5,107.9L33.9,110.1L34.5,111.8L35.1,113.0L36.5,114.9L38.6,116.8L41.3,118.2L44.0,118.9L52.3,119.0L76.7,119.0L78.3,118.9L80.8,118.2L82.8,117.3L83.9,116.5L85.6,114.9L86.4,113.8L86.5,113.5L87.3,112.0L87.9,110.6L88.2,109.2L88.4,107.6L87.7,98.4L87.7,97.4L87.9,96.9L88.1,96.7L89.3,96.2L92.9,94.4L95.4,92.8L98.5,90.1L100.8,87.6L102.5,85.2L104.5,81.6L104.6,81.0L105.3,79.6L106.1,76.9L106.1,76.5L106.2,76.1L106.6,74.1L106.9,71.9L106.9,67.9L106.2,63.7L105.8,62.6L105.7,61.6L105.4,61.2L105.0,59.8L104.7,59.3L104.5,58.5L102.8,55.2L100.9,52.5L98.7,50.0L96.6,48.2L93.7,46.1L90.5,44.3L89.4,44.0L89.1,43.8L87.4,43.1L83.7,42.1L83.3,41.8L83.2,41.5L82.9,39.7L82.8,37.6L82.6,36.3L82.4,32.3L82.0,28.8L81.6,26.8L80.4,24.2L78.9,22.1L77.8,21.0L75.4,19.3L73.2,18.4L70.1,14.7L69.1,13.8L67.2,12.3L66.2,11.9L65.2,11.1L61.8,9.8L60.4,9.6L59.8,9.4L58.5,9.2L55.0,9.1L53.8,9.3L52.8,9.6L52.1,9.6L49.7,10.3L48.6,11.0L47.2,11.5L45.3,12.7L44.0,12.7L43.1,12.6L39.9,12.6L37.6,12.9Z" fill="#000" fill-rule="evenodd"/>
</svg>