<svg xmlns="http://www.w3.org/2000/svg" viewBox="0 0 128 128" width="128" height="128">
  <path d="M93.5,57.7L92.4,58.1L91.5,59.0L90.9,60.0L90.8,61.2L90.9,62.4L91.2,63.1L92.1,64.1L92.8,64.7L94.2,65.4L95.1,66.1L95.3,66.6L95.3,67.4L94.8,67.9L93.9,67.9L93.5,67.6L93.4,67.3L93.3,66.2L93.0,65.9L91.5,65.8L91.2,65.9L90.9,66.2L90.8,66.7L90.8,67.8L91.2,68.9L92.1,70.0L93.0,70.4L93.7,70.6L95.3,70.6L96.3,70.3L96.5,70.1L97.0,70.0L97.7,69.2L98.2,68.4L98.4,67.6L98.4,65.8L97.7,64.0L97.3,63.6L96.0,62.7L95.1,62.5L94.4,62.1L93.8,61.5L93.6,61.2L93.7,60.3L94.2,59.9L94.5,59.9L94.9,60.1L95.2,60.6L95.3,61.6L95.6,61.8L96.3,61.8L97.2,61.7L97.5,61.3L97.6,60.2L97.1,58.9L96.7,58.4L95.8,57.9L95.1,57.7Z M85.9,57.8L84.4,57.7L83.7,58.2L83.5,59.1L83.3,59.5L83.0,60.8L82.5,61.3L82.2,60.9L81.3,58.5L80.8,57.9L78.8,57.8L78.4,58.0L78.3,58.1L78.3,58.7L78.7,59.5L79.8,62.8L80.4,64.1L80.4,64.4L80.8,65.3L80.9,69.2L81.0,69.9L81.4,70.3L83.4,70.3L83.7,70.0L83.7,65.9L84.1,64.2L84.8,62.7L85.1,61.4L86.1,58.5L86.1,58.1Z M68.4,57.8L67.9,58.2L67.8,58.7L67.8,69.8L68.2,70.2L72.8,70.3L74.3,70.1L74.6,69.7L74.6,68.3L74.4,67.9L74.1,67.7L71.8,67.7L71.1,67.4L70.9,67.2L70.9,65.5L71.3,65.1L73.2,65.1L73.7,64.9L74.0,64.6L73.9,63.0L73.3,62.7L71.3,62.6L71.0,62.4L70.8,61.8L70.9,60.6L71.2,60.3L72.4,60.1L73.7,60.1L74.2,59.7L74.1,58.1L73.6,57.7Z M54.1,57.9L53.9,58.1L53.8,58.4L53.9,69.9L54.4,70.3L55.8,70.3L56.3,69.9L56.4,65.9L56.5,65.7L56.9,65.6L57.7,67.2L57.8,67.8L58.1,68.3L58.1,68.5L58.5,69.2L58.7,69.7L59.2,70.2L60.3,70.3L60.7,70.1L61.0,69.8L60.8,58.7L60.6,58.0L60.2,57.7L59.1,57.7L58.4,58.0L58.4,61.0L58.2,61.4L58.0,61.4L56.7,59.1L56.5,58.3L56.0,57.8L55.2,57.7Z M41.9,57.8L41.6,58.1L41.7,59.9L42.0,60.2L43.1,60.2L43.6,60.6L43.7,61.0L43.9,68.4L43.8,69.2L43.9,70.0L44.4,70.3L46.3,70.2L46.5,70.1L46.7,69.4L46.7,60.6L47.1,60.2L48.0,60.1L48.7,59.9L48.8,59.2L48.7,58.0L48.3,57.7Z M32.7,57.8L32.4,58.1L32.0,59.3L31.8,61.2L31.6,61.8L31.4,63.3L31.0,65.0L30.9,66.0L30.7,66.6L30.5,68.0L30.2,69.2L30.2,69.9L30.5,70.2L30.9,70.3L32.1,70.2L32.4,69.7L32.7,68.6L32.9,68.4L34.1,68.3L34.5,68.5L34.6,69.2L34.8,69.4L34.8,69.7L35.1,70.2L37.2,70.3L37.6,70.1L37.7,69.6L35.3,58.5L35.1,58.0L34.7,57.7Z M33.6,64.8L34.0,65.4L34.0,65.9L33.8,66.1L33.5,66.1L33.2,65.7L33.3,65.1Z M25.0,57.8L24.0,57.7L23.5,57.7L23.1,58.0L22.8,59.3L22.6,61.3L22.3,61.5L21.9,61.1L21.4,58.4L21.2,58.0L21.0,57.9L19.4,57.8L19.0,58.1L18.5,61.2L18.2,61.5L17.8,61.0L17.8,60.2L17.2,58.0L16.8,57.7L14.9,57.7L14.6,58.0L14.7,59.2L16.0,65.0L16.2,66.2L16.5,67.2L17.0,69.6L17.4,70.2L18.9,70.3L19.3,70.0L19.6,69.1L19.7,66.9L20.0,66.6L20.1,66.6L20.4,66.8L20.6,68.3L21.2,70.1L21.8,70.3L23.0,70.3L23.4,70.0L23.8,68.5L23.9,66.6L24.2,65.2L24.4,63.5L25.1,59.4L25.2,58.0Z M14.1,36.9L13.2,39.2L13.0,40.3L12.7,40.7L12.1,42.6L11.6,44.8L11.3,45.5L10.9,47.1L10.0,51.4L10.0,52.1L9.6,54.7L9.2,59.2L9.1,66.5L9.3,70.3L9.5,70.9L9.7,73.2L9.9,74.1L9.9,74.9L10.4,77.2L10.5,78.8L11.2,81.9L11.6,83.0L11.9,84.6L12.2,85.1L13.3,88.9L14.0,90.7L14.7,92.0L15.9,93.0L17.1,93.5L17.5,93.5L20.1,94.5L20.4,94.5L23.5,95.5L30.1,97.2L36.4,98.6L37.3,98.6L41.7,99.5L42.8,99.6L44.2,99.9L45.6,100.0L46.6,100.2L48.0,100.2L49.1,100.5L50.9,100.5L52.2,100.8L54.7,100.9L55.4,101.0L57.2,101.0L58.9,101.2L69.4,101.2L76.2,100.8L76.8,100.6L78.5,100.5L79.1,100.4L80.0,100.4L81.2,100.1L83.4,100.0L86.0,99.5L87.9,99.4L88.6,99.1L90.1,99.0L91.2,98.6L91.7,98.6L92.4,98.4L93.7,98.2L96.0,97.6L97.4,97.5L99.1,96.9L100.4,96.8L101.2,96.4L105.3,95.4L106.1,95.1L112.0,93.3L113.1,92.7L114.1,91.5L114.6,90.3L114.8,89.5L115.1,88.9L115.3,88.1L116.1,85.8L116.1,85.2L116.5,84.5L117.6,79.7L117.7,78.7L118.1,77.0L118.2,75.9L118.5,74.4L118.6,72.6L118.7,71.9L119.1,68.1L119.1,63.3L118.8,58.0L118.2,53.6L118.2,52.8L116.9,46.5L116.4,44.9L116.4,44.5L116.1,44.0L115.9,42.8L114.2,37.7L113.6,36.6L112.7,35.6L112.1,35.3L110.9,34.9L110.4,34.6L109.7,34.5L109.3,34.2L108.3,34.0L107.8,33.8L106.8,33.6L106.2,33.3L105.3,33.1L105.1,33.0L103.9,32.7L102.0,32.1L100.6,31.9L99.9,31.6L97.1,31.0L94.8,30.4L92.6,30.1L92.0,29.8L90.7,29.7L89.6,29.4L87.9,29.2L87.3,29.0L85.6,28.8L84.1,28.5L78.5,27.9L77.5,27.7L75.9,27.7L74.1,27.5L72.6,27.5L68.8,27.1L68.1,27.2L64.5,27.1L60.6,27.1L59.6,27.2L56.6,27.2L55.4,27.4L54.0,27.4L53.1,27.6L51.4,27.5L49.6,27.9L47.2,28.0L44.0,28.4L42.2,28.8L41.5,28.8L39.4,29.3L38.5,29.3L37.9,29.5L35.8,29.8L35.2,30.1L33.3,30.3L32.7,30.5L31.6,30.7L31.1,30.9L30.0,31.1L29.1,31.4L26.9,31.9L25.5,32.4L24.7,32.4L22.7,33.1L19.9,33.8L19.0,34.2L18.2,34.4L17.6,34.7L17.3,34.7L16.9,35.0L16.4,35.0L15.2,35.7Z M107.9,42.4L108.1,42.4L108.4,42.8L109.1,44.8L110.6,50.7L110.8,52.0L111.3,54.0L111.6,57.0L112.0,62.9L111.9,69.7L111.6,70.9L111.6,72.7L111.1,75.2L111.0,76.3L110.7,77.1L110.6,78.4L110.2,79.5L110.2,80.2L109.9,80.7L109.8,81.8L109.4,82.8L109.4,83.1L108.8,84.9L108.3,85.8L108.2,85.8L107.8,85.4L107.6,84.5L107.4,84.1L107.2,83.0L106.9,82.5L106.1,79.1L105.9,77.7L105.6,76.7L105.4,75.3L105.2,74.5L104.6,68.4L104.4,64.2L104.5,60.5L105.2,53.2L106.5,46.6L106.8,45.8L107.4,43.5L107.7,42.7Z M110.3,37.1L111.1,37.1L111.6,37.3L112.0,37.9L112.8,39.8L113.0,40.6L113.2,41.0L114.2,44.0L114.3,44.6L114.4,44.9L116.1,52.7L116.6,56.0L117.0,61.7L117.0,68.1L116.8,70.1L116.7,72.2L115.9,77.7L114.8,82.5L114.3,83.8L113.6,86.7L113.2,87.5L112.3,90.3L111.6,91.1L111.3,91.2L110.5,91.2L109.8,90.5L109.5,90.0L109.5,89.4L110.4,87.1L110.5,86.3L110.9,85.4L111.3,83.7L112.0,81.9L112.8,78.2L113.1,76.2L113.5,74.4L113.7,72.0L113.9,71.4L113.9,68.5L114.1,67.2L114.1,61.5L113.6,55.8L113.3,54.4L113.1,52.3L112.6,50.3L112.4,49.0L112.2,48.6L112.0,47.2L111.3,45.2L111.2,44.3L109.3,38.9L109.3,38.3L109.5,37.7Z M15.8,37.8L16.2,37.3L16.7,37.0L17.1,36.9L17.5,36.7L18.6,36.4L19.5,36.0L20.9,35.7L21.6,35.3L22.3,35.3L22.6,35.1L23.0,35.1L23.1,35.3L23.1,35.9L22.6,36.7L22.2,37.9L21.9,38.3L21.7,39.2L21.5,39.5L21.3,40.3L21.0,40.9L20.8,41.7L20.4,42.7L18.8,49.5L18.2,52.9L18.2,53.7L18.6,54.0L19.7,54.0L20.0,53.8L20.1,53.4L20.2,52.2L20.4,51.7L20.6,50.3L21.5,46.8L21.5,46.4L22.2,44.2L22.3,43.2L22.7,42.2L22.8,41.7L24.2,37.9L25.3,35.5L26.0,34.4L27.1,33.8L30.0,33.1L30.5,32.9L31.3,32.8L32.2,32.5L33.5,32.4L34.0,32.1L35.4,32.0L35.7,32.2L34.1,35.6L34.0,36.1L33.5,37.2L33.5,37.6L33.2,37.9L33.1,38.6L32.8,39.0L32.7,39.8L32.4,40.2L31.5,43.2L30.9,46.1L30.6,46.6L30.4,48.1L29.8,50.6L29.4,53.3L29.5,53.9L30.3,54.1L30.8,54.0L31.2,53.7L31.1,52.8L31.5,52.1L32.0,49.3L33.3,43.9L34.2,40.7L36.0,36.4L36.0,36.1L36.5,35.0L36.8,34.8L37.3,33.5L37.9,32.9L38.3,32.1L39.2,31.2L40.0,31.0L40.9,30.9L41.2,30.8L41.9,30.8L42.8,30.5L43.5,30.5L43.9,30.4L45.1,30.3L46.2,30.1L47.7,30.0L49.2,29.7L51.7,29.6L52.3,29.4L54.0,29.4L55.2,29.3L56.9,29.3L57.9,29.1L66.6,29.0L70.3,29.3L71.3,29.2L72.8,29.4L74.4,29.4L76.1,29.7L77.0,29.7L77.7,29.8L79.5,29.9L84.4,30.5L84.8,30.7L85.9,30.8L88.1,31.2L88.8,31.4L89.7,31.5L90.4,31.7L90.4,32.0L90.1,32.8L89.7,33.3L88.1,36.6L87.8,37.6L87.6,37.9L87.5,38.6L87.1,39.4L87.0,40.0L86.6,40.8L86.6,41.1L86.3,41.8L86.1,42.7L85.8,43.3L85.2,45.8L84.8,46.9L84.8,47.4L84.0,51.3L83.7,53.8L84.3,54.2L85.3,54.1L85.7,53.6L86.6,48.4L87.3,45.5L87.5,45.0L87.7,44.0L88.3,42.3L89.0,39.8L90.4,36.3L91.6,34.1L93.0,32.4L94.2,32.4L95.2,32.5L99.6,33.6L100.4,33.9L100.5,34.2L98.9,37.4L98.2,39.2L97.9,40.4L97.5,41.0L97.5,41.4L97.1,42.3L97.1,42.9L96.8,43.3L96.7,44.3L96.2,45.5L96.1,46.3L95.6,48.3L94.9,51.3L94.7,52.9L94.7,53.8L95.0,54.1L96.2,54.1L96.7,53.6L96.8,52.6L97.1,51.6L97.3,49.7L98.5,44.7L99.9,40.2L100.8,38.1L101.3,37.2L101.6,36.6L102.6,35.1L103.1,34.7L103.8,34.7L104.2,35.0L105.2,35.1L105.9,35.4L106.8,35.6L107.6,36.0L107.8,36.1L107.7,36.6L106.7,39.1L105.1,43.8L104.5,46.8L104.1,48.0L104.1,48.7L103.7,49.7L103.5,51.7L103.3,52.1L103.3,52.8L102.9,54.7L102.4,60.1L102.3,65.9L102.4,68.0L102.7,70.4L102.9,73.1L104.2,80.2L105.5,85.3L105.8,86.0L106.1,87.1L107.3,90.7L107.9,91.9L107.9,92.2L106.8,92.7L103.7,93.5L103.1,93.4L102.2,92.3L100.8,89.7L99.7,86.7L99.5,86.3L99.4,85.8L99.0,84.8L98.9,83.8L98.6,83.4L98.4,82.1L98.2,81.5L97.9,80.0L97.7,79.7L96.8,74.7L96.4,74.1L96.0,74.1L94.9,74.2L94.7,74.7L95.7,80.3L96.8,84.4L98.0,88.0L98.2,88.8L98.9,90.6L99.4,91.5L99.5,91.9L100.6,93.8L100.6,94.3L100.3,94.5L99.3,94.9L98.2,95.0L95.3,95.8L93.9,96.0L93.2,95.9L92.5,95.2L91.9,94.2L91.6,93.9L90.3,91.2L89.3,88.3L88.8,87.1L87.7,83.6L87.6,83.0L87.5,82.7L86.8,80.2L85.7,74.5L85.4,74.1L85.2,74.1L84.4,74.1L83.8,74.4L84.0,76.6L84.7,80.1L86.0,85.0L87.6,90.1L88.1,91.2L88.4,91.7L89.1,93.6L90.6,96.2L90.6,96.5L90.3,96.8L89.3,96.8L88.4,97.1L86.9,97.3L86.0,97.5L77.3,98.6L75.9,98.6L74.1,98.9L72.5,98.9L71.4,99.0L64.4,99.3L59.3,99.2L52.6,98.8L51.4,98.6L50.0,98.6L44.1,97.8L43.4,97.8L39.5,97.1L38.7,96.4L37.6,94.7L36.8,93.0L36.5,92.7L36.4,92.3L35.6,90.6L35.4,89.8L35.2,89.4L34.0,85.9L33.7,85.2L33.2,83.2L33.0,82.7L32.5,80.8L32.4,79.6L31.6,76.9L31.3,74.7L30.8,74.1L29.7,74.1L29.4,74.6L29.6,75.5L29.8,77.4L30.0,78.1L30.5,80.8L30.9,82.2L31.9,86.0L32.7,88.2L32.8,88.9L33.3,89.9L33.8,91.6L34.4,92.7L34.6,93.5L35.9,95.9L35.8,96.2L35.3,96.3L34.5,96.0L33.5,96.0L32.5,95.6L31.2,95.5L29.5,94.9L28.2,94.7L27.9,94.5L27.2,94.5L26.2,93.7L25.7,92.8L24.2,89.7L23.1,86.3L22.8,86.0L21.2,79.8L20.9,78.1L20.4,76.2L20.4,75.2L20.1,74.4L19.7,74.1L18.6,74.1L18.3,74.4L18.3,75.3L18.6,76.7L18.8,78.1L19.0,78.7L19.3,80.4L20.6,85.4L21.2,87.0L22.0,89.7L22.7,91.1L23.3,92.9L23.0,93.1L22.4,93.0L17.6,91.6L16.6,91.1L16.3,90.8L15.7,89.7L15.3,88.3L14.7,86.9L14.5,86.0L13.6,83.2L13.1,80.8L12.7,79.6L12.6,78.8L12.3,77.8L11.4,71.6L11.0,65.8L11.1,59.5L11.5,55.2L11.7,54.1L11.9,51.8L12.2,51.0L12.5,48.9L13.9,43.1L15.2,39.1Z" fill="#000" fill-rule="evenodd"/>
</svg>