<svg xmlns="http://www.w3.org/2000/svg" viewBox="0 0 128 128" width="128" height="128">
  <path d="M90.8,9.6L87.7,9.0L85.0,9.1L82.7,9.6L81.3,10.0L79.7,10.8L76.9,12.7L69.3,20.8L68.2,21.6L66.9,22.3L65.0,22.9L62.6,23.1L60.8,22.8L59.0,22.1L57.8,21.4L56.7,20.4L52.0,15.2L49.4,12.7L48.6,12.0L45.7,10.3L43.1,9.6L41.5,9.3L38.8,9.3L37.3,9.6L34.7,10.4L32.1,11.9L30.8,12.9L28.6,15.4L27.5,17.3L26.7,19.4L26.1,22.4L26.2,25.2L26.5,26.9L27.4,29.3L28.1,30.6L29.3,32.4L32.2,35.3L36.9,39.8L38.4,41.5L39.6,43.9L40.0,46.2L40.0,48.2L39.8,48.5L39.7,49.5L39.2,50.7L38.4,52.1L37.8,52.9L30.0,60.6L28.5,62.7L27.7,64.2L26.9,66.6L26.5,69.2L26.6,71.2L27.2,73.9L28.1,76.2L28.9,77.5L31.0,79.9L32.6,81.4L35.0,82.7L36.9,83.4L38.5,83.8L39.8,83.9L42.5,83.9L43.5,83.8L44.8,83.4L45.2,83.4L47.6,82.4L47.9,82.1L48.5,81.9L50.7,80.2L52.0,78.7L53.3,77.4L53.6,77.3L54.9,75.9L55.4,75.7L55.6,75.9L55.8,76.8L56.0,81.6L56.0,88.5L56.1,94.6L56.0,98.0L56.2,98.7L56.1,104.4L56.3,116.2L56.4,118.7L56.6,118.9L57.0,118.8L60.0,115.9L60.3,115.9L60.9,116.2L63.7,118.7L64.0,118.8L64.3,118.6L64.3,117.5L64.1,102.1L64.2,95.1L64.0,94.0L64.1,85.2L64.3,85.3L64.5,85.9L64.5,87.3L64.6,87.9L64.6,89.1L64.8,89.7L64.8,90.6L65.1,92.8L65.1,94.0L65.5,95.9L65.5,96.6L66.1,100.7L66.5,102.6L66.6,102.9L66.9,104.9L67.1,105.1L67.2,106.5L68.0,109.2L68.4,111.7L68.7,112.4L69.0,114.1L70.5,118.7L70.8,119.1L71.1,119.1L72.7,116.3L73.4,115.6L73.9,115.6L74.5,115.9L74.8,116.0L77.0,117.3L77.3,117.3L77.5,117.1L77.5,116.5L77.2,115.2L76.7,113.8L76.4,112.2L76.0,111.2L75.9,110.4L75.9,109.4L75.4,108.5L75.1,107.3L74.8,105.3L74.4,104.0L74.4,103.5L74.2,103.2L74.2,102.4L74.0,102.2L74.0,101.4L73.6,99.9L73.4,97.8L73.2,97.1L73.0,95.0L72.8,93.9L72.5,90.1L72.3,89.4L72.3,87.3L72.1,86.9L72.2,85.6L71.9,80.2L72.0,76.2L72.1,75.5L72.6,75.4L73.0,75.6L73.3,76.0L75.5,77.9L77.6,80.1L77.9,80.2L80.1,82.0L81.8,82.8L84.7,83.7L86.5,83.9L89.1,83.9L91.1,83.6L93.4,82.9L95.4,81.8L97.1,80.6L98.5,79.3L100.0,77.2L100.4,76.4L100.7,76.0L101.6,73.8L101.9,72.2L102.1,70.7L102.0,68.1L101.6,66.3L101.2,64.8L100.4,63.2L99.7,62.0L98.5,60.6L95.0,57.1L94.0,56.4L89.5,52.1L88.0,49.4L87.5,47.5L87.5,45.7L88.0,43.5L88.9,41.6L89.7,40.5L97.6,32.7L98.9,31.2L99.9,29.4L100.4,28.1L100.6,27.8L100.8,26.6L101.1,25.8L101.3,24.7L101.3,22.3L101.0,20.0L100.3,17.9L99.7,16.8L98.9,15.5L97.6,13.8L95.5,11.9L93.0,10.4Z M91.4,18.4L92.5,19.6L93.2,20.9L93.6,22.2L93.6,24.4L93.3,25.2L93.2,25.7L92.6,26.9L91.9,27.8L83.9,35.5L82.5,37.3L81.1,40.0L80.5,41.7L80.0,44.3L79.8,46.9L80.0,49.1L80.9,52.1L81.8,54.1L83.0,56.0L83.7,57.0L85.2,58.5L87.6,60.5L93.0,65.7L93.7,66.9L94.3,68.6L94.4,70.6L94.0,72.2L92.9,74.0L92.1,74.8L91.2,75.5L90.4,75.9L89.5,76.2L88.3,76.5L86.7,76.5L85.2,76.1L84.2,75.6L83.2,74.9L77.1,68.9L76.8,68.8L76.3,68.8L74.8,69.6L70.5,72.6L67.6,74.4L66.1,75.6L64.8,76.4L64.4,77.0L64.3,78.6L64.0,80.6L63.7,75.6L63.7,68.5L63.6,63.0L63.3,62.7L62.4,62.7L61.1,62.9L58.5,63.7L58.1,63.9L57.5,64.1L56.2,64.7L54.5,65.7L53.0,66.9L46.8,73.2L46.5,73.7L44.9,75.2L43.5,76.0L41.8,76.5L40.0,76.5L37.8,75.9L36.5,74.9L35.7,74.1L34.8,72.9L34.5,72.2L34.4,71.6L34.1,71.0L34.1,69.2L34.1,68.5L34.5,67.3L35.5,65.7L43.2,58.0L45.2,55.3L46.1,53.6L46.1,53.4L46.7,51.9L47.2,50.0L47.4,47.3L47.1,43.5L46.4,41.2L45.0,38.0L44.6,37.7L44.3,37.0L43.0,35.5L39.5,32.1L35.4,28.0L34.5,26.8L34.1,26.0L33.7,24.4L33.7,22.9L34.1,21.4L34.1,21.0L34.6,20.0L35.4,18.9L36.3,18.2L36.9,17.8L38.4,17.1L40.0,16.8L40.8,16.8L42.3,17.1L43.4,17.6L44.6,18.5L50.8,25.0L52.9,27.1L55.1,28.4L57.9,29.7L60.0,30.3L62.4,30.6L64.7,30.6L67.2,30.2L68.3,29.7L69.5,29.4L72.0,28.2L72.9,27.5L75.4,25.5L76.7,23.8L81.9,18.5L82.7,17.8L83.6,17.3L85.3,16.7L88.0,16.7L89.6,17.1Z" fill="#000" fill-rule="evenodd"/>
</svg>