<svg xmlns="http://www.w3.org/2000/svg" viewBox="0 0 128 128" width="128" height="128">
  <path d="M104.5,9.2L100.8,9.2L100.1,9.5L41.9,69.0L41.0,70.1L39.0,73.0L38.0,74.9L37.0,77.4L36.2,80.6L35.8,84.2L35.9,87.8L36.3,90.0L37.2,93.2L38.7,96.6L40.4,99.3L42.6,101.9L44.9,104.0L48.0,106.1L48.5,106.3L51.0,107.5L53.5,108.4L54.2,108.4L54.8,108.7L56.4,109.0L58.5,109.3L63.1,109.2L66.6,108.4L68.7,107.8L71.2,106.6L71.6,106.3L72.2,106.1L74.1,104.9L76.2,103.1L78.3,101.0L80.0,98.7L81.7,95.8L81.7,95.6L82.5,94.0L82.7,93.2L83.0,92.4L83.9,88.8L84.0,86.8L84.0,84.4L83.5,80.4L82.4,76.8L80.9,73.5L79.3,71.1L77.9,69.3L71.6,63.3L71.6,62.4L73.3,60.6L74.1,60.6L75.3,61.5L79.4,65.4L82.7,69.3L83.1,70.1L83.9,71.1L85.8,75.0L86.8,77.9L87.6,81.8L87.8,84.0L87.7,88.5L87.3,89.8L87.2,91.4L86.4,93.7L86.2,94.9L85.9,95.2L85.7,96.1L84.8,98.1L83.4,100.5L81.1,103.5L78.5,106.1L75.9,108.2L73.2,109.9L69.9,111.3L69.3,111.4L67.3,112.2L65.0,112.6L64.8,112.8L62.4,113.0L58.2,113.0L54.4,112.5L51.9,111.8L48.0,110.4L47.6,110.0L47.1,109.9L44.9,108.6L42.2,106.6L38.7,103.3L38.1,102.4L37.1,101.2L34.8,97.3L33.6,94.6L33.6,94.2L33.1,93.0L32.6,91.0L32.0,87.5L31.9,83.4L32.4,79.6L33.3,76.2L33.7,75.6L33.8,75.1L34.2,74.4L34.3,74.0L34.5,73.7L34.8,72.9L35.1,72.5L36.5,69.8L37.3,68.8L37.6,68.3L39.1,66.6L54.7,50.5L58.6,46.7L58.9,46.2L60.1,45.1L60.8,44.3L64.8,40.3L66.4,38.6L67.2,38.0L67.9,37.1L72.1,32.9L73.2,31.7L93.5,11.2L94.7,9.8L94.7,9.4L94.6,9.3L86.9,9.3L86.3,9.4L60.2,36.1L58.9,37.1L58.6,37.1L57.4,36.0L48.4,27.3L43.6,22.9L42.2,21.3L41.6,20.9L41.2,20.9L40.7,21.2L37.7,24.5L37.5,24.8L37.7,25.5L54.2,41.3L54.3,41.9L53.9,42.5L52.1,44.1L51.5,44.1L44.4,37.3L43.6,36.8L42.6,35.6L41.8,35.0L35.4,28.7L34.6,28.1L34.0,28.2L30.6,31.6L30.3,32.4L30.6,32.9L46.9,48.5L47.1,49.2L46.1,50.5L45.0,51.5L44.4,51.5L43.4,50.6L27.6,35.5L27.0,35.4L26.3,35.9L23.9,38.3L23.0,39.3L23.1,40.0L31.8,48.3L39.6,55.6L40.0,56.3L40.0,56.6L39.1,57.7L35.0,61.8L32.9,64.2L31.4,66.2L29.1,70.3L29.0,70.7L28.2,72.4L28.0,73.1L27.4,74.7L26.5,78.2L25.9,82.6L25.9,86.3L26.1,89.5L27.0,94.0L28.4,98.1L30.0,101.4L32.4,105.0L34.9,108.1L38.2,111.2L40.6,113.0L41.5,113.3L42.7,114.3L45.3,115.8L48.5,117.1L50.0,117.6L50.6,117.7L51.0,117.9L52.9,118.3L54.8,118.6L55.1,118.7L56.5,118.8L57.8,119.1L62.4,119.1L65.6,118.7L68.2,118.1L68.7,118.1L71.0,117.4L72.3,116.9L72.5,116.7L73.6,116.4L74.8,115.8L76.4,115.1L79.6,113.1L82.0,111.3L85.2,108.2L87.0,106.0L88.1,104.5L88.7,103.5L89.0,103.1L89.0,103.0L89.8,101.7L91.7,97.6L93.3,92.2L93.3,91.3L93.7,89.3L93.9,84.4L93.7,83.0L93.7,81.3L93.5,79.8L93.2,79.2L93.2,78.5L92.8,77.2L92.7,76.4L92.3,75.4L92.2,74.8L91.9,74.2L91.7,73.5L91.0,71.6L89.3,68.3L87.6,65.7L85.8,63.3L82.7,60.1L79.1,56.8L78.5,56.1L78.5,55.5L79.0,54.7L80.1,53.7L80.9,52.8L90.0,43.6L94.0,39.4L102.1,31.3L102.5,30.7L104.9,28.4L105.2,27.8L105.2,20.1L105.0,19.6L104.5,19.6L101.5,22.5L98.6,25.8L94.1,30.2L93.1,31.4L83.5,41.0L79.8,45.0L71.6,53.2L57.1,68.2L52.5,72.8L52.0,73.4L49.9,75.5L48.0,78.0L46.6,80.8L46.1,83.7L46.1,86.7L46.4,88.5L47.1,90.7L47.9,92.2L49.3,94.2L51.3,96.1L52.5,97.0L55.7,98.5L57.5,98.9L58.8,99.0L59.4,99.1L60.8,99.1L63.4,98.7L66.0,97.8L67.4,97.0L69.4,95.5L71.5,93.1L72.6,90.9L73.4,88.8L73.6,87.6L73.7,83.9L73.6,82.7L73.0,80.7L72.2,79.0L71.4,77.6L70.1,76.0L68.0,73.9L66.2,72.4L64.8,71.0L64.3,70.3L64.5,69.6L65.8,68.2L66.6,67.7L67.2,67.8L71.0,71.4L74.2,74.8L76.2,78.2L77.0,80.3L77.5,82.3L77.6,83.4L77.7,86.1L77.5,88.8L77.1,89.7L77.0,90.7L76.0,93.0L75.0,94.7L73.6,96.7L72.2,98.2L70.4,99.7L68.7,100.8L67.2,101.5L66.3,101.8L65.5,102.2L65.2,102.2L63.4,102.8L61.2,103.0L58.8,103.0L56.9,102.8L55.4,102.5L51.8,101.0L49.1,99.4L46.6,97.0L45.0,95.0L43.9,93.1L42.8,90.4L42.2,88.0L42.1,86.2L42.1,84.3L42.3,83.1L42.4,81.6L43.1,79.0L44.0,77.0L44.2,76.8L44.5,76.1L45.1,75.2L47.0,72.8L104.7,13.8L105.0,13.2L105.0,9.8Z M59.4,75.0L60.1,75.2L61.1,76.0L65.7,80.4L66.6,81.9L67.4,84.4L67.4,86.0L67.2,87.2L66.8,88.4L66.1,89.8L64.7,91.2L63.9,91.7L62.8,92.3L61.2,92.8L58.4,92.7L57.9,92.5L56.9,92.2L55.9,91.6L55.4,91.4L54.1,90.1L53.3,88.9L52.5,87.2L52.3,86.1L52.4,83.9L52.7,82.7L53.5,81.2L54.6,79.7L58.6,75.6Z" fill="#000" fill-rule="evenodd"/>
</svg>