<svg xmlns="http://www.w3.org/2000/svg" viewBox="0 0 128 128" width="128" height="128">
  <path d="M64.5,43.5L64.1,44.0L64.0,45.0L64.0,52.3L64.2,56.0L64.0,72.9L64.1,86.6L64.3,87.5L64.3,88.5L64.7,90.3L65.5,92.9L65.5,93.2L66.7,96.4L68.1,99.0L70.0,101.8L71.1,103.2L74.1,106.0L77.4,108.4L79.8,109.7L82.1,110.6L84.0,111.1L84.4,111.4L84.9,111.4L87.1,111.9L89.1,112.2L103.2,112.2L105.9,112.0L107.9,110.1L111.9,106.0L113.5,104.3L113.5,103.7L110.8,103.6L93.0,103.7L90.4,103.7L89.7,103.5L87.4,103.3L86.2,102.8L84.6,102.4L82.1,101.2L80.8,100.5L79.5,99.5L77.7,97.7L75.7,95.1L74.5,93.1L73.7,91.0L72.9,88.1L72.6,86.1L72.5,66.8L72.5,44.3L72.2,43.6L71.8,43.3L71.3,43.2L66.6,43.4L65.0,43.3Z M73.8,43.4L73.4,43.8L73.4,48.1L73.6,49.7L73.6,64.0L73.4,65.6L73.6,67.6L73.4,80.7L73.6,82.6L73.5,85.0L73.8,87.6L74.4,90.3L75.2,92.1L76.5,94.5L77.5,95.9L78.9,97.5L80.0,98.5L81.6,99.6L83.5,100.8L85.4,101.7L86.7,101.9L87.9,102.3L89.5,102.6L98.1,102.7L100.6,102.5L110.4,102.6L113.8,102.4L114.9,102.5L115.4,102.3L118.4,99.3L119.0,98.6L119.1,98.2L118.9,97.7L115.8,94.5L115.1,94.0L89.7,94.0L88.0,93.6L86.2,92.7L84.8,91.6L83.7,90.4L82.6,88.4L82.4,87.6L82.1,86.8L81.9,85.3L82.0,75.3L81.8,69.2L82.0,67.9L81.9,67.0L82.3,65.7L82.7,65.7L82.9,66.1L82.8,81.8L83.0,85.4L83.4,87.2L84.3,89.1L85.8,90.8L88.1,92.4L90.0,93.0L90.9,93.1L110.4,93.1L112.9,93.0L113.5,92.8L113.6,92.6L113.3,92.1L106.4,85.1L105.5,84.4L94.2,84.5L92.2,84.4L91.7,84.2L91.5,83.9L91.3,75.6L91.4,70.1L91.3,66.2L91.3,62.9L91.2,61.8L91.2,52.9L91.0,51.6L91.1,46.5L91.0,44.5L90.8,43.6L90.4,43.2L86.1,43.1L83.3,43.2L82.7,43.6L82.6,48.3L82.9,55.5L82.9,61.4L82.8,61.6L82.4,61.7L82.0,61.1L82.0,59.6L81.8,58.5L81.7,44.6L81.6,43.6L81.0,43.2L75.9,43.2Z M82.5,64.5L82.8,64.7L82.8,64.9L82.6,65.1L82.3,64.9L82.3,64.7Z M44.0,34.9L43.6,34.9L43.3,35.0L42.2,36.4L41.2,37.2L37.6,41.1L36.4,42.2L36.0,42.9L35.9,49.6L36.1,55.4L35.9,64.7L36.0,73.5L35.8,84.1L35.2,84.7L34.2,84.8L26.2,84.8L18.8,84.9L16.3,84.9L11.2,84.9L9.3,85.1L9.2,85.3L9.3,85.8L12.0,88.6L14.3,90.8L14.5,91.1L15.7,92.4L16.6,93.1L17.5,93.3L32.7,93.3L37.2,93.1L39.3,92.5L40.4,91.9L41.7,90.8L43.0,89.3L43.8,87.5L44.2,85.6L44.2,36.4Z M64.1,34.6L64.1,41.5L64.2,41.8L64.7,42.2L71.0,42.2L72.8,42.1L89.5,42.1L90.2,42.0L90.5,41.8L90.5,41.5L84.9,35.8L83.0,34.0L82.5,33.8L76.5,33.7L64.9,33.9L64.4,34.0Z M53.2,25.2L52.8,25.3L46.0,32.3L45.5,33.2L45.5,62.9L45.4,85.2L45.0,87.2L44.6,88.5L43.7,90.1L43.1,91.0L42.1,92.0L40.3,93.2L38.9,93.9L37.7,94.2L36.3,94.4L18.5,94.5L18.4,94.7L18.4,95.2L21.2,98.0L21.3,98.7L20.4,100.0L18.4,102.0L18.3,102.3L18.4,102.7L36.6,102.8L39.0,102.5L42.0,101.7L43.1,101.3L44.8,100.2L45.6,99.9L47.9,98.0L49.3,96.6L51.0,94.3L52.4,91.5L53.5,87.6L53.7,84.3L53.5,72.6L53.7,67.4L53.5,64.9L53.6,42.2L53.4,39.5L53.6,31.7L53.4,30.8L53.5,27.0L53.3,25.3Z M64.0,24.9L63.9,30.7L64.0,32.1L64.2,32.6L64.4,32.6L80.4,32.6L80.9,32.4L80.8,31.8L75.7,26.6L73.3,24.5L71.8,24.3L65.6,24.3L64.5,24.4Z M62.4,16.0L62.1,15.9L58.7,19.3L55.1,23.2L54.7,23.9L54.6,37.5L54.8,41.8L54.8,72.6L54.6,86.3L54.5,87.8L53.9,90.3L53.7,90.7L53.3,91.8L52.9,92.6L52.9,92.8L52.0,94.5L51.1,95.9L49.9,97.5L47.1,100.1L44.1,101.9L41.3,103.1L39.3,103.6L37.6,103.8L17.3,104.1L16.4,104.2L10.6,110.1L9.2,111.8L9.2,112.3L14.2,112.4L21.1,112.3L35.2,112.4L39.5,112.1L41.8,111.7L42.7,111.4L43.7,111.2L45.4,110.7L48.6,109.2L49.6,108.6L50.0,108.2L51.1,107.7L52.8,106.4L54.1,105.2L56.9,102.3L58.8,99.5L60.6,96.4L61.8,93.2L62.9,88.5L63.1,84.9L63.1,49.8L62.9,45.4L62.9,23.4L62.7,20.4L62.8,18.7L62.6,17.6L62.6,16.1Z M63.9,15.9L63.8,18.4L63.9,22.8L64.7,23.3L68.4,23.4L70.8,23.3L71.4,23.1L71.5,22.8L71.3,22.4L67.0,18.1L66.4,17.6L64.5,15.8Z" fill="#000" fill-rule="evenodd"/>
</svg>