<svg xmlns="http://www.w3.org/2000/svg" viewBox="0 0 128 128" width="128" height="128">
  <path d="M53.0,57.1L52.7,57.1L51.9,57.6L51.3,58.5L51.0,63.7L50.6,78.9L49.9,81.4L48.3,83.5L47.0,84.6L45.8,85.2L44.6,85.4L43.0,85.5L41.6,85.2L40.5,84.8L38.8,83.8L37.8,82.6L37.3,81.6L36.8,80.1L36.6,79.1L36.6,77.9L37.3,75.5L37.8,74.4L39.3,72.8L41.1,71.8L42.8,71.3L48.8,71.2L49.2,71.0L49.6,70.5L49.6,69.5L49.3,69.0L48.9,68.8L46.0,68.7L42.8,68.8L40.5,69.5L38.8,70.4L37.5,71.4L35.9,73.3L35.2,74.6L34.7,76.0L34.4,77.8L34.4,79.7L34.9,81.8L35.4,83.2L36.5,84.8L38.2,86.4L39.6,87.1L40.6,87.5L42.6,87.9L44.4,87.9L47.0,87.1L48.7,86.2L49.8,85.2L51.3,83.4L52.0,82.0L52.8,79.9L52.9,77.6L52.9,75.9L53.1,73.1L53.0,71.8L53.2,69.8L53.2,66.1L53.5,58.2L53.4,57.6Z M56.6,55.3L56.1,55.2L55.4,55.6L54.8,56.2L54.6,57.3L54.5,63.7L54.1,72.8L54.1,76.4L53.9,79.5L53.7,80.9L53.0,82.6L52.0,84.4L51.5,85.2L49.4,87.0L47.0,88.4L46.5,88.4L45.6,88.8L44.5,88.9L41.4,88.9L38.7,87.9L37.0,86.8L35.4,85.2L34.3,83.4L33.6,81.9L33.2,80.2L33.3,76.7L33.7,75.7L34.1,74.4L34.6,73.2L35.4,72.0L37.4,70.0L38.2,69.4L39.6,68.7L41.9,67.9L43.1,67.7L48.8,67.7L49.7,66.8L49.7,66.6L49.7,65.9L49.3,65.4L48.2,65.2L43.3,65.2L40.7,65.6L39.7,65.9L38.1,66.7L36.4,67.7L34.2,69.7L32.8,71.7L31.8,73.6L31.0,76.4L30.8,79.4L31.2,81.8L32.2,84.7L33.6,87.0L35.2,88.5L36.4,89.4L37.3,90.0L40.1,91.2L42.4,91.5L44.4,91.5L46.1,91.2L47.4,90.7L48.0,90.7L49.1,90.0L49.6,89.8L52.0,88.0L53.6,86.3L55.0,84.0L55.2,83.4L55.7,82.5L56.2,80.4L56.3,79.0L56.5,75.1L56.4,73.7L56.6,72.3L56.5,70.2L56.6,69.3L56.9,59.7L56.9,55.8L56.8,55.4Z M60.3,53.1L59.4,53.1L58.4,54.0L58.2,54.6L58.0,59.3L57.9,60.8L58.0,62.2L57.5,75.5L57.5,78.7L57.1,81.4L56.5,83.3L56.0,84.4L54.6,86.7L52.5,89.0L50.1,90.7L48.1,91.6L46.9,92.1L44.2,92.6L42.4,92.6L41.0,92.4L38.9,91.8L36.8,90.9L34.6,89.4L33.2,88.0L32.2,86.7L30.6,83.6L30.2,82.2L29.9,80.1L29.9,76.4L30.4,74.6L31.2,72.4L32.1,70.7L33.0,69.5L35.0,67.4L37.3,65.8L39.3,64.9L40.2,64.7L43.0,64.2L47.6,64.2L49.1,64.0L49.4,63.9L49.8,63.3L49.7,62.2L49.2,61.7L42.8,61.7L40.3,62.1L38.7,62.6L36.4,63.6L34.1,65.1L31.8,67.2L30.1,69.5L28.6,72.3L28.0,74.1L27.9,74.9L27.6,75.5L27.4,77.4L27.4,80.4L27.7,82.5L28.5,85.2L30.3,88.3L32.8,91.1L35.5,93.0L36.9,93.8L40.3,94.8L44.6,94.9L47.6,94.4L49.8,93.5L52.5,92.0L54.9,90.0L56.1,88.6L57.6,86.5L58.4,84.9L59.1,83.0L59.8,80.1L60.0,75.5L60.1,70.0L60.3,68.4L60.3,61.4L60.5,59.8L60.5,53.5Z M63.9,51.0L63.2,51.0L62.5,51.4L61.9,52.0L61.7,52.6L61.2,70.0L61.0,70.7L60.8,79.8L60.7,81.0L60.0,83.5L58.9,86.2L58.5,86.7L57.3,88.8L56.5,89.6L56.1,90.2L54.4,91.8L52.9,93.0L52.2,93.3L51.5,93.9L49.9,94.6L47.9,95.3L46.0,95.8L45.3,95.8L44.7,95.9L41.7,95.9L40.1,95.8L37.0,94.9L34.5,93.6L33.3,92.8L31.4,91.2L30.4,90.0L29.1,88.4L27.6,85.3L27.4,84.6L27.2,84.4L27.0,83.2L26.6,82.1L26.4,80.6L26.5,76.1L27.2,73.2L27.6,71.8L29.5,68.3L31.2,66.3L32.8,64.8L35.0,63.1L35.7,62.9L36.4,62.4L40.1,61.1L41.1,61.0L42.4,60.7L43.7,60.6L47.2,60.7L49.3,60.5L49.8,59.9L49.8,58.6L49.5,58.3L48.9,58.0L42.9,58.1L40.1,58.5L37.4,59.3L34.8,60.4L32.9,61.6L32.2,62.2L31.8,62.3L29.8,64.1L28.1,66.1L27.2,67.4L27.0,68.1L26.2,69.1L25.8,70.3L25.4,70.8L24.4,74.2L23.9,76.6L23.9,78.1L24.0,81.7L24.2,82.1L24.4,83.9L24.8,84.7L25.2,86.2L26.1,88.2L26.7,89.0L27.2,90.2L28.5,91.9L31.8,94.9L34.5,96.6L36.6,97.3L36.8,97.5L38.7,98.1L41.0,98.5L43.5,98.5L45.8,98.4L48.1,97.9L50.1,97.2L53.5,95.5L56.2,93.5L58.0,91.6L59.2,90.2L59.6,89.5L59.9,89.2L61.6,86.2L62.2,84.4L62.5,83.8L63.3,80.2L63.7,73.0L63.6,71.4L64.0,61.5L64.2,51.8L64.1,51.3Z M88.3,41.9L86.6,41.4L84.1,41.4L83.1,41.6L80.8,42.6L79.4,43.5L77.8,45.1L77.1,46.2L76.3,47.9L75.9,49.4L75.7,51.0L75.8,52.2L75.5,56.2L75.4,66.4L75.2,67.9L75.2,71.5L75.4,71.9L75.5,72.0L76.1,72.0L76.8,71.7L77.2,71.3L77.4,70.5L77.7,65.8L77.7,62.0L77.8,60.7L77.9,53.5L78.1,50.5L78.3,49.5L78.7,48.0L79.8,46.4L80.6,45.6L81.7,44.8L82.5,44.4L84.3,43.9L86.1,43.9L87.1,44.1L88.9,44.8L90.2,45.9L90.9,46.8L91.5,47.8L92.1,49.7L92.1,51.8L91.5,53.9L91.2,54.3L90.9,54.9L89.8,56.2L88.6,57.1L87.8,57.6L87.5,57.6L87.2,57.8L86.1,58.1L79.7,58.3L79.3,58.5L79.1,59.0L79.1,59.9L79.5,60.4L79.8,60.6L80.6,60.7L85.9,60.6L88.3,59.9L90.0,59.0L91.1,58.2L92.0,57.3L93.1,55.6L93.7,54.4L94.2,52.7L94.4,51.1L94.3,49.2L93.7,47.0L92.7,45.2L91.5,43.8L89.9,42.7Z M91.7,39.5L89.7,38.5L86.9,37.8L83.6,37.8L81.5,38.3L79.5,39.2L77.7,40.3L75.7,42.2L74.8,43.3L73.8,44.9L73.0,46.9L72.4,48.9L71.7,73.7L72.0,74.0L72.8,74.0L73.5,73.5L73.8,73.0L74.0,72.3L74.2,66.9L74.2,64.1L74.4,62.7L74.4,59.4L74.6,57.1L74.7,49.7L75.2,47.7L75.8,46.3L76.0,46.0L76.5,45.1L78.8,42.5L81.1,41.2L83.2,40.5L84.3,40.4L86.8,40.4L88.4,40.9L88.9,40.9L90.9,41.9L92.8,43.5L93.2,44.2L93.7,44.7L94.8,46.7L95.3,48.3L95.5,50.1L95.3,52.8L95.2,53.6L94.9,54.2L94.5,55.3L93.3,57.4L92.8,58.0L90.9,59.7L89.3,60.7L86.9,61.5L85.3,61.7L81.0,61.7L79.9,61.7L79.4,61.9L79.1,62.2L78.9,62.9L79.0,63.6L79.3,64.0L82.0,64.3L86.1,64.2L88.1,63.8L89.3,63.4L90.9,62.6L93.0,61.1L94.5,59.6L95.9,57.6L96.1,57.1L96.6,56.4L97.1,54.9L97.3,54.6L97.8,52.0L97.8,49.3L97.4,46.9L96.8,45.2L96.0,43.6L95.1,42.4L93.0,40.4Z M93.9,36.7L91.6,35.4L89.7,34.8L87.9,34.4L84.8,34.2L82.6,34.5L82.3,34.6L80.7,34.9L80.6,35.0L78.7,35.7L77.6,36.3L75.3,37.8L73.5,39.5L71.5,41.9L70.2,44.4L69.4,46.7L68.8,50.2L68.7,57.2L68.6,58.8L68.4,66.1L68.2,67.2L68.2,70.8L68.1,71.9L68.1,75.8L68.4,76.2L69.2,76.1L70.0,75.6L70.4,75.0L70.5,74.1L70.6,70.3L70.8,69.1L71.4,49.3L71.6,47.9L72.5,45.2L73.7,43.0L74.9,41.5L76.2,40.2L78.4,38.6L81.5,37.3L84.4,36.8L86.7,36.8L88.9,37.2L90.3,37.7L92.2,38.6L94.4,40.1L95.8,41.7L96.5,42.6L97.9,45.2L98.5,47.0L98.9,49.1L98.8,52.9L97.8,56.3L97.1,57.8L96.0,59.5L93.9,61.7L92.0,63.1L90.1,64.1L88.4,64.7L85.7,65.2L81.3,65.2L79.3,65.4L79.0,65.8L78.7,66.4L78.9,67.3L79.3,67.7L80.4,67.8L85.2,67.8L88.0,67.4L89.8,66.9L92.6,65.6L94.1,64.7L96.6,62.5L98.1,60.6L99.5,58.3L99.7,57.6L100.3,56.6L100.9,54.4L101.3,51.6L101.3,49.1L101.1,47.4L100.4,44.6L98.8,41.5L96.7,38.9L95.3,37.7Z M97.0,34.3L95.0,33.1L93.7,32.4L91.0,31.3L89.8,31.2L88.9,30.8L87.5,30.7L83.9,30.6L82.5,30.8L80.1,31.3L77.5,32.3L75.9,33.1L75.6,33.4L74.0,34.3L71.1,36.8L69.4,38.9L67.8,41.4L66.6,44.0L66.0,45.8L65.4,48.8L65.2,51.4L65.0,55.4L65.1,56.5L64.9,58.7L64.8,67.0L64.4,76.6L64.5,78.0L64.8,78.3L65.2,78.3L66.3,77.8L66.7,77.4L67.0,76.6L67.4,64.5L67.6,62.7L67.8,49.4L68.2,47.2L68.7,45.5L70.1,42.3L71.4,40.3L72.7,38.7L74.0,37.5L75.5,36.4L77.4,35.2L78.9,34.6L79.4,34.3L81.5,33.6L85.1,33.1L87.8,33.3L89.8,33.7L90.7,34.1L91.8,34.4L94.7,35.9L96.2,37.0L98.7,39.6L100.0,41.6L100.8,43.3L101.1,44.2L101.6,45.4L102.0,46.9L102.1,47.8L102.2,48.1L102.3,51.6L101.9,54.5L101.6,55.3L101.4,56.3L100.6,58.5L99.0,61.2L98.0,62.2L97.7,62.7L95.3,64.9L94.2,65.8L91.9,67.1L87.9,68.4L86.5,68.6L83.3,68.6L82.3,68.8L79.4,68.9L79.1,69.1L78.7,69.5L78.7,70.4L78.8,70.9L79.4,71.3L80.2,71.4L85.0,71.4L85.9,71.2L87.0,71.2L90.0,70.5L93.8,69.0L96.5,67.2L98.1,65.8L98.5,65.5L100.6,63.1L102.9,59.2L104.2,55.3L104.6,53.4L104.8,51.9L104.7,47.3L104.4,46.2L104.2,45.0L103.9,44.3L103.2,42.2L103.0,41.9L102.6,40.8L102.2,40.5L102.0,39.9L100.4,37.7L99.1,36.2Z M67.7,9.2L63.0,9.2L60.7,9.6L58.7,9.7L57.3,10.0L53.5,10.5L52.3,10.9L51.1,11.0L49.1,11.8L48.3,11.9L47.4,12.2L46.7,12.6L45.6,12.9L44.2,13.5L43.0,13.9L41.5,14.7L40.9,14.9L39.0,16.1L37.4,16.8L37.1,17.1L36.1,17.6L34.4,18.8L33.6,19.4L32.7,19.9L30.6,21.7L30.1,22.0L26.7,25.2L23.5,28.6L22.1,30.5L21.6,31.1L20.7,32.4L19.4,34.1L18.7,35.5L17.9,36.7L17.1,38.2L16.9,38.5L15.3,41.7L14.6,43.7L13.6,45.9L12.7,48.6L12.6,49.3L12.4,49.8L11.5,53.1L11.5,53.6L10.7,57.7L10.5,59.9L10.2,64.9L10.3,68.5L10.7,72.8L11.0,74.0L11.1,75.1L11.4,76.0L11.5,77.3L12.8,82.0L14.3,86.1L15.6,89.0L16.3,90.2L16.7,91.2L19.4,95.8L20.6,97.4L20.7,97.8L22.6,100.3L25.8,103.7L29.6,107.3L29.9,107.3L32.2,109.3L35.8,111.6L36.9,112.2L37.4,112.6L38.2,113.0L38.5,113.0L39.2,113.5L41.9,114.8L43.8,115.5L44.3,115.8L45.1,116.0L47.0,116.7L48.1,116.9L48.8,117.2L51.5,117.8L52.5,118.1L54.3,118.3L55.9,118.7L62.5,119.1L66.5,118.9L67.1,118.8L68.0,118.8L71.8,118.3L74.2,117.8L76.9,117.0L77.3,117.0L78.1,116.6L79.2,116.4L79.9,116.0L81.1,115.7L82.4,115.1L82.9,115.1L85.3,114.0L87.4,112.8L87.8,112.8L92.0,110.3L93.5,109.1L94.4,108.7L96.2,107.2L96.7,106.8L100.9,103.1L105.6,98.0L105.9,97.5L107.1,96.0L107.3,95.6L108.4,94.1L109.2,92.8L109.3,92.5L109.7,92.0L110.1,91.1L110.6,90.4L110.7,90.1L111.0,89.8L112.3,87.4L113.4,84.8L115.4,79.5L116.7,74.7L117.7,68.9L117.7,68.1L117.9,66.5L118.0,63.6L117.9,58.4L117.6,57.0L117.4,54.7L117.1,53.4L117.0,52.3L115.7,46.9L114.1,42.3L113.4,41.0L112.5,38.7L111.6,37.2L111.1,36.0L109.7,34.0L108.9,32.4L104.8,27.1L100.6,22.9L96.4,19.4L95.3,18.7L95.1,18.4L93.5,17.6L92.7,17.0L88.3,14.5L85.6,13.3L81.9,12.0L79.6,11.4L78.9,11.0L75.4,10.2L72.9,9.9L72.0,9.7L68.4,9.4Z M61.8,18.3L67.7,18.3L68.9,18.4L69.5,18.4L75.3,19.3L78.3,20.2L82.8,21.8L85.6,23.2L86.6,23.9L87.3,24.1L88.8,25.2L89.3,25.4L91.6,27.2L92.4,27.6L95.8,30.7L98.3,33.4L100.8,36.7L102.0,38.5L102.3,39.2L103.0,40.0L103.5,41.0L104.2,42.1L106.4,46.9L107.6,50.6L107.9,51.4L108.9,56.2L109.3,60.1L109.3,66.6L108.7,70.8L108.4,71.9L108.2,73.5L108.0,74.5L107.6,75.5L107.5,76.1L106.9,77.6L106.8,78.4L106.4,79.1L106.4,79.7L104.5,83.8L103.7,85.2L103.6,85.6L102.8,86.8L102.7,87.1L98.9,92.8L98.2,93.4L97.3,94.6L95.2,96.8L91.6,100.1L88.2,102.6L84.5,104.9L83.9,105.0L81.0,106.6L75.5,108.6L74.8,108.7L73.7,109.1L72.9,109.1L71.5,109.6L70.4,109.6L69.6,109.9L67.2,110.1L66.8,110.3L65.3,110.4L60.2,110.4L58.3,110.1L56.2,110.0L55.1,109.6L53.7,109.5L52.0,109.0L51.6,109.0L50.8,108.7L49.7,108.5L49.3,108.2L48.3,108.0L46.5,107.2L46.0,107.1L41.3,104.8L40.7,104.3L40.1,104.1L37.4,102.2L36.3,101.3L36.0,101.2L33.2,98.7L30.1,95.4L29.9,95.1L28.5,93.5L26.3,90.4L24.1,86.6L23.5,85.2L23.0,84.4L22.6,83.3L22.2,82.6L21.3,80.3L19.9,75.5L18.9,69.4L18.9,67.8L18.8,66.3L18.9,60.9L19.6,57.0L19.6,56.3L20.3,53.9L20.5,52.5L22.0,48.1L23.5,44.5L25.3,41.1L28.1,36.8L29.5,35.2L30.8,33.7L31.0,33.4L33.3,31.0L35.6,28.9L36.2,28.5L37.8,27.2L41.0,25.1L41.4,24.8L42.8,24.1L44.2,23.2L46.3,22.3L46.8,22.0L47.6,21.8L47.9,21.6L50.0,20.8L50.6,20.5L52.9,19.9L53.4,19.7L53.8,19.7L57.6,18.8L59.0,18.7L60.1,18.4L61.1,18.4Z" fill="#000" fill-rule="evenodd"/>
</svg>