<svg xmlns="http://www.w3.org/2000/svg" viewBox="0 0 128 128" width="128" height="128">
  <path d="M9.3,20.5L9.3,21.2L11.8,24.7L12.7,25.6L13.8,27.1L15.5,29.0L15.8,29.5L19.0,33.4L19.8,34.4L20.6,35.2L23.2,38.4L24.7,40.3L27.2,43.1L27.3,43.4L28.8,45.1L29.7,46.3L32.3,49.1L34.4,52.0L35.1,52.6L36.0,54.0L36.3,57.4L36.3,63.0L36.4,64.0L36.3,69.0L36.5,70.8L36.5,79.8L36.7,86.9L36.7,101.8L36.8,104.1L37.0,104.5L36.8,105.1L36.8,107.2L37.0,108.1L37.5,108.5L40.7,108.5L42.3,108.7L43.7,108.7L44.7,108.6L47.9,108.6L50.4,109.0L50.8,109.7L51.1,113.4L51.0,115.7L51.2,116.8L51.4,117.2L51.9,117.4L55.2,117.4L56.6,117.7L58.2,117.6L60.1,117.8L74.1,117.7L74.4,117.4L74.5,117.2L74.5,110.0L74.6,109.8L75.2,109.2L76.0,109.0L87.8,109.2L88.6,109.0L88.9,108.6L88.9,100.1L88.6,99.3L88.2,98.6L87.3,97.7L86.1,96.2L85.2,95.3L82.4,92.0L79.1,88.5L78.3,87.3L77.1,86.1L75.3,84.1L74.7,83.5L74.5,83.2L72.7,81.1L72.2,80.7L68.1,75.9L66.4,74.2L65.9,73.3L64.7,72.2L62.8,70.0L62.7,69.7L60.5,67.5L60.4,67.2L59.2,65.7L57.7,64.3L55.0,61.0L54.2,60.3L53.7,59.6L52.1,57.9L51.6,57.2L50.4,56.0L50.3,55.6L48.1,53.2L47.8,52.7L46.3,51.2L45.0,49.5L44.2,48.7L41.1,45.0L40.2,44.1L39.2,42.8L37.9,41.4L37.8,41.1L36.2,39.5L34.7,37.5L28.5,30.4L27.4,29.0L26.5,28.1L25.8,27.1L23.9,25.0L20.5,20.6L19.8,20.2L18.6,20.1L9.7,20.3Z M46.3,66.4L46.7,66.4L46.9,66.6L50.4,70.4L51.1,71.1L51.5,71.7L53.2,73.6L54.7,75.5L55.9,76.7L56.8,77.9L57.6,78.6L59.4,80.9L66.4,88.6L66.7,89.2L67.9,90.4L68.8,91.5L70.3,93.1L70.4,93.4L73.4,96.6L74.4,98.1L74.4,98.7L74.0,98.9L68.2,98.9L59.2,98.9L55.7,98.7L52.7,98.8L50.7,98.6L47.9,98.6L47.1,98.5L46.5,97.9L46.3,96.6L46.3,88.1L46.1,83.3L46.2,82.8L46.0,79.7L46.1,76.5L45.9,72.9L45.9,66.8Z M36.3,20.0L36.1,20.3L35.9,21.0L35.9,28.5L36.4,29.8L39.0,32.6L41.9,36.2L43.8,38.2L46.8,41.9L52.0,47.7L52.2,48.0L53.9,49.8L54.4,50.5L55.3,51.5L58.4,55.2L59.9,56.6L62.6,59.9L70.2,68.2L71.2,69.6L72.1,70.4L73.3,71.9L76.9,75.7L78.2,77.3L79.4,78.5L82.4,82.0L84.5,84.2L86.0,86.1L90.4,90.9L91.3,91.7L91.7,92.5L94.1,94.9L94.9,96.1L95.6,96.6L95.7,96.9L96.9,98.1L97.9,99.3L100.2,101.7L101.3,103.1L102.9,104.8L103.0,105.0L104.5,106.6L104.7,107.0L106.6,109.0L107.5,109.3L113.3,109.4L118.7,109.4L119.1,109.1L118.9,108.4L117.4,106.7L113.9,102.9L111.6,100.1L109.0,97.5L108.4,96.7L106.5,94.7L105.4,93.3L104.1,92.1L103.7,91.4L101.5,89.2L98.6,85.8L98.0,85.3L97.4,84.5L96.2,83.3L95.7,82.5L90.4,76.8L90.1,76.4L89.1,75.4L88.6,74.6L88.5,73.8L88.5,68.8L88.3,67.8L88.4,64.5L88.2,62.0L88.3,60.1L88.1,58.8L88.2,56.8L88.0,47.9L88.1,45.5L87.9,43.5L88.0,39.3L87.8,37.0L87.7,21.5L87.6,19.8L87.2,19.4L86.9,19.4L74.0,19.4L73.6,19.3L73.2,18.8L73.0,18.3L72.9,11.1L72.5,10.6L72.0,10.4L68.8,10.4L65.6,10.6L54.7,10.6L50.0,10.9L49.6,11.2L49.5,11.5L49.5,18.9L49.5,19.2L49.1,19.5L48.7,19.7L47.8,19.8L36.7,19.8Z M48.8,28.9L49.9,28.7L76.6,28.6L77.4,28.7L77.8,29.1L78.0,29.4L78.4,46.6L78.3,49.0L78.5,51.1L78.4,54.1L78.5,55.4L78.5,60.7L78.5,62.0L78.2,62.3L77.8,62.3L77.3,62.0L75.6,60.3L75.2,59.6L72.5,56.8L71.6,55.6L68.4,52.2L67.2,50.7L65.3,48.8L62.0,44.8L60.3,43.1L60.1,42.8L55.6,37.8L55.2,37.1L52.4,34.1L51.7,33.1L49.6,30.8L48.7,29.5L48.7,29.1Z" fill="#000" fill-rule="evenodd"/>
</svg>