<svg xmlns="http://www.w3.org/2000/svg" viewBox="0 0 128 128" width="128" height="128">
  <path d="M54.5,9.2L53.9,9.5L53.7,9.8L53.5,16.3L53.1,16.7L34.3,17.0L32.9,17.0L32.4,17.4L32.2,19.3L32.2,21.7L32.0,22.5L31.8,26.7L31.7,27.9L31.6,32.6L31.2,37.5L31.0,43.1L30.8,45.2L30.7,49.6L30.3,54.9L30.2,59.6L30.0,61.8L29.7,69.4L29.6,70.1L29.4,76.9L29.1,80.8L29.1,83.1L28.9,84.1L28.8,89.3L28.7,90.0L28.4,99.4L28.2,102.3L28.2,104.7L28.0,105.8L27.9,110.0L28.6,110.4L34.4,110.5L37.1,110.3L51.4,110.3L52.0,110.5L52.4,110.9L52.5,113.7L52.3,118.8L52.7,119.1L65.2,119.1L67.2,118.9L68.6,118.9L69.2,119.1L74.9,118.9L75.3,118.8L75.4,118.4L75.3,111.1L75.4,110.7L75.8,110.3L76.4,110.2L78.0,110.1L89.3,110.1L99.7,109.9L100.1,109.7L100.2,109.3L99.9,104.5L99.8,100.9L99.7,100.0L99.6,96.7L99.3,94.4L99.3,92.8L99.2,92.1L99.2,90.6L98.6,82.9L98.5,79.9L98.3,78.2L98.2,74.6L98.0,73.8L97.9,69.3L97.7,68.4L97.4,62.1L97.2,61.3L97.1,58.3L96.7,54.1L96.2,45.2L96.0,43.3L96.0,41.1L95.7,37.5L95.5,36.9L95.3,31.2L94.9,28.7L94.9,26.5L94.5,21.9L94.4,17.8L94.1,16.9L93.9,16.6L92.5,16.5L81.0,16.6L74.1,16.6L73.2,16.5L72.9,16.2L72.8,15.8L72.7,9.9L72.5,9.5L71.9,9.1L58.6,9.1L55.1,9.3Z M97.1,83.2L97.3,88.6L97.5,89.2L97.8,96.2L98.0,98.0L98.1,101.7L98.3,102.6L98.4,105.4L98.5,106.7L98.4,107.7L98.2,108.0L97.9,108.2L90.1,108.4L59.9,108.5L50.5,108.8L31.8,108.9L31.0,108.7L31.0,108.3L31.7,108.0L35.7,106.5L36.6,106.0L39.5,105.0L42.3,103.7L43.5,103.4L44.6,102.8L46.3,102.3L49.5,100.9L51.1,100.4L53.1,99.5L53.4,99.5L53.7,99.3L56.4,98.3L56.9,98.0L58.1,97.6L59.1,97.1L59.3,97.1L60.3,96.7L61.2,96.4L63.6,95.4L65.4,94.7L66.0,94.4L66.6,94.2L68.1,93.6L68.6,93.5L69.3,93.1L70.1,92.9L70.6,92.6L72.1,92.1L72.6,91.8L74.4,91.2L74.9,90.9L76.6,90.3L77.6,89.8L78.1,89.7L78.7,89.4L79.0,89.4L79.5,89.1L80.5,88.8L81.8,88.2L82.7,88.0L86.2,86.5L87.3,86.2L91.1,84.5L91.4,84.5L92.2,84.1L93.2,83.8L93.4,83.6L93.6,83.6L94.4,83.2L96.2,82.7L96.7,82.7Z M96.9,81.4L96.6,81.8L95.8,81.8L90.5,80.2L90.0,80.0L86.1,79.0L84.5,78.4L82.6,78.0L81.8,77.7L81.0,77.6L79.5,77.1L77.9,76.7L77.3,76.4L76.3,76.2L73.9,75.4L71.5,74.9L70.8,74.5L69.8,74.4L69.2,74.0L68.8,74.0L66.2,73.2L65.2,73.1L64.7,72.8L63.5,72.6L62.8,72.3L61.7,72.1L61.2,71.8L58.9,71.3L58.2,71.0L57.2,70.8L56.6,70.5L54.4,70.0L53.3,69.6L52.6,69.5L51.3,69.0L49.7,68.7L46.7,67.7L46.0,67.6L45.0,67.2L44.6,67.2L42.4,66.5L39.8,65.8L39.3,65.6L38.1,65.3L37.6,65.1L35.2,64.4L34.8,64.2L33.5,64.0L33.0,63.6L33.0,63.3L33.3,63.1L34.7,62.7L37.4,61.5L39.5,61.0L40.5,60.5L44.0,59.2L44.8,59.1L47.3,58.1L52.7,56.4L53.5,56.0L59.5,54.0L61.4,53.2L62.8,52.9L64.1,52.3L66.1,51.8L66.2,51.6L67.3,51.4L68.9,50.7L70.1,50.4L71.7,49.7L73.8,49.1L74.1,48.8L75.5,48.5L76.8,47.9L80.5,46.8L80.6,46.6L81.7,46.4L82.1,46.1L82.7,46.1L83.4,45.7L85.8,45.0L86.2,44.8L87.3,44.5L91.6,42.9L92.9,42.5L93.8,42.4L94.1,42.5L94.4,42.9L94.6,44.9L94.7,47.7L94.9,49.9L94.9,51.7L95.3,54.7L95.4,58.3L95.8,61.1L95.8,63.1L95.9,63.8L95.9,65.5L96.4,71.5L96.5,74.7L96.7,76.5L96.7,79.0Z M94.3,41.0L93.9,41.4L93.2,41.4L91.8,40.7L91.0,40.5L90.6,40.3L87.3,39.2L85.5,38.3L83.8,37.8L83.5,37.5L82.6,37.4L82.3,37.1L79.0,36.0L78.7,35.7L77.9,35.6L77.4,35.3L76.6,35.1L75.9,34.7L74.9,34.4L74.0,33.9L73.1,33.7L72.7,33.5L71.8,33.2L71.4,33.0L70.7,32.8L69.2,32.1L67.0,31.4L66.6,31.1L66.3,31.1L63.8,30.0L62.3,29.6L60.1,28.6L57.8,27.8L55.9,27.0L55.4,27.0L54.7,26.5L52.9,26.0L49.8,24.7L46.4,23.5L45.7,23.1L44.3,22.7L43.4,22.2L41.4,21.6L41.2,21.4L40.5,21.3L39.9,20.9L37.9,20.3L36.5,19.6L35.6,19.3L35.3,19.0L35.3,18.7L35.8,18.6L38.0,18.7L47.5,18.4L66.6,18.3L76.2,18.1L92.3,18.2L92.7,18.7L92.8,20.6L93.0,21.3L93.0,23.1L93.2,23.9L93.2,26.1L93.5,28.0L93.6,32.3L93.8,33.4L94.1,37.9L94.2,38.7Z" fill="#000" fill-rule="evenodd"/>
</svg>