<svg xmlns="http://www.w3.org/2000/svg" viewBox="0 0 128 128" width="128" height="128">
  <path d="M59.5,9.2L57.6,9.4L57.2,9.7L55.5,15.8L55.2,16.2L54.6,16.4L52.5,16.8L51.6,17.2L50.6,17.2L49.9,17.6L47.9,18.0L47.0,18.5L45.5,18.8L44.6,18.4L40.7,14.3L39.9,14.1L38.7,14.6L37.2,15.5L35.1,16.6L33.2,18.0L32.5,18.3L31.4,19.2L30.9,19.8L31.0,21.2L31.4,23.1L31.7,23.9L31.9,25.5L32.1,26.1L32.1,26.6L32.0,27.0L27.9,31.0L25.4,33.9L24.7,33.9L23.7,33.7L22.8,33.4L19.5,32.5L18.6,32.5L18.3,32.7L16.4,35.7L15.9,36.8L15.2,38.0L14.2,39.9L13.7,41.1L13.8,42.3L18.0,46.2L18.3,46.9L18.1,48.1L17.2,50.8L17.0,52.1L16.7,53.1L16.3,55.4L15.6,56.1L14.7,56.3L14.3,56.5L11.3,57.5L10.7,57.8L10.1,58.0L9.6,58.3L9.4,58.9L9.2,61.5L9.2,65.1L9.4,66.0L9.4,67.8L9.7,69.0L14.1,70.9L16.0,71.5L16.5,72.1L16.7,72.8L17.5,76.4L17.8,77.0L18.3,79.0L19.1,80.8L19.1,81.4L18.9,81.7L16.6,83.9L15.0,85.7L14.7,86.2L14.7,86.8L15.3,88.3L16.7,90.6L17.2,91.6L19.5,95.1L20.2,95.7L21.6,95.6L22.5,95.3L24.6,94.9L25.8,94.5L27.0,94.5L31.0,98.7L33.8,101.2L34.0,101.6L33.9,103.7L32.9,107.9L32.9,108.2L33.3,108.7L34.1,109.2L35.1,110.0L36.6,110.8L37.0,111.2L37.3,111.2L38.3,112.0L41.9,113.7L42.6,113.6L43.3,112.7L46.6,109.5L47.5,109.2L48.1,109.5L48.8,109.5L50.8,110.4L52.1,110.6L53.6,111.2L55.2,111.4L56.4,111.9L57.0,112.9L57.1,113.8L57.9,116.2L58.1,117.6L58.4,118.3L58.8,118.6L59.3,118.7L60.7,118.7L62.1,119.0L68.9,119.0L69.2,118.8L69.6,118.3L70.1,116.0L71.1,112.9L71.9,112.1L75.6,111.5L76.1,111.2L77.2,111.1L79.0,110.6L79.4,110.4L80.5,110.0L81.4,110.0L82.3,110.6L85.9,114.2L86.6,114.6L87.1,114.6L87.7,114.1L88.5,113.9L88.9,113.6L91.0,112.6L91.3,112.4L94.7,110.4L95.9,109.5L96.0,108.4L95.6,107.5L95.5,106.6L94.9,103.9L94.7,103.7L94.7,102.3L95.4,101.6L97.1,100.3L100.5,96.9L100.6,96.6L101.5,95.7L102.6,95.6L103.8,95.9L104.7,96.0L107.7,96.9L108.4,96.9L108.9,96.7L109.2,96.4L110.9,93.7L111.2,93.4L111.9,91.9L113.7,88.9L114.1,87.7L113.9,86.9L110.0,82.9L109.5,82.0L109.5,81.5L109.8,80.8L111.0,77.2L111.1,76.0L111.4,75.1L111.8,73.4L111.9,73.0L112.7,72.4L113.8,72.3L114.5,71.9L115.3,71.8L115.7,71.5L118.1,71.1L118.6,70.7L118.9,69.8L119.1,67.0L119.0,61.8L118.9,60.0L118.7,59.6L118.4,59.3L117.6,59.0L117.0,58.9L116.4,58.6L115.2,58.3L114.3,57.9L114.0,57.9L112.5,57.4L111.8,56.5L111.0,53.1L110.9,52.9L109.9,49.1L109.5,48.2L109.4,47.5L110.1,46.6L113.9,42.7L114.0,42.4L113.9,41.5L112.2,38.1L110.0,34.5L108.5,32.5L107.5,32.4L106.7,32.7L104.3,33.2L102.7,33.8L101.4,33.8L100.8,33.2L100.6,32.8L98.7,30.9L94.5,26.8L94.4,25.7L94.9,24.0L95.0,23.0L95.7,20.6L95.6,19.7L95.2,19.3L93.4,18.0L93.0,17.9L91.4,16.8L90.1,16.2L89.3,15.5L86.3,14.1L85.5,14.1L85.0,14.4L81.3,18.0L80.5,18.6L79.8,18.6L78.6,18.1L78.3,18.1L75.2,17.2L74.3,17.1L73.0,16.7L71.0,16.4L70.7,16.2L70.1,15.4L69.6,13.4L69.2,12.6L68.8,10.7L68.3,9.6L67.7,9.3L65.6,9.2Z M39.1,104.5L39.1,104.1L39.2,103.7L39.6,103.3L41.3,99.9L41.9,99.2L42.5,97.9L42.5,97.2L42.1,96.8L41.1,96.2L39.8,94.9L40.0,94.5L40.4,94.3L42.8,94.4L43.5,94.5L48.8,94.9L50.3,95.1L51.6,95.1L52.9,95.3L54.6,95.4L55.0,95.6L55.0,96.0L54.3,97.0L50.6,100.7L49.9,100.9L49.0,100.7L47.5,100.0L47.0,99.6L46.3,99.6L45.8,100.3L43.6,104.3L42.4,106.0L41.9,106.2L41.0,105.8L40.8,105.6L39.7,105.1Z M40.1,93.1L40.2,92.3L40.9,89.9L41.5,89.4L42.6,89.4L46.0,89.8L48.5,89.9L50.7,90.2L54.6,90.3L57.2,90.7L58.3,90.7L58.6,90.8L58.8,91.1L58.8,91.5L58.4,92.2L56.3,94.5L55.6,94.8L52.8,94.7L50.1,94.3L47.8,94.2L45.1,93.9L42.4,93.8L40.9,93.6L40.4,93.4Z M86.3,88.7L86.5,88.7L86.8,89.0L87.3,89.9L88.5,94.1L88.8,95.4L88.6,95.8L88.1,96.3L85.7,97.8L85.5,98.1L85.5,98.6L86.4,100.3L88.6,103.8L89.2,105.0L89.1,105.5L88.7,106.0L87.6,106.5L87.4,106.7L86.5,107.0L86.3,107.0L85.7,106.6L84.7,105.0L83.4,102.5L82.6,101.5L82.6,101.2L81.9,100.4L80.9,100.4L80.1,100.8L78.2,101.5L77.8,101.4L77.5,101.0L77.6,100.5L78.5,99.5L80.4,96.8L81.3,95.8L82.6,93.8L83.4,92.9L83.6,92.3L85.3,89.7Z M41.5,88.2L41.6,87.3L42.2,85.7L42.3,85.2L42.8,84.5L43.2,84.4L46.0,84.5L47.5,84.9L50.0,84.9L50.7,85.1L52.0,85.1L52.5,85.3L56.3,85.5L56.7,85.7L57.8,85.7L58.3,85.8L59.2,85.8L61.9,86.2L62.2,86.5L62.2,87.0L61.6,88.0L60.0,89.9L59.4,90.2L57.8,90.1L55.1,89.7L51.1,89.5L49.6,89.3L48.3,89.3L46.9,89.1L45.6,89.1L42.3,88.7L41.9,88.6Z M84.1,82.8L84.6,83.2L85.3,84.7L86.0,86.7L85.9,87.6L84.2,90.1L84.1,90.4L83.8,90.7L83.1,91.9L82.5,92.6L82.4,92.9L81.8,93.6L81.7,94.0L80.2,95.8L79.5,96.9L78.5,97.9L78.2,98.6L77.0,99.9L76.3,99.9L74.2,97.7L74.0,97.2L74.1,96.7L75.9,94.1L76.3,93.7L76.8,92.8L77.6,92.0L78.6,90.2L81.0,87.0L81.8,85.6L82.5,84.8L83.0,83.7L83.8,82.8Z M61.5,80.7L61.7,80.5L64.9,80.6L65.5,80.7L65.7,81.0L65.7,81.2L65.4,82.0L65.0,82.4L64.9,82.7L64.0,83.8L63.6,83.9L62.9,83.1L62.3,82.1L61.5,81.1Z M43.3,82.8L43.7,81.3L44.1,80.7L44.2,80.3L44.4,79.9L44.9,79.5L47.1,79.5L48.0,79.6L50.4,79.7L52.1,79.9L54.9,80.0L56.1,80.3L59.1,80.3L60.1,80.5L60.9,81.2L61.9,82.9L62.5,83.6L63.2,84.8L63.2,85.1L62.7,85.4L61.8,85.4L61.1,85.3L59.9,85.3L58.8,85.0L57.9,85.0L57.4,84.9L55.7,84.8L54.4,84.5L52.4,84.5L51.9,84.4L50.3,84.3L47.9,84.0L46.0,84.0L43.7,83.6L43.3,83.3Z M81.6,77.2L82.0,77.5L83.2,79.8L83.6,80.9L83.6,81.5L83.2,82.4L81.2,85.0L81.0,85.5L80.2,86.6L79.4,87.9L78.7,88.7L77.8,90.2L76.5,91.8L76.2,92.5L73.9,95.4L73.4,95.9L72.9,95.9L72.2,95.3L71.1,94.0L70.7,93.3L70.7,92.8L71.8,91.0L72.7,89.9L72.8,89.5L74.2,87.6L74.5,86.9L74.8,86.6L75.4,85.6L75.7,85.3L77.5,82.5L78.8,80.7L80.8,77.6L81.1,77.3Z M61.8,79.5L61.7,79.0L62.3,78.1L63.1,76.5L64.2,75.6L68.2,75.6L68.6,75.7L68.9,75.9L68.9,76.2L68.5,76.7L68.1,77.7L67.1,79.0L66.7,79.5L65.4,79.9L63.8,79.9L62.1,79.7Z M74.3,75.6L74.6,75.8L74.5,76.3L74.0,77.0L73.5,77.9L73.2,78.2L73.0,78.9L72.0,80.2L71.7,80.9L71.3,81.2L68.5,85.6L68.5,85.7L67.1,87.6L66.7,87.8L66.3,87.7L64.6,85.7L64.5,85.3L64.5,84.9L65.3,83.4L65.9,82.7L66.1,82.0L66.9,80.9L67.8,79.3L68.6,78.2L69.6,76.4L70.3,75.7L70.7,75.6Z M58.3,76.0L58.4,75.5L58.5,75.4L61.9,75.5L62.2,75.6L62.5,76.2L61.0,78.4L60.6,78.8L60.2,78.8L59.8,78.5L59.6,78.0L58.8,77.0L58.8,76.7Z M80.8,75.5L80.9,75.7L80.9,76.1L80.5,77.0L79.8,77.9L78.8,79.6L77.2,81.7L76.6,82.9L75.8,84.0L75.7,84.3L74.6,85.6L74.3,86.2L73.9,86.6L71.1,90.8L70.1,92.0L69.5,91.9L67.7,89.9L67.5,89.4L67.5,88.8L68.3,87.4L71.3,82.8L71.8,81.7L72.6,80.6L72.7,80.3L73.0,80.0L73.3,79.5L74.0,78.4L74.2,77.8L74.7,77.3L75.5,76.1L76.2,75.5L78.7,75.3L80.1,75.3Z M45.1,77.8L46.2,75.3L46.8,74.8L48.9,74.7L52.1,75.1L55.3,75.1L56.5,75.3L57.0,75.5L57.4,75.9L57.9,76.8L59.0,78.2L59.3,79.0L59.2,79.4L58.9,79.5L56.6,79.5L52.8,79.3L51.9,79.1L50.8,79.2L45.4,78.6L45.1,78.3Z M78.8,71.7L79.2,72.1L79.4,72.7L80.1,73.8L80.1,74.2L79.7,74.4L79.2,74.5L77.0,74.4L76.8,74.3L76.8,73.9L77.2,73.6L77.8,72.3L78.4,71.7Z M72.7,71.6L73.2,71.7L74.2,73.2L74.7,74.0L74.7,74.4L74.5,74.6L73.4,74.8L71.3,74.7L71.1,74.5L71.1,74.1L71.6,73.4L71.7,73.1Z M66.3,71.5L66.8,71.4L67.8,72.5L68.8,74.0L68.8,74.5L68.6,74.7L68.2,74.9L65.5,74.9L65.0,74.8L64.7,74.5L64.7,74.0Z M59.9,71.4L60.4,71.3L60.9,71.6L61.3,72.2L62.3,74.1L62.3,74.4L62.1,74.6L61.2,74.8L60.2,74.8L58.9,74.6L58.5,74.3L58.4,74.0L58.8,73.5L58.8,73.1Z M48.2,71.1L48.7,71.2L49.0,71.5L50.1,73.3L50.1,73.8L50.0,74.0L47.7,74.0L47.1,73.6L47.1,73.1L47.5,72.6L47.8,71.7Z M68.0,70.4L71.3,70.4L71.7,70.5L71.9,70.7L71.6,71.7L70.1,74.0L69.6,74.1L69.2,73.8L67.7,71.1L67.7,70.7Z M61.5,70.3L63.3,70.2L65.2,70.4L65.5,70.7L65.4,71.5L64.7,72.4L64.2,73.6L63.5,74.1L63.2,74.0L62.9,73.7L62.4,72.8L62.1,72.5L61.9,72.0L61.6,71.7L61.2,70.9L61.2,70.6Z M55.4,70.0L59.0,70.2L59.4,70.5L59.4,70.9L58.7,72.4L57.5,74.0L57.1,74.0L56.2,72.8L55.0,70.6L55.0,70.3Z M49.2,70.3L49.7,69.9L52.9,70.0L53.9,70.3L54.4,70.7L55.2,72.2L55.8,72.9L56.2,74.1L55.9,74.4L55.0,74.5L52.4,74.4L51.4,74.1L50.8,73.6L50.5,72.8L49.3,71.1Z M75.9,66.5L76.6,67.3L77.7,69.4L78.0,70.7L76.7,73.0L76.0,73.7L75.5,73.7L75.1,73.3L74.7,72.5L74.2,71.7L73.8,71.1L73.7,70.3L73.9,69.3L74.6,67.9L75.5,66.6Z M69.4,66.1L70.1,66.1L70.7,66.9L70.8,67.3L71.7,68.9L71.7,69.4L71.5,69.5L69.2,69.6L68.2,69.5L67.9,69.3L67.8,68.9L68.1,68.4L68.2,68.0L68.7,67.0Z M63.1,65.9L63.4,65.8L63.8,66.1L64.6,67.0L64.6,67.3L65.5,68.6L65.5,69.2L65.2,69.4L61.9,69.4L61.4,69.0L61.4,68.7L61.7,68.2L62.3,67.3L62.8,66.2Z M57.0,65.7L57.3,65.7L57.8,66.3L58.3,67.3L59.2,68.7L59.2,69.0L58.9,69.3L56.0,69.3L55.4,69.1L55.3,69.0L55.3,68.5L56.6,66.1Z M50.9,65.7L51.4,65.7L52.4,67.1L53.2,68.7L53.2,68.9L52.9,69.2L50.7,69.2L49.8,69.1L49.5,69.0L49.5,68.4L49.7,68.1L49.8,67.5Z M71.1,65.2L73.3,65.1L74.4,65.3L74.9,65.7L74.9,65.9L73.8,67.8L73.1,68.7L72.6,68.7L72.1,68.1L70.9,65.7L70.9,65.4Z M58.4,64.8L62.0,64.8L62.3,64.9L62.5,65.2L62.4,65.6L61.9,66.3L61.5,67.3L60.5,68.6L60.0,68.6L58.8,67.0L58.1,65.5L58.1,65.1Z M64.3,64.8L64.7,64.7L65.9,64.7L68.4,64.9L68.7,65.2L68.7,65.6L68.3,66.3L68.2,66.7L67.9,67.0L67.4,68.1L67.0,68.6L66.5,68.6L65.9,68.2L65.5,67.1L64.2,65.3Z M52.3,64.7L53.4,64.5L55.6,64.6L56.3,64.9L56.3,65.3L55.7,66.2L55.1,67.6L54.5,68.3L53.9,68.4L53.1,67.3L52.1,65.3L52.1,64.9Z M78.6,61.0L79.0,61.1L79.4,61.6L79.5,62.0L79.9,62.8L80.3,63.3L82.2,67.3L83.5,69.8L83.5,70.1L83.9,70.7L84.3,71.8L85.1,73.4L85.0,73.7L84.7,74.0L81.8,74.3L80.9,73.8L79.6,71.2L79.2,70.8L79.0,70.1L78.4,69.1L78.1,68.8L77.2,66.6L76.4,65.4L76.4,64.7L77.2,63.4L77.5,62.5L77.9,61.9L78.1,61.3Z M72.5,60.9L73.0,61.0L73.5,61.6L73.9,62.7L74.7,63.9L74.7,64.2L74.5,64.4L71.7,64.4L71.3,64.3L70.9,63.9L70.9,63.6L71.3,62.8L71.3,62.6Z M66.3,60.5L66.8,60.5L67.1,60.7L68.1,62.3L68.4,63.2L68.7,63.4L68.7,63.7L68.4,64.0L65.2,64.0L64.8,64.0L64.6,63.7L64.6,63.1L65.9,61.0Z M53.8,60.5L54.4,60.5L54.8,60.9L55.3,61.9L55.6,62.3L55.9,62.9L56.0,63.6L55.9,63.8L52.5,63.8L52.2,63.6L52.3,62.9L53.4,61.0Z M60.0,60.5L60.4,60.4L61.0,60.9L61.8,62.4L62.3,63.0L62.4,63.6L62.1,63.8L61.3,64.0L58.6,63.9L58.4,63.7L58.3,63.2L58.4,62.8L59.6,61.1L59.6,61.0Z M73.8,60.1L74.5,59.8L76.2,59.8L77.4,60.1L77.5,60.8L77.2,61.3L76.6,62.7L76.0,63.5L75.5,63.5L75.1,63.1L74.7,62.3L74.1,61.3L73.7,60.3Z M68.0,59.8L69.1,59.7L70.8,59.8L71.4,60.0L71.5,60.7L70.7,62.2L70.1,62.9L69.4,63.0L68.7,62.0L68.4,61.2L67.8,60.4L67.8,60.1Z M61.6,59.6L62.5,59.4L65.0,59.6L65.5,59.9L65.5,60.2L64.7,61.3L64.2,62.5L63.6,63.1L63.0,63.0L62.3,62.0L61.3,60.2L61.3,59.8Z M55.4,59.5L58.8,59.4L59.3,59.8L59.3,60.1L58.5,61.6L58.0,62.2L57.9,62.5L57.3,63.2L57.0,63.2L56.6,62.8L56.0,61.5L55.3,60.6L55.1,59.9Z M16.1,61.9L16.4,61.6L16.9,61.5L22.0,61.6L22.8,61.8L23.9,61.7L24.2,61.4L24.5,58.6L24.9,58.0L25.4,58.1L25.8,58.6L27.1,61.8L27.6,62.7L27.6,62.9L28.1,63.6L28.7,65.2L30.0,67.8L30.3,68.1L30.9,69.5L30.9,69.8L31.5,71.0L31.4,71.6L30.8,71.7L27.1,70.8L25.1,70.1L24.6,69.4L24.5,68.8L24.4,66.7L24.2,66.2L23.9,66.0L18.7,65.6L17.0,65.6L16.3,65.4L16.1,65.2L15.9,64.7L15.9,62.2Z M95.6,57.6L96.0,57.3L96.8,57.3L98.1,57.5L99.4,58.0L100.2,58.1L100.7,58.3L102.1,58.6L103.1,59.0L103.3,59.4L103.6,62.3L103.9,62.7L104.2,62.8L107.2,63.0L110.5,63.0L111.6,63.2L112.0,63.7L112.0,66.5L111.7,66.9L111.3,66.9L104.2,66.9L103.9,67.1L103.5,68.1L103.5,69.6L103.1,70.4L102.5,70.8L101.9,70.7L101.5,70.3L100.9,69.0L99.8,66.2L99.2,65.3L98.6,63.6L98.0,62.5L97.6,61.3L97.2,60.8L96.8,59.8L96.5,59.5L95.7,58.0Z M26.6,57.5L27.6,57.1L29.5,56.7L30.1,56.7L30.6,57.1L31.8,59.8L32.0,60.7L32.7,61.5L32.9,62.5L33.7,64.1L33.8,64.5L36.1,69.0L36.5,70.1L36.9,70.7L37.3,71.6L37.5,71.9L37.6,72.5L37.5,72.7L36.2,72.7L35.1,72.4L33.9,72.2L33.1,71.9L32.5,71.4L31.9,70.3L31.7,69.8L31.5,69.6L31.2,68.7L30.8,68.3L30.5,67.4L29.6,65.9L28.9,64.0L28.6,63.6L28.3,62.5L27.0,59.8L26.8,59.1L26.6,58.9L26.4,58.4L26.4,57.8Z M89.3,56.1L91.1,56.1L92.5,56.5L93.5,56.7L94.0,56.9L94.4,57.3L95.2,59.0L96.4,60.8L96.4,61.2L98.9,66.4L100.0,69.1L100.5,69.8L100.5,70.2L100.8,70.8L100.6,71.3L98.9,71.8L97.9,71.9L97.1,71.9L96.5,71.5L95.8,70.2L95.6,69.4L94.7,67.9L94.7,67.7L93.5,65.5L92.8,63.6L92.3,63.0L90.5,59.4L90.1,58.2L89.1,56.5Z M31.6,56.4L34.1,55.8L35.0,55.8L35.5,56.1L35.8,56.3L36.9,58.9L37.1,59.1L37.5,60.0L37.7,60.3L37.9,61.0L38.6,62.3L39.1,63.8L41.1,67.7L41.2,68.3L41.9,69.4L42.7,71.1L43.3,72.1L43.7,72.9L43.6,73.5L42.7,73.6L41.9,73.3L40.9,73.3L39.3,73.1L38.7,72.5L38.2,71.9L37.2,69.8L36.6,69.0L35.7,66.9L35.1,66.1L34.5,64.4L34.1,63.7L33.7,62.6L33.2,61.6L32.9,61.4L32.5,59.6L31.5,57.7L31.3,56.9Z M68.9,55.6L69.6,55.5L69.9,55.7L71.0,57.7L71.4,58.2L71.4,58.7L71.3,58.9L70.6,59.0L69.9,58.8L67.8,58.8L67.5,58.5L67.5,58.2L67.8,57.7L68.3,56.5Z M63.1,55.3L63.7,55.3L65.4,58.0L65.4,58.4L65.2,58.6L64.0,58.7L62.1,58.7L61.7,58.6L61.4,58.3L61.4,58.0L62.8,55.6Z M55.2,58.0L55.5,57.7L56.3,56.3L57.1,55.3L57.6,55.3L58.9,57.3L59.3,58.2L59.1,58.6L58.7,58.7L55.8,58.7L55.2,58.3Z M83.2,55.2L84.5,55.2L86.7,55.4L87.4,55.6L88.0,56.1L89.3,58.0L89.8,59.3L90.1,59.5L90.5,60.7L91.2,62.1L91.4,62.3L91.7,63.0L92.0,63.4L92.1,63.8L93.2,66.0L93.3,66.5L94.2,68.1L94.3,68.6L95.4,70.7L95.8,71.6L95.8,72.1L95.5,72.4L94.7,72.7L92.3,73.0L91.7,72.9L91.4,72.6L90.0,69.9L89.6,68.7L89.0,67.8L87.9,64.9L86.8,63.2L86.5,62.4L85.3,60.2L85.2,59.8L84.6,58.9L83.4,56.3L83.0,55.7L83.0,55.4Z M51.1,55.1L51.4,55.2L51.7,55.5L53.0,57.7L53.5,58.9L53.5,59.5L53.0,60.6L51.7,62.7L51.3,63.0L50.8,62.9L50.4,62.5L49.7,60.9L49.4,60.6L48.9,59.5L48.9,58.5L49.5,57.3L50.2,56.4L50.6,55.5Z M81.1,55.0L81.6,55.0L82.6,56.2L83.2,57.7L83.8,58.6L84.6,60.2L85.0,60.8L85.9,62.8L86.3,63.3L86.8,64.7L87.6,66.0L87.6,66.4L88.0,66.9L88.9,69.3L90.1,71.6L90.1,71.9L90.4,72.3L90.5,73.0L90.2,73.2L87.7,73.6L86.4,73.6L85.8,73.2L85.1,71.6L83.7,68.7L83.3,68.2L83.0,67.1L82.6,66.5L81.5,64.1L80.7,62.9L80.0,61.3L79.6,60.8L79.2,59.8L79.2,58.9L79.8,57.8L80.1,56.9L80.7,55.6Z M37.0,55.4L38.6,55.2L39.5,55.0L40.3,55.0L41.0,55.6L43.0,59.9L43.9,61.5L44.6,63.2L45.0,64.0L45.9,66.0L46.7,67.0L46.9,67.8L47.9,69.4L47.9,70.1L47.5,71.1L46.8,72.2L46.2,73.4L45.9,73.6L45.3,73.6L44.8,73.3L44.1,72.4L43.9,71.9L42.3,69.1L41.5,67.1L40.6,65.5L39.8,63.5L39.1,62.1L38.7,60.8L37.7,59.0L36.7,56.5L36.6,55.9Z M76.7,54.8L78.8,54.8L79.4,54.9L79.7,55.2L79.8,55.6L78.7,57.9L78.2,57.9L77.6,57.3L77.1,56.1L76.5,55.3L76.5,55.1Z M42.3,54.8L43.3,54.7L43.7,54.5L45.2,54.5L45.8,55.1L47.1,57.5L47.9,58.9L48.1,59.4L48.8,60.5L49.4,61.9L50.6,64.0L50.6,64.8L50.2,65.4L50.2,65.7L49.8,66.3L49.8,66.5L49.5,67.2L48.6,68.5L48.2,68.6L47.5,67.8L46.2,65.3L46.2,64.8L45.4,63.4L45.1,62.7L44.2,61.2L43.3,59.0L43.1,58.8L42.9,58.0L42.5,57.5L41.8,55.7L41.8,55.1Z M70.4,54.5L70.8,54.4L73.6,54.4L74.9,54.8L76.2,56.1L76.7,56.9L76.9,57.5L77.3,58.0L77.6,58.7L77.2,59.0L76.9,59.1L75.1,59.0L73.8,59.0L72.9,58.8L72.4,58.4L71.6,56.9L70.5,55.4L70.3,54.9Z M50.0,54.5L50.1,54.9L49.0,57.0L48.5,57.5L48.0,57.5L47.3,56.5L47.2,56.1L46.7,55.2L46.7,54.8L47.1,54.4L49.2,54.4Z M64.9,54.1L67.8,54.2L68.4,54.4L68.4,55.0L68.3,55.4L66.9,57.5L66.2,57.5L64.5,55.1L64.4,54.5Z M56.3,54.3L56.4,54.4L56.4,54.8L55.6,56.3L54.6,57.7L54.0,57.7L53.7,57.3L52.4,54.9L52.5,54.5L53.0,54.2L55.7,54.1Z M58.5,54.1L61.9,54.0L62.2,54.1L62.5,54.4L62.3,55.1L60.9,57.5L60.5,57.9L60.0,57.9L59.5,57.3L59.2,56.6L58.2,54.8L58.2,54.4Z M64.6,52.7L65.6,51.0L66.0,50.6L66.3,50.6L66.8,51.0L67.9,52.5L68.0,53.1L67.6,53.4L65.3,53.4L64.9,53.3L64.6,53.1Z M66.9,49.6L67.3,49.3L67.8,49.2L73.9,49.4L75.2,49.6L79.0,49.8L81.7,50.2L82.0,50.6L82.0,51.1L81.6,51.9L81.3,52.9L81.0,53.5L80.1,54.2L78.4,54.0L76.4,54.0L75.3,53.8L70.5,53.6L69.5,53.3L68.9,52.7L68.0,51.5L67.6,51.0L66.9,49.8Z M65.3,49.5L65.3,49.8L64.6,51.0L64.2,51.5L64.2,51.9L63.7,52.6L63.2,53.1L61.9,53.4L58.9,53.3L58.7,53.1L58.7,52.6L60.8,49.6L61.4,49.3L62.5,49.1L64.9,49.2Z M61.8,47.8L63.0,46.4L63.4,46.3L63.9,46.7L64.6,47.7L64.7,48.1L64.4,48.5L62.1,48.5L61.9,48.4Z M64.0,44.9L64.2,44.3L64.9,43.9L70.2,43.9L75.1,44.2L76.6,44.4L78.1,44.4L79.3,44.8L82.7,45.1L83.7,45.3L83.9,45.6L83.9,46.0L83.0,48.5L82.7,49.0L82.3,49.4L81.0,49.4L80.3,49.2L79.0,49.2L77.3,49.0L74.9,48.9L73.8,48.7L70.5,48.6L69.6,48.5L66.4,48.5L65.7,47.9L64.1,45.4Z M60.4,41.7L61.7,43.3L62.1,44.2L62.5,44.8L62.6,45.2L62.0,46.5L61.2,47.4L59.9,49.5L59.4,50.1L59.2,50.6L58.5,51.5L58.4,51.9L57.9,52.6L57.0,53.3L52.5,53.4L52.2,53.1L52.2,52.8L53.4,50.7L53.8,50.3L53.8,50.2L54.3,49.5L55.2,47.8L56.1,46.9L56.2,46.5L56.9,45.7L57.1,45.2L57.9,43.9L58.7,43.1L59.2,42.2L59.9,41.6Z M65.6,42.6L65.6,42.3L67.3,40.0L68.0,39.2L68.7,38.9L74.2,38.9L75.9,39.1L77.5,39.1L78.7,39.3L81.4,39.4L84.7,39.9L85.5,40.2L85.8,40.5L85.8,41.2L84.9,43.7L84.5,44.2L84.1,44.4L83.3,44.4L81.5,43.9L80.1,43.9L79.5,43.8L78.1,43.7L77.7,43.5L76.4,43.5L75.8,43.4L73.2,43.3L70.3,43.0L66.0,42.9Z M56.9,37.3L58.4,38.8L59.2,40.1L59.2,40.9L57.5,43.2L57.1,44.2L56.5,44.8L55.0,47.2L54.6,47.6L54.5,47.9L53.6,49.1L53.3,49.8L52.6,50.7L52.5,51.0L52.2,51.4L51.9,51.9L51.9,52.2L51.3,53.0L50.7,53.5L49.2,53.6L46.2,53.6L45.8,53.2L46.1,52.5L46.6,51.9L47.1,50.6L47.9,49.5L48.6,48.3L49.4,47.3L50.8,45.0L51.1,44.7L51.7,43.6L52.6,42.2L53.0,41.8L53.5,40.9L53.9,40.5L54.9,38.8L55.7,37.7L56.4,37.2Z M69.3,37.7L69.5,37.1L71.3,34.8L72.1,34.0L72.6,33.9L77.7,33.9L78.7,34.1L80.3,34.1L83.0,34.5L84.7,34.6L85.6,34.9L86.9,35.1L87.2,35.2L87.4,35.7L86.8,38.1L86.6,38.6L85.9,39.2L84.9,39.2L83.5,38.9L82.0,38.8L80.8,38.5L78.5,38.5L77.1,38.2L74.5,38.1L73.3,38.0L69.7,38.0Z M53.3,33.0L54.4,33.9L55.5,35.3L55.8,35.8L55.8,36.3L54.9,37.7L54.1,38.7L53.8,39.4L51.1,43.0L50.6,44.0L48.2,47.6L48.0,48.0L47.4,48.8L46.4,50.6L45.5,51.7L45.2,51.7L44.1,49.9L43.9,49.1L43.4,48.0L43.4,47.2L44.5,45.2L45.0,44.5L45.2,44.1L46.1,42.9L46.2,42.4L46.6,42.1L48.1,39.6L48.8,38.7L49.1,38.1L50.6,36.1L50.7,35.8L51.2,35.2L52.1,33.7L52.8,33.0Z M49.8,29.1L50.1,29.3L52.1,31.3L52.3,31.9L51.6,33.4L50.5,34.7L50.1,35.6L48.8,37.3L48.7,37.7L48.3,38.0L47.9,38.8L47.3,39.4L47.2,39.8L45.9,41.6L45.7,42.2L44.5,43.7L43.7,45.2L43.4,45.5L42.7,45.7L42.2,45.0L42.2,44.8L41.4,43.0L41.1,41.8L41.2,41.2L43.1,37.7L43.5,37.3L44.5,35.7L45.1,35.0L46.3,33.1L47.1,32.1L47.6,31.2L48.7,29.7L49.2,29.2Z M40.0,22.1L40.7,22.2L41.2,22.7L41.6,23.6L43.3,26.5L43.8,27.6L44.6,28.6L45.4,28.7L47.8,27.8L48.3,27.8L48.6,28.1L48.6,28.4L48.2,29.2L47.5,30.0L47.2,30.6L45.7,32.7L45.6,33.0L45.0,33.5L44.6,34.4L43.5,35.8L42.6,37.2L42.4,37.9L41.4,39.3L40.8,39.8L40.5,39.8L40.2,39.5L39.8,38.8L39.1,36.6L38.9,35.7L38.4,34.5L38.3,33.5L38.9,32.8L40.4,31.8L41.1,31.1L41.1,30.5L40.7,29.6L40.3,29.1L38.7,26.4L37.5,24.0L37.5,23.7L38.0,23.1Z M88.6,23.5L88.7,24.0L88.2,25.1L87.4,26.2L86.8,27.5L85.1,30.2L85.0,30.6L85.1,31.1L85.4,31.5L85.9,31.8L87.9,33.4L88.0,33.9L87.7,34.1L86.8,34.3L84.8,33.9L81.8,33.7L80.7,33.5L78.9,33.4L77.6,33.1L75.5,33.2L73.6,33.1L73.2,32.8L73.2,32.5L73.8,31.5L75.8,29.4L76.5,28.4L77.3,27.7L77.6,27.5L78.0,27.5L79.7,28.1L80.9,28.7L81.3,28.6L82.0,27.9L82.7,26.3L85.1,22.3L85.4,22.0L86.4,22.0L88.0,22.9Z" fill="#000" fill-rule="evenodd"/>
</svg>