<svg xmlns="http://www.w3.org/2000/svg" viewBox="0 0 128 128" width="128" height="128">
  <path d="M61.8,13.7L60.9,13.8L60.6,14.3L60.6,19.8L59.6,23.2L59.2,24.0L59.2,24.2L58.3,26.4L57.9,27.0L57.8,27.4L57.3,28.1L57.3,28.5L56.4,29.9L56.0,31.1L55.0,33.3L54.4,35.2L53.8,35.9L51.0,37.5L49.1,38.8L48.6,39.0L45.0,41.0L44.2,41.6L42.9,42.2L40.2,43.9L39.7,44.3L38.2,45.0L34.4,47.4L28.8,50.5L28.0,51.1L26.8,51.6L21.2,55.0L20.0,55.4L14.5,55.4L13.5,55.6L12.6,56.0L11.9,56.5L10.8,57.1L9.6,58.3L9.3,59.1L9.2,60.2L9.6,61.1L10.2,61.8L11.3,62.2L12.2,62.2L13.0,62.0L14.3,61.4L15.9,60.3L18.1,59.2L19.0,58.5L20.9,57.5L21.6,57.3L26.8,57.3L27.0,57.5L27.0,58.0L25.7,60.4L25.3,60.8L24.6,61.0L22.9,61.1L22.0,61.4L21.2,61.8L20.2,62.9L19.5,64.3L18.9,65.2L18.1,66.6L17.8,67.5L17.7,68.4L18.0,69.2L18.3,69.6L19.1,70.1L19.7,70.3L21.2,70.2L22.2,69.7L23.0,68.9L23.7,67.9L26.0,63.7L26.8,63.0L27.6,63.0L27.8,63.2L27.4,64.4L26.1,66.6L25.9,67.5L25.9,68.6L26.0,69.1L26.8,69.9L27.3,70.1L29.1,70.0L30.3,69.5L30.7,69.2L34.0,67.8L35.5,67.0L37.9,66.0L38.7,65.5L39.2,65.5L39.8,65.0L40.2,64.9L43.2,63.6L43.5,63.6L43.7,63.7L43.7,64.1L43.2,64.8L42.3,66.5L41.9,67.7L42.0,69.0L42.3,69.5L43.1,70.1L44.7,70.1L45.9,69.4L46.4,69.5L47.4,70.1L48.8,70.1L49.2,69.9L50.3,69.6L52.7,68.4L53.8,68.4L53.9,68.6L54.0,75.0L53.9,80.1L54.1,97.2L54.4,99.5L55.2,101.9L56.1,103.6L57.5,105.6L59.1,107.2L59.3,107.3L59.8,107.9L59.8,111.5L60.0,114.0L60.5,114.4L61.0,114.5L66.4,114.6L67.7,114.4L68.0,114.2L68.1,113.9L68.2,108.0L68.4,107.6L69.8,106.4L70.8,105.2L72.0,103.4L72.9,101.5L73.6,98.7L73.9,95.3L73.8,94.0L73.9,93.6L74.4,93.0L78.6,90.6L80.4,89.4L85.5,86.6L88.7,84.7L89.9,84.1L91.8,82.8L92.2,82.7L96.3,80.1L97.8,79.4L98.9,78.6L101.5,77.1L102.3,76.5L104.4,75.4L107.8,73.4L108.4,73.2L114.4,73.1L115.0,73.0L116.9,72.0L117.9,71.3L118.6,70.6L119.0,69.7L119.0,68.7L118.7,67.8L118.0,67.1L117.2,66.7L116.0,66.6L115.1,66.8L113.0,67.8L112.6,68.2L112.1,68.4L111.0,69.1L110.7,69.2L107.3,71.2L99.2,71.3L97.6,71.1L97.5,70.7L98.3,69.0L98.8,68.4L99.2,67.3L99.9,66.4L100.7,64.8L101.4,63.7L103.0,60.7L103.0,59.8L102.7,59.5L102.2,59.3L102.0,59.3L101.2,59.8L100.9,59.8L99.9,59.4L98.8,59.4L98.1,59.6L95.3,61.2L95.1,61.2L94.1,61.8L90.9,63.4L89.9,64.0L82.4,67.8L82.0,67.8L81.7,67.5L81.7,67.1L83.9,63.1L84.3,62.6L85.2,60.7L85.2,60.0L84.8,59.5L84.1,59.4L83.5,59.7L82.9,59.7L82.0,59.3L81.2,59.3L80.2,59.7L80.0,59.7L78.9,60.3L78.5,60.4L75.2,62.0L74.6,62.2L73.9,62.2L73.6,61.9L73.7,55.8L73.6,51.3L73.6,40.5L73.4,39.3L73.4,37.7L72.9,34.6L71.8,31.6L67.5,23.3L67.4,22.6L67.0,21.8L66.5,19.7L66.5,14.8L66.3,14.1L65.7,13.7Z M62.1,108.0L65.6,107.9L66.0,108.2L66.2,109.2L66.2,111.5L66.1,112.1L65.9,112.4L65.4,112.6L62.5,112.6L61.9,112.1L61.8,108.5Z M71.9,95.1L71.9,97.2L71.5,99.4L71.0,101.0L70.6,101.7L70.3,102.5L69.5,103.4L69.4,103.9L67.4,105.8L66.4,106.1L60.8,106.0L60.2,105.6L59.0,104.4L58.1,103.3L58.0,102.7L59.0,101.9L59.9,101.5L61.0,100.7L61.7,100.4L63.9,99.0L65.6,98.1L66.7,97.4L68.0,96.8L68.5,96.3L69.2,96.1L69.7,95.7L70.2,95.5L70.8,95.1L71.4,94.8L71.7,94.8Z M93.2,73.4L93.4,73.6L93.4,73.9L92.2,75.9L91.4,76.8L90.5,76.8L90.3,76.3L91.7,73.9L92.3,73.4Z M116.8,68.9L116.9,69.3L116.1,70.1L114.3,71.1L112.6,71.3L112.1,71.0L112.1,70.8L112.4,70.6L115.4,68.9L115.9,68.7L116.6,68.7Z M71.4,65.9L71.9,66.2L71.9,66.7L71.9,91.9L71.3,92.5L70.4,92.9L69.2,93.8L67.4,94.8L67.1,94.9L65.2,96.2L64.7,96.3L62.8,97.5L60.5,98.7L59.4,99.5L59.1,99.6L58.7,99.9L58.2,100.1L57.8,100.4L57.0,100.5L56.6,100.1L56.1,98.5L55.9,94.5L55.9,67.3L56.4,66.8L58.6,65.8L59.0,65.8L59.1,66.0L59.1,66.3L58.9,66.7L58.6,67.8L58.7,68.7L59.2,69.5L59.8,69.9L61.7,70.0L62.5,69.8L63.2,69.4L64.0,69.2L66.4,68.0L69.3,66.8L70.4,66.1Z M73.9,90.4L73.7,65.2L73.9,64.9L74.5,64.3L74.9,64.3L76.1,63.6L77.1,63.4L77.2,63.6L77.2,63.9L76.0,66.1L75.6,67.2L75.6,68.4L75.9,69.2L76.2,69.5L77.1,69.9L78.1,69.9L78.8,69.7L79.0,69.5L79.7,69.2L80.1,69.4L80.6,69.8L81.4,70.0L82.6,69.8L83.3,69.4L85.2,68.7L86.2,68.0L88.3,67.0L90.4,65.8L94.1,63.9L94.5,63.9L94.6,64.1L94.6,64.5L94.1,65.2L93.4,66.7L93.1,67.6L93.1,68.5L93.4,69.1L93.8,69.5L94.5,69.9L95.0,69.9L95.3,70.2L95.3,70.5L94.4,71.3L92.3,71.3L91.3,71.6L90.5,72.2L89.9,72.9L88.7,74.9L88.1,76.4L88.1,77.1L88.5,78.2L89.3,78.9L89.9,79.1L91.4,79.1L92.6,78.5L93.6,77.5L95.5,74.2L96.1,73.5L98.6,73.2L103.0,73.3L103.0,73.6L102.7,73.9L101.9,74.3L101.3,74.8L100.8,75.0L99.3,76.0L98.3,76.5L97.2,77.2L96.1,77.7L90.2,81.4L89.4,81.7L86.8,83.4L86.1,83.6L85.3,84.2L83.7,85.1L82.1,86.2L79.2,87.7L78.7,88.1L77.9,88.5L77.6,88.8L76.6,89.3L75.3,90.2L74.6,90.5L74.1,90.5Z M23.5,63.0L23.8,63.3L23.7,63.9L21.8,67.3L21.1,68.0L20.7,68.2L20.2,68.0L20.1,67.8L20.0,67.3L20.8,65.9L21.2,64.9L22.5,63.3L23.0,63.1Z M48.1,61.6L48.5,62.0L48.5,62.6L47.1,65.2L45.5,67.7L44.9,68.1L44.4,68.0L44.1,67.7L44.1,67.4L45.3,64.9L46.1,63.8L47.1,62.0L47.5,61.6Z M99.5,61.4L99.8,61.7L99.8,62.1L99.5,62.9L97.7,66.1L96.5,67.7L96.2,67.8L95.8,67.8L95.6,67.5L95.8,66.6L98.2,62.3L99.0,61.4Z M81.7,61.4L82.1,61.8L81.9,62.7L79.7,66.7L78.8,67.7L78.4,67.8L77.8,67.8L77.8,66.9L79.2,64.3L80.0,63.2L80.3,62.4L81.1,61.5Z M16.1,57.5L16.2,57.8L12.8,59.8L11.7,59.9L11.5,59.7L11.5,59.3L12.1,58.7L14.0,57.5L14.9,57.3L15.8,57.3Z M35.3,56.3L35.6,56.8L35.2,57.9L34.0,59.8L33.0,60.7L32.2,60.7L32.1,60.2L34.0,56.7L34.6,56.2Z M68.2,56.1L68.2,56.9L67.3,58.6L66.6,59.6L65.4,60.8L64.7,60.8L64.6,60.4L65.5,59.0L65.8,58.3L66.6,56.8L67.5,56.1Z M53.8,38.7L53.8,52.0L53.9,58.5L53.9,65.6L53.2,66.4L51.5,67.0L51.2,67.2L50.7,67.3L49.0,68.2L48.5,68.2L48.1,67.9L48.0,67.4L48.5,66.6L48.5,66.3L49.1,65.6L49.7,64.5L50.1,63.6L50.8,62.6L51.5,61.0L51.6,60.2L51.2,59.7L50.4,59.7L49.9,60.0L49.5,60.0L48.6,59.6L47.6,59.6L46.3,60.2L44.6,61.0L43.9,61.2L43.4,61.5L42.4,61.9L41.2,62.5L38.5,63.7L35.2,65.3L34.5,65.5L31.1,67.2L29.0,67.9L28.6,67.9L28.2,67.6L28.2,67.2L30.3,63.4L30.8,63.0L32.2,62.9L33.4,62.6L35.1,61.5L35.7,60.8L37.4,57.8L37.6,56.8L37.6,56.1L37.3,55.2L36.5,54.4L35.6,54.2L35.0,54.2L34.2,54.4L33.5,54.7L32.3,55.8L30.8,58.2L30.0,59.8L29.5,60.6L29.1,60.9L28.2,60.9L28.0,60.7L28.0,60.2L28.2,60.0L30.2,56.4L30.7,55.2L30.7,54.7L30.4,54.2L29.7,54.1L29.3,54.3L28.0,55.2L27.6,55.3L25.9,55.3L25.7,55.2L25.6,54.9L25.9,54.5L26.5,54.3L27.2,53.8L27.6,53.7L27.8,53.4L31.0,51.7L33.6,50.0L35.1,49.3L38.5,47.2L39.0,47.0L39.3,46.8L40.9,45.9L43.3,44.3L44.1,44.0L46.2,42.7L49.1,41.1L50.4,40.2L53.2,38.7Z M68.4,29.9L68.9,30.2L70.2,32.9L70.6,34.1L70.9,34.8L71.6,38.2L71.8,42.3L71.8,56.6L71.9,57.0L71.9,63.2L71.6,63.6L70.8,64.0L70.4,64.1L69.7,64.5L69.5,64.5L67.6,65.4L66.9,65.8L65.2,66.4L63.4,67.3L62.7,67.5L62.1,67.8L61.2,67.8L60.8,67.5L61.0,66.7L62.4,64.4L63.1,63.7L66.7,62.1L67.2,61.8L68.0,60.9L68.9,59.2L69.3,58.9L69.5,58.4L70.3,56.9L70.3,55.3L69.4,54.3L68.9,54.1L67.6,54.0L66.6,54.4L65.2,55.6L64.8,56.5L63.7,58.0L63.4,58.9L63.0,59.4L62.6,60.3L61.3,62.4L60.6,63.0L60.1,63.1L59.6,63.5L59.0,63.7L56.6,64.9L56.1,64.9L55.9,64.6L55.7,63.4L55.9,62.8L55.9,62.0L55.7,61.2L55.8,50.0L55.6,44.5L55.7,38.5L55.9,38.1L55.9,37.5L56.1,37.0L56.8,36.4L58.5,35.6L59.5,34.8L61.0,34.0L63.0,32.7L65.7,31.2L67.9,29.9Z M64.6,20.1L65.5,23.2L66.7,26.1L67.3,27.1L67.3,27.7L66.3,28.5L62.9,30.5L61.7,31.3L60.5,31.9L59.7,32.5L58.9,32.9L57.9,33.5L57.4,33.5L57.3,32.9L57.5,32.1L57.8,31.8L58.5,30.0L59.3,28.7L59.4,28.2L60.9,25.3L61.9,22.7L62.3,21.0L62.3,20.5L62.5,20.1L62.9,20.0L64.2,20.0Z M62.8,15.8L63.8,15.7L64.4,16.1L64.5,17.3L64.3,17.7L63.2,17.9L62.5,17.6L62.4,16.6L62.5,16.1Z" fill="#000" fill-rule="evenodd"/>
</svg>