<svg xmlns="http://www.w3.org/2000/svg" viewBox="0 0 128 128" width="128" height="128">
  <path d="M119.1,50.5L119.0,50.1L118.8,50.0L117.7,50.3L116.9,50.4L114.3,51.2L113.7,51.3L113.0,51.5L112.8,51.8L112.0,51.8L110.9,52.0L110.2,52.3L109.4,52.4L106.9,53.0L106.6,53.2L103.4,53.9L101.3,54.6L100.8,54.6L99.8,54.9L99.4,54.9L95.0,56.2L92.9,56.6L89.0,57.6L88.7,57.7L85.5,58.4L84.4,58.8L82.6,59.2L80.6,59.8L72.7,61.8L72.5,61.9L70.1,62.4L69.0,62.8L66.7,63.3L65.4,63.6L65.0,63.6L63.6,64.1L63.2,64.1L59.3,63.2L58.4,62.9L57.6,62.8L55.8,62.1L52.8,61.5L52.3,61.3L48.2,60.3L47.1,59.9L44.2,59.3L43.1,58.9L42.5,58.8L41.8,58.5L41.4,58.5L39.4,58.1L38.6,57.7L38.2,57.7L37.7,57.5L36.4,57.3L34.5,56.6L31.9,56.1L30.7,55.6L29.3,55.4L27.7,55.0L27.5,54.8L25.6,54.4L24.5,54.0L23.4,53.9L22.6,53.6L20.6,53.2L16.8,52.1L13.7,51.4L13.5,51.2L11.9,50.9L10.0,50.3L9.4,50.3L9.3,50.4L9.1,50.9L9.3,77.6L9.6,77.9L11.3,77.7L13.2,77.0L13.6,77.0L15.8,76.5L16.6,76.2L18.8,75.7L20.4,75.1L23.6,74.4L24.6,74.2L26.0,73.7L29.7,72.9L30.8,72.5L33.2,72.0L34.0,71.7L35.6,71.4L37.1,70.9L38.2,70.7L38.6,70.5L40.0,70.3L43.0,69.4L43.8,69.3L44.0,69.2L46.2,68.7L47.7,68.2L48.5,68.1L49.9,67.7L50.6,67.6L51.8,67.2L54.3,66.6L55.0,66.3L56.5,66.1L58.6,65.5L59.4,65.4L59.6,65.2L60.2,65.1L60.5,65.0L63.3,64.3L63.8,64.3L67.8,65.3L69.0,65.5L69.2,65.6L70.7,65.9L72.0,66.4L73.3,66.6L73.8,66.8L74.9,67.0L75.6,67.3L79.3,68.1L82.2,68.9L85.7,69.7L86.4,70.0L88.7,70.5L90.4,71.0L91.1,71.1L91.3,71.3L93.5,71.8L93.8,71.9L96.1,72.4L100.6,73.6L102.2,74.0L102.9,74.3L104.0,74.4L110.9,76.3L112.7,76.6L113.2,76.9L114.2,77.0L116.2,77.7L117.3,77.9L118.2,78.2L118.7,78.2L119.0,77.7L119.0,61.4Z" fill="#000" fill-rule="evenodd"/>
</svg>