<svg xmlns="http://www.w3.org/2000/svg" viewBox="0 0 128 128" width="128" height="128">
  <path d="M39.0,114.7L37.6,114.7L37.1,115.1L36.8,115.6L36.8,116.1L37.0,116.7L37.5,117.2L37.9,117.3L38.5,116.9L39.0,115.7Z M63.0,25.2L62.8,25.3L62.3,25.3L61.7,25.6L60.3,26.4L59.7,26.9L58.7,28.3L58.3,29.3L58.0,30.9L58.1,32.9L59.0,34.9L60.4,36.3L61.6,37.2L63.3,37.6L65.7,37.5L67.5,36.7L68.1,36.2L69.2,35.0L70.0,33.2L70.2,31.9L70.1,30.1L69.6,28.8L69.1,27.7L67.6,26.2L66.1,25.4L65.1,25.2Z M24.7,9.3L24.4,10.0L24.4,118.5L24.9,118.8L34.7,118.8L36.6,118.7L38.7,118.7L40.8,118.8L70.5,118.8L77.7,119.0L89.3,118.9L98.4,119.1L103.7,119.0L103.9,118.7L103.9,107.3L103.8,99.9L103.9,99.0L103.8,96.1L104.0,94.7L103.8,79.1L103.9,72.6L103.8,44.5L104.0,39.9L103.8,37.9L103.8,26.2L104.0,25.7L103.9,11.7L103.8,10.6L103.7,10.2L103.1,10.0L93.0,9.9L92.2,9.8L85.3,9.8L78.4,9.7L76.2,9.8L75.0,9.6L68.4,9.7L63.8,9.5L50.1,9.5L49.3,9.3L46.2,9.4L41.2,9.3L39.2,9.2L32.6,9.3L31.5,9.1L29.7,9.3L27.9,9.2Z M37.8,113.2L39.2,113.6L40.2,114.6L40.5,115.2L40.5,116.3L40.1,117.3L39.2,118.1L38.2,118.4L37.0,118.3L36.2,117.9L35.4,116.8L35.4,116.2L35.3,115.8L35.3,115.5L35.7,114.4L36.5,113.6Z M95.4,46.3L95.6,46.6L95.4,46.9L95.2,46.9L95.1,46.5Z M99.1,52.6L99.4,52.9L99.7,53.7L99.6,70.1L99.1,70.5L98.4,70.7L89.7,70.8L89.1,71.0L88.8,71.5L88.8,72.9L88.5,74.1L88.4,75.9L88.3,76.5L88.0,79.9L87.8,81.2L87.7,83.5L86.9,89.9L86.2,97.6L85.9,99.5L85.8,101.4L85.2,105.5L85.2,106.8L85.0,108.3L84.8,111.0L84.5,112.5L84.1,112.8L83.7,112.9L80.4,113.0L72.6,112.9L67.6,113.1L47.8,113.1L44.5,112.9L44.0,112.4L43.5,111.0L43.4,108.3L43.2,107.8L43.1,106.0L43.0,105.3L43.0,103.8L42.6,101.9L42.5,100.2L42.4,99.8L42.4,98.5L42.1,97.3L41.9,93.2L41.6,91.9L41.5,88.8L41.2,87.6L41.1,85.4L40.7,83.3L40.7,81.6L40.5,80.6L40.4,78.3L40.1,76.8L40.1,74.8L39.8,73.5L39.6,71.1L39.4,70.8L38.1,70.6L29.0,70.5L28.7,70.5L28.3,70.0L28.1,63.9L28.1,54.1L28.2,53.1L28.4,52.7L28.9,52.2L29.9,52.0L30.5,51.7L32.4,51.2L34.3,50.5L35.2,50.3L35.8,50.0L37.5,49.6L37.9,49.3L39.2,49.1L40.8,48.4L41.5,48.3L42.4,47.9L45.0,47.2L45.7,46.9L46.7,46.7L47.6,46.4L48.5,46.4L52.7,49.7L55.3,51.1L55.8,51.2L56.5,51.6L59.3,52.5L62.0,53.0L66.3,53.0L67.1,52.7L68.1,52.7L69.2,52.5L70.0,52.2L71.3,51.8L72.0,51.4L73.3,51.0L76.4,49.1L78.3,47.5L79.2,46.6L80.0,46.1L80.6,46.1L81.0,46.4L82.1,46.6L85.0,47.8L85.6,47.8L86.5,48.3L87.1,48.3L89.3,49.2L90.2,49.3L91.7,50.0L92.5,50.2L93.1,50.5L94.0,50.7L94.3,50.9L95.4,51.2L95.7,51.4L96.6,51.6L97.4,52.0Z M64.4,12.1L65.2,13.2L65.9,15.4L66.0,16.4L66.2,17.3L66.2,18.7L66.4,18.9L66.7,18.9L66.9,18.7L68.0,16.6L69.1,15.1L70.0,14.3L71.0,13.6L71.5,13.6L71.6,13.7L71.6,14.1L71.8,14.5L71.8,16.4L71.4,19.2L70.8,20.8L71.5,20.8L72.9,19.6L74.4,18.7L76.7,17.8L77.3,17.8L77.6,18.0L77.6,18.5L77.3,19.4L76.3,21.5L75.0,23.5L74.4,24.1L74.3,24.5L74.9,24.5L75.8,24.2L78.3,23.7L80.6,23.7L81.4,23.9L81.6,24.1L81.6,24.6L80.4,26.0L79.0,27.2L76.6,28.7L76.4,29.0L76.8,29.2L77.7,29.2L79.2,29.5L81.8,30.5L82.6,30.9L83.0,31.3L83.0,31.7L82.7,32.0L81.2,32.9L79.5,33.4L76.3,33.9L76.3,34.3L77.6,34.8L79.3,36.2L80.9,37.7L81.5,38.6L81.5,38.9L81.2,39.2L80.4,39.4L78.7,39.4L78.2,39.2L76.6,39.1L75.8,38.7L74.7,38.6L74.7,39.2L75.9,40.6L76.2,41.3L76.9,42.5L77.5,44.4L77.4,45.3L76.8,45.4L75.5,45.0L73.6,44.0L72.0,42.9L71.3,42.1L71.0,42.2L71.0,42.6L71.4,44.0L71.7,45.8L71.7,47.4L71.5,48.9L71.2,49.2L70.8,49.2L70.2,48.8L68.3,46.7L67.5,45.5L66.9,44.5L66.7,44.2L66.3,44.3L66.1,46.6L65.5,48.5L65.0,49.7L64.4,50.6L64.0,50.9L63.7,50.9L63.3,50.6L62.7,49.3L62.0,47.2L61.6,44.5L61.3,44.2L60.9,44.5L60.5,45.4L59.6,46.7L57.6,48.8L57.1,49.1L56.5,49.1L56.4,48.9L56.2,45.8L56.7,43.5L57.2,42.2L57.1,41.9L56.7,41.9L54.2,43.8L52.9,44.5L51.2,45.0L50.6,45.0L50.6,44.0L51.0,43.2L51.0,43.0L52.5,40.2L53.3,39.1L53.9,38.5L53.8,38.2L53.0,38.2L52.6,38.5L51.7,38.7L49.9,39.0L48.2,39.0L47.1,38.8L46.7,38.5L46.7,38.2L47.3,37.2L48.9,35.8L49.2,35.8L50.1,34.9L51.7,34.2L52.2,33.8L51.7,33.5L50.7,33.5L49.4,33.3L47.0,32.5L45.4,31.7L45.2,31.5L45.2,31.0L45.4,30.7L46.5,30.3L47.0,30.0L47.5,29.9L48.2,29.5L50.7,29.0L51.9,29.0L52.0,28.7L50.9,28.1L50.4,27.9L48.9,26.8L47.1,25.1L46.6,24.3L46.6,23.9L46.9,23.6L47.6,23.4L49.2,23.4L50.7,23.6L52.2,23.9L53.1,24.2L53.6,24.2L53.6,23.9L52.7,22.8L51.4,20.7L50.5,18.1L50.5,17.7L50.7,17.5L51.4,17.5L52.3,18.0L52.8,18.0L55.3,19.4L56.1,20.3L57.0,20.7L57.1,20.5L57.1,20.3L56.9,19.9L56.5,18.5L56.3,16.7L56.3,14.2L56.5,13.6L56.7,13.3L57.2,13.3L59.6,15.7L60.5,17.0L61.4,18.8L61.8,18.7L61.8,18.5L61.9,17.0L62.8,13.9L63.8,12.2Z" fill="#000" fill-rule="evenodd"/>
</svg>