<svg xmlns="http://www.w3.org/2000/svg" viewBox="0 0 128 128" width="128" height="128">
  <path d="M10.0,50.4L9.3,51.7L9.2,53.1L9.5,54.4L10.2,55.9L10.9,56.7L11.5,57.2L13.0,57.9L14.3,58.0L16.1,57.6L16.7,57.7L17.2,58.2L17.4,58.8L17.8,59.3L18.1,60.2L18.6,61.3L19.0,63.2L19.4,64.0L20.5,67.1L20.7,68.2L21.9,71.5L22.5,73.9L23.3,75.9L23.8,77.9L24.3,79.0L24.6,80.2L24.9,80.8L25.1,81.9L26.6,85.9L26.7,86.7L27.0,87.4L27.0,87.7L27.8,89.8L27.8,90.1L28.3,91.6L28.5,93.7L28.7,94.4L28.8,96.0L28.6,97.8L28.8,103.4L29.3,104.0L29.7,104.2L32.2,104.4L38.9,104.4L43.9,104.0L46.8,104.1L52.7,104.0L54.4,103.8L61.2,103.8L64.2,103.7L84.7,103.7L86.1,103.5L91.4,103.5L94.7,103.3L98.3,103.4L99.8,103.3L100.5,103.1L100.7,102.8L100.8,102.3L100.8,90.2L101.1,89.3L101.3,88.2L102.0,85.9L102.1,85.2L102.9,82.9L102.9,82.5L103.3,81.3L104.6,76.7L105.3,74.8L105.7,72.9L106.2,71.6L106.7,69.4L107.2,68.4L107.4,67.2L107.9,65.9L108.2,64.4L108.8,62.8L109.0,61.5L109.8,59.7L109.9,58.7L110.5,57.3L110.6,56.5L111.0,55.6L111.4,55.4L112.3,55.4L112.9,55.5L115.0,55.5L115.6,55.4L117.4,54.4L118.0,53.7L118.8,52.2L119.0,50.8L119.0,49.7L118.5,48.7L118.5,48.4L118.2,47.8L117.2,46.7L116.5,46.3L115.2,45.7L113.5,45.6L112.4,45.9L111.5,46.3L110.2,47.3L109.5,48.2L109.0,49.3L109.0,51.3L109.3,52.5L110.1,53.8L110.3,54.4L110.3,55.0L109.8,55.5L107.9,56.3L106.5,57.1L106.3,57.1L104.6,57.9L104.2,58.0L103.4,58.5L102.8,58.6L100.6,59.7L99.1,60.2L95.6,61.7L94.4,62.1L94.1,62.4L92.2,63.0L91.0,63.6L90.0,64.0L88.9,64.6L88.6,64.6L86.3,65.5L85.2,65.6L84.7,65.4L83.3,63.8L81.8,61.3L81.5,61.0L80.5,59.2L78.1,55.7L77.5,54.4L77.1,54.0L77.0,53.6L76.3,52.8L75.2,51.0L74.8,50.6L74.4,49.8L73.6,48.8L72.8,47.4L71.7,46.0L71.2,45.1L70.0,43.5L69.3,42.2L67.8,40.2L67.3,39.4L66.5,38.3L66.3,37.8L65.7,37.1L64.1,34.3L64.3,33.8L65.2,33.1L66.6,32.4L67.8,30.8L68.4,29.0L68.3,27.4L67.6,25.7L66.6,24.7L65.9,24.4L65.4,24.1L64.3,23.9L62.7,23.9L61.7,24.1L59.9,25.1L59.4,25.7L58.6,26.9L58.4,27.8L58.4,28.8L58.6,30.4L59.0,31.2L60.2,32.4L61.9,33.1L62.7,33.9L62.8,34.4L62.0,35.4L61.1,37.1L60.4,38.1L59.6,39.4L59.4,39.9L59.1,40.2L58.5,41.4L58.1,41.9L57.5,43.2L57.0,43.8L56.3,45.1L54.8,47.3L53.9,49.3L52.2,51.7L52.1,52.1L51.2,53.8L50.1,55.2L48.6,58.0L47.9,58.7L44.6,64.4L43.2,66.3L42.1,66.4L41.3,66.0L40.8,65.9L39.9,65.5L39.7,65.5L37.1,64.4L36.2,64.1L35.9,63.9L35.1,63.7L34.4,63.4L34.0,63.4L33.4,63.0L30.3,62.0L28.5,61.2L27.7,61.0L27.5,60.9L26.8,60.7L25.9,60.2L25.2,60.2L24.2,59.8L23.7,59.4L23.0,59.3L21.3,58.5L20.8,58.4L20.5,58.2L19.6,57.9L18.0,57.2L17.7,56.8L17.7,56.5L18.2,55.9L18.8,54.5L19.0,53.8L18.9,52.0L18.6,51.2L17.8,49.9L17.2,49.3L16.3,48.7L14.9,48.4L12.8,48.5L11.0,49.3L10.5,49.8Z M99.0,91.3L99.0,93.0L99.3,96.3L99.2,100.6L98.8,101.7L98.4,102.0L97.5,101.8L92.5,101.8L89.7,102.1L84.2,102.1L82.4,102.2L74.1,102.1L72.1,102.4L67.2,102.5L36.7,102.5L35.5,102.9L30.9,102.7L30.2,102.1L30.1,101.8L30.1,99.7L30.0,98.2L30.1,93.0L30.1,92.7L30.9,92.1L37.1,91.9L41.1,92.0L42.5,91.8L47.2,91.8L48.8,91.7L54.9,91.7L56.5,91.5L81.8,91.5L82.9,91.3L86.1,91.3L87.5,91.1L88.7,91.1L89.7,91.3L94.0,91.2L94.4,91.0L98.6,91.0Z M94.9,89.0L94.7,89.4L89.8,89.4L89.3,89.5L86.4,89.5L83.9,89.4L83.6,89.5L80.6,89.5L80.0,89.7L79.2,89.6L77.7,89.8L72.1,89.8L71.4,89.9L67.8,89.8L59.5,90.1L51.0,90.1L48.2,90.2L45.0,90.2L42.5,90.3L34.4,90.3L33.7,90.6L33.1,90.6L32.9,90.1L33.2,89.8L34.7,89.4L35.3,89.0L35.8,89.0L38.6,87.8L39.0,87.7L39.7,87.3L42.9,86.0L43.9,85.5L45.0,85.2L45.5,84.8L46.3,84.6L55.5,80.5L56.6,80.2L57.2,79.8L63.8,77.1L64.6,77.1L65.9,77.5L66.4,77.9L67.2,78.0L67.8,78.3L70.6,79.3L70.9,79.5L71.7,79.7L72.3,80.1L72.9,80.2L74.4,80.9L76.4,81.6L78.5,82.6L81.3,83.4L82.9,84.2L84.9,84.8L86.3,85.6L87.0,85.7L87.8,86.2L89.4,86.7L91.7,87.8L92.8,88.0L93.3,88.3L93.5,88.3Z M61.3,75.9L61.2,76.3L60.8,76.4L60.2,76.9L58.8,77.5L57.7,78.1L57.3,78.2L56.4,78.7L49.9,81.2L49.5,81.5L49.0,81.7L48.3,82.1L48.0,82.1L47.4,82.5L45.9,82.9L42.1,84.6L40.9,85.0L39.9,85.5L38.7,85.8L38.1,86.2L33.2,88.1L32.0,88.9L31.5,88.9L31.4,88.6L32.8,86.5L33.2,85.6L34.3,84.1L34.4,83.6L36.3,80.9L36.7,79.9L38.1,77.9L38.2,77.5L38.7,76.9L39.7,75.0L40.3,74.3L40.9,72.9L41.3,72.6L42.8,69.8L43.6,69.2L44.2,69.1L46.5,69.8L51.3,71.7L52.0,72.1L53.8,72.7L57.5,74.3L58.2,74.4L58.6,74.7L59.5,74.9Z M67.1,75.8L67.3,75.5L67.7,75.5L69.7,74.4L71.3,73.9L71.5,73.6L71.7,73.6L73.2,73.0L73.7,72.7L76.2,71.7L77.4,71.1L78.6,70.7L79.4,70.2L81.3,69.5L81.9,69.1L83.3,68.6L84.3,68.5L85.1,69.1L85.6,70.1L86.0,70.5L86.7,71.8L87.9,73.3L88.3,74.0L89.0,74.9L89.0,75.2L90.7,77.6L91.7,79.4L92.6,80.5L95.6,85.5L96.3,86.1L97.1,87.5L97.1,87.9L97.0,88.0L96.6,87.9L94.7,87.1L93.0,86.6L90.8,85.6L90.5,85.6L89.0,84.8L87.9,84.6L87.5,84.3L87.1,84.2L86.6,83.9L84.1,83.0L83.0,82.8L81.5,82.0L80.1,81.5L77.1,80.2L74.4,79.3L73.4,78.7L73.2,78.7L72.9,78.5L72.1,78.2L71.6,77.9L70.8,77.8L69.4,77.1L68.6,76.9L68.2,76.7L67.4,76.3L67.1,76.0Z M19.7,60.2L20.4,60.2L21.1,60.3L24.3,61.6L24.8,61.7L26.5,62.4L27.2,62.5L27.8,62.8L28.3,62.9L30.0,63.7L31.1,64.0L32.5,64.6L34.9,65.3L37.5,66.4L39.4,67.1L40.9,67.8L41.5,68.4L41.6,69.1L41.4,69.5L40.9,70.2L40.2,71.4L39.6,72.1L39.1,73.2L38.2,74.3L37.9,75.1L37.4,75.6L37.3,76.1L36.5,77.2L35.1,79.8L34.3,80.9L32.4,84.5L31.1,86.4L30.7,86.8L30.4,87.5L29.5,88.3L29.1,88.3L28.4,87.6L28.2,85.6L27.7,84.6L27.2,82.6L26.4,80.9L25.8,78.6L25.0,76.7L22.6,69.2L21.6,66.6L20.9,64.0L19.9,61.6L19.7,60.7Z M108.2,58.1L108.3,58.2L108.4,58.6L108.2,60.2L107.7,61.3L107.2,63.4L106.9,64.0L106.8,64.8L106.4,65.6L106.3,66.3L105.7,67.9L105.0,70.8L104.5,71.9L103.7,75.1L102.9,77.3L102.0,80.2L102.0,80.6L100.2,86.0L99.5,87.0L99.0,87.0L98.5,86.6L97.8,85.6L97.1,84.4L95.6,82.3L95.2,81.6L92.6,77.9L92.4,77.3L91.5,76.1L90.9,75.1L90.3,74.3L89.6,72.9L89.0,72.2L88.6,71.3L86.8,68.9L86.5,68.2L86.4,67.8L86.5,67.5L87.1,67.0L88.3,66.6L89.0,66.1L90.8,65.5L92.5,64.6L94.0,64.0L97.5,62.5L101.2,61.0L102.4,60.4L106.0,59.0L107.2,58.2Z M13.8,49.3L15.4,49.4L16.5,49.8L17.3,50.7L17.8,51.9L17.8,54.0L17.7,54.6L17.2,55.3L16.2,56.3L15.8,56.5L14.6,56.8L13.2,56.7L12.0,56.2L11.3,55.5L10.9,55.0L10.5,53.6L10.6,51.9L10.9,51.3L12.4,49.8L13.2,49.4Z M113.7,46.7L115.1,46.7L116.0,47.1L116.4,47.4L117.4,48.2L117.9,49.0L118.2,50.2L118.0,52.1L117.6,52.8L116.4,54.0L115.8,54.4L114.7,54.7L113.6,54.7L112.5,54.4L111.8,54.0L110.7,52.8L110.2,51.3L110.2,50.3L110.4,49.0L110.8,48.3L112.1,47.2Z M63.4,36.7L63.7,36.7L64.7,37.9L65.9,40.0L66.3,40.4L67.4,42.0L67.9,43.0L68.2,43.3L68.3,43.6L69.4,45.4L70.2,46.4L70.5,47.1L72.0,49.0L72.4,49.8L72.7,50.1L74.0,52.4L75.4,54.3L76.3,55.9L76.7,56.3L79.2,60.3L81.8,64.0L83.1,66.2L83.1,66.6L82.8,67.0L81.3,67.8L79.9,68.2L77.4,69.5L76.2,69.9L73.0,71.4L72.8,71.4L71.6,72.1L69.9,72.7L69.4,73.0L66.5,74.0L66.3,74.2L65.9,74.3L65.2,74.8L64.4,74.9L63.7,74.9L62.8,74.7L62.5,74.4L61.7,74.2L61.2,73.9L60.7,73.8L60.2,73.5L59.7,73.4L58.8,72.9L57.9,72.7L55.8,71.7L53.9,71.1L53.6,70.9L52.8,70.7L52.4,70.4L49.7,69.4L48.7,69.0L47.8,68.7L47.0,68.2L45.2,67.6L44.8,67.1L44.8,66.6L46.2,64.1L47.1,62.9L47.3,62.3L48.1,60.9L50.8,56.8L51.7,55.1L52.5,54.1L53.0,53.0L53.6,52.2L55.4,49.2L55.8,48.8L56.4,47.5L57.9,45.2L58.3,44.4L59.3,42.9L60.1,41.4L61.9,38.6L62.1,38.0Z M60.5,25.5L61.7,24.8L62.5,24.7L63.9,24.7L65.9,25.5L66.7,26.3L67.2,27.5L67.2,29.2L66.7,30.5L66.7,30.7L65.9,31.6L65.5,31.9L64.3,32.2L62.6,32.2L61.4,31.9L59.9,30.5L59.4,29.6L59.3,28.0L59.4,27.2L59.9,26.3Z" fill="#000" fill-rule="evenodd"/>
</svg>