<svg xmlns="http://www.w3.org/2000/svg" viewBox="0 0 128 128" width="128" height="128">
  <path d="M9.1,51.7L9.2,52.3L10.0,53.4L12.7,57.0L14.2,59.2L14.6,59.6L15.3,60.8L19.4,66.2L21.1,68.7L22.5,70.4L22.7,70.9L23.1,71.3L24.3,73.1L24.7,73.5L26.5,76.2L28.5,78.8L30.5,81.7L31.3,82.7L31.5,83.0L33.8,86.1L36.8,90.4L37.9,91.8L38.0,92.1L39.7,94.4L42.2,97.0L43.4,97.8L44.5,98.1L45.5,98.3L74.7,98.3L76.5,98.1L79.7,98.1L81.9,97.9L83.4,97.2L84.8,96.3L86.3,94.8L88.4,92.3L88.6,91.9L90.5,89.6L98.3,79.0L100.4,76.5L100.5,76.1L102.3,73.7L102.8,73.2L104.1,71.3L105.7,69.3L108.2,65.9L108.7,65.3L108.9,64.9L109.5,64.3L110.7,62.4L113.0,59.6L113.6,58.6L114.8,57.2L115.0,56.8L116.8,54.6L117.3,53.7L118.0,52.8L118.6,51.9L119.0,51.5L119.1,51.1L118.7,50.8L109.8,50.8L101.3,50.7L100.5,49.9L99.9,49.2L98.7,47.9L98.3,47.3L96.5,45.3L94.9,43.1L94.2,42.4L93.3,41.1L87.4,34.1L85.1,31.1L84.2,30.2L79.0,30.2L74.7,30.1L70.6,30.2L68.2,30.0L63.7,30.1L51.8,29.9L50.8,30.1L49.8,31.2L47.5,34.6L46.3,36.0L46.2,36.3L43.8,39.4L43.6,39.8L42.2,41.6L41.4,42.8L38.8,46.5L37.1,48.4L35.5,50.6L35.0,51.0L33.9,51.1L27.7,51.1L22.8,51.4L9.4,51.6Z M102.8,68.4L103.1,68.4L103.7,68.8L103.7,69.1L103.3,69.7L102.8,69.8L102.4,69.2L102.4,68.7Z M18.8,55.9L19.4,55.7L22.6,55.7L25.0,55.6L31.1,55.6L31.6,55.9L31.6,56.1L31.2,56.6L30.4,58.0L29.9,58.5L29.4,59.4L28.8,60.1L28.5,60.6L28.5,61.2L29.4,62.5L31.0,64.4L31.5,65.2L32.6,66.5L36.5,71.4L36.8,71.7L38.6,74.3L40.0,75.9L45.7,83.3L47.8,85.7L50.3,89.0L50.4,89.5L50.1,90.0L49.6,90.5L48.5,92.3L47.5,93.4L46.0,93.4L45.1,92.5L45.0,92.3L43.8,90.8L39.0,84.2L38.8,83.8L38.3,83.3L37.6,82.1L36.1,80.2L32.7,75.4L32.2,75.0L32.1,74.6L31.5,74.0L31.0,73.1L30.5,72.6L29.4,71.0L27.4,68.5L25.5,65.8L24.6,64.7L24.3,64.1L20.9,59.7L19.0,56.9L18.6,56.6L18.5,56.1Z M109.3,55.6L109.2,56.0L106.2,60.1L105.2,61.6L104.7,62.1L103.9,63.3L102.6,64.8L98.1,71.0L97.6,71.5L97.2,72.2L96.4,73.1L94.8,75.4L92.5,78.3L91.2,80.3L90.7,80.7L88.3,84.1L86.9,85.8L86.6,86.4L86.0,87.0L85.7,87.5L85.1,88.2L83.5,90.4L81.5,92.8L81.2,92.8L80.2,93.5L79.0,93.8L71.5,93.8L67.9,94.0L58.1,94.0L54.1,94.0L54.0,93.8L54.0,93.3L55.0,92.0L55.7,90.6L56.4,89.9L57.9,87.6L58.5,86.8L59.1,85.8L60.5,83.9L61.5,82.4L61.9,82.0L62.4,81.1L65.0,77.5L65.4,76.7L66.8,75.0L68.5,72.4L70.1,70.2L70.6,69.4L72.6,66.8L73.1,65.8L75.1,63.2L75.2,62.9L76.8,60.7L77.0,60.4L77.5,59.8L78.8,57.8L79.2,57.4L79.5,56.8L80.1,56.0L80.9,55.2L103.3,55.2L105.2,55.3L108.9,55.3Z M51.8,37.3L52.5,37.4L53.7,38.6L55.9,41.6L61.1,48.0L61.2,48.2L63.9,51.4L65.8,54.0L68.2,56.8L68.7,57.6L70.4,59.6L70.6,60.1L70.5,60.7L70.0,61.5L69.6,61.8L68.7,63.3L67.9,64.4L67.8,64.7L67.0,65.6L66.7,66.2L65.7,67.4L63.7,70.5L62.8,71.6L62.0,72.9L61.7,73.1L61.3,74.0L58.4,78.0L55.2,82.7L54.1,84.0L53.7,84.4L53.3,84.3L52.4,83.4L50.4,80.7L49.4,79.5L46.6,76.0L46.6,75.7L45.9,75.1L44.3,72.8L43.0,71.4L42.6,70.6L39.7,67.1L38.8,65.7L37.5,64.3L37.1,63.6L35.6,61.8L34.8,60.6L35.0,59.9L36.7,57.6L37.1,57.2L37.3,56.8L38.2,55.7L38.4,55.2L39.5,53.9L40.0,53.0L40.5,52.6L43.0,49.1L44.3,47.2L44.9,46.5L45.1,46.0L46.6,44.1L47.3,43.0L49.4,40.4L50.6,38.7L51.2,38.1L51.3,37.8Z M57.3,34.6L57.6,34.4L57.9,34.3L66.0,34.4L67.2,34.6L69.3,34.5L72.6,34.6L80.7,34.7L81.6,35.0L82.4,35.8L85.5,39.6L85.8,39.8L90.9,46.0L93.0,48.3L94.4,50.5L94.1,50.8L92.1,50.8L77.6,50.8L77.3,50.9L76.8,51.5L76.4,52.3L74.4,55.0L74.0,55.4L73.6,55.4L73.0,54.9L72.7,54.3L72.0,53.6L68.4,48.8L66.4,46.5L65.2,44.7L64.0,43.3L61.8,40.4L61.1,39.7L61.0,39.5L59.9,38.2L59.3,37.3L57.3,34.9Z" fill="#000" fill-rule="evenodd"/>
</svg>