<svg xmlns="http://www.w3.org/2000/svg" viewBox="0 0 128 128" width="128" height="128">
  <path d="M17.7,24.7L17.9,40.3L17.8,45.9L18.1,65.1L18.2,66.8L18.2,75.7L18.4,78.2L18.3,80.9L18.5,84.6L18.9,86.8L19.8,89.0L20.9,91.0L23.0,93.1L24.1,93.9L27.2,95.3L28.2,95.4L30.2,95.9L35.3,96.2L35.7,96.5L35.9,97.3L36.1,102.0L36.2,113.2L38.8,115.9L39.4,116.3L41.9,118.6L42.3,118.9L42.8,119.0L55.1,118.9L56.8,118.8L57.8,118.4L58.3,117.9L58.4,117.6L62.8,113.2L63.2,112.5L63.2,109.0L63.2,106.4L63.0,105.3L63.0,102.3L63.4,102.0L63.7,102.0L66.3,103.3L66.8,103.7L68.1,104.4L69.6,105.4L71.2,106.3L71.7,106.7L72.7,107.1L74.9,108.5L75.4,108.6L75.7,109.0L77.4,110.0L77.9,110.1L78.6,110.1L80.2,109.3L83.6,107.1L83.9,107.0L86.2,105.7L86.8,105.2L87.7,104.8L89.7,103.4L90.8,102.9L91.1,102.6L93.8,101.1L97.7,98.6L99.2,97.9L101.6,96.3L105.6,94.1L107.0,93.1L107.5,93.0L108.3,92.4L109.6,91.8L110.4,91.2L110.5,90.7L110.4,78.3L110.3,77.2L110.2,71.3L110.0,70.2L110.0,65.8L109.8,63.6L109.9,61.4L109.7,55.0L109.4,34.6L109.3,33.9L109.0,33.6L102.4,33.5L100.9,33.7L94.5,33.7L93.4,33.8L88.4,33.8L82.1,34.0L75.4,34.0L65.6,34.3L60.2,34.2L58.6,34.3L53.3,34.3L52.5,34.5L46.0,34.5L45.6,34.2L45.4,33.4L45.3,25.5L45.2,24.6L45.1,24.6L44.4,26.0L44.1,27.2L42.7,29.6L42.0,30.5L40.3,32.2L39.1,33.1L37.2,34.2L34.8,35.0L32.4,35.3L29.9,35.2L27.7,34.8L27.2,34.4L26.0,34.1L23.6,32.7L22.9,32.2L20.8,30.1L20.1,29.1L19.0,27.1L18.2,24.5L17.9,24.5Z M40.7,113.0L40.8,112.4L42.7,110.2L43.5,109.6L45.6,109.4L55.1,109.3L55.7,109.5L56.6,110.1L57.9,111.2L58.9,112.3L58.8,112.7L56.2,115.4L55.3,115.6L54.1,115.7L44.0,115.8L43.0,115.3Z M39.5,71.0L40.7,70.9L41.1,70.8L44.2,70.8L44.9,71.3L45.4,72.5L45.8,73.2L46.3,73.7L47.4,74.4L48.4,74.7L49.9,74.7L50.5,74.6L51.9,73.8L53.1,72.5L53.6,71.3L54.1,70.9L58.3,70.8L58.7,71.2L58.9,72.5L59.0,82.0L59.6,98.5L59.6,108.7L59.0,108.7L57.9,107.8L56.8,106.7L55.8,106.2L43.4,106.4L42.5,106.8L41.2,108.1L40.4,108.8L40.2,108.8L39.9,108.5L39.8,102.6L39.5,98.7L39.3,77.2L39.1,73.2L39.2,71.4Z M51.4,55.5L52.0,55.5L57.3,58.6L60.0,59.9L64.2,62.5L65.0,62.9L65.9,63.5L67.0,64.0L70.0,65.9L73.1,67.6L73.4,67.9L74.8,68.7L75.4,69.4L75.5,75.1L75.7,77.2L75.8,87.1L76.3,98.5L76.3,104.4L76.0,104.7L75.5,104.7L73.8,103.7L71.7,102.3L69.0,100.9L68.7,100.6L66.8,99.5L66.4,99.2L63.5,97.5L63.2,97.1L63.0,96.7L62.7,74.9L62.5,73.5L62.3,68.0L61.9,67.4L52.4,67.4L51.8,67.3L51.5,67.1L51.3,66.3L51.3,60.9L51.1,58.2L51.1,55.8Z M105.7,53.6L106.0,53.9L106.1,54.8L106.1,63.2L106.3,63.9L106.2,72.3L106.5,78.3L106.4,79.1L106.6,83.3L106.6,88.9L106.1,89.4L105.6,89.9L103.5,91.0L101.1,92.6L97.3,94.7L97.1,94.9L96.7,95.0L95.5,95.9L95.0,96.1L93.7,97.0L92.2,97.8L91.8,98.1L91.0,98.4L90.2,99.0L89.2,99.5L88.6,100.0L87.2,100.7L87.1,100.9L86.8,101.0L86.3,101.4L86.0,101.5L81.5,104.3L80.7,104.5L80.4,104.3L80.2,103.5L80.0,97.0L80.1,93.6L79.9,92.1L79.7,84.1L79.7,79.1L79.5,70.9L79.6,69.4L79.7,69.1L80.4,68.6L85.8,65.4L85.9,65.2L86.2,65.1L94.1,60.2L94.8,59.9L96.7,58.6L97.4,58.3L100.5,56.3L102.1,55.5L102.8,54.9L103.1,54.8L105.1,53.6Z M53.1,51.1L54.4,50.2L56.5,49.2L57.9,48.4L58.4,48.2L63.5,45.5L64.7,45.4L67.8,47.0L71.4,49.2L72.7,49.8L74.9,51.3L76.5,52.1L82.3,55.5L82.9,55.8L84.2,56.6L85.6,57.3L87.3,58.4L88.1,58.7L88.3,59.0L88.3,59.3L87.2,60.2L86.6,60.4L84.7,61.7L83.6,62.2L83.1,62.6L82.3,63.0L81.8,63.5L79.8,64.5L78.6,65.4L77.8,65.6L77.4,65.6L76.5,65.4L76.5,65.2L74.7,64.2L74.2,63.8L73.5,63.5L70.9,61.9L68.6,60.7L67.6,59.9L65.4,58.8L63.7,57.6L62.7,57.2L62.0,56.6L58.7,54.9L58.2,54.5L57.1,53.9L56.3,53.4L55.5,53.0L55.0,52.6L53.2,51.6Z M68.7,42.9L69.1,42.5L71.0,41.4L71.2,41.4L72.0,40.9L72.7,40.7L72.9,40.4L76.0,38.9L77.2,38.1L78.2,38.0L83.1,40.5L83.6,40.9L85.7,41.9L89.2,43.9L91.6,45.1L94.5,46.8L95.0,47.0L96.4,47.8L99.6,49.4L99.9,49.7L100.6,50.0L101.5,50.6L101.9,50.9L101.9,51.2L100.9,51.8L100.3,52.1L100.0,52.4L96.0,54.7L93.3,56.5L92.3,56.9L91.9,56.9L90.1,56.1L86.7,53.9L83.7,52.3L82.5,51.6L82.2,51.5L81.8,51.2L80.1,50.1L78.0,49.0L77.0,48.3L75.6,47.6L74.6,46.8L74.3,46.7L74.0,46.5L71.1,44.8L70.7,44.4L69.1,43.6L68.7,43.2Z M85.8,38.1L86.0,37.9L87.5,37.7L98.2,37.5L105.3,37.6L105.6,38.0L105.7,39.1L105.7,42.8L105.9,45.7L105.9,48.2L105.7,48.6L105.1,48.6L104.4,48.3L102.9,47.4L102.8,47.4L102.7,47.2L101.7,46.8L100.7,46.1L98.4,45.0L97.4,44.4L92.9,42.1L92.7,41.8L92.0,41.6L90.4,40.6L89.2,40.1L88.3,39.5L87.8,39.3L87.5,39.0Z M69.1,38.0L69.3,38.4L68.7,38.9L64.9,40.7L64.4,41.2L61.0,42.8L57.1,45.0L56.3,45.3L55.4,46.0L54.1,46.5L51.7,47.9L51.0,48.1L49.5,49.1L48.1,49.7L47.5,50.3L47.5,65.2L47.4,67.0L47.2,67.3L44.0,67.6L36.0,67.7L35.4,68.0L35.3,78.2L35.4,81.9L35.6,83.2L35.6,92.0L34.6,92.2L31.8,92.2L29.8,92.1L26.7,91.0L24.9,89.8L23.9,88.8L22.8,87.0L22.3,85.7L21.8,82.6L21.5,50.7L21.3,48.9L21.3,35.9L21.7,35.5L22.2,35.5L24.2,36.7L26.1,37.5L27.4,37.9L30.9,38.4L42.2,38.4L48.5,38.2L50.6,38.3L54.2,38.1L57.4,38.2L65.8,38.0Z M31.0,18.9L30.0,19.2L29.2,20.0L28.6,21.1L28.5,22.3L29.0,23.5L29.8,24.3L30.9,24.8L32.0,24.8L33.3,24.2L34.1,23.4L34.4,22.4L34.4,21.2L34.1,20.5L33.8,20.0L32.9,19.2L32.1,19.0Z M30.5,15.5L29.3,15.8L28.3,16.3L27.7,16.8L26.1,18.5L25.4,20.5L25.2,22.3L25.6,24.0L26.1,25.0L27.6,26.6L29.6,27.7L30.9,28.0L31.9,28.0L33.7,27.7L34.8,27.1L35.9,26.2L36.7,25.3L37.4,23.8L37.6,23.1L37.7,21.1L37.4,20.0L36.7,18.4L36.2,17.8L34.6,16.3L33.8,15.9L32.7,15.6Z M30.4,17.9L31.9,17.9L32.7,18.0L33.5,18.4L34.5,19.2L34.9,19.8L35.3,20.8L35.4,22.4L35.1,23.6L34.0,24.8L33.3,25.3L32.1,25.7L30.9,25.7L29.3,25.0L28.2,24.1L27.8,23.4L27.6,22.6L27.5,21.1L28.1,19.6L29.3,18.4Z M30.0,12.4L28.1,12.9L26.7,13.6L25.6,14.4L24.1,15.8L23.5,16.8L22.8,18.1L22.4,19.1L22.1,20.9L22.1,22.6L22.4,24.1L23.3,26.4L24.1,27.6L25.6,29.1L26.5,29.8L28.8,30.8L29.8,31.1L32.4,31.2L34.4,30.8L36.4,29.9L37.9,28.7L38.8,27.7L39.9,26.0L40.6,24.2L40.9,23.2L40.8,20.2L40.4,19.0L39.7,17.2L38.8,15.9L37.1,14.2L34.6,12.8L33.1,12.6L32.8,12.4Z M29.9,14.7L32.9,14.7L34.4,15.2L35.3,15.7L37.2,17.4L38.3,19.5L38.6,20.6L38.5,23.2L38.0,24.8L37.4,25.9L36.0,27.3L35.1,27.9L34.2,28.2L33.9,28.5L32.5,28.8L29.8,28.7L27.5,27.7L26.6,27.0L25.6,25.8L24.7,24.1L24.4,22.8L24.4,20.6L25.1,18.4L25.7,17.4L26.5,16.5L27.3,15.8L28.7,15.1Z M30.8,9.2L27.6,9.8L25.5,10.7L23.7,11.9L21.9,13.7L20.6,15.5L19.5,18.0L19.0,20.4L19.0,23.1L19.6,25.9L20.5,28.0L21.9,30.1L24.2,32.2L26.2,33.3L28.5,34.1L31.0,34.4L32.7,34.4L34.6,34.1L36.4,33.5L37.7,32.9L39.3,31.8L40.9,30.3L42.4,28.2L43.5,25.9L44.0,23.2L44.1,21.2L43.8,19.1L43.3,18.0L43.1,17.3L41.6,14.4L40.0,12.5L38.0,11.0L37.2,10.5L36.5,10.3L35.9,10.0L35.0,9.8L34.3,9.4L32.3,9.2Z M30.4,11.4L32.2,11.4L34.3,11.8L36.7,12.8L38.3,14.0L39.6,15.3L40.9,17.4L41.4,18.7L41.8,21.1L41.8,23.0L41.5,24.7L40.8,26.4L39.5,28.4L38.0,29.9L36.7,30.8L34.7,31.7L32.4,32.2L29.4,32.0L27.2,31.2L25.5,30.3L24.0,29.0L22.4,26.9L21.5,24.9L21.1,22.9L21.1,20.6L21.3,19.0L21.5,18.8L21.6,18.2L23.1,15.4L25.0,13.6L26.5,12.6L27.8,12.1L28.0,11.9Z" fill="#000" fill-rule="evenodd"/>
</svg>