<svg xmlns="http://www.w3.org/2000/svg" viewBox="0 0 128 128" width="128" height="128">
  <path d="M54.6,99.5L54.6,113.0L55.2,113.5L56.4,113.9L57.3,114.1L59.2,114.8L59.5,114.8L60.8,115.3L61.4,115.4L66.4,117.0L67.0,116.9L67.1,116.6L65.9,114.6L63.6,111.7L63.3,111.0L61.0,107.9L60.7,107.2L58.9,105.0L58.8,104.6L57.2,102.4L57.0,102.0L55.7,100.4L55.6,100.0L55.1,99.5Z M87.7,99.2L87.4,99.4L87.2,99.6L86.8,101.0L85.7,103.6L85.6,104.2L85.4,104.6L84.3,107.8L83.7,109.0L83.3,110.5L82.9,111.2L82.9,111.6L82.4,112.7L82.4,113.4L82.8,113.4L84.9,111.6L87.3,109.3L87.7,108.7L87.9,108.0L88.0,100.6L88.0,99.5Z M63.7,95.1L63.6,95.5L66.4,99.9L67.9,101.8L68.2,102.5L69.8,104.7L70.0,105.1L72.0,108.0L72.6,108.7L73.6,110.2L74.1,110.8L74.5,110.7L74.7,110.3L74.6,108.3L74.8,104.9L74.8,98.6L74.5,98.1L74.3,97.9L73.3,97.5L70.4,96.7L69.6,96.4L67.7,96.0L67.2,95.7L65.9,95.5L64.5,95.0Z M40.4,94.5L40.2,94.3L39.8,94.3L38.5,95.3L35.8,97.4L33.7,98.9L33.1,99.5L27.7,103.6L27.2,104.1L27.0,104.6L27.3,104.8L27.9,105.1L29.1,105.3L32.5,106.5L33.5,106.7L35.8,107.5L36.5,107.6L37.2,108.0L37.8,108.0L39.6,108.6L40.1,108.5L40.4,108.3L40.5,105.1Z M82.5,93.3L82.0,93.4L81.5,93.7L77.0,97.5L76.7,99.0L76.7,107.6L76.8,108.4L77.2,108.4L77.6,107.6L77.7,106.9L78.1,106.3L78.8,104.1L79.0,103.7L79.5,102.2L79.9,101.6L80.0,100.9L80.6,99.7L80.9,98.6L81.4,97.2L81.6,96.9L82.5,94.0L82.7,93.9L82.7,93.4Z M56.0,93.1L56.0,93.7L57.8,96.1L58.2,96.9L58.7,97.4L60.2,99.7L61.2,100.9L62.2,102.7L63.1,103.7L64.5,106.1L65.1,106.7L65.3,107.1L66.4,108.8L67.0,109.4L67.9,110.9L69.1,112.3L70.5,114.5L71.6,116.0L71.8,116.4L72.2,116.9L73.2,118.3L73.9,119.0L74.3,118.4L74.3,114.5L73.8,113.1L72.2,111.2L72.1,110.8L71.6,110.1L71.3,109.8L68.5,105.6L68.1,105.1L67.2,103.7L66.1,102.3L65.9,101.8L64.9,100.6L64.8,100.2L64.0,99.2L63.3,98.1L63.1,97.9L62.3,96.8L62.1,96.2L61.6,95.8L61.0,94.8L60.1,93.9L56.6,92.9Z M87.6,89.6L87.4,89.6L87.2,89.8L86.5,92.0L86.1,92.5L86.0,93.3L84.6,96.8L84.0,98.7L82.8,101.6L82.6,102.4L82.2,103.3L81.9,104.3L81.8,104.5L81.5,105.5L79.8,109.8L79.7,110.4L79.4,111.0L77.9,115.0L77.6,115.5L77.5,116.1L76.9,117.4L76.9,117.8L76.7,118.0L76.8,118.5L77.4,118.3L80.0,115.9L80.4,115.4L83.1,108.4L83.4,107.3L83.7,106.7L84.3,104.8L85.3,102.5L85.5,101.8L86.2,100.1L86.4,99.3L86.6,98.9L86.8,98.1L87.7,95.6L87.9,89.9Z M40.3,88.6L40.1,88.4L39.6,88.4L37.5,90.1L37.0,90.3L33.6,93.0L32.5,93.7L30.9,95.1L29.5,96.0L27.2,97.9L25.7,98.9L24.0,100.3L22.4,101.4L21.3,102.4L21.3,102.8L21.7,103.1L23.6,103.7L24.6,103.8L25.2,103.6L28.5,101.2L29.4,100.4L35.8,95.7L40.0,92.3L40.3,91.8Z M98.2,86.7L97.8,86.7L97.5,87.2L97.5,94.2L97.4,98.6L97.5,99.0L98.0,99.0L98.4,98.7L100.5,96.8L103.8,93.5L103.9,93.3L103.7,92.6L101.2,89.8Z M32.7,86.3L32.2,85.9L31.7,85.9L31.1,85.5L30.2,85.4L29.4,85.1L28.3,84.9L27.9,84.7L21.6,83.0L21.1,83.0L20.7,83.4L20.7,83.9L20.7,94.8L20.8,95.3L21.3,95.3L21.7,95.2L22.7,94.3L23.2,94.0L25.2,92.4L32.1,87.2L32.7,86.6Z M98.8,79.7L98.0,80.4L97.8,80.8L97.8,81.3L98.1,81.8L101.1,85.0L101.3,85.4L103.5,87.6L105.2,89.6L106.1,90.5L106.8,90.5L107.0,90.1L107.2,89.4L107.2,88.0L106.9,87.3L99.9,79.7L99.6,79.5Z M107.3,72.8L106.8,72.9L106.4,73.2L104.4,74.9L103.3,75.7L100.9,77.9L100.9,78.5L101.1,78.9L106.0,84.1L106.3,84.5L107.0,85.1L107.3,85.0L107.5,84.7L107.6,73.1Z M74.9,68.9L74.8,68.8L74.3,68.8L71.8,70.6L71.2,71.2L70.1,71.9L66.3,74.8L63.4,77.2L62.2,77.9L61.8,78.4L61.9,78.8L62.1,78.9L63.2,79.3L66.5,80.2L68.2,80.7L69.5,81.0L71.9,81.8L72.9,82.0L73.9,82.3L74.7,82.2L74.8,82.1L75.0,81.3Z M77.7,67.0L77.2,67.1L77.2,67.2L77.2,71.3L77.0,73.6L77.1,76.0L76.9,79.8L77.0,81.1L77.1,81.2L77.6,81.3L78.8,80.6L81.4,78.4L82.3,77.9L82.7,77.4L83.5,76.9L84.8,75.9L85.2,75.4L85.2,75.0L84.9,74.6Z M77.3,60.9L77.2,61.8L77.2,64.1L77.2,64.7L77.6,65.2L85.3,73.7L86.1,74.3L86.7,74.3L87.2,74.0L87.9,73.3L88.0,73.0L88.0,72.2L87.8,71.7L85.4,68.9L83.7,67.2L83.6,67.0L80.4,63.5L79.2,62.4L78.8,61.9L77.8,60.9Z M74.6,61.3L73.6,60.8L72.8,60.7L71.9,60.4L71.0,60.4L69.2,61.6L65.9,64.2L65.4,64.4L61.3,67.6L59.1,69.2L55.7,71.9L55.2,72.2L54.8,72.7L54.7,75.9L55.1,76.2L55.3,76.2L56.2,75.6L59.9,72.7L60.7,72.3L62.2,71.0L63.4,70.3L65.6,68.5L66.1,68.2L68.2,66.5L68.7,66.2L72.5,63.3L74.6,61.7Z M20.9,56.6L20.8,67.0L21.1,67.5L21.4,67.8L22.4,68.1L25.0,68.7L27.2,69.4L28.2,69.6L28.7,69.9L30.1,70.2L30.8,70.1L30.8,69.7L30.0,68.4L29.6,68.0L29.3,67.5L26.9,64.2L26.6,63.6L24.7,60.9L22.5,58.0L22.2,57.3L21.4,56.5Z M68.8,59.5L68.0,59.1L65.5,58.4L64.8,58.3L64.0,58.0L62.1,57.7L61.1,57.2L60.7,57.2L59.1,56.7L57.8,56.5L57.3,56.2L56.0,55.9L55.3,56.0L55.0,56.4L54.8,69.9L55.1,70.2L55.3,70.2L56.1,69.8L65.8,62.4L66.4,61.9L66.5,61.9L68.6,60.3L68.9,59.8Z M88.2,52.7L87.7,52.7L87.0,53.1L82.2,56.5L81.8,56.7L81.1,57.2L80.6,57.7L80.6,58.1L80.9,58.6L81.8,59.4L85.5,63.6L87.8,65.9L88.0,65.9L88.4,65.3L88.3,64.4L88.4,61.8L88.4,53.0Z M56.2,53.9L56.1,54.3L56.5,54.6L58.1,55.1L59.7,55.4L60.6,55.8L61.3,55.8L62.1,56.2L62.8,56.2L68.7,57.9L69.5,57.9L69.6,57.7L69.6,57.2L69.0,56.4L68.8,55.9L68.5,55.6L68.3,55.2L67.7,54.4L64.9,50.0L64.4,49.7L63.9,49.7L63.4,50.0L62.6,50.2L59.7,52.0L57.5,53.0L57.3,53.3L56.5,53.6Z M107.7,49.1L107.3,49.2L107.1,49.6L106.1,52.0L105.6,53.8L105.2,54.7L104.8,56.2L103.4,60.0L103.4,60.9L103.6,60.9L104.5,60.3L107.2,58.1L107.6,57.7L107.7,56.9Z M74.0,49.1L74.2,49.7L75.4,51.6L75.8,52.5L76.2,52.9L78.2,56.1L78.7,56.7L79.0,56.8L79.5,56.8L80.0,56.6L85.5,53.0L85.9,52.5L86.4,52.3L86.6,52.0L86.6,51.8L86.2,51.5L84.3,51.0L80.0,50.1L78.7,49.7L75.9,49.2L74.9,48.9L74.4,48.9Z M27.5,48.9L27.5,49.2L27.9,49.9L28.4,50.4L29.1,51.5L30.2,53.0L30.8,54.0L31.3,54.5L31.5,54.9L31.9,55.3L34.6,59.4L36.6,62.0L38.4,64.8L39.7,66.6L40.2,67.1L40.5,67.1L40.6,67.0L40.7,66.4L40.6,64.8L40.8,63.7L40.7,60.1L40.9,53.0L40.7,52.3L40.5,52.0L39.6,51.6L36.9,51.1L36.2,50.7L35.0,50.6L34.2,50.2L33.4,50.1L33.0,49.9L31.4,49.7L31.1,49.5L29.4,49.2L28.6,48.8L27.8,48.7Z M21.0,48.5L20.9,52.5L21.2,53.4L22.0,54.8L22.7,55.7L24.6,58.6L27.8,62.9L30.9,67.6L31.5,68.3L32.0,69.2L33.4,71.0L34.2,71.3L36.0,71.8L36.5,71.8L37.2,72.2L37.7,72.1L37.7,71.5L37.2,70.8L36.7,69.9L35.9,69.0L34.9,67.5L34.6,66.9L32.4,64.0L31.3,62.3L29.2,59.4L28.5,58.2L28.3,58.1L27.8,57.2L27.3,56.8L26.7,55.6L25.0,53.5L21.7,48.7L21.4,48.4Z M68.2,47.8L68.1,48.0L68.2,48.5L68.6,48.9L70.0,51.3L70.3,51.6L74.9,59.0L75.3,59.3L75.8,59.4L77.5,58.3L77.8,58.0L77.8,57.5L77.6,56.9L75.9,54.6L74.3,52.0L73.1,50.2L72.8,49.5L72.2,48.7L71.4,48.3L70.5,48.3L69.3,47.8Z M51.2,45.4L48.5,45.4L47.9,45.5L46.6,45.5L43.9,45.9L38.6,46.2L35.6,46.6L34.2,46.6L31.9,46.9L29.6,47.1L29.3,47.3L29.7,47.6L32.0,48.3L33.3,48.6L33.8,48.8L34.9,49.0L39.9,50.4L41.4,50.6L43.3,49.8L46.6,48.0L47.6,47.6L48.5,47.0L50.6,46.0L51.2,45.6Z M52.1,44.2L51.8,44.0L49.9,43.5L48.1,43.1L47.1,43.1L46.1,43.3L42.8,43.5L41.6,43.7L39.1,43.8L34.9,44.3L32.2,44.4L30.5,44.6L26.9,44.9L25.6,45.1L23.4,45.2L23.1,45.4L23.1,45.5L23.6,45.9L26.1,46.6L28.6,46.6L30.1,46.4L34.5,46.1L35.2,45.9L39.5,45.7L43.0,45.3L44.9,45.3L47.9,44.9L50.3,44.8L50.8,44.6L51.9,44.5Z M103.0,42.5L102.4,42.6L99.3,44.7L98.2,45.7L98.0,46.4L97.9,49.8L98.0,56.4L98.5,56.3L99.1,55.1L99.2,54.5L100.7,50.4L100.9,50.0L101.3,48.5L102.4,45.7L102.5,44.9L102.8,44.5L103.0,43.6L103.2,43.2L103.3,42.7Z M100.7,42.2L100.2,42.1L98.1,42.1L97.6,42.3L95.5,42.4L94.9,42.6L91.3,42.7L90.2,43.0L88.0,43.1L87.7,43.2L87.8,43.6L88.2,43.8L90.3,44.0L90.6,44.2L92.2,44.5L93.7,44.9L96.4,45.3L97.0,45.0L99.5,43.3L100.4,42.8Z M29.0,42.6L29.4,42.7L30.1,42.6L34.1,42.4L37.3,42.0L39.6,41.9L40.2,41.7L40.5,41.3L39.8,41.1L39.0,41.0L35.2,40.1L34.1,40.1L33.4,40.5L32.5,40.7L31.1,41.4L29.7,41.9L29.1,42.2Z M107.3,39.9L106.7,40.1L104.9,41.3L103.8,44.0L103.0,46.5L102.8,46.8L102.6,47.6L101.5,50.6L97.8,60.9L97.8,64.7L98.1,65.1L98.5,65.1L98.8,64.7L99.3,64.0L99.5,63.0L99.9,62.2L100.6,60.0L101.9,56.6L102.0,56.0L102.2,55.6L102.9,53.4L103.4,52.5L103.8,51.0L105.5,46.4L105.7,45.4L106.3,43.9L107.5,40.4L107.5,40.2Z M82.3,9.6L80.5,9.2L75.2,9.2L74.0,9.4L72.2,10.1L70.8,10.9L70.1,11.4L68.7,12.8L67.3,14.4L66.4,16.1L65.9,17.2L65.7,17.4L65.1,18.6L65.1,18.8L64.1,20.8L63.8,21.2L63.6,21.9L63.3,22.4L63.0,23.8L63.0,25.6L63.8,29.4L63.8,30.3L63.5,30.6L62.8,30.7L62.1,31.0L61.4,32.0L60.7,32.5L60.4,32.5L59.9,32.0L59.3,30.8L59.2,29.6L59.2,28.6L59.3,27.8L59.3,23.8L58.8,21.2L57.9,17.8L56.8,15.8L54.6,13.2L53.1,11.9L50.4,10.5L48.8,10.1L46.6,10.0L43.8,10.3L41.6,10.9L39.6,12.0L38.5,12.7L34.9,16.0L34.0,16.6L33.4,16.8L32.6,17.4L31.6,18.5L31.1,19.4L30.9,20.3L30.9,22.5L31.2,24.3L32.2,26.9L33.7,29.3L36.6,32.7L36.3,33.0L31.2,32.9L30.5,33.1L30.5,33.3L30.6,33.5L33.6,34.6L34.2,35.1L37.4,36.6L39.2,37.8L39.0,38.3L38.3,38.4L37.1,39.1L37.1,39.3L37.5,39.7L38.3,39.8L39.7,40.2L40.9,40.3L41.8,40.7L42.8,40.7L45.3,41.4L46.8,41.7L48.4,42.1L49.3,42.2L51.4,42.8L54.8,43.5L55.4,43.7L56.3,43.9L56.5,44.0L56.5,44.3L56.0,44.7L55.3,45.0L54.9,45.3L47.4,48.9L46.1,49.7L44.7,50.3L43.0,51.3L42.7,51.7L42.5,56.2L42.4,72.2L42.1,74.8L41.8,75.0L40.8,74.9L37.1,73.7L35.7,73.5L35.5,73.3L33.8,73.0L32.8,72.6L30.6,72.1L28.7,71.4L27.3,71.2L25.0,70.4L24.0,70.3L21.9,69.6L21.2,69.6L20.8,70.1L20.7,80.6L21.1,81.1L24.6,82.2L25.5,82.4L26.0,82.6L28.5,83.2L31.4,84.1L34.0,84.7L36.3,85.4L39.1,86.1L39.8,86.4L41.4,86.8L41.7,87.0L42.1,87.5L42.0,107.8L42.1,109.1L42.4,109.4L42.8,109.7L46.1,110.8L46.7,110.8L48.0,111.3L48.3,111.3L51.3,112.4L52.1,112.4L52.3,112.2L52.6,90.8L52.7,90.6L53.1,90.4L54.0,90.5L55.5,91.0L57.7,91.5L59.0,92.0L61.4,92.5L65.0,93.7L67.7,94.3L68.2,94.6L70.6,95.2L71.6,95.6L73.9,96.2L74.7,96.5L75.6,96.6L76.2,96.4L78.0,94.8L79.8,93.5L86.4,88.0L87.3,87.4L88.3,86.5L88.9,86.3L89.2,86.8L88.8,106.9L89.1,107.1L89.6,107.0L94.4,102.5L96.0,100.8L96.2,96.9L96.3,87.8L96.4,85.9L96.5,80.2L96.9,79.6L97.4,79.0L104.5,73.2L107.3,70.8L107.4,70.3L107.5,60.5L107.3,60.2L107.0,60.2L106.3,60.6L104.5,62.1L102.1,63.9L101.6,64.4L101.1,64.7L100.1,65.6L98.3,66.9L97.4,67.7L96.9,67.7L96.7,67.5L96.6,66.6L96.8,59.4L96.7,57.2L96.9,54.8L96.9,48.3L96.8,46.8L96.1,46.4L91.4,45.4L90.1,45.2L89.1,44.9L87.8,44.7L86.1,44.3L85.8,44.0L85.8,43.9L86.9,42.3L87.7,41.7L88.6,41.6L91.7,41.4L93.2,41.2L95.6,41.1L98.0,40.7L99.2,40.7L100.7,40.5L103.6,40.3L104.7,40.0L106.2,39.0L106.3,38.7L106.1,38.5L105.2,38.4L104.3,38.6L101.9,38.7L96.4,39.3L92.7,39.4L92.2,39.6L89.8,39.8L89.4,39.6L89.3,39.4L89.5,39.2L90.2,38.9L94.1,38.7L96.6,38.4L98.9,38.3L101.6,37.9L102.5,37.9L102.7,37.6L102.3,37.4L100.7,37.3L99.3,37.0L93.5,36.4L92.9,36.2L92.7,36.0L92.7,35.7L94.8,33.8L94.8,33.6L94.4,33.2L93.3,33.2L92.7,32.9L91.8,32.7L91.0,32.7L89.4,32.4L85.7,32.4L84.8,32.5L84.0,32.7L82.7,32.8L81.2,33.2L80.1,33.3L78.7,33.8L78.1,33.7L78.1,33.5L79.5,32.3L80.9,31.0L82.2,29.4L83.2,27.7L83.5,27.4L85.3,23.2L86.2,20.5L86.6,18.8L86.9,15.2L86.6,14.0L85.9,12.4L85.5,11.7L84.3,10.6Z M67.3,46.5L68.3,46.5L68.7,46.7L69.6,46.8L70.2,47.0L73.3,47.6L75.7,48.3L77.0,48.4L85.1,50.3L86.0,50.4L86.8,50.7L88.9,51.1L89.3,51.3L89.7,51.8L89.7,58.7L89.5,60.0L89.6,67.6L89.4,73.8L88.2,74.9L83.7,78.3L83.5,78.5L83.3,78.6L77.6,83.1L76.7,83.6L76.3,84.0L75.7,84.4L74.9,84.4L74.4,84.1L72.0,83.5L70.0,82.8L68.7,82.6L68.3,82.4L67.4,82.2L66.7,81.9L65.7,81.7L64.9,81.4L64.5,81.4L63.2,80.9L60.6,80.3L58.9,79.7L57.6,79.5L56.9,79.2L54.5,78.6L53.2,78.1L52.7,77.5L52.9,57.7L53.1,54.5L53.9,53.7L56.0,52.6L57.5,51.7L58.8,51.1L60.6,50.1L62.9,48.9L63.7,48.3Z M34.9,17.3L35.3,17.0L36.1,17.0L37.1,17.4L38.2,18.2L43.0,23.1L44.9,24.7L49.1,28.8L49.4,29.2L51.6,31.6L51.8,32.3L51.6,32.5L50.9,32.5L49.0,32.8L46.6,32.8L43.8,31.1L39.3,28.0L38.0,26.7L37.2,25.8L35.6,23.2L34.6,20.4L34.6,18.6Z M80.4,11.7L81.4,12.2L81.9,12.8L82.2,13.3L82.4,14.2L82.4,14.9L82.1,15.8L82.1,16.1L81.6,17.3L80.5,19.3L79.1,21.2L79.0,21.5L78.4,22.4L78.2,22.8L76.8,24.4L76.5,24.3L76.3,24.0L76.3,21.6L76.1,20.0L76.0,17.7L76.1,16.0L76.3,14.9L77.1,13.4L78.2,12.2L79.2,11.7Z" fill="#000" fill-rule="evenodd"/>
</svg>