<svg xmlns="http://www.w3.org/2000/svg" viewBox="0 0 128 128" width="128" height="128">
  <path d="M118.2,26.9L117.0,26.9L116.0,27.2L112.7,27.8L111.9,28.1L110.8,28.3L110.3,28.5L107.8,29.2L107.4,29.4L105.4,29.9L101.5,31.2L100.4,31.8L99.9,31.9L98.2,32.4L93.7,34.6L91.0,36.2L88.9,37.7L86.9,39.3L86.2,39.7L85.6,40.2L83.8,41.4L83.3,41.9L81.6,43.2L80.7,44.1L80.1,44.4L77.7,46.4L76.0,47.6L73.0,50.1L70.4,52.1L69.7,52.8L68.9,53.3L68.1,54.1L64.6,56.9L63.5,57.6L61.1,59.6L60.6,59.9L59.6,60.9L58.1,61.9L57.3,62.7L56.9,62.9L53.8,65.5L52.2,66.6L49.7,68.8L48.4,69.7L44.0,73.3L42.4,74.5L41.8,75.1L41.0,75.6L40.6,76.0L37.8,78.1L37.2,78.7L36.6,79.1L31.5,83.3L31.1,83.4L28.1,85.9L27.6,86.2L25.5,88.1L22.7,90.1L21.9,91.0L19.4,92.8L16.5,95.3L16.2,95.4L15.2,96.5L15.0,96.5L14.9,96.8L13.6,97.6L12.0,99.0L9.6,100.7L9.2,101.1L9.2,101.3L9.8,101.2L12.1,99.2L12.2,99.0L12.8,98.7L14.0,97.6L14.3,97.4L14.9,96.8L15.7,96.5L15.9,96.1L16.5,95.7L17.7,94.7L18.8,94.0L22.6,90.8L23.3,90.4L24.1,89.6L25.7,88.5L26.5,87.8L27.3,87.3L29.8,85.3L30.5,84.9L31.7,83.8L32.1,83.7L32.3,83.4L32.7,83.2L33.5,82.5L35.6,81.0L36.6,80.1L39.8,77.9L40.2,77.5L42.4,76.2L44.9,74.9L47.4,74.1L48.6,73.9L50.4,74.2L51.5,74.8L52.5,75.8L53.0,76.8L53.4,78.0L53.4,79.0L53.6,79.4L53.7,81.3L53.6,84.9L53.1,90.8L52.9,91.9L52.9,92.8L52.6,94.6L52.6,95.8L52.7,95.7L53.0,95.2L53.8,90.6L54.1,90.0L54.3,88.5L55.0,86.6L55.1,85.7L55.5,85.0L55.9,83.4L56.5,82.4L56.7,81.8L58.1,79.1L59.2,77.9L60.7,76.6L62.4,75.9L64.0,76.1L65.1,76.7L66.2,77.9L66.9,79.3L67.2,80.2L67.6,82.2L67.8,84.2L67.8,89.1L67.3,93.5L67.4,95.2L67.6,95.1L68.4,92.3L68.7,90.8L69.3,88.9L70.0,86.3L71.7,81.6L72.5,80.1L73.6,78.4L75.0,76.6L77.9,73.9L78.3,73.7L80.6,71.7L83.7,69.3L84.9,68.3L92.8,62.1L94.3,60.6L94.9,60.3L96.0,59.2L97.4,58.3L102.8,53.4L106.5,49.5L107.2,48.6L107.9,47.9L111.2,43.1L111.9,41.8L113.5,39.3L114.0,38.1L114.7,37.2L115.2,36.0L115.4,35.8L117.0,32.7L117.3,32.3L117.5,31.7L119.0,28.8L119.0,28.3L118.3,28.5L111.2,34.0L109.7,35.4L108.7,36.0L107.7,37.0L100.5,42.6L99.9,43.1L99.8,43.6L99.8,44.2L99.9,44.7L99.9,45.9L99.8,46.5L99.0,47.7L98.2,48.4L97.0,48.9L95.5,48.8L94.4,48.3L93.5,47.4L93.0,46.5L92.8,45.5L92.8,44.4L93.3,43.3L94.6,42.0L95.7,41.6L97.1,41.6L98.6,42.2L99.3,42.2L99.9,42.0L100.3,41.5L101.8,40.6L104.6,38.1L108.6,35.2L114.1,30.6L116.0,29.2L118.2,27.3Z" fill="#000" fill-rule="evenodd"/>
</svg>