<svg xmlns="http://www.w3.org/2000/svg" viewBox="0 0 128 128" width="128" height="128">
  <path d="M110.3,86.5L110.3,86.9L110.5,87.0L111.3,87.0L111.3,86.8L110.9,86.4L110.4,86.4Z M9.1,52.0L9.2,52.4L9.7,52.7L12.4,53.7L13.0,54.0L13.4,54.1L14.8,54.8L15.3,54.9L16.4,55.4L17.7,55.8L19.0,56.4L21.5,57.3L22.1,57.7L22.9,57.9L23.1,58.1L23.9,58.3L24.4,58.6L25.1,58.7L25.4,58.9L27.9,59.8L28.6,60.2L30.3,60.8L30.8,61.1L31.2,61.2L31.9,61.5L32.3,61.6L33.1,62.1L36.1,63.3L36.9,63.9L36.9,93.6L37.3,94.0L37.8,93.9L39.7,93.2L41.5,92.8L41.9,92.5L43.6,92.0L45.2,91.3L46.2,91.1L46.3,91.0L46.5,91.0L48.3,90.2L49.4,89.9L51.0,89.3L53.2,88.7L53.5,88.4L56.5,87.5L57.1,87.2L58.0,87.0L60.7,86.0L61.8,85.8L62.2,85.8L62.6,86.1L63.2,86.4L63.9,87.0L64.2,87.0L64.7,87.4L65.9,88.0L67.4,89.0L69.5,90.1L70.6,90.8L72.0,91.3L72.2,91.6L73.4,92.1L74.0,92.2L74.3,92.4L75.1,92.5L75.9,92.9L79.4,93.5L81.2,93.5L82.5,93.3L84.4,93.2L88.0,92.7L88.5,92.4L91.1,91.4L92.6,90.5L93.7,90.0L99.1,86.6L104.1,82.9L105.0,82.5L105.8,81.9L107.2,81.2L107.4,80.9L107.8,80.9L108.1,80.6L109.3,80.0L109.7,79.8L111.0,79.2L111.5,78.9L112.1,78.8L112.5,78.6L115.2,77.7L115.9,77.7L119.1,76.8L119.1,76.5L118.8,76.3L117.7,76.0L116.9,76.0L112.7,74.6L111.6,74.0L110.7,73.8L108.3,72.5L103.3,69.2L101.2,67.4L100.7,67.2L97.3,64.5L96.6,64.1L94.0,62.2L91.1,60.6L90.6,60.4L89.8,60.0L88.1,59.5L87.9,59.3L87.6,58.7L87.8,51.1L87.7,42.3L87.2,42.2L86.6,42.6L84.7,43.2L81.7,43.2L81.4,43.0L80.5,43.0L78.3,42.5L75.1,41.2L74.7,40.9L74.3,40.8L74.0,40.5L72.3,39.7L68.4,37.4L67.2,36.6L67.0,36.6L66.3,36.0L65.0,35.3L64.7,34.9L63.5,34.2L62.5,34.3L62.0,34.6L61.3,34.7L61.0,34.9L60.1,35.1L58.1,35.8L57.5,35.9L56.9,36.2L54.6,36.9L53.3,37.4L52.4,37.6L52.0,37.8L51.3,38.0L47.5,39.3L46.9,39.6L46.3,39.6L43.9,40.5L43.6,40.5L41.6,41.3L41.0,41.3L40.7,41.6L38.4,42.2L38.3,42.4L35.9,43.0L35.7,43.2L34.1,43.7L33.5,43.8L31.7,44.5L30.9,44.7L29.9,45.1L29.6,45.3L28.7,45.4L28.1,45.7L27.7,45.7L26.9,46.1L26.0,46.3L25.6,46.5L25.3,46.5L24.2,47.0L23.9,47.0L23.0,47.4L22.5,47.4L20.5,48.2L18.4,48.8L18.0,49.0L17.3,49.1L15.3,49.8L14.5,50.0L14.1,50.2L12.6,50.7L11.0,51.1L9.6,51.6Z M44.2,66.7L44.7,66.3L45.1,66.4L47.2,67.3L48.4,67.6L49.4,68.1L50.4,68.4L51.3,68.8L53.1,69.4L53.4,69.6L53.8,69.7L55.7,70.5L58.7,71.5L59.1,71.8L60.6,72.3L61.0,72.8L61.1,73.2L61.0,77.6L60.9,78.6L60.1,79.2L58.4,79.7L56.3,80.6L55.1,80.9L53.9,81.4L52.7,81.7L52.2,82.0L51.7,82.1L45.2,84.3L44.5,84.4L44.1,84.4L43.9,84.1L43.9,73.7Z M63.3,78.2L63.4,73.3L63.6,72.5L64.0,72.1L66.2,70.9L66.5,70.7L67.0,70.5L67.8,69.9L68.2,69.8L72.0,67.8L72.4,67.7L73.1,67.3L74.2,66.9L75.6,66.2L78.9,65.1L80.0,65.0L82.1,65.0L83.7,65.1L83.9,65.3L85.3,65.5L86.2,65.9L86.7,65.9L87.3,66.3L87.8,66.4L89.5,67.2L94.0,70.2L95.4,71.4L97.7,73.1L98.5,73.9L99.5,74.4L100.8,75.4L101.4,75.7L102.3,76.4L102.3,76.6L102.1,76.8L101.2,77.2L100.2,77.9L99.7,78.0L94.8,81.6L94.3,81.8L93.1,82.7L90.2,84.4L87.7,85.7L86.0,86.4L85.0,86.5L84.6,86.7L83.5,87.0L82.1,87.1L80.3,87.1L78.3,86.8L76.6,86.2L75.1,85.5L74.3,85.3L72.1,84.2L69.6,82.6L69.0,82.4L68.1,81.8L66.1,80.7L64.7,79.8L64.0,79.5L63.4,78.9Z M80.9,50.3L80.8,56.8L80.6,57.9L80.3,58.3L75.9,59.0L73.4,59.9L71.3,61.0L70.7,61.1L68.9,62.0L68.7,62.2L68.2,62.4L67.3,63.0L66.7,63.3L64.9,64.4L64.0,64.7L63.0,65.5L62.7,65.6L62.1,65.5L60.5,64.8L59.8,64.7L59.3,64.4L58.9,64.3L58.1,63.9L56.9,63.5L56.3,63.2L55.7,63.0L53.3,62.0L51.2,61.3L50.0,60.7L48.0,60.1L45.5,59.0L44.8,58.9L43.3,58.2L42.6,58.1L42.3,57.8L41.9,57.8L41.5,57.5L40.3,57.2L39.9,56.9L39.3,56.9L38.7,56.6L37.0,56.0L36.9,55.8L36.1,55.6L35.8,55.4L34.8,55.2L33.8,54.8L33.5,54.6L32.3,54.2L32.3,53.9L32.4,53.8L33.5,53.8L35.3,54.0L40.5,54.0L41.9,54.1L44.6,54.1L47.2,54.3L50.3,54.2L51.2,54.3L54.7,54.4L55.0,54.6L55.4,55.0L55.5,55.5L56.1,56.5L57.1,57.4L58.3,57.8L60.4,57.8L61.1,57.6L62.2,56.9L63.1,55.9L63.6,54.9L63.7,54.0L63.7,52.9L63.4,51.8L63.2,51.5L63.0,50.8L62.0,50.0L61.4,49.6L60.1,49.2L59.2,49.2L58.9,49.4L58.5,49.4L57.1,50.0L56.0,50.8L55.2,52.0L54.5,52.3L45.8,52.2L42.4,52.0L36.7,51.9L34.9,51.7L32.7,51.7L32.4,51.5L32.6,51.4L33.7,51.0L34.0,51.0L36.0,50.3L36.4,50.1L38.2,49.6L39.3,49.1L40.1,49.0L40.9,48.6L43.9,47.7L48.1,46.2L50.7,45.5L52.0,45.0L53.9,44.5L55.5,43.9L58.7,42.9L59.5,42.5L59.8,42.5L62.6,41.6L63.3,41.6L63.8,41.8L64.9,42.7L65.7,43.0L68.2,44.8L69.9,45.7L70.4,46.2L72.4,47.2L73.5,47.6L74.0,47.9L75.7,48.4L76.6,48.8L80.4,49.7L80.8,50.0Z" fill="#000" fill-rule="evenodd"/>
</svg>