<svg xmlns="http://www.w3.org/2000/svg" viewBox="0 0 128 128" width="128" height="128">
  <path d="M36.8,70.6L36.3,71.0L36.2,101.7L36.5,103.2L37.4,105.5L37.5,106.2L38.0,107.7L38.3,108.4L39.0,111.0L39.5,112.0L39.7,113.2L40.0,113.7L40.2,114.6L41.1,117.1L41.2,117.9L41.7,118.5L42.0,118.5L42.2,118.3L42.4,117.3L43.3,115.2L43.9,112.9L44.3,112.2L45.1,109.5L45.4,109.1L46.1,107.1L46.2,106.4L46.4,106.0L46.7,104.9L47.2,103.8L47.3,103.2L47.5,102.8L47.9,102.7L48.3,103.3L48.3,103.7L48.7,104.4L49.1,106.0L49.6,107.0L49.8,108.1L50.2,108.7L50.4,109.7L50.7,110.2L50.9,111.2L51.2,111.6L51.4,112.6L53.2,118.0L53.5,118.0L54.0,117.1L54.5,115.3L55.1,114.0L55.2,113.2L55.6,112.6L56.2,110.9L56.3,110.1L56.8,109.1L57.4,106.6L58.4,104.1L59.0,101.9L59.0,94.8L59.2,94.2L59.0,92.7L59.0,70.8L58.8,70.7L57.7,70.8L51.7,74.6L49.8,75.5L48.3,76.4L47.6,76.4L44.1,74.3L42.2,73.5L41.0,72.6L38.5,71.3L38.3,71.0Z M69.6,70.4L69.3,70.8L69.5,101.6L70.1,103.4L70.1,103.8L70.5,104.6L70.6,105.4L71.0,106.5L71.8,109.7L72.3,111.3L72.8,112.2L72.9,113.3L73.2,113.8L73.9,116.8L74.2,117.3L74.4,118.6L75.0,118.8L75.3,118.4L75.6,117.0L76.2,115.5L76.2,115.0L76.5,114.2L76.7,113.1L76.9,112.9L77.2,111.6L78.1,109.4L78.8,106.9L79.8,104.1L79.8,103.7L80.7,102.6L81.3,103.4L81.6,104.5L82.3,106.2L82.5,107.2L83.5,110.0L83.5,110.4L84.0,111.5L84.2,112.6L84.4,113.1L84.6,114.1L85.1,115.2L85.8,117.9L86.2,118.3L86.7,118.2L86.9,117.2L88.2,113.3L88.2,112.9L88.5,112.5L89.1,110.1L89.4,109.5L89.5,108.7L89.8,108.1L90.0,106.9L90.5,106.0L91.9,101.4L91.9,70.9L91.7,70.8L91.2,70.8L87.7,72.7L87.4,73.0L86.9,73.2L85.6,74.0L85.0,74.2L84.7,74.5L84.1,74.7L81.7,76.2L81.1,76.4L80.4,76.4L72.1,71.4L70.3,70.5Z M80.0,59.0L79.0,59.3L78.0,59.9L77.0,60.7L76.1,62.6L76.0,64.4L76.1,65.1L76.6,66.5L77.6,67.6L78.5,68.2L79.4,68.6L81.1,68.8L82.9,68.3L84.3,67.3L85.2,66.0L85.2,65.6L85.5,65.1L85.6,62.9L85.1,61.4L83.8,59.9L82.6,59.3L81.6,59.0Z M46.4,59.0L45.4,59.4L44.0,60.6L43.5,61.4L43.0,63.1L43.0,64.6L43.2,65.4L43.6,66.3L44.8,67.7L45.7,68.2L47.3,68.6L48.9,68.6L49.7,68.3L50.9,67.7L51.9,66.5L52.6,65.1L52.6,62.6L52.3,61.7L51.8,60.7L50.8,59.8L49.7,59.2L48.6,58.9Z M41.8,9.7L36.4,26.3L36.5,29.4L36.3,57.7L37.0,57.9L37.9,57.5L38.4,57.1L39.8,56.4L40.1,56.1L40.7,55.9L41.0,55.5L42.7,54.7L43.0,54.5L44.6,53.8L44.9,53.5L47.2,52.2L48.1,52.1L49.7,53.1L50.6,53.4L54.5,55.8L58.5,57.9L58.9,57.8L59.1,49.1L58.9,35.6L59.0,27.3L57.4,22.6L57.3,22.0L56.9,20.8L56.8,20.0L55.8,17.6L55.5,16.4L55.3,16.2L53.9,11.2L53.4,10.6L53.1,10.7L52.9,11.1L52.8,11.6L52.0,13.6L51.8,14.6L51.5,15.3L51.3,16.5L50.4,18.7L49.1,23.2L48.8,23.7L48.6,24.7L48.0,26.1L47.7,26.1L47.2,25.7L46.4,22.7L44.5,16.9L43.8,14.1L43.5,13.4L42.7,10.5L42.3,9.7Z M75.1,9.5L74.6,10.1L74.4,11.2L73.5,13.9L73.2,15.4L72.9,15.8L72.7,16.8L71.8,19.1L71.7,19.8L71.2,21.0L71.0,22.0L70.1,24.4L69.5,26.8L69.5,32.3L69.3,33.4L69.6,57.8L70.3,57.8L71.2,57.2L73.7,55.9L75.0,55.0L77.5,53.8L78.8,52.9L80.7,52.1L81.2,52.2L82.9,53.3L83.3,53.4L83.6,53.7L84.2,53.9L84.5,54.3L85.3,54.5L86.3,55.3L87.9,56.1L89.4,57.1L90.7,57.6L91.3,58.1L91.9,58.1L92.1,57.9L92.0,26.3L91.5,24.3L91.2,23.9L91.0,22.8L90.6,22.1L90.0,20.0L89.6,19.1L89.4,17.8L89.1,17.4L88.8,16.6L88.7,15.8L88.2,14.6L87.8,13.1L87.3,12.1L87.0,10.8L86.8,10.5L86.5,10.6L85.7,12.5L85.5,13.7L85.2,14.0L84.7,16.0L84.4,16.5L84.4,16.8L84.0,17.9L83.7,19.2L82.7,21.6L82.6,22.2L81.9,23.6L81.4,25.6L80.9,26.2L80.7,26.2L80.3,25.7L79.2,22.1L78.9,21.3L78.5,19.5L77.9,18.1L77.5,16.5L77.0,15.2L77.0,14.8L75.6,10.5L75.5,9.7Z" fill="#000" fill-rule="evenodd"/>
</svg>