<svg xmlns="http://www.w3.org/2000/svg" viewBox="0 0 128 128" width="128" height="128">
  <path d="M87.7,68.9L87.4,68.6L82.8,68.6L82.2,68.7L81.6,68.6L80.9,68.8L80.6,69.3L80.4,71.0L80.2,71.6L80.1,72.9L79.7,73.8L79.5,74.6L77.4,79.0L76.8,79.9L75.1,81.9L74.2,82.8L72.7,83.9L70.9,85.0L68.7,86.2L68.1,86.3L67.4,86.7L66.8,86.7L66.2,87.0L62.7,87.5L58.9,87.2L57.6,87.0L56.9,86.7L55.8,86.6L54.5,85.9L53.7,85.7L52.2,84.8L51.9,84.7L49.6,83.1L47.6,81.1L46.4,79.7L46.1,79.1L45.8,78.8L45.0,77.4L43.8,74.5L43.8,74.2L43.2,72.4L43.2,71.3L42.9,70.1L42.9,69.4L42.6,68.9L42.3,68.8L40.9,68.9L39.0,68.7L36.0,68.7L35.5,69.0L35.4,69.5L35.7,70.4L35.9,71.6L36.4,73.1L37.1,74.8L38.0,76.3L38.3,76.9L38.6,77.3L39.7,79.1L42.9,82.8L44.9,84.4L46.7,85.7L46.8,85.7L48.5,86.8L50.3,87.7L50.8,87.8L51.6,88.3L54.0,89.2L55.1,89.3L57.6,90.0L60.3,90.2L63.6,90.2L67.2,89.7L68.1,89.4L69.4,89.2L70.5,88.7L72.0,88.4L74.5,87.1L76.4,86.0L77.2,85.3L77.8,84.9L78.7,84.1L81.0,82.2L81.3,81.7L82.5,80.6L83.9,78.7L85.0,76.7L85.4,76.1L85.6,75.6L86.2,74.4L86.4,73.6L86.6,73.3L87.1,71.9L87.3,70.6L87.6,69.9Z M20.8,63.1L20.6,63.5L20.6,67.4L20.8,68.0L21.0,68.1L21.6,68.1L22.0,68.0L24.2,68.0L25.8,67.7L26.9,67.6L27.6,67.4L27.9,67.1L28.1,66.8L28.0,64.3L27.9,63.9L27.5,63.5L25.8,63.1L24.0,63.1L22.4,62.8L21.1,62.8Z M29.3,66.6L29.5,67.2L29.7,67.4L30.3,67.6L35.6,67.8L36.0,68.0L41.2,68.1L42.0,68.2L45.8,68.1L48.5,68.3L51.0,68.1L55.1,68.4L55.3,68.6L55.6,70.2L55.6,77.1L55.3,78.1L54.9,78.8L54.3,79.6L53.6,80.9L53.6,81.4L54.0,81.7L69.8,81.7L70.1,81.6L70.3,81.4L70.3,81.1L69.1,79.4L68.5,78.4L68.3,77.4L68.2,68.9L68.5,68.4L69.2,68.2L82.3,68.0L83.3,67.8L86.2,67.9L90.9,67.6L92.1,67.7L95.2,67.6L96.3,67.5L101.9,67.4L106.0,67.1L107.4,67.1L109.5,66.9L116.0,66.6L117.8,66.4L118.4,66.1L119.1,65.2L119.2,64.4L118.8,63.6L118.2,63.1L117.9,63.0L100.2,63.0L93.8,62.8L78.4,62.9L75.8,62.8L68.8,62.7L68.4,62.5L68.1,62.0L67.9,60.2L67.9,58.2L68.1,57.0L67.9,56.7L67.6,56.5L65.0,56.4L62.6,56.4L59.8,56.3L56.2,56.3L55.9,56.4L55.5,56.9L55.4,61.9L55.2,62.2L54.8,62.4L44.9,62.6L41.2,62.9L36.8,63.0L36.2,63.1L34.2,63.1L33.5,63.2L30.3,63.3L29.8,63.4L29.3,63.8L29.3,64.0Z M56.1,55.3L56.4,55.5L57.5,55.6L60.7,55.5L66.5,55.6L66.9,55.6L67.2,55.3L67.1,54.9L64.3,52.2L63.8,51.2L63.7,50.3L63.2,49.9L60.3,49.9L59.8,50.1L59.5,50.7L59.5,51.3L59.2,52.1L58.4,53.0L56.9,54.1L56.2,54.8Z M63.3,46.0L62.3,44.9L60.8,44.2L58.2,43.8L55.8,43.8L53.3,44.1L50.3,44.8L49.4,45.2L48.0,45.7L46.7,46.3L46.2,46.7L45.3,47.1L42.4,49.4L40.4,51.5L39.7,52.4L39.5,52.9L38.9,53.6L38.0,55.1L37.9,55.6L37.7,55.8L36.8,57.6L36.6,58.2L36.3,58.7L36.2,59.1L35.9,59.8L35.7,61.5L35.8,61.9L36.4,62.1L37.6,62.2L39.7,62.0L41.8,62.0L42.3,61.7L42.6,61.3L42.6,60.5L43.1,59.6L43.2,58.6L43.8,57.4L44.1,56.3L45.5,53.7L46.8,52.0L49.1,49.7L50.2,49.1L51.1,48.3L53.5,47.1L54.0,47.0L54.4,46.7L55.1,46.6L56.2,46.2L56.8,46.2L57.7,46.5L58.3,46.9L58.9,47.4L59.3,48.1L59.9,48.6L60.7,48.8L63.4,48.8L63.8,48.4L63.8,47.1Z M87.1,58.0L86.8,57.5L85.9,54.8L83.3,50.4L81.3,47.8L79.4,45.7L78.0,44.5L75.3,42.5L74.3,41.9L74.0,41.9L72.0,40.8L70.4,40.2L66.8,39.1L62.9,38.4L61.3,38.4L59.3,38.1L54.0,38.0L50.8,38.1L50.4,38.3L49.3,38.3L45.5,38.7L40.6,39.7L38.6,40.3L37.8,40.4L37.3,40.7L36.2,40.9L35.6,41.2L34.2,41.6L33.5,41.9L32.8,42.1L31.6,42.5L28.5,43.9L24.5,46.0L22.4,47.4L20.5,48.6L17.9,50.5L15.9,52.2L15.2,52.7L13.2,54.7L11.3,57.0L11.0,57.6L10.4,58.4L9.9,59.3L9.4,60.6L9.3,61.3L9.1,61.8L9.0,64.0L9.5,65.7L10.4,67.2L11.1,67.8L12.8,68.6L13.6,68.8L16.1,68.9L16.8,68.6L17.6,68.6L19.1,68.1L19.4,67.8L19.5,67.2L19.5,64.2L19.4,63.2L18.2,61.9L18.0,60.8L18.2,60.2L19.1,58.5L20.2,57.3L20.8,56.4L23.2,53.8L24.0,53.2L26.3,51.1L31.0,47.7L31.7,47.4L33.4,46.3L35.7,45.4L36.0,45.1L37.1,44.5L37.7,44.5L38.3,44.1L39.0,43.9L40.4,43.4L41.3,43.2L41.7,43.0L42.3,42.9L43.8,42.4L44.3,42.4L46.1,41.9L46.8,41.9L47.1,41.7L49.0,41.5L49.3,41.3L50.1,41.3L50.8,41.2L51.9,41.3L52.6,41.1L57.2,41.1L62.0,41.6L65.9,42.6L66.5,42.9L67.2,43.0L71.2,44.9L73.7,46.6L76.3,49.3L77.9,51.5L78.1,52.2L78.8,53.2L78.8,53.4L79.3,54.2L79.3,54.7L80.0,56.2L80.1,57.1L80.4,58.1L80.7,61.3L81.1,61.7L81.6,62.0L82.9,62.0L86.9,62.0L87.5,61.9L87.8,61.5Z" fill="#000" fill-rule="evenodd"/>
</svg>