<svg xmlns="http://www.w3.org/2000/svg" viewBox="0 0 128 128" width="128" height="128">
  <path d="M74.5,23.6L74.4,24.1L74.4,31.3L74.6,32.2L75.0,32.7L75.4,32.8L77.6,33.0L78.3,33.3L78.5,33.7L78.6,34.7L78.1,39.2L78.2,40.8L78.4,41.3L79.0,42.0L79.9,42.4L81.2,42.3L81.9,41.7L82.3,40.6L82.4,39.2L81.9,35.0L81.9,33.7L82.5,33.1L83.9,33.0L85.0,32.7L85.5,32.2L85.7,31.7L85.8,28.6L85.7,24.5L85.5,23.5L85.4,23.5L84.7,24.7L84.2,24.7L84.0,24.4L83.7,23.4L83.5,23.3L83.3,23.5L83.0,24.6L82.6,24.9L82.4,24.9L82.1,24.6L81.7,22.8L81.5,22.9L80.8,24.3L80.6,24.4L80.3,24.2L80.1,23.9L79.9,22.8L79.5,23.0L79.1,24.0L78.8,24.3L78.6,24.3L78.4,24.1L78.1,23.1L77.8,23.0L77.6,23.3L77.5,24.1L77.2,24.5L76.8,24.5L76.7,24.3L76.4,23.4L76.2,23.2L76.0,23.2L75.8,23.7L75.4,24.2L75.1,24.1L74.7,23.6Z M41.3,20.9L41.0,21.4L41.2,26.0L41.6,26.3L42.5,26.3L42.8,26.1L43.3,25.6L44.1,25.3L45.3,25.5L45.8,26.0L45.9,27.4L45.8,28.6L45.8,31.7L45.4,37.7L45.5,42.2L46.1,42.6L48.7,42.7L49.4,42.5L49.9,42.1L49.8,37.4L49.4,35.4L48.8,26.0L49.3,25.6L49.9,25.6L50.9,26.0L51.9,27.2L52.3,28.6L52.4,29.7L52.8,30.1L53.2,30.1L53.6,29.8L53.7,29.5L53.5,26.6L53.2,25.2L52.7,24.2L51.6,22.8L50.2,22.1L49.1,21.9L48.0,21.9L47.0,21.7L44.0,21.8L43.3,21.5L42.4,20.8Z M72.2,9.2L71.7,9.3L71.7,10.9L71.5,11.4L71.4,12.0L70.8,13.2L70.4,13.7L70.3,14.1L69.0,15.7L68.1,17.2L67.6,17.8L67.0,18.7L65.5,20.5L64.9,21.5L64.0,22.5L63.5,22.7L62.9,22.6L62.5,22.4L61.1,20.5L60.2,19.5L59.3,18.1L58.9,17.8L58.5,17.2L57.1,15.5L56.0,13.6L55.6,13.1L55.0,11.9L54.8,10.7L54.9,9.6L54.7,9.4L54.3,9.4L53.6,9.9L52.1,11.4L51.3,11.9L48.2,14.8L48.2,15.1L48.4,15.2L49.9,15.2L51.3,15.9L53.9,18.4L54.0,18.8L57.2,22.5L57.6,23.2L58.1,23.7L58.4,24.2L59.2,25.1L61.0,27.6L61.3,28.6L61.4,44.8L61.3,45.9L60.9,46.2L60.3,46.4L52.6,46.4L51.6,46.2L50.3,46.2L49.7,46.4L46.7,46.3L38.8,46.5L37.1,46.3L35.3,45.7L34.0,44.2L33.6,44.3L33.5,44.5L33.7,52.9L34.2,53.0L34.9,52.3L36.3,51.5L37.4,51.2L38.5,51.1L60.4,51.0L61.1,51.3L61.4,51.6L61.5,55.5L61.3,55.9L60.8,56.4L59.9,56.7L55.6,56.9L52.5,57.3L51.7,57.3L47.7,57.9L45.8,58.4L43.6,59.2L43.0,59.2L41.5,59.9L40.8,60.1L36.7,62.2L32.6,65.1L30.9,66.6L30.5,67.3L29.9,67.9L29.0,69.6L28.3,70.4L27.6,71.5L27.6,71.8L26.7,73.7L26.7,74.2L25.8,75.8L25.3,77.8L24.9,78.7L24.9,80.1L24.4,81.5L24.0,85.7L24.1,91.1L24.4,92.1L24.5,94.4L25.4,98.4L25.8,99.4L25.9,100.1L26.5,101.2L26.7,101.9L28.7,105.9L30.3,108.1L32.4,110.4L34.9,112.3L37.1,113.8L40.7,115.6L41.7,115.8L43.2,116.5L45.3,117.0L45.6,117.1L46.3,117.2L47.2,117.5L49.6,118.0L53.9,118.6L56.5,118.7L60.1,119.0L68.7,119.1L76.4,118.5L78.5,118.1L79.8,118.0L81.4,117.6L81.9,117.6L82.2,117.5L83.6,117.2L86.7,116.3L88.1,115.6L89.3,115.2L91.5,114.0L93.3,112.8L96.1,110.6L96.5,109.8L98.3,108.0L98.6,107.4L99.1,106.9L99.7,106.0L99.9,105.3L100.4,104.7L102.3,100.5L102.4,99.9L103.2,97.4L103.6,95.6L103.7,95.3L103.8,93.8L104.0,93.3L104.0,91.3L104.1,90.2L104.0,86.5L103.7,82.2L103.1,79.6L102.9,78.1L102.6,77.5L102.5,76.6L102.1,75.8L101.9,75.1L101.7,74.7L101.4,73.8L100.3,71.5L99.4,70.2L99.2,69.7L98.8,69.3L98.6,68.9L97.5,67.4L96.1,66.0L95.8,65.6L94.5,64.4L92.9,63.3L91.8,62.6L90.3,61.5L88.3,60.4L87.3,60.0L86.3,59.7L84.6,58.9L83.6,58.7L82.5,58.7L81.9,58.3L80.8,58.0L77.1,57.4L76.0,57.4L74.1,56.9L72.2,56.9L70.5,56.6L67.2,56.7L66.7,56.5L66.1,56.0L65.9,54.4L65.9,51.9L66.1,51.5L66.4,51.1L67.1,51.0L79.9,51.0L88.4,50.8L90.8,51.0L91.8,51.3L92.7,51.8L93.4,52.5L93.8,52.6L94.0,52.3L93.9,44.1L93.5,44.1L92.7,44.9L91.9,45.3L90.7,45.7L89.1,45.8L87.8,46.1L76.1,46.1L74.0,46.3L66.9,46.2L66.3,46.0L66.0,45.6L65.8,44.7L65.8,36.0L65.6,32.7L65.7,27.4L66.3,26.5L69.7,22.1L71.1,20.1L72.0,19.1L73.3,17.2L74.3,16.1L75.6,15.1L76.5,14.6L77.8,14.5L78.1,14.2L78.1,14.1L75.6,11.9Z M44.1,74.9L44.7,74.7L46.0,74.8L46.4,75.0L49.0,75.4L49.4,75.6L50.2,75.7L54.4,77.0L57.0,78.1L57.8,78.6L59.2,79.2L61.1,80.2L61.7,80.8L61.8,81.2L61.9,82.7L61.8,89.4L62.1,98.4L62.0,100.9L61.6,101.3L60.8,101.2L58.1,100.1L57.2,99.6L53.4,98.3L51.8,98.0L49.9,97.4L44.9,96.8L44.2,96.2L44.0,95.6L44.0,86.2L43.9,84.4L43.8,80.2L43.9,75.1Z M83.5,74.5L84.1,75.2L84.3,75.6L84.4,90.4L84.5,92.9L84.5,95.5L84.3,96.5L83.8,97.0L83.1,97.1L80.5,97.4L79.3,97.6L78.4,97.6L75.7,98.1L74.1,98.8L73.5,98.8L71.3,99.7L70.8,100.0L70.0,100.2L67.8,101.3L67.3,101.5L66.7,101.4L66.5,101.1L66.3,96.7L66.3,86.5L66.2,84.6L66.3,80.3L66.9,79.6L70.5,77.8L72.7,77.0L77.2,75.6L77.6,75.6L78.4,75.3L79.7,75.1L80.4,74.9L81.7,74.8L82.5,74.5Z M32.0,72.9L32.5,72.4L32.9,71.7L34.0,70.2L37.1,67.4L40.2,65.6L44.4,63.8L46.4,63.3L47.5,62.9L48.5,62.8L51.1,62.1L52.9,62.0L57.6,61.4L61.0,61.4L61.4,61.6L61.6,62.0L61.7,62.7L61.8,72.1L61.7,74.2L61.1,74.7L60.6,74.7L59.8,74.5L59.1,74.1L58.5,73.9L56.9,73.1L54.9,72.3L54.1,72.1L53.7,71.9L53.1,71.8L51.7,71.2L48.1,70.4L46.1,70.1L44.7,69.7L43.9,69.7L40.2,69.7L39.9,69.7L39.5,70.2L39.4,85.2L39.7,93.8L39.7,100.5L39.9,101.0L40.4,101.1L44.4,101.3L44.9,101.5L46.0,101.5L47.6,102.0L49.0,102.1L52.6,103.0L54.2,103.6L54.5,103.6L55.2,103.9L56.9,104.4L57.2,104.7L58.8,105.2L59.2,105.4L59.9,105.6L61.7,106.5L62.2,107.3L62.2,108.8L62.5,109.3L66.0,109.3L66.3,109.3L66.6,108.8L66.6,107.2L66.7,106.8L67.1,106.5L68.1,105.9L72.7,104.0L75.6,103.3L75.8,103.1L77.5,102.8L77.7,102.6L79.1,102.4L79.7,102.2L81.0,102.1L82.4,101.8L84.3,101.7L85.8,101.5L88.4,101.5L88.9,101.2L88.9,92.0L88.7,88.2L88.8,85.5L88.6,79.6L88.7,77.4L88.6,75.4L88.5,70.1L87.9,69.7L86.5,69.6L84.2,70.0L82.7,69.9L81.6,70.2L80.4,70.3L79.2,70.6L78.6,70.6L77.6,71.1L76.7,71.2L73.4,72.3L72.4,72.4L71.1,73.0L70.3,73.2L67.3,74.6L66.7,74.5L66.3,74.2L66.1,73.6L66.1,62.0L66.5,61.5L66.7,61.4L71.7,61.5L72.2,61.6L73.3,61.6L79.7,62.6L81.7,63.2L82.4,63.3L84.9,64.1L87.4,65.2L89.4,66.4L92.6,68.8L94.0,70.2L95.4,71.8L97.7,75.7L97.7,76.2L98.6,78.3L98.8,79.5L99.0,80.1L99.5,82.2L99.9,85.7L99.9,90.0L99.7,91.6L99.6,93.3L99.1,95.8L98.7,96.9L98.6,97.6L98.2,98.9L97.3,100.6L97.2,101.1L96.6,102.2L96.3,102.5L95.6,103.8L94.9,104.5L93.6,106.2L90.9,108.6L89.7,109.5L88.7,109.9L88.1,110.4L87.9,110.4L86.1,111.4L84.8,111.7L82.0,112.7L80.0,113.1L79.5,113.4L78.2,113.4L76.0,113.8L75.2,113.8L74.6,114.0L72.6,114.1L72.0,114.3L68.8,114.3L67.9,114.4L63.7,114.5L58.5,114.3L58.0,114.2L54.7,114.0L51.4,113.4L50.4,113.4L47.8,112.9L46.8,112.5L45.6,112.4L42.9,111.5L39.2,109.7L36.6,107.9L34.0,105.5L32.9,104.2L31.9,102.4L31.2,101.5L29.9,98.2L29.0,94.4L28.5,91.9L28.5,84.2L29.3,79.7L29.5,79.1L29.7,78.2L30.1,77.3L30.3,76.4L31.2,74.2L31.8,73.5Z" fill="#000" fill-rule="evenodd"/>
</svg>