<svg xmlns="http://www.w3.org/2000/svg" viewBox="0 0 128 128" width="128" height="128">
  <path d="M69.8,105.4L69.4,105.2L61.3,105.4L60.9,105.5L60.5,105.8L60.7,110.9L60.6,111.8L60.7,113.9L60.9,114.7L61.3,115.0L64.6,114.8L67.2,114.9L69.8,114.8L70.2,114.6L70.2,114.0L69.6,113.6L63.9,113.6L63.4,113.4L63.0,112.7L63.0,111.5L63.3,111.2L63.8,110.9L69.1,110.8L69.5,110.7L69.8,110.4L69.8,109.9L69.6,109.6L69.1,109.4L63.5,109.4L63.0,109.0L63.0,107.4L63.5,106.9L64.1,106.8L69.5,106.7L70.1,106.2L70.1,105.7Z M48.8,103.3L48.3,104.6L48.1,106.1L47.2,109.2L46.8,111.6L46.8,112.2L48.0,112.7L48.4,112.7L48.9,112.9L51.0,113.3L53.6,114.1L55.5,114.2L56.2,114.0L57.0,113.1L57.3,112.1L57.2,110.9L56.5,109.9L56.5,109.5L56.6,109.2L57.5,108.5L57.8,107.8L57.9,106.5L57.6,105.7L57.0,105.2L55.5,104.6L54.7,104.5L49.6,103.2Z M49.5,109.7L50.0,109.1L50.3,109.0L51.1,109.0L53.6,109.7L54.4,110.1L54.8,110.6L55.0,111.8L54.5,112.3L53.9,112.6L52.9,112.6L52.3,112.3L49.8,111.7L49.4,111.1Z M50.5,105.9L50.7,105.5L51.1,105.2L52.9,105.5L54.8,106.2L55.4,106.9L55.4,107.5L55.0,108.1L54.6,108.2L53.6,108.2L52.5,107.9L51.7,107.8L51.3,107.5L51.1,107.5L50.4,107.0L50.3,106.5L50.5,106.2Z M87.1,100.8L86.8,100.6L85.8,100.7L85.4,100.9L85.0,101.5L84.8,102.1L84.9,106.8L84.7,107.5L84.3,107.5L83.6,106.8L80.9,103.2L80.5,102.8L80.0,102.6L78.8,102.8L78.0,103.5L77.5,107.2L77.4,109.6L77.3,109.8L76.7,109.8L75.4,107.7L74.6,106.8L74.1,105.8L73.3,104.8L72.7,104.7L71.8,104.9L71.4,105.3L71.5,106.0L72.5,107.5L73.4,108.5L74.2,109.9L76.0,112.1L76.4,112.8L76.9,113.3L77.7,113.4L78.5,113.3L79.0,113.0L79.2,112.7L79.7,108.4L79.7,106.6L79.9,106.2L80.3,106.2L80.7,106.5L84.3,111.1L85.4,111.2L85.7,111.0L86.0,111.0L86.7,110.5L86.9,109.9L87.1,104.3Z M39.0,98.3L38.6,98.5L38.5,99.2L39.2,99.8L40.3,100.3L41.2,101.2L41.1,102.2L39.5,105.1L39.2,105.9L38.1,107.8L38.1,108.2L38.4,108.6L39.1,109.0L39.8,109.0L40.7,107.9L42.9,103.6L43.6,102.7L44.3,102.7L45.8,103.4L46.2,103.7L46.7,103.8L47.1,103.7L47.5,103.5L47.5,102.9L46.8,102.3L42.5,99.8L41.0,99.1L40.7,98.9L39.7,98.4Z M95.8,94.8L95.1,94.9L92.1,97.1L91.4,97.5L90.6,98.2L90.0,98.4L88.4,99.7L88.3,100.4L88.9,101.4L89.3,101.8L89.6,102.3L92.2,105.8L92.9,106.9L93.8,107.6L94.5,107.5L98.5,104.7L98.9,104.5L99.8,103.7L101.2,102.9L101.4,102.5L101.4,102.2L100.9,101.6L100.3,101.5L99.8,101.7L99.3,102.3L98.6,102.6L97.0,103.9L96.5,104.1L95.3,104.9L94.7,104.9L94.0,104.2L93.8,103.8L93.8,103.3L94.8,102.3L98.4,99.8L98.7,99.4L98.5,98.6L98.0,98.3L97.6,98.3L96.5,99.1L95.5,99.7L94.5,100.6L94.2,100.6L92.9,101.6L92.2,101.6L91.6,100.9L91.5,100.5L91.6,99.7L96.3,96.0L96.4,95.3Z M41.5,92.8L41.6,93.1L42.0,93.2L43.0,93.5L46.8,93.8L47.0,94.0L49.3,94.3L50.5,94.6L51.9,94.6L53.2,95.0L54.8,94.9L54.8,94.7L54.0,94.5L51.1,94.2L47.9,93.7L46.8,93.7L44.0,93.1L43.1,93.1L42.4,92.8Z M30.8,91.5L30.2,91.5L29.9,91.9L29.9,92.4L31.9,94.3L32.0,95.1L30.8,96.9L27.7,100.5L27.5,100.9L27.6,101.3L28.6,102.1L29.3,102.0L33.0,97.7L34.1,96.7L34.8,96.7L36.5,98.2L37.0,98.4L37.3,98.4L37.8,97.9L37.8,97.3L37.2,96.7L35.2,95.1L33.8,93.8L33.2,93.5Z M104.7,85.5L103.7,86.0L103.1,86.5L98.5,91.8L98.3,92.6L99.2,93.7L104.9,98.7L105.7,98.7L106.1,98.4L106.8,97.5L106.8,97.1L106.1,96.4L105.9,96.4L104.5,94.9L104.5,94.3L105.2,93.2L105.8,92.6L106.3,92.4L108.4,92.5L109.1,92.7L110.6,92.8L110.9,92.7L112.3,91.3L112.3,91.0L112.0,90.7L109.5,90.6L108.5,90.3L108.1,89.9L108.3,89.0L108.3,87.6L108.0,87.1L107.3,86.3L106.7,85.9L105.7,85.5Z M105.4,88.2L105.8,88.6L105.9,89.0L105.9,89.5L105.1,90.8L103.2,92.9L102.5,93.1L101.9,92.8L101.3,92.0L101.3,91.4L101.8,90.6L103.7,88.5L104.7,88.0Z M24.0,83.1L23.5,83.1L23.0,83.4L21.5,84.8L17.3,87.9L16.6,88.7L16.6,89.1L18.7,91.9L20.0,93.4L20.7,94.5L22.0,95.8L22.7,95.8L22.9,95.3L22.9,94.9L19.6,90.6L19.3,89.9L19.3,89.3L19.8,88.7L20.3,88.5L21.0,88.5L22.0,89.3L24.6,92.7L25.1,93.0L25.8,92.8L25.8,91.9L24.7,90.6L23.9,89.3L22.9,88.3L22.5,87.4L22.5,86.9L23.4,86.0L24.2,85.9L25.6,87.3L26.2,88.2L28.2,90.5L28.9,90.6L29.3,90.2L29.2,89.6L28.1,88.0L26.2,85.9L24.6,83.6Z M111.0,73.7L109.9,74.7L109.5,75.4L107.0,80.4L106.5,81.5L106.5,81.9L106.7,82.2L107.0,82.4L107.8,82.6L108.3,82.9L108.7,83.0L109.8,83.7L110.6,84.0L111.0,84.3L112.0,84.7L113.5,85.4L114.5,86.1L115.2,86.1L115.7,85.6L116.1,84.6L116.5,84.0L116.8,83.2L118.0,81.0L118.0,80.8L118.9,78.6L118.9,77.4L118.8,76.9L117.7,75.7L116.4,75.2L115.8,75.2L114.9,75.7L114.3,75.7L114.0,75.3L113.6,74.5L112.9,73.9L112.3,73.7Z M115.6,77.7L116.2,78.0L116.6,78.4L116.7,79.1L116.2,80.4L115.6,81.5L115.5,82.1L114.8,83.0L114.2,83.1L113.3,82.8L112.9,82.4L112.8,81.8L113.0,81.0L113.3,80.5L113.3,80.2L114.2,78.4L114.9,77.8Z M112.0,76.4L112.6,77.0L112.6,77.9L111.2,80.7L110.8,81.1L110.0,81.1L109.7,80.9L109.3,80.4L109.5,79.2L110.6,77.0L111.4,76.4Z M16.6,66.4L13.2,69.3L12.9,69.5L11.7,70.7L10.5,71.5L9.6,72.4L9.3,73.1L9.7,73.7L9.9,74.5L10.4,74.8L13.2,74.8L13.8,74.6L15.7,74.6L16.5,74.8L17.0,75.2L17.0,75.5L12.4,79.9L12.3,80.8L12.9,82.0L13.4,82.2L18.9,81.8L21.5,81.9L22.5,81.7L22.8,81.4L22.9,80.8L22.6,80.2L22.1,79.9L20.0,79.9L18.2,80.2L16.2,80.2L15.9,79.9L15.9,79.5L17.8,77.6L18.3,77.3L18.8,76.7L20.4,75.2L20.5,75.0L20.2,73.7L20.1,73.4L19.5,72.9L13.7,72.9L13.3,72.8L13.1,72.4L13.1,72.2L14.0,71.2L15.8,69.7L16.4,69.4L17.6,68.5L17.7,67.9L17.6,67.0L17.2,66.5Z M112.6,64.2L112.4,65.7L113.1,67.2L113.2,68.0L113.6,68.5L113.9,68.6L114.7,68.6L114.9,68.4L114.9,67.0L115.4,66.6L115.9,66.6L117.9,67.1L119.0,67.1L120.2,67.4L120.2,64.9L117.4,64.6L115.6,64.1L114.3,64.1L113.7,64.0L113.0,64.0Z M120.2,59.2L119.9,59.9L119.9,61.0L120.2,61.4Z M7.7,55.6L7.7,58.2L7.9,58.2L8.5,59.6L9.2,60.0L9.8,59.9L10.2,59.5L10.0,58.2L10.5,57.9L16.5,57.8L16.8,57.5L16.9,57.0L16.8,56.0L16.4,55.7L16.0,55.6Z M120.2,52.7L118.8,52.3L116.2,52.3L114.9,52.7L114.2,53.2L113.5,54.1L112.9,55.6L112.9,58.2L113.4,59.7L114.5,60.9L115.6,61.4L117.1,61.3L117.9,60.9L118.7,60.1L119.1,58.9L119.3,57.8L119.2,56.4L118.7,55.1L118.7,54.8L118.8,54.6L119.3,54.5L120.2,55.1Z M115.7,54.6L116.2,54.6L117.0,55.0L117.3,55.3L117.5,56.0L117.5,58.1L116.9,58.9L116.4,59.3L115.6,59.3L114.8,58.7L114.4,57.9L114.4,56.1L114.8,55.3L115.3,54.8Z M15.7,51.8L15.2,52.3L15.2,53.4L15.7,53.7L16.7,53.6L17.0,53.3L17.1,52.3L16.6,51.8Z M119.0,40.6L118.4,40.5L117.3,40.5L116.5,40.6L115.6,41.4L115.0,42.3L114.8,43.1L114.8,44.6L115.0,45.2L115.1,45.8L116.2,47.6L116.2,47.8L115.7,48.1L115.1,48.1L114.7,47.9L114.1,47.4L113.4,46.4L113.2,45.5L113.2,44.5L113.7,43.5L113.6,42.3L113.5,41.9L113.1,41.7L112.7,41.7L112.1,42.3L111.7,43.0L111.5,44.0L111.5,45.2L111.7,46.2L112.4,48.3L113.1,49.1L113.8,49.6L115.2,50.1L117.5,50.1L119.0,49.7L120.2,49.1L120.2,41.6L119.6,41.0Z M117.9,42.7L118.6,42.8L119.4,43.5L119.8,44.6L119.8,46.1L119.5,46.6L119.0,47.1L118.8,47.2L117.7,47.1L117.0,46.5L117.0,46.1L116.6,45.2L116.6,44.2L116.9,43.4L117.2,43.1Z M24.7,37.6L24.5,37.9L24.6,38.9L25.0,40.0L25.1,41.2L25.4,42.1L25.6,43.7L26.4,46.5L27.1,50.2L27.4,51.0L27.5,51.7L28.0,53.0L28.1,54.6L28.5,55.3L28.6,56.1L28.9,57.2L28.9,57.7L29.3,58.9L29.5,60.6L29.9,61.4L30.0,62.6L30.3,63.1L30.4,64.0L30.8,65.2L31.1,67.0L31.3,67.4L31.4,68.3L31.8,69.1L32.4,72.3L32.7,73.1L32.8,74.4L33.2,75.5L33.2,76.0L33.6,77.1L34.0,79.8L34.6,81.7L34.7,82.9L35.1,84.2L35.2,85.1L35.5,85.8L35.5,86.3L35.9,88.2L36.1,88.5L36.4,90.4L37.1,92.3L37.5,92.6L38.2,92.7L38.6,92.5L38.7,92.2L38.4,92.2L38.0,91.9L37.6,91.1L37.2,89.0L35.9,84.2L35.8,82.6L35.4,81.5L35.2,80.2L34.5,77.3L34.2,75.6L34.0,75.3L33.7,73.8L33.3,71.5L32.5,68.4L31.9,65.5L31.6,64.6L31.6,64.1L30.9,61.3L30.9,60.8L30.0,57.8L30.0,57.3L29.6,55.8L29.4,54.5L29.2,54.0L29.2,53.6L28.2,50.2L28.0,48.4L27.2,45.7L27.1,44.8L26.6,43.2L26.6,42.7L26.3,42.3L26.2,41.2L26.0,40.6L25.7,39.0L25.5,38.7L25.5,37.7Z M10.9,37.5L9.9,38.4L9.2,40.2L9.1,41.3L8.8,41.9L8.6,43.1L8.2,44.6L8.0,46.4L8.7,46.8L9.8,46.9L10.8,47.2L12.6,47.5L13.5,47.8L14.5,47.9L16.6,48.5L17.5,48.4L17.7,48.1L18.0,47.3L18.0,46.9L17.8,46.5L17.2,46.3L15.4,45.9L14.6,45.2L14.9,43.1L15.4,40.9L15.4,39.4L15.0,38.6L14.4,37.9L13.3,37.4L11.9,37.3Z M12.5,39.7L13.4,40.3L13.4,42.4L12.7,44.7L12.2,45.1L11.5,45.1L10.6,44.7L10.4,44.5L10.4,43.2L10.5,42.3L10.7,42.0L10.7,41.6L11.1,40.4L11.6,39.9L11.9,39.7Z M114.8,29.5L113.3,29.2L111.9,29.6L111.0,30.5L110.7,31.0L110.4,32.1L110.6,33.5L111.5,35.3L112.7,36.5L112.7,36.9L112.3,37.3L111.6,37.3L110.7,37.0L110.0,36.4L109.7,35.9L109.2,34.5L109.5,33.2L109.5,32.5L108.8,31.4L108.2,31.4L107.7,32.2L107.4,33.0L107.4,34.7L108.0,36.2L108.5,37.2L109.3,38.1L110.7,39.0L111.5,39.2L113.0,39.2L114.5,38.8L116.3,37.8L117.2,36.8L117.5,35.9L117.7,34.8L117.7,34.1L117.4,32.7L116.7,31.4L116.0,30.5L115.1,29.6Z M113.3,31.5L113.9,31.4L114.5,31.6L115.6,32.7L115.7,33.4L116.0,33.8L116.0,34.8L115.6,35.5L115.1,35.9L114.3,36.0L113.8,35.8L113.0,34.9L112.5,33.8L112.5,32.4L112.9,31.8Z M37.2,26.8L37.0,27.3L37.0,29.2L37.1,30.1L37.2,35.3L37.1,35.7L36.5,36.1L34.9,36.3L34.0,36.3L30.7,36.8L28.6,37.0L28.0,37.3L28.0,37.5L28.7,37.7L30.0,37.7L32.5,38.0L33.6,38.0L34.3,38.2L37.5,38.4L39.1,38.7L40.8,38.7L42.2,39.0L44.7,39.1L48.4,39.6L49.4,39.5L50.4,39.8L55.8,40.2L56.3,40.4L57.7,40.4L59.5,40.7L61.8,40.7L65.8,41.2L67.1,41.2L68.5,41.4L72.8,41.9L74.1,41.9L74.8,42.0L80.7,42.5L82.5,42.8L83.6,42.8L85.6,43.2L86.8,43.2L87.5,43.4L87.8,43.8L87.9,44.6L87.5,46.9L87.5,48.1L87.2,49.1L86.8,53.4L86.3,56.2L86.2,57.6L85.8,58.9L85.7,61.8L85.3,62.9L85.2,64.6L84.8,66.9L84.8,68.3L84.4,70.4L84.2,73.0L83.8,74.7L83.6,77.3L83.3,78.2L83.3,79.4L83.1,80.3L82.8,83.0L82.6,83.5L82.6,84.4L82.1,87.3L81.8,90.0L81.8,91.1L81.5,92.0L81.4,93.6L81.1,95.3L81.1,96.4L80.8,97.8L80.2,98.3L79.0,98.3L78.0,98.0L77.2,98.0L72.8,97.3L71.4,97.0L70.7,97.0L68.5,96.5L66.6,96.4L65.1,96.0L62.4,95.8L60.8,95.4L59.0,95.3L57.0,94.9L56.5,94.9L56.2,95.2L57.2,95.6L58.2,95.6L59.8,95.9L62.9,96.3L64.5,96.7L66.4,96.8L70.0,97.5L71.8,97.7L73.1,98.0L75.2,98.2L76.0,98.4L78.0,98.7L78.3,98.9L79.6,99.0L80.7,99.3L81.6,99.2L81.8,99.0L82.0,98.2L82.4,94.7L83.0,91.1L83.8,90.3L85.2,90.1L85.8,89.3L86.1,86.9L86.9,83.6L87.2,81.2L87.6,80.2L87.7,78.8L87.9,78.1L88.2,76.1L88.6,74.3L88.7,73.1L89.0,72.4L89.0,71.0L89.4,69.8L89.4,69.2L90.0,66.3L90.1,64.9L90.5,63.4L90.6,62.2L91.2,59.7L91.3,58.3L91.6,57.5L91.8,55.4L92.2,54.1L92.2,52.8L92.5,51.9L92.4,51.0L92.7,50.5L92.9,49.5L93.0,48.4L93.5,46.2L93.6,45.1L94.1,43.2L94.2,42.1L94.6,40.2L94.8,38.2L95.3,36.5L95.3,35.6L95.7,34.3L95.7,33.5L96.3,30.9L96.6,29.0L96.1,28.7L95.4,28.7L94.0,29.0L92.9,29.0L91.6,29.3L89.8,29.4L83.3,30.3L81.5,30.4L79.9,30.8L78.3,30.9L77.9,31.0L75.9,31.3L74.9,31.3L74.3,31.5L73.4,31.5L71.1,31.8L69.7,31.8L68.5,32.2L64.8,32.5L62.7,32.9L58.4,33.3L56.6,33.6L53.8,33.8L52.5,34.0L52.1,34.2L50.4,34.2L49.4,34.5L46.2,34.8L44.5,35.1L42.9,35.2L40.9,35.5L38.5,35.6L38.3,35.4L38.1,34.8L37.9,27.0L37.7,26.7Z M17.4,25.4L16.6,25.7L15.7,26.4L15.7,26.7L14.7,28.2L13.4,30.8L13.0,31.4L12.6,32.3L12.0,33.3L12.0,33.7L12.4,34.2L13.1,34.5L13.4,34.8L14.4,35.2L16.1,36.2L18.9,37.6L19.1,37.9L19.8,38.2L20.3,38.3L20.9,37.9L21.2,37.3L21.3,36.7L21.1,36.4L19.3,35.4L18.5,34.6L18.5,33.9L18.9,33.1L20.0,31.8L22.4,31.5L23.7,31.5L24.2,31.3L24.7,30.8L25.4,29.5L25.4,29.2L25.3,29.0L24.1,29.0L22.6,29.3L21.5,29.3L21.1,29.1L20.9,28.6L20.9,27.7L20.5,26.7L19.6,25.8L18.6,25.4Z M18.2,27.8L18.6,28.2L18.9,28.6L18.9,29.4L18.3,30.7L17.4,32.2L17.3,32.5L16.6,33.4L16.3,33.5L15.3,33.1L14.7,32.6L14.7,31.9L15.9,29.4L16.8,28.1L17.6,27.7Z M40.6,26.1L40.6,26.4L41.1,26.5L46.2,26.6L47.6,26.8L51.7,26.8L53.7,27.0L57.6,27.0L59.5,27.1L67.0,27.1L72.5,27.4L75.5,27.4L76.7,27.6L79.4,27.6L85.1,27.9L89.4,27.9L94.3,28.2L96.9,28.2L97.4,28.3L97.8,28.8L97.2,32.8L96.8,34.1L96.8,34.8L96.3,37.1L96.2,38.5L95.9,39.2L95.8,40.6L95.5,41.6L95.3,42.7L95.3,43.5L94.8,44.9L94.7,46.3L94.4,47.1L94.3,48.1L93.8,50.4L93.6,51.9L93.4,52.6L92.9,56.2L92.5,57.4L92.4,58.3L92.2,58.7L91.9,61.0L91.6,62.4L91.5,63.5L91.2,64.2L91.0,65.7L90.6,67.2L90.5,68.8L90.1,70.2L90.1,71.0L89.0,76.1L89.0,76.8L87.9,82.2L87.9,82.8L88.4,83.1L90.9,82.7L91.5,81.9L91.8,80.2L92.1,79.6L93.1,75.0L94.3,70.5L94.5,69.2L94.8,68.3L94.9,67.2L95.3,66.5L95.6,65.1L95.7,64.1L96.5,61.7L96.5,61.2L96.9,59.9L97.4,57.6L97.9,56.2L98.5,53.3L99.4,50.1L100.0,47.0L101.1,43.3L101.5,41.1L102.0,39.3L102.1,38.5L102.6,37.3L103.4,33.3L103.9,31.8L104.0,30.9L104.7,28.7L105.0,26.9L105.2,26.6L106.3,21.8L106.6,20.8L106.9,19.3L107.8,16.0L107.8,15.2L106.8,15.2L104.7,15.6L103.3,15.7L101.4,16.0L100.0,16.0L98.1,16.6L96.4,16.7L94.5,17.2L91.5,17.4L90.2,17.9L88.7,17.9L87.6,18.3L86.0,18.4L84.3,18.8L81.9,19.1L78.9,19.7L76.8,19.9L75.1,20.3L72.7,20.5L72.3,20.7L70.6,21.0L70.3,21.2L67.4,21.5L66.4,21.8L64.6,22.2L63.9,22.2L61.9,22.6L61.0,22.6L58.6,23.1L56.8,23.2L55.6,23.6L48.7,24.5L47.8,24.9L46.0,25.1Z M28.5,14.0L26.5,14.0L24.3,14.9L22.3,16.7L21.0,18.6L20.4,20.8L20.5,21.7L20.9,22.9L21.4,23.8L22.1,24.5L23.4,25.6L24.1,25.9L25.6,26.2L26.6,26.2L28.6,25.5L29.6,24.7L31.0,23.3L31.9,22.1L32.5,20.9L32.6,20.1L32.6,18.6L32.0,16.8L30.7,15.3L30.0,14.7Z M26.0,16.1L27.1,16.1L28.6,16.6L29.2,17.1L29.9,18.1L30.4,19.4L30.4,20.5L30.0,21.8L28.8,23.1L27.1,24.0L25.9,24.0L24.6,23.5L23.8,22.8L23.2,22.0L22.8,20.6L22.8,19.6L23.0,18.7L23.4,17.9L24.9,16.6Z M92.9,12.5L92.9,12.7L93.9,13.1L94.4,13.1L94.8,12.7L94.8,12.5Z M83.8,12.5L83.8,12.7L84.9,12.7L84.9,12.5Z M42.9,12.5L40.7,12.5L40.5,13.4L39.5,14.4L37.4,15.4L35.1,15.5L34.4,16.2L34.2,16.7L34.5,17.0L35.7,17.3L37.1,17.3L38.4,17.0L40.9,15.5L42.6,13.6Z M32.3,12.5L32.4,12.7L33.2,13.2L33.8,13.3L34.9,13.2L36.4,12.7L36.4,12.5Z" fill="#000" fill-rule="evenodd"/>
</svg>