<svg xmlns="http://www.w3.org/2000/svg" viewBox="0 0 128 128" width="128" height="128">
  <path d="M30.1,35.0L27.5,35.2L25.7,35.9L24.4,36.7L23.5,37.5L22.1,39.5L21.6,40.7L21.2,42.7L21.2,44.2L21.3,45.2L21.5,45.5L21.6,46.0L22.5,48.0L24.4,49.9L25.3,50.5L26.8,51.2L28.9,51.6L29.7,51.6L31.7,51.3L33.3,50.8L34.5,50.0L35.4,49.2L36.8,47.3L37.3,46.3L37.8,44.4L37.8,42.3L37.6,41.5L36.9,39.5L36.2,38.5L34.4,36.7L33.5,36.2L32.4,35.6L31.2,35.2Z M9.4,65.4L9.4,84.3L9.3,84.9L9.4,88.6L9.2,101.0L9.3,101.3L9.7,101.6L19.2,101.6L27.6,101.8L62.2,101.7L65.7,101.9L117.5,101.9L117.8,101.7L118.0,101.1L118.0,91.5L118.2,84.5L118.1,82.2L118.2,80.0L118.2,75.2L118.4,73.4L118.4,64.7L118.6,63.1L118.7,50.0L118.9,48.4L118.9,42.8L119.0,39.9L119.0,30.7L118.7,30.4L118.2,30.2L114.8,30.1L94.1,30.1L89.0,30.0L85.4,30.1L74.9,29.9L59.0,30.0L58.7,30.4L58.6,44.8L58.5,47.2L58.1,48.9L58.1,49.5L57.6,51.1L57.6,51.5L56.7,53.7L56.7,54.0L56.3,54.6L56.1,55.3L54.9,57.5L54.7,58.1L54.4,58.4L53.2,60.1L52.8,60.6L52.4,61.3L50.0,64.1L45.7,67.6L45.1,67.9L44.2,68.5L42.7,69.1L42.3,69.5L41.9,69.5L40.6,70.3L38.5,70.9L37.7,71.3L36.4,71.6L35.5,71.7L34.6,72.0L33.4,72.1L32.4,72.3L26.9,72.3L22.5,71.6L18.9,70.5L18.6,70.3L16.9,69.6L16.5,69.3L15.1,68.7L13.4,67.7L12.1,66.6L11.1,66.0L10.2,65.3L9.5,65.3Z M114.7,50.1L114.9,50.8L114.9,56.5L114.7,61.0L114.8,63.8L114.5,75.1L114.6,80.1L114.5,81.7L114.3,95.8L114.2,97.2L114.1,97.5L113.7,97.9L56.6,97.9L52.3,97.8L30.3,97.9L24.4,97.8L14.5,97.8L13.9,97.7L13.4,97.1L13.4,81.1L13.5,73.1L13.7,72.7L14.6,72.7L16.3,73.4L17.0,73.8L17.5,73.9L17.9,74.1L21.2,75.2L21.9,75.2L22.8,75.6L24.2,75.6L25.5,76.0L27.2,76.1L30.9,76.2L31.6,76.0L33.0,76.0L33.8,75.8L34.8,75.8L38.7,74.9L42.6,73.5L44.8,72.4L48.0,70.5L50.4,68.7L53.6,65.9L56.0,63.0L57.6,60.6L58.3,59.2L58.7,58.7L59.1,57.7L60.0,56.1L61.4,52.4L61.8,50.4L62.2,49.1L64.1,46.5L64.5,45.7L65.3,44.7L65.4,44.3L66.0,43.8L66.5,43.8L66.9,44.2L68.7,47.4L69.1,48.0L69.5,48.6L69.9,48.9L70.5,48.9L71.4,48.0L73.4,45.0L74.2,44.2L74.5,44.2L75.5,45.3L75.6,45.8L76.0,46.1L76.8,47.6L77.5,48.6L78.0,48.9L78.4,48.8L79.1,48.0L80.8,45.4L81.2,44.9L81.7,44.3L82.1,44.3L82.5,44.6L83.2,45.8L83.4,46.4L83.7,46.7L83.9,47.3L84.4,47.9L84.5,48.4L85.2,49.0L85.7,48.8L86.1,48.4L88.7,44.4L89.1,44.1L89.6,44.2L89.8,44.3L90.1,45.1L91.2,46.8L91.8,48.2L92.5,48.9L93.0,48.9L93.4,48.5L95.2,45.9L95.4,45.5L96.3,44.4L96.7,44.4L97.1,44.7L97.9,45.9L99.2,48.6L99.8,49.0L100.1,49.0L100.6,48.6L102.3,45.9L103.7,44.3L104.0,44.3L104.9,45.3L106.7,48.6L107.2,49.1L107.6,49.1L108.1,48.8L110.9,44.7L111.5,44.7L111.8,45.0L113.0,47.0L113.3,47.8Z M114.7,39.5L114.9,39.7L114.9,41.8L114.8,42.5L114.1,42.9L112.7,42.8L112.5,42.6L112.6,42.0L114.0,39.9L114.4,39.5Z M108.1,38.4L108.6,39.0L108.9,39.9L109.7,41.1L110.3,42.3L110.3,42.6L110.0,42.8L105.5,42.9L105.0,42.7L104.8,42.4L105.5,41.2L106.0,40.7L106.4,39.8L107.6,38.4Z M75.4,42.2L75.9,41.5L76.1,40.8L77.3,39.0L77.8,38.4L78.4,38.3L79.0,38.9L79.6,39.9L79.7,40.3L80.8,41.9L80.8,42.4L80.6,42.7L75.8,42.7L75.4,42.3Z M62.8,38.3L63.1,38.3L63.6,38.8L63.8,39.3L64.7,40.7L65.3,41.9L65.2,42.4L64.8,42.6L63.5,42.5L63.0,42.3L62.7,42.0L62.6,39.9Z M93.4,38.2L94.3,39.7L95.6,42.2L95.5,42.7L95.2,42.8L91.3,42.9L90.3,42.7L90.1,42.5L90.1,42.3L90.9,41.2L91.0,40.7L91.6,40.2L92.6,38.5L93.0,38.2Z M82.8,42.2L83.8,40.4L84.8,39.1L85.0,38.6L85.3,38.2L85.8,38.2L86.3,38.4L86.7,39.0L87.4,40.6L88.1,41.6L88.3,42.5L87.9,42.7L87.1,42.8L83.4,42.7L83.1,42.7L82.8,42.3Z M97.5,42.3L99.8,38.7L99.8,38.6L100.3,38.0L100.6,38.0L101.1,38.4L101.1,38.7L101.9,39.9L103.2,42.3L103.2,42.6L102.9,42.8L102.1,42.9L98.9,42.9L97.9,42.8L97.5,42.7Z M73.2,41.9L73.2,42.3L72.9,42.6L72.6,42.7L67.9,42.6L67.6,42.5L67.3,42.1L67.4,41.8L67.7,41.5L68.2,40.6L68.6,40.2L69.5,38.8L70.3,37.8L70.7,37.8L71.0,38.1Z M62.6,35.0L62.7,34.1L63.0,33.8L66.0,33.6L75.7,33.6L81.2,33.8L104.8,33.8L107.4,33.9L112.5,33.8L114.1,33.9L114.6,34.1L114.9,34.5L114.9,36.1L114.9,36.6L114.6,36.8L114.0,37.0L108.0,37.0L106.8,36.9L94.3,37.0L92.6,36.9L71.6,36.8L69.8,36.6L63.9,36.7L63.2,36.6L62.7,36.2Z M29.9,26.4L29.4,26.7L29.0,27.5L28.6,27.9L28.4,28.5L27.7,29.5L27.1,30.6L26.4,31.5L25.9,31.5L25.5,31.3L23.8,30.0L22.8,29.3L22.0,28.6L21.7,28.5L21.2,28.5L21.0,28.6L20.9,30.3L21.1,31.2L21.2,34.0L20.9,34.4L17.5,34.5L15.4,34.2L15.0,34.5L15.0,34.9L15.4,35.8L16.4,37.2L17.8,39.7L17.7,40.2L17.1,40.6L16.1,41.0L14.9,41.8L13.0,42.7L12.6,43.1L12.7,43.6L13.3,44.1L14.0,44.3L15.3,45.1L17.0,45.8L17.5,46.2L17.5,46.7L16.2,48.5L15.7,49.6L15.2,50.1L14.7,51.0L14.7,51.5L14.9,51.7L16.5,51.7L17.1,51.6L19.4,51.4L20.0,51.5L20.3,51.7L20.4,52.4L20.4,54.9L20.3,56.7L20.4,57.7L20.7,57.9L21.1,57.9L23.2,56.5L25.4,55.2L26.0,55.2L26.4,55.5L26.4,55.7L28.3,59.9L28.7,60.1L29.0,60.1L29.5,59.7L31.9,55.9L32.6,55.3L32.9,55.3L33.3,55.6L35.4,57.3L36.8,58.4L37.5,58.4L37.8,58.1L37.8,56.4L37.9,55.3L37.8,53.2L37.9,52.4L38.1,52.0L38.4,51.7L39.2,51.7L43.5,52.4L44.2,52.2L44.3,51.7L44.0,51.3L44.0,51.1L43.5,50.0L43.1,49.6L43.1,49.2L42.7,48.8L42.3,47.7L41.7,46.8L41.7,46.3L42.0,45.9L42.9,45.4L45.0,44.4L47.1,43.2L47.1,43.0L46.6,42.6L45.1,42.0L44.8,41.8L42.1,40.5L41.8,40.2L41.8,39.6L44.4,35.4L44.4,35.1L44.3,35.0L43.8,34.8L38.6,34.8L38.2,34.5L38.3,31.1L38.6,29.5L38.5,28.9L37.8,28.9L33.7,31.4L33.0,31.6L32.6,31.4L32.1,30.7L32.0,30.1L31.6,29.3L31.0,27.8L30.7,27.3L30.6,26.9L30.4,26.5Z M27.1,32.1L29.1,32.0L31.5,32.1L33.0,32.5L35.4,33.6L36.6,34.5L38.3,36.2L38.5,36.6L39.0,37.2L40.0,39.0L40.7,40.9L40.9,42.3L40.9,44.7L40.3,46.4L40.2,47.3L39.8,48.4L39.5,48.6L39.2,49.3L38.2,50.8L36.2,52.5L34.2,53.7L31.7,54.5L30.5,54.7L28.1,54.7L26.8,54.5L25.1,53.8L22.4,52.3L20.7,50.7L19.9,49.3L19.6,49.0L18.9,47.6L18.2,45.5L18.1,42.3L18.4,41.2L18.4,40.7L18.8,39.0L19.9,37.1L20.4,36.6L21.2,35.4L22.6,34.2L24.7,33.0Z" fill="#000" fill-rule="evenodd"/>
</svg>