<svg xmlns="http://www.w3.org/2000/svg" viewBox="0 0 128 128" width="128" height="128">
  <path d="M72.3,36.6L70.4,36.4L69.2,36.1L64.7,35.8L61.8,35.9L56.9,36.5L55.4,37.0L54.3,37.1L53.8,37.4L53.1,37.5L50.2,38.4L49.5,38.9L48.8,39.1L47.3,39.8L47.0,39.8L45.9,40.4L44.1,41.4L39.8,44.4L38.6,45.6L37.3,46.7L34.6,49.4L32.0,52.8L30.4,55.1L29.7,56.9L28.4,59.1L28.2,59.9L27.3,61.7L26.5,64.1L26.0,66.6L25.8,66.8L25.7,67.8L25.3,69.6L25.2,71.3L24.9,72.3L24.9,77.0L25.1,79.2L25.7,82.9L26.1,83.9L26.2,84.9L26.5,85.8L26.6,86.4L27.0,87.4L27.5,88.9L28.2,90.2L28.5,91.4L29.9,94.2L30.8,95.3L31.1,96.1L33.9,99.7L38.7,104.6L42.2,107.2L43.3,107.7L44.1,108.3L47.7,110.2L50.5,111.3L51.3,111.8L51.7,112.1L52.2,113.2L52.7,116.6L53.3,118.5L53.8,118.7L54.5,118.9L60.6,118.7L60.9,118.3L60.8,116.4L60.4,115.3L60.4,114.3L60.0,112.3L59.8,110.7L59.4,109.3L59.4,108.9L58.8,107.6L57.4,106.1L56.9,105.9L56.1,105.3L54.0,104.3L53.8,104.3L53.3,104.0L52.7,103.9L52.0,103.5L51.8,103.5L50.5,102.8L50.2,102.6L49.2,102.2L45.6,100.0L43.3,98.1L39.6,94.2L38.1,92.2L37.9,91.6L36.9,90.2L35.3,86.8L35.2,86.2L34.9,85.9L34.3,84.1L34.3,83.8L34.0,83.4L34.0,82.9L33.8,82.2L33.7,80.3L34.0,79.9L37.3,79.7L43.9,79.8L44.7,79.6L51.8,79.7L52.4,79.5L55.1,79.6L56.7,79.4L64.3,79.4L66.5,79.2L68.3,79.2L69.9,79.4L72.7,79.2L78.9,79.3L82.4,79.1L84.1,79.2L86.9,79.0L93.6,79.0L94.7,79.4L94.9,79.7L94.9,81.6L94.7,82.2L94.5,83.4L93.0,87.5L91.6,90.3L90.5,92.0L88.1,95.2L84.7,98.6L81.4,101.0L79.8,102.0L77.7,103.0L77.3,103.1L75.7,103.9L75.1,104.0L72.7,105.1L71.8,105.8L70.6,107.1L70.3,107.7L69.7,109.7L69.3,111.7L69.3,112.4L68.8,114.7L68.6,117.3L68.5,117.8L68.5,118.2L68.7,118.5L70.2,118.7L75.7,118.6L76.3,118.0L76.4,117.7L76.4,117.0L76.8,115.8L77.0,113.5L77.5,112.2L77.8,111.8L78.9,111.0L80.7,110.3L82.7,109.2L83.0,109.0L83.6,108.8L87.1,106.6L90.8,103.5L93.2,101.2L96.6,97.0L96.8,96.6L98.0,94.8L99.4,92.3L101.8,86.5L102.7,82.7L103.3,78.9L103.5,75.4L103.3,70.5L102.9,67.6L101.9,63.7L100.5,59.8L99.0,56.5L97.6,54.3L97.1,53.6L96.8,52.9L95.9,51.9L94.4,49.8L92.7,48.0L88.2,43.9L85.8,42.3L84.3,41.4L83.7,41.0L79.7,39.0L76.0,37.6L75.0,37.4L73.8,37.0L72.9,36.9Z M112.9,9.5L112.5,9.3L100.2,9.4L93.5,9.3L87.9,9.5L85.1,9.4L81.0,9.6L75.1,9.5L57.8,9.9L48.4,9.9L45.7,10.0L40.1,10.1L36.2,10.0L27.0,10.3L18.3,10.3L15.0,10.4L14.5,10.7L14.2,11.0L14.1,15.4L14.4,18.4L14.3,32.1L14.5,32.8L14.4,36.1L14.5,37.7L14.5,45.2L15.1,53.1L15.1,60.9L14.8,62.8L14.8,64.6L14.5,65.8L14.5,67.7L14.7,68.5L14.6,79.2L14.9,79.9L18.2,80.0L21.7,79.9L22.9,79.7L23.1,79.5L23.3,78.8L22.8,26.6L22.8,26.0L23.4,25.5L25.6,25.2L33.7,25.2L36.4,25.0L43.4,25.1L44.1,24.9L48.7,24.9L49.2,25.1L49.9,25.1L51.6,24.8L67.7,24.8L69.1,24.6L76.1,24.6L76.8,24.5L88.9,24.5L89.6,24.4L103.9,24.4L104.5,24.9L104.8,27.2L104.8,31.8L105.0,35.6L105.2,53.1L105.3,55.0L105.2,60.2L105.4,65.6L105.4,74.4L105.6,78.3L105.8,78.7L106.3,78.9L110.1,78.9L113.6,78.7L114.1,78.1L114.1,69.5L113.9,64.6L113.9,54.3L113.7,48.2L113.8,45.8L113.6,42.2L113.5,26.5L113.3,22.4L113.3,14.2L113.1,10.0Z" fill="#000" fill-rule="evenodd"/>
</svg>