<svg xmlns="http://www.w3.org/2000/svg" viewBox="0 0 128 128" width="128" height="128">
  <path d="M28.2,118.9L28.2,119.3L28.9,119.0L29.6,119.0L30.5,119.6L30.6,119.4L30.6,119.0L30.5,118.8L29.9,118.6L28.9,118.6Z M31.8,118.9L31.9,119.8L31.7,120.2L33.6,120.2L32.6,120.2L32.3,119.8L32.3,119.5L32.7,119.1L34.1,119.0L34.2,119.0L34.2,118.6L33.8,118.5L32.5,118.5L32.1,118.6Z M38.1,118.7L37.8,118.5L37.4,118.4L35.8,118.6L35.6,118.8L35.7,119.4L35.5,119.7L35.5,120.2L37.5,120.2L36.4,120.1L36.0,119.7L36.0,119.4L36.6,119.0L37.7,119.0L38.1,118.9Z M48.1,85.5L47.3,85.6L45.2,86.7L44.5,87.3L43.8,87.5L42.6,88.3L38.9,90.2L36.3,91.8L34.9,92.4L34.1,92.9L33.8,93.3L33.8,93.7L34.2,94.6L34.8,95.3L35.0,95.9L36.2,97.8L36.7,98.2L37.2,98.2L38.5,97.7L42.6,95.5L43.1,95.3L43.4,95.7L41.2,97.6L39.4,98.9L38.2,100.1L38.3,100.8L38.9,101.8L39.6,102.5L40.7,104.5L41.2,105.0L41.8,105.0L42.9,104.4L43.3,104.0L43.7,103.8L44.7,103.0L45.7,102.5L48.3,100.4L49.0,100.0L54.6,95.8L54.6,95.4L54.4,95.0L53.4,94.0L52.7,93.9L50.9,95.2L49.6,95.9L48.3,96.9L47.8,97.1L47.4,97.0L49.4,95.1L51.2,93.7L51.9,92.9L51.9,92.4L51.2,90.9L50.8,90.5L50.2,89.4L50.1,89.3L49.4,89.3L42.5,92.6L42.3,92.6L42.1,92.5L43.4,91.6L44.3,91.3L45.1,90.6L45.9,90.3L46.5,89.8L47.3,89.5L47.8,89.1L48.7,88.7L49.3,88.1L49.3,87.7L48.5,85.8Z M47.3,97.5L46.8,97.6L46.9,97.3L47.1,97.3Z M95.5,82.3L94.8,82.1L80.3,82.5L75.8,82.5L74.8,82.7L69.4,82.8L68.2,82.9L64.6,82.9L64.1,82.7L63.5,82.7L62.9,82.9L61.1,82.9L58.6,83.2L49.7,83.2L48.5,83.3L44.6,83.3L32.8,83.8L32.6,83.9L32.6,84.1L34.4,84.2L35.8,84.1L44.5,83.9L46.4,83.7L48.7,83.8L52.0,83.6L54.9,83.6L57.8,83.3L60.6,83.4L62.7,83.3L63.6,83.6L64.0,83.6L64.2,83.3L65.2,83.2L67.3,83.2L69.2,83.0L79.2,82.9L80.3,82.8L83.7,82.8L84.7,82.6L90.7,82.6L91.3,82.5L94.3,82.5L95.4,82.5Z M71.3,29.1L65.5,29.1L65.0,29.3L61.8,29.3L59.8,29.5L57.8,29.5L56.2,29.7L54.7,29.6L53.6,29.8L52.8,30.1L52.2,30.2L51.6,30.5L50.3,31.7L49.6,32.7L49.3,33.5L48.4,36.4L47.7,39.9L47.7,41.0L47.4,41.6L47.0,43.9L46.3,46.7L45.7,48.4L44.7,50.3L43.7,51.9L41.4,54.3L41.3,54.6L39.7,56.1L39.5,56.4L38.6,57.3L36.1,60.3L34.0,63.2L33.8,63.6L32.7,65.2L31.7,67.2L30.9,68.5L30.5,69.7L30.1,70.4L28.8,74.8L28.1,78.0L27.8,80.5L27.8,84.9L28.1,88.3L28.5,90.5L28.8,91.0L30.0,95.2L30.5,96.2L30.9,97.5L31.3,98.3L31.7,98.6L32.1,99.7L32.5,100.1L33.5,102.1L35.3,104.8L37.1,107.0L39.4,109.3L43.3,112.4L45.2,113.7L46.2,114.2L47.7,115.1L47.9,115.1L49.4,115.9L49.8,116.0L51.5,116.8L53.9,117.6L54.6,117.7L55.4,118.0L57.6,118.6L61.4,119.0L66.3,119.1L69.8,118.6L70.8,118.6L72.7,118.2L73.3,118.2L77.7,116.7L80.0,115.5L81.3,115.0L81.5,114.8L82.3,114.5L83.7,113.7L85.6,112.3L86.4,111.9L87.5,111.0L89.6,109.0L91.4,106.9L92.5,105.7L92.7,105.3L93.3,104.6L95.8,100.9L96.3,99.8L96.6,99.4L97.5,97.1L97.8,96.8L97.9,96.1L98.2,95.8L99.5,91.4L100.2,88.6L100.2,87.7L100.4,86.9L100.5,85.7L100.5,81.2L100.3,78.8L100.2,78.3L100.0,76.5L99.5,74.1L99.1,72.8L98.7,71.4L98.3,70.0L97.9,69.5L97.8,68.8L97.0,67.1L94.7,63.2L91.9,59.6L88.6,56.3L83.4,51.6L81.9,50.0L80.8,48.6L80.2,47.4L78.8,43.4L77.9,39.9L77.9,39.5L77.4,37.9L77.0,35.3L76.3,33.3L75.1,31.2L74.2,30.3L73.3,29.7Z M68.7,107.1L69.0,107.1L69.4,107.4L69.8,108.2L69.9,109.5L70.4,111.4L70.4,111.9L70.2,112.2L69.6,112.2L69.0,111.7L68.3,108.4L68.3,107.6Z M57.0,102.3L57.1,102.5L57.1,102.8L56.8,103.4L56.8,103.7L56.3,104.5L56.1,104.5L56.1,104.1L56.5,102.8Z M80.3,88.7L80.6,88.5L81.0,88.5L81.5,88.8L82.3,88.9L83.9,89.7L85.4,90.1L86.0,90.5L86.5,90.6L88.9,91.6L91.0,92.5L91.5,93.0L91.5,93.4L91.1,93.7L90.5,93.6L87.6,92.4L87.0,92.2L85.5,91.5L83.7,90.9L80.7,89.6L80.2,89.1Z M94.7,71.3L95.1,71.6L94.8,72.0L94.7,71.6Z M84.2,66.4L84.2,66.8L82.6,67.9L81.1,68.7L80.8,68.6L80.8,68.4L82.0,67.3L83.3,66.4L84.0,66.3Z M57.1,61.0L57.6,61.1L57.8,61.4L58.6,65.9L58.2,66.1L57.9,66.1L57.4,65.7L57.2,65.2L57.0,63.3L56.6,62.3L56.6,61.5Z M70.1,32.8L71.4,33.2L71.9,33.6L72.8,34.6L73.2,35.4L74.2,38.3L74.4,39.8L76.2,46.3L76.6,47.5L77.8,49.9L79.1,51.6L80.8,53.6L85.6,57.9L88.6,60.8L91.5,64.4L92.9,66.5L93.9,68.6L93.9,69.1L93.0,68.8L91.9,69.2L91.3,69.6L91.3,70.5L91.7,71.4L91.9,72.5L92.1,72.8L92.1,73.0L91.8,73.3L89.7,74.0L88.7,74.1L85.9,74.9L84.4,75.2L82.3,75.8L78.8,76.6L78.3,77.0L78.3,77.6L78.4,77.9L78.4,78.3L78.8,79.7L79.1,79.9L80.6,79.7L82.3,79.2L83.8,79.0L84.7,78.7L91.1,77.3L93.9,76.5L95.1,76.4L95.9,75.8L96.3,75.9L96.5,76.5L97.0,80.2L97.0,83.6L96.8,86.9L96.1,90.8L95.7,92.2L95.1,93.5L95.1,93.7L94.7,93.8L94.7,91.4L94.1,90.2L93.1,89.2L91.7,88.6L91.1,88.2L87.4,86.9L86.8,86.6L86.3,86.5L85.9,86.2L83.8,85.6L83.2,85.3L81.5,84.8L80.4,84.8L79.7,85.1L79.0,85.6L78.3,86.4L77.8,87.5L77.3,88.9L77.3,90.8L77.9,92.1L79.1,92.9L82.7,94.6L84.1,95.1L85.7,95.9L87.1,96.4L87.9,96.8L88.6,96.9L89.1,97.3L89.8,97.5L91.0,97.6L91.8,97.3L92.4,97.0L93.4,96.1L93.8,95.8L94.1,95.9L93.9,96.8L92.9,98.6L90.8,102.1L89.1,104.3L87.6,105.9L86.7,106.7L86.4,106.6L87.1,104.9L87.1,103.4L86.6,102.4L85.9,101.4L84.0,99.6L83.2,99.2L82.3,99.0L77.2,99.0L76.5,98.5L74.7,96.6L74.5,96.2L74.6,95.7L75.3,95.6L77.0,97.3L77.6,98.2L78.2,98.7L78.5,98.7L79.1,98.4L80.9,96.7L81.0,96.2L80.1,95.0L78.3,93.1L77.0,92.3L75.5,92.3L74.3,92.9L73.1,93.8L72.5,94.5L71.9,95.3L71.6,96.2L71.4,97.5L71.1,97.5L70.9,97.0L70.4,96.5L69.8,96.5L69.4,96.7L68.4,96.9L67.5,97.4L67.6,98.9L67.9,100.0L68.6,103.3L68.7,103.6L68.6,104.3L68.5,104.4L67.8,104.4L67.4,103.9L66.3,99.2L65.9,98.0L65.5,97.6L63.8,97.7L63.0,97.9L62.8,98.3L63.1,100.6L63.7,102.7L64.0,104.9L64.5,105.8L65.1,106.2L65.5,106.7L65.4,107.0L65.0,107.6L64.8,108.5L65.0,110.2L65.5,112.2L66.2,113.9L66.9,114.6L67.8,114.8L68.8,114.8L71.0,114.5L72.0,114.1L74.0,113.7L74.4,113.4L74.6,113.0L74.4,111.8L73.4,107.9L73.3,107.0L72.4,103.5L72.3,102.6L71.8,101.3L71.8,100.5L71.3,99.1L71.2,98.3L71.4,98.1L72.3,99.3L74.2,101.3L75.3,102.1L76.3,102.4L81.0,102.5L82.1,103.2L83.2,104.3L83.9,105.3L83.8,105.6L83.5,105.8L82.9,105.8L82.5,105.6L81.0,103.7L80.4,103.3L79.7,103.6L77.9,105.2L78.0,105.9L78.8,107.0L80.7,108.9L81.5,109.2L82.5,109.1L83.6,108.7L84.7,108.1L85.0,108.2L84.6,108.7L83.4,109.7L78.7,112.5L76.9,113.2L76.2,113.4L75.1,113.8L73.8,114.1L72.0,114.6L70.7,114.7L70.5,114.9L69.4,115.0L69.2,115.1L66.9,115.5L62.0,115.5L60.2,115.4L58.8,115.1L58.2,114.9L57.5,114.9L56.2,114.5L55.7,114.2L55.6,113.8L56.0,113.1L56.6,111.6L57.3,110.2L57.5,109.4L57.8,109.1L59.9,104.2L60.6,102.0L61.0,101.3L61.5,99.7L62.1,98.6L62.1,98.2L61.6,97.7L60.6,97.3L59.7,97.3L59.3,97.8L58.5,99.7L58.1,100.0L57.6,100.0L57.4,99.8L57.4,99.3L58.2,97.4L58.1,96.9L57.8,96.5L56.1,95.8L55.4,95.7L54.9,96.0L54.8,96.5L54.6,97.0L53.8,100.1L53.1,101.8L53.0,102.5L52.5,104.1L52.2,105.4L51.8,106.1L51.6,107.4L50.3,111.5L50.0,111.8L49.5,111.8L45.8,109.8L42.6,107.1L41.0,105.5L40.9,105.1L40.5,104.9L39.3,103.7L37.9,102.1L37.5,101.3L36.7,100.5L36.1,99.7L34.7,97.2L33.3,93.7L32.8,92.9L31.7,88.5L31.2,84.1L31.2,80.9L31.7,77.3L32.2,75.2L32.4,74.1L33.7,70.4L35.3,67.2L36.8,64.7L38.8,61.9L39.7,60.9L40.1,61.0L40.5,61.7L41.4,62.5L41.9,62.5L42.2,62.4L42.8,61.8L43.9,61.0L44.6,61.2L46.7,63.6L47.1,64.4L47.1,64.7L46.8,65.2L45.5,66.4L45.3,66.8L45.5,67.3L46.1,68.0L46.4,68.1L46.9,68.1L48.5,66.9L49.2,66.9L51.4,69.3L51.8,69.9L51.8,70.3L50.6,71.9L50.7,72.7L50.6,72.8L50.2,72.8L49.7,72.7L48.5,71.9L47.0,71.3L46.6,71.0L46.2,70.9L45.6,70.5L43.3,69.6L37.4,66.7L36.9,66.6L36.5,66.8L35.7,68.4L35.7,69.1L36.4,69.6L36.9,69.7L38.4,70.5L39.5,70.9L40.1,71.3L41.0,71.6L41.7,72.2L39.6,71.8L39.1,71.6L37.8,71.3L37.4,71.1L36.4,70.9L35.7,70.6L35.0,70.6L34.7,70.8L34.4,71.5L34.3,72.0L32.8,75.6L32.7,76.4L33.4,76.9L34.9,77.3L36.3,78.0L38.2,78.6L38.9,79.0L39.6,79.1L40.1,79.4L40.9,79.6L42.5,80.3L44.5,80.9L45.0,81.2L45.7,81.3L45.9,81.5L47.6,82.1L48.2,82.1L48.5,81.7L48.5,81.3L48.9,80.0L48.9,79.2L45.6,77.8L45.0,77.7L43.9,77.2L43.3,77.1L42.9,76.8L42.9,76.6L43.5,76.7L44.5,77.1L45.9,77.3L46.4,77.6L47.5,77.7L48.3,78.0L49.3,78.0L50.0,77.1L50.6,75.7L51.4,74.3L51.4,73.9L54.1,71.3L55.5,70.1L55.8,69.6L55.8,69.3L56.1,68.9L58.4,68.7L60.7,68.0L61.5,67.9L62.5,67.2L63.5,67.5L64.5,67.6L66.2,68.0L67.0,68.0L67.4,67.8L67.9,66.9L68.5,65.6L68.7,64.6L69.1,63.8L69.2,63.3L70.0,61.6L70.3,61.6L70.3,62.3L69.0,67.4L69.1,68.4L69.7,68.8L71.2,69.3L72.6,70.0L73.5,70.3L74.1,71.4L75.3,72.7L76.2,74.0L76.6,74.4L77.4,74.3L80.7,72.5L81.1,72.1L81.9,71.8L86.8,69.0L87.5,68.8L87.7,68.5L89.0,67.9L91.3,66.4L91.4,65.9L91.2,65.6L90.0,64.0L89.6,63.7L88.9,63.8L88.3,64.3L86.9,64.9L86.5,64.9L86.0,64.5L86.0,64.1L88.2,62.2L88.2,61.6L86.3,59.4L85.6,59.3L77.2,67.2L75.0,69.3L74.7,69.5L74.3,69.4L74.5,68.4L75.4,66.5L75.7,65.5L76.4,63.9L76.6,63.2L78.1,59.8L78.4,58.8L78.7,58.4L79.3,56.6L79.7,55.9L80.0,54.9L80.0,54.3L79.1,53.8L78.1,53.6L77.4,53.6L76.8,54.4L75.0,59.1L74.4,59.6L74.4,58.8L75.0,56.4L75.6,53.0L75.0,52.5L73.6,52.2L71.8,51.6L71.4,51.5L71.0,51.6L69.8,54.9L69.4,55.6L69.0,56.8L68.8,57.1L68.5,57.1L69.4,52.9L69.7,52.4L69.8,51.2L68.9,50.7L67.1,50.3L66.7,50.4L66.3,51.0L66.2,52.0L65.9,52.6L65.9,53.0L65.2,55.6L65.1,56.3L63.8,61.1L63.0,65.2L62.8,65.6L62.4,65.9L62.2,65.6L62.0,65.2L61.9,64.0L61.5,62.2L61.4,61.0L61.1,59.3L61.0,57.0L60.6,55.1L60.5,53.7L60.2,52.5L60.0,51.2L59.8,50.5L59.6,50.2L58.8,50.1L57.1,50.4L56.4,50.9L56.6,53.4L56.9,54.1L57.2,56.0L57.3,58.0L56.4,58.4L55.5,58.6L54.1,59.2L53.5,59.6L53.3,60.1L53.1,60.8L53.1,61.8L53.4,63.1L53.4,63.6L54.2,66.4L54.1,66.7L53.7,66.7L52.3,64.9L50.6,62.9L50.2,62.4L48.1,59.9L46.7,58.0L45.3,56.7L44.6,56.8L43.4,58.0L41.8,59.0L41.8,58.8L45.1,55.4L46.3,53.9L47.3,52.4L48.4,50.4L48.6,49.5L49.3,47.9L49.5,46.7L50.2,44.9L50.4,43.2L50.7,42.3L51.3,39.1L51.7,37.8L52.0,36.0L52.6,34.7L53.3,34.0L53.7,33.8L55.4,33.3L57.4,33.3L60.7,33.0L64.5,32.8Z M73.8,25.9L73.7,25.4L73.1,25.0L67.0,25.2L62.2,25.2L60.3,25.4L57.2,25.3L56.2,25.5L52.0,25.5L51.1,25.8L51.0,28.7L51.1,29.0L51.6,29.3L58.2,29.2L58.9,29.1L63.4,29.1L64.2,28.9L67.6,28.9L70.2,28.7L72.7,28.8L73.5,28.7L73.8,28.3Z M73.5,21.4L73.1,20.9L67.8,21.0L66.5,21.2L63.2,21.2L60.0,21.4L57.8,21.3L57.1,21.4L55.2,21.4L54.0,21.6L51.4,21.7L51.0,22.0L50.9,22.3L50.9,24.4L51.0,25.0L52.3,25.1L56.2,25.0L58.1,25.1L58.6,24.9L60.5,24.8L62.6,24.9L66.0,24.7L72.3,24.5L73.2,24.3L73.7,24.0Z M50.7,14.4L50.8,17.0L51.1,17.3L55.0,17.5L54.9,17.7L51.8,17.8L51.0,18.1L50.8,18.4L50.9,20.7L51.2,21.1L58.2,21.0L60.2,20.8L64.1,20.8L66.8,20.6L68.6,20.6L69.5,20.5L72.7,20.4L73.4,20.2L73.5,20.1L73.5,17.7L73.4,17.4L73.0,17.0L73.0,16.8L73.4,16.2L73.3,13.4L72.9,13.0L72.6,13.0L69.7,13.0L69.0,13.2L63.8,13.2L63.5,12.9L67.9,12.6L68.2,12.5L68.0,11.7L66.3,10.2L64.5,9.4L62.7,9.0L60.5,9.1L58.8,9.6L57.6,10.2L55.6,12.2L55.4,12.8L55.8,13.0L60.4,12.9L62.7,13.1L58.7,13.5L55.5,13.6L52.1,13.9L51.5,13.8L51.0,14.0Z M56.4,17.4L56.5,17.3L58.2,17.5Z M67.3,17.0L67.4,16.9L68.0,17.1L67.7,17.2Z" fill="#000" fill-rule="evenodd"/>
</svg>