<svg xmlns="http://www.w3.org/2000/svg" viewBox="0 0 128 128" width="128" height="128">
  <path d="M51.4,37.7L50.6,38.7L50.2,40.3L50.1,42.2L50.4,42.7L50.5,43.4L51.8,47.3L52.2,48.1L53.7,52.2L54.5,53.7L54.8,55.0L55.2,55.5L55.7,57.2L55.9,57.4L56.1,58.3L56.5,59.0L57.0,60.8L57.7,62.1L58.6,65.1L59.6,67.3L59.6,68.1L58.0,69.7L57.7,70.1L56.6,72.9L56.1,75.3L55.6,76.7L55.4,76.9L55.0,77.0L53.7,76.5L52.2,76.4L51.5,76.6L49.7,77.6L48.3,78.9L47.8,79.6L47.1,81.0L46.9,81.7L46.2,83.0L45.5,83.6L44.6,84.0L44.1,84.4L44.1,85.6L44.6,86.4L45.5,87.4L45.8,89.9L46.7,91.6L47.3,92.3L48.2,92.8L50.0,93.3L50.9,93.3L52.3,92.7L53.8,91.8L54.3,91.3L54.6,90.7L55.5,89.9L56.0,89.0L56.8,88.2L58.3,84.7L58.6,83.6L58.6,83.2L59.1,81.9L59.5,79.5L59.8,76.8L60.0,75.4L60.2,75.2L60.2,74.7L60.9,73.9L60.9,73.7L61.9,72.6L62.5,72.2L63.6,72.0L65.4,72.1L66.6,72.6L67.9,73.7L68.3,74.4L69.0,76.6L69.5,80.2L69.6,81.5L69.4,82.5L68.6,83.6L68.6,84.7L69.3,86.0L69.9,86.5L71.3,86.5L71.8,86.8L72.9,88.1L73.4,89.1L74.6,90.5L76.3,91.8L78.1,92.4L79.1,92.5L79.9,92.3L81.3,91.6L82.3,90.7L82.8,90.0L83.3,88.6L83.3,86.5L82.6,83.3L82.2,82.7L81.9,81.6L81.4,80.7L80.2,79.3L79.8,78.5L78.2,77.0L77.2,76.5L75.5,76.4L74.3,76.7L73.3,77.3L73.0,77.3L72.6,76.6L72.5,74.7L72.1,73.0L72.1,72.4L71.2,70.0L70.5,69.3L69.9,68.8L69.1,68.5L67.7,68.4L67.1,68.0L65.7,65.4L65.1,63.9L64.4,62.9L64.4,62.5L63.6,61.3L63.2,60.1L62.6,59.3L62.7,58.9L63.7,59.2L64.2,58.8L64.7,57.5L64.8,56.9L64.6,55.9L64.4,52.5L63.9,48.5L63.9,47.0L63.6,43.6L63.3,43.4L63.2,43.4L62.7,54.5L62.3,56.6L62.2,57.1L61.9,57.2L60.8,55.8L60.7,55.4L59.9,54.0L59.8,53.6L59.5,53.2L58.9,52.0L58.6,51.0L58.1,50.3L57.7,49.0L57.0,47.8L56.4,46.2L55.6,44.9L52.3,38.1L51.8,37.7Z M53.7,80.2L54.4,80.7L54.8,81.6L54.7,83.1L54.3,85.3L53.2,87.3L52.2,88.3L51.1,88.6L50.4,88.6L49.5,87.8L49.1,87.1L49.1,86.1L49.4,84.4L50.5,82.0L51.6,80.6L52.4,80.2Z M74.6,80.2L75.6,80.1L76.6,80.4L77.5,81.3L78.3,82.2L79.0,83.7L79.2,84.0L79.9,85.9L79.7,87.4L79.2,88.1L78.5,88.2L77.7,88.2L76.7,87.8L75.9,86.9L74.9,85.2L74.1,83.2L74.0,82.4L74.0,81.4L74.2,80.7Z M63.0,66.9L63.2,66.7L63.8,66.4L64.4,66.4L64.8,66.7L65.2,67.1L65.2,67.7L65.0,68.1L64.8,68.4L64.4,68.4L63.6,68.4L63.1,67.5Z M75.8,35.4L75.4,35.4L75.1,35.7L74.0,38.1L73.6,39.4L72.8,41.1L72.7,41.5L72.3,42.0L71.9,43.2L71.3,44.1L71.0,45.3L70.4,46.2L69.1,49.9L68.6,50.7L68.1,52.1L65.6,57.3L65.2,57.8L65.1,58.3L64.3,60.2L64.4,61.4L64.8,62.3L64.8,62.5L66.1,64.6L66.8,66.2L67.2,66.5L67.8,66.4L69.0,62.9L69.4,62.1L70.3,59.2L72.4,54.2L72.5,53.5L72.8,53.1L73.0,52.1L73.4,51.3L74.1,49.1L74.5,48.6L74.9,47.2L75.8,44.8L76.3,42.4L76.7,41.5L76.9,40.4L76.9,38.6L76.7,37.7L76.3,36.8L76.1,35.7Z M92.4,13.8L91.0,13.3L88.8,13.0L88.1,12.8L84.7,12.8L83.4,13.2L82.5,13.3L80.4,14.1L79.5,14.6L78.3,16.2L77.9,17.8L77.9,20.0L77.7,20.7L77.4,20.9L76.5,20.9L75.7,21.0L73.4,21.0L72.0,20.8L70.7,20.3L69.1,19.2L68.1,18.1L67.2,16.4L66.9,14.6L67.2,13.3L67.2,12.5L66.8,12.2L58.7,12.4L58.4,12.8L58.4,13.3L58.6,14.3L58.6,15.4L58.5,16.4L58.3,16.7L56.6,19.0L54.8,20.3L53.5,20.7L50.6,20.9L48.8,20.8L47.4,20.3L47.2,20.0L47.2,19.8L47.6,19.1L47.8,18.6L47.8,17.9L47.2,16.3L46.4,15.6L45.5,15.1L41.9,14.6L40.1,14.6L38.8,15.0L38.1,15.0L37.2,15.3L36.2,15.4L33.7,16.5L31.7,18.0L30.2,20.3L29.3,23.4L29.1,24.9L29.0,25.3L29.0,27.2L28.8,27.6L29.0,32.1L29.1,32.6L29.1,36.9L29.4,37.7L29.4,39.8L29.7,41.4L29.7,43.4L29.9,44.9L30.1,47.5L30.3,48.1L30.2,52.0L29.9,53.7L29.4,55.3L29.6,55.6L29.9,55.8L31.4,55.8L32.2,56.1L33.5,56.9L34.1,57.5L35.0,58.7L35.7,60.0L36.2,61.7L36.5,63.6L36.5,66.2L36.3,67.0L36.3,68.1L35.8,69.8L35.0,71.8L34.1,72.9L32.4,74.3L31.6,74.8L30.5,75.2L30.3,75.5L30.3,76.4L30.7,77.7L30.6,79.3L30.7,79.8L30.5,90.3L30.3,91.7L30.1,96.5L30.3,97.8L30.3,101.3L30.5,102.0L30.7,104.4L31.6,107.2L32.4,108.8L32.8,109.5L33.5,110.1L33.9,110.8L35.4,112.3L38.0,114.1L40.7,115.2L43.0,115.6L46.1,115.6L47.7,115.1L48.9,114.5L49.8,113.5L50.3,112.6L50.1,110.6L49.9,110.1L49.4,109.2L49.5,108.9L49.8,108.6L50.2,108.4L51.4,108.4L52.7,108.0L55.3,108.0L56.3,108.2L57.6,108.6L59.2,109.6L60.4,110.9L61.2,112.6L61.3,113.5L61.1,114.1L61.1,114.7L60.7,115.8L60.8,116.3L61.2,116.4L69.5,116.2L69.9,115.9L69.9,113.2L70.3,111.7L70.8,110.7L71.9,109.5L74.0,108.6L75.5,108.2L76.8,108.1L78.4,108.3L80.4,108.7L81.3,109.1L81.6,109.7L81.2,110.1L80.8,111.1L80.8,112.1L81.3,113.2L82.0,113.8L82.9,114.3L84.2,114.7L86.4,115.0L88.9,115.0L89.7,114.7L90.7,114.7L93.9,113.7L94.6,113.0L95.6,112.5L98.0,109.7L98.3,108.8L98.4,108.3L99.1,106.9L99.2,105.8L99.4,105.2L99.5,103.2L99.8,101.8L99.8,95.8L99.7,95.2L99.5,94.9L99.4,92.4L99.2,91.8L99.2,90.7L98.9,89.0L98.9,88.0L98.6,87.0L98.5,84.0L98.3,83.1L98.3,81.5L98.0,79.4L97.9,76.2L98.1,74.8L98.1,73.9L97.9,73.5L96.0,73.3L94.9,72.8L93.9,72.0L92.8,70.5L92.6,70.0L92.1,69.2L91.3,65.4L91.3,62.3L91.4,61.7L91.4,60.7L92.3,58.0L92.7,57.3L93.2,56.7L93.7,55.8L94.9,54.7L95.6,54.5L96.0,54.2L97.3,54.0L97.7,53.7L98.0,53.4L97.7,52.0L97.7,49.0L97.5,47.7L97.5,42.2L97.7,38.3L97.9,31.2L98.1,30.5L98.0,25.1L97.5,21.5L97.3,21.0L97.3,20.7L96.5,18.4L95.4,16.3L94.3,15.1Z M86.0,27.7L86.5,28.4L87.1,30.1L87.3,30.5L87.4,31.4L88.0,33.0L88.4,34.5L88.8,35.9L88.9,36.7L89.7,38.4L90.4,40.6L90.4,41.1L90.0,41.6L89.3,42.0L88.2,42.9L87.3,43.4L83.3,47.2L81.3,49.9L80.8,51.2L80.4,51.7L79.4,53.8L79.3,54.5L78.7,56.4L78.3,57.8L78.3,59.3L78.1,59.9L78.2,61.7L78.4,63.2L78.4,64.6L78.7,65.4L78.8,66.7L79.2,67.6L79.4,68.5L80.0,70.2L80.5,71.4L80.7,72.2L81.7,74.7L83.5,78.1L84.2,79.6L84.6,80.4L85.0,80.8L85.5,82.1L86.4,83.4L87.1,84.7L90.7,89.7L90.9,90.3L90.9,90.6L89.7,91.6L86.7,93.1L83.8,94.4L83.1,94.5L81.8,95.3L80.9,95.4L79.5,96.2L77.3,96.8L76.4,97.2L74.7,97.6L73.8,97.7L72.9,98.0L71.3,98.2L70.2,98.2L69.7,98.0L69.4,97.6L69.2,97.0L69.1,94.7L69.0,94.3L68.9,92.9L68.7,92.4L68.7,91.1L68.6,90.7L68.5,89.5L68.2,88.7L68.2,87.9L67.8,85.7L67.7,82.8L67.4,81.7L67.4,79.5L67.0,77.7L67.0,76.6L66.9,76.0L66.7,73.9L66.0,72.9L65.2,72.6L64.2,72.5L63.3,72.6L62.3,73.0L61.5,73.7L61.3,74.4L61.3,75.5L61.1,76.3L61.1,77.3L61.3,78.2L61.1,79.0L61.1,83.9L61.0,84.5L61.0,86.9L60.8,88.3L60.9,91.8L60.7,92.4L60.6,95.1L60.4,95.7L60.4,97.5L60.2,98.2L59.9,98.4L58.0,98.5L54.7,97.9L53.8,97.9L52.1,97.5L50.0,96.7L48.2,96.4L45.0,95.3L43.7,94.6L41.3,93.7L38.5,92.3L38.1,91.8L38.1,91.2L38.9,89.9L40.1,88.3L40.2,88.0L40.5,87.7L40.6,87.3L41.7,85.6L42.0,84.8L43.0,83.4L43.5,82.1L44.2,81.0L44.5,80.0L45.1,79.0L45.5,77.7L45.9,76.9L46.3,76.0L46.9,75.0L47.0,74.5L48.3,71.4L48.8,69.0L49.4,67.4L49.6,65.4L49.8,64.8L49.9,63.7L49.8,60.1L49.5,58.2L48.4,55.1L48.1,54.6L47.9,53.9L47.4,53.3L47.1,52.4L45.5,49.9L43.7,47.8L40.7,45.1L40.1,44.7L37.9,43.6L37.5,43.2L37.8,41.7L38.4,40.3L39.1,38.2L39.2,37.6L39.8,36.0L39.9,35.1L40.4,33.8L41.0,30.8L41.3,30.1L41.7,29.8L42.5,29.8L43.4,30.0L45.1,30.6L46.6,30.7L47.9,31.2L53.1,31.8L56.2,31.7L56.5,31.8L56.8,32.2L56.9,34.2L57.3,35.2L57.8,36.0L58.8,36.9L60.7,37.9L61.6,38.1L63.4,38.4L65.2,38.4L67.1,37.9L68.3,37.3L69.2,36.8L70.3,35.6L71.4,33.5L71.4,32.2L71.2,31.0L71.4,30.9L72.5,30.5L76.0,30.3L77.3,29.9L79.6,29.6L81.3,29.0L82.1,28.9L85.1,27.7Z M94.4,11.6L91.5,10.5L89.2,10.1L84.8,10.0L83.1,10.2L81.9,10.5L80.4,10.7L80.0,10.9L79.3,11.2L78.2,12.0L77.4,12.3L77.0,12.6L75.8,14.0L75.1,15.1L74.6,17.9L74.4,18.2L73.6,18.3L72.6,18.1L72.2,17.8L71.6,17.5L70.3,16.2L69.9,15.0L69.9,13.5L70.2,12.2L70.2,11.7L70.4,10.8L71.0,9.9L71.0,9.5L70.7,9.2L66.3,9.2L65.3,9.4L59.7,9.7L57.9,9.6L57.1,9.7L56.5,9.9L55.3,9.9L54.3,9.8L53.9,9.9L53.5,10.2L53.5,10.3L54.7,11.7L54.9,12.4L55.2,12.8L55.3,13.3L55.6,13.9L55.6,14.9L55.3,15.9L54.7,16.9L53.9,17.6L52.4,18.1L50.5,18.1L50.4,16.7L49.6,15.0L48.5,13.8L47.6,13.2L47.5,13.2L46.7,12.6L46.1,12.4L43.0,12.0L38.3,12.1L37.0,12.4L36.0,12.4L33.8,13.2L33.1,13.6L32.7,13.7L31.6,14.5L30.9,14.8L29.1,16.6L28.5,17.4L27.5,19.2L27.5,19.6L26.6,22.1L26.5,23.8L26.1,24.6L26.1,31.4L26.3,32.8L26.3,35.8L26.6,37.5L26.7,39.8L27.0,40.2L27.1,43.5L27.0,46.5L27.3,48.2L27.4,50.5L27.0,55.4L26.5,56.8L26.1,57.3L26.1,57.5L25.7,58.1L25.7,58.6L26.1,58.9L26.5,59.0L28.2,58.6L29.7,58.6L30.3,58.7L31.1,59.2L32.0,60.1L33.2,62.0L33.7,63.7L33.7,65.9L33.2,68.5L33.0,68.7L32.7,69.8L32.3,70.6L31.7,71.4L30.6,72.4L30.0,72.6L29.7,72.8L27.0,72.8L26.5,73.1L26.5,73.9L27.1,74.9L27.7,77.1L27.7,79.4L27.8,81.5L27.8,87.5L27.6,88.6L27.6,90.3L27.4,91.0L27.4,99.1L27.7,101.7L27.9,102.5L27.9,103.5L28.3,105.1L28.6,107.0L29.0,107.6L29.1,108.0L29.4,108.5L30.0,110.1L30.8,111.4L32.0,112.9L34.1,114.9L35.6,115.7L36.7,116.6L39.6,117.7L42.0,118.1L42.6,118.3L43.2,118.2L43.9,118.5L46.9,118.5L48.1,118.2L50.5,117.2L52.3,115.6L52.9,114.3L53.1,113.3L53.1,111.1L53.5,110.8L55.0,110.7L56.6,111.3L57.3,111.8L57.9,112.5L58.2,113.3L58.3,114.3L57.9,116.0L57.6,116.8L56.5,118.2L56.5,118.6L56.8,118.9L57.4,119.1L64.4,119.2L65.3,119.0L67.7,119.0L69.1,118.8L71.2,118.6L73.3,118.6L73.7,118.3L73.7,117.9L72.9,116.8L72.5,115.3L72.5,114.3L72.8,113.5L73.4,112.4L74.1,111.8L74.5,111.6L75.4,111.5L75.8,111.3L77.3,111.4L77.7,111.8L77.9,113.4L78.6,115.0L79.8,116.0L80.9,116.4L81.7,116.9L83.0,117.2L84.8,117.5L86.8,117.6L89.2,117.2L90.9,117.2L91.1,117.1L92.6,116.8L93.0,116.6L94.0,116.4L95.2,116.0L96.9,114.9L97.6,114.3L98.6,113.5L99.1,112.6L99.9,111.6L100.4,110.5L100.9,110.0L101.3,108.6L102.0,107.0L102.5,103.4L102.4,101.3L102.6,100.8L102.6,98.1L102.4,97.2L102.4,95.4L102.1,94.2L102.0,92.6L101.8,91.7L101.6,87.5L101.2,85.7L101.1,84.0L100.9,83.3L100.7,80.4L100.6,79.9L100.6,76.5L100.9,75.6L101.0,74.2L101.3,72.9L101.6,72.2L102.1,71.7L102.2,71.0L101.8,70.6L99.4,70.9L97.7,70.6L97.2,70.2L96.8,70.1L96.4,69.7L95.0,67.5L94.1,64.1L94.1,63.3L94.6,60.5L95.0,59.2L95.6,58.0L97.3,56.5L98.4,56.2L100.9,56.3L101.2,56.2L101.5,55.8L101.5,55.3L100.8,53.3L100.6,52.0L100.2,45.2L100.2,42.9L100.1,41.8L100.6,32.2L100.4,27.2L100.5,25.1L100.3,22.2L100.1,21.7L99.8,19.4L99.0,17.8L98.1,15.1L97.7,14.7L97.3,13.9L96.8,13.3Z M32.8,14.8L35.0,13.8L36.5,13.7L37.5,13.3L39.1,13.1L43.1,13.1L44.9,13.3L45.4,13.5L46.5,13.7L48.0,14.5L48.7,15.3L49.3,16.2L49.7,17.3L49.7,18.7L50.5,19.2L51.8,19.2L53.1,18.9L54.3,18.4L55.4,17.6L56.0,16.8L56.4,15.4L56.4,13.9L55.9,12.1L55.5,11.5L55.5,11.2L55.7,11.0L56.8,10.8L62.3,10.7L63.2,10.5L69.1,10.5L69.5,10.7L69.5,11.0L69.4,11.3L69.1,12.8L69.1,15.0L69.4,15.8L70.3,17.5L71.2,18.3L73.4,19.2L74.6,19.2L75.4,18.9L75.5,18.5L75.4,17.3L75.7,15.8L76.5,14.3L77.2,13.6L77.5,13.5L78.0,12.9L79.4,12.2L81.5,11.5L83.4,11.1L86.1,11.0L88.5,11.2L91.4,11.6L92.1,11.9L92.9,12.0L93.2,12.3L93.9,12.4L95.2,13.6L96.4,14.8L97.3,16.1L98.5,18.6L98.8,19.5L98.9,20.5L99.1,21.1L99.3,22.0L99.2,23.2L99.4,23.9L99.4,25.9L99.5,26.7L99.7,34.1L99.5,34.7L99.4,38.4L99.3,39.8L99.2,47.5L99.4,48.5L99.4,51.5L99.8,53.7L99.8,54.7L99.3,55.0L97.8,55.3L97.0,55.6L95.8,56.4L94.6,57.8L93.9,59.3L93.4,60.8L93.2,64.9L93.5,66.5L93.8,67.5L94.3,68.5L95.5,70.4L96.4,71.1L97.4,71.6L98.1,71.7L98.5,71.9L100.1,72.1L100.5,72.4L100.2,74.0L99.8,75.2L99.7,80.9L99.9,82.2L99.9,83.7L100.2,84.8L100.2,85.9L100.7,88.7L100.8,90.9L101.0,92.0L101.0,93.3L101.3,94.6L101.4,97.2L101.5,97.6L101.5,98.6L101.6,102.1L101.5,104.5L101.2,105.1L101.1,106.0L100.9,106.6L100.7,107.5L100.3,108.3L100.0,108.6L99.8,109.2L99.1,110.2L98.9,110.7L98.1,112.0L96.0,114.1L95.4,114.6L94.4,115.1L92.6,115.7L91.1,115.9L89.5,116.3L85.9,116.4L82.4,116.0L80.3,115.1L79.9,114.6L79.2,114.1L78.8,113.4L78.7,112.9L78.8,111.5L79.0,111.3L79.0,110.5L78.8,110.3L77.5,110.0L75.8,110.1L74.5,110.4L73.3,110.9L72.1,112.0L71.4,114.3L71.4,116.0L71.6,116.9L71.3,117.3L71.0,117.5L65.7,117.9L63.6,117.9L62.7,118.1L58.7,118.1L58.2,117.7L58.2,117.3L58.5,117.0L58.5,116.7L58.7,116.3L59.3,114.3L59.3,112.9L58.5,111.6L57.4,110.5L56.4,110.1L55.8,110.1L55.1,109.9L53.5,109.8L52.3,110.1L51.9,110.5L51.8,110.9L52.1,111.7L52.0,113.2L51.7,114.0L51.6,114.6L50.5,116.0L48.8,116.8L47.3,117.2L44.4,117.3L40.9,116.8L39.3,116.4L37.7,115.7L37.1,115.2L36.2,114.8L34.1,113.4L32.5,111.8L31.2,110.1L29.9,107.8L29.8,107.0L29.4,106.2L29.1,105.1L29.0,103.5L28.7,103.0L28.7,102.4L28.5,101.4L28.3,96.5L28.4,93.6L28.6,91.5L28.6,88.1L28.9,86.9L28.8,83.0L29.0,81.4L29.0,78.3L28.6,76.0L28.1,74.3L28.5,73.9L29.7,73.8L30.0,73.5L30.6,73.4L31.6,72.6L33.3,70.9L34.3,68.2L34.6,65.2L34.6,63.8L34.0,62.1L33.8,61.3L33.0,59.8L32.1,58.7L31.6,58.3L30.7,57.9L29.5,57.6L27.7,57.6L27.3,57.2L28.0,54.0L28.3,48.5L28.1,46.7L27.8,41.0L27.5,40.2L27.5,39.0L27.2,37.5L27.0,31.8L26.8,30.8L26.8,25.8L27.0,25.2L27.0,23.9L27.3,23.0L27.3,22.5L27.6,21.7L27.6,21.0L28.4,19.1L29.4,17.7L31.0,16.1L32.0,15.3Z" fill="#000" fill-rule="evenodd"/>
</svg>