<svg xmlns="http://www.w3.org/2000/svg" viewBox="0 0 128 128" width="128" height="128">
  <path d="M68.0,83.2L66.7,83.1L66.0,83.3L60.9,83.5L59.4,83.7L59.0,83.9L60.7,83.9L62.2,83.7L66.8,83.5Z M56.6,79.5L57.7,79.6L58.5,79.4Z M64.1,79.2L64.6,79.2L64.8,79.0Z M66.0,77.5L67.1,77.5L67.4,77.3L66.7,77.3Z M56.1,76.6L56.2,76.8L58.1,76.7L59.3,76.4L57.5,76.4L57.0,76.6Z M64.1,73.1L61.5,73.4L59.0,73.4L58.0,73.6L55.7,73.8L62.9,73.5Z M68.8,71.4L66.5,71.4L65.3,71.7L63.9,71.7L63.3,71.9L65.1,71.8L68.1,71.7L68.3,71.5Z M60.3,67.2L60.2,67.3L58.0,67.3L58.1,67.5L60.2,67.4Z M62.2,67.2L63.1,67.2L63.5,67.1Z M64.2,64.1L62.1,64.1L61.1,64.4L58.1,64.4L57.3,64.6L58.9,64.5L61.6,64.5L62.2,64.3Z M69.9,63.6L68.1,63.7L67.7,63.9L68.7,64.0Z M56.6,63.5L57.4,63.5L57.6,63.3L57.0,63.3Z M66.1,62.6L61.5,62.8L58.8,63.2L65.3,62.9Z M67.7,62.6L68.5,62.6L68.8,62.4L68.1,62.4Z M61.6,59.9L62.8,60.0L64.3,59.9Z M66.3,59.7L67.9,59.7L67.8,59.5L66.9,59.5Z M70.5,59.4L71.3,59.5L71.8,59.3Z M61.1,57.2L62.3,57.2L62.6,57.1L61.8,57.1Z M70.2,56.5L68.8,56.5L67.5,56.8L69.2,56.8Z M64.3,53.9L65.0,54.0L65.0,53.8Z M67.3,53.9L68.7,53.9L69.8,53.5L68.3,53.5L67.7,53.6Z M63.0,52.6L62.2,52.5L61.2,52.7Z M70.9,50.6L67.3,50.7L66.5,50.8L64.0,50.8L63.0,51.1L58.5,51.3L57.7,51.5L55.4,51.6L53.4,51.9L55.2,51.9L56.1,51.7L58.8,51.6L59.9,51.5L62.1,51.5L65.8,51.0L69.5,50.9Z M67.7,47.6L62.9,47.5L59.7,47.7L60.5,47.7L61.2,48.0L60.8,48.2L60.2,48.2L59.2,48.5L56.9,48.6L56.3,48.8L57.0,48.7L60.2,48.6L60.9,48.4L65.5,48.2L67.3,47.9Z M118.9,14.4L118.3,14.0L98.7,14.0L94.6,14.2L80.6,14.2L76.9,14.4L64.4,14.5L14.1,14.5L9.6,14.7L9.4,14.8L9.4,15.5L9.9,17.0L10.2,18.4L10.3,19.7L10.7,22.2L10.9,24.5L11.2,25.9L11.5,30.5L11.8,33.2L11.8,37.2L12.0,38.9L12.0,40.7L12.5,46.3L12.8,52.5L13.2,55.3L13.3,59.2L13.6,62.3L13.6,63.5L14.0,65.4L14.0,66.2L14.7,71.2L16.2,76.8L16.8,78.7L17.7,80.5L18.1,81.6L19.6,84.7L20.2,85.5L21.6,87.8L23.6,90.5L24.6,91.5L25.5,92.7L28.9,95.8L31.1,97.5L31.7,98.0L34.9,100.3L39.0,102.6L43.3,104.8L45.5,106.0L46.3,106.3L50.0,108.2L50.4,108.3L50.9,108.6L53.8,110.1L54.4,110.3L56.1,111.3L56.4,111.3L57.3,111.8L58.5,112.2L62.2,114.2L62.9,114.2L64.9,113.1L66.8,112.3L71.8,109.8L73.3,109.3L75.0,108.4L77.2,107.6L78.9,106.7L79.9,106.5L81.7,105.4L86.6,103.1L91.5,100.2L93.9,98.4L96.6,96.6L99.4,94.3L103.4,90.1L105.5,87.0L107.0,84.7L109.0,80.7L109.7,78.9L110.4,77.4L110.8,75.8L111.1,74.9L111.2,74.0L111.7,72.6L111.8,71.0L112.2,69.7L112.7,66.1L113.0,64.7L113.0,64.0L113.3,63.1L113.7,60.1L114.3,51.6L114.5,50.8L114.6,47.7L114.8,47.0L114.8,45.3L115.0,43.7L115.2,43.3L115.3,40.6L115.6,38.7L115.8,35.3L116.1,34.3L116.2,31.6L116.4,30.0L116.7,26.1L117.0,24.7L117.0,23.4L117.3,22.6L117.8,18.8L118.9,15.0Z M61.8,109.5L62.1,109.2L62.9,109.2L63.1,109.5L62.8,109.7L62.2,109.7Z M60.9,108.7L61.3,108.8L61.3,109.1L60.8,109.0Z M66.6,107.7L66.4,108.1L65.8,108.2L65.3,108.6L64.4,109.1L63.7,109.3L63.3,109.2L63.4,108.9L64.7,108.2L66.3,107.6Z M73.3,104.9L73.1,105.1L72.5,105.1L72.1,105.6L71.5,105.7L70.9,106.1L70.3,106.3L68.6,107.2L67.8,107.4L67.4,107.6L66.8,107.4L67.0,107.4L67.7,106.8L69.5,106.2L69.9,105.8L70.7,105.7L71.6,105.2L72.0,105.2L72.8,104.7Z M74.7,104.3L73.9,104.7L73.4,104.4L74.4,104.0Z M84.2,99.6L83.8,99.8L83.5,100.2L83.0,100.3L82.7,100.6L80.8,101.3L79.6,102.1L79.1,102.2L78.6,102.6L78.3,102.6L76.4,103.7L75.7,103.5L77.2,102.6L78.5,102.2L79.0,101.8L79.5,101.7L79.9,101.3L80.7,101.1L81.4,100.6L82.5,100.1L82.8,99.8L83.7,99.6L84.1,99.4Z M85.9,98.5L86.1,98.3L86.3,98.5L86.1,98.6Z M86.6,98.2L86.8,97.8L87.1,98.1Z M69.5,88.3L69.8,88.1L71.6,87.9L73.5,87.9L74.0,88.1L74.1,88.3L73.9,88.4L73.2,88.6L70.1,88.6Z M102.5,83.8L102.4,84.2L102.2,84.3L101.7,85.2L101.1,85.9L100.9,86.5L100.5,87.1L99.2,88.3L98.5,89.3L95.5,92.3L90.6,96.2L88.5,97.3L88.2,97.2L88.4,96.8L88.8,96.7L89.3,96.2L92.5,94.2L94.4,92.6L98.0,89.1L100.8,85.6L101.2,85.2L102.1,83.8Z M103.5,81.3L103.6,81.6L103.3,82.4L102.9,82.5L102.9,82.2Z M74.9,70.4L74.9,70.6L74.5,70.9L70.8,71.1L69.5,71.3L69.4,71.5L72.3,71.5L73.2,71.3L74.6,71.4L74.5,71.8L73.6,72.1L72.2,72.5L70.4,72.7L70.3,72.8L66.2,72.9L65.9,73.1L65.3,73.2L66.1,73.2L66.3,73.0L72.9,72.8L74.6,73.2L74.8,73.4L74.8,73.6L74.6,73.8L72.9,74.1L71.6,74.1L69.5,74.4L67.4,74.4L66.0,74.6L64.8,74.6L64.9,74.8L68.3,74.7L69.0,74.6L74.4,74.4L74.6,74.7L74.1,75.1L72.8,75.3L71.2,75.7L73.4,75.8L74.7,76.3L74.8,76.4L74.3,76.7L71.6,76.9L71.2,77.2L74.6,77.3L74.7,77.4L74.2,77.8L71.9,78.5L74.2,79.0L74.5,79.3L74.2,79.6L71.8,79.9L69.1,80.0L68.4,80.1L67.3,80.1L66.9,80.3L65.0,80.3L63.6,80.5L66.6,80.5L67.1,80.3L74.4,80.1L74.6,80.2L74.4,80.6L73.4,81.0L72.0,81.4L72.2,81.7L74.3,82.0L74.5,82.2L74.3,82.6L72.5,82.8L69.7,82.9L68.2,83.2L69.4,83.3L74.1,83.0L74.3,83.1L74.5,83.5L74.1,83.8L71.8,84.4L62.3,84.9L62.1,85.1L61.1,85.1L60.8,85.3L67.8,85.0L68.9,84.8L72.3,84.7L74.0,84.8L74.7,85.1L74.7,85.5L74.3,85.6L69.0,86.1L67.6,86.1L67.0,86.3L70.9,86.3L74.2,86.1L74.6,86.4L74.5,86.6L74.2,86.8L72.8,87.3L72.3,87.5L70.6,87.8L68.2,87.9L67.1,88.1L63.0,88.2L62.3,88.3L62.0,88.5L62.9,88.8L73.8,89.0L74.1,89.3L74.1,89.5L71.9,90.7L71.5,91.1L70.9,91.2L69.8,91.8L69.5,92.0L68.7,92.2L68.0,92.7L64.6,93.6L62.2,93.7L59.2,92.8L56.0,91.3L53.1,89.6L51.1,88.1L51.1,87.9L51.4,87.6L52.4,87.6L54.2,87.3L55.7,87.3L57.6,87.0L60.0,87.1L61.7,86.7L66.5,86.5L66.8,86.4L64.1,86.3L62.1,86.5L61.6,86.6L60.2,86.6L58.8,86.9L56.8,86.8L55.4,86.9L54.8,87.1L51.5,87.2L51.3,86.8L51.9,86.3L53.9,85.8L56.0,85.7L56.3,85.5L53.0,85.5L51.7,85.1L51.5,84.9L51.5,84.7L51.7,84.5L52.5,84.5L53.0,84.3L54.0,84.2L55.2,84.3L58.1,83.8L55.3,83.8L53.5,84.1L51.8,84.1L51.6,84.0L51.5,83.7L52.1,83.3L53.5,83.1L55.1,82.7L53.3,82.6L51.5,82.2L51.1,81.9L51.4,81.6L52.8,81.5L53.9,81.2L56.0,81.2L58.0,81.0L59.5,81.0L63.1,80.7L63.1,80.5L61.2,80.5L58.5,80.9L55.4,80.9L54.5,81.0L52.6,81.1L51.1,81.0L51.1,80.8L51.8,80.3L54.8,79.7L53.0,79.6L51.4,79.2L51.1,78.9L51.3,78.7L52.9,78.5L52.9,78.3L51.4,78.2L51.1,77.9L51.4,77.6L53.0,77.1L54.3,76.9L52.4,76.6L51.5,76.4L51.3,76.2L51.5,75.8L53.4,75.7L54.1,75.5L55.6,75.5L57.1,75.3L60.2,75.2L61.2,74.9L60.2,74.9L59.6,75.1L57.3,75.1L56.0,75.3L55.1,75.2L54.1,75.4L51.3,75.5L50.9,75.2L50.9,75.0L51.2,74.7L52.8,74.2L53.9,74.1L54.7,73.8L52.0,73.6L51.2,73.3L51.2,72.8L53.9,72.5L59.7,72.3L61.5,72.1L62.5,71.8L58.3,71.8L58.0,72.0L56.2,72.1L55.5,72.3L51.2,72.4L51.1,72.3L51.0,71.9L51.1,71.8L52.2,71.3L54.8,70.8L57.4,70.7L58.0,70.5L61.5,70.4L62.1,70.2L64.6,70.0L68.2,70.0L68.8,69.8L70.3,69.7L73.2,69.8L74.5,70.1Z M74.8,68.1L74.8,68.4L74.6,68.6L73.5,69.1L72.4,69.3L70.5,69.4L69.8,69.6L65.3,69.8L62.0,70.1L60.1,70.1L59.4,70.3L55.4,70.4L54.8,70.6L52.7,70.5L51.7,70.2L51.4,69.9L51.7,69.6L52.2,69.4L52.9,69.4L53.1,69.2L56.4,69.2L57.3,69.1L58.0,69.1L58.8,69.0L64.5,68.7L65.2,68.5L68.7,68.4L71.2,68.1L74.4,68.0Z M18.3,65.9L18.7,67.2L18.8,68.7L19.0,69.0L19.0,69.8L19.3,70.5L19.3,71.2L19.9,73.1L20.2,74.5L21.0,76.4L21.0,76.7L21.7,78.4L21.7,79.1L22.2,79.6L22.6,80.7L23.0,81.1L24.4,83.7L26.5,86.8L27.8,88.2L28.5,89.3L31.9,92.6L35.1,95.2L37.0,96.3L38.1,97.1L38.4,97.2L38.8,97.5L41.0,98.7L42.1,99.4L43.0,99.8L43.3,100.1L44.1,100.3L46.2,101.6L47.4,102.1L47.9,102.4L48.8,102.7L53.8,105.1L54.2,105.2L55.5,105.8L55.7,106.1L56.6,106.4L59.0,107.6L59.7,107.8L60.5,108.5L60.4,108.7L59.9,108.6L58.5,107.9L57.8,107.8L54.0,105.9L51.0,104.7L48.8,103.6L48.4,103.2L45.7,102.1L41.4,99.8L40.0,98.8L37.7,97.6L35.4,96.0L34.9,95.8L31.4,93.1L29.0,90.7L27.1,88.5L24.1,84.6L23.8,83.9L23.0,82.8L21.8,80.1L21.6,79.9L21.5,79.1L21.1,78.6L20.8,77.8L20.6,77.5L20.1,76.5L18.5,71.0L18.5,70.3L18.3,69.8L18.3,68.4L18.1,67.8Z M108.4,63.7L108.7,63.8L108.7,64.5L108.4,65.7L108.1,65.6L108.1,64.5Z M17.7,59.3L17.7,60.2L17.4,60.1L17.3,59.4Z M109.2,57.1L109.5,57.1L109.3,58.2L109.3,59.3L109.0,59.8L108.8,59.7L108.8,58.6L109.0,58.3L109.0,57.4Z M17.3,57.0L17.5,57.1L17.2,57.7L17.1,57.5Z M17.2,53.4L17.5,55.4L17.3,55.9L17.1,55.9L17.0,55.4Z M17.0,50.0L17.2,50.3L17.3,51.6L17.1,52.3L16.8,51.9L16.7,51.1Z M110.5,44.7L110.5,45.7L110.3,46.1L110.0,46.1Z M50.0,43.2L50.3,42.9L50.9,42.8L65.4,42.8L75.5,43.0L76.1,43.8L76.1,46.6L75.9,47.4L75.2,48.0L74.1,48.5L73.8,48.5L73.2,48.8L69.0,49.1L68.6,49.3L65.8,49.3L63.5,49.6L62.2,49.6L60.6,49.8L58.2,49.8L55.7,50.2L56.4,50.4L56.9,50.2L59.0,50.2L59.9,49.9L63.3,49.9L66.5,49.7L67.8,49.4L69.5,49.4L70.1,49.2L73.6,49.2L74.7,49.5L75.0,49.8L74.3,50.3L72.2,50.3L71.2,50.5L73.2,50.6L74.0,50.4L74.8,50.4L75.0,50.7L74.9,51.0L73.2,51.6L72.0,51.8L72.1,52.0L74.5,52.4L74.9,52.6L74.7,53.0L73.2,53.3L70.4,53.4L70.2,53.4L70.2,53.6L75.0,53.4L75.3,53.7L73.7,54.5L71.4,54.9L71.3,55.2L73.4,55.2L75.0,55.6L75.0,55.8L74.7,56.1L74.3,56.1L73.9,56.3L72.7,56.4L75.0,56.4L75.2,56.6L75.0,57.0L73.5,57.5L72.5,57.7L72.5,57.9L74.6,58.2L75.0,58.5L74.9,58.8L74.4,58.9L72.3,59.1L72.2,59.4L72.5,59.2L74.9,59.3L75.0,59.5L75.0,59.8L73.2,60.4L72.0,60.6L71.7,60.8L74.5,61.1L75.0,61.5L75.0,61.7L74.2,61.9L73.2,61.9L72.8,62.1L71.6,62.1L71.3,62.3L70.4,62.3L69.8,62.5L74.3,62.3L74.8,62.7L74.6,62.9L73.3,63.3L72.2,63.4L71.7,63.6L73.2,63.7L74.5,64.0L74.8,64.4L74.5,64.6L70.9,64.9L70.3,65.1L64.2,65.4L63.0,65.6L58.0,65.8L57.4,66.0L60.4,66.0L61.7,65.7L64.9,65.7L65.8,65.5L67.6,65.5L73.0,65.1L75.0,65.2L74.8,65.5L73.5,66.1L72.4,66.3L71.0,66.4L71.0,66.6L72.9,66.6L74.6,67.1L74.6,67.5L72.0,67.9L70.2,67.9L66.5,68.2L63.6,68.3L62.1,68.6L60.6,68.6L60.1,68.8L56.7,68.8L55.7,68.9L55.0,69.1L51.5,69.1L51.4,68.7L51.6,68.5L52.4,68.1L53.5,68.0L53.9,67.6L51.7,67.3L51.1,67.0L51.2,66.7L51.7,66.5L54.5,66.4L56.6,66.1L53.4,66.1L51.5,66.3L51.1,66.2L51.1,65.7L51.6,65.4L53.1,65.0L54.7,64.9L55.2,64.6L52.8,64.7L51.5,64.5L51.1,64.3L51.3,63.9L51.8,63.7L54.0,63.6L54.3,63.4L51.4,63.5L51.1,63.3L51.1,63.0L51.3,62.7L52.4,62.3L55.4,61.8L53.6,61.8L52.0,61.6L51.2,61.3L51.2,60.9L51.8,60.8L54.0,60.7L54.2,60.5L56.8,60.5L57.5,60.3L51.2,60.5L51.1,60.1L51.4,59.8L54.0,59.1L54.0,58.9L53.3,58.9L51.4,58.5L51.4,58.2L52.1,58.0L53.9,58.0L54.8,57.8L57.5,57.7L58.2,57.4L60.9,57.3L56.9,57.3L55.7,57.6L53.5,57.6L52.9,57.8L51.2,57.8L51.0,57.5L51.0,57.3L51.4,57.0L53.6,56.4L53.9,56.2L52.9,56.1L51.3,55.7L51.1,55.3L51.3,55.1L53.3,54.8L52.8,54.6L51.4,54.7L51.1,54.6L51.1,54.3L52.2,53.7L54.6,53.4L54.9,53.1L53.0,53.2L51.1,52.7L51.1,52.3L52.6,52.0L52.9,51.8L51.2,51.8L51.1,51.5L51.3,51.2L52.2,50.8L53.6,50.7L53.9,50.5L53.9,50.3L51.2,49.8L51.1,49.6L51.5,49.2L52.5,49.0L51.0,49.0L50.7,48.7L50.7,48.4L51.6,47.9L52.1,47.4L50.5,47.3L50.1,47.1L49.9,46.9L49.7,46.0L49.8,43.6Z M110.6,40.7L110.9,40.7L111.0,41.5L110.8,42.1L110.5,42.1Z M16.0,36.2L16.2,36.3L16.4,40.2L16.7,41.6L16.7,43.6L17.0,45.6L16.9,47.0L17.1,47.4L17.1,48.8L16.8,49.2L16.5,48.8L16.5,46.7L16.2,46.0L16.1,44.2L16.0,39.4L15.8,37.7Z M39.2,34.0L39.6,33.7L59.5,33.8L60.3,34.1L60.5,35.9L61.0,36.4L61.4,36.6L64.3,36.6L64.9,36.4L65.3,35.7L65.4,34.4L65.8,34.0L66.3,33.8L74.8,34.0L86.5,34.0L86.8,34.3L82.7,37.6L82.0,37.9L78.4,40.6L77.2,41.7L76.1,42.4L53.0,42.4L50.1,42.3L49.5,42.1L46.3,39.7L45.2,38.7L43.8,37.8L42.0,36.2L41.2,35.8L40.3,35.0L39.6,34.6L39.3,34.3Z M65.4,31.0L65.8,30.6L66.1,30.5L72.8,30.8L73.5,31.0L74.4,31.0L75.8,31.3L80.2,31.7L81.9,32.2L83.0,32.2L83.8,32.4L85.1,32.6L85.6,32.8L85.7,33.1L85.5,33.2L66.3,33.2L65.8,33.1L65.5,32.8Z M60.4,31.4L60.3,32.7L59.8,33.2L59.1,33.2L53.0,33.2L50.8,33.1L41.0,33.1L40.6,32.8L41.1,32.4L44.3,32.1L47.2,31.4L55.4,30.6L59.5,30.5L60.0,30.6L60.3,31.0Z M112.4,25.0L112.1,27.7L111.8,28.1L111.7,27.0L111.8,26.5L112.0,26.0L112.0,25.1Z M113.4,18.8L113.4,19.5L113.2,20.0L112.9,22.2L112.7,22.9L112.2,23.5L112.2,21.4L112.5,20.7L112.5,19.4L112.4,19.3L111.7,19.0L86.1,19.2L75.9,19.1L62.2,19.3L50.1,19.2L36.5,19.4L15.6,19.3L15.0,19.7L14.9,20.1L15.2,21.3L15.2,22.3L15.3,23.1L15.3,25.0L15.7,26.3L15.8,30.0L16.2,34.3L16.0,35.2L15.8,35.2L15.5,34.8L15.1,28.1L14.9,27.0L15.0,25.9L14.7,23.7L14.7,22.3L14.4,21.6L14.4,19.8L14.3,19.5L14.3,19.3L14.5,18.8L15.0,18.6L23.9,18.5L29.0,18.7L50.8,18.7L61.5,18.5L69.3,18.6L70.3,18.5L81.7,18.5L94.2,18.4L112.7,18.4Z" fill="#000" fill-rule="evenodd"/>
</svg>