<svg xmlns="http://www.w3.org/2000/svg" viewBox="0 0 128 128" width="128" height="128">
  <path d="M105.1,48.9L102.0,48.9L101.0,49.2L99.7,49.8L98.9,50.3L97.7,51.7L97.3,52.6L96.9,54.3L96.4,57.6L96.4,58.4L96.2,59.7L96.2,60.9L95.7,64.3L95.7,65.5L95.5,65.9L95.5,66.8L95.4,67.5L95.1,70.6L94.9,72.1L94.9,74.2L95.0,74.8L95.6,76.4L97.0,77.8L97.8,78.2L99.5,78.7L103.4,78.7L104.6,78.4L105.2,78.1L106.3,77.4L107.0,76.6L108.0,75.0L108.3,73.9L108.9,69.6L109.0,67.4L109.2,66.2L109.3,64.3L109.6,62.7L109.6,61.7L109.2,61.3L108.9,61.2L103.7,61.1L103.3,61.2L102.9,61.5L102.5,64.2L102.5,65.5L103.8,66.5L103.8,68.1L103.5,69.2L103.2,72.1L102.7,73.4L102.4,73.7L102.0,73.9L101.1,74.0L100.6,73.7L100.2,72.9L100.3,70.8L100.5,68.8L100.7,68.3L100.7,67.2L100.9,65.9L100.9,65.0L101.1,64.4L101.3,62.1L101.4,61.6L101.7,58.6L102.0,56.7L102.2,54.6L102.4,53.9L103.0,53.4L104.1,53.4L104.3,53.4L105.0,54.3L105.1,55.5L104.6,58.4L104.6,59.1L105.0,59.6L109.3,59.6L109.7,59.4L109.9,59.1L110.1,56.4L110.3,55.8L110.3,53.8L109.9,52.2L109.4,51.4L108.4,50.2L106.7,49.3Z M91.6,9.1L91.0,9.3L88.6,9.4L86.9,9.8L82.6,11.7L79.3,13.8L78.0,15.1L77.3,15.5L73.9,19.0L71.3,21.9L70.6,22.7L69.0,24.4L68.3,25.5L66.2,27.9L65.9,28.5L64.4,30.1L63.6,31.3L62.1,32.9L61.7,33.5L58.6,37.3L58.6,37.5L57.9,38.1L56.9,39.7L52.8,44.6L52.5,45.1L52.4,45.7L52.5,49.3L52.1,49.9L51.4,50.1L35.1,50.1L34.8,50.2L34.5,50.5L34.1,52.7L33.7,52.8L32.1,51.2L31.0,50.5L30.1,50.2L29.8,50.0L28.1,49.7L26.8,49.7L24.6,50.1L23.0,50.9L22.0,51.7L21.3,52.3L20.6,54.2L20.1,56.3L19.6,59.9L19.4,60.7L19.2,62.8L18.8,66.0L17.9,70.5L17.6,72.5L17.6,75.0L18.1,76.3L19.0,77.5L20.4,78.3L23.1,79.1L25.2,79.1L27.0,78.7L28.1,78.3L29.2,77.7L30.2,76.8L31.1,75.4L32.1,70.7L32.9,64.6L33.3,63.1L33.3,61.4L33.7,59.2L33.8,57.9L34.1,56.9L34.1,56.0L34.6,55.5L34.8,55.4L36.2,55.4L36.4,55.5L36.8,56.0L36.6,58.9L36.2,61.0L36.2,62.3L35.7,65.5L35.7,66.3L35.4,67.9L35.2,70.0L34.9,71.5L34.6,73.9L34.4,75.0L34.1,78.0L34.1,78.3L34.5,78.5L35.8,78.7L38.8,78.7L39.5,78.4L39.8,77.5L40.4,73.1L40.7,71.7L41.2,68.0L41.2,66.9L41.5,64.9L41.5,64.1L41.8,62.5L42.0,60.5L42.7,55.8L43.3,55.4L44.8,55.4L45.3,55.7L45.3,56.5L44.7,62.3L44.5,62.8L44.2,65.3L44.2,66.4L43.7,70.5L43.6,71.1L43.4,73.6L42.8,77.9L43.3,78.4L44.5,78.6L47.4,78.6L48.3,78.3L48.5,78.1L48.8,76.6L49.0,74.1L49.2,72.9L49.3,71.2L49.5,69.6L49.5,68.8L49.8,67.6L50.3,62.4L50.9,58.3L51.0,56.6L51.1,56.0L51.5,55.6L52.2,55.6L52.4,55.9L52.6,58.4L52.6,79.6L52.7,82.5L53.0,83.3L55.6,86.7L57.1,88.4L57.9,89.6L59.7,91.6L60.7,93.1L62.2,94.8L62.3,95.0L63.2,96.1L65.2,98.6L67.3,101.1L68.2,102.4L74.9,109.8L78.0,112.9L79.5,114.2L81.8,115.9L85.1,117.6L87.2,118.3L89.7,118.9L92.3,119.1L95.4,119.0L97.7,118.5L100.9,117.3L102.2,116.7L103.5,115.8L104.5,115.0L106.7,112.8L108.0,111.0L108.2,110.3L108.9,109.2L110.1,105.5L110.6,102.5L110.6,99.8L110.2,97.4L109.3,94.8L108.2,92.4L107.1,90.7L105.3,88.8L104.2,88.1L103.4,87.4L100.8,85.8L98.1,84.6L97.3,84.5L95.5,83.7L93.5,83.2L92.6,82.8L92.0,82.7L91.0,82.3L89.3,81.8L88.9,81.6L87.6,81.3L87.5,81.2L86.5,80.9L86.1,80.7L85.2,80.5L83.5,80.0L83.0,79.6L82.7,79.6L81.0,79.0L80.6,78.7L80.7,78.4L82.2,78.3L82.5,78.2L82.9,77.5L83.2,76.0L84.2,73.1L84.4,71.8L85.2,69.7L86.4,65.0L87.2,62.6L87.2,62.0L87.8,60.7L88.0,59.8L88.4,59.6L88.1,62.3L87.7,64.2L87.2,68.1L86.6,71.9L86.4,74.8L86.0,76.6L86.0,77.5L86.1,77.8L87.0,78.1L91.1,78.0L91.7,77.5L92.6,69.2L92.7,68.7L92.8,67.1L93.3,64.1L93.4,62.5L93.9,58.6L94.2,55.5L94.7,52.6L94.8,50.3L94.5,49.8L94.1,49.7L87.6,49.7L86.2,49.8L86.0,49.9L85.5,50.4L84.7,52.6L84.0,55.4L83.3,57.4L83.2,58.1L81.9,62.1L81.7,63.3L81.3,64.2L81.0,65.5L80.5,66.5L80.2,67.9L79.8,68.4L79.5,68.4L79.3,66.6L79.6,51.4L79.8,50.5L80.2,50.0L80.9,49.4L82.0,48.9L84.7,47.9L85.3,47.6L86.5,47.2L86.9,47.0L88.9,46.5L89.7,46.2L91.9,45.5L93.4,44.9L94.4,44.7L94.8,44.4L95.4,44.3L97.2,43.7L101.2,41.9L102.6,41.0L104.0,40.0L105.5,38.6L107.1,36.6L108.8,33.5L109.5,30.9L109.7,30.4L109.7,29.8L110.0,28.3L110.0,25.6L109.7,22.6L108.4,19.1L107.5,17.6L106.1,15.6L104.3,13.7L102.2,12.0L100.7,11.1L99.4,10.7L99.1,10.4L98.0,10.2L97.6,9.9L94.5,9.3L93.7,9.3L93.1,9.1Z M58.6,79.1L58.9,78.8L59.4,78.7L64.8,78.5L73.0,78.5L73.6,78.7L74.0,79.1L74.3,80.8L74.9,81.8L76.0,82.8L77.7,83.7L79.7,84.3L80.2,84.6L83.3,85.6L83.9,85.9L84.5,86.0L85.5,86.4L87.7,87.0L88.5,87.3L89.3,87.4L89.7,87.7L91.8,88.3L92.4,88.6L94.3,89.1L94.8,89.5L96.8,90.1L99.8,91.8L101.6,93.2L103.0,95.2L104.2,97.9L104.7,99.9L104.9,101.1L104.9,102.6L104.4,105.3L103.4,107.5L102.6,108.8L100.9,110.7L99.3,112.0L98.0,112.7L96.3,113.4L94.3,113.8L91.1,113.7L88.7,113.1L86.3,112.2L83.2,110.3L81.0,108.5L76.9,104.2L76.4,103.4L74.9,101.9L72.5,99.0L69.3,94.8L68.2,93.7L67.4,92.6L63.8,88.5L58.9,81.9L58.6,80.9Z M73.3,55.2L73.7,55.8L73.9,70.9L73.8,72.5L73.6,72.8L73.1,73.0L68.4,73.1L66.9,73.3L60.4,73.3L59.3,73.2L58.9,73.0L58.5,72.5L58.4,71.6L58.2,56.0L58.5,55.5L58.7,55.2L59.0,55.1L72.7,55.1Z M27.3,54.6L28.0,54.8L28.6,55.5L28.6,58.0L28.2,60.1L28.1,61.3L27.5,64.5L27.2,66.7L26.3,70.7L26.2,72.1L25.7,73.2L25.4,73.5L24.6,73.8L24.2,73.8L23.6,73.6L23.2,73.2L23.0,72.4L23.0,71.5L23.3,70.8L24.0,65.5L24.8,61.2L25.0,59.6L25.3,58.4L25.3,57.6L25.4,57.3L25.7,55.9L25.9,55.3L26.4,54.8Z M102.5,20.2L103.3,21.9L104.1,25.0L104.2,26.9L104.1,27.3L103.8,29.5L103.4,31.0L102.7,32.0L102.5,32.9L101.5,34.3L99.9,35.9L98.9,36.6L98.4,36.8L97.1,37.7L93.8,39.0L93.4,39.3L92.8,39.3L91.1,39.9L90.7,40.2L89.5,40.5L88.2,41.0L87.6,41.1L86.6,41.5L86.2,41.5L85.6,41.8L84.0,42.2L82.8,42.8L79.6,43.9L78.9,44.3L78.6,44.3L78.5,44.4L76.2,45.3L75.4,45.9L74.5,46.8L74.0,47.8L73.8,49.3L73.5,49.7L73.1,49.8L70.2,49.7L67.7,50.0L59.0,50.0L58.5,49.8L58.2,49.6L58.2,47.8L58.4,46.8L61.1,43.2L62.4,41.7L63.3,40.4L65.0,38.5L65.2,38.1L67.5,35.4L68.2,34.3L69.1,33.4L69.6,32.6L70.5,31.7L70.8,31.1L76.0,24.9L76.7,24.3L77.2,23.6L78.1,22.7L79.3,21.3L80.7,19.8L83.5,17.5L85.6,16.2L87.7,15.3L88.5,15.3L89.4,14.9L90.5,14.8L94.1,14.8L96.4,15.3L98.9,16.5L99.7,17.0L101.3,18.7Z" fill="#000" fill-rule="evenodd"/>
</svg>