<svg xmlns="http://www.w3.org/2000/svg" viewBox="0 0 128 128" width="128" height="128">
  <path d="M106.8,98.6L106.5,99.7L106.5,100.1L106.3,100.4L106.4,102.2L106.2,103.4L106.0,108.0L105.9,108.5L105.2,109.3L103.9,109.8L97.8,109.7L96.0,109.9L95.9,110.3L96.2,110.4L103.5,110.6L105.3,110.3L106.2,109.6L106.6,108.9L106.8,108.0L106.8,102.1L107.0,100.7L107.0,99.6Z M88.5,97.5L88.3,98.3L88.5,99.4L88.5,102.8L88.7,106.3L88.6,108.0L88.9,109.3L89.5,109.9L90.2,110.3L91.1,110.4L94.5,110.4L95.2,110.2L95.2,110.0L94.8,109.8L92.1,109.8L90.6,109.6L90.2,109.4L89.4,108.5L88.9,106.0L88.9,97.6L88.7,97.5Z M96.7,73.4L96.3,73.7L96.4,74.1L96.9,74.2L103.2,74.3L105.4,74.7L106.3,75.3L106.6,75.7L107.1,76.7L107.2,79.7L107.0,81.2L107.0,84.8L106.7,87.1L106.5,90.8L106.5,97.9L106.8,98.3L107.2,96.2L107.2,93.2L107.3,92.2L107.3,90.4L107.6,87.1L107.5,84.0L107.9,81.6L108.0,77.5L107.8,75.7L107.5,75.2L106.5,74.2L105.3,73.6L99.1,73.5L98.3,73.4Z M97.3,68.6L96.9,68.9L96.8,69.6L97.0,71.9L97.3,72.2L97.6,72.2L97.9,71.9L97.9,69.0L97.7,68.7Z M25.3,61.4L22.2,61.6L19.4,61.5L19.2,61.6L18.7,62.2L18.8,75.0L19.0,76.8L18.9,81.7L19.1,82.6L19.0,85.1L19.2,89.6L19.2,109.4L19.2,110.7L19.7,111.1L21.2,111.1L25.6,111.0L26.2,110.8L26.4,110.6L26.6,108.4L26.4,106.1L26.6,98.3L26.9,97.9L27.6,97.7L29.8,97.6L35.6,97.6L39.7,97.4L45.7,97.3L46.3,97.0L46.0,96.7L41.6,96.7L39.5,96.9L38.6,96.8L27.3,97.0L26.8,96.9L26.6,96.7L26.5,93.1L26.3,92.0L26.5,90.7L26.5,87.8L26.7,87.4L27.4,87.1L31.0,87.2L31.3,87.0L31.2,86.7L27.0,86.3L26.5,85.9L26.4,85.6L26.3,79.4L26.1,78.0L26.0,74.6L26.0,63.0L26.0,61.9L25.8,61.6Z M24.1,62.1L24.6,62.1L25.3,62.7L25.4,64.9L25.6,65.9L25.6,68.4L25.8,70.5L25.7,75.6L25.9,91.2L25.7,99.1L25.8,103.4L26.2,105.2L25.8,107.3L25.8,109.6L25.5,110.1L25.2,110.3L24.6,110.4L21.1,110.5L20.4,110.3L20.0,109.8L20.0,99.0L19.8,97.7L19.8,86.2L19.6,82.7L19.7,78.8L19.5,76.5L19.6,71.0L19.3,63.0L19.5,62.6L19.9,62.2L20.2,62.1Z M62.9,47.1L61.4,47.2L59.1,47.9L57.4,48.7L55.3,50.1L53.8,51.7L52.3,53.7L51.2,55.9L50.6,57.9L50.2,60.9L50.3,63.7L50.6,65.1L51.1,66.7L51.8,68.3L53.4,70.6L55.0,72.3L56.8,73.7L56.9,74.2L56.6,74.5L55.7,74.2L54.0,73.0L52.2,71.1L50.8,68.8L50.3,67.3L49.8,65.1L49.2,64.0L48.7,63.6L47.4,62.9L46.1,62.9L43.1,63.8L40.0,65.5L37.8,67.3L36.1,69.0L34.5,71.3L33.1,74.2L32.4,76.4L32.0,78.5L32.0,83.2L32.3,84.7L32.9,86.8L34.0,89.0L35.3,90.8L37.4,92.9L38.6,93.7L40.5,94.6L42.5,95.3L45.1,95.7L49.0,95.4L49.4,95.2L51.3,94.5L52.3,93.8L52.9,93.7L53.9,92.9L56.1,90.7L57.1,89.2L57.6,88.8L58.0,88.7L58.2,88.9L58.2,89.3L57.4,90.7L56.3,92.2L54.7,93.6L52.6,94.8L52.3,94.8L50.8,95.5L49.6,95.6L48.5,96.2L47.9,96.7L47.1,98.3L47.1,99.6L47.6,101.5L48.8,104.6L50.0,106.5L51.8,108.8L53.3,110.3L54.7,111.3L58.3,113.3L59.7,113.7L62.6,114.2L66.4,114.2L68.5,113.8L70.2,113.2L71.9,112.0L72.5,111.8L74.2,110.3L75.4,109.1L76.4,107.6L77.3,105.9L78.1,103.5L78.5,101.3L78.5,99.0L78.2,96.5L77.5,94.5L77.2,94.3L76.9,93.4L75.7,91.5L73.8,89.4L72.1,88.2L71.7,87.7L71.7,87.5L71.9,87.2L72.3,87.2L73.1,87.6L74.2,88.3L76.4,90.6L77.2,92.0L77.8,93.1L78.2,95.0L78.5,95.5L78.7,96.6L79.9,98.1L81.0,98.6L82.8,98.6L83.2,98.3L84.8,98.0L85.3,97.7L86.0,97.5L86.2,97.3L88.0,96.4L90.2,94.7L91.9,93.1L93.7,90.7L95.2,87.8L96.1,85.1L96.6,82.4L96.6,78.6L96.1,76.0L95.7,74.9L94.7,72.9L93.5,71.1L91.9,69.4L89.9,67.9L88.6,67.3L85.9,66.4L83.9,66.1L81.3,66.1L80.2,66.4L79.6,66.4L79.2,66.6L77.3,67.3L76.9,67.6L75.9,68.1L73.7,69.8L72.3,71.4L71.5,72.7L71.2,73.0L70.7,73.1L70.4,72.8L70.4,72.7L71.2,71.1L72.0,70.0L73.4,68.7L75.1,67.4L76.4,66.8L77.3,66.6L78.6,66.2L79.1,66.2L79.7,65.9L81.1,64.7L81.6,63.3L81.6,61.5L81.2,60.3L80.3,58.0L78.7,54.9L77.0,52.9L75.5,51.4L74.1,50.2L71.2,48.6L68.3,47.6L67.8,47.6L65.6,47.1Z M63.5,73.6L65.9,73.6L67.4,74.1L68.6,74.7L69.9,75.9L70.5,76.8L71.1,77.9L71.5,79.6L71.5,81.3L71.2,82.8L69.9,85.1L68.9,86.1L67.9,86.7L65.9,87.5L64.1,87.5L62.7,87.2L60.9,86.3L59.2,84.7L58.2,82.7L57.9,81.7L57.9,79.7L58.1,78.7L58.6,77.3L59.3,76.2L60.2,75.2L60.8,74.8L62.3,74.0Z M114.9,44.4L113.5,43.2L112.0,42.6L82.0,42.6L81.5,42.3L81.2,41.5L81.1,35.4L80.8,35.0L80.3,34.8L77.6,34.8L77.2,35.0L76.9,35.4L77.0,36.1L77.3,36.5L79.0,36.7L79.5,37.3L79.6,41.8L79.4,42.4L79.1,42.6L78.7,42.7L49.2,42.7L48.6,42.4L48.4,41.8L48.3,37.6L48.8,36.8L51.2,36.5L51.5,36.2L51.4,35.3L50.8,34.9L48.3,34.9L47.3,35.0L47.0,35.1L46.7,35.7L46.7,42.1L46.6,42.4L46.0,42.8L35.9,43.0L29.7,42.9L25.4,43.1L20.0,43.0L16.5,43.2L15.6,43.3L14.4,43.9L13.2,44.9L12.9,45.5L12.4,46.9L12.4,51.3L12.6,54.1L12.5,59.6L12.8,63.7L12.8,71.2L13.0,72.9L13.0,78.7L13.2,79.4L13.2,91.7L13.4,114.1L13.7,116.3L14.4,117.5L15.0,118.1L16.0,118.7L16.9,118.9L19.1,119.0L19.7,118.8L23.1,118.9L24.8,118.7L31.3,118.8L32.8,118.6L45.7,118.6L50.2,118.5L57.7,118.6L58.8,118.4L63.6,118.5L64.8,118.3L73.4,118.1L74.2,117.9L76.1,118.2L88.5,118.1L90.0,117.9L109.6,117.9L112.2,117.8L113.9,117.1L115.0,115.9L115.5,114.9L115.8,113.3L115.6,67.1L115.8,64.5L115.8,47.3L115.5,45.5Z M113.5,45.7L114.0,47.1L114.1,48.0L113.9,59.9L114.0,61.8L113.8,68.1L113.9,71.2L113.7,97.2L113.9,111.2L113.7,114.1L113.3,114.8L112.4,115.7L111.1,116.2L97.8,116.3L86.5,116.3L74.3,116.5L66.0,116.4L62.7,116.6L57.5,116.6L53.8,116.9L50.4,116.8L46.5,117.0L45.6,117.1L44.8,117.0L42.8,117.0L41.7,117.1L38.8,117.1L37.2,117.2L34.9,117.1L28.5,117.3L17.7,117.3L17.0,117.1L16.2,116.7L15.4,116.1L15.1,115.0L14.9,113.2L15.0,111.9L14.7,98.6L14.8,93.3L14.7,90.4L14.7,79.4L14.6,76.7L14.7,74.9L14.5,71.4L14.6,69.0L14.4,58.5L14.1,54.0L14.2,52.1L14.0,50.4L14.0,48.6L14.2,46.9L14.6,46.1L15.1,45.5L16.6,44.8L26.1,44.7L32.3,44.8L32.8,44.6L54.7,44.6L62.7,44.8L66.1,44.6L86.4,44.6L89.6,44.4L97.8,44.5L103.3,44.3L111.0,44.3L111.7,44.4L112.8,44.8Z M57.2,9.4L56.8,10.0L56.8,11.5L56.6,13.1L56.1,13.6L54.9,15.8L54.4,16.4L53.2,18.4L52.3,21.1L52.2,23.2L52.2,26.9L52.3,29.9L52.3,37.0L52.5,38.7L52.4,39.4L52.8,40.9L53.4,41.2L53.9,41.2L55.3,40.6L56.1,39.7L56.6,38.6L56.6,38.2L56.8,37.9L56.9,37.9L57.1,38.0L57.3,39.8L57.6,40.5L58.6,41.3L60.2,41.2L60.9,40.7L61.4,40.1L61.8,37.7L62.1,37.8L62.1,38.6L62.6,40.4L63.4,41.2L64.6,41.4L65.7,41.0L66.2,40.4L66.5,39.7L66.8,39.5L67.5,40.5L68.5,41.3L69.6,41.3L70.1,41.0L70.9,40.1L71.2,38.4L70.9,33.4L70.9,30.6L71.1,30.5L71.9,30.5L71.7,31.3L71.6,38.6L71.8,38.9L71.9,39.7L72.4,40.6L73.4,41.2L74.3,41.2L74.9,41.0L75.6,40.3L75.7,40.0L75.9,38.8L75.9,35.7L75.7,34.2L75.7,30.8L76.3,29.9L76.4,29.0L76.4,19.9L76.3,18.2L75.7,16.0L74.8,14.3L74.3,13.2L74.2,9.8L73.8,9.4L73.3,9.3L57.6,9.3Z M66.9,34.6L66.6,35.8L66.6,34.7Z M66.8,29.5L67.2,29.7L67.2,29.9L66.7,31.0L66.4,31.1L66.2,29.7L66.4,29.5Z M60.7,27.2L61.5,28.2L62.3,28.5L62.5,29.0L62.3,29.2L61.9,31.0L61.7,34.2L61.7,32.2L61.4,29.0L61.1,28.1L60.6,27.5Z M60.0,25.7L59.8,26.4L59.9,26.6L59.9,26.9L58.9,27.0L58.0,27.3L57.7,27.2L57.7,27.0L58.4,26.4L59.5,25.7Z M63.0,22.9L62.9,23.2L62.0,23.8L62.0,23.7L62.7,22.9Z M63.4,22.0L63.6,22.2L63.5,22.5L63.1,22.4Z M65.2,19.6L65.2,19.9L64.9,20.0L64.9,19.7Z" fill="#000" fill-rule="evenodd"/>
</svg>