<svg xmlns="http://www.w3.org/2000/svg" viewBox="0 0 128 128" width="128" height="128">
  <path d="M118.6,45.1L118.2,44.7L117.5,44.7L106.6,44.7L97.5,44.9L94.7,44.7L94.3,44.3L94.1,43.4L94.1,40.4L93.9,39.9L93.9,33.5L93.6,22.2L93.4,21.2L93.0,21.0L73.4,21.4L71.7,21.5L68.3,21.4L66.7,21.6L51.9,21.9L49.9,22.0L47.1,21.9L45.2,22.1L39.3,22.1L33.6,22.4L33.1,22.8L33.4,55.2L33.2,57.8L32.8,58.3L30.8,58.4L30.3,58.6L21.7,58.7L17.0,59.0L14.1,59.0L12.3,59.1L10.1,59.1L9.6,59.2L9.2,59.8L9.4,70.7L9.6,71.0L10.0,71.3L14.3,71.3L16.2,71.1L19.6,71.2L20.7,71.0L31.7,70.9L32.8,70.9L33.4,71.4L33.6,71.9L33.7,81.1L33.7,99.0L33.9,102.1L33.9,105.3L34.1,107.0L34.4,107.2L39.9,107.2L43.5,107.1L57.8,106.8L59.7,106.6L66.4,106.6L68.7,106.5L71.5,106.6L78.3,106.2L80.3,106.3L84.0,106.2L85.4,106.1L93.9,106.0L94.4,105.8L94.6,105.5L94.4,94.6L94.5,88.0L94.4,86.6L94.4,83.0L94.6,82.2L95.3,81.7L106.4,81.3L116.1,81.3L116.9,81.1L118.6,81.1L118.9,80.9L119.1,80.5L119.2,78.5L119.0,69.8L118.9,69.4L118.6,69.1L112.0,69.0L100.9,69.3L95.2,69.3L94.9,69.1L94.4,68.6L94.4,68.1L94.4,58.0L94.9,57.5L97.3,57.2L103.8,57.1L105.7,57.0L110.8,57.0L113.7,56.8L115.6,56.9L118.2,56.7L118.7,56.5L118.9,56.1L118.9,52.6Z M81.5,33.6L81.7,33.8L81.9,38.2L81.8,44.4L81.5,44.9L80.7,45.2L70.7,45.3L58.0,45.7L57.6,45.9L57.4,46.2L57.3,48.0L57.6,57.1L57.8,57.7L58.1,58.0L61.3,58.1L63.3,57.9L69.7,57.9L75.5,57.6L81.6,57.7L82.1,58.3L82.1,58.7L82.2,66.8L82.1,68.5L81.9,69.1L81.6,69.4L80.8,69.6L74.3,69.7L73.4,69.9L66.2,69.9L65.1,70.0L59.9,70.0L58.2,70.2L57.8,70.4L57.7,70.9L57.8,74.4L57.8,78.1L57.8,81.7L58.3,82.3L58.6,82.3L67.9,82.3L80.7,81.9L81.9,82.1L82.2,82.4L82.4,84.3L82.5,92.5L82.3,93.5L81.7,93.9L81.1,94.0L77.6,94.0L76.7,94.2L52.6,94.6L47.4,94.6L46.8,94.4L46.4,94.1L46.3,93.6L46.3,91.7L46.1,90.5L46.2,84.8L46.0,80.5L46.0,72.0L45.9,69.7L45.9,64.5L45.8,58.9L45.8,44.9L45.5,40.2L45.5,36.6L45.7,34.8L46.2,34.3L49.5,34.0L64.2,33.8L65.1,33.6L73.8,33.4L80.8,33.4Z" fill="#000" fill-rule="evenodd"/>
</svg>