<svg xmlns="http://www.w3.org/2000/svg" viewBox="0 0 128 128" width="128" height="128">
  <path d="M23.9,59.4L23.6,59.2L22.3,59.0L19.4,59.2L9.7,59.2L9.3,59.3L9.2,59.7L9.3,67.2L9.4,67.7L9.8,68.0L12.1,68.1L23.8,68.0L24.1,67.7L24.1,63.1Z M116.6,40.4L115.0,39.9L112.9,39.7L105.8,39.9L79.8,39.8L79.3,40.0L79.2,40.4L79.2,55.5L79.3,63.1L79.2,68.6L79.5,81.3L79.4,83.6L79.6,87.7L79.7,88.1L80.7,88.4L104.9,88.4L114.4,88.2L116.1,88.0L116.8,87.7L117.5,87.2L118.7,86.0L119.1,84.8L119.1,83.2L118.8,82.0L118.5,81.4L117.6,80.4L117.1,80.0L116.0,79.5L114.8,79.3L113.4,79.2L105.7,79.2L103.1,79.4L89.4,79.3L88.9,78.7L88.9,77.1L88.7,76.3L88.7,69.1L88.9,68.6L89.2,68.4L89.9,68.2L107.9,68.2L110.2,68.0L115.0,68.0L116.7,67.6L117.5,67.0L118.4,66.1L118.8,65.3L119.1,64.5L119.1,63.1L118.8,62.2L118.3,61.3L117.3,60.3L116.6,59.8L115.6,59.5L113.0,59.3L104.8,59.3L98.5,59.4L89.8,59.3L89.2,59.2L88.9,58.9L88.7,58.0L88.5,54.9L88.5,49.4L88.6,49.2L89.1,48.7L90.7,48.6L114.3,48.6L115.8,48.3L116.8,47.9L118.0,46.7L118.5,45.7L118.7,45.1L118.7,43.3L118.3,42.4L117.8,41.5Z M27.0,47.3L26.4,47.9L26.0,48.8L25.6,49.8L25.5,51.0L25.4,58.9L25.6,66.6L25.6,73.4L25.8,76.5L26.1,78.2L26.4,79.1L27.0,80.0L28.0,81.0L29.1,81.7L31.3,82.8L32.7,83.3L33.2,83.7L33.7,83.8L34.2,84.1L35.7,84.7L36.3,85.1L38.0,85.6L39.1,86.2L39.9,86.5L41.2,87.2L42.8,87.7L43.5,88.1L43.9,88.2L46.9,89.7L47.7,90.0L48.4,90.4L48.8,90.4L51.8,91.9L53.4,92.5L55.7,93.7L56.6,93.9L56.9,94.2L57.6,94.3L58.1,94.6L59.3,95.0L59.9,95.1L60.7,95.4L61.9,95.5L62.4,95.7L67.4,95.8L75.8,95.7L76.7,95.7L77.2,95.3L77.3,92.0L77.1,91.0L77.1,78.5L76.9,69.0L77.0,66.8L76.9,66.3L76.9,64.8L76.8,60.2L76.8,51.5L76.6,48.4L76.6,36.9L76.5,35.6L76.5,33.0L76.2,32.6L72.1,32.4L64.0,32.4L62.5,32.5L59.5,33.0L57.8,33.7L57.1,34.1L54.3,35.0L53.1,35.7L51.8,36.1L50.3,36.8L49.1,37.2L47.9,37.9L47.4,38.0L46.9,38.3L43.9,39.5L43.1,39.9L42.9,39.9L41.7,40.5L40.7,40.8L38.7,41.8L36.7,42.5L35.5,43.1L34.7,43.3L34.4,43.6L33.7,43.7L32.3,44.4L31.6,44.6L28.0,46.4Z M55.9,58.2L57.3,58.1L58.4,58.1L59.8,58.6L61.1,59.5L61.7,60.1L62.9,62.2L63.1,63.3L63.1,64.6L62.9,65.6L62.5,66.5L61.8,67.4L60.6,68.6L60.0,68.8L59.8,69.1L59.1,69.3L58.3,69.4L58.0,69.5L56.4,69.5L55.6,69.3L54.3,68.7L53.5,68.1L52.5,67.0L51.8,65.4L51.5,64.4L51.6,62.9L52.5,60.8L53.6,59.5L54.7,58.7Z" fill="#000" fill-rule="evenodd"/>
</svg>