<svg xmlns="http://www.w3.org/2000/svg" viewBox="0 0 128 128" width="128" height="128">
  <path d="M102.2,82.4L101.4,82.4L100.9,82.9L100.7,84.7L100.4,86.6L99.8,88.2L99.1,89.8L99.1,90.0L99.4,90.2L100.4,90.3L101.0,90.1L101.8,88.3L102.3,86.5L102.7,84.1L102.7,83.0Z M68.9,83.0L69.0,83.6L69.3,83.9L71.5,84.0L71.8,84.3L72.5,87.0L73.5,89.3L74.8,91.3L76.9,93.3L78.6,94.6L80.7,95.6L82.4,96.1L84.1,96.4L86.9,96.4L89.1,96.1L90.7,95.6L92.3,94.9L92.7,94.8L94.3,93.7L95.4,92.8L96.9,91.2L97.8,90.1L99.0,87.7L99.7,84.9L99.7,82.9L99.4,82.4L95.1,82.4L94.7,82.9L94.6,84.2L94.0,86.3L93.2,87.8L91.7,89.4L90.6,90.2L88.9,91.0L87.5,91.4L85.4,91.6L83.2,91.2L82.7,90.9L82.1,90.8L80.9,90.2L79.2,88.9L79.2,88.7L78.4,87.9L77.6,86.5L77.0,84.4L76.8,83.4L76.9,83.1L76.7,82.5L76.4,82.4L69.8,82.3L69.2,82.4L69.0,82.7Z M73.9,84.5L74.2,84.1L74.7,84.1L75.1,84.3L75.7,86.6L76.3,87.9L76.9,88.8L78.0,90.2L79.3,91.3L81.5,92.6L83.2,93.1L84.3,93.3L87.8,93.3L89.2,92.9L91.4,92.0L93.0,90.8L94.0,89.8L95.5,87.7L96.1,86.4L96.6,84.4L97.0,84.1L97.5,84.1L97.8,84.3L97.8,85.0L97.1,87.2L96.0,89.2L94.5,91.1L93.1,92.2L91.2,93.3L91.0,93.5L88.5,94.3L87.3,94.4L86.8,94.6L84.4,94.6L82.3,94.1L80.5,93.4L79.2,92.8L77.6,91.6L75.9,89.7L75.3,88.7L74.3,86.5L74.1,85.7Z M73.8,71.2L73.3,72.8L73.0,74.4L73.1,76.9L73.8,79.0L74.1,79.9L74.7,80.6L75.3,81.1L84.3,81.1L84.7,81.2L84.9,81.5L85.0,83.3L85.3,83.7L86.2,83.7L86.6,83.3L86.6,81.7L86.8,81.4L87.1,81.1L97.1,81.1L97.5,80.9L97.4,80.5L96.8,79.8L96.2,78.5L95.9,76.6L95.9,73.5L96.5,71.6L97.6,69.5L97.5,69.2L97.2,69.0L86.3,68.9L86.1,68.6L86.4,68.3L87.3,68.1L87.9,67.7L89.4,67.2L89.8,67.0L89.8,66.6L89.7,66.4L88.5,66.2L87.9,65.9L86.2,65.6L85.9,65.4L85.3,65.4L85.0,65.7L85.0,65.9L85.0,68.3L84.6,68.8L80.8,69.0L75.5,69.0L75.0,69.2L74.7,69.5Z M108.5,81.8L108.3,81.1L107.8,80.8L107.3,80.6L106.8,80.1L106.7,79.9L106.7,78.8L107.7,77.8L107.7,77.1L107.6,76.7L107.0,76.0L106.1,76.0L105.5,75.4L105.3,74.8L105.3,74.3L106.0,73.5L106.1,72.9L105.3,71.9L104.0,71.8L103.6,71.7L103.1,71.1L103.0,70.6L103.5,69.7L103.5,69.1L102.6,68.2L102.0,68.1L101.6,68.3L100.7,68.3L100.5,68.2L100.0,67.7L99.9,67.4L100.0,66.0L99.4,65.2L98.8,65.0L97.6,65.5L96.8,65.5L96.5,65.3L96.0,64.7L96.0,63.4L95.9,63.2L94.9,62.8L94.4,62.8L93.6,63.5L93.0,63.6L92.4,63.5L91.7,63.0L91.5,61.9L90.9,61.5L89.9,61.4L89.6,61.6L89.2,62.1L88.7,62.6L87.5,62.6L87.2,62.2L86.9,61.4L86.6,61.1L85.3,61.0L84.8,61.3L84.5,62.1L84.2,62.4L83.7,62.6L82.7,62.6L82.4,62.4L81.9,61.6L81.7,61.5L80.3,61.6L79.9,62.1L79.8,62.9L79.3,63.5L78.6,63.8L77.9,63.8L76.9,63.0L76.0,63.1L75.3,63.6L75.1,64.0L75.1,65.1L74.5,65.8L73.9,66.1L73.4,66.1L72.6,65.5L72.1,65.5L71.3,66.1L71.0,66.4L71.0,66.7L71.3,67.4L71.3,68.0L71.0,68.4L70.4,68.8L69.7,68.8L69.3,68.6L68.9,68.6L68.5,68.8L67.9,69.5L67.9,70.0L68.3,70.9L68.3,71.4L67.9,72.2L67.3,72.6L66.1,72.7L65.4,73.4L65.2,73.8L65.2,74.4L65.9,75.1L66.1,75.7L65.9,76.2L65.4,76.8L65.2,77.0L64.3,77.1L63.8,77.8L63.7,78.9L64.3,79.3L64.9,80.1L64.7,81.2L64.2,81.7L63.9,81.8L63.3,81.7L63.1,81.4L62.8,79.4L61.9,76.4L61.3,75.0L59.8,72.2L58.5,70.4L56.8,68.6L55.4,67.4L52.9,65.7L52.5,65.5L51.3,64.8L49.2,63.9L45.9,63.1L44.7,63.0L43.9,62.8L40.5,62.8L38.9,62.9L37.6,63.2L35.0,63.9L32.6,64.9L32.0,65.4L30.9,65.8L29.9,66.6L26.9,69.3L25.9,70.4L24.8,72.0L23.5,74.4L22.3,77.7L21.8,80.5L21.7,83.3L21.9,85.6L22.2,86.8L22.9,89.3L23.9,91.7L25.4,94.2L27.5,96.6L29.8,98.7L30.4,99.0L31.9,100.1L34.9,101.6L37.4,102.3L40.0,102.9L44.2,102.9L47.5,102.4L50.8,101.4L54.1,99.7L54.5,99.2L55.0,99.0L56.5,97.8L58.3,95.9L59.7,94.1L61.1,91.7L61.2,91.3L61.8,90.1L62.1,88.9L62.4,88.4L62.5,87.7L62.8,86.8L63.0,85.0L63.5,84.3L64.3,84.4L64.8,84.9L64.9,85.3L64.9,85.9L64.8,86.2L63.8,87.0L63.7,87.5L63.8,88.2L64.0,88.5L64.5,88.8L65.4,88.8L65.7,89.1L66.1,90.1L65.9,90.6L65.3,91.3L65.3,92.0L65.4,92.4L66.1,93.0L67.2,93.0L67.8,93.4L68.0,93.9L68.0,94.5L67.5,95.5L67.6,95.9L68.5,96.8L70.1,96.6L70.7,97.1L70.9,97.4L71.0,97.8L70.8,98.5L70.8,99.1L71.5,99.9L72.5,100.0L73.1,99.6L74.1,99.7L74.6,100.3L74.6,101.7L75.0,102.1L76.0,102.4L76.4,102.3L77.2,101.7L77.9,101.8L78.6,102.3L78.7,102.5L78.9,103.5L79.4,103.9L79.9,104.0L80.7,104.0L81.7,103.1L82.6,103.0L82.8,103.1L83.3,103.6L83.4,104.2L83.7,104.5L84.4,104.8L85.0,104.8L85.5,104.6L86.1,103.6L86.5,103.3L87.5,103.2L88.0,103.4L88.8,104.4L89.4,104.5L90.4,104.2L90.8,103.7L90.8,103.4L91.1,102.8L91.6,102.5L92.6,102.6L93.3,103.2L93.5,103.3L94.3,103.2L94.9,102.7L95.1,102.4L95.0,101.6L95.5,101.0L96.1,100.8L96.7,100.8L97.3,101.2L98.1,101.3L98.8,100.8L99.1,100.4L99.1,99.1L99.7,98.4L100.4,98.3L101.1,98.6L101.6,98.5L102.5,97.6L102.5,97.1L102.2,96.4L102.3,95.8L102.9,95.2L104.5,95.1L105.3,94.0L105.2,93.4L104.8,93.0L104.6,92.6L104.7,92.1L105.3,91.5L106.5,91.4L107.0,90.7L107.0,90.4L107.2,90.1L107.2,89.6L106.3,88.6L106.3,88.2L106.4,87.9L106.9,87.4L107.5,87.3L108.2,86.4L108.2,85.6L107.7,85.2L107.1,84.9L107.0,84.5L107.0,84.0L107.1,83.5L107.4,83.2L108.0,83.1L108.4,82.7Z M55.2,96.5L55.2,96.8L54.8,97.3L52.0,99.2L50.4,100.0L49.8,100.1L48.2,100.8L47.8,100.8L47.6,100.7L47.6,100.5L48.1,100.0L49.4,99.0L51.8,96.5L52.3,96.4Z M49.5,96.5L49.6,96.8L48.3,98.1L47.6,98.6L46.9,99.3L46.5,99.4L46.2,99.4L46.2,99.0L46.7,98.0L46.8,97.6L47.1,97.0L47.6,96.5Z M45.3,96.4L45.6,96.6L45.6,97.1L45.0,98.1L44.9,98.5L44.0,100.2L43.7,100.5L43.3,100.4L43.2,96.8L43.7,96.4Z M39.9,96.3L41.1,96.3L41.8,96.7L42.0,97.2L42.0,100.0L41.7,100.2L41.4,100.2L41.1,99.9L39.5,97.1L39.6,96.5Z M35.5,96.5L35.9,96.3L37.4,96.3L37.8,96.5L38.0,96.7L38.6,98.1L39.0,98.7L39.2,99.4L38.8,99.5L38.3,99.4L36.4,97.9L35.4,96.8Z M29.9,96.5L30.2,96.3L33.0,96.3L35.2,98.6L37.2,100.4L37.2,100.6L37.1,100.7L36.9,100.7L35.6,100.4L35.1,100.0L34.5,99.9L33.9,99.5L33.5,99.4L33.1,99.1L31.2,98.1L29.8,96.8Z M60.0,90.2L59.8,91.1L59.5,91.7L57.8,94.3L57.4,94.6L56.5,95.1L53.6,95.1L53.2,94.9L53.2,94.3L53.4,94.1L54.5,91.8L54.7,91.6L55.1,90.4L55.5,90.0L59.5,89.9L59.8,90.0Z M53.6,90.2L53.6,90.8L52.9,92.1L51.7,94.3L51.0,94.9L50.4,95.1L48.7,95.1L48.1,94.8L48.1,94.3L48.8,92.0L49.0,90.8L49.6,90.0L53.0,89.9L53.3,90.0Z M43.5,90.1L44.2,89.9L47.3,89.9L47.6,90.1L47.7,90.9L47.4,92.0L47.4,92.4L47.2,92.7L47.1,93.3L46.9,93.6L46.5,94.6L46.1,94.9L45.3,95.1L43.7,95.1L43.2,94.6L43.0,93.9L43.1,90.7L43.2,90.4Z M37.6,90.0L41.4,89.9L41.7,90.1L41.8,90.4L41.9,91.2L41.9,94.3L41.8,94.7L41.7,94.9L40.7,95.1L39.4,95.1L39.0,95.0L38.5,94.6L37.8,92.6L37.5,91.4L37.3,90.3Z M31.2,90.3L31.8,89.9L35.5,89.9L35.9,90.3L36.1,90.8L36.2,91.5L36.4,92.0L36.6,92.9L37.0,94.2L37.0,94.8L36.8,95.0L36.5,95.1L34.0,95.0L33.1,94.0L32.5,93.2L31.5,91.3Z M25.0,90.2L25.5,89.9L28.7,89.8L29.3,90.0L29.9,90.7L30.2,91.7L31.8,94.6L31.8,94.9L31.5,95.1L28.4,95.1L27.8,94.8L26.7,93.6L25.8,92.3L25.3,91.2L25.1,91.0Z M56.7,83.7L57.1,83.5L60.6,83.5L61.0,83.6L61.6,84.0L61.6,84.6L61.4,86.3L61.0,88.0L60.4,88.6L59.2,88.8L56.8,88.8L56.2,88.7L55.8,88.4L55.8,87.9L56.2,86.6L56.2,85.6L56.3,85.3L56.4,84.3Z M50.3,83.6L54.3,83.5L54.6,83.6L55.0,84.0L55.0,84.7L54.6,87.4L54.3,88.2L54.0,88.5L53.7,88.7L50.6,88.8L49.8,88.6L49.6,88.4L49.5,87.8L49.7,87.0L49.8,84.2Z M43.5,83.6L48.0,83.5L48.4,83.7L48.5,84.7L48.4,87.0L48.1,88.2L47.8,88.7L44.3,88.8L43.6,88.7L43.0,88.2L43.0,84.5L43.1,84.0Z M36.6,83.7L36.9,83.5L41.3,83.6L41.7,84.1L41.8,88.0L41.7,88.4L41.2,88.7L37.2,88.7L36.8,88.0L36.8,87.6L36.6,87.0L36.4,84.1Z M29.8,83.9L30.3,83.5L34.7,83.6L35.0,83.8L35.1,84.3L35.2,86.1L35.5,88.3L35.2,88.6L32.1,88.8L30.8,88.6L30.3,88.0L30.1,86.9L29.9,86.5L29.7,85.0Z M23.3,83.9L23.9,83.5L27.9,83.6L28.3,84.1L28.3,85.2L28.8,87.6L28.9,87.9L28.9,88.4L28.4,88.7L25.1,88.8L24.4,88.6L24.0,88.2L23.9,87.6L23.5,86.5L23.2,85.0Z M55.8,77.1L56.5,76.9L60.5,77.0L61.0,77.9L61.6,80.7L61.6,81.8L61.4,82.0L61.0,82.1L60.2,82.2L56.5,82.1L55.7,77.6Z M49.4,77.3L49.7,77.0L50.4,76.9L53.2,76.9L54.0,77.1L54.4,77.6L54.8,79.4L54.9,80.6L54.9,81.9L54.5,82.2L50.2,82.1L50.0,81.9L49.7,81.3L49.7,80.1L49.6,79.5L49.6,78.9L49.4,78.5Z M43.0,77.3L43.7,76.9L47.4,76.9L47.8,77.0L48.1,77.8L48.4,79.0L48.4,81.9L48.1,82.1L47.5,82.2L43.7,82.2L43.2,82.1L43.0,81.7Z M37.0,77.0L37.6,76.9L41.0,76.9L41.6,77.3L41.7,81.7L41.4,82.1L36.9,82.2L36.5,82.1L36.3,81.5L36.3,80.9L36.4,80.5L36.6,77.6Z M35.0,77.0L35.3,77.3L35.3,78.7L35.0,80.1L35.0,81.5L34.8,82.0L34.5,82.1L30.2,82.2L29.7,81.8L29.6,80.5L29.9,79.7L29.9,78.7L30.2,77.6L30.7,77.0L32.6,76.9Z M24.1,77.1L25.0,76.9L28.0,76.9L28.4,77.0L28.7,77.2L28.8,77.6L28.5,78.9L28.3,81.5L28.1,81.9L27.9,82.1L23.8,82.2L23.4,82.1L23.2,81.8L23.2,80.7L23.4,80.2L23.5,78.9L23.7,77.9Z M52.8,70.8L53.0,70.6L53.6,70.5L56.5,70.5L56.8,70.6L58.4,72.5L59.7,74.8L59.8,75.3L59.5,75.6L58.9,75.7L55.6,75.7L55.2,75.5L54.9,75.2L54.2,73.4L52.8,71.0Z M43.2,70.6L43.5,70.5L45.8,70.5L46.2,70.8L46.5,71.4L47.5,74.7L47.5,75.4L47.3,75.6L43.5,75.7L43.0,75.3L42.9,71.2Z M38.8,70.6L41.0,70.5L41.5,70.8L41.7,71.4L41.7,75.1L41.3,75.6L37.6,75.7L37.2,75.4L37.2,75.0L37.4,74.2L37.4,73.8L37.8,72.9L37.9,71.9L38.3,71.0Z M36.9,70.8L36.9,71.2L36.6,71.9L35.7,75.1L35.3,75.6L31.5,75.7L31.2,75.5L31.1,75.1L31.5,74.1L32.4,72.2L33.5,70.7L34.0,70.5L36.3,70.5Z M31.5,70.6L31.5,71.2L30.7,72.4L30.2,73.7L29.9,74.1L29.7,74.7L29.1,75.6L25.7,75.7L24.9,75.5L24.8,75.2L25.0,74.7L25.7,73.3L26.8,71.6L27.6,70.7L28.3,70.5L31.2,70.5Z M47.9,70.6L48.1,70.5L50.4,70.5L50.7,70.6L51.3,71.2L52.3,72.6L53.3,74.7L53.4,75.4L52.9,75.7L49.4,75.6L49.0,75.2L48.8,74.7L48.5,73.1L47.8,71.4Z M45.7,66.3L45.9,66.1L46.3,66.1L48.2,67.7L49.3,68.7L49.3,69.0L48.9,69.3L47.2,69.2L46.9,68.8L46.8,68.4L46.5,68.0Z M38.9,65.9L38.9,66.4L38.4,67.2L38.2,68.0L37.7,68.8L37.3,69.2L35.3,69.2L35.3,68.6L36.6,67.3L38.2,66.0L38.5,65.8Z M41.4,65.4L41.6,65.8L41.5,68.8L41.0,69.3L39.5,69.3L39.2,69.0L39.2,68.6L39.5,68.2L39.6,67.8L40.8,65.7L41.0,65.4Z M36.6,65.2L36.6,65.4L35.0,66.7L32.8,69.1L32.4,69.3L29.6,69.2L29.5,69.0L29.9,68.4L31.5,67.3L32.8,66.4L36.1,65.1L36.5,65.1Z M47.4,65.1L48.4,65.1L51.1,66.2L51.3,66.4L52.9,67.2L54.9,68.8L54.9,69.0L54.5,69.3L51.5,69.2L48.7,66.3L47.5,65.4Z M43.1,64.9L43.3,64.9L43.5,65.1L44.9,67.5L45.0,68.0L45.4,68.6L45.4,69.0L45.3,69.2L43.0,69.2L42.9,68.4L42.9,65.1Z M88.0,64.5L91.2,65.1L92.9,65.6L94.8,66.4L98.1,68.6L100.5,70.8L102.4,73.3L103.4,75.1L104.2,77.1L104.4,78.0L104.8,79.4L104.9,80.6L105.1,81.1L105.1,84.6L104.8,86.5L104.3,88.2L103.2,90.9L102.5,92.3L101.6,93.6L100.5,94.9L98.9,96.5L97.3,97.8L95.1,99.2L93.9,99.7L93.3,100.0L91.2,100.7L88.2,101.3L83.5,101.3L81.6,101.0L81.0,100.8L80.5,100.8L78.5,100.1L76.6,99.2L74.9,98.2L73.2,97.0L70.8,94.6L69.0,92.2L67.6,89.2L67.5,88.7L67.1,87.7L66.7,85.3L66.6,81.5L67.1,78.3L67.4,77.9L67.5,77.1L68.3,75.6L68.4,75.0L70.0,72.4L71.6,70.5L73.2,69.0L75.7,67.2L77.1,66.5L77.6,66.1L80.0,65.2L81.8,64.8L83.9,64.5Z M9.1,45.3L9.4,47.6L10.1,49.4L11.5,51.5L13.2,53.3L15.4,54.5L16.4,54.9L16.7,55.1L19.4,55.5L20.4,55.5L22.7,55.2L23.1,55.0L23.6,54.9L24.6,54.5L26.2,53.6L27.1,52.9L28.7,51.3L28.9,50.9L29.5,50.3L30.3,48.5L30.5,47.8L30.8,47.4L31.2,47.5L31.3,48.1L32.3,50.2L33.1,51.3L34.2,52.5L36.3,54.0L38.6,55.0L40.6,55.4L42.4,55.5L44.3,55.2L47.2,54.1L49.4,52.5L50.5,51.3L51.3,50.1L51.8,48.9L52.3,48.1L52.4,47.5L52.6,47.2L52.9,47.2L53.1,47.4L53.8,49.4L55.2,51.5L56.7,52.9L58.0,53.9L59.4,54.6L62.3,55.4L64.5,55.5L66.5,55.2L68.9,54.3L70.4,53.4L71.0,52.9L72.3,51.7L73.1,50.7L73.8,49.4L74.4,47.9L74.7,47.5L75.0,47.5L75.2,47.8L75.3,48.2L76.0,49.9L77.3,51.7L79.4,53.6L80.2,54.0L80.6,54.3L82.0,54.9L83.9,55.4L85.3,55.5L87.2,55.5L88.7,55.2L90.1,54.7L91.3,54.1L93.6,52.5L94.7,51.3L95.2,50.5L96.3,48.5L96.5,47.8L96.8,47.5L96.9,47.5L97.3,48.0L97.4,48.4L98.3,50.2L99.2,51.5L100.7,52.9L102.5,54.2L104.6,55.1L106.4,55.5L109.2,55.5L110.9,55.2L112.9,54.4L115.0,53.2L116.9,51.3L117.9,49.8L118.5,48.5L118.9,47.4L119.2,45.7L119.1,45.0L118.7,44.6L117.3,44.3L115.7,44.1L114.4,43.7L111.3,43.2L110.5,42.9L109.7,42.9L108.6,42.6L107.7,42.5L107.4,42.4L106.3,42.3L104.0,41.7L101.8,41.4L101.1,41.1L100.1,41.1L99.2,40.8L96.2,40.3L93.9,39.8L93.3,39.8L92.5,39.5L91.4,39.4L89.7,38.9L88.7,38.9L86.9,38.4L82.1,37.5L81.7,37.5L81.1,37.2L78.2,36.8L77.1,36.5L75.7,36.3L75.1,36.1L72.2,35.6L70.2,35.1L68.0,34.8L66.2,34.4L65.6,34.7L69.2,35.9L69.7,36.0L70.3,36.3L71.6,36.6L72.2,36.9L74.4,37.5L75.4,37.9L77.8,38.6L78.2,38.9L78.7,38.9L80.0,39.5L82.0,40.0L82.4,40.3L82.8,40.3L84.0,40.8L84.6,40.8L84.9,41.1L86.2,41.5L88.8,42.2L89.5,42.6L91.9,43.3L92.9,43.7L94.7,44.3L94.7,44.5L94.3,44.7L81.7,44.8L75.0,44.6L74.7,44.5L71.9,41.9L65.1,35.0L65.0,34.4L64.5,33.7L64.6,29.1L65.1,28.7L65.5,28.7L66.4,28.5L67.4,28.5L68.5,28.3L69.3,28.3L72.1,27.8L73.4,27.7L74.4,27.5L75.3,27.5L81.5,26.7L82.9,26.6L84.5,26.4L84.8,26.2L84.8,26.0L84.3,25.9L82.7,25.8L81.9,25.6L80.2,25.4L79.8,25.3L76.3,25.0L76.0,24.8L73.8,24.7L73.1,24.4L72.0,24.4L71.5,24.3L65.6,23.7L65.0,23.5L63.6,23.6L63.2,24.4L63.2,33.5L62.9,34.0L62.2,34.3L61.6,34.3L59.7,34.7L59.3,34.7L57.1,35.3L56.5,35.3L55.2,35.6L53.6,35.8L52.9,36.0L50.4,36.4L49.7,36.6L47.6,36.9L46.2,37.3L45.0,37.5L44.4,37.7L44.0,37.7L42.8,38.0L42.2,38.0L40.5,38.5L38.5,38.8L34.0,39.8L32.7,39.9L31.8,40.2L30.8,40.3L29.5,40.7L28.5,40.8L26.7,41.2L25.7,41.3L24.9,41.6L23.9,41.7L21.3,42.3L19.9,42.4L19.0,42.7L17.3,43.0L15.8,43.3L14.9,43.4L14.7,43.6L11.7,44.0L11.2,44.3L10.7,44.3L9.5,44.6L9.1,44.9Z M98.3,45.4L98.8,44.9L117.1,44.9L117.4,45.0L117.7,45.3L117.7,45.9L117.5,47.2L116.7,49.1L115.5,50.7L114.5,51.8L112.9,52.9L111.6,53.5L109.6,54.0L107.9,54.2L105.8,53.9L104.5,53.6L104.0,53.3L103.6,53.2L102.9,52.9L101.3,51.7L99.9,50.1L98.9,48.4L98.4,47.2Z M10.5,45.3L10.7,45.0L11.0,44.9L28.9,44.9L29.4,45.2L29.4,46.2L29.1,47.6L28.5,49.1L27.8,50.2L26.1,52.0L24.8,52.9L23.1,53.7L21.2,54.2L19.3,54.2L16.6,53.6L16.2,53.3L15.1,52.9L14.3,52.3L12.7,50.9L11.5,49.3L11.0,48.1L10.5,46.5Z M54.1,46.2L54.1,45.4L54.5,44.9L71.9,44.9L73.1,44.9L73.5,45.3L73.2,46.9L72.7,48.5L71.5,50.4L70.2,51.7L69.0,52.6L67.4,53.5L65.5,54.0L62.9,54.1L60.9,53.7L58.9,52.9L57.8,52.1L56.4,50.9L55.5,49.7L54.6,48.1Z M62.5,34.8L62.4,35.3L59.0,38.5L56.5,41.1L53.6,43.8L52.4,44.6L33.4,44.7L33.0,44.6L32.9,44.3L33.2,44.1L33.4,44.1L36.3,43.0L37.3,42.7L38.5,42.3L38.8,42.3L39.5,41.9L41.3,41.4L42.1,41.1L42.4,41.1L43.5,40.6L43.8,40.6L45.0,40.1L45.8,40.0L47.5,39.3L49.3,38.9L52.2,37.8L54.2,37.2L54.5,37.0L55.4,36.9L56.5,36.4L57.5,36.2L58.7,35.7L60.5,35.3L61.9,34.7Z M64.5,25.4L64.6,25.2L65.1,24.8L66.1,24.8L68.0,25.1L75.0,25.7L75.6,26.0L75.6,26.2L75.3,26.4L72.5,26.5L71.7,26.7L70.8,26.7L69.6,27.0L68.5,27.0L67.5,27.2L66.1,27.2L65.1,27.3L64.8,27.3L64.5,26.8Z" fill="#000" fill-rule="evenodd"/>
</svg>