<svg xmlns="http://www.w3.org/2000/svg" viewBox="0 0 128 128" width="128" height="128">
  <path d="M37.3,118.7L37.0,119.1L37.0,119.3L37.1,119.5L37.9,119.5L38.1,119.6L38.1,120.2L38.3,120.2L38.3,118.6L37.6,118.6Z M32.7,119.1L32.7,120.2L33.4,120.2L33.2,120.0L33.1,119.4L33.4,119.0L33.8,118.9L34.3,118.9L34.8,119.3L34.8,119.8L34.5,120.2L35.2,120.2L35.2,119.4L35.0,118.9L34.4,118.4L33.3,118.4Z M31.6,118.8L31.3,118.4L30.7,118.2L29.9,118.3L29.4,118.5L29.1,119.1L29.0,120.2L31.1,120.2L30.7,120.1L30.1,120.1L29.4,119.6L29.4,119.5L30.0,118.8L30.3,118.7L30.9,118.9L31.4,119.4L31.7,119.3Z M63.6,9.1L62.6,9.3L59.4,9.4L57.8,9.7L56.0,9.9L55.7,10.1L55.0,10.1L54.2,10.5L51.8,10.9L50.7,11.4L50.4,11.4L48.8,11.8L47.4,12.6L46.4,12.9L43.7,14.3L43.2,14.7L42.6,14.9L41.0,15.8L40.5,16.4L37.9,18.3L37.6,18.9L35.8,20.5L34.7,22.1L33.5,23.5L33.3,24.2L32.7,24.8L32.7,25.1L31.8,26.5L30.8,28.6L30.6,29.7L30.1,30.4L29.8,31.7L29.6,32.2L29.6,32.6L29.1,34.6L28.7,37.0L28.6,38.4L28.7,42.7L28.8,43.1L29.0,44.8L29.7,47.9L30.4,50.1L30.6,50.4L30.6,50.7L31.3,52.3L31.7,52.8L32.2,54.0L34.0,56.9L35.9,59.2L37.8,61.2L40.8,63.6L43.6,65.4L47.3,67.1L49.1,67.8L49.3,67.9L50.1,68.1L50.7,68.4L51.7,68.5L52.3,68.8L54.3,69.2L56.3,69.4L57.0,69.6L58.4,69.7L65.4,69.7L66.9,69.5L68.0,69.1L69.0,69.1L73.3,67.8L73.8,67.5L75.1,67.1L75.6,66.8L76.8,66.4L77.2,66.1L80.0,64.6L82.9,62.4L84.6,60.8L86.5,58.6L87.3,57.5L87.4,57.2L88.4,55.8L90.1,52.3L91.0,48.8L91.4,46.8L91.5,45.3L91.7,44.7L91.6,39.9L91.2,38.3L91.1,37.3L90.4,35.3L90.4,35.0L90.1,34.2L89.6,32.7L89.0,31.2L88.6,30.7L88.3,29.8L87.8,29.4L87.5,28.8L86.9,28.1L86.8,27.8L86.1,26.8L83.4,23.8L81.2,22.1L79.2,20.9L78.9,20.5L76.8,19.5L76.0,19.3L75.3,18.8L74.5,18.6L73.9,18.2L71.0,17.4L70.2,17.1L69.2,17.0L67.2,16.5L66.3,16.5L64.8,16.3L59.2,16.5L58.2,16.6L57.5,16.9L55.5,17.1L53.3,17.7L49.7,19.2L48.3,20.1L47.5,20.4L46.8,21.0L45.8,21.5L45.2,22.1L44.6,22.3L42.4,24.3L40.5,26.6L38.7,29.5L37.6,32.0L37.5,32.7L37.2,33.3L36.7,35.0L36.3,38.0L36.3,41.2L36.6,43.9L37.1,46.3L37.7,47.8L38.0,48.8L39.4,51.5L41.3,54.3L43.1,56.1L45.5,58.1L48.3,59.9L51.4,61.3L53.4,62.0L54.6,62.2L54.8,62.4L59.2,63.1L62.9,63.0L64.4,62.8L66.5,62.1L68.3,61.2L69.1,60.6L71.2,58.8L72.1,57.6L73.1,56.0L73.4,54.9L73.9,53.9L74.0,52.8L74.3,52.3L74.4,50.2L74.1,47.7L73.7,46.0L72.8,44.2L71.7,42.9L71.3,42.2L71.1,41.8L70.7,41.3L70.1,41.0L69.4,40.5L68.8,40.2L68.2,39.6L67.6,39.3L66.6,38.6L65.0,38.6L63.9,38.2L62.1,38.3L61.4,38.6L61.1,38.6L59.4,39.1L58.2,39.8L57.1,40.9L56.3,41.3L55.5,42.2L53.8,45.4L53.3,47.8L53.3,49.9L53.4,50.8L54.0,52.8L54.8,54.1L55.6,55.1L56.0,55.4L56.0,55.6L57.4,56.7L57.9,57.0L58.2,57.2L58.2,57.5L58.0,57.6L57.3,57.6L53.3,56.6L52.8,56.2L50.9,55.4L48.1,53.7L45.7,51.7L43.9,49.6L43.3,48.6L41.9,45.6L41.5,43.9L41.4,42.9L41.2,42.2L41.0,41.0L40.6,40.2L40.9,38.2L41.5,36.2L41.7,34.9L42.4,33.0L43.0,32.0L43.4,31.1L44.4,29.6L45.5,28.3L47.1,26.8L49.4,25.2L50.8,24.5L51.4,24.1L53.9,23.0L56.9,22.1L57.8,22.0L58.9,21.7L61.8,21.5L64.0,21.5L67.8,21.9L68.6,22.2L70.8,22.6L72.5,23.3L73.0,23.4L76.0,24.8L78.9,26.7L81.5,29.1L81.5,29.3L83.2,31.2L84.5,33.3L85.2,35.0L85.7,36.3L85.9,37.5L86.2,38.0L86.7,40.7L86.8,44.6L86.5,46.8L86.0,48.2L85.8,49.4L85.5,50.4L84.8,51.5L84.7,52.1L83.8,53.8L81.9,56.0L81.9,56.3L81.3,56.6L79.1,59.0L78.7,59.2L78.3,59.6L76.9,60.2L76.3,60.7L74.9,61.5L73.0,62.2L71.7,62.4L70.7,63.1L70.0,63.2L69.4,63.4L68.0,63.5L66.1,64.2L62.7,64.2L62.0,64.5L57.8,64.6L56.3,64.2L54.3,64.1L53.5,63.7L49.8,62.8L48.6,62.1L47.2,61.6L45.4,60.6L44.9,60.2L44.2,59.9L43.4,59.2L42.5,58.8L40.8,57.1L40.3,56.8L39.1,55.6L37.6,53.7L37.5,53.3L36.9,52.6L36.4,51.6L36.1,51.2L35.1,49.1L34.9,48.2L34.7,48.1L33.7,44.4L33.3,40.9L33.4,37.7L33.7,36.6L34.1,34.0L35.1,31.0L36.0,28.9L38.2,25.5L40.5,22.9L42.2,21.2L43.5,20.3L45.2,19.3L48.2,17.7L50.4,17.0L50.9,16.6L52.9,16.2L54.0,15.7L54.9,15.6L55.6,15.3L56.9,15.2L58.0,14.9L59.3,14.9L60.9,14.7L62.6,14.6L66.5,14.9L68.1,14.9L72.5,15.8L76.3,17.0L77.8,17.8L79.3,18.3L82.5,20.1L82.9,20.6L83.8,20.9L87.1,24.0L89.1,26.4L90.8,28.9L92.7,32.5L94.0,36.6L94.3,38.3L94.3,39.0L94.6,40.4L94.6,45.8L94.0,48.4L94.0,48.9L93.7,49.6L93.7,50.5L93.2,51.6L92.9,52.7L92.7,53.1L92.4,54.3L91.6,55.4L91.1,56.5L90.4,57.5L90.2,57.9L89.1,59.6L87.3,61.5L86.8,62.2L86.1,62.7L84.8,64.1L83.9,64.5L82.5,65.8L81.9,65.9L80.8,66.8L79.9,67.1L79.0,67.7L77.5,68.1L76.3,68.8L75.0,69.2L72.8,69.6L72.0,70.1L71.4,70.2L70.1,70.3L69.4,70.5L68.6,70.5L67.8,70.9L66.1,71.0L65.0,71.4L63.4,71.6L62.3,72.0L60.2,74.0L59.8,74.8L59.2,76.4L59.2,78.6L59.5,79.6L59.9,80.7L60.2,81.2L61.1,81.9L61.3,82.3L61.3,82.7L60.6,83.5L59.9,83.6L59.6,83.9L59.1,84.1L58.3,84.6L56.8,86.3L56.3,86.6L55.5,87.8L54.6,89.5L54.3,90.6L54.0,91.4L53.7,94.7L53.7,97.3L53.1,99.9L52.7,100.7L51.7,102.2L48.4,105.2L48.1,105.7L48.1,112.4L48.4,113.0L49.2,113.9L53.1,116.4L55.6,117.6L55.9,117.6L56.0,117.7L59.3,118.7L60.2,118.8L61.5,119.1L63.6,119.2L68.0,119.0L71.7,118.2L73.3,117.6L76.7,116.0L78.9,114.6L80.6,113.1L80.9,112.3L81.0,107.2L80.8,105.7L80.1,104.8L78.9,103.9L77.3,102.4L77.2,102.2L76.4,101.4L75.5,99.8L75.1,98.7L75.0,97.5L74.7,96.1L74.8,93.7L74.7,92.1L74.3,90.7L73.4,88.6L72.8,87.4L71.1,85.6L70.9,85.5L69.8,84.5L69.1,84.2L68.2,83.5L67.5,83.2L67.1,82.9L67.2,82.4L68.2,81.1L68.9,79.6L69.1,78.8L69.0,76.5L69.4,76.0L69.7,75.8L71.0,75.5L72.0,75.4L73.6,74.9L74.7,74.7L76.2,74.1L78.4,73.4L79.8,72.7L81.9,71.9L84.4,70.5L86.0,69.4L88.1,67.8L91.1,65.0L93.3,62.2L93.9,61.2L94.3,60.7L95.0,59.8L96.2,57.6L96.7,56.2L97.0,55.7L98.4,51.8L98.9,49.7L99.4,46.3L99.6,43.7L99.6,41.2L99.4,39.5L99.2,38.6L99.2,37.6L98.5,34.5L98.1,33.5L97.9,32.1L97.6,31.7L97.5,31.1L96.4,29.0L96.0,27.8L95.3,26.8L94.6,25.2L94.1,24.5L93.5,23.9L92.1,22.1L90.8,20.8L90.4,19.9L89.0,18.6L87.7,17.9L87.4,17.9L86.9,17.5L86.6,16.9L86.1,16.6L85.5,15.9L84.8,15.3L83.8,14.9L83.1,14.3L82.2,14.0L81.7,13.5L80.3,13.0L79.2,12.5L78.3,12.3L74.0,10.7L72.5,10.5L71.4,10.1L70.3,9.9L69.7,9.6L67.8,9.7L66.2,9.3Z M61.9,104.3L61.9,104.6L60.9,105.5L60.2,106.5L59.8,107.4L59.6,108.3L59.6,109.9L60.0,111.1L60.6,112.1L62.0,113.4L62.0,113.7L61.8,114.0L60.6,113.9L56.9,112.8L56.0,112.3L55.6,112.2L54.8,111.6L54.1,111.4L53.9,111.1L53.2,110.8L52.9,110.4L52.3,110.1L51.4,109.3L51.5,108.7L52.7,107.6L53.4,107.2L54.3,106.5L54.7,106.3L55.0,106.1L56.0,105.5L57.9,104.8L59.5,104.3L60.4,104.2L60.8,104.1L61.6,104.1Z M67.0,104.2L67.1,104.1L67.6,104.0L69.3,104.3L72.3,105.3L74.0,106.1L76.6,107.8L77.4,108.7L77.5,109.3L76.7,110.1L75.8,110.8L74.3,111.6L74.0,111.8L72.7,112.4L72.3,112.7L70.3,113.5L68.8,113.7L68.0,114.0L67.4,114.0L67.1,113.8L67.1,113.4L68.5,111.9L69.1,110.9L69.3,108.9L69.1,107.8L68.9,107.2L68.1,105.8L67.0,104.6Z" fill="#000" fill-rule="evenodd"/>
</svg>