<svg xmlns="http://www.w3.org/2000/svg" viewBox="0 0 128 128" width="128" height="128">
  <path d="M9.6,88.2L10.3,91.4L10.7,92.6L11.8,94.9L13.3,97.1L15.2,99.1L17.4,100.8L21.0,102.5L24.0,103.5L24.9,103.6L25.6,103.8L28.9,104.3L33.2,104.5L37.3,104.5L41.7,104.3L49.0,103.3L49.5,103.1L51.3,102.8L52.6,102.4L54.1,102.3L54.9,102.0L57.4,101.5L59.5,100.8L60.5,100.6L61.3,100.3L62.2,100.1L62.4,100.0L62.7,100.0L63.9,99.5L64.8,99.3L66.3,98.8L66.7,98.6L68.7,98.0L69.5,97.6L72.8,96.6L73.0,96.5L73.9,96.2L75.5,95.5L77.5,94.9L81.3,93.3L83.0,92.7L84.4,92.0L85.8,91.5L87.3,90.7L88.2,90.4L89.7,89.7L89.9,89.7L93.4,87.9L94.0,87.7L100.8,84.3L101.5,83.8L104.3,82.6L104.8,82.2L106.0,81.6L107.4,80.6L108.9,79.8L109.8,79.1L110.3,78.9L111.1,78.2L111.8,77.9L112.7,77.1L113.3,76.9L113.7,76.9L114.4,77.4L114.9,77.1L114.9,76.8L114.5,76.4L114.5,76.1L115.1,75.5L116.6,74.4L118.0,72.9L119.0,71.0L119.0,69.9L119.0,69.5L118.2,68.1L117.2,67.4L116.6,67.2L115.7,67.0L113.0,67.1L107.8,66.9L106.9,67.1L101.1,67.2L99.7,66.9L98.0,66.8L97.6,67.0L95.9,67.2L89.3,67.0L87.3,67.1L86.6,67.2L85.6,67.2L85.0,67.1L83.2,67.1L82.6,67.2L79.1,67.2L78.6,67.4L75.1,67.3L74.2,67.5L70.9,67.4L68.9,67.6L65.5,67.6L64.8,67.3L64.2,67.3L63.7,67.6L63.2,67.6L62.3,67.4L61.8,66.9L61.0,66.8L60.4,67.3L59.7,67.6L59.1,67.6L58.6,67.4L58.0,67.4L57.6,67.6L57.1,67.6L56.9,67.4L55.9,67.4L54.7,67.6L54.1,67.5L53.6,67.6L50.3,67.6L49.9,67.7L49.4,67.7L48.8,67.6L45.8,67.5L45.0,67.9L43.5,68.0L42.6,67.6L40.6,67.6L39.2,67.4L38.7,67.6L37.9,67.6L37.5,67.8L36.1,67.7L33.9,67.9L30.8,67.9L29.1,68.1L28.0,68.4L26.1,68.5L25.7,68.7L24.8,68.6L24.2,68.7L23.6,69.1L22.8,69.3L21.9,69.8L21.2,69.9L20.5,70.4L19.8,70.6L18.5,71.3L17.6,71.6L17.1,72.1L16.6,72.3L14.2,74.6L13.4,75.1L12.2,77.5L11.0,79.1L9.9,82.4L9.8,83.3L9.5,84.3Z M9.4,41.4L9.1,43.8L9.1,45.6L9.6,48.1L10.4,50.5L11.6,52.7L13.0,54.5L14.4,55.9L16.6,57.7L20.3,59.5L22.8,60.2L24.1,60.4L28.0,60.8L33.0,60.8L38.7,60.5L42.4,60.5L53.0,60.2L55.5,60.3L58.2,60.2L59.3,60.0L67.6,60.0L69.8,59.8L75.3,59.8L77.8,59.6L88.9,59.6L92.2,59.4L97.6,59.5L98.7,59.3L105.9,59.3L110.3,59.2L114.3,59.3L117.0,59.1L117.6,58.8L118.6,57.7L119.0,56.4L119.0,55.6L118.6,54.5L117.1,52.7L115.5,51.3L112.6,49.3L111.9,49.0L111.5,48.6L109.6,47.3L109.0,47.0L107.1,45.8L106.0,45.4L105.4,44.9L104.2,44.3L102.9,43.4L101.8,43.1L98.8,41.4L98.0,41.2L96.9,40.6L96.1,40.4L94.6,39.5L94.4,39.5L94.1,39.2L92.1,38.5L91.1,37.7L90.2,37.6L89.8,37.4L89.0,37.2L88.1,36.7L86.4,36.1L85.8,35.7L83.7,35.0L82.5,34.3L79.3,33.4L78.2,32.7L77.2,32.6L75.9,32.0L75.0,31.9L74.3,31.5L73.1,31.1L72.7,30.8L71.9,30.8L70.7,30.2L69.3,30.0L68.0,29.7L66.8,29.1L62.4,27.9L60.7,27.2L60.0,27.0L57.9,26.9L56.4,26.4L54.9,26.2L54.0,25.7L52.5,25.7L51.8,25.5L50.6,25.3L49.7,25.4L47.4,24.7L45.7,24.8L44.2,24.4L42.3,24.4L41.9,24.2L39.5,23.9L37.8,24.0L37.1,23.7L35.5,24.3L33.6,24.3L33.1,24.5L29.2,24.9L28.4,25.2L27.9,25.3L26.0,25.3L24.9,25.9L24.0,26.0L22.6,26.6L22.0,26.7L20.4,27.2L18.8,28.0L16.1,30.0L14.4,30.9L13.4,32.4L12.2,33.9L11.4,35.6L11.0,36.2L10.2,38.5Z" fill="#000" fill-rule="evenodd"/>
</svg>