<svg xmlns="http://www.w3.org/2000/svg" viewBox="0 0 128 128" width="128" height="128">
  <path d="M117.0,16.8L115.6,14.9L113.6,12.9L113.4,12.9L111.8,11.7L109.7,10.7L108.4,10.5L107.6,10.0L106.8,10.0L106.1,9.7L104.8,9.5L103.4,9.5L102.4,9.3L101.5,9.6L97.8,10.1L94.8,11.3L94.0,11.8L92.1,12.7L89.2,15.4L88.7,15.7L88.3,16.4L87.2,17.6L87.1,18.0L85.6,19.7L84.7,21.1L83.8,22.0L83.2,23.2L81.6,25.0L80.7,26.5L79.8,27.6L79.3,28.5L77.7,30.1L76.9,31.4L76.2,32.1L75.4,33.6L73.4,36.1L72.7,37.4L71.4,38.3L71.4,38.5L70.6,39.9L69.1,41.4L68.6,42.4L68.2,42.7L66.5,43.5L65.8,43.7L64.9,44.7L64.6,44.8L63.1,44.6L57.7,44.6L57.3,44.8L56.5,44.8L56.3,44.5L56.3,44.1L56.6,43.7L56.7,43.1L57.4,42.0L58.0,41.4L58.4,40.6L59.8,38.8L60.8,37.1L61.9,35.9L62.7,34.6L63.8,33.3L66.4,29.6L66.9,29.1L67.1,28.6L69.1,26.1L70.4,24.1L71.5,22.8L73.9,19.3L76.4,16.1L77.1,14.8L77.8,14.0L79.3,11.8L79.3,11.2L78.6,10.9L77.1,10.7L73.5,10.6L71.8,10.3L68.6,10.6L67.2,10.9L66.5,11.3L65.2,12.9L63.7,15.6L63.2,16.1L62.9,16.8L61.8,17.8L61.1,19.1L60.5,19.7L60.1,20.4L58.2,22.8L57.0,24.8L56.4,25.5L56.2,25.9L55.4,27.0L54.0,28.5L53.7,29.1L53.4,29.4L52.7,30.6L49.9,34.2L49.4,35.3L48.1,36.6L46.7,38.8L45.5,39.9L45.2,40.6L44.3,42.0L42.4,43.8L40.7,44.5L39.4,44.4L37.3,44.8L37.0,44.9L35.9,45.1L35.1,45.6L34.9,46.2L34.9,53.2L34.8,54.1L34.5,54.9L34.0,55.5L33.1,56.9L31.9,58.3L31.6,59.0L30.1,61.2L28.6,62.8L28.0,64.0L26.8,65.3L26.3,66.2L25.5,67.1L25.0,68.2L24.1,69.0L23.7,69.9L22.3,71.6L21.7,72.7L19.4,75.4L18.3,77.3L16.8,78.9L16.5,79.6L15.5,80.8L15.1,81.7L13.5,83.6L13.2,84.1L12.6,84.6L11.8,86.1L9.7,88.8L9.7,89.4L10.0,89.6L18.5,89.7L42.6,89.6L55.7,89.6L58.5,89.8L61.6,89.7L63.9,89.9L64.4,90.3L64.5,91.0L64.4,113.3L64.6,118.5L65.3,119.0L73.7,119.0L74.5,118.8L74.9,118.5L75.0,117.8L74.8,93.7L74.9,86.6L75.0,85.9L76.7,83.4L78.4,81.3L78.6,80.8L79.5,79.8L81.1,77.5L82.0,76.6L82.7,75.4L88.3,68.0L88.7,67.1L89.7,66.1L90.6,64.6L92.1,62.7L92.6,61.9L94.0,60.2L96.9,56.1L97.8,55.5L98.5,55.4L102.8,55.5L103.8,55.4L104.1,55.2L104.3,54.7L104.4,53.5L104.4,46.5L104.6,45.8L105.4,44.5L105.8,44.1L107.0,42.3L109.7,38.7L112.7,34.3L113.7,33.2L113.9,32.8L116.4,29.2L117.9,26.3L118.7,23.1L118.6,21.2L117.8,18.4Z M64.1,67.5L64.4,67.8L64.5,70.2L64.4,78.5L64.0,79.2L63.6,79.6L59.7,79.6L59.0,79.5L55.9,79.6L55.6,79.5L55.5,78.9L56.1,77.6L59.2,73.2L60.0,72.5L60.1,72.0L63.2,67.9L63.6,67.5Z M83.1,55.6L83.4,56.0L83.4,56.3L82.5,58.0L81.7,58.8L80.7,60.4L78.6,62.9L78.1,63.8L77.1,65.0L76.7,65.7L75.9,66.4L75.3,66.5L75.0,66.1L75.0,65.6L75.0,64.7L74.9,60.2L75.0,58.3L75.0,55.8L75.6,55.5L82.1,55.4Z M58.3,55.5L58.5,56.2L57.7,57.2L57.3,58.1L56.7,58.8L56.4,59.5L55.6,60.3L55.1,61.2L53.3,63.3L53.0,64.0L51.3,66.1L50.9,66.9L47.7,71.0L47.3,71.9L46.3,72.9L46.0,73.5L45.2,74.3L44.3,76.0L43.4,76.9L42.7,78.0L41.4,79.3L39.8,79.2L38.6,79.6L30.7,79.6L30.3,79.5L30.3,78.8L31.0,77.6L31.7,76.8L32.4,75.6L33.7,74.0L34.0,73.3L41.5,63.4L41.9,62.6L45.4,58.3L46.9,56.0L47.5,55.4L48.1,55.1L57.5,55.2L58.1,55.3Z M106.3,21.3L107.0,22.2L107.1,22.8L107.1,23.7L106.9,24.7L106.3,25.8L105.4,26.9L104.1,28.9L103.5,29.4L102.9,30.5L101.1,32.8L99.9,34.7L99.2,35.3L97.7,37.6L97.0,38.2L96.2,39.6L95.7,39.9L94.8,41.3L94.1,42.0L92.7,44.0L90.9,45.0L89.6,45.2L88.0,45.1L86.4,44.7L85.0,44.7L82.8,45.0L82.0,44.9L81.4,44.6L81.3,43.9L81.9,42.9L82.1,42.4L84.7,38.8L85.5,37.5L89.8,31.7L90.4,31.1L90.8,30.2L94.2,26.0L94.3,25.6L96.1,23.5L97.7,21.9L98.4,21.4L100.2,20.4L101.7,20.0L103.9,20.0L105.3,20.5Z" fill="#000" fill-rule="evenodd"/>
</svg>