<svg xmlns="http://www.w3.org/2000/svg" viewBox="0 0 128 128" width="128" height="128">
  <path d="M63.8,92.0L63.5,92.4L63.2,92.9L63.1,93.7L63.2,101.8L63.2,103.5L63.3,104.1L63.5,104.2L64.4,104.3L64.7,104.2L64.8,103.9L64.9,103.0L64.8,93.0L64.6,92.4L64.3,92.0Z M63.2,9.0L62.2,9.3L61.2,10.0L60.5,10.6L59.9,11.9L59.6,13.2L59.6,18.9L59.4,19.4L58.8,19.7L57.3,19.9L56.8,20.4L56.8,28.7L57.3,30.6L58.3,32.5L59.1,33.4L60.6,34.6L62.2,35.3L62.7,35.6L62.6,36.3L61.8,36.8L61.7,37.5L61.8,38.1L62.0,38.3L62.7,38.5L62.9,38.7L62.9,39.0L62.7,39.3L62.2,39.4L61.8,39.7L61.7,40.4L61.7,40.8L62.0,41.1L62.7,41.3L63.0,41.6L63.1,42.2L63.1,46.2L63.0,50.1L63.0,55.2L62.7,55.7L62.4,55.7L62.2,55.5L62.0,54.7L62.0,53.6L61.8,53.1L61.4,52.9L60.9,52.9L60.4,53.2L60.2,53.7L60.1,55.5L59.6,55.9L59.3,55.3L59.3,53.9L59.1,53.2L58.6,52.8L58.0,52.8L57.5,53.2L57.3,55.0L57.2,55.3L56.8,55.4L56.5,55.0L56.5,53.7L56.3,53.1L55.6,52.7L54.9,52.9L54.7,53.2L54.5,55.4L54.2,55.7L53.8,55.6L53.7,55.4L53.5,53.2L53.2,52.8L52.4,52.7L52.0,52.9L51.8,53.3L51.6,55.2L51.4,55.5L51.1,55.4L50.8,55.2L50.7,53.2L50.5,52.9L50.2,52.7L49.4,52.7L49.0,53.2L49.0,53.6L49.0,61.0L49.3,61.5L50.1,61.6L50.6,61.3L50.7,60.6L50.7,58.8L50.9,58.6L51.4,58.6L51.6,58.8L51.9,61.4L52.4,61.7L53.2,61.5L53.4,61.2L53.6,60.6L53.6,59.0L53.9,58.6L54.2,58.6L54.4,58.6L54.6,58.9L54.7,61.2L55.0,61.6L56.0,61.6L56.3,61.2L56.4,58.8L56.7,58.6L57.2,58.6L57.5,58.8L57.5,61.1L57.8,61.6L58.1,61.7L58.7,61.7L59.2,61.3L59.4,59.0L59.6,58.6L59.9,58.6L60.2,58.9L60.3,60.6L60.4,61.4L60.7,61.7L61.5,61.7L61.9,61.4L62.0,61.1L62.0,59.8L62.2,58.9L62.4,58.6L62.7,58.6L62.9,58.7L63.0,59.9L63.1,60.4L63.0,61.9L62.9,62.7L62.7,63.0L61.9,63.3L54.8,63.3L53.7,63.2L52.1,63.4L50.9,63.9L49.8,65.0L49.3,65.8L48.8,67.4L48.9,69.1L49.3,70.2L49.8,71.0L50.8,71.9L51.9,72.4L52.9,72.6L58.5,72.6L60.9,72.8L61.9,72.7L62.5,72.8L63.0,73.1L63.1,73.5L63.2,79.9L63.0,86.2L62.8,86.7L62.4,87.1L61.5,87.2L60.7,87.6L59.1,87.9L58.6,88.2L58.1,88.3L57.2,88.8L56.3,89.2L54.5,90.3L53.7,91.0L52.9,91.8L52.4,92.1L51.8,93.2L50.3,95.3L49.1,98.1L48.4,101.7L48.4,104.5L48.8,106.8L49.6,109.5L50.8,111.8L51.9,113.3L54.0,115.5L55.7,116.9L57.6,117.9L59.9,118.7L61.6,119.1L63.0,119.2L65.0,119.2L66.9,119.1L68.4,118.8L71.5,117.6L73.9,116.1L76.1,113.9L77.9,111.3L78.8,109.4L79.6,106.6L79.9,104.2L79.9,102.7L79.5,100.1L78.7,97.4L77.9,95.6L77.4,95.0L77.2,94.4L76.1,93.2L73.8,90.8L72.0,89.5L69.5,88.3L68.9,88.3L68.2,87.9L67.4,87.8L65.8,87.3L65.2,86.8L64.9,86.0L64.8,73.9L65.0,73.3L65.4,72.8L65.6,72.8L75.4,72.8L76.0,72.7L77.2,72.1L78.1,71.4L78.9,70.1L79.2,68.6L79.2,67.4L79.0,66.8L78.5,65.7L77.7,64.7L76.8,64.0L75.1,63.5L74.3,63.4L66.1,63.5L65.3,63.2L65.0,62.7L65.0,61.2L64.9,59.9L65.0,59.4L65.0,58.8L65.3,58.6L65.6,58.6L65.8,58.8L65.8,61.2L66.1,61.7L66.9,61.8L67.4,61.6L67.6,61.3L67.7,59.0L68.1,58.6L68.4,58.6L68.7,59.0L68.7,61.0L68.9,61.4L69.3,61.8L70.0,61.8L70.4,61.6L70.5,61.2L70.5,60.0L70.7,59.0L70.9,58.7L71.2,58.7L71.5,58.9L71.6,59.4L71.7,61.4L71.8,61.7L72.1,61.9L72.7,61.9L73.2,61.7L73.3,61.4L73.4,59.1L73.6,58.8L74.1,58.7L74.3,59.1L74.5,61.5L74.9,61.9L75.4,61.9L75.7,61.9L76.2,61.4L76.3,59.1L76.6,58.7L76.9,58.7L77.2,59.2L77.2,60.8L77.4,61.7L77.7,61.9L78.5,61.9L79.0,61.4L79.0,60.8L79.0,53.7L78.9,53.4L78.4,53.0L77.5,53.1L77.2,53.5L77.2,54.7L76.9,55.8L76.6,55.9L76.4,55.7L76.3,55.2L76.2,53.6L75.6,53.0L74.8,53.0L74.3,53.5L74.3,55.7L74.1,55.9L73.8,55.9L73.5,55.7L73.3,55.0L73.4,53.9L73.3,53.4L72.8,52.9L72.2,52.9L71.7,53.2L71.5,53.7L71.5,55.5L71.4,55.7L71.0,55.8L70.6,55.3L70.6,54.2L70.4,53.2L69.9,52.9L69.3,52.9L68.7,53.3L68.6,55.7L68.4,55.9L68.1,55.9L67.9,55.6L67.9,54.9L67.6,53.2L67.2,52.9L66.5,52.9L66.1,53.0L65.9,53.3L65.8,55.5L65.5,55.8L65.0,55.6L65.0,54.2L64.8,51.8L64.9,48.4L64.8,46.1L64.8,41.8L65.2,41.4L65.9,41.1L66.1,40.8L66.1,39.9L65.8,39.6L65.3,39.5L65.0,39.0L65.0,38.8L65.2,38.6L65.7,38.4L66.1,37.9L66.1,37.0L65.3,36.5L65.2,36.2L65.2,35.6L65.7,35.3L66.6,35.0L67.6,34.5L68.7,33.7L69.9,32.5L70.6,31.0L70.9,30.1L71.1,28.7L71.1,20.9L71.0,20.5L70.7,20.2L69.7,20.0L68.9,19.6L68.4,19.1L68.2,18.1L68.1,13.2L68.0,12.3L67.6,11.2L66.8,10.3L65.5,9.4L64.3,9.0Z M62.5,89.3L62.7,89.3L63.0,89.6L63.2,90.8L63.6,91.3L64.4,91.2L64.7,90.9L64.9,89.7L65.3,89.3L65.8,89.4L66.0,89.7L66.0,91.3L66.5,91.6L67.1,91.6L67.4,91.5L67.9,90.1L68.0,90.0L68.5,90.0L68.6,90.1L68.6,91.3L68.5,92.1L68.9,92.5L69.3,92.6L69.8,92.5L70.5,91.6L71.0,91.3L71.3,91.3L71.5,91.5L71.5,92.1L70.9,93.2L71.0,93.8L71.5,94.1L72.0,94.1L73.1,93.2L73.3,93.2L73.7,93.5L73.7,93.8L73.0,94.7L72.9,95.5L73.0,95.7L73.5,96.1L74.1,96.0L74.9,95.6L75.3,95.6L75.6,95.8L75.6,96.1L75.4,96.5L75.0,96.8L74.5,97.3L74.6,98.0L75.0,98.4L75.6,98.4L76.0,98.3L76.7,98.3L76.8,98.7L75.6,99.7L75.5,100.0L75.6,100.6L75.9,100.9L76.1,101.1L77.3,101.1L77.6,101.3L77.6,101.5L77.3,101.9L76.4,102.2L76.0,102.6L76.0,103.3L76.1,103.6L76.6,103.9L77.4,104.0L77.7,104.3L77.6,104.7L77.3,104.8L76.6,104.8L76.2,105.0L75.9,105.3L75.8,106.1L75.9,106.3L77.1,106.9L77.3,107.1L77.3,107.3L77.0,107.6L75.7,107.6L75.1,108.0L75.1,109.0L75.6,109.4L76.1,109.6L76.1,109.9L75.9,110.2L74.3,110.0L74.0,110.3L73.8,110.7L73.7,111.1L74.2,112.0L74.1,112.3L73.7,112.3L73.3,112.0L72.7,112.0L72.2,112.3L72.0,112.6L71.9,113.1L72.6,114.3L72.6,114.6L72.5,114.8L72.1,114.8L71.1,113.8L70.7,113.7L70.3,113.8L70.0,114.0L69.8,114.4L70.0,115.3L69.9,116.1L69.7,116.2L69.4,116.1L68.9,115.5L68.7,115.1L68.4,115.0L67.8,115.0L67.4,115.2L67.3,115.6L67.4,116.9L67.1,117.2L66.7,117.1L66.3,116.6L66.2,115.9L65.9,115.6L65.5,115.4L65.1,115.5L64.8,115.7L64.6,116.1L64.6,117.2L64.5,117.5L64.2,117.7L64.0,117.7L63.6,117.4L63.4,115.9L63.1,115.6L62.2,115.6L61.9,115.9L61.7,116.8L61.4,117.1L60.9,117.1L60.6,116.7L60.7,115.3L60.4,114.8L59.5,114.8L58.4,116.1L58.1,116.1L57.9,115.9L57.8,115.6L58.2,114.8L58.2,114.1L57.8,113.6L57.2,113.5L56.7,113.8L56.2,114.3L55.6,114.4L55.4,114.2L55.4,114.0L56.0,112.9L56.0,112.4L55.7,111.9L55.0,111.8L54.0,112.4L53.7,112.4L53.4,112.2L53.2,112.0L54.2,110.7L54.2,110.1L54.0,109.8L53.6,109.7L52.3,110.0L51.9,109.8L51.9,109.3L52.8,108.6L52.9,108.3L52.9,107.8L52.8,107.5L52.3,107.1L51.1,107.1L50.8,106.9L50.8,106.6L51.4,106.2L51.9,106.0L52.1,105.7L52.1,105.0L51.9,104.7L51.4,104.5L50.8,104.4L50.3,104.0L50.3,103.7L50.6,103.5L51.8,103.1L52.1,102.7L52.0,102.0L51.7,101.7L50.7,101.4L50.4,101.1L50.4,100.8L50.9,100.4L52.1,100.4L52.4,100.1L52.6,99.7L52.5,99.2L52.1,98.8L51.7,98.6L51.4,98.3L51.3,98.0L51.6,97.6L52.0,97.6L52.6,97.8L53.1,97.8L53.5,97.5L53.7,97.1L53.5,96.5L52.8,95.8L52.8,95.2L53.3,95.0L54.1,95.5L54.5,95.6L54.9,95.5L55.2,95.0L55.2,94.6L55.0,94.2L54.5,93.4L54.5,92.8L55.2,92.7L56.2,93.7L56.5,93.7L56.9,93.6L57.3,93.2L57.3,92.8L56.8,91.8L56.8,91.3L57.1,91.0L57.5,91.0L57.8,91.4L58.1,91.9L58.4,92.3L58.9,92.4L59.2,92.2L59.6,91.8L59.6,91.3L59.3,90.5L59.3,90.1L59.6,89.8L59.9,89.8L60.3,90.1L60.9,91.4L61.7,91.5L62.2,91.1L62.2,89.6Z M64.9,66.1L65.3,65.5L66.1,65.3L74.3,65.4L75.4,65.5L76.3,66.1L77.2,67.1L77.4,67.9L77.4,68.7L77.0,69.6L76.4,70.3L75.6,70.7L74.6,71.0L73.6,70.8L70.1,70.8L69.6,71.0L68.4,71.0L65.6,71.0L65.3,70.6L65.2,70.2L65.0,69.8L64.8,68.4Z M50.7,67.1L51.4,65.9L52.4,65.3L53.0,65.2L60.7,65.2L62.5,65.4L63.0,65.7L63.1,66.1L63.0,69.8L62.7,70.5L62.4,70.7L61.4,70.8L58.9,70.9L57.6,70.7L53.7,70.7L52.9,70.6L51.7,70.2L51.0,69.4L50.6,68.4Z M58.9,21.9L59.3,21.8L59.6,22.0L59.6,28.1L59.8,29.2L60.0,29.8L60.5,30.7L61.5,31.8L62.5,32.3L63.5,32.5L64.7,32.5L66.1,32.0L66.7,31.6L67.4,31.0L67.9,30.2L68.4,28.1L68.3,22.6L68.4,22.3L68.7,22.1L69.0,22.1L69.4,22.6L69.4,28.7L69.1,30.2L68.4,31.3L67.4,32.5L66.8,32.9L65.6,33.4L64.0,33.6L63.1,33.3L62.3,33.3L61.7,33.1L60.6,32.4L59.8,31.5L59.3,30.8L58.9,30.0L58.5,28.1L58.6,22.4Z M63.2,10.6L64.4,10.6L65.5,11.1L66.1,11.9L66.5,12.5L66.7,13.2L66.6,18.2L66.8,19.1L66.8,28.4L66.6,29.2L66.1,29.9L65.5,30.5L64.5,31.0L63.4,30.9L62.2,30.3L61.4,29.4L61.1,28.1L61.1,13.1L61.2,12.2L61.6,11.6L62.2,11.1Z" fill="#000" fill-rule="evenodd"/>
</svg>