<svg xmlns="http://www.w3.org/2000/svg" viewBox="0 0 128 128" width="128" height="128">
  <path d="M38.8,116.4L38.6,116.5L38.8,116.9L40.1,117.0L40.4,117.3L40.4,117.9L39.8,119.0L39.8,119.4L39.4,120.0L39.4,120.2L40.0,120.2L40.5,119.1L40.7,118.5L41.1,117.9L41.3,117.2L41.3,116.7L40.8,116.4Z M35.4,116.4L35.1,116.7L34.8,117.6L35.0,118.9L34.8,119.2L34.7,120.2L35.4,120.2L35.4,119.6L35.9,119.1L36.1,119.0L36.6,119.1L36.9,119.3L37.1,119.6L37.0,120.2L37.7,120.2L37.7,119.4L37.4,118.9L37.7,117.9L37.7,117.2L37.5,116.9L37.2,116.5L36.7,116.2L35.9,116.2Z M35.9,116.9L36.5,116.9L37.0,117.2L37.1,117.9L36.6,118.2L36.1,118.3L35.5,117.9L35.5,117.2Z M31.6,116.3L31.2,117.1L31.1,120.2L31.9,120.2L31.7,119.9L31.7,119.1L32.3,118.5L32.9,118.5L33.3,118.9L33.4,119.9L33.3,120.2L34.0,120.2L34.0,118.9L33.7,118.3L33.2,118.0L32.1,117.9L31.8,117.7L31.8,117.3L32.4,116.6L32.8,116.6L33.1,116.8L33.7,117.4L34.0,117.3L34.0,116.6L33.7,116.3L33.0,116.1L32.2,116.1Z M77.9,75.6L77.7,75.6L77.5,76.3L77.1,76.7L76.1,78.4L73.1,81.4L72.1,81.8L71.7,82.2L71.1,82.3L69.8,83.1L69.1,83.3L68.8,83.7L69.2,83.7L69.7,83.5L70.2,83.4L70.4,83.2L71.9,82.5L72.1,82.3L72.7,82.1L74.9,80.3L76.1,79.1L76.2,78.7L76.9,77.9L77.8,76.1Z M79.5,37.5L78.1,37.5L77.8,37.7L77.8,38.0L78.1,38.2L78.5,38.8L78.7,43.0L78.7,58.0L78.8,63.6L78.8,68.3L78.9,69.0L78.9,70.7L78.7,72.1L78.4,72.9L78.5,74.0L78.6,73.9L79.1,72.2L79.3,70.7L79.2,69.3L79.5,68.0L79.5,54.2L79.3,51.7L79.4,49.5L79.2,43.8L79.3,38.5L80.0,37.9L79.9,37.7Z M55.6,9.1L55.2,9.2L54.9,9.7L54.8,10.2L54.9,11.5L54.8,12.2L54.9,14.2L54.7,15.6L54.7,40.3L54.6,47.6L54.5,49.9L54.6,51.7L54.4,56.6L54.5,58.6L54.3,70.7L54.9,73.4L55.6,74.8L56.6,76.3L57.9,77.6L59.0,78.4L61.3,79.5L61.8,79.9L62.0,80.5L61.9,83.1L61.6,83.4L60.8,83.4L59.9,83.2L57.5,82.2L55.5,80.8L52.7,78.1L51.3,75.6L50.8,74.2L50.8,73.9L50.5,73.5L50.2,71.9L50.2,63.7L50.0,57.3L49.9,39.0L50.5,38.1L50.5,37.9L50.3,37.7L49.0,37.7L48.4,37.8L48.4,38.1L49.1,38.8L49.2,39.2L49.2,46.5L49.4,48.1L49.3,49.2L49.5,51.6L49.4,55.3L49.6,71.2L50.0,72.7L50.1,73.9L50.6,75.4L50.9,75.8L51.0,76.4L51.4,77.1L53.0,79.5L54.2,80.6L55.2,81.4L56.6,82.6L57.5,83.0L57.7,83.0L58.0,83.3L58.5,83.4L58.8,83.6L59.7,83.9L60.1,84.1L61.2,84.3L61.8,84.8L62.0,85.3L61.9,88.5L61.4,88.8L60.7,88.8L59.9,88.5L58.7,88.3L55.9,87.2L54.9,86.6L54.3,86.4L53.0,85.4L52.5,85.2L51.2,84.0L48.5,81.2L47.7,80.0L47.5,79.5L47.2,79.1L45.9,76.2L45.3,74.0L44.9,71.4L44.8,67.8L44.8,57.6L44.6,51.7L44.5,39.1L44.7,38.7L45.2,38.3L45.1,38.0L44.8,37.8L43.4,37.8L43.1,38.1L43.1,38.3L43.5,38.8L43.7,39.4L43.7,45.4L43.8,47.6L43.8,54.8L43.9,57.6L43.8,60.3L44.1,61.3L43.9,66.9L44.1,68.8L44.1,72.1L44.4,73.7L44.8,75.6L45.2,76.4L45.4,77.3L46.1,78.7L46.2,79.1L48.9,83.0L50.6,84.9L50.9,84.9L52.1,86.0L54.1,87.3L56.9,88.7L60.1,89.6L61.1,89.8L61.6,90.0L61.9,90.3L62.0,91.0L62.0,94.1L61.3,94.5L60.3,94.4L58.4,94.0L58.0,94.0L56.6,93.4L55.8,93.3L55.5,93.0L54.7,92.9L52.2,91.6L49.5,89.9L49.4,89.9L49.2,89.6L47.6,88.4L44.8,85.6L42.5,82.4L41.1,79.5L39.9,76.2L39.5,75.7L39.6,74.3L39.4,73.5L39.1,71.1L38.9,52.2L38.8,50.8L38.7,47.7L38.8,44.6L38.6,43.5L38.7,39.1L38.8,38.8L39.1,38.5L39.2,38.1L39.1,37.9L38.8,37.7L37.4,37.7L36.9,38.0L36.8,38.4L37.2,38.6L37.5,39.0L37.6,40.5L37.6,48.4L37.7,50.8L37.7,53.2L37.7,56.0L37.9,56.8L37.9,63.0L38.1,70.8L38.4,74.1L39.3,77.8L41.1,81.8L41.4,82.2L41.8,83.2L43.7,85.9L45.0,87.3L45.1,87.6L46.8,89.2L48.7,90.6L49.2,91.2L50.4,91.8L51.5,92.6L55.2,94.3L59.3,95.4L61.0,95.6L61.8,96.0L62.0,96.2L62.0,97.7L62.2,98.6L62.0,100.0L61.6,100.3L61.3,100.4L60.1,100.4L55.7,99.3L54.9,99.0L52.9,98.4L52.4,98.1L51.1,97.7L46.9,95.4L46.5,95.0L45.8,94.6L45.1,94.0L44.3,93.4L42.6,91.9L40.5,89.8L37.7,86.1L36.3,83.5L36.2,83.1L35.9,82.6L35.8,82.2L35.0,80.6L34.0,77.1L33.5,74.8L33.5,73.9L33.3,72.4L33.0,63.3L33.0,56.3L32.9,53.6L32.9,47.4L32.7,46.7L32.8,43.2L32.7,39.0L33.1,38.4L33.0,38.1L32.4,37.8L31.0,37.9L30.7,38.1L30.7,38.6L31.0,38.8L31.5,39.9L31.5,40.4L31.3,41.0L31.3,42.5L31.4,43.1L31.3,44.1L31.5,47.5L31.5,53.7L31.7,62.6L31.7,65.1L31.9,66.0L31.8,67.4L32.0,73.6L32.5,76.7L32.8,77.3L33.3,79.7L34.3,82.5L34.8,83.6L35.2,84.2L35.7,85.2L35.9,85.4L37.1,87.7L38.4,89.3L39.4,90.7L42.2,93.6L43.4,94.6L46.3,96.7L47.5,97.3L48.4,98.0L49.2,98.3L50.4,99.0L50.9,99.0L52.4,99.8L52.9,99.9L53.9,100.3L54.6,100.4L55.2,100.7L57.8,101.4L61.2,101.8L61.6,102.0L62.0,102.4L62.2,102.7L62.2,107.1L61.8,107.7L60.5,108.5L59.5,109.8L58.7,111.5L58.6,112.1L58.6,113.8L59.1,115.8L59.6,116.8L60.4,117.6L61.1,118.2L62.5,118.9L64.8,119.2L66.1,118.9L67.0,118.6L68.4,117.8L69.9,116.2L70.5,114.4L70.7,113.5L70.7,112.5L70.5,111.6L69.7,109.9L69.3,109.2L67.4,107.4L67.1,107.0L67.0,103.8L66.9,102.9L67.0,102.2L67.4,101.9L67.9,101.7L69.0,101.6L70.7,101.2L71.7,101.1L75.0,100.2L75.7,99.8L76.2,99.7L78.8,98.6L79.4,98.2L80.8,97.6L83.5,95.8L85.5,94.3L87.6,92.4L89.1,90.6L89.8,89.9L91.1,88.1L91.8,87.3L92.2,86.5L93.0,85.3L93.5,84.2L93.9,83.6L95.7,78.4L95.9,77.4L96.3,75.9L96.7,74.0L96.7,72.1L96.9,71.3L96.9,43.1L97.0,41.6L96.9,38.7L97.5,38.0L97.6,37.7L97.0,37.4L96.0,37.4L95.2,37.7L95.6,38.7L95.6,39.4L95.6,42.6L95.8,44.8L95.6,47.4L95.6,71.3L95.5,72.1L95.3,74.6L95.0,75.8L94.9,77.1L94.6,77.7L94.6,78.1L94.1,79.3L94.0,80.0L93.8,80.3L93.6,80.9L92.8,82.9L91.3,85.8L89.9,87.8L88.7,89.4L85.9,92.3L82.7,95.0L81.5,95.6L80.8,96.2L79.8,96.6L78.9,97.2L78.5,97.3L77.1,98.0L75.6,98.5L75.1,98.8L74.5,98.9L73.7,99.3L70.7,100.1L69.9,100.1L68.7,100.4L67.5,100.3L67.0,99.8L66.9,98.7L66.9,96.2L67.3,95.7L72.0,94.7L72.8,94.3L73.4,94.2L73.8,94.0L74.8,93.6L77.5,92.3L81.0,89.9L83.6,87.5L85.9,84.9L87.8,81.7L88.4,80.4L88.8,79.2L89.1,78.8L89.6,76.9L89.9,75.9L90.4,73.4L90.5,71.7L90.7,70.9L90.7,38.9L91.2,38.0L91.1,37.6L90.9,37.5L89.5,37.4L89.1,37.6L89.1,38.1L89.4,38.3L89.6,38.9L89.6,42.8L89.7,45.9L89.6,47.2L89.7,56.3L89.6,63.3L89.8,65.7L89.8,69.8L89.7,71.1L89.6,71.7L89.6,72.7L89.4,73.1L89.3,74.2L89.0,75.3L88.9,76.3L88.7,76.8L88.7,77.1L88.4,77.8L88.0,79.1L87.8,79.4L87.6,79.9L87.3,80.3L87.2,80.7L86.9,81.2L86.7,81.8L86.4,82.1L86.3,82.5L85.5,83.8L84.6,84.6L83.6,86.1L82.5,87.3L80.3,89.3L77.1,91.5L76.7,91.6L76.2,91.9L75.6,92.1L75.4,92.3L73.4,93.2L70.4,94.1L69.6,94.2L68.5,94.5L67.5,94.6L67.0,94.2L66.9,93.9L66.8,90.8L67.0,90.2L67.5,89.8L68.9,89.6L70.0,89.2L70.4,89.2L71.2,88.8L71.9,88.6L73.4,87.9L73.6,87.9L76.1,86.4L78.0,84.8L78.2,84.7L80.1,82.8L81.8,80.4L83.4,77.4L83.6,76.5L83.9,75.8L84.0,75.2L84.4,74.1L84.9,70.3L84.8,39.1L84.9,38.5L85.2,38.0L85.2,37.6L85.0,37.5L83.6,37.5L83.4,37.7L83.4,38.1L83.8,38.5L83.9,39.7L83.9,45.1L84.0,48.2L83.9,55.0L84.1,69.5L83.9,72.3L83.5,74.4L83.1,75.4L83.1,75.7L82.6,76.5L82.5,77.4L82.2,77.9L82.1,78.4L81.8,78.6L81.6,79.2L80.8,80.2L80.8,80.5L80.2,81.2L79.5,82.2L77.4,84.5L75.4,86.0L75.0,86.1L74.1,86.8L72.4,87.6L69.8,88.5L68.5,88.8L67.5,88.9L67.2,88.7L66.9,88.3L66.8,85.2L66.9,84.6L67.4,84.2L67.7,84.2L67.7,83.9L67.3,83.7L66.9,83.3L66.8,80.0L67.4,79.4L68.9,78.8L70.7,77.7L71.9,76.6L72.6,75.8L73.5,74.1L73.8,73.2L74.1,72.6L74.6,69.7L74.4,59.9L74.3,58.3L74.1,50.5L73.9,46.2L73.7,33.7L73.4,31.0L73.4,25.5L73.2,23.9L73.2,19.6L72.9,9.9L72.4,9.3L72.0,9.1L69.9,9.1L67.9,9.3L67.6,9.7L67.5,10.1L67.6,16.2L67.7,18.7L67.7,20.2L68.0,27.4L67.9,31.3L68.1,33.2L68.1,37.7L68.4,40.1L68.4,42.4L68.5,44.6L68.4,45.9L68.7,48.0L68.7,54.5L69.0,55.3L69.0,55.9L68.8,56.4L68.8,57.9L69.0,60.9L69.3,69.4L69.2,70.3L68.8,71.8L67.7,73.4L67.1,73.8L65.7,74.4L65.0,74.5L63.8,74.5L62.3,74.0L61.3,73.3L60.5,72.4L59.8,70.8L59.8,55.2L60.1,30.0L60.0,26.2L60.2,24.6L60.1,22.7L60.3,21.6L60.3,10.2L60.2,9.8L59.5,9.4L58.6,9.2Z M62.2,111.2L62.5,111.0L63.0,111.0L63.1,111.1L63.1,111.5L63.0,111.7L62.5,111.8L62.2,111.5Z" fill="#000" fill-rule="evenodd"/>
</svg>