<svg xmlns="http://www.w3.org/2000/svg" viewBox="0 0 128 128" width="128" height="128">
  <path d="M63.2,9.1L61.0,9.7L58.3,11.5L56.7,13.7L56.1,15.1L55.9,16.1L55.7,18.4L56.0,20.3L56.3,21.0L56.8,22.5L58.5,25.2L59.3,26.0L59.7,26.3L60.3,27.0L60.3,30.0L60.2,31.3L60.2,32.3L60.0,34.4L59.9,37.9L59.6,40.2L59.5,42.2L59.3,42.7L57.4,44.4L56.1,45.7L55.5,46.0L53.7,46.4L52.3,47.3L51.5,47.4L49.7,46.4L49.3,46.3L48.2,45.7L46.9,45.2L46.3,44.8L45.5,44.3L44.9,44.1L43.2,43.0L42.5,42.9L41.0,42.1L40.0,41.7L39.5,41.4L37.8,40.6L37.2,40.6L36.8,41.0L35.8,41.0L34.3,40.2L33.2,39.9L32.7,39.4L32.1,38.3L31.9,37.2L31.6,36.5L31.6,36.0L32.1,35.2L32.7,35.0L33.2,34.4L33.9,34.4L34.2,34.6L34.6,34.5L34.5,34.0L33.0,32.5L31.9,31.7L29.8,30.8L28.1,30.4L25.3,30.4L24.8,30.7L23.3,31.0L22.3,31.5L20.6,32.7L19.3,34.2L18.4,35.7L17.5,38.3L17.3,39.4L17.3,41.0L17.5,42.1L17.8,43.2L18.6,44.9L19.5,46.4L21.0,47.9L22.1,48.9L24.3,49.8L26.3,50.2L26.6,50.4L27.4,50.4L28.2,50.4L28.9,50.0L29.8,49.9L30.8,49.4L31.3,49.3L31.8,49.1L32.3,49.1L33.6,49.7L34.8,50.8L35.7,51.2L36.1,51.6L36.8,51.9L37.2,52.3L37.9,52.7L38.9,53.4L39.6,53.8L41.2,54.9L42.7,55.8L43.2,56.3L44.9,57.2L46.1,58.1L46.4,58.7L46.4,60.6L47.0,62.2L47.0,62.9L46.4,65.1L46.3,66.1L45.9,66.9L40.2,71.1L36.6,73.4L34.9,74.6L33.8,74.9L32.8,74.9L32.2,75.0L30.9,75.0L30.6,74.9L30.6,74.3L30.4,74.1L28.4,74.0L27.1,74.3L25.3,75.1L24.1,76.0L22.8,77.3L22.1,78.1L21.7,79.1L21.6,79.5L21.0,81.0L20.9,82.1L21.0,84.2L21.4,85.7L21.4,86.2L22.3,88.1L23.4,89.6L24.1,90.3L25.2,90.9L28.2,92.1L28.9,92.1L29.3,92.3L30.7,92.2L31.6,91.7L32.3,91.7L32.7,91.5L33.6,90.9L34.3,90.7L35.0,90.0L35.9,88.9L36.5,87.3L36.6,86.4L36.4,85.5L36.5,84.7L37.3,83.8L38.8,82.9L39.4,82.7L40.6,82.1L41.0,82.0L42.0,81.3L44.8,80.2L45.1,79.8L45.9,79.6L46.3,79.2L47.3,79.0L49.3,77.8L50.1,77.6L50.6,77.2L52.1,77.2L52.7,77.6L53.2,77.6L53.7,77.7L54.7,78.3L55.9,78.3L56.1,78.6L56.4,79.1L59.4,82.0L59.5,82.4L59.9,83.1L60.0,84.1L60.1,86.8L60.4,88.9L60.5,90.9L60.6,91.4L60.7,94.5L60.9,95.3L60.9,96.5L61.1,99.6L60.8,100.3L58.7,102.2L58.0,103.2L57.7,103.9L57.5,104.1L56.9,105.2L56.6,106.2L56.5,111.1L57.0,113.3L57.4,114.3L58.7,116.2L59.4,116.8L60.2,117.3L61.3,118.1L62.1,118.6L63.4,119.0L64.4,118.9L64.9,119.1L66.6,119.1L67.7,118.9L68.4,118.6L69.4,118.4L70.0,118.0L70.4,117.9L71.1,117.6L72.6,116.3L73.0,115.7L73.1,115.1L73.1,113.8L72.7,112.9L72.7,111.1L72.4,110.8L72.2,109.8L71.9,109.6L71.7,109.0L71.3,108.6L70.7,107.3L70.3,105.0L70.4,103.7L70.7,103.2L71.4,102.8L72.1,102.6L72.3,102.3L72.3,102.1L71.5,101.1L70.4,100.2L68.0,99.1L67.5,98.6L67.4,98.3L67.4,97.3L67.6,96.7L67.6,94.2L67.8,93.3L67.8,91.9L67.7,91.2L67.8,88.9L67.9,88.4L67.9,85.8L67.8,84.6L67.8,83.4L67.9,82.5L67.8,77.9L68.1,77.2L68.1,76.8L68.6,76.4L69.7,76.3L70.3,76.4L71.2,77.3L71.5,78.0L71.6,79.7L71.9,80.5L72.3,80.6L72.8,80.5L73.6,79.7L74.6,78.3L75.8,77.8L77.0,77.6L78.1,76.9L78.8,76.9L79.3,77.2L80.2,77.3L81.4,78.1L82.7,78.6L83.3,79.1L84.1,79.2L89.8,82.1L90.8,82.5L91.7,83.3L93.2,87.6L94.4,89.2L94.9,89.7L96.0,90.4L99.5,91.8L101.2,91.9L101.6,91.7L102.5,91.6L102.7,91.5L103.1,91.5L104.0,90.9L104.7,90.6L106.3,89.3L106.9,88.2L107.4,87.6L107.8,86.6L107.8,83.6L107.4,82.6L106.0,81.0L105.3,79.6L105.4,78.2L105.7,77.2L106.2,76.8L107.2,76.7L107.4,76.5L107.4,76.2L107.2,75.9L105.8,74.6L104.9,74.2L103.2,73.5L101.5,73.3L100.0,73.3L99.1,73.6L98.0,73.8L97.2,74.3L97.1,74.8L98.5,76.2L98.7,76.8L98.6,77.6L98.3,78.7L98.0,79.1L97.4,79.5L96.8,79.5L94.5,78.1L93.6,77.7L93.0,77.2L91.2,76.4L90.4,76.2L89.3,75.4L88.5,74.7L87.2,73.9L86.7,73.4L86.1,73.1L84.4,72.7L83.6,72.4L82.6,71.5L82.2,70.6L80.9,69.1L80.0,69.0L78.8,69.3L77.8,69.3L77.2,68.9L75.7,68.3L75.3,67.9L75.2,67.4L75.5,67.0L76.8,66.6L77.2,66.6L78.7,66.0L79.3,65.4L80.0,65.1L80.9,64.3L80.8,63.8L80.0,63.2L77.8,61.9L77.3,61.3L77.3,61.0L77.6,60.6L78.4,60.2L80.7,60.3L81.8,60.1L84.3,57.8L86.9,56.0L87.0,56.0L89.3,54.3L90.0,53.7L91.3,52.9L92.3,51.9L93.0,51.6L94.6,50.0L96.9,48.3L97.3,47.8L97.6,47.8L98.4,47.1L99.3,47.0L100.6,47.4L101.0,47.7L103.2,47.7L105.9,47.0L106.4,46.6L107.2,46.3L108.5,45.4L109.5,44.0L109.8,43.7L110.0,43.2L110.5,42.6L110.9,41.7L110.9,39.1L110.8,38.4L110.5,38.0L108.4,35.5L108.1,33.7L108.2,32.7L108.9,31.6L109.5,31.0L110.3,30.8L110.4,30.4L109.1,29.1L106.2,27.8L104.2,27.4L101.3,27.5L99.8,28.1L98.3,28.9L97.0,29.8L95.6,31.3L94.1,34.3L93.3,37.6L93.2,38.5L92.7,39.1L92.1,39.5L91.2,39.9L90.1,40.6L88.9,41.2L88.2,41.7L87.4,42.1L86.8,42.6L86.0,42.9L82.1,45.5L78.0,47.8L75.4,48.2L74.4,48.2L74.2,48.2L73.1,49.3L72.0,49.3L71.8,49.1L71.8,48.8L72.5,47.2L72.4,46.9L72.0,46.8L69.0,48.3L67.5,48.6L66.4,49.2L65.5,49.3L65.1,48.9L65.1,48.1L65.3,47.7L66.3,46.8L67.4,46.3L68.1,45.7L68.8,45.5L69.0,45.2L69.3,44.7L69.3,43.6L69.7,43.0L69.7,42.5L69.5,42.4L68.3,41.8L67.8,41.2L67.5,40.3L67.4,37.4L67.7,36.5L67.7,35.7L67.3,34.0L67.4,32.6L67.2,32.1L67.2,31.4L67.4,30.8L67.3,29.2L67.1,28.8L67.1,27.0L66.9,25.5L66.9,23.4L67.4,22.8L68.0,22.7L68.6,23.1L69.0,23.6L69.3,24.4L69.3,25.5L69.7,26.0L70.3,26.0L70.8,25.7L71.2,25.2L71.8,24.3L72.0,23.6L72.0,22.9L71.7,21.9L71.1,21.0L71.1,19.2L70.1,18.1L69.7,17.2L69.3,15.0L69.7,14.3L69.9,13.1L70.1,12.6L70.5,12.3L71.5,12.3L71.5,11.9L70.4,10.8L68.5,9.7L67.4,9.3L66.3,9.3L65.7,9.1Z M70.5,68.8L71.2,68.5L71.9,68.5L73.0,68.9L74.3,70.2L75.1,71.7L75.2,75.3L75.1,75.7L74.9,76.0L74.6,76.0L74.2,75.7L72.9,74.3L71.9,73.5L70.5,72.7L69.7,71.7L69.8,70.3L70.1,69.6L70.1,69.2Z M71.5,65.5L71.8,65.7L71.8,66.1L71.4,66.6L71.0,66.7L70.8,66.5L70.8,66.1L71.2,65.5Z M61.4,49.7L62.5,50.2L62.5,51.3L61.4,53.8L61.0,54.2L60.6,54.5L59.9,54.6L59.4,54.3L59.1,53.8L59.3,51.4L59.6,50.8L59.8,50.0L60.2,49.6Z M36.6,41.3L36.8,41.0L37.6,41.1L41.6,43.1L42.9,44.1L43.7,44.3L44.2,44.6L44.9,44.8L46.9,45.9L47.4,45.9L48.8,46.8L49.3,47.0L49.9,47.4L50.1,47.4L50.9,47.8L51.3,47.9L52.7,48.8L53.1,49.1L53.4,49.2L54.5,49.7L54.9,50.2L55.1,50.6L54.6,52.2L54.1,52.7L53.4,52.8L52.1,52.1L51.5,51.6L48.8,49.8L48.1,49.7L46.5,48.9L45.5,48.8L43.9,47.8L42.4,47.0L41.2,46.3L40.7,45.8L39.4,45.1L38.7,44.6L37.3,44.1L36.8,43.6L36.5,43.1L36.5,41.9Z" fill="#000" fill-rule="evenodd"/>
</svg>