<svg xmlns="http://www.w3.org/2000/svg" viewBox="0 0 128 128" width="128" height="128">
  <path d="M88.2,10.8L86.9,10.5L85.0,10.8L84.3,11.0L83.3,11.6L82.1,12.7L81.7,12.7L81.5,12.4L80.9,11.0L79.3,9.6L78.3,9.4L77.6,9.0L75.0,9.1L73.5,9.5L72.7,10.2L70.9,12.1L69.9,14.1L69.2,15.9L69.1,16.6L68.8,17.4L68.7,18.4L68.4,19.4L68.4,19.8L67.8,21.6L67.6,23.1L66.8,25.6L66.7,26.5L66.5,27.0L66.4,28.0L66.1,28.6L65.0,33.0L64.7,33.7L64.7,34.5L64.4,35.2L64.3,36.3L64.1,36.5L64.1,37.2L63.5,39.0L63.0,41.0L62.7,41.9L62.7,42.4L62.4,43.0L62.4,43.7L61.8,45.3L61.5,47.3L61.2,48.1L59.9,53.3L59.9,53.7L60.1,54.0L60.7,54.3L61.5,54.5L62.1,54.8L63.0,54.8L63.2,54.8L63.5,54.3L64.5,50.4L64.8,48.5L65.4,46.7L65.4,46.1L65.8,45.2L66.2,43.2L66.5,42.5L66.5,41.6L66.9,40.6L67.3,38.2L67.6,37.5L67.8,36.3L68.5,33.7L68.6,32.8L69.1,30.4L69.6,29.0L69.7,28.2L70.1,27.0L70.4,25.4L71.4,21.6L71.6,20.6L72.0,19.3L72.0,18.9L72.8,15.8L73.1,15.2L73.2,14.4L73.4,14.0L74.2,13.2L75.0,12.8L76.0,12.5L77.7,12.7L78.6,13.5L79.4,13.8L79.4,14.1L79.2,14.2L79.2,17.6L78.8,19.0L78.0,22.7L77.7,23.6L77.6,24.7L77.3,25.4L76.8,28.0L76.3,29.4L76.0,31.4L75.7,32.4L75.1,35.3L74.2,38.6L73.9,39.3L73.7,40.6L73.4,41.4L73.4,42.3L73.1,43.1L73.0,44.0L72.6,44.7L72.5,45.8L72.4,46.0L72.3,46.7L71.6,49.1L71.4,50.7L70.9,51.9L70.8,52.9L70.5,53.7L70.4,54.6L70.2,55.2L70.2,55.9L70.3,56.2L70.5,56.4L71.3,56.5L72.7,56.9L73.3,56.8L73.6,56.2L73.9,54.5L74.3,53.6L74.4,52.8L75.1,50.2L75.3,48.9L76.0,46.3L76.1,45.1L76.6,43.8L77.1,40.9L77.5,39.7L77.6,38.9L78.4,35.7L78.6,34.2L79.0,33.1L79.0,32.7L79.7,29.9L79.8,28.9L80.6,26.4L80.6,25.5L80.9,24.9L80.9,24.5L81.6,21.7L81.7,21.0L82.3,19.2L82.3,18.7L82.7,16.7L83.5,15.0L84.1,14.3L85.5,13.7L87.2,13.7L88.2,14.1L89.0,14.8L89.2,15.5L89.5,15.8L89.6,16.3L89.5,18.1L89.2,18.8L89.2,19.3L88.9,20.1L88.3,23.3L87.9,24.5L87.9,24.8L87.5,26.1L87.4,27.4L87.2,28.0L86.6,30.4L86.2,31.8L86.2,32.3L85.5,34.9L85.3,36.3L85.1,36.8L84.9,37.8L84.6,38.8L84.5,39.6L84.3,40.1L84.3,40.6L84.0,41.3L83.8,42.8L83.2,44.4L83.0,45.9L82.8,46.4L82.3,48.8L81.7,51.6L81.4,52.1L81.2,53.7L80.0,57.5L80.0,58.2L80.3,58.6L80.7,58.8L81.7,59.1L82.5,59.4L82.6,59.6L82.5,59.7L81.5,60.1L80.6,60.3L79.0,60.7L77.7,61.2L75.1,61.8L74.2,62.2L73.1,62.3L71.4,63.0L70.2,63.1L67.0,64.2L66.2,64.3L65.5,64.6L61.3,65.6L60.6,66.0L59.0,66.0L57.9,65.6L56.9,65.4L55.1,64.8L54.1,64.6L53.2,64.3L51.5,63.8L50.9,63.5L49.7,63.4L48.9,63.0L47.0,62.6L45.1,61.9L44.6,61.9L43.4,61.4L42.4,61.3L39.1,60.3L38.4,60.2L37.3,59.8L36.6,59.7L36.0,59.4L35.5,59.4L35.2,59.7L35.3,62.8L35.6,65.4L35.6,67.6L35.8,70.3L36.1,79.1L36.2,80.1L36.2,83.3L36.5,84.5L36.5,88.2L36.7,89.2L36.7,92.3L36.9,93.0L36.8,94.3L37.0,94.7L37.0,95.7L37.0,98.3L37.3,99.4L37.3,102.1L37.6,105.7L37.6,108.2L38.0,109.9L38.3,110.4L38.8,110.9L39.7,111.2L40.3,110.8L40.8,109.3L40.8,107.1L41.0,106.5L41.1,103.9L41.2,102.8L41.2,100.6L41.4,99.7L41.5,94.0L41.7,92.9L41.7,90.5L41.8,89.9L41.9,88.0L41.9,85.9L42.0,85.4L42.0,83.3L42.2,81.2L42.2,79.6L42.4,78.3L42.4,76.0L42.7,73.2L43.1,72.9L44.6,73.1L46.2,73.7L48.3,74.2L49.3,74.7L50.6,75.0L51.5,75.3L52.8,75.5L53.2,75.8L54.9,76.4L55.6,77.2L55.8,83.0L56.1,85.3L56.2,88.6L56.4,89.3L56.7,96.4L56.9,97.2L56.9,100.3L57.1,100.9L57.1,102.1L57.3,104.1L57.3,105.7L57.5,109.0L57.7,109.9L57.7,111.1L58.1,117.3L58.4,118.2L58.7,118.8L59.0,119.1L59.4,119.2L59.9,119.1L60.4,118.7L60.7,117.9L61.2,115.7L61.3,112.3L61.5,111.0L61.6,107.3L61.8,105.8L61.8,103.1L62.2,98.3L62.2,96.7L62.4,95.7L62.7,87.4L62.8,86.5L62.9,83.8L63.0,83.0L63.0,81.8L63.1,81.0L63.1,79.3L63.6,77.1L63.9,76.6L64.6,76.1L65.9,75.8L66.5,75.5L67.9,75.2L68.4,74.9L69.3,74.5L71.7,73.9L73.4,73.2L74.7,73.0L75.8,72.6L76.4,72.7L76.6,73.2L76.8,75.5L76.7,76.1L76.9,77.8L76.9,79.6L77.1,80.3L77.1,82.0L77.2,82.7L77.2,85.3L77.4,87.6L77.5,90.8L77.7,91.7L77.7,94.0L77.9,95.8L77.8,96.8L78.0,97.3L78.0,99.1L78.1,99.8L78.1,101.5L78.3,102.4L78.3,104.1L78.4,104.9L78.6,108.0L78.9,109.8L79.1,110.1L79.9,110.7L80.6,110.6L81.0,110.1L81.4,109.3L81.5,108.3L81.9,106.5L81.9,104.6L82.0,103.8L82.3,95.1L82.5,93.1L82.6,86.7L82.9,84.5L83.0,79.7L83.2,78.8L83.3,71.5L83.5,69.0L83.6,68.3L83.6,64.3L83.8,63.1L83.8,59.1L84.2,58.3L84.3,57.0L84.6,56.4L84.9,54.6L85.2,53.9L85.6,52.1L86.1,49.6L86.6,48.1L86.7,46.8L87.2,45.4L87.2,44.6L87.5,44.1L87.6,42.8L88.7,38.5L88.7,38.0L89.1,36.3L89.3,34.8L90.1,31.7L90.5,29.6L91.1,27.4L91.4,25.5L91.7,24.7L91.7,24.1L92.0,23.1L92.3,21.1L92.9,19.0L93.0,17.6L93.0,16.3L92.0,13.7L91.4,12.9L90.4,11.9L89.2,11.2Z" fill="#000" fill-rule="evenodd"/>
</svg>