<svg xmlns="http://www.w3.org/2000/svg" viewBox="0 0 128 128" width="128" height="128">
  <path d="M62.0,9.2L61.3,9.5L60.7,10.0L60.2,11.2L60.2,12.2L61.1,13.5L61.1,14.3L60.9,14.8L60.2,15.8L59.9,18.0L59.4,18.5L58.7,18.5L58.1,18.0L58.0,17.4L58.0,16.4L57.8,15.8L57.4,15.4L56.7,15.2L55.7,15.2L55.1,15.4L54.9,15.6L54.6,16.2L54.5,17.9L53.7,18.6L52.9,18.6L52.2,17.9L52.0,17.3L52.0,15.6L51.3,15.2L49.8,15.0L48.9,15.3L48.5,16.0L48.5,22.9L49.0,23.5L49.6,23.6L53.1,22.0L54.0,22.1L54.4,22.7L54.2,23.3L53.6,24.0L49.3,26.1L49.0,26.5L49.0,26.8L49.4,27.3L50.2,27.8L51.3,28.3L51.6,28.3L53.8,29.4L54.4,29.9L54.6,30.3L54.6,31.0L54.1,31.5L53.2,31.4L51.5,30.6L50.2,30.1L49.3,30.1L48.8,30.5L48.6,31.3L48.8,37.0L49.1,37.5L49.5,37.8L50.4,37.9L51.6,37.6L52.0,37.3L52.2,36.9L52.4,34.9L52.9,34.4L53.6,34.2L54.2,34.4L54.8,35.1L54.9,36.9L55.1,37.3L55.9,37.7L57.3,37.7L57.9,37.5L58.1,37.1L58.4,35.4L58.6,34.8L58.9,34.5L59.6,34.6L60.2,35.5L60.4,40.0L60.5,40.8L60.4,43.8L60.5,45.9L60.3,46.9L60.4,48.0L60.1,48.3L59.7,48.4L59.3,48.2L58.5,47.5L57.1,46.5L54.6,44.1L53.9,43.7L51.4,41.1L50.1,40.1L49.0,38.9L48.0,38.1L47.2,37.1L45.1,35.4L44.6,35.1L42.8,33.2L42.2,32.9L37.6,28.3L36.8,28.0L35.9,28.0L35.3,27.7L34.7,27.1L34.7,25.8L33.9,24.9L33.0,24.5L32.2,24.5L31.2,24.9L30.1,26.2L30.0,28.0L30.4,28.9L31.0,29.5L32.3,29.8L33.1,30.4L33.5,31.9L35.3,33.8L35.3,34.5L34.8,35.0L34.0,35.0L32.1,33.7L31.4,33.7L30.3,34.9L30.0,35.4L29.9,35.9L30.1,36.3L31.5,37.9L31.7,38.3L31.6,38.8L30.8,39.6L30.0,39.6L29.4,39.3L28.5,38.4L28.2,38.2L27.7,38.2L27.4,38.4L26.4,39.5L25.9,40.2L26.0,40.7L26.8,41.7L28.0,42.6L30.5,45.1L30.9,45.3L31.4,45.3L31.8,45.0L32.5,42.4L33.0,41.1L33.7,40.5L34.0,40.5L34.6,40.7L35.2,41.5L35.2,42.0L34.7,43.2L34.7,43.8L34.1,45.8L33.7,47.0L33.8,47.7L34.6,47.8L35.5,47.3L37.1,47.0L37.8,46.6L39.2,46.2L39.8,46.2L40.6,46.5L41.0,46.9L41.0,47.3L40.6,47.6L39.1,48.2L38.5,48.7L37.5,48.9L36.4,49.5L36.2,50.1L37.1,51.2L37.4,51.4L39.8,53.7L41.0,54.5L42.0,54.5L42.9,53.7L43.2,53.0L43.0,52.0L42.2,51.0L41.7,50.2L41.7,49.7L42.3,49.0L43.0,48.9L43.7,49.3L45.0,50.3L45.8,50.2L46.7,49.3L47.1,48.6L47.2,48.1L47.0,47.6L45.9,46.3L45.7,45.8L45.8,45.1L46.1,44.8L46.7,44.7L47.3,45.0L48.3,46.1L50.6,48.0L52.5,49.8L53.8,50.8L55.2,52.3L56.7,53.6L58.7,55.8L58.7,56.3L58.6,56.6L57.6,57.6L57.2,57.8L55.4,59.7L47.6,66.9L47.2,67.1L46.7,67.1L46.0,66.8L45.0,66.1L44.0,66.2L43.6,66.5L43.4,67.2L43.5,68.0L44.1,69.2L44.1,69.7L43.6,70.3L43.2,70.4L42.7,70.3L42.2,69.9L40.9,68.6L40.5,68.4L39.4,68.5L38.8,69.3L38.6,70.2L38.4,70.4L37.7,70.4L35.8,69.5L34.8,69.3L33.4,68.5L31.7,68.3L30.7,68.3L28.9,68.5L27.2,69.0L25.2,70.2L23.8,71.2L22.0,73.1L20.8,74.9L19.8,77.8L19.5,79.6L19.3,82.4L19.5,85.8L20.4,89.0L20.9,90.4L21.2,90.7L21.2,91.6L20.8,91.9L19.8,92.2L18.5,92.8L17.9,93.4L17.6,94.0L17.2,95.1L17.1,96.2L17.8,97.6L19.2,99.0L20.2,99.3L20.9,99.3L22.1,99.0L23.1,98.4L23.8,97.5L24.4,96.1L24.8,95.7L25.4,95.7L26.9,96.6L27.6,96.8L28.3,97.2L28.9,97.3L31.4,98.2L33.3,98.4L34.5,98.7L36.7,98.7L39.7,97.7L40.7,97.2L41.0,96.8L41.6,96.7L44.3,94.8L44.7,94.2L46.3,92.4L47.5,90.0L47.9,88.3L47.9,86.4L47.3,82.8L47.1,82.3L46.9,81.4L46.4,80.6L46.0,79.6L46.0,79.2L46.4,78.9L47.7,78.5L48.0,78.0L48.0,77.0L47.1,75.4L47.1,74.5L47.6,74.1L48.1,74.1L49.8,75.1L50.6,75.2L51.0,75.0L51.3,74.6L51.3,73.7L50.6,72.2L50.6,71.4L51.0,70.8L52.1,69.7L53.3,68.4L55.7,66.4L57.0,65.0L58.0,64.3L58.9,63.4L59.5,63.0L60.3,63.0L60.6,63.4L60.7,63.7L60.8,69.4L61.0,70.2L60.9,74.2L60.7,74.7L60.3,75.1L59.9,75.3L59.2,75.4L58.2,76.0L58.0,76.4L58.0,77.2L58.3,77.8L58.6,78.1L60.3,78.7L60.8,79.2L60.8,79.9L60.6,80.3L60.2,80.6L58.6,80.7L57.7,81.1L57.2,81.8L57.2,82.6L57.4,83.0L57.9,83.6L57.8,84.1L57.5,84.3L56.8,84.5L54.4,85.6L52.6,87.0L50.9,88.9L49.7,91.0L49.1,93.0L48.7,94.9L48.7,97.8L49.1,98.7L49.2,99.6L50.1,102.3L51.6,105.0L53.6,107.3L55.6,109.1L58.2,110.6L60.2,111.3L61.2,111.7L61.4,111.9L61.5,112.6L60.7,114.5L60.7,116.0L61.2,117.1L62.2,118.2L62.8,118.7L64.4,119.0L65.0,119.0L66.1,118.7L66.9,118.2L67.5,117.6L68.1,116.5L68.3,115.9L68.3,115.1L68.1,114.3L67.5,112.7L67.5,112.0L67.8,111.7L69.3,111.1L69.8,110.7L70.6,110.5L72.2,109.5L74.4,107.8L76.2,105.7L76.8,104.4L77.8,103.1L78.3,101.8L78.9,99.5L79.0,97.8L79.2,97.1L79.2,94.4L78.3,91.5L77.4,89.7L75.0,87.3L74.4,86.7L69.5,84.3L69.2,83.8L69.7,82.3L69.4,81.3L68.4,80.5L67.2,80.4L66.4,79.8L66.4,79.0L66.8,78.6L67.5,78.5L68.1,78.2L68.7,77.6L68.9,77.0L68.8,76.5L68.3,75.8L67.3,75.3L66.6,75.1L66.1,74.5L65.9,73.3L65.9,70.8L65.7,69.9L65.9,66.6L65.8,63.9L66.0,63.5L66.4,63.2L67.1,63.4L68.2,64.2L69.0,65.1L71.9,67.6L74.4,70.0L75.9,71.3L76.2,71.8L76.2,72.2L75.9,72.9L75.4,73.7L75.4,74.6L76.0,75.4L76.5,75.6L77.2,75.6L78.2,74.8L78.8,74.6L79.3,74.6L79.8,75.0L80.1,76.0L79.9,76.5L79.5,76.9L79.0,77.7L79.0,78.5L79.6,79.3L80.5,79.8L80.7,80.4L79.8,84.0L79.7,87.2L79.9,89.1L80.7,90.6L81.2,92.3L82.5,94.2L84.7,96.2L87.1,97.6L88.3,98.1L89.3,98.3L89.7,98.6L91.8,99.0L94.6,99.1L97.9,98.7L100.4,97.6L102.8,96.2L103.4,96.2L103.9,96.6L104.7,98.5L105.3,99.3L106.4,99.9L107.5,100.1L108.7,99.8L109.5,99.3L110.4,98.6L111.1,97.4L111.1,96.1L110.8,94.8L110.4,94.2L109.5,93.2L107.2,92.1L107.1,91.5L107.5,90.5L107.8,89.0L108.5,87.7L109.1,82.3L108.9,81.4L108.9,80.3L107.8,77.2L106.8,75.2L105.7,73.6L104.8,72.8L103.9,71.7L102.5,70.6L98.6,69.1L97.1,68.9L94.7,69.0L92.7,69.3L90.2,70.2L88.9,70.9L88.5,70.9L88.2,70.7L87.9,69.9L87.3,69.4L86.7,69.4L85.8,69.9L84.6,70.9L83.4,70.8L83.1,70.4L82.9,69.9L82.9,69.5L83.2,68.8L83.7,68.0L83.7,67.2L83.2,66.3L82.0,66.3L80.5,67.3L79.9,67.3L79.2,67.0L77.7,65.8L76.9,64.8L75.7,64.0L74.9,63.1L72.1,60.7L68.3,57.0L67.9,56.4L68.0,55.2L68.9,53.9L77.9,45.7L78.4,45.5L79.3,44.6L79.9,44.4L80.6,44.5L81.2,45.2L81.2,45.7L79.7,47.2L79.5,47.6L79.5,48.2L80.1,49.0L81.3,50.1L82.0,50.1L83.6,48.9L84.4,48.9L85.1,49.8L85.1,50.4L83.7,52.0L83.6,52.6L83.9,53.3L84.7,54.1L85.1,54.3L85.7,54.3L86.4,53.8L89.0,51.4L89.6,51.0L90.3,50.1L90.3,49.5L90.0,49.0L87.9,47.8L86.7,47.3L86.5,47.0L86.6,46.4L87.4,45.7L88.2,45.7L89.0,46.0L89.6,46.4L90.4,46.6L90.9,47.0L91.8,47.1L92.2,47.4L93.0,47.4L93.2,47.2L93.2,46.3L92.9,45.7L92.3,42.7L92.3,41.6L92.9,40.8L93.5,40.7L94.3,41.6L94.7,42.9L95.1,43.5L95.3,44.5L95.8,45.0L96.1,45.0L97.9,43.6L99.2,42.2L99.6,42.0L100.9,40.7L101.0,40.0L100.4,39.0L99.8,38.4L99.0,38.4L98.4,38.8L97.8,39.4L97.1,39.6L96.4,39.7L95.8,39.4L95.8,38.2L97.0,36.6L97.1,35.6L96.5,34.6L95.7,33.6L95.1,33.6L94.2,34.0L93.3,34.8L92.9,35.0L92.2,35.0L91.5,34.4L91.5,33.7L91.7,33.4L93.3,31.5L93.4,31.0L93.9,30.1L94.5,29.8L95.7,29.5L96.3,29.1L96.7,27.5L96.5,26.1L95.8,25.0L94.9,24.4L93.9,24.4L92.7,25.0L92.2,25.5L92.2,27.0L91.8,27.4L90.1,27.7L89.0,28.7L88.3,29.2L86.0,31.5L84.7,32.5L83.8,33.6L82.4,34.6L80.1,36.9L77.0,39.5L72.8,43.7L71.7,44.5L70.4,45.9L70.0,46.1L68.1,48.0L66.8,48.8L66.2,48.9L65.6,48.2L65.3,45.7L65.4,40.2L65.2,39.1L65.3,36.4L65.1,31.7L65.3,30.2L65.0,29.1L65.0,18.6L64.9,16.4L64.7,15.6L64.1,14.3L64.1,13.4L64.3,12.9L64.9,12.2L64.9,11.3L64.6,10.4L64.1,9.8L62.8,9.2Z M64.0,113.9L65.0,113.9L65.6,114.4L65.9,114.9L66.1,115.8L65.1,116.8L64.1,116.8L63.1,115.8L63.2,114.8L63.6,114.3Z M64.1,100.5L64.6,100.5L65.4,101.2L66.8,103.6L66.8,104.2L66.3,105.2L65.1,107.3L64.7,107.6L64.3,107.6L63.9,107.5L63.3,106.9L62.4,105.5L61.9,104.4L61.9,103.6L62.3,102.7L63.1,101.7L63.6,100.9Z M106.7,94.8L107.2,94.6L108.1,94.6L108.7,94.9L109.1,95.5L109.2,96.2L109.1,96.8L108.8,97.4L107.9,97.7L107.2,97.7L106.6,97.4L106.0,96.6L105.9,95.9L106.2,95.2Z M20.6,94.0L21.6,94.3L22.1,94.8L22.2,95.2L22.1,96.3L21.5,96.8L20.9,97.1L20.2,96.9L19.5,96.3L19.4,95.8L19.4,94.9L20.0,94.3Z M56.1,89.6L56.9,89.4L58.1,89.4L59.3,89.9L60.7,91.2L61.2,92.4L61.0,93.6L59.9,94.7L59.2,94.8L58.8,94.7L58.0,93.8L58.0,93.3L58.1,93.0L58.1,92.2L58.0,92.0L56.6,91.9L56.1,92.1L55.5,92.8L54.8,93.9L54.5,95.5L54.6,96.3L55.1,97.6L56.1,98.7L57.1,99.1L58.2,99.3L59.7,99.2L60.5,98.7L61.1,98.7L61.4,99.0L61.4,99.3L60.4,101.4L60.0,101.8L59.1,103.5L59.1,104.4L61.3,108.1L61.3,108.4L61.1,108.7L60.0,108.6L59.2,108.1L57.4,106.9L55.7,105.4L54.1,103.1L53.0,101.1L53.0,100.8L52.5,99.7L52.1,97.3L52.1,94.6L52.3,93.7L52.6,93.3L52.8,92.6L53.4,91.6L54.4,90.5Z M70.2,89.2L71.5,89.7L72.1,89.8L73.2,90.3L74.3,91.2L75.3,92.6L75.8,93.6L76.3,95.5L76.2,96.7L76.2,98.1L75.9,99.4L75.3,101.2L74.4,102.8L73.9,104.1L73.1,105.3L71.2,107.2L70.2,107.9L69.1,108.4L68.1,108.5L67.8,108.2L67.8,107.8L68.9,105.2L69.4,104.4L69.5,103.7L69.3,102.7L68.0,100.9L67.7,100.2L67.7,99.6L68.1,99.2L70.0,99.1L71.8,98.3L72.7,97.3L73.4,95.5L73.2,94.4L72.6,93.1L71.9,92.4L71.2,92.0L70.6,92.0L70.2,92.2L70.0,92.7L70.0,93.9L69.4,94.7L69.1,94.8L68.3,94.7L67.8,94.4L67.0,93.7L66.6,92.8L66.7,92.0L67.0,91.1L67.4,90.5L68.5,89.7L69.3,89.5L69.6,89.2Z M96.5,86.4L97.1,86.1L98.9,86.1L100.3,86.7L101.1,87.6L101.5,88.9L101.9,89.9L101.9,90.4L101.5,90.7L100.6,90.9L99.3,90.6L97.7,90.1L97.2,89.6L96.7,88.2Z M31.4,85.6L31.8,86.1L31.8,86.4L31.0,89.6L30.6,90.0L29.8,90.5L29.0,90.6L28.0,90.6L27.6,90.8L26.7,90.7L26.3,90.3L26.2,89.9L26.3,88.6L26.7,86.8L27.1,86.4L28.2,85.9L29.0,85.8L30.2,85.4Z M84.2,83.9L85.1,82.9L85.9,82.4L86.8,82.2L87.6,82.2L88.8,82.6L89.6,83.4L89.9,83.9L90.0,84.3L90.3,84.8L90.3,85.7L89.5,86.6L88.3,86.5L87.6,85.5L87.2,85.4L86.7,85.4L86.0,86.5L85.8,87.2L85.8,88.1L86.0,88.9L86.5,89.8L87.2,90.4L87.8,90.7L88.7,91.0L90.2,90.8L91.8,90.0L93.6,88.3L94.0,88.2L94.6,88.6L95.2,89.8L95.7,91.5L96.5,92.5L97.2,92.9L99.8,93.0L100.9,93.3L101.3,93.6L101.2,94.2L100.6,94.7L99.5,95.3L98.4,95.6L95.7,96.1L93.3,96.1L92.3,95.9L91.1,95.5L90.1,95.3L87.9,94.3L86.8,93.5L84.7,91.3L83.6,89.0L83.3,88.0L83.2,86.4L83.4,85.5Z M43.9,84.6L44.3,85.5L44.4,86.2L44.7,86.8L44.7,88.1L44.4,89.8L43.2,91.6L41.9,92.9L41.0,93.4L40.5,93.8L38.8,94.5L38.5,94.8L37.7,94.9L36.7,95.4L35.8,95.5L35.0,95.7L31.8,95.8L30.0,95.3L29.1,95.2L27.8,94.5L27.2,93.9L27.2,93.6L27.7,93.2L29.9,92.7L30.9,92.6L31.7,92.4L32.4,91.3L33.2,89.2L33.9,88.6L34.7,88.9L36.1,90.0L37.9,90.7L38.8,90.8L39.6,90.6L41.0,89.7L41.6,88.8L41.9,87.9L41.9,86.9L41.3,85.4L40.9,85.1L40.4,85.2L40.0,85.7L39.3,86.1L38.4,86.0L37.9,85.8L37.5,85.4L37.3,84.7L37.5,83.8L37.8,83.4L38.7,82.5L39.7,82.2L40.7,82.2L41.7,82.5L42.5,82.9L43.3,83.7Z M93.8,73.1L94.9,72.5L95.8,72.2L97.7,72.2L98.6,72.4L99.9,72.8L100.9,73.4L101.5,73.9L102.8,74.7L104.0,76.0L105.3,78.2L105.9,79.6L106.0,79.8L106.6,81.2L106.7,82.6L106.7,84.5L106.6,85.6L106.4,86.0L106.3,87.0L105.6,88.9L105.2,89.4L104.5,89.5L104.0,89.0L103.9,88.4L103.5,87.8L103.0,86.0L102.8,85.7L102.5,85.1L101.9,84.5L101.3,84.2L100.5,84.2L99.8,83.8L99.1,83.7L98.2,83.1L98.2,82.7L99.0,82.0L100.3,80.5L100.8,79.0L100.8,78.4L100.4,77.0L99.9,76.1L99.1,75.3L98.2,74.7L96.8,74.7L96.1,75.0L95.3,75.7L95.3,76.1L96.0,77.0L96.3,77.9L96.3,78.5L96.1,78.9L95.6,79.3L95.2,79.5L94.2,79.4L93.5,79.1L92.9,78.5L92.2,77.1L92.2,75.7L92.7,74.1Z M32.7,72.5L33.5,73.0L34.7,74.2L35.3,75.4L35.4,77.2L34.9,78.6L34.4,79.1L33.6,79.6L32.5,79.5L31.9,79.0L31.5,78.3L31.5,77.6L32.2,76.1L32.0,75.6L31.6,75.3L30.7,74.8L29.5,74.7L28.2,75.5L27.1,76.6L27.0,77.1L27.0,79.4L27.5,80.6L28.8,82.0L29.7,82.8L29.8,83.1L28.8,83.7L27.3,83.8L25.6,84.4L25.2,84.8L24.7,86.1L24.0,89.7L23.3,89.7L22.6,88.8L22.3,87.9L21.8,86.8L21.6,81.6L21.9,80.3L22.5,78.5L23.4,76.3L26.3,73.3L27.7,72.4L29.2,72.2L29.6,72.0L30.8,72.0Z M39.0,38.0L39.6,38.0L40.6,38.7L41.6,39.6L42.5,40.9L42.5,41.3L42.2,41.8L41.5,41.9L40.3,41.9L39.7,41.7L38.7,40.8L38.3,40.1L38.3,39.4L38.6,38.4Z M87.3,37.8L87.6,37.9L88.3,38.6L88.8,39.6L88.8,40.3L88.6,40.7L87.9,41.5L87.0,42.1L86.1,42.2L85.5,42.0L84.8,41.6L84.5,41.2L84.5,40.0L86.5,37.9Z M59.0,24.1L59.5,24.2L59.9,24.6L60.1,25.8L60.0,28.8L59.5,29.3L58.7,29.2L57.8,28.4L56.9,26.6L57.1,25.8L57.5,25.1L58.6,24.3Z" fill="#000" fill-rule="evenodd"/>
</svg>