<svg xmlns="http://www.w3.org/2000/svg" viewBox="0 0 128 128" width="128" height="128">
  <path d="M22.3,119.4L22.5,119.7L23.9,119.8L24.2,120.2L24.9,120.2L25.0,119.4L24.6,119.1L22.5,119.1Z M26.0,119.6L26.0,120.2L26.5,120.2L26.7,119.8L26.9,119.5L27.2,119.4L27.8,119.5L28.2,119.8L28.4,120.2L28.9,120.2L28.7,119.4L28.4,119.1L27.9,118.9L26.7,119.0L26.3,119.2Z M29.8,120.2L30.4,120.2L30.4,119.8L30.7,119.5L31.6,119.4L32.2,119.8L32.2,120.2L32.8,120.2L32.6,119.4L32.2,119.0L31.7,118.8L30.5,118.9L29.9,119.4Z M59.6,9.2L57.5,9.5L57.2,9.8L57.1,10.4L57.1,16.7L57.2,18.8L57.2,33.4L57.4,36.0L57.4,49.1L57.5,51.5L57.7,71.5L57.9,74.9L57.8,77.2L57.9,80.4L57.9,84.0L57.6,84.4L57.0,84.6L32.6,84.6L31.9,84.8L29.0,84.8L28.0,84.6L26.9,84.6L25.4,84.8L22.6,84.8L22.1,85.3L22.0,85.7L22.1,90.6L22.2,92.0L22.4,92.3L23.0,92.6L56.6,92.6L57.6,92.8L58.1,93.4L58.3,115.3L58.5,118.1L58.7,118.7L59.3,118.9L65.5,119.1L66.1,118.7L66.3,117.8L66.2,93.5L66.6,92.8L67.3,92.5L68.4,92.4L80.0,92.5L81.9,92.4L90.8,92.4L105.6,91.8L106.0,91.5L106.2,91.1L106.3,85.4L106.2,84.6L105.9,84.3L105.6,84.1L96.8,84.1L94.7,84.3L89.1,84.2L85.0,84.4L74.4,84.6L68.4,84.6L66.7,84.5L66.3,84.2L66.0,83.2L65.9,80.9L65.9,62.4L65.7,59.3L65.7,55.4L65.9,54.6L66.6,53.9L68.4,52.8L68.8,52.4L70.1,51.7L74.6,48.8L75.9,48.2L76.7,47.5L78.4,46.5L78.7,46.4L82.7,43.8L83.6,43.4L85.4,42.1L86.4,41.6L87.2,41.0L88.1,40.6L89.3,39.7L90.5,39.0L92.0,38.0L92.3,37.9L93.3,37.2L93.6,37.1L94.7,36.3L95.4,36.0L96.3,35.2L97.0,35.0L97.9,34.2L97.9,33.9L97.5,33.5L96.5,33.0L94.7,31.8L93.9,31.5L89.6,28.9L88.5,28.4L88.3,28.1L85.3,26.5L84.8,26.1L82.1,24.7L81.1,24.1L80.6,23.9L78.9,22.8L77.3,22.1L77.0,21.7L75.9,21.3L74.5,20.4L74.1,20.3L72.8,19.5L72.4,19.4L71.7,18.8L70.0,18.0L65.7,15.6L65.4,15.3L65.1,14.6L65.0,10.3L64.9,9.9L64.6,9.4L64.2,9.2Z" fill="#000" fill-rule="evenodd"/>
</svg>