<svg xmlns="http://www.w3.org/2000/svg" viewBox="0 0 128 128" width="128" height="128">
  <path d="M20.8,111.5L20.8,114.4L21.1,114.8L22.1,114.7L25.9,113.2L27.5,112.9L28.8,112.4L33.1,111.6L37.9,111.2L46.4,111.4L49.5,111.9L51.3,112.0L51.8,112.1L54.0,112.4L54.5,112.6L55.7,112.7L56.4,112.9L58.0,113.2L58.3,113.4L60.4,113.8L61.7,114.4L66.3,115.6L67.5,116.1L74.8,117.7L80.5,118.5L82.0,118.5L83.4,118.8L86.9,119.0L93.2,118.8L93.8,118.6L96.8,118.4L99.1,117.8L100.6,117.7L103.0,116.9L103.9,116.8L104.5,116.4L105.5,116.2L106.3,115.8L106.6,115.8L108.5,114.8L108.7,114.5L108.8,113.9L108.7,111.3L108.5,111.0L108.0,110.9L107.6,111.2L106.9,111.3L106.0,111.8L105.0,112.0L104.8,112.1L104.3,112.2L103.4,112.7L102.3,112.8L101.5,113.1L99.8,113.4L98.0,113.9L97.3,113.9L96.3,114.2L95.3,114.2L94.0,114.5L93.0,114.5L92.2,114.6L83.6,114.5L82.6,114.4L79.2,114.2L72.2,112.9L71.5,112.7L69.6,112.3L68.7,112.0L68.0,111.9L66.5,111.3L65.7,111.3L62.8,110.3L60.9,109.9L59.1,109.3L57.8,109.1L56.5,108.8L55.5,108.7L54.4,108.3L53.1,108.2L52.6,108.1L51.2,108.0L50.7,107.8L49.1,107.7L48.6,107.5L47.3,107.5L46.7,107.3L44.6,107.2L36.8,107.2L35.7,107.3L34.6,107.3L31.7,107.8L30.9,108.1L28.1,108.6L27.2,108.9L26.1,109.1L25.6,109.4L24.1,109.7L21.3,110.8Z M20.6,102.6L20.6,105.7L21.1,106.1L21.8,106.0L22.6,105.6L26.6,104.2L26.9,104.2L28.0,103.8L29.1,103.7L30.5,103.3L31.6,103.2L32.9,102.8L38.4,102.4L42.9,102.4L44.1,102.5L46.4,102.5L49.5,103.0L51.4,103.1L51.8,103.3L53.1,103.3L55.4,103.8L55.6,104.0L58.5,104.5L59.0,104.8L61.4,105.3L62.1,105.7L63.7,106.0L66.6,107.1L68.9,107.5L70.2,108.0L75.6,109.0L79.2,109.4L80.5,109.7L81.8,109.7L82.9,109.9L87.6,110.1L93.5,109.9L94.0,109.7L95.1,109.7L96.2,109.5L98.1,109.3L99.2,108.9L100.5,108.8L102.9,108.0L103.4,108.0L104.0,107.8L104.4,107.5L105.3,107.3L106.9,106.5L107.9,106.3L108.5,105.6L108.5,102.5L108.1,102.1L106.7,102.5L104.7,103.3L103.4,103.5L101.4,104.2L100.6,104.3L99.3,104.8L98.0,104.9L96.1,105.3L91.6,105.7L85.9,105.7L82.1,105.6L77.3,105.0L75.1,104.5L73.1,104.2L71.3,103.6L70.2,103.5L67.0,102.6L65.2,101.9L64.1,101.7L61.3,100.9L57.2,99.9L56.2,99.8L50.4,98.6L43.6,98.1L36.1,98.3L30.1,99.2L29.9,99.3L29.4,99.3L25.8,100.3L21.3,101.8L20.8,102.3Z M47.5,93.3L47.5,93.6L48.0,93.7L51.4,94.1L52.2,94.4L53.7,94.4L54.7,94.6L55.3,94.9L57.3,95.2L59.9,95.9L60.4,96.1L61.2,96.2L62.8,96.8L63.2,96.8L63.6,97.1L64.0,97.1L67.7,98.4L72.8,99.5L74.0,99.6L75.8,100.1L78.9,100.5L82.0,100.7L82.8,100.9L84.7,100.9L85.4,101.0L92.0,101.0L95.1,100.8L96.5,100.4L98.1,100.2L98.5,100.1L99.8,99.9L100.4,99.6L102.0,99.3L102.4,99.1L103.4,98.9L103.7,98.6L104.6,98.4L105.3,98.1L105.9,98.0L108.0,97.0L108.3,96.8L108.5,95.2L108.5,93.7L108.2,93.4L107.7,93.3L106.9,93.5L106.0,93.9L103.0,94.9L102.3,95.0L101.4,95.3L100.3,95.5L99.2,95.9L98.1,96.0L96.4,96.4L95.3,96.4L92.7,96.8L84.1,96.8L78.2,96.3L74.0,95.6L73.7,95.4L72.9,95.3L72.6,95.2L71.6,95.1L70.4,94.6L68.7,94.4L68.3,94.1L67.6,93.9L67.0,93.9L64.4,92.9L61.3,92.8L57.4,93.0L52.4,93.0L49.6,93.2L48.1,93.1Z M41.1,90.1L40.7,89.5L40.3,89.4L35.7,89.5L32.5,90.0L31.7,90.0L28.9,90.7L28.0,90.8L25.1,91.6L23.1,92.4L22.0,92.7L21.0,93.2L20.7,93.5L20.5,93.9L20.6,96.7L20.9,97.0L21.5,97.0L22.8,96.4L26.5,95.2L27.2,95.1L27.8,94.8L28.9,94.7L29.3,94.4L30.3,94.4L32.0,93.9L36.6,93.4L40.6,93.3L41.0,93.0L41.1,92.8Z M108.2,84.4L107.5,84.3L106.4,84.7L105.9,85.0L105.2,85.1L102.9,86.0L101.8,86.2L101.3,86.4L99.7,86.7L99.1,87.0L98.3,87.0L97.7,87.2L92.2,88.0L88.1,88.0L87.7,88.3L87.7,91.8L88.1,92.0L91.2,92.0L96.1,91.6L101.5,90.4L101.7,90.3L103.1,90.0L105.2,89.2L106.0,89.0L106.5,88.7L107.8,88.1L108.3,87.6Z M40.9,80.9L40.5,80.5L40.3,80.4L37.1,80.4L35.1,80.7L34.0,80.7L27.7,81.8L26.9,82.2L24.3,82.8L22.0,83.8L21.5,83.9L20.5,84.5L20.3,85.1L20.4,87.7L20.7,88.0L21.3,88.0L24.7,86.7L25.9,86.4L26.5,86.2L27.3,86.1L27.9,85.7L28.6,85.7L29.3,85.5L32.6,84.8L34.8,84.8L35.6,84.5L40.5,84.2L40.9,83.8Z M108.1,75.8L107.8,75.4L107.4,75.4L106.1,75.9L105.8,76.1L105.1,76.2L104.5,76.6L103.6,76.8L102.9,77.1L101.8,77.3L101.3,77.6L100.5,77.6L99.7,77.9L96.1,78.6L95.3,78.6L92.4,79.1L88.1,79.1L87.7,79.2L87.6,79.6L87.6,82.9L87.7,83.1L88.2,83.2L91.6,83.2L92.2,83.1L93.2,83.1L96.4,82.7L101.2,81.6L101.7,81.4L103.0,81.1L103.7,80.8L104.7,80.6L105.1,80.3L106.0,80.1L108.0,79.2L108.2,78.1Z M40.8,72.2L40.2,71.6L39.7,71.5L34.8,71.7L31.1,72.2L30.3,72.5L29.7,72.5L28.3,72.9L27.7,72.9L27.1,73.2L26.1,73.4L23.2,74.4L22.7,74.6L21.9,74.8L20.8,75.3L20.3,76.0L20.3,78.6L20.5,79.0L21.5,79.1L25.4,77.6L29.2,76.6L31.6,76.1L32.3,76.1L33.3,75.9L34.4,75.9L35.7,75.6L38.3,75.6L39.0,75.4L40.5,75.4L40.8,75.0Z M108.0,67.0L107.7,66.5L107.2,66.5L104.0,67.8L103.0,68.0L102.6,68.2L101.7,68.3L100.6,68.8L98.8,69.2L97.8,69.3L97.5,69.5L96.6,69.6L95.2,69.7L92.9,70.2L87.7,70.3L87.4,70.6L87.6,74.0L88.0,74.4L90.2,74.4L90.8,74.2L94.1,74.1L94.6,73.9L96.9,73.6L99.4,73.0L100.3,72.9L101.3,72.7L101.7,72.4L102.9,72.2L104.5,71.7L107.7,70.3L108.0,69.8Z M40.6,63.1L40.1,62.7L35.2,62.8L31.2,63.3L28.6,64.0L27.7,64.0L27.1,64.3L26.7,64.3L24.9,65.0L24.5,65.0L24.0,65.3L22.8,65.6L22.5,65.8L21.1,66.3L20.4,66.6L20.3,67.0L20.2,69.6L20.5,70.3L21.2,70.3L21.6,70.0L22.5,69.8L23.1,69.5L29.0,67.7L30.6,67.5L32.3,67.1L34.3,67.0L35.8,66.7L37.7,66.7L38.4,66.5L40.6,66.4Z M107.9,57.8L107.7,57.6L106.9,57.6L105.3,58.4L105.0,58.4L102.4,59.3L101.6,59.4L100.7,59.8L99.9,59.9L98.9,60.2L97.6,60.5L96.9,60.5L96.0,60.8L92.6,61.2L88.5,61.3L87.6,61.5L87.3,61.7L87.4,65.0L87.8,65.6L92.5,65.5L97.5,64.8L98.9,64.3L99.7,64.3L100.5,64.0L100.9,64.0L103.3,63.2L103.7,63.0L104.6,62.8L105.1,62.5L107.2,61.8L107.9,61.2Z M19.7,31.5L19.8,34.4L20.2,34.8L20.7,34.8L21.2,34.4L22.3,34.2L24.6,33.2L26.7,32.8L28.0,32.2L29.0,32.1L29.8,31.9L30.7,31.9L31.3,31.6L32.2,31.6L32.6,31.4L35.6,31.2L41.5,31.2L47.4,31.5L47.8,31.7L51.0,32.0L52.8,32.4L54.2,32.6L57.2,33.3L57.7,33.6L57.5,33.9L56.4,34.0L54.2,33.9L50.0,34.2L48.9,34.1L45.6,34.3L40.8,34.2L40.4,34.5L40.2,35.2L39.8,35.7L34.0,36.0L32.8,36.3L30.9,36.5L29.1,36.9L28.5,36.9L28.3,37.1L26.6,37.5L25.5,37.9L24.6,38.0L20.7,39.5L19.9,40.2L19.8,40.6L19.9,43.3L20.3,43.7L21.0,43.7L21.5,43.3L26.7,41.6L30.7,40.7L35.9,40.0L39.6,40.0L40.3,40.7L40.4,44.0L40.3,44.2L39.8,44.6L35.8,44.8L30.8,45.4L29.8,45.7L26.3,46.4L25.0,47.0L23.7,47.2L21.9,48.0L21.4,48.1L20.3,48.7L19.9,49.3L19.9,51.4L20.0,52.2L20.3,52.6L20.7,52.7L21.6,52.2L23.6,51.6L25.1,51.0L28.5,50.0L30.3,49.6L32.7,49.4L34.5,49.0L39.8,48.9L40.4,49.4L40.5,51.2L40.5,53.5L40.4,53.6L37.3,53.6L32.7,54.2L32.2,54.4L31.5,54.4L30.6,54.6L29.9,54.6L26.6,55.4L26.3,55.6L23.1,56.5L21.7,57.2L20.6,57.6L20.2,58.0L20.1,60.9L20.5,61.5L21.1,61.5L21.7,61.1L22.2,61.0L23.1,60.6L24.0,60.4L25.3,59.8L30.0,58.6L33.2,58.1L34.8,58.1L35.2,57.9L40.0,57.8L40.4,57.5L40.6,57.0L40.6,53.8L43.3,53.6L51.5,53.5L63.4,53.4L65.5,53.2L70.2,53.3L80.6,53.0L86.4,53.0L86.8,53.2L87.2,53.7L87.3,56.1L87.6,56.4L88.1,56.6L89.7,56.6L90.6,56.4L93.3,56.3L93.9,56.1L96.1,56.0L97.2,55.6L98.0,55.6L99.7,55.1L100.6,55.0L102.7,54.4L102.9,54.2L103.9,54.0L105.0,53.5L105.5,53.4L107.6,52.5L107.8,52.1L107.9,49.2L107.7,48.8L106.9,48.7L106.6,48.9L104.2,49.6L103.5,50.0L102.8,50.1L102.1,50.4L97.8,51.5L93.7,52.1L91.0,52.3L87.8,52.3L87.4,52.1L87.1,51.4L87.0,48.7L87.1,48.0L87.4,47.8L87.8,47.7L90.5,47.7L91.0,47.5L92.9,47.5L94.2,47.2L96.0,47.2L96.8,46.8L98.9,46.5L99.6,46.3L100.7,46.1L101.3,45.7L102.1,45.6L103.9,45.1L104.5,44.8L105.5,44.5L107.5,43.6L107.7,42.8L107.8,40.2L107.7,40.0L107.4,39.7L106.5,39.8L104.8,40.6L104.2,40.7L101.9,41.6L101.1,41.6L99.8,42.1L99.3,42.1L96.5,42.8L95.6,42.8L95.2,43.0L92.5,43.3L87.7,43.5L87.1,43.1L86.9,42.0L86.9,39.6L87.1,39.1L87.5,38.8L94.3,38.5L95.7,38.0L98.0,37.7L99.0,37.4L102.0,36.8L102.6,36.4L103.5,36.2L107.2,34.8L107.6,34.1L107.7,32.3L107.6,31.3L107.3,30.9L106.8,30.9L103.4,32.2L102.5,32.3L101.8,32.7L101.0,32.8L100.0,33.2L98.2,33.5L97.4,33.7L95.9,33.9L95.0,34.2L92.5,34.4L91.9,34.5L87.7,34.6L87.4,34.5L86.2,33.5L77.3,33.6L72.2,32.8L70.4,32.4L69.7,32.4L69.2,32.1L67.6,31.9L66.5,31.4L65.9,31.4L64.8,31.2L63.9,30.8L62.8,30.6L62.4,30.4L61.3,30.2L60.4,29.8L53.2,28.2L52.5,28.2L51.6,27.9L49.3,27.7L49.0,27.5L47.6,27.5L44.3,27.1L42.3,27.1L41.4,27.0L37.1,27.0L34.3,27.1L31.6,27.7L30.2,27.8L29.9,27.9L29.0,28.0L28.7,28.2L28.2,28.2L26.4,28.7L25.9,28.9L24.2,29.3L23.5,29.6L21.5,30.3L20.2,30.9Z M19.5,23.9L19.6,25.7L19.9,26.0L20.6,26.0L21.7,25.5L22.4,25.3L22.7,25.0L24.8,24.5L25.9,24.0L27.6,23.7L28.6,23.3L30.8,23.0L31.2,22.8L36.1,22.3L40.3,22.3L45.8,22.6L48.0,23.0L50.3,23.1L56.7,24.3L62.3,25.8L64.4,26.5L64.9,26.8L66.4,27.1L66.9,27.4L68.0,27.5L69.9,28.0L74.7,28.9L75.8,29.0L76.2,29.2L82.5,29.8L90.2,29.9L90.9,29.7L92.7,29.7L93.8,29.5L94.5,29.5L98.2,28.8L98.8,28.6L100.0,28.4L102.7,27.5L103.4,27.4L107.1,25.9L107.5,25.5L107.6,22.6L107.5,22.1L107.2,21.8L106.6,21.8L105.7,22.3L105.2,22.3L104.6,22.7L103.7,22.9L103.0,23.2L100.9,23.8L98.9,24.5L95.4,25.0L94.9,25.2L93.8,25.2L92.2,25.5L90.5,25.5L89.8,25.6L86.4,25.6L79.7,25.3L78.5,25.0L75.6,24.7L74.8,24.5L74.0,24.5L73.8,24.3L72.9,24.2L72.5,24.0L70.6,23.8L70.3,23.6L69.4,23.5L67.2,22.8L65.2,22.3L64.4,22.0L64.1,22.0L60.5,20.8L57.2,20.1L56.2,20.0L54.6,19.6L52.6,19.5L51.7,19.1L50.4,18.9L48.7,18.8L47.6,18.5L46.4,18.5L45.9,18.3L44.2,18.3L41.9,18.1L38.4,18.1L31.8,18.6L30.9,18.9L28.5,19.2L27.5,19.6L26.6,19.7L24.7,20.4L24.1,20.5L23.4,20.8L22.7,20.9L20.1,22.0L19.6,22.6Z M19.5,13.8L19.5,15.9L19.6,16.9L21.0,16.9L22.7,16.1L23.5,15.9L24.7,15.4L32.4,13.6L37.5,13.4L42.4,13.5L49.1,14.1L55.5,15.1L56.2,15.4L57.3,15.6L57.9,15.9L58.8,15.9L59.4,16.2L61.2,16.6L62.5,17.1L63.7,17.4L64.7,17.8L65.2,17.8L66.9,18.4L72.8,19.8L77.9,20.5L79.4,20.6L80.0,20.7L82.0,20.7L84.1,21.0L88.8,21.0L89.7,20.8L93.2,20.7L96.8,20.0L98.0,19.9L100.0,19.4L100.5,19.1L102.9,18.6L103.7,18.2L104.7,17.9L105.1,17.6L106.0,17.5L106.9,17.0L107.4,16.3L107.5,14.0L107.3,13.1L106.6,13.0L105.8,13.5L105.3,13.5L104.7,13.9L104.1,14.0L103.4,14.3L100.9,15.1L100.5,15.3L95.8,16.3L94.3,16.4L91.6,16.8L84.8,16.9L79.8,16.7L79.2,16.5L75.6,16.1L73.2,15.6L72.1,15.5L71.0,15.1L70.0,15.1L68.6,14.5L67.6,14.4L65.7,13.9L63.8,13.2L61.0,12.5L60.5,12.2L53.2,10.5L51.9,10.4L50.4,10.2L50.0,10.0L48.4,9.9L46.2,9.5L43.3,9.5L41.9,9.3L35.5,9.4L30.8,9.9L30.2,10.2L29.2,10.3L26.2,10.9L25.8,11.1L23.7,11.7L20.0,13.1Z" fill="#000" fill-rule="evenodd"/>
</svg>