<svg xmlns="http://www.w3.org/2000/svg" viewBox="0 0 128 128" width="128" height="128">
  <path d="M40.3,66.0L40.2,66.0L40.2,74.4L39.9,84.5L39.9,100.2L40.1,103.6L40.1,112.2L39.9,116.6L40.2,118.3L40.3,118.2L40.5,116.8L40.3,112.2L40.3,83.8L40.5,82.5L40.3,78.1Z M40.3,54.7L40.2,54.7L40.2,58.1L40.3,58.0L40.4,57.5Z M52.3,41.1L52.0,41.3L52.0,41.9L52.0,49.4L52.1,50.1L52.1,52.1L52.3,52.5Z M76.0,35.8L75.9,39.3L75.7,39.9L75.6,53.7L75.7,64.8L75.6,66.7L75.6,78.3L75.5,90.7L75.6,97.9L75.4,98.9L75.4,109.5L75.5,111.0L75.6,111.4L75.8,111.0L75.9,109.6L75.8,107.6L76.0,106.9L76.0,105.8L75.8,105.3L75.8,104.5L76.0,101.8L76.0,96.9L76.0,95.1L76.2,94.5L76.2,92.8L76.0,92.1L76.1,64.3L76.0,63.7L76.1,60.4L76.0,58.9L76.2,57.1L76.2,39.5L76.0,38.3Z M76.0,10.2L75.9,10.3L75.8,11.8L75.9,13.2L75.6,20.6L75.7,30.3L75.9,31.2L75.8,33.2L76.0,35.5L76.2,28.3L76.2,12.6Z M52.4,9.7L52.2,9.8L52.1,10.6L52.2,13.1L52.4,13.1L52.5,10.5Z M30.3,9.1L30.0,9.4L29.9,9.9L29.8,25.1L29.9,33.7L29.7,34.2L29.8,51.8L29.6,53.0L29.9,54.0L29.9,55.8L30.1,56.8L30.3,58.8L31.8,64.0L32.5,66.1L32.8,67.4L32.8,67.9L33.5,69.9L34.3,74.4L34.1,114.6L34.2,118.4L34.3,118.6L34.7,118.9L38.1,119.0L38.4,118.9L38.7,118.6L38.7,118.2L38.8,75.0L38.6,72.7L38.0,69.5L37.7,68.7L37.6,67.9L37.2,66.8L37.1,66.1L36.8,65.5L34.7,57.1L34.4,54.4L34.3,43.5L34.5,34.8L34.5,15.2L34.7,14.1L35.4,13.8L39.3,13.8L39.9,14.0L40.2,14.5L40.4,14.5L40.6,14.2L41.1,13.9L45.5,14.0L46.3,14.4L46.3,15.5L46.4,23.0L46.3,37.6L46.3,53.6L46.1,54.4L46.0,56.3L45.3,60.0L44.3,62.9L44.1,64.3L43.2,66.9L42.0,71.6L41.6,74.0L41.5,76.4L41.3,116.2L41.4,118.5L41.5,118.8L42.1,119.0L61.6,119.0L62.2,118.7L62.5,95.8L62.4,92.8L62.7,84.1L62.5,73.3L61.9,69.5L61.0,66.7L60.8,65.6L60.4,64.4L60.4,64.0L60.1,63.6L60.1,63.2L59.8,62.4L59.5,60.8L58.8,58.9L58.1,54.2L58.3,15.0L58.4,14.6L58.9,14.2L63.7,14.4L64.0,14.7L64.1,15.4L64.0,21.7L64.2,22.7L64.0,23.7L64.2,26.0L64.0,27.0L64.1,34.8L64.0,35.6L64.0,48.7L63.8,58.9L63.9,66.0L63.6,91.2L63.6,104.0L63.5,115.8L63.6,118.6L63.7,118.8L64.0,118.7L64.2,115.7L64.0,110.3L64.0,104.7L64.2,102.1L64.1,96.3L64.3,95.6L64.2,90.5L64.4,89.9L64.4,88.9L64.2,87.3L64.3,65.0L64.1,63.2L64.3,61.4L64.4,57.5L64.3,46.0L64.4,41.5L64.4,32.2L64.3,25.2L64.5,24.3L64.5,23.5L64.4,22.8L64.5,20.1L64.5,15.0L64.7,14.5L64.9,14.3L69.6,14.4L69.9,14.5L70.1,14.7L70.4,15.7L70.1,54.0L69.8,56.3L69.2,58.9L69.1,59.2L68.7,61.0L66.8,66.7L66.8,67.3L66.1,69.4L66.1,69.8L65.6,72.0L65.3,74.1L64.9,112.7L65.1,115.0L65.1,118.6L65.5,119.0L84.5,119.0L85.6,118.8L85.8,118.6L85.9,118.2L86.0,112.4L85.8,110.6L86.0,106.2L85.9,102.6L86.3,75.1L86.0,73.5L86.0,72.4L85.7,71.5L85.5,70.2L82.9,60.3L82.4,58.1L82.0,55.2L82.0,43.7L82.1,40.5L82.1,37.5L82.2,25.7L82.1,23.5L82.3,17.9L82.2,15.5L82.4,15.0L83.0,14.6L86.9,14.6L87.5,14.7L87.9,15.4L87.9,36.7L87.7,37.5L87.6,44.2L87.7,48.3L87.7,53.6L87.6,61.6L87.7,62.8L87.5,79.1L87.3,82.8L87.4,89.7L87.2,109.2L87.2,116.5L87.3,118.2L87.4,118.4L87.7,115.6L87.6,110.6L87.8,105.7L87.7,103.2L87.9,101.7L87.9,95.0L88.1,89.7L88.0,68.1L88.1,65.2L88.1,47.3L88.2,45.1L88.1,36.6L88.2,34.8L88.2,24.2L88.4,21.7L88.3,19.5L88.5,17.9L88.5,15.3L88.8,14.7L90.3,14.6L93.4,14.9L94.0,15.3L94.1,28.0L93.9,31.6L93.9,42.9L93.7,53.5L93.4,56.2L92.9,58.2L92.9,59.1L91.9,62.2L91.9,62.5L91.4,63.6L91.0,65.4L90.9,65.6L90.0,68.5L89.1,72.7L88.9,76.0L88.9,79.5L88.7,82.1L88.8,84.0L88.6,86.7L88.5,97.5L88.4,101.6L88.5,103.4L88.5,115.5L88.6,118.7L88.9,119.0L90.1,119.1L92.7,118.9L93.0,118.5L93.0,114.2L93.2,110.2L93.1,102.6L93.3,100.6L93.3,90.6L93.7,73.7L94.0,71.5L94.4,70.1L94.4,69.7L94.5,69.5L94.7,68.6L94.9,68.2L95.0,67.4L95.5,66.0L95.5,65.7L96.1,64.2L96.5,62.2L96.9,61.2L96.9,60.8L97.3,60.1L97.5,58.3L97.8,57.2L98.1,54.5L98.5,37.5L98.6,16.3L98.5,10.6L98.1,10.3L95.4,10.2L93.5,10.2L92.5,10.1L89.8,10.2L83.7,10.0L78.2,10.0L78.0,10.1L77.6,10.6L77.6,19.7L77.5,25.8L77.3,44.7L77.4,48.8L77.2,50.7L77.2,54.0L77.4,56.8L78.3,61.2L78.5,61.6L79.7,65.9L79.9,66.2L80.1,67.6L80.7,69.2L81.5,73.2L81.6,74.7L81.7,75.3L81.3,113.0L81.1,113.9L80.6,114.2L76.5,114.3L76.0,114.0L75.9,113.8L75.9,113.3L75.6,113.0L75.5,113.8L74.8,114.2L71.2,114.4L70.1,114.3L69.7,114.0L69.6,113.6L69.6,102.5L69.8,98.9L69.8,87.6L70.0,79.1L69.9,76.1L70.0,75.1L70.0,73.8L70.2,73.5L70.2,72.7L70.5,71.3L70.5,70.8L70.8,70.0L70.8,69.5L71.2,68.4L71.5,67.1L72.4,64.5L72.6,63.3L72.8,63.1L73.1,61.7L73.3,61.2L73.5,60.2L73.8,59.4L73.9,58.4L74.2,57.4L74.6,54.5L74.6,51.0L74.8,49.6L74.8,24.2L74.7,20.8L74.8,10.6L74.4,10.0L73.9,9.9L59.3,9.8L57.2,9.6L54.4,9.6L54.0,9.8L53.9,9.9L53.7,11.8L53.6,21.3L53.6,54.4L53.8,56.0L54.6,60.4L55.0,61.6L55.2,62.8L55.5,63.3L55.8,64.8L56.1,65.6L57.2,70.1L57.9,74.6L58.0,86.0L57.8,92.8L57.9,94.1L57.7,106.1L57.8,107.5L57.6,112.4L57.7,113.0L57.5,114.2L57.3,114.3L56.9,114.4L52.6,114.4L52.4,114.3L51.9,113.8L51.9,112.5L52.0,111.7L52.0,107.8L51.9,104.9L52.0,98.4L52.0,86.9L52.2,84.9L52.1,83.4L52.0,82.9L52.1,80.2L52.0,76.9L52.2,67.8L52.1,66.0L52.0,66.0L52.0,77.2L51.8,78.0L51.9,91.7L51.7,94.6L51.7,107.3L51.6,111.2L51.8,113.0L51.6,114.0L51.3,114.3L47.2,114.4L46.5,114.3L46.1,114.0L45.9,113.7L45.9,112.9L46.0,76.2L46.3,73.1L46.7,71.6L46.8,71.3L47.0,70.3L47.4,68.7L47.6,68.2L47.7,67.6L47.9,67.4L48.3,65.6L48.7,64.7L49.1,63.2L49.2,63.0L49.8,61.2L50.0,60.2L50.3,59.4L50.8,55.9L51.0,46.8L50.9,37.8L51.1,17.7L50.9,16.3L50.9,10.0L50.4,9.5L38.4,9.3L33.1,9.0Z" fill="#000" fill-rule="evenodd"/>
</svg>