<svg xmlns="http://www.w3.org/2000/svg" viewBox="0 0 128 128" width="128" height="128">
  <path d="M9.1,40.0L9.0,42.7L9.2,47.3L9.1,49.8L9.2,55.6L9.2,63.5L9.4,74.0L9.4,84.5L9.5,87.4L9.8,87.6L10.6,87.7L13.5,87.8L17.3,87.7L24.0,87.9L26.4,87.8L29.3,88.0L34.6,87.9L49.0,88.1L52.7,88.0L56.3,88.2L58.3,88.1L75.5,88.3L78.8,88.3L82.4,88.4L100.7,88.5L107.7,88.6L116.4,88.6L118.1,88.4L118.4,88.0L118.6,87.1L118.5,85.6L118.7,78.9L118.7,70.8L118.8,68.9L118.8,65.3L119.0,63.0L118.9,57.9L119.1,55.9L119.0,54.2L119.1,52.8L119.1,51.7L119.2,48.2L119.2,41.5L119.1,41.1L118.7,40.7L113.0,40.6L101.5,40.6L94.0,40.7L83.3,40.6L68.0,40.6L67.8,41.1L67.5,42.8L67.6,46.2L67.3,51.2L67.4,52.7L67.2,53.2L67.2,54.6L67.4,55.3L67.3,59.0L67.5,60.1L67.9,60.8L68.3,60.9L69.4,61.5L70.3,62.3L70.8,63.3L71.0,64.4L71.0,65.4L70.7,66.8L70.7,67.6L71.1,68.7L71.8,69.5L72.4,69.7L74.0,70.0L75.7,70.0L76.7,70.2L77.4,70.9L77.8,72.0L77.8,76.0L77.5,76.9L77.1,77.4L76.1,77.7L74.2,77.7L72.0,77.4L71.1,76.9L70.7,76.4L70.3,75.2L70.2,71.5L69.7,70.1L68.9,69.1L68.3,68.8L66.9,68.7L65.4,68.4L64.7,67.9L63.7,66.8L63.3,65.8L63.2,64.1L63.6,62.8L64.9,61.4L65.8,60.9L66.4,60.7L66.7,60.3L66.8,60.0L66.8,59.2L66.9,58.4L66.9,55.8L67.0,50.8L67.0,41.1L66.7,40.7L66.3,40.6L62.2,40.6L61.7,41.0L61.6,41.9L61.4,47.4L61.5,51.1L61.6,51.4L62.0,51.8L63.3,52.5L63.9,53.0L64.3,53.6L64.8,54.8L64.9,56.5L64.6,57.6L64.1,58.4L63.2,59.3L62.6,59.7L61.9,59.9L61.4,60.5L61.4,61.2L61.2,62.4L61.2,63.7L61.3,64.3L61.2,68.0L61.3,69.3L61.6,69.9L63.0,70.8L63.7,71.5L64.3,72.6L64.5,73.5L64.5,74.8L64.1,76.1L63.0,77.4L61.7,78.0L60.2,78.1L58.8,77.5L57.9,76.7L57.4,76.0L57.1,75.1L56.9,73.6L57.2,72.6L57.5,71.8L58.7,70.6L59.4,70.1L60.3,69.9L60.6,69.6L60.8,68.6L60.8,62.0L60.7,60.4L60.4,60.1L59.1,59.3L58.3,58.6L57.6,57.6L57.2,56.1L57.4,54.3L58.0,53.4L59.3,52.2L59.6,52.1L60.0,51.8L60.3,51.7L60.8,51.3L60.8,51.0L61.0,44.4L60.9,41.1L60.6,40.7L60.2,40.6L57.2,40.5L56.3,40.6L56.0,40.8L55.9,41.3L55.9,44.7L55.8,47.0L55.8,58.5L55.9,60.4L56.3,60.8L57.0,61.0L57.8,61.5L58.4,62.1L59.1,63.2L59.4,64.3L59.4,65.3L59.2,65.9L58.6,67.1L57.4,68.2L56.2,68.7L54.4,68.6L53.0,67.8L52.1,66.9L51.7,66.0L51.5,65.0L51.5,64.4L51.8,63.2L52.3,62.3L53.5,61.2L54.7,60.8L55.1,60.4L55.3,59.3L55.2,40.9L54.8,40.6L54.3,40.5L50.7,40.5L50.4,40.8L50.2,41.4L50.2,42.7L50.1,50.2L50.2,51.2L50.6,51.6L52.2,52.4L53.0,53.3L53.7,54.8L53.7,56.2L53.5,57.0L53.0,57.9L51.9,59.0L51.2,59.4L50.7,59.5L50.2,60.1L49.9,65.7L50.0,69.3L50.4,69.9L52.1,71.0L52.8,71.9L53.3,73.4L53.3,74.4L52.9,75.9L51.8,77.1L50.7,77.7L49.9,78.0L48.9,78.0L47.2,77.2L46.1,76.0L45.7,74.9L45.6,73.4L45.7,72.7L46.1,71.8L46.8,71.0L47.4,70.4L48.9,69.9L49.3,69.2L49.5,65.8L49.4,63.9L49.6,63.4L49.5,60.7L49.3,59.9L48.8,59.5L48.2,59.3L47.4,58.7L46.5,57.6L46.0,56.6L45.9,55.2L46.1,54.2L46.5,53.4L47.6,52.3L49.1,51.5L49.4,51.2L49.6,50.2L49.6,46.2L49.6,40.9L49.1,40.5L48.3,40.3L45.2,40.3L44.8,40.5L44.6,40.8L44.3,50.6L44.5,51.7L44.5,59.7L44.6,60.2L45.0,60.7L45.8,61.0L46.4,61.4L47.5,62.6L47.9,63.3L48.0,63.9L48.0,65.4L47.5,66.7L46.6,67.7L45.6,68.4L45.0,68.6L44.2,68.7L43.5,68.6L42.6,68.3L41.5,67.5L41.0,66.8L40.4,65.8L40.3,64.5L40.4,63.5L41.2,62.1L41.8,61.5L42.4,61.0L42.9,60.9L43.4,60.7L43.9,60.0L43.9,51.7L44.0,51.1L43.9,40.8L43.5,40.4L42.4,40.3L40.4,40.2L39.3,40.3L39.0,40.4L38.8,40.7L38.7,43.1L38.7,49.6L38.8,50.9L39.3,51.5L39.9,51.7L40.9,52.4L41.7,53.4L42.2,54.9L42.2,56.1L41.8,57.1L41.2,58.1L40.6,58.7L39.2,59.4L38.8,60.1L38.7,61.6L38.7,68.7L38.7,69.3L39.0,69.8L40.4,70.4L41.0,71.0L41.6,71.8L42.0,72.7L42.1,73.4L42.1,74.3L41.9,75.2L41.5,76.0L40.6,77.1L39.9,77.6L38.7,77.9L37.9,77.9L36.8,77.6L35.5,76.6L35.1,76.0L34.9,75.4L34.7,75.2L34.5,73.6L34.7,72.5L35.4,71.3L36.4,70.4L36.9,70.2L37.1,70.0L37.5,69.9L37.9,69.6L38.1,69.1L38.2,67.7L38.2,60.2L38.1,59.9L37.6,59.5L37.0,59.3L36.0,58.7L35.1,57.7L34.6,56.5L34.4,54.9L34.7,53.7L35.3,52.8L35.8,52.3L36.8,51.6L37.6,51.4L38.0,50.9L38.2,50.0L38.1,40.8L37.9,40.5L37.6,40.3L36.6,40.1L33.8,40.0L33.1,40.3L32.9,40.8L32.9,41.3L32.7,41.5L32.8,42.3L32.6,43.1L32.6,50.7L32.8,51.2L32.8,53.1L32.6,53.6L32.6,58.1L32.8,58.7L32.8,59.4L32.9,60.1L33.2,60.4L34.0,60.6L34.8,61.0L35.7,62.0L36.2,63.3L36.3,65.1L36.1,65.9L35.9,66.2L34.7,67.5L33.3,68.2L32.0,68.2L30.6,67.7L29.9,67.2L29.3,66.5L29.0,66.0L28.7,65.3L28.6,64.0L28.8,62.8L29.3,61.8L30.2,60.9L31.0,60.5L31.5,60.4L32.2,59.7L32.2,58.3L32.3,58.0L32.3,43.0L32.1,40.7L31.5,40.1L31.0,40.0L27.5,40.0L27.0,40.3L26.9,41.0L26.8,47.0L26.9,49.5L27.0,49.8L27.0,50.3L27.2,50.8L27.4,51.0L28.4,51.4L29.1,51.9L30.0,52.9L30.5,54.4L30.5,55.7L30.4,56.4L29.7,57.6L28.7,58.4L27.4,59.1L27.1,59.5L27.0,60.7L27.0,63.2L26.8,64.0L27.0,65.2L26.9,67.9L27.2,69.4L27.7,69.9L28.4,70.1L29.2,70.7L30.1,71.6L30.5,72.8L30.6,74.0L30.5,74.6L30.1,75.6L29.7,76.3L29.1,76.8L27.9,77.6L27.3,77.7L26.2,77.7L25.6,77.6L24.4,76.9L23.6,76.0L23.0,74.8L22.9,73.2L23.2,72.1L24.0,71.0L24.9,70.2L26.1,69.7L26.3,69.3L26.5,68.5L26.5,64.6L26.4,59.5L26.0,59.1L25.0,58.7L24.2,58.1L23.4,57.2L22.8,56.1L22.6,54.8L23.0,53.4L23.7,52.3L24.3,51.7L26.2,50.9L26.4,50.5L26.5,44.2L26.3,40.6L26.1,40.2L25.7,40.0L23.8,39.8L21.7,39.8L21.4,39.9L21.1,40.4L20.9,43.6L20.9,49.5L21.1,53.6L21.0,58.0L21.2,59.5L21.3,59.9L23.1,60.8L24.1,61.8L24.4,62.3L24.8,63.3L24.8,64.6L24.4,66.1L23.4,67.3L21.9,68.0L20.7,68.1L20.0,67.9L18.8,67.3L18.2,66.8L17.5,65.8L17.0,64.3L17.1,63.1L17.5,62.1L17.8,61.5L18.9,60.7L20.3,60.0L20.6,59.3L20.6,41.3L20.4,40.3L20.0,39.9L19.4,39.7L15.0,39.7L10.0,39.5L9.4,39.7Z M99.4,69.9L99.9,69.6L100.7,69.6L104.3,69.6L105.2,69.9L106.0,70.4L106.5,72.1L106.5,74.2L106.2,76.0L106.0,76.6L105.7,76.8L105.0,77.2L104.1,77.4L101.8,77.4L100.7,77.2L99.9,76.8L99.3,76.3L99.0,75.7L98.7,74.3L98.7,72.1L98.9,70.5Z M106.7,60.7L107.6,60.5L112.1,60.5L112.7,60.6L113.4,61.1L113.8,62.0L113.8,64.6L113.6,65.2L113.5,67.6L113.1,68.1L112.6,68.3L111.4,68.5L108.0,68.5L107.0,68.2L106.3,67.5L106.2,67.0L106.0,65.2L106.0,62.2L106.2,61.1Z M106.3,53.4L106.6,54.0L106.6,55.9L106.4,58.7L106.1,59.5L105.7,60.0L105.2,60.2L99.8,60.3L99.3,60.4L98.7,61.1L98.5,61.9L98.2,66.8L97.8,67.3L96.5,67.4L93.0,67.2L92.0,67.0L91.2,66.4L91.0,66.0L90.9,63.4L90.9,62.0L91.2,60.9L91.9,60.1L92.6,59.9L97.2,59.8L97.9,59.5L98.2,59.3L98.4,58.5L98.5,54.2L98.7,53.7L99.3,53.1L99.8,52.8L100.7,52.6L104.0,52.6L104.6,52.8L105.3,52.8L106.0,53.1Z M84.7,52.8L85.2,52.5L88.1,52.3L89.6,52.5L90.4,53.1L90.7,53.6L90.9,54.6L90.9,57.6L90.5,59.0L89.9,59.6L89.0,59.8L85.4,59.8L84.7,59.7L84.1,59.3L83.7,58.4L83.7,54.6L84.1,53.4Z M71.3,52.3L72.8,51.8L75.7,51.7L76.7,52.0L77.3,52.6L77.5,53.1L77.7,54.2L77.8,58.5L78.0,59.0L78.2,59.3L78.9,59.8L79.8,60.1L82.4,60.4L83.5,60.7L84.0,60.9L84.3,61.4L84.5,61.9L84.7,62.8L84.7,66.3L84.8,67.5L85.1,68.2L85.7,68.7L86.7,69.2L88.5,69.5L89.7,69.4L90.4,69.6L91.1,69.6L91.8,70.1L92.0,71.4L92.1,75.7L91.5,76.4L90.9,76.8L89.3,77.2L87.1,77.2L85.9,76.8L85.4,76.3L85.0,75.7L84.5,73.3L84.4,70.1L84.2,69.6L83.8,69.0L83.3,68.7L82.8,68.6L79.8,68.6L78.8,68.4L77.9,67.6L77.5,66.7L77.5,65.8L77.5,61.6L77.1,60.6L76.6,59.8L75.6,59.4L72.2,59.3L71.4,58.9L70.7,58.1L70.4,56.5L70.3,54.5L70.6,52.9Z" fill="#000" fill-rule="evenodd"/>
</svg>