<svg xmlns="http://www.w3.org/2000/svg" viewBox="0 0 128 128" width="128" height="128">
  <path d="M9.0,57.1L9.0,58.3L9.4,59.2L9.4,60.2L10.3,62.5L10.4,63.2L11.1,64.4L11.4,64.7L12.1,65.0L13.2,65.2L16.3,65.0L19.7,64.4L21.8,63.9L22.3,63.7L23.0,63.6L27.4,62.2L29.7,61.2L30.8,60.5L31.5,59.8L31.6,59.5L31.5,57.2L31.7,57.0L32.1,57.0L32.4,57.2L32.5,58.3L32.5,63.3L32.7,64.6L32.8,77.0L33.0,77.2L33.3,76.6L33.5,76.5L33.6,76.6L33.6,81.0L33.5,81.7L32.5,82.5L32.1,83.3L32.1,86.1L31.3,87.3L31.2,87.9L31.2,88.5L31.5,88.8L34.1,88.9L37.6,88.8L39.0,87.9L64.9,88.2L67.0,88.4L70.0,88.4L73.1,88.6L76.8,88.6L77.6,88.8L79.9,88.8L80.2,88.9L80.9,89.7L81.4,89.8L87.9,89.9L88.3,89.9L88.6,89.7L88.7,89.0L89.2,88.5L91.0,88.7L91.8,88.3L93.5,88.4L94.7,87.6L96.0,87.6L97.0,87.1L98.2,87.1L99.3,86.6L100.5,86.5L101.1,86.2L101.6,85.8L102.8,85.6L103.4,85.2L104.0,84.6L105.5,84.1L106.3,83.0L107.6,82.4L108.1,81.8L108.4,81.2L108.6,81.0L109.2,80.7L109.8,80.1L110.1,79.2L111.2,78.3L111.5,77.6L111.8,76.8L112.4,76.2L113.0,74.6L113.7,74.0L114.1,72.6L114.7,71.7L115.0,70.3L115.5,69.4L115.7,68.3L116.5,67.1L116.7,65.9L117.3,64.7L117.3,63.3L117.7,62.7L117.9,62.3L117.9,60.5L118.1,60.1L118.2,59.5L118.0,58.3L118.8,57.5L118.8,56.6L118.5,55.8L117.6,55.2L117.6,54.9L118.1,54.6L118.8,54.4L119.1,54.1L119.2,53.4L119.0,52.7L118.5,52.4L115.1,52.8L113.6,52.8L112.3,52.5L111.8,52.0L111.8,51.9L111.2,51.4L110.0,50.8L109.6,50.8L109.3,51.0L109.1,52.4L108.7,52.5L108.5,52.3L108.1,51.1L107.9,50.5L107.9,49.5L107.2,47.5L107.2,46.8L107.0,46.4L106.5,45.8L105.1,45.0L103.3,44.4L102.6,44.1L102.0,44.0L100.6,43.5L98.3,42.8L97.4,42.7L96.9,42.4L95.8,42.3L94.4,41.8L90.8,41.2L88.4,40.6L85.7,40.2L84.9,40.0L83.9,39.9L83.0,39.7L81.6,39.6L80.3,39.4L77.5,39.2L76.9,39.1L75.9,39.1L72.4,38.7L70.7,38.7L65.7,38.3L56.5,38.3L54.7,38.5L50.8,38.5L46.9,38.8L44.9,38.8L42.0,39.2L39.1,39.3L38.8,39.5L35.9,39.7L35.1,39.9L33.9,40.0L32.1,40.4L31.0,40.4L30.0,40.7L28.6,40.9L27.2,41.3L26.3,41.4L25.2,41.8L23.7,42.0L22.9,42.3L21.5,42.6L21.1,42.8L20.2,43.0L19.6,43.3L16.5,44.2L16.2,44.4L15.4,44.7L14.4,45.2L13.6,45.8L13.3,46.8L11.8,49.0L10.6,51.4L9.7,54.1Z M84.7,83.6L84.9,83.5L85.6,83.5L86.0,83.6L86.3,84.1L86.0,84.3L85.8,84.3L84.9,83.9Z M75.4,79.1L75.6,78.9L76.1,78.9L77.0,78.9L77.6,79.4L77.6,79.5L77.2,80.0L76.4,80.0L75.6,79.5Z M71.7,79.1L72.0,78.9L73.3,78.9L73.6,79.2L73.6,79.6L73.2,80.0L72.5,80.0L71.8,79.4Z M67.8,79.2L67.8,78.9L68.1,78.8L69.5,78.9L69.7,79.1L69.7,79.5L69.3,79.8L68.7,80.0L68.1,79.7Z M63.7,78.9L64.0,78.6L65.0,78.6L65.5,78.8L65.7,79.0L65.7,79.3L65.3,79.8L64.6,79.8L64.0,79.4L63.7,79.1Z M52.3,78.7L52.4,78.6L53.6,78.6L54.1,78.7L54.2,78.9L54.2,79.1L53.8,79.5L53.1,79.6L52.3,79.0Z M59.9,78.7L60.5,78.5L61.4,78.6L61.9,78.9L61.9,79.2L61.7,79.5L61.4,79.7L60.6,79.7L60.4,79.6L59.8,79.0Z M56.0,78.6L56.3,78.5L57.4,78.5L58.0,78.9L58.0,79.2L57.5,79.6L56.8,79.6L56.0,79.0Z M48.8,78.6L49.8,78.5L50.4,78.9L50.3,79.5L50.1,79.6L49.5,79.6L49.0,79.4L48.7,79.0Z M44.7,78.6L44.9,78.5L46.3,78.6L46.6,78.9L46.6,79.1L46.3,79.4L45.7,79.5L45.0,79.1Z M40.6,78.7L40.8,78.6L41.9,78.5L42.4,78.6L42.6,78.9L42.7,79.2L42.2,79.6L41.7,79.6L40.6,78.9Z M80.6,78.8L80.9,78.5L81.2,78.4L82.8,78.5L83.4,78.7L83.6,78.9L83.6,79.2L83.4,79.5L83.1,79.7L81.7,79.8L80.9,79.5L80.6,79.2Z M35.4,78.3L35.7,78.0L36.2,77.8L37.4,77.7L38.5,78.0L38.8,78.2L38.8,78.6L38.1,79.2L36.9,79.2L35.8,78.9L35.4,78.5Z M77.3,76.3L77.6,76.0L79.0,76.0L79.4,76.4L79.4,76.6L79.1,76.9L78.7,77.1L78.0,77.1L77.3,76.6Z M73.3,76.2L73.6,76.0L75.0,76.0L75.3,76.1L75.3,76.6L75.1,76.9L74.8,77.1L74.2,77.1L73.6,76.9L73.4,76.6Z M69.8,76.0L70.0,75.8L71.2,75.9L71.6,76.2L71.7,76.6L71.3,76.9L70.7,77.0L70.0,76.7L69.8,76.5Z M65.7,76.0L65.9,75.8L66.9,75.7L67.7,75.9L67.9,76.1L67.9,76.3L67.5,76.8L66.6,76.8L66.0,76.6L65.7,76.3Z M61.7,76.0L62.1,75.7L62.8,75.6L63.6,75.8L63.9,76.1L63.9,76.3L63.6,76.6L62.7,76.7L62.0,76.5L61.7,76.2Z M50.6,75.8L51.0,75.6L52.1,75.7L52.4,76.0L52.4,76.3L52.1,76.6L51.3,76.6L50.8,76.4L50.6,76.2Z M46.6,75.8L46.9,75.6L48.3,75.7L48.6,75.9L48.6,76.3L48.1,76.6L47.6,76.7L46.8,76.3L46.6,76.1Z M43.0,75.7L44.6,75.7L44.8,75.9L44.8,76.3L44.4,76.6L43.6,76.6L42.9,76.0Z M38.5,76.0L38.8,75.7L39.0,75.6L40.4,75.6L40.7,75.7L40.8,76.3L40.5,76.6L40.0,76.6L39.4,76.3L38.8,76.3L38.6,76.3Z M57.8,76.0L58.2,75.6L58.8,75.5L59.7,75.7L60.0,76.0L60.0,76.2L59.7,76.6L58.9,76.8L58.2,76.5Z M54.1,75.9L54.4,75.6L55.4,75.5L55.9,75.7L56.2,76.0L56.2,76.2L55.9,76.6L54.9,76.7L54.5,76.5L54.1,76.0Z M81.4,75.1L81.7,74.8L83.2,74.8L83.7,75.2L83.7,75.4L83.4,75.7L82.6,75.8L81.7,75.5L81.4,75.3Z M35.0,74.5L35.4,74.0L35.6,74.0L37.0,74.0L37.3,74.2L37.4,74.8L36.9,75.2L36.2,75.2L35.3,75.1L35.0,74.6Z M78.2,73.4L78.5,73.3L79.5,73.3L80.2,73.6L80.2,73.9L79.8,74.3L79.1,74.3L78.4,74.1L78.2,73.9Z M84.2,73.4L84.4,73.2L84.8,73.2L85.4,73.6L85.3,74.0L84.6,74.0L84.2,73.7Z M74.4,73.4L74.6,73.2L75.9,73.3L76.2,73.6L76.2,73.9L75.7,74.3L75.0,74.2L74.4,73.7Z M70.4,73.3L70.7,73.1L71.2,73.1L72.0,73.4L72.2,73.6L72.2,73.7L72.0,74.0L70.9,74.0L70.4,73.7Z M66.7,73.1L66.9,73.0L68.3,73.1L68.6,73.3L68.6,73.6L68.2,74.0L67.4,74.0L66.8,73.6Z M62.6,73.3L63.1,72.9L64.0,72.9L64.6,73.2L64.6,73.7L64.2,73.9L63.4,73.9L62.7,73.6Z M59.0,73.1L59.2,72.9L60.4,72.9L60.8,73.3L60.8,73.5L60.5,73.9L60.0,74.0L59.4,73.7L59.2,73.7L59.0,73.4Z M55.5,73.1L55.8,72.8L57.0,72.9L57.3,73.1L57.3,73.5L56.8,73.8L56.3,73.8L55.8,73.6L55.5,73.3Z M51.5,73.0L51.7,72.8L52.8,72.8L53.3,73.1L53.3,73.4L53.0,73.7L52.1,73.8L51.5,73.3Z M47.8,73.0L48.1,72.8L49.1,72.8L49.5,73.1L49.5,73.4L49.2,73.7L48.3,73.8L47.8,73.4Z M43.7,73.1L43.9,72.8L45.3,72.8L45.7,73.1L45.7,73.4L45.4,73.7L44.8,73.8L43.9,73.5L43.7,73.3Z M39.8,73.1L40.2,72.8L41.5,72.8L41.9,73.1L41.9,73.4L41.6,73.7L40.8,73.8L40.4,73.7Z M76.4,70.8L76.8,70.5L77.3,70.5L78.0,70.8L78.0,71.2L77.7,71.4L77.1,71.5L76.9,71.4L76.4,70.9Z M72.2,70.7L72.7,70.4L73.6,70.5L73.9,70.7L74.0,71.0L73.7,71.4L73.0,71.4L72.6,71.3L72.2,70.9Z M79.9,70.7L80.2,70.3L81.4,70.3L82.5,70.6L82.8,70.9L82.8,71.2L82.3,71.6L81.1,71.6L80.2,71.3L79.9,71.1Z M68.6,70.3L70.0,70.3L70.3,70.6L70.3,70.9L69.8,71.3L69.3,71.3L68.6,70.7Z M64.8,70.6L64.9,70.3L65.5,70.1L66.2,70.3L66.4,70.5L66.4,70.8L66.0,71.2L65.6,71.2L65.2,71.1Z M49.8,70.4L50.1,70.1L50.9,70.1L51.5,70.4L51.5,70.8L51.2,71.0L50.4,71.0L49.9,70.6Z M61.1,70.1L61.7,70.0L62.3,70.2L62.6,70.5L62.6,70.8L62.4,71.1L62.2,71.1L61.6,71.1L61.1,70.6L61.0,70.3Z M57.3,70.2L57.6,70.0L58.5,70.1L58.9,70.5L58.8,70.9L58.5,71.1L58.0,71.1L57.3,70.6Z M42.3,70.2L42.6,70.0L43.8,70.1L44.0,70.3L44.0,70.7L43.7,71.0L42.9,71.0L42.3,70.6Z M53.4,70.2L53.9,69.9L54.5,69.9L55.0,70.2L55.1,70.7L54.7,71.1L54.4,71.1L53.6,70.8L53.4,70.5Z M46.1,70.1L46.5,69.9L47.3,70.1L47.8,70.5L47.8,70.7L47.4,71.0L46.8,71.0L46.0,70.5Z M36.7,70.2L36.9,69.9L37.5,69.7L38.6,69.7L39.3,69.9L39.5,70.1L39.5,70.4L39.3,70.7L38.8,70.9L38.0,71.0L36.9,70.7Z M66.5,64.1L66.8,63.9L67.5,63.9L67.9,64.2L68.0,64.6L67.8,64.8L67.2,64.9L66.5,64.4Z M62.3,64.0L62.7,63.8L63.6,63.8L64.0,63.9L64.3,64.2L64.3,64.6L63.8,64.9L63.1,64.9L62.6,64.6L62.3,64.2Z M58.5,64.0L58.9,63.7L60.0,63.8L60.5,64.1L60.5,64.4L60.2,64.9L59.7,65.0L59.4,64.9L58.9,64.5Z M55.0,63.9L55.3,63.7L56.3,63.8L56.7,64.0L56.8,64.4L56.3,64.8L55.7,64.7L55.0,64.1Z M51.3,63.9L51.6,63.6L52.5,63.7L53.0,64.0L53.0,64.4L52.6,64.7L51.9,64.7L51.3,64.2Z M81.4,62.7L81.7,63.0L81.6,63.3L81.1,63.6L80.6,63.5L80.5,63.0L80.8,62.7Z M54.4,62.5L54.9,62.6L55.0,62.9L54.3,62.7Z M51.0,60.9L51.2,60.9L51.5,61.2L53.6,62.1L53.6,62.4L53.2,62.4L52.4,61.8L51.9,61.8L51.0,61.2Z M39.6,60.8L40.1,61.3L40.3,61.8L40.3,62.4L40.1,62.9L39.7,63.3L39.4,63.4L38.7,63.4L38.2,63.2L37.8,62.7L37.8,61.7L38.4,61.0L38.8,60.8Z M40.2,58.1L40.5,58.2L40.4,58.4L40.2,58.3Z M116.2,56.9L116.3,56.9L116.4,57.2L116.1,57.0Z M95.9,56.0L96.2,55.7L96.5,55.7L96.7,56.0L96.6,56.3L96.2,56.3L95.9,56.1Z M17.4,55.4L17.6,55.6L17.5,56.2L17.6,57.2L17.6,57.6L16.9,58.1L15.3,58.1L15.0,57.9L14.9,57.5L14.9,56.7L15.3,56.3L16.5,55.9L17.1,55.4Z M50.6,55.4L50.7,55.2L51.5,55.3L53.6,57.1L55.9,58.3L57.9,58.9L59.2,59.1L60.2,59.1L60.6,59.5L60.6,59.6L60.4,59.8L59.2,59.9L58.8,60.1L57.6,60.1L56.8,60.4L56.3,60.4L55.6,60.1L54.9,60.1L54.7,59.8L53.8,59.5L52.3,58.3L52.1,57.9L51.5,57.5L51.0,56.3L50.7,55.9Z M85.2,55.1L85.9,55.1L86.4,55.5L86.6,56.1L86.6,56.7L86.4,56.9L85.7,57.0L85.2,56.6L85.2,55.9L85.0,55.3Z M112.3,54.3L112.6,54.7L112.6,55.2L112.9,55.7L112.9,56.1L112.5,56.6L112.3,57.1L112.3,57.7L112.4,58.1L112.4,58.4L111.8,59.1L111.7,59.5L111.7,60.1L111.9,60.6L111.9,61.0L111.5,61.8L111.5,62.7L110.9,63.8L110.9,64.9L110.4,65.8L110.1,67.0L109.5,67.7L109.4,68.7L108.6,70.1L108.6,70.6L107.7,72.1L107.5,72.8L106.9,73.5L106.5,74.4L105.6,75.2L105.2,76.2L104.3,76.9L103.6,77.8L103.1,78.1L102.2,79.1L101.4,79.3L100.5,80.1L99.4,80.1L98.8,80.7L98.3,80.8L97.4,80.8L96.6,81.3L95.6,81.2L95.3,81.4L94.5,82.0L93.5,81.9L92.5,82.6L91.4,82.5L90.8,82.7L90.2,82.7L89.8,82.5L89.0,82.5L88.6,82.7L87.6,82.7L87.8,85.6L87.7,85.9L87.5,86.0L87.2,85.8L87.2,85.5L87.2,83.9L86.9,83.4L86.0,82.7L85.7,82.2L85.7,79.5L85.5,77.7L85.2,76.9L85.2,76.3L85.3,76.1L85.6,76.0L86.0,76.8L86.3,78.4L86.4,78.3L86.6,77.8L86.6,70.1L86.8,57.9L87.1,57.8L87.3,58.0L87.6,58.7L88.4,59.5L90.1,60.7L92.1,61.8L94.5,62.9L95.0,63.0L95.4,63.3L100.7,65.0L103.2,65.7L106.2,66.1L107.7,65.9L108.1,65.5L108.5,64.9L110.3,61.2L110.3,60.5L110.6,59.7L110.6,58.7L110.4,57.0L110.0,56.1L109.9,55.2L110.3,54.7L111.0,54.2L111.7,54.1Z M71.8,54.0L72.5,53.9L72.8,54.0L72.9,54.4L72.7,54.6L72.2,54.6L71.8,54.3Z M116.0,54.0L116.1,53.7L116.8,53.7L117.2,53.9L117.1,54.2L116.4,54.2Z M57.6,53.7L57.7,53.7L58.0,54.0L58.0,54.3L57.7,54.6L57.5,54.6L57.3,54.3L57.3,54.0Z M45.8,53.7L46.2,53.4L47.6,53.2L48.1,53.4L49.0,54.4L49.2,54.9L49.2,55.5L48.9,55.7L48.6,55.8L47.7,55.7L47.1,55.2L45.8,54.0Z M98.2,54.3L98.8,53.7L99.9,53.7L100.5,52.9L100.8,52.9L101.1,53.1L101.4,54.1L102.0,55.0L102.9,54.9L103.5,55.4L104.3,55.4L104.6,55.5L104.7,56.0L104.7,57.2L104.3,57.7L103.7,58.1L102.4,58.1L101.7,57.9L100.0,56.6L99.0,56.6L98.5,56.5L97.9,55.9L97.9,55.0Z M55.1,52.8L56.2,52.8L56.4,53.0L56.2,53.5L56.2,54.5L56.1,54.6L55.2,54.3L54.7,53.9L54.7,53.2Z M79.1,52.8L79.2,52.6L79.7,52.4L80.2,52.6L80.2,52.8L80.0,52.9L79.3,52.9Z M19.2,52.5L19.5,52.3L19.9,52.3L20.6,52.8L20.8,52.7L21.1,52.7L21.4,53.1L21.9,54.0L22.4,54.6L23.7,54.9L24.5,55.5L24.6,55.8L24.4,56.1L24.0,56.5L22.8,56.9L21.6,56.9L21.3,56.7L21.1,56.0L20.8,55.6L20.5,55.7L19.9,56.2L18.9,56.0L18.6,55.6L18.7,53.5Z M109.7,52.2L110.0,52.0L110.5,52.0L111.1,52.5L111.1,52.7L111.0,52.8L110.4,52.8L109.9,52.6Z M56.3,51.6L56.8,51.2L57.3,51.2L57.7,51.5L57.6,51.9L57.3,52.0L56.5,52.0L56.3,51.9Z M21.1,51.4L21.4,51.0L22.0,51.0L22.4,51.3L22.5,51.6L22.2,52.0L21.7,52.0L21.1,51.7Z M103.6,50.5L103.5,51.2L102.6,52.2L102.0,52.3L101.5,52.3L101.1,52.2L101.1,51.6L101.6,51.1L102.9,50.3L103.4,50.3Z M58.8,49.2L59.1,49.4L59.2,50.9L59.7,51.6L59.7,51.7L59.4,52.0L58.8,51.9L58.6,50.9L58.2,51.0L57.8,50.9L57.6,50.8L57.6,50.5L57.9,50.1L58.1,49.6Z M85.4,48.8L86.0,49.0L86.8,49.4L87.7,50.0L88.3,50.8L88.5,51.4L88.6,52.4L88.3,53.1L88.3,53.9L88.0,55.1L88.0,55.4L87.6,55.8L87.3,55.8L87.2,55.7L87.0,55.2L86.2,54.3L86.1,53.6L85.9,53.4L85.4,53.3L85.1,53.1L85.2,52.4L84.9,51.7L84.9,51.2L85.2,51.0L86.1,51.0L86.6,50.5L86.5,50.1L86.0,49.7L85.4,49.8L85.1,49.6L85.0,49.2Z M33.4,48.8L33.6,48.8L33.6,49.1L33.3,49.4L33.0,49.4L32.6,49.7L32.5,50.3L33.0,50.8L33.6,50.8L34.0,51.3L34.1,52.3L34.5,52.8L34.4,53.1L33.0,53.2L32.2,54.2L31.7,55.3L31.5,55.9L31.2,56.0L31.0,55.7L31.0,54.7L31.1,54.4L31.1,54.0L30.8,53.5L30.8,52.8L31.0,52.1L31.0,51.4L31.2,50.8L31.7,49.7L32.2,49.2L32.9,48.8Z M40.7,47.9L40.9,47.6L41.5,47.6L42.0,47.8L42.3,48.1L42.3,48.2L41.9,48.5L41.3,48.5L41.0,48.3L40.7,48.0Z M19.4,45.9L19.9,45.6L21.4,45.3L22.1,45.9L24.0,47.0L25.2,48.1L25.4,48.8L27.5,51.1L27.7,51.5L27.7,51.9L27.5,52.0L27.2,52.0L26.9,51.7L26.3,50.7L25.2,49.6L23.6,48.6L22.9,48.5L21.7,47.3L19.7,46.5L19.4,46.2Z M92.1,49.5L92.1,49.3L92.4,48.9L93.6,48.0L94.8,47.0L96.0,46.3L96.5,45.9L96.7,45.4L96.7,45.0L96.5,44.7L96.5,44.4L97.4,44.4L100.7,45.4L101.6,45.9L102.1,46.5L102.5,46.5L103.1,46.2L104.2,46.5L104.8,46.9L105.3,47.5L105.2,47.9L105.1,48.1L104.3,48.2L103.7,47.8L102.4,47.3L101.7,47.0L100.9,46.7L100.2,46.7L99.5,47.0L96.5,47.6L95.8,47.9L94.7,48.1L93.6,48.7L92.7,49.5Z M77.6,41.5L78.1,41.5L78.2,41.5L78.2,41.8Z M73.6,41.2L74.7,41.2L75.3,41.5L75.2,41.6L73.9,41.5L73.6,41.4Z" fill="#000" fill-rule="evenodd"/>
</svg>