<svg xmlns="http://www.w3.org/2000/svg" viewBox="0 0 128 128" width="128" height="128">
  <path d="M119.2,53.3L118.9,53.0L115.3,52.9L114.4,52.8L112.6,52.9L111.1,52.7L109.7,52.8L106.4,52.6L99.7,52.4L98.9,52.3L96.8,52.3L94.9,52.1L94.7,51.8L94.7,51.4L95.8,49.5L95.9,49.2L97.1,46.9L98.0,43.6L98.1,41.5L97.4,39.2L96.6,37.7L96.0,36.9L94.9,35.9L93.7,35.1L92.1,34.3L90.4,33.8L88.5,33.6L87.4,33.7L85.5,34.1L83.5,35.0L82.2,35.9L81.0,37.1L77.1,42.5L76.3,43.9L75.5,44.9L75.2,45.6L74.7,46.1L74.1,47.1L73.6,47.8L71.7,50.6L71.3,51.1L70.7,51.3L69.5,51.3L68.8,51.1L65.2,51.1L60.7,50.8L58.0,50.8L57.2,50.7L54.1,50.7L51.2,50.5L48.5,50.5L47.8,50.3L38.5,50.1L36.0,49.9L32.2,49.8L31.6,49.7L26.4,49.7L22.4,49.5L20.3,49.5L19.5,50.5L17.5,54.5L17.0,55.1L16.8,55.6L16.3,56.4L15.5,58.3L14.7,59.4L13.9,61.2L12.3,64.1L11.8,64.9L11.0,66.5L9.7,68.7L9.0,70.3L9.0,70.5L9.5,70.9L11.5,71.1L14.9,71.2L15.9,71.3L18.0,71.4L19.5,71.6L21.4,71.6L22.4,71.8L26.3,71.9L27.3,72.1L33.3,72.2L36.0,72.4L42.1,72.5L43.9,72.7L49.3,72.7L51.2,72.8L57.9,72.9L62.4,73.1L68.5,73.1L69.9,73.2L70.6,73.3L72.0,73.3L72.2,73.6L71.9,73.9L71.2,74.2L69.0,75.7L67.4,77.4L65.8,80.4L65.3,82.4L65.3,84.4L65.6,87.3L66.7,89.8L68.0,91.2L68.2,91.3L69.7,92.7L70.3,93.1L70.9,93.3L72.0,94.0L73.9,94.5L76.3,94.5L77.6,94.4L79.9,93.7L81.1,93.1L82.8,91.9L84.0,90.8L84.8,89.7L86.1,87.6L86.7,86.3L86.9,86.0L87.0,85.6L87.2,85.4L87.7,84.5L88.1,83.3L88.9,81.8L89.0,81.5L89.6,80.3L90.7,77.9L91.3,76.7L91.9,75.1L92.3,74.4L92.7,73.9L93.1,73.7L97.7,73.7L107.6,74.0L108.2,73.8L109.4,71.8L109.6,71.2L110.3,70.2L110.4,69.7L110.7,69.3L113.3,64.6L113.9,63.6L115.4,60.9L115.9,60.1L116.1,59.6L116.3,59.3L116.5,58.9L116.8,58.5L116.9,58.0L119.2,53.7Z M78.1,74.1L78.4,74.3L79.0,74.3L81.0,75.2L82.4,76.2L84.0,77.8L85.1,79.5L85.9,81.6L86.0,82.5L86.0,84.2L85.8,85.7L85.1,87.6L84.5,88.8L84.0,89.3L83.7,89.9L82.4,91.1L80.5,92.3L78.8,93.0L76.6,93.5L74.7,93.5L73.6,93.2L73.1,93.1L72.3,92.7L71.5,92.5L70.6,92.0L68.8,90.5L67.7,88.9L66.9,87.4L66.4,85.8L66.3,84.5L66.1,83.9L66.4,81.9L66.8,80.4L67.2,79.4L67.9,78.4L68.9,77.1L70.1,76.1L70.9,75.5L72.6,74.7L74.0,74.3L74.8,74.3L75.6,74.0Z M83.5,71.6L85.6,69.5L86.4,68.2L87.0,67.1L87.3,66.8L87.5,66.3L88.0,65.2L89.0,63.0L89.3,62.4L89.4,62.0L89.7,61.7L89.9,61.2L91.3,58.4L91.8,57.1L92.3,56.2L92.5,56.0L92.6,55.5L93.1,54.5L93.8,53.7L94.1,53.6L98.9,53.8L100.3,53.7L102.1,53.9L105.1,53.9L105.6,54.0L106.6,54.0L107.8,54.1L110.6,54.1L111.4,54.3L116.0,54.4L116.3,54.5L116.5,54.7L116.5,55.1L116.1,56.1L115.7,56.5L114.6,58.7L113.6,60.4L112.2,63.0L111.2,64.6L111.2,64.9L109.4,67.9L109.0,68.9L107.7,70.9L107.3,71.7L106.8,72.4L106.1,72.5L100.7,72.5L100.2,72.4L97.8,72.3L90.9,72.3L89.4,72.1L83.9,72.0L83.7,71.9Z M76.1,52.9L78.5,52.9L79.9,53.2L81.6,53.9L81.9,54.1L82.4,54.3L83.0,54.7L84.7,56.2L85.9,57.9L86.8,59.8L87.2,61.5L87.2,63.3L86.8,65.3L86.1,67.1L85.1,68.8L84.0,69.9L81.7,71.4L79.9,72.2L78.5,72.5L75.0,72.5L72.3,71.7L71.7,71.3L70.4,70.4L68.8,68.7L68.3,67.7L67.2,65.2L67.1,63.6L67.1,62.3L67.2,61.0L67.4,60.8L67.5,60.1L67.9,58.8L69.0,56.9L70.7,55.3L71.0,55.1L72.3,54.2L74.6,53.2Z M12.0,68.8L13.9,65.2L14.3,64.3L14.8,63.6L15.4,62.3L16.1,61.1L16.4,60.4L16.9,59.6L17.1,59.1L17.4,58.8L17.5,58.3L18.2,57.0L18.7,55.9L19.8,54.3L20.0,53.7L20.7,52.6L20.8,52.2L21.3,51.4L21.7,51.1L26.8,51.1L35.8,51.6L41.9,51.7L42.9,51.9L50.0,52.0L57.3,52.4L59.7,52.4L60.5,52.6L69.0,52.8L69.6,53.0L69.9,53.3L69.9,53.5L69.5,53.8L69.5,54.0L68.7,55.2L68.0,56.4L68.0,56.8L67.6,57.2L66.7,59.0L66.2,60.7L66.2,61.5L66.0,62.7L66.1,64.7L66.7,66.6L67.8,68.9L68.5,70.0L69.6,71.1L69.6,71.3L69.3,71.5L55.8,71.2L54.1,71.1L49.6,71.1L48.5,70.9L46.5,71.0L42.4,70.8L41.6,70.8L40.6,70.7L38.7,70.7L36.8,70.5L29.6,70.4L27.0,70.2L17.3,69.7L16.6,69.6L13.3,69.5L12.2,69.3L12.0,69.1Z" fill="#000" fill-rule="evenodd"/>
</svg>