<svg xmlns="http://www.w3.org/2000/svg" viewBox="0 0 128 128" width="128" height="128">
  <path d="M9.6,53.8L9.3,74.2L9.3,96.6L9.2,97.8L9.2,106.0L9.3,106.7L9.8,107.1L16.5,107.0L17.8,107.2L25.5,107.2L29.7,107.3L31.2,107.3L34.2,107.4L46.5,107.6L49.1,107.5L50.7,107.7L58.2,107.6L79.2,107.9L90.1,107.9L95.4,108.1L98.5,108.0L104.1,108.2L111.0,108.1L113.2,108.2L117.5,108.2L118.0,108.1L118.4,107.8L118.7,97.8L118.8,81.7L119.1,59.2L118.7,58.7L118.4,58.6L113.9,58.6L112.6,58.4L112.7,58.1L115.1,58.1L116.3,58.0L118.8,57.9L119.0,57.7L119.1,55.2L118.8,54.8L118.5,54.6L115.7,54.5L114.8,54.4L106.5,54.4L106.1,54.5L105.9,55.0L106.0,57.7L106.6,58.0L107.6,58.1L107.8,58.3L107.4,58.6L106.2,58.6L105.9,59.0L105.7,71.2L105.4,73.1L104.6,76.3L103.7,78.4L103.5,78.7L102.8,80.1L101.5,82.0L99.1,84.5L97.2,86.1L95.0,87.3L91.8,88.6L90.3,88.8L89.9,89.0L88.6,89.3L85.4,89.3L83.6,89.1L81.6,88.4L80.9,88.4L80.5,88.1L79.3,87.8L79.1,87.6L78.7,87.5L76.9,86.6L74.7,85.1L72.5,83.0L70.4,80.1L69.5,78.3L68.5,75.7L67.8,72.6L67.6,70.8L67.7,54.5L67.3,54.1L66.0,53.9L64.7,54.0L62.9,53.8L49.8,53.7L48.1,53.6L46.5,53.7L38.8,53.5L36.2,53.6L18.0,53.2L10.3,53.2L9.9,53.4Z M108.1,58.1L112.1,58.1L112.2,58.1L112.2,58.5L108.5,58.6L108.1,58.4Z M13.7,57.7L14.1,57.3L14.9,57.2L22.1,57.4L22.6,57.7L22.7,60.0L22.6,77.1L22.8,79.3L23.1,80.1L23.2,81.2L23.7,82.6L24.8,84.8L26.2,86.9L27.0,87.9L28.8,89.6L31.1,91.1L33.1,92.0L35.8,92.7L38.1,92.9L40.3,92.9L42.8,92.4L44.2,91.8L44.9,91.6L47.0,90.5L47.5,89.9L48.0,89.7L48.5,89.3L50.1,87.9L51.0,86.8L52.3,84.8L53.3,82.9L53.9,81.1L54.4,78.4L54.4,75.4L54.6,74.4L54.5,72.5L54.7,59.9L54.9,58.1L55.2,57.9L62.1,57.8L63.0,57.9L63.5,58.2L63.7,58.8L63.6,70.3L63.8,72.3L64.2,74.8L64.7,76.8L65.8,79.8L67.8,83.4L69.4,85.4L71.1,87.2L72.4,88.4L75.1,90.2L76.4,90.9L76.7,91.1L78.2,91.7L78.7,92.0L79.6,92.2L80.3,92.5L81.4,92.7L82.3,93.0L84.4,93.3L88.6,93.3L89.8,93.1L90.4,93.1L92.7,92.4L93.1,92.4L95.0,91.8L97.7,90.5L99.0,89.7L99.8,89.0L100.9,88.3L103.9,85.2L105.5,83.2L107.1,80.4L108.1,77.7L108.4,77.4L108.5,76.4L108.9,75.6L109.6,71.5L109.7,63.3L109.8,62.5L110.2,62.2L113.6,62.2L114.0,62.5L114.2,63.0L114.3,64.9L114.1,66.4L114.1,72.6L113.9,75.5L113.9,83.5L113.9,84.9L113.8,88.4L113.7,100.2L113.5,103.3L113.4,103.6L113.1,103.7L107.5,103.8L104.6,103.7L98.9,103.7L71.3,103.4L65.9,103.5L64.7,103.3L41.6,103.2L13.8,102.6L13.4,102.1L13.2,100.3L13.2,95.4L13.4,91.8L13.3,89.7L13.6,88.8L13.6,87.9L13.4,87.5L13.4,79.6L13.6,73.8L13.4,71.3L13.6,69.0L13.5,67.4L13.7,63.4Z M27.1,54.5L31.3,54.4L42.1,54.6L46.9,54.5L49.9,54.6L50.2,54.7L50.6,55.0L50.6,76.2L50.2,79.3L49.5,81.6L48.7,83.2L47.8,84.3L45.8,86.3L43.1,87.9L41.7,88.4L39.9,88.6L39.5,88.8L36.7,88.8L34.3,88.0L33.6,87.6L33.4,87.6L32.4,87.1L30.7,85.9L29.0,84.0L27.6,81.6L27.1,80.2L26.6,78.3L26.7,57.3L26.8,54.9Z M118.8,53.6L118.8,53.2L118.3,53.0L92.7,52.7L92.3,52.5L92.3,52.3L92.6,52.0L94.9,50.9L97.6,48.9L99.7,46.6L100.3,45.7L101.8,42.8L102.4,41.3L102.4,41.0L102.9,39.4L103.0,36.9L103.0,34.4L102.5,32.0L102.1,31.2L102.0,30.4L101.2,28.7L99.5,26.0L97.7,24.0L95.9,22.6L93.8,21.4L91.4,20.5L87.5,19.9L85.9,19.9L83.0,20.4L80.7,21.2L78.8,22.2L77.9,22.9L77.1,23.4L74.7,25.8L73.7,27.3L72.4,29.7L71.4,32.7L71.1,35.1L71.2,38.6L71.9,41.6L73.1,44.5L74.2,46.2L76.5,48.9L79.8,51.3L80.6,51.7L81.5,51.9L81.7,52.1L81.7,52.3L81.5,52.5L67.7,52.5L64.2,52.3L56.6,52.3L54.1,52.2L41.7,52.2L38.6,52.0L30.0,52.0L29.1,51.8L25.4,51.9L15.9,51.7L10.1,51.7L9.8,51.8L9.7,52.3L9.9,52.4L10.7,52.6L16.8,52.7L37.3,52.8L39.9,53.0L41.4,52.9L44.8,53.1L51.2,53.1L63.3,53.3L73.0,53.2L81.2,53.5L81.5,53.6L81.6,53.9L81.4,54.1L80.5,54.5L79.3,55.0L78.4,55.7L77.9,55.9L77.3,56.5L76.9,56.7L76.2,57.2L74.1,59.5L72.7,61.7L71.7,63.9L70.9,66.7L70.7,68.5L70.8,72.1L71.4,74.6L71.6,75.0L71.9,76.1L73.0,78.4L74.8,80.8L76.4,82.5L78.3,83.9L80.9,85.2L81.4,85.2L82.4,85.7L85.6,86.2L87.4,86.2L89.5,86.0L91.8,85.3L94.5,84.1L96.8,82.5L99.0,80.2L100.3,78.4L101.7,75.5L102.2,73.6L102.6,71.2L102.6,67.7L101.8,64.4L100.4,61.2L99.2,59.5L97.1,57.2L96.1,56.4L94.1,55.1L92.1,54.2L91.9,54.1L91.9,53.8L92.1,53.6L99.1,53.6L104.8,53.6L107.0,53.8L110.7,53.7L117.6,53.9L118.5,53.8Z M85.9,57.4L88.4,57.6L90.4,58.1L92.2,58.8L94.1,60.1L95.9,61.9L96.7,63.0L97.6,64.8L98.5,67.3L98.6,69.5L98.5,71.6L97.8,74.3L96.9,76.2L95.2,78.4L93.5,79.8L92.7,80.3L92.1,80.6L91.8,80.8L90.4,81.4L89.8,81.5L89.4,81.7L87.1,82.1L84.3,81.8L83.1,81.3L81.9,81.1L80.6,80.4L78.7,79.0L77.2,77.3L75.7,74.8L75.1,72.9L74.6,70.0L74.9,67.3L75.5,65.0L76.4,63.2L77.8,61.4L78.8,60.4L79.9,59.5L81.4,58.6L84.1,57.7Z M86.4,24.0L88.0,24.0L90.5,24.5L91.3,24.9L92.2,25.2L94.5,26.6L96.1,28.2L97.2,29.6L98.2,31.7L98.7,33.2L99.0,34.6L99.0,36.9L98.8,39.1L98.0,41.5L96.9,43.5L96.0,44.6L94.8,45.9L93.7,46.7L93.0,47.0L92.3,47.5L91.5,47.8L90.9,48.1L88.7,48.7L85.9,48.7L84.1,48.4L82.5,47.8L81.0,47.1L80.5,46.7L80.2,46.6L79.1,45.6L77.3,43.7L75.9,40.9L75.1,38.0L75.1,35.6L75.3,33.5L76.0,31.4L76.8,30.0L77.8,28.4L79.8,26.5L81.5,25.4L83.6,24.6Z" fill="#000" fill-rule="evenodd"/>
</svg>