<svg xmlns="http://www.w3.org/2000/svg" viewBox="0 0 128 128" width="128" height="128">
  <path d="M57.7,10.0L52.0,10.9L47.8,12.0L44.5,13.3L42.6,13.8L42.1,14.2L38.8,15.8L38.6,16.0L37.7,16.4L35.6,17.7L34.0,18.5L33.7,18.9L31.6,20.2L31.1,20.7L30.1,21.3L25.5,25.4L25.0,26.2L22.2,29.0L21.5,30.1L20.5,31.1L18.5,34.0L18.1,34.4L17.1,36.0L14.9,40.1L14.9,40.4L14.2,41.6L14.1,42.2L13.2,43.8L13.1,44.3L12.5,45.6L11.8,48.0L11.7,48.6L11.4,49.4L11.3,50.0L11.0,50.7L10.8,51.8L10.5,52.6L10.4,53.6L10.0,55.4L10.0,56.9L9.5,59.0L9.4,62.5L9.2,63.3L9.3,67.1L9.5,69.1L9.8,70.8L10.0,73.3L10.2,74.3L10.4,74.6L10.7,76.5L10.9,77.0L12.0,81.1L12.6,82.5L13.1,84.6L14.7,88.3L16.0,90.5L16.3,91.1L17.2,92.5L17.3,92.8L21.1,98.2L25.1,102.6L26.7,104.0L27.3,104.7L31.0,107.7L35.3,110.6L35.7,110.8L37.9,112.1L40.8,113.6L42.1,114.0L43.9,114.9L44.6,115.0L46.0,115.7L49.7,116.8L50.1,116.8L53.3,117.6L54.5,117.6L56.3,118.0L58.0,118.1L58.9,118.4L66.1,118.5L68.0,118.1L69.8,118.0L71.9,117.6L72.7,117.6L74.3,117.2L75.2,117.2L76.4,116.8L77.3,116.7L79.4,115.9L81.7,115.3L82.1,115.0L83.5,114.6L84.6,114.1L86.0,113.7L89.3,112.0L90.3,111.3L92.2,110.3L93.0,109.8L93.5,109.6L95.6,108.2L96.0,107.8L98.1,106.4L100.9,104.0L104.3,100.5L107.8,96.4L110.2,93.0L110.3,92.5L110.7,92.2L111.0,91.5L111.4,91.0L112.1,89.4L112.5,89.1L114.0,86.0L114.3,85.6L115.3,83.7L115.7,82.4L116.5,80.7L117.2,78.3L117.5,77.0L117.7,76.6L118.0,75.5L118.3,74.7L118.6,72.6L118.7,69.8L118.9,67.1L118.9,61.9L118.8,60.6L118.6,60.3L117.9,54.5L117.2,52.2L117.0,50.7L116.3,49.0L116.0,47.4L115.7,46.8L115.6,46.2L115.2,45.4L114.6,43.6L112.0,37.9L110.6,35.7L109.5,34.2L108.6,32.6L106.7,30.3L106.5,29.9L105.8,29.2L105.2,28.4L100.8,23.9L99.0,22.4L95.0,19.4L92.3,17.8L90.7,16.7L88.4,15.5L81.6,12.6L80.4,12.4L79.9,12.1L79.3,12.1L78.2,11.7L77.0,11.5L76.4,11.2L75.2,11.1L74.5,10.8L71.5,10.5L70.8,10.3L69.6,10.3L69.0,10.1L67.9,10.1L67.3,10.0L66.1,10.0L65.0,9.8Z M59.3,42.7L60.8,42.6L62.9,42.3L65.7,42.3L68.2,42.8L68.8,42.8L69.6,43.1L70.6,43.3L71.7,43.7L74.7,45.1L75.0,45.5L76.2,46.1L78.6,47.8L80.1,49.4L80.7,50.3L82.0,51.9L83.7,54.7L83.7,55.0L84.4,56.5L85.0,58.7L85.2,59.2L85.4,61.0L85.6,61.4L85.8,62.6L85.7,66.5L85.0,70.0L84.3,72.0L83.5,73.7L83.4,74.1L82.9,74.8L82.0,76.4L80.5,78.3L77.8,81.0L75.0,82.9L73.6,83.7L72.9,83.8L71.6,84.6L71.3,84.6L70.5,85.0L68.8,85.4L67.8,85.5L66.9,85.9L61.4,85.9L57.4,85.0L53.9,83.5L50.8,81.6L49.1,80.1L47.6,78.6L45.2,75.2L44.5,73.9L43.4,71.1L42.7,68.8L42.2,66.4L42.3,61.5L42.6,59.7L43.0,58.6L43.4,57.1L43.9,55.7L45.1,53.4L46.2,51.6L48.1,49.1L50.4,47.1L53.1,45.1L54.6,44.3L56.7,43.4L58.4,43.0Z M63.3,11.7L63.7,11.8L63.9,12.3L63.8,12.6L63.2,13.0L63.0,13.5L62.7,16.0L62.3,17.6L62.3,19.0L61.9,20.2L61.8,21.3L61.4,22.2L61.4,23.1L61.0,23.8L60.8,25.0L60.5,25.5L60.3,26.7L60.1,27.2L60.0,27.9L59.6,28.6L59.3,29.6L58.6,31.4L57.8,32.7L57.3,34.0L57.0,34.4L56.7,35.1L56.1,36.1L55.9,36.6L53.9,39.9L53.4,40.4L52.5,41.9L51.1,43.5L50.3,44.8L49.7,45.3L47.6,47.7L44.6,50.7L44.3,50.9L42.6,52.4L40.4,53.9L39.3,54.9L38.3,55.4L37.4,56.1L36.9,56.3L34.7,57.8L32.6,58.7L32.2,59.0L28.7,60.4L28.4,60.6L27.9,60.7L24.5,62.0L23.4,62.3L21.8,62.9L20.1,63.4L19.1,63.5L18.2,63.8L16.0,64.2L12.6,64.6L12.3,64.9L12.3,65.1L13.0,65.3L15.3,65.4L21.4,66.3L21.6,66.5L23.7,66.9L25.6,67.5L26.5,67.7L27.0,67.9L27.3,67.9L30.1,69.0L33.1,70.2L38.8,73.3L41.4,75.2L43.0,76.2L43.5,76.7L44.1,77.0L45.8,78.6L46.4,79.0L49.4,82.0L52.8,85.8L54.6,88.4L55.1,88.9L55.9,90.4L58.0,93.5L60.0,97.5L60.2,98.5L61.2,100.5L61.5,101.8L62.2,103.5L63.6,108.8L63.7,110.9L64.1,113.3L64.4,114.1L64.8,114.1L64.9,113.9L65.0,112.3L65.5,109.5L67.4,101.6L68.7,97.9L69.2,97.0L69.3,96.6L70.5,94.1L70.7,93.6L71.7,91.6L72.3,90.6L73.3,89.3L74.7,87.0L75.2,86.5L75.9,85.4L76.6,84.6L76.9,84.1L80.7,79.9L83.3,77.4L87.2,74.6L87.6,74.1L88.8,73.4L89.8,72.6L96.0,69.2L97.0,68.9L98.5,68.1L99.2,67.9L100.1,67.4L101.6,67.0L102.2,66.7L107.3,65.4L108.7,65.3L114.6,64.0L115.2,63.6L115.2,63.4L114.6,63.1L113.3,62.9L110.3,62.7L109.0,62.3L107.4,62.1L106.2,61.7L105.1,61.5L104.8,61.4L104.2,61.3L102.6,60.7L100.5,60.2L99.7,59.8L99.2,59.7L96.3,58.5L95.7,58.4L90.6,55.7L87.1,53.3L86.9,53.3L83.9,50.9L81.7,48.9L81.4,48.7L80.4,47.7L80.3,47.4L77.9,45.1L76.9,43.8L75.5,42.3L71.5,36.5L69.6,32.9L68.7,31.0L68.7,30.8L68.3,30.3L68.2,29.7L67.0,27.0L66.2,24.1L66.1,23.8L66.1,23.5L65.4,21.4L65.3,20.4L64.8,18.5L64.8,18.0L64.2,15.8L64.1,13.8L64.3,13.6L64.4,13.6L64.8,14.0L66.0,17.2L66.9,18.8L67.2,19.8L69.5,24.1L70.1,25.6L71.0,26.9L73.2,30.7L74.8,33.1L75.1,33.6L77.4,36.9L79.1,38.6L80.1,39.9L82.2,42.1L86.4,46.3L89.3,48.7L90.1,49.2L92.7,51.3L93.9,52.0L94.5,52.5L98.1,54.9L98.7,55.0L102.0,57.0L107.1,59.5L109.5,60.3L114.8,62.7L115.7,62.9L116.8,63.0L117.2,63.2L117.2,63.5L116.7,63.9L115.2,64.3L114.1,64.9L112.6,65.3L110.4,66.6L108.6,67.2L108.5,67.4L105.6,68.6L104.8,69.1L104.4,69.2L104.0,69.6L103.5,69.7L98.7,72.5L97.9,73.1L95.1,74.9L94.4,75.6L93.7,75.9L92.6,76.9L91.1,77.8L90.6,78.4L90.1,78.6L89.2,79.4L88.4,80.2L87.6,80.7L86.7,81.8L86.4,81.9L82.8,85.4L82.6,85.7L81.0,87.3L80.3,88.3L79.1,89.6L78.4,90.7L77.5,91.7L77.3,92.1L76.6,92.9L76.4,93.5L75.2,95.0L74.4,96.4L74.1,96.7L72.7,99.1L72.0,100.0L70.2,103.5L69.9,104.5L69.5,105.1L68.3,107.3L65.4,114.6L65.3,115.2L64.9,116.0L64.9,116.3L64.6,116.8L64.2,116.7L63.9,116.3L63.1,113.7L62.4,112.5L62.0,111.2L61.2,109.5L61.0,108.7L59.8,106.6L59.5,105.6L58.7,104.3L58.6,103.9L57.9,102.6L57.6,101.8L56.0,99.3L55.5,98.7L55.1,97.8L53.7,95.7L53.1,95.1L52.8,94.4L50.6,91.8L49.2,89.9L46.8,87.2L43.8,84.2L42.5,83.2L40.7,81.4L40.0,81.0L38.5,79.5L38.3,79.4L36.1,77.7L35.5,77.3L35.0,76.9L33.8,76.0L32.7,75.5L29.6,73.4L29.3,73.4L28.4,72.7L25.2,71.2L23.9,70.4L21.1,69.2L19.8,68.5L19.1,68.3L18.8,68.1L18.1,67.9L17.5,67.6L16.4,67.4L14.9,66.7L11.6,65.6L11.1,65.3L10.9,64.9L11.2,64.5L19.8,60.9L21.1,60.0L23.0,59.2L24.7,58.2L26.0,57.6L29.3,55.5L30.6,54.9L31.9,53.8L34.0,52.6L35.3,51.4L36.7,50.5L38.1,49.4L41.1,46.5L41.6,46.2L45.5,42.3L48.6,38.7L48.7,38.5L50.2,36.9L51.9,34.6L52.7,33.1L53.0,32.7L53.6,31.7L54.7,30.1L55.0,29.4L55.7,28.4L56.3,27.3L56.6,27.0L57.1,25.8L58.9,22.4L59.8,20.0L60.5,18.9L61.8,14.9L62.7,12.9L62.9,12.2Z" fill="#000" fill-rule="evenodd"/>
</svg>