<svg xmlns="http://www.w3.org/2000/svg" viewBox="0 0 128 128" width="128" height="128">
  <path d="M53.0,46.5L50.2,47.2L48.6,47.8L46.6,48.8L45.7,49.5L45.4,49.6L45.0,49.9L44.6,50.1L43.7,50.8L42.0,52.5L41.0,53.8L39.4,56.2L38.6,58.0L38.5,58.6L38.2,59.2L38.0,60.1L37.7,61.0L37.2,64.0L37.3,67.3L37.8,69.5L37.8,70.1L38.1,70.6L38.3,71.4L39.0,73.3L40.2,75.5L41.6,77.3L42.7,78.6L45.2,80.7L47.4,82.1L48.5,82.6L51.6,83.6L53.9,83.9L54.3,84.0L56.4,84.0L58.7,83.8L60.8,83.3L61.0,83.1L62.8,82.5L65.5,81.0L67.9,79.1L69.3,77.8L70.6,76.0L72.2,73.2L73.0,71.3L73.6,69.2L74.0,65.9L73.9,63.8L73.7,61.8L73.1,59.4L72.6,58.3L72.2,57.6L72.2,57.4L71.8,56.4L70.8,54.6L68.9,52.2L66.4,50.0L65.0,49.1L63.2,48.0L61.2,47.3L58.3,46.6L56.4,46.4Z M118.7,16.4L118.1,16.2L110.2,16.4L105.7,16.3L96.9,16.6L77.8,16.8L71.1,17.0L65.7,17.0L60.0,17.3L53.4,17.3L48.3,17.7L47.6,18.0L46.0,18.1L45.1,18.5L44.6,18.5L43.4,18.9L42.7,19.0L42.0,19.3L40.8,19.6L37.3,20.9L33.3,22.9L31.6,24.0L30.5,24.6L30.0,25.0L27.2,26.9L23.5,30.2L23.2,30.7L20.9,33.0L18.1,36.5L15.4,40.8L13.4,45.1L11.4,50.3L11.2,51.3L10.9,52.2L10.3,54.6L10.3,55.2L10.1,55.9L9.8,58.1L9.5,59.0L9.3,62.6L9.3,68.4L9.5,71.1L10.0,73.7L10.9,77.8L11.5,79.7L11.9,80.5L12.3,82.1L13.2,84.2L15.6,89.0L15.9,89.4L16.2,90.1L17.8,92.5L19.6,95.0L21.7,97.5L24.1,99.9L26.2,101.7L29.5,104.3L32.2,106.0L34.6,107.2L35.2,107.6L35.6,107.7L37.2,108.5L37.5,108.5L39.9,109.5L41.3,109.9L42.3,110.3L43.1,110.4L45.8,111.1L49.8,111.8L54.9,112.1L58.4,112.0L61.5,111.6L67.7,110.2L71.5,108.9L74.2,107.7L74.7,107.6L78.4,105.5L82.8,102.5L86.3,99.4L90.3,95.3L92.7,92.1L95.3,88.1L97.0,84.5L98.8,80.1L99.9,76.4L100.0,75.6L100.2,75.0L100.5,72.9L101.2,70.4L101.7,69.1L103.0,67.2L104.0,66.2L105.2,65.3L106.9,64.5L109.4,64.0L111.3,64.0L112.3,63.8L114.4,63.8L115.6,63.6L118.3,63.5L118.8,63.2L119.0,62.3L119.0,45.6L118.6,45.1L118.0,44.9L115.4,44.9L113.5,45.1L110.9,45.0L107.4,45.1L104.5,45.4L101.1,46.4L99.2,47.2L98.6,47.6L98.1,47.7L95.4,49.2L93.6,50.6L91.3,52.5L89.4,54.5L89.3,54.7L88.5,55.6L87.0,58.0L86.6,58.4L86.4,58.9L86.1,59.2L85.2,61.1L85.1,61.6L84.7,62.3L84.7,62.5L84.2,63.2L83.3,66.2L83.0,68.5L82.5,70.1L82.5,70.8L82.0,72.4L82.0,72.9L81.5,74.2L81.5,74.5L80.9,76.3L78.5,80.7L76.4,83.6L73.4,86.7L72.0,87.7L71.6,88.1L67.9,90.4L66.5,91.0L65.8,91.4L61.8,92.8L58.2,93.4L53.5,93.5L52.2,93.3L51.4,93.3L47.8,92.5L46.8,92.1L45.7,91.8L44.9,91.4L44.4,91.3L44.0,91.0L43.6,90.9L41.0,89.4L38.9,88.0L35.7,85.0L34.6,83.9L32.7,81.3L31.1,78.7L29.4,74.9L28.6,71.9L27.9,67.9L27.8,64.5L28.2,60.6L28.9,57.2L29.4,56.3L30.1,53.8L31.5,50.9L32.7,49.1L33.0,48.7L33.2,48.3L35.0,46.0L37.3,43.7L39.1,42.2L42.2,40.2L44.8,38.9L47.3,38.0L50.3,37.2L53.5,36.8L56.0,36.8L58.2,36.6L60.2,36.7L65.4,36.4L83.4,36.2L86.0,36.0L94.7,35.9L96.7,35.8L100.4,35.8L103.8,35.7L118.5,35.5L118.8,35.2L118.9,34.9L119.0,20.3L118.9,17.1Z" fill="#000" fill-rule="evenodd"/>
</svg>