<svg xmlns="http://www.w3.org/2000/svg" viewBox="0 0 128 128" width="128" height="128">
  <path d="M9.8,74.3L10.2,77.1L11.1,79.6L11.1,80.1L11.4,80.5L11.7,82.0L12.8,84.3L13.4,86.2L13.7,86.8L13.8,87.3L14.5,88.3L15.3,90.2L15.9,91.1L17.2,93.3L17.3,93.6L18.2,94.7L18.5,95.4L18.9,95.8L19.4,96.7L23.0,101.1L24.9,103.1L26.6,104.4L27.6,104.9L28.8,105.1L29.6,105.5L31.3,105.7L31.8,105.9L32.3,105.9L34.8,106.5L40.4,107.0L45.9,107.0L46.9,106.9L48.2,106.6L49.6,106.7L51.9,106.1L53.0,106.1L55.2,105.6L57.1,105.1L57.5,104.8L59.6,104.3L60.0,104.1L62.3,103.4L64.4,102.3L66.2,101.7L67.2,100.9L68.1,100.7L68.9,100.3L69.6,99.7L70.6,99.3L71.3,98.6L72.0,98.4L72.6,97.7L73.7,97.2L75.1,96.0L75.9,95.5L77.2,94.5L77.6,93.9L78.8,93.0L80.7,91.2L81.1,90.7L83.7,87.8L85.0,86.1L84.9,85.9L84.1,86.0L82.3,87.6L81.5,87.9L80.6,88.6L79.3,89.1L78.7,89.7L77.1,90.3L76.4,90.8L75.7,91.2L74.8,91.4L74.2,91.7L73.6,91.9L72.2,92.7L70.7,93.1L70.2,93.4L68.6,93.8L66.8,94.4L63.5,95.3L61.8,95.4L59.5,96.0L57.6,96.0L56.6,96.3L55.3,96.2L54.6,96.4L49.4,96.3L43.9,95.6L38.6,94.4L37.0,93.8L35.7,93.5L34.8,93.2L33.8,92.6L30.4,91.3L24.9,88.3L20.3,85.1L16.7,82.0L12.6,77.6L12.3,77.1L11.5,76.3L11.3,75.8L10.6,75.1L10.2,74.1L9.9,74.1Z M90.5,48.9L90.3,48.9L90.6,49.3L90.6,49.9L91.1,51.3L91.3,51.5L91.9,53.3L92.0,54.7L93.1,58.5L93.1,60.2L93.3,61.1L93.4,63.1L93.6,64.2L93.6,70.5L93.5,72.8L93.2,73.6L93.2,74.4L93.1,74.9L93.1,76.1L92.7,77.2L92.7,78.2L92.4,78.7L92.2,80.0L92.0,80.3L91.3,83.4L90.9,84.1L90.4,85.9L90.0,86.6L89.9,87.1L89.6,87.7L88.5,90.4L86.7,94.0L83.5,98.9L82.0,100.6L81.1,102.0L78.8,104.4L76.7,106.4L75.1,108.0L69.3,112.4L68.1,112.8L67.7,113.3L66.4,113.9L65.6,114.6L64.6,114.9L63.0,115.8L61.8,116.2L61.2,116.5L57.6,117.7L56.1,118.0L56.0,118.1L56.0,118.5L56.3,118.7L58.0,118.8L58.6,118.9L59.5,118.9L60.1,119.0L60.9,118.9L61.7,119.0L62.6,118.9L63.1,119.1L63.7,119.1L64.2,118.9L68.1,118.9L68.9,118.6L72.0,118.4L72.8,118.0L74.5,118.0L75.3,117.6L76.1,117.6L78.4,117.0L79.0,116.7L79.7,116.6L80.3,116.3L81.2,116.1L82.4,115.7L85.0,114.4L86.6,113.9L87.6,113.2L88.2,113.0L88.9,112.6L89.3,112.5L90.5,111.6L91.7,110.0L93.6,106.5L94.0,106.0L94.7,104.6L95.3,103.5L95.5,102.9L96.2,101.6L96.9,99.6L97.2,99.1L97.4,98.1L98.0,96.6L98.2,95.6L98.6,94.6L98.6,94.3L98.9,93.4L99.6,90.8L99.7,89.2L100.1,88.2L100.1,86.5L100.3,86.2L100.3,85.2L100.5,84.7L100.6,81.2L100.5,80.7L100.6,79.6L100.5,75.0L100.1,73.7L100.1,71.6L99.7,70.4L99.4,68.9L99.3,67.5L98.1,63.1L97.9,62.7L97.6,61.9L97.0,60.6L96.2,58.3L95.6,57.3L95.2,56.5L95.0,55.8L94.5,54.9L94.3,54.6L93.6,53.2L92.9,52.3L92.6,51.5L91.9,50.7L91.7,50.2Z M64.4,38.7L63.7,38.7L63.1,38.9L62.1,38.8L60.3,39.1L59.5,39.1L57.6,39.4L56.0,40.0L51.9,41.8L50.9,42.5L50.2,42.8L49.9,43.2L49.1,43.6L48.3,44.3L47.2,45.0L46.2,45.9L44.3,48.0L43.6,49.2L43.1,49.7L42.1,51.3L40.6,54.2L39.1,58.8L39.0,60.7L38.7,62.3L38.6,64.5L38.7,65.7L38.7,67.1L39.0,67.9L39.1,69.1L39.4,69.6L39.6,70.9L39.9,71.6L40.0,72.6L40.4,73.3L40.9,74.6L41.4,75.7L42.2,76.7L42.2,77.2L43.2,78.5L43.3,78.8L44.0,79.6L44.5,80.4L46.9,82.9L48.9,84.5L49.5,84.7L49.8,85.1L50.0,85.1L51.7,86.3L53.2,86.9L53.8,87.3L55.1,87.8L55.7,87.8L56.1,88.1L57.3,88.3L58.1,88.6L61.3,89.1L63.1,89.2L64.2,89.1L65.9,89.1L67.4,88.7L68.8,88.7L72.4,87.7L73.6,86.9L74.0,86.9L74.5,86.5L75.0,86.5L76.0,85.9L76.3,85.6L77.0,85.3L78.1,84.3L78.7,84.0L79.3,83.4L79.6,83.3L83.2,79.6L83.3,79.1L85.0,77.0L85.8,75.3L86.2,74.8L86.4,73.9L86.7,73.5L87.2,72.2L87.4,71.3L87.9,70.1L88.4,67.8L88.5,65.3L88.7,64.8L88.7,62.7L88.3,59.2L86.8,54.2L86.4,53.2L85.8,52.3L85.0,50.7L84.5,50.2L84.3,49.6L82.2,47.0L79.9,44.8L77.8,43.1L73.8,40.9L71.9,40.2L71.5,40.0L70.6,39.8L69.4,39.4L68.5,39.4L66.9,38.9L64.9,38.9Z M58.3,33.6L58.3,33.8L58.5,33.9L59.9,33.7L62.5,33.7L68.1,34.2L68.8,34.4L70.4,34.6L70.9,34.8L71.8,34.9L76.9,36.3L78.5,37.1L80.5,37.7L81.0,38.1L81.5,38.1L82.1,38.5L83.6,39.1L85.4,40.0L86.9,40.9L87.9,41.6L89.2,42.3L92.3,44.5L95.9,47.6L100.5,52.3L103.5,56.2L103.6,56.6L104.1,57.1L104.5,57.9L105.3,58.8L105.6,59.7L106.3,60.6L106.9,62.0L107.7,63.3L108.1,64.6L109.1,66.2L110.3,69.9L110.9,72.5L111.1,72.6L111.1,73.0L111.3,73.5L112.2,77.2L112.2,78.5L112.7,80.4L112.7,82.4L113.0,83.0L113.0,86.4L112.7,86.9L112.7,87.6L113.1,87.5L113.5,86.0L113.9,85.5L114.0,84.7L114.4,83.9L114.5,83.5L115.4,81.3L115.8,79.8L116.1,79.1L116.6,76.9L116.9,76.4L117.3,73.9L117.6,72.8L117.6,72.2L117.9,71.1L117.9,70.2L118.1,69.5L118.2,67.0L118.3,66.6L118.3,59.9L118.1,59.1L118.2,57.8L117.8,56.2L117.7,54.2L117.4,53.2L117.1,52.4L116.6,51.9L116.3,51.4L115.5,50.6L115.4,50.4L113.9,48.6L110.3,44.9L107.9,42.8L107.0,42.3L106.1,41.4L104.7,40.5L103.7,39.7L99.7,37.2L96.9,35.9L96.5,35.8L95.8,35.3L94.6,35.0L94.1,34.6L93.9,34.6L92.9,34.2L92.1,34.0L91.6,33.7L90.4,33.3L89.4,33.1L88.7,32.8L87.6,32.6L86.8,32.3L85.4,32.1L84.8,31.9L82.4,31.6L81.5,31.3L80.6,31.3L79.3,31.1L77.1,30.9L76.4,31.0L75.9,30.8L71.1,30.9L70.5,31.1L68.5,31.2L67.5,31.4L66.3,31.4L64.4,31.7L63.2,32.1L62.1,32.3L61.5,32.5L60.1,32.7Z M37.3,15.3L34.9,17.0L34.3,17.3L33.2,18.1L32.4,18.5L32.1,18.9L31.1,19.5L30.5,20.0L29.6,20.6L27.0,22.9L22.5,27.5L21.0,29.5L20.3,30.2L19.1,32.0L18.0,33.5L17.5,34.4L16.9,35.3L15.8,37.2L15.2,38.8L14.5,40.1L14.0,41.5L14.0,47.1L14.4,48.5L14.5,50.8L14.8,51.7L14.9,52.4L15.3,53.4L15.6,55.4L16.2,57.1L16.4,58.2L16.9,59.1L17.1,60.0L17.8,61.8L18.0,62.5L19.2,64.7L19.4,65.6L20.1,66.6L20.7,67.9L21.5,69.0L21.9,69.7L22.7,70.9L22.9,71.5L23.6,72.2L25.7,75.1L26.7,76.3L27.2,76.7L28.8,78.5L30.6,80.2L32.2,81.8L32.7,82.2L33.4,82.8L35.7,84.6L37.3,85.6L39.0,86.9L40.0,87.3L41.1,88.1L41.6,88.2L41.9,88.6L42.5,88.7L43.9,89.5L44.3,89.6L45.6,90.4L47.5,91.0L48.2,91.4L48.7,91.5L49.2,91.8L50.4,92.1L51.1,92.1L51.4,92.2L51.6,92.0L51.0,92.0L50.8,91.6L49.2,90.6L46.2,88.2L45.4,87.4L44.8,87.1L42.4,84.7L41.4,83.9L40.5,82.7L39.6,81.9L38.2,80.0L37.8,79.2L37.3,78.7L36.1,77.0L35.9,76.5L35.3,75.8L34.9,75.0L34.2,74.1L33.5,72.6L32.9,71.7L32.3,70.1L31.8,69.0L31.5,68.8L31.0,67.6L30.9,66.8L30.6,66.5L30.5,65.5L29.1,61.4L27.9,56.5L27.9,55.5L27.5,53.6L27.5,51.7L27.2,51.0L27.3,49.5L27.1,48.9L27.1,46.2L27.7,39.8L28.0,38.9L28.1,37.4L28.3,36.8L28.5,35.4L29.3,32.7L29.5,31.7L29.9,30.8L30.0,30.2L30.9,27.6L31.3,27.1L31.8,25.4L32.2,25.0L32.3,24.4L32.7,24.0L33.5,22.2L33.7,21.6L34.4,20.5L34.7,19.9L36.0,17.8L37.5,15.9L37.6,15.5Z M101.8,23.8L97.8,20.4L97.1,20.0L95.7,19.0L94.8,18.2L92.9,17.0L89.1,15.0L88.7,14.7L88.4,14.6L88.0,14.3L86.3,13.6L85.0,12.9L83.2,12.2L82.8,12.0L82.2,11.8L81.8,11.6L80.9,11.4L80.3,11.1L79.6,11.0L78.1,10.5L77.7,10.5L76.8,10.1L75.9,10.0L75.3,9.8L74.0,9.6L73.6,9.5L71.1,9.1L69.8,9.1L69.2,9.3L68.9,9.5L68.1,9.7L67.7,10.0L65.7,10.7L64.4,11.4L61.9,12.5L61.2,13.0L60.3,13.4L59.0,14.3L58.3,14.5L57.6,15.2L55.4,16.5L54.7,17.2L54.2,17.5L52.1,19.2L50.7,20.6L50.1,21.0L46.9,24.2L46.1,25.5L44.6,27.1L42.2,30.6L40.9,32.7L40.4,33.3L40.0,34.2L39.3,35.3L39.0,36.3L37.8,38.4L37.6,39.3L37.3,39.8L36.9,41.0L36.4,42.0L35.4,45.4L35.2,45.8L34.1,50.3L33.5,54.5L33.5,55.8L33.4,56.1L33.5,57.1L33.3,57.5L33.3,58.1L33.5,58.5L33.3,60.1L33.5,60.4L33.8,60.2L33.8,59.3L35.2,55.2L35.9,53.8L36.1,52.9L37.8,49.5L38.1,49.3L38.5,48.3L39.7,46.2L41.3,43.9L41.5,43.5L44.4,39.7L48.4,35.5L52.5,32.0L53.1,31.7L54.1,30.9L54.5,30.7L55.1,30.1L56.0,29.7L56.4,29.2L57.0,29.0L58.6,27.9L59.6,27.6L60.7,26.8L61.9,26.4L64.4,25.1L66.7,24.4L69.9,23.2L72.4,22.7L72.9,22.5L74.2,22.2L74.9,21.9L77.0,21.8L78.0,21.5L80.2,21.4L81.2,21.2L82.7,21.2L83.3,21.1L85.6,21.1L86.4,21.2L87.3,21.1L88.9,21.5L91.4,21.5L91.9,21.6L92.0,21.7L94.0,22.0L94.4,22.1L95.0,22.1L96.5,22.6L97.0,22.6L98.6,23.3L99.1,23.3L99.6,23.5L100.1,23.6L101.4,24.3L101.8,24.2Z" fill="#000" fill-rule="evenodd"/>
</svg>