<svg xmlns="http://www.w3.org/2000/svg" viewBox="0 0 128 128" width="128" height="128">
  <path d="M12.7,65.5L12.7,66.0L14.4,67.0L16.8,68.7L17.8,69.8L18.2,70.0L20.5,72.4L22.2,74.6L23.8,77.3L24.8,79.4L25.7,81.7L26.2,83.6L26.9,87.7L27.0,91.8L26.9,92.9L26.7,93.2L26.7,94.3L26.3,96.8L25.4,99.9L24.5,101.7L24.6,102.3L25.1,102.3L26.0,101.9L28.0,101.5L28.6,101.2L29.5,100.9L33.1,100.3L38.2,100.3L42.8,101.2L44.6,101.8L44.9,101.8L46.2,102.4L46.9,102.6L49.5,103.9L52.0,105.6L54.7,107.8L56.4,109.5L58.3,111.6L60.4,114.9L61.7,117.4L62.3,119.0L63.0,119.0L64.7,115.3L65.5,114.1L67.0,112.1L67.0,111.9L69.5,109.3L72.3,106.9L74.0,105.8L76.5,104.4L79.1,103.3L82.2,102.4L83.6,102.3L84.3,102.0L86.6,101.8L92.1,101.9L93.6,102.3L94.7,102.4L95.3,102.6L96.6,102.9L99.1,103.7L101.9,104.9L102.4,104.9L102.6,104.8L102.6,104.4L102.1,103.6L101.9,102.9L101.3,101.4L100.4,98.0L100.2,96.2L100.0,95.8L99.9,94.1L99.9,91.3L100.2,88.4L100.6,86.3L100.7,86.1L100.9,85.2L101.6,82.9L102.3,81.5L102.3,81.2L103.0,80.0L103.2,79.6L103.4,79.3L103.5,79.0L104.7,77.3L104.9,76.7L106.8,74.5L109.0,72.2L109.2,72.1L109.6,71.7L111.2,70.4L112.6,69.6L112.9,69.3L115.7,67.6L115.5,67.3L111.8,67.0L108.0,67.0L105.3,66.9L103.3,67.0L100.9,66.8L92.3,66.7L91.6,66.9L91.3,67.2L91.2,67.7L90.9,70.0L90.1,73.1L88.5,77.1L87.1,79.6L86.6,80.0L86.5,80.5L84.8,82.7L82.5,85.1L82.0,85.4L81.0,86.4L80.1,87.0L78.5,88.2L77.2,88.9L76.6,89.1L75.5,89.8L74.4,90.3L70.5,91.6L66.5,92.3L63.7,92.4L59.6,92.2L57.8,91.6L56.9,91.6L56.2,91.3L55.2,91.1L54.8,90.9L53.1,90.3L51.0,89.4L48.9,88.2L47.2,87.0L45.8,85.8L44.7,85.0L42.3,82.4L40.6,80.2L40.2,79.4L40.0,79.3L39.1,77.9L37.6,74.6L37.4,73.7L37.0,73.0L36.5,71.3L36.5,71.0L36.4,70.7L36.1,69.3L35.7,66.3L35.4,65.8L30.6,65.6L28.6,65.7L27.7,65.5L24.7,65.4L23.0,65.5L13.3,65.3Z M60.0,40.0L57.3,40.5L55.5,41.0L55.3,41.1L55.0,41.1L51.9,42.4L51.2,43.0L50.4,43.3L48.2,44.7L45.6,47.0L44.0,48.7L43.8,49.1L42.5,50.8L41.7,52.4L41.4,52.7L40.0,55.7L39.9,56.2L39.6,56.8L39.3,58.2L39.1,58.4L39.1,59.1L38.7,60.1L38.4,62.4L38.4,66.3L38.8,69.0L39.5,71.8L40.4,74.0L40.5,74.5L41.0,75.4L41.7,76.9L42.4,78.0L45.0,81.3L48.0,84.3L49.6,85.3L51.9,86.6L52.1,86.9L52.7,87.0L53.3,87.4L53.5,87.4L54.0,87.7L54.7,87.9L55.0,88.1L56.3,88.6L57.7,88.8L58.2,89.0L61.4,89.5L66.3,89.4L67.2,89.2L68.3,89.1L72.7,87.8L73.2,87.5L73.8,87.3L74.2,87.0L74.7,86.9L75.0,86.6L75.6,86.4L76.6,85.7L76.9,85.6L78.6,84.4L80.6,82.8L82.0,81.3L84.0,78.8L85.2,76.9L86.2,74.9L86.9,73.2L87.6,70.7L88.0,68.3L88.3,65.8L88.2,62.3L88.0,62.0L88.0,60.9L87.5,58.6L87.0,57.1L87.0,56.8L85.0,52.4L84.6,52.1L83.3,50.0L81.5,47.9L78.0,44.7L76.3,43.5L75.2,42.9L74.0,42.4L73.5,42.0L70.0,40.8L67.8,40.3L64.7,39.9Z M13.0,62.0L13.1,62.3L13.4,62.4L35.2,62.7L35.5,62.6L35.7,62.0L35.9,60.1L36.7,56.7L37.5,54.4L38.4,52.4L38.7,52.1L38.9,51.4L40.1,49.4L42.3,46.4L44.7,44.0L46.9,42.2L49.2,40.7L49.7,40.6L50.9,39.8L53.9,38.6L57.9,37.5L58.9,37.5L60.4,37.1L65.0,37.1L69.0,37.7L70.4,38.1L71.7,38.4L74.1,39.2L75.5,40.0L75.9,40.0L76.1,40.3L76.7,40.5L78.8,41.7L79.6,42.4L80.0,42.6L82.5,44.7L85.2,47.6L85.4,48.0L87.0,50.2L88.3,52.3L89.9,56.1L90.0,57.1L90.4,58.0L90.5,58.7L90.8,59.7L91.2,62.6L91.6,63.3L91.9,63.5L105.4,63.7L107.9,63.9L114.6,63.9L114.9,63.7L114.9,63.5L112.9,62.3L109.9,59.9L108.0,58.1L106.3,56.1L104.6,53.7L103.6,51.7L103.4,51.5L102.6,49.7L102.3,48.8L102.1,48.5L101.9,47.6L101.6,47.0L101.6,46.4L101.3,45.7L100.9,44.0L100.8,42.9L100.6,42.0L100.6,36.4L100.8,34.4L101.6,30.7L102.6,28.1L103.7,25.9L103.6,25.7L103.1,25.7L102.3,26.1L100.9,26.7L97.7,27.7L93.6,28.4L89.6,28.4L85.6,28.0L83.5,27.5L82.9,27.2L82.3,27.1L81.4,26.7L80.7,26.6L79.1,25.8L78.7,25.7L75.5,24.0L73.1,22.2L70.9,20.2L69.0,18.1L67.3,16.0L65.6,13.0L64.3,10.1L64.1,9.4L63.7,9.1L63.6,9.1L63.3,9.3L62.6,11.1L61.7,12.9L59.7,16.1L58.0,18.3L55.9,20.4L54.3,21.8L52.2,23.4L49.3,25.1L46.6,26.1L46.3,26.4L45.4,26.5L44.7,26.8L43.7,27.0L43.0,27.3L42.0,27.4L40.4,27.7L39.5,27.7L38.7,27.9L34.7,27.9L33.7,27.7L31.8,27.5L30.1,27.1L29.6,26.8L28.6,26.7L26.0,25.7L24.6,25.0L24.0,25.0L24.0,25.5L24.4,26.1L25.1,28.4L25.4,28.9L25.4,29.2L26.3,32.1L26.4,33.6L26.7,34.9L26.9,38.4L26.8,40.3L26.4,43.5L25.8,45.8L25.4,46.7L25.4,47.2L24.8,48.3L23.9,50.7L23.2,51.9L22.9,52.2L22.8,52.5L22.4,53.0L22.4,53.3L21.6,54.2L21.1,55.0L19.4,56.9L17.5,58.7L15.5,60.3Z" fill="#000" fill-rule="evenodd"/>
</svg>