<svg xmlns="http://www.w3.org/2000/svg" viewBox="0 0 128 128" width="128" height="128">
  <path d="M47.9,80.0L47.9,80.3L48.3,80.9L49.8,81.3L51.4,81.6L52.1,81.8L52.7,81.8L54.4,82.1L55.2,82.1L56.4,82.4L57.3,82.4L59.7,82.8L65.0,82.9L66.8,82.7L70.4,82.6L72.0,82.4L72.9,82.4L74.5,82.0L75.5,81.9L76.0,81.3L76.0,80.8L75.6,80.5L74.6,80.5L74.0,80.7L73.3,80.7L71.1,81.2L62.4,81.4L58.1,81.3L57.1,81.0L56.2,81.0L54.3,80.6L51.9,80.4L51.4,80.1L49.1,79.7L48.3,79.7Z M66.6,75.8L66.1,74.5L65.2,73.4L64.0,72.6L62.8,72.5L61.5,72.6L61.2,72.9L60.6,73.0L59.9,73.6L59.0,74.6L58.6,75.8L58.6,76.3L58.8,76.6L59.1,76.9L59.8,76.8L60.4,76.3L60.9,75.4L61.8,74.4L62.6,74.1L63.6,74.2L64.3,74.8L64.6,75.4L64.9,76.6L65.2,77.0L65.9,77.1L66.2,77.0L66.6,76.5Z M76.8,69.5L74.9,70.1L73.6,71.4L73.3,71.9L73.0,72.8L73.0,74.6L73.4,75.8L74.6,77.3L75.4,77.8L76.3,78.1L78.1,78.2L79.5,77.8L80.2,77.3L80.9,76.6L81.6,75.4L81.8,73.7L81.3,71.9L81.1,71.4L80.4,70.6L78.5,69.5Z M46.7,68.2L45.1,68.8L44.3,69.4L43.7,70.1L43.2,71.1L43.1,72.2L43.1,73.5L43.9,75.2L45.1,76.4L46.7,77.0L48.7,77.0L49.0,77.0L49.5,76.6L49.9,76.5L51.5,74.9L52.0,73.8L52.1,71.8L51.5,70.4L51.0,69.8L50.0,68.8L48.4,68.2Z M77.4,48.3L77.4,48.7L77.9,48.8L79.2,48.6L81.1,48.5L82.1,48.7L82.8,48.7L83.9,49.1L84.4,49.0L84.5,48.6L84.1,48.2L81.2,47.6L79.9,47.6L78.0,47.9Z M43.0,47.0L43.1,47.4L43.9,47.5L45.8,47.1L46.1,47.0L47.5,46.8L49.3,47.0L49.9,47.1L50.2,47.0L50.2,46.7L49.9,46.5L48.3,46.1L45.9,46.1L44.0,46.4L43.2,46.7Z M62.4,9.1L61.9,9.2L60.9,9.8L59.1,11.3L57.6,12.5L56.0,14.0L54.6,15.1L51.4,18.1L50.9,18.4L46.8,22.4L46.3,22.7L45.0,22.5L44.1,22.2L41.8,21.7L40.8,21.6L39.6,21.2L38.3,21.1L35.5,20.4L35.0,20.4L34.5,20.2L32.6,19.8L29.4,19.5L27.7,19.5L27.2,19.6L26.7,20.3L26.5,21.6L26.1,22.7L26.1,23.3L25.8,24.5L25.8,25.0L25.5,25.5L25.5,27.0L25.3,28.3L25.3,29.4L25.1,29.9L24.7,39.6L24.6,40.1L23.5,41.2L21.1,42.9L20.4,43.2L19.4,44.0L17.6,45.0L17.3,45.3L14.8,46.9L13.3,47.6L12.4,48.3L11.4,48.8L10.4,49.6L9.7,49.9L9.4,50.2L9.4,50.6L9.9,52.1L10.9,53.8L11.3,55.0L12.4,56.8L12.6,57.4L13.1,58.1L14.4,60.5L14.7,60.8L15.0,61.4L17.6,65.2L17.6,65.9L15.7,70.3L13.5,76.3L12.6,79.3L11.9,82.6L11.8,83.6L12.1,84.0L12.8,84.7L13.7,85.1L14.9,86.0L16.4,86.6L17.4,87.2L18.1,87.5L18.6,87.9L20.0,88.4L22.5,89.5L23.2,89.7L24.8,90.5L25.4,90.6L26.0,91.0L26.4,91.1L27.1,91.7L27.3,92.3L27.5,94.1L28.2,97.1L28.3,98.2L29.1,101.0L29.2,101.9L29.8,103.7L30.0,105.1L30.9,108.0L31.1,108.4L31.3,109.2L31.8,110.1L32.2,110.4L32.9,110.4L35.8,110.0L37.5,109.6L39.6,109.2L42.2,108.6L43.6,108.4L43.8,108.3L44.9,108.1L47.0,107.6L47.6,107.6L48.7,107.2L50.6,106.9L51.0,106.8L52.0,106.7L52.6,106.9L58.0,112.3L63.0,116.9L63.2,117.0L65.5,118.9L65.9,119.1L66.4,119.2L66.9,119.1L70.5,115.9L75.1,111.2L78.1,107.8L79.4,106.6L81.3,106.5L89.4,106.8L93.3,106.7L97.7,106.7L98.6,106.5L100.0,106.5L102.8,106.1L103.3,105.3L103.3,104.0L103.7,100.4L103.7,86.7L104.6,85.6L105.3,85.2L105.8,84.6L106.3,84.4L107.8,83.0L109.0,82.1L110.1,81.0L112.7,78.9L116.5,75.1L117.4,74.4L118.7,72.7L118.8,71.9L117.4,69.4L114.6,65.7L114.5,65.4L113.2,63.9L112.7,62.9L109.6,59.4L109.1,58.5L109.1,58.0L109.3,57.2L110.0,56.0L110.2,55.0L110.8,53.8L111.4,52.2L112.1,50.6L112.3,49.9L112.7,49.2L112.7,48.7L113.1,48.2L113.2,47.5L114.0,45.9L115.0,43.5L115.2,43.2L115.9,40.8L116.3,40.3L116.3,39.7L116.1,39.4L113.9,38.1L113.1,37.9L110.8,36.7L110.2,36.5L109.6,36.2L109.4,36.2L106.1,34.9L105.6,34.8L102.9,33.9L102.5,33.7L101.9,33.6L100.9,33.2L98.7,32.6L98.0,32.1L97.6,31.0L97.1,28.3L96.6,26.9L96.2,24.4L96.0,23.9L95.1,20.4L94.7,19.4L94.4,18.2L93.9,16.7L93.1,15.6L92.8,15.4L92.3,15.4L90.1,16.0L88.8,16.1L88.4,16.4L87.6,16.4L82.9,17.6L81.4,18.2L80.2,18.4L77.8,19.1L76.7,19.2L75.3,19.7L74.6,19.7L74.2,19.5L72.6,17.9L71.1,16.1L69.1,14.2L69.0,13.9L65.6,10.6L63.8,9.3Z M59.2,22.3L61.3,22.2L64.0,22.2L64.9,22.3L67.1,22.4L70.4,22.8L71.1,23.1L72.6,23.1L73.3,23.4L74.5,23.5L80.2,24.9L84.8,26.8L88.4,28.7L92.4,31.5L95.0,33.6L97.9,36.5L98.6,37.3L98.6,37.5L100.8,40.8L101.7,42.8L102.1,43.5L102.1,43.9L102.5,44.3L104.1,48.6L104.9,51.4L105.0,51.6L105.3,53.4L105.5,54.1L105.7,55.4L105.9,56.1L105.9,56.7L106.4,59.8L106.4,66.0L106.1,70.7L105.3,75.2L103.9,79.6L103.8,80.1L103.3,81.4L102.5,83.2L102.4,83.6L102.1,84.0L102.0,84.4L101.6,85.0L101.5,85.4L101.3,85.6L99.9,88.3L98.0,90.7L97.3,91.9L93.6,95.7L91.5,97.5L89.8,98.6L89.0,99.3L88.4,99.5L87.8,100.1L87.2,100.2L86.5,100.7L85.6,101.0L84.0,101.9L83.4,102.1L81.8,102.8L81.0,102.9L80.8,103.2L77.6,104.1L76.6,104.1L75.9,104.4L74.6,104.5L73.0,104.9L72.1,104.9L70.7,105.3L66.8,105.7L61.2,105.7L60.7,105.5L58.2,105.5L53.5,105.0L49.9,104.0L48.1,103.2L47.3,103.0L47.0,102.8L46.1,102.5L44.0,101.4L43.5,101.3L42.9,100.9L42.5,100.8L42.0,100.4L41.6,100.3L37.9,97.9L33.9,94.7L30.4,91.1L27.9,88.0L26.7,86.2L25.6,83.9L25.0,82.9L24.8,82.2L24.2,80.9L23.9,79.9L23.5,79.1L23.0,77.2L22.4,74.6L22.3,74.3L22.2,73.1L21.6,70.1L21.1,63.3L21.2,59.9L21.5,58.1L21.6,56.3L22.4,53.3L22.4,52.9L22.7,52.4L22.8,51.4L23.8,48.4L24.0,48.1L25.1,45.5L25.5,44.7L25.5,44.4L25.9,44.0L26.0,43.6L27.3,41.3L27.6,41.0L28.8,39.1L30.1,37.4L32.2,35.2L32.4,34.9L35.4,31.9L35.8,31.8L37.2,30.5L38.5,29.4L40.4,28.2L41.0,27.8L44.0,26.1L44.6,25.9L45.0,25.6L45.5,25.5L46.0,25.2L46.7,25.1L47.1,24.8L50.0,23.9L52.3,23.4L53.1,23.4L54.1,23.1L54.6,23.1L56.6,22.7Z" fill="#000" fill-rule="evenodd"/>
</svg>