<svg xmlns="http://www.w3.org/2000/svg" viewBox="0 0 128 128" width="128" height="128">
  <path d="M15.3,120.2L16.2,120.2L16.1,120.1L15.4,120.1Z M17.9,120.2L20.0,120.2L20.0,120.1L19.5,119.8L18.5,119.8L18.0,120.1Z M10.1,120.1L11.0,120.2L12.6,120.2L12.6,120.1L12.4,119.8L11.3,119.8L10.2,119.8Z M62.1,72.3L61.9,72.3L61.5,72.8L61.3,73.5L60.5,74.6L60.3,75.1L60.1,75.3L58.7,77.7L57.6,79.8L56.1,82.2L55.4,83.6L53.2,87.1L52.2,89.1L51.0,90.9L50.0,92.8L48.3,95.4L47.7,96.8L47.0,97.7L46.7,98.6L45.7,100.2L45.2,101.4L44.2,102.8L41.8,107.4L41.5,107.7L40.4,109.7L40.2,109.9L39.0,111.9L39.0,112.4L39.4,112.8L41.6,114.0L43.1,115.2L43.8,115.2L44.2,114.8L44.4,114.3L45.2,113.2L46.4,110.7L47.6,108.9L47.7,108.2L48.1,107.8L48.2,107.3L49.0,106.1L49.6,104.9L50.6,103.3L50.8,102.8L51.1,102.4L52.2,100.1L53.1,98.9L53.7,97.5L54.3,96.5L54.5,95.9L55.8,93.8L56.0,93.6L56.4,93.6L56.6,93.9L56.7,95.2L56.5,109.0L56.3,111.8L56.3,115.8L56.1,118.3L56.2,118.7L56.6,119.0L62.0,119.1L62.3,118.9L62.5,118.5L62.3,117.1L62.2,107.8L62.1,106.8L62.2,103.6L62.1,96.2L62.1,73.5L62.2,72.7Z M65.4,71.9L65.3,72.3L65.4,79.1L65.2,91.1L65.0,92.9L65.1,101.2L65.1,118.7L65.4,119.0L65.8,119.1L71.0,119.1L71.5,118.6L71.4,116.1L71.2,115.4L71.2,112.1L71.1,110.8L70.9,105.4L70.8,104.5L70.8,93.9L71.1,93.3L71.5,93.3L72.1,93.8L72.8,95.0L73.7,96.9L74.5,98.2L76.4,101.7L77.5,103.5L77.7,104.1L78.6,105.8L78.8,106.1L79.5,107.8L80.2,108.7L82.1,112.8L82.9,114.0L83.3,115.2L83.6,115.6L83.9,115.7L84.4,115.7L87.0,113.9L88.6,113.1L88.8,112.7L88.7,112.0L86.8,108.9L85.5,106.4L83.8,103.8L82.4,101.2L81.3,99.5L80.9,98.4L79.7,96.4L79.3,95.4L77.9,93.2L77.4,92.1L77.0,91.7L75.0,88.0L74.4,87.1L73.3,85.0L71.7,82.6L71.5,81.9L70.0,79.3L69.7,78.7L69.2,78.0L68.8,77.0L67.8,75.5L67.5,74.8L66.7,73.6L66.1,72.2L65.8,71.9Z M58.4,69.8L57.9,69.8L57.6,70.2L55.4,71.4L54.7,71.7L53.8,72.3L51.7,73.4L51.4,73.7L48.4,75.2L46.2,76.6L45.4,76.9L44.4,77.6L43.1,78.2L40.8,79.7L40.2,80.0L38.4,81.1L37.0,81.8L36.1,82.5L34.7,83.1L33.8,83.8L33.3,83.9L31.9,85.0L31.1,85.3L27.1,87.7L25.8,88.4L24.0,89.6L22.9,90.0L21.5,90.9L20.9,91.1L20.7,91.3L20.0,91.6L18.3,92.6L18.2,93.3L19.6,95.7L20.5,97.5L20.9,98.0L21.5,98.1L25.0,95.9L26.0,95.1L27.2,94.6L32.5,91.1L33.8,90.4L34.3,90.0L35.8,89.2L36.1,88.9L38.1,87.9L40.5,86.2L41.0,86.0L42.4,85.1L43.2,85.1L43.3,85.7L41.1,89.7L40.0,91.9L38.4,94.5L38.2,95.1L37.4,96.1L37.0,97.0L36.3,98.0L35.6,99.4L35.3,99.7L35.0,100.3L33.8,102.0L33.2,103.2L32.5,104.1L32.4,104.5L30.8,107.0L30.7,107.7L31.1,108.0L32.2,108.6L35.2,110.5L35.6,110.5L35.9,110.3L36.6,108.7L37.3,107.6L37.3,107.4L37.8,106.6L38.0,106.1L39.1,104.2L39.3,103.7L40.1,102.8L40.2,102.4L40.6,101.6L41.0,101.1L41.5,99.8L42.7,98.2L43.4,96.6L45.4,93.4L47.5,89.3L50.0,85.2L51.5,82.2L52.6,80.6L53.3,79.1L53.5,78.9L54.7,76.5L55.4,75.5L55.5,74.9L58.0,70.9L58.4,70.2Z M69.2,69.7L69.2,70.0L69.9,71.0L70.4,72.3L71.0,73.1L72.2,75.4L72.8,76.2L73.5,77.7L75.2,80.5L76.0,82.2L76.5,82.8L76.6,83.3L77.2,84.2L77.8,85.6L78.6,86.7L78.9,87.5L80.8,90.8L81.6,92.3L82.1,93.1L83.2,95.2L83.6,95.5L84.2,96.9L85.1,98.3L85.6,99.5L86.2,100.4L86.9,102.0L87.5,102.8L88.1,104.1L88.7,104.9L89.3,106.3L90.7,108.6L91.2,109.8L91.9,110.7L92.5,110.7L96.4,108.5L97.2,107.8L97.2,107.4L95.8,105.3L95.1,104.9L95.1,104.1L93.5,101.8L92.9,100.7L90.9,97.7L90.6,97.0L89.8,95.8L89.4,95.1L88.7,94.1L88.5,93.4L88.1,92.9L87.5,91.8L86.9,91.0L86.8,90.5L85.6,88.7L83.7,85.2L83.7,84.9L84.0,84.7L84.4,84.7L85.0,84.9L86.5,85.8L88.2,86.5L90.1,87.8L91.4,88.4L92.0,88.9L93.0,89.3L94.5,90.2L97.7,92.4L99.6,93.4L101.7,95.0L103.7,96.1L104.6,96.8L105.1,97.0L106.7,98.0L107.3,98.1L107.9,97.6L109.2,95.3L110.5,93.3L110.4,92.7L109.9,92.2L102.6,88.4L101.5,87.6L100.8,87.4L99.9,86.8L98.9,86.4L98.7,86.2L96.5,85.1L96.3,84.8L94.2,83.8L92.5,82.6L91.1,82.1L89.4,80.9L88.8,80.7L85.8,78.9L83.9,77.9L83.6,77.6L80.7,76.0L79.9,75.5L78.8,75.0L77.7,74.3L76.7,73.9L75.8,73.2L72.8,71.6L71.1,70.5L70.3,70.2L69.6,69.7Z M72.3,66.9L74.5,68.3L75.4,68.7L75.8,69.0L76.4,69.3L77.2,69.8L79.6,71.0L80.3,71.6L81.8,72.3L82.8,73.1L83.5,73.3L84.6,74.1L87.3,75.5L89.6,77.0L91.8,78.1L92.8,78.9L96.0,80.6L97.3,81.5L98.0,81.8L98.9,82.4L99.4,82.6L101.3,83.8L101.8,83.9L105.7,86.3L106.2,86.7L108.8,88.0L109.9,88.8L111.6,89.7L112.1,89.8L112.5,89.6L113.3,88.1L113.9,87.3L114.1,86.8L115.0,85.6L115.0,85.0L114.6,84.5L110.3,82.3L105.3,79.6L104.4,79.3L101.8,77.7L98.4,76.1L98.1,75.8L97.7,75.7L95.3,74.6L93.0,73.1L92.3,72.6L92.4,72.3L93.0,72.1L98.1,72.1L104.3,72.3L105.5,72.5L110.8,72.6L117.5,72.9L117.8,72.7L117.9,72.2L118.1,67.9L118.0,66.9L117.6,66.5L99.3,66.7L94.7,66.5L87.9,66.5L87.3,66.7L72.6,66.6Z M13.6,85.7L15.9,89.8L16.3,90.1L16.9,90.0L18.6,88.8L19.9,88.2L21.6,87.1L22.1,86.9L22.5,86.6L22.9,86.5L23.4,86.0L23.6,86.0L25.4,84.9L25.8,84.7L26.2,84.4L28.2,83.3L28.4,83.0L31.2,81.6L32.2,80.9L33.4,80.3L33.7,80.0L35.0,79.3L35.3,79.1L36.7,78.4L39.2,76.8L40.6,76.2L43.1,74.6L44.8,73.7L45.2,73.3L45.8,73.1L46.6,72.6L47.3,72.3L47.7,71.9L48.6,71.4L49.1,71.0L50.9,70.2L52.6,69.0L56.4,67.0L56.4,66.6L56.0,66.5L44.0,66.5L42.2,66.4L35.7,66.5L33.2,66.3L20.8,66.4L10.7,66.1L10.2,66.5L10.1,66.9L10.1,71.1L10.2,71.7L10.5,72.1L12.6,71.9L15.0,71.9L18.0,71.6L27.5,71.6L34.8,71.8L35.7,71.9L35.9,72.3L35.9,72.4L35.3,73.1L31.7,75.2L30.2,76.0L29.1,76.8L27.1,77.7L25.4,78.9L24.8,79.0L23.8,79.7L21.4,80.8L21.0,81.1L20.4,81.3L20.2,81.5L18.7,82.2L17.0,83.3L14.0,84.7L13.6,85.1Z M114.6,43.6L112.3,39.2L112.1,39.1L111.3,39.2L108.8,40.8L108.1,41.0L106.9,41.9L105.7,42.5L104.9,43.1L103.0,44.0L100.3,45.8L98.9,46.4L98.1,47.1L96.0,48.1L95.7,48.4L95.4,48.5L94.4,49.2L92.9,50.0L92.7,50.2L92.0,50.4L89.7,52.0L88.3,52.6L85.7,54.3L80.7,57.0L80.3,57.4L79.7,57.6L77.4,59.0L74.4,60.6L73.2,61.4L71.4,62.2L71.1,62.4L71.0,62.7L71.2,62.9L81.9,62.8L97.8,63.0L100.0,63.2L117.6,63.2L118.0,62.8L118.1,62.6L118.2,57.4L117.9,57.0L117.7,57.0L116.1,57.1L114.0,57.1L111.7,57.4L104.3,57.4L102.9,57.6L95.7,57.8L94.1,57.7L92.7,57.8L92.1,57.8L91.6,57.4L91.6,57.2L92.1,56.7L93.8,55.7L94.2,55.3L94.5,55.2L94.8,54.9L96.3,54.2L98.8,52.7L99.3,52.5L99.7,52.2L103.0,50.6L103.2,50.4L104.5,49.8L105.5,49.1L106.9,48.5L107.3,48.2L110.5,46.6L111.3,46.0L113.7,44.9L114.6,44.2Z M14.0,43.3L13.9,43.8L14.6,44.5L15.9,45.0L17.8,46.2L18.7,46.5L19.6,47.1L21.1,47.8L21.3,48.0L24.6,49.7L26.9,51.1L27.7,51.4L29.1,52.4L29.6,52.6L30.3,53.1L30.6,53.2L30.8,53.4L33.5,54.9L34.0,55.3L35.3,56.1L36.2,56.9L36.2,57.3L35.9,57.5L35.0,57.6L24.9,57.6L23.3,57.4L20.0,57.4L19.3,57.3L17.8,57.4L16.9,57.2L13.3,57.2L11.7,57.0L10.5,57.0L10.2,57.2L10.1,57.8L10.1,62.2L10.1,62.4L10.5,62.8L25.3,62.7L56.8,63.0L57.1,62.8L57.0,62.3L56.4,61.9L54.0,60.7L50.5,58.4L49.0,57.8L48.8,57.5L47.2,56.7L44.3,54.9L43.6,54.7L43.3,54.4L42.2,53.8L41.5,53.3L40.6,52.9L39.6,52.2L38.5,51.6L37.2,50.8L36.0,50.2L35.1,49.5L29.3,46.2L27.4,45.0L27.0,44.9L22.9,42.4L22.6,42.3L21.4,41.5L20.8,41.3L19.2,40.3L18.3,39.9L17.0,38.8L16.5,38.8L16.2,39.2L14.5,42.5Z M38.1,61.9L38.2,61.7L38.5,61.7L38.6,62.0L38.6,62.2L38.2,62.3Z M97.3,20.5L97.1,20.5L95.8,19.6L94.6,19.0L93.4,18.2L92.7,18.3L90.0,23.3L89.0,24.9L88.0,26.8L85.9,30.3L85.8,30.6L84.3,33.3L84.0,33.5L83.2,35.2L82.0,37.1L82.0,37.4L80.2,40.3L79.1,42.5L78.3,43.5L77.5,45.1L76.8,46.2L74.7,50.0L74.0,50.9L73.4,52.1L73.1,52.4L71.8,54.7L71.1,56.2L70.7,56.7L70.3,57.6L69.7,58.4L69.6,59.0L70.0,59.1L71.0,58.5L71.9,58.1L75.9,55.7L78.7,54.2L79.9,53.4L80.2,53.3L80.4,53.1L81.1,52.8L82.7,51.7L84.6,50.8L85.1,50.4L86.2,49.8L86.5,49.5L87.1,49.3L88.8,48.2L90.0,47.6L92.9,45.8L94.9,44.8L96.0,44.1L97.9,43.1L98.9,42.4L99.4,42.2L101.4,40.9L102.6,40.4L103.6,39.7L105.8,38.6L106.0,38.4L106.5,38.2L108.1,37.3L108.4,37.1L109.7,36.4L110.1,36.1L110.1,35.5L109.3,34.2L109.1,33.5L108.3,32.2L108.2,31.8L107.7,31.1L107.2,31.0L101.5,34.6L101.0,34.7L100.7,35.1L100.0,35.5L99.5,35.7L97.9,36.8L96.5,37.5L94.9,38.6L92.8,39.6L89.8,41.7L88.3,42.3L86.6,43.5L84.9,44.5L84.3,44.5L84.3,43.8L84.7,43.0L85.0,42.7L85.3,41.9L86.1,40.8L86.9,39.0L88.7,36.3L88.9,35.8L89.2,35.5L89.8,34.3L90.1,34.0L90.2,33.7L91.1,32.1L92.5,30.2L93.0,29.2L94.6,26.8L95.2,25.5L97.6,21.8L97.7,21.0Z M91.9,23.3L92.3,23.3L92.4,23.5L92.4,23.8L92.1,24.0L91.6,23.8L91.6,23.5Z M31.1,20.0L30.7,20.4L30.7,20.9L30.9,21.3L31.6,22.3L31.9,22.8L32.6,23.9L32.8,24.5L33.6,25.5L34.9,28.1L36.5,30.4L37.2,31.9L38.0,33.1L38.6,34.5L39.6,35.8L41.4,39.2L43.5,42.4L43.8,43.2L44.3,43.9L44.2,44.4L43.6,44.5L42.7,44.1L37.3,40.8L36.5,40.4L34.9,39.2L32.9,38.1L30.6,36.5L29.6,36.0L24.9,33.0L24.4,32.8L23.3,32.0L22.6,31.7L21.3,30.8L20.7,30.8L19.4,32.7L18.3,35.0L18.3,35.8L19.1,36.3L21.7,37.6L22.2,38.0L23.7,38.8L24.7,39.6L25.8,40.1L27.0,40.9L28.3,41.6L29.3,42.3L29.8,42.5L30.1,42.8L32.4,44.0L33.8,45.0L34.1,45.0L36.1,46.2L37.1,46.7L37.6,47.1L39.7,48.2L39.9,48.4L41.6,49.3L42.2,49.8L45.3,51.5L49.1,53.8L49.6,54.0L50.6,54.7L53.2,56.1L54.4,57.0L55.3,57.4L58.0,59.0L58.6,59.0L58.8,58.8L58.6,58.2L56.5,54.9L56.3,54.1L56.0,53.9L53.3,48.6L53.0,48.3L52.1,46.7L51.8,46.1L50.1,43.2L49.7,42.4L48.1,39.6L47.8,38.9L45.3,34.6L45.2,34.0L44.3,32.6L43.0,30.1L42.2,28.9L41.5,27.4L41.1,26.9L40.8,26.3L40.1,25.2L38.8,22.7L38.0,21.4L36.2,17.9L35.8,17.6L35.3,17.7L33.7,18.6L33.3,18.7L33.1,19.0Z M71.3,9.4L66.8,9.4L66.4,9.6L66.3,9.9L66.1,27.6L65.9,28.6L65.9,34.7L65.9,36.7L65.7,41.0L65.8,43.1L65.6,50.8L65.4,52.0L65.4,55.5L65.6,56.8L65.9,57.0L66.0,57.0L66.7,56.3L67.2,55.0L69.2,51.7L70.0,50.1L70.8,48.9L72.0,46.5L72.9,45.0L73.0,44.7L74.2,42.9L75.8,40.0L76.1,39.7L76.5,38.8L80.3,32.5L82.7,28.0L83.0,27.6L83.6,26.4L83.8,26.2L85.9,22.6L86.2,22.3L86.3,21.9L89.4,16.8L89.4,16.2L88.9,15.7L87.4,15.0L86.3,14.2L85.2,13.6L84.6,13.6L84.2,14.0L83.6,15.2L83.3,15.5L82.7,17.0L82.4,17.3L81.8,18.8L81.5,19.2L79.3,23.5L77.8,26.0L76.3,28.9L72.8,35.0L72.1,35.9L71.5,36.2L71.2,35.9L71.2,35.5L71.1,31.3L71.3,29.3L71.5,18.5L71.7,16.6L71.7,14.4L72.0,12.3L72.0,9.9L71.8,9.5Z M57.5,9.1L57.0,9.5L56.9,9.8L57.0,14.2L57.2,16.1L57.2,24.5L57.0,26.4L57.1,31.4L56.9,32.2L56.9,35.1L56.6,35.8L56.3,35.8L55.8,35.4L55.1,33.9L54.0,32.4L51.4,27.3L51.2,27.1L50.9,26.2L50.2,25.2L49.5,23.7L49.3,23.5L46.7,18.7L45.5,15.7L44.3,13.2L44.0,12.9L43.3,12.9L40.8,14.4L39.4,15.1L38.9,15.7L38.9,16.3L44.4,26.0L45.8,28.9L46.4,29.7L48.0,32.8L50.6,37.1L51.4,38.8L52.4,40.3L53.4,42.2L53.9,42.9L54.1,43.4L56.2,47.1L56.9,48.6L58.2,50.5L59.2,52.6L60.2,54.1L61.6,57.0L61.8,57.2L62.1,57.2L62.4,56.9L62.4,35.1L62.2,32.8L62.3,30.3L62.5,29.7L62.4,25.9L62.6,25.2L62.5,16.4L62.6,14.2L62.7,13.6L62.6,9.8L62.4,9.5L61.5,9.2Z" fill="#000" fill-rule="evenodd"/>
</svg>