<svg xmlns="http://www.w3.org/2000/svg" viewBox="0 0 128 128" width="128" height="128">
  <path d="M44.2,95.1L40.6,95.3L37.7,96.6L35.2,98.5L33.8,100.0L32.8,101.9L31.9,104.1L31.6,105.7L31.6,108.5L31.8,110.3L32.5,112.4L33.7,114.3L35.7,116.4L36.5,117.1L38.6,118.1L39.9,118.6L41.3,118.7L42.2,119.0L43.4,119.0L44.0,118.8L45.4,118.7L47.1,118.2L49.1,117.3L51.8,115.1L53.2,113.4L54.3,111.1L54.8,109.3L55.1,107.2L54.9,104.8L54.4,103.0L53.5,101.1L53.0,100.2L52.1,99.2L50.0,97.2L48.5,96.4L46.2,95.5Z M84.3,94.6L83.9,94.8L81.9,95.0L79.4,96.0L77.6,97.2L76.0,98.7L74.8,100.4L73.7,102.4L73.0,105.5L73.0,108.2L73.4,109.9L74.4,112.5L75.6,114.2L77.7,116.3L79.9,117.5L81.7,118.1L83.5,118.5L85.8,118.5L86.8,118.3L88.8,117.7L91.2,116.5L92.5,115.4L94.2,113.7L95.4,111.5L95.8,110.4L96.4,107.6L96.4,105.2L96.1,103.5L95.1,101.0L93.4,98.6L92.1,97.4L90.4,96.2L86.6,94.7Z M72.6,58.1L72.3,57.8L71.7,57.7L71.1,58.2L69.9,59.7L68.5,60.8L67.3,61.4L64.9,62.0L62.9,62.0L61.1,61.5L59.1,60.3L57.1,58.3L56.6,58.2L56.2,58.4L56.1,59.0L56.6,59.9L57.5,60.9L58.5,61.7L60.3,62.8L62.3,63.4L65.0,63.5L66.6,63.2L67.9,62.7L70.1,61.5L72.3,59.3Z M57.5,47.7L56.5,48.3L56.0,49.1L55.8,49.8L55.8,51.1L56.0,52.0L56.5,52.5L57.4,53.2L58.0,53.3L59.6,53.2L60.6,52.7L61.1,52.2L61.5,51.6L61.5,49.5L60.9,48.4L60.1,47.8L59.5,47.6Z M69.4,47.4L68.4,47.8L67.4,48.9L67.1,50.2L67.1,51.2L67.6,52.1L68.8,53.0L69.3,53.2L70.6,53.2L71.4,52.9L72.4,52.0L72.9,51.0L72.9,49.6L72.4,48.4L71.8,47.8L70.6,47.4Z M43.1,38.6L43.0,39.0L43.3,39.3L43.7,39.3L44.1,39.4L44.9,39.3L44.8,38.8L44.1,38.5L43.9,38.0L43.7,38.0Z M99.2,10.0L98.7,9.6L97.1,9.3L93.9,9.4L92.8,9.3L90.1,9.3L89.3,9.4L86.0,9.4L85.3,9.6L85.0,10.0L84.8,10.9L84.8,19.4L84.4,19.9L83.9,19.9L83.1,19.6L81.8,18.7L80.5,18.2L78.3,16.8L77.2,16.3L76.4,15.6L75.1,15.1L73.9,14.2L72.6,13.6L72.0,13.2L71.6,13.1L65.7,9.6L64.9,9.3L64.4,9.3L61.8,10.6L59.7,11.9L57.7,12.8L56.8,13.5L55.8,13.9L52.9,15.7L49.9,17.3L46.6,19.5L45.7,19.8L45.2,20.3L44.3,20.6L43.2,21.4L39.6,23.3L38.6,24.0L38.0,24.3L37.3,24.8L36.3,25.3L35.0,26.2L33.3,27.2L30.9,28.4L30.5,28.8L29.2,29.5L28.4,30.1L25.1,31.9L24.7,32.3L22.4,33.6L19.8,35.2L18.6,35.8L18.0,36.4L17.7,37.2L17.6,44.9L17.6,50.4L17.6,65.2L17.4,72.1L17.5,74.4L17.0,93.9L17.4,94.3L23.4,94.5L28.0,94.3L30.1,94.4L31.6,94.3L45.5,94.3L47.1,94.0L50.2,94.1L59.2,93.7L78.8,93.7L84.2,93.9L110.1,93.9L110.4,93.8L110.8,93.5L111.0,89.8L111.0,68.9L111.1,65.7L111.0,61.6L111.2,58.1L111.1,48.0L111.3,44.8L111.3,36.9L111.0,36.3L110.6,35.9L109.8,35.6L108.7,34.7L107.1,33.9L106.1,33.1L105.7,33.0L101.3,30.6L100.4,29.9L99.7,29.1L99.5,26.6L99.4,10.6Z M64.9,23.4L65.3,23.9L66.9,28.8L67.2,29.2L67.9,29.1L68.6,28.4L71.1,25.3L71.8,24.6L72.3,24.6L72.7,25.1L72.7,30.0L72.9,31.0L73.2,31.3L73.8,31.1L78.2,27.6L78.8,27.3L79.1,27.3L79.4,27.5L78.8,31.6L78.3,33.2L78.3,34.0L78.6,34.3L79.2,34.3L83.9,32.3L84.5,32.1L85.0,32.1L85.2,32.3L85.3,32.6L84.1,35.3L83.5,36.4L82.9,38.3L83.3,38.6L84.2,38.6L86.0,38.2L87.4,38.1L88.6,37.9L89.8,37.9L90.0,38.0L89.8,38.6L89.4,39.0L88.7,40.0L87.2,41.9L86.2,43.3L86.2,44.1L86.7,44.3L91.6,44.8L92.4,45.0L92.9,45.4L92.9,45.7L92.6,46.0L91.0,46.9L87.4,49.7L87.4,50.1L87.8,50.5L89.9,51.2L93.4,52.7L93.6,53.0L93.6,53.4L92.4,54.2L90.8,54.9L88.7,55.4L88.2,55.7L87.7,56.2L87.8,56.7L88.7,57.6L90.7,59.1L91.5,59.9L91.7,60.0L92.5,61.0L92.5,61.4L92.2,61.7L91.8,61.8L86.9,62.0L86.3,62.4L86.3,62.8L86.6,63.2L89.0,66.2L90.1,68.0L89.7,68.4L86.9,68.0L86.3,67.8L84.2,67.5L83.4,67.6L83.2,67.8L83.2,68.5L85.6,73.5L85.7,74.2L85.4,74.5L84.9,74.5L80.1,72.7L78.8,72.7L78.7,73.8L79.0,76.2L79.2,76.7L79.2,77.3L79.5,78.3L79.4,79.3L79.1,79.6L78.5,79.5L75.0,76.7L73.9,76.0L73.4,76.0L73.1,76.2L72.9,79.2L72.7,81.1L72.5,81.5L72.5,81.9L72.0,82.4L71.8,82.4L71.3,82.1L67.7,77.6L67.1,77.6L66.7,77.9L66.4,78.6L65.6,81.1L65.1,81.8L64.4,83.7L64.1,83.9L63.8,83.9L63.3,83.5L62.5,81.1L61.8,79.5L61.6,78.7L61.3,78.1L60.7,78.0L60.1,78.5L59.1,80.1L58.3,81.0L58.2,81.3L57.5,82.4L57.2,82.6L56.5,82.5L56.0,80.6L56.0,79.7L55.7,77.1L55.3,76.4L54.3,76.4L53.8,76.9L52.5,77.5L50.9,79.3L50.4,79.6L49.8,79.7L49.4,79.2L49.3,78.4L49.4,76.2L49.7,74.0L49.7,73.4L49.0,73.3L48.4,73.4L44.8,75.4L44.0,75.5L43.6,75.2L43.8,74.0L45.5,69.8L45.5,68.9L45.3,68.6L44.4,68.6L42.9,69.0L40.3,69.2L39.9,69.5L38.6,69.5L38.4,69.2L38.5,68.5L39.4,67.4L40.0,66.4L41.3,64.9L42.0,63.7L42.1,63.0L41.5,62.7L39.6,62.6L36.5,62.2L35.8,61.7L35.9,61.2L36.5,60.5L39.1,58.1L39.3,58.1L40.1,57.2L40.2,56.8L40.0,56.5L39.5,56.2L35.4,54.9L34.7,54.6L34.4,54.3L34.4,53.9L35.2,53.2L38.8,51.5L40.4,50.5L40.4,50.0L39.9,49.5L39.2,49.1L36.8,47.2L35.8,46.2L35.8,45.8L36.2,45.5L40.9,45.2L41.8,45.0L42.0,44.8L42.0,44.4L40.1,41.7L39.0,40.4L38.2,39.2L38.1,38.8L38.4,38.6L38.8,38.5L40.4,38.7L41.5,37.6L42.0,37.4L43.0,37.6L43.8,36.6L43.9,36.3L43.3,35.2L43.3,34.4L42.9,33.7L42.7,32.4L43.2,32.2L43.7,32.2L44.9,32.6L46.3,33.4L48.3,34.3L49.2,34.3L49.5,33.9L49.5,33.2L49.3,32.8L49.0,30.2L48.9,29.7L48.9,28.6L48.7,27.7L48.9,27.5L49.3,27.5L50.5,28.3L51.5,29.3L53.9,31.1L54.2,31.3L54.7,31.2L55.1,30.7L55.4,27.7L56.0,24.7L56.4,24.4L56.9,24.5L57.4,24.9L58.5,26.7L58.9,27.1L60.1,29.0L60.5,29.5L61.0,29.5L61.6,29.1L63.8,24.1L64.3,23.4Z" fill="#000" fill-rule="evenodd"/>
</svg>