<svg xmlns="http://www.w3.org/2000/svg" viewBox="0 0 128 128" width="128" height="128">
  <path d="M35.8,14.1L34.2,16.1L31.3,19.0L29.4,21.1L29.2,21.5L29.2,22.0L30.6,24.2L30.6,25.8L30.3,27.1L29.8,28.1L29.1,28.8L28.2,28.8L27.4,28.4L26.0,27.1L25.4,26.7L24.2,25.4L24.0,25.4L22.8,24.2L22.5,24.1L21.6,24.2L21.2,24.6L20.6,25.4L20.3,26.2L20.5,26.6L23.2,28.9L24.9,30.8L27.1,32.7L28.3,34.2L30.8,36.4L34.5,40.2L36.5,41.9L38.1,43.6L38.5,43.8L39.3,44.7L40.3,45.5L43.9,49.2L45.8,50.8L46.3,51.0L48.6,53.5L49.6,54.2L50.5,55.2L50.7,55.5L50.6,56.2L49.6,56.8L48.8,56.8L47.6,56.5L45.8,55.6L43.7,53.8L43.0,52.7L41.8,51.2L38.9,48.4L36.1,46.7L33.9,45.7L33.0,45.5L32.3,45.2L31.2,45.1L30.2,44.8L28.5,44.5L25.2,44.4L24.5,44.6L21.6,44.6L19.2,44.9L18.5,44.6L16.3,44.3L15.4,44.0L14.6,43.3L13.8,42.2L13.8,41.0L14.4,39.8L15.1,39.1L15.7,39.0L16.0,39.3L16.0,39.7L16.4,40.4L16.8,40.5L17.4,40.5L17.8,40.4L18.2,40.0L18.3,39.6L18.3,39.1L17.9,38.5L17.3,38.1L16.3,37.9L15.1,38.0L14.1,38.6L13.7,39.2L13.2,39.9L13.2,41.0L12.7,41.7L12.7,42.8L13.1,43.7L13.8,44.9L14.5,45.7L15.7,46.8L16.9,47.4L20.4,48.7L22.4,49.1L23.2,49.3L27.6,50.0L30.6,51.5L32.5,53.2L32.4,53.8L31.7,54.2L30.9,54.3L29.8,54.3L27.7,54.8L27.0,54.8L24.5,55.8L23.4,56.5L22.2,57.6L21.6,58.6L21.6,59.0L21.8,59.2L22.3,59.2L23.6,57.7L25.7,56.8L26.7,56.5L28.7,56.6L31.5,57.2L32.2,57.5L33.9,58.0L35.1,58.7L36.4,59.2L38.0,60.0L40.3,60.8L41.3,61.3L42.7,61.5L44.6,61.4L46.8,60.8L47.7,60.7L48.0,61.0L48.0,61.4L47.6,61.9L47.1,62.1L45.5,62.1L44.8,62.4L42.6,62.4L41.0,62.8L39.4,62.8L38.9,63.0L37.9,63.0L36.0,63.3L33.6,63.3L32.4,63.6L31.6,63.6L30.1,63.8L28.9,63.8L27.7,64.1L24.4,64.3L23.8,64.4L22.7,64.4L22.2,64.6L19.9,64.7L17.2,65.2L15.1,65.2L14.7,65.4L12.5,65.7L12.0,66.1L12.1,66.2L14.5,66.3L15.2,66.5L19.9,66.4L22.9,66.8L25.0,66.8L25.7,67.0L28.3,66.9L32.7,67.3L35.2,67.3L36.1,67.4L38.9,67.4L39.7,67.5L41.2,67.5L42.0,67.8L45.0,67.8L47.2,68.1L47.8,68.8L48.1,69.4L48.1,69.9L47.7,70.1L47.5,70.1L44.6,69.2L43.5,69.0L39.9,69.0L36.1,70.2L34.1,71.2L33.9,71.4L33.3,71.6L32.2,72.3L30.8,72.9L26.6,74.2L23.0,74.3L17.6,74.1L15.6,74.4L14.5,74.8L13.2,75.5L11.4,77.3L11.2,78.0L10.8,78.4L10.5,79.5L10.5,80.1L10.7,80.8L11.1,81.4L11.6,81.9L12.3,82.1L13.0,82.0L13.6,81.7L14.1,81.1L14.1,80.3L13.7,79.9L13.1,79.9L12.4,80.1L12.0,80.1L11.8,79.9L11.9,79.1L12.3,78.3L13.0,77.7L14.0,77.2L15.1,76.9L17.0,76.9L20.3,77.7L21.1,78.1L22.4,78.3L23.4,78.7L23.8,78.7L27.6,80.0L32.0,80.4L33.9,80.0L37.6,78.8L38.7,78.1L39.5,77.7L41.3,76.3L42.7,75.5L44.9,74.4L47.8,73.8L48.8,73.8L49.7,74.0L50.7,74.4L50.9,74.8L50.9,75.3L50.7,75.7L48.5,78.1L42.7,83.9L42.5,84.3L40.9,85.6L39.6,87.1L36.9,89.8L36.5,90.3L32.4,94.4L31.9,95.1L30.9,95.8L30.3,95.7L29.8,95.3L29.2,94.4L28.9,93.1L28.9,92.1L29.1,90.9L30.0,89.2L30.6,88.3L30.6,87.7L30.4,87.4L24.2,81.4L23.1,80.6L22.6,80.6L22.0,81.0L20.6,82.5L20.1,83.2L19.0,84.2L18.8,84.7L18.8,85.4L18.9,85.7L21.9,88.8L22.4,90.3L22.2,91.1L21.4,91.7L20.0,91.7L18.7,90.8L16.1,88.5L15.6,88.5L14.8,89.1L12.4,91.9L12.0,92.6L12.1,93.5L12.5,93.9L13.3,94.5L14.8,96.3L17.2,98.4L18.8,100.1L19.6,100.1L21.5,98.7L22.7,98.1L23.8,98.0L25.0,98.3L25.4,98.7L26.3,99.0L27.0,99.7L27.0,100.2L26.8,100.7L25.6,102.0L21.8,105.7L21.7,106.5L22.0,107.2L22.7,107.8L23.9,107.9L26.6,105.2L26.8,104.9L28.2,103.5L29.0,102.4L35.1,96.4L37.7,93.4L39.5,91.8L40.7,90.4L43.2,87.9L44.2,87.0L46.5,84.4L47.4,83.7L48.0,82.8L50.5,80.6L50.7,80.3L52.7,78.1L53.4,77.8L54.0,77.9L54.5,78.6L54.7,79.6L54.7,81.4L53.8,83.8L51.9,85.7L50.4,86.6L49.2,87.6L48.3,88.1L47.1,89.0L45.7,89.8L44.7,90.6L43.6,91.9L42.0,94.8L40.9,98.9L40.9,103.3L41.9,108.9L41.8,110.4L41.5,111.5L41.0,112.8L40.2,113.9L39.1,114.9L38.4,115.1L37.0,115.3L36.0,115.0L35.3,114.4L35.2,114.1L35.3,113.4L36.3,112.8L36.8,112.2L36.9,111.5L36.7,111.1L36.2,110.7L35.5,110.7L34.5,111.3L33.9,112.2L33.7,112.9L33.8,114.3L34.4,115.6L34.9,116.1L36.4,116.9L38.3,116.9L39.5,116.6L40.5,116.2L42.4,114.7L43.3,113.7L44.4,112.0L45.2,110.5L45.6,109.3L45.8,107.7L46.4,106.0L46.4,104.1L47.1,101.9L48.8,99.2L50.5,97.2L51.3,97.2L51.5,100.6L52.0,102.5L52.7,104.1L53.3,105.0L55.4,107.1L55.8,107.4L56.5,107.3L56.5,106.7L55.2,105.6L54.4,103.8L54.0,101.7L54.1,99.3L54.5,98.2L55.2,96.6L55.4,95.9L57.2,92.6L57.5,91.9L58.4,90.7L59.2,88.7L59.6,87.5L59.6,84.6L58.8,81.8L58.8,81.0L59.2,80.6L60.3,80.7L61.0,81.2L61.4,82.2L61.5,86.5L61.7,88.1L61.7,90.2L62.2,94.2L62.2,95.9L62.4,96.6L62.5,99.4L62.8,102.6L62.7,103.8L63.1,105.8L63.2,108.6L63.5,110.8L63.6,115.1L63.9,116.4L64.0,118.5L64.2,118.9L64.6,118.9L64.8,118.4L64.9,117.2L65.0,108.2L65.3,105.9L65.4,99.1L65.3,96.4L65.5,95.7L65.4,92.0L65.9,86.5L65.9,83.1L66.1,82.0L66.5,81.0L67.0,80.6L67.7,80.2L68.9,80.1L69.1,80.4L69.1,81.0L68.8,81.5L68.6,82.3L68.0,83.7L67.3,86.5L67.1,87.8L67.1,89.4L67.3,90.8L67.9,92.7L68.2,93.1L69.2,95.5L71.0,98.1L72.2,100.7L72.6,104.5L72.6,106.4L72.4,107.8L72.5,110.1L72.8,112.4L73.5,114.9L73.8,115.5L75.3,117.0L76.4,117.4L78.3,117.5L79.3,117.0L80.1,116.4L80.3,115.7L80.3,114.9L80.2,114.5L79.6,114.0L79.2,113.9L78.4,114.1L78.0,114.6L78.1,116.1L77.8,116.4L77.3,116.4L76.5,115.7L75.7,114.7L75.3,113.2L75.4,110.7L75.9,108.8L76.1,107.6L76.5,106.6L77.2,104.4L78.3,101.6L78.7,99.7L78.8,96.7L78.4,94.4L77.5,92.0L76.5,90.6L76.0,89.7L73.8,86.9L73.2,85.6L72.8,84.5L72.8,83.8L72.4,83.1L72.3,80.4L72.9,78.8L73.4,78.3L73.8,78.1L74.4,78.1L74.8,78.3L75.9,79.2L80.4,84.0L91.5,94.9L93.4,96.9L93.7,97.5L93.7,98.2L93.2,98.8L92.0,99.3L90.9,99.4L89.7,99.7L88.1,99.6L87.7,99.3L86.4,98.7L85.7,98.7L85.3,98.8L83.4,100.6L81.2,102.9L79.9,103.9L78.7,105.1L78.4,105.7L78.4,106.1L78.6,106.4L81.6,109.4L82.8,110.2L83.7,110.1L86.9,106.9L87.7,106.3L88.8,106.3L89.3,106.5L89.7,107.4L89.7,108.7L89.4,109.4L88.5,110.2L86.7,112.6L86.6,112.9L86.6,113.6L87.2,114.7L89.6,116.8L90.0,117.0L90.6,117.0L91.1,116.9L92.8,115.2L94.2,113.6L97.9,109.8L98.2,109.4L98.1,108.6L97.2,107.3L96.7,106.0L96.7,104.6L96.9,103.8L97.3,102.6L97.9,102.1L98.4,102.0L98.9,102.2L103.5,106.8L104.3,106.8L105.3,105.9L105.3,104.8L104.1,103.5L103.5,103.1L101.9,101.4L101.0,100.3L100.6,100.1L97.8,97.2L96.0,95.7L95.7,95.5L90.3,90.0L88.7,88.7L86.2,86.0L83.5,83.4L83.1,83.1L77.5,77.6L76.0,76.0L75.9,75.1L76.5,74.4L77.9,74.0L79.5,74.1L80.7,74.4L81.7,75.0L83.2,76.0L84.3,77.1L84.7,78.0L86.8,80.8L87.2,81.5L88.5,83.1L91.4,84.9L92.5,85.4L94.4,85.9L97.5,86.3L103.1,86.1L105.6,86.2L109.3,86.9L110.8,87.6L112.5,88.9L112.9,90.1L112.9,91.2L112.7,91.6L112.3,91.9L112.0,92.1L111.6,92.1L111.0,91.7L110.5,90.7L110.0,90.5L109.2,90.5L108.9,90.7L108.3,91.4L108.2,92.5L108.6,93.2L109.2,93.7L110.0,93.9L111.8,93.8L112.3,93.6L113.4,92.5L113.9,91.9L114.2,91.2L114.2,89.2L114.1,88.4L113.5,87.3L112.3,86.0L110.4,84.9L101.3,82.6L98.5,81.2L97.9,80.7L96.2,78.2L96.1,77.5L96.6,77.1L98.3,76.6L100.0,76.3L101.6,75.6L103.3,74.4L104.7,73.4L105.2,72.6L105.1,72.3L104.6,72.3L103.2,73.2L102.2,73.6L101.5,74.0L101.2,74.0L99.8,74.7L97.8,75.0L96.4,75.0L94.7,74.3L93.7,74.2L91.2,72.8L89.0,71.2L86.5,70.1L84.7,69.7L84.1,69.8L83.4,69.6L81.6,69.6L80.7,69.8L79.7,70.2L79.1,70.1L78.8,69.8L78.8,69.1L79.0,68.7L79.7,68.1L81.3,67.9L89.1,67.7L91.5,67.4L95.5,67.3L97.5,67.0L101.0,67.0L102.6,66.8L103.7,66.8L105.4,66.7L107.3,66.7L109.3,66.4L110.8,66.4L113.6,66.2L115.3,66.2L116.0,66.1L117.2,66.1L117.7,65.8L117.4,65.5L113.5,65.1L110.9,65.1L109.0,64.9L106.9,64.8L105.9,64.9L104.2,64.7L101.6,64.7L100.9,64.5L97.7,64.4L96.8,64.3L95.4,64.3L94.1,64.2L88.0,63.9L87.1,63.7L81.8,63.7L81.3,63.5L80.5,63.5L79.7,63.0L79.3,62.4L79.1,60.4L79.5,60.0L79.9,60.0L80.9,60.5L84.1,61.5L87.6,61.4L89.4,60.9L91.5,60.0L92.2,59.6L93.5,59.1L95.4,58.0L98.7,56.8L100.3,56.6L109.2,56.6L110.3,56.2L111.3,56.1L112.9,55.6L114.8,54.7L115.4,54.1L116.1,53.1L116.5,52.1L116.5,51.6L116.2,50.9L115.4,50.0L114.4,49.5L112.9,49.5L112.4,49.9L112.3,50.3L112.3,50.8L112.4,51.1L113.3,51.3L113.8,51.1L114.4,51.0L114.8,51.1L115.1,51.6L115.1,52.4L114.0,53.6L113.4,53.9L111.8,54.3L110.2,54.4L108.1,54.1L107.0,53.7L106.0,53.7L105.1,53.2L104.3,53.1L101.7,51.9L98.0,50.9L93.6,50.8L92.8,51.0L92.1,51.3L88.9,52.3L85.0,54.7L84.7,55.0L82.2,56.1L79.7,56.5L77.9,56.5L76.8,56.2L75.8,55.4L75.7,55.0L76.1,54.1L81.8,48.7L83.7,46.4L86.0,44.0L89.2,41.0L91.1,39.0L91.4,38.9L92.6,37.6L92.8,37.3L94.6,35.5L95.4,34.8L96.1,34.8L96.9,35.5L97.6,36.7L98.1,38.4L98.1,39.7L97.7,41.0L96.3,42.8L96.3,43.5L96.5,43.8L97.7,45.2L100.5,47.8L100.8,47.9L103.0,49.9L103.7,50.3L104.3,50.2L106.5,48.0L106.7,48.0L107.9,46.4L107.9,45.8L107.8,45.5L105.6,43.3L104.1,41.4L104.0,41.1L104.0,40.4L104.3,39.7L104.9,39.1L105.8,39.1L107.6,40.2L110.2,42.7L110.6,42.9L111.2,42.9L111.9,42.5L113.2,41.3L114.0,40.4L115.0,39.5L115.0,38.3L114.5,37.6L109.0,32.1L107.6,30.9L106.6,30.9L105.3,31.8L104.7,32.1L103.4,32.3L102.1,32.3L101.5,32.2L100.5,31.7L100.0,31.1L99.9,30.5L100.4,29.8L101.7,28.1L103.2,26.7L103.4,26.4L103.4,25.7L102.9,25.0L101.9,24.2L101.3,24.2L100.6,24.7L98.2,27.1L97.8,27.7L95.8,29.6L95.2,30.5L84.7,41.0L82.0,44.0L81.0,44.8L77.2,48.6L75.5,50.5L75.3,50.6L73.7,52.0L73.0,52.0L72.8,51.7L72.8,49.5L73.1,48.2L73.8,47.0L74.9,45.7L76.4,44.3L78.7,43.0L81.5,41.1L82.8,39.7L83.8,37.9L84.1,36.3L84.6,34.9L84.7,33.4L84.7,29.3L85.0,26.1L84.8,22.1L85.3,19.5L86.2,17.5L86.8,16.8L87.8,16.4L89.0,16.4L90.1,16.8L90.4,17.2L90.5,17.7L90.1,18.1L89.3,18.5L89.0,19.0L89.0,19.6L89.2,20.0L89.6,20.3L90.4,20.3L91.4,19.8L92.0,19.0L92.1,17.3L91.4,16.0L90.3,15.2L89.7,14.9L88.0,14.6L87.3,14.6L86.8,14.8L86.0,15.0L84.5,15.9L83.3,17.0L82.6,18.0L82.1,19.1L81.6,20.4L81.1,25.0L80.7,27.0L80.7,27.5L80.4,28.2L79.4,30.2L78.4,31.3L76.6,32.8L75.7,33.0L75.4,32.7L75.1,31.0L74.7,30.0L74.7,29.1L73.8,26.7L71.5,24.2L71.2,24.0L70.7,24.1L70.6,24.6L71.4,25.9L72.4,28.6L72.5,31.3L71.8,34.6L71.0,36.5L70.8,36.7L69.8,38.7L69.2,39.7L67.9,43.6L67.8,44.5L67.8,46.0L67.9,46.4L68.1,47.9L68.6,48.9L68.7,49.6L68.4,49.9L67.8,49.9L67.5,49.7L66.9,48.8L66.5,46.7L66.5,43.2L66.1,40.9L65.9,36.3L65.8,35.7L65.7,32.9L65.3,30.6L65.3,28.5L65.1,27.2L65.0,24.3L64.8,23.2L64.8,19.7L64.3,15.0L64.3,11.7L64.0,10.9L64.0,9.7L63.8,9.3L63.2,9.4L63.1,12.1L62.9,13.1L62.9,18.0L62.7,22.1L62.5,24.5L62.5,27.9L62.3,29.0L62.1,34.7L62.0,35.8L61.9,39.9L61.6,41.4L61.6,43.0L61.5,44.4L61.5,46.7L61.0,48.5L60.3,49.0L59.7,49.0L59.5,48.7L59.5,48.2L60.1,46.7L60.3,45.2L60.2,42.4L59.6,40.1L58.9,38.5L58.9,38.2L57.1,35.0L56.7,33.9L56.5,33.7L56.4,32.9L56.0,32.1L55.8,30.5L55.5,30.0L55.2,27.7L55.1,20.5L54.9,19.9L54.9,18.1L54.7,17.2L53.8,15.1L51.9,13.5L50.9,12.9L50.2,12.8L48.1,12.9L47.1,13.3L46.4,14.2L46.4,15.7L47.1,16.5L47.6,16.7L48.3,16.6L48.7,16.3L48.9,15.7L48.8,14.6L49.2,14.3L50.0,14.3L50.8,14.7L51.5,15.4L52.1,16.7L52.1,19.2L51.6,21.0L51.6,21.6L50.5,24.6L50.2,26.1L49.5,27.7L48.9,30.1L48.4,31.7L48.3,32.7L48.3,36.2L48.5,37.8L48.9,38.9L49.7,40.6L50.3,42.3L51.2,43.0L54.0,46.6L55.2,49.3L55.2,50.8L54.6,52.4L53.9,53.1L53.2,53.1L52.7,52.9L51.1,51.2L50.8,51.1L48.9,49.3L48.0,48.6L45.3,45.8L42.0,42.7L41.4,41.9L40.0,40.7L39.6,40.1L37.1,37.6L35.6,36.3L33.0,33.6L32.9,32.8L33.3,32.3L34.5,31.7L36.0,31.1L37.4,31.1L38.3,31.3L39.0,31.6L40.8,32.7L41.8,32.6L43.0,31.7L46.4,28.3L46.8,27.7L48.1,26.5L48.7,25.6L48.7,24.9L48.3,24.3L47.1,22.9L45.1,21.1L43.9,21.2L41.9,23.2L41.2,23.6L40.5,24.6L40.0,24.9L39.3,25.2L38.3,25.1L37.9,24.6L37.7,24.0L37.7,23.1L37.9,22.6L38.5,21.6L41.2,18.9L41.4,18.0L41.1,17.4L39.8,16.4L37.5,13.9L37.1,13.7L36.6,13.7Z" fill="#000" fill-rule="evenodd"/>
</svg>