<svg xmlns="http://www.w3.org/2000/svg" viewBox="0 0 128 128" width="128" height="128">
  <path d="M35.0,110.3L35.0,110.6L37.2,112.1L37.9,112.4L39.8,113.6L45.0,115.9L47.2,116.5L47.7,116.8L48.9,117.0L49.3,117.3L50.4,117.4L51.2,117.7L52.5,117.9L54.4,118.4L54.9,118.4L55.1,118.5L58.5,119.0L61.0,119.0L62.3,119.1L67.7,119.0L72.9,118.3L74.3,117.9L75.3,117.8L76.1,117.5L77.0,117.4L79.5,116.5L81.7,116.0L83.3,115.3L83.9,115.2L85.0,114.5L85.0,114.4L84.8,114.3L84.2,114.3L81.7,114.9L77.0,115.5L71.0,115.4L70.3,115.3L66.5,115.0L60.6,113.9L60.3,113.7L59.6,113.6L56.4,112.7L52.7,111.9L50.5,111.1L49.4,111.0L48.4,110.7L47.0,110.5L45.9,110.1L45.0,110.1L44.5,109.9L41.5,109.5L37.6,109.5L36.0,109.7L35.3,109.9Z M95.6,106.9L95.2,106.8L94.8,107.0L94.9,107.3L95.3,107.3Z M26.0,102.5L26.0,103.0L26.7,103.9L28.7,105.8L30.2,107.0L30.7,107.2L32.0,107.2L34.3,106.8L38.2,106.6L40.3,106.6L43.6,107.0L44.1,107.1L45.7,107.2L46.8,107.6L49.8,108.1L51.4,108.5L51.8,108.7L53.6,109.0L54.7,109.4L55.1,109.4L55.7,109.6L57.0,109.9L57.6,110.2L58.9,110.3L60.2,110.7L61.5,111.0L62.5,111.4L65.2,112.1L66.3,112.3L68.1,112.8L70.2,113.0L71.1,113.2L76.6,113.5L77.9,113.4L78.4,113.2L79.6,113.2L81.5,112.9L83.7,112.8L84.2,112.6L85.2,112.6L86.8,112.0L88.2,111.8L88.8,111.5L89.6,111.3L91.1,110.7L90.8,110.4L90.0,110.4L89.4,110.6L88.6,110.6L87.1,111.0L83.2,111.2L81.5,111.5L76.7,111.4L74.5,111.1L72.5,110.7L71.8,110.7L70.6,110.3L69.8,110.3L69.4,110.0L68.3,109.9L64.9,108.7L64.5,108.7L63.7,108.3L63.4,108.3L62.4,107.8L61.5,107.6L60.7,107.2L58.4,106.5L56.9,105.7L55.4,105.2L54.9,104.9L53.0,104.3L51.2,103.6L49.3,103.1L47.9,102.5L46.3,102.1L42.6,101.4L39.4,101.1L37.9,101.2L33.5,101.0L28.8,101.4L26.5,102.0L26.2,102.1Z M26.1,80.0L25.2,80.3L23.5,81.1L23.1,81.1L22.2,81.5L22.0,81.5L20.6,82.2L17.2,83.3L16.6,83.7L15.7,84.0L14.9,84.4L14.5,84.9L14.5,85.5L14.8,86.1L15.2,87.5L16.1,89.1L16.8,89.7L20.1,90.2L25.7,90.4L26.5,90.1L26.5,89.7L25.1,88.6L24.5,87.9L23.8,86.3L23.7,85.6L23.8,84.1L24.3,82.7L24.8,81.9L26.1,80.5Z M89.2,78.6L88.3,79.1L87.5,80.0L87.1,80.8L87.1,82.2L87.3,82.7L88.3,83.9L89.0,84.1L90.5,84.1L91.3,83.8L92.1,83.0L92.6,82.1L92.6,80.8L92.2,79.9L91.1,78.9L90.5,78.6Z M20.5,70.6L19.6,71.1L19.1,71.7L18.9,72.5L19.1,74.0L19.5,74.7L20.1,75.3L20.8,75.4L21.6,75.4L22.4,75.3L22.8,75.0L23.7,74.0L23.8,73.4L23.8,72.6L23.6,71.7L22.9,70.9L21.8,70.5Z M117.0,70.9L116.2,68.7L115.0,67.4L114.0,66.8L113.8,66.8L112.8,66.3L111.2,66.1L109.7,66.3L108.1,67.2L107.2,68.4L106.8,69.1L106.8,70.4L107.0,70.9L107.6,71.8L108.7,72.7L110.1,73.2L111.4,73.1L112.2,72.5L112.2,72.1L111.3,70.5L111.3,69.8L111.6,69.1L112.1,68.7L112.6,68.5L113.4,68.7L114.6,69.8L115.0,71.0L115.1,72.5L114.7,73.7L113.5,75.2L112.8,75.7L111.3,76.1L109.9,75.7L109.2,75.3L108.4,75.3L107.6,74.9L105.8,74.4L102.8,74.7L101.1,75.3L99.4,76.3L98.0,77.8L97.3,78.7L96.8,79.7L96.5,80.8L96.5,81.9L96.8,83.4L97.2,84.1L98.2,85.2L99.4,85.9L100.5,86.1L102.3,86.1L103.7,85.6L105.4,84.4L106.2,83.2L106.2,82.9L105.9,82.7L104.6,82.7L103.5,82.3L102.9,81.8L102.6,81.1L102.6,80.5L103.0,79.3L103.5,78.8L104.2,78.4L105.4,78.1L107.6,78.2L108.0,78.4L108.7,78.6L109.7,79.0L110.3,79.5L111.4,80.8L111.8,81.7L112.1,82.7L112.1,84.7L111.6,86.1L110.9,87.4L110.3,88.2L107.7,90.6L106.0,91.4L105.2,91.6L104.5,92.0L102.8,92.3L102.2,92.3L100.4,92.7L99.1,92.7L98.6,92.9L94.5,93.0L92.2,92.7L89.5,92.6L88.3,92.4L87.5,92.4L87.1,92.2L85.7,92.2L84.0,91.9L81.8,91.8L80.9,91.5L79.6,91.5L79.0,91.4L77.2,91.2L75.1,91.3L74.7,91.1L71.6,91.1L68.6,91.3L66.8,91.6L64.8,91.8L64.4,91.9L61.5,92.5L60.6,92.9L60.0,93.0L59.9,93.1L58.2,93.7L57.0,94.4L55.4,95.1L52.9,96.7L52.1,96.7L51.2,96.5L46.7,94.6L45.6,94.4L45.1,94.1L43.8,93.6L43.0,93.5L42.6,93.3L40.4,92.9L39.5,92.6L37.8,92.5L36.9,92.2L36.0,92.2L35.1,91.9L34.9,91.6L34.9,91.2L36.2,89.6L37.2,87.1L37.2,84.6L36.7,82.9L35.9,81.8L34.2,80.8L33.3,80.6L30.2,80.4L29.3,80.7L27.8,81.3L26.6,82.3L25.6,84.1L25.4,84.8L25.4,85.9L25.7,86.4L26.3,87.0L27.6,87.7L28.6,87.9L29.8,87.7L30.8,87.3L30.9,86.8L30.1,85.7L29.9,85.0L30.0,84.2L30.3,83.6L31.0,83.1L31.7,82.8L33.0,82.9L33.9,83.4L34.6,84.0L35.1,85.3L35.1,86.0L34.9,87.0L34.4,88.1L33.2,89.3L31.2,90.6L28.6,91.4L23.9,92.0L18.3,91.8L17.9,92.1L17.9,92.6L18.4,93.4L18.5,93.8L20.0,95.9L21.2,97.7L22.0,98.6L22.4,98.8L23.6,98.8L25.6,98.3L27.3,98.2L27.8,98.0L34.8,98.0L38.5,98.0L39.2,98.2L40.7,98.3L44.1,99.0L45.4,99.5L45.9,99.6L46.8,100.0L48.5,100.3L50.4,100.9L50.9,101.0L51.7,101.4L53.3,101.8L55.9,102.8L56.2,103.0L56.8,103.1L58.6,103.7L59.1,104.1L61.5,105.0L67.5,107.0L68.5,107.5L69.8,107.8L70.7,107.9L71.6,108.3L73.4,108.5L74.0,108.7L75.8,109.0L81.2,109.3L86.2,109.1L91.8,108.3L93.3,107.8L93.6,107.5L93.3,107.3L89.0,107.8L86.4,107.8L84.2,107.9L81.9,107.6L79.4,107.4L77.4,107.0L76.9,107.0L75.5,106.5L74.0,106.2L71.2,105.0L67.9,103.9L66.5,103.3L65.8,102.8L65.3,102.7L63.7,101.9L63.2,101.8L61.0,100.7L60.7,100.4L60.6,100.0L61.2,99.6L62.4,99.2L64.9,99.4L65.2,99.6L65.7,99.6L67.9,100.0L68.5,100.3L69.8,100.4L71.8,101.2L72.9,101.3L73.5,101.7L75.1,101.9L75.6,102.1L76.6,102.3L77.5,102.7L79.6,103.1L80.5,103.4L80.9,103.4L82.8,104.1L84.9,104.3L86.6,104.7L89.3,105.0L93.2,104.7L93.7,104.6L94.9,104.5L98.2,103.4L98.8,103.0L99.8,102.6L100.2,102.2L101.0,102.0L102.9,100.5L103.0,100.1L102.6,100.1L101.9,100.4L99.4,101.1L96.0,101.7L92.2,101.7L91.4,101.4L89.0,101.2L86.2,100.5L85.0,100.4L82.1,99.6L80.8,99.6L79.1,99.0L76.1,98.5L74.7,98.0L72.7,97.6L69.6,97.3L65.2,97.5L64.3,97.8L63.6,97.9L62.7,98.3L62.4,98.3L60.3,99.1L59.4,99.6L58.2,99.6L57.0,99.0L56.5,98.9L55.8,98.5L54.6,98.0L54.1,97.5L54.1,97.1L54.5,96.7L56.1,95.6L56.7,95.5L58.6,94.5L60.3,94.0L62.8,93.8L67.8,94.0L68.3,94.2L69.8,94.3L70.2,94.4L76.9,95.5L80.9,96.3L83.2,96.5L86.4,97.2L87.1,97.2L88.7,97.6L93.4,97.9L95.9,97.8L96.3,97.6L98.6,97.3L99.1,97.1L102.3,96.3L103.1,95.9L103.3,95.9L104.5,95.1L105.1,95.0L107.2,93.6L109.2,92.1L111.2,90.0L111.6,89.4L111.8,88.8L112.7,87.5L113.5,85.2L113.8,83.5L113.6,81.1L113.4,80.5L113.2,80.1L113.2,79.1L113.7,78.4L115.8,76.1L116.7,74.5L117.1,72.6Z M99.4,54.6L98.4,55.4L98.1,56.0L98.1,57.6L98.5,58.2L99.1,58.8L99.9,59.0L101.2,58.9L101.8,58.6L102.7,57.6L102.8,56.5L102.5,55.5L101.9,54.8L101.1,54.5L100.2,54.4Z M21.2,30.4L20.3,32.1L19.5,33.0L18.7,34.3L18.7,34.7L19.9,35.8L20.6,36.2L21.3,36.8L23.2,37.9L23.8,38.5L24.5,38.8L25.7,39.7L25.8,39.7L27.6,41.0L27.9,41.1L28.9,41.8L29.3,42.0L31.1,43.2L31.6,43.5L32.8,44.4L35.2,45.9L35.9,46.5L37.7,47.5L39.1,48.6L41.3,50.0L42.3,51.0L42.5,51.9L41.6,53.6L41.3,53.9L40.6,54.2L39.5,54.0L38.3,53.4L36.1,52.7L35.6,52.3L35.0,52.2L34.8,52.0L34.0,51.8L32.7,51.0L32.0,50.8L31.4,50.4L30.1,49.8L29.6,49.8L28.1,49.0L27.6,48.9L27.1,48.6L25.5,48.0L24.0,47.1L23.5,47.0L22.8,46.6L21.5,46.1L20.9,45.7L18.6,44.9L15.8,43.5L15.2,43.3L14.4,43.4L13.8,44.3L13.4,45.6L13.3,46.2L12.7,47.9L12.6,48.6L11.7,51.8L11.4,53.1L11.4,53.9L11.8,54.4L14.2,55.1L15.8,55.2L16.7,55.6L18.4,55.8L19.9,56.2L21.0,56.3L22.0,56.6L22.8,56.7L23.4,56.9L26.5,57.4L29.4,58.0L30.0,58.0L31.0,58.4L32.3,58.5L33.4,58.9L34.8,59.1L35.4,59.1L36.8,59.6L38.5,59.8L38.9,60.1L39.3,60.5L39.2,62.9L38.9,63.5L38.5,64.0L37.7,64.2L32.8,64.2L32.3,64.1L21.3,63.9L16.9,63.7L11.0,63.8L10.7,64.0L10.5,64.6L10.4,67.5L10.6,69.2L10.7,71.1L11.3,74.9L11.8,75.6L12.5,75.7L13.1,75.4L14.7,75.2L16.7,74.6L17.3,73.9L17.3,72.4L17.9,70.8L18.4,70.0L19.4,69.1L20.7,68.7L22.3,68.7L23.3,69.2L24.5,70.2L25.4,72.0L26.1,72.4L27.5,72.3L27.8,72.1L29.8,71.8L30.7,71.5L31.7,71.4L32.8,71.0L34.8,70.6L35.3,70.4L36.7,70.2L37.7,69.9L39.3,70.0L39.8,70.6L40.6,72.9L40.6,73.6L40.2,74.1L39.6,74.5L38.9,74.7L38.4,75.0L37.8,75.1L37.3,75.4L36.8,75.5L36.2,75.9L35.7,76.0L35.2,76.3L33.4,77.0L33.1,77.2L32.8,77.2L31.8,77.7L31.0,77.8L30.4,78.2L30.4,78.5L30.7,78.6L32.6,78.6L34.8,79.2L35.2,79.5L36.0,79.9L38.3,81.6L39.2,81.5L40.0,80.8L42.6,79.1L43.4,79.0L44.2,79.7L45.4,81.2L45.4,82.0L45.0,82.7L43.4,84.4L37.2,90.2L37.2,90.8L37.5,91.0L40.4,91.4L44.1,92.4L45.4,92.4L45.7,92.2L47.2,90.1L48.0,88.5L48.8,87.7L49.2,86.8L50.2,85.7L50.9,85.8L52.5,86.7L52.6,86.9L53.0,87.1L53.3,87.8L53.3,88.3L52.8,89.8L52.0,91.3L51.3,93.0L51.0,93.4L50.9,94.4L51.2,94.8L51.6,94.9L52.5,94.7L53.7,93.8L55.5,92.9L57.5,92.2L58.4,91.4L58.6,91.0L59.0,89.9L59.2,89.5L59.7,89.1L62.2,89.3L62.8,89.6L63.3,90.1L64.6,90.1L68.3,89.5L69.7,88.4L70.6,88.2L71.3,87.9L72.2,87.9L72.5,88.1L73.5,89.3L73.9,89.5L77.9,89.4L79.9,89.6L80.2,89.3L80.1,88.5L78.5,86.2L78.2,85.6L78.1,84.6L78.3,84.2L79.2,83.3L80.5,82.5L80.9,82.6L84.4,85.9L84.6,86.2L87.7,89.5L88.8,90.6L89.3,90.8L91.6,91.1L96.8,91.3L97.5,91.1L100.7,90.9L102.7,90.5L102.9,90.1L102.9,89.7L94.3,84.3L93.6,84.3L92.4,85.1L91.1,85.7L90.2,85.9L89.2,85.9L88.6,85.7L87.9,85.2L87.5,85.1L86.6,84.3L86.2,83.7L85.8,82.9L85.4,81.7L85.6,79.2L85.4,78.8L84.9,78.2L84.6,77.7L84.6,77.0L85.0,76.0L85.5,75.0L86.2,74.5L86.6,74.4L87.2,74.5L88.4,75.2L89.9,75.7L90.3,76.0L93.6,77.4L94.7,77.7L95.5,77.7L96.1,77.3L96.9,76.1L97.8,75.3L99.4,74.1L100.3,73.7L101.4,73.3L101.9,73.0L103.9,72.6L104.3,72.4L104.4,72.0L104.0,71.7L103.1,71.5L101.9,71.4L101.5,71.2L100.6,71.2L98.9,70.6L97.6,70.5L96.9,70.3L94.9,70.0L93.9,69.7L92.0,69.6L91.2,69.3L90.3,69.3L89.5,69.1L88.6,68.7L87.9,67.8L87.9,66.4L88.3,65.1L88.9,64.6L90.5,64.5L94.1,64.5L94.8,64.6L116.7,64.6L117.2,64.6L117.7,64.2L117.9,62.8L117.9,61.3L117.6,60.1L117.6,58.2L117.5,57.6L117.5,56.5L117.3,56.2L117.2,54.7L116.7,53.2L116.3,52.7L115.1,52.7L113.2,53.1L111.2,53.7L109.8,53.9L109.5,54.2L108.4,54.3L107.6,54.7L106.5,54.8L105.7,55.1L105.2,55.1L104.8,55.3L104.3,55.9L104.2,57.7L103.5,59.1L102.6,60.0L101.0,60.7L99.9,60.7L99.0,60.5L97.3,59.3L96.7,58.1L96.0,57.4L94.9,57.5L93.2,58.0L91.2,58.2L89.0,58.9L88.2,58.9L87.7,58.6L87.2,58.1L86.7,57.0L86.7,55.0L87.4,54.5L88.8,53.9L89.9,53.3L90.6,53.1L91.1,52.8L91.6,52.7L92.0,52.5L92.7,52.3L93.1,52.0L95.7,51.2L96.3,50.8L96.8,50.7L98.2,50.0L98.9,49.8L99.4,49.5L99.9,49.4L100.9,49.0L102.6,48.1L103.3,48.0L103.8,47.7L105.2,47.2L105.7,46.9L107.1,46.4L107.7,46.0L108.5,45.8L110.1,45.0L111.3,44.6L113.0,43.7L113.4,43.3L113.4,42.2L112.7,40.8L112.6,40.1L109.6,34.6L108.7,33.4L108.3,33.1L107.6,33.1L107.2,33.3L105.2,34.7L104.6,35.4L102.9,36.3L100.5,38.2L99.7,38.6L98.6,39.5L97.5,40.2L94.4,42.6L93.5,43.1L92.0,44.2L91.6,44.4L89.8,45.9L88.3,46.9L87.1,47.8L86.3,48.2L84.4,49.6L84.0,49.8L83.3,49.6L82.2,48.6L81.5,47.6L81.4,46.5L81.6,46.1L83.2,44.3L95.3,32.3L95.7,31.7L96.6,30.7L97.8,29.7L99.0,28.4L99.8,27.9L101.8,25.5L101.8,25.2L101.5,24.7L99.5,22.6L95.8,19.5L95.3,19.3L93.5,18.1L92.8,18.2L91.5,19.8L87.4,26.6L86.2,28.4L85.6,29.5L84.4,31.2L83.9,32.1L83.2,33.0L82.3,34.8L80.9,36.6L79.6,39.3L77.3,42.6L76.8,43.0L76.3,43.1L74.1,42.0L73.4,41.4L73.3,40.5L73.8,39.4L73.9,38.9L74.3,38.2L74.7,36.6L75.3,35.5L75.5,34.9L76.5,32.5L76.8,32.1L77.4,30.3L78.4,28.4L79.2,25.5L80.5,23.0L80.8,22.0L81.5,20.6L81.9,19.4L82.1,19.1L82.4,18.1L83.1,16.7L83.3,16.0L84.2,14.3L84.2,13.4L83.8,13.1L81.3,11.9L80.0,11.7L78.4,11.1L77.3,10.9L76.1,10.5L75.1,10.4L74.7,10.2L73.9,10.0L73.0,10.1L72.6,10.6L72.3,11.3L72.2,12.7L71.9,13.6L71.8,14.8L71.4,16.5L71.4,17.2L71.1,18.2L71.0,20.0L70.6,21.7L70.5,22.8L69.7,27.0L69.7,27.8L69.3,29.2L68.8,32.7L68.5,33.5L68.0,37.5L67.6,39.1L67.3,39.4L66.5,39.7L65.2,39.7L64.2,39.3L63.8,38.8L63.6,38.2L63.6,34.4L63.4,32.9L63.4,31.3L63.6,30.4L63.5,13.6L63.6,11.7L63.6,9.8L63.2,9.3L62.6,9.1L59.4,9.1L58.6,9.3L57.4,9.3L56.5,9.6L54.6,9.7L54.1,9.9L52.5,10.2L52.0,10.5L51.6,11.1L51.9,13.1L52.5,15.0L52.6,16.3L53.5,19.4L54.0,22.1L54.9,25.9L55.5,29.2L55.8,29.8L56.2,32.0L56.6,33.5L56.8,34.8L57.3,36.4L57.4,37.7L57.7,38.4L57.7,39.8L57.2,40.3L56.2,40.5L55.4,40.9L54.5,40.9L54.2,40.7L53.4,39.6L52.8,37.7L52.1,36.5L51.8,35.8L51.0,34.3L50.4,32.6L50.1,32.1L49.4,29.7L48.8,28.5L48.6,27.6L47.9,26.3L47.8,25.9L46.8,24.0L45.9,21.3L45.1,19.6L44.2,16.9L43.9,16.4L43.2,14.4L42.9,14.0L42.4,13.8L41.8,13.8L41.4,14.0L40.0,14.8L39.6,14.9L38.1,15.7L37.0,16.4L35.9,16.9L33.3,18.8L32.8,19.3L32.9,20.4L37.6,26.9L38.2,28.0L39.3,29.2L39.8,30.3L42.3,33.9L42.7,34.3L43.0,35.0L45.1,37.5L45.7,38.7L46.3,39.3L47.2,40.7L47.5,41.3L48.4,42.5L48.8,43.6L48.8,44.3L47.7,45.5L46.7,46.1L46.4,46.1L45.4,45.6L43.4,43.7L42.1,42.3L41.8,41.8L40.9,41.1L39.0,39.1L36.7,36.8L32.9,32.8L31.5,31.5L30.6,30.4L26.1,25.9L25.3,25.9L24.9,26.1L22.7,28.7L22.0,29.7Z" fill="#000" fill-rule="evenodd"/>
</svg>