<svg xmlns="http://www.w3.org/2000/svg" viewBox="0 0 128 128" width="128" height="128">
  <path d="M47.7,62.3L46.6,62.3L45.7,62.8L45.0,63.6L44.5,64.6L44.4,65.9L44.7,66.8L45.4,67.4L46.5,67.9L47.3,67.9L48.4,67.4L49.1,66.7L49.5,65.7L49.6,64.3L49.3,63.4L48.7,62.7L48.2,62.4Z M77.3,62.0L76.2,62.4L75.5,63.3L75.1,64.5L75.1,65.7L75.5,66.5L76.2,67.1L77.4,67.5L78.3,67.4L79.0,67.1L79.9,66.0L80.2,65.3L80.3,64.2L79.9,63.1L79.2,62.4L78.3,62.0Z M67.9,9.2L67.6,9.2L67.3,9.3L67.0,10.4L65.9,12.1L65.5,12.5L64.9,12.5L64.3,11.9L63.3,9.6L62.8,9.3L62.5,9.3L62.1,9.9L61.3,11.9L60.7,12.4L60.3,12.4L59.7,11.9L58.7,10.0L58.3,9.6L57.8,9.6L57.7,9.7L57.0,11.9L56.7,12.3L56.2,12.7L55.6,12.6L54.6,11.5L53.8,10.3L53.1,10.3L52.8,11.2L52.8,11.9L52.4,13.2L52.1,13.4L51.3,13.4L50.2,12.2L49.9,11.7L49.4,11.2L48.9,11.2L48.7,11.7L48.4,14.2L47.8,14.8L47.3,14.8L46.8,14.5L45.1,12.9L44.5,13.0L44.4,15.7L44.2,16.4L43.9,16.8L43.4,16.8L42.9,16.6L41.2,15.1L40.6,15.0L40.3,15.2L40.3,17.7L40.2,18.3L39.9,18.6L39.2,18.6L38.8,18.3L37.5,17.3L36.9,17.1L36.5,17.4L36.6,20.2L36.2,20.8L35.6,20.8L34.2,19.9L33.2,19.6L33.1,19.7L33.1,20.4L33.6,22.6L33.5,23.8L33.0,24.2L32.7,24.2L31.4,23.7L30.2,23.0L29.6,22.9L29.4,23.1L29.4,24.0L29.6,24.8L29.6,26.2L29.4,26.4L29.0,26.5L28.0,26.3L27.4,26.0L26.6,26.0L26.5,27.0L27.2,29.0L27.1,29.9L26.8,30.1L26.2,30.1L25.1,29.7L24.7,29.7L24.3,29.5L23.6,29.6L23.5,30.1L24.4,32.3L24.4,32.9L24.3,33.3L23.8,33.6L23.4,33.7L22.1,33.4L21.4,33.4L21.3,33.6L21.3,34.4L22.1,36.1L22.4,37.0L22.3,37.3L21.8,37.7L19.1,37.5L18.7,37.8L18.7,38.3L19.9,40.6L19.9,40.9L19.5,41.6L17.6,41.6L17.0,41.9L16.9,42.0L17.0,42.5L17.4,43.1L18.0,43.7L18.4,44.6L18.5,45.5L18.1,46.0L17.4,46.2L15.8,46.4L15.2,46.7L15.4,47.2L16.9,49.0L17.1,49.6L17.1,50.1L16.9,50.5L16.4,50.9L14.9,51.2L14.0,51.6L14.1,52.2L15.4,53.8L15.4,54.5L15.0,54.9L13.5,55.5L13.2,55.9L13.3,56.2L13.9,56.7L15.0,57.9L15.2,58.2L15.2,59.0L15.1,59.2L14.7,59.7L14.0,59.9L12.8,60.7L13.0,61.3L14.6,62.7L14.7,63.4L14.7,63.7L13.8,64.6L13.2,64.8L12.9,65.1L12.9,65.7L13.8,66.5L14.3,67.2L14.3,68.1L13.7,68.7L13.1,69.1L12.8,69.4L12.8,69.6L13.2,70.1L14.3,70.8L14.7,71.2L15.0,71.6L15.0,72.1L14.7,72.7L13.2,74.0L13.2,74.3L13.5,74.7L15.0,75.3L15.7,75.9L15.8,76.2L15.8,76.8L15.7,77.2L14.0,78.9L14.0,79.2L14.3,79.4L16.1,80.1L16.9,80.9L16.6,82.0L15.8,82.7L15.4,83.3L15.4,83.7L15.8,84.1L16.1,84.1L17.3,84.5L18.0,85.2L18.0,86.0L16.8,87.8L16.7,88.1L17.0,88.4L18.0,88.4L18.8,88.7L19.3,89.2L19.5,89.7L19.5,90.2L18.5,91.9L18.6,92.3L20.6,92.3L21.1,92.4L21.5,92.8L21.7,93.5L22.1,94.2L21.3,94.8L21.0,95.7L21.0,96.1L21.7,96.1L22.0,95.9L23.3,96.0L23.8,96.2L24.2,96.6L24.2,97.7L23.9,98.0L23.6,99.1L23.6,99.8L25.7,99.8L26.4,100.3L26.5,100.9L26.1,102.4L26.1,102.8L26.3,103.1L27.5,102.9L28.3,102.5L29.1,102.6L29.5,103.1L29.6,103.8L29.1,105.7L29.2,106.4L29.7,106.5L31.3,105.7L32.2,105.7L32.7,106.2L32.8,107.1L32.6,108.5L32.5,108.8L32.5,109.1L32.7,109.4L33.0,109.4L35.0,108.3L35.7,108.3L36.2,108.6L36.4,109.1L36.2,111.6L36.5,111.8L36.9,111.8L38.5,110.8L39.1,110.8L39.6,111.2L39.9,112.0L39.9,113.5L40.2,113.9L40.6,113.9L41.0,113.8L42.3,112.7L42.7,112.5L43.3,112.6L43.6,112.9L43.9,113.5L44.0,115.4L44.3,115.8L44.8,115.8L46.2,114.4L46.6,114.3L47.3,114.3L47.8,115.0L48.0,115.9L48.1,117.1L48.4,117.4L48.8,117.4L49.2,117.2L50.1,116.2L50.2,116.0L50.8,115.4L51.5,115.4L52.0,115.8L52.7,118.0L53.0,118.3L53.5,118.2L54.9,116.5L55.3,116.2L55.6,116.2L56.2,116.7L56.7,118.0L56.9,118.7L57.2,119.1L57.7,119.0L59.6,116.4L60.2,116.5L60.7,117.1L61.3,118.0L61.5,118.8L61.8,119.1L62.3,119.1L62.8,118.7L63.7,116.8L64.1,116.5L64.6,116.5L65.1,116.9L66.2,118.6L66.5,118.9L66.9,118.9L67.2,118.7L68.1,116.3L68.7,115.9L69.0,115.9L69.5,116.1L70.3,117.2L70.8,118.0L71.3,118.4L71.6,118.4L72.3,117.6L72.5,116.7L73.0,115.6L73.6,115.6L74.1,115.8L75.5,117.3L75.9,117.3L76.2,116.9L76.8,115.0L77.3,114.6L77.6,114.6L78.1,114.9L79.8,116.5L80.1,116.5L80.5,115.9L80.7,113.5L80.9,113.0L81.2,112.7L81.8,112.6L82.2,112.8L83.9,114.3L84.4,114.3L84.8,113.9L85.0,111.3L85.3,110.8L85.8,110.7L86.3,110.9L87.7,112.0L88.4,112.0L88.5,112.0L88.7,111.6L88.6,109.2L89.0,108.7L89.6,108.6L91.5,109.6L92.2,109.5L92.3,109.2L92.3,108.0L92.2,107.6L92.1,106.1L92.4,105.7L92.9,105.6L93.6,105.7L94.7,106.3L94.9,106.3L95.3,106.6L96.0,106.7L96.3,106.4L96.3,105.9L95.9,104.7L95.9,103.2L96.3,102.9L97.0,102.9L98.5,103.4L99.1,103.4L99.2,103.2L99.2,102.5L98.7,100.9L98.5,99.6L99.0,99.2L99.6,99.2L100.1,99.4L100.7,99.4L101.8,99.8L102.5,99.8L102.6,99.6L102.6,98.8L101.7,97.1L101.5,96.1L102.2,95.7L103.7,95.7L104.3,95.8L105.3,95.7L105.4,95.1L104.8,94.2L104.4,93.1L104.3,92.4L104.7,92.0L105.9,91.8L107.6,92.0L108.0,91.7L107.9,90.9L107.0,89.8L106.8,89.1L106.8,88.7L107.3,88.2L109.7,88.0L109.9,87.9L110.0,87.2L108.4,85.3L108.2,84.5L108.5,84.1L109.0,83.8L110.2,83.7L111.5,83.7L111.9,83.4L111.9,82.9L111.6,82.5L110.0,80.9L109.8,80.5L109.8,80.0L110.4,79.4L112.0,79.0L112.9,79.0L113.4,78.8L113.6,78.7L113.4,78.1L111.9,76.4L111.7,76.1L111.7,75.7L112.3,75.1L114.1,74.6L114.5,74.3L114.5,73.8L112.7,72.5L112.0,71.8L111.9,71.2L112.4,70.6L113.0,70.2L113.5,70.1L113.9,69.8L114.8,69.5L115.1,69.0L113.1,67.5L113.0,66.8L113.1,66.4L113.7,65.8L115.1,65.3L115.4,64.9L115.2,64.2L113.7,63.4L113.2,62.9L113.3,62.1L113.8,61.5L114.4,61.2L115.2,60.5L115.2,60.0L112.9,59.0L112.3,58.3L112.3,58.0L112.6,57.6L113.0,57.2L114.6,56.1L114.9,55.8L115.0,55.5L114.2,54.9L112.1,54.4L111.4,53.5L111.6,52.8L112.6,51.9L113.4,51.4L113.8,51.0L113.9,50.6L113.5,50.2L111.1,49.9L110.4,49.1L110.4,48.7L110.6,48.2L112.2,46.4L112.3,45.9L111.9,45.6L110.6,45.6L109.6,45.3L109.3,44.8L109.3,44.1L109.7,43.3L110.6,42.2L110.8,41.5L110.7,41.3L109.6,41.3L109.1,41.5L108.5,41.4L107.8,41.2L107.4,40.8L107.2,40.4L107.3,39.9L108.6,37.6L108.6,37.3L108.3,37.0L108.0,36.9L106.3,37.0L105.8,36.6L105.6,35.6L106.3,34.2L106.3,33.6L106.0,33.4L105.4,33.4L104.3,33.7L103.2,33.7L102.8,33.5L102.4,33.0L102.4,32.3L103.5,29.7L103.4,29.1L103.0,29.0L101.5,29.5L100.7,29.5L100.2,29.1L100.0,28.6L100.0,28.2L100.7,26.3L100.7,26.0L100.4,25.7L99.3,26.0L98.3,26.3L97.5,26.3L97.0,25.9L96.9,24.9L97.2,24.1L97.5,22.5L97.4,22.0L97.0,21.9L94.8,23.0L94.0,23.0L93.5,22.5L93.5,21.3L93.8,20.3L93.8,19.8L93.7,19.4L92.9,19.4L91.1,20.5L90.2,20.4L89.8,19.9L89.6,19.1L89.7,17.6L89.6,17.2L89.4,17.0L89.0,17.0L88.4,17.3L86.8,18.5L86.0,18.4L85.7,18.1L85.5,17.7L85.5,15.0L85.4,14.5L84.9,14.4L83.2,15.8L82.2,15.8L81.6,15.2L81.4,14.8L81.4,13.8L81.2,13.0L81.0,12.7L80.7,12.7L80.4,12.9L79.2,14.2L78.9,14.4L78.5,14.4L77.7,13.7L77.2,11.1L76.7,11.0L76.0,11.6L74.9,13.2L74.6,13.4L74.0,13.4L73.3,12.8L72.9,11.8L72.7,10.5L72.4,10.0L71.9,10.0L70.2,12.2L69.6,12.2L69.0,11.7L68.5,10.0Z M45.2,58.9L46.0,58.7L47.7,58.7L49.8,59.4L51.1,60.4L52.1,61.5L52.9,62.9L53.1,63.9L53.1,65.4L52.8,67.5L51.8,69.3L50.4,70.5L49.1,71.2L47.6,71.5L46.2,71.5L44.4,70.9L43.3,70.1L42.2,69.0L41.2,67.0L41.0,66.0L40.9,64.2L41.4,62.5L41.7,61.7L43.0,60.1L44.0,59.4Z M77.0,58.3L79.0,58.4L80.3,58.9L81.1,59.4L82.2,60.3L82.9,61.3L83.7,62.7L83.9,63.7L83.9,65.4L83.7,66.9L82.8,68.6L81.9,69.7L81.1,70.4L79.9,70.9L78.8,71.1L78.2,71.3L76.6,71.2L74.5,70.5L73.6,69.8L72.5,68.4L71.6,66.4L71.4,65.5L71.4,63.8L71.7,62.8L72.5,60.8L73.7,59.7L74.8,58.9Z M40.8,52.7L41.2,52.7L42.8,51.9L45.4,51.2L48.7,51.2L50.3,51.5L51.3,51.8L53.5,52.8L54.4,53.4L55.1,54.1L55.3,54.1L56.8,55.5L57.6,56.4L58.8,58.3L60.0,62.0L60.3,64.3L60.3,66.2L60.4,76.1L60.4,89.0L60.2,90.3L59.5,90.9L58.3,90.9L57.6,90.8L56.8,90.0L56.6,89.0L56.6,70.6L56.7,68.0L56.7,64.7L56.6,64.0L56.6,63.0L56.0,61.0L55.2,59.3L54.4,58.2L51.8,56.0L50.4,55.3L49.9,55.2L49.2,54.9L46.9,54.8L44.4,55.3L43.6,55.7L42.0,56.6L39.5,59.0L38.2,61.2L37.7,62.9L37.3,64.5L36.9,64.9L35.1,64.9L34.7,64.8L34.3,64.2L34.2,63.1L34.5,61.1L35.2,59.0L36.2,57.2L36.9,56.4L37.0,56.0L38.5,54.5L39.4,53.9L39.8,53.4Z M82.7,51.5L83.2,51.8L83.6,51.9L83.9,52.2L85.1,52.8L85.9,53.4L88.1,55.5L89.2,57.2L90.7,60.3L90.7,61.2L91.1,62.5L91.1,64.0L91.0,64.3L90.3,64.8L88.8,64.8L88.3,64.6L87.7,63.8L87.3,62.0L86.8,60.6L85.9,59.0L85.1,57.9L83.4,56.2L82.1,55.4L81.0,54.9L79.0,54.5L76.9,54.5L75.3,54.9L73.7,55.5L71.8,56.8L70.7,57.7L69.9,58.6L68.8,60.7L68.1,62.5L67.9,63.8L67.9,74.2L67.7,75.9L67.8,85.9L67.7,90.2L67.6,90.4L67.0,90.9L65.6,90.9L64.7,90.2L64.2,88.9L64.4,85.7L64.1,82.6L64.2,63.5L64.8,60.7L65.4,59.0L66.3,57.0L68.1,54.8L69.9,53.2L71.2,52.3L71.6,52.3L72.6,51.6L74.6,51.0L76.2,50.8L77.0,50.6L79.9,50.8L81.2,51.0Z" fill="#000" fill-rule="evenodd"/>
</svg>