<svg xmlns="http://www.w3.org/2000/svg" viewBox="0 0 128 128" width="128" height="128">
  <path d="M50.0,51.8L48.7,52.1L47.9,52.6L47.0,53.7L46.5,55.0L46.5,56.3L47.2,57.9L48.4,59.0L49.0,59.3L49.6,59.9L49.6,60.3L48.6,62.0L48.1,63.1L47.7,63.6L46.9,65.4L46.7,66.0L46.7,67.2L47.0,68.2L47.6,69.0L48.9,69.9L50.4,70.1L51.5,70.0L52.4,69.4L53.1,68.3L53.5,67.1L53.1,65.0L52.9,64.6L52.7,64.0L51.1,61.0L50.9,60.0L51.3,59.6L52.4,59.0L53.4,58.1L53.7,57.6L54.1,56.5L54.2,54.9L53.7,53.7L52.9,52.6L51.5,51.9Z M86.1,49.9L86.0,49.7L85.4,49.7L84.3,50.3L83.8,50.4L83.2,50.8L81.0,51.6L78.0,53.2L77.4,53.3L75.6,54.2L74.8,55.1L74.3,56.1L74.3,57.3L74.6,58.3L75.2,59.2L75.7,59.6L77.2,60.2L78.0,60.2L78.6,60.0L79.4,59.6L81.5,57.5L82.4,55.9L85.8,51.2L86.2,50.2Z M64.8,9.1L63.8,9.1L63.2,9.3L62.5,9.9L59.8,14.2L59.2,15.2L57.3,18.0L57.1,18.4L56.8,18.8L55.8,20.6L54.7,22.2L54.2,22.5L53.4,22.5L53.0,22.3L51.2,21.2L48.3,19.9L47.7,19.3L45.7,18.4L44.3,17.5L41.4,16.2L40.8,15.7L39.7,15.2L38.9,15.0L37.9,15.1L36.9,15.9L36.5,16.5L36.2,17.5L36.2,24.0L36.0,31.6L36.1,33.0L35.8,33.7L35.2,34.1L34.2,34.4L32.3,34.4L31.6,34.6L30.2,34.6L29.7,34.7L27.1,35.0L24.5,35.0L20.4,35.6L19.1,36.2L18.4,37.2L18.4,38.4L18.5,39.0L19.0,39.9L19.9,41.3L20.7,43.0L21.5,44.1L23.1,46.9L23.7,47.5L24.7,49.5L25.7,50.9L26.2,52.0L26.2,52.8L25.4,53.6L22.1,55.6L21.3,56.3L20.7,56.5L18.9,57.9L17.0,59.0L16.5,59.5L15.8,59.8L14.6,60.9L14.1,61.6L13.8,62.3L14.0,63.4L14.3,64.0L15.1,65.0L16.6,66.0L18.3,67.7L21.4,69.8L22.6,70.9L24.1,71.9L25.6,73.3L25.9,73.8L25.9,74.2L25.5,75.0L24.1,77.2L23.5,77.8L23.2,78.5L22.1,79.8L22.0,80.2L21.1,81.2L17.6,86.6L17.4,87.8L17.7,88.8L18.2,89.5L18.7,89.9L19.8,90.2L24.2,90.8L25.8,91.3L27.4,91.4L28.6,91.7L29.4,91.7L30.8,91.9L31.8,92.3L33.2,92.4L34.2,92.7L34.8,93.2L34.9,94.0L35.0,107.8L35.2,108.8L35.5,109.4L36.7,110.6L38.2,110.7L39.5,110.3L40.2,109.9L40.9,109.8L41.2,109.5L42.3,109.2L44.1,108.4L44.4,108.2L46.0,107.6L46.2,107.4L46.7,107.3L47.3,106.9L48.1,106.7L49.9,105.7L50.4,105.7L52.4,104.8L52.8,104.8L53.6,105.4L54.3,106.7L55.0,107.6L55.5,109.0L56.7,110.8L57.9,113.1L58.4,113.8L60.0,116.9L60.6,117.9L61.3,118.6L62.3,119.2L63.2,119.2L64.2,118.6L64.8,117.9L65.9,116.3L67.1,114.2L69.7,110.6L70.6,109.0L71.0,108.6L72.6,106.1L73.2,105.6L73.4,105.5L74.3,105.5L75.0,105.9L75.4,106.0L76.4,106.6L78.1,107.4L78.3,107.6L79.4,108.1L79.8,108.2L81.5,109.2L83.3,110.0L86.2,111.8L87.5,112.2L88.6,112.2L89.0,112.1L90.1,111.1L90.4,110.7L90.7,109.4L90.9,102.3L90.9,95.5L91.0,94.6L91.3,94.1L91.8,93.7L93.8,93.6L94.4,93.5L96.1,93.5L96.7,93.3L99.3,93.2L102.6,92.7L105.7,92.5L107.3,92.1L107.8,91.8L108.8,90.8L109.0,90.0L109.0,89.0L108.6,87.9L107.3,85.9L107.3,85.6L106.9,85.2L106.7,84.7L105.9,83.3L104.6,81.5L104.2,80.8L103.9,80.5L103.6,79.6L102.6,78.2L102.5,77.9L101.5,76.5L101.2,75.9L101.2,75.3L101.5,74.9L102.1,74.4L102.8,74.1L103.4,73.5L105.6,72.2L107.3,70.9L109.1,69.9L110.6,68.7L111.0,68.7L113.0,67.4L114.0,66.4L114.4,65.2L114.3,64.6L114.0,63.8L113.3,63.0L112.6,62.6L111.5,61.6L110.7,61.3L110.0,60.6L109.5,60.4L108.9,59.8L108.3,59.6L105.1,57.3L103.2,56.1L101.3,54.6L101.3,53.7L102.0,52.6L102.5,52.1L103.4,50.7L105.6,48.0L106.0,47.2L107.3,45.5L108.2,44.1L109.5,42.4L109.9,41.5L110.0,40.6L109.6,39.9L109.3,39.2L108.6,38.4L107.6,38.0L105.6,37.7L104.8,37.4L103.4,37.3L103.0,37.1L101.6,37.1L101.2,36.9L99.3,36.7L98.4,36.4L97.6,36.4L95.5,36.1L94.7,36.1L93.8,35.8L93.1,35.4L92.9,34.3L93.1,28.2L93.1,19.6L92.8,18.6L92.1,17.9L91.1,17.5L90.5,17.4L89.5,17.6L87.0,18.6L86.7,18.6L86.4,18.9L85.1,19.3L84.2,19.9L83.7,19.9L81.0,21.0L78.5,22.3L77.6,22.5L76.0,23.2L75.3,23.3L74.6,22.6L73.5,21.1L73.3,20.6L72.7,19.7L72.1,18.6L71.8,18.2L71.3,17.3L70.9,16.8L69.6,14.5L69.2,14.1L69.0,13.6L67.9,12.1L67.7,11.5L66.8,10.1L66.2,9.6Z M68.2,103.0L68.5,103.2L68.5,103.6L67.9,104.8L67.5,105.3L66.5,106.9L65.8,107.9L65.5,108.6L64.6,109.7L63.8,111.1L63.2,111.5L62.6,111.5L62.1,111.0L61.6,110.1L60.9,108.7L59.8,106.8L58.4,104.4L58.1,103.6L58.1,103.2L58.3,102.9L58.7,102.7L59.7,102.7L62.0,103.0L64.5,103.0L66.8,102.8Z M86.0,95.7L86.1,96.4L86.0,102.1L85.9,104.7L85.5,105.2L84.5,105.1L83.0,104.3L82.6,104.2L80.0,102.9L79.8,102.7L78.6,102.2L77.6,101.6L77.0,101.0L77.0,100.6L77.6,100.0L79.5,99.2L80.0,98.7L83.2,96.9L84.5,95.8L84.8,95.7L85.2,95.4L85.7,95.4Z M40.3,94.6L40.4,94.5L41.3,94.6L45.0,97.4L46.0,97.9L46.6,98.3L49.0,99.7L49.4,100.0L49.5,100.6L49.0,101.0L48.0,101.6L46.8,102.0L45.2,102.9L44.4,103.1L42.1,104.2L41.2,104.5L40.6,104.4L40.3,104.1L40.1,102.2L40.0,95.3Z M41.0,86.4L41.8,84.3L42.3,83.5L43.0,82.6L44.0,80.9L45.1,79.8L45.4,79.7L45.9,79.7L46.3,80.2L47.4,82.5L48.0,83.1L48.8,84.5L50.0,85.8L52.1,87.8L54.4,89.3L55.8,89.9L56.0,90.2L59.2,91.3L61.0,91.6L65.1,91.9L65.6,91.7L66.9,91.6L67.1,91.5L67.9,91.3L69.6,90.6L70.4,90.5L70.9,90.2L71.5,90.0L72.6,89.5L74.3,88.3L75.6,87.4L78.3,84.7L78.9,84.6L82.0,86.6L83.7,87.2L84.4,87.6L84.6,87.6L84.9,87.9L85.0,88.6L84.6,89.3L83.9,89.9L82.3,91.5L81.0,92.6L75.7,95.6L74.9,95.9L73.4,96.6L71.6,97.0L71.2,97.3L69.6,97.5L68.5,97.8L66.9,98.0L62.4,98.2L60.5,97.9L59.6,97.9L56.2,97.2L52.1,95.7L50.2,94.8L47.7,93.3L47.4,93.2L46.1,92.3L43.3,89.9L41.4,87.7L41.0,87.0Z M96.8,78.8L97.7,79.7L97.9,80.2L98.5,80.8L99.2,82.0L101.0,84.8L102.0,86.6L102.1,87.0L101.9,87.4L101.5,87.6L100.3,87.9L99.2,87.9L98.2,88.1L94.5,88.5L92.5,88.5L92.2,88.2L92.1,87.7L94.5,83.6L95.2,81.7L95.3,81.2L95.5,80.9L95.8,80.1L96.2,79.1L96.5,78.9Z M30.0,77.8L30.5,77.9L30.8,78.4L30.8,78.6L31.5,80.1L32.2,82.0L34.4,86.5L34.5,87.2L34.2,87.5L33.2,87.5L31.6,87.1L30.5,87.0L29.8,86.8L27.4,86.5L25.3,85.9L24.8,85.4L24.8,84.9L25.1,84.3L27.0,81.8L27.6,80.7Z M87.1,63.7L89.3,63.7L90.6,64.0L92.1,64.7L92.7,65.1L93.0,65.7L93.0,70.3L92.5,74.0L92.0,76.3L91.6,77.2L91.2,78.8L90.3,81.0L89.3,82.8L88.7,83.3L88.5,83.4L87.4,83.4L86.2,83.0L85.5,82.9L83.9,82.3L82.1,81.2L80.8,79.8L79.7,78.1L79.0,76.5L78.8,75.5L78.7,72.9L79.1,70.6L79.8,68.9L80.2,68.4L80.3,68.0L80.7,67.4L82.2,65.8L82.8,65.3L86.1,63.9Z M98.9,59.1L99.5,59.3L100.5,60.2L101.5,60.6L105.4,63.4L106.2,64.2L106.5,64.9L106.4,65.2L105.9,65.8L103.1,67.7L102.5,68.1L101.4,68.7L100.5,69.4L99.2,70.1L98.8,70.4L98.1,70.5L97.8,70.3L97.7,69.7L97.9,60.2L98.1,59.4L98.4,59.1Z M29.3,57.7L29.6,58.2L29.7,58.7L29.6,65.8L29.3,68.2L29.0,68.5L28.6,68.6L27.8,68.2L27.0,67.5L26.1,67.0L24.0,65.3L23.1,64.7L21.6,63.3L21.4,63.1L21.4,62.7L22.1,62.0L23.1,61.4L23.9,60.7L26.1,59.5L27.3,58.5L28.8,57.7Z M86.9,41.4L87.8,42.3L89.2,44.5L90.5,47.1L91.1,48.6L91.4,49.2L91.4,49.5L92.1,51.6L92.2,52.3L92.5,53.2L92.8,55.4L93.1,56.9L93.0,59.3L92.6,59.7L91.8,59.7L89.2,59.3L87.3,59.3L83.6,60.0L82.7,60.6L80.2,61.8L78.3,63.4L77.5,64.3L76.0,66.4L75.3,67.8L74.6,69.5L74.5,70.5L74.2,71.2L74.1,74.4L74.3,75.8L74.8,78.0L75.3,79.3L75.4,80.0L75.2,80.6L73.9,82.5L71.6,84.5L70.4,85.2L69.1,85.8L68.6,86.1L67.8,86.3L67.4,86.6L65.4,86.9L63.1,87.0L60.6,86.7L59.0,86.3L56.8,85.3L54.4,83.4L52.5,81.2L51.0,78.5L50.7,77.0L50.7,76.5L51.2,76.1L53.1,75.4L55.4,75.1L56.4,75.2L57.2,75.8L58.4,77.6L59.5,78.8L61.1,79.6L62.5,79.9L64.3,80.0L65.5,79.8L67.1,79.0L67.9,78.5L68.8,77.5L69.7,76.1L70.2,74.1L70.2,73.5L70.4,73.0L70.4,69.8L70.6,68.5L70.5,66.4L70.6,65.9L70.6,59.4L70.8,56.6L70.9,55.4L71.2,54.7L71.3,54.1L71.6,53.7L71.8,53.2L74.1,50.7L79.7,46.2L80.2,45.9L81.4,44.8L83.6,43.3L84.3,42.6L86.1,41.4Z M94.0,40.8L95.0,41.1L96.5,41.1L97.2,41.4L98.2,41.4L100.1,41.8L101.2,41.8L101.9,42.0L102.5,42.5L102.5,43.1L102.0,44.0L100.9,45.4L99.8,47.2L98.8,48.3L97.8,49.8L97.4,50.2L97.0,50.2L96.6,49.8L95.7,46.9L95.3,46.2L95.2,45.8L94.3,43.8L93.5,42.5L93.2,41.6L93.3,41.0Z M35.0,39.2L35.5,39.7L35.3,40.4L34.2,42.1L33.3,44.0L31.3,48.7L31.0,49.0L30.4,48.9L29.4,47.6L28.8,46.4L28.1,45.5L28.1,45.4L26.2,42.5L25.8,41.5L25.5,40.7L26.1,40.1L27.7,39.8L30.6,39.6L32.1,39.3Z M82.1,36.2L82.9,37.2L82.7,37.8L82.1,38.4L80.1,39.9L77.4,42.2L74.4,44.5L71.0,47.4L68.9,49.5L67.9,51.0L67.1,52.6L66.9,53.5L66.5,54.3L66.3,55.6L66.3,56.6L66.2,57.6L66.0,71.8L65.9,73.4L65.4,74.4L64.9,74.9L64.3,75.3L63.2,75.4L62.1,74.8L61.5,73.8L61.3,72.8L61.5,70.3L61.8,54.6L61.5,53.6L61.0,53.0L60.3,52.6L59.1,52.5L58.1,52.9L57.6,53.5L57.2,54.3L57.0,57.6L56.9,62.8L56.8,64.0L56.8,68.4L56.6,68.9L56.5,70.1L55.8,70.5L52.4,70.8L50.3,71.4L49.9,71.6L49.1,71.7L48.0,72.4L47.4,72.5L45.7,73.4L43.7,75.0L42.9,75.5L40.5,77.9L40.2,78.5L39.3,79.5L38.6,80.7L38.0,81.2L37.5,81.2L37.2,80.9L36.6,79.9L36.2,78.7L35.7,77.5L34.9,74.3L34.4,70.4L34.4,59.2L34.5,58.0L34.5,56.6L34.9,54.9L35.8,54.2L39.6,53.9L40.5,53.7L40.9,53.4L42.3,52.9L43.6,52.0L45.3,50.5L46.2,49.6L47.3,48.7L49.1,47.8L51.3,47.4L55.2,47.4L56.3,47.5L57.7,47.4L58.6,47.0L59.1,46.5L59.5,45.7L59.5,44.9L59.3,44.2L58.4,43.3L57.6,43.0L51.2,42.9L49.7,43.1L49.0,43.4L47.9,43.5L46.1,44.4L45.9,44.6L44.6,45.3L43.5,46.2L42.0,47.7L40.3,49.0L39.6,49.4L38.2,49.8L37.6,49.9L36.8,49.7L36.5,49.3L36.6,48.1L38.3,44.5L40.1,41.9L41.1,40.8L41.4,40.2L44.0,37.5L44.9,36.7L45.3,36.5L46.5,35.4L48.0,34.4L50.4,33.0L51.4,32.6L52.0,32.2L52.3,32.2L52.6,32.0L53.2,31.8L53.7,31.5L54.7,31.1L55.8,31.0L56.4,30.7L59.0,30.3L60.8,29.8L62.3,29.7L66.3,29.8L67.3,30.1L69.3,30.3L71.9,31.0L77.0,32.8L77.3,33.1L79.2,34.0L80.0,34.7L81.1,35.4Z M78.6,27.6L79.0,27.2L79.5,27.0L79.7,26.8L80.2,26.7L81.0,26.3L81.5,26.0L81.9,25.9L83.5,25.1L84.3,24.9L86.6,23.8L87.5,23.6L88.1,24.2L88.2,24.6L88.2,30.1L87.8,33.9L87.5,34.1L86.9,34.0L84.0,31.7L82.9,31.0L82.3,30.6L82.0,30.5L80.0,29.3L78.6,28.0Z M41.6,22.1L42.3,22.1L43.9,22.9L44.6,23.1L46.2,24.1L47.6,24.7L47.8,24.9L48.5,25.2L49.1,25.6L50.1,26.1L50.6,26.4L51.0,27.0L51.0,27.2L50.7,27.6L49.4,28.1L47.7,29.3L46.2,30.0L44.5,31.3L42.1,32.7L41.6,32.7L41.4,32.6L41.3,32.0L41.2,30.9L41.3,22.9Z M59.1,24.4L59.3,23.7L63.6,17.2L64.2,16.7L64.7,16.7L65.2,16.9L65.5,17.4L67.0,19.9L67.7,20.7L68.0,21.3L69.0,22.7L69.9,24.6L69.9,24.9L69.7,25.3L69.3,25.4L67.4,25.3L66.5,25.2L63.6,25.1L59.5,25.2L59.1,24.9Z" fill="#000" fill-rule="evenodd"/>
</svg>