<svg xmlns="http://www.w3.org/2000/svg" viewBox="0 0 128 128" width="128" height="128">
  <path d="M37.6,90.2L36.9,89.1L36.8,88.7L36.1,87.8L35.4,87.5L34.0,87.2L33.1,87.2L32.2,87.5L31.1,88.3L29.4,90.2L28.8,90.7L26.9,91.4L25.7,91.5L24.2,91.0L23.8,90.6L23.2,89.7L22.7,88.7L22.6,87.3L22.3,87.3L21.8,87.8L21.6,88.4L21.1,89.6L20.9,90.5L21.0,92.9L21.4,94.1L21.4,94.6L21.9,95.8L24.0,97.9L26.8,99.3L27.8,99.4L29.1,99.7L31.7,99.6L32.7,99.0L34.0,98.4L34.3,98.1L36.1,97.0L36.8,96.2L37.1,95.5L37.7,93.5L37.8,91.5Z M52.4,72.1L52.2,72.4L52.2,73.5L52.5,74.6L52.6,75.9L52.6,76.9L53.0,77.0L53.3,76.7L53.2,75.4L53.4,72.9L53.3,72.5L53.0,72.2Z M68.3,59.3L67.2,59.2L66.7,59.5L66.5,59.7L66.5,61.2L66.3,61.8L66.4,62.1L66.9,62.1L67.5,61.3L68.6,60.4L68.7,59.7Z M9.2,57.8L10.2,61.3L10.2,64.5L10.1,65.2L10.0,67.8L10.7,71.9L11.6,74.5L11.9,74.9L12.5,75.9L13.0,76.4L13.3,77.3L14.3,78.8L14.3,79.1L13.3,79.3L13.2,79.4L13.2,79.8L13.3,80.4L13.9,81.4L14.3,83.0L14.9,83.9L15.4,84.4L16.5,86.1L17.1,86.7L18.5,87.6L19.9,88.4L20.4,88.4L20.8,88.2L22.4,86.6L23.1,86.2L23.6,86.3L23.7,86.5L23.7,86.8L23.3,88.0L23.3,88.4L23.6,89.0L24.0,89.4L24.7,89.7L25.4,89.7L25.9,89.4L26.8,89.3L27.7,89.0L29.0,88.1L29.9,88.0L30.8,87.0L30.9,86.7L31.2,85.4L31.7,84.0L31.6,83.1L31.9,82.8L32.3,82.9L34.0,84.9L34.3,85.6L35.9,86.9L36.6,87.6L37.3,88.1L38.5,88.7L40.9,90.2L41.7,90.6L41.9,90.6L43.2,91.3L43.2,91.5L42.9,91.8L40.9,92.4L40.0,92.9L38.9,94.0L38.5,94.7L37.9,95.2L37.4,96.4L37.4,96.7L36.8,98.0L36.8,99.9L37.3,101.4L37.6,102.1L38.7,103.3L39.3,104.3L39.9,104.9L40.9,105.6L42.6,106.3L43.4,106.9L44.3,107.0L45.0,107.3L46.4,107.6L48.5,107.8L49.5,108.1L51.2,108.1L51.9,107.9L53.3,107.9L54.4,108.1L55.3,108.0L56.4,108.0L56.7,107.7L56.8,107.3L57.1,107.3L58.1,107.9L59.1,108.0L59.8,108.2L61.8,108.2L64.5,107.4L65.0,107.0L67.1,106.0L67.6,105.7L70.0,103.2L70.9,102.5L71.3,102.4L71.9,102.5L74.0,102.5L74.9,102.3L77.3,102.3L81.9,100.7L84.5,99.1L87.2,96.7L88.1,94.9L88.5,94.5L89.8,94.4L90.6,94.5L92.0,94.3L93.7,93.5L94.7,92.9L95.8,91.9L97.5,90.0L97.6,89.6L98.1,88.7L98.1,88.5L98.8,87.2L99.3,85.2L99.4,83.0L99.5,82.8L102.0,83.0L103.0,82.8L103.4,82.6L104.9,81.2L105.7,80.7L107.3,79.1L109.6,76.0L109.8,75.6L110.9,74.5L112.8,73.8L114.1,73.8L116.0,74.4L116.4,74.7L118.3,75.5L118.8,75.6L119.2,75.3L119.2,74.9L118.8,73.8L117.6,71.4L115.7,69.7L113.6,68.6L111.2,68.2L107.7,68.3L107.0,68.6L106.4,68.7L105.8,69.0L105.3,69.0L104.6,69.3L103.3,69.5L102.4,70.0L102.1,70.0L101.9,69.8L101.9,69.7L104.1,67.6L105.3,66.2L106.2,65.7L107.1,64.9L107.8,64.0L110.9,61.0L111.3,60.4L112.2,59.7L112.8,59.5L113.9,59.5L114.5,59.7L115.2,60.0L115.6,60.1L117.1,61.4L117.5,61.4L117.5,61.2L117.5,60.3L117.2,59.0L116.9,58.6L116.8,58.0L116.6,57.6L115.7,56.8L114.6,56.1L112.6,54.2L111.3,53.6L108.8,53.2L107.1,53.5L104.7,53.5L104.0,53.9L103.0,54.1L102.5,54.4L101.5,54.5L100.5,54.9L98.6,56.1L97.6,57.1L96.1,58.2L94.7,59.0L94.0,59.7L92.3,60.6L91.2,60.8L90.5,61.1L88.6,61.4L87.5,61.7L84.2,61.9L83.1,62.4L82.1,63.3L81.7,64.0L81.2,66.9L81.4,67.9L82.2,69.3L82.6,69.7L82.7,70.1L81.3,71.2L80.1,72.4L79.7,72.5L79.5,72.4L79.5,71.1L79.9,70.0L80.0,68.9L80.2,68.7L80.3,67.9L80.4,65.2L80.7,63.8L80.7,61.5L80.4,60.7L80.2,59.3L80.0,59.0L80.1,58.5L80.5,58.5L81.6,59.7L82.3,60.1L84.1,60.8L85.5,61.1L86.1,61.1L87.1,60.7L89.2,60.7L90.6,60.3L92.1,59.5L93.0,58.5L94.0,56.2L94.4,54.5L94.5,52.4L94.2,51.3L94.4,51.1L94.6,51.1L95.0,51.4L95.4,51.3L96.6,50.6L97.9,49.5L99.6,46.8L99.7,46.5L100.2,45.8L100.6,45.0L100.7,44.5L101.1,43.5L101.9,42.0L102.9,39.6L103.4,39.0L104.5,38.4L104.5,38.1L104.2,37.9L102.9,37.8L101.5,38.0L100.9,38.3L98.1,40.2L96.4,41.8L95.0,42.5L92.3,42.5L90.9,42.1L89.7,41.5L89.0,40.8L88.5,40.0L87.6,38.9L86.5,38.5L85.4,37.6L84.4,37.3L83.6,36.6L82.3,36.3L81.4,36.3L80.9,36.1L79.6,36.4L78.8,36.3L78.8,36.1L79.8,35.5L81.3,34.1L82.9,31.9L83.3,30.9L83.3,29.7L83.3,29.0L83.0,28.4L82.8,28.2L82.4,28.2L82.0,28.8L80.2,30.7L78.6,31.7L77.0,31.7L73.8,31.1L73.0,30.7L71.7,29.7L71.1,29.4L70.0,28.7L69.5,28.6L68.5,28.3L67.1,28.1L66.8,27.9L66.8,27.6L67.9,26.9L69.4,25.2L69.8,24.5L69.7,24.2L69.2,24.2L68.2,24.8L66.3,25.5L65.6,25.5L64.8,25.2L61.2,25.1L58.4,24.2L56.9,23.4L56.3,23.1L55.8,22.7L54.1,21.4L53.0,21.1L52.4,20.7L51.2,20.2L47.7,20.0L46.2,20.4L45.1,20.4L41.8,21.4L40.1,22.9L38.5,24.6L37.8,25.2L37.1,25.8L37.1,26.6L37.4,26.9L37.9,27.2L39.2,27.0L39.5,27.3L41.6,28.0L41.9,28.1L41.9,28.4L39.9,28.1L39.0,27.8L37.8,27.9L36.6,28.3L36.1,28.6L35.4,28.8L34.0,30.3L33.0,31.4L32.6,32.8L32.3,33.5L32.2,34.2L32.2,35.2L32.6,37.1L33.6,39.3L34.5,40.5L35.0,41.0L35.8,41.2L36.1,41.5L36.1,41.8L35.6,42.3L35.0,42.6L34.4,43.1L34.0,43.8L32.6,44.9L32.0,44.9L31.9,44.4L32.3,42.8L32.3,40.2L32.2,38.8L31.9,37.6L31.9,36.9L31.1,35.1L30.9,32.9L31.3,31.0L32.2,29.3L32.3,28.7L32.3,27.6L32.0,26.6L31.7,25.9L31.2,25.4L30.6,25.4L30.3,26.6L29.4,27.9L28.5,28.7L27.2,29.4L26.1,30.3L25.3,31.1L24.6,32.0L24.0,32.4L22.9,33.9L22.5,35.1L21.9,36.2L21.6,38.0L21.4,38.8L21.5,41.2L21.7,42.3L22.7,44.5L23.8,45.7L24.9,46.6L25.0,46.9L24.8,47.0L24.6,47.0L23.9,46.8L22.6,46.7L20.5,46.8L19.8,46.5L19.0,45.7L18.5,44.5L18.5,42.1L18.1,41.8L17.4,42.0L16.0,43.3L15.0,44.7L14.4,46.1L14.1,47.3L14.0,48.9L14.1,51.1L14.3,51.6L14.7,51.9L15.4,51.8L16.3,51.4L17.4,51.1L19.2,51.1L19.5,51.3L19.5,51.6L19.1,51.8L17.7,51.8L16.8,52.3L15.4,53.1L14.0,54.7L13.4,55.9L13.0,57.0L13.0,59.3L13.5,60.6L13.4,61.1L13.1,61.1L12.4,60.4L12.0,59.7L10.3,58.0L9.7,57.6L9.3,57.6Z M54.7,105.9L54.9,105.9L55.0,106.2L54.7,106.2Z M66.3,100.9L66.9,100.9L67.3,101.1L67.5,101.3L67.4,101.5L66.9,101.5L66.3,101.2Z M64.9,99.0L65.0,99.0L65.4,99.4L65.4,99.7L65.0,99.8L64.7,99.4Z M47.8,92.1L51.9,92.7L56.7,92.7L56.6,92.9L55.5,93.2L54.8,94.1L53.7,95.0L52.9,96.2L52.1,97.8L51.9,99.1L51.9,101.4L52.4,103.0L53.3,104.5L53.4,104.9L53.3,105.0L52.6,104.7L51.9,104.1L51.2,102.7L51.2,101.3L51.0,100.4L51.2,99.2L50.6,95.8L49.3,94.4L48.1,93.5L47.4,92.5L47.4,92.3Z M89.3,91.2L89.5,91.4L89.5,92.0L89.2,92.4L89.0,92.4L88.8,92.1L88.8,91.7L89.1,91.2Z M88.1,89.6L88.1,90.0L87.8,90.4L87.6,90.3L87.7,89.7L87.8,89.6Z M66.2,89.7L66.1,90.0L65.7,90.4L64.9,92.1L64.7,92.7L64.7,93.9L64.1,95.6L63.6,95.9L62.7,94.7L62.0,94.1L60.4,93.3L58.8,93.0L57.8,92.9L57.5,92.7L59.8,91.4L60.5,91.2L62.5,91.0L64.3,90.2L64.8,90.1L65.9,89.5Z M74.0,83.8L74.1,84.8L74.0,85.4L74.0,87.6L74.3,88.5L74.3,89.0L73.8,89.0L73.0,88.6L72.6,88.5L71.8,88.1L70.2,88.0L69.6,87.6L69.7,87.3L70.2,86.8L71.4,85.9L71.7,85.6L71.9,85.1L72.7,84.2L73.5,83.7Z M53.0,82.0L53.0,82.1L52.6,82.4L51.9,82.5L51.4,82.7L50.5,82.7L49.9,82.8L48.5,82.8L48.1,82.5L48.2,82.1L48.6,82.1L50.6,82.1L51.4,81.8L52.8,81.8Z M59.4,81.4L59.4,81.5L59.1,81.8L58.7,82.0L58.0,82.5L57.4,82.6L57.0,82.5L57.1,82.1L58.4,81.7L58.9,81.3Z M56.4,78.9L56.4,79.3L55.9,79.6L55.0,79.3L54.0,79.3L53.0,79.7L52.3,79.7L52.0,79.4L52.6,79.1L53.4,79.0L54.7,78.7L56.0,78.7Z M50.4,78.8L50.4,79.0L50.2,79.3L49.5,79.3L47.8,79.7L45.1,79.8L45.1,80.1L45.6,80.6L45.4,80.7L45.0,80.7L44.0,80.2L43.5,79.7L43.5,79.3L43.7,79.1L45.3,78.3L45.8,78.1L46.5,77.6L47.3,77.2L48.6,76.8L48.8,77.1L48.5,77.4L47.4,77.9L46.5,78.5L46.6,79.0L48.2,79.0L49.5,78.3L49.9,78.3Z M49.0,76.9L49.1,76.7L49.5,76.9Z M57.8,76.6L58.7,76.8L60.9,78.0L61.5,78.1L62.2,78.5L62.4,78.5L62.8,78.8L62.8,79.2L62.3,79.6L61.3,80.1L60.9,80.1L59.9,79.1L59.9,78.9L60.3,78.7L60.3,78.4L59.4,77.7L58.2,77.2L57.7,76.7Z M78.8,75.5L79.1,75.8L79.1,76.0L79.9,78.0L80.1,78.6L80.0,79.0L79.6,79.3L78.5,79.3L77.4,79.6L76.8,79.9L76.4,79.9L76.2,79.7L76.2,79.5L76.5,79.2L76.9,78.5L77.5,76.9L78.5,75.5Z M29.5,79.3L29.4,79.7L28.8,79.7L28.4,79.5L26.8,79.5L25.7,79.8L24.6,80.4L23.4,81.4L21.8,82.3L21.2,82.4L20.5,82.7L19.0,82.6L17.5,82.2L16.4,81.4L15.2,80.2L15.4,79.9L15.8,79.9L16.8,80.4L17.5,80.4L18.8,81.1L20.1,81.3L21.4,81.3L22.4,81.1L24.0,80.1L25.1,78.9L25.4,78.1L26.1,77.2L26.5,75.6L26.8,75.2L27.1,75.2L27.3,75.5L28.0,77.1Z M89.2,72.8L89.2,72.4L89.8,72.4L90.7,72.6L91.0,72.8L90.8,73.1L90.0,73.1L89.3,72.9Z M98.8,71.6L98.5,72.0L97.5,72.5L95.4,73.0L93.5,73.0L92.9,73.1L91.6,73.1L91.4,72.8L91.6,72.7L94.5,72.5L95.2,72.2L96.5,72.1L98.2,71.3L98.7,71.4Z M61.3,65.2L61.6,65.0L62.8,65.1L63.1,65.3L62.9,65.6L62.2,65.6L61.6,65.6Z M43.8,64.5L43.5,64.9L42.1,65.2L39.9,64.9L39.7,64.7L39.8,64.5L40.9,64.6L43.1,64.2L43.7,64.2Z M24.9,63.5L25.1,63.5L25.4,64.6L25.5,66.3L26.0,67.7L26.0,69.2L26.3,71.0L26.0,71.4L25.7,71.3L23.1,68.8L22.3,68.2L21.8,68.0L20.2,68.1L20.0,67.9L20.2,67.6L20.9,67.6L21.9,67.3L22.8,66.4L23.9,65.8L24.6,64.9L24.7,64.2Z M14.1,63.2L14.4,63.4L15.0,64.8L16.0,65.9L15.8,66.1L15.3,65.7L14.1,64.4L14.0,64.0L14.0,63.4Z M33.5,58.9L34.0,59.1L33.9,59.4L34.0,60.3L33.4,60.4L32.7,59.9L32.7,59.6Z M70.0,58.3L70.2,58.2L70.6,58.3L70.9,58.4L71.3,59.1L71.0,59.2L70.1,58.7Z M58.5,58.1L58.3,58.7L57.9,59.3L57.9,59.7L58.5,60.5L58.5,60.9L58.0,61.9L58.0,62.4L58.5,63.0L59.5,63.5L59.5,63.8L59.4,63.8L58.4,63.8L57.8,63.3L56.7,62.8L56.3,62.4L56.3,62.1L56.7,61.5L56.7,61.1L57.1,60.2L57.2,59.3L57.8,58.4Z M59.5,59.0L59.8,58.7L61.2,57.9L62.5,57.7L62.9,57.6L65.0,57.6L66.3,57.8L67.8,58.3L69.2,59.2L70.0,60.0L70.7,60.2L70.8,60.6L69.1,62.7L67.9,63.8L67.2,64.7L66.2,65.2L64.7,65.4L64.3,65.2L64.6,64.9L65.1,64.7L65.2,64.5L65.0,64.3L63.0,64.6L60.8,64.4L60.6,64.0L61.6,63.8L61.7,63.5L60.8,62.4L60.3,61.3L60.3,60.8L61.0,59.4L61.0,59.2L60.7,59.0L60.5,59.0L59.7,59.3L59.5,59.3Z M66.6,56.8L68.1,56.8L68.3,56.9L68.3,57.4L67.0,57.4L66.6,57.2Z M37.4,56.5L37.3,56.9L37.0,57.2L36.5,57.4L35.9,57.3L35.9,57.2L37.1,56.3Z M64.8,56.6L64.3,56.8L60.2,56.9L59.9,57.2L59.6,57.0L59.9,56.8L60.2,56.8L60.7,56.5L63.0,56.1L64.3,56.1L64.7,56.2Z M34.8,60.0L35.6,59.3L35.9,58.7L36.6,58.0L37.4,57.6L37.7,57.6L37.8,57.7L37.8,58.5L37.2,59.0L36.1,59.4L36.1,60.4L36.4,60.8L37.4,61.7L38.6,62.3L39.5,62.6L40.0,62.5L39.9,62.1L39.1,61.3L38.9,60.6L38.7,60.2L38.8,59.1L39.2,58.1L39.7,57.6L41.0,57.0L42.4,57.0L43.1,57.2L43.6,57.0L43.5,56.8L43.0,56.7L40.3,56.7L38.5,57.3L38.4,56.9L39.3,56.4L40.1,56.2L42.0,55.9L42.0,55.6L41.6,55.2L41.8,55.0L42.6,55.0L42.9,55.2L43.5,55.2L44.1,55.5L44.7,55.9L44.9,55.9L45.9,56.3L46.7,56.9L47.7,57.9L48.4,59.0L48.5,59.5L48.5,59.9L48.4,60.2L47.6,61.1L46.7,62.9L46.1,63.4L45.7,63.1L46.1,62.7L46.1,62.4L45.7,61.9L45.9,61.6L46.4,61.3L47.1,60.4L47.4,59.6L47.4,59.0L46.8,58.3L46.2,58.3L45.4,58.0L44.7,58.1L44.7,59.9L44.3,61.0L43.3,62.0L42.3,62.4L41.4,62.4L41.2,62.7L41.7,62.9L43.0,63.0L43.0,63.2L42.6,63.4L40.0,63.5L38.8,63.4L38.5,63.2L37.4,63.0L36.8,62.5L36.0,61.2L35.7,60.9L34.8,60.4Z M36.0,53.9L36.0,54.5L35.0,55.5L34.8,55.4L35.2,54.4Z M85.5,53.1L86.1,53.0L86.3,53.2L86.9,53.5L88.5,53.6L89.7,53.5L90.5,53.3L90.9,53.0L91.3,53.0L91.5,53.1L91.5,53.4L90.2,55.0L90.1,55.0L88.8,55.9L87.8,55.9L86.7,55.3L86.1,54.8L85.6,53.8Z M38.2,52.9L38.2,53.1L37.7,53.5L37.1,53.5L37.1,53.1L37.8,52.8Z M19.5,52.6L19.5,52.8L18.2,54.2L17.9,54.1L18.0,53.5L18.6,52.8L19.2,52.5Z M64.7,52.4L65.2,52.4L65.9,52.8L67.0,53.2L68.1,54.0L69.2,54.5L69.6,54.9L70.5,55.9L70.5,56.2L70.3,56.4L69.9,56.2L66.8,53.8L65.7,53.1L65.0,52.9L64.6,52.5Z M63.5,52.3L63.8,52.3L63.9,52.6L63.4,52.5Z M62.3,52.3L62.5,52.4L62.5,52.7L60.7,52.9L59.0,53.4L58.7,53.7L58.5,54.5L57.4,55.6L57.1,56.2L56.1,57.6L55.8,59.4L55.0,61.5L54.9,63.5L54.7,64.3L54.7,65.8L54.9,66.2L54.9,66.9L54.7,67.1L54.8,68.3L55.6,70.0L56.1,70.7L57.1,70.7L57.6,70.5L57.9,70.5L58.0,71.0L57.4,71.4L56.5,71.4L56.1,71.6L55.8,71.9L54.9,72.4L54.4,72.9L54.3,73.5L54.1,73.9L54.1,76.0L54.3,76.2L54.7,76.2L56.9,76.2L57.3,76.6L56.8,76.7L55.4,76.7L54.2,77.3L53.1,78.1L52.4,78.2L51.7,78.0L50.4,77.2L50.3,77.0L50.5,76.9L51.3,76.9L51.6,76.5L51.6,74.9L51.5,73.2L51.2,72.1L50.9,71.8L50.2,71.6L47.8,71.7L47.1,71.5L46.8,71.4L46.2,70.7L46.0,70.2L46.1,69.6L46.4,69.0L46.8,68.6L47.1,68.6L47.1,68.9L46.8,69.4L46.8,70.0L47.5,70.7L48.1,71.0L48.5,71.0L49.3,70.6L49.9,70.0L50.2,69.0L50.6,69.4L50.7,70.0L51.0,70.7L51.9,71.3L52.9,71.2L53.7,70.6L54.0,70.0L54.3,67.6L54.0,66.8L53.9,63.9L53.6,62.4L53.6,59.0L54.0,57.8L54.4,56.3L54.8,55.7L56.1,54.3L57.7,53.1L59.1,52.6L60.4,52.5L61.3,52.2Z M45.7,52.1L46.1,52.1L46.9,52.4L47.5,53.0L48.8,53.6L49.4,54.2L49.6,54.7L49.7,55.6L50.4,56.9L50.6,57.7L50.6,58.7L50.2,58.8L50.0,58.6L49.7,57.1L48.1,54.2L47.0,53.1L46.4,52.7L45.7,52.4Z M43.0,51.6L43.0,51.8L42.2,51.9L41.5,52.1L40.3,52.2L39.2,52.4L38.8,52.7L38.5,52.7L38.6,52.1L39.2,51.8L39.7,51.8L40.4,51.5L42.2,51.4Z M77.4,50.1L79.5,50.7L80.9,50.7L81.3,50.8L81.2,51.1L80.7,51.4L80.3,51.8L79.7,52.7L79.4,53.4L79.2,54.3L79.0,54.6L78.8,54.6L78.5,54.4L77.8,52.9L77.7,52.4L77.7,51.6L77.2,50.6L77.2,50.3Z M31.0,46.2L31.2,46.5L31.2,46.8L30.0,48.2L29.9,48.5L29.2,49.7L29.0,50.5L28.1,51.8L27.8,53.4L27.0,54.9L26.8,55.8L26.3,56.7L25.8,57.9L25.4,61.0L25.2,61.5L24.9,61.5L24.5,60.7L23.5,59.6L23.0,59.3L21.8,58.2L19.5,57.0L18.8,56.3L18.5,56.2L18.5,55.9L21.2,56.9L23.8,56.9L24.4,56.6L25.7,55.5L26.9,53.5L27.0,52.0L27.3,51.2L27.4,50.7L27.2,49.9L26.6,48.8L26.5,48.3L26.3,48.1L26.3,47.6L26.7,47.5L27.4,47.5L28.7,47.3L29.8,46.7L30.2,46.6L30.5,46.3Z M62.6,37.9L62.8,37.7L63.3,37.8L63.5,38.0L63.5,38.2L63.0,38.2Z M60.4,37.0L60.5,36.9L61.0,36.9L61.9,37.3L61.8,37.6L61.3,37.6Z M77.9,36.6L77.6,36.9L77.1,37.2L75.4,39.0L74.7,40.7L74.4,41.7L74.4,42.8L74.2,43.7L74.2,45.2L74.9,46.3L74.9,46.5L74.6,46.6L74.3,46.5L72.9,44.9L71.6,44.0L70.2,42.5L69.1,41.7L67.8,41.0L66.4,39.9L65.4,39.3L65.3,39.1L65.5,38.9L66.3,38.9L67.3,38.7L69.1,38.7L70.6,38.2L72.7,38.0L74.0,37.3L75.1,37.3L76.2,36.6L76.7,36.4L77.6,36.4Z M49.9,36.2L49.9,36.5L47.5,36.9L45.4,37.8L43.4,38.1L42.3,38.7L41.4,39.3L40.8,39.5L40.3,39.5L40.0,39.3L40.0,39.1L41.2,38.2L41.6,38.0L41.9,37.6L42.7,35.5L43.6,34.5L44.5,33.7L45.2,33.4L45.7,33.4L45.8,33.5L45.9,34.1L46.2,34.6L47.3,35.6L47.9,35.9L49.5,36.1Z M47.4,31.9L47.5,32.2L47.3,32.5L46.8,32.7L46.7,32.4L47.0,32.1Z M44.8,30.4L44.9,30.1L46.3,30.0L47.0,30.2L47.6,30.2L47.8,30.3L47.8,30.6L47.4,30.7L46.0,30.9L45.4,30.8Z M43.5,29.2L43.9,29.2L44.5,29.7L44.4,30.0L43.9,29.8L43.5,29.4Z M65.2,28.1L64.5,28.1L62.6,28.6L61.9,28.6L61.3,28.7L59.3,29.7L58.6,30.1L57.8,30.9L57.3,32.3L57.4,33.8L57.8,34.7L58.3,35.4L59.5,36.4L59.5,36.7L58.7,36.7L57.6,36.5L55.9,36.5L54.7,36.2L53.6,36.2L53.1,36.4L50.5,36.6L50.2,36.2L51.2,35.9L52.6,35.8L54.7,34.4L55.2,33.8L55.6,33.1L56.4,32.3L56.8,31.5L57.8,30.1L58.5,29.4L60.0,28.6L60.9,28.5L61.9,28.1L63.7,27.8L64.5,27.8Z" fill="#000" fill-rule="evenodd"/>
</svg>