<svg xmlns="http://www.w3.org/2000/svg" viewBox="0 0 128 128" width="128" height="128">
  <path d="M75.4,21.1L71.2,21.6L66.7,22.5L64.5,23.4L63.5,23.6L58.2,26.0L56.9,26.9L56.1,27.3L53.9,28.7L52.4,30.0L51.5,30.5L49.4,32.6L48.9,33.0L47.4,34.5L46.8,35.2L46.7,35.8L48.0,36.4L48.9,37.1L49.3,37.3L52.1,38.8L53.3,39.3L53.7,39.4L55.2,40.2L56.6,40.6L59.0,41.7L59.3,41.7L61.3,42.4L65.3,43.4L70.7,44.3L72.7,44.4L74.2,44.6L77.5,44.7L81.6,44.4L86.0,44.0L86.6,43.7L88.2,43.5L89.2,43.2L90.1,43.1L91.3,42.8L92.0,42.7L93.5,42.1L94.6,41.8L95.5,41.5L96.0,41.4L96.5,41.1L98.1,40.6L100.3,39.7L101.0,39.9L102.3,41.0L103.1,42.0L103.2,42.8L102.9,43.1L101.9,43.6L99.6,44.3L98.4,44.7L97.7,44.8L96.4,45.3L95.5,45.3L94.3,45.7L93.8,45.7L92.6,46.1L92.1,46.1L90.4,46.5L89.3,46.6L88.8,46.8L88.0,46.8L85.7,47.2L84.3,47.2L84.0,47.4L81.8,47.4L80.7,47.5L75.9,47.6L71.8,47.5L64.8,46.7L58.8,45.5L55.3,44.4L54.9,44.4L53.7,44.0L52.9,43.8L51.5,43.2L50.4,43.0L46.7,41.5L46.0,41.3L45.7,41.1L44.2,40.6L43.6,40.2L43.1,40.2L42.5,40.9L41.7,42.1L41.6,42.5L41.0,43.6L39.9,45.5L38.5,48.8L38.5,49.3L38.1,50.1L37.7,51.3L37.2,53.5L36.8,54.5L36.7,55.4L36.4,56.5L36.0,59.1L35.9,59.6L35.6,60.0L34.5,60.2L29.9,60.1L29.2,60.2L26.5,60.2L26.0,60.0L25.9,59.6L27.5,57.7L34.7,50.3L34.8,50.0L34.8,49.5L34.6,49.1L33.4,48.1L33.3,47.8L29.4,43.9L29.0,43.7L28.4,44.1L28.1,44.6L27.1,45.5L25.6,47.2L22.5,50.4L21.3,51.8L20.0,52.9L19.6,53.5L18.3,54.7L16.6,56.6L13.8,59.4L13.3,60.2L11.2,62.1L11.0,62.4L9.2,64.3L9.1,64.9L10.3,66.1L10.7,66.6L12.9,68.8L15.7,71.9L23.4,79.6L24.7,81.1L28.6,85.0L29.0,85.3L29.6,85.2L31.2,83.6L31.4,83.3L34.4,80.2L34.9,79.5L34.9,79.2L31.4,75.4L29.0,73.1L26.1,69.8L25.7,69.3L25.7,69.0L25.9,68.8L27.6,68.8L28.4,68.6L36.8,68.7L38.2,68.5L43.0,68.5L49.7,68.3L53.5,68.4L56.5,68.2L74.0,68.0L75.2,68.1L80.3,67.9L83.4,68.0L91.6,67.8L98.7,67.8L99.6,67.7L109.5,67.7L110.1,67.8L110.4,68.2L110.4,69.5L110.1,71.8L109.7,73.5L109.1,74.8L109.1,75.2L108.5,76.0L107.5,75.9L107.3,75.7L106.6,75.6L106.0,75.3L102.8,74.3L101.5,74.1L98.7,73.2L98.2,73.2L97.7,73.0L95.2,72.6L94.5,72.3L93.9,72.3L92.3,71.9L90.6,71.8L89.0,71.5L86.8,71.3L84.3,71.2L82.8,71.0L76.2,71.0L74.9,71.1L72.1,71.2L69.5,71.4L68.4,71.6L67.6,71.6L66.8,71.9L65.6,71.9L64.1,72.3L63.2,72.3L62.6,72.6L61.0,72.8L59.8,73.2L59.1,73.2L56.7,73.9L56.0,74.0L55.3,74.3L54.5,74.5L53.8,74.8L53.4,74.8L52.5,75.1L51.8,75.3L51.5,75.5L49.3,76.1L49.0,76.4L48.4,76.4L48.0,76.7L46.4,77.3L46.0,77.6L44.6,78.2L43.3,78.6L42.0,79.4L41.5,79.5L41.2,79.7L40.7,79.8L39.6,80.4L39.2,80.8L39.2,81.4L39.4,81.8L39.8,82.6L40.0,83.1L40.4,83.8L40.6,84.3L40.9,84.7L41.4,85.7L42.3,87.1L43.0,88.4L43.5,88.9L44.1,90.0L47.4,93.8L50.4,96.8L51.5,97.6L51.9,98.1L52.6,98.5L53.3,98.4L54.5,97.6L54.9,97.6L56.9,96.4L57.3,96.3L59.8,95.1L62.1,94.4L63.5,93.8L64.8,93.6L65.2,93.4L66.4,93.1L67.0,92.9L73.3,91.9L75.1,91.9L75.8,91.7L81.6,91.7L82.5,91.9L84.1,91.9L87.0,92.5L88.1,92.5L89.3,92.9L90.2,93.0L92.0,93.5L92.8,94.0L92.8,94.4L92.6,94.6L89.2,96.3L88.3,96.5L87.3,96.9L84.5,97.7L82.8,98.0L81.6,98.1L81.1,98.2L78.7,98.4L75.3,98.3L74.1,98.1L72.8,98.0L68.9,97.2L67.4,97.3L65.4,97.9L64.0,98.2L62.7,98.8L60.7,99.5L59.6,100.1L57.9,100.7L57.3,101.4L57.3,101.5L57.7,101.9L61.6,103.8L62.1,103.9L64.0,104.8L64.8,104.9L66.7,105.6L67.3,105.7L68.2,106.0L69.3,106.1L69.6,106.3L72.4,106.8L74.6,107.0L76.1,107.0L76.8,107.1L79.0,107.1L79.9,107.0L82.5,106.9L83.2,106.7L85.3,106.4L86.5,106.1L87.9,105.9L89.8,105.2L90.8,105.0L95.2,103.2L98.2,101.5L99.0,101.2L101.2,99.5L101.3,99.5L102.3,98.8L102.8,98.3L104.7,96.9L108.4,93.2L109.1,92.4L109.1,92.2L108.7,91.9L107.9,91.6L106.0,90.3L104.4,89.7L103.4,89.0L102.8,88.9L102.2,88.4L96.4,86.2L96.1,86.2L95.2,85.9L94.0,85.6L93.0,85.2L91.1,84.9L90.8,84.7L84.7,83.7L81.1,83.5L77.7,83.5L74.6,83.6L73.0,83.9L71.8,83.9L69.9,84.1L65.9,84.9L64.5,85.2L64.4,85.4L63.6,85.5L61.3,86.1L60.4,86.5L59.4,86.8L58.7,87.1L57.3,87.5L56.6,87.9L56.1,88.0L55.8,88.2L54.7,88.5L54.3,88.5L53.9,88.3L52.4,86.8L52.0,86.1L51.5,85.5L51.3,85.2L51.4,84.8L51.6,84.6L52.8,84.0L53.2,84.0L53.5,83.7L55.6,83.2L56.2,82.9L57.4,82.7L58.2,82.4L59.0,82.3L59.4,82.1L60.0,81.9L60.4,81.9L60.7,81.7L62.6,81.4L63.3,81.4L64.1,81.1L65.1,81.0L66.5,80.6L67.8,80.5L69.0,80.3L70.2,80.3L70.8,80.1L71.8,80.1L72.3,79.9L75.1,79.7L82.2,79.7L83.1,79.8L86.7,79.9L87.8,80.2L88.6,80.2L89.1,80.3L90.0,80.3L91.4,80.7L92.1,80.7L94.9,81.3L95.9,81.4L96.8,81.7L99.6,82.3L100.6,82.7L101.9,82.9L102.3,83.1L104.0,83.6L104.5,83.9L105.5,84.1L106.3,84.6L107.7,84.9L109.1,85.6L110.5,86.1L112.0,86.8L112.9,87.0L113.3,86.6L113.3,86.3L114.2,84.9L114.8,83.4L115.5,82.4L115.8,81.2L116.3,80.5L117.1,78.1L117.1,77.8L117.9,75.4L118.0,74.8L118.4,73.2L118.8,70.3L119.0,70.1L119.2,65.9L119.1,61.4L118.9,59.8L118.6,59.5L118.1,59.4L104.9,59.6L103.5,59.5L96.5,59.6L89.8,59.6L63.4,59.9L45.1,59.9L44.7,59.5L44.7,59.1L45.3,55.7L46.5,51.9L46.8,51.3L47.4,51.0L48.0,51.1L53.0,52.7L55.3,53.2L56.7,53.7L57.2,53.7L59.4,54.3L60.9,54.5L64.3,55.1L68.0,55.6L71.1,55.8L72.8,55.8L74.1,56.1L80.0,56.1L80.9,55.9L82.5,55.9L83.2,55.8L84.5,55.8L85.0,55.6L86.1,55.6L88.2,55.2L89.0,55.2L89.8,55.0L91.2,54.9L95.4,54.1L96.2,53.8L96.6,53.8L98.4,53.3L99.1,53.0L100.2,52.9L101.8,52.3L102.6,52.1L103.4,51.7L104.1,51.6L106.1,51.0L107.5,50.4L108.4,50.2L109.2,49.7L109.8,49.7L111.0,49.0L112.3,48.5L113.3,47.9L113.9,47.8L115.5,46.9L115.5,46.3L112.9,41.4L110.2,37.4L106.9,33.6L103.6,30.5L102.3,29.6L101.6,29.7L97.9,31.7L93.6,33.4L89.0,34.8L86.2,35.4L84.2,35.6L82.8,35.9L79.0,36.2L74.2,36.2L73.7,36.1L71.9,36.0L70.8,35.8L70.2,35.8L69.1,35.5L67.4,35.3L66.6,35.0L64.9,34.7L64.2,34.4L63.0,34.1L62.9,33.9L62.9,33.6L63.1,33.3L65.0,32.4L65.8,32.2L67.6,31.4L69.3,30.9L69.5,30.7L70.7,30.6L71.4,30.4L74.6,29.8L76.5,29.7L80.0,29.7L83.6,30.1L86.6,30.9L88.0,30.8L88.5,30.5L89.2,30.4L89.9,30.1L90.8,30.0L91.4,29.7L93.7,29.0L93.9,28.8L95.3,28.3L95.8,28.0L97.1,27.6L98.0,26.9L98.0,26.7L97.6,26.3L94.3,24.6L91.3,23.4L89.4,22.8L88.7,22.5L87.7,22.4L86.6,22.0L85.3,21.9L84.4,21.6L83.6,21.6L81.2,21.2Z" fill="#000" fill-rule="evenodd"/>
</svg>