<svg xmlns="http://www.w3.org/2000/svg" viewBox="0 0 128 128" width="128" height="128">
  <path d="M102.3,112.7L102.3,113.7L102.6,114.8L102.6,115.5L102.7,115.7L102.8,115.7L102.8,114.4Z M100.1,104.7L100.2,105.6L100.5,106.1L100.8,107.1L101.4,108.3L101.4,109.0L102.1,111.0L102.1,110.6L101.9,110.2L101.9,109.2L101.5,108.4L101.5,108.0L101.0,106.8L100.9,106.0L100.3,104.7Z M62.2,93.0L62.2,93.4L62.5,93.6L62.6,93.6Z M60.6,90.4L60.5,90.8L61.1,91.5L61.4,92.0L61.6,92.1L61.6,91.9L61.3,91.7L61.1,91.2Z M50.4,84.5L50.4,84.7L50.7,84.8L50.6,84.5Z M48.7,81.9L48.7,82.2L48.9,82.2L48.9,82.0Z M24.2,74.7L24.2,75.1L24.3,75.3L24.8,75.6L25.3,76.2L25.3,76.3L24.3,77.2L24.3,78.1L24.5,78.0L24.7,77.5L25.4,76.6L25.4,75.8L24.4,74.7Z M25.3,72.8L24.2,73.7L24.2,74.1L24.7,74.1L25.3,73.3Z M47.9,71.7L46.9,72.3L46.8,73.0L46.9,73.0L47.9,72.3Z M24.2,71.1L24.2,71.7L24.6,72.1L25.2,72.2L25.1,71.9L24.4,71.2Z M25.3,69.3L25.1,69.3L24.1,70.1L24.1,70.7L24.2,70.7L25.2,69.8Z M32.0,64.4L32.0,65.4L32.3,67.1L32.6,71.4L32.7,71.9L33.1,72.2L38.9,72.4L39.2,72.2L39.4,71.8L39.4,70.3L39.6,68.5L39.8,64.4L39.6,64.4L38.9,65.8L37.9,68.3L37.6,68.7L37.4,68.7L37.1,68.3L37.1,68.0L36.6,66.6L36.4,65.1L36.1,64.9L35.9,64.9L35.6,65.3L34.8,68.4L34.6,68.5L34.2,68.5L34.0,68.3L33.4,67.0L32.7,65.1L32.3,64.4Z M24.1,64.1L24.0,64.4L25.0,65.4L25.0,65.8L24.0,66.7L24.0,67.0L24.2,67.3L24.1,68.0L24.8,68.6L25.2,68.8L25.1,68.4L24.2,67.4L24.2,67.3L24.5,66.9L25.3,66.2L25.3,65.9L25.1,65.5L25.1,64.9L24.4,64.1Z M25.1,62.5L24.4,62.9L24.2,63.3L24.2,63.6L24.3,63.6L25.2,62.7Z M24.3,60.9L24.4,61.3L24.9,61.7L25.0,61.7L25.0,61.4L24.5,60.9Z M46.6,70.1L46.9,70.6L47.9,71.2L47.9,70.8L47.7,70.5L46.9,69.9L46.8,69.6L48.0,68.5L48.0,67.1L47.6,66.6L47.0,66.3L46.9,65.8L47.2,65.4L47.6,65.1L48.6,65.1L50.0,65.9L50.8,66.0L51.3,66.3L51.7,66.4L51.9,66.6L52.3,66.7L53.7,67.4L54.1,67.8L54.3,67.8L54.3,67.5L53.9,67.1L52.9,66.6L52.7,66.6L51.3,65.9L50.3,65.3L49.1,65.0L48.9,64.7L48.9,64.6L49.4,64.4L63.7,64.5L64.4,64.9L65.4,64.6L74.1,64.6L74.8,65.0L75.7,64.6L77.1,64.5L78.3,64.7L84.3,64.7L84.8,64.8L85.4,65.1L86.3,64.8L90.4,64.7L94.2,64.9L94.9,65.2L95.1,65.5L95.3,65.1L95.3,64.4L94.9,64.2L94.2,64.6L93.4,64.7L86.7,64.5L85.9,64.4L85.6,64.1L84.6,64.4L75.8,64.4L75.2,64.0L74.7,64.0L73.7,64.4L65.7,64.3L65.2,64.2L64.7,63.9L63.7,64.2L55.5,64.2L52.1,64.0L49.3,64.0L49.0,63.8L49.0,63.6L49.1,63.4L50.1,62.9L50.6,62.9L51.2,62.5L51.4,62.5L52.1,62.1L52.5,62.0L53.0,61.7L53.6,61.5L54.3,60.9L54.3,60.7L54.0,60.6L53.4,61.1L52.8,61.2L52.5,61.5L52.0,61.6L51.5,62.0L51.0,62.1L50.6,62.4L49.3,62.9L48.7,63.3L47.7,63.3L47.0,62.8L47.0,62.4L48.0,61.3L48.0,61.0L47.6,61.0L46.8,61.8L46.5,62.8L46.6,63.1L47.0,63.6L47.0,64.8L46.6,65.5L46.6,66.1L46.8,66.6L47.7,67.5L47.8,67.8L46.8,68.8L46.6,69.4Z M25.2,58.8L24.5,59.2L24.2,59.5L24.2,60.0L25.3,59.2Z M47.6,57.2L46.8,57.9L46.5,59.0L46.6,59.4L47.6,60.5L47.8,60.6L47.9,60.1L47.7,59.7L46.9,58.8L46.9,58.6L47.8,57.8L47.9,57.3Z M24.2,57.2L24.2,57.5L24.4,57.7L25.0,58.0L24.4,57.2Z M46.8,55.8L47.4,56.5L47.9,56.5L47.9,56.2L47.1,55.5Z M36.4,55.5L36.3,56.3L36.6,58.4L36.8,62.5L37.0,63.2L37.6,63.5L43.3,63.5L43.7,63.0L43.9,58.6L44.1,57.7L44.1,56.2L43.9,55.9L43.7,56.1L43.2,57.0L43.1,57.5L42.3,59.5L41.9,59.9L41.7,59.9L41.5,59.6L41.2,58.8L41.1,58.1L40.5,56.2L40.3,56.0L39.9,56.4L39.1,59.5L38.7,59.6L38.1,58.8L37.6,57.4L36.8,55.7L36.5,55.4Z M27.2,55.3L27.1,56.9L27.9,62.9L28.3,63.3L30.1,63.3L31.6,63.5L34.1,63.4L34.4,63.1L34.6,62.6L34.8,58.0L35.0,57.4L34.9,55.5L34.7,55.5L34.5,55.8L34.2,56.5L33.8,57.1L33.1,59.5L32.7,59.9L32.4,59.9L32.0,59.0L31.9,58.3L31.5,57.2L31.4,56.2L31.2,55.7L30.9,55.7L30.5,56.4L30.1,58.6L29.8,59.3L29.4,59.5L28.9,58.8L27.6,55.6Z M55.1,53.9L55.2,54.1L55.2,53.9Z M49.1,45.7L48.9,45.8L48.9,46.1L48.5,46.5L48.5,46.7L48.7,46.7Z M103.1,119.0L103.1,118.4L103.0,117.9L103.0,116.7L102.7,116.5L102.8,117.7L102.4,118.1L102.1,118.3L101.7,118.3L101.0,118.0L100.7,117.6L100.3,117.6L100.2,117.4L97.8,116.2L97.3,115.8L95.3,115.0L94.9,114.6L94.8,114.6L94.3,114.2L93.9,114.1L93.4,113.7L93.0,113.6L91.2,112.8L90.1,112.0L89.7,111.9L88.8,111.4L88.3,111.0L87.5,110.7L87.2,110.4L86.7,110.2L85.6,109.4L84.3,108.9L84.0,108.6L83.5,108.4L83.3,108.2L82.6,108.0L82.5,107.8L80.6,106.8L79.1,105.9L78.2,105.6L77.4,104.9L76.3,104.5L76.0,104.2L75.5,104.0L73.6,102.8L72.9,102.7L72.5,102.3L71.5,101.8L70.7,101.2L70.2,100.9L65.9,97.4L65.8,97.1L64.7,96.0L64.5,95.6L65.1,95.2L67.7,95.2L69.2,94.9L70.2,94.9L71.1,94.7L71.5,94.5L72.8,94.3L73.2,94.1L74.2,93.8L74.5,93.6L75.2,93.5L75.8,93.2L76.3,93.1L77.2,92.7L77.7,92.6L80.0,91.3L83.0,89.4L84.9,87.8L85.2,87.6L85.8,87.6L86.6,88.1L87.5,88.9L88.8,89.8L92.3,93.0L92.5,93.4L93.8,94.6L94.2,95.3L94.9,96.0L95.1,96.4L95.9,97.1L96.2,97.7L96.2,97.9L96.8,98.8L97.1,99.0L97.1,99.3L98.2,101.1L99.0,102.8L99.4,103.3L99.7,104.0L100.0,104.2L99.9,103.8L99.7,103.4L99.7,103.0L99.4,102.7L99.4,102.3L98.9,101.5L98.9,101.2L98.2,100.2L97.9,99.5L97.3,98.8L97.0,98.1L95.5,96.2L95.3,95.7L94.0,94.4L93.6,93.8L92.3,92.6L91.9,91.9L91.6,91.9L90.1,90.4L89.9,90.3L88.9,89.4L86.4,87.6L86.0,87.2L86.0,86.8L86.2,86.5L87.5,85.2L87.5,85.0L88.1,84.5L88.3,84.1L88.8,83.6L88.9,83.3L90.1,81.7L90.6,80.8L90.9,80.4L91.2,79.6L91.9,79.0L92.8,79.0L93.0,79.3L94.0,79.6L94.5,80.0L96.3,80.8L96.8,81.3L97.1,81.3L97.5,81.7L97.9,81.8L98.2,82.1L98.8,82.2L99.0,82.5L99.6,82.7L99.9,83.0L102.3,84.4L102.7,84.8L103.2,85.1L103.5,85.1L103.8,84.7L103.7,79.5L103.9,67.4L103.9,51.7L104.0,46.8L104.2,45.1L104.2,44.0L104.0,43.9L103.1,44.1L102.7,44.5L101.5,45.0L100.5,45.8L100.0,45.9L98.4,46.9L97.8,47.2L97.4,47.5L97.0,47.6L96.7,47.9L95.2,48.5L94.5,48.9L94.3,48.9L93.0,49.6L92.6,49.8L91.5,49.9L91.1,50.5L90.4,50.8L89.7,51.0L89.3,51.3L88.6,51.4L88.0,51.7L87.3,51.8L86.7,52.1L86.2,52.2L84.7,52.8L83.7,52.7L83.2,53.2L82.6,53.4L82.2,53.4L80.7,53.9L79.9,53.9L79.2,54.2L78.5,54.2L77.9,54.4L77.0,54.5L76.3,54.7L75.2,54.9L74.1,54.8L72.9,55.2L72.3,55.2L70.7,55.5L70.2,55.4L68.8,55.6L65.1,55.6L64.7,55.4L64.4,55.4L63.5,55.7L62.5,55.7L61.5,55.5L60.4,55.6L59.2,55.4L57.3,55.3L55.7,55.1L55.0,54.5L54.3,54.7L51.9,54.6L51.7,54.3L50.0,54.1L49.2,53.8L48.7,53.7L48.0,53.3L47.6,53.4L46.7,54.5L46.7,55.4L46.9,55.3L46.9,54.9L47.7,54.3L48.7,54.2L49.5,54.5L50.6,54.7L51.7,54.7L52.5,55.0L54.0,55.3L54.8,55.8L55.9,55.5L59.5,56.0L63.5,56.1L64.1,56.2L64.4,56.5L65.6,56.1L67.3,56.1L68.7,55.8L69.6,55.9L72.6,55.6L73.7,55.6L74.1,55.8L74.5,55.8L75.1,55.4L76.4,55.1L80.4,54.4L81.1,54.2L81.5,54.2L82.1,53.9L83.0,53.7L84.1,53.7L84.3,53.4L85.7,52.9L86.3,52.6L86.9,52.5L87.4,52.2L87.9,52.1L88.5,51.8L89.1,51.7L89.7,51.3L90.4,51.3L90.8,51.0L92.1,51.0L92.9,50.2L93.3,50.1L96.0,48.7L96.2,48.5L98.4,47.5L98.7,47.2L99.8,46.7L100.3,46.3L100.6,46.2L102.5,45.0L102.9,44.9L103.5,45.0L103.7,45.8L103.7,48.4L103.5,51.0L103.5,61.1L103.3,66.5L103.3,81.2L103.2,83.5L102.9,83.9L102.3,83.9L101.9,83.6L101.4,83.4L100.1,82.5L98.2,81.5L98.0,81.3L96.9,80.8L96.5,80.5L95.6,80.2L94.7,79.6L93.0,79.0L92.3,78.4L92.2,77.5L91.8,77.8L90.8,77.9L89.1,77.2L88.6,77.1L88.2,76.9L87.4,76.7L86.1,76.0L84.7,75.7L84.1,75.3L84.0,74.9L82.2,74.9L78.9,74.0L74.9,73.3L74.3,72.9L73.6,73.0L72.3,73.0L69.7,72.6L65.4,72.4L64.7,72.0L64.4,72.0L63.8,72.4L59.2,72.5L56.4,72.8L55.6,72.8L54.9,72.5L54.7,72.6L54.4,72.9L53.7,73.1L52.5,73.2L51.8,73.4L51.0,73.4L48.8,74.0L47.3,73.8L46.9,73.3L46.7,73.3L46.7,73.7L47.6,74.5L47.6,75.3L46.7,76.3L46.7,77.4L47.6,78.2L47.9,78.1L47.7,77.5L47.0,77.0L47.0,76.7L47.2,76.4L47.9,75.8L48.0,75.0L48.5,74.4L49.5,74.3L50.8,73.9L52.8,73.7L53.6,73.4L55.1,73.5L55.7,73.2L60.0,72.8L63.4,72.7L64.1,72.9L64.4,73.1L64.7,73.1L65.5,72.8L69.2,72.9L70.3,72.9L70.5,73.0L71.2,73.0L73.4,73.4L74.1,74.1L74.2,73.8L74.4,73.7L75.6,73.7L78.0,74.3L78.9,74.4L80.0,74.8L80.4,74.8L81.6,75.2L82.6,75.3L83.0,75.6L83.4,76.1L84.4,75.9L85.6,76.3L86.0,76.5L86.6,76.6L87.3,77.0L88.3,77.2L88.9,77.6L89.2,77.6L89.5,77.8L90.8,78.2L91.2,78.6L91.2,79.1L90.5,80.2L90.5,80.5L89.7,81.7L89.6,82.2L89.0,82.6L88.9,82.9L87.6,84.3L86.7,85.6L85.7,86.3L84.8,86.4L83.6,85.8L83.0,85.6L81.4,84.5L80.5,84.3L80.1,83.9L80.1,83.2L80.6,82.4L80.6,82.2L80.4,82.2L80.0,82.8L79.5,83.3L78.8,83.4L78.0,83.0L77.4,83.0L77.3,82.8L76.2,82.6L75.8,82.3L74.8,82.1L74.4,81.9L73.0,81.6L72.6,81.3L72.6,81.1L72.2,81.0L71.7,81.2L71.2,81.2L69.6,80.8L65.5,80.5L64.9,80.3L64.7,80.0L63.8,80.4L61.2,80.5L60.4,80.7L58.7,80.8L57.7,81.0L56.5,80.8L56.0,81.2L52.9,81.9L50.2,82.9L49.3,82.8L48.7,83.6L47.7,83.9L47.2,84.3L46.7,84.4L44.6,85.6L43.9,85.7L43.2,85.2L42.8,84.6L42.0,83.9L41.0,82.5L40.2,81.6L39.9,81.0L39.6,80.6L39.7,80.2L41.0,79.1L41.7,79.2L42.0,79.6L42.4,80.0L43.5,80.0L43.9,79.9L44.5,79.2L45.0,79.2L45.7,80.0L46.1,80.1L47.0,80.1L47.6,80.4L48.0,80.8L48.2,81.2L48.4,81.2L48.0,80.5L48.1,79.7L47.9,79.2L47.6,79.1L47.6,79.4L46.5,79.6L46.0,79.4L45.1,78.6L44.3,78.6L43.5,79.4L43.0,79.5L42.4,79.3L41.7,78.6L40.8,78.5L40.1,79.3L39.7,79.4L39.1,79.4L38.2,78.5L37.8,78.4L37.2,78.5L36.8,78.9L36.7,79.2L36.4,79.3L35.6,79.3L34.5,78.4L33.6,78.5L32.7,79.3L32.2,79.3L31.6,79.0L31.4,78.5L31.0,78.2L30.5,78.2L30.1,78.4L29.6,79.0L29.3,79.2L28.4,79.1L27.4,78.1L26.8,78.3L26.2,78.9L25.7,79.1L25.0,79.1L24.3,78.6L24.2,79.3L24.5,79.5L26.0,79.6L26.7,78.9L27.0,78.7L27.5,78.7L28.3,79.6L29.0,79.7L29.8,79.6L30.5,78.9L31.0,78.9L31.8,79.6L32.4,79.8L33.1,79.7L33.9,78.9L34.5,78.9L35.3,79.8L36.5,79.8L37.5,79.0L37.9,79.0L38.5,79.5L38.5,79.7L39.4,80.8L39.5,81.1L40.2,81.9L40.4,82.4L43.5,86.1L45.4,87.8L45.8,87.9L46.6,88.6L46.8,88.6L46.6,88.3L44.6,86.6L44.7,86.2L45.0,85.9L46.1,85.2L46.3,85.2L46.9,84.8L47.1,84.8L47.6,84.5L48.4,84.2L48.7,84.0L49.9,83.9L50.4,83.4L52.6,82.5L55.0,82.0L55.6,81.8L56.9,81.8L57.8,81.4L59.5,81.1L63.6,80.8L64.3,81.0L64.4,81.2L64.7,81.3L65.3,80.9L66.4,80.9L70.3,81.4L71.4,81.7L71.8,82.1L73.7,82.1L76.8,83.0L77.1,83.3L78.0,83.5L78.5,83.8L78.9,84.4L78.9,84.8L79.1,84.8L79.3,84.5L79.5,84.5L80.1,84.5L80.8,84.8L82.2,85.3L84.1,86.6L84.5,87.0L84.5,87.5L82.7,89.0L80.7,90.4L79.3,91.1L79.2,91.3L78.7,91.5L78.5,91.7L78.0,91.8L76.5,92.5L75.5,92.4L73.9,91.0L73.8,90.6L74.5,89.7L76.5,87.9L77.0,87.0L77.3,86.9L77.8,86.3L78.5,85.2L78.7,85.2L78.7,85.1L78.0,85.6L77.2,86.5L77.0,87.1L76.7,87.1L75.9,87.9L75.7,88.2L74.2,89.7L73.0,90.4L72.0,90.1L71.4,89.7L70.9,89.6L69.8,89.0L69.6,88.4L69.2,88.4L68.5,88.7L66.7,88.3L65.2,88.2L64.8,87.8L64.4,87.8L64.2,88.0L63.6,88.2L62.2,88.2L60.7,88.6L59.8,88.4L59.4,88.5L59.4,88.6L59.1,88.9L58.4,89.3L57.7,89.4L56.3,90.1L55.8,90.1L55.0,89.5L53.3,87.8L52.8,87.2L52.6,87.2L52.1,86.7L52.1,86.3L51.2,85.4L51.0,85.4L51.2,86.0L51.7,86.6L52.1,86.7L52.5,87.3L52.6,87.6L53.3,88.2L53.4,88.4L55.2,90.3L55.1,90.8L54.9,91.0L53.6,91.9L52.6,91.9L51.9,91.5L51.4,91.4L50.5,90.9L50.2,90.7L49.5,90.4L49.2,90.1L48.3,89.6L47.9,89.2L47.0,88.8L47.5,89.4L48.0,89.7L48.8,90.4L49.2,90.4L49.5,90.8L51.7,92.0L54.2,93.1L58.8,94.5L62.1,95.1L63.3,95.2L64.4,96.0L64.4,96.3L65.9,97.6L66.4,98.3L68.5,100.1L69.6,100.8L70.0,101.2L73.7,103.5L75.0,104.2L75.3,104.5L75.7,104.6L76.9,105.3L78.1,105.8L78.5,106.2L81.4,107.6L83.4,108.9L84.7,109.4L86.0,110.2L87.5,110.9L87.7,111.1L88.1,111.3L88.3,111.3L88.7,111.7L89.1,111.8L89.6,112.2L90.1,112.4L90.3,112.6L91.8,113.2L91.9,113.5L92.5,113.7L92.8,114.0L93.2,114.1L93.8,114.6L95.8,115.4L96.1,115.7L96.6,115.9L97.3,116.4L97.5,116.4L98.0,116.8L98.3,116.8L98.6,117.0L99.2,117.2L100.9,118.3L101.5,118.5L101.7,118.7L102.4,119.1Z M54.1,92.3L54.3,91.9L55.5,91.1L56.2,91.1L56.9,91.5L57.3,91.5L57.2,91.3L56.8,91.0L56.7,90.7L57.1,90.2L57.9,89.8L59.2,89.4L59.6,89.4L60.3,89.7L60.4,89.1L60.9,88.9L61.8,88.7L63.9,88.6L64.7,89.0L65.3,88.6L67.4,88.8L68.3,89.1L68.6,89.4L68.5,90.1L68.8,90.0L69.0,89.7L69.3,89.6L69.9,89.6L70.5,89.9L71.4,90.1L72.2,90.7L72.2,91.2L71.8,91.5L71.7,91.9L71.9,91.9L72.8,91.4L73.5,91.3L74.3,91.8L75.2,92.7L75.2,93.0L74.0,93.5L71.1,94.2L70.6,94.4L69.2,94.5L67.6,94.8L64.4,94.8L63.6,94.5L63.2,94.1L62.8,93.8L62.7,94.5L61.6,94.6L60.6,94.4L59.9,94.4L58.4,93.9L57.2,93.8L56.9,93.6L56.3,93.5L54.4,92.7L54.1,92.5Z M52.6,41.2L52.4,41.2L51.7,41.9L51.6,42.2L51.3,42.4L51.2,42.8L51.4,42.8L51.4,42.6L52.2,41.9Z M79.9,37.3L80.8,37.9L81.1,38.2L81.8,38.4L81.5,38.0L80.2,37.2Z M63.2,34.2L62.9,34.2L62.9,34.6L63.2,34.3Z M104.2,9.3L103.8,9.2L102.2,10.0L101.9,10.3L100.6,10.8L100.2,11.1L98.6,11.8L98.4,12.0L97.9,12.2L97.1,12.7L96.5,12.9L95.6,13.4L95.1,13.7L94.7,13.8L93.7,14.5L92.7,14.9L90.7,16.1L88.4,17.1L87.4,17.8L82.8,20.1L81.9,20.8L81.5,20.8L80.2,21.6L79.8,21.7L79.3,22.1L78.9,22.2L78.5,22.6L78.1,22.7L77.0,23.2L76.8,23.4L76.3,23.6L76.0,23.9L74.8,24.5L74.1,24.9L73.8,24.9L72.7,25.7L72.3,26.0L71.9,26.1L71.0,26.7L68.8,28.3L66.2,30.5L65.9,30.9L65.3,31.3L64.7,32.0L63.8,32.7L62.9,32.9L61.7,32.9L60.9,33.1L58.9,33.3L58.4,33.5L56.6,33.9L56.3,34.1L55.9,34.1L55.1,34.5L52.5,35.3L52.1,35.7L51.8,35.7L50.7,36.3L50.4,36.6L50.0,36.7L49.7,37.0L48.9,37.3L45.6,39.8L43.5,41.7L43.4,42.0L41.2,44.3L39.9,46.3L39.7,46.5L39.4,47.2L38.7,47.8L37.9,49.1L37.2,49.1L36.4,48.1L35.0,48.2L34.5,48.8L34.0,49.1L33.6,49.0L33.0,48.2L32.6,48.0L31.6,48.0L31.3,48.2L31.2,48.4L30.5,49.1L29.9,48.9L29.7,48.7L29.7,48.5L29.1,48.1L28.0,48.2L27.8,48.6L27.2,49.1L26.7,49.1L25.9,48.2L25.7,48.1L24.3,48.1L24.0,48.4L23.9,50.1L24.0,50.4L24.9,51.3L24.9,51.5L24.0,52.5L24.1,53.1L23.9,53.6L24.1,54.0L24.6,54.3L25.1,54.8L25.1,55.1L24.9,55.4L24.1,56.1L24.2,56.5L24.4,56.5L25.4,55.4L25.3,54.4L24.8,53.6L24.4,53.2L24.5,52.9L25.3,51.8L25.2,50.9L24.6,50.2L24.5,49.8L24.5,49.1L24.9,48.7L25.5,48.7L26.0,49.1L26.4,49.6L27.2,49.8L28.5,48.7L29.1,48.8L30.1,49.7L31.0,49.6L32.0,48.7L32.7,48.7L33.6,49.6L34.4,49.6L35.3,48.8L36.1,48.7L36.8,49.5L37.2,49.7L37.9,49.7L38.1,49.6L39.0,48.8L39.3,48.7L39.7,48.7L40.9,49.6L41.3,49.7L41.9,49.5L42.6,48.7L43.2,48.7L43.7,48.9L44.4,49.6L45.2,49.7L45.9,49.1L46.4,48.6L47.3,48.6L47.7,49.2L47.7,49.5L46.5,50.8L46.5,51.6L46.6,52.1L47.4,52.8L47.6,52.8L47.6,52.5L46.9,51.7L46.8,51.3L47.9,50.3L47.9,48.4L48.3,47.7L48.4,47.2L48.1,47.2L47.2,48.0L46.0,48.1L45.5,48.8L45.0,49.1L44.3,48.9L43.9,48.2L43.6,48.1L42.3,48.2L41.7,48.8L41.1,49.0L40.8,48.9L40.2,48.2L39.5,47.9L39.4,47.6L40.5,45.9L42.0,43.9L43.5,42.4L44.0,42.2L44.5,42.2L45.7,43.0L46.2,43.2L48.1,44.1L48.4,44.3L48.9,44.5L49.5,45.3L49.8,45.1L50.3,45.1L52.5,45.9L52.8,45.9L53.2,46.1L54.3,46.3L54.7,46.5L55.9,46.7L56.8,47.4L57.3,47.2L58.0,47.1L58.3,47.2L59.3,47.4L63.7,47.7L64.4,48.1L64.7,48.1L65.7,47.6L69.8,47.4L70.1,47.2L71.1,47.1L72.4,47.2L72.9,46.8L75.7,46.1L77.8,45.3L78.0,45.1L77.8,45.0L77.1,45.1L77.0,45.3L76.4,45.4L73.8,46.2L71.9,46.2L71.5,46.6L71.1,46.8L70.6,46.8L68.6,47.2L65.2,47.2L64.7,46.9L64.3,46.9L63.7,47.3L59.5,47.1L58.0,46.8L57.7,46.6L57.3,46.1L56.9,46.1L56.4,46.4L55.6,46.4L54.7,46.2L54.1,45.9L53.4,45.8L52.9,45.5L52.0,45.4L51.7,45.1L50.9,44.9L50.5,44.5L50.4,44.0L51.1,43.0L51.0,43.0L50.5,43.5L50.4,43.7L49.9,44.1L48.8,44.1L48.1,43.7L47.6,43.6L46.7,42.9L46.0,42.7L45.0,42.0L44.6,41.7L44.6,41.6L45.0,40.9L46.0,40.1L48.7,37.9L49.8,37.4L49.9,37.2L50.6,36.9L50.9,36.6L51.5,36.5L51.7,36.2L52.5,36.0L53.3,36.0L55.3,37.6L55.4,37.9L54.7,38.8L53.4,40.0L53.0,40.6L53.5,40.4L54.1,39.8L55.0,38.8L55.1,38.8L55.8,38.3L56.2,38.2L56.8,38.3L57.5,38.7L58.3,38.8L59.2,39.3L59.6,39.8L60.3,39.7L61.5,39.7L61.8,39.9L63.4,39.9L64.1,40.2L64.7,40.2L65.1,40.0L66.8,39.9L68.0,39.6L69.5,39.8L70.0,39.3L71.5,38.7L71.8,38.3L72.3,38.3L72.6,38.0L73.4,37.9L74.1,38.3L73.9,38.0L74.0,37.3L74.5,36.8L74.6,36.6L76.0,35.7L76.9,35.7L77.4,36.1L78.1,36.3L78.5,36.6L79.5,36.9L79.4,36.8L79.1,36.7L78.1,36.0L77.7,35.7L77.3,35.7L76.3,35.0L74.1,34.5L73.8,34.2L72.7,34.0L71.2,33.5L70.7,33.5L70.0,33.2L68.0,33.1L67.3,32.8L65.5,32.8L65.1,32.7L65.1,32.1L65.7,31.4L67.9,29.4L70.0,27.9L70.3,27.7L72.6,26.1L73.0,26.0L74.9,24.9L75.5,24.7L76.6,23.9L79.6,22.5L79.9,22.2L80.4,22.0L82.2,20.9L83.0,20.7L84.1,20.0L86.3,19.0L86.7,18.6L89.7,17.2L90.3,16.7L91.1,16.4L92.3,15.6L92.7,15.6L94.5,14.5L96.3,13.7L96.5,13.5L97.1,13.4L97.3,13.1L101.4,11.1L101.8,10.8L103.1,10.2L103.5,10.3L103.8,10.8L103.5,14.1L103.2,14.9L103.2,15.5L102.9,16.3L102.7,18.0L102.3,18.7L101.9,20.6L101.6,21.2L101.2,22.7L100.1,24.9L100.0,25.7L99.4,26.8L98.2,28.3L98.2,28.7L97.2,30.0L97.2,30.1L96.6,30.8L96.1,31.6L95.3,32.4L95.1,32.9L92.9,35.0L91.7,36.4L89.5,38.4L88.5,39.1L88.2,39.4L87.7,39.6L86.1,40.7L85.6,40.9L85.1,40.9L84.8,40.5L84.4,40.5L84.8,41.3L84.8,41.5L84.5,42.0L83.9,42.1L83.0,42.7L80.0,44.0L78.9,43.9L78.9,44.3L78.5,44.9L80.0,45.0L80.3,44.5L80.7,44.2L82.1,43.5L82.3,43.3L82.7,43.2L82.9,43.0L83.6,42.8L84.0,42.4L85.0,41.9L85.6,41.9L86.0,42.0L86.3,42.5L86.7,42.6L86.4,42.0L86.1,41.7L86.1,41.4L86.7,40.8L88.9,39.3L89.9,38.3L91.4,37.2L95.1,33.5L95.2,33.3L95.9,32.6L96.0,32.4L97.0,31.2L97.7,30.0L98.2,29.5L98.5,28.9L98.7,28.7L99.4,27.5L99.6,27.4L99.7,26.8L100.1,26.3L100.1,26.0L100.4,25.8L100.5,25.4L100.9,24.8L101.2,23.6L101.5,23.3L102.1,21.7L102.8,19.4L102.8,19.0L103.0,18.8L103.3,17.1L103.5,17.0L103.9,14.2L103.9,13.3L104.3,10.7Z M75.4,35.7L74.5,36.6L74.1,36.7L73.7,37.0L72.6,37.0L72.3,36.8L72.5,37.5L71.4,38.3L71.1,38.3L70.3,38.7L69.2,38.7L68.5,38.1L68.8,38.7L68.1,39.3L67.6,39.3L66.9,39.5L65.1,39.5L64.4,39.4L63.5,39.6L62.1,39.5L60.9,39.3L60.5,39.0L60.3,38.7L59.5,38.8L58.4,38.7L58.0,38.4L56.9,38.0L56.9,37.3L57.4,36.8L57.5,36.5L56.9,36.8L56.5,37.2L55.6,37.2L54.5,36.6L53.9,36.1L53.9,35.4L55.8,34.6L56.5,34.5L59.2,33.7L61.0,33.5L61.8,33.3L62.8,33.3L63.3,33.6L63.6,33.6L64.8,33.1L67.6,33.3L69.6,33.5L70.8,33.8L71.4,33.8L72.0,34.0L72.3,34.2L73.7,34.5L74.0,34.7L74.9,35.0Z" fill="#000" fill-rule="evenodd"/>
</svg>