<svg xmlns="http://www.w3.org/2000/svg" viewBox="0 0 128 128" width="128" height="128">
  <path d="M53.5,115.0L53.5,115.4L53.7,115.7L57.2,117.7L59.2,118.2L59.6,118.5L60.0,118.6L61.1,118.7L62.1,119.0L63.9,119.2L67.4,119.0L69.0,118.6L70.6,118.1L70.9,117.8L71.8,117.6L73.7,116.5L74.2,116.4L74.6,116.0L74.6,115.5L73.6,114.7L73.3,114.6L72.2,113.8L71.5,113.5L70.5,113.4L69.2,114.8L67.8,115.9L66.9,116.3L66.5,115.9L66.5,115.8L68.4,113.5L68.6,112.8L68.4,112.5L66.4,112.1L65.4,112.1L65.0,112.3L65.0,114.5L64.9,114.8L64.9,115.3L64.4,115.7L63.8,115.7L63.5,115.5L63.3,115.2L63.3,112.8L63.1,112.2L62.6,111.9L61.5,111.9L60.9,112.1L59.8,112.1L59.4,112.3L59.1,112.7L59.2,113.2L61.1,115.7L61.0,116.3L60.9,116.4L60.0,116.3L59.4,115.8L57.9,114.3L57.5,113.7L57.1,113.2L56.4,113.1L54.5,114.1Z M82.9,100.3L75.5,100.3L75.1,100.5L74.9,100.7L74.7,101.9L74.4,102.9L74.1,105.6L73.3,107.2L72.6,109.4L71.9,110.7L71.8,111.6L72.1,111.8L72.9,112.2L76.3,114.4L77.1,114.2L79.3,112.1L79.4,111.7L80.2,110.8L80.8,109.9L81.6,108.3L81.9,107.9L82.0,107.2L82.5,106.3L83.0,104.7L83.4,102.3L83.5,100.8Z M65.9,100.3L65.2,100.9L65.1,101.4L65.1,103.6L65.0,105.6L65.1,109.7L65.4,110.0L65.9,110.2L67.8,110.5L69.1,110.9L69.9,110.8L70.5,110.2L71.2,108.6L72.2,106.0L72.5,104.3L72.5,102.9L72.4,102.7L72.4,102.4L72.8,101.9L72.8,100.7L72.5,100.4L71.8,100.3Z M62.6,100.3L60.7,100.2L55.5,100.4L54.9,100.8L54.9,102.3L55.1,102.8L55.1,103.4L55.4,105.2L55.6,105.6L55.8,106.7L57.1,109.7L57.5,110.4L57.9,110.7L58.4,110.7L60.9,110.2L62.9,110.0L63.2,109.6L63.2,100.9L63.1,100.7Z M45.4,100.4L45.2,100.8L45.2,101.2L45.5,102.3L45.8,104.3L46.1,105.1L46.3,106.2L47.9,109.3L49.2,111.3L50.5,112.8L50.8,113.3L51.1,113.5L51.8,113.5L53.8,112.4L54.6,112.1L55.5,111.6L55.8,111.3L55.8,110.9L55.6,110.1L55.2,109.5L55.1,108.9L54.6,108.0L54.0,106.1L53.4,102.3L53.0,100.7L52.6,100.4L51.2,100.2L45.8,100.2Z M41.1,100.3L39.8,98.7L38.0,97.1L36.5,95.2L36.0,94.7L35.4,94.6L35.2,94.7L35.2,96.0L35.0,96.6L34.5,97.1L34.1,97.2L25.3,97.1L24.7,97.2L24.5,97.5L24.5,97.9L24.9,98.7L25.2,99.5L25.8,100.8L26.0,101.7L26.5,102.8L27.0,103.0L29.7,102.9L33.2,103.0L34.4,103.2L35.2,103.8L35.5,105.1L35.8,105.5L36.4,105.5L40.9,100.9Z M87.1,99.6L87.1,100.4L89.4,102.9L90.5,103.8L91.9,105.3L92.0,105.6L92.4,106.0L92.7,106.0L92.9,105.5L93.0,104.0L93.2,103.7L93.8,103.4L94.9,103.2L101.4,103.3L101.9,103.1L102.7,101.8L103.1,100.5L104.4,98.1L104.4,97.5L104.1,97.2L103.0,97.2L102.4,97.1L100.3,97.1L99.7,97.2L97.2,97.3L94.0,97.2L93.4,97.0L93.2,96.7L93.0,94.3L92.8,94.1L92.5,94.1L92.1,94.3L91.6,95.0L90.4,96.1Z M65.4,89.5L65.0,90.0L65.0,91.0L65.1,93.8L65.1,97.2L65.4,98.1L66.0,98.2L72.3,98.3L72.6,98.1L72.8,97.8L72.8,97.5L72.7,97.1L72.7,96.3L72.4,94.4L71.3,91.3L70.2,89.3L69.8,88.9L68.9,88.9L67.7,89.2L66.9,89.2Z M57.9,88.8L57.4,89.5L57.2,90.0L56.9,90.5L56.7,91.2L56.2,92.0L56.0,93.0L55.6,93.9L55.0,97.0L55.1,97.8L55.5,98.1L56.0,98.2L62.3,98.3L62.8,98.1L63.1,97.8L63.2,96.9L63.2,90.8L62.9,89.7L62.4,89.4L60.1,89.2L58.8,88.7Z M55.4,87.6L52.5,86.0L51.5,85.6L50.9,85.8L49.9,86.6L49.1,87.6L48.5,88.7L47.6,89.9L47.4,90.4L46.2,92.8L45.8,94.2L45.3,97.7L45.5,98.0L46.3,98.2L52.2,98.2L52.8,98.1L53.1,97.9L53.3,97.5L53.8,93.9L54.1,93.1L54.3,92.2L55.0,90.6L55.2,89.7L55.6,89.2L55.8,88.7L55.8,88.1Z M71.9,88.0L71.9,88.6L72.5,89.6L73.5,92.2L73.6,93.4L73.9,93.9L74.2,95.1L74.2,96.0L74.5,97.2L74.5,97.8L74.9,98.2L76.4,98.4L83.0,98.3L83.4,98.0L83.4,97.4L83.0,95.2L82.7,94.2L82.6,93.7L82.3,93.1L82.2,92.7L81.7,91.3L80.7,89.6L79.9,88.4L77.9,86.2L77.0,85.5L76.4,85.5L74.6,86.6L74.0,86.9L72.9,87.6L72.2,87.8Z M53.3,83.9L53.3,84.1L55.3,85.6L56.3,86.0L57.0,86.1L57.2,86.0L60.0,83.2L60.5,82.9L61.1,82.9L61.3,83.4L61.0,84.0L59.6,85.8L59.2,86.4L59.2,86.6L59.4,86.9L60.0,87.2L60.5,87.2L61.8,87.5L62.4,87.5L62.8,87.3L63.0,87.1L63.1,84.2L63.3,83.7L63.9,83.3L64.7,83.5L64.9,83.7L65.0,87.0L65.0,87.2L65.6,87.4L67.1,87.3L68.3,87.0L68.5,86.6L68.5,86.4L68.1,85.7L66.4,83.8L66.3,83.2L66.6,82.9L67.3,82.9L67.7,83.2L68.7,83.9L70.6,85.9L71.0,86.1L71.5,86.0L73.3,85.2L74.3,84.6L74.9,84.0L74.5,83.4L73.5,82.9L73.1,82.5L71.4,81.7L70.9,81.6L70.5,81.3L68.8,80.8L65.1,80.3L63.0,80.3L62.0,80.5L60.6,80.5L59.6,80.9L58.3,81.2L55.8,82.2L54.8,82.9L54.6,83.1L53.7,83.4Z M66.5,69.3L66.5,69.5L68.5,70.8L69.1,71.3L69.5,71.5L70.7,72.3L71.8,72.9L72.5,73.4L73.2,73.7L74.5,74.9L74.9,75.0L77.4,76.5L77.9,77.0L78.4,77.1L80.3,78.5L82.4,79.8L83.4,80.5L83.8,80.7L84.8,81.5L86.3,82.5L87.3,82.9L87.7,83.3L89.4,84.3L91.5,85.9L92.5,86.3L94.2,87.6L94.8,87.8L96.2,88.6L96.9,89.3L103.4,93.7L104.0,93.9L104.4,93.9L104.8,93.7L104.9,92.7L104.8,91.3L104.1,89.2L102.8,87.0L101.4,85.4L99.7,84.1L98.8,83.7L97.6,82.9L96.7,82.4L96.3,82.0L95.0,81.2L94.6,80.8L94.2,80.7L92.7,79.6L92.1,79.4L91.6,79.0L90.7,78.5L90.1,78.0L88.8,77.3L87.4,76.2L85.4,75.1L84.2,74.0L83.7,73.8L83.1,73.3L82.0,72.7L76.9,69.4L75.5,68.6L74.5,67.9L73.2,67.2L71.4,65.9L71.0,65.9L70.3,66.3L69.6,66.9L68.2,67.8Z M52.8,44.6L52.9,45.0L53.5,45.5L54.6,45.9L55.5,46.4L55.7,46.4L56.5,46.8L58.1,47.2L59.0,47.6L60.9,47.9L61.6,48.1L64.2,48.2L67.8,47.7L68.2,47.5L70.1,47.0L71.4,46.5L73.9,45.0L73.9,44.5L72.8,43.6L70.8,42.8L70.2,42.7L70.0,42.8L69.0,43.8L68.8,44.1L67.3,45.5L66.7,45.8L66.3,45.8L66.0,45.5L66.0,45.1L67.7,42.9L68.1,42.2L68.0,42.0L67.7,41.8L65.8,41.4L64.7,41.4L64.4,41.6L64.3,43.9L64.2,44.8L64.0,45.1L63.7,45.2L63.1,45.1L62.8,44.8L62.6,43.5L62.6,42.1L62.4,41.6L62.1,41.4L60.0,41.5L58.7,41.8L58.5,42.1L58.5,42.5L58.6,42.8L60.6,45.2L60.6,45.7L60.3,45.9L59.7,45.9L59.4,45.8L56.5,43.0L56.2,42.8L55.8,42.8L55.2,43.1L54.2,43.7L53.5,44.0Z M23.4,35.0L23.4,36.3L23.6,38.1L24.3,40.1L24.8,41.0L25.5,42.0L25.6,42.4L27.1,44.0L29.8,45.9L31.9,47.1L34.1,48.8L35.5,49.5L37.2,50.7L37.6,50.9L39.9,52.5L40.3,52.6L46.0,56.5L48.3,57.7L50.2,59.1L50.6,59.3L55.4,62.5L56.2,62.4L60.4,59.6L60.4,59.0L59.1,57.9L58.3,57.5L56.9,56.4L56.0,56.0L52.3,53.4L49.1,51.5L48.4,50.9L47.1,50.2L45.0,48.7L43.7,48.1L42.6,47.1L41.8,46.8L40.3,45.5L39.4,45.1L39.2,44.8L38.7,44.7L37.6,43.8L36.8,43.5L35.5,42.5L33.9,41.6L33.5,41.2L32.7,40.7L32.2,40.3L31.1,39.7L28.9,38.0L27.4,37.2L27.0,36.8L24.8,35.4L24.3,35.0L23.7,34.8Z M104.1,33.9L103.9,33.8L103.3,33.9L102.2,34.7L101.3,35.2L99.3,36.8L97.3,38.0L94.4,40.1L92.7,41.2L92.4,41.3L90.6,42.7L89.8,43.1L89.4,43.4L88.8,43.7L88.5,44.0L86.2,45.4L83.4,47.5L81.2,48.8L80.6,49.3L80.0,49.6L79.0,50.3L77.0,51.6L76.5,52.1L75.5,52.6L75.5,52.8L74.5,53.3L73.5,54.0L72.9,54.3L71.8,55.3L71.0,55.7L70.5,56.0L69.8,56.7L68.6,57.3L67.0,58.5L65.9,59.1L65.4,59.5L63.8,60.6L63.4,61.0L61.9,61.6L60.3,62.8L58.9,63.5L57.6,64.6L56.9,65.0L55.5,66.1L53.5,67.2L52.5,68.1L51.0,68.9L49.9,69.7L49.7,69.7L48.2,71.0L47.1,71.6L46.8,71.7L43.7,73.9L42.5,74.6L41.5,75.5L40.2,76.1L39.4,76.8L39.1,76.9L37.7,77.9L36.2,78.8L35.0,79.8L33.7,80.5L31.3,82.4L30.2,83.0L28.7,84.2L27.5,85.2L26.2,86.7L24.3,90.0L23.9,91.2L23.9,93.9L24.1,94.2L24.5,94.3L25.0,94.1L27.7,92.1L28.5,91.4L30.7,90.0L33.8,87.8L34.5,87.5L35.5,86.6L36.5,86.2L38.2,84.8L39.2,84.2L42.0,82.2L42.4,82.1L43.3,81.3L44.7,80.6L45.8,79.8L47.4,78.8L48.5,77.8L49.4,77.4L50.3,76.7L52.0,75.6L52.8,74.9L56.8,72.4L57.2,72.0L60.1,70.2L60.6,69.7L62.6,68.4L63.0,68.0L64.0,67.6L65.0,66.9L66.3,66.2L66.9,65.8L67.2,65.7L69.7,63.8L72.2,62.2L72.8,61.7L75.4,60.1L76.8,59.1L77.1,59.0L79.6,57.2L80.3,56.9L82.6,55.3L83.7,54.7L85.8,53.0L88.7,51.3L92.2,48.7L92.9,48.5L94.3,47.3L96.9,45.7L97.3,45.3L98.3,44.8L100.2,43.4L102.1,41.4L103.1,39.9L103.8,38.4L104.1,37.5Z M82.1,29.7L80.3,29.5L75.3,29.5L74.5,29.6L74.2,29.9L73.9,31.3L73.6,33.5L73.5,33.8L73.2,35.5L72.4,37.5L72.1,38.7L71.3,40.4L71.3,40.7L71.6,41.1L72.6,41.6L73.3,42.1L73.9,42.3L74.6,42.8L75.0,43.1L75.4,43.3L76.0,43.3L76.6,42.9L77.1,42.4L79.1,39.9L80.4,37.7L81.3,36.0L81.9,34.1L82.0,32.6L82.4,31.2L82.4,30.1Z M72.0,29.7L71.3,29.5L70.3,29.4L68.8,29.5L65.1,29.5L64.7,29.6L64.4,29.9L64.3,34.0L64.3,38.3L64.4,39.0L65.1,39.5L67.0,39.7L68.6,40.1L69.2,40.1L69.5,39.9L70.7,37.8L71.1,36.3L71.5,35.2L71.5,34.7L71.8,33.8L72.2,31.4L72.2,30.1Z M54.1,29.5L53.8,30.1L53.8,31.0L53.9,32.4L54.1,32.6L54.3,33.6L54.3,34.3L54.8,35.9L56.5,39.5L56.9,40.0L57.2,40.2L58.0,40.2L59.4,39.9L59.9,39.7L60.6,39.5L61.4,39.5L62.2,39.3L62.5,38.7L62.4,29.9L61.9,29.5L57.3,29.3L55.0,29.4Z M44.1,29.5L44.0,30.5L44.5,33.3L45.3,36.0L46.6,38.5L47.5,39.9L48.3,40.7L48.4,41.1L49.6,42.3L51.2,43.1L51.7,43.0L52.7,42.4L54.6,41.5L55.0,41.1L55.0,40.4L53.5,37.3L53.4,36.6L52.7,34.8L52.4,33.5L52.1,31.1L51.7,29.7L51.4,29.5L51.0,29.4L44.6,29.3Z M40.1,29.3L39.4,28.4L38.3,27.4L38.0,26.9L35.2,24.0L34.8,24.0L34.5,24.3L34.4,25.4L33.6,26.1L32.7,26.2L26.3,26.5L25.9,26.8L25.3,28.3L24.8,30.1L24.4,31.0L24.3,31.9L24.5,32.2L24.7,32.3L26.2,32.3L27.1,32.2L33.9,32.2L34.3,32.6L34.5,33.6L34.5,34.7L34.6,34.9L35.1,35.0L36.6,33.4L36.9,32.9L37.5,32.5L38.6,31.2L40.0,29.9Z M86.3,28.8L86.3,29.2L87.0,29.9L87.5,30.7L88.9,32.1L89.0,32.3L90.5,34.0L91.4,34.9L91.8,34.9L91.9,34.7L91.9,33.1L92.1,32.6L92.6,32.0L100.2,32.0L103.1,31.9L103.5,31.8L103.5,31.1L102.9,29.7L102.6,28.5L102.0,27.1L101.9,26.5L101.6,26.1L101.1,25.8L92.7,26.0L92.2,25.8L91.9,25.3L91.9,24.0L92.0,23.4L91.8,23.2L91.4,23.3L90.6,24.1L90.4,24.4L89.9,24.8L89.8,25.1L87.4,27.5Z M68.8,17.3L68.3,17.3L64.7,18.0L64.3,18.3L64.3,26.7L64.4,27.0L64.7,27.2L69.9,27.4L71.8,27.2L72.2,26.9L72.0,24.6L71.8,23.6L71.0,21.7L70.7,20.5L69.4,18.0Z M56.8,17.2L56.2,18.0L55.4,19.3L54.5,22.4L54.1,23.1L53.8,26.1L53.8,26.8L53.9,27.1L54.3,27.2L60.5,27.4L62.0,27.2L62.3,26.9L62.3,26.5L62.4,22.0L62.2,18.2L62.0,18.0L61.3,17.7L59.6,17.6L57.3,17.1Z M54.3,16.0L52.5,14.9L52.1,14.8L51.1,14.0L50.2,14.1L49.1,15.2L47.9,16.6L46.8,18.2L45.2,21.4L45.1,22.0L44.6,23.1L44.6,23.4L44.3,24.2L44.2,25.4L44.0,25.8L44.0,27.0L44.3,27.2L45.0,27.4L47.6,27.5L49.4,27.3L51.3,27.3L51.8,26.8L52.3,23.6L52.7,22.6L53.1,20.8L53.5,19.7L54.1,18.3L54.3,17.6L54.7,17.0L54.7,16.5Z M71.5,16.1L71.1,16.6L71.1,17.2L72.7,20.7L73.0,22.0L73.5,23.1L73.7,24.3L73.9,26.9L74.3,27.2L75.0,27.4L79.6,27.4L82.0,27.1L82.2,27.0L82.3,25.7L82.1,25.4L81.8,23.7L81.4,22.7L81.3,21.9L80.9,20.7L79.6,18.6L78.9,17.7L78.3,16.8L76.6,14.7L75.9,14.0L75.2,14.0L73.6,15.0L73.2,15.2L72.1,15.9Z M52.6,12.4L52.6,12.9L53.5,13.6L55.1,14.4L56.0,14.6L58.9,11.9L59.4,11.5L59.9,11.5L60.0,11.6L60.3,12.1L59.9,12.8L58.9,13.8L58.2,14.7L58.1,15.2L58.3,15.5L58.6,15.6L60.7,16.1L61.9,16.1L62.2,15.9L62.3,12.6L62.9,12.1L63.5,12.1L64.0,12.4L64.1,13.2L64.2,15.5L64.6,16.0L64.9,16.1L67.1,15.8L67.6,15.4L67.5,15.1L66.7,14.0L65.5,12.7L65.4,12.4L65.4,12.0L65.6,11.8L66.4,11.8L66.7,12.0L69.2,14.4L69.9,14.7L71.3,14.3L73.2,13.3L73.6,12.8L73.6,12.5L73.2,12.1L70.8,10.8L70.4,10.7L69.0,10.1L68.4,10.0L67.3,9.5L64.9,9.1L61.4,9.1L59.7,9.4L59.0,9.7L58.6,9.7L56.5,10.3L56.2,10.5L55.7,10.6L53.9,11.5Z" fill="#000" fill-rule="evenodd"/>
</svg>