<svg xmlns="http://www.w3.org/2000/svg" viewBox="0 0 128 128" width="128" height="128">
  <path d="M63.4,9.1L62.2,9.3L59.3,9.3L57.3,9.7L55.7,9.8L54.4,10.3L52.0,10.6L51.8,10.7L49.6,11.2L48.7,11.7L48.1,11.8L46.8,12.4L45.6,12.6L44.3,13.3L43.6,13.4L42.1,14.2L40.9,14.6L38.1,16.2L36.4,17.4L35.5,17.8L33.7,19.1L32.8,19.6L32.2,20.2L29.5,22.2L23.6,28.0L21.8,30.9L21.1,31.7L20.9,32.1L19.6,33.9L19.6,34.1L18.3,36.0L17.8,37.3L17.4,37.8L17.2,38.4L16.8,38.9L15.6,41.7L15.3,42.8L14.8,43.7L14.6,44.6L14.2,45.4L14.0,46.4L13.7,46.8L13.7,47.6L13.3,48.6L13.2,49.3L12.7,51.0L12.4,52.6L12.2,53.2L11.7,56.6L11.6,59.8L11.3,60.8L11.3,64.8L11.2,66.1L11.4,67.5L11.5,70.4L11.8,72.5L12.0,72.9L12.0,74.4L12.3,75.0L12.4,76.3L12.7,76.9L12.8,77.9L14.6,84.1L15.5,85.8L16.2,88.0L16.6,88.6L18.3,92.2L19.0,93.0L19.2,93.7L20.9,96.4L21.7,97.3L22.9,99.0L25.5,102.2L27.3,103.8L28.3,105.0L30.9,107.3L31.7,107.8L31.8,108.1L32.2,108.5L35.2,110.2L36.7,111.4L39.0,112.7L40.1,113.1L41.2,113.9L41.6,113.9L43.6,114.9L44.3,115.1L44.9,115.5L45.8,115.7L46.2,116.0L48.7,116.7L49.7,117.1L51.1,117.3L52.7,117.9L53.8,118.0L54.9,118.4L59.5,118.9L61.7,118.9L63.2,119.2L65.5,119.2L68.8,118.7L71.1,118.6L72.4,118.2L74.6,118.0L75.9,117.6L76.3,117.3L77.3,117.3L78.3,117.1L79.1,116.7L79.5,116.7L80.0,116.4L80.9,116.3L81.3,116.0L82.7,115.7L84.0,115.2L84.4,114.9L85.2,114.7L87.8,113.4L88.0,113.1L88.8,112.8L89.6,112.2L90.0,112.2L91.2,111.3L92.3,110.8L93.4,109.9L96.7,107.6L99.8,104.7L100.8,104.0L102.2,102.6L105.5,98.6L109.1,93.4L109.7,92.1L111.0,90.1L111.1,89.6L111.8,88.5L112.5,86.7L112.8,86.2L113.9,83.0L114.6,81.4L114.7,80.4L115.1,79.8L115.2,78.7L115.6,77.9L115.9,75.9L116.3,74.4L116.9,69.2L117.1,62.7L116.9,61.4L116.9,59.7L116.7,58.4L116.7,57.1L116.4,56.3L116.4,55.6L116.0,53.7L115.8,51.6L115.6,51.1L114.6,47.1L114.3,46.5L113.6,44.3L113.2,43.6L113.0,42.7L112.5,41.9L112.4,41.4L111.6,39.5L110.6,38.0L109.6,35.9L108.7,34.6L107.8,32.9L106.2,30.9L105.5,29.7L103.9,27.9L103.0,26.7L99.2,22.9L98.4,22.3L97.1,21.0L92.3,17.5L90.3,16.3L89.6,16.1L87.8,14.9L87.1,14.6L85.8,14.0L85.2,13.8L84.0,13.1L82.6,12.7L80.5,11.8L77.4,10.8L72.6,9.8L70.8,9.7L69.0,9.3Z M82.5,92.5L82.8,92.7L82.8,93.3L81.3,96.1L79.9,98.4L79.5,99.6L78.6,100.6L77.8,101.9L76.7,103.2L76.3,103.9L75.7,104.6L75.2,105.4L73.5,107.2L72.6,108.5L67.4,113.5L67.0,113.7L66.5,114.3L65.7,114.7L65.1,114.7L64.8,114.3L64.7,113.2L64.8,92.9L65.5,92.4L67.4,92.5L79.6,92.3Z M44.3,92.5L45.5,92.3L53.9,92.5L60.5,92.4L61.7,92.5L62.2,92.9L62.3,93.8L62.3,105.5L62.4,106.5L62.4,112.2L62.3,114.3L61.9,114.9L61.3,114.9L60.6,114.4L59.4,113.2L58.8,112.9L56.3,110.5L53.9,108.1L53.6,108.0L53.3,107.7L53.3,107.4L51.4,105.3L51.2,104.8L49.2,102.5L48.5,101.2L47.2,99.6L44.5,94.8L43.9,93.3L43.9,92.9Z M105.8,92.8L105.8,93.3L105.5,93.8L103.8,96.3L102.9,97.2L102.2,98.4L99.4,101.2L98.8,101.9L95.4,105.1L93.9,106.1L92.2,107.5L91.6,107.7L91.2,108.1L90.3,108.6L89.6,109.3L87.9,110.0L87.7,110.2L86.6,110.7L86.0,111.1L85.4,111.3L84.9,111.7L83.7,112.1L82.8,112.6L82.5,112.6L80.3,113.5L79.9,113.8L78.9,113.9L78.5,114.2L77.2,114.6L76.7,114.6L75.3,115.1L74.5,115.2L73.1,115.6L72.6,115.6L71.7,115.8L69.3,116.0L69.1,115.6L69.5,115.0L73.5,111.1L73.9,110.5L74.5,109.9L77.8,106.3L78.8,104.7L79.2,104.3L82.2,99.7L83.2,98.0L83.4,97.4L83.8,96.9L84.3,95.8L84.9,95.0L85.1,94.0L85.8,92.6L86.1,92.4L87.3,92.2L104.7,92.4L105.4,92.5Z M92.3,66.1L92.6,66.0L93.9,65.9L113.8,65.9L114.2,66.2L114.3,66.5L114.3,68.9L113.8,72.8L113.4,74.1L113.2,75.7L112.9,76.6L112.7,77.8L112.4,78.4L111.9,80.8L111.4,81.9L111.4,82.4L111.1,82.7L110.5,84.7L109.8,85.8L109.6,86.5L108.7,88.2L108.0,89.2L107.1,89.4L93.4,89.4L92.1,89.6L90.2,89.6L89.6,89.4L88.3,89.4L87.7,89.1L87.6,88.4L88.1,87.4L88.3,86.4L88.9,85.1L89.2,83.8L89.9,81.7L90.4,79.1L90.8,77.7L91.0,75.9L91.3,75.3L91.6,71.7L91.8,70.6L92.0,66.7Z M65.3,65.9L88.6,65.9L89.0,66.0L89.2,66.2L89.4,66.6L89.3,68.9L89.1,69.8L89.1,70.7L88.8,72.0L88.6,74.6L88.0,76.8L87.6,80.2L87.2,81.4L87.1,82.1L86.9,82.6L85.8,86.2L85.4,86.9L84.8,88.7L84.1,89.5L83.7,89.6L81.0,89.5L75.2,89.6L73.9,89.4L73.3,89.6L67.4,89.6L66.6,89.5L65.6,89.6L65.3,89.6L64.8,89.1L64.8,77.0L65.0,76.3L64.9,75.9L64.8,75.7L64.7,74.1L64.9,70.1L64.8,68.6L64.8,66.5Z M62.2,66.4L62.2,80.5L62.4,82.0L62.2,84.2L62.4,88.3L62.3,88.9L61.9,89.4L61.6,89.6L60.8,89.6L51.6,89.6L50.6,89.4L49.7,89.6L42.0,89.5L41.2,89.3L39.3,89.5L37.9,89.3L33.7,89.4L32.0,89.2L31.3,88.7L31.2,87.8L31.2,84.7L31.7,84.1L32.1,83.9L33.4,83.9L34.2,84.1L36.4,83.9L40.1,84.1L40.5,83.8L40.5,82.5L40.2,81.7L40.0,79.5L39.8,79.1L39.6,76.4L39.6,75.3L39.9,74.8L40.6,74.5L42.8,74.5L43.4,74.7L54.1,74.7L54.4,74.3L54.4,72.8L53.7,68.5L53.2,67.0L53.3,66.1L53.9,65.7L59.1,65.7L59.8,65.6L60.2,65.7L61.7,65.8Z M27.2,46.0L28.5,46.0L29.8,46.3L31.9,48.1L32.5,49.0L32.8,50.2L32.8,51.4L32.6,52.4L32.0,53.9L31.6,54.4L30.3,55.6L29.9,55.8L28.8,56.1L27.8,56.1L26.8,55.9L25.6,55.4L24.6,54.7L23.8,53.7L23.1,51.5L23.2,50.0L23.7,48.7L24.2,47.9L25.0,47.0L26.5,46.2Z M87.8,39.4L87.9,39.3L88.3,39.2L99.6,39.2L103.5,39.3L107.4,39.3L108.0,39.5L108.7,40.2L109.6,42.0L110.0,43.5L111.4,46.4L111.8,48.1L111.8,48.5L112.6,50.5L112.7,51.6L113.1,52.9L113.2,53.6L113.5,54.4L113.5,55.1L113.9,56.3L113.9,57.3L114.3,60.1L114.2,62.3L113.7,62.7L112.6,62.7L92.4,62.7L92.1,62.3L91.9,61.6L91.9,59.4L91.7,58.6L91.8,58.0L91.6,56.9L91.5,55.5L91.3,54.8L91.2,53.0L90.9,52.3L90.8,50.6L90.5,50.0L90.4,48.5L89.1,43.6L88.4,42.0L88.2,41.0L87.8,40.3Z M64.9,39.6L65.3,39.2L65.9,39.0L70.5,39.2L77.0,39.1L77.6,39.3L78.7,39.1L80.7,39.2L83.7,39.0L84.1,39.2L84.6,39.7L85.1,41.0L85.4,41.5L85.5,42.2L85.8,42.6L85.8,43.1L86.6,45.5L87.4,48.9L87.5,49.1L88.9,56.0L89.4,61.5L89.2,62.4L88.7,62.8L85.4,62.9L83.7,62.7L79.6,62.9L65.3,62.8L64.8,62.3L64.7,59.9L64.8,56.1L64.8,52.5L64.9,51.1Z M42.9,39.0L56.9,39.1L60.9,38.9L61.8,39.1L62.2,39.6L62.1,57.3L62.3,57.8L62.3,62.2L61.9,62.8L60.9,63.2L56.0,63.1L52.4,62.8L52.1,62.5L51.8,61.7L51.3,61.3L51.1,61.0L50.8,59.7L50.4,59.0L49.9,57.8L49.7,57.7L49.3,56.3L48.5,55.3L48.1,54.2L46.8,51.5L44.3,47.7L43.9,47.3L42.9,45.9L41.2,44.0L40.9,43.5L40.9,42.6L41.4,41.8L41.6,40.8L42.1,39.7Z M61.6,14.2L61.9,14.6L62.1,15.3L62.1,35.7L61.8,36.0L61.4,36.2L54.9,36.2L54.2,36.0L53.0,36.2L44.7,36.2L44.3,35.9L44.2,35.5L44.7,34.0L45.8,32.1L47.6,29.1L48.1,28.2L49.4,26.0L51.2,24.0L51.4,23.5L53.0,22.0L55.5,19.1L56.3,18.4L57.5,17.1L58.2,16.6L59.0,15.8L60.7,14.4L61.1,14.2Z M65.1,14.1L65.7,14.1L66.9,14.9L69.0,16.8L73.4,21.2L74.2,22.4L76.1,24.5L76.5,25.2L77.0,25.8L77.7,26.9L78.3,27.5L78.8,28.7L79.3,29.2L80.3,30.9L81.3,32.4L81.4,32.9L82.1,34.0L82.7,35.4L82.6,35.8L82.3,36.1L77.0,36.2L76.5,36.0L68.9,36.0L65.7,36.2L65.2,36.0L64.9,35.8L64.8,28.8L64.9,27.5L64.8,27.0L64.7,21.5L64.9,14.3Z M69.3,12.7L70.4,12.6L71.8,12.8L72.4,13.0L73.0,13.0L74.4,13.3L74.9,13.3L78.7,14.4L80.1,15.0L80.4,15.0L81.2,15.4L82.3,15.8L83.9,16.6L84.4,16.6L85.7,17.4L86.2,17.5L86.8,17.9L87.4,18.1L88.3,18.7L89.2,19.1L90.8,20.2L93.1,21.9L93.5,22.1L94.5,22.9L95.1,23.3L96.4,24.6L97.0,25.0L98.2,26.0L100.0,27.8L100.4,28.4L102.1,30.0L103.0,31.5L103.9,32.5L104.1,32.9L105.7,35.2L105.6,35.8L105.4,36.0L103.3,36.1L86.7,36.1L86.2,35.9L85.9,35.6L85.4,34.2L84.7,33.3L83.7,31.2L83.4,30.9L82.9,29.6L80.9,26.7L80.4,25.7L78.2,22.8L77.8,22.1L75.7,19.7L75.3,19.1L73.5,17.3L73.0,16.6L71.4,15.3L69.2,13.1Z" fill="#000" fill-rule="evenodd"/>
</svg>