<svg xmlns="http://www.w3.org/2000/svg" viewBox="0 0 128 128" width="128" height="128">
  <path d="M63.2,10.3L62.8,10.4L61.9,13.0L61.6,14.1L60.5,17.2L59.9,19.4L59.3,21.0L58.6,23.8L58.3,24.2L58.3,24.7L57.8,25.9L57.3,27.9L57.0,28.3L56.4,30.8L56.1,31.4L56.0,32.0L54.7,35.9L54.6,36.9L54.2,37.5L53.7,39.6L53.4,40.0L53.3,40.8L52.8,42.0L52.2,44.3L51.4,46.4L51.2,47.6L50.9,48.0L50.8,48.9L50.2,50.4L49.6,51.0L48.5,51.2L24.3,51.2L11.1,51.0L9.4,51.1L9.2,51.3L9.3,51.6L10.7,52.5L17.2,57.8L19.8,59.7L20.8,60.6L21.7,61.1L23.5,62.7L24.3,63.2L27.1,65.4L32.2,69.1L34.4,70.9L36.2,72.2L37.0,72.9L37.9,73.4L40.6,75.8L41.4,76.3L41.7,76.7L41.6,77.9L41.2,78.8L40.7,80.8L40.2,82.2L40.0,83.3L39.7,84.0L39.6,84.6L39.3,85.3L39.2,86.0L38.3,88.4L37.6,91.0L37.3,91.4L37.2,92.3L36.9,92.9L36.2,95.2L35.5,97.2L35.3,98.0L35.0,98.8L34.9,99.5L34.6,100.1L34.5,100.9L34.1,101.5L34.1,102.1L33.3,104.0L33.1,105.2L32.8,105.6L32.2,108.1L31.3,110.4L30.8,112.4L30.4,113.2L30.3,113.8L30.0,114.5L30.0,114.9L29.1,117.3L29.2,117.9L29.6,117.9L30.8,116.9L32.3,115.8L34.8,113.8L36.0,113.1L36.9,112.3L38.6,111.2L40.3,109.7L41.4,109.1L44.7,106.6L47.5,104.7L48.3,104.0L52.3,101.2L53.2,100.4L54.1,99.8L54.6,99.3L55.1,99.0L57.2,97.3L57.8,97.0L59.3,95.9L59.7,95.7L60.8,94.9L61.8,94.0L63.3,93.1L64.0,93.1L64.8,93.5L65.2,93.9L65.6,94.1L70.2,97.6L70.5,97.6L72.6,99.3L72.9,99.4L74.3,100.5L75.5,101.3L77.1,102.6L79.2,103.9L80.8,105.3L82.4,106.3L84.0,107.5L85.5,108.5L87.4,110.0L91.4,112.8L93.8,114.7L94.7,115.2L96.4,116.5L96.8,116.7L97.2,117.3L98.0,117.5L98.0,116.8L97.0,113.8L96.6,112.9L96.4,112.0L95.8,110.5L95.3,108.3L95.0,107.7L94.8,106.7L94.4,105.9L93.5,102.8L93.2,102.4L92.2,99.0L91.5,97.3L91.4,96.7L90.0,92.7L89.9,92.0L89.2,90.2L89.1,89.6L88.3,87.4L88.1,86.3L87.8,85.7L87.4,84.2L86.7,82.6L86.0,80.2L85.9,79.6L85.3,78.2L85.3,77.3L85.7,76.7L86.0,76.6L88.0,74.9L90.9,72.9L92.7,71.4L94.8,69.9L96.4,68.5L97.2,68.1L99.6,66.2L102.1,64.4L103.2,63.6L103.9,63.2L104.5,62.6L105.2,62.2L108.3,59.8L108.7,59.6L109.9,58.7L110.8,57.9L114.7,55.2L116.9,53.4L117.4,53.2L118.4,52.3L118.9,52.1L119.1,51.7L119.1,51.5L119.0,51.3L117.9,51.3L112.1,51.4L107.7,51.3L77.9,51.3L77.1,51.2L76.9,51.0L76.3,50.2L76.0,49.0L75.8,48.6L75.1,46.0L73.4,41.4L73.0,39.5L71.7,36.1L71.2,34.1L70.8,32.9L70.5,32.4L70.2,31.3L70.0,30.9L69.7,29.8L69.6,29.6L68.5,25.9L68.2,25.4L68.0,24.5L67.8,24.3L67.5,22.8L66.5,20.1L66.1,18.8L65.3,16.7L63.5,10.8Z" fill="#000" fill-rule="evenodd"/>
</svg>