<svg xmlns="http://www.w3.org/2000/svg" viewBox="0 0 128 128" width="128" height="128">
  <path d="M10.0,10.3L9.8,12.8L9.9,32.8L9.6,39.1L9.7,56.6L9.5,60.0L9.6,86.8L9.4,91.3L9.4,111.0L9.6,117.1L9.9,118.3L10.1,118.4L26.6,118.5L34.4,118.3L50.3,118.3L54.1,118.2L71.6,118.1L87.5,118.2L93.4,118.0L96.0,118.1L97.4,117.9L100.6,117.9L102.1,117.7L106.9,117.6L116.8,117.8L117.8,117.7L118.3,117.3L118.1,110.0L118.4,101.4L118.3,89.5L118.6,78.3L118.6,70.6L118.8,69.8L118.6,66.3L118.9,65.4L118.9,62.6L118.7,61.9L118.6,58.7L118.6,36.6L118.4,30.4L118.5,10.4L118.3,9.9L113.7,9.7L74.8,9.7L70.2,9.9L50.1,9.7L22.4,10.1L10.6,10.1Z M94.9,111.3L94.9,110.9L95.4,110.9L95.6,111.0L95.4,111.4Z M33.5,110.8L33.8,110.5L34.0,110.5L34.6,110.9L34.6,111.3L34.2,111.4L33.8,111.2Z M94.8,108.7L94.8,109.0L94.0,109.2L93.1,110.4L92.7,110.4L92.7,109.5L93.5,108.5L94.5,108.5Z M34.2,108.6L34.9,108.3L35.8,108.5L36.2,108.9L36.5,109.8L36.4,110.1L35.8,110.0L35.3,109.1L34.7,109.0Z M94.1,106.4L93.9,106.8L92.3,107.0L91.9,107.4L91.7,108.2L91.4,108.6L90.9,108.9L90.7,108.7L90.7,108.1L91.5,106.4L92.1,106.1L93.8,106.1Z M35.0,106.3L35.6,106.0L37.0,106.0L37.5,106.2L37.8,106.5L38.0,107.3L38.2,107.7L38.3,108.5L38.0,108.8L37.6,108.5L37.6,108.2L36.9,107.0L36.4,106.8L35.2,106.7Z M36.0,104.0L38.8,104.0L39.6,104.9L40.1,106.7L40.3,107.0L40.2,107.5L39.7,107.5L39.5,107.3L39.2,106.1L38.6,104.9L37.9,104.6L36.1,104.5L35.9,104.3Z M93.3,104.0L93.3,104.5L93.0,104.6L91.2,104.6L90.5,104.8L89.8,106.0L89.5,107.1L89.1,107.5L88.7,107.4L88.7,106.8L89.1,105.5L89.6,104.4L89.9,104.0L90.4,103.8L92.4,103.8Z M36.5,101.9L37.0,101.7L40.1,101.7L40.7,101.9L41.3,102.8L41.7,104.3L42.2,105.5L42.2,106.0L41.7,106.1L41.3,105.7L40.8,104.0L40.3,102.9L39.8,102.6L36.7,102.5L36.5,102.4Z M92.6,101.7L92.7,102.0L92.4,102.3L89.8,102.3L88.8,102.5L88.1,103.5L87.4,106.0L87.0,106.0L86.7,105.8L87.5,102.7L88.2,101.6L92.3,101.5Z M37.2,99.5L42.3,99.5L43.0,100.4L43.2,101.7L43.5,102.1L43.7,103.1L44.2,104.1L44.0,104.7L43.6,104.7L43.2,104.3L42.3,101.1L41.6,100.4L37.4,100.2L37.1,99.9Z M91.9,99.6L91.7,100.0L91.3,100.1L87.5,100.1L87.1,100.3L86.6,100.8L85.9,103.2L85.4,104.3L85.0,104.7L84.7,104.4L84.9,103.4L85.4,101.9L85.9,100.1L86.4,99.4L87.0,99.2L91.1,99.2L91.6,99.3Z M37.9,97.4L38.3,97.1L44.0,97.2L44.6,98.1L44.9,99.1L45.2,99.6L45.4,100.6L46.2,102.8L46.1,103.2L45.8,103.5L45.5,103.5L45.4,103.3L44.0,99.4L44.0,99.0L43.3,98.2L42.9,98.0L38.2,97.9L37.9,97.6Z M91.1,97.2L91.1,97.5L90.6,97.8L85.4,97.9L85.0,98.5L84.7,99.1L83.6,102.7L83.2,103.3L82.8,103.2L82.7,102.5L83.1,101.7L83.3,100.7L84.2,98.1L84.9,97.1L85.2,96.9L90.3,96.9L90.9,97.0Z M38.8,94.9L39.5,94.7L43.0,94.7L45.6,94.9L46.3,95.9L47.5,99.5L47.9,100.2L48.1,101.4L48.0,101.8L47.7,101.9L47.3,101.5L46.3,98.9L45.6,96.5L45.1,95.8L44.4,95.6L39.0,95.5L38.8,95.4Z M90.3,94.9L90.2,95.2L89.6,95.4L84.8,95.3L83.5,95.6L82.8,97.0L82.5,98.3L81.6,100.7L81.6,101.1L81.1,101.7L80.7,101.5L81.0,100.1L82.0,97.5L82.5,95.7L83.2,94.7L85.0,94.5L89.8,94.5Z M39.5,92.7L39.7,92.5L40.5,92.4L46.9,92.4L47.5,92.6L47.8,93.0L48.5,95.3L48.9,96.0L49.1,96.9L50.2,99.8L50.1,100.3L49.7,100.5L49.1,99.7L47.4,94.2L47.1,93.6L46.7,93.4L44.7,93.2L39.8,93.2L39.6,93.1Z M89.0,92.3L89.3,92.7L89.0,93.0L82.1,93.1L81.5,93.6L79.5,99.7L79.1,100.2L78.7,100.0L79.0,98.6L80.1,95.4L80.1,95.0L80.5,94.3L80.9,93.0L81.5,92.3Z M40.2,90.5L40.5,90.2L47.2,90.1L49.1,90.3L49.5,90.7L50.3,93.4L51.1,95.5L51.3,96.6L51.7,97.4L52.0,98.6L51.6,98.8L51.3,98.6L50.8,97.0L50.5,96.6L50.4,95.9L49.1,91.7L48.6,91.1L40.5,90.9Z M88.8,90.3L88.6,90.7L80.8,90.7L80.2,90.9L80.0,91.2L79.6,92.0L77.6,98.1L77.2,98.7L76.8,98.6L76.9,97.8L78.7,92.5L78.9,91.5L79.3,90.6L79.7,90.2L80.1,90.0L87.5,89.9L88.4,90.0Z M87.7,87.9L87.6,88.3L87.5,88.4L81.2,88.4L78.9,88.5L78.4,88.7L77.9,89.4L77.2,92.4L76.4,94.1L75.8,96.1L75.6,96.3L75.6,96.7L75.3,97.2L74.8,97.2L75.1,95.7L75.7,94.1L76.8,90.6L77.5,89.3L77.6,88.2L78.0,87.8L87.5,87.7Z M40.9,88.1L41.3,87.8L45.9,87.7L50.8,87.9L51.3,88.6L52.1,90.5L52.1,91.0L52.9,92.9L53.5,95.4L53.9,96.2L54.0,97.2L53.8,97.4L53.5,97.4L53.1,96.8L53.0,96.1L52.4,94.5L52.1,93.2L51.8,92.7L50.9,89.7L50.6,89.1L50.2,88.7L41.2,88.6L41.0,88.5Z M41.8,85.6L46.0,85.4L50.7,85.4L52.6,85.6L53.2,86.7L53.4,87.6L53.6,87.8L53.9,89.1L54.9,91.6L55.0,92.4L55.9,95.0L56.0,95.7L55.6,96.0L55.3,95.6L53.1,88.9L52.9,88.5L52.6,87.2L52.4,86.8L51.7,86.2L42.0,86.2L41.8,86.1Z M87.0,85.5L87.2,85.8L86.9,86.1L77.0,86.2L76.5,86.6L75.0,91.1L74.9,91.8L74.5,92.5L73.6,95.4L73.2,95.8L72.9,95.7L72.9,95.0L74.5,90.4L74.5,90.0L74.9,89.2L75.7,86.3L76.3,85.5L76.8,85.3L82.7,85.3Z M42.6,83.5L42.9,83.2L45.3,83.0L50.1,83.0L54.2,83.2L54.8,83.9L55.4,86.1L55.8,87.0L56.1,88.5L56.5,89.2L56.6,90.0L56.9,90.5L57.5,92.5L57.9,93.5L58.0,94.3L57.8,94.5L57.6,94.5L57.2,94.0L56.9,92.7L56.6,92.2L54.2,84.6L53.8,84.0L53.1,83.8L43.8,83.9L42.9,83.8Z M86.4,83.2L86.4,83.7L86.2,83.8L75.3,83.8L74.7,84.4L74.4,85.1L74.0,86.8L72.9,89.6L71.5,94.2L71.3,94.4L70.8,94.3L70.8,93.6L71.3,92.3L71.3,91.9L72.0,89.9L72.3,89.4L74.0,83.9L74.7,83.1L76.4,82.9L85.0,83.0Z M85.5,81.0L85.3,81.3L78.2,81.3L73.5,81.5L73.0,82.0L72.6,82.8L72.5,83.8L71.7,85.8L69.7,92.3L69.2,93.0L68.9,92.9L68.8,92.5L69.8,89.6L69.9,88.9L70.2,88.1L70.2,87.7L71.0,85.9L72.2,82.0L72.6,81.2L72.9,80.8L84.5,80.7L85.3,80.8Z M43.2,81.1L43.8,80.8L45.3,80.7L55.9,80.8L56.4,81.3L56.9,83.2L58.2,86.9L58.3,87.6L59.3,90.0L59.5,91.1L60.0,92.4L60.0,93.0L59.6,93.2L59.3,92.9L55.9,82.6L55.3,81.6L54.4,81.4L43.6,81.5L43.2,81.3Z M84.8,78.7L84.6,79.0L82.8,79.1L71.9,79.1L71.4,79.6L70.7,81.2L70.7,81.5L69.8,84.2L69.7,85.0L69.2,86.0L69.1,86.6L67.7,91.0L67.2,91.5L66.8,91.4L66.9,90.7L67.7,88.4L68.3,86.2L68.7,85.5L70.4,79.8L70.8,78.9L71.5,78.4L84.3,78.4Z M43.9,78.7L44.1,78.5L45.0,78.4L57.0,78.3L57.7,78.5L58.1,79.0L58.7,80.9L58.7,81.3L59.8,84.0L59.9,84.7L62.0,91.0L61.9,91.5L61.6,91.5L61.2,91.1L60.1,87.6L60.1,87.2L59.6,86.2L59.0,84.1L58.7,83.7L57.9,81.0L57.5,79.7L57.0,79.2L44.7,79.2L44.2,79.1L43.9,78.8Z M84.1,76.4L84.0,76.7L83.7,76.8L70.1,76.8L69.5,77.7L67.8,82.6L67.7,83.7L67.0,85.3L67.0,85.7L65.7,88.9L65.5,89.8L65.2,90.2L64.9,90.1L64.9,89.6L65.9,86.6L65.9,86.2L66.4,85.4L66.6,84.3L68.7,78.2L68.8,77.5L69.5,76.2L83.2,76.1L83.9,76.2Z M44.6,76.3L44.8,76.1L59.1,76.1L59.8,76.6L59.9,77.2L60.2,77.7L60.3,78.8L60.6,79.2L64.1,90.0L63.7,90.2L63.3,89.8L63.2,89.3L63.0,89.1L62.8,87.9L60.8,82.5L60.6,81.4L59.6,78.8L59.4,77.8L58.8,76.9L58.2,76.7L45.0,76.8L44.6,76.4Z M50.9,64.5L50.8,65.1L50.1,65.9L47.3,68.0L46.0,68.8L41.3,72.3L40.9,72.5L40.4,72.4L40.4,72.1L40.8,71.6L43.4,69.7L43.9,69.5L45.1,68.5L45.9,68.0L48.3,66.1L48.8,65.9L50.4,64.3L50.6,64.2Z M43.7,57.6L44.3,58.5L44.9,60.7L45.6,62.6L45.5,63.4L44.5,64.3L38.3,68.9L37.0,69.8L36.3,69.7L36.3,69.4L37.0,68.8L44.1,63.7L44.7,63.0L44.8,62.4L43.5,58.6Z M59.0,53.9L59.6,54.1L59.8,54.3L60.2,54.4L62.6,56.2L63.0,56.6L62.8,56.9L62.8,56.7L61.9,56.4L59.8,54.8L59.7,54.5L59.1,54.3L58.9,54.1Z M93.6,53.7L93.8,53.9L93.7,54.7L92.2,59.2L92.1,60.3L95.8,63.3L96.8,63.9L97.9,64.9L97.9,65.3L97.5,65.3L97.0,65.0L93.9,62.6L92.5,61.7L91.8,61.1L91.3,60.4L91.6,59.0L92.6,56.2L93.2,54.1Z M110.1,53.7L110.6,53.7L110.7,54.2L111.1,54.8L110.9,55.0L110.5,54.9L110.1,54.5Z M98.3,53.6L98.6,53.7L98.6,54.2L97.4,57.6L97.5,58.7L98.5,59.5L101.6,61.7L102.0,62.2L101.8,62.4L101.1,62.3L97.7,59.7L97.2,59.4L96.7,58.9L96.7,57.9L96.9,57.7Z M105.5,53.5L105.8,53.6L105.8,54.1L105.4,55.8L105.8,56.5L107.6,57.8L107.7,58.0L107.5,58.2L107.0,58.1L104.7,56.3L104.7,55.5L105.2,53.9Z M91.0,53.7L91.4,53.6L91.3,54.6L89.4,60.2L89.4,61.1L89.9,61.7L90.8,62.4L92.1,63.2L95.9,66.1L96.1,66.4L95.8,66.6L95.3,66.5L94.9,66.2L93.8,65.5L92.7,64.5L89.3,62.1L88.6,61.3L88.6,60.8L89.1,59.5L89.2,58.8L89.5,58.4Z M18.2,53.5L18.6,54.0L18.6,54.7L18.1,55.3L17.5,55.6L17.2,55.2L17.7,54.7L17.9,54.3L18.0,53.5Z M100.9,53.4L101.1,53.8L100.0,57.1L100.1,57.8L100.9,58.7L101.1,58.7L102.7,59.8L103.5,60.6L103.4,60.9L102.2,60.3L99.4,58.0L99.4,57.2L99.8,56.2L100.4,53.9Z M15.6,53.4L15.8,53.4L16.0,53.7L15.8,54.0L15.5,54.0L15.3,53.7Z M103.1,53.4L103.5,53.4L103.5,54.1L102.9,55.6L102.8,56.7L103.6,57.6L104.8,58.6L105.3,58.8L105.6,59.1L105.7,59.6L105.2,59.6L104.6,59.2L102.6,57.8L102.0,57.1L102.0,56.4Z M96.1,53.4L96.4,53.4L96.4,54.0L94.9,58.5L94.9,59.4L95.3,60.0L96.3,60.6L97.3,61.5L99.8,63.2L100.2,63.7L99.9,64.0L99.5,64.0L98.3,63.0L94.8,60.5L94.0,59.6L94.0,58.9L94.3,57.9L95.0,56.1L95.7,53.9Z M42.0,53.2L42.4,53.3L42.7,53.7L43.3,55.5L43.6,56.6L43.6,57.1L43.3,57.3L43.0,57.0L42.8,56.3L42.7,55.5L41.9,53.6Z M23.0,53.3L23.8,55.3L23.9,56.5L23.2,57.2L21.8,58.2L21.0,58.2L21.0,57.9L23.0,56.3L23.1,55.3L22.6,53.9L22.6,53.4Z M108.1,53.2L108.4,53.2L108.1,54.3L108.1,55.0L108.3,55.4L109.3,56.3L109.2,56.6L108.8,56.6L108.0,56.1L107.3,55.3L107.3,54.7L107.6,54.1L107.6,53.8Z M83.9,53.2L84.4,53.2L84.4,53.9L83.3,57.0L83.0,57.5L83.0,58.0L81.8,61.6L81.4,63.5L82.0,64.2L86.5,67.6L87.0,67.8L88.1,68.9L89.1,69.4L90.5,70.7L90.4,71.1L90.0,71.1L87.7,69.5L85.9,68.0L81.0,64.5L80.5,63.9L80.6,62.9L80.9,62.4L81.2,61.2L82.0,59.3Z M81.7,53.1L82.0,53.2L81.8,54.3L81.2,55.9L81.0,56.8L80.4,58.2L80.1,59.9L79.6,60.9L79.4,62.0L78.7,63.9L78.7,64.4L79.4,65.2L80.3,65.8L87.4,71.2L87.8,71.4L88.5,72.0L88.3,72.4L88.0,72.4L86.2,71.2L85.3,70.4L84.8,70.1L84.3,69.6L79.8,66.5L79.1,65.8L78.6,65.6L77.9,64.9L77.9,64.0L78.2,63.4L78.2,63.0L80.3,56.9L80.3,56.6L80.6,56.1L81.3,53.7Z M79.1,53.2L79.6,53.2L79.4,54.4L78.5,56.7L78.2,58.0L77.7,59.1L77.6,59.8L77.5,60.0L76.9,61.6L76.0,64.7L76.0,65.4L76.6,66.1L79.3,67.9L80.2,68.8L81.3,69.3L85.5,72.7L85.9,72.8L86.5,73.5L86.3,73.9L85.2,73.4L83.6,72.2L82.9,71.5L76.2,66.6L75.2,65.7L75.2,64.8L75.8,63.5L76.4,61.2Z M39.9,53.1L40.1,53.3L41.4,57.2L41.4,57.6L41.6,57.8L43.0,61.8L43.0,62.3L41.5,63.7L37.0,66.8L36.0,67.7L35.4,68.0L35.1,68.3L34.7,68.2L34.7,67.8L35.3,67.2L41.6,62.6L42.1,61.9L41.9,60.9L40.0,55.3L39.8,54.1L39.5,53.5L39.6,53.1Z M37.3,53.1L37.7,53.5L38.4,55.9L38.7,56.3L39.0,57.6L40.2,60.9L40.2,61.5L38.6,62.9L37.4,63.7L34.9,65.7L34.3,66.0L33.5,66.6L32.7,66.9L32.6,66.5L33.0,66.1L34.4,65.1L36.1,63.7L38.1,62.4L39.4,61.2L39.3,60.3L38.5,58.3L38.1,56.7L37.9,56.3L37.9,55.8L37.7,55.6L37.6,55.0L37.1,54.0L37.0,53.4Z M27.6,53.1L28.1,53.9L29.4,57.4L29.4,58.1L28.6,58.9L25.8,60.9L25.1,61.2L24.9,60.9L25.1,60.6L27.7,58.7L28.3,58.0L28.4,57.7L28.4,56.9L27.3,53.5L27.4,53.1Z M20.5,53.1L20.8,53.6L21.1,54.3L21.3,55.5L20.9,56.0L19.5,57.0L19.0,56.9L19.2,56.4L20.4,55.3L20.5,54.7L20.1,53.4Z M89.0,53.0L89.3,53.1L89.2,54.1L88.7,55.1L88.5,56.1L86.8,61.2L86.8,61.8L87.5,62.8L93.5,67.0L94.3,67.9L94.1,68.1L93.3,67.9L92.5,67.2L92.0,66.9L87.7,63.8L87.5,63.5L86.9,63.1L85.9,62.1L86.0,61.3L86.2,61.1L86.5,59.8L87.5,57.1L87.5,56.6L88.7,53.3Z M86.7,53.0L86.9,53.5L85.4,57.8L85.0,59.6L84.5,60.6L84.1,62.6L85.4,64.0L89.4,66.8L89.9,67.0L91.0,68.1L91.7,68.5L92.4,69.2L92.3,69.5L92.0,69.6L88.8,67.4L87.4,66.2L85.0,64.6L83.5,63.4L83.2,62.9L83.3,62.0L84.0,60.5L84.0,60.1L86.0,54.2L86.1,53.6Z M49.4,53.1L49.8,53.6L50.4,55.6L50.9,56.8L51.8,59.9L52.9,63.1L52.9,63.5L53.3,64.2L53.6,65.8L53.4,66.2L52.6,66.9L48.4,69.8L47.6,70.6L47.0,70.9L43.1,73.9L42.5,74.0L42.3,73.9L42.3,73.6L48.2,69.0L49.9,68.0L52.3,66.1L52.8,65.5L52.8,64.8L52.1,62.8L51.8,62.3L51.8,61.9L49.0,53.6L49.0,53.2Z M46.9,53.0L47.4,53.6L49.5,59.8L49.7,60.9L50.4,63.1L50.4,63.5L50.2,63.5L49.7,62.9L49.6,62.2L49.0,61.0L48.6,59.4L46.7,53.9L46.6,53.3Z M44.6,53.0L44.9,53.3L45.4,54.3L45.5,55.2L46.2,56.8L47.5,60.9L47.5,61.4L47.9,61.9L48.3,63.4L48.3,64.1L47.7,64.9L42.4,68.7L39.9,70.6L39.7,70.6L39.2,71.1L38.4,71.1L38.3,70.8L38.7,70.4L46.8,64.6L47.5,63.8L47.5,63.2L47.0,62.0L46.9,61.3L46.5,60.5L45.5,57.3L45.3,56.3L45.0,55.8L44.6,54.2L44.3,53.7L44.4,53.0Z M34.9,52.9L35.4,53.7L35.6,54.8L35.9,55.3L37.2,59.1L37.5,60.6L36.7,61.5L34.2,63.2L33.9,63.6L32.7,64.3L31.8,65.1L31.1,65.5L30.7,65.4L30.7,65.0L31.1,64.6L34.4,62.3L36.2,60.9L36.6,60.4L36.6,59.6L34.5,53.6L34.6,53.0Z M30.0,52.9L30.3,53.2L30.5,54.0L30.9,54.9L31.0,55.7L31.7,57.0L32.1,58.8L31.8,59.2L29.0,61.5L28.4,61.7L27.7,62.4L26.9,62.7L26.8,62.2L28.2,61.0L30.0,59.8L30.9,59.0L31.1,58.6L30.9,57.1L29.6,53.5L29.6,53.1Z M25.2,52.9L25.6,53.4L26.3,55.3L26.7,56.7L26.7,57.3L26.4,57.7L24.2,59.3L23.6,59.6L23.0,59.5L23.0,59.3L23.6,58.7L25.1,57.7L25.7,56.8L25.7,56.0L24.8,53.5L24.8,53.1Z M77.2,52.9L77.2,53.7L76.4,55.9L76.1,57.2L75.8,57.7L75.2,59.9L73.5,64.9L73.4,66.3L74.2,67.1L77.4,69.3L80.5,71.8L82.6,73.2L84.7,74.9L84.6,75.4L83.9,75.3L74.1,67.9L73.6,67.7L72.6,66.6L72.6,65.8L73.1,64.4L73.1,64.0L74.8,59.2L75.2,57.3L75.5,56.9L75.5,56.6L76.4,54.1L76.6,53.2Z M57.8,52.8L58.8,53.6L58.3,53.8L57.7,53.2Z M51.7,52.8L51.9,53.0L52.9,55.6L52.9,56.4L53.1,56.6L53.5,58.2L54.8,61.5L55.5,64.1L56.3,66.0L56.3,66.7L55.4,67.6L52.9,69.3L51.4,70.6L50.9,70.8L49.2,72.0L49.0,72.3L47.5,73.5L45.6,74.6L44.7,75.5L44.3,75.5L44.1,75.3L44.1,75.0L44.6,74.5L45.1,74.3L46.2,73.3L47.1,72.8L47.6,72.3L50.0,70.7L50.9,69.8L51.4,69.6L52.5,68.7L53.6,68.0L54.9,66.9L55.4,66.3L55.4,65.7L54.2,62.8L53.4,60.4L53.2,59.2L52.9,58.4L52.9,58.0L51.9,55.1L51.6,54.6L51.5,53.8L51.3,53.5L51.4,52.8Z M32.4,52.8L33.0,53.7L33.1,54.5L33.9,56.4L34.0,57.0L34.8,59.1L34.8,59.8L33.8,60.8L30.6,63.1L30.0,63.7L29.2,64.1L28.7,64.1L28.5,63.8L28.9,63.4L32.9,60.6L33.8,59.7L34.0,59.2L33.5,57.5L33.1,56.7L33.1,56.1L32.0,53.4L32.1,52.8Z M57.0,52.2L57.2,52.4L56.9,52.6Z M52.7,51.9L53.8,52.5L55.2,53.7L55.5,53.8L56.6,54.8L57.0,54.9L58.6,56.0L59.1,56.5L61.7,58.2L62.8,59.1L63.9,59.8L65.1,59.7L68.4,57.2L68.9,57.0L70.7,55.5L72.6,54.3L73.6,53.4L75.6,51.9L76.0,52.0L76.0,52.2L75.4,52.9L73.6,54.1L71.2,56.1L67.1,59.0L66.2,59.7L65.7,59.9L64.8,60.7L64.1,60.7L62.4,59.3L62.0,59.2L60.4,58.1L60.3,57.8L59.6,57.5L58.6,56.6L55.4,54.3L54.8,54.1L53.0,52.5L52.7,52.4Z M73.9,51.0L73.5,51.5L72.6,51.9L72.4,52.3L70.9,53.4L70.7,53.4L69.0,54.8L67.8,55.5L67.5,56.0L67.0,56.2L65.1,57.7L64.2,57.8L63.7,57.6L63.5,57.1L65.1,57.0L66.7,55.9L66.9,55.6L68.0,54.9L69.0,54.1L70.3,53.3L70.6,52.9L71.0,52.7L71.8,51.9L72.5,51.6L73.4,50.8Z M74.6,50.6L73.9,50.7L74.3,50.3Z M54.0,50.2L54.5,50.3L55.3,51.1L55.6,51.2L55.7,51.5L55.5,51.6L55.3,51.6L55.0,51.2L54.1,50.8L53.9,50.6Z M53.9,47.6L54.3,47.4L55.2,47.9L60.3,51.8L61.4,52.4L62.3,53.2L64.0,54.3L64.8,54.3L65.7,53.8L73.4,48.0L74.1,47.6L74.3,47.6L74.5,48.0L72.6,49.6L71.2,50.4L71.0,50.7L68.2,52.8L67.1,53.5L66.0,54.4L65.6,54.5L64.9,55.1L64.1,55.2L63.0,54.6L58.6,51.3L58.2,51.2L56.2,49.5L55.6,49.2L54.5,48.4Z M54.9,45.6L55.0,45.3L55.4,45.3L57.2,46.7L57.7,46.8L58.5,47.7L59.9,48.5L60.9,49.3L61.5,49.6L62.1,50.2L64.0,51.5L65.0,51.4L73.1,45.4L73.6,45.4L73.8,45.7L72.5,46.8L71.7,47.2L71.5,47.5L68.1,49.8L65.5,51.8L64.8,52.3L64.0,52.3L58.4,48.4L58.1,48.0L57.3,47.6Z M55.4,43.0L55.5,42.8L55.8,42.8L56.5,43.2L63.9,48.6L64.5,48.6L65.2,48.2L68.5,45.9L69.0,45.4L70.8,44.2L72.0,43.3L72.8,43.1L72.8,43.5L71.9,44.3L69.6,45.9L67.1,47.9L64.7,49.5L64.2,49.6L55.9,43.8Z M56.3,40.8L56.6,40.5L57.0,40.6L63.9,45.6L64.7,45.6L65.4,45.2L67.4,43.7L67.7,43.6L68.6,42.8L69.1,42.6L71.1,41.0L71.9,40.7L72.1,41.0L70.7,42.1L69.0,43.4L68.8,43.4L65.6,45.9L64.6,46.6L64.1,46.6L62.8,45.8L61.9,45.0L58.6,42.8L57.0,41.6Z M57.0,38.3L57.2,38.1L57.8,38.3L59.8,39.8L62.4,41.6L63.5,42.5L64.0,42.7L65.0,42.5L70.6,38.4L71.4,38.3L71.4,38.7L65.5,43.1L64.8,43.6L64.0,43.7L57.8,39.3L57.0,38.5Z M70.5,36.0L70.5,36.3L69.9,36.9L69.7,36.9L65.8,39.9L64.6,40.7L63.9,40.7L63.5,40.5L62.7,39.7L62.0,39.4L58.6,36.9L58.0,36.3L58.1,36.0L58.5,36.0L63.9,39.8L64.5,39.8L65.2,39.5L65.9,38.9L66.7,38.5L67.6,37.6L69.9,36.0Z M58.7,34.0L58.9,33.6L59.5,33.8L63.7,36.8L64.5,37.0L65.2,36.8L66.4,35.7L68.0,34.6L68.5,34.2L68.9,34.1L69.4,33.7L69.7,33.8L69.6,34.2L66.2,36.8L65.7,36.9L65.2,37.5L64.4,37.9L63.1,37.3Z M59.3,31.6L59.4,31.2L60.1,31.4L63.6,34.1L64.3,34.2L65.0,33.9L67.1,32.4L68.3,31.4L68.7,31.2L69.2,31.3L69.2,31.6L68.6,32.1L64.5,35.1L64.0,35.1L63.2,34.6L63.0,34.4L62.0,33.7L61.4,33.1L60.3,32.4Z M68.3,29.3L67.9,29.8L67.5,30.0L65.1,31.9L64.4,32.2L63.7,32.1L61.7,30.5L61.3,30.4L60.3,29.6L60.4,29.3L60.8,29.3L63.8,31.4L64.6,31.4L67.9,29.0Z M60.8,26.9L61.2,26.9L62.4,27.4L63.2,28.2L64.0,28.6L65.2,28.2L67.0,26.9L67.3,26.9L67.3,27.2L65.2,29.0L64.5,29.4L63.8,29.4L61.3,27.6L60.8,27.1Z M66.7,24.8L64.7,26.6L63.9,26.7L62.4,25.6L61.7,24.6L62.1,24.5L63.9,25.7L64.5,25.7L65.0,25.5L65.4,25.0L66.4,24.5L66.7,24.5Z M62.4,22.2L62.9,22.2L64.1,22.9L64.5,22.9L65.6,22.1L65.9,22.2L65.9,22.5L65.5,23.0L64.5,23.7L63.8,23.7L62.4,22.6Z M65.1,20.2L65.1,20.4L64.4,20.9L63.9,20.9L63.4,20.5L63.7,20.2Z" fill="#000" fill-rule="evenodd"/>
</svg>