<svg xmlns="http://www.w3.org/2000/svg" viewBox="0 0 128 128" width="128" height="128">
  <path d="M11.0,9.5L10.7,10.1L10.6,15.2L10.7,21.4L10.7,26.1L10.8,37.8L10.7,46.8L10.8,61.2L10.7,77.3L10.9,83.4L10.8,106.0L10.9,117.9L11.1,118.2L12.0,118.5L23.5,118.4L42.2,118.6L42.6,118.3L42.6,118.0L42.1,117.5L35.6,112.6L35.4,112.0L38.7,111.8L56.1,111.8L56.7,111.6L57.3,110.8L57.8,109.1L58.0,108.2L58.9,105.6L59.0,104.8L60.1,101.6L60.1,101.2L60.3,101.0L61.1,98.3L61.5,97.3L61.7,96.2L62.1,95.4L62.1,95.0L63.1,92.2L63.5,90.7L63.7,90.5L64.0,90.5L64.3,90.8L66.1,96.1L66.4,97.3L66.6,97.5L67.8,101.6L68.1,102.3L68.3,103.4L68.6,103.9L68.7,104.5L69.2,105.6L69.2,106.3L69.7,107.4L70.6,110.7L70.9,111.2L71.4,111.7L92.2,111.9L92.6,112.1L92.6,112.3L92.1,112.9L91.8,113.0L89.9,114.7L89.3,114.9L85.3,118.1L85.4,118.6L85.7,118.6L101.1,118.8L108.3,118.7L113.7,118.9L117.3,118.8L117.5,118.4L117.3,116.7L117.6,116.0L117.5,114.4L117.7,113.3L117.7,112.4L117.4,111.5L117.5,107.1L117.3,98.8L117.3,46.5L117.4,43.8L117.7,43.3L117.4,42.6L117.3,40.1L117.3,9.8L116.9,9.5L97.0,9.5L76.5,9.8L76.0,10.1L76.1,10.9L78.0,16.5L78.2,17.6L78.5,18.4L79.2,20.8L79.6,21.4L80.3,24.2L81.0,26.1L81.1,27.0L81.9,29.2L81.7,29.6L81.0,29.5L79.2,28.0L74.7,25.0L68.8,20.4L67.9,19.9L66.8,19.0L64.2,17.2L63.8,17.2L63.1,17.6L56.2,22.9L50.9,26.7L49.3,28.0L47.1,29.5L46.5,29.6L46.4,29.2L46.7,28.0L47.6,25.6L48.2,23.3L48.5,22.5L48.7,21.4L49.1,20.7L49.4,19.4L49.7,18.9L49.8,17.9L50.1,17.4L50.8,15.3L50.9,14.5L51.9,11.6L51.9,11.1L52.2,10.4L52.2,10.1L51.9,9.7L43.2,9.7L38.8,9.5L23.0,9.5L12.0,9.4Z M104.3,105.3L104.7,104.7L105.2,104.5L110.1,104.5L110.9,104.8L111.5,105.4L112.0,106.8L112.0,107.6L111.5,109.1L110.8,109.9L110.5,110.0L106.0,110.0L104.7,109.7L104.3,109.2L103.8,107.8L103.8,106.7Z M24.8,105.3L25.0,106.4L25.0,108.2L24.3,109.4L23.7,109.8L18.3,109.8L17.8,109.6L17.1,108.7L16.8,107.5L16.8,106.9L17.2,105.3L18.1,104.5L18.8,104.3L23.7,104.3L24.3,104.6Z M104.1,90.4L104.5,89.9L105.1,89.7L110.2,89.7L110.8,89.9L111.5,90.8L111.7,92.3L111.7,93.1L111.1,94.6L110.6,95.2L109.8,95.3L105.3,95.2L104.6,95.1L104.0,94.3L103.6,92.8L103.6,92.0Z M17.3,90.5L18.0,90.0L19.0,89.8L23.2,89.7L24.2,89.9L24.9,90.8L25.0,91.6L25.0,93.1L24.7,94.3L24.4,94.8L23.7,95.3L18.5,95.3L17.8,95.2L17.2,94.6L16.8,93.2L16.9,91.5Z M17.2,75.8L17.8,75.3L18.8,75.1L23.4,75.1L24.2,75.3L24.7,75.8L25.1,77.5L25.0,78.5L24.6,79.8L24.1,80.4L23.7,80.7L18.1,80.7L17.7,80.5L17.1,79.6L16.7,78.2L16.8,77.0Z M104.2,75.6L104.7,75.0L105.1,74.9L110.8,75.0L111.1,75.5L111.6,76.7L111.6,78.3L111.2,79.4L110.9,79.8L110.3,80.3L107.0,80.4L104.6,80.2L104.0,79.5L103.6,78.3L103.8,76.3Z M16.9,61.7L17.6,60.8L18.2,60.6L23.6,60.5L24.4,61.2L24.9,62.2L25.0,63.7L24.8,64.5L24.2,65.6L23.9,65.9L23.0,66.2L19.0,66.2L17.7,65.9L17.2,65.3L16.7,64.2L16.7,62.5Z M111.1,61.0L111.5,61.9L111.6,63.8L111.2,64.8L110.8,65.4L110.3,65.6L105.0,65.6L104.7,65.5L104.0,64.7L103.6,63.2L103.8,61.8L104.2,61.0L104.9,60.3L110.0,60.2L110.7,60.5Z M16.9,46.9L17.9,45.8L23.7,45.8L24.5,46.5L24.9,47.4L25.0,49.6L24.2,51.0L23.4,51.4L18.0,51.4L17.2,50.9L16.6,49.6L16.6,47.6Z M104.0,46.3L104.5,45.8L104.8,45.7L110.6,45.8L111.0,46.2L111.6,47.7L111.6,49.0L111.1,50.3L110.6,50.9L109.7,51.0L104.6,51.0L104.1,50.4L103.6,49.1L103.5,47.4Z M63.8,32.4L64.0,32.4L64.2,32.7L65.1,35.5L65.6,36.7L65.7,37.4L66.6,39.6L67.9,44.2L68.4,45.5L68.4,45.8L68.6,46.1L69.4,49.2L69.9,50.2L70.5,52.5L71.1,53.4L92.0,53.6L92.1,53.9L89.7,56.0L88.7,56.6L84.5,60.0L84.0,60.1L80.9,62.6L79.6,63.4L76.8,65.7L76.2,66.0L75.4,66.8L75.4,67.7L75.6,68.4L75.8,68.9L76.5,71.4L76.9,72.2L77.0,73.0L77.5,74.3L78.0,76.1L78.4,77.2L79.7,81.5L79.7,81.9L80.4,83.8L80.7,84.3L81.0,86.0L81.6,87.4L81.6,87.9L81.4,88.1L81.0,88.1L79.9,87.4L76.9,84.9L75.3,83.9L70.7,80.5L68.7,78.8L64.1,75.6L63.2,75.7L60.0,78.3L59.0,78.8L58.5,79.4L50.6,85.1L49.7,85.9L47.0,87.8L46.6,87.9L46.4,87.7L46.5,86.9L46.7,86.7L46.8,86.0L47.9,82.9L48.0,82.1L48.3,81.6L48.4,80.7L48.9,79.6L49.6,77.0L49.9,76.2L50.1,75.3L51.2,72.1L51.9,69.5L52.6,67.5L52.6,67.1L52.2,66.6L51.1,65.9L50.6,65.3L46.1,62.2L42.8,59.6L41.6,58.8L41.4,58.6L35.4,54.1L35.4,53.9L35.7,53.6L36.6,53.6L55.3,53.6L56.7,53.4L57.3,52.5L58.1,49.7L58.8,47.7L58.9,47.1L59.5,45.7L59.6,44.9L61.0,40.8L62.0,37.2L62.9,34.8L63.1,33.7L63.5,32.7Z M24.5,32.0L24.9,33.4L24.8,34.9L24.2,36.1L23.4,36.7L18.0,36.7L17.5,36.6L17.0,36.0L16.6,35.3L16.6,32.8L17.1,31.7L17.7,31.2L23.2,31.0L23.8,31.3Z M110.9,31.5L111.5,32.6L111.6,34.5L111.1,35.7L110.6,36.3L110.1,36.5L105.1,36.4L104.3,36.2L104.0,35.6L103.5,34.1L103.5,33.4L103.9,32.1L104.6,31.2L105.3,31.0L109.6,30.9L110.5,31.1Z M104.0,17.2L104.6,16.4L105.1,16.3L110.5,16.4L111.1,17.0L111.2,17.6L111.6,18.5L111.5,20.3L111.1,21.1L110.6,21.6L110.1,21.8L104.7,21.7L104.1,21.1L103.5,19.3L103.5,18.5Z M16.8,17.1L17.3,16.5L17.9,16.3L23.6,16.4L24.2,17.1L24.7,18.5L24.6,19.7L24.2,21.0L23.5,21.9L22.9,22.0L20.0,22.0L17.5,21.8L16.7,20.9L16.3,19.5L16.3,18.5Z" fill="#000" fill-rule="evenodd"/>
</svg>