<svg xmlns="http://www.w3.org/2000/svg" viewBox="0 0 128 128" width="128" height="128">
  <path d="M8.3,105.8L8.3,105.9L8.4,106.0L13.0,106.0L14.2,106.1L14.6,106.1L15.9,106.1L16.4,106.1L17.6,106.1L17.8,106.0L18.2,106.0L18.4,106.1L19.1,106.0L21.0,106.0L21.6,106.1L24.7,106.0L25.3,106.1L25.6,106.1L31.6,106.1L33.0,106.1L37.0,106.1L38.9,106.1L39.6,106.1L44.8,106.1L45.5,106.0L52.8,106.0L55.0,106.1L57.5,106.0L60.4,106.0L60.9,106.1L66.1,106.0L79.5,106.0L83.6,106.1L91.0,106.1L92.5,106.1L94.7,106.1L97.2,106.1L100.6,106.1L104.7,106.2L110.7,106.1L113.6,106.2L118.5,106.2L119.6,106.3L119.7,106.2L119.9,106.1L119.8,105.6L119.7,105.3L118.1,103.6L117.3,102.9L116.6,102.2L115.6,101.2L115.3,101.0L114.9,100.6L114.7,100.5L114.0,99.8L110.3,96.7L109.9,96.4L108.8,95.6L108.5,95.4L107.8,94.9L107.6,94.8L106.7,94.1L106.1,93.8L105.1,93.1L104.9,93.0L104.3,92.6L103.4,92.1L103.3,91.9L102.3,91.4L101.9,91.2L101.4,90.9L101.3,90.8L100.6,90.4L100.1,90.1L99.3,89.7L99.0,89.6L98.8,89.4L98.4,89.2L98.1,89.0L97.7,88.9L97.6,88.8L97.2,88.6L97.0,88.6L96.7,88.4L96.0,88.1L95.3,87.8L95.0,87.7L94.5,87.4L94.3,87.4L94.2,87.3L93.8,87.2L93.6,87.1L92.3,86.5L92.1,86.5L91.2,86.1L90.4,85.8L89.8,85.5L89.2,85.4L89.0,85.3L88.2,85.1L87.6,84.8L87.1,84.7L86.9,84.6L86.2,84.4L85.7,84.3L85.5,84.2L85.1,84.1L84.8,84.0L84.4,83.9L84.1,83.8L83.7,83.8L83.4,83.6L81.5,83.3L81.0,83.1L80.5,83.0L80.0,82.9L79.6,82.8L79.1,82.7L78.4,82.6L77.2,82.3L77.0,82.3L76.0,82.2L75.4,82.1L74.8,81.9L74.4,81.9L73.4,81.8L72.1,81.7L71.6,81.6L69.2,81.5L69.0,81.4L67.8,81.4L66.6,81.5L65.6,81.4L61.1,81.5L60.8,81.5L59.8,81.5L58.6,81.7L58.1,81.7L57.2,81.8L56.3,81.9L55.6,81.9L55.0,82.0L54.9,82.1L54.1,82.2L53.9,82.2L53.4,82.2L53.0,82.4L52.5,82.5L51.9,82.5L51.3,82.7L50.2,82.8L49.7,82.9L49.5,82.9L49.0,83.1L48.8,83.1L48.5,83.2L48.1,83.3L47.9,83.4L47.2,83.5L46.6,83.6L45.9,83.8L45.5,83.9L43.9,84.3L43.5,84.4L42.3,84.8L41.9,84.9L41.7,85.0L40.7,85.2L40.1,85.5L39.9,85.5L39.7,85.6L39.2,85.8L39.1,85.8L38.9,85.9L38.3,86.2L37.9,86.3L37.4,86.5L37.0,86.6L36.5,86.8L35.8,87.0L34.6,87.6L33.7,87.9L32.1,88.8L31.6,88.9L31.4,89.1L29.2,90.1L29.1,90.3L28.9,90.3L28.4,90.6L28.3,90.6L27.8,90.9L27.5,91.0L26.5,91.7L25.9,91.9L25.4,92.3L24.8,92.5L23.7,93.3L23.3,93.5L22.8,93.8L22.0,94.4L20.6,95.2L20.0,95.8L19.4,96.1L18.5,96.8L17.6,97.4L16.9,98.0L16.4,98.3L15.2,99.4L14.7,99.6L14.3,100.1L13.9,100.3L13.4,100.8L12.6,101.5L11.9,102.1L11.8,102.2L11.0,103.0L10.6,103.3L10.0,103.9L9.8,104.1L9.2,104.8L9.1,104.9L8.6,105.3Z M115.8,105.4L115.7,105.5L115.7,105.6L115.4,105.6L114.7,105.4L113.6,105.3L112.0,105.0L110.8,105.0L109.5,104.8L108.5,104.7L107.7,104.5L106.6,104.5L105.9,104.4L104.7,104.3L104.5,104.2L103.4,104.2L102.9,104.1L102.4,104.1L101.8,104.0L100.4,103.9L99.8,103.8L98.8,103.8L98.4,103.7L97.6,103.6L97.0,103.6L95.8,103.5L94.2,103.4L93.6,103.4L92.1,103.2L91.5,103.2L90.6,103.1L89.8,103.0L88.0,103.0L86.5,102.8L85.6,102.8L85.4,102.7L84.2,102.7L83.9,102.7L80.2,102.6L79.5,102.5L78.7,102.6L77.8,102.5L77.4,102.5L74.8,102.4L74.3,102.4L71.7,102.4L69.9,102.3L68.6,102.4L68.4,102.3L60.5,102.3L58.8,102.4L57.8,102.4L57.2,102.4L54.7,102.5L49.9,102.5L49.3,102.6L47.3,102.6L47.1,102.6L45.8,102.6L44.8,102.7L43.6,102.7L43.2,102.8L42.6,102.8L42.3,102.8L40.7,102.9L39.8,103.0L38.9,103.0L37.6,103.1L36.9,103.2L36.3,103.2L35.6,103.3L34.5,103.3L33.9,103.4L32.8,103.4L32.7,103.5L31.5,103.5L30.2,103.6L26.4,103.9L26.1,103.9L25.4,104.0L25.1,104.1L24.6,104.1L23.8,104.1L23.1,104.2L22.4,104.2L21.7,104.3L21.0,104.4L19.9,104.5L19.1,104.5L18.3,104.7L17.4,104.7L16.6,104.8L15.8,104.9L15.3,105.0L13.8,105.0L13.3,105.1L12.7,105.1L12.7,105.0L12.9,104.9L13.6,104.8L14.3,104.5L14.9,104.3L15.1,104.3L15.5,104.2L15.7,104.2L16.1,104.1L16.4,104.0L16.7,103.9L17.1,103.8L17.5,103.7L17.6,103.7L18.1,103.6L18.4,103.5L18.8,103.4L19.3,103.3L19.6,103.2L20.0,103.2L20.5,103.0L21.3,102.9L21.7,102.8L22.0,102.7L22.7,102.6L23.5,102.5L23.9,102.4L24.0,102.4L25.1,102.1L25.8,102.0L26.0,102.0L26.6,101.9L27.7,101.7L29.7,101.4L29.9,101.3L30.4,101.2L30.7,101.2L30.9,101.2L31.3,101.1L31.7,101.0L32.5,100.9L33.0,100.8L33.7,100.8L34.3,100.7L34.9,100.6L35.6,100.5L36.0,100.4L36.7,100.4L36.8,100.3L37.4,100.3L38.0,100.1L38.9,100.1L39.4,99.9L40.0,99.9L40.7,99.8L41.1,99.8L41.3,99.7L41.8,99.7L42.0,99.6L42.7,99.6L44.3,99.4L46.0,99.3L46.6,99.2L47.6,99.2L48.1,99.1L49.4,99.1L50.1,98.9L50.9,98.9L51.4,98.8L54.1,98.8L54.8,98.7L55.6,98.7L56.2,98.6L57.6,98.6L58.8,98.5L64.4,98.5L64.9,98.6L65.6,98.6L66.3,98.5L66.7,98.5L68.9,98.5L70.0,98.6L71.8,98.6L72.0,98.7L73.3,98.7L74.3,98.8L76.0,98.8L76.3,98.9L77.2,98.9L78.0,99.0L79.4,99.0L80.8,99.2L82.2,99.3L83.8,99.5L84.2,99.5L84.4,99.5L84.9,99.5L85.3,99.6L86.1,99.6L86.2,99.7L87.4,99.8L89.3,100.1L90.1,100.1L90.8,100.3L91.5,100.3L91.7,100.4L92.3,100.4L92.9,100.6L93.8,100.6L94.3,100.7L96.3,101.0L96.4,101.1L97.2,101.2L97.7,101.3L98.0,101.3L99.8,101.6L101.0,101.8L101.3,101.8L101.6,101.9L102.4,102.0L102.7,102.1L103.1,102.2L104.1,102.4L104.5,102.4L105.4,102.7L105.9,102.7L106.8,103.0L107.4,103.0L107.9,103.2L108.3,103.2L108.8,103.4L110.4,103.8L110.8,103.9L111.1,103.9L111.2,104.0L112.5,104.3L112.6,104.4L113.0,104.4L114.6,105.0L114.9,105.0L115.6,105.3Z M11.1,103.9L11.3,103.7L11.8,103.5L12.2,103.1L12.5,102.9L12.6,102.8L13.0,102.6L13.4,102.3L14.1,101.9L14.7,101.6L16.7,100.3L17.2,100.1L18.0,99.6L18.3,99.5L18.6,99.3L19.6,98.8L20.4,98.4L20.6,98.3L20.9,98.1L22.5,97.4L23.1,97.1L24.4,96.5L24.7,96.4L25.5,96.0L25.8,95.9L26.2,95.7L26.3,95.7L27.2,95.4L27.5,95.2L28.2,94.9L29.2,94.5L30.0,94.2L30.5,94.0L31.1,93.8L31.9,93.5L32.3,93.4L33.5,92.9L34.7,92.6L34.9,92.5L36.0,92.1L36.1,92.1L36.5,92.0L36.7,92.0L37.1,91.8L39.1,91.3L39.7,91.0L40.1,91.0L40.7,90.8L41.5,90.6L41.7,90.5L42.1,90.5L42.5,90.4L43.0,90.3L43.4,90.2L44.0,90.1L44.7,89.9L45.0,89.9L45.5,89.7L46.5,89.6L46.9,89.4L47.5,89.4L47.6,89.3L48.1,89.3L48.4,89.2L50.3,88.9L51.4,88.7L52.4,88.6L53.4,88.4L54.1,88.4L54.5,88.3L54.8,88.3L55.4,88.2L56.0,88.2L56.7,88.2L57.0,88.1L57.9,88.0L58.6,88.0L59.3,87.9L59.7,88.0L60.3,87.9L60.8,87.9L61.1,87.8L62.1,87.9L62.7,87.8L63.4,87.9L68.5,87.8L70.3,87.9L70.5,87.9L71.4,88.0L72.0,88.1L73.2,88.1L74.4,88.3L75.3,88.3L75.9,88.4L77.3,88.5L77.8,88.6L78.6,88.7L78.8,88.8L80.0,88.9L80.7,89.1L81.1,89.1L81.8,89.3L83.2,89.5L83.6,89.6L84.2,89.7L84.4,89.8L85.0,89.9L85.4,90.0L85.7,90.0L86.6,90.3L87.3,90.4L87.7,90.5L88.2,90.6L88.3,90.7L88.9,90.8L89.8,91.1L90.1,91.1L90.4,91.3L90.9,91.3L91.8,91.7L92.8,91.9L93.8,92.2L94.0,92.3L94.5,92.5L95.0,92.6L95.2,92.7L96.6,93.1L96.9,93.3L97.4,93.4L98.0,93.7L98.4,93.8L99.0,94.1L102.1,95.3L103.7,96.0L103.8,96.0L104.5,96.5L105.6,96.9L105.9,97.1L106.5,97.4L106.9,97.5L107.4,97.9L107.9,98.1L108.2,98.3L109.0,98.6L110.9,99.7L111.1,99.8L111.5,100.1L112.3,100.5L113.4,101.2L113.8,101.3L114.0,101.5L115.5,102.5L116.8,103.6L117.1,103.8L117.6,104.3L118.5,105.0L118.7,105.2L118.7,105.2L118.6,105.3L118.4,105.3L117.9,105.0L117.6,104.9L117.4,104.8L117.1,104.7L116.3,104.2L115.5,104.0L114.9,103.7L114.2,103.5L113.9,103.3L113.8,103.3L113.6,103.2L113.3,103.2L112.9,103.0L112.8,102.9L112.6,102.8L112.4,102.8L111.3,102.3L110.3,102.0L110.0,101.9L108.5,101.4L108.1,101.2L107.7,101.1L107.0,100.8L106.7,100.7L106.4,100.6L105.6,100.4L104.9,100.1L104.5,100.0L104.3,99.9L103.9,99.9L103.6,99.7L103.4,99.7L103.2,99.6L102.7,99.5L102.6,99.4L102.3,99.4L102.0,99.2L101.1,99.0L101.0,98.9L100.5,98.8L100.0,98.7L99.6,98.6L99.0,98.3L97.7,98.1L97.1,97.9L96.8,97.8L96.0,97.6L95.2,97.4L93.6,97.0L93.4,97.0L92.7,96.8L92.4,96.8L92.2,96.7L91.5,96.6L91.2,96.5L90.6,96.4L89.5,96.2L88.9,96.0L88.1,95.9L87.7,95.8L87.2,95.7L86.5,95.6L86.0,95.5L84.4,95.3L84.0,95.2L82.6,95.0L81.8,94.8L80.7,94.7L80.4,94.6L80.1,94.6L79.9,94.6L79.2,94.6L78.3,94.4L77.9,94.4L76.8,94.2L75.0,94.1L74.1,94.0L73.4,94.0L72.7,93.9L71.2,93.9L70.8,93.9L70.6,93.8L69.1,93.8L67.4,93.7L64.9,93.7L64.5,93.6L63.4,93.6L62.6,93.7L59.6,93.7L58.8,93.9L55.9,93.9L55.2,94.0L54.4,94.0L54.2,94.0L53.6,94.0L52.4,94.2L51.7,94.1L51.4,94.2L49.8,94.4L49.5,94.4L48.9,94.6L47.8,94.6L46.2,94.9L44.9,95.0L44.6,95.1L44.0,95.2L43.7,95.3L42.9,95.3L42.3,95.4L42.0,95.4L41.4,95.6L39.9,95.8L39.3,96.0L38.3,96.1L37.9,96.3L37.6,96.3L37.1,96.4L35.8,96.6L34.3,97.0L33.7,97.0L33.4,97.1L33.1,97.2L32.6,97.3L32.2,97.4L31.9,97.5L31.7,97.5L31.5,97.7L31.2,97.7L30.3,98.0L29.7,98.0L29.4,98.2L29.0,98.2L28.3,98.5L27.9,98.5L27.2,98.7L26.0,99.1L25.0,99.4L24.4,99.6L24.2,99.6L23.7,99.8L23.3,99.9L23.0,100.0L22.2,100.3L21.9,100.3L21.7,100.4L21.1,100.6L20.9,100.7L20.1,100.9L19.2,101.3L18.9,101.3L18.3,101.6L18.0,101.6L17.1,102.0L16.3,102.2L16.2,102.3L15.9,102.4L15.8,102.4L15.4,102.6L15.1,102.7L14.7,102.9L14.5,102.9L14.0,103.1L13.4,103.3L13.0,103.4L12.8,103.6L12.2,103.7L11.4,104.1L11.2,104.0Z M118.3,99.2L117.5,97.5L117.5,97.4L117.0,96.6L116.8,96.3L116.6,95.9L116.2,95.3L116.1,95.2L115.8,94.5L115.3,93.8L115.1,93.5L114.8,93.0L114.2,92.1L113.9,91.7L113.8,91.3L113.3,90.8L112.9,90.1L112.7,90.0L112.2,89.2L112.0,89.0L111.5,88.4L111.3,88.1L110.7,87.4L109.6,86.2L109.2,85.6L108.4,84.7L107.7,84.1L107.5,83.8L106.9,83.1L106.8,83.1L106.4,82.6L104.2,80.7L104.0,80.4L103.7,80.3L103.0,79.6L102.0,78.9L101.3,78.3L100.7,77.9L100.4,77.6L99.3,76.8L98.8,76.4L98.6,76.3L98.5,76.1L97.7,75.7L97.4,75.4L97.2,75.4L96.7,75.0L96.3,74.8L95.5,74.3L95.2,74.2L94.6,73.7L93.8,73.3L93.3,73.0L92.5,72.6L91.9,72.2L91.5,72.0L91.1,71.8L90.4,71.5L88.9,70.8L88.6,70.7L88.2,70.5L87.7,70.3L87.1,70.0L86.3,69.8L86.1,69.6L85.8,69.6L85.1,69.3L84.7,69.1L84.2,69.0L83.9,68.9L82.8,68.5L82.7,68.4L81.7,68.2L81.3,68.1L80.3,67.8L80.0,67.7L78.9,67.5L78.0,67.3L73.8,66.5L73.3,66.5L72.8,66.3L72.0,66.3L71.2,66.1L70.3,66.1L70.2,66.0L67.5,65.9L66.6,65.9L65.1,65.9L62.7,65.9L62.1,66.0L60.4,66.0L59.9,66.1L59.4,66.1L57.9,66.3L57.2,66.4L56.7,66.5L56.3,66.5L54.7,66.7L54.2,66.9L53.8,66.9L53.5,67.0L52.9,67.1L52.0,67.3L51.7,67.3L50.6,67.6L49.8,67.8L49.3,67.9L49.0,68.0L48.9,68.0L48.5,68.2L48.2,68.2L48.0,68.3L47.1,68.6L46.3,68.9L45.8,69.0L45.0,69.4L44.8,69.4L44.6,69.5L44.4,69.6L44.0,69.7L42.7,70.2L42.4,70.4L41.6,70.7L41.3,70.8L41.1,70.9L40.6,71.1L40.3,71.3L39.7,71.5L39.3,71.8L38.7,72.0L36.8,72.9L36.1,73.4L35.9,73.5L35.3,73.8L35.0,73.9L34.6,74.1L33.7,74.7L33.2,74.9L32.9,75.2L32.8,75.2L32.4,75.4L32.2,75.6L31.3,76.2L31.2,76.2L30.8,76.6L30.4,76.8L30.2,76.9L30.0,77.0L29.7,77.2L29.7,77.2L29.1,77.7L28.9,77.8L28.4,78.2L28.3,78.3L27.7,78.8L27.4,78.9L27.0,79.3L26.2,79.8L25.7,80.3L24.3,81.5L23.3,82.5L22.7,82.9L21.5,84.0L21.1,84.4L20.4,85.2L19.6,85.9L19.6,86.0L18.9,86.8L18.6,87.1L17.8,88.0L17.3,88.8L16.9,89.1L16.8,89.3L15.7,90.7L15.2,91.5L14.0,93.0L13.7,93.7L13.3,94.2L12.7,95.0L12.7,95.0L12.4,95.5L12.4,95.7L12.0,96.3L11.6,97.0L11.4,97.2L11.4,97.4L11.2,97.6L11.0,98.1L10.8,98.3L10.6,98.7L10.3,99.2L10.2,99.5L10.1,99.6L10.2,99.8L10.3,99.8L10.5,99.5L11.2,98.7L11.4,98.5L11.5,98.3L11.9,97.9L12.4,97.2L13.9,95.6L14.7,94.7L15.1,94.3L15.5,94.1L17.4,92.2L19.5,90.3L19.9,90.1L20.1,89.9L20.6,89.6L21.2,89.0L21.4,88.9L21.9,88.5L22.4,88.3L22.5,88.0L23.0,87.8L23.2,87.6L23.6,87.3L23.8,87.1L24.3,86.7L24.5,86.7L24.6,86.5L25.4,86.0L25.7,85.8L26.2,85.6L26.6,85.2L27.4,84.8L28.1,84.3L28.6,84.1L29.4,83.5L30.4,83.0L31.0,82.7L31.3,82.6L33.6,81.4L34.0,81.3L35.3,80.6L36.8,80.0L37.5,79.6L37.9,79.5L38.6,79.2L39.5,78.9L39.9,78.7L40.1,78.6L40.8,78.4L40.9,78.4L41.6,78.0L42.3,77.8L42.7,77.7L42.9,77.6L43.1,77.6L43.5,77.4L43.9,77.3L44.2,77.2L45.1,77.0L46.1,76.7L47.3,76.4L47.7,76.3L47.9,76.2L48.9,75.9L49.8,75.8L50.2,75.6L50.9,75.6L51.3,75.4L51.7,75.4L51.8,75.3L52.5,75.2L52.8,75.1L53.4,75.1L54.0,74.9L54.6,74.9L55.1,74.7L55.8,74.7L56.4,74.6L58.4,74.4L58.6,74.3L60.8,74.2L61.4,74.1L62.1,74.2L63.0,74.1L66.2,74.0L67.4,74.1L68.2,74.1L68.9,74.2L69.8,74.2L70.4,74.3L70.9,74.3L71.5,74.4L72.4,74.4L72.9,74.5L73.6,74.5L74.3,74.6L74.8,74.7L75.2,74.7L75.7,74.9L76.3,74.9L77.1,75.1L77.4,75.1L78.0,75.3L78.4,75.3L79.1,75.5L79.8,75.6L80.2,75.7L80.6,75.8L81.0,75.9L81.3,76.0L81.7,76.1L82.0,76.1L82.4,76.3L82.6,76.3L83.0,76.4L83.3,76.5L83.5,76.6L84.0,76.7L84.2,76.8L85.1,77.0L85.3,77.1L86.8,77.6L87.4,77.8L88.5,78.1L88.8,78.3L89.5,78.5L89.7,78.6L90.9,79.0L91.5,79.3L92.3,79.6L93.1,80.0L93.6,80.2L94.6,80.7L94.8,80.7L95.1,80.9L95.3,80.9L95.7,81.2L97.2,81.9L97.4,82.1L98.0,82.4L98.4,82.5L99.0,83.0L99.8,83.4L100.8,84.0L101.5,84.4L102.4,85.0L102.6,85.1L103.0,85.4L103.6,85.7L104.3,86.3L104.6,86.5L105.4,87.0L106.4,87.8L107.0,88.2L107.2,88.4L107.9,88.9L108.3,89.3L109.3,90.0L110.6,91.3L111.2,91.9L112.1,92.7L114.5,95.0L115.0,95.6L115.0,95.8L115.6,96.3L116.0,96.8L116.2,97.0L116.4,97.4L116.8,97.8L117.2,98.3L117.9,99.0L118.0,99.2L118.3,99.4L118.3,99.3Z M18.7,89.5L18.9,89.3L19.2,89.1L19.4,89.1L19.5,89.2L19.7,89.2L19.8,89.3L19.8,89.5L19.7,89.7L19.5,89.7L19.5,89.8L19.3,89.8L19.2,89.7L18.8,89.7L18.7,89.6Z M119.2,46.8L119.2,46.8L119.3,46.8L119.3,46.8Z M115.8,87.8L115.6,87.4L115.6,87.0L115.4,86.5L115.2,85.3L114.9,84.5L114.8,84.3L114.7,83.6L113.9,81.4L113.5,80.0L113.3,79.5L112.9,78.4L112.7,78.1L112.6,77.6L112.3,77.2L112.3,77.1L112.2,76.7L112.1,76.6L111.8,75.9L111.6,75.6L111.5,75.1L110.6,73.5L110.5,73.1L110.3,72.7L110.0,72.3L109.7,71.8L109.2,70.9L109.2,70.8L108.9,70.3L108.5,69.8L108.0,68.9L107.7,68.4L107.6,68.2L107.1,67.6L106.7,67.0L105.2,65.1L104.4,64.2L103.8,63.4L101.9,61.5L101.9,61.3L101.5,60.9L101.3,60.8L99.8,59.3L99.6,59.1L99.1,58.6L98.6,58.2L98.1,57.8L97.5,57.4L97.1,57.0L95.7,55.8L95.3,55.7L94.8,55.2L94.3,54.9L94.0,54.7L93.9,54.7L93.7,54.5L93.4,54.3L93.0,54.0L92.9,54.0L91.6,53.1L90.8,52.7L90.2,52.4L89.9,52.2L89.4,51.9L87.7,51.1L87.0,50.7L86.5,50.5L85.4,50.0L85.3,50.0L85.3,50.0L84.1,49.5L83.9,49.4L83.1,49.1L83.0,49.1L82.8,49.0L82.5,48.9L82.2,48.8L82.0,48.7L81.2,48.5L80.7,48.3L79.8,48.1L79.6,48.0L79.0,47.9L78.7,47.7L78.5,47.7L78.1,47.6L77.8,47.5L77.4,47.4L77.1,47.4L76.9,47.2L76.1,47.1L75.8,47.1L75.7,47.0L75.0,46.9L74.4,46.8L73.6,46.6L72.8,46.6L72.2,46.4L71.9,46.4L71.7,46.4L70.9,46.3L70.1,46.2L69.5,46.2L68.3,46.0L65.5,46.0L64.7,46.0L61.7,46.0L61.2,46.1L60.8,46.1L59.9,46.2L59.6,46.2L58.7,46.4L57.7,46.5L57.2,46.6L56.4,46.7L55.9,46.8L55.4,46.9L55.1,47.0L54.6,47.0L53.8,47.2L53.7,47.3L52.8,47.5L52.3,47.6L51.9,47.7L51.6,47.8L51.3,47.8L51.0,47.9L50.6,48.0L50.4,48.1L49.5,48.3L48.9,48.6L48.5,48.7L48.2,48.8L48.1,48.8L47.5,49.0L45.4,49.8L45.2,49.9L43.9,50.4L43.8,50.4L43.2,50.8L42.3,51.1L42.3,51.2L42.1,51.2L41.7,51.5L41.6,51.6L39.4,52.6L36.4,54.5L35.7,54.9L35.3,55.1L34.9,55.6L34.7,55.6L34.2,56.0L33.5,56.5L33.0,56.9L32.6,57.1L31.2,58.4L30.7,58.8L30.2,59.3L28.9,60.3L28.1,61.2L27.5,61.8L27.3,62.0L26.8,62.4L25.3,64.2L24.8,64.8L24.3,65.4L24.0,65.8L23.7,66.1L23.7,66.2L23.4,66.6L22.9,67.2L22.7,67.5L22.1,68.2L22.1,68.4L21.0,69.8L20.9,70.2L20.3,70.9L20.3,71.0L20.0,71.3L19.6,72.1L19.4,72.4L19.3,72.6L19.2,72.8L18.9,73.4L18.7,73.6L18.4,74.2L18.3,74.6L17.8,75.5L17.7,75.8L17.5,76.1L17.2,77.1L16.5,78.4L16.5,78.6L16.2,79.1L16.0,80.0L15.6,80.8L15.4,81.5L15.2,81.8L15.1,82.4L14.9,82.9L14.8,83.3L14.7,83.6L14.5,84.2L14.2,85.3L14.1,85.7L13.8,86.4L13.7,86.9L13.7,86.9L13.6,87.4L13.5,87.5L13.5,87.8L13.3,88.1L13.3,88.4L13.4,88.4L13.5,88.4L13.6,88.3L13.6,88.1L13.8,87.9L14.2,87.1L14.5,86.3L14.8,85.8L15.2,84.8L15.5,84.4L15.5,84.2L16.1,83.2L16.7,82.4L17.0,81.9L17.2,81.7L17.5,81.1L17.6,80.9L17.8,80.5L18.3,80.0L18.7,79.3L19.5,78.3L19.8,78.0L20.4,77.2L21.5,75.9L22.0,75.2L23.3,74.0L26.0,71.3L26.2,71.2L27.2,70.3L27.7,69.9L28.3,69.3L29.2,68.6L29.6,68.2L30.5,67.6L31.0,67.2L32.0,66.6L32.2,66.4L33.0,66.0L33.3,65.7L33.9,65.2L34.0,65.2L34.2,65.0L34.7,64.8L34.8,64.7L35.1,64.6L35.5,64.2L36.1,63.9L36.5,63.6L37.1,63.4L37.4,63.2L38.1,62.8L38.3,62.7L38.8,62.5L39.4,62.1L40.2,61.8L40.7,61.5L41.1,61.4L41.3,61.2L41.6,61.2L42.8,60.6L42.9,60.6L43.3,60.4L44.1,60.0L44.3,60.0L44.5,59.9L45.3,59.7L46.0,59.4L46.3,59.3L47.0,59.0L47.9,58.8L48.6,58.5L48.9,58.4L49.5,58.2L49.8,58.2L50.3,58.0L50.7,57.9L50.9,57.8L51.3,57.8L51.6,57.6L52.2,57.6L52.4,57.5L53.1,57.4L53.4,57.3L53.6,57.3L54.0,57.1L54.6,57.1L55.1,56.9L55.7,56.9L55.9,56.8L56.3,56.8L57.0,56.6L57.7,56.6L58.5,56.4L59.2,56.4L59.4,56.4L60.2,56.3L60.4,56.3L61.3,56.2L62.9,56.2L63.1,56.1L63.8,56.1L66.4,56.1L66.9,56.1L69.2,56.2L69.4,56.2L69.9,56.2L70.4,56.3L71.6,56.4L72.6,56.6L73.4,56.6L73.7,56.7L74.5,56.8L75.0,56.9L75.8,57.0L76.0,57.1L76.2,57.1L77.7,57.4L78.5,57.7L78.9,57.7L79.2,57.8L79.5,57.9L80.7,58.2L80.9,58.3L81.4,58.5L81.8,58.5L82.3,58.7L82.8,58.8L83.1,59.0L83.8,59.2L84.4,59.5L84.7,59.5L85.3,59.8L85.7,59.9L86.2,60.2L87.3,60.6L87.9,60.9L89.1,61.4L89.3,61.5L89.5,61.5L89.6,61.6L90.3,61.9L91.0,62.3L91.2,62.4L91.7,62.7L91.9,62.8L92.6,63.1L93.7,63.7L94.2,64.1L94.4,64.2L94.5,64.3L94.9,64.4L96.0,65.2L96.1,65.3L96.8,65.7L97.3,66.1L98.0,66.5L98.5,67.0L99.1,67.4L99.5,67.7L99.8,67.9L100.6,68.6L100.8,68.7L103.9,71.5L105.1,72.7L105.2,72.7L105.7,73.3L105.9,73.4L108.4,76.2L109.2,77.3L109.7,77.9L109.8,78.1L110.0,78.3L110.2,78.8L110.7,79.3L111.2,80.1L111.5,80.5L112.1,81.4L112.3,81.7L113.2,83.1L113.3,83.3L113.8,84.1L113.9,84.4L114.2,84.7L114.3,85.1L114.5,85.5L114.9,86.5L115.3,87.1L115.4,87.4L115.5,87.6L115.7,88.0L115.8,88.0Z M98.6,22.0L98.5,21.9L98.3,21.8L96.9,21.9L87.3,21.9L86.7,21.9L83.9,21.9L76.2,21.9L71.4,22.0L68.9,22.0L68.1,22.0L66.0,22.0L65.7,22.1L64.7,22.1L64.3,22.0L64.0,22.1L56.0,22.1L55.5,22.1L50.8,22.1L48.9,22.2L47.7,22.1L46.4,22.2L42.8,22.2L42.1,22.2L40.4,22.3L32.8,22.3L32.5,22.3L32.4,22.4L32.4,22.7L32.3,23.1L32.3,23.5L32.1,23.9L32.0,24.3L31.8,24.9L31.5,26.2L31.3,26.7L31.0,27.9L30.8,28.5L30.6,29.3L30.5,29.6L30.3,30.1L29.9,31.9L29.6,32.6L29.1,34.3L28.8,35.2L28.6,36.2L28.5,36.3L28.4,36.7L28.2,37.5L27.9,38.5L27.6,39.5L27.5,39.9L27.2,40.7L27.1,41.3L27.0,41.4L26.8,42.4L26.5,43.2L26.4,43.6L26.3,43.8L26.1,44.7L25.8,45.7L25.8,45.8L25.4,46.8L25.4,47.1L25.2,47.6L24.8,49.0L24.6,49.8L24.4,50.5L24.2,51.2L24.1,51.5L23.9,52.0L23.9,52.2L23.7,52.5L23.7,52.9L23.4,53.5L23.3,54.0L23.2,54.3L23.0,55.0L22.9,55.5L22.7,56.2L22.5,56.7L22.2,57.7L22.1,57.8L21.9,58.8L21.7,59.2L21.7,59.4L21.6,59.6L21.4,60.4L21.2,61.0L21.2,61.4L20.9,62.3L20.7,62.9L20.4,63.7L20.4,63.8L20.3,64.1L20.3,64.4L20.0,65.3L19.9,65.6L19.8,65.8L19.7,66.2L19.6,66.5L19.6,66.7L19.5,67.0L19.3,67.5L19.2,67.7L19.2,68.1L19.3,68.1L19.4,68.1L19.5,68.0L19.6,67.7L19.9,66.8L20.1,66.3L20.4,65.5L20.6,65.2L20.9,64.4L21.2,63.8L21.4,63.2L21.7,62.8L21.7,62.4L22.0,62.0L22.2,61.4L22.9,60.3L23.0,60.1L23.5,59.3L24.3,57.8L25.5,56.2L25.8,55.6L26.5,54.8L27.3,53.6L27.8,53.1L27.9,52.8L28.5,52.2L28.6,52.1L29.9,50.7L30.7,49.8L32.6,48.1L32.7,48.0L33.1,47.6L33.5,47.3L33.8,47.0L34.3,46.6L34.5,46.4L34.7,46.3L34.9,46.0L35.4,45.8L35.6,45.5L36.8,44.7L37.3,44.3L37.8,43.9L38.1,43.8L38.7,43.3L39.3,43.0L39.9,42.5L40.4,42.3L40.5,42.3L40.8,42.1L41.6,41.7L41.7,41.5L42.7,41.1L43.1,40.8L44.1,40.3L44.2,40.2L44.7,40.0L45.0,39.9L45.4,39.7L46.2,39.4L46.3,39.3L46.4,39.3L46.5,39.2L47.0,39.0L47.5,38.8L48.3,38.5L48.8,38.3L49.1,38.2L49.8,37.9L50.3,37.8L51.0,37.6L51.2,37.6L51.4,37.4L51.8,37.4L52.1,37.2L52.6,37.2L52.8,37.1L53.1,37.0L54.0,36.7L54.3,36.7L54.7,36.6L55.3,36.5L55.7,36.4L56.1,36.3L56.6,36.2L56.9,36.2L57.7,36.0L58.4,35.9L59.1,35.8L59.6,35.8L61.2,35.6L62.0,35.6L62.6,35.5L66.1,35.5L69.0,35.6L69.5,35.7L70.9,35.8L71.5,35.9L71.9,36.0L72.8,36.0L73.2,36.1L73.8,36.2L75.4,36.6L75.7,36.7L76.7,36.9L78.2,37.2L78.5,37.4L78.7,37.4L79.4,37.7L80.3,37.9L81.5,38.4L81.8,38.4L82.8,38.9L83.2,39.0L83.8,39.3L84.4,39.5L84.9,39.7L85.7,40.1L87.0,40.8L87.7,41.1L88.3,41.5L88.7,41.7L88.8,41.7L89.0,41.8L89.4,42.0L89.6,42.2L90.2,42.5L90.7,42.9L91.6,43.4L92.4,44.0L92.8,44.3L93.4,44.8L93.9,45.1L94.4,45.6L95.0,46.0L95.2,46.1L95.8,46.7L97.1,47.8L97.3,47.9L99.5,50.2L100.7,51.6L101.5,52.4L101.9,53.0L102.5,53.6L103.5,54.9L104.2,56.1L104.7,56.6L105.1,57.4L105.3,57.6L105.9,58.5L106.1,59.0L106.5,59.5L106.7,60.2L107.1,60.7L107.2,61.0L107.9,62.3L108.1,62.9L108.3,63.0L108.8,64.3L108.9,64.4L109.2,65.3L109.5,65.9L109.8,66.7L110.0,67.2L110.1,67.5L110.4,68.0L110.5,68.1L110.5,68.1L110.6,67.9L110.5,67.4L110.2,66.6L110.2,66.3L109.8,65.2L109.6,64.0L109.4,63.4L109.1,62.0L109.0,61.8L108.9,61.3L108.4,59.8L108.4,59.6L108.3,59.1L108.1,58.2L108.0,58.0L107.6,56.5L106.7,53.5L106.5,52.4L106.3,51.9L106.1,51.1L105.6,49.2L105.5,48.7L105.2,47.7L105.2,47.3L105.0,46.6L104.9,46.3L104.7,45.7L104.7,45.6L104.6,45.2L104.3,43.9L104.2,43.6L104.0,42.8L103.9,42.3L103.7,41.9L103.5,41.0L103.4,40.8L103.4,40.7L103.3,40.2L103.2,39.8L103.1,39.5L102.7,37.9L102.6,37.8L102.2,35.9L102.1,35.6L101.9,34.6L101.8,34.3L101.7,33.9L101.5,33.3L101.3,32.4L101.1,31.7L101.0,31.0L100.7,30.0L100.2,28.6L100.2,28.0L100.0,27.6L99.7,26.2L99.5,25.8L99.5,25.5L99.3,25.2L99.3,24.8L99.0,24.0L99.0,23.7L98.8,23.1Z" fill="#000" fill-rule="evenodd"/>
</svg>