<svg xmlns="http://www.w3.org/2000/svg" viewBox="0 0 128 128" width="128" height="128">
  <path d="M63.1,9.5L59.6,9.7L58.5,9.9L56.4,10.0L52.4,10.7L50.6,11.3L49.4,11.5L45.7,12.7L44.9,13.1L44.1,13.3L42.6,14.0L40.9,14.7L39.1,15.6L38.8,15.8L37.4,16.4L37.1,16.7L36.7,16.8L35.6,17.6L34.3,18.2L32.9,19.4L31.2,20.4L28.2,22.8L23.3,27.5L20.0,31.6L19.8,32.2L17.1,36.0L15.0,39.9L13.1,43.9L12.2,46.6L12.0,47.0L11.5,49.0L11.4,49.2L11.0,51.3L10.7,52.3L10.6,53.1L10.2,54.5L10.1,55.4L9.8,56.3L9.6,58.5L9.4,59.7L9.3,63.0L9.1,64.6L9.3,65.4L9.6,70.1L10.1,73.1L10.1,73.7L10.4,74.5L10.6,76.6L11.1,78.0L11.1,78.4L11.6,80.2L13.1,83.7L13.7,85.7L16.4,91.2L17.4,92.7L17.5,93.0L18.4,94.3L18.7,94.8L20.5,97.3L21.1,97.9L21.5,98.5L23.2,100.5L26.1,103.6L31.4,108.0L34.4,110.1L39.5,112.9L44.9,115.2L49.0,116.5L54.3,117.8L55.6,117.9L56.4,118.2L57.3,118.2L58.0,118.3L66.1,118.6L72.0,118.1L73.0,117.8L74.5,117.7L75.5,117.3L77.4,117.0L79.2,116.5L79.8,116.2L80.6,116.0L84.8,114.7L86.3,113.8L88.2,113.1L89.6,112.4L90.7,111.6L91.9,111.1L92.5,110.6L93.6,110.1L97.3,107.4L101.6,103.9L104.7,100.7L106.5,98.6L106.5,98.3L107.4,97.5L109.6,94.3L110.1,93.8L112.0,90.3L112.6,89.5L112.9,88.7L113.1,88.5L115.0,84.2L116.4,80.2L117.5,76.2L118.1,73.4L118.4,71.3L118.7,70.1L119.0,65.3L119.0,61.3L118.7,57.0L117.4,50.5L117.0,49.3L116.9,48.7L115.8,45.9L115.4,44.4L114.2,41.7L114.2,41.5L113.6,40.2L113.3,39.9L113.3,39.7L111.5,36.3L109.0,32.4L108.5,31.9L105.8,28.4L101.9,24.2L97.2,20.4L93.2,17.7L92.2,17.2L90.1,15.9L89.7,15.8L88.5,15.1L87.8,14.9L86.6,14.2L85.8,14.0L84.6,13.3L83.5,13.0L82.8,12.7L82.2,12.6L82.1,12.5L80.8,12.0L76.6,10.9L75.7,10.8L74.2,10.4L68.6,9.6Z M20.8,81.0L20.8,80.0L21.5,79.5L22.1,79.4L25.5,79.5L27.0,79.8L28.4,79.8L30.8,80.3L31.9,80.4L33.1,80.8L33.9,80.9L36.1,81.6L37.1,81.8L39.0,82.5L39.5,82.6L40.2,83.0L40.7,83.1L41.4,83.5L41.8,83.6L45.4,85.5L48.1,87.1L48.9,87.7L49.7,88.1L51.3,89.4L52.4,90.1L53.2,90.2L55.2,89.4L55.7,89.4L57.3,89.7L57.8,89.9L58.7,90.9L59.2,92.1L59.1,93.5L58.4,95.1L57.6,95.8L55.7,96.5L55.3,97.1L55.5,97.7L55.8,97.9L57.3,97.9L58.8,97.3L59.7,96.5L60.2,95.8L61.1,93.8L61.2,92.1L60.9,91.0L59.7,89.0L58.2,88.0L56.0,87.4L53.7,87.4L53.4,87.1L53.5,85.9L54.1,84.8L56.0,83.1L58.6,82.2L59.1,81.6L59.1,81.2L60.1,79.4L60.9,78.6L62.3,77.7L63.4,77.5L64.5,77.4L65.8,77.6L67.2,78.4L68.4,79.7L69.2,81.4L69.8,82.0L72.0,82.7L72.8,83.2L74.2,84.6L74.6,85.5L74.8,85.9L74.8,86.9L74.5,87.2L72.2,87.3L70.9,87.7L70.1,88.1L69.9,88.3L69.4,88.6L68.4,89.6L67.7,90.9L67.5,92.0L67.5,93.1L67.7,94.3L68.4,95.6L68.9,96.3L70.2,97.4L72.1,97.9L72.8,97.9L73.3,97.8L73.7,97.4L73.7,96.9L73.2,96.4L71.5,95.8L70.6,95.3L69.8,94.3L69.4,93.0L69.4,91.9L69.8,90.9L70.9,89.8L71.7,89.3L73.3,89.1L74.4,89.4L75.1,89.9L76.3,89.9L80.3,86.9L81.0,86.6L82.1,85.8L84.2,84.7L84.4,84.5L86.1,83.6L89.2,82.2L89.8,82.1L90.5,81.7L91.0,81.6L91.5,81.3L92.6,81.0L94.3,80.4L95.5,80.2L96.4,79.9L97.3,79.8L99.9,79.2L102.9,78.9L103.6,78.8L106.9,78.8L107.6,79.3L107.7,79.7L107.6,80.6L106.9,81.6L106.2,83.7L105.4,85.0L105.2,85.6L102.6,89.8L99.9,93.4L99.2,94.1L99.1,94.3L95.4,98.3L94.7,98.6L93.9,99.5L90.7,101.9L90.3,102.1L88.2,103.6L86.0,104.7L84.5,105.6L83.5,106.0L82.6,106.5L82.1,106.6L80.6,107.3L77.2,108.5L76.5,108.6L75.8,108.9L75.0,109.0L73.8,109.4L72.8,109.5L71.8,109.8L70.1,109.9L68.6,110.2L66.1,110.2L65.2,110.4L63.1,110.3L62.5,109.9L62.0,110.0L61.7,110.2L59.9,110.2L59.2,110.1L57.4,110.0L56.9,109.8L55.0,109.6L54.4,109.3L52.9,109.2L52.1,108.9L51.1,108.7L50.0,108.3L49.4,108.2L44.9,106.4L41.7,104.9L41.1,104.4L39.7,103.7L39.4,103.4L39.1,103.3L38.8,103.0L37.9,102.6L37.5,102.2L37.1,102.0L32.3,98.1L29.7,95.5L27.3,92.7L24.9,89.2L24.7,88.7L24.3,88.2L23.1,85.9L22.7,85.4L22.6,84.9L21.8,83.4L21.2,81.7Z M23.4,45.2L26.3,45.8L27.6,46.4L29.0,47.4L31.1,49.4L31.7,50.5L32.5,51.2L33.2,51.4L35.7,51.4L35.9,51.6L37.1,51.8L39.4,52.9L40.6,53.7L42.1,55.4L42.7,56.4L42.8,57.4L42.2,58.3L39.2,61.8L35.1,66.0L32.6,68.3L25.6,73.8L23.3,75.4L21.0,76.7L20.0,76.9L19.4,76.5L19.1,75.6L18.9,74.5L18.4,72.9L18.0,69.1L17.7,68.2L17.6,61.7L18.0,59.3L18.0,57.4L18.3,56.6L18.4,55.1L18.6,54.0L19.1,52.6L19.5,50.5L20.2,48.7L20.6,47.4L21.3,46.1L22.0,45.4L22.5,45.2Z M104.0,45.0L105.1,45.0L105.9,45.2L106.4,45.4L106.9,46.1L107.8,47.9L108.3,49.3L108.7,51.3L109.2,52.4L109.6,54.3L109.9,54.9L109.9,55.6L110.3,57.4L110.7,62.0L110.5,69.1L110.2,70.0L110.1,71.2L110.0,71.6L109.8,72.9L109.6,73.2L109.6,73.7L109.2,74.5L109.0,75.7L108.5,76.2L107.7,76.2L104.7,74.4L104.1,73.9L102.8,73.1L101.1,71.7L99.6,70.8L95.7,67.7L91.8,64.0L89.0,61.1L86.8,58.6L85.7,57.0L85.7,55.8L86.5,54.5L88.4,52.7L89.6,52.3L90.5,51.7L91.7,51.3L92.6,51.2L93.2,50.9L95.4,50.9L96.0,50.5L97.4,48.5L98.3,47.6L99.7,46.5L101.8,45.6Z M46.7,56.1L46.7,55.8L48.3,53.3L49.4,51.9L49.4,51.8L50.2,50.6L50.3,50.1L52.9,46.2L53.6,44.6L55.2,41.7L56.4,39.2L57.4,37.7L57.7,37.3L58.8,37.1L60.7,37.2L62.2,37.0L69.8,37.0L70.8,37.3L71.8,38.6L73.5,42.2L74.2,43.4L74.5,44.1L75.9,46.4L76.4,47.6L77.0,48.3L78.4,50.7L79.5,52.1L79.7,52.7L81.3,54.7L81.7,55.8L81.5,56.1L80.8,56.1L79.6,55.7L76.1,53.9L75.5,53.4L74.3,52.7L71.9,50.7L71.2,50.6L70.8,50.9L70.6,51.5L70.2,53.2L70.1,53.4L70.0,54.2L69.6,55.4L69.4,56.4L69.0,57.6L68.5,58.2L68.2,58.2L67.7,57.7L66.6,55.1L66.2,54.5L66.2,54.2L65.9,54.0L64.8,51.5L64.5,51.4L63.8,51.4L63.6,51.5L63.1,52.7L61.4,55.6L61.3,56.1L60.9,56.5L60.3,57.7L60.0,58.0L59.4,57.9L59.2,57.6L58.5,54.2L58.2,53.6L57.8,51.5L57.5,51.0L57.1,50.8L56.5,50.9L53.4,53.2L49.7,55.4L47.3,56.3L46.9,56.3Z M105.1,42.1L105.1,42.5L104.5,43.0L102.5,43.3L102.3,43.4L101.2,43.7L100.8,43.9L100.3,44.0L98.3,45.2L95.9,47.4L94.6,48.8L94.2,49.0L91.4,49.4L89.9,49.9L88.4,50.6L86.1,52.3L84.4,53.9L83.7,54.1L83.0,53.7L81.8,52.2L81.3,51.3L79.8,49.3L79.5,48.7L78.8,47.7L78.6,47.2L77.5,45.5L77.4,45.2L76.6,43.9L76.1,42.8L74.7,40.4L72.8,36.1L72.0,35.3L71.7,35.1L67.9,35.0L64.2,35.2L57.2,35.1L56.0,35.5L55.7,35.9L54.7,37.9L54.6,38.6L53.9,39.6L53.3,41.2L51.9,43.9L51.1,45.2L50.3,46.7L49.4,47.9L49.2,48.6L48.7,49.2L48.1,50.2L47.3,51.4L47.3,51.5L45.5,53.9L45.0,54.4L44.5,54.6L43.8,54.5L42.1,52.7L41.4,52.3L41.0,51.8L39.2,50.8L36.6,49.9L35.0,49.7L33.5,49.4L31.3,46.9L30.3,46.0L28.6,44.9L26.4,43.9L25.7,43.9L24.6,43.4L23.7,43.4L23.3,43.1L23.1,42.8L23.2,42.2L25.0,38.9L26.0,37.3L26.6,36.8L27.7,35.0L29.9,32.5L32.5,29.9L35.5,27.3L40.1,24.2L42.3,22.9L43.4,22.3L44.8,21.8L46.0,21.2L51.1,19.4L53.7,18.7L55.2,18.5L55.5,18.3L57.2,18.2L58.1,17.9L64.3,17.5L70.6,18.0L71.1,18.2L74.3,18.6L75.0,18.8L76.4,19.1L77.2,19.4L77.8,19.5L78.4,19.8L80.0,20.4L80.4,20.4L81.3,20.9L81.6,20.9L83.8,21.8L84.3,21.9L88.3,24.2L91.0,25.9L93.8,28.0L96.2,30.2L98.3,32.3L98.5,32.6L100.2,34.4L102.2,37.1L103.0,38.4L103.1,38.7L104.5,40.8Z" fill="#000" fill-rule="evenodd"/>
</svg>