<svg xmlns="http://www.w3.org/2000/svg" viewBox="0 0 128 128" width="128" height="128">
  <path d="M62.2,67.5L61.9,67.5L61.4,67.7L56.9,71.1L56.1,71.5L54.6,72.8L53.2,73.7L49.9,76.2L47.5,77.7L46.7,78.5L45.8,79.0L43.1,81.0L41.1,82.4L39.2,83.8L38.9,84.3L38.6,85.1L38.5,86.2L38.3,87.1L38.2,89.5L37.8,91.3L37.6,94.8L37.1,98.6L36.7,102.4L36.4,104.9L35.9,109.8L35.6,110.7L35.6,113.0L35.7,113.2L36.3,113.2L39.8,110.3L41.1,109.5L41.6,109.2L43.0,108.1L44.0,107.4L46.0,105.9L46.4,105.8L48.4,104.2L49.9,103.3L50.6,102.6L52.5,101.4L56.6,98.3L58.4,97.1L59.1,96.5L59.4,95.1L59.7,92.1L60.1,89.4L60.1,88.4L60.4,86.7L60.5,84.4L61.0,81.3L61.1,79.6L61.8,74.3L61.8,73.3L62.4,69.7L62.5,67.9Z M55.6,79.0L55.7,80.5L55.3,82.5L55.2,84.3L54.7,87.9L54.3,91.4L54.0,93.0L53.8,93.5L49.6,96.7L45.7,99.4L43.0,101.5L42.5,101.6L42.2,101.3L42.2,99.5L42.6,97.5L42.6,96.4L42.8,95.8L43.1,92.0L43.4,91.0L43.4,89.7L43.7,87.7L44.0,87.3L45.1,86.3L51.6,81.4L52.8,80.7L55.0,79.0Z M65.3,67.5L65.2,67.6L65.3,69.7L65.6,72.2L65.7,74.2L66.0,75.1L66.2,79.5L66.5,81.1L66.5,82.4L67.1,87.2L67.1,89.1L67.4,90.4L67.5,92.0L67.8,93.6L67.8,95.3L68.2,96.4L70.7,98.4L71.6,99.0L77.7,103.6L79.3,104.6L82.6,107.1L83.0,107.3L88.3,111.4L89.4,112.1L90.5,113.1L91.0,113.2L91.3,112.9L91.3,112.2L90.9,108.8L90.9,107.2L90.7,106.9L90.1,97.4L89.9,96.7L89.8,94.9L89.6,93.5L89.5,91.6L89.3,89.9L89.3,88.8L89.1,88.0L89.1,86.6L88.9,84.8L88.7,84.5L88.0,83.7L87.6,83.6L85.6,81.9L84.3,81.0L82.6,79.7L81.5,79.1L81.4,78.8L76.9,75.6L74.4,73.7L73.0,72.8L70.8,71.0L69.7,70.4L67.4,68.5L65.8,67.5Z M71.7,79.2L72.0,79.1L72.4,79.2L75.1,81.0L78.1,83.4L79.6,84.4L80.0,84.8L82.7,86.7L83.5,87.7L84.2,93.8L84.3,95.9L84.8,99.7L84.9,101.3L84.7,101.5L84.1,101.5L82.9,100.7L80.1,98.6L79.1,97.9L77.9,97.0L77.7,97.0L77.0,96.3L74.3,94.4L73.2,93.3L73.0,92.1L72.8,91.4L72.6,89.0L72.2,86.1L72.2,85.1L71.9,84.1L71.8,81.5L71.5,80.2L71.5,79.3Z M9.1,64.6L9.2,65.1L10.4,65.7L11.5,66.1L12.4,66.7L13.5,67.1L16.9,68.7L18.3,69.2L27.4,73.4L28.0,73.6L29.4,74.3L29.8,74.4L31.3,75.2L32.1,75.4L32.3,75.5L34.8,76.6L35.2,76.6L35.8,76.3L36.0,76.3L38.7,74.9L39.1,74.8L41.7,73.6L42.1,73.5L42.6,73.2L42.9,73.1L43.3,72.8L44.8,72.3L46.2,71.5L47.9,70.9L49.4,70.1L52.6,68.8L53.2,68.4L53.5,68.4L56.7,66.7L57.5,66.5L58.6,65.9L60.5,65.1L60.7,64.7L60.5,64.2L58.7,63.3L57.2,62.7L55.8,62.0L55.1,61.8L53.5,60.9L52.1,60.5L50.6,59.7L48.4,58.8L46.5,57.8L46.2,57.8L46.0,57.6L44.9,57.0L43.4,56.5L42.3,55.9L42.1,55.7L41.7,55.6L40.2,54.8L39.6,54.7L37.4,53.6L35.3,52.7L34.5,52.7L33.1,53.3L22.1,58.6L21.3,58.8L19.0,60.0L17.3,60.6L15.0,61.8L13.6,62.4L10.4,64.0L10.0,64.1Z M22.4,64.5L22.9,64.1L24.0,63.6L24.6,63.2L27.3,62.0L30.1,60.5L32.4,59.6L33.0,59.2L33.7,59.1L34.4,58.7L35.3,58.7L36.8,59.2L39.3,60.5L40.8,60.9L41.5,61.3L43.0,61.9L44.1,62.5L44.8,62.7L46.1,63.5L47.3,64.0L47.7,64.4L47.7,64.6L47.0,65.2L46.2,65.4L43.1,66.9L42.3,67.1L40.8,67.9L40.6,67.9L39.4,68.6L38.8,68.7L37.1,69.6L36.6,69.7L35.0,70.4L34.0,70.4L27.1,67.3L25.5,66.4L25.3,66.4L22.8,65.2L22.4,64.9Z M67.1,64.4L67.1,64.7L67.8,65.3L68.7,65.6L69.5,66.0L70.7,66.4L71.9,67.1L74.1,68.0L77.2,69.6L77.9,69.7L78.1,70.0L79.6,70.5L80.2,70.9L81.8,71.5L84.3,72.7L84.7,72.8L85.1,73.1L86.6,73.7L88.0,74.4L89.3,74.9L89.9,75.3L90.5,75.5L91.2,75.9L91.4,75.9L92.7,76.6L93.4,76.6L98.6,74.1L99.0,74.1L100.2,73.4L100.6,73.3L101.1,73.0L101.3,73.0L102.1,72.6L102.3,72.6L102.8,72.2L104.8,71.5L105.2,71.2L106.2,70.8L106.6,70.5L108.1,70.0L110.3,68.8L111.0,68.6L112.5,67.8L112.7,67.8L113.2,67.5L114.7,67.0L115.3,66.6L116.6,66.1L117.3,65.7L117.9,65.6L118.7,65.1L119.1,64.8L119.1,64.5L118.7,64.2L116.7,63.1L115.4,62.7L114.7,62.2L114.3,62.1L110.2,60.1L108.5,59.4L104.1,57.2L101.6,56.2L100.5,55.6L97.8,54.4L97.1,54.0L96.9,54.0L93.6,52.5L92.9,52.5L91.6,53.1L90.9,53.5L90.5,53.6L89.7,54.0L87.9,54.7L86.3,55.6L85.5,55.8L83.2,57.0L81.8,57.5L80.3,58.3L79.1,58.7L77.8,59.4L76.2,60.0L72.9,61.6L71.2,62.3L69.8,63.1L67.9,63.8Z M92.2,15.8L91.5,15.8L90.1,16.9L89.5,17.2L85.3,20.4L83.8,21.3L82.8,22.2L78.8,25.0L77.0,26.5L75.5,27.5L74.6,28.3L72.6,29.6L71.6,30.5L71.2,30.6L68.6,32.7L68.4,33.4L68.1,35.3L67.9,37.5L67.5,40.8L67.5,41.7L66.5,48.9L66.4,50.6L66.1,52.0L66.0,53.9L65.8,54.9L65.6,57.4L65.2,60.9L65.2,61.7L65.3,62.0L65.6,62.0L66.1,61.8L68.6,59.9L70.4,58.7L71.2,58.0L73.6,56.4L74.1,55.8L74.5,55.7L75.9,54.5L77.0,53.9L77.8,53.2L79.8,51.9L80.9,51.0L81.9,50.4L84.0,48.8L86.6,47.0L89.0,45.1L89.2,44.6L89.4,42.2L89.6,41.1L89.6,39.5L89.8,39.0L89.8,37.1L90.3,34.3L90.5,30.4L90.9,29.1L91.1,25.4L91.4,23.9L91.5,21.9L91.8,20.2L92.0,17.3L92.3,16.4Z M85.2,27.3L85.4,27.6L85.4,28.6L85.1,31.0L85.0,33.2L84.7,33.8L84.1,40.1L83.9,41.5L83.6,42.2L82.9,42.8L80.1,44.8L79.6,45.2L77.6,46.6L76.9,47.3L76.5,47.4L74.5,49.0L72.6,50.3L72.2,50.3L71.9,49.9L72.2,47.6L72.2,46.6L72.4,45.4L72.6,42.7L72.7,42.1L73.0,37.5L73.3,36.3L74.8,34.9L78.4,32.1L79.6,31.3L80.1,30.9L81.0,30.2L81.8,29.5L83.8,28.1L84.6,27.4Z M36.4,15.1L36.2,15.5L36.2,16.2L36.4,16.8L36.5,19.8L36.8,21.8L37.0,25.1L37.2,26.1L37.4,28.6L37.6,29.4L37.7,32.0L38.0,34.5L38.3,39.0L38.9,42.0L39.0,44.0L39.2,44.4L41.6,46.6L44.7,48.8L46.6,50.3L47.0,50.5L49.9,52.9L52.0,54.4L52.8,55.1L53.2,55.4L53.8,55.9L54.3,56.1L58.0,59.1L59.4,60.0L59.8,60.5L61.6,61.7L62.0,61.9L62.4,61.8L62.5,60.5L61.8,54.3L61.8,53.2L61.3,48.8L61.3,47.7L61.0,46.2L60.9,44.6L60.8,44.0L60.7,42.1L60.2,38.4L59.8,33.6L59.6,32.6L58.8,31.7L57.0,30.2L52.4,26.7L50.7,25.6L49.9,24.8L46.7,22.5L44.8,20.9L43.7,20.2L39.0,16.5L38.0,15.8L37.5,15.8L37.3,15.6L37.2,15.2L37.0,15.1Z M42.9,26.9L43.5,27.0L45.0,28.2L46.0,28.8L46.6,29.4L49.2,31.2L50.8,32.7L53.4,34.5L54.3,35.3L54.6,36.1L55.0,39.5L55.1,39.9L55.4,42.9L55.5,43.5L55.6,45.4L56.0,47.7L56.1,49.9L55.8,50.2L55.5,50.2L55.0,49.9L49.7,45.9L44.8,42.0L44.2,41.3L43.8,40.0L43.1,32.1L42.9,31.0L42.9,29.4L42.7,28.6L42.7,27.1Z" fill="#000" fill-rule="evenodd"/>
</svg>