<svg xmlns="http://www.w3.org/2000/svg" viewBox="0 0 128 128" width="128" height="128">
  <path d="M12.7,120.2L14.7,120.2L14.1,120.0L13.3,120.0Z M64.0,38.1L62.5,38.7L61.7,39.2L61.2,39.3L60.5,39.7L57.7,40.7L57.1,41.1L55.9,41.5L54.3,42.3L53.6,42.4L53.1,42.8L51.4,43.4L50.2,44.0L49.4,44.3L47.8,45.0L46.3,45.5L45.9,45.9L45.3,47.0L45.1,47.6L44.6,48.6L43.9,50.7L43.4,51.5L42.3,54.5L39.7,60.0L39.7,60.5L38.4,63.2L38.3,64.8L39.4,67.5L39.7,68.2L39.9,68.8L40.9,70.9L40.9,71.3L41.4,72.2L43.0,76.4L43.2,76.6L43.5,77.7L43.7,78.0L45.0,81.2L45.4,82.0L46.0,82.8L46.9,83.3L47.3,83.4L49.7,84.6L50.6,84.8L51.7,85.4L52.5,85.6L53.2,86.0L53.7,86.1L54.4,86.5L55.6,86.9L58.6,88.3L60.8,89.1L62.0,89.8L62.6,89.8L63.8,90.3L64.8,90.3L66.7,89.5L67.1,89.4L67.6,89.1L70.1,88.2L70.4,87.9L72.1,87.3L72.9,86.9L73.1,86.9L74.7,86.1L75.2,86.0L75.9,85.6L76.3,85.6L76.9,85.2L78.2,84.8L78.8,84.4L79.0,84.4L80.6,83.6L81.2,83.4L82.8,82.5L83.3,81.5L84.4,79.0L84.6,78.6L85.2,76.8L85.8,75.9L85.9,75.1L86.4,74.1L86.7,73.9L86.8,73.0L87.1,72.6L88.6,68.6L90.0,65.8L90.0,65.5L90.4,64.8L90.4,64.0L89.5,61.7L89.3,61.4L88.6,59.3L88.3,59.0L87.5,57.1L86.9,55.1L84.4,49.4L84.4,49.0L83.8,47.9L83.1,46.0L82.6,45.5L82.1,45.2L79.9,44.5L79.4,44.2L76.9,43.2L76.1,42.8L74.7,42.3L73.1,41.5L72.6,41.4L70.9,40.6L70.5,40.5L70.2,40.3L67.5,39.3L66.1,38.6L64.7,38.1Z M70.2,84.8L70.1,85.2L69.0,85.9L67.2,86.6L66.7,86.9L66.3,87.0L65.2,87.5L64.3,87.8L63.3,87.7L62.0,87.1L61.3,86.9L59.7,86.0L58.5,85.6L58.2,85.2L58.2,84.9L58.6,84.5L59.8,83.9L60.2,83.8L60.4,83.6L64.2,81.9L64.8,82.0L66.0,82.6L67.1,83.0L69.5,84.2Z M59.6,75.5L60.3,76.2L60.7,77.0L61.3,77.9L62.0,79.1L62.1,79.8L61.6,80.5L60.5,81.1L59.9,81.3L58.8,81.9L57.5,82.5L56.7,82.5L56.2,81.6L56.1,81.0L55.8,80.6L54.9,78.0L54.8,77.3L54.8,76.7L56.1,76.0L56.8,75.9L58.9,75.4Z M69.4,75.2L70.2,75.2L71.0,75.5L71.7,75.6L72.1,75.9L73.2,76.0L73.9,76.3L74.2,76.7L74.1,77.6L72.9,80.7L72.3,82.1L71.7,82.6L71.1,82.6L69.4,81.8L68.8,81.7L67.1,80.7L66.8,80.7L65.9,80.0L65.9,79.3L66.7,78.3L67.2,77.5L68.6,75.9Z M65.5,75.1L65.6,75.2L65.6,75.5L64.5,77.1L64.0,77.5L63.6,77.5L63.3,77.2L62.5,75.7L62.5,75.3L63.0,74.9L65.0,74.9Z M45.7,74.9L46.4,74.9L47.3,75.2L47.8,75.5L48.5,75.6L48.8,75.9L49.7,76.0L51.0,76.7L51.7,76.9L52.1,77.4L52.5,77.9L53.6,81.7L53.7,82.0L53.8,83.0L53.6,83.2L53.2,83.2L51.7,82.6L51.0,82.5L50.8,82.2L50.1,82.1L49.4,81.7L49.0,81.6L47.7,80.8L47.4,80.4L46.7,78.8L46.4,77.9L45.5,75.9L45.5,75.2Z M82.8,74.6L82.9,74.8L82.9,75.1L82.7,75.8L82.5,76.1L81.2,79.4L80.5,80.7L80.1,81.1L79.2,81.6L78.7,81.7L78.1,82.1L77.5,82.2L76.0,82.9L74.8,83.2L74.5,82.9L74.8,82.0L75.9,79.3L76.4,77.9L77.1,76.7L77.9,76.0L80.1,75.4L80.7,75.1L81.3,75.0L81.8,74.7Z M55.2,71.7L55.5,71.4L56.1,71.5L57.5,72.9L57.6,73.5L57.1,73.8L56.1,74.1L55.0,74.1L54.8,74.0L54.8,73.4Z M72.8,71.3L73.2,71.3L73.5,71.5L73.7,72.5L73.7,73.5L73.2,73.8L72.1,73.6L71.3,73.1L71.3,72.8Z M48.4,66.3L49.4,66.4L50.3,67.1L50.9,67.3L52.5,68.3L53.3,69.0L53.3,70.2L53.0,71.3L52.8,72.5L52.7,72.7L52.4,74.0L51.9,74.4L51.5,74.4L51.3,74.3L50.4,74.1L49.8,73.8L47.9,73.2L47.4,72.9L46.2,72.5L45.8,72.0L45.8,71.5L46.3,70.2L47.1,68.8L47.8,67.0Z M80.1,65.9L80.5,66.3L81.7,69.1L82.5,71.0L82.5,71.7L81.7,72.3L79.8,72.9L79.5,73.2L79.0,73.2L77.9,73.7L76.8,73.8L76.4,73.4L75.9,71.1L75.9,70.5L75.6,69.6L75.6,68.9L75.8,68.4L76.2,67.9L78.5,66.3L79.6,65.8Z M52.7,63.1L53.2,63.1L53.5,63.7L53.4,65.5L53.0,65.9L52.5,65.8L51.0,64.8L51.1,64.2Z M75.3,62.8L75.8,62.8L77.4,63.8L77.3,64.4L76.7,65.1L75.7,65.6L75.2,65.6L75.0,65.4L74.9,64.9L75.0,63.2Z M85.2,58.6L85.6,59.0L85.6,59.4L86.2,60.3L86.5,61.3L87.2,62.9L87.5,63.7L87.5,64.8L85.2,69.9L84.8,70.2L84.6,70.2L84.2,69.8L84.0,69.1L83.0,66.9L82.9,66.3L82.2,65.1L82.1,64.1L82.6,62.5L83.8,60.3L84.0,59.8L84.3,59.4L84.6,58.8Z M43.7,58.2L44.1,58.5L44.7,59.9L44.9,60.2L45.1,61.1L45.8,62.2L46.3,63.5L46.3,64.3L45.9,65.7L43.8,69.8L43.2,69.9L42.9,69.7L42.3,67.9L42.0,67.5L41.6,66.6L41.5,66.1L40.9,64.6L40.9,64.0L41.1,63.1L41.5,62.4L42.0,61.0L42.3,60.5L42.8,59.0L43.2,58.5L43.4,58.2Z M60.9,55.8L64.3,55.7L64.8,55.9L67.5,55.8L67.9,55.9L69.4,57.1L71.8,59.5L72.5,60.4L72.7,61.3L72.7,65.5L72.5,67.7L71.7,68.9L68.8,71.8L67.8,72.5L67.1,72.8L61.7,72.8L60.3,72.5L58.6,71.0L58.6,70.8L56.2,68.4L55.8,67.8L55.8,61.7L56.0,60.8L56.6,59.8L57.3,59.3L59.6,56.9Z M54.8,54.5L56.3,54.7L57.3,55.1L57.5,55.3L57.5,55.6L57.1,56.3L56.0,57.3L55.5,57.6L55.2,57.6L54.8,57.2L54.7,56.3L54.4,55.6L54.4,54.9Z M73.3,54.4L73.8,54.8L73.7,55.9L73.4,57.0L73.1,57.3L72.6,57.4L72.2,57.1L70.8,55.7L70.8,55.3L71.5,54.8Z M76.8,54.4L77.8,54.4L78.4,54.7L79.5,54.9L80.9,55.5L81.3,55.5L82.5,56.1L82.9,56.6L82.9,56.9L82.6,57.4L82.3,58.3L81.2,60.4L81.1,60.8L80.6,61.9L79.9,62.5L79.4,62.5L78.7,62.1L77.9,61.5L77.5,61.3L76.9,60.9L76.6,60.8L75.5,60.0L75.3,59.6L75.6,57.5L75.9,57.1L76.0,56.2L76.4,55.3L76.6,54.6Z M51.7,54.4L52.1,54.8L52.1,55.1L52.5,56.1L52.5,56.5L52.9,57.5L53.3,59.1L53.3,60.2L52.6,60.8L50.8,61.9L50.5,61.9L49.2,62.8L48.6,62.8L48.1,62.2L47.1,59.8L46.9,59.5L46.7,58.8L46.1,57.3L46.0,56.3L46.7,55.8L48.7,55.1L49.3,54.8L51.3,54.3Z M62.5,53.0L62.8,52.2L63.6,51.3L64.1,50.9L64.5,50.9L65.1,51.3L66.1,52.8L66.1,53.2L65.9,53.5L65.4,53.6L63.5,53.6L62.8,53.6L62.5,53.2Z M72.0,46.0L72.3,46.3L73.2,48.5L74.0,50.9L74.0,51.7L73.5,52.1L72.6,52.5L71.3,52.6L69.5,53.1L68.6,53.0L68.1,52.5L67.1,50.7L66.3,49.8L65.9,49.0L65.9,48.4L66.1,48.2L67.5,47.4L68.9,47.1L71.3,46.0Z M56.7,45.8L57.7,45.8L58.7,46.3L59.0,46.3L59.4,46.6L59.8,46.7L61.8,47.7L62.5,48.3L62.1,49.4L60.1,52.4L59.5,52.9L59.0,53.2L58.0,53.2L55.0,52.3L54.4,51.9L54.4,51.3L55.3,48.8L55.7,48.1L56.2,46.6Z M75.1,45.6L75.8,45.5L77.5,46.3L78.2,46.4L78.8,46.8L80.2,47.4L81.1,47.9L81.7,49.2L82.6,51.7L82.9,52.1L83.2,53.3L83.2,53.6L83.0,53.8L82.2,53.9L80.7,53.4L77.4,52.0L76.5,51.2L74.9,46.4L74.9,45.8Z M53.8,45.1L54.0,45.4L54.0,45.9L53.6,46.7L52.5,50.4L51.8,51.6L51.3,52.0L50.4,52.5L49.0,52.9L48.0,53.1L47.2,53.5L46.6,53.6L46.1,53.8L45.5,53.8L45.4,53.6L45.4,53.2L45.6,52.3L45.9,51.8L46.0,51.2L46.9,49.5L47.1,48.7L47.7,47.8L48.1,47.4L49.1,46.9L49.4,46.9L50.2,46.4L52.8,45.4Z M58.3,43.2L59.0,42.8L61.4,41.7L61.9,41.6L62.5,41.2L63.6,40.8L64.4,40.7L65.8,41.2L66.1,41.4L67.1,41.7L68.4,42.4L69.8,42.9L70.2,43.3L70.2,43.7L69.9,44.0L69.0,44.6L67.8,45.0L65.9,45.9L64.4,46.3L63.4,46.3L58.7,44.0L58.3,43.6Z M64.5,9.2L64.3,9.2L64.0,11.3L64.0,12.7L63.6,15.4L63.6,16.9L63.1,21.3L63.0,23.9L62.5,28.1L62.5,29.8L62.1,32.7L62.1,35.1L61.7,36.5L61.5,36.7L61.1,36.7L60.8,36.3L60.2,34.2L59.9,33.5L59.8,32.6L59.5,32.2L59.4,31.5L58.6,29.4L57.8,25.9L56.9,23.2L56.8,22.4L55.6,18.6L55.4,18.4L55.2,18.6L55.2,21.0L55.5,21.9L55.8,26.7L56.1,29.2L56.3,29.7L56.5,33.2L56.7,33.8L56.7,34.7L57.1,38.3L56.9,38.7L56.6,38.9L56.2,38.8L55.9,38.5L55.1,37.1L55.1,36.9L53.2,33.2L52.8,32.0L52.5,31.8L50.4,27.1L50.0,26.6L49.8,25.8L48.5,23.3L47.6,21.2L47.3,20.8L47.1,20.2L46.8,19.7L46.7,19.3L46.0,18.1L45.9,17.6L45.1,16.2L45.1,15.8L44.5,14.7L44.3,14.4L44.1,14.0L43.8,13.8L43.8,14.7L44.1,15.2L44.2,15.9L44.9,17.7L45.6,20.1L45.9,20.5L47.2,24.6L47.2,24.9L47.5,25.5L48.7,29.5L49.4,31.2L50.2,34.2L50.5,34.6L51.2,37.1L52.2,40.0L52.1,40.7L51.7,41.0L51.4,41.0L50.5,40.1L48.6,37.8L48.2,37.4L48.0,37.0L46.3,34.9L44.4,32.4L42.6,30.3L39.9,26.7L39.7,26.3L39.0,25.5L38.6,25.4L38.6,25.6L38.8,25.9L39.0,26.5L39.7,27.6L42.2,32.5L42.6,33.0L43.6,34.7L43.6,34.9L43.9,35.5L44.3,36.0L46.5,40.5L47.3,41.7L47.4,42.7L47.0,43.2L46.5,43.2L45.8,42.8L41.6,39.0L39.3,37.2L37.0,35.1L36.0,34.4L29.2,28.1L26.8,26.2L26.4,26.2L26.8,27.0L32.4,33.4L33.0,34.4L34.2,35.5L35.0,36.7L42.4,45.4L43.1,46.4L43.1,46.8L42.7,47.3L41.8,47.2L39.8,46.0L39.4,45.9L39.1,45.6L38.6,45.5L37.2,44.6L36.8,44.5L35.5,43.6L34.7,43.3L34.2,42.9L31.6,41.6L31.1,41.2L27.0,38.9L26.7,38.9L26.7,39.2L31.3,43.0L31.9,43.4L34.0,45.1L34.2,45.2L34.9,45.9L36.7,47.3L37.5,48.1L40.2,50.2L41.0,51.1L40.9,51.7L40.6,52.1L39.5,52.0L38.9,51.7L36.8,51.1L36.0,50.7L34.1,50.2L33.4,49.8L32.7,49.8L31.9,49.4L30.4,49.0L29.6,48.6L28.5,48.2L28.3,48.1L27.8,48.0L25.1,47.1L24.7,46.9L23.7,46.7L21.7,45.8L19.3,45.1L17.7,44.4L16.4,44.0L15.9,43.7L15.1,43.7L15.1,43.9L15.4,44.2L16.4,44.7L17.0,45.1L18.6,45.8L19.7,46.5L20.2,46.7L22.3,47.8L23.7,48.4L24.9,49.2L25.5,49.4L25.9,49.7L26.4,49.8L26.7,50.1L27.3,50.3L27.6,50.6L27.9,50.6L29.0,51.2L29.4,51.5L30.7,52.1L31.2,52.5L31.7,52.6L32.6,53.2L34.3,54.0L34.7,54.3L36.9,55.3L38.3,56.2L38.6,56.5L38.6,56.8L38.3,57.1L36.8,57.1L36.3,56.9L35.4,56.9L34.2,56.7L29.9,56.3L29.5,56.2L25.8,55.9L20.0,55.1L19.2,55.2L19.2,55.4L20.6,55.9L21.0,55.9L21.4,56.2L22.0,56.3L23.6,56.8L24.3,56.9L26.4,57.6L27.9,57.9L28.4,58.2L29.7,58.4L30.6,58.8L35.8,60.2L36.7,60.6L37.1,61.0L37.0,61.5L36.4,62.1L35.8,62.2L31.8,62.5L29.0,62.6L26.2,62.9L21.5,63.1L20.8,63.2L19.2,63.2L13.6,63.7L11.8,63.7L10.2,64.0L10.1,64.3L12.0,64.6L13.4,64.5L16.5,64.9L19.6,65.1L20.8,65.3L25.1,65.5L28.2,65.7L28.6,65.9L30.2,65.9L34.8,66.3L36.0,66.3L36.6,66.5L37.1,67.1L37.1,67.5L36.7,68.0L36.1,68.2L33.3,69.0L32.2,69.4L30.5,69.8L27.2,70.9L24.5,71.6L22.6,72.3L20.6,72.8L18.9,73.4L18.9,73.7L19.9,73.8L22.1,73.6L25.1,73.2L26.7,73.1L27.8,72.9L28.9,72.9L31.2,72.5L33.7,72.3L36.1,71.9L37.2,71.9L37.7,71.7L38.9,71.8L39.2,72.2L39.2,72.4L38.7,72.9L36.7,74.0L36.4,74.0L32.5,76.0L31.2,76.5L30.2,77.1L29.4,77.5L28.3,78.1L27.7,78.2L25.8,79.4L25.1,79.5L24.2,80.1L24.0,80.1L21.0,81.6L20.6,81.7L20.2,82.0L18.8,82.7L17.8,83.0L14.2,84.8L13.8,84.9L13.4,85.2L13.4,85.4L13.9,85.5L15.5,85.0L16.1,84.7L17.2,84.4L18.1,84.0L18.6,84.0L20.9,83.1L21.3,83.1L22.5,82.5L23.1,82.5L25.9,81.3L26.5,81.3L29.3,80.2L30.3,80.0L32.0,79.4L32.5,79.3L33.4,78.9L34.5,78.6L37.0,77.7L38.9,77.2L40.0,76.7L40.5,76.7L40.9,76.9L40.9,77.1L39.5,78.5L34.7,82.3L34.4,82.7L32.7,83.9L26.0,89.3L25.8,89.4L25.1,90.0L25.1,90.2L25.6,90.2L26.9,89.7L27.7,89.1L28.2,89.0L29.4,88.2L31.3,87.2L33.5,86.0L33.7,85.8L35.4,85.0L38.6,83.2L40.9,82.1L41.3,81.8L42.4,81.3L42.8,81.3L43.1,81.5L43.1,82.0L42.8,82.5L36.0,90.3L33.0,93.5L32.8,93.9L27.4,99.8L25.1,102.1L25.0,102.5L25.1,102.8L25.4,102.9L26.0,102.5L29.5,99.4L30.1,99.1L31.3,97.9L34.0,95.7L35.8,94.1L36.5,93.6L40.2,90.4L42.0,89.1L45.2,86.3L46.5,85.4L47.1,85.5L47.1,86.2L46.0,88.5L43.6,92.8L42.9,94.1L42.4,94.8L42.1,95.8L41.7,96.3L41.0,97.6L40.8,97.9L40.3,98.9L37.9,103.0L38.0,103.6L38.4,103.6L41.4,100.0L43.3,97.5L45.5,95.0L48.2,91.4L49.0,90.7L49.6,89.8L51.3,87.9L51.8,87.9L52.0,88.0L51.2,90.8L50.9,91.5L50.8,92.1L50.3,93.3L50.2,93.9L49.5,95.7L49.0,97.9L48.6,98.5L48.2,100.0L47.6,101.6L47.5,102.1L46.8,103.8L46.7,104.6L46.5,104.8L44.8,109.8L44.8,110.1L43.4,114.0L43.5,114.7L43.6,114.7L43.9,114.4L44.0,114.0L44.4,113.4L44.4,113.2L45.3,111.7L45.4,111.4L45.6,111.1L45.8,110.6L47.8,106.6L48.0,106.3L49.5,103.2L49.8,102.9L51.6,99.3L51.7,98.9L52.0,98.5L52.2,97.7L53.1,96.3L53.5,95.2L53.7,94.9L54.4,93.3L54.7,93.0L54.8,92.5L55.2,91.9L55.8,90.6L56.6,89.7L56.8,89.7L57.1,90.2L57.1,91.6L57.0,92.2L56.8,94.7L56.6,95.9L56.4,98.2L56.2,99.4L55.9,102.6L55.6,104.0L55.4,108.2L55.1,109.1L55.2,109.8L55.5,109.9L55.6,109.8L56.3,107.6L56.4,107.0L56.8,106.0L57.3,104.0L57.8,102.6L57.9,101.7L58.2,101.2L58.8,98.6L59.0,98.1L59.3,96.7L59.5,96.3L59.7,95.5L60.0,94.8L60.2,93.7L60.5,93.0L60.6,92.1L61.3,91.4L61.6,91.4L62.0,91.7L62.2,92.3L62.7,99.2L62.8,100.0L62.8,101.3L63.0,102.2L63.2,107.4L63.4,108.2L63.4,110.2L63.6,111.1L63.7,114.8L63.9,115.3L64.1,118.7L64.3,119.0L64.5,118.9L64.7,117.9L65.0,110.8L65.2,108.9L65.2,106.7L65.4,106.0L65.5,103.4L65.7,101.9L65.9,96.0L66.3,94.0L66.3,92.3L66.5,91.7L67.0,91.3L67.6,91.3L68.0,91.7L68.3,92.9L69.0,94.4L69.3,96.0L70.5,99.7L71.0,101.7L71.4,102.6L72.1,105.4L72.3,105.8L72.8,107.7L72.9,107.9L73.4,109.5L73.7,109.4L73.6,106.3L73.2,104.7L73.2,103.7L72.9,101.8L72.8,99.1L72.5,97.5L72.3,95.6L72.1,94.8L72.1,93.8L71.7,92.0L71.7,89.8L71.9,89.6L72.3,89.6L72.5,89.8L73.2,91.1L73.6,91.6L73.8,92.2L75.2,94.6L75.5,95.6L76.3,96.7L78.7,101.6L79.0,102.3L79.4,102.9L79.7,103.7L80.5,105.1L81.8,108.1L82.9,110.2L83.6,111.7L85.0,114.4L85.4,114.4L85.4,113.8L85.1,113.3L85.0,112.6L84.2,110.6L84.2,110.2L83.5,107.9L83.0,106.8L81.6,102.5L81.4,101.7L80.9,100.5L79.8,97.0L79.5,96.7L78.6,94.3L78.6,93.6L78.2,92.9L78.1,92.1L77.4,90.2L77.2,89.3L76.9,88.6L76.7,87.9L76.8,87.4L77.1,87.1L77.3,87.1L78.4,88.1L81.0,91.2L82.3,92.9L83.9,94.7L85.2,96.6L89.0,101.1L89.4,101.1L89.4,100.9L88.8,100.0L88.6,99.4L86.2,95.1L85.9,94.2L81.7,86.7L81.3,85.7L81.3,85.5L81.7,85.2L82.5,85.3L83.4,86.0L84.0,86.7L87.2,89.2L88.0,90.0L88.8,90.6L89.4,91.2L90.9,92.4L91.2,92.8L94.4,95.3L97.0,97.6L97.7,98.4L99.2,99.5L101.5,101.7L102.5,102.4L102.7,102.4L102.7,102.0L101.6,100.9L97.8,96.4L95.9,94.4L94.0,92.1L92.0,90.0L89.6,87.1L88.8,86.3L88.0,85.4L87.6,84.8L85.7,82.5L85.3,81.9L85.3,81.4L85.6,81.1L86.1,81.1L86.9,81.3L89.6,82.9L90.2,83.1L90.4,83.3L91.9,84.0L93.0,84.8L93.5,84.9L96.0,86.4L97.4,87.1L99.9,88.6L102.2,89.7L102.6,89.7L102.1,89.0L101.8,88.9L101.4,88.4L100.4,87.7L99.4,86.7L97.3,85.2L88.5,78.2L87.5,77.1L87.5,76.7L87.6,76.5L88.3,76.5L89.0,76.8L91.3,77.4L91.5,77.5L92.7,77.9L93.3,78.2L95.2,78.7L96.8,79.4L97.8,79.6L97.9,79.8L99.5,80.2L100.8,80.7L102.0,80.9L102.6,81.3L103.2,81.3L103.6,81.6L105.0,82.0L106.1,82.5L107.2,82.7L107.5,82.9L109.4,83.4L111.6,84.4L112.3,84.5L112.9,84.4L112.9,84.2L111.9,83.5L111.4,83.3L110.2,82.6L108.7,82.1L108.2,81.7L105.5,80.3L104.6,80.0L100.7,78.1L100.3,78.0L99.3,77.4L98.6,77.2L95.4,75.5L95.0,75.4L93.0,74.4L91.3,73.4L90.0,72.9L89.4,72.4L89.3,72.0L89.8,71.3L91.3,71.2L94.7,71.7L95.6,71.7L96.7,71.9L100.6,72.1L102.6,72.5L104.1,72.5L104.7,72.7L109.3,73.1L109.4,72.9L109.4,72.6L109.0,72.5L105.4,71.4L104.4,71.3L103.9,71.0L103.6,71.0L100.6,70.1L99.1,69.8L98.5,69.4L97.3,69.2L95.3,68.5L91.9,67.5L91.5,67.2L91.5,66.8L92.0,66.4L96.0,65.9L100.9,65.6L104.3,65.2L106.7,65.2L107.4,65.0L109.4,65.0L112.7,64.7L115.7,64.6L116.7,64.4L117.9,64.4L118.2,64.2L118.1,63.8L116.1,63.6L109.4,63.2L107.3,63.0L103.6,62.9L102.7,62.8L98.6,62.6L97.9,62.5L95.6,62.4L94.6,62.2L92.7,62.2L91.7,62.0L91.3,61.3L91.3,60.5L91.6,60.3L92.6,59.9L95.2,59.3L97.0,58.6L98.4,58.4L99.3,58.0L100.2,57.9L102.3,57.1L104.2,56.7L106.4,56.0L107.5,55.9L108.1,55.5L109.1,55.3L109.4,55.1L109.4,54.9L109.2,54.8L104.8,55.1L104.5,55.3L102.4,55.5L101.6,55.7L99.4,55.8L97.8,56.1L96.0,56.2L94.8,56.4L93.8,56.4L93.5,56.6L91.0,56.8L89.9,56.8L89.7,56.6L89.7,56.3L90.0,56.0L91.8,55.1L92.5,54.7L93.2,54.4L93.7,54.0L94.1,54.0L96.9,52.5L98.5,51.8L102.2,49.8L102.9,49.7L104.4,48.8L109.5,46.4L111.4,45.4L111.7,45.3L115.2,43.7L115.6,43.3L115.7,43.0L115.3,43.0L114.9,43.2L114.5,43.2L112.4,44.0L110.4,44.5L108.3,45.4L103.7,46.9L102.6,47.1L99.4,48.3L98.6,48.4L97.1,49.0L96.1,49.3L95.6,49.6L94.5,49.8L93.2,50.4L92.3,50.5L90.6,51.2L89.8,51.3L89.2,51.7L88.4,51.9L87.6,51.9L87.5,51.7L87.5,51.0L89.0,49.6L90.8,48.4L93.8,45.9L94.3,45.7L97.5,43.2L98.9,42.3L99.4,41.7L101.5,40.3L103.3,38.9L103.7,38.3L103.7,38.2L103.3,38.1L102.3,38.7L99.8,39.9L93.6,43.4L92.8,43.7L91.9,44.3L91.0,44.6L90.6,44.9L86.5,47.1L85.8,47.2L85.3,46.7L85.3,46.4L86.2,45.0L90.9,39.8L91.3,39.1L91.8,38.7L93.3,37.0L95.0,35.1L99.4,30.1L102.0,27.3L103.1,25.9L103.0,25.5L102.5,25.6L101.2,26.7L97.3,30.1L96.5,30.6L95.2,32.0L87.6,38.3L87.3,38.7L85.2,40.4L83.3,42.1L82.2,42.8L81.3,42.8L81.0,42.4L81.0,42.2L81.4,41.3L81.7,40.9L82.4,39.6L84.2,36.4L86.0,32.8L86.4,32.4L89.8,26.1L89.8,25.8L89.4,25.9L78.5,39.3L77.2,40.5L77.1,40.5L76.8,40.3L76.9,39.7L77.1,39.4L77.2,38.8L78.1,36.5L78.2,35.6L78.9,34.0L79.6,31.5L80.4,29.7L80.8,28.2L81.1,27.5L82.1,24.5L82.5,23.5L82.5,23.2L83.1,21.5L83.4,21.0L83.5,20.4L84.2,18.7L84.4,17.5L84.7,17.2L84.8,16.6L85.2,15.5L85.2,15.1L85.6,14.3L85.6,13.6L85.3,13.7L84.6,15.3L84.0,16.2L83.4,17.6L82.1,20.1L81.8,20.5L73.8,36.6L73.2,37.5L72.8,38.4L72.4,38.8L72.0,38.8L71.7,38.6L71.7,37.0L72.1,34.0L72.1,32.9L72.3,32.1L72.4,30.4L72.7,28.9L72.9,25.8L73.3,23.4L73.4,21.2L73.6,20.0L73.6,19.0L73.3,19.0L73.1,19.2L72.9,19.8L72.8,20.6L72.1,22.6L71.5,24.9L70.2,29.2L69.8,30.1L69.7,31.1L68.1,36.3L67.8,36.7L67.4,37.0L66.9,36.9L66.5,36.6L66.3,36.1L66.3,35.5L66.1,35.3L65.9,29.7L65.6,28.4L65.7,27.0L65.6,24.7L65.5,24.2L65.5,22.0L65.3,20.9L65.2,18.4L65.1,17.8L64.9,12.6L64.8,11.3L64.8,10.4Z M64.0,36.7L64.7,36.7L65.5,37.1L67.1,37.7L68.4,38.4L70.0,39.0L71.3,39.7L72.0,39.8L72.3,40.1L73.3,40.4L73.6,40.6L75.5,41.3L77.0,42.0L77.5,42.1L77.9,42.4L79.4,42.8L80.1,43.2L80.9,43.4L81.3,43.7L81.8,43.8L82.2,44.1L82.9,44.4L83.6,45.0L84.0,45.9L84.8,48.0L85.6,49.4L86.1,50.9L86.1,51.3L86.8,52.5L87.0,53.2L87.9,55.4L88.3,56.7L89.0,58.2L89.7,60.0L90.3,61.2L90.5,61.9L91.2,63.6L91.2,64.7L90.8,65.8L89.7,68.2L88.6,70.9L87.7,72.6L87.1,74.3L86.4,75.6L86.3,76.3L85.5,77.9L84.4,80.8L84.0,81.4L83.8,82.1L83.3,82.9L82.9,83.3L80.8,84.4L80.6,84.4L75.9,86.5L75.3,86.7L73.1,87.7L72.1,88.0L69.8,89.1L69.4,89.2L68.9,89.5L67.6,89.9L67.0,90.3L66.7,90.3L65.7,90.9L64.6,91.3L63.7,91.3L63.0,91.0L61.7,90.3L59.8,89.7L58.8,89.1L58.6,89.1L57.5,88.6L56.3,88.2L55.9,87.9L54.4,87.4L53.0,86.7L51.3,86.1L50.8,85.7L50.5,85.7L49.0,84.9L47.9,84.7L47.4,84.4L47.1,84.3L45.1,83.3L44.4,82.5L44.3,82.1L43.9,81.3L43.4,80.2L43.4,79.8L41.6,75.9L41.2,74.5L40.5,73.2L40.2,72.2L39.8,71.5L39.7,70.9L39.3,70.2L38.4,67.8L38.1,67.4L37.1,64.4L37.1,63.8L37.5,62.4L39.2,58.6L39.4,57.7L40.6,55.3L41.2,53.6L41.4,53.3L41.6,52.6L42.1,51.8L42.5,50.4L42.8,49.9L43.0,49.3L43.3,48.7L43.4,48.2L43.6,47.9L43.8,47.2L44.7,45.4L45.3,44.8L47.6,43.8L48.2,43.4L49.0,43.2L50.3,42.5L51.1,42.4L54.4,40.8L54.8,40.7L55.2,40.4L55.9,40.1L56.3,39.9L56.8,39.8L58.3,39.0L59.5,38.7L61.0,37.8L62.0,37.6L62.6,37.2Z" fill="#000" fill-rule="evenodd"/>
</svg>