<svg xmlns="http://www.w3.org/2000/svg" viewBox="0 0 128 128" width="128" height="128">
  <path d="M9.3,51.1L9.3,51.3L10.5,52.6L13.8,55.4L19.4,60.8L21.2,62.3L23.1,64.1L25.5,66.1L26.8,67.5L27.2,67.7L31.2,71.6L34.1,74.1L36.0,76.0L38.2,77.9L38.9,78.7L40.0,79.6L44.3,83.7L46.7,85.7L55.2,93.7L56.4,94.6L57.6,96.0L58.8,96.9L62.5,100.5L63.2,100.5L68.9,95.2L73.8,91.0L74.6,90.1L76.0,89.1L76.9,88.1L77.8,87.6L79.3,86.2L79.9,85.8L80.7,84.9L86.2,80.1L86.9,79.7L87.4,79.0L89.0,77.7L91.3,75.6L93.3,74.0L95.9,71.6L96.6,71.2L97.3,70.4L98.1,69.8L103.5,65.0L104.3,64.4L105.6,63.2L106.5,62.7L109.8,59.6L110.7,58.9L111.5,58.1L111.8,58.0L115.1,55.0L116.6,53.9L117.4,53.2L118.1,52.8L118.6,52.1L118.6,52.0L118.2,51.7L117.4,51.6L99.7,51.6L98.1,51.4L96.5,51.4L96.2,51.6L95.1,52.8L93.7,55.0L93.2,55.5L92.0,57.2L91.5,57.6L91.0,58.5L89.2,60.8L88.5,62.0L87.7,62.8L87.4,63.3L87.0,63.7L82.9,69.5L81.9,70.7L81.4,71.5L79.2,74.3L77.6,76.4L76.3,78.0L75.9,78.8L75.0,79.8L74.3,81.1L73.1,82.5L72.4,83.6L71.8,84.2L69.3,87.8L68.7,88.5L67.4,90.5L66.5,91.5L65.2,93.3L64.1,95.1L63.2,95.9L62.7,95.9L62.0,95.3L60.7,93.1L60.0,92.2L55.6,85.9L55.4,85.7L55.2,85.2L54.3,83.9L53.6,83.2L49.8,77.5L48.7,76.2L47.9,74.8L45.7,71.7L45.5,71.3L41.4,65.6L41.1,65.0L40.3,64.0L40.1,63.4L39.4,62.5L38.5,61.1L38.0,60.6L37.2,59.3L35.9,57.7L33.2,53.6L33.1,53.2L31.6,51.2L31.2,51.1L22.0,51.1L21.4,50.9L14.7,51.0L13.9,50.8L10.8,50.8L9.4,50.9Z M82.3,28.6L82.3,29.0L83.7,31.1L84.3,32.1L85.0,33.0L86.0,34.7L86.5,35.2L90.0,40.6L91.3,42.3L93.1,45.2L94.9,47.8L95.3,48.5L95.8,49.0L104.5,49.3L112.6,49.2L113.0,49.4L116.2,49.4L119.0,49.2L119.0,48.9L117.4,47.6L116.6,46.7L115.5,46.0L114.5,45.1L113.8,44.6L110.5,41.6L106.1,38.2L104.8,37.0L103.5,36.0L102.5,35.0L102.0,34.7L98.6,31.9L97.8,31.1L96.9,30.4L94.9,28.5L94.6,28.3L88.9,28.3L82.6,28.4Z M49.1,27.7L48.5,28.1L46.8,30.6L45.6,31.9L44.5,33.6L43.6,34.6L42.3,36.4L42.1,36.6L38.0,42.4L33.4,48.5L33.2,48.8L33.2,49.2L34.8,52.0L35.6,53.0L35.9,53.6L36.7,54.4L37.5,56.0L38.1,56.6L40.0,59.6L41.1,60.8L41.4,61.4L43.5,64.4L44.1,65.2L44.5,66.1L45.9,68.0L46.7,69.3L48.7,72.0L49.1,72.8L50.7,74.8L50.9,75.4L51.8,76.5L52.3,77.4L54.6,80.6L61.3,90.9L62.5,92.4L63.1,92.5L64.0,91.5L65.1,89.9L66.2,88.7L68.1,85.6L71.8,80.9L72.6,79.5L75.2,76.0L77.6,72.4L78.2,71.9L80.1,69.1L82.1,66.5L82.5,65.7L83.7,64.6L84.1,63.8L86.2,60.6L87.3,59.4L88.1,58.1L89.9,55.9L90.5,54.8L91.1,54.3L91.5,53.6L92.9,51.9L93.8,50.4L93.8,49.8L92.7,48.4L91.7,46.6L90.5,45.1L90.3,44.7L89.3,43.5L88.6,42.4L87.9,41.6L87.7,41.1L86.5,39.5L86.0,38.3L85.5,37.8L85.1,37.1L84.4,36.2L84.0,35.4L83.0,34.1L82.9,33.7L81.6,32.0L81.3,31.5L80.1,29.8L79.7,28.6L79.3,28.3L77.5,28.1L72.3,28.1L64.8,27.9L62.1,27.9L59.2,27.8L57.1,27.9L55.5,27.7Z M45.6,28.2L45.3,27.9L34.7,27.9L33.6,27.7L32.9,27.7L32.5,27.9L29.0,31.4L27.5,32.4L26.5,33.5L24.7,34.7L23.7,35.8L21.4,37.6L17.0,41.5L16.2,41.9L15.2,43.0L14.2,43.6L11.2,46.3L10.5,46.7L9.2,47.9L9.3,48.3L10.4,48.5L15.4,48.4L23.5,48.6L23.8,48.7L30.5,48.6L30.9,48.4L33.4,45.2L34.0,44.1L35.2,42.7L35.9,41.6L36.7,40.7L37.6,39.1L38.4,38.3L38.5,37.9L38.8,37.6L39.0,37.2L41.1,34.7L41.5,33.9L42.3,33.1L42.8,32.1L45.1,29.3Z" fill="#000" fill-rule="evenodd"/>
</svg>