<svg xmlns="http://www.w3.org/2000/svg" viewBox="0 0 128 128" width="128" height="128">
  <path d="M13.7,9.5L13.4,9.8L13.2,10.6L13.1,11.5L13.1,45.6L12.9,57.1L13.0,60.0L12.6,70.6L12.6,75.2L12.4,78.5L12.5,85.1L12.3,87.5L12.4,105.9L12.2,108.4L12.4,109.4L12.3,112.6L12.5,118.5L13.0,118.8L32.3,119.1L53.1,119.1L57.9,118.9L64.5,118.9L65.6,119.1L85.6,119.0L89.2,118.8L97.5,119.0L99.9,118.8L106.4,118.9L108.6,118.7L113.2,118.7L115.0,118.6L115.3,118.2L115.5,114.8L115.5,108.8L115.7,103.2L115.7,90.4L115.8,87.8L115.8,84.6L115.9,65.4L115.8,62.6L115.9,57.8L115.8,49.9L116.0,44.3L115.8,43.6L115.9,29.8L115.8,24.9L115.8,9.9L115.4,9.6L115.1,9.5L103.6,9.5L100.6,9.3L88.8,9.3L81.8,9.3L78.4,9.2L73.9,9.3L58.6,9.3L55.7,9.2L44.5,9.2L34.1,9.3L21.1,9.3Z M58.9,77.3L60.8,77.4L61.6,77.2L63.6,77.2L65.9,77.4L66.2,77.6L66.4,78.0L66.2,80.8L65.9,81.9L65.9,82.8L65.6,84.4L65.5,86.0L64.7,91.8L64.7,92.6L64.2,95.4L64.2,96.6L63.9,98.2L63.8,100.0L63.4,102.5L62.9,107.6L62.8,108.2L62.2,108.7L61.5,108.7L61.1,108.4L60.6,105.7L60.6,104.5L60.3,103.2L60.3,100.8L60.1,99.9L60.1,98.6L59.8,96.2L59.6,93.4L59.3,92.2L59.3,89.5L59.0,86.7L58.8,86.0L58.8,84.9L58.6,83.7L58.6,82.2L58.3,78.9L58.3,77.9L58.6,77.5Z M54.1,71.5L54.5,71.0L56.1,70.8L70.1,70.9L70.5,71.2L70.6,71.6L70.6,74.8L70.6,75.1L70.2,75.5L69.6,75.8L54.8,75.7L54.5,75.6L54.1,75.1Z M88.4,42.3L88.6,42.5L88.6,44.1L88.4,45.7L88.3,46.1L87.7,49.7L87.4,50.3L86.8,52.7L86.2,54.1L86.0,54.8L85.6,55.4L85.3,56.4L83.2,59.9L81.3,62.4L79.5,64.1L79.0,64.4L77.3,65.8L76.0,66.6L75.5,66.7L74.9,67.2L74.4,67.2L73.9,67.6L73.3,67.7L72.1,68.2L69.8,68.7L66.7,69.0L65.4,68.9L65.1,68.2L65.1,67.4L65.3,65.5L65.6,64.9L65.6,64.3L66.2,62.3L66.7,60.9L67.0,60.7L67.4,59.8L69.2,57.4L70.7,56.0L73.8,53.8L76.8,52.2L77.5,51.6L79.0,51.0L83.6,48.1L84.9,47.0L86.6,45.1L88.0,42.5L88.2,42.3Z M70.1,38.8L70.2,38.7L70.7,38.7L71.1,39.1L71.0,39.4L70.6,39.5L70.2,39.3L70.1,39.2Z M48.6,37.4L48.8,37.4L49.1,37.8L49.7,38.7L50.9,41.2L51.8,43.9L51.7,45.0L50.5,47.5L49.1,51.0L48.7,52.9L48.5,55.4L49.0,58.8L49.5,59.7L49.5,60.2L50.0,61.0L50.0,61.3L51.1,63.1L53.0,65.2L55.7,67.4L56.2,67.5L56.9,68.0L57.4,68.2L57.7,68.6L57.6,68.9L57.4,69.0L54.9,69.0L52.1,68.5L49.3,67.4L48.3,66.7L47.8,66.6L45.6,64.9L44.6,63.9L43.1,61.8L42.2,59.8L41.7,58.0L41.7,55.2L41.8,53.5L42.0,53.2L42.2,51.7L42.4,51.5L42.7,50.6L43.0,50.1L43.6,48.6L44.6,46.9L47.3,41.4L48.1,39.3L48.3,38.0Z M77.1,34.8L77.5,35.1L78.0,36.7L79.5,41.9L79.9,46.3L79.9,48.1L79.7,48.5L78.9,49.1L76.5,50.3L76.1,50.6L75.1,51.0L71.8,53.1L68.7,55.7L67.7,56.7L66.3,58.6L64.8,61.5L64.7,62.1L64.4,62.7L64.2,64.3L64.0,64.7L63.7,67.5L63.5,67.7L63.1,67.7L62.5,66.7L61.5,63.9L61.1,62.4L60.8,59.8L60.8,58.8L61.1,56.2L62.0,53.5L63.0,51.5L64.9,49.0L66.9,46.8L69.8,44.1L72.3,41.3L72.5,41.0L73.9,39.4L74.2,38.7L75.3,37.4L76.5,35.3L76.6,35.0Z M65.8,27.9L66.5,28.9L66.7,29.7L67.3,31.1L67.6,32.2L68.0,33.1L68.1,33.7L69.5,38.1L69.8,39.4L70.0,41.0L69.8,41.6L66.7,44.6L63.9,47.7L61.3,51.3L60.3,53.1L59.7,54.9L59.3,56.4L59.1,59.8L59.2,61.3L59.6,62.8L59.7,63.8L60.1,64.6L60.6,66.2L61.5,67.7L61.5,68.3L60.8,68.4L59.7,68.0L57.7,67.0L56.7,66.3L54.4,64.5L52.5,62.4L51.5,60.8L50.5,58.3L50.0,55.6L50.1,53.6L50.8,50.9L51.5,49.5L51.6,48.6L52.5,46.9L55.1,42.8L56.9,40.7L58.2,38.8L59.5,37.3L60.3,36.1L61.0,35.3L63.0,32.5L64.7,29.6L65.2,28.1L65.4,27.9Z" fill="#000" fill-rule="evenodd"/>
</svg>