<svg xmlns="http://www.w3.org/2000/svg" viewBox="0 0 128 128" width="128" height="128">
  <path d="M49.9,120.2L50.6,120.2L50.9,120.1L52.3,120.2L51.8,119.8L51.4,119.6L50.4,119.8L50.1,119.9Z M46.5,120.2L47.2,120.2L47.5,120.1L48.9,120.2L48.5,119.8L48.1,119.6L47.0,119.7L46.6,120.0Z M43.2,120.1L43.2,120.2L43.8,120.2L44.1,120.1L44.5,120.1L44.7,120.2L45.4,120.2L44.9,119.7L44.5,119.6L43.5,119.8Z M63.6,72.0L63.3,72.1L63.0,72.6L62.2,74.9L60.1,79.3L59.0,82.2L58.1,83.9L58.0,84.4L57.5,84.8L56.8,85.2L55.8,85.4L54.4,85.9L53.7,86.0L51.9,86.7L51.2,86.8L50.9,87.0L49.0,87.4L48.3,87.6L47.3,87.9L46.6,88.2L46.2,88.2L45.7,88.4L44.9,88.6L44.7,88.8L44.7,89.1L45.6,89.6L46.1,89.7L46.8,90.1L47.8,90.5L48.0,90.7L49.7,91.3L50.4,91.7L51.4,92.1L51.8,92.4L52.4,92.5L53.2,93.1L54.0,93.3L54.7,93.6L54.9,93.6L55.4,94.0L55.8,94.1L56.4,94.7L56.7,95.5L56.8,96.6L57.2,97.6L57.3,98.8L57.5,99.1L57.6,100.3L58.2,102.8L58.4,104.2L58.7,104.9L58.7,105.8L59.2,107.5L59.5,109.8L59.8,110.6L60.2,113.2L60.6,114.2L60.6,115.2L60.8,116.0L60.9,116.8L61.2,117.5L61.3,118.5L61.5,119.1L61.8,119.1L62.2,118.1L63.0,114.9L63.6,113.4L63.8,112.1L64.4,110.5L64.6,109.1L64.9,108.4L65.2,107.0L66.0,104.5L66.2,103.2L66.9,101.3L67.0,100.8L67.4,99.8L67.8,98.0L68.1,97.3L68.1,96.5L68.6,95.2L69.1,94.9L70.0,94.5L71.9,93.9L72.6,93.5L73.1,93.5L73.4,93.3L74.0,93.1L75.5,92.5L76.4,92.3L76.7,92.1L78.4,91.5L78.8,91.3L79.6,91.2L79.9,90.9L80.7,90.7L81.1,90.3L81.1,90.2L80.7,89.8L80.3,89.6L79.9,89.5L79.5,89.3L79.2,89.3L78.9,89.2L78.6,88.9L77.7,88.7L76.4,88.1L75.9,88.0L71.2,86.1L70.4,85.9L70.1,85.7L68.6,85.1L68.1,84.7L67.9,84.3L67.0,81.5L66.4,80.1L66.1,78.9L65.9,78.6L65.5,77.3L65.1,76.3L64.1,72.9Z M76.7,49.8L76.1,49.8L75.6,50.0L74.5,51.3L73.6,52.9L72.2,55.1L71.2,56.9L69.8,58.9L69.3,59.8L67.4,62.6L67.0,63.5L66.9,63.8L66.2,64.8L65.8,65.6L65.8,66.1L65.4,66.9L65.3,67.7L65.1,68.5L65.1,69.9L65.3,71.3L65.7,72.0L66.0,73.2L67.4,76.5L67.7,76.7L68.0,77.5L68.6,78.4L69.4,80.1L69.8,80.6L70.3,81.4L71.4,82.8L71.8,83.5L72.9,84.7L73.3,85.0L74.0,85.0L74.7,84.6L76.4,82.7L78.5,79.8L79.0,79.0L79.3,78.7L79.5,78.2L80.1,77.5L80.6,76.5L82.1,74.2L82.6,73.0L82.8,72.7L83.3,72.0L83.4,71.5L84.7,68.8L84.7,68.4L84.4,68.2L83.9,68.2L83.7,68.4L82.5,70.7L81.4,72.3L80.9,73.2L79.5,75.1L78.3,76.3L77.7,76.8L77.3,76.8L76.9,76.7L76.3,76.1L76.2,75.8L75.9,75.4L75.5,74.2L74.8,73.2L74.7,72.7L74.3,72.0L74.1,71.8L73.9,71.2L73.5,70.6L73.1,69.6L72.9,69.2L72.6,68.5L72.1,67.5L72.0,67.2L71.4,66.0L71.3,65.6L71.0,65.0L70.8,63.5L71.0,61.6L71.2,61.4L71.3,60.6L71.8,59.5L72.3,58.9L72.6,58.8L73.0,59.1L73.3,59.7L73.9,60.6L74.2,61.4L74.7,62.1L75.5,63.9L75.8,64.2L76.4,65.8L77.1,66.8L77.1,67.2L77.4,68.3L77.6,69.1L77.5,70.7L76.8,72.3L76.9,72.9L77.1,73.2L77.5,73.2L78.3,72.4L79.2,71.1L80.4,69.7L82.1,66.8L82.5,65.4L82.5,63.3L82.2,61.8L81.9,61.2L81.8,60.0L81.4,59.3L81.4,59.0L81.1,58.3L81.0,57.9L80.4,56.5L80.2,55.9L79.3,54.2L79.1,53.5L77.6,50.8L77.2,50.2Z M59.8,25.6L59.5,25.8L59.1,26.5L58.0,27.8L57.9,28.2L57.3,29.0L55.3,31.9L55.1,32.3L53.9,34.0L53.7,34.5L52.5,36.0L52.2,36.7L51.8,37.2L51.6,37.8L50.9,38.7L50.4,39.8L50.1,40.2L49.2,42.3L48.5,44.6L48.5,45.2L48.3,46.4L48.3,48.3L48.6,49.8L49.0,51.0L49.0,51.3L49.3,52.1L49.9,54.1L50.5,55.1L50.5,55.7L47.8,59.1L47.1,59.8L45.5,61.9L44.4,64.0L43.6,66.3L43.6,69.2L44.7,72.4L46.4,75.6L47.6,77.3L47.9,78.0L49.0,79.5L50.2,80.8L50.4,81.3L52.7,83.7L53.2,84.0L54.1,83.9L54.6,83.6L55.4,82.5L55.4,82.2L56.3,80.9L58.1,77.7L58.5,77.2L59.4,75.3L60.1,74.4L60.4,73.5L60.8,73.0L62.2,70.3L62.9,68.3L63.4,65.9L63.3,63.4L62.6,61.0L62.4,60.7L62.2,60.0L62.0,59.6L61.6,58.5L60.8,56.9L60.4,55.8L58.9,52.9L58.8,52.3L58.2,51.2L57.7,49.7L57.5,49.4L56.9,47.8L56.6,47.4L55.6,44.1L55.1,41.7L55.1,39.9L55.3,39.2L55.4,37.8L56.0,35.8L56.0,35.4L56.5,34.4L56.9,33.0L57.1,32.7L57.3,32.0L58.0,30.7L58.4,29.3L59.2,28.0L59.2,27.8L59.9,26.5L60.1,25.7Z M50.9,57.4L51.4,57.4L51.5,57.5L53.5,61.1L53.8,61.9L54.4,62.7L55.4,65.1L56.4,66.8L57.5,69.7L58.0,71.1L58.0,73.7L57.3,75.8L57.0,76.1L56.6,76.1L56.1,75.4L55.2,73.9L53.8,71.8L53.5,71.2L52.3,69.6L51.7,68.0L51.1,67.1L50.9,66.4L50.2,65.3L50.2,64.9L49.9,64.5L49.7,63.6L49.4,63.1L49.2,62.2L49.3,60.5L49.6,59.5L49.9,58.9Z M61.7,8.9L61.5,9.1L61.6,9.5L62.8,11.2L63.3,12.2L63.9,13.9L64.1,14.5L64.1,15.6L64.3,16.5L64.2,18.8L63.4,22.2L62.8,23.7L62.2,25.5L61.8,26.3L61.0,28.1L60.7,28.5L59.9,30.6L58.8,32.6L58.4,33.6L58.0,34.9L57.3,36.7L56.7,39.9L56.8,42.0L57.2,43.8L59.3,49.8L59.9,50.9L60.8,53.3L61.2,54.0L61.8,55.7L62.7,57.2L63.4,59.2L64.5,61.2L65.1,61.9L65.9,61.9L66.2,61.8L66.9,60.9L67.4,60.0L68.5,58.6L69.1,57.5L70.9,55.0L71.5,53.9L71.8,53.2L72.9,51.5L73.8,49.8L75.0,46.8L75.2,45.5L75.5,44.9L75.5,41.3L75.0,39.4L74.3,37.9L73.6,36.8L72.3,35.4L71.1,34.2L69.6,33.2L68.6,32.6L68.2,32.2L68.2,31.9L69.3,29.0L69.6,26.4L69.6,23.5L69.4,22.1L69.2,21.6L69.0,20.5L68.6,19.8L68.1,18.2L67.4,16.9L67.4,16.5L67.0,15.8L66.7,15.5L65.8,13.8L65.3,13.2L65.1,12.7L63.9,11.1L63.3,10.5L62.8,9.7L62.2,9.1Z M67.8,33.7L68.1,33.9L68.8,34.5L69.6,35.8L70.0,37.4L70.0,39.8L69.1,42.0L68.8,42.7L68.6,43.3L68.2,44.1L68.0,44.4L67.5,45.6L67.2,45.9L65.8,49.1L65.1,50.1L64.6,51.4L64.0,52.2L63.8,52.8L63.3,53.4L63.2,53.4L62.8,53.1L62.6,52.5L62.2,50.8L62.2,48.6L62.4,47.8L62.5,46.5L62.8,45.8L62.9,44.9L63.2,44.5L64.1,41.3L64.4,41.1L65.4,38.4L65.7,38.0L65.7,37.8L66.0,37.3L66.6,35.5L66.9,35.1L67.2,34.1L67.5,33.7Z" fill="#000" fill-rule="evenodd"/>
</svg>