<svg xmlns="http://www.w3.org/2000/svg" viewBox="0 0 128 128" width="128" height="128">
  <path d="M63.7,32.0L62.3,32.8L59.5,34.8L55.7,38.5L53.1,41.5L51.5,43.6L49.3,47.4L47.9,50.5L46.3,55.3L45.4,59.1L44.9,62.9L44.9,65.4L45.0,69.5L45.2,70.1L45.3,72.1L45.9,74.8L46.6,77.7L46.9,78.3L48.0,81.5L48.6,82.7L49.0,83.8L51.5,88.1L54.0,91.5L57.5,95.3L60.5,97.9L62.2,99.1L62.6,99.5L62.6,99.6L62.4,99.9L53.5,99.9L41.8,99.6L31.3,99.6L30.5,99.7L30.2,100.0L30.2,100.2L30.7,101.3L31.2,101.8L33.4,104.7L34.4,105.9L37.2,108.6L39.9,111.0L41.9,112.4L45.4,114.5L46.3,114.9L46.9,115.1L47.2,115.3L47.9,115.5L49.0,116.2L53.0,117.5L54.0,117.7L55.2,118.1L58.0,118.5L59.1,118.9L61.2,118.9L63.1,119.2L65.9,119.2L69.4,118.9L73.5,118.1L73.7,117.9L74.3,117.9L76.9,117.0L78.0,116.8L78.6,116.4L79.4,116.2L80.3,115.8L80.5,115.5L84.4,113.6L84.5,113.5L85.0,113.3L86.1,112.5L87.5,111.7L91.6,108.2L92.9,106.9L95.2,104.3L96.6,102.4L96.7,102.1L97.5,101.0L97.6,100.5L97.3,100.2L86.1,100.0L86.0,99.8L86.2,99.0L86.3,88.6L86.5,88.2L86.8,88.0L87.8,87.9L97.6,87.8L97.9,87.5L97.9,86.9L97.9,85.2L98.0,82.4L98.0,78.6L97.6,78.2L96.6,78.1L86.8,78.0L86.4,77.5L86.3,76.4L86.5,72.4L86.5,67.3L86.2,66.7L85.8,66.5L84.3,66.4L77.3,66.4L76.9,66.5L76.7,66.7L76.5,67.5L76.4,76.4L76.3,77.6L75.8,78.0L67.5,77.8L65.2,77.9L64.7,78.3L64.6,78.6L64.5,83.2L64.5,83.4L64.2,83.4L64.2,77.8L64.4,62.8L64.3,59.4L64.5,58.8L64.5,37.8L64.3,32.3L64.2,32.0Z M64.5,84.8L64.6,87.2L64.9,87.7L65.3,87.8L76.0,87.9L76.3,88.2L76.3,92.5L76.2,98.9L76.5,99.6L76.3,99.9L65.4,100.0L64.5,99.9L64.1,99.5L64.2,85.4Z M65.4,9.1L64.8,9.1L64.6,9.2L64.5,9.6L64.5,25.8L64.5,31.2L64.8,31.6L65.5,31.4L66.2,30.9L68.0,29.1L69.3,27.4L69.8,26.6L70.9,23.7L71.3,21.0L71.2,18.2L70.7,16.2L70.2,15.0L69.3,13.2L68.3,11.7L66.7,10.0Z" fill="#000" fill-rule="evenodd"/>
</svg>