<svg xmlns="http://www.w3.org/2000/svg" viewBox="0 0 128 128" width="128" height="128">
  <path d="M16.4,119.7L18.4,119.7L17.5,119.3L16.8,119.4Z M12.3,119.7L14.6,119.7L14.0,119.3L12.7,119.3Z M8.5,119.7L10.7,119.7L9.9,119.3L9.3,119.3Z M60.5,9.7L55.3,10.4L55.0,10.5L52.8,10.8L50.2,11.6L49.8,11.6L48.9,12.0L48.0,12.1L47.6,12.4L46.6,12.6L46.2,12.8L45.5,13.0L43.1,13.9L37.1,16.7L33.4,19.0L29.1,22.1L27.3,23.5L23.8,27.1L23.4,27.6L21.3,29.9L18.0,34.3L15.5,38.6L13.2,43.4L13.0,44.3L12.3,45.7L12.0,46.9L11.3,48.8L11.3,49.2L10.0,54.2L9.8,56.4L9.5,57.8L9.1,62.6L9.2,67.2L9.4,68.2L9.5,70.4L9.7,71.2L9.9,73.0L10.4,75.7L11.7,80.6L12.7,83.4L13.9,85.9L14.0,86.6L15.8,90.2L16.9,91.9L17.2,92.2L17.8,93.3L18.9,95.1L20.2,96.7L21.2,98.1L23.9,101.3L27.8,105.0L28.6,105.5L30.5,107.2L31.5,107.8L33.4,109.3L34.1,109.7L35.3,110.6L36.9,111.3L37.5,111.8L39.4,112.8L44.4,115.0L45.0,115.0L45.8,115.4L47.6,115.9L48.4,116.3L50.1,116.7L51.2,117.1L52.0,117.2L53.4,117.6L54.1,117.6L57.3,118.2L58.4,118.2L59.1,118.4L61.6,118.5L62.2,118.6L66.0,118.6L67.7,118.4L69.4,118.4L71.6,118.1L73.0,117.8L74.1,117.7L75.1,117.4L76.5,117.2L81.7,115.8L82.3,115.4L83.9,115.0L86.2,114.1L88.1,113.0L89.3,112.6L89.5,112.4L90.7,111.8L91.2,111.3L92.4,110.8L93.5,110.0L94.6,109.4L98.7,106.3L103.4,102.1L104.8,100.4L106.7,98.4L108.1,96.5L108.5,95.9L109.0,95.3L110.2,93.4L110.8,92.6L111.0,92.1L111.9,90.8L112.9,88.7L113.2,88.5L114.6,85.5L114.7,85.0L115.2,84.1L116.1,81.8L116.2,81.2L116.9,79.3L117.8,75.6L118.3,73.0L118.5,72.4L118.5,71.3L118.9,68.8L119.1,65.7L119.0,60.5L118.9,59.7L118.6,56.4L118.3,55.1L118.2,53.8L117.9,52.7L117.7,51.5L117.4,50.6L117.3,49.9L116.7,47.8L116.5,47.4L115.6,44.7L115.1,43.8L114.6,42.2L113.8,40.7L113.3,39.4L112.4,37.8L111.7,36.4L110.7,35.1L110.4,34.3L107.3,30.1L105.6,28.1L103.7,26.1L100.5,23.0L98.9,21.9L97.2,20.3L96.8,20.1L94.6,18.6L94.0,18.2L93.7,17.9L93.2,17.8L92.2,17.0L90.9,16.5L88.7,15.2L88.3,15.1L87.9,14.8L87.2,14.6L85.8,13.8L84.0,13.2L82.5,12.6L81.2,12.2L80.6,11.9L75.9,10.7L72.0,10.1L70.7,9.8L66.5,9.8L66.1,10.4L66.0,12.6L66.2,14.8L66.2,16.5L66.6,18.5L66.8,20.2L67.2,21.4L67.3,22.5L67.7,23.4L68.2,25.2L69.4,28.0L70.2,29.4L70.9,31.0L71.6,31.7L72.0,32.6L72.9,33.9L75.1,36.7L78.4,40.0L81.6,42.6L83.9,44.0L84.6,44.6L86.7,46.0L87.5,46.7L88.0,46.9L89.6,48.5L90.0,48.7L93.3,52.3L96.3,56.5L98.8,61.4L98.8,61.6L100.2,65.1L100.5,66.9L101.0,68.4L101.1,70.0L101.6,72.3L101.8,75.7L101.7,78.7L101.4,80.2L101.2,82.3L100.7,85.0L100.4,85.5L100.2,86.8L99.2,89.6L97.9,92.5L95.5,96.8L94.1,98.7L92.0,101.1L89.3,103.8L85.7,106.7L83.8,107.7L82.7,108.5L82.3,108.6L81.6,109.1L78.9,110.4L77.5,110.8L76.2,111.5L73.3,112.2L73.0,112.4L72.1,112.4L71.4,112.7L70.7,112.7L69.7,112.9L66.4,113.3L62.5,113.3L57.7,112.8L52.9,111.7L49.4,110.5L48.7,110.1L46.1,108.9L45.3,108.4L44.6,108.0L40.2,105.0L36.5,101.7L33.0,97.4L31.5,95.2L30.9,94.0L30.0,92.6L28.9,90.3L28.2,88.3L28.0,88.0L26.7,83.4L26.2,80.7L26.0,78.4L25.9,74.1L26.1,72.4L26.1,71.3L26.5,69.9L26.7,68.0L26.9,67.3L26.9,66.9L27.3,66.0L27.6,64.6L29.3,60.0L29.9,59.0L30.4,58.0L33.0,53.9L33.6,53.3L34.3,52.1L36.8,49.5L39.0,47.4L42.5,44.7L48.6,40.8L49.0,40.4L49.5,40.2L50.3,39.3L51.4,38.6L54.8,34.9L55.1,34.4L57.0,32.0L57.3,31.4L58.4,29.7L58.6,29.0L58.9,28.7L59.4,27.8L59.5,27.2L59.8,26.9L59.8,26.7L61.2,23.3L61.5,21.7L61.6,21.5L61.9,20.4L62.1,20.0L62.6,16.8L62.8,13.8L62.9,13.2L62.8,10.1L62.5,9.9L62.0,9.7Z" fill="#000" fill-rule="evenodd"/>
</svg>