<svg xmlns="http://www.w3.org/2000/svg" viewBox="0 0 128 128" width="128" height="128">
  <path d="M69.4,9.3L66.4,9.2L64.7,9.2L63.2,9.5L62.7,10.0L62.7,10.9L63.3,13.5L63.8,14.6L64.5,17.1L65.3,18.6L65.4,19.0L66.7,21.4L68.0,24.0L68.7,25.0L69.0,25.8L70.5,28.0L71.1,29.1L72.1,30.4L72.6,31.6L73.5,32.8L74.4,34.5L77.3,38.5L78.1,40.0L80.4,43.2L81.0,44.4L81.6,45.1L81.8,45.6L84.5,48.8L86.1,51.2L88.3,53.8L89.8,56.2L90.6,57.0L90.8,57.5L93.4,60.6L95.1,63.2L96.3,64.7L98.7,70.1L100.0,74.0L100.1,75.1L100.7,77.1L100.9,79.5L100.9,83.5L100.7,85.1L100.6,85.6L100.3,87.7L99.9,89.0L99.8,89.9L99.6,90.4L99.4,91.3L99.0,92.2L99.0,92.6L98.1,94.9L97.6,95.6L97.5,96.0L96.9,97.0L96.2,97.9L94.4,101.2L93.7,102.1L92.4,103.4L91.7,104.4L90.8,105.1L89.0,107.1L87.9,107.9L86.6,109.1L85.9,109.6L84.4,110.3L83.9,110.7L83.4,110.9L82.2,111.7L78.9,113.4L77.0,114.1L75.8,114.7L74.4,115.0L74.0,115.2L71.9,115.7L70.8,115.8L69.8,116.2L68.4,116.2L67.6,116.5L66.3,116.5L65.6,116.6L63.8,116.6L60.5,116.2L58.4,116.1L57.7,115.9L55.2,115.4L54.6,115.1L51.8,114.2L51.1,113.8L49.4,113.2L46.4,111.7L45.0,110.7L43.9,110.3L43.2,109.6L41.9,108.7L39.2,106.2L37.4,103.9L36.0,102.2L34.2,99.3L31.9,94.0L31.7,93.1L31.5,92.6L30.9,90.3L30.6,89.5L29.9,86.0L29.7,84.1L29.7,81.4L30.1,79.8L30.1,78.6L30.6,75.2L30.9,74.4L31.5,72.1L31.8,71.5L32.6,69.0L33.8,66.5L34.1,66.1L35.6,63.0L37.7,60.0L37.9,59.4L39.5,57.1L40.5,55.2L41.9,53.3L42.2,52.6L43.1,51.3L43.6,50.2L43.8,49.9L45.0,47.7L45.9,46.5L46.4,45.3L47.1,44.4L47.3,43.7L48.2,42.0L48.7,41.2L49.6,39.3L50.5,38.1L50.9,36.9L51.8,35.3L52.8,32.9L53.9,30.9L54.1,30.2L55.4,27.7L56.9,23.8L57.2,23.3L57.3,22.8L58.0,21.4L58.4,20.0L59.1,18.5L60.4,14.9L60.6,13.6L60.9,12.7L61.1,10.1L60.7,9.6L56.3,9.8L54.9,10.2L53.2,10.5L52.3,10.8L51.5,10.9L50.0,11.4L48.2,11.8L46.0,12.5L42.3,14.0L40.3,15.0L39.2,15.5L39.0,15.7L37.0,16.7L32.9,19.4L29.9,21.6L26.5,24.5L22.9,28.4L20.7,31.0L20.3,31.7L19.7,32.5L18.7,33.9L18.4,34.4L18.0,35.0L15.5,39.3L13.5,43.5L12.1,47.4L12.1,48.0L11.6,49.2L10.7,52.6L10.7,53.1L10.3,54.7L9.8,57.0L9.4,62.4L9.5,67.9L10.3,74.2L11.7,79.7L12.9,83.4L14.0,86.3L16.5,91.3L17.3,92.5L17.5,93.0L18.0,93.6L18.4,94.6L20.5,97.3L21.6,99.0L24.7,102.6L26.6,104.4L29.8,107.3L32.5,109.1L33.4,109.8L35.1,110.9L35.4,111.0L35.5,111.2L37.0,112.1L37.7,112.4L38.1,112.7L38.5,112.8L39.8,113.6L42.2,114.6L42.8,115.0L43.3,115.1L43.8,115.4L44.8,115.7L45.2,115.9L47.9,116.8L53.5,118.2L57.8,118.8L59.8,118.9L60.7,119.1L65.8,119.1L68.7,118.9L69.9,118.7L72.1,118.5L72.9,118.3L74.3,118.1L75.2,117.8L76.2,117.7L78.5,117.1L79.0,116.9L81.6,116.1L82.6,115.7L83.9,115.3L86.1,114.3L88.1,113.4L88.9,112.8L91.6,111.4L94.2,109.8L95.6,108.7L97.9,107.1L101.3,104.2L106.0,99.3L107.1,97.6L108.2,96.3L110.5,93.0L111.9,90.2L112.2,89.9L114.7,84.5L115.2,82.9L116.2,80.5L116.2,80.1L116.8,78.6L117.2,76.7L117.6,75.5L118.5,69.7L118.8,63.8L118.7,59.7L118.6,59.0L118.3,56.0L117.9,54.2L117.8,53.0L116.6,47.9L115.0,43.3L111.8,36.4L111.3,35.8L110.7,34.7L108.7,31.6L107.5,30.0L106.9,29.5L106.4,28.6L101.9,23.8L98.6,20.9L94.4,17.9L90.5,15.5L87.5,14.1L87.1,14.0L86.8,13.7L85.2,13.2L84.5,12.8L83.8,12.6L83.4,12.3L80.4,11.4L79.0,11.2L77.9,10.8L77.5,10.8L76.5,10.4L74.5,10.0Z" fill="#000" fill-rule="evenodd"/>
</svg>