<svg xmlns="http://www.w3.org/2000/svg" viewBox="0 0 128 128" width="128" height="128">
  <path d="M11.2,71.7L11.4,73.7L12.9,80.3L13.9,82.7L13.9,82.9L14.1,83.1L14.6,84.9L15.7,87.3L17.1,89.8L17.1,90.2L17.5,90.7L18.1,91.9L18.5,92.4L18.8,93.2L22.0,97.7L24.3,100.5L27.9,104.3L28.6,104.8L30.5,106.7L32.1,107.9L33.1,108.9L36.4,111.1L41.5,114.0L44.1,115.2L46.4,116.0L46.6,116.1L49.5,117.1L50.4,117.3L50.7,117.4L55.8,118.5L60.7,119.1L62.4,119.1L62.5,119.0L62.6,118.7L62.0,118.3L60.6,118.1L57.4,117.2L55.6,116.5L52.9,114.7L50.9,113.1L49.7,111.9L47.9,109.5L46.7,107.8L46.1,106.4L45.9,105.7L45.7,105.3L44.7,102.4L44.2,99.7L44.2,96.1L44.3,94.5L44.7,93.0L45.0,91.5L46.1,88.6L46.4,88.2L46.5,87.8L47.5,86.1L48.2,85.3L48.8,84.4L50.1,82.7L51.6,81.3L51.7,81.3L52.2,80.7L54.7,78.6L56.3,77.1L58.5,74.8L59.5,73.4L60.4,72.6L60.7,71.8L62.4,68.9L63.5,66.8L63.6,66.3L63.9,65.9L64.3,65.9L64.6,66.3L64.8,66.8L65.2,67.6L65.4,68.2L66.4,70.1L67.1,71.0L67.3,71.5L67.7,72.0L67.9,72.5L69.6,74.9L71.8,77.4L77.9,83.6L79.2,85.2L81.3,88.1L82.1,89.8L83.3,93.4L83.8,95.6L83.9,97.7L83.8,101.0L83.0,104.3L82.4,106.0L81.9,106.8L81.5,108.0L80.7,109.1L80.1,110.3L79.3,111.2L78.1,112.5L75.9,114.4L73.9,115.8L71.0,117.2L69.9,117.5L69.8,117.7L69.2,117.7L67.9,118.2L67.0,118.3L66.5,118.5L66.3,118.7L66.3,119.0L66.7,119.1L72.5,118.7L73.6,118.3L74.7,118.2L76.3,117.8L76.8,117.8L78.6,117.3L79.6,116.9L80.5,116.8L80.9,116.5L84.0,115.5L84.3,115.3L87.5,113.9L89.6,112.8L90.2,112.6L91.6,111.6L92.0,111.2L92.9,110.9L95.6,109.1L100.0,105.4L102.9,102.5L106.3,98.6L108.6,95.3L109.2,94.3L110.1,92.9L110.3,92.4L110.7,91.9L112.6,88.3L113.0,87.0L113.8,85.5L114.1,84.4L114.7,82.9L116.1,78.3L116.2,77.5L116.6,76.1L116.7,74.5L117.1,73.5L117.1,73.0L116.8,72.7L116.3,72.9L115.3,75.7L114.4,77.8L112.9,80.1L110.3,83.1L108.8,84.4L106.8,85.8L103.9,87.3L103.2,87.4L102.7,87.7L101.4,88.1L98.8,88.5L95.5,88.5L94.3,88.3L93.0,88.2L91.6,87.9L87.9,86.4L85.9,85.4L83.3,83.2L82.4,82.3L80.1,79.5L78.1,75.8L77.6,74.5L77.4,73.3L76.9,72.1L76.8,70.8L76.8,70.2L76.7,69.5L76.8,65.8L77.2,62.9L77.8,60.9L78.4,59.5L79.5,57.3L79.4,56.7L79.2,56.6L78.7,56.7L77.1,58.3L76.1,58.9L75.0,60.0L71.4,61.8L68.5,62.8L67.8,62.9L66.9,63.2L65.2,63.3L64.5,63.5L63.6,63.5L62.8,63.3L61.4,63.2L60.2,62.9L58.9,62.7L56.0,61.7L55.0,61.2L54.4,60.7L53.4,60.3L50.2,57.9L49.2,56.9L48.7,56.6L48.3,56.6L48.0,56.8L48.0,57.5L49.2,60.0L49.9,61.7L50.6,64.3L51.0,67.9L51.0,69.4L50.8,71.5L50.0,74.6L49.6,75.7L48.4,78.3L47.9,78.7L47.9,79.0L46.5,80.9L44.2,83.3L42.4,84.7L39.2,86.4L37.1,87.3L36.0,87.4L35.4,87.7L33.1,87.9L29.0,87.7L25.4,86.8L23.2,85.6L22.9,85.6L22.3,85.1L21.7,84.8L19.1,82.7L16.7,80.3L15.3,78.4L13.9,75.8L12.4,71.6L12.1,71.3L11.6,71.2L11.3,71.5Z M11.0,53.3L11.0,54.2L10.8,55.4L10.7,56.7L10.5,57.2L10.5,59.2L10.4,60.6L10.5,67.1L10.8,68.2L10.9,68.4L11.5,68.6L11.8,68.4L12.0,68.1L12.1,64.2L12.3,63.7L12.5,62.1L13.4,59.4L14.7,56.6L16.7,53.8L17.3,53.1L17.9,52.3L20.4,49.8L22.2,48.2L24.6,45.8L27.3,42.4L28.0,40.9L28.6,40.1L30.4,36.2L30.7,35.9L31.0,35.9L31.4,36.2L31.7,36.8L32.0,37.7L33.1,39.8L33.1,40.0L33.7,40.7L34.8,42.6L36.8,45.3L41.2,49.9L44.6,53.1L45.6,54.3L46.2,54.7L46.7,54.6L46.8,54.1L45.9,52.4L45.2,50.6L44.6,48.5L44.3,48.1L43.8,46.2L43.7,40.9L43.9,38.8L44.6,36.0L46.6,31.6L47.8,30.1L47.9,29.7L50.0,27.3L53.6,24.1L56.4,21.1L59.1,17.7L61.5,13.2L61.5,13.0L62.4,10.6L62.7,10.3L62.8,10.3L63.2,10.7L63.3,11.1L63.7,11.8L63.8,12.2L65.2,15.0L68.4,19.5L70.0,21.4L73.0,24.3L74.6,25.7L78.0,29.0L79.5,30.9L80.6,32.7L81.8,35.0L82.7,37.5L83.1,39.2L83.3,41.0L83.4,41.5L83.5,43.6L83.3,45.7L82.9,48.1L82.1,50.9L80.9,53.6L80.9,54.1L81.4,54.2L82.2,53.6L82.5,53.2L84.4,51.3L85.7,50.2L89.7,46.2L90.8,44.8L91.8,43.6L93.0,41.9L93.1,41.6L93.6,41.0L94.6,39.0L95.8,36.2L96.0,36.1L96.5,36.1L97.5,37.8L97.6,38.2L98.1,39.1L98.3,39.4L98.6,40.2L100.5,43.1L101.6,44.6L103.1,46.1L104.0,47.3L110.7,53.7L113.1,56.8L114.6,59.4L115.9,63.0L116.5,65.7L116.7,67.1L116.7,69.1L116.8,69.4L117.3,69.5L117.5,69.3L117.6,68.6L117.7,66.6L117.9,65.6L117.8,59.3L117.5,57.4L117.5,56.2L116.7,52.1L115.2,46.5L114.0,43.5L113.9,43.0L112.8,40.7L112.7,40.3L112.3,39.6L112.0,38.7L109.7,34.9L107.9,32.1L107.3,31.5L106.8,30.6L103.3,26.5L101.3,24.5L97.8,21.4L92.9,17.9L90.0,16.1L87.0,14.6L86.4,14.2L85.7,14.0L84.6,13.3L82.7,12.7L82.2,12.3L79.4,11.5L78.4,11.3L78.0,11.1L76.7,10.8L76.4,10.7L74.8,10.4L74.2,10.2L72.3,9.9L71.8,9.7L68.9,9.4L68.0,9.4L67.3,9.2L64.0,9.1L62.6,9.6L61.9,9.2L61.5,9.1L58.9,9.1L50.8,10.3L48.4,11.1L47.6,11.1L47.1,11.5L44.1,12.3L43.5,12.6L42.6,12.8L41.0,13.7L40.3,14.0L37.2,15.5L33.2,18.0L32.7,18.5L31.1,19.6L28.8,21.4L24.0,26.0L21.7,28.7L21.5,29.2L20.9,29.7L19.2,32.1L16.4,37.0L14.5,41.1L14.1,42.4L13.2,44.5L12.4,47.1L12.3,48.0L11.8,49.3Z" fill="#000" fill-rule="evenodd"/>
</svg>