<svg xmlns="http://www.w3.org/2000/svg" viewBox="0 0 128 128" width="128" height="128">
  <path d="M93.8,47.4L92.3,49.5L90.0,53.2L89.6,53.7L89.5,54.0L88.9,54.8L88.8,55.1L87.2,57.6L85.8,59.5L85.2,60.8L83.8,62.7L83.1,64.1L83.1,64.3L82.8,64.8L82.7,65.3L82.4,66.0L82.0,67.6L81.9,69.8L82.2,71.9L82.7,73.7L83.2,74.8L84.2,76.7L85.2,77.8L86.8,79.3L89.5,80.9L91.1,81.4L92.8,81.8L95.5,81.8L96.4,81.7L99.1,80.9L100.0,80.4L101.7,79.3L104.0,77.0L105.4,74.7L106.2,72.8L106.6,71.1L106.6,68.4L106.4,66.9L105.6,64.6L104.4,62.2L103.3,60.8L102.3,59.1L101.0,57.2L101.0,57.1L99.8,55.4L99.4,54.6L97.8,52.3L95.2,48.3L94.5,47.5Z M93.9,57.9L94.2,58.0L94.5,58.3L97.1,62.4L97.4,63.0L97.8,63.5L99.3,66.3L100.1,68.5L100.1,70.2L99.7,71.2L99.7,71.6L99.3,72.1L99.2,72.4L98.8,73.1L97.2,74.4L96.6,74.8L95.2,75.3L94.1,75.3L92.6,75.0L91.5,74.5L90.7,74.0L89.3,72.4L88.7,71.1L88.4,69.8L88.4,69.1L88.7,67.6L89.4,65.9L93.6,58.2Z M13.2,39.3L11.6,39.7L10.9,40.2L9.8,41.3L9.2,42.6L9.1,44.7L9.2,45.2L9.8,46.5L10.7,47.4L12.2,48.2L13.6,48.4L14.7,48.2L15.6,47.8L17.0,46.6L17.7,45.3L17.9,44.2L17.9,43.1L17.5,41.6L16.5,40.4L15.7,39.9L14.6,39.4Z M20.6,40.0L20.4,40.6L20.5,59.8L20.6,62.1L20.6,81.3L20.9,83.1L21.7,85.1L22.6,86.4L24.7,88.4L26.4,89.3L28.9,89.8L30.7,89.7L32.3,89.3L33.8,88.7L34.8,88.0L36.1,86.7L37.0,85.7L37.9,83.7L38.3,82.1L38.5,78.9L38.3,70.9L38.4,64.0L38.3,60.1L38.3,57.2L38.2,49.9L38.3,46.8L38.6,46.5L39.0,46.5L40.3,46.5L40.6,46.9L40.7,69.2L40.9,76.0L40.8,81.9L41.0,83.1L41.5,84.3L42.2,85.6L43.1,86.8L45.1,88.4L46.8,89.3L48.7,89.7L50.9,89.7L51.3,89.5L52.4,89.3L53.9,88.7L55.7,87.4L56.5,86.4L57.6,84.8L58.6,82.0L58.8,77.6L58.6,73.5L58.7,70.8L58.5,63.0L58.6,58.8L58.5,53.3L58.5,47.1L58.6,46.7L58.9,46.5L59.5,46.3L60.1,46.3L60.6,46.5L60.8,46.8L60.8,55.1L61.1,63.1L61.1,78.1L61.2,82.3L61.7,84.3L62.4,85.7L62.9,86.4L64.6,88.0L65.9,88.8L66.6,89.0L66.9,89.3L69.5,89.8L112.6,89.8L118.2,89.7L118.6,89.4L118.6,80.6L118.4,72.1L118.4,64.6L118.9,64.0L118.9,63.5L118.3,62.5L118.3,60.8L118.2,59.5L118.3,55.0L118.1,39.2L117.8,38.7L117.3,38.6L101.8,38.6L98.0,38.7L91.9,38.7L82.0,38.8L71.5,38.8L71.1,38.9L70.8,39.4L70.7,43.7L71.0,65.3L70.9,67.3L71.1,71.1L71.0,75.1L71.1,79.5L71.5,79.9L71.8,80.0L77.4,80.0L78.3,79.9L78.6,79.6L78.7,78.2L78.6,70.2L78.6,68.9L78.5,64.7L78.5,53.0L78.3,49.7L78.5,46.3L78.8,46.0L80.5,45.8L84.5,45.8L109.5,45.8L110.1,46.2L110.3,47.7L110.3,60.5L110.5,61.6L110.4,64.4L110.6,68.4L110.5,72.0L110.7,73.1L110.7,81.5L110.5,82.0L110.1,82.3L105.8,82.4L69.4,82.4L69.1,82.1L68.9,81.3L68.9,78.1L68.7,63.4L68.8,59.7L68.5,51.3L68.6,47.1L68.4,45.5L67.5,43.0L66.9,42.1L65.6,40.6L64.5,39.8L62.9,39.0L60.9,38.4L57.9,38.5L55.9,39.2L54.8,39.8L52.7,41.6L51.9,42.8L51.2,44.2L50.7,46.0L50.6,48.4L50.6,55.8L50.8,67.5L50.8,81.3L50.7,81.9L50.4,82.2L49.1,82.2L48.7,81.9L48.7,81.2L48.7,75.7L48.5,71.6L48.6,69.8L48.4,67.2L48.5,60.6L48.4,47.6L47.9,45.2L47.4,43.8L46.7,42.5L46.1,41.8L44.6,40.3L43.8,39.8L42.1,39.0L40.8,38.7L39.9,38.7L37.5,38.8L36.4,39.1L35.5,39.5L33.8,40.6L32.5,41.8L31.9,42.6L31.1,44.2L30.6,45.5L30.3,47.9L30.5,81.8L30.1,82.4L28.8,82.4L28.3,81.9L28.2,72.9L28.0,72.0L28.1,61.5L27.9,40.2L27.7,39.9L27.3,39.7L20.9,39.8Z" fill="#000" fill-rule="evenodd"/>
</svg>