<svg xmlns="http://www.w3.org/2000/svg" viewBox="0 0 128 128" width="128" height="128">
  <path d="M112.6,73.2L112.3,72.9L111.6,73.1L109.0,75.7L108.0,76.4L107.1,77.4L105.6,78.6L102.5,81.7L97.1,86.5L95.2,87.8L93.0,88.6L89.7,88.9L87.9,88.5L85.9,87.7L84.3,86.7L83.1,85.3L82.3,84.9L74.8,77.8L74.4,77.6L72.9,76.2L71.8,75.5L71.4,75.2L70.3,74.4L68.4,73.6L67.5,73.4L64.5,73.3L61.6,73.7L58.2,75.4L56.6,76.5L53.1,80.2L49.4,83.3L44.7,87.8L42.7,88.9L40.6,89.4L37.4,89.3L34.9,88.5L33.1,87.3L31.7,85.9L29.8,84.6L27.5,82.3L26.7,81.8L25.5,80.6L22.9,78.6L22.0,77.7L21.3,77.3L17.9,74.3L17.3,74.2L17.1,74.4L17.3,76.0L17.2,78.1L17.5,80.4L17.4,83.3L17.7,85.0L17.9,88.9L17.8,90.4L17.9,91.0L17.9,92.8L18.1,93.3L18.4,100.9L18.7,103.6L20.4,105.7L22.9,107.8L26.4,111.1L31.0,115.0L31.7,115.3L33.4,116.8L35.0,117.8L36.7,118.5L38.0,118.9L42.0,119.0L43.8,118.5L45.9,117.7L48.5,115.8L51.4,113.0L52.7,111.9L56.3,108.5L57.2,107.9L59.7,105.5L61.8,104.3L63.3,103.9L64.7,103.7L66.6,103.7L68.0,103.9L69.4,104.5L69.7,104.9L70.3,105.1L71.6,106.0L75.1,109.1L75.9,109.6L77.2,111.0L80.4,113.5L82.1,115.1L85.3,117.5L87.8,118.3L89.2,118.6L91.9,118.6L93.7,118.3L96.2,117.4L96.5,117.1L98.2,116.3L100.2,114.8L105.6,109.8L106.8,108.9L109.2,106.5L110.2,105.8L111.9,104.1L111.9,101.6L112.1,99.2L112.0,94.4L112.1,90.0L112.2,87.9L112.3,78.4L112.7,74.0Z M113.5,10.1L113.3,9.6L113.0,9.3L112.7,9.3L107.2,12.3L106.1,12.7L104.8,12.8L95.9,12.8L95.1,13.0L94.2,12.8L90.5,12.8L83.7,13.1L80.5,13.0L78.9,13.2L77.1,13.1L75.4,13.3L58.0,13.6L36.0,13.6L34.1,13.4L32.9,13.6L21.9,13.7L20.8,13.4L19.6,12.9L18.4,12.0L17.7,11.8L17.0,11.2L16.0,10.8L15.6,10.4L14.8,10.3L14.5,10.7L14.7,13.6L14.7,17.7L14.9,19.6L14.8,26.6L15.0,26.9L15.8,26.9L20.9,23.8L21.6,23.8L22.1,25.4L22.5,27.4L23.5,30.8L25.0,34.8L27.1,38.8L28.4,40.7L28.8,41.7L29.2,42.3L29.8,42.7L30.6,44.3L30.6,44.7L30.1,45.2L28.8,45.5L28.7,45.7L27.2,46.0L25.6,46.6L24.2,46.9L24.1,47.6L24.8,48.6L25.7,49.3L26.8,50.6L28.3,51.8L29.8,53.3L30.2,53.9L31.1,54.6L35.1,58.5L35.7,58.7L36.0,58.4L36.6,56.5L36.7,55.6L37.4,52.5L37.7,52.0L38.2,51.9L40.5,53.5L41.8,54.1L44.1,55.7L48.8,57.9L52.7,59.3L59.1,60.5L59.4,60.9L59.3,61.5L58.8,62.4L58.5,63.5L57.3,65.3L56.7,66.8L56.7,67.4L57.1,67.6L60.9,67.5L72.6,67.4L73.1,67.0L73.1,66.6L71.3,63.7L70.0,61.4L70.0,60.5L70.3,60.4L72.7,60.0L74.6,59.5L75.5,59.4L81.1,57.4L85.0,55.5L86.7,54.3L88.1,53.6L90.0,52.1L90.4,51.9L91.0,52.0L91.3,52.5L92.2,54.8L92.3,55.9L92.8,57.5L92.9,58.3L93.3,58.7L93.8,58.7L94.2,58.5L95.2,57.5L95.4,57.1L100.4,51.9L100.7,51.5L103.1,49.3L103.4,48.6L105.4,46.9L105.5,46.5L105.1,46.1L103.3,45.7L101.0,44.9L99.2,44.5L98.5,44.0L98.5,43.7L100.3,41.1L100.6,40.5L101.7,38.8L104.0,34.1L105.4,29.8L105.6,28.8L105.9,28.2L106.0,27.1L106.6,24.0L106.6,23.4L107.1,23.0L107.9,23.2L108.2,23.6L108.9,23.8L113.0,26.3L113.5,26.2L113.7,25.8L113.5,22.8Z M59.9,28.1L60.4,28.3L60.9,28.9L61.1,29.9L61.1,31.1L60.9,31.9L60.9,35.2L60.7,35.8L60.8,38.5L60.5,40.7L60.5,48.2L60.2,49.3L60.2,51.0L60.0,51.8L59.5,52.4L58.7,52.4L53.6,51.2L52.3,50.7L49.6,49.6L47.0,48.2L45.3,47.0L44.0,46.4L43.7,45.9L43.7,45.3L44.1,44.6L46.4,42.3L48.4,39.7L51.8,36.2L52.0,35.8L57.6,29.7L58.9,28.3Z M68.7,27.9L69.5,27.9L70.5,28.6L72.2,30.5L73.3,31.5L74.0,32.5L75.6,34.1L75.8,34.5L76.4,35.0L76.6,35.4L78.6,37.3L79.3,38.2L81.8,41.0L82.3,41.8L84.6,44.3L85.2,45.2L85.1,45.7L84.2,46.6L82.5,47.5L81.6,48.2L79.6,49.3L77.4,50.3L74.6,51.3L73.3,51.6L71.6,52.1L70.1,52.4L69.3,52.2L68.9,51.3L68.7,48.2L68.8,47.7L68.5,44.4L68.5,42.2L68.2,40.3L68.2,37.7L67.6,32.1L67.6,28.9L68.3,28.1Z M54.1,22.1L54.2,23.0L53.9,23.7L49.7,27.8L47.4,29.8L46.4,30.9L43.6,33.6L43.1,33.8L40.3,36.7L39.8,36.9L38.7,38.1L37.9,38.7L37.3,39.0L36.5,38.9L35.7,38.2L35.3,37.4L34.7,36.8L33.3,34.4L33.1,33.8L32.6,32.9L31.6,30.8L30.2,26.9L29.9,25.3L29.6,24.1L29.7,22.9L30.0,22.7L30.8,22.5L32.8,22.6L35.2,22.4L35.9,22.2L49.3,21.7L50.6,21.5L53.1,21.5L53.7,21.8Z M74.4,21.9L75.2,21.2L76.8,21.1L79.5,21.3L82.4,21.3L84.7,21.6L92.3,21.8L93.3,21.9L97.2,22.0L98.1,22.3L98.4,22.9L98.4,24.0L98.2,25.1L98.2,26.0L97.6,27.4L97.1,29.8L96.6,30.6L94.8,34.6L92.9,37.7L92.1,38.4L91.4,38.3L90.7,37.8L87.5,34.8L85.5,33.3L79.0,27.4L75.4,24.4L74.7,23.8L74.2,22.9L74.2,22.2Z" fill="#000" fill-rule="evenodd"/>
</svg>