<svg xmlns="http://www.w3.org/2000/svg" viewBox="0 0 128 128" width="128" height="128">
  <path d="M14.9,120.3L15.5,120.3L15.3,120.2Z M11.8,120.3L12.5,120.3L12.3,120.2L12.0,120.2Z M46.6,31.7L46.6,31.8L46.7,31.7Z M61.8,8.3L61.6,8.3L60.7,8.4L59.6,8.7L59.5,8.7L59.0,8.9L58.1,9.4L57.9,9.6L57.6,9.7L56.5,10.5L55.7,11.3L55.6,11.4L55.2,11.8L54.7,12.7L54.0,13.9L53.7,14.8L53.6,15.2L53.4,15.6L53.4,15.8L53.3,16.2L53.3,17.4L53.2,17.6L53.0,17.6L52.9,17.5L52.6,16.9L52.1,16.1L51.0,15.0L49.8,14.0L49.3,13.7L49.1,13.6L49.0,13.6L48.4,13.2L47.3,12.9L47.0,12.8L46.5,12.7L46.1,12.7L45.7,12.6L43.9,12.6L43.0,12.8L42.9,12.9L42.1,13.1L41.8,13.3L41.3,13.4L40.9,13.6L39.9,14.3L38.5,15.6L37.6,16.7L36.9,18.0L36.5,19.0L36.3,19.7L36.3,20.1L36.1,20.6L36.0,22.7L36.3,24.4L36.5,25.1L36.5,25.3L36.5,25.3L36.3,25.3L35.6,24.8L34.9,24.3L34.2,24.0L33.9,23.9L33.3,23.6L32.4,23.4L31.5,23.3L29.9,23.2L28.7,23.4L28.3,23.6L28.0,23.6L27.5,23.8L27.2,24.0L27.1,24.0L26.9,24.2L26.4,24.4L26.2,24.5L25.7,24.7L24.9,25.3L24.0,26.2L23.5,26.8L23.0,27.6L22.6,28.4L22.5,28.5L22.5,28.6L22.2,29.3L21.8,30.7L21.7,31.7L21.6,33.1L21.7,33.6L21.8,34.4L22.0,34.8L22.0,35.2L22.1,35.4L22.2,35.8L22.5,36.5L22.5,36.5L22.6,36.7L22.9,37.3L23.1,37.5L23.3,37.9L23.8,38.6L24.4,39.2L24.4,39.3L24.3,39.3L24.1,39.3L23.4,39.2L23.0,39.1L22.6,39.0L21.1,38.9L20.0,39.0L19.8,39.1L19.2,39.2L19.0,39.3L18.8,39.3L18.1,39.5L17.9,39.6L17.7,39.7L16.5,40.3L15.5,41.2L14.8,41.9L14.2,42.6L13.5,43.7L13.2,44.2L12.9,45.1L12.9,45.4L12.6,46.4L12.5,47.3L12.5,49.0L12.6,49.7L12.6,50.2L12.8,50.7L12.9,51.0L13.1,51.4L13.1,51.6L13.2,51.7L13.2,51.9L13.6,52.7L14.3,53.8L14.8,54.4L15.7,55.2L16.6,55.8L16.9,56.0L17.0,56.1L17.6,56.4L17.8,56.6L17.7,56.7L17.5,56.8L16.8,56.8L15.9,57.0L14.4,57.6L14.1,57.9L13.9,57.9L13.0,58.6L12.0,59.6L11.5,60.1L11.1,60.7L11.0,60.8L10.9,60.9L10.6,61.6L10.2,62.4L10.0,63.3L9.8,63.6L9.7,64.5L9.7,66.8L10.0,68.3L10.4,69.4L10.7,70.0L10.8,70.1L10.9,70.4L11.8,71.7L12.8,72.7L14.1,73.6L15.2,74.1L16.5,74.6L16.9,74.6L17.5,74.7L18.2,74.8L18.3,74.9L17.6,75.4L16.7,76.0L16.1,76.6L15.9,76.8L15.4,77.4L14.5,78.8L14.4,79.1L14.3,79.3L14.0,79.9L13.7,81.1L13.6,81.9L13.5,82.1L13.5,83.7L13.7,85.0L13.7,85.1L14.0,86.0L14.1,86.1L14.3,86.8L14.5,87.2L14.9,87.9L15.1,88.2L15.2,88.4L15.8,89.1L16.3,89.6L17.0,90.2L18.5,91.1L18.8,91.2L19.0,91.3L19.3,91.4L19.7,91.6L20.0,91.6L21.0,91.9L22.5,91.9L23.9,91.8L24.7,91.6L25.3,91.4L25.6,91.4L25.6,91.5L25.3,91.9L24.7,92.8L24.4,93.4L24.3,93.6L24.3,93.8L24.0,94.3L23.8,94.8L23.8,95.1L23.6,95.4L23.5,96.2L23.4,97.0L23.4,98.1L23.4,99.0L23.5,99.2L23.6,99.8L23.7,100.0L23.8,100.4L23.9,100.6L23.9,100.8L24.2,101.5L24.7,102.5L25.3,103.3L26.4,104.5L27.2,105.1L27.4,105.2L27.7,105.4L29.0,106.1L30.3,106.5L31.8,106.7L32.9,106.7L33.7,106.6L34.0,106.5L34.2,106.5L35.5,106.1L36.2,105.8L36.4,105.7L36.6,105.6L37.5,105.0L38.4,104.2L38.5,104.2L38.6,104.2L38.6,104.4L38.5,104.6L38.3,105.7L38.2,106.5L38.2,106.7L38.2,107.9L38.3,108.7L38.4,109.2L38.5,109.8L38.7,110.4L38.9,111.0L39.0,111.3L39.3,111.6L39.5,112.1L40.2,113.0L41.0,113.9L41.4,114.4L42.7,115.3L43.8,115.8L44.9,116.1L45.1,116.2L45.2,116.2L45.9,116.4L47.6,116.4L47.8,116.3L48.2,116.3L48.4,116.3L49.1,116.2L49.6,116.0L49.7,115.9L50.5,115.7L51.1,115.4L51.5,115.2L52.7,114.3L53.5,113.5L54.1,112.9L54.8,111.7L55.1,111.1L55.2,111.1L55.3,111.2L55.4,112.3L55.6,113.1L55.7,113.3L55.9,114.0L56.3,114.9L57.4,116.5L58.7,117.8L59.9,118.6L61.6,119.4L62.1,119.5L62.9,119.7L63.5,119.8L64.9,119.8L66.5,119.5L66.9,119.4L67.4,119.3L67.7,119.1L68.0,119.0L68.3,118.8L68.4,118.7L68.7,118.7L70.0,117.8L70.8,117.0L71.6,115.9L71.7,115.7L71.9,115.5L72.6,114.2L73.0,112.9L73.2,112.0L73.3,110.9L73.4,110.7L73.7,111.0L73.7,111.2L74.2,111.9L75.1,113.0L75.8,113.7L76.5,114.2L78.0,115.1L78.8,115.4L78.9,115.4L79.6,115.6L81.3,115.8L82.5,115.8L82.6,115.7L83.1,115.7L83.7,115.5L84.2,115.5L84.6,115.3L85.1,115.1L85.9,114.8L86.0,114.6L86.6,114.3L87.5,113.6L88.3,112.8L88.8,112.2L89.6,111.1L89.7,110.7L89.8,110.4L90.0,110.2L90.0,110.1L90.1,109.8L90.1,109.6L90.3,109.4L90.3,109.2L90.5,108.3L90.5,108.0L90.6,107.9L90.7,107.1L90.7,106.0L90.6,105.2L90.4,104.4L90.3,104.2L90.3,103.9L90.2,103.7L90.2,103.6L90.3,103.5L90.5,103.5L91.6,104.3L92.5,104.8L92.7,104.8L93.0,105.0L93.3,105.0L93.3,105.1L93.8,105.2L94.0,105.3L94.3,105.4L94.5,105.4L95.2,105.5L96.8,105.5L97.8,105.4L98.5,105.3L99.7,104.9L100.8,104.3L102.2,103.4L103.3,102.3L104.3,100.9L104.9,99.5L104.9,99.4L105.1,99.0L105.3,98.1L105.3,97.9L105.4,97.5L105.5,96.2L105.4,95.4L105.4,95.2L105.3,94.7L105.1,94.0L105.1,93.7L104.9,93.2L104.8,93.1L104.6,92.4L104.3,91.9L104.1,91.5L103.5,90.6L103.2,90.3L103.3,90.1L103.5,90.1L103.8,90.3L104.4,90.4L104.7,90.4L105.0,90.5L106.1,90.5L107.0,90.4L107.3,90.3L107.5,90.3L108.4,90.1L109.5,89.7L110.6,89.2L111.0,88.9L111.2,88.8L112.2,88.0L112.7,87.5L113.5,86.6L113.6,86.4L113.9,86.0L114.1,85.6L114.2,85.4L114.3,85.2L114.4,85.1L114.7,84.3L114.8,84.2L114.8,83.8L114.9,83.8L115.0,83.4L115.0,83.0L115.2,82.3L115.2,80.5L115.0,79.2L114.8,78.5L114.7,78.2L114.1,76.9L113.4,75.7L113.3,75.7L112.7,74.9L112.3,74.5L111.0,73.5L110.4,73.1L109.9,72.9L109.7,72.8L109.7,72.7L109.9,72.6L110.8,72.4L112.0,72.1L112.2,72.0L112.9,71.7L113.2,71.6L113.6,71.4L113.8,71.3L114.7,70.7L115.3,70.1L116.2,69.3L116.9,68.4L117.2,67.8L117.6,67.1L117.8,66.7L117.8,66.5L118.0,66.2L118.2,65.4L118.2,65.1L118.4,64.6L118.5,62.9L118.4,62.7L118.4,62.0L118.3,61.6L118.2,61.2L118.1,60.8L118.0,60.6L118.0,60.3L117.8,60.0L117.8,59.8L117.6,59.2L117.2,58.6L117.0,58.2L116.2,57.1L115.5,56.4L114.8,55.9L114.2,55.4L113.6,55.1L113.2,54.9L112.9,54.8L112.6,54.6L111.6,54.2L110.2,54.0L109.5,54.0L109.5,54.0L109.4,53.8L109.8,53.5L110.1,53.4L110.4,53.2L110.8,52.9L111.9,51.9L112.7,50.9L112.8,50.7L113.3,49.9L113.6,49.4L113.7,48.9L113.9,48.7L113.9,48.3L114.1,48.0L114.1,47.7L114.2,47.6L114.4,46.2L114.4,45.0L114.4,44.0L114.2,43.4L114.2,43.2L114.1,43.0L114.1,42.9L114.0,42.6L113.9,42.1L113.1,40.5L112.2,39.3L111.2,38.4L110.2,37.6L110.0,37.5L109.0,36.9L108.7,36.9L108.4,36.7L108.2,36.7L107.1,36.3L106.3,36.3L105.8,36.2L105.2,36.2L103.8,36.3L103.5,36.5L103.3,36.5L102.7,36.6L102.1,36.8L101.9,36.8L101.9,36.6L102.3,36.1L102.9,35.2L103.6,33.7L103.9,32.8L103.9,32.4L104.1,31.7L104.1,29.9L104.0,29.0L103.9,28.6L103.8,28.1L103.6,27.4L103.6,27.2L103.4,26.7L102.9,25.7L102.5,25.0L101.8,24.2L101.3,23.7L100.5,23.0L99.7,22.5L98.3,21.8L96.8,21.3L95.6,21.2L94.8,21.2L93.6,21.3L92.6,21.6L92.4,21.6L90.9,22.3L90.2,22.7L88.6,23.9L88.5,23.9L88.5,23.7L88.6,23.1L88.8,22.7L88.8,22.4L88.9,22.1L88.9,20.2L88.8,18.8L88.7,18.4L88.6,18.2L88.5,17.9L88.2,17.2L88.2,17.1L87.6,15.9L87.2,15.2L86.7,14.6L85.6,13.6L84.9,13.0L84.7,13.0L84.0,12.4L83.6,12.3L83.2,12.1L82.3,11.8L81.5,11.6L80.4,11.4L79.1,11.5L78.6,11.5L77.4,11.8L76.9,12.0L76.6,12.1L74.9,13.0L73.9,13.8L73.3,14.4L72.6,15.2L72.0,16.1L71.9,16.5L71.6,16.9L71.5,17.0L71.4,17.0L71.3,16.9L71.3,16.5L71.2,16.4L71.2,16.0L71.0,15.0L70.7,14.1L70.4,13.4L70.1,12.9L70.0,12.7L69.4,11.9L68.9,11.3L68.1,10.4L66.9,9.6L66.4,9.4L66.2,9.2L65.7,9.1L65.4,8.8L64.4,8.5L64.0,8.5L63.7,8.4L63.2,8.4L62.8,8.3Z M63.5,85.2L65.4,85.3L67.2,85.7L68.2,86.0L68.5,86.2L68.7,86.2L68.9,86.3L69.1,86.4L69.2,86.5L69.5,86.6L69.6,86.7L69.8,86.8L70.1,87.0L70.8,87.4L71.0,87.5L71.3,87.7L72.5,88.8L73.4,89.7L73.5,89.9L74.1,90.8L74.8,92.1L75.1,92.6L75.1,92.7L75.2,93.0L75.4,93.5L75.5,93.8L75.8,94.7L76.0,96.1L76.0,96.6L76.1,97.0L76.1,98.2L76.0,99.1L75.8,100.4L75.7,100.7L75.6,101.1L75.2,102.1L75.2,102.3L74.8,102.9L74.7,103.4L74.2,104.0L74.0,104.5L73.8,104.7L73.3,105.4L72.7,106.1L71.9,106.8L71.0,107.5L70.6,107.7L70.4,107.9L69.9,108.2L69.7,108.3L69.6,108.4L68.7,108.8L68.4,108.9L68.3,109.0L67.5,109.2L67.4,109.2L66.9,109.5L66.4,109.5L66.1,109.6L64.5,109.8L63.7,109.8L62.1,109.6L61.1,109.4L60.8,109.3L60.5,109.2L59.9,109.1L59.7,108.9L59.4,108.9L57.9,108.1L57.6,107.9L57.2,107.6L56.8,107.3L56.6,107.2L56.0,106.7L55.5,106.2L55.4,106.2L54.4,105.0L53.8,104.2L53.8,104.0L53.5,103.6L53.3,103.3L53.2,103.0L53.1,102.7L52.9,102.5L52.6,101.7L52.3,100.7L52.3,100.6L52.2,100.2L52.1,99.9L52.0,99.3L51.9,98.1L51.9,96.3L52.1,95.5L52.1,95.3L52.3,94.4L52.5,93.4L53.1,92.1L53.3,91.7L53.5,91.4L53.8,90.8L54.8,89.5L55.7,88.5L56.5,87.9L57.9,86.9L58.0,86.8L58.5,86.6L58.7,86.5L58.9,86.4L59.1,86.3L59.3,86.2L59.6,86.1L59.7,86.0L59.8,86.0L60.4,85.8L60.6,85.8L60.8,85.7L61.1,85.6L61.4,85.5L62.3,85.3L63.2,85.3Z M40.5,75.7L42.1,75.7L42.8,75.8L43.1,75.9L43.4,75.9L45.0,76.4L45.2,76.5L45.9,76.7L47.0,77.3L48.0,78.0L49.0,78.7L50.0,79.7L50.6,80.6L51.4,81.8L52.0,82.8L52.5,84.1L52.9,85.3L52.9,85.7L53.0,86.1L53.0,86.3L53.1,86.5L53.1,86.9L53.2,87.5L53.2,89.0L53.1,89.5L53.1,90.0L53.0,90.2L53.0,90.5L52.8,91.0L52.7,91.5L52.4,92.1L52.4,92.4L52.3,92.7L52.2,92.9L52.0,93.3L51.8,93.8L51.7,94.0L51.1,95.1L50.8,95.4L50.4,96.0L49.9,96.6L48.6,97.8L47.9,98.2L47.7,98.5L46.3,99.2L46.1,99.2L45.9,99.4L45.7,99.4L45.5,99.6L45.2,99.6L44.6,99.9L43.7,100.1L41.4,100.4L40.9,100.3L40.7,100.3L39.9,100.3L38.8,100.1L38.1,99.8L37.6,99.8L36.8,99.4L36.4,99.3L34.7,98.3L34.3,98.0L33.8,97.6L33.5,97.3L32.9,96.8L32.2,96.2L31.2,94.9L31.0,94.5L30.9,94.3L30.7,94.0L30.5,93.6L29.9,92.5L29.8,92.1L29.7,91.9L29.6,91.5L29.5,91.2L29.4,90.8L29.4,90.7L29.3,90.4L29.1,89.6L29.1,89.0L29.1,88.7L29.1,87.1L29.1,86.9L29.2,86.3L29.5,84.7L29.9,83.5L30.2,82.9L30.2,82.8L30.3,82.6L30.4,82.4L30.6,82.0L30.9,81.6L31.1,81.2L31.3,81.0L31.7,80.3L32.3,79.6L32.9,79.0L33.6,78.4L34.4,77.8L35.2,77.3L35.4,77.2L35.5,77.1L35.9,76.9L36.6,76.6L36.9,76.5L38.0,76.1L39.5,75.8Z M85.8,74.9L88.0,74.9L89.4,75.2L90.2,75.4L90.4,75.5L90.5,75.5L90.7,75.6L91.1,75.7L91.5,75.9L92.2,76.2L92.4,76.4L92.6,76.4L93.0,76.7L93.2,76.7L93.7,77.1L94.4,77.6L95.5,78.6L95.9,79.0L96.8,80.2L97.3,81.0L97.9,82.2L98.3,83.2L98.4,83.6L98.5,83.7L98.6,84.2L98.7,84.4L98.7,84.9L98.8,85.1L98.9,85.9L99.0,86.8L99.0,87.8L98.9,89.0L98.6,90.2L98.3,91.3L98.3,91.5L98.1,91.7L97.8,92.7L97.3,93.4L96.6,94.6L96.0,95.3L94.8,96.5L93.8,97.3L93.1,97.7L92.5,98.1L92.4,98.1L91.8,98.5L91.5,98.6L91.0,98.8L90.6,98.9L90.1,99.1L89.3,99.3L89.0,99.3L88.1,99.5L86.7,99.6L85.7,99.6L85.3,99.5L84.4,99.3L83.3,99.1L82.5,98.8L82.0,98.5L81.4,98.3L81.0,98.1L80.8,98.0L80.6,97.9L80.5,97.8L80.4,97.8L79.3,97.1L78.3,96.2L77.4,95.2L76.7,94.4L76.0,93.4L75.9,93.1L75.8,93.0L75.8,92.8L75.7,92.7L75.5,92.3L75.2,91.5L75.0,91.0L74.9,90.6L74.7,89.5L74.6,89.0L74.5,88.1L74.6,86.3L74.6,85.6L74.7,85.2L75.0,84.0L75.3,83.2L75.9,81.8L76.6,80.5L77.5,79.3L78.9,77.8L79.5,77.4L81.0,76.4L81.9,75.9L82.0,75.9L82.6,75.7L83.2,75.4L84.1,75.2L84.3,75.1L85.4,75.0Z M30.1,52.7L31.3,52.7L31.7,52.7L32.2,52.7L32.6,52.8L33.4,52.9L33.6,53.0L34.3,53.2L35.6,53.7L36.2,53.9L36.6,54.2L36.8,54.2L37.2,54.4L37.3,54.5L38.0,54.9L38.4,55.3L38.8,55.6L40.1,56.9L40.6,57.5L40.9,58.0L41.1,58.2L41.7,59.3L41.9,59.8L42.0,60.0L42.1,60.2L42.1,60.3L42.2,60.5L42.3,60.7L42.7,62.0L43.0,63.6L43.0,64.3L43.1,64.7L43.0,66.7L42.7,68.5L42.4,69.4L42.3,69.6L42.2,69.8L42.2,70.0L42.0,70.3L42.0,70.5L41.8,70.7L41.8,70.9L41.6,71.2L41.5,71.4L41.3,71.8L40.8,72.5L40.7,72.7L39.8,73.7L38.9,74.6L37.9,75.3L37.8,75.4L36.9,75.9L36.7,76.0L36.0,76.4L35.6,76.5L34.6,76.9L34.2,76.9L33.2,77.2L32.2,77.4L30.6,77.4L30.4,77.4L29.9,77.4L29.4,77.2L28.8,77.2L27.5,76.8L26.0,76.2L25.3,75.8L25.1,75.7L23.9,74.9L22.9,74.0L21.7,72.8L21.4,72.3L20.9,71.6L20.8,71.5L20.7,71.3L20.1,70.2L20.1,69.9L19.9,69.7L19.8,69.4L19.7,69.1L19.6,68.5L19.4,68.2L19.4,67.8L19.3,67.6L19.2,67.0L19.1,66.7L19.1,66.0L19.0,65.7L19.0,64.2L19.1,63.7L19.1,63.1L19.6,61.3L19.7,61.0L19.9,60.4L20.0,60.2L20.0,60.0L20.3,59.5L20.6,58.9L20.7,58.8L21.0,58.1L22.0,56.8L22.9,55.9L24.2,54.8L24.5,54.6L24.7,54.5L25.8,53.9L26.7,53.5L27.1,53.4L27.2,53.3L27.6,53.3L28.1,53.1Z M94.7,51.2L97.1,51.1L98.9,51.4L99.4,51.5L99.6,51.6L99.9,51.7L100.7,52.0L100.8,52.1L101.0,52.2L101.2,52.2L101.7,52.4L103.0,53.3L104.1,54.1L105.5,55.6L106.5,57.0L106.6,57.3L106.9,57.7L107.6,59.3L107.8,60.0L107.8,60.3L108.0,60.6L108.0,61.1L108.2,61.6L108.2,62.6L108.3,62.9L108.3,64.0L108.2,65.2L107.8,67.2L107.4,67.9L107.2,68.6L107.1,68.9L107.0,69.1L106.8,69.4L106.4,70.1L106.0,70.8L105.2,71.7L104.1,72.9L103.4,73.5L102.1,74.3L101.3,74.8L100.1,75.3L98.8,75.7L98.2,75.9L97.9,75.9L97.6,76.0L97.0,76.0L96.6,76.1L95.4,76.1L94.0,75.9L93.8,75.8L93.1,75.7L92.8,75.7L92.6,75.6L92.4,75.5L91.9,75.4L91.8,75.3L91.0,75.0L89.9,74.5L89.2,74.0L87.8,73.0L86.6,71.7L85.7,70.4L85.0,69.2L84.5,68.0L84.4,67.7L84.1,66.9L83.9,65.6L83.9,65.1L83.8,64.8L83.8,62.9L83.9,62.4L83.9,61.8L84.0,61.4L84.1,60.8L84.1,60.7L84.3,60.1L84.4,59.9L84.4,59.6L84.5,59.5L84.6,59.1L84.7,59.0L85.0,58.3L85.2,57.9L85.6,57.2L85.7,56.9L86.6,55.7L87.8,54.3L88.5,53.8L89.6,53.0L89.8,52.9L89.9,52.8L90.2,52.7L90.3,52.6L90.7,52.4L91.3,52.2L91.4,52.1L92.1,51.8L92.2,51.7L93.3,51.4L93.4,51.4L93.7,51.4L94.4,51.3Z M39.2,29.0L40.6,29.0L41.4,29.0L41.6,29.1L42.2,29.2L42.3,29.2L42.9,29.3L43.0,29.4L44.1,29.7L44.5,30.0L45.1,30.2L45.2,30.3L45.8,30.5L46.6,31.0L47.5,31.7L48.3,32.5L49.6,34.0L49.8,34.3L50.2,34.8L50.9,36.3L51.3,37.1L51.7,38.6L51.7,38.8L51.8,39.2L51.9,40.0L52.0,40.2L52.0,41.2L52.0,42.3L51.9,43.4L51.7,44.5L51.4,45.4L51.3,45.8L51.0,46.5L50.9,46.7L50.4,47.8L49.5,49.1L48.4,50.5L47.3,51.4L46.7,51.9L46.4,52.0L46.1,52.3L45.5,52.6L44.9,52.8L44.8,53.0L44.1,53.2L43.7,53.4L42.4,53.8L41.4,53.9L40.2,54.0L38.9,54.0L38.7,53.9L38.2,53.9L38.0,53.8L37.4,53.8L36.6,53.5L36.3,53.4L35.6,53.2L35.4,53.1L33.9,52.4L32.5,51.4L31.8,50.9L30.8,49.8L30.2,49.1L29.6,48.3L28.8,46.8L28.5,46.0L28.5,45.9L28.3,45.4L28.2,44.9L28.1,44.7L28.1,44.3L27.9,43.8L27.9,43.4L27.8,43.1L27.7,42.6L27.7,40.3L27.9,39.6L28.0,38.8L28.1,38.6L28.2,37.8L28.6,36.8L28.9,36.1L29.0,35.8L29.7,34.6L30.6,33.3L30.8,33.2L31.0,32.8L32.4,31.6L33.4,30.9L33.9,30.6L34.7,30.1L35.0,30.0L35.8,29.6L36.2,29.6L36.7,29.4L36.9,29.4L37.1,29.3L38.2,29.0Z M86.8,27.6L87.7,27.7L88.0,27.7L89.2,28.0L89.6,28.1L90.1,28.3L91.1,28.7L92.1,29.3L92.5,29.5L93.3,30.0L94.6,31.2L95.4,32.0L96.4,33.3L96.9,34.4L97.0,34.5L97.1,34.7L97.4,35.3L97.5,35.7L97.6,35.7L97.8,36.5L97.8,36.6L97.9,36.9L98.1,37.9L98.3,39.2L98.3,41.4L98.0,43.2L97.8,43.6L97.6,44.3L97.3,45.0L97.2,45.4L96.8,46.2L96.3,47.1L96.0,47.4L95.4,48.3L94.3,49.4L93.4,50.2L92.3,50.9L91.7,51.2L91.4,51.4L91.2,51.5L90.9,51.7L90.7,51.7L90.6,51.8L90.5,51.8L90.1,52.0L89.7,52.1L89.6,52.2L89.0,52.3L88.6,52.4L88.2,52.5L87.9,52.5L87.4,52.7L87.0,52.7L86.6,52.7L84.7,52.7L82.6,52.3L80.8,51.5L79.5,50.9L79.3,50.6L78.6,50.2L78.2,49.8L77.9,49.6L76.8,48.6L76.8,48.5L76.1,47.6L75.3,46.5L74.9,45.6L74.8,45.3L74.7,44.9L74.5,44.8L74.4,44.3L74.3,44.0L74.2,43.5L74.0,43.3L73.8,41.8L73.8,41.1L73.7,40.8L73.7,39.2L73.8,39.0L73.9,37.9L74.0,37.6L74.0,37.2L74.2,36.9L74.4,35.9L74.5,35.8L74.7,35.2L75.3,34.0L75.9,33.1L76.3,32.6L76.7,32.0L77.5,31.2L78.3,30.4L79.4,29.7L79.8,29.4L80.0,29.2L80.8,28.8L80.9,28.8L81.2,28.6L81.3,28.6L81.6,28.4L81.8,28.4L82.1,28.2L83.9,27.8L84.8,27.6Z M61.6,18.5L64.0,18.5L66.3,18.9L66.6,19.1L67.3,19.3L68.7,20.0L69.7,20.6L70.2,21.1L70.4,21.2L71.4,22.2L72.3,23.2L73.1,24.3L73.8,25.7L73.8,25.8L74.0,26.2L74.1,26.6L74.2,26.8L74.4,27.5L74.5,27.9L74.6,28.3L74.7,28.8L74.9,30.2L74.9,32.1L74.7,33.6L74.3,35.1L74.2,35.3L74.0,35.8L73.9,36.0L73.4,37.1L73.3,37.2L73.3,37.4L73.1,37.5L73.0,37.8L72.2,39.0L71.0,40.2L70.2,40.9L69.4,41.6L68.8,41.9L68.5,42.1L67.7,42.5L66.8,42.9L66.3,43.0L66.2,43.1L66.0,43.1L65.8,43.2L64.8,43.4L63.4,43.6L62.0,43.6L61.1,43.6L59.9,43.3L59.2,43.1L59.0,43.1L58.6,42.9L58.2,42.9L56.9,42.2L56.3,41.8L56.0,41.6L54.5,40.5L53.2,39.1L53.1,38.9L52.6,38.3L51.8,37.0L51.8,36.8L51.4,36.0L51.3,35.7L51.2,35.5L50.9,34.8L50.8,34.1L50.7,34.0L50.7,33.6L50.5,33.0L50.5,32.3L50.5,30.1L50.6,29.6L50.6,29.0L51.0,27.5L51.3,26.4L51.5,26.1L51.7,25.6L52.4,24.2L53.1,23.3L53.9,22.3L54.9,21.4L56.0,20.5L56.2,20.4L56.9,20.0L57.7,19.5L58.9,19.1L59.6,18.9L60.0,18.7L61.1,18.5L61.4,18.5Z" fill="#000" fill-rule="evenodd"/>
</svg>