<svg xmlns="http://www.w3.org/2000/svg" viewBox="0 0 128 128" width="128" height="128">
  <path d="M118.9,60.5L118.3,57.6L117.8,56.0L117.2,54.5L117.0,53.5L114.7,49.1L112.6,46.3L109.4,43.1L107.1,41.3L103.9,39.4L99.6,37.7L98.7,37.6L97.9,37.3L97.0,37.2L96.5,37.0L95.1,36.7L92.1,36.6L87.6,36.7L86.8,37.0L85.5,37.2L83.3,37.8L81.6,38.5L80.9,38.6L79.0,39.4L78.8,39.7L77.1,40.5L75.0,41.9L72.6,43.8L70.8,45.7L69.2,47.6L67.8,49.8L67.5,50.1L66.2,52.6L64.9,55.9L64.7,57.1L64.3,58.5L64.0,59.9L63.7,60.2L63.4,59.7L63.3,58.7L62.1,54.6L61.7,53.9L61.2,52.5L59.7,49.7L58.2,47.7L56.4,45.5L53.0,42.4L49.7,40.3L49.1,40.1L48.1,39.5L46.9,39.0L46.3,38.8L46.0,38.6L44.6,38.2L43.8,38.0L43.4,37.8L40.8,37.3L38.8,37.1L37.6,36.9L34.9,37.0L31.9,37.3L29.4,37.8L25.8,39.0L24.5,39.7L24.1,39.7L21.8,41.0L21.2,41.5L19.5,42.5L17.7,44.1L15.9,45.9L13.9,48.5L13.7,48.9L12.9,50.0L12.6,50.7L12.3,51.0L11.0,53.9L10.8,54.2L9.9,57.0L9.2,60.5L9.0,62.6L9.1,66.2L9.5,69.1L9.9,71.4L10.6,73.1L10.8,74.1L13.0,78.5L15.5,81.9L18.2,84.6L20.0,86.1L21.0,86.8L24.4,88.8L25.4,89.2L25.8,89.3L27.1,90.0L27.9,90.1L28.6,90.4L29.9,90.8L31.0,91.0L31.9,91.3L33.3,91.4L33.6,91.6L38.0,91.7L38.6,91.5L39.9,91.5L41.0,91.2L42.0,91.1L42.6,90.9L43.3,90.8L44.0,90.5L44.9,90.4L49.6,88.3L51.1,87.4L51.9,86.7L52.3,86.5L54.2,85.1L56.4,82.9L58.5,80.4L59.5,78.8L59.8,78.5L60.5,77.0L61.8,74.8L62.4,73.0L62.4,72.7L62.7,72.1L62.8,71.5L63.1,70.7L63.5,68.4L63.8,68.2L64.1,68.7L64.1,69.0L64.7,71.5L65.5,74.0L66.9,76.9L68.3,79.2L69.1,80.3L69.2,80.7L71.1,82.7L71.3,83.0L73.3,84.9L76.0,87.1L77.3,87.8L77.9,88.0L79.2,88.9L80.3,89.3L80.8,89.6L84.2,90.7L86.9,91.4L88.5,91.6L93.9,91.6L94.3,91.4L96.6,91.2L98.4,90.7L99.1,90.4L99.7,90.4L100.3,90.1L100.8,90.0L101.3,89.7L101.8,89.6L103.7,88.6L104.2,88.5L106.7,87.1L107.3,86.5L109.1,85.3L112.0,82.6L114.0,80.0L114.3,79.4L115.0,78.5L115.3,77.7L116.3,76.3L116.8,75.2L116.9,74.8L117.5,73.3L117.7,72.5L118.1,71.6L118.7,68.8L118.9,67.2L118.9,66.3L119.1,65.2Z" fill="#000" fill-rule="evenodd"/>
</svg>