<svg xmlns="http://www.w3.org/2000/svg" viewBox="0 0 128 128" width="128" height="128">
  <path d="M92.6,82.1L92.3,79.8L91.4,77.7L90.4,76.0L89.4,74.8L88.1,73.5L85.9,72.1L83.8,71.3L81.1,70.8L79.6,70.8L77.4,71.2L75.8,71.7L74.2,72.5L72.1,74.1L71.0,75.4L70.0,76.8L69.0,78.8L68.6,80.7L68.3,81.1L68.0,81.2L60.9,81.2L59.9,81.0L34.4,80.8L30.7,80.6L24.5,80.7L21.1,80.5L9.6,80.5L9.1,80.8L9.1,81.2L9.1,83.4L9.4,83.7L9.8,83.8L12.9,83.9L28.1,83.9L29.9,84.0L33.4,83.9L38.3,84.1L39.8,84.0L44.9,84.2L51.2,84.2L54.2,84.3L63.0,84.5L64.6,84.4L66.2,84.5L68.0,84.5L68.4,84.7L68.7,85.2L68.7,85.8L69.1,86.9L69.6,87.8L69.7,88.3L70.6,89.8L71.4,90.9L73.2,92.5L75.4,93.8L77.9,94.6L79.6,94.9L82.1,94.9L83.2,94.7L84.7,94.3L86.2,93.6L88.3,92.2L89.7,90.8L91.0,88.9L92.2,86.2L92.6,84.1Z M34.3,44.8L34.4,47.2L35.0,49.9L36.1,51.9L36.7,52.9L37.8,54.0L39.1,55.2L40.6,56.1L41.3,56.3L41.8,56.6L44.4,57.3L47.2,57.4L49.2,57.0L50.2,56.7L50.9,56.3L51.6,56.0L53.6,54.6L55.1,53.2L55.8,52.2L56.9,50.3L57.8,47.5L58.1,47.2L58.5,47.0L106.9,47.0L111.5,47.2L116.0,47.1L118.4,47.2L118.8,47.1L119.1,46.7L119.2,44.1L118.7,43.7L118.0,43.6L110.3,43.7L79.5,43.5L79.0,43.6L58.1,43.5L57.7,43.1L57.1,41.0L56.1,38.9L54.9,37.3L53.3,35.7L53.2,35.7L51.9,34.8L50.9,34.3L48.9,33.6L47.5,33.4L44.8,33.4L42.5,33.9L40.3,34.8L39.0,35.7L37.1,37.6L35.7,39.7L35.3,40.8L35.0,41.1L34.4,43.1Z" fill="#000" fill-rule="evenodd"/>
</svg>