<svg xmlns="http://www.w3.org/2000/svg" viewBox="0 0 128 128" width="128" height="128">
  <path d="M9.6,10.5L9.4,31.0L9.5,67.9L9.7,93.9L10.0,96.0L10.6,98.3L11.8,101.6L12.8,103.7L14.4,106.3L15.1,107.0L16.1,108.5L18.1,110.4L20.9,112.7L24.5,114.8L26.7,115.8L29.0,116.4L29.6,116.7L32.8,117.4L35.8,117.6L45.8,117.6L49.7,117.8L55.3,117.7L65.3,117.9L67.6,117.7L72.1,116.8L75.3,115.6L77.4,114.6L80.8,112.3L83.7,109.6L85.2,107.9L87.4,104.4L89.1,100.8L90.3,96.6L90.7,92.2L90.7,78.6L90.5,73.7L90.6,64.5L90.4,64.1L90.1,63.9L81.6,63.8L81.2,63.6L81.2,63.4L81.6,63.1L82.1,63.0L84.1,62.1L86.6,60.2L88.7,57.9L89.8,55.9L90.6,53.6L90.9,51.7L91.0,49.6L90.4,46.6L89.6,44.6L88.7,43.1L87.1,41.0L85.7,39.8L84.8,39.1L82.6,37.9L80.1,37.2L79.8,36.8L80.8,36.6L87.6,36.6L88.9,36.8L90.0,37.2L90.8,38.1L91.3,38.8L91.6,40.5L91.6,54.3L91.8,57.5L91.8,87.7L92.3,117.6L92.6,117.9L93.0,118.0L95.2,118.1L105.5,118.1L112.8,118.3L118.3,118.2L118.7,117.8L118.9,117.1L118.6,95.5L118.4,62.2L118.5,59.4L118.4,51.5L118.4,39.4L118.2,34.3L117.5,30.5L117.0,28.9L115.3,24.7L113.9,22.3L112.4,20.4L109.6,17.5L107.2,15.5L103.5,13.3L100.1,11.9L98.8,11.6L97.8,11.2L94.9,10.6L92.0,10.4L61.8,10.2L58.6,10.6L57.5,11.0L56.6,11.1L55.5,11.6L54.5,11.8L52.1,12.8L50.5,13.6L47.6,15.5L43.9,19.0L41.6,21.8L39.4,25.9L38.0,29.7L37.3,33.2L37.1,54.0L37.2,63.3L37.6,63.9L38.8,64.0L46.9,64.0L47.9,64.2L47.8,64.6L46.2,65.0L44.3,65.7L42.2,67.0L39.9,69.2L38.3,71.5L37.8,72.8L37.1,74.8L36.7,78.3L37.3,81.3L37.9,82.9L38.1,83.3L38.1,83.5L39.0,85.0L40.5,86.9L42.3,88.5L43.3,89.2L44.0,89.4L44.8,90.0L47.0,90.8L47.6,91.1L47.5,91.4L46.8,91.5L39.6,91.5L38.5,91.2L37.2,90.4L36.5,89.6L36.1,88.1L36.1,19.2L36.0,10.9L35.8,10.4L35.4,10.1L34.9,10.0L16.9,10.2L13.3,10.1L10.3,10.2Z M75.1,36.7L75.2,36.8L75.2,37.1L71.9,38.1L70.4,38.8L68.4,40.3L66.9,41.8L66.0,43.1L65.1,44.8L64.7,45.3L64.2,47.0L63.7,49.9L63.8,51.5L64.5,54.5L65.6,56.9L67.0,58.9L69.5,61.2L70.2,61.7L73.2,63.0L73.7,63.4L73.7,63.7L73.3,63.8L65.2,63.8L64.7,64.0L64.6,64.3L64.6,74.8L64.4,76.9L64.6,81.2L64.6,87.8L64.3,89.2L63.8,90.0L63.2,90.7L62.3,91.1L61.1,91.5L54.0,91.5L53.1,91.2L53.7,90.8L54.3,90.8L57.7,89.2L59.5,87.8L61.1,86.1L62.5,83.8L63.4,81.5L63.8,80.0L63.9,76.8L63.3,74.0L62.8,72.5L62.2,71.4L60.6,69.1L59.2,67.7L56.5,65.8L54.3,65.0L53.6,64.9L53.0,64.6L52.9,64.4L53.1,64.2L53.7,64.1L62.3,64.0L62.8,63.9L63.2,63.5L63.3,39.7L63.4,38.9L63.9,38.1L65.6,36.8L66.5,36.6Z" fill="#000" fill-rule="evenodd"/>
</svg>