<svg xmlns="http://www.w3.org/2000/svg" viewBox="0 0 128 128" width="128" height="128">
  <path d="M9.0,119.2L10.6,119.2L9.4,119.0Z M57.7,107.1L56.0,107.7L55.4,108.1L54.3,109.1L53.5,110.5L53.1,112.3L53.1,113.5L53.5,114.7L53.9,115.4L55.2,117.0L56.4,117.7L58.0,118.1L59.4,118.1L60.4,117.8L61.5,117.3L62.9,116.0L63.4,115.4L63.9,114.0L64.1,113.2L64.1,111.9L63.9,111.5L63.9,111.0L63.5,110.1L62.9,109.1L62.0,108.2L61.1,107.7L60.0,107.3L59.2,107.1Z M67.8,107.2L67.2,107.7L66.0,108.9L65.3,109.8L64.9,111.3L64.9,112.8L65.2,114.2L65.7,115.2L66.9,116.3L67.9,117.0L69.5,117.6L71.2,117.6L72.3,117.3L73.9,116.3L74.8,115.4L75.4,114.3L75.9,112.4L75.6,110.5L75.1,109.3L74.5,108.5L73.3,107.4L71.1,106.7L69.6,106.7Z M44.9,104.9L43.2,105.9L42.5,106.7L41.8,107.8L41.4,109.3L41.4,110.5L41.8,112.0L42.3,113.1L42.9,113.8L44.3,114.9L46.1,115.5L47.7,115.5L48.7,115.3L50.2,114.5L51.2,113.5L52.0,112.4L52.4,110.9L52.4,109.4L52.3,108.6L51.7,107.3L51.2,106.6L50.1,105.5L49.1,105.0L47.8,104.6L46.2,104.6Z M80.5,103.7L79.1,104.4L78.4,104.9L77.3,106.1L76.8,106.9L76.4,108.6L76.4,109.4L76.6,110.8L77.4,112.3L78.9,113.7L79.9,114.2L81.1,114.5L83.2,114.4L84.1,114.1L85.1,113.5L86.6,112.0L87.2,110.5L87.2,107.5L86.8,106.6L86.3,105.9L85.2,104.8L83.9,104.0L82.9,103.7Z M34.0,99.8L32.7,100.6L32.1,101.3L31.2,102.6L30.8,104.1L30.8,105.6L31.0,106.4L31.4,107.6L32.2,108.5L33.3,109.5L34.4,110.1L35.6,110.4L36.5,110.4L38.0,110.1L39.2,109.6L39.9,109.0L40.8,108.1L41.4,107.1L41.5,106.5L41.7,106.0L41.8,105.3L41.7,104.0L41.4,102.8L40.2,101.0L39.6,100.5L38.4,99.8L37.1,99.4L35.4,99.4Z M91.5,97.8L90.7,97.9L89.6,98.6L88.2,99.9L87.4,101.7L87.2,102.5L87.3,104.1L87.5,105.0L88.0,105.9L88.6,106.7L89.6,107.6L90.8,108.2L91.7,108.4L93.2,108.5L94.1,108.3L94.8,108.1L96.1,107.4L97.0,106.5L97.7,105.4L98.2,103.6L98.2,102.5L98.1,101.6L97.6,100.4L96.8,99.4L95.6,98.5L93.9,97.8Z M54.5,92.6L53.0,93.0L51.7,93.7L50.4,95.0L49.3,97.2L49.0,98.2L49.0,99.7L49.3,101.0L49.5,101.7L50.3,103.1L51.0,104.0L52.1,104.8L53.9,105.6L55.3,105.9L56.4,105.9L58.0,105.5L59.2,104.9L61.1,103.1L61.9,101.9L62.3,100.9L62.4,100.2L62.4,98.0L61.7,96.0L61.2,95.2L59.8,93.8L58.9,93.3L57.3,92.6Z M26.0,91.7L25.3,91.8L23.9,92.7L22.7,94.0L22.1,95.3L21.8,96.8L21.9,98.2L22.2,99.1L22.8,100.3L23.8,101.4L24.5,101.9L25.6,102.4L26.7,102.6L27.8,102.6L28.7,102.5L30.3,101.7L31.8,100.4L32.1,99.9L32.6,98.8L32.8,97.5L32.6,95.4L31.7,93.8L30.0,92.3L28.9,91.8L28.2,91.7Z M100.6,89.5L99.2,90.0L98.8,90.3L98.5,90.4L97.7,91.1L96.9,92.2L96.2,93.8L96.2,95.4L96.3,96.5L96.6,97.4L97.0,97.9L98.4,99.4L100.2,100.2L102.4,100.2L103.6,99.9L104.5,99.5L106.1,98.1L106.5,97.5L107.2,95.9L107.2,93.9L106.9,93.0L106.1,91.4L105.3,90.7L104.6,90.2L103.4,89.7L102.5,89.5Z M81.4,87.5L79.4,88.5L77.6,90.3L77.1,91.1L76.6,92.5L76.4,94.1L76.4,95.2L76.8,96.4L77.5,97.8L78.9,99.3L79.5,99.8L80.6,100.3L82.1,100.7L83.7,100.8L85.6,100.3L87.2,99.4L88.2,98.6L88.9,97.7L89.3,96.8L89.8,95.2L89.9,93.7L89.7,92.7L89.1,91.0L88.6,90.1L87.4,88.9L86.4,88.2L84.8,87.6L84.0,87.6L83.4,87.4Z M41.7,86.9L40.6,87.2L39.4,87.8L38.3,88.6L37.5,89.4L36.7,90.9L36.4,91.8L36.1,93.4L36.2,94.6L36.7,96.3L37.1,97.2L37.9,98.2L39.0,99.1L40.7,99.9L41.1,99.9L41.8,100.2L43.5,100.2L44.7,99.9L45.8,99.5L46.9,98.8L48.2,97.5L48.9,96.5L49.4,94.9L49.4,92.4L49.0,91.1L48.1,89.4L46.9,88.2L46.3,87.8L44.4,87.0Z M19.9,81.8L18.1,82.3L17.2,82.9L16.1,84.0L15.4,85.3L15.1,86.4L15.0,88.2L15.4,89.5L15.8,90.3L16.6,91.3L17.3,91.9L18.1,92.2L18.5,92.6L19.1,92.7L21.2,92.9L22.5,92.6L23.4,92.2L24.1,91.6L25.1,90.4L25.6,89.5L26.0,88.3L26.0,86.4L25.4,84.7L24.9,84.0L23.7,82.8L21.9,81.9Z M93.0,77.4L91.8,77.7L90.5,78.2L89.2,79.1L88.2,80.0L87.2,81.8L86.8,83.8L86.9,85.6L87.5,87.2L88.2,88.4L89.1,89.2L90.8,90.3L92.2,90.7L93.7,90.8L95.5,90.5L97.0,89.9L98.0,89.2L98.8,88.4L99.8,86.9L100.3,85.5L100.4,83.1L100.0,81.8L99.4,80.6L97.7,78.8L97.2,78.4L95.7,77.7Z M15.9,70.7L14.9,70.9L13.9,71.2L13.2,71.6L11.6,73.2L11.1,74.0L10.7,75.4L10.7,77.0L11.2,78.6L11.8,79.7L13.2,81.0L15.0,81.7L16.6,81.8L17.8,81.6L18.9,81.1L20.0,80.2L20.8,79.3L21.2,78.4L21.5,77.3L21.6,75.2L21.2,73.9L20.6,72.9L19.2,71.6L18.1,71.0Z M26.3,64.2L24.6,65.0L23.9,65.5L22.3,67.4L21.6,69.0L21.5,70.1L21.5,71.6L21.8,73.0L22.6,74.6L24.2,76.2L26.0,77.1L26.3,77.1L26.8,77.3L27.8,77.5L29.6,77.4L29.7,77.8L29.1,78.3L27.9,79.5L27.5,80.0L27.2,80.8L26.9,81.2L26.8,82.0L26.6,82.3L26.5,83.4L26.5,85.2L27.5,87.3L29.1,89.1L30.8,89.9L32.6,90.3L33.6,90.3L35.2,90.0L37.6,88.8L38.7,87.5L39.3,86.4L39.6,85.6L39.8,83.9L39.8,82.7L39.4,80.9L38.5,79.4L37.4,78.4L35.9,77.4L33.7,76.9L31.7,76.9L31.6,76.6L31.8,76.4L32.2,76.1L33.3,75.1L34.0,74.0L34.5,72.8L34.8,71.7L34.8,70.2L34.7,69.2L34.3,67.8L33.4,66.5L32.2,65.3L31.4,64.8L29.8,64.1L27.7,63.9Z M17.2,48.0L14.9,48.0L13.9,48.3L13.0,48.8L12.0,49.6L11.5,50.3L10.7,52.1L10.5,53.9L10.8,55.1L11.9,57.1L13.1,58.2L13.6,58.4L13.9,58.7L13.9,59.0L13.8,59.1L13.2,59.2L12.3,59.6L11.4,60.2L10.8,60.7L10.1,61.6L9.4,62.9L9.3,63.6L9.2,65.4L9.5,66.7L10.1,67.8L10.7,68.5L12.1,69.6L13.5,70.1L15.5,70.1L17.0,69.7L17.6,69.3L18.7,68.4L19.5,67.3L19.9,66.4L20.1,65.5L20.2,64.5L20.0,63.5L19.5,62.0L18.5,60.6L17.5,59.8L16.9,59.5L16.8,59.1L17.2,58.8L17.8,58.7L18.9,58.1L19.7,57.5L20.6,56.5L21.1,55.8L21.5,54.6L21.6,53.0L21.1,51.3L20.4,50.0L18.8,48.6L18.3,48.3Z M36.2,37.5L34.7,37.2L33.3,37.2L32.3,37.3L31.6,37.6L30.2,38.4L28.8,39.8L27.9,41.3L27.4,43.0L27.4,44.7L28.0,46.7L28.4,47.6L29.3,48.7L30.5,49.7L30.4,50.1L29.5,49.9L27.3,49.9L25.6,50.5L24.6,51.0L23.5,52.0L22.8,52.9L22.2,54.1L21.7,55.9L21.7,57.1L21.9,58.5L22.3,59.5L22.8,60.4L23.8,61.5L24.6,62.2L26.3,63.1L27.7,63.4L29.1,63.4L30.3,63.2L32.2,62.2L33.8,60.6L34.4,59.8L34.9,58.4L35.1,57.5L35.0,55.3L34.5,53.7L33.9,52.8L33.0,51.8L31.7,50.7L31.6,50.4L32.4,50.4L32.9,50.6L34.8,50.6L36.5,50.2L37.8,49.5L38.9,48.5L40.0,47.1L40.5,46.1L40.7,44.9L40.6,42.6L40.2,41.5L40.2,41.2L39.6,40.1L38.7,39.0L37.3,38.0Z M18.6,36.7L17.4,37.2L16.2,38.1L15.6,38.8L15.0,39.8L14.6,41.2L14.7,43.4L15.4,45.2L16.6,46.5L17.5,47.1L18.8,47.6L20.8,47.6L21.5,47.4L22.9,46.8L23.8,46.1L24.7,44.9L25.3,43.8L25.5,42.6L25.5,41.6L25.1,40.0L24.4,38.7L23.0,37.3L21.6,36.7Z M106.8,35.4L105.6,35.7L104.9,36.0L104.4,36.4L104.2,36.4L103.1,37.5L102.7,38.1L102.0,39.8L102.0,41.7L102.3,42.9L103.1,44.2L104.1,45.2L104.8,45.7L106.2,46.2L108.0,46.5L108.5,46.3L109.3,46.5L107.9,47.6L107.1,48.7L106.7,49.5L106.3,51.0L106.3,52.2L106.5,53.0L107.0,54.3L107.5,55.0L108.9,56.3L109.9,56.8L111.1,57.1L111.9,57.1L112.1,57.1L112.1,57.5L110.6,58.2L109.5,59.0L108.8,59.8L108.3,60.8L108.0,61.9L107.9,63.7L108.2,65.0L109.2,66.5L109.9,67.2L110.7,67.8L112.2,68.3L112.4,68.6L112.1,68.9L111.1,69.0L109.9,69.3L108.7,70.1L107.2,71.7L106.7,73.3L106.6,75.4L107.0,76.7L107.6,77.7L108.3,78.5L109.3,79.2L109.9,79.5L109.9,79.8L109.0,79.6L107.6,79.6L106.5,79.9L105.4,80.3L104.6,80.8L103.7,81.9L103.0,83.1L102.6,84.6L102.6,85.8L103.3,88.0L103.8,88.6L105.1,89.8L106.4,90.3L107.4,90.5L109.5,90.4L110.1,90.1L110.6,90.0L111.9,89.1L113.1,87.7L113.7,86.2L113.7,83.7L113.3,82.7L112.4,81.5L111.8,80.9L110.9,80.4L110.6,80.0L110.7,79.8L113.3,79.8L114.4,79.5L115.4,78.9L116.6,77.9L117.1,77.2L117.5,76.2L117.9,75.1L117.9,73.5L117.5,72.5L117.1,71.6L115.8,70.1L114.9,69.5L113.6,69.0L113.3,68.7L113.7,68.5L114.3,68.5L115.6,68.1L116.8,67.4L117.8,66.5L118.8,65.0L119.1,63.7L119.1,62.7L119.0,61.7L118.3,60.2L117.6,59.3L116.7,58.4L116.0,58.0L114.8,57.5L113.9,57.4L113.6,57.1L113.6,57.0L113.8,56.8L115.2,56.1L116.4,55.0L117.2,53.9L117.5,52.6L117.5,50.8L117.4,50.2L116.7,48.7L115.9,47.7L114.9,46.9L114.0,46.5L112.3,46.1L111.0,46.1L110.1,46.3L109.9,46.1L110.4,45.7L111.1,45.3L111.8,44.6L112.7,43.2L113.0,42.3L113.2,41.2L113.1,39.8L112.7,38.7L111.4,37.0L110.2,36.1L108.1,35.4Z M83.4,27.7L81.8,28.1L80.6,28.7L78.5,30.8L78.1,31.5L77.6,33.2L77.6,35.3L78.5,37.9L80.8,40.2L83.0,41.0L85.5,41.0L87.1,40.5L88.1,40.0L89.1,39.2L90.2,38.0L90.8,36.8L91.1,35.5L91.2,34.2L91.0,33.0L90.3,31.0L89.5,30.0L88.2,28.8L87.4,28.3L86.3,27.9L85.0,27.7Z M26.5,26.7L24.5,27.2L23.8,27.6L22.7,28.6L21.9,30.2L21.5,31.2L21.5,33.0L21.9,34.3L22.3,35.2L22.7,35.8L23.8,36.7L24.6,37.2L25.7,37.6L27.8,37.7L28.9,37.3L29.9,36.9L31.2,35.8L31.8,35.0L32.2,33.9L32.5,32.4L32.5,31.6L32.3,30.7L31.8,29.3L31.1,28.5L30.3,27.7L29.4,27.1L28.4,26.7Z M99.3,26.1L97.7,26.7L97.0,27.3L96.0,28.3L95.5,29.2L95.1,30.6L95.1,32.0L95.3,32.9L95.8,34.0L96.3,34.8L97.2,35.7L98.0,36.2L98.9,36.6L100.1,36.9L101.6,36.9L102.6,36.6L104.2,35.8L105.2,34.9L105.6,34.3L106.1,33.1L106.3,31.9L106.1,30.1L105.7,29.1L105.3,28.4L104.2,27.4L103.3,26.7L101.7,26.1Z M56.3,22.1L55.3,22.4L53.8,23.1L52.1,24.6L51.7,25.1L51.0,26.5L50.6,28.2L50.7,30.2L51.1,31.6L52.2,33.2L53.6,34.5L55.3,35.3L56.3,35.5L58.6,35.5L59.8,35.1L60.3,35.3L58.3,37.0L57.6,37.8L56.8,39.1L56.4,40.2L56.1,41.6L56.0,44.5L55.7,44.4L55.4,43.9L53.9,42.3L52.6,41.4L50.9,40.7L50.2,40.7L49.6,40.4L47.8,40.4L47.6,40.0L48.9,38.9L50.1,37.4L50.8,36.0L51.1,34.0L50.9,32.5L50.6,31.5L49.6,29.8L48.2,28.6L47.0,27.9L46.0,27.7L45.9,27.5L45.3,27.4L43.1,27.4L42.1,27.7L40.6,28.5L39.9,28.9L39.0,30.0L38.0,31.7L37.6,33.7L37.7,35.0L38.1,36.7L38.4,37.3L39.4,38.6L40.2,39.3L41.5,40.2L42.7,40.6L44.6,40.8L44.9,41.0L45.1,41.2L44.0,41.9L42.1,43.8L41.1,45.7L40.6,47.6L40.6,49.5L41.4,52.1L42.1,53.3L42.6,54.0L44.4,55.5L46.1,56.4L48.4,56.7L50.5,56.5L52.0,56.0L52.9,55.6L54.1,54.7L55.2,53.5L56.3,51.4L56.8,49.7L56.7,46.9L56.9,46.7L57.2,46.8L57.9,47.8L59.7,49.4L60.8,50.0L62.1,50.5L62.2,50.8L61.9,51.0L58.4,52.2L58.1,52.5L57.4,52.7L56.0,53.7L55.6,53.9L54.5,54.9L54.3,55.2L53.2,56.4L52.2,58.1L51.6,59.4L50.9,61.6L50.7,63.6L50.8,65.8L51.6,68.9L52.7,71.2L53.7,72.5L53.6,72.9L53.0,72.7L51.9,71.9L51.3,71.8L50.5,71.4L50.1,71.4L48.8,71.0L46.7,71.0L46.7,70.7L48.4,69.0L49.5,67.0L49.5,66.8L49.8,66.2L50.1,65.0L50.1,62.9L49.9,62.0L49.5,60.8L48.4,59.0L46.7,57.3L45.9,56.7L45.1,56.4L44.8,56.2L44.0,56.1L43.4,55.9L42.1,55.8L40.5,56.0L39.8,56.3L38.5,56.6L37.4,57.3L36.4,58.2L35.1,59.7L34.4,61.1L33.9,63.6L34.0,65.5L34.5,67.2L35.4,68.8L36.1,69.6L37.6,70.8L39.1,71.6L39.9,71.8L41.4,72.0L43.5,72.0L43.6,72.2L43.5,72.6L42.5,73.5L41.0,75.3L40.2,77.7L40.1,80.0L40.2,81.0L40.7,82.6L42.0,84.5L43.4,85.8L44.3,86.4L45.6,86.9L47.4,87.2L49.7,87.2L51.5,86.5L52.8,85.7L54.7,84.0L55.1,83.2L55.4,83.1L55.6,83.2L55.3,85.1L55.3,86.7L55.5,87.7L56.6,90.1L57.3,91.1L58.2,92.0L59.7,93.0L61.3,93.5L62.4,93.7L64.7,93.7L65.8,93.3L66.3,93.4L66.3,93.6L64.9,94.9L64.2,95.8L63.3,97.9L63.1,99.1L63.2,100.7L63.5,101.7L64.2,103.0L64.6,103.6L65.9,104.8L67.2,105.5L68.0,105.9L68.8,105.9L69.0,106.1L70.4,106.1L71.5,105.9L72.7,105.5L73.6,104.9L75.1,103.6L75.6,102.7L76.2,101.4L76.5,99.8L76.5,98.7L76.0,96.8L75.4,95.6L74.3,94.4L73.2,93.6L72.2,93.1L71.0,92.8L69.0,92.7L68.1,93.0L67.5,92.8L69.5,91.0L70.7,89.1L71.2,87.8L71.4,87.0L71.4,84.2L71.5,83.9L71.8,83.9L73.5,85.7L75.2,86.9L77.0,87.5L78.2,87.6L80.7,87.5L81.5,87.2L82.1,86.9L83.2,86.4L84.7,85.0L85.9,83.6L86.7,81.9L86.9,80.8L86.9,78.6L86.3,76.4L85.4,74.7L83.8,73.1L83.3,72.8L83.2,72.4L83.3,72.3L84.3,72.4L86.5,72.4L88.6,71.9L90.6,70.7L92.5,68.8L92.8,68.8L92.8,69.2L92.5,70.0L92.4,71.8L92.6,72.8L93.2,74.3L94.0,75.6L94.9,76.6L95.5,76.9L96.3,77.5L98.7,78.0L99.6,78.0L101.6,77.6L103.1,76.8L104.8,75.3L105.3,74.7L105.8,73.5L106.1,72.1L106.1,70.3L105.7,68.9L105.3,68.1L104.5,67.0L103.2,65.9L102.1,65.2L100.7,64.8L100.4,64.3L100.7,64.0L101.6,63.9L103.2,63.1L104.3,62.2L105.5,60.9L106.3,58.9L106.5,56.6L106.1,55.3L105.7,54.2L104.8,53.1L103.8,52.2L102.9,51.7L102.6,51.4L101.5,51.0L100.1,50.7L97.8,50.7L97.8,50.4L98.6,49.8L100.0,48.3L100.8,46.7L101.1,45.3L101.1,43.6L100.8,42.3L100.4,41.5L99.4,40.1L98.2,39.1L97.3,38.5L96.8,38.4L96.3,38.1L94.7,37.8L93.5,37.8L91.8,38.2L90.9,38.6L89.6,39.6L88.5,40.9L87.8,42.5L87.6,43.1L87.5,45.4L87.8,46.9L89.0,48.7L90.8,50.3L91.6,50.7L93.1,51.1L95.2,51.2L95.7,51.0L96.2,51.0L96.4,51.3L95.1,52.2L93.9,53.5L93.5,54.1L92.9,55.5L92.7,56.7L92.6,57.7L93.0,59.7L93.5,60.8L94.6,62.1L95.8,63.1L97.7,64.0L98.5,64.1L98.8,64.4L98.6,64.6L97.7,64.8L95.9,65.4L94.5,66.5L93.6,67.4L93.3,67.3L93.5,65.9L93.7,65.6L93.7,63.6L93.2,61.5L92.3,59.8L91.0,58.4L89.0,57.1L87.4,56.5L86.5,56.4L84.0,56.4L83.7,56.0L85.0,55.0L86.3,53.3L87.2,51.5L87.6,49.7L87.6,48.1L87.1,46.3L86.5,44.9L84.5,42.7L84.4,42.7L83.9,42.3L83.2,41.9L81.3,41.1L80.1,41.1L79.6,40.9L78.0,41.1L76.8,41.4L74.3,42.7L72.6,44.5L72.4,44.5L72.2,44.3L72.3,42.0L71.8,39.9L70.9,38.0L69.7,36.6L68.8,35.8L68.9,35.4L69.4,35.4L70.1,35.7L72.2,35.7L73.4,35.4L74.5,35.0L75.3,34.5L76.6,33.3L77.5,32.0L77.9,30.9L78.1,30.0L78.1,28.7L77.9,27.4L77.4,26.1L76.4,24.6L75.0,23.4L73.7,22.8L72.1,22.3L70.9,22.3L69.5,22.5L67.9,23.2L66.9,24.0L65.7,25.3L65.1,26.3L64.8,27.3L64.6,28.7L64.6,30.1L65.2,31.9L66.1,33.3L67.3,34.5L67.2,34.8L66.6,34.8L65.7,34.5L63.0,34.5L61.0,35.0L60.8,34.7L62.7,33.0L63.6,31.2L63.9,30.3L64.1,29.2L64.1,28.6L63.8,26.9L63.3,25.8L62.7,24.8L61.6,23.7L60.6,23.0L59.8,22.6L58.5,22.2Z M72.6,74.1L72.6,74.3L71.4,75.9L71.4,76.3L71.0,77.0L70.8,78.3L70.7,78.6L70.7,81.0L70.3,81.2L69.7,80.5L68.4,79.2L67.7,78.9L66.8,78.2L65.0,77.6L64.9,77.3L65.4,77.0L67.1,76.7L67.5,76.5L68.0,76.4L69.2,75.9L70.8,75.1L71.8,74.3L72.3,74.0Z M54.4,73.6L54.9,73.7L56.5,75.0L57.8,75.8L58.5,76.0L58.9,76.3L59.5,76.4L60.4,76.8L61.2,76.9L61.9,77.1L62.5,77.1L62.8,77.3L62.8,77.4L62.7,77.6L60.7,78.0L59.2,78.7L58.0,79.6L57.3,80.2L56.9,80.9L56.2,81.5L56.0,81.4L56.0,81.1L56.2,80.4L56.2,78.6L56.0,77.1L55.2,75.1L54.3,73.9Z M74.1,55.3L75.0,56.0L76.1,56.5L77.5,57.0L78.7,57.1L80.9,57.1L81.1,57.3L79.1,59.4L78.2,60.6L77.4,62.9L77.2,64.0L77.2,65.1L77.7,67.0L78.4,68.6L79.4,70.0L80.8,71.2L81.3,71.3L81.3,71.6L80.4,71.7L79.7,71.5L78.3,71.5L77.8,71.6L77.1,71.6L76.8,71.8L75.7,72.0L74.2,72.8L73.5,73.4L73.2,73.1L74.4,71.6L75.8,69.1L76.5,66.9L76.9,65.1L76.9,63.8L76.5,61.0L76.0,59.5L75.4,58.2L73.8,55.6L73.9,55.3Z M65.3,50.8L65.4,50.7L66.6,50.3L68.4,49.5L69.1,49.1L70.9,47.2L71.3,47.2L71.4,47.6L71.2,48.2L71.2,49.0L71.4,51.1L72.0,52.6L73.0,54.3L72.9,54.5L70.7,53.0L69.3,52.2L68.4,52.0L67.0,51.4L65.4,51.0Z M34.6,18.8L33.3,19.3L31.9,20.4L31.3,21.3L30.8,22.1L30.5,23.2L30.4,24.5L30.6,25.7L31.0,27.0L31.5,27.6L32.9,28.9L34.5,29.6L35.5,29.7L36.3,29.7L37.6,29.5L39.1,28.7L40.2,27.7L41.0,26.3L41.3,25.0L41.3,23.1L40.8,21.6L40.2,20.7L38.8,19.4L38.1,19.2L37.8,19.0L37.1,18.8Z M76.8,15.5L76.4,16.3L76.0,17.6L76.0,19.1L76.4,20.5L77.1,21.7L78.4,23.0L79.4,23.6L80.8,23.9L82.5,23.9L83.3,23.7L85.1,22.8L86.1,21.8L86.4,21.9L86.4,22.6L86.3,22.8L86.3,24.5L86.7,25.9L87.3,27.0L87.8,27.7L89.3,28.8L90.3,29.1L91.6,29.3L92.7,29.2L94.0,28.9L94.8,28.5L95.8,27.7L96.3,27.2L97.2,25.8L97.3,23.9L97.1,22.4L96.5,20.9L95.2,19.5L94.2,18.9L93.0,18.5L92.1,18.3L90.9,18.3L89.9,18.6L88.7,19.1L87.6,20.2L87.2,20.3L87.0,20.1L87.1,19.4L87.1,17.9L86.8,16.7L86.2,15.5L85.8,15.0L84.2,13.7L83.4,13.3L82.1,13.0L81.0,13.0L80.0,13.2L78.5,13.8Z M45.8,13.0L44.4,13.3L43.7,13.7L42.8,14.4L41.7,15.5L41.2,16.5L40.9,17.3L40.9,19.4L41.1,20.5L41.9,21.8L42.5,22.5L43.7,23.4L44.6,23.8L45.0,23.8L45.6,24.0L46.9,24.0L47.8,23.9L48.9,23.4L49.7,22.8L50.5,22.1L51.2,21.2L51.6,20.3L51.9,19.1L51.9,17.9L51.5,16.4L50.9,15.4L50.1,14.5L49.3,13.8L48.0,13.3Z M57.2,10.3L55.3,10.8L54.6,11.3L53.5,12.4L52.5,14.1L52.4,15.0L52.4,16.4L52.6,17.4L53.0,18.3L53.6,19.2L54.5,20.1L56.1,20.9L57.0,21.2L58.3,21.3L59.9,20.9L60.5,20.6L62.1,19.2L62.8,18.2L63.1,17.1L63.3,17.0L63.4,14.8L63.0,13.6L62.6,12.8L61.2,11.4L59.5,10.4L58.8,10.3Z M67.8,10.5L66.5,11.4L65.5,12.4L65.0,13.3L64.5,14.9L64.5,16.2L64.8,17.5L65.0,18.1L65.8,19.2L66.8,20.1L68.0,20.8L69.3,21.1L70.7,21.1L72.2,20.7L73.2,20.2L74.4,19.0L75.2,17.7L75.5,16.4L75.5,15.4L75.2,14.0L74.9,13.0L74.4,12.3L73.5,11.4L72.7,10.9L71.7,10.4L70.6,10.2L69.1,10.2Z" fill="#000" fill-rule="evenodd"/>
</svg>