<svg xmlns="http://www.w3.org/2000/svg" viewBox="0 0 128 128" width="128" height="128">
  <path d="M62.4,103.6L60.3,104.1L58.4,105.1L56.8,106.8L55.7,109.1L55.4,110.6L55.4,111.9L55.7,112.9L55.7,113.4L56.4,115.1L57.3,116.3L58.9,117.9L60.2,118.6L60.9,118.9L62.9,119.1L65.0,118.9L66.1,118.4L67.5,117.6L69.1,116.1L70.2,114.0L70.6,112.5L70.7,111.3L70.5,109.7L70.3,109.3L70.2,108.6L69.5,107.2L67.9,105.5L66.9,104.7L65.9,104.2L64.0,103.6Z M83.0,103.2L81.5,103.6L80.2,104.3L79.6,104.7L78.4,106.0L77.5,107.4L77.1,108.7L77.0,111.0L77.4,112.7L77.9,113.7L78.5,114.6L79.5,115.7L80.5,116.4L81.8,117.0L83.7,117.4L84.3,117.4L86.1,117.0L86.9,116.7L88.2,116.0L89.4,114.9L90.2,113.7L90.7,112.5L90.9,111.8L91.0,109.5L90.8,108.4L90.3,107.1L89.4,105.7L88.3,104.7L86.8,103.7L85.7,103.3Z M100.6,93.4L99.1,93.6L98.2,94.0L97.0,94.7L95.8,95.8L95.2,96.7L94.7,97.9L94.5,98.9L94.6,101.1L95.2,102.6L96.0,103.7L96.8,104.5L97.8,105.2L99.2,105.8L100.0,106.0L101.4,106.0L103.3,105.5L104.8,104.5L106.1,103.1L106.7,102.0L107.0,101.0L107.0,98.6L106.7,97.6L106.1,96.4L105.6,95.6L104.5,94.6L103.5,94.0L102.0,93.5Z M39.8,90.3L37.7,90.7L36.2,91.4L35.4,91.9L33.6,93.5L32.7,94.8L31.9,96.7L31.6,98.0L31.5,100.2L31.9,102.3L32.9,104.2L33.5,105.0L35.1,106.7L36.5,107.5L38.5,108.2L39.4,108.4L41.4,108.4L43.1,108.1L45.1,107.2L46.6,106.0L47.6,104.9L48.6,103.3L49.1,101.8L49.4,100.5L49.4,98.8L49.0,96.7L48.3,95.1L47.7,94.1L45.6,92.0L43.3,90.8L41.0,90.3Z M107.3,81.0L106.5,81.4L105.9,81.4L105.5,81.7L103.9,83.3L103.3,84.2L103.1,85.1L103.0,87.3L103.6,89.0L104.8,90.5L106.3,91.5L107.8,91.8L109.0,91.8L110.3,91.5L111.1,91.0L112.5,89.7L113.2,88.7L113.6,87.5L113.7,86.0L113.3,84.4L112.9,83.6L111.6,82.1L110.7,81.4L109.4,81.0Z M80.6,67.3L80.0,67.6L79.3,68.3L79.0,69.3L79.1,70.2L79.4,71.0L80.2,71.7L80.7,71.9L82.0,71.9L82.6,71.5L83.4,70.7L83.5,69.0L82.9,68.0L82.3,67.5L81.8,67.3Z M25.4,67.1L22.9,67.7L21.3,68.6L20.0,69.5L18.5,71.1L17.2,73.2L16.6,75.1L16.4,76.6L16.4,78.5L16.5,79.5L17.4,82.1L18.9,84.3L20.2,85.6L21.3,86.4L22.8,87.1L24.0,87.6L25.3,87.8L28.3,87.8L29.1,87.6L29.8,87.2L30.1,87.2L31.5,86.6L33.0,85.6L34.4,84.2L35.9,82.0L36.5,80.4L36.8,78.4L36.7,76.1L36.5,74.8L35.6,72.6L34.2,70.7L33.3,69.7L31.0,68.1L29.8,67.6L27.4,67.1Z M107.2,65.8L105.9,66.2L104.6,67.2L103.9,67.9L103.3,69.0L103.0,71.1L103.3,72.5L103.7,73.3L104.3,74.1L105.3,75.1L106.8,75.7L108.6,75.7L110.3,75.1L111.8,73.7L112.3,72.8L112.6,71.9L112.7,70.3L112.5,70.0L112.4,69.2L112.0,68.2L110.8,66.9L109.7,66.2L108.2,65.8Z M81.8,58.2L81.1,58.6L79.9,59.8L79.8,60.2L79.7,61.3L79.8,62.1L80.3,63.0L80.9,63.6L81.8,64.0L83.2,64.0L84.1,63.7L85.0,62.6L85.4,61.8L85.4,60.4L84.7,59.2L84.1,58.6L83.2,58.2Z M101.0,56.9L99.5,57.6L99.1,58.0L98.2,59.2L97.8,60.4L97.8,61.8L98.0,62.6L98.4,63.5L99.0,64.3L100.0,65.0L101.5,65.6L102.9,65.5L104.2,65.0L105.0,64.3L105.6,63.7L106.0,62.9L106.3,62.0L106.2,59.9L105.5,58.6L104.0,57.3L103.1,56.9Z M91.1,53.2L90.1,53.8L89.5,54.4L88.9,55.4L88.7,56.1L88.7,57.0L89.1,58.4L89.5,59.1L90.5,60.0L91.1,60.4L92.7,60.6L94.2,60.3L95.4,59.4L96.2,58.2L96.4,57.3L96.4,56.7L96.0,55.1L95.4,54.2L94.3,53.3L92.9,52.9L91.9,52.9Z M26.6,36.4L25.3,36.4L21.4,37.4L20.3,37.9L18.6,39.2L17.1,40.8L15.5,43.2L14.8,45.3L14.5,47.1L14.5,49.0L15.2,51.9L15.8,53.3L17.0,55.1L18.3,56.5L20.4,58.0L22.4,58.9L24.9,59.3L27.8,59.2L29.8,58.6L31.7,57.4L32.8,56.7L34.3,55.1L35.6,53.2L36.5,51.1L36.8,49.2L36.8,46.3L36.5,45.2L36.5,44.7L36.0,43.3L34.8,41.3L33.6,39.9L32.5,38.9L31.2,38.0L28.8,37.0L27.8,36.7L27.2,36.7Z M37.8,9.2L34.2,10.1L32.3,11.1L30.4,12.5L28.6,14.5L28.2,15.5L27.7,16.1L26.9,17.9L26.4,20.7L26.4,23.2L26.8,25.4L27.8,27.8L28.8,29.4L30.4,31.2L32.3,32.6L34.0,33.4L37.4,34.3L39.2,34.3L39.7,34.1L41.8,33.9L43.2,33.3L45.0,32.5L46.9,30.9L48.4,29.4L49.9,26.9L50.8,24.1L51.0,20.3L50.5,17.9L49.4,15.3L48.5,14.0L46.3,11.9L44.3,10.6L42.7,9.8L40.1,9.3Z" fill="#000" fill-rule="evenodd"/>
</svg>