<svg xmlns="http://www.w3.org/2000/svg" viewBox="0 0 128 128" width="128" height="128">
  <path d="M12.7,119.9L12.7,120.1L13.2,120.1L13.7,119.7L14.3,119.6L14.6,119.7L14.9,120.0L15.6,120.1L15.1,119.3L14.6,119.1L13.4,119.1L13.1,119.3Z M8.8,120.1L9.6,120.0L9.8,119.7L10.1,119.6L10.6,119.7L11.0,120.1L11.7,120.1L11.6,119.9L10.9,119.1L10.5,119.1L9.4,119.2Z M16.5,120.1L17.2,120.1L17.3,119.8L17.6,119.5L18.4,119.5L19.0,120.1L19.5,120.1L19.5,119.9L18.9,119.1L17.7,119.0L17.0,119.2L16.6,119.8Z M56.9,9.5L53.3,10.1L52.3,10.4L49.8,10.9L47.9,11.5L42.8,13.4L38.2,15.6L37.7,16.0L37.0,16.3L32.7,19.0L29.3,21.6L24.7,25.9L21.6,29.4L18.9,32.9L18.6,33.5L17.8,34.6L16.3,37.1L14.1,41.3L11.9,47.1L10.5,52.2L10.1,54.0L9.9,55.7L9.6,57.2L9.2,61.0L9.2,66.4L9.4,68.3L9.6,71.3L9.8,72.1L9.9,73.2L10.5,76.6L12.2,82.2L13.6,86.0L16.2,91.2L18.5,95.0L20.8,98.0L21.0,98.5L23.5,101.4L27.2,105.1L28.5,106.0L29.0,106.7L30.7,108.0L34.4,110.6L35.8,111.4L36.3,111.8L37.6,112.4L38.1,112.8L42.6,115.0L43.1,115.1L44.3,115.7L44.5,115.7L46.1,116.3L47.1,116.6L48.8,117.3L54.4,118.6L57.9,119.0L58.4,118.9L58.6,118.6L58.6,79.7L58.4,79.3L58.0,79.2L56.1,79.0L53.3,78.2L51.2,77.2L48.9,75.6L46.9,73.4L45.9,71.9L45.1,70.3L44.2,67.4L43.9,65.6L44.0,62.6L44.6,59.9L45.6,57.6L46.4,56.2L47.5,54.7L49.4,52.9L50.6,52.0L51.7,51.4L53.5,50.5L54.1,50.5L54.8,50.1L56.1,50.0L57.0,49.7L58.2,49.6L58.5,49.4L58.6,35.7L58.4,27.4L58.5,18.5L58.4,15.7L58.4,10.1L58.1,9.6Z M69.2,9.3L69.0,9.5L68.8,10.1L69.2,49.2L69.5,49.6L71.8,49.9L72.1,50.0L73.2,50.2L74.8,50.8L76.6,51.7L78.4,52.9L80.5,55.0L82.3,57.6L82.7,58.6L83.5,60.8L84.0,63.9L83.9,65.8L83.6,67.6L83.1,69.5L81.7,72.4L80.4,74.1L78.2,76.1L75.5,77.7L72.6,78.7L69.9,79.0L69.3,79.4L69.2,86.1L69.2,118.2L69.5,118.9L70.3,119.0L74.6,118.4L79.6,117.2L83.2,115.9L83.6,115.7L85.0,115.4L85.4,115.0L86.3,114.8L86.5,114.5L87.0,114.5L87.9,114.0L89.0,113.6L89.7,113.1L92.6,111.6L94.9,110.0L95.4,109.8L99.4,106.9L102.7,103.8L106.6,99.7L110.1,95.1L111.2,93.1L112.1,91.8L114.4,87.2L114.5,86.8L115.3,85.1L116.8,80.9L116.9,80.2L117.1,79.7L117.4,78.4L117.6,77.9L117.7,77.1L118.0,76.2L118.3,73.9L118.4,73.6L118.7,72.1L119.1,66.9L119.1,62.2L118.6,57.1L117.5,51.5L116.2,47.0L113.7,40.7L111.9,37.4L111.8,36.9L111.3,36.4L110.7,35.2L110.3,34.8L110.0,34.2L107.7,30.9L105.7,28.4L103.3,25.8L103.2,25.6L99.4,22.0L98.3,21.2L97.5,20.4L96.4,19.8L95.9,19.3L94.2,18.0L92.0,16.8L91.0,16.1L90.2,15.7L88.3,14.7L85.7,13.5L83.6,12.6L83.1,12.3L82.1,12.1L80.7,11.6L77.8,10.7L72.7,9.6L70.2,9.3Z" fill="#000" fill-rule="evenodd"/>
</svg>