<svg xmlns="http://www.w3.org/2000/svg" viewBox="0 0 128 128" width="128" height="128">
  <path d="M119.0,49.2L118.3,48.4L116.8,47.7L116.5,47.4L116.1,47.3L115.3,46.9L114.6,46.7L112.7,45.8L110.8,45.2L110.6,45.0L108.0,44.2L107.4,44.2L106.7,43.9L105.6,43.7L105.0,43.4L102.9,43.2L102.0,42.8L98.0,42.5L96.4,42.3L90.8,42.4L86.9,42.8L85.7,43.2L85.0,43.2L83.0,43.7L81.6,43.9L80.4,44.5L77.3,45.4L76.7,45.9L74.9,46.4L74.7,46.7L72.9,47.4L72.4,47.8L71.9,48.0L69.3,49.4L62.3,54.1L61.2,54.6L60.3,55.2L59.5,55.5L59.0,55.8L58.5,55.9L57.6,56.5L57.3,56.5L56.4,56.9L55.8,57.0L54.3,57.7L49.0,59.2L46.4,59.6L45.2,60.0L41.1,60.3L35.9,60.3L34.8,60.2L33.1,60.2L31.2,60.0L30.3,59.7L27.8,59.3L27.3,59.1L25.9,58.8L25.0,58.4L24.2,58.3L23.5,58.0L22.6,57.8L17.5,55.7L12.9,53.2L12.2,52.6L11.4,52.2L9.9,51.2L9.6,51.1L9.3,51.4L9.3,51.7L10.6,54.4L11.2,55.2L11.7,56.4L12.8,57.8L13.1,58.4L14.9,60.9L15.1,61.3L16.4,62.8L17.5,64.3L18.4,65.2L18.7,65.7L20.3,67.4L24.7,71.5L26.2,72.5L27.8,74.0L28.8,74.5L29.8,75.4L31.4,76.2L32.8,77.3L35.4,78.7L35.7,79.0L37.3,79.7L37.8,80.0L40.5,81.1L41.2,81.6L43.4,82.3L43.8,82.6L44.2,82.6L44.8,82.9L45.7,83.1L47.2,83.7L48.3,83.8L49.3,84.3L50.3,84.4L52.7,85.0L54.0,85.1L54.5,85.3L55.7,85.4L56.5,85.7L58.0,85.7L58.8,85.9L66.4,86.0L67.2,85.8L69.6,85.7L73.5,85.3L74.6,85.0L75.5,85.0L76.8,84.6L77.8,84.5L78.8,84.1L79.7,84.0L80.5,83.7L81.6,83.5L82.3,83.1L84.7,82.5L85.5,82.0L86.1,81.9L87.7,81.3L87.9,81.1L88.6,81.0L90.6,79.9L91.0,79.8L92.8,78.9L93.9,78.1L94.6,77.9L95.6,77.2L96.4,76.8L98.4,75.4L101.0,73.5L105.2,69.9L108.7,66.3L111.3,63.2L113.3,60.5L113.7,59.6L114.3,59.0L115.3,57.4L115.3,57.1L115.8,56.5L116.4,55.1L117.7,52.9L118.0,52.0L118.3,51.7L118.4,51.1L118.9,50.3Z" fill="#000" fill-rule="evenodd"/>
</svg>