<svg xmlns="http://www.w3.org/2000/svg" viewBox="0 0 128 128" width="128" height="128">
  <path d="M61.4,23.4L59.8,24.1L58.6,24.9L57.9,25.7L57.2,26.7L56.6,27.9L56.4,28.9L56.3,30.1L56.5,32.0L56.9,33.1L57.8,34.5L58.4,35.2L59.7,36.1L61.9,37.0L64.5,37.0L66.0,36.5L67.2,35.8L68.1,35.1L68.9,34.0L69.4,33.1L69.9,31.2L69.9,29.3L69.7,28.4L69.3,27.2L68.8,26.3L68.2,25.7L68.0,25.3L66.7,24.3L65.0,23.5L64.2,23.3L62.4,23.3Z M58.3,9.4L57.7,9.5L54.6,9.8L54.3,10.0L52.6,10.1L51.5,10.5L50.1,10.6L49.3,11.0L45.6,12.0L43.6,12.8L42.2,13.1L39.0,14.6L37.4,15.5L36.8,15.8L34.3,17.4L34.0,17.4L33.3,18.0L32.7,18.4L32.3,18.8L29.9,20.3L25.7,24.1L22.1,27.9L21.5,28.8L19.7,31.0L18.9,32.3L18.5,32.7L16.5,36.0L15.8,37.5L15.0,38.8L14.7,39.5L13.8,41.2L12.9,43.9L12.5,44.6L11.6,47.4L10.9,50.3L10.6,51.2L10.5,52.2L10.2,53.2L9.4,59.1L9.3,65.0L9.8,71.6L11.2,78.1L12.4,82.2L14.5,87.2L17.2,92.5L17.7,93.0L18.3,94.1L19.8,96.3L21.3,98.1L21.3,98.3L22.1,99.3L25.9,103.3L31.0,107.9L36.0,111.2L36.5,111.4L37.6,112.1L40.0,113.4L45.3,115.7L49.7,117.1L51.7,117.6L52.5,117.7L53.4,118.0L55.5,118.3L56.3,118.5L58.8,118.7L59.4,118.9L65.2,119.1L68.1,119.0L70.2,118.7L72.1,118.6L73.6,118.3L75.3,118.1L78.5,117.4L81.3,116.5L81.9,116.4L85.5,115.0L86.0,114.9L87.4,114.1L88.9,113.5L89.3,113.2L90.2,112.9L92.6,111.6L94.1,110.6L94.6,110.4L95.7,109.5L96.1,109.3L98.8,107.2L99.3,106.9L102.2,104.3L105.0,101.5L107.4,98.7L108.2,97.5L109.2,96.4L109.4,95.9L110.4,94.4L110.9,93.8L111.2,93.1L112.3,91.5L114.2,87.6L115.6,84.3L117.2,79.2L118.3,74.2L118.9,69.5L119.0,62.4L118.6,57.6L117.5,51.9L116.0,46.7L114.8,43.7L114.6,43.0L112.3,38.5L112.2,38.1L110.6,35.7L109.6,33.9L106.1,29.2L101.5,24.3L99.7,22.7L96.3,20.0L96.1,19.8L93.6,18.1L93.2,17.8L92.2,17.3L91.7,16.9L88.3,14.9L83.3,12.8L78.6,11.2L77.3,11.0L76.5,10.6L75.0,10.5L74.6,10.3L72.9,10.0L72.2,9.8L65.7,9.2L61.4,9.2Z M62.6,51.1L65.7,51.2L68.2,51.8L70.2,52.7L72.8,54.6L74.1,55.9L75.9,58.5L76.5,59.7L77.0,61.2L77.4,63.0L77.5,66.0L77.1,68.1L76.2,70.7L74.8,72.9L72.9,75.0L70.7,76.5L68.6,77.4L67.8,77.5L66.9,77.9L65.5,78.2L62.6,78.1L59.7,77.4L57.2,76.3L55.0,74.8L53.9,73.7L53.6,73.1L53.1,72.7L51.5,69.8L51.0,68.1L50.5,65.7L50.6,62.5L51.0,61.5L51.0,60.6L52.5,57.6L53.7,55.8L55.8,53.8L57.0,53.0L59.4,51.8L60.5,51.6L61.0,51.3Z M60.3,9.8L64.5,9.7L67.4,10.2L69.5,10.8L71.6,11.6L74.2,13.1L76.5,14.9L78.5,16.9L80.4,19.8L81.9,22.6L82.4,24.3L83.1,27.0L83.4,30.5L83.1,33.6L82.9,34.8L82.4,36.0L82.4,36.7L81.9,37.5L81.3,39.3L79.4,42.4L77.9,44.2L75.8,46.1L73.6,47.6L70.2,49.3L67.2,50.2L64.2,50.6L62.0,50.6L59.1,50.2L58.6,49.9L56.6,49.4L55.4,48.8L55.2,48.8L53.2,47.8L51.6,46.8L51.4,46.4L49.7,45.2L48.5,43.9L48.2,43.5L47.0,42.3L46.1,40.8L45.7,40.3L45.1,39.1L44.4,37.3L44.1,37.0L43.1,33.0L43.1,32.0L43.0,31.1L43.0,28.4L43.1,27.7L43.2,26.0L43.6,24.3L44.6,21.5L45.8,19.2L46.4,18.5L46.6,18.1L48.0,16.4L49.7,14.6L52.3,12.7L54.8,11.4L55.4,11.2L56.4,10.7L57.3,10.5L57.8,10.3Z" fill="#000" fill-rule="evenodd"/>
</svg>