<svg xmlns="http://www.w3.org/2000/svg" viewBox="0 0 128 128" width="128" height="128">
  <path d="M58.6,33.3L54.5,34.3L51.5,35.4L49.1,36.5L48.2,37.2L47.3,37.6L46.2,38.5L45.6,38.7L43.1,40.8L40.5,43.4L40.2,43.8L39.1,45.1L37.7,47.0L36.8,48.7L35.0,52.3L35.0,52.8L34.4,54.1L34.3,54.8L34.1,55.3L33.5,57.6L33.4,58.8L33.3,59.1L33.3,59.7L33.0,60.7L33.0,63.3L33.3,63.7L34.2,64.0L58.7,64.0L60.6,64.1L62.7,64.1L63.3,64.3L63.8,64.8L63.9,65.5L63.9,94.8L64.2,95.1L64.5,95.3L65.5,95.3L68.2,95.2L69.4,94.9L71.0,94.7L75.6,93.2L77.6,92.3L80.5,90.6L81.0,90.2L81.2,90.2L82.2,89.4L84.8,87.3L86.2,85.9L88.2,83.7L89.9,81.2L91.6,78.2L91.8,77.5L92.5,76.4L93.7,73.0L94.5,68.3L94.7,64.6L94.3,64.2L93.0,64.0L72.3,63.9L67.8,64.0L65.2,63.9L64.4,63.6L64.0,63.1L63.8,33.5L63.6,33.2L62.9,33.0L61.2,33.0L60.7,33.1Z M60.4,13.5L56.9,13.8L54.9,14.2L53.7,14.3L52.2,14.8L50.0,15.2L49.3,15.5L46.1,16.5L44.5,17.3L44.0,17.4L41.9,18.3L38.1,20.3L34.1,23.0L31.6,25.0L31.0,25.4L29.4,26.9L26.6,29.7L24.3,32.6L21.1,37.0L21.0,37.4L19.2,40.6L17.9,43.6L17.4,44.4L16.9,46.0L16.3,47.3L16.2,48.2L15.6,49.8L15.5,50.5L15.1,51.4L14.9,52.6L14.8,52.8L14.6,53.7L14.5,54.8L14.2,56.3L14.0,58.7L13.8,59.9L13.7,64.8L13.9,65.7L14.0,69.3L14.7,73.4L15.3,75.9L15.3,76.3L16.9,81.3L17.3,82.0L17.9,83.6L18.2,84.1L18.4,85.0L18.7,85.4L19.0,86.3L19.7,87.7L20.5,88.9L21.6,91.0L22.5,92.2L23.0,93.1L23.5,93.6L23.9,94.4L24.5,94.9L25.6,96.6L29.7,100.9L30.0,101.1L32.0,103.0L33.0,103.7L34.4,104.9L38.1,107.4L39.3,108.1L39.8,108.5L43.5,110.3L47.5,112.0L48.5,112.2L49.0,112.5L50.3,112.9L55.6,114.2L57.4,114.5L58.2,114.5L59.9,114.8L67.0,115.0L69.4,114.6L71.4,114.6L71.8,114.4L75.6,113.8L77.7,113.1L78.7,112.9L81.6,112.0L81.9,111.7L84.5,110.8L87.4,109.4L92.2,106.5L96.2,103.5L96.4,103.1L96.8,103.0L98.3,101.6L102.8,96.8L105.5,93.3L106.0,92.3L108.4,88.7L109.9,85.5L109.9,85.3L110.7,83.7L111.1,82.3L112.0,80.0L113.4,74.7L113.7,72.3L113.9,71.9L113.9,71.0L114.4,67.3L114.3,60.6L114.1,59.7L114.0,58.0L113.5,55.0L112.7,51.5L111.1,46.3L110.7,45.6L109.8,43.2L107.0,37.8L106.7,37.5L106.4,37.0L103.9,33.3L102.0,31.0L100.5,29.4L100.4,29.2L97.2,26.2L93.4,23.0L92.0,22.2L91.4,21.7L90.7,21.4L89.5,20.5L87.6,19.4L86.9,19.2L85.9,18.5L84.9,18.2L83.9,17.7L82.8,17.3L80.4,16.3L79.2,16.0L78.5,15.6L77.5,15.5L75.9,14.9L75.1,14.8L74.9,14.7L74.0,14.6L72.8,14.2L68.5,13.8L67.9,13.6L64.9,13.4Z M66.5,30.5L71.6,31.4L72.8,31.8L73.9,32.0L74.3,32.3L75.1,32.4L77.5,33.4L77.9,33.7L80.4,34.9L83.4,36.9L83.5,36.9L87.1,39.9L89.6,42.6L90.6,44.0L91.2,44.6L91.7,45.6L93.1,47.6L93.6,48.6L94.0,49.2L94.4,50.4L95.8,53.6L96.5,56.2L96.5,56.7L96.9,58.1L97.3,60.7L97.5,64.6L97.4,66.6L97.2,67.8L97.1,69.4L96.6,72.0L95.9,74.3L95.9,74.7L94.6,78.2L94.2,78.6L93.4,80.6L92.4,82.0L91.9,83.0L89.5,86.2L86.7,89.2L83.4,91.9L82.2,92.5L81.4,93.2L79.7,94.0L78.5,94.7L73.8,96.5L70.6,97.3L68.9,97.5L67.3,97.8L63.3,97.9L60.4,97.8L59.8,97.6L59.1,97.6L57.9,97.3L57.4,97.3L55.0,96.7L52.4,95.8L51.5,95.3L48.8,94.4L48.6,94.1L46.6,93.1L42.4,90.1L39.8,87.6L38.2,85.7L36.5,83.5L36.3,83.1L35.5,81.9L34.7,80.4L34.3,79.9L33.4,78.1L33.2,77.8L31.4,72.5L30.8,69.1L30.4,66.1L30.4,62.8L30.6,59.8L31.0,57.2L31.7,54.3L33.1,50.6L34.0,48.9L34.3,48.0L35.3,46.5L35.7,45.6L37.6,43.0L39.3,40.9L42.9,37.6L47.2,34.7L47.9,34.4L50.4,33.1L53.5,32.0L56.9,31.1L59.9,30.6Z M62.5,9.1L58.1,9.4L51.9,10.4L51.3,10.6L50.2,10.8L49.4,11.1L48.1,11.3L47.9,11.5L47.2,11.6L46.6,11.9L43.6,12.9L43.4,13.0L41.3,13.8L35.8,16.7L31.9,19.3L28.8,21.7L27.7,22.8L26.9,23.4L24.8,25.5L24.4,26.0L22.1,28.5L21.7,29.2L20.2,30.9L16.7,36.1L16.1,37.6L14.9,39.6L13.1,43.9L12.0,47.1L11.9,47.7L11.5,48.6L11.5,49.4L11.2,49.8L10.9,52.0L10.6,53.0L10.5,54.0L10.2,54.8L10.0,58.1L9.7,59.6L9.7,64.8L9.8,65.4L9.8,67.8L10.0,68.5L10.1,70.1L10.4,71.3L10.5,72.8L11.1,75.4L11.2,76.3L11.9,78.6L12.2,79.9L12.9,81.8L12.9,82.1L13.8,84.3L14.3,85.2L15.6,88.4L16.3,89.4L17.0,91.0L17.4,91.5L18.5,93.5L22.0,98.4L26.0,102.9L27.0,103.7L28.0,104.7L28.3,104.9L29.0,105.6L30.2,106.5L32.2,108.3L34.4,109.9L37.8,112.0L43.2,114.7L44.7,115.2L45.4,115.6L46.4,115.8L48.2,116.5L51.9,117.6L52.3,117.6L53.1,117.9L55.2,118.1L56.3,118.5L58.4,118.8L60.7,118.9L61.2,119.0L64.5,119.1L71.0,118.7L76.1,117.8L79.3,117.0L81.9,116.1L82.2,116.1L83.0,115.7L84.2,115.4L84.8,115.0L86.5,114.4L88.2,113.5L88.9,113.3L94.9,109.6L97.3,107.7L98.4,107.0L103.6,102.2L106.2,99.3L107.1,97.9L108.2,96.7L109.7,94.5L110.0,93.9L110.5,93.3L110.5,93.0L111.3,92.0L112.8,89.2L113.1,88.3L114.0,86.7L114.4,85.4L115.3,83.5L115.5,82.7L115.8,82.0L115.8,81.6L116.5,79.9L116.6,78.7L117.0,78.1L117.5,75.1L117.8,74.3L117.9,72.7L118.1,72.5L118.1,71.8L118.4,70.1L118.4,68.1L118.6,66.7L118.6,62.3L118.2,57.4L117.8,54.6L117.5,53.7L117.5,53.2L117.1,51.8L117.0,50.8L116.2,48.4L115.8,46.7L115.0,44.7L114.7,43.4L114.3,42.8L113.9,41.7L112.5,38.7L111.1,36.4L111.0,36.1L110.1,34.9L108.8,32.7L106.1,29.1L104.7,27.6L104.5,27.2L100.7,23.4L96.4,19.9L91.5,16.7L86.0,13.8L81.4,12.0L81.0,12.0L80.5,11.7L79.3,11.5L78.6,11.2L77.6,11.0L76.8,10.7L75.9,10.6L72.0,9.8L71.4,9.8L70.3,9.5L69.0,9.5L67.8,9.3L66.7,9.3L66.0,9.1Z M60.4,10.9L67.2,10.9L70.6,11.2L76.3,12.4L77.4,12.8L78.7,13.0L79.1,13.3L80.1,13.4L81.3,13.8L83.1,14.7L83.9,14.8L85.2,15.5L86.4,16.0L89.0,17.2L90.6,18.3L91.2,18.5L94.8,20.9L96.8,22.5L97.6,23.3L98.5,23.9L102.4,27.5L102.5,27.9L104.0,29.3L104.1,29.5L104.7,30.1L105.0,30.6L105.8,31.4L107.2,33.5L108.2,35.1L109.3,36.5L110.4,38.7L111.1,39.8L113.3,44.4L114.0,46.6L114.4,47.4L114.6,48.5L115.4,50.6L116.5,55.8L116.9,58.0L116.9,59.3L117.0,59.7L117.3,64.5L116.9,66.7L116.9,69.1L116.6,70.1L116.5,71.9L116.2,73.2L116.1,75.2L115.7,76.1L115.7,77.1L115.1,78.6L114.7,80.7L114.0,82.5L113.6,83.7L113.4,84.1L111.8,88.0L110.8,89.7L110.5,90.0L109.8,91.5L109.4,91.9L109.1,92.7L108.8,93.0L108.0,94.4L105.3,98.1L103.9,99.7L99.9,103.9L94.9,107.9L90.8,110.6L88.1,111.9L87.3,112.5L86.2,112.9L85.6,113.3L84.8,113.4L82.1,114.6L81.2,114.8L80.2,115.2L79.7,115.3L77.5,116.0L72.9,116.9L67.6,117.6L62.0,117.6L57.4,117.2L53.7,116.5L52.5,116.1L52.0,116.1L47.3,114.7L46.7,114.4L44.7,113.8L38.5,110.8L37.2,109.8L36.0,109.2L32.7,106.9L28.2,103.1L24.7,99.4L21.8,96.0L19.5,92.6L19.0,91.5L17.5,89.2L16.9,87.6L16.3,86.8L15.2,84.3L14.8,83.0L14.4,82.3L14.1,81.2L13.5,79.6L13.3,78.8L12.7,77.3L12.3,74.5L11.8,72.7L11.6,70.8L11.3,69.2L11.3,68.0L11.1,67.4L11.1,65.3L11.0,64.9L11.0,64.2L11.1,63.7L11.1,60.7L11.5,56.1L12.3,52.0L14.0,45.6L14.5,44.8L15.2,42.7L15.5,42.2L15.6,41.8L17.0,38.9L17.2,38.7L17.5,37.9L20.1,33.7L22.4,30.6L22.8,30.3L22.9,30.1L25.2,27.5L28.0,24.6L31.3,21.8L31.8,21.5L34.2,19.7L39.2,16.8L39.8,16.6L41.4,15.7L44.1,14.7L44.8,14.2L49.6,12.6L53.9,11.7L56.7,11.2L58.7,11.2Z" fill="#000" fill-rule="evenodd"/>
</svg>