<svg xmlns="http://www.w3.org/2000/svg" viewBox="0 0 128 128" width="128" height="128">
  <path d="M61.2,48.5L59.1,48.9L57.5,49.5L54.9,50.9L52.6,52.7L50.4,55.3L49.7,56.5L49.3,57.5L49.0,57.7L48.0,60.8L47.7,63.6L47.9,67.2L48.5,69.6L49.9,72.5L51.7,74.9L53.1,76.3L54.6,77.5L56.7,78.7L57.3,78.9L57.9,79.2L58.7,79.4L59.2,79.7L60.3,79.9L60.7,80.1L62.4,80.3L65.5,80.3L67.0,80.0L68.7,79.6L69.1,79.4L70.6,78.9L73.0,77.5L74.2,76.6L75.7,75.2L77.4,73.0L78.4,71.1L78.8,69.9L79.1,69.6L79.4,68.1L79.6,67.5L79.7,66.0L79.9,65.4L79.6,61.6L78.7,58.5L78.3,57.8L78.3,57.4L77.0,55.4L75.4,53.4L73.3,51.4L71.7,50.4L70.5,49.8L67.3,48.6L64.8,48.3L62.8,48.3Z M62.4,9.8L56.6,10.3L55.9,10.6L55.2,10.6L51.8,11.2L48.7,12.0L48.2,12.3L47.6,12.3L41.5,14.6L37.0,16.8L36.7,17.1L34.4,18.4L31.0,20.7L27.7,23.3L22.9,28.1L20.1,31.4L19.9,31.8L18.1,34.2L15.5,38.5L13.5,42.6L11.8,47.1L11.1,49.8L10.7,50.5L10.7,51.4L10.1,53.5L9.4,57.5L9.1,61.1L9.2,68.2L9.4,69.3L9.5,70.9L9.7,71.3L10.6,76.6L10.8,77.1L11.0,78.1L11.8,80.5L11.9,81.1L12.2,81.7L12.3,82.3L13.5,85.0L13.9,86.4L16.6,91.5L17.7,93.2L18.0,93.7L19.2,95.4L22.7,99.8L24.6,101.9L26.9,104.1L31.6,108.0L36.3,110.9L36.7,111.1L37.0,111.3L40.5,113.2L41.5,113.5L42.0,113.8L42.6,114.0L42.8,114.2L45.5,115.1L46.3,115.5L51.3,116.9L54.3,117.6L58.2,118.2L62.5,118.5L67.6,118.4L68.5,118.2L70.6,118.2L72.9,117.8L73.6,117.8L78.2,116.8L81.5,115.7L81.8,115.7L84.7,114.6L85.3,114.5L86.3,114.0L89.2,112.8L89.6,112.5L90.5,112.1L91.0,111.6L92.8,110.8L96.6,108.4L98.6,106.8L101.8,104.2L106.4,99.4L109.9,94.8L111.6,92.1L112.5,90.3L113.0,89.7L115.3,84.5L115.7,83.4L116.0,82.8L116.1,82.1L116.7,80.7L118.1,75.3L118.8,70.6L119.1,65.3L119.0,60.4L118.4,55.9L118.2,55.6L118.2,54.6L117.3,51.0L115.9,46.3L115.7,46.0L115.1,44.2L114.8,43.7L114.7,43.2L113.3,40.3L110.4,35.1L108.0,31.7L103.8,26.7L100.2,23.3L99.3,22.6L97.9,21.3L91.5,17.1L90.7,16.8L89.9,16.2L88.4,15.5L88.0,15.4L85.8,14.3L82.3,12.9L80.2,12.3L78.4,11.7L73.8,10.7L73.1,10.7L71.1,10.2L67.7,9.9Z M60.4,19.2L65.9,19.2L68.8,19.4L70.0,19.6L70.7,19.6L71.3,19.9L74.2,20.4L77.8,21.4L79.9,22.2L80.3,22.3L84.8,24.4L86.2,25.3L87.2,25.7L87.9,26.3L88.4,26.5L88.9,26.9L90.8,28.1L92.1,29.4L91.9,29.5L91.6,29.4L89.5,28.2L88.7,28.0L88.0,27.6L84.0,26.4L80.4,25.9L76.4,26.0L74.5,26.4L73.2,26.9L72.1,27.7L71.0,28.7L70.5,29.6L69.8,31.4L69.6,34.3L69.3,35.8L69.3,38.8L69.0,41.5L69.0,44.0L69.3,44.9L70.0,45.6L70.6,45.9L71.1,46.0L71.4,46.2L72.1,46.4L72.6,46.7L73.0,46.8L74.1,47.3L74.3,47.6L74.8,47.7L77.4,49.6L79.4,51.6L80.7,53.2L81.6,54.7L82.0,55.6L82.3,55.9L83.1,57.6L83.5,58.8L84.3,59.8L85.7,60.0L88.9,59.9L90.2,59.8L91.6,59.8L92.8,59.5L93.8,59.5L96.4,59.1L97.3,58.8L98.3,58.7L98.7,58.4L99.4,58.3L100.8,57.5L102.0,56.3L102.7,55.0L103.2,53.2L103.4,51.6L103.4,49.3L103.1,46.8L102.7,44.7L101.7,41.2L100.5,38.7L100.7,38.3L101.5,39.2L102.0,40.3L102.6,40.9L104.7,44.8L104.9,45.3L105.7,46.9L106.7,49.6L106.9,49.9L107.1,50.7L107.6,52.2L108.3,54.8L108.4,55.6L108.5,55.9L109.0,58.8L109.1,61.1L109.2,61.8L109.3,67.0L109.0,70.5L108.3,74.5L107.3,78.1L106.9,79.0L106.7,80.0L106.4,80.5L106.0,81.6L103.9,86.0L101.2,90.4L99.7,92.2L99.4,92.1L99.5,91.7L100.4,90.4L101.2,88.4L101.5,88.0L102.7,84.2L102.7,83.1L103.0,82.0L103.0,81.2L103.1,80.7L103.1,78.2L102.7,75.5L101.9,73.6L101.1,72.7L100.2,71.8L99.2,71.3L98.6,71.1L98.2,70.9L96.8,70.5L93.7,70.2L92.1,69.9L89.1,69.7L86.8,69.4L84.4,69.5L83.8,69.9L83.4,70.4L82.7,72.1L81.7,74.1L81.0,75.0L80.9,75.4L79.4,77.3L77.4,79.2L75.4,80.7L73.4,81.9L70.7,82.9L70.1,83.0L69.1,83.6L68.7,84.5L68.6,87.6L68.8,91.3L69.3,96.2L69.9,98.5L70.5,99.7L71.3,100.8L72.2,101.6L73.8,102.4L75.7,102.8L78.1,103.1L80.8,103.0L83.7,102.6L85.8,102.1L87.3,101.5L88.1,101.4L91.9,99.4L92.1,99.6L90.5,101.1L87.3,103.1L86.7,103.3L85.8,103.9L84.3,104.6L84.0,104.8L83.2,105.1L82.9,105.3L80.5,106.4L79.7,106.5L77.6,107.3L76.4,107.6L75.3,108.0L74.5,108.0L73.4,108.4L67.6,109.2L62.4,109.2L59.6,109.1L55.3,108.4L50.6,107.2L50.3,107.1L49.3,106.8L48.5,106.4L47.7,106.3L46.3,105.5L44.6,104.9L43.1,104.0L42.7,103.9L40.6,102.7L38.9,101.5L38.3,101.3L36.9,100.2L37.0,99.9L37.3,99.9L38.6,100.7L39.4,101.0L40.8,101.7L41.8,101.9L42.2,102.2L45.5,103.0L48.7,103.3L52.0,103.2L54.6,102.8L56.5,102.0L57.3,101.5L58.7,99.9L59.1,99.0L59.5,97.8L59.7,94.5L59.8,86.4L59.7,85.1L59.3,84.0L58.2,83.3L56.3,82.7L54.1,81.8L51.3,80.0L50.0,79.0L48.5,77.4L46.3,74.7L45.3,73.0L44.7,71.4L43.8,70.2L43.3,70.1L40.7,70.1L38.8,70.2L37.9,70.5L35.7,70.6L34.6,70.9L33.7,70.9L32.4,71.3L31.5,71.4L31.1,71.7L30.2,71.8L29.2,72.2L28.2,72.8L26.6,74.2L26.0,75.0L25.6,76.2L25.3,77.6L25.3,81.4L25.7,84.0L26.0,84.6L26.2,86.0L26.9,87.6L26.9,87.9L28.2,90.6L28.4,90.9L29.3,92.5L29.3,92.8L29.0,92.7L28.9,92.4L28.1,91.7L26.3,89.2L24.9,87.0L24.3,85.8L23.9,85.3L23.8,84.9L23.4,84.4L22.9,83.0L22.5,82.3L21.3,79.6L20.0,75.7L19.2,71.7L18.7,67.5L18.7,60.4L18.8,59.9L18.8,58.9L19.0,58.3L19.2,56.6L20.4,51.4L21.6,47.8L23.3,44.0L23.7,43.6L24.7,41.5L25.7,40.1L25.7,39.8L27.3,37.6L27.8,37.4L27.8,37.8L27.1,39.0L26.0,41.5L25.1,44.5L24.5,48.1L24.6,52.3L25.0,54.4L25.3,54.7L25.4,55.4L26.1,56.4L27.6,57.9L28.4,58.3L28.9,58.4L29.7,58.8L32.0,59.1L33.1,59.1L36.0,59.5L39.2,59.5L40.6,59.8L41.8,59.8L43.5,59.5L44.0,59.1L44.8,57.5L45.4,55.8L46.3,54.1L47.5,52.3L49.2,50.4L51.1,48.6L52.5,47.7L55.0,46.3L57.5,45.3L58.3,44.6L58.5,44.0L58.5,40.9L58.3,40.1L58.3,38.7L58.1,36.2L57.4,31.8L56.9,30.2L56.5,29.4L55.4,27.9L54.3,26.9L52.8,26.3L51.0,26.0L47.3,25.9L45.4,26.1L44.4,26.4L42.4,26.7L39.3,27.8L37.4,28.6L36.2,29.4L35.3,29.8L34.8,30.2L34.6,30.2L34.6,30.0L35.9,28.8L38.7,26.8L40.6,25.6L42.3,24.7L42.8,24.3L43.6,23.9L43.9,23.9L44.5,23.5L46.3,22.8L46.6,22.5L47.1,22.5L47.8,22.1L48.1,22.1L50.2,21.2L50.8,21.2L51.8,20.8L53.8,20.4L54.3,20.1L55.9,20.0L56.9,19.6L58.3,19.6Z" fill="#000" fill-rule="evenodd"/>
</svg>