<svg xmlns="http://www.w3.org/2000/svg" viewBox="0 0 128 128" width="128" height="128">
  <path d="M12.4,46.7L12.1,47.8L11.1,51.1L10.6,53.5L10.3,54.3L10.0,58.1L9.8,58.8L9.5,64.0L9.8,69.5L9.9,70.1L9.9,70.9L10.6,75.6L11.0,76.4L11.0,77.2L11.3,77.8L11.9,80.6L12.6,82.3L12.8,83.1L13.0,83.5L13.1,83.9L14.1,86.0L14.2,86.7L16.2,90.7L16.6,91.2L17.2,92.4L18.3,94.0L18.4,94.4L19.9,96.3L20.8,97.8L24.4,102.0L27.0,104.5L29.5,106.8L33.8,109.9L33.9,109.9L37.8,112.4L40.2,113.7L41.3,114.1L41.7,114.4L42.4,114.6L42.8,114.9L43.3,115.0L46.2,116.2L48.9,117.0L49.2,117.0L49.7,117.3L54.6,118.3L59.5,119.0L62.4,119.2L67.2,119.1L68.6,118.9L70.7,118.8L71.7,118.6L72.3,118.6L72.7,118.4L74.7,118.2L75.2,117.9L76.7,117.7L77.4,117.4L79.7,116.9L80.9,116.4L82.2,116.1L83.9,115.3L85.0,115.0L85.6,114.6L86.3,114.4L87.9,113.5L90.4,112.4L94.1,110.0L94.6,109.8L98.2,107.2L100.7,104.8L100.7,104.7L100.4,104.5L97.8,104.4L79.3,104.5L63.0,104.4L61.3,104.2L58.8,103.6L58.3,103.2L57.4,103.1L54.5,101.7L51.9,99.7L49.6,97.4L49.6,97.2L48.3,95.7L47.5,94.1L47.0,93.4L46.8,92.7L46.1,91.4L45.8,90.6L45.1,89.2L45.0,88.7L44.2,87.1L44.1,86.7L43.8,86.3L43.7,85.7L43.4,85.4L43.3,84.7L42.5,83.1L41.8,81.2L41.6,80.9L41.0,79.5L40.8,79.2L40.7,78.7L40.3,78.0L40.2,77.5L38.2,72.9L38.0,72.2L35.8,67.4L35.8,67.1L35.0,65.5L34.5,63.9L33.7,62.3L32.6,59.4L32.1,58.4L32.1,58.2L31.0,55.9L30.8,55.2L29.5,52.4L29.5,52.2L28.4,50.4L26.8,48.7L25.6,47.8L24.7,47.2L23.2,46.8L21.6,46.4L16.2,46.4L14.8,46.2L13.4,46.2L12.9,46.4Z M18.1,34.5L18.0,35.0L17.5,35.6L17.5,36.2L17.8,36.4L20.2,36.4L21.2,36.6L22.5,36.6L23.5,36.8L24.4,36.8L25.9,37.3L26.3,37.3L27.7,37.8L28.2,38.1L28.7,38.2L28.9,38.4L29.5,38.6L29.9,38.9L30.9,39.4L32.3,40.3L32.7,40.8L33.2,41.0L35.0,42.7L36.2,44.1L36.3,44.5L37.0,45.2L37.8,46.5L38.8,48.5L38.9,49.1L39.3,49.7L39.4,50.1L39.7,50.5L39.7,51.0L40.5,52.4L40.6,53.0L40.9,53.5L41.1,54.1L41.4,54.6L41.6,55.2L42.3,56.7L42.4,57.1L42.7,57.6L42.9,58.3L43.6,59.7L43.9,60.7L45.3,63.8L45.7,64.9L46.7,67.0L48.3,70.9L49.0,72.4L50.5,76.0L50.8,76.4L51.4,78.1L52.1,79.5L53.6,83.2L53.9,83.5L53.9,83.8L54.3,84.5L54.5,85.3L54.8,85.8L54.8,86.0L55.2,86.7L55.4,87.3L57.1,90.3L58.7,92.0L59.9,92.9L61.9,93.8L63.4,94.2L65.4,94.2L65.8,94.4L106.3,94.6L109.4,94.5L109.6,94.4L110.2,93.7L110.6,92.8L110.6,92.6L110.3,92.3L106.6,92.3L103.9,91.9L101.3,91.1L99.7,90.3L99.3,90.2L96.7,88.6L95.4,87.6L93.2,85.4L92.2,84.0L90.4,81.2L89.8,79.5L89.0,78.2L89.0,77.7L88.6,77.2L88.6,76.8L87.3,74.0L87.2,73.5L85.9,70.9L85.9,70.6L84.5,67.5L79.6,55.6L79.2,55.1L79.1,54.5L78.8,54.1L77.3,50.4L76.7,49.2L76.5,48.4L76.1,47.8L76.0,47.3L75.8,47.0L75.6,46.2L75.2,45.5L75.2,45.3L74.8,44.5L74.7,44.1L74.4,43.6L74.3,43.1L73.1,40.7L73.0,40.2L72.7,39.8L72.2,38.7L71.3,37.5L70.1,36.4L68.5,35.4L67.7,35.0L67.3,34.6L66.5,34.4L65.0,34.2L62.4,34.0L48.3,33.8L45.0,33.9L36.2,33.7L21.9,33.6L19.3,33.7L18.6,33.9Z M27.5,23.4L27.4,23.7L27.8,24.0L46.4,24.2L53.5,24.1L65.7,24.4L67.9,24.7L68.9,25.1L71.3,25.7L72.0,26.1L72.4,26.2L73.7,27.0L74.0,27.1L74.5,27.5L74.8,27.5L76.8,29.1L78.9,31.2L80.4,33.0L82.2,36.2L82.4,37.0L82.7,37.4L83.6,39.8L84.0,40.5L84.2,41.1L85.0,42.9L85.3,43.3L85.9,45.1L86.3,45.7L86.4,46.4L87.1,47.6L87.2,48.3L87.5,48.8L89.0,52.7L89.3,52.9L89.4,53.3L90.2,54.7L90.6,56.2L91.0,56.8L91.5,58.3L92.8,61.0L94.0,64.2L94.8,65.8L94.8,66.1L96.0,68.5L96.1,69.0L96.9,70.8L97.1,71.4L97.3,71.7L97.6,72.6L97.9,73.1L99.3,76.4L100.4,78.3L102.2,80.1L103.3,80.9L104.4,81.5L105.0,81.6L106.0,81.9L107.5,82.2L114.6,82.3L115.5,82.2L115.9,81.9L116.2,80.8L116.4,80.4L116.6,79.4L116.8,78.9L117.0,77.6L117.4,76.7L118.2,71.9L118.7,66.0L118.7,62.2L118.6,61.0L118.5,58.6L118.3,58.1L118.2,56.7L117.6,52.8L116.7,49.3L116.6,49.1L116.5,48.4L115.5,45.6L115.2,44.9L115.1,44.1L114.7,43.6L114.7,43.1L114.3,42.6L114.2,42.0L113.0,39.7L112.9,39.3L111.9,37.4L111.6,37.1L111.5,36.6L109.5,33.4L107.1,30.0L103.1,25.5L99.4,22.1L96.8,20.0L96.2,19.7L95.6,19.2L90.3,15.7L88.1,14.8L86.3,13.8L84.9,13.3L84.6,13.1L83.2,12.7L82.3,12.2L81.2,12.0L79.6,11.3L78.7,11.2L77.6,10.7L76.2,10.6L73.4,9.8L71.3,9.7L70.9,9.5L70.1,9.5L69.0,9.3L67.5,9.3L66.5,9.1L61.4,9.1L58.9,9.3L58.4,9.4L55.0,9.8L51.8,10.5L50.6,10.9L49.9,11.0L49.1,11.3L48.4,11.3L46.4,12.1L45.3,12.3L44.1,12.9L43.1,13.2L37.4,16.1L34.6,17.7L31.9,19.6L29.9,21.2L29.7,21.3Z" fill="#000" fill-rule="evenodd"/>
</svg>