<svg xmlns="http://www.w3.org/2000/svg" viewBox="0 0 128 128" width="128" height="128">
  <path d="M59.2,9.2L57.1,9.5L56.4,9.5L54.7,9.9L54.1,9.9L49.2,11.1L44.1,12.9L41.9,14.0L41.5,14.1L39.9,14.9L39.3,15.1L39.1,15.3L34.8,17.8L30.6,20.8L29.8,21.6L27.3,23.6L23.3,27.6L21.6,29.7L18.0,34.6L17.0,36.3L16.5,37.4L16.2,37.6L14.4,41.3L12.0,47.5L11.3,50.2L11.1,50.8L11.1,51.2L10.7,52.1L9.8,57.9L9.4,62.9L9.5,68.6L9.7,69.7L9.9,72.1L10.3,74.6L11.6,80.5L12.0,81.2L12.7,83.7L13.3,85.0L13.8,86.5L15.5,90.1L17.7,93.9L19.9,97.2L22.5,100.5L24.8,103.0L27.5,105.6L27.9,105.8L30.8,108.4L32.6,109.7L34.6,110.9L35.0,111.2L39.1,113.5L44.1,115.7L49.2,117.4L53.2,118.4L54.8,118.5L55.6,118.8L56.5,118.8L57.5,119.0L59.3,119.1L59.6,118.9L59.4,118.7L58.2,118.2L57.7,117.8L56.7,117.3L56.0,116.8L54.2,114.9L53.0,113.1L52.1,110.6L51.8,108.3L51.8,106.8L52.1,105.6L52.1,105.0L52.3,104.6L52.5,103.5L53.6,101.4L54.8,99.8L56.0,98.6L57.2,97.7L59.0,96.8L61.7,96.0L64.7,95.9L67.2,96.4L69.8,97.6L71.3,98.8L72.2,99.7L73.1,100.9L74.3,103.2L74.8,104.8L75.1,107.2L74.8,110.3L74.6,110.7L74.5,111.3L74.0,112.5L73.2,113.9L72.4,115.1L71.1,116.4L69.6,117.5L67.6,118.6L66.8,118.9L66.9,119.1L68.9,119.0L73.2,118.5L78.0,117.4L78.7,117.1L80.1,116.8L83.8,115.5L89.1,113.1L89.3,112.8L89.8,112.7L90.2,112.3L92.8,111.0L96.5,108.4L98.7,106.7L102.3,103.4L106.0,99.4L107.7,97.0L108.3,96.4L109.8,94.0L110.2,93.7L112.8,89.1L113.4,87.6L114.2,86.2L114.3,85.5L114.8,84.8L114.8,84.3L115.6,82.9L116.2,80.9L116.2,80.6L116.7,79.3L117.6,76.0L117.6,75.6L118.3,72.5L118.5,70.1L118.6,69.7L118.9,65.8L118.9,61.7L118.6,57.9L118.3,57.1L118.4,56.0L118.1,54.7L117.8,52.8L116.9,48.6L116.1,46.6L116.1,46.2L115.7,45.4L115.6,44.6L115.0,43.4L114.7,42.4L114.3,41.7L113.9,40.5L111.0,35.2L110.3,34.3L110.1,33.7L108.4,31.2L106.0,28.3L102.1,24.0L98.1,20.5L93.1,17.0L89.3,14.9L84.8,12.8L79.1,10.9L76.8,10.3L76.4,10.3L75.1,9.9L71.1,9.3L69.9,9.3L68.8,9.1L68.0,9.2L68.0,9.4L68.8,9.8L69.3,9.9L71.0,10.7L72.4,11.8L74.1,13.6L75.5,15.8L75.9,16.9L76.3,18.8L76.4,21.4L76.1,22.9L76.3,27.5L75.9,29.7L74.8,32.0L74.8,32.6L75.2,33.2L75.6,34.2L75.9,35.8L76.0,36.1L76.1,39.4L75.9,39.7L75.6,41.4L74.7,43.4L73.8,44.9L72.5,46.6L72.6,47.0L73.5,48.1L74.3,49.4L75.3,51.5L75.9,54.2L75.9,56.2L75.6,57.9L74.8,60.1L74.1,61.4L72.9,63.1L71.7,64.2L70.2,65.3L68.7,66.1L67.1,66.7L66.6,66.7L66.3,67.0L67.1,67.5L68.1,67.7L70.6,69.1L72.7,71.0L73.8,72.6L74.7,74.3L75.3,76.3L75.5,77.5L75.4,80.6L75.1,81.7L74.5,83.2L74.5,83.4L73.8,84.7L73.5,85.0L73.0,85.9L71.6,87.4L70.4,88.4L68.0,89.6L66.6,90.1L65.0,90.3L62.5,90.3L59.6,89.7L57.5,88.5L56.8,88.0L55.1,86.4L55.0,86.2L54.3,85.4L53.5,84.0L53.2,83.0L53.0,82.9L52.4,80.2L52.4,77.6L52.6,76.1L52.9,74.9L53.8,73.0L54.6,71.7L56.3,69.9L57.5,69.0L58.9,68.1L59.4,68.0L59.9,67.7L61.6,67.1L61.6,66.8L60.9,66.7L60.4,66.3L59.7,66.2L58.0,65.3L56.8,64.4L55.3,62.9L54.0,60.9L53.9,60.5L53.3,59.5L52.8,57.5L52.6,55.5L52.8,53.3L53.3,51.6L54.6,49.0L55.4,47.9L56.4,46.7L56.3,46.2L55.4,45.2L54.2,43.4L53.4,41.4L53.1,39.8L53.0,37.1L53.2,36.0L53.7,34.0L54.5,32.2L54.1,30.8L53.5,29.5L53.2,27.0L53.3,24.8L53.5,24.0L53.3,19.5L53.8,17.3L54.2,16.5L54.3,16.0L55.1,14.5L56.0,13.3L57.1,12.1L58.4,11.1L60.4,9.9L61.2,9.8L62.1,9.4L62.1,9.1Z" fill="#000" fill-rule="evenodd"/>
</svg>