<svg xmlns="http://www.w3.org/2000/svg" viewBox="0 0 128 128" width="128" height="128">
  <path d="M61.9,46.3L57.8,47.3L54.3,49.1L52.0,50.8L50.6,52.2L49.1,54.0L47.4,57.1L46.4,60.2L46.4,60.7L46.1,62.0L46.0,65.1L46.3,67.4L46.8,69.3L47.5,71.3L48.8,73.5L50.6,75.9L52.4,77.6L53.5,78.5L55.8,79.8L56.2,79.9L57.6,80.7L59.2,81.1L60.5,81.6L62.7,81.8L65.8,81.8L67.9,81.6L68.6,81.3L69.5,81.2L70.8,80.7L71.1,80.4L72.6,79.8L74.6,78.5L74.8,78.5L76.5,77.2L78.0,75.6L79.2,74.0L80.7,71.4L80.7,71.1L81.3,70.0L81.9,67.7L82.2,64.9L82.2,62.6L81.9,60.3L80.8,56.6L79.0,53.7L78.0,52.5L76.1,50.6L74.4,49.2L74.1,49.1L73.6,48.7L70.8,47.3L67.7,46.4L66.0,46.2Z M61.5,9.1L59.0,9.3L55.0,9.8L49.7,10.9L43.4,13.0L42.2,13.6L41.5,13.8L40.5,14.4L40.2,14.4L35.8,16.6L32.5,18.8L29.8,20.7L25.8,24.1L22.8,27.1L22.2,28.0L21.2,29.0L18.7,32.0L18.3,32.8L17.2,34.1L16.1,35.9L15.2,37.7L14.5,39.9L14.2,40.4L13.3,43.4L13.1,45.5L13.1,47.3L13.5,50.4L13.8,51.2L13.9,51.7L14.7,53.8L15.6,55.6L16.7,57.1L18.3,59.0L18.6,59.1L19.9,60.4L21.9,61.8L24.6,63.1L25.8,63.5L26.1,63.5L26.4,63.6L26.5,64.0L26.0,64.4L25.0,64.5L24.5,64.9L23.0,65.4L20.5,66.8L18.9,68.0L17.7,69.1L15.8,71.5L14.2,74.1L13.7,75.5L13.6,76.1L13.3,76.7L12.7,80.0L12.7,83.4L13.3,86.7L14.3,89.2L15.1,90.8L16.7,93.4L19.8,97.8L22.8,101.3L26.2,104.6L29.0,107.0L30.7,108.3L31.3,108.6L32.6,109.7L37.9,112.7L38.4,112.9L40.5,114.0L41.2,114.2L44.3,115.6L45.3,115.8L46.2,116.2L47.1,116.4L47.5,116.7L52.4,117.9L54.0,118.2L55.7,118.4L56.3,118.6L62.0,119.1L65.8,119.1L70.1,118.8L72.5,118.4L73.1,118.4L73.9,118.1L74.4,118.1L74.7,118.0L76.8,117.6L80.6,116.5L81.3,116.4L87.0,114.2L92.3,111.5L92.6,111.2L94.7,110.1L98.5,107.5L102.7,103.9L106.4,100.1L109.2,96.7L109.9,95.6L111.6,93.3L111.9,92.5L113.4,90.0L114.4,88.0L114.7,86.4L114.9,86.2L115.1,84.3L115.4,83.6L115.5,80.6L115.1,78.2L114.7,76.7L114.6,76.0L114.2,75.3L113.7,73.9L112.3,71.5L111.6,70.6L109.3,68.2L106.5,66.2L103.7,64.9L102.4,64.5L102.1,64.2L102.1,64.0L102.4,63.7L103.6,63.5L104.1,63.1L104.6,63.1L105.2,62.7L105.6,62.6L105.9,62.3L106.5,62.1L107.0,61.7L108.0,61.2L109.9,59.6L112.4,56.9L113.4,55.3L113.9,54.2L114.0,53.8L114.3,53.3L115.3,50.0L115.6,48.3L115.6,44.7L115.1,42.1L113.8,38.9L112.6,36.8L111.6,35.5L111.4,35.0L107.8,29.9L105.5,27.1L102.3,24.0L98.5,20.7L94.8,18.2L90.7,15.7L85.8,13.4L82.2,12.1L81.4,11.9L81.0,11.7L80.0,11.5L77.8,10.8L76.3,10.5L74.9,10.1L73.4,10.0L72.6,9.7L70.5,9.6L70.0,9.4L66.3,9.1Z M60.9,44.7L62.4,44.6L67.1,44.7L70.1,45.4L73.8,46.9L74.1,47.3L75.2,47.8L77.1,49.2L79.4,51.6L83.2,57.3L85.7,59.9L87.6,61.4L88.1,61.6L88.6,62.0L90.4,62.9L90.6,62.9L91.1,63.2L92.8,63.8L92.9,64.2L92.5,64.5L90.3,65.3L87.8,66.6L86.6,67.4L85.0,68.8L83.0,71.0L82.7,71.5L82.1,72.2L81.9,72.7L81.0,74.1L80.8,74.3L79.4,76.3L77.9,77.9L76.2,79.4L74.3,80.7L73.9,80.8L72.6,81.6L72.4,81.6L71.1,82.2L70.1,82.5L69.5,82.6L69.0,82.9L67.9,83.1L65.3,83.4L62.5,83.4L61.0,83.3L57.6,82.4L57.2,82.2L56.4,82.0L54.1,80.9L51.5,79.0L49.1,76.8L47.3,74.4L46.7,73.2L45.3,71.1L43.6,69.1L41.6,67.4L40.5,66.6L38.5,65.4L37.6,65.0L37.1,64.9L36.6,64.6L35.9,64.4L35.5,64.1L35.5,63.9L35.7,63.6L37.3,63.2L40.3,61.8L42.5,60.2L44.7,58.2L46.1,56.5L47.5,53.9L49.3,51.2L50.5,50.0L52.5,48.2L53.9,47.3L54.6,47.1L55.0,46.8L56.4,46.0L58.2,45.4L58.6,45.4L59.3,45.1L60.2,45.0Z" fill="#000" fill-rule="evenodd"/>
</svg>