<svg xmlns="http://www.w3.org/2000/svg" viewBox="0 0 128 128" width="128" height="128">
  <path d="M99.2,104.6L99.0,104.3L98.2,103.9L95.8,101.8L92.2,99.1L90.0,97.2L89.4,96.9L85.6,93.8L85.2,93.6L83.5,92.1L81.9,90.9L81.1,90.9L79.6,91.7L78.5,92.5L77.3,92.9L76.0,93.7L75.4,93.8L74.1,94.5L69.3,96.1L67.9,96.3L65.8,97.0L61.0,97.8L58.0,98.1L56.7,98.3L54.2,98.3L51.9,98.5L51.7,98.6L51.4,99.1L51.4,104.3L51.6,108.0L51.6,118.4L51.8,118.8L52.2,119.1L57.5,119.0L58.3,118.9L63.4,118.6L70.5,117.5L71.6,117.2L74.3,116.7L77.5,115.7L78.2,115.7L79.1,115.3L80.4,114.9L81.9,114.3L82.6,114.1L83.5,113.7L83.8,113.7L86.6,112.4L87.0,112.3L90.7,110.5L91.8,109.8L93.0,109.2L93.3,108.9L94.5,108.4L95.6,107.6L95.9,107.5L97.3,106.6L99.0,105.1Z M51.2,67.6L51.1,69.8L51.2,82.2L51.4,84.8L51.4,94.9L51.8,95.8L56.5,95.8L57.2,95.6L60.3,95.4L61.5,95.1L62.2,95.1L65.6,94.5L67.6,94.0L67.8,93.8L69.4,93.5L71.1,92.9L72.1,92.6L72.5,92.4L73.0,92.3L73.4,92.0L74.8,91.5L78.1,89.8L78.7,89.3L78.9,89.1L78.9,88.8L78.2,88.0L73.8,84.6L72.0,83.1L71.5,82.8L70.9,82.2L70.6,82.1L68.7,80.5L68.1,80.2L67.0,79.1L62.8,75.9L57.6,71.7L56.4,70.9L55.5,70.1L55.0,69.9L52.6,67.9L51.7,67.3L51.5,67.3Z M93.3,65.3L92.9,65.0L92.1,64.9L74.1,65.2L72.5,65.1L70.9,65.2L65.9,65.2L62.5,65.3L54.4,65.3L54.1,65.6L54.1,66.0L56.3,67.8L56.7,68.0L57.3,68.6L58.3,69.3L59.5,70.3L60.1,70.6L60.7,71.3L65.2,74.6L67.9,76.8L69.3,77.8L71.1,79.3L73.8,81.3L75.7,82.9L76.6,83.5L78.7,85.2L81.5,87.2L82.0,87.2L82.3,87.1L84.8,84.8L86.7,82.8L89.5,79.0L89.7,78.3L90.5,77.1L91.3,75.3L91.5,74.3L91.7,74.2L92.6,70.9L92.8,69.3L93.2,67.3Z M118.8,64.8L118.2,64.7L109.0,64.7L104.9,64.8L97.0,64.8L96.6,65.0L96.3,65.5L96.2,68.6L96.0,68.9L95.8,70.9L95.4,71.7L95.3,72.8L94.3,75.6L94.0,76.2L94.0,76.4L92.5,79.5L91.7,80.7L89.2,84.1L86.9,86.4L86.5,86.7L84.3,88.8L84.3,89.4L85.9,90.9L86.4,91.2L87.6,92.2L88.4,92.6L90.1,94.1L90.9,94.6L92.0,95.6L93.3,96.5L94.9,97.8L96.3,98.7L97.4,99.7L98.0,100.0L101.0,102.3L101.6,102.7L102.1,102.7L102.4,102.6L105.2,100.0L108.4,96.5L109.6,94.9L112.4,90.5L114.0,87.4L114.5,86.1L114.8,85.7L114.9,85.0L115.2,84.7L116.1,81.9L116.5,81.1L118.0,75.6L118.3,73.0L118.6,72.2L119.0,68.6L119.0,65.2Z M17.2,44.5L16.7,44.8L15.9,45.5L13.6,48.5L12.8,50.0L12.6,50.2L12.3,50.9L12.1,51.1L11.1,53.7L10.8,54.0L10.6,55.0L10.2,55.6L10.1,56.6L9.9,56.8L9.6,58.9L9.4,59.3L9.4,60.7L9.2,61.3L9.2,64.4L9.4,67.4L9.7,68.9L9.8,70.3L10.1,71.1L10.2,72.3L11.4,75.7L12.8,78.6L14.4,81.1L16.7,83.8L17.4,84.4L18.0,84.4L20.4,82.8L21.3,82.1L26.1,79.1L27.9,77.8L30.3,76.3L31.4,75.5L38.8,70.9L39.4,70.3L41.8,68.9L43.4,67.7L45.0,66.8L46.1,66.0L47.8,64.9L48.5,64.4L48.5,64.0L46.2,62.4L43.1,60.5L42.5,60.0L41.2,59.4L38.6,57.6L37.6,57.1L37.3,56.8L35.4,55.8L33.1,54.2L32.3,53.8L29.1,51.8L28.8,51.7L28.1,51.1L27.3,50.8L26.5,50.1L23.0,48.1L22.2,47.4L22.1,47.4L20.5,46.4L20.2,46.3L17.7,44.6Z M93.2,59.3L92.2,54.9L90.9,51.5L89.6,48.9L88.6,47.4L86.7,44.9L84.4,42.5L82.6,41.0L81.6,40.4L81.0,40.4L76.0,44.3L68.9,50.2L68.3,50.6L64.0,54.2L62.4,55.6L60.1,57.3L59.2,58.2L57.1,59.7L56.3,60.6L54.7,61.7L54.2,62.2L54.2,62.4L54.2,62.8L54.4,62.8L55.6,62.9L60.3,62.8L81.4,62.6L84.8,62.4L92.9,62.4L93.2,62.2L93.3,61.9Z M78.5,38.4L77.5,37.7L76.6,37.4L75.8,36.8L73.9,36.1L73.0,35.6L72.8,35.6L70.9,34.8L70.2,34.7L68.7,34.2L67.7,34.0L66.4,33.6L63.7,33.1L63.0,33.1L62.1,32.9L58.4,32.6L51.5,32.5L51.1,32.6L50.9,32.9L50.8,33.2L50.8,40.1L51.0,42.0L51.0,54.7L51.1,60.8L51.4,61.1L51.8,61.1L55.9,57.6L57.3,56.7L58.0,55.9L59.8,54.6L61.8,52.8L64.7,50.6L66.3,49.1L70.1,46.1L77.4,40.0L78.5,38.8Z M83.9,37.9L84.0,38.7L87.5,41.6L90.1,44.5L91.1,45.8L93.4,49.8L93.7,50.7L94.1,51.2L94.2,51.8L94.5,52.2L95.4,54.8L95.4,55.8L95.8,56.7L96.0,58.4L96.2,58.7L96.4,61.6L96.8,62.3L102.4,62.4L103.7,62.2L109.0,62.1L115.1,62.2L118.3,62.1L118.9,61.8L119.0,59.5L118.7,57.7L118.7,56.4L118.1,52.1L116.5,46.1L116.2,45.6L115.2,42.6L114.8,41.9L114.7,41.4L114.4,41.0L114.2,40.4L112.8,37.6L112.1,36.6L111.0,34.6L109.7,33.0L108.8,31.5L105.7,28.0L101.7,24.2L101.3,24.1L100.7,24.2Z M50.5,9.8L50.7,29.2L50.9,29.7L51.3,29.9L53.8,29.8L60.1,30.1L63.2,30.5L63.6,30.6L64.1,30.6L68.0,31.4L69.9,31.8L71.7,32.5L72.0,32.5L73.9,33.3L74.9,33.5L79.8,35.9L80.8,36.6L81.2,36.6L81.7,36.4L83.1,35.3L88.8,30.4L90.4,29.3L91.2,28.5L91.9,28.0L92.1,27.8L97.1,23.7L98.5,22.4L98.6,22.1L98.4,21.6L97.5,20.8L96.9,20.5L94.9,19.2L92.1,17.6L90.7,16.8L90.3,16.8L88.1,15.5L87.5,15.4L87.0,15.1L83.6,13.7L83.3,13.7L81.9,13.1L78.0,12.0L77.5,11.8L76.8,11.7L76.2,11.5L75.2,11.3L73.6,10.8L72.3,10.7L70.6,10.2L69.3,10.2L67.6,9.8L66.7,9.8L64.4,9.4L58.5,9.1L51.0,9.1L50.6,9.4Z" fill="#000" fill-rule="evenodd"/>
</svg>