<svg xmlns="http://www.w3.org/2000/svg" viewBox="0 0 128 128" width="128" height="128">
  <path d="M52.5,10.0L49.6,10.5L49.1,10.8L47.7,10.9L45.2,11.7L44.5,12.1L42.9,12.6L42.0,13.0L41.8,13.2L40.1,14.0L33.9,17.6L32.6,18.7L31.7,19.2L30.6,20.3L28.7,21.6L27.4,23.0L26.7,23.5L25.2,24.9L25.0,25.4L24.2,26.1L20.7,30.5L18.9,33.6L17.9,34.7L17.5,35.8L16.9,36.6L16.6,37.2L15.4,39.3L14.7,41.2L14.4,42.1L13.1,44.9L12.9,46.2L12.2,47.8L10.7,54.3L10.5,57.3L10.3,58.1L10.3,59.8L10.1,60.8L10.2,66.6L10.4,67.9L10.7,71.6L10.9,73.0L11.2,73.9L11.4,75.3L11.6,76.0L11.8,77.7L13.0,82.2L13.3,82.5L13.8,82.6L16.1,80.6L16.7,80.3L18.3,78.7L19.1,78.3L19.9,77.4L22.0,75.7L26.8,70.9L27.6,70.0L29.0,68.9L29.6,68.0L31.6,66.1L32.0,65.4L34.2,63.0L34.6,62.2L35.1,61.8L35.9,60.8L36.1,60.3L36.7,59.6L36.9,59.1L37.7,58.2L37.9,57.6L38.4,57.1L40.1,53.3L40.6,52.9L41.5,50.5L41.8,49.6L42.4,48.7L42.8,47.2L43.6,45.6L44.1,44.1L44.2,42.9L43.7,42.2L42.7,41.2L41.9,40.0L41.2,37.8L41.2,36.1L41.5,35.4L41.5,34.9L42.0,33.5L42.4,32.8L43.7,31.5L44.5,31.0L45.5,30.7L48.2,30.5L49.1,30.6L49.6,31.0L50.4,31.2L51.3,31.8L53.1,33.7L53.6,34.6L54.0,36.3L53.9,39.0L53.1,40.7L51.9,42.1L50.8,42.7L48.9,43.5L47.3,43.5L46.7,44.0L46.2,45.2L45.7,47.0L45.5,47.3L45.3,48.1L44.4,50.6L44.2,51.8L43.8,52.4L43.5,53.6L42.9,54.8L42.8,55.5L42.5,55.8L41.5,58.6L41.1,59.0L40.8,60.0L39.3,62.7L38.9,63.8L37.9,65.2L36.4,68.1L35.7,68.9L34.8,70.7L33.4,72.6L32.6,74.0L31.8,74.8L31.4,75.8L30.8,76.7L29.4,78.4L29.1,79.2L28.3,80.0L27.7,81.0L26.3,82.6L25.6,84.0L24.9,84.8L24.3,85.8L23.5,86.7L22.3,88.3L22.2,88.7L20.5,90.7L19.4,92.6L18.8,93.2L18.7,93.5L18.7,94.3L19.6,95.4L20.1,96.4L21.4,97.9L21.9,98.7L24.6,101.7L24.7,101.9L28.0,105.1L28.5,105.5L29.3,105.6L30.8,103.5L32.5,100.9L33.3,100.0L33.5,99.4L34.5,98.2L35.1,97.0L36.2,95.6L36.6,94.7L39.0,91.2L39.7,89.6L41.4,87.0L42.4,85.0L44.3,81.9L44.4,81.4L44.9,80.4L46.0,78.3L46.4,77.3L47.1,75.8L48.3,72.4L49.0,71.0L49.1,70.3L49.5,69.1L50.0,67.1L50.5,65.5L50.8,63.5L50.6,62.6L50.1,62.1L49.3,61.6L48.1,60.2L47.1,58.0L47.2,55.3L47.3,54.4L47.8,53.3L48.6,52.2L49.3,51.6L50.4,51.1L50.7,50.7L52.0,50.2L54.5,50.2L54.7,50.4L56.5,51.0L57.5,51.5L58.3,52.3L58.8,53.0L59.7,55.1L59.8,57.5L59.6,58.7L59.0,60.0L58.6,60.5L57.2,61.9L56.6,62.3L55.5,62.7L53.6,63.1L53.3,63.5L53.1,64.9L52.8,66.1L52.6,68.5L52.4,68.9L52.1,71.1L51.8,71.7L51.7,73.0L51.3,74.1L51.2,75.6L50.9,76.1L50.8,77.2L50.4,77.9L50.3,79.0L49.8,80.6L49.7,81.4L49.4,82.3L49.2,83.4L48.5,85.9L48.1,87.9L47.3,90.2L47.1,91.5L46.4,93.4L45.0,98.7L43.5,103.1L43.5,103.4L42.4,106.5L42.2,107.4L41.8,108.4L41.6,109.4L41.4,109.8L41.3,110.4L40.7,112.3L40.8,113.8L41.5,114.4L43.6,115.4L46.4,116.5L47.0,116.8L47.8,117.1L48.8,117.1L49.2,117.4L50.0,117.5L51.3,118.0L53.2,118.4L54.4,118.7L54.9,118.7L55.3,118.4L55.5,118.0L55.9,116.5L56.0,114.3L56.2,113.5L56.2,112.0L56.5,110.8L56.6,108.2L56.9,106.5L57.2,105.3L57.5,101.3L57.7,100.8L57.8,99.5L58.0,99.1L58.0,98.2L58.5,94.1L58.7,91.2L59.0,89.9L59.0,88.5L59.3,87.0L59.5,83.6L59.9,81.8L59.9,79.9L60.4,76.5L60.6,73.1L61.0,69.8L61.0,67.9L61.3,66.1L61.4,62.6L61.8,58.6L61.8,55.1L62.0,53.8L62.0,50.6L62.2,49.7L62.4,43.4L62.7,40.3L62.6,37.5L62.8,36.8L62.8,32.1L62.4,31.6L61.5,31.4L60.4,30.8L58.8,29.2L57.9,27.4L57.5,26.2L57.6,23.9L57.9,22.9L59.3,20.5L60.1,19.8L61.5,19.0L63.1,18.7L64.3,18.7L65.7,19.0L66.1,19.2L66.6,19.3L68.2,20.3L69.1,21.1L70.0,22.5L70.5,24.3L70.5,25.9L70.3,27.3L70.0,28.1L69.6,29.1L67.7,31.0L66.9,31.4L66.0,31.5L65.3,32.2L64.9,34.2L65.1,35.5L65.2,40.8L65.1,42.4L65.4,53.8L65.6,56.5L65.7,57.1L65.7,58.5L65.9,59.2L65.7,59.9L65.9,60.0L66.0,62.2L65.8,62.7L65.8,65.0L66.0,69.2L66.0,70.2L66.0,71.3L66.4,72.5L66.3,73.5L66.5,74.1L66.4,77.1L66.6,78.7L66.5,79.2L66.9,82.2L66.9,84.6L67.1,85.2L67.1,87.8L67.4,90.0L67.5,92.1L67.7,92.8L67.8,95.3L67.9,96.1L67.8,97.0L68.0,97.6L68.1,99.2L68.3,100.3L68.5,103.4L68.7,104.3L68.9,107.0L69.1,108.6L69.3,108.9L69.3,111.0L69.6,112.3L69.6,114.5L69.9,116.2L69.9,117.9L70.2,118.7L70.5,118.9L70.9,119.1L71.6,119.1L74.1,118.7L75.4,118.3L76.2,118.3L77.2,118.0L78.4,117.8L82.2,116.6L85.3,115.4L86.0,114.9L86.0,114.5L85.5,113.3L85.2,112.1L84.6,110.7L83.9,108.4L83.7,108.0L83.2,106.4L82.9,104.8L82.3,103.6L81.8,101.3L81.6,100.8L81.4,99.6L80.5,96.9L80.3,95.2L79.8,93.6L79.7,92.5L79.0,90.5L79.0,90.0L78.6,88.8L78.2,86.6L77.8,85.3L77.7,84.3L77.0,81.8L76.2,77.9L75.9,77.4L75.8,75.8L75.5,75.0L75.5,74.2L74.7,70.8L74.7,69.8L74.4,68.2L74.0,64.6L73.5,63.9L72.7,63.4L71.9,63.2L71.4,62.8L71.1,62.8L70.0,62.0L69.7,61.9L68.7,60.9L67.7,59.1L67.5,58.1L67.2,57.3L67.2,56.3L67.4,56.0L67.6,55.3L68.2,54.1L68.7,53.3L69.6,52.4L70.1,52.1L70.6,51.6L71.8,51.1L73.0,51.0L73.8,50.6L74.9,50.7L75.6,51.1L76.2,51.1L77.7,52.1L79.4,53.7L79.8,54.4L80.3,55.9L80.4,56.9L80.3,58.9L80.0,59.7L79.2,61.0L78.3,62.0L76.9,63.1L76.3,63.9L76.3,64.5L76.6,65.3L76.8,67.2L77.2,68.2L77.2,69.0L77.9,70.8L77.9,71.1L78.5,72.9L79.5,75.2L80.3,77.6L80.7,78.3L80.8,79.0L81.8,80.9L82.5,82.8L83.3,83.9L83.6,85.0L84.6,86.6L84.7,87.2L85.6,88.7L86.1,89.5L87.0,91.5L89.3,95.1L89.6,95.7L91.4,98.8L91.8,99.2L92.1,100.0L93.7,102.3L94.5,103.2L94.7,103.7L95.2,104.3L95.9,105.6L96.3,106.2L96.9,107.3L97.5,107.7L98.1,107.6L98.8,107.1L100.1,105.8L101.0,105.1L104.8,101.3L105.2,100.7L106.1,99.8L106.4,99.3L107.2,98.4L107.9,97.3L108.1,96.6L107.5,95.5L106.5,94.0L104.4,91.6L104.3,91.2L103.2,89.9L102.6,88.9L100.7,86.3L100.3,85.6L99.5,84.7L98.9,83.5L97.0,81.0L96.7,80.3L95.0,77.8L94.8,77.3L94.0,76.0L93.4,74.7L92.1,72.9L91.3,71.2L90.9,70.7L90.3,69.4L89.2,67.4L88.3,65.3L87.4,63.8L87.2,63.1L86.4,61.5L85.6,59.5L85.0,58.2L84.4,56.0L84.1,55.3L83.8,54.2L83.6,53.7L83.4,52.7L82.7,50.9L82.5,49.6L82.1,48.4L82.0,48.3L81.8,47.1L81.4,46.2L81.2,45.3L80.3,44.4L78.6,44.2L77.1,43.6L75.7,42.6L74.9,41.7L74.2,40.4L73.9,39.1L73.8,36.8L74.1,35.6L75.1,33.9L76.4,32.5L78.0,31.7L79.2,31.4L81.3,31.4L82.1,31.6L82.6,32.0L83.8,32.5L85.2,33.7L85.7,34.5L86.5,36.2L86.9,38.0L86.8,39.0L86.5,40.3L85.5,42.1L83.9,43.6L83.8,44.7L84.8,48.1L85.2,48.9L85.5,49.9L86.4,52.0L86.5,52.8L87.2,54.1L88.0,56.4L88.7,57.6L89.6,59.4L90.5,60.6L90.9,61.5L91.4,62.2L91.6,62.7L92.7,64.0L93.7,65.7L94.5,66.5L95.4,67.7L97.4,70.1L98.2,70.8L101.4,74.3L106.1,79.1L109.7,82.1L111.0,83.4L113.8,85.7L114.4,85.6L115.6,81.9L115.7,81.2L116.8,77.3L117.3,74.5L117.5,73.8L117.7,71.7L118.1,70.0L118.2,64.4L117.9,63.0L117.9,60.9L117.7,59.7L117.6,58.2L117.3,56.9L117.3,56.0L116.7,53.3L116.4,52.4L116.0,50.8L115.2,48.8L114.7,47.1L113.8,45.3L113.3,43.5L112.4,41.9L112.0,40.8L111.3,39.5L110.9,39.0L110.6,38.1L109.8,36.7L109.4,36.3L108.8,35.1L108.4,34.7L105.2,30.0L103.2,27.9L103.0,27.5L98.3,22.9L97.0,22.0L96.3,21.3L95.5,20.7L95.4,20.7L94.9,20.3L92.9,19.0L92.3,18.8L90.4,17.4L89.1,16.8L87.8,15.8L85.6,14.9L83.9,14.0L81.8,13.2L80.3,12.5L80.0,12.5L76.4,11.2L75.6,11.1L74.9,10.8L72.1,10.2L71.6,10.2L70.0,9.8L67.8,9.7L67.0,9.6L66.6,9.3L64.3,9.3L63.6,9.2L57.4,9.3L56.2,9.6Z" fill="#000" fill-rule="evenodd"/>
</svg>