<svg xmlns="http://www.w3.org/2000/svg" viewBox="0 0 128 128" width="128" height="128">
  <path d="M21.9,30.4L21.2,30.4L20.3,31.3L18.5,34.0L18.6,34.4L19.1,34.3L20.3,33.2L20.9,32.9L21.2,32.9L21.9,32.6L22.2,32.3L22.4,31.7L22.4,31.2Z M95.5,22.2L95.3,22.3L95.3,22.8L95.8,23.0L96.1,22.8L95.9,22.3Z M61.8,9.1L60.3,9.4L59.2,10.4L58.5,10.6L57.9,10.9L56.4,12.6L55.6,12.9L55.0,13.4L54.4,14.4L52.7,15.7L52.1,16.0L51.5,15.9L51.0,15.4L50.9,14.9L51.4,14.0L53.1,12.1L54.5,11.0L55.4,10.5L55.7,10.5L56.6,10.2L56.7,10.0L56.5,9.8L54.7,9.9L53.3,10.3L51.7,10.5L51.2,10.8L50.3,10.8L49.5,11.2L49.2,11.7L49.2,12.3L49.1,12.6L47.8,13.9L47.0,14.2L46.4,14.7L45.6,16.0L45.6,16.7L45.2,17.1L44.1,17.5L42.6,17.5L41.9,16.9L41.9,16.3L42.1,15.9L42.8,15.1L43.5,14.6L45.0,13.3L45.1,12.9L44.9,12.7L44.4,12.7L43.0,13.4L41.5,13.9L40.0,14.8L39.1,15.1L38.3,15.6L37.2,16.2L36.1,17.3L34.3,18.0L34.0,18.3L32.7,19.0L32.0,19.6L31.8,20.0L31.8,20.7L31.4,21.3L30.5,22.0L29.1,22.5L28.4,23.1L26.6,24.0L26.2,24.4L25.7,25.1L25.7,25.3L25.3,25.9L24.5,26.4L23.4,27.4L23.0,28.1L23.0,28.8L23.3,29.2L24.0,29.4L25.6,28.6L26.7,27.3L27.7,26.4L29.4,25.4L30.5,24.9L31.4,24.7L32.2,24.2L33.3,23.8L34.4,23.9L34.9,24.3L35.0,24.6L34.8,25.1L34.3,25.9L33.4,26.8L32.2,27.6L30.5,29.2L29.9,29.4L28.7,30.5L27.5,31.2L25.2,33.6L24.7,33.8L23.2,35.2L22.2,36.7L20.3,37.6L19.5,38.3L17.9,38.9L16.1,40.7L15.6,41.6L15.1,42.1L14.3,42.5L13.7,43.2L12.0,47.9L12.0,48.8L12.6,48.8L13.4,48.0L14.1,47.5L16.0,45.6L16.7,44.1L17.5,43.5L17.9,43.3L18.2,43.0L18.8,42.8L19.2,42.4L20.9,41.6L21.4,41.1L21.6,40.4L22.7,39.4L24.3,38.5L25.2,38.3L26.2,37.6L26.9,37.2L28.8,35.8L30.4,34.4L31.8,34.4L32.5,34.9L32.5,35.3L31.2,36.5L28.9,38.1L26.8,40.1L26.1,40.6L24.5,41.2L23.7,41.8L23.2,42.4L22.6,43.3L20.9,44.9L20.1,45.4L19.2,45.9L18.8,46.3L18.5,46.9L17.8,47.7L14.7,50.0L13.6,51.0L12.8,51.4L12.2,52.1L12.0,53.6L11.8,54.1L11.2,54.8L10.6,55.3L10.3,55.8L9.8,59.8L9.7,66.6L9.9,68.3L9.8,68.9L10.2,70.7L10.5,70.9L10.8,70.9L11.5,70.5L11.9,70.3L13.3,70.3L13.6,70.5L13.6,70.9L12.6,72.2L11.5,73.9L11.1,75.1L11.1,76.5L11.7,79.1L12.1,79.8L12.3,80.8L12.8,81.7L13.1,81.6L13.5,79.0L13.9,78.0L14.1,76.6L14.9,74.8L16.2,73.5L16.2,72.9L16.4,72.6L17.4,71.4L18.2,70.8L19.3,70.3L23.2,70.2L23.7,70.3L24.0,70.6L24.0,71.2L23.6,72.0L23.6,73.1L24.5,74.1L24.5,74.6L24.1,74.9L22.8,74.9L22.0,75.2L21.5,75.2L21.2,74.8L21.1,73.8L21.5,72.6L21.5,72.0L21.1,71.7L20.5,71.8L19.6,72.5L18.8,73.4L17.2,74.8L16.2,76.9L16.1,79.8L15.6,80.6L14.8,81.5L14.6,82.1L14.6,83.0L15.0,85.0L15.0,86.1L16.2,90.3L17.4,92.1L17.5,92.6L18.7,94.2L19.2,95.1L20.1,96.4L21.4,97.5L22.6,99.2L23.6,100.3L27.1,103.3L28.5,104.3L29.7,105.0L30.5,105.6L31.7,106.0L32.7,106.1L33.1,106.4L33.1,106.8L32.7,107.3L31.7,107.4L31.3,107.7L31.3,108.1L33.5,109.9L34.3,110.2L35.5,111.1L35.8,111.1L36.8,111.9L38.1,112.4L38.9,112.4L39.7,112.1L40.6,112.0L43.3,112.1L44.4,112.0L46.5,112.0L47.3,111.7L48.2,111.7L48.9,112.0L49.9,112.2L50.5,112.0L51.7,111.2L52.4,111.1L53.3,110.8L54.8,110.7L55.8,110.3L57.2,109.1L57.8,108.8L59.2,108.4L60.3,107.6L61.5,107.0L62.0,107.0L62.3,107.2L62.5,108.3L62.3,108.8L62.1,109.0L61.2,109.4L60.3,109.4L58.2,110.7L56.6,110.7L56.1,110.9L55.1,111.9L54.6,112.3L53.9,112.5L53.5,112.5L52.3,112.9L51.6,112.9L50.4,112.6L49.7,112.6L48.4,113.4L46.9,113.4L45.6,113.3L42.7,113.3L41.8,113.9L41.8,114.1L42.2,114.6L42.6,114.6L45.2,115.9L48.0,116.7L49.5,116.9L50.8,117.4L51.5,117.4L52.4,117.2L53.8,116.3L54.6,116.1L56.5,116.0L57.6,115.7L57.8,115.4L58.6,115.3L60.7,114.2L62.4,113.7L63.9,111.6L65.2,111.2L66.0,110.8L66.6,109.9L66.8,109.4L67.3,108.9L68.1,108.5L69.2,107.5L69.9,107.4L70.1,107.5L70.2,108.1L69.4,109.8L68.7,110.5L67.4,111.4L66.4,112.5L65.5,113.2L64.8,113.3L64.5,113.1L63.8,113.1L63.6,113.4L63.6,114.6L63.3,115.0L62.5,115.4L61.4,115.6L60.4,116.3L58.0,117.2L57.1,117.4L56.0,118.0L56.0,118.3L56.3,118.5L57.6,118.6L57.9,118.8L58.7,118.8L59.4,118.9L62.9,119.1L64.5,118.6L65.6,117.6L65.9,117.4L67.6,117.3L67.8,117.4L68.4,118.0L68.4,118.6L68.6,118.9L69.2,118.9L71.2,118.7L72.8,118.3L73.4,117.9L74.3,117.1L75.5,116.6L76.3,116.4L76.6,116.0L76.5,114.8L76.8,114.3L78.9,111.7L80.2,111.0L80.8,111.0L81.2,111.3L81.3,112.0L81.1,112.7L80.0,114.1L78.5,115.3L77.2,116.0L76.9,116.7L76.9,117.2L77.2,117.4L78.0,117.4L78.9,117.0L79.4,117.0L80.5,116.6L81.6,116.3L85.9,114.6L86.2,114.4L86.2,114.0L85.4,113.3L85.4,112.6L85.7,112.1L87.0,110.9L88.3,108.5L89.1,107.7L89.7,107.4L90.2,107.5L90.7,107.7L91.1,108.2L90.9,109.3L89.9,110.6L89.4,112.0L89.5,112.7L90.2,112.6L92.7,111.1L93.6,110.4L95.3,108.4L96.1,106.8L96.7,105.9L97.1,104.8L97.7,103.8L98.0,103.7L99.3,103.8L99.8,104.2L99.8,105.5L100.2,105.5L101.9,104.0L105.4,100.2L105.6,99.7L106.8,98.4L107.4,97.5L107.4,96.8L106.9,96.1L106.9,95.6L107.0,95.2L107.6,94.5L108.3,94.0L109.7,93.9L110.1,93.4L111.0,91.7L111.5,91.2L111.9,90.4L111.9,90.1L112.2,89.7L112.4,89.1L112.6,88.9L113.5,87.1L113.7,86.5L115.0,83.5L115.6,81.5L116.0,80.5L116.6,78.5L116.9,77.1L117.3,75.8L117.4,74.9L117.8,73.4L117.8,72.4L118.2,70.8L118.2,69.4L118.4,68.8L118.7,63.4L118.5,59.8L118.2,58.4L118.2,56.9L118.1,55.8L117.9,55.4L117.8,54.4L117.4,54.0L117.1,54.0L116.9,54.2L116.9,55.7L116.7,56.2L116.6,57.1L116.4,57.5L116.2,58.4L116.0,58.7L115.4,58.8L114.8,58.8L114.4,58.4L114.5,57.3L115.5,56.0L115.5,55.4L115.1,54.5L115.1,53.7L115.7,52.9L116.1,52.7L116.7,52.5L117.2,52.1L117.2,51.2L116.9,50.6L116.8,49.4L116.2,48.7L115.7,48.7L114.0,50.4L113.4,50.6L112.5,50.5L112.2,50.0L112.2,48.5L112.9,46.6L113.6,46.2L114.9,46.1L115.2,45.8L115.2,45.2L114.9,43.9L113.1,39.6L112.0,37.8L111.9,37.5L111.1,36.4L110.9,35.8L110.6,35.5L110.0,34.2L109.3,33.4L108.8,33.3L107.6,34.0L107.0,33.9L106.9,33.1L107.1,31.4L107.1,30.7L107.0,30.2L105.5,28.2L104.8,27.6L104.4,27.1L103.4,26.1L102.8,26.1L102.3,26.5L101.8,26.7L101.4,26.7L100.7,26.4L100.5,25.9L101.2,24.5L101.1,23.8L100.6,23.3L98.2,21.2L97.5,21.1L97.1,21.4L96.8,23.5L96.5,24.7L96.3,26.7L95.5,29.0L95.3,31.2L94.8,32.5L93.3,33.7L92.8,33.8L92.6,33.3L92.2,32.9L91.2,32.7L91.0,32.4L91.2,31.4L91.7,30.9L92.0,30.3L92.6,28.7L93.1,28.2L93.7,27.9L94.1,27.4L94.2,26.8L93.9,25.8L93.9,24.8L94.5,23.0L94.7,20.3L94.9,19.9L94.9,19.1L94.7,18.7L91.9,16.7L91.1,16.7L90.7,17.3L90.7,19.5L90.9,20.0L90.9,20.9L90.4,21.9L89.8,22.5L89.6,23.0L89.6,24.0L89.7,24.9L89.5,25.9L88.9,27.2L88.7,29.0L88.5,29.1L88.0,30.7L87.6,31.7L86.8,32.2L86.3,32.9L86.4,35.7L86.3,36.3L85.8,37.2L84.4,38.6L84.0,40.0L83.1,41.6L82.6,43.7L81.9,45.0L81.5,46.9L80.8,48.2L80.8,48.7L80.6,49.4L80.0,50.1L79.4,50.3L78.8,50.8L78.8,51.2L79.5,52.5L79.6,53.6L79.2,54.5L78.0,55.8L77.2,57.5L76.3,58.4L75.7,58.7L73.7,58.6L73.4,58.2L73.4,57.4L73.8,56.2L74.8,55.0L75.4,54.1L75.8,52.9L75.9,51.6L76.3,51.0L78.1,49.3L78.6,48.2L79.2,47.6L79.6,47.0L79.8,46.5L79.6,44.5L79.9,43.5L81.6,41.1L81.9,38.9L82.4,37.4L83.0,36.4L83.5,35.9L84.5,34.2L84.8,32.2L85.7,31.1L86.7,27.5L86.7,26.8L87.1,25.5L87.9,24.4L88.0,23.8L89.2,22.5L89.2,22.1L88.6,21.2L88.6,20.6L89.2,19.0L89.2,18.2L88.9,17.4L89.0,15.6L88.9,15.4L88.4,14.9L87.9,14.6L87.1,14.3L85.9,13.6L83.2,12.7L82.8,12.8L82.6,13.0L81.9,14.6L81.1,15.4L80.8,15.4L80.5,15.2L80.3,14.8L80.3,13.6L80.8,12.1L80.3,11.6L78.6,11.0L75.9,10.5L75.0,10.6L74.1,11.6L73.8,12.1L73.1,13.0L71.2,14.7L70.4,15.0L69.7,15.0L69.0,14.7L69.0,13.9L70.6,11.6L71.2,11.0L71.6,10.4L71.6,10.1L71.2,9.7L70.4,9.5L69.0,9.3L67.7,9.4L67.5,9.7L67.5,10.9L66.8,12.2L66.0,13.2L65.2,14.9L63.9,15.9L63.3,16.6L62.7,18.2L62.1,18.9L61.4,20.0L60.8,20.7L60.6,21.0L59.5,22.2L59.0,22.4L58.5,22.4L58.0,21.9L58.2,21.1L59.5,19.7L59.6,19.0L60.0,18.4L62.4,15.7L62.9,14.7L63.1,13.6L64.2,12.4L65.2,10.0L65.1,9.4L64.6,9.1Z M34.3,106.8L34.7,106.4L37.4,106.4L39.2,107.0L40.5,107.0L42.1,106.6L44.2,106.6L44.5,106.8L44.7,107.0L44.7,107.5L44.5,107.9L44.2,108.2L43.1,108.5L41.1,108.6L39.1,108.5L38.7,108.7L36.1,108.7L35.0,108.2L34.4,107.7L34.3,107.3Z M93.4,102.9L93.7,103.4L93.6,103.8L93.2,104.3L92.8,104.5L92.3,104.5L92.0,104.1L92.1,103.6L92.7,103.0Z M81.5,102.2L81.9,102.8L81.9,103.8L81.2,104.7L80.4,105.4L79.7,106.7L79.0,107.3L78.5,107.7L75.6,110.7L74.1,111.7L73.3,112.6L71.9,114.7L71.1,115.4L70.3,115.9L69.8,115.8L69.4,115.1L69.4,114.3L70.0,113.3L71.9,112.0L72.5,111.4L73.1,110.6L75.0,108.6L76.1,107.3L78.0,104.2L79.2,103.0L80.0,102.5L80.2,102.5L80.8,102.1Z M92.1,96.2L92.3,96.5L92.3,97.0L91.4,98.1L91.4,98.4L90.4,99.9L90.2,100.4L89.7,101.0L88.9,102.4L86.6,104.8L85.7,104.8L85.4,104.5L85.4,103.8L85.7,103.2L87.0,101.8L87.6,100.7L88.8,99.5L89.7,97.7L90.8,96.8L91.5,96.3Z M74.8,95.1L75.1,95.6L74.9,96.5L74.2,97.3L72.9,98.2L71.7,99.4L70.5,101.3L68.5,103.3L67.7,105.0L67.1,105.7L66.7,106.0L66.0,106.2L64.2,106.3L63.8,105.9L64.0,105.4L64.6,104.9L65.4,104.6L66.1,104.2L66.8,102.1L67.2,101.5L68.4,100.4L68.6,100.0L69.3,99.4L69.4,99.4L69.8,99.0L70.3,98.9L70.8,98.5L72.1,97.1L72.9,96.0L73.7,95.3L74.2,95.1Z M84.1,87.6L84.7,88.2L84.9,88.7L84.8,89.7L84.1,91.2L83.1,92.4L82.4,92.6L81.6,92.7L81.5,93.2L81.8,93.8L81.8,94.4L81.6,94.9L78.7,98.1L77.4,100.6L75.8,102.1L75.0,103.0L74.1,103.8L73.6,105.0L72.9,105.9L72.4,106.2L71.6,106.1L71.2,105.8L71.1,105.4L71.2,104.5L72.4,103.6L73.3,102.7L74.2,101.1L76.3,98.2L76.6,98.1L78.4,94.8L79.4,93.8L80.5,92.0L81.7,90.8L82.8,89.1L83.4,87.8L83.6,87.6Z M103.5,85.7L103.7,86.0L103.6,86.7L102.7,88.2L102.2,90.3L101.5,91.1L100.5,93.0L99.4,94.4L98.9,95.6L98.4,96.0L97.9,96.3L97.0,96.4L96.5,96.8L96.3,97.2L96.4,98.6L95.9,99.8L95.3,100.4L94.9,100.6L94.5,100.5L94.1,99.9L94.1,99.3L94.3,98.9L96.8,95.2L98.5,93.4L99.1,93.1L100.0,92.2L100.4,91.4L100.7,90.0L101.4,88.5L102.2,86.0L102.6,85.6Z M45.2,84.9L45.2,84.5L45.9,84.1L46.9,84.2L47.2,84.3L47.3,84.6L46.9,85.0L46.4,85.2L45.6,85.2Z M99.2,83.7L99.5,83.9L99.5,85.0L99.2,85.8L98.8,86.5L98.6,87.4L98.1,88.5L96.7,89.9L96.4,91.6L95.1,93.3L94.3,93.7L93.7,93.6L93.3,93.1L93.3,92.6L93.6,92.1L95.9,90.0L96.1,89.5L96.2,88.2L97.1,86.6L97.5,85.0L98.1,84.3L98.8,83.8Z M19.0,82.2L19.5,81.7L20.1,81.7L20.6,82.2L21.3,84.9L21.7,85.8L22.4,86.8L22.9,88.8L25.4,91.9L27.5,93.9L30.6,96.0L31.9,97.5L32.6,97.7L35.2,97.6L35.3,97.7L35.3,98.1L35.1,98.6L35.3,100.0L36.1,101.0L36.5,101.2L37.0,101.2L37.1,101.4L37.8,101.4L39.1,100.8L42.2,100.9L45.5,100.6L46.5,100.3L48.2,99.4L49.5,99.0L50.0,98.6L50.9,98.5L51.1,98.3L51.6,98.3L52.6,98.0L54.3,96.9L54.5,96.9L55.4,96.4L55.9,96.4L56.0,96.6L56.0,97.3L55.8,97.7L54.9,98.5L54.1,98.7L53.0,98.8L52.4,99.0L51.2,100.4L50.3,100.8L49.9,101.2L46.6,101.2L45.9,101.6L45.1,102.4L44.3,102.8L43.2,102.9L39.6,102.9L37.4,102.8L34.9,102.3L34.0,101.6L33.1,101.4L30.9,99.9L29.5,99.4L28.1,98.0L26.2,97.3L25.4,96.6L24.5,94.9L24.4,94.0L24.6,93.5L24.5,92.9L24.3,92.6L23.9,92.5L22.8,93.0L22.4,92.8L21.7,92.1L21.2,91.2L20.8,90.1L20.3,89.5L20.1,89.1L19.8,86.9L19.4,86.0L18.9,84.3L18.8,82.9Z M32.1,81.3L32.2,81.0L32.6,80.9L33.3,80.9L34.5,81.8L34.7,82.1L34.7,82.4L33.8,83.0L33.1,83.0L32.3,82.4L32.1,81.9Z M101.1,78.6L101.4,78.8L101.4,79.4L101.1,80.2L100.5,81.0L99.5,83.0L99.1,83.0L98.5,82.0L98.8,80.3L99.6,79.1L100.3,78.9L100.7,78.6Z M111.9,77.8L112.5,78.3L112.6,79.5L112.0,81.2L110.8,83.5L110.0,84.5L109.6,85.9L109.5,89.0L109.1,89.5L107.9,90.2L107.4,90.8L107.1,91.3L106.7,91.8L106.5,92.5L105.3,94.1L104.2,95.2L103.7,96.0L102.7,97.2L102.3,97.9L101.8,98.5L101.4,98.5L101.0,98.0L101.0,97.5L102.0,95.0L102.4,94.6L102.6,94.1L103.4,92.9L105.0,91.2L105.4,90.7L106.1,89.2L106.1,88.2L106.6,87.1L108.2,85.3L108.7,84.5L108.7,82.8L109.2,81.4L109.9,80.4L110.5,79.0L111.6,77.9Z M21.0,77.4L21.5,77.8L21.6,79.0L21.0,79.8L20.4,79.9L19.8,79.6L19.7,78.9L19.9,78.3L20.3,77.7Z M101.5,73.7L102.1,74.3L102.3,74.8L102.2,75.4L101.9,76.1L101.4,76.5L101.4,77.0L100.8,77.5L100.2,77.4L100.2,75.7L100.4,75.3L100.5,74.3L101.0,73.7Z M71.0,71.8L71.2,72.0L71.2,72.8L71.1,73.3L70.0,74.9L69.7,76.1L69.3,76.9L68.0,78.3L67.0,79.9L66.5,80.4L65.9,80.7L65.0,80.7L64.1,79.9L63.9,79.4L64.1,78.3L64.7,77.5L65.7,76.8L68.0,74.4L68.8,73.2L70.3,71.8Z M107.0,70.5L107.4,71.4L107.5,72.4L107.2,73.9L107.2,75.0L106.9,76.4L106.8,78.9L106.5,79.6L105.7,81.8L105.3,82.5L105.0,82.6L104.7,82.6L103.9,81.9L103.9,81.4L104.8,79.1L104.9,79.0L105.0,78.5L105.6,77.4L105.8,76.5L105.4,73.4L105.9,72.0L106.3,71.5L106.4,70.5Z M113.3,70.5L113.7,70.6L113.8,70.8L113.7,71.8L113.5,72.6L113.7,74.5L113.1,76.0L112.6,76.4L112.2,76.5L111.8,76.1L111.3,75.5L111.5,71.3L111.9,70.5Z M101.1,70.9L101.2,70.5L101.4,70.4L101.9,70.4L102.3,70.6L102.3,70.8L101.8,71.2L101.4,71.2Z M98.8,70.5L98.8,71.1L98.2,72.6L97.9,74.1L97.2,76.1L96.3,77.3L95.4,79.1L94.0,80.2L93.6,80.6L93.6,81.2L94.1,82.1L94.3,83.1L94.0,84.0L93.7,84.6L93.4,85.9L92.7,87.3L92.7,87.8L91.4,90.5L91.0,90.9L91.0,91.3L90.2,92.5L88.8,94.0L87.5,94.2L87.1,94.5L87.1,95.1L87.4,96.0L87.4,96.8L86.7,98.1L85.2,99.7L84.7,100.0L84.2,100.2L83.5,100.7L82.8,100.7L82.6,100.4L82.6,99.0L82.8,98.5L84.1,96.8L84.6,96.2L85.4,94.8L86.2,93.8L86.8,92.5L88.3,91.3L89.8,89.1L91.1,85.2L92.0,83.8L92.3,82.2L93.0,80.9L93.2,80.4L93.2,78.9L94.3,77.7L95.4,75.4L95.5,74.3L96.6,70.7L97.0,70.4L97.5,70.3L98.4,70.4Z M93.3,70.3L93.6,70.6L93.6,71.0L93.3,71.6L92.5,72.5L92.3,73.5L91.9,73.9L91.5,75.1L90.6,76.5L90.2,77.8L90.1,78.7L89.3,80.7L88.9,81.4L87.5,82.8L87.6,84.7L86.8,86.3L86.1,86.9L85.0,86.8L84.6,86.5L84.7,84.4L85.4,83.0L86.7,80.9L87.1,79.6L87.6,78.9L87.9,77.8L88.4,76.5L89.4,74.7L90.3,73.8L90.6,73.1L90.7,72.6L91.6,70.7L92.2,70.3Z M67.6,70.6L67.2,71.6L66.9,71.8L66.6,72.4L65.9,73.1L65.3,74.0L64.9,74.4L64.4,74.7L62.9,76.1L62.1,77.4L60.8,78.4L59.2,80.2L58.3,80.7L57.7,81.6L55.7,83.6L53.9,85.0L52.4,85.9L51.3,86.8L50.4,87.3L48.7,87.7L47.4,87.8L46.7,88.2L46.5,88.5L45.8,89.2L44.3,89.5L42.5,89.5L41.9,89.6L41.1,89.6L37.4,88.8L34.8,87.4L34.0,86.5L33.9,86.1L34.0,85.6L34.3,85.3L35.2,85.3L37.3,86.6L38.2,86.8L39.3,87.2L40.9,87.4L43.4,87.4L43.9,87.3L46.1,87.2L46.9,86.8L47.4,86.7L49.0,85.9L50.0,85.7L50.8,85.4L51.7,84.8L52.4,84.0L52.4,83.5L51.9,83.0L51.8,82.4L52.4,81.9L52.8,81.7L53.6,81.7L54.1,82.0L54.8,82.0L56.4,81.3L57.2,80.7L57.6,80.5L58.0,80.1L58.9,78.4L60.3,76.8L61.0,75.7L62.1,74.5L63.4,72.2L65.1,70.5L65.8,70.3L67.2,70.4Z M60.3,70.5L60.3,70.9L60.0,71.1L59.4,72.6L58.6,73.5L57.6,74.1L57.0,74.7L56.5,76.1L55.1,77.3L53.0,78.2L52.1,79.6L51.8,80.0L50.9,80.4L49.7,80.9L49.1,80.9L47.5,81.7L47.0,81.7L45.0,83.0L42.2,83.4L40.6,83.4L40.2,83.2L39.3,83.1L37.6,82.5L37.0,82.1L36.6,81.5L36.8,80.5L36.7,78.6L36.1,77.2L36.1,75.5L37.6,73.8L38.1,72.2L38.6,71.8L39.8,71.0L40.5,71.0L41.2,71.8L41.0,72.6L40.4,73.3L39.7,73.5L39.3,73.7L38.5,74.6L37.9,76.1L37.6,77.8L37.7,78.0L38.0,78.3L38.9,78.3L39.7,78.1L42.2,76.9L43.1,76.8L43.6,77.1L43.5,77.8L42.8,78.5L41.3,79.3L40.3,79.5L39.3,79.9L38.4,80.8L38.6,81.5L39.0,81.8L40.6,82.2L41.4,82.2L43.2,81.3L44.4,80.9L45.6,80.8L46.7,80.4L47.4,79.8L48.2,79.4L48.7,79.3L49.3,78.8L51.4,77.7L52.5,76.7L53.1,76.3L55.1,74.1L55.4,73.9L56.5,73.9L56.8,73.7L56.9,73.3L56.9,72.0L57.3,71.2L58.0,70.5L58.6,70.2L59.9,70.2Z M25.2,78.3L25.4,77.4L26.2,76.5L26.7,75.2L28.3,72.6L30.5,71.0L30.9,70.5L31.9,70.2L32.6,70.3L32.8,70.5L32.4,72.0L32.2,74.3L32.4,76.0L32.4,77.4L32.2,78.3L31.9,79.0L31.4,79.6L30.8,79.7L30.3,79.1L29.8,76.8L29.6,76.5L28.9,76.5L28.6,76.6L27.9,77.4L27.3,79.4L26.8,80.1L26.8,80.7L27.9,82.2L28.1,83.0L28.1,84.3L28.4,85.0L29.2,85.6L30.7,86.3L31.0,86.6L31.1,88.2L31.3,88.6L31.9,89.2L33.2,89.6L34.2,90.3L34.7,90.4L35.0,90.6L35.8,90.8L37.0,91.7L37.8,91.9L42.2,91.9L42.8,91.7L43.8,91.7L45.2,91.2L45.5,91.2L47.5,90.1L49.2,89.8L49.8,89.5L50.6,89.2L51.0,89.0L52.5,87.6L54.3,86.5L54.9,86.2L57.7,84.1L58.6,83.6L59.7,82.9L60.7,82.5L61.6,81.7L62.1,81.5L62.7,81.5L63.2,81.9L63.3,82.2L63.2,82.6L61.1,84.7L59.8,85.6L58.6,86.9L55.7,88.6L54.6,88.7L53.8,89.1L52.1,90.4L50.5,90.8L47.8,91.9L45.3,92.1L44.8,92.3L43.9,93.3L43.1,93.8L42.6,93.9L40.9,93.5L40.0,93.5L39.1,93.8L38.7,93.8L37.1,93.4L34.5,93.4L34.1,93.5L33.1,93.5L31.4,92.4L29.8,90.8L29.6,90.4L27.9,88.7L27.6,88.2L27.0,86.8L26.6,84.6L25.7,83.5L25.3,82.3L25.3,80.7L25.1,80.0Z M87.0,70.3L87.0,70.5L85.8,71.5L85.8,72.2L86.2,73.1L86.1,73.5L84.4,75.7L83.7,77.2L82.5,78.7L82.4,79.5L82.4,80.7L82.0,81.7L81.6,82.5L80.5,83.8L80.2,85.2L80.2,85.6L79.8,86.4L79.8,86.7L79.4,87.5L78.6,88.3L78.0,88.8L77.2,89.1L75.6,89.1L75.2,89.7L74.7,91.2L73.7,92.4L72.6,93.3L71.6,93.6L71.1,93.9L70.3,94.7L70.0,95.2L67.3,97.7L65.7,98.6L63.0,101.0L61.7,101.6L60.6,101.7L59.5,102.0L59.1,102.4L58.7,103.1L57.8,104.0L56.9,104.3L55.3,104.5L55.0,104.6L53.8,105.8L52.7,106.4L50.5,106.9L49.5,107.5L48.6,107.8L47.6,107.7L47.3,107.3L47.1,106.9L47.2,106.5L48.0,105.7L48.9,105.3L50.0,105.1L51.6,104.2L53.0,103.9L54.3,103.4L55.0,103.3L57.0,102.1L58.6,101.6L59.8,100.8L60.0,100.4L60.8,99.7L61.2,99.4L61.8,99.4L63.5,98.4L65.3,96.9L66.8,95.4L67.2,94.7L68.8,93.4L69.3,92.3L70.3,91.3L71.1,90.9L74.2,87.7L75.0,87.2L75.6,87.0L76.4,86.6L76.9,86.1L77.7,84.3L78.4,83.5L78.9,82.4L79.2,81.5L79.9,79.9L80.1,78.7L80.3,78.3L81.2,77.4L81.4,77.0L81.5,75.9L81.7,75.4L82.6,74.4L83.2,72.8L84.4,71.5L84.7,70.6L85.0,70.3L85.4,70.1Z M52.6,70.4L52.6,70.5L51.7,71.8L50.9,72.5L50.4,72.6L49.9,72.3L49.3,72.3L49.1,72.5L48.5,73.2L48.2,73.9L48.2,74.7L47.8,75.2L47.0,75.3L45.7,76.1L45.2,76.1L45.0,75.9L45.1,75.5L46.4,74.4L47.4,73.4L48.5,71.8L49.3,70.9L50.8,70.2L52.3,70.1Z M79.2,70.6L79.2,72.0L78.8,73.4L78.3,74.2L77.2,75.1L76.3,76.2L75.9,77.0L75.7,78.3L75.2,79.0L74.9,79.7L74.8,80.7L74.5,81.5L73.7,82.5L72.0,84.3L70.5,85.2L69.4,86.5L68.8,87.8L68.4,88.2L68.3,88.6L67.9,89.1L67.7,89.5L66.6,90.6L65.9,90.9L64.0,92.4L63.2,92.8L62.6,93.4L62.3,94.2L61.7,94.7L61.4,94.7L61.1,95.1L60.2,95.6L59.2,95.9L58.3,95.8L57.7,95.4L57.7,95.1L58.5,94.4L61.0,93.0L63.2,91.6L65.1,89.8L65.4,89.2L65.4,88.0L64.8,87.9L64.2,88.2L62.4,90.4L61.8,90.9L59.2,92.1L57.7,93.1L56.3,93.4L54.8,94.7L53.0,95.3L52.3,95.8L51.7,95.9L50.8,96.3L50.4,96.3L50.0,96.6L49.0,96.8L48.2,97.3L46.9,97.8L44.4,98.0L42.8,98.6L41.0,98.6L40.2,98.7L39.7,98.6L38.5,98.1L37.6,98.1L37.4,97.9L37.5,97.7L38.2,97.4L38.4,97.2L38.8,96.4L39.1,96.4L39.7,97.1L40.4,97.3L41.3,97.3L41.7,97.2L43.5,96.9L44.0,96.7L44.7,96.6L45.8,96.1L46.5,95.5L46.9,94.8L47.3,94.5L47.5,94.5L47.7,94.7L47.9,95.5L48.2,95.6L48.7,95.6L50.0,94.8L51.3,94.3L51.7,94.0L52.3,93.8L53.0,93.3L53.9,93.0L55.9,92.1L56.1,91.8L57.7,91.1L59.7,89.7L61.1,89.2L64.5,86.4L65.3,85.9L67.0,85.4L67.7,84.7L69.4,82.8L70.6,81.2L72.4,79.3L73.5,77.0L74.1,75.2L75.4,73.1L75.9,71.8L76.6,70.7L77.2,70.1L77.4,70.1L78.7,70.1Z M61.2,57.9L61.6,57.6L62.4,57.5L62.7,57.9L62.7,58.1L62.4,58.4L61.6,58.4L61.2,58.3Z M91.9,54.1L92.5,54.7L92.7,55.3L92.7,56.0L92.5,56.2L92.3,57.9L91.9,58.6L89.5,58.6L89.3,58.4L89.3,57.7L90.7,54.5L91.3,54.0Z M111.5,52.5L111.9,53.1L112.0,53.4L111.9,55.4L111.7,56.1L110.8,57.7L110.1,58.2L109.6,58.2L109.2,57.8L109.1,57.5L109.6,54.4L110.6,52.8L110.9,52.5Z M51.2,53.0L51.3,53.8L51.2,54.1L49.4,56.1L48.2,56.8L47.4,57.0L46.6,57.4L46.3,57.9L46.2,58.3L45.9,58.6L44.2,58.7L43.8,58.4L43.8,58.0L44.6,57.1L46.5,56.4L46.9,55.8L47.4,54.7L47.8,54.3L48.7,53.9L50.2,52.3L50.7,52.4Z M99.7,51.5L100.1,51.7L100.4,52.1L100.4,53.2L99.3,56.6L98.6,58.2L98.3,58.6L97.8,58.8L96.6,58.7L96.4,58.4L96.4,58.2L97.1,56.9L97.3,55.2L97.6,54.4L97.7,53.2L97.9,52.7L98.9,51.6L99.2,51.5Z M49.5,48.9L49.5,49.3L48.7,50.3L47.8,51.0L47.2,51.0L47.2,50.8L49.0,48.9L49.4,48.8Z M105.9,48.5L106.7,49.1L107.1,49.6L107.4,50.2L107.4,50.8L106.9,51.6L106.6,52.3L106.6,54.1L105.6,55.6L105.3,57.0L105.2,58.3L104.6,58.7L103.1,58.6L102.8,58.4L102.8,57.8L103.3,57.0L103.8,55.8L103.9,54.9L104.4,53.2L104.7,51.5L105.3,50.3L105.4,48.9L105.7,48.5Z M73.2,46.7L73.7,47.1L73.7,48.0L73.1,49.1L72.4,51.0L71.0,52.1L70.8,52.5L70.8,53.6L70.2,54.8L69.9,55.5L69.0,56.8L68.4,58.0L67.9,58.5L67.4,58.7L66.4,58.5L66.2,58.3L66.2,57.7L66.4,57.4L66.4,56.6L66.8,55.6L67.2,53.2L68.5,52.3L68.8,51.9L69.4,49.9L69.6,49.0L70.1,48.5L71.2,48.0L71.6,47.1L72.0,46.7L72.4,46.6Z M65.2,46.6L65.7,47.2L65.7,48.5L65.1,49.3L64.2,51.0L63.3,52.1L62.1,52.9L59.1,55.9L58.0,56.6L57.7,56.8L57.1,58.2L56.7,58.6L56.2,58.8L53.5,58.8L53.4,58.6L53.4,58.4L53.7,57.9L56.0,55.6L56.4,54.9L57.7,53.9L58.4,53.4L58.6,53.4L59.4,53.0L59.7,52.7L60.8,50.4L61.8,49.2L62.1,48.5L62.5,47.1L63.3,46.6L63.9,46.4Z M48.1,45.6L48.2,46.2L47.7,47.2L45.2,49.3L44.4,51.0L43.0,52.4L42.1,52.9L41.0,54.1L39.7,55.0L39.3,55.7L39.1,56.4L38.6,57.0L37.4,57.7L36.9,58.3L36.0,58.7L33.4,58.7L32.9,58.4L32.9,58.2L34.2,56.8L35.2,56.1L36.9,55.1L37.7,54.5L38.5,53.6L40.4,52.4L43.3,49.3L43.8,47.6L44.7,46.7L47.2,45.1L47.7,45.2Z M75.7,39.1L76.3,39.7L76.5,40.8L75.5,43.3L75.5,44.1L75.0,44.6L74.8,44.7L73.9,44.6L73.6,44.4L73.4,44.0L73.4,41.8L73.6,41.1L74.2,39.9L74.6,39.4L75.4,39.1Z M107.8,35.8L108.6,36.3L108.8,37.6L108.7,40.0L108.3,41.7L108.3,44.2L108.5,44.8L108.5,45.6L108.3,46.3L107.7,46.8L106.6,47.2L106.2,47.2L105.9,46.7L106.0,44.9L106.3,41.7L106.7,40.1L106.8,37.0L107.0,36.1L107.3,35.8Z M96.6,35.3L97.0,35.5L97.2,36.3L97.0,37.3L96.3,38.9L96.0,42.3L95.7,44.2L95.4,45.1L94.8,46.4L94.8,47.1L95.0,47.8L94.9,49.8L94.5,51.2L93.9,51.8L93.0,51.8L92.1,51.1L92.1,50.7L92.7,49.3L92.9,47.6L93.4,46.3L93.6,44.5L94.7,40.6L94.9,38.1L95.8,35.7L96.2,35.3Z M92.3,34.3L92.4,34.5L92.4,34.7L92.1,35.5L92.0,37.2L91.6,38.2L91.0,39.3L90.5,39.9L89.5,40.5L89.0,41.1L89.2,41.6L89.8,42.4L90.0,42.8L89.8,44.4L89.0,45.7L88.4,46.9L88.2,48.9L87.5,49.7L87.1,50.4L86.9,51.8L86.7,52.3L86.7,53.6L86.2,54.4L86.0,54.9L85.4,55.7L85.0,57.8L84.5,58.5L82.5,58.6L82.1,58.3L82.0,57.6L82.1,57.1L82.5,56.5L83.2,54.8L83.2,53.2L83.4,52.7L84.7,51.3L85.0,50.6L85.5,48.5L86.3,46.4L86.9,43.7L88.2,41.1L88.6,39.2L89.6,37.9L91.0,34.6L91.4,34.3Z M56.3,34.1L56.8,34.5L57.0,35.0L57.0,35.5L56.4,36.5L55.3,37.6L54.9,38.5L54.7,39.4L54.4,39.7L53.8,39.8L53.4,40.2L52.2,41.2L51.4,42.8L50.8,43.4L49.9,43.8L48.9,43.7L48.2,42.9L48.3,42.0L49.0,41.2L50.4,40.0L50.9,39.2L51.3,38.1L52.8,36.6L53.9,34.6L54.7,33.7L55.6,33.7Z M101.8,33.6L102.2,34.1L102.2,34.9L102.6,36.8L102.6,37.5L102.0,38.3L101.8,38.9L102.0,40.5L102.0,42.8L101.5,44.5L101.7,46.0L101.6,47.6L101.2,48.9L100.9,49.1L100.1,49.3L99.6,48.9L99.4,48.3L99.7,47.1L100.1,46.5L100.5,45.0L100.9,44.5L100.8,43.8L100.1,43.3L100.0,42.9L100.1,41.9L100.6,39.9L100.5,34.0L101.0,33.6Z M49.7,34.1L49.9,34.6L49.5,35.2L49.0,35.8L48.2,36.1L47.0,37.3L46.2,38.5L45.8,40.0L42.2,43.8L40.9,44.6L38.5,44.5L37.8,45.0L37.8,45.5L38.2,46.3L38.2,47.0L38.0,47.2L36.0,48.5L33.8,50.7L32.6,51.4L31.3,52.9L29.5,54.2L29.0,54.8L28.5,55.9L27.9,56.6L26.8,57.3L26.5,57.8L25.6,58.5L23.4,58.6L23.2,58.4L23.2,58.0L26.2,54.3L27.1,53.9L28.4,53.8L29.2,53.5L29.5,52.8L29.6,51.7L30.5,50.5L32.2,48.9L33.0,48.4L34.6,47.7L35.2,47.1L35.9,45.8L37.2,44.6L38.2,43.5L38.7,43.2L39.3,42.6L39.8,41.8L41.0,40.3L42.8,38.6L43.5,38.3L44.2,37.7L45.1,36.5L45.6,35.1L46.5,34.2L47.4,33.6L48.0,33.3L48.7,33.3L49.1,33.5Z M42.2,32.8L42.6,33.3L42.7,33.9L42.6,34.4L42.0,35.1L40.0,36.3L38.8,37.7L38.3,38.3L36.8,39.4L34.2,42.2L33.3,42.8L32.5,43.0L31.8,43.7L31.2,44.7L30.4,45.4L29.5,45.7L27.9,45.7L27.1,46.7L27.0,47.4L26.9,47.7L24.3,49.7L23.6,50.0L23.2,50.4L22.6,51.5L22.2,52.6L21.5,53.2L20.1,54.1L18.9,55.2L18.6,55.9L18.1,56.4L17.4,57.5L16.5,58.4L16.2,58.6L13.4,58.6L13.1,58.3L13.2,57.8L13.7,57.1L14.6,56.6L15.2,56.4L15.7,55.9L16.7,53.9L19.1,51.6L21.2,50.4L21.5,50.1L22.7,48.1L23.4,47.6L23.8,47.4L25.4,46.0L26.8,45.4L28.1,44.0L30.1,42.6L30.7,42.0L31.5,40.9L34.6,38.0L34.8,37.6L36.0,36.3L37.2,35.5L39.7,33.0L40.2,32.9L41.0,32.3L41.6,32.2Z M65.5,30.3L65.9,30.8L66.0,31.6L65.9,32.7L65.7,33.0L65.1,33.7L63.8,33.9L63.0,34.5L63.0,34.8L63.4,35.5L63.4,36.3L62.8,38.1L62.7,39.4L62.5,39.9L60.9,41.5L60.5,42.0L60.2,42.8L59.1,44.5L58.8,45.6L58.5,46.2L57.0,48.0L56.3,48.4L55.8,48.6L55.2,49.1L54.8,49.9L54.1,50.7L53.0,51.3L52.0,51.3L51.5,51.1L51.2,50.6L51.7,49.8L52.9,48.8L53.4,48.0L54.0,46.7L55.2,45.2L56.0,44.0L56.3,43.7L56.8,42.7L57.7,41.3L58.0,40.6L58.8,39.4L59.5,37.8L60.4,36.7L60.5,36.3L60.9,35.5L61.4,35.0L62.3,34.7L62.5,34.5L62.6,33.4L62.5,33.1L62.5,32.5L62.9,31.6L64.2,30.3L64.6,30.2L65.2,30.2Z M80.5,28.8L80.9,29.1L81.3,29.9L81.2,30.7L80.7,32.0L80.2,32.9L79.4,34.0L78.3,36.4L78.0,36.7L77.6,37.6L76.9,38.2L76.3,38.2L75.9,38.0L75.4,37.4L75.4,36.4L75.9,35.1L76.4,34.3L76.8,34.0L77.7,33.6L78.0,33.3L78.1,31.4L79.5,29.4L80.0,28.9Z M100.8,29.0L101.4,28.7L101.7,28.7L102.3,29.1L102.6,29.7L102.9,31.2L102.9,31.9L102.7,32.2L102.2,32.1L101.7,31.7L100.8,31.7L100.4,31.4L100.2,30.9L100.2,30.0Z M53.7,27.7L54.2,28.1L54.2,28.7L53.9,29.5L53.3,30.7L52.0,31.6L51.2,31.7L50.8,31.6L50.4,30.9L50.4,30.4L50.8,29.6L52.2,27.9L53.1,27.6Z M68.9,25.4L69.4,26.1L69.4,27.3L68.9,28.4L68.2,29.1L67.4,29.6L66.4,29.7L66.1,29.5L65.7,29.1L65.6,28.4L66.4,26.1L67.2,25.5L67.8,25.2L68.5,25.2Z M55.4,23.6L56.0,23.5L56.8,23.8L57.5,24.5L57.5,25.0L56.8,25.8L56.0,25.8L55.4,25.3L55.1,24.7L55.1,24.1Z M44.5,22.9L44.7,23.4L44.6,23.8L44.0,24.2L43.0,24.4L42.6,24.7L42.6,25.7L42.0,26.4L40.4,27.7L40.0,28.6L39.4,29.2L37.4,30.6L36.8,31.2L36.0,32.4L34.8,33.5L34.1,33.6L33.5,33.5L32.9,33.1L32.6,32.5L32.6,31.9L32.9,31.0L34.1,30.2L34.7,29.6L35.3,28.7L36.8,27.3L37.0,26.9L38.1,25.7L39.0,25.2L40.1,25.1L40.8,24.8L41.1,24.5L41.6,23.6L42.2,23.0L42.7,22.7L43.7,22.5L44.1,22.6Z M52.7,21.2L53.3,21.7L53.4,22.5L51.7,23.6L51.2,24.1L50.8,25.3L48.9,27.6L47.9,29.1L46.6,30.3L45.5,31.1L44.6,31.4L44.2,31.4L43.9,31.2L43.4,30.7L43.1,30.2L43.1,29.5L43.3,29.1L44.8,27.8L46.1,26.9L46.7,26.7L47.2,26.2L47.4,24.7L47.8,24.1L48.7,23.8L49.2,23.8L49.9,23.6L50.2,23.3L50.5,22.5L51.5,21.2Z M83.7,20.6L84.2,21.2L84.2,22.0L83.9,22.9L83.7,24.7L83.0,26.0L82.5,26.5L81.7,26.8L81.3,26.7L80.8,26.2L80.9,25.1L81.3,24.4L81.6,23.4L82.8,21.0L83.2,20.6Z M41.1,19.5L41.1,19.8L40.7,20.3L39.6,20.8L38.7,21.6L38.5,22.1L37.7,22.9L37.4,23.1L36.1,23.1L35.5,22.5L35.3,22.1L35.2,21.0L35.3,20.6L35.8,20.0L36.7,19.5L39.4,19.5L40.1,19.0L40.6,19.0Z M49.1,17.4L49.7,18.1L49.8,18.7L47.8,20.9L47.4,21.2L46.6,21.1L45.9,20.3L45.9,19.8L46.1,19.5L48.1,17.4Z M74.9,16.8L75.2,17.1L75.2,17.9L74.5,19.9L74.1,20.3L73.9,20.7L73.3,21.4L72.1,22.5L71.5,23.5L70.8,24.2L70.4,24.3L69.8,24.2L69.4,23.8L69.4,23.5L70.6,22.1L70.9,20.8L71.8,19.8L73.3,17.6L74.2,16.9Z M80.5,16.7L80.8,17.0L81.0,17.4L81.0,18.2L80.5,19.5L79.8,20.3L78.3,20.8L77.7,21.5L77.8,22.5L78.0,22.9L78.0,24.4L77.7,25.1L76.5,26.5L75.8,28.3L74.5,29.6L73.8,31.3L73.3,32.0L72.4,34.2L72.0,34.9L71.5,35.4L71.1,35.5L70.3,35.6L69.9,35.9L69.8,36.7L70.2,37.6L70.2,38.9L68.4,43.2L67.9,43.9L67.2,44.5L65.1,45.0L64.5,45.0L64.2,44.5L64.2,43.7L65.3,42.3L65.6,41.6L65.9,40.7L66.2,40.2L66.4,39.8L66.8,39.2L67.7,37.5L68.5,36.7L68.9,36.0L69.0,33.8L69.4,33.4L69.6,32.8L71.3,30.6L71.7,29.9L71.9,29.1L72.2,28.6L73.1,27.8L73.7,26.4L74.6,25.3L75.4,23.4L75.9,22.5L76.8,21.6L77.2,20.8L77.3,20.1L78.4,18.7L78.5,18.3L78.9,17.6L79.7,16.9Z M68.2,16.4L68.8,16.9L69.0,17.5L68.8,19.0L68.2,20.1L66.0,22.3L65.5,23.1L63.6,25.1L62.5,26.4L61.2,27.8L60.3,29.7L59.7,30.5L59.6,30.8L59.2,31.4L58.2,32.4L57.3,32.4L57.0,32.1L57.0,31.3L57.5,29.8L58.1,28.6L59.7,26.8L60.1,25.5L61.0,24.6L62.1,24.0L62.9,23.1L63.6,21.9L64.8,20.4L64.9,20.1L65.7,18.9L65.9,18.2L66.2,17.7L67.5,16.4Z M84.3,15.8L84.8,15.8L85.4,16.5L85.5,17.5L85.2,18.0L84.7,18.1L84.2,17.6L84.0,17.1L83.9,16.1Z M59.8,13.7L60.3,14.4L60.0,15.2L59.0,16.1L58.5,17.1L57.1,18.9L56.4,19.5L55.9,19.6L55.4,19.9L54.8,20.1L54.2,20.0L53.8,19.6L53.6,19.2L53.6,18.6L53.9,18.1L54.6,17.4L56.6,16.2L57.3,15.6L57.6,15.0L57.8,14.2L58.3,13.7L58.7,13.5L59.5,13.5Z M77.3,12.5L77.6,12.6L78.1,13.2L78.1,13.6L78.0,13.9L76.8,14.8L76.5,15.0L76.0,14.9L75.7,14.5L75.8,13.4L76.3,12.7L76.9,12.5Z" fill="#000" fill-rule="evenodd"/>
</svg>