<svg xmlns="http://www.w3.org/2000/svg" viewBox="0 0 128 128" width="128" height="128">
  <path d="M64.9,9.3L63.2,9.1L56.0,9.2L55.7,9.3L55.3,9.9L55.2,12.0L55.2,31.1L55.1,32.6L55.1,34.8L55.2,35.5L55.2,50.4L55.0,51.2L54.7,51.2L54.3,51.0L51.5,48.4L49.2,45.9L45.6,42.4L45.2,41.8L40.7,37.4L27.9,24.1L26.2,22.4L25.4,22.4L24.7,22.8L19.2,28.4L18.4,29.4L18.4,30.3L23.3,35.0L24.0,35.9L24.7,36.6L24.9,36.9L32.4,44.5L37.4,49.8L45.0,57.6L46.3,59.1L46.3,59.4L46.0,59.6L45.4,59.8L36.8,59.9L32.2,59.7L14.7,59.7L12.7,60.0L12.1,60.7L11.9,65.3L12.1,67.5L12.0,90.3L12.2,91.0L12.8,91.5L14.9,91.5L15.9,91.7L18.6,91.7L20.1,91.5L21.9,91.6L22.5,91.4L22.8,91.2L22.9,90.1L22.9,83.1L23.0,79.5L22.9,73.6L23.0,71.5L23.5,71.0L24.7,70.8L26.5,70.9L30.8,70.7L33.0,70.9L44.3,70.9L46.0,71.0L46.6,71.4L46.6,71.6L44.4,74.2L35.1,83.7L33.1,85.5L30.2,88.8L22.9,96.1L22.5,96.9L22.7,97.6L23.2,97.9L25.4,100.1L26.2,101.1L31.3,106.0L34.4,109.5L43.9,119.0L44.7,119.0L46.8,117.1L48.3,115.5L49.7,114.3L50.1,113.7L51.3,112.6L51.5,112.2L51.5,111.7L51.0,110.9L50.0,110.0L49.0,108.7L43.8,103.5L43.5,103.0L42.0,101.6L41.6,101.1L38.3,97.6L38.0,97.2L38.0,96.5L40.2,94.0L48.0,86.1L54.4,79.7L55.1,79.6L55.3,79.9L55.3,95.0L55.2,96.2L55.3,107.4L55.6,108.0L55.4,109.4L55.4,113.6L55.6,114.6L56.1,115.0L57.4,115.2L85.5,115.2L86.2,114.9L86.6,114.5L86.7,111.2L86.7,105.4L86.4,104.7L86.1,104.6L67.3,104.4L66.7,103.9L66.4,102.6L66.4,80.6L66.7,80.4L67.1,80.4L67.4,80.5L75.0,88.1L80.2,93.6L95.0,108.6L95.3,108.7L96.0,108.7L98.3,106.5L98.6,106.3L101.2,103.6L101.8,103.1L103.0,101.6L103.0,101.2L102.3,100.1L97.6,95.4L96.9,94.5L94.8,92.6L94.0,91.6L91.4,89.2L91.3,88.8L89.5,87.1L87.2,84.6L84.7,82.2L82.5,79.8L79.5,76.8L77.8,75.1L77.0,74.4L76.8,74.1L74.6,71.8L74.5,71.3L74.7,71.1L75.5,70.9L114.9,70.9L115.8,70.6L116.1,70.3L116.2,69.8L116.3,61.3L116.2,60.7L115.9,60.2L115.3,60.0L88.3,60.0L82.3,59.8L74.8,59.8L74.4,59.6L74.3,59.2L74.7,58.8L74.9,58.4L84.4,48.7L84.5,48.4L86.8,46.1L87.4,45.7L87.5,45.4L90.1,42.8L92.2,40.5L95.5,37.1L95.9,36.9L97.0,35.6L101.2,31.4L101.3,31.2L102.7,29.6L102.7,29.0L102.5,28.6L101.5,27.6L101.2,27.2L96.4,22.4L95.9,22.0L95.3,22.0L94.5,22.7L91.9,25.5L90.7,26.5L89.8,27.7L73.8,44.1L73.3,44.7L68.9,49.2L68.0,50.3L66.8,51.2L66.3,51.2L66.2,50.5L66.2,49.3L66.1,46.3L66.2,19.5L66.0,15.8L66.0,11.5L65.8,10.1L65.3,9.5Z" fill="#000" fill-rule="evenodd"/>
</svg>