<svg xmlns="http://www.w3.org/2000/svg" viewBox="0 0 128 128" width="128" height="128">
  <path d="M59.8,95.0L59.2,95.5L59.1,95.8L59.0,98.4L59.0,119.7L59.4,120.2L64.0,120.2L64.3,119.9L64.5,119.2L64.4,117.5L64.6,95.8L64.5,95.5L63.9,95.1L61.7,95.2Z M71.2,93.6L70.1,94.0L67.6,94.6L67.2,95.1L67.2,95.9L67.9,98.0L68.9,102.3L69.1,102.9L70.1,106.9L70.4,108.4L70.8,109.5L73.0,118.1L73.5,119.0L74.4,119.0L77.8,118.0L78.2,117.7L78.3,116.8L77.9,115.1L76.5,110.3L76.5,109.9L76.3,109.6L76.1,108.2L75.6,106.7L75.4,105.3L74.9,104.1L74.7,102.6L74.5,102.3L74.0,100.1L73.7,99.4L72.6,94.7L72.1,93.7Z M52.2,93.5L51.5,93.5L51.0,94.5L50.7,95.8L50.2,97.3L49.8,99.4L49.5,100.0L48.8,103.0L48.0,105.7L47.9,106.5L47.6,107.2L47.5,108.0L47.0,109.4L46.1,113.2L45.5,114.9L45.2,116.8L45.0,117.0L45.0,117.5L45.7,118.0L49.1,119.0L49.8,118.9L50.2,118.7L50.9,116.5L51.5,113.9L51.7,113.4L52.0,112.0L52.2,111.5L52.6,109.8L53.5,106.8L53.6,105.8L55.0,100.9L56.5,95.3L56.3,94.9L55.8,94.5L52.8,93.6L52.5,93.6Z M84.9,84.4L81.7,87.7L81.7,88.2L82.0,88.7L83.1,89.8L83.2,90.2L84.6,91.4L85.1,92.0L86.8,93.6L87.0,94.0L88.8,95.6L91.0,98.1L98.2,105.5L99.0,105.5L102.0,102.6L102.1,102.3L102.0,101.4L97.3,96.5L97.1,96.1L96.1,95.2L95.2,94.2L90.4,89.3L89.9,88.7L85.9,84.5L85.6,84.3Z M38.8,84.3L38.2,84.2L37.6,84.7L37.0,85.3L37.1,86.3L36.8,86.5L35.8,86.6L35.0,87.4L34.7,87.6L33.3,89.1L21.3,101.3L21.1,101.7L21.2,102.2L24.0,105.2L24.4,105.3L24.8,105.3L25.3,105.0L28.5,101.8L28.9,101.3L33.4,96.8L33.9,96.1L39.1,90.9L39.8,90.4L40.2,89.8L41.9,88.1L41.9,87.7L41.6,87.2Z M32.2,111.0L32.2,111.4L32.8,112.0L34.7,113.3L35.0,113.4L35.7,113.9L36.4,113.9L36.6,113.7L37.6,111.9L38.1,111.5L39.5,108.7L40.2,107.7L40.9,106.3L41.2,106.0L42.5,103.4L44.8,99.6L45.0,98.9L46.7,96.3L47.7,94.3L48.5,93.1L48.6,92.7L50.4,90.0L53.2,87.3L54.3,86.6L55.6,85.9L58.4,84.9L60.9,84.6L62.8,84.6L65.0,84.8L66.1,85.3L67.0,85.4L67.3,85.7L68.2,86.0L69.7,86.8L70.9,87.7L71.6,88.4L72.0,88.6L73.0,89.7L73.9,90.9L75.0,92.9L76.1,94.5L77.3,96.9L77.5,97.1L78.3,98.8L78.7,99.2L79.7,101.3L80.0,101.5L80.8,103.2L81.3,103.8L82.4,106.1L83.3,107.4L84.5,109.8L84.7,110.0L85.1,111.0L86.8,113.6L87.2,113.9L88.0,113.8L90.4,112.2L90.9,111.9L91.4,111.3L91.3,110.5L90.9,109.9L90.7,109.6L90.4,109.0L89.2,107.0L86.3,101.6L85.5,100.5L85.3,99.8L85.1,99.6L84.1,97.8L83.5,96.8L83.0,95.6L82.3,94.6L82.2,94.1L81.8,93.7L81.7,93.2L80.9,92.1L79.6,89.5L78.8,88.5L78.7,88.1L78.1,87.5L77.2,86.2L74.2,83.3L71.2,81.3L70.2,80.8L67.9,80.0L67.5,79.8L65.0,79.2L63.2,79.0L60.8,79.0L57.9,79.4L54.2,80.6L52.1,81.6L50.0,83.0L47.5,85.3L46.2,86.8L44.3,89.6L42.2,93.4L41.0,95.4L40.8,95.9L40.0,97.1L39.7,97.8L38.6,99.6L37.7,101.3L36.7,102.8L34.9,106.2L34.2,107.1L33.9,108.0L33.2,108.9Z M91.8,70.0L91.4,71.7L90.7,74.2L90.7,74.6L91.1,75.0L93.3,75.5L94.4,75.9L95.1,76.0L99.5,77.3L100.9,77.6L101.6,77.9L102.5,78.0L104.6,78.7L105.7,78.9L106.6,79.3L109.9,80.1L112.0,80.8L113.6,80.9L114.0,80.8L114.3,80.1L115.0,77.3L115.0,76.1L114.7,75.8L111.7,74.8L111.0,74.7L110.0,74.3L109.6,74.3L108.0,73.7L107.2,73.7L106.4,73.3L105.4,73.2L103.3,72.4L100.3,71.7L99.6,71.4L99.0,71.3L97.7,70.8L96.7,70.7L96.2,70.4L92.9,69.5L92.2,69.5Z M13.3,89.7L13.3,90.3L13.6,91.1L15.0,93.7L15.7,94.1L16.2,94.0L20.5,91.6L21.8,90.6L23.3,89.9L23.6,89.6L26.3,88.0L27.0,87.7L28.1,86.9L29.0,86.5L32.1,84.6L33.4,83.9L33.9,83.5L35.2,82.9L36.3,82.1L37.5,81.6L38.4,80.9L40.6,79.8L41.0,79.7L41.5,79.4L42.4,79.1L42.7,78.9L44.4,78.3L44.9,78.0L45.5,77.9L47.3,77.3L47.7,77.1L48.4,77.0L51.2,76.1L51.7,76.1L52.9,75.8L54.1,75.7L55.0,75.5L59.5,75.1L63.3,75.1L66.3,75.2L69.2,75.7L70.1,75.7L72.0,76.2L73.0,76.3L79.2,78.2L81.5,79.3L81.7,79.3L84.7,80.8L87.4,82.6L87.7,82.7L90.4,84.3L91.8,85.2L92.3,85.3L94.8,87.0L95.9,87.5L98.1,88.9L99.6,89.7L101.0,90.6L103.9,92.2L106.4,93.8L107.3,94.2L107.8,94.2L108.3,93.9L109.7,91.6L110.3,90.2L110.3,89.9L110.0,89.5L108.9,88.7L108.4,88.5L107.9,88.1L106.6,87.4L106.1,87.0L102.8,85.1L102.5,84.8L101.8,84.5L100.7,83.8L100.4,83.7L99.6,83.0L98.6,82.6L98.0,82.1L95.2,80.5L94.8,80.4L93.3,79.4L93.0,79.3L90.0,77.4L89.7,77.1L85.9,75.1L84.5,74.6L84.1,74.2L83.6,74.2L83.0,73.7L82.3,73.6L82.2,73.4L80.8,73.0L80.4,72.7L79.9,72.7L79.1,72.2L75.6,71.2L74.6,71.0L74.4,70.8L68.0,69.7L62.1,69.3L57.4,69.5L54.1,69.9L53.3,70.2L50.1,70.7L46.8,71.5L46.4,71.7L45.1,72.0L40.4,73.8L36.4,75.7L35.2,76.5L34.0,77.1L32.7,78.0L31.8,78.4L30.7,79.1L29.8,79.5L28.4,80.5L26.8,81.3L26.0,81.9L24.0,82.9L22.2,84.2L21.1,84.7L18.7,86.3L17.0,87.1L16.7,87.4L13.8,89.1Z M31.5,61.5L31.5,65.6L31.7,66.2L32.3,66.5L69.6,66.5L70.8,66.7L105.0,66.6L109.2,66.8L110.5,66.6L115.9,66.6L116.2,66.3L116.2,61.8L116.0,61.5L115.3,61.2L100.9,61.2L94.8,61.1L72.3,61.1L71.5,61.0L32.2,61.0L31.8,61.1Z M114.2,48.0L114.1,47.6L113.5,47.2L112.5,47.3L91.3,53.0L90.8,53.4L90.7,53.8L91.2,55.3L91.8,57.9L92.1,58.3L92.9,58.3L94.4,58.0L96.7,57.2L97.9,57.0L98.4,56.7L100.6,56.3L101.7,55.8L102.5,55.8L104.1,55.2L104.4,55.2L104.9,54.9L105.7,54.8L106.6,54.5L107.9,54.3L108.4,54.0L108.8,54.0L110.5,53.4L111.6,53.3L112.3,52.9L114.5,52.4L115.0,51.9L115.0,50.9Z M13.6,37.6L13.7,38.0L14.4,38.6L18.6,41.1L18.9,41.4L20.5,42.2L22.6,43.7L23.7,44.1L24.8,44.9L25.7,45.3L26.6,46.0L28.1,46.7L33.8,50.3L39.2,53.1L41.9,54.3L44.1,55.0L44.7,55.3L45.4,55.4L49.6,56.7L55.4,57.8L59.9,58.2L66.2,58.1L68.7,57.7L70.9,57.5L74.0,56.8L74.6,56.6L75.1,56.6L77.9,55.8L78.3,55.8L78.7,55.5L82.2,54.3L85.2,53.0L89.1,51.0L89.9,50.4L90.9,50.0L92.5,49.0L94.0,48.2L96.7,46.6L97.0,46.5L99.0,45.1L100.9,44.1L104.0,42.2L106.2,41.1L107.3,40.3L109.8,38.8L110.2,38.3L110.2,37.9L109.8,37.1L109.4,36.6L109.1,35.7L108.5,34.7L108.0,34.1L107.4,34.0L103.0,36.5L101.2,37.7L98.8,38.9L96.9,40.2L96.6,40.3L94.1,41.8L93.6,42.0L92.1,43.0L90.6,43.7L86.7,46.1L84.0,47.5L80.3,49.2L75.7,50.8L70.1,52.0L69.2,52.0L68.0,52.2L67.6,52.4L65.7,52.5L62.1,52.6L57.4,52.4L53.2,51.8L48.2,50.5L46.4,49.9L45.6,49.7L43.5,48.8L43.3,48.8L39.3,46.9L35.7,44.7L35.0,44.4L33.4,43.3L30.3,41.6L29.8,41.2L27.2,39.8L24.0,37.7L20.9,35.9L19.1,34.7L18.4,34.5L16.8,33.5L16.0,33.5L15.7,33.8L14.2,36.2Z M109.6,32.0L109.7,32.4L110.2,32.4L110.2,32.0L110.1,31.8L109.8,31.8Z M99.3,23.2L98.5,23.1L98.0,23.4L82.2,39.5L81.9,40.0L81.9,40.3L84.7,43.3L85.5,43.5L92.1,37.0L92.3,36.7L94.9,34.1L96.1,32.8L101.9,26.9L102.0,26.4L101.5,25.6L100.6,24.4Z M24.8,22.5L22.0,25.5L22.0,26.4L37.6,42.7L38.3,43.2L38.7,43.3L39.1,43.2L42.1,40.2L42.3,39.8L42.3,39.4L42.1,39.1L26.0,22.6L25.6,22.3L25.3,22.3Z M32.8,16.5L32.8,17.0L33.7,19.0L33.9,19.1L37.2,25.3L38.1,26.5L39.1,28.6L39.4,28.8L39.9,30.0L40.1,30.2L40.9,31.7L41.2,32.0L41.7,33.2L42.2,33.9L43.7,36.9L45.4,39.5L46.8,41.6L48.7,43.5L50.6,45.0L52.8,46.4L55.8,47.7L57.9,48.3L60.4,48.6L63.5,48.6L64.2,48.5L65.2,48.5L67.6,48.0L68.2,47.6L68.8,47.5L71.2,46.5L73.1,45.3L74.7,44.1L76.7,42.3L78.8,39.7L79.9,37.9L80.0,37.6L81.1,35.9L81.7,34.7L82.2,34.1L82.8,32.6L84.1,30.6L84.1,30.3L86.5,26.2L87.2,25.1L87.4,24.6L87.8,24.1L88.4,22.8L89.4,21.2L89.7,20.5L91.4,17.6L91.4,17.1L91.2,16.8L90.6,16.3L88.2,14.8L87.7,14.6L87.1,14.7L86.8,15.1L86.1,16.4L85.1,17.9L85.0,18.4L84.1,19.9L83.7,20.4L83.2,21.4L82.2,22.8L82.1,23.4L81.3,24.6L81.1,25.3L80.5,26.0L79.4,27.9L79.2,28.6L78.3,30.0L78.2,30.3L77.8,30.8L77.2,32.0L76.3,33.2L75.6,34.8L75.2,35.3L74.4,36.9L73.3,38.3L71.0,40.3L68.2,42.0L66.1,42.7L63.3,43.2L61.2,43.2L57.6,42.5L55.0,41.3L52.5,39.5L50.5,37.4L49.6,36.1L48.5,33.9L45.8,29.3L45.2,27.9L43.9,25.8L42.6,23.3L42.3,22.9L41.7,21.7L41.3,21.2L40.7,19.9L40.0,19.0L38.4,15.8L38.1,15.6L37.6,14.5L37.1,14.1L36.3,14.2L33.5,15.9Z M75.0,9.4L73.8,9.5L73.4,10.4L72.9,12.8L72.4,14.1L72.1,15.6L71.8,16.4L71.2,19.0L70.7,20.4L70.2,22.6L70.1,22.8L69.8,24.3L69.2,26.1L67.6,32.5L67.6,32.9L68.1,33.3L70.2,33.8L72.0,34.4L72.3,34.4L72.6,34.1L73.0,32.9L73.1,32.2L73.6,30.8L74.1,28.5L74.4,27.7L75.3,24.3L75.4,24.0L75.9,21.7L76.2,21.2L77.3,16.2L77.9,14.6L78.7,11.4L78.7,10.9L78.1,10.4Z M49.7,9.2L46.4,10.1L45.8,10.6L45.8,11.2L46.3,13.1L46.7,14.8L47.0,15.6L47.1,16.5L47.7,18.3L47.8,19.0L48.1,19.9L48.4,21.5L48.7,22.0L49.0,23.8L49.3,24.6L49.7,26.3L49.8,26.6L50.0,27.7L51.4,33.0L51.7,34.0L52.0,34.1L52.7,34.1L54.6,33.6L55.0,33.4L56.3,33.1L56.6,32.9L56.7,32.3L53.9,21.0L53.6,20.2L53.0,17.5L52.6,16.3L52.5,15.6L52.3,15.3L52.1,14.3L51.6,12.6L51.0,10.1L50.7,9.5L50.5,9.3Z M60.1,7.7L60.1,7.8L59.6,8.5L59.5,12.1L59.6,32.3L59.9,32.6L60.1,32.7L64.2,32.6L64.6,32.5L64.7,32.0L64.8,30.7L64.8,8.6L64.3,7.9L64.0,7.8L64.0,7.7Z" fill="#000" fill-rule="evenodd"/>
</svg>