<svg xmlns="http://www.w3.org/2000/svg" viewBox="0 0 128 128" width="128" height="128">
  <path d="M44.5,117.9L44.3,117.7L43.8,117.7L43.2,118.2L41.9,120.2L44.4,120.2L44.6,118.9Z M87.3,116.4L87.2,116.9L87.4,117.3L87.4,118.0L88.2,120.2L90.9,120.2L90.9,120.0L90.3,119.2L89.6,117.8L88.3,116.3Z M31.1,111.4L30.9,111.1L30.0,111.1L28.6,112.2L21.1,120.2L26.9,120.2L28.1,117.7L29.0,116.4L29.0,116.0L30.4,113.5L30.9,112.4Z M100.6,109.4L100.6,110.0L101.4,111.4L102.1,113.0L103.7,115.4L104.1,116.4L105.3,117.9L106.4,120.2L113.5,120.2L112.3,119.2L103.2,110.5L101.4,109.2L100.8,109.2Z M19.6,100.4L18.8,100.5L17.2,101.4L15.6,102.1L14.3,103.2L11.9,104.5L11.0,105.3L10.2,105.6L8.4,106.9L7.7,107.2L7.7,114.8L8.0,114.7L9.8,112.8L10.3,112.1L13.9,108.4L18.8,102.9L19.9,101.4L20.0,100.7Z M111.5,98.4L111.2,98.7L111.4,99.4L112.1,100.2L116.6,104.7L117.9,105.7L118.8,106.8L120.2,108.1L120.1,102.4L115.5,100.1L114.5,99.3L113.0,98.8L112.7,98.4L112.1,98.3Z M64.6,93.9L64.1,94.5L63.5,96.4L62.6,100.8L62.2,101.7L61.5,105.7L61.0,107.2L61.0,107.9L60.2,110.6L60.1,112.1L59.3,114.0L59.2,115.5L59.0,116.1L59.0,117.7L59.5,118.3L60.7,118.5L68.4,118.5L71.3,118.3L72.5,117.3L72.4,115.5L71.9,114.5L71.5,112.7L70.8,110.8L70.7,109.9L70.3,109.3L70.0,107.6L69.0,104.9L69.0,104.3L68.5,103.2L68.1,101.1L67.7,100.4L67.6,99.4L67.3,99.0L66.0,94.7L65.4,93.9Z M50.5,89.6L49.5,89.7L48.3,90.8L44.6,95.0L43.3,96.2L43.1,96.6L39.0,100.8L37.8,102.4L34.1,106.2L33.0,107.9L33.1,108.6L34.3,109.8L37.2,111.2L40.3,113.1L43.0,114.5L44.0,114.8L44.9,114.8L45.6,114.3L46.4,112.1L46.4,111.5L47.1,108.7L47.3,107.4L47.7,106.0L48.0,104.3L48.5,103.0L48.5,102.4L49.2,99.8L49.5,97.6L50.2,95.3L50.4,94.0L50.8,92.5L51.1,90.4Z M79.7,89.1L79.2,89.6L79.4,91.4L79.8,92.1L80.5,95.3L81.3,97.5L81.6,98.9L82.8,102.3L82.9,103.6L83.8,106.1L84.0,107.0L84.7,108.8L84.8,109.7L85.0,110.0L85.8,112.5L86.6,113.6L87.0,113.7L88.0,113.6L89.0,113.0L89.3,113.0L91.9,111.2L92.7,110.9L94.4,109.7L94.9,109.6L97.2,107.9L98.1,106.9L98.1,106.1L97.6,105.4L93.4,101.2L92.5,100.5L87.1,95.3L85.0,93.2L81.1,89.6L80.5,89.2Z M11.5,88.0L10.0,87.9L7.7,88.5L7.7,91.6L8.9,91.0L10.9,89.3L11.5,89.1Z M117.0,84.4L117.1,85.0L117.6,85.5L120.2,87.1L120.2,84.6L119.0,84.2L117.5,84.2Z M39.2,79.5L38.8,79.3L37.8,79.3L36.9,79.7L35.9,79.8L34.9,80.3L33.4,80.6L32.7,81.0L31.2,81.2L30.6,81.6L29.8,81.7L28.4,82.3L27.3,82.4L26.2,82.9L24.8,83.1L21.9,84.2L19.9,84.7L15.9,86.1L15.2,86.7L15.1,87.4L15.7,88.9L21.0,97.1L21.7,97.8L22.1,98.1L22.9,98.1L24.3,97.1L25.7,95.7L27.2,93.9L31.7,89.1L32.9,87.6L35.1,85.5L38.2,82.2L39.4,80.5Z M68.1,78.7L67.2,80.4L66.5,83.6L65.9,85.4L65.9,86.4L65.4,87.9L65.1,90.8L65.6,91.6L66.6,91.9L68.1,91.4L69.0,91.3L71.2,90.4L72.6,90.2L74.0,89.6L76.4,89.0L77.5,88.4L78.0,87.9L78.0,87.1L77.6,86.5L75.8,84.6L69.4,78.7L69.1,78.6Z M89.5,78.1L89.6,78.9L93.2,82.5L94.4,83.5L99.6,88.6L100.8,89.6L103.0,91.9L106.8,95.3L107.4,95.7L108.5,95.7L109.3,95.0L110.0,93.9L111.5,90.8L113.9,86.8L114.7,84.6L114.7,84.1L114.1,83.3L112.1,82.5L110.4,82.3L108.1,81.6L106.1,81.2L105.3,80.9L104.2,80.7L100.0,79.7L99.4,79.7L95.9,78.6L95.0,78.6L94.6,78.3L93.4,78.2L91.3,77.6L89.8,77.6Z M53.6,75.0L51.3,75.1L47.9,76.3L47.4,76.3L45.5,77.0L44.6,77.2L41.8,78.2L41.3,78.9L41.3,79.8L42.2,81.0L49.2,87.6L50.4,88.3L51.1,88.3L51.7,87.8L52.0,87.2L52.6,84.9L52.8,83.7L53.4,81.8L54.4,76.3L54.3,75.6Z M90.8,63.8L88.8,63.9L87.6,64.4L86.4,64.6L85.8,65.0L84.3,65.2L83.1,65.7L82.4,65.7L81.2,66.3L80.3,66.4L79.5,66.8L78.6,67.7L78.6,68.4L78.8,68.9L86.4,76.1L87.4,76.7L88.5,76.6L88.9,76.2L89.5,74.6L89.6,73.6L89.8,73.1L90.4,69.9L90.9,68.5L91.5,65.6L91.4,64.2Z M10.0,60.1L9.8,61.8L10.1,65.6L10.1,71.3L10.4,72.5L11.4,73.1L12.3,73.1L14.9,72.3L16.2,72.0L19.0,70.9L20.4,70.7L21.0,70.3L21.4,70.3L22.6,69.9L23.8,69.6L26.5,68.7L28.2,68.3L29.0,67.9L30.2,67.7L30.8,67.3L31.7,67.2L33.0,66.6L33.7,66.5L35.1,65.6L35.1,65.0L34.6,64.5L32.9,63.9L31.0,63.6L29.2,63.0L28.5,63.0L26.1,62.3L24.8,62.2L23.6,61.7L22.4,61.6L20.7,61.1L20.0,61.1L19.6,60.9L17.5,60.4L16.8,60.4L15.9,60.1L15.2,60.1L12.9,59.3L11.0,59.1L10.4,59.3Z M117.9,56.2L117.2,55.7L116.3,55.6L114.8,56.0L114.2,56.3L113.6,56.3L111.5,57.2L111.0,57.2L109.9,57.7L108.7,57.8L105.4,59.0L102.5,59.7L99.3,60.9L98.3,61.0L96.5,61.7L94.4,62.2L93.2,62.9L93.1,63.6L93.8,64.4L94.9,64.7L95.9,64.8L97.1,65.3L101.4,66.3L102.0,66.3L103.6,66.9L105.0,67.0L109.4,68.3L114.7,69.3L115.8,69.6L117.5,69.7L118.0,69.4L118.5,68.5L118.2,58.4Z M120.2,54.4L119.6,54.9L119.5,55.5L120.2,56.0Z M39.1,52.3L38.4,54.3L38.3,55.4L37.6,57.7L36.6,62.1L36.4,64.4L36.7,65.0L37.2,65.2L38.9,65.1L42.6,63.8L43.7,63.6L45.8,62.8L47.4,62.4L49.3,61.5L49.4,60.3L48.9,59.6L43.3,54.2L42.7,53.8L41.6,52.6L40.4,51.9L39.5,51.9Z M7.7,42.0L7.7,44.4L9.7,44.6L10.4,44.3L10.3,43.6L10.1,43.3L8.3,42.4L7.9,42.0Z M76.3,41.4L75.7,43.9L75.5,44.3L75.5,44.9L74.6,48.0L74.5,49.2L73.9,50.8L73.8,52.9L74.0,53.4L74.8,53.7L75.8,53.7L76.8,53.4L77.3,53.4L80.5,52.3L83.4,51.6L85.9,50.6L86.7,50.0L86.8,49.4L86.5,48.6L80.1,42.6L78.1,41.0L77.3,40.9Z M120.2,37.0L118.6,37.8L116.1,39.8L115.8,40.0L115.7,40.7L115.8,40.9L116.3,41.2L116.7,41.2L120.1,40.2Z M62.2,36.7L61.5,36.7L60.5,37.2L57.7,37.8L56.5,38.4L55.4,38.5L53.4,39.4L51.2,39.8L50.4,40.3L49.9,41.0L50.0,41.9L52.5,44.5L53.2,45.0L54.7,46.5L58.4,49.9L59.3,50.2L60.1,50.1L60.7,49.3L61.0,48.1L61.1,46.9L61.5,46.2L61.5,45.6L62.3,41.9L62.9,40.3L63.0,37.6Z M13.5,43.9L13.5,44.7L13.8,45.3L14.1,45.7L15.5,46.3L20.2,47.3L21.6,47.7L23.3,48.0L24.5,48.5L26.0,48.6L26.9,48.9L28.6,49.2L31.7,50.0L35.9,50.7L37.0,51.1L37.8,51.0L38.3,50.4L38.3,50.0L37.6,48.9L34.8,46.5L33.0,44.6L32.7,44.5L30.8,42.6L29.9,42.0L26.6,38.7L26.1,38.4L21.7,34.2L20.2,33.4L19.4,33.6L18.8,34.2L18.6,34.9L18.2,35.3L16.8,37.8L16.4,38.8L14.9,41.2Z M106.4,30.5L105.9,30.3L104.8,30.4L102.5,32.6L101.7,33.7L97.6,37.8L94.4,41.5L93.5,42.2L93.4,42.6L92.2,43.7L91.9,44.3L88.3,48.1L88.3,48.8L88.6,49.3L90.2,49.3L91.3,49.1L91.9,48.7L94.7,48.1L96.4,47.4L97.4,47.3L98.3,46.8L99.8,46.5L101.7,45.8L108.6,43.9L111.7,42.8L112.8,42.1L112.9,41.0L112.4,39.8L111.9,39.2L111.5,38.2L110.8,37.3L110.6,36.9L110.2,36.4L109.9,35.7L108.5,33.7L107.4,31.6Z M7.7,21.4L7.7,27.2L8.9,27.5L10.5,28.6L12.5,29.4L14.3,30.5L15.0,30.6L16.3,31.2L17.0,31.1L17.2,30.9L17.1,30.2L13.9,26.8L13.4,26.6L12.0,25.3L10.4,23.6L8.9,22.4L8.2,21.6Z M40.2,15.3L37.9,16.5L30.9,21.2L30.0,22.0L29.9,23.1L30.4,23.9L31.5,25.1L32.1,25.5L42.0,34.9L42.6,35.3L47.1,39.4L47.7,39.7L48.7,39.7L49.1,39.2L48.9,37.8L48.3,35.8L47.7,34.6L47.5,33.0L45.1,25.9L44.7,23.8L44.4,23.2L44.3,22.4L43.6,20.7L43.1,18.6L41.9,15.9L41.4,15.5Z M83.7,13.5L83.0,13.7L82.5,14.0L81.6,16.9L81.6,17.5L80.6,20.8L79.2,28.0L78.7,29.4L78.6,30.6L76.9,37.1L76.9,37.9L77.5,38.5L78.3,38.5L84.2,32.9L84.6,32.3L85.5,31.5L87.1,29.6L89.3,27.4L89.6,26.9L92.2,24.2L92.5,23.7L93.7,22.5L94.9,21.0L95.0,20.0L94.5,19.3L92.6,18.1L91.7,17.8L90.5,17.0L88.2,15.9L86.7,14.9Z M120.2,13.2L120.0,13.7L119.0,14.5L116.4,17.6L114.3,19.6L111.8,22.6L108.4,26.2L107.5,27.5L107.6,28.5L108.7,28.5L110.2,27.8L112.8,26.1L113.3,26.0L114.8,24.8L116.7,23.7L117.8,22.9L118.5,22.6L120.2,21.4Z M55.9,10.3L55.3,11.0L55.4,13.3L56.1,15.5L56.7,16.5L56.7,17.4L58.0,21.3L58.4,23.1L59.1,24.7L59.6,26.8L60.3,28.4L60.5,29.9L61.4,32.6L62.3,34.8L62.7,35.2L63.3,35.3L63.9,34.8L64.2,34.0L65.0,30.9L65.3,30.0L65.6,28.2L66.0,26.9L67.8,17.7L68.3,16.4L68.7,14.0L69.3,12.3L69.3,11.1L68.5,10.1L67.8,9.8L58.4,10.0Z M107.3,7.7L101.1,7.7L99.9,10.1L99.8,10.7L99.2,11.4L98.8,12.5L98.0,13.8L97.5,15.1L96.5,16.8L96.5,17.5L96.9,17.8L97.7,17.8L101.4,14.3L102.7,12.8L102.9,12.5L107.2,8.0Z M83.7,9.8L84.6,10.0L85.2,9.4L86.1,7.9L86.1,7.7L83.6,7.7Z M36.5,7.7L36.5,8.0L39.0,11.7L39.8,12.3L40.3,12.3L40.7,12.0L40.7,11.4L40.4,11.0L40.4,10.4L39.7,8.2L39.7,7.7Z M12.8,7.7L12.8,7.9L16.2,10.9L20.8,15.6L22.9,17.1L24.7,18.9L27.1,20.5L27.9,20.4L28.0,19.6L27.1,17.7L23.0,11.0L20.8,8.0L20.8,7.7Z" fill="#000" fill-rule="evenodd"/>
</svg>