<svg xmlns="http://www.w3.org/2000/svg" viewBox="0 0 128 128" width="128" height="128">
  <path d="M65.0,70.0L64.8,70.9L64.7,75.8L64.8,118.5L64.9,119.0L65.9,119.2L68.4,118.8L70.0,118.4L72.4,117.5L72.9,117.2L74.3,116.5L76.2,115.4L76.7,114.8L76.7,114.1L76.0,111.4L75.7,110.6L75.5,109.2L75.2,108.4L74.6,105.7L73.6,102.1L73.6,101.6L73.2,100.6L73.1,100.0L72.0,96.3L71.9,95.2L71.4,94.0L71.0,92.1L70.7,91.3L70.3,89.2L69.7,87.2L69.6,86.6L69.3,85.8L69.2,84.8L68.7,83.4L68.2,81.3L66.9,76.7L66.7,75.3L66.2,74.0L66.1,73.1L65.9,72.6L65.6,71.3L65.2,70.2Z M63.6,69.9L63.4,69.9L63.2,70.2L63.2,70.6L63.0,71.0L62.1,74.0L61.9,75.3L61.5,76.7L61.3,77.6L60.9,78.6L60.8,79.4L60.2,81.3L58.6,87.8L58.1,89.2L57.5,91.9L57.2,92.7L57.1,93.7L56.7,94.9L56.6,95.6L56.4,96.1L55.7,98.7L55.6,98.9L55.4,100.3L55.1,101.1L54.9,102.1L54.4,103.4L53.9,105.9L53.7,106.4L53.5,107.5L53.0,109.1L51.9,113.8L51.6,114.5L51.6,114.9L51.9,115.3L52.4,115.5L53.3,116.2L53.7,116.3L54.0,116.5L56.0,117.5L57.7,118.1L58.4,118.5L61.8,119.2L63.2,119.2L63.7,118.8L63.8,118.5L63.9,78.8L63.8,70.0Z M66.3,69.5L66.2,70.0L66.5,70.6L66.6,71.9L66.9,72.2L67.0,73.3L67.5,75.0L67.7,75.3L67.7,75.7L68.8,79.7L68.9,80.3L69.0,80.5L69.5,82.4L69.5,82.7L69.9,83.8L71.5,90.4L72.0,92.0L73.1,96.5L73.7,98.4L74.1,100.3L74.6,101.6L74.6,102.4L75.0,103.4L76.4,109.1L76.7,109.8L77.6,113.3L77.8,113.6L78.3,113.6L79.9,112.1L80.7,111.2L81.6,109.8L82.3,108.9L83.2,107.3L84.4,104.3L84.8,102.7L84.8,101.9L83.2,99.0L83.0,98.4L82.7,98.2L82.0,96.6L81.4,95.7L80.7,94.2L80.0,93.4L78.1,89.8L76.2,86.5L74.6,83.4L74.0,82.7L74.0,82.4L72.7,80.4L72.3,79.6L70.6,76.7L70.5,76.3L70.1,75.8L69.9,75.2L68.0,71.9L67.8,71.7L67.5,70.9L67.2,70.6L66.6,69.7Z M62.3,69.4L62.1,69.4L61.8,69.7L60.7,71.4L60.1,72.6L58.7,75.0L57.9,76.6L57.4,77.3L56.3,79.4L55.6,80.4L53.4,84.4L53.1,84.8L52.4,86.2L51.7,87.4L51.0,88.7L50.6,89.3L50.0,90.6L49.7,90.8L48.6,92.9L48.3,93.3L48.0,94.0L45.9,97.6L45.6,98.3L45.0,99.3L43.5,102.2L43.5,102.7L44.3,105.4L44.9,106.8L46.3,109.4L47.5,111.1L48.0,111.5L49.0,112.7L50.2,113.8L50.7,113.8L51.5,111.4L51.8,109.8L52.3,108.5L52.5,107.1L52.7,106.6L53.6,103.0L53.8,102.6L54.2,100.6L54.5,99.9L54.7,98.9L55.1,97.5L57.4,88.2L58.8,83.8L59.4,80.6L60.1,78.4L60.3,77.2L60.5,76.8L61.5,72.8L61.7,72.3L62.0,70.8L62.3,69.9Z M61.0,68.8L60.5,68.9L56.4,72.9L38.4,91.6L38.4,92.5L39.9,94.2L40.6,95.3L42.1,98.1L42.8,100.2L43.1,100.5L43.2,100.5L43.6,100.2L44.3,98.9L44.5,98.5L46.1,95.8L47.3,93.3L47.7,92.9L48.7,90.8L51.3,86.4L51.7,85.6L52.1,85.0L52.6,84.0L54.0,81.6L55.2,79.4L56.2,77.7L56.4,77.1L56.8,76.7L57.4,75.5L57.7,75.1L58.8,72.9L59.3,72.2L59.5,71.6L60.8,69.6Z M67.4,68.6L67.4,68.9L68.4,70.6L69.3,72.5L70.1,73.6L70.7,75.0L71.9,76.8L74.6,82.0L75.1,82.6L77.6,87.1L79.0,89.5L79.6,90.6L80.3,91.6L81.0,93.0L82.2,95.0L82.5,95.8L83.4,97.1L83.9,98.3L84.8,99.7L85.2,100.2L85.4,100.2L85.8,99.8L86.5,97.9L87.8,95.3L88.8,93.8L90.1,92.2L90.1,91.4L78.7,79.8L74.8,75.7L71.9,72.9L71.0,71.9L68.0,68.9Z M60.0,67.6L59.1,67.9L58.8,68.2L58.4,68.3L57.5,68.9L56.4,69.5L56.0,69.9L54.0,70.9L53.0,71.6L52.5,71.8L51.1,72.7L49.3,73.6L46.0,75.7L45.7,75.8L45.3,76.2L44.6,76.5L42.7,77.7L41.5,78.4L40.9,78.8L39.5,79.5L38.7,80.1L37.7,80.6L34.5,82.6L29.5,85.5L29.0,86.0L29.0,86.2L29.3,86.5L31.4,87.2L33.1,88.1L33.3,88.4L33.8,88.5L35.3,89.6L36.8,90.9L37.5,91.0L37.8,90.8L45.9,82.7L46.2,82.2L47.6,80.9L48.6,79.7L50.7,77.7L53.3,74.9L55.4,72.9L56.1,72.0L60.0,67.9Z M68.2,67.4L68.2,67.6L68.5,68.1L71.3,70.9L79.4,79.2L90.7,90.6L91.0,90.8L91.4,90.8L94.4,88.4L95.9,87.6L96.1,87.4L97.0,87.0L97.3,86.8L99.2,86.1L99.4,85.9L99.4,85.6L99.1,85.3L98.8,85.2L98.3,84.8L96.2,83.6L95.3,83.0L95.0,82.9L93.6,82.0L93.3,81.9L90.7,80.3L90.2,80.1L89.6,79.7L88.0,78.8L86.0,77.5L82.9,75.8L69.3,67.7L68.6,67.4Z M59.4,66.2L58.8,66.2L56.9,66.9L55.6,67.1L53.7,67.7L52.8,67.9L52.0,68.2L47.7,69.2L45.1,70.1L44.8,70.1L43.9,70.5L43.0,70.6L42.3,70.9L41.7,70.9L41.5,71.1L38.9,71.7L38.2,72.0L37.2,72.2L35.1,72.9L34.5,72.9L30.1,74.3L22.6,76.3L21.6,76.7L20.6,76.8L19.9,77.1L17.0,77.8L15.9,78.2L15.9,78.8L16.2,79.3L18.2,81.4L20.7,83.1L22.3,84.1L25.2,85.3L26.6,85.7L27.4,85.7L32.3,82.9L35.1,81.1L35.4,81.1L39.3,78.7L40.0,78.4L45.9,74.7L46.4,74.3L49.1,72.9L49.8,72.3L52.1,71.1L57.1,67.9L59.0,66.9L59.4,66.5Z M69.1,66.2L69.1,66.5L69.4,66.8L70.0,67.0L70.6,67.5L72.7,68.6L73.2,69.0L73.8,69.2L76.1,70.7L79.2,72.4L80.0,73.0L81.4,73.7L83.4,75.0L84.5,75.6L85.0,76.0L86.3,76.6L86.5,76.8L88.4,77.8L88.6,78.0L88.9,78.1L91.6,79.8L92.1,80.0L95.8,82.1L96.6,82.7L97.4,83.1L98.4,83.8L101.2,85.3L101.8,85.3L105.3,84.0L107.7,82.6L111.1,79.9L112.4,78.4L112.4,78.2L112.1,77.8L110.6,77.3L107.7,76.7L106.9,76.3L106.2,76.3L106.0,76.1L104.5,75.8L103.5,75.4L101.2,74.9L98.9,74.2L97.9,74.0L94.7,73.0L94.3,73.0L93.5,72.7L92.0,72.4L91.3,72.1L90.4,71.9L90.2,71.8L89.2,71.6L87.9,71.2L85.3,70.6L84.0,70.1L80.2,69.2L76.0,67.9L75.6,67.9L74.2,67.4L73.3,67.2L73.0,67.1L71.8,66.9L70.8,66.5L70.1,66.4L69.6,66.2Z M58.9,64.9L58.3,64.8L48.6,64.7L27.6,64.8L12.1,64.8L11.0,64.9L10.7,65.2L10.6,65.8L10.8,68.1L11.2,69.9L12.2,72.9L13.4,75.3L13.9,76.3L14.2,76.6L14.4,77.0L14.9,77.4L15.5,77.4L17.2,76.9L17.9,76.8L18.6,76.5L19.8,76.3L20.3,76.0L21.6,75.7L22.4,75.4L25.3,74.7L28.4,73.7L29.1,73.6L31.5,72.9L31.8,72.9L32.1,72.7L33.5,72.4L35.6,71.7L36.5,71.6L38.3,70.9L39.0,70.9L39.8,70.6L41.9,70.1L42.7,69.7L43.2,69.7L45.3,69.0L47.3,68.6L47.5,68.4L49.0,68.1L49.7,67.8L51.4,67.4L52.1,67.1L55.8,66.2L57.0,65.7L57.8,65.6L58.9,65.2Z M69.2,64.9L69.2,65.2L72.3,66.1L72.9,66.2L73.7,66.5L76.3,67.1L79.0,67.9L84.2,69.2L84.7,69.5L85.3,69.6L86.1,69.9L86.7,69.9L89.2,70.7L90.2,70.9L92.5,71.6L93.5,71.8L95.5,72.4L95.8,72.4L96.2,72.6L99.0,73.3L100.3,73.7L101.5,74.0L102.0,74.2L102.9,74.3L103.7,74.6L105.0,74.9L106.6,75.4L107.8,75.6L112.9,77.0L113.5,77.0L113.8,76.7L114.3,75.6L114.8,75.1L115.8,72.9L116.8,70.2L117.2,68.7L117.6,66.1L117.5,65.0L117.2,64.8L116.5,64.7L82.5,64.6L80.8,64.8L70.2,64.7Z M113.1,66.3L112.9,66.6L112.5,66.5L112.5,66.3Z M10.6,62.8L10.6,63.7L10.8,63.9L12.4,64.1L24.1,64.1L28.0,63.9L52.9,63.9L58.3,63.8L58.8,63.7L58.7,63.3L57.3,63.0L55.3,62.3L52.5,61.7L49.1,60.6L47.8,60.4L45.1,59.5L44.1,59.4L42.9,58.9L41.9,58.8L36.5,57.2L33.8,56.6L32.8,56.2L30.4,55.7L28.9,55.1L28.2,55.1L27.1,54.7L22.8,53.6L22.0,53.3L21.1,53.1L20.4,52.8L16.6,51.9L15.5,51.5L14.8,51.5L14.1,52.3L13.9,52.7L13.6,53.0L12.3,55.6L11.8,56.9L11.0,59.8Z M117.7,62.5L117.5,60.9L117.0,58.2L115.8,54.9L114.1,51.8L113.8,51.4L113.1,51.3L111.3,51.7L109.4,52.3L108.7,52.4L108.1,52.7L105.6,53.2L105.0,53.5L103.7,53.7L103.2,54.0L99.5,54.9L98.5,55.3L96.2,55.8L95.4,56.1L94.4,56.3L92.3,57.0L91.1,57.2L89.2,57.8L88.6,57.9L87.8,58.2L84.8,59.0L84.5,59.1L84.1,59.1L80.1,60.4L78.6,60.7L76.8,61.3L75.8,61.5L75.3,61.7L72.8,62.3L70.8,63.0L70.5,63.0L69.3,63.4L69.2,63.5L69.2,63.8L69.6,63.8L101.9,63.8L111.3,63.8L112.3,63.6L113.1,63.8L116.4,63.8L117.2,63.7L117.6,63.4Z M15.6,50.2L15.6,50.5L15.9,50.7L16.8,51.0L21.1,52.1L29.2,54.4L31.4,54.9L32.7,55.4L33.4,55.4L35.5,56.1L36.8,56.4L39.0,57.1L43.1,58.1L44.2,58.4L45.1,58.6L48.1,59.5L49.1,59.7L51.2,60.4L52.5,60.6L53.3,60.9L54.1,61.0L55.1,61.4L57.5,61.9L58.5,62.3L59.4,62.3L59.4,62.1L59.2,61.8L54.9,59.3L54.4,58.9L53.1,58.3L49.7,56.1L46.5,54.4L46.0,54.0L44.0,52.8L43.7,52.7L43.2,52.4L40.7,51.0L38.2,49.4L37.8,49.3L36.5,48.4L35.5,48.0L34.8,47.3L34.1,47.1L32.3,45.9L30.7,45.1L28.5,43.6L27.2,43.0L26.4,43.1L25.1,43.5L24.3,43.9L24.1,43.9L23.7,44.2L23.4,44.2L22.2,44.8L22.0,45.0L21.3,45.3L18.9,46.9L16.9,48.7Z M112.6,50.0L111.5,48.6L110.3,47.4L109.6,47.2L109.0,46.3L107.9,45.6L106.7,44.9L106.2,44.5L105.3,44.2L104.4,43.7L104.2,43.7L102.3,42.9L101.4,42.9L98.6,44.4L97.4,45.3L95.2,46.4L90.6,49.3L90.3,49.3L88.8,50.3L86.8,51.3L85.6,52.2L84.9,52.5L80.3,55.4L78.7,56.2L75.9,58.0L74.4,58.8L73.3,59.5L72.9,59.7L71.9,60.4L71.3,60.6L70.5,61.2L69.9,61.5L69.2,62.1L69.2,62.3L70.2,62.2L70.6,62.0L77.4,60.2L77.9,60.0L81.2,59.1L83.6,58.4L84.4,58.3L84.9,58.1L85.8,57.9L87.8,57.2L89.8,56.7L90.8,56.4L93.4,55.7L93.9,55.5L94.5,55.4L95.6,55.1L98.7,54.3L99.5,54.0L102.7,53.2L103.9,52.7L104.3,52.7L104.7,52.5L107.2,51.9L107.7,51.7L110.8,51.0L110.9,50.8L111.7,50.7L112.5,50.3Z M99.7,42.3L99.3,42.0L99.0,42.0L96.8,41.1L94.4,39.8L93.7,39.2L92.7,38.5L91.8,37.7L91.5,37.5L90.8,37.7L82.5,46.1L82.0,46.8L80.1,48.6L79.9,49.0L75.3,53.6L74.5,54.5L68.4,60.7L68.3,61.1L68.7,61.1L69.9,60.5L73.2,58.4L74.6,57.8L76.2,56.7L77.0,56.3L77.7,55.8L79.4,54.9L80.0,54.4L81.8,53.4L86.1,50.8L86.4,50.7L92.6,46.9L95.2,45.5L96.0,44.9L97.0,44.4L97.9,43.7L99.6,42.8Z M28.7,42.6L29.0,43.0L29.3,43.1L30.8,44.1L31.5,44.4L32.0,44.8L35.8,46.9L38.5,48.6L40.9,49.9L43.9,51.8L44.9,52.3L45.8,52.9L46.3,53.0L46.5,53.3L47.7,53.9L50.7,55.7L51.7,56.2L52.6,56.8L56.4,58.9L58.9,60.5L59.6,60.6L59.5,60.3L58.5,59.1L52.9,53.5L52.6,53.0L50.6,51.1L49.7,50.1L46.1,46.6L43.6,43.9L41.2,41.5L39.1,39.2L37.4,37.6L36.8,37.6L34.7,39.4L32.9,40.5L30.8,41.6L28.9,42.3Z M85.5,28.2L85.1,28.3L84.5,29.1L82.5,32.9L81.1,35.3L80.7,36.1L80.2,36.8L76.7,43.1L76.0,44.2L74.4,47.3L73.7,48.3L73.1,49.6L72.6,50.3L72.4,50.9L72.1,51.2L71.5,52.5L68.0,58.4L67.5,59.6L67.6,59.9L67.9,59.9L68.7,59.1L90.1,37.0L90.2,36.7L90.2,36.1L88.8,34.6L87.8,33.0L87.5,32.4L87.2,32.1L86.8,31.1L86.8,30.9L86.1,29.6L85.8,28.7Z M42.7,28.0L42.3,29.3L41.5,31.1L41.2,31.6L41.2,32.0L39.4,34.8L38.2,36.2L38.2,37.0L41.0,39.9L41.5,40.6L45.2,44.2L60.4,59.7L60.8,59.7L60.9,59.4L59.0,56.0L58.4,54.7L56.1,50.8L55.9,50.3L54.5,47.9L54.3,47.6L52.0,43.2L51.0,41.7L46.3,33.3L44.0,29.4L43.5,28.3L43.1,28.0Z M50.1,14.7L48.6,16.2L47.2,17.9L45.6,20.3L44.6,22.3L43.6,25.1L43.5,25.9L43.6,26.7L44.6,28.8L47.9,34.3L48.3,35.2L49.7,37.6L50.2,38.6L50.8,39.5L51.7,40.9L51.9,41.5L55.3,47.3L55.7,48.3L56.2,49.0L57.4,51.2L57.8,51.8L58.0,52.3L58.5,53.0L58.8,53.7L59.2,54.3L61.0,57.6L61.5,58.4L62.1,58.8L62.1,58.4L61.3,55.0L61.1,54.7L61.0,53.7L60.7,52.9L59.9,49.6L59.1,46.7L58.4,43.6L57.8,41.7L57.4,40.2L56.8,38.2L56.8,37.7L55.6,33.4L55.6,33.1L55.3,32.2L55.1,31.3L54.7,30.0L54.5,28.9L54.0,27.7L53.7,26.0L53.4,25.3L53.4,24.5L52.6,22.1L52.4,21.0L51.3,17.2L51.1,16.0L50.7,14.8Z M78.3,14.5L78.0,14.5L77.7,14.9L77.7,15.3L77.4,15.8L76.7,18.8L76.3,20.0L75.7,22.5L75.5,23.0L73.7,30.1L73.5,30.7L73.3,32.0L73.0,32.4L71.4,38.9L71.0,40.0L70.9,40.8L70.1,43.4L70.1,43.8L69.6,45.3L69.4,46.6L69.2,47.1L69.1,47.7L68.7,48.8L68.6,49.5L68.2,51.0L68.2,51.4L67.9,52.2L67.1,55.4L66.7,56.4L66.6,57.1L66.2,58.4L66.2,59.2L66.4,59.2L66.9,58.8L67.5,57.3L68.8,55.4L68.9,54.9L69.5,54.1L70.0,53.0L71.6,50.3L71.9,49.6L72.2,49.3L72.5,48.6L74.0,46.0L74.1,45.7L77.8,39.2L78.3,38.2L78.7,37.8L79.6,35.9L80.8,34.0L82.0,31.6L83.7,28.8L84.9,26.4L84.9,25.6L84.1,23.0L82.5,19.6L80.9,17.2L80.0,16.2Z M66.6,9.1L65.0,9.1L64.7,9.5L64.7,53.0L64.8,57.9L64.9,58.5L65.2,58.6L65.8,56.9L65.9,56.2L66.5,54.2L67.3,50.5L67.7,49.4L68.0,48.0L68.2,47.7L68.9,44.6L69.1,44.2L69.3,43.0L70.4,39.2L70.6,37.9L70.9,37.3L72.2,32.1L72.5,31.4L72.5,31.0L72.9,29.6L73.2,28.2L73.7,26.6L73.9,25.6L74.3,24.3L74.6,23.0L74.7,22.7L75.0,21.5L75.2,21.0L75.7,18.6L76.1,17.6L76.7,15.0L76.9,14.4L76.8,13.4L76.4,13.0L74.5,11.8L70.7,10.1L69.5,9.8L69.1,9.6L68.5,9.5L67.9,9.5Z M62.6,9.1L59.4,9.6L55.7,10.9L54.0,11.8L52.3,12.9L51.6,13.5L51.5,14.1L52.3,16.7L52.4,17.4L53.0,19.8L53.1,20.0L53.6,22.2L54.0,23.5L54.6,25.9L54.9,26.6L55.1,27.8L55.3,28.0L55.6,29.7L56.1,31.3L56.6,33.1L56.7,33.9L57.1,34.9L58.5,40.9L58.9,42.0L59.2,43.5L60.5,47.7L61.1,50.5L61.3,50.9L62.0,54.0L63.4,58.8L63.7,58.7L63.8,58.5L63.8,54.0L63.8,31.0L63.9,25.7L63.8,22.8L63.8,16.5L63.7,14.2L63.8,13.2L63.8,9.8L63.5,9.1Z" fill="#000" fill-rule="evenodd"/>
</svg>