<svg xmlns="http://www.w3.org/2000/svg" viewBox="0 0 128 128" width="128" height="128">
  <path d="M65.1,56.9L63.4,57.2L62.1,57.8L60.8,58.7L59.7,59.9L59.2,60.6L58.3,62.6L58.2,65.1L58.6,67.1L59.5,68.7L61.3,70.6L63.7,71.6L65.1,71.9L66.5,71.9L67.9,71.6L69.9,70.6L71.6,68.9L72.2,68.2L72.6,67.1L73.0,65.4L73.0,63.6L72.7,62.3L72.3,61.3L72.3,61.1L71.2,59.7L70.2,58.6L69.0,57.8L67.6,57.2L66.0,56.9Z M117.1,9.5L116.4,9.3L97.5,9.5L93.5,9.5L92.9,9.6L90.1,9.5L78.6,9.8L78.2,9.6L72.3,9.6L70.4,9.5L70.0,9.8L69.9,34.8L70.2,52.2L70.4,52.4L70.7,52.4L71.2,51.9L73.3,48.8L73.8,47.9L74.7,46.7L75.3,45.5L75.7,45.0L75.8,44.6L76.9,43.3L76.9,42.9L78.3,41.0L78.6,40.3L79.6,39.1L80.5,37.4L80.9,37.0L81.0,36.7L82.0,35.3L82.3,34.6L82.9,33.9L83.2,33.9L83.0,34.9L81.6,37.2L81.0,38.9L80.2,40.1L79.9,41.0L79.5,41.6L76.9,46.8L76.9,47.1L76.5,47.6L75.7,49.4L75.4,49.8L74.7,51.3L74.1,52.2L73.6,53.6L73.7,54.0L74.1,54.0L77.7,50.7L78.1,50.5L79.0,49.5L82.1,46.8L82.6,46.3L84.5,44.7L86.6,42.6L89.4,40.3L89.7,40.6L89.5,41.0L85.5,45.5L84.8,46.1L84.2,46.9L82.2,49.0L80.6,51.0L79.3,52.2L78.4,53.3L76.1,55.7L76.1,56.4L76.9,56.2L78.4,55.4L78.7,55.2L79.6,54.9L79.8,54.6L82.3,53.5L82.7,53.1L85.2,51.9L85.6,51.8L86.8,51.1L87.3,50.9L88.0,50.4L88.4,50.3L88.7,50.0L89.8,49.5L90.5,49.3L92.7,48.0L93.7,47.6L94.1,47.2L95.2,46.8L95.5,47.0L94.9,47.7L94.3,47.9L94.0,48.2L87.1,52.5L86.1,53.4L85.7,53.5L82.8,55.5L82.3,55.7L81.2,56.6L78.5,58.2L77.8,59.0L77.9,59.2L79.2,59.2L80.3,58.8L82.6,58.5L86.0,57.7L86.6,57.7L88.9,57.1L92.0,56.7L93.0,56.3L95.3,56.0L96.1,55.7L99.5,55.2L99.8,55.0L100.8,55.3L98.8,56.0L96.7,56.6L95.6,57.0L94.3,57.3L93.3,57.8L91.8,58.1L90.5,58.6L88.1,59.2L87.1,59.7L85.9,59.9L85.4,60.2L85.0,60.2L82.1,61.2L79.8,61.8L78.7,62.5L78.8,62.7L81.2,63.0L84.1,63.1L86.2,63.4L87.5,63.3L88.3,63.5L89.9,63.5L92.1,63.8L101.4,64.3L101.6,64.4L101.7,64.8L99.2,65.1L95.6,65.1L94.1,65.3L93.0,65.2L92.1,65.4L88.6,65.4L87.6,65.5L85.6,65.4L84.9,65.6L79.4,65.8L79.1,65.9L78.9,66.2L80.2,66.9L82.9,67.7L84.7,68.4L87.1,69.2L87.6,69.5L88.5,69.7L90.7,70.5L92.4,71.0L92.8,71.2L95.0,71.8L99.0,73.3L100.4,73.7L101.7,74.2L101.8,74.6L100.4,74.4L98.8,74.0L96.4,73.5L95.4,73.1L93.6,72.8L92.2,72.4L90.7,72.1L90.4,71.9L88.2,71.5L87.9,71.3L86.7,71.1L86.0,71.1L85.5,70.8L84.6,70.7L83.5,70.3L81.8,70.0L81.5,69.8L78.2,69.1L78.0,69.5L78.5,70.0L85.8,74.8L86.2,75.2L88.2,76.4L90.0,77.8L90.8,78.2L91.2,78.5L92.2,79.1L93.4,80.0L94.2,80.4L95.5,81.4L96.7,82.1L97.7,82.9L97.6,83.3L97.1,83.2L96.5,82.7L95.6,82.5L95.2,82.1L92.7,80.9L92.3,80.5L91.8,80.4L91.3,80.0L88.0,78.3L87.5,78.0L83.9,76.2L82.5,75.3L81.9,75.1L76.9,72.4L76.4,72.5L76.4,72.7L76.8,73.3L78.2,74.8L78.9,75.8L80.2,77.1L81.2,78.3L84.3,81.7L91.7,90.1L91.7,90.6L91.2,90.4L89.9,89.2L89.5,88.9L85.8,85.4L85.5,85.2L78.0,78.1L76.2,76.6L74.6,74.9L74.0,74.8L74.0,75.5L75.0,77.4L75.3,77.7L75.3,78.0L75.7,78.7L75.8,79.2L76.2,79.7L77.0,81.6L77.4,82.1L78.4,84.3L78.8,84.8L79.5,86.1L79.5,86.4L82.0,91.2L82.2,91.9L84.1,95.5L84.3,96.3L84.5,96.5L84.5,97.0L84.1,96.8L83.7,96.2L83.6,95.8L82.8,95.0L79.9,90.1L79.1,89.1L77.9,86.9L76.5,85.0L76.3,84.4L75.5,83.3L75.3,82.7L75.0,82.6L73.7,80.3L72.9,79.4L72.2,78.0L71.2,76.8L70.9,76.9L71.1,78.6L72.1,83.0L72.3,84.5L72.6,85.1L72.7,86.5L73.2,87.9L73.2,88.5L73.7,90.1L74.4,94.2L74.7,95.0L75.1,97.0L75.4,97.6L75.4,98.4L75.5,98.9L75.3,99.8L74.7,98.1L73.8,95.8L73.2,93.6L72.9,93.1L72.1,90.3L71.7,89.6L71.2,87.3L70.8,86.6L70.7,85.9L70.3,85.2L69.5,82.3L69.3,82.1L69.1,81.1L68.7,80.4L68.1,78.1L67.9,77.7L67.7,77.7L67.3,78.3L67.0,87.1L66.6,96.4L66.6,99.5L66.5,100.3L66.1,100.4L65.8,98.9L65.8,97.3L65.6,96.4L64.8,79.0L64.5,77.9L64.1,78.0L63.6,79.4L63.1,81.3L61.7,85.3L61.2,87.3L60.8,88.4L60.7,89.0L60.4,89.6L59.9,91.4L59.7,91.9L59.2,93.8L58.9,94.2L58.9,94.6L58.2,96.7L57.6,98.8L57.1,99.8L56.8,99.8L57.6,94.6L58.0,93.4L58.3,91.4L58.8,89.6L58.9,88.4L59.3,87.3L59.4,86.1L59.8,84.5L60.0,83.1L60.3,82.5L60.3,81.7L60.9,78.9L61.2,77.8L61.1,76.9L61.0,76.9L60.3,77.6L59.9,78.3L59.3,79.1L58.6,80.3L57.9,81.2L57.0,82.8L56.1,84.0L55.5,85.1L54.8,86.0L54.0,87.4L53.5,88.1L53.4,88.4L52.6,89.4L52.4,90.0L49.4,94.6L48.6,95.5L47.8,97.0L47.0,98.0L46.7,98.0L46.8,97.4L49.1,92.7L49.4,92.5L49.5,92.0L50.1,90.7L50.5,90.2L52.6,85.9L52.9,85.6L53.8,83.8L54.5,82.6L55.2,81.0L55.5,80.5L57.2,76.9L57.6,76.5L58.0,75.6L57.8,75.3L57.2,75.5L55.5,77.0L53.8,78.4L51.0,81.2L49.0,82.7L45.1,86.4L43.4,87.7L41.1,89.9L39.8,90.8L39.5,90.6L41.6,88.1L55.4,73.0L55.4,72.7L54.8,72.7L54.0,73.2L53.3,73.4L52.0,74.2L50.4,74.9L47.9,76.3L47.4,76.4L46.1,77.2L45.2,77.6L44.9,77.9L44.4,78.0L43.8,78.4L42.3,79.1L42.0,79.4L40.3,80.1L39.1,81.0L37.4,81.6L36.6,82.2L33.3,83.8L33.0,83.5L36.3,81.2L36.7,81.1L39.2,79.3L39.8,79.0L40.4,78.4L42.1,77.5L44.4,75.9L45.6,75.3L46.0,74.9L46.7,74.6L47.6,73.9L49.8,72.6L51.7,71.2L53.1,70.3L53.4,70.0L53.4,69.8L52.5,69.7L51.1,70.1L50.5,70.1L49.7,70.4L46.9,70.9L45.8,71.2L39.7,72.4L38.5,72.7L38.0,72.7L34.6,73.6L31.8,74.0L30.5,74.4L29.9,74.4L29.1,74.7L28.0,74.4L30.2,73.7L30.7,73.4L31.0,73.4L33.0,72.6L34.3,72.4L35.6,71.8L37.4,71.3L38.7,70.8L39.6,70.6L40.4,70.2L41.3,70.0L51.3,66.9L52.2,66.5L52.4,66.2L52.2,66.0L50.5,65.8L47.7,65.8L45.2,65.5L41.1,65.4L33.9,65.0L31.2,65.0L29.1,64.7L29.1,64.3L29.3,64.2L38.0,63.9L39.5,63.7L50.5,63.3L52.1,62.9L52.0,62.6L48.9,61.5L44.5,60.2L44.0,59.9L41.7,59.3L40.7,58.8L37.8,58.1L35.9,57.3L29.8,55.4L29.6,55.3L29.0,55.2L28.6,55.0L28.5,54.7L28.7,54.5L30.2,54.7L33.0,55.4L36.5,56.0L37.9,56.5L42.6,57.3L43.4,57.6L44.3,57.7L45.4,58.1L47.2,58.3L49.8,59.0L51.7,59.2L52.5,59.5L53.1,59.4L53.1,59.1L50.9,57.6L49.8,56.8L49.5,56.7L49.0,56.2L48.6,56.1L46.4,54.5L46.0,54.4L44.9,53.6L44.5,53.5L42.6,52.1L41.2,51.3L39.5,50.0L38.6,49.7L34.5,46.8L33.6,46.4L33.2,46.0L31.9,45.2L32.0,44.9L32.5,44.9L36.8,47.2L37.5,47.4L38.6,48.2L39.3,48.3L41.7,49.7L42.5,50.0L42.9,50.4L43.4,50.5L45.1,51.3L45.8,51.9L47.1,52.5L47.6,52.6L47.9,52.9L50.5,54.2L50.8,54.5L51.4,54.7L51.9,55.1L53.6,55.7L54.2,56.2L55.0,56.4L55.1,56.2L55.0,55.7L54.5,55.4L54.2,54.9L53.6,54.3L45.9,45.7L45.3,45.2L41.1,40.4L38.4,37.7L37.6,36.7L37.7,36.4L38.0,36.4L40.6,38.6L43.7,41.6L50.2,47.4L50.9,48.2L56.6,53.4L57.2,53.9L57.7,53.8L57.7,53.5L56.3,50.6L55.5,49.4L55.0,48.0L54.5,47.3L49.7,37.6L49.3,37.1L47.6,33.5L47.3,33.2L47.4,32.7L47.6,32.7L48.1,33.2L49.6,35.4L52.0,39.6L52.5,40.0L53.0,41.1L53.4,41.5L54.7,43.6L55.2,44.6L56.9,47.0L57.3,47.9L58.2,49.0L58.3,49.4L59.2,50.8L59.6,51.1L59.7,51.6L60.3,52.1L60.7,51.9L60.7,35.3L60.5,31.5L60.6,21.9L60.3,10.2L59.7,9.8L56.2,9.7L19.3,9.7L15.4,9.5L11.4,9.5L10.9,9.9L10.8,17.1L10.9,21.2L11.1,25.1L11.2,35.5L11.4,38.7L11.3,45.0L11.5,49.0L11.5,68.6L11.8,88.7L11.7,95.0L11.9,100.9L11.8,117.9L12.1,118.7L12.4,118.9L13.2,118.9L14.4,118.7L46.8,118.7L62.2,118.5L64.0,118.6L70.3,118.5L71.8,118.5L88.9,118.4L93.5,118.5L99.0,118.3L116.4,118.3L117.1,118.1L117.5,117.8L117.2,73.5L117.3,71.5L117.1,59.3L117.2,56.4L117.0,53.9L117.0,11.3L117.2,10.8Z" fill="#000" fill-rule="evenodd"/>
</svg>