<svg xmlns="http://www.w3.org/2000/svg" viewBox="0 0 128 128" width="128" height="128">
  <path d="M47.9,59.3L46.3,60.2L45.6,60.9L45.1,61.8L44.8,62.7L44.8,63.9L45.1,65.2L45.5,66.1L46.7,67.2L48.4,68.0L50.2,68.0L51.5,67.4L52.5,66.6L52.8,66.1L53.4,64.1L53.3,62.6L52.6,61.1L51.3,59.9L49.7,59.2Z M118.5,9.7L101.6,9.4L90.7,9.7L69.4,9.6L40.4,9.9L11.0,9.9L9.8,10.0L9.5,10.2L9.4,11.4L9.6,12.8L9.5,15.4L9.8,40.3L9.8,92.2L10.0,98.7L10.0,112.8L10.1,117.4L10.2,118.1L10.5,118.6L24.1,118.7L44.4,118.5L44.9,118.7L46.7,118.8L82.0,118.8L93.3,118.6L110.0,118.6L117.4,118.4L117.8,118.2L118.0,117.5L118.0,96.3L118.2,92.4L118.2,83.5L118.4,78.3L118.3,69.8L118.5,65.2L118.5,53.4L118.7,43.5L118.6,39.0L118.8,33.0L118.7,27.4L118.9,23.3L118.8,10.0Z M88.1,60.7L88.2,60.4L89.1,60.3L89.4,60.7Z M104.1,55.2L104.2,55.3L104.2,55.8L104.0,56.1L103.5,56.2L103.1,55.8L103.1,55.6L103.8,55.2Z M56.6,22.4L56.5,23.9L56.2,24.9L56.2,25.6L55.4,30.1L55.4,30.9L55.2,31.4L55.2,33.2L54.7,35.4L54.7,36.1L53.9,40.4L53.9,41.5L53.6,43.6L53.3,44.6L53.3,45.5L53.2,46.1L53.1,47.8L52.9,48.3L52.9,49.2L52.7,49.9L52.8,50.5L53.0,50.6L54.1,48.0L54.1,47.7L54.4,47.4L54.7,46.4L55.5,44.8L56.0,43.3L56.9,41.5L57.3,40.0L58.4,37.8L58.6,37.1L58.9,36.7L59.9,34.0L60.5,33.1L61.4,30.5L62.6,28.1L62.9,28.1L62.8,29.0L61.5,32.2L61.2,33.4L60.7,34.6L60.7,35.0L60.4,35.4L59.4,38.5L58.9,39.7L58.3,41.9L58.1,42.1L56.8,46.2L56.7,46.9L56.3,47.6L56.2,48.3L55.4,50.5L55.2,51.0L55.2,51.3L55.4,51.3L56.1,50.6L59.6,45.4L60.9,43.9L61.5,42.8L62.7,41.5L63.0,40.7L63.5,40.2L64.4,38.8L65.0,38.0L65.2,37.6L66.2,36.4L66.6,35.6L67.8,33.9L68.4,33.5L68.9,32.5L69.5,32.2L69.5,32.4L67.8,35.5L65.0,39.8L64.6,40.7L62.0,44.7L61.6,45.1L60.5,47.3L59.6,48.4L59.4,49.0L59.1,49.3L59.0,49.7L57.3,52.2L57.2,52.9L57.4,52.9L58.4,52.0L63.3,46.8L68.0,42.1L69.4,40.4L72.8,37.2L73.6,36.0L75.9,33.8L76.2,34.0L74.6,36.1L68.3,43.3L64.4,48.0L60.8,52.0L58.9,54.3L58.9,54.6L59.6,54.3L61.1,53.2L62.0,52.8L62.5,52.3L63.5,51.7L67.9,48.7L69.0,47.7L70.5,47.0L72.2,45.6L75.0,43.8L79.2,40.8L79.8,40.6L80.2,40.2L81.0,39.7L81.3,39.9L80.4,40.6L79.2,41.7L76.2,44.0L75.4,44.8L74.8,45.1L70.8,48.3L70.0,48.8L68.8,49.9L68.1,50.3L64.6,53.2L63.3,53.9L61.1,55.7L60.8,56.3L61.9,56.0L63.8,55.1L66.3,54.2L68.8,53.0L70.8,52.3L71.7,51.7L73.9,50.8L74.7,50.6L77.5,49.1L78.0,49.0L78.4,48.7L82.7,46.9L82.9,47.3L80.8,48.3L80.4,48.7L79.9,48.8L78.7,49.5L78.1,49.7L77.8,50.0L75.8,50.9L67.3,55.3L65.4,56.2L64.6,56.8L61.9,58.0L61.2,58.7L62.1,58.7L66.2,57.7L67.2,57.6L67.4,57.4L67.9,57.4L69.4,57.0L70.0,57.0L71.8,56.5L73.3,56.3L76.9,55.3L81.0,54.6L83.5,53.9L84.2,53.9L84.8,53.6L86.2,53.4L87.0,53.2L87.6,53.2L87.5,53.5L82.0,55.3L81.2,55.4L80.4,55.8L78.7,56.2L77.0,56.8L75.9,57.0L72.4,58.2L69.0,59.1L68.5,59.3L66.9,59.6L63.2,60.9L62.4,61.2L62.4,61.4L68.4,61.3L74.2,61.1L75.4,60.9L76.3,61.0L78.0,60.8L83.4,60.6L86.2,60.8L85.7,61.1L83.8,61.3L81.9,61.4L80.5,61.7L76.7,61.9L75.1,62.2L74.1,62.2L72.5,62.5L71.0,62.5L64.9,63.3L64.0,63.3L62.4,63.6L62.4,63.9L66.2,64.7L67.4,64.8L69.0,65.1L69.9,65.1L70.4,65.3L75.3,66.2L76.1,66.2L77.0,66.5L79.2,66.8L80.1,67.0L82.2,67.2L85.7,68.0L87.8,68.2L88.5,68.4L88.6,68.8L82.6,68.3L82.0,68.1L79.4,68.0L78.0,67.7L73.1,67.4L71.4,67.1L70.2,67.1L68.8,66.9L62.8,66.6L62.9,66.9L71.4,70.1L71.8,70.1L76.6,71.9L80.3,73.0L81.0,73.4L82.6,73.8L83.9,74.4L85.1,74.7L86.5,75.3L87.6,75.5L88.6,76.0L88.7,76.2L88.5,76.4L88.2,76.4L86.9,76.0L86.5,76.0L83.4,75.0L82.2,74.8L81.3,74.5L79.5,74.1L77.4,73.3L76.5,73.2L75.5,72.8L74.5,72.7L73.7,72.3L73.2,72.3L69.9,71.2L67.4,70.7L66.3,70.2L64.9,69.9L62.7,69.1L61.8,69.1L62.0,69.5L65.0,71.2L65.6,71.7L67.8,72.9L68.2,73.3L70.5,74.6L71.7,75.4L73.5,76.3L75.5,77.6L77.0,78.4L77.9,79.0L78.5,79.2L81.1,80.9L81.9,81.2L83.2,82.2L83.1,82.6L82.8,82.6L81.4,81.8L81.1,81.8L80.4,81.3L78.9,80.7L77.9,80.0L77.0,79.7L76.6,79.3L75.9,79.1L73.8,78.1L73.5,77.8L72.7,77.5L72.3,77.1L70.8,76.5L70.5,76.2L66.9,74.4L66.4,74.0L65.9,73.9L65.4,73.5L65.0,73.4L63.0,72.5L61.7,71.6L61.2,71.4L60.9,71.8L74.8,84.2L76.2,85.1L81.5,89.8L81.5,90.2L81.2,90.2L79.1,88.7L78.2,87.9L76.9,87.1L76.1,86.3L74.8,85.4L67.8,79.9L66.9,79.4L65.1,77.8L61.9,75.4L59.6,73.5L59.3,73.8L62.1,77.8L64.3,80.6L64.3,80.7L75.5,94.7L75.7,95.2L76.1,95.6L76.2,96.0L75.9,96.2L75.6,95.7L75.3,95.6L69.6,89.2L69.4,88.8L68.9,88.4L68.8,88.1L65.7,84.8L58.4,76.2L57.0,74.8L56.8,74.8L56.8,75.1L57.1,75.5L57.2,76.0L57.4,76.3L58.1,77.7L58.6,78.4L61.0,83.1L61.2,83.4L61.4,84.1L63.6,87.9L64.2,89.2L64.7,89.8L65.8,92.2L66.3,92.7L66.9,94.3L68.1,96.1L69.6,99.2L69.5,99.5L69.2,99.4L67.7,97.0L67.3,96.6L67.0,96.0L66.5,95.3L65.2,93.2L63.5,90.7L62.7,89.1L62.1,88.4L61.7,87.5L60.5,85.7L59.8,84.4L59.3,83.9L59.1,83.2L58.4,82.4L56.3,78.7L55.4,77.6L55.1,76.8L54.7,76.7L54.7,77.2L55.3,79.2L55.3,79.6L55.6,80.2L55.7,80.9L56.0,81.4L56.2,82.5L56.8,84.2L57.0,84.4L58.2,88.6L58.9,90.4L59.9,94.2L61.6,98.9L62.1,100.8L62.0,101.1L61.7,101.0L61.0,99.7L60.5,98.2L59.7,96.6L59.1,94.4L57.5,91.1L53.9,81.2L53.3,80.3L53.3,79.9L52.8,78.7L52.4,77.4L51.8,76.7L52.2,81.4L53.0,86.8L53.2,89.8L53.5,91.7L53.5,92.4L53.8,93.5L53.8,94.6L54.1,96.2L54.3,98.5L54.9,101.9L55.1,104.6L55.0,104.8L54.7,104.8L54.1,102.5L54.0,101.2L53.3,98.5L53.3,98.0L53.1,97.2L52.9,95.4L52.6,94.5L52.4,92.9L52.0,91.4L51.8,89.5L51.0,85.5L50.9,84.1L50.4,82.6L49.9,79.3L49.5,77.9L49.3,78.0L49.2,78.9L49.1,81.4L48.9,82.1L48.9,83.9L48.4,87.7L48.2,90.8L48.0,91.9L47.6,92.4L46.2,92.4L45.8,92.3L45.6,91.9L46.2,84.2L46.7,81.2L46.8,77.8L46.6,77.8L46.3,78.6L46.2,79.4L44.4,86.6L44.4,87.2L43.7,89.2L43.4,91.2L42.8,91.7L42.0,91.7L41.3,91.2L41.4,90.1L43.4,82.3L44.5,77.1L44.2,77.2L43.3,79.4L41.9,81.9L41.7,82.6L41.3,83.3L41.2,83.9L38.8,88.7L38.7,89.2L38.1,90.0L37.1,90.0L36.2,89.2L36.3,88.3L37.9,85.1L38.1,84.4L39.0,82.9L39.6,81.3L40.6,79.6L41.8,76.7L41.7,76.6L41.5,76.7L34.2,86.9L33.6,87.6L33.1,87.6L32.1,87.0L31.8,86.6L31.8,86.3L34.0,83.2L34.8,81.9L35.6,80.9L37.2,78.6L39.2,76.0L39.5,75.3L40.2,74.4L40.2,74.2L39.6,74.5L39.5,74.8L36.8,77.4L33.9,80.0L29.7,84.2L29.4,84.3L28.9,84.2L28.0,83.3L28.0,82.7L38.0,72.9L38.2,72.5L37.8,72.5L36.8,73.0L35.0,74.3L34.1,74.7L30.6,76.8L30.0,77.0L29.4,77.6L28.0,78.3L26.6,79.3L25.9,79.7L25.3,79.7L24.6,79.0L24.4,78.4L24.5,78.1L25.6,77.2L27.6,76.2L28.0,75.7L28.7,75.4L32.3,73.0L33.9,72.3L35.4,71.2L37.4,70.1L37.5,69.9L36.7,69.9L35.6,70.5L34.3,70.8L32.2,71.7L29.4,72.6L28.2,73.1L26.6,73.6L23.6,74.8L22.7,74.8L22.2,74.3L22.0,73.4L22.0,72.8L22.3,72.5L24.9,71.7L26.9,70.8L35.5,68.0L35.8,67.7L35.8,67.5L33.3,67.8L32.5,68.1L31.9,68.1L29.8,68.6L27.0,68.9L22.0,69.9L21.2,69.8L20.7,69.1L20.7,68.2L21.3,67.7L23.4,67.4L26.9,66.7L27.6,66.7L28.7,66.4L29.7,66.4L34.9,65.3L34.8,65.1L31.4,65.0L20.8,65.2L20.2,64.9L20.2,63.6L20.8,63.0L29.7,63.0L35.0,62.7L35.0,62.5L34.1,62.2L21.4,59.5L20.7,59.1L20.8,57.6L21.2,57.2L22.0,57.1L28.3,58.5L31.0,59.2L35.0,59.9L35.0,59.7L34.4,59.3L33.5,59.1L32.7,58.6L32.4,58.6L31.8,58.2L31.4,58.1L30.6,57.6L30.1,57.5L29.4,57.1L25.9,55.5L24.1,54.6L23.3,54.3L22.2,53.5L22.2,52.9L22.8,51.7L23.2,51.4L23.6,51.4L24.8,51.9L25.3,52.3L25.9,52.4L26.6,52.9L27.1,53.0L30.9,55.0L31.4,55.1L34.2,56.4L34.5,56.4L35.4,56.9L35.7,56.9L35.7,56.7L34.9,56.0L34.4,55.8L31.7,53.8L25.4,49.5L24.7,49.0L24.6,48.4L25.1,47.4L25.5,47.1L26.1,47.0L36.3,53.8L37.2,54.2L36.9,53.6L28.5,45.2L28.0,44.5L27.9,44.0L28.4,43.4L29.1,42.8L29.6,42.7L30.0,42.9L34.9,48.1L38.9,52.1L39.5,52.4L39.1,51.5L35.8,47.1L33.6,43.5L32.7,42.5L31.8,41.0L31.9,40.4L32.3,40.0L33.1,39.6L33.7,39.6L35.0,41.1L36.5,43.5L40.2,48.7L40.4,49.2L41.4,50.3L41.5,50.3L41.5,49.5L38.9,43.7L38.8,43.2L38.0,41.6L37.6,40.3L36.8,38.6L36.8,37.6L37.6,37.0L38.4,36.9L38.9,37.3L41.9,44.0L42.0,44.7L42.7,45.7L42.8,46.2L43.3,47.0L43.5,47.7L44.0,48.7L44.2,49.3L44.5,49.4L44.0,46.5L43.7,45.7L43.5,44.5L43.3,43.9L43.3,43.5L42.5,40.4L42.5,39.8L42.1,38.8L42.0,37.6L41.7,36.7L41.7,36.2L42.2,35.6L43.1,35.3L43.9,35.3L44.3,35.8L45.4,42.1L45.7,42.9L46.2,45.3L46.2,45.9L46.7,47.4L47.0,48.9L47.2,49.3L47.4,49.3L47.4,45.1L47.2,40.3L47.0,39.5L46.9,35.6L47.1,35.0L47.4,34.7L49.3,34.7L49.5,35.1L49.8,49.3L49.9,49.5L50.2,49.4L50.7,47.5L50.7,46.9L51.7,42.7L51.8,41.6L52.9,37.0L53.2,36.2L53.6,33.6L53.8,33.2L54.1,31.3L54.6,29.8L54.7,28.9L55.6,25.6L56.2,22.7Z" fill="#000" fill-rule="evenodd"/>
</svg>