<svg xmlns="http://www.w3.org/2000/svg" viewBox="0 0 128 128" width="128" height="128">
  <path d="M60.1,75.2L59.6,75.5L54.1,81.5L48.1,87.9L46.9,89.3L46.1,90.0L43.6,92.8L40.8,95.8L39.9,96.9L38.1,98.7L37.7,99.2L29.0,108.6L29.0,109.0L29.4,109.6L40.2,119.1L40.8,119.1L42.4,117.3L45.5,113.9L46.4,112.8L60.5,97.7L63.4,94.4L64.3,93.6L67.7,89.8L69.4,88.0L71.4,85.8L71.3,85.1L60.5,75.5Z M58.8,52.9L57.4,54.8L57.2,55.3L56.8,55.9L56.1,57.4L55.6,59.1L55.2,61.5L55.2,64.2L55.6,66.6L56.4,68.9L57.8,71.6L59.1,73.2L60.7,74.8L63.0,76.7L66.0,79.6L66.8,80.2L68.2,81.5L71.9,84.7L72.5,85.4L74.2,86.8L77.7,90.0L82.7,94.3L83.8,95.4L84.7,96.2L86.0,97.4L92.3,103.0L93.3,103.8L93.7,103.7L95.8,101.6L98.2,98.9L103.4,93.3L103.5,92.8L101.9,91.2L98.8,88.4L97.6,87.3L96.5,86.4L96.0,85.7L95.3,85.3L90.1,80.4L89.2,79.8L86.1,76.9L83.3,74.4L80.8,72.0L74.9,66.8L74.4,66.2L73.4,65.5L64.0,56.8L59.5,52.9L59.0,52.8Z M90.4,19.1L89.7,19.2L87.6,21.4L80.6,29.0L80.3,29.5L78.7,31.0L77.9,32.0L73.9,36.3L73.1,37.0L70.9,39.6L71.0,40.0L72.1,41.1L81.4,49.6L82.1,50.0L82.6,49.9L86.2,45.9L91.8,40.0L93.0,38.6L100.9,30.3L101.5,29.5L101.4,29.2L101.1,28.8Z M34.6,9.3L25.4,19.2L24.6,20.2L24.7,20.7L30.6,26.0L31.1,26.6L37.2,31.8L38.7,33.4L39.1,33.7L52.7,45.9L53.1,46.2L53.5,46.6L67.0,58.7L67.5,59.2L70.7,62.0L82.4,72.7L83.0,72.8L84.5,71.1L86.1,68.0L86.9,65.1L87.1,63.0L87.0,60.2L86.6,58.2L86.0,56.5L85.4,55.4L84.0,53.1L82.7,51.5L76.9,46.2L76.1,45.7L72.2,42.1L71.2,41.3L70.5,40.6L69.4,39.7L67.4,37.9L67.1,37.8L59.8,31.1L59.0,30.4L58.3,29.6L55.8,27.6L52.9,24.8L51.9,24.1L51.5,23.6L51.2,23.4L49.4,21.8L46.8,19.6L42.7,15.8L39.6,13.1L37.2,10.7L36.8,10.5L35.3,9.1L34.8,9.1Z" fill="#000" fill-rule="evenodd"/>
</svg>