<svg xmlns="http://www.w3.org/2000/svg" viewBox="0 0 128 128" width="128" height="128">
  <path d="M85.8,31.7L85.2,31.6L83.4,30.6L79.7,29.5L76.8,29.2L74.0,29.2L69.6,29.9L66.2,31.1L63.2,32.8L62.3,33.5L61.8,33.8L60.4,35.1L60.1,35.1L58.6,36.7L56.9,38.7L55.7,40.6L54.2,43.6L52.9,47.9L52.7,49.3L52.4,53.0L52.8,72.1L52.7,77.1L52.9,88.7L52.8,91.0L53.0,92.1L53.2,92.3L55.1,92.3L56.8,91.7L58.8,90.9L60.5,89.8L60.7,89.5L60.9,89.5L63.2,87.3L63.7,86.4L64.2,85.9L65.4,83.7L65.9,82.3L66.4,80.6L66.7,78.5L66.9,72.0L66.6,59.8L66.7,50.5L67.1,49.0L68.2,46.9L69.5,45.6L70.3,45.0L72.3,43.9L73.6,43.5L75.2,43.4L76.3,43.4L78.1,43.8L80.3,44.9L81.1,45.5L82.5,47.0L83.6,49.0L84.3,51.6L84.3,53.5L84.1,55.0L83.2,57.2L82.2,58.7L81.0,59.9L79.9,60.6L78.2,61.4L76.9,61.8L68.3,62.0L68.0,62.3L68.0,73.5L68.1,75.9L68.3,76.3L74.8,76.3L79.5,75.7L81.6,75.2L85.0,73.8L88.2,71.9L89.9,70.5L91.7,68.9L93.8,66.3L95.2,63.9L97.0,59.9L98.0,55.3L98.0,50.6L97.9,49.3L97.5,46.9L96.9,45.0L96.5,44.4L95.9,42.4L93.3,38.1L89.6,34.2Z M72.4,73.0L71.9,73.5L71.7,73.3L71.8,73.0Z M72.4,72.6L72.8,72.6L72.7,72.8Z M105.5,11.1L102.2,10.0L99.4,9.4L97.9,9.3L86.9,9.3L77.5,9.6L74.8,9.5L71.2,9.7L63.1,9.7L60.1,9.9L49.6,10.0L46.2,10.2L34.5,10.3L28.7,10.5L27.3,10.7L24.6,11.4L21.1,12.8L18.9,14.3L17.8,15.2L16.0,17.1L13.9,19.9L13.2,21.5L12.9,21.8L12.7,22.9L12.0,24.5L11.6,25.8L11.2,29.3L11.2,38.7L11.5,45.2L11.3,51.6L11.5,54.4L11.5,66.5L11.6,68.6L11.7,75.1L12.1,77.5L12.9,80.2L14.4,83.3L17.0,86.7L18.8,88.4L21.2,90.1L21.9,90.3L22.3,90.6L22.8,90.7L23.5,91.2L26.3,92.1L27.6,92.4L28.3,92.4L29.2,92.7L33.9,92.8L36.4,92.6L36.6,92.1L36.4,78.9L35.9,78.4L29.5,78.3L28.6,78.0L27.7,77.5L26.6,76.5L25.7,74.6L25.5,72.1L25.4,55.9L25.1,42.2L25.2,38.7L25.0,37.4L25.0,29.3L25.4,27.9L25.7,27.6L25.7,27.2L27.0,25.8L27.9,25.3L28.6,25.0L29.4,25.0L31.0,24.7L38.9,24.7L41.5,24.5L52.9,24.5L56.6,24.3L66.6,24.3L77.0,24.0L98.5,23.9L99.7,24.3L100.7,24.9L101.6,25.8L102.4,27.5L102.6,28.2L102.9,33.2L103.1,45.7L103.0,54.0L103.2,62.1L103.2,74.8L103.4,79.4L103.3,82.3L103.5,91.2L103.5,98.8L103.3,100.2L102.8,101.3L101.5,102.8L100.7,103.4L97.5,103.8L79.8,104.2L76.3,104.4L56.3,104.6L55.2,104.4L54.0,103.7L53.1,103.0L52.1,101.4L51.7,99.5L51.7,83.1L51.6,81.0L51.6,69.2L51.4,67.9L51.4,62.6L50.9,62.2L49.1,62.3L48.2,62.7L47.1,62.9L46.6,63.3L45.0,63.9L43.6,64.8L42.3,65.9L40.9,67.5L39.4,69.7L38.4,71.9L38.3,72.6L37.9,73.5L37.6,75.7L37.9,94.8L37.8,97.4L38.0,102.2L38.2,103.3L38.6,104.4L38.6,104.8L39.4,107.2L40.9,110.0L42.6,112.3L44.5,114.1L46.9,116.1L50.1,117.6L51.7,118.2L54.4,118.8L57.1,118.9L78.2,118.7L79.8,118.5L89.5,118.4L90.9,118.2L91.7,118.3L99.9,118.0L102.3,117.6L104.2,117.2L107.7,115.5L109.8,114.0L112.1,111.7L114.2,108.9L114.8,107.7L115.2,107.2L115.3,106.4L116.1,105.0L116.6,103.1L117.1,99.0L117.1,88.8L116.8,80.6L116.9,75.9L116.6,61.2L116.7,55.7L116.4,31.9L116.2,27.2L116.0,26.6L115.8,24.5L114.8,21.4L113.7,19.2L111.6,16.1L109.6,14.0L108.5,13.1Z" fill="#000" fill-rule="evenodd"/>
</svg>