<svg xmlns="http://www.w3.org/2000/svg" viewBox="0 0 128 128" width="128" height="128">
  <path d="M29.1,66.7L29.1,69.1L29.5,70.7L29.6,72.4L29.9,73.7L30.1,75.3L30.4,76.2L30.5,76.9L31.3,80.2L31.8,81.1L32.2,81.3L35.9,81.3L38.3,81.7L39.7,82.2L40.6,82.8L41.1,83.0L43.6,84.8L44.9,86.0L46.7,88.2L47.0,88.7L51.9,94.7L52.5,95.6L53.5,96.7L54.4,98.1L55.4,99.1L58.7,103.4L63.4,108.4L66.4,110.4L69.5,112.0L72.8,113.2L74.8,113.7L75.4,113.7L76.4,114.0L80.5,114.1L84.8,113.6L87.5,113.0L91.3,111.7L93.1,110.9L95.5,109.8L97.3,108.7L97.8,108.5L101.0,106.3L104.2,103.6L106.9,100.9L108.5,98.9L110.3,96.5L111.0,95.2L111.8,94.0L113.4,91.1L114.3,88.9L114.8,88.0L114.8,87.6L115.4,86.0L115.9,84.5L115.8,84.2L114.8,83.9L98.3,83.9L97.6,84.6L97.0,85.8L96.7,86.6L96.2,87.2L95.5,88.4L94.5,89.6L92.1,92.2L90.7,93.5L89.2,94.5L88.8,94.9L86.1,96.4L83.7,97.3L83.2,97.3L81.3,97.7L78.4,97.7L77.3,97.5L76.5,97.3L75.3,96.7L73.9,95.8L71.6,93.7L56.3,74.7L53.6,72.0L52.0,70.8L51.0,70.2L50.5,69.8L46.9,67.9L44.4,67.1L43.6,67.0L41.5,66.4L37.8,66.1L29.7,66.1L29.5,66.1Z M119.0,66.2L118.7,65.9L118.2,65.7L90.1,65.8L87.7,66.0L86.9,66.2L85.2,66.4L83.7,66.9L83.0,67.0L82.4,67.3L81.8,67.4L81.3,67.7L78.4,68.9L76.4,70.3L74.6,71.7L72.2,74.2L70.3,76.7L70.0,76.9L68.5,79.1L67.5,80.2L66.3,81.8L66.3,82.3L66.8,83.2L69.3,86.3L69.4,86.5L73.1,91.1L74.6,92.5L76.0,93.4L76.7,93.7L77.5,93.7L78.1,93.1L78.2,92.8L81.1,89.4L82.7,87.2L85.4,84.3L87.3,82.9L89.2,81.9L90.4,81.5L93.2,81.0L96.2,81.1L97.1,80.9L98.8,81.1L105.1,81.0L115.1,81.0L116.8,80.7L117.5,78.7L118.0,76.4L118.0,75.7L118.4,74.1L118.5,72.4L118.9,69.3Z M66.3,46.7L66.3,47.3L66.4,47.6L67.2,48.5L67.5,49.1L68.3,49.8L69.6,51.8L74.2,56.5L76.2,58.0L79.6,59.9L80.1,60.0L80.9,60.5L82.3,60.9L83.5,61.5L85.4,62.1L89.3,62.9L91.1,62.9L92.6,63.0L111.8,62.8L116.1,62.9L118.6,62.7L119.0,62.4L119.1,60.2L118.7,55.8L117.5,49.3L117.0,48.0L116.7,47.5L116.2,47.4L111.9,47.3L92.6,47.5L89.6,47.0L88.0,46.3L86.3,45.4L84.6,44.1L83.5,43.1L81.5,40.9L81.2,40.3L80.1,39.1L79.1,37.7L77.0,35.3L76.3,35.3L75.6,35.6L74.8,36.2L73.6,37.4L67.1,45.4Z M47.5,14.8L44.3,15.0L41.9,15.4L40.8,15.8L40.4,15.8L37.1,16.9L36.8,16.9L35.0,17.7L34.6,17.8L31.6,19.3L26.9,22.4L25.4,23.6L22.2,26.6L19.9,29.2L17.4,32.6L17.3,33.0L16.9,33.3L16.3,34.7L15.6,35.8L15.3,36.5L15.0,36.9L13.2,41.4L13.1,42.0L12.8,42.4L12.6,43.5L12.3,44.0L12.1,45.0L11.6,46.3L10.4,52.1L9.7,56.8L9.2,62.9L9.2,66.7L9.4,69.4L9.9,73.0L10.0,74.6L10.2,75.3L10.5,77.1L10.6,77.3L11.5,81.6L12.5,84.6L13.0,85.8L13.4,87.3L14.1,88.7L14.3,89.7L16.1,93.4L17.0,94.7L17.5,95.7L19.2,98.2L20.6,100.0L23.8,103.3L27.5,106.5L32.5,109.8L34.4,110.8L36.1,111.4L36.5,111.7L37.5,111.9L37.6,112.1L40.8,113.0L43.9,113.5L49.4,113.8L54.1,113.2L56.2,112.7L59.0,111.7L60.2,110.9L60.3,110.3L55.7,104.4L52.7,100.7L51.5,99.0L49.8,97.1L48.8,97.0L47.2,97.5L44.2,97.5L43.5,97.4L42.0,96.9L40.5,96.0L38.5,94.6L36.6,93.0L34.3,90.3L33.0,88.6L31.9,86.7L30.5,83.7L30.5,83.5L29.6,81.4L29.4,80.6L29.1,80.3L29.1,79.7L28.6,78.6L28.6,77.8L27.3,72.8L26.8,69.0L26.6,65.4L26.8,64.5L26.7,62.0L27.0,58.7L27.2,57.6L27.3,55.7L27.7,54.1L27.7,53.5L28.1,51.8L28.2,50.8L29.1,47.5L30.3,44.5L31.1,42.9L31.7,42.2L32.1,41.2L33.8,38.7L35.8,36.5L37.8,34.7L40.5,33.1L41.9,32.4L43.4,31.9L45.6,31.5L48.2,31.7L48.8,32.0L49.7,32.0L50.0,31.8L55.1,25.6L55.7,24.6L56.8,23.5L57.7,22.1L60.2,19.1L60.7,18.2L60.6,17.9L60.4,17.7L59.2,17.1L54.6,15.6L51.3,15.0Z M115.6,43.1L115.0,41.7L114.5,39.9L113.2,36.9L112.9,36.6L112.7,35.8L112.4,35.6L111.7,34.2L111.0,33.2L110.4,32.1L109.0,30.2L106.3,27.0L104.7,25.3L102.1,23.0L99.9,21.5L99.4,21.1L95.0,18.4L93.5,17.7L93.3,17.7L93.0,17.5L92.5,17.3L91.2,16.6L89.9,16.3L89.3,16.0L88.5,15.8L88.1,15.6L87.2,15.4L85.8,14.9L85.0,14.9L84.1,14.5L81.2,14.2L78.2,14.3L75.8,14.5L71.4,15.6L70.7,16.0L68.4,16.8L65.1,18.8L63.2,20.3L60.0,23.5L58.9,25.1L57.2,27.1L55.7,29.0L54.4,30.5L53.1,32.4L50.2,35.8L46.2,41.1L44.1,43.4L41.7,45.8L40.7,46.4L39.2,47.2L37.7,47.6L36.2,47.8L32.3,47.8L31.8,48.1L31.4,48.8L31.0,50.1L30.8,51.1L30.6,51.6L29.9,55.3L29.7,56.0L29.4,58.5L29.1,59.6L29.1,62.5L29.1,62.9L29.7,63.3L31.2,63.4L37.1,63.3L37.9,63.1L39.8,63.0L42.2,62.6L45.6,61.6L47.7,60.7L48.4,60.1L50.6,59.0L51.7,58.1L52.4,57.8L55.5,55.3L57.5,53.2L62.3,47.0L63.0,46.4L67.5,40.6L68.7,39.2L71.2,35.9L74.7,32.4L76.5,31.4L77.9,30.8L78.3,30.8L79.3,30.5L82.3,30.4L84.4,30.7L86.6,31.5L87.3,31.9L87.6,31.9L87.9,32.2L90.5,33.8L93.3,36.5L95.4,39.1L97.4,42.3L98.2,44.1L98.7,44.6L101.1,44.8L114.5,44.6L115.4,44.5L115.7,44.3L115.8,43.9Z" fill="#000" fill-rule="evenodd"/>
</svg>