<svg xmlns="http://www.w3.org/2000/svg" viewBox="0 0 128 128" width="128" height="128">
  <path d="M58.8,81.6L58.0,81.5L56.8,82.5L56.6,82.9L50.9,88.5L50.6,88.9L43.1,96.5L43.1,97.4L46.6,101.0L47.1,101.3L47.5,101.3L48.5,100.5L56.4,92.2L58.2,90.5L62.5,86.0L62.5,85.4L61.8,84.5Z M54.4,66.3L51.1,69.6L50.9,69.9L50.9,70.4L51.1,70.7L59.8,79.8L60.9,80.7L66.1,85.9L73.0,93.0L73.7,93.5L74.6,94.7L78.1,98.1L78.3,98.4L79.1,99.3L80.0,100.3L80.4,100.5L81.1,100.5L81.4,100.4L84.8,96.8L84.8,96.3L84.5,95.7L83.9,95.1L83.4,94.9L82.8,94.3L81.3,93.6L81.1,93.4L81.2,92.6L80.4,91.6L66.5,77.6L66.4,77.3L59.9,70.8L58.5,69.2L55.8,66.5L55.3,66.1L54.7,66.1Z M9.9,68.6L10.5,70.3L11.6,72.7L11.9,73.0L12.1,73.6L13.3,75.2L14.6,76.7L16.3,78.1L18.2,79.5L21.3,81.0L24.7,81.9L26.0,82.1L28.9,82.2L31.0,81.9L31.6,81.7L33.1,81.4L36.5,80.1L38.6,78.8L40.5,77.3L45.8,71.9L46.1,71.5L47.5,70.2L51.4,66.4L54.9,62.6L61.7,55.9L62.7,54.7L62.8,54.0L61.2,52.3L60.7,52.0L59.1,50.3L58.3,50.4L44.6,64.0L43.8,65.0L40.0,68.8L39.5,69.4L37.3,71.5L36.7,72.3L35.5,73.3L33.1,74.8L32.7,74.8L31.9,75.2L31.6,75.2L30.2,75.7L28.5,75.9L26.9,75.9L25.5,75.7L22.6,74.8L20.7,73.6L19.7,72.8L18.4,71.5L17.2,69.8L16.5,68.6L16.2,67.4L16.0,67.0L15.8,65.7L15.6,65.0L15.7,62.5L15.9,61.1L16.5,59.4L17.4,57.6L18.3,56.3L20.3,54.4L22.7,53.0L25.0,52.2L26.6,52.0L28.7,52.0L30.1,52.1L31.4,52.5L33.9,53.8L35.3,54.9L39.7,59.2L41.8,61.5L42.8,62.2L43.4,62.1L45.5,60.2L46.8,58.8L47.1,58.4L47.1,58.0L46.8,57.4L40.4,50.8L37.8,48.8L34.4,47.0L31.4,46.2L28.2,45.8L26.4,45.8L23.5,46.2L21.0,47.0L18.5,48.2L16.7,49.3L15.3,50.5L13.9,51.9L12.1,54.0L11.6,55.3L11.3,55.7L10.4,57.7L9.5,61.1L9.3,62.9L9.3,65.1Z M118.2,58.2L117.3,55.8L116.7,55.3L116.5,54.4L114.8,52.0L112.6,49.8L109.4,47.7L108.9,47.5L107.7,46.9L105.7,46.2L102.6,45.7L99.0,45.7L96.2,46.2L95.0,46.6L94.5,46.7L94.0,47.0L93.0,47.4L91.2,48.4L89.1,49.9L87.5,51.6L85.6,53.3L82.8,56.3L81.6,57.4L69.1,70.0L68.8,70.2L65.9,73.3L65.9,74.0L69.3,77.5L69.7,77.7L70.6,77.7L74.3,74.0L74.9,73.5L75.4,72.8L78.1,70.1L78.8,69.5L79.1,69.1L81.5,66.7L81.7,66.3L84.3,63.8L90.5,57.3L93.8,54.0L95.5,53.0L98.0,52.0L99.6,51.7L102.2,51.7L103.6,52.0L105.7,52.6L106.7,53.1L106.9,53.3L107.7,53.6L109.4,55.1L110.4,56.1L111.2,57.3L112.6,60.3L113.0,62.4L113.0,65.2L112.8,66.1L112.2,68.1L110.9,70.4L109.8,71.8L108.5,72.9L106.2,74.3L104.5,74.9L102.7,75.3L99.5,75.3L98.2,75.1L95.5,74.0L93.8,73.0L86.4,65.5L85.8,65.2L85.3,65.2L83.8,66.5L81.8,68.6L81.5,69.2L81.5,69.4L81.9,70.2L86.6,74.9L88.5,76.6L90.9,78.5L93.2,79.8L95.9,80.8L99.1,81.5L102.5,81.5L105.5,81.0L108.9,79.8L110.0,79.2L112.2,77.7L114.9,75.1L116.7,72.6L118.4,68.8L118.4,68.3L119.0,65.7L119.0,61.2L118.5,59.6Z M48.0,27.7L44.6,30.8L44.2,31.5L44.2,31.9L44.4,32.3L46.0,34.0L46.6,34.5L47.6,35.6L48.6,36.6L50.5,38.7L52.4,40.4L58.9,47.0L59.4,47.7L64.3,52.4L73.2,61.4L73.8,61.6L74.4,61.5L77.9,57.8L78.0,57.4L77.8,56.8L75.0,54.0L74.5,53.6L68.3,47.0L61.9,40.7L61.7,40.3L54.2,32.8L54.1,32.5L50.6,29.1L49.6,27.8L49.0,27.5L48.4,27.5Z M82.6,27.1L81.7,27.1L80.5,28.1L67.0,41.6L66.8,42.0L66.8,42.5L67.0,42.8L70.1,46.2L70.4,46.3L71.0,46.3L72.2,45.3L72.8,44.5L85.8,31.5L85.8,30.4L84.6,29.1L84.2,28.8Z" fill="#000" fill-rule="evenodd"/>
</svg>