<svg xmlns="http://www.w3.org/2000/svg" viewBox="0 0 128 128" width="128" height="128">
  <path d="M77.1,96.0L76.9,96.2L76.8,97.0L77.0,108.7L77.4,117.0L78.0,117.3L90.1,117.6L91.6,117.4L91.8,117.3L92.0,116.5L91.8,98.7L91.6,96.5L91.0,96.0L88.8,95.9L85.2,96.0L77.7,95.8Z M14.1,79.1L14.1,82.4L14.3,84.1L14.3,85.9L14.4,87.9L14.5,92.0L14.7,93.4L15.2,93.8L23.1,93.8L25.1,94.0L29.5,94.0L42.3,94.4L44.8,94.3L46.9,94.5L52.7,94.6L55.1,94.5L55.7,94.1L55.3,79.4L54.9,78.9L48.1,78.5L39.1,78.5L36.6,78.4L34.2,78.5L16.0,78.4L14.5,78.5Z M70.3,74.2L69.0,74.0L57.2,73.9L56.8,74.0L56.6,74.3L56.5,77.6L56.7,82.7L56.7,88.2L57.0,98.8L56.8,101.1L56.4,101.8L55.9,102.2L54.9,102.7L53.6,102.7L52.9,102.3L52.5,102.0L51.9,100.9L51.5,98.4L51.4,96.0L51.0,95.6L45.5,95.5L44.0,95.3L40.8,95.4L38.8,95.2L37.2,95.3L36.8,95.6L36.7,96.9L36.9,102.4L37.1,104.7L37.8,107.4L38.8,110.1L40.1,112.3L43.0,115.5L45.4,117.0L47.7,118.0L50.8,118.7L53.6,119.0L56.7,119.0L57.6,118.7L58.5,118.7L60.4,118.2L64.0,116.6L65.0,115.8L65.8,115.5L66.7,114.6L68.5,112.4L70.1,109.5L70.6,108.2L71.4,103.5L71.4,90.6L71.2,88.4L71.2,83.1L70.8,74.7Z M51.8,58.1L51.7,59.9L51.9,66.0L52.1,67.8L52.1,72.1L52.2,72.5L52.5,72.7L62.2,73.0L74.6,72.9L74.9,72.7L75.1,72.3L75.1,70.2L74.9,69.4L75.0,65.8L74.8,61.0L74.8,58.4L74.5,58.0L73.9,57.7L55.7,57.7L52.2,57.8Z M113.7,64.6L111.3,62.0L109.7,60.7L106.5,59.0L104.5,58.3L102.0,57.7L100.5,57.6L92.3,57.6L92.0,57.8L92.3,65.1L92.4,72.2L92.6,72.6L92.9,72.8L97.6,72.9L99.6,73.2L100.3,73.7L101.3,74.8L101.5,76.2L101.2,77.0L100.4,77.9L99.0,78.5L97.2,78.9L85.0,79.0L77.6,78.8L72.5,79.0L72.3,79.2L72.2,79.6L72.6,94.5L73.3,94.8L84.2,95.0L96.5,94.9L100.0,94.7L101.1,94.4L102.3,94.3L106.0,93.3L108.8,92.0L110.7,90.8L113.2,88.3L115.1,85.5L116.2,83.2L116.7,81.2L117.3,77.9L117.2,73.4L116.6,70.7L116.2,69.7L115.9,68.6Z M90.4,53.6L89.9,53.4L88.5,53.3L77.4,53.4L76.3,53.6L75.9,54.0L75.8,57.8L76.1,60.6L76.1,66.0L76.3,67.0L76.3,74.4L76.5,77.6L77.3,77.9L90.5,77.9L90.9,77.8L91.2,77.5L91.2,67.2L90.9,59.5L91.0,58.6L90.8,57.8L90.8,54.5L90.7,54.0Z M35.4,53.5L35.2,53.7L35.1,55.7L36.0,77.1L36.9,77.6L50.7,77.6L51.1,76.8L50.8,70.5L50.9,67.9L50.8,65.7L50.5,64.0L50.4,56.7L50.2,53.9L49.5,53.5L48.6,53.4L36.1,53.3Z M53.5,36.7L53.0,36.5L50.9,36.5L49.5,36.3L29.5,36.3L28.1,36.5L26.2,36.5L21.8,37.4L19.6,38.2L18.2,38.9L16.1,40.5L13.7,43.1L12.6,45.0L12.3,46.3L11.9,47.0L11.8,47.8L11.4,49.3L11.0,52.4L11.0,54.6L11.4,58.6L11.9,60.8L12.4,62.2L13.4,64.3L14.9,66.6L17.9,69.6L19.7,70.9L22.0,71.9L24.0,72.4L27.3,72.7L32.9,72.8L34.3,72.6L34.8,72.1L34.8,70.6L34.5,67.6L34.5,62.1L34.3,61.2L34.2,58.1L33.6,57.7L29.2,57.7L27.8,57.2L26.9,56.5L26.6,55.4L26.6,54.7L26.9,53.9L27.7,53.0L28.7,52.5L29.7,52.3L50.4,52.3L53.7,52.2L54.2,51.9L54.1,45.7L54.0,44.6L53.9,37.1Z M71.2,36.7L71.2,38.9L71.6,51.6L71.7,52.0L72.1,52.2L80.7,52.2L81.8,52.4L89.3,52.2L91.6,52.3L93.2,52.2L108.2,52.2L114.2,52.1L114.5,52.0L114.7,51.6L114.6,47.6L114.6,42.0L114.5,40.8L114.4,36.6L114.0,36.1L74.8,36.1L72.0,36.2L71.6,36.3Z M33.8,12.3L33.5,12.6L33.5,16.5L33.8,20.2L34.0,26.6L34.2,28.2L34.2,34.5L34.4,35.1L35.0,35.3L48.1,35.3L49.3,35.1L49.5,34.9L49.6,34.2L49.2,25.3L49.1,20.0L48.8,17.4L48.8,14.6L48.6,12.7L48.0,12.1L36.9,12.1Z M81.2,11.6L78.5,10.3L77.8,10.2L76.7,9.8L74.6,9.4L70.9,9.3L67.6,9.8L66.7,10.2L65.5,10.5L63.1,11.6L62.5,12.1L61.8,12.5L60.3,13.6L58.2,15.8L57.0,17.6L56.4,19.1L56.3,19.7L55.9,20.3L55.2,22.9L54.7,27.0L55.1,43.5L55.3,44.1L55.3,47.7L55.6,53.9L55.5,55.0L55.6,56.1L55.9,56.5L58.8,56.7L69.6,56.6L70.2,56.3L70.2,45.8L70.0,43.3L70.1,41.7L69.9,40.8L69.9,36.7L69.6,33.1L69.6,29.8L69.8,28.6L70.2,27.7L71.4,26.5L72.9,26.4L73.5,26.6L74.7,27.8L75.2,29.0L75.5,34.6L75.9,35.1L89.5,35.1L89.9,35.0L90.2,34.6L90.3,30.9L90.2,29.6L90.1,25.9L89.7,24.4L89.5,22.8L88.5,19.7L87.0,16.9L85.2,14.6L82.8,12.5L82.2,12.3Z" fill="#000" fill-rule="evenodd"/>
</svg>