<svg xmlns="http://www.w3.org/2000/svg" viewBox="0 0 128 128" width="128" height="128">
  <path d="M98.3,92.5L98.3,90.6L98.0,88.2L97.4,85.8L97.0,84.7L96.0,82.4L95.4,81.6L95.2,81.2L93.7,79.3L93.2,78.9L92.6,79.0L92.1,79.4L81.8,89.9L81.4,90.5L81.5,91.6L80.9,92.3L80.5,92.5L80.1,92.4L79.0,91.5L71.0,83.4L70.4,82.9L68.1,80.6L66.3,79.1L65.7,79.1L63.9,80.7L62.5,82.3L55.8,89.0L54.8,90.3L54.9,91.0L66.7,102.8L70.2,105.8L71.6,106.7L73.4,107.6L74.7,108.1L76.8,108.7L79.6,109.0L83.0,108.9L86.1,108.1L86.3,108.0L87.0,107.8L88.9,106.9L90.5,105.9L91.9,104.9L93.8,103.1L95.0,101.7L96.4,99.2L97.5,96.5L98.1,94.0Z M55.0,65.7L54.4,66.0L48.5,71.7L47.4,73.1L41.1,79.5L38.9,82.1L37.6,84.7L37.5,85.2L37.3,85.6L36.7,87.2L36.1,91.1L36.3,94.4L37.3,98.3L38.8,101.2L39.6,102.3L39.8,102.7L40.7,103.8L42.7,105.8L45.4,107.5L47.2,108.3L49.1,109.0L52.0,109.5L55.4,109.5L57.7,109.1L58.2,108.9L59.5,108.6L61.2,107.9L61.4,107.9L61.8,107.6L63.9,106.5L64.8,105.8L66.4,104.2L66.3,103.5L64.0,101.2L63.2,100.3L60.3,97.6L59.5,96.6L58.9,96.1L55.4,92.6L54.5,92.5L53.6,92.7L53.4,92.6L52.9,92.1L53.0,91.2L54.0,89.8L55.9,88.1L56.7,87.2L59.6,84.4L60.4,83.3L61.3,82.6L63.1,80.7L66.1,77.1L66.0,76.6L64.7,75.1L55.4,65.9Z M81.8,65.4L81.4,65.4L80.7,66.0L80.5,66.4L79.7,67.4L77.5,69.5L68.6,78.4L68.2,79.1L68.2,79.5L68.8,80.2L73.8,85.2L74.3,85.9L76.3,87.8L77.2,88.9L79.3,90.7L80.0,90.7L89.6,80.7L89.8,80.4L93.0,77.0L92.8,76.4L83.2,66.5Z M65.3,51.9L64.8,52.1L63.7,53.0L63.0,53.9L62.6,54.1L61.2,55.7L59.5,57.3L57.7,59.3L54.7,62.4L54.2,63.3L54.2,63.5L65.6,75.1L67.7,77.0L68.1,77.2L68.7,77.1L69.7,76.2L73.2,72.5L76.8,69.3L78.6,67.3L79.5,66.6L79.6,66.4L79.6,65.9L77.9,64.0L66.8,52.9L65.6,51.9Z M92.3,51.5L90.6,53.1L90.3,53.6L85.9,57.9L85.5,58.6L81.8,62.1L81.4,62.8L81.3,63.2L81.5,63.7L82.2,64.2L83.9,66.2L91.7,74.1L96.0,78.1L97.0,79.3L104.1,86.2L106.0,88.3L107.2,89.4L108.1,89.5L113.0,84.3L114.2,83.3L116.2,81.1L118.8,78.7L118.9,77.9L117.9,76.6L116.1,75.0L116.1,74.7L114.7,73.5L108.2,67.0L107.4,66.1L106.7,65.6L104.3,63.3L103.4,62.2L95.7,54.4L94.1,52.5L93.2,51.7Z M24.6,46.9L21.5,47.7L19.9,48.2L18.3,49.1L15.5,51.0L13.9,52.6L12.8,53.9L11.5,56.0L10.0,59.4L9.3,62.5L9.3,66.5L9.7,68.8L10.2,70.2L10.2,70.6L10.6,71.5L10.7,72.0L11.4,73.0L11.5,73.5L12.8,75.6L14.1,77.0L16.3,79.0L19.7,81.0L22.0,81.8L22.8,81.9L23.7,82.2L24.8,82.4L29.9,82.3L32.7,81.6L35.2,80.6L38.6,78.3L39.4,77.4L39.4,77.0L38.4,75.8L35.1,72.4L28.0,65.6L26.9,65.6L26.5,65.5L26.2,65.1L26.1,64.4L26.5,64.0L26.9,63.8L27.3,63.9L28.2,64.6L37.1,73.6L37.5,73.8L38.5,74.8L39.2,75.6L41.3,77.4L41.7,77.4L42.5,76.8L45.3,73.9L47.1,72.3L49.2,70.2L51.4,67.7L52.8,66.4L53.0,65.9L52.8,65.5L51.5,64.1L51.4,63.8L49.4,62.0L48.1,60.6L44.8,57.4L41.2,53.7L39.8,52.4L39.0,51.4L36.8,49.8L36.1,49.5L34.6,48.4L32.8,47.8L30.6,47.2L27.7,46.8Z M107.2,39.1L106.8,39.1L106.2,39.4L101.1,44.9L99.0,46.9L98.8,47.3L94.7,51.4L94.7,52.2L96.9,54.2L99.1,56.7L102.4,60.0L104.8,62.5L105.5,63.1L105.9,63.3L106.4,63.2L112.3,57.2L112.8,56.5L117.1,52.1L118.2,50.6L118.1,50.1L117.4,49.2L113.9,45.9L112.8,44.6L107.6,39.3Z M55.2,38.5L54.4,38.6L45.8,47.0L42.8,50.1L41.2,51.9L41.2,52.4L52.1,63.4L52.7,63.3L54.7,61.4L55.3,60.6L58.4,57.7L58.6,57.3L59.4,56.7L60.8,55.2L63.9,52.3L65.9,50.0L65.9,49.6L65.8,49.2L59.2,42.6L55.4,38.6Z M97.3,31.5L96.6,29.5L96.0,28.2L95.7,27.8L95.6,27.4L93.6,24.5L91.0,22.2L89.9,21.6L89.1,20.9L87.6,20.2L85.0,19.3L82.3,18.7L78.7,18.6L76.3,19.0L74.7,19.5L73.4,19.9L72.4,20.4L72.2,20.7L71.5,20.8L69.0,22.6L67.3,24.1L67.3,24.5L67.5,24.9L68.6,25.9L70.9,28.5L71.5,29.0L71.7,29.3L74.3,31.9L75.9,33.7L75.9,34.1L75.4,33.8L73.6,32.1L70.9,29.2L70.0,28.6L69.1,27.5L66.3,24.8L64.4,23.1L62.7,22.1L59.8,20.7L57.2,19.9L55.1,19.7L52.6,19.7L51.0,19.9L48.5,20.4L46.6,21.2L45.2,21.9L43.5,23.0L40.7,25.5L38.7,28.3L38.4,29.0L38.2,29.2L37.6,30.4L36.6,33.3L36.1,37.3L36.2,40.0L37.1,43.6L38.3,46.3L40.5,49.4L41.2,49.9L41.6,49.9L52.8,39.0L53.0,38.4L52.9,37.8L53.0,37.0L53.5,36.7L54.1,36.7L54.9,37.0L56.8,38.9L61.4,43.7L66.3,48.7L67.5,49.6L67.9,49.7L68.5,49.7L72.7,45.5L74.5,43.9L78.8,39.6L79.4,38.8L79.5,38.2L77.9,36.3L78.0,35.9L78.5,36.2L79.4,36.2L79.7,36.0L80.4,36.1L80.9,36.5L81.0,37.3L80.9,38.2L80.6,38.7L69.8,49.4L68.3,51.0L67.5,52.0L67.5,52.4L74.9,59.9L75.7,60.9L76.3,61.4L77.9,62.9L78.4,63.6L78.6,63.8L79.1,63.8L79.5,63.5L80.2,62.4L86.9,55.8L87.8,54.8L90.5,52.1L91.1,51.1L93.7,48.2L95.7,45.3L97.0,42.5L97.9,38.5L97.9,34.1Z M76.2,34.1L77.7,35.6L77.6,35.9L76.8,35.3L76.0,34.3Z" fill="#000" fill-rule="evenodd"/>
</svg>