<svg xmlns="http://www.w3.org/2000/svg" viewBox="0 0 128 128" width="128" height="128">
  <path d="M114.5,15.3L112.3,13.4L111.2,12.7L109.1,11.7L105.9,10.9L104.6,10.9L103.7,10.7L67.5,10.9L30.6,10.8L28.5,11.0L23.6,11.0L21.1,11.2L19.5,11.7L16.4,13.2L14.3,14.8L13.0,16.1L12.0,17.4L10.6,19.9L9.7,22.9L9.6,24.3L9.5,27.1L9.5,36.8L9.6,43.5L9.6,61.7L9.8,68.3L9.7,74.8L10.1,103.7L10.4,106.4L11.1,108.8L12.4,111.1L14.3,113.4L17.2,115.6L19.5,116.7L22.2,117.4L24.2,117.6L40.2,117.3L41.9,117.1L46.8,117.1L48.9,116.9L53.7,116.9L60.0,116.7L62.3,116.8L65.6,116.7L67.1,116.5L73.5,116.5L76.1,116.3L81.8,116.3L86.5,116.1L99.7,116.1L101.1,115.9L104.0,115.9L106.3,115.7L109.6,114.8L111.2,114.0L113.3,112.7L115.5,110.2L116.1,109.3L116.8,108.6L117.5,107.3L118.4,104.9L118.8,100.2L118.8,57.9L118.6,49.6L118.7,44.6L118.5,27.9L118.3,25.4L118.3,23.1L117.9,20.9L116.8,18.3Z M50.5,84.5L52.7,84.2L55.8,84.2L56.5,84.4L56.8,84.7L56.9,103.4L56.7,104.1L56.4,104.5L55.9,104.7L50.8,104.8L50.6,104.7L50.2,104.1L50.0,92.9L50.1,84.8Z M66.9,72.8L66.9,77.2L66.8,77.8L66.1,78.3L59.7,78.6L57.7,78.5L55.8,78.7L52.0,78.6L36.8,79.0L32.9,78.9L23.8,79.1L23.1,78.9L22.8,78.6L22.6,77.3L22.7,73.0L23.0,72.7L24.0,72.5L40.5,72.3L42.9,72.1L54.8,72.0L56.6,71.8L58.6,71.9L60.6,71.7L65.7,71.7L66.5,72.0Z M106.5,71.9L106.5,76.8L106.3,77.2L105.6,77.7L93.4,78.0L86.1,78.0L85.7,77.9L85.3,77.2L85.3,72.0L85.6,71.7L86.3,71.4L105.3,71.3L106.1,71.4Z M73.6,62.0L78.5,61.9L79.1,62.4L79.3,63.0L79.2,64.2L79.4,80.7L79.4,103.4L79.3,103.7L78.5,104.2L73.3,104.2L72.8,103.7L72.8,102.9L72.7,62.7L73.1,62.2Z M44.1,50.8L44.1,54.8L43.9,56.1L43.6,56.3L41.2,56.6L31.6,56.6L23.8,56.7L23.0,56.6L22.6,56.1L22.4,52.8L22.5,50.8L22.7,50.5L23.0,50.3L26.0,50.1L33.1,50.2L35.6,50.0L43.4,50.0L43.6,50.1Z M106.4,50.0L106.4,54.6L106.2,55.3L105.2,55.8L64.0,56.3L63.3,56.2L62.6,55.6L62.5,55.2L62.5,50.3L62.8,49.9L63.4,49.7L76.1,49.5L78.7,49.6L84.0,49.4L94.0,49.5L96.7,49.3L105.3,49.3L106.0,49.6Z M51.2,23.3L55.9,23.4L56.5,23.9L56.6,24.9L56.6,29.1L56.8,51.3L56.8,64.8L56.7,65.5L56.1,66.1L55.6,66.2L50.7,66.2L50.2,65.8L50.0,65.4L49.7,24.6L49.8,24.0L50.3,23.5Z M73.1,23.3L78.1,23.3L78.5,23.4L78.9,23.9L79.1,32.6L79.1,43.2L78.5,43.8L73.4,43.9L72.9,43.7L72.6,43.3L72.4,35.1L72.4,24.0L72.8,23.5Z" fill="#000" fill-rule="evenodd"/>
</svg>