<svg xmlns="http://www.w3.org/2000/svg" viewBox="0 0 128 128" width="128" height="128">
  <path d="M62.1,9.1L59.8,9.3L57.7,9.8L57.5,10.0L55.3,10.5L54.6,10.9L53.9,11.1L52.8,11.7L51.3,12.3L49.2,13.7L48.9,14.0L48.5,14.1L45.1,17.1L42.3,20.4L42.1,20.9L41.7,21.2L39.7,24.7L39.0,26.8L38.6,27.5L38.1,29.5L37.8,30.2L37.1,34.1L37.1,36.1L37.0,36.4L36.6,36.8L35.2,37.0L33.0,37.1L31.9,37.4L31.0,37.5L28.6,38.1L25.9,39.2L23.3,40.4L22.9,40.8L21.4,41.6L18.6,43.9L17.0,45.5L14.6,48.5L14.5,48.9L13.6,49.9L13.4,50.5L13.0,51.0L12.3,52.6L11.9,53.2L11.9,53.5L11.3,54.8L10.7,56.7L10.0,59.7L9.7,62.7L9.6,65.7L9.8,67.6L10.3,70.9L11.8,75.3L12.5,76.6L14.0,79.4L15.3,81.1L16.9,83.0L18.8,85.0L19.9,85.8L20.3,86.0L21.0,86.6L21.6,87.0L22.6,87.7L25.1,89.1L26.8,89.8L27.0,89.8L27.5,90.1L30.2,90.9L33.3,91.5L36.2,91.8L36.7,92.2L36.8,92.9L36.9,94.8L37.2,96.2L37.3,97.4L37.6,98.1L38.2,100.5L39.1,103.0L40.3,105.4L41.6,107.5L43.1,109.3L43.2,109.5L45.9,112.3L46.5,112.7L47.7,113.8L50.7,115.7L55.8,117.9L57.4,118.4L57.8,118.4L59.0,118.8L60.3,119.1L61.5,119.0L62.7,119.1L67.4,119.0L68.3,118.7L69.1,118.6L70.0,118.3L70.4,118.3L71.5,117.9L72.1,117.8L76.5,116.1L77.3,115.4L78.1,115.1L79.9,113.9L82.9,111.4L84.7,109.5L86.2,107.7L87.2,106.1L87.4,105.6L88.1,104.7L89.7,101.2L90.0,100.1L90.0,99.7L90.3,99.1L90.4,98.3L91.0,95.8L91.2,94.1L91.2,92.4L91.6,91.8L92.4,91.5L94.6,91.5L98.1,90.7L98.8,90.4L100.3,90.1L101.6,89.5L102.0,89.4L105.4,87.7L107.2,86.5L111.3,82.9L113.7,80.1L114.4,78.8L114.5,78.5L115.4,77.3L115.5,76.9L115.9,76.3L117.0,73.6L117.8,70.9L118.1,70.1L118.1,69.5L118.3,68.6L118.6,66.4L118.6,62.9L118.4,62.1L118.4,60.6L118.2,58.9L117.9,58.3L117.7,56.7L116.7,53.8L114.9,50.4L113.7,48.7L113.7,48.5L111.7,46.0L110.7,45.0L110.0,44.6L109.5,44.0L106.6,41.7L105.4,40.8L103.1,39.6L98.4,37.7L94.4,37.1L92.7,37.1L92.2,36.9L91.8,36.5L91.6,35.6L91.4,32.8L91.1,31.7L91.0,30.6L90.6,29.7L90.5,29.0L90.1,27.5L89.2,25.3L88.3,23.5L87.5,22.1L86.4,20.6L86.0,19.8L83.7,17.2L80.4,14.4L79.1,13.5L78.8,13.4L77.5,12.5L73.5,10.8L72.9,10.4L69.8,9.7L68.9,9.6L68.6,9.4L65.0,9.1Z M52.1,76.2L52.6,76.9L52.7,81.6L52.6,83.3L52.4,83.7L51.8,84.1L50.7,84.2L45.0,84.1L44.6,83.7L44.4,83.2L44.3,78.0L44.5,76.8L45.0,76.4L45.6,76.3L46.3,76.0L51.4,75.9L51.8,76.0Z M67.4,75.8L68.0,76.2L68.1,76.9L68.0,83.1L68.0,91.3L68.3,91.5L69.6,91.5L75.1,91.4L82.9,91.4L83.1,91.5L83.6,91.9L83.8,92.5L83.6,95.4L83.3,97.0L82.8,98.5L82.8,98.9L82.4,99.7L82.4,99.9L81.6,101.5L81.3,101.9L80.7,103.4L78.9,105.6L76.4,107.9L74.0,109.7L71.1,111.0L68.9,111.6L68.4,111.9L67.2,112.0L65.2,112.4L61.3,112.3L60.0,111.9L58.8,111.7L58.0,111.4L57.3,111.3L55.5,110.4L55.0,110.3L54.7,110.0L54.3,109.8L53.0,109.0L52.6,108.6L51.3,107.9L50.0,106.6L48.5,104.9L48.4,104.7L47.8,104.1L47.2,103.3L47.1,102.8L46.8,102.5L46.4,101.8L45.7,99.8L45.2,98.9L44.6,96.7L44.2,92.8L44.3,92.2L44.9,91.8L46.1,91.6L52.3,91.7L54.8,91.5L59.6,91.5L59.9,91.2L60.0,90.8L60.0,78.8L60.2,76.3L60.5,76.0L61.1,75.8L63.6,75.8L65.1,75.7Z M76.0,75.8L76.7,75.6L82.4,75.6L82.9,75.8L83.3,76.1L83.5,76.9L83.5,83.2L83.4,84.0L83.2,84.2L76.2,84.3L75.7,84.0L75.6,78.0L75.6,76.2Z M60.6,60.4L62.9,60.1L66.8,60.1L67.4,60.3L67.8,60.7L68.0,61.6L68.1,66.9L67.8,67.9L67.4,68.3L61.1,68.3L60.4,67.9L60.2,66.9L60.2,61.4L60.3,60.7Z M45.0,44.7L45.7,44.5L50.7,44.5L52.0,44.6L52.4,44.8L52.8,45.1L52.8,51.2L52.6,52.0L52.2,52.5L51.8,52.6L45.5,52.6L45.1,52.6L44.8,52.3L44.6,51.8L44.6,45.6L44.6,45.1Z M83.2,44.8L83.4,45.1L83.5,47.6L83.4,51.5L83.3,52.0L82.8,52.3L82.2,52.5L78.8,52.5L76.5,52.2L76.0,51.8L76.0,48.1L76.2,45.0L76.5,44.7L77.1,44.5L79.6,44.6L80.1,44.4L82.5,44.5Z M35.1,44.4L36.4,44.4L36.9,45.2L37.0,56.7L37.1,57.6L37.1,59.7L37.4,60.2L38.0,60.4L51.4,60.3L52.2,60.5L52.6,60.8L52.7,61.2L52.6,67.5L52.4,67.9L52.1,68.3L51.5,68.4L49.6,68.5L39.8,68.5L39.5,68.7L37.5,68.5L37.1,68.7L37.0,69.0L37.1,71.1L36.9,71.7L37.1,76.5L37.1,83.1L37.0,83.7L36.6,84.1L35.0,84.1L33.4,83.9L32.9,83.6L30.2,83.0L28.7,82.5L28.3,82.1L27.8,82.1L27.4,81.7L27.0,81.6L26.5,81.2L26.3,81.2L23.2,78.8L20.8,76.3L19.9,75.1L18.5,72.4L17.4,69.4L17.3,67.9L16.8,66.3L16.7,63.7L17.0,61.2L17.5,59.6L17.6,58.6L17.9,57.9L18.1,57.2L19.6,54.1L21.8,51.1L22.7,50.0L24.1,48.8L26.9,46.9L29.8,45.5L30.1,45.5L31.5,45.0L32.2,44.9L33.0,44.6Z M92.0,44.2L95.4,44.4L98.5,45.6L101.8,47.3L103.7,48.7L106.4,51.2L107.5,52.7L108.1,53.3L108.1,53.6L108.5,54.1L108.7,54.5L109.6,56.0L110.8,59.6L111.3,62.7L111.3,65.6L110.9,68.4L110.5,70.0L110.3,70.5L109.9,71.7L108.9,73.9L108.2,74.8L107.0,76.7L104.4,79.4L101.6,81.4L101.2,81.5L99.9,82.3L99.5,82.4L97.9,83.2L95.8,83.7L93.2,84.1L91.6,84.1L91.2,83.6L91.0,83.2L91.0,68.9L90.9,68.5L90.4,68.3L86.4,68.2L85.0,68.3L76.5,68.3L76.1,68.3L75.7,67.8L75.5,65.8L75.6,61.6L75.7,60.6L76.1,60.1L76.6,60.0L82.8,59.7L90.3,59.7L90.9,59.5L90.9,57.8L91.1,56.3L91.1,45.1L91.3,44.8Z M61.0,16.8L62.5,16.7L65.9,16.7L67.6,16.9L71.8,18.2L75.5,20.1L76.9,21.2L78.9,23.2L80.7,25.3L80.7,25.5L82.1,27.8L82.8,29.3L83.3,30.6L83.9,33.2L84.2,34.9L84.2,36.0L83.7,36.5L83.2,36.7L69.8,36.7L68.9,36.8L68.3,37.2L68.1,37.5L68.1,43.8L67.9,45.4L67.7,51.8L67.4,52.2L66.9,52.3L64.2,52.3L62.9,52.5L61.6,52.5L60.7,52.2L60.3,51.9L60.1,44.4L60.2,38.1L60.0,37.5L59.5,37.1L58.0,36.9L50.1,36.8L47.0,37.0L45.0,36.8L44.6,36.4L44.6,33.8L45.0,32.0L45.9,29.0L47.0,26.8L47.4,26.3L47.9,25.3L48.5,24.3L49.9,22.8L50.0,22.6L51.7,21.1L54.6,19.0L57.7,17.7L58.0,17.7Z" fill="#000" fill-rule="evenodd"/>
</svg>