<svg xmlns="http://www.w3.org/2000/svg" viewBox="0 0 128 128" width="128" height="128">
  <path d="M63.8,42.4L59.5,42.8L57.0,43.3L54.2,44.2L51.9,45.1L50.4,45.8L50.0,45.9L48.1,47.0L47.8,47.3L47.4,47.5L44.8,49.2L42.6,51.2L40.4,53.4L37.6,57.1L36.1,59.8L34.4,63.5L33.5,66.2L33.2,68.0L33.0,68.7L33.0,69.5L32.7,70.5L32.7,71.4L32.4,73.0L32.4,76.6L32.8,79.6L33.4,82.7L33.6,83.2L34.2,85.4L35.8,89.0L37.5,92.1L39.2,94.5L40.9,96.5L43.8,99.2L46.2,101.1L49.1,102.8L50.9,103.8L51.6,103.9L52.1,104.3L53.9,104.9L54.5,105.2L55.7,105.4L56.8,105.8L58.5,106.2L59.8,106.3L60.8,106.6L61.9,106.6L62.5,106.7L65.8,106.7L67.8,106.6L72.1,105.8L72.9,105.5L73.5,105.4L74.4,105.0L76.1,104.5L77.7,103.7L78.2,103.6L81.7,101.6L84.4,99.6L87.4,96.9L90.0,93.9L91.1,92.2L92.9,89.1L93.1,88.5L93.9,87.2L94.2,85.9L94.5,85.4L94.5,85.0L95.0,84.0L96.0,79.4L96.3,74.0L96.0,69.9L95.6,67.6L94.9,65.1L93.4,61.2L91.9,58.3L90.1,55.5L88.9,54.0L84.9,49.9L82.3,48.0L78.8,45.8L76.6,45.0L76.3,44.7L73.9,43.9L70.9,43.0L69.6,43.0L68.7,42.7L67.3,42.5Z M63.5,60.0L66.2,60.1L68.9,60.7L71.9,62.0L73.8,63.5L75.8,65.4L77.3,67.9L77.9,69.2L78.4,70.7L78.9,73.1L78.9,76.0L78.4,78.8L78.2,79.3L77.7,80.6L77.0,82.2L75.3,84.4L73.9,85.8L72.2,87.1L69.3,88.5L69.0,88.5L68.2,88.9L66.6,89.2L65.7,89.2L64.8,89.4L62.5,89.2L59.0,88.3L57.0,87.3L55.7,86.4L54.4,85.3L52.2,82.7L51.4,81.3L50.3,78.7L50.2,77.5L49.9,76.7L49.8,75.5L49.9,72.9L50.9,69.3L51.0,69.1L51.4,68.1L52.4,66.3L53.7,64.8L55.7,62.9L57.9,61.5L60.2,60.6L62.0,60.2Z M119.0,22.1L118.9,21.8L118.5,21.5L108.0,21.4L102.8,21.6L67.0,21.5L57.0,21.7L46.3,21.6L9.9,21.8L9.5,21.9L9.3,22.9L9.3,41.4L9.5,41.7L9.8,41.9L12.4,42.0L19.9,41.9L28.7,41.9L41.0,41.8L73.6,41.9L81.4,41.7L118.5,41.7L119.0,41.2L119.0,38.6Z" fill="#000" fill-rule="evenodd"/>
</svg>