<svg xmlns="http://www.w3.org/2000/svg" viewBox="0 0 128 128" width="128" height="128">
  <path d="M9.8,119.7L9.9,120.2L10.6,120.2L10.2,119.7Z M18.4,115.9L17.9,116.4L17.7,116.8L17.7,117.4L17.9,118.0L17.9,118.5L17.6,119.3L17.6,120.1L17.7,120.2L18.2,120.2L18.1,119.4L18.4,118.8L18.7,118.7L19.5,118.7L20.0,119.2L20.0,120.2L20.5,120.2L20.6,119.1L20.3,118.2L20.7,117.4L20.6,116.5L19.8,115.8L19.0,115.7Z M18.9,116.2L19.7,116.4L20.1,117.0L20.1,117.4L19.3,118.0L18.7,117.9L18.3,117.4L18.3,116.9Z M16.1,115.7L15.6,115.6L14.7,115.6L14.3,115.8L13.8,116.4L13.8,117.2L14.1,117.3L14.3,117.0L14.3,116.7L14.8,116.1L15.6,116.0L16.1,116.5L16.3,116.8L16.2,117.5L15.7,118.0L14.6,118.7L13.8,119.3L13.8,120.2L14.3,120.2L14.3,119.8L14.4,119.5L15.5,118.7L16.1,118.4L16.6,117.9L16.8,117.4L16.8,116.5L16.7,116.2Z M10.6,115.6L10.0,116.1L9.9,116.4L9.9,118.0L10.5,118.7L12.1,119.0L12.2,119.7L12.1,119.9L11.7,120.2L12.5,120.2L12.8,119.4L12.7,116.2L12.2,115.6L11.8,115.5Z M11.0,116.0L11.8,116.0L12.3,116.8L12.2,117.7L11.6,118.3L10.9,118.3L10.6,118.1L10.3,117.7L10.4,116.5Z M65.0,9.2L64.7,9.2L64.3,9.8L63.7,12.3L62.7,14.4L62.6,15.1L62.2,15.6L62.2,16.1L61.8,16.9L60.4,18.9L60.3,19.2L58.5,21.2L56.6,22.7L56.2,22.9L55.2,23.6L54.4,23.9L53.1,24.6L49.4,25.9L45.6,26.8L41.8,27.3L40.5,27.7L38.8,27.9L34.2,29.3L31.8,30.5L31.2,30.7L30.6,31.1L26.7,33.0L26.2,33.4L25.9,33.5L25.6,33.8L24.5,34.4L22.4,36.0L21.9,36.3L17.1,41.5L15.6,43.6L14.3,46.0L13.3,47.4L12.9,48.6L12.6,49.0L11.7,51.2L11.5,52.3L11.2,52.7L11.1,53.3L10.6,54.6L9.7,59.1L9.5,63.0L9.5,66.2L9.7,67.1L9.7,68.6L10.2,72.1L11.0,75.4L11.7,77.2L11.9,77.4L12.4,78.9L14.2,82.6L14.4,82.9L15.9,85.5L18.9,89.3L22.0,92.2L24.4,94.3L27.9,96.6L31.0,98.1L32.8,98.9L36.7,100.1L37.7,100.2L38.3,100.4L39.7,100.7L40.4,100.7L41.9,101.1L42.9,101.2L44.3,101.6L45.4,101.8L46.1,102.1L47.2,102.2L51.1,103.6L51.8,104.0L52.3,104.1L53.7,104.7L55.3,105.7L57.0,106.8L58.7,108.5L59.6,109.6L60.7,111.2L62.1,113.9L63.0,116.8L63.1,118.6L63.5,119.1L64.0,119.0L64.0,118.8L64.2,117.1L65.1,114.5L65.7,113.5L66.0,112.6L67.2,110.9L67.4,110.3L68.4,109.1L70.2,107.3L71.7,106.2L73.7,105.0L76.3,103.9L80.2,102.6L81.2,102.3L81.8,102.3L83.8,101.8L90.3,100.7L94.6,99.5L96.7,98.5L96.9,98.5L101.3,96.2L103.4,94.9L104.9,93.6L105.4,93.4L106.4,92.3L106.8,92.1L109.2,89.7L111.5,86.8L113.0,84.7L115.1,80.8L116.5,77.8L117.8,73.7L118.3,70.9L118.8,66.9L118.8,64.1L118.4,61.2L118.4,59.9L118.0,58.3L117.8,56.6L117.0,53.9L116.6,52.9L116.5,52.4L116.2,51.8L116.0,51.1L114.7,48.0L113.4,45.6L111.4,42.6L109.3,40.0L106.6,37.3L104.4,35.4L104.0,35.2L103.1,34.4L100.8,33.1L100.3,32.7L98.1,31.5L96.4,30.8L95.5,30.5L94.6,30.0L93.9,29.9L93.4,29.6L91.0,29.0L89.8,28.6L89.3,28.6L88.4,28.3L84.6,27.6L84.0,27.4L82.9,27.2L82.3,26.9L79.9,26.3L79.5,26.1L78.0,25.7L77.4,25.3L76.6,25.1L74.0,23.8L72.6,22.9L71.2,21.7L69.2,19.7L69.1,19.3L67.9,17.6L67.7,16.9L66.4,14.5L66.4,14.3L65.4,12.0L65.4,11.6L65.1,10.8Z M62.8,25.2L63.6,25.3L66.2,25.3L69.6,25.7L73.8,26.6L74.2,26.8L76.0,27.2L77.2,27.8L78.3,28.1L81.4,29.5L84.1,31.1L87.3,33.4L90.3,36.0L92.9,38.7L94.9,41.3L96.7,44.1L98.1,46.9L98.6,47.6L98.6,47.9L99.3,49.1L99.8,50.6L100.2,51.3L100.7,53.3L101.0,53.9L101.9,58.0L102.4,62.0L102.4,67.2L102.2,69.4L102.0,70.1L101.9,71.4L101.5,72.7L101.3,74.1L101.1,74.6L100.5,76.9L100.2,77.4L99.5,79.5L98.0,82.7L97.5,83.4L97.1,84.5L96.2,85.6L96.2,85.8L95.2,87.3L93.6,89.2L93.3,89.8L92.1,90.9L91.6,91.6L88.5,94.5L84.5,97.5L81.3,99.4L77.6,101.0L76.1,101.4L75.7,101.7L74.8,101.8L73.8,102.2L69.6,103.1L68.2,103.2L67.8,103.4L66.3,103.6L60.7,103.5L60.2,103.3L57.2,103.0L54.5,102.2L53.4,102.1L49.1,100.4L46.2,99.0L44.4,98.0L40.8,95.5L38.2,93.3L36.7,91.7L36.2,91.0L35.4,90.3L33.1,87.3L31.0,83.8L30.8,83.5L29.4,80.7L28.5,78.5L28.4,77.9L27.5,75.5L27.0,73.2L26.7,72.2L26.6,70.9L26.2,69.3L25.9,66.0L25.9,62.6L26.2,59.0L27.2,54.5L28.1,51.2L28.9,49.7L29.0,48.9L31.2,44.7L33.7,40.8L34.4,40.1L35.7,38.4L38.2,35.8L41.0,33.4L44.2,31.2L44.9,30.8L45.6,30.4L46.7,29.9L47.4,29.3L49.2,28.5L49.4,28.5L51.1,27.7L51.4,27.7L51.8,27.5L53.5,26.9L53.9,26.9L55.4,26.4L56.2,26.3L56.8,26.1L58.5,25.8L58.9,25.7L62.0,25.4Z" fill="#000" fill-rule="evenodd"/>
</svg>