<svg xmlns="http://www.w3.org/2000/svg" viewBox="0 0 128 128" width="128" height="128">
  <path d="M118.1,10.0L116.5,9.9L108.5,9.9L106.8,9.7L103.7,9.8L100.5,9.6L93.4,9.5L87.6,9.6L86.1,9.4L82.0,9.5L71.8,9.3L61.6,9.4L55.7,10.0L51.4,10.7L50.8,11.0L48.9,11.4L44.2,13.0L42.7,13.7L41.6,14.1L37.3,16.2L33.8,18.4L30.0,21.1L26.6,24.1L23.2,27.6L20.0,31.4L17.7,34.6L17.5,35.3L16.6,36.6L16.5,37.0L15.8,38.2L15.2,39.4L14.6,40.1L14.6,40.6L14.0,41.6L12.2,46.0L10.3,52.2L10.2,54.2L9.5,57.6L9.1,61.7L9.2,68.3L9.5,71.3L9.8,73.2L10.0,73.5L10.2,75.6L10.9,77.8L11.0,79.3L11.7,80.9L11.8,81.5L12.2,82.4L12.4,83.2L12.7,83.6L13.3,85.5L14.7,88.7L17.6,93.7L21.1,98.6L24.2,102.1L27.6,105.4L30.0,107.4L34.8,110.7L35.5,111.1L36.7,111.9L41.3,114.2L44.0,115.1L46.1,116.1L53.3,118.0L57.5,118.6L64.2,119.1L69.0,118.8L73.2,118.2L77.6,117.3L84.1,115.1L84.5,114.9L85.6,114.5L87.9,113.4L90.3,112.0L91.0,111.8L92.1,111.0L93.0,110.6L99.1,106.2L101.9,103.6L104.3,101.0L108.1,96.4L110.6,92.8L110.6,92.5L111.3,91.6L111.7,90.5L112.5,89.3L113.5,87.1L113.5,86.8L114.5,85.0L115.1,83.0L115.5,82.1L116.1,79.9L116.4,79.4L116.4,79.1L116.8,77.8L116.9,76.9L117.3,75.6L117.6,73.8L118.0,72.0L118.3,70.1L118.6,64.0L118.5,60.0L118.7,59.0L118.7,51.2L118.9,47.5L118.8,45.1L119.0,43.6L119.1,40.3L118.9,37.8L118.9,32.1L118.8,31.6L118.9,27.4L118.7,23.1L118.7,10.8L118.4,10.2Z M94.9,33.6L95.1,33.9L95.2,34.4L94.9,64.6L94.7,65.7L94.6,68.1L94.2,70.2L94.1,71.4L93.0,75.0L92.7,75.3L91.6,78.1L90.7,79.5L90.5,80.2L88.1,83.6L85.5,86.5L82.0,89.5L79.0,91.4L75.7,93.0L73.1,94.0L70.0,94.7L67.2,95.2L64.1,95.3L60.9,95.3L59.9,95.0L59.3,95.0L58.5,94.7L55.6,94.2L52.8,93.3L52.0,92.8L51.3,92.6L47.6,90.6L44.9,88.7L42.9,87.0L40.9,84.9L40.8,84.6L40.3,84.2L38.7,82.2L36.9,79.3L35.4,76.1L34.4,73.4L34.4,73.0L34.0,71.7L33.5,69.4L33.1,66.4L33.1,61.7L33.5,59.0L34.0,56.4L34.4,55.3L34.4,54.9L34.9,54.1L35.1,53.0L36.4,50.0L37.3,48.6L38.0,47.2L38.4,46.8L39.3,45.3L41.4,42.9L43.0,41.3L45.5,39.2L48.2,37.4L51.1,35.8L51.5,35.8L52.4,35.2L53.9,34.6L58.2,33.5L59.4,33.5L61.1,33.1L68.0,33.1L94.4,33.4Z" fill="#000" fill-rule="evenodd"/>
</svg>