<svg xmlns="http://www.w3.org/2000/svg" viewBox="0 0 128 128" width="128" height="128">
  <path d="M61.6,28.7L58.6,29.0L55.8,29.6L55.6,29.7L54.4,30.0L51.9,30.8L51.6,31.0L50.9,31.2L50.7,31.4L50.2,31.5L48.5,32.3L48.0,32.7L45.7,34.0L45.3,34.4L43.8,35.2L40.6,38.0L38.5,40.4L36.8,42.5L34.6,46.1L32.5,50.7L32.0,52.4L31.8,52.9L31.2,55.1L31.0,56.5L30.7,57.5L30.6,58.9L30.4,59.9L30.2,65.5L29.9,65.9L28.7,66.2L19.2,66.2L12.5,66.3L12.1,66.5L11.9,66.8L11.9,69.2L12.4,73.8L13.5,78.8L15.1,84.1L15.9,85.6L16.8,88.1L18.2,90.8L18.7,91.6L19.2,92.7L22.1,96.8L22.5,97.6L24.4,100.0L25.0,100.5L26.1,102.0L29.1,105.0L33.5,108.7L37.8,111.5L42.1,113.9L47.3,116.1L51.7,117.4L54.5,118.2L56.5,118.4L56.9,118.6L62.4,119.1L67.2,119.1L72.2,118.6L76.1,117.9L80.3,116.7L85.1,115.0L90.0,112.5L91.0,111.8L92.4,111.1L92.7,110.7L93.4,110.4L95.0,109.2L95.5,108.7L96.3,108.3L100.5,104.7L104.0,100.9L105.7,98.8L106.9,96.9L107.5,96.3L108.6,94.3L110.0,92.2L112.3,87.4L112.5,86.5L113.6,84.1L113.9,82.7L114.1,82.3L114.3,81.5L114.5,81.0L115.2,78.5L115.5,76.5L115.6,76.1L115.6,75.6L116.0,74.5L116.0,73.3L116.3,72.1L116.5,69.5L116.5,67.7L116.4,67.0L116.1,66.6L115.0,66.4L99.1,66.5L97.6,66.3L97.1,65.7L97.2,64.0L97.0,61.2L96.6,57.3L96.2,56.3L95.9,54.5L95.6,53.7L95.4,52.8L95.0,51.5L94.8,51.3L94.7,50.7L94.4,50.3L93.9,48.8L92.6,46.0L91.3,44.2L90.7,43.1L88.5,40.4L85.2,37.1L82.3,34.8L79.9,33.2L79.3,33.0L78.7,32.5L77.1,31.9L76.5,31.5L76.0,31.4L75.8,31.2L73.0,30.1L69.2,29.2L66.0,28.8Z M60.5,37.5L65.1,37.3L67.6,37.6L71.1,38.5L72.6,39.0L73.1,39.4L74.5,39.9L74.9,40.2L75.3,40.3L75.7,40.6L76.3,40.8L76.7,41.2L78.2,42.0L80.2,43.7L80.4,43.8L83.7,47.2L86.1,50.7L87.8,54.4L88.8,57.1L89.3,59.1L89.7,61.8L89.8,66.9L89.6,68.8L89.3,69.9L89.2,70.8L88.8,71.9L88.7,72.6L87.9,74.7L87.8,75.2L86.4,78.1L85.2,80.1L84.8,80.5L83.6,82.3L82.2,83.9L79.9,85.9L77.9,87.3L75.2,88.9L72.0,90.2L71.4,90.3L70.4,90.7L69.5,90.8L68.2,91.2L67.4,91.2L65.6,91.5L62.9,91.5L59.4,91.1L58.5,90.8L57.6,90.7L54.8,89.7L54.2,89.4L53.7,89.3L51.3,88.0L50.3,87.3L49.1,86.7L47.4,85.4L44.9,83.0L43.3,81.0L42.0,79.3L41.9,78.9L41.5,78.5L41.4,78.1L40.6,76.9L39.0,73.1L38.5,71.3L37.9,68.7L37.8,66.6L37.6,65.9L37.7,61.6L37.8,61.1L37.8,60.7L38.7,56.2L39.0,55.5L39.3,54.5L39.8,53.5L40.1,53.1L40.2,52.3L40.9,51.1L42.0,49.2L43.7,46.7L45.1,45.2L47.4,43.1L50.2,41.1L50.7,40.9L51.7,40.3L52.9,39.6L55.7,38.5L56.1,38.5L57.8,38.0Z M11.7,59.5L11.7,61.7L12.1,62.2L12.5,62.3L21.2,62.4L22.8,62.2L25.1,62.2L25.9,62.0L26.2,61.4L26.3,59.5L26.6,57.0L27.3,53.4L28.0,50.7L29.7,46.3L30.8,44.3L30.9,43.9L31.2,43.5L31.8,42.3L32.4,41.6L33.1,40.4L34.3,38.7L36.6,36.0L38.9,33.7L39.8,33.0L40.2,32.8L41.6,31.5L43.2,30.4L44.5,29.6L46.1,28.6L50.5,26.5L54.1,25.4L57.9,24.6L61.7,24.2L64.5,24.2L67.2,24.4L67.6,24.5L69.4,24.7L71.1,25.0L75.1,26.1L78.0,27.3L80.6,28.5L81.2,29.0L82.7,29.7L83.1,30.1L84.2,30.7L86.6,32.5L89.9,35.5L91.2,36.8L92.0,38.0L92.6,38.6L94.8,41.6L96.6,44.7L98.0,47.5L99.3,51.0L100.1,53.9L100.3,54.4L101.2,59.6L101.3,62.2L101.6,62.6L102.4,62.7L115.6,62.6L116.0,62.4L116.0,62.2L116.0,58.8L115.1,52.6L113.8,47.5L113.5,46.8L113.4,46.2L112.5,44.0L112.2,42.8L111.3,40.8L111.1,40.2L110.8,39.8L109.7,37.4L109.0,36.4L107.9,34.3L107.3,33.4L107.2,33.1L104.0,28.7L102.4,27.0L102.2,26.7L99.7,24.1L95.8,20.5L90.6,16.9L88.2,15.5L85.3,14.0L84.9,13.9L83.1,13.0L82.5,12.9L82.2,12.6L75.8,10.6L74.6,10.4L74.0,10.2L72.3,9.9L71.5,9.7L66.8,9.1L60.1,9.1L55.8,9.6L51.1,10.6L50.7,10.8L49.3,11.0L46.9,11.8L42.4,13.7L41.3,14.3L40.6,14.6L38.8,15.7L37.8,16.1L37.3,16.5L35.4,17.7L34.3,18.5L33.3,19.1L31.2,20.9L30.6,21.3L28.9,22.8L26.4,25.3L24.5,27.4L24.1,28.1L22.7,29.7L22.2,30.5L21.7,31.0L19.4,34.6L19.1,35.4L18.7,35.8L18.7,36.1L17.0,39.1L16.9,39.5L16.5,40.1L15.7,42.3L15.4,42.8L13.6,48.2L13.2,50.0L12.0,56.3Z" fill="#000" fill-rule="evenodd"/>
</svg>