<svg xmlns="http://www.w3.org/2000/svg" viewBox="0 0 128 128" width="128" height="128">
  <path d="M61.2,31.6L58.7,31.9L55.1,32.7L51.9,33.8L49.4,34.9L47.7,36.0L46.2,36.7L43.7,38.5L41.1,40.8L39.1,42.9L37.1,45.5L36.9,45.9L35.9,47.2L34.4,50.1L33.3,52.7L33.2,53.2L33.0,53.6L31.9,57.6L31.6,59.7L31.4,62.7L31.4,66.5L31.6,67.1L31.7,68.6L32.3,72.1L32.5,72.2L33.2,74.7L35.1,79.2L36.4,81.5L39.1,85.1L40.4,86.5L43.1,89.0L46.4,91.5L48.5,92.8L52.1,94.5L54.8,95.5L57.4,96.2L61.3,96.8L63.7,97.0L68.0,96.8L71.0,96.4L74.3,95.6L75.1,95.2L75.9,95.0L76.8,94.6L77.7,94.3L79.1,93.7L81.2,92.5L81.5,92.2L81.8,92.1L84.6,90.1L86.7,88.3L89.1,85.7L90.8,83.5L90.9,83.2L92.1,81.5L92.5,80.6L93.0,79.8L93.2,79.3L94.3,76.9L95.5,73.4L95.9,71.6L96.0,70.5L96.2,69.7L96.6,65.8L96.4,60.9L96.0,59.1L96.0,58.4L95.1,54.8L94.1,52.2L92.7,49.2L92.4,48.8L91.5,47.0L89.5,44.2L87.3,41.7L84.5,39.0L82.2,37.3L80.8,36.3L79.7,35.8L79.4,35.5L78.9,35.3L78.2,34.8L77.4,34.6L76.8,34.2L74.5,33.3L74.1,33.3L72.1,32.5L71.4,32.5L70.4,32.1L69.7,32.1L67.7,31.7L65.0,31.5Z M60.6,34.3L62.0,33.8L63.0,33.6L65.0,33.6L65.5,33.8L66.0,33.8L67.4,34.3L69.5,35.4L72.4,37.6L73.4,38.6L73.8,38.8L75.9,41.0L79.2,44.9L82.8,50.2L82.8,50.4L83.2,50.9L84.6,53.3L85.0,54.3L85.3,54.6L88.0,60.4L89.6,64.7L90.7,68.6L90.8,69.5L91.2,71.2L91.4,73.4L91.6,74.4L91.6,76.6L91.4,77.6L90.9,79.3L90.6,79.8L90.3,80.6L88.9,82.4L86.4,84.2L83.5,85.5L80.0,86.5L79.3,86.6L77.7,87.1L76.7,87.2L74.6,87.6L73.8,87.6L73.4,87.8L66.5,88.2L61.5,88.0L61.2,87.8L59.0,87.8L58.2,87.5L55.4,87.3L51.5,86.5L46.7,85.1L46.1,84.8L45.2,84.7L41.0,82.6L39.7,81.7L37.7,79.7L37.0,78.5L36.4,76.9L36.0,74.8L36.2,71.2L36.7,68.1L38.4,62.2L38.7,61.7L39.2,60.2L39.7,59.3L40.1,58.1L40.4,57.7L40.4,57.5L40.7,57.1L41.7,55.1L41.8,54.7L42.2,54.2L43.1,52.3L45.1,49.3L46.0,48.3L46.9,46.8L48.2,45.2L48.3,45.0L50.5,42.4L52.5,40.3L55.7,37.4L58.6,35.2Z M56.6,20.8L55.3,21.3L53.9,21.5L53.4,21.7L51.4,22.2L49.8,22.8L49.3,22.9L44.8,24.9L42.9,25.8L42.1,26.4L41.6,26.6L40.3,27.6L39.2,28.1L38.2,29.0L37.5,29.4L35.7,30.8L35.4,31.2L35.0,31.4L34.0,32.5L33.7,32.6L32.2,34.3L32.1,34.5L29.9,36.7L28.3,38.8L25.9,42.7L24.0,46.4L23.4,48.1L23.1,48.7L22.9,49.6L22.6,50.1L22.6,50.4L22.3,51.1L21.3,54.8L20.8,57.7L20.5,61.2L20.6,67.7L21.3,72.7L21.6,73.7L21.7,74.5L22.0,75.4L22.1,76.1L23.2,79.3L23.4,79.6L23.4,79.8L24.7,82.9L27.4,87.8L28.7,89.4L28.8,89.8L31.9,93.6L36.1,97.6L39.1,99.9L40.0,100.4L40.4,100.7L40.7,100.8L41.7,101.5L44.7,103.2L47.8,104.6L50.0,105.4L50.2,105.5L51.5,105.8L51.9,106.1L52.9,106.3L53.1,106.4L55.0,106.9L55.5,106.9L57.5,107.4L60.3,107.8L64.3,108.0L69.8,107.8L70.1,107.6L71.7,107.6L72.5,107.3L73.2,107.3L73.5,107.2L75.0,106.9L77.7,106.3L81.7,104.8L86.2,102.6L88.9,100.9L89.4,100.4L91.6,99.0L93.2,97.6L96.6,94.3L96.6,94.1L99.2,91.1L100.7,88.9L102.8,85.5L104.7,81.3L105.8,78.0L107.1,72.7L107.7,67.9L107.8,65.8L107.6,61.2L107.1,57.6L106.3,53.7L106.0,53.2L106.0,52.6L105.8,52.3L105.1,50.0L104.8,49.4L104.7,48.7L104.2,47.8L104.2,47.5L103.5,46.5L103.4,45.9L102.9,44.7L101.3,41.8L99.5,39.0L96.1,34.8L93.9,32.5L91.8,30.6L88.8,28.2L88.4,28.0L85.5,26.1L82.1,24.3L81.0,24.0L78.2,22.7L74.1,21.5L73.7,21.5L71.5,20.9L66.2,20.4L61.1,20.4L60.6,20.5L58.8,20.6L58.4,20.8Z M59.1,23.1L59.9,23.0L61.1,22.6L63.8,22.3L66.6,22.4L69.1,22.9L71.3,23.7L73.7,24.9L76.4,26.6L78.6,28.3L81.2,30.7L81.6,31.0L83.9,33.4L85.5,35.2L88.7,39.4L90.8,42.8L91.5,43.6L91.8,44.3L94.1,48.1L95.8,51.5L96.2,52.1L96.4,52.7L96.7,53.2L98.8,57.7L99.3,59.4L99.8,60.4L100.7,63.1L100.8,63.8L101.6,66.7L102.3,70.4L102.4,72.1L102.6,73.3L102.6,78.5L102.0,81.4L101.2,83.8L100.2,85.9L98.4,88.5L97.0,90.1L95.8,91.2L93.4,93.0L89.2,95.1L88.5,95.3L86.4,96.1L85.8,96.2L85.4,96.4L84.8,96.5L82.2,97.3L80.6,97.6L80.0,97.8L77.4,98.2L70.5,98.7L60.3,98.5L59.6,98.3L58.3,98.3L56.6,98.1L54.6,98.0L54.1,97.8L50.6,97.4L48.3,96.9L47.7,96.7L46.2,96.4L46.0,96.3L44.8,96.0L44.4,95.8L42.1,95.1L40.0,94.2L39.8,94.2L39.1,93.8L38.6,93.7L38.3,93.5L37.7,93.3L37.3,93.0L36.8,92.8L36.5,92.6L35.9,92.3L35.5,92.0L34.3,91.4L33.2,90.5L30.0,87.5L27.8,84.7L26.6,82.3L26.0,80.6L25.3,77.5L25.1,75.2L25.1,72.3L25.6,68.7L25.7,68.4L26.0,66.1L27.6,60.6L29.2,56.8L29.6,56.1L30.0,54.8L31.0,52.8L31.2,52.6L32.4,50.0L35.5,44.9L35.9,44.3L36.6,43.1L39.1,39.4L39.5,38.9L41.0,36.8L45.0,32.3L46.6,30.7L49.5,28.2L52.1,26.3L53.8,25.3L54.3,24.9L56.1,24.1L57.5,23.7Z M59.7,9.3L59.1,9.5L56.8,9.6L56.4,9.8L54.3,10.1L53.6,10.3L51.6,10.6L49.9,11.1L49.5,11.1L48.5,11.5L47.5,11.8L47.3,11.9L46.6,12.1L45.9,12.4L45.3,12.5L44.9,12.8L41.9,14.0L41.7,14.2L40.4,14.7L40.0,15.0L37.3,16.4L34.1,18.2L30.3,21.0L26.6,24.1L24.2,26.6L21.1,30.1L18.5,33.6L15.3,39.1L13.3,43.5L13.0,44.5L12.5,45.6L12.5,45.9L12.2,46.4L11.6,48.6L11.1,50.1L10.0,55.5L9.4,60.4L9.4,67.1L9.6,68.9L10.4,74.4L10.7,75.4L10.7,75.8L11.6,79.4L13.5,84.7L15.7,89.6L16.1,90.0L17.5,92.8L18.2,93.6L19.7,95.9L22.9,100.1L25.6,102.9L29.6,106.6L34.5,110.1L35.5,110.6L36.6,111.4L38.9,112.5L39.1,112.8L40.0,113.0L41.5,113.9L44.6,115.2L45.1,115.3L46.8,116.1L50.2,117.0L50.9,117.1L52.1,117.5L52.8,117.6L53.0,117.8L54.8,118.0L56.5,118.4L57.2,118.4L58.4,118.7L60.8,118.9L68.0,119.0L72.3,118.7L74.6,118.4L76.4,117.9L78.2,117.6L79.1,117.3L81.3,116.8L86.8,114.8L91.6,112.4L91.9,112.1L94.0,111.0L98.0,108.2L98.6,107.6L99.7,106.9L101.1,105.5L101.5,105.4L103.6,103.3L105.5,101.3L106.2,100.2L108.2,97.9L110.1,95.2L112.7,90.7L112.7,90.5L113.7,88.7L114.9,86.0L116.8,80.5L117.7,76.8L118.6,71.5L118.9,67.0L118.9,63.5L118.6,59.1L117.7,53.5L116.4,48.3L116.0,47.6L115.7,46.3L114.5,43.1L113.1,40.3L112.8,39.6L112.3,38.8L112.2,38.3L111.9,37.9L111.6,37.3L109.6,34.1L109.5,33.8L106.0,29.1L102.4,25.1L100.4,23.3L99.8,22.6L99.3,22.3L98.0,21.2L93.6,17.9L93.3,17.8L90.9,16.2L90.3,16.0L89.4,15.4L85.4,13.4L84.8,13.2L83.6,12.7L82.5,12.4L81.9,12.1L81.1,11.9L80.0,11.4L76.0,10.4L75.0,10.3L74.7,10.1L72.4,9.7L70.4,9.6L69.7,9.4L68.3,9.4L66.5,9.2L62.6,9.2Z M54.8,12.4L58.5,11.5L62.5,11.0L65.3,11.0L68.4,11.2L70.5,11.5L73.4,12.2L73.8,12.4L74.4,12.5L75.0,12.8L76.2,13.2L77.6,13.9L78.2,14.0L78.8,14.3L79.8,15.1L80.4,15.4L82.7,17.0L83.1,17.2L86.5,19.8L91.4,24.6L96.0,30.2L97.5,32.4L98.7,33.9L102.0,39.3L103.9,42.7L107.8,50.5L110.0,55.9L111.4,60.1L112.5,63.9L113.2,67.1L113.3,68.5L113.5,68.8L113.6,70.2L113.9,72.1L114.0,77.9L113.5,81.8L113.2,82.4L113.1,83.6L112.1,86.7L111.0,89.6L109.4,92.5L107.1,95.9L106.7,96.2L106.1,97.0L104.7,98.6L102.7,100.5L101.5,101.5L98.6,103.3L94.9,105.1L94.4,105.2L93.9,105.5L93.4,105.6L91.8,106.3L90.7,106.6L90.3,106.9L89.6,107.0L88.5,107.4L85.7,108.1L83.8,108.4L80.8,109.0L79.9,109.0L78.6,109.3L74.9,109.6L72.9,109.6L71.8,109.8L65.7,109.8L64.4,109.7L60.9,109.6L60.2,109.4L58.8,109.4L54.9,109.1L51.2,108.6L50.3,108.4L49.1,108.3L45.4,107.5L44.5,107.4L43.6,107.1L42.3,106.9L41.9,106.7L39.3,106.0L38.9,105.8L37.9,105.5L37.7,105.4L36.8,105.1L36.3,104.8L35.8,104.7L33.6,103.7L32.8,103.2L32.5,103.2L29.6,101.7L26.2,99.4L23.4,96.9L21.1,94.2L18.6,90.7L16.5,86.5L15.2,83.1L14.2,78.8L13.9,75.8L13.9,74.1L14.2,69.5L14.5,67.0L15.0,64.9L15.2,63.1L15.6,62.2L15.6,61.8L17.2,56.7L19.4,51.1L21.5,46.9L21.9,46.3L22.0,45.9L22.6,44.9L24.0,42.3L26.0,39.3L26.1,38.8L29.2,34.3L29.4,33.9L34.1,28.0L35.0,27.0L36.6,25.1L39.8,21.9L43.0,19.1L47.6,15.8L50.8,14.0L52.3,13.4L52.5,13.2L52.7,13.2Z" fill="#000" fill-rule="evenodd"/>
</svg>