<svg xmlns="http://www.w3.org/2000/svg" viewBox="0 0 128 128" width="128" height="128">
  <path d="M118.6,58.2L118.2,56.6L117.4,54.5L117.4,54.0L115.5,49.9L113.4,46.5L110.9,43.5L107.9,40.8L105.5,39.0L104.8,38.7L103.3,37.8L100.8,36.5L96.7,35.2L93.6,34.6L92.2,34.4L86.7,34.4L82.9,34.9L82.4,35.2L79.9,35.7L78.4,36.2L77.2,36.8L75.8,37.4L75.4,37.7L74.4,38.1L72.3,39.4L69.7,41.3L65.9,45.1L64.0,47.7L63.6,48.4L63.4,48.6L63.1,48.7L62.5,48.2L60.4,45.3L57.3,42.2L54.2,39.8L51.1,38.0L48.0,36.6L46.1,36.0L45.8,36.0L45.1,35.7L40.6,34.9L36.5,34.9L34.6,35.2L33.3,35.3L30.8,35.8L27.1,36.9L25.7,37.7L25.1,37.9L21.9,39.7L19.9,41.3L19.4,41.5L18.5,42.4L15.9,45.0L13.9,47.8L13.0,49.4L12.6,49.8L12.6,50.0L11.8,51.5L10.5,54.7L9.7,57.7L9.3,60.3L9.1,62.6L9.1,65.6L9.3,67.4L9.7,70.2L10.3,72.5L10.5,72.9L11.1,74.9L13.3,79.4L15.0,81.9L17.7,85.0L20.5,87.6L20.9,87.7L21.6,88.3L22.0,88.5L22.5,89.0L23.3,89.3L24.4,90.1L26.9,91.3L27.5,91.5L27.6,91.6L29.0,92.1L31.8,93.0L33.1,93.1L33.6,93.4L35.4,93.6L39.2,93.8L43.7,93.4L45.5,93.0L48.5,92.1L52.4,90.4L54.5,89.1L54.9,88.7L56.8,87.4L58.6,85.8L60.8,83.5L62.1,81.7L63.1,80.3L63.3,80.1L63.7,80.1L64.3,80.6L64.9,81.6L65.9,82.8L66.0,83.0L68.1,85.2L71.1,87.8L75.0,90.3L79.0,92.1L80.1,92.4L81.3,92.7L82.0,93.0L83.1,93.1L83.6,93.4L86.0,93.6L86.3,93.7L91.3,93.9L95.0,93.4L95.8,93.1L98.2,92.6L101.5,91.4L103.5,90.4L104.8,89.5L105.6,89.2L108.4,87.1L111.6,84.1L113.0,82.4L115.2,79.2L115.5,78.5L116.5,76.7L117.8,73.3L118.3,71.5L118.9,68.6L119.2,65.0L119.0,61.2L118.7,59.3Z M110.5,62.6L110.6,66.0L110.5,66.4L110.3,67.8L109.7,70.3L109.1,72.1L108.3,73.9L106.9,76.2L105.6,77.9L103.3,80.2L101.2,81.8L98.3,83.4L95.6,84.5L94.3,84.7L93.4,85.0L90.5,85.4L87.2,85.3L86.7,85.2L84.6,84.9L83.8,84.6L82.8,84.5L82.1,84.1L81.6,84.0L80.3,83.5L77.8,82.2L76.5,81.1L75.6,80.6L75.6,80.2L74.3,79.4L72.8,77.8L71.0,75.6L70.9,75.2L70.0,73.6L69.0,71.4L68.4,69.8L67.9,67.5L67.8,67.2L67.4,67.0L59.9,67.0L59.3,67.0L58.9,67.3L58.7,67.7L58.6,69.1L57.7,72.2L56.0,75.6L55.1,77.0L54.1,78.2L51.5,80.7L49.0,82.4L47.2,83.4L44.2,84.6L42.4,85.0L40.8,85.2L40.0,85.4L36.4,85.3L35.5,85.1L34.0,84.9L32.3,84.5L32.2,84.3L30.1,83.7L28.9,83.1L25.7,81.1L23.0,78.6L21.5,76.7L19.7,74.0L18.4,70.8L17.8,68.8L17.8,68.2L17.5,66.9L17.3,64.5L17.3,62.9L17.6,60.5L18.0,58.7L18.8,56.4L20.5,52.9L21.9,51.0L22.9,49.8L25.6,47.5L27.8,46.0L29.0,45.4L30.4,44.9L30.7,44.7L33.5,43.8L35.4,43.6L35.7,43.4L39.8,43.4L43.2,44.1L46.6,45.3L48.7,46.4L50.6,47.7L52.5,49.3L53.5,50.3L55.1,52.3L56.1,53.9L57.8,57.6L58.3,59.3L58.8,61.9L59.0,62.2L59.6,62.4L67.3,62.4L67.6,62.3L67.9,61.3L67.9,60.7L68.3,58.9L69.0,56.7L69.6,55.3L71.0,52.6L73.1,49.9L75.1,48.0L76.8,46.7L79.5,45.1L83.1,43.7L83.9,43.6L84.4,43.4L84.9,43.4L85.7,43.1L86.5,43.1L86.9,43.0L91.5,43.0L92.7,43.3L94.1,43.4L98.2,44.9L100.8,46.3L102.0,47.2L103.5,48.4L105.8,50.7L107.7,53.4L108.9,56.0L109.9,59.0Z" fill="#000" fill-rule="evenodd"/>
</svg>