<svg xmlns="http://www.w3.org/2000/svg" viewBox="0 0 128 128" width="128" height="128">
  <path d="M119.2,62.4L118.8,59.6L118.2,57.7L117.0,55.0L116.7,54.7L116.2,53.8L114.4,51.6L112.2,49.6L110.0,48.2L107.9,47.3L107.5,47.2L107.2,47.0L104.5,46.4L103.5,46.2L100.7,46.1L98.2,46.4L97.8,46.7L96.9,46.8L96.3,47.1L95.1,47.5L93.0,48.4L91.6,49.3L89.6,51.1L89.1,51.3L88.5,51.3L86.2,49.4L84.6,48.4L84.2,48.3L83.8,48.0L82.2,47.3L79.7,46.7L79.0,46.7L77.8,46.4L75.2,46.4L73.2,46.7L71.6,47.1L69.3,48.0L68.1,48.7L67.6,48.9L64.7,50.9L63.9,51.7L63.1,51.6L60.5,49.5L58.7,48.6L58.3,48.3L57.2,47.8L53.4,47.0L50.1,47.0L48.0,47.3L46.7,47.7L46.1,47.8L43.9,48.7L42.0,49.8L38.8,52.2L38.4,52.1L36.1,50.2L35.0,49.6L34.5,49.3L31.8,48.1L30.4,47.6L29.5,47.5L28.3,47.3L25.2,47.2L22.0,47.7L19.9,48.4L18.2,49.3L17.8,49.5L17.4,49.7L15.0,51.5L13.1,53.5L11.6,55.5L10.2,58.3L9.4,61.3L9.2,62.7L9.1,63.2L9.1,66.3L9.8,69.7L10.2,71.0L11.1,72.9L12.3,74.8L13.1,75.9L15.1,77.9L17.5,79.6L18.6,80.2L19.8,80.8L22.1,81.5L22.5,81.7L24.6,82.0L28.2,82.0L30.9,81.4L33.5,80.5L35.0,79.6L36.8,78.3L38.5,76.8L39.0,76.8L41.3,78.7L41.8,78.9L43.0,79.7L45.1,80.7L45.8,80.9L46.3,81.1L48.8,81.6L50.4,81.7L51.0,81.9L53.2,81.7L53.6,81.6L54.5,81.6L57.3,80.7L59.1,79.9L61.7,78.2L63.4,76.7L63.6,76.6L64.1,76.7L65.9,78.2L66.6,78.5L68.1,79.5L70.8,80.7L72.3,81.0L72.9,81.3L73.7,81.3L75.0,81.5L78.1,81.5L80.4,81.1L83.6,80.0L86.3,78.5L88.8,76.3L89.3,76.3L89.6,76.4L92.2,78.4L93.6,79.3L95.0,79.7L95.6,80.1L98.4,80.9L99.1,80.9L99.6,81.0L101.0,81.2L102.6,81.2L104.1,81.0L105.6,80.7L106.5,80.6L107.1,80.3L107.9,80.2L110.3,79.0L113.0,77.2L114.5,75.8L115.8,74.3L116.4,73.4L117.9,70.2L118.3,69.9L118.5,69.6L118.5,68.8L118.8,67.9L119.0,66.0L119.1,65.6Z M38.6,59.4L38.8,59.4L39.0,59.6L39.2,60.1L39.9,63.3L39.9,66.0L39.7,66.7L39.5,68.1L39.2,68.9L38.8,69.4L38.5,69.4L38.3,69.1L37.7,67.0L37.5,65.9L37.6,62.4L38.1,60.4L38.4,59.6Z M63.6,58.7L63.7,58.7L63.9,58.9L64.2,59.4L64.7,60.7L65.0,62.5L65.0,65.9L64.7,67.3L64.7,67.9L64.1,69.3L63.9,69.6L63.6,69.6L63.4,69.4L62.7,67.6L62.3,65.0L62.3,63.6L62.7,61.0L63.1,59.8L63.2,59.3Z M88.8,58.4L89.0,58.4L89.2,58.6L89.7,59.9L90.2,61.8L90.3,63.7L90.2,65.8L89.9,67.2L89.6,68.4L89.0,69.2L88.8,69.1L88.5,68.9L88.5,68.7L88.3,68.3L87.9,66.7L87.6,64.7L87.6,63.2L87.8,61.1L88.3,59.1L88.5,58.6Z M25.2,50.7L27.6,50.7L28.1,50.8L28.7,50.8L30.0,51.1L31.5,51.6L33.7,52.7L34.8,53.6L35.8,54.4L36.4,55.3L36.4,55.6L35.5,57.6L34.9,59.2L34.4,61.3L34.1,62.9L34.1,65.9L34.3,67.3L34.5,67.9L34.7,69.3L35.5,71.4L35.8,71.9L36.4,73.3L36.4,73.8L36.0,74.4L34.2,76.0L32.3,77.2L29.9,78.1L27.6,78.5L24.8,78.5L23.0,78.2L20.6,77.4L18.1,76.0L17.0,75.0L15.6,73.6L14.5,72.0L13.6,70.3L13.2,69.3L12.7,67.5L12.5,66.0L12.6,62.4L13.1,60.5L13.8,58.6L14.7,57.0L15.6,55.8L17.0,54.2L19.3,52.5L20.5,52.0L20.9,51.7L23.7,50.9Z M48.3,50.7L48.9,50.7L49.8,50.4L52.4,50.4L55.0,50.8L56.6,51.3L58.1,52.1L59.6,53.2L60.0,53.3L61.3,54.7L61.3,55.3L60.7,56.1L59.4,59.9L59.0,63.0L59.0,65.9L59.4,68.4L60.1,70.1L60.1,70.6L61.0,72.4L61.3,72.9L61.4,73.7L61.2,74.1L59.6,75.6L58.4,76.4L57.6,76.7L56.8,77.3L55.8,77.6L54.2,78.0L53.7,78.2L52.1,78.4L49.0,78.2L46.7,77.6L45.0,76.8L43.0,75.6L41.5,74.2L41.1,73.6L41.2,73.0L41.6,72.4L42.5,70.2L43.1,67.9L43.3,66.2L43.3,62.8L43.0,60.4L42.1,57.7L41.1,55.7L41.1,55.1L43.0,53.3L45.0,51.9Z M75.5,49.8L78.7,49.9L82.0,50.9L83.7,51.8L85.3,53.0L86.3,53.9L86.5,54.5L86.4,55.1L85.0,58.4L84.5,60.6L84.2,62.4L84.2,65.0L84.5,67.1L84.9,68.7L85.5,70.4L86.6,72.6L86.7,73.3L86.1,74.2L85.3,75.0L83.8,76.0L81.4,77.2L79.8,77.7L77.9,78.1L74.3,78.0L71.3,77.2L69.2,76.2L68.1,75.4L66.6,74.1L66.1,73.4L66.2,72.9L66.4,72.7L67.0,71.5L67.9,69.0L68.4,66.5L68.5,63.0L68.4,61.6L68.1,60.5L68.0,59.7L67.7,59.1L67.3,57.6L66.9,57.0L66.4,55.8L66.0,55.2L66.1,54.6L66.5,53.9L67.8,52.8L70.0,51.3L71.0,50.8L73.5,50.1L74.6,50.0Z M100.8,49.5L103.1,49.5L106.0,50.1L109.0,51.6L110.8,53.0L112.7,54.9L113.9,56.7L114.8,58.5L115.4,60.1L115.7,61.9L115.7,65.3L115.3,67.6L114.4,69.8L113.2,71.8L111.8,73.4L110.6,74.6L109.4,75.6L108.8,75.8L107.8,76.4L107.4,76.5L105.6,77.3L105.3,77.3L104.0,77.6L102.3,77.8L99.9,77.7L97.5,77.2L97.1,76.9L95.5,76.4L93.2,75.0L91.6,73.5L91.5,73.2L91.6,72.7L92.5,71.0L92.8,69.7L93.4,68.1L93.6,66.3L93.8,66.0L93.9,62.6L93.4,59.7L93.2,59.3L93.1,58.7L92.4,57.0L92.2,56.4L91.3,54.6L91.3,54.2L92.3,53.0L94.8,51.3L97.6,50.1L99.2,49.7Z" fill="#000" fill-rule="evenodd"/>
</svg>