<svg xmlns="http://www.w3.org/2000/svg" viewBox="0 0 128 128" width="128" height="128">
  <path d="M78.0,9.6L72.6,9.1L69.8,9.1L64.6,9.8L63.9,10.0L62.7,10.2L62.1,10.5L60.7,10.7L60.3,10.9L59.5,11.1L59.2,11.4L58.3,11.6L57.0,12.2L56.3,12.4L54.9,13.2L54.5,13.3L51.6,14.9L49.2,16.7L45.9,19.3L45.3,20.1L43.1,22.3L41.2,24.7L39.1,27.9L37.2,31.6L36.9,32.6L36.7,33.0L36.5,33.6L36.3,33.9L35.5,36.6L35.2,37.9L35.2,38.8L35.5,39.2L36.1,39.2L45.0,39.2L45.4,39.0L45.6,38.7L46.3,36.7L46.7,36.1L47.2,34.6L47.4,34.4L47.7,33.7L49.0,31.5L51.3,28.6L53.7,26.1L56.9,23.7L60.4,21.9L63.5,20.6L64.6,20.5L66.4,19.9L70.3,19.4L74.2,19.4L76.3,19.7L77.0,19.9L78.9,20.2L80.8,20.6L84.1,21.9L84.9,22.4L85.4,22.4L85.8,22.8L86.5,23.0L90.0,25.2L93.9,28.2L96.0,30.4L99.6,35.3L100.6,37.5L101.0,38.1L102.3,41.2L102.7,42.7L102.8,44.1L103.2,45.4L103.4,47.1L103.6,47.9L103.9,49.8L103.9,53.3L103.6,56.4L103.3,57.6L103.2,58.7L102.8,60.1L102.7,60.9L102.3,62.0L102.0,63.5L101.6,64.3L101.4,65.2L100.9,65.9L100.9,66.5L98.2,71.6L95.4,75.4L92.5,78.4L88.6,81.8L86.2,83.5L82.6,85.3L82.4,85.3L80.8,86.1L79.9,86.4L79.6,86.6L78.8,86.8L78.4,87.0L77.5,87.2L75.3,87.9L74.4,88.0L72.8,88.4L71.6,88.5L71.2,88.3L71.0,87.9L71.0,78.8L71.6,78.2L72.2,78.0L74.8,77.5L77.1,76.6L77.6,76.3L79.1,75.7L82.0,74.0L85.4,71.3L87.4,69.2L87.5,68.9L88.7,67.5L89.2,66.6L89.6,66.2L90.3,64.8L90.8,64.1L91.5,62.7L91.7,62.1L92.3,60.9L92.5,59.7L93.1,58.1L93.3,56.9L93.7,55.5L93.9,53.7L93.8,49.8L93.5,49.2L93.4,49.1L87.2,49.0L84.8,49.0L84.3,49.2L84.1,49.4L84.0,50.0L83.8,53.8L83.6,55.0L83.4,55.2L83.2,56.4L81.9,59.6L81.0,61.1L79.8,62.7L76.8,65.4L74.7,66.7L73.2,67.3L72.7,67.6L71.7,67.9L71.3,67.9L70.9,67.5L70.8,65.9L70.6,41.8L70.5,39.6L70.1,39.1L61.4,39.0L60.9,39.1L60.5,39.6L60.4,51.3L60.6,62.7L60.5,66.9L60.2,67.2L59.3,67.2L58.7,67.1L55.2,65.3L52.4,63.3L50.1,61.0L48.6,59.1L47.5,57.5L46.3,55.1L45.7,53.5L45.6,52.9L45.4,52.6L45.3,52.1L45.2,51.8L45.1,51.0L44.8,50.3L44.8,49.7L44.4,49.1L37.5,49.0L35.1,49.1L34.8,49.4L34.8,51.8L35.1,52.8L35.5,55.0L35.6,55.2L36.3,57.4L36.5,57.8L36.5,58.0L37.0,58.9L37.8,60.9L38.3,61.6L38.6,62.3L40.6,65.5L42.3,67.6L45.0,70.3L45.2,70.4L48.1,72.8L51.3,74.8L54.1,76.1L55.3,76.4L56.3,77.0L58.0,77.4L58.2,77.6L59.2,77.7L59.9,78.0L60.3,78.3L60.6,78.8L60.7,86.7L60.5,87.8L59.9,88.2L57.3,87.8L53.2,86.6L52.9,86.4L51.8,86.1L50.1,85.3L49.9,85.3L49.2,84.9L48.7,84.8L48.3,84.4L46.8,83.9L46.3,83.5L46.0,83.4L44.9,82.6L44.2,82.3L43.9,82.0L43.4,81.8L41.2,80.3L37.6,77.2L35.7,75.2L35.5,74.8L33.8,73.1L32.6,71.3L31.7,70.2L28.8,65.4L28.8,65.2L27.5,62.5L27.5,62.0L27.1,61.5L27.0,60.7L26.4,59.3L25.7,56.6L25.3,55.5L25.3,55.0L24.9,53.4L24.8,51.3L24.4,49.8L24.1,49.3L23.5,49.1L21.0,49.3L15.6,49.3L14.7,49.4L14.2,49.7L14.2,51.9L15.0,57.4L15.9,61.0L16.1,61.5L16.2,62.2L16.6,63.1L16.9,64.1L17.0,64.3L18.0,67.1L18.9,68.9L19.2,69.3L19.7,70.7L20.5,72.0L21.3,73.6L22.7,75.6L22.7,75.8L25.8,80.0L28.6,83.2L31.4,85.9L35.0,88.8L35.7,89.2L38.3,91.2L39.9,92.0L40.8,92.7L41.7,93.0L42.1,93.3L44.8,94.5L45.6,95.0L48.7,96.3L49.9,96.6L50.3,96.8L52.0,97.2L54.0,97.9L59.9,99.0L60.5,99.5L60.7,99.9L60.7,110.6L60.8,113.6L60.8,118.0L61.1,118.8L61.4,119.0L67.5,118.9L69.3,119.1L70.3,119.0L70.9,118.6L71.1,104.0L71.0,100.4L71.2,99.6L71.4,99.4L72.2,99.0L73.4,99.0L74.8,98.6L75.4,98.6L77.8,98.0L78.7,97.9L80.3,97.5L80.6,97.2L81.5,97.1L81.8,96.8L82.8,96.6L83.2,96.3L85.0,95.8L85.5,95.4L86.0,95.3L86.4,95.0L87.0,94.8L87.2,94.5L87.9,94.4L88.3,94.1L88.9,93.9L93.8,90.8L97.2,88.2L99.7,85.9L102.8,82.6L106.9,76.9L107.6,75.6L108.8,73.8L109.3,72.4L110.4,70.5L110.6,69.8L110.8,69.5L111.0,68.6L111.9,66.4L112.0,65.7L112.4,64.7L113.6,58.8L113.8,55.8L114.1,54.8L114.1,50.3L114.0,48.9L113.8,47.6L113.8,45.6L113.2,43.2L113.1,42.3L112.4,40.3L112.4,39.5L112.0,38.5L111.8,37.3L111.6,36.9L111.5,36.4L111.1,35.8L110.9,35.2L110.6,34.8L109.1,31.5L108.4,30.5L107.8,29.4L105.4,26.0L103.8,24.0L100.5,20.6L98.0,18.4L97.2,18.0L96.0,16.9L92.9,14.9L89.4,13.1L89.2,12.9L87.5,12.3L85.9,11.6L85.5,11.6L84.6,11.2L83.4,10.9L81.8,10.4L79.7,10.0Z" fill="#000" fill-rule="evenodd"/>
</svg>