<svg xmlns="http://www.w3.org/2000/svg" viewBox="0 0 128 128" width="128" height="128">
  <path d="M80.8,55.3L79.5,55.7L77.1,57.3L76.6,57.5L75.4,58.3L74.3,58.8L72.6,60.0L71.0,60.7L69.5,61.8L68.8,62.0L66.5,63.4L65.2,64.4L64.9,64.9L64.7,66.1L64.8,66.9L64.7,69.5L64.7,77.4L65.0,82.7L65.4,83.7L67.0,84.9L69.3,86.1L69.8,86.5L70.9,87.0L72.1,87.8L73.4,88.4L75.2,89.6L76.4,90.2L77.6,91.0L78.1,91.1L78.5,91.5L79.1,91.7L80.2,92.4L83.0,93.9L83.3,94.2L85.0,95.1L86.3,96.0L87.5,96.4L88.4,96.0L88.8,95.7L89.9,95.2L90.9,94.5L92.2,93.8L93.8,92.8L95.1,92.2L97.6,90.6L102.3,87.9L103.4,87.1L103.6,86.6L103.6,85.7L103.4,84.5L103.4,76.4L103.2,75.9L103.3,73.6L103.2,69.1L102.7,68.0L102.0,67.3L99.8,66.0L99.5,65.6L97.6,64.7L96.9,64.2L93.6,62.4L90.8,60.7L89.7,60.2L89.2,59.7L88.4,59.4L87.7,58.9L86.4,58.3L85.9,57.9L82.5,56.0L82.2,55.7L81.2,55.3Z M80.3,65.6L81.4,65.7L83.1,66.6L88.4,69.7L89.7,70.6L90.2,70.7L91.0,71.2L91.3,71.3L91.6,71.6L93.8,72.8L94.2,73.4L94.4,74.8L94.5,77.7L94.4,81.1L94.2,81.8L93.6,82.5L91.1,83.8L87.9,85.8L87.0,85.9L86.3,85.7L85.7,85.2L82.4,83.4L81.2,82.6L79.1,81.5L77.6,80.4L76.9,80.2L74.4,78.7L73.6,77.9L73.5,77.4L73.4,73.1L73.5,70.4L73.6,69.9L74.8,68.8L76.8,67.7L78.0,66.9Z M59.3,9.2L53.2,10.2L50.4,10.9L49.7,11.0L47.7,11.8L46.6,12.0L43.2,13.3L42.2,13.9L39.0,15.4L36.5,16.8L36.1,16.9L33.8,18.5L30.2,21.1L27.6,23.4L23.0,28.1L20.7,31.1L17.8,35.4L17.6,36.0L16.1,38.5L15.9,39.2L15.0,40.8L15.0,41.0L14.4,42.3L14.1,42.7L13.6,44.4L13.2,45.3L13.1,45.9L12.9,46.0L12.3,47.7L12.3,48.5L11.9,49.2L11.7,50.5L11.4,51.1L11.3,52.3L10.9,53.4L10.9,54.8L10.4,56.7L10.0,62.2L10.1,67.2L10.4,69.6L10.5,72.1L11.0,74.3L11.0,74.8L11.4,76.2L11.6,77.3L11.8,77.6L12.3,79.6L12.9,81.1L13.0,81.7L13.3,82.4L13.6,83.5L13.7,83.6L14.7,86.4L15.9,88.4L17.5,91.9L18.3,92.9L18.9,94.1L20.1,95.7L20.8,97.0L24.8,101.8L28.5,105.4L31.4,107.8L32.1,108.2L33.7,109.4L34.8,110.1L35.7,110.8L36.4,111.1L37.8,112.1L38.7,112.4L42.1,114.4L43.4,114.7L44.5,115.2L45.0,115.2L45.4,115.6L46.8,116.0L48.0,116.6L48.6,116.6L48.9,116.8L51.7,117.5L52.9,117.9L56.2,118.4L57.1,118.6L58.7,118.7L60.2,118.9L62.7,119.1L67.0,119.1L71.0,118.8L73.3,118.3L75.0,118.1L81.1,116.5L86.5,114.4L87.6,113.8L87.9,113.5L88.8,113.2L89.7,112.6L91.1,112.0L91.5,111.7L95.1,109.4L99.0,106.4L100.7,105.0L103.6,102.1L104.3,101.1L105.9,99.5L106.2,98.9L107.2,97.7L108.1,96.4L109.0,95.3L110.3,93.0L110.4,92.5L110.9,92.0L111.5,90.8L111.8,90.4L112.7,88.6L112.9,88.0L113.5,86.9L113.8,86.1L114.2,85.4L114.3,84.8L114.7,84.0L115.7,81.0L117.4,74.1L117.9,70.2L118.3,65.1L118.0,59.0L117.3,53.8L116.9,52.5L116.6,51.0L116.3,50.1L116.2,49.0L114.9,45.3L114.1,43.4L113.9,42.7L113.6,42.2L113.5,41.7L112.7,40.2L112.1,38.7L110.9,36.5L110.1,35.4L109.9,34.7L107.7,31.5L105.7,29.0L102.6,25.5L100.4,23.3L97.6,20.9L92.6,17.2L91.4,16.7L90.4,15.9L89.5,15.4L89.3,15.4L88.6,15.0L86.1,13.9L84.8,13.2L83.0,12.5L82.7,12.5L82.1,12.2L81.3,12.0L80.3,11.5L79.3,11.4L77.5,10.7L76.4,10.5L75.1,10.1L72.4,9.8L70.6,9.4L66.6,9.1L62.9,9.1Z M48.3,66.0L48.7,66.3L50.3,67.0L52.0,68.2L53.2,68.7L54.1,69.3L54.7,70.0L54.8,72.3L54.9,73.2L54.8,77.6L54.7,78.2L53.9,79.0L52.6,79.9L51.4,80.5L50.2,81.3L49.6,81.5L48.6,82.2L46.4,83.4L45.4,84.1L43.4,85.2L42.5,85.8L41.5,86.2L40.6,86.2L39.9,85.8L38.9,85.1L38.2,84.7L37.9,84.7L36.7,83.9L35.4,83.2L34.2,82.1L34.1,81.7L33.9,75.0L34.1,74.1L34.7,73.3L35.6,72.7L37.4,71.8L39.9,70.1L41.9,69.1L43.6,67.9L44.9,67.3L45.2,66.9L45.7,66.8L47.1,66.0Z M64.4,28.7L65.0,28.9L66.0,29.5L66.7,29.8L67.8,30.5L69.1,31.1L69.4,31.5L70.9,32.4L71.4,33.0L71.5,33.8L71.6,36.7L71.6,46.8L71.4,48.4L70.8,49.0L67.2,51.1L65.5,52.2L64.2,52.8L63.7,52.8L61.0,51.4L60.2,50.8L59.6,50.5L58.7,49.9L58.0,49.6L57.2,49.0L56.8,48.6L56.7,45.7L56.6,44.9L56.6,33.8L56.8,33.3L57.4,32.7L58.1,32.3L58.4,32.0L58.6,32.0L59.8,31.1L63.4,28.9Z M59.5,17.9L62.3,17.7L62.9,17.9L63.0,18.2L62.9,18.5L62.0,19.2L56.5,22.6L56.3,22.8L53.5,24.4L52.1,25.5L51.6,25.7L50.4,26.5L48.7,27.5L48.1,28.0L47.9,28.5L47.7,34.2L47.9,36.1L47.8,52.0L47.9,53.2L48.1,53.8L48.8,54.7L50.6,55.6L51.7,56.4L52.1,56.6L53.3,57.3L55.4,58.4L56.5,59.2L59.3,60.6L60.5,61.5L60.6,61.5L61.9,62.3L62.4,62.4L62.6,62.7L63.8,63.2L64.7,63.2L68.1,61.1L69.5,60.5L70.0,60.0L71.8,59.1L74.8,57.1L75.7,56.7L76.5,56.2L77.7,55.6L78.0,55.3L79.4,54.4L79.9,53.9L80.3,53.3L80.3,31.1L80.3,29.2L80.0,28.0L79.9,27.6L79.1,27.0L78.1,26.5L76.4,25.3L74.4,24.2L72.7,23.0L70.0,21.6L69.6,21.2L67.4,20.0L65.1,18.4L65.1,18.1L65.6,17.7L67.3,17.7L71.4,18.2L74.6,18.9L75.4,19.3L77.3,19.6L80.0,20.5L82.1,21.5L82.7,21.7L84.9,22.9L85.6,23.0L86.9,23.9L87.2,24.0L87.5,24.3L89.5,25.4L90.7,26.5L92.5,27.6L93.8,28.9L94.9,29.8L99.5,34.7L103.0,39.6L105.0,43.2L105.8,45.2L106.6,46.8L107.3,49.0L107.7,49.7L107.8,50.6L108.3,51.7L108.3,52.1L109.2,55.7L109.2,56.6L109.4,57.4L109.5,58.8L109.7,59.4L109.9,63.1L109.8,68.3L109.4,70.2L109.4,70.9L109.1,72.0L109.0,73.8L108.6,74.7L108.0,77.7L107.8,77.9L107.8,78.2L106.4,82.1L104.8,85.6L103.5,87.5L103.3,88.1L102.8,88.8L102.6,89.5L100.0,93.2L96.7,96.9L92.1,100.9L87.8,104.0L86.6,104.7L85.3,105.3L84.9,105.6L80.5,107.6L76.4,109.0L72.0,109.9L71.4,109.9L68.7,110.4L67.8,110.4L67.3,110.6L63.7,110.6L58.4,110.3L54.5,109.6L51.2,108.7L50.4,108.3L49.9,108.2L49.0,107.8L47.6,107.4L46.9,107.0L46.2,106.8L45.9,106.5L45.3,106.3L44.8,106.0L44.4,105.9L44.0,105.6L43.2,105.4L42.2,104.7L41.6,104.5L41.2,104.1L39.3,103.2L38.7,102.6L37.9,102.2L33.8,98.8L31.0,96.0L30.8,95.6L30.2,95.1L29.7,94.3L28.6,93.2L28.2,92.5L27.9,92.3L26.5,90.4L25.6,88.7L25.6,88.4L25.7,88.3L26.2,88.3L29.6,90.1L29.9,90.4L31.2,91.1L31.5,91.3L32.7,91.9L34.7,93.2L35.1,93.3L35.6,93.7L36.8,94.2L38.7,95.5L39.1,95.6L39.3,95.8L41.1,96.7L41.7,96.7L44.2,95.4L44.5,95.1L45.1,94.9L46.1,94.2L47.2,93.6L48.1,92.9L49.0,92.5L49.6,92.0L51.0,91.4L52.0,90.6L53.3,90.0L55.8,88.4L56.3,88.2L57.4,87.4L58.5,86.8L59.5,86.1L62.1,84.6L62.8,84.1L63.3,83.5L63.5,82.1L63.5,72.0L63.3,70.0L63.4,67.5L63.3,65.1L62.8,64.3L62.2,63.8L60.8,63.2L58.3,61.6L56.8,61.0L54.1,59.3L52.1,58.2L50.9,57.4L49.7,56.8L48.7,56.1L47.3,55.5L46.6,55.6L45.5,56.1L44.6,56.7L38.7,60.1L38.4,60.4L36.2,61.7L35.6,62.0L34.6,62.7L33.4,63.2L31.5,64.5L30.8,64.7L29.6,65.6L26.2,67.5L25.3,68.4L25.2,68.7L25.0,69.6L25.0,73.3L25.2,75.1L25.2,85.7L25.1,86.4L24.8,86.8L24.5,86.8L24.3,86.6L22.8,83.9L22.1,82.2L22.1,82.0L21.7,81.5L21.1,79.4L20.6,78.3L19.0,71.8L18.7,69.2L18.6,68.7L18.4,64.4L18.6,59.3L19.2,55.5L19.5,54.4L19.7,53.3L20.0,52.4L20.1,51.6L20.8,49.6L21.1,48.6L21.3,48.2L21.8,46.6L23.4,43.2L23.9,42.3L24.6,40.8L25.4,39.7L26.0,38.6L28.8,34.7L31.0,32.2L35.2,28.2L38.0,26.0L42.2,23.4L47.3,20.9L49.3,20.2L50.1,20.0L50.7,19.7L55.4,18.6L55.9,18.6L57.3,18.2L58.6,18.1Z" fill="#000" fill-rule="evenodd"/>
</svg>