<svg xmlns="http://www.w3.org/2000/svg" viewBox="0 0 128 128" width="128" height="128">
  <path d="M82.0,11.3L81.1,11.2L77.9,10.3L77.2,10.3L74.6,9.7L72.1,9.6L71.6,9.4L66.5,9.3L65.7,9.4L61.2,9.4L60.0,9.6L59.1,9.5L53.2,10.4L49.7,11.3L47.5,11.6L42.3,13.4L41.7,13.8L39.7,14.5L39.3,14.8L37.7,15.4L34.9,17.2L34.3,17.4L34.0,17.7L32.5,18.6L31.9,19.1L31.2,19.4L30.1,20.5L29.0,21.2L26.2,23.6L22.9,27.0L21.3,28.9L20.2,30.6L18.4,33.0L18.2,33.5L17.4,34.6L17.1,35.3L16.0,37.1L14.5,40.6L14.4,41.2L13.1,44.6L12.6,47.3L12.3,50.9L12.0,52.2L11.9,54.6L12.1,55.6L12.2,60.3L12.8,64.2L13.2,65.5L13.4,66.5L13.8,67.3L14.0,68.8L14.8,71.1L15.0,72.0L16.0,73.9L16.2,74.8L18.6,79.1L19.7,80.6L21.8,83.2L26.0,87.3L29.0,89.7L33.7,92.6L35.5,93.3L35.9,93.7L36.6,93.9L38.3,94.7L38.8,94.8L40.4,95.6L41.3,95.8L41.6,96.1L42.4,96.3L43.1,96.7L43.8,96.8L44.9,97.2L46.4,97.6L47.4,98.0L48.3,98.2L48.7,98.7L49.0,100.6L49.0,103.6L49.0,115.8L49.2,117.9L49.5,118.5L49.8,118.8L53.5,119.0L54.8,118.6L55.0,114.5L55.3,114.1L55.9,113.9L57.0,114.1L67.0,113.9L69.0,114.1L71.6,114.1L72.6,113.9L77.6,114.1L78.3,114.2L78.7,114.7L78.8,117.7L79.0,118.0L80.9,118.1L81.5,118.3L84.6,118.2L84.9,117.9L85.2,117.2L85.1,115.8L85.3,115.3L85.3,113.7L85.1,113.2L85.1,111.5L85.3,110.4L85.2,97.9L85.5,96.6L86.1,96.0L87.2,95.5L89.4,94.3L90.3,94.0L94.7,91.7L95.6,90.9L97.7,89.7L101.4,86.6L104.7,83.2L105.7,81.9L106.8,80.7L107.4,79.8L108.4,78.7L108.9,77.9L109.2,77.2L110.0,76.1L111.5,73.2L112.0,72.6L112.3,72.1L112.3,71.7L112.9,70.7L113.4,69.1L113.8,68.6L115.2,64.5L115.4,62.6L116.0,60.6L116.0,59.3L116.3,58.0L116.2,52.7L116.0,50.5L115.7,49.5L115.6,47.4L115.5,47.0L115.4,45.9L115.0,44.6L114.8,43.0L114.5,42.3L114.2,40.9L114.0,40.4L113.8,39.3L112.7,37.1L111.8,34.2L111.1,33.1L110.8,32.3L110.5,32.0L110.0,30.9L109.4,30.1L109.0,29.3L106.9,26.5L103.9,23.2L103.2,22.8L100.9,20.6L100.0,20.1L98.6,19.0L97.4,18.3L96.8,17.6L94.9,16.8L94.2,16.2L93.9,16.1L90.8,14.4L90.0,14.2L88.8,13.6L87.7,13.3L87.2,13.0L84.6,12.3L83.6,11.8L82.5,11.6Z M78.7,99.5L79.0,100.8L79.0,105.3L79.1,106.5L79.1,108.1L78.8,108.4L77.9,108.6L59.2,108.6L58.9,108.8L55.9,108.7L55.5,108.5L55.2,108.1L55.0,107.6L54.9,99.5L55.2,99.2L58.9,99.4L59.7,99.6L61.5,99.5L63.6,99.7L70.7,99.6L72.7,99.2L73.8,99.2L75.6,99.1L76.6,98.8L78.0,98.7L78.4,99.0Z M79.1,61.2L79.4,61.5L79.7,62.6L79.7,63.3L79.5,64.0L79.5,79.3L79.3,82.8L79.3,90.9L78.8,91.5L77.8,92.0L73.0,93.2L72.2,93.2L71.3,93.5L69.4,93.5L67.8,93.7L62.8,93.7L61.0,93.4L59.2,93.4L58.0,93.2L55.7,92.5L55.3,92.0L55.1,89.4L55.1,68.5L55.3,64.7L55.2,61.9L55.4,61.5L55.8,61.1L70.6,60.9L77.4,61.0L77.8,61.1Z M20.4,61.0L23.6,60.6L28.2,60.6L29.2,60.4L40.7,60.5L45.3,60.3L47.4,60.4L48.8,60.7L49.2,61.2L49.3,63.6L49.1,64.7L49.3,65.3L49.4,69.4L49.2,82.9L49.3,86.8L49.0,90.8L48.8,91.0L47.8,91.1L44.7,90.4L41.4,88.9L41.1,88.9L39.2,87.9L38.9,87.6L38.2,87.3L34.0,84.3L29.6,80.3L27.1,77.3L26.5,76.2L25.7,75.3L24.5,73.4L23.3,71.7L22.8,70.7L22.7,70.1L22.3,69.6L22.1,68.8L21.7,67.9L21.6,67.0L21.3,66.2L20.7,64.4L20.6,63.3L20.1,61.8L20.1,61.3Z M79.5,29.6L79.9,30.3L79.7,32.6L79.7,33.9L80.0,35.3L80.0,51.1L79.8,52.8L79.9,54.3L79.5,54.8L78.5,55.0L75.9,54.9L69.5,55.0L66.2,54.9L59.5,55.0L56.3,54.7L55.9,54.1L55.7,45.1L55.8,43.3L55.6,42.7L55.6,35.8L55.4,31.1L55.5,30.3L55.9,30.0L57.0,29.7L60.2,29.7L60.9,29.6L76.7,29.3L78.8,29.4Z M86.2,19.4L87.4,20.3L87.9,20.4L88.7,21.0L89.6,21.4L90.1,21.8L91.4,22.3L92.4,23.2L93.8,24.1L97.0,26.6L99.2,28.8L99.8,29.9L101.5,32.0L103.0,34.3L103.7,36.1L104.5,37.2L105.3,38.8L105.8,40.4L106.5,41.8L106.6,42.4L107.4,44.4L107.4,45.2L107.9,46.4L108.0,47.4L108.3,48.4L108.4,50.3L108.9,52.8L108.7,53.9L108.6,58.3L108.1,60.4L107.8,62.3L107.4,63.1L107.4,63.9L107.0,64.6L106.5,66.7L106.0,67.6L105.9,68.1L105.6,68.6L104.9,70.6L103.4,73.6L100.8,77.3L98.4,80.0L95.3,83.2L93.9,84.1L92.2,85.7L91.5,86.0L90.5,86.8L86.5,88.9L86.0,88.9L85.8,88.7L85.8,88.4L86.1,87.9L85.9,86.4L85.8,81.7L85.9,71.3L85.7,70.2L85.9,61.5L86.2,61.1L86.6,61.0L88.5,61.0L89.7,60.8L98.8,60.8L100.5,60.6L100.9,60.2L101.2,59.3L101.2,55.7L101.1,55.3L100.5,55.0L98.0,55.0L96.2,54.8L92.3,55.0L88.7,54.9L87.0,54.5L86.0,54.5L85.8,54.3L85.7,46.6L85.7,43.2L85.6,41.3L85.7,37.7L85.5,36.2L85.7,20.6L85.5,19.7L85.6,19.5Z M49.0,17.2L49.4,17.6L49.7,18.4L49.8,22.3L49.8,40.8L49.7,48.3L49.8,50.4L50.0,51.3L49.8,52.5L49.9,53.7L49.5,54.3L47.3,54.5L35.5,54.8L29.7,54.7L23.1,54.9L20.8,55.2L19.5,55.1L19.3,55.0L19.2,54.4L19.2,50.5L19.8,47.5L20.2,46.7L20.3,45.8L20.8,44.3L20.8,43.9L22.1,40.8L22.2,40.0L22.9,38.9L23.4,37.6L24.1,36.5L24.4,35.7L25.8,33.6L26.3,33.1L26.9,32.0L28.6,30.2L29.3,29.1L31.6,26.7L32.0,26.5L33.2,25.3L33.9,25.1L35.3,23.5L36.0,23.1L37.0,22.3L42.0,19.4L42.8,19.2L44.3,18.4L47.5,17.4Z M55.8,16.1L56.6,15.3L57.2,15.0L59.3,14.8L59.9,14.6L61.8,14.6L70.2,14.8L71.0,15.1L72.3,15.2L76.3,16.0L76.8,16.3L78.7,16.9L79.7,17.4L80.0,17.8L79.8,23.3L79.7,23.7L79.3,24.1L78.7,24.3L70.7,24.4L69.8,24.6L67.3,24.5L61.8,24.7L58.3,24.6L57.5,24.4L56.3,24.5L55.9,24.2L55.7,22.1L55.7,19.1Z" fill="#000" fill-rule="evenodd"/>
</svg>