<svg xmlns="http://www.w3.org/2000/svg" viewBox="0 0 128 128" width="128" height="128">
  <path d="M17.3,72.6L17.0,73.0L16.9,74.4L17.4,78.3L17.4,79.4L17.7,80.3L17.8,81.2L18.1,82.0L18.2,82.9L18.6,84.1L18.6,84.6L19.1,85.7L19.8,88.2L20.3,89.1L20.4,89.7L20.8,90.7L21.5,91.7L22.5,93.8L23.2,94.9L24.1,97.0L27.8,102.3L31.1,106.1L33.1,108.0L35.6,110.1L36.3,110.4L37.1,111.1L39.1,112.5L40.8,113.3L42.2,114.2L42.8,114.5L44.1,115.3L44.5,115.3L44.9,115.7L45.7,115.8L48.3,116.9L50.4,117.3L51.4,117.8L53.0,118.1L54.4,118.6L58.2,119.2L58.7,119.2L59.5,119.0L59.7,118.6L59.8,115.5L59.5,93.6L59.5,73.4L59.1,72.3L58.4,72.0L56.7,72.1L55.5,71.9L52.7,71.9L49.7,72.1L44.7,72.1L38.3,72.3L32.8,72.3L28.3,72.5L27.0,72.4L25.7,72.6Z M21.5,78.7L22.6,78.3L28.2,78.3L31.7,78.2L33.2,78.3L37.5,78.0L40.9,78.1L46.9,77.9L53.4,77.9L54.0,78.3L54.3,79.0L54.4,79.6L54.3,80.4L54.6,83.9L54.7,96.1L55.0,98.8L54.9,105.2L55.0,107.4L55.0,111.2L54.9,113.4L54.5,114.1L54.0,114.3L53.2,114.3L50.3,113.5L49.8,113.2L48.5,112.9L46.6,112.3L45.7,111.6L45.0,111.3L44.2,111.2L38.3,107.6L36.9,106.4L35.5,105.4L34.1,104.0L32.1,101.8L31.0,100.3L30.2,99.6L29.6,98.5L28.4,97.2L28.2,96.7L27.5,95.8L27.1,94.9L25.3,92.0L25.1,91.3L24.9,91.1L24.7,90.5L23.6,88.4L23.3,87.1L22.5,85.8L22.3,84.6L21.4,81.8L21.4,81.1L21.2,80.2L21.1,79.3Z M69.1,9.4L68.7,10.1L68.6,11.8L68.6,26.1L68.8,27.6L68.6,33.9L68.8,34.6L68.7,41.1L68.9,41.6L68.8,49.7L68.9,55.3L69.4,55.9L70.1,56.0L73.6,56.1L74.3,55.9L86.2,55.9L94.4,55.8L97.0,55.6L104.7,55.6L107.6,55.5L108.7,55.4L109.0,54.9L108.8,50.3L107.7,43.6L107.3,42.8L107.2,41.8L106.4,40.0L106.4,39.4L105.9,38.8L105.9,38.2L105.5,37.4L103.7,33.7L103.2,32.4L102.9,32.1L102.3,31.0L101.5,29.9L101.0,28.8L99.3,26.5L98.2,25.5L96.2,23.0L93.2,20.1L88.4,16.6L86.8,15.6L86.0,15.0L85.1,14.7L84.3,14.1L83.8,13.9L83.2,13.5L82.7,13.5L81.9,12.9L80.6,12.5L80.3,12.3L79.5,12.1L79.1,11.8L77.8,11.4L76.9,11.2L74.6,10.4L71.7,9.8L71.2,9.6L70.0,9.4Z M73.4,15.2L73.8,15.1L74.6,15.1L76.1,15.4L76.8,15.7L77.6,15.9L79.1,16.6L79.6,16.7L82.7,18.1L87.4,21.0L88.4,22.0L91.1,24.0L94.4,27.2L95.8,29.0L96.3,29.8L97.5,31.1L98.0,32.0L98.6,32.8L98.9,33.5L100.3,35.6L100.6,36.3L102.3,39.6L103.5,43.5L104.2,46.5L104.6,47.6L104.5,49.7L103.8,50.6L102.1,50.9L97.5,51.0L91.0,51.0L89.7,51.2L85.2,51.0L84.0,51.2L81.9,51.1L78.1,51.3L76.8,51.1L75.4,51.3L74.1,51.0L73.4,50.5L73.3,47.7L73.4,43.2L73.2,41.8L73.2,37.1L73.0,34.7L73.0,15.7Z M55.7,9.6L55.0,9.8L51.3,10.5L50.6,10.8L48.7,11.2L47.8,11.7L46.9,11.9L44.1,13.0L43.3,13.1L42.1,13.9L41.6,14.0L39.4,15.2L38.7,15.5L38.4,15.7L35.7,17.2L32.9,19.2L31.7,20.0L30.8,20.8L29.7,21.6L26.7,24.2L22.9,28.2L19.9,32.1L18.9,33.7L18.6,34.0L18.4,34.5L17.2,36.3L16.7,37.6L16.4,37.9L15.7,39.3L15.5,39.6L15.2,40.3L14.6,41.4L14.4,42.0L14.1,42.4L13.5,44.5L13.2,44.9L13.1,45.7L12.8,46.0L12.7,46.9L11.9,49.0L11.8,49.8L11.5,50.3L11.0,52.5L10.8,54.4L10.7,55.0L10.7,56.6L10.3,58.2L10.3,59.5L10.2,60.5L10.2,62.7L10.7,63.6L11.2,64.0L13.8,64.1L15.9,64.0L18.0,64.2L20.9,64.1L29.0,64.3L41.8,64.1L44.3,64.2L45.2,64.0L62.4,63.9L63.2,64.0L63.8,64.2L64.1,64.5L64.4,65.2L64.6,66.6L64.6,81.5L64.8,87.1L64.7,90.3L64.8,97.7L64.9,101.1L64.8,110.0L65.1,117.9L65.2,118.6L65.6,119.0L66.1,119.0L71.6,118.7L72.5,118.5L73.5,118.4L75.2,117.9L75.8,117.9L77.0,117.5L78.7,117.2L79.4,116.9L79.9,116.9L81.0,116.4L82.5,116.0L83.2,115.6L83.8,115.5L84.2,115.2L84.8,115.0L85.9,114.5L86.7,114.2L86.9,114.0L89.3,112.9L89.8,112.5L91.6,111.6L91.9,111.2L93.0,110.7L94.4,109.7L95.4,108.8L96.5,108.1L101.7,103.5L105.9,99.0L106.9,97.4L108.2,95.9L108.8,94.9L109.4,94.1L110.8,91.9L113.0,87.6L113.7,85.9L114.8,83.6L115.3,81.8L115.8,80.3L116.0,79.2L116.4,78.4L116.5,77.5L116.8,76.6L116.9,75.4L117.3,73.9L117.9,68.9L118.1,64.6L117.8,64.1L117.5,64.0L116.1,63.9L108.4,64.0L103.7,64.0L103.0,64.1L98.2,64.0L96.7,64.2L91.1,64.2L89.5,64.4L72.6,64.4L71.8,64.5L66.0,64.5L64.8,64.4L64.1,64.1L63.6,63.4L63.9,62.6L63.9,60.6L63.7,58.8L63.8,57.8L63.6,54.0L63.7,49.7L63.6,46.4L63.6,36.7L63.4,33.5L63.5,29.4L63.2,16.2L63.3,9.7L63.2,9.3L62.8,9.1L61.3,9.0L59.6,9.1L57.6,9.5L57.1,9.4Z M113.4,69.7L114.0,70.4L113.7,73.9L112.9,76.5L112.5,78.6L112.1,79.5L112.1,80.2L111.4,81.6L110.8,83.8L109.5,86.4L109.1,87.6L106.9,91.5L104.7,94.4L103.7,96.2L102.4,97.5L101.8,98.5L100.2,100.2L97.9,102.3L93.3,106.1L92.8,106.4L92.0,107.1L90.9,107.6L90.5,108.0L90.0,108.2L89.7,108.4L89.2,108.6L87.2,109.8L85.7,110.4L84.4,111.1L84.0,111.2L83.3,111.6L81.7,112.1L80.7,112.5L76.6,113.7L74.5,114.2L73.0,114.4L72.4,114.6L71.1,114.7L70.0,114.5L69.7,114.3L69.5,113.7L69.3,106.1L69.3,103.4L69.2,101.6L69.3,95.9L69.1,91.2L69.2,87.6L69.0,70.9L69.2,70.5L69.6,70.2L70.4,70.1L74.2,70.1L75.2,69.9L80.5,70.0L81.0,69.8L82.8,69.9L85.1,69.7L89.9,69.7L92.3,69.6L99.4,69.7L100.6,69.4L113.1,69.5Z M58.1,14.7L58.4,15.1L58.6,16.2L58.6,20.5L58.7,22.1L58.7,48.4L58.9,51.0L58.7,53.3L58.8,54.4L58.7,58.0L58.1,58.6L57.8,58.7L49.7,59.0L39.4,59.0L33.2,59.2L22.4,59.1L21.2,59.3L15.9,59.2L15.1,59.0L14.8,58.7L14.7,58.0L15.3,53.8L15.7,52.6L15.9,51.4L16.3,50.6L16.4,49.7L16.6,49.3L16.8,48.5L17.6,46.1L18.0,45.6L18.0,45.3L18.4,44.5L18.6,43.7L19.5,42.1L19.5,41.9L19.7,41.6L20.3,40.5L20.5,39.6L21.5,38.5L22.1,37.1L23.9,34.5L24.6,33.7L25.2,32.8L26.1,31.9L27.1,30.5L30.6,27.0L32.7,25.2L33.1,25.0L34.4,23.9L34.9,23.7L35.9,22.8L36.7,22.4L37.6,21.6L41.9,19.2L43.1,18.8L44.2,18.0L45.7,17.6L47.5,16.8L48.6,16.5L49.0,16.3L49.6,16.2L50.4,15.9L51.5,15.7L52.9,15.2L53.8,15.1L54.9,14.7L55.5,14.7L56.6,14.5L57.8,14.5Z" fill="#000" fill-rule="evenodd"/>
</svg>