<svg xmlns="http://www.w3.org/2000/svg" viewBox="0 0 128 128" width="128" height="128">
  <path d="M62.4,9.1L60.2,9.3L58.8,9.3L57.5,9.6L56.5,9.6L56.1,9.7L54.3,9.9L53.3,10.2L51.5,10.4L48.5,11.3L47.8,11.6L47.1,11.7L44.2,12.6L42.7,13.4L42.5,13.4L41.5,13.9L40.7,14.1L37.3,16.0L36.9,16.1L36.4,16.5L35.3,17.0L34.9,17.4L33.5,18.2L32.2,19.1L31.2,19.8L30.4,20.5L29.2,21.3L28.2,22.3L27.5,22.7L22.6,27.7L19.8,31.1L19.5,31.8L19.0,32.2L18.9,32.6L17.8,34.0L17.6,34.5L17.3,34.8L17.0,35.6L16.7,35.8L13.9,41.2L12.2,45.7L12.1,46.2L11.8,46.7L10.8,50.4L9.9,54.8L9.3,60.1L9.2,66.0L9.5,68.9L9.9,71.4L9.9,72.3L10.7,76.4L11.7,79.7L12.1,81.2L13.5,84.9L14.3,86.5L14.4,87.1L15.8,89.8L17.0,91.9L17.8,93.1L17.9,93.4L20.9,97.5L22.6,99.7L24.4,101.7L28.5,105.6L31.8,108.2L35.7,110.9L36.1,111.0L37.4,111.9L41.0,113.7L41.7,113.9L42.0,114.1L45.3,115.5L46.1,115.7L47.9,116.4L49.0,116.7L49.8,117.0L50.5,117.1L50.9,117.3L55.5,118.3L60.1,118.9L65.9,119.1L66.6,118.9L70.8,118.8L76.6,117.8L81.1,116.6L84.0,115.6L84.5,115.3L84.8,115.3L86.3,114.5L87.1,114.3L92.7,111.5L96.3,109.0L96.7,108.6L98.8,107.1L101.9,104.5L106.3,99.8L107.1,98.8L107.9,97.9L109.0,96.3L109.8,94.9L110.6,94.0L111.2,92.7L111.9,91.9L113.3,89.2L115.1,85.2L116.5,81.0L116.7,80.6L117.8,76.6L118.3,74.1L119.0,67.8L119.1,63.3L118.7,57.7L117.7,52.2L116.8,49.1L116.8,48.7L115.5,44.8L115.2,44.3L115.0,43.3L114.5,42.6L114.2,41.6L112.8,38.9L112.3,37.8L110.1,34.0L108.3,31.4L105.6,28.1L101.9,24.2L97.5,20.4L92.9,17.3L92.3,17.0L90.9,16.1L88.6,15.0L88.0,14.5L84.6,13.0L84.0,12.9L83.8,12.7L82.0,12.1L81.4,12.0L81.0,11.7L78.4,11.1L77.7,10.8L76.9,10.7L76.4,10.4L74.3,10.0L72.3,9.8L71.4,9.6L65.5,9.1Z M64.0,66.7L65.7,66.7L66.3,67.1L67.0,69.2L67.9,71.0L69.1,72.7L71.4,74.9L73.5,76.0L75.9,77.7L77.2,78.9L78.4,80.4L79.7,82.3L80.6,84.0L81.4,86.7L81.9,89.3L81.9,92.1L81.6,94.0L81.1,95.5L81.0,96.2L79.6,99.3L79.4,99.4L78.0,101.5L76.2,103.3L73.9,105.1L71.8,106.2L68.2,107.3L65.7,107.6L63.9,107.6L62.4,107.4L61.7,107.1L60.5,107.0L57.9,106.0L56.2,105.1L55.1,104.4L52.6,102.2L50.6,99.7L49.2,97.1L48.8,95.8L48.3,93.9L47.9,91.3L48.0,88.8L48.6,85.8L49.6,83.3L50.7,81.2L52.8,78.7L55.2,76.6L57.7,75.2L60.2,73.0L61.4,71.6L61.5,71.2L62.3,70.2L63.6,67.0Z M34.8,58.7L36.2,57.0L40.0,53.8L43.1,52.0L43.9,51.8L44.5,52.6L46.2,56.0L46.8,56.6L47.5,57.9L49.9,60.5L51.7,62.0L54.3,63.8L55.1,64.2L55.3,64.2L56.1,64.7L57.3,65.1L57.9,65.4L58.1,65.4L58.8,65.8L59.2,66.2L59.2,66.7L59.0,67.7L58.5,68.7L57.4,70.2L55.7,71.7L52.6,73.6L50.5,75.3L48.3,77.9L46.4,80.7L45.1,83.8L44.7,85.0L44.2,87.2L44.0,89.7L44.0,92.3L44.2,93.6L44.7,96.1L45.3,98.0L46.6,100.6L47.3,101.9L48.3,103.3L50.0,105.2L52.7,107.6L55.3,109.2L55.9,109.3L57.5,110.2L59.8,110.9L63.7,111.5L67.4,111.5L70.1,111.0L73.4,109.8L76.4,108.2L76.9,107.7L77.9,107.1L80.1,105.1L81.5,103.4L82.7,101.8L84.0,99.4L85.1,96.2L85.8,92.4L85.8,89.0L85.5,87.0L84.7,83.9L84.0,82.0L83.0,80.1L81.2,77.5L78.8,75.0L76.7,73.4L73.6,71.4L72.0,69.9L70.9,68.0L70.5,67.0L70.5,66.2L70.7,66.0L73.6,64.9L75.8,63.9L77.6,62.7L79.3,61.3L81.2,59.4L82.5,57.8L84.0,55.5L84.9,53.6L84.9,53.2L85.4,52.5L86.1,52.5L88.0,53.5L89.7,54.7L91.9,56.6L93.4,58.1L95.7,61.0L96.7,62.8L97.1,63.3L98.4,65.9L100.2,70.6L100.6,72.4L100.6,72.8L100.9,73.4L101.0,74.9L101.4,76.0L101.5,77.7L101.8,80.1L101.8,83.0L101.5,84.9L101.5,86.2L101.0,89.7L100.1,93.2L98.7,96.9L97.1,99.9L95.4,102.1L92.5,105.1L89.7,107.1L86.3,109.1L85.9,109.2L85.2,109.7L84.1,110.0L83.2,110.5L81.4,111.0L80.7,111.5L78.7,111.9L77.9,112.3L77.2,112.3L76.2,112.8L74.4,113.0L73.3,113.3L71.8,113.5L71.4,113.7L65.3,114.1L62.7,114.0L58.3,113.7L57.4,113.4L56.3,113.3L54.9,112.9L53.9,112.8L53.0,112.5L50.1,111.9L50.0,111.7L47.9,111.1L45.2,110.1L42.3,108.7L39.6,106.9L39.4,106.9L37.0,105.0L34.7,102.9L32.6,100.3L31.1,98.0L29.8,94.9L28.8,92.1L28.7,91.1L28.2,89.6L27.8,87.8L27.8,87.0L27.5,85.6L27.4,83.5L27.4,77.4L27.7,76.6L27.8,75.2L28.4,71.9L29.2,69.8L29.3,68.9L29.7,68.2L30.8,65.3L31.2,64.7L32.1,62.7L32.7,61.8L33.5,60.5Z M81.4,51.8L81.4,52.3L81.2,52.5L81.0,53.1L79.8,55.2L78.3,57.1L76.4,59.0L73.8,60.8L73.2,61.0L71.8,61.7L70.5,62.1L70.1,62.0L69.9,61.8L69.9,60.9L70.1,59.8L70.6,58.4L71.4,56.8L72.7,55.3L74.4,53.6L76.4,52.4L78.3,51.8L78.8,51.8L79.1,51.6L80.0,51.4L80.8,51.4L81.1,51.5Z M48.2,51.2L48.5,50.9L49.6,50.9L52.1,51.5L53.0,51.9L53.4,52.2L54.1,52.5L56.1,54.0L57.5,55.4L58.9,58.0L59.5,60.3L59.5,61.7L58.4,61.7L56.6,60.9L54.3,59.5L51.8,57.3L50.2,55.3L48.7,52.7L48.6,52.3L48.2,51.6Z M72.7,15.7L73.5,15.5L75.7,15.5L77.9,16.1L78.9,16.3L80.6,17.0L81.3,17.1L82.1,17.5L82.6,17.6L86.6,19.5L89.1,20.8L90.7,21.9L92.0,22.6L95.1,24.9L96.7,26.4L97.0,26.5L98.5,28.0L98.8,28.1L102.0,31.6L104.1,34.3L104.3,34.4L106.5,37.7L108.1,40.5L109.3,42.7L110.2,45.2L110.4,45.3L110.4,45.6L110.8,46.3L111.2,47.9L111.8,49.2L111.9,49.8L112.4,51.5L113.2,54.4L113.4,56.5L113.7,57.3L113.7,58.8L114.0,59.9L114.1,65.7L114.0,68.7L113.6,72.3L112.9,75.1L112.8,76.0L112.0,79.0L110.5,83.5L110.2,84.0L109.9,84.8L106.8,90.6L104.9,93.2L104.4,93.7L104.2,93.6L104.2,92.9L105.0,89.6L105.6,84.9L105.6,78.6L105.4,77.9L105.2,74.9L105.0,74.6L104.3,71.0L103.5,68.6L103.4,68.0L102.8,66.5L102.5,66.0L101.9,64.2L100.5,61.2L99.3,59.3L97.5,56.7L95.7,54.5L93.6,52.5L90.9,50.4L89.1,49.3L86.8,48.3L86.5,48.0L86.5,43.3L86.1,40.7L85.8,39.3L85.2,37.6L84.9,37.2L84.7,36.2L83.4,33.8L81.2,30.8L80.0,29.5L78.1,27.8L75.1,25.7L72.8,23.9L70.8,21.7L70.5,21.0L70.1,19.6L70.5,17.8L71.8,16.2Z M57.2,15.6L58.3,16.5L58.6,16.9L59.0,17.8L59.2,18.7L59.2,19.5L58.8,20.9L57.4,22.9L54.4,25.6L53.3,26.2L50.2,28.6L48.3,30.6L46.2,33.3L44.7,36.2L43.8,38.8L43.6,39.9L43.4,40.5L43.1,43.0L43.1,46.7L43.0,47.4L42.7,47.7L40.6,48.7L38.7,49.9L36.0,52.0L32.2,55.9L32.1,56.2L30.7,57.8L28.9,60.5L28.0,62.2L27.9,62.6L26.5,65.3L25.3,68.8L24.8,70.8L24.1,74.4L23.9,75.1L23.9,76.2L23.6,77.2L23.5,79.5L23.5,83.2L23.7,85.1L23.7,86.2L24.1,88.4L24.2,89.6L25.2,93.9L25.2,94.2L24.8,94.2L22.6,91.4L22.1,90.3L21.6,89.7L20.9,88.4L20.0,87.0L17.6,81.7L17.0,79.7L16.7,79.0L16.1,76.9L16.0,76.2L15.8,75.9L14.7,69.8L14.3,66.5L14.3,63.9L14.3,60.5L14.8,56.6L15.4,53.0L16.3,49.5L18.1,44.4L18.9,42.8L19.0,42.4L20.9,38.8L23.0,35.5L25.1,32.6L27.8,29.6L29.4,27.9L32.9,24.8L34.9,23.5L35.8,22.6L36.6,22.2L38.3,21.1L39.6,20.4L42.0,19.1L43.4,18.6L45.2,17.7L45.9,17.5L46.5,17.2L49.2,16.3L50.2,16.1L51.5,15.7L52.9,15.3L53.4,15.3L54.4,15.0L55.8,15.0Z M62.9,14.1L66.5,14.2L67.3,14.3L67.5,14.6L67.5,15.2L67.2,15.4L66.6,17.0L66.2,18.7L66.3,21.1L66.5,21.8L67.0,23.1L68.2,24.8L70.0,26.5L70.9,27.1L71.4,27.6L72.1,28.0L73.2,29.0L74.6,29.8L75.1,30.3L75.9,30.8L77.0,31.7L79.2,34.0L80.6,36.3L81.8,38.8L82.6,41.7L82.8,43.8L82.7,46.6L82.4,47.2L81.4,47.4L78.6,47.4L77.3,47.8L75.1,48.6L74.0,49.1L72.0,50.3L69.6,52.6L68.2,54.4L67.0,56.6L66.3,58.6L66.3,59.0L66.0,60.0L65.7,62.5L65.3,62.9L64.4,62.9L64.0,62.7L63.8,61.6L63.6,59.4L63.1,57.5L62.7,57.0L62.5,56.2L61.3,53.9L60.2,52.5L58.4,50.6L56.6,49.2L56.2,49.1L55.3,48.4L54.3,48.1L54.0,47.9L50.9,47.0L49.4,46.8L47.5,46.8L47.0,46.3L46.8,45.7L46.9,42.4L47.5,39.4L48.9,36.1L50.1,34.2L52.7,31.4L54.4,30.1L56.8,28.7L59.4,26.5L61.2,24.6L62.0,23.5L62.6,22.3L63.0,21.1L63.1,20.2L63.1,18.2L62.7,16.4L61.9,14.8L61.9,14.5L62.3,14.2Z" fill="#000" fill-rule="evenodd"/>
</svg>