<svg xmlns="http://www.w3.org/2000/svg" viewBox="0 0 128 128" width="128" height="128">
  <path d="M59.6,9.1L57.8,9.4L55.8,9.6L52.9,10.3L51.2,10.6L50.3,11.0L49.7,11.0L46.1,12.2L43.6,13.2L41.3,14.4L39.9,15.0L35.0,17.9L30.7,21.1L27.4,23.9L23.6,27.9L23.4,28.3L22.4,29.4L22.1,29.9L19.3,33.6L19.3,33.9L18.4,35.1L17.4,36.9L16.9,37.7L14.7,42.2L14.3,43.4L13.9,44.1L13.8,44.7L12.8,47.2L12.8,47.8L12.4,48.9L12.4,49.3L12.0,50.3L11.9,51.0L11.4,52.7L11.4,53.2L11.2,53.8L10.4,59.1L10.3,61.8L10.3,65.6L10.4,68.7L11.0,73.5L11.5,76.1L12.1,78.4L12.2,79.2L12.8,80.8L12.9,81.7L14.0,84.3L14.3,85.3L14.5,85.6L14.8,86.4L15.1,86.8L16.1,89.2L18.3,93.3L18.9,94.1L19.4,95.1L21.7,98.4L25.9,103.2L29.2,106.2L34.2,110.1L39.5,113.3L44.3,115.4L49.5,117.2L49.8,117.2L50.0,117.4L50.4,117.4L53.1,118.1L58.4,118.9L60.6,119.0L61.5,119.1L68.3,119.0L73.5,118.2L73.8,118.1L74.7,118.0L77.7,117.3L78.5,116.9L79.2,116.8L79.9,116.4L82.1,115.8L83.4,115.2L83.7,115.2L86.0,114.2L89.0,112.7L89.7,112.2L91.2,111.5L92.2,110.7L93.3,110.1L97.9,106.7L101.5,103.4L103.1,101.7L103.3,101.4L104.1,100.7L104.3,100.4L104.8,99.9L105.1,99.3L107.1,96.9L108.1,95.2L109.1,94.0L109.6,92.9L110.7,91.4L112.9,87.0L112.9,86.8L113.4,85.9L113.6,85.0L114.4,83.5L114.5,82.8L115.3,80.7L115.4,80.1L116.0,78.7L116.4,76.7L116.6,76.0L117.3,71.5L117.6,70.6L117.9,66.2L117.9,60.8L117.7,58.3L117.6,57.9L117.3,55.0L116.0,48.9L115.8,48.4L115.2,46.1L114.4,44.2L114.3,43.5L112.5,39.3L110.0,34.8L107.1,30.4L104.5,27.2L101.4,23.9L98.5,21.3L95.8,19.1L93.0,17.3L91.6,16.6L90.4,15.7L85.7,13.4L85.4,13.2L85.2,13.2L82.9,12.2L79.3,11.0L75.2,10.0L69.5,9.1L66.9,9.2L66.6,9.5L66.4,11.9L66.4,25.9L66.3,28.6L66.3,35.3L66.4,36.2L67.0,36.8L69.2,37.1L69.6,37.2L71.3,37.6L72.0,37.9L72.9,38.0L73.3,38.3L74.9,38.8L77.9,40.4L79.3,41.2L82.2,43.5L84.1,45.4L85.8,47.6L86.2,48.4L87.5,50.3L88.4,52.3L88.8,52.9L89.8,55.8L90.0,56.9L90.2,57.5L90.2,58.2L90.7,60.7L90.8,65.4L90.6,67.4L89.9,71.0L89.0,73.8L87.5,77.1L86.4,79.0L84.8,81.1L83.3,82.9L80.8,85.2L78.5,86.9L77.7,87.2L77.3,87.2L77.0,86.7L77.1,83.2L78.1,82.2L79.6,80.9L80.9,79.6L82.7,77.3L82.9,76.9L83.6,75.9L84.5,74.1L85.3,72.4L86.2,69.4L86.6,67.9L86.6,66.5L86.9,65.1L86.9,61.9L86.2,57.9L85.7,56.1L84.9,54.1L83.7,51.7L83.3,51.3L81.9,49.3L80.4,47.6L78.4,45.7L75.8,43.9L73.6,42.8L71.9,42.2L71.5,42.0L70.0,41.6L66.1,40.9L62.4,41.0L59.6,41.5L59.1,41.7L57.2,42.2L54.5,43.3L53.3,44.1L52.6,44.5L51.3,45.3L49.7,46.7L47.8,48.6L46.0,50.9L44.3,53.9L43.7,55.1L42.5,59.0L42.0,62.0L42.0,66.3L42.5,69.2L43.2,71.8L44.2,74.2L46.1,77.5L47.9,79.7L50.8,82.5L51.0,82.9L51.1,85.7L51.0,86.4L50.7,86.8L50.3,86.9L49.5,86.6L47.7,85.2L45.3,83.0L42.9,80.0L41.7,78.1L41.4,77.5L41.0,76.8L39.3,72.9L38.9,71.6L38.8,70.8L38.5,69.8L38.4,68.9L38.2,68.2L38.1,66.6L37.9,65.8L37.9,62.5L38.1,61.9L38.2,59.8L38.8,57.0L39.5,54.9L39.7,54.1L41.0,51.2L42.2,49.2L43.3,47.6L44.7,45.9L47.1,43.4L50.5,40.8L53.8,39.1L56.7,37.9L60.6,37.0L61.6,36.9L62.0,36.8L62.4,36.4L62.5,34.5L62.5,18.0L62.4,16.7L62.4,10.0L62.4,9.7L61.8,9.1Z M78.4,23.0L80.3,23.8L81.0,23.9L81.6,24.3L81.8,24.3L83.3,25.1L83.7,25.2L84.0,25.5L84.6,25.7L85.0,26.0L85.4,26.1L89.0,28.4L90.3,29.6L90.7,29.7L91.8,30.8L93.2,32.0L94.7,33.5L97.1,36.3L99.0,38.9L99.4,39.3L100.9,41.9L102.0,44.2L102.7,45.3L103.6,47.6L103.7,48.1L104.2,49.1L104.7,51.0L105.1,52.1L105.7,54.7L106.0,57.7L106.3,58.8L106.3,60.3L106.5,61.4L106.5,65.9L106.3,66.6L106.4,67.4L105.9,71.0L104.8,75.9L103.1,80.8L101.4,84.4L99.9,86.9L99.0,88.1L98.8,88.7L96.5,91.8L95.0,93.6L90.6,97.7L87.8,99.8L87.3,100.3L86.1,100.9L85.4,101.5L84.7,101.7L82.8,102.9L80.2,104.0L78.9,104.7L78.1,104.9L77.7,105.1L76.5,105.3L76.1,105.6L75.6,105.7L74.9,106.0L70.5,106.9L69.0,107.0L66.0,107.4L61.3,107.3L56.3,106.7L52.7,105.8L49.3,104.5L48.8,104.5L46.7,103.5L46.3,103.4L45.1,102.7L44.7,102.6L43.2,101.7L42.5,101.3L41.3,100.5L40.7,100.2L38.2,98.4L34.5,95.0L32.1,92.4L30.6,90.4L29.9,89.6L26.8,84.4L26.6,83.8L25.4,81.4L24.1,77.6L24.0,77.0L23.6,75.9L23.3,74.3L22.9,73.3L22.2,69.0L22.3,68.6L22.1,67.2L22.0,64.6L22.1,60.9L22.4,58.2L22.6,57.3L22.7,56.0L23.7,51.8L23.9,51.4L24.5,49.3L25.9,45.7L28.1,41.5L29.0,40.3L29.6,39.2L30.7,37.9L30.9,37.5L33.8,34.0L37.4,30.5L38.4,29.9L39.1,29.2L42.9,26.6L43.4,26.4L45.2,25.3L46.7,24.7L47.1,24.3L47.4,24.3L50.1,23.2L50.8,23.3L51.1,23.8L51.1,26.4L51.0,27.1L50.6,27.5L47.1,29.2L44.5,30.6L42.9,31.8L42.5,32.0L39.5,34.4L35.5,38.4L34.7,39.4L33.6,41.1L33.0,41.6L31.0,44.9L29.4,48.1L27.9,52.4L27.9,52.7L27.7,53.3L26.8,56.7L26.2,61.1L26.1,65.9L26.5,70.0L27.3,74.2L28.2,77.1L28.9,78.6L29.3,79.9L29.7,80.5L30.3,82.1L32.6,86.0L34.0,88.0L36.1,90.6L40.4,94.8L41.8,95.8L42.9,96.4L43.8,97.2L44.8,97.7L46.0,98.6L46.4,98.7L49.9,100.5L51.8,101.0L52.5,101.4L53.5,101.7L55.2,102.1L56.1,102.4L60.1,103.0L61.9,102.9L62.1,102.8L62.3,102.2L62.4,99.0L62.4,75.1L62.0,74.4L60.8,74.0L58.8,73.0L57.6,71.9L56.3,70.6L55.1,68.7L54.6,67.4L54.1,64.7L54.1,63.0L54.8,60.1L55.1,59.2L55.6,58.6L55.7,58.2L57.2,56.4L58.6,55.2L60.7,54.0L62.1,53.5L64.2,53.2L66.0,53.3L68.6,54.0L71.2,55.5L72.7,57.1L73.3,58.0L74.2,59.9L74.8,62.2L74.9,64.0L74.7,65.9L74.3,67.4L73.3,69.7L72.1,71.2L70.0,73.1L68.0,74.1L66.9,74.4L66.2,75.1L66.0,81.4L66.1,90.6L65.9,102.0L66.0,102.3L66.5,102.9L67.2,103.0L69.0,102.9L69.4,102.7L73.3,102.1L74.1,101.7L75.1,101.6L79.7,99.8L79.9,99.6L82.2,98.4L83.8,97.3L84.1,97.2L84.5,96.9L86.8,95.5L89.3,93.4L92.2,90.6L93.4,89.2L96.6,84.5L98.4,81.2L99.7,78.1L99.7,77.9L100.1,77.1L101.5,72.3L102.4,66.0L102.4,61.4L102.3,61.0L102.3,59.9L101.8,56.1L100.8,52.2L99.5,48.6L99.4,48.5L99.2,47.7L96.6,42.9L94.7,40.1L93.6,38.8L93.0,37.9L89.8,34.6L88.6,33.6L85.8,31.5L83.0,29.7L80.1,28.3L78.5,27.6L77.7,27.2L77.3,26.9L77.1,26.4L77.0,25.6L77.3,23.1L77.6,22.9Z" fill="#000" fill-rule="evenodd"/>
</svg>