<svg xmlns="http://www.w3.org/2000/svg" viewBox="0 0 128 128" width="128" height="128">
  <path d="M64.5,110.2L64.0,110.1L55.8,118.4L55.2,119.2L55.2,119.5L55.3,119.7L58.3,120.2L64.4,120.2L64.6,120.1L64.7,118.1L64.7,110.8Z M85.8,115.6L85.8,115.2L85.3,114.7L81.0,110.5L77.6,107.1L65.5,95.4L64.6,94.8L64.4,88.6L64.4,81.2L64.2,80.9L63.8,80.9L61.3,83.4L59.9,85.0L56.4,88.3L55.3,89.7L49.3,95.6L43.2,102.0L38.2,106.9L34.3,110.9L34.2,111.3L34.3,111.6L34.8,112.1L37.6,113.8L42.2,116.0L43.2,116.0L58.4,100.8L60.4,98.6L62.5,96.6L63.0,95.9L63.8,95.2L64.2,95.0L64.4,95.2L64.6,95.8L64.5,97.0L64.7,109.4L64.9,109.7L66.4,111.2L69.1,113.6L74.5,118.9L74.8,119.1L75.7,119.1L81.2,117.7L84.0,116.5L85.2,116.2Z M109.2,64.7L109.3,65.2L118.1,73.8L118.8,73.8L119.0,73.6L119.3,71.9L119.3,70.6L119.5,69.1L119.6,67.7L119.5,65.2L119.1,64.5L118.8,64.4L112.9,64.3L109.7,64.4L109.4,64.5Z M9.2,55.8L8.9,57.4L8.5,64.0L8.3,64.0L8.3,64.8L8.5,64.9L8.5,65.2L8.9,65.5L9.4,65.7L18.8,65.6L19.3,65.3L19.2,64.8L11.2,57.0L9.6,55.6L9.4,55.6Z M115.2,43.3L114.8,43.2L114.3,43.5L112.3,45.6L111.5,46.5L103.4,54.6L102.8,55.4L99.7,58.4L98.7,59.6L96.1,62.1L94.3,64.0L94.3,64.4L94.5,64.5L100.3,64.6L108.6,64.5L112.4,60.7L118.0,55.0L118.5,54.2L118.5,53.4L118.1,51.5L117.7,50.3L117.3,48.3L116.9,47.6L115.9,44.6L115.7,44.3L115.4,43.5Z M18.1,34.5L17.7,34.5L17.3,34.9L15.9,37.2L15.2,38.7L14.6,39.6L13.1,42.9L12.9,43.4L12.9,43.9L13.1,44.3L16.7,47.7L21.1,52.2L22.2,53.2L24.9,56.0L25.4,56.2L29.7,60.6L33.6,64.3L34.3,65.1L34.3,65.4L20.3,65.5L19.8,65.9L9.8,76.2L9.9,77.6L10.3,78.8L10.4,79.8L10.7,80.3L10.9,81.4L11.1,81.8L11.3,82.9L12.0,84.4L12.7,86.5L13.2,86.8L13.8,86.5L20.3,80.0L23.4,76.8L34.1,66.1L34.5,65.4L45.3,65.4L48.7,65.3L48.9,65.0L48.9,64.7L47.3,63.0L39.4,55.4L36.2,52.2L35.7,51.8L29.9,45.9L27.2,43.4L22.5,38.7Z M31.1,20.0L27.2,23.3L26.9,23.4L25.8,24.6L24.9,25.6L24.9,26.3L41.9,43.1L42.7,43.8L50.5,51.6L57.4,58.2L63.7,64.5L63.6,64.9L62.5,65.0L50.4,65.1L49.2,65.4L48.4,66.3L43.2,71.6L31.1,83.7L30.9,84.1L28.6,86.3L27.7,87.3L18.9,96.3L18.8,96.9L19.5,98.2L22.3,101.6L24.1,103.6L24.9,104.3L25.6,104.2L39.1,90.7L40.7,88.9L44.1,85.5L44.6,84.9L51.2,78.4L63.6,65.8L64.2,65.5L64.3,65.7L64.4,69.2L64.4,79.8L64.7,80.5L70.6,86.1L95.1,110.2L95.8,110.3L96.9,109.4L97.3,109.3L99.0,107.8L99.5,107.5L102.1,105.3L103.3,104.0L103.3,103.3L96.3,96.3L90.9,91.1L77.2,77.6L75.9,76.5L64.7,65.4L65.0,65.1L66.0,65.0L68.4,65.0L70.8,64.9L79.3,64.9L80.2,65.9L80.4,66.2L80.7,66.3L92.5,78.0L93.0,78.4L97.0,82.5L100.0,85.3L103.0,88.3L103.6,88.8L109.9,95.0L110.6,94.9L112.2,92.4L112.4,91.9L113.1,90.8L114.2,88.8L115.1,86.7L115.0,85.8L98.4,69.2L93.6,64.7L93.0,64.5L80.1,64.7L79.9,64.6L79.8,64.1L80.8,63.0L92.2,51.6L92.6,51.0L93.9,49.9L102.5,41.0L109.3,34.1L109.6,33.7L109.6,33.1L107.9,30.6L106.3,28.5L103.8,25.8L103.4,25.6L103.0,25.6L102.6,25.8L66.7,62.6L65.1,64.1L64.7,64.3L64.4,64.2L64.3,64.0L64.2,50.6L63.9,50.0L58.8,45.0L58.1,44.5L51.5,37.7L50.8,37.2L38.6,25.1L36.8,23.4L35.7,22.2L32.8,19.3L32.3,19.2Z M42.4,13.9L42.4,14.1L42.8,14.7L45.2,17.2L63.8,35.4L64.1,36.2L64.2,38.3L64.2,49.3L64.2,49.5L64.7,49.6L65.3,49.2L68.3,46.2L68.5,45.8L90.6,23.4L94.7,19.1L94.7,18.6L94.0,17.9L91.9,16.5L86.2,13.7L85.3,13.8L82.8,16.3L80.5,18.9L74.9,24.5L73.1,26.5L65.0,34.6L64.3,35.0L64.0,34.5L64.0,21.5L63.8,20.9L53.8,10.9L53.0,10.4L52.0,10.4L50.1,11.0L49.2,11.1L47.4,11.8L46.5,12.0L45.5,12.5L45.0,12.5L43.7,13.2L43.0,13.4Z M73.7,9.9L73.1,9.7L69.6,9.4L68.6,9.2L64.5,9.2L63.9,9.7L63.8,20.0L64.0,20.4L64.5,20.4L64.7,20.2L73.5,11.2L74.0,10.5L74.0,10.2Z" fill="#000" fill-rule="evenodd"/>
</svg>