<svg xmlns="http://www.w3.org/2000/svg" viewBox="0 0 128 128" width="128" height="128">
  <path d="M107.5,31.4L107.2,31.4L106.9,31.6L106.7,32.9L106.6,34.3L106.4,35.1L105.6,41.2L105.6,42.2L105.5,42.8L105.1,47.0L104.8,48.8L104.8,50.1L104.4,52.8L104.3,54.8L104.1,56.1L104.0,58.6L103.8,60.2L103.8,61.6L103.3,64.9L103.2,68.9L103.0,69.5L102.9,71.5L102.8,72.0L102.4,77.7L102.0,81.4L102.0,82.9L101.8,83.8L101.8,85.3L101.6,86.3L101.5,88.9L101.2,91.4L101.2,93.5L100.8,97.6L100.7,100.4L100.4,103.1L100.4,104.5L100.5,104.7L101.0,104.8L102.0,103.9L104.4,101.4L107.6,97.5L108.2,96.5L109.8,94.3L110.4,93.2L110.7,92.8L112.0,90.5L114.5,85.2L115.0,83.7L115.3,83.2L115.5,82.3L116.2,80.4L117.2,76.2L118.1,71.1L118.4,65.7L118.3,60.6L118.2,59.8L118.1,57.7L117.5,54.8L117.5,54.1L116.3,48.5L114.2,42.8L114.0,42.4L113.5,41.1L112.7,39.6L112.1,38.2L109.0,33.2Z M98.7,21.8L98.1,21.9L96.6,23.9L93.6,28.2L93.6,28.4L91.9,31.0L91.2,32.4L90.5,33.5L88.1,38.3L88.0,38.7L86.6,41.7L85.2,45.1L84.9,45.6L83.1,50.0L82.5,51.7L81.7,53.5L81.5,54.2L80.9,55.8L79.3,60.4L77.3,65.8L76.8,67.5L76.5,68.1L75.8,70.3L75.7,70.9L74.7,73.5L74.3,75.2L73.7,76.9L73.5,77.8L72.7,80.2L72.1,82.4L71.8,83.1L71.6,84.0L71.4,84.5L71.1,85.7L70.9,86.2L70.7,87.1L70.5,87.6L70.2,88.8L69.8,90.0L69.8,90.3L69.0,92.8L68.3,95.5L67.2,99.1L66.5,102.1L66.3,102.6L66.3,102.9L65.7,104.6L65.7,105.0L65.2,106.4L65.1,107.2L64.9,107.6L64.7,108.7L63.6,112.7L63.2,114.7L62.9,115.5L62.3,118.2L62.3,118.6L62.6,118.9L63.8,119.1L69.1,118.9L72.3,118.6L77.0,117.8L80.1,117.0L84.5,115.3L89.5,113.0L89.8,112.6L90.3,110.8L90.4,108.4L90.7,107.5L90.8,105.4L91.2,104.0L91.3,101.2L91.6,100.4L91.8,97.5L92.1,96.8L92.1,95.1L92.7,91.4L92.7,90.6L92.9,90.3L93.1,87.7L93.5,85.7L93.6,84.1L93.9,83.4L94.3,79.8L94.7,77.8L94.8,76.5L95.4,72.9L95.7,70.5L96.0,69.0L96.1,67.7L96.4,66.6L96.5,65.4L96.7,64.6L96.7,64.0L97.4,60.6L97.5,59.4L97.9,57.9L98.1,55.8L98.4,54.6L98.4,54.0L98.7,53.1L99.0,50.5L99.3,49.7L99.5,47.8L99.8,46.8L100.0,45.5L100.2,44.7L100.4,43.1L101.1,40.5L101.3,38.8L101.7,37.6L101.8,36.7L102.0,36.1L103.0,31.8L104.2,28.0L104.1,27.1L103.0,25.7L99.3,22.2Z M94.8,18.7L93.4,18.0L92.9,18.0L90.3,19.4L85.1,22.7L81.5,25.5L80.7,26.0L78.2,28.0L75.4,30.7L75.0,30.8L73.2,32.5L68.4,37.6L63.8,42.9L59.7,48.2L58.4,50.1L56.1,52.9L54.7,55.2L53.1,57.3L51.9,59.3L49.8,62.2L48.7,64.3L48.2,64.9L48.1,65.2L46.7,67.4L46.4,68.0L45.9,68.5L45.9,68.7L43.4,72.8L43.1,73.5L42.4,74.4L41.2,76.8L40.5,77.7L40.3,78.4L39.5,79.4L38.8,81.0L37.2,83.7L34.8,88.3L34.6,88.6L33.8,90.1L33.6,90.4L33.6,90.6L29.8,97.7L28.0,101.3L27.4,102.8L27.2,103.1L27.0,103.6L27.1,104.3L29.0,106.1L33.7,109.7L37.3,111.9L38.3,112.3L38.7,112.6L40.8,113.7L41.0,113.7L41.7,114.1L43.5,114.9L49.0,116.9L50.3,117.0L50.6,116.7L52.0,112.5L52.1,111.7L53.0,109.5L53.1,108.7L54.3,105.4L55.4,101.9L55.7,101.5L56.2,99.5L57.0,97.4L57.2,96.7L57.5,96.3L57.5,95.7L58.1,94.0L58.4,93.6L58.9,91.6L60.2,88.3L60.8,86.4L61.1,85.8L62.3,82.3L62.5,82.0L63.4,79.3L64.8,76.1L65.0,75.3L66.2,72.5L66.2,72.2L66.6,71.5L67.0,70.2L68.4,67.1L69.2,65.1L69.8,63.8L70.0,63.1L70.7,61.8L70.8,61.3L72.4,57.9L72.5,57.5L73.0,56.7L73.8,54.6L75.3,51.9L77.7,46.7L77.9,46.5L78.7,44.7L80.2,42.2L80.4,41.5L81.2,40.6L81.8,39.3L83.0,37.5L83.3,36.6L87.7,30.1L89.3,28.0L92.2,24.5L96.1,20.5L96.1,19.9Z M91.2,16.5L89.8,15.9L88.6,16.0L88.1,16.3L87.1,16.4L83.1,17.7L74.2,20.9L68.9,23.2L64.4,25.5L63.3,25.9L62.0,26.7L59.2,28.1L57.6,29.2L52.6,32.0L51.0,33.2L50.1,33.6L49.8,33.9L47.1,35.6L45.6,36.8L44.6,37.3L42.2,39.3L41.5,39.6L40.6,40.4L37.4,42.7L33.3,46.0L32.4,46.9L31.4,47.6L22.9,55.4L17.0,61.0L12.8,65.3L10.5,67.4L9.9,68.2L9.8,69.1L10.2,70.9L10.4,73.6L11.8,79.7L13.1,83.6L15.0,87.9L15.7,89.0L15.9,89.7L16.8,91.2L17.0,91.9L17.6,92.6L18.7,94.5L19.3,95.1L19.7,95.2L20.2,94.7L20.4,94.1L20.8,93.6L20.9,93.2L22.0,91.5L22.7,90.2L23.7,88.8L24.2,87.8L25.7,85.6L26.2,84.5L27.0,83.4L28.9,80.2L31.2,77.0L32.3,75.0L35.9,69.9L36.4,68.9L37.0,68.2L39.1,65.2L40.0,64.0L41.9,61.3L46.2,55.9L46.7,55.0L51.6,49.2L51.7,49.0L53.9,46.6L54.4,45.9L55.3,45.1L56.6,43.6L62.3,37.5L66.9,33.3L70.5,30.3L76.5,25.8L80.1,23.6L82.2,22.2L84.0,21.3L84.7,20.8L87.3,19.4L89.1,18.6L91.2,17.5L91.6,17.2L91.5,16.8Z M88.0,15.0L87.6,14.7L84.9,14.8L82.2,15.2L80.8,15.2L80.6,15.0L80.8,14.8L82.2,14.5L83.1,14.5L84.1,14.2L85.6,14.1L85.6,13.8L85.4,13.7L84.9,13.5L80.6,13.5L80.3,13.7L79.4,13.7L78.9,13.4L79.5,13.1L80.8,13.2L83.0,12.9L83.0,12.7L82.2,12.4L80.4,12.4L79.5,12.3L78.9,12.5L77.7,12.6L71.9,12.6L71.7,12.3L72.2,12.1L73.4,12.1L73.7,11.9L75.9,12.0L77.5,11.8L71.4,11.7L70.6,11.9L68.0,11.9L67.3,11.6L66.9,11.2L73.3,11.0L74.8,11.1L76.0,11.0L76.5,10.7L73.0,9.9L71.9,9.8L69.9,9.4L68.6,9.2L65.6,9.2L60.6,9.2L57.1,9.7L56.3,9.7L54.6,10.1L53.2,10.3L51.5,10.8L51.6,11.0L52.0,11.1L56.5,11.1L57.1,11.3L57.1,11.6L55.5,11.9L47.8,11.9L46.4,12.1L44.5,12.8L44.2,13.0L44.4,13.3L46.1,13.3L59.3,12.8L59.3,13.1L58.9,13.2L58.4,13.2L57.4,13.5L54.8,13.5L53.0,13.8L49.4,13.9L46.2,14.2L44.0,14.2L42.9,14.5L41.4,14.5L40.3,14.6L39.7,14.9L35.8,17.2L35.5,17.4L35.6,17.7L38.0,17.6L39.6,17.3L41.3,17.2L41.9,16.9L43.8,16.8L46.1,16.4L46.7,16.5L47.6,16.3L50.0,16.1L53.0,15.6L55.4,15.5L56.6,15.2L60.2,15.0L61.0,14.7L62.9,14.6L63.3,14.5L64.5,14.5L66.9,14.1L68.3,14.1L69.7,13.9L71.5,14.1L70.8,14.4L69.5,14.5L67.4,14.9L66.6,14.9L64.9,15.2L63.7,15.2L62.1,15.5L60.2,15.7L59.3,15.9L54.3,16.5L51.2,17.1L50.5,17.1L46.5,17.8L44.5,18.0L41.3,18.6L40.1,18.7L39.4,19.0L35.9,19.5L34.1,19.9L32.9,20.0L31.6,20.3L30.1,21.1L27.2,23.6L25.0,25.8L22.8,28.4L22.8,28.7L23.3,28.8L23.8,28.5L24.8,28.3L25.6,28.0L27.5,27.5L28.3,27.1L29.2,26.9L32.7,25.7L33.0,25.7L34.3,25.2L35.7,24.9L36.6,24.4L38.2,24.1L39.1,23.7L40.4,23.5L40.9,23.2L42.2,23.0L45.7,21.9L46.7,21.7L47.6,21.4L48.1,21.4L49.0,21.0L49.9,20.9L50.5,20.7L53.2,20.1L54.5,19.7L55.4,19.6L56.4,19.3L57.5,19.2L58.7,18.8L59.7,18.7L60.5,18.4L61.5,18.3L62.9,17.9L65.6,17.5L67.0,17.1L68.8,16.8L70.1,16.5L71.1,16.4L71.9,16.2L72.9,16.1L74.4,15.8L75.4,15.8L76.7,15.4L77.6,15.3L78.3,15.5L78.1,15.7L77.3,15.7L76.4,16.1L75.0,16.0L74.1,16.6L73.2,16.7L72.2,17.0L68.9,17.6L66.3,18.3L65.4,18.4L64.8,18.6L61.8,19.3L61.2,19.5L58.7,20.1L58.2,20.4L56.8,20.6L55.7,21.0L54.8,21.2L52.1,22.1L51.7,22.1L51.0,22.4L48.8,23.0L45.6,24.1L44.0,24.5L41.2,25.7L38.8,26.3L38.2,26.7L34.3,28.0L33.7,28.3L32.8,28.5L25.4,31.5L23.3,32.5L22.9,32.6L22.6,32.9L21.0,33.4L20.2,33.9L18.5,34.6L17.8,35.2L16.4,37.5L14.0,42.4L13.9,42.9L13.2,44.6L13.0,45.6L12.5,46.7L11.3,50.5L10.3,55.5L10.3,56.5L10.5,56.7L11.0,56.5L20.5,48.7L22.5,47.2L23.0,46.9L24.2,45.9L25.7,44.8L26.1,44.7L27.2,43.8L29.0,42.6L29.6,42.0L30.5,41.5L31.2,41.0L35.4,38.3L35.9,37.8L37.7,36.8L39.5,35.6L41.1,34.8L41.6,34.3L42.1,34.2L42.6,33.8L44.2,33.0L45.7,32.0L47.0,31.4L47.9,30.7L48.5,30.5L51.8,28.7L53.0,28.2L53.3,28.0L54.8,27.4L56.1,26.6L56.6,26.5L58.0,25.8L58.4,25.7L61.0,24.4L61.5,24.3L63.4,23.4L63.9,23.3L64.2,23.1L64.8,22.9L65.2,22.6L68.5,21.5L70.1,20.8L70.6,20.7L71.5,20.3L73.6,19.7L74.4,19.3L76.4,18.7L76.8,18.5L78.4,18.2L78.8,17.9L80.1,17.6L81.1,17.2L82.7,16.8L84.6,16.2L86.7,15.8L88.0,15.3Z M59.8,12.8L60.5,12.6L61.7,12.7L61.5,13.0L61.2,13.1L60.1,13.1Z M68.1,12.3L68.3,12.3L70.3,12.5L70.1,12.6Z M64.8,11.4L64.9,11.2L66.0,11.4L65.1,11.5Z" fill="#000" fill-rule="evenodd"/>
</svg>