<svg xmlns="http://www.w3.org/2000/svg" viewBox="0 0 128 128" width="128" height="128">
  <path d="M12.2,79.6L12.2,80.4L13.3,82.8L14.1,84.4L14.4,84.8L14.6,85.5L17.4,89.8L18.4,91.0L18.9,91.8L20.1,93.0L21.9,95.4L23.2,96.4L26.2,99.4L31.4,103.0L34.4,104.7L34.6,105.0L35.9,105.5L36.3,105.8L37.8,106.4L39.9,107.5L41.4,108.0L41.8,108.2L42.7,108.5L44.1,109.1L45.0,109.3L45.5,109.6L46.3,109.8L47.0,110.1L49.3,110.6L50.0,110.9L52.9,111.4L53.4,111.4L56.4,112.1L57.7,112.2L58.7,112.4L61.0,112.5L62.4,112.7L67.2,112.7L73.0,112.2L80.3,110.7L85.4,109.0L86.1,108.6L86.8,108.5L88.1,107.8L88.6,107.8L89.0,107.4L89.5,107.3L90.6,106.6L91.2,106.5L92.3,105.8L93.0,105.5L93.3,105.3L93.9,105.0L96.6,103.4L97.7,102.4L97.7,101.9L97.2,101.4L96.1,100.4L94.7,99.5L94.2,99.0L93.2,98.4L92.5,97.8L91.8,97.4L90.8,96.6L89.1,95.6L87.6,94.5L87.2,94.4L84.3,92.6L82.7,91.8L82.2,91.6L80.6,90.7L80.3,90.7L80.1,90.5L78.8,89.8L77.4,89.4L77.0,89.0L76.3,88.9L74.8,88.1L74.3,88.0L73.6,87.6L73.0,87.5L72.6,87.3L70.7,86.6L70.4,86.4L68.3,85.8L66.3,85.1L65.1,84.9L64.0,84.4L61.1,83.8L59.0,83.1L58.2,83.0L57.3,82.7L56.1,82.6L52.1,81.6L50.0,81.4L49.3,81.1L48.6,81.1L46.6,80.7L42.9,80.4L41.8,80.2L40.2,80.2L39.8,80.0L36.4,79.8L35.8,79.7L33.4,79.7L31.5,79.4L30.5,79.5L29.7,79.4L27.0,79.4L26.1,79.2L24.1,79.1L14.0,79.2L12.9,79.3L12.3,79.4Z M10.4,73.8L10.4,74.7L10.6,75.2L10.7,75.8L10.9,76.1L11.4,76.4L32.6,76.4L34.0,76.6L37.0,76.6L38.2,76.7L42.4,76.9L44.0,77.1L46.9,77.2L47.4,77.4L51.1,77.7L51.7,77.8L52.9,77.8L54.3,78.2L55.7,78.2L56.6,78.5L59.2,78.7L59.6,78.9L60.2,78.9L65.3,79.8L69.8,80.9L70.2,80.9L71.4,81.3L71.8,81.3L72.2,81.5L73.0,81.6L74.2,82.1L74.9,82.2L75.4,82.4L76.1,82.5L76.8,82.8L77.4,82.9L79.0,83.5L79.9,83.8L80.2,84.0L81.3,84.2L81.6,84.5L82.2,84.6L82.7,84.9L83.7,85.1L88.5,87.3L89.0,87.4L89.5,87.8L93.0,89.4L93.9,90.0L94.3,90.1L97.4,91.9L97.8,92.0L100.8,94.1L101.9,94.6L103.0,95.7L104.5,96.6L105.0,96.6L105.5,96.4L107.7,94.1L111.0,89.8L112.1,87.9L112.0,87.4L111.6,87.0L107.2,84.9L105.8,84.4L105.0,83.9L102.1,83.0L101.5,82.6L98.1,81.6L96.5,81.0L95.8,80.9L95.4,80.6L94.5,80.5L93.8,80.2L91.3,79.5L90.2,79.1L88.7,78.9L88.6,78.7L86.6,78.3L85.9,78.0L85.4,77.9L85.0,77.7L83.4,77.6L82.6,77.4L81.7,77.3L79.8,76.7L77.5,76.4L76.2,76.1L75.0,76.0L74.5,75.8L72.7,75.4L60.7,74.0L59.2,74.0L55.4,73.6L53.0,73.6L52.2,73.4L45.8,73.2L43.7,73.3L33.8,73.0L23.3,73.2L19.8,73.1L18.7,73.3L12.3,73.4L11.8,73.5L10.9,73.5L10.5,73.7Z M119.0,67.6L118.7,67.2L118.2,67.0L109.6,66.4L104.2,66.4L103.2,66.2L101.2,66.3L97.3,66.1L95.2,66.2L91.1,66.0L85.2,66.0L80.5,66.2L78.6,66.0L76.1,66.2L72.1,66.1L62.3,66.3L56.0,66.3L52.1,66.5L49.5,66.4L42.3,66.7L39.4,66.7L38.6,66.9L33.8,66.8L32.6,67.0L29.2,67.0L27.5,67.1L23.7,67.1L20.8,67.3L17.7,67.3L16.6,67.4L11.0,67.5L10.2,67.6L9.5,67.8L9.4,68.1L9.3,68.9L9.4,69.8L9.7,70.3L10.0,70.6L27.1,70.2L35.6,70.2L36.6,70.0L54.7,70.0L57.2,70.2L61.2,70.2L62.7,70.3L64.7,70.3L69.7,70.7L71.2,70.7L76.1,71.3L77.3,71.3L78.5,71.5L82.4,71.8L85.7,72.4L86.3,72.4L93.4,73.6L93.7,73.8L96.2,74.2L97.2,74.5L97.8,74.5L98.7,74.9L99.9,75.0L100.2,75.1L105.8,76.5L106.6,76.8L107.2,76.9L107.4,77.0L109.0,77.4L109.4,77.6L111.0,78.0L115.1,79.5L116.1,79.6L116.7,78.6L116.9,77.9L117.1,77.6L117.3,76.9L117.5,76.5L117.8,75.1L118.1,74.5L118.1,73.8L118.6,71.5L118.9,69.0L119.0,68.8Z M118.6,56.0L117.4,51.2L117.1,50.6L116.5,48.5L115.5,46.6L115.1,46.2L114.6,46.2L109.8,48.2L107.7,48.9L106.8,49.4L104.8,49.8L102.2,50.9L101.5,51.0L100.5,51.4L97.8,52.0L97.4,52.2L96.6,52.3L95.6,52.7L95.2,52.7L94.1,53.1L92.8,53.2L92.1,53.6L89.7,54.1L89.0,54.4L88.1,54.5L83.6,55.5L82.1,55.7L81.2,56.0L78.0,56.5L77.7,56.6L76.6,56.7L75.8,57.0L74.9,57.0L74.1,57.2L72.2,57.4L70.3,57.8L65.1,58.3L64.0,58.6L59.7,58.9L55.8,59.4L54.2,59.4L51.0,59.8L44.6,60.2L42.9,60.2L42.1,60.3L39.4,60.4L38.3,60.6L37.6,60.5L36.4,60.6L32.6,60.7L30.5,61.0L28.2,61.0L27.2,61.1L21.9,61.3L19.5,61.5L16.9,61.5L10.2,61.8L9.7,62.0L9.3,62.5L9.2,64.2L9.3,64.5L9.8,64.8L14.2,64.8L15.6,64.6L17.4,64.7L19.6,64.5L23.9,64.4L25.0,64.2L28.1,64.2L28.7,64.1L31.0,64.1L33.7,63.8L36.6,63.8L38.2,63.7L39.4,63.8L40.2,63.6L46.1,63.5L47.4,63.4L56.1,63.0L57.9,62.8L59.8,62.8L60.7,62.6L66.0,62.6L67.4,62.4L69.0,62.4L70.0,62.2L76.5,62.0L76.9,61.8L79.0,61.8L80.9,61.6L86.6,61.4L89.7,61.1L92.1,61.0L92.7,60.9L94.6,60.9L95.2,60.7L100.3,60.5L101.8,60.2L103.0,60.2L103.7,60.1L105.8,60.0L107.3,59.8L113.4,59.3L117.7,58.7L118.4,58.5L118.7,58.1Z M110.8,38.1L109.5,36.2L107.0,33.1L104.2,30.2L103.5,29.8L102.8,29.7L101.9,30.2L99.8,32.2L96.0,35.0L95.2,35.4L94.2,36.2L93.4,36.5L90.4,38.4L89.8,38.6L89.6,38.8L87.2,40.2L87.0,40.2L86.6,40.5L85.4,41.0L85.0,41.1L84.8,41.4L84.3,41.5L84.1,41.8L83.0,42.3L82.6,42.3L82.1,42.7L81.6,42.8L79.2,44.0L78.1,44.3L77.6,44.6L76.3,45.0L75.8,45.4L73.9,45.9L73.6,46.2L73.0,46.2L72.4,46.6L71.8,46.6L68.8,47.8L67.9,47.9L67.0,48.3L64.6,48.9L64.1,49.1L63.3,49.2L62.4,49.5L56.7,50.9L51.0,52.0L48.5,52.3L47.5,52.6L46.2,52.7L43.9,53.2L42.8,53.2L42.2,53.4L39.4,53.6L37.8,53.9L33.3,54.4L31.2,54.5L29.6,54.7L25.1,55.0L24.2,55.1L22.4,55.1L21.4,55.4L18.1,55.4L17.1,55.6L10.9,55.9L10.4,56.1L9.9,56.8L9.8,58.4L10.0,58.8L10.6,59.0L16.6,58.6L17.7,58.7L19.7,58.5L25.6,58.3L26.4,58.2L35.4,57.6L38.0,57.3L39.5,57.3L41.0,57.0L46.8,56.6L47.4,56.5L49.3,56.4L49.7,56.2L53.7,55.9L57.6,55.3L58.3,55.3L60.2,54.9L61.4,54.8L63.0,54.4L64.1,54.4L65.6,54.0L67.6,53.8L69.1,53.4L70.1,53.3L70.7,53.0L73.1,52.6L74.9,52.1L78.9,51.2L82.5,50.1L83.2,50.0L84.9,49.4L88.2,48.5L90.3,47.8L90.5,47.6L93.0,46.9L94.2,46.4L94.6,46.2L96.3,45.7L98.1,44.8L98.6,44.7L99.5,44.2L99.8,44.2L100.7,43.8L101.9,43.4L106.2,41.2L107.2,40.9L107.7,40.5L110.2,39.1L110.7,38.6Z M95.8,24.2L94.2,23.0L92.1,22.0L91.5,21.6L87.7,19.8L85.8,19.2L85.4,19.0L83.4,18.4L82.3,17.9L79.0,17.0L78.2,17.0L77.6,16.7L75.4,16.2L73.6,16.0L72.6,16.0L72.1,15.8L69.1,15.8L68.1,15.6L65.8,15.7L64.6,15.5L61.0,15.9L59.7,15.9L58.8,16.2L56.0,16.5L55.7,16.6L51.4,17.4L45.7,19.1L45.3,19.4L43.0,20.1L42.8,20.2L40.2,21.2L39.7,21.6L39.2,21.7L37.8,22.5L36.3,23.1L36.1,23.4L34.1,24.4L29.0,27.7L26.2,30.1L25.5,30.6L22.1,33.8L18.0,38.8L15.0,43.4L12.6,48.2L12.5,48.7L11.4,51.3L11.2,51.8L11.2,52.5L11.7,52.9L12.6,53.0L14.1,52.8L15.4,52.9L20.6,52.4L22.1,52.4L26.2,51.9L27.4,51.9L29.6,51.5L30.5,51.5L31.0,51.4L33.6,51.1L36.7,50.6L38.2,50.5L39.0,50.2L40.2,50.2L43.9,49.4L44.4,49.4L45.4,49.1L46.2,49.0L46.5,48.9L47.1,48.9L48.2,48.6L48.4,48.5L49.8,48.2L50.8,47.9L51.7,47.8L52.7,47.4L53.4,47.4L53.8,47.1L55.0,46.9L58.4,45.8L59.2,45.6L61.7,44.6L64.6,43.8L65.3,43.4L67.4,42.6L68.1,42.2L68.8,42.1L69.9,41.6L70.2,41.4L71.6,40.9L72.0,40.6L73.4,40.0L77.8,37.8L80.3,36.2L81.0,35.9L85.8,33.0L91.2,29.0L91.6,28.5L94.2,26.4L95.8,24.7Z" fill="#000" fill-rule="evenodd"/>
</svg>