<svg xmlns="http://www.w3.org/2000/svg" viewBox="0 0 128 128" width="128" height="128">
  <path d="M9.5,119.6L10.5,119.6L10.3,119.4L10.2,119.4L9.8,119.4Z M8.0,119.6L9.0,119.6L8.8,119.4L8.6,119.4L8.2,119.4Z M12.0,119.6L11.9,119.4L11.7,119.3L11.3,119.3L11.1,119.4L11.0,119.6L11.2,119.6L11.5,119.5L11.6,119.5L11.8,119.6Z M37.7,50.7L37.6,50.9L37.2,51.3L37.0,51.6L36.5,52.4L36.4,52.5L36.2,52.7L36.2,52.8L35.9,53.1L35.8,53.4L35.0,54.6L34.7,55.1L34.6,55.4L34.4,55.5L34.2,56.0L33.7,56.8L33.3,57.5L33.2,57.7L33.1,57.9L32.8,58.7L32.5,59.3L32.4,59.4L32.2,59.9L31.4,61.7L31.0,62.9L30.9,63.1L30.7,63.9L30.6,64.2L30.3,64.9L30.3,65.1L29.9,66.4L29.4,68.8L29.0,70.7L28.8,72.8L28.8,73.3L28.6,74.5L28.6,76.0L28.6,79.1L28.7,80.4L28.7,81.0L28.8,81.2L28.8,81.7L28.9,82.5L29.0,83.1L29.1,83.5L29.3,85.0L29.8,87.4L30.2,89.0L31.0,91.4L31.3,92.0L31.7,93.1L32.0,93.8L32.2,94.3L32.8,95.6L33.1,96.3L33.3,96.7L33.9,97.6L34.0,97.9L35.6,100.6L35.8,100.8L36.0,101.1L36.3,101.5L36.9,102.4L38.2,104.1L39.5,105.6L40.4,106.5L40.7,106.9L41.1,107.2L42.8,108.8L45.1,110.7L45.3,110.8L45.5,111.0L46.0,111.3L47.1,112.1L48.2,112.8L48.4,112.9L48.6,113.1L48.7,113.1L48.9,113.2L49.3,113.4L49.8,113.8L49.9,113.8L50.0,113.9L50.3,114.0L51.5,114.7L52.2,115.0L52.4,115.1L52.5,115.2L53.1,115.4L54.0,115.8L56.6,116.9L57.2,117.0L57.7,117.2L58.1,117.3L58.6,117.5L58.8,117.5L59.1,117.6L59.4,117.6L59.8,117.8L60.1,117.8L60.4,118.0L61.0,118.1L61.7,118.2L62.1,118.3L62.9,118.4L63.3,118.6L63.6,118.6L64.3,118.7L65.0,118.8L65.4,118.9L66.0,118.9L66.6,119.0L67.2,119.0L68.8,119.1L71.7,119.1L72.5,119.0L72.7,118.9L73.3,118.9L74.5,118.9L75.0,118.9L75.4,118.8L76.0,118.7L76.6,118.6L76.8,118.6L78.0,118.3L79.2,118.1L79.8,118.0L80.7,117.8L81.0,117.7L82.5,117.3L83.1,117.0L83.9,116.8L84.0,116.8L87.4,115.4L88.4,114.9L88.6,114.8L89.4,114.4L89.7,114.2L90.0,114.1L90.4,113.8L90.8,113.6L91.0,113.4L91.3,113.3L91.6,113.1L92.5,112.6L93.0,112.2L94.4,111.3L95.5,110.4L96.0,110.0L97.5,108.8L98.3,108.0L98.8,107.6L100.4,106.0L102.7,103.3L102.9,102.9L103.5,102.3L105.2,99.7L106.5,97.5L106.5,97.3L106.3,97.4L106.1,97.5L105.5,98.0L105.4,98.1L104.2,99.0L103.3,99.7L102.8,100.1L102.2,100.4L101.9,100.7L101.4,101.0L100.7,101.5L100.4,101.6L100.3,101.8L99.7,102.1L99.5,102.2L99.2,102.4L98.8,102.7L97.7,103.2L97.4,103.4L96.9,103.6L96.7,103.7L96.2,104.0L95.9,104.1L95.4,104.3L94.3,104.8L94.0,104.9L93.4,105.2L93.1,105.2L92.7,105.4L92.6,105.4L91.8,105.7L91.6,105.8L91.4,105.9L90.5,106.1L90.3,106.2L89.3,106.5L88.7,106.7L88.2,106.8L87.9,106.9L87.8,106.9L87.2,107.0L86.9,107.0L86.5,107.2L86.0,107.2L85.6,107.3L84.0,107.6L83.7,107.7L82.7,107.7L81.9,107.9L81.1,107.9L80.8,107.9L79.4,108.0L76.5,108.0L74.5,107.8L73.7,107.7L73.0,107.7L72.5,107.5L71.9,107.5L71.0,107.3L70.6,107.3L70.1,107.2L69.8,107.1L69.5,107.0L68.9,106.9L68.6,106.8L68.2,106.8L67.9,106.6L67.1,106.5L66.9,106.4L66.3,106.3L64.4,105.6L64.0,105.6L63.4,105.2L63.0,105.2L62.2,104.9L62.0,104.7L61.8,104.7L59.8,103.8L59.7,103.7L59.6,103.6L58.7,103.2L58.1,102.9L57.6,102.6L57.4,102.5L56.9,102.2L55.8,101.6L55.2,101.1L54.9,101.0L53.8,100.2L53.7,100.2L53.2,99.7L52.8,99.5L51.7,98.6L51.3,98.4L50.3,97.5L50.2,97.4L48.5,95.8L47.1,94.4L45.8,93.0L45.3,92.2L44.5,91.3L43.9,90.5L43.7,90.2L42.8,88.9L42.4,88.3L42.1,87.8L41.9,87.5L41.6,87.1L40.8,85.7L40.5,85.0L40.4,84.9L40.3,84.7L39.9,83.8L39.4,82.7L39.2,82.3L38.1,79.5L37.0,76.1L36.5,74.1L36.4,73.5L36.3,73.1L36.3,72.6L36.0,71.3L36.0,71.0L35.9,70.6L35.9,69.8L35.7,69.1L35.7,68.4L35.7,68.0L35.7,67.3L35.6,66.9L35.6,66.0L35.6,63.3L35.7,61.8L35.7,61.5L35.8,60.6L35.9,60.1L35.9,59.8L36.1,58.0L36.2,57.8L36.2,57.2L36.3,56.9L36.3,56.7L36.6,55.4L36.9,54.3L37.0,53.7L37.3,52.9L37.4,52.5L37.7,51.6L37.8,51.2L38.0,50.8L38.0,50.7L37.9,50.6Z M114.2,43.9L113.8,43.3L113.6,43.1L113.4,43.1L113.4,43.4L113.5,43.6L113.5,43.8L113.7,44.6L113.7,44.9L113.8,45.3L113.8,45.5L113.9,46.0L113.9,46.5L114.1,47.5L114.1,47.8L114.2,48.3L114.3,50.8L114.3,52.9L114.2,54.3L114.2,55.2L114.2,55.8L114.0,56.4L114.0,57.0L113.9,57.9L113.9,58.2L113.6,59.3L113.6,59.5L113.5,60.4L113.3,60.9L113.3,61.1L113.1,62.0L112.8,63.2L112.7,63.7L112.5,64.1L112.4,64.9L112.0,65.7L112.0,65.9L111.9,66.3L111.5,67.4L110.6,69.5L109.6,71.4L109.3,72.2L109.0,72.6L108.4,73.7L108.2,74.0L108.1,74.2L107.4,75.4L107.3,75.5L107.2,75.7L107.1,75.9L106.8,76.4L106.6,76.6L106.3,77.1L105.7,77.8L105.1,78.6L104.7,79.1L104.6,79.3L102.6,81.6L100.7,83.4L98.6,85.3L97.7,86.0L97.5,86.1L97.1,86.5L96.7,86.7L95.0,88.0L94.7,88.1L94.2,88.5L93.7,88.7L92.7,89.4L92.1,89.7L91.8,89.9L91.2,90.2L90.4,90.6L87.9,91.8L87.8,91.8L87.4,91.9L85.9,92.5L85.8,92.6L84.4,93.0L84.2,93.1L83.9,93.1L83.5,93.3L83.2,93.4L82.9,93.5L82.6,93.5L82.3,93.6L82.0,93.7L81.5,93.8L81.2,93.9L80.8,94.0L80.4,94.0L80.0,94.1L79.1,94.3L78.0,94.5L77.6,94.5L76.7,94.7L76.2,94.7L75.8,94.8L75.1,94.8L74.6,94.9L70.8,95.0L70.1,94.9L69.3,94.9L67.9,94.8L67.7,94.7L66.5,94.6L66.1,94.5L65.5,94.5L65.2,94.4L64.4,94.3L64.0,94.2L63.4,94.1L62.4,93.9L61.8,93.8L61.7,93.7L61.1,93.6L60.9,93.5L60.4,93.4L60.2,93.4L59.9,93.3L59.5,93.1L59.2,93.1L59.0,93.0L58.5,92.9L57.9,92.6L57.1,92.4L57.0,92.3L56.1,92.0L55.2,91.6L54.5,91.3L52.3,90.3L52.2,90.2L52.0,90.1L50.8,89.4L50.4,89.2L50.1,88.9L49.8,88.8L49.1,88.3L48.8,88.2L47.9,87.6L47.6,87.4L47.3,87.1L46.8,86.8L46.7,86.7L46.1,86.3L45.4,85.7L45.0,85.5L44.0,84.6L43.5,84.1L43.0,83.6L41.8,82.5L41.6,82.2L40.6,81.2L40.4,81.0L40.1,80.6L39.9,80.4L39.7,80.3L39.6,80.3L39.6,80.5L39.8,81.1L40.8,83.4L40.8,83.5L41.1,84.1L41.3,84.3L42.0,85.7L42.3,86.1L42.4,86.4L42.6,86.7L42.7,86.9L43.6,88.2L44.1,89.1L44.6,89.7L44.8,90.0L46.0,91.6L46.2,91.8L46.8,92.5L47.4,93.2L47.4,93.3L49.3,95.2L50.8,96.5L51.7,97.3L52.2,97.8L53.1,98.4L53.7,98.9L55.1,99.9L55.2,99.9L55.4,100.1L56.1,100.5L56.5,100.7L57.5,101.4L58.4,101.9L58.6,102.0L59.8,102.6L59.9,102.7L60.2,102.7L61.1,103.2L63.8,104.3L66.1,105.1L67.1,105.4L67.7,105.6L68.7,105.8L69.2,105.9L72.1,106.5L72.5,106.5L73.6,106.7L74.0,106.7L74.5,106.8L75.1,106.8L75.7,106.9L77.4,106.9L79.5,106.9L79.7,106.9L80.3,106.9L80.7,106.8L81.8,106.8L82.6,106.7L83.5,106.6L84.0,106.5L84.6,106.5L85.0,106.3L85.4,106.3L86.0,106.2L87.1,106.0L87.8,105.8L88.6,105.6L88.7,105.5L89.5,105.4L91.8,104.6L93.1,104.1L93.2,104.1L93.4,104.0L94.4,103.6L94.6,103.5L95.3,103.3L95.4,103.1L95.7,103.1L96.8,102.5L96.9,102.4L97.2,102.3L97.9,101.9L98.2,101.8L99.6,100.9L100.1,100.7L100.4,100.4L101.3,99.9L103.3,98.4L104.5,97.5L106.0,96.2L107.8,94.5L109.2,93.0L109.6,92.5L110.0,92.0L110.3,91.7L111.8,89.8L111.9,89.5L112.2,89.3L112.5,88.7L112.8,88.4L112.9,88.1L113.0,87.9L113.2,87.6L113.7,86.9L114.0,86.3L114.5,85.6L115.5,83.5L115.6,83.4L115.6,83.3L115.8,82.9L115.8,82.8L115.9,82.7L116.2,82.0L116.5,81.4L117.3,79.3L117.6,78.4L118.1,76.8L118.3,76.0L118.4,75.7L118.5,75.5L118.6,75.1L118.6,74.8L118.8,74.2L118.9,73.8L119.0,73.3L119.0,72.8L119.2,72.0L119.3,71.3L119.5,70.7L119.6,69.9L119.6,69.4L119.7,68.8L119.7,68.0L119.8,66.8L119.8,63.6L119.7,63.2L119.7,61.0L119.6,60.2L119.5,60.0L119.5,59.5L119.4,59.3L119.4,58.5L119.2,57.8L119.0,56.6L118.9,56.0L118.8,55.6L118.6,54.8L118.5,54.4L118.4,54.0L118.3,53.8L118.1,52.7L118.0,52.6L117.9,52.1L117.6,51.5L117.6,51.3L117.4,50.9L117.3,50.3L116.5,48.3L116.3,48.1L116.3,47.9L116.0,47.3L115.9,47.1L115.3,46.0L115.2,45.8L115.0,45.5L114.9,45.2Z M56.6,33.9L55.5,33.9L53.0,34.1L52.7,34.1L51.3,34.2L50.9,34.3L50.4,34.4L49.6,34.5L49.0,34.6L48.7,34.7L48.1,34.7L45.2,35.4L44.4,35.7L44.1,35.7L43.9,35.9L43.2,36.0L42.0,36.5L41.3,36.7L41.0,36.9L40.0,37.2L39.8,37.4L39.5,37.4L39.2,37.6L38.6,37.8L38.2,38.1L37.4,38.5L36.7,38.9L35.7,39.3L33.0,41.1L32.1,41.7L31.4,42.3L30.8,42.6L29.8,43.5L29.4,43.9L28.2,44.9L26.7,46.3L25.5,47.6L23.7,49.7L23.6,49.9L22.9,50.8L21.7,52.4L21.7,52.6L21.5,52.7L21.5,53.0L20.6,54.3L19.9,55.5L19.8,55.7L19.5,56.1L19.2,56.7L19.2,56.8L18.6,57.9L18.4,58.4L18.0,59.3L18.0,59.4L17.9,59.5L17.6,60.5L17.3,60.9L16.9,62.2L16.7,62.7L16.5,63.6L16.4,63.8L16.3,64.2L16.0,65.2L15.9,65.8L15.7,66.4L15.6,67.1L15.4,67.4L15.4,67.8L15.1,69.1L15.1,69.8L15.0,70.0L14.8,71.3L14.6,73.7L14.6,75.1L14.6,78.2L14.6,78.5L14.6,79.4L14.8,80.6L14.8,81.1L14.9,81.5L15.0,82.5L15.2,83.3L15.2,83.7L15.5,85.0L15.6,85.2L15.7,85.9L15.9,86.8L16.1,87.4L16.2,87.8L16.4,88.5L16.9,89.9L16.9,90.3L17.2,90.7L17.3,91.2L17.5,91.6L17.9,92.7L18.3,93.4L18.4,93.7L18.6,94.2L18.9,94.7L19.0,95.1L19.2,95.4L19.9,96.8L20.2,97.2L20.3,97.6L20.7,98.2L20.9,98.5L21.1,98.8L22.5,101.0L22.8,101.2L24.0,102.9L26.0,105.1L28.9,108.0L29.4,108.3L30.4,109.1L31.0,109.6L31.6,110.1L31.9,110.3L32.2,110.5L32.9,110.9L33.3,111.3L33.6,111.4L33.8,111.6L35.8,112.8L36.4,113.1L37.4,113.6L38.4,114.1L38.9,114.3L39.3,114.6L39.6,114.6L40.0,114.9L40.3,114.9L40.8,115.2L42.4,115.8L42.8,115.8L43.2,116.0L44.1,116.3L44.3,116.4L47.1,117.1L47.6,117.2L47.9,117.3L48.1,117.3L48.8,117.4L50.5,117.7L50.9,117.7L51.5,117.8L52.7,117.9L53.2,118.0L54.3,118.0L55.4,118.1L56.3,118.0L56.3,117.8L56.1,117.8L55.9,117.7L54.3,117.1L53.3,116.7L52.7,116.4L52.6,116.4L52.4,116.2L52.3,116.2L51.7,115.9L51.5,115.8L51.0,115.6L49.4,114.8L47.5,113.6L46.6,113.0L46.1,112.7L44.5,111.5L43.1,110.4L43.1,110.4L41.5,109.0L38.7,106.2L36.7,103.8L36.6,103.6L35.9,102.8L35.9,102.6L35.1,101.5L34.9,101.3L34.5,100.6L33.9,99.8L33.8,99.5L33.4,99.0L33.1,98.2L32.7,97.8L31.7,95.8L31.7,95.6L31.1,94.5L31.0,94.1L30.9,94.0L30.7,93.4L30.2,92.3L29.9,91.0L29.5,90.2L29.3,89.4L29.1,88.5L29.0,88.0L28.8,87.6L28.8,87.2L28.6,86.9L28.5,86.3L28.5,86.2L28.4,85.7L28.3,85.2L28.3,84.8L28.1,84.0L27.7,80.8L27.7,80.2L27.6,79.4L27.6,79.0L27.6,78.4L27.5,76.6L27.6,74.7L27.7,74.0L27.8,72.3L27.9,71.9L28.1,69.8L28.8,66.4L28.9,66.3L29.0,65.7L29.3,64.8L29.5,64.0L29.7,63.7L29.7,63.4L29.9,63.0L29.9,62.9L30.0,62.6L30.2,61.9L30.4,61.6L30.7,60.8L31.7,58.5L32.5,56.7L32.6,56.6L33.1,55.7L33.2,55.6L33.8,54.6L33.9,54.4L34.0,54.2L34.2,54.0L34.6,53.3L34.7,52.9L35.0,52.6L35.9,51.4L36.8,50.2L36.9,50.0L38.7,47.8L39.2,47.4L39.3,47.3L41.0,45.6L42.4,44.3L42.5,44.3L43.8,43.1L46.5,41.1L47.2,40.7L47.6,40.4L48.1,40.1L48.3,40.0L49.1,39.5L50.5,38.7L51.4,38.3L52.3,37.8L52.5,37.8L53.8,37.2L54.1,37.1L54.7,36.8L55.1,36.7L55.8,36.4L56.8,36.1L57.0,36.0L58.4,35.6L58.7,35.4L58.8,35.4L59.3,35.3L59.7,35.2L60.1,35.1L60.4,35.0L60.7,34.9L61.1,34.9L61.4,34.8L62.0,34.7L62.2,34.6L62.2,34.5L62.1,34.4L61.2,34.3L60.1,34.2L59.5,34.1L58.5,34.1L58.2,34.0Z M84.4,40.1L83.5,38.8L83.2,38.3L82.6,37.6L82.4,37.2L82.2,37.0L81.5,36.0L79.4,33.6L78.6,32.9L76.5,30.9L75.1,29.8L75.0,29.7L73.5,28.5L73.5,28.5L73.0,28.2L71.6,27.2L71.5,27.2L70.9,26.8L69.7,26.1L66.9,24.6L64.8,23.8L64.6,23.7L64.5,23.6L63.6,23.3L63.0,23.1L62.6,23.0L62.4,22.9L62.1,22.8L61.8,22.7L60.8,22.4L60.6,22.3L60.2,22.3L59.2,22.0L58.7,21.9L58.6,21.8L57.9,21.7L57.7,21.6L57.2,21.6L56.7,21.5L56.0,21.4L55.2,21.2L52.2,20.9L47.5,20.9L46.8,21.0L45.8,21.0L45.6,21.1L44.5,21.2L44.1,21.3L43.6,21.3L42.7,21.5L42.3,21.6L41.7,21.6L41.6,21.7L41.2,21.8L40.9,21.8L40.3,22.0L39.5,22.2L39.2,22.3L38.8,22.3L38.0,22.6L37.6,22.7L37.3,22.8L37.2,22.8L35.1,23.6L34.2,24.0L34.0,24.0L33.8,24.2L33.0,24.5L32.1,24.9L31.8,25.0L29.7,26.1L29.4,26.3L28.8,26.7L28.7,26.7L27.3,27.6L27.0,27.8L26.2,28.3L25.5,28.8L25.0,29.3L24.6,29.5L23.3,30.5L22.4,31.4L22.3,31.4L22.2,31.6L22.0,31.7L19.4,34.3L18.0,35.9L17.2,37.0L16.4,38.0L15.4,39.4L15.2,39.7L15.0,40.1L14.7,40.4L14.7,40.6L14.2,41.3L13.7,42.2L13.6,42.3L13.3,43.1L13.1,43.3L12.8,44.1L12.4,44.7L12.1,45.5L11.9,45.9L11.8,46.2L11.3,47.3L11.2,47.6L10.9,48.2L10.8,48.8L10.6,49.1L10.5,49.6L10.3,50.0L10.3,50.2L10.1,50.7L9.9,51.5L9.8,51.7L9.7,52.1L9.7,52.2L9.6,52.7L9.5,52.9L9.4,53.6L9.2,53.8L9.1,54.8L9.0,55.2L8.9,55.9L8.9,56.1L8.8,56.4L8.7,56.9L8.6,57.2L8.6,58.2L8.5,58.4L8.5,58.9L8.4,59.3L8.4,60.9L8.3,61.2L8.3,61.7L8.3,64.0L8.3,64.1L8.3,64.5L8.4,65.4L8.3,66.0L8.4,66.7L8.4,67.1L8.5,67.7L8.6,68.3L8.7,68.7L8.8,69.9L8.9,70.2L9.0,70.9L9.2,72.0L9.2,72.2L9.3,72.5L9.5,73.4L9.9,74.8L9.9,75.0L10.1,75.5L10.1,75.6L10.4,76.4L10.6,77.1L10.8,77.6L11.1,78.4L11.2,78.6L11.5,79.4L11.7,79.7L11.9,80.3L12.0,80.5L12.1,80.7L12.3,81.1L12.8,82.1L12.9,82.2L13.1,82.9L13.4,83.4L13.7,83.8L13.9,84.3L14.1,84.5L14.2,84.5L14.2,84.1L13.9,82.5L13.9,82.2L13.8,80.8L13.5,77.3L13.6,73.3L13.7,72.4L13.9,70.5L14.5,67.2L14.6,66.8L14.6,66.4L14.7,66.1L14.8,65.8L15.0,65.2L15.2,64.3L15.2,64.2L15.3,64.0L15.9,61.9L16.9,59.4L17.7,57.5L18.2,56.6L18.2,56.5L18.3,56.4L19.6,53.9L19.8,53.7L20.2,52.9L21.7,50.6L22.3,50.0L22.4,49.7L22.8,49.3L23.5,48.4L24.6,47.1L26.5,45.1L26.7,45.0L27.9,43.8L29.3,42.5L29.7,42.3L30.7,41.5L33.1,39.7L33.3,39.7L33.7,39.4L34.2,39.1L34.6,38.9L36.4,37.8L39.4,36.4L40.1,36.1L40.2,36.0L40.9,35.8L41.2,35.7L41.4,35.6L42.1,35.3L43.0,35.1L43.1,35.0L43.5,34.9L44.7,34.5L45.1,34.4L45.3,34.3L45.8,34.2L45.9,34.2L46.2,34.1L46.6,34.0L47.0,34.0L47.2,33.9L47.7,33.8L48.1,33.7L48.5,33.7L48.9,33.5L49.6,33.5L50.0,33.3L50.4,33.3L51.6,33.1L52.4,33.1L54.0,33.0L54.8,33.0L55.6,32.9L58.0,32.9L58.5,33.0L59.4,33.0L59.8,33.1L60.6,33.1L62.2,33.3L62.6,33.5L63.4,33.5L63.7,33.6L64.4,33.7L64.9,33.9L65.4,33.9L66.4,34.2L66.9,34.3L68.0,34.7L68.3,34.7L68.9,35.0L70.1,35.3L71.1,35.7L71.6,35.9L72.6,36.3L72.8,36.4L72.9,36.5L73.9,36.9L74.2,37.0L74.8,37.3L75.2,37.6L75.4,37.6L76.2,38.1L76.5,38.2L77.9,39.1L78.5,39.4L79.5,40.1L80.2,40.5L80.5,40.8L80.9,41.0L81.9,41.9L82.9,42.6L85.0,44.5L87.5,47.0L87.6,47.3L87.8,47.5L87.9,47.5L88.0,47.4L88.0,47.3L87.1,45.0L86.7,44.3L86.3,43.4L86.2,43.3L86.0,42.8L85.8,42.7L85.4,41.7L84.5,40.3Z M71.8,10.1L71.7,10.3L72.1,10.4L72.2,10.4L72.8,10.7L73.7,11.0L74.1,11.3L74.8,11.5L75.5,11.9L75.6,11.9L79.0,13.7L80.2,14.5L80.4,14.5L81.1,15.1L81.5,15.3L83.4,16.7L84.0,17.1L84.1,17.2L86.7,19.5L88.9,21.7L89.2,22.1L90.0,23.0L92.2,25.8L93.8,28.3L94.9,30.2L95.0,30.3L95.2,30.9L95.4,31.1L96.1,32.7L96.2,32.8L96.4,33.2L96.6,33.7L96.7,34.0L96.8,34.3L97.2,35.2L97.4,36.0L97.7,36.5L97.7,36.7L97.8,36.8L98.2,38.3L98.5,39.0L98.6,39.5L98.7,39.7L98.8,40.3L98.9,40.5L98.9,40.8L99.0,41.2L99.3,42.5L99.4,42.9L99.5,43.4L99.6,44.4L99.7,44.9L99.8,45.2L99.8,45.7L99.9,46.2L100.1,49.2L100.1,52.3L100.1,52.9L100.1,53.6L100.0,54.2L99.9,55.4L99.8,55.7L99.8,56.1L99.6,57.0L99.6,57.3L99.5,58.0L99.3,59.4L98.9,60.8L98.9,61.1L98.1,63.9L98.0,64.1L97.8,64.9L97.7,65.1L97.6,65.4L97.2,66.3L97.2,66.4L97.1,66.8L96.8,67.3L96.4,68.3L95.7,69.8L95.7,69.9L95.4,70.5L95.0,71.3L94.3,72.5L94.2,72.7L93.4,74.0L93.1,74.5L92.7,75.1L90.4,78.2L88.6,80.3L86.7,82.2L86.0,82.9L85.8,82.9L85.0,83.8L82.5,85.7L81.1,86.7L79.3,87.9L77.6,88.8L76.3,89.4L76.0,89.6L75.4,89.9L74.8,90.1L74.2,90.4L73.6,90.7L73.4,90.8L73.1,90.9L70.9,91.7L70.1,91.9L69.8,92.0L69.4,92.1L69.3,92.2L68.9,92.3L68.6,92.4L67.9,92.5L67.6,92.6L67.1,92.7L67.0,92.8L66.5,92.9L66.4,92.9L65.3,93.1L65.1,93.2L65.1,93.3L65.1,93.3L65.4,93.4L66.2,93.5L66.5,93.6L67.3,93.6L67.7,93.7L68.2,93.7L68.8,93.8L71.0,93.9L73.3,93.9L73.6,93.8L74.8,93.8L75.0,93.7L75.9,93.7L76.5,93.6L77.1,93.6L77.3,93.5L77.9,93.4L78.3,93.4L78.9,93.3L79.2,93.2L79.6,93.2L80.1,93.0L80.8,92.9L81.6,92.7L81.7,92.6L82.8,92.4L83.0,92.3L83.3,92.2L83.5,92.1L84.0,92.0L84.1,91.9L84.4,91.9L84.7,91.8L85.1,91.7L86.2,91.2L86.5,91.2L86.7,91.0L87.3,90.9L87.5,90.7L88.2,90.5L88.4,90.3L89.3,90.0L91.1,89.0L91.2,88.9L92.7,88.1L93.6,87.5L94.1,87.3L96.4,85.6L96.5,85.6L97.7,84.7L99.3,83.3L100.1,82.5L100.3,82.4L102.6,80.0L103.8,78.6L104.8,77.2L104.9,77.1L106.2,75.4L107.1,74.0L107.2,73.8L107.3,73.7L107.4,73.4L108.1,72.3L109.2,70.1L109.4,69.6L109.9,68.6L110.3,67.6L110.8,66.4L110.9,66.0L111.2,65.2L111.2,65.0L111.3,64.8L111.4,64.5L111.7,63.6L111.8,63.2L111.9,63.0L111.9,62.5L112.0,62.3L112.5,60.4L112.6,59.3L112.7,59.0L112.8,57.9L112.9,57.6L113.2,54.8L113.3,53.8L113.3,50.7L113.2,50.3L113.2,49.3L113.1,48.3L113.0,47.7L112.9,46.3L112.7,45.6L112.7,45.4L112.7,45.0L112.6,44.3L112.5,44.0L112.4,43.5L112.3,43.2L112.2,42.7L112.0,41.9L111.9,41.7L111.9,41.2L111.8,40.9L111.7,40.7L111.6,40.2L111.5,40.0L111.2,39.1L111.1,38.6L110.9,38.1L110.8,37.6L110.6,37.3L110.3,36.4L109.7,35.1L109.6,34.8L109.4,34.3L109.1,33.8L109.0,33.6L108.9,33.5L108.9,33.3L108.6,32.8L108.5,32.5L108.4,32.4L108.0,31.5L107.7,31.2L107.5,30.7L107.2,30.2L107.1,30.0L107.0,29.9L106.9,29.7L106.8,29.6L106.2,28.7L105.7,28.0L105.7,27.9L103.6,25.2L101.9,23.3L100.8,22.1L99.4,20.8L97.7,19.3L95.8,17.9L95.2,17.5L95.0,17.3L94.6,17.1L94.2,16.8L94.0,16.7L93.4,16.3L93.3,16.3L93.1,16.1L92.1,15.5L90.9,14.9L90.2,14.5L88.1,13.5L87.1,13.1L86.8,13.0L86.0,12.7L85.8,12.6L85.6,12.5L84.9,12.2L84.6,12.2L83.6,11.9L83.3,11.8L83.0,11.7L82.6,11.6L82.2,11.5L82.0,11.5L81.6,11.3L81.3,11.3L81.1,11.2L80.6,11.1L80.2,11.0L79.7,10.9L79.4,10.8L78.6,10.7L78.5,10.7L78.1,10.6L77.5,10.6L77.3,10.5L77.0,10.5L75.5,10.3L74.5,10.2L74.0,10.2Z M25.9,24.3L25.4,24.9L24.9,25.5L23.9,27.0L23.6,27.4L22.7,28.9L22.3,29.3L22.1,30.0L22.1,30.1L22.2,30.1L22.4,30.0L23.0,29.4L23.6,29.0L23.9,28.7L25.2,27.8L25.5,27.5L28.2,25.8L28.5,25.6L29.2,25.2L29.7,24.9L30.1,24.7L30.3,24.6L31.2,24.1L32.0,23.8L32.1,23.7L33.2,23.2L34.2,22.8L34.8,22.5L35.7,22.3L36.3,22.0L36.7,21.9L37.6,21.6L37.9,21.5L38.5,21.3L38.9,21.3L39.3,21.1L39.8,21.0L40.0,20.9L40.7,20.8L41.6,20.6L42.4,20.5L43.3,20.3L43.9,20.3L44.4,20.1L45.1,20.1L46.1,20.0L46.8,20.0L47.4,19.9L51.3,19.8L52.5,19.9L52.8,20.0L53.4,20.0L54.5,20.1L54.9,20.1L57.8,20.6L58.0,20.7L59.4,20.9L59.6,21.0L60.2,21.1L60.3,21.2L60.8,21.3L61.2,21.4L61.5,21.5L61.8,21.6L62.0,21.6L63.4,22.1L63.9,22.3L65.1,22.7L65.7,23.1L65.9,23.1L66.8,23.5L67.2,23.6L70.0,25.0L70.2,25.2L70.4,25.3L71.3,25.9L71.8,26.1L72.7,26.8L72.8,26.8L74.8,28.2L76.7,29.8L76.9,29.9L79.9,32.7L80.9,33.8L81.0,33.9L81.5,34.5L83.8,37.3L84.0,37.8L84.2,38.0L85.0,39.2L87.0,42.5L88.5,45.8L89.1,47.3L89.2,47.4L89.4,48.1L89.5,48.1L89.7,48.9L89.7,49.1L90.0,49.7L90.1,50.2L90.2,50.4L90.4,51.4L90.5,51.5L90.6,51.9L90.9,52.9L91.2,54.5L91.3,55.3L91.4,55.7L91.6,56.9L91.6,57.1L91.7,57.6L91.8,58.8L91.8,59.4L91.9,59.9L91.9,60.1L92.0,63.3L91.9,65.3L91.8,65.7L91.8,66.5L91.8,67.0L91.8,67.4L91.7,67.9L91.7,68.2L91.5,69.3L91.5,69.6L91.3,70.0L91.3,70.7L91.1,71.3L91.0,71.8L90.8,72.8L90.7,73.2L90.5,73.9L90.4,74.2L90.3,75.0L90.1,75.4L90.0,75.8L89.7,76.6L89.5,77.3L89.5,77.3L89.7,77.3L90.1,76.9L92.0,74.3L92.6,73.3L92.7,73.1L92.9,72.8L93.2,72.4L94.0,70.9L94.1,70.8L94.6,69.8L94.7,69.7L94.9,69.4L94.9,69.1L95.5,67.9L96.3,66.1L96.3,66.0L96.6,65.1L96.6,65.0L97.1,63.7L97.5,62.3L97.5,62.1L97.7,61.7L97.7,61.4L98.0,60.3L98.1,59.7L98.5,58.0L98.5,57.7L98.7,56.9L98.8,55.6L98.9,55.4L98.9,54.7L98.9,54.4L99.1,52.1L99.1,48.6L98.9,46.3L98.7,45.2L98.7,44.9L98.6,44.4L98.4,43.0L98.3,42.6L98.2,42.1L98.1,41.8L98.0,41.1L97.9,41.0L97.9,40.5L97.7,40.1L97.7,39.9L97.5,39.5L97.3,38.5L96.7,36.8L95.9,34.6L95.7,34.4L95.7,34.2L95.3,33.3L94.0,30.6L93.5,29.9L93.1,29.1L92.6,28.4L92.6,28.2L91.8,27.1L91.5,26.8L91.3,26.3L90.8,25.7L90.6,25.4L90.0,24.7L89.9,24.6L89.8,24.4L89.5,24.0L89.3,23.8L87.2,21.5L85.5,19.8L84.2,18.7L81.8,16.8L80.5,15.9L80.1,15.6L79.5,15.3L79.2,15.0L79.1,15.0L78.7,14.7L77.5,14.0L76.6,13.6L76.5,13.5L76.0,13.3L75.0,12.8L74.4,12.5L73.8,12.2L73.1,12.0L71.9,11.5L71.7,11.5L71.6,11.4L70.1,10.9L69.8,10.7L69.4,10.7L69.3,10.6L68.7,10.5L68.4,10.4L66.4,9.9L65.6,9.8L65.0,9.6L64.2,9.5L63.7,9.4L63.1,9.3L61.9,9.1L61.3,9.1L61.0,9.1L59.3,9.0L57.2,9.0L55.7,9.0L53.3,9.2L53.0,9.3L52.2,9.4L51.7,9.5L50.9,9.6L50.5,9.7L50.1,9.7L49.7,9.9L49.3,9.9L48.8,10.0L48.0,10.2L47.7,10.3L47.1,10.4L46.9,10.5L45.8,10.8L45.0,11.1L44.8,11.2L44.5,11.2L44.4,11.3L43.6,11.5L43.4,11.7L42.9,11.8L42.5,12.0L42.2,12.1L41.7,12.3L41.5,12.4L41.0,12.7L40.7,12.8L40.1,13.1L40.1,13.1L39.2,13.5L38.8,13.8L38.6,13.8L38.5,13.9L38.3,14.0L36.3,15.2L35.7,15.5L35.1,16.0L34.9,16.1L34.2,16.6L34.0,16.8L33.5,17.1L33.1,17.4L32.7,17.6L32.4,17.9L32.3,18.0L31.8,18.4L31.5,18.6L31.3,18.9L30.6,19.4L29.8,20.2L29.3,20.6L27.0,23.0L26.7,23.4L26.4,23.7L26.2,24.0Z" fill="#000" fill-rule="evenodd"/>
</svg>