<svg xmlns="http://www.w3.org/2000/svg" viewBox="0 0 128 128" width="128" height="128">
  <path d="M9.1,35.5L9.4,59.3L9.3,92.4L9.4,93.0L9.8,93.4L25.2,93.4L35.8,93.2L51.4,93.2L54.0,93.4L91.0,93.3L92.2,93.2L93.6,93.2L94.2,93.0L95.3,93.0L96.9,92.8L97.6,92.5L99.7,92.1L102.1,91.2L102.7,90.9L102.9,90.9L103.7,90.4L104.8,90.0L106.8,88.8L107.3,88.4L107.8,88.1L109.6,86.8L112.1,84.4L114.5,81.4L115.9,79.1L117.7,75.1L118.5,72.3L118.6,71.2L118.9,70.1L119.1,67.2L119.0,64.1L118.9,62.7L118.1,58.9L117.1,56.0L116.2,53.9L115.9,53.7L115.1,51.9L114.7,51.5L113.9,50.1L112.8,48.7L109.2,45.1L105.6,42.5L103.3,41.3L99.1,39.7L97.2,39.2L96.1,39.2L95.4,38.9L92.8,38.7L90.3,38.7L87.9,38.8L86.7,39.2L85.2,39.3L84.7,39.5L83.4,39.8L81.1,40.6L77.9,42.1L76.2,43.1L74.3,44.4L71.4,47.0L68.9,49.8L68.4,50.9L68.1,51.0L67.6,51.8L66.2,54.5L65.4,56.5L65.2,57.3L64.8,58.2L64.7,59.0L64.4,59.7L63.8,63.0L63.8,67.4L64.0,69.8L64.2,70.7L64.3,71.6L64.8,73.4L66.3,77.4L67.9,80.2L69.3,82.3L72.1,85.4L75.0,87.9L75.6,88.2L76.9,89.2L80.0,90.8L80.0,91.0L79.5,91.0L78.0,90.5L75.7,89.5L75.2,89.4L75.0,89.2L74.4,89.0L74.0,88.7L73.5,88.6L73.0,88.2L72.5,88.1L70.7,86.9L70.0,86.5L69.4,86.0L68.6,85.6L65.7,83.3L62.8,80.5L60.5,77.8L57.9,73.9L56.2,70.7L54.4,66.4L53.0,60.6L52.6,56.6L52.6,52.8L52.9,49.1L54.2,43.5L55.7,39.6L56.7,37.4L57.8,35.6L57.8,35.2L57.6,35.0L53.1,34.8L37.1,34.8L31.5,35.0L9.7,34.9Z" fill="#000" fill-rule="evenodd"/>
</svg>