<svg xmlns="http://www.w3.org/2000/svg" viewBox="0 0 128 128" width="128" height="128">
  <path d="M99.9,9.1L98.1,9.1L96.1,9.5L95.2,9.5L90.9,10.1L89.5,10.2L88.9,10.4L87.6,10.5L85.6,11.0L84.6,11.1L84.0,11.3L82.5,11.5L81.5,11.9L80.5,12.0L79.9,12.2L79.1,12.3L77.5,12.7L76.9,13.0L75.9,13.1L75.2,13.4L74.5,13.6L74.2,13.8L72.2,14.3L70.3,15.1L69.6,15.2L69.0,15.5L67.0,16.1L64.1,17.5L62.5,18.1L57.6,20.7L53.5,23.3L48.6,27.0L48.0,27.6L46.8,28.5L41.5,33.7L38.7,37.2L37.1,39.6L36.4,40.5L34.9,43.1L34.3,44.2L33.9,44.8L33.0,46.8L32.6,47.5L32.4,48.1L31.7,49.3L30.0,53.6L29.2,56.6L28.6,58.1L28.3,59.7L27.6,62.8L27.6,63.5L27.3,65.6L27.1,67.3L27.0,75.1L27.2,77.5L27.4,78.9L27.6,81.7L28.0,82.9L28.4,85.7L28.7,86.4L29.3,88.8L29.6,89.5L29.8,90.2L30.3,91.6L30.6,92.1L30.7,92.5L31.1,93.1L32.3,95.9L33.1,97.1L33.2,97.5L33.4,97.7L34.7,100.0L35.2,100.7L35.5,101.3L39.2,106.0L43.1,109.6L46.5,112.3L50.8,114.9L51.4,115.1L52.8,115.9L53.4,115.9L54.7,116.6L55.4,116.8L55.7,117.0L57.6,117.6L60.1,118.2L61.0,118.5L64.3,118.9L69.4,119.1L73.9,118.9L74.6,118.6L76.9,118.3L78.6,117.7L79.2,117.6L79.8,117.3L81.5,116.9L83.8,115.9L86.5,114.3L87.9,113.2L89.8,112.0L93.1,108.7L94.1,107.7L95.9,105.1L96.0,104.8L96.8,103.6L97.9,101.6L98.4,100.1L99.2,98.1L100.4,93.7L100.7,91.3L100.8,90.9L101.0,89.1L101.1,86.9L101.3,86.2L101.0,62.5L100.9,57.4L100.9,46.4L100.7,43.2L100.7,31.6L100.5,25.9L100.6,22.7L100.4,19.4L100.4,10.1L100.4,9.8Z M75.4,59.2L78.3,59.7L78.6,59.9L79.4,60.0L83.1,61.4L84.5,62.2L88.1,64.7L90.5,67.0L91.7,68.3L93.9,71.7L94.8,73.6L95.8,76.6L96.1,76.9L96.2,77.9L96.5,78.7L97.0,81.7L97.0,87.0L96.7,87.8L96.7,88.8L95.8,92.1L94.8,94.6L94.1,96.1L94.0,96.4L92.4,98.6L92.3,99.1L90.9,100.6L90.8,100.8L88.0,103.6L85.8,105.2L83.8,106.3L80.9,107.7L79.7,108.1L78.6,108.3L78.4,108.5L76.8,108.7L76.1,109.0L74.1,109.1L70.8,109.1L70.2,109.0L69.0,109.0L65.5,108.1L65.1,107.9L63.6,107.4L61.1,106.3L59.7,105.4L58.1,104.3L55.4,102.0L52.8,99.1L51.1,96.4L50.3,94.8L50.3,94.5L49.8,93.8L49.8,93.1L49.4,92.5L48.8,90.6L48.1,86.6L48.1,81.5L48.5,79.5L48.8,78.3L48.8,77.9L50.4,73.4L51.6,71.3L53.1,69.0L55.0,66.8L56.8,65.0L59.9,62.7L63.2,61.0L65.0,60.4L65.3,60.4L66.3,60.0L66.8,60.0L67.3,59.7L68.3,59.7L69.8,59.3L73.9,59.1Z" fill="#000" fill-rule="evenodd"/>
</svg>