<svg xmlns="http://www.w3.org/2000/svg" viewBox="0 0 128 128" width="128" height="128">
  <path d="M61.2,9.1L60.8,9.3L57.5,9.4L56.2,9.6L54.1,9.7L52.8,10.1L51.0,10.4L49.0,10.8L47.8,11.3L45.9,11.8L43.1,12.8L41.7,13.6L39.9,14.4L39.3,14.8L36.2,16.2L35.8,16.5L34.4,17.3L33.3,18.3L32.3,18.8L30.5,20.4L29.0,21.4L27.5,22.7L27.2,22.9L25.0,25.2L23.2,26.9L20.6,30.2L20.1,31.0L19.6,31.6L18.7,33.2L18.0,34.1L17.0,35.8L16.3,36.6L14.8,39.6L14.2,41.3L13.8,42.5L13.1,44.1L12.4,46.3L12.4,46.6L11.2,50.0L10.8,51.7L10.4,53.0L10.4,54.5L10.2,55.2L9.7,57.9L9.7,59.8L9.4,62.1L9.4,65.9L9.5,66.6L9.5,68.3L9.8,70.7L10.0,71.8L10.0,72.7L10.3,74.4L10.5,75.0L10.9,77.2L11.6,79.6L12.0,80.3L12.4,82.0L12.9,83.6L13.7,85.3L13.9,86.0L14.6,87.1L15.2,88.3L15.3,88.7L15.9,89.4L16.8,91.4L17.3,92.1L17.9,93.2L19.3,94.7L21.5,98.1L26.1,103.2L26.5,103.4L28.1,104.9L29.9,106.3L30.6,107.0L35.0,110.2L41.4,113.5L42.6,113.9L43.2,114.3L44.8,114.9L45.9,115.5L47.1,115.7L47.8,116.1L48.5,116.2L50.4,116.9L53.3,117.5L54.8,118.0L55.9,118.1L57.4,118.5L58.8,118.5L59.8,118.8L65.2,119.1L65.6,118.9L65.7,117.6L65.5,114.5L65.5,104.3L65.4,103.3L65.0,102.9L64.4,102.7L61.0,102.1L60.5,101.9L59.7,101.7L58.4,101.6L57.4,101.3L56.2,101.1L53.8,100.4L52.8,100.3L50.6,99.4L50.3,99.2L49.4,99.0L47.0,97.7L44.0,96.0L42.4,94.8L41.5,94.3L39.2,92.5L38.3,91.6L37.9,91.4L36.0,89.3L34.3,87.3L32.7,85.0L32.1,83.8L30.9,82.0L28.2,76.1L28.1,74.9L27.3,72.5L26.9,70.8L26.6,67.9L26.3,66.3L26.5,60.6L26.7,60.0L26.7,58.8L27.0,56.3L27.3,55.5L28.1,52.4L28.6,50.7L29.0,50.0L29.6,48.1L30.4,46.3L30.7,46.0L32.6,42.6L35.2,39.2L39.4,34.9L41.6,33.4L42.7,32.4L43.4,32.1L45.1,30.8L45.8,30.6L46.9,29.9L48.9,28.9L50.3,28.4L50.6,28.2L51.7,28.0L52.6,27.6L53.6,27.4L55.4,26.8L57.0,26.6L57.9,26.3L59.0,26.2L60.3,25.9L63.1,25.8L65.3,26.0L65.8,26.3L65.9,26.5L65.5,26.8L63.1,27.3L61.8,27.9L60.7,28.2L59.9,28.7L57.6,29.9L55.9,30.9L51.3,34.5L49.6,36.1L48.5,37.5L47.7,38.2L47.5,38.6L45.9,40.5L45.1,41.7L44.3,43.1L44.0,43.4L43.1,45.0L43.0,45.6L42.4,46.6L42.2,47.4L41.3,49.1L40.3,51.9L40.0,52.3L39.7,53.5L39.6,54.4L39.2,55.2L38.6,57.4L38.3,60.1L38.2,60.6L38.2,62.2L38.0,63.5L38.1,67.7L38.3,68.5L38.3,69.7L39.2,73.1L39.3,74.4L39.6,75.4L40.0,76.1L40.3,77.6L40.8,78.9L41.0,79.2L42.9,83.3L44.3,85.7L45.3,86.9L45.6,87.6L46.5,88.6L47.6,90.1L49.9,92.6L52.1,94.6L52.8,95.0L53.6,95.8L54.7,96.4L56.0,97.6L58.3,98.8L59.3,99.5L60.5,100.0L62.1,100.9L62.3,100.9L64.0,101.8L64.9,102.0L66.2,102.5L67.0,102.6L69.7,103.4L72.3,103.9L73.7,104.3L75.7,104.4L76.5,104.5L80.3,104.5L81.7,104.3L84.6,104.1L86.2,103.8L86.8,103.8L91.5,102.5L92.3,102.1L93.7,101.7L94.4,101.3L95.2,101.1L98.6,99.2L99.4,99.0L100.3,98.3L102.2,97.3L103.5,96.0L104.3,95.5L107.9,92.0L109.2,90.5L109.9,89.9L110.8,88.6L111.3,88.0L113.6,84.2L114.7,82.0L115.9,79.2L116.2,78.8L117.1,76.0L117.6,73.1L118.0,72.4L118.1,71.3L118.4,70.1L118.5,67.4L118.9,65.0L118.8,60.9L118.4,55.3L118.1,53.2L117.5,51.6L117.1,49.4L116.4,47.1L116.1,46.7L115.9,45.8L115.3,44.7L115.1,43.6L114.2,41.5L113.8,41.0L113.7,40.4L112.7,38.8L112.3,37.9L110.4,34.5L109.6,33.5L109.5,33.1L109.0,32.6L107.6,30.4L106.6,29.4L106.0,28.4L104.3,26.4L100.3,22.5L99.6,22.0L99.0,21.4L98.6,21.2L97.4,20.1L94.4,18.3L93.3,17.3L92.6,17.1L89.7,15.3L89.2,15.1L87.0,14.0L85.6,13.6L83.2,12.5L81.9,12.1L79.2,11.1L76.5,10.4L76.0,10.2L73.8,10.0L72.8,9.7L71.4,9.6L69.8,9.3L67.6,9.3L66.9,9.1Z M74.7,40.8L75.7,40.8L76.5,40.6L79.7,40.7L83.7,41.3L84.7,41.7L85.7,41.9L85.8,42.1L88.0,42.8L90.1,43.9L90.5,44.3L91.5,44.7L92.6,45.8L93.1,46.0L95.0,47.7L96.9,50.0L98.0,51.9L98.6,52.8L99.2,54.2L99.8,55.3L100.1,56.2L100.9,58.1L101.0,58.9L101.4,60.0L101.5,61.7L101.8,62.7L101.8,66.3L101.6,67.5L100.4,72.3L99.4,74.8L96.9,78.6L95.5,80.4L93.1,82.7L91.1,84.1L88.8,85.5L87.6,85.9L87.3,86.2L85.4,86.7L85.0,87.0L82.7,87.5L81.6,87.6L80.3,88.0L76.8,88.0L74.4,87.5L73.3,87.4L73.1,87.2L71.6,86.9L71.0,86.9L70.5,86.6L69.7,86.4L69.3,86.1L68.9,86.0L65.6,84.4L64.6,83.5L64.3,83.4L61.7,81.4L60.1,79.6L59.8,79.0L58.9,78.2L58.3,76.8L57.4,75.7L56.8,74.0L56.6,73.6L56.5,73.1L56.1,72.5L55.8,71.4L55.7,71.2L54.7,66.3L54.8,63.2L55.0,62.2L55.1,60.4L55.6,58.9L55.7,58.1L56.0,57.4L56.1,56.8L56.6,55.7L56.6,55.3L57.7,53.1L60.5,48.9L61.2,48.1L63.1,46.4L66.5,43.9L67.2,43.4L67.6,43.4L67.9,43.1L70.0,42.1L72.5,41.2L73.2,41.2Z" fill="#000" fill-rule="evenodd"/>
</svg>