<svg xmlns="http://www.w3.org/2000/svg" viewBox="0 0 128 128" width="128" height="128">
  <path d="M117.3,65.3L117.1,65.0L115.6,64.9L111.7,65.0L109.1,64.8L108.2,65.0L98.8,65.0L95.1,64.9L94.0,64.7L92.6,64.7L91.9,64.8L91.6,65.2L91.5,65.7L91.3,69.1L90.7,73.4L89.7,77.3L89.0,79.4L87.9,82.0L86.2,85.4L83.9,89.1L82.7,90.7L80.5,93.3L77.0,96.6L73.5,99.3L71.1,100.6L70.7,100.7L69.4,101.5L67.1,102.5L66.6,102.8L64.8,103.4L64.4,103.6L64.0,103.6L60.2,104.8L56.5,105.4L52.5,105.6L48.5,105.5L47.6,105.2L46.7,105.2L43.8,104.8L43.6,104.6L42.6,104.5L41.9,104.4L41.5,104.1L40.2,103.9L37.9,103.1L36.9,102.6L35.5,102.1L31.8,100.2L30.3,99.2L29.5,98.9L29.0,98.4L28.1,97.8L26.0,96.2L23.2,93.8L20.5,91.0L19.8,89.8L17.8,87.3L17.7,86.9L16.6,85.5L16.1,84.5L15.7,84.0L15.3,82.8L14.4,81.2L14.0,80.2L13.2,79.0L13.2,79.9L14.9,84.7L15.4,85.5L15.8,86.8L16.7,88.4L16.8,88.9L17.5,90.2L20.4,95.0L21.1,95.7L22.5,97.8L23.6,99.1L24.0,99.7L27.3,103.2L31.1,106.6L34.4,109.2L38.0,111.5L42.4,113.9L44.0,114.4L45.6,115.2L46.5,115.5L47.8,116.1L48.4,116.2L49.3,116.6L52.2,117.3L53.3,117.7L54.3,117.8L55.7,118.2L56.7,118.3L58.1,118.6L62.5,119.1L68.6,119.1L71.7,118.7L73.4,118.6L74.4,118.3L75.3,118.2L77.6,117.7L81.5,116.6L82.7,116.0L84.2,115.6L86.1,114.8L91.1,112.3L94.4,110.0L94.8,109.8L98.2,107.2L99.0,106.4L100.3,105.2L103.0,102.5L104.5,100.6L104.6,100.4L105.6,99.4L108.8,94.8L109.3,93.7L110.8,91.3L110.9,90.9L111.7,89.4L112.1,88.1L112.7,86.9L113.4,84.8L113.9,84.0L114.6,81.0L115.2,79.4L115.3,78.4L115.7,77.3L116.2,74.5L116.4,74.0L116.7,71.6L117.1,70.1L117.3,68.6Z M65.6,66.1L66.0,67.8L66.5,69.2L67.3,71.0L68.3,72.3L69.9,74.0L72.1,75.6L74.0,76.5L76.0,77.0L78.2,77.2L80.3,76.9L82.5,76.3L84.0,75.6L85.6,74.4L87.5,72.5L88.3,71.3L88.5,70.8L89.1,69.8L89.8,68.0L90.2,65.7L89.9,65.0L89.8,64.8L89.1,64.7L66.5,64.7L65.9,64.8L65.7,65.1Z M39.2,62.0L39.3,63.3L39.6,63.6L40.2,63.8L47.4,63.9L48.5,63.7L50.7,63.9L62.3,63.9L63.5,63.8L63.8,63.6L64.1,63.2L64.1,62.2L63.9,61.5L63.7,60.5L63.1,58.8L61.8,56.6L60.9,55.5L59.7,54.3L57.5,52.8L56.9,52.6L55.8,52.0L53.5,51.4L52.0,51.2L50.2,51.3L47.3,51.9L45.6,52.9L45.2,53.0L43.4,54.4L41.9,55.9L40.5,58.1L39.6,60.2Z M114.0,45.5L113.5,44.9L112.2,40.7L111.7,39.9L111.2,38.6L110.4,36.9L108.5,33.6L104.5,28.4L102.3,25.8L99.2,22.8L97.5,21.4L97.3,21.1L92.4,17.5L90.2,16.3L89.5,15.7L87.9,14.9L87.5,14.9L86.9,14.5L86.5,14.4L84.0,13.1L83.2,12.9L78.7,11.2L78.3,11.2L77.3,10.8L74.7,10.3L73.3,9.9L68.9,9.4L64.5,9.1L59.3,9.3L54.8,9.9L50.5,10.7L48.4,11.5L46.7,11.9L45.8,12.3L45.3,12.4L43.3,13.2L42.9,13.5L42.4,13.6L42.0,13.9L41.1,14.2L36.7,16.5L36.5,16.8L36.1,16.9L31.9,19.9L28.6,22.7L25.3,26.1L25.1,26.4L23.2,28.3L19.7,33.2L19.4,34.0L17.4,37.3L16.6,38.6L16.4,39.4L16.0,39.9L15.3,41.9L14.9,42.4L14.4,44.2L13.6,46.2L13.0,48.0L12.6,49.9L12.3,50.7L12.1,51.9L11.8,53.1L11.7,54.4L11.4,55.5L11.2,58.2L11.1,58.7L11.0,59.8L11.0,63.3L11.2,63.6L12.0,63.7L37.2,63.7L37.7,63.2L37.8,63.0L37.9,59.4L38.3,56.0L38.8,53.9L39.0,53.6L39.2,52.2L39.4,51.7L39.7,50.5L39.9,50.3L40.2,49.1L41.4,46.5L41.9,45.1L42.2,44.7L42.8,43.2L45.5,39.3L45.5,39.1L47.5,36.6L50.3,33.7L53.2,31.1L57.7,28.1L62.3,25.7L65.0,24.9L65.3,24.6L70.5,23.3L75.5,22.8L79.4,22.8L84.0,23.2L87.5,24.0L88.1,24.3L88.9,24.4L89.3,24.6L90.3,24.9L90.9,25.2L92.5,25.7L93.5,26.2L95.6,27.1L99.5,29.5L102.7,31.8L103.0,32.2L104.1,33.1L108.5,37.7L109.1,38.6L110.2,40.0L111.3,41.8L111.4,42.1L112.1,43.2L112.5,44.3L113.6,46.2L114.0,46.1Z" fill="#000" fill-rule="evenodd"/>
</svg>