<svg xmlns="http://www.w3.org/2000/svg" viewBox="0 0 128 128" width="128" height="128">
  <path d="M62.2,9.3L59.4,9.7L58.4,10.0L56.9,10.3L52.8,11.8L50.6,12.8L49.9,13.4L47.8,14.6L44.9,17.1L42.4,19.9L42.4,20.1L40.1,23.3L38.8,25.9L37.7,28.9L37.2,30.9L36.6,34.5L36.6,36.3L36.8,36.5L37.6,36.7L42.7,36.7L46.3,36.4L52.4,36.4L54.9,36.3L55.5,35.8L56.2,33.6L56.8,32.3L57.3,31.6L58.7,30.2L59.5,29.7L61.5,28.7L63.5,28.4L64.5,28.4L66.9,29.0L68.9,30.1L70.5,31.7L71.4,33.1L72.0,35.0L72.1,38.1L71.8,39.1L71.1,40.8L70.7,41.4L69.5,42.7L68.0,43.8L66.6,44.5L64.5,45.0L64.0,45.5L64.2,54.7L64.1,61.0L63.8,61.2L63.6,60.9L62.4,56.0L62.2,55.7L61.7,54.0L60.1,50.9L59.3,49.6L57.2,46.7L54.6,44.1L53.4,43.1L51.3,41.5L48.9,40.2L48.6,40.0L44.8,38.4L43.8,38.2L43.5,38.1L40.0,37.4L37.6,37.2L35.1,37.2L33.9,37.4L33.0,37.4L30.4,37.9L30.2,38.1L28.8,38.4L27.5,39.0L26.6,39.1L24.4,40.1L21.9,41.5L20.6,42.6L19.9,42.9L17.5,45.0L15.5,47.1L14.0,49.1L12.4,51.6L10.8,55.4L10.0,57.8L9.4,60.5L9.3,62.6L9.2,63.5L9.2,66.1L9.5,69.5L10.3,72.1L10.4,72.7L10.9,73.7L11.1,74.6L11.5,75.2L12.4,77.5L14.7,80.9L16.8,83.4L20.7,86.7L23.9,88.6L24.4,88.7L24.6,88.9L25.1,89.1L26.5,89.8L31.0,91.1L34.2,91.5L35.9,91.4L36.3,91.0L36.0,81.2L36.1,77.2L35.9,73.3L35.8,73.0L35.3,72.6L33.4,72.2L31.7,71.3L30.6,70.4L29.6,69.2L29.1,68.4L28.5,67.2L28.2,65.8L28.2,63.3L28.5,61.8L29.1,60.5L29.8,59.5L30.6,58.7L32.2,57.4L34.5,56.4L36.8,56.2L38.2,56.4L39.4,56.7L41.2,57.7L42.0,58.4L43.1,59.5L44.2,61.6L44.7,63.5L44.9,64.0L45.4,64.3L54.1,64.2L60.3,64.0L62.1,64.0L63.2,64.0L63.8,63.6L64.2,63.6L64.7,63.9L66.5,63.9L70.1,63.3L73.2,62.3L73.8,62.0L74.9,61.6L77.7,60.2L80.4,58.4L82.5,56.6L85.3,53.7L86.7,51.8L87.4,50.5L87.9,49.5L88.4,48.9L88.4,48.4L88.7,48.0L89.1,47.0L89.4,46.4L90.1,44.6L90.1,43.9L90.5,43.2L91.2,39.2L91.5,38.6L91.7,38.7L91.8,39.8L91.8,43.3L92.1,48.3L92.1,53.7L92.2,55.2L92.8,55.7L94.3,56.0L94.4,56.1L95.2,56.4L96.8,57.4L98.1,58.7L99.0,59.8L99.9,62.5L99.9,64.7L99.4,67.0L98.6,68.5L97.0,70.2L95.3,71.3L93.1,72.1L90.2,72.1L89.8,71.9L88.5,71.6L86.3,70.3L84.8,68.6L83.9,67.1L83.3,64.7L83.0,64.2L82.5,64.0L79.9,64.0L78.0,64.2L72.2,64.1L71.4,64.3L65.0,64.3L64.7,64.3L64.2,64.9L63.2,64.4L62.1,64.3L59.7,64.8L58.7,64.9L57.9,65.2L57.2,65.3L55.4,66.0L54.7,66.1L53.5,66.6L53.1,66.9L51.9,67.4L50.0,68.4L49.1,69.2L48.5,69.5L46.8,70.7L43.8,73.7L42.4,75.4L42.0,75.8L41.8,76.3L40.8,77.5L38.8,81.7L38.6,82.4L38.4,82.8L37.4,86.1L37.3,87.2L36.9,88.8L36.8,92.4L37.1,94.2L37.1,95.3L37.2,95.6L37.5,97.6L38.1,99.7L38.8,101.4L39.0,102.2L39.8,104.0L40.6,105.5L42.6,108.3L43.8,109.8L46.9,112.7L50.0,114.9L52.4,116.2L55.2,117.4L55.9,117.5L56.5,117.8L58.1,118.1L58.7,118.3L62.1,118.8L65.4,118.9L67.4,118.7L68.8,118.4L69.8,118.3L70.7,118.0L71.4,118.0L74.2,117.0L74.7,116.7L74.9,116.7L77.9,115.2L81.1,113.1L83.8,110.7L85.3,109.0L85.4,108.7L86.9,106.9L87.2,106.3L87.9,105.4L89.1,103.1L89.2,102.5L90.1,100.7L90.9,97.7L91.5,94.4L91.5,92.4L91.4,91.8L90.7,91.6L73.2,92.0L73.0,92.1L72.5,92.7L71.8,95.2L70.6,97.1L69.2,98.3L67.6,99.3L66.5,99.7L65.6,99.9L63.2,100.0L62.1,99.7L59.9,98.8L58.4,97.6L57.1,96.1L56.1,93.6L55.9,91.8L56.1,89.8L56.6,88.3L57.4,86.9L59.0,85.2L60.3,84.4L61.6,83.8L63.6,83.4L63.9,83.0L64.0,78.1L63.8,74.4L63.8,67.6L63.9,67.1L64.2,66.8L64.5,67.2L64.7,69.3L65.4,71.8L66.5,74.7L67.5,76.8L69.5,80.0L70.7,81.4L70.8,81.6L72.6,83.5L74.2,85.0L75.5,85.8L75.9,86.3L78.7,88.0L80.1,88.6L80.5,88.9L81.3,89.1L81.6,89.3L84.4,90.3L85.5,90.4L86.3,90.7L89.1,91.1L94.3,91.1L95.4,90.8L97.0,90.6L97.6,90.4L98.7,90.3L99.5,89.9L100.1,89.9L101.7,89.2L102.6,88.9L104.3,88.1L106.8,86.6L108.3,85.4L109.0,85.1L112.9,81.4L114.5,79.1L114.7,78.5L116.4,75.7L117.8,72.2L118.2,70.2L118.5,69.5L119.0,66.7L119.1,62.0L118.8,59.4L118.0,56.0L117.8,55.6L117.8,55.3L117.1,53.6L116.4,52.2L116.1,51.4L114.6,48.7L113.3,47.0L112.2,45.6L109.9,43.4L106.6,40.8L103.3,39.1L100.9,38.1L98.0,37.3L97.0,37.2L96.4,37.0L95.4,36.8L92.3,36.7L91.8,37.0L91.5,36.9L91.3,36.4L91.2,33.9L90.7,30.7L89.5,26.8L89.3,26.5L88.7,24.9L88.1,23.9L88.0,23.4L87.5,22.6L86.7,21.6L85.9,20.1L84.2,18.2L82.9,16.8L80.1,14.5L78.8,13.6L77.0,12.6L76.7,12.4L73.9,11.1L71.1,10.2L67.4,9.5L65.2,9.3Z M64.0,65.0L64.2,65.0L64.2,65.6L63.9,65.5Z" fill="#000" fill-rule="evenodd"/>
</svg>