<svg xmlns="http://www.w3.org/2000/svg" viewBox="0 0 128 128" width="128" height="128">
  <path d="M61.9,9.8L58.8,10.0L58.2,10.2L55.7,10.4L50.4,11.5L50.1,11.7L47.5,12.4L45.6,13.2L44.8,13.3L41.0,15.0L37.2,16.9L35.3,18.1L34.6,18.8L33.5,19.3L31.9,20.5L31.4,20.7L31.1,21.1L30.5,21.5L29.6,22.4L29.1,22.6L27.4,24.0L24.6,26.7L23.3,28.2L22.6,28.8L22.2,29.5L21.3,30.4L21.0,30.9L20.4,31.5L17.3,36.0L17.1,36.5L15.7,38.9L14.3,41.6L12.2,46.7L12.0,47.7L11.6,48.7L11.5,49.4L11.3,49.9L10.6,53.1L10.3,54.0L10.2,54.9L10.0,55.5L9.9,56.9L9.6,58.1L9.3,61.1L9.3,68.1L9.6,71.1L10.0,72.5L10.0,73.8L10.4,75.5L10.7,76.3L10.8,77.3L11.1,78.1L11.4,79.6L12.0,80.8L12.2,82.0L12.5,82.4L12.9,83.8L13.9,86.4L15.4,89.4L15.7,89.8L15.9,90.3L17.2,92.5L17.6,93.0L18.5,94.7L20.4,97.3L24.3,101.8L27.7,105.1L31.8,108.3L33.5,109.5L35.1,110.4L35.4,110.8L40.0,113.2L40.5,113.3L42.6,114.3L43.5,114.6L45.2,115.3L50.5,116.9L50.8,117.0L51.7,117.1L53.5,117.6L58.0,118.2L58.5,118.3L65.0,118.5L71.4,118.0L74.2,117.5L74.9,117.3L76.7,117.0L77.0,116.9L80.8,115.9L84.0,114.8L87.2,113.5L88.3,112.9L89.3,112.5L90.1,112.0L91.6,111.3L91.9,111.0L92.5,110.8L94.8,109.3L95.8,108.5L96.6,108.1L101.5,104.2L104.4,101.2L106.1,99.4L106.4,98.8L108.6,96.3L111.2,92.4L113.9,87.3L115.4,83.7L116.7,79.9L117.0,79.2L118.0,75.1L118.2,73.4L118.4,72.5L118.9,68.0L119.0,61.6L118.6,56.7L117.6,51.2L116.9,48.5L116.4,47.3L116.1,46.0L114.4,41.6L113.5,40.0L113.3,39.4L113.1,39.2L111.9,36.9L111.7,36.7L111.5,36.0L110.7,35.0L110.5,34.3L109.4,33.0L108.4,31.5L104.2,26.5L103.1,25.5L101.9,24.2L98.9,21.7L97.6,20.8L96.5,19.8L96.1,19.7L95.2,18.9L93.3,17.7L92.8,17.6L92.6,17.3L91.4,16.7L91.1,16.4L87.5,14.6L84.2,13.3L83.2,13.1L82.9,12.8L82.1,12.7L81.2,12.3L80.6,12.2L79.9,11.9L79.2,11.8L78.4,11.5L77.0,11.2L76.7,11.1L72.2,10.2L68.7,9.8Z M72.7,39.6L73.1,39.8L74.5,39.8L77.1,40.4L81.5,42.1L84.1,43.7L87.1,45.9L89.5,48.5L91.8,51.7L92.3,53.0L92.8,53.8L93.9,56.4L94.3,58.1L94.6,58.9L95.0,61.0L95.2,62.7L95.1,66.5L94.8,69.0L94.2,71.4L93.9,72.2L93.8,72.8L92.6,75.4L91.5,77.3L89.7,79.7L86.2,83.4L86.1,83.4L84.0,85.0L81.9,86.3L80.1,86.9L79.9,87.2L78.8,87.7L77.6,87.9L77.2,88.2L76.6,88.2L75.3,88.6L72.1,89.1L67.3,89.1L65.2,88.8L61.7,87.9L57.5,86.1L55.3,84.6L53.1,82.9L51.2,81.0L50.4,80.0L48.7,77.5L47.0,74.7L45.9,71.6L45.3,69.0L44.9,66.4L45.0,61.6L45.7,58.1L46.0,57.5L46.1,56.7L47.0,54.5L48.5,51.6L50.2,49.1L52.5,46.6L53.9,45.4L56.2,43.7L58.3,42.4L60.7,41.3L63.5,40.4L67.0,39.8L68.4,39.8L69.0,39.6Z M50.1,22.7L55.5,22.8L59.6,23.3L61.7,23.7L63.8,24.5L64.5,24.6L66.2,25.1L70.8,27.0L73.1,28.1L76.3,30.3L76.7,30.5L80.3,33.3L84.1,37.2L86.7,40.6L87.5,41.9L87.5,42.1L87.1,42.0L84.5,39.1L82.6,37.5L80.3,35.9L76.2,33.6L75.8,33.5L75.3,33.2L73.9,32.6L73.4,32.5L72.7,32.1L70.5,31.5L69.1,31.2L68.3,30.9L64.7,30.4L59.2,30.3L56.6,30.6L52.2,31.4L49.6,32.3L48.3,33.0L46.8,33.4L44.5,34.7L43.2,35.3L41.0,36.8L37.7,39.5L34.8,42.6L32.8,45.1L31.4,47.3L30.1,49.8L28.6,53.5L28.3,55.0L27.8,55.9L27.4,57.7L27.4,59.0L27.0,60.6L27.0,61.8L26.9,62.8L27.0,67.6L27.4,70.8L27.9,72.7L28.1,73.8L29.1,76.8L29.6,78.0L30.0,78.7L30.6,80.3L31.6,82.0L32.0,82.5L32.6,83.6L33.7,85.0L34.0,85.6L35.1,86.9L38.8,90.4L39.8,91.1L40.7,91.9L42.4,93.0L46.2,95.1L46.5,95.1L47.0,95.5L50.4,96.8L51.4,96.9L51.6,97.1L55.1,97.9L55.9,97.9L57.3,98.2L59.6,98.4L64.1,98.3L65.2,98.1L66.5,98.0L66.8,97.8L68.2,97.7L68.8,97.4L70.2,97.2L73.2,96.2L75.3,95.3L78.5,93.7L79.2,93.1L80.2,92.6L82.9,90.6L83.8,89.7L84.7,89.0L88.0,85.7L88.4,85.7L88.4,86.0L87.0,88.2L86.0,89.6L85.3,90.3L84.5,91.4L83.6,92.3L83.6,92.5L81.0,95.1L78.8,97.1L76.2,99.0L73.5,100.7L71.7,101.7L70.5,102.1L69.7,102.6L69.2,102.7L67.7,103.4L65.9,104.1L64.9,104.3L62.7,105.2L59.0,105.9L54.3,106.4L47.9,106.3L43.8,105.7L38.6,104.4L38.2,104.2L36.1,103.5L35.5,103.1L35.0,103.0L32.2,101.7L29.9,100.2L29.2,99.9L24.5,96.5L20.7,92.7L18.6,90.2L17.9,89.1L17.0,88.0L16.4,87.1L16.2,86.6L15.4,85.5L15.2,84.8L14.0,82.9L13.9,82.5L13.6,82.0L12.7,79.8L11.3,75.7L10.4,71.2L9.8,66.0L10.0,61.4L10.4,58.2L11.3,53.9L12.1,51.7L12.3,50.6L13.5,47.8L13.9,47.0L14.1,46.4L15.0,44.6L16.5,42.3L16.8,41.7L18.8,38.9L21.7,35.6L24.7,32.8L27.4,30.6L29.3,29.4L29.5,29.2L31.4,28.1L31.8,27.8L32.0,27.8L33.3,27.2L33.5,26.9L35.1,26.3L36.6,25.5L38.8,24.9L39.7,24.5L41.6,24.1L42.3,23.7L42.9,23.7L44.3,23.3L45.6,23.3L47.8,22.8Z" fill="#000" fill-rule="evenodd"/>
</svg>