<svg xmlns="http://www.w3.org/2000/svg" viewBox="0 0 128 128" width="128" height="128">
  <path d="M56.5,9.4L55.9,9.6L54.7,9.7L54.0,9.9L50.7,10.5L48.1,11.3L47.0,11.4L46.0,11.9L43.5,12.7L43.1,13.0L42.4,13.2L40.9,14.0L39.4,14.6L37.9,15.5L37.6,15.5L33.0,18.4L32.3,19.1L31.8,19.4L29.0,21.6L25.1,25.3L23.5,27.1L21.2,30.0L20.1,31.6L19.5,32.4L18.5,34.1L17.7,35.3L15.7,39.2L13.3,44.9L11.9,49.9L10.9,54.7L10.5,57.5L10.4,59.8L10.4,66.8L10.8,71.5L11.9,77.1L12.3,78.2L12.4,78.9L13.2,81.9L13.7,82.9L14.8,86.0L15.2,86.6L15.2,86.8L15.9,88.4L18.4,93.0L20.4,96.1L21.4,97.4L21.9,98.2L24.7,101.5L29.0,105.8L33.0,109.0L37.2,111.7L38.5,112.3L39.1,112.8L40.4,113.4L40.8,113.7L42.2,114.4L42.9,114.6L45.2,115.6L46.0,115.8L47.1,116.2L48.3,116.6L49.1,117.0L52.9,117.9L56.7,118.6L57.6,118.6L59.6,119.0L60.8,119.0L61.6,119.1L68.4,119.0L72.9,118.6L78.2,117.4L78.7,117.2L79.7,117.0L81.2,116.5L81.5,116.5L82.3,116.1L83.0,116.0L83.7,115.6L84.3,115.5L84.6,115.3L85.7,115.0L89.3,113.3L89.5,113.0L92.0,111.8L97.2,108.3L100.7,105.3L104.8,101.2L107.4,98.0L107.9,97.1L108.3,96.7L109.5,94.8L109.5,94.6L110.0,94.0L111.0,92.2L111.2,92.0L111.4,91.4L111.6,91.2L111.8,90.6L112.1,90.3L112.3,89.6L112.5,89.4L113.1,88.3L113.6,86.6L114.0,86.2L114.0,85.6L115.1,83.1L115.9,80.5L115.9,80.2L116.1,79.7L116.3,78.6L116.6,77.9L116.8,76.3L116.9,76.1L117.2,74.9L117.4,72.5L117.7,70.8L118.0,66.2L117.8,59.8L117.6,59.4L117.6,57.8L117.2,55.5L116.1,50.2L115.4,48.4L115.3,47.7L114.8,46.0L114.5,45.7L113.9,43.7L113.6,43.3L113.4,42.6L113.1,42.1L112.7,41.1L109.9,36.0L106.9,31.4L104.0,27.8L101.3,24.8L97.7,21.6L95.0,19.5L92.2,17.6L91.6,17.4L90.6,16.6L90.1,16.4L88.9,15.6L87.2,14.9L85.6,14.0L84.1,13.5L82.6,12.7L82.0,12.6L81.7,12.4L80.7,12.2L80.5,12.0L78.0,11.3L77.3,11.0L76.5,10.9L75.9,10.6L75.1,10.6L73.7,10.1L71.9,9.9L70.8,9.6L69.0,9.4L67.1,9.3L66.4,9.1L61.4,9.0L59.2,9.1L58.2,9.4Z M60.8,54.3L61.6,54.1L64.3,54.1L66.4,54.7L68.2,55.6L70.1,57.0L71.5,58.6L72.5,60.2L73.2,62.4L73.4,63.7L73.3,66.6L72.9,68.6L72.0,70.3L71.3,71.1L71.1,71.5L70.3,72.3L68.8,73.5L67.9,74.0L65.6,74.9L63.9,75.1L61.6,75.0L59.6,74.5L58.7,73.9L57.7,73.5L56.7,72.7L55.5,71.6L54.5,70.2L53.8,69.0L53.1,67.0L52.8,64.8L53.0,62.4L53.5,60.5L54.0,59.5L54.3,59.3L54.4,58.8L55.1,57.8L57.0,56.0L59.5,54.7L60.3,54.5Z M36.6,62.6L37.5,60.8L38.6,59.1L41.0,56.1L43.1,54.0L44.6,52.6L46.0,51.7L46.4,51.7L46.2,52.5L44.5,54.7L42.8,57.9L41.5,61.4L41.0,64.6L40.8,68.6L41.2,71.8L42.2,75.5L43.1,77.9L44.2,79.8L46.0,82.6L47.9,84.7L49.3,86.1L50.7,87.3L54.3,89.6L55.9,90.2L56.4,90.3L57.5,90.8L57.7,91.0L60.9,92.0L64.5,92.6L67.8,92.8L69.8,92.7L71.5,92.4L72.6,92.4L77.1,91.6L78.1,91.2L78.9,91.1L79.6,90.8L80.6,90.5L82.1,89.8L82.7,89.6L86.5,87.6L89.4,85.6L92.9,82.5L95.0,80.2L97.5,77.1L97.6,76.7L99.4,74.2L101.5,69.8L102.8,66.6L102.8,66.2L103.3,64.9L103.4,63.9L103.6,63.5L103.8,62.8L103.9,61.8L104.1,61.0L104.2,59.7L104.4,59.4L104.7,59.9L104.8,61.9L105.0,62.6L105.0,67.7L104.5,72.0L103.3,77.1L102.8,78.3L102.7,78.9L102.3,79.7L102.3,80.3L101.9,81.0L101.4,82.4L100.7,83.6L100.5,84.3L100.2,84.7L98.9,87.2L96.2,91.1L93.4,94.4L91.4,96.3L88.7,98.5L87.0,99.6L85.9,100.5L81.1,103.0L80.5,103.2L79.9,103.5L79.3,103.6L78.3,104.1L74.5,105.3L73.2,105.4L71.5,106.0L69.9,106.2L69.2,106.2L68.7,106.4L67.1,106.4L66.1,106.6L61.3,106.5L56.8,106.0L54.8,105.3L52.8,104.9L50.2,103.9L46.9,102.1L44.4,100.5L42.1,98.4L39.5,95.7L38.6,94.4L37.9,93.3L37.5,92.9L35.7,89.3L35.6,88.8L35.3,88.4L35.2,87.8L34.4,85.5L34.3,84.7L33.9,83.5L33.5,81.2L33.4,79.0L33.4,74.8L33.8,72.3L33.9,70.8L34.2,69.9L34.3,69.2L35.3,65.7L36.0,64.2L36.2,63.3L36.6,62.8Z M91.0,38.6L92.0,41.2L92.7,44.1L92.9,44.3L93.4,47.3L93.8,50.5L93.8,53.6L93.7,54.4L93.6,56.1L92.9,59.8L92.2,61.8L92.0,62.2L91.6,63.6L91.3,64.2L90.2,66.9L89.8,67.4L88.4,69.8L87.4,71.1L87.2,71.5L84.9,74.1L84.6,74.3L83.2,75.6L81.3,76.9L80.8,77.0L80.6,76.8L80.6,76.6L82.7,73.5L84.6,69.4L84.6,69.1L85.4,66.9L85.6,64.9L85.9,63.5L85.9,60.3L85.6,58.6L85.4,56.7L85.1,55.8L84.9,54.5L83.3,50.6L82.8,49.7L82.0,48.6L81.8,48.2L79.9,45.7L78.1,43.8L74.8,41.2L71.9,39.5L71.2,39.2L69.2,38.2L68.4,38.0L67.5,37.6L66.8,37.6L66.4,37.3L62.1,36.5L60.0,36.4L59.5,36.3L54.7,36.4L53.1,36.8L51.8,36.8L51.3,37.1L49.1,37.6L48.2,38.0L46.3,38.5L43.5,39.8L43.1,40.2L40.9,41.3L39.5,42.2L36.8,44.2L35.2,45.7L32.3,48.6L30.2,51.3L28.3,54.4L27.0,56.9L25.5,60.5L24.8,63.0L24.6,63.3L23.6,67.8L23.4,70.0L23.3,70.2L22.9,69.9L22.6,68.2L22.4,65.4L22.4,61.8L22.5,61.1L22.8,57.5L23.0,56.6L23.2,55.1L23.6,53.8L23.7,52.9L24.0,52.2L24.1,51.2L24.5,50.4L25.0,48.6L25.3,48.1L25.5,47.4L25.8,46.9L25.9,46.4L27.1,44.1L27.3,43.6L28.0,42.4L28.2,41.8L30.2,38.9L31.5,37.1L33.9,34.4L37.0,31.6L38.8,30.0L42.2,27.8L45.3,26.1L49.3,24.4L53.6,23.1L56.0,22.7L57.3,22.6L59.1,22.3L62.1,22.1L66.8,22.3L69.6,22.7L70.8,23.0L71.7,23.1L72.5,23.4L73.4,23.5L73.9,23.7L74.9,23.9L75.4,24.3L75.9,24.3L78.9,25.9L79.7,26.4L80.5,26.8L82.0,27.8L83.5,29.0L86.2,31.6L88.3,34.1L89.9,36.6Z" fill="#000" fill-rule="evenodd"/>
</svg>