<svg xmlns="http://www.w3.org/2000/svg" viewBox="0 0 128 128" width="128" height="128">
  <path d="M61.0,9.1L59.2,9.5L57.9,9.5L55.7,9.9L54.6,9.9L54.0,10.1L53.3,10.1L52.0,10.4L50.9,10.9L49.3,11.1L48.0,11.6L47.1,11.8L45.7,12.4L45.5,12.5L44.1,12.8L43.7,13.2L42.4,13.6L41.8,14.0L41.3,14.1L40.2,14.7L39.9,14.9L37.4,16.1L36.9,16.5L35.5,17.2L35.2,17.5L32.7,19.1L29.7,21.4L27.3,23.5L23.6,27.1L20.9,30.4L17.5,35.3L16.2,37.6L15.4,39.2L15.3,39.6L14.5,41.1L13.0,44.9L12.6,46.3L12.3,46.9L11.7,49.2L11.2,50.6L10.3,55.5L9.8,60.3L9.9,68.3L10.2,69.6L10.3,71.5L10.7,73.4L10.7,74.5L11.1,75.8L11.3,77.2L11.6,77.7L11.6,78.5L13.4,83.9L16.1,89.8L16.7,90.7L18.2,93.5L19.0,94.4L19.9,96.0L22.4,99.3L24.9,102.2L29.2,106.3L31.1,107.7L31.7,108.3L35.7,111.0L39.1,113.0L40.1,113.4L40.3,113.6L40.7,113.7L42.8,114.8L43.6,115.0L44.3,115.4L45.3,115.6L48.2,116.7L49.3,116.9L49.8,117.3L55.3,118.5L60.9,119.1L64.7,119.2L67.3,119.1L68.0,118.9L69.7,118.9L73.4,118.5L75.2,118.0L75.7,118.0L76.1,117.8L79.1,117.2L79.8,116.9L80.2,116.9L81.0,116.4L84.4,115.4L86.9,114.1L87.2,114.1L87.7,113.7L89.0,113.2L89.4,112.9L89.8,112.7L91.0,112.0L91.5,111.9L91.8,111.5L93.1,110.9L96.3,108.5L97.7,107.8L98.2,107.1L102.0,103.7L104.1,101.6L104.3,101.3L105.7,99.8L109.5,94.6L111.4,91.6L113.0,88.6L113.5,87.2L114.3,85.6L114.4,84.9L114.8,84.2L115.2,82.8L115.5,82.5L115.6,81.8L116.0,80.9L116.5,78.8L116.9,77.7L117.1,76.5L117.4,75.3L117.4,74.5L117.7,73.7L117.9,72.6L118.1,69.0L118.3,68.3L118.5,64.2L118.3,59.3L117.5,53.2L117.2,52.2L117.1,51.5L116.8,50.9L116.1,47.8L114.4,42.8L113.2,40.6L113.1,40.2L111.6,37.1L111.2,36.6L110.5,35.0L108.9,32.9L108.1,31.6L104.7,27.4L100.0,22.7L95.6,19.2L93.8,18.1L93.2,17.6L91.9,16.9L91.5,16.5L90.0,15.8L89.0,15.2L87.8,14.7L87.3,14.3L85.2,13.5L84.8,13.2L83.3,12.8L82.7,12.4L81.1,12.0L80.3,11.6L79.7,11.6L78.2,11.0L77.4,10.9L75.2,10.3L73.9,10.1L72.6,9.7L70.0,9.5L69.5,9.4L67.7,9.2Z M55.7,51.9L59.8,51.9L62.3,52.8L64.8,54.2L66.6,56.0L67.9,57.7L68.9,59.6L69.0,60.6L69.4,61.2L69.5,61.9L69.7,65.1L69.4,66.9L68.9,68.8L67.5,71.4L65.5,73.5L65.0,73.7L64.4,74.3L64.0,74.4L63.2,75.0L62.6,75.2L62.0,75.7L60.7,75.9L59.9,76.3L56.1,76.5L55.3,76.2L54.4,76.1L53.4,75.7L52.8,75.6L51.5,74.9L49.7,73.6L47.8,71.8L47.6,71.1L46.9,70.5L46.0,68.6L45.3,66.5L45.3,62.3L45.8,60.3L46.4,59.2L46.4,59.0L47.1,57.6L47.8,56.5L49.9,54.4L51.5,53.3L53.6,52.4L54.9,52.2Z M79.8,53.4L79.8,53.9L79.5,53.9L78.6,51.9L77.2,49.7L75.6,47.8L73.7,45.9L71.7,44.2L70.2,43.2L69.0,42.6L68.7,42.4L68.3,42.3L67.1,41.6L66.9,41.6L66.4,41.3L65.9,41.2L64.0,40.5L60.1,39.8L59.8,39.6L56.6,39.5L54.3,39.9L53.1,40.0L52.2,40.3L50.3,40.7L47.7,41.9L47.2,41.9L46.0,42.8L45.0,43.2L42.7,44.9L42.1,45.6L40.8,46.6L39.5,48.0L37.7,50.4L35.5,54.3L35.5,54.5L34.5,56.9L33.6,60.7L33.4,63.5L33.2,64.0L33.0,64.3L32.6,64.4L28.2,64.4L27.4,64.5L22.2,64.5L22.0,64.4L21.5,63.8L21.5,61.2L22.0,57.0L23.4,52.6L24.5,50.1L25.7,48.2L25.8,47.8L27.4,45.5L29.0,43.5L32.6,40.1L34.4,38.7L36.9,37.2L37.6,36.9L37.8,36.7L39.1,36.1L39.4,36.1L42.5,34.8L46.4,33.8L51.0,33.4L53.2,33.5L56.4,33.8L57.1,34.0L58.7,34.3L61.0,34.9L64.1,36.2L64.8,36.7L65.7,36.9L66.1,37.4L68.1,38.4L69.8,39.6L71.9,41.4L74.7,44.3L76.6,46.9L77.7,48.7L79.1,51.4Z M68.6,21.1L69.0,21.2L69.6,21.2L71.5,21.6L72.5,21.7L78.1,23.2L78.3,23.5L79.9,24.0L80.7,24.5L81.3,24.5L85.6,26.7L86.0,27.1L89.5,29.4L91.7,31.1L95.2,34.4L96.9,36.5L98.4,38.6L99.0,39.3L101.5,43.2L102.8,46.2L103.2,46.9L104.7,50.7L106.0,56.1L106.0,57.0L106.4,58.6L106.4,59.7L106.6,60.7L106.6,67.7L106.3,69.0L106.0,71.9L105.6,73.9L105.3,74.7L105.2,75.4L104.8,76.5L104.8,77.1L103.9,79.8L102.5,83.0L102.1,83.6L101.8,84.4L100.6,86.5L100.0,87.3L98.6,89.6L96.1,92.7L92.0,96.9L89.7,98.8L89.1,99.0L88.6,99.6L88.1,99.8L87.2,100.6L84.9,101.9L84.5,102.0L84.2,102.3L82.7,103.0L82.5,103.2L82.0,103.3L80.2,104.2L79.8,104.3L78.2,105.0L77.5,105.2L77.0,105.5L76.1,105.6L75.5,105.9L74.4,106.0L73.5,106.3L71.4,106.6L70.7,106.9L69.4,106.9L67.0,107.3L63.7,107.3L63.4,107.2L62.5,107.1L60.0,107.3L59.8,107.1L58.6,107.0L55.7,106.3L54.6,106.2L53.7,105.8L52.5,105.7L49.2,104.6L48.5,104.1L47.0,103.7L46.4,103.3L45.3,103.0L44.1,102.3L43.6,102.1L43.2,101.8L41.7,101.0L39.0,99.1L36.5,97.2L35.0,95.9L33.0,93.9L31.2,91.8L30.3,90.3L28.9,88.6L28.5,87.8L27.7,86.7L27.5,86.2L26.8,85.2L25.6,82.8L25.0,81.3L25.1,80.8L25.3,80.8L25.8,81.6L26.3,82.7L27.4,84.4L29.1,86.9L30.6,88.7L34.7,92.7L38.0,95.1L42.0,97.3L43.3,97.8L44.0,98.2L45.7,98.8L46.1,99.0L46.7,99.1L47.5,99.5L52.4,100.6L56.1,100.8L56.8,101.0L61.1,100.8L62.5,100.5L64.1,100.3L64.8,100.1L65.3,100.1L66.5,99.7L67.2,99.6L67.7,99.4L68.2,99.3L68.9,99.0L69.7,98.8L70.2,98.5L71.1,98.3L71.4,98.1L71.9,98.0L72.4,97.6L73.9,97.0L74.1,96.8L74.6,96.6L74.9,96.3L76.3,95.6L76.6,95.3L78.2,94.4L80.9,92.3L84.8,88.3L86.2,86.4L87.0,85.5L87.5,84.5L88.6,83.0L90.4,79.4L91.9,75.6L93.1,70.5L93.6,65.4L93.5,61.0L93.3,60.3L93.1,58.0L92.7,56.1L92.7,55.4L91.9,51.8L90.8,49.2L90.1,47.0L89.8,46.7L88.9,44.4L88.4,43.7L87.1,41.4L85.7,39.5L85.2,38.6L83.1,36.0L79.2,32.0L78.1,31.2L76.6,29.9L74.0,28.1L70.6,26.1L69.8,25.9L67.8,24.9L67.2,24.8L66.7,24.5L65.4,24.1L63.6,23.3L62.5,23.2L62.0,23.0L60.5,22.6L58.9,22.4L57.9,22.0L57.9,21.6L58.2,21.5L61.6,21.0L65.9,20.9L66.9,21.1Z" fill="#000" fill-rule="evenodd"/>
</svg>