<svg xmlns="http://www.w3.org/2000/svg" viewBox="0 0 128 128" width="128" height="128">
  <path d="M59.0,9.8L54.0,10.5L52.3,10.9L51.9,10.9L50.5,11.3L49.8,11.6L48.1,11.9L45.8,12.6L44.5,13.2L43.8,13.4L41.9,14.3L41.4,14.3L37.5,16.3L34.9,17.7L28.6,22.2L25.1,25.4L20.7,30.3L20.2,31.1L19.2,32.2L17.2,35.3L14.4,40.4L12.8,43.8L12.5,45.0L11.7,46.9L11.7,47.2L11.1,49.2L9.9,54.1L9.3,58.8L9.3,60.6L9.1,61.7L9.1,66.6L9.5,69.4L9.5,70.4L10.3,75.4L10.5,75.6L10.7,76.7L11.7,80.4L12.0,80.9L12.8,83.4L13.7,85.7L16.5,91.0L17.5,92.8L18.4,93.9L19.7,95.9L22.7,99.6L25.0,102.1L27.5,104.6L29.0,105.8L29.9,106.3L31.5,107.8L35.9,110.7L37.9,111.8L39.5,112.5L39.8,112.8L41.2,113.3L42.0,113.8L43.6,114.4L44.3,114.8L50.2,116.7L52.9,117.3L56.5,117.9L62.3,118.5L66.4,118.5L69.0,118.3L71.2,118.0L72.3,118.0L72.6,117.9L74.1,117.7L75.2,117.4L76.4,117.3L77.3,116.9L79.7,116.4L80.7,116.0L81.3,115.9L83.0,115.4L83.1,115.2L84.3,114.8L85.3,114.6L87.0,113.7L89.0,112.9L91.1,111.7L91.9,111.3L92.7,110.8L93.8,110.2L95.6,109.0L96.0,108.6L96.6,108.3L98.6,106.7L99.7,105.8L100.2,105.4L103.2,102.6L106.0,99.6L106.2,99.3L107.3,98.2L108.1,96.8L109.9,94.6L110.6,93.3L111.5,92.0L112.7,90.0L113.1,88.9L113.5,88.5L114.6,86.1L115.3,84.1L115.8,83.2L116.9,79.3L117.3,78.6L117.4,77.5L118.1,75.3L118.3,73.4L118.5,73.0L119.0,68.3L119.0,62.1L118.9,60.7L118.7,59.3L118.7,58.3L118.1,54.3L117.8,53.4L117.7,52.3L117.4,51.8L117.3,50.9L117.0,49.6L116.3,47.5L115.4,45.3L115.2,44.3L114.4,42.7L113.8,41.2L113.5,40.8L111.5,36.8L110.8,36.0L110.6,35.5L108.8,32.9L106.4,29.7L105.1,28.3L100.9,24.1L97.4,21.2L96.8,20.9L95.4,19.7L92.7,18.0L89.5,16.3L89.3,16.0L87.9,15.5L86.6,14.7L86.4,14.7L86.2,14.6L83.1,13.3L77.7,11.5L74.7,10.8L70.2,10.1L69.7,10.0L66.4,9.7Z M79.8,59.5L81.8,61.7L83.2,64.4L83.2,64.6L84.0,66.6L84.5,70.1L84.5,71.8L84.2,72.9L84.1,74.0L83.9,74.5L83.6,75.9L83.3,76.2L83.1,76.8L82.1,78.7L80.6,80.7L79.4,81.9L78.1,82.9L77.1,83.6L75.7,84.2L74.9,84.7L72.9,85.4L72.3,85.4L71.7,85.6L70.1,85.9L67.3,85.9L64.8,85.4L62.5,84.6L61.9,84.2L60.7,83.7L59.0,82.5L57.5,80.9L56.4,79.6L55.4,77.9L55.5,77.3L56.1,77.4L56.9,77.9L59.1,78.8L59.7,78.8L60.5,79.2L61.5,79.2L62.3,79.5L65.1,79.6L66.3,79.3L67.0,79.3L69.3,78.7L71.5,77.6L73.3,76.4L75.9,74.0L76.9,72.7L76.9,72.4L77.7,71.2L78.8,68.7L78.8,68.3L79.1,67.4L79.4,65.0L79.4,63.0L78.9,59.5L79.1,59.2Z M62.3,56.4L65.3,56.4L67.0,56.9L68.9,58.0L70.2,59.5L71.1,60.9L71.6,62.3L71.9,64.0L71.7,65.9L71.5,67.0L70.5,68.7L69.4,70.0L67.8,71.0L66.5,71.6L64.9,72.0L63.8,72.0L61.5,71.6L59.4,70.6L57.8,69.0L57.3,68.4L56.5,66.8L56.2,65.6L56.2,62.5L56.5,61.5L57.2,60.1L58.1,58.9L59.5,57.6L60.5,57.0L61.5,56.7Z M65.6,46.1L66.1,46.0L68.2,45.1L70.2,44.4L74.2,43.8L78.3,43.9L79.6,44.2L81.2,44.4L81.9,44.7L83.6,45.1L86.1,46.2L86.4,46.4L87.5,46.9L91.1,49.5L93.5,51.7L96.1,55.3L97.7,58.4L98.0,59.2L98.1,59.7L98.4,60.2L99.3,64.0L99.4,65.6L99.4,69.1L99.4,70.3L98.8,72.9L98.5,73.4L98.3,74.7L98.0,75.3L97.9,75.8L96.7,78.1L96.6,78.5L94.8,81.3L93.5,82.9L90.9,85.4L87.5,87.6L85.0,88.8L84.6,88.8L84.4,88.7L84.5,88.2L86.2,86.6L87.8,84.6L89.0,83.0L90.2,80.7L91.8,76.7L92.3,74.5L92.5,71.7L92.9,70.8L92.9,70.2L92.5,69.4L92.3,66.7L91.7,64.2L91.2,62.6L90.1,60.0L89.6,59.3L89.4,58.7L88.0,56.7L86.3,54.6L84.8,53.0L83.4,52.0L83.1,51.6L80.2,49.7L77.2,48.4L74.0,47.3L70.1,46.7L65.4,46.8L65.2,46.6L65.2,46.4Z M22.4,42.1L23.2,40.9L23.5,41.0L23.4,41.7L22.8,43.4L22.0,46.4L22.0,46.8L21.3,50.0L21.3,50.9L21.1,51.4L21.1,53.2L20.9,53.9L20.9,60.3L21.1,62.5L22.0,67.5L22.3,68.7L22.6,69.2L22.8,70.6L23.1,71.2L23.6,73.2L24.2,74.1L24.3,74.9L26.5,79.6L28.3,82.5L31.4,86.7L33.2,88.7L36.7,92.2L38.6,93.8L41.6,96.0L43.8,97.4L44.3,97.5L44.8,97.9L47.6,99.4L47.8,99.4L49.0,100.0L49.2,100.2L49.9,100.4L51.9,101.3L53.2,101.6L53.6,101.8L53.9,101.8L54.0,102.0L55.4,102.4L56.7,102.6L57.4,102.9L58.0,102.9L59.4,103.3L61.4,103.6L61.8,103.8L62.8,103.8L63.8,104.0L67.3,104.2L69.4,104.2L70.2,104.1L72.2,104.1L73.0,103.9L74.8,103.8L76.5,103.4L77.7,103.3L78.2,103.1L79.5,102.9L80.1,102.7L81.9,102.3L86.1,100.8L89.5,99.2L90.1,99.1L90.7,98.6L92.1,97.9L93.7,97.0L95.0,96.0L96.1,95.4L98.1,93.8L101.4,90.9L103.5,88.8L104.0,88.8L103.9,89.3L101.4,92.9L98.8,95.9L95.7,98.9L92.7,101.5L89.8,103.4L85.6,105.8L81.5,107.6L77.5,109.0L76.8,109.1L74.3,109.8L69.5,110.6L66.2,110.8L64.8,110.7L64.1,110.8L59.1,110.6L53.1,109.6L49.9,108.7L49.3,108.3L46.7,107.5L46.0,107.1L45.2,106.9L43.8,106.1L43.3,106.0L41.9,105.2L41.6,105.2L40.9,104.6L37.5,102.6L34.0,100.0L31.5,97.7L28.1,94.1L25.8,91.2L25.6,90.7L25.1,90.2L23.2,87.1L22.8,86.3L22.6,86.1L21.6,84.1L21.0,83.0L20.0,80.4L19.8,80.0L19.1,77.9L18.9,77.5L17.6,72.3L17.4,70.4L17.1,69.0L16.9,65.1L16.9,62.6L17.0,61.4L17.1,58.7L17.4,57.9L17.4,56.8L17.5,55.9L17.7,55.8L17.9,54.2L19.2,49.4L21.5,43.9L21.8,43.5Z M106.5,54.4L106.9,57.6L106.9,59.1L106.6,59.3L106.5,59.3L106.1,59.0L106.1,58.7L105.7,57.9L105.6,57.1L103.6,53.0L102.7,51.7L102.3,50.7L100.5,48.3L99.6,47.2L96.9,44.6L94.4,42.6L91.2,40.5L90.4,40.1L88.4,39.0L86.9,38.5L86.1,38.1L81.4,36.8L78.7,36.6L77.8,36.3L74.5,36.3L72.3,36.4L68.6,37.1L68.3,37.2L65.7,37.9L63.7,38.7L60.0,40.5L59.7,40.8L58.3,41.5L57.9,41.9L55.8,43.4L54.4,44.6L51.9,47.2L50.6,49.0L50.1,49.5L49.4,50.7L49.0,51.2L47.6,53.8L46.1,57.2L45.4,59.6L44.9,62.3L44.6,62.5L44.3,62.3L44.3,61.4L44.1,61.1L44.0,57.5L44.6,53.0L45.3,50.0L45.8,48.5L47.4,44.7L48.7,42.5L49.3,41.7L49.3,41.6L51.1,39.2L53.2,36.9L55.8,34.7L57.4,33.6L58.2,33.0L60.3,31.7L63.2,30.4L65.2,29.7L65.8,29.4L69.2,28.5L71.1,28.4L71.5,28.2L74.5,28.0L79.0,28.2L80.2,28.4L80.9,28.6L81.9,28.7L83.0,29.1L83.8,29.2L84.2,29.4L85.1,29.6L86.5,30.1L90.6,32.0L92.8,33.3L93.6,33.9L94.7,34.7L97.7,37.3L99.7,39.4L101.8,42.1L103.3,45.0L103.5,45.2L104.7,47.7L105.6,50.2Z M74.7,19.1L75.3,19.3L75.4,19.5L75.2,19.7L74.7,19.9L71.8,19.9L66.9,20.7L66.3,20.9L65.2,21.1L64.2,21.5L63.6,21.6L61.1,22.5L59.6,23.2L58.3,23.6L57.1,24.3L55.8,24.9L55.1,25.5L52.5,27.0L51.2,28.0L50.1,28.8L45.6,33.1L44.0,35.1L41.5,38.6L40.4,40.5L38.7,44.0L36.9,49.6L36.3,52.4L35.9,55.4L35.8,61.9L36.1,63.1L36.3,65.6L36.6,66.7L37.1,69.4L37.5,70.3L37.5,70.6L37.9,71.6L38.1,72.5L38.3,72.8L38.6,73.6L39.4,75.1L40.3,77.3L40.6,77.7L41.1,78.9L41.5,79.2L41.7,79.8L43.0,81.5L43.8,82.8L44.9,84.1L48.4,87.8L51.9,90.8L52.5,91.1L53.2,91.7L53.5,91.7L54.0,92.2L56.2,93.5L56.6,93.9L57.1,94.1L57.1,94.4L56.4,94.4L53.6,93.5L51.5,92.6L50.9,92.2L50.7,92.2L48.0,90.8L46.9,90.0L46.4,89.9L46.0,89.5L44.1,88.3L41.3,85.9L38.3,82.8L35.9,79.7L33.6,76.1L33.4,75.5L33.0,75.0L31.4,71.5L29.7,66.4L29.6,65.5L29.1,63.6L28.7,60.5L28.6,55.2L29.1,50.9L29.7,48.2L31.0,43.9L32.3,40.8L34.9,36.2L36.5,33.7L38.4,31.5L41.0,28.8L43.9,26.4L46.9,24.3L48.6,23.5L50.3,22.5L50.7,22.4L53.6,21.0L54.3,20.9L55.9,20.2L56.9,20.1L57.7,19.7L59.5,19.3L60.6,19.2L61.3,18.9L62.9,18.7L64.1,18.7L65.7,18.4L69.8,18.4L70.2,18.6L71.1,18.6L71.7,18.8Z" fill="#000" fill-rule="evenodd"/>
</svg>