<svg xmlns="http://www.w3.org/2000/svg" viewBox="0 0 128 128" width="128" height="128">
  <path d="M119.2,60.3L118.9,57.7L118.6,57.4L117.3,57.0L116.0,57.1L113.5,57.0L112.5,57.1L112.1,57.3L111.6,58.0L111.4,59.1L111.4,61.1L111.2,61.8L111.0,65.4L110.2,69.5L109.6,71.0L109.3,72.4L108.5,74.0L108.4,74.7L108.0,75.2L107.1,77.6L106.6,78.4L106.6,78.7L106.1,79.8L105.8,80.0L104.9,82.0L102.2,86.0L101.3,86.9L99.7,89.2L97.2,91.8L94.9,94.0L92.7,95.7L91.4,96.8L89.5,98.0L88.6,98.6L87.5,99.1L86.3,99.9L84.5,100.7L83.2,101.5L82.1,101.8L79.7,102.9L78.0,103.4L77.7,103.6L76.4,103.8L75.1,104.3L71.4,105.0L69.3,105.1L67.3,105.4L65.1,105.5L59.6,105.3L57.6,104.9L56.2,104.8L54.6,104.4L51.6,103.8L50.4,103.3L48.8,102.9L48.6,102.7L47.6,102.5L46.4,102.0L45.7,101.6L44.7,101.2L44.3,100.9L42.9,100.3L41.9,99.7L41.0,99.3L40.5,98.9L39.8,98.6L39.3,98.2L38.5,97.8L35.3,95.4L31.2,91.8L29.2,89.8L26.0,85.8L24.7,83.9L24.4,83.1L23.5,81.9L23.1,81.2L23.0,80.8L22.7,80.4L22.0,79.1L22.0,78.8L21.8,78.6L21.5,77.8L21.2,77.3L21.1,76.9L20.8,76.4L20.7,76.0L20.0,74.3L19.7,73.3L19.5,72.9L19.3,71.9L19.1,71.4L18.8,70.3L18.6,69.8L18.4,68.7L18.0,67.3L17.9,66.1L17.4,64.2L17.4,63.4L17.2,62.5L17.1,60.6L16.8,59.2L16.2,58.4L15.7,58.3L11.2,58.2L10.1,58.4L9.4,58.8L9.2,59.3L9.2,61.9L10.0,68.3L11.3,73.7L11.5,74.2L11.6,74.8L12.0,75.7L12.6,77.7L13.4,79.4L13.5,79.9L14.4,82.0L15.2,83.6L18.3,89.0L19.8,91.0L20.9,92.2L21.4,93.0L23.8,95.8L26.8,98.9L28.7,100.7L30.6,102.2L32.0,103.0L34.0,104.7L35.0,105.2L37.3,106.7L39.6,107.8L41.2,108.8L42.5,109.1L42.8,109.4L45.9,110.4L47.1,111.0L50.3,112.0L52.0,112.2L54.4,112.9L55.7,113.0L57.1,113.3L58.8,113.3L60.2,113.5L62.1,113.6L66.9,113.6L70.6,113.3L76.9,112.2L83.1,110.3L83.6,110.0L85.0,109.6L87.3,108.5L93.5,105.1L96.4,103.0L100.0,100.1L104.4,95.9L105.0,95.0L106.0,94.1L106.6,93.2L108.5,90.8L110.9,87.3L112.4,84.9L114.9,79.6L116.6,75.1L116.8,74.2L117.2,73.2L117.7,70.6L117.9,70.1L118.8,64.7Z M57.9,44.6L56.6,45.3L54.9,46.6L53.2,48.2L52.5,49.1L51.5,50.7L50.7,52.4L49.9,54.8L49.8,55.9L49.8,58.1L50.4,62.0L51.2,64.1L51.6,64.4L52.2,65.8L52.8,66.6L54.5,68.5L57.0,70.3L58.4,71.0L59.1,71.1L59.8,71.5L62.1,72.1L64.2,72.1L66.5,71.8L67.4,71.4L67.7,71.0L67.8,69.9L67.0,67.8L66.6,66.0L66.0,64.5L65.6,64.1L65.0,63.8L63.1,63.8L61.6,63.1L60.7,62.9L59.8,62.2L58.4,60.5L57.9,59.1L57.7,58.0L57.7,56.7L58.2,55.0L59.3,53.3L61.1,51.7L61.5,51.1L61.1,49.3L60.9,48.9L60.2,46.6L59.7,45.1L59.3,44.6L59.0,44.5Z M82.3,41.2L80.5,39.3L78.5,37.5L76.6,36.2L75.7,36.0L75.1,35.4L74.0,34.9L71.9,34.0L70.9,33.8L70.3,33.5L68.5,33.1L65.6,32.6L62.8,32.6L62.0,32.8L60.9,32.8L57.6,33.5L56.7,33.9L55.3,34.2L51.9,35.8L51.1,36.5L50.6,36.7L49.0,37.7L47.2,39.3L45.3,41.3L43.5,43.8L42.6,45.3L42.2,45.8L41.7,47.0L41.6,47.4L41.2,47.9L40.5,49.9L39.9,52.5L39.4,56.4L39.4,59.3L39.6,61.1L39.9,62.0L39.9,62.9L40.8,66.3L42.0,68.6L42.1,69.1L42.9,70.3L43.2,71.0L44.0,71.7L44.6,71.7L45.1,71.5L49.3,68.5L50.1,67.6L50.2,66.9L49.9,66.0L49.0,64.4L48.9,63.7L48.6,63.3L48.0,61.6L47.6,59.6L47.5,58.4L47.6,55.7L48.4,51.9L48.9,51.0L49.0,50.2L49.7,49.0L51.5,46.6L52.8,45.2L54.9,43.5L56.0,43.0L56.6,42.6L56.8,42.6L58.1,42.0L59.5,41.7L60.2,41.3L62.5,41.0L65.7,41.1L68.0,41.5L71.5,43.0L74.0,44.6L76.6,47.0L77.3,47.1L77.8,47.0L79.0,46.2L82.7,43.4L83.0,42.8L83.0,42.3Z M37.3,34.9L36.2,36.5L36.2,37.6L37.6,38.9L40.7,41.1L41.3,41.3L41.9,41.3L42.3,41.1L43.7,39.6L43.9,39.3L46.2,37.1L47.5,36.2L48.0,35.7L50.1,34.3L50.6,34.1L51.9,33.3L54.8,32.1L59.0,30.9L62.7,30.5L64.5,30.5L66.2,30.8L67.4,30.8L67.8,30.9L69.3,31.1L69.8,31.3L70.5,31.4L71.2,31.7L72.0,31.9L72.7,32.3L73.3,32.4L73.7,32.7L75.5,33.3L76.6,34.0L77.3,34.3L77.6,34.6L80.1,36.2L81.8,37.6L84.0,39.9L85.4,41.7L87.3,44.5L88.2,46.3L89.5,49.6L90.1,51.7L90.4,53.7L90.6,54.5L90.8,57.0L90.8,59.9L90.2,63.8L89.8,65.1L89.7,65.7L89.5,66.0L89.2,67.2L88.5,68.7L88.3,69.3L87.6,70.6L87.5,71.0L86.8,72.2L86.6,72.7L86.7,73.8L87.2,74.5L88.8,75.8L89.6,76.3L90.7,77.2L91.6,77.7L92.3,77.7L93.1,77.0L94.9,74.2L95.0,73.6L95.4,73.0L95.8,71.7L96.3,71.0L96.8,69.2L97.0,69.0L97.2,68.0L97.6,67.1L98.1,64.7L98.8,60.5L98.8,55.1L98.6,54.3L98.5,52.8L98.1,50.0L96.7,45.4L95.9,43.4L94.7,41.0L94.6,40.6L93.5,38.9L92.9,37.7L90.9,35.1L89.2,33.1L87.7,31.6L84.5,29.0L82.2,27.4L81.5,27.2L81.0,26.8L80.0,26.3L79.3,25.8L78.0,25.4L77.1,24.9L75.5,24.5L74.7,24.1L72.5,23.6L72.1,23.3L70.8,23.1L70.3,22.8L69.1,22.8L68.5,22.6L67.9,22.6L67.5,22.4L65.2,22.3L62.8,22.3L62.0,22.4L61.0,22.4L59.0,22.7L57.9,23.1L56.9,23.2L55.9,23.5L54.5,23.7L51.1,24.9L47.1,26.8L43.5,29.2L40.8,31.3L38.9,33.1Z M79.6,14.7L78.4,14.6L77.9,14.8L77.4,15.4L76.6,17.7L76.5,18.4L76.4,18.6L76.2,19.3L75.8,20.2L75.6,21.0L75.7,21.8L76.0,22.2L78.3,23.3L78.6,23.3L79.9,24.1L80.6,24.2L80.9,24.5L82.3,25.2L82.8,25.6L84.3,26.4L88.8,29.9L90.9,31.9L92.9,34.3L94.8,36.9L95.2,37.7L96.2,39.1L96.3,39.5L97.3,41.2L98.1,43.5L98.9,45.0L99.5,47.1L99.7,47.3L99.8,48.1L100.5,50.9L100.5,51.6L100.8,52.3L101.1,55.2L101.2,58.4L101.1,60.1L100.8,61.1L100.9,62.0L100.5,64.6L100.3,65.2L100.3,65.8L100.0,66.5L99.7,68.3L99.4,68.7L98.4,72.0L97.6,73.4L97.6,73.8L97.0,75.0L96.4,75.8L96.2,76.5L94.3,79.5L92.0,82.5L89.9,84.5L89.8,84.9L86.9,87.3L85.9,88.0L84.7,89.0L84.3,89.1L83.7,89.6L83.4,89.7L82.6,90.4L78.7,92.2L76.5,92.8L75.4,93.4L73.3,93.8L72.0,94.3L70.5,94.6L68.2,94.9L67.7,95.0L64.1,95.2L58.1,94.7L56.2,94.2L54.4,94.0L53.4,94.0L52.7,94.8L52.5,95.5L51.8,97.2L51.6,98.4L51.3,98.7L50.8,100.4L50.8,100.9L51.1,101.3L51.8,101.8L52.5,102.1L57.0,103.0L57.8,103.0L58.2,103.2L59.6,103.4L61.5,103.4L62.8,103.5L66.1,103.5L66.9,103.4L69.2,103.3L70.3,103.0L71.2,103.0L71.6,102.8L72.5,102.7L73.1,102.5L73.9,102.5L75.1,102.0L76.0,101.9L77.1,101.5L77.7,101.4L80.4,100.4L80.7,100.2L81.6,99.9L82.7,99.3L83.2,99.1L84.6,98.3L86.1,97.6L90.3,94.9L93.1,92.7L95.0,91.0L99.0,86.8L100.6,84.6L101.3,83.2L102.1,82.3L102.9,81.1L103.2,80.4L103.5,80.0L103.5,79.7L104.8,77.6L105.4,75.9L105.7,75.6L105.9,74.4L106.6,73.1L106.8,71.9L107.5,70.3L108.6,65.6L108.7,64.2L109.0,62.3L109.1,56.4L109.0,54.7L108.9,54.2L108.9,52.9L108.5,50.7L108.5,49.9L108.2,49.2L108.2,48.6L108.0,48.0L107.8,46.9L107.5,46.4L107.5,46.0L107.3,45.5L107.1,44.3L106.7,43.4L106.2,41.3L105.4,39.8L105.3,39.3L104.8,38.5L104.8,38.2L104.2,36.9L102.8,34.6L102.3,33.5L101.8,33.0L101.7,32.6L99.5,29.5L99.0,28.9L98.1,27.7L94.7,24.1L94.1,23.7L92.4,22.1L91.3,21.4L89.6,20.0L88.9,19.6L86.8,18.1L83.1,16.4L82.5,15.9L80.8,15.4Z" fill="#000" fill-rule="evenodd"/>
</svg>