<svg xmlns="http://www.w3.org/2000/svg" viewBox="0 0 128 128" width="128" height="128">
  <path d="M64.8,15.8L60.9,15.5L55.3,15.6L50.2,16.3L46.6,17.2L46.2,17.2L45.4,17.5L44.6,17.6L39.7,19.4L35.9,21.2L35.5,21.5L35.1,21.6L33.1,22.9L32.2,23.3L27.9,26.4L24.1,29.8L20.6,33.6L19.7,34.9L19.1,35.6L18.4,36.7L17.9,37.2L15.3,41.4L13.6,45.0L13.6,45.2L12.5,47.6L11.6,50.1L11.6,50.7L10.9,52.6L10.8,53.4L10.6,54.0L9.7,58.8L9.4,61.3L9.4,62.8L9.2,63.8L9.3,68.9L9.5,71.3L9.9,74.1L11.0,79.2L11.2,79.7L11.7,81.7L12.8,84.8L15.1,90.1L17.9,94.8L19.1,96.7L22.3,100.6L24.6,103.2L26.8,105.4L31.3,109.1L33.2,110.4L36.8,112.7L39.2,113.8L39.8,114.2L42.0,115.1L42.3,115.4L43.0,115.5L44.8,116.4L47.3,117.2L50.8,118.1L50.8,117.9L50.6,117.9L50.2,117.7L46.8,116.5L45.7,115.9L44.1,115.4L39.8,113.1L37.0,111.3L36.2,110.6L34.1,109.1L31.5,106.9L29.4,104.8L27.0,102.2L23.9,98.1L23.8,97.7L23.5,97.4L22.9,96.2L21.8,94.6L20.3,91.6L18.8,88.2L18.5,86.9L17.8,85.3L16.8,81.6L16.5,79.6L16.3,79.3L16.3,78.8L16.1,77.9L16.1,76.9L15.8,75.4L15.6,72.4L15.7,66.9L16.1,63.3L16.7,60.0L17.5,56.6L18.6,53.2L18.9,52.6L19.3,51.2L19.6,50.7L20.0,49.5L21.9,45.8L22.3,45.3L22.9,43.9L23.6,43.1L24.8,41.1L26.2,39.3L29.3,35.6L31.4,33.5L33.8,31.5L34.1,31.2L37.0,29.0L38.1,28.4L39.6,27.3L44.3,24.8L49.0,22.9L49.6,22.8L51.9,21.9L53.7,21.6L54.6,21.3L57.1,20.8L60.0,20.5L61.4,20.3L64.6,20.2L70.3,20.8L71.7,21.2L74.1,21.7L78.8,23.3L83.0,25.6L86.0,27.5L88.7,29.7L90.7,31.6L93.9,35.2L94.3,36.1L94.8,36.6L95.4,37.7L96.1,38.5L98.8,43.9L100.0,47.4L100.6,49.6L101.1,52.0L101.5,55.2L101.6,57.6L101.5,61.5L100.7,67.0L100.4,67.5L99.7,70.7L98.4,74.2L95.9,78.9L93.8,82.1L90.8,85.6L88.7,87.7L86.7,89.3L82.5,92.2L81.6,92.5L80.6,93.2L78.9,94.0L74.8,95.7L69.7,97.0L66.2,97.5L62.6,97.5L59.5,97.1L56.1,96.2L53.6,95.2L49.7,93.1L47.4,91.4L45.4,89.5L43.5,87.3L42.2,85.7L42.0,85.1L41.5,84.6L39.6,80.8L38.9,78.8L38.2,77.1L37.4,72.0L37.5,67.8L37.7,67.3L37.7,66.5L38.0,64.2L38.4,63.4L38.5,62.4L39.2,60.3L40.3,57.7L41.8,55.0L43.5,52.9L43.6,52.5L44.7,51.2L47.3,48.7L48.7,47.6L51.0,46.0L53.7,44.6L54.1,44.5L55.8,43.7L59.1,42.7L60.7,42.4L62.1,42.2L64.6,42.2L67.3,42.7L67.5,42.9L69.0,43.2L70.9,44.1L72.5,45.1L74.1,46.4L76.5,49.0L78.0,51.6L79.0,54.4L79.5,57.3L79.5,60.1L79.2,62.5L78.6,64.5L77.9,66.1L75.9,69.3L74.6,70.7L72.8,72.2L70.2,73.8L66.6,75.0L64.2,75.5L61.3,75.5L60.1,75.3L59.8,75.1L58.6,75.0L58.1,74.8L57.6,74.9L57.7,75.2L59.1,76.6L60.8,77.8L62.6,78.7L64.1,79.3L65.2,79.4L66.0,79.7L69.8,80.1L72.6,79.7L75.5,78.7L77.9,77.4L79.1,76.6L80.7,75.2L81.9,73.8L83.0,72.1L83.5,71.7L84.5,69.5L85.3,67.0L85.4,65.8L85.6,64.8L85.6,61.3L85.3,59.9L85.2,58.9L84.8,57.8L84.5,56.6L83.2,53.2L81.6,50.1L79.7,47.7L77.4,45.1L75.0,43.1L73.2,41.8L69.7,39.9L67.6,39.1L64.3,38.2L60.0,37.6L57.1,37.6L56.0,37.7L55.0,37.9L53.6,38.0L51.8,38.4L47.8,39.8L46.8,40.4L45.5,40.9L42.6,42.8L39.6,45.3L37.1,48.0L35.6,50.1L35.4,50.6L35.0,51.1L34.8,51.5L34.5,52.0L34.4,52.4L33.5,53.9L32.2,57.5L31.3,60.9L31.2,63.3L31.0,63.9L31.1,68.7L31.4,69.9L31.5,71.0L32.3,74.0L32.4,74.8L32.7,75.4L33.2,77.2L33.7,78.0L34.0,79.1L34.6,80.1L35.5,82.1L37.8,86.0L38.5,86.8L39.4,88.2L41.3,90.3L44.1,93.0L46.8,95.2L50.6,97.6L54.1,99.3L54.8,99.5L55.1,99.7L59.5,101.2L61.0,101.4L61.9,101.7L66.5,102.3L71.1,102.3L73.2,102.1L76.4,101.6L80.1,100.7L83.9,99.3L84.0,99.1L84.7,99.0L87.6,97.6L89.6,96.3L90.8,95.4L91.7,94.9L92.7,94.1L93.4,93.7L95.7,91.5L96.1,91.3L96.4,90.8L99.1,87.9L101.4,84.9L103.0,82.1L103.7,80.7L103.9,80.4L105.5,76.8L106.5,73.7L106.6,72.7L106.9,72.2L107.5,68.8L108.0,64.2L107.8,59.8L107.3,56.2L105.9,50.1L104.7,46.7L103.0,42.9L102.8,42.6L102.0,41.0L101.0,39.5L100.9,39.2L100.0,37.5L98.0,34.7L95.7,32.0L92.9,29.1L90.6,27.0L87.4,24.5L82.7,21.5L82.1,21.4L81.4,20.9L77.0,18.9L74.7,18.1L74.1,18.0L73.5,17.7L72.8,17.6L72.1,17.2L69.4,16.6L65.2,15.9Z M75.0,10.1L74.6,10.2L76.9,10.7L77.9,11.1L78.3,11.1L81.9,12.5L83.7,13.4L85.0,13.9L87.6,15.2L90.6,17.0L94.0,19.5L98.8,23.8L101.2,26.5L104.1,30.3L106.9,34.9L108.1,37.4L109.8,41.2L109.8,41.6L110.2,42.5L110.4,43.5L110.7,44.0L111.3,46.8L111.6,47.3L111.7,48.3L112.2,50.2L112.5,52.9L112.5,54.4L112.7,56.2L112.7,60.6L112.5,63.8L112.3,64.2L112.0,67.1L111.7,67.9L111.6,69.4L111.2,70.3L110.7,72.9L110.1,74.6L109.8,75.0L109.8,75.5L108.0,79.7L107.9,80.1L106.7,82.4L105.6,84.2L105.4,84.7L104.9,85.3L103.6,87.4L101.8,89.6L101.6,90.1L100.0,91.9L99.4,92.4L99.2,92.8L96.2,95.8L94.3,97.4L89.8,100.7L88.2,101.5L87.6,102.0L83.0,104.4L77.8,106.4L72.8,107.7L70.7,108.1L68.4,108.3L67.1,108.5L63.2,108.6L58.3,108.1L57.7,107.9L56.0,107.6L54.8,107.2L54.0,107.1L53.0,106.7L52.5,106.6L48.7,105.1L45.6,103.5L43.5,102.2L41.1,100.4L39.3,98.8L38.9,98.6L36.0,95.6L34.0,93.0L32.4,90.6L32.1,90.2L31.6,89.2L30.7,87.7L29.7,85.7L28.2,81.6L27.5,78.8L27.5,78.3L26.7,74.6L26.6,68.9L26.6,67.1L26.8,66.6L27.1,64.0L27.7,60.7L28.9,56.9L29.2,56.4L30.4,53.1L31.0,52.3L32.1,50.1L32.8,49.1L33.1,48.5L33.5,48.1L33.8,47.4L37.0,43.5L40.5,40.1L44.3,37.3L47.4,35.5L51.4,33.7L56.3,32.1L57.3,32.0L58.6,31.7L61.4,31.3L65.0,31.3L68.2,31.7L70.8,32.3L71.3,32.5L72.7,32.9L74.6,33.7L76.9,34.8L79.3,36.4L82.5,39.1L84.7,41.6L86.6,44.3L88.1,47.1L88.8,49.0L89.8,52.1L90.3,55.0L90.6,57.6L90.6,59.8L90.1,63.8L89.7,64.8L89.6,65.6L88.2,69.7L87.2,71.8L86.8,72.2L86.5,73.0L85.8,74.2L84.4,76.1L82.7,78.0L80.1,80.4L78.3,81.7L76.5,82.9L74.0,84.1L69.8,85.6L65.5,86.4L63.4,86.4L61.1,86.1L60.0,85.7L59.3,85.6L57.3,84.8L56.2,84.1L54.1,82.6L51.4,79.7L49.6,76.5L48.6,73.6L48.3,70.9L48.3,68.0L48.9,65.2L49.8,62.8L50.5,61.5L51.5,59.9L53.4,57.8L54.3,57.0L56.1,55.7L58.1,54.6L60.4,53.7L61.2,53.6L62.8,53.2L67.0,53.2L68.7,53.5L69.0,53.7L69.8,53.6L69.8,53.4L68.3,52.0L66.8,51.0L64.7,49.9L62.1,49.1L59.8,48.7L56.7,48.7L54.3,49.2L51.7,50.1L50.0,51.1L47.5,52.9L46.0,54.4L44.4,56.7L43.1,59.3L42.4,61.5L42.1,62.8L42.0,64.7L42.1,67.9L42.4,68.9L42.5,69.9L42.9,71.6L44.0,74.6L44.0,74.8L44.9,76.5L46.7,79.5L47.6,80.6L47.8,81.1L50.6,84.0L53.3,86.2L55.3,87.5L58.8,89.2L59.3,89.3L60.1,89.7L61.1,89.9L62.1,90.3L66.1,91.0L68.1,91.2L71.4,91.1L75.9,90.3L78.8,89.4L82.7,87.5L85.5,85.7L88.5,83.1L91.0,80.3L92.9,77.4L94.7,73.8L96.0,70.1L96.3,67.8L96.6,66.9L96.7,65.2L96.7,61.7L96.2,57.0L94.4,51.3L92.9,47.8L92.5,47.2L91.5,45.2L90.8,44.2L90.7,43.9L88.7,41.1L85.6,37.5L82.7,35.0L78.3,31.8L75.1,30.2L71.3,28.6L66.1,27.2L62.8,26.8L62.3,26.6L57.2,26.6L54.0,26.8L53.6,27.0L50.8,27.4L48.3,28.1L47.3,28.3L46.8,28.5L46.1,28.6L41.9,30.4L41.7,30.6L37.8,32.7L35.3,34.6L33.3,36.2L29.4,40.2L27.1,43.2L26.1,44.7L25.9,45.2L25.5,45.6L25.3,46.1L25.0,46.4L24.3,48.0L24.0,48.4L23.6,49.6L23.1,50.3L21.2,56.2L20.4,60.7L20.1,63.4L20.2,69.4L20.9,73.6L21.4,75.3L21.5,76.0L21.8,76.9L21.9,77.9L23.2,81.6L23.3,81.8L23.3,82.1L23.9,83.2L24.2,84.0L25.4,86.7L28.0,91.2L28.5,91.6L28.6,92.0L30.6,94.8L31.0,95.1L32.3,96.8L35.1,99.6L38.6,102.8L41.3,104.7L45.4,107.3L48.7,109.0L54.5,111.2L57.8,112.2L58.7,112.2L60.8,112.7L63.8,113.1L67.5,113.4L72.8,113.3L77.6,112.7L82.1,111.7L87.0,110.0L87.7,109.6L87.9,109.6L89.8,108.8L92.9,107.2L95.8,105.5L97.5,104.2L98.1,104.0L98.9,103.3L100.9,101.8L103.6,99.4L106.2,96.7L106.8,95.8L108.1,94.4L108.6,93.6L109.8,92.2L112.7,87.5L114.9,83.1L116.6,78.5L116.6,78.2L116.8,77.9L117.7,74.7L118.6,70.2L119.1,64.0L118.9,59.1L118.6,56.1L118.3,55.1L118.3,54.4L117.8,51.8L116.9,48.7L116.8,47.7L116.4,46.8L115.3,43.4L113.0,38.4L111.0,34.8L108.1,30.6L106.5,28.8L106.2,28.2L102.1,23.8L97.9,20.3L93.4,17.2L93.2,17.2L91.7,16.2L91.3,16.1L90.1,15.3L89.4,15.1L89.2,14.9L88.3,14.5L88.1,14.3L87.4,14.1L86.9,13.8L86.5,13.7L86.0,13.4L85.4,13.2L84.6,12.8L84.0,12.7L83.5,12.4L82.1,12.1L82.0,11.9L80.7,11.5L79.2,11.1L77.6,10.6L76.5,10.3L75.7,10.3Z" fill="#000" fill-rule="evenodd"/>
</svg>