<svg xmlns="http://www.w3.org/2000/svg" viewBox="0 0 128 128" width="128" height="128">
  <path d="M106.5,9.5L106.2,9.5L105.3,10.0L104.9,10.1L103.0,11.2L102.7,11.3L102.5,11.5L100.3,12.5L99.9,12.9L96.8,14.4L96.6,14.6L96.0,14.8L94.0,16.0L93.3,16.2L91.8,17.2L89.9,18.0L88.8,18.8L86.9,19.7L83.8,21.5L82.8,21.8L82.4,22.2L81.1,22.8L80.8,23.0L80.2,23.3L78.1,24.6L77.7,24.6L75.5,25.8L73.9,26.5L70.1,28.7L69.6,28.9L69.2,29.2L68.7,29.3L67.1,30.3L66.9,30.3L66.0,30.9L65.6,31.0L65.0,31.4L63.4,32.1L63.2,32.4L61.6,33.1L58.7,34.7L54.6,36.8L53.0,37.9L51.7,38.4L50.0,39.4L48.8,40.1L48.4,40.2L47.0,41.0L44.5,42.3L41.7,44.1L40.9,44.5L39.7,45.5L38.6,46.1L34.3,49.6L29.3,54.9L28.1,56.6L27.3,57.6L26.1,59.8L23.8,64.4L22.3,69.1L22.3,69.5L21.7,72.2L21.2,75.7L21.2,81.6L22.2,87.8L23.8,92.7L25.3,96.1L25.5,96.4L25.8,97.0L26.1,97.3L26.8,98.7L27.1,99.1L28.1,100.8L29.7,103.1L30.3,103.7L30.5,104.2L33.2,106.8L34.1,107.9L37.4,110.6L40.2,112.6L41.0,113.0L41.4,113.3L45.8,115.6L49.3,117.0L50.6,117.2L51.0,117.5L52.6,117.9L53.4,117.9L54.4,118.3L55.4,118.3L56.9,118.7L60.7,119.1L66.3,119.1L67.9,119.0L68.8,118.7L70.2,118.6L70.9,118.4L72.4,118.2L74.6,117.6L78.3,116.3L82.3,114.3L83.6,113.8L84.3,113.2L86.0,112.3L88.8,110.3L91.5,107.9L94.4,104.9L94.7,104.4L95.9,103.1L96.3,102.4L97.6,100.7L99.8,97.0L101.9,92.5L103.0,89.0L103.7,86.1L104.2,82.0L104.2,80.8L104.4,79.6L104.4,76.7L104.1,74.1L104.0,72.2L103.4,69.1L103.0,68.3L102.9,67.4L102.6,67.0L102.1,65.1L100.8,62.1L98.7,58.5L96.8,55.8L93.6,52.5L91.0,50.4L87.9,48.5L85.0,47.1L83.9,46.7L83.5,46.4L80.9,45.6L77.9,44.9L76.6,44.7L76.4,44.5L71.7,44.1L68.7,44.1L65.6,44.5L60.9,45.3L60.2,45.7L58.5,46.0L57.0,46.7L52.2,49.0L50.3,50.3L49.9,50.7L49.2,51.0L46.7,53.1L46.4,53.5L45.7,54.1L43.2,56.6L41.2,59.3L39.4,62.4L38.7,63.7L38.6,64.2L38.0,65.4L36.7,69.3L36.4,71.4L36.1,72.5L36.0,74.1L35.9,74.7L35.9,79.2L36.3,82.2L37.0,85.0L37.4,85.9L38.2,88.3L39.5,91.1L41.8,94.4L44.2,97.1L46.7,99.1L47.1,99.3L48.8,100.6L52.5,102.4L56.3,103.7L60.2,104.3L63.3,104.4L65.2,104.2L68.9,103.6L69.7,103.3L71.1,103.0L72.3,102.4L73.6,102.0L77.1,100.2L80.2,98.0L80.8,97.3L82.3,96.0L84.3,93.9L87.1,89.2L88.1,86.8L88.7,84.8L89.5,80.4L89.6,78.1L89.4,76.0L89.3,75.6L89.2,74.3L88.8,72.4L88.3,71.0L86.2,66.9L84.4,64.7L82.4,62.8L80.0,61.0L78.6,60.4L78.2,60.1L76.4,59.3L74.4,58.9L73.8,58.6L71.8,58.4L69.1,58.3L66.7,58.5L65.7,58.9L64.6,59.0L63.1,59.7L62.5,59.7L60.2,60.9L59.8,60.9L56.6,63.2L54.5,65.4L53.2,67.1L52.1,68.9L51.1,71.0L50.7,72.4L50.6,73.2L50.3,73.9L50.1,76.6L50.1,78.1L50.4,80.4L50.8,82.0L52.0,84.7L53.6,86.9L55.4,88.6L55.8,88.8L56.3,89.3L58.0,90.3L60.5,91.2L63.0,91.7L64.7,91.7L67.6,91.2L68.7,90.7L68.9,90.7L69.1,90.5L69.7,90.4L71.8,89.1L73.5,87.7L74.6,86.5L75.3,85.5L76.3,83.9L77.0,81.9L77.4,79.1L77.4,78.1L77.2,76.0L76.5,73.9L75.6,72.4L74.5,71.3L73.8,70.6L71.9,69.6L71.4,69.5L70.9,69.2L69.5,69.0L66.7,69.1L65.2,69.6L64.0,70.1L62.0,71.5L61.2,72.5L60.1,74.1L59.5,75.9L59.3,77.3L59.3,78.2L59.7,79.6L60.2,81.0L61.0,82.0L62.3,83.1L63.3,83.7L64.0,83.8L64.8,84.1L66.3,84.1L67.5,83.7L69.1,82.8L69.5,82.9L69.5,83.1L68.7,83.9L67.2,84.9L65.6,85.5L62.7,85.5L61.4,85.1L60.3,84.5L58.9,83.4L57.8,82.0L56.9,80.2L56.5,78.6L56.6,75.5L57.1,73.4L58.3,71.1L60.0,69.3L62.0,67.7L62.3,67.6L63.1,67.1L64.0,66.7L64.4,66.4L68.1,65.8L70.6,66.0L73.0,66.6L74.9,67.5L75.7,68.2L76.2,68.4L77.3,69.5L77.4,69.7L78.1,70.4L79.0,71.6L79.2,72.2L79.8,73.1L80.3,74.4L80.4,75.6L80.7,76.3L80.8,77.6L80.8,79.4L80.5,81.6L79.9,83.7L79.1,85.5L78.4,86.6L78.3,86.9L77.1,88.4L76.9,88.9L75.5,90.3L73.0,92.1L69.5,93.9L65.9,94.8L60.9,94.7L59.0,94.2L58.9,94.1L58.2,94.0L56.6,93.3L54.6,92.2L52.9,90.9L50.8,89.0L49.6,87.3L48.5,85.6L47.2,82.8L46.6,80.6L46.3,78.6L46.2,76.3L46.4,73.8L46.7,72.2L47.6,69.3L49.6,65.3L51.1,63.2L54.0,60.2L56.3,58.4L58.5,57.0L60.7,56.0L63.1,55.1L64.5,54.9L65.6,54.6L68.4,54.2L71.6,54.2L74.9,54.6L75.8,55.0L77.0,55.1L79.9,56.2L83.0,57.8L85.5,59.5L88.0,62.0L89.7,64.1L91.5,67.1L92.6,69.7L93.5,72.4L94.0,74.6L94.1,77.0L94.1,80.8L93.7,82.9L93.7,84.0L93.3,85.8L92.6,87.8L90.8,92.1L90.1,93.4L89.9,93.6L88.9,95.3L88.0,96.3L87.4,97.2L84.3,100.4L82.4,102.0L79.2,104.2L76.9,105.4L74.1,106.6L72.2,107.3L67.6,108.4L64.9,108.6L64.3,108.8L60.0,108.8L58.5,108.6L56.2,108.1L55.6,108.1L50.8,106.9L50.3,106.5L49.9,106.5L47.4,105.3L44.3,103.3L41.7,101.1L40.2,99.8L39.8,99.2L38.4,97.8L37.6,96.6L37.1,96.1L35.9,94.2L35.6,93.7L35.3,93.3L33.6,89.8L32.8,88.0L32.8,87.5L32.5,87.1L32.0,85.0L31.8,84.4L31.7,83.4L31.4,82.0L31.2,79.4L31.2,74.7L31.3,72.5L31.7,69.8L32.3,67.5L32.8,66.2L33.3,64.5L33.7,63.8L33.9,63.0L34.6,61.9L34.7,61.3L35.1,60.9L36.6,58.3L37.6,57.0L37.9,56.4L39.0,55.0L41.5,52.3L44.4,49.7L47.5,47.3L48.1,47.0L49.7,45.8L51.6,44.7L52.4,44.1L53.4,43.6L56.5,41.4L62.2,37.9L66.0,35.2L66.6,35.0L68.0,33.9L71.2,32.0L71.7,31.6L72.4,31.3L74.0,30.2L75.5,29.4L77.0,28.3L77.7,28.0L78.5,27.3L79.5,26.9L86.2,22.5L86.6,22.4L90.0,20.1L92.4,18.7L93.9,17.6L94.2,17.6L95.6,16.6L97.7,15.4L101.6,12.8L103.0,12.1L104.0,11.3L105.2,10.6L106.5,9.7Z M67.9,75.0L69.1,75.0L70.2,75.5L70.7,76.1L71.0,76.8L71.0,77.6L70.7,78.3L69.6,79.3L68.8,79.6L67.7,79.6L66.9,79.3L66.2,78.6L65.9,77.7L66.0,76.8L66.2,76.2L67.0,75.4Z" fill="#000" fill-rule="evenodd"/>
</svg>