<svg xmlns="http://www.w3.org/2000/svg" viewBox="0 0 128 128" width="128" height="128">
  <path d="M58.6,9.4L54.1,10.0L52.5,10.3L52.2,10.5L50.3,10.8L49.3,11.2L46.9,11.8L46.2,12.1L45.4,12.3L43.8,13.0L42.6,13.3L41.4,14.0L38.4,15.3L36.3,16.6L35.7,16.9L34.8,17.5L33.5,18.3L32.0,19.3L28.5,22.2L28.0,22.4L24.3,26.0L21.1,29.6L19.2,32.2L18.5,33.5L17.9,34.1L17.2,35.4L16.5,36.3L14.7,39.7L14.2,40.9L13.5,42.2L13.4,42.8L12.7,44.2L11.2,48.7L10.0,53.8L9.4,58.1L9.1,61.5L9.2,67.0L9.5,70.6L9.7,71.1L10.0,73.4L10.1,73.7L10.1,74.2L10.7,77.0L11.7,80.7L12.0,81.1L12.1,82.0L13.8,86.1L16.3,91.1L19.2,95.6L20.9,97.9L21.1,98.1L23.0,100.4L25.4,102.9L28.2,105.5L30.6,107.4L31.3,108.0L35.3,110.8L35.7,110.9L36.1,111.3L37.4,111.8L37.6,112.1L39.6,113.1L40.8,113.6L42.4,114.5L43.9,115.0L44.3,115.3L45.7,115.7L46.8,116.1L48.7,116.6L49.5,117.0L49.9,117.0L51.1,117.4L53.2,117.8L53.5,117.9L55.8,118.3L56.5,118.5L59.7,118.8L61.4,118.8L62.4,119.0L66.2,119.0L71.3,118.6L77.4,117.4L79.2,116.9L80.2,116.7L83.2,115.7L88.3,113.5L91.8,111.7L93.5,110.5L94.5,110.1L97.5,108.0L100.4,105.5L100.7,105.4L103.6,102.7L107.3,98.5L109.4,95.7L111.3,92.7L111.4,92.4L111.8,91.9L112.7,90.3L113.4,88.7L113.8,88.1L115.6,83.9L117.2,79.0L118.0,75.8L118.9,70.1L118.9,68.5L119.0,67.6L119.0,62.1L118.6,57.8L118.0,54.7L118.0,54.1L117.7,53.1L117.5,51.5L116.8,49.6L116.3,47.5L115.5,45.3L115.5,45.0L115.0,44.1L114.7,43.2L112.5,38.6L110.9,35.8L110.0,34.6L109.9,34.2L109.6,33.9L109.1,33.0L106.2,29.2L104.5,27.3L100.9,23.6L99.9,22.9L99.5,22.4L95.6,19.4L92.7,17.5L89.7,15.7L87.2,14.5L84.6,13.5L84.2,13.2L83.3,13.0L82.5,12.6L82.0,12.5L81.4,12.2L80.8,12.1L80.2,11.8L79.3,11.6L78.9,11.4L77.9,11.2L76.4,10.7L74.7,10.5L74.4,10.3L72.0,9.8L70.7,9.7L70.1,9.6L69.0,9.6L65.8,9.3Z M33.9,70.4L34.2,69.8L34.5,68.7L36.2,65.4L38.4,62.4L39.7,61.1L40.0,60.9L40.4,61.0L42.2,62.8L43.4,63.7L44.3,64.2L44.3,64.5L44.0,64.8L43.6,65.0L42.5,65.9L40.9,67.4L39.9,68.9L38.3,71.9L37.4,75.0L37.0,77.8L37.0,79.7L37.2,81.3L37.9,84.9L38.9,87.9L40.5,91.6L42.6,94.9L45.1,98.1L47.3,100.5L50.0,102.8L53.1,104.9L55.4,106.0L55.6,106.3L56.5,106.5L56.8,106.7L59.0,107.5L59.2,107.6L60.1,107.8L61.0,108.2L61.9,108.3L64.4,108.9L65.1,108.9L65.9,109.2L66.6,109.2L68.7,109.6L71.0,109.7L72.0,109.8L75.9,109.8L77.7,109.6L79.0,109.6L80.3,109.3L81.9,109.1L86.0,108.0L86.2,107.9L87.1,107.7L87.7,107.4L89.5,106.8L91.2,106.1L92.0,105.6L92.5,105.5L94.9,104.2L97.0,103.2L97.5,102.8L100.0,101.1L101.1,100.1L102.1,99.4L106.1,95.7L106.4,95.9L106.4,96.0L105.0,97.6L101.7,100.7L98.7,103.2L96.3,104.9L95.7,105.1L94.1,106.3L93.8,106.3L93.4,106.7L93.0,106.7L92.5,107.1L91.5,107.6L91.1,107.7L90.6,108.0L89.8,108.3L88.4,109.0L84.6,110.3L83.9,110.4L83.1,110.7L81.2,111.2L79.8,111.3L76.5,111.9L74.8,112.1L70.9,112.2L68.5,112.1L62.3,111.2L61.8,111.0L59.0,110.3L58.6,110.1L56.3,109.4L53.9,108.4L53.3,108.0L53.0,108.0L49.4,106.3L47.1,104.8L45.3,103.5L43.0,101.5L41.4,99.8L39.3,97.2L37.5,94.6L37.4,94.1L36.5,92.9L36.3,92.1L35.7,91.1L35.6,90.7L35.3,90.2L35.3,90.0L34.6,88.6L34.3,87.3L33.9,86.4L33.0,82.4L32.7,80.4L32.7,77.5L32.8,76.9L33.1,73.5Z M69.6,54.4L69.8,54.8L69.8,55.9L70.1,57.5L70.8,59.2L71.7,60.8L73.2,62.3L75.6,63.8L75.5,64.3L73.9,65.2L72.6,66.4L71.3,68.2L70.8,69.2L70.1,71.6L70.1,73.7L69.8,74.1L69.2,74.0L67.3,73.1L65.2,72.7L63.2,72.6L61.0,73.1L58.9,74.1L58.5,74.1L58.2,73.7L58.0,71.6L56.9,68.7L55.9,67.3L54.9,66.2L53.7,65.2L53.6,65.2L52.5,64.5L52.6,64.1L53.1,63.9L54.6,62.8L55.9,61.3L56.7,60.0L57.2,59.1L57.3,58.4L57.6,58.0L57.7,57.4L57.9,54.7L58.0,54.5L59.0,54.7L59.1,54.8L60.0,55.2L60.3,55.4L62.5,55.9L64.9,55.9L66.7,55.6L67.7,55.1L67.9,55.1L69.1,54.4Z M112.0,43.9L112.3,44.8L112.7,45.6L113.8,49.3L114.2,51.8L114.3,52.2L114.8,56.5L114.7,63.7L114.2,67.4L113.3,71.2L112.0,75.2L111.7,75.7L111.4,76.7L109.9,79.8L108.7,81.8L108.4,82.5L107.6,83.5L107.1,84.5L104.7,87.8L101.8,91.0L99.2,93.6L96.2,96.1L95.7,96.3L95.2,96.8L93.5,97.8L92.6,98.5L91.4,99.0L90.7,99.4L89.4,99.8L88.5,100.3L87.7,100.5L87.2,100.8L86.3,100.9L85.4,101.3L83.7,101.7L81.9,102.0L81.1,102.2L77.7,102.4L76.9,102.6L75.0,102.6L74.0,102.4L72.6,102.4L71.6,102.2L70.9,102.2L68.9,101.7L68.3,101.7L67.9,101.5L67.4,101.5L65.1,100.8L62.7,99.9L60.1,98.5L58.1,97.2L56.7,96.1L54.1,93.4L52.4,91.2L52.3,90.8L52.0,90.5L51.8,90.0L51.2,89.2L50.1,86.9L49.1,83.7L49.1,83.2L49.6,82.8L50.5,82.7L51.8,82.4L53.9,81.4L54.3,81.4L54.6,81.8L54.6,83.9L54.8,84.2L55.0,85.2L56.2,88.0L57.6,90.2L59.3,92.1L60.6,93.2L63.5,95.1L66.9,96.5L67.5,96.6L68.6,97.0L71.3,97.7L75.8,98.1L79.5,98.1L80.7,97.9L82.9,97.7L83.5,97.5L84.8,97.3L86.4,96.9L87.2,96.6L88.4,96.4L88.7,96.1L90.2,95.6L90.8,95.2L93.2,94.2L93.5,93.9L94.6,93.4L95.0,93.0L95.5,92.8L97.5,91.4L98.9,90.1L99.2,90.0L99.7,89.4L100.4,88.9L100.5,88.6L101.4,87.8L103.5,85.5L105.0,83.5L106.9,80.8L107.3,79.8L108.0,78.9L109.1,76.5L109.5,76.1L109.5,75.7L110.3,74.3L110.5,73.3L110.9,72.5L111.4,70.8L111.8,69.9L112.7,66.3L113.2,63.7L113.6,60.4L113.6,58.6L113.8,57.2L113.5,53.3L113.2,51.4L113.2,50.8L112.7,47.9L112.2,46.2L112.2,45.7L111.8,44.5Z M41.7,41.6L46.0,40.9L49.4,40.9L52.2,41.3L54.3,41.9L54.7,42.1L54.8,42.7L54.6,43.2L54.2,44.5L54.1,45.8L54.1,47.1L53.8,47.5L53.7,47.5L51.1,46.3L49.3,45.9L44.8,45.8L44.2,45.9L43.4,45.9L42.4,46.2L42.1,46.3L41.7,46.3L39.8,47.0L39.5,47.2L39.2,47.2L37.1,48.3L34.8,50.1L31.5,53.1L28.8,56.8L26.7,60.5L25.1,64.3L25.0,65.0L24.7,65.5L24.5,66.5L24.1,67.7L24.1,68.1L23.9,68.7L23.4,72.0L23.3,77.3L23.6,78.5L23.7,80.4L24.5,83.5L25.3,86.2L26.3,89.1L26.7,89.5L27.0,90.5L27.3,91.0L28.0,92.8L28.8,94.0L29.4,95.1L30.3,96.6L31.7,98.5L31.7,98.6L32.3,99.2L33.1,100.5L35.2,102.8L37.3,104.9L38.9,106.3L42.8,109.4L47.9,112.4L51.6,114.1L51.8,114.1L52.1,114.4L54.1,115.0L54.6,115.3L57.8,116.1L61.3,116.8L61.4,117.1L59.9,117.0L59.5,116.9L57.3,116.6L55.9,116.2L55.0,116.1L52.0,115.3L49.9,114.4L49.2,114.3L48.6,114.0L48.4,114.0L47.9,113.6L47.1,113.4L46.7,113.1L46.3,113.0L45.7,112.6L45.3,112.5L45.1,112.3L42.4,110.9L40.5,109.6L40.1,109.4L36.4,106.5L34.8,105.0L34.5,104.9L34.1,104.3L31.2,101.3L29.2,98.7L28.8,98.1L28.4,97.7L27.3,95.9L27.1,95.3L26.3,94.2L25.5,92.5L25.3,92.3L24.8,91.0L24.4,90.4L23.1,86.9L23.0,86.4L22.2,83.9L22.0,82.2L21.5,80.6L21.5,80.1L21.3,79.6L20.9,74.5L20.9,71.3L21.3,66.9L21.7,64.2L22.0,63.6L22.5,61.2L22.9,60.4L23.1,59.7L23.8,57.9L25.4,54.9L26.7,52.7L28.9,49.8L31.4,47.2L33.9,45.2L34.2,45.1L35.2,44.4L36.9,43.4L37.7,43.2L40.0,42.1Z M71.1,32.6L73.0,34.6L74.3,36.1L75.6,37.8L77.3,41.1L77.6,42.0L78.0,42.8L78.0,43.1L78.5,44.6L78.5,44.9L78.2,45.3L75.5,46.1L74.1,46.8L73.6,46.8L73.4,46.5L73.3,45.2L72.4,42.1L70.7,39.0L69.2,37.1L66.7,34.7L64.1,33.0L63.0,32.5L62.5,32.4L60.8,31.6L59.8,31.5L59.1,31.2L58.4,31.1L57.8,30.8L54.0,30.2L53.1,30.2L52.3,30.0L47.1,30.2L43.7,30.7L43.0,31.0L41.7,31.2L39.1,32.0L38.6,32.4L37.1,32.9L36.5,33.3L35.9,33.4L35.7,33.7L35.3,33.8L33.3,34.9L29.7,37.6L26.3,40.7L23.6,43.8L21.1,47.5L20.8,48.0L20.4,48.5L20.3,48.9L19.9,49.4L18.5,52.1L18.4,52.7L17.4,54.8L16.4,57.6L16.0,59.5L15.4,61.6L14.7,65.3L14.7,66.3L14.5,67.8L14.3,71.4L14.5,75.9L14.7,76.9L14.7,77.6L15.5,81.9L16.3,84.8L17.3,87.7L17.5,88.9L17.2,88.8L17.0,88.1L16.8,87.8L15.9,86.1L15.7,85.3L15.5,85.2L14.7,83.0L14.4,81.6L14.1,80.9L14.0,80.1L13.6,79.1L12.7,74.2L12.5,70.8L12.5,66.7L13.1,60.6L13.3,60.4L13.4,59.0L15.0,53.5L15.5,52.2L16.0,51.3L16.2,50.5L17.2,48.6L17.3,48.0L17.8,47.4L19.0,45.1L19.4,44.7L20.0,43.6L21.1,42.3L21.7,41.4L22.1,41.1L22.6,40.3L24.6,38.0L25.4,37.5L26.8,35.9L29.7,33.5L32.9,31.2L33.7,30.8L34.4,30.3L34.9,30.1L35.2,29.9L37.7,28.6L39.9,27.7L43.4,26.7L46.6,26.0L49.1,25.8L53.6,25.8L54.8,26.0L55.9,26.0L56.3,26.2L57.3,26.3L59.7,26.8L63.7,28.1L64.2,28.4L65.7,29.0L66.0,29.2L67.4,29.9L67.8,30.3L68.1,30.3Z M15.6,41.2L16.2,40.4L16.4,39.6L16.7,39.2L17.4,37.6L17.9,37.1L18.5,35.9L19.2,35.1L20.2,33.6L22.0,31.4L25.4,27.8L28.1,25.4L31.2,23.1L33.9,21.4L35.5,20.7L35.7,20.5L37.4,19.8L38.7,19.1L39.2,19.0L41.3,18.1L41.7,18.1L42.6,17.7L43.2,17.6L44.3,17.2L45.0,17.1L46.6,16.6L47.2,16.6L49.0,16.2L51.5,16.1L53.7,15.8L58.0,15.8L64.4,16.6L66.4,17.0L67.0,17.3L67.4,17.3L68.3,17.7L69.0,17.8L70.6,18.4L71.6,18.7L76.6,20.9L80.1,23.0L82.7,25.0L84.2,26.3L87.3,29.7L88.3,31.0L88.4,31.4L89.3,32.5L91.3,35.8L92.7,38.9L93.9,42.3L94.4,44.4L94.5,45.4L94.8,46.9L94.8,48.2L94.9,48.6L94.9,52.3L94.5,55.1L93.6,58.6L93.2,59.1L93.1,59.8L92.4,60.9L92.3,61.3L91.8,62.2L91.8,62.5L90.8,63.8L90.2,64.9L88.2,67.1L88.0,67.2L87.4,67.2L85.7,65.5L83.6,64.2L83.5,63.8L83.9,63.4L84.8,63.0L86.7,61.3L88.2,59.1L89.1,56.9L89.3,56.8L89.7,55.6L90.4,52.3L90.5,49.2L90.0,45.8L89.7,45.3L89.2,42.7L88.8,41.8L88.4,40.4L88.0,39.8L87.7,38.9L85.6,34.9L83.0,31.2L81.0,29.0L79.5,27.6L77.0,25.6L73.5,23.3L69.8,21.5L65.3,20.0L64.1,19.8L63.5,19.6L61.0,19.1L60.5,19.1L58.9,18.7L54.8,18.5L51.4,18.6L50.7,18.7L49.0,18.8L48.1,19.1L45.5,19.4L44.6,19.7L43.0,20.0L42.8,20.1L41.9,20.3L40.9,20.7L40.6,20.7L38.9,21.3L34.7,23.1L33.7,23.8L32.3,24.4L32.1,24.7L31.4,24.9L30.5,25.6L29.9,25.9L27.9,27.5L27.4,27.8L26.9,28.3L26.5,28.6L23.7,31.1L19.4,36.2L18.3,38.0L17.2,39.3L17.0,39.9L16.5,40.4L16.4,40.8L15.9,41.8L15.6,41.7Z M66.1,11.0L67.8,11.2L68.8,11.2L70.0,11.5L72.1,11.9L74.1,12.5L75.3,12.7L79.1,14.1L79.8,14.5L81.1,15.0L81.5,15.3L83.7,16.4L84.4,16.9L85.1,17.2L88.0,19.1L90.4,20.9L93.0,23.1L95.1,25.2L99.0,30.0L100.5,32.3L102.3,35.4L103.5,37.9L104.8,41.5L105.1,42.8L105.9,45.3L106.7,49.4L107.1,53.3L107.1,59.1L106.6,62.2L106.5,62.5L106.4,63.3L105.6,66.3L105.2,67.2L105.2,67.6L104.4,69.2L104.3,69.7L104.0,70.1L102.9,72.6L101.0,75.5L99.3,77.8L96.7,80.5L94.9,82.1L92.5,83.8L90.2,85.1L86.7,86.4L85.8,86.5L85.0,86.9L83.9,86.9L82.0,87.4L78.4,87.4L75.5,87.1L73.6,86.6L73.1,86.2L73.1,85.7L73.4,85.0L73.8,83.4L73.8,81.2L74.0,80.9L74.5,80.9L75.6,81.5L75.9,81.8L76.8,82.1L78.6,82.4L79.0,82.6L81.9,82.7L83.7,82.5L86.2,81.9L88.5,81.0L90.7,79.8L91.9,79.0L94.3,77.0L97.4,73.5L98.2,72.3L98.7,71.8L98.7,71.5L99.6,70.2L99.8,69.7L100.3,69.0L101.3,67.2L101.4,66.5L102.2,65.1L102.4,64.2L102.6,64.0L103.5,60.9L104.1,57.5L104.3,52.8L104.1,49.3L103.3,45.2L101.9,40.8L101.4,39.8L100.9,38.3L98.3,33.1L96.5,30.2L94.8,27.8L92.3,25.0L90.0,22.7L87.4,20.5L85.7,19.2L80.9,16.2L79.7,15.7L77.3,14.5L76.1,14.1L73.1,12.9L71.4,12.5L71.2,12.3L70.8,12.3L70.2,12.1L68.3,11.8L67.0,11.4L66.4,11.4L66.1,11.1Z" fill="#000" fill-rule="evenodd"/>
</svg>