<svg xmlns="http://www.w3.org/2000/svg" viewBox="0 0 128 128" width="128" height="128">
  <path d="M57.0,91.6L57.1,92.1L57.7,92.8L63.6,98.7L64.1,99.4L67.2,102.5L67.4,102.9L67.4,103.2L67.1,103.7L57.1,113.6L56.9,113.9L56.9,114.2L57.1,114.4L58.2,114.5L89.8,114.7L90.7,114.6L91.0,114.3L91.2,106.4L91.2,92.2L90.9,91.8L89.8,91.6L78.4,91.6L75.4,91.4L64.2,91.5L61.8,91.4L57.2,91.4Z M39.7,78.9L39.5,79.1L39.4,79.9L39.3,93.3L39.2,93.6L38.9,93.9L37.3,94.1L23.5,93.9L23.1,94.0L23.0,94.4L25.7,97.4L28.2,99.8L46.7,118.7L47.2,119.1L47.7,119.1L48.2,118.7L55.0,111.8L56.3,110.7L60.1,106.9L60.9,106.3L63.1,103.9L63.5,103.4L63.5,102.9L63.0,102.3L61.3,100.6L61.0,100.1L60.1,99.4L57.3,96.4L52.3,91.5L40.3,79.1Z M103.4,65.0L102.6,65.0L93.6,73.9L92.2,75.1L87.7,79.7L82.2,85.0L81.4,85.6L79.1,88.1L79.1,88.6L79.8,89.0L91.9,89.0L93.6,89.0L94.2,89.4L94.3,105.1L94.7,105.2L95.1,105.0L95.7,104.3L96.2,103.9L106.1,94.2L107.3,93.1L109.2,91.1L117.6,83.1L119.0,81.5L119.0,80.9L118.6,80.3Z M13.9,57.0L13.6,57.5L13.6,69.8L13.3,86.1L13.4,90.7L13.6,90.9L14.5,91.1L25.5,91.1L29.9,91.4L35.9,91.4L36.5,90.9L36.6,87.0L36.6,72.9L36.8,64.8L36.7,63.7L36.9,60.2L36.8,57.4L36.6,57.3L36.2,57.3L34.9,58.4L33.5,59.9L32.8,60.4L25.7,67.4L25.0,67.6L24.2,67.1L14.3,57.1Z M91.8,37.2L91.5,37.5L91.4,37.8L91.4,41.6L91.4,56.9L91.2,65.4L91.3,71.6L91.5,71.8L91.8,71.8L92.3,71.4L102.1,61.6L102.9,61.1L103.3,61.1L103.8,61.3L114.1,71.7L114.5,71.7L114.7,71.6L114.9,44.1L115.0,40.7L114.9,37.6L114.6,37.3L112.8,37.2Z M33.9,23.2L33.3,23.4L32.3,24.6L31.2,25.5L23.0,33.8L21.7,34.9L20.7,36.1L19.6,37.0L10.3,46.2L9.3,47.5L9.3,47.8L9.6,48.3L11.5,50.1L12.1,51.0L24.6,63.5L25.1,63.8L25.6,63.8L26.6,62.9L49.1,40.5L49.1,40.2L48.8,40.0L35.3,39.9L34.7,39.7L34.2,39.3L34.0,33.8L34.2,23.6Z M37.0,14.0L36.8,21.5L36.8,36.0L37.0,36.8L37.3,37.0L39.0,37.1L56.5,37.1L61.5,37.3L70.7,37.3L71.2,37.1L71.2,36.5L63.2,28.5L60.6,25.6L60.6,25.1L70.2,15.4L71.2,14.4L71.2,13.9L70.6,13.7L37.4,13.6Z M80.5,9.3L79.8,9.7L76.4,13.3L70.7,19.0L69.6,19.9L69.0,20.7L64.5,25.1L64.5,25.8L65.4,26.9L73.9,35.3L76.9,38.5L79.2,40.6L79.8,41.4L82.6,44.3L88.1,49.6L88.5,49.6L88.6,49.4L88.7,35.2L89.0,34.6L89.4,34.4L105.1,34.5L105.5,34.3L105.5,34.0L105.3,33.6L97.0,25.3L92.2,20.3L89.9,18.3L89.5,17.7L87.5,15.8L81.5,9.6L81.0,9.3Z" fill="#000" fill-rule="evenodd"/>
</svg>