<svg xmlns="http://www.w3.org/2000/svg" viewBox="0 0 128 128" width="128" height="128">
  <path d="M64.6,56.0L62.2,56.2L60.1,57.3L58.7,58.6L58.1,59.5L57.6,60.6L57.3,62.0L57.3,63.8L57.7,65.5L58.8,67.3L59.9,68.3L61.3,69.2L63.3,69.7L65.5,69.6L66.7,69.2L68.2,68.3L69.9,66.5L70.7,64.8L70.8,63.9L70.9,62.4L70.7,60.9L69.6,58.7L68.7,57.7L67.4,56.8L66.2,56.3Z M61.2,60.0L61.6,59.9L61.9,60.0L61.1,61.0L60.7,62.0L60.6,62.7L60.7,63.8L60.9,64.2L62.0,65.5L63.1,66.0L63.5,66.0L62.6,65.3L62.3,64.6L62.3,64.0L62.7,63.3L63.6,62.6L64.7,62.7L65.5,63.3L65.7,63.9L65.6,64.9L65.2,65.5L64.6,65.9L64.6,66.0L65.3,66.0L66.0,65.5L67.2,64.2L67.4,63.4L67.3,61.7L66.8,60.6L66.3,60.2L66.3,59.9L66.9,59.9L67.6,60.4L68.3,61.3L68.9,62.5L69.1,63.6L69.1,64.5L68.9,66.0L68.1,67.3L67.3,68.1L66.4,68.7L65.2,69.2L62.7,69.2L61.6,68.7L61.2,68.4L60.8,68.2L59.9,67.3L59.0,65.5L59.0,63.3L59.6,61.6L60.0,61.1Z M62.7,52.7L60.9,53.1L59.4,53.8L57.8,54.7L56.2,56.3L55.4,57.3L54.5,59.0L54.2,59.9L53.8,62.1L53.8,64.3L54.2,66.1L54.9,67.8L55.5,68.8L56.2,69.8L58.1,71.5L59.9,72.5L62.4,73.2L65.2,73.3L67.1,72.9L68.3,72.4L69.9,71.5L71.8,69.8L72.9,68.5L73.9,66.1L74.2,64.7L74.2,61.1L73.9,59.7L73.1,57.8L71.8,56.0L70.1,54.5L68.6,53.6L66.2,52.8L64.8,52.6Z M63.3,55.5L65.4,55.6L67.5,56.2L68.7,56.8L70.0,57.9L71.2,59.2L71.9,60.5L72.3,61.6L72.6,63.4L72.5,65.4L72.4,66.1L71.7,67.8L70.7,69.4L69.1,71.0L67.7,71.9L66.2,72.4L64.8,72.6L62.8,72.6L61.9,72.5L60.3,71.9L58.6,70.8L57.5,69.8L56.4,68.2L55.8,66.8L55.4,64.7L55.5,62.3L55.8,61.5L56.6,59.9L57.6,58.5L58.5,57.6L59.9,56.6L61.6,55.9Z M62.9,49.3L60.0,49.9L57.3,51.1L55.5,52.3L53.4,54.3L52.1,56.2L51.2,58.0L50.9,59.3L50.7,59.8L50.3,61.9L50.3,64.6L50.5,65.9L50.8,66.8L50.9,67.5L52.2,70.3L53.0,71.5L55.0,73.5L56.4,74.6L59.0,75.9L61.7,76.7L64.4,76.8L66.4,76.6L69.4,75.7L71.3,74.7L72.7,73.8L74.1,72.5L75.5,70.7L76.1,69.7L76.9,67.9L77.7,65.2L77.7,61.5L77.2,58.6L76.4,56.7L74.7,54.2L72.8,52.3L70.7,50.9L68.3,49.9L66.0,49.4Z M62.5,52.1L64.7,52.0L67.0,52.3L69.4,53.1L71.6,54.5L73.1,56.0L74.0,57.1L75.0,58.7L75.8,61.0L75.9,62.1L76.0,62.5L76.1,64.5L75.6,67.2L75.1,68.6L74.5,69.9L73.5,71.3L71.8,73.1L70.4,74.2L69.7,74.6L67.3,75.5L64.9,76.0L62.2,75.9L60.7,75.6L58.8,74.9L56.4,73.3L54.6,71.6L53.4,69.9L52.6,68.1L52.1,65.7L52.0,62.9L52.2,61.4L53.0,59.2L54.4,56.8L55.7,55.4L57.7,53.8L60.2,52.6Z M62.6,46.0L61.0,46.2L58.9,46.8L56.4,47.7L54.2,49.1L51.7,51.2L50.0,53.3L49.4,54.2L48.3,56.3L48.3,56.5L47.9,57.3L47.3,59.2L46.9,61.5L46.9,64.3L47.3,67.5L48.5,70.7L49.2,72.0L50.8,74.2L52.3,75.9L54.6,77.7L57.0,79.0L60.2,80.0L62.5,80.3L64.3,80.4L67.5,80.0L71.2,78.8L74.3,76.9L77.2,74.2L78.6,72.3L78.8,71.8L79.4,70.8L80.0,69.6L80.4,68.1L80.6,68.0L81.1,65.2L81.2,61.6L80.5,57.9L79.4,55.3L78.6,53.8L77.5,52.3L75.4,50.1L74.1,49.0L72.0,47.8L68.6,46.4L68.0,46.4L66.4,46.0Z M62.5,48.5L66.4,48.6L68.4,49.0L70.0,49.5L71.9,50.4L72.9,51.2L73.3,51.3L75.2,53.0L77.1,55.4L78.4,57.9L78.8,59.0L79.2,60.7L79.4,61.0L79.4,65.1L79.3,66.6L78.1,70.2L76.8,72.5L75.4,74.2L74.0,75.6L72.0,77.0L69.7,78.2L67.7,78.9L67.3,78.9L66.0,79.2L63.2,79.3L61.7,79.2L60.1,78.9L57.7,78.1L55.8,77.1L54.7,76.4L52.5,74.2L50.8,72.0L49.5,69.3L48.8,67.2L48.6,65.6L48.5,63.3L49.0,60.1L49.2,59.6L49.3,59.0L50.3,56.8L52.0,54.2L53.8,52.4L54.7,51.6L57.7,49.8L58.2,49.7L58.7,49.4L59.3,49.3L60.3,48.9Z M62.3,42.6L60.2,43.0L57.3,43.8L56.4,44.3L55.9,44.3L54.4,45.1L54.1,45.1L53.8,45.5L51.6,46.9L49.1,49.0L48.2,50.0L47.2,51.4L45.8,53.6L44.8,55.6L44.7,56.4L44.3,57.3L44.3,57.6L43.8,58.6L43.4,60.9L43.4,64.9L43.6,67.1L44.4,70.3L45.8,73.3L46.0,73.6L46.8,75.0L48.2,76.8L50.6,79.2L52.0,80.3L54.0,81.6L57.3,83.0L60.3,83.7L61.0,83.7L61.6,83.9L65.3,84.0L67.5,83.7L69.6,83.2L70.3,82.9L70.9,82.8L74.0,81.4L76.6,79.7L78.4,78.1L79.9,76.5L81.0,75.1L82.1,73.3L83.2,71.2L84.0,68.9L84.4,67.1L84.7,64.7L84.6,60.7L84.4,59.9L84.4,59.2L83.5,56.0L82.1,53.0L81.1,51.4L79.6,49.5L76.6,46.7L75.5,46.0L72.9,44.5L72.0,44.1L71.3,43.9L70.9,43.7L70.3,43.6L69.5,43.3L66.0,42.6Z M62.4,45.0L66.0,45.0L69.4,45.6L69.9,45.9L70.5,46.0L73.3,47.3L73.8,47.6L74.2,47.7L76.2,49.1L78.6,51.6L79.3,52.4L80.8,54.8L81.4,56.0L81.8,57.0L81.9,57.6L82.2,58.2L82.6,59.9L82.9,62.0L82.9,65.7L82.4,68.5L81.7,70.3L81.5,70.7L81.4,71.2L80.3,73.3L78.4,75.9L76.9,77.5L74.9,79.2L72.4,80.7L70.0,81.6L68.1,82.2L66.4,82.5L64.5,82.7L61.3,82.5L57.6,81.6L57.4,81.5L56.7,81.3L54.2,80.0L53.0,79.3L51.4,78.0L49.4,75.9L48.5,74.7L46.9,72.0L46.2,70.3L45.9,69.0L45.5,67.9L45.4,66.8L45.1,65.7L45.2,61.6L45.4,60.4L46.0,58.1L47.6,54.6L49.5,51.9L52.0,49.4L55.5,47.0L58.7,45.7Z M63.6,39.2L60.6,39.5L58.6,39.9L56.6,40.4L53.8,41.6L52.6,42.1L51.7,42.8L51.4,42.9L48.2,45.2L46.3,47.2L45.2,48.4L43.1,51.4L41.7,54.2L41.7,54.7L41.1,56.0L40.8,57.5L40.6,57.7L40.6,58.3L40.4,58.8L39.9,61.8L40.0,66.4L40.4,68.5L41.3,71.9L41.6,72.2L42.1,73.8L42.9,75.0L43.1,75.6L44.3,77.5L45.6,79.1L47.7,81.2L50.0,83.2L52.3,84.6L54.1,85.5L56.1,86.1L56.5,86.3L58.5,86.9L60.9,87.2L61.3,87.4L65.3,87.5L68.7,87.0L73.4,85.5L73.8,85.2L74.2,85.1L76.0,84.2L78.1,82.9L79.7,81.6L82.0,79.3L83.7,77.3L84.6,75.9L86.0,73.3L86.8,71.5L87.6,68.3L88.0,66.4L88.1,64.3L88.1,62.0L88.0,59.7L87.7,58.9L87.6,57.5L86.7,54.6L85.8,52.8L85.7,52.4L84.6,50.6L83.0,48.2L81.4,46.4L79.5,44.7L78.1,43.6L75.5,42.0L72.4,40.6L68.5,39.5L66.4,39.4L65.8,39.2Z M67.7,41.5L68.5,41.7L69.7,41.9L72.5,42.8L76.0,44.6L78.0,46.0L80.3,48.0L82.4,50.7L83.5,52.3L84.4,54.0L85.5,56.9L86.1,59.3L86.4,62.2L86.5,64.5L86.0,67.8L85.5,69.8L84.9,71.6L84.6,72.0L83.6,74.4L82.9,75.5L82.9,75.6L81.5,77.6L79.0,80.1L77.3,81.6L76.5,82.0L75.5,82.7L72.9,84.1L70.3,85.0L69.3,85.2L68.4,85.5L65.7,85.9L61.8,85.9L59.5,85.6L56.2,84.7L55.3,84.2L54.1,83.8L51.6,82.4L48.7,80.2L47.3,78.7L45.8,76.9L45.8,76.8L45.3,76.2L43.8,73.7L42.7,70.8L42.1,68.4L41.6,64.7L41.6,62.5L41.7,61.9L42.0,59.5L42.9,56.3L44.3,53.0L45.9,50.7L47.2,49.0L49.5,46.7L49.9,46.5L50.5,45.9L52.9,44.3L53.5,44.1L54.7,43.4L55.1,43.3L55.5,43.0L56.3,42.8L56.7,42.5L60.0,41.7L62.5,41.3L64.7,41.2Z M64.8,35.9L62.3,36.0L60.0,36.2L55.8,37.2L55.6,37.3L53.6,38.0L50.8,39.4L48.7,40.6L46.4,42.4L43.1,45.6L41.2,48.0L39.7,50.6L38.6,52.9L38.0,54.7L37.6,55.5L37.5,56.1L37.2,56.9L36.4,61.2L36.4,66.4L36.9,68.2L36.9,69.0L37.7,72.0L39.5,76.4L40.9,78.8L42.7,81.2L44.7,83.3L46.9,85.3L49.2,86.9L52.7,88.8L53.2,88.9L53.8,89.2L55.8,89.9L58.5,90.6L62.2,91.1L65.0,91.1L66.9,90.9L70.7,90.2L73.1,89.4L75.0,88.7L77.4,87.5L80.9,85.2L82.6,83.7L84.6,81.8L86.3,79.6L87.2,78.5L89.0,75.2L90.3,72.0L90.5,71.1L91.0,69.7L91.5,67.1L91.6,65.4L91.6,61.1L91.1,57.7L90.3,54.3L89.6,52.9L89.6,52.6L88.1,49.7L86.3,46.9L85.0,45.4L83.0,43.3L80.8,41.4L78.7,39.9L76.4,38.6L74.3,37.7L70.8,36.7L70.4,36.7L69.4,36.4L67.1,36.0Z M63.1,37.7L66.8,37.8L68.4,38.2L69.0,38.2L71.3,38.6L72.0,39.0L72.9,39.2L75.0,40.0L76.9,41.0L79.5,42.7L81.6,44.4L83.3,46.1L85.0,48.1L86.3,50.1L87.7,52.9L88.9,56.2L89.5,58.6L89.8,61.1L89.9,62.8L89.7,66.9L89.2,69.4L88.1,72.9L86.4,76.3L86.0,76.8L85.5,77.8L83.2,80.7L81.1,82.7L77.8,85.2L74.7,86.9L72.3,87.9L69.1,88.8L65.1,89.3L62.2,89.3L59.9,89.0L58.2,88.6L57.7,88.6L55.3,87.9L53.0,87.0L52.0,86.3L51.0,85.9L48.3,84.2L47.1,83.0L46.3,82.4L43.7,79.7L42.2,77.7L40.8,75.2L39.9,73.3L39.9,72.9L39.5,72.3L39.4,71.3L39.1,70.6L38.9,69.6L38.6,69.0L38.2,66.4L38.1,63.8L38.2,61.0L38.6,58.5L39.1,56.8L40.4,53.2L41.7,50.6L43.1,48.5L45.3,45.9L47.4,43.9L49.5,42.3L52.1,40.8L52.6,40.6L54.1,39.8L57.0,38.7L59.4,38.2Z M62.1,32.6L58.6,33.1L55.9,33.8L52.7,34.8L49.3,36.4L46.7,38.1L44.3,39.9L41.9,42.1L40.6,43.6L38.6,46.2L37.6,47.7L37.5,48.1L36.9,49.0L35.7,51.3L35.1,53.0L34.9,53.4L34.6,54.2L33.7,57.7L33.2,60.8L33.1,65.7L33.4,68.8L34.0,71.7L34.3,72.5L34.9,74.6L35.9,76.8L37.1,79.2L38.8,81.9L40.6,84.1L42.8,86.3L44.5,87.8L47.4,89.9L49.5,91.0L49.9,91.3L52.3,92.4L52.6,92.4L53.4,92.9L54.0,92.9L56.4,93.7L58.7,94.2L62.6,94.6L64.6,94.6L67.0,94.5L70.8,93.8L72.2,93.3L73.4,93.1L77.3,91.6L80.9,89.5L82.8,88.2L83.3,87.7L83.7,87.5L87.3,84.0L90.4,79.8L91.0,78.6L91.3,78.3L91.8,77.3L92.0,76.8L92.7,75.5L92.8,75.0L93.1,74.4L93.3,73.5L93.5,73.2L94.0,71.2L94.2,71.0L94.8,67.8L95.0,65.5L95.0,62.0L94.8,58.6L94.5,57.6L94.4,56.7L93.5,53.4L93.2,52.9L92.7,51.2L90.9,47.7L88.5,44.3L86.5,42.0L84.9,40.4L82.7,38.6L80.1,36.9L77.3,35.4L77.1,35.4L74.3,34.2L73.3,34.0L72.6,33.7L70.8,33.3L67.3,32.7Z M65.7,34.2L70.3,34.7L72.7,35.5L73.1,35.5L73.5,35.7L74.6,36.0L75.3,36.4L75.9,36.4L76.4,36.8L76.8,36.9L77.0,37.1L79.1,38.2L82.0,40.1L84.1,41.8L86.2,44.0L88.0,46.2L90.0,49.5L90.1,49.9L90.8,51.1L90.9,51.6L91.2,52.1L91.4,52.8L91.7,53.3L91.7,53.6L92.1,54.5L93.0,58.2L93.1,59.5L93.3,60.7L93.3,65.5L93.0,68.1L92.1,71.7L91.9,72.2L91.7,73.0L91.4,73.6L91.3,74.1L90.3,76.3L88.9,78.7L86.9,81.6L85.6,83.1L81.4,86.9L78.1,89.0L77.1,89.4L76.0,90.1L75.0,90.4L73.7,91.1L71.6,91.6L70.6,92.0L67.9,92.4L64.1,92.8L61.6,92.7L58.1,92.2L56.7,91.8L56.0,91.7L52.9,90.7L49.8,89.2L47.3,87.6L45.5,86.3L44.3,85.4L41.8,82.8L40.3,80.9L38.8,78.7L37.3,75.9L37.0,75.1L36.8,74.7L36.6,74.0L36.4,73.7L35.9,72.2L35.0,68.4L34.7,65.4L34.7,62.1L35.0,59.1L35.5,57.2L35.5,56.8L36.0,55.1L36.2,54.7L36.4,53.7L36.6,53.5L37.3,51.6L38.5,49.2L40.7,46.0L42.8,43.5L45.0,41.4L47.3,39.6L47.7,39.5L48.6,38.7L49.8,38.0L52.3,36.7L54.8,35.7L57.1,35.1L60.5,34.4L63.1,34.2Z M63.0,29.2L59.8,29.5L56.4,30.2L53.5,31.0L50.5,32.1L46.4,34.3L46.1,34.6L44.5,35.6L41.2,38.2L38.6,40.8L35.8,44.3L35.6,44.8L34.3,46.5L32.8,49.5L32.5,50.3L32.2,50.8L32.2,51.1L31.8,51.9L31.6,52.9L31.0,54.2L30.8,55.6L30.4,56.4L30.2,58.3L29.9,59.0L29.7,61.4L29.6,65.9L30.0,69.8L30.2,70.1L30.5,72.1L30.8,72.7L30.9,73.8L31.2,74.2L31.9,76.5L32.6,78.0L32.7,78.4L33.8,80.6L35.6,83.4L37.2,85.5L40.4,89.0L42.5,90.8L46.0,93.3L48.0,94.4L49.5,95.0L50.1,95.4L50.9,95.6L51.4,95.9L54.5,96.9L55.2,97.0L56.8,97.5L58.7,97.8L62.2,98.1L65.7,98.1L67.6,98.0L71.5,97.3L74.2,96.6L78.0,95.1L80.5,93.9L85.0,90.9L86.7,89.5L89.2,87.1L91.8,84.0L92.3,83.1L93.0,82.3L93.7,81.0L94.5,79.8L94.6,79.4L95.5,77.7L96.3,75.8L97.2,72.9L97.9,70.3L98.0,69.3L98.4,67.3L98.5,62.6L98.4,60.0L97.9,56.5L97.2,53.6L96.8,53.0L96.8,52.4L96.4,51.8L95.7,49.6L93.9,46.1L91.7,42.8L90.0,40.8L87.6,38.3L85.0,36.1L82.7,34.5L79.8,32.9L76.8,31.5L72.5,30.2L69.0,29.5L66.1,29.3Z M62.3,30.8L66.4,30.8L69.1,31.0L71.9,31.5L72.6,31.8L73.3,31.9L74.0,32.2L74.9,32.4L75.3,32.6L77.2,33.3L77.5,33.5L78.1,33.7L80.8,35.1L84.6,37.6L88.3,41.1L90.1,43.2L91.5,45.1L93.4,48.5L94.0,49.7L94.0,49.9L94.4,50.6L94.6,51.2L94.8,51.6L95.7,54.3L96.6,58.7L96.8,61.6L96.8,64.5L96.4,68.6L95.8,71.4L94.8,74.5L94.6,74.8L94.5,75.3L93.3,78.0L92.4,79.4L92.2,79.9L90.7,82.1L88.4,85.0L85.9,87.5L83.7,89.4L80.6,91.5L78.0,92.9L77.6,92.9L75.5,93.9L72.6,94.9L68.9,95.7L64.8,96.1L61.3,96.0L60.7,95.9L59.2,95.8L57.4,95.4L56.8,95.4L56.0,95.0L54.5,94.8L52.3,94.1L48.7,92.4L46.9,91.4L43.4,88.9L41.6,87.4L39.4,85.1L37.6,82.9L35.0,78.9L34.3,77.3L34.0,76.8L34.0,76.6L33.1,74.6L33.0,73.8L32.3,72.0L31.6,68.5L31.2,65.1L31.2,62.5L31.6,59.1L32.3,55.5L33.2,52.6L34.0,50.9L34.1,50.4L35.9,47.0L36.2,46.7L36.6,45.9L37.7,44.3L40.0,41.5L42.4,39.1L43.9,37.8L46.2,36.2L49.4,34.3L52.9,32.8L53.8,32.5L54.0,32.4L54.7,32.3L55.9,31.8L58.5,31.2Z M66.8,26.0L65.1,25.9L60.6,26.0L58.6,26.5L57.1,26.6L52.3,27.9L51.4,28.3L50.0,28.7L49.5,29.1L48.2,29.5L46.1,30.6L45.9,30.8L45.4,31.0L44.9,31.4L44.2,31.7L43.5,32.3L40.6,34.3L38.3,36.3L35.1,39.7L33.3,42.0L30.9,45.7L29.1,49.5L27.7,53.4L26.9,56.7L26.2,61.6L26.1,65.8L26.3,68.1L26.5,68.6L26.5,69.5L26.6,69.9L26.9,71.9L27.1,72.5L27.3,73.7L27.5,74.2L27.8,75.6L28.0,75.8L28.3,77.0L29.1,78.5L29.1,78.8L29.4,79.3L30.4,81.7L30.7,82.0L30.8,82.4L32.4,85.0L34.7,88.1L37.9,91.5L39.9,93.3L41.5,94.5L42.0,94.7L42.8,95.5L43.1,95.5L43.6,95.9L45.7,97.2L49.8,99.1L52.9,100.2L55.8,100.9L58.5,101.4L59.4,101.4L61.7,101.7L65.5,101.7L69.4,101.3L74.1,100.3L77.0,99.4L77.9,98.9L78.6,98.8L82.2,97.0L86.8,94.1L90.7,90.7L93.3,87.8L95.3,85.1L96.7,83.0L96.8,82.7L97.1,82.4L97.2,81.8L98.1,80.3L98.6,79.0L99.0,78.4L99.1,77.9L99.4,77.3L99.6,76.6L99.8,76.4L100.0,75.5L100.2,75.1L101.3,70.9L101.6,69.3L101.9,66.9L102.0,63.3L101.8,59.1L101.1,55.1L100.9,54.7L100.8,53.9L100.4,52.9L100.3,52.2L98.9,48.5L98.6,48.1L98.6,47.7L97.6,45.6L96.8,44.6L96.2,43.3L95.9,43.0L94.4,40.7L92.0,37.8L89.9,35.8L87.8,34.0L85.0,32.0L83.9,31.4L82.0,30.2L79.1,28.8L75.0,27.3L71.5,26.5Z M66.4,27.1L69.6,27.4L72.4,27.9L74.0,28.3L74.4,28.6L75.5,28.7L76.0,29.1L76.8,29.2L79.8,30.4L83.4,32.4L83.7,32.7L86.3,34.4L89.0,36.7L91.6,39.4L94.4,43.0L96.2,46.0L96.3,46.5L97.6,48.9L98.5,51.2L98.5,51.8L98.9,52.5L99.0,53.4L99.4,54.2L100.2,58.8L100.4,62.7L100.3,64.9L100.0,68.4L99.0,72.9L98.2,75.1L98.1,75.6L96.7,79.0L95.9,80.3L95.7,80.7L95.1,81.5L94.8,82.2L93.2,84.6L90.5,87.8L88.2,90.0L84.9,92.7L82.8,94.1L79.2,96.0L77.6,96.6L77.2,96.9L73.3,98.1L69.3,99.0L65.4,99.4L62.0,99.4L58.1,99.0L54.1,98.1L50.3,96.9L49.9,96.6L47.5,95.6L45.6,94.6L42.3,92.4L39.3,89.9L36.4,86.9L34.6,84.6L32.7,81.8L32.5,81.3L32.3,81.1L31.2,79.0L31.2,78.8L30.8,78.1L30.8,77.7L30.5,77.5L29.9,75.5L29.6,75.1L29.5,74.2L29.1,73.3L28.4,69.9L28.2,69.7L27.8,66.3L27.8,62.4L28.0,59.5L28.2,59.0L28.2,58.1L29.1,53.8L30.2,50.6L30.9,49.2L31.4,47.8L32.1,46.9L32.8,45.3L34.9,42.1L37.7,38.8L40.7,36.0L44.9,32.8L45.4,32.6L46.3,32.0L48.7,30.7L51.8,29.4L56.0,28.1L57.9,27.7L59.0,27.6L59.4,27.4L61.3,27.2Z M65.5,22.6L61.0,22.7L57.2,23.2L52.3,24.4L49.3,25.5L45.0,27.4L43.3,28.6L42.0,29.2L37.8,32.3L36.2,33.8L33.8,36.2L30.8,39.7L29.1,42.3L26.5,47.0L26.5,47.4L25.4,49.7L24.8,51.7L24.2,53.4L23.9,54.8L23.8,55.1L23.0,60.1L22.7,64.6L23.0,69.2L23.7,73.4L24.5,76.4L25.9,80.2L28.1,84.6L29.8,87.3L31.2,89.3L32.2,90.4L32.7,91.1L35.7,94.2L38.6,96.7L39.1,96.9L39.9,97.6L41.0,98.5L41.6,98.7L42.1,99.2L45.8,101.1L48.6,102.4L52.4,103.7L55.8,104.5L58.8,105.0L63.7,105.3L67.7,105.0L71.8,104.5L72.8,104.1L74.2,103.9L76.8,103.2L77.3,102.8L78.4,102.6L82.8,100.7L83.2,100.3L83.7,100.2L85.9,98.9L86.3,98.5L88.5,97.2L92.3,94.0L95.4,90.8L97.8,87.6L99.8,84.5L100.0,84.0L100.8,82.8L101.3,81.6L101.7,80.9L102.3,79.4L102.4,79.2L102.7,78.3L103.0,77.8L103.1,77.2L103.5,76.4L104.0,74.2L104.3,73.4L104.6,71.8L105.0,70.3L105.4,65.2L105.4,62.1L105.1,58.1L104.5,54.9L104.5,54.4L103.0,49.5L102.8,49.0L102.1,47.1L101.2,45.5L100.7,44.3L100.5,44.0L99.7,42.5L97.2,38.8L95.0,36.2L92.2,33.3L88.1,30.0L85.4,28.2L84.7,28.0L81.6,26.3L79.0,25.2L77.2,24.6L72.7,23.4L68.7,22.8Z M70.5,23.9L72.9,24.5L74.1,24.7L74.6,24.9L74.9,24.9L78.5,26.0L79.0,26.4L79.8,26.5L80.1,26.8L80.9,27.0L84.6,29.0L87.2,30.7L91.1,33.8L93.8,36.5L95.8,38.9L97.4,41.2L99.4,44.7L101.6,49.7L101.7,50.3L102.4,52.4L102.7,53.8L103.2,55.5L103.7,60.2L103.7,65.4L103.4,68.5L103.3,68.9L103.0,70.7L102.8,71.3L102.4,73.3L101.1,77.0L100.9,77.3L100.7,78.1L100.3,78.7L100.3,79.0L98.9,81.9L98.5,82.2L98.5,82.6L98.1,82.9L97.6,83.9L95.0,87.6L92.4,90.6L89.5,93.3L86.4,95.6L82.8,97.9L82.4,98.0L80.1,99.2L79.4,99.4L79.2,99.6L78.8,99.7L78.3,100.0L76.8,100.4L75.5,101.0L74.7,101.1L74.2,101.3L71.9,101.9L68.4,102.4L65.8,102.7L60.4,102.6L59.9,102.4L56.9,102.1L56.6,102.0L53.8,101.5L52.5,101.0L51.6,100.8L49.7,100.0L49.0,99.8L46.9,98.9L45.8,98.3L45.3,98.1L44.9,97.8L42.9,96.8L41.7,95.9L41.5,95.9L38.5,93.6L35.0,90.3L33.2,88.2L31.1,85.4L29.1,82.0L27.3,78.3L27.2,77.8L26.9,77.3L26.7,76.4L26.0,74.6L25.9,73.8L25.5,72.6L25.2,71.0L25.1,70.7L24.7,67.7L24.4,64.2L24.6,60.0L25.1,56.4L26.0,53.0L26.0,52.5L26.2,52.2L26.4,51.4L26.5,51.2L27.3,49.0L29.1,45.1L29.3,44.8L29.5,44.2L30.3,43.1L30.6,42.4L32.1,40.4L32.7,39.4L34.9,36.8L37.8,33.8L41.5,30.9L41.7,30.9L43.3,29.7L47.7,27.3L50.3,26.3L50.4,26.1L53.1,25.2L53.8,25.2L54.7,24.7L56.6,24.4L57.2,24.2L57.9,24.2L58.4,24.0L61.6,23.6L65.1,23.5Z M62.2,19.3L58.2,19.7L57.5,20.0L56.8,20.0L54.6,20.4L50.5,21.6L49.0,22.2L46.9,22.9L42.4,25.2L39.8,26.9L39.6,26.9L35.6,29.9L31.8,33.4L29.5,36.1L27.8,38.2L26.0,41.0L23.7,45.2L23.6,45.6L22.4,48.2L21.0,52.4L20.8,53.4L20.0,56.8L19.4,61.6L19.3,66.3L19.7,70.9L20.0,71.6L20.0,72.1L20.4,74.6L20.8,75.5L20.9,76.5L21.3,77.2L21.5,78.3L21.7,78.7L22.2,80.3L22.6,80.8L22.8,81.7L23.4,82.9L23.5,83.4L24.5,85.4L26.0,87.6L26.1,88.1L28.7,91.8L31.0,94.5L33.4,96.9L36.5,99.6L40.4,102.2L44.7,104.6L47.7,105.9L48.5,106.0L49.0,106.3L52.0,107.2L56.8,108.2L57.5,108.2L60.9,108.7L65.2,108.8L70.3,108.3L74.2,107.6L77.5,106.7L81.4,105.2L85.5,103.3L89.2,101.0L91.4,99.4L92.0,98.7L92.9,98.1L96.9,94.3L100.7,89.7L102.6,86.7L104.8,82.6L104.9,82.1L105.2,81.6L105.9,80.0L106.3,78.4L106.6,78.1L108.0,72.9L108.1,71.7L108.5,69.9L108.9,66.4L108.9,61.3L108.4,56.4L108.1,55.7L107.6,52.9L106.7,49.5L106.3,49.0L105.8,47.1L105.4,46.6L105.3,46.0L104.6,44.5L104.5,44.1L103.6,42.4L103.2,41.9L103.0,41.3L102.7,41.0L102.6,40.7L100.6,37.6L97.6,34.0L94.8,31.1L91.3,28.2L88.6,26.3L88.5,26.3L85.8,24.6L82.1,22.8L80.1,22.0L77.7,21.3L77.2,21.0L76.5,20.9L73.9,20.2L71.0,19.7L68.6,19.5L67.9,19.4Z M62.9,20.0L67.7,20.1L72.0,20.6L72.9,20.9L73.8,21.0L74.7,21.3L76.2,21.6L76.9,21.9L77.6,22.0L78.5,22.4L79.0,22.5L79.4,22.7L80.1,22.9L83.3,24.3L84.3,24.9L86.6,26.0L90.5,28.6L92.8,30.5L95.5,33.2L98.2,36.3L101.2,40.7L101.4,41.2L102.2,42.4L103.2,44.3L104.8,48.3L106.1,52.7L106.6,54.9L107.2,60.9L107.2,65.6L106.6,70.3L105.8,73.8L105.3,75.1L104.7,77.2L103.0,81.2L101.2,84.6L98.9,88.1L97.4,90.0L96.7,90.7L96.6,91.0L94.8,92.9L91.1,96.3L86.8,99.4L83.0,101.5L80.0,102.8L75.5,104.4L70.8,105.4L67.0,105.9L63.0,106.0L58.1,105.7L57.7,105.5L56.6,105.4L56.2,105.3L54.1,105.0L51.2,104.2L46.9,102.6L43.6,101.1L39.7,98.7L35.9,95.8L33.4,93.5L31.7,91.7L28.6,87.8L25.9,83.3L24.9,81.3L24.0,79.0L23.6,78.3L23.5,77.7L23.3,77.3L23.0,75.9L22.7,75.5L22.6,74.8L22.2,73.8L22.1,72.9L21.9,72.3L21.8,71.4L21.5,70.2L21.0,65.1L21.1,60.7L21.8,55.2L22.1,54.2L22.4,52.9L22.7,52.1L22.7,51.6L23.9,48.0L24.5,46.9L24.6,46.4L25.0,45.8L25.1,45.3L25.4,44.9L26.9,42.0L27.7,40.8L28.2,39.9L30.5,36.6L32.6,34.2L35.6,31.2L39.3,28.2L39.7,28.1L41.8,26.5L42.3,26.4L43.5,25.6L44.5,25.2L45.9,24.3L46.3,24.3L46.9,23.9L49.0,23.0L53.3,21.6L54.3,21.4L55.9,20.9L58.6,20.4L59.4,20.4L60.4,20.2L62.0,20.2Z M88.2,14.7L88.3,14.9L88.8,14.8L88.5,14.7Z M45.0,13.0L45.1,13.2L45.5,13.1L45.5,13.0Z M44.0,13.5L40.1,15.2L39.7,15.5L38.3,16.1L38.0,16.5L37.4,16.6L37.1,16.9L36.6,17.1L35.7,17.8L35.2,17.9L35.1,18.2L34.6,18.3L34.2,18.7L33.3,19.2L30.2,21.5L27.1,24.2L22.6,28.9L19.4,32.9L17.0,36.4L16.7,37.3L16.1,38.2L13.8,42.8L13.2,44.4L12.8,45.1L12.7,45.6L12.4,46.1L12.3,46.8L11.8,47.8L11.7,48.5L11.0,50.7L10.4,52.9L9.5,58.6L9.5,59.8L9.3,60.5L9.3,61.9L9.1,63.2L9.3,69.8L9.6,71.5L9.7,73.1L10.5,77.2L10.8,78.0L11.0,79.1L11.3,79.8L12.1,82.4L12.2,82.6L13.3,85.7L15.8,90.9L16.9,92.9L17.4,93.4L17.7,94.2L20.6,98.3L24.0,102.3L26.3,104.6L28.8,106.7L29.1,107.1L32.3,109.4L32.6,109.5L34.3,110.7L37.2,112.4L42.1,114.8L42.5,114.9L44.6,115.8L48.7,117.1L53.3,118.1L53.9,118.1L56.0,118.5L56.8,118.5L58.2,118.9L62.0,119.1L65.0,119.1L71.6,118.5L75.9,117.7L79.7,116.7L85.5,114.7L87.1,113.9L87.3,113.9L91.0,112.0L95.9,108.9L100.2,105.4L104.1,101.8L107.0,98.5L109.3,95.5L109.5,94.9L110.3,93.8L112.6,90.0L114.0,87.2L114.9,85.0L115.2,84.6L115.4,83.8L116.2,82.0L116.3,81.3L116.5,80.8L116.5,80.4L116.7,80.0L117.2,78.3L117.5,77.6L117.6,76.4L118.0,75.6L118.9,69.3L119.2,63.6L118.9,58.1L118.0,52.5L116.7,47.2L114.8,42.1L112.7,37.7L110.6,34.3L108.0,30.5L107.7,30.4L105.4,27.3L102.2,24.1L102.0,24.0L99.2,21.5L96.8,19.6L95.8,19.2L95.7,18.9L94.8,18.4L94.6,18.6L94.8,18.6L95.9,19.3L97.1,20.4L97.5,20.5L98.4,21.4L100.2,22.8L101.4,24.1L101.8,24.3L101.9,24.6L102.7,25.2L105.8,28.7L107.0,30.3L109.2,33.4L110.2,35.4L111.1,36.5L111.5,37.7L112.4,39.2L112.4,39.5L113.3,41.2L114.2,43.4L115.4,46.9L115.4,47.5L115.7,48.0L115.8,48.6L116.1,49.5L116.2,50.2L116.5,51.2L116.6,52.2L117.1,54.7L117.2,57.2L117.4,57.7L117.4,59.3L117.6,60.7L117.6,63.8L117.1,69.8L116.7,71.5L116.5,72.9L116.3,73.5L115.6,76.6L113.8,81.9L113.5,82.4L112.4,85.2L110.2,89.4L109.7,89.9L108.1,92.5L106.3,94.8L105.9,95.6L104.0,97.8L101.1,100.9L99.8,102.0L98.5,103.2L98.3,103.3L95.8,105.4L94.8,105.9L94.0,106.7L93.4,106.9L92.5,107.6L92.3,107.6L90.8,108.5L90.5,108.4L91.6,107.7L92.6,106.9L94.5,105.7L95.3,105.0L96.6,104.1L99.8,101.2L103.7,97.1L106.2,93.8L108.5,90.3L109.8,88.1L110.3,86.7L110.6,86.3L110.8,85.7L111.5,84.3L112.1,82.6L112.4,82.0L112.6,81.3L113.0,80.6L113.0,80.3L113.2,79.8L113.3,79.1L114.0,77.2L114.0,76.8L114.2,76.3L114.5,74.7L114.8,73.8L115.3,70.9L115.6,68.0L115.7,61.6L115.3,56.4L115.1,56.0L114.6,53.0L113.4,48.3L112.7,46.4L112.5,45.7L111.5,43.3L111.3,43.0L111.2,42.5L108.9,38.1L106.7,34.5L103.7,30.7L99.4,26.1L98.3,25.2L94.4,22.1L93.2,21.3L92.6,20.8L91.7,20.4L90.7,19.6L89.6,19.1L89.3,18.8L88.7,18.7L88.3,18.3L87.4,18.0L86.1,17.3L85.7,17.2L85.3,16.9L81.0,15.2L76.4,13.9L71.6,13.0L66.5,12.6L60.8,12.7L56.5,13.2L51.4,14.3L45.2,16.5L41.8,18.0L36.4,21.1L32.5,23.9L29.2,26.8L26.2,29.8L23.2,33.4L21.9,35.1L19.7,38.6L17.4,43.0L16.9,44.4L16.5,45.1L16.3,45.7L15.9,46.5L15.7,47.3L15.4,47.8L15.1,49.2L14.7,50.1L14.6,50.8L14.2,51.9L14.0,52.9L13.6,54.2L12.7,60.0L12.6,62.2L12.6,66.8L12.8,70.7L13.1,72.9L13.4,73.7L13.7,75.8L14.3,78.1L14.5,78.5L14.6,79.3L14.9,79.8L15.1,80.7L15.8,82.9L16.7,84.8L16.9,85.5L18.7,89.2L21.4,93.7L24.0,97.1L28.0,101.4L28.5,101.7L29.1,102.4L32.1,105.0L33.5,106.0L33.5,106.3L33.3,106.3L33.0,106.1L32.7,105.8L32.4,105.8L32.2,105.5L30.6,104.4L30.0,103.7L29.7,103.7L29.4,103.3L28.2,102.4L26.1,100.4L23.1,97.1L21.7,95.4L19.5,92.3L18.4,90.3L17.8,89.4L16.3,86.5L15.8,85.3L15.5,84.9L15.3,84.2L14.6,82.7L14.2,81.3L13.8,80.5L13.5,79.5L13.1,78.8L13.1,78.4L12.9,77.9L12.0,74.3L11.9,73.3L11.5,71.7L11.4,70.4L11.1,68.9L10.8,65.7L10.8,60.8L11.0,60.0L11.1,58.0L11.3,57.5L11.5,55.1L12.6,49.6L13.1,48.2L13.1,47.9L14.0,45.6L14.3,44.6L14.9,43.3L15.6,41.5L17.1,38.3L17.7,37.5L18.9,35.2L21.0,32.1L21.3,31.9L21.7,31.1L23.8,28.6L26.0,26.1L29.6,22.6L30.4,22.1L31.0,21.5L33.2,20.0L34.0,19.2L34.4,19.1L35.4,18.2L35.7,18.2L37.4,16.9L37.9,16.9L39.1,16.0L40.7,15.3L42.0,14.5L42.4,14.4L43.5,13.9L44.0,13.8L44.2,13.6L44.2,13.5Z M90.1,108.5L90.5,108.6L90.3,108.9Z M35.1,107.3L35.3,107.6L35.0,107.5Z M34.4,106.8L34.7,107.1L34.3,107.0Z M33.8,106.4L34.0,106.7L33.8,106.6Z M62.4,16.5L67.1,16.5L71.3,16.9L76.1,17.9L81.7,19.7L86.8,22.1L90.4,24.3L90.8,24.7L91.8,25.2L93.5,26.5L95.9,28.6L98.9,31.7L100.5,33.4L101.0,34.3L101.9,35.3L104.9,40.0L106.6,43.4L108.4,47.9L108.5,48.7L108.8,49.1L108.9,49.8L109.3,50.9L109.4,52.1L109.8,53.0L110.6,58.4L110.7,62.5L110.5,67.3L109.8,71.6L108.9,75.5L108.5,76.1L108.4,77.0L108.0,77.7L108.0,78.3L107.7,78.7L107.6,79.4L105.7,83.5L104.1,86.4L102.3,89.2L99.8,92.4L98.2,94.2L94.7,97.6L91.3,100.4L88.2,102.4L85.0,104.2L83.9,104.7L83.3,105.1L82.4,105.4L80.1,106.4L77.7,107.2L77.1,107.3L76.5,107.6L73.0,108.5L68.4,109.1L66.4,109.2L65.4,109.3L63.0,109.3L61.8,109.2L59.2,109.1L56.0,108.7L55.6,108.5L55.1,108.5L52.4,108.0L47.4,106.4L43.8,104.9L41.2,103.6L39.2,102.4L35.8,100.0L32.1,96.8L28.2,92.8L25.9,89.7L23.6,86.1L21.9,82.8L21.2,80.8L20.9,80.5L20.8,80.0L20.5,79.4L20.4,78.6L20.1,78.2L19.5,75.9L19.2,75.5L19.1,74.7L18.7,73.2L18.5,71.8L18.2,71.2L18.0,68.6L17.8,68.0L17.8,65.2L17.6,63.9L17.8,60.0L18.1,58.1L18.2,56.0L19.1,52.0L20.5,47.4L22.2,43.4L24.1,39.9L26.0,37.0L27.3,35.2L30.5,31.4L33.7,28.3L36.7,25.9L40.5,23.3L44.9,20.9L45.3,20.8L47.6,19.8L48.3,19.6L48.8,19.3L52.5,18.2L56.7,17.2L59.0,16.9L59.4,16.8Z M62.1,13.0L68.8,13.1L71.8,13.5L76.2,14.3L77.2,14.7L77.7,14.7L78.9,15.1L79.5,15.2L81.7,16.1L82.8,16.3L83.7,16.8L84.6,17.0L86.3,17.8L89.2,19.5L89.7,19.6L90.2,20.0L91.4,20.5L92.0,21.2L92.5,21.4L95.6,23.7L98.3,26.0L101.9,29.7L104.6,33.1L107.5,37.5L109.3,41.1L109.4,41.5L110.2,42.9L110.2,43.4L111.2,45.5L112.5,49.8L113.3,53.3L113.6,55.6L113.8,56.5L113.9,59.0L114.1,59.9L114.1,65.5L113.7,69.2L113.3,70.8L113.3,71.6L113.1,72.0L112.4,75.1L112.1,75.9L111.9,77.0L111.3,78.6L111.2,79.2L108.9,84.6L108.5,85.0L108.1,86.0L106.6,88.7L104.6,91.7L101.7,95.3L99.9,97.2L97.2,99.9L94.0,102.5L91.3,104.4L91.0,104.5L90.6,104.9L86.3,107.3L85.9,107.4L83.3,108.7L80.3,109.8L76.9,110.7L76.7,110.9L75.9,111.0L75.4,111.2L74.8,111.2L74.2,111.5L73.6,111.5L73.0,111.7L72.1,111.7L72.0,111.9L71.4,111.9L70.8,112.1L69.7,112.1L69.2,112.3L67.7,112.4L67.3,112.5L63.8,112.6L59.6,112.4L56.5,112.0L56.0,111.6L56.8,111.6L57.7,111.9L58.6,111.9L60.2,112.1L61.8,112.1L62.9,112.3L68.8,112.0L69.5,111.8L71.7,111.6L72.7,111.3L74.1,111.1L74.3,111.0L75.5,110.8L76.4,110.5L76.9,110.5L77.4,110.2L78.5,110.0L79.3,109.6L79.8,109.5L81.7,108.7L82.2,108.6L82.9,108.2L83.2,108.2L85.7,106.9L86.8,106.5L87.0,106.3L88.9,105.2L89.3,104.9L90.3,104.4L93.6,102.0L97.1,99.0L101.5,94.2L105.3,88.9L105.4,88.5L105.7,88.2L106.7,86.1L107.2,85.5L107.2,85.1L108.5,82.8L108.5,82.3L108.9,81.8L109.0,81.1L109.3,80.7L110.2,77.7L110.2,77.4L110.8,75.7L110.9,75.0L111.1,74.7L111.3,73.0L111.5,72.7L111.8,71.0L112.2,67.3L112.2,60.1L111.8,56.5L111.2,53.4L110.8,52.2L110.2,49.7L110.0,49.3L109.8,48.2L108.9,45.8L108.0,44.2L107.9,43.5L105.9,39.7L104.2,37.0L101.3,33.1L98.9,30.5L96.3,27.9L94.0,26.0L93.7,26.0L93.3,25.5L91.8,24.5L90.9,23.8L88.6,22.4L86.4,21.3L85.8,20.8L84.8,20.5L83.1,19.6L82.6,19.5L81.6,19.1L76.2,17.4L71.6,16.5L69.0,16.1L66.1,16.0L62.2,16.0L59.1,16.2L55.7,16.8L54.1,17.2L53.6,17.2L53.1,17.4L51.6,17.8L47.7,19.1L45.6,20.0L43.9,20.7L41.4,22.0L39.6,23.1L39.1,23.3L36.4,25.1L34.3,26.8L30.9,29.7L26.7,34.3L24.7,37.0L23.9,38.4L23.5,38.7L23.3,39.3L23.0,39.6L20.5,44.2L20.4,44.6L20.1,45.1L19.9,45.9L19.1,47.6L18.2,50.0L18.0,51.2L17.8,51.6L17.7,52.4L16.9,54.9L16.2,59.4L16.1,61.2L16.0,66.3L16.1,68.7L16.2,69.4L16.3,70.8L17.2,75.6L18.1,78.5L18.2,79.2L18.7,80.3L19.4,82.5L20.8,85.6L21.2,86.2L22.6,89.0L24.3,91.7L27.0,95.2L30.7,99.1L33.4,101.5L35.7,103.3L39.5,105.8L40.2,106.0L41.9,107.1L42.6,107.3L43.9,108.0L44.3,108.0L46.4,109.0L48.7,109.8L49.2,110.1L49.8,110.1L50.5,110.4L52.1,110.7L52.7,111.0L54.5,111.2L55.2,111.5L55.7,111.9L53.7,111.6L53.4,111.5L51.8,111.2L49.5,110.6L49.0,110.3L48.5,110.2L45.1,109.1L44.5,108.7L43.1,108.2L42.5,107.8L40.7,107.1L39.7,106.4L37.7,105.4L34.2,103.0L31.5,100.9L29.6,99.2L26.8,96.3L24.3,93.3L22.6,90.8L21.8,89.5L21.5,89.2L20.0,86.6L19.1,84.8L18.1,82.2L17.8,81.7L17.6,80.9L17.4,80.6L16.9,79.3L16.7,78.5L16.5,78.1L15.5,74.5L15.4,73.6L15.2,73.2L15.2,72.5L14.5,68.9L14.4,66.8L14.3,66.0L14.3,61.2L14.9,55.4L15.6,52.1L15.8,51.5L16.4,49.0L16.6,48.6L16.8,47.7L17.2,46.9L17.4,46.1L17.7,45.6L17.8,45.1L18.6,43.4L18.7,43.0L20.6,39.1L22.9,35.4L23.3,35.0L24.7,33.0L26.9,30.3L30.2,26.9L32.1,25.1L34.3,23.4L38.1,20.7L41.2,19.0L41.4,18.7L41.8,18.7L43.0,18.1L43.2,17.8L43.8,17.7L45.1,17.0L45.6,16.9L46.9,16.3L47.1,16.3L48.6,15.6L49.0,15.6L54.2,14.1L56.9,13.7L58.2,13.4Z M46.8,12.6L46.7,12.5L46.2,12.7Z M48.0,12.1L47.3,12.1L47.3,12.3L48.0,12.2Z M67.9,9.5L67.8,9.4L65.1,9.2L64.8,9.4L63.8,9.4L62.5,9.1L61.4,9.3L60.1,9.3L58.8,9.6L56.8,9.5L55.8,10.0L55.1,10.1L53.7,10.5L52.8,10.6L52.6,10.8L52.2,10.8L51.6,11.0L51.2,11.0L49.0,11.7L50.6,11.5L51.1,11.3L52.1,11.1L53.2,10.7L54.2,10.6L54.4,10.4L56.2,10.2L56.4,10.0L58.9,9.8L59.5,9.5Z" fill="#000" fill-rule="evenodd"/>
</svg>