<svg xmlns="http://www.w3.org/2000/svg" viewBox="0 0 128 128" width="128" height="128">
  <path d="M10.0,9.6L9.6,10.0L9.5,10.5L9.4,15.7L9.6,19.3L9.5,33.0L9.9,67.5L9.9,111.0L10.0,117.4L10.1,118.4L10.7,118.9L30.9,118.9L32.5,118.9L33.2,118.7L34.8,118.9L74.2,118.9L88.5,118.8L116.0,118.9L118.3,118.6L118.8,118.0L118.9,116.0L118.7,113.6L118.8,97.2L118.6,86.6L118.7,82.5L118.5,78.6L118.6,73.9L118.4,67.2L118.5,51.4L118.3,47.5L118.4,45.7L118.1,33.3L118.1,14.2L118.0,11.0L117.9,10.2L117.4,9.9L114.4,9.9L111.6,9.7L73.8,9.7L49.2,9.4L29.5,9.4Z M49.8,62.6L50.2,62.5L50.3,62.7L50.7,63.7L51.6,65.0L52.2,65.8L54.3,67.6L55.7,68.2L57.1,68.7L59.1,69.1L100.3,69.1L106.2,69.2L107.8,69.4L108.4,70.1L108.6,80.0L108.8,105.3L108.7,107.5L108.5,107.9L107.9,108.3L104.2,108.5L86.5,108.5L83.6,108.7L72.1,108.8L64.2,108.7L60.2,108.9L52.0,108.9L50.5,108.7L50.1,108.2L49.9,107.2L49.9,100.6L49.7,97.8L49.7,77.1L49.5,66.8Z M45.9,49.6L46.2,49.9L45.9,50.2L44.5,50.8L44.0,51.2L43.4,51.5L41.8,53.0L40.5,55.1L40.0,56.4L39.6,58.0L39.5,91.4L39.7,98.4L39.5,100.6L39.5,108.2L39.2,108.7L38.4,108.9L27.5,109.1L21.0,109.0L20.6,108.8L20.3,107.9L20.1,103.1L20.2,95.1L20.0,88.2L20.0,50.7L20.5,49.9L21.0,49.7L24.1,49.8L25.3,49.6L28.5,49.7L35.8,49.5Z M49.7,50.0L50.1,49.6L51.1,49.4L58.4,49.4L59.0,49.6L59.4,50.1L59.4,51.7L59.4,58.6L58.8,59.1L50.2,59.0L49.6,58.3L49.5,56.7L49.5,50.7Z M20.2,20.4L20.6,20.0L20.9,19.9L29.4,19.7L36.4,19.8L42.1,19.6L56.3,19.6L58.2,19.8L58.9,20.3L59.0,20.6L59.3,34.6L59.2,45.6L58.8,45.7L58.2,45.1L57.5,43.8L55.8,42.1L54.6,41.1L53.5,40.4L52.1,39.9L50.3,39.5L44.9,39.5L43.2,39.3L21.7,39.3L20.7,39.1L20.3,38.6L20.0,37.4L20.0,21.2Z M69.6,19.9L70.0,19.7L76.7,19.5L106.9,19.5L107.5,19.7L107.9,20.1L108.1,25.3L108.1,37.1L108.3,40.9L108.3,51.1L108.5,56.4L108.3,58.4L108.0,58.7L107.3,59.0L102.5,58.9L101.5,59.1L63.2,59.1L62.9,58.9L62.8,58.6L63.1,58.4L63.9,58.1L65.5,57.0L67.2,55.3L68.5,53.3L69.1,51.3L69.2,21.0L69.3,20.3Z" fill="#000" fill-rule="evenodd"/>
</svg>