<svg xmlns="http://www.w3.org/2000/svg" viewBox="0 0 128 128" width="128" height="128">
  <path d="M58.1,33.6L57.9,33.7L57.7,34.1L57.6,38.2L57.8,49.6L57.7,69.4L57.9,94.2L58.2,94.6L58.5,94.7L69.5,94.6L70.0,94.2L70.0,93.3L70.0,34.0L69.6,33.7L69.1,33.6Z M33.5,33.7L33.1,34.1L33.1,52.7L33.3,60.4L33.3,73.0L33.5,81.4L33.4,84.3L33.6,86.8L33.6,94.0L33.7,94.4L34.0,94.8L45.0,94.8L45.5,94.5L45.6,94.1L45.4,67.5L45.2,61.9L45.3,58.9L45.1,34.2L45.0,33.9L44.6,33.7Z M82.7,33.5L82.2,33.7L82.1,34.2L82.1,92.7L82.3,94.2L82.6,94.4L93.5,94.3L93.9,94.2L94.0,93.9L94.1,90.5L94.0,89.6L94.2,77.0L94.3,38.2L94.2,33.9L93.9,33.7L93.2,33.6Z M9.6,10.2L9.4,39.2L9.4,106.3L9.6,117.9L9.6,118.4L10.0,118.7L51.1,118.8L55.6,118.6L79.2,118.5L80.9,118.4L85.3,118.4L95.7,118.2L108.8,118.2L117.3,118.0L117.7,117.8L117.9,117.4L117.9,110.0L118.2,98.7L118.1,96.2L118.3,92.7L118.2,89.7L118.4,70.0L118.4,54.9L118.7,38.1L118.7,18.8L118.9,10.3L118.5,9.7L86.2,9.6L78.1,9.6L68.0,9.5L28.5,9.5L12.7,9.6L9.9,9.8Z M21.5,21.6L24.4,21.6L27.2,21.4L60.5,21.1L102.8,21.1L106.2,21.2L106.6,21.5L106.7,29.1L106.5,34.8L106.6,40.3L106.3,71.7L106.4,76.8L106.3,105.3L106.2,105.8L105.8,106.3L98.7,106.4L90.3,106.4L81.3,106.7L65.6,106.7L62.0,106.9L58.4,106.8L55.0,107.0L52.0,106.8L49.8,107.0L30.5,106.8L23.0,106.9L21.9,106.8L21.7,106.5L21.5,105.5L21.3,94.5L21.4,92.6L21.1,70.8L21.2,60.4L21.0,55.2L21.1,36.3L20.9,24.9L21.0,22.1Z" fill="#000" fill-rule="evenodd"/>
</svg>