<svg xmlns="http://www.w3.org/2000/svg" viewBox="0 0 128 128" width="128" height="128">
  <path d="M10.5,77.5L10.2,78.6L10.3,92.7L10.1,94.8L10.1,116.6L10.2,117.5L10.9,118.2L12.8,118.4L17.4,118.3L38.5,118.6L47.6,118.6L53.5,118.4L57.5,118.6L85.8,118.6L93.0,118.8L115.2,118.9L117.4,118.6L117.9,118.1L117.9,104.0L118.1,92.1L117.9,75.3L118.0,55.6L117.8,55.1L117.1,55.1L114.4,57.5L109.0,63.0L107.6,64.2L106.5,65.5L106.0,66.4L105.8,76.1L105.9,104.0L105.7,105.5L105.1,106.2L104.3,106.5L98.8,106.6L81.9,106.4L77.4,106.5L60.6,106.2L52.1,106.2L46.2,106.4L31.5,106.4L24.1,106.2L23.1,105.9L22.7,105.4L22.4,104.5L22.3,102.6L22.4,84.2L22.6,82.6L22.8,82.1L23.9,80.9L30.0,74.9L35.8,69.0L36.4,68.6L37.0,67.9L55.1,49.7L59.4,45.2L63.0,41.8L63.7,41.5L64.4,41.6L66.0,42.8L69.1,46.2L72.1,49.1L74.9,52.1L75.6,53.2L75.5,53.9L74.8,55.0L57.9,71.9L56.1,74.0L56.1,74.9L56.8,76.0L61.4,80.7L63.4,82.5L64.4,82.5L65.5,81.5L71.2,75.8L72.2,74.9L76.8,70.0L91.4,55.5L92.7,53.9L92.7,53.0L92.3,52.2L88.2,48.3L87.5,47.3L84.4,44.3L83.6,43.7L83.2,43.1L81.0,41.0L76.9,36.6L74.7,34.6L73.9,33.6L69.2,29.0L65.7,25.2L64.3,24.0L63.7,24.0L63.3,24.2L56.9,30.4L45.6,42.0L44.6,42.8L23.7,64.0L23.1,64.4L17.6,70.1L11.4,76.1Z M42.2,110.5L42.6,110.6L42.7,111.0L42.4,111.5L41.8,111.4L41.7,110.9Z M10.6,9.9L10.3,11.2L10.2,16.8L10.2,69.8L10.3,71.5L10.5,72.0L10.9,72.3L11.5,72.0L17.9,65.8L21.3,62.4L22.2,61.2L22.4,58.3L22.3,46.5L22.5,40.7L22.3,39.0L22.3,23.6L22.6,22.5L23.0,21.9L23.9,21.6L24.9,21.5L42.6,21.7L49.9,21.6L61.2,21.8L73.1,21.7L74.9,21.9L97.7,21.9L104.0,22.0L105.3,22.3L105.9,22.9L106.1,23.6L106.2,26.3L106.0,37.4L106.1,41.2L105.9,42.5L105.9,44.1L105.4,45.2L104.1,46.7L95.9,54.9L94.5,56.1L93.5,57.3L87.3,63.4L85.2,65.7L78.3,72.4L76.0,74.9L68.5,82.4L67.9,83.2L64.9,85.9L64.0,86.3L63.6,86.3L62.1,85.3L54.1,77.1L53.6,76.4L52.9,75.8L52.1,74.6L52.1,74.1L53.0,72.9L67.2,58.6L67.6,58.1L70.6,55.1L71.5,53.9L71.6,53.1L70.3,51.2L64.8,45.6L64.3,45.4L63.6,45.4L63.2,45.5L61.3,47.3L46.4,62.5L40.5,68.2L35.2,73.9L35.0,74.3L35.0,75.0L36.7,77.1L53.7,94.2L54.2,94.9L59.5,100.1L61.6,102.3L62.8,103.5L63.5,103.9L64.1,103.8L64.8,103.4L68.1,100.1L70.9,97.2L81.2,86.8L81.9,85.9L84.1,84.0L86.1,81.7L88.7,79.4L91.9,76.0L112.1,55.8L117.5,50.2L118.0,49.0L118.1,39.5L118.1,11.3L117.9,10.7L117.3,10.2L113.7,10.0L100.1,10.0L97.2,9.8L90.5,9.9L85.9,9.8L79.3,9.8L68.4,9.7L40.7,9.7L23.1,9.4L12.3,9.4L11.0,9.6Z" fill="#000" fill-rule="evenodd"/>
</svg>