<svg xmlns="http://www.w3.org/2000/svg" viewBox="0 0 128 128" width="128" height="128">
  <path d="M10.4,65.5L10.1,65.8L10.0,66.6L10.0,79.3L9.8,86.0L9.8,102.3L10.0,102.6L10.6,102.8L23.9,102.7L24.4,102.4L24.5,69.3L24.6,67.0L24.7,66.8L25.1,66.7L25.5,66.9L29.1,70.4L58.2,99.5L59.2,100.3L61.6,102.9L61.2,103.3L59.0,103.4L40.0,103.3L25.6,103.5L25.3,103.8L25.2,104.1L25.2,118.5L25.7,118.9L57.1,118.9L62.5,118.7L62.8,118.3L62.8,84.4L62.7,82.5L62.5,82.1L45.6,65.4L21.8,65.3Z M118.4,65.2L117.6,65.0L99.1,65.0L87.1,65.2L82.5,65.1L81.6,65.7L75.6,71.6L72.5,74.9L65.2,82.2L65.0,82.6L64.9,91.3L65.1,97.1L65.1,118.3L65.6,118.8L98.8,118.8L102.2,118.7L102.5,118.4L102.6,103.9L102.3,103.4L70.4,103.4L66.6,103.3L66.4,103.2L66.3,102.7L70.7,98.3L71.9,97.0L84.0,85.0L86.7,82.1L88.4,80.6L90.2,78.6L91.9,77.0L97.5,71.3L99.4,69.6L102.3,66.6L102.8,66.2L103.4,66.3L103.5,66.9L103.4,90.5L103.6,102.4L104.0,102.6L104.5,102.7L118.1,102.6L118.4,102.4L118.5,100.7Z M25.8,9.7L25.5,10.0L25.4,10.4L25.4,11.9L25.5,13.0L25.4,15.2L25.3,23.7L25.5,24.3L25.9,24.6L60.9,24.6L61.3,24.9L61.3,25.3L52.7,34.1L35.8,51.0L33.7,53.3L31.1,55.6L25.5,61.3L25.1,61.6L24.8,61.6L24.5,61.3L24.4,58.7L24.4,25.7L24.1,25.4L11.8,25.4L10.3,25.5L10.1,25.9L10.0,30.6L10.0,62.6L10.2,63.0L10.6,63.2L44.9,63.0L45.5,62.6L50.3,57.7L51.3,56.9L52.1,55.9L57.6,50.6L62.0,46.1L62.6,45.2L62.6,15.6L62.4,10.0L61.9,9.6Z M65.1,9.7L64.8,10.0L64.9,45.0L65.6,46.2L76.3,56.9L79.3,59.7L81.8,62.3L82.9,63.0L117.8,62.8L118.4,62.4L118.5,25.9L118.1,25.2L111.8,25.0L103.9,25.1L103.5,25.3L103.3,26.1L103.5,44.1L103.4,59.7L103.3,61.0L103.2,61.2L102.7,61.3L99.7,58.5L90.9,49.7L89.7,48.7L86.2,45.0L80.8,39.6L80.4,39.4L76.1,34.9L67.1,26.0L66.4,25.1L66.6,24.7L67.0,24.6L69.6,24.6L71.5,24.4L89.5,24.5L95.4,24.3L102.5,24.3L102.6,24.1L102.7,23.6L102.6,9.8L102.3,9.4L94.9,9.3L78.3,9.6L70.6,9.5Z" fill="#000" fill-rule="evenodd"/>
</svg>