<svg xmlns="http://www.w3.org/2000/svg" viewBox="0 0 128 128" width="128" height="128">
  <path d="M26.8,116.6L27.0,116.6L27.6,117.1L27.8,117.1L27.8,116.9L27.5,116.5L27.3,116.4Z M25.5,116.6L25.3,117.0L25.2,120.2L25.7,120.2L25.5,119.9L25.6,119.2L26.0,118.7L26.5,118.5L26.9,118.6L27.5,119.2L27.4,120.2L27.9,120.2L28.0,119.7L27.8,118.6L27.0,118.1L25.7,118.0L25.7,117.1L25.9,116.7L26.3,116.5L25.9,116.4Z M19.4,116.4L18.6,117.0L18.6,117.1L18.8,117.3L19.5,117.2L19.7,117.4L19.7,120.2L20.1,120.2L20.1,116.6L19.8,116.4Z M31.1,116.4L30.6,116.2L29.8,116.2L29.4,116.4L29.1,116.6L28.9,117.3L29.0,117.4L29.1,117.4L29.1,117.1L29.4,116.9L30.3,116.6L30.7,116.7L31.0,117.1L31.1,117.4L31.1,117.8L30.5,118.5L29.6,119.1L29.0,119.6L28.8,120.2L29.3,120.2L29.4,119.9L30.4,119.0L30.7,118.9L31.4,118.3L31.5,117.3L31.4,116.6Z M22.1,116.3L21.8,116.6L21.5,117.4L21.5,120.2L22.0,120.2L21.8,119.5L21.8,117.4L22.4,116.8L22.8,116.7L23.1,116.7L23.4,116.8L23.8,117.2L24.1,118.5L24.1,118.9L24.0,119.1L23.9,119.9L23.7,120.2L24.1,120.2L24.2,119.8L24.2,117.1L23.9,116.6L23.5,116.3Z M64.9,52.5L62.9,52.9L61.3,53.5L60.0,54.4L58.6,55.5L57.2,57.6L56.5,59.3L56.0,61.3L56.0,63.0L56.3,64.8L57.0,66.7L58.3,68.6L59.7,70.1L61.1,70.9L62.6,71.5L64.3,71.9L66.3,72.0L67.9,71.8L70.0,70.9L71.3,70.1L72.8,68.7L73.8,67.3L74.5,65.9L75.0,63.8L75.2,61.7L75.0,59.9L74.0,57.6L72.7,55.7L71.5,54.5L70.9,54.3L70.2,53.7L68.4,52.9L67.0,52.6Z M18.5,48.9L18.3,52.3L18.2,61.8L18.0,66.0L17.8,76.7L17.6,78.0L17.6,78.8L17.9,79.5L19.4,80.9L20.7,81.9L21.5,82.7L22.1,83.1L23.3,84.3L24.8,85.4L27.7,87.9L28.7,88.6L31.5,91.0L32.6,91.9L33.3,92.6L37.3,95.8L41.9,99.9L42.9,100.7L44.9,102.5L48.2,105.1L51.0,107.7L54.1,110.1L55.2,111.1L56.7,112.2L57.5,113.0L58.4,113.6L59.3,114.5L60.0,115.0L64.8,119.0L65.2,119.2L65.7,119.1L68.1,116.9L72.2,113.4L76.8,109.1L77.7,108.4L79.0,107.2L79.7,106.7L80.7,105.7L80.9,105.6L81.3,105.2L85.7,101.4L93.4,94.3L97.6,90.6L97.9,90.6L99.2,89.2L102.2,86.7L105.7,83.4L106.5,82.9L108.0,81.5L110.1,79.7L110.6,78.6L110.6,50.7L110.3,48.7L109.8,48.8L106.9,51.3L105.2,52.6L99.4,57.6L98.5,58.6L97.9,59.0L93.7,62.7L90.8,65.0L86.0,69.4L84.8,70.2L82.3,72.6L81.2,73.3L78.7,75.5L75.6,78.4L74.6,79.0L71.0,82.3L70.7,82.5L66.9,85.8L65.8,86.5L64.8,86.5L63.7,85.6L59.5,81.9L58.4,81.2L57.9,80.6L56.0,79.0L54.8,78.1L53.8,77.1L52.7,76.4L52.3,75.9L51.5,75.3L50.8,74.6L50.3,74.3L47.1,71.5L45.2,70.1L42.8,68.0L35.1,61.7L34.2,60.7L33.0,59.9L32.6,59.4L31.3,58.5L24.7,53.0L21.8,50.9L21.0,50.1L20.3,49.6L19.3,48.8L18.7,48.6Z M65.6,9.2L65.2,9.1L64.9,9.3L63.2,10.9L62.9,11.1L58.1,15.2L57.6,15.5L56.2,16.8L53.1,19.3L51.8,20.3L47.7,23.8L46.8,24.4L44.7,26.2L42.4,27.9L39.3,30.6L38.1,31.5L37.7,31.9L34.9,34.1L34.6,34.5L33.6,35.0L26.9,40.6L23.2,43.5L22.8,44.0L19.9,46.5L19.9,47.1L23.3,49.9L26.2,52.2L27.3,53.2L28.7,54.3L29.4,55.0L30.4,55.6L31.3,56.5L31.8,56.7L35.4,59.9L36.1,60.3L36.7,60.8L37.3,60.8L37.6,60.7L38.8,59.5L40.4,58.3L42.5,56.5L43.5,55.8L46.1,53.4L46.4,53.4L47.3,52.4L47.9,52.0L51.1,49.3L52.2,48.5L53.5,47.3L55.8,45.6L56.5,44.8L57.4,44.3L60.1,41.9L65.1,37.8L65.5,37.2L65.8,17.7Z" fill="#000" fill-rule="evenodd"/>
</svg>