<svg xmlns="http://www.w3.org/2000/svg" viewBox="0 0 128 128" width="128" height="128">
  <path d="M46.6,55.0L45.9,55.4L45.6,56.9L45.6,80.2L45.4,85.1L45.5,98.1L45.4,100.3L45.4,108.3L45.6,108.8L46.2,109.2L47.7,109.4L55.0,109.4L58.7,109.6L61.5,109.4L61.8,109.2L62.1,108.4L62.3,102.7L62.3,83.6L62.7,59.6L62.6,56.0L62.5,55.7L61.9,55.2L61.3,55.1L56.7,55.1L52.8,54.9Z M65.7,18.4L65.1,19.2L65.0,22.0L64.9,35.3L65.0,35.7L65.2,36.1L66.0,36.4L79.4,36.4L88.0,36.6L93.5,36.5L98.0,36.6L99.5,36.9L100.0,37.4L100.3,38.3L100.2,51.3L100.0,54.6L99.8,55.2L99.2,55.5L96.8,55.6L95.2,55.4L79.6,55.4L77.4,55.3L74.9,55.3L72.7,55.2L66.2,55.2L65.1,55.3L64.7,56.0L64.5,57.8L64.6,72.7L65.0,73.0L65.8,73.2L80.1,73.3L83.7,73.5L86.7,73.4L87.0,73.6L93.5,73.5L94.7,73.7L98.4,73.7L99.3,74.0L99.8,74.5L100.0,75.4L99.9,90.3L99.8,91.3L99.5,91.9L99.2,92.2L98.6,92.4L90.8,92.4L85.2,92.1L82.7,92.2L65.9,91.8L64.8,92.0L64.3,92.5L64.2,93.1L64.2,104.0L64.0,106.6L64.1,108.5L64.3,109.0L65.1,109.7L69.6,109.8L82.8,109.9L84.7,110.1L95.3,110.2L116.1,110.7L116.8,110.4L117.2,109.9L117.4,108.9L117.4,97.3L117.5,95.5L117.6,81.5L117.8,78.6L117.7,69.6L118.0,61.1L118.0,54.8L118.2,52.0L118.1,50.4L118.4,39.9L118.4,31.3L118.6,27.8L118.6,23.6L118.8,22.3L118.8,20.0L118.6,19.2L117.9,18.6L116.4,18.4L115.1,18.5L93.2,18.2L66.3,18.2Z M62.4,18.3L60.8,18.2L56.9,18.1L46.6,18.1L42.2,17.9L38.2,18.0L34.3,17.8L19.6,17.8L17.3,17.6L11.0,17.6L10.4,17.9L10.0,18.2L9.8,19.1L9.7,22.8L9.8,31.8L9.5,107.2L9.7,107.9L10.3,108.5L14.3,108.8L20.8,108.7L25.3,108.9L26.4,108.7L27.0,107.9L27.2,102.0L27.1,83.5L27.3,75.9L27.2,58.6L27.4,54.1L27.4,37.8L27.7,36.7L28.1,36.2L29.2,36.0L33.3,36.0L37.2,36.2L39.0,36.0L43.1,36.1L43.9,36.3L51.8,36.2L57.7,36.4L61.3,36.4L62.5,36.0L62.9,34.9L62.9,32.7L62.9,19.9L62.8,18.7Z" fill="#000" fill-rule="evenodd"/>
</svg>