<svg xmlns="http://www.w3.org/2000/svg" viewBox="0 0 128 128" width="128" height="128">
  <path d="M9.7,59.3L9.7,78.7L9.5,86.0L9.6,91.7L9.4,111.8L9.7,112.3L10.0,112.5L36.1,112.8L43.5,113.1L53.9,113.2L57.4,113.4L59.4,113.3L65.5,113.5L75.2,113.5L83.1,113.7L85.3,113.6L95.5,113.8L97.2,114.0L103.3,114.0L106.5,114.2L111.4,114.2L111.8,114.0L112.0,111.8L112.0,105.0L112.2,101.5L112.2,88.8L112.1,83.2L112.2,82.1L112.2,75.6L112.1,64.4L112.2,62.1L112.1,61.6L111.7,61.2L110.5,60.9L97.1,60.8L93.8,60.6L90.2,60.6L88.7,60.4L80.6,60.4L76.8,60.1L71.3,60.1L68.4,60.0L65.6,60.1L64.5,59.9L60.5,59.8L49.2,59.8L45.4,59.6L28.7,59.4L22.7,59.2L20.5,59.2L19.3,59.1L10.1,59.0Z M69.3,75.1L70.1,74.5L71.8,73.9L76.9,73.9L80.5,74.1L83.1,74.1L86.5,74.2L93.7,74.3L95.1,74.5L96.4,75.0L97.3,76.1L97.7,77.6L97.7,95.0L97.6,96.6L97.3,97.8L96.7,98.7L95.7,99.5L94.7,99.9L71.2,99.6L70.7,99.5L69.8,99.1L69.0,98.2L68.5,96.8L68.4,95.9L68.4,77.6L68.8,75.9Z M25.3,74.5L25.8,74.0L26.7,73.4L27.7,73.2L50.5,73.5L52.4,73.7L53.5,74.7L53.9,75.6L54.0,94.0L53.8,97.0L53.4,97.9L52.7,98.6L51.8,99.1L50.4,99.3L36.1,99.0L28.2,99.0L26.5,98.7L25.5,98.2L25.1,97.7L24.7,96.8L24.6,95.2L24.6,79.3L24.7,76.3L25.0,75.0Z M31.1,66.7L31.4,66.4L31.8,66.4L32.0,66.6L32.0,67.1L31.4,67.2L31.2,67.1Z M9.7,56.5L9.8,56.8L10.4,57.2L15.2,57.2L16.8,57.4L24.0,57.4L24.6,57.1L24.7,45.4L24.7,32.1L25.1,30.5L25.3,30.2L26.0,29.4L26.9,29.1L28.2,28.8L31.5,29.0L33.9,28.9L44.7,29.2L47.1,29.1L48.1,29.3L51.1,29.3L52.4,29.5L53.6,30.6L54.0,31.6L54.0,35.4L54.2,36.6L53.9,56.6L54.1,57.4L54.4,57.8L55.5,58.0L62.5,58.0L69.5,58.3L73.3,58.2L78.4,58.4L83.7,58.3L85.0,57.3L86.0,55.8L92.0,49.1L94.4,46.0L100.1,39.5L101.9,37.2L104.4,34.4L109.8,27.9L110.8,26.9L112.4,24.8L113.7,23.5L114.3,22.6L116.3,20.5L116.8,19.7L118.4,18.0L118.9,17.3L118.9,16.8L118.2,16.4L116.3,16.4L114.8,16.3L110.2,16.3L104.3,16.0L100.8,16.0L100.4,16.2L98.2,18.5L94.5,23.2L93.8,23.7L90.9,27.3L89.4,28.9L87.5,31.3L84.4,34.7L82.8,36.8L80.9,38.9L78.9,41.5L76.9,43.6L71.6,50.0L69.7,52.1L69.4,52.2L69.0,52.2L68.6,51.5L68.7,51.0L68.5,48.3L68.5,16.7L68.3,15.6L68.0,15.4L67.4,15.3L59.3,15.0L54.5,15.0L45.9,14.7L41.3,14.8L39.9,14.6L35.5,14.6L31.3,14.5L20.1,14.4L15.8,14.2L13.4,14.3L12.2,14.1L10.3,14.3L10.0,14.6L9.8,16.0L9.8,28.7L9.7,36.3L9.7,48.3L9.6,54.4Z" fill="#000" fill-rule="evenodd"/>
</svg>