<svg xmlns="http://www.w3.org/2000/svg" viewBox="0 0 128 128" width="128" height="128">
  <path d="M114.7,61.2L114.1,61.1L110.0,63.4L107.8,64.9L106.9,65.4L102.5,68.6L98.4,71.9L94.5,75.4L94.0,75.7L88.8,80.8L82.7,87.4L79.1,91.9L77.4,94.2L75.7,96.2L75.3,97.0L73.9,98.6L73.2,99.8L72.6,100.4L70.9,103.1L70.2,103.8L69.5,105.1L67.1,108.5L66.1,110.3L64.5,112.5L64.0,112.5L63.3,111.7L62.9,110.9L62.2,110.0L58.5,104.3L57.7,103.3L57.4,102.8L57.1,102.6L54.8,99.1L47.9,90.1L45.9,87.8L45.3,87.0L42.0,83.4L36.5,77.8L32.0,73.7L25.0,68.0L17.3,63.0L15.7,62.2L14.3,61.2L13.7,61.2L13.5,61.6L13.3,69.0L13.3,118.5L13.7,118.9L24.9,118.9L39.6,118.6L60.7,118.4L79.3,118.5L85.7,118.7L114.6,118.5L114.9,118.2L115.0,117.7L115.0,65.6L114.8,63.6L114.9,61.7Z M114.7,10.1L114.6,9.6L114.2,9.3L106.7,9.3L104.7,9.5L96.1,9.5L87.2,9.8L73.1,9.9L69.1,10.1L14.3,10.3L14.0,10.4L13.6,11.1L13.5,17.6L14.1,18.2L19.3,21.1L23.8,24.0L27.5,26.8L29.6,28.5L31.7,29.8L32.6,30.8L36.8,34.4L41.0,38.5L49.1,47.0L54.4,53.2L58.2,58.2L58.8,58.8L62.1,63.6L63.6,66.3L63.9,66.6L64.2,66.6L65.0,65.7L68.9,59.6L71.3,56.6L72.0,55.4L73.2,54.0L74.9,51.6L76.0,50.4L76.5,49.7L82.6,42.5L86.7,38.2L87.2,37.5L90.6,34.0L97.5,27.9L103.1,23.6L104.2,22.9L106.2,21.5L109.0,19.8L109.6,19.3L112.2,18.0L112.8,17.5L113.6,17.2L114.5,16.6L114.7,16.1Z" fill="#000" fill-rule="evenodd"/>
</svg>