<svg xmlns="http://www.w3.org/2000/svg" viewBox="0 0 128 128" width="128" height="128">
  <path d="M9.3,49.3L9.3,62.1L9.4,63.2L9.7,63.7L11.2,63.9L30.6,63.9L31.4,64.1L31.9,64.6L32.0,79.6L31.9,87.1L32.1,93.9L32.1,109.1L32.3,109.6L32.8,109.9L36.4,109.8L51.4,110.1L57.3,110.0L70.4,110.2L77.9,110.1L80.7,110.3L94.5,110.3L95.7,110.1L96.1,109.4L96.1,64.5L96.5,64.1L97.4,63.9L118.4,63.9L118.8,63.6L119.0,63.2L119.0,49.1L118.8,48.8L118.2,48.3L108.5,48.3L102.0,48.2L94.9,48.3L80.9,48.3L80.4,48.8L80.3,49.4L80.3,75.5L80.5,82.9L80.5,92.8L80.3,94.1L79.7,94.5L76.0,94.6L48.3,94.2L47.9,93.9L47.6,93.4L47.5,90.7L47.8,65.9L47.6,63.2L47.6,48.9L47.4,48.5L47.1,48.2L10.3,48.2L9.7,48.4L9.4,48.7Z M65.1,18.1L64.6,18.5L64.5,19.2L64.4,27.7L64.4,65.8L64.5,78.9L64.9,79.4L66.0,79.6L79.1,79.5L79.5,79.3L79.6,79.0L79.7,76.7L79.5,64.4L79.6,54.1L79.3,29.0L79.4,21.6L79.2,18.6L78.9,18.2L78.3,18.0Z M49.3,18.0L48.6,18.4L48.5,18.9L48.5,78.8L48.5,79.1L49.0,79.4L63.3,79.4L63.5,79.3L63.7,78.7L63.8,73.4L63.8,43.4L63.6,33.5L63.8,27.7L63.6,24.7L63.6,19.2L63.5,18.6L63.1,18.2L62.3,18.0Z" fill="#000" fill-rule="evenodd"/>
</svg>