<svg xmlns="http://www.w3.org/2000/svg" viewBox="0 0 128 128" width="128" height="128">
  <path d="M11.3,9.9L11.1,11.3L10.9,18.2L11.1,27.0L10.9,28.2L10.9,29.7L11.1,30.7L11.1,39.5L10.8,40.2L10.8,46.1L11.1,51.4L11.5,51.8L13.3,52.0L28.9,51.9L34.5,52.1L54.2,52.1L54.8,52.3L55.2,52.8L55.2,57.6L55.4,59.8L55.2,63.0L55.0,63.5L54.4,64.0L52.4,64.0L51.2,64.1L44.3,64.2L36.8,64.0L30.2,64.2L15.2,64.1L11.8,64.2L11.3,64.7L11.1,67.8L11.0,77.0L11.1,118.3L11.5,118.7L12.9,118.9L20.9,118.7L28.2,118.8L32.7,118.6L37.2,118.7L43.0,118.5L64.0,118.3L70.7,118.5L82.2,118.4L84.1,118.2L89.5,118.3L91.8,118.2L95.9,118.2L97.5,118.1L100.7,118.2L115.3,118.0L116.7,117.8L117.2,117.3L117.4,116.7L117.2,112.1L117.4,110.1L117.3,100.4L117.5,97.2L117.3,84.6L117.4,78.3L117.2,73.9L117.3,64.9L117.1,64.5L116.7,64.3L114.3,64.3L113.3,64.1L112.0,64.2L109.9,64.0L81.7,64.1L80.9,64.0L80.0,64.0L78.8,64.1L74.7,64.0L74.3,63.9L73.7,63.2L73.6,61.1L73.6,57.4L73.7,56.2L73.6,53.3L73.8,52.7L74.6,52.1L76.2,52.0L115.8,52.2L116.7,52.1L117.2,51.7L117.4,42.0L117.3,31.3L117.6,26.8L117.4,23.0L117.5,13.5L117.3,11.1L116.8,10.7L115.9,10.5L110.5,10.6L100.8,10.4L100.1,10.9L99.8,16.9L99.8,31.8L99.7,33.4L99.1,34.0L98.3,34.2L95.1,34.4L78.2,34.4L74.1,34.1L73.8,33.8L73.5,32.8L73.2,19.5L73.3,12.0L73.1,10.4L72.6,10.1L71.8,10.1L69.7,9.8L63.0,9.8L56.4,9.7L55.6,10.0L55.2,10.7L55.2,15.4L55.0,16.6L55.3,32.4L54.9,33.4L54.4,33.7L52.5,33.8L49.8,33.8L47.9,34.0L35.4,34.0L33.5,33.8L30.5,33.8L29.6,33.6L29.1,32.7L28.9,27.9L28.9,15.2L28.7,13.8L28.7,10.5L28.5,10.0L28.1,9.8L26.4,9.6L18.5,9.6L13.5,9.4L11.8,9.6Z M29.4,82.9L29.8,82.4L31.3,82.1L35.6,82.1L36.5,82.0L36.9,81.8L37.2,81.8L37.8,82.1L42.9,82.1L44.1,81.9L98.7,82.0L99.4,82.6L99.6,83.7L99.6,95.5L99.4,96.1L99.3,99.2L99.2,99.5L98.5,100.2L94.5,100.5L56.0,100.7L52.5,100.6L50.8,100.7L35.3,100.7L34.9,100.9L29.9,100.7L29.5,100.5L29.3,100.1L29.1,98.8L29.0,90.3L29.2,88.2L29.1,85.1Z" fill="#000" fill-rule="evenodd"/>
</svg>