<svg xmlns="http://www.w3.org/2000/svg" viewBox="0 0 128 128" width="128" height="128">
  <path d="M10.2,28.7L9.9,28.9L9.7,29.5L9.6,31.2L9.7,35.1L9.5,58.0L9.6,61.3L9.8,61.6L10.6,62.0L30.2,62.0L36.1,62.2L44.3,62.2L45.1,62.3L45.9,62.9L46.0,65.2L45.9,66.0L45.6,66.3L44.9,66.6L14.2,66.5L11.3,66.6L10.0,66.7L9.6,67.3L9.4,69.8L9.4,99.4L9.6,100.0L9.9,100.3L11.8,100.5L33.3,100.4L37.0,100.6L38.2,100.4L41.2,100.4L42.5,100.6L44.1,100.5L45.3,100.7L45.9,101.4L46.0,102.3L45.9,117.2L46.2,118.3L46.7,118.7L81.4,118.8L81.9,118.4L82.1,118.0L82.1,102.3L82.3,101.2L83.0,100.7L84.2,100.6L89.9,100.6L93.4,100.8L96.9,100.7L103.3,100.9L113.5,100.9L118.1,100.6L118.6,100.0L118.8,98.7L118.8,68.2L118.5,67.4L118.1,67.0L116.8,66.8L84.3,66.8L83.0,66.7L82.6,66.4L82.4,66.0L82.5,62.8L82.9,62.5L83.8,62.3L104.1,62.6L117.3,62.6L118.2,62.5L118.5,62.2L118.7,61.7L118.8,58.5L118.6,56.2L118.9,46.5L118.9,32.6L118.8,29.6L118.5,29.2L116.4,29.0L114.0,29.1L98.9,28.8L84.3,28.8L83.0,28.7L82.6,28.3L82.4,27.6L82.4,10.6L82.2,10.2L81.7,9.8L80.6,9.8L80.1,9.6L46.8,9.6L46.4,10.1L46.3,11.1L46.3,20.7L46.1,25.6L46.2,26.9L46.1,27.8L45.9,28.2L45.4,28.6L26.3,28.7L11.0,28.5Z M45.9,82.1L46.1,81.5L46.4,81.1L46.9,81.0L81.2,81.2L81.7,81.4L82.2,82.1L82.3,83.9L82.2,84.4L81.3,85.1L49.2,85.1L48.4,84.9L46.5,84.9L46.1,84.3Z M46.1,44.3L46.3,43.8L46.6,43.4L47.3,43.2L56.7,43.2L65.0,43.4L73.8,43.3L75.7,43.5L80.6,43.4L81.8,43.6L82.3,44.1L82.4,46.3L82.2,47.0L81.7,47.5L80.2,47.6L68.7,47.6L66.9,47.4L65.5,47.4L64.4,47.6L56.5,47.6L52.1,47.4L46.9,47.4L46.6,47.3L46.1,46.6Z" fill="#000" fill-rule="evenodd"/>
</svg>