<svg xmlns="http://www.w3.org/2000/svg" viewBox="0 0 128 128" width="128" height="128">
  <path d="M33.8,96.2L34.3,97.1L34.5,97.1L36.6,99.4L39.4,101.6L40.2,102.4L41.1,102.9L43.4,104.8L44.1,105.2L46.6,107.5L48.3,109.4L50.2,112.9L50.6,114.5L50.9,115.0L51.1,116.8L51.1,118.0L51.4,118.7L52.4,118.9L61.4,118.9L61.8,118.6L61.9,118.1L61.4,115.6L60.1,112.6L58.9,111.0L56.5,108.8L54.4,107.5L52.1,106.3L46.1,104.4L43.5,103.1L42.0,102.2L40.6,101.5L35.3,97.5L34.5,96.7L34.3,96.3Z M94.2,95.9L93.8,96.1L89.6,99.6L87.2,101.2L85.5,102.1L85.3,102.4L80.3,104.7L79.2,105.0L78.2,105.6L76.3,106.1L74.7,107.0L73.9,107.2L70.9,108.7L69.6,109.6L68.0,111.2L66.9,112.6L66.5,113.6L66.1,115.1L66.0,118.0L66.2,118.6L66.6,118.9L75.0,118.9L76.1,118.7L76.4,118.1L76.4,116.0L76.9,113.0L77.3,112.0L78.8,109.5L82.1,106.2L90.4,99.7L91.5,98.5L93.9,96.5Z M22.4,86.5L22.6,87.7L23.4,88.9L24.3,91.0L26.0,93.7L28.0,97.2L30.6,100.9L32.1,102.6L34.6,106.3L35.7,109.1L36.6,110.7L37.1,112.4L37.4,114.8L37.6,118.2L38.1,118.8L44.3,118.9L46.7,118.8L47.0,118.6L47.1,117.7L46.6,115.0L46.2,113.9L45.2,111.9L43.9,110.0L42.6,108.7L42.5,108.3L39.0,105.2L37.2,104.0L35.7,102.6L35.5,102.5L35.2,102.1L33.2,100.5L29.8,97.1L27.8,94.6L26.6,92.6L24.5,89.8L24.4,89.4L22.9,87.1L22.8,86.7Z M22.0,85.7L22.2,86.0L22.2,85.7Z M105.9,85.5L105.2,86.2L104.9,87.0L104.4,87.4L102.9,90.1L101.5,92.0L100.6,93.8L98.5,96.4L95.0,99.9L92.4,102.0L91.1,102.8L88.4,105.2L86.6,107.0L85.5,107.8L85.0,108.5L83.5,109.9L82.2,111.5L81.6,113.0L80.8,115.8L80.8,118.1L80.9,118.4L81.3,118.8L89.8,118.8L90.5,118.7L90.8,118.3L90.8,115.7L91.2,113.0L91.9,110.6L93.0,107.6L95.2,104.0L95.6,103.1L98.6,99.0L100.9,95.2L101.7,94.2L101.9,93.7L104.4,89.0L105.4,87.0L105.6,86.2L105.9,85.8Z M54.8,80.7L53.7,81.3L52.0,83.0L51.3,84.9L51.4,87.1L52.1,88.6L53.0,89.7L53.8,90.3L54.7,90.7L55.6,90.9L57.7,90.9L58.5,90.6L59.5,90.1L60.4,89.2L61.0,88.5L61.6,86.5L61.5,84.6L61.3,83.7L60.6,82.6L59.8,81.8L58.9,81.1L58.0,80.7L56.8,80.5L55.7,80.5Z M10.2,75.6L9.9,76.1L9.9,77.0L9.9,117.8L10.1,118.3L10.5,118.5L19.4,118.6L19.7,118.5L20.0,117.7L19.9,115.0L18.8,108.4L18.3,106.1L17.7,104.6L17.1,102.1L15.1,96.5L14.2,92.7L13.7,91.4L13.0,87.8L12.7,87.2L12.4,85.7L12.0,84.7Z M14.4,73.7L14.1,74.0L14.1,75.3L14.6,77.9L15.1,79.5L16.3,86.0L16.6,86.8L16.7,87.7L17.0,88.7L18.5,94.2L19.9,97.9L20.6,100.9L21.9,104.4L22.0,105.2L23.4,109.2L24.1,114.2L24.3,118.3L24.8,118.7L33.1,118.7L33.4,118.4L33.4,117.4L33.2,116.8L33.0,113.8L32.5,111.7L31.9,109.7L29.9,105.5L27.3,101.3L26.4,100.1L26.1,99.4L25.4,98.7L25.0,97.7L24.6,97.4L24.4,96.9L21.9,93.1L20.2,90.0L17.1,83.0L16.3,80.1L15.9,79.2L15.7,78.2L15.2,77.1L15.1,76.1L14.6,75.0Z M118.1,73.6L117.6,75.3L117.6,76.1L116.9,80.1L116.4,81.7L115.6,85.5L114.0,90.7L113.8,92.0L113.4,92.9L112.9,95.0L110.3,102.6L110.1,103.7L109.7,104.7L109.6,105.8L109.4,106.6L108.8,109.7L108.4,114.4L108.3,118.3L108.8,118.8L117.5,118.9L118.0,118.6L118.1,118.2Z M41.9,73.3L40.2,73.9L38.5,75.6L37.8,77.3L37.8,79.2L38.4,80.9L39.0,81.8L40.1,82.8L41.8,83.6L43.8,83.7L45.6,83.0L47.1,81.7L47.7,80.7L48.1,79.0L48.1,77.8L47.7,76.3L46.5,74.7L45.9,74.1L44.1,73.3Z M114.4,71.8L114.2,71.8L113.9,73.8L112.9,77.6L112.7,78.2L112.7,78.6L112.3,79.1L112.2,79.9L111.5,81.7L108.8,87.9L106.6,91.9L106.1,92.5L105.0,94.4L102.5,98.4L102.4,98.8L101.5,99.9L99.7,103.1L99.5,103.7L97.8,106.4L96.8,108.4L95.7,111.5L95.2,113.5L95.0,118.1L95.1,118.4L95.5,118.7L103.1,118.8L103.5,118.6L103.7,118.2L103.7,115.8L103.9,114.9L103.9,113.6L104.1,112.1L104.8,109.2L105.0,107.5L106.6,101.2L107.4,99.5L108.4,96.3L109.0,95.3L109.5,93.6L109.7,92.5L110.6,90.2L110.7,89.4L111.5,87.1L111.7,85.7L112.2,84.5L112.3,83.7L112.9,81.8L113.2,80.2L113.8,78.4L113.8,77.5L114.1,76.3L114.1,74.7Z M69.0,68.6L68.0,68.9L66.9,69.5L65.4,71.1L64.9,72.1L64.7,73.3L64.8,74.9L65.4,76.6L67.0,78.1L68.3,78.7L69.3,78.9L70.7,78.9L71.9,78.6L72.6,78.3L74.3,76.7L75.0,75.2L75.1,72.8L74.9,72.1L74.1,70.8L72.8,69.5L71.3,68.7Z M49.2,60.7L47.6,61.4L46.3,62.5L45.5,64.0L45.3,64.7L45.3,66.8L45.8,68.3L46.3,69.1L47.4,70.1L47.9,70.5L48.7,70.7L49.0,71.0L51.5,71.0L52.7,70.6L53.8,69.9L55.0,68.3L55.6,66.4L55.5,64.9L54.9,63.3L54.5,62.7L53.1,61.4L51.3,60.7Z M68.6,49.4L68.0,49.5L66.5,50.4L65.3,51.6L64.9,52.7L64.5,54.1L64.6,55.5L64.8,56.3L65.3,57.4L66.9,59.0L68.7,59.7L70.8,59.7L72.2,59.2L73.9,57.6L74.4,56.9L74.9,55.0L74.8,53.6L74.0,51.6L73.0,50.5L72.3,50.0L70.7,49.4Z M88.7,43.2L87.2,43.6L86.2,44.3L85.1,45.4L84.5,46.4L84.1,47.7L84.1,49.5L84.7,51.0L85.3,51.8L86.2,52.7L87.3,53.3L88.3,53.6L90.6,53.6L92.2,52.8L92.9,52.3L93.9,51.1L94.3,49.9L94.5,48.9L94.3,47.2L93.6,45.6L92.8,44.7L91.9,44.0L90.2,43.3Z M49.0,34.9L47.6,35.7L46.2,37.0L45.4,38.9L45.3,40.3L45.6,41.6L46.4,43.3L47.4,44.3L48.2,44.6L48.5,44.9L49.4,45.2L52.1,45.1L53.8,44.2L55.1,42.6L55.7,41.0L55.7,39.4L55.5,38.6L54.7,37.1L53.5,35.7L52.3,35.1L50.9,34.7Z M108.9,9.6L108.5,9.7L108.1,10.1L108.0,11.6L108.1,13.8L108.9,19.5L109.4,21.5L109.7,22.4L109.8,23.2L111.9,29.0L112.3,30.8L114.1,36.2L114.8,39.1L115.1,41.3L115.9,44.4L116.1,46.4L116.4,47.9L116.7,50.3L117.4,53.3L117.8,59.6L118.0,59.5L118.2,57.4L118.2,49.4L118.4,42.5L118.3,33.8L118.5,10.1L118.1,9.7Z M94.7,9.6L94.2,10.2L94.2,11.4L94.8,15.6L95.4,17.7L96.4,20.2L98.7,24.0L99.9,25.4L101.5,28.3L103.4,31.1L103.5,31.5L104.0,32.1L104.7,33.6L106.0,35.4L107.0,37.7L107.8,39.0L110.0,43.7L112.2,49.4L113.3,53.4L113.6,53.6L113.3,51.3L112.9,49.9L112.9,48.8L112.5,47.7L112.2,45.4L111.7,43.2L111.5,42.9L110.6,39.3L110.4,38.1L108.7,32.8L107.9,31.2L107.8,30.6L107.4,29.6L107.2,28.6L106.9,28.3L106.8,27.6L106.3,26.6L106.1,25.5L105.5,23.6L105.4,22.7L105.0,21.9L104.4,19.5L103.5,13.8L103.5,10.0L103.2,9.7L102.9,9.6Z M80.5,9.7L80.4,11.6L80.8,13.5L81.4,15.3L82.6,17.8L85.7,21.1L87.8,22.9L89.5,24.1L91.0,25.6L93.2,27.3L98.8,32.8L100.1,34.6L101.6,36.2L103.0,38.2L104.0,40.0L104.4,40.6L105.0,42.0L105.5,42.5L106.3,44.3L106.6,44.4L106.5,43.4L105.3,40.8L105.1,40.1L104.5,39.3L103.6,37.5L103.2,37.2L102.6,35.8L97.3,28.2L96.4,27.2L95.5,25.7L94.5,24.6L91.9,19.9L90.3,14.8L89.9,10.3L89.6,9.7L88.8,9.5L81.0,9.5Z M19.6,9.6L11.4,9.5L10.2,9.6L9.9,10.1L9.8,35.6L9.9,52.1L9.9,54.2L10.0,54.4L10.5,51.2L10.6,49.4L11.6,44.6L11.9,44.0L12.2,42.3L14.8,32.9L15.5,30.9L16.1,28.8L16.8,26.8L17.7,23.8L18.2,21.6L18.5,20.5L18.8,18.6L19.2,17.5L19.6,14.2L19.8,13.6L20.0,9.9Z M65.7,9.8L65.6,10.4L66.1,13.5L66.6,14.9L67.6,16.8L68.9,18.2L70.6,19.6L75.2,21.9L75.9,22.1L77.8,23.0L78.7,23.2L79.4,23.6L80.9,23.9L81.6,24.4L82.8,24.9L85.3,26.4L87.2,27.3L89.7,29.3L90.7,29.9L91.0,30.3L92.0,30.7L93.1,32.0L93.3,32.0L93.3,31.8L89.3,28.0L87.3,26.4L86.8,26.1L83.5,23.6L81.8,22.2L79.2,19.6L78.0,17.8L76.7,14.6L76.2,12.3L76.1,9.9L75.8,9.6L67.0,9.4L66.1,9.5Z M61.4,9.8L61.1,9.5L58.7,9.4L51.9,9.4L51.1,9.7L51.0,13.1L50.5,15.1L49.3,17.6L47.7,20.0L46.7,21.0L44.6,22.7L42.4,24.3L40.9,25.5L40.2,25.9L36.6,28.6L34.3,30.7L34.0,31.4L34.3,31.4L35.4,30.5L38.1,28.5L38.7,28.3L40.0,27.2L43.1,25.4L47.7,23.3L55.7,20.3L57.9,18.8L58.6,18.2L59.8,16.7L60.9,14.7L61.4,12.6L61.5,10.9Z M46.8,9.7L45.5,9.4L37.6,9.4L37.0,9.6L36.7,10.4L36.6,12.7L36.1,16.4L34.7,20.5L34.1,21.4L32.8,24.3L31.1,26.8L29.8,28.4L28.8,30.2L27.4,31.8L25.5,34.8L23.1,39.6L23.1,39.9L22.7,40.3L22.0,41.9L21.7,42.4L20.6,45.2L20.9,45.2L21.2,44.9L21.5,44.3L21.5,43.9L22.8,41.9L23.0,41.2L23.9,39.7L24.1,39.1L26.7,35.2L30.5,30.6L32.4,28.8L33.1,27.9L39.6,22.6L43.6,18.8L45.2,16.6L45.7,15.1L46.0,14.6L46.7,11.9L46.7,11.2L46.9,10.5Z M32.1,9.5L25.1,9.4L24.2,9.5L23.8,9.8L23.6,10.6L23.5,14.1L22.9,17.6L22.9,18.4L21.9,22.7L21.6,23.4L20.5,27.6L19.5,30.5L19.4,31.1L18.5,33.3L17.8,35.3L15.6,43.4L15.1,46.1L14.8,47.4L14.4,50.6L14.1,51.5L14.0,52.9L13.6,54.7L13.5,57.7L13.8,57.5L14.1,56.6L14.2,55.4L14.5,54.7L14.8,52.9L15.1,52.4L15.3,51.1L15.6,50.6L15.8,49.5L16.4,48.3L16.9,46.2L17.8,44.3L17.9,43.6L18.5,41.7L21.1,36.7L21.9,35.6L22.4,34.2L23.6,32.2L24.5,31.0L25.0,29.9L26.2,27.7L27.1,26.5L27.5,25.6L29.2,23.2L31.0,19.6L32.0,16.7L32.4,14.1L32.6,10.6L32.5,9.9Z" fill="#000" fill-rule="evenodd"/>
</svg>