<svg xmlns="http://www.w3.org/2000/svg" viewBox="0 0 128 128" width="128" height="128">
  <path d="M32.1,97.0L32.1,97.5L42.8,108.0L53.1,118.4L53.8,118.6L73.9,118.6L74.9,118.4L75.0,98.9L75.1,97.8L75.3,97.5L75.9,97.5L88.3,109.7L90.5,112.2L96.7,118.3L97.6,118.9L118.2,118.9L118.6,118.3L118.7,77.4L118.6,75.7L118.4,75.3L118.2,75.2L98.1,75.1L97.2,75.3L97.0,75.8L96.9,78.4L97.0,93.5L96.9,96.0L96.7,96.5L96.3,96.9L95.9,97.0L79.0,97.0L75.7,96.9L75.3,96.8L75.1,96.4L75.0,75.3L73.4,75.2L53.8,75.2L53.4,75.4L53.3,76.0L53.2,96.4L52.5,96.9L32.8,96.8Z M59.5,96.8L59.5,97.4L59.0,97.9L58.5,97.9L58.3,97.7L58.4,97.3L59.0,96.7Z M69.4,57.7L69.2,58.2L69.3,58.9L69.7,59.2L70.5,59.3L70.8,58.9L70.8,58.5L69.9,57.7Z M9.7,9.8L9.6,12.5L9.7,24.1L9.6,27.9L9.8,52.2L9.9,53.0L10.4,53.3L30.5,53.4L31.1,53.2L31.3,52.2L31.3,32.6L31.4,32.1L32.0,31.6L34.1,31.5L52.8,31.5L53.3,32.0L53.4,36.0L53.2,42.7L53.3,52.8L53.5,53.1L54.1,53.3L74.5,53.3L75.0,52.9L75.2,33.5L75.1,32.9L75.3,31.9L75.7,31.5L76.1,31.4L95.1,31.4L96.0,31.3L96.2,31.1L96.2,30.9L94.4,29.0L78.7,13.5L77.1,11.7L75.0,9.6L74.4,9.5L54.3,9.4L53.9,9.5L53.7,9.6L53.5,10.2L53.5,30.5L53.1,30.9L52.7,30.8L49.9,28.3L35.3,13.6L34.8,13.2L31.2,9.6L29.9,9.5L10.6,9.4L10.1,9.5Z" fill="#000" fill-rule="evenodd"/>
</svg>