<svg xmlns="http://www.w3.org/2000/svg" viewBox="0 0 128 128" width="128" height="128">
  <path d="M26.5,28.3L25.2,29.6L23.2,32.0L22.1,33.9L20.6,37.5L20.3,38.9L20.0,39.5L19.5,42.4L19.3,50.6L19.4,64.8L19.2,68.7L19.2,84.5L19.4,87.6L19.9,90.3L20.6,92.2L21.6,94.5L23.9,98.1L26.0,100.2L28.3,102.2L29.9,103.2L32.7,104.5L35.6,105.5L40.0,106.0L57.0,105.8L87.4,105.8L89.5,105.7L93.6,104.7L95.9,103.9L97.2,103.2L97.5,102.9L98.1,102.8L98.5,102.4L99.3,102.0L100.0,101.3L100.6,101.1L102.5,99.3L104.3,97.2L105.0,96.1L105.5,95.6L105.6,95.2L106.9,93.1L108.1,89.8L108.7,87.0L108.8,42.6L108.6,40.3L108.2,39.2L108.1,38.4L107.1,35.4L106.1,33.5L105.0,31.7L104.5,31.3L103.7,29.9L101.6,27.8L98.0,25.2L95.3,23.9L93.0,23.2L89.8,22.5L74.7,22.4L70.8,22.2L62.7,22.2L58.3,22.4L47.8,22.2L40.7,22.3L38.7,22.6L37.6,22.6L36.7,22.9L35.7,23.0L34.7,23.5L32.8,24.0L29.6,25.7Z M22.4,72.8L23.2,72.1L24.2,72.0L38.6,72.0L45.8,71.8L54.3,71.9L55.8,72.1L56.3,72.9L56.4,73.6L56.3,99.8L56.2,101.8L56.0,102.4L55.6,102.7L54.9,102.8L40.2,103.0L37.6,102.8L37.0,102.5L35.7,102.3L34.6,101.7L34.1,101.7L33.3,101.3L33.0,101.3L30.9,100.2L28.1,98.1L26.2,96.1L24.4,93.4L23.7,91.9L22.6,88.9L22.1,85.3L22.1,73.9Z M105.5,72.3L105.8,73.7L105.7,85.4L105.3,88.1L104.3,90.9L103.4,93.0L101.5,95.7L99.2,98.1L97.9,99.2L96.7,99.7L95.5,100.6L93.9,101.3L92.2,101.9L91.8,101.9L91.2,102.2L90.1,102.3L88.6,102.8L73.8,102.8L72.4,102.8L71.8,102.4L71.6,101.8L71.6,75.7L71.7,72.9L72.3,72.0L73.1,71.8L89.0,71.9L90.5,71.8L104.4,71.8L104.9,71.9Z M72.1,25.8L72.9,25.3L74.3,25.2L87.2,25.2L90.5,25.6L92.8,26.2L93.8,26.6L94.8,27.1L95.1,27.1L97.8,28.7L99.2,29.9L101.1,31.7L102.8,34.2L103.0,34.7L103.9,36.1L105.3,40.2L105.9,45.0L105.8,54.7L105.4,56.0L104.8,56.4L103.8,56.4L103.2,56.1L102.5,56.1L101.6,56.4L84.2,56.3L83.4,56.5L82.4,56.5L80.7,56.3L78.6,56.5L73.7,56.5L72.6,56.3L72.0,55.9L71.8,55.2L71.8,35.3L71.9,31.4L71.9,27.3Z M56.5,25.9L56.5,53.1L56.4,55.3L56.0,56.2L54.7,56.5L44.4,56.6L43.3,56.4L40.4,56.6L30.3,56.5L23.5,56.7L22.8,56.4L22.4,56.1L22.2,55.3L22.1,51.3L22.2,45.0L22.4,42.9L22.6,42.3L22.6,40.9L23.7,37.6L25.1,34.6L26.7,32.3L29.0,29.9L31.9,27.8L33.0,27.2L36.3,25.9L38.2,25.5L41.7,25.2L51.0,25.2L54.8,25.2L56.2,25.5Z M21.0,19.4L16.8,23.7L14.4,27.0L12.1,31.3L10.9,34.5L9.9,38.2L9.8,39.4L9.6,40.4L9.4,44.3L9.5,88.7L9.9,91.3L10.7,94.3L11.3,96.2L12.6,98.9L14.3,101.9L16.0,104.4L18.9,107.5L23.2,111.0L23.9,111.3L25.2,112.2L27.5,113.4L29.5,114.2L32.9,115.2L36.4,115.9L38.2,116.1L44.3,116.1L50.3,115.9L87.2,115.9L89.3,115.8L92.8,115.3L97.0,114.2L97.7,113.8L99.7,113.2L102.9,111.5L106.0,109.4L108.1,107.6L110.5,105.3L112.8,102.5L112.9,102.1L113.7,101.1L115.7,97.5L117.4,93.2L117.6,91.9L117.9,91.4L118.3,88.5L118.6,83.4L118.6,59.3L118.8,54.1L118.9,43.6L118.5,39.2L118.2,38.0L118.0,36.5L116.9,33.1L115.6,30.0L114.7,28.2L112.1,24.5L110.5,22.6L107.4,19.5L106.9,19.2L103.6,16.8L99.2,14.5L97.5,14.1L96.7,13.7L92.1,12.7L89.2,12.4L62.0,12.4L49.3,12.2L39.3,12.2L38.8,12.4L36.1,12.6L33.1,13.2L29.4,14.4L26.9,15.7L26.7,15.7L24.5,17.1L23.8,17.4Z M21.2,23.3L23.2,21.5L25.2,20.0L25.7,19.8L26.6,19.1L29.5,17.7L29.9,17.4L30.5,17.3L31.4,16.8L32.4,16.6L33.0,16.3L35.5,15.7L38.2,15.3L41.4,15.1L88.4,15.1L91.3,15.4L92.1,15.7L93.2,15.8L95.1,16.2L96.3,16.7L96.9,16.8L98.6,17.6L99.1,17.7L99.7,18.2L100.8,18.6L104.0,20.6L107.6,23.8L110.2,26.8L111.7,29.2L112.4,30.8L112.9,31.4L113.0,32.0L114.1,34.6L115.0,37.5L115.1,38.4L115.4,39.7L115.6,42.7L115.8,43.7L115.5,85.7L115.3,87.4L114.4,91.9L112.8,96.1L110.5,100.2L107.5,103.8L105.4,105.9L102.7,107.9L100.1,109.4L98.0,110.5L94.6,111.7L93.3,111.9L91.1,112.4L88.3,112.8L86.0,112.9L53.7,112.9L44.7,113.2L38.6,113.2L34.2,112.5L32.7,112.1L29.6,111.0L28.2,110.3L27.3,110.0L27.0,109.7L25.4,108.9L24.8,108.3L23.5,107.5L21.9,106.2L20.2,104.6L18.6,102.8L16.3,99.7L15.6,98.1L15.3,97.9L15.2,97.4L14.8,96.8L13.8,94.4L12.7,90.3L12.2,86.4L12.2,56.5L12.4,55.8L12.2,45.0L12.5,40.8L13.7,35.5L14.3,33.7L15.9,30.2L17.8,27.1L19.3,25.4L19.4,25.2Z" fill="#000" fill-rule="evenodd"/>
</svg>