<svg xmlns="http://www.w3.org/2000/svg" viewBox="0 0 128 128" width="128" height="128">
  <path d="M11.1,11.2L10.8,11.5L10.7,14.0L10.5,14.4L10.5,15.1L10.7,16.1L10.7,57.1L10.9,63.6L10.8,78.8L11.0,88.4L11.1,115.8L11.3,118.4L11.8,118.8L32.1,118.8L37.4,118.6L54.5,118.8L56.0,118.6L62.9,118.5L82.4,118.6L115.9,118.3L117.4,118.0L117.7,117.8L117.8,113.2L117.8,83.5L117.6,82.2L116.8,81.9L85.4,82.0L84.4,82.1L82.1,82.7L81.1,83.2L79.6,84.6L79.1,85.5L78.6,86.9L78.6,89.4L80.3,97.8L80.4,101.0L79.9,104.4L78.9,107.5L77.9,109.4L76.4,111.6L74.3,113.8L72.6,115.1L70.9,116.1L67.7,117.5L64.3,118.1L60.9,118.1L58.2,117.5L56.2,116.7L55.5,116.2L55.0,116.1L53.2,115.1L52.1,114.2L50.3,112.5L48.6,110.4L46.6,106.6L46.1,105.3L45.5,102.9L45.3,100.3L45.4,97.6L45.7,96.0L46.4,93.6L48.1,90.1L50.0,87.5L51.8,85.8L54.2,84.1L57.9,82.5L61.1,81.9L64.1,81.9L65.7,82.1L69.0,83.0L70.8,83.2L71.7,83.4L74.0,83.6L75.3,83.5L76.9,83.1L77.9,82.3L78.7,81.4L79.4,80.2L79.9,77.7L79.9,69.4L79.7,62.1L79.8,56.7L79.6,46.6L79.4,46.2L79.0,46.0L45.8,46.2L45.1,45.9L44.8,45.1L44.7,13.7L44.6,11.1L44.4,10.7L43.4,10.5L31.1,10.7L30.0,10.6L23.8,10.7L22.6,10.9L12.2,11.0Z M25.6,49.2L29.3,49.1L31.2,49.4L34.3,50.5L36.1,51.6L37.1,52.5L37.3,52.5L39.1,54.4L40.5,56.3L41.5,58.4L41.7,59.3L42.1,60.1L42.5,62.0L42.7,64.9L42.6,66.1L42.1,68.5L40.7,71.9L39.9,72.9L39.5,73.6L37.1,76.2L35.8,77.2L34.0,78.1L30.7,79.3L26.9,79.4L25.0,79.2L22.5,78.4L20.3,77.3L18.6,76.0L16.0,73.2L14.3,69.9L13.6,67.4L13.3,65.3L13.3,63.7L13.8,60.5L14.4,58.4L15.5,56.3L16.5,54.7L18.0,53.1L19.9,51.5L22.9,50.0Z M117.7,9.9L117.3,9.5L108.5,9.5L80.3,10.0L79.9,10.2L79.7,10.6L79.7,24.9L79.9,32.3L79.8,43.4L80.0,45.3L80.4,45.6L80.9,45.7L94.8,45.5L100.2,45.6L103.1,45.4L114.6,45.5L117.0,45.3L117.4,45.1L117.7,44.8Z" fill="#000" fill-rule="evenodd"/>
</svg>