<svg xmlns="http://www.w3.org/2000/svg" viewBox="0 0 128 128" width="128" height="128">
  <path d="M30.6,89.7L27.5,90.3L25.4,91.1L23.0,92.5L20.6,94.6L18.8,97.0L17.8,99.1L17.3,100.4L16.8,103.0L16.7,105.1L17.2,108.3L18.2,111.0L19.4,112.9L21.7,115.4L22.9,116.3L23.7,116.7L25.1,117.6L27.0,118.3L30.6,118.9L31.8,118.9L34.8,118.5L37.6,117.5L39.4,116.5L42.1,114.2L43.5,112.5L44.7,110.3L45.5,108.3L45.5,107.8L45.7,107.1L46.0,105.2L46.0,104.0L45.6,100.8L44.5,97.9L42.9,95.3L40.5,92.8L38.1,91.4L36.1,90.5L34.0,90.0Z M95.6,89.2L93.1,89.7L89.9,91.2L87.9,92.6L86.0,94.6L84.3,97.3L83.3,99.8L82.7,102.3L82.7,105.5L83.1,107.3L83.7,109.4L84.7,111.5L86.1,113.3L87.4,114.6L88.9,115.8L91.1,117.0L91.4,117.0L92.2,117.5L93.7,117.9L96.9,118.3L98.9,118.2L100.1,117.9L101.7,117.6L102.2,117.3L103.0,117.1L105.1,116.0L107.6,114.1L109.0,112.4L110.0,111.0L111.5,107.4L112.0,104.3L111.9,101.6L111.5,99.9L110.5,97.1L108.7,94.4L106.4,92.2L103.8,90.5L102.7,90.2L102.6,90.0L101.4,89.7L100.9,89.4L98.5,89.2Z M65.8,62.4L62.9,62.4L62.4,62.6L60.7,62.8L60.3,63.0L59.4,63.1L57.8,63.9L55.4,65.3L53.4,67.2L52.2,68.6L51.8,69.4L51.4,70.0L50.2,72.7L49.7,74.6L49.6,76.1L49.6,78.4L50.1,81.3L51.0,83.6L53.0,86.6L55.8,89.1L58.5,90.5L61.5,91.4L63.6,91.6L66.1,91.5L68.1,91.1L69.5,90.6L72.4,89.1L74.4,87.4L76.5,84.9L77.5,83.0L78.4,80.5L78.9,77.7L78.9,75.8L78.7,74.6L78.1,72.0L77.2,69.8L75.3,67.3L74.1,66.0L71.8,64.3L69.0,63.1L67.8,62.8Z M111.7,35.8L111.4,35.2L111.2,35.1L108.9,34.9L95.1,35.1L78.6,35.1L69.8,35.3L54.5,35.3L50.3,35.5L41.8,35.4L39.5,35.5L28.4,35.5L17.3,35.7L16.7,36.1L16.5,37.5L16.7,53.3L17.0,53.6L17.5,53.7L32.8,53.5L35.5,53.7L36.4,53.5L40.2,53.6L44.4,53.4L46.6,53.5L56.5,53.4L70.9,53.4L77.1,53.2L85.3,53.3L92.3,53.1L99.4,53.2L111.2,53.0L111.7,52.5L111.8,51.1Z M111.5,10.1L111.2,9.5L110.5,9.3L95.2,9.3L80.5,9.5L79.3,9.4L76.0,9.6L66.8,9.5L49.2,9.8L44.8,9.7L35.9,9.9L29.6,9.8L17.2,10.0L16.9,10.1L16.5,10.6L16.5,27.0L17.0,27.6L45.4,27.5L49.7,27.3L58.6,27.4L65.3,27.2L71.9,27.3L110.7,27.0L111.4,26.9L111.6,26.4Z" fill="#000" fill-rule="evenodd"/>
</svg>