<svg xmlns="http://www.w3.org/2000/svg" viewBox="0 0 128 128" width="128" height="128">
  <path d="M9.4,75.3L9.2,80.7L9.2,97.1L9.7,97.6L28.1,97.6L36.9,97.8L42.1,97.8L45.1,98.0L59.7,98.0L69.4,97.7L80.4,97.7L81.8,97.6L82.6,97.7L88.0,97.5L102.7,97.5L104.7,97.3L108.5,97.4L116.9,97.3L118.3,97.3L118.9,96.9L119.1,95.2L119.0,92.4L119.0,75.1L118.4,74.7L107.6,74.7L104.8,74.9L97.9,74.9L97.4,74.7L97.1,74.4L96.9,73.3L97.1,60.7L96.9,55.9L97.0,53.8L96.9,53.0L96.6,52.7L92.1,52.6L88.1,52.8L84.5,52.6L83.4,52.8L75.7,52.8L75.2,52.5L75.0,52.2L74.9,30.9L74.8,30.7L74.4,30.3L63.2,30.3L59.7,30.4L52.6,30.3L52.3,30.5L52.1,30.7L52.0,32.0L52.2,44.1L52.1,52.4L51.9,52.7L51.3,52.8L30.7,52.8L30.3,53.0L30.0,53.5L30.0,61.3L30.2,67.8L30.2,74.5L29.8,75.1L29.1,75.2L10.0,75.0Z" fill="#000" fill-rule="evenodd"/>
</svg>