<svg xmlns="http://www.w3.org/2000/svg" viewBox="0 0 128 128" width="128" height="128">
  <path d="M117.4,9.6L115.2,9.4L111.4,9.6L99.4,9.5L98.2,9.7L74.1,9.8L72.1,10.0L63.1,10.0L54.1,10.2L52.8,10.1L50.1,10.3L15.1,10.5L11.6,10.6L10.9,10.8L10.5,11.1L10.3,12.0L10.3,21.4L10.1,22.5L10.1,23.6L10.3,24.5L10.2,41.3L10.4,53.3L10.2,78.1L10.4,83.1L10.4,113.0L10.6,116.4L10.5,118.5L10.8,118.8L38.8,118.8L41.1,118.6L43.1,118.7L48.6,118.5L62.5,118.6L63.5,118.4L74.8,118.5L82.5,118.3L108.5,118.4L114.7,118.2L117.3,118.3L118.0,117.9L118.0,114.4L118.2,111.6L118.0,90.1L118.0,57.8L118.2,55.9L118.0,55.6L117.9,55.0L118.0,45.7L117.8,40.6L117.8,12.7L117.7,9.9Z M22.5,113.3L22.5,113.5L22.1,113.8L20.4,114.3L17.6,114.4L16.5,114.7L15.2,114.7L14.8,114.5L14.5,114.1L14.5,113.7L14.9,113.3L15.7,113.1L22.1,113.0Z M30.0,110.9L30.0,111.2L29.6,111.6L27.9,112.2L27.0,112.3L15.2,112.3L14.8,112.1L14.5,111.7L14.6,111.2L15.2,110.8L29.2,110.7L29.8,110.8Z M35.0,108.6L35.0,109.0L34.6,109.3L34.1,109.6L33.1,109.8L29.3,109.7L27.9,109.9L15.4,110.0L14.9,109.8L14.5,109.3L14.6,109.0L15.3,108.6L17.4,108.5L30.6,108.5L34.1,108.3Z M39.0,106.3L39.0,106.7L38.5,107.2L37.9,107.4L36.3,107.6L29.5,107.4L15.3,107.7L14.5,107.2L14.5,106.7L14.8,106.4L16.1,106.2L32.3,106.1L36.4,105.9L38.6,106.0Z M42.3,104.1L42.2,104.5L41.9,104.8L40.7,105.2L38.3,105.1L15.3,105.4L14.7,105.2L14.5,104.8L14.5,104.4L14.8,104.1L15.6,103.9L26.0,103.9L31.0,103.7L41.3,103.6L41.9,103.7Z M45.1,101.7L45.1,102.0L44.3,102.6L43.4,102.8L41.4,102.9L24.6,102.9L18.2,103.0L17.1,103.2L15.8,103.2L14.8,103.0L14.5,102.6L14.5,102.1L14.7,101.8L15.3,101.7L27.1,101.7L27.9,101.5L31.2,101.6L32.9,101.4L43.4,101.3L44.7,101.4Z M47.6,99.4L47.6,99.7L46.9,100.2L44.8,100.5L42.9,100.4L40.7,100.6L32.6,100.5L15.1,100.7L14.5,100.4L14.5,99.9L14.9,99.5L15.4,99.4L32.3,99.1L34.3,99.2L36.2,99.0L47.1,99.0Z M49.6,97.0L49.6,97.5L49.2,97.9L48.8,98.1L48.0,98.2L46.7,98.1L42.7,98.2L15.1,98.4L14.5,98.1L14.5,97.5L14.9,97.2L17.3,97.0L33.0,96.8L35.9,96.9L40.1,96.7L44.3,96.8L46.6,96.6L49.2,96.7Z M51.6,94.7L51.6,95.1L51.3,95.5L50.7,95.8L50.0,95.9L35.5,95.9L34.3,96.1L31.6,95.9L30.5,96.1L26.4,96.0L18.0,96.2L14.9,96.1L14.5,95.7L14.5,95.2L15.1,94.8L16.6,94.7L18.0,94.8L27.2,94.6L29.1,94.6L50.9,94.4L51.3,94.5Z M53.2,92.5L53.2,92.8L52.8,93.2L51.8,93.5L51.1,93.4L47.9,93.6L44.4,93.5L20.6,93.9L15.1,93.8L14.5,93.5L14.5,92.9L14.7,92.8L15.8,92.5L30.9,92.3L34.0,92.4L35.0,92.2L45.7,92.2L47.5,92.0L52.4,92.0Z M54.7,90.1L54.7,90.7L54.3,91.0L53.9,91.2L24.5,91.5L22.4,91.4L15.8,91.6L14.9,91.4L14.5,91.0L14.6,90.5L15.8,90.2L54.2,89.7Z M55.9,87.7L55.9,88.4L55.6,88.8L55.0,89.0L38.6,89.0L26.3,89.2L15.0,89.2L14.5,88.9L14.5,88.3L15.3,87.9L21.9,87.9L24.6,87.7L44.1,87.6L46.3,87.4L55.1,87.4L55.6,87.4Z M57.2,85.6L57.1,86.1L56.8,86.4L56.4,86.5L52.0,86.7L47.5,86.6L45.9,86.8L36.1,86.7L31.9,86.9L30.6,86.8L23.8,87.0L15.1,87.0L14.8,86.9L14.5,86.5L14.5,86.1L15.2,85.6L19.4,85.6L23.4,85.5L25.1,85.6L40.4,85.3L44.6,85.4L46.4,85.2L55.0,85.1L56.6,85.2Z M58.1,83.4L58.1,83.8L57.7,84.1L55.0,84.3L43.8,84.3L15.6,84.7L15.0,84.6L14.5,84.2L14.5,83.8L14.7,83.6L15.9,83.3L24.9,83.3L27.4,83.1L33.4,83.2L44.0,82.9L51.3,83.0L52.3,82.8L57.5,82.8L57.7,82.9Z M59.0,80.9L58.9,81.5L58.4,81.9L55.0,82.0L50.1,82.0L28.7,82.3L15.0,82.3L14.5,81.9L14.5,81.5L14.8,81.1L16.7,80.9L20.7,81.0L24.4,80.8L27.2,80.9L50.8,80.5L58.4,80.5Z M59.8,78.7L59.8,79.0L59.4,79.5L55.9,79.7L44.4,79.7L42.4,79.9L37.3,79.8L34.4,80.0L30.0,79.9L16.5,80.2L14.9,80.1L14.5,79.7L14.5,79.2L14.9,78.7L16.3,78.6L29.0,78.6L30.8,78.4L39.3,78.4L42.1,78.3L46.0,78.4L59.2,78.2L59.5,78.4Z M60.4,76.3L60.4,76.6L59.6,77.2L55.9,77.4L47.9,77.3L45.7,77.5L33.7,77.5L24.2,77.8L15.6,77.8L15.0,77.7L14.5,77.3L14.5,76.7L14.9,76.5L17.0,76.3L24.8,76.4L26.6,76.2L39.6,76.2L43.8,76.0L50.0,76.1L52.3,75.9L59.7,75.9L60.1,76.0Z M60.9,74.1L60.9,74.5L60.6,74.8L59.5,75.0L52.5,74.9L51.0,75.1L15.5,75.5L14.7,75.3L14.5,74.9L14.5,74.6L15.0,74.2L18.2,74.0L27.8,74.0L40.7,73.7L60.1,73.5Z M61.3,71.8L61.3,72.1L60.5,72.7L54.1,72.7L49.4,72.9L45.7,72.8L44.5,73.0L42.1,72.9L24.4,73.0L15.5,73.2L14.8,73.0L14.5,72.7L14.5,72.3L15.2,71.8L18.1,71.7L22.6,71.8L26.7,71.6L34.0,71.6L39.0,71.4L43.7,71.5L47.7,71.3L60.6,71.2L60.9,71.3Z M61.5,69.5L61.5,69.9L61.3,70.2L60.2,70.4L59.5,70.3L41.6,70.7L32.1,70.7L15.6,71.0L14.7,70.8L14.4,70.3L14.4,69.9L14.7,69.5L15.2,69.4L24.4,69.4L34.1,69.2L39.9,69.3L44.7,69.1L61.0,69.0L61.3,69.1Z M61.7,67.2L61.7,67.6L61.3,67.9L61.0,68.0L57.6,68.1L55.5,68.0L38.3,68.4L36.3,68.3L31.0,68.5L22.0,68.5L20.3,68.7L18.4,68.5L15.0,68.6L14.7,68.5L14.5,68.1L14.5,67.6L15.1,67.3L19.8,67.1L30.5,67.1L33.6,66.9L36.2,67.0L45.1,66.9L46.8,66.7L50.9,66.8L61.0,66.6L61.4,66.8Z M61.8,64.9L61.8,65.2L61.2,65.7L56.0,65.8L49.6,65.8L47.8,65.9L23.5,66.1L19.9,66.3L15.2,66.3L14.5,65.8L14.5,65.3L15.2,64.9L27.7,64.8L31.9,64.6L37.2,64.7L40.7,64.5L47.2,64.5L52.7,64.3L61.0,64.3L61.5,64.5Z M61.8,62.5L61.8,62.9L61.2,63.4L32.8,63.8L27.1,64.0L15.0,64.0L14.4,63.5L14.4,63.0L15.0,62.6L18.7,62.6L20.8,62.4L35.3,62.4L41.4,62.2L47.7,62.2L51.7,62.1L60.9,62.0L61.3,62.1Z M61.7,60.3L61.7,60.6L61.1,61.1L32.2,61.5L26.6,61.7L14.9,61.7L14.5,61.3L14.5,60.7L14.8,60.4L16.6,60.2L17.1,60.3L24.0,60.1L60.8,59.7L61.3,59.9Z M61.4,57.9L61.4,58.4L61.1,58.7L50.7,59.0L46.1,58.9L40.3,59.1L32.5,59.1L28.7,59.3L15.0,59.3L14.4,58.8L14.4,58.6L15.1,58.0L31.9,57.7L49.1,57.6L51.0,57.4L60.8,57.4Z M61.1,55.6L61.1,56.0L60.8,56.4L59.2,56.7L53.7,56.6L15.7,57.1L14.7,56.9L14.5,56.6L14.5,56.0L15.1,55.7L19.1,55.5L34.0,55.5L60.0,55.0L60.7,55.2Z M60.7,53.3L60.7,53.6L60.3,54.1L59.0,54.3L50.5,54.3L43.4,54.5L42.1,54.4L38.7,54.6L30.7,54.6L25.0,54.8L14.9,54.8L14.4,54.3L14.4,53.9L14.9,53.4L19.5,53.2L28.2,53.2L32.2,53.1L36.4,53.2L40.4,53.0L43.9,53.1L46.0,52.9L54.1,53.0L59.5,52.7L60.2,52.9Z M60.1,51.2L60.0,51.5L59.5,51.9L51.4,51.9L49.3,52.1L43.7,52.0L37.9,52.2L27.7,52.2L24.4,52.4L21.4,52.3L16.3,52.5L14.9,52.4L14.4,51.8L14.4,51.6L14.7,51.3L15.8,51.1L28.7,51.0L34.2,50.8L45.1,50.8L47.7,50.6L49.7,50.7L53.7,50.5L58.6,50.5L59.5,50.6Z M59.5,48.9L59.4,49.3L58.8,49.6L57.3,49.6L55.1,49.7L42.3,49.7L39.8,49.9L37.3,49.8L33.1,50.0L25.5,49.9L15.0,50.1L14.5,49.8L14.5,49.3L15.3,48.8L25.7,48.7L29.7,48.5L43.3,48.5L58.7,48.2L59.1,48.4Z M58.6,46.4L58.6,46.9L58.0,47.4L54.4,47.3L53.2,47.5L43.9,47.5L34.6,47.8L25.3,47.7L16.3,47.9L14.5,47.7L14.5,47.0L14.7,46.6L15.6,46.4L25.2,46.4L29.2,46.2L31.1,46.3L46.0,46.0L47.6,46.1L50.5,46.0L57.4,46.0L58.1,46.0Z M57.7,44.2L57.7,44.6L57.4,44.9L56.6,45.1L54.1,45.0L45.5,45.3L42.6,45.2L37.6,45.4L34.3,45.3L31.9,45.5L23.6,45.4L21.7,45.6L15.2,45.6L14.5,45.3L14.4,44.6L14.7,44.2L15.2,44.2L21.3,44.2L25.7,44.0L38.1,44.0L42.3,43.8L46.1,43.9L50.8,43.7L57.1,43.7Z M56.6,42.0L56.5,42.5L55.6,42.8L54.5,42.7L49.3,42.9L46.7,42.8L43.6,43.0L31.6,43.0L26.7,43.2L15.8,43.3L14.9,43.2L14.4,42.7L14.5,42.4L14.7,42.1L15.4,41.9L44.4,41.5L44.9,41.6L46.9,41.4L48.2,41.5L54.9,41.3L55.9,41.4Z M55.5,39.8L55.5,40.2L54.9,40.6L54.0,40.6L41.2,40.6L37.7,40.8L32.5,40.7L15.2,41.0L14.5,40.6L14.5,40.1L15.2,39.6L21.8,39.6L28.0,39.3L34.3,39.4L39.3,39.2L48.7,39.2L50.0,39.0L54.2,39.0L55.0,39.2Z M54.1,37.5L54.1,37.9L53.5,38.3L42.5,38.3L38.3,38.5L30.0,38.5L22.2,38.7L20.8,38.6L15.9,38.8L14.8,38.7L14.4,38.3L14.4,37.9L14.7,37.5L15.2,37.3L17.8,37.2L26.2,37.2L47.4,36.9L48.4,37.0L53.2,36.8L53.7,37.0Z M52.4,35.2L52.3,35.8L51.9,36.0L49.3,36.1L34.0,36.1L16.3,36.5L14.9,36.4L14.4,35.9L14.4,35.6L15.1,35.1L19.9,35.1L23.0,34.9L26.7,35.0L34.5,34.7L38.6,34.8L44.6,34.7L46.4,34.5L50.9,34.5L51.9,34.7Z M50.8,33.0L50.7,33.4L50.3,33.7L46.3,33.8L44.0,33.7L27.3,34.0L24.2,33.9L22.7,34.1L15.2,34.1L14.6,33.9L14.4,33.6L14.4,33.2L14.6,32.9L15.3,32.7L16.3,32.8L36.9,32.4L37.1,32.3L37.2,31.8L36.9,31.6L15.3,31.8L14.7,31.6L14.5,31.4L14.5,31.0L14.6,30.7L15.1,30.5L21.8,30.3L36.8,30.2L40.3,30.0L47.6,29.9L48.3,30.1L48.8,30.7L48.8,31.2L48.7,31.4L38.3,31.6L37.9,31.7L37.9,32.0L38.2,32.3L38.6,32.4L49.8,32.2L50.4,32.4Z M46.8,28.5L46.8,28.8L46.6,29.0L45.9,29.2L43.1,29.3L30.8,29.3L15.0,29.6L14.5,29.1L14.5,28.6L14.7,28.3L16.3,28.1L39.5,27.8L41.6,27.9L44.8,27.7L46.0,27.9L46.5,28.1Z M44.2,26.2L43.9,26.8L43.3,27.0L36.3,26.9L31.2,27.1L14.9,27.3L14.4,26.9L14.4,26.4L14.7,26.1L15.2,25.9L23.2,25.7L29.0,25.8L30.9,25.6L39.4,25.6L41.9,25.4L43.4,25.6L43.8,25.8Z M41.3,23.9L41.3,24.4L40.9,24.6L36.4,24.6L32.3,24.8L28.8,24.7L24.7,24.9L21.8,24.8L15.7,25.0L14.8,24.8L14.5,24.4L14.5,24.1L15.2,23.5L16.6,23.6L28.3,23.3L40.2,23.2L40.9,23.5Z M37.9,21.8L37.9,22.0L37.3,22.5L31.3,22.4L22.6,22.6L19.3,22.6L16.0,22.7L14.9,22.6L14.4,22.2L14.5,21.7L14.7,21.4L15.1,21.3L36.2,20.9L37.4,21.2Z M33.7,19.4L33.7,19.7L33.3,20.1L32.5,20.3L28.0,20.2L15.7,20.4L14.7,20.3L14.4,19.9L14.4,19.4L14.8,19.0L21.2,19.0L24.0,18.8L25.0,18.9L32.4,18.7L33.4,19.0Z M28.5,17.2L28.5,17.5L27.9,17.9L16.3,18.1L15.0,18.0L14.5,17.6L14.5,17.2L14.7,16.9L15.6,16.7L26.3,16.5L27.6,16.8Z M14.4,14.9L14.8,14.4L16.7,14.4L19.8,14.9L20.2,15.2L20.1,15.5L19.9,15.6L15.2,15.8L14.5,15.4Z M112.5,13.6L113.2,13.7L113.6,14.1L113.9,15.8L113.7,23.4L113.9,25.8L113.9,62.2L114.1,63.1L113.9,66.7L114.1,71.4L114.1,113.4L113.8,114.0L113.5,114.3L113.2,114.4L108.5,114.0L105.4,113.4L103.2,112.7L102.4,112.6L101.3,112.2L100.2,111.9L99.6,111.5L98.5,111.3L97.0,110.6L96.2,110.4L95.7,110.0L94.3,109.5L89.3,106.8L88.6,106.2L86.4,104.8L82.7,101.8L78.8,98.1L78.7,97.8L77.2,96.2L76.5,95.1L75.0,93.3L71.8,88.2L69.9,84.3L67.7,78.4L66.9,75.4L66.1,70.3L65.7,66.2L65.7,61.3L66.0,59.6L66.2,56.9L66.5,56.0L66.7,54.1L67.0,53.0L67.2,51.6L68.4,47.8L69.3,45.2L69.8,44.3L69.9,43.8L72.1,39.4L73.5,37.2L74.0,36.0L77.9,31.0L80.9,28.0L81.6,27.1L86.0,23.5L89.8,20.9L92.0,19.6L93.4,19.0L93.8,18.7L95.5,18.0L97.3,17.1L97.6,17.1L98.2,16.7L99.7,16.3L101.1,15.7L101.9,15.6L102.4,15.4L103.1,15.3L104.5,14.8L108.3,14.2L109.2,13.9Z" fill="#000" fill-rule="evenodd"/>
</svg>