<svg xmlns="http://www.w3.org/2000/svg" viewBox="0 0 128 128" width="128" height="128">
  <path d="M95.4,110.6L94.7,111.2L94.2,112.1L94.2,113.0L94.6,113.8L95.5,114.3L96.2,114.5L97.4,114.5L98.4,114.1L99.2,113.0L99.2,112.0L98.9,111.3L98.3,110.7L97.3,110.4L96.6,110.4Z M51.5,111.3L51.3,111.9L51.3,112.8L51.6,113.5L52.2,114.1L53.5,114.4L54.2,114.4L55.0,114.2L55.8,113.6L56.1,112.6L56.1,112.0L55.8,111.1L55.0,110.6L54.2,110.4L52.8,110.4L52.2,110.6Z M33.6,110.6L32.9,111.4L32.8,112.5L33.2,113.5L33.7,114.0L34.4,114.3L35.7,114.3L36.4,114.3L37.3,113.6L37.7,112.5L37.7,112.0L37.4,111.1L37.0,110.7L36.3,110.4L35.5,110.2L34.3,110.3Z M43.5,109.6L42.7,110.2L42.2,111.0L42.1,112.5L42.5,113.3L43.2,114.1L44.2,114.4L44.9,114.4L45.5,114.3L46.6,113.3L46.7,112.9L46.8,111.5L46.6,110.6L46.1,110.0L45.6,109.7L44.8,109.5Z M86.9,109.5L86.2,109.9L85.5,110.7L85.3,111.7L85.5,113.0L86.0,113.8L87.0,114.4L88.7,114.4L89.2,114.2L90.0,113.2L90.3,112.1L90.1,110.8L89.8,110.4L88.7,109.5Z M77.7,105.5L76.8,106.1L76.1,107.0L76.1,108.8L76.3,109.3L77.0,110.0L77.6,110.3L79.1,110.3L79.6,110.0L80.4,109.0L80.5,107.1L80.2,106.5L79.4,105.6Z M95.1,105.8L94.5,106.6L94.4,107.3L94.5,107.8L95.4,108.8L96.3,109.1L97.3,109.1L98.0,108.8L98.7,108.0L98.9,107.6L98.9,106.6L98.7,106.2L97.9,105.4L96.0,105.3Z M33.8,105.5L33.1,106.5L33.1,107.5L33.8,108.5L34.5,108.8L35.7,108.9L36.3,108.8L37.3,107.9L37.4,106.8L37.1,106.1L36.8,105.8L35.7,105.2L34.3,105.2Z M51.9,105.8L51.4,106.6L51.4,107.2L51.6,107.9L52.2,108.6L52.9,108.8L54.1,108.9L54.9,108.8L55.7,108.1L55.8,106.5L55.8,106.2L55.1,105.5L54.5,105.2L53.2,105.1L52.3,105.4Z M10.3,9.6L10.1,9.9L10.0,10.6L10.1,21.3L9.9,25.7L9.9,65.9L10.1,88.8L10.1,113.3L10.3,118.5L10.9,118.9L17.6,118.9L31.6,118.5L35.9,118.6L55.8,118.3L62.1,118.4L80.2,118.1L112.4,118.1L117.6,118.0L118.2,117.9L118.4,116.4L118.4,89.1L118.2,81.0L118.2,43.7L118.4,42.3L118.4,41.1L118.2,40.3L118.4,15.3L118.3,10.4L118.1,10.1L117.7,9.8L116.1,9.7L87.3,9.8L69.8,9.6L61.1,9.7L51.1,9.5L47.8,9.6L34.7,9.4L11.2,9.4Z M70.3,110.0L70.3,110.8L69.6,111.3L60.3,111.2L59.4,111.1L58.9,110.6L58.9,110.2L59.2,109.9L60.4,109.6L65.2,109.7L69.1,109.5L70.0,109.7Z M96.5,104.1L97.4,104.1L98.5,104.4L99.3,104.9L100.3,105.9L100.6,106.8L100.5,108.3L99.8,109.2L99.7,109.8L100.6,110.7L101.1,111.7L101.0,113.5L100.4,114.5L99.7,115.3L98.8,115.8L97.2,116.1L95.7,116.1L94.2,115.5L93.4,114.9L92.7,114.2L92.3,112.9L92.5,111.3L93.6,109.9L93.6,109.5L92.6,107.8L92.6,106.5L92.9,105.9L93.7,105.1L94.9,104.4Z M87.4,104.1L88.9,104.1L90.5,104.7L91.0,105.2L91.4,105.9L91.3,106.6L90.2,106.6L88.8,105.2L87.2,105.2L86.7,105.6L85.9,106.5L85.4,107.8L85.4,108.4L85.6,108.6L86.3,108.6L87.7,108.1L89.7,108.4L90.4,108.8L91.4,109.8L92.1,111.8L92.1,112.7L91.2,114.5L89.9,115.6L88.4,116.1L87.6,116.1L86.4,115.8L85.0,115.0L84.2,114.1L83.7,112.9L83.4,111.5L83.4,109.4L83.7,107.2L84.3,106.2L85.1,105.1L86.5,104.4Z M28.6,104.1L29.6,104.2L29.8,104.4L29.9,105.1L30.0,110.9L29.8,115.6L29.4,115.8L28.6,115.8L28.1,115.2L27.8,107.7L27.4,107.3L25.9,107.2L25.3,106.9L25.3,106.5L25.5,106.3L27.3,105.5Z M78.7,104.0L79.9,104.3L80.5,104.6L81.6,105.5L82.4,107.0L82.6,108.0L82.6,112.0L82.4,112.8L81.4,114.6L80.8,115.1L78.9,116.0L76.8,116.1L75.8,115.6L74.7,114.5L74.5,114.2L74.6,113.6L75.0,113.3L75.9,113.4L77.3,114.6L78.8,114.7L79.4,114.4L80.4,113.3L80.8,112.3L80.9,111.5L80.8,111.3L80.2,111.2L79.1,111.7L77.4,111.8L75.9,111.3L74.8,110.4L74.3,109.4L74.1,108.7L74.2,106.8L74.9,105.5L75.8,104.7L77.4,104.1Z M72.2,104.0L72.8,104.0L73.2,104.4L73.1,110.0L73.4,114.4L73.2,115.5L72.7,115.9L72.1,115.9L71.7,115.6L71.5,115.2L71.6,114.7L71.4,108.0L71.0,107.5L69.6,107.4L68.8,107.0L68.8,106.5L69.0,106.3L69.9,106.1L70.7,105.6L71.4,105.0L71.6,104.5Z M33.7,104.1L35.8,103.9L37.4,104.3L38.5,105.1L39.1,106.3L39.1,108.1L38.4,109.2L38.4,109.9L39.3,110.8L39.6,111.8L39.6,112.6L39.3,113.6L39.0,114.3L38.0,115.2L36.9,115.8L34.8,115.9L33.8,115.7L32.3,115.0L31.6,114.3L31.0,113.5L30.9,111.4L31.1,110.9L32.1,109.7L32.0,109.0L31.6,108.5L31.3,107.5L31.5,106.0L32.3,104.8Z M52.7,103.9L54.4,103.8L55.4,104.1L56.2,104.6L57.3,105.5L57.7,107.0L57.6,108.0L56.8,109.3L56.8,109.7L57.9,111.3L58.2,112.2L58.1,112.9L57.4,114.4L56.7,115.1L55.4,115.8L53.0,115.9L51.8,115.6L50.4,114.7L49.5,113.6L49.3,113.1L49.2,112.2L49.4,111.1L50.4,109.8L50.4,109.1L49.8,108.2L49.5,107.2L49.9,105.9L51.1,104.6L51.8,104.2Z M45.9,103.8L46.7,104.1L47.6,104.8L48.3,105.7L48.3,106.1L47.8,106.5L47.0,106.5L45.8,105.4L44.9,105.1L43.7,105.2L42.6,106.2L42.1,107.7L42.1,108.3L42.3,108.5L42.7,108.5L44.2,107.9L45.6,107.9L46.6,108.3L48.0,109.4L48.6,110.5L48.8,112.3L48.0,114.3L47.1,115.2L46.3,115.7L44.8,116.0L43.5,115.8L42.8,115.5L41.7,114.8L40.9,113.9L40.5,113.2L40.0,111.7L40.1,109.1L40.6,106.9L41.2,105.7L42.2,104.8L43.7,104.0L44.7,103.8Z M28.1,28.4L28.6,27.9L29.6,27.8L54.3,28.0L55.8,27.9L66.1,28.1L99.0,28.1L99.7,28.3L100.1,28.9L100.0,32.4L100.2,34.2L100.0,42.3L100.0,52.5L100.2,61.7L100.2,94.8L100.0,95.8L100.0,97.3L100.2,97.9L100.2,99.7L99.8,100.0L99.6,99.7L99.7,96.0L99.6,95.7L99.2,89.7L97.9,85.3L96.8,82.3L95.8,80.1L94.2,77.3L92.4,74.8L90.3,72.2L87.2,69.2L83.3,66.2L80.9,64.9L80.6,64.7L80.1,64.6L79.3,64.0L77.2,63.1L75.0,62.3L73.0,61.8L72.4,61.5L70.0,61.1L66.0,60.6L62.4,60.6L61.2,60.8L59.1,60.8L57.7,61.3L55.8,61.5L52.9,62.4L51.4,63.1L50.4,63.3L49.6,63.8L49.1,63.9L48.8,64.2L48.4,64.3L46.0,65.6L45.6,66.0L44.5,66.6L42.3,68.2L39.0,71.1L35.8,74.8L33.3,78.8L31.1,83.4L29.8,87.5L28.9,92.0L28.9,98.0L28.7,99.9L28.4,100.1L28.3,99.9L28.3,99.4L28.2,98.9L28.1,96.0L28.1,80.9L27.9,79.5L27.9,39.7L28.1,36.2Z" fill="#000" fill-rule="evenodd"/>
</svg>