<svg xmlns="http://www.w3.org/2000/svg" viewBox="0 0 128 128" width="128" height="128">
  <path d="M102.3,9.2L83.1,9.2L76.6,9.3L62.5,9.3L58.6,9.5L26.4,9.6L25.8,9.8L25.7,16.6L25.8,24.3L25.8,33.4L26.0,36.7L25.9,49.7L26.1,59.3L26.0,68.3L26.2,77.2L26.1,106.1L26.2,118.6L26.3,119.0L102.2,119.0L102.4,118.6L102.2,99.7L102.2,63.5L102.3,61.9L102.2,52.5L102.5,41.3L102.4,30.5L102.6,9.4Z M100.8,10.8L101.0,11.0L101.0,11.4L100.2,13.1L100.0,13.8L99.8,14.1L99.6,14.8L98.9,16.0L96.8,21.0L96.6,21.4L95.8,23.4L94.8,25.3L94.5,26.3L93.7,28.0L93.2,29.4L92.8,29.9L92.3,31.2L91.2,33.6L90.4,35.7L90.0,36.4L89.2,38.4L87.6,41.8L87.2,42.8L85.3,47.0L85.1,47.8L84.0,49.9L83.9,50.3L82.1,54.5L82.2,55.0L82.9,55.7L88.2,60.1L89.2,60.7L90.4,61.8L92.0,63.0L96.9,67.0L98.9,68.5L100.2,69.7L100.6,70.0L100.6,70.2L100.4,70.4L98.9,70.6L81.2,71.9L80.5,72.0L80.1,72.3L80.1,90.9L80.1,91.5L79.8,91.9L79.5,91.9L78.6,91.1L77.4,89.7L73.6,86.0L73.4,85.6L67.8,80.1L67.0,80.1L63.4,83.6L62.7,84.1L57.9,88.6L56.8,89.9L54.7,91.6L49.4,96.8L48.7,97.2L48.3,97.3L48.1,97.5L47.9,98.0L46.9,99.2L40.0,105.5L32.9,112.4L28.0,116.9L27.5,117.3L27.1,117.2L27.1,116.9L27.9,115.5L28.1,114.8L28.9,113.3L28.9,113.1L29.7,111.7L29.9,111.0L30.7,109.5L30.9,108.9L31.6,107.7L31.7,107.3L32.2,106.5L32.2,106.2L32.4,105.9L32.7,105.1L33.4,103.8L34.2,102.0L35.7,99.2L36.3,97.5L37.5,95.3L38.0,93.9L39.0,92.2L40.9,87.9L41.7,86.4L41.8,86.0L42.0,85.7L43.0,83.4L43.9,81.7L44.0,81.2L44.4,80.5L44.5,80.1L45.2,78.9L45.4,78.2L46.8,75.4L47.0,74.6L46.6,74.4L45.1,74.4L43.5,74.6L39.7,74.8L37.1,75.1L32.2,75.3L30.3,75.6L27.9,75.6L27.7,75.3L32.5,71.1L33.7,69.9L34.5,69.3L38.2,65.9L39.7,64.8L40.4,64.0L43.4,61.5L46.9,58.3L48.9,56.5L49.7,55.7L49.8,55.2L49.1,54.1L48.1,51.8L47.7,51.3L47.5,50.7L46.3,48.6L44.3,44.7L44.1,44.5L42.8,41.8L41.3,39.4L41.1,38.7L40.9,38.5L40.7,37.9L39.9,36.7L37.0,30.9L36.7,30.7L36.7,30.5L35.3,27.7L34.9,27.3L34.8,26.8L33.1,23.8L32.2,22.0L32.0,21.4L31.0,19.6L29.2,16.1L29.0,15.8L27.4,12.7L27.2,12.5L26.9,12.0L27.0,11.6L27.5,11.6L30.6,14.0L32.4,15.5L33.4,16.2L34.6,17.3L35.2,17.6L38.7,20.4L40.9,22.4L41.5,22.7L42.8,23.9L43.2,24.0L45.1,25.6L46.8,26.8L52.8,31.8L60.7,38.0L61.4,38.6L62.5,39.4L64.8,41.3L65.2,41.6L65.6,41.6L68.7,39.0L77.8,30.9L78.1,30.8L82.6,26.7L83.8,25.8L85.6,24.0L87.0,22.9L92.3,18.0L93.6,17.1L100.3,11.1Z" fill="#000" fill-rule="evenodd"/>
</svg>