<svg xmlns="http://www.w3.org/2000/svg" viewBox="0 0 128 128" width="128" height="128">
  <path d="M34.0,9.9L33.5,10.5L33.4,12.6L32.9,15.2L32.5,16.4L31.4,18.6L31.3,19.2L30.4,20.8L29.4,22.3L27.7,24.4L26.5,25.6L26.1,25.8L25.0,27.0L23.3,28.2L23.1,28.2L21.9,29.0L21.0,29.3L20.7,29.6L19.3,30.2L16.6,31.2L14.5,31.7L13.1,31.7L12.5,31.9L10.3,32.0L9.9,32.3L9.8,33.5L9.8,43.4L9.9,44.1L10.1,44.3L10.9,44.4L31.8,45.0L33.2,45.2L33.7,45.7L33.8,81.8L33.7,82.1L33.1,82.6L16.0,82.3L9.8,82.4L9.6,82.7L9.5,83.6L9.6,93.3L9.8,93.6L12.1,93.8L15.5,94.4L18.6,95.4L22.2,97.2L25.2,99.4L27.1,101.2L28.6,102.9L30.4,105.6L31.9,108.4L32.4,110.0L32.7,110.4L33.4,113.4L33.8,117.3L34.0,117.8L34.6,118.0L35.5,117.9L38.6,118.1L45.7,118.1L46.2,117.7L46.2,97.9L46.3,95.5L46.5,94.7L46.7,94.6L47.4,94.4L55.3,94.4L61.5,94.6L83.6,94.7L84.1,95.3L84.2,96.4L84.2,112.2L84.4,118.1L84.7,118.3L85.7,118.4L95.2,118.4L95.5,118.1L95.5,117.2L96.2,113.1L97.1,110.7L97.2,110.2L98.8,107.0L99.5,105.7L101.1,103.7L104.7,100.3L107.3,98.6L110.4,97.1L111.2,96.9L112.1,96.4L115.4,95.7L118.5,95.4L118.8,95.1L118.9,94.5L118.8,84.2L118.6,83.8L118.2,83.7L112.6,83.7L96.5,83.4L95.9,82.9L95.7,81.5L95.7,47.3L95.8,47.0L96.3,46.6L97.1,46.5L105.4,46.6L107.9,46.8L113.3,46.9L118.5,46.8L118.8,46.4L118.9,35.7L118.7,34.8L118.3,34.5L116.5,34.4L113.7,33.9L112.0,33.3L111.6,33.3L110.9,33.0L110.0,32.7L108.3,31.7L106.6,31.1L102.6,27.8L100.2,25.0L98.8,22.8L97.7,20.7L96.2,16.2L95.6,11.9L95.0,11.7L91.6,11.7L85.4,11.4L84.2,11.6L84.0,12.1L84.0,33.2L83.9,33.5L83.6,33.9L82.1,34.1L80.5,33.9L60.2,33.5L58.4,33.3L49.3,33.3L46.4,33.0L46.0,32.5L45.9,31.7L45.9,20.4L45.8,13.7L45.9,10.9L45.7,10.4L45.3,10.2L44.3,10.1L38.0,10.0L35.4,9.8Z M61.5,45.9L63.2,45.8L65.4,45.8L68.0,46.0L68.3,46.2L70.3,46.6L71.6,47.1L72.4,47.5L73.9,48.1L75.5,49.1L77.2,50.5L79.4,52.7L80.2,53.9L80.8,54.7L81.2,55.5L81.7,56.1L82.3,57.6L82.5,58.5L82.9,59.2L83.6,62.3L83.6,66.5L83.3,68.3L82.8,69.6L82.5,71.1L80.9,74.2L79.5,76.2L76.7,78.9L75.9,79.3L74.7,80.3L72.5,81.4L68.9,82.5L65.9,82.9L62.8,82.8L60.2,82.3L59.2,81.9L58.2,81.7L55.0,80.2L52.3,78.2L49.3,74.8L48.0,72.7L48.0,72.5L47.1,70.6L46.4,68.5L45.9,65.7L45.9,61.9L46.5,59.0L47.3,57.4L47.6,56.1L48.2,55.1L50.7,51.7L51.9,50.6L53.9,49.0L56.4,47.5L59.5,46.4Z" fill="#000" fill-rule="evenodd"/>
</svg>