<svg xmlns="http://www.w3.org/2000/svg" viewBox="0 0 128 128" width="128" height="128">
  <path d="M9.9,9.7L9.6,10.1L9.4,25.0L9.6,37.1L9.6,45.1L9.4,47.0L9.6,48.9L9.4,52.0L9.6,53.9L9.6,57.6L9.4,58.9L9.6,71.3L9.5,116.9L9.7,118.3L10.0,118.7L10.4,118.8L14.8,118.9L20.8,118.7L65.9,118.7L68.2,118.9L70.8,118.7L110.9,118.7L114.8,118.9L118.5,118.8L118.8,118.5L118.8,114.0L118.6,113.1L118.9,109.7L118.7,108.2L118.7,88.9L118.5,83.5L118.5,47.5L118.3,42.8L118.3,14.1L118.2,10.0L117.4,9.5L112.7,9.5L109.3,9.7L108.8,9.5L92.9,9.6L88.9,9.4L69.2,9.4L68.1,9.6L67.1,9.4L57.5,9.4L52.0,9.6L49.1,9.4L21.2,9.4L19.2,9.6L17.9,9.4L13.8,9.6L12.1,9.5Z M95.4,13.3L96.8,13.6L99.1,14.4L102.0,16.0L104.9,19.0L106.0,20.8L106.7,22.3L107.3,23.9L107.7,26.4L107.6,29.8L107.1,32.2L106.4,34.0L104.8,36.7L103.2,38.5L101.3,40.0L98.3,41.6L97.0,42.0L94.1,42.5L92.5,42.5L91.0,42.3L90.1,42.0L88.8,41.8L87.9,41.4L87.2,41.4L86.8,41.7L85.8,43.6L85.5,43.9L82.7,48.9L82.2,49.4L81.7,50.6L80.3,52.7L79.5,54.3L78.8,55.3L78.1,56.9L76.6,59.2L76.4,59.8L75.1,61.6L74.2,63.5L74.2,64.5L74.6,65.5L75.4,66.6L75.8,67.6L76.7,68.8L78.9,72.9L80.0,74.4L80.5,75.5L82.2,78.4L82.4,78.9L83.5,80.5L87.0,86.7L87.3,86.8L88.2,86.8L89.6,86.4L91.6,86.0L94.1,85.9L95.2,86.0L97.2,86.5L99.4,87.3L101.6,88.6L102.6,89.5L104.4,91.4L105.7,93.1L107.0,96.1L107.5,99.1L107.5,101.1L107.3,102.8L106.9,104.7L105.6,107.7L104.4,109.3L102.4,111.5L101.1,112.4L101.0,112.4L99.4,113.5L96.9,114.4L94.8,114.8L92.2,115.0L90.7,114.8L87.9,113.9L85.2,112.6L83.6,111.4L82.2,110.2L81.3,108.9L80.3,107.3L79.2,105.2L78.6,101.5L78.6,99.4L79.1,96.5L79.8,94.9L79.9,94.4L80.9,92.5L82.4,90.6L84.2,88.9L84.5,88.4L84.5,88.0L83.3,85.6L80.8,81.8L80.7,81.4L79.3,79.1L78.6,77.6L77.9,76.8L77.4,75.6L74.9,71.6L73.5,68.9L72.8,68.0L71.8,66.2L71.1,65.6L69.0,65.4L53.6,65.6L50.2,65.5L45.8,65.7L45.4,65.9L44.9,66.5L44.5,68.4L43.0,71.7L41.7,73.5L40.0,75.3L37.2,77.2L36.1,77.7L34.4,78.3L33.1,78.5L32.4,78.8L29.4,78.8L26.1,78.2L24.0,77.4L22.0,76.0L20.7,75.0L19.2,73.6L17.6,71.4L16.4,68.5L16.0,66.4L15.9,62.6L16.5,59.6L17.1,58.2L18.2,56.1L19.6,54.3L21.2,52.7L24.0,50.9L24.3,50.9L25.6,50.3L27.0,49.8L28.9,49.5L32.4,49.5L35.2,50.2L36.8,50.8L39.6,52.5L41.8,54.7L43.0,56.4L44.3,59.0L45.0,62.0L45.7,62.7L57.3,62.9L70.1,62.9L71.4,62.6L73.1,60.1L74.4,57.5L76.4,54.4L77.2,52.8L80.3,47.8L80.9,46.4L82.2,44.3L82.4,43.8L83.4,42.5L84.3,40.4L84.2,39.4L82.0,37.1L80.8,35.1L80.4,34.6L80.2,33.8L79.6,32.8L79.2,31.5L78.8,29.0L79.0,25.2L79.7,22.9L80.4,21.3L81.8,19.0L82.9,17.7L85.2,15.8L87.5,14.4L91.0,13.4Z" fill="#000" fill-rule="evenodd"/>
</svg>