<svg xmlns="http://www.w3.org/2000/svg" viewBox="0 0 128 128" width="128" height="128">
  <path d="M116.6,68.8L116.2,68.4L115.8,68.4L114.5,69.1L113.2,69.4L112.9,69.6L109.0,70.8L108.7,71.1L106.6,71.7L102.4,73.3L101.4,73.5L100.0,74.0L98.7,74.3L98.5,74.5L97.5,74.7L95.0,75.5L93.9,75.6L90.6,76.5L89.6,76.6L88.4,77.0L87.7,77.0L86.1,77.4L83.8,77.6L82.1,77.9L79.4,78.2L79.0,78.4L75.3,78.7L73.6,79.0L69.7,79.0L67.6,79.3L58.4,79.2L55.8,79.0L51.7,78.9L50.3,78.6L47.8,78.5L37.3,76.9L36.7,76.6L34.9,76.3L33.1,75.9L32.0,75.4L31.3,75.3L30.7,75.0L27.8,74.4L25.1,73.5L23.7,73.2L23.0,72.8L22.1,72.7L21.7,72.4L19.8,71.8L19.2,71.4L17.9,71.1L16.9,70.8L16.2,70.3L15.4,70.1L14.9,69.7L12.3,68.8L12.0,68.8L11.5,69.2L11.8,81.8L11.7,101.5L11.9,108.2L11.9,115.0L12.1,118.5L12.5,118.9L14.9,119.0L21.1,118.7L43.9,118.5L45.9,118.3L50.8,118.4L63.4,118.1L71.2,118.1L74.9,117.9L89.5,117.9L98.6,117.7L113.1,117.8L115.9,117.5L116.5,116.9L116.5,108.3L116.7,103.8Z M38.2,110.9L38.6,110.6L39.1,110.7L39.3,110.9L39.2,111.6L38.5,111.7L38.2,111.4Z M116.7,9.8L116.0,9.4L111.5,9.5L99.5,9.6L96.0,9.8L84.5,9.8L78.8,10.1L69.0,10.1L67.5,10.3L64.3,10.2L61.2,10.4L58.2,10.3L47.2,10.6L39.1,10.5L34.4,10.7L24.2,10.7L12.0,10.9L11.6,11.2L11.4,11.7L11.4,28.0L11.6,34.4L11.5,40.7L11.7,48.6L12.1,49.0L13.1,49.6L13.5,49.7L15.4,50.6L19.3,52.2L21.3,52.8L21.7,53.1L23.6,53.7L24.6,53.9L25.7,54.4L26.0,54.4L28.4,55.2L29.6,55.4L33.2,56.6L35.9,57.2L36.5,57.2L41.3,58.4L43.0,58.5L44.7,58.8L47.0,59.0L48.9,59.4L51.2,59.5L52.7,59.8L55.6,59.9L58.0,59.9L60.0,60.1L64.7,60.1L66.8,59.9L72.2,59.9L73.6,59.6L76.3,59.5L83.8,58.4L85.2,58.0L87.0,57.8L87.7,57.5L90.9,57.0L95.4,55.8L95.9,55.6L98.5,54.9L101.7,53.8L103.9,53.2L104.9,52.8L107.1,52.0L107.9,51.6L109.4,51.1L110.2,50.6L113.1,49.5L116.0,48.0L116.5,47.6L116.7,47.2Z" fill="#000" fill-rule="evenodd"/>
</svg>