<svg xmlns="http://www.w3.org/2000/svg" viewBox="0 0 128 128" width="128" height="128">
  <path d="M118.3,10.1L118.0,9.8L117.3,9.6L91.2,9.5L80.8,9.7L69.4,9.6L64.7,9.8L64.1,10.0L61.5,9.8L52.1,9.7L51.0,9.9L48.2,9.8L44.0,10.0L12.1,10.0L10.7,10.3L10.4,10.7L10.2,14.0L10.3,35.4L10.0,73.3L10.1,102.5L9.9,106.9L10.0,110.4L9.8,111.9L9.8,117.6L10.0,118.0L10.4,118.2L14.9,118.5L30.1,118.4L38.7,118.6L42.5,118.5L88.7,118.8L112.1,118.8L117.5,118.7L117.8,118.5L118.0,117.7L118.1,113.2L118.1,54.9L118.3,49.8L118.3,24.7L118.4,19.3L118.4,10.7Z M61.7,42.8L63.2,42.9L63.5,43.1L63.7,44.3L63.5,49.8L63.5,65.1L63.7,73.2L63.6,85.4L63.0,86.2L62.4,86.3L60.9,86.2L60.2,85.9L58.1,85.6L56.6,85.0L55.1,84.5L51.9,82.7L49.6,81.0L48.3,79.7L45.9,76.7L44.6,74.3L44.2,73.8L43.7,72.5L43.0,70.2L42.8,68.9L42.5,68.2L42.3,65.2L42.4,61.5L43.1,58.5L43.3,58.3L43.4,57.8L44.0,56.6L44.2,55.8L45.1,53.9L46.8,51.3L49.2,48.8L51.4,46.9L52.1,46.5L53.3,45.6L56.6,44.1L58.5,43.5L59.6,43.3L60.6,43.0Z M65.6,15.5L69.8,15.7L70.8,15.9L72.3,16.0L74.9,16.6L76.0,16.7L76.4,17.0L78.1,17.3L78.6,17.6L80.8,18.2L83.4,19.3L83.9,19.4L84.4,19.8L84.9,19.9L86.1,20.5L86.3,20.8L89.1,22.1L94.6,25.9L97.4,28.3L101.3,32.5L103.2,34.7L103.5,35.4L104.5,36.6L107.7,42.3L108.7,44.8L109.0,45.2L110.4,48.6L111.3,51.8L111.4,52.8L112.0,55.0L112.2,56.6L112.5,57.4L112.5,58.9L112.9,61.6L112.9,67.0L112.7,69.8L111.9,74.7L111.1,77.7L110.6,79.4L110.6,79.8L110.3,80.2L109.7,82.2L109.0,83.5L108.9,84.1L108.5,85.0L108.5,85.2L108.1,85.7L107.4,87.4L107.0,87.7L106.7,88.5L104.1,92.7L101.1,96.7L97.5,100.4L95.6,102.2L94.9,102.5L92.1,104.8L87.3,107.8L84.2,109.4L81.7,110.4L78.3,111.6L77.8,111.6L76.6,112.1L75.5,112.2L74.8,112.5L72.8,112.8L72.1,113.1L69.3,113.3L67.7,113.6L64.6,113.5L64.0,112.8L64.1,112.2L64.0,96.9L64.1,87.3L64.8,86.8L67.5,86.5L68.6,86.1L69.9,85.9L73.5,84.6L76.1,83.1L78.6,81.1L80.4,79.3L82.5,76.4L83.5,74.8L83.9,73.7L84.0,73.1L84.8,71.6L85.5,69.3L85.8,67.4L85.9,63.5L85.5,60.2L85.3,59.8L85.0,58.0L84.3,56.5L84.1,55.6L83.8,54.8L83.2,54.0L83.1,53.5L82.6,52.7L80.4,49.7L78.1,47.5L76.7,46.4L74.5,45.0L73.0,44.2L70.2,43.1L66.3,42.4L64.9,42.3L64.2,41.8L64.0,40.3L64.0,25.5L64.2,15.8L64.6,15.6Z M81.3,10.9L81.4,10.8L81.9,10.8L82.1,11.0L81.9,11.2L81.5,11.2Z" fill="#000" fill-rule="evenodd"/>
</svg>