<svg xmlns="http://www.w3.org/2000/svg" viewBox="0 0 128 128" width="128" height="128">
  <path d="M9.6,10.2L9.5,26.7L9.7,38.9L9.7,54.7L9.9,67.2L9.8,67.8L10.1,87.5L10.0,93.0L10.2,99.3L10.1,102.0L10.2,118.2L10.5,118.6L11.0,118.8L28.8,118.8L54.7,118.5L73.0,118.5L73.9,118.3L75.1,118.3L75.9,118.5L79.9,118.4L81.2,118.6L85.0,118.4L106.0,118.6L107.4,118.4L118.1,118.3L118.7,117.9L118.9,113.3L118.7,103.9L118.8,99.7L118.5,83.4L118.6,79.2L118.4,73.8L118.1,40.9L118.2,34.5L118.0,32.0L118.0,24.3L118.2,23.1L118.0,22.5L118.0,18.6L117.7,13.8L117.7,11.3L117.6,10.6L117.2,9.8L116.5,9.6L85.0,9.7L65.0,9.6L56.2,9.4L30.2,9.6L23.7,9.5L11.1,9.7L9.9,9.9Z M93.9,22.7L94.4,23.2L94.5,23.8L94.6,35.8L94.3,37.0L94.3,38.7L93.7,41.0L93.4,41.6L93.3,42.4L91.7,46.5L91.1,47.5L90.9,48.4L88.8,52.5L87.7,54.3L87.5,54.9L86.6,56.1L86.1,57.4L85.6,57.9L84.2,60.7L82.3,63.6L79.5,68.6L77.6,72.7L77.4,73.7L76.9,74.6L75.9,77.7L75.8,78.8L75.4,79.9L75.4,80.5L75.0,82.1L74.8,85.2L74.8,103.1L74.1,103.7L70.0,105.2L68.8,105.5L66.7,106.4L65.7,106.6L62.0,107.9L60.5,108.3L60.0,108.2L59.5,107.5L59.4,105.1L59.4,81.4L59.7,79.1L61.1,74.1L61.6,72.9L62.0,72.3L62.1,71.8L63.1,69.3L64.0,67.7L64.3,67.4L64.6,66.4L65.0,66.0L65.7,64.2L74.2,50.2L74.4,49.5L75.4,47.7L77.4,42.6L78.4,39.4L79.0,36.0L79.0,34.8L79.3,32.7L79.2,24.0L79.4,22.9L79.7,22.6L80.4,22.4L90.6,22.5Z M33.3,22.7L34.1,22.5L36.8,22.4L39.5,22.5L42.0,22.3L46.8,22.3L47.4,22.4L47.9,22.9L47.9,31.1L48.0,33.6L48.4,36.2L49.1,38.9L50.3,42.5L53.2,48.5L53.2,78.1L53.2,79.2L52.8,79.6L52.4,79.0L52.0,77.1L51.0,73.9L48.7,68.5L46.5,64.3L46.0,63.8L45.8,63.2L44.3,60.7L43.5,59.0L41.7,56.4L40.5,54.2L40.1,53.9L38.3,50.3L37.9,49.9L37.2,48.1L36.3,46.6L34.7,42.5L34.0,40.2L33.7,39.3L33.6,38.3L33.1,36.6L32.8,34.0L32.8,23.3Z M70.6,22.3L70.8,22.4L71.3,22.9L71.5,24.3L71.5,40.3L71.7,47.8L71.4,49.5L70.3,51.8L67.6,56.0L66.9,57.3L66.6,57.7L65.4,60.0L63.5,62.9L62.8,64.5L62.3,65.1L62.2,65.6L61.4,66.8L59.6,70.6L58.9,72.9L58.5,73.5L58.3,74.3L58.0,74.7L57.2,77.7L56.6,77.9L56.4,77.6L56.2,73.5L56.3,56.3L56.0,46.0L56.0,23.0L56.1,22.8L56.7,22.3Z" fill="#000" fill-rule="evenodd"/>
</svg>