<svg xmlns="http://www.w3.org/2000/svg" viewBox="0 0 128 128" width="128" height="128">
  <path d="M13.5,51.0L13.3,68.3L13.3,117.5L13.4,118.3L13.7,118.7L18.2,118.8L22.7,118.6L34.3,118.5L37.9,118.3L47.2,118.3L51.3,118.1L61.6,118.1L70.9,117.9L74.8,118.0L78.8,117.8L94.5,117.7L98.2,117.8L103.2,117.6L112.3,117.7L113.0,117.6L114.0,117.0L114.7,117.0L114.9,116.7L115.0,96.3L114.5,95.6L109.0,95.9L107.5,96.2L102.5,96.4L100.8,96.7L93.6,96.9L92.6,97.1L85.8,97.5L84.8,97.7L82.9,97.7L78.7,98.0L77.7,98.2L75.6,98.2L75.0,98.4L70.1,98.6L68.3,98.8L66.5,98.8L61.7,99.2L58.8,99.2L54.4,99.0L50.5,98.5L47.2,97.5L46.8,97.2L46.1,97.0L45.1,96.6L44.8,96.3L42.8,95.2L39.9,93.1L37.0,90.1L36.0,88.9L34.3,86.0L33.6,84.1L33.2,83.4L33.2,82.9L33.0,82.7L32.6,81.4L32.0,78.4L31.9,75.5L31.6,73.6L31.5,70.8L31.2,67.4L30.8,61.0L30.3,59.2L29.3,57.0L27.9,55.4L26.8,54.4L24.8,53.1L23.5,52.5L22.8,52.5L22.0,52.1L20.7,51.9L20.0,51.6L18.6,51.4L16.8,50.9L15.4,50.8L15.0,50.6L13.9,50.6Z M114.2,46.7L113.8,46.6L109.7,46.7L107.6,47.1L106.2,47.1L101.0,47.7L98.6,47.8L94.7,48.3L90.6,48.5L89.9,48.6L88.9,48.6L87.0,48.9L82.4,49.2L80.9,49.5L79.2,49.5L77.5,49.8L75.8,49.8L75.0,50.0L73.7,50.0L72.3,50.3L69.8,50.4L69.3,50.5L68.0,50.5L65.2,50.9L57.2,51.5L54.6,51.9L52.1,52.0L50.7,52.2L48.0,53.1L46.6,53.9L44.6,55.7L43.6,56.9L42.7,58.8L42.0,61.2L41.8,64.5L42.0,71.6L42.6,75.5L42.8,77.9L43.7,80.8L44.5,82.2L45.9,84.1L47.1,85.3L48.6,86.5L51.2,87.8L52.7,88.3L56.8,88.8L65.1,88.6L70.1,88.1L73.0,88.0L73.9,87.8L76.2,87.8L77.5,87.6L80.8,87.5L83.1,87.2L85.1,87.2L90.8,86.8L93.5,86.8L95.7,86.5L108.6,85.7L110.1,85.4L112.4,85.4L114.1,85.2L114.5,85.0L114.7,84.6L114.7,74.2L114.5,66.2L114.5,47.8Z M114.1,10.2L113.8,9.6L113.2,9.4L106.3,9.4L100.3,9.6L79.8,9.5L70.4,9.9L61.8,9.9L54.1,9.7L44.2,9.8L35.9,10.1L21.3,9.9L17.9,10.1L16.1,10.0L13.8,10.2L13.5,10.5L13.4,13.3L13.4,30.3L13.6,39.8L14.0,40.3L14.9,40.4L16.8,40.9L19.1,41.0L20.8,41.4L23.7,41.6L25.2,41.9L34.9,42.5L39.3,42.5L40.6,42.3L43.6,42.2L47.8,41.7L49.5,41.7L51.7,41.3L54.8,41.2L56.3,40.9L58.7,40.9L61.5,40.5L71.5,39.7L72.0,39.5L78.9,39.0L79.6,38.9L82.9,38.7L83.7,38.5L89.2,38.1L90.0,37.9L92.2,37.8L93.2,37.6L94.5,37.6L96.1,37.3L101.3,37.1L103.0,36.8L104.6,36.8L107.5,36.4L113.6,35.9L114.2,35.4L114.3,34.7Z" fill="#000" fill-rule="evenodd"/>
</svg>