<svg xmlns="http://www.w3.org/2000/svg" viewBox="0 0 128 128" width="128" height="128">
  <path d="M25.8,73.8L25.7,76.2L25.9,76.6L26.2,78.5L26.9,80.5L27.8,82.2L29.0,83.9L31.9,86.8L36.8,90.1L38.9,91.2L39.9,91.6L41.6,92.6L43.9,93.7L44.4,94.1L45.4,94.4L46.9,95.2L47.2,95.5L48.0,95.7L51.3,97.6L54.8,99.4L56.8,100.7L57.8,101.0L60.4,102.8L62.8,105.1L63.5,105.0L64.6,103.9L66.6,102.2L69.9,100.2L71.5,99.5L72.8,98.8L73.3,98.7L74.1,98.2L74.4,98.2L75.9,97.5L76.2,97.2L78.4,96.5L78.8,96.2L79.3,96.1L79.9,95.7L80.6,95.6L81.2,95.2L82.7,94.6L83.1,94.6L84.9,93.7L85.4,93.6L85.7,93.3L86.4,93.1L91.4,90.3L94.3,88.3L97.1,85.9L98.8,83.6L100.0,81.1L100.0,80.8L100.4,79.5L100.5,78.2L100.8,77.2L100.5,73.6L100.2,73.0L100.0,72.0L99.0,70.0L97.9,68.6L96.4,67.1L93.3,65.2L91.7,64.5L90.6,64.3L88.8,63.8L83.6,63.7L80.9,64.2L78.2,65.3L74.7,67.1L71.5,69.4L69.4,71.5L68.4,72.7L67.2,74.5L67.0,75.2L67.0,80.4L66.7,85.1L66.9,86.2L67.2,86.4L68.8,86.4L72.5,85.1L76.3,83.2L78.5,81.6L80.1,80.1L81.5,78.4L83.4,75.5L84.3,73.6L84.7,73.2L91.7,73.4L92.2,73.8L92.2,74.4L91.9,74.8L91.5,76.1L89.5,80.1L87.2,83.3L85.2,85.5L82.1,88.2L77.4,91.3L73.0,92.9L69.4,93.9L67.2,94.1L65.9,94.3L60.4,94.3L55.7,93.3L51.8,92.0L48.1,90.2L45.1,88.2L43.1,86.5L40.6,84.0L39.1,82.1L38.3,81.3L37.0,78.8L36.3,77.8L35.9,76.8L35.1,75.2L34.5,73.3L34.6,72.8L34.8,72.6L36.0,72.4L41.7,72.5L42.5,73.1L43.3,74.8L44.8,77.3L45.7,78.6L47.4,80.5L49.3,82.1L51.7,83.7L54.8,85.1L55.7,85.4L56.1,85.7L57.4,86.2L58.3,86.1L58.6,85.6L58.6,78.8L58.8,75.6L58.6,74.4L58.2,73.6L57.0,72.1L54.4,69.4L53.5,68.8L51.5,67.0L48.2,64.8L44.2,63.1L40.9,62.5L38.0,62.4L36.7,62.7L35.8,62.7L33.5,63.4L31.6,64.4L29.2,66.5L27.8,68.4L26.5,71.2Z M10.1,10.2L9.9,10.4L9.8,10.9L9.6,53.3L9.7,58.5L9.6,74.4L9.4,79.3L9.5,86.0L9.4,101.8L9.4,116.6L9.9,116.9L10.6,117.0L30.8,117.0L38.8,117.3L53.2,117.3L64.1,117.5L66.2,117.4L67.7,117.6L76.4,117.4L79.0,117.7L104.9,117.9L110.5,118.1L116.7,118.1L117.6,118.0L117.9,117.5L118.0,112.2L117.9,106.8L118.1,103.7L118.0,98.5L118.2,95.6L118.1,84.6L118.3,81.8L118.2,77.2L118.5,61.0L118.3,60.5L118.3,60.0L118.5,59.7L118.6,56.4L118.6,41.9L118.7,39.0L118.8,31.1L118.8,11.1L118.5,10.7L117.7,10.5L112.4,10.7L95.8,10.7L89.7,10.5L76.5,10.4L60.3,10.5L59.4,10.3L46.0,10.3L39.3,10.1L34.8,10.2L27.1,10.0L21.9,10.2L15.4,10.2L12.4,10.0Z M63.0,12.9L66.7,13.0L67.9,13.3L70.0,14.1L70.7,14.6L72.2,16.1L72.7,17.0L73.1,18.3L73.2,20.9L72.4,22.7L71.0,24.2L68.6,25.4L68.2,25.8L67.9,29.8L67.9,31.7L68.6,32.2L73.6,32.4L78.9,32.3L87.7,32.5L89.3,32.4L89.6,32.5L89.9,33.0L89.8,37.9L89.7,38.9L89.2,39.3L74.2,39.2L69.0,39.0L68.3,39.1L67.8,39.5L67.6,40.2L67.3,53.2L67.4,55.2L67.2,59.9L67.3,63.3L67.4,63.5L68.1,63.4L69.5,62.1L70.4,61.5L71.5,60.6L72.3,60.3L72.8,59.9L74.7,58.9L75.2,58.8L75.8,58.5L76.6,58.3L77.4,57.9L77.8,57.9L79.0,57.4L79.8,57.4L82.3,56.6L83.5,56.6L85.5,56.3L88.2,56.3L90.3,56.5L93.9,57.3L94.7,57.7L96.6,58.4L100.0,60.1L100.4,60.5L100.6,60.5L101.8,61.4L104.1,63.4L106.6,66.9L107.9,69.5L108.6,72.0L109.0,74.3L109.0,78.5L108.8,79.0L108.7,80.4L107.3,84.7L105.8,87.4L104.0,89.8L101.0,92.8L97.3,95.5L96.2,95.9L94.7,96.9L92.5,98.0L91.0,99.0L87.1,100.6L86.9,100.8L84.2,102.0L82.6,102.9L78.7,104.4L73.5,107.0L69.6,109.6L68.3,110.7L67.0,112.6L66.2,112.7L59.0,112.5L58.4,111.9L57.5,110.4L56.1,109.0L54.5,107.7L51.6,105.8L49.6,104.8L48.5,103.9L47.2,103.4L45.8,102.4L42.6,100.9L40.2,99.5L37.5,98.3L36.1,97.5L34.8,97.0L33.6,96.3L32.7,95.9L32.4,95.6L28.7,93.5L25.5,91.3L22.0,87.6L20.3,84.8L18.9,81.3L18.9,80.9L18.4,79.1L18.0,76.4L18.0,72.2L18.6,68.7L19.7,66.2L21.1,63.8L22.3,62.2L23.9,60.6L25.5,59.3L28.6,57.4L31.8,56.1L35.3,55.4L37.5,55.2L42.1,55.3L42.9,55.6L45.5,56.1L46.4,56.3L47.1,56.7L49.1,57.3L50.6,58.0L54.5,60.5L56.8,62.4L58.2,63.9L58.6,63.9L58.8,63.7L59.0,61.4L59.0,50.4L59.2,47.3L59.1,44.1L59.3,42.0L59.2,39.4L58.5,39.0L38.7,38.9L38.4,38.8L37.8,38.1L37.8,33.2L37.9,32.3L38.4,31.7L55.5,31.9L56.8,32.1L58.8,32.1L59.2,31.9L59.4,31.4L59.4,25.7L59.2,25.3L57.3,24.4L55.7,22.8L54.8,20.4L55.0,18.2L55.3,17.4L55.8,16.5L57.8,14.6L59.4,13.8L60.7,13.3Z" fill="#000" fill-rule="evenodd"/>
</svg>