<svg xmlns="http://www.w3.org/2000/svg" viewBox="0 0 128 128" width="128" height="128">
  <path d="M22.1,94.7L21.7,94.5L21.3,94.4L18.1,94.3L10.3,94.5L9.6,94.7L9.4,94.9L9.3,95.4L9.4,101.6L9.6,103.4L10.3,103.6L17.8,103.6L18.9,103.4L21.3,103.5L21.8,103.4L22.1,103.0L22.2,102.3L22.2,95.2Z M23.6,84.5L23.3,85.0L23.2,86.2L23.2,102.2L23.5,103.3L23.9,103.4L25.6,103.5L35.7,103.4L36.0,103.2L36.1,102.7L36.2,100.2L36.1,84.9L35.7,84.4L35.3,84.3L24.9,84.3Z M9.4,84.7L9.2,85.2L9.3,93.0L9.5,93.3L10.0,93.5L10.8,93.6L21.7,93.4L22.1,93.3L22.2,92.2L22.2,85.1L21.9,84.5L21.1,84.3L11.9,84.3L9.8,84.5Z M37.7,64.6L37.4,64.8L37.2,65.1L37.2,93.0L37.3,102.4L37.4,103.0L38.1,103.4L56.4,103.3L57.4,103.4L58.1,103.3L60.1,103.4L63.6,103.2L63.9,102.8L64.0,102.0L64.0,66.6L63.8,64.9L63.6,64.7L63.2,64.6L61.0,64.5Z M36.1,64.8L35.5,64.5L30.9,64.4L11.2,64.5L9.6,64.7L9.2,65.1L9.1,66.8L9.2,82.9L9.6,83.4L9.9,83.4L12.3,83.4L14.5,83.5L21.5,83.4L24.8,83.5L35.8,83.3L36.1,82.7L36.2,65.4Z M65.3,25.2L64.9,25.6L64.8,27.0L64.8,57.5L64.9,69.9L64.9,95.4L64.9,102.4L65.2,103.0L65.5,103.2L70.0,103.4L71.9,103.2L76.9,103.3L77.7,103.1L85.3,103.3L90.6,103.1L92.9,103.3L118.4,103.3L118.9,103.1L119.1,102.8L119.2,91.4L119.0,88.4L119.1,82.2L118.9,79.6L119.0,58.7L118.9,46.2L118.9,25.3L118.6,25.0L117.0,25.3L112.9,25.3L111.0,25.1L89.4,25.2L86.1,25.0L65.9,25.0Z M68.0,57.5L68.2,57.3L68.6,57.3L68.8,57.7L68.6,57.8L68.4,57.8Z M9.5,25.0L9.3,30.4L9.4,42.4L9.2,46.1L9.4,46.9L9.4,48.2L9.2,49.4L9.2,62.6L9.3,63.1L9.6,63.4L11.0,63.6L17.7,63.5L22.6,63.7L63.2,63.7L63.7,63.4L63.9,63.1L64.0,60.4L63.8,33.5L63.9,27.6L63.8,25.7L63.6,25.3L63.1,25.0L47.8,25.0L40.1,24.9L37.5,25.0L32.8,24.9L31.8,24.7L30.6,24.9L23.1,24.8L22.0,24.6L10.2,24.6L9.8,24.7Z" fill="#000" fill-rule="evenodd"/>
</svg>