<svg xmlns="http://www.w3.org/2000/svg" viewBox="0 0 128 128" width="128" height="128">
  <path d="M117.9,9.8L116.9,9.6L108.6,9.8L98.4,9.8L76.4,10.2L59.1,10.2L55.3,10.4L37.0,10.4L15.3,10.7L11.7,10.6L10.4,10.7L9.7,11.1L9.5,54.9L9.6,56.9L9.4,60.1L9.6,67.3L9.6,117.6L9.7,118.2L9.9,118.4L10.4,118.6L20.0,118.6L21.3,118.5L42.6,118.5L43.8,118.3L56.3,118.4L72.5,118.1L74.5,118.2L78.7,118.0L106.4,118.0L118.4,117.8L118.8,117.4L118.8,108.1L118.6,108.0L117.9,107.9L117.6,107.6L117.7,107.1L118.0,106.8L118.6,106.6L118.8,106.0L118.6,103.9L118.6,66.3L118.3,66.0L110.4,65.8L102.5,65.9L88.7,65.8L83.0,65.6L69.2,65.6L68.8,65.9L68.6,66.4L69.0,71.1L69.4,73.2L69.5,74.5L71.4,81.0L73.2,85.6L75.0,89.2L77.7,93.4L78.1,93.9L79.8,96.4L82.4,99.5L86.9,103.7L92.4,107.8L96.7,110.3L101.2,112.4L106.7,114.4L107.6,114.5L107.9,114.7L110.3,115.3L110.8,115.6L110.7,115.9L109.4,115.9L107.8,115.5L106.6,115.5L105.6,115.2L103.5,114.9L102.8,114.5L100.9,114.4L95.5,112.2L91.7,110.2L87.7,107.8L83.9,104.9L81.3,102.6L77.0,98.2L75.9,96.8L75.5,96.4L72.2,91.7L68.9,85.4L68.0,82.9L67.4,81.9L67.4,81.5L67.0,80.3L66.4,77.9L65.9,76.7L65.8,75.3L65.4,74.5L65.1,72.4L65.0,72.0L64.9,70.4L64.7,69.8L64.7,67.2L64.4,66.5L64.4,66.1L64.0,65.6L62.4,65.5L46.5,65.4L45.9,65.7L45.7,66.3L45.7,69.3L46.4,77.0L47.1,79.9L47.4,82.9L48.2,85.1L48.4,86.9L49.4,90.6L51.0,95.5L52.5,99.1L52.5,99.4L53.6,102.0L55.4,105.6L55.9,107.0L57.5,110.2L58.4,111.6L58.3,111.9L58.1,111.9L57.5,111.3L56.3,109.7L55.6,108.5L55.1,108.1L54.7,107.2L53.6,105.6L51.4,101.8L51.1,101.5L50.9,100.8L49.3,97.8L48.8,96.3L47.9,94.7L47.4,93.1L46.7,91.7L46.1,89.9L45.9,89.4L45.5,87.8L44.5,85.1L44.0,82.4L43.7,81.8L43.4,79.8L42.8,77.5L42.8,76.8L42.4,74.9L42.4,74.0L42.1,72.6L42.0,70.3L41.9,69.6L41.9,66.4L41.6,65.6L41.2,65.4L40.2,65.3L31.4,65.3L30.0,65.1L23.9,65.2L23.5,65.4L23.3,66.6L23.4,71.5L23.8,74.5L23.7,78.7L24.0,86.5L24.2,87.6L24.3,90.3L24.7,91.8L24.8,94.4L25.4,98.8L25.4,100.5L25.7,102.7L25.8,105.2L26.3,107.7L26.5,109.9L26.8,110.7L27.1,113.7L27.2,114.0L27.0,114.4L26.8,113.9L26.5,113.7L26.0,111.4L25.6,110.6L25.3,109.2L24.0,104.8L23.8,103.1L23.0,100.1L23.0,99.1L22.5,97.2L22.4,95.7L22.0,94.4L21.8,92.1L21.4,90.3L21.4,89.0L21.1,87.1L20.9,86.3L20.7,82.1L20.5,81.3L20.5,79.0L20.0,71.7L20.1,70.1L19.9,68.0L19.9,65.6L19.4,65.1L13.9,65.0L13.3,64.8L13.5,64.4L14.6,64.2L19.2,64.1L19.5,64.0L19.9,63.6L19.8,60.8L20.1,50.3L20.3,49.5L20.3,47.2L20.6,45.8L20.7,43.1L20.9,42.5L20.9,41.2L21.2,38.9L21.5,35.8L22.0,33.5L22.5,29.6L23.0,28.2L24.0,22.7L25.1,18.9L25.4,18.2L25.5,17.5L25.8,17.0L26.1,17.1L26.1,18.0L25.0,22.5L25.0,23.6L24.7,24.8L24.7,26.4L24.4,27.8L24.4,28.7L24.2,29.3L24.2,30.4L24.0,31.2L23.9,34.4L23.6,36.9L23.2,58.6L23.5,63.7L23.9,64.0L30.0,64.0L37.4,63.7L39.9,63.8L41.0,63.7L41.6,63.2L41.9,62.0L42.0,57.2L42.3,55.8L42.3,54.7L42.6,53.5L42.6,52.4L43.2,50.1L43.2,49.1L44.0,46.3L44.1,45.4L45.0,42.6L45.2,41.4L45.6,40.6L45.8,39.5L46.2,38.6L46.3,37.9L46.6,37.4L46.9,36.2L47.2,35.8L47.4,34.9L48.4,32.3L48.8,31.7L49.9,29.0L50.8,27.3L51.1,26.4L54.3,21.1L57.1,16.8L57.8,16.1L58.1,16.4L57.9,17.1L56.3,19.9L55.1,22.6L53.0,26.8L52.5,28.3L52.2,29.0L50.5,33.4L49.8,36.5L49.5,37.0L49.4,37.8L49.0,38.6L48.5,40.2L47.8,43.6L47.8,44.3L47.1,47.7L46.8,48.5L46.7,50.6L46.2,52.8L46.1,55.4L45.7,59.9L45.6,63.1L46.1,63.6L51.8,63.5L56.3,63.2L63.7,63.1L64.0,63.0L64.5,62.4L64.5,61.2L64.8,59.1L64.7,58.2L65.1,56.6L65.1,55.7L65.4,53.8L65.8,52.5L65.8,51.9L66.3,50.6L66.5,49.3L66.9,48.5L67.0,47.6L67.3,47.0L67.5,46.0L67.8,45.5L68.1,44.5L68.3,44.3L69.6,40.9L71.8,36.8L74.6,32.7L76.5,30.3L78.1,28.4L79.6,27.1L79.9,26.5L82.5,24.1L83.3,23.7L85.8,21.4L90.3,18.3L94.9,16.0L95.4,15.7L97.1,15.1L97.9,14.6L98.7,14.4L99.1,14.1L103.1,12.8L107.7,11.6L109.4,11.7L109.4,11.9L108.4,12.5L106.8,12.8L105.2,13.3L98.9,15.7L97.6,16.5L94.0,18.3L89.6,21.3L85.6,24.6L81.6,28.7L79.4,31.4L76.5,35.5L76.3,36.1L75.3,37.6L72.8,42.6L71.3,46.7L71.0,48.1L70.0,50.9L69.4,54.1L69.1,55.3L69.0,57.5L68.6,59.9L68.6,62.4L69.0,62.8L69.3,62.9L73.5,62.9L92.8,62.2L95.6,62.3L104.8,62.0L115.6,62.0L116.6,61.9L118.1,61.9L118.5,61.5L118.5,52.2L118.3,40.9L118.4,38.8L118.2,35.1L118.3,33.9L118.1,17.7L118.3,12.9L118.2,10.2Z M77.6,14.3L78.0,14.3L78.1,14.5L77.9,14.7L77.7,14.7Z" fill="#000" fill-rule="evenodd"/>
</svg>