<svg xmlns="http://www.w3.org/2000/svg" viewBox="0 0 128 128" width="128" height="128">
  <path d="M10.5,9.6L10.1,10.0L10.1,11.1L10.0,21.1L10.1,41.5L9.9,58.9L9.9,90.6L9.7,99.7L9.7,118.4L10.3,118.9L31.0,118.7L39.3,118.9L48.3,118.9L60.5,118.6L66.8,118.6L69.9,118.4L84.7,118.4L117.6,117.9L118.0,117.3L118.1,114.8L118.1,88.4L118.3,69.3L118.2,61.9L118.5,34.6L118.4,22.2L118.6,20.6L118.5,10.0L117.9,9.6L102.8,9.6L89.1,9.4L26.4,9.4Z M112.6,70.6L112.6,71.1L112.5,71.4L112.2,72.7L111.8,73.4L111.1,75.6L110.7,76.2L110.0,78.5L109.8,78.7L109.0,81.3L107.4,85.1L106.3,88.6L106.0,88.9L105.9,89.5L105.5,90.2L105.0,92.1L104.3,93.5L103.7,95.4L100.9,102.8L100.6,103.8L100.2,104.5L99.9,105.5L99.7,105.7L98.9,108.5L98.5,109.0L97.8,111.2L97.2,112.6L95.9,116.3L95.3,117.1L94.6,117.3L92.3,117.2L88.4,117.4L78.5,117.5L74.6,117.4L69.2,117.6L66.8,117.5L50.4,117.8L49.9,117.7L49.6,117.4L49.6,117.0L49.9,116.5L50.7,113.8L51.5,112.2L52.7,108.5L53.7,106.6L53.9,105.6L54.5,105.0L60.9,104.9L61.8,104.7L71.2,104.7L71.6,104.4L71.6,103.8L70.2,101.0L69.8,99.8L68.8,98.0L68.6,97.4L67.4,94.9L67.2,94.2L66.6,93.1L66.3,92.3L65.9,91.7L65.8,91.2L64.8,89.3L63.7,86.8L63.1,85.9L62.7,84.6L61.7,82.8L61.6,82.3L59.7,78.6L59.4,77.4L57.0,72.3L56.6,71.3L56.9,70.7L60.7,70.5L68.5,70.4L70.1,70.5L70.4,70.8L71.5,72.5L71.9,73.6L72.5,74.7L73.8,77.7L75.2,80.5L75.3,81.0L75.8,81.7L76.3,83.2L76.8,84.0L76.8,84.3L79.1,88.8L79.5,90.0L81.8,94.7L82.2,95.9L82.9,97.0L83.0,97.5L83.6,98.6L85.4,102.7L86.0,103.4L86.4,103.3L86.6,102.7L86.9,102.2L87.0,101.6L87.4,101.0L88.2,98.7L88.9,97.0L89.7,94.6L90.6,92.4L90.8,91.6L91.7,89.7L93.4,85.0L93.6,84.9L93.9,83.7L94.3,82.8L95.4,79.6L96.3,77.5L96.6,76.3L98.8,70.8L99.6,70.4L112.1,70.3Z M12.3,57.8L23.7,57.7L24.6,57.9L24.9,58.3L25.1,58.8L26.7,69.7L26.9,70.4L27.4,70.7L30.6,70.8L55.1,70.6L55.6,71.0L55.6,71.4L54.1,75.7L53.8,76.3L53.6,77.2L51.3,83.1L50.9,84.4L50.7,84.6L49.7,87.2L49.4,88.4L49.1,88.8L48.5,90.7L47.9,92.2L47.4,93.9L44.9,100.1L43.6,104.1L42.8,106.0L42.5,107.3L41.1,110.4L41.0,111.3L39.2,115.9L38.9,116.9L38.6,117.4L38.0,117.9L35.3,118.0L31.8,118.0L28.6,117.8L25.2,117.7L24.7,117.4L24.7,117.0L25.2,116.0L25.3,115.4L25.6,115.0L26.5,112.5L26.8,111.8L26.9,111.2L27.7,109.6L29.0,105.6L29.6,104.6L30.7,101.2L31.1,100.5L31.8,98.4L32.1,97.8L32.3,96.9L32.7,96.2L33.3,94.4L35.2,89.7L35.2,89.4L35.7,88.5L36.0,87.1L36.8,85.6L36.9,85.0L36.2,84.6L17.5,84.7L16.0,84.6L15.5,84.2L15.2,82.8L14.8,79.7L14.4,78.4L14.4,77.5L13.7,73.6L13.7,72.0L13.4,71.0L13.1,68.1L12.9,67.5L12.7,65.7L12.5,65.3L12.4,63.7L12.0,62.2L11.9,60.5L11.8,60.1L11.7,58.4L11.9,58.0Z M61.1,24.0L61.4,23.7L62.2,23.6L74.6,23.5L75.1,23.7L76.7,25.3L79.1,28.3L82.1,31.9L83.0,33.1L86.4,37.0L93.0,45.1L93.4,45.4L93.9,45.4L94.2,45.1L94.9,43.3L97.9,35.1L99.0,32.7L100.2,28.9L100.5,28.5L101.4,26.1L101.7,25.4L101.8,24.8L102.5,23.8L105.2,23.6L110.1,23.6L111.8,23.8L114.4,23.7L115.7,23.9L116.0,24.4L115.8,25.1L114.9,27.1L114.7,28.1L112.4,34.0L112.3,34.6L111.9,35.3L110.6,39.3L110.0,40.5L108.4,45.2L108.1,45.7L107.5,47.5L106.9,48.9L106.3,50.9L105.4,52.9L105.2,53.9L104.9,54.4L104.7,55.3L103.8,57.5L104.0,58.3L111.8,67.7L112.3,68.7L111.6,69.1L99.5,69.2L98.4,68.9L96.8,67.2L93.1,62.7L91.2,60.6L90.3,59.3L88.9,57.8L80.6,47.7L79.8,46.9L79.3,46.7L78.7,47.7L78.3,49.0L78.1,49.2L77.1,52.1L77.0,52.6L76.0,54.8L75.8,55.9L75.4,56.4L75.2,57.3L73.5,61.5L72.6,64.2L70.7,68.8L70.3,69.2L69.3,69.4L57.7,69.5L57.4,69.3L57.2,68.6L59.4,62.7L60.0,60.8L60.4,60.1L61.2,57.8L61.4,57.5L61.7,56.3L63.6,51.6L63.8,50.7L64.2,50.1L64.9,47.6L65.3,46.9L65.9,45.1L67.5,41.2L68.0,39.6L68.4,39.0L69.5,35.6L69.5,34.7L69.2,34.2L68.1,33.0L67.7,32.3L65.3,29.4L63.5,27.4L62.9,26.4L61.1,24.3Z M13.2,10.6L25.1,10.6L25.5,11.0L25.7,11.6L26.0,14.1L26.8,19.1L27.0,21.2L27.4,23.0L27.8,23.5L45.8,23.7L58.0,23.6L59.0,23.7L59.5,24.0L59.4,25.0L59.1,25.7L58.4,27.9L57.6,29.9L57.4,30.7L56.9,31.7L55.8,34.8L55.5,35.5L53.6,40.9L52.1,44.6L49.6,51.7L48.2,55.1L47.3,57.8L46.9,58.5L45.3,63.0L44.9,63.6L44.8,64.3L44.6,64.8L43.2,68.6L42.9,69.2L42.4,69.6L29.5,69.7L28.8,69.3L28.8,68.8L29.2,67.6L30.2,65.1L30.3,64.6L31.8,61.1L32.1,59.7L32.5,59.1L32.7,58.2L33.1,57.6L33.4,56.4L33.7,56.0L33.8,55.2L34.2,54.5L34.9,52.4L36.2,49.2L36.5,48.1L36.9,47.4L37.0,46.8L37.4,46.2L39.3,41.0L40.3,38.6L40.7,37.2L40.6,36.4L40.1,36.2L17.6,36.3L16.8,36.1L16.2,35.5L15.9,34.1L15.2,28.2L14.9,27.3L14.8,25.5L14.4,24.2L13.7,17.5L12.8,12.8L12.7,11.3L12.8,10.9Z" fill="#000" fill-rule="evenodd"/>
</svg>