<svg xmlns="http://www.w3.org/2000/svg" viewBox="0 0 128 128" width="128" height="128">
  <path d="M9.5,44.7L9.5,46.6L9.3,48.0L9.4,57.0L9.2,58.1L9.2,62.7L9.2,70.2L9.1,82.8L9.2,83.1L9.6,83.4L17.9,83.5L30.7,83.4L35.7,83.6L53.4,83.5L56.9,83.7L76.1,83.7L81.1,83.8L82.1,83.7L97.2,83.9L118.4,83.9L118.8,83.5L119.0,66.8L118.8,64.4L119.0,62.8L118.9,61.5L119.1,56.6L119.0,49.2L119.1,48.3L119.1,45.2L118.8,44.9L103.0,44.8L86.6,45.0L78.8,44.9L70.8,44.9L69.3,45.0L66.5,45.0L65.2,44.9L56.6,44.9L52.3,44.8L43.1,44.8L41.7,44.6L38.2,44.7L32.8,44.5L19.9,44.6L17.8,44.4L16.8,44.5L13.2,44.3L10.1,44.3L9.7,44.5Z M10.1,64.6L10.1,64.4L10.7,64.4L11.0,64.6L11.8,64.7L13.1,65.4L14.8,66.0L15.2,66.3L16.1,66.5L17.2,67.1L17.6,67.2L21.2,68.8L22.5,69.3L24.0,70.0L25.2,70.4L26.2,70.9L26.6,71.0L27.0,71.3L27.5,71.3L28.0,71.7L28.5,71.8L31.5,73.1L32.9,73.8L36.2,75.1L39.5,76.7L42.3,77.7L43.6,78.4L45.4,79.1L45.9,79.4L47.3,79.9L47.7,80.2L49.3,80.9L52.4,82.2L52.6,82.5L52.4,82.7L46.9,82.8L27.8,82.6L22.1,82.7L18.2,82.6L14.1,82.6L10.4,82.5L10.0,82.2L9.8,81.7L9.8,76.5L10.0,74.5L9.9,67.0Z M53.8,81.7L53.8,74.2L54.1,70.6L54.0,65.8L54.2,58.3L54.1,53.8L54.3,51.9L54.2,46.6L54.3,46.4L54.6,46.2L55.3,46.2L56.4,46.4L57.5,46.9L58.6,47.1L59.0,47.3L59.8,47.5L60.7,47.7L61.7,47.9L62.3,48.2L63.0,48.3L64.8,48.9L68.7,49.9L69.3,50.2L70.2,50.3L72.3,51.1L73.1,51.2L73.5,51.4L74.7,51.6L75.1,51.8L76.0,52.0L77.4,52.4L77.7,52.4L78.7,52.8L79.1,52.8L80.0,53.2L80.9,53.3L82.6,53.9L83.7,54.1L85.7,54.8L86.3,54.9L87.2,55.2L87.8,55.3L88.4,55.6L90.6,56.1L93.8,57.1L94.4,57.2L96.4,57.8L97.4,58.0L97.5,58.1L98.4,58.4L100.6,59.0L102.4,59.6L103.6,59.8L103.8,60.0L105.0,60.2L107.4,61.0L111.0,61.9L114.1,63.0L115.2,63.1L115.6,63.3L116.7,63.6L117.0,63.8L117.9,63.9L118.0,64.1L118.0,64.3L117.8,64.5L117.1,64.6L115.9,65.0L115.3,65.1L114.6,65.4L112.2,66.1L110.9,66.6L109.8,66.7L109.2,67.0L108.0,67.3L107.6,67.5L105.4,68.0L104.8,68.3L103.8,68.5L103.5,68.7L103.0,68.7L102.3,69.0L101.4,69.2L100.7,69.5L98.7,69.9L96.1,70.8L95.5,70.8L94.7,71.1L92.4,71.6L91.5,72.0L89.0,72.6L87.2,73.2L85.7,73.5L84.1,74.0L82.8,74.3L82.6,74.5L81.5,74.6L79.6,75.3L78.3,75.5L77.9,75.7L76.0,76.2L75.1,76.5L74.4,76.6L73.6,77.0L72.5,77.1L72.0,77.4L69.9,77.9L69.4,78.2L69.0,78.2L67.1,78.8L66.8,78.8L65.0,79.4L64.2,79.5L63.7,79.8L58.4,81.1L56.4,81.9L54.1,82.0Z M10.1,62.9L10.1,57.5L10.1,52.9L10.3,51.2L10.3,46.6L10.4,45.8L10.8,45.4L13.3,45.2L17.8,45.2L21.2,45.4L23.9,45.3L29.3,45.4L35.0,45.4L35.6,45.6L39.7,45.5L43.1,45.7L51.9,45.7L52.5,45.8L52.6,46.0L52.6,46.1L52.4,46.4L51.2,46.7L50.0,47.4L49.0,47.7L47.8,48.3L47.0,48.5L46.7,48.7L45.2,49.2L44.7,49.5L44.3,49.6L43.3,50.1L39.9,51.3L35.8,53.0L35.4,53.1L33.5,53.9L32.8,54.1L32.5,54.3L30.8,54.9L29.6,55.5L29.0,55.6L28.5,55.9L27.9,56.1L27.4,56.4L26.8,56.5L26.5,56.7L24.9,57.2L24.3,57.6L23.9,57.7L20.7,59.0L20.4,59.3L19.2,59.6L17.5,60.4L16.4,60.8L13.5,62.1L13.1,62.1L12.1,62.7L10.9,63.1L10.4,63.1Z" fill="#000" fill-rule="evenodd"/>
</svg>