<svg xmlns="http://www.w3.org/2000/svg" viewBox="0 0 128 128" width="128" height="128">
  <path d="M66.4,9.2L65.9,9.2L65.6,9.5L65.6,29.4L65.4,34.3L65.5,36.8L65.3,49.8L65.4,53.5L65.3,56.2L65.3,61.5L65.2,63.0L64.7,63.6L63.8,63.4L62.3,62.3L61.1,61.7L60.4,61.2L57.9,59.7L57.4,59.3L54.3,57.6L51.4,55.8L49.0,54.5L47.8,53.6L45.9,52.6L43.3,50.9L42.1,50.4L39.6,48.7L39.1,48.6L36.6,47.0L35.9,46.7L33.7,45.2L32.3,44.5L30.6,43.4L29.1,42.7L28.2,41.9L27.0,41.4L25.3,40.3L25.2,40.3L24.4,39.8L22.0,38.5L21.7,38.1L16.7,35.3L16.0,35.4L15.8,36.4L15.9,39.0L15.7,46.0L15.9,47.0L15.9,53.3L15.7,54.1L15.9,62.2L15.7,69.3L15.8,72.1L15.6,73.5L15.8,75.9L15.8,80.2L15.6,81.2L15.6,84.6L15.7,86.4L15.6,91.6L16.0,92.1L16.8,92.1L20.9,89.9L22.5,88.8L22.9,88.7L24.9,87.4L30.3,84.4L35.0,81.5L36.6,80.8L37.3,80.2L37.8,80.1L40.4,78.4L40.8,78.3L41.2,78.0L42.5,77.3L44.3,76.2L45.2,75.9L46.2,75.2L47.4,74.4L48.0,74.2L48.7,73.7L49.2,73.5L51.2,72.2L53.5,71.0L55.9,69.5L56.4,69.3L59.4,67.6L60.6,67.0L62.2,65.9L64.4,64.8L64.7,64.8L65.0,65.1L65.2,65.9L65.3,73.1L65.2,97.9L65.3,106.1L65.3,118.5L65.6,119.1L66.2,119.1L67.2,118.6L68.7,117.6L70.2,116.8L72.7,115.2L76.5,113.2L81.3,110.4L82.1,110.1L82.9,109.4L84.6,108.5L86.4,107.4L86.9,107.2L92.2,104.0L95.3,102.3L95.9,101.8L98.9,100.3L100.2,99.4L101.2,98.9L101.5,98.7L102.9,97.9L104.6,96.9L105.3,96.6L106.9,95.5L108.2,94.9L108.5,94.6L111.9,92.7L112.5,92.1L112.5,91.7L112.3,91.4L109.7,89.7L108.6,89.1L107.7,88.5L106.9,88.2L105.3,87.0L104.4,86.7L103.6,86.1L102.3,85.4L101.3,84.7L98.3,83.2L97.7,82.6L93.0,79.9L91.8,79.1L90.2,78.3L89.1,77.5L87.6,76.8L87.1,76.4L85.7,75.7L84.1,74.6L82.6,73.9L80.8,72.6L79.4,72.0L77.6,70.9L77.0,70.6L76.5,70.2L76.3,70.2L73.0,68.1L71.6,67.6L68.9,65.8L68.6,65.7L67.5,65.0L66.9,64.7L66.1,64.2L66.1,63.8L66.5,63.4L68.1,62.5L69.1,61.7L70.3,61.2L71.2,60.4L72.0,60.2L72.3,59.9L73.5,59.3L76.0,57.8L76.5,57.6L78.2,56.5L78.6,56.4L79.8,55.6L81.1,55.0L82.1,54.2L83.6,53.5L84.6,52.8L85.7,52.4L87.1,51.4L89.2,50.3L92.3,48.3L93.8,47.7L94.3,47.3L95.9,46.5L96.5,46.1L98.7,45.0L103.2,42.2L104.0,41.9L105.0,41.1L105.5,41.0L108.0,39.4L109.0,39.0L109.6,38.5L112.6,36.9L112.8,36.8L112.8,36.4L110.7,34.9L107.8,33.4L106.0,32.2L105.3,32.0L104.3,31.3L103.7,31.1L103.4,30.8L100.4,29.2L98.2,27.7L96.0,26.6L92.3,24.2L90.7,23.4L89.5,22.6L88.8,22.4L88.4,22.0L87.2,21.4L85.2,20.1L83.7,19.4L82.9,18.8L81.2,17.9L80.3,17.2L77.7,15.8L72.9,12.9L72.0,12.6L71.2,12.0L69.9,11.3L69.5,11.0L69.2,10.9L67.5,9.8Z" fill="#000" fill-rule="evenodd"/>
</svg>