<svg xmlns="http://www.w3.org/2000/svg" viewBox="0 0 128 128" width="128" height="128">
  <path d="M44.7,74.5L44.4,75.3L44.3,76.6L44.1,77.4L43.7,80.9L43.3,82.8L43.3,83.6L42.9,85.6L42.9,86.3L42.1,90.9L41.4,96.3L41.3,96.7L41.0,98.7L41.0,99.5L40.5,102.0L40.4,103.5L40.0,105.2L40.0,106.2L39.6,107.7L39.6,109.0L39.2,110.3L39.1,112.8L39.3,113.1L40.3,113.1L40.7,112.8L41.1,112.8L41.6,112.4L42.1,112.4L42.7,112.1L43.7,111.8L44.1,111.6L44.7,111.4L45.0,111.2L46.1,110.9L46.3,110.7L47.2,110.5L47.9,110.2L48.4,110.1L49.9,109.4L52.8,108.5L53.8,107.9L55.5,107.4L55.9,107.2L56.5,107.0L56.8,106.8L59.8,105.8L60.3,105.5L62.2,104.9L62.7,104.6L63.5,104.5L66.7,103.1L67.6,102.9L68.7,102.3L69.2,102.3L69.6,102.0L71.4,101.5L71.8,101.2L72.8,100.9L74.3,100.2L74.8,100.1L75.9,99.5L75.9,99.1L75.3,98.3L73.8,97.3L71.8,95.5L71.2,95.1L68.7,92.9L67.8,92.4L66.9,91.5L65.6,90.7L63.5,88.8L59.7,85.9L59.2,85.3L56.8,83.5L51.2,78.9L49.6,77.7L48.7,76.9L48.2,76.6L45.8,74.5L45.2,74.2L44.9,74.2Z M100.1,71.6L99.8,71.6L98.7,72.0L98.3,72.2L95.4,73.2L94.1,73.8L93.8,73.8L93.1,74.2L92.6,74.3L91.3,74.9L89.7,75.4L88.8,75.9L86.2,76.7L85.5,77.1L84.1,77.6L83.6,77.9L82.7,78.1L81.4,78.8L81.2,78.8L80.8,79.0L79.4,79.4L78.0,80.1L76.2,80.6L74.7,81.4L74.0,81.5L73.1,82.0L71.8,82.4L71.3,82.7L70.6,82.8L66.9,84.3L66.2,84.5L65.1,85.0L64.2,85.2L63.5,85.7L63.5,86.2L66.5,88.9L67.1,89.2L68.9,90.8L69.5,91.1L70.8,92.3L72.2,93.3L72.9,94.0L77.1,97.3L77.8,98.0L80.9,100.3L82.2,101.5L83.1,102.2L83.5,102.3L86.6,105.0L87.4,105.6L89.1,107.1L90.1,107.7L91.2,108.8L92.3,109.5L93.1,110.3L93.8,110.7L94.5,110.6L94.7,110.2L94.9,109.3L95.0,107.4L95.2,107.2L95.5,104.5L95.8,103.3L96.2,100.1L96.5,98.7L96.7,96.9L96.9,96.5L98.3,86.4L98.6,85.2L98.7,84.0L99.3,80.9L99.7,77.7L100.1,75.8L100.3,73.8L100.6,72.2L100.5,71.9Z M45.4,52.5L44.6,52.6L43.1,53.2L41.9,53.5L41.0,54.0L40.3,54.2L40.2,54.3L38.8,54.8L37.1,55.6L36.3,55.7L34.6,56.5L33.5,56.8L29.8,58.5L29.5,58.5L27.9,59.2L25.9,59.8L25.7,60.0L24.8,60.2L24.3,60.5L22.4,61.1L22.2,61.3L20.1,62.0L20.0,62.2L19.0,62.4L18.8,62.6L17.9,62.9L17.5,63.1L16.8,63.3L16.3,63.6L14.4,64.2L14.0,64.4L13.3,64.6L11.8,65.3L11.3,65.4L9.9,66.1L9.6,66.1L9.1,66.5L9.2,67.1L15.2,72.0L15.7,72.7L16.9,73.4L20.1,76.3L23.3,78.8L23.7,79.2L24.4,79.6L25.5,80.6L26.1,81.0L26.9,81.8L27.3,82.1L28.6,83.2L31.1,85.1L32.4,86.3L33.2,86.8L36.3,89.5L36.8,89.8L37.5,90.5L39.1,91.7L39.6,91.7L40.0,91.0L40.0,90.0L40.3,89.0L40.4,87.5L40.7,86.8L40.8,84.7L41.0,84.3L41.0,83.8L41.4,81.5L41.5,80.3L42.1,77.5L42.3,75.2L42.6,74.1L42.6,73.3L43.0,71.2L43.2,69.4L43.5,68.1L43.8,65.4L44.0,64.6L44.3,62.1L45.0,58.4L45.2,56.1L45.7,53.5L45.7,52.8Z M88.6,36.4L88.3,36.4L88.0,36.7L87.5,39.1L87.5,39.8L87.2,41.2L87.0,43.0L86.6,45.3L86.6,46.2L86.2,48.0L86.1,49.2L85.8,50.6L85.5,53.4L85.1,54.7L85.1,55.4L84.8,57.5L84.4,61.1L84.2,61.5L84.1,62.5L83.7,64.7L83.7,65.4L83.3,67.3L83.0,69.5L82.7,70.6L82.7,71.3L82.5,72.1L82.2,74.8L82.2,75.6L82.5,75.9L83.0,75.9L83.3,75.6L84.3,75.4L85.5,74.8L86.5,74.5L86.6,74.4L87.1,74.3L89.4,73.4L90.5,73.0L90.9,72.7L92.4,72.3L92.7,72.0L93.8,71.7L94.4,71.4L95.5,71.1L96.8,70.5L99.2,69.6L99.6,69.4L100.4,69.1L102.2,68.3L102.7,68.3L103.4,67.9L104.7,67.5L105.7,67.0L106.1,66.9L107.3,66.4L108.2,66.2L111.9,64.6L113.7,64.0L114.3,63.6L114.8,63.6L115.3,63.3L116.0,63.1L116.5,62.8L116.8,62.8L117.6,62.4L118.3,62.2L119.1,61.7L119.1,61.1L118.8,60.8L117.0,59.4L113.5,56.4L112.6,55.9L107.9,52.0L107.7,51.9L106.3,50.6L105.6,50.2L104.8,49.3L104.2,49.0L103.2,48.3L101.6,46.8L99.1,44.9L97.5,43.5L95.1,41.7L94.4,41.0Z M33.6,18.2L33.5,19.6L33.0,21.8L32.8,23.5L32.7,23.8L32.5,25.4L32.2,26.8L31.9,29.3L31.7,29.7L31.6,30.8L31.0,33.8L30.9,35.1L30.6,36.6L29.9,41.6L29.6,42.8L29.6,43.6L29.2,45.2L29.1,47.0L28.8,47.7L28.1,53.2L28.0,53.5L27.8,55.3L27.7,55.7L27.7,56.4L27.9,56.7L28.8,56.6L29.3,56.3L30.0,56.1L30.4,55.9L32.3,55.3L35.3,53.9L36.7,53.5L37.3,53.2L40.3,52.2L42.2,51.3L42.8,51.3L42.9,51.1L44.1,50.7L45.0,50.3L45.6,50.2L46.4,49.8L47.0,49.6L47.5,49.3L48.0,49.2L48.6,48.9L49.0,48.8L51.2,47.9L52.3,47.6L54.3,46.7L54.8,46.6L55.5,46.3L57.3,45.7L57.8,45.4L59.8,44.8L61.0,44.1L63.9,43.1L64.5,42.8L64.6,42.6L64.6,42.3L64.0,41.6L58.1,36.8L56.7,35.4L55.2,34.4L52.8,32.4L50.8,30.9L50.1,30.2L47.7,28.4L46.1,27.0L45.6,26.7L43.7,25.0L37.1,19.8L34.9,17.9L34.5,17.7L34.0,17.7Z M88.6,15.2L87.7,15.3L87.0,15.7L86.2,15.9L85.9,16.1L85.2,16.3L84.4,16.6L83.9,16.7L83.6,17.0L82.9,17.1L81.4,17.8L79.3,18.5L79.0,18.7L78.5,18.8L77.9,19.1L76.8,19.4L76.7,19.5L76.0,19.7L75.4,20.0L74.7,20.2L74.4,20.4L72.4,21.0L72.1,21.3L71.6,21.3L70.1,21.9L69.8,22.1L69.1,22.3L68.5,22.6L65.3,23.7L63.8,24.4L63.1,24.6L61.0,25.4L60.8,25.4L58.2,26.5L57.2,26.8L55.9,27.4L55.1,27.5L54.4,27.9L52.6,28.6L52.3,29.0L52.3,29.4L53.3,30.4L54.2,31.0L55.1,31.8L55.8,32.3L57.7,34.0L58.1,34.2L61.8,37.3L62.4,37.6L66.4,41.2L66.9,41.3L71.2,44.9L73.0,46.3L76.0,48.8L78.5,50.7L79.6,51.7L82.5,54.0L83.0,54.0L83.2,53.9L83.4,53.2L83.7,51.6L84.1,48.2L84.3,48.0L84.5,46.6L84.6,45.1L84.9,43.8L85.0,42.7L85.5,40.1L85.5,39.4L85.6,39.0L85.9,36.9L86.1,36.2L86.6,32.2L87.0,30.2L87.0,29.0L87.3,28.2L87.4,26.5L87.7,25.6L88.0,22.8L88.2,22.1L88.4,20.5L88.8,19.9L88.7,18.3L88.8,16.8L89.0,16.3L89.0,15.5Z" fill="#000" fill-rule="evenodd"/>
</svg>