<svg xmlns="http://www.w3.org/2000/svg" viewBox="0 0 128 128" width="128" height="128">
  <path d="M51.3,104.0L51.3,104.4L51.6,104.8L52.6,105.6L53.1,105.9L53.9,106.7L56.5,108.5L59.3,110.0L62.4,111.2L64.4,111.7L64.9,111.9L68.9,112.7L74.2,112.9L90.8,112.9L99.9,112.9L103.4,113.1L106.8,113.0L108.7,113.2L114.3,113.2L118.7,113.3L119.0,113.1L119.0,112.5L118.1,110.8L117.9,110.6L117.4,109.5L117.1,109.0L115.4,105.7L114.7,105.1L101.8,105.1L88.8,104.8L71.9,104.9L70.5,104.7L69.8,104.7L68.1,104.3L66.9,104.1L65.3,103.7L61.4,102.0L58.4,99.9L55.8,97.6L55.6,97.5L55.2,97.6L54.8,97.9L53.8,99.9L53.2,100.6L52.5,102.0L51.5,103.5Z M52.3,56.8L51.6,56.7L50.2,57.4L49.5,57.5L49.1,57.9L48.7,57.9L46.1,59.3L45.8,59.6L45.2,59.8L43.4,61.0L40.0,63.7L38.4,65.2L36.1,67.8L34.8,69.8L33.2,71.9L32.7,72.9L30.9,75.7L30.8,76.2L28.1,80.5L27.4,81.9L27.0,82.3L26.2,84.0L23.5,88.3L22.7,90.0L21.7,91.4L21.5,91.9L20.8,92.9L20.7,93.3L19.8,94.6L19.1,96.0L17.9,97.7L17.8,98.1L17.3,98.8L17.1,99.3L16.7,99.7L16.3,100.6L15.5,101.9L15.5,102.0L15.1,102.4L15.1,102.7L14.7,103.2L13.0,106.1L12.8,106.6L12.5,106.9L11.2,109.1L11.0,109.6L9.2,112.4L9.2,113.1L10.0,113.3L16.8,113.3L17.8,113.2L18.3,112.8L22.1,106.4L24.3,102.5L25.8,100.3L26.3,99.2L27.7,97.1L27.8,96.6L28.4,95.9L28.7,95.1L29.8,93.4L30.4,92.2L30.8,91.7L30.9,91.4L31.2,91.1L32.1,89.4L33.4,87.5L33.9,86.3L35.3,84.1L35.5,83.7L35.8,83.2L36.8,81.4L38.0,79.6L40.7,74.8L41.5,73.8L41.8,73.2L43.2,71.5L46.3,68.6L48.2,67.2L51.3,65.4L54.3,64.2L55.4,64.0L56.1,63.5L56.1,63.1L55.8,62.6L54.6,60.6L53.4,58.2L52.9,57.2Z M57.9,31.3L57.2,31.2L56.6,32.0L55.2,34.7L54.9,35.0L54.3,36.3L53.2,38.0L52.8,38.9L52.8,39.6L53.0,40.0L53.3,40.3L55.4,44.5L55.8,44.9L57.3,48.0L57.5,48.2L57.6,48.5L58.5,49.9L60.3,53.7L61.6,55.7L63.3,59.1L63.6,59.5L64.5,61.4L65.3,62.8L66.1,64.5L66.8,65.6L68.4,68.7L68.9,69.6L69.4,71.2L69.6,72.2L69.6,74.0L69.0,76.4L68.2,77.8L66.6,79.6L65.9,80.0L65.5,80.0L65.2,79.9L64.4,78.8L64.0,77.8L63.0,76.1L62.8,75.6L61.5,73.3L61.0,72.1L60.4,71.5L60.0,71.3L58.9,71.3L58.1,71.5L55.4,72.3L53.0,73.5L50.7,75.1L49.3,76.5L48.3,77.8L47.9,78.2L47.7,78.7L46.9,79.7L45.4,82.1L45.0,83.0L44.6,83.5L41.4,89.2L40.7,90.1L40.4,90.8L39.3,92.6L39.2,92.9L37.6,95.3L37.5,95.7L36.6,97.1L36.4,97.7L35.8,98.4L34.4,101.0L33.9,101.7L33.4,102.8L32.4,104.1L31.9,105.1L31.9,105.3L31.5,105.7L31.4,106.1L29.9,108.3L29.3,109.7L28.4,110.8L27.8,112.2L27.6,112.4L27.6,112.9L27.8,113.1L35.8,113.1L36.5,112.9L36.9,112.5L38.3,110.1L38.6,109.7L40.6,106.5L41.8,104.2L42.4,103.4L42.5,103.1L43.2,102.1L44.2,100.1L44.6,99.8L45.1,98.7L45.9,97.5L46.0,97.1L48.4,93.4L49.0,92.1L50.3,90.1L50.7,89.2L51.9,87.3L52.5,86.2L54.6,82.7L55.9,81.3L56.8,80.6L58.6,79.9L59.7,79.6L62.0,79.5L62.9,79.6L64.5,80.2L64.9,80.8L64.9,81.0L64.5,81.6L63.2,83.8L62.9,84.1L62.4,85.4L62.0,85.9L61.4,87.1L60.4,88.5L60.0,89.4L60.1,90.1L60.6,90.8L61.4,91.8L63.3,93.5L65.0,94.6L67.7,95.9L69.5,96.4L72.4,96.8L76.1,96.9L97.6,96.9L102.8,97.0L105.4,97.1L110.2,97.1L110.5,96.7L110.2,95.8L108.6,92.6L107.4,90.7L107.2,90.1L106.7,89.3L106.0,88.9L72.4,88.6L70.5,88.1L69.5,87.6L67.8,86.4L67.5,85.9L67.1,85.6L65.9,83.7L65.6,82.4L65.5,82.1L65.5,81.2L65.9,80.7L67.1,80.6L74.3,80.6L75.3,80.6L76.0,80.1L76.9,77.7L77.6,74.8L77.6,71.4L77.5,70.0L76.9,67.7L75.9,65.1L75.0,63.7L74.2,61.8L73.8,61.3L73.6,60.7L72.3,58.5L71.5,56.9L71.4,56.4L71.1,56.0L70.5,54.7L70.2,54.4L69.6,53.0L68.8,51.9L67.9,49.9L67.1,48.7L66.8,47.8L65.2,44.9L64.9,44.3L64.6,43.9L64.4,43.3L64.1,42.9L64.0,42.5L63.4,41.6L61.7,38.3L61.5,38.1L60.6,36.4L59.9,34.8L58.9,33.4Z M66.5,15.0L65.2,17.1L64.8,18.0L63.2,20.7L62.5,21.8L62.3,22.3L62.4,23.2L63.1,24.6L63.3,25.0L63.8,25.6L64.2,26.7L65.1,28.1L65.3,28.7L65.8,29.3L67.6,32.9L68.2,33.8L69.1,35.5L69.5,36.2L71.0,39.1L71.6,40.0L72.0,41.0L72.6,41.9L73.4,43.5L74.9,46.1L75.1,46.7L75.4,47.1L75.7,47.9L76.4,48.8L76.8,49.8L77.9,51.8L78.8,53.4L78.9,53.8L79.2,54.1L79.7,55.4L81.0,57.7L82.4,60.6L83.1,61.7L84.1,63.9L84.6,65.3L84.8,66.3L85.0,66.8L85.3,68.2L85.7,71.3L85.6,75.0L85.5,75.4L85.3,77.3L84.8,78.9L84.7,80.3L85.2,80.6L91.6,80.6L92.2,80.5L92.5,79.8L93.0,77.7L93.4,73.5L93.4,70.8L92.8,65.7L91.7,61.7L91.4,61.2L90.3,58.3L89.5,56.7L89.0,55.9L88.5,54.7L86.9,51.9L85.4,48.8L84.9,48.1L84.6,47.4L84.1,46.7L83.8,45.9L83.1,44.8L82.5,43.5L82.3,43.2L81.7,41.8L81.4,41.6L80.5,39.9L80.3,39.2L79.9,38.9L79.3,37.5L78.5,36.2L77.5,34.0L76.8,32.9L76.4,32.1L75.8,31.2L74.2,28.0L74.0,27.7L73.7,27.1L73.4,26.7L72.6,25.1L71.2,22.5L70.8,21.8L70.5,21.4L70.1,20.5L68.0,16.9L67.7,15.9L67.0,15.1Z" fill="#000" fill-rule="evenodd"/>
</svg>