<svg xmlns="http://www.w3.org/2000/svg" viewBox="0 0 128 128" width="128" height="128">
  <path d="M13.2,72.8L12.6,73.0L12.1,73.5L11.6,74.3L11.5,77.3L11.6,89.4L11.4,91.5L11.5,98.6L11.3,102.2L11.3,117.4L11.4,117.6L11.9,117.7L12.2,117.5L13.2,116.5L13.4,115.9L13.3,113.1L13.4,107.3L13.4,101.3L13.5,96.7L13.5,82.3L13.4,72.9Z M16.0,69.6L15.0,70.6L14.7,71.9L14.7,100.2L14.5,102.7L14.5,114.4L14.7,114.6L15.3,114.5L16.3,113.3L16.5,112.5L16.5,104.8L16.7,99.5L16.7,69.9L16.6,69.7Z M19.2,66.4L18.7,66.7L18.1,67.4L17.8,68.1L17.8,98.0L17.6,106.0L17.6,111.1L17.8,111.3L18.5,111.2L19.4,110.3L19.7,108.7L19.6,107.4L19.9,98.2L19.8,66.5Z M22.4,63.1L22.0,63.3L21.3,64.1L21.0,65.0L21.0,93.1L20.8,107.6L21.1,108.0L21.5,108.0L22.7,106.9L22.8,106.6L22.9,104.9L22.9,63.4L22.8,63.2Z M25.9,59.9L25.4,59.9L24.2,61.1L24.1,61.8L24.0,104.6L24.2,104.9L24.5,104.9L25.1,104.5L25.8,103.7L26.0,103.1L26.1,101.8L26.2,62.5L26.1,60.0Z M28.9,56.6L28.1,57.0L27.4,57.8L27.2,58.4L27.1,101.2L27.3,101.6L28.0,101.5L28.5,101.0L29.2,99.9L29.3,99.3L29.3,62.2L29.1,59.5L29.2,56.9Z M32.1,53.4L31.7,53.4L31.2,53.7L30.4,54.9L30.3,55.8L30.3,97.8L30.5,98.2L31.0,98.3L32.0,97.5L32.4,96.4L32.4,59.9L32.3,53.8Z M35.1,50.2L34.8,50.2L34.2,50.7L33.4,52.0L33.4,94.6L33.6,95.0L34.1,95.1L35.1,94.2L35.6,93.3L35.5,56.4L35.4,50.5Z M38.5,46.9L37.9,46.9L37.0,47.8L36.6,48.5L36.6,91.5L36.9,91.9L37.3,91.9L38.3,90.9L38.7,90.1L38.7,62.2Z M41.4,43.8L41.1,43.8L40.4,44.2L39.9,45.0L39.7,45.9L39.7,85.6L39.8,88.3L40.1,88.7L40.5,88.6L41.4,87.8L41.7,86.6L41.7,44.0Z M88.0,39.3L86.9,40.3L86.7,40.8L86.6,83.4L86.7,84.0L86.9,84.1L87.6,84.0L88.5,83.0L88.7,82.6L88.8,80.7L88.8,39.6L88.7,39.4Z M91.8,36.1L91.1,36.1L90.2,37.2L89.9,37.8L89.9,68.0L89.7,79.3L89.8,80.7L90.0,80.9L90.5,80.9L90.8,80.7L91.9,79.3L92.0,41.3Z M94.4,32.9L93.3,33.8L93.1,34.6L93.0,35.5L93.1,57.6L92.9,74.9L93.0,77.3L93.3,77.6L93.8,77.5L94.9,76.1L95.0,73.7L95.0,33.2L94.9,33.0Z M97.7,29.5L97.3,29.8L96.3,30.8L96.1,32.0L96.1,59.2L96.0,72.5L96.0,73.9L96.3,74.4L96.9,74.3L98.0,73.1L98.1,72.7L98.2,30.1L98.0,29.6Z M101.2,26.3L100.7,26.3L99.5,27.5L99.3,28.1L99.2,70.9L99.4,71.1L100.0,71.0L101.0,70.0L101.3,69.4L101.3,68.0L101.3,46.1L101.4,26.7Z M104.3,23.1L103.9,23.1L103.4,23.4L102.6,24.4L102.4,27.0L102.3,67.8L102.6,68.0L103.0,68.0L104.3,66.6L104.4,66.2L104.4,41.2L104.6,27.3L104.4,24.5L104.5,23.5Z M107.5,19.8L107.1,19.8L106.6,20.1L105.7,21.2L105.5,24.3L105.4,61.8L105.5,64.4L105.6,64.6L106.1,64.8L107.6,63.1L107.5,40.8L107.7,20.0Z M110.6,16.5L109.8,16.7L109.2,17.4L108.9,18.0L108.8,18.7L108.6,29.4L108.6,59.1L108.7,61.1L109.0,61.4L109.3,61.4L110.6,60.2L110.7,59.9L110.8,58.5L110.6,50.5L110.8,17.7L110.7,16.6Z M113.8,13.3L113.2,13.4L112.1,14.5L111.9,14.9L111.9,17.0L111.8,57.7L112.0,58.2L112.6,58.1L113.7,57.0L113.9,56.5L113.9,37.1L114.1,18.1L114.0,13.4Z M117.0,10.0L116.6,10.0L116.0,10.3L115.1,11.5L114.9,24.6L114.9,54.6L115.2,54.9L115.6,54.9L116.1,54.6L117.0,53.3L117.1,52.5L117.1,25.2L116.8,24.7L116.8,24.3L117.2,23.8L117.2,12.8Z M11.8,9.6L11.8,9.9L12.6,10.7L12.6,10.9L32.1,30.8L32.9,31.8L42.5,41.4L42.7,41.9L42.7,78.4L42.8,85.6L43.3,86.5L49.6,92.8L50.2,93.5L54.4,97.7L60.4,104.0L61.0,104.8L63.7,107.4L67.5,111.6L72.9,117.1L73.4,117.8L74.3,118.5L76.2,118.6L76.4,118.5L76.5,118.1L70.0,111.1L63.6,104.5L63.0,103.8L46.5,86.6L46.4,86.4L46.6,86.2L46.9,86.1L47.6,86.3L63.7,102.8L64.2,103.6L73.3,113.0L76.0,115.9L78.6,118.5L80.6,118.6L80.8,118.2L74.5,111.3L67.7,104.2L67.1,103.5L62.6,98.9L57.4,93.4L54.3,90.3L53.8,89.6L50.7,86.6L50.8,86.2L51.9,86.2L54.7,88.9L55.3,89.7L76.0,111.1L80.1,115.7L83.0,118.5L83.4,118.6L84.7,118.7L85.2,118.6L85.3,118.3L84.2,116.9L80.1,112.7L76.3,108.5L55.2,86.6L55.3,86.2L56.2,86.2L57.1,86.9L64.6,94.8L66.5,96.6L73.5,104.1L75.5,106.0L84.6,115.8L87.5,118.6L89.6,118.7L89.8,118.6L89.9,118.2L68.0,95.2L66.1,93.3L61.0,87.9L59.6,86.6L59.7,86.2L60.4,86.1L61.2,86.6L71.5,97.3L73.6,99.7L74.9,100.9L75.5,101.6L89.6,116.3L90.6,117.4L91.9,118.6L93.6,118.7L94.2,118.6L94.2,118.2L90.5,114.3L90.0,113.6L88.7,112.4L86.9,110.4L83.2,106.6L82.7,106.0L72.0,94.9L71.6,94.3L64.1,86.6L64.2,86.2L64.8,86.1L65.9,86.9L69.9,91.2L72.0,93.2L75.5,97.1L83.3,105.1L90.9,113.3L92.6,114.8L92.9,115.3L96.2,118.6L96.7,118.7L98.1,118.8L98.5,118.7L98.6,118.2L92.0,111.2L89.8,108.8L87.8,106.8L79.4,97.9L68.5,86.6L68.4,86.4L68.6,86.2L69.2,86.1L69.6,86.3L73.0,89.6L80.0,97.2L87.9,105.2L88.1,105.6L100.4,118.4L101.3,118.7L102.8,118.7L103.0,118.6L103.1,118.2L99.2,114.1L99.0,113.7L97.0,111.8L94.2,108.7L78.3,92.2L77.4,91.2L73.0,86.6L73.1,86.3L73.7,86.2L74.7,86.9L76.8,89.3L77.8,90.1L84.9,97.6L90.6,103.5L94.7,107.9L94.9,108.2L96.5,109.6L97.2,110.5L105.1,118.6L105.6,118.8L107.6,118.7L107.5,118.2L104.3,114.7L100.0,110.4L97.6,107.7L96.1,106.3L92.0,101.8L84.8,94.5L82.2,91.6L77.4,86.6L77.4,86.4L77.6,86.2L78.4,86.3L79.6,87.4L80.1,88.1L92.6,101.0L93.2,101.7L96.5,105.1L97.0,105.7L99.9,108.6L100.8,109.7L109.4,118.6L110.1,118.8L112.1,118.7L112.0,118.3L106.5,112.3L82.0,86.9L82.0,86.3L82.7,86.4L84.1,87.6L86.6,90.1L86.8,90.6L91.6,95.3L95.4,99.3L95.8,99.9L113.9,118.6L114.4,118.9L115.1,119.0L116.2,118.9L116.4,118.7L116.2,118.1L104.7,105.9L96.2,97.3L95.6,96.4L93.4,94.4L91.0,91.7L89.4,90.2L86.1,86.6L85.7,85.9L85.5,84.9L85.7,60.0L85.6,42.5L85.5,41.9L84.6,40.8L82.3,38.6L81.2,37.3L77.7,33.8L77.3,33.3L74.5,30.5L67.2,22.8L64.0,19.8L63.3,18.8L55.6,11.1L55.4,10.7L54.4,9.8L53.7,9.4L51.9,9.4L51.7,9.5L51.6,9.9L71.4,30.2L72.2,31.2L82.1,41.3L82.1,41.5L81.9,41.7L81.3,41.7L80.6,41.4L76.1,36.6L74.4,34.9L73.3,33.6L54.7,14.6L49.9,9.9L49.3,9.4L47.5,9.4L47.1,9.5L47.0,10.0L56.9,20.0L57.7,21.0L62.2,25.4L66.4,29.8L71.4,34.8L73.5,37.3L77.6,41.3L77.6,41.5L77.4,41.7L76.8,41.7L76.4,41.5L74.6,39.8L53.6,18.1L53.1,17.7L52.6,17.1L45.4,9.8L44.9,9.5L43.1,9.4L42.9,9.5L42.8,10.0L46.6,14.0L48.7,16.1L58.3,25.9L59.4,27.2L62.0,29.7L73.2,41.3L73.2,41.4L72.9,41.7L72.2,41.6L71.6,41.2L54.4,23.5L53.5,22.5L40.6,9.5L39.1,9.4L38.5,9.4L38.2,9.8L42.9,14.8L49.0,20.9L49.2,21.3L51.9,23.9L68.5,41.1L68.7,41.4L68.5,41.6L68.0,41.7L67.4,41.4L55.9,29.6L52.5,26.0L39.3,12.7L36.4,9.6L36.0,9.4L34.4,9.4L34.0,9.5L34.0,10.0L44.0,20.5L64.2,41.2L64.3,41.4L64.1,41.6L63.5,41.6L62.9,41.3L50.7,28.8L50.4,28.3L43.1,21.0L41.4,19.1L32.0,9.6L31.5,9.4L29.9,9.4L29.4,9.6L29.4,10.0L33.1,13.6L34.2,14.9L37.8,18.5L41.4,22.5L45.1,26.0L49.0,30.2L59.8,41.2L59.8,41.4L59.6,41.6L58.9,41.6L58.6,41.4L40.6,23.0L40.2,22.5L39.1,21.5L37.9,20.1L27.7,9.8L27.1,9.5L26.0,9.4L25.5,9.6L25.4,9.8L25.4,10.1L27.0,12.1L35.2,20.3L51.8,37.5L53.8,39.5L54.9,40.9L55.4,41.2L55.5,41.4L55.3,41.6L54.8,41.7L54.3,41.5L48.6,35.9L45.5,32.5L39.0,25.9L38.1,24.8L23.4,9.8L22.7,9.4L21.2,9.4L20.7,9.7L20.7,9.9L23.1,12.5L48.6,38.7L51.0,41.4L50.8,41.6L50.1,41.6L49.6,41.4L31.5,22.7L29.0,20.2L25.7,16.7L18.7,9.7L17.9,9.4L16.8,9.4L16.2,9.6L16.2,9.9L18.4,12.3L22.7,16.6L23.3,17.4L46.6,41.2L46.6,41.4L46.3,41.7L45.9,41.7L45.3,41.4L43.5,39.8L42.5,38.6L24.1,19.8L23.7,19.2L14.4,9.8L13.6,9.5Z" fill="#000" fill-rule="evenodd"/>
</svg>