<svg xmlns="http://www.w3.org/2000/svg" viewBox="0 0 128 128" width="128" height="128">
  <path d="M52.4,15.6L52.1,15.9L51.4,16.2L49.4,17.4L48.2,18.3L45.5,20.7L43.1,23.5L41.8,25.4L41.1,27.1L40.4,28.2L38.8,32.4L38.8,33.4L38.4,34.6L38.2,38.1L38.2,41.5L38.4,42.9L39.3,46.5L40.3,49.2L41.1,50.5L41.6,51.8L45.3,58.0L45.6,59.0L43.0,63.6L42.6,63.9L35.5,64.0L32.2,64.2L28.7,64.8L25.2,65.9L21.3,67.9L19.6,69.0L17.7,70.6L15.1,73.2L14.0,74.6L11.9,78.1L11.3,79.4L11.1,80.1L10.8,80.4L9.8,83.9L9.5,85.6L9.2,88.1L9.3,92.5L9.8,95.6L10.2,96.4L10.4,97.6L10.6,97.8L10.8,98.7L12.1,101.5L12.2,101.9L13.7,104.2L15.6,106.7L18.8,109.7L20.0,110.6L22.1,112.0L26.1,113.8L30.7,115.0L33.3,115.3L37.4,115.2L41.7,114.3L42.9,113.8L43.8,113.6L46.2,112.5L49.4,110.6L52.3,108.1L54.1,106.2L56.3,103.0L57.4,101.1L57.5,100.8L58.6,99.1L59.0,98.2L60.1,96.4L60.3,95.8L60.8,95.3L61.6,95.1L66.1,95.1L66.7,95.3L67.3,95.8L72.1,104.1L74.7,107.2L77.0,109.4L78.8,110.7L81.8,112.5L83.9,113.5L86.3,114.2L87.8,114.8L91.7,115.3L94.7,115.3L98.8,114.8L101.1,114.2L104.4,113.0L105.2,112.4L106.0,112.1L108.4,110.6L110.2,109.1L112.3,107.1L114.0,105.1L114.5,104.2L114.9,103.8L115.4,102.8L115.7,102.6L117.2,99.4L117.3,98.8L118.1,96.9L118.7,94.1L119.0,91.2L118.9,86.3L118.3,83.2L117.8,82.1L117.8,81.5L116.9,79.3L115.7,76.8L113.6,73.6L110.6,70.4L106.8,67.6L103.6,65.9L99.9,64.6L96.0,63.8L85.6,63.7L84.7,63.6L83.9,62.7L82.2,59.8L81.9,59.0L81.9,58.7L82.1,58.1L83.9,55.1L84.1,54.4L85.2,52.7L85.8,51.4L86.7,50.0L87.7,47.8L88.3,46.0L88.4,45.3L88.7,44.7L89.2,42.3L89.3,39.9L89.3,37.1L88.8,33.1L88.4,31.7L88.4,31.3L88.1,30.6L88.0,30.0L87.4,28.7L87.3,28.1L86.9,27.7L86.3,26.3L86.1,26.0L84.8,23.7L83.2,21.6L80.5,19.0L78.8,17.6L78.1,17.3L77.3,16.6L73.6,14.7L71.3,14.0L70.6,13.7L67.3,13.1L61.7,13.0L60.0,13.2L55.7,14.3Z M51.2,79.7L51.2,80.1L50.7,81.2L43.1,94.6L42.4,95.7L41.6,96.6L39.7,98.2L38.8,98.7L36.1,99.5L34.2,99.6L32.8,99.4L30.7,98.8L29.9,98.3L29.4,98.2L28.2,97.2L26.6,95.5L25.6,93.6L25.6,93.4L25.1,92.5L24.9,91.3L24.8,89.1L25.1,86.6L25.5,86.0L25.7,85.3L26.6,83.8L27.7,82.5L29.6,81.0L30.7,80.6L31.4,80.2L33.4,79.7L50.8,79.6Z M76.4,79.7L76.6,79.6L78.2,79.4L94.2,79.5L96.0,79.8L97.8,80.6L99.9,82.1L101.1,83.5L101.8,84.5L102.9,86.9L103.1,88.6L103.1,90.8L102.9,92.2L101.9,94.5L101.0,95.8L98.8,97.9L97.0,98.8L95.9,99.3L94.9,99.4L92.2,99.5L90.7,99.1L90.3,99.1L88.4,98.2L86.7,97.0L85.6,95.9L84.6,94.6L77.5,82.4L76.4,80.3Z M63.3,59.8L63.8,59.6L64.3,60.1L66.0,62.9L66.4,63.8L67.0,64.6L67.4,65.5L68.4,66.9L69.1,68.5L70.5,70.5L71.3,72.1L72.4,73.8L72.9,75.0L73.4,75.6L74.9,78.3L75.0,79.0L74.8,79.1L73.6,79.3L53.0,79.4L52.5,79.1L52.5,78.6L53.2,77.4L53.5,76.8L54.4,75.3L57.1,70.4L59.0,67.3L59.3,66.6L60.6,64.5L61.0,63.6L61.7,62.6L62.2,61.5Z M63.0,28.7L65.2,28.8L66.9,29.2L68.4,29.8L70.4,31.4L72.0,33.3L72.9,35.1L73.1,36.0L73.4,36.9L73.5,38.4L73.4,40.2L73.1,41.1L73.0,42.0L72.6,42.9L72.2,43.4L72.0,44.1L71.2,45.5L70.8,46.0L69.3,48.8L68.8,49.4L67.7,51.7L67.3,52.2L67.2,52.5L66.4,53.6L64.2,57.6L63.8,57.9L63.5,57.9L63.1,57.6L62.7,56.6L60.3,52.7L60.1,52.2L59.1,50.6L57.5,47.6L56.1,45.4L54.4,42.1L54.1,41.0L53.9,39.8L54.1,36.4L55.0,34.0L56.0,32.4L57.6,30.9L59.3,29.8L61.3,29.0Z" fill="#000" fill-rule="evenodd"/>
</svg>