<svg xmlns="http://www.w3.org/2000/svg" viewBox="0 0 128 128" width="128" height="128">
  <path d="M53.2,65.2L53.5,65.6L55.7,67.3L56.7,68.3L58.8,70.7L60.7,73.6L62.3,76.6L63.4,79.6L64.2,82.7L64.4,84.9L64.6,85.2L64.9,84.4L65.1,82.6L65.8,79.7L66.5,78.1L66.5,77.8L68.2,74.2L69.7,71.8L71.5,69.4L73.0,67.9L75.1,66.1L75.6,65.4L73.1,66.4L69.6,67.2L66.8,67.6L62.9,67.6L59.1,67.0L58.5,66.8L56.3,66.3L54.1,65.3Z M75.8,14.9L72.0,13.5L66.9,12.4L64.3,12.4L59.6,12.8L58.2,13.2L57.7,13.2L53.1,14.8L50.2,16.4L49.3,17.1L48.4,17.6L46.4,19.2L43.5,22.1L42.1,23.9L40.1,27.3L38.8,30.3L38.2,32.1L37.3,36.4L37.2,39.2L37.3,41.8L37.5,42.9L37.7,44.8L38.0,45.7L38.1,46.7L39.1,49.8L39.9,51.4L40.0,51.8L41.5,54.5L42.6,56.1L45.4,59.4L47.8,61.6L47.8,62.0L47.2,62.0L46.1,61.5L42.6,60.4L40.3,60.0L38.2,59.8L33.7,59.9L31.0,60.4L28.7,61.0L25.3,62.2L23.2,63.3L19.8,65.6L18.5,66.7L15.5,69.8L13.0,73.4L10.9,77.8L9.9,81.2L9.5,83.4L9.2,85.9L9.2,90.0L9.5,92.1L10.1,95.1L10.3,95.6L10.7,97.0L12.3,100.8L13.4,102.7L15.4,105.4L16.3,106.5L19.2,109.3L21.2,110.8L23.5,112.3L27.0,114.0L28.6,114.4L29.5,114.9L32.7,115.6L36.8,115.9L39.8,115.8L40.9,115.6L41.7,115.6L42.6,115.3L43.5,115.2L47.0,114.1L50.0,112.7L52.3,111.4L54.7,109.5L57.7,106.5L59.4,104.3L61.3,101.2L62.7,98.1L63.7,94.6L64.3,91.3L64.7,91.0L64.9,91.5L65.4,94.0L65.7,94.9L65.9,95.9L66.1,96.4L66.3,97.3L67.6,100.4L68.2,101.6L69.4,103.5L71.7,106.5L74.8,109.5L78.3,112.0L81.7,113.7L84.8,114.7L86.9,115.2L87.5,115.2L88.6,115.5L91.6,115.6L95.7,115.4L97.2,115.0L97.7,115.0L100.0,114.4L100.2,114.3L100.9,114.1L104.3,112.7L104.5,112.5L106.7,111.3L109.8,108.9L112.6,106.0L115.3,102.2L115.9,101.0L115.9,100.7L116.1,100.5L117.3,97.7L118.6,93.2L118.6,92.6L118.9,90.9L119.0,86.3L118.7,83.0L118.4,82.4L117.9,79.9L116.5,76.2L114.6,72.7L111.9,69.3L108.5,66.1L105.3,64.0L101.4,62.1L97.9,61.0L94.3,60.4L89.2,60.5L87.2,60.8L85.3,61.3L84.8,61.3L84.2,61.6L83.5,61.6L81.7,62.4L81.2,62.5L81.1,62.3L81.1,62.0L82.9,60.5L86.1,57.0L88.3,53.7L89.9,50.3L90.8,47.5L91.5,43.8L91.5,43.0L91.7,42.4L91.7,38.3L91.5,37.6L91.5,36.6L90.9,33.4L90.0,30.6L90.0,30.3L89.2,28.8L88.4,26.9L86.1,23.2L84.4,21.3L81.6,18.6L78.6,16.4Z M81.0,63.8L82.9,65.6L84.1,67.2L85.5,69.7L86.4,72.5L86.7,74.9L86.5,78.6L85.7,81.4L84.7,83.4L83.3,85.6L80.7,88.1L78.6,89.5L76.5,90.4L75.3,90.9L73.3,91.2L70.2,91.3L68.5,91.0L66.1,90.4L65.9,90.0L66.2,89.8L68.1,89.5L70.1,89.0L73.0,87.7L74.8,86.6L77.6,84.1L79.0,82.4L80.0,80.8L81.2,78.1L81.7,76.3L82.3,72.9L82.2,69.6L81.4,66.3L80.5,64.0L80.7,63.8Z M48.0,63.7L48.4,63.6L48.6,63.8L48.6,64.0L48.1,65.2L47.2,68.5L47.0,70.0L47.0,73.1L47.5,76.1L48.2,78.2L49.2,80.2L50.4,82.2L51.4,83.5L53.0,85.2L54.1,86.1L56.9,87.9L59.0,88.8L61.1,89.4L63.1,89.7L63.5,89.9L63.4,90.4L63.1,90.5L60.3,91.2L57.4,91.3L54.6,90.9L53.2,90.4L51.2,89.6L49.5,88.6L48.4,87.7L46.3,85.6L45.0,83.7L43.7,80.9L42.8,77.7L42.7,74.2L42.9,72.6L43.4,70.6L44.8,67.6L46.3,65.5L47.1,64.5Z M82.1,62.8L85.9,62.8L87.8,63.2L88.4,63.4L90.0,63.8L92.9,65.1L94.9,66.4L96.7,67.7L98.9,70.0L100.3,72.0L101.0,73.2L102.5,76.6L103.1,79.0L103.3,81.0L103.3,84.8L102.7,88.1L101.6,91.2L100.3,93.7L99.1,95.4L97.8,97.0L95.5,99.0L94.8,99.6L94.6,99.6L92.9,100.7L91.2,101.6L90.4,101.8L88.8,102.4L85.5,103.0L81.9,103.0L78.7,102.5L77.1,101.9L76.5,101.8L72.8,100.0L70.5,98.2L69.2,97.0L67.8,95.4L66.5,93.5L65.4,91.2L65.5,90.9L65.7,90.9L67.5,93.3L69.5,95.2L71.3,96.6L72.7,97.5L74.9,98.5L75.9,98.7L78.1,99.4L79.9,99.5L81.9,99.5L83.5,99.4L86.4,98.7L87.4,98.3L90.1,97.0L92.5,95.2L93.4,94.3L95.1,92.3L96.2,90.7L97.7,87.6L98.1,86.2L98.6,83.4L98.6,80.2L98.5,78.5L97.9,75.9L96.6,72.9L96.1,72.2L95.5,71.2L94.3,69.5L92.8,67.9L90.4,66.0L87.8,64.6L85.4,63.8L85.1,63.8L84.8,63.6L82.9,63.3L82.3,63.3L81.9,63.1Z M50.1,62.6L58.6,62.5L63.1,62.7L71.5,62.7L78.9,62.8L79.3,63.0L79.3,64.3L77.3,67.8L77.3,68.1L76.6,69.1L76.4,69.6L74.2,73.5L74.1,73.8L73.7,74.3L72.7,76.5L72.0,77.4L68.5,84.0L67.3,85.7L65.8,88.6L65.2,89.2L64.8,89.2L64.0,89.0L63.5,88.3L62.8,86.9L62.0,85.8L61.8,85.1L60.9,83.8L60.6,83.0L57.3,77.5L56.5,75.9L55.3,73.8L54.9,73.3L54.7,72.6L53.1,70.0L52.6,69.3L50.9,65.8L49.7,64.0L49.9,62.8Z M43.3,62.5L46.4,62.5L46.6,62.9L43.7,63.4L41.2,64.3L39.3,65.3L37.8,66.4L35.7,68.2L34.3,69.7L33.6,70.7L31.9,74.0L31.2,76.2L30.7,78.4L30.7,83.2L31.3,85.6L32.1,88.1L33.1,90.2L34.1,91.6L35.7,93.6L37.1,94.9L40.0,97.0L41.9,98.0L42.9,98.2L43.6,98.6L45.8,99.1L47.5,99.3L50.8,99.2L52.3,98.9L52.6,98.8L52.9,98.8L55.3,98.0L57.3,97.0L59.5,95.6L62.3,92.8L63.0,92.0L63.2,92.1L63.1,92.8L61.1,95.7L58.3,98.6L57.2,99.4L54.9,100.8L53.2,101.5L52.9,101.8L52.1,101.9L51.1,102.4L48.0,103.0L44.3,103.0L42.2,102.8L40.9,102.4L40.1,102.3L39.7,102.0L38.0,101.5L36.1,100.6L34.2,99.4L32.6,98.2L31.0,96.5L29.6,94.9L28.0,92.3L27.1,90.3L26.1,87.4L25.6,84.2L25.6,80.3L26.3,76.8L27.9,72.9L30.4,69.3L31.7,67.9L33.0,66.8L35.5,65.1L37.3,64.1L37.6,64.1L38.3,63.7L41.2,62.8Z M49.6,60.8L50.1,58.9L51.6,56.1L53.6,53.5L55.5,51.9L57.0,50.9L57.4,50.8L57.9,50.5L60.2,49.6L62.6,49.0L65.8,49.0L67.9,49.4L71.4,50.6L72.9,51.5L74.7,52.9L76.3,54.4L77.7,56.4L78.9,58.7L79.4,60.3L79.4,60.9L79.7,61.6L79.4,61.9L79.3,61.9L78.7,61.4L78.1,60.4L76.3,58.6L74.8,57.3L74.4,57.1L73.3,56.3L72.9,56.2L71.5,55.4L68.1,54.3L64.7,53.9L61.4,54.2L59.8,54.6L58.5,55.1L57.9,55.2L55.8,56.2L54.1,57.3L52.2,59.0L49.9,61.6L49.6,61.5Z M47.7,38.8L49.0,37.2L49.1,37.0L50.7,35.2L52.4,33.8L54.1,32.8L54.5,32.4L56.4,31.5L57.1,31.3L57.3,31.1L58.1,31.0L58.8,30.6L61.5,30.0L63.1,29.8L65.7,29.8L69.7,30.5L70.3,30.9L70.7,30.9L71.5,31.3L72.5,31.6L75.7,33.4L78.1,35.3L79.3,36.5L80.9,38.6L81.6,39.9L81.9,40.2L83.2,43.0L83.4,43.9L83.7,44.7L83.8,45.5L84.2,47.1L84.4,48.7L84.4,51.5L84.1,53.6L83.2,57.0L81.5,60.6L80.7,61.6L80.5,61.5L80.5,61.1L81.5,59.1L82.3,55.8L82.4,54.1L82.3,51.0L82.0,49.0L81.4,46.9L80.8,45.7L80.5,44.8L79.5,43.0L78.1,41.2L76.1,39.2L74.2,37.7L72.8,36.9L71.6,36.3L68.9,35.3L67.9,35.2L66.6,34.9L64.1,34.8L62.0,35.0L60.2,35.3L57.7,36.2L55.4,37.3L54.1,38.2L52.3,39.7L50.8,41.2L49.5,43.0L48.2,45.4L48.1,46.2L47.7,46.7L47.1,49.0L46.8,51.7L46.8,54.1L47.0,55.1L47.0,56.0L47.7,58.6L48.5,60.6L48.4,61.0L48.1,61.0L46.7,58.6L45.1,54.5L44.6,50.8L44.7,47.5L45.1,44.8L46.3,41.4L46.8,40.4L47.5,39.3Z" fill="#000" fill-rule="evenodd"/>
</svg>