<svg xmlns="http://www.w3.org/2000/svg" viewBox="0 0 128 128" width="128" height="128">
  <path d="M56.8,49.8L56.2,50.3L55.8,51.1L55.8,51.8L56.1,52.7L58.6,56.2L58.9,57.0L60.4,59.2L60.9,60.3L61.4,61.0L62.8,63.9L62.8,64.3L63.2,64.8L63.8,65.4L64.2,65.6L64.9,65.7L65.8,65.4L66.5,64.6L69.0,59.5L69.9,57.8L70.2,57.6L70.4,57.0L71.1,55.9L71.9,54.5L73.0,53.0L73.4,51.8L73.2,50.7L72.5,50.0L71.9,49.7L69.3,49.7L65.2,50.0L60.5,49.9L58.3,49.6Z M79.8,43.3L78.4,42.8L75.7,42.6L73.2,43.1L71.6,43.2L70.6,43.5L68.9,43.6L62.1,43.7L58.3,43.5L56.3,43.2L55.4,43.2L53.4,42.8L51.6,42.7L49.6,43.0L48.2,43.8L47.2,44.9L46.7,45.8L46.2,47.3L46.2,48.8L46.8,50.8L48.1,52.7L51.1,56.3L54.0,60.5L55.4,63.0L57.0,66.0L58.5,69.6L58.8,70.1L58.9,70.6L59.3,71.2L59.9,72.9L60.6,73.9L61.6,74.9L63.0,75.7L64.1,76.0L65.4,76.0L66.5,75.8L67.5,75.4L68.3,74.8L69.2,73.9L70.4,72.0L71.3,69.3L72.6,66.4L72.6,66.2L73.1,65.4L73.7,63.8L74.5,62.5L74.7,61.8L77.5,57.2L79.2,55.0L79.8,54.0L81.1,52.4L82.1,50.8L82.6,49.1L82.6,47.0L82.2,45.9L81.5,44.8Z M54.8,46.6L56.2,46.1L57.2,45.9L63.4,46.3L72.2,46.0L73.2,46.2L74.4,46.6L75.0,47.0L76.4,48.7L76.9,49.5L77.2,51.0L77.2,52.3L76.9,53.7L76.3,54.9L73.3,59.6L69.8,66.3L69.1,67.4L68.2,68.2L67.4,68.7L65.6,69.3L64.0,69.3L63.4,69.3L62.0,68.7L61.1,68.1L60.5,67.5L59.4,65.9L58.5,64.1L58.4,63.7L58.2,63.4L56.9,60.9L56.2,59.9L55.7,58.9L52.9,54.9L52.8,54.6L52.4,54.1L51.9,52.6L51.8,51.5L52.0,50.3L52.3,49.3L52.9,48.2L54.1,47.1Z M86.1,36.7L84.1,36.0L81.7,35.9L79.9,36.0L77.2,36.6L75.9,37.1L71.2,37.9L66.9,38.3L62.4,38.3L55.9,37.7L55.1,37.5L52.9,37.2L50.0,36.5L46.1,35.9L43.5,36.5L41.6,37.3L39.4,39.3L38.1,41.1L37.6,42.5L37.3,43.8L37.2,46.3L37.7,48.3L38.2,49.5L38.8,50.5L40.0,52.2L42.8,54.8L44.7,57.0L49.0,63.0L50.9,66.2L51.0,66.5L51.2,66.8L53.5,71.8L53.5,72.1L54.1,73.4L54.3,74.1L54.9,75.6L55.2,76.8L55.6,77.6L55.8,78.5L56.6,80.4L57.6,81.9L59.1,83.4L60.0,84.1L62.4,85.2L63.7,85.5L66.0,85.5L68.6,84.8L70.4,83.7L71.7,82.4L73.0,80.6L74.3,77.9L75.0,75.7L75.0,75.3L76.5,70.9L77.4,69.1L77.7,68.1L78.3,67.0L78.5,66.3L79.2,65.2L79.5,64.5L81.9,60.5L83.2,58.9L84.3,57.2L87.4,53.7L87.5,53.4L88.6,52.3L90.0,50.4L91.0,48.3L91.4,47.0L91.5,44.6L91.1,42.4L90.7,41.2L89.4,39.3L87.7,37.7Z M81.3,40.0L83.0,41.0L84.1,42.1L85.4,43.9L86.2,46.0L86.4,47.5L86.3,49.4L85.9,51.2L85.1,52.9L81.8,57.1L81.5,57.8L79.5,60.5L79.2,61.3L77.6,63.7L75.7,67.7L73.2,73.9L72.0,76.0L70.5,77.5L68.9,78.6L67.8,79.1L66.6,79.4L65.4,79.6L63.9,79.6L63.5,79.4L61.9,79.2L60.0,78.3L58.1,76.6L57.0,75.0L54.2,68.3L53.2,66.3L52.9,65.8L52.3,64.6L50.4,61.4L47.0,56.7L44.1,53.5L43.4,52.2L43.2,51.5L42.9,50.9L42.4,48.9L42.4,47.3L42.9,45.2L43.4,44.1L44.3,42.6L45.9,41.0L48.3,39.7L50.0,39.3L52.3,39.3L56.0,40.0L61.7,40.5L68.7,40.4L72.3,40.0L77.3,39.1L79.9,39.4Z M93.6,30.1L91.3,29.0L89.9,28.6L89.0,28.4L86.2,28.3L85.5,28.5L84.1,28.5L83.3,28.9L82.1,29.1L81.6,29.4L81.0,29.5L78.6,30.3L78.0,30.4L77.3,30.7L76.2,30.9L75.2,31.2L72.2,31.8L71.4,32.0L67.0,32.4L63.0,32.5L60.2,32.4L55.8,31.8L54.9,31.6L54.4,31.6L53.4,31.2L52.1,31.1L51.3,30.7L49.2,30.3L46.3,29.3L44.9,29.1L43.7,28.8L40.7,28.7L39.2,28.9L37.1,29.5L34.4,30.9L32.1,32.7L29.7,35.6L28.3,38.9L27.9,41.2L28.0,44.9L28.6,47.4L29.7,49.9L30.6,51.1L31.8,52.5L35.9,56.3L38.2,58.5L41.8,62.8L44.1,66.2L46.5,70.4L48.3,74.4L50.0,79.5L51.0,83.3L51.2,84.9L51.5,85.2L51.7,86.3L52.3,87.6L54.1,90.3L56.3,92.3L58.2,93.6L58.5,93.7L59.3,94.2L59.8,94.3L60.6,94.7L63.2,95.3L66.9,95.3L68.6,95.0L69.5,94.5L70.4,94.4L71.4,93.8L73.5,92.4L75.1,90.9L76.7,88.9L78.0,86.3L78.2,85.5L79.1,83.0L79.4,81.0L79.7,80.5L80.4,77.1L81.1,75.5L81.3,74.5L81.6,73.9L81.8,73.2L82.6,71.6L83.2,70.0L85.9,65.0L86.4,64.3L86.5,64.0L87.3,63.1L88.0,62.0L90.3,59.1L92.2,56.9L95.8,53.5L97.8,51.3L98.6,50.1L99.7,48.0L100.6,45.3L100.8,42.0L100.5,39.3L99.6,36.6L98.9,35.3L98.0,34.0L96.9,32.6L95.6,31.4Z M88.7,33.9L90.1,34.9L90.5,35.1L92.4,37.0L93.2,38.0L93.8,39.4L94.0,39.6L94.9,41.8L95.2,44.0L95.1,46.8L94.9,48.4L94.4,50.0L93.5,51.7L92.2,53.5L89.9,56.0L89.7,56.4L87.3,59.2L83.5,64.6L81.9,67.9L81.3,68.8L81.0,69.8L79.8,72.2L79.7,72.9L79.2,73.8L78.4,76.3L77.9,78.5L77.0,80.6L76.6,81.2L76.0,82.6L74.6,84.5L72.6,86.4L71.6,87.1L70.0,87.9L69.8,88.1L66.1,89.1L64.0,89.1L62.8,88.8L62.2,88.8L58.7,87.6L55.7,85.3L54.7,84.3L53.5,82.5L52.3,79.8L51.7,77.5L51.3,76.5L51.2,75.7L50.8,74.9L50.2,73.1L47.8,68.1L45.2,63.7L41.8,59.3L36.5,53.6L34.8,51.1L33.9,48.8L33.8,48.1L33.5,47.0L33.4,44.7L33.9,41.7L34.9,39.1L36.4,37.1L37.3,36.0L38.4,35.1L40.1,34.0L42.4,33.0L44.5,32.4L48.2,32.4L51.3,33.1L52.6,33.6L54.8,33.9L55.6,34.2L59.7,34.7L61.7,34.7L62.8,34.8L68.7,34.7L70.9,34.4L76.0,33.5L79.8,32.4L81.2,32.3L83.6,32.3L85.0,32.4L85.2,32.6L87.2,33.1Z M99.7,23.0L98.1,22.4L97.8,22.1L96.0,21.5L94.7,21.3L93.9,21.1L91.7,20.9L88.9,21.0L85.2,21.9L83.3,22.5L81.6,23.3L79.7,23.9L77.9,24.7L72.8,26.0L71.7,26.1L70.3,26.5L67.1,26.8L63.2,26.9L59.3,26.6L54.4,25.9L47.9,23.9L44.6,22.5L40.8,21.6L38.0,21.3L34.6,21.4L32.2,21.9L30.9,22.4L27.8,23.8L26.8,24.5L24.6,26.3L23.0,28.0L21.9,29.3L21.4,30.3L20.7,31.2L19.6,33.6L19.6,34.2L19.1,35.3L18.7,37.3L18.5,39.9L18.5,41.9L18.7,43.2L19.2,45.5L20.1,48.1L21.6,50.7L23.7,53.4L25.6,55.2L28.9,57.7L31.9,60.3L33.9,62.2L37.7,66.7L39.3,69.3L39.8,69.8L40.7,71.4L41.9,73.8L42.3,74.8L42.6,75.2L44.1,79.1L45.3,84.0L45.6,86.0L45.9,86.8L45.9,88.0L46.3,89.0L46.4,89.8L46.8,91.0L47.0,92.1L47.7,94.1L49.3,96.8L51.0,98.9L52.7,100.6L55.4,102.6L58.7,104.1L61.1,104.8L64.0,105.2L66.5,105.2L69.1,104.8L70.7,104.4L72.8,103.5L76.1,101.5L77.5,100.4L78.6,99.3L81.0,96.2L81.1,95.7L81.9,94.5L82.8,92.2L83.9,87.8L85.1,81.3L85.4,80.4L86.1,77.6L86.9,75.7L87.0,74.7L87.4,74.2L88.3,72.5L88.4,72.1L89.2,70.4L90.1,69.1L90.3,68.6L93.2,64.3L93.8,63.7L95.0,62.0L98.2,58.7L102.0,55.5L105.0,52.6L107.3,49.5L108.3,47.6L108.4,47.1L108.7,46.6L109.3,44.7L109.7,42.4L109.8,38.3L109.6,36.7L109.3,35.6L109.2,34.8L108.4,32.5L107.3,30.1L105.5,27.7L102.6,24.9Z M94.7,26.6L96.7,27.7L98.1,28.8L100.0,30.5L102.2,33.6L103.1,35.3L103.6,36.6L104.4,40.2L104.4,44.7L103.9,47.2L103.4,48.8L102.6,50.5L102.2,51.0L101.7,52.1L100.3,53.9L97.7,56.6L95.0,59.0L92.3,62.1L91.7,63.0L90.6,64.3L90.2,65.2L88.5,67.5L85.9,72.5L85.5,73.9L84.7,75.6L83.3,80.0L83.3,81.0L82.6,83.3L82.5,84.2L81.7,86.8L81.1,88.0L80.9,88.8L80.6,89.1L80.1,90.2L79.0,91.7L78.8,92.1L77.7,93.4L75.9,95.0L73.3,96.8L71.6,97.6L68.5,98.5L65.8,98.9L63.0,98.8L59.5,98.1L56.7,96.9L54.5,95.6L52.6,94.0L50.8,92.1L49.1,89.4L47.8,86.1L47.3,83.3L47.0,82.3L46.9,81.5L46.3,79.9L45.5,77.0L44.7,75.4L44.7,74.9L44.1,74.0L44.1,73.8L43.6,72.9L43.5,72.5L42.8,71.2L42.6,70.6L41.9,69.7L40.7,67.5L39.4,65.7L36.5,62.1L32.9,58.4L32.2,58.0L28.7,54.6L26.3,51.3L26.2,50.9L25.4,49.4L24.4,46.0L24.2,44.8L24.2,41.3L24.5,39.4L25.2,36.8L25.8,35.6L25.9,35.2L26.9,33.3L27.9,31.8L29.6,30.1L31.2,28.6L33.5,27.2L35.5,26.3L37.0,25.8L39.2,25.3L41.4,25.1L44.0,25.2L47.0,25.8L49.9,26.8L55.2,28.2L60.3,28.9L63.8,29.0L69.2,28.8L71.5,28.3L72.2,28.3L77.8,27.0L78.4,26.6L79.2,26.6L79.8,26.2L82.7,25.3L83.5,25.2L84.6,24.8L85.6,24.8L89.2,24.8L89.6,25.0L91.3,25.3Z M104.9,15.4L101.6,14.2L98.2,13.4L96.4,13.2L93.8,13.2L91.3,13.4L89.6,13.8L89.1,13.8L88.3,14.2L87.0,14.4L86.1,14.8L85.5,15.2L82.8,16.2L79.7,17.8L75.3,19.5L72.2,20.2L69.4,20.7L65.2,21.1L62.3,21.1L58.6,20.7L53.9,19.8L53.1,19.5L51.9,19.2L51.2,18.9L49.2,18.3L48.3,17.8L47.3,17.4L43.9,15.7L39.2,14.1L35.3,13.5L31.6,13.5L30.4,13.7L28.3,13.9L28.1,14.1L26.6,14.4L22.7,16.0L19.8,17.7L16.6,20.3L15.4,21.6L13.9,23.5L11.9,26.8L11.3,28.0L10.7,30.0L10.2,30.8L9.6,33.2L9.2,36.5L9.2,39.6L9.6,43.1L10.4,45.9L11.9,49.3L12.3,49.9L12.6,50.7L15.3,54.4L18.4,57.4L19.6,58.3L20.7,58.9L21.5,59.7L23.4,60.8L25.1,62.1L28.5,65.0L30.8,67.4L33.0,70.0L34.6,72.3L36.0,74.8L36.5,75.9L37.4,77.6L37.6,78.4L38.9,82.0L40.0,86.8L40.0,87.4L40.6,90.9L40.6,91.7L40.9,92.9L41.2,96.1L41.6,97.1L41.8,98.2L42.0,98.5L42.0,98.8L42.8,100.4L43.0,101.3L44.6,103.9L46.7,106.7L49.2,109.1L51.6,110.9L53.7,112.2L56.7,113.6L57.6,113.7L58.5,114.2L61.9,114.9L63.9,115.0L66.5,115.0L69.4,114.7L71.3,114.3L75.3,112.8L79.2,110.5L80.0,109.7L80.3,109.6L82.5,107.6L84.0,105.8L85.6,103.5L86.6,101.9L88.0,98.6L89.1,94.4L89.2,92.4L89.5,91.4L89.8,87.4L90.0,86.8L90.1,85.2L91.0,81.0L92.7,76.3L94.9,71.9L96.2,69.9L97.0,68.6L100.7,64.3L104.2,61.1L104.7,60.8L106.3,59.4L108.5,57.9L111.2,55.7L114.0,52.6L115.8,49.9L116.1,49.1L116.9,47.7L117.7,45.8L118.3,43.7L118.4,42.9L118.6,42.4L119.0,39.0L119.0,35.8L118.7,33.4L118.1,30.8L117.8,30.4L117.7,29.5L117.0,27.7L116.0,25.7L114.5,23.5L113.1,21.7L110.6,19.1L109.6,18.3L108.2,17.3L106.9,16.6L106.6,16.3Z M100.9,19.6L103.2,20.9L104.7,21.9L108.3,25.4L109.4,26.8L110.8,29.0L111.8,31.1L112.6,33.6L112.7,34.2L113.1,35.0L113.1,35.7L113.4,37.3L113.4,42.8L113.0,45.1L112.8,45.3L112.4,47.1L112.1,47.6L112.0,48.3L110.5,51.2L108.5,54.1L107.5,55.3L106.2,56.6L100.8,60.9L98.2,63.4L95.8,66.3L93.2,70.1L91.1,73.9L91.0,74.4L90.0,76.5L89.7,77.8L89.2,78.7L88.9,80.4L88.5,81.4L88.5,81.9L87.9,84.4L87.6,86.7L87.2,88.3L87.0,89.9L86.8,90.7L86.6,92.0L86.2,92.9L86.2,93.2L85.7,94.3L85.6,94.9L83.6,98.6L81.2,101.7L78.2,104.3L75.1,106.2L73.4,106.8L72.9,107.2L71.9,107.4L71.7,107.6L68.6,108.4L66.1,108.6L63.4,108.6L61.7,108.4L58.7,107.9L58.5,107.7L56.6,107.1L54.1,106.0L51.1,104.0L48.4,101.5L46.2,98.7L45.0,96.7L44.8,96.2L44.6,95.9L43.6,93.5L43.5,92.9L43.1,91.8L42.9,90.4L42.7,89.7L42.5,86.9L42.2,85.8L42.1,84.7L40.8,79.9L39.3,75.9L38.3,73.9L37.6,72.9L37.3,72.2L36.2,70.6L35.9,70.0L33.9,67.3L30.1,63.2L27.4,60.8L25.0,59.0L24.1,58.5L21.3,56.0L19.3,53.7L17.8,51.3L16.3,48.2L15.3,44.5L15.1,42.4L14.9,41.8L14.9,38.6L15.1,38.1L15.2,36.5L15.8,34.0L16.4,32.1L17.2,30.1L18.1,28.9L18.5,27.9L20.3,25.5L23.6,22.5L26.4,20.6L26.8,20.5L28.3,19.6L29.2,19.4L30.2,18.9L32.5,18.4L32.8,18.2L35.9,17.8L38.9,17.8L40.8,17.9L44.7,18.9L46.9,19.7L47.7,20.2L48.2,20.3L50.0,21.1L50.8,21.3L51.1,21.5L52.1,21.7L52.5,21.9L55.2,22.6L57.0,22.9L57.6,23.1L58.5,23.1L59.6,23.4L63.8,23.6L66.9,23.6L69.4,23.3L74.6,22.3L75.3,21.9L76.4,21.8L77.1,21.4L77.9,21.3L78.4,20.9L79.2,20.7L80.4,20.1L81.2,19.9L81.5,19.6L82.1,19.5L82.9,19.0L83.5,18.9L83.9,18.6L87.7,17.7L90.8,17.4L94.6,17.7L98.4,18.6Z" fill="#000" fill-rule="evenodd"/>
</svg>