<svg xmlns="http://www.w3.org/2000/svg" viewBox="0 0 128 128" width="128" height="128">
  <path d="M11.5,116.8L11.5,116.9L11.7,116.9L11.6,116.7Z M7.9,115.3L7.7,115.4L7.7,115.4L7.7,115.7L7.9,115.7L8.0,115.7L8.0,116.4L8.1,116.9L8.2,116.9L8.2,115.3L8.1,115.3Z M10.9,115.2L10.2,115.2L10.0,115.3L10.0,115.3L10.1,115.4L10.5,115.4L10.6,115.5L10.7,115.6L10.7,115.9L10.6,116.1L10.5,116.4L10.3,116.8L10.3,116.9L10.5,116.8L10.5,116.7L10.8,116.1L10.9,115.9L11.1,115.6L11.1,115.4Z M9.2,115.2L8.9,115.4L8.8,115.6L8.9,115.6L9.2,115.6L9.3,115.7L9.2,116.6L9.3,116.9L9.4,116.9L9.5,116.0L9.5,115.3L9.4,115.2Z M11.6,115.2L11.5,115.4L11.5,116.1L11.6,116.2L11.8,116.1L12.1,116.1L12.3,116.3L12.3,116.4L12.3,116.7L12.2,116.9L12.5,116.9L12.5,116.4L12.4,116.1L12.2,115.9L11.9,115.8L11.7,115.7L11.7,115.6L11.9,115.4L12.4,115.4L12.4,115.2Z M81.3,11.7L81.0,11.7L80.3,12.1L80.1,12.2L79.6,12.6L78.9,12.9L78.7,13.0L77.8,13.5L77.4,13.8L77.1,13.9L76.4,14.3L76.3,14.4L76.2,14.4L76.1,14.5L75.7,14.7L75.5,14.9L74.9,15.2L74.4,15.5L73.7,15.9L73.6,16.0L73.3,16.1L72.4,16.7L71.6,17.1L71.3,17.3L70.6,17.7L69.7,18.2L68.8,18.7L68.6,18.8L67.9,19.2L67.6,19.4L67.3,19.5L67.2,19.6L66.9,19.8L66.6,20.0L65.0,20.9L64.9,21.0L64.4,21.2L64.2,21.4L63.8,21.6L63.4,21.5L63.0,21.3L62.2,20.8L61.6,20.6L61.3,20.4L60.3,19.9L59.8,19.5L59.4,19.3L57.2,18.1L57.1,18.1L55.9,17.4L55.5,17.2L55.0,16.9L53.3,16.0L52.7,15.6L52.6,15.6L52.1,15.3L51.7,15.1L50.6,14.5L49.7,14.0L49.5,13.9L49.4,13.8L49.1,13.6L48.1,13.1L47.1,12.5L46.7,12.3L46.4,12.3L45.6,12.7L45.2,12.9L45.1,13.0L44.9,13.1L44.2,13.5L44.1,13.5L43.8,13.7L43.7,13.8L43.5,13.9L43.1,14.1L42.8,14.3L42.6,14.4L42.0,14.7L41.4,15.1L39.6,16.1L38.6,16.7L38.1,16.9L37.0,17.6L36.7,17.7L36.2,18.1L35.7,18.3L34.9,18.8L34.3,19.1L33.9,19.4L33.3,19.7L31.8,20.5L31.3,20.8L31.1,20.9L30.7,21.1L30.1,21.5L29.9,21.6L29.6,21.8L29.1,22.0L28.6,22.3L28.2,22.5L28.0,22.7L27.1,23.1L26.7,23.4L25.7,23.9L25.4,24.3L25.4,24.7L25.4,41.4L25.4,43.0L25.3,43.3L24.7,43.7L24.3,43.9L24.0,44.1L23.7,44.2L23.6,44.4L23.2,44.5L22.9,44.7L22.0,45.2L21.6,45.5L21.4,45.5L20.9,45.8L20.5,46.0L20.1,46.3L18.6,47.1L18.5,47.2L18.3,47.3L18.2,47.4L17.1,48.0L16.8,48.1L16.4,48.4L15.9,48.6L15.8,48.7L15.2,49.0L15.0,49.2L14.7,49.3L14.4,49.5L13.8,49.8L13.4,50.1L12.8,50.4L12.2,50.8L11.4,51.2L11.3,51.3L11.1,51.4L10.2,52.0L9.3,52.4L8.5,53.0L8.4,53.1L8.3,53.3L8.3,66.9L8.4,67.6L8.3,68.5L8.4,69.4L8.4,76.5L8.5,76.8L8.8,77.1L9.7,77.6L10.0,77.7L10.0,77.8L10.9,78.1L11.1,78.3L12.8,79.2L13.7,79.7L13.8,79.8L14.0,79.8L14.4,80.1L14.5,80.1L15.8,80.8L16.6,81.3L16.8,81.3L17.2,81.6L17.7,81.8L17.9,82.0L18.5,82.2L19.6,82.8L19.9,83.0L20.3,83.2L20.4,83.3L21.0,83.6L21.8,84.0L22.2,84.3L22.6,84.4L23.0,84.7L23.6,85.0L23.7,85.1L24.3,85.3L24.4,85.5L25.0,85.8L25.4,86.1L25.5,86.4L25.6,88.0L25.6,93.6L25.6,94.7L25.6,99.4L25.7,104.6L25.8,104.9L26.1,105.2L26.6,105.4L26.8,105.6L27.9,106.1L28.0,106.2L28.8,106.6L28.9,106.7L29.4,106.9L29.9,107.2L30.8,107.7L30.9,107.8L31.3,108.0L32.1,108.4L33.9,109.4L34.3,109.7L35.5,110.3L35.6,110.4L36.3,110.7L37.8,111.6L38.6,111.9L39.5,112.5L40.0,112.7L41.4,113.6L41.7,113.7L42.1,114.0L42.6,114.2L42.9,114.4L43.8,114.8L44.2,115.1L44.4,115.2L45.2,115.7L45.6,115.8L46.0,116.1L46.3,116.2L46.6,116.3L46.8,116.3L47.2,116.2L48.3,115.5L48.6,115.4L48.7,115.3L49.6,114.9L50.3,114.4L50.9,114.0L51.1,113.9L52.1,113.4L54.6,111.9L55.2,111.7L56.0,111.2L56.1,111.1L56.7,110.7L57.9,110.1L58.0,110.0L58.2,109.9L58.7,109.6L59.5,109.3L59.7,109.1L60.3,108.8L60.5,108.7L60.7,108.6L60.9,108.4L61.7,108.0L61.9,107.8L62.2,107.7L62.7,107.5L63.2,107.2L63.8,106.9L64.1,107.0L64.7,107.3L64.8,107.5L66.3,108.2L66.6,108.4L66.8,108.5L67.2,108.7L67.3,108.8L67.7,109.0L68.5,109.5L68.7,109.5L69.3,109.9L70.3,110.4L70.5,110.6L70.8,110.7L71.5,111.1L71.8,111.2L72.2,111.5L72.8,111.8L73.2,112.1L73.6,112.3L74.2,112.7L74.8,113.0L75.0,113.1L75.6,113.4L76.0,113.7L76.3,113.8L77.0,114.2L77.9,114.7L78.4,115.0L79.3,115.5L79.7,115.7L80.0,115.8L80.5,116.2L81.0,116.4L81.3,116.4L81.5,116.3L81.8,116.2L82.4,115.8L83.2,115.4L83.5,115.2L84.0,115.0L85.1,114.3L85.8,114.0L86.3,113.6L88.6,112.4L88.7,112.3L89.2,112.0L89.4,111.9L90.1,111.5L90.3,111.4L91.3,110.8L91.4,110.7L91.9,110.6L92.1,110.4L93.1,109.9L93.4,109.6L94.2,109.3L94.8,108.8L95.5,108.6L96.3,108.0L96.6,108.0L97.0,107.7L97.9,107.2L99.1,106.5L99.4,106.4L100.1,106.0L100.7,105.7L101.2,105.3L102.4,104.8L102.7,104.5L102.8,104.2L102.7,99.9L102.6,94.9L102.6,92.8L102.6,92.1L102.5,91.1L102.5,85.6L102.7,85.3L103.0,85.0L105.2,83.8L105.4,83.8L106.4,83.1L107.8,82.4L108.6,81.9L109.4,81.5L110.1,81.1L111.3,80.5L111.4,80.4L111.9,80.2L112.4,79.9L113.0,79.6L113.6,79.2L114.4,78.8L114.9,78.5L115.1,78.4L115.5,78.1L116.4,77.7L117.6,77.0L117.9,76.9L118.2,76.6L119.2,76.2L119.4,76.0L119.6,75.9L119.8,75.7L119.8,73.4L119.8,72.8L119.8,72.0L119.7,69.6L119.8,66.0L119.7,64.8L119.8,54.6L119.7,52.3L119.6,52.1L119.4,51.9L118.8,51.6L117.6,51.0L117.5,50.9L116.2,50.2L116.0,50.0L114.8,49.4L113.4,48.7L113.2,48.6L113.0,48.5L112.5,48.2L112.2,48.0L111.4,47.6L111.3,47.5L110.9,47.3L110.6,47.1L109.9,46.8L109.7,46.6L108.8,46.2L108.5,45.9L108.0,45.7L107.5,45.4L106.1,44.6L105.7,44.4L105.0,44.1L104.7,43.8L104.2,43.6L103.6,43.2L103.3,43.1L102.9,42.8L102.6,42.5L102.5,42.1L102.5,39.8L102.5,39.2L102.5,38.9L102.5,31.2L102.5,28.8L102.5,23.7L102.5,23.4L102.2,23.1L101.9,23.0L101.7,22.7L101.3,22.7L101.0,22.4L100.5,22.2L100.1,22.0L99.9,21.9L99.8,21.8L99.6,21.7L97.9,20.7L97.4,20.5L96.0,19.7L95.8,19.6L95.7,19.5L95.5,19.4L95.3,19.3L94.8,19.1L94.7,19.0L93.8,18.5L93.6,18.4L91.9,17.5L88.5,15.6L87.9,15.4L87.3,15.0L87.0,14.9L86.3,14.4L86.0,14.3L85.1,13.8L85.0,13.7L84.6,13.5L84.3,13.3L84.2,13.3L83.9,13.1L83.7,13.0L83.6,12.9L82.7,12.4L82.3,12.2Z M59.6,90.3L59.9,90.5L59.9,90.7L59.9,99.6L59.8,100.0L59.3,100.4L58.3,100.9L57.2,101.6L56.2,102.2L55.9,102.4L55.4,102.5L55.2,102.7L53.6,103.6L53.3,103.8L53.1,103.9L51.5,104.8L51.2,104.8L51.0,104.6L51.0,103.6L51.0,95.6L51.2,95.1L51.5,94.8L52.4,94.3L52.8,94.0L53.3,93.8L53.4,93.7L54.4,93.2L54.8,92.9L55.2,92.7L57.3,91.5L57.4,91.5L57.6,91.3L57.8,91.3L58.0,91.1L58.5,90.8L58.9,90.6L59.4,90.3Z M94.3,90.2L94.4,90.3L94.4,90.6L94.4,93.3L94.5,93.8L94.5,99.3L94.5,99.7L94.4,99.8L93.9,100.2L92.9,100.7L92.9,100.8L92.6,100.9L92.5,101.0L91.3,101.6L91.1,101.8L90.9,101.8L90.5,102.1L89.9,102.4L89.1,102.9L88.9,102.9L88.8,103.0L88.0,103.4L87.4,103.8L86.1,104.5L85.8,104.7L85.5,104.7L85.4,104.5L85.3,104.1L85.3,103.3L85.3,102.5L85.3,101.7L85.2,95.7L85.3,95.3L85.4,95.0L85.6,94.8L86.6,94.3L86.7,94.2L86.7,94.2L87.2,93.9L87.8,93.6L88.3,93.2L88.6,93.1L89.5,92.6L90.2,92.3L90.3,92.1L90.6,92.0L90.7,91.9L90.9,91.9L91.0,91.7L91.8,91.4L92.0,91.2L92.7,90.9L92.8,90.8L92.9,90.7L93.9,90.2Z M46.7,78.4L47.0,78.5L47.8,78.9L48.3,79.2L48.5,79.3L49.0,79.5L49.1,79.7L51.8,81.1L51.9,81.2L53.0,81.7L53.4,82.0L54.1,82.3L55.3,83.0L55.5,83.2L55.5,83.3L55.3,83.5L55.0,83.7L54.4,84.0L54.0,84.3L53.7,84.4L52.7,85.0L52.4,85.1L51.9,85.5L51.1,85.8L50.8,86.1L50.3,86.3L50.2,86.4L49.3,86.9L48.8,87.2L48.3,87.5L47.8,87.8L47.6,87.8L47.2,88.1L47.0,88.2L46.6,88.5L46.3,88.6L45.8,89.0L45.5,89.1L44.5,89.7L43.3,90.3L42.9,90.5L42.9,90.8L42.8,92.5L42.9,96.9L42.8,99.6L42.8,102.5L42.7,102.7L42.8,104.5L42.7,104.8L42.6,104.9L42.4,104.9L41.4,104.4L41.3,104.3L39.8,103.5L37.8,102.5L37.4,102.2L36.9,102.0L36.8,101.9L36.1,101.5L35.9,101.4L35.0,100.9L34.1,100.4L33.7,100.0L33.6,99.6L33.6,98.4L33.6,88.2L33.7,87.4L33.7,85.7L33.7,85.6L34.1,85.3L35.9,84.3L36.7,83.8L37.2,83.5L38.0,83.0L38.3,82.9L38.8,82.6L39.0,82.5L39.6,82.1L39.9,82.0L41.7,81.0L42.0,80.8L42.6,80.5L43.8,79.8L44.2,79.6L44.8,79.3L45.2,79.0L45.6,78.9L46.1,78.5L46.4,78.5Z M81.4,78.4L81.6,78.5L82.3,78.8L82.5,79.0L82.7,79.0L83.1,79.3L84.6,80.0L86.6,81.2L87.0,81.4L88.0,82.0L89.0,82.5L90.0,83.1L90.0,83.3L89.7,83.5L89.0,83.9L88.8,84.1L87.4,84.8L87.0,85.1L86.8,85.2L85.7,85.9L85.4,86.0L85.0,86.3L84.4,86.5L84.3,86.7L83.7,86.9L83.4,87.2L82.7,87.5L82.6,87.6L82.0,87.9L81.6,88.1L81.4,88.2L81.1,88.4L80.0,88.9L79.6,89.2L77.6,90.2L77.2,90.5L77.1,90.8L77.1,91.0L77.2,94.7L77.1,98.5L77.2,99.9L77.2,104.5L77.2,104.6L77.1,104.7L76.8,104.7L75.8,104.2L75.1,103.8L74.9,103.7L74.5,103.4L74.0,103.2L73.3,102.8L73.1,102.7L72.6,102.5L72.5,102.4L72.3,102.3L71.7,101.9L71.2,101.7L70.4,101.2L69.0,100.4L68.4,100.1L68.1,99.8L68.1,99.7L68.0,99.2L68.0,96.0L67.9,94.1L67.9,85.9L68.0,85.6L68.2,85.5L69.5,84.8L70.3,84.3L70.5,84.2L71.0,83.9L71.1,83.9L71.6,83.6L72.0,83.4L72.5,83.1L72.7,83.0L73.0,82.8L74.3,82.1L74.8,81.8L75.2,81.6L75.7,81.3L76.6,80.9L76.8,80.7L77.0,80.6L77.5,80.3L77.9,80.1L78.6,79.7L79.8,79.1L80.1,78.9L81.0,78.4Z M42.5,61.8L42.6,62.0L42.7,66.3L42.7,70.7L42.6,71.3L42.4,71.5L40.3,72.7L39.8,73.0L39.5,73.1L39.4,73.2L39.0,73.5L38.6,73.6L38.3,73.9L37.8,74.1L36.7,74.7L35.9,75.1L35.5,75.4L35.3,75.4L35.2,75.5L35.0,75.6L34.7,75.8L33.9,76.2L33.7,76.2L33.6,76.0L33.5,75.6L33.6,73.9L33.5,73.6L33.5,67.5L33.5,66.9L33.6,66.7L33.8,66.4L35.6,65.4L36.5,64.9L37.0,64.7L37.5,64.3L37.7,64.3L38.4,63.8L39.2,63.4L40.3,62.8L41.1,62.4L41.4,62.2L41.7,62.1L42.0,61.9L42.1,61.8Z M76.8,61.7L76.9,61.9L77.0,63.1L77.0,71.0L77.0,71.4L76.6,71.8L76.2,71.9L75.0,72.7L74.9,72.7L74.8,72.8L74.0,73.2L73.8,73.4L73.5,73.5L73.0,73.8L72.9,73.8L72.5,74.0L72.4,74.1L71.8,74.4L71.7,74.5L70.8,74.9L70.4,75.2L70.0,75.4L69.6,75.6L69.4,75.7L68.6,76.2L68.2,76.3L68.0,76.3L67.9,76.1L67.8,75.8L67.9,74.8L67.8,73.0L67.8,67.7L67.9,66.6L68.1,66.4L68.5,66.1L69.0,65.8L69.2,65.7L69.5,65.5L69.8,65.4L70.5,65.0L70.8,64.8L71.4,64.5L71.8,64.2L72.2,64.1L73.4,63.3L73.8,63.2L74.5,62.7L74.8,62.6L75.6,62.1L76.5,61.7Z M111.4,61.7L111.5,61.8L111.5,62.1L111.5,63.9L111.5,71.1L111.4,71.3L111.2,71.5L110.9,71.7L110.4,72.0L110.3,72.1L110.0,72.2L109.1,72.8L108.4,73.1L107.0,73.9L105.9,74.5L105.6,74.6L105.4,74.7L105.1,74.9L104.4,75.4L103.9,75.6L103.8,75.7L103.1,76.0L102.9,76.1L102.7,76.1L102.5,75.8L102.5,74.7L102.5,74.3L102.5,71.1L102.5,69.2L102.5,66.8L102.6,66.5L102.9,66.2L103.5,65.8L104.0,65.6L104.2,65.4L104.6,65.2L105.6,64.6L106.0,64.4L106.4,64.2L107.2,63.8L107.6,63.5L107.8,63.4L108.7,62.9L109.1,62.7L110.0,62.2L110.7,61.9L111.0,61.6Z M29.4,50.1L29.7,50.2L31.1,50.9L31.4,51.1L32.0,51.4L32.5,51.7L32.7,51.7L33.2,52.1L34.2,52.6L34.6,52.9L34.8,52.9L35.2,53.2L36.5,53.8L37.1,54.2L37.6,54.5L38.0,54.7L38.2,54.9L38.2,55.1L38.1,55.2L37.6,55.5L37.1,55.8L36.7,56.0L35.6,56.7L35.2,56.8L34.5,57.2L34.3,57.4L33.8,57.6L33.2,58.0L32.9,58.1L31.6,58.9L31.4,59.0L30.6,59.5L30.2,59.6L29.7,60.0L28.7,60.5L28.4,60.7L28.0,60.9L27.8,61.0L27.4,61.3L26.7,61.6L26.1,62.0L25.9,62.0L25.6,62.3L25.5,62.6L25.5,76.1L25.5,76.3L25.4,76.4L25.1,76.5L24.1,76.0L23.6,75.7L22.6,75.2L22.5,75.1L21.9,74.8L21.2,74.4L20.8,74.2L20.7,74.2L20.5,74.0L18.7,73.1L18.2,72.8L17.5,72.5L16.6,72.0L16.5,71.9L16.4,71.6L16.4,71.0L16.3,70.7L16.3,67.3L16.3,65.4L16.3,57.5L16.4,57.2L16.9,56.8L17.2,56.8L17.5,56.5L20.0,55.1L20.2,55.0L20.4,54.9L21.0,54.5L21.6,54.3L21.8,54.1L25.0,52.3L25.3,52.1L25.6,52.0L26.6,51.4L27.4,51.0L27.8,50.7L28.4,50.4L28.9,50.2Z M63.8,49.9L64.1,49.9L64.8,50.3L65.1,50.5L66.1,51.0L66.4,51.2L67.4,51.7L68.1,52.1L68.4,52.2L68.8,52.5L70.0,53.1L70.1,53.2L70.3,53.3L70.7,53.5L70.9,53.6L71.0,53.7L71.8,54.1L72.3,54.5L72.4,54.6L72.4,54.7L72.0,55.1L70.9,55.7L70.8,55.7L70.4,56.1L70.0,56.2L69.7,56.4L68.2,57.2L67.9,57.5L66.9,58.0L65.4,58.8L65.1,59.0L63.9,59.7L63.3,60.0L63.1,60.2L62.8,60.3L62.5,60.5L61.7,60.9L61.2,61.2L60.9,61.3L60.7,61.5L60.2,61.7L59.9,62.0L59.9,62.1L59.8,62.8L59.8,69.4L59.9,70.0L59.9,73.9L59.8,75.1L59.8,75.5L59.8,75.9L59.6,76.0L59.5,76.0L58.0,75.3L57.2,74.9L56.8,74.7L56.1,74.3L55.5,74.0L55.4,73.9L54.6,73.5L54.4,73.3L54.0,73.1L53.9,73.1L53.4,72.8L52.2,72.2L51.2,71.6L51.0,71.4L50.9,71.2L50.8,70.7L50.9,69.5L50.8,66.0L50.8,57.3L50.9,57.1L51.0,56.8L51.8,56.4L52.3,56.1L53.1,55.7L54.0,55.2L54.8,54.8L56.4,53.8L56.7,53.7L57.3,53.3L58.8,52.5L59.0,52.4L61.5,51.0L61.9,50.7L62.2,50.6L63.0,50.1L63.6,49.9Z M98.6,49.5L99.2,49.7L99.8,50.1L101.4,50.9L102.6,51.6L103.8,52.2L104.0,52.3L104.7,52.7L104.8,52.8L105.7,53.3L106.1,53.5L106.6,53.7L107.2,54.1L107.3,54.2L107.4,54.4L107.2,54.5L106.8,54.9L105.9,55.3L105.7,55.5L105.5,55.6L104.7,56.1L104.5,56.1L104.4,56.2L104.1,56.4L103.9,56.5L102.8,57.1L102.7,57.2L102.2,57.5L100.9,58.2L100.5,58.4L100.4,58.5L99.3,59.1L99.0,59.3L98.7,59.4L98.7,59.5L98.1,59.8L97.5,60.2L97.3,60.2L96.3,60.8L96.0,61.0L95.0,61.5L94.8,61.6L94.7,61.7L94.4,62.0L94.4,62.3L94.4,63.1L94.3,64.9L94.4,73.3L94.3,73.7L94.3,75.6L94.3,75.9L94.1,76.0L93.9,76.0L93.0,75.6L92.5,75.3L92.3,75.2L92.2,75.1L91.6,74.8L91.4,74.7L90.6,74.3L90.2,74.0L89.8,73.9L89.5,73.7L87.9,72.9L87.5,72.6L86.5,72.1L86.1,71.8L85.9,71.8L85.9,71.7L85.3,71.4L85.1,71.1L85.0,68.7L85.1,61.0L85.0,59.3L85.1,57.1L85.1,57.0L85.3,56.7L86.3,56.1L86.8,55.8L87.1,55.7L87.3,55.5L88.5,54.9L89.1,54.6L90.5,53.7L91.8,53.1L92.8,52.5L93.6,52.0L94.0,51.8L94.3,51.7L94.7,51.4L94.9,51.3L95.2,51.1L95.9,50.8L96.4,50.5L97.0,50.2L97.1,50.0L98.3,49.5Z M59.5,33.3L59.6,33.4L59.7,33.8L59.7,38.7L59.6,39.9L59.7,40.6L59.7,42.7L59.6,43.2L59.3,43.4L58.9,43.6L58.7,43.8L58.2,44.0L57.2,44.6L56.8,44.8L56.3,45.1L55.9,45.3L55.7,45.5L55.5,45.5L55.1,45.8L54.8,45.9L54.0,46.4L52.8,47.0L52.5,47.2L52.2,47.3L52.0,47.5L51.4,47.7L51.2,47.9L50.9,47.9L50.7,47.7L50.7,46.3L50.7,38.6L50.8,38.1L51.0,37.9L51.7,37.5L53.5,36.5L54.1,36.1L54.3,36.0L55.3,35.4L55.6,35.3L57.2,34.4L58.0,33.9L58.5,33.6L58.7,33.6L59.3,33.3Z M94.3,32.8L94.3,32.8L94.4,33.2L94.4,41.3L94.4,42.2L94.3,42.5L94.0,42.7L93.9,42.9L93.5,43.0L93.1,43.3L92.7,43.5L91.8,44.0L90.5,44.7L89.8,45.1L88.9,45.6L88.6,45.7L88.2,45.9L88.1,46.0L87.5,46.3L87.4,46.4L86.6,46.9L86.5,46.9L85.7,47.4L85.5,47.5L85.2,47.4L85.1,47.3L85.0,47.0L85.0,44.9L85.0,41.2L85.0,38.8L85.0,38.1L85.1,37.8L85.5,37.5L86.8,36.7L87.5,36.3L88.2,35.9L89.1,35.4L89.4,35.2L90.5,34.7L92.5,33.5L92.7,33.4L93.3,33.1L93.9,32.8Z M46.7,21.2L47.7,21.7L47.9,21.9L49.1,22.4L50.0,23.0L50.2,23.1L50.4,23.2L50.6,23.2L51.0,23.5L51.6,23.8L51.8,24.0L52.6,24.4L53.1,24.7L54.8,25.6L55.4,26.0L55.4,26.2L55.2,26.5L55.0,26.6L54.4,26.9L53.3,27.6L52.4,28.0L52.3,28.1L51.3,28.7L51.2,28.7L50.8,29.0L50.5,29.1L49.5,29.7L48.6,30.1L47.9,30.6L47.6,30.8L47.2,31.0L46.8,31.2L45.8,31.8L45.5,32.0L44.0,32.8L43.5,33.1L42.9,33.4L42.8,33.6L42.6,34.0L42.6,35.5L42.6,38.5L42.6,47.5L42.5,47.8L42.4,47.9L42.2,47.9L41.6,47.7L41.1,47.3L40.2,46.9L39.0,46.2L38.2,45.8L37.6,45.4L36.4,44.8L36.1,44.6L35.5,44.3L34.8,43.9L34.6,43.8L34.2,43.6L34.0,43.5L33.6,43.3L33.4,43.0L33.3,42.8L33.3,39.2L33.3,37.2L33.3,28.8L33.4,28.5L33.5,28.4L33.9,28.2L34.1,28.0L34.5,27.8L35.2,27.4L36.3,26.8L36.4,26.7L37.3,26.3L37.5,26.1L37.9,25.9L38.2,25.7L38.8,25.4L38.9,25.3L39.7,24.9L40.0,24.7L40.4,24.5L41.8,23.7L42.1,23.6L42.3,23.4L43.1,23.0L43.5,22.7L43.8,22.6L44.9,22.0L45.2,21.8L45.9,21.4L46.4,21.2Z M81.4,20.8L81.8,21.0L82.1,21.2L83.2,21.8L83.4,22.0L83.7,22.0L83.8,22.1L84.3,22.4L84.4,22.5L85.6,23.1L86.7,23.8L87.1,23.9L88.2,24.6L89.3,25.1L90.1,25.6L90.2,25.8L90.2,25.8L90.1,26.0L89.5,26.4L89.2,26.6L88.8,26.8L88.5,26.9L88.2,27.1L87.2,27.7L87.0,27.8L86.8,27.9L85.8,28.5L84.8,29.0L84.6,29.2L84.4,29.3L83.3,30.0L83.0,30.1L82.0,30.7L81.9,30.7L81.5,31.0L81.0,31.2L80.6,31.5L80.3,31.6L79.5,32.1L78.7,32.5L78.5,32.6L78.3,32.7L77.9,33.0L77.6,33.1L77.3,33.3L77.2,33.5L77.1,33.7L77.0,36.2L77.1,37.0L77.0,39.0L77.1,39.7L77.0,40.3L77.0,41.8L77.0,43.7L77.0,47.0L76.9,47.3L76.8,47.4L76.6,47.4L75.5,46.9L75.0,46.6L74.6,46.4L74.2,46.1L73.6,45.9L73.1,45.6L72.2,45.2L72.1,45.1L71.0,44.5L70.9,44.4L70.0,44.0L69.7,43.7L68.7,43.3L68.1,42.9L67.7,42.5L67.7,42.3L67.7,40.7L67.7,40.3L67.7,40.1L67.7,40.0L67.6,38.8L67.7,28.7L67.7,28.5L68.0,28.2L68.8,27.7L69.6,27.3L69.7,27.2L72.5,25.7L72.6,25.5L72.9,25.4L73.7,24.9L74.3,24.7L74.7,24.4L76.6,23.4L76.6,23.3L76.8,23.2L77.4,22.8L78.4,22.4L78.5,22.3L79.8,21.5L80.0,21.5L80.7,21.0L81.0,20.9Z" fill="#000" fill-rule="evenodd"/>
</svg>