<svg xmlns="http://www.w3.org/2000/svg" viewBox="0 0 128 128" width="128" height="128">
  <path d="M9.1,68.1L9.3,68.4L14.3,70.7L18.0,72.8L20.1,73.9L23.4,76.0L24.1,76.4L29.5,80.1L31.3,81.6L31.5,81.7L38.1,87.4L42.6,91.9L43.0,92.4L45.8,95.3L50.9,101.9L53.1,105.1L56.0,109.8L56.2,110.3L58.0,113.3L58.2,114.0L58.9,115.0L60.6,118.6L60.9,118.7L61.1,116.9L61.0,114.2L60.7,113.4L60.3,112.8L60.3,112.4L60.0,112.2L59.3,110.7L58.2,109.0L57.8,108.0L57.0,106.9L56.5,105.8L55.6,104.7L55.6,104.5L54.8,103.2L54.4,102.8L54.3,102.5L51.3,98.4L46.1,92.0L42.9,88.7L39.5,85.4L35.2,81.6L34.9,81.4L34.4,80.8L31.0,78.3L30.0,77.5L28.2,76.1L26.5,75.0L25.2,74.3L22.4,72.4L21.9,72.2L21.1,71.6L20.6,71.5L18.6,70.2L17.3,69.6L17.0,69.4L13.9,67.9L10.6,67.7L9.4,67.8Z M26.9,67.8L26.9,68.1L30.8,70.5L37.1,75.0L42.2,79.3L45.6,82.5L48.3,85.1L50.9,88.0L51.0,88.2L51.6,88.9L55.3,93.4L58.7,98.1L60.2,100.5L60.5,100.8L60.7,100.8L60.9,100.6L60.9,97.7L59.5,95.3L57.5,92.6L56.9,92.0L56.3,91.1L53.1,87.2L47.0,80.9L46.7,80.7L43.9,78.0L38.8,73.6L37.7,72.9L35.4,71.1L34.6,70.6L34.0,70.1L33.9,70.1L33.1,69.5L31.1,68.3L30.8,68.0L29.9,67.7L27.3,67.7Z M19.0,67.7L19.0,68.1L19.2,68.4L26.2,72.4L32.3,76.6L36.1,79.6L38.1,81.4L38.8,81.8L39.5,82.7L40.1,83.1L43.2,86.0L46.3,89.2L48.8,92.2L49.7,93.0L51.8,95.7L56.3,102.0L57.0,103.2L58.5,105.5L59.1,106.6L60.1,108.2L60.3,108.8L60.6,109.0L60.9,109.0L60.9,105.7L60.8,105.2L57.7,100.1L53.4,94.3L49.2,89.2L45.1,84.9L40.5,80.6L38.6,79.0L37.8,78.3L32.3,73.9L28.6,71.4L27.8,71.0L25.8,69.6L25.3,69.5L25.0,69.1L22.7,67.8L21.8,67.7Z M48.6,67.7L48.7,68.3L49.1,68.5L53.7,72.6L59.2,78.2L59.9,79.2L60.6,79.5L60.7,79.3L60.8,78.4L60.6,76.8L59.6,75.6L59.2,75.0L56.4,72.2L55.5,71.5L53.4,69.4L51.3,67.7L50.6,67.5L49.0,67.5Z M41.9,67.7L41.9,68.0L42.3,68.5L46.0,71.5L50.9,75.8L55.7,80.7L59.7,85.5L60.6,86.2L60.7,86.1L60.9,84.5L60.7,83.4L59.9,82.1L58.2,80.4L57.8,79.7L53.0,74.8L49.9,71.9L45.0,67.9L44.2,67.5L42.5,67.5Z M34.6,67.7L34.7,68.2L35.8,68.9L36.8,69.8L39.3,71.5L42.2,73.7L46.1,77.1L51.4,82.4L54.0,85.1L57.8,89.7L59.9,92.7L60.4,93.1L60.7,93.1L60.9,93.0L60.9,92.6L60.8,90.2L58.5,87.2L55.2,83.3L52.0,79.8L47.3,75.2L44.1,72.5L43.5,72.2L42.8,71.5L38.0,67.9L37.3,67.6L34.7,67.6Z M86.8,67.5L84.5,67.4L83.9,67.6L81.7,69.5L80.7,70.2L76.5,74.1L72.2,78.6L68.2,83.2L68.0,83.8L67.9,84.7L68.1,86.2L68.6,86.2L69.0,85.8L70.9,83.3L71.8,82.4L72.9,81.0L75.4,78.3L77.9,75.8L82.0,71.9L83.4,70.9L84.7,69.7L86.8,68.0Z M80.0,67.6L79.7,67.4L77.5,67.5L77.2,67.7L73.4,71.2L71.1,73.5L68.2,76.7L68.0,77.2L68.1,79.5L68.4,79.6L68.7,79.4L73.2,74.2L78.3,69.5L79.6,68.4L80.0,68.0Z M73.5,67.5L71.6,67.4L71.2,67.6L68.1,70.5L67.9,71.0L67.9,72.7L68.1,73.2L68.6,73.1L69.8,71.7L73.6,68.1L73.6,67.7Z M54.8,67.7L54.9,68.0L55.7,68.8L56.0,69.0L60.1,73.1L60.4,73.2L60.6,73.2L60.8,72.3L60.6,70.8L60.1,70.0L58.2,68.1L57.3,67.5L55.2,67.4Z M101.6,67.4L100.7,67.3L98.5,67.4L97.7,67.7L96.6,68.6L95.3,69.4L91.7,72.0L89.2,74.1L88.4,74.6L87.9,75.2L86.1,76.7L85.5,77.4L84.6,78.0L78.9,83.8L74.6,88.8L72.5,91.5L68.6,97.0L68.1,98.1L68.1,101.0L68.2,101.1L68.7,101.1L69.5,99.6L71.5,96.7L71.6,96.4L72.5,95.3L73.1,94.3L75.4,91.3L77.3,88.9L78.7,87.4L78.9,87.1L81.9,83.9L82.3,83.4L86.5,79.2L90.2,76.0L93.7,73.2L94.6,72.8L95.3,72.0L96.9,71.0L97.8,70.2L101.5,67.8Z M93.6,67.4L91.3,67.4L90.6,67.5L90.1,67.8L84.4,72.4L81.0,75.6L80.7,75.7L76.7,79.7L76.6,80.0L75.1,81.4L71.7,85.4L68.2,90.0L68.0,90.8L68.0,93.0L68.2,93.3L68.6,93.2L68.9,92.9L69.2,92.3L71.8,88.8L75.9,83.8L79.9,79.7L80.1,79.3L82.2,77.4L82.8,76.6L86.7,73.2L89.0,71.5L89.6,70.9L93.5,68.1L93.7,67.7L93.7,67.5Z M119.1,67.3L115.5,67.2L114.9,67.4L112.7,68.5L112.4,68.8L111.9,68.9L109.3,70.5L108.9,70.6L106.3,72.2L105.4,72.9L104.7,73.2L100.9,75.8L96.3,79.3L92.1,83.0L91.8,83.1L85.9,88.9L80.7,94.8L80.1,95.8L77.1,99.6L76.3,100.8L76.3,101.0L75.0,102.6L75.0,102.8L73.7,104.7L73.2,105.6L72.5,106.7L71.8,108.0L71.2,108.8L69.8,111.6L69.8,111.8L69.3,112.5L68.9,113.5L68.4,114.2L68.2,115.3L68.4,118.6L68.7,118.7L68.9,118.5L69.3,117.5L70.5,115.2L70.7,114.6L72.9,110.4L73.6,109.3L73.8,108.8L75.0,106.7L75.6,106.0L75.9,105.3L76.3,104.9L79.1,100.5L80.5,98.8L81.4,97.5L84.6,93.6L88.2,89.6L91.6,86.3L94.4,83.7L97.4,81.1L98.6,80.4L99.2,79.7L101.9,77.8L102.4,77.3L105.9,75.1L107.2,74.1L108.6,73.4L109.3,72.8L114.6,69.8L116.6,68.9L117.3,68.4L117.8,68.4L119.1,67.6Z M109.7,67.4L108.9,67.2L106.6,67.2L106.1,67.4L103.2,69.1L103.1,69.1L99.8,71.3L98.7,72.2L97.8,72.6L96.8,73.5L96.1,73.9L95.0,74.8L94.7,74.9L93.1,76.3L92.4,76.8L88.0,80.7L83.7,84.8L83.5,85.1L82.5,86.1L79.0,90.0L77.4,92.0L76.8,92.6L73.7,96.8L71.2,100.5L68.2,105.5L68.1,106.2L68.1,109.0L68.2,109.3L68.5,109.3L68.8,109.0L69.5,107.7L70.1,106.7L70.7,105.6L71.1,105.1L72.4,102.8L72.7,102.5L73.9,100.4L76.1,97.2L77.8,95.0L78.9,93.4L82.7,88.9L90.2,81.4L91.9,79.9L92.6,79.5L98.3,74.9L98.7,74.7L99.1,74.3L99.9,73.9L102.7,71.9L109.7,67.7Z M67.7,55.3L67.8,57.2L68.5,58.2L69.5,59.2L71.2,60.6L73.1,60.6L73.4,60.4L73.4,60.0L73.2,59.8L72.2,58.9L68.4,55.1L68.1,55.0Z M60.5,54.7L60.0,54.7L56.5,58.3L54.7,60.0L54.7,60.5L54.8,60.6L57.2,60.6L57.7,60.2L59.9,57.9L60.6,56.9L60.6,55.0Z M67.7,49.0L67.7,50.8L68.1,51.7L73.5,57.2L76.9,60.3L77.6,60.5L79.3,60.5L79.7,60.3L79.7,59.9L77.7,58.4L74.7,55.6L71.2,52.1L68.7,49.3L68.4,49.0L68.1,48.8Z M60.5,48.3L60.0,48.3L55.6,53.2L51.2,57.5L48.5,59.8L48.1,60.3L48.1,60.5L48.4,60.6L50.4,60.7L51.2,60.4L55.1,56.9L57.7,54.3L60.3,51.3L60.6,50.6L60.6,48.7Z M67.7,41.9L67.7,44.3L68.1,45.1L71.2,48.8L75.7,53.4L78.7,56.2L79.5,56.8L81.4,58.5L83.7,60.3L84.5,60.5L85.8,60.6L86.3,60.4L86.6,60.2L86.6,59.9L85.2,58.7L84.4,58.2L83.4,57.2L82.6,56.7L78.2,52.8L73.2,47.7L69.5,43.5L68.6,42.2L68.2,41.9Z M60.4,41.6L60.1,41.5L59.7,41.9L57.8,44.5L57.5,44.7L55.5,47.1L49.5,53.4L44.6,57.7L43.8,58.2L41.4,60.3L41.4,60.5L41.6,60.7L43.9,60.7L44.4,60.6L49.4,56.4L54.8,51.2L57.7,48.0L60.3,44.7L60.6,43.8L60.6,42.2L60.6,41.8Z M67.7,35.0L67.6,37.5L68.4,38.8L72.9,44.4L77.4,49.1L83.4,54.6L84.1,55.1L86.1,56.8L87.1,57.5L90.6,60.3L91.4,60.4L93.5,60.5L94.0,60.2L94.0,59.9L89.4,56.7L87.7,55.2L85.8,53.8L80.7,49.3L78.0,46.6L73.7,41.9L71.7,39.4L71.1,38.8L68.4,35.1L68.1,34.8L67.8,34.8Z M60.3,34.5L59.9,34.6L59.7,35.0L57.3,38.2L53.0,43.6L49.7,47.2L47.5,49.3L42.2,54.1L42.0,54.2L40.1,55.9L38.2,57.2L36.5,58.6L34.4,60.1L34.1,60.5L34.4,60.7L36.7,60.8L37.5,60.6L43.2,56.2L47.8,52.1L53.4,46.5L57.8,41.3L60.1,38.1L60.4,37.6L60.6,36.8L60.6,34.9Z M67.6,27.3L67.6,30.3L68.5,31.8L72.2,36.7L74.9,40.2L75.9,41.1L76.3,41.7L81.7,47.3L84.9,50.3L88.5,53.3L91.9,56.0L96.1,58.9L98.4,60.3L100.0,60.4L101.5,60.3L101.5,59.9L101.1,59.6L99.4,58.6L95.7,56.1L94.9,55.4L93.9,54.8L89.6,51.4L89.4,51.3L86.1,48.4L85.8,48.3L82.7,45.2L82.4,44.9L78.8,41.3L78.7,41.1L77.2,39.5L74.1,35.7L73.5,34.8L72.3,33.3L70.7,31.0L70.3,30.6L70.2,30.3L69.5,29.2L68.3,27.3L68.0,27.2L67.7,27.2Z M60.4,27.0L60.1,26.9L59.9,27.2L58.2,29.9L57.4,30.9L56.4,32.5L52.6,37.6L47.8,43.1L42.9,48.0L42.5,48.2L38.8,51.6L37.9,52.2L35.3,54.5L29.7,58.4L26.9,60.1L26.6,60.5L26.9,60.7L27.2,60.8L29.2,60.8L30.3,60.6L31.2,60.1L32.7,58.9L34.1,58.1L36.2,56.4L38.8,54.5L43.0,50.9L46.8,47.3L51.9,41.9L52.6,40.8L54.1,39.1L55.7,37.1L56.5,36.2L56.8,35.5L58.9,32.7L60.4,30.3L60.6,29.4L60.6,27.4Z M67.6,18.8L67.5,21.4L67.7,22.4L69.1,25.1L69.7,25.7L70.7,27.5L72.7,30.5L76.8,35.7L79.0,38.2L79.7,39.1L83.0,42.5L87.2,46.6L91.5,50.3L94.8,52.9L95.7,53.4L96.7,54.3L98.4,55.5L99.0,55.7L100.5,56.8L105.9,60.1L106.8,60.3L109.4,60.3L109.8,60.3L110.0,60.1L110.0,59.9L109.7,59.7L104.3,56.7L98.7,53.0L98.3,52.6L97.6,52.2L96.0,50.9L95.2,50.4L92.5,48.2L91.2,47.3L88.0,44.5L83.6,40.2L82.7,39.0L79.7,35.9L78.3,34.0L76.9,32.3L75.6,30.4L74.6,29.2L72.2,25.8L71.9,25.2L70.1,22.4L68.2,18.9L68.1,18.7Z M60.5,18.7L60.2,18.7L59.8,19.0L58.6,21.3L56.5,24.8L56.1,25.3L55.6,26.2L53.7,28.9L53.5,29.3L53.1,29.7L51.1,32.6L50.6,33.1L49.2,35.0L48.5,35.7L47.0,37.6L41.7,43.2L37.1,47.5L31.3,52.1L30.5,52.6L29.2,53.7L28.2,54.2L27.2,55.0L24.8,56.5L23.8,57.2L22.6,57.9L21.6,58.5L19.7,59.5L18.5,60.3L18.4,60.6L18.7,60.8L21.9,60.8L22.9,60.3L23.1,60.1L26.0,58.5L27.0,57.7L27.2,57.7L28.9,56.6L29.5,56.1L31.2,55.0L32.2,54.1L32.9,53.8L37.0,50.5L37.4,50.0L40.7,47.3L42.6,45.3L43.3,44.8L46.2,41.9L50.7,36.7L51.4,35.7L52.2,34.8L54.2,32.2L57.9,26.8L58.2,26.1L58.5,25.8L60.4,22.5L60.6,22.0Z M60.4,9.8L60.3,9.6L60.0,9.6L59.9,9.8L57.5,14.9L56.9,15.6L56.7,16.3L55.4,18.5L55.2,19.0L52.2,23.8L50.0,27.0L49.0,28.2L48.7,28.9L47.2,30.6L46.3,31.9L45.6,32.7L43.1,35.7L37.9,41.0L34.0,44.6L33.0,45.3L32.6,45.8L32.0,46.2L30.1,47.8L29.3,48.3L28.9,48.7L25.0,51.5L20.7,54.3L19.6,54.8L16.6,56.7L14.6,57.7L13.3,58.5L12.2,58.9L10.6,59.8L10.2,59.9L10.0,60.1L9.4,60.3L9.2,60.4L9.3,60.7L13.5,60.7L13.9,60.4L14.7,60.2L15.0,59.9L15.3,59.8L15.7,59.5L18.6,58.1L18.9,57.8L20.7,56.8L21.1,56.5L23.7,55.0L27.9,52.1L29.7,50.7L31.8,49.3L33.9,47.6L34.4,47.0L35.1,46.6L36.4,45.3L37.4,44.6L41.5,40.6L45.2,36.7L45.6,36.0L47.5,33.9L48.1,33.0L49.6,31.3L52.4,27.4L52.6,27.0L53.4,26.0L53.5,25.6L54.3,24.6L55.4,22.8L55.9,22.1L57.8,19.0L60.3,13.9L60.6,11.9Z M67.5,9.7L67.5,13.0L67.7,13.9L69.5,17.4L72.6,22.8L75.9,27.6L78.4,31.0L79.0,31.6L80.7,33.7L85.8,39.2L90.4,43.6L94.0,46.7L96.8,49.0L102.3,52.9L102.8,53.1L107.7,56.2L109.7,57.2L110.7,57.9L111.4,58.1L114.3,59.6L115.3,60.2L118.4,60.3L119.0,60.1L119.0,59.9L118.6,59.5L118.1,59.3L117.8,59.1L117.5,59.0L114.8,57.6L114.4,57.5L113.3,56.8L110.6,55.5L109.2,54.6L108.0,54.1L105.4,52.4L104.5,51.7L103.9,51.5L102.8,50.6L101.7,50.0L100.7,49.1L97.9,47.2L94.7,44.5L94.0,44.1L88.3,38.8L82.3,32.3L82.2,32.1L80.4,29.9L79.8,29.1L79.0,28.2L78.6,27.4L77.4,26.0L75.8,23.5L75.4,23.1L74.2,21.1L73.2,19.7L72.6,18.3L72.2,17.7L71.3,16.0L69.8,13.4L69.6,12.9L68.8,11.3L68.1,9.8L67.8,9.5Z" fill="#000" fill-rule="evenodd"/>
</svg>