<svg xmlns="http://www.w3.org/2000/svg" viewBox="0 0 128 128" width="128" height="128">
  <path d="M9.8,118.4L11.1,118.4L11.1,118.2L10.8,117.9L10.4,117.9Z M20.8,118.4L22.3,118.4L22.1,117.9L21.5,117.8Z M14.8,118.1L14.6,117.8L14.1,117.8L13.4,118.4L14.8,118.4Z M16.4,118.2L16.4,118.4L16.9,118.4L17.4,118.1L18.0,118.1L18.4,118.4L19.0,118.4L18.4,117.7L18.2,117.6L17.1,117.6L16.6,117.9Z M75.6,41.1L74.6,41.2L72.9,42.3L70.5,44.1L68.7,45.2L67.3,46.3L64.9,48.0L64.5,48.2L62.6,49.7L56.2,54.0L55.8,54.4L55.1,54.9L54.2,55.8L54.2,56.3L54.8,56.9L55.8,57.6L58.2,59.5L59.3,60.2L60.5,61.2L63.5,63.3L64.3,64.0L65.9,65.0L68.9,67.4L74.6,71.6L75.0,71.9L74.8,72.4L73.0,73.8L72.4,74.1L69.9,76.0L69.2,76.4L67.2,78.1L66.6,78.3L65.5,79.2L64.6,79.7L62.1,81.6L61.2,82.1L58.0,84.5L55.2,86.4L53.1,88.0L52.3,88.5L47.6,92.0L45.3,93.6L44.7,94.1L44.1,94.3L42.0,96.0L40.5,97.0L38.4,98.7L34.6,101.1L34.3,101.4L34.3,101.6L34.9,101.9L35.6,102.6L38.4,104.6L39.2,105.3L40.0,105.8L40.6,106.4L41.4,106.8L42.2,107.5L43.2,108.0L45.0,109.5L51.0,113.7L51.8,114.4L53.4,115.4L55.5,117.0L56.2,117.3L56.8,117.3L57.8,116.6L57.9,116.6L60.6,114.6L62.1,113.7L63.7,112.4L66.7,110.5L68.9,108.9L69.7,108.4L70.7,107.6L72.2,106.7L73.7,105.5L74.4,105.1L76.8,103.3L77.7,102.9L84.7,97.8L89.4,94.6L92.0,92.7L93.8,91.5L95.5,90.2L96.4,89.8L97.1,89.1L98.2,88.5L104.9,83.6L106.6,82.5L108.7,80.9L110.4,79.8L112.9,77.9L113.6,77.5L114.6,76.6L115.6,76.1L117.4,74.7L118.1,74.2L119.1,73.3L119.0,72.7L118.0,71.8L117.4,71.5L108.7,65.0L103.5,61.4L101.5,59.8L99.3,58.4L98.3,57.5L97.5,57.0L96.6,56.3L96.2,56.1L95.5,55.5L94.5,54.9L92.6,53.3L91.2,52.5L89.5,51.1L88.9,50.8L88.5,50.4L84.9,48.0L83.9,47.1L81.9,45.8L78.7,43.3L78.1,43.0L77.6,42.5Z M70.9,10.9L70.4,11.0L69.9,11.3L68.0,12.7L67.2,13.2L65.8,14.4L64.7,14.9L64.0,15.7L62.0,17.0L60.7,18.1L59.0,19.1L55.9,21.5L55.3,21.9L53.6,23.2L51.9,24.3L51.1,25.0L49.2,26.2L47.9,27.2L45.7,28.7L37.7,34.5L36.5,35.2L34.5,36.8L34.1,36.9L32.6,38.1L30.6,39.4L27.5,41.7L26.2,42.5L25.4,43.2L24.3,43.8L22.9,45.0L20.8,46.4L20.0,47.1L19.2,47.6L17.9,48.6L14.8,50.7L14.4,51.1L9.9,54.3L9.1,55.1L9.1,55.4L10.5,56.7L18.8,62.9L19.4,63.5L20.5,64.2L22.1,65.6L23.8,66.7L25.9,68.5L26.4,68.8L27.3,69.6L34.1,74.7L39.2,78.8L40.2,79.4L44.9,83.1L45.9,83.7L47.0,84.6L50.6,87.3L51.3,87.3L52.0,86.8L53.0,86.0L54.4,85.1L59.6,81.3L60.3,80.9L63.2,78.7L64.9,77.6L66.3,76.5L67.9,75.5L69.7,74.1L71.3,73.1L71.9,72.4L71.9,71.9L71.2,71.2L65.6,67.1L64.9,66.4L63.8,65.7L63.1,65.0L61.2,63.8L59.3,62.3L53.0,57.7L51.2,56.1L51.2,55.8L52.0,55.0L52.4,54.8L53.9,53.6L54.8,53.2L56.5,51.8L57.1,51.5L58.2,50.6L58.3,50.6L58.7,50.2L59.1,50.1L60.4,49.0L60.7,48.9L61.7,48.0L64.4,46.2L65.2,45.6L65.3,45.6L66.6,44.7L67.0,44.3L69.6,42.5L71.6,41.0L72.2,40.7L73.3,39.7L73.8,39.5L79.0,35.6L79.1,35.6L80.2,34.7L82.1,33.5L82.6,33.0L84.3,32.0L86.3,30.3L86.7,30.2L88.6,28.7L89.1,28.5L89.9,27.7L91.2,26.8L91.6,26.3L91.4,25.8L90.9,25.3L90.4,25.0L89.5,24.3L89.3,24.3L84.7,20.8L83.8,20.3L81.6,18.6L79.3,17.0L78.2,16.1L77.2,15.6L76.5,14.9L73.9,13.0L73.8,13.0L72.1,11.6Z" fill="#000" fill-rule="evenodd"/>
</svg>