<svg xmlns="http://www.w3.org/2000/svg" viewBox="0 0 128 128" width="128" height="128">
  <path d="M112.5,38.2L112.3,38.0L112.0,37.9L109.3,37.8L106.7,37.9L83.6,37.5L74.9,37.5L74.6,37.7L74.5,38.0L74.4,41.6L74.3,42.1L60.5,56.3L60.1,57.0L56.0,61.3L54.1,63.1L53.8,63.1L53.6,62.7L53.6,60.1L53.3,59.7L52.6,59.5L45.1,59.3L42.8,59.2L41.4,59.3L39.7,59.1L28.3,59.0L23.5,58.7L16.2,58.7L16.0,59.0L16.0,74.0L15.7,89.2L16.1,89.6L16.4,89.6L21.6,89.9L38.1,90.2L48.2,90.6L52.7,90.6L53.0,90.3L53.1,89.8L53.1,86.5L53.4,85.7L56.3,82.9L56.7,82.3L59.7,79.3L60.1,78.8L61.5,77.4L64.4,74.3L66.4,72.3L69.3,69.2L72.8,65.7L73.3,65.3L73.5,65.3L73.8,65.6L73.8,68.7L74.1,69.0L74.6,69.0L82.3,69.1L83.2,69.3L85.8,69.2L106.2,69.5L111.6,69.4L112.0,69.0L112.0,67.9L112.0,63.3L112.3,54.4L112.2,51.9L112.3,50.0L112.4,49.1L112.4,42.3L112.6,41.0Z M9.5,52.1L9.5,72.0L9.3,87.6L9.2,88.5L9.2,96.3L9.6,96.7L28.3,96.9L36.5,97.2L40.3,97.1L45.1,97.4L48.1,97.4L51.2,97.6L61.2,97.7L63.6,97.8L69.8,97.8L72.4,98.0L79.1,98.1L81.2,98.2L96.4,98.4L97.4,98.1L107.8,87.6L108.2,87.0L109.9,85.4L118.0,76.5L118.2,76.0L118.2,72.6L118.3,71.0L118.3,66.8L118.5,64.4L118.4,63.4L118.7,59.2L118.6,58.0L118.9,52.1L119.1,31.8L119.1,31.6L118.7,31.3L117.0,31.2L93.9,30.9L74.6,30.6L72.7,30.6L65.3,30.5L63.6,30.3L54.5,30.3L52.9,30.2L45.1,30.2L30.0,29.8L29.6,30.0L29.0,30.6L28.0,31.9L25.0,34.9L24.7,35.4L23.5,36.6L19.3,41.4L17.7,42.9L17.5,43.3L16.4,44.4L15.3,45.6L12.2,48.9L12.0,49.2L10.6,50.6L10.4,51.1L9.7,51.7Z M114.6,36.3L114.6,42.2L114.5,45.4L114.5,52.3L114.2,59.2L114.0,68.3L113.9,70.8L113.4,71.4L110.4,71.6L103.4,71.6L98.7,71.4L91.2,71.4L75.9,71.0L73.9,71.1L73.6,71.4L73.5,75.0L73.4,75.8L66.2,83.1L65.7,83.8L59.3,90.3L58.9,90.6L57.8,91.8L53.7,95.9L53.4,96.0L53.2,96.0L53.0,95.8L53.0,93.0L52.6,92.6L52.2,92.6L44.6,92.4L35.3,92.0L25.3,91.8L24.3,91.7L14.5,91.5L14.1,91.2L13.8,89.9L14.0,76.0L14.0,57.3L14.4,56.7L18.9,56.7L24.4,56.8L25.7,57.0L27.2,56.9L30.5,57.1L35.5,57.1L37.6,57.2L44.4,57.3L46.6,57.5L53.4,57.5L53.7,57.1L53.7,53.3L53.9,52.7L74.1,31.6L74.6,31.7L74.6,34.9L74.7,35.2L75.0,35.4L75.5,35.4L78.9,35.4L80.3,35.5L85.9,35.5L89.7,35.7L91.6,35.6L94.1,35.8L112.8,35.9L114.3,36.1Z" fill="#000" fill-rule="evenodd"/>
</svg>