<svg xmlns="http://www.w3.org/2000/svg" viewBox="0 0 128 128" width="128" height="128">
  <path d="M65.3,66.5L64.7,67.5L64.6,67.9L63.3,70.0L63.0,70.6L62.6,71.1L62.2,72.0L61.8,72.7L60.6,74.8L59.5,76.7L58.5,78.6L58.2,78.9L57.2,80.9L56.3,82.3L55.4,84.3L54.8,85.0L54.7,85.4L54.2,86.1L53.6,87.3L52.4,89.3L51.3,91.4L49.1,95.1L48.8,95.8L47.9,97.3L46.8,99.4L46.1,100.3L44.9,102.8L44.0,104.1L42.9,106.3L42.5,106.8L42.3,107.4L39.4,112.4L39.5,113.0L41.3,113.2L48.0,113.2L63.7,113.6L64.3,113.3L64.7,112.9L65.5,111.3L65.9,110.7L66.8,108.9L67.7,107.6L68.4,106.1L69.2,104.9L69.2,104.6L69.6,104.2L69.7,103.7L70.0,103.3L71.4,100.8L71.7,100.5L73.3,97.4L74.0,96.4L77.5,90.0L77.9,89.6L78.2,89.6L79.0,90.6L81.6,95.3L82.6,96.8L83.4,98.3L85.2,101.1L85.5,101.9L86.1,102.8L86.8,104.2L88.1,106.2L88.2,106.6L90.2,109.7L91.3,111.8L91.8,112.4L91.9,112.9L92.8,114.0L93.1,114.0L93.5,113.5L94.6,111.5L95.7,109.7L96.0,109.1L98.2,105.3L99.0,103.8L100.4,101.6L100.8,100.7L101.2,100.2L102.1,98.4L102.5,97.9L103.3,96.3L103.6,95.9L104.3,94.4L105.0,93.4L105.4,92.5L105.4,91.9L104.3,90.0L104.2,89.7L103.8,89.2L103.8,88.9L103.0,87.8L102.8,87.3L101.7,85.6L101.6,85.1L101.2,84.8L101.0,84.2L100.7,83.9L97.9,78.9L97.1,77.6L95.9,75.3L94.2,72.5L93.9,71.9L92.9,70.3L91.5,67.8L91.0,66.9L90.7,66.6L90.4,66.5L80.7,66.4L65.9,66.4Z M35.4,17.8L35.0,18.1L34.5,19.0L34.3,19.5L34.1,19.7L33.7,20.6L33.2,21.2L32.7,22.4L31.3,24.6L30.9,25.8L30.6,26.0L29.5,28.1L29.3,28.4L29.1,28.8L27.7,31.1L26.8,33.0L26.1,34.0L25.3,35.5L25.1,35.8L24.3,37.4L24.1,37.6L23.8,38.2L23.3,39.1L23.2,40.0L24.7,42.6L25.2,43.6L26.0,44.8L27.8,48.2L28.6,49.5L29.0,50.4L29.6,51.2L30.8,53.5L31.0,53.8L32.2,56.1L32.7,56.8L34.0,59.3L34.6,60.1L36.4,63.5L36.3,63.8L36.1,64.0L34.8,64.1L9.7,64.1L9.3,64.2L9.2,64.7L9.5,65.5L10.4,67.0L11.1,68.5L11.6,69.1L12.1,70.1L13.9,73.1L14.5,74.3L15.2,75.4L15.4,76.0L15.7,76.4L15.9,76.9L16.8,78.3L16.9,78.6L19.1,82.4L19.3,83.0L19.7,83.3L19.9,83.9L20.4,84.5L20.4,84.7L21.4,86.1L22.0,86.2L25.5,86.3L32.4,86.2L48.9,86.4L49.5,86.2L49.8,85.9L50.7,84.4L50.9,83.9L51.5,83.0L52.2,81.5L52.6,81.0L53.9,78.3L55.0,76.8L55.2,76.1L55.8,75.2L56.6,73.6L57.3,72.7L58.2,70.9L61.2,65.7L61.7,64.8L61.8,64.3L61.1,62.9L60.9,62.7L60.3,61.5L59.5,60.3L58.7,58.6L58.0,57.6L56.6,54.8L56.3,54.5L55.8,53.4L55.0,52.1L53.6,49.5L53.2,48.9L52.5,47.5L51.3,45.5L50.2,43.4L49.2,41.8L48.8,40.8L48.5,40.4L48.1,39.5L47.7,39.0L44.9,33.7L44.6,33.5L43.2,30.8L42.6,29.9L41.6,27.9L40.2,25.6L39.9,25.0L37.8,21.5L37.5,20.7L36.0,18.0L35.7,17.8Z M66.6,15.1L65.2,17.5L65.1,18.0L64.7,18.5L64.0,19.9L63.4,20.8L63.1,21.6L62.9,21.8L61.8,24.0L61.4,24.6L61.1,25.2L60.8,25.6L60.6,26.2L60.2,26.7L59.9,27.3L58.0,30.6L57.6,31.7L56.6,33.3L56.5,33.7L56.1,34.1L55.8,34.8L55.1,35.9L53.0,39.8L53.1,40.5L53.3,41.1L54.0,42.1L54.3,42.7L54.5,43.0L55.8,45.5L56.5,46.4L57.9,49.2L61.5,55.4L62.1,56.6L63.3,58.6L64.7,61.3L65.5,62.3L66.7,62.4L100.8,62.4L107.9,62.3L118.7,62.3L119.1,62.0L119.1,61.6L118.7,61.2L118.1,59.7L117.2,58.2L116.2,56.2L115.3,54.8L115.0,54.1L114.8,53.8L114.1,52.3L113.7,51.9L112.8,49.9L111.9,48.6L109.3,43.7L108.5,42.5L108.2,41.8L107.8,41.3L107.3,40.3L106.9,39.8L106.4,39.6L79.0,39.7L78.5,39.4L78.5,39.2L78.9,38.5L79.1,38.3L80.3,36.0L80.6,35.6L82.0,32.9L82.8,31.8L84.5,28.5L84.8,28.2L85.2,27.3L87.5,23.6L87.8,22.8L88.0,22.5L88.9,20.6L89.3,20.2L89.5,19.7L89.7,19.5L92.0,15.2L92.3,14.9L92.3,14.3L79.1,14.3L73.7,14.5L67.5,14.5L67.0,14.7Z" fill="#000" fill-rule="evenodd"/>
</svg>