<svg xmlns="http://www.w3.org/2000/svg" viewBox="0 0 128 128" width="128" height="128">
  <path d="M64.0,10.7L63.6,10.9L61.6,12.9L61.1,13.2L59.5,14.8L58.2,15.8L57.3,16.9L55.3,18.5L54.5,19.4L54.3,19.4L53.1,20.5L48.8,24.6L48.2,25.0L47.2,26.1L46.9,26.3L44.9,28.1L41.9,30.9L41.2,31.4L36.6,35.9L36.2,36.2L35.0,37.5L33.9,38.2L32.6,39.6L29.6,42.4L28.9,42.7L28.5,42.7L28.2,42.5L27.2,40.4L26.8,39.3L26.4,38.8L25.5,36.4L25.1,36.1L24.5,36.1L20.9,38.0L20.4,38.4L17.5,39.9L16.8,40.4L16.1,40.8L15.0,41.5L14.6,41.6L13.5,42.4L12.8,42.6L11.6,43.4L11.0,43.7L9.2,44.7L9.1,45.4L9.5,46.4L9.8,46.8L11.0,49.7L12.0,51.6L13.0,54.2L13.7,55.7L14.4,57.8L15.2,59.2L15.2,59.5L15.5,60.0L16.3,62.2L16.7,62.8L17.0,63.9L17.4,64.5L18.1,66.3L19.2,68.7L19.7,70.2L20.2,71.0L21.0,72.7L21.0,73.2L21.7,74.3L22.1,75.6L23.5,78.5L23.6,79.2L24.5,80.9L24.7,81.8L25.2,82.5L25.7,83.8L26.4,84.8L26.6,85.6L27.4,87.1L27.9,88.6L28.6,90.0L28.6,90.4L28.1,90.8L26.4,90.9L25.3,91.0L25.0,91.2L22.7,91.4L21.7,91.8L21.4,92.4L21.4,96.2L21.9,101.8L21.9,104.5L22.1,105.3L22.3,110.8L22.7,111.4L23.9,111.5L25.5,111.1L26.6,111.1L27.7,110.9L28.5,110.9L29.3,110.7L31.2,110.3L32.7,110.3L35.0,109.9L35.3,109.8L36.3,109.8L38.0,109.5L39.1,109.5L42.3,109.0L43.5,109.0L45.9,108.5L48.2,108.4L51.2,107.8L53.3,107.7L53.8,107.5L57.4,107.3L59.2,106.9L60.9,106.9L61.4,106.6L63.5,106.5L64.7,106.1L67.4,106.0L68.1,105.7L73.2,105.2L73.5,105.3L74.1,105.8L73.5,108.3L73.1,110.8L72.6,112.7L72.6,113.3L72.9,113.8L75.6,114.5L78.5,115.0L81.1,115.7L82.8,116.0L83.6,116.3L84.7,116.4L85.8,116.7L87.2,116.9L88.7,117.3L91.3,117.5L91.8,116.9L91.8,116.4L92.5,113.8L92.5,112.7L93.2,109.4L93.6,108.2L93.7,107.3L94.1,105.8L94.4,103.5L94.9,101.6L94.9,100.8L95.4,99.1L95.7,97.1L96.1,95.9L96.4,94.0L96.7,93.0L97.2,89.7L97.5,89.2L97.8,87.4L98.1,86.3L98.7,83.0L99.2,80.9L99.2,80.4L100.4,75.3L100.4,74.4L100.8,73.6L100.9,71.8L101.3,70.7L101.4,69.9L101.8,68.4L101.9,67.3L102.3,65.8L102.6,65.5L103.3,65.5L104.4,66.1L106.1,66.8L109.9,68.8L110.3,68.9L110.7,68.7L111.1,68.1L112.0,66.4L112.8,65.2L113.6,63.8L114.3,62.8L114.5,62.1L115.0,61.5L115.7,60.1L116.7,58.6L116.9,57.9L117.9,56.6L118.5,55.3L119.0,54.6L119.1,53.7L118.6,53.2L117.9,52.6L117.0,52.3L116.2,51.7L112.2,49.8L111.2,49.1L109.9,48.6L108.2,47.6L107.4,47.3L105.6,46.2L103.4,45.3L102.2,44.5L99.9,43.3L99.5,43.0L99.1,42.9L98.9,42.7L96.3,41.5L94.2,40.2L93.0,39.7L91.7,38.9L91.3,38.8L86.8,36.3L81.2,33.4L80.7,33.0L79.4,32.6L78.9,32.1L77.6,31.6L76.2,30.6L73.6,29.4L73.2,28.9L73.3,28.5L75.5,26.3L78.0,24.2L78.1,23.9L78.0,23.4L73.5,19.0L72.3,18.1L71.1,16.8L68.7,14.7L65.3,11.4L65.1,11.3L64.5,10.7Z M83.8,55.8L83.9,56.7L83.7,57.5L83.5,59.0L83.2,59.8L83.1,60.7L82.7,61.8L82.0,65.6L81.7,66.3L81.3,68.3L81.1,69.8L80.9,70.2L80.5,72.3L80.1,73.5L80.0,75.2L79.6,77.4L79.2,78.6L79.1,79.9L78.8,80.7L78.6,82.3L78.3,82.8L78.2,83.4L77.7,84.0L77.0,84.2L75.7,84.2L74.5,84.4L73.4,84.7L72.2,84.8L69.8,85.3L68.2,85.4L66.2,85.8L64.0,85.9L62.8,86.3L61.4,86.3L59.8,86.7L58.1,86.7L56.0,87.1L54.1,87.2L52.0,87.6L50.5,87.8L49.4,87.7L48.7,87.0L47.5,83.8L46.0,80.8L45.8,80.1L45.2,79.1L45.0,78.2L43.9,76.1L43.6,75.7L43.4,75.1L42.3,72.8L42.1,71.9L39.3,66.6L38.6,64.9L38.6,64.7L37.8,63.4L37.3,62.3L37.3,61.7L40.2,58.8L42.1,57.3L44.2,55.2L45.7,54.0L47.0,52.5L49.7,50.2L50.4,49.4L51.1,49.0L53.3,46.9L53.7,46.6L55.4,44.9L58.1,42.4L58.4,42.2L59.5,42.5L60.8,43.3L62.4,44.0L63.7,44.9L66.5,46.3L66.9,46.4L69.4,47.9L70.8,48.5L71.0,48.7L71.7,49.0L73.0,49.8L74.6,50.5L77.5,52.3L82.9,54.9Z" fill="#000" fill-rule="evenodd"/>
</svg>