<svg xmlns="http://www.w3.org/2000/svg" viewBox="0 0 128 128" width="128" height="128">
  <path d="M54.9,72.4L54.8,89.5L55.0,92.4L55.2,93.5L55.7,93.9L56.9,94.6L57.9,95.3L58.5,95.5L58.8,95.8L60.4,96.8L61.1,97.0L61.7,97.5L62.3,97.7L63.3,98.4L63.6,98.5L64.3,98.9L66.4,100.0L67.8,101.0L68.9,101.4L71.6,103.2L73.3,103.9L74.3,104.6L75.1,105.0L77.0,106.2L79.8,107.8L80.9,108.2L82.3,109.2L82.6,109.3L83.7,110.0L84.5,110.4L85.5,111.0L86.6,111.5L87.6,112.2L89.3,113.1L89.8,113.1L90.1,112.9L92.1,109.7L93.1,107.6L94.5,105.4L95.7,103.2L98.1,99.2L98.5,98.3L98.5,97.6L95.9,95.9L92.6,94.2L91.9,93.7L88.7,91.9L87.3,91.0L86.6,90.7L85.0,89.7L83.4,88.9L82.6,88.3L81.3,87.8L80.2,87.0L79.3,86.6L77.6,85.5L75.2,84.3L74.4,83.7L72.2,82.6L70.5,81.4L67.3,79.8L66.8,79.3L63.6,77.6L62.0,76.5L61.3,76.3L60.6,75.7L57.9,74.3L57.0,73.7L56.5,73.1L55.7,72.4Z M52.5,60.2L51.8,60.2L50.2,61.2L49.3,61.6L48.6,62.1L48.1,62.3L46.3,63.5L44.7,64.2L43.8,64.9L43.0,65.3L41.8,66.1L40.7,66.6L40.3,67.0L39.4,67.4L38.5,68.0L37.7,68.3L36.7,69.1L35.3,69.9L34.7,70.5L34.6,72.1L34.6,89.5L34.8,93.2L34.7,98.9L34.9,100.6L34.8,109.3L35.0,110.7L35.4,110.9L42.6,111.0L46.1,110.8L51.0,110.8L52.2,110.7L52.5,110.3L52.7,102.4L52.5,92.7L52.5,72.5L52.3,67.6L52.3,63.3L52.8,60.4Z M119.1,66.2L118.8,65.6L115.4,59.5L113.8,57.1L112.7,54.9L111.6,53.2L111.5,52.7L110.6,51.8L109.9,51.8L108.8,52.5L108.4,52.7L107.9,53.1L107.3,53.2L106.3,53.9L104.1,55.0L103.6,55.5L101.5,56.6L99.5,57.8L98.9,58.1L97.2,59.2L95.3,60.1L94.1,61.0L92.7,61.6L91.2,62.6L90.9,62.7L88.8,64.0L88.3,64.2L85.8,65.6L84.6,66.5L83.0,67.3L81.0,68.5L79.4,69.3L78.0,70.3L76.9,70.8L74.4,72.4L73.5,72.8L73.0,73.2L71.7,73.8L70.3,74.8L68.3,75.6L67.1,76.0L66.9,76.2L66.8,76.5L67.2,77.0L69.2,78.1L69.4,78.3L69.7,78.4L71.5,79.6L72.2,79.8L73.4,80.6L74.4,81.1L75.1,81.7L75.8,81.9L78.6,83.6L80.8,84.8L82.2,85.7L83.9,86.6L84.4,86.7L85.1,86.7L87.1,85.7L88.7,84.5L89.9,83.9L90.8,83.3L92.6,82.4L93.0,82.0L94.1,81.5L95.1,80.8L95.9,80.5L96.9,79.7L100.3,77.8L101.6,77.0L103.1,76.2L104.9,75.0L105.2,74.9L109.5,72.4L110.8,71.7L112.4,70.6L114.2,69.7L115.4,68.9L116.6,68.4L118.2,67.3L118.7,67.1L119.0,66.8Z M61.9,51.6L60.4,50.6L59.8,50.5L58.8,49.7L57.2,48.9L55.4,47.7L53.0,46.4L51.4,45.3L49.6,44.5L49.0,44.0L48.7,43.9L48.2,43.5L45.7,42.2L45.5,42.0L44.3,41.4L43.6,41.4L39.3,43.9L38.8,44.1L38.5,44.4L37.2,44.9L36.3,45.6L35.4,46.0L34.2,47.0L33.0,47.5L31.8,48.3L29.0,49.8L21.8,54.2L20.8,54.5L19.2,55.6L17.9,56.2L15.4,57.8L14.7,58.1L12.8,59.3L11.8,59.7L10.5,60.6L9.5,61.2L9.1,61.6L9.1,62.4L9.7,63.6L10.2,64.2L10.3,64.5L11.2,66.0L11.3,66.3L13.2,69.3L13.7,70.3L14.4,71.2L14.9,72.4L16.9,75.8L17.4,76.4L18.0,77.0L18.5,77.0L20.9,75.5L22.8,74.5L24.3,73.5L24.6,73.4L25.6,72.7L26.6,72.2L28.3,71.1L28.8,71.0L31.2,69.4L33.2,68.4L33.7,68.0L34.6,67.6L35.0,67.2L37.5,65.9L39.7,64.5L41.1,63.8L42.4,62.9L44.3,62.0L45.2,61.3L46.4,60.7L49.9,58.5L51.0,58.0L51.3,57.7L52.5,57.1L52.8,56.8L54.0,56.2L55.8,55.1L56.4,54.9L58.0,53.8L59.8,52.8L61.7,52.3L61.9,52.1Z M93.8,17.6L92.5,17.5L77.4,17.5L76.6,17.6L76.4,17.9L76.2,18.5L76.2,37.1L76.4,51.4L76.3,58.2L76.5,61.5L76.5,65.0L76.2,66.9L75.9,67.9L75.9,68.2L76.2,68.5L76.5,68.5L78.6,67.3L79.3,67.0L79.6,66.7L81.0,66.0L83.0,64.7L83.7,64.5L84.5,63.8L86.2,63.0L89.9,60.7L91.4,60.1L92.1,59.5L94.0,58.4L94.4,57.9L94.4,19.0L94.2,18.0Z M38.7,15.3L38.0,16.2L37.1,18.0L36.4,19.1L35.9,20.1L35.0,21.4L34.2,23.0L33.8,23.4L32.5,25.9L31.0,28.4L30.4,29.5L30.3,30.5L30.9,31.0L32.3,31.9L33.2,32.3L34.3,33.0L35.8,33.7L39.8,36.2L40.4,36.4L42.1,37.3L43.1,38.0L45.0,39.1L48.9,41.4L49.7,41.8L50.9,42.6L51.5,42.8L52.7,43.7L54.1,44.3L55.4,45.2L56.8,45.9L57.9,46.6L58.4,46.8L59.5,47.6L61.1,48.4L61.5,48.8L69.9,53.4L71.5,54.5L73.3,56.0L73.9,56.2L74.1,55.8L74.2,53.9L74.2,39.5L74.1,35.8L73.8,35.2L72.8,34.5L72.0,34.1L71.6,33.8L70.2,33.1L69.4,32.5L68.1,31.9L66.0,30.5L65.7,30.5L63.6,29.1L62.6,28.7L61.8,28.1L61.3,28.0L59.7,27.0L59.4,26.7L58.3,26.2L55.8,24.6L53.6,23.5L53.3,23.2L52.2,22.6L51.8,22.3L51.0,21.9L50.4,21.5L48.2,20.3L45.7,18.7L43.9,17.9L41.6,16.4L39.5,15.2Z" fill="#000" fill-rule="evenodd"/>
</svg>