<svg xmlns="http://www.w3.org/2000/svg" viewBox="0 0 128 128" width="128" height="128">
  <path d="M64.4,9.2L63.7,9.5L60.0,11.8L58.1,12.7L57.2,13.4L55.7,14.1L53.2,15.7L50.6,17.0L50.1,17.4L49.5,17.6L45.5,19.9L45.0,20.1L42.2,21.8L38.2,24.0L37.7,24.3L36.4,24.9L35.2,25.7L33.7,26.4L32.7,27.1L29.5,28.8L29.0,29.2L27.6,29.9L26.5,30.7L26.5,31.1L30.7,33.7L32.7,34.8L35.2,36.4L36.3,36.8L37.9,37.9L38.7,38.2L39.4,38.8L40.1,39.1L42.7,40.7L42.9,40.7L44.0,41.3L44.6,41.9L45.4,42.2L47.1,43.2L47.7,43.5L52.3,46.1L52.5,46.4L53.6,46.9L57.0,48.9L60.8,51.0L61.1,51.3L67.1,54.8L68.3,55.8L69.3,56.7L69.9,57.8L70.2,58.8L70.3,59.7L70.2,60.6L69.7,61.8L67.9,63.2L66.9,63.8L66.2,64.1L65.0,64.9L64.2,65.3L63.5,65.3L61.8,64.4L60.8,63.6L59.2,63.0L58.9,62.7L58.3,62.5L58.1,62.3L57.0,61.7L56.7,61.5L55.8,61.1L55.0,60.5L54.0,60.2L53.5,59.7L53.2,59.6L50.3,57.8L49.9,57.7L47.2,56.0L46.9,55.9L45.8,55.2L44.6,54.7L43.6,54.0L43.0,53.7L42.0,53.0L39.2,51.5L38.5,51.0L37.1,50.3L36.8,50.0L36.2,49.8L35.7,49.4L34.6,48.9L34.2,48.5L33.9,48.4L31.7,47.1L29.6,46.1L25.3,43.4L22.9,42.6L21.6,42.4L20.9,42.4L19.6,42.6L17.9,43.3L17.1,43.9L15.7,45.4L15.0,47.2L14.8,48.5L14.8,53.8L14.6,55.2L14.6,90.8L14.8,94.5L15.2,95.0L16.6,95.9L17.2,96.1L20.3,97.9L22.2,99.2L23.6,99.9L26.6,101.7L26.9,101.8L30.1,103.7L31.9,104.7L33.0,105.4L35.1,106.5L35.6,106.9L38.3,108.4L41.1,110.1L42.3,110.7L43.0,111.2L44.4,111.9L46.0,113.0L46.8,113.3L47.6,113.9L49.7,115.0L50.7,115.7L51.6,116.2L52.2,116.1L52.5,115.7L52.5,69.0L52.9,66.9L53.3,66.1L54.3,64.9L55.2,64.2L56.5,63.6L58.0,63.5L58.6,63.7L60.8,65.1L62.0,65.7L62.4,66.1L62.3,70.5L62.5,71.5L62.5,73.9L62.7,74.7L62.4,92.9L62.5,114.5L62.9,115.7L63.5,116.7L65.3,118.3L67.0,119.0L68.6,119.2L69.7,119.2L71.3,119.0L72.0,118.7L73.4,117.9L77.8,115.7L80.7,113.8L81.5,113.2L82.7,112.7L85.0,111.2L86.4,110.4L87.4,109.7L87.7,109.7L90.7,107.8L91.6,107.4L93.3,106.2L94.2,105.8L96.1,104.4L96.7,104.2L102.2,100.8L103.1,100.4L105.6,98.8L108.2,97.4L110.1,96.1L110.5,96.0L112.7,94.6L113.1,94.2L113.3,85.6L113.3,73.2L113.5,60.7L113.4,58.5L113.5,53.0L113.7,52.2L113.7,51.2L113.4,50.8L112.8,50.8L112.3,51.2L111.9,51.3L109.4,52.9L108.2,53.5L107.1,54.2L106.1,54.7L104.8,55.6L103.4,56.3L102.7,56.8L100.7,57.8L99.5,58.6L98.6,59.0L98.2,59.4L97.9,59.5L96.5,60.4L95.9,60.6L95.4,61.0L94.3,61.6L90.5,63.8L89.8,64.2L87.9,65.3L86.7,65.9L84.4,67.4L83.7,67.6L81.5,69.1L80.7,69.4L78.9,70.6L78.5,70.6L77.3,71.4L76.2,72.0L75.9,72.2L74.3,73.1L73.8,73.5L72.7,74.0L72.2,74.1L70.7,74.8L68.8,75.1L67.1,74.8L66.8,74.6L65.7,74.2L65.0,73.5L64.4,72.6L63.8,71.2L63.8,70.7L63.7,70.3L63.8,67.4L64.6,66.4L66.4,65.6L67.5,64.7L69.0,63.9L69.2,63.7L69.7,63.5L69.9,63.3L70.4,63.1L71.7,62.3L75.5,60.1L75.8,59.7L76.5,59.5L77.0,59.1L78.5,58.3L81.1,56.7L81.6,56.5L83.2,55.5L84.1,55.1L85.7,54.0L91.7,50.6L93.1,49.6L95.8,48.2L96.9,47.4L97.5,47.2L102.9,44.0L104.2,43.0L105.2,42.0L105.9,40.9L106.4,39.3L106.5,36.8L106.2,35.3L105.4,33.7L104.8,33.0L103.7,32.0L102.5,31.5L100.3,30.0L99.4,29.6L99.1,29.2L98.0,28.7L96.9,27.9L95.4,27.2L94.1,26.2L91.6,24.9L89.0,23.2L88.1,22.8L87.1,22.1L86.4,21.8L85.9,21.3L85.6,21.3L82.2,19.3L81.7,18.8L81.1,18.6L77.3,16.3L76.2,15.8L74.7,14.8L72.8,13.8L71.2,12.7L69.1,11.6L68.1,10.9L67.5,10.7L65.1,9.2Z" fill="#000" fill-rule="evenodd"/>
</svg>