<svg xmlns="http://www.w3.org/2000/svg" viewBox="0 0 128 128" width="128" height="128">
  <path d="M110.9,72.0L109.8,71.2L108.5,70.5L107.4,69.8L107.1,69.7L105.9,68.9L105.6,68.6L104.3,68.0L103.2,67.2L102.9,67.1L101.4,66.1L101.1,66.0L95.0,62.3L94.0,61.7L93.8,61.7L93.5,62.1L93.3,79.4L93.1,81.9L92.8,82.3L90.7,83.6L87.3,85.5L86.5,86.0L86.1,86.2L83.1,88.0L81.8,88.6L81.2,89.0L80.4,89.4L80.1,89.6L77.3,91.1L77.0,91.4L75.8,91.9L74.4,92.9L73.4,93.3L72.7,93.9L72.1,94.1L71.0,94.8L70.4,95.0L68.0,96.6L64.4,98.6L62.2,99.9L61.6,100.2L59.2,101.7L58.5,102.0L58.3,102.2L56.5,103.1L56.3,103.4L55.2,103.8L49.7,107.0L48.7,107.5L46.9,108.7L46.5,108.8L46.3,109.0L46.2,109.4L47.8,110.4L50.9,112.2L51.2,112.3L52.6,113.2L56.8,115.6L61.0,118.1L61.5,118.3L62.9,119.2L63.6,119.2L68.2,116.5L69.4,116.0L69.6,115.7L70.1,115.6L71.0,115.0L71.8,114.6L73.5,113.6L74.8,113.0L75.1,112.7L77.1,111.7L78.1,111.0L79.7,110.2L80.2,109.6L81.3,109.3L82.2,108.8L86.1,106.5L87.8,105.6L92.9,102.7L95.3,101.4L97.3,100.2L97.9,99.9L99.0,99.2L100.1,98.7L101.7,97.6L102.2,97.4L104.1,96.2L104.4,96.1L108.9,93.5L110.3,92.5L110.5,91.4L110.6,84.0L110.7,83.1L110.7,79.6L110.9,76.0Z M64.9,44.1L64.5,44.1L63.5,44.6L62.5,45.3L59.9,46.6L58.9,47.3L56.8,48.4L53.8,50.2L51.0,51.7L50.7,51.9L47.1,54.0L46.7,54.6L46.4,72.0L46.5,75.0L46.9,75.4L47.9,76.1L49.3,76.8L51.2,78.0L54.6,79.9L54.9,80.1L56.9,81.2L57.2,81.5L58.2,82.0L59.2,82.7L59.8,82.9L61.4,84.0L61.9,84.1L63.6,85.2L64.0,85.2L64.5,85.0L65.8,84.1L66.2,84.0L67.2,83.3L69.2,82.3L71.0,81.1L73.7,79.7L75.1,78.8L80.2,76.0L81.5,75.0L81.6,73.8L81.7,61.5L81.9,55.8L81.9,54.5L80.6,53.6L78.8,52.5L78.5,52.4L76.2,50.9L75.6,50.6L71.4,48.0L70.1,47.3L69.8,47.0L68.7,46.4L66.7,45.1L66.5,45.1L66.2,44.8L65.8,44.6Z M34.4,26.5L34.2,26.5L31.8,27.9L31.4,28.0L31.2,28.2L29.0,29.4L27.6,30.3L25.8,31.2L25.2,31.6L24.6,31.9L22.0,33.5L19.4,34.9L18.3,35.7L17.7,35.9L16.7,36.7L16.4,55.0L16.5,92.0L17.7,93.1L18.3,93.3L18.5,93.6L19.7,94.1L19.9,94.3L21.3,95.0L23.2,96.2L24.4,96.7L26.7,98.2L27.3,98.5L29.8,100.0L30.4,100.3L31.3,100.9L31.8,101.0L32.8,101.8L33.4,102.0L33.9,102.3L34.4,102.3L36.4,101.0L36.9,100.9L37.1,100.6L37.4,100.6L41.3,98.2L43.3,97.2L43.9,96.7L45.2,96.1L48.8,93.9L51.2,92.6L51.4,92.3L51.4,92.1L50.7,91.5L46.4,89.0L44.1,87.6L43.3,87.2L42.6,86.6L40.2,85.4L39.0,84.5L36.6,83.3L36.0,82.7L34.9,82.2L34.4,81.7L34.3,81.5L34.6,38.0L34.6,26.7Z M47.2,19.2L47.0,19.5L46.9,20.4L46.9,28.9L46.8,39.6L47.0,39.9L47.2,39.9L48.6,39.2L50.4,38.0L51.3,37.6L54.3,35.8L56.3,34.8L57.3,34.1L58.0,33.8L58.8,33.2L60.2,32.5L61.8,31.5L62.4,31.3L64.4,30.1L65.1,30.1L66.8,31.0L67.8,31.7L68.2,31.9L76.4,36.9L76.9,37.1L77.7,37.8L78.4,38.0L78.6,38.3L79.7,38.8L80.0,39.1L81.9,40.1L83.3,41.1L85.3,42.2L87.8,43.9L89.6,44.9L91.9,46.4L95.2,48.4L95.9,48.9L96.2,49.0L97.0,49.6L97.9,50.0L99.6,51.2L103.8,53.6L104.5,54.1L105.1,54.4L110.5,57.6L111.0,57.9L111.3,57.8L111.5,56.1L111.6,45.8L111.8,40.0L111.7,37.3L111.2,36.9L109.5,35.8L109.3,35.8L108.1,34.9L106.9,34.3L105.6,33.4L105.0,33.1L104.4,32.7L100.8,30.5L99.7,29.7L99.4,29.6L96.2,27.6L92.9,25.6L92.6,25.3L90.7,24.3L88.5,22.8L86.8,21.9L86.3,21.5L85.0,20.9L84.0,20.1L82.5,19.3L78.8,17.0L75.6,15.2L71.9,12.9L68.3,10.9L66.7,9.9L65.4,9.2L64.8,9.2L64.3,9.4L63.3,10.1L62.6,10.3L61.0,11.3L59.9,11.8L58.1,12.9L57.3,13.2L55.5,14.4L54.9,14.6L54.2,15.1L52.1,16.2Z" fill="#000" fill-rule="evenodd"/>
</svg>