<svg xmlns="http://www.w3.org/2000/svg" viewBox="0 0 128 128" width="128" height="128">
  <path d="M117.9,78.7L117.4,78.0L116.6,77.4L114.8,76.9L108.1,76.9L102.1,77.2L99.1,77.1L90.3,77.3L85.1,77.2L84.4,77.4L79.2,77.3L75.0,77.5L59.1,77.6L56.7,77.9L55.9,78.0L54.4,78.6L53.1,79.4L51.7,80.7L50.6,81.9L49.9,83.1L49.1,84.7L47.5,87.5L47.1,88.3L46.5,89.2L46.0,90.2L45.6,90.7L45.1,91.8L44.3,93.2L43.8,94.3L42.5,96.3L41.9,97.6L39.5,101.7L39.3,102.3L38.5,103.5L37.4,105.6L36.7,106.6L36.2,107.8L35.4,108.9L34.4,111.4L34.4,112.9L34.6,113.4L35.7,114.2L38.1,114.5L64.7,114.5L66.4,114.6L68.3,114.6L78.5,114.8L82.1,114.7L93.5,114.9L95.7,114.6L97.1,114.2L98.0,113.8L98.9,113.1L100.0,112.0L101.5,109.9L102.3,108.3L102.5,108.1L103.0,107.0L104.3,104.9L105.3,103.0L105.5,102.8L107.4,99.4L107.5,99.0L108.2,98.0L108.9,96.7L109.4,95.9L109.7,95.1L111.3,92.6L111.6,91.8L112.4,90.5L112.8,89.5L113.1,89.3L113.5,88.4L114.8,86.4L114.9,85.9L116.1,84.0L117.0,82.3L117.2,82.0L117.8,80.8L117.9,80.1Z M40.9,19.8L39.9,19.8L39.4,20.0L38.3,21.2L36.9,23.4L36.1,25.1L35.5,25.9L34.3,28.2L34.0,28.6L33.9,29.0L33.6,29.3L28.4,38.5L28.0,39.0L26.9,41.3L26.1,42.3L26.0,42.8L25.1,44.2L24.8,44.9L24.0,46.1L23.0,48.1L22.2,49.2L22.0,49.8L21.8,50.0L20.4,52.6L20.0,53.1L18.4,56.2L17.7,57.1L15.9,60.8L15.1,62.0L14.3,63.6L13.8,64.2L13.6,64.7L13.2,65.2L12.3,67.1L11.7,67.9L11.0,69.3L10.6,69.8L10.5,70.2L9.6,72.1L9.2,73.9L9.1,75.7L9.4,77.3L9.9,78.7L11.3,81.3L14.0,85.7L14.3,86.3L15.2,87.9L15.9,88.7L16.5,90.0L17.3,91.1L18.3,92.8L19.9,95.3L20.3,96.2L20.6,96.5L22.9,100.0L23.0,100.3L26.9,106.4L27.4,107.6L28.7,109.0L29.4,109.4L29.9,109.4L30.5,109.1L31.4,108.3L33.5,104.9L34.6,102.9L35.7,101.1L36.0,100.3L36.6,99.4L37.7,97.4L38.5,96.3L39.1,95.0L39.5,94.5L39.9,93.6L41.2,91.6L43.1,88.0L43.7,87.1L43.9,86.6L45.8,83.4L47.8,79.7L48.2,79.1L50.3,75.2L51.1,74.0L51.3,73.5L51.5,73.3L53.4,69.9L54.1,68.6L54.8,67.5L56.2,64.8L56.5,64.4L56.7,64.0L57.4,62.9L58.0,61.7L59.1,59.7L60.4,57.2L60.7,56.0L61.0,55.6L61.1,54.7L61.1,52.7L60.9,51.8L60.3,50.5L58.7,47.6L56.8,44.7L56.8,44.4L55.1,41.6L54.1,40.1L52.5,37.2L51.4,35.6L50.6,34.1L49.2,32.0L48.7,31.0L48.2,30.4L48.2,30.1L47.4,29.0L47.1,28.3L45.2,25.5L43.2,22.0L42.0,20.4L41.4,20.0Z M44.8,15.0L44.5,15.8L44.5,16.9L44.7,17.6L45.2,18.8L45.9,19.7L46.0,20.1L46.4,20.6L47.4,22.4L48.5,23.9L49.6,26.0L50.3,27.0L50.4,27.4L51.1,28.3L52.2,30.4L52.9,31.3L53.5,32.5L54.4,33.7L56.2,37.1L57.7,39.4L58.0,40.1L59.3,42.1L59.4,42.4L60.4,43.9L61.0,45.1L61.8,46.1L62.2,47.0L63.0,48.3L65.2,52.1L66.5,54.2L66.9,55.0L68.0,56.6L70.4,60.8L72.4,63.8L73.3,65.7L75.8,69.5L76.8,70.8L78.7,72.3L80.4,73.1L82.1,73.5L84.2,73.7L89.1,73.7L93.4,73.5L97.9,73.6L99.2,73.4L106.9,73.4L110.9,73.3L114.2,73.3L115.5,73.3L117.5,72.9L118.0,72.6L118.8,71.8L119.1,71.0L119.1,70.3L118.8,69.1L117.4,66.3L116.4,64.9L115.7,63.5L114.1,61.1L114.0,60.6L113.7,60.4L113.2,59.3L112.8,58.9L112.6,58.3L111.8,57.2L111.3,56.1L110.6,55.2L110.4,54.6L109.8,53.9L109.1,52.4L107.2,49.5L107.0,49.0L106.6,48.5L104.2,44.3L103.1,42.7L102.8,42.1L101.7,40.4L101.0,39.0L99.2,36.2L99.1,35.9L98.2,34.4L97.8,34.0L97.0,32.4L96.0,30.9L95.7,30.1L94.3,28.0L93.8,27.0L93.4,26.5L92.7,25.2L91.1,22.8L89.7,20.2L89.4,19.9L87.9,17.3L85.9,15.0L83.9,13.8L82.0,13.4L69.1,13.6L63.9,13.5L61.7,13.6L60.9,13.8L59.5,13.7L55.6,13.8L48.7,13.8L47.4,13.9L46.2,14.2L45.4,14.5Z" fill="#000" fill-rule="evenodd"/>
</svg>