<svg xmlns="http://www.w3.org/2000/svg" viewBox="0 0 128 128" width="128" height="128">
  <path d="M118.4,66.8L90.8,66.7L89.1,66.8L88.1,67.0L87.1,67.1L84.0,67.8L83.4,68.1L82.1,68.5L79.2,69.9L76.6,71.6L74.6,73.3L72.4,75.6L71.1,77.3L69.2,80.3L68.2,82.5L68.1,83.2L67.4,84.7L66.7,88.3L66.4,92.0L66.5,94.7L66.4,113.2L66.5,113.7L66.5,118.8L66.7,119.1L67.1,118.9L78.8,107.4L80.2,106.1L83.3,102.8L85.0,101.3L88.3,98.0L88.9,97.2L90.5,95.8L96.3,89.9L97.5,88.8L99.2,87.1L99.8,86.4L107.1,79.1L107.9,78.1L113.5,72.6L114.3,71.7L118.5,67.4L118.5,66.9Z M9.8,67.0L9.6,67.3L9.7,67.6L12.8,70.8L13.3,71.4L17.0,75.0L17.4,75.6L21.0,79.0L21.2,79.5L25.2,83.3L25.6,83.9L59.5,118.0L60.7,119.0L60.9,119.0L61.2,118.7L61.2,101.6L61.0,100.8L61.1,91.4L61.0,90.0L60.9,89.4L60.9,88.3L59.9,84.3L58.5,80.7L56.9,78.0L54.6,75.0L53.0,73.4L51.3,72.0L49.2,70.6L47.4,69.5L44.0,68.1L40.2,67.1L38.5,67.0L37.6,66.8L35.9,66.7L27.2,66.7L14.5,66.9L10.3,66.8Z M66.5,9.4L66.4,10.3L66.4,36.9L66.8,40.9L67.4,43.3L67.8,44.5L67.8,44.8L69.5,48.6L70.0,49.2L70.5,50.1L71.7,51.9L74.1,54.5L75.2,55.5L77.2,57.1L80.0,58.8L80.9,59.1L81.7,59.6L82.9,59.9L84.7,60.6L88.2,61.3L91.0,61.6L113.2,61.6L115.7,61.4L118.3,61.4L118.6,61.2L118.6,60.9L116.8,58.8L106.9,49.1L104.0,46.0L97.5,39.7L94.4,36.4L92.7,34.9L88.7,30.8L85.0,27.3L83.0,25.0L81.9,24.1L67.2,9.5L67.0,9.3Z M61.2,9.2L60.7,9.2L59.6,10.4L59.0,10.9L40.7,29.5L37.0,33.1L34.7,35.6L31.1,39.1L30.5,39.9L27.3,43.0L19.7,50.8L19.5,51.1L17.3,53.3L16.6,54.1L11.6,59.2L10.4,60.6L9.7,61.2L9.7,61.8L11.9,61.9L21.4,61.8L28.6,61.9L29.9,61.7L36.8,61.7L40.1,61.4L40.4,61.2L42.7,60.8L46.9,59.2L47.2,58.9L47.9,58.7L50.9,56.8L54.0,54.1L56.1,51.7L57.1,50.1L57.3,49.9L58.5,47.8L59.6,45.2L59.8,44.5L60.1,44.0L61.0,39.8L61.2,36.4L61.3,29.0L61.2,22.3L61.4,9.8Z" fill="#000" fill-rule="evenodd"/>
</svg>