<svg xmlns="http://www.w3.org/2000/svg" viewBox="0 0 128 128" width="128" height="128">
  <path d="M85.7,15.6L80.4,15.6L80.1,16.0L79.7,19.3L79.3,22.1L79.3,23.9L78.9,26.0L78.7,29.7L78.4,31.6L77.7,39.7L77.5,40.1L77.5,41.2L77.4,41.6L77.1,44.0L77.0,46.1L76.8,47.0L76.6,49.8L76.4,51.0L76.2,54.0L76.0,54.6L75.7,58.5L75.5,58.8L75.3,62.3L75.1,63.4L75.1,64.7L74.9,65.3L74.7,67.3L74.6,67.7L74.4,67.8L74.3,67.6L74.2,67.2L74.3,40.1L74.1,33.6L74.1,16.2L73.9,15.9L73.6,15.7L69.7,15.7L68.6,15.9L68.3,16.3L68.3,17.2L68.8,20.9L68.8,22.1L69.6,28.2L70.1,33.9L70.3,35.1L70.4,37.1L70.6,38.1L70.7,39.8L71.1,42.4L71.1,43.8L71.3,45.0L71.3,45.8L71.7,48.6L72.4,56.6L72.7,57.9L72.8,60.4L73.0,61.6L73.2,65.0L73.5,66.3L73.6,68.3L73.2,68.4L73.1,68.0L73.1,67.5L72.8,66.7L72.7,65.7L71.9,62.6L71.9,62.0L71.5,60.8L71.3,59.3L71.1,58.7L70.9,57.0L70.5,56.2L70.1,53.5L69.7,52.6L69.7,51.7L69.3,50.4L69.2,49.5L68.9,48.6L68.7,47.2L68.5,46.6L68.4,45.8L68.0,44.4L67.8,43.1L67.6,42.6L67.6,42.0L67.1,40.3L67.0,39.0L66.7,38.2L66.6,37.2L66.0,35.1L66.0,34.7L65.7,33.8L65.1,30.2L64.7,28.5L64.4,27.9L64.4,26.8L64.0,26.0L63.9,24.8L63.6,24.1L63.6,23.3L63.0,21.2L63.0,20.6L62.7,19.9L62.5,18.2L62.3,17.9L62.1,16.6L61.6,16.0L56.2,16.0L56.0,16.2L56.0,16.9L56.4,18.1L56.4,18.4L57.0,19.6L58.6,25.3L59.0,26.0L60.2,30.2L60.8,31.5L60.9,32.1L61.2,32.8L61.3,33.6L63.6,39.9L64.8,44.3L67.1,50.7L67.1,51.2L67.5,52.3L67.5,52.7L68.2,54.5L68.4,55.4L68.6,55.8L68.9,56.9L69.6,58.8L69.7,59.6L70.4,61.2L70.5,61.9L70.9,62.8L71.4,65.0L71.7,65.6L72.2,67.2L72.0,67.7L71.8,67.2L71.5,66.9L71.3,66.1L70.5,64.6L70.4,64.2L69.4,62.1L69.1,61.3L68.2,59.6L67.8,58.5L67.1,57.2L66.4,55.3L65.4,53.3L65.2,52.7L64.8,51.8L64.7,51.3L64.4,50.8L63.1,47.8L62.7,47.2L62.7,47.0L61.4,44.4L61.2,43.5L60.6,42.4L59.9,40.8L59.1,39.2L59.1,39.0L58.8,38.6L58.3,37.0L56.9,34.4L56.7,33.7L56.4,33.1L54.6,29.0L54.4,28.6L52.8,24.9L51.5,22.4L51.0,21.0L50.3,19.8L50.2,19.3L49.5,18.0L49.0,16.6L48.5,16.1L47.1,16.0L41.9,16.0L41.6,16.2L41.6,16.4L42.7,18.4L43.1,18.9L43.7,20.2L44.5,21.3L44.6,21.8L45.0,22.2L46.1,24.4L47.1,25.8L47.3,26.4L47.9,27.3L48.3,28.0L50.1,31.0L51.3,33.3L56.7,42.5L57.1,43.3L60.8,49.7L61.3,50.7L61.2,50.9L60.9,50.8L60.3,50.1L59.8,49.3L57.9,46.9L57.4,45.9L56.9,45.5L56.2,44.5L56.0,44.1L53.9,41.3L49.5,35.1L47.7,32.8L47.2,31.8L43.4,26.8L43.3,26.4L42.4,25.4L40.8,23.1L40.3,22.6L39.4,21.2L39.1,21.0L38.7,21.0L38.4,21.2L37.4,22.9L36.7,24.3L36.9,24.8L44.3,33.1L46.9,36.2L48.3,37.5L52.6,42.7L59.2,49.9L59.5,50.5L59.8,50.6L59.9,51.2L59.8,51.2L56.2,48.1L48.9,41.3L34.6,28.6L34.2,28.7L33.9,29.0L32.6,31.3L32.6,31.9L33.4,32.7L36.8,35.1L37.5,35.7L38.0,35.9L38.8,36.7L40.1,37.5L43.0,39.8L45.3,41.4L53.3,47.4L54.3,48.1L58.0,50.9L58.4,51.1L59.2,51.8L59.0,52.0L57.7,51.4L56.7,50.7L54.7,49.7L54.4,49.3L52.4,48.3L49.1,46.2L48.3,45.8L45.9,44.3L43.7,43.2L42.9,42.6L42.6,42.5L42.1,42.1L41.3,41.8L40.7,41.3L39.9,41.0L38.1,39.9L37.6,39.7L37.3,39.4L35.2,38.3L30.9,35.7L30.2,35.7L30.0,35.9L28.8,37.9L28.6,38.2L28.5,38.8L28.9,39.2L29.3,39.3L30.6,40.0L31.7,40.4L35.3,42.1L35.7,42.2L39.5,44.0L41.1,44.6L41.6,45.0L44.0,45.9L44.2,46.2L45.3,46.5L48.3,48.1L49.2,48.3L49.8,48.7L51.1,49.2L52.9,50.1L53.3,50.2L54.7,50.9L56.4,51.6L57.6,52.3L59.1,52.8L59.4,53.0L59.4,53.3L58.0,53.0L56.9,52.5L56.1,52.3L54.9,51.9L54.6,51.9L52.2,51.0L51.7,50.9L51.0,50.6L49.1,50.0L47.9,49.6L46.6,49.3L42.6,47.9L42.3,47.9L41.9,47.7L40.0,47.0L38.9,46.8L36.5,45.9L35.7,45.8L34.5,45.2L32.9,44.8L31.3,44.2L29.4,43.6L28.8,43.3L28.1,43.2L26.9,42.8L26.1,42.8L25.6,43.5L24.2,46.0L24.2,46.2L24.6,46.6L26.0,46.8L29.0,47.6L29.5,47.6L33.5,48.5L34.6,48.8L37.2,49.3L38.3,49.6L47.0,51.3L48.5,51.8L50.2,52.0L50.5,52.2L57.1,53.5L59.0,54.3L56.0,54.1L53.4,53.7L50.3,53.5L49.7,53.3L47.4,53.1L44.5,52.7L42.8,52.7L38.4,52.1L37.3,52.1L35.9,51.9L34.2,51.8L31.8,51.4L29.8,51.3L28.6,51.1L26.8,51.0L24.9,50.7L23.8,50.7L23.3,50.5L21.9,50.5L21.2,51.2L21.2,51.6L20.8,52.1L20.3,53.5L19.6,54.4L19.6,54.8L19.8,54.9L39.9,54.9L50.0,55.0L56.9,55.0L57.6,55.0L58.3,55.4L52.8,55.9L51.1,56.2L49.9,56.2L47.2,56.6L46.2,56.6L45.0,56.9L43.9,56.9L42.7,57.1L39.1,57.4L36.6,57.8L35.7,57.8L32.2,58.3L31.1,58.3L29.6,58.6L27.8,58.7L26.8,58.9L24.4,59.1L21.3,59.6L20.4,59.6L16.6,60.0L16.1,60.4L15.1,62.3L14.7,62.9L13.4,65.2L13.5,65.7L14.0,65.7L16.6,65.0L18.6,64.7L20.3,64.3L20.5,64.2L22.2,63.9L25.4,63.1L30.3,62.2L35.7,60.9L36.5,60.8L37.1,60.6L40.4,60.0L43.6,59.2L44.5,59.1L45.8,58.7L47.0,58.5L49.2,58.0L49.8,58.0L50.4,57.7L53.9,57.1L54.5,56.9L55.1,56.9L57.4,56.2L58.3,56.1L58.9,56.3L58.0,56.7L56.2,57.2L55.3,57.6L49.9,59.3L49.5,59.6L48.3,59.8L46.4,60.4L45.4,60.9L44.9,61.0L42.3,61.9L40.5,62.4L39.0,63.0L38.4,63.1L32.0,65.3L30.4,65.7L29.6,66.1L26.5,67.1L25.8,67.5L24.7,67.7L18.5,69.9L16.6,70.4L15.9,70.7L14.7,71.1L13.8,71.5L12.3,71.8L11.9,72.1L10.1,72.6L9.4,73.0L9.1,73.3L9.1,73.6L11.3,77.4L11.9,78.0L12.4,78.0L12.9,77.9L14.4,77.1L15.1,76.9L15.3,76.7L15.8,76.5L18.1,75.3L19.7,74.8L23.3,73.0L24.6,72.6L26.0,71.8L29.2,70.5L29.9,70.1L30.3,70.0L33.9,68.4L34.6,68.0L36.1,67.4L37.1,66.9L38.0,66.5L41.1,65.0L41.9,64.8L43.5,63.9L44.2,63.8L44.9,63.4L46.0,63.0L46.6,62.6L47.1,62.5L47.7,62.1L50.2,61.1L50.9,60.7L51.5,60.5L52.2,60.1L53.2,59.8L53.7,59.5L55.2,58.9L57.0,58.0L58.6,57.3L58.9,57.6L54.1,60.4L53.0,61.1L51.8,61.6L50.7,62.4L50.2,62.6L49.8,63.0L49.3,63.1L46.9,64.6L46.0,65.0L45.5,65.5L44.1,66.1L41.4,67.9L40.8,68.1L36.2,71.0L34.9,71.6L32.2,73.4L30.6,74.1L29.6,74.9L24.7,77.6L24.2,78.0L23.9,78.1L23.1,78.7L21.8,79.4L20.8,80.1L20.3,80.2L19.4,80.9L18.7,81.2L17.8,81.8L15.8,82.9L15.2,83.5L15.2,84.1L17.7,88.3L18.1,88.3L19.4,87.5L24.8,83.3L26.5,82.2L27.6,81.3L29.0,80.4L31.6,78.3L38.9,73.1L40.7,71.6L45.0,68.6L47.0,67.0L52.0,63.5L53.2,62.5L53.5,62.4L54.4,61.7L55.6,61.0L59.3,58.1L60.1,57.7L60.2,57.7L60.4,57.9L56.4,61.5L54.1,63.5L44.5,72.3L43.7,73.0L40.6,76.0L37.6,78.5L34.4,81.6L33.4,82.4L29.2,86.4L28.9,86.5L21.2,93.6L21.2,94.3L21.4,94.8L21.9,95.6L22.0,95.9L23.4,98.2L24.0,99.1L24.5,99.0L30.0,92.7L32.3,90.2L33.1,89.2L34.9,87.4L36.6,85.2L45.3,75.6L46.0,74.6L49.6,70.8L51.1,69.0L55.2,64.6L59.9,59.2L60.5,58.8L60.7,58.8L60.7,59.0L60.6,59.1L60.5,59.4L60.0,60.0L59.8,60.4L57.8,63.0L57.2,64.0L56.4,65.0L53.7,68.8L53.3,69.3L49.8,74.4L49.1,75.3L48.5,76.2L48.3,76.4L45.3,80.8L44.9,81.2L44.5,81.9L42.1,85.1L41.9,85.5L40.7,87.0L40.6,87.4L37.7,91.3L36.4,93.3L35.5,94.4L33.8,96.9L33.2,97.6L33.0,98.0L27.9,105.2L27.9,106.2L28.4,106.8L28.8,107.9L29.3,108.5L30.9,111.4L31.4,111.5L31.6,111.2L34.1,106.8L34.3,106.6L34.6,105.9L34.8,105.7L36.9,102.0L37.0,101.7L37.4,101.2L38.1,99.7L38.4,99.5L38.9,98.3L39.6,97.3L41.6,93.6L44.1,89.4L44.2,89.0L44.5,88.8L45.1,87.5L46.3,85.6L46.4,85.1L48.1,82.5L51.0,77.2L51.4,77.2L51.4,77.5L51.0,78.3L50.9,78.8L50.2,79.9L49.3,82.4L48.7,83.6L48.5,84.2L47.8,85.6L46.2,89.5L45.1,91.8L44.9,92.5L43.7,94.8L43.6,95.5L42.9,96.8L42.7,97.5L42.3,98.1L41.8,99.5L41.4,100.1L40.0,103.6L39.4,104.7L39.1,105.5L38.8,106.0L38.2,107.8L38.0,108.1L37.9,108.5L36.5,111.3L36.5,111.8L36.9,112.0L40.3,112.0L40.7,111.7L41.8,108.5L41.9,108.0L42.2,107.4L42.9,105.1L43.1,104.7L43.3,103.9L44.5,100.4L45.5,97.1L45.9,96.1L45.9,95.8L46.6,94.0L46.8,93.0L47.1,92.6L47.2,91.8L48.5,88.2L48.6,87.6L48.9,87.1L48.9,86.7L49.5,84.8L49.8,84.4L50.4,82.2L51.0,80.7L51.3,79.4L51.5,78.9L51.5,78.6L51.9,77.9L52.1,77.9L52.1,79.1L51.8,80.2L51.5,81.8L50.7,84.9L50.6,85.8L50.0,88.3L49.9,89.3L49.6,90.4L49.4,92.0L49.1,92.6L48.8,94.6L48.2,97.0L48.1,97.9L47.8,98.8L47.6,100.6L47.2,101.6L47.1,102.8L46.8,103.3L46.7,104.7L45.2,111.5L45.2,111.9L45.5,112.1L49.1,112.1L49.4,111.7L49.5,110.3L49.9,107.8L49.9,105.9L50.2,104.2L50.2,102.8L50.6,100.7L50.8,97.4L51.0,96.0L51.4,92.2L51.7,90.3L51.7,89.2L51.9,88.1L52.2,84.2L52.4,83.7L52.7,79.5L52.9,78.2L53.3,77.9L53.4,79.3L53.3,80.6L53.5,88.6L53.3,92.6L53.4,112.0L54.0,112.4L56.7,112.4L57.0,112.3L57.1,111.9L56.9,110.1L56.7,107.4L56.5,106.1L56.4,104.2L56.0,100.6L55.9,98.8L55.7,98.2L55.6,95.2L55.2,93.1L54.9,88.6L54.7,87.1L54.6,85.1L54.0,78.9L54.1,78.0L54.3,78.0L54.6,78.9L54.8,80.2L54.9,80.5L55.3,82.8L55.6,83.9L55.6,84.5L56.4,87.5L56.6,88.9L57.3,91.7L57.4,92.6L57.7,93.6L57.9,94.8L58.1,95.4L58.3,97.1L58.6,97.7L58.7,99.0L59.0,99.7L59.6,103.1L59.8,103.6L60.1,105.4L60.4,106.3L60.7,108.3L61.2,110.0L61.5,111.8L61.7,112.3L62.1,112.4L65.2,112.4L65.6,112.3L65.5,111.3L65.2,110.7L65.1,110.1L64.4,107.9L63.4,104.6L63.0,103.8L62.9,102.9L61.9,100.2L61.7,99.4L60.9,97.3L60.9,96.6L60.5,95.7L60.4,95.1L59.8,93.7L59.0,90.9L58.7,90.2L58.3,88.3L56.7,83.6L56.6,82.9L54.8,77.8L54.8,77.1L54.6,76.8L54.7,76.6L54.8,76.6L55.7,78.1L55.8,78.6L56.2,79.2L56.4,80.0L57.1,81.2L58.6,85.2L59.4,86.7L60.2,88.6L61.3,91.0L61.4,91.5L62.1,92.7L63.4,96.0L64.4,98.0L64.8,99.4L65.2,100.0L65.6,101.2L66.2,102.1L66.9,103.7L66.9,104.0L67.3,104.6L68.0,106.5L68.2,106.8L68.3,107.2L70.5,112.0L71.0,112.5L72.0,112.6L74.7,112.6L75.2,112.4L75.2,111.8L73.9,109.6L73.1,107.9L72.2,106.6L71.3,104.8L70.9,104.3L69.8,102.4L69.5,101.7L69.0,100.9L68.2,99.4L67.5,98.4L67.0,97.1L66.7,96.9L66.4,96.2L64.9,93.7L62.9,89.9L62.7,89.7L62.1,88.4L61.6,87.8L61.3,87.0L59.8,84.5L59.2,83.3L58.8,82.8L58.5,82.0L57.3,80.1L57.1,79.5L56.7,79.1L56.7,78.7L55.9,77.4L56.1,77.1L57.6,79.0L59.8,82.2L62.0,85.1L62.4,85.9L64.9,89.2L66.7,92.0L67.5,92.9L69.7,96.2L70.5,97.1L70.9,97.8L73.4,101.1L74.2,102.4L75.3,103.7L76.6,105.7L78.1,107.8L81.0,111.9L81.6,112.5L82.8,112.7L87.6,112.6L87.9,112.4L87.8,112.0L87.3,111.6L86.4,110.3L79.0,102.0L78.5,101.6L77.1,99.7L75.5,98.1L70.1,91.9L62.7,83.6L61.6,82.2L57.9,78.2L56.7,76.8L57.1,76.5L59.0,78.1L60.7,79.9L64.3,82.9L68.4,86.8L68.8,87.1L69.5,87.9L70.8,88.9L77.4,95.0L77.8,95.3L79.3,96.7L82.0,99.1L86.6,103.5L96.5,112.4L97.1,112.5L97.3,112.4L98.2,110.5L98.6,110.1L99.7,107.8L99.6,107.4L98.8,106.6L98.5,106.5L97.7,105.8L97.2,105.5L95.4,104.0L94.9,103.8L93.1,102.4L92.3,101.9L91.5,101.2L89.2,99.7L88.4,98.9L87.9,98.6L85.6,96.8L84.6,96.2L84.0,95.6L81.9,94.2L80.6,93.1L78.9,92.0L78.3,91.3L76.2,89.9L75.4,89.2L74.7,88.8L73.6,87.9L72.8,87.4L70.5,85.6L70.0,85.3L68.8,84.3L68.2,84.0L66.8,82.9L65.1,81.8L64.4,81.0L61.7,79.1L60.7,78.3L59.1,77.2L57.5,76.0L57.6,75.7L57.9,75.7L59.0,76.2L59.2,76.4L59.5,76.5L60.2,77.0L60.5,77.1L60.7,77.3L62.1,78.0L62.4,78.3L63.0,78.6L65.1,79.9L66.5,80.6L67.6,81.4L71.9,83.7L73.8,85.0L74.2,85.1L76.0,86.3L77.8,87.2L83.5,90.6L86.5,92.3L88.1,93.4L91.5,95.2L93.2,96.4L95.4,97.5L96.2,98.2L96.7,98.3L97.2,98.7L98.0,99.1L99.1,99.8L101.9,101.3L102.1,101.6L102.7,101.9L103.0,101.9L103.9,100.7L104.1,100.1L104.4,99.8L104.5,99.4L104.8,99.1L104.9,98.6L105.2,98.4L105.7,97.3L105.7,96.9L105.5,96.6L104.5,96.0L102.2,95.2L101.9,94.8L101.2,94.7L99.6,93.8L97.0,92.8L96.6,92.5L95.0,91.9L94.1,91.4L93.8,91.2L93.2,91.0L90.8,89.8L89.3,89.3L88.7,88.9L88.3,88.8L86.7,88.0L86.3,87.9L84.3,86.9L83.9,86.8L83.3,86.4L82.9,86.4L79.5,84.7L77.4,83.8L76.8,83.4L76.4,83.3L72.3,81.4L71.9,81.1L69.5,80.2L68.9,79.8L66.3,78.7L66.0,78.5L65.4,78.3L64.8,78.0L64.4,77.9L63.1,77.2L62.5,77.0L61.1,76.3L60.5,76.1L58.7,75.3L58.3,75.2L57.9,74.9L57.8,74.5L58.6,74.7L60.2,75.3L61.5,75.7L62.1,76.0L63.6,76.3L64.4,76.7L65.9,77.1L66.8,77.5L67.6,77.6L67.9,77.9L68.8,78.0L69.4,78.3L70.0,78.4L70.6,78.7L74.3,79.9L75.1,80.2L75.5,80.2L76.0,80.6L77.0,80.8L77.6,81.1L78.6,81.4L81.8,82.5L82.1,82.5L82.7,82.8L84.7,83.3L86.7,84.1L87.3,84.2L87.4,84.4L91.9,85.9L92.5,86.0L93.1,86.3L93.7,86.4L95.4,87.1L96.2,87.2L96.8,87.5L97.4,87.6L108.3,91.3L109.0,91.3L109.5,90.7L111.9,86.4L111.9,85.9L111.8,85.7L110.6,85.3L108.7,85.0L107.4,84.6L106.8,84.6L105.4,84.2L104.5,84.1L102.5,83.6L102.0,83.6L98.4,82.7L98.0,82.7L94.5,81.8L93.7,81.8L91.1,81.1L90.5,81.1L90.2,81.0L88.1,80.5L87.6,80.5L85.3,79.9L82.4,79.2L81.9,79.2L80.6,78.8L76.2,78.0L72.3,76.9L71.0,76.8L69.3,76.3L68.1,76.1L67.1,75.8L65.9,75.7L65.3,75.4L64.4,75.3L62.2,74.8L58.7,74.1L57.9,73.9L57.5,73.6L58.3,73.5L60.5,73.8L64.0,74.1L65.3,74.3L68.6,74.5L70.9,74.9L73.9,75.2L75.1,75.4L76.8,75.5L79.8,75.9L80.8,75.9L83.0,76.2L90.8,76.9L93.4,77.3L95.5,77.4L96.1,77.6L97.7,77.6L98.4,77.8L100.7,78.0L104.5,78.4L105.7,78.4L107.9,78.7L109.0,78.7L114.9,79.5L115.8,79.4L116.2,79.0L118.8,74.5L119.1,73.7L119.1,73.4L118.8,73.1L118.3,73.0L84.3,73.1L78.2,73.0L78.2,72.7L79.4,72.5L84.7,72.0L85.1,71.8L85.9,71.8L91.0,71.1L95.6,70.7L96.1,70.6L99.8,70.3L108.9,69.2L110.9,69.2L112.7,68.8L115.1,68.7L115.6,68.5L116.2,68.5L116.6,68.2L116.6,67.8L115.0,65.0L114.5,64.6L114.0,64.6L111.9,65.0L111.0,65.1L109.6,65.5L109.1,65.5L107.2,66.1L106.5,66.1L106.0,66.4L105.0,66.5L103.5,66.9L102.2,67.0L101.6,67.2L99.9,67.5L98.8,67.8L98.2,67.8L97.3,68.1L95.6,68.4L93.1,69.0L89.8,69.5L86.6,70.3L82.7,71.1L80.2,71.7L79.7,71.7L79.3,71.8L78.9,71.7L79.1,71.5L84.3,69.8L85.5,69.2L86.9,68.9L87.5,68.6L90.0,67.9L93.6,66.6L101.0,64.4L101.5,64.2L101.8,64.2L106.3,62.6L107.1,62.4L107.5,62.2L108.8,61.9L112.1,60.7L112.1,60.1L111.9,59.6L110.6,57.5L110.3,57.1L109.7,57.1L108.4,57.7L107.6,58.0L106.7,58.5L106.2,58.6L104.9,59.3L104.1,59.5L102.7,60.3L102.2,60.4L101.7,60.8L99.5,61.6L98.0,62.4L96.6,62.9L96.0,63.3L95.5,63.4L94.9,63.8L94.0,64.0L92.1,65.0L89.9,65.8L89.2,66.2L88.8,66.3L88.1,66.7L87.4,66.9L87.2,67.2L84.9,68.0L84.2,68.5L81.3,69.7L79.7,70.6L78.0,71.2L77.7,71.0L78.1,70.6L78.9,70.3L80.5,69.2L81.6,68.8L82.7,68.0L83.1,67.8L83.9,67.2L85.9,66.2L86.9,65.5L87.3,65.3L90.6,63.4L91.1,63.2L91.9,62.6L92.6,62.3L95.0,60.8L96.4,60.2L97.4,59.5L97.9,59.3L99.8,58.1L101.8,57.1L102.6,56.5L103.4,56.2L105.7,54.6L106.9,54.1L107.9,53.4L107.9,52.7L107.6,52.5L106.5,50.4L106.3,50.1L105.7,50.1L101.9,52.8L101.5,53.3L96.7,56.5L95.4,57.6L93.7,58.7L90.8,60.9L90.0,61.3L89.0,62.2L87.9,62.8L85.6,64.6L82.5,66.8L78.8,69.6L78.2,69.9L78.0,70.1L77.8,69.9L78.7,68.8L83.7,64.4L87.6,60.7L91.7,57.1L92.8,56.0L95.1,54.1L103.6,46.3L103.7,45.7L102.2,43.2L101.8,42.7L101.3,42.8L100.6,43.4L99.4,44.9L98.5,45.7L95.4,49.3L93.1,51.6L92.0,52.9L91.4,53.5L89.4,55.8L87.9,57.3L87.3,58.2L86.6,58.8L82.9,62.9L78.5,68.0L77.8,68.8L77.5,68.7L77.8,68.0L80.6,64.2L81.2,63.0L81.9,62.3L82.5,61.3L86.6,55.8L86.9,55.2L89.4,51.9L90.4,50.4L90.8,49.9L91.3,49.1L92.6,47.5L92.9,46.9L93.3,46.5L95.4,43.3L98.9,38.6L99.0,37.8L98.3,36.4L98.0,36.1L97.2,34.6L96.9,34.4L96.5,34.3L96.2,34.5L96.1,34.8L95.6,35.5L95.4,36.2L94.6,37.2L93.3,39.7L91.9,41.9L91.2,43.4L88.6,47.7L87.2,50.4L86.5,51.4L85.4,53.5L84.6,54.6L83.5,56.8L82.4,58.5L81.4,60.4L81.2,60.5L80.2,62.3L79.7,63.4L79.2,64.1L78.9,64.7L78.5,65.3L77.2,67.7L76.6,68.7L76.2,68.8L76.3,68.1L77.1,66.2L77.4,65.7L77.8,64.7L78.5,63.4L78.5,62.9L79.0,62.1L80.3,59.0L81.1,57.6L81.2,57.1L82.7,53.8L82.7,53.5L83.8,51.3L83.9,50.9L84.3,50.1L84.3,49.9L84.6,49.4L85.6,46.9L86.3,45.5L86.7,44.4L88.8,40.0L88.9,39.6L89.1,39.3L89.2,38.9L89.6,38.2L89.7,37.6L90.9,35.1L91.0,34.6L91.5,33.9L91.5,33.5L93.5,29.0L93.4,28.3L93.1,27.5L90.6,23.5L90.4,23.5L90.0,24.0L89.9,24.6L89.6,25.2L89.4,26.0L89.1,26.7L88.0,30.3L87.7,31.0L87.7,31.3L87.1,32.8L87.0,33.4L85.7,37.2L85.2,39.1L84.8,39.9L84.6,41.0L83.6,43.6L83.3,45.0L82.0,48.4L82.0,49.1L81.2,50.9L81.0,52.0L80.8,52.3L80.2,54.3L79.7,55.7L79.3,57.3L78.1,60.5L77.9,61.4L77.1,63.5L76.7,65.1L76.2,66.6L76.2,66.9L75.5,68.4L75.2,68.4L75.5,66.4L75.9,65.2L75.9,64.2L76.2,63.1L76.4,61.8L76.6,61.2L76.7,60.4L77.7,56.2L77.8,55.3L77.9,55.0L78.0,54.2L78.3,53.1L78.6,51.1L78.9,50.4L78.9,49.6L79.9,45.5L80.0,44.7L80.3,43.7L80.4,42.8L80.6,42.2L80.8,40.4L81.4,38.4L81.5,37.4L82.7,32.1L82.8,30.7L83.1,29.8L84.3,23.7L84.6,22.7L85.1,19.8L85.5,18.4L85.6,17.3L85.9,16.3L85.9,16.0Z M63.6,55.2L63.8,55.2L64.3,55.7L64.4,56.0L64.8,56.5L64.8,56.8L66.9,60.2L67.4,61.2L68.5,63.0L68.8,63.8L69.5,64.8L71.2,68.0L72.6,70.2L73.2,71.6L73.7,72.3L73.6,73.0L55.7,73.0L54.1,73.0L53.8,72.7L53.8,72.3L54.7,70.6L56.7,67.3L57.8,65.2L59.0,63.3L59.0,63.0L59.4,62.5L59.6,62.0L60.8,60.1L60.9,59.6L61.2,59.4L61.4,58.8L62.1,57.9L62.2,57.4L63.2,55.7Z" fill="#000" fill-rule="evenodd"/>
</svg>