<svg xmlns="http://www.w3.org/2000/svg" viewBox="0 0 128 128" width="128" height="128">
  <path d="M39.0,9.2L38.5,9.4L35.7,11.0L34.5,11.8L33.0,12.6L32.5,13.0L31.3,13.6L30.1,14.4L28.8,15.1L25.8,16.9L24.3,17.7L20.9,19.8L19.8,20.3L19.6,20.6L18.9,20.8L15.6,22.9L15.3,23.5L15.2,24.8L15.4,30.2L15.4,43.4L15.5,44.3L15.5,49.9L15.6,50.5L16.1,51.2L17.6,51.8L20.3,53.4L20.9,53.7L22.7,54.8L27.2,57.1L28.3,57.9L28.8,58.1L29.1,58.3L31.8,59.7L35.7,61.9L36.2,62.1L38.5,63.5L39.3,64.0L39.3,64.5L38.4,65.1L37.8,65.4L32.1,68.9L31.1,69.3L29.0,70.8L27.3,71.6L26.7,72.1L25.4,72.8L23.2,74.2L20.7,75.6L16.9,77.9L16.6,78.0L15.9,78.6L15.7,82.7L15.9,92.6L15.8,102.2L15.9,105.1L16.1,105.9L16.6,106.4L18.7,107.4L19.8,108.2L21.3,108.9L23.4,110.1L23.9,110.3L25.9,111.6L27.6,112.3L29.2,113.4L31.4,114.5L37.8,118.2L38.8,118.6L39.1,118.9L39.6,119.1L40.2,119.1L45.8,115.7L46.3,115.5L47.8,114.5L48.4,114.3L50.2,113.2L52.4,112.0L53.1,111.4L54.8,110.6L55.2,110.2L56.4,109.6L59.2,107.9L60.6,107.2L62.0,106.3L62.7,105.9L64.3,104.7L64.4,102.1L64.3,78.3L64.5,78.2L65.0,78.1L66.9,78.9L71.2,81.3L72.2,82.0L73.8,82.7L75.9,84.0L78.9,85.5L79.1,85.7L79.8,86.0L80.1,86.3L83.2,87.8L83.4,88.1L84.1,88.4L84.4,88.6L84.9,88.8L85.4,89.2L86.0,89.4L86.9,90.0L88.1,90.6L88.9,90.6L89.8,90.2L90.2,89.8L91.7,89.0L91.9,88.8L93.4,88.0L94.4,87.3L95.5,86.8L98.3,85.1L98.7,85.0L100.8,83.6L102.4,82.8L106.4,80.4L107.5,79.9L110.2,78.2L111.1,77.8L112.0,77.1L112.3,77.1L112.9,76.4L113.0,76.1L112.7,50.2L112.5,49.6L112.1,49.1L105.6,45.5L104.2,44.8L103.7,44.4L100.3,42.7L99.3,42.0L96.8,40.6L96.1,40.3L94.5,39.3L93.9,39.1L92.7,38.3L92.2,38.1L91.2,37.5L90.3,37.1L89.2,36.4L88.2,35.9L87.6,35.9L85.7,37.1L85.3,37.2L84.1,38.0L82.7,38.8L81.8,39.5L81.2,39.6L79.5,40.8L78.4,41.3L77.4,42.1L75.4,43.0L75.1,43.3L69.1,46.8L68.4,47.4L67.7,47.6L65.9,48.8L64.8,49.3L64.4,49.2L64.2,48.9L64.1,23.0L63.7,22.5L62.6,21.8L62.1,21.6L61.1,21.0L59.6,20.3L58.6,19.6L54.6,17.5L54.2,17.2L50.9,15.5L49.9,14.8L49.4,14.7L48.2,13.9L47.7,13.7L47.1,13.3L46.0,12.8L45.7,12.6L45.2,12.4L44.8,12.1L41.6,10.4L40.7,9.7L40.4,9.7L39.4,9.2Z M39.4,70.9L40.7,70.9L41.4,71.4L46.3,74.1L47.9,75.1L48.5,75.2L49.7,76.1L51.0,76.7L51.5,77.1L55.1,78.9L57.4,80.4L58.0,80.7L58.5,81.4L58.7,83.6L58.6,88.9L58.8,100.2L58.5,101.3L58.2,101.7L57.1,102.5L56.4,102.7L56.1,103.1L55.9,103.1L53.3,104.8L50.2,106.4L49.2,107.2L48.5,107.4L46.8,108.6L45.5,109.2L44.3,110.1L43.5,110.4L41.1,111.9L40.0,112.4L38.8,112.3L34.1,109.6L32.3,108.8L31.8,108.4L31.2,108.2L30.1,107.4L27.9,106.4L26.8,105.6L24.5,104.5L22.6,103.2L22.3,103.2L21.7,102.7L21.5,102.3L21.3,101.0L21.3,82.6L21.6,81.5L23.0,80.4L24.4,79.8L27.7,77.7L28.3,77.4L31.6,75.3L32.1,75.1L33.9,74.1L34.2,73.8Z M63.2,50.4L63.8,50.4L64.1,50.8L64.3,62.5L64.3,76.0L64.1,76.8L63.8,77.0L63.0,76.8L60.3,75.5L58.0,74.1L56.8,73.5L55.7,72.8L53.4,71.7L52.4,71.0L51.7,70.8L51.5,70.5L50.8,70.3L48.8,69.0L48.4,68.9L47.8,68.5L46.5,67.9L46.3,67.7L44.1,66.6L42.0,65.3L41.5,65.1L40.7,64.4L40.7,64.0L41.0,63.8L42.2,63.0L42.8,62.5L44.1,61.9L45.3,61.0L46.9,60.2L49.1,58.7L50.2,58.2L51.6,57.2L54.8,55.5L55.3,55.0L57.9,53.6L59.1,52.7L60.9,51.8Z M87.7,42.3L88.3,42.3L89.0,42.6L90.0,43.3L90.6,43.4L90.8,43.7L93.1,44.9L95.1,46.1L98.2,47.6L100.2,48.9L101.0,49.2L103.6,50.7L103.9,50.9L105.5,51.7L106.1,52.1L106.7,52.7L106.9,53.4L106.9,72.9L106.1,73.6L104.0,74.8L102.8,75.7L100.1,77.1L99.1,77.8L95.6,79.7L94.4,80.6L93.9,80.8L88.5,83.9L87.6,83.9L85.5,82.9L85.2,82.6L82.0,81.0L81.1,80.4L80.2,80.0L70.6,74.7L70.1,74.2L70.0,73.2L70.0,53.4L70.1,52.9L73.6,50.6L75.1,49.8L77.9,48.1L82.2,45.6L82.7,45.2L83.2,45.0L84.6,44.0L85.5,43.7L85.7,43.4L86.2,43.3L87.1,42.6Z M38.9,15.6L39.6,15.6L40.3,15.8L41.5,16.6L42.9,17.3L43.1,17.5L44.5,18.1L45.7,19.0L47.7,19.9L49.7,21.1L53.2,22.9L54.4,23.7L54.9,23.9L55.2,24.2L55.7,24.3L57.8,25.6L58.2,26.0L58.4,26.8L58.4,46.5L57.8,47.2L57.2,47.6L54.0,49.4L53.2,50.0L50.8,51.3L50.0,51.9L49.4,52.2L48.9,52.6L48.4,52.8L48.3,52.9L47.9,53.0L46.3,54.1L43.6,55.6L42.6,56.3L40.1,57.6L39.4,57.6L38.6,57.2L37.0,56.2L35.2,55.4L33.2,54.1L30.2,52.5L29.9,52.3L29.3,52.0L24.0,49.0L22.9,48.6L21.9,47.9L21.4,47.5L21.2,46.5L21.2,27.7L21.3,26.3L22.4,25.3L24.0,24.3L24.4,24.2L26.6,22.7L28.1,22.0L29.3,21.1L29.9,20.9L30.3,20.6L32.6,19.3L35.1,17.7L35.3,17.7L35.8,17.3L36.3,17.1L38.0,16.0Z" fill="#000" fill-rule="evenodd"/>
</svg>