<svg xmlns="http://www.w3.org/2000/svg" viewBox="0 0 128 128" width="128" height="128">
  <path d="M65.3,9.2L64.7,9.2L63.5,10.1L60.6,12.9L60.3,13.1L55.6,17.9L55.2,18.1L53.6,19.8L53.2,20.3L51.0,22.3L45.4,27.9L45.1,28.9L45.1,33.2L45.0,35.5L45.0,43.9L44.9,44.2L44.5,44.7L43.5,44.9L40.5,44.8L39.3,44.9L29.3,44.8L28.7,45.0L25.3,48.3L22.9,50.9L21.4,52.1L20.1,53.5L19.0,54.5L13.6,59.8L12.6,61.0L10.1,63.3L9.9,63.8L10.0,64.6L11.7,66.6L13.3,68.0L13.5,68.4L23.7,78.5L24.2,79.2L28.7,83.7L29.5,83.9L31.7,84.0L37.7,83.9L39.0,84.1L43.7,84.1L44.5,84.2L44.8,84.5L45.1,90.5L45.1,99.4L45.4,100.2L53.1,107.8L53.4,108.3L53.8,108.5L63.3,118.1L64.4,119.1L64.9,119.2L65.6,118.8L79.8,104.5L81.1,103.0L82.3,101.9L83.8,100.2L84.0,99.5L84.3,91.2L84.3,85.6L84.4,84.5L85.1,84.1L99.0,84.2L99.8,84.1L100.4,83.8L105.9,78.4L112.5,71.6L113.3,70.5L114.1,69.8L115.6,68.2L115.7,67.9L117.3,66.2L117.4,66.0L117.9,65.5L118.3,64.5L118.3,64.2L118.0,63.5L117.2,62.4L112.6,57.1L100.8,45.3L100.2,45.1L98.8,44.9L85.4,44.9L84.9,44.9L84.3,44.3L84.2,43.7L84.3,29.6L84.3,28.9L84.0,28.0L70.4,14.1L66.7,10.5L66.2,9.9Z M67.3,90.0L67.6,90.0L68.1,90.4L70.3,92.6L70.8,93.0L71.9,94.2L77.3,99.5L77.5,100.0L77.3,100.7L75.0,103.0L74.7,103.5L67.8,110.3L67.5,110.4L67.3,110.4L67.0,110.1L66.8,109.1L66.9,105.2L66.7,91.8L66.8,90.7L67.0,90.3Z M61.7,89.8L62.2,89.8L62.4,90.0L62.5,91.3L62.5,108.0L62.4,110.0L62.4,110.2L62.1,110.4L61.8,110.4L61.4,110.2L60.3,109.1L60.1,108.7L58.6,107.4L52.8,101.5L51.8,100.3L51.8,99.7L52.6,98.7L54.5,97.0L55.7,95.7Z M44.8,68.7L45.0,69.0L45.0,78.4L44.7,79.3L44.1,79.6L43.3,79.7L38.0,79.7L34.3,79.6L34.1,79.3L34.1,79.0L34.3,78.6L36.9,75.9L38.5,74.4L38.7,74.0L39.3,73.6L39.6,73.2L41.9,71.1L43.6,69.2L44.3,68.6Z M84.5,79.0L84.3,77.4L84.3,68.1L84.4,67.5L84.8,67.0L85.7,66.8L104.2,66.8L109.1,66.9L109.4,67.0L109.6,67.2L109.5,67.8L108.0,69.3L107.8,69.7L106.1,71.5L100.2,77.4L98.1,79.3L96.0,79.6L85.8,79.6L85.0,79.5Z M18.9,67.0L19.3,66.7L20.3,66.6L33.7,66.6L38.6,66.7L39.0,66.8L39.1,67.2L39.0,67.5L38.6,67.8L38.0,68.6L31.2,75.4L30.5,76.3L29.2,77.1L28.7,77.1L27.8,76.4L25.2,73.8L25.0,73.5L23.9,72.5L23.5,71.9L19.4,67.9L19.1,67.5Z M18.4,61.6L20.4,59.5L20.6,59.2L28.2,51.6L28.6,51.3L29.2,51.3L33.9,55.9L34.5,56.6L35.0,57.0L37.2,59.2L39.5,61.8L39.4,62.2L38.9,62.4L27.5,62.4L18.8,62.2L18.5,62.1Z M84.3,50.2L84.7,49.6L85.4,49.4L93.7,49.4L98.4,49.5L98.8,49.8L104.1,55.0L104.4,55.5L108.5,59.5L108.9,60.1L110.2,61.5L110.3,61.9L109.9,62.2L109.1,62.3L107.0,62.4L92.8,62.4L84.8,62.2L84.5,62.0L84.3,61.3Z M34.2,49.3L43.9,49.2L44.4,49.4L44.8,49.8L45.0,50.4L45.1,52.7L44.9,59.9L44.7,60.2L44.2,60.2L42.4,58.7L41.1,57.2L38.7,54.9L38.6,54.6L34.5,50.6L34.0,49.9L34.0,49.5Z M67.5,18.5L68.1,18.6L70.9,21.4L71.6,22.2L72.6,23.1L72.9,23.6L74.2,24.9L74.8,25.4L79.3,29.9L79.7,30.8L79.7,34.8L79.6,48.7L79.6,66.1L79.8,88.6L79.7,94.0L79.7,94.8L79.4,95.1L79.0,95.1L78.5,94.8L67.3,83.7L67.0,83.0L67.1,72.5L67.1,55.9L67.3,54.5L67.1,48.4L67.3,47.0L67.3,18.9Z M62.3,18.2L62.6,18.5L62.6,28.7L62.4,34.5L62.5,55.5L62.3,68.2L62.4,78.4L62.4,82.6L62.0,83.5L54.6,91.1L51.0,94.6L50.5,94.9L50.1,94.9L49.9,94.6L49.8,93.6L49.7,84.2L49.7,45.7L49.9,33.6L49.8,30.7L50.3,29.6L59.9,19.9L61.6,18.4Z" fill="#000" fill-rule="evenodd"/>
</svg>