<svg xmlns="http://www.w3.org/2000/svg" viewBox="0 0 128 128" width="128" height="128">
  <path d="M19.3,67.4L18.7,67.3L18.2,67.8L16.7,70.4L16.6,71.5L19.4,76.4L20.1,77.4L20.7,78.6L21.2,79.3L21.1,79.8L20.3,80.0L17.2,80.2L11.7,80.3L11.2,80.8L10.8,81.7L10.1,82.7L9.4,84.2L9.4,84.6L9.6,84.8L10.1,84.8L15.4,84.8L17.0,84.6L26.2,84.5L28.7,84.2L28.8,83.5L28.2,82.2L27.4,81.2L26.5,79.3L25.8,78.4L25.0,76.9L23.2,74.0L23.0,73.4L22.5,72.9L21.8,71.5Z M108.6,65.0L106.9,67.8L106.2,69.4L105.9,69.7L105.1,71.3L104.5,72.2L101.6,77.6L101.2,78.2L101.0,78.8L99.2,81.8L99.2,82.3L99.7,82.6L103.4,82.6L106.2,82.4L117.5,82.2L118.8,82.0L118.8,81.3L118.0,80.0L117.2,78.5L116.5,77.9L114.4,77.8L107.7,78.1L107.1,78.0L106.9,77.8L106.8,77.4L107.7,75.9L108.0,75.0L108.8,73.7L109.1,73.0L109.4,72.7L111.2,69.2L111.2,68.5L111.0,68.1L110.7,67.8L109.8,66.2L109.0,65.0Z M23.9,57.6L21.9,61.0L21.8,62.1L23.2,64.5L23.4,64.8L23.5,65.1L24.7,66.8L25.2,68.1L26.2,69.4L28.2,73.1L29.2,74.4L29.4,74.9L30.2,76.2L30.3,76.5L30.7,76.9L31.4,78.3L34.6,83.5L35.0,84.0L35.7,84.2L37.1,84.0L38.4,84.1L39.6,83.9L39.8,83.7L39.8,83.2L38.2,80.5L36.7,78.2L36.5,77.7L36.2,77.3L35.5,76.0L35.1,75.6L33.3,72.3L32.4,71.0L31.8,69.8L31.5,69.5L30.3,67.2L28.9,65.2L28.1,63.4L26.7,61.5L26.5,60.8L25.7,59.8L24.9,58.2L24.4,57.5Z M103.9,56.3L103.2,56.3L103.0,57.0L102.4,57.8L101.3,60.0L98.6,64.6L97.2,67.4L96.1,69.2L95.1,71.2L94.4,72.3L93.5,74.1L91.4,77.9L91.0,78.8L89.5,81.4L89.1,82.4L89.4,82.7L92.9,82.7L93.6,82.5L94.2,81.8L95.7,79.2L95.9,78.6L96.4,78.0L96.4,77.7L96.9,76.8L96.9,76.5L97.3,76.2L98.1,74.8L98.1,74.5L98.8,73.4L100.2,70.6L100.6,70.1L100.7,69.7L101.5,68.6L103.3,64.8L104.6,63.0L105.8,60.5L105.8,59.5Z M28.9,48.2L27.4,50.6L26.7,52.0L26.6,52.8L29.4,57.7L29.8,58.1L31.5,61.1L32.2,62.0L33.1,63.7L33.9,64.9L34.1,65.5L34.9,66.6L35.1,67.2L35.5,67.6L36.5,69.6L37.5,70.9L38.2,72.4L39.7,74.5L39.9,75.1L42.8,79.7L43.2,80.5L43.8,81.4L44.0,81.9L44.4,82.3L45.1,83.6L45.7,83.9L49.1,83.9L49.8,83.7L50.1,83.4L50.1,83.1L47.0,77.6L45.7,75.7L44.4,73.2L43.0,71.1L42.9,70.7L42.4,70.1L42.3,69.8L39.3,64.9L39.2,64.6L38.3,63.3L37.7,62.0L37.3,61.6L36.1,59.3L35.7,58.9L34.9,57.4L33.6,55.4L33.4,54.8L31.5,51.8L31.3,51.3L30.4,50.0L29.8,48.7L29.3,48.2Z M98.4,47.1L98.2,47.1L97.4,48.2L95.7,51.5L92.8,56.5L92.4,57.4L91.2,59.4L91.0,59.9L90.7,60.2L90.5,60.9L88.2,64.8L88.1,65.3L87.8,65.6L87.4,66.5L86.9,67.1L86.7,67.7L86.0,68.8L85.8,69.5L81.4,77.3L79.6,80.9L78.7,82.2L78.7,82.7L79.0,83.0L83.1,82.9L83.8,82.3L83.9,81.8L84.3,81.5L85.0,79.8L86.3,77.8L87.1,75.9L87.6,75.3L88.7,73.0L89.0,72.7L90.2,70.2L90.5,69.9L91.3,68.2L92.1,66.9L94.4,62.6L95.7,60.5L95.9,59.8L96.2,59.6L96.5,58.8L96.8,58.3L97.1,57.6L99.4,53.7L100.5,51.5L100.5,50.7L100.1,49.8Z M33.0,44.6L32.9,45.2L35.1,49.2L36.0,50.4L36.3,51.2L38.2,54.1L38.3,54.7L39.1,55.7L40.3,58.1L41.5,59.8L43.5,63.5L44.3,64.6L44.6,65.3L46.5,68.2L47.2,69.8L48.5,71.8L48.7,72.4L51.3,76.5L51.9,77.8L52.9,79.2L53.2,79.3L53.8,78.6L55.4,75.7L55.4,75.0L54.3,73.0L54.0,72.7L53.8,72.1L52.8,70.6L52.4,69.8L52.0,69.4L51.9,69.0L51.4,68.2L50.6,66.7L49.8,65.7L49.6,64.9L48.2,63.0L48.0,62.2L45.7,58.6L44.9,57.0L44.1,55.8L43.8,55.0L43.1,54.0L42.9,53.4L41.8,51.7L41.4,51.2L41.3,50.8L41.0,50.5L40.1,48.8L39.8,48.5L38.0,45.2L37.2,44.5L36.9,44.4L33.7,44.4Z M43.4,44.4L43.2,44.6L43.2,44.9L44.6,47.4L46.5,50.3L47.1,51.7L48.2,53.2L48.7,54.5L50.1,56.5L50.4,57.3L51.2,58.3L51.4,59.0L52.8,61.2L53.4,62.5L53.8,62.9L55.5,66.1L56.9,68.2L57.8,69.8L58.2,70.1L58.6,70.0L60.1,67.4L60.5,66.5L60.5,66.0L57.5,60.7L56.6,59.6L56.4,58.7L55.5,57.6L55.4,57.2L55.1,56.9L53.3,53.5L50.9,49.6L50.2,48.2L49.8,47.6L48.2,44.8L47.7,44.3L45.3,44.2Z M72.8,43.9L71.5,44.0L69.1,43.8L68.5,44.0L67.7,45.1L63.7,52.3L63.1,52.4L61.8,50.6L59.0,45.5L58.1,44.3L56.8,44.1L53.4,44.3L53.5,45.0L54.5,46.8L54.9,47.4L56.1,49.5L56.9,50.7L59.1,54.7L60.6,56.9L61.3,58.3L61.6,58.7L61.9,59.5L63.1,61.3L63.7,61.2L63.9,60.6L65.3,58.4L65.5,57.8L65.9,57.4L67.1,54.9L68.0,53.7L68.7,52.1L70.0,50.0L71.3,47.6L73.0,44.8L73.1,44.3Z M83.9,43.8L80.2,43.7L79.4,43.8L78.9,44.2L78.5,45.0L78.1,45.6L77.8,46.4L76.7,48.0L76.4,48.9L76.0,49.3L74.2,52.7L72.4,55.5L72.1,56.3L70.8,58.3L70.0,59.9L68.8,61.8L68.5,62.6L66.8,65.4L66.4,66.6L66.5,67.4L67.4,68.6L68.2,70.1L68.6,70.7L69.0,70.7L69.6,70.1L69.8,69.6L71.6,66.4L71.9,65.6L72.3,65.2L73.0,63.8L73.7,62.8L74.1,61.8L74.4,61.5L74.6,61.0L74.8,60.7L76.1,58.3L77.4,56.3L78.2,54.7L78.6,54.1L78.8,53.5L81.0,49.8L81.3,49.1L82.2,47.8L82.4,47.2L83.8,44.9L84.0,44.5Z M94.2,43.5L89.9,43.5L89.7,43.6L89.0,44.4L87.3,47.5L87.0,47.8L86.4,49.2L85.5,50.4L85.2,51.2L84.9,51.5L84.8,51.8L82.7,55.5L82.1,56.7L81.8,57.0L81.0,58.7L79.7,60.8L79.6,61.2L77.0,65.5L75.4,68.6L73.9,71.0L73.3,72.3L71.6,75.2L71.7,76.5L72.2,77.0L73.4,79.4L73.8,79.8L74.3,79.8L74.8,79.0L76.1,76.5L76.5,76.2L78.4,72.6L78.7,71.8L80.6,68.8L80.8,68.2L81.5,67.3L83.0,64.4L83.7,63.3L84.0,62.6L84.8,61.5L85.5,59.8L87.9,56.0L88.6,54.4L89.1,53.8L90.2,51.5L91.5,49.7L93.8,45.2L94.2,44.8L94.4,44.4L94.4,43.7Z" fill="#000" fill-rule="evenodd"/>
</svg>