<svg xmlns="http://www.w3.org/2000/svg" viewBox="0 0 128 128" width="128" height="128">
  <path d="M74.0,12.8L73.8,12.9L73.6,13.5L73.8,25.0L73.8,34.6L73.7,35.2L73.4,35.5L72.9,35.4L70.5,33.9L70.0,33.8L69.7,33.6L68.1,33.0L65.1,32.6L62.4,32.6L59.5,33.0L56.7,34.1L54.1,35.5L52.5,36.7L51.9,37.0L48.7,40.1L47.1,42.7L45.5,45.8L45.4,46.4L45.1,46.9L44.7,48.0L43.9,51.4L43.7,54.2L43.7,57.4L43.8,59.4L44.1,60.1L44.1,61.2L44.4,61.9L44.6,63.1L44.9,63.9L45.2,65.0L45.3,65.2L45.5,65.9L45.8,66.4L46.0,67.0L46.2,67.3L46.2,67.6L46.8,68.9L47.1,69.1L47.1,69.5L48.2,71.3L48.9,72.1L49.1,72.5L51.7,75.7L54.6,78.5L62.7,85.0L64.4,86.5L66.8,88.9L67.4,89.3L71.7,93.9L72.9,95.4L74.3,97.6L75.6,100.7L75.7,101.8L76.1,102.9L76.5,106.2L76.5,109.2L76.0,113.8L76.3,114.2L76.7,114.2L79.2,112.9L80.2,112.1L82.4,110.8L83.1,110.3L83.9,109.9L85.1,109.1L86.9,108.2L87.2,107.8L87.7,107.6L89.5,106.4L90.1,106.2L92.3,104.7L93.4,104.1L94.9,103.0L96.2,102.4L96.5,102.1L96.8,102.0L97.9,101.2L99.1,100.6L100.1,99.9L100.5,99.7L101.5,99.0L102.3,98.7L103.0,98.1L104.7,97.2L105.8,96.4L106.5,96.1L106.7,95.9L108.4,95.0L109.0,94.5L110.4,93.6L111.2,92.8L111.4,92.4L111.4,89.8L111.2,83.9L111.3,81.4L111.1,79.0L111.1,66.8L110.8,58.7L110.7,46.9L110.9,44.5L110.7,43.8L110.8,42.3L110.6,37.0L110.3,36.1L109.5,35.3L97.5,27.4L95.6,26.4L95.3,26.1L93.9,25.1L93.6,25.1L91.4,23.6L89.6,22.5L89.3,22.2L88.2,21.6L88.1,21.3L87.4,21.0L84.7,19.1L84.3,19.0L83.2,18.2L82.9,18.1L82.0,17.4L81.5,17.2L80.5,16.4L79.2,15.8L75.6,13.4L74.5,12.8Z M60.9,9.1L59.5,9.7L59.3,9.9L56.6,11.4L55.9,11.9L54.4,12.7L53.4,13.5L51.8,14.3L51.1,14.9L47.9,16.7L44.4,18.9L42.0,20.2L37.1,23.3L34.0,25.1L32.7,26.0L31.7,26.5L31.0,27.0L25.8,30.1L24.9,30.8L22.0,32.4L17.7,35.2L17.1,35.7L16.9,36.4L16.9,50.0L17.0,52.3L17.0,57.8L17.1,59.3L17.0,63.1L17.3,73.1L17.3,78.7L17.5,86.2L17.5,91.0L17.8,91.6L18.4,92.2L19.6,92.8L20.4,93.5L21.5,94.0L22.4,94.8L23.7,95.5L24.5,96.1L25.7,96.8L28.6,98.8L30.5,99.9L30.8,100.2L31.2,100.3L32.0,101.0L33.4,101.7L34.1,102.4L36.1,103.4L36.9,104.0L37.5,104.3L38.3,104.9L38.8,105.2L39.0,105.4L41.0,106.5L42.6,107.7L43.7,108.2L45.3,109.4L49.7,112.1L50.0,112.4L50.8,112.8L52.0,113.8L53.1,114.3L53.5,114.6L56.5,116.5L56.9,116.8L58.1,117.5L58.4,117.8L58.7,117.9L60.4,119.0L61.1,119.1L61.4,118.8L61.5,110.7L61.4,107.8L61.4,96.1L61.2,95.1L61.4,93.5L61.2,92.6L61.1,87.3L60.8,87.0L60.4,87.1L59.9,87.7L58.2,89.1L56.9,90.1L55.6,90.9L52.4,92.2L50.5,92.7L48.5,93.0L46.0,93.0L44.7,92.8L42.1,92.2L41.6,91.9L40.9,91.7L39.4,90.9L39.2,90.9L36.9,89.4L35.0,87.7L33.7,86.4L31.1,82.6L29.7,79.8L29.7,79.6L29.3,78.9L28.9,77.7L28.7,76.6L28.4,75.8L28.3,74.8L28.0,74.0L27.9,71.5L27.9,66.4L28.3,65.0L28.4,63.3L28.7,62.4L28.9,61.5L30.1,58.7L30.3,57.4L30.9,56.7L31.3,55.9L31.5,55.3L32.7,53.6L33.8,51.6L35.9,48.9L40.1,44.8L40.8,44.3L46.2,39.8L46.7,39.6L51.6,35.1L55.4,30.7L57.6,27.3L59.0,24.3L59.2,23.4L59.8,22.1L60.9,17.6L61.1,15.4L61.4,14.4L61.4,12.3L61.6,11.6L61.5,9.7L61.4,9.3Z" fill="#000" fill-rule="evenodd"/>
</svg>