<svg xmlns="http://www.w3.org/2000/svg" viewBox="0 0 128 128" width="128" height="128">
  <path d="M97.6,13.2L96.9,13.1L95.5,13.2L95.0,13.4L93.7,13.5L91.5,14.1L89.2,14.4L85.4,15.1L85.0,15.3L82.5,15.8L81.9,16.1L81.5,16.1L81.2,16.3L79.0,16.7L78.5,17.0L77.8,17.0L77.5,17.2L71.3,18.8L63.2,21.6L62.6,21.7L62.0,22.0L61.1,22.3L60.9,22.5L58.7,23.2L58.2,23.5L57.7,23.6L57.1,23.9L56.5,24.0L55.6,24.5L54.9,24.6L54.6,24.9L53.0,25.4L52.3,25.8L49.2,27.0L47.7,27.8L46.5,28.3L45.6,28.8L45.2,28.9L38.5,32.3L38.2,32.6L36.6,33.3L34.1,35.0L33.6,35.2L31.1,36.9L29.8,37.5L28.2,38.8L26.1,40.2L25.6,40.7L24.2,41.6L21.1,44.3L20.3,44.9L16.4,48.6L12.4,53.5L12.2,54.1L11.1,55.7L9.9,58.4L9.3,61.4L9.4,63.9L9.7,65.3L10.7,67.8L11.1,68.3L12.0,69.6L14.5,72.0L16.6,73.5L19.0,75.1L20.5,75.8L22.3,76.8L24.2,77.4L24.8,77.8L28.1,78.9L28.6,79.1L29.4,79.3L29.8,79.6L31.1,79.8L31.8,80.2L32.5,80.3L33.6,80.7L34.0,80.7L35.5,81.2L37.0,81.5L37.5,81.7L39.2,82.0L39.5,82.2L41.4,82.4L42.5,82.8L48.6,83.6L53.3,84.1L65.9,84.3L66.6,84.1L70.9,84.1L71.2,84.4L71.2,84.9L70.0,86.2L65.7,90.6L59.2,96.3L54.2,100.1L50.2,102.8L48.0,104.5L46.4,105.4L46.0,105.9L43.7,107.3L43.0,107.9L41.4,108.8L41.0,109.2L39.2,110.4L38.0,111.0L37.0,111.7L32.6,114.2L31.9,114.8L32.1,115.2L33.2,115.1L34.4,114.8L36.4,114.5L36.7,114.3L43.0,113.0L45.4,112.3L46.2,112.3L49.0,111.4L49.8,111.3L50.5,111.0L51.8,110.7L52.5,110.4L53.0,110.4L53.8,110.0L56.4,109.4L58.5,108.7L60.0,108.0L60.8,107.9L61.2,107.6L62.1,107.4L63.0,107.0L67.0,105.7L70.5,104.2L71.0,104.1L72.4,103.5L72.6,103.3L74.3,102.8L74.4,102.6L74.7,102.6L76.9,101.6L78.7,100.9L80.3,99.9L82.0,99.2L86.3,97.1L90.1,94.9L91.2,94.5L91.7,94.1L94.2,92.6L94.5,92.5L97.0,90.8L97.4,90.7L102.9,86.7L107.2,83.2L107.6,82.7L108.6,82.0L111.5,79.1L114.4,75.9L117.1,71.8L118.3,69.2L118.8,67.3L118.9,66.1L118.9,64.2L118.4,62.1L117.2,59.4L116.1,57.9L113.7,55.7L110.6,53.4L109.5,53.0L108.8,52.5L106.8,51.5L106.1,51.3L105.4,50.8L104.9,50.8L104.5,50.5L102.3,49.8L101.9,49.6L100.7,49.3L99.7,48.9L99.4,48.9L99.2,48.7L98.1,48.4L97.6,48.2L97.2,48.2L96.7,47.9L94.4,47.4L93.9,47.1L92.9,47.0L91.6,46.5L85.5,45.2L84.2,45.2L83.8,45.0L81.2,44.6L79.4,44.6L78.8,44.4L77.0,44.3L76.2,44.1L73.4,44.0L72.5,43.9L57.6,43.9L57.3,43.6L57.4,43.1L58.8,41.4L62.2,38.1L63.7,37.0L68.1,32.9L69.9,31.7L72.5,29.5L84.8,21.0L93.7,15.6L95.3,14.8L96.2,14.2L97.4,13.7L97.6,13.4Z M56.2,44.8L57.0,45.0L61.2,47.7L64.7,50.4L64.9,50.5L67.8,53.0L71.7,57.1L73.1,59.1L73.6,59.6L75.6,62.7L76.9,65.5L77.5,67.4L78.0,70.0L78.0,72.3L77.5,74.7L76.8,76.8L75.9,78.3L75.6,79.0L73.8,81.7L72.5,83.1L71.7,83.1L71.2,82.9L68.0,81.0L64.9,78.8L60.8,75.3L57.6,71.9L55.2,68.9L53.3,66.1L52.1,63.7L51.0,60.7L50.5,58.4L50.5,55.5L50.9,53.7L51.4,52.0L53.3,48.3L55.3,45.6Z" fill="#000" fill-rule="evenodd"/>
</svg>