<svg xmlns="http://www.w3.org/2000/svg" viewBox="0 0 128 128" width="128" height="128">
  <path d="M16.6,50.8L14.9,52.1L13.5,53.3L12.0,55.1L10.8,57.1L9.9,59.3L9.5,60.6L9.1,62.7L9.0,72.3L9.2,73.4L9.7,75.1L10.7,76.7L12.5,78.5L13.5,79.1L14.6,79.5L16.6,79.8L17.4,79.8L17.9,79.7L18.8,79.6L21.1,78.6L22.1,77.9L23.0,77.0L23.6,76.1L24.6,74.3L25.1,74.4L25.8,76.1L26.6,77.2L27.5,78.0L29.0,79.1L30.1,79.5L31.7,79.9L33.3,79.9L34.2,79.7L36.0,79.1L37.5,78.2L38.8,77.0L39.5,76.0L39.9,75.1L40.4,73.2L40.5,63.0L40.3,61.2L39.6,58.7L38.4,56.2L37.2,54.4L35.2,52.3L32.9,50.6L29.9,49.2L27.9,48.7L26.9,48.6L26.5,48.5L23.6,48.5L21.5,48.8L18.8,49.7Z M118.7,60.0L117.9,57.9L116.8,55.6L115.3,53.6L113.6,51.9L112.0,50.7L109.7,49.5L108.6,49.1L105.4,48.3L80.2,48.3L75.7,48.5L73.3,48.4L69.7,48.6L56.2,48.6L54.6,48.8L53.0,49.2L51.7,50.0L51.0,50.5L50.0,51.5L49.3,52.4L48.7,53.6L48.5,54.6L48.4,54.8L48.2,55.8L48.3,57.9L49.1,60.3L49.8,61.3L51.1,62.6L51.8,63.2L53.5,63.9L54.1,64.2L53.9,64.5L52.6,65.0L51.3,65.8L50.2,66.8L49.5,67.7L48.7,69.2L48.3,70.7L48.2,72.4L48.4,73.7L48.7,74.9L49.2,75.9L50.0,77.1L50.7,77.9L51.7,78.6L52.8,79.2L53.2,79.3L53.5,79.5L55.6,79.9L78.5,80.0L89.0,79.8L103.9,79.8L106.8,79.4L108.6,78.9L109.9,78.4L111.2,77.6L111.6,77.6L113.7,75.9L115.4,74.3L116.7,72.5L118.2,69.5L119.0,66.7L119.2,63.7L119.1,62.5Z" fill="#000" fill-rule="evenodd"/>
</svg>