<svg xmlns="http://www.w3.org/2000/svg" viewBox="0 0 128 128" width="128" height="128">
  <path d="M63.2,93.3L63.0,93.0L59.8,89.5L57.8,87.0L56.5,85.0L56.1,84.7L55.8,84.7L54.1,85.8L51.4,87.2L48.6,88.3L45.7,89.1L42.1,89.8L39.1,90.1L30.7,90.1L15.9,89.9L9.6,89.9L9.3,90.3L9.2,90.6L9.1,100.8L9.2,101.3L9.5,101.7L9.9,101.9L10.7,101.8L11.9,101.9L19.2,101.9L23.6,101.9L25.8,102.1L40.3,102.0L45.3,101.6L46.3,101.5L46.9,101.2L48.3,101.1L49.7,100.6L51.3,100.3L52.5,99.9L52.8,99.7L53.8,99.5L54.9,98.8L55.6,98.7L57.3,97.7L57.6,97.5L57.9,97.4L59.0,96.6L59.5,96.4L59.8,96.1L60.1,96.1L60.7,95.5L61.4,95.2L62.8,94.0Z M55.5,83.2L53.8,79.8L53.7,79.2L53.1,78.0L52.3,75.3L51.9,74.7L51.1,74.8L50.7,75.2L50.0,75.3L49.6,75.6L46.4,76.7L43.6,77.3L40.6,77.6L10.0,77.4L9.4,77.5L9.3,77.7L9.2,78.2L9.2,88.2L9.3,88.7L9.6,89.0L10.6,89.1L30.6,89.4L39.2,89.3L42.3,89.1L42.7,88.9L44.5,88.7L46.9,88.0L48.7,87.5L50.6,86.7L50.9,86.4L51.3,86.4L51.7,86.0L53.0,85.6L55.3,84.1L55.5,83.9Z M72.1,26.1L71.6,26.4L71.5,27.1L71.1,58.5L70.5,62.9L70.2,63.9L70.1,64.7L69.7,65.9L69.5,67.2L71.1,69.4L73.4,71.6L75.1,72.9L75.8,72.9L76.0,72.7L76.5,70.4L76.5,69.7L76.8,68.3L76.9,66.0L76.9,56.2L77.0,52.2L76.9,51.0L77.1,44.8L77.1,37.3L77.3,32.7L77.3,26.5L77.0,26.2L76.5,26.1Z M65.7,25.8L65.2,26.2L65.0,28.3L64.8,54.4L65.4,58.6L65.7,59.1L65.7,59.8L66.8,62.7L67.2,63.3L67.3,63.7L68.1,65.2L68.4,65.5L68.8,65.6L68.9,65.5L69.4,64.0L69.9,60.8L70.1,59.9L70.3,57.8L70.7,26.5L70.6,26.3L70.1,26.0L67.3,26.0L66.9,25.8Z M59.1,25.9L58.9,26.3L58.8,33.3L58.7,35.8L58.7,44.7L58.5,52.7L58.5,58.3L58.8,61.5L59.6,65.7L59.9,66.5L60.2,67.6L60.3,67.8L60.5,68.5L61.2,70.0L61.4,70.6L61.9,71.6L62.1,71.8L62.3,72.5L63.2,74.1L65.4,77.3L66.9,79.1L69.6,81.7L71.0,82.9L74.3,85.2L78.4,87.2L82.0,88.5L84.0,89.1L88.8,89.8L93.0,89.7L101.5,89.8L105.4,89.9L118.7,89.9L119.0,89.6L119.1,81.3L119.0,79.0L118.7,78.4L94.8,77.9L87.7,77.9L84.8,77.6L81.9,76.9L81.2,76.6L80.6,76.5L77.1,75.0L75.2,73.8L73.8,72.6L73.5,72.5L71.2,70.5L68.8,67.7L67.3,65.2L66.1,63.0L65.8,62.0L65.4,61.3L64.3,56.8L64.1,54.2L64.1,47.1L64.3,40.6L64.2,37.2L64.5,28.8L64.4,26.3L64.2,26.0L63.8,25.8Z M52.4,25.8L52.2,26.1L52.1,28.1L52.2,29.7L51.9,40.5L52.0,46.4L51.8,49.7L51.9,53.3L51.7,65.3L51.8,67.7L52.0,69.0L52.1,70.7L52.4,72.0L52.5,73.0L53.1,75.6L54.0,78.1L54.9,80.0L54.9,80.5L57.6,85.2L59.2,87.6L60.8,89.6L64.1,92.9L66.1,94.5L70.0,97.2L71.3,97.8L74.0,99.4L76.6,100.3L80.6,101.5L84.5,102.1L90.5,102.4L101.2,102.3L108.5,102.6L118.3,102.6L118.9,102.3L119.0,101.9L119.1,92.2L119.0,91.2L118.6,90.8L101.7,90.5L89.6,90.5L88.1,90.3L87.0,90.3L83.2,89.5L80.1,88.7L78.1,87.9L77.3,87.5L76.4,87.2L73.8,85.7L70.4,83.3L69.6,82.6L68.8,82.1L67.4,80.7L65.1,78.2L62.7,74.8L61.9,73.3L60.1,69.7L59.9,68.9L59.6,68.4L59.1,66.3L58.8,65.8L58.0,61.7L57.6,57.7L57.9,35.8L58.0,31.5L58.0,26.1L57.6,25.8L56.5,25.8Z" fill="#000" fill-rule="evenodd"/>
</svg>