<svg xmlns="http://www.w3.org/2000/svg" viewBox="0 0 128 128" width="128" height="128">
  <path d="M95.9,12.8L91.6,10.8L88.5,9.8L86.5,9.4L85.6,9.4L84.8,9.2L81.1,9.1L79.2,9.3L76.4,9.8L73.2,10.8L71.6,11.4L69.3,12.6L66.4,14.6L63.4,17.3L61.2,19.9L59.4,22.7L58.3,24.9L58.3,25.1L57.4,27.1L56.6,30.7L56.4,32.0L56.2,34.8L56.1,44.7L56.1,45.0L55.6,45.3L26.0,45.4L25.5,45.5L25.2,46.3L25.1,49.9L25.1,61.0L25.2,61.4L25.5,61.6L26.7,61.8L35.1,61.7L39.5,61.9L54.6,61.9L55.5,62.0L55.9,62.5L56.0,62.8L55.9,65.4L55.3,65.9L46.7,65.9L41.3,66.3L38.6,66.8L36.1,67.7L33.2,69.0L29.6,71.4L28.6,72.2L26.8,73.9L25.2,75.6L23.6,77.8L21.9,80.8L20.8,83.2L20.0,86.0L19.7,87.5L19.3,90.9L19.3,93.7L19.4,95.7L19.8,97.4L19.9,98.3L20.6,100.6L21.1,102.3L22.7,105.4L23.5,106.8L25.4,109.3L27.2,111.4L28.2,112.3L31.6,114.9L34.7,116.6L36.9,117.4L37.4,117.7L41.1,118.7L42.4,118.8L43.7,119.1L48.2,119.1L50.7,118.8L54.2,117.9L54.6,117.6L55.2,117.6L56.4,117.1L56.9,116.7L57.5,116.6L58.4,116.0L59.0,115.8L59.3,115.5L61.0,114.5L62.9,113.1L65.2,110.9L66.9,108.9L67.9,107.5L69.7,104.4L69.7,104.1L70.1,103.7L70.2,103.0L70.4,102.8L71.0,100.7L71.4,100.1L71.5,99.0L71.9,98.1L72.3,94.2L72.4,84.5L72.5,83.3L73.0,82.7L80.2,82.6L84.2,82.7L102.2,82.7L103.0,82.6L103.4,82.2L103.5,75.4L103.5,66.8L103.1,66.3L98.5,66.1L73.7,66.0L73.0,65.9L72.8,65.7L72.7,64.8L72.7,62.7L72.8,62.4L73.2,62.0L84.6,62.0L87.6,61.6L88.9,61.2L89.8,61.2L92.2,60.3L96.1,58.5L96.4,58.1L97.7,57.5L100.3,55.4L102.9,52.6L104.1,51.2L105.0,49.7L105.3,49.4L107.0,46.0L108.3,42.0L108.3,41.5L108.8,39.5L109.0,37.8L109.0,33.5L108.8,31.9L108.6,31.1L108.5,30.2L108.1,29.2L107.9,28.2L107.5,26.8L106.8,25.3L106.5,24.4L105.2,22.0L104.0,20.2L102.4,18.2L100.2,16.0L99.2,15.2Z M55.3,82.6L55.9,83.0L56.0,83.6L55.9,93.2L55.6,95.3L55.0,97.0L54.3,98.3L53.4,99.4L52.0,100.8L49.6,102.3L46.9,102.8L44.5,102.8L42.2,102.3L40.0,101.1L38.7,100.1L37.2,98.3L36.6,97.2L35.8,94.9L35.6,93.3L35.6,91.8L36.0,89.5L36.9,87.6L37.8,86.3L38.6,85.5L40.4,83.9L42.4,83.0L43.0,83.0L43.8,82.6L45.2,82.5Z M81.4,46.3L81.6,46.5L81.6,46.7L81.3,47.0L81.1,46.6Z M89.4,27.7L90.9,29.3L91.8,30.8L92.5,32.7L92.9,34.8L92.9,36.0L92.6,37.7L92.0,39.3L91.5,40.3L90.6,41.8L88.6,43.6L87.6,44.2L85.8,45.0L83.9,45.4L76.4,45.4L73.0,45.3L72.7,44.8L72.6,44.1L72.6,34.4L72.9,32.6L73.2,31.6L74.1,29.8L75.1,28.5L76.3,27.4L77.9,26.3L78.9,26.0L79.3,25.7L81.3,25.2L83.9,25.2L85.7,25.6L87.4,26.3Z" fill="#000" fill-rule="evenodd"/>
</svg>