<svg xmlns="http://www.w3.org/2000/svg" viewBox="0 0 128 128" width="128" height="128">
  <path d="M54.7,10.1L51.9,11.2L50.2,12.1L48.3,13.3L46.6,14.6L44.5,16.7L42.3,19.5L41.1,21.7L39.9,25.4L39.5,27.3L39.3,28.7L39.3,30.4L39.5,33.2L39.8,33.8L40.2,36.0L41.1,38.2L42.5,40.3L44.3,42.4L46.1,43.7L48.3,44.9L51.3,45.5L54.8,45.4L57.0,44.9L57.5,44.6L58.7,44.1L59.8,43.4L61.8,41.4L62.5,40.4L63.0,39.2L63.3,37.9L63.3,35.7L63.0,33.9L62.2,32.5L61.0,31.2L59.2,30.2L58.4,29.9L56.7,29.9L55.5,30.4L55.3,30.6L54.8,30.8L53.9,31.8L53.5,32.9L53.5,33.3L53.7,34.4L54.3,34.9L54.8,35.1L55.4,35.1L56.3,34.9L57.2,34.9L57.8,35.1L58.3,35.9L58.4,36.9L58.1,37.7L57.2,38.8L55.9,39.5L54.6,39.8L53.6,39.8L51.8,39.2L51.0,38.7L50.1,37.9L49.3,36.8L48.8,35.8L48.5,34.3L48.5,32.2L48.8,30.9L49.7,28.9L50.5,27.9L51.4,26.9L52.2,26.4L53.9,25.5L55.1,25.0L55.6,25.0L57.0,24.7L58.2,24.7L60.1,25.0L61.7,25.6L64.1,26.9L65.8,28.4L67.4,30.9L68.2,33.1L68.4,34.3L68.7,35.5L68.6,38.1L68.2,40.5L67.8,41.3L67.8,41.5L67.3,42.7L66.3,44.5L65.5,45.5L63.3,47.7L61.4,49.0L59.2,50.1L58.4,50.3L57.8,50.6L56.9,50.7L56.5,51.0L54.5,51.3L50.7,51.8L46.2,51.9L45.5,52.1L45.3,52.5L45.3,55.9L45.2,57.9L45.3,58.9L45.5,59.2L45.8,59.4L47.3,59.5L51.4,59.5L51.6,59.5L52.1,60.0L52.1,64.9L51.9,65.8L51.9,69.0L51.7,70.9L51.8,74.1L51.6,74.8L51.5,81.2L51.3,82.1L51.4,83.8L51.3,85.1L51.1,93.1L51.0,94.5L50.9,100.3L50.7,101.4L50.7,104.6L50.6,106.2L50.7,107.9L50.4,112.8L50.4,118.4L50.6,118.7L51.2,118.6L62.5,107.7L64.5,105.7L66.2,104.2L68.9,101.6L69.5,101.5L70.2,101.9L72.1,103.8L72.8,104.4L79.2,110.9L81.4,112.9L81.8,113.4L87.7,119.1L88.1,119.2L88.4,118.9L88.4,115.6L88.5,114.1L88.5,100.8L88.6,98.6L88.8,97.7L88.7,82.2L88.8,61.9L88.9,58.1L88.8,55.1L89.0,46.7L88.9,39.5L88.8,38.6L88.6,35.0L88.4,34.3L88.4,33.8L87.9,31.9L87.8,30.3L86.6,25.6L85.3,22.7L84.2,20.7L82.5,18.3L80.9,16.5L79.3,15.0L77.5,13.7L74.3,11.9L72.4,11.0L69.6,10.1L67.6,9.7L67.4,9.5L64.2,9.0L62.8,8.9L61.4,9.1L60.0,9.1L56.6,9.6L55.9,9.9Z" fill="#000" fill-rule="evenodd"/>
</svg>