<svg xmlns="http://www.w3.org/2000/svg" viewBox="0 0 128 128" width="128" height="128">
  <path d="M37.1,10.4L34.8,11.4L32.3,12.9L30.9,14.1L29.1,15.9L28.0,17.4L26.8,19.4L25.8,21.9L25.6,22.0L25.0,24.0L24.5,28.0L24.3,33.1L24.3,39.8L24.0,45.8L24.0,52.3L23.8,61.0L23.9,63.7L24.1,64.0L24.4,64.1L27.4,64.2L28.4,64.1L41.0,64.4L41.3,64.0L41.5,63.5L41.6,53.6L41.8,46.3L41.7,44.8L41.9,44.1L41.9,34.0L42.1,31.7L42.1,29.4L42.2,28.5L43.3,27.5L44.3,27.5L45.1,28.1L45.4,29.0L45.0,56.3L44.8,61.5L44.8,66.3L44.7,66.9L44.3,67.4L43.9,67.5L37.2,67.3L24.2,67.3L23.9,67.5L23.7,67.9L23.6,69.4L23.5,79.3L24.0,84.1L24.6,87.8L24.9,88.3L25.4,90.5L26.5,93.6L26.7,93.9L26.9,94.6L28.1,97.1L30.5,101.2L32.0,103.1L32.5,104.0L34.5,106.3L37.2,109.0L39.5,111.0L42.0,112.7L43.0,113.2L44.1,114.0L44.8,114.2L45.0,114.5L47.4,115.7L48.2,115.9L49.8,116.6L51.4,117.2L51.9,117.2L52.8,117.6L53.5,117.7L55.2,118.2L58.5,118.8L63.2,119.2L65.6,119.1L69.8,118.7L70.5,118.4L71.6,118.3L71.9,118.1L72.7,118.1L75.4,117.4L76.2,117.0L76.6,117.0L78.3,116.4L78.8,116.1L79.2,116.0L79.9,115.6L80.2,115.6L82.4,114.5L83.6,113.7L84.7,113.2L87.5,111.4L91.4,108.1L94.1,105.3L96.4,102.5L98.3,99.5L98.8,98.6L98.9,98.1L99.7,97.0L101.0,94.3L101.4,93.2L101.8,92.3L102.7,89.6L103.4,86.9L104.0,83.3L104.3,80.2L104.4,69.7L104.3,68.6L104.0,68.3L92.2,68.0L85.4,68.0L84.1,67.9L83.5,67.5L83.4,66.1L83.6,57.7L83.6,38.3L83.7,30.6L83.9,28.6L84.5,28.0L85.2,27.6L85.8,27.6L86.2,27.8L86.7,28.3L87.0,29.0L87.1,29.5L87.0,39.2L86.8,43.3L86.8,64.6L87.2,64.9L87.8,65.0L99.4,65.1L104.0,65.0L104.4,64.7L104.5,63.3L104.8,30.2L104.4,25.5L103.4,21.5L102.0,18.7L101.1,17.3L99.4,15.1L97.0,12.9L96.6,12.8L95.5,11.9L94.8,11.6L94.4,11.3L93.2,10.7L90.4,9.7L88.2,9.3L84.2,9.2L82.8,9.3L79.9,10.1L77.9,10.9L75.2,12.4L73.9,13.3L72.0,14.9L71.0,16.0L70.7,16.5L69.3,18.3L68.0,20.9L66.8,24.3L66.3,29.2L66.0,58.6L65.8,61.9L65.4,84.8L65.3,85.1L64.9,85.4L62.3,85.3L62.0,85.0L62.0,79.2L62.2,67.1L62.4,65.4L62.5,61.3L62.4,59.5L62.7,45.0L62.8,27.9L62.5,24.5L61.6,21.5L60.8,19.6L58.4,16.1L56.5,14.1L55.4,13.1L52.4,11.2L50.4,10.4L48.3,9.7L45.1,9.2L42.8,9.2L41.0,9.3Z M67.0,101.0L66.9,100.9L67.3,100.4L68.5,99.8L69.9,98.3L70.9,96.6L71.4,94.6L71.4,92.2L70.9,90.3L70.4,89.3L69.3,87.8L68.2,86.8L67.4,86.4L67.1,85.9L67.4,85.7L73.9,85.8L81.7,85.8L84.6,86.0L84.9,86.3L84.9,87.1L84.6,88.1L83.0,91.3L81.7,93.1L79.9,95.0L78.3,96.4L75.0,98.7L72.6,99.8L72.1,99.9L71.6,100.2L70.3,100.6L69.5,100.7L68.6,101.0Z M42.5,85.7L42.7,85.4L44.0,85.3L58.1,85.5L60.0,85.7L60.1,86.0L58.3,87.3L56.9,88.9L55.9,90.8L55.5,92.7L55.6,94.9L56.0,96.4L56.5,97.4L57.1,98.4L58.6,99.9L59.4,100.3L59.8,100.7L59.8,100.9L59.6,101.0L58.9,101.0L58.1,100.7L56.9,100.5L54.4,99.6L52.0,98.4L50.3,97.3L48.9,96.2L46.8,94.2L45.7,92.8L44.6,91.3L43.7,89.7L43.0,88.2L42.6,86.8Z" fill="#000" fill-rule="evenodd"/>
</svg>