<svg xmlns="http://www.w3.org/2000/svg" viewBox="0 0 128 128" width="128" height="128">
  <path d="M80.3,83.5L79.6,83.3L76.8,83.3L68.1,83.3L67.4,83.5L66.1,85.2L64.5,88.1L64.2,89.0L63.1,90.9L63.0,91.5L62.6,92.2L62.5,92.7L62.3,93.0L61.5,95.8L61.3,96.1L61.1,96.1L60.9,95.8L60.1,92.9L59.5,91.7L59.0,90.3L58.6,89.8L58.0,88.4L56.5,85.7L55.5,84.5L54.5,83.5L53.4,83.3L42.8,83.4L41.5,83.6L41.4,83.9L42.9,85.7L43.8,87.2L44.1,87.7L44.4,88.0L45.9,90.9L46.4,92.4L46.8,93.0L46.8,93.3L47.2,94.2L47.3,95.2L47.6,96.0L47.9,97.6L48.1,99.4L48.1,102.1L47.9,102.7L47.9,103.8L47.6,105.9L46.1,110.5L45.9,110.8L45.3,112.5L44.9,113.1L44.8,113.5L43.8,115.2L41.9,118.1L41.4,118.5L41.4,118.7L41.9,119.0L44.4,119.1L46.4,119.0L48.6,119.2L53.9,119.2L54.3,119.0L55.1,118.3L56.9,115.9L57.3,114.9L58.5,113.1L58.7,112.5L59.5,111.0L59.6,110.4L59.8,110.1L60.0,109.5L60.4,108.5L60.4,108.2L60.9,107.1L61.0,106.5L61.2,106.3L61.3,106.3L61.6,106.6L61.9,108.3L63.0,111.1L64.6,114.3L65.7,115.8L65.8,116.1L67.0,117.6L68.3,119.0L69.4,119.2L79.9,119.2L81.1,119.1L81.5,119.0L81.4,118.6L81.0,118.2L80.2,116.9L79.2,115.5L78.2,114.0L78.0,113.5L77.4,112.7L76.5,110.7L76.4,110.4L75.5,108.4L74.4,104.8L74.0,100.8L74.0,99.7L74.3,97.8L74.3,97.0L74.8,94.8L75.6,92.9L75.6,92.4L76.3,91.1L76.4,90.7L77.1,89.4L77.3,88.9L77.6,88.5L77.8,87.9L78.0,87.7L79.0,85.8L80.2,84.1Z M47.1,9.6L45.3,11.5L45.2,11.9L44.9,12.2L43.2,14.7L41.5,18.2L41.4,18.8L41.1,19.1L40.9,20.3L40.6,20.9L40.2,22.8L39.8,25.3L39.7,29.1L39.9,30.2L40.0,31.9L40.8,35.1L41.9,38.2L42.3,38.9L42.7,39.9L45.0,43.3L46.1,44.8L47.0,45.6L58.6,45.6L58.9,45.3L57.5,43.6L56.9,42.5L56.2,41.7L56.1,41.4L55.8,41.1L55.7,40.7L55.4,40.4L53.6,36.9L53.5,36.2L53.0,35.1L52.9,34.2L52.6,33.5L52.2,31.8L52.0,30.2L51.9,26.8L52.3,23.8L52.8,21.6L53.0,21.2L53.2,20.5L53.6,19.4L53.9,19.1L54.1,18.2L55.5,15.3L56.0,14.6L56.6,13.5L57.8,11.7L59.3,9.7L59.3,9.3L49.9,9.3Z M81.7,9.0L70.6,9.0L69.9,9.1L69.4,9.3L68.8,9.9L67.4,11.4L65.2,14.6L63.9,17.0L63.8,17.4L63.5,17.8L63.4,18.4L63.2,18.5L62.4,20.6L61.5,23.9L61.2,26.5L61.2,29.6L61.6,33.1L62.5,36.2L63.4,38.3L64.6,40.5L67.9,45.8L68.0,46.4L67.7,46.6L66.6,46.7L59.5,46.7L58.9,47.1L57.6,48.4L55.3,51.5L55.1,52.0L54.4,53.0L53.2,55.5L52.6,57.5L52.3,58.0L52.3,58.4L51.9,59.8L51.5,64.2L51.5,66.5L51.8,67.5L51.9,69.0L52.8,72.2L53.7,74.4L55.3,77.3L56.5,79.0L58.2,81.1L59.2,82.1L59.7,82.4L70.7,82.5L81.1,82.4L81.9,81.7L82.3,81.0L82.6,80.7L85.4,76.1L86.2,74.6L87.5,71.2L88.3,68.0L88.5,65.8L88.5,62.5L88.4,61.7L88.4,60.8L87.6,57.2L87.3,56.7L86.7,54.9L84.6,51.2L83.6,49.7L82.9,48.5L82.3,47.9L82.1,47.5L81.9,47.3L81.8,47.0L80.3,45.0L77.8,41.0L76.1,37.4L75.6,36.0L75.4,35.7L74.9,34.0L74.4,30.9L74.4,27.1L74.6,26.0L74.6,25.1L75.1,22.4L75.6,20.5L76.0,19.6L76.0,19.3L76.2,19.1L77.4,16.1L77.7,15.4L78.0,15.1L78.2,14.6L79.4,12.7L81.8,9.6L81.9,9.3Z M70.1,49.1L70.8,50.1L72.7,53.6L73.0,54.5L73.4,55.1L73.5,55.7L74.2,57.5L75.0,60.8L75.3,65.2L75.1,67.3L74.8,69.0L74.7,69.2L74.6,69.8L73.8,72.3L73.2,73.6L73.0,74.4L70.9,78.3L70.2,79.4L70.0,79.7L69.6,79.8L68.5,78.4L67.5,76.6L65.8,72.8L65.6,72.0L65.3,71.5L64.5,67.6L64.4,62.0L65.2,58.1L65.5,57.2L65.6,56.6L65.9,56.1L66.1,55.4L66.7,54.2L66.9,53.5L69.0,50.0L69.7,49.1Z" fill="#000" fill-rule="evenodd"/>
</svg>