<svg xmlns="http://www.w3.org/2000/svg" viewBox="0 0 128 128" width="128" height="128">
  <path d="M46.5,65.2L46.6,65.9L47.0,66.7L49.9,70.5L51.8,73.6L55.2,78.1L56.0,79.4L57.7,81.5L57.9,82.1L58.7,83.0L59.7,84.6L60.6,85.7L61.6,87.3L62.5,88.4L64.4,90.9L64.5,91.4L65.5,92.5L66.3,93.8L67.6,95.6L68.9,97.6L70.1,99.1L71.5,101.4L72.7,102.9L73.3,103.9L76.8,108.6L78.0,110.5L80.5,113.9L82.2,116.5L83.3,117.8L83.7,118.4L84.2,119.0L84.5,119.0L84.7,118.8L84.8,116.9L84.8,101.2L84.9,95.4L84.9,65.6L84.5,65.3L67.1,65.3L47.3,65.0Z M31.4,65.3L27.0,66.6L25.4,67.4L25.1,67.7L23.6,68.4L21.6,69.8L19.8,71.3L18.1,73.0L16.4,75.1L14.8,77.6L12.8,82.0L12.0,84.6L11.5,87.3L11.3,88.8L11.3,92.7L11.5,94.6L12.0,97.2L12.7,99.4L13.5,101.5L14.9,104.3L16.0,105.9L18.2,108.5L19.6,109.9L23.0,112.5L24.5,113.4L28.0,115.1L31.6,116.0L36.4,116.6L43.5,116.9L43.8,116.6L43.9,112.6L43.9,79.0L44.2,70.0L44.1,65.5L43.5,64.8L41.7,64.7L40.9,64.5L36.1,64.6Z M84.5,10.6L84.1,10.9L84.0,12.8L84.0,61.9L84.2,62.3L85.4,62.5L90.8,62.5L95.7,62.0L98.4,61.3L99.2,61.2L101.5,60.4L104.4,58.9L107.2,57.1L111.0,53.5L112.7,51.2L113.0,50.6L113.7,49.6L115.2,46.5L115.9,44.7L116.0,44.0L116.3,43.1L116.9,40.0L117.1,34.3L116.9,32.3L116.5,31.1L116.4,30.2L115.9,28.9L115.8,28.2L115.3,26.8L114.4,24.7L114.1,24.3L113.2,22.6L112.2,21.3L111.9,20.7L110.4,18.9L107.7,16.4L104.8,14.3L104.3,14.1L103.0,13.3L100.7,12.3L97.0,11.2L94.7,10.9L93.3,10.9L92.6,10.7Z M13.2,60.6L13.6,61.0L13.9,61.1L15.4,60.9L18.7,60.9L21.6,61.1L34.9,61.3L38.1,61.5L43.2,61.4L43.9,60.6L45.7,57.7L46.9,56.3L47.7,55.1L51.8,49.6L52.5,48.5L54.8,45.5L55.8,44.0L56.7,43.1L59.0,39.6L62.9,34.4L63.5,33.3L64.9,31.7L66.3,29.6L69.5,25.4L72.4,21.2L74.1,19.2L74.4,18.5L75.1,17.8L75.6,16.9L78.4,13.3L79.0,12.3L79.9,11.2L80.1,10.6L79.6,10.3L78.8,10.2L75.2,10.2L69.0,9.9L56.1,9.9L54.9,9.7L52.5,9.6L45.0,9.6L41.1,9.4L15.5,9.4L14.3,9.2L13.8,9.7L13.7,10.0L13.6,21.6L13.4,26.3L13.4,47.6L13.2,50.8L13.1,58.6Z" fill="#000" fill-rule="evenodd"/>
</svg>