<svg xmlns="http://www.w3.org/2000/svg" viewBox="0 0 128 128" width="128" height="128">
  <path d="M81.7,30.8L81.5,31.0L81.4,31.6L81.4,33.8L81.6,34.8L81.6,37.5L82.3,37.8L86.9,37.8L88.0,37.6L88.3,37.3L88.4,37.0L88.3,31.9L88.2,31.0L87.8,30.8L87.2,30.6L82.6,30.6Z M32.7,14.1L30.3,15.6L27.1,18.4L24.3,21.4L24.2,21.8L23.7,22.2L22.5,24.1L22.3,24.6L21.5,26.0L21.3,26.5L21.0,27.0L20.5,28.4L20.1,29.1L19.8,30.3L19.6,30.7L19.1,32.5L19.1,33.0L18.7,34.5L18.4,37.0L18.4,42.0L18.5,43.1L18.8,44.4L18.8,45.2L20.6,50.7L23.0,55.2L24.2,57.0L24.9,57.6L26.3,59.4L29.0,61.9L29.2,62.0L30.8,63.3L33.1,64.8L35.4,65.9L38.8,67.3L40.0,67.4L40.9,67.8L43.3,68.3L46.1,68.5L51.1,68.5L51.8,68.7L52.2,69.1L52.4,70.9L52.3,72.9L52.4,74.2L52.4,77.1L52.6,82.0L52.5,87.2L52.7,88.3L52.7,91.5L53.3,95.9L53.6,96.8L53.9,98.5L55.3,102.1L55.9,103.5L57.7,106.6L61.1,110.7L64.0,113.3L65.6,114.5L67.2,115.3L67.5,115.6L70.7,117.1L72.1,117.6L72.5,117.8L76.6,118.8L77.9,118.8L78.5,119.0L80.1,119.0L81.2,119.2L84.7,118.9L85.9,118.7L86.6,118.5L88.2,118.3L88.6,118.1L89.5,117.9L92.8,116.6L93.5,116.2L94.1,116.1L95.2,115.2L96.6,114.6L98.2,113.5L99.6,112.2L100.1,112.0L103.0,109.1L103.1,108.8L104.4,107.2L106.0,104.7L107.2,102.5L107.9,100.5L108.3,99.7L109.3,96.3L109.9,91.4L109.9,88.8L109.8,86.4L109.6,86.0L109.4,84.7L109.1,83.6L109.1,82.9L108.8,81.9L107.8,78.9L106.5,76.1L105.6,74.7L105.4,74.2L104.9,73.6L104.2,72.3L101.8,69.6L99.8,67.7L96.0,64.9L93.3,63.4L91.3,62.7L91.0,62.4L89.4,61.9L89.1,61.9L88.2,61.5L85.9,61.2L85.2,60.9L84.2,60.9L82.7,60.7L71.7,60.7L66.7,61.0L60.5,61.1L59.7,60.9L59.4,60.5L59.3,59.9L59.3,53.3L59.1,50.0L59.0,40.3L59.0,39.7L58.4,39.3L52.5,39.5L52.0,39.9L52.0,53.3L52.2,59.5L52.1,60.6L51.8,61.0L50.5,61.3L45.7,61.3L42.0,60.7L41.5,60.5L40.5,60.3L39.8,60.0L39.1,59.8L38.2,59.2L35.9,58.2L33.2,56.2L32.0,54.9L30.8,53.8L29.7,52.6L28.5,50.5L28.3,50.0L27.9,49.5L27.1,47.8L26.8,46.9L26.6,46.6L25.7,42.6L25.5,41.0L25.5,37.9L25.8,35.0L26.2,34.0L26.5,32.4L26.8,31.8L27.4,30.0L28.7,27.5L30.8,24.8L33.3,22.4L34.8,21.1L36.6,20.1L39.7,18.7L42.6,17.8L43.8,17.7L44.3,17.5L46.1,17.3L57.7,17.1L58.3,16.9L58.4,11.5L58.1,10.5L58.0,10.2L57.6,10.0L46.3,10.1L44.7,10.3L42.8,10.7L41.9,10.7L40.1,11.1L35.9,12.5Z M60.0,68.4L62.0,68.2L67.4,68.2L75.9,67.8L83.1,67.8L85.6,68.2L87.6,68.8L88.2,68.9L89.7,69.6L90.8,69.9L94.4,72.3L95.2,72.9L97.6,75.3L99.1,77.1L99.3,77.7L99.8,78.2L101.7,82.0L101.7,82.4L102.4,84.5L102.8,86.8L103.0,88.3L103.0,92.2L102.5,94.0L102.4,95.1L101.9,96.9L100.2,100.9L99.8,101.4L99.2,102.5L97.5,104.6L95.8,106.2L93.6,108.1L93.1,108.2L91.9,109.1L88.1,110.8L86.3,111.3L85.2,111.5L84.3,111.8L79.2,111.9L76.2,111.4L75.2,111.0L74.5,110.9L73.1,110.4L70.5,109.1L68.7,108.0L67.7,107.1L67.5,107.0L65.5,105.1L64.1,103.2L63.5,102.6L62.4,100.6L62.1,100.0L61.8,99.5L60.8,97.0L60.0,94.0L59.6,90.1L59.5,74.2L59.4,73.4L59.4,70.7L59.5,69.9L59.5,69.1Z M108.0,9.3L103.6,9.3L100.8,9.4L98.8,9.3L94.1,9.5L85.5,9.5L84.5,9.7L82.6,9.6L69.6,9.8L67.3,9.8L66.2,9.9L60.7,9.9L60.2,10.3L60.1,13.6L60.2,15.4L60.4,16.2L60.3,18.7L60.8,40.9L60.7,43.6L60.9,50.4L60.9,57.7L61.0,59.1L61.3,59.3L63.5,59.5L64.8,59.3L71.6,59.3L77.6,59.1L97.6,58.7L99.8,58.6L102.5,58.7L104.4,58.5L108.3,58.5L108.8,58.4L109.3,58.0L109.4,54.7L109.2,47.6L109.3,44.7L109.0,39.2L109.1,36.2L108.9,33.3L108.9,27.7L108.8,25.4L108.8,20.8L108.5,15.4L108.6,13.7L108.3,9.7Z M101.1,16.6L101.6,17.1L101.7,17.7L101.7,21.7L101.8,23.2L101.8,27.0L102.0,28.7L101.9,30.3L102.1,32.5L102.3,50.4L102.2,50.8L101.7,51.4L101.0,51.6L84.7,51.7L77.6,52.0L69.2,52.1L68.5,51.8L68.0,51.2L68.0,45.5L67.8,44.2L67.8,36.3L67.6,34.6L67.5,24.5L67.4,21.1L67.4,18.0L67.5,17.4L68.0,17.0L70.1,16.9L72.4,16.9L73.7,16.8L77.3,16.9L83.7,16.6L87.2,16.7L90.9,16.5L93.8,16.6L99.2,16.4Z" fill="#000" fill-rule="evenodd"/>
</svg>