<svg xmlns="http://www.w3.org/2000/svg" viewBox="0 0 128 128" width="128" height="128">
  <path d="M63.9,10.6L60.0,10.6L58.8,10.8L57.8,11.5L57.7,12.3L58.3,12.8L61.9,12.6L64.7,13.1L66.5,14.1L68.5,15.9L68.5,16.2L69.5,18.4L69.5,18.9L69.8,19.4L69.8,21.5L69.0,25.4L68.4,26.6L68.0,28.4L67.4,29.4L67.2,30.2L66.7,31.2L66.1,32.0L65.4,33.7L64.6,34.5L63.9,34.8L63.8,35.1L63.9,36.1L63.1,38.1L62.4,38.8L61.1,41.4L60.5,42.0L59.1,44.5L58.0,45.8L56.8,48.0L56.7,48.6L55.2,50.3L55.0,50.8L53.2,53.2L52.6,54.5L51.4,55.9L49.9,58.2L49.6,59.0L47.8,61.6L46.2,63.1L45.5,63.4L41.6,64.1L40.1,64.7L39.1,64.9L37.9,65.6L36.8,65.9L36.0,66.5L33.0,68.2L31.2,69.7L30.7,70.3L29.2,73.1L28.9,74.3L28.9,77.7L29.4,79.4L29.9,80.0L30.0,81.5L30.4,81.7L33.5,81.7L34.5,81.0L34.5,80.5L36.5,78.7L40.2,74.8L41.2,73.3L42.0,72.5L44.2,69.7L44.8,68.4L47.0,66.2L48.1,65.7L49.8,65.7L51.9,66.1L54.7,66.7L55.4,67.0L56.2,67.0L57.0,67.4L59.6,67.9L61.9,68.0L65.7,68.9L74.8,69.3L76.7,69.7L78.7,69.7L80.7,69.3L81.8,69.3L82.5,69.8L82.5,70.5L82.0,71.5L81.2,72.5L80.9,73.5L80.2,74.6L79.5,75.3L79.0,76.3L79.0,76.6L78.2,77.7L78.2,78.1L77.4,79.4L77.4,79.7L77.1,80.2L75.9,81.2L75.8,81.5L75.8,82.3L75.3,83.8L74.9,84.1L74.4,85.3L73.6,86.3L73.5,86.9L72.6,87.9L72.5,88.7L72.1,88.9L71.5,90.4L71.2,90.7L69.7,93.7L69.3,94.0L69.0,95.0L68.4,95.8L68.0,96.8L67.4,97.6L67.2,98.3L66.7,98.9L66.7,99.3L66.2,99.8L64.9,102.4L64.9,102.7L63.1,105.5L62.6,106.7L62.1,107.2L62.1,107.5L61.5,108.3L61.3,109.0L61.0,109.3L60.3,110.6L59.1,111.9L58.7,112.9L56.8,115.4L56.4,116.7L56.5,117.5L57.3,117.4L60.0,113.9L61.3,111.4L61.9,110.6L62.3,109.6L62.8,109.1L63.1,108.3L63.9,107.3L63.9,107.0L65.2,105.2L65.6,104.4L66.7,102.7L66.7,102.4L67.4,101.7L67.7,100.8L68.4,99.9L68.7,98.8L69.0,98.4L69.8,96.6L70.3,96.1L70.5,95.5L71.2,94.8L71.3,94.2L73.1,90.9L74.9,88.4L75.3,87.6L76.1,86.6L76.9,85.0L77.4,84.5L77.9,83.2L79.4,81.5L80.0,79.0L81.0,77.7L81.3,76.9L82.2,76.1L83.0,74.3L84.8,71.5L85.5,70.8L86.1,69.5L87.4,68.4L88.6,68.0L89.9,67.4L91.1,67.2L92.9,66.5L97.8,63.4L99.1,61.8L99.6,60.3L99.4,58.0L98.3,56.5L97.1,55.9L96.5,55.7L94.3,56.2L92.9,57.2L90.4,59.5L89.2,61.1L87.9,62.4L87.8,62.9L86.8,63.9L86.4,64.6L85.5,65.7L84.0,66.7L83.7,66.7L83.2,67.0L79.9,67.7L75.6,67.7L72.1,67.2L67.9,67.0L65.2,66.4L62.4,66.2L60.1,65.6L57.7,65.4L55.0,64.6L52.6,64.2L51.9,63.9L50.1,63.8L49.4,63.3L49.6,62.3L52.1,59.0L52.4,58.2L53.7,56.4L54.2,55.4L56.4,52.7L56.7,51.9L58.3,49.8L58.8,48.6L59.3,48.1L59.5,47.6L61.1,45.3L61.3,44.7L61.9,43.9L62.4,42.7L63.8,40.7L64.9,38.4L65.9,37.3L66.5,36.0L67.9,35.0L67.7,33.3L68.7,31.7L68.7,31.4L69.5,29.9L69.5,29.6L70.0,28.7L70.5,27.2L70.5,26.6L71.0,25.4L71.6,22.5L71.6,17.9L71.2,16.1L70.3,14.4L68.4,12.3L66.4,11.3Z M43.4,66.2L43.7,66.5L43.5,67.5L40.9,70.7L38.9,73.5L34.3,77.9L33.0,78.4L32.2,78.4L31.9,78.2L31.2,77.2L31.0,74.9L31.2,74.1L31.5,73.8L32.2,72.0L34.2,70.0L34.6,69.8L36.5,68.5L40.1,66.7L42.2,66.2Z M97.8,58.8L98.0,59.3L97.8,60.5L97.0,61.6L95.7,62.8L93.5,63.9L93.0,64.4L92.5,64.4L91.2,65.2L90.6,65.4L89.7,65.2L89.6,64.6L90.1,64.1L90.6,63.1L94.5,59.0L95.2,58.5L96.1,58.2L97.0,58.2Z" fill="#000" fill-rule="evenodd"/>
</svg>