<svg xmlns="http://www.w3.org/2000/svg" viewBox="0 0 128 128" width="128" height="128">
  <path d="M22.1,9.1L21.8,9.5L21.8,13.6L21.8,14.0L22.2,14.4L26.4,17.0L28.6,18.5L28.9,18.5L31.7,20.5L32.3,20.8L32.4,20.9L34.9,22.5L35.5,23.0L37.1,23.9L38.4,25.0L40.5,26.3L41.1,26.8L41.3,26.8L42.4,27.6L43.6,28.1L46.3,30.0L46.5,30.0L50.6,32.5L51.9,33.5L52.4,33.6L55.6,35.7L56.9,36.5L60.1,38.7L62.7,40.2L64.3,41.3L65.4,41.9L67.6,43.4L68.0,43.6L69.1,44.4L69.4,44.5L70.0,45.0L73.1,46.8L75.6,48.4L75.9,48.8L77.6,49.7L78.5,50.4L82.1,52.6L82.5,53.0L83.6,53.6L86.4,55.5L87.4,56.1L90.9,58.5L91.4,58.7L92.4,59.5L93.6,60.2L94.2,60.6L94.3,60.6L96.5,62.3L96.5,62.4L96.0,62.7L94.5,62.8L90.4,62.8L82.2,63.0L67.4,63.0L62.2,63.2L54.0,63.1L53.4,62.5L53.0,58.3L52.5,56.8L52.4,56.0L52.1,55.1L51.8,53.6L50.4,49.6L49.5,47.4L48.1,44.9L47.3,43.7L46.5,42.3L44.2,39.5L43.1,38.3L42.6,37.6L40.5,35.6L37.7,33.3L37.3,32.9L36.8,32.5L36.0,32.2L34.6,31.1L32.4,29.9L31.6,29.5L30.5,28.9L28.7,28.3L28.4,28.1L27.3,27.8L27.0,27.6L26.2,27.4L25.5,27.1L23.3,26.6L21.8,26.7L21.6,27.0L21.5,27.5L21.5,29.3L21.7,29.6L22.8,30.0L23.9,30.2L24.9,30.5L25.5,30.9L27.2,31.2L28.0,31.7L29.3,32.2L30.1,32.7L32.2,33.7L36.0,36.2L38.7,38.4L41.0,40.8L41.6,41.6L42.4,42.4L43.8,44.3L44.2,45.1L44.6,45.7L45.1,46.7L45.7,47.4L46.8,49.6L48.1,52.7L48.7,54.3L49.2,56.9L49.5,57.8L49.6,58.6L49.8,59.4L50.0,61.6L50.0,62.6L49.9,63.0L49.4,63.2L48.9,63.3L39.0,63.3L32.2,63.4L24.2,63.3L22.1,63.3L21.6,63.7L21.8,67.1L22.1,67.4L22.6,67.4L26.4,67.4L28.0,67.3L31.4,67.2L35.5,67.3L49.2,67.1L49.5,67.1L49.9,67.5L49.8,70.1L49.3,72.3L49.2,73.2L48.4,75.8L47.6,77.8L47.4,78.5L46.1,81.3L44.3,84.4L43.2,85.8L43.0,86.3L42.4,86.8L41.4,88.2L39.7,90.1L39.1,90.5L37.8,91.8L37.1,92.2L36.2,93.0L33.5,95.0L33.1,95.1L30.6,96.8L29.0,97.4L28.7,97.6L27.3,98.1L26.5,98.5L26.2,98.5L25.7,98.8L22.8,99.6L22.4,100.2L22.3,100.8L22.4,102.2L22.5,102.6L22.8,102.8L23.2,102.8L23.5,102.6L24.9,102.4L25.5,102.1L26.2,102.0L26.9,101.6L29.3,100.9L29.9,100.5L31.0,100.1L32.1,99.4L32.8,99.2L33.9,98.4L35.3,97.7L35.7,97.3L36.6,96.8L37.3,96.1L37.9,95.8L41.2,93.0L43.1,91.2L44.2,89.9L46.6,86.8L46.7,86.4L47.8,84.8L50.0,80.5L51.0,78.0L51.4,76.6L51.7,76.1L52.1,74.6L52.5,72.4L53.0,70.8L53.3,67.9L53.5,67.5L53.9,67.1L58.8,67.0L69.6,67.1L77.8,66.8L81.1,66.9L92.1,66.8L95.2,66.9L95.7,67.2L95.7,67.4L95.3,67.8L93.7,68.8L92.6,69.7L92.1,69.9L90.0,71.3L88.4,72.3L88.0,72.6L87.3,73.0L86.7,73.5L84.9,74.6L82.6,76.1L81.4,76.8L80.0,77.8L74.2,81.4L73.2,82.2L72.1,82.7L70.5,83.9L69.0,84.7L68.5,85.2L67.6,85.6L67.1,86.1L62.1,89.2L60.9,90.1L59.6,90.8L58.1,91.9L56.3,92.9L54.2,94.4L51.1,96.3L50.0,97.1L49.0,97.7L48.4,97.9L47.6,98.6L47.0,98.8L46.2,99.5L45.9,99.5L44.8,100.4L44.2,100.7L43.8,101.1L42.8,101.6L41.3,102.7L40.6,103.0L39.2,104.0L37.2,105.2L36.2,106.0L35.5,106.3L35.1,106.7L33.7,107.5L32.8,108.1L29.5,110.1L27.6,111.6L26.9,111.8L24.9,113.2L22.8,114.4L22.4,114.8L22.3,115.5L22.3,118.7L22.6,119.1L23.0,119.2L23.5,118.9L25.2,117.7L27.1,116.5L30.7,114.0L31.0,114.0L31.7,113.3L34.0,111.9L36.4,110.2L37.6,109.5L38.0,109.4L39.2,108.5L42.6,106.4L43.6,105.6L44.5,105.1L45.4,104.4L47.3,103.3L48.7,102.3L50.0,101.6L51.1,100.8L51.8,100.4L52.8,99.6L54.4,98.7L54.8,98.3L55.2,98.1L59.0,95.7L59.3,95.4L63.4,92.9L64.4,92.1L67.1,90.6L68.5,89.5L69.7,88.9L71.0,87.9L71.5,87.7L73.8,86.1L75.7,85.0L76.3,84.5L79.3,82.7L80.0,82.1L80.7,81.8L83.8,79.6L84.4,79.4L85.9,78.4L86.2,78.3L87.7,77.1L90.0,75.8L93.7,73.3L99.4,69.7L101.0,68.5L101.3,68.5L104.5,66.4L105.2,66.0L105.6,65.6L106.5,65.1L106.8,64.7L106.8,64.4L106.2,63.9L104.3,62.5L103.6,62.2L102.9,61.6L101.1,60.6L99.4,59.3L96.9,57.9L93.1,55.2L91.6,54.5L90.9,53.9L81.6,47.9L81.0,47.4L80.5,47.2L80.0,46.8L79.5,46.6L77.6,45.2L76.2,44.4L74.1,43.0L73.2,42.5L72.4,41.9L72.1,41.8L71.7,41.4L70.7,40.9L68.4,39.3L61.9,35.3L59.3,33.5L59.0,33.4L56.9,31.9L55.2,30.8L54.5,30.5L54.2,30.2L51.1,28.3L48.8,26.7L48.0,26.3L47.2,25.6L46.6,25.4L43.8,23.3L42.3,22.5L41.9,22.1L39.4,20.6L38.8,20.1L38.3,19.9L36.2,18.4L36.0,18.4L35.7,18.1L32.3,15.9L31.4,15.2L29.7,14.1L28.3,13.1L26.0,11.7L22.7,9.2Z" fill="#000" fill-rule="evenodd"/>
</svg>