<svg xmlns="http://www.w3.org/2000/svg" viewBox="0 0 128 128" width="128" height="128">
  <path d="M87.5,9.2L86.7,9.3L86.0,9.9L85.3,10.1L81.4,12.5L80.5,12.9L80.1,13.3L77.7,14.5L77.1,15.0L75.8,15.6L70.5,18.8L69.1,19.4L66.7,21.0L66.0,21.3L64.2,22.4L62.8,23.1L62.3,23.5L59.6,24.9L58.0,26.0L56.6,26.6L55.6,27.3L54.4,27.9L53.6,28.6L53.5,33.5L53.9,34.1L55.5,34.5L56.7,34.7L58.0,35.1L59.2,35.3L59.7,35.5L60.5,35.6L61.1,35.8L64.0,36.4L64.5,36.6L64.8,37.0L64.8,37.6L64.4,38.2L64.4,38.4L63.5,40.4L63.2,40.8L61.7,43.7L61.6,44.1L60.8,45.1L60.0,46.7L59.0,48.0L58.7,48.6L58.5,48.8L58.2,49.4L55.9,52.3L55.6,52.8L54.7,53.8L54.4,54.4L52.3,56.6L51.7,57.4L48.1,61.0L47.6,61.3L45.0,63.8L41.1,66.9L39.9,67.6L38.8,68.5L37.8,68.9L37.1,69.6L36.0,70.1L35.4,70.6L28.8,74.0L25.2,75.5L24.8,75.7L24.3,76.3L24.2,81.1L24.3,81.5L25.1,82.2L30.0,84.1L30.7,84.6L31.3,84.7L31.7,85.0L32.6,85.2L34.1,86.0L37.0,87.2L37.7,87.4L39.0,88.1L40.1,88.4L42.2,89.4L42.8,89.6L44.1,90.2L45.1,90.5L46.2,91.2L47.0,91.4L48.5,92.2L49.1,92.3L49.6,92.2L51.9,90.9L55.1,88.7L55.9,88.7L55.9,107.5L56.0,107.9L57.0,108.7L59.1,109.7L59.5,110.0L61.8,111.1L63.2,112.0L67.0,113.9L67.4,114.3L68.2,114.7L69.6,115.3L70.8,116.1L72.5,116.8L72.9,117.2L74.4,117.9L75.1,118.5L76.3,119.0L76.8,119.0L77.1,118.9L78.0,118.0L78.8,117.4L79.3,116.8L81.7,114.8L82.2,114.0L82.2,61.2L82.3,60.8L85.1,56.2L87.3,51.9L87.6,51.1L88.7,48.9L89.0,48.1L89.8,46.6L91.1,43.2L91.4,43.0L92.5,43.1L93.7,43.5L95.3,43.8L97.6,44.5L101.0,45.1L103.3,45.8L103.9,45.6L104.1,45.2L103.9,40.2L100.7,33.7L100.1,32.9L99.6,31.7L99.2,31.1L98.6,29.7L98.4,29.4L97.8,28.2L96.6,26.2L96.3,25.6L94.1,21.7L93.5,20.2L92.9,19.4L92.7,18.7L92.1,17.8L91.4,16.2L91.1,15.9L90.5,14.5L89.9,13.5L89.5,12.6L88.9,11.7L87.9,9.7Z M76.4,69.5L76.6,69.7L76.5,75.2L76.7,80.4L76.7,116.7L76.5,116.9L75.8,117.0L71.9,115.0L70.9,114.3L69.6,113.8L69.4,113.5L67.1,112.4L66.3,111.8L64.4,110.9L60.9,108.9L59.4,108.3L58.1,107.5L57.6,107.0L57.5,105.4L57.6,98.8L57.5,94.4L57.5,88.1L57.6,87.1L58.0,86.7L59.3,85.8L61.5,84.1L62.7,82.9L63.7,82.2L67.6,78.6L69.5,76.7L71.3,75.0L73.1,73.0L73.6,72.3L75.5,70.3L75.6,70.0L76.0,69.6Z M86.9,11.3L88.5,14.4L89.0,15.1L89.5,16.3L90.3,17.5L90.7,18.5L91.6,19.8L92.2,21.3L93.6,23.6L93.9,24.4L94.2,24.8L94.5,25.7L95.0,26.3L95.5,27.6L95.8,28.0L96.5,29.4L96.9,30.0L97.0,30.4L97.6,31.4L98.0,32.4L98.3,32.6L99.0,34.2L99.5,34.9L101.2,38.2L101.5,38.6L101.6,39.1L101.3,39.3L98.6,38.7L97.9,38.6L97.0,38.3L95.6,38.1L91.6,37.1L89.9,36.8L88.9,36.4L88.1,36.4L87.5,37.0L86.8,39.5L86.1,41.1L85.9,41.9L85.5,42.6L85.0,44.2L81.8,50.9L79.8,54.3L78.6,56.6L78.1,57.2L77.9,57.8L76.8,59.4L75.9,60.6L75.2,61.7L73.3,64.2L73.1,64.6L72.6,65.1L71.8,66.3L67.8,70.9L62.1,76.5L57.2,80.7L56.2,81.3L55.1,82.4L53.5,83.3L52.8,83.9L51.6,84.6L49.8,86.0L49.4,86.2L48.6,86.2L46.8,85.4L45.4,84.9L44.8,84.5L43.4,84.0L42.9,83.7L42.4,83.6L38.2,81.6L37.2,81.3L36.4,80.8L33.4,79.7L32.6,79.3L30.9,78.6L30.5,78.3L28.9,77.8L27.5,77.0L27.1,76.9L26.9,76.6L27.1,76.4L27.5,76.3L28.7,75.7L30.1,75.1L32.9,73.7L33.3,73.4L34.6,72.8L36.3,71.7L36.9,71.4L37.9,70.7L39.1,70.1L39.7,69.6L41.4,68.5L45.3,65.5L45.8,65.0L46.6,64.5L50.4,60.9L53.6,57.6L53.8,57.1L54.6,56.5L56.0,54.8L59.6,50.0L61.4,47.2L61.9,46.3L62.3,45.8L62.8,44.6L63.1,44.3L64.0,42.6L64.7,41.0L65.3,40.0L65.6,39.1L66.0,38.4L66.4,37.2L67.0,35.9L67.3,34.9L67.9,33.3L68.2,32.0L67.4,31.6L66.2,31.4L65.3,31.1L62.5,30.5L61.9,30.3L58.4,29.6L57.9,29.4L56.9,29.2L56.4,28.9L56.4,28.6L57.8,27.8L58.9,27.0L61.8,25.5L62.5,24.9L63.2,24.7L66.1,22.8L66.4,22.7L68.3,21.5L69.9,20.7L71.0,20.0L71.8,19.7L72.1,19.4L76.3,17.1L76.7,16.7L77.1,16.6L78.7,15.5L79.3,15.3L80.5,14.5L81.5,14.0L82.2,13.4L82.6,13.3L85.9,11.4L86.4,11.2Z" fill="#000" fill-rule="evenodd"/>
</svg>