<svg xmlns="http://www.w3.org/2000/svg" viewBox="0 0 128 128" width="128" height="128">
  <path d="M35.4,9.2L33.2,10.5L30.9,12.0L30.4,12.2L29.2,13.0L28.7,13.2L27.7,13.9L27.2,14.1L26.2,14.9L23.1,16.5L21.6,17.6L20.9,17.9L18.7,19.3L18.1,19.6L17.3,20.2L15.5,21.2L11.4,23.8L11.3,24.1L15.1,24.4L21.5,24.4L22.2,24.5L23.1,25.2L23.1,34.6L23.2,42.4L23.2,43.8L23.3,48.5L23.2,54.1L23.4,60.1L24.0,62.7L25.4,65.6L27.4,68.0L29.0,69.3L29.6,69.5L29.8,69.8L31.8,70.7L34.0,71.3L37.7,71.6L42.0,71.6L48.6,71.9L55.8,72.1L57.0,72.2L59.2,72.2L59.5,72.4L59.5,72.6L59.2,73.0L57.8,73.9L56.7,74.4L53.5,76.4L50.0,78.2L49.5,78.6L48.1,79.3L45.0,81.2L44.0,81.6L42.9,82.4L40.6,83.4L40.3,83.8L37.2,85.4L36.4,85.4L35.8,84.9L35.1,83.6L34.3,82.4L33.3,80.3L32.2,78.7L30.9,76.2L30.8,76.0L30.3,76.0L30.2,76.7L30.4,86.2L30.5,102.9L30.6,103.7L30.8,104.2L33.2,105.6L34.3,106.4L34.6,106.5L35.0,106.8L37.7,108.4L38.0,108.8L40.1,110.1L40.6,110.3L42.5,111.5L43.1,111.8L44.7,113.0L45.7,113.5L46.2,114.0L48.3,115.2L48.9,115.7L50.9,116.9L54.0,119.0L54.5,119.0L54.5,118.3L54.1,118.0L53.7,116.9L53.1,116.1L52.9,115.5L52.3,114.6L52.0,113.9L51.4,113.1L49.7,109.7L49.7,108.9L49.8,108.7L52.1,107.2L54.6,106.1L55.6,105.4L56.3,105.1L56.6,104.9L59.6,103.4L66.7,99.5L67.5,99.2L70.4,97.5L70.8,97.4L71.1,97.1L73.3,96.0L73.7,95.7L74.3,95.5L75.4,94.8L75.8,94.7L76.4,94.2L77.0,94.1L78.0,93.4L78.7,93.2L80.3,92.2L82.1,90.5L83.9,88.3L85.1,85.3L85.5,82.6L85.5,80.9L85.3,79.1L84.3,76.4L80.1,69.0L79.9,68.8L78.7,66.3L76.3,62.5L75.6,61.1L74.1,58.6L73.7,57.5L73.1,56.8L72.6,55.6L71.9,54.6L72.0,54.2L72.4,54.1L73.4,54.5L74.3,55.2L74.9,55.4L75.2,55.8L75.6,55.9L78.8,57.7L79.4,58.1L79.7,58.2L80.9,59.1L81.9,59.6L82.2,59.9L86.0,62.0L87.0,62.8L88.2,63.4L90.9,65.1L93.9,66.7L95.6,68.1L95.6,68.6L95.0,69.5L94.8,70.0L89.7,78.4L89.8,78.6L90.4,78.6L90.7,78.4L91.0,78.3L91.4,78.0L91.9,77.8L92.2,77.5L97.2,74.8L97.2,74.7L98.8,73.9L101.5,72.3L102.4,72.0L103.7,71.1L108.9,68.4L109.6,67.9L110.1,67.8L110.4,67.4L111.6,66.9L112.8,66.1L113.3,66.0L114.4,65.2L115.8,64.5L116.4,64.0L116.5,57.3L116.6,54.5L116.6,52.1L116.7,50.2L116.8,39.8L117.0,37.8L116.9,33.9L116.5,33.9L116.3,34.1L116.1,34.6L115.4,35.6L115.1,36.2L110.3,44.0L109.9,44.4L109.4,44.4L108.0,43.7L105.1,41.9L104.4,41.6L100.5,39.2L98.8,38.2L97.2,37.1L96.7,37.0L95.7,36.3L95.0,36.0L91.5,33.8L91.2,33.7L90.1,32.9L84.8,29.9L83.0,28.7L82.4,28.4L82.1,28.1L81.7,28.0L80.7,27.3L80.0,27.0L79.8,26.7L77.9,25.7L76.6,25.4L75.8,25.1L73.5,24.7L71.9,24.7L69.1,25.2L67.4,25.9L65.9,26.7L64.5,27.8L62.7,29.6L60.7,32.7L59.4,35.2L58.4,36.5L57.6,38.2L56.5,39.9L55.0,42.8L53.6,44.9L51.5,48.7L50.8,49.6L50.1,51.0L49.2,51.9L48.9,51.6L48.8,48.0L49.1,25.5L49.5,24.9L49.9,24.8L61.0,24.8L61.1,24.7L61.2,24.4L57.1,21.8L56.2,21.3L51.7,18.6L51.0,18.3L50.7,18.0L50.3,17.9L48.8,16.9L48.3,16.7L45.9,15.1L45.3,14.9L43.4,13.7L42.9,13.5L41.2,12.3L39.0,11.2L36.6,9.5L36.1,9.3Z M57.5,48.3L59.1,48.1L60.5,48.1L62.4,48.3L63.7,48.8L64.3,49.1L64.5,49.1L66.3,50.0L67.0,50.6L68.7,52.3L69.2,53.0L70.2,54.8L70.9,56.5L71.3,58.8L71.3,61.4L70.8,63.2L69.7,65.6L68.8,66.9L67.5,68.3L66.4,69.0L64.6,70.0L62.8,70.6L60.8,70.9L58.9,70.9L57.0,70.4L55.3,69.7L54.0,68.9L52.4,67.8L50.9,66.1L49.9,64.3L49.0,61.6L48.8,60.2L48.8,58.3L49.0,57.0L49.9,54.3L50.8,52.8L52.9,50.5L53.5,50.1L56.1,48.8Z" fill="#000" fill-rule="evenodd"/>
</svg>