<svg xmlns="http://www.w3.org/2000/svg" viewBox="0 0 128 128" width="128" height="128">
  <path d="M119.2,63.5L118.6,62.7L117.4,61.6L116.7,60.7L88.5,32.5L88.0,32.3L85.2,32.3L80.5,32.5L75.6,32.5L72.7,32.6L67.5,32.6L67.2,32.8L67.2,33.2L86.0,52.0L88.6,54.8L88.7,55.0L89.2,55.5L89.2,55.7L89.0,55.9L87.2,56.0L83.5,56.1L67.6,56.0L66.3,56.2L55.6,56.0L47.1,56.2L30.5,56.2L9.7,56.4L9.3,56.5L9.0,56.9L9.1,72.0L9.2,72.2L9.6,72.5L10.4,72.6L54.8,72.6L54.9,72.7L54.9,73.1L53.9,74.4L47.5,80.9L47.2,81.4L43.2,85.4L40.6,88.2L37.1,91.6L33.5,95.4L33.6,95.7L34.1,95.9L54.6,95.9L55.5,95.1L58.0,92.2L62.2,87.9L66.9,82.9L73.9,75.8L74.6,74.9L77.0,72.6L78.3,72.4L88.3,72.4L88.6,72.7L88.5,73.3L67.3,95.5L67.4,95.8L67.5,95.9L88.5,95.9L88.9,95.7L103.2,80.6L107.3,76.4L109.9,73.6L111.1,72.5L111.5,71.9L113.2,70.3L119.1,64.0Z" fill="#000" fill-rule="evenodd"/>
</svg>