<svg xmlns="http://www.w3.org/2000/svg" viewBox="0 0 128 128" width="128" height="128">
  <path d="M71.2,20.3L71.0,20.4L70.9,20.9L70.9,87.1L71.0,88.9L71.7,92.1L72.9,95.1L74.0,97.0L75.1,98.3L77.0,100.3L79.8,102.1L81.4,102.9L83.4,103.6L85.9,104.1L90.2,104.1L92.8,103.6L95.2,102.7L95.5,102.5L97.1,101.8L98.9,100.4L100.1,99.3L100.8,98.8L100.9,98.5L101.6,97.8L103.1,95.6L103.3,94.9L103.7,94.4L104.7,92.0L105.2,89.3L105.3,85.8L104.7,82.7L104.0,80.9L103.3,79.5L102.4,77.9L101.6,76.9L99.7,75.0L97.3,73.2L95.9,72.4L93.6,71.5L90.4,70.8L87.2,70.7L80.2,70.9L79.8,71.1L79.6,72.0L79.6,80.1L79.8,80.6L80.1,80.9L80.7,81.0L84.7,80.9L86.0,81.2L87.0,81.6L88.1,82.6L89.1,84.1L89.3,84.8L89.4,84.9L89.6,85.9L89.6,88.0L89.4,88.8L88.4,90.9L86.8,92.5L84.7,93.6L83.7,93.7L81.2,93.7L79.1,92.9L77.3,91.3L76.8,90.8L76.1,89.2L75.7,87.4L75.6,66.8L75.8,59.9L75.8,50.1L76.0,49.9L76.5,50.0L80.3,54.2L81.2,54.9L83.6,55.0L93.6,54.8L99.5,54.8L100.7,54.7L100.9,54.5L100.9,54.2L98.4,51.4L98.3,51.2L96.8,49.6L95.3,47.6L94.7,47.1L90.5,41.8L88.4,39.5L85.6,36.1L83.7,34.2L82.5,32.6L81.3,31.4L80.8,30.6L79.8,29.6L73.3,22.1L71.7,20.4Z M57.9,20.2L57.6,20.2L57.0,20.6L56.8,21.1L52.1,26.2L50.5,28.3L37.3,43.3L35.7,45.5L34.4,46.8L27.5,54.7L27.6,55.2L28.6,55.4L39.1,55.3L40.8,55.1L47.5,55.0L48.2,54.8L52.4,50.2L53.2,50.2L53.3,50.4L53.4,71.2L53.4,87.9L52.8,90.0L51.9,91.5L50.4,93.0L49.8,93.4L48.5,94.0L47.3,94.4L45.2,94.4L44.4,94.1L43.9,94.1L41.9,93.0L40.9,92.0L39.8,90.5L39.2,88.5L39.2,86.7L39.7,84.7L40.4,83.4L41.4,82.4L42.4,81.8L43.5,81.4L48.9,81.3L49.3,81.0L49.4,71.8L49.2,71.4L48.9,71.1L39.5,71.0L36.5,71.6L33.4,72.7L31.6,73.6L30.6,74.4L30.2,74.6L27.8,76.8L25.6,79.7L24.8,81.2L24.0,83.2L23.7,84.4L23.3,86.7L23.4,90.2L24.0,93.0L25.3,96.0L26.9,98.4L29.9,101.4L32.5,103.1L33.7,103.7L34.8,104.0L35.5,104.3L38.7,104.9L42.4,104.9L43.8,104.7L45.2,104.4L45.4,104.2L46.1,104.1L49.4,102.6L52.0,100.8L53.4,99.6L54.4,98.3L56.2,95.6L57.0,93.7L57.6,92.0L58.2,88.0L58.3,79.4L58.1,75.9L58.2,21.3L58.1,20.4Z M65.1,13.6L64.9,14.5L65.1,28.0L65.0,88.2L65.4,92.6L65.8,94.3L66.0,94.8L66.2,95.9L67.4,99.0L68.7,101.5L69.8,103.1L70.0,103.5L71.5,105.4L74.6,108.4L77.6,110.6L79.5,111.5L83.2,113.0L84.2,113.2L85.0,113.5L86.6,113.7L88.1,114.1L91.6,114.1L94.9,113.7L99.8,112.5L101.6,111.7L102.1,111.6L105.1,110.1L107.4,108.6L109.0,107.3L112.4,103.9L114.2,101.4L115.8,98.7L116.8,96.7L117.4,94.9L117.7,94.4L118.4,91.9L118.5,90.8L118.7,90.1L119.0,87.8L119.0,84.8L118.8,82.6L118.3,79.7L117.7,77.6L117.2,76.8L117.1,75.9L115.8,73.2L115.4,72.7L115.0,71.7L112.8,68.6L111.5,67.1L108.6,64.4L105.6,62.2L103.2,60.9L102.5,60.8L102.1,60.6L99.4,59.8L96.0,59.2L80.2,59.3L79.8,59.5L79.7,60.1L79.8,69.2L80.1,69.5L80.5,69.6L89.0,69.5L91.0,69.5L92.5,69.8L95.8,70.9L97.2,71.6L97.5,71.9L99.4,73.0L100.3,73.7L102.4,75.8L103.4,77.4L103.9,77.8L105.3,80.7L106.0,82.8L106.5,85.6L106.4,89.5L106.0,91.7L105.0,94.5L103.8,96.9L102.3,99.0L101.1,100.3L99.4,101.8L98.9,102.0L97.8,102.9L96.4,103.7L93.5,104.8L91.7,105.3L88.1,105.6L84.8,105.3L82.0,104.6L79.8,103.7L79.3,103.2L77.6,102.4L76.1,101.3L73.9,99.1L72.4,97.1L71.5,95.2L70.3,92.0L69.8,89.3L69.8,75.2L70.0,62.1L70.0,18.6L69.5,17.8L66.1,13.9L65.6,13.5Z M63.9,13.2L63.4,13.4L62.7,14.1L59.9,17.4L59.2,18.4L59.2,18.9L59.1,59.4L59.3,76.5L59.3,89.3L59.1,91.4L58.0,94.9L56.6,97.6L55.1,99.6L52.0,102.5L49.4,104.2L46.5,105.4L44.7,105.8L44.1,106.1L42.4,106.3L38.0,106.2L35.9,105.7L35.5,105.7L32.6,104.7L32.3,104.4L31.0,103.9L30.4,103.3L29.1,102.5L27.7,101.4L26.1,99.6L24.7,97.7L23.6,95.7L22.6,93.0L22.1,90.6L22.0,87.1L22.2,85.4L22.7,83.1L23.4,81.1L24.7,78.7L25.6,77.3L26.9,76.0L27.0,75.6L30.0,73.1L33.0,71.4L36.9,70.2L37.8,70.0L40.2,69.9L48.8,69.9L49.3,69.5L49.4,61.0L49.3,60.0L49.0,59.5L34.2,59.5L32.2,59.7L28.5,60.4L24.9,61.7L21.8,63.6L21.2,64.1L20.3,64.7L17.3,67.4L14.8,70.3L12.9,73.2L11.0,77.2L10.0,80.5L9.4,83.2L9.3,85.1L9.3,89.3L9.9,93.0L10.5,94.9L10.5,95.2L11.3,97.4L12.4,99.8L14.9,103.7L18.8,107.8L21.2,109.8L22.8,110.8L23.5,111.1L24.8,111.9L27.3,113.0L30.3,114.0L31.5,114.2L32.1,114.4L34.4,114.7L35.0,114.9L37.7,115.0L39.7,115.0L41.6,114.9L45.1,114.1L45.8,113.7L47.7,113.1L50.2,112.0L51.2,111.3L51.7,111.1L55.4,108.3L57.4,106.2L59.0,104.3L61.1,101.0L61.1,100.7L62.1,98.9L62.2,98.4L62.9,96.6L63.6,93.6L64.1,89.9L64.2,74.3L64.0,47.7L64.2,13.7Z" fill="#000" fill-rule="evenodd"/>
</svg>