<svg xmlns="http://www.w3.org/2000/svg" viewBox="0 0 128 128" width="128" height="128">
  <path d="M104.8,73.2L104.4,72.8L104.0,72.7L89.3,72.6L85.4,72.9L84.6,73.2L83.7,73.2L82.4,73.6L81.2,73.8L77.7,75.0L76.1,75.8L75.3,76.1L74.4,76.7L73.2,77.3L69.3,79.9L67.5,81.5L64.7,84.3L64.2,84.4L63.9,84.3L62.0,82.3L59.7,80.2L57.0,78.3L56.3,78.0L54.0,76.5L51.8,75.5L47.9,74.0L46.5,73.8L45.3,73.4L44.3,73.3L44.0,73.2L42.2,72.9L40.6,72.9L39.3,72.7L24.0,72.8L23.6,73.0L23.5,73.3L23.5,88.9L23.6,89.2L24.5,89.5L39.6,89.4L42.1,89.7L43.9,90.1L45.8,90.9L47.8,91.9L48.9,92.7L50.3,93.9L52.6,96.4L53.4,97.5L53.8,98.4L54.4,99.2L55.3,101.4L55.7,103.4L56.0,105.6L56.1,118.7L56.6,119.1L72.2,119.0L72.5,118.7L72.6,107.7L72.8,104.8L73.6,101.0L74.0,100.6L74.0,100.0L74.4,99.4L74.4,99.1L75.5,97.2L76.8,95.4L78.3,93.9L79.8,92.7L82.2,91.2L85.5,89.9L88.1,89.4L90.9,89.2L104.0,89.2L104.5,89.0L104.8,88.6Z M23.5,54.3L23.4,69.0L23.5,70.2L23.9,70.7L24.1,70.7L29.2,70.8L35.6,70.6L40.8,70.6L43.8,70.2L48.1,69.2L52.3,67.5L56.0,65.6L59.7,63.0L63.7,59.3L64.3,59.3L64.6,59.4L68.6,63.0L70.3,64.3L72.8,65.9L74.5,66.9L75.1,67.0L77.5,68.2L80.0,69.1L81.1,69.4L81.5,69.6L82.3,69.7L83.1,70.0L84.4,70.1L85.6,70.4L88.3,70.7L104.4,70.7L104.8,70.3L104.8,70.0L104.7,54.2L104.4,54.0L103.2,54.0L89.0,53.9L85.8,53.4L83.3,52.6L81.5,51.7L79.9,50.7L77.8,48.9L76.7,47.8L74.6,44.7L74.1,43.7L73.2,41.5L72.7,39.5L72.6,35.7L72.7,31.5L72.8,30.7L73.3,30.3L74.7,30.2L80.9,30.2L85.9,29.9L86.3,29.7L86.3,29.5L84.1,27.2L81.7,24.9L81.2,24.6L78.3,21.9L77.9,21.6L75.3,19.1L73.4,17.5L69.0,13.4L66.8,11.6L64.7,9.5L64.0,9.1L63.5,9.3L41.4,29.5L41.5,29.9L41.7,30.0L52.5,30.0L54.9,30.1L55.5,30.4L55.7,31.7L55.8,37.4L55.6,39.4L55.1,41.4L54.4,43.3L53.6,44.9L52.1,47.1L49.8,49.5L47.6,51.1L46.9,51.5L46.1,52.0L43.4,53.1L42.4,53.2L42.2,53.4L39.9,53.7L37.5,53.8L25.7,53.8L24.0,53.9L23.6,54.1Z" fill="#000" fill-rule="evenodd"/>
</svg>