<svg xmlns="http://www.w3.org/2000/svg" viewBox="0 0 128 128" width="128" height="128">
  <path d="M30.4,120.1L30.4,120.2L31.4,120.2L31.4,119.8L30.7,119.8Z M19.3,119.9L19.1,119.7L18.4,119.7L18.1,120.2L19.3,120.2Z M21.1,120.2L21.6,120.2L22.1,120.0L22.8,120.0L23.2,120.2L23.7,120.2L23.6,120.0L23.0,119.6L21.8,119.6L21.2,119.9Z M25.1,120.2L25.7,120.2L26.0,120.0L26.8,120.0L27.2,120.2L27.6,120.2L27.6,120.0L26.9,119.5L25.9,119.5L25.2,120.0Z M61.3,9.2L60.4,9.9L57.5,12.8L57.3,13.2L52.3,18.0L49.9,20.6L48.5,21.8L41.8,28.7L39.7,30.5L34.2,35.9L34.0,36.3L32.3,37.9L31.7,38.7L31.7,39.2L35.2,42.7L36.3,43.7L49.7,57.2L50.3,58.0L53.7,61.3L55.0,62.7L58.4,66.2L59.3,67.0L60.0,66.9L63.2,63.8L67.7,59.3L68.2,58.7L68.2,58.2L67.6,57.2L64.6,54.4L56.7,46.6L56.1,45.8L56.1,45.6L56.4,45.4L56.9,45.2L58.7,45.1L74.1,45.1L84.7,45.0L87.1,45.1L97.1,45.1L98.8,45.5L99.1,45.9L98.8,71.2L98.9,73.9L98.8,80.9L98.8,83.2L98.6,87.7L98.3,87.9L98.1,87.9L95.5,85.6L92.4,82.4L89.3,79.3L88.6,78.5L79.8,69.8L74.1,63.7L70.6,60.3L70.1,60.0L69.7,60.0L68.7,60.8L68.3,61.4L61.6,68.1L61.4,69.0L61.5,69.3L70.5,78.5L71.4,79.6L73.1,81.3L73.3,81.6L73.3,81.8L73.1,82.0L71.6,82.2L39.9,82.1L30.6,81.8L30.3,81.5L30.1,81.0L30.3,59.9L30.3,47.1L30.5,44.2L30.4,38.9L30.6,36.7L30.6,33.7L30.5,33.5L29.9,32.9L29.2,32.8L18.9,32.7L18.4,32.8L18.0,33.1L17.7,38.0L17.7,46.4L17.3,57.7L17.4,59.0L17.2,62.1L17.2,73.5L17.1,77.9L17.2,82.6L17.0,86.9L17.1,92.2L16.9,93.9L17.3,94.4L20.3,94.4L43.5,94.4L48.8,94.5L67.0,94.5L73.4,94.8L73.6,95.0L73.6,95.4L70.1,98.8L68.5,100.6L68.1,100.8L59.3,109.7L59.3,110.3L59.6,111.0L65.4,117.3L67.2,119.0L67.9,119.0L68.3,118.7L81.2,105.8L87.6,99.6L97.9,89.2L98.5,89.2L98.6,89.4L98.6,93.1L98.7,94.4L98.9,94.8L99.8,95.0L110.3,95.0L110.8,94.7L110.9,93.7L111.0,89.5L110.9,79.9L111.2,69.7L111.1,68.1L111.3,60.4L111.2,55.0L111.4,50.2L111.4,33.6L111.0,33.2L110.8,33.1L99.1,32.7L74.8,32.5L72.2,32.7L67.3,32.6L62.1,32.8L56.1,32.8L55.5,32.6L55.5,32.2L55.7,31.8L69.4,18.2L69.8,17.7L69.8,17.2L69.2,16.3L65.7,13.0L62.3,9.5L61.7,9.2Z" fill="#000" fill-rule="evenodd"/>
</svg>