<svg xmlns="http://www.w3.org/2000/svg" viewBox="0 0 128 128" width="128" height="128">
  <path d="M11.4,9.9L11.1,10.1L11.0,10.5L10.9,22.9L10.9,92.8L10.8,97.5L10.7,97.9L10.2,98.3L9.7,98.4L9.8,98.8L10.1,98.8L10.6,99.3L10.8,100.0L10.6,114.9L10.8,118.0L11.4,118.4L12.6,118.6L17.7,118.6L22.5,118.4L28.4,118.5L29.3,118.2L33.4,113.8L34.7,112.2L36.4,110.5L37.0,109.5L40.4,105.9L41.2,104.8L41.8,104.3L43.8,101.8L44.9,100.7L49.5,95.3L51.7,92.8L52.4,91.9L55.8,88.2L57.6,85.9L62.5,80.4L62.7,80.1L64.0,78.7L65.9,76.4L69.9,71.9L70.0,71.6L71.2,70.6L71.4,70.6L71.7,70.9L71.8,72.4L71.8,86.6L72.0,87.4L72.6,87.7L76.6,87.8L87.9,87.8L88.3,87.5L88.5,87.2L88.7,77.6L88.6,75.0L88.8,69.1L88.8,41.0L88.1,40.6L87.2,40.5L61.1,40.6L42.1,40.4L41.6,40.6L41.4,42.0L41.4,53.7L41.6,56.9L42.1,57.1L58.7,57.1L59.2,57.2L59.5,57.5L59.5,57.7L58.4,59.2L56.3,61.4L53.9,64.3L49.2,69.7L47.8,71.2L45.9,73.5L33.5,87.4L30.8,90.4L30.1,90.3L30.0,85.7L30.2,81.3L30.3,59.3L30.2,54.0L29.9,53.3L29.9,53.0L30.3,52.4L30.2,49.9L30.4,48.4L30.4,29.7L30.8,29.3L31.4,29.2L76.2,29.4L88.6,29.3L96.8,29.5L98.1,29.4L99.5,29.5L99.9,29.7L100.1,30.5L99.9,82.7L99.7,86.8L99.8,87.8L99.6,98.0L99.0,98.5L96.6,98.6L54.8,98.6L54.4,98.8L52.0,101.4L51.5,102.1L49.3,104.5L48.3,105.8L45.8,108.5L45.0,109.5L38.7,116.6L38.1,117.4L37.9,118.0L38.1,118.2L40.1,118.3L59.0,118.1L72.1,118.2L91.8,118.0L117.7,118.0L118.3,117.4L118.4,116.6L118.5,108.4L118.4,99.6L118.6,88.0L118.6,40.1L118.8,31.9L118.7,10.6L118.3,10.2L117.0,10.0L109.1,10.1L78.0,9.9L57.6,10.0L44.4,9.8L23.4,9.9L13.4,9.7Z" fill="#000" fill-rule="evenodd"/>
</svg>