<svg xmlns="http://www.w3.org/2000/svg" viewBox="0 0 128 128" width="128" height="128">
  <path d="M67.1,41.7L65.9,41.7L65.5,42.2L65.4,45.4L65.6,50.4L65.4,50.8L64.1,50.2L63.3,49.5L62.0,48.7L61.0,47.9L59.5,47.1L58.9,46.6L55.8,44.6L54.2,44.5L50.8,46.8L48.7,48.7L46.8,51.0L46.7,51.4L45.2,53.6L43.9,56.4L43.9,56.8L43.2,59.1L43.2,59.7L42.8,61.2L42.8,62.7L43.3,63.2L52.2,63.4L52.4,63.6L52.4,64.0L51.6,65.4L51.0,66.2L50.7,66.9L49.9,67.7L49.4,68.7L47.4,71.3L45.7,74.0L45.6,75.0L47.0,77.3L47.9,78.2L49.2,79.8L51.1,81.6L51.9,82.0L53.3,83.1L55.4,84.2L57.0,84.8L57.6,85.2L60.7,86.1L61.8,86.3L64.4,86.4L64.8,86.2L65.1,85.8L65.3,76.8L65.8,76.8L67.4,77.8L75.5,83.6L76.5,83.6L79.6,81.5L81.2,79.9L83.2,77.7L85.0,74.9L86.6,71.2L87.4,66.7L87.4,65.3L86.9,64.7L85.8,64.5L77.6,64.4L77.4,64.0L79.2,61.2L79.7,60.8L80.0,60.0L81.1,58.8L82.2,57.0L83.1,55.9L84.7,53.6L84.7,52.6L84.1,51.3L83.2,50.2L79.8,46.8L78.8,46.0L77.1,45.1L76.6,44.6L75.1,44.0L74.5,43.7L72.4,43.0L71.4,42.5Z M64.6,56.6L65.9,56.6L66.9,56.8L68.4,57.3L69.9,58.3L71.2,59.6L71.7,60.4L72.3,61.9L72.6,63.7L72.5,65.7L71.7,67.5L70.7,69.0L69.6,70.0L69.0,70.2L68.5,70.6L67.2,71.2L65.8,71.4L64.0,71.3L62.8,71.1L62.3,70.7L61.5,70.5L60.9,70.0L59.6,68.7L58.3,66.9L58.0,65.6L57.8,64.1L57.8,63.3L58.1,62.4L58.2,61.3L59.4,59.4L60.6,58.3L62.1,57.2L63.0,57.0L63.5,56.8Z M11.6,9.5L11.3,10.0L11.1,20.6L11.2,43.2L11.0,52.5L11.0,117.2L11.7,117.6L13.0,117.6L13.9,117.8L21.1,118.0L22.7,117.9L26.7,118.2L68.1,118.5L72.4,118.6L76.0,118.5L77.8,118.7L83.5,118.8L116.8,118.7L117.0,118.4L117.0,117.4L117.1,116.6L117.2,112.0L117.1,92.7L117.3,86.7L117.3,73.4L117.1,65.8L117.3,51.3L117.3,41.2L117.1,40.7L117.3,32.9L117.2,16.2L117.0,10.7L116.5,10.3L87.1,9.9L68.2,9.9L57.4,9.7L56.4,9.5L53.7,9.6L46.7,9.5L37.1,9.5L12.2,9.4Z M64.3,14.9L64.8,15.0L64.9,15.2L65.1,18.0L65.0,21.6L65.4,22.2L68.1,22.3L71.7,22.7L73.1,23.0L73.8,23.3L75.5,23.5L76.6,23.9L77.3,24.0L79.1,24.8L80.3,25.1L84.6,27.2L86.5,28.6L86.5,41.1L86.7,42.5L86.8,49.8L87.1,49.9L87.8,49.4L89.4,47.2L89.6,46.8L90.0,46.3L90.2,45.8L91.5,43.9L94.3,40.3L94.6,39.7L95.7,38.4L96.3,38.3L98.7,41.2L99.2,42.1L100.7,43.9L100.9,44.4L102.3,46.0L104.5,49.3L108.4,54.4L109.4,55.9L109.7,56.1L110.4,57.3L111.1,58.0L111.4,58.7L113.3,61.1L115.0,64.0L115.0,64.2L114.7,64.5L107.2,64.5L106.9,64.7L106.6,65.2L106.4,68.9L106.1,70.1L105.8,72.8L105.0,76.0L103.7,79.8L103.5,79.9L102.8,81.7L101.3,84.6L100.4,85.5L95.5,85.6L92.8,85.5L92.0,85.4L85.8,85.3L84.9,85.1L78.0,85.1L78.0,85.5L79.7,86.9L90.9,94.8L91.2,95.2L91.2,95.5L90.3,96.5L88.2,98.0L87.6,98.5L85.3,100.0L83.7,101.3L83.2,101.5L81.0,103.3L80.1,103.8L79.6,104.3L77.8,105.5L76.3,106.7L75.8,106.9L73.2,108.9L71.7,109.8L71.1,110.4L69.7,111.3L66.3,113.7L65.9,113.7L65.6,113.4L65.4,108.1L65.4,106.1L65.4,105.7L65.1,105.5L63.4,105.1L61.8,105.0L59.0,104.3L57.7,104.2L57.1,104.0L55.7,103.8L55.4,103.6L53.8,103.2L52.8,102.7L50.6,102.1L47.9,100.8L47.1,100.6L45.2,99.5L44.3,99.2L43.7,98.5L43.5,97.5L43.8,87.3L43.9,85.3L43.9,77.2L43.3,77.2L42.7,77.7L42.5,78.2L39.6,82.1L39.4,82.6L38.6,83.4L37.3,85.5L36.1,86.9L34.5,89.3L34.1,89.7L33.8,89.7L29.2,83.9L28.4,82.6L26.8,80.8L25.5,78.8L23.8,76.8L19.2,70.5L15.6,66.0L15.0,64.8L14.4,64.2L14.4,64.0L14.6,63.8L17.1,63.6L22.4,63.7L23.6,63.6L23.9,63.3L24.4,57.7L25.0,54.3L25.4,53.1L25.8,51.4L26.7,49.0L27.0,48.3L27.0,48.1L27.3,47.7L28.0,45.9L29.3,43.3L29.6,43.0L30.2,42.8L51.1,42.5L51.5,42.4L51.4,42.0L45.0,37.8L43.7,36.8L42.6,36.2L39.2,33.7L39.2,33.3L41.4,31.7L43.3,30.1L49.8,25.4L50.7,24.7L56.8,20.4L59.4,18.3L60.2,17.9L61.4,16.8L62.2,16.5Z" fill="#000" fill-rule="evenodd"/>
</svg>