<svg xmlns="http://www.w3.org/2000/svg" viewBox="0 0 128 128" width="128" height="128">
  <path d="M10.1,10.7L9.9,16.4L10.0,28.2L9.8,64.0L9.5,82.7L9.6,106.1L9.5,116.3L9.7,117.7L10.1,117.9L12.2,117.9L13.8,117.7L21.0,117.4L41.4,117.4L46.1,117.2L60.0,117.2L62.4,117.1L78.4,117.1L87.6,117.2L102.0,117.1L108.2,117.3L117.1,117.3L117.5,117.0L117.8,111.0L117.8,104.8L118.1,103.6L117.9,100.5L118.1,98.3L118.2,83.2L118.4,77.6L118.5,41.1L118.6,35.4L118.8,12.0L118.5,11.4L57.8,11.1L34.4,10.6L21.2,10.5L13.4,10.2L10.7,10.3Z M74.1,64.6L74.6,65.1L74.6,74.2L74.4,74.6L73.9,74.7L68.7,74.7L68.1,74.6L67.8,74.3L67.8,65.8L68.0,64.9L68.6,64.5L72.0,64.4Z M54.1,64.6L59.6,64.4L60.0,64.5L60.3,64.7L60.5,65.2L60.5,73.9L60.4,74.3L60.0,74.6L55.5,74.7L54.2,74.6L53.7,74.4L53.6,66.1L53.7,65.0Z M65.3,54.1L74.1,54.1L74.5,54.5L74.6,54.8L74.6,62.1L74.6,63.5L74.3,63.8L74.1,63.8L72.7,62.6L65.1,54.8L65.1,54.3Z M63.5,54.2L63.3,54.8L54.5,63.6L54.0,63.7L53.7,63.4L53.6,61.2L53.8,54.8L54.3,54.1L62.1,54.0Z" fill="#000" fill-rule="evenodd"/>
</svg>