<svg xmlns="http://www.w3.org/2000/svg" viewBox="0 0 128 128" width="128" height="128">
  <path d="M118.8,16.5L118.3,16.1L110.7,16.1L106.9,16.3L98.1,16.3L94.4,16.5L73.0,16.6L59.9,16.9L58.6,16.8L51.6,17.0L39.9,17.0L28.2,17.2L11.9,17.3L11.4,17.5L11.3,17.8L11.5,18.0L17.2,19.9L18.4,20.5L19.6,20.7L20.5,21.2L24.2,22.4L25.4,23.0L26.3,23.1L27.3,23.6L31.1,24.9L32.9,25.6L34.0,25.9L36.0,26.7L36.9,26.9L38.3,27.6L39.7,27.9L40.4,28.3L41.2,28.5L41.7,28.8L43.5,29.3L47.3,30.8L47.9,30.9L50.2,31.8L51.2,32.0L53.4,32.9L55.8,33.7L57.2,34.3L57.7,34.4L59.6,35.1L59.9,35.1L61.7,36.0L62.6,36.2L65.4,37.2L66.0,37.5L72.7,39.8L74.4,40.6L79.5,42.3L80.2,42.6L83.8,43.8L86.2,44.8L88.2,45.4L88.8,45.8L91.0,46.4L91.9,46.9L93.2,47.2L93.6,47.5L98.1,49.0L102.9,50.9L103.5,51.0L109.3,53.3L112.7,54.4L115.7,55.7L116.2,56.1L116.2,56.3L115.8,56.6L114.2,56.5L110.0,56.7L98.6,56.6L96.5,56.8L71.8,56.8L67.3,56.9L52.4,57.0L45.8,56.9L30.5,57.2L15.9,57.2L14.9,57.4L10.1,57.4L9.5,57.9L9.4,58.6L9.3,70.7L9.4,71.1L9.7,71.3L23.4,71.4L28.7,71.2L45.7,71.2L53.3,71.2L65.1,71.1L75.3,71.2L90.8,71.0L111.4,71.0L116.2,71.2L116.2,71.5L115.7,71.9L114.0,72.4L113.4,72.7L108.2,74.6L107.6,74.9L103.8,76.2L103.1,76.6L102.6,76.7L100.2,77.7L99.6,77.8L98.3,78.4L92.8,80.4L92.2,80.8L91.0,81.1L90.6,81.4L88.0,82.2L85.4,83.3L84.8,83.4L84.6,83.6L84.3,83.6L82.9,84.3L82.4,84.4L77.3,86.4L76.7,86.5L71.3,88.7L70.4,88.9L69.7,89.3L69.0,89.4L68.4,89.8L67.6,90.0L65.9,90.7L64.9,91.0L64.6,91.3L63.6,91.5L61.9,92.3L60.8,92.6L59.2,93.3L58.2,93.6L57.8,93.9L56.9,94.1L56.5,94.3L55.7,94.5L55.0,94.9L51.5,96.1L50.9,96.5L47.1,97.9L46.6,98.0L45.9,98.4L43.9,99.0L41.8,100.0L39.3,100.8L36.5,102.0L34.6,102.5L31.1,104.0L27.9,105.1L26.5,105.8L26.0,105.9L24.2,106.7L22.6,107.2L20.5,108.0L20.3,108.2L13.7,110.6L10.8,111.8L10.7,112.1L15.9,112.2L47.1,112.0L118.4,111.8L118.8,111.3L118.7,90.9L118.9,64.4L118.9,39.1Z" fill="#000" fill-rule="evenodd"/>
</svg>