<svg xmlns="http://www.w3.org/2000/svg" viewBox="0 0 128 128" width="128" height="128">
  <path d="M31.1,13.1L28.5,15.9L28.4,16.3L25.2,19.4L24.8,20.2L22.4,22.6L21.4,23.9L18.6,26.7L16.2,29.5L14.4,31.2L14.2,31.6L10.4,35.6L9.8,36.7L9.6,68.0L9.6,105.5L9.7,117.4L9.9,117.8L10.2,118.1L30.2,118.2L36.5,118.4L50.1,118.5L52.7,118.4L61.0,118.6L65.5,118.5L71.1,118.7L73.3,118.6L84.0,118.8L87.2,118.9L90.1,118.9L90.5,118.8L91.4,117.8L91.7,117.7L95.1,114.8L95.3,114.7L96.4,113.6L98.7,111.9L101.5,109.4L114.2,99.0L114.8,98.4L114.7,97.9L105.1,97.4L97.6,97.4L84.8,96.9L78.3,96.9L72.9,96.7L69.7,96.8L66.8,96.6L64.4,96.7L57.9,96.5L54.7,96.6L50.5,96.4L38.2,96.5L32.0,96.3L31.8,96.1L31.5,95.1L31.7,92.0L31.7,88.9L31.5,86.6L31.5,69.2L31.7,56.1L31.6,21.1L31.8,13.7L31.6,13.2Z M52.6,11.4L42.7,22.4L41.0,24.0L40.1,25.2L39.2,26.1L36.3,29.4L34.3,31.3L32.9,32.9L32.8,72.7L32.9,94.8L33.1,95.1L34.3,95.2L56.1,95.2L60.1,95.4L75.8,95.4L88.9,95.8L93.4,95.7L94.1,95.3L95.1,94.3L106.8,84.7L112.7,79.5L114.1,78.5L115.0,77.6L116.1,76.8L116.2,76.1L115.5,75.9L108.7,75.9L106.8,75.8L98.2,75.7L93.4,75.4L91.7,75.5L68.7,75.0L57.3,75.0L54.0,74.9L53.3,74.6L53.2,74.0L53.1,59.2L53.1,23.2L53.3,12.0L53.1,11.4Z M72.0,10.5L70.3,12.1L64.7,18.3L61.2,22.1L57.5,26.3L55.0,28.8L54.4,29.9L54.4,73.1L54.7,73.6L55.5,73.7L70.8,73.7L78.9,73.9L81.2,73.8L81.9,74.0L84.4,73.9L94.8,74.2L97.6,74.1L103.8,68.8L105.3,67.6L107.6,65.5L109.9,63.7L113.5,60.5L117.0,57.7L117.6,57.1L117.6,56.7L117.4,56.6L113.4,56.6L107.8,56.3L73.2,55.8L72.7,55.7L72.5,55.5L72.3,54.7L72.2,52.4L72.3,10.9Z M90.4,9.3L88.7,11.0L86.1,14.1L74.4,26.7L73.6,27.9L73.5,53.9L73.6,54.2L73.9,54.4L88.2,54.7L99.6,54.6L117.7,39.0L118.1,38.8L118.6,38.3L118.5,37.8L118.3,37.7L92.4,37.4L91.3,37.4L90.7,37.0L90.6,25.7L90.9,10.5L90.7,9.4Z" fill="#000" fill-rule="evenodd"/>
</svg>