<svg xmlns="http://www.w3.org/2000/svg" viewBox="0 0 128 128" width="128" height="128">
  <path d="M62.3,53.4L59.3,54.1L58.5,54.4L56.7,55.4L55.8,56.2L54.4,58.2L53.7,59.7L53.4,60.6L53.4,63.9L54.2,66.4L54.6,67.2L55.3,68.3L57.0,70.2L59.4,71.6L60.9,72.1L62.7,72.4L64.9,72.3L66.2,72.1L68.6,71.1L69.7,70.2L71.1,68.8L72.4,66.8L73.0,65.3L73.3,63.9L73.2,61.5L72.6,59.6L72.1,58.5L71.8,58.3L71.5,57.4L70.1,55.9L69.3,55.3L67.4,54.1L66.6,53.9L63.8,53.4Z M9.7,23.3L9.5,24.3L9.6,42.8L9.5,59.4L9.3,64.0L9.3,102.5L9.6,102.9L11.0,103.1L14.0,103.1L15.8,103.1L33.9,103.3L38.3,103.5L45.0,103.5L59.0,104.0L64.1,104.0L71.3,104.3L75.7,104.3L86.2,104.7L91.9,104.7L102.6,105.0L107.4,104.9L110.4,105.1L118.1,105.2L118.4,105.1L118.7,104.9L118.7,82.2L118.9,77.2L118.9,67.5L119.0,58.7L119.0,25.9L118.6,25.2L118.2,25.0L117.1,24.9L104.1,24.9L92.4,24.6L85.9,24.6L84.5,24.4L78.6,24.5L71.1,24.3L68.1,24.0L66.9,24.0L66.6,24.1L66.2,24.4L65.9,49.7L66.1,50.8L66.4,51.0L67.3,51.0L78.0,51.1L84.6,51.5L88.3,51.6L88.5,51.6L88.5,52.0L88.5,52.2L86.5,54.5L84.8,56.7L78.7,63.7L76.7,66.2L70.5,73.3L66.4,78.3L63.4,81.6L62.9,81.7L61.8,80.3L61.2,79.3L57.9,75.3L55.8,72.4L55.1,71.7L54.9,71.2L53.6,69.8L53.1,69.0L50.7,66.4L50.7,66.1L49.4,64.7L48.0,62.8L46.9,61.5L45.8,60.0L44.5,58.4L43.0,56.4L42.0,55.3L40.4,52.9L38.7,51.0L38.7,50.8L39.0,50.5L52.5,50.6L59.9,50.9L60.4,50.7L60.6,49.9L60.6,48.1L60.6,33.4L60.8,28.0L60.7,24.7L60.3,24.3L57.4,24.3L45.6,23.7L43.9,23.7L28.4,23.5L23.1,23.2L20.3,23.3L10.2,23.1Z M19.0,34.0L19.4,33.6L22.1,33.6L28.1,33.6L31.0,33.8L37.3,33.8L50.5,34.3L51.0,34.6L51.0,39.7L50.8,40.7L50.7,41.1L50.3,41.3L26.6,41.0L20.9,40.7L20.3,40.8L20.3,41.1L21.2,42.5L22.8,44.2L25.0,47.3L26.3,48.7L26.9,49.7L31.5,55.2L33.2,57.3L34.1,58.3L34.3,58.6L37.6,62.4L37.9,63.0L40.1,65.6L47.5,74.9L48.2,75.7L48.8,76.5L49.8,77.6L50.2,78.3L51.3,79.5L51.8,80.2L57.1,86.6L58.3,88.3L61.2,91.4L62.7,93.6L63.3,94.2L63.7,94.2L64.1,93.8L66.1,91.2L67.4,89.7L67.9,89.0L70.9,85.6L74.4,81.1L78.5,76.5L80.9,73.5L84.7,69.3L85.7,67.8L88.3,64.8L88.6,64.2L91.1,61.5L91.5,60.9L92.7,59.7L93.7,58.3L94.7,57.2L96.6,54.7L97.4,54.1L99.4,51.6L100.7,50.2L102.4,48.0L104.2,46.1L107.2,42.4L107.1,42.0L99.8,42.1L94.3,41.9L87.7,41.9L85.6,41.7L78.6,41.7L75.6,41.5L75.4,41.2L75.2,40.7L75.3,36.4L75.5,34.6L76.0,34.3L76.9,34.3L77.7,34.5L81.3,34.6L84.3,34.5L92.4,34.8L94.2,34.7L95.9,34.8L99.8,34.8L106.6,35.0L108.3,35.2L108.5,35.5L108.5,63.7L108.3,77.8L108.1,78.5L108.1,79.1L108.3,79.7L108.2,81.2L108.2,96.0L107.7,96.3L105.5,96.4L79.2,95.9L77.5,95.7L68.8,95.6L67.6,95.5L48.4,95.2L44.7,95.1L43.0,95.0L37.7,95.0L35.7,94.9L28.8,94.8L19.0,94.4L18.8,94.0L19.0,82.9Z" fill="#000" fill-rule="evenodd"/>
</svg>