<svg xmlns="http://www.w3.org/2000/svg" viewBox="0 0 128 128" width="128" height="128">
  <path d="M119.0,54.4L118.6,54.3L100.5,54.2L99.9,54.0L99.4,53.5L98.8,52.3L97.8,50.7L97.5,50.1L96.0,47.6L95.8,46.9L95.3,46.3L94.1,43.9L93.3,42.7L93.1,42.2L90.4,37.6L89.3,35.5L89.1,35.2L88.3,33.8L88.0,33.4L87.5,32.2L86.6,31.0L85.8,29.1L85.0,27.9L84.0,25.9L83.6,25.4L82.5,23.3L81.9,23.0L79.5,23.2L73.2,23.2L67.2,23.0L57.7,23.1L57.7,23.6L58.7,25.1L59.0,25.8L59.7,26.7L60.2,27.8L61.0,28.9L61.1,29.2L62.3,31.2L63.0,32.6L63.6,33.5L63.9,34.2L64.3,34.7L64.7,35.7L64.9,35.9L65.7,37.4L66.7,38.8L67.0,39.7L68.2,41.5L68.7,42.7L69.2,43.4L70.2,45.4L71.2,47.0L72.2,48.9L72.5,49.3L74.6,53.5L74.6,53.6L74.4,53.9L38.8,53.9L38.6,53.8L38.5,53.3L39.6,51.8L40.5,50.0L41.3,48.9L41.4,48.6L43.0,46.3L43.2,45.5L43.9,44.7L44.6,43.3L47.1,39.4L47.3,38.8L48.1,37.8L48.5,36.7L48.9,36.4L48.9,36.1L49.7,35.0L50.0,34.3L51.0,32.9L51.7,31.6L52.8,29.9L53.0,29.4L53.7,28.4L54.4,27.1L55.2,26.0L56.1,24.2L56.5,23.7L56.5,23.1L55.8,23.1L55.3,23.3L35.4,23.3L34.4,23.1L33.3,23.1L32.9,23.4L32.5,24.0L31.8,25.4L31.2,26.3L30.9,27.1L29.2,29.9L28.9,30.2L28.7,30.8L27.8,32.1L27.5,32.7L25.7,35.8L25.5,36.3L24.6,37.5L23.0,40.3L22.7,40.6L22.5,41.2L21.7,42.2L20.1,45.3L17.0,50.6L16.6,51.1L15.3,53.5L13.7,55.9L13.1,57.3L11.1,60.6L10.6,61.6L9.5,63.1L9.1,63.9L9.1,64.4L10.4,66.4L11.8,69.0L13.3,71.5L13.7,72.3L14.4,73.3L15.4,75.3L15.7,75.6L16.8,77.8L17.5,78.8L18.1,80.0L19.7,82.6L19.9,83.1L20.8,84.6L22.6,87.9L23.3,88.8L24.8,91.7L25.5,92.7L26.2,94.2L26.7,94.8L29.1,99.2L30.8,102.0L31.6,103.7L32.1,104.3L32.1,104.5L32.7,104.9L36.3,104.8L55.4,105.1L55.6,104.9L55.6,104.6L53.8,101.7L53.6,101.3L52.3,99.1L51.5,97.6L51.0,97.0L50.5,95.7L49.0,93.5L47.5,90.5L47.2,90.3L46.1,88.1L43.7,84.0L43.5,83.3L42.2,81.5L41.8,80.6L40.9,79.3L40.3,77.9L38.3,74.6L38.3,74.3L38.4,74.1L74.4,74.1L74.5,74.3L74.5,74.9L73.7,75.9L72.0,79.0L70.7,81.1L70.3,81.8L69.7,82.7L69.6,83.0L68.6,84.4L68.2,85.4L66.8,87.6L65.4,90.1L65.2,90.4L64.6,91.5L64.4,91.7L64.3,92.1L62.9,94.0L62.0,95.5L61.7,95.9L60.8,97.5L60.5,97.8L59.5,99.4L59.0,100.5L58.5,101.0L56.5,104.6L56.6,105.1L57.5,105.1L58.1,105.0L66.6,105.0L69.0,105.1L79.7,105.3L80.0,105.2L80.8,104.4L81.4,103.1L82.9,100.9L85.7,96.1L88.7,91.5L88.7,91.3L90.4,88.5L90.9,87.8L91.7,86.4L93.7,83.6L94.3,82.4L95.5,80.8L95.7,80.1L97.4,77.7L97.5,77.4L98.7,75.7L98.8,75.3L99.6,74.4L117.1,74.4L117.9,74.5L118.7,74.5L118.9,74.4L119.1,74.1Z" fill="#000" fill-rule="evenodd"/>
</svg>