<svg xmlns="http://www.w3.org/2000/svg" viewBox="0 0 128 128" width="128" height="128">
  <path d="M17.7,120.2L19.1,120.2L17.9,120.1Z M49.9,9.2L48.0,10.2L45.1,11.9L44.5,12.1L41.8,13.7L41.3,14.1L39.4,15.1L38.7,15.6L34.1,18.1L33.9,18.3L32.4,19.1L30.6,20.3L30.2,20.3L28.9,21.2L26.0,22.8L25.7,23.1L24.6,23.6L24.1,24.2L23.3,24.4L21.3,25.5L20.4,26.1L19.8,26.3L18.3,27.4L16.9,28.0L14.5,29.4L13.7,30.1L13.6,32.0L13.6,33.6L13.4,55.4L13.4,71.6L13.5,71.9L14.5,73.0L18.1,75.0L18.8,75.5L19.4,75.7L20.7,76.7L21.9,77.2L24.3,78.9L25.9,79.6L26.9,80.4L27.5,80.3L27.7,79.9L27.7,47.7L27.8,47.5L28.1,47.2L28.9,47.3L29.7,47.8L30.0,47.9L33.7,50.2L36.0,51.3L38.9,53.2L39.7,53.6L43.0,55.6L47.4,58.1L48.1,58.7L48.5,58.8L51.5,60.7L52.7,61.3L54.5,62.5L56.1,63.3L57.1,64.3L57.1,89.1L57.1,97.2L56.9,97.7L56.6,98.0L56.1,98.0L51.8,95.5L50.9,94.8L48.9,93.8L47.7,92.9L46.3,92.3L44.6,91.1L44.2,91.0L39.9,88.4L38.5,87.5L35.1,85.6L33.8,84.7L31.8,83.7L31.3,83.3L30.8,83.1L28.9,81.9L28.4,81.9L28.2,82.0L28.1,97.2L28.4,98.1L29.3,98.7L30.6,99.4L33.3,101.1L33.6,101.2L34.1,101.6L36.0,102.6L37.9,103.9L40.9,105.5L41.2,105.8L41.7,105.9L42.6,106.6L43.2,106.8L44.6,107.7L44.9,107.8L47.3,109.3L47.8,109.5L49.3,110.6L53.5,113.0L55.9,114.5L57.0,115.0L58.9,116.3L60.2,116.9L60.9,117.5L61.4,117.7L62.1,118.2L63.8,119.1L64.5,119.1L66.3,118.2L67.0,117.7L68.5,116.9L71.5,115.0L72.2,114.8L73.3,114.0L74.6,113.4L74.9,113.0L77.7,111.6L78.1,111.2L79.0,110.8L79.5,110.4L80.1,110.1L81.2,109.4L82.2,109.1L82.6,108.7L84.2,107.7L86.2,106.6L87.9,105.5L89.6,104.7L91.3,103.5L95.5,101.2L96.8,100.3L98.1,99.7L99.3,98.9L99.8,98.4L100.0,97.9L100.0,82.4L99.9,82.3L99.4,82.2L97.7,83.2L96.5,84.0L94.4,85.1L93.5,85.8L92.7,86.1L90.1,87.7L89.6,87.9L87.5,89.2L84.8,90.6L83.8,91.4L77.7,94.8L76.8,95.4L76.1,95.8L74.1,97.0L73.6,97.2L72.8,97.7L71.9,98.1L71.4,98.1L71.2,97.8L71.1,77.1L71.3,68.5L71.2,66.5L71.3,64.9L71.4,64.5L72.3,63.8L73.3,63.3L75.1,62.2L75.6,62.0L76.1,61.6L78.1,60.5L79.2,59.8L80.1,59.4L80.4,59.1L82.1,58.2L84.8,56.6L87.5,55.2L87.8,54.8L89.6,53.9L89.9,53.6L90.4,53.4L90.9,53.0L92.0,52.5L93.5,51.5L94.8,50.9L96.3,49.9L96.7,49.8L98.7,48.5L99.7,48.0L100.1,48.0L100.6,48.5L100.7,49.4L100.7,80.4L101.4,80.5L102.4,80.0L103.4,79.2L103.9,79.1L105.6,78.0L107.2,77.2L114.3,73.0L114.8,72.4L114.9,63.8L114.8,50.3L114.8,30.8L114.1,30.2L109.2,27.4L107.6,26.2L106.9,26.0L103.4,23.7L101.9,23.0L98.6,20.8L98.2,20.7L96.2,19.4L94.3,18.4L93.8,18.0L90.5,16.2L89.2,15.3L88.6,15.0L85.5,13.1L84.8,12.8L84.3,12.4L82.6,11.5L82.1,11.1L80.2,10.1L80.0,9.8L79.2,9.5L78.6,9.5L78.0,9.7L75.8,11.2L73.2,12.6L72.3,13.2L71.4,13.6L68.1,15.6L66.4,16.4L65.4,17.2L65.4,17.5L65.7,17.9L67.1,18.6L68.3,19.4L69.2,19.8L70.1,20.5L72.3,21.7L74.2,22.9L74.8,23.1L75.1,23.4L77.2,24.6L79.1,25.8L79.5,26.0L85.3,29.5L86.3,30.0L87.3,30.8L88.7,31.4L89.7,32.2L93.0,34.1L93.4,34.5L93.4,35.0L92.9,35.4L92.4,35.6L91.0,36.5L90.3,36.9L87.5,38.6L87.0,38.8L85.8,39.6L83.9,40.6L81.9,41.8L81.6,41.9L78.3,44.0L76.7,44.8L75.9,45.4L75.2,45.6L71.2,48.0L70.9,48.2L70.2,48.5L70.0,48.8L68.7,49.4L67.1,50.4L65.7,51.1L65.2,51.4L64.1,51.5L60.9,49.7L60.4,49.3L59.4,48.8L58.4,48.0L57.5,47.6L56.4,46.8L54.8,46.1L52.6,44.6L51.7,44.2L48.3,42.0L44.6,39.9L44.1,39.5L39.8,37.0L39.2,36.5L37.9,36.0L36.3,34.9L35.7,34.1L36.2,33.5L38.0,32.3L41.4,30.5L44.2,28.8L46.5,27.5L49.2,25.9L50.6,25.2L51.2,24.7L53.4,23.6L55.3,22.3L57.0,21.5L60.5,19.3L60.9,19.3L62.1,18.3L63.2,17.9L63.5,17.5L63.5,17.1L63.3,16.9L62.8,16.7L61.7,16.0L61.4,16.0L60.9,15.5L57.1,13.2L56.4,12.9L51.6,9.9L50.2,9.2Z" fill="#000" fill-rule="evenodd"/>
</svg>