<svg xmlns="http://www.w3.org/2000/svg" viewBox="0 0 128 128" width="128" height="128">
  <path d="M36.9,17.2L35.9,18.6L35.3,19.9L34.2,21.4L33.7,22.6L32.5,24.4L32.4,24.7L32.0,25.2L30.8,27.4L29.8,28.8L29.7,29.1L28.7,30.6L28.4,31.4L26.8,33.9L26.5,34.4L26.0,35.1L25.4,36.3L24.8,37.0L23.0,40.3L22.3,41.2L22.1,41.7L20.9,43.5L20.7,44.1L20.0,45.0L19.0,47.0L18.7,47.3L18.1,48.4L16.7,50.7L16.6,51.0L15.9,51.9L15.8,52.4L12.4,57.9L12.2,58.5L11.4,59.7L10.8,60.9L9.8,62.5L9.7,62.8L9.1,63.6L9.1,64.2L10.3,66.1L10.6,66.7L11.4,68.0L12.0,69.2L14.1,72.6L14.9,74.2L15.9,75.7L16.6,77.0L17.0,77.5L18.7,80.8L19.9,82.6L20.1,83.1L21.4,85.0L22.3,86.8L24.3,90.0L24.5,90.6L25.1,91.3L25.4,92.1L29.7,99.2L29.8,99.5L30.6,100.6L31.7,102.6L32.2,103.3L32.4,103.8L32.8,104.2L33.4,105.5L35.3,108.6L36.4,110.5L36.9,110.9L57.1,111.1L63.6,111.1L64.0,111.0L65.1,109.4L65.3,108.7L65.6,108.4L65.7,108.1L68.8,103.2L68.9,102.7L70.1,100.9L70.7,99.7L71.1,99.2L72.5,96.7L72.9,96.2L73.0,95.7L74.6,93.3L74.8,92.8L76.3,90.5L77.7,88.0L77.8,87.7L78.2,87.2L78.9,85.9L79.9,84.4L80.8,82.7L81.6,81.5L82.0,80.6L82.4,80.1L83.6,77.9L84.5,76.7L85.4,75.0L85.6,74.7L85.8,74.3L86.6,73.0L86.7,72.7L88.1,70.6L89.1,68.6L89.6,68.1L90.3,67.9L107.6,68.0L107.9,68.3L107.9,68.6L106.6,71.0L105.7,72.3L105.3,73.1L101.1,80.1L100.0,82.2L99.3,83.1L98.7,84.4L97.1,86.8L96.9,87.2L93.5,92.7L93.0,93.8L91.7,95.7L91.5,96.2L89.9,98.6L89.8,99.1L89.3,99.8L88.5,101.4L88.2,101.7L82.9,110.7L83.0,111.1L83.1,111.2L90.9,111.2L91.5,110.7L91.9,109.9L92.4,108.9L92.9,108.3L93.0,108.0L93.7,107.0L94.3,105.7L96.3,102.6L97.1,101.1L98.5,99.0L99.3,97.4L100.4,95.7L100.6,95.3L102.8,91.9L104.1,89.5L104.5,89.0L105.1,87.9L106.3,86.1L106.8,85.1L108.9,81.7L110.0,79.7L111.3,77.9L113.9,73.1L114.5,72.4L115.3,70.8L116.8,68.5L117.1,67.7L117.6,67.0L118.2,65.9L118.6,65.4L119.1,64.3L119.1,64.1L118.4,63.0L118.2,62.5L116.6,59.8L116.4,59.4L113.5,54.5L112.7,52.9L110.9,50.1L110.6,49.4L109.8,48.2L109.3,47.2L109.0,46.8L106.6,42.7L106.4,42.4L106.2,42.0L105.1,40.3L103.2,36.8L102.5,35.9L101.6,34.3L99.6,31.0L98.7,29.2L97.8,27.8L97.7,27.5L97.4,27.2L97.2,26.7L95.7,24.2L95.5,23.8L95.0,23.0L94.9,22.7L93.3,20.1L92.3,18.1L91.5,17.3L90.3,17.1L64.5,17.1L63.9,17.9L61.2,22.5L59.6,25.0L59.1,26.1L57.2,29.0L56.9,29.7L56.5,30.2L56.1,31.0L52.8,36.3L51.4,39.0L50.3,40.5L50.3,40.8L48.9,43.2L48.5,43.6L47.4,45.7L46.4,47.2L45.8,48.5L45.0,49.5L43.4,52.5L42.7,53.4L41.9,55.0L39.5,58.8L39.3,59.4L38.6,60.2L37.5,60.4L20.6,60.2L20.3,59.9L20.3,59.8L21.2,58.0L22.0,56.9L23.1,54.8L23.3,54.5L24.0,53.3L25.4,51.0L25.8,50.1L26.2,49.6L26.2,49.5L27.9,46.8L28.4,45.8L29.6,44.0L30.4,42.3L30.8,41.8L32.4,39.1L33.6,37.2L34.2,35.9L34.6,35.5L35.1,34.4L35.7,33.7L37.3,30.7L38.5,29.0L38.6,28.6L39.4,27.4L39.7,26.7L42.4,22.6L43.0,21.4L43.0,20.9L43.4,20.6L45.3,17.6L45.3,17.2L45.1,17.0L41.7,16.9L38.1,17.1L37.6,17.0Z M20.3,67.9L20.7,67.7L24.2,67.6L38.1,67.7L38.6,67.8L39.3,68.6L40.0,69.9L40.4,70.4L41.4,72.3L43.5,75.8L45.3,79.1L45.7,79.6L45.8,80.0L46.2,80.5L47.7,83.2L48.2,83.8L51.3,89.4L52.3,90.9L52.5,91.5L53.3,92.6L53.5,93.1L54.5,94.7L54.7,95.2L55.1,95.7L56.9,99.0L57.6,100.1L59.0,102.5L59.3,103.2L59.2,103.7L45.8,103.7L41.6,103.6L40.9,103.4L37.3,97.4L37.1,96.9L36.7,96.4L34.6,92.9L34.1,91.8L33.7,91.3L33.2,90.2L32.9,89.9L32.8,89.6L31.1,86.8L30.1,85.0L29.4,84.0L29.2,83.3L28.0,81.6L26.8,79.2L26.0,78.2L24.7,75.6L22.7,72.3L22.2,71.3L21.6,70.6Z M69.2,24.6L69.3,24.4L76.8,24.3L86.8,24.5L87.2,24.6L88.0,25.7L89.9,28.8L90.0,29.3L90.3,29.6L91.6,31.9L92.3,33.0L94.7,37.2L96.2,39.6L96.7,40.7L97.1,41.2L97.5,42.0L98.7,43.9L100.7,47.5L102.4,50.1L103.0,51.4L105.4,55.3L105.6,55.8L106.1,56.5L106.4,57.2L107.4,58.8L108.1,60.2L107.7,60.5L105.5,60.6L90.1,60.5L89.5,60.1L88.8,58.9L88.4,58.1L88.2,57.8L87.9,57.2L87.2,56.2L87.0,55.6L85.8,53.8L85.3,52.6L85.0,52.3L84.7,51.7L84.2,51.0L83.8,50.1L82.3,47.7L81.8,46.5L81.4,46.2L80.9,45.0L80.1,43.9L76.0,36.6L74.5,34.3L74.5,34.0L73.9,33.3L73.8,33.0L73.6,32.7L71.7,29.4L71.4,29.0L71.1,28.2L70.7,27.8L70.2,26.7L69.5,25.7L69.2,25.0Z" fill="#000" fill-rule="evenodd"/>
</svg>