<svg xmlns="http://www.w3.org/2000/svg" viewBox="0 0 128 128" width="128" height="128">
  <path d="M115.0,80.9L115.3,80.9L115.3,80.8Z M80.7,67.5L79.3,67.5L77.8,68.2L71.1,73.4L70.3,73.9L69.2,74.8L67.9,75.6L66.0,77.3L64.3,78.3L62.1,80.1L60.1,81.5L59.3,82.2L57.3,83.6L56.4,84.4L55.1,85.3L52.7,87.8L52.1,89.1L52.1,90.4L52.5,91.2L52.5,92.0L52.9,93.5L53.1,94.7L53.3,95.4L53.5,96.8L53.7,97.1L53.9,98.6L54.7,101.7L54.7,102.4L55.1,103.5L55.5,105.6L55.8,106.4L56.0,106.6L56.8,106.7L57.3,106.5L57.9,105.9L63.1,97.5L63.6,97.0L64.5,96.5L66.1,96.2L81.7,96.2L90.3,96.5L98.2,96.5L98.6,96.2L98.6,95.9L98.2,95.4L95.9,90.8L95.4,90.2L95.1,90.1L83.7,92.1L82.6,92.1L81.7,91.8L80.8,90.9L80.6,90.4L80.8,89.1L82.7,85.7L83.2,85.1L83.4,84.5L84.6,82.7L84.9,82.0L87.3,78.3L87.3,78.0L87.0,77.8L81.9,78.0L80.0,78.0L79.0,77.8L78.3,77.5L77.6,76.8L77.3,76.2L77.3,75.6L77.7,74.4L81.1,68.8L81.2,68.1Z M17.1,51.1L16.7,51.3L15.7,52.8L15.2,53.7L14.1,55.3L13.7,56.2L13.0,57.0L11.6,59.5L9.3,63.0L9.2,63.9L12.0,68.8L13.4,71.3L14.1,72.4L15.1,74.5L17.6,78.7L19.0,81.4L19.7,82.2L20.9,84.7L21.1,84.9L22.6,87.8L22.8,88.1L23.0,88.5L25.3,92.4L26.3,94.4L27.0,95.4L27.5,96.5L30.2,101.0L31.0,102.6L32.8,105.6L34.7,109.4L35.2,109.4L37.1,106.8L37.6,105.7L40.6,101.4L40.6,101.3L41.3,100.3L42.1,98.8L43.1,97.5L43.5,96.3L43.5,95.4L43.2,94.7L43.1,94.1L42.8,93.6L42.6,92.7L40.9,89.5L40.3,88.3L38.9,85.9L38.4,84.6L38.2,84.4L35.2,78.8L34.6,78.0L34.3,77.2L33.8,76.5L33.6,75.9L33.3,75.5L33.2,75.2L32.9,74.8L31.8,72.6L31.5,72.4L31.4,71.9L31.0,71.4L30.5,70.5L30.1,70.0L29.8,69.9L29.1,69.9L28.4,70.5L27.7,71.5L27.4,72.0L27.1,72.4L26.6,73.4L26.0,74.1L25.9,74.4L24.7,76.5L24.0,77.4L23.2,78.2L22.8,78.3L22.0,78.3L21.5,78.1L20.8,77.4L20.4,76.2L20.3,74.4L20.4,71.1L20.6,70.1L20.9,58.1L21.3,51.3L21.2,51.1L20.8,50.8L17.9,50.9Z M74.5,50.3L73.9,50.2L72.7,51.9L72.1,53.0L70.6,55.1L70.3,56.0L68.2,59.1L68.0,59.6L67.5,60.3L67.1,61.2L58.8,74.5L57.7,76.6L56.4,78.0L55.0,78.9L54.3,79.0L48.6,79.1L47.1,79.3L43.7,79.3L41.9,79.4L38.0,79.4L37.6,79.6L37.6,80.1L37.9,80.5L38.5,81.8L40.7,85.9L41.0,86.3L41.4,87.2L42.2,88.4L42.4,88.8L44.1,91.9L44.7,93.7L44.9,95.4L44.8,96.1L44.3,97.9L43.4,99.3L43.0,100.5L39.4,106.4L37.8,108.7L37.3,109.8L36.6,110.7L36.7,111.1L37.1,111.2L44.9,111.2L58.1,110.8L66.4,110.8L68.0,110.6L88.1,110.5L89.5,110.3L90.2,110.0L91.5,108.9L92.0,108.0L92.4,107.6L93.0,106.5L96.5,100.8L97.2,99.4L97.9,98.6L97.9,98.2L97.7,97.9L89.5,97.5L66.5,97.6L66.1,97.7L65.1,98.2L63.5,100.0L62.8,101.3L62.3,101.8L61.6,103.3L60.5,104.7L59.9,105.9L58.4,107.8L57.7,108.3L56.7,108.9L55.8,108.9L55.3,108.7L54.7,108.1L54.0,106.3L53.9,105.1L53.5,104.2L53.5,103.6L52.6,99.5L52.5,98.6L52.3,98.1L52.1,96.8L52.0,96.5L52.0,96.1L50.7,90.4L50.7,88.9L51.1,87.7L52.2,86.0L53.3,84.9L56.0,82.9L56.5,82.5L57.2,82.1L58.0,81.4L59.0,80.8L63.2,77.5L64.5,76.6L66.4,75.0L66.9,74.8L68.1,73.8L70.6,72.0L71.0,71.6L72.6,70.6L73.5,69.7L73.9,69.6L75.7,68.1L76.2,67.8L77.9,66.5L78.4,66.3L79.1,66.1L80.4,66.2L81.1,66.6L81.8,67.3L82.0,68.0L81.9,69.4L81.1,70.6L81.0,71.2L79.9,72.8L79.2,74.2L79.2,74.5L78.9,75.0L79.0,75.7L79.7,76.2L82.9,76.2L84.2,76.0L87.0,76.1L87.4,76.0L87.7,75.8L87.1,74.2L86.8,73.8L85.9,71.5L85.5,71.0L84.6,68.9L83.8,67.7L82.3,64.7L82.1,64.5L81.1,62.5L80.4,61.3L80.2,60.8L79.2,59.1L78.1,56.8L77.5,55.9L76.8,54.3L75.4,52.0L75.2,51.3Z M76.1,49.1L75.9,49.3L76.1,49.8L76.4,50.1L78.2,53.7L80.1,57.0L80.4,57.7L82.5,61.4L83.1,62.8L84.6,65.3L84.9,66.2L85.7,67.5L86.4,68.9L87.0,69.7L87.3,70.5L88.5,72.7L88.8,72.9L88.8,73.1L89.2,73.9L89.5,74.7L89.5,75.7L89.1,77.7L87.7,80.5L85.1,84.5L83.3,87.7L82.5,88.8L82.5,89.1L82.1,89.6L82.1,90.0L82.6,90.5L82.9,90.6L83.8,90.6L86.7,90.2L87.0,90.1L88.4,90.0L89.7,89.7L90.8,89.6L91.2,89.5L96.1,88.8L97.8,88.3L99.0,88.3L99.9,88.1L100.6,87.9L101.0,87.9L102.1,87.4L102.7,87.4L103.5,87.0L104.8,85.6L105.0,84.9L105.7,83.6L106.0,82.0L106.2,78.4L106.5,76.6L106.4,73.8L106.7,69.2L106.8,62.6L106.9,61.8L106.9,58.7L107.2,53.9L107.2,51.4L107.0,51.0L106.5,50.4L105.9,50.6L104.9,51.8L101.3,57.9L100.8,58.4L100.0,58.8L99.2,58.8L98.0,58.4L97.2,57.5L95.2,53.5L94.8,53.1L94.1,51.7L93.7,51.2L92.7,49.3L92.4,49.1Z M46.9,36.4L46.5,36.3L44.4,36.4L43.0,36.8L42.0,36.8L41.1,37.1L40.2,37.2L38.9,37.6L37.4,37.8L37.1,38.0L33.6,38.7L30.8,39.4L29.4,39.6L25.3,40.6L24.4,41.1L23.6,41.9L23.1,43.3L22.8,49.7L22.4,52.1L22.3,57.5L22.1,58.4L22.0,63.0L21.5,70.3L21.5,75.2L22.1,76.2L22.8,76.3L23.3,75.7L27.4,69.0L27.9,68.5L28.8,68.1L30.0,68.0L30.8,68.5L31.5,69.2L32.7,70.8L33.7,72.7L34.7,74.2L35.4,75.8L35.9,76.6L36.3,77.6L36.5,77.9L38.3,78.0L41.0,77.8L45.1,77.8L46.2,77.6L52.2,77.6L52.1,76.9L51.5,76.2L50.4,73.8L50.1,73.4L49.2,71.5L47.6,68.7L47.0,67.5L45.4,64.7L44.9,63.6L43.6,61.3L43.2,60.4L42.5,59.3L42.3,58.7L41.6,57.6L40.1,54.7L39.6,54.1L39.2,52.5L39.2,51.3L39.7,49.9L40.9,47.9L41.7,46.8L44.1,42.4L46.7,38.2L47.1,37.2L47.1,36.8Z M74.5,20.1L73.8,19.8L73.1,19.8L72.4,20.1L71.6,20.8L69.6,23.6L69.5,23.9L68.3,25.6L67.0,27.8L65.7,29.4L65.0,30.1L48.0,29.9L46.9,30.1L33.3,30.1L33.3,30.8L36.0,36.1L36.4,36.4L37.8,36.4L39.4,35.9L40.2,35.8L40.4,35.7L42.1,35.4L42.7,35.2L45.6,34.6L47.3,34.6L47.8,34.8L48.5,35.5L48.8,36.4L48.8,36.9L48.6,37.8L48.1,38.6L47.3,39.6L46.0,42.0L45.6,42.4L45.5,42.9L45.2,43.1L43.8,45.8L42.4,48.3L42.4,48.6L42.5,48.8L42.9,48.9L50.8,48.7L51.7,49.0L52.5,49.8L52.5,50.5L51.6,52.7L50.5,54.2L49.6,55.9L48.5,57.4L48.1,58.1L47.9,58.9L48.3,59.5L49.1,59.6L50.6,58.8L52.7,57.3L54.5,55.8L56.1,54.7L58.5,52.8L61.4,50.7L62.7,49.6L64.7,48.2L67.5,45.9L70.8,43.7L72.3,42.4L75.0,40.5L76.4,39.1L76.7,38.6L76.9,37.8L76.7,34.1L76.5,33.5L75.9,27.7L75.4,25.3L75.3,23.8L75.1,22.8L75.1,21.8L74.7,20.4Z M93.5,18.0L91.6,21.1L90.5,22.9L89.8,23.8L89.4,24.9L88.1,26.6L87.5,27.6L87.4,28.0L86.7,29.2L86.0,30.7L86.0,32.5L87.2,34.8L87.8,35.7L88.4,37.0L88.7,37.4L90.5,40.7L90.6,41.2L90.9,41.4L91.2,42.2L91.4,42.4L92.9,45.5L93.3,45.9L93.7,46.9L95.1,49.3L95.9,51.1L96.1,51.3L97.0,53.2L98.6,55.9L99.4,56.7L100.1,56.7L100.8,56.1L102.1,54.2L102.8,52.8L103.1,52.5L103.2,52.1L104.5,50.0L105.5,49.1L105.9,48.9L106.9,49.0L107.4,49.2L108.2,50.1L108.7,51.6L108.7,53.2L108.4,57.8L108.2,66.4L108.0,68.2L107.7,74.8L108.0,75.2L111.4,75.2L112.1,74.9L112.9,74.5L113.4,74.4L113.8,74.1L114.0,73.4L114.0,72.8L114.6,71.7L115.3,71.1L115.3,70.5L116.0,69.9L116.2,69.0L116.7,68.5L117.5,66.9L118.5,65.4L119.1,64.7L119.2,63.7L117.3,60.4L115.3,56.4L115.0,56.1L114.7,55.5L114.1,54.6L112.9,52.2L109.8,46.8L109.0,45.1L107.8,43.0L107.2,42.1L106.9,41.3L103.4,35.1L103.1,34.5L102.4,33.5L102.3,33.0L101.2,31.2L100.6,29.9L97.6,24.7L97.4,24.1L97.2,23.8L96.9,23.2L96.1,22.1L95.3,20.4L94.7,19.6L94.5,19.0L93.8,18.0Z M91.3,17.0L68.5,17.0L62.1,17.2L57.1,17.1L53.3,17.2L48.3,17.2L45.8,17.3L41.3,17.2L39.3,17.5L38.0,18.0L37.7,18.3L32.0,26.8L31.8,27.3L31.9,28.0L32.6,28.5L33.6,28.7L38.3,28.6L48.1,28.8L61.8,28.7L64.3,28.1L64.5,27.9L64.8,27.8L65.7,27.0L66.1,26.3L67.8,24.0L70.3,19.8L70.9,19.1L71.7,18.4L72.4,18.2L73.5,18.2L74.6,18.5L75.2,18.8L75.9,19.4L76.3,20.3L76.6,21.1L76.6,22.1L77.1,25.5L77.3,28.2L77.6,29.7L77.8,31.9L78.5,36.5L78.4,39.1L78.0,39.9L76.3,41.5L72.5,44.4L71.9,44.7L71.0,45.5L70.1,46.1L68.2,47.6L63.3,51.2L62.6,51.9L61.6,52.5L61.0,53.1L58.1,55.1L57.0,56.1L54.7,57.7L50.8,60.7L50.4,60.8L49.5,61.2L48.2,61.2L47.3,60.9L46.5,59.9L46.2,59.3L46.2,58.4L46.7,57.3L48.4,54.8L48.8,53.9L49.1,53.6L49.3,53.2L50.3,51.8L50.6,51.1L50.6,50.7L50.2,50.4L49.2,50.3L42.4,50.3L41.1,50.4L40.6,50.8L40.5,52.0L41.2,53.7L42.7,56.3L44.3,59.5L45.1,60.8L47.2,64.6L47.5,65.0L47.6,65.4L48.3,66.6L48.5,67.1L50.0,69.5L50.2,70.1L51.6,72.5L51.8,73.1L52.5,74.3L52.8,75.1L53.6,76.6L54.4,77.3L55.0,77.3L55.3,77.2L55.8,76.6L56.2,75.8L56.5,75.5L57.7,73.4L57.9,73.0L58.2,72.7L58.3,72.4L58.8,71.8L59.2,70.9L61.1,68.0L62.6,65.2L63.0,64.9L67.5,57.4L68.0,56.7L70.0,53.2L72.2,49.8L73.2,48.8L73.9,48.3L75.2,48.1L76.2,47.6L76.9,47.5L85.9,47.6L90.9,47.4L91.4,47.3L91.6,47.2L91.6,46.9L91.3,46.3L90.7,45.4L90.6,45.0L89.8,43.4L89.5,42.9L88.4,40.6L88.1,40.4L87.2,38.3L86.0,36.4L84.5,33.1L84.3,32.0L84.4,30.6L84.6,29.8L85.2,28.6L86.8,25.9L87.2,25.4L87.3,25.1L88.8,23.0L91.4,18.6L91.8,17.4Z" fill="#000" fill-rule="evenodd"/>
</svg>