<svg xmlns="http://www.w3.org/2000/svg" viewBox="0 0 128 128" width="128" height="128">
  <path d="M63.3,81.6L61.4,82.1L59.7,83.0L59.1,83.4L57.4,85.1L56.8,86.2L56.1,87.8L56.0,88.5L55.7,89.5L55.7,91.5L56.2,93.6L56.8,94.9L57.5,95.9L58.9,97.4L59.9,98.0L61.2,98.7L62.3,99.1L64.1,99.4L66.3,99.3L68.1,98.8L69.6,98.0L70.8,97.1L71.8,96.1L72.5,95.2L73.3,93.6L73.7,92.0L73.7,88.8L73.3,87.4L72.2,85.4L70.9,84.0L69.2,82.6L67.2,81.8L66.2,81.6Z M77.5,9.1L77.0,9.2L75.0,11.2L74.7,11.4L69.4,16.8L68.2,18.1L64.0,22.2L63.4,22.2L62.9,21.8L50.6,10.2L50.1,9.8L49.6,9.8L49.1,10.1L47.8,11.3L41.8,17.4L39.8,19.2L36.8,22.3L35.6,23.3L32.7,26.3L31.7,27.1L31.1,28.0L29.3,29.9L29.4,30.5L39.3,39.9L40.5,41.2L42.3,42.7L42.7,43.4L42.6,43.9L37.6,49.0L36.4,50.0L36.0,50.0L35.3,49.5L29.8,44.2L29.4,44.2L29.2,44.3L29.4,53.0L29.3,56.5L29.5,63.4L29.6,63.8L29.9,64.0L32.4,64.0L38.7,63.9L49.4,63.9L49.7,63.7L49.7,63.3L44.1,57.9L43.5,57.2L43.5,56.8L46.3,53.8L48.0,52.3L49.5,50.6L49.8,50.5L50.2,50.5L50.5,50.6L51.7,51.7L52.3,52.4L54.2,54.0L56.8,56.8L56.8,57.1L56.6,57.5L44.1,70.2L40.8,74.1L39.0,77.1L38.1,78.8L37.0,81.7L35.9,86.1L35.9,87.1L35.7,88.1L35.7,93.6L36.1,96.1L36.8,98.5L37.8,101.2L39.5,104.7L40.7,106.6L41.1,107.0L41.2,107.4L44.2,110.7L45.4,111.9L47.4,113.4L51.6,116.0L53.0,116.5L53.4,116.8L54.0,117.0L54.3,117.2L54.8,117.3L56.4,117.9L58.2,118.3L59.1,118.6L60.1,118.7L60.9,118.9L65.7,119.2L68.6,118.9L69.0,118.8L71.3,118.5L71.9,118.2L72.8,118.1L73.7,117.7L74.3,117.6L76.6,116.8L77.5,116.2L78.5,115.8L82.5,113.3L83.0,112.8L84.1,112.0L86.3,109.9L88.3,107.5L88.5,107.1L89.6,105.5L91.1,102.9L92.6,99.3L93.1,97.5L93.6,94.6L93.7,94.2L94.0,92.4L94.0,89.0L93.2,83.9L91.8,79.6L91.6,79.4L91.6,79.2L90.1,76.2L88.1,73.2L86.4,71.2L84.1,68.8L83.8,68.7L78.5,63.5L78.0,63.2L76.9,62.0L72.2,57.6L71.6,56.9L71.7,56.4L77.9,50.2L78.5,50.2L80.2,51.6L84.8,56.1L84.8,56.6L80.5,61.0L79.0,62.6L78.9,63.0L79.2,63.3L96.8,63.3L98.5,63.2L98.9,63.0L99.0,62.9L99.0,58.1L98.8,52.8L98.7,44.6L98.5,43.3L98.0,43.3L97.8,43.7L92.3,49.2L91.6,49.2L91.2,48.9L88.4,46.3L85.4,43.2L85.4,42.7L98.5,29.6L98.5,29.1L94.7,25.3L87.5,18.4L87.1,18.1L86.3,17.2L86.1,17.1L82.3,13.4L80.3,11.6L78.5,9.8Z M64.1,64.2L64.7,64.3L65.9,65.3L69.2,68.5L69.6,69.1L71.4,70.6L73.7,73.0L75.0,74.0L79.9,79.0L81.4,81.3L82.3,83.0L83.1,85.3L83.1,85.7L83.7,88.3L83.7,92.1L83.6,92.7L83.6,93.7L83.1,95.5L82.0,98.5L80.4,101.2L79.7,101.9L79.5,102.4L76.8,105.0L75.5,105.9L74.7,106.3L73.9,106.8L72.1,107.7L69.5,108.5L67.4,109.0L66.5,109.1L62.3,109.0L59.0,108.3L57.4,107.8L56.8,107.4L55.4,106.8L54.6,106.4L52.6,104.9L50.2,102.6L48.5,100.3L48.3,99.9L48.1,99.6L46.5,96.0L45.9,93.3L45.7,91.6L45.8,88.5L46.4,85.6L47.2,83.1L49.4,79.5L51.3,77.1L54.0,74.5L60.6,67.6Z M63.8,36.4L64.3,36.5L65.1,37.2L70.6,42.6L70.6,43.1L69.5,44.1L69.4,44.4L65.1,48.8L64.3,49.4L64.0,49.4L63.5,49.2L59.7,45.4L58.1,44.0L57.4,43.2L57.4,42.8L59.1,40.9L61.6,38.5L63.4,36.7Z M49.7,23.1L50.2,23.2L52.6,25.4L54.7,27.4L55.7,28.2L56.6,29.3L56.6,29.7L55.7,30.7L50.3,36.0L49.8,36.0L49.4,35.7L43.3,29.9L43.4,29.2L48.6,24.0Z M77.2,23.0L77.8,23.1L80.5,25.7L80.9,26.0L83.9,29.1L83.9,29.5L83.7,29.9L78.5,35.1L77.9,35.5L77.5,35.5L77.1,35.4L71.1,29.5L71.1,29.0L71.6,28.5Z" fill="#000" fill-rule="evenodd"/>
</svg>