<svg xmlns="http://www.w3.org/2000/svg" viewBox="0 0 128 128" width="128" height="128">
  <path d="M76.7,14.2L75.1,13.8L73.1,12.9L69.5,12.0L69.1,12.0L68.4,11.8L64.6,11.5L59.8,11.6L57.6,11.8L54.0,12.4L50.5,13.5L45.9,15.5L44.6,16.5L43.6,17.0L42.1,18.0L41.1,19.0L40.3,19.5L37.8,22.0L37.2,22.9L35.8,24.4L34.0,27.4L33.2,28.2L31.2,32.3L29.9,35.6L28.6,39.8L28.4,40.8L28.0,42.2L27.9,43.1L27.5,44.5L27.5,45.9L27.3,46.9L27.2,48.6L26.6,49.1L24.5,50.5L23.1,51.8L21.6,53.1L19.7,54.9L19.5,55.3L18.0,56.9L17.6,57.5L16.7,58.5L16.0,59.7L14.2,62.2L13.8,63.3L13.2,64.2L13.1,64.7L12.3,66.1L11.8,67.5L11.6,68.7L10.6,71.5L10.2,73.7L10.0,74.3L9.8,76.0L9.6,76.8L9.6,78.0L9.2,81.2L9.5,88.1L10.9,94.6L11.8,96.7L12.2,98.1L12.8,99.5L13.9,101.4L16.7,105.5L17.6,106.2L18.0,106.9L21.2,110.0L24.2,112.2L24.7,112.4L26.5,113.5L29.9,114.9L31.0,115.2L32.2,115.7L34.4,116.1L36.1,116.6L42.3,116.7L43.6,116.6L47.0,116.5L49.1,116.0L50.2,115.9L51.3,115.6L52.1,115.5L57.5,114.1L58.9,113.5L59.3,113.3L59.8,113.2L60.4,112.8L60.7,112.8L62.1,112.0L63.0,111.7L63.9,111.1L64.5,111.0L65.4,111.3L67.1,112.3L68.9,112.9L70.5,113.7L73.4,114.4L73.9,114.7L75.4,114.9L75.8,115.1L77.2,115.3L78.6,115.3L80.5,115.7L84.7,115.6L87.0,115.2L88.6,115.1L90.6,114.6L91.6,114.2L92.4,114.1L93.1,113.8L93.6,113.7L94.4,113.3L96.1,112.8L98.4,111.7L99.9,110.7L101.1,110.2L103.3,108.7L106.0,106.7L110.3,102.8L112.8,99.8L114.9,96.6L116.1,94.3L117.0,92.1L117.7,89.9L118.0,88.7L118.2,88.2L118.4,85.4L118.7,84.6L119.0,81.5L119.0,79.8L118.9,79.3L118.8,77.4L118.4,75.8L118.4,75.1L118.2,74.0L118.0,73.5L117.8,72.3L117.5,71.9L117.0,69.6L116.2,67.8L116.0,67.0L114.6,64.2L112.8,61.3L110.8,58.4L109.5,57.0L109.2,56.5L105.1,52.2L103.3,50.6L100.2,48.5L99.9,47.5L99.8,43.5L99.1,40.2L97.3,35.2L96.8,34.3L96.6,33.6L96.0,32.2L95.3,31.1L95.0,30.4L94.0,29.1L93.0,27.3L91.8,25.8L91.4,25.5L90.7,24.5L89.4,23.1L85.3,19.4L84.6,19.0L83.4,18.0L82.4,17.6L81.7,17.0L81.4,16.9L79.5,15.7L77.2,14.6Z M99.4,90.6L99.5,91.0L97.9,92.9L96.3,94.2L94.9,95.0L93.0,96.3L90.0,97.7L89.5,97.8L87.5,98.5L85.5,98.9L85.2,99.0L83.8,99.3L80.1,99.3L79.5,99.2L79.2,98.9L79.2,98.5L80.2,97.6L84.1,92.3L85.9,89.2L86.7,87.4L87.3,86.6L88.0,86.6L88.7,86.9L90.1,87.3L91.4,87.8L92.1,87.9L92.6,88.2L93.3,88.3L94.0,88.7L94.8,88.8L95.3,89.1L97.3,89.7Z M71.5,80.7L71.4,81.5L70.6,83.0L70.5,83.4L69.7,84.5L69.1,85.5L68.7,86.0L66.6,88.9L64.9,90.8L62.8,92.8L61.6,93.8L60.9,94.1L60.5,94.5L59.4,95.2L59.3,95.3L58.4,95.7L57.6,96.2L56.0,97.0L55.8,97.2L54.2,97.8L53.8,98.1L52.8,98.5L52.2,98.6L51.3,99.0L50.3,99.2L49.3,99.6L48.5,99.7L47.3,100.0L45.4,100.1L44.2,100.4L42.4,100.5L41.0,100.4L40.0,100.2L39.1,100.2L38.8,100.0L36.3,99.5L34.6,98.7L31.2,96.3L30.0,95.1L28.2,92.4L28.3,92.0L28.6,91.9L30.2,92.0L30.8,92.2L32.3,92.2L32.8,92.4L37.2,92.7L41.1,93.2L42.9,93.3L45.5,93.7L47.8,93.8L48.9,94.0L50.0,94.0L51.3,94.3L52.7,94.3L54.1,94.6L55.7,94.6L58.0,94.9L59.3,94.9L59.4,94.6L59.4,87.0L59.6,84.2L59.8,83.5L59.8,78.9L60.1,78.5L59.9,78.0L59.9,77.1L60.3,76.7L60.9,76.7L62.1,77.0L64.1,77.9L64.8,78.0L66.0,78.6L70.9,80.3Z M30.2,69.0L30.8,69.6L31.7,71.9L32.5,73.3L33.6,75.8L34.7,77.5L36.2,80.4L37.1,81.8L37.2,82.4L34.3,84.9L32.5,86.5L31.1,88.0L27.8,90.5L27.4,90.5L27.0,90.2L27.0,89.9L26.8,89.5L26.3,88.1L25.6,83.8L25.6,81.1L25.9,77.6L26.1,76.2L26.7,74.7L27.0,73.3L27.5,72.2L29.1,69.6L29.8,69.0Z M87.3,59.9L87.7,59.9L90.0,61.1L91.3,61.6L94.2,63.8L96.3,65.7L98.4,67.8L99.2,68.9L100.9,71.6L101.5,72.9L102.5,76.1L102.8,77.4L102.8,79.1L102.9,80.2L102.3,85.0L101.4,87.9L101.1,88.5L101.0,89.0L100.7,89.3L100.3,89.3L100.1,89.0L99.7,87.8L99.3,87.3L98.8,85.7L98.0,84.3L96.5,80.5L96.2,80.1L96.0,79.5L94.9,77.2L94.8,76.8L94.4,76.2L94.3,75.8L92.6,72.1L91.7,69.8L90.8,68.2L90.3,66.6L89.6,65.6L89.4,64.8L89.0,64.2L88.1,62.0L87.3,60.4Z M71.8,67.6L71.7,66.2L70.9,62.6L70.6,60.9L70.1,59.1L70.0,57.9L70.3,57.6L75.5,57.6L78.5,57.8L78.9,58.0L79.8,58.0L81.5,58.4L82.4,58.5L83.0,58.8L83.8,58.9L84.2,59.1L85.2,59.2L85.5,59.3L85.6,59.7L85.3,60.0L84.9,60.2L82.0,62.1L77.7,64.6L76.3,65.7L74.4,66.7L72.5,67.9L72.2,67.9Z M44.0,53.4L44.2,53.2L44.5,53.2L47.3,54.8L48.3,55.5L49.0,55.8L49.8,56.2L50.9,57.2L54.9,59.6L57.9,61.1L58.1,61.4L59.3,62.0L59.6,62.3L60.2,62.5L60.6,62.9L61.1,63.0L62.5,63.8L63.0,64.2L64.2,64.8L66.8,66.5L69.3,67.9L69.9,68.4L70.4,68.7L70.7,68.9L70.7,69.1L67.4,71.3L66.9,71.6L65.8,72.5L64.2,73.4L62.7,74.5L62.2,74.7L61.0,75.4L60.5,75.6L59.9,75.5L59.9,66.7L60.2,63.6L60.0,63.4L59.6,63.4L57.5,65.1L55.2,67.1L54.1,67.8L50.2,71.5L49.9,71.5L49.5,71.1L48.2,69.1L47.2,66.7L46.7,65.9L46.3,64.7L45.4,61.1L44.7,59.1L44.5,57.1L44.0,55.0Z M63.1,27.8L63.5,27.7L64.9,28.0L66.8,28.1L67.8,28.5L68.3,28.6L71.4,30.0L74.7,32.1L75.8,33.1L76.5,33.6L79.8,36.9L81.0,38.5L82.0,40.7L82.4,41.1L82.7,42.0L82.7,42.3L82.5,42.5L82.1,42.5L81.1,42.0L79.6,41.9L78.1,41.4L75.6,41.1L74.5,41.1L73.7,40.7L69.0,40.7L65.9,40.6L65.4,40.0L65.1,38.1L64.8,37.2L64.4,34.9L63.5,31.5L63.1,29.0Z M61.5,27.6L61.6,27.8L61.5,28.3L59.3,31.2L59.1,31.7L58.6,32.2L58.3,32.8L56.0,35.8L55.1,37.2L54.2,38.3L50.8,43.3L50.4,43.8L48.2,47.0L46.2,49.8L46.0,50.4L45.1,51.0L44.6,51.7L44.4,51.7L44.2,51.4L44.2,51.1L44.3,50.8L44.5,49.5L44.5,47.3L44.8,46.2L45.0,43.8L45.3,42.5L45.6,41.6L45.8,40.7L47.2,37.4L48.2,35.9L49.0,34.5L50.1,33.2L51.8,31.8L52.3,31.2L55.1,29.2L55.9,28.8L56.2,28.8L56.5,28.6L57.4,28.4L57.8,28.2L58.8,28.1L60.7,27.5Z" fill="#000" fill-rule="evenodd"/>
</svg>