<svg xmlns="http://www.w3.org/2000/svg" viewBox="0 0 128 128" width="128" height="128">
  <path d="M62.7,9.2L60.9,9.3L57.1,10.1L55.4,10.6L53.9,11.3L52.8,11.6L50.2,13.0L49.0,13.9L48.7,14.0L47.7,14.8L46.6,15.6L45.2,16.8L43.3,18.7L43.1,19.1L42.0,20.1L41.2,21.2L41.0,21.6L39.4,24.0L38.4,25.6L37.9,26.9L37.6,27.4L37.5,28.1L36.7,30.0L36.0,32.9L35.7,33.3L35.0,33.7L33.9,33.8L33.0,34.2L31.2,34.7L30.4,35.1L30.1,35.1L29.4,35.5L28.3,35.9L27.9,36.3L27.4,36.4L26.5,36.9L26.0,37.4L24.8,37.9L23.4,39.0L23.0,39.2L22.6,39.6L21.3,40.7L18.8,43.2L17.5,44.8L16.9,45.8L16.3,46.5L15.4,47.9L13.2,52.3L13.0,53.4L12.8,53.7L12.0,56.5L11.5,58.8L11.3,60.3L11.3,63.5L11.6,68.8L12.3,72.1L14.1,77.1L15.4,79.5L16.8,81.8L18.0,83.5L21.1,86.9L22.6,88.3L23.6,88.9L24.0,89.3L26.6,91.0L27.2,91.1L28.5,91.9L28.9,92.0L29.7,92.5L30.1,92.5L31.3,93.2L32.1,93.3L32.8,93.6L33.7,93.8L34.0,94.0L34.6,94.2L35.3,94.7L36.0,97.4L36.6,99.0L36.8,99.9L38.7,103.9L40.3,106.4L42.6,109.3L45.0,111.7L47.6,113.9L50.3,115.5L51.6,116.1L52.7,116.7L53.6,116.9L55.3,117.6L56.3,117.9L56.7,118.1L60.0,118.7L60.1,118.9L62.8,119.1L64.9,119.1L66.0,119.0L67.2,119.0L71.6,118.2L73.2,117.4L74.3,117.3L75.4,116.9L79.7,114.7L82.3,112.8L83.8,111.3L86.5,108.6L87.8,107.0L87.9,106.6L89.0,105.1L90.6,102.4L91.1,101.0L91.5,100.3L92.2,98.5L93.0,95.7L93.4,94.9L94.1,94.6L94.7,94.5L95.1,94.3L95.9,94.2L97.3,93.7L97.8,93.4L98.8,93.2L99.7,92.7L100.0,92.5L100.5,92.3L101.2,91.8L101.5,91.7L104.1,90.2L105.7,89.0L108.2,86.9L110.7,83.9L110.8,83.5L111.5,82.6L111.8,82.1L112.4,81.4L112.6,80.8L112.8,80.6L113.8,78.5L115.2,75.3L115.9,72.9L116.7,68.4L116.9,66.6L116.9,62.8L116.7,62.1L116.7,61.0L116.4,59.8L116.3,58.5L115.0,54.0L114.8,53.9L113.2,50.0L112.6,49.2L111.5,47.4L109.2,44.2L106.3,41.4L104.1,39.6L99.8,36.9L96.8,35.6L94.7,35.0L93.8,34.4L93.1,31.8L92.3,29.2L91.1,26.6L90.6,25.9L90.0,24.4L86.9,20.0L84.7,17.6L81.9,15.3L80.4,14.2L77.5,12.5L76.8,12.2L75.3,11.5L74.9,11.4L74.3,11.0L73.8,10.9L73.4,10.7L72.6,10.5L71.7,10.1L68.5,9.4L67.1,9.3L66.6,9.2Z M64.2,13.1L65.8,13.1L66.8,13.3L68.9,13.9L70.1,14.4L71.1,15.1L73.0,16.8L74.2,18.4L75.1,20.4L75.2,21.1L75.5,21.8L75.6,22.9L76.0,23.7L76.2,26.0L76.9,29.8L77.0,31.5L77.3,33.5L77.5,37.1L77.8,39.0L77.9,42.2L78.3,45.3L78.3,47.6L78.6,49.1L78.9,61.1L78.8,63.7L78.3,64.2L72.8,64.4L69.3,64.3L68.7,64.4L68.6,64.7L68.9,64.9L70.1,65.5L70.5,65.8L72.5,66.6L73.6,67.3L74.3,67.5L76.3,68.7L79.7,70.3L82.9,72.0L83.3,72.3L84.3,72.7L84.9,73.1L85.4,73.2L87.0,74.1L87.8,74.2L88.4,74.0L90.6,72.9L91.0,72.8L91.6,72.4L91.9,72.4L92.7,71.9L93.2,71.8L93.4,71.5L94.9,71.0L97.2,69.7L101.3,67.8L102.3,67.1L106.0,65.2L106.1,64.8L97.5,64.7L96.9,64.4L96.7,63.0L96.6,58.1L96.4,57.0L96.4,54.0L96.4,52.9L96.9,52.5L98.9,52.7L104.1,53.8L106.0,54.4L108.2,55.7L109.3,56.5L110.1,57.3L111.4,59.1L112.0,60.3L112.6,61.9L113.0,63.9L112.9,67.0L112.7,67.8L112.0,69.9L111.5,71.0L110.4,72.4L109.5,73.3L107.7,74.6L105.3,75.6L103.0,76.2L100.3,76.6L100.0,76.7L99.4,76.7L98.7,76.9L97.6,77.1L96.0,77.2L88.2,78.2L83.7,78.5L83.2,78.7L81.7,78.7L77.5,79.0L75.4,79.0L74.6,79.2L67.1,79.2L65.3,79.0L65.0,78.4L64.8,71.4L64.9,69.4L64.8,69.2L64.5,69.2L64.2,69.4L63.7,70.7L62.8,72.1L62.8,72.4L62.1,74.0L60.8,76.6L59.6,79.4L57.1,84.4L55.7,87.7L55.7,88.4L55.9,88.7L56.4,90.0L56.8,90.8L57.2,91.8L59.0,95.8L59.0,96.2L59.4,96.9L59.8,98.1L60.2,98.8L60.4,99.4L61.1,100.7L61.3,101.6L61.6,101.9L62.4,104.2L62.8,104.8L63.3,106.3L63.8,107.5L64.3,107.5L64.4,107.3L64.6,98.7L64.8,97.8L65.4,97.4L66.0,97.3L70.5,97.3L71.6,97.2L74.6,97.2L75.6,97.0L76.0,97.3L76.0,99.5L74.8,105.8L73.8,108.7L73.1,109.9L72.9,110.5L71.0,112.6L69.5,113.7L68.6,114.2L67.4,114.7L65.3,115.1L63.3,115.1L62.2,115.0L60.7,114.6L58.6,113.6L57.5,112.8L55.6,110.7L55.2,110.1L55.0,109.5L54.8,109.3L54.7,108.9L54.3,108.2L53.8,106.4L53.3,104.1L53.0,100.9L52.6,98.8L52.5,96.8L52.2,95.2L52.1,93.2L51.7,90.7L51.6,87.3L51.3,86.5L51.4,85.5L51.2,84.8L51.2,81.5L50.9,79.5L50.9,77.4L50.7,73.6L50.9,65.1L51.0,64.7L51.4,64.4L60.4,64.4L60.6,64.4L60.8,64.1L60.1,63.6L58.6,62.9L58.2,62.5L52.7,59.9L52.4,59.6L48.8,57.8L47.9,57.5L47.7,57.3L46.1,56.6L45.4,56.1L45.0,56.0L43.9,55.4L43.1,55.1L42.7,54.8L42.2,54.6L41.6,54.6L40.5,54.9L39.2,55.7L37.1,56.6L35.5,57.4L33.4,58.4L33.1,58.6L32.5,58.8L31.3,59.5L30.9,59.6L28.7,60.6L27.7,61.2L26.4,61.8L26.0,62.1L25.4,62.2L24.2,62.9L23.5,63.3L23.1,63.6L23.1,63.7L24.2,63.9L28.1,63.9L29.2,64.0L31.9,64.1L32.4,64.6L32.5,65.2L32.5,69.5L32.8,75.0L32.8,76.2L32.4,76.5L31.3,76.5L29.9,76.2L28.2,76.0L26.2,75.6L25.3,75.3L24.5,75.2L21.6,74.1L19.3,72.7L18.0,71.4L16.8,69.7L15.7,66.9L15.2,64.2L15.2,62.9L15.5,61.0L16.3,58.8L17.3,56.9L18.1,55.9L19.8,54.4L21.7,53.3L23.2,52.7L24.5,52.5L25.3,52.2L28.3,51.5L34.5,50.9L35.6,50.7L37.0,50.7L37.5,50.5L41.3,50.3L41.8,50.1L48.0,49.8L48.7,49.6L55.0,49.5L55.8,49.3L57.4,49.4L63.1,49.2L64.2,49.4L64.7,49.9L64.8,50.9L64.7,58.7L64.8,58.8L65.2,58.8L65.4,58.6L67.4,54.7L67.7,54.3L71.5,46.6L73.9,42.1L74.4,41.0L74.4,40.6L73.8,39.2L72.3,36.2L72.1,35.3L71.9,35.1L71.7,34.5L71.0,33.3L70.8,32.6L68.3,27.6L67.9,26.3L66.6,24.1L65.7,22.1L65.4,21.8L65.2,21.8L65.1,22.3L65.0,29.7L64.9,30.3L64.7,30.6L64.2,30.7L61.2,30.8L58.4,31.1L53.9,31.1L53.7,31.0L53.4,30.5L53.8,26.9L54.2,25.3L54.2,24.2L54.6,22.7L54.6,22.2L55.7,19.1L56.5,17.4L58.5,15.4L59.7,14.5L61.8,13.6Z" fill="#000" fill-rule="evenodd"/>
</svg>