<svg xmlns="http://www.w3.org/2000/svg" viewBox="0 0 128 128" width="128" height="128">
  <path d="M63.5,9.0L58.2,9.4L57.8,9.5L54.3,9.9L53.7,10.2L52.7,10.3L52.4,10.4L50.9,10.7L50.4,11.0L49.2,11.1L43.8,13.1L43.4,13.3L42.2,13.7L40.6,14.6L40.2,14.7L35.8,17.1L34.2,18.2L33.6,18.5L31.1,20.6L30.2,21.1L26.7,24.4L23.1,28.5L22.9,28.9L21.6,30.5L19.1,34.1L18.7,35.0L17.8,36.3L17.7,36.8L17.2,37.6L16.0,40.0L14.1,44.2L12.3,49.6L12.2,50.8L11.9,51.7L11.8,52.7L11.4,54.1L11.3,55.2L11.1,56.0L10.6,61.1L10.7,67.9L10.8,68.7L11.0,71.7L11.9,76.8L12.2,77.3L12.8,80.0L13.1,80.6L13.7,82.9L14.0,83.4L14.0,83.8L14.5,84.7L15.5,87.1L16.0,88.1L16.2,88.4L16.9,90.0L17.3,90.6L17.3,90.9L18.3,92.3L18.8,93.3L21.4,97.2L23.1,99.3L24.0,100.2L24.2,100.6L28.0,104.5L29.7,106.1L31.5,107.4L32.5,108.3L36.4,111.1L40.7,113.5L46.0,115.7L49.9,117.1L50.6,117.2L52.5,117.7L55.0,118.1L57.8,118.6L64.6,119.1L69.4,118.8L69.9,118.6L72.8,118.3L76.4,117.6L76.9,117.3L78.3,117.1L81.3,116.2L81.8,115.9L83.4,115.4L84.1,115.0L85.5,114.5L89.5,112.5L92.9,110.5L94.4,109.3L97.2,107.4L98.0,106.6L99.5,105.4L102.4,102.5L105.0,99.7L108.8,94.4L110.7,91.1L112.2,88.1L112.3,87.7L113.0,86.4L113.8,84.4L115.7,78.5L115.8,77.6L116.2,76.4L116.6,74.1L117.0,72.6L117.6,67.4L117.7,62.9L117.3,58.0L116.5,52.8L115.8,50.2L115.7,49.1L114.9,46.9L114.9,46.6L114.4,45.4L114.3,44.6L114.0,44.2L113.9,43.5L113.6,43.2L112.6,40.4L112.2,39.8L112.0,39.2L109.5,34.7L107.1,31.1L106.8,30.9L105.5,29.0L104.3,27.6L100.3,23.4L98.3,21.6L97.4,21.0L95.5,19.4L93.7,18.2L92.8,17.5L92.1,17.3L90.3,16.1L88.4,15.1L87.4,14.4L86.7,14.2L84.6,13.2L83.4,12.8L82.0,12.2L80.0,11.6L79.3,11.3L76.8,10.7L76.0,10.6L75.1,10.3L70.0,9.4L67.5,9.3L66.9,9.1Z M104.1,65.5L104.3,66.1L104.2,68.1L103.6,73.1L103.1,75.0L103.0,75.8L102.3,78.2L102.1,79.2L102.0,79.3L101.6,80.7L100.8,82.8L100.8,83.1L100.5,83.4L100.4,84.1L99.9,84.7L99.9,85.2L99.5,85.6L99.5,86.1L99.1,86.5L98.9,87.2L96.5,91.5L94.2,94.7L92.1,97.2L91.9,97.5L90.1,99.5L86.6,102.5L83.7,104.5L83.2,104.7L82.2,105.4L79.8,106.6L77.4,107.7L73.3,109.0L68.8,109.8L65.0,109.9L64.4,109.4L64.5,65.6L64.7,65.4L65.2,65.2L72.8,65.2L102.6,65.3Z M24.3,65.2L24.7,65.0L26.8,67.4L27.5,68.0L28.5,69.4L31.7,72.7L32.4,73.7L33.0,74.2L33.2,74.6L39.3,81.4L41.0,83.5L42.0,84.5L43.8,86.8L47.8,91.3L48.7,92.5L52.0,96.1L56.6,101.6L61.5,107.2L63.2,109.4L63.2,109.8L63.1,109.9L60.9,109.9L57.7,109.5L56.7,109.1L55.9,109.0L55.3,108.8L54.0,108.6L53.6,108.3L53.3,108.3L51.9,107.8L51.4,107.7L50.7,107.3L50.2,107.2L48.2,106.1L47.6,106.0L43.8,103.8L43.4,103.4L42.1,102.6L39.5,100.4L37.6,98.4L35.7,96.3L35.2,95.5L33.1,92.9L31.6,90.5L31.5,90.2L30.4,88.4L29.4,86.6L27.6,82.4L27.4,81.6L27.2,81.4L26.6,79.3L26.4,78.9L26.2,77.8L25.7,76.4L25.3,74.1L25.1,73.4L24.7,70.6L24.5,69.7L24.3,65.7Z M44.8,23.3L45.1,23.6L45.2,24.7L45.2,36.7L45.4,45.4L45.3,63.7L45.0,64.1L44.6,64.2L26.8,64.1L24.7,64.0L24.3,63.7L24.4,59.4L24.6,57.6L24.7,57.2L24.7,56.6L25.4,53.3L25.4,52.8L25.8,51.6L25.9,50.8L26.1,50.3L26.4,49.1L26.8,48.0L26.8,47.7L29.0,41.6L31.8,36.4L33.4,33.8L33.7,33.6L35.2,31.4L37.5,28.9L40.4,26.1L43.6,23.9L44.6,23.3Z M64.9,17.9L68.5,18.0L69.8,18.3L71.3,18.5L74.8,19.4L75.2,19.6L77.2,20.2L77.8,20.6L78.5,20.7L79.0,21.0L80.2,21.5L84.2,23.9L86.1,25.2L86.8,25.9L87.1,26.0L88.7,27.3L91.6,30.2L95.8,35.7L95.8,35.9L97.4,38.2L99.9,43.0L100.4,44.5L100.8,45.2L100.9,45.9L101.2,46.5L103.0,52.4L103.7,56.2L104.3,61.9L104.3,63.6L104.1,64.2L103.9,64.4L91.4,64.6L89.6,64.4L83.6,64.4L65.8,64.4L65.0,64.3L64.6,64.0L64.4,59.0L64.4,28.5L64.5,18.5Z" fill="#000" fill-rule="evenodd"/>
</svg>