<svg xmlns="http://www.w3.org/2000/svg" viewBox="0 0 128 128" width="128" height="128">
  <path d="M60.3,22.2L54.7,23.0L53.5,23.3L52.5,23.5L52.0,23.7L51.2,23.9L50.6,24.2L49.5,24.6L48.5,24.7L47.8,25.1L47.3,25.2L46.6,25.6L45.5,26.0L45.0,26.4L44.3,26.6L42.8,27.6L40.4,28.7L38.3,30.1L35.5,32.3L31.4,36.3L30.1,38.0L28.8,39.5L26.8,42.3L25.0,45.7L23.3,49.7L21.5,55.8L21.5,56.8L21.3,57.6L21.3,58.6L21.0,60.4L20.9,64.7L20.7,65.3L20.1,65.7L11.1,65.6L9.8,65.7L9.3,66.0L9.1,67.7L9.2,72.3L9.1,78.0L9.2,79.3L9.7,79.5L11.4,79.4L13.8,79.6L22.4,79.6L23.8,79.7L24.2,80.3L25.4,82.7L26.4,84.5L26.8,85.5L28.5,88.0L30.5,90.8L31.8,92.4L34.8,95.4L37.1,97.4L40.3,99.6L41.1,99.9L41.8,100.4L43.4,101.2L44.2,101.7L45.1,102.1L45.3,102.1L45.8,102.4L47.2,102.9L47.9,103.4L49.4,103.7L51.2,104.5L54.4,105.2L55.0,105.4L59.3,106.0L65.5,106.1L66.7,105.9L68.1,105.9L69.4,105.7L71.5,105.5L74.2,105.0L78.5,103.7L79.0,103.4L80.2,103.1L81.2,102.6L81.6,102.5L83.2,101.7L83.8,101.6L89.1,98.4L91.0,96.9L92.5,95.4L93.0,95.2L95.0,93.2L97.0,90.9L99.9,87.0L100.2,86.3L100.9,85.3L100.9,84.9L101.6,83.8L101.9,83.2L102.5,82.4L102.7,81.7L102.9,81.4L103.2,80.7L103.4,80.3L103.9,78.7L104.2,78.3L104.5,77.1L104.6,77.0L105.0,75.8L105.6,73.3L105.6,73.0L105.9,72.3L106.2,69.3L106.5,67.8L106.5,63.0L106.7,62.7L107.1,62.3L108.2,62.1L114.9,62.2L115.4,62.0L118.9,62.0L119.2,57.5L119.2,49.0L118.9,48.6L106.7,48.5L103.7,48.3L103.1,47.7L101.9,44.9L100.8,43.0L99.1,40.6L98.8,40.0L96.3,36.8L92.9,33.3L89.2,30.3L87.5,29.3L86.8,28.6L85.9,28.3L85.5,27.9L84.9,27.6L84.5,27.3L81.7,26.0L81.3,25.9L80.9,25.6L76.2,23.9L74.2,23.3L73.2,23.2L73.0,23.0L68.1,22.3L64.9,22.1Z M66.6,80.3L66.4,81.8L65.9,83.2L65.8,84.0L65.0,86.7L64.9,87.7L64.2,91.1L63.7,92.0L63.2,92.4L62.7,92.6L60.5,92.6L58.8,92.4L55.9,91.7L52.8,90.7L49.6,89.2L46.4,87.1L44.3,85.4L41.6,82.6L40.4,81.0L40.1,80.5L40.1,80.0L40.5,79.7L40.8,79.7L55.5,79.7L65.8,79.6L66.2,79.7Z M92.4,66.1L92.5,66.4L92.5,66.8L92.3,67.7L92.3,68.4L92.0,70.2L91.6,71.3L91.5,72.3L90.6,74.3L90.5,75.0L89.2,77.3L88.5,78.8L87.2,80.9L86.2,82.0L85.6,82.9L84.2,84.3L82.1,86.2L80.0,87.7L78.5,88.7L75.1,90.4L74.2,90.7L73.1,91.2L71.2,91.6L70.2,92.0L69.2,92.0L66.5,92.6L65.5,92.6L64.8,92.8L64.3,92.8L64.2,92.4L65.6,90.9L68.4,88.4L72.1,84.7L74.5,82.5L87.0,70.3L89.0,68.6L90.4,67.1L90.6,67.0L91.4,66.3L91.9,66.0Z M92.6,64.0L92.6,64.7L92.3,65.4L91.8,65.7L90.6,65.9L89.2,65.9L88.2,65.7L63.2,65.7L62.2,65.9L61.6,65.9L61.2,65.7L54.3,65.7L50.9,65.8L44.5,65.7L38.5,65.7L35.8,65.7L35.2,65.5L34.8,65.0L34.7,63.3L35.0,62.7L35.6,62.5L36.4,62.4L73.2,62.4L74.5,62.3L77.8,62.3L84.2,62.2L90.9,62.2L91.9,62.3L92.5,62.7Z M62.1,36.1L62.2,36.5L60.8,38.0L60.2,38.3L58.2,40.5L45.0,52.9L44.0,54.0L42.6,55.1L39.6,58.0L37.5,60.2L35.2,62.0L34.8,62.1L34.7,62.0L35.2,58.6L35.6,57.4L35.6,57.1L35.9,56.5L36.3,54.8L36.8,53.7L36.9,53.2L37.1,53.1L37.5,52.3L38.1,50.8L38.6,49.9L39.7,48.5L40.6,47.0L43.9,43.4L47.5,40.5L48.6,40.0L49.8,39.2L50.9,38.8L51.4,38.5L51.6,38.5L52.8,37.9L54.2,37.5L54.5,37.3L58.5,36.3L59.8,36.1Z M59.6,47.7L59.8,47.4L59.8,46.7L60.2,46.0L60.2,45.3L60.6,44.3L60.6,43.9L61.2,42.0L61.5,40.6L61.8,40.2L61.8,39.6L62.1,39.1L62.2,38.4L62.5,37.6L62.5,37.1L63.1,36.2L63.5,36.0L64.1,35.9L66.5,36.0L70.9,36.8L72.2,37.3L73.8,37.6L74.5,38.0L75.2,38.2L77.7,39.4L78.8,40.1L79.2,40.3L81.7,42.0L82.3,42.6L83.0,43.0L85.6,45.7L86.9,47.3L87.1,47.7L87.0,48.3L86.8,48.5L85.2,48.7L80.4,48.7L76.4,48.6L60.4,48.6L60.0,48.5L59.8,48.3Z" fill="#000" fill-rule="evenodd"/>
</svg>