<svg xmlns="http://www.w3.org/2000/svg" viewBox="0 0 128 128" width="128" height="128">
  <path d="M9.5,81.9L9.2,84.8L9.3,89.1L9.5,91.1L9.8,91.8L10.2,93.9L11.2,96.7L13.3,100.8L15.1,103.3L15.6,104.1L16.8,105.7L18.5,107.4L21.0,109.6L23.8,111.6L24.5,111.8L25.8,112.6L27.5,113.4L30.5,114.5L31.7,114.6L33.2,115.1L34.2,115.2L34.6,115.4L35.9,115.4L37.6,115.7L41.4,115.7L44.7,115.1L45.6,114.7L46.6,114.5L51.1,112.8L53.9,111.0L54.5,110.7L55.6,109.8L56.6,109.5L56.8,109.2L57.1,108.6L59.8,106.0L61.1,104.4L63.0,101.2L65.1,96.6L66.0,94.3L66.2,93.2L66.3,93.1L66.9,91.4L67.9,89.4L68.7,88.3L70.0,87.0L70.6,86.6L72.0,85.9L73.8,85.4L74.7,85.3L77.5,85.5L77.9,85.8L78.6,85.9L82.1,87.6L82.6,88.1L83.2,88.3L84.2,89.2L84.4,89.8L84.1,90.4L80.4,92.1L79.8,92.6L79.7,93.1L80.7,94.6L80.8,95.1L83.3,98.7L84.2,100.2L84.7,100.8L85.3,100.6L85.9,100.0L87.0,99.5L88.1,98.8L88.6,98.6L88.9,98.3L89.4,98.1L89.8,97.7L92.0,96.6L93.8,95.4L95.0,94.8L95.4,94.4L96.0,94.3L97.2,93.4L98.6,92.8L99.1,92.5L99.5,91.9L99.4,91.2L99.4,84.6L99.2,83.2L99.3,79.3L99.4,78.5L99.4,75.0L99.3,74.7L91.1,74.5L90.1,74.6L89.8,75.0L89.9,76.3L90.0,79.7L89.5,80.4L89.1,80.4L88.3,80.1L85.0,77.9L84.5,77.7L83.4,77.0L80.7,76.0L79.5,75.7L76.9,75.2L74.1,75.2L72.4,75.4L69.1,76.4L65.4,78.0L63.5,79.3L61.5,81.2L60.5,82.4L59.4,84.0L58.1,86.5L57.1,89.3L57.0,89.8L56.7,90.4L56.0,92.6L55.7,93.0L55.6,93.5L54.7,95.2L54.5,95.8L53.9,96.9L52.0,99.3L49.8,101.4L48.1,102.6L46.2,103.6L43.6,104.5L43.2,104.5L39.9,105.3L37.0,105.3L34.4,104.9L32.6,104.4L29.5,103.0L27.7,101.9L27.1,101.3L26.4,100.8L24.5,99.0L23.2,97.6L22.3,96.2L21.3,94.3L21.3,94.1L20.8,93.3L20.3,91.9L20.2,91.0L19.9,90.4L19.5,87.6L19.5,84.7L20.0,81.5L20.8,79.2L22.3,76.1L24.7,73.0L26.3,71.6L28.4,70.2L32.7,68.1L33.0,67.7L33.0,67.4L32.0,65.7L30.2,62.9L27.8,58.8L27.5,58.6L26.9,58.6L22.5,61.0L19.1,63.6L16.2,66.6L13.6,70.2L13.3,70.9L12.8,71.5L12.7,71.9L11.9,73.3L10.8,76.2Z M63.3,30.3L59.6,32.5L58.0,33.6L56.3,34.4L55.6,34.9L54.3,35.6L52.8,36.6L50.5,37.9L49.3,38.9L49.2,39.4L49.9,40.6L50.2,41.6L51.3,43.4L51.9,44.8L53.3,47.0L53.7,47.1L54.6,46.6L56.1,45.7L56.7,45.1L58.1,44.4L58.4,44.5L58.8,44.9L58.9,52.0L58.9,52.9L59.5,55.6L60.4,57.7L61.5,59.8L63.4,62.3L66.8,65.3L67.4,65.7L68.7,66.6L71.5,67.9L73.8,68.5L75.1,68.6L77.8,68.7L78.5,68.5L80.7,68.5L81.5,68.2L86.1,67.4L89.4,67.2L93.8,67.6L94.6,67.9L95.7,68.1L96.0,68.4L97.7,69.0L99.5,70.0L101.6,71.4L103.0,72.7L105.3,75.5L106.5,77.5L106.7,78.0L106.9,78.3L107.4,79.5L108.4,82.7L108.6,84.5L108.7,87.1L108.5,88.7L107.8,91.9L106.5,95.2L105.6,97.0L103.8,99.3L102.6,100.5L100.7,102.0L98.1,103.6L94.0,105.1L93.2,105.2L92.0,105.6L88.4,105.6L87.4,105.4L85.1,105.1L83.1,104.3L82.3,104.1L81.0,103.3L80.2,103.0L79.7,102.6L79.1,102.2L77.1,100.5L76.5,100.5L75.3,103.0L74.7,103.8L71.9,109.3L71.9,109.9L75.2,112.2L78.3,113.6L79.2,113.9L79.6,114.1L81.6,114.9L82.5,115.0L83.6,115.3L85.7,115.7L89.6,115.9L91.6,115.9L93.3,115.7L97.7,115.0L101.5,113.6L105.6,111.5L108.1,109.5L111.0,106.7L112.8,104.8L113.3,103.9L113.7,103.5L115.0,101.6L116.2,99.0L116.6,98.4L116.9,97.2L117.9,94.9L118.0,93.7L118.3,93.2L118.5,91.8L118.7,91.0L119.0,88.2L119.0,84.5L118.8,82.3L118.3,80.3L118.3,79.7L117.9,78.4L117.9,77.9L116.4,74.1L115.5,72.2L114.7,71.2L114.0,69.9L113.1,68.5L110.7,65.7L107.9,63.1L106.6,62.1L104.3,60.7L103.7,60.2L101.5,59.0L97.3,57.7L94.3,57.0L91.3,56.7L86.8,56.8L84.2,57.3L80.7,58.1L79.8,58.1L78.8,58.4L76.1,58.4L74.7,58.0L73.0,57.1L72.1,56.4L71.1,55.4L70.4,54.5L69.4,52.1L69.1,50.2L68.9,46.0L69.1,45.1L69.5,44.6L70.1,44.7L73.5,46.9L74.2,47.1L74.6,46.7L75.8,44.0L78.3,39.5L78.4,38.9L78.2,38.6L76.0,37.2L75.7,37.1L74.8,36.5L71.8,34.7L70.9,34.3L69.8,33.6L67.2,32.2L66.8,31.9L65.7,31.4L64.6,30.5L64.0,30.3Z M74.6,14.4L69.6,12.9L66.7,12.5L64.3,12.4L59.5,12.8L57.4,13.3L56.6,13.4L56.1,13.6L54.9,13.9L53.5,14.6L52.1,15.1L50.7,15.7L50.5,16.0L49.8,16.3L49.5,16.5L48.8,16.8L46.2,18.5L44.5,20.0L42.0,22.6L40.5,24.5L38.6,27.5L37.2,30.2L36.5,31.9L35.4,35.9L35.3,37.6L35.0,38.3L34.8,40.3L34.9,44.1L35.2,45.2L35.4,47.8L35.7,48.6L35.9,50.2L36.6,52.2L37.4,53.8L37.4,54.0L38.9,56.7L41.0,59.5L45.1,64.3L46.1,65.7L46.5,66.8L46.6,66.9L47.0,68.4L47.1,70.6L46.6,72.4L46.1,73.8L45.2,75.2L42.3,77.8L39.1,79.8L38.3,80.1L38.1,80.1L37.7,79.8L37.6,79.2L37.6,74.4L37.3,74.2L29.2,74.4L28.8,74.5L28.5,74.8L28.4,91.8L28.8,92.3L30.4,93.2L31.2,93.8L33.6,95.0L34.8,95.9L35.9,96.3L36.8,97.0L37.6,97.3L38.1,97.7L42.8,100.5L43.1,100.5L43.4,100.3L48.0,92.8L47.9,92.4L43.7,90.0L43.3,89.6L43.3,89.2L44.1,88.5L46.5,87.0L47.4,86.6L49.1,85.4L51.5,83.4L53.3,81.4L54.6,79.3L56.6,75.1L56.9,73.4L56.9,72.7L57.2,71.8L57.3,69.2L57.1,66.5L56.8,65.2L56.1,63.2L55.6,61.9L55.3,61.7L54.7,60.2L53.4,58.5L52.7,57.3L49.5,53.9L47.3,50.9L45.7,47.5L45.3,46.2L44.9,44.3L44.9,41.5L45.3,38.0L45.7,36.6L45.8,35.9L47.3,32.5L48.4,30.7L50.0,28.7L52.2,26.6L54.3,25.2L56.4,24.1L59.6,23.0L62.0,22.7L66.5,22.7L68.6,23.1L69.1,23.4L70.5,23.7L70.9,24.0L71.6,24.1L73.5,25.2L75.9,26.9L78.3,29.2L80.2,31.8L81.0,33.6L82.5,37.9L82.6,39.6L82.6,41.8L82.3,45.7L82.6,46.0L89.4,45.5L89.9,45.4L92.6,45.2L93.1,44.7L93.0,38.9L92.4,34.8L92.1,34.0L91.5,31.8L91.0,30.4L90.7,29.9L90.4,29.2L89.4,27.4L88.8,26.6L88.2,25.3L87.2,24.0L84.4,20.8L82.0,18.7L78.4,16.3L77.2,15.6L76.6,15.4Z" fill="#000" fill-rule="evenodd"/>
</svg>