<svg xmlns="http://www.w3.org/2000/svg" viewBox="0 0 128 128" width="128" height="128">
  <path d="M61.8,9.1L56.7,9.5L53.6,10.2L52.5,10.3L46.9,11.8L46.8,12.0L46.1,12.1L41.1,14.1L40.9,14.3L39.2,15.0L37.1,16.1L36.7,16.5L35.3,17.2L30.7,20.5L26.4,24.3L23.8,27.0L20.8,30.5L20.5,31.0L20.3,31.2L18.7,33.4L18.7,33.5L17.2,35.9L15.6,38.7L14.3,41.6L13.9,42.3L13.1,44.1L12.5,46.4L11.3,49.7L11.0,51.4L10.8,52.0L10.4,54.0L10.2,55.7L10.0,56.3L9.7,58.4L9.7,60.9L9.5,61.5L9.6,66.7L9.8,68.8L9.8,70.2L10.6,75.6L11.0,76.5L11.3,78.0L11.6,78.7L11.7,79.7L12.3,81.5L13.1,83.6L13.9,86.0L15.3,88.9L16.0,90.0L16.2,90.8L17.0,91.8L17.2,92.4L19.8,96.4L21.7,99.0L25.2,102.9L29.3,106.6L29.8,106.9L32.5,109.1L35.7,111.2L37.6,112.2L38.0,112.5L39.2,113.0L39.6,113.4L40.2,113.5L41.7,114.3L41.9,114.3L42.6,114.7L43.2,114.9L43.5,115.1L44.3,115.3L44.6,115.5L45.6,115.8L47.3,116.5L48.2,116.7L48.6,116.9L54.9,118.4L59.1,118.9L61.3,119.0L62.3,119.2L64.6,119.2L70.8,118.7L72.2,118.4L75.4,118.0L75.9,117.7L76.9,117.6L79.6,116.8L84.6,115.1L85.3,114.6L85.5,114.6L87.0,113.9L87.5,113.8L88.0,113.4L88.6,113.3L88.8,113.0L89.6,112.7L89.9,112.5L93.1,110.8L93.5,110.4L94.1,110.1L94.3,109.9L94.6,109.8L95.2,109.3L95.3,109.3L98.4,107.0L102.9,103.0L103.2,102.6L105.8,99.9L105.9,99.7L108.7,96.1L109.4,94.9L110.3,93.7L111.2,92.0L112.0,90.9L112.1,90.5L113.8,87.3L113.9,86.8L114.8,85.2L115.3,83.2L115.7,82.6L116.9,78.9L117.5,75.6L117.9,74.1L118.1,73.2L118.0,72.3L118.2,72.1L118.2,71.5L118.4,70.8L118.5,69.3L118.7,68.6L118.7,62.5L118.6,61.5L118.6,59.5L118.4,59.1L118.2,56.1L118.0,55.7L117.8,53.7L116.9,50.5L116.9,49.8L115.7,45.9L115.3,45.4L114.7,43.5L114.0,42.0L113.9,41.6L113.5,40.8L113.4,40.4L113.1,40.0L112.0,37.7L111.7,37.4L111.1,36.2L110.8,35.9L110.3,34.9L107.4,30.7L105.8,28.7L104.5,27.4L104.4,27.1L101.3,24.0L98.9,21.8L97.1,20.5L96.5,19.9L92.5,17.2L91.9,16.9L90.9,16.2L89.3,15.5L88.9,15.1L87.9,14.7L87.3,14.3L86.9,14.2L86.4,13.9L86.2,13.9L83.5,12.7L82.5,12.5L82.2,12.2L78.8,11.1L77.2,10.8L76.3,10.4L74.7,10.3L74.1,10.0L73.0,9.9L71.7,9.6L67.9,9.2Z M57.3,17.6L59.6,17.6L60.1,17.4L61.7,17.4L62.7,17.2L67.0,17.3L71.7,17.9L73.6,18.3L74.6,18.8L75.4,18.9L76.8,19.5L78.3,20.3L78.7,20.4L80.4,21.5L81.0,21.8L83.1,23.5L85.1,25.4L86.9,27.6L88.3,30.0L88.7,30.5L89.9,33.0L90.8,35.6L91.3,38.0L91.7,40.4L91.7,44.3L91.1,47.9L90.5,50.1L90.0,51.4L89.8,52.1L89.2,53.2L89.0,53.8L88.3,54.9L88.1,55.4L86.1,58.3L83.6,60.9L81.9,62.4L81.2,62.7L80.2,63.5L79.4,63.7L78.8,63.1L77.2,60.4L76.6,59.5L75.9,58.1L75.5,57.7L75.0,57.8L73.1,61.0L72.8,61.8L71.9,63.1L70.3,65.9L69.6,67.3L68.5,69.1L68.3,69.8L67.1,71.5L66.9,72.2L66.1,73.3L64.1,77.3L64.4,77.5L72.6,77.6L83.7,77.6L86.7,77.5L86.9,77.4L86.8,76.8L84.2,72.4L84.0,71.8L84.0,71.4L84.5,70.7L87.0,68.9L87.4,68.8L88.7,67.6L89.0,67.4L91.8,64.5L93.1,62.9L93.8,61.9L94.3,61.2L95.6,59.2L96.0,58.4L96.6,57.5L97.2,56.1L97.5,55.6L98.2,53.5L98.6,52.7L98.6,52.2L98.9,51.5L99.1,50.3L99.4,49.7L99.6,47.6L99.9,46.7L100.0,44.7L100.0,39.9L99.9,38.7L99.5,37.3L99.5,36.8L99.0,36.0L98.6,34.3L97.3,31.8L96.9,31.1L96.7,30.5L97.0,30.5L99.2,32.6L102.0,36.4L103.4,38.6L105.7,43.3L105.7,43.5L107.3,47.1L107.5,47.8L107.9,48.6L108.9,52.2L109.7,55.9L110.2,59.3L110.5,63.2L110.3,65.5L110.4,67.2L110.2,68.0L110.1,70.6L109.8,71.4L109.7,73.2L108.8,76.7L107.4,80.9L106.1,83.8L106.1,84.0L103.5,88.8L100.3,93.3L97.7,96.3L95.6,98.0L94.5,98.7L94.1,99.1L92.2,100.1L92.0,100.3L88.2,101.8L84.9,102.6L81.6,102.9L78.1,102.7L75.0,102.2L73.9,101.8L73.0,101.6L72.5,101.3L71.3,101.0L69.8,100.2L69.6,100.0L68.2,99.3L66.8,98.4L64.6,96.7L62.6,94.7L62.5,94.5L61.7,93.7L60.4,92.0L58.1,87.9L57.2,85.2L57.1,84.5L56.3,81.7L56.1,79.8L56.2,78.0L56.8,77.5L62.4,77.5L63.4,77.5L63.6,77.1L62.9,76.2L61.4,73.5L60.8,72.6L60.6,72.1L60.3,71.8L59.3,69.8L58.2,68.1L58.0,67.4L57.6,67.1L57.1,65.9L56.7,65.4L56.1,64.2L55.8,63.9L52.5,58.2L52.1,58.1L51.8,58.2L51.5,58.5L50.7,60.2L49.5,62.0L49.4,62.5L47.7,65.5L47.3,66.0L47.1,66.5L46.4,67.6L45.9,68.6L44.1,71.5L43.6,72.7L42.7,74.0L41.8,75.8L41.0,77.1L41.1,77.6L46.9,77.8L47.4,78.1L47.6,78.7L47.6,80.0L47.8,82.2L48.2,83.4L48.2,84.5L49.1,88.0L50.0,90.3L51.8,94.1L52.8,95.8L54.3,98.0L56.2,100.3L58.8,102.9L62.3,105.7L62.9,105.9L64.0,106.7L65.3,107.2L66.6,107.9L69.1,108.8L71.3,109.3L73.4,109.5L74.2,109.8L74.2,110.0L74.0,110.2L73.0,110.4L66.9,110.8L61.7,110.8L56.9,110.4L54.6,109.9L53.4,109.7L50.1,108.8L47.9,108.1L47.0,107.6L45.3,107.0L41.6,105.2L37.8,102.7L37.2,102.5L35.4,101.1L32.7,98.6L32.2,98.3L28.4,94.2L28.3,94.0L27.1,92.5L26.8,91.9L26.4,91.5L24.3,88.5L22.6,85.2L21.1,82.0L20.6,80.4L20.2,79.6L19.9,78.5L19.8,77.6L19.6,77.4L19.5,74.9L19.3,74.0L19.4,69.0L19.9,66.8L20.0,66.5L20.3,65.1L20.5,64.6L20.8,63.6L21.1,63.1L21.2,62.5L21.5,62.1L21.6,61.6L22.4,60.3L22.6,59.8L22.8,59.5L23.5,58.2L24.7,56.5L27.7,53.5L30.9,51.0L33.4,49.6L35.5,48.7L36.2,48.5L37.3,48.0L40.2,47.5L40.6,47.4L41.5,47.4L42.2,47.2L45.6,47.2L46.6,47.3L50.3,48.0L52.4,48.7L54.8,49.7L55.8,50.5L55.8,51.1L54.8,52.9L54.1,54.0L53.4,55.4L52.8,56.4L52.7,56.9L53.3,57.2L70.4,57.2L74.5,57.0L74.8,56.8L74.8,56.5L74.3,55.7L74.3,55.3L73.0,53.3L71.4,50.3L71.0,49.8L69.7,47.4L68.8,46.2L68.3,45.1L66.2,41.8L66.1,41.3L65.7,40.9L64.9,39.1L64.4,38.5L64.2,38.0L63.9,37.7L63.4,37.8L61.6,40.8L61.2,41.8L60.8,42.3L60.8,42.4L60.3,42.8L59.6,42.7L59.0,42.3L58.6,42.2L54.8,40.5L51.1,39.4L47.6,38.9L45.4,38.7L42.8,38.7L40.5,38.9L37.5,39.3L34.4,40.1L32.3,40.8L31.3,41.3L30.8,41.4L30.3,41.7L29.1,42.2L27.7,43.1L27.2,43.3L25.7,44.2L24.2,45.4L22.6,47.1L21.5,48.4L21.3,48.8L19.5,51.2L19.2,51.1L19.8,48.7L20.8,46.5L22.6,42.8L23.8,40.7L25.1,38.9L25.2,38.4L26.9,36.0L28.8,33.6L30.1,32.2L34.4,28.0L35.1,27.5L36.6,26.2L37.5,25.8L38.7,24.8L39.9,24.2L40.2,23.9L40.7,23.7L42.0,22.8L42.9,22.5L43.4,22.1L43.9,21.9L44.3,21.6L45.5,21.2L46.1,20.8L51.4,18.9L51.8,18.9L53.7,18.4L54.6,18.3L55.0,18.1L55.8,18.1Z" fill="#000" fill-rule="evenodd"/>
</svg>