<svg xmlns="http://www.w3.org/2000/svg" viewBox="0 0 128 128" width="128" height="128">
  <path d="M61.0,9.5L54.2,10.4L51.0,11.1L50.7,11.3L49.1,11.6L45.7,12.7L44.5,13.2L43.3,13.6L42.2,14.1L41.9,14.1L41.3,14.6L41.0,14.6L39.9,15.1L39.6,15.4L39.2,15.5L38.6,15.9L38.2,15.9L37.6,16.4L37.1,16.5L34.7,18.1L33.5,18.7L31.5,20.1L31.0,20.7L30.0,21.4L27.3,23.6L23.8,27.0L20.3,31.2L19.6,32.2L18.8,33.1L17.6,35.1L15.1,39.5L13.4,43.2L13.2,43.8L12.4,45.7L12.3,46.2L12.0,46.6L11.8,47.7L11.1,49.8L10.8,51.3L10.6,51.6L10.1,53.7L9.9,56.1L9.6,57.3L9.3,61.0L9.2,61.7L9.2,67.5L9.5,68.9L9.5,70.3L9.9,72.6L10.0,73.8L11.0,78.2L11.3,78.9L11.5,80.1L12.9,84.1L15.4,89.7L17.8,93.6L17.9,93.9L18.3,94.4L19.1,95.8L21.4,98.7L23.4,101.0L26.7,104.3L29.6,106.8L33.8,109.8L34.3,110.0L35.2,110.7L37.9,112.1L38.1,112.4L38.7,112.5L41.7,114.1L42.3,114.3L43.9,115.0L48.6,116.6L50.4,117.1L51.6,117.2L52.9,117.6L53.8,117.7L55.1,118.1L55.6,118.1L56.1,118.2L57.5,118.3L58.0,118.5L61.3,118.6L62.0,118.8L69.6,118.6L74.2,117.9L78.4,117.0L79.3,116.6L79.8,116.6L84.4,115.0L84.8,114.8L86.4,114.2L87.7,113.4L88.5,113.3L88.8,113.0L89.5,112.7L89.8,112.5L91.9,111.4L92.3,111.1L92.8,110.9L93.1,110.6L94.6,109.7L95.2,109.2L95.4,109.2L97.3,107.7L98.4,107.0L100.9,104.7L101.9,104.0L104.8,101.0L109.0,95.8L109.3,95.2L110.9,93.0L111.6,91.6L111.8,91.4L112.1,90.7L112.3,90.5L112.9,89.1L113.7,87.9L113.8,87.4L114.2,86.7L114.3,86.3L115.1,84.8L115.1,84.5L115.2,84.3L115.5,83.2L116.0,82.3L116.4,81.1L116.5,80.5L116.9,79.6L117.1,78.3L117.4,77.8L118.4,73.0L118.5,71.4L118.7,71.1L119.0,67.8L119.0,60.5L118.3,55.0L118.0,54.0L117.9,52.6L117.5,51.7L116.9,48.8L116.6,48.1L116.5,47.5L116.2,46.8L116.0,45.9L115.6,45.2L115.5,44.7L114.9,43.6L114.8,42.9L113.7,40.6L111.0,35.5L108.0,31.1L103.5,25.9L100.5,23.1L96.7,20.1L96.3,19.9L94.4,18.5L90.5,16.1L88.8,15.4L88.6,15.1L86.8,14.5L86.4,14.1L85.8,14.0L85.4,13.7L84.8,13.6L84.4,13.3L83.9,13.2L83.1,12.8L82.4,12.7L81.8,12.3L81.2,12.2L80.6,11.9L79.3,11.7L77.9,11.2L77.5,11.2L74.6,10.4L73.5,10.4L71.4,9.9L67.0,9.5Z M89.6,97.9L90.0,98.0L89.9,98.5L89.7,98.5L89.5,98.2Z M35.7,77.1L38.8,77.0L41.2,77.3L41.7,77.6L42.5,77.7L42.8,78.0L43.3,78.1L45.2,79.1L46.7,80.3L48.5,82.1L50.0,84.6L51.1,88.0L51.3,90.7L51.0,93.1L50.2,95.8L49.5,97.3L47.7,99.7L46.1,101.2L44.4,102.3L42.7,103.2L40.5,103.8L38.8,104.1L36.3,104.1L34.4,103.7L32.1,102.9L29.9,101.7L29.1,101.1L27.3,99.3L26.4,98.1L25.2,96.0L24.3,92.9L24.1,91.0L24.3,88.4L25.1,85.5L25.6,84.4L25.9,84.1L26.1,83.5L26.9,82.5L27.4,81.7L28.8,80.3L30.4,79.1L33.0,77.7L33.4,77.7L34.3,77.3Z M34.9,24.8L36.4,24.6L40.2,24.8L43.0,25.7L45.3,26.9L46.4,28.0L47.1,28.5L48.2,29.6L49.1,30.9L50.2,33.3L50.8,35.2L51.1,37.9L50.8,40.9L49.7,43.8L48.9,45.3L48.1,46.5L46.0,48.4L44.3,49.7L43.8,49.8L43.6,50.1L42.1,50.8L38.9,51.5L36.4,51.5L34.0,51.1L33.3,50.8L32.4,50.6L31.3,50.0L29.0,48.5L27.0,46.6L26.1,45.3L25.3,43.9L25.0,43.0L24.7,42.5L24.2,40.6L24.2,39.7L24.1,39.3L23.9,37.4L24.2,36.2L24.3,35.1L24.5,34.5L24.8,33.3L25.2,32.7L25.3,32.2L25.6,31.9L25.7,31.5L26.7,30.0L28.2,28.2L30.5,26.6L32.8,25.4L34.7,24.9Z M61.6,13.6L67.0,13.7L67.3,13.9L67.7,14.4L67.8,35.9L68.0,39.2L67.8,41.1L68.0,44.3L68.0,55.0L68.1,59.5L68.2,59.8L76.7,59.9L101.3,59.6L101.4,59.3L101.0,58.8L92.2,50.2L91.8,49.9L87.7,45.7L87.3,45.2L87.3,45.0L87.8,44.3L90.1,41.9L91.5,40.7L92.1,40.6L92.6,40.9L98.0,46.2L99.2,47.2L109.0,57.0L109.8,57.7L111.3,59.3L111.7,59.6L115.2,63.3L115.2,63.8L114.6,64.5L92.7,86.6L92.3,86.7L91.9,86.6L91.3,86.2L87.9,82.8L87.7,82.5L87.7,82.1L88.3,81.3L101.3,68.2L101.5,67.8L101.2,67.5L68.9,67.8L68.5,67.9L68.2,68.1L68.1,85.1L68.3,113.5L68.2,113.9L68.0,114.3L67.1,114.5L61.1,114.4L60.7,114.3L60.5,113.8L60.3,108.7L60.4,96.9L60.3,85.8L60.2,80.8L60.3,73.9L60.1,68.0L59.7,67.9L48.7,67.9L15.4,68.1L14.0,68.0L13.5,67.6L13.4,67.3L13.4,61.2L13.5,60.8L14.1,60.3L26.1,60.1L30.0,60.2L44.0,60.0L57.2,60.0L59.5,59.8L59.8,59.6L60.0,59.3L60.1,54.0L59.9,42.8L60.0,38.7L59.8,27.6L59.8,14.5L60.4,13.8Z" fill="#000" fill-rule="evenodd"/>
</svg>