<svg xmlns="http://www.w3.org/2000/svg" viewBox="0 0 128 128" width="128" height="128">
  <path d="M7.7,112.7L7.7,114.1L8.0,114.1L12.8,119.1L14.8,119.1L8.9,113.4L8.0,112.7Z M7.7,104.9L7.7,107.1L8.0,107.1L10.2,109.0L13.9,112.9L15.1,113.8L16.0,114.8L20.4,119.1L22.4,119.1L22.2,118.7L19.5,116.3L16.7,113.2L8.0,104.9Z M7.7,95.2L7.7,99.5L8.0,99.5L9.3,100.5L10.0,101.4L13.5,104.9L17.1,108.1L21.8,113.1L24.8,115.9L26.2,117.0L27.3,118.2L28.4,119.1L32.4,119.1L30.3,117.1L29.3,116.8L27.8,116.6L25.5,114.5L20.8,109.5L19.4,108.5L15.6,104.6L10.0,99.1L9.8,98.7L9.8,97.5L9.4,96.8L8.0,95.2Z M7.7,87.4L7.7,91.9L8.0,91.9L11.9,95.9L15.6,99.3L17.8,101.6L29.8,113.1L33.1,116.6L35.8,119.1L40.2,119.1L39.7,118.7L36.3,115.2L34.0,113.2L33.5,113.1L32.4,113.1L31.6,112.7L30.3,111.7L28.2,109.4L24.5,106.0L22.0,103.3L21.3,102.8L19.0,100.3L17.6,99.3L14.2,95.7L13.7,94.7L13.7,93.6L13.5,93.1L12.8,92.0L9.1,88.7L8.0,87.4Z M7.7,79.6L7.7,84.6L8.0,84.6L17.6,94.1L18.3,94.5L21.5,97.9L26.4,102.5L33.0,109.2L33.5,109.4L41.5,117.5L43.2,119.1L48.2,119.1L47.6,118.7L47.1,118.0L38.4,109.5L37.6,109.2L35.6,109.2L32.6,106.5L31.6,105.3L19.5,93.6L17.6,91.3L17.8,90.1L17.2,88.7L8.0,79.6Z M7.7,74.2L7.7,77.0L8.0,77.0L8.6,77.7L12.8,81.6L18.5,87.4L21.6,90.3L24.1,92.9L31.9,100.3L36.1,104.8L37.6,105.8L47.6,116.1L50.3,118.4L50.8,119.1L54.4,118.9L54.4,118.0L53.7,117.0L48.4,112.0L43.8,107.2L41.8,105.6L40.4,105.5L39.3,105.1L38.3,104.1L37.2,103.3L31.0,97.2L30.5,96.4L26.4,92.7L25.5,91.7L22.0,88.3L21.3,87.1L21.3,85.5L20.8,84.6L13.7,77.9L11.9,75.9L9.6,74.0Z M11.2,71.3L11.0,72.2L11.4,72.9L13.0,74.3L20.2,81.8L26.8,88.0L29.8,91.1L42.5,103.3L48.0,109.2L50.1,110.9L53.1,114.1L55.8,116.4L56.8,116.4L57.4,116.3L58.3,115.4L58.1,114.1L57.4,113.6L55.6,111.3L51.7,107.6L49.6,104.9L48.7,104.4L46.2,102.1L45.5,101.8L43.9,101.6L43.0,101.2L41.1,99.5L37.6,95.7L36.7,95.2L32.4,90.8L25.5,84.1L25.4,83.5L25.5,82.1L24.1,80.4L14.6,71.0L13.2,70.1L12.6,70.1Z M16.2,66.4L14.9,67.6L14.9,68.3L15.3,69.0L16.7,70.6L20.8,74.3L27.5,81.2L30.1,83.5L31.9,85.5L44.6,97.9L45.7,99.3L46.4,99.6L47.6,100.7L48.7,101.9L50.8,103.9L50.8,104.4L52.1,105.6L53.1,106.4L56.8,110.2L59.7,112.7L60.7,112.7L61.1,112.5L62.1,111.5L62.3,110.8L60.4,108.3L55.2,103.3L52.9,101.4L50.3,98.4L48.4,97.9L46.8,97.2L43.9,94.5L43.2,93.6L41.8,92.4L38.4,88.8L37.9,88.5L37.4,87.8L35.3,86.0L34.6,85.1L29.6,80.4L29.3,79.6L29.3,78.1L28.5,77.2L17.8,66.6L17.4,66.4Z M19.0,63.7L18.8,64.1L18.8,64.8L19.4,65.7L23.1,69.2L23.4,69.9L24.7,70.8L32.3,78.6L35.6,81.6L37.6,83.7L40.6,86.4L47.8,93.8L49.9,95.4L50.3,95.4L51.2,96.4L51.4,97.2L52.1,97.9L52.6,98.9L54.2,100.5L54.9,100.9L57.5,103.3L63.0,108.8L63.4,109.0L64.4,109.0L66.0,107.6L66.0,106.5L64.4,104.8L55.2,95.7L54.7,95.6L53.5,94.5L52.9,94.3L51.5,94.3L51.2,93.8L46.1,89.0L41.6,84.4L39.3,82.5L39.0,81.8L33.7,76.6L33.3,76.1L33.3,74.7L33.0,73.8L31.4,72.0L22.4,63.2L21.3,62.5L20.4,62.5Z M22.9,60.0L22.7,60.7L23.1,61.4L24.7,63.4L43.6,81.8L48.7,86.9L49.1,87.6L49.8,88.0L50.6,89.0L61.4,99.5L64.8,103.0L67.4,105.3L68.3,105.3L69.0,104.9L69.9,104.1L69.9,103.0L58.8,91.7L57.4,90.6L56.3,90.4L55.1,89.9L52.4,87.4L46.8,81.6L46.1,81.2L45.3,80.4L37.9,73.1L37.4,72.2L37.4,71.7L36.7,70.1L35.3,68.5L31.4,64.8L30.8,63.9L30.1,63.2L28.4,62.0L26.6,60.0L25.5,59.1L24.8,58.8L23.9,59.0Z M27.8,55.1L26.8,56.1L26.4,56.8L26.4,57.4L30.0,61.3L33.7,64.8L37.4,68.7L39.5,70.5L40.7,71.9L43.6,74.5L44.1,74.7L45.2,75.6L45.7,75.6L46.1,75.9L46.1,76.6L47.3,78.4L53.8,84.8L54.2,85.0L57.4,88.5L58.8,89.6L61.4,92.4L62.3,93.1L65.0,95.9L70.5,101.2L71.5,101.8L71.9,101.8L72.9,101.2L74.0,100.2L74.0,99.5L70.1,95.2L66.6,91.7L63.9,89.4L63.2,89.0L62.5,89.0L60.9,88.3L59.0,86.5L58.1,85.5L57.4,85.0L48.5,75.9L48.2,75.9L46.6,74.5L46.1,73.5L40.7,68.3L39.2,66.4L38.8,65.5L38.8,65.0L37.9,63.4L31.9,57.2L31.2,56.8L29.6,55.1L29.1,54.9L28.2,54.9Z M31.9,51.2L30.5,52.8L30.5,53.7L31.4,54.9L32.4,55.8L43.2,66.7L45.9,69.0L46.2,69.0L47.5,70.5L47.8,71.3L48.7,72.0L50.3,73.8L57.0,80.4L57.7,80.7L60.6,83.9L74.5,97.5L75.2,97.9L75.9,97.9L76.8,97.3L77.9,96.3L77.9,95.6L77.5,94.9L72.4,89.7L71.0,89.2L70.3,89.2L69.0,88.5L63.7,83.4L59.3,78.8L58.8,78.6L51.2,70.8L49.1,69.2L47.1,67.1L46.9,66.2L45.3,64.8L44.6,64.4L40.7,60.4L39.5,59.3L38.8,57.9L38.6,56.3L36.9,53.8L35.6,53.1L34.9,52.2L34.2,51.9L33.9,51.4L33.0,51.0L32.3,51.0Z M18.6,16.9L18.3,17.9L18.3,18.5L18.6,19.2L21.1,22.0L28.0,28.7L29.1,30.1L33.5,34.4L35.8,36.9L35.3,37.4L34.4,36.3L33.3,35.4L32.6,35.1L31.6,33.7L28.4,30.8L26.6,28.9L22.5,25.2L19.4,21.8L18.6,21.3L17.9,21.3L17.6,21.5L17.4,21.8L17.4,22.9L18.1,25.0L18.8,26.4L20.2,28.4L29.1,37.0L29.3,37.6L31.9,40.0L37.7,46.1L37.9,46.4L37.7,47.1L36.0,47.3L34.6,48.5L34.4,48.9L34.4,50.1L34.6,50.5L36.9,52.6L37.0,53.3L37.9,54.0L38.8,55.1L40.0,56.0L46.1,62.0L46.6,62.1L48.0,63.4L48.4,64.4L49.1,65.3L50.1,65.9L54.4,69.9L71.3,87.1L78.4,93.8L79.1,94.1L79.8,94.1L80.9,93.6L81.6,92.9L81.8,92.6L81.8,91.7L80.4,89.9L78.9,89.4L77.9,89.2L76.5,88.3L69.2,80.9L58.1,70.1L55.2,67.1L39.0,51.0L39.0,50.6L38.6,50.1L38.6,48.5L39.0,48.2L39.5,48.2L40.2,48.5L42.0,50.5L51.9,60.0L69.2,77.5L76.8,84.8L80.7,88.7L81.2,89.6L81.9,90.3L84.6,92.4L87.4,95.4L89.7,97.3L95.4,103.2L101.8,109.2L103.5,110.2L105.1,110.8L107.4,110.9L108.3,110.6L108.3,110.1L106.9,108.5L107.1,107.8L109.2,109.7L109.9,110.1L111.5,110.1L113.4,109.0L113.6,108.6L113.4,107.1L115.4,106.7L115.9,106.2L116.1,105.5L116.6,104.4L116.6,103.3L116.4,102.6L115.7,101.9L115.4,100.7L116.6,100.5L117.0,100.2L117.1,99.1L117.1,96.4L117.0,95.7L116.1,94.5L116.1,93.8L116.8,93.1L117.1,92.2L117.1,89.9L117.0,88.3L115.9,86.7L115.9,85.8L116.3,85.5L116.6,85.5L117.1,85.0L117.1,81.1L116.3,79.3L116.3,78.8L117.0,77.9L117.1,76.3L117.1,73.5L116.3,71.9L116.3,71.2L117.1,70.1L117.1,66.0L117.0,65.5L115.9,64.3L115.9,63.9L117.0,62.9L117.3,62.0L117.1,57.4L116.4,56.3L115.5,55.6L115.5,55.2L114.3,53.8L110.4,50.1L109.5,49.1L109.0,47.8L109.9,48.0L113.1,51.0L113.6,51.9L114.5,52.6L114.5,52.9L115.4,54.2L116.8,54.5L117.3,54.0L117.3,49.9L117.0,49.2L116.4,48.7L116.3,48.2L113.6,45.5L113.1,44.5L110.1,41.6L109.7,41.1L109.9,40.4L111.8,42.2L113.8,44.5L114.5,44.8L115.7,46.1L116.4,46.4L117.0,46.4L117.3,45.5L117.3,42.9L117.0,42.0L115.9,40.9L115.0,39.7L115.2,39.0L115.5,39.3L116.3,39.3L116.6,39.7L117.3,39.5L117.5,39.2L117.5,35.4L117.3,34.0L116.4,32.8L116.4,31.7L117.3,31.0L117.5,30.5L117.5,27.1L115.5,24.3L114.0,22.9L113.4,22.2L114.1,21.6L114.7,22.2L115.0,22.9L116.4,24.1L117.3,23.9L117.7,23.1L117.7,22.4L117.3,21.3L117.3,20.2L117.0,19.2L116.1,17.4L115.2,16.2L114.1,15.1L112.2,13.9L108.8,12.8L106.7,12.8L105.6,13.3L104.8,13.3L104.2,13.0L103.5,12.8L100.0,12.6L99.3,12.8L98.4,13.3L97.9,13.3L95.7,12.6L91.9,12.6L91.1,12.8L90.8,13.2L90.6,13.7L90.3,13.7L88.1,12.6L84.4,12.6L84.1,12.8L84.1,13.7L85.5,15.1L85.7,15.5L85.3,16.0L85.0,15.5L81.4,12.8L80.4,12.5L76.8,12.3L76.1,12.8L76.3,13.5L76.6,13.5L79.1,16.3L79.1,16.7L80.5,18.3L80.5,18.8L80.0,18.6L79.1,17.6L75.4,14.2L75.2,13.5L73.6,12.6L71.7,12.3L68.7,12.3L67.8,12.6L67.8,13.3L68.0,13.7L68.9,14.4L73.8,19.7L77.2,22.9L79.1,25.2L83.4,29.4L84.1,30.5L92.7,39.0L93.4,40.0L95.9,42.7L96.8,43.4L97.7,44.5L98.4,44.8L99.8,46.2L101.4,48.4L101.6,48.9L101.0,48.9L100.7,48.4L100.0,48.0L98.9,46.8L97.7,45.7L95.7,43.4L92.9,40.7L91.9,39.5L86.2,34.2L84.6,32.3L81.8,29.6L77.0,24.7L75.1,23.1L73.8,22.7L72.9,22.2L70.1,19.4L69.7,18.3L69.7,17.8L69.4,17.4L69.4,17.1L67.4,14.9L65.1,12.8L64.1,12.3L59.7,12.3L59.3,12.5L58.8,13.9L58.3,13.3L56.0,12.1L54.0,11.9L51.7,12.1L51.4,12.3L50.8,13.0L50.3,13.0L48.7,12.1L45.3,11.9L43.4,12.1L43.0,12.5L42.9,13.0L42.2,13.2L41.8,12.8L41.5,12.8L40.2,12.1L37.0,11.9L36.5,12.8L37.4,13.9L38.6,14.9L39.7,16.3L40.9,17.4L42.3,19.2L43.4,20.2L44.3,20.8L47.8,24.5L49.2,25.5L51.5,28.0L57.5,33.9L63.0,39.7L65.3,41.8L70.1,46.9L71.2,47.8L85.1,62.0L85.7,62.9L89.4,66.6L92.9,69.7L99.6,76.5L101.2,78.4L103.3,80.4L102.8,80.9L102.3,80.7L100.7,78.8L98.9,77.5L98.0,77.2L97.2,77.2L95.7,76.5L91.1,72.0L85.8,66.6L85.0,65.9L84.4,65.1L81.2,62.1L77.9,58.6L77.2,58.1L75.8,56.5L75.4,55.8L75.4,54.7L75.2,54.4L74.5,53.8L72.8,53.5L52.1,33.0L51.7,32.1L51.9,30.8L51.0,29.4L37.6,15.8L36.7,15.3L35.3,14.0L34.4,12.8L33.7,12.3L32.8,11.9L28.5,11.9L28.0,12.1L28.0,13.0L28.4,13.5L30.1,15.1L30.5,15.6L30.5,16.3L30.1,16.3L29.6,15.8L29.3,15.8L25.9,12.6L25.2,12.5L23.6,12.6L22.5,13.2L22.0,13.7L22.0,14.6L24.5,17.4L38.6,31.4L41.8,34.9L42.9,35.6L45.5,38.4L46.9,39.5L52.2,45.0L54.9,47.5L55.4,48.4L68.7,61.6L70.3,62.9L71.2,63.9L71.9,64.4L72.6,65.3L73.5,66.0L73.6,66.4L78.8,71.3L91.5,84.2L91.9,84.4L92.2,85.1L95.6,88.3L95.9,88.8L95.9,89.6L95.6,89.6L94.3,88.5L91.5,85.7L89.9,84.8L88.8,84.6L87.8,84.1L83.2,79.6L77.9,74.2L75.4,72.0L71.0,67.4L45.7,42.3L43.9,40.4L43.8,40.0L43.8,38.6L43.4,37.7L39.2,33.7L34.4,28.7L32.6,27.3L22.9,17.4L20.6,15.6L19.5,15.8Z M105.5,106.4L106.2,106.5L105.8,107.2L105.3,106.7Z M112.7,97.7L114.1,99.3L114.7,99.5L115.0,99.8L115.2,100.3L115.0,100.9L113.6,99.6L113.4,99.1L112.4,98.2Z M96.3,97.0L97.9,98.4L99.3,100.0L99.6,100.2L99.5,100.9L96.1,97.7Z M89.6,90.6L89.9,90.6L90.6,91.5L90.4,92.0L89.4,91.0Z M101.2,86.0L101.6,86.5L102.1,86.7L102.3,87.3L103.7,88.7L104.4,89.0L104.8,89.6L105.1,89.7L105.5,90.4L108.5,93.1L109.5,95.0L109.0,95.0L108.6,94.5L100.9,86.9L100.7,86.5Z M99.3,55.1L100.0,54.9L101.2,55.6L103.0,57.5L109.5,63.9L110.4,65.0L110.2,65.9L108.8,65.7L107.6,65.0L105.6,62.7L99.6,56.8L99.1,55.8Z M91.3,55.4L91.9,54.9L92.9,54.9L93.4,55.2L106.2,68.2L106.4,68.5L106.4,69.2L106.0,69.6L105.3,69.6L104.1,69.0L103.0,68.2L98.6,63.6L92.9,58.1L91.5,56.5L91.3,56.1Z M83.9,55.1L84.2,54.9L85.0,54.9L85.7,55.2L92.2,62.0L94.7,64.3L95.2,65.0L96.6,66.0L103.2,72.4L106.5,76.1L106.4,76.6L105.8,76.6L103.5,74.7L103.2,74.2L102.5,73.6L101.6,73.3L100.7,72.6L100.2,72.4L98.6,71.0L93.8,65.9L83.9,56.1L83.7,55.6Z M107.1,54.5L107.4,54.5L107.8,54.9L108.3,55.1L111.8,58.4L112.9,60.0L112.4,60.4L110.6,59.7L107.2,56.3L106.9,55.4Z M39.0,40.4L39.7,40.6L40.4,41.5L41.5,42.2L52.9,53.3L53.7,54.2L54.5,54.9L78.9,79.5L83.7,83.9L86.0,86.4L87.1,87.3L88.0,88.7L87.8,89.2L87.4,89.2L86.5,88.7L86.0,88.7L84.4,88.1L82.8,86.9L77.2,81.2L76.8,80.7L63.7,68.0L63.0,67.1L62.5,66.7L61.8,65.9L40.4,44.6L39.9,43.6L39.9,42.2L38.8,40.9Z M112.7,36.1L114.0,37.4L114.1,38.4L113.4,37.6L112.4,36.7Z M104.4,35.6L105.3,35.4L107.1,37.2L107.6,38.1L108.6,39.0L109.4,40.4L108.6,40.2L107.8,39.0L107.1,38.4Z M47.8,34.4L48.4,34.0L48.9,34.6L49.4,34.7L50.3,35.4L57.0,42.3L72.4,57.4L74.5,59.8L75.4,60.4L78.4,63.6L84.4,69.2L90.3,75.2L91.1,75.8L95.4,79.8L95.7,80.7L96.3,81.2L96.6,81.2L98.7,83.4L99.3,84.1L99.8,85.3L99.5,85.3L96.6,82.8L95.4,81.4L94.1,80.9L92.6,80.7L91.7,80.2L88.5,76.8L84.4,73.1L71.9,60.4L48.4,37.0L47.6,35.8Z M109.7,33.9L110.2,33.7L111.3,34.4L110.9,34.9Z M102.8,33.1L103.5,33.7L103.3,34.4L103.2,34.0L102.5,33.5Z M106.9,30.1L107.1,31.0L106.5,30.5Z M98.2,28.5L98.6,28.5L98.9,29.1L99.5,29.4L99.5,30.3L98.0,28.9Z M97.3,28.0L98.0,27.8L97.9,28.5L97.7,28.2Z M97.2,27.1L97.2,27.8L96.8,27.5Z M56.1,27.0L57.4,27.3L60.9,30.7L67.4,37.4L72.4,42.0L74.9,44.6L75.1,45.5L74.5,46.1L73.5,46.1L72.4,45.5L67.6,40.9L56.0,29.1L55.6,28.2L55.6,27.5Z M60.2,22.7L60.9,22.7L61.6,23.1L65.3,26.6L71.0,32.6L75.6,37.0L75.8,37.7L75.2,38.3L74.2,38.3L72.6,37.7L70.6,35.6L63.2,28.5L60.0,25.2L59.7,23.9Z M90.4,20.8L90.8,20.8L92.9,22.7L93.8,24.3L93.3,24.3L92.0,22.9L90.4,21.5Z M34.2,19.5L34.7,20.1L34.6,20.6L34.0,20.4L33.9,20.1Z M111.5,19.2L111.3,19.9L110.9,19.5Z M63.7,17.9L64.4,18.6L65.7,19.4L73.1,27.0L73.6,27.8L75.8,30.0L75.6,30.8L74.3,30.7L72.8,30.0L69.0,26.1L64.1,21.3L63.7,20.6L63.7,19.0L63.6,18.5Z M61.3,15.8L62.0,16.0L61.8,16.7L61.3,16.3Z M59.5,14.6L60.2,14.4L60.6,14.8L60.2,15.3Z" fill="#000" fill-rule="evenodd"/>
</svg>