<svg xmlns="http://www.w3.org/2000/svg" viewBox="0 0 128 128" width="128" height="128">
  <path d="M91.5,22.4L91.3,22.4L88.1,22.3L77.4,22.3L77.1,22.4L72.5,27.1L72.2,27.4L71.9,27.6L70.3,29.4L69.0,30.7L68.9,30.9L67.6,32.2L67.5,32.3L65.7,34.1L65.0,34.9L64.4,35.5L64.1,35.9L60.7,39.3L59.3,40.9L58.6,41.5L57.4,42.8L56.2,44.0L56.1,44.2L54.2,46.1L53.4,47.0L52.9,47.5L52.0,48.5L50.8,49.7L49.4,51.2L48.3,52.4L48.2,52.5L47.1,53.6L46.9,53.9L44.5,56.4L43.7,57.3L42.9,58.0L42.8,58.2L41.8,59.2L38.3,62.9L37.4,63.8L36.7,64.6L36.6,75.7L36.6,88.2L36.7,94.4L36.7,99.9L36.6,100.9L36.6,105.5L36.6,118.8L36.6,119.5L36.7,119.5L37.2,119.6L42.7,119.6L59.3,119.6L60.6,119.6L61.2,119.8L61.5,119.8L62.0,119.7L66.3,119.7L72.6,119.6L82.7,119.7L85.5,119.7L91.8,119.7L91.9,119.6L92.0,118.0L92.0,100.8L91.9,93.4L92.0,92.8L91.9,88.8L91.9,83.2L91.8,74.8L91.9,70.9L91.8,66.6L91.9,57.6L91.8,57.3L91.8,55.6L91.8,53.5L91.8,52.1L91.7,42.2L91.7,32.8L91.6,25.3L91.6,22.5Z M72.3,8.4L69.0,8.3L64.5,8.3L62.6,8.4L57.8,8.4L57.0,8.5L55.1,8.5L54.3,8.5L52.9,8.5L49.8,8.6L48.8,8.5L48.6,8.6L47.2,8.6L43.4,8.6L42.7,8.7L36.3,8.7L36.1,8.8L36.1,12.4L36.2,21.5L36.2,22.4L36.3,22.9L36.3,26.9L36.3,27.5L36.3,32.1L36.4,34.4L36.4,35.2L36.4,36.6L36.4,45.2L36.5,45.3L36.6,45.3L36.9,45.0L39.5,42.5L39.6,42.3L41.2,40.7L45.0,36.8L45.1,36.7L45.3,36.5L49.0,32.7L49.3,32.3L55.0,26.4L55.2,26.2L57.9,23.5L58.0,23.3L59.6,21.7L59.7,21.6L60.1,21.1L62.6,18.5L63.6,17.5L63.8,17.3L65.1,16.0L66.0,15.0L69.1,11.9L71.1,9.7L72.3,8.6L72.4,8.5Z" fill="#000" fill-rule="evenodd"/>
</svg>