<svg xmlns="http://www.w3.org/2000/svg" viewBox="0 0 128 128" width="128" height="128">
  <path d="M106.4,15.6L103.0,13.3L100.5,11.9L100.0,11.9L98.5,11.1L97.4,10.8L97.2,10.6L93.7,9.7L93.1,9.7L90.5,9.2L86.0,9.2L81.5,9.9L80.3,10.5L78.9,10.7L75.6,12.1L72.2,14.0L70.3,15.5L67.3,18.6L65.5,20.7L64.4,22.5L62.7,25.7L62.5,26.7L62.1,27.3L62.1,27.6L61.8,28.3L61.8,28.7L61.2,30.6L60.9,30.9L60.6,30.8L60.3,29.8L60.4,27.6L60.2,23.0L60.2,15.3L59.6,13.7L58.4,12.6L42.9,12.6L35.6,12.7L34.4,12.6L33.3,12.8L21.6,12.8L18.0,13.0L16.7,12.9L15.1,13.2L14.2,13.7L13.6,14.3L13.0,15.9L13.2,46.8L13.7,48.5L14.0,49.2L15.0,50.3L16.1,50.9L18.5,50.9L19.6,50.4L20.7,49.3L21.5,47.8L21.7,46.8L21.6,33.2L22.1,31.5L22.8,30.7L24.4,30.2L49.3,30.0L50.9,30.5L51.7,31.5L51.8,32.3L51.9,35.2L51.8,38.0L50.9,41.7L49.8,44.1L48.4,46.4L46.9,48.2L44.2,50.8L41.0,53.0L39.5,53.8L37.7,54.9L37.3,55.0L33.6,56.9L33.0,57.0L32.4,57.4L30.2,58.4L29.5,58.8L29.0,58.9L27.9,59.7L26.3,60.4L23.4,62.4L22.1,63.4L20.0,65.4L18.5,66.9L15.9,70.3L15.9,70.5L14.7,72.1L13.1,75.6L12.9,76.3L12.6,76.8L11.3,81.1L10.6,85.4L10.5,89.8L10.9,93.7L11.6,97.1L13.2,101.5L15.1,105.1L18.0,109.1L21.9,112.8L22.7,113.3L24.8,114.8L25.1,114.9L26.5,115.9L28.0,116.5L28.4,116.8L28.8,116.8L31.2,117.8L33.5,118.2L35.0,118.8L36.9,118.8L37.4,119.0L42.0,119.0L43.4,118.8L44.2,118.6L44.9,118.6L45.2,118.4L48.3,117.8L51.1,116.7L51.8,116.5L52.3,116.1L53.7,115.5L57.2,113.2L60.0,110.7L62.1,108.2L64.9,103.7L66.0,101.4L66.9,97.8L67.4,97.3L67.7,97.4L68.0,98.4L67.9,102.5L68.1,112.8L68.6,114.7L69.4,115.4L69.7,115.6L72.1,115.9L80.8,115.7L88.3,115.8L112.1,115.5L113.0,115.4L114.0,114.9L115.1,113.9L115.4,112.9L115.5,111.9L115.4,103.0L115.3,82.4L115.1,80.7L114.4,79.0L113.9,78.3L112.6,77.5L111.4,77.2L110.4,77.2L109.3,77.5L107.9,78.5L106.9,80.0L106.6,81.6L106.8,94.4L106.6,96.3L106.2,97.0L105.3,97.8L104.2,98.1L101.0,98.2L100.4,98.1L97.2,98.3L93.2,98.2L79.5,98.4L78.5,98.3L77.5,97.8L76.8,97.1L76.3,95.7L76.3,91.3L76.8,87.7L77.5,85.9L78.2,84.3L79.8,81.6L80.6,80.6L83.7,77.5L86.1,75.7L88.4,74.5L89.0,74.1L89.3,74.0L91.1,72.8L95.1,71.1L96.4,70.3L96.9,70.2L98.1,69.7L100.7,68.2L101.4,68.0L101.7,67.7L102.4,67.4L104.6,66.0L106.6,64.3L109.3,61.7L111.7,58.8L112.3,57.6L114.0,55.2L115.2,52.5L115.4,52.1L115.8,50.8L116.6,48.8L116.7,48.0L117.0,47.2L117.3,45.1L117.7,43.1L117.7,37.1L117.1,32.9L116.7,31.8L116.1,29.6L115.9,29.3L115.3,27.5L114.9,26.9L114.8,26.4L114.0,24.8L113.5,24.2L113.0,23.1L111.9,21.4L111.3,20.9L111.1,20.4L110.0,19.2L107.7,16.7Z M102.0,21.6L104.3,23.8L105.3,25.0L107.0,27.4L108.1,29.5L108.8,31.2L109.9,34.7L110.3,37.6L110.4,40.0L110.1,43.5L109.8,45.1L108.8,48.2L108.0,50.1L106.9,52.3L105.3,54.6L103.1,57.2L101.2,58.9L100.7,59.2L98.5,60.8L96.5,62.0L95.9,62.1L95.2,62.6L95.0,62.6L93.7,63.3L91.7,64.1L91.5,64.4L91.0,64.6L90.5,64.9L90.1,65.0L88.7,65.9L88.2,66.0L87.7,66.3L87.3,66.4L86.2,67.2L83.7,68.4L82.0,69.5L81.3,70.1L80.6,70.5L78.0,72.6L74.4,76.2L72.6,78.5L71.3,80.5L69.4,84.4L68.7,87.1L68.4,89.0L68.1,89.5L67.8,89.5L67.4,89.0L67.2,87.0L66.1,83.2L65.9,82.9L65.3,81.0L64.2,79.1L64.2,78.7L63.8,77.8L63.8,77.5L63.3,76.5L62.3,75.6L61.5,75.3L60.8,74.3L57.9,71.6L55.1,69.6L54.4,69.4L53.4,68.7L52.0,68.1L51.5,68.1L51.0,67.7L47.4,66.8L44.1,66.4L41.9,66.5L38.6,66.9L35.6,67.8L35.2,68.1L34.6,68.1L33.6,68.7L31.3,70.1L30.5,70.5L28.7,71.9L26.8,73.7L25.6,75.1L24.3,77.0L24.0,77.9L23.1,79.2L22.3,81.2L21.5,83.9L21.1,86.6L21.0,89.8L21.2,91.6L22.2,95.8L22.5,96.1L23.4,98.4L23.8,98.8L24.5,100.0L26.1,101.9L26.4,102.5L28.5,104.5L30.9,106.1L33.0,107.2L36.3,108.1L37.8,108.4L41.5,108.4L43.2,108.1L44.9,107.7L48.3,106.3L51.4,104.1L53.1,102.5L54.5,100.5L55.3,99.0L55.9,97.8L56.0,97.0L56.4,96.5L56.8,94.8L57.1,93.0L56.9,89.0L55.9,85.7L55.1,84.4L54.9,83.9L53.9,82.5L51.2,79.8L48.5,78.2L47.4,77.8L45.2,77.3L42.8,77.2L41.2,77.3L40.1,77.5L38.3,78.2L37.7,78.7L37.2,78.8L35.6,79.8L33.7,81.8L32.5,83.9L31.8,85.8L31.5,88.3L31.5,89.4L31.7,90.7L32.2,91.6L32.2,91.8L32.7,92.6L33.6,93.6L34.4,94.1L35.8,94.5L37.2,94.5L38.6,94.1L39.9,92.7L40.2,91.9L40.3,90.4L40.1,89.7L40.1,88.3L40.5,87.0L41.0,86.3L41.9,85.4L42.6,85.0L45.4,85.0L46.9,85.8L47.9,86.8L49.1,88.7L49.7,90.4L49.7,93.2L48.8,95.8L47.7,97.5L46.7,98.5L46.2,98.7L45.2,99.5L43.5,100.4L41.8,100.9L41.0,101.0L38.3,101.0L36.9,100.5L36.4,100.5L34.8,99.8L33.0,98.6L30.9,96.6L30.2,95.6L29.0,93.1L28.8,92.2L28.5,91.3L28.3,89.4L28.1,88.7L28.5,85.7L29.0,84.0L29.3,83.6L29.5,82.9L30.9,80.2L33.5,77.5L35.6,76.0L38.4,74.8L38.9,74.8L39.7,74.4L42.3,74.0L45.0,74.1L47.1,74.4L47.8,74.8L48.4,74.8L50.0,75.5L50.5,75.8L51.7,76.3L53.9,77.9L55.6,79.5L56.6,80.7L58.4,83.5L59.3,85.8L59.6,87.0L59.8,87.2L60.3,90.5L60.3,93.3L60.1,93.8L60.1,94.8L59.4,97.8L58.3,100.5L57.3,102.2L55.7,104.5L53.6,106.6L50.8,108.6L48.8,109.7L48.3,109.8L45.9,110.8L43.7,111.3L43.1,111.3L41.5,111.7L37.6,111.6L34.6,111.1L32.2,110.3L28.8,108.6L25.4,105.9L23.1,103.6L21.8,101.9L20.2,99.1L19.1,96.4L18.7,95.0L18.5,94.4L18.1,91.7L17.9,90.7L17.8,86.7L18.7,81.9L19.4,80.1L20.7,77.1L21.1,76.5L21.3,76.0L22.1,74.9L22.4,74.1L23.7,72.4L27.0,69.1L29.1,67.5L36.3,63.9L36.7,63.8L37.4,63.3L39.0,62.6L40.3,61.8L41.0,61.6L41.2,61.3L41.7,61.2L44.7,59.3L44.9,59.3L49.0,56.5L52.1,53.7L55.2,50.2L57.0,47.5L57.2,46.8L57.6,46.4L57.8,45.7L58.1,45.3L58.1,45.1L58.6,44.0L59.5,41.3L59.8,39.5L60.2,38.7L60.5,38.7L60.8,39.3L61.2,40.9L61.3,42.1L62.0,44.8L62.4,45.7L62.6,46.4L63.5,48.4L65.2,51.1L67.4,53.8L69.0,55.4L72.1,57.9L73.7,58.8L76.0,59.9L80.0,61.2L82.5,61.5L84.8,61.6L87.7,61.4L90.3,61.0L93.4,59.9L94.9,59.2L95.2,58.8L95.7,58.7L97.1,57.9L98.6,56.9L100.5,55.2L102.8,52.8L103.6,51.5L103.9,51.2L105.4,48.2L106.1,46.1L106.4,45.7L106.9,43.6L107.2,41.7L107.3,38.7L107.0,36.3L105.9,32.2L104.2,28.9L103.0,27.2L101.6,25.5L99.5,23.6L96.7,21.9L96.3,21.8L94.8,21.0L92.7,20.3L91.1,20.0L89.6,19.8L86.4,19.8L83.3,20.4L82.0,20.8L81.6,21.1L80.9,21.4L80.2,21.8L80.0,21.8L79.7,22.1L78.5,22.7L76.8,24.1L74.6,26.3L74.4,26.8L73.5,27.8L72.4,29.9L71.4,33.3L71.2,34.3L71.1,37.2L71.3,38.9L71.7,40.7L72.6,42.9L73.3,44.2L74.1,45.2L76.4,47.8L77.5,48.7L77.9,48.8L79.5,49.8L82.6,50.8L86.0,50.9L88.3,50.5L90.6,49.5L92.8,48.0L94.7,45.9L95.8,43.9L96.7,40.8L96.7,38.5L96.5,37.4L95.7,35.6L94.6,34.6L92.8,33.6L90.4,33.6L89.6,33.9L88.9,34.4L88.3,35.0L87.9,36.0L88.1,39.7L88.0,40.3L87.6,41.4L86.4,42.4L85.8,42.9L85.1,43.1L83.6,43.1L82.1,42.7L81.1,42.1L79.6,40.3L78.9,39.0L78.5,37.6L78.5,35.5L78.9,33.5L80.0,31.4L80.6,30.6L82.6,28.8L85.1,27.6L86.5,27.3L89.2,27.2L91.7,27.7L92.3,28.1L93.0,28.2L94.1,28.8L96.0,30.3L97.6,32.2L99.3,35.5L99.4,36.3L99.8,37.8L99.8,41.4L99.7,42.4L98.9,45.1L97.2,47.9L95.6,49.8L93.5,51.5L92.6,52.0L89.4,53.4L85.8,54.1L82.9,54.0L80.6,53.5L78.6,52.8L76.8,51.9L75.3,51.0L73.0,49.0L72.0,47.8L70.7,46.0L68.8,42.2L68.5,40.6L68.2,40.0L68.0,38.2L68.0,33.4L68.5,31.0L69.4,28.7L70.8,26.1L72.5,23.8L74.6,21.7L76.2,20.4L78.8,18.8L80.0,18.3L80.6,18.2L81.4,17.8L84.4,17.0L86.7,16.7L89.9,16.7L91.8,16.9L95.0,17.7L97.1,18.6L99.6,19.9Z" fill="#000" fill-rule="evenodd"/>
</svg>