<svg xmlns="http://www.w3.org/2000/svg" viewBox="0 0 128 128" width="128" height="128">
  <path d="M10.1,95.4L9.6,100.5L9.6,102.5L9.9,107.4L10.2,108.3L10.8,111.3L11.7,114.0L13.2,116.5L14.3,117.5L15.1,117.9L15.9,117.9L16.8,117.3L17.2,116.4L17.2,114.9L17.0,114.0L16.5,112.9L15.6,111.3L14.2,109.4L12.7,107.1L11.5,104.5L11.0,102.3L10.8,98.8L10.4,98.0L10.3,95.4Z M11.1,92.2L10.9,92.2L10.9,92.6L10.6,93.1L10.6,93.6L10.4,93.9L10.4,94.9L10.6,94.9Z M18.2,79.6L18.5,79.6L18.5,79.4Z M23.5,13.3L22.3,14.0L20.4,15.3L18.2,17.2L16.8,18.5L14.2,21.7L12.5,24.5L10.6,29.1L9.8,32.7L9.5,35.1L9.6,40.6L10.1,43.7L11.1,46.4L11.5,47.3L11.9,47.8L12.1,48.4L13.8,50.7L16.1,52.9L18.4,54.5L21.3,55.7L24.2,56.2L28.2,56.1L30.6,55.6L32.9,54.5L34.4,53.5L36.7,50.9L38.2,48.3L38.9,46.2L39.3,43.6L39.2,41.2L38.9,39.5L38.2,37.7L37.3,35.9L35.6,33.8L33.0,31.7L25.8,28.3L24.7,27.5L23.1,26.0L22.2,24.9L21.5,23.6L21.0,21.7L21.0,18.8L21.4,17.3L22.0,15.8L22.5,15.1L24.0,13.5L24.0,13.3Z M27.6,11.6L27.6,11.8L29.6,11.4L31.6,11.4L33.0,11.6L33.2,11.8L34.2,12.0L36.3,12.9L37.7,13.9L39.0,15.1L40.4,16.8L41.6,18.8L43.3,23.1L44.6,29.2L44.8,34.4L44.8,37.8L44.4,43.3L43.6,47.6L42.2,52.1L40.7,55.3L38.5,58.9L36.3,61.9L33.5,64.9L26.9,71.1L22.0,75.5L20.5,77.0L18.8,79.0L18.7,79.2L19.0,79.1L20.0,78.0L22.7,75.7L26.5,73.0L28.9,71.5L32.4,69.7L32.7,69.4L33.3,69.2L33.8,68.9L34.3,68.8L35.3,68.2L35.6,68.2L36.2,67.8L36.9,67.6L37.5,67.3L40.9,66.1L41.5,65.7L41.9,65.7L43.1,65.3L44.1,65.1L46.7,64.2L48.0,64.0L48.6,63.8L55.6,62.5L60.2,62.2L64.9,62.2L65.7,62.3L69.1,62.6L72.6,63.4L75.8,64.3L78.2,65.4L79.0,65.8L79.5,65.9L80.1,66.4L80.6,66.5L82.8,67.9L84.7,69.3L86.9,71.5L89.7,75.3L90.7,77.3L91.5,79.7L92.2,82.4L92.3,86.6L92.1,88.6L91.0,92.3L90.0,94.3L89.7,94.7L89.2,95.6L88.2,96.8L86.9,97.9L84.5,99.5L82.4,100.4L81.5,100.5L81.2,100.7L77.2,100.9L74.4,100.5L71.7,99.4L69.5,98.0L67.5,96.2L66.5,95.0L65.1,93.0L64.0,90.6L63.8,89.6L63.3,88.7L63.0,87.2L62.8,85.5L62.5,84.7L62.3,82.7L62.3,80.7L62.1,79.5L62.1,75.1L61.9,74.9L61.2,78.3L60.2,80.4L58.9,82.3L58.1,83.2L55.9,84.9L54.5,85.7L54.2,85.7L53.8,85.9L52.7,86.2L52.2,86.5L48.8,87.2L44.2,87.3L37.2,86.7L29.8,85.7L23.7,85.7L21.1,86.2L18.1,87.3L15.1,89.3L13.8,90.7L13.7,91.1L14.8,90.4L16.9,89.2L18.5,89.0L19.5,89.0L21.3,89.3L23.4,90.7L25.0,92.5L25.3,93.2L26.1,94.2L26.7,95.7L27.8,98.8L28.1,99.2L30.4,107.3L31.5,109.9L32.8,112.2L34.2,114.0L35.5,115.3L37.0,116.4L39.0,117.4L41.0,118.1L43.4,118.5L45.5,118.5L48.0,118.1L49.5,117.6L50.9,117.0L51.2,116.7L51.9,116.4L52.8,115.8L55.6,113.2L56.3,112.4L58.0,109.7L59.2,107.1L59.2,106.8L59.5,106.4L60.6,103.0L60.8,101.5L61.2,100.3L61.4,98.1L61.6,96.8L61.6,95.7L61.9,95.2L62.2,95.3L63.2,98.8L64.8,102.9L66.1,105.3L68.2,108.4L70.9,111.2L73.6,113.4L76.4,115.0L77.3,115.3L77.8,115.7L78.6,115.8L79.3,116.2L82.6,117.2L83.2,117.2L85.0,117.6L87.1,117.8L90.7,117.9L94.6,117.4L95.5,117.2L97.0,117.0L98.2,116.5L98.9,116.4L99.6,116.0L101.5,115.4L104.8,113.5L107.9,111.2L110.6,108.6L112.7,106.1L115.2,102.1L116.7,98.7L117.3,97.2L117.4,96.3L117.9,95.3L118.9,89.1L118.9,82.5L118.4,80.0L118.3,78.7L118.0,77.6L117.7,75.9L117.5,75.7L117.3,74.7L116.9,74.0L116.6,72.9L115.2,69.9L114.9,69.6L114.7,68.9L113.9,67.6L112.3,65.5L109.6,62.3L106.3,59.4L102.7,57.1L100.6,55.9L98.2,55.0L97.3,54.4L93.3,53.2L89.7,52.4L84.4,52.0L81.7,52.0L76.5,52.4L73.6,53.0L71.8,53.5L71.3,53.8L70.9,53.8L70.6,54.0L70.2,54.0L69.8,54.2L66.6,55.3L65.6,55.8L64.1,56.4L61.7,57.7L61.2,57.6L61.4,57.2L63.1,55.2L65.5,51.1L66.6,48.9L68.4,43.7L68.4,42.8L68.2,42.5L68.1,42.1L68.3,39.5L68.3,37.3L67.9,33.0L67.4,30.7L66.0,26.7L63.7,22.6L61.5,19.8L59.3,17.6L56.7,15.6L54.5,14.0L50.8,12.3L50.0,12.2L49.7,11.9L48.4,11.6L47.6,11.2L45.8,10.9L44.1,10.5L40.7,10.0L35.3,10.0L31.8,10.5L29.7,10.9Z M113.2,14.5L110.6,12.3L108.8,11.3L106.3,10.3L104.2,9.8L100.8,9.8L98.5,10.2L97.8,10.6L96.9,10.7L94.8,11.9L92.3,14.0L90.8,16.0L90.1,17.2L89.7,18.4L88.9,21.5L89.0,25.1L89.8,27.5L90.8,29.7L93.2,33.4L94.0,35.0L94.4,36.6L94.4,37.9L94.1,39.2L93.7,40.2L93.1,41.1L91.6,42.3L90.5,42.9L89.6,43.2L87.3,43.5L85.2,43.2L83.0,42.4L79.8,40.8L77.9,39.3L77.1,39.0L77.1,39.1L78.4,40.5L80.8,42.3L83.5,44.0L85.2,44.8L89.8,46.6L93.8,47.4L97.6,47.7L99.5,47.6L102.2,47.2L105.4,46.1L109.1,44.1L111.6,42.1L113.1,40.6L114.6,38.6L116.2,35.6L116.8,33.8L117.7,29.8L117.8,25.3L117.1,21.4L116.9,21.1L116.7,20.2L115.8,18.5L115.5,17.6Z M71.6,9.7L70.5,9.8L69.6,10.3L68.6,11.2L67.6,13.0L67.0,15.4L67.0,19.5L67.6,23.2L68.5,26.4L69.6,28.9L69.8,29.2L70.1,30.8L70.5,30.8L70.5,29.8L72.5,27.1L73.7,24.7L74.7,22.1L74.9,20.4L75.3,19.2L75.4,15.6L75.2,14.0L74.8,12.3L74.1,11.2L73.2,10.3L72.2,9.8Z" fill="#000" fill-rule="evenodd"/>
</svg>