<svg xmlns="http://www.w3.org/2000/svg" viewBox="0 0 128 128" width="128" height="128">
  <path d="M40.0,11.7L39.6,12.0L37.2,13.1L33.0,15.7L30.9,17.5L29.4,19.2L27.7,21.7L26.2,24.3L25.6,26.0L25.2,27.5L24.7,30.0L24.6,31.5L24.7,34.5L25.1,36.5L25.7,38.3L26.2,39.6L27.5,41.8L29.2,43.9L32.1,46.6L36.1,48.8L38.3,49.7L39.6,49.9L40.1,50.2L42.0,50.3L43.5,50.7L47.9,50.7L51.1,50.3L54.9,49.0L57.9,47.1L60.8,44.1L62.3,41.9L62.7,41.0L62.8,40.5L63.3,39.8L64.0,37.8L64.3,34.9L64.3,33.2L63.8,30.4L62.9,27.9L62.3,26.9L61.4,25.7L60.3,24.7L59.8,24.8L59.6,25.0L59.3,26.0L58.4,27.7L56.9,29.2L55.1,30.4L53.2,31.1L51.8,31.3L50.3,31.3L48.3,31.0L46.3,30.1L44.9,29.1L43.9,28.0L42.8,26.4L42.2,24.5L42.0,23.7L42.0,21.7L42.4,19.9L43.1,18.3L43.9,17.0L45.5,15.5L47.2,14.3L48.7,13.8L49.0,13.5L52.5,12.6L55.8,12.6L59.1,13.1L61.6,14.0L63.0,14.6L64.6,15.7L66.5,17.0L68.9,19.3L71.0,21.9L72.1,23.9L73.2,26.7L73.8,29.4L74.2,32.6L74.2,34.3L73.9,37.7L73.7,38.0L73.4,39.8L72.3,43.2L71.2,45.5L69.0,48.7L67.3,50.8L65.3,52.7L62.6,54.7L60.2,56.0L57.4,57.0L55.9,57.4L54.8,57.8L54.3,57.8L52.8,58.2L50.4,58.5L50.7,58.8L52.8,59.2L53.5,59.5L53.9,59.5L56.9,60.5L58.1,61.0L58.7,61.4L59.0,61.4L61.5,62.8L64.1,64.6L66.9,67.0L67.3,67.6L67.9,68.1L68.2,68.6L69.3,69.6L70.6,71.5L70.9,71.7L71.0,72.1L72.5,74.2L73.7,76.4L73.7,76.8L74.0,77.1L74.7,78.9L75.5,81.4L76.1,84.8L76.4,87.6L76.4,91.6L75.8,95.7L75.5,96.6L75.2,98.2L73.8,101.7L73.4,102.3L72.6,103.9L71.7,105.5L71.3,105.9L71.0,106.4L68.6,109.2L66.8,110.9L65.5,111.8L64.8,112.1L64.5,112.4L60.7,114.0L59.6,114.2L59.1,114.5L56.5,115.0L53.7,115.1L52.3,115.0L49.5,114.5L47.2,113.6L45.3,112.4L44.3,111.5L42.2,109.3L41.1,107.6L40.8,106.7L40.4,106.3L40.0,104.8L39.6,103.0L39.7,100.4L40.0,99.0L41.2,96.6L42.0,95.7L43.1,94.6L44.7,93.5L45.2,93.3L45.9,92.9L47.1,92.5L49.4,92.1L50.8,92.2L52.5,92.5L53.6,92.9L55.6,94.0L57.3,95.5L58.6,97.2L59.5,99.2L59.8,100.4L60.0,100.7L60.5,100.6L61.2,99.9L62.9,97.8L64.6,94.3L65.2,92.0L65.4,90.8L65.4,87.7L64.8,84.6L63.8,82.1L63.0,80.3L60.4,76.5L59.4,75.5L56.3,72.9L54.7,71.8L52.3,70.6L51.9,70.6L51.5,70.2L48.3,69.3L47.1,69.2L46.9,69.0L46.1,68.9L43.9,68.7L43.2,68.5L41.7,68.5L38.8,68.7L37.2,69.0L33.8,69.9L32.5,70.6L31.3,71.0L28.5,72.5L25.7,74.8L23.9,76.6L23.8,76.9L22.5,78.4L21.9,79.5L20.6,81.3L19.5,83.7L19.5,84.0L19.1,84.6L18.7,85.8L18.5,86.9L18.2,87.7L17.9,90.3L17.8,93.0L18.1,95.2L18.5,96.6L18.8,98.1L19.6,100.3L20.9,103.0L21.7,104.3L23.7,107.1L25.1,108.6L27.7,111.1L30.4,113.2L30.9,113.4L33.0,114.6L34.8,115.4L35.7,115.6L36.4,116.0L38.0,116.3L39.1,116.7L40.3,116.9L41.5,117.3L45.7,118.1L50.3,118.6L52.6,118.7L53.5,118.9L60.5,119.1L69.5,119.0L74.7,118.6L75.5,118.3L77.1,118.2L78.6,117.8L79.8,117.6L80.8,117.3L81.7,117.2L82.2,117.0L84.9,116.3L85.6,116.0L87.7,115.4L88.1,115.1L90.4,114.3L93.5,112.8L97.8,110.2L99.9,108.4L102.4,106.0L103.9,104.2L105.2,102.4L105.4,102.0L105.9,101.4L107.9,97.8L109.5,93.2L110.3,89.2L110.3,84.9L110.0,82.1L109.5,80.4L108.3,77.0L106.5,74.1L104.9,72.3L102.7,70.2L100.9,68.9L100.7,68.6L98.2,66.9L92.3,63.9L90.2,63.3L89.2,62.8L86.7,62.2L86.0,61.8L85.1,61.7L84.3,61.4L83.1,61.2L82.9,61.0L81.5,60.7L81.3,60.6L79.5,60.3L78.2,59.9L77.7,59.9L76.6,59.4L76.5,59.3L77.2,58.8L78.1,58.7L79.2,58.3L79.9,58.2L81.5,57.8L82.3,57.7L84.6,56.9L85.2,56.9L85.8,56.6L86.4,56.5L87.6,56.0L88.4,55.6L88.8,55.5L91.2,54.4L91.6,54.3L93.7,53.1L94.0,53.0L97.3,50.7L99.6,48.7L100.7,47.6L100.7,47.4L101.2,47.0L102.5,45.1L102.9,44.7L103.9,42.6L104.7,40.7L105.2,38.4L105.4,36.9L105.4,33.2L105.2,31.8L104.7,29.6L103.5,27.0L101.6,24.2L99.3,21.7L96.3,18.9L94.5,17.7L93.2,16.7L92.1,16.1L91.9,16.1L90.5,15.3L85.5,13.4L85.0,13.0L84.2,12.9L83.3,12.5L82.5,12.4L81.7,12.1L81.3,12.1L80.3,11.7L79.0,11.5L76.5,10.9L75.3,10.8L73.6,10.4L72.5,10.3L72.2,10.2L71.1,10.0L69.5,10.0L68.6,9.7L67.0,9.6L66.1,9.4L65.4,9.4L62.8,9.2L55.9,9.1L53.5,9.2L51.9,9.4L49.0,9.5L48.1,9.8L46.6,9.9L45.9,10.2L44.5,10.3Z M34.9,47.1L35.2,46.9L35.9,47.1L36.0,47.5L35.2,47.5L34.9,47.4Z" fill="#000" fill-rule="evenodd"/>
</svg>