<svg xmlns="http://www.w3.org/2000/svg" viewBox="0 0 128 128" width="128" height="128">
  <path d="M109.7,9.7L109.4,9.5L101.4,9.4L75.7,9.3L74.5,9.4L50.0,9.4L45.0,9.6L25.8,9.5L22.3,9.7L20.7,9.6L20.3,9.9L20.4,10.5L21.4,11.8L21.6,12.3L22.9,14.0L23.6,15.2L24.8,16.9L25.0,17.4L26.1,18.6L26.3,19.3L26.9,19.8L27.6,21.0L28.3,21.8L29.3,23.3L29.3,23.5L30.8,25.6L31.3,26.5L32.1,27.4L32.4,27.6L54.2,27.8L65.1,27.7L72.9,27.8L73.4,28.0L73.6,28.4L73.5,28.9L70.8,32.9L70.2,33.6L68.9,35.7L68.0,36.8L67.4,37.7L66.5,38.9L65.5,40.5L64.2,42.2L63.6,43.2L62.1,45.3L62.1,45.8L62.2,46.0L63.9,45.8L68.2,46.0L72.5,47.0L77.3,49.0L79.6,50.4L81.3,51.7L84.9,55.2L85.8,56.5L86.5,57.2L86.5,57.4L87.6,58.8L87.9,59.5L88.6,60.6L89.9,63.8L91.1,68.9L91.3,71.7L91.3,73.6L91.1,76.6L90.0,81.3L89.1,83.3L89.0,83.8L88.8,84.1L88.5,84.9L87.6,86.3L87.3,87.2L85.5,89.7L83.4,92.0L82.8,92.8L79.6,95.6L78.7,96.0L78.0,96.6L75.1,98.2L72.4,99.4L69.7,100.2L68.2,100.2L67.4,100.5L65.9,100.6L65.4,100.8L60.5,100.8L58.4,100.6L57.5,100.2L56.2,100.1L55.2,99.7L54.2,99.5L51.4,98.5L50.8,98.0L48.9,97.1L46.7,95.6L45.7,94.8L44.7,93.7L44.3,93.4L42.1,91.1L40.1,88.3L38.2,84.3L37.4,81.8L36.3,76.7L36.2,71.5L36.9,67.7L37.6,65.7L37.9,65.1L38.2,64.1L39.2,61.8L39.6,61.3L40.1,60.1L40.9,59.0L41.1,58.6L41.5,58.2L41.7,57.7L43.0,56.3L43.1,55.9L45.0,53.9L47.8,51.6L47.9,51.1L47.4,50.1L42.7,43.6L42.3,42.9L41.9,42.4L41.4,41.4L40.2,39.9L39.9,39.2L39.2,38.4L38.7,37.6L38.2,37.1L37.7,37.1L35.4,38.4L33.4,40.3L31.3,42.5L30.8,42.9L26.8,47.8L25.2,50.2L24.7,51.4L23.6,53.0L23.6,53.3L22.7,55.0L20.8,60.1L20.7,60.8L20.1,62.5L19.8,64.1L19.1,66.7L18.7,68.7L18.5,72.0L18.5,77.2L18.6,77.7L18.7,79.4L19.4,83.5L19.7,84.2L20.0,86.0L21.5,90.7L22.0,91.6L23.4,94.9L24.1,95.9L25.2,98.0L26.0,99.0L26.4,100.0L27.7,101.4L28.9,103.2L33.5,107.9L37.1,110.9L40.4,113.0L41.5,113.5L41.8,113.9L43.8,114.8L45.9,115.7L48.2,116.4L48.6,116.7L50.2,117.2L51.4,117.4L52.4,117.8L53.0,117.8L54.3,118.2L57.2,118.6L58.3,118.6L59.4,118.9L66.6,118.8L69.1,118.4L70.5,118.3L71.0,118.1L71.7,118.1L73.8,117.6L74.7,117.2L76.7,116.8L79.5,115.8L82.1,114.5L82.8,114.3L83.8,113.6L86.5,112.3L90.3,109.7L92.6,107.8L97.6,102.8L98.0,102.2L98.7,101.5L100.0,99.7L100.2,99.3L101.4,97.7L104.6,91.9L106.3,87.9L107.5,83.8L108.6,78.7L108.8,76.3L108.9,69.7L108.6,67.3L107.4,60.8L106.8,58.8L106.4,58.2L106.2,57.1L106.0,56.9L105.8,56.0L103.3,50.8L100.3,46.1L98.5,43.8L97.2,42.3L96.4,41.3L95.6,40.7L93.9,39.0L92.1,37.5L91.4,36.5L91.4,36.0L91.8,35.2L94.1,31.9L94.2,31.6L95.5,30.1L96.2,28.9L97.6,27.2L98.1,26.2L99.9,23.8L100.4,23.2L100.6,22.8L101.9,21.1L102.2,20.6L103.8,18.6L106.5,14.6L109.7,10.3Z" fill="#000" fill-rule="evenodd"/>
</svg>