<svg xmlns="http://www.w3.org/2000/svg" viewBox="0 0 128 128" width="128" height="128">
  <path d="M55.5,62.6L55.5,69.5L55.8,75.6L55.7,77.7L55.9,80.7L56.0,89.5L56.2,89.8L56.6,90.0L58.7,90.1L83.4,90.0L83.4,89.6L80.5,86.8L80.0,86.1L77.1,83.5L76.5,82.7L70.5,76.6L69.7,76.1L58.2,64.4L56.1,62.5L55.7,62.4Z M95.2,15.2L93.8,14.1L91.4,12.9L89.5,12.3L86.4,11.9L83.7,12.2L81.6,12.7L80.3,13.2L79.7,13.6L79.3,13.7L78.9,14.0L77.5,14.8L74.1,18.1L71.7,20.7L71.4,20.8L71.1,21.3L66.0,26.4L65.6,27.0L63.7,28.9L63.2,29.7L60.2,32.4L59.1,33.9L51.5,41.7L51.3,42.1L49.4,43.9L48.4,45.2L39.3,54.5L38.8,55.1L36.4,57.6L34.0,60.2L33.1,60.9L32.5,61.8L30.7,63.6L29.6,64.9L28.3,66.0L28.1,66.5L27.0,67.5L26.6,68.1L23.1,71.7L20.3,74.4L19.7,75.2L14.8,80.2L13.6,82.1L12.8,82.8L12.7,83.2L12.3,83.6L10.8,86.4L10.0,88.5L9.3,92.4L9.4,95.6L10.3,99.6L11.4,101.6L13.3,103.5L14.7,104.7L16.0,105.5L17.8,106.3L18.1,106.3L18.3,106.5L19.6,106.7L21.5,106.8L22.2,107.0L25.0,106.9L34.8,107.2L44.2,107.2L44.6,107.0L44.7,102.2L44.5,101.8L44.0,101.7L34.6,101.6L33.9,100.9L33.7,97.5L33.7,91.2L33.8,90.5L34.1,90.2L35.1,89.9L43.9,89.9L44.4,89.6L44.5,87.4L44.2,78.6L44.1,67.7L43.9,63.8L43.9,53.0L44.2,51.7L44.9,50.0L45.8,48.8L47.1,47.4L48.7,46.5L50.0,46.0L52.3,45.7L54.2,46.0L56.4,47.0L57.5,47.9L58.9,49.3L59.9,50.1L67.8,58.0L68.8,58.8L71.3,61.5L74.6,64.6L91.2,81.0L92.9,82.5L95.1,84.8L95.6,85.1L97.2,86.9L98.9,88.4L99.6,89.3L100.3,90.5L100.6,91.5L100.9,92.9L100.9,94.6L100.6,96.3L99.6,98.5L98.9,99.3L97.4,100.6L96.4,101.2L94.7,101.8L93.8,102.0L89.5,102.1L88.8,101.9L78.5,102.0L73.9,101.8L56.8,101.8L56.4,102.2L56.4,106.6L56.5,106.9L56.7,107.2L58.3,107.4L66.0,107.4L71.2,107.5L82.7,107.5L83.8,107.7L84.3,108.3L84.3,109.0L84.4,115.8L84.9,116.3L87.0,116.4L101.2,116.3L101.5,115.6L101.5,108.4L101.7,108.0L102.1,107.7L103.2,107.7L104.2,107.5L118.0,107.7L118.5,107.6L118.8,107.3L118.9,97.8L118.6,90.5L118.0,90.1L110.1,90.1L108.0,89.9L102.9,90.0L101.7,89.9L101.3,89.5L101.1,87.9L101.0,75.8L100.8,74.5L100.9,71.3L100.6,67.2L100.7,55.9L100.6,43.5L100.4,40.0L100.2,23.9L99.3,20.8L97.8,18.0Z" fill="#000" fill-rule="evenodd"/>
</svg>