<svg xmlns="http://www.w3.org/2000/svg" viewBox="0 0 128 128" width="128" height="128">
  <path d="M9.3,65.4L9.1,72.4L9.1,81.8L9.2,82.4L9.4,82.6L9.9,82.7L21.8,82.8L26.7,83.0L40.7,83.1L42.5,83.2L42.8,83.5L42.9,83.9L42.8,97.8L43.1,98.4L43.4,98.6L48.9,98.7L52.6,98.9L58.4,98.9L61.0,99.1L64.0,99.1L64.6,98.7L64.7,98.3L64.7,95.4L65.0,95.0L65.4,95.0L66.4,95.7L67.2,96.0L67.7,96.5L69.9,97.8L70.3,97.8L71.0,98.3L73.4,99.3L73.7,99.5L74.3,99.6L78.0,100.9L80.0,101.4L81.1,101.5L82.5,101.8L86.1,102.0L88.9,102.0L90.7,101.8L91.9,101.8L97.1,100.8L98.0,100.4L99.8,99.9L101.7,99.1L106.5,96.4L108.7,94.6L110.9,92.6L113.4,89.9L113.9,89.0L114.7,88.0L115.3,86.8L115.7,86.3L117.2,82.7L118.3,79.2L118.6,77.8L118.6,77.0L119.0,74.5L119.0,69.3L118.2,66.3L117.3,63.8L115.8,61.2L114.2,58.8L112.8,57.2L110.2,54.7L109.7,54.4L108.3,53.3L106.6,52.3L106.3,52.2L106.0,51.9L104.2,51.2L103.8,50.9L103.3,50.8L101.6,50.1L100.2,49.8L99.5,49.5L97.6,49.3L97.2,49.1L95.8,49.0L95.4,48.9L91.6,48.9L87.8,49.5L86.0,50.1L85.2,50.5L84.5,50.7L81.7,52.0L80.3,53.0L80.0,52.8L80.0,52.4L80.8,49.2L81.5,47.4L81.6,46.4L82.0,45.5L82.3,44.4L82.5,43.7L83.0,43.4L94.8,43.4L104.8,43.7L112.9,43.7L113.2,43.3L113.4,27.6L113.2,27.2L112.5,27.0L111.3,27.1L107.9,26.9L88.0,26.8L82.9,26.6L80.4,26.7L72.6,26.5L65.1,26.5L62.8,26.3L48.8,26.3L45.3,26.1L43.7,26.3L43.0,26.9L42.2,28.1L39.2,31.3L38.6,32.2L36.1,34.7L35.7,35.3L33.8,37.4L33.0,38.4L32.6,38.8L27.9,44.2L27.1,44.9L26.3,46.1L25.9,46.4L25.8,46.6L25.1,47.2L23.4,49.3L16.4,57.0L16.4,57.2L14.4,59.2L13.7,60.2L12.4,61.5L9.4,65.0Z M97.7,73.4L97.7,75.4L97.5,76.9L97.1,78.0L96.6,79.0L95.9,80.0L94.5,81.5L92.9,82.8L91.2,83.6L90.3,83.8L89.4,84.1L87.0,84.1L84.0,83.5L82.1,82.5L80.9,81.7L79.0,79.9L77.9,78.0L77.5,76.6L77.1,76.3L76.0,76.1L66.8,76.2L65.6,76.1L65.2,75.9L65.0,75.6L64.9,75.0L65.1,68.6L65.5,68.1L66.2,67.9L79.6,68.0L80.2,67.5L81.3,66.1L82.2,65.4L82.4,65.4L83.7,64.5L84.9,64.0L86.4,63.7L88.6,63.7L90.1,63.9L91.1,64.2L93.1,65.3L94.4,66.4L95.7,67.9L96.8,69.9L97.5,71.8Z M42.5,47.7L42.7,48.0L42.8,50.1L42.8,65.1L42.3,65.8L28.8,65.9L26.6,65.8L26.5,65.4L27.5,64.0L32.9,58.0L33.7,56.9L40.0,50.2L41.2,48.6L42.0,47.8Z" fill="#000" fill-rule="evenodd"/>
</svg>