<svg xmlns="http://www.w3.org/2000/svg" viewBox="0 0 128 128" width="128" height="128">
  <path d="M91.5,28.3L91.2,28.1L90.8,28.1L90.5,28.3L89.7,29.1L88.0,30.6L81.8,36.4L80.7,37.3L75.9,41.9L72.1,45.2L71.8,45.3L71.3,45.3L70.9,45.2L69.6,43.9L68.4,42.3L66.6,40.4L66.0,39.7L66.0,39.2L69.2,36.0L74.2,31.4L74.6,31.0L74.6,30.6L73.8,29.5L73.3,29.1L71.3,26.7L67.3,22.6L67.1,22.1L65.7,20.6L65.5,20.2L65.0,19.9L64.2,20.1L63.4,20.5L63.0,20.6L61.4,21.4L60.8,21.6L58.5,22.8L55.9,23.9L53.8,25.0L51.8,25.8L49.8,26.8L48.3,27.3L47.6,27.7L47.0,27.9L45.4,28.7L43.8,29.3L42.1,31.0L41.0,31.9L38.9,33.9L38.7,34.3L38.8,34.8L45.0,41.6L47.0,44.0L46.9,44.4L45.9,45.5L41.2,49.7L40.5,49.7L39.6,48.9L33.9,42.7L33.5,42.0L29.4,37.8L27.0,35.1L24.0,31.8L23.9,31.6L19.9,27.4L19.0,27.5L16.5,30.0L12.4,33.5L9.4,36.4L9.2,36.8L9.2,37.3L10.2,39.5L10.4,40.4L10.9,41.4L13.0,47.0L13.7,48.3L14.8,51.5L15.6,53.1L16.0,54.5L16.3,55.0L16.3,55.2L17.0,56.9L17.5,58.3L18.3,59.8L19.5,63.4L20.1,64.5L20.2,65.0L21.3,67.7L26.7,73.6L27.2,74.0L27.6,74.0L28.3,73.6L39.1,63.7L39.7,63.8L40.8,64.9L41.0,65.3L43.6,68.1L44.7,69.6L44.7,69.9L44.6,70.2L42.9,71.6L41.6,73.0L41.2,73.2L31.9,81.9L30.5,83.0L27.9,85.6L26.7,86.5L25.2,88.0L19.5,93.1L17.5,95.1L17.5,95.5L18.6,96.8L21.8,100.2L22.7,101.3L29.0,108.2L29.7,108.3L33.0,107.0L33.2,106.9L34.2,106.6L35.0,106.2L36.5,105.7L36.8,105.4L39.6,104.4L39.8,104.2L42.1,103.5L43.5,102.8L44.9,102.4L47.0,101.4L48.5,100.9L50.0,100.2L50.8,100.0L51.3,99.7L53.3,99.1L57.2,97.4L57.9,97.2L59.5,96.5L61.5,95.8L62.2,95.4L67.0,93.6L68.4,92.2L68.7,92.1L73.7,87.6L74.1,87.0L74.0,86.6L70.1,82.4L68.8,80.7L65.5,77.2L65.2,76.8L61.7,73.1L61.6,72.8L61.6,72.3L65.9,68.2L67.4,67.0L67.8,67.0L68.4,67.5L74.4,74.3L78.1,78.2L78.2,78.5L82.2,82.8L82.3,83.1L85.6,86.6L87.2,88.6L88.6,89.9L93.0,94.9L94.3,96.2L94.8,97.0L97.5,99.9L97.6,100.2L100.2,103.1L101.1,103.9L101.6,103.8L110.2,96.1L110.8,95.7L111.5,94.9L112.3,94.4L112.8,93.7L116.3,90.7L116.9,90.0L117.3,89.8L118.9,88.1L118.9,86.9L118.6,86.2L118.4,85.2L116.7,81.0L116.7,80.7L115.5,77.8L115.2,77.0L115.0,76.6L114.9,76.1L113.6,73.2L113.1,71.5L112.7,70.9L112.2,69.1L111.8,68.6L111.8,68.1L110.8,65.8L110.7,65.3L107.4,57.2L106.8,55.4L106.0,53.8L105.1,50.9L104.6,50.0L103.8,48.0L103.1,45.6L101.5,42.3L101.1,41.0L100.6,40.0L100.6,39.5L100.2,39.0L100.0,38.1L99.2,36.7L97.7,35.2Z M58.9,85.6L58.9,85.8L58.6,86.1L57.6,86.6L55.0,87.6L53.3,88.5L52.0,88.9L50.8,89.5L50.1,89.7L49.6,90.0L48.1,90.6L47.5,91.0L46.3,91.3L45.4,91.8L44.7,92.0L44.4,92.2L43.7,92.4L43.1,92.8L41.5,93.3L40.0,94.1L39.6,94.1L38.9,94.5L37.5,95.0L36.2,95.6L35.8,95.5L35.8,95.3L39.7,91.6L40.8,90.7L51.9,80.7L53.2,79.7L53.6,79.7L54.2,80.1Z M88.6,47.9L89.1,47.9L89.4,48.2L89.5,48.8L89.9,49.5L90.3,50.7L90.7,51.4L91.2,52.9L92.5,55.7L92.9,57.0L94.1,59.8L94.3,60.7L95.3,62.8L97.0,67.3L97.2,67.5L99.3,72.9L100.0,74.9L101.8,79.2L101.7,79.5L101.4,79.5L99.7,77.6L98.6,76.3L98.0,75.7L94.8,72.2L94.7,71.9L88.0,64.4L87.4,64.0L85.6,61.8L85.0,61.2L84.8,60.9L82.6,58.6L82.6,58.3L81.9,57.7L80.4,55.8L80.4,55.3L82.2,53.5L87.7,48.5Z M20.2,42.2L20.4,42.3L23.1,45.1L28.9,51.7L30.4,53.1L33.1,56.4L33.1,57.0L31.3,58.8L28.3,61.3L27.9,61.4L27.5,61.1L26.7,59.4L25.9,57.1L25.3,55.8L21.6,46.5L21.3,46.0L20.8,44.2L19.9,42.5Z M62.5,29.9L61.3,31.3L60.4,31.9L55.7,36.4L52.9,38.7L52.5,38.7L52.1,38.5L50.4,36.8L49.7,35.9L49.7,35.6L50.1,35.2L52.9,33.8L54.3,33.3L57.0,32.0L59.2,31.1L60.0,30.6L60.4,30.6L61.3,30.1L62.1,29.7Z" fill="#000" fill-rule="evenodd"/>
</svg>