<svg xmlns="http://www.w3.org/2000/svg" viewBox="0 0 128 128" width="128" height="128">
  <path d="M17.2,34.0L16.2,35.7L15.3,36.9L14.9,38.0L14.3,38.8L13.2,41.2L12.5,43.4L11.8,44.9L11.6,46.1L10.9,47.8L10.9,49.0L10.4,50.3L10.2,52.4L9.9,53.7L9.9,54.7L9.5,57.4L9.4,59.7L9.2,60.7L9.2,66.4L9.4,67.7L9.4,70.4L9.6,72.4L10.4,77.6L11.7,83.2L12.4,84.7L13.0,86.6L14.6,89.7L16.5,92.8L19.2,96.0L21.9,98.6L23.9,100.2L25.9,101.5L26.5,101.7L27.7,102.5L30.3,103.8L31.9,104.4L33.9,105.0L39.1,105.7L43.1,105.7L45.4,105.6L45.8,105.4L46.9,105.4L47.7,105.2L49.9,104.9L51.9,104.3L52.8,104.1L55.8,103.0L56.6,102.5L57.0,102.5L57.3,102.2L58.7,101.7L59.2,101.2L60.3,100.7L61.7,99.8L64.4,97.5L64.8,97.3L65.1,97.3L67.5,99.5L69.6,101.2L70.7,102.0L72.8,103.0L75.0,103.8L76.0,104.3L76.4,104.3L79.0,104.9L80.4,105.1L81.1,105.3L85.3,105.6L86.2,105.8L92.9,105.8L95.2,105.3L96.6,105.2L97.7,104.9L98.4,104.9L99.7,104.7L103.9,103.3L104.8,102.9L105.4,102.4L105.7,102.4L106.7,101.9L110.5,99.4L111.5,98.6L114.3,95.5L116.2,92.7L117.4,90.4L118.3,88.1L118.9,85.5L119.1,82.1L119.0,78.6L118.8,77.7L118.8,77.0L118.4,76.2L118.2,74.8L118.0,74.5L117.9,74.0L117.5,73.3L117.0,71.9L116.3,70.8L116.1,70.3L115.1,69.0L111.6,65.9L109.3,64.5L106.7,63.2L103.9,62.2L103.3,62.1L103.0,61.9L103.1,61.6L104.4,60.9L106.3,60.3L106.7,60.0L108.4,59.2L109.9,58.1L112.3,56.0L114.2,53.4L115.1,51.6L115.9,48.7L116.3,46.1L116.3,43.6L116.0,41.4L115.0,38.1L113.6,35.0L112.0,32.6L111.1,31.5L108.9,29.3L107.6,28.2L105.3,26.8L103.5,25.8L101.3,24.9L100.1,24.6L98.4,24.1L95.0,23.6L94.6,23.4L88.5,23.0L82.9,23.1L81.1,23.4L80.5,23.4L78.9,23.8L78.1,23.9L73.6,25.5L70.8,27.2L68.5,29.0L66.4,31.4L66.0,31.4L64.9,30.7L62.8,28.9L59.8,26.8L57.0,25.3L55.7,24.7L54.7,24.6L53.5,24.2L53.1,24.0L51.9,23.8L49.4,23.1L48.3,23.0L47.9,22.8L45.7,22.5L42.6,22.4L38.1,22.5L35.1,22.9L33.5,23.3L32.6,23.4L30.8,23.8L30.0,24.2L28.5,24.7L28.2,24.7L26.3,25.7L24.1,27.2L21.2,29.5L19.0,31.8L18.6,32.4Z M37.1,63.0L40.9,62.5L44.3,62.4L46.8,62.9L50.0,64.2L52.2,66.0L53.7,67.7L54.9,69.5L55.1,70.2L55.8,71.8L56.3,72.5L57.0,75.8L57.0,78.5L56.7,80.6L56.5,81.1L56.3,82.0L56.0,82.6L55.8,83.4L55.1,84.8L54.9,85.4L54.0,86.9L52.6,88.3L52.4,88.6L50.5,90.3L48.3,91.6L47.4,91.8L47.0,92.1L46.4,92.2L46.0,92.5L44.3,92.8L41.2,92.8L39.2,92.5L38.9,92.3L37.9,92.1L37.5,91.9L35.3,91.2L34.3,90.5L33.6,90.3L31.9,88.9L31.0,88.0L29.5,85.8L29.2,85.1L29.0,85.0L27.6,81.6L27.0,78.6L26.9,76.1L27.1,73.8L27.5,72.5L27.6,71.6L27.8,71.3L28.0,70.7L28.5,69.7L28.9,69.2L28.9,69.0L30.3,67.1L31.9,65.5L33.8,64.2L35.9,63.3L36.6,63.3Z M30.0,41.3L30.9,40.0L32.4,38.5L34.8,36.7L35.8,36.2L36.6,36.0L37.1,35.7L40.9,34.9L42.4,34.8L45.6,35.0L47.9,35.5L50.6,36.7L52.0,37.6L53.2,38.7L54.0,39.8L54.8,41.5L55.2,43.3L55.3,43.6L55.7,45.7L55.7,48.1L56.2,48.5L61.4,48.6L62.8,48.8L70.9,48.9L72.6,49.0L74.9,49.0L75.1,48.8L75.2,47.7L75.4,47.0L75.5,46.3L75.8,45.5L75.9,44.9L76.9,42.3L78.2,40.3L79.1,39.3L80.5,38.1L81.9,37.2L85.1,35.9L87.3,35.5L90.1,35.6L92.3,36.2L93.1,36.3L94.2,36.8L94.9,36.9L96.7,37.8L97.2,38.2L99.1,40.3L100.3,42.6L100.6,43.4L100.6,47.2L100.2,48.7L99.3,50.6L98.3,52.1L97.5,52.9L95.4,54.5L93.3,55.6L92.7,55.7L92.6,55.9L91.0,56.4L89.4,56.5L87.2,56.6L85.8,56.4L82.7,56.4L82.5,56.7L82.4,57.2L82.4,59.2L82.3,60.6L82.3,67.6L82.4,67.7L83.2,67.9L85.3,67.9L86.1,68.1L88.4,68.1L89.8,68.5L91.3,68.6L93.2,69.0L94.6,69.4L96.5,70.4L97.7,71.4L98.4,71.8L99.3,72.6L101.0,75.0L101.2,75.5L101.5,76.0L102.0,78.2L101.9,82.1L101.0,84.9L100.2,86.8L98.6,88.8L97.1,90.2L95.8,91.0L95.4,91.1L93.8,91.9L91.9,92.5L89.6,92.8L86.4,92.8L85.0,92.6L83.2,92.2L82.3,91.8L81.8,91.7L80.1,90.8L77.9,89.2L76.2,87.6L75.4,86.6L74.6,85.0L74.1,83.7L74.0,82.9L73.7,82.0L73.6,80.3L73.2,78.7L73.1,75.9L73.0,74.7L72.8,74.2L72.6,72.2L72.3,71.6L72.2,70.4L71.8,69.7L71.6,68.2L69.9,64.2L69.2,63.3L69.1,62.9L67.9,61.2L67.6,60.6L67.0,59.9L66.5,59.0L64.4,57.0L61.0,54.2L59.7,53.6L58.7,52.9L57.4,52.3L57.0,52.0L55.2,51.2L52.5,50.4L51.4,50.3L48.6,49.5L46.8,49.3L42.2,49.2L39.9,49.6L39.2,49.6L37.6,50.1L36.6,50.2L35.0,50.7L34.8,50.9L34.4,51.0L31.3,52.4L28.8,54.1L28.3,54.2L27.0,55.4L26.4,55.6L26.1,55.3L26.2,53.3L26.6,51.2L26.6,50.4L27.0,49.1L27.1,48.1L28.1,44.7L29.0,42.8L29.3,42.4Z" fill="#000" fill-rule="evenodd"/>
</svg>