<svg xmlns="http://www.w3.org/2000/svg" viewBox="0 0 128 128" width="128" height="128">
  <path d="M50.8,109.6L49.5,109.6L49.0,109.9L48.3,109.8L47.2,110.2L46.4,110.3L46.1,110.6L46.9,110.7L49.0,110.0L50.1,110.0L50.2,109.8Z M49.0,100.8L49.0,100.5L48.7,100.2L48.6,99.8L48.4,99.7L47.6,99.5L47.5,99.7L47.8,99.9L47.8,100.1L47.6,100.3L46.8,100.1L45.2,100.2L44.3,100.0L43.7,100.1L43.7,100.3L44.6,100.4L45.0,100.5L47.8,100.5Z M45.1,97.4L45.2,97.6L46.8,97.8L47.0,98.0L47.0,98.2L46.7,98.4L46.7,98.6L47.6,98.6L47.4,97.9L46.8,97.4Z M51.1,97.2L51.4,97.3L51.4,97.2Z M45.0,91.8L46.1,92.1L48.7,92.9L49.4,93.0L49.8,93.2L49.8,93.7L50.3,93.9L51.1,93.9L49.8,92.8L49.1,92.8L48.1,92.3L47.3,92.2L46.5,91.9L46.0,91.9L45.5,91.7Z M47.9,91.5L48.3,91.8L49.4,92.0L50.2,92.5L50.5,92.4L50.3,92.4L49.8,92.0L49.2,91.9L48.7,91.5Z M50.0,91.2L50.1,91.2L50.2,91.4L51.2,92.0L51.6,92.0L51.4,91.7L51.0,91.7L50.6,91.4L50.2,91.3L50.1,91.1Z M45.1,90.9L46.6,91.3L47.2,91.3L47.2,91.1L45.7,90.7Z M48.0,77.6L48.1,78.1L49.2,78.0L48.6,77.5L48.2,77.5Z M56.8,71.1L57.1,71.3L57.1,71.0Z M54.8,71.0L54.7,71.1L54.9,71.3Z M56.5,70.9L56.5,71.0L56.7,71.0L56.7,70.9Z M59.3,64.4L59.6,64.8L60.0,65.1L60.3,65.1L60.2,64.9Z M58.9,59.3L59.3,59.9L60.1,60.6L60.1,60.3L59.6,60.0L59.6,59.7L59.2,59.3Z M63.6,58.5L63.5,58.7L63.8,58.9Z M59.1,58.5L59.6,58.9L59.7,58.6L59.5,58.6L59.3,58.4Z M57.0,57.6L57.0,57.8L57.8,58.6L58.4,58.6L58.2,58.5L57.4,57.8Z M62.3,57.5L62.5,57.8L62.6,57.8L62.5,57.5Z M60.7,57.3L60.9,57.5L60.9,57.3Z M61.6,57.2L61.8,57.2L61.8,57.0Z M64.4,56.7L64.7,56.8L64.6,56.7Z M65.6,55.2L65.6,55.5L66.2,55.7L66.2,55.6L65.9,55.2Z M58.4,55.6L58.6,55.8L59.7,55.6L60.1,55.9L61.0,56.9L61.4,56.9L61.3,56.7L60.3,55.8L59.9,55.6L59.5,55.2L58.8,55.1Z M60.0,53.8L60.0,53.9L60.3,54.2L60.5,54.2L61.3,54.9L61.8,55.1L60.4,53.9Z M61.1,53.4L61.1,53.7L62.7,54.7L62.9,55.1L62.9,55.5L62.7,55.6L62.2,55.5L61.8,55.7L61.1,55.6L61.4,56.0L62.1,56.6L62.6,56.7L63.6,57.8L63.7,58.1L64.4,58.5L64.4,58.4L63.6,57.2L62.9,56.3L62.9,56.0L63.6,55.4L63.6,55.2L63.1,54.7L62.6,54.5L61.8,53.8Z M62.1,53.0L62.4,53.4L62.9,53.8L63.2,53.8L63.2,53.6Z M56.4,53.0L56.8,53.4L57.1,53.4L57.0,53.0L56.7,52.9Z M94.3,51.8L93.9,51.9L93.6,52.3L93.3,52.4L92.8,52.3L92.5,52.3L92.6,53.0L93.1,54.0L93.1,54.5L93.3,54.7L93.6,54.7L93.6,54.5L93.2,53.8L93.2,53.1L93.6,52.5L93.9,52.5L94.3,52.2Z M61.8,50.6L62.0,50.7L62.2,50.5Z M61.8,49.5L61.8,49.7L62.0,49.7L62.5,50.0L62.2,49.7Z M59.5,48.7L59.5,48.9L60.2,49.8L60.0,49.9L59.8,49.9L59.1,49.7L59.2,50.1L59.3,50.3L60.7,50.5L61.4,50.1L61.0,49.7L60.3,49.4L59.8,48.8Z M60.3,48.3L60.4,48.5L60.4,48.3Z M61.8,48.2L61.9,48.4L62.3,48.4L62.3,48.3Z M62.5,47.9L62.5,48.2L62.9,48.2L62.8,47.9Z M61.1,46.6L61.1,46.8L61.6,46.9L61.5,46.8Z M97.6,45.2L97.2,45.3L96.9,45.7L96.9,46.2L97.3,46.5L97.6,46.5Z M64.9,39.6L64.7,39.6L64.4,40.2L64.4,40.5L64.2,40.7L63.6,40.9L63.4,41.0L63.5,41.4L63.9,41.4L64.7,41.7L65.0,41.6L65.1,41.0L65.1,39.9Z M34.9,39.6L34.9,39.9L35.2,40.0L35.2,39.6Z M66.2,37.2L66.1,37.2L65.5,37.7L65.5,38.1L65.8,38.1L66.2,37.7Z M32.2,36.5L32.3,37.4L32.6,37.7L32.8,37.6L32.7,36.6L32.6,36.4Z M30.5,35.1L30.3,35.3L30.4,35.7L30.8,35.7L30.8,35.1Z M74.5,18.0L73.9,18.2L74.0,18.5L74.2,18.5L74.6,18.2Z M86.6,11.7L85.9,11.5L85.2,11.5L84.4,11.1L83.2,10.7L81.8,10.7L80.9,10.2L80.5,10.2L79.9,10.4L79.0,11.0L78.3,11.0L77.9,10.7L76.9,10.6L75.8,10.0L75.3,9.9L73.9,10.5L73.5,10.9L73.3,11.6L73.1,11.9L72.8,11.9L72.7,11.8L72.4,10.7L71.6,10.2L71.1,10.2L70.3,10.5L69.9,10.8L69.8,12.2L69.5,12.5L69.4,12.5L69.1,12.3L69.2,11.2L68.6,10.8L68.0,10.2L67.0,10.3L66.2,9.7L65.3,9.6L64.7,9.2L63.2,9.1L62.8,9.2L62.3,9.2L61.8,9.6L61.1,9.5L60.3,10.1L59.7,10.3L59.3,10.6L58.9,10.5L58.8,10.0L58.3,9.6L57.8,9.9L56.7,9.8L56.1,10.1L55.7,10.1L55.2,9.6L54.8,9.6L54.5,9.9L53.8,9.9L53.1,10.4L52.6,10.3L52.0,9.8L51.7,9.9L51.8,10.3L52.4,11.1L53.1,11.2L53.3,11.4L53.2,11.9L52.4,12.6L52.3,12.6L51.5,11.8L50.4,12.0L49.7,11.5L49.4,11.6L49.4,11.8L49.1,11.9L48.3,12.7L48.2,12.7L48.0,12.5L48.0,11.4L47.7,11.1L47.8,10.3L47.1,10.4L46.8,10.1L46.3,10.2L46.2,10.5L46.7,11.1L47.5,11.2L47.6,11.4L47.6,12.2L47.3,12.2L46.9,12.0L46.4,12.1L46.1,12.4L45.7,12.3L44.7,11.6L44.4,10.9L44.2,10.7L43.4,10.3L42.1,10.3L41.6,10.2L40.7,10.2L40.2,10.5L39.4,10.5L37.9,11.0L37.3,11.4L36.4,11.3L35.6,11.8L34.8,11.5L33.5,11.5L32.5,11.1L31.1,11.2L29.7,12.7L29.7,13.5L29.4,14.3L29.4,15.2L28.8,15.8L29.0,16.9L28.6,17.6L28.6,20.3L28.8,20.7L29.3,21.2L29.3,21.7L29.0,21.9L28.8,22.2L29.0,23.5L29.0,25.2L29.0,25.5L29.4,26.0L29.7,26.0L30.4,25.7L30.6,25.7L30.8,25.8L30.7,26.0L29.9,26.3L29.4,26.8L29.3,27.1L29.5,27.5L29.5,28.2L29.6,28.3L30.1,28.3L30.4,27.9L30.5,27.5L30.8,27.2L31.5,27.3L32.2,28.2L33.1,28.6L33.3,29.0L33.2,29.8L33.7,30.3L33.8,30.8L34.1,31.1L34.1,31.6L33.9,31.9L33.7,32.0L33.3,31.7L33.2,31.2L32.9,31.0L32.8,29.9L32.6,29.7L31.5,29.7L31.1,29.4L30.8,28.8L30.4,28.8L29.5,29.4L29.3,29.8L29.2,31.4L29.4,31.9L29.4,32.5L28.9,33.2L28.8,34.1L28.9,34.4L29.2,34.6L29.7,34.6L30.4,34.2L30.8,34.2L32.2,35.4L33.2,35.8L33.6,35.7L33.7,35.5L34.1,35.5L34.8,34.8L35.3,34.8L35.7,35.2L36.0,36.2L37.5,36.3L37.4,36.6L37.3,36.7L36.2,36.7L35.8,36.4L35.2,36.4L34.6,37.4L34.8,37.4L34.8,37.2L35.2,37.2L35.9,37.7L36.0,38.0L35.9,38.6L36.3,39.2L36.3,39.9L35.9,40.5L35.2,40.6L34.4,41.1L34.3,41.4L34.5,42.1L34.6,43.2L34.3,43.9L34.2,44.3L35.2,45.7L36.3,46.8L37.0,47.0L37.8,47.0L38.2,46.8L39.2,45.8L39.7,44.8L39.9,43.8L40.2,43.3L40.6,42.2L40.6,41.6L40.3,41.2L40.4,40.3L40.3,40.1L39.9,39.6L39.9,39.0L40.2,38.6L40.7,38.2L40.7,37.9L41.1,37.5L41.0,37.2L40.8,37.0L40.5,37.0L40.3,36.7L40.3,36.5L40.4,36.3L41.0,36.3L41.6,36.6L42.5,36.0L43.1,35.2L43.3,34.7L43.3,34.4L43.8,33.7L43.7,33.4L43.2,33.2L43.2,33.0L44.1,32.8L44.7,32.2L44.7,30.6L45.0,29.8L45.0,28.6L44.6,27.1L44.3,26.8L43.8,25.6L43.1,24.3L43.0,23.8L43.2,23.3L43.7,22.9L44.7,23.0L45.3,23.7L46.5,24.6L47.0,24.8L47.9,24.7L48.3,25.1L49.6,25.2L50.1,24.9L51.1,24.0L51.1,23.3L51.3,23.1L51.8,23.8L52.3,23.9L53.4,22.6L54.0,22.8L54.9,22.8L55.4,22.6L55.9,22.0L56.6,22.0L56.8,21.7L57.1,21.0L57.9,20.3L57.9,20.0L57.4,19.3L57.4,19.0L57.6,18.8L57.8,18.8L58.2,19.3L58.9,19.5L59.4,19.3L59.8,18.9L60.0,18.4L61.1,17.3L62.2,16.6L63.6,15.2L63.6,14.6L63.8,14.4L64.4,14.5L64.7,14.7L65.4,15.0L65.5,15.4L65.0,15.8L64.0,16.4L63.5,16.9L62.8,18.1L62.2,18.7L61.8,19.8L61.2,20.5L60.8,21.3L60.8,22.2L61.5,22.2L61.8,22.0L62.2,22.0L62.3,22.4L61.3,23.1L61.1,23.1L60.7,22.9L60.1,22.9L59.7,23.1L59.6,23.4L59.6,25.0L59.2,25.7L59.9,26.4L59.8,27.2L60.0,27.5L60.2,27.6L60.5,27.5L60.9,26.7L61.5,26.1L61.8,24.9L62.1,24.6L62.5,24.5L62.8,24.2L63.5,24.2L63.4,24.6L62.5,25.9L62.8,26.2L62.8,26.7L61.9,27.5L61.5,28.5L61.5,28.9L61.9,29.9L62.5,30.6L62.9,31.8L63.0,31.9L63.6,31.9L63.5,31.2L63.6,30.9L64.4,30.3L64.8,30.4L65.1,30.9L65.8,30.8L66.1,31.2L66.4,31.3L66.9,31.1L67.5,30.4L69.2,29.5L69.5,29.9L69.7,30.0L70.4,30.8L71.1,30.8L72.0,31.2L72.8,31.9L72.7,32.3L72.0,33.1L70.9,33.2L70.1,34.1L70.2,34.5L70.3,34.7L70.9,34.9L71.3,35.2L71.3,35.5L71.1,35.7L70.6,35.6L69.6,34.5L69.3,34.9L68.7,35.0L68.6,35.3L68.9,35.5L69.9,35.8L70.9,36.3L71.3,36.1L73.7,36.2L73.7,36.6L73.4,37.0L73.1,37.0L72.7,36.7L72.4,36.7L72.1,36.9L71.4,36.9L71.0,36.5L69.8,36.6L69.1,36.4L68.4,36.6L68.6,36.9L68.5,37.2L68.2,37.5L68.6,37.9L68.6,38.1L68.4,38.2L67.7,38.2L67.3,38.6L67.3,39.0L68.7,39.3L69.3,39.3L70.3,39.6L71.3,39.6L72.7,39.9L75.1,39.7L75.3,39.8L75.6,40.1L75.2,40.4L73.9,40.5L73.4,40.8L72.8,40.8L71.5,40.5L70.2,40.5L68.4,40.0L67.1,40.0L66.6,40.3L66.5,40.5L66.2,40.5L66.3,40.1L66.2,39.9L65.8,40.0L65.8,40.7L65.5,41.4L65.6,41.7L66.3,41.6L67.3,41.7L68.0,42.0L69.5,42.1L71.1,42.5L72.6,42.7L72.8,43.0L72.4,43.2L70.9,43.2L70.6,43.4L69.1,43.5L68.7,43.3L68.1,42.7L67.9,42.7L67.4,43.1L66.9,43.2L66.9,43.4L67.3,43.9L67.3,44.3L68.4,44.7L70.5,44.7L70.9,44.8L71.3,45.2L70.3,45.4L67.9,45.3L67.5,45.5L66.8,45.5L65.9,45.0L64.7,45.0L63.6,44.3L62.5,44.3L62.3,44.2L62.0,44.2L61.8,44.4L61.5,45.0L61.1,45.4L61.1,45.8L61.5,46.0L62.1,46.6L62.1,46.9L62.3,46.9L63.8,47.8L65.4,49.2L65.2,49.5L65.0,49.5L64.1,49.0L64.0,48.7L63.3,48.3L63.0,48.3L63.1,48.4L63.4,48.5L63.6,48.8L64.2,49.0L64.2,49.3L63.9,49.6L63.5,49.6L63.5,49.8L65.0,49.9L66.7,51.0L67.7,51.3L68.3,51.9L68.2,52.1L67.6,52.2L67.6,52.3L68.2,52.7L68.2,53.0L68.0,53.2L68.1,54.1L67.8,54.3L66.9,54.0L66.6,54.2L66.2,54.2L66.0,54.1L65.9,53.8L65.1,53.3L64.5,53.1L64.4,52.9L63.7,52.9L63.3,52.6L63.1,52.6L62.5,51.9L62.3,51.9L62.5,52.3L63.5,53.0L64.2,53.1L64.4,53.3L64.4,53.7L64.8,54.0L65.5,54.1L66.1,54.6L68.7,54.6L69.5,54.9L69.5,55.1L68.9,55.3L68.2,55.3L67.2,56.0L67.3,56.2L67.7,56.3L67.7,56.7L66.9,57.0L66.6,57.5L66.6,58.1L66.9,58.2L66.8,58.5L66.4,58.6L66.3,59.2L65.3,59.3L65.9,59.8L65.9,60.3L65.1,60.1L64.8,60.4L64.4,60.5L63.6,60.0L63.5,59.7L63.5,60.0L63.6,60.0L63.6,60.6L63.0,60.6L60.5,58.2L59.6,57.4L58.9,57.0L57.4,55.6L57.0,55.5L57.0,55.3L56.3,54.9L56.2,55.2L55.3,55.2L54.9,55.9L54.9,56.2L55.2,56.6L55.9,56.7L55.6,56.1L55.6,55.8L56.1,55.8L57.8,57.2L58.3,57.4L58.5,57.2L59.0,57.3L60.0,58.0L61.7,59.7L62.4,60.2L62.6,60.6L63.3,61.2L64.0,61.3L64.2,61.1L64.5,61.0L65.0,61.3L65.0,61.5L64.4,62.0L63.4,62.1L62.0,61.1L61.9,60.8L61.4,60.5L60.2,59.0L59.9,59.0L60.8,60.3L62.0,61.1L62.2,61.5L62.2,61.9L61.9,61.9L61.3,61.5L60.6,60.7L60.3,60.7L60.3,60.8L61.1,61.6L61.1,62.0L60.6,62.0L60.3,61.8L57.4,59.0L57.1,59.1L57.3,59.4L58.1,59.8L58.2,60.2L59.7,61.7L59.5,61.9L59.3,61.8L57.9,60.8L57.8,60.6L56.5,59.3L56.3,59.3L55.6,58.5L55.2,58.0L55.2,57.7L54.7,57.7L54.5,57.9L54.5,58.2L54.7,58.5L54.7,58.8L54.5,59.2L54.2,59.3L54.5,60.0L54.2,60.2L53.8,60.2L53.8,60.7L53.4,60.8L53.4,61.1L54.1,61.8L55.2,62.2L55.6,62.6L55.6,62.9L55.5,63.1L55.2,63.1L54.3,62.3L53.8,62.2L54.4,63.3L53.5,63.4L53.3,63.6L53.2,64.0L54.8,63.9L55.2,63.6L55.8,63.6L57.8,63.1L59.5,63.3L60.0,63.0L60.7,63.1L61.3,62.9L62.9,62.7L65.4,62.8L66.9,63.1L68.4,63.7L68.4,64.0L67.1,64.0L66.6,63.8L65.1,63.8L64.9,64.1L64.8,64.6L64.4,65.1L64.4,65.4L65.1,66.1L64.8,66.4L64.6,66.4L64.0,66.0L62.4,64.7L62.0,64.6L61.8,64.4L60.6,64.2L60.0,63.7L59.8,63.7L59.8,64.0L60.1,64.1L60.4,64.5L61.9,64.8L63.6,66.2L63.4,66.5L63.1,66.5L62.7,66.1L60.7,65.1L60.4,65.2L61.4,66.1L63.1,66.8L64.0,67.9L64.0,68.2L63.5,68.0L62.5,67.3L62.2,67.3L61.7,67.1L61.4,66.7L61.3,66.3L60.4,66.0L58.7,64.7L58.5,64.7L58.5,65.0L58.7,65.1L59.6,65.9L60.7,66.6L61.1,66.9L61.0,67.3L60.7,67.2L59.5,66.3L57.6,65.3L57.4,65.3L58.0,66.1L57.8,66.2L57.5,66.2L56.4,65.6L56.3,65.4L55.9,65.3L56.4,65.9L56.9,66.1L58.5,67.3L58.4,67.6L58.2,67.6L56.9,67.0L55.4,66.0L54.9,65.8L54.8,65.8L56.2,67.1L56.9,67.4L57.2,67.8L57.0,68.0L56.6,68.0L54.2,66.4L52.8,65.1L52.4,65.2L52.4,65.5L52.9,65.9L53.1,65.9L53.4,66.4L53.0,66.4L52.7,66.0L52.2,66.1L52.3,66.4L53.1,67.2L53.1,67.4L52.9,67.6L52.9,67.8L53.2,68.3L53.1,68.6L52.2,68.5L52.1,68.9L52.4,69.1L54.4,69.1L55.0,69.0L55.9,69.0L56.4,68.7L57.7,68.8L59.0,69.5L60.0,69.5L60.6,70.2L60.6,70.4L60.2,71.0L59.6,71.7L59.2,71.7L58.8,71.4L58.2,71.2L58.4,71.7L57.8,71.8L57.3,71.3L57.3,71.6L57.6,71.9L57.8,72.4L57.8,72.7L57.3,72.7L57.4,73.3L58.3,73.4L59.0,73.1L60.3,72.9L61.3,72.4L62.1,72.4L62.5,72.8L62.8,73.2L63.3,73.5L63.6,73.9L63.6,74.2L63.4,74.5L63.3,74.5L63.3,75.2L62.9,75.3L62.4,74.9L61.7,74.6L61.4,74.8L60.5,74.8L60.0,75.0L58.8,74.1L57.8,74.0L57.5,73.6L57.2,73.4L56.7,73.3L56.4,73.7L55.6,72.9L55.6,72.7L55.9,72.1L55.2,71.5L55.0,71.5L54.9,72.0L53.8,71.7L53.7,72.0L53.4,72.0L52.8,71.6L52.2,71.4L52.0,71.7L51.9,72.0L52.3,72.8L51.7,73.0L52.1,73.6L52.8,74.2L53.0,74.6L52.8,74.9L52.2,74.7L51.5,74.1L51.2,73.6L50.9,73.5L50.6,73.7L50.6,73.9L52.0,75.1L53.4,75.8L53.8,76.4L54.5,76.8L57.4,79.5L57.7,79.6L58.3,80.2L58.2,80.4L57.8,80.4L57.0,80.1L55.2,78.5L52.5,76.4L51.3,75.3L50.5,75.1L50.6,75.3L50.2,75.8L50.9,76.4L50.9,76.8L50.5,76.9L50.1,76.5L49.6,76.4L49.4,76.9L49.4,77.2L49.9,77.5L50.1,77.5L50.3,77.2L50.8,77.2L51.8,77.5L51.7,77.9L50.5,77.8L50.7,78.1L51.3,78.2L51.5,78.4L51.5,78.6L51.2,78.9L50.1,78.7L50.4,79.2L50.1,79.5L49.8,79.5L48.5,79.0L47.9,79.1L47.2,79.7L47.2,80.0L47.0,80.1L46.5,80.1L45.9,80.5L45.3,80.6L44.3,81.7L44.4,82.1L44.7,82.1L45.4,81.9L47.1,80.9L48.3,80.6L49.0,80.7L49.4,81.0L49.4,81.3L49.0,81.8L49.0,81.9L50.3,82.9L50.4,83.2L50.2,83.3L49.8,83.3L50.2,84.0L50.1,84.1L49.7,84.1L48.9,83.7L48.7,83.7L49.8,84.7L50.9,85.3L51.9,85.6L52.1,85.9L52.1,86.0L51.6,86.3L49.8,85.3L49.4,85.0L49.0,85.1L51.4,86.8L51.8,86.9L52.0,87.1L52.0,87.4L51.6,87.4L50.9,86.9L50.5,86.8L49.1,86.1L49.1,86.3L50.2,87.2L50.6,87.4L50.9,87.6L50.9,87.7L50.7,87.9L50.2,87.9L49.6,87.4L49.2,87.4L48.9,87.1L48.7,87.2L49.0,87.3L49.4,87.7L49.8,87.7L50.1,88.1L50.1,88.4L50.0,88.5L49.6,88.5L49.4,88.3L49.0,88.2L48.4,87.8L48.2,87.8L49.0,88.5L49.4,88.6L49.9,89.0L50.4,89.1L50.7,89.4L50.5,89.6L48.6,89.3L48.7,89.5L49.5,89.8L49.9,90.2L50.3,90.3L50.5,90.0L51.3,90.0L51.8,90.5L51.7,90.8L51.2,90.8L51.2,91.0L52.0,91.4L53.2,91.7L53.3,92.1L53.1,92.3L52.2,92.1L52.4,92.5L54.0,93.1L54.5,93.6L54.4,93.9L53.8,93.9L53.5,93.7L53.2,93.8L53.4,93.8L53.8,94.0L53.9,94.3L53.7,94.5L53.2,94.5L52.4,94.1L51.7,94.0L51.7,94.2L52.3,94.4L52.5,94.7L52.5,94.9L52.0,95.4L50.5,95.3L50.1,95.8L48.7,95.8L49.7,96.0L50.1,96.5L50.9,96.5L51.8,96.9L52.0,97.2L51.9,97.5L52.0,97.6L52.4,97.6L53.7,98.2L56.0,98.7L56.8,99.0L57.4,99.0L58.2,99.4L60.7,99.4L61.1,99.5L62.2,99.5L62.8,99.8L62.8,100.1L61.7,100.0L58.9,100.1L58.2,100.0L56.8,99.6L56.3,99.6L55.6,99.2L53.8,99.2L53.5,99.0L53.4,99.0L53.4,99.2L53.1,99.4L51.4,99.2L50.5,99.3L52.0,99.4L53.5,100.0L53.5,100.4L51.2,100.2L51.4,100.5L52.2,100.4L52.7,100.7L52.7,101.2L53.4,101.3L53.7,101.6L53.7,101.8L53.5,102.0L50.8,101.8L49.8,101.6L49.0,101.2L45.8,101.3L45.5,101.2L43.9,101.1L43.9,101.3L49.6,101.6L49.8,101.9L49.5,102.2L48.4,102.3L48.5,103.1L49.2,103.1L49.6,103.3L49.6,103.5L49.1,103.8L50.9,103.9L51.0,104.3L49.9,104.5L48.2,104.5L47.4,104.4L47.2,104.5L46.5,105.2L46.1,105.2L45.0,105.1L45.0,105.5L44.3,106.0L45.0,106.0L47.2,106.3L48.6,106.2L49.4,106.4L50.0,106.3L51.0,106.6L52.0,106.6L52.7,106.4L53.4,106.6L54.4,106.6L54.8,106.4L55.4,106.4L55.9,106.7L55.6,106.9L54.8,107.0L54.5,107.1L52.9,107.2L51.3,107.4L50.7,107.1L50.3,107.1L49.4,106.8L48.3,107.1L47.5,107.0L47.2,106.8L44.9,106.8L44.2,106.4L42.8,106.5L42.6,106.6L42.6,106.8L42.8,106.9L43.2,107.3L43.9,107.5L45.0,107.3L46.1,107.3L46.7,107.1L47.4,107.1L47.6,107.3L47.2,107.7L46.4,107.7L44.8,108.0L43.9,108.0L43.3,108.8L43.3,109.0L43.5,109.2L44.0,109.2L44.3,108.6L44.9,109.2L45.1,109.9L46.6,109.8L47.4,109.5L47.5,109.3L46.8,109.3L46.2,109.1L48.3,108.4L48.8,108.5L48.9,108.8L48.5,109.0L48.5,109.2L50.6,109.1L51.0,108.9L51.5,108.9L52.0,109.2L53.9,109.1L55.0,108.9L56.4,108.9L56.9,108.9L57.2,109.2L57.1,109.5L56.7,109.6L56.0,109.4L53.3,109.6L52.0,110.0L51.6,110.0L51.2,109.8L50.9,109.9L52.0,110.3L52.2,110.6L51.7,110.9L51.2,110.9L50.6,110.4L49.9,110.3L49.8,110.4L48.3,110.8L47.2,111.4L47.2,111.5L48.3,111.6L48.3,112.1L48.7,112.3L49.1,112.2L49.2,112.5L47.9,113.0L47.2,113.0L46.9,112.5L46.1,112.6L45.1,113.0L45.0,113.3L45.5,113.2L46.1,113.3L46.1,113.5L46.0,113.6L45.6,113.7L45.4,114.0L45.2,114.7L45.9,114.7L47.1,114.3L48.1,114.4L47.8,114.7L47.0,114.8L46.8,115.0L45.7,115.4L45.5,115.6L45.5,116.0L46.0,116.4L46.4,116.3L46.4,116.0L46.9,115.4L47.2,115.4L47.6,115.7L47.6,116.1L49.1,116.0L49.3,116.2L48.7,116.6L47.7,116.7L46.8,117.0L46.9,117.3L47.4,117.2L48.2,117.2L48.3,117.3L48.2,117.7L47.5,117.9L47.4,118.0L47.7,118.3L48.7,118.3L50.0,117.7L51.1,117.6L51.8,117.3L52.3,117.9L52.8,118.0L53.2,118.4L54.6,118.2L54.9,118.4L55.9,118.4L56.5,118.8L56.7,118.5L56.8,118.2L57.4,117.7L58.5,117.4L59.9,117.4L61.1,117.7L61.5,117.4L62.0,116.9L62.8,116.6L63.4,117.1L63.6,118.0L63.9,118.4L64.7,118.8L65.7,118.7L66.1,119.0L66.6,119.1L68.1,118.0L68.2,117.5L68.4,117.3L68.7,117.3L69.3,117.7L69.7,117.7L70.9,117.4L71.7,116.8L72.9,116.6L73.7,116.0L73.8,115.5L75.2,114.6L75.8,114.6L76.2,115.1L76.2,115.5L76.4,115.7L77.2,115.7L78.2,116.7L79.5,116.9L80.8,116.6L81.2,116.2L81.3,115.8L81.7,115.2L82.4,114.7L83.1,114.5L84.0,114.6L85.9,114.2L86.5,114.2L87.1,113.7L87.2,113.4L87.0,113.3L86.8,113.3L86.7,112.7L86.6,112.5L86.6,112.1L87.0,111.7L87.7,111.7L87.7,111.1L88.0,111.0L88.1,110.7L88.1,110.3L87.9,110.3L87.7,110.6L86.2,110.7L85.4,111.1L84.9,110.9L84.7,110.7L84.1,110.5L83.9,110.3L84.2,110.0L85.8,110.2L86.9,110.1L87.4,110.0L87.0,109.5L87.0,109.2L87.4,108.8L87.9,108.7L88.1,108.5L88.1,108.3L87.8,108.1L87.0,108.0L86.8,107.7L87.1,107.4L88.3,107.7L89.0,107.7L89.6,107.4L89.5,107.1L89.3,107.1L88.7,106.6L88.0,106.6L87.7,106.3L87.7,106.0L87.9,105.8L88.5,105.7L89.2,105.3L90.8,105.3L92.0,105.2L92.3,104.8L92.3,104.2L92.8,103.8L93.6,103.4L93.8,102.9L93.4,102.5L93.4,102.3L94.7,101.3L94.7,100.9L94.6,100.3L94.7,100.0L95.0,99.8L95.8,99.6L96.1,99.1L96.2,98.3L96.0,98.1L95.3,98.1L94.8,97.6L94.8,97.1L95.4,96.6L96.1,96.5L96.6,96.2L96.6,95.8L96.2,95.2L95.0,95.2L94.7,94.8L94.7,94.5L95.2,94.1L96.4,93.9L96.5,93.7L96.6,92.8L97.1,92.3L97.9,91.9L98.7,91.2L98.7,90.8L97.9,90.6L97.9,90.0L97.7,89.9L96.8,89.8L96.5,89.6L96.5,89.2L98.9,87.5L99.5,86.6L99.4,85.5L98.7,84.9L98.7,84.5L99.2,84.0L99.2,83.5L99.0,83.3L99.0,82.9L99.6,82.4L99.6,82.0L98.4,81.3L97.9,80.6L98.0,80.3L98.3,80.0L98.9,79.9L99.4,79.4L99.3,79.0L98.1,77.7L98.1,77.4L98.6,76.9L98.6,76.5L98.2,76.0L98.3,75.4L98.5,75.1L98.4,74.7L97.2,75.1L95.8,75.3L94.9,75.7L93.4,76.8L92.8,77.0L91.5,77.9L90.7,78.1L89.9,78.1L88.8,78.5L87.4,78.3L85.5,78.4L82.9,77.5L81.9,77.4L81.3,77.1L80.2,76.9L80.1,76.7L80.3,76.4L80.7,76.4L82.6,76.9L83.8,77.0L84.4,77.1L85.5,77.1L86.0,77.3L87.0,77.2L87.7,77.5L88.6,77.5L88.9,77.5L89.6,77.0L90.6,77.2L91.3,76.9L91.4,76.5L90.7,76.4L90.4,76.0L90.4,75.6L91.0,75.2L91.5,75.2L92.7,75.6L93.6,75.6L94.0,75.2L94.7,75.0L95.0,74.6L95.0,74.3L95.4,74.1L96.2,74.5L97.7,74.3L97.9,74.1L97.9,73.8L97.6,73.5L97.4,73.0L97.2,71.7L96.7,71.7L95.0,72.8L94.8,72.8L94.6,72.5L94.6,72.2L94.7,72.0L95.4,71.5L95.8,71.4L97.0,70.7L98.0,70.6L98.1,69.2L97.7,68.8L97.9,68.0L97.2,67.6L97.2,66.1L95.7,66.7L94.9,67.3L94.0,67.7L93.1,68.4L92.3,68.5L92.1,68.3L92.1,68.0L93.0,67.2L93.9,66.7L94.7,66.6L96.0,65.8L96.6,65.6L97.5,65.8L97.6,65.5L98.3,65.2L98.2,65.0L96.7,64.9L96.4,64.6L96.2,63.6L95.5,63.6L94.8,63.3L93.9,63.9L93.6,63.7L93.7,63.3L94.1,62.9L95.1,62.4L95.4,62.2L95.4,61.8L95.1,61.4L95.1,60.7L95.5,60.3L95.9,60.2L96.4,59.6L96.5,58.5L96.2,58.2L96.0,58.5L95.9,58.9L95.5,59.5L95.0,59.9L94.7,59.7L94.7,59.5L95.3,58.6L95.2,57.8L94.8,57.4L94.7,57.0L95.1,56.8L95.8,56.8L95.8,56.3L95.5,56.1L95.0,56.0L94.1,56.1L93.7,56.4L93.2,56.4L92.5,56.2L92.2,55.9L92.1,55.6L91.5,55.6L91.0,55.0L90.2,55.1L89.2,56.1L88.8,54.5L88.3,54.9L88.5,55.6L88.5,56.0L88.4,56.1L87.5,56.3L87.1,56.0L87.1,55.5L88.0,54.9L88.2,54.1L89.4,52.8L89.9,52.8L91.4,52.0L92.3,50.9L92.2,50.2L91.8,50.2L89.7,52.0L89.4,51.9L89.3,51.4L89.5,51.2L91.6,49.3L91.7,48.9L92.7,48.0L92.6,47.4L93.1,46.8L93.0,46.5L92.5,46.5L92.4,46.3L92.4,45.9L93.0,45.4L93.0,45.0L92.5,44.4L92.5,44.2L92.7,43.9L93.0,43.9L94.2,44.5L94.9,44.7L95.6,45.4L96.1,45.4L96.5,44.7L97.2,44.2L97.6,43.8L97.6,43.4L97.2,43.1L97.1,43.1L96.7,43.6L96.1,43.9L95.6,43.9L95.4,43.6L95.8,42.9L96.1,42.8L96.6,42.2L97.2,41.7L97.2,41.4L97.4,41.2L97.4,40.6L96.5,39.7L96.5,39.2L96.9,38.6L97.0,38.0L97.2,37.7L97.2,37.0L96.7,35.6L96.9,33.8L96.5,33.3L96.5,32.7L96.9,32.2L97.0,31.9L96.3,31.3L96.2,30.8L96.9,29.1L97.2,29.0L97.6,28.6L97.5,28.2L97.1,28.2L96.5,27.8L95.8,27.9L95.6,27.7L95.8,26.7L95.4,26.3L95.4,26.0L95.4,25.6L96.1,24.8L96.1,24.3L95.3,23.5L95.4,23.0L96.0,22.9L96.3,22.6L96.0,22.0L96.1,21.1L95.8,19.9L95.9,18.7L95.6,18.5L94.4,18.7L93.9,18.3L93.9,17.8L94.1,17.4L94.2,16.9L93.8,16.5L92.9,16.5L92.2,16.7L91.7,16.7L91.4,16.5L90.3,15.5L89.9,14.5Z M55.0,115.2L55.0,115.5L54.7,115.7L54.5,115.4Z M48.2,115.1L48.6,115.1L48.7,115.4L48.4,115.6L48.1,115.5L47.9,115.3Z M67.2,112.9L67.4,112.9L67.7,113.2L67.9,113.6L67.7,114.0L67.3,114.0L67.1,113.8L67.0,113.1Z M54.3,112.6L54.2,112.9L53.3,113.3L51.9,113.3L52.0,113.0L52.3,112.9L53.4,112.7L53.7,112.5Z M57.3,112.5L57.6,112.2L57.8,112.2L57.9,112.5L57.6,112.7L57.4,112.7Z M63.6,112.0L63.6,112.2L63.0,112.6L61.8,112.8L61.0,113.2L60.0,113.4L59.3,114.0L58.3,114.5L57.1,114.7L56.9,114.4L57.4,114.0L58.0,113.8L58.1,113.6L59.2,113.0L60.0,113.0L61.3,112.2L62.2,112.0L62.5,111.8L63.0,111.7L63.3,111.8Z M55.1,111.6L54.7,111.9L54.0,112.2L52.0,112.4L51.3,112.7L50.4,112.8L50.0,112.6L49.9,112.3L50.5,112.3L52.0,111.9L53.0,111.8L54.9,111.3Z M49.1,111.4L49.4,111.1L49.6,111.1L49.9,111.4L49.9,111.7L49.4,111.8L49.1,111.6Z M56.1,111.1L56.5,110.9L56.8,111.0L56.6,111.3Z M58.2,110.4L58.4,110.7L58.2,110.6Z M58.7,110.5L58.9,110.2L59.2,110.4L58.9,110.6Z M56.2,110.4L55.4,110.8L51.3,111.8L50.4,111.8L50.1,111.6L50.2,111.5L51.3,111.2L51.6,111.1L54.0,110.7L54.5,110.5L55.3,110.4L55.7,110.2Z M52.6,110.3L53.0,110.0L53.9,110.2L53.3,110.5L52.8,110.5Z M60.7,109.0L60.2,109.4L59.6,109.3L58.0,109.4L57.8,109.1L58.2,108.9L59.4,108.9L60.0,108.8L60.4,108.8Z M46.9,108.2L46.8,108.5L46.5,108.7L45.6,108.7L45.3,108.5L45.3,108.4L45.7,108.2L46.8,108.1Z M49.1,107.7L49.4,107.4L49.8,107.4L50.5,108.1L51.3,108.1L51.8,107.9L53.4,107.9L54.5,108.3L54.5,108.5L54.3,108.6L53.9,108.7L49.8,108.8L49.3,108.3Z M54.8,108.4L54.9,107.6L55.6,107.5L55.7,107.4L56.3,107.4L56.7,107.9L57.1,108.0L60.9,108.0L61.3,108.5L61.2,108.7L60.9,108.8L60.7,108.5L55.2,108.5Z M47.6,105.3L47.6,105.6L47.2,105.6L47.2,105.4Z M77.9,105.0L78.4,105.1L78.7,105.7L78.6,105.9L78.3,105.9L77.8,105.5Z M71.7,104.9L70.5,105.6L69.8,105.6L69.0,105.2L68.5,105.2L68.4,105.5L68.1,105.7L67.5,105.7L66.6,105.4L65.6,105.4L65.1,105.8L64.0,105.9L63.6,106.6L63.6,107.2L63.3,107.8L63.1,108.6L62.6,109.1L62.4,108.8L62.5,106.8L62.9,106.1L62.9,105.9L62.5,105.6L61.2,105.6L60.6,105.9L60.3,106.2L59.8,106.3L55.4,106.0L54.8,105.9L54.6,105.7L54.6,105.6L54.9,105.3L55.2,105.2L58.4,105.2L59.6,104.8L61.0,104.7L61.4,104.5L62.3,104.5L63.3,103.6L63.5,103.6L64.0,104.0L64.7,104.2L65.7,104.2L66.4,104.3L68.7,104.2L69.7,104.5L71.3,104.5Z M49.9,102.7L50.5,102.6L51.0,102.7L51.2,102.9L52.5,103.1L52.7,103.1L52.9,102.3L53.0,102.3L55.6,102.3L56.0,102.5L57.4,102.4L57.9,102.7L58.9,102.9L58.9,103.4L59.8,103.3L60.0,103.4L60.0,103.8L59.6,104.0L58.2,104.0L57.7,104.2L57.1,104.2L56.7,103.8L56.5,103.1L56.3,102.9L56.0,102.9L55.6,103.8L55.7,104.1L55.5,104.3L52.3,104.5L51.9,104.3L51.4,103.6L49.9,103.0Z M50.9,102.3L50.9,102.1L51.4,102.2L51.2,102.5L51.0,102.5Z M54.5,101.3L54.5,101.0L55.2,101.0L56.2,101.3L60.9,101.5L61.8,101.8L62.6,101.9L63.0,102.3L62.9,102.6L62.5,102.6L62.1,102.3L60.9,102.3L60.5,102.5L59.6,102.5L59.4,102.3L58.9,102.3L58.2,102.1L55.2,102.1L54.9,102.0Z M62.0,100.8L62.1,100.5L62.9,100.6L62.8,100.9L62.3,100.9Z M58.1,100.4L60.9,100.4L61.1,100.5L61.4,100.8L60.6,100.9L58.7,100.9L58.1,100.6Z M78.6,100.2L79.0,100.0L79.7,100.1L81.5,100.1L81.9,100.3L82.0,100.6L81.5,100.8L79.7,100.9L78.7,100.5Z M84.9,100.1L85.1,99.9L85.5,99.9L85.6,100.2L85.5,100.4L84.9,100.3Z M55.0,99.7L55.7,99.7L56.7,100.4L55.2,100.2L54.9,100.0Z M58.4,98.4L59.9,98.3L60.2,98.5L60.1,98.8L59.0,99.0Z M56.2,98.5L56.6,98.2L57.4,98.2L57.7,98.3L57.8,98.5L57.7,98.7Z M56.6,97.2L57.0,97.2L57.1,97.4L57.1,97.8L56.9,98.0L56.5,98.0L56.3,97.9L56.3,97.5Z M51.7,96.1L51.8,96.0L52.4,96.1L52.7,96.2L52.7,96.5L52.3,96.5Z M81.1,95.2L81.4,95.0L81.5,95.4Z M75.8,94.5L75.9,94.3L78.3,94.3L78.6,94.7L78.5,94.8L77.4,94.9L76.8,94.7L76.0,94.7Z M82.8,94.3L83.1,94.0L84.1,93.9L85.1,94.2L89.4,94.4L90.3,94.7L91.5,94.7L91.8,94.9L92.5,94.9L92.8,95.0L92.8,95.4L92.6,95.7L91.2,95.7L90.0,95.4L89.0,95.4L88.1,95.2L87.0,95.2L86.5,95.0L83.1,94.7L82.8,94.5Z M69.2,94.1L69.5,93.9L71.6,93.9L71.8,94.3L71.5,94.5L69.8,94.5L69.3,94.3Z M53.5,95.6L54.1,95.5L54.3,95.2L54.9,94.6L59.5,93.0L60.3,93.1L60.6,93.4L60.6,93.8L60.4,93.9L60.4,94.0L60.7,94.0L61.2,93.6L61.8,93.4L62.9,93.5L63.7,93.3L68.6,93.8L69.1,94.0L69.1,94.3L68.3,94.4L65.8,94.3L65.3,94.6L63.5,94.5L63.3,94.8L63.4,96.5L62.9,97.2L62.9,97.6L63.1,97.8L63.8,97.9L65.7,97.9L66.7,98.0L66.9,98.2L71.2,98.4L72.8,98.8L73.1,99.1L72.8,99.4L71.9,99.4L70.7,99.1L69.9,99.1L69.5,99.0L68.5,99.0L65.5,98.8L62.5,99.0L62.3,98.8L62.3,97.9L62.2,97.4L62.2,96.8L62.5,96.3L62.4,95.4L62.1,95.2L61.7,95.1L61.4,94.9L60.5,95.0L60.2,94.7L59.7,94.7L59.5,95.0L59.5,95.2L60.0,95.5L60.5,95.6L60.7,95.8L60.7,96.1L60.4,96.3L58.7,95.9L57.8,95.4L57.4,95.5L57.9,96.0L58.5,96.1L58.5,96.5L58.2,96.5L58.1,96.2L57.7,96.2L56.2,95.7L55.6,95.7L54.9,96.1L53.9,96.2L53.5,96.0Z M54.1,92.4L54.7,92.5L55.0,92.8L54.9,93.2L54.4,93.1L54.1,92.8Z M55.6,91.3L57.5,92.2L57.4,92.5L57.2,92.5L56.8,92.1L55.7,91.7L55.6,91.5Z M56.8,91.1L57.2,91.0L58.0,91.4L58.0,91.7L57.2,91.4Z M52.7,90.9L52.8,90.7L53.3,90.7L54.1,91.2L54.3,91.4L54.2,91.7L53.9,91.7L52.9,91.2Z M79.1,90.8L79.2,90.6L80.2,90.5L82.5,91.0L84.7,92.1L85.0,92.5L84.8,92.7L84.2,92.7L82.6,92.0L80.7,91.4L80.0,91.3Z M59.5,90.4L59.6,90.3L60.3,90.3L60.5,90.6L60.4,91.0L59.9,91.0L59.5,90.6Z M84.6,90.2L85.1,90.2L85.4,90.3L86.9,90.3L87.4,90.5L88.9,90.6L89.9,90.3L90.5,90.5L92.5,90.5L92.8,90.6L92.8,90.8L92.5,91.0L91.8,91.1L91.1,91.4L90.3,91.4L88.8,91.9L88.5,91.9L88.0,91.4L87.0,91.4L86.3,91.0L85.0,90.8L84.6,90.6Z M74.4,90.2L75.0,90.1L75.2,90.2L75.2,90.6L74.5,90.6L74.3,90.5Z M55.1,90.1L55.5,90.1L55.8,90.3L56.3,90.8L55.5,90.6L55.1,90.3Z M57.0,89.9L58.8,90.6L59.1,91.2L58.8,91.2L57.7,90.7L57.0,90.2Z M52.3,89.6L52.5,89.4L53.2,89.6L54.1,90.3L54.1,90.6L53.8,90.6L53.0,90.2Z M55.3,89.4L55.6,89.2L55.7,89.2L56.1,89.5L56.7,89.7L56.7,90.0L56.3,89.9L56.0,89.7Z M53.5,89.3L53.7,89.1L54.1,89.3L54.1,89.6L53.7,89.5Z M56.0,88.6L56.1,88.4L56.5,88.2L57.4,88.3L59.2,88.8L60.3,89.5L60.5,89.5L61.4,89.9L61.9,90.1L62.0,90.3L61.8,90.5L61.4,90.5L60.8,90.2L59.6,89.9L59.4,89.8L58.9,89.8L58.7,90.0L58.4,90.0L57.5,89.5L57.3,89.5L56.7,89.2Z M79.4,87.8L79.7,87.5L81.7,87.4L83.5,88.0L84.4,88.0L85.5,88.2L85.8,88.4L85.9,88.7L85.5,88.9L85.0,89.0L84.6,88.8L82.9,88.7L82.1,88.5L80.9,88.4L80.7,88.2L79.7,88.1Z M88.0,88.1L88.1,87.7L88.4,87.4L90.2,87.6L91.3,87.3L91.7,87.3L92.9,87.6L93.9,87.6L94.3,87.7L95.7,87.7L95.7,87.9L95.1,88.5L93.5,88.5L92.8,88.3L91.3,88.3L90.2,88.5L89.3,88.3L88.4,88.5Z M52.8,86.8L52.9,86.6L53.1,86.6L53.3,86.8L53.1,87.0Z M55.3,86.2L55.8,86.2L56.6,86.6L57.1,87.2L56.7,87.4L56.3,87.0L55.7,86.9L55.2,86.5Z M81.9,85.8L83.0,85.8L83.7,85.9L83.9,86.2L83.7,86.3L82.5,86.3L81.9,86.0Z M59.2,85.4L59.4,85.2L59.6,85.2L60.0,85.3L60.2,85.6L60.0,85.8L59.4,85.7Z M89.2,84.8L89.6,84.6L89.9,84.6L90.6,84.8L91.9,85.0L91.7,85.2L89.7,85.2L89.4,85.2Z M62.1,84.4L62.2,84.5L62.4,85.2L62.8,85.9L62.6,86.2L62.2,86.2L61.8,86.0L61.5,85.6L61.6,84.9L61.8,84.6Z M75.0,83.3L74.7,83.5L70.1,83.7L69.3,83.4L69.2,83.1L69.7,82.8L71.4,82.7L72.6,82.3L73.1,82.3L73.5,82.6L74.7,82.9Z M61.4,82.4L61.8,82.1L62.5,82.1L63.6,82.6L64.3,82.6L64.4,82.7L64.5,83.0L64.3,83.3L63.9,83.5L62.8,83.3L61.8,83.4L61.4,83.0Z M73.9,82.1L74.9,81.9L75.5,81.9L76.0,82.0L76.1,82.3L76.0,82.4L75.6,82.5L74.4,82.5L73.9,82.3Z M54.1,81.3L54.3,81.2L55.6,81.2L56.1,81.4L56.3,81.7L55.8,82.0L55.4,82.0L54.3,81.7L54.1,81.5Z M94.8,82.3L94.5,82.6L93.9,82.7L91.9,82.7L90.7,83.0L89.6,83.0L89.2,83.1L85.4,83.2L84.4,83.0L82.5,82.3L81.5,82.3L81.2,82.0L81.2,81.8L81.9,81.6L83.9,81.8L84.4,81.9L85.6,81.9L86.3,82.2L88.8,82.0L89.2,81.9L89.2,81.7L88.8,81.5L88.3,81.3L88.3,81.0L88.5,80.8L89.1,80.8L89.7,81.0L90.5,81.7L91.0,81.9L91.8,81.9L92.5,81.6L93.2,81.6L93.6,81.8L94.5,81.8L94.8,82.0Z M92.2,79.4L92.2,79.7L92.0,79.9L91.4,80.1L89.9,80.1L89.8,80.1L89.6,79.7L90.1,79.5L91.4,79.4L91.7,79.3L92.1,79.3Z M58.2,78.4L58.4,78.2L58.9,78.2L59.6,79.0L60.0,79.2L60.3,79.6L60.7,79.7L60.8,80.1L59.4,79.6Z M53.9,78.1L54.5,78.2L55.2,79.1L55.0,79.4L54.8,79.4L54.1,78.9L53.8,78.5L53.8,78.2Z M56.1,77.5L56.6,77.6L57.3,78.2L57.2,78.4L56.4,78.1L56.0,77.7Z M59.5,76.7L59.7,76.4L60.0,76.5L60.2,77.0L59.9,77.1Z M62.3,79.6L62.2,79.7L61.8,79.8L59.0,78.2L57.9,77.1L57.8,76.8L58.2,76.5L58.6,76.6L59.1,77.2L60.2,77.9L60.7,78.6L61.1,78.6L61.4,78.2L61.2,76.6L61.4,76.4L61.9,76.3L62.2,76.5L62.0,77.5L62.4,79.0Z M55.4,76.0L55.1,75.8L55.4,75.7Z M54.5,74.0L54.8,73.8L55.2,74.2L56.3,74.4L57.1,75.0L57.1,75.6L56.7,75.9L56.0,75.8L54.9,74.5L54.6,74.4Z M53.0,73.5L53.6,73.5L53.8,73.9L54.1,74.2L54.5,74.7L54.2,75.0L53.8,74.8L53.0,74.0Z M54.1,68.0L54.1,68.3L53.8,68.2Z M55.2,67.7L55.5,67.8L55.7,68.0L55.6,68.3L55.2,68.1Z M59.7,67.3L60.0,67.3L60.4,67.7L61.2,68.1L62.6,69.1L62.9,69.2L63.3,69.5L63.2,69.8L62.4,69.8L59.7,67.7Z M63.7,66.5L64.1,66.6L64.2,66.9L63.9,66.9L63.6,66.6Z M55.7,60.1L56.0,60.4L56.2,60.4L56.8,61.4L57.3,61.7L57.6,62.1L57.4,62.2L57.1,62.2L55.6,60.5Z M56.4,60.2L56.6,60.0L57.0,60.0L57.8,60.8L58.0,61.2L58.9,61.9L58.9,62.2L58.7,62.3L58.2,62.2L56.6,60.7Z M89.2,57.3L89.3,57.8L88.4,58.4L88.0,58.9L87.7,58.9L87.7,58.1L87.8,57.8L88.3,57.4Z M87.4,54.9L87.3,55.3L87.0,55.3L86.8,55.6L86.0,55.3L85.9,55.2L85.9,54.9L86.5,54.9L87.1,54.5Z M88.8,50.5L89.0,50.9L88.5,51.3L88.2,51.3L88.1,51.2L88.1,50.9L88.3,50.7Z M66.3,49.8L66.9,49.8L67.2,50.1L67.2,50.2L67.0,50.4L66.4,50.2L66.2,50.1Z M67.6,48.3L68.1,48.2L69.1,48.6L69.8,49.0L70.0,49.4L69.3,49.4L68.8,49.2L67.9,49.1L67.5,48.6Z M91.6,48.3L91.0,48.7L90.0,48.9L90.0,48.3L90.2,48.2L91.3,48.0Z M89.1,48.1L89.1,48.5L87.9,49.7L87.3,49.7L87.0,49.4L87.0,49.0L87.4,48.7L87.9,48.7L88.5,48.3Z M62.1,45.4L62.2,45.0L63.7,45.1L65.8,45.8L66.1,46.1L66.6,46.2L67.2,46.2L67.3,46.4L67.3,46.6L66.5,46.7L65.8,46.4L65.2,46.4L64.6,46.1L63.3,45.9Z M88.6,44.6L88.6,44.8L88.1,45.4L88.1,45.9L87.4,46.5L86.0,47.2L85.3,47.5L84.3,48.3L84.0,48.3L83.4,48.7L82.7,48.8L82.3,49.0L82.1,48.9L82.1,48.6L82.3,48.3L83.7,47.6L83.8,47.5L83.5,47.2L83.5,46.7L84.6,45.9L85.0,45.4L85.1,44.9L85.3,44.7L85.9,44.7L86.3,44.4L86.6,44.4L86.8,44.7L86.8,44.9L87.0,45.0L87.5,44.4L88.2,44.3Z M82.6,40.5L83.0,40.2L83.8,40.2L84.2,40.5L84.2,40.8L84.0,41.1L83.0,41.1L82.6,41.0Z M92.4,39.4L92.8,39.5L93.6,40.4L93.7,40.8L93.6,42.0L93.9,42.1L94.1,41.8L94.1,41.2L94.3,41.0L94.7,41.0L95.0,41.4L95.0,42.8L94.7,43.5L94.3,43.9L93.6,43.9L93.5,43.8L93.4,43.2L93.2,43.1L92.8,43.1L92.4,42.5L92.4,42.0L92.8,41.4L92.8,41.0L92.5,41.1L92.1,41.8L91.2,42.4L90.8,42.4L90.6,42.2L90.8,41.0L91.0,40.7L91.5,40.6L92.0,40.2L92.1,39.7Z M70.6,38.2L70.9,37.9L72.0,37.9L73.0,38.1L73.2,38.3L73.0,38.6L71.3,38.7L70.9,38.5Z M82.9,37.8L83.0,38.1L82.6,38.6L82.5,39.2L82.3,39.5L79.7,39.5L78.9,39.9L78.2,39.9L77.9,39.8L77.6,39.4L77.7,39.1L78.3,38.9L78.8,38.6L80.4,38.4L81.5,37.8Z M36.3,37.1L36.5,37.1L36.7,37.4L36.7,37.6L36.5,37.9L36.3,37.9L36.1,37.7L36.1,37.4Z M33.2,34.7L33.5,35.0L33.3,35.4L33.0,34.8Z M82.0,32.7L81.9,33.6L82.1,33.6L82.3,33.9L81.9,34.3L81.0,34.4L80.8,34.5L81.0,35.4L80.8,35.6L80.5,35.6L79.5,34.6L79.5,34.3L80.0,33.1L80.1,33.0L81.0,33.1L81.8,32.6Z M32.6,33.5L33.3,32.9L33.3,32.6L33.6,32.3L34.1,32.5L34.8,33.3L34.9,34.0L36.3,34.0L36.6,34.2L36.6,34.4L36.3,34.6L35.1,34.6L34.8,34.4L34.7,34.1L34.1,33.9L32.9,34.0Z M34.3,29.4L34.5,29.7L34.6,30.2L34.4,30.5L34.1,30.5L33.9,30.3L33.9,29.8Z M78.4,27.8L79.1,27.6L79.5,27.8L79.6,28.2L79.3,28.4L78.9,28.3L78.3,28.0Z M32.9,27.5L33.6,27.5L33.7,27.7L33.7,28.1L33.4,28.4L33.1,28.4L32.7,27.7Z M75.3,27.7L75.3,27.9L75.1,28.2L74.4,28.2L73.5,28.6L73.1,29.0L72.2,29.0L71.9,29.3L71.3,29.3L71.2,29.2L71.3,28.7L71.3,27.9L72.4,27.3L72.8,27.3L73.2,27.1L74.5,27.1L75.0,27.3Z M72.2,22.7L72.3,23.1L71.4,23.7L70.2,23.8L70.1,23.6L70.2,23.3L71.0,22.9L71.7,22.7Z M78.5,16.5L78.5,16.7L77.9,17.3L77.5,17.4L76.3,18.4L75.3,18.7L74.6,19.4L73.9,19.7L73.3,19.8L71.6,20.7L70.9,20.8L70.1,21.4L69.5,21.5L69.2,21.3L68.7,21.3L68.3,21.7L68.1,22.2L67.7,22.7L67.3,22.8L66.5,22.8L65.8,23.0L65.3,23.4L64.7,23.6L64.0,24.2L63.4,24.1L63.7,23.3L65.2,21.7L66.9,21.1L67.5,20.4L68.3,20.5L69.8,20.1L70.5,19.5L71.4,18.9L72.2,18.1L73.5,17.3L75.6,16.6L75.9,16.4L76.8,16.1L77.9,16.1Z M73.0,14.2L73.1,14.5L72.8,14.7L72.6,14.7L72.5,14.4L72.8,14.2Z M68.5,11.6L68.6,11.9L68.4,11.8Z" fill="#000" fill-rule="evenodd"/>
</svg>