<svg xmlns="http://www.w3.org/2000/svg" viewBox="0 0 128 128" width="128" height="128">
  <path d="M64.1,85.3L63.9,86.1L64.0,90.7L64.4,94.2L64.8,95.4L65.6,97.5L66.3,98.7L67.1,99.5L67.7,99.8L68.2,99.8L68.5,99.6L69.0,99.0L69.0,97.6L67.9,95.5L66.8,93.8L65.4,91.0L64.8,89.5L64.6,88.5L64.5,85.8L64.4,85.5Z M55.0,84.0L54.6,84.3L54.3,84.7L54.3,85.4L54.7,86.5L55.4,87.4L55.5,87.2L55.4,86.7L55.4,85.8L55.7,85.0L55.7,84.4L55.4,84.0Z M108.1,82.9L106.3,83.6L105.1,84.3L103.4,85.9L102.7,87.0L102.1,88.0L101.7,89.2L101.6,90.5L101.4,90.9L101.4,91.7L101.7,93.9L102.7,96.0L103.5,97.2L104.7,98.3L105.9,99.2L107.9,100.1L109.0,100.3L111.5,100.3L112.8,100.1L113.2,99.9L113.7,99.8L114.7,99.3L116.3,98.1L117.1,97.2L118.3,95.6L118.8,94.2L119.1,92.7L119.2,91.3L118.9,89.0L118.1,87.1L117.4,86.2L115.9,84.6L114.7,83.8L112.6,82.9L111.3,82.7L109.5,82.7Z M100.1,92.1L100.4,91.3L100.5,90.1L100.8,89.4L100.8,88.7L101.0,87.8L101.3,85.1L101.6,76.7L101.5,75.2L101.2,75.7L100.8,76.7L100.5,77.3L99.4,78.5L98.8,79.0L97.7,79.6L96.0,80.1L92.1,80.1L89.7,80.0L89.2,79.8L87.3,79.7L86.5,79.4L85.4,79.4L84.5,79.2L83.6,79.2L82.5,78.9L80.3,78.8L79.0,78.5L75.4,78.5L73.3,78.5L70.6,79.1L68.4,80.1L68.2,80.5L69.7,80.2L71.5,80.5L72.6,80.9L74.0,82.0L74.5,82.8L75.6,84.7L76.1,86.3L77.4,92.0L78.1,94.0L78.6,94.9L79.9,96.8L81.1,98.0L82.4,99.1L84.0,99.9L86.9,100.5L90.0,100.6L91.8,100.3L93.0,100.0L94.9,99.2L96.5,98.1L98.1,96.4L98.6,95.6L99.7,93.3L99.7,92.9Z M71.9,71.8L72.1,71.8L72.1,71.6Z M102.2,66.1L101.3,66.1L100.8,66.5L100.7,66.9L100.7,67.9L100.8,68.2L100.9,69.2L101.3,70.6L101.5,72.3L101.7,73.0L101.9,72.4L102.0,71.2L102.8,68.1L102.8,66.9L102.4,66.3Z M54.0,58.8L53.5,58.9L52.7,59.5L50.8,60.5L49.4,61.0L48.9,61.3L48.7,61.3L46.9,62.1L44.2,63.0L43.8,63.2L43.3,63.3L41.7,63.9L41.0,64.1L40.6,64.3L39.6,64.6L39.2,64.8L37.6,65.4L34.9,66.7L31.7,68.9L29.6,70.9L28.6,72.3L27.2,74.7L26.3,77.7L26.2,78.5L26.0,78.8L25.9,79.7L25.8,81.2L25.9,83.9L26.0,85.1L27.2,88.6L28.6,91.5L30.4,93.9L31.9,95.4L33.4,96.6L36.6,98.4L37.1,98.5L37.4,98.7L38.5,99.1L38.9,99.3L43.0,100.2L43.9,100.2L45.6,100.5L49.3,100.5L50.0,100.3L51.7,100.2L52.0,100.0L50.4,99.9L49.4,99.5L49.1,99.5L48.4,99.0L47.9,98.8L46.6,97.9L45.0,96.0L44.8,95.6L44.1,94.7L42.7,92.0L41.9,89.4L41.4,87.2L41.0,82.3L41.3,78.6L41.9,76.0L43.2,72.2L44.5,69.6L46.6,66.4L49.3,63.0L52.2,60.3L53.5,59.4Z M30.1,58.2L29.9,58.4L29.5,60.5L28.9,62.5L28.9,64.0L29.5,64.8L29.9,65.0L30.5,65.0L31.0,64.7L31.3,64.2L31.4,62.7L31.1,61.7L30.9,61.4L30.7,60.3L30.2,59.2Z M10.9,56.8L11.0,57.7L11.4,58.3L11.9,58.7L12.6,59.0L13.6,59.2L15.2,59.2L15.7,59.0L16.3,59.0L17.4,58.6L17.4,58.4L16.7,58.4L15.4,58.0L13.4,56.2L12.5,55.7L11.7,55.8L11.1,56.3Z M59.7,29.6L59.2,30.3L59.2,30.9L59.3,31.4L62.3,35.6L63.2,37.8L64.0,40.3L64.0,41.4L63.9,43.0L63.5,44.2L63.5,44.8L63.7,45.1L63.9,45.7L64.1,45.9L64.3,46.2L64.4,48.0L65.2,51.0L66.3,53.2L67.2,54.4L68.5,55.7L70.1,57.0L71.7,57.8L72.9,58.2L73.8,58.4L76.4,58.4L78.5,57.9L79.7,57.4L81.6,56.1L82.8,54.7L83.3,53.9L83.8,52.7L83.8,51.7L84.0,51.2L84.1,49.5L83.7,46.9L83.3,46.0L82.5,44.6L81.0,43.1L79.5,42.1L75.6,40.2L73.7,38.4L73.0,37.4L72.3,35.5L72.3,33.0L72.9,31.6L73.3,31.1L74.5,29.8L74.5,29.7L74.3,29.7L73.3,30.1L72.4,30.9L72.0,31.0L70.4,32.3L68.9,33.7L67.5,35.3L66.6,36.7L65.6,38.6L65.0,40.7L64.7,41.0L64.5,40.9L64.5,38.4L64.3,35.1L63.8,32.9L63.3,31.6L62.7,30.5L61.7,29.4L60.9,29.2L60.5,29.2Z M31.7,35.3L31.4,36.3L31.3,36.4L30.8,38.6L30.5,41.7L30.2,48.7L30.2,54.5L30.3,54.5L30.9,53.3L31.3,52.7L32.6,51.4L34.5,50.3L35.3,50.2L35.7,49.9L37.3,49.5L38.6,49.5L40.3,49.1L43.9,49.1L47.3,49.5L48.9,49.5L52.5,49.9L55.5,49.8L57.0,49.6L59.0,49.1L60.0,48.6L60.9,47.9L60.9,47.8L60.6,47.8L59.4,48.3L57.8,48.3L57.0,48.1L55.8,47.5L54.3,46.2L53.5,45.0L52.5,43.1L52.0,41.2L51.6,40.2L51.0,36.9L49.8,33.6L49.3,32.6L47.9,31.1L46.4,30.0L46.0,29.9L45.6,29.6L43.9,29.1L42.3,28.9L40.3,28.9L38.5,29.2L37.3,29.6L36.9,29.9L36.3,30.1L35.3,30.7L33.6,32.3L32.6,33.6Z M91.9,29.9L88.8,28.8L85.0,28.1L81.2,28.0L78.8,28.2L78.1,28.5L80.2,28.8L81.1,29.1L82.8,30.1L84.6,31.9L86.2,34.7L87.2,37.4L87.7,40.9L87.8,46.0L87.6,48.7L87.3,50.0L87.2,51.5L86.9,52.4L86.8,53.2L86.5,53.8L86.3,54.9L86.1,55.3L85.4,57.2L84.5,59.2L83.8,59.9L83.6,60.5L81.1,63.7L78.8,65.9L75.3,68.8L74.5,69.3L73.0,70.6L72.4,71.3L72.4,71.5L73.2,71.0L74.7,69.8L79.1,67.7L81.1,67.0L82.6,66.4L83.3,66.3L84.4,65.8L84.7,65.8L87.1,65.0L87.5,64.8L89.6,64.2L90.0,63.9L93.0,62.8L95.2,61.6L96.9,60.4L98.4,59.2L100.0,57.3L101.3,55.2L102.3,52.5L102.8,49.9L102.8,49.1L103.1,47.9L103.1,44.4L102.7,42.2L101.9,39.8L100.4,37.1L98.7,34.8L97.5,33.6L95.4,31.9L93.6,30.8Z M16.4,27.8L14.4,28.3L12.9,29.1L11.9,29.9L10.6,31.3L9.7,32.9L9.4,34.0L9.3,34.2L9.1,35.1L9.2,38.4L10.0,40.5L10.4,41.3L11.3,42.5L12.5,43.7L13.8,44.5L15.0,45.2L16.2,45.6L16.7,45.9L17.3,46.0L19.9,47.1L21.3,48.2L22.2,49.4L22.7,50.2L23.0,51.4L23.1,53.0L22.9,54.2L22.3,55.3L21.7,56.2L21.7,56.4L22.3,56.1L23.7,54.6L25.5,52.5L26.2,51.4L26.4,51.0L26.6,50.7L27.7,48.6L27.8,48.1L28.0,47.8L28.4,46.7L29.1,44.2L29.5,40.9L29.5,39.1L29.3,38.0L28.6,35.2L27.6,33.2L26.4,31.4L24.6,29.7L22.8,28.6L20.6,27.8L19.5,27.7Z" fill="#000" fill-rule="evenodd"/>
</svg>