<svg xmlns="http://www.w3.org/2000/svg" viewBox="0 0 128 128" width="128" height="128">
  <path d="M20.8,118.4L20.5,118.6L20.5,118.7L20.8,118.7L20.9,118.8L20.9,120.0L21.0,120.2L21.0,120.2L21.0,118.5L21.0,118.4Z M25.7,118.4L25.0,118.3L24.8,118.4L24.8,118.5L24.8,118.5L25.4,118.5L25.5,118.7L25.5,118.9L25.4,119.0L25.4,119.1L25.3,119.3L25.1,119.6L25.1,119.7L25.1,119.8L25.0,120.0L25.1,120.2L25.2,120.1L25.2,119.8L25.4,119.6L25.5,119.1L25.7,118.7L25.7,118.4Z M23.5,118.4L23.3,118.4L23.2,118.6L23.2,119.0L23.3,119.2L23.3,119.4L23.1,119.7L23.2,120.1L23.4,120.3L24.1,120.3L24.3,120.1L24.3,119.6L24.1,119.4L24.2,119.1L24.2,118.6L24.0,118.4Z M23.7,119.4L23.9,119.4L24.1,119.7L24.1,120.0L23.9,120.1L23.7,120.2L23.5,120.2L23.3,120.0L23.4,119.6L23.6,119.4Z M23.5,118.5L23.9,118.5L24.1,118.8L24.1,119.0L23.9,119.1L23.6,119.2L23.4,119.0L23.3,118.8Z M21.9,118.4L21.8,118.4L21.7,118.5L21.7,118.8L22.1,118.5L22.4,118.5L22.6,118.7L22.5,119.0L22.4,119.1L22.2,119.2L22.1,119.3L22.5,119.6L22.6,119.7L22.6,120.0L22.4,120.2L22.1,120.2L21.9,120.1L21.7,119.8L21.7,120.2L21.8,120.3L22.6,120.3L22.8,120.0L22.8,119.6L22.7,119.3L22.7,119.0L22.7,118.5L22.6,118.4L22.4,118.3Z M89.5,61.3L89.5,61.5L90.7,62.7L91.1,63.5L91.5,64.6L91.6,65.1L91.7,65.9L91.5,66.8L91.3,67.6L91.2,67.9L91.2,68.0L91.4,68.0L92.0,67.8L92.6,67.6L93.1,67.5L93.9,67.5L95.1,67.7L95.3,67.8L95.7,67.9L96.3,68.2L97.1,68.7L97.7,69.3L97.9,69.6L98.5,70.5L98.9,71.4L99.0,72.3L99.1,72.9L98.9,74.1L98.7,74.7L98.6,74.7L98.7,74.9L98.9,75.0L99.2,74.8L99.6,74.7L99.8,74.6L100.0,74.6L100.3,74.5L100.8,74.4L102.0,74.5L102.8,74.7L103.7,75.1L104.6,75.6L105.2,76.2L105.4,76.3L105.5,76.3L105.6,75.6L105.9,73.8L106.0,73.3L106.1,72.2L106.5,69.9L106.6,69.4L106.7,69.1L106.7,68.4L106.9,67.9L107.1,66.0L107.3,65.2L107.3,64.8L107.2,64.7L105.8,63.3L105.6,63.1L101.2,59.1L100.9,58.9L99.9,59.1L99.6,59.2L99.1,59.3L98.2,59.5L97.7,59.6L97.3,59.7L96.8,59.8L96.5,59.9L95.8,60.0L94.9,60.2L93.4,60.5L93.0,60.6L92.5,60.6L92.2,60.8L91.8,60.8L91.4,60.9L90.1,61.2Z M101.5,58.8L101.5,59.0L101.7,59.2L103.0,60.4L103.5,60.8L104.0,61.3L104.7,61.9L105.0,62.3L106.3,63.4L106.4,63.5L107.1,64.2L107.4,64.2L108.4,57.5L108.3,57.4L108.0,57.4L107.5,57.5L107.3,57.6L107.1,57.6L106.5,57.7L105.7,57.9L104.6,58.1L103.7,58.3L102.8,58.5L102.4,58.6L102.3,58.6L101.7,58.7Z M40.2,11.3L38.8,12.1L38.4,12.3L37.2,13.1L37.0,13.3L36.5,13.6L36.4,13.7L36.2,13.8L35.5,14.4L35.3,14.5L34.8,14.9L34.3,15.4L33.7,15.8L32.2,17.3L31.2,18.5L30.9,19.0L30.6,19.3L29.7,20.6L28.7,22.2L28.2,23.0L28.2,23.1L27.8,23.8L27.7,24.3L27.4,24.8L26.9,26.1L26.7,26.4L26.3,27.7L26.3,28.0L25.9,28.9L25.8,29.5L25.6,30.6L25.4,31.8L25.3,32.2L25.1,34.6L25.1,36.0L25.2,38.0L25.5,39.9L25.6,40.1L25.7,40.9L26.0,41.8L26.1,42.3L26.7,44.4L26.9,44.7L27.1,45.5L27.6,46.7L28.4,48.3L28.7,48.8L29.0,49.3L29.4,49.9L29.5,50.1L29.6,50.2L29.8,50.6L30.4,51.4L30.8,51.9L31.5,52.8L32.6,54.1L34.1,55.6L34.3,55.8L34.3,56.0L33.8,56.4L33.5,56.6L33.2,56.9L32.7,57.3L31.8,58.0L31.6,58.1L30.4,59.2L29.2,60.4L27.4,62.5L26.1,64.2L25.3,65.4L24.1,67.4L23.9,67.8L23.6,68.5L23.5,68.6L23.1,69.3L22.7,70.3L22.7,70.4L22.6,70.7L22.4,70.9L22.4,71.0L21.5,73.2L21.0,74.8L20.9,75.3L20.9,75.4L20.7,76.1L20.6,76.5L20.5,76.8L20.3,77.7L20.1,79.2L20.0,79.7L19.9,80.7L19.7,82.7L19.7,85.5L20.0,88.4L20.3,90.2L20.4,90.4L20.6,91.7L20.7,92.1L20.8,92.4L21.2,93.8L21.3,94.2L21.8,95.7L22.4,96.8L22.4,97.1L23.6,99.5L24.9,101.6L26.0,103.2L26.7,104.3L27.0,104.5L27.1,104.7L28.8,106.8L30.9,108.9L32.3,110.2L32.4,110.2L33.1,110.8L33.4,111.0L34.1,111.6L35.7,112.7L37.2,113.6L39.1,114.5L39.3,114.6L39.8,114.9L40.6,115.2L41.2,115.5L42.5,115.9L43.1,116.1L43.4,116.2L44.3,116.5L45.3,116.7L45.8,116.9L46.1,116.9L46.4,117.0L46.9,117.1L47.5,117.3L48.0,117.3L48.5,117.4L51.0,117.7L53.1,117.7L54.4,117.7L55.1,117.6L56.3,117.6L56.5,117.5L57.4,117.4L57.9,117.3L58.5,117.2L59.0,117.1L59.3,117.1L60.6,116.8L60.9,116.7L61.2,116.6L62.6,116.3L63.0,116.1L64.0,115.8L66.1,115.0L66.6,114.7L66.8,114.6L67.1,114.4L67.2,114.4L67.4,114.3L68.2,113.9L70.1,112.9L70.2,112.7L70.7,112.5L72.7,111.1L72.7,111.0L73.4,110.5L74.9,109.2L77.8,106.3L78.8,105.3L81.2,102.9L81.3,102.9L81.5,103.0L92.6,114.2L92.6,114.3L93.3,114.9L98.1,119.8L98.5,119.8L103.4,114.9L105.1,113.0L105.7,112.5L105.8,112.3L106.4,111.8L106.5,111.6L107.5,110.7L107.6,110.4L107.6,110.3L107.5,110.1L106.6,109.3L105.1,107.8L104.6,107.1L104.4,107.0L104.4,106.9L103.9,106.4L103.9,106.3L103.3,105.6L102.6,104.6L102.0,103.3L101.8,102.7L101.6,102.3L101.6,102.0L101.4,101.7L101.1,100.2L101.0,99.2L101.0,97.6L101.1,96.9L101.2,96.5L101.3,96.0L101.5,95.1L101.6,94.8L101.6,94.4L101.8,94.0L101.9,93.3L101.9,92.9L101.8,92.5L101.3,91.7L96.4,86.9L96.3,86.7L96.4,86.5L96.8,85.9L97.8,84.9L98.1,84.6L99.2,83.4L99.5,83.1L99.6,82.8L100.0,82.5L101.6,80.7L102.8,79.4L104.1,78.0L104.9,77.2L105.1,76.9L105.1,76.7L104.9,76.4L104.4,75.9L104.1,75.6L103.4,75.2L102.3,74.8L101.5,74.7L100.5,74.7L99.6,74.9L98.8,75.3L97.9,75.9L97.8,75.8L97.9,75.6L98.2,75.2L98.4,74.7L98.6,74.2L98.6,73.9L98.7,73.9L98.8,73.6L98.8,72.2L98.7,71.6L98.5,71.0L98.0,70.0L97.6,69.5L96.8,68.8L96.3,68.4L95.4,68.0L95.1,68.0L94.8,67.9L94.6,67.9L94.2,67.8L93.4,67.8L92.5,67.9L92.1,68.0L91.2,68.4L90.5,68.9L90.3,68.9L90.3,68.8L91.0,67.8L91.2,67.2L91.3,67.0L91.4,66.3L91.5,66.2L91.4,65.1L91.3,64.5L91.2,64.1L91.1,63.9L91.0,63.8L90.9,63.5L90.3,62.6L89.6,61.9L89.3,61.7L89.2,61.7L89.0,61.8L84.0,66.8L83.3,67.4L81.1,69.7L80.2,70.5L80.1,70.5L79.8,70.4L73.0,63.7L72.9,63.6L70.7,61.3L69.9,60.7L68.1,58.8L67.9,58.5L67.9,58.4L72.1,54.2L73.5,52.7L73.6,52.5L73.8,52.4L74.5,51.4L75.8,49.6L75.9,49.4L76.1,49.2L76.2,48.7L76.4,48.6L77.6,46.1L77.8,45.6L78.1,44.8L78.6,43.5L79.1,41.6L79.6,39.1L79.7,38.2L79.7,37.1L79.8,36.7L79.8,34.3L79.7,33.6L79.7,32.9L79.6,32.2L79.6,31.9L79.1,29.3L79.0,28.9L79.0,28.6L78.8,27.7L78.4,26.8L78.4,26.5L78.1,25.8L77.9,25.3L77.9,25.1L77.6,24.5L77.5,24.2L77.1,23.4L77.0,23.1L76.9,23.0L76.4,21.9L76.2,21.7L75.9,21.2L75.7,20.9L75.6,20.6L75.0,19.8L74.5,19.1L74.2,18.7L73.4,17.7L73.4,17.7L72.7,16.9L71.1,15.2L70.9,15.1L70.2,14.4L69.8,14.2L69.6,14.0L68.8,13.4L68.7,13.2L67.4,12.4L66.9,12.2L66.1,11.7L65.5,11.4L65.4,11.3L63.1,10.2L61.1,9.5L60.7,9.4L59.9,9.1L59.5,9.1L59.0,8.9L58.7,8.9L58.5,8.8L55.9,8.4L54.3,8.3L51.7,8.3L50.1,8.4L47.4,8.8L44.8,9.4L44.5,9.6L43.6,9.8L43.4,9.9L42.2,10.3L42.0,10.5L41.5,10.7L40.7,11.1Z M99.0,116.4L99.3,116.6L99.6,117.0L99.6,117.2L99.5,117.3L98.8,118.1L98.6,118.1L98.2,117.9L97.9,117.7L97.8,117.5L97.8,117.3L98.3,116.7L98.6,116.4L98.7,116.4Z M96.7,114.2L97.0,114.3L97.1,114.4L97.4,114.8L97.4,115.0L97.1,115.3L96.6,115.8L96.4,115.9L96.3,115.9L96.0,115.8L95.7,115.5L95.7,115.4L95.7,115.0L95.8,114.9L96.4,114.3Z M94.5,112.0L94.8,112.2L95.1,112.4L95.1,112.5L95.1,112.9L94.7,113.4L94.3,113.7L94.0,113.7L93.7,113.5L93.5,113.3L93.5,112.9L93.9,112.5L94.3,112.0Z M102.0,110.3L102.4,110.3L102.8,110.4L103.1,110.8L103.3,111.2L103.3,111.6L103.2,111.9L102.8,112.3L102.6,112.4L102.1,112.4L101.8,112.3L101.4,112.1L101.2,111.7L101.2,111.2L101.3,110.9L101.7,110.4Z M92.5,109.9L93.0,110.3L93.0,110.6L92.8,111.0L92.2,111.5L91.8,111.5L91.6,111.4L91.4,111.1L91.3,111.0L91.3,110.8L91.4,110.7L92.1,109.9L92.3,109.8Z M90.3,107.7L90.5,107.8L90.7,108.0L90.9,108.3L90.9,108.5L90.1,109.3L89.9,109.3L89.7,109.3L89.2,108.9L89.2,108.8L89.2,108.6L89.9,107.8L90.1,107.7Z M88.1,105.5L88.2,105.6L88.6,106.0L88.7,106.3L88.3,106.7L87.9,107.2L87.5,107.2L87.1,106.9L87.0,106.7L87.0,106.4L87.2,106.2L87.7,105.6L87.9,105.5Z M85.9,103.4L86.2,103.5L86.5,103.8L86.6,103.9L86.6,104.1L85.8,104.9L85.7,105.0L85.5,105.0L85.0,104.6L84.9,104.4L84.9,104.3L85.1,104.0L85.6,103.5L85.8,103.4Z M83.9,101.2L84.3,101.6L84.4,101.8L84.4,101.9L84.3,102.2L84.0,102.6L83.5,102.9L83.3,102.9L83.1,102.8L82.8,102.4L82.7,102.2L82.8,102.0L83.6,101.2Z M100.4,92.7L100.7,92.8L100.9,93.0L101.1,93.2L101.1,93.5L101.0,93.6L100.5,94.2L100.2,94.4L99.9,94.4L99.7,94.3L99.4,94.0L99.3,93.6L99.4,93.5L100.1,92.8L100.3,92.7Z M98.3,90.6L98.5,90.7L98.9,91.1L98.9,91.5L98.5,91.8L98.2,92.2L98.0,92.2L97.7,92.2L97.4,92.0L97.2,91.8L97.2,91.5L97.6,91.0L97.9,90.7L98.1,90.6Z M96.2,88.5L96.6,88.9L96.7,89.0L96.7,89.4L96.0,90.0L95.9,90.1L95.6,90.1L95.1,89.7L95.1,89.3L95.3,89.1L95.8,88.5L96.0,88.5Z M51.3,72.8L51.6,72.8L52.1,73.3L52.3,73.5L58.5,79.7L58.8,79.9L61.4,82.6L64.3,85.5L64.7,85.9L64.6,86.2L62.6,88.3L60.2,90.7L60.0,90.9L59.2,91.7L58.7,92.1L58.0,92.6L56.7,93.2L55.6,93.6L54.1,93.8L52.4,93.9L51.3,93.7L51.1,93.6L50.8,93.6L50.6,93.5L50.3,93.5L48.7,92.7L48.5,92.5L48.2,92.3L46.9,91.2L46.3,90.6L45.5,89.5L45.1,88.8L44.6,87.8L44.3,86.3L44.1,84.6L44.3,82.8L44.6,81.3L44.7,81.0L44.8,80.6L45.2,79.8L45.2,79.7L45.4,79.4L46.4,78.0L46.7,77.6L46.8,77.5L48.0,76.2L48.1,76.1L48.7,75.5L48.8,75.4L48.9,75.3Z M52.6,29.0L53.6,29.1L54.6,29.3L55.7,29.8L56.8,30.5L57.9,31.6L58.4,32.5L58.7,33.1L59.0,33.7L59.2,34.7L59.1,35.7L58.9,36.8L58.6,37.6L58.2,38.3L58.0,38.7L57.4,39.3L56.1,40.5L53.2,43.2L52.7,43.5L52.5,43.5L52.4,43.4L51.7,42.8L51.2,42.3L49.9,41.1L48.3,39.4L47.7,38.7L47.2,37.9L46.9,37.0L46.7,36.3L46.6,35.3L46.7,34.4L46.8,33.7L47.0,33.0L47.2,32.7L47.3,32.4L47.5,32.0L47.6,31.8L48.2,31.1L48.6,30.7L49.3,30.2L50.4,29.6L51.1,29.4L51.2,29.3Z" fill="#000" fill-rule="evenodd"/>
</svg>