<svg xmlns="http://www.w3.org/2000/svg" viewBox="0 0 128 128" width="128" height="128">
  <path d="M15.3,67.6L14.0,68.8L12.2,70.9L11.1,72.8L10.2,75.2L9.7,77.9L9.7,80.9L10.0,82.5L10.2,82.8L10.2,83.2L10.9,85.0L11.8,86.8L13.1,88.5L14.8,90.2L16.8,91.7L18.4,92.5L21.4,93.6L23.7,94.1L26.3,94.5L26.5,95.1L26.1,98.0L26.1,100.5L26.5,103.4L27.1,105.5L28.9,109.2L30.3,111.1L31.9,112.8L34.1,114.7L34.5,114.9L35.2,115.5L38.7,117.0L39.4,117.1L40.0,117.4L41.2,117.5L42.8,117.8L45.7,117.8L48.1,117.5L49.6,117.0L51.7,116.1L52.2,115.7L52.8,115.5L55.4,113.8L57.3,112.1L59.0,110.2L61.0,107.4L63.1,103.0L63.5,101.7L64.0,98.9L64.3,96.1L64.1,93.0L64.3,92.6L68.2,91.4L68.4,91.1L69.0,90.9L69.5,90.6L70.1,90.4L71.9,89.1L73.6,87.4L76.3,83.7L76.8,82.6L76.8,82.0L75.8,81.3L74.4,80.6L73.4,79.9L71.6,79.2L68.9,77.6L68.5,77.6L68.0,77.9L66.4,80.2L64.6,82.0L63.3,82.6L62.6,82.9L61.8,82.9L61.5,82.5L61.4,82.0L61.1,81.5L60.0,79.0L58.8,77.0L58.7,76.7L57.9,75.6L57.6,74.8L56.9,74.1L56.3,73.1L55.0,71.7L53.9,70.3L52.1,68.7L51.7,68.7L51.2,69.2L50.0,71.4L48.1,74.3L46.8,76.8L46.9,77.3L47.1,77.8L49.0,79.9L50.7,82.4L51.2,83.5L51.2,83.7L50.9,84.0L50.5,84.1L41.4,84.4L38.3,84.3L38.1,84.0L38.1,83.5L38.4,81.5L38.4,77.6L38.0,75.1L37.3,73.1L36.8,72.3L36.2,70.9L34.8,69.1L32.9,67.4L30.2,65.8L27.9,64.9L25.7,64.5L22.3,64.5L20.9,64.8L19.3,65.3L16.5,66.8Z M54.4,94.5L54.5,97.1L53.8,100.2L53.5,100.8L53.4,101.4L52.8,102.5L52.0,103.5L51.2,104.4L50.0,105.3L48.6,106.1L47.0,106.7L45.5,107.0L43.5,107.0L41.8,106.6L40.4,106.2L39.1,105.4L37.5,104.0L36.3,102.4L35.4,99.3L35.2,97.3L35.4,95.1L36.0,94.6L36.8,94.4L40.0,94.4L42.5,94.1L48.7,94.1L49.7,94.0L53.6,93.9Z M20.8,74.7L21.4,74.2L22.7,73.7L23.9,73.5L25.6,73.7L26.2,73.8L27.2,74.4L28.7,75.9L29.6,77.8L30.0,79.6L30.0,81.5L29.2,83.6L28.7,84.1L27.7,84.4L25.3,84.3L23.0,83.8L21.3,82.9L20.0,81.6L19.1,80.0L19.0,77.7L19.1,77.2L19.3,76.8L19.6,76.0Z M83.6,51.8L83.0,52.0L82.5,52.6L80.5,56.3L79.3,58.0L78.5,59.4L78.4,60.0L78.5,60.2L79.0,60.7L81.4,62.3L82.4,63.3L83.1,64.2L83.7,65.5L83.7,66.4L83.1,67.0L80.3,68.2L79.8,68.5L79.4,68.6L74.1,71.9L70.4,75.0L69.4,76.3L69.3,76.9L71.4,78.3L71.7,78.4L72.1,78.7L73.6,79.4L74.2,79.9L75.4,80.4L75.7,80.6L77.2,81.4L77.8,81.4L78.3,81.2L81.2,78.9L84.1,77.0L84.9,77.1L85.2,79.3L85.1,81.7L85.2,85.0L85.2,89.4L84.9,89.8L83.2,89.7L82.5,89.5L78.0,89.6L77.1,89.9L75.5,90.0L73.6,90.9L73.1,90.9L72.1,91.5L70.1,92.9L68.7,94.3L67.7,95.6L66.2,98.3L65.6,100.1L65.3,101.7L65.3,105.0L65.7,106.6L65.9,107.1L66.2,108.1L67.4,110.4L68.5,111.8L70.7,114.0L72.3,115.1L74.2,116.0L75.7,116.5L78.6,117.1L82.0,117.0L85.9,116.0L88.3,114.7L90.1,113.2L92.2,110.8L93.6,108.3L94.6,105.5L95.3,101.9L95.7,101.3L101.6,101.4L105.2,100.8L106.1,100.3L106.6,100.3L107.5,99.8L108.1,99.7L110.6,98.3L111.5,97.6L111.9,97.4L113.5,96.1L115.5,94.1L116.8,92.3L118.1,89.5L118.4,88.3L118.7,87.5L119.0,85.7L119.0,81.8L118.7,80.0L118.4,79.2L118.3,78.5L117.5,76.6L116.5,75.2L115.9,73.8L113.0,70.7L111.3,69.2L111.1,69.2L109.1,67.7L104.5,65.4L103.3,65.2L102.5,64.8L99.9,64.3L93.9,64.3L93.5,63.7L93.0,61.7L92.7,61.4L92.1,59.9L91.8,59.5L91.7,59.0L90.0,56.6L87.2,54.2L84.2,52.2Z M84.8,98.5L85.1,98.8L85.2,99.5L85.2,102.0L84.8,103.8L84.1,105.5L83.5,106.4L82.7,107.1L81.0,108.1L79.9,108.4L78.7,108.4L77.4,108.1L76.6,107.6L75.5,106.7L74.6,105.1L74.3,103.3L74.4,102.4L74.9,100.9L75.5,100.0L76.1,99.4L77.7,98.5L78.9,98.1L79.9,98.0L80.5,97.8L82.4,97.8L83.6,98.0Z M95.8,73.7L97.1,73.7L99.6,73.8L102.1,74.5L103.6,75.2L104.9,76.2L105.9,77.2L106.7,78.4L107.6,79.9L108.1,81.8L108.1,83.9L107.9,85.6L107.4,87.2L106.6,88.7L105.4,90.1L104.4,90.9L102.6,91.8L100.2,92.5L98.3,92.6L96.1,92.5L95.5,91.9L95.3,89.2L95.2,82.5L95.1,80.7L95.1,74.4L95.5,73.9Z M50.6,11.0L48.2,10.9L47.7,11.0L45.7,11.2L43.4,11.8L41.6,12.6L38.9,14.6L36.8,17.0L36.2,18.0L35.9,18.3L35.4,19.3L34.0,23.0L33.5,26.1L32.9,26.8L30.9,26.6L26.9,26.6L24.0,27.1L20.4,28.3L18.4,29.3L16.2,30.8L14.0,32.8L11.6,35.7L10.2,38.7L9.8,40.2L9.3,43.1L9.2,44.6L9.4,46.4L10.0,49.1L11.0,51.4L11.6,52.8L13.2,55.1L16.0,58.0L18.3,59.9L19.3,60.5L19.9,60.7L20.9,61.5L21.8,61.7L23.0,62.4L24.0,62.7L25.9,63.4L29.3,64.0L34.8,64.0L35.1,64.2L35.6,64.9L36.3,67.2L37.3,69.2L38.2,70.7L40.6,73.0L41.9,74.1L45.6,76.3L46.0,76.3L46.8,75.5L47.0,74.7L50.7,68.4L50.7,67.9L50.1,67.4L47.5,65.5L46.5,64.3L45.7,63.1L45.5,62.3L45.5,61.9L45.6,61.6L46.0,61.1L47.3,60.7L50.3,59.2L54.1,56.9L55.5,55.7L56.2,55.4L58.0,53.8L59.6,52.2L59.9,51.4L59.8,51.2L59.0,50.6L58.4,50.3L58.1,50.1L56.5,49.3L56.3,49.1L54.6,48.3L51.7,46.7L51.3,46.7L50.8,47.0L48.6,48.9L45.3,51.0L44.5,51.2L44.3,51.0L44.0,49.1L44.1,46.7L43.9,41.7L43.9,38.9L44.4,38.4L47.5,38.7L50.6,38.7L53.2,38.3L55.1,37.7L57.6,36.4L58.9,35.5L60.5,33.9L61.9,31.9L63.2,29.0L63.7,26.3L63.8,23.7L63.7,23.0L63.4,22.1L63.2,21.1L62.2,18.8L60.7,16.6L58.0,14.0L56.4,12.8L55.0,12.1L53.2,11.5L53.0,11.4L51.8,11.1L51.0,11.1Z M26.0,36.5L26.9,36.3L27.7,36.0L29.8,35.6L31.5,35.6L33.0,36.0L33.4,36.2L33.5,37.4L34.0,50.4L34.0,54.1L33.5,54.4L29.7,54.4L27.8,54.0L26.9,53.6L26.3,53.5L24.3,52.2L23.1,51.2L22.1,49.8L21.4,48.6L20.9,47.1L20.7,45.5L20.8,42.8L21.4,41.0L21.9,39.9L23.6,38.0L24.9,37.1L25.6,36.8Z M53.8,21.9L54.3,23.1L54.6,24.0L54.6,25.8L54.3,26.8L53.6,28.0L52.3,29.3L51.4,29.8L50.8,29.8L50.2,30.2L49.1,30.3L46.8,30.3L45.8,30.2L45.5,30.0L44.7,29.8L44.1,29.3L43.9,28.8L44.0,27.7L44.0,25.8L44.3,24.3L45.2,22.4L46.4,21.1L47.0,20.7L48.3,20.1L50.3,20.0L51.2,20.2L52.1,20.5L52.9,21.1Z M52.2,45.4L52.2,46.0L52.8,46.6L53.1,46.7L54.3,47.5L54.9,47.6L55.8,48.3L56.7,48.6L58.5,49.7L60.1,50.5L60.7,50.5L62.9,47.6L64.5,46.3L65.2,45.9L66.3,45.5L67.2,45.5L67.6,45.9L69.5,50.0L71.1,52.3L71.4,53.1L74.4,56.9L76.2,58.7L77.0,59.3L77.5,59.3L78.9,57.2L80.1,55.2L80.2,54.9L81.5,52.8L82.2,51.6L82.3,51.1L82.0,50.5L78.9,46.8L77.8,44.9L77.8,44.5L78.1,44.3L80.0,44.0L87.8,43.9L90.5,43.9L90.8,44.3L90.8,45.0L90.4,47.3L90.4,49.6L90.7,50.8L90.8,52.1L91.1,53.0L91.4,54.3L92.0,55.8L92.8,57.0L93.7,58.3L95.1,59.6L96.7,61.0L99.5,62.4L100.1,62.5L101.3,63.0L102.8,63.2L105.8,63.3L108.2,62.9L108.7,62.6L109.7,62.4L110.7,61.9L112.7,60.6L115.0,58.5L116.4,56.8L117.0,55.4L117.3,55.2L118.0,53.3L118.0,52.9L118.1,52.7L118.1,52.2L118.4,51.6L118.6,50.2L118.4,48.9L118.4,47.4L118.2,47.0L118.2,46.2L118.0,45.7L117.7,44.3L117.0,42.3L115.9,40.5L114.7,39.1L112.1,37.0L109.4,35.5L109.2,35.5L108.2,35.0L106.9,34.7L106.4,34.5L104.4,34.2L102.9,33.9L102.5,33.5L102.4,32.6L102.6,31.3L102.6,28.7L102.4,25.6L101.0,21.6L99.1,18.1L96.2,15.0L94.6,13.6L93.4,12.8L91.2,11.7L89.4,11.1L85.6,10.4L83.0,10.4L82.5,10.6L81.3,10.7L78.0,11.8L76.7,12.5L76.1,12.7L74.0,14.1L72.8,15.0L70.8,17.0L69.1,19.0L69.0,19.4L67.7,21.2L66.5,23.6L66.4,24.0L66.1,24.5L65.7,25.7L65.5,26.6L65.2,27.5L64.8,29.8L64.7,35.5L64.3,35.9L62.1,36.4L61.5,36.7L60.8,36.9L60.5,37.1L59.6,37.5L57.5,38.7L55.4,40.7L54.2,42.3Z M100.1,44.0L100.6,43.9L102.5,43.9L105.2,44.3L107.5,45.4L108.7,46.5L109.4,48.0L109.6,48.8L109.6,50.2L109.3,51.2L108.8,52.2L107.6,53.5L106.6,54.1L105.8,54.3L104.8,54.5L103.7,54.4L102.4,54.0L101.1,53.2L100.2,52.2L99.3,50.4L99.0,49.0L99.0,47.2L99.3,44.8Z M75.1,27.7L76.0,25.9L77.0,24.6L78.4,23.4L79.8,22.5L80.9,22.0L82.5,21.5L85.7,21.4L86.7,21.6L88.8,22.5L90.3,23.4L91.5,24.6L92.2,25.6L93.0,27.6L93.3,29.2L93.5,32.4L93.2,33.3L92.9,33.7L92.2,33.9L85.0,34.0L84.1,34.2L80.7,34.2L79.2,34.4L75.2,34.4L74.7,34.1L74.4,33.4L74.4,30.8Z" fill="#000" fill-rule="evenodd"/>
</svg>