<svg xmlns="http://www.w3.org/2000/svg" viewBox="0 0 128 128" width="128" height="128">
  <path d="M101.6,9.3L100.7,9.1L89.1,9.2L83.4,9.3L76.9,9.3L75.4,9.4L73.1,9.3L63.6,9.6L55.0,9.6L48.4,9.8L39.8,9.8L29.9,10.1L27.5,10.0L26.6,10.1L26.1,10.5L26.1,16.9L26.2,19.5L26.2,22.9L26.4,29.5L26.3,31.9L26.6,42.5L26.5,48.0L26.7,55.5L26.6,56.7L27.0,75.7L27.2,76.0L27.7,76.1L52.0,75.9L53.5,76.1L53.8,76.4L53.8,78.1L53.6,79.2L53.3,80.3L53.2,81.0L52.3,83.2L52.0,83.6L51.9,84.1L50.5,85.9L48.0,88.4L46.4,89.7L45.0,90.7L42.7,91.9L40.4,92.9L40.0,93.2L39.3,93.3L35.4,94.7L31.0,95.7L30.4,96.1L30.5,96.8L30.8,97.6L30.9,98.4L32.0,102.3L32.3,103.7L32.9,105.6L33.1,107.1L33.9,109.5L33.9,110.2L34.7,113.1L34.9,114.2L35.6,116.5L36.1,118.7L36.3,119.1L37.0,119.1L40.6,118.4L41.6,118.1L44.3,117.6L45.7,117.1L47.2,116.9L48.2,116.5L48.8,116.4L49.1,116.3L50.9,115.9L52.2,115.4L53.2,115.2L53.9,114.9L54.8,114.8L57.5,113.7L58.8,113.4L59.3,113.1L61.1,112.5L61.4,112.3L62.6,112.0L64.6,111.0L67.3,110.0L68.8,109.1L69.2,109.1L69.9,108.7L70.2,108.7L71.2,108.0L73.6,106.9L79.7,103.3L84.5,99.9L87.5,97.4L87.9,97.2L91.5,93.6L94.3,90.1L96.8,86.2L98.7,82.7L100.4,78.1L100.6,77.2L101.3,74.8L101.3,74.3L101.6,73.0L102.2,67.5L102.2,42.4L101.8,26.5L101.8,9.7Z" fill="#000" fill-rule="evenodd"/>
</svg>