<svg xmlns="http://www.w3.org/2000/svg" viewBox="0 0 128 128" width="128" height="128">
  <path d="M110.6,9.4L88.5,9.4L83.6,9.6L50.2,9.8L36.9,10.1L36.1,9.9L32.3,10.1L19.7,10.1L17.2,10.2L16.4,10.3L16.2,11.4L16.5,47.1L16.4,54.0L16.5,62.3L16.5,69.2L16.6,89.6L16.6,114.8L16.7,118.1L17.2,118.7L36.7,118.8L70.7,118.8L78.7,118.9L111.1,118.9L111.8,118.8L112.0,118.7L112.2,117.0L112.0,106.3L112.1,104.4L111.6,76.0L111.6,66.4L111.5,65.5L111.5,61.2L111.2,37.7L111.2,26.2L111.0,21.3L111.0,10.1Z M83.8,92.2L86.8,92.1L87.9,92.3L90.1,93.0L92.4,94.1L93.4,95.0L94.1,96.0L95.2,98.4L95.6,99.9L95.8,103.0L95.7,104.4L95.3,106.3L94.1,109.1L93.0,110.7L91.8,111.9L90.2,112.8L89.2,113.0L88.0,113.4L82.8,113.4L80.4,112.9L79.1,112.2L77.6,111.2L76.4,109.8L76.0,109.1L75.4,107.7L75.1,106.0L75.0,102.3L75.3,101.0L75.4,99.9L75.7,99.6L76.4,97.3L77.5,95.9L78.6,94.8L79.5,94.1L81.0,93.4L81.2,93.1Z M51.6,29.9L51.9,29.9L52.4,30.5L52.3,33.7L52.5,35.9L52.7,37.1L52.8,39.6L54.0,44.2L55.9,47.5L57.1,49.2L57.6,49.8L59.0,51.9L59.6,52.5L60.4,53.7L61.9,55.6L69.3,63.3L71.5,66.0L73.8,69.9L74.0,70.4L74.3,70.9L74.9,72.6L75.3,73.3L75.9,75.6L76.3,76.2L76.9,78.6L77.4,82.1L77.7,83.1L77.8,84.3L77.7,88.8L77.4,90.5L76.5,92.8L75.3,95.6L74.2,97.4L73.3,98.5L72.2,100.4L70.3,102.7L68.0,104.5L66.4,105.5L63.1,107.1L62.0,107.4L61.1,107.8L57.5,108.7L57.0,108.7L55.0,109.2L53.8,109.2L52.9,109.4L49.1,109.2L43.7,108.2L39.4,106.3L39.1,106.0L37.3,105.0L36.7,104.3L35.7,103.8L33.3,101.1L32.9,100.4L31.6,98.7L30.0,95.6L30.0,95.3L28.9,93.0L28.9,92.2L28.0,89.1L27.9,87.5L28.0,82.9L29.2,78.2L30.3,75.9L30.9,74.0L32.3,71.4L32.5,70.6L33.0,69.9L33.2,69.2L33.4,69.1L33.7,68.3L34.9,66.7L36.2,64.3L38.5,61.1L38.7,60.6L42.0,56.3L42.7,54.9L43.1,54.5L45.7,50.5L45.9,49.9L46.2,49.5L47.4,47.2L47.4,46.9L48.2,45.4L48.4,44.7L49.3,42.9L49.4,42.1L49.9,40.8L50.0,40.0L50.4,38.6L50.6,35.9L50.8,35.3L51.0,33.6L51.0,30.5Z M81.2,13.0L84.5,13.0L85.2,13.3L87.4,13.5L91.0,14.5L91.8,14.9L94.0,15.8L95.6,16.7L97.8,17.7L101.5,20.2L103.6,22.0L105.0,23.9L105.7,25.1L107.0,28.4L107.5,30.3L107.6,32.0L107.9,33.3L107.9,35.5L107.0,39.7L106.1,42.1L105.6,43.1L105.4,43.9L105.0,44.4L104.8,45.2L104.3,46.3L103.1,48.2L102.7,49.1L102.5,49.4L102.4,49.9L100.7,52.5L98.9,55.2L97.4,56.9L91.7,65.2L90.3,67.6L88.8,70.8L88.6,71.5L87.2,74.6L87.1,75.2L86.7,76.1L85.7,81.1L85.7,81.8L85.5,83.2L85.5,84.4L85.1,86.1L84.5,86.3L84.3,86.1L84.1,82.1L83.7,80.3L83.4,77.4L83.2,76.9L83.1,76.1L82.6,75.1L82.6,74.8L81.9,73.4L80.8,71.5L79.0,69.1L77.3,67.2L74.1,64.2L71.9,61.5L70.1,59.8L67.9,57.0L66.4,55.5L63.5,51.7L62.1,49.2L61.2,47.0L61.1,46.5L60.7,45.9L60.2,44.0L60.2,43.5L59.5,41.8L59.5,40.6L59.5,36.0L60.2,29.5L60.5,29.1L60.6,28.1L61.6,25.4L62.8,23.1L63.6,22.1L63.8,21.6L66.3,19.1L67.5,18.0L69.6,16.5L72.3,15.0L74.2,14.3L77.2,13.5Z" fill="#000" fill-rule="evenodd"/>
</svg>