<svg xmlns="http://www.w3.org/2000/svg" viewBox="0 0 128 128" width="128" height="128">
  <path d="M35.7,35.8L32.6,39.0L31.9,39.6L29.9,41.9L29.1,42.5L27.9,44.0L26.6,45.1L25.7,46.2L20.1,51.7L19.1,52.9L18.3,53.5L17.8,54.2L16.2,55.7L12.5,59.8L10.4,61.8L9.9,62.6L9.7,63.9L10.0,70.7L9.9,92.2L10.4,92.5L12.4,92.6L34.0,92.8L34.9,92.9L35.3,93.3L35.5,94.2L35.5,100.3L35.2,118.5L35.5,118.9L65.1,119.0L66.3,118.8L79.9,105.5L88.7,96.4L105.5,79.8L109.9,75.1L118.5,66.5L118.5,66.3L118.1,66.0L117.1,65.9L106.2,66.1L103.5,66.0L101.7,66.2L99.4,66.1L96.8,66.3L93.3,66.2L92.8,66.4L92.6,67.2L92.5,69.8L92.5,80.8L92.3,90.7L92.2,91.7L91.7,92.3L89.3,92.5L85.4,92.4L83.5,92.6L80.0,92.4L62.8,92.4L62.2,92.0L62.0,90.4L62.1,74.9L62.0,66.6L61.9,66.3L61.4,66.0L50.6,66.0L50.3,65.8L48.8,66.1L38.0,66.2L37.2,66.0L36.7,65.5L36.5,63.0L36.5,57.7L36.3,54.8L36.3,39.4L36.1,38.0L36.2,35.8Z M62.1,9.4L61.7,9.5L50.3,20.8L50.1,21.2L44.5,26.8L43.9,27.5L37.0,34.5L36.4,35.6L61.4,35.6L61.9,35.4L62.1,35.0L62.0,34.2L62.2,30.2L62.2,15.2L62.4,9.7Z" fill="#000" fill-rule="evenodd"/>
</svg>