<svg xmlns="http://www.w3.org/2000/svg" viewBox="0 0 128 128" width="128" height="128">
  <path d="M81.0,9.2L70.6,9.2L69.1,9.4L65.8,9.3L54.4,9.5L54.1,9.7L53.1,9.8L51.9,10.1L50.8,10.6L49.4,11.6L48.1,12.9L47.5,13.8L46.5,15.9L46.2,17.4L46.1,19.5L46.4,21.2L46.8,22.5L48.2,25.0L48.7,25.5L49.6,27.0L49.6,31.9L49.5,34.2L49.5,36.8L49.2,40.0L49.1,44.5L48.9,46.9L48.5,47.5L45.3,47.5L40.3,47.3L36.7,47.4L34.6,47.2L30.8,47.2L29.0,47.0L22.6,46.9L12.1,46.6L11.6,47.1L11.5,73.3L11.8,75.2L12.3,76.9L13.6,79.1L14.5,80.1L16.5,81.5L17.0,81.6L17.8,82.0L19.9,82.4L21.1,82.4L23.1,82.0L24.4,81.5L26.2,80.5L28.0,79.2L28.8,78.7L29.3,78.6L32.0,78.8L38.0,78.9L39.2,79.1L44.6,79.2L45.5,79.3L46.7,79.3L47.1,79.4L47.5,79.7L47.5,83.0L47.3,85.4L47.3,87.7L47.1,89.6L46.8,103.0L46.6,104.5L46.6,107.6L46.3,110.6L46.3,113.8L46.2,115.0L46.2,117.5L46.0,118.3L46.5,118.7L72.2,119.0L74.5,118.6L76.1,118.0L78.4,116.6L79.4,115.5L80.5,114.1L81.2,112.6L81.7,110.6L81.8,108.9L81.2,106.3L80.1,103.8L79.5,103.1L78.8,102.0L78.4,101.0L78.2,100.3L78.2,96.7L78.4,95.9L78.4,93.0L78.6,89.8L78.8,83.1L79.0,81.3L79.2,80.6L83.5,80.5L87.8,80.8L92.6,80.8L96.0,81.1L99.0,81.1L112.3,81.6L116.2,81.6L116.4,81.5L116.7,81.2L116.7,74.3L116.8,69.1L116.8,54.1L116.5,52.5L115.8,50.6L114.8,49.0L113.6,47.8L112.2,46.8L110.2,45.9L108.8,45.6L106.8,45.6L105.4,45.9L103.3,46.7L101.8,47.5L100.2,48.8L99.4,49.2L99.0,49.3L91.1,49.1L85.6,48.8L82.5,48.8L80.6,48.5L80.3,48.0L80.5,40.4L80.5,38.2L80.7,35.5L80.8,31.0L81.0,30.3L81.1,24.2L81.3,20.3L81.3,17.0L81.6,10.5L81.5,9.7Z M68.1,78.0L71.9,78.1L72.6,78.3L73.1,78.8L73.0,84.8L72.7,89.8L72.8,91.1L72.6,97.2L72.5,99.5L72.5,103.3L74.1,105.8L74.1,106.1L74.6,106.9L74.9,108.6L74.9,109.8L74.5,111.4L73.8,112.3L72.8,113.2L71.1,113.9L69.8,113.9L68.7,113.6L67.3,112.6L66.5,111.5L66.1,110.5L65.9,109.0L66.0,107.5L66.4,106.4L66.9,105.3L67.3,104.8L68.2,103.2L68.1,95.0L68.0,93.8L67.9,87.8L67.5,80.5L67.5,78.4L67.8,78.1Z M16.0,70.4L16.5,68.8L17.8,67.4L18.9,66.7L20.4,66.4L22.2,66.4L23.1,66.6L25.0,67.6L26.3,68.5L26.8,68.6L32.3,68.5L33.4,68.3L35.6,68.3L36.3,68.1L38.9,68.0L44.7,67.9L47.1,67.7L49.5,67.8L50.1,68.3L49.9,72.8L49.3,73.4L48.2,73.5L44.5,73.3L37.8,73.3L26.6,73.1L23.8,74.8L22.5,75.2L21.4,75.4L19.3,75.2L18.5,75.0L17.5,74.2L16.8,73.5L16.3,72.6L16.0,71.2Z M60.1,65.2L60.6,65.3L60.9,65.7L61.0,66.0L61.1,72.9L61.3,74.5L61.3,77.8L61.6,84.5L61.5,86.0L61.7,88.3L61.7,90.9L62.0,93.3L62.3,107.6L62.5,108.7L62.4,111.5L62.1,111.8L61.6,111.9L53.7,111.8L53.4,111.4L53.3,110.8L53.3,108.2L53.4,106.3L53.5,94.2L53.7,93.1L53.6,90.6L53.8,88.3L53.8,82.6L54.1,73.1L54.3,69.4L54.3,66.0L54.4,65.8L54.8,65.4L58.3,65.2Z M110.2,65.7L110.2,71.8L110.0,74.3L109.5,74.6L97.8,74.5L94.8,74.3L92.1,74.4L88.4,74.3L87.6,74.1L80.5,74.1L78.7,74.0L77.4,73.8L71.4,73.9L68.9,73.7L66.2,73.7L65.7,73.6L65.1,72.7L65.0,67.3L65.3,67.0L73.8,66.5L77.9,66.5L78.7,66.2L82.5,66.2L91.0,65.8L94.0,65.8L94.6,65.6L102.9,65.4L106.0,65.1L109.8,65.1Z M18.1,54.1L18.6,53.6L20.2,53.5L23.9,53.7L41.3,53.9L61.9,54.3L62.5,54.9L62.7,60.4L62.3,60.8L62.0,60.9L60.7,60.9L59.5,61.1L54.5,61.2L53.7,61.4L47.7,61.5L46.3,61.7L33.6,62.2L32.2,62.4L31.5,62.3L30.9,62.5L27.0,62.5L22.1,62.8L18.6,62.8L18.4,62.7L18.0,62.2Z M112.2,56.2L112.2,57.8L111.6,59.3L111.1,60.0L109.9,61.0L108.2,61.6L106.0,61.6L103.9,61.0L102.1,59.7L101.4,59.4L93.1,59.5L91.8,59.7L85.4,59.9L84.5,60.0L81.8,60.0L80.4,60.2L78.0,60.1L77.6,59.7L77.7,55.5L77.9,55.0L78.2,54.7L78.5,54.6L101.0,55.1L101.7,54.9L103.5,53.6L104.5,53.1L106.4,52.6L108.3,52.6L108.8,52.8L109.6,53.0L110.5,53.6L111.5,54.7L112.0,55.6Z M65.9,15.9L73.7,15.9L74.3,16.1L74.6,16.4L74.5,24.0L74.3,26.4L74.3,32.2L74.1,34.7L74.0,42.7L73.9,45.2L73.9,47.7L73.6,54.1L73.6,59.7L73.5,61.7L73.3,62.4L73.2,62.6L71.6,62.6L69.6,62.8L67.6,62.8L67.2,62.7L66.9,62.4L66.8,57.5L66.6,56.7L66.6,54.6L66.4,50.5L66.4,47.4L66.2,46.3L66.1,39.1L65.8,34.7L65.9,32.4L65.6,29.0L65.5,21.7L65.3,19.9L65.3,16.5L65.4,16.3Z M56.6,14.0L58.1,14.0L58.7,14.2L60.3,15.1L61.5,17.0L62.0,18.9L61.9,20.0L61.3,21.9L60.7,23.0L59.9,24.1L59.5,24.8L59.6,30.8L59.8,32.0L59.8,36.6L60.0,37.6L60.2,46.0L60.2,49.1L60.0,49.5L59.6,49.9L55.1,49.8L54.7,49.2L54.9,36.7L55.1,35.4L55.1,31.3L55.3,30.3L55.3,24.6L54.1,23.0L53.2,21.1L52.8,19.8L52.8,18.0L53.1,17.1L54.0,15.6L54.7,14.9Z" fill="#000" fill-rule="evenodd"/>
</svg>