<svg xmlns="http://www.w3.org/2000/svg" viewBox="0 0 128 128" width="128" height="128">
  <path d="M118.4,18.3L118.0,18.2L109.2,18.3L105.3,18.2L103.0,18.4L101.8,18.3L99.4,18.5L93.4,18.6L90.0,18.5L87.0,18.6L84.9,18.9L82.7,19.4L81.8,19.9L81.1,20.0L79.0,21.2L76.6,22.9L73.9,25.9L73.5,26.5L73.2,26.9L71.7,30.1L71.1,31.9L70.7,34.3L70.7,39.7L70.9,41.2L71.0,61.6L71.1,66.6L71.7,67.0L80.1,67.0L83.0,66.8L86.4,66.9L90.3,66.7L92.0,66.8L92.4,67.3L92.5,79.7L92.3,80.3L91.9,80.5L72.0,80.7L71.6,80.9L71.4,82.5L71.5,85.3L71.3,92.1L71.5,101.1L71.4,101.7L71.2,102.1L70.9,102.3L58.1,102.4L57.5,102.0L57.4,90.3L57.2,86.8L57.3,81.4L56.9,80.8L56.5,80.6L53.4,80.6L52.6,80.8L41.4,80.7L39.3,80.8L36.6,80.8L36.1,80.5L35.9,80.1L35.9,67.8L36.2,67.3L56.9,67.1L57.2,66.9L57.4,66.7L57.2,35.9L56.9,33.3L56.3,31.0L54.8,27.7L53.1,25.3L50.7,22.9L48.6,21.4L47.0,20.7L46.4,20.3L45.7,20.1L45.2,19.8L43.3,19.3L24.5,19.3L22.4,19.4L20.9,19.4L16.3,19.5L11.8,19.4L9.7,19.6L9.4,20.0L9.3,20.6L9.2,30.1L9.5,38.0L9.5,45.7L9.8,52.8L10.6,56.4L11.5,58.5L13.3,61.1L15.4,63.1L18.1,65.2L21.9,66.7L24.9,67.3L27.4,67.4L28.0,67.6L28.2,67.8L28.2,77.1L28.5,88.7L29.1,88.9L49.4,88.7L49.8,89.1L49.9,99.2L49.8,102.6L50.0,106.7L49.9,109.5L50.4,110.0L75.4,110.1L78.4,109.9L78.8,109.3L78.8,99.7L78.5,93.2L78.6,89.0L78.9,88.6L79.4,88.5L80.6,88.6L86.5,88.6L99.8,88.4L100.1,87.9L100.0,85.6L100.0,82.6L99.9,78.2L100.0,67.0L100.6,66.7L103.7,66.5L106.3,66.0L107.3,65.5L108.2,65.4L110.7,64.0L112.2,63.1L113.3,62.1L115.8,59.4L115.9,59.0L117.1,57.3L117.6,56.2L117.8,55.5L118.3,54.5L118.4,53.7L119.0,51.6L119.0,50.2L118.9,41.0L119.0,35.9L118.8,35.4L118.9,30.1L118.7,28.9L118.7,25.7L118.5,24.7L118.6,18.8Z M46.2,29.4L47.3,30.6L48.3,32.2L49.1,34.7L49.1,51.1L49.2,59.0L48.9,59.4L48.0,59.5L26.2,59.6L23.8,59.1L22.5,58.6L21.4,58.0L19.3,55.9L18.3,54.4L17.8,53.2L17.3,51.5L17.0,40.8L17.0,34.0L16.8,29.4L16.9,27.7L17.2,27.5L18.1,27.3L26.5,27.3L40.2,27.1L43.1,27.6L44.7,28.3Z M110.7,26.2L111.0,26.6L111.1,27.6L111.1,34.6L111.3,40.7L111.2,50.6L110.8,52.3L109.8,54.4L108.7,55.8L107.8,56.6L105.8,58.1L103.5,58.8L102.4,58.8L101.5,59.0L83.1,59.0L81.7,59.1L78.8,59.0L78.5,58.5L78.2,36.6L78.5,34.1L79.0,32.4L79.8,30.9L81.1,29.3L83.1,27.7L84.5,27.0L86.9,26.4L90.7,26.4L93.3,26.2L100.3,26.3L106.0,26.0L110.0,26.0Z" fill="#000" fill-rule="evenodd"/>
</svg>