<svg xmlns="http://www.w3.org/2000/svg" viewBox="0 0 128 128" width="128" height="128">
  <path d="M100.6,23.2L98.4,22.4L97.8,22.3L97.0,21.9L91.9,20.8L87.0,20.6L86.0,20.8L83.7,20.9L80.8,21.5L80.5,21.6L79.1,21.9L76.7,22.7L72.4,24.7L68.2,27.5L66.6,28.9L64.1,31.3L63.7,31.3L63.2,31.0L61.9,29.7L59.6,27.8L57.8,26.5L55.5,25.2L54.8,24.9L53.4,24.2L53.0,24.1L52.2,23.6L51.4,23.4L51.3,23.3L50.0,23.0L48.1,22.4L46.7,22.2L46.1,21.9L42.0,21.5L39.5,21.5L35.6,21.9L31.3,22.9L26.8,24.7L24.4,26.3L23.2,26.9L22.4,27.6L21.7,28.0L19.2,30.2L17.2,32.1L14.4,35.8L13.5,37.2L13.4,37.6L13.0,38.1L12.9,38.5L12.6,38.9L11.6,41.0L11.1,42.6L10.6,43.6L10.3,45.0L9.7,46.6L9.3,48.7L9.2,50.1L9.2,54.8L9.4,56.9L10.1,60.2L10.6,61.8L11.0,63.4L11.4,64.2L11.5,64.9L11.9,65.4L12.8,67.6L14.8,70.8L16.6,73.2L18.1,74.8L21.7,78.0L24.3,79.7L25.8,80.8L26.1,80.9L30.9,84.3L32.6,85.3L33.2,85.9L35.3,87.2L35.7,87.6L36.8,88.4L37.4,88.6L38.1,89.3L39.9,90.4L41.4,91.6L46.2,94.8L49.2,97.0L51.1,98.2L51.9,99.0L53.0,99.6L54.0,100.4L56.3,101.9L56.4,102.1L56.8,102.3L62.0,106.1L62.4,106.2L64.2,107.5L64.8,107.5L70.3,103.3L72.3,102.0L75.3,99.6L76.3,99.0L79.4,96.7L80.1,96.3L80.7,95.7L81.8,95.0L85.9,91.7L90.0,89.0L90.6,88.4L94.5,85.4L95.9,84.5L99.0,82.1L101.7,80.4L102.1,79.9L103.0,79.5L105.1,77.8L105.7,77.5L106.3,76.9L108.3,75.5L110.8,73.1L112.3,71.4L115.2,66.8L116.9,63.3L117.9,60.0L118.5,57.4L119.0,52.9L119.0,49.6L118.6,46.1L117.4,41.6L116.8,39.9L116.3,39.0L116.2,38.6L115.7,37.8L115.6,37.4L115.4,37.2L114.4,35.2L112.6,32.6L112.2,32.1L111.8,32.1L111.3,31.5L111.0,30.7L108.6,28.4L105.8,26.3L105.4,25.8L102.8,24.2Z M103.3,50.3L103.2,54.3L102.7,56.3L102.5,56.7L102.1,58.0L100.9,60.4L99.8,61.9L98.2,63.5L89.9,69.5L86.0,72.6L81.7,75.6L79.1,77.7L73.9,81.3L73.5,81.8L72.1,82.6L70.7,83.9L69.3,84.7L66.4,87.0L64.6,88.0L63.8,87.9L63.0,87.5L57.3,83.4L57.1,83.4L56.4,82.7L52.5,80.2L51.7,79.5L50.7,78.9L49.3,77.9L48.4,77.4L48.0,76.9L47.1,76.5L46.3,75.8L45.3,75.2L44.4,74.4L43.2,73.7L42.5,73.2L40.9,72.2L39.7,71.2L38.7,70.6L37.2,69.5L33.9,67.3L30.2,64.7L27.7,62.0L26.3,59.5L26.2,59.1L25.8,58.5L25.6,57.6L25.3,56.9L24.9,54.8L24.8,51.7L25.1,49.6L26.0,46.8L27.2,44.5L28.9,42.3L31.0,40.2L33.2,38.8L34.2,38.3L36.9,37.4L39.7,37.0L41.6,37.0L44.3,37.4L46.2,38.0L48.0,38.8L49.5,39.7L51.3,41.1L53.2,43.2L54.5,45.2L55.6,47.8L56.2,50.3L56.3,51.3L56.4,59.0L56.0,59.4L55.5,59.4L55.0,59.2L52.7,57.5L51.6,56.9L48.8,54.8L47.8,54.3L46.2,53.0L45.4,52.9L45.2,53.2L45.3,67.4L45.4,67.7L46.1,68.3L49.4,70.6L49.9,70.8L52.1,72.5L55.1,74.5L58.4,76.9L60.7,78.4L61.1,78.8L61.8,79.2L63.8,80.6L64.7,80.7L67.3,78.8L67.8,78.5L69.2,77.4L69.7,77.1L70.7,76.2L73.5,74.3L76.6,71.9L77.3,71.5L78.9,70.3L82.1,68.1L83.1,67.1L83.2,52.9L83.0,52.3L82.5,52.3L82.1,52.5L81.3,53.2L80.3,53.8L79.5,54.5L78.6,55.0L77.8,55.7L75.8,57.1L73.4,58.9L72.6,59.4L72.1,59.1L72.0,51.1L72.3,48.7L72.9,46.5L73.8,44.6L75.7,41.7L78.3,39.3L80.4,38.0L80.9,37.8L82.6,37.0L85.5,36.3L86.4,36.3L87.2,36.2L89.8,36.3L91.3,36.6L94.3,37.6L94.9,38.1L96.2,38.6L97.8,39.8L99.3,41.2L99.8,41.9L100.3,42.3L101.8,44.9L102.9,47.9Z" fill="#000" fill-rule="evenodd"/>
</svg>