<svg xmlns="http://www.w3.org/2000/svg" viewBox="0 0 128 128" width="128" height="128">
  <path d="M19.1,117.2L19.4,117.3L20.0,117.1L20.3,117.5L20.9,117.5L20.9,116.4L20.7,116.2L20.0,116.2L19.1,116.9Z M16.9,116.2L16.2,116.2L15.7,116.6L15.4,117.5L16.9,117.5L17.0,116.6Z M11.1,116.8L11.1,117.2L11.6,117.2L11.8,117.0L12.1,117.1L12.3,117.5L12.8,117.5L12.8,116.3L12.5,116.1L11.8,116.2Z M22.5,116.8L22.5,117.4L22.9,117.4L23.1,117.0L23.4,116.7L24.2,116.6L24.8,116.8L24.9,117.5L25.4,117.5L25.3,116.5L24.8,116.1L23.3,116.1L22.9,116.2Z M94.6,13.5L90.8,12.5L86.8,12.0L83.3,11.9L82.0,12.1L80.3,12.1L79.5,12.4L78.6,12.4L78.3,12.5L76.6,12.8L75.6,13.1L74.5,13.3L72.6,13.9L72.0,14.2L69.9,15.0L68.2,15.8L64.2,18.1L63.5,18.1L61.4,16.8L59.7,16.0L58.9,15.5L56.9,14.6L54.7,14.0L53.7,13.5L48.6,12.4L44.2,12.2L41.4,12.3L39.0,12.5L34.6,13.5L34.2,13.7L32.2,14.2L29.9,15.2L26.5,16.9L22.5,19.6L19.7,22.1L16.5,25.7L14.7,28.2L14.3,29.2L13.7,29.9L12.9,31.6L11.3,35.1L10.7,36.9L9.9,40.2L9.3,44.7L9.2,47.4L9.3,49.8L9.5,52.2L10.1,55.0L11.2,59.2L13.3,63.8L15.2,67.0L15.6,67.4L16.8,69.2L17.5,69.9L18.2,71.0L19.6,72.6L25.3,78.4L26.3,79.2L27.6,80.6L35.2,87.2L42.6,93.2L43.6,94.2L45.0,95.2L50.3,99.8L55.7,105.2L58.6,108.4L59.0,109.2L60.7,111.4L63.9,116.3L64.3,116.3L64.8,115.8L65.3,114.9L66.0,114.0L66.0,113.7L66.4,113.4L67.9,111.0L71.2,106.7L71.7,106.3L73.9,103.8L79.3,98.5L83.7,94.7L84.0,94.6L85.9,92.9L86.2,92.8L90.3,89.4L91.2,88.5L95.7,84.8L97.9,82.7L98.2,82.5L100.9,80.1L107.1,74.1L110.3,70.4L112.6,67.4L113.1,66.5L113.8,65.6L113.9,65.1L114.8,63.9L115.0,63.3L115.6,62.4L116.3,60.4L116.7,59.9L116.8,59.4L117.3,58.2L117.3,57.6L117.6,57.3L117.7,56.5L118.4,54.1L119.0,48.9L119.0,44.0L118.7,41.8L118.0,38.3L116.6,33.9L115.1,30.6L113.7,28.2L111.7,25.3L110.4,23.8L109.5,23.1L109.3,22.6L106.9,20.3L106.2,19.9L104.9,18.7L101.6,16.6L97.1,14.4L95.0,13.7Z M92.8,32.8L95.2,34.7L97.6,37.2L99.3,40.0L99.3,40.3L100.2,42.7L100.8,46.2L100.6,49.0L100.1,51.5L99.5,53.3L98.7,55.1L97.6,56.7L95.9,59.1L92.7,62.6L89.6,65.7L84.3,70.4L81.1,72.9L74.8,78.4L74.2,78.7L73.8,79.2L68.2,83.9L65.4,86.6L64.4,87.2L63.8,87.1L62.5,85.7L59.6,83.4L58.0,81.8L56.7,80.9L55.8,80.1L52.1,77.0L51.0,76.2L49.4,74.8L47.4,73.3L46.7,72.6L45.9,72.1L36.6,64.1L33.4,60.9L31.4,58.2L30.1,56.2L29.1,54.2L28.1,51.4L27.8,49.5L27.6,49.2L27.6,45.6L28.1,43.1L28.6,41.6L29.9,38.9L30.5,37.8L32.1,35.9L34.2,34.1L35.7,33.1L37.9,32.0L39.4,31.5L42.2,30.9L45.0,30.8L46.7,31.0L47.8,31.2L50.5,32.2L50.7,32.5L50.7,33.0L50.3,34.1L50.0,36.1L50.0,39.5L50.6,42.2L51.7,44.7L53.0,46.8L54.8,48.5L57.0,50.2L59.8,51.3L61.3,51.8L62.0,51.8L62.9,52.0L66.3,51.9L67.6,51.7L70.0,50.8L71.2,50.2L72.7,49.2L73.9,48.3L75.5,46.4L77.0,44.0L77.8,41.6L78.1,40.5L78.3,39.0L78.2,35.9L77.4,32.9L77.4,32.4L77.9,31.9L80.4,31.0L82.8,30.5L86.1,30.5L89.9,31.5Z M94.6,18.4L95.9,19.1L96.4,19.1L99.9,21.0L101.0,21.9L102.0,22.4L104.3,24.2L105.5,25.4L107.1,27.1L108.8,29.3L109.6,30.8L110.6,32.0L111.6,33.9L111.7,34.6L112.7,36.7L113.7,40.1L114.1,42.4L114.5,46.1L114.5,48.6L114.1,51.9L113.4,55.0L112.8,56.9L111.7,59.8L110.8,61.5L108.9,64.6L105.5,69.1L102.5,72.3L99.5,75.3L97.3,77.2L95.8,78.7L91.7,82.1L91.4,82.4L91.2,82.5L89.7,83.8L88.1,85.2L87.4,85.7L83.0,89.5L81.8,90.4L80.4,91.7L79.3,92.5L73.3,97.8L68.5,102.7L64.5,107.7L63.9,107.8L63.5,107.5L62.1,105.6L56.4,99.3L54.7,97.7L53.6,96.5L47.7,91.3L44.3,88.5L44.0,88.5L43.2,87.6L39.1,84.3L38.9,84.2L30.4,76.9L24.2,70.9L19.8,65.6L17.4,61.8L17.2,61.2L16.1,59.1L15.1,56.3L14.0,51.3L13.8,48.9L13.9,44.5L14.5,40.6L14.7,40.0L14.9,38.8L15.2,38.3L15.4,37.2L15.8,36.5L15.8,36.2L16.4,35.0L16.6,34.4L18.7,30.5L19.9,28.8L22.1,26.3L25.8,23.0L28.7,21.0L31.4,19.7L33.8,18.6L36.4,17.8L39.3,17.2L42.6,16.9L46.9,16.9L50.6,17.5L53.7,18.5L53.9,18.6L54.7,18.8L56.7,19.7L58.6,20.7L59.3,21.2L59.2,21.6L55.7,25.0L53.8,27.3L53.1,27.9L52.6,27.9L50.0,27.0L47.0,26.3L46.0,26.3L45.1,26.1L42.2,26.2L39.3,26.6L37.0,27.3L34.6,28.3L31.7,30.1L29.9,31.6L27.6,34.0L25.9,36.3L25.1,38.0L23.7,41.6L23.4,43.5L23.2,43.9L23.1,45.7L23.1,49.0L23.2,50.6L23.7,52.6L24.6,55.4L24.9,55.9L25.5,57.4L26.6,59.2L27.9,60.8L28.9,62.3L31.2,64.9L34.9,68.7L36.7,70.1L37.1,70.5L37.4,70.7L38.4,71.7L43.7,76.1L44.7,76.8L47.3,79.0L47.5,79.1L49.8,81.2L51.6,82.4L53.5,84.1L53.7,84.2L58.6,88.4L62.8,92.5L64.2,94.0L64.8,94.0L65.6,93.2L67.1,91.4L71.5,87.2L76.8,82.7L78.4,81.2L81.8,78.4L82.9,77.4L86.3,74.6L93.0,68.8L98.1,63.6L99.6,61.9L101.2,59.8L102.4,57.8L102.7,57.0L102.9,56.8L103.6,55.4L104.4,53.1L104.5,52.4L104.9,51.1L105.0,49.6L105.2,49.2L105.3,46.1L104.9,43.1L104.3,40.7L103.1,37.5L101.7,35.1L99.4,32.3L96.3,29.6L94.7,28.6L94.2,28.4L93.9,28.2L90.6,26.8L87.2,26.0L85.2,25.9L81.2,26.0L79.4,26.4L78.6,26.7L77.9,26.8L76.4,27.3L75.0,28.0L74.2,28.2L71.0,29.6L67.6,31.5L64.9,33.3L62.2,35.9L61.5,37.4L61.5,38.5L61.8,39.3L62.9,40.3L63.4,40.5L64.8,40.5L65.4,40.2L66.5,39.5L68.6,37.7L72.5,35.0L73.1,35.0L73.4,35.5L73.7,36.8L73.6,39.7L73.3,41.0L72.6,42.3L72.5,42.7L71.3,44.2L69.9,45.6L68.3,46.5L67.1,47.0L65.1,47.4L63.5,47.4L62.4,47.3L60.0,46.5L57.9,45.1L56.1,43.1L55.0,41.0L54.5,38.3L54.6,36.4L54.9,34.9L55.8,33.0L56.3,32.4L56.9,31.1L58.1,29.4L60.1,27.3L60.4,27.1L61.5,26.0L63.7,24.3L64.4,23.9L68.1,21.3L70.9,19.7L71.1,19.7L72.8,18.8L76.6,17.5L79.2,16.9L82.2,16.6L86.3,16.6L89.8,17.0L90.5,17.3L91.9,17.5Z" fill="#000" fill-rule="evenodd"/>
</svg>