<svg xmlns="http://www.w3.org/2000/svg" viewBox="0 0 128 128" width="128" height="128">
  <path d="M115.8,17.5L114.3,15.9L112.8,14.9L110.9,14.0L107.4,13.2L105.7,13.1L102.9,13.5L101.3,14.0L100.0,14.2L97.3,15.2L94.1,16.7L91.1,18.7L90.5,19.0L88.6,20.6L87.5,21.3L86.4,22.4L85.3,23.4L82.9,26.3L82.5,27.0L80.6,29.8L80.0,31.0L79.1,32.4L78.0,34.7L77.6,35.8L76.3,38.6L75.6,39.6L74.3,41.0L73.5,41.5L71.7,42.1L70.9,42.1L68.5,42.5L66.6,42.7L65.6,43.0L63.3,43.2L61.4,43.6L59.4,43.7L58.3,44.1L57.0,44.2L54.4,44.7L53.3,44.8L52.7,45.1L50.7,45.4L50.2,45.6L49.8,45.6L46.9,46.6L45.2,46.8L43.2,47.7L40.7,48.2L40.1,48.6L38.9,48.9L36.4,49.8L34.1,50.9L33.7,51.0L32.1,51.9L31.4,52.2L27.8,54.5L25.9,56.1L23.7,58.3L23.4,59.0L22.6,59.9L21.0,62.6L20.0,66.2L19.9,69.5L20.3,72.4L21.4,75.4L22.6,77.6L23.8,79.1L25.9,81.2L28.7,83.5L31.4,85.2L33.1,86.0L34.3,86.9L35.1,87.1L36.6,88.0L40.2,89.5L43.4,90.7L43.8,91.0L46.6,92.1L47.0,92.1L47.8,92.5L49.8,93.0L50.6,93.1L51.2,93.5L52.4,93.7L53.2,94.4L53.3,95.3L53.0,96.2L52.6,97.0L49.1,101.2L46.4,103.8L45.6,104.4L45.1,104.9L42.7,106.9L40.2,108.3L39.6,108.5L39.2,108.9L35.1,110.4L31.5,111.0L28.6,110.9L26.7,110.1L26.0,109.4L25.6,108.7L25.5,108.0L25.9,106.9L26.8,106.0L27.6,105.5L28.3,105.3L29.9,105.3L31.9,105.9L33.7,106.8L35.0,107.2L37.4,107.4L39.3,106.9L41.3,105.3L42.4,103.8L42.8,102.9L43.2,101.7L43.3,99.1L43.0,97.6L42.7,96.6L42.5,96.4L41.9,94.9L41.4,94.1L38.8,91.3L36.6,89.7L33.3,88.1L31.3,87.4L30.7,87.0L29.5,86.9L28.9,86.6L27.0,86.4L25.2,86.0L22.2,85.9L18.5,86.6L17.9,87.0L16.0,87.6L15.6,88.0L15.1,88.1L13.6,89.2L11.3,91.7L10.0,94.3L9.6,95.5L9.3,97.5L9.5,98.0L9.5,100.6L9.8,102.6L10.6,105.1L11.4,106.6L12.8,108.7L14.5,110.5L15.8,111.4L16.3,111.6L17.3,112.4L19.3,113.4L20.3,113.6L21.4,114.0L22.1,114.1L22.9,114.5L24.8,114.7L26.6,115.0L30.3,115.1L31.8,115.0L33.8,114.6L35.2,114.4L39.3,113.0L41.5,111.9L41.8,111.6L43.3,110.9L46.2,109.0L51.8,103.7L53.9,101.5L57.7,96.8L58.8,95.8L59.5,95.4L61.4,94.8L68.4,95.0L75.9,94.5L77.3,94.1L78.7,94.0L79.3,93.7L80.8,93.5L81.8,93.1L83.0,93.0L88.6,91.1L94.2,88.1L95.4,87.3L96.1,86.7L96.9,86.1L99.2,83.9L101.6,80.9L102.1,79.8L102.5,79.4L103.2,78.0L104.1,76.4L105.1,73.6L105.2,72.8L105.5,71.7L105.7,70.2L105.7,66.3L105.5,64.7L104.4,61.2L103.4,59.2L101.6,56.7L99.1,54.4L95.3,51.9L93.1,50.9L92.0,50.6L90.4,49.8L89.5,49.6L87.1,48.8L85.9,48.6L85.2,48.3L80.3,47.7L78.7,47.3L78.1,46.9L78.1,46.4L78.4,46.1L79.1,45.8L85.9,45.7L87.3,45.5L88.7,45.5L91.3,45.1L92.9,45.1L94.2,44.7L96.0,44.5L97.0,44.2L98.1,44.1L104.1,42.5L106.0,41.5L106.6,41.3L110.6,38.9L111.9,37.7L113.3,36.6L115.9,33.7L117.8,30.5L118.8,27.6L118.9,24.8L118.7,22.5L117.6,19.8Z M68.8,74.5L69.5,75.1L69.8,76.2L69.8,79.7L69.3,82.5L68.7,83.9L67.4,86.5L65.9,88.6L64.8,89.6L63.2,90.3L62.5,90.3L62.1,89.9L62.2,89.1L65.1,81.9L65.9,79.5L66.8,77.4L66.9,76.9L67.7,75.1L68.3,74.6Z M71.9,46.3L72.3,46.7L72.3,47.1L71.8,47.6L70.4,48.1L69.4,48.7L68.2,49.0L66.1,50.0L64.0,51.3L61.2,53.5L59.9,54.8L57.7,57.6L56.2,59.8L54.7,62.9L53.7,65.7L52.7,70.2L52.6,75.6L53.2,79.3L53.9,81.4L54.8,83.6L55.3,84.4L56.0,85.0L56.5,85.3L57.1,85.3L57.6,85.0L58.0,84.5L58.2,83.7L58.2,78.0L58.8,75.6L59.8,73.5L60.9,72.4L61.6,72.0L61.9,72.0L62.4,72.2L62.9,72.7L63.0,73.5L63.0,74.3L62.6,76.6L62.2,77.4L62.0,78.6L61.1,80.9L60.6,83.0L59.6,84.9L59.5,85.4L59.3,85.8L59.2,86.2L58.8,86.7L58.0,88.5L57.3,89.4L56.2,90.2L54.6,90.3L53.7,90.0L50.0,88.1L48.3,86.6L46.7,85.0L46.0,83.9L44.9,81.4L44.2,78.0L44.1,74.4L44.5,71.2L45.0,69.0L46.1,65.5L47.6,62.4L49.1,60.1L49.5,59.6L50.6,57.9L51.5,56.9L52.6,55.9L52.7,55.6L56.2,52.4L57.9,51.2L59.2,50.7L60.7,49.7L63.4,48.4L65.9,47.6L66.2,47.3L68.4,46.6L71.0,46.2Z M92.3,25.3L93.0,26.1L93.0,27.2L92.1,29.4L90.4,32.0L88.6,34.1L86.6,35.8L85.8,36.4L84.4,36.8L83.7,36.8L83.3,36.6L82.7,36.0L82.6,34.6L83.1,32.8L84.2,30.9L85.8,29.0L87.5,27.3L89.0,26.1L90.9,25.2Z" fill="#000" fill-rule="evenodd"/>
</svg>