<svg xmlns="http://www.w3.org/2000/svg" viewBox="0 0 128 128" width="128" height="128">
  <path d="M118.7,58.1L117.5,54.2L116.2,51.2L115.7,50.4L115.1,49.3L113.1,46.4L111.4,44.5L109.2,42.4L105.9,40.1L102.3,38.3L101.2,38.0L100.1,37.6L99.2,37.4L98.1,37.0L95.2,36.5L93.3,36.4L90.7,36.4L90.1,36.5L88.0,36.6L85.0,37.3L81.6,38.3L77.4,40.4L75.0,42.1L69.1,47.4L68.7,47.6L65.4,50.7L64.5,51.5L64.1,51.5L63.5,51.3L62.1,50.1L61.2,49.1L58.6,46.9L56.7,45.0L54.5,43.0L52.1,41.3L49.6,39.7L49.0,39.5L47.9,38.8L47.2,38.7L45.8,38.0L45.2,37.9L44.6,37.6L43.4,37.4L42.7,37.1L38.9,36.5L34.3,36.5L31.4,36.9L29.6,37.4L28.6,37.6L28.0,37.9L27.2,38.0L25.8,38.8L25.3,38.8L22.7,40.2L22.5,40.4L22.0,40.6L19.5,42.3L18.8,43.0L18.1,43.5L15.9,45.7L14.8,47.0L12.9,49.8L12.0,51.6L10.6,54.8L10.2,56.2L9.4,59.6L9.1,62.4L9.0,65.6L9.5,69.0L10.1,71.7L11.1,74.7L13.2,78.8L15.6,81.9L18.1,84.6L20.4,86.4L21.2,86.8L22.2,87.7L22.5,87.7L22.6,87.9L23.5,88.4L26.9,90.0L29.3,90.8L34.3,91.7L36.0,91.9L39.6,91.8L41.2,91.4L42.0,91.4L42.3,91.3L43.0,91.2L43.2,91.0L45.6,90.4L46.0,90.1L46.6,90.0L46.9,89.8L47.6,89.6L48.8,88.9L49.3,88.7L52.8,86.5L55.4,84.4L57.8,82.0L59.9,80.2L62.7,77.6L63.9,76.6L64.5,76.5L66.6,78.1L67.2,78.9L73.8,84.7L74.4,85.3L76.4,86.8L79.8,88.9L80.3,88.9L80.7,89.2L82.5,90.0L86.1,91.0L89.8,91.5L94.7,91.5L98.4,90.8L100.9,90.1L102.5,89.5L105.4,88.0L107.4,86.8L110.4,84.4L112.5,82.2L114.1,80.1L115.9,77.4L116.6,75.6L117.3,74.3L117.8,73.0L117.9,72.3L118.2,71.7L118.7,69.8L118.7,68.8L119.1,67.0L119.2,65.4L119.1,61.4L118.7,58.7Z M36.0,54.7L38.2,54.8L40.4,55.4L41.5,56.0L42.8,56.9L45.4,59.2L47.1,60.5L50.5,63.8L50.4,64.2L49.1,65.6L42.7,71.4L41.2,72.4L40.6,72.6L40.1,72.9L37.8,73.5L36.9,73.5L34.4,73.2L32.6,72.6L31.0,71.7L29.8,70.5L28.5,68.8L27.7,66.8L27.4,65.1L27.3,63.7L27.5,62.0L28.3,59.9L29.2,58.4L30.7,56.8L32.6,55.6L33.9,55.1Z M90.4,54.7L92.5,54.6L93.7,54.8L94.0,55.0L95.4,55.4L97.1,56.3L98.4,57.5L99.6,59.0L100.3,60.5L100.9,62.3L100.9,65.0L100.8,65.9L100.3,67.5L99.4,69.2L97.6,71.3L96.6,72.0L94.9,72.9L93.0,73.3L89.9,73.2L87.7,72.5L86.2,71.7L79.2,65.5L78.1,64.5L78.0,64.2L78.1,63.7L79.5,62.3L85.3,57.0L87.1,55.8L88.6,55.1Z" fill="#000" fill-rule="evenodd"/>
</svg>