<svg xmlns="http://www.w3.org/2000/svg" viewBox="0 0 128 128" width="128" height="128">
  <path d="M118.8,55.1L118.1,52.9L117.4,51.7L116.8,50.1L115.7,48.4L115.5,47.9L113.7,45.6L112.8,44.6L110.8,42.8L108.6,41.3L107.1,40.5L104.2,39.5L103.4,39.5L101.9,39.3L98.5,39.4L96.2,39.9L95.2,40.4L94.2,40.6L92.5,41.3L87.9,44.2L87.0,45.1L84.4,47.0L80.7,50.2L75.4,54.5L74.5,55.1L73.4,56.1L72.1,56.9L71.7,57.0L71.3,56.9L70.7,56.5L69.8,55.6L66.9,53.3L64.9,51.4L58.8,46.3L58.1,46.0L55.9,44.4L52.3,42.3L48.9,41.0L47.3,40.5L46.4,40.4L45.5,40.1L43.0,39.9L39.7,40.1L37.5,40.7L35.8,41.4L32.9,43.1L31.2,44.5L30.4,44.8L27.7,47.2L27.0,47.7L25.6,48.9L22.5,51.3L21.2,52.5L20.4,53.0L17.1,55.8L16.7,55.9L13.5,58.9L12.2,60.5L11.9,61.0L11.3,61.8L9.7,65.5L9.2,67.2L9.2,67.9L9.0,68.8L9.2,72.1L9.9,75.3L10.9,77.5L12.7,80.3L15.0,83.1L17.3,85.2L19.6,86.8L21.4,87.7L23.9,88.4L27.1,88.9L27.9,88.9L30.9,88.5L31.5,88.2L32.1,88.2L34.6,87.2L35.8,86.4L36.1,86.4L36.3,86.1L36.6,86.1L38.5,84.7L40.3,83.2L41.1,82.7L43.5,80.7L44.3,80.3L46.2,78.6L47.6,77.7L48.5,76.9L49.9,75.9L50.2,75.6L52.9,73.5L54.2,72.6L55.2,71.8L56.3,71.2L56.9,71.6L59.9,74.3L61.4,75.4L63.2,77.0L64.6,78.5L65.6,79.1L68.2,81.1L70.6,82.7L71.8,83.7L75.1,85.6L75.4,85.7L75.7,85.9L78.3,87.2L81.3,88.2L84.7,88.8L86.3,88.9L88.0,88.7L89.7,88.4L90.2,88.1L91.8,87.6L95.1,85.6L95.9,84.9L96.5,84.6L97.6,83.7L99.9,82.0L101.2,80.8L104.0,78.8L108.3,75.2L108.5,75.1L112.6,71.7L112.9,71.5L114.9,69.6L116.8,67.2L117.6,66.0L118.2,64.4L118.5,64.0L118.8,62.6L119.2,60.3L119.1,57.0L119.0,56.5Z M25.9,53.6L26.3,53.2L26.9,53.0L28.7,53.0L31.2,53.5L31.9,53.9L33.0,54.1L35.2,54.9L35.9,55.4L37.2,55.9L37.4,56.1L38.8,56.8L40.6,57.9L42.3,59.2L43.2,59.6L44.1,60.3L45.0,60.9L47.4,63.3L48.2,63.8L49.4,65.0L49.6,65.0L52.3,67.6L55.3,70.1L55.2,70.5L54.0,71.6L53.1,72.1L52.4,72.7L50.8,73.5L47.7,74.8L46.8,74.9L46.1,75.2L45.0,75.3L42.3,75.3L39.8,75.0L37.9,74.4L37.3,74.1L35.7,73.5L34.7,73.0L33.0,71.9L30.0,69.1L28.3,66.9L26.7,64.0L26.5,63.0L25.7,61.2L25.6,60.1L25.3,58.9L25.3,55.9Z M73.0,57.7L75.5,55.6L77.9,54.2L79.7,53.6L83.2,53.0L85.7,53.0L86.6,53.2L87.4,53.2L88.0,53.4L88.5,53.4L90.0,53.9L93.7,55.5L96.0,57.1L97.5,58.6L99.7,61.2L100.9,63.5L102.1,66.8L102.3,67.7L102.4,68.8L102.7,69.7L102.7,72.6L102.7,73.3L102.3,74.5L101.9,74.9L101.6,75.0L99.7,75.0L97.1,74.7L96.4,74.4L95.3,74.3L94.2,73.9L93.9,73.7L92.1,73.1L90.7,72.3L89.7,71.8L86.8,70.0L85.7,69.1L84.8,68.6L81.3,65.9L77.5,62.4L76.3,61.5L74.2,59.5L73.7,59.1L73.0,58.3Z" fill="#000" fill-rule="evenodd"/>
</svg>