<svg xmlns="http://www.w3.org/2000/svg" viewBox="0 0 128 128" width="128" height="128">
  <path d="M21.1,16.5L19.3,18.1L17.0,20.6L15.3,22.7L13.3,25.9L11.8,29.1L11.0,31.4L10.2,34.7L10.0,36.7L9.7,37.8L9.7,43.3L9.9,44.0L10.0,45.8L11.6,51.5L12.5,53.5L12.6,54.0L13.8,56.3L14.6,57.5L14.8,58.1L18.0,62.0L21.8,65.5L25.7,68.0L27.0,68.6L27.7,68.6L28.9,67.7L33.0,63.3L37.9,58.4L39.4,57.3L39.9,57.2L40.3,57.6L40.4,58.4L40.4,71.0L40.7,71.3L42.1,71.5L52.4,71.4L55.3,71.5L55.8,71.7L56.1,72.1L56.3,73.2L56.1,80.9L56.1,88.7L56.4,91.7L56.9,94.4L57.6,97.1L58.3,98.6L58.4,99.2L60.0,102.5L61.2,104.2L61.4,104.8L62.4,106.3L64.5,108.8L67.6,111.8L71.9,114.8L73.6,115.6L73.9,115.8L75.0,116.4L75.8,116.6L76.3,117.0L80.5,118.2L84.9,118.7L85.4,118.9L88.3,118.9L89.1,118.7L90.8,118.7L95.2,117.9L100.2,116.2L101.2,115.7L102.5,114.9L103.2,114.7L104.1,114.0L104.8,113.6L106.2,112.5L106.6,112.3L108.4,110.8L110.2,109.0L112.2,106.6L114.5,103.2L116.0,100.3L116.2,99.5L116.4,99.1L117.3,96.5L117.6,96.0L117.7,94.7L118.0,94.1L118.6,90.2L118.7,88.3L118.5,84.0L118.0,80.6L117.7,79.7L117.6,78.7L117.3,78.3L116.5,75.7L114.1,70.8L112.6,68.6L110.4,65.9L108.5,64.0L108.0,63.9L105.9,61.9L103.3,60.4L102.6,59.8L100.5,58.8L99.0,58.3L98.6,58.0L97.0,57.6L95.4,56.9L94.1,56.8L93.4,56.5L88.7,56.0L73.2,56.1L72.5,55.9L72.0,55.4L71.9,54.2L71.8,43.9L71.4,36.6L71.2,35.9L71.1,34.4L70.6,32.5L69.2,28.2L67.5,24.5L65.3,21.3L63.9,19.6L60.0,15.9L57.7,14.3L57.4,14.2L56.3,13.4L55.3,13.0L52.8,11.7L51.0,11.0L48.7,10.5L47.4,10.0L43.6,9.5L37.9,9.5L36.4,9.8L35.3,9.8L33.6,10.2L29.0,11.7L28.5,12.1L27.7,12.3L26.6,12.8L26.2,13.2L24.0,14.3Z M72.3,71.6L73.0,71.4L82.7,71.3L89.8,71.5L91.1,71.9L92.0,72.0L93.7,72.7L94.5,72.9L96.4,74.0L98.7,75.9L101.0,79.0L102.3,81.4L103.0,83.4L103.4,85.1L103.4,88.3L103.3,89.0L103.3,90.2L102.5,93.0L101.2,95.6L100.5,96.5L100.4,97.0L98.5,99.1L95.3,101.4L92.3,102.7L89.0,103.4L85.9,103.4L83.4,102.9L79.6,101.3L78.1,100.4L75.8,98.4L74.3,96.4L73.2,94.5L72.6,93.1L72.1,90.5L72.1,89.4L71.9,88.4L71.9,73.2L71.9,72.0Z M30.2,28.3L32.4,26.7L33.7,26.2L34.7,25.5L35.0,25.5L36.1,25.1L39.0,24.5L41.8,24.5L44.0,24.8L45.4,25.2L48.9,26.7L50.8,28.2L52.6,30.0L54.3,32.3L55.3,34.4L56.2,37.8L56.2,54.3L56.1,55.5L55.7,56.2L44.6,56.4L37.5,56.2L36.9,55.8L36.1,55.7L34.5,55.2L32.6,54.2L30.3,52.6L28.4,50.6L27.1,48.9L25.6,45.7L24.8,42.9L24.7,38.5L25.0,36.7L25.4,35.9L25.5,35.2L27.2,31.7L28.6,29.9Z" fill="#000" fill-rule="evenodd"/>
</svg>