<svg xmlns="http://www.w3.org/2000/svg" viewBox="0 0 128 128" width="128" height="128">
  <path d="M44.2,77.7L44.2,84.8L44.0,89.1L44.1,89.9L44.4,90.2L51.4,90.3L57.6,90.2L61.7,90.3L76.1,90.4L79.9,90.3L82.8,90.3L83.4,90.1L83.5,89.9L83.7,80.2L83.7,78.1L83.2,77.6L75.2,77.4L54.0,77.4L45.1,77.1L44.5,77.3Z M43.9,58.4L44.0,68.6L43.9,70.4L44.3,71.0L82.8,71.0L83.0,70.9L83.2,70.6L83.4,67.7L83.4,58.7L83.2,58.1L80.2,57.9L72.1,57.8L50.5,57.9L47.8,57.8L44.4,57.8L43.9,58.2Z M43.9,38.1L43.9,50.5L44.2,50.9L56.8,51.0L75.5,50.9L82.8,51.0L83.0,50.9L83.2,50.5L83.5,41.6L83.4,38.6L83.3,38.4L83.0,38.1L80.5,38.2L76.3,38.0L56.2,38.1L48.4,38.0L47.2,37.8L44.3,37.8Z M59.8,9.1L59.1,9.3L57.9,9.3L54.8,9.9L53.7,9.9L52.0,10.4L49.9,10.8L48.2,11.3L47.7,11.7L46.7,11.8L45.2,12.5L43.7,13.0L39.4,15.0L38.8,15.5L34.9,17.5L29.7,21.0L26.4,23.8L23.2,27.0L20.7,29.9L20.3,30.6L18.3,33.0L17.7,34.3L17.4,34.6L15.8,37.1L13.0,43.2L12.6,44.5L11.9,46.1L11.5,47.5L11.0,49.0L10.3,52.0L10.1,53.7L10.1,54.7L10.4,54.9L10.8,55.0L16.6,55.1L17.1,55.2L18.6,55.2L19.7,55.5L20.8,55.9L22.4,56.8L24.1,58.3L25.1,59.8L25.3,60.4L25.7,61.0L26.2,62.5L26.1,65.5L25.6,67.2L24.9,68.9L23.8,70.0L22.4,71.2L21.7,71.6L18.8,72.6L10.2,72.7L9.9,73.1L9.9,74.0L10.3,75.8L10.3,76.8L10.7,78.1L10.8,79.2L11.2,80.1L11.4,81.3L11.9,82.3L12.1,82.6L12.2,83.1L13.0,85.1L13.6,86.2L13.7,86.6L15.0,88.8L15.6,90.0L16.1,90.8L16.6,91.9L17.3,92.7L19.5,96.3L21.1,98.1L22.2,99.7L27.3,104.9L30.5,107.6L33.6,109.9L35.7,111.0L37.2,112.1L39.2,113.0L40.8,114.0L46.3,116.1L48.2,116.6L50.8,117.5L52.1,117.6L52.8,117.9L54.1,118.1L55.9,118.5L59.1,118.8L60.6,119.0L65.9,119.1L66.6,118.9L69.9,118.8L71.5,118.5L72.8,118.4L73.7,118.1L75.4,117.9L76.4,117.6L77.1,117.6L83.5,115.6L84.2,115.2L86.5,114.3L92.4,111.2L96.4,108.7L100.7,105.0L105.9,99.8L106.3,99.3L108.0,97.1L108.5,96.3L110.5,93.6L113.0,89.0L114.0,86.3L115.1,84.3L117.2,78.2L117.4,76.8L118.0,74.9L118.1,73.6L117.8,73.2L117.4,73.2L112.7,73.2L108.6,73.0L107.3,72.7L106.0,72.0L104.7,71.1L104.1,70.4L103.2,69.3L102.6,68.3L102.3,67.5L102.2,66.8L101.9,66.3L101.8,65.5L101.6,64.8L101.6,63.4L101.7,62.5L102.2,61.4L102.4,60.7L103.2,59.2L105.4,57.2L107.3,56.1L109.7,55.6L117.6,55.5L117.9,55.4L118.2,55.2L118.3,54.4L118.1,52.9L117.2,49.7L117.0,48.4L116.8,48.2L116.2,46.3L115.7,45.1L115.5,44.4L112.7,38.4L111.4,36.4L111.2,35.9L110.5,35.0L109.5,33.2L108.4,31.7L104.6,26.9L101.5,23.8L98.4,21.2L97.3,20.5L96.5,19.7L95.9,19.3L95.3,18.9L95.0,18.8L94.6,18.4L94.2,18.2L92.5,17.0L91.8,16.8L91.0,16.2L90.3,15.9L90.0,15.6L89.4,15.5L88.1,14.6L87.1,14.2L86.3,14.1L84.9,13.4L84.1,13.2L83.9,12.9L83.3,12.9L81.5,12.1L80.4,11.9L78.8,11.2L71.3,9.5L67.6,9.4L66.3,9.1Z M63.5,20.2L68.5,20.4L68.8,20.6L69.8,20.6L70.2,20.8L71.6,20.9L72.5,21.2L73.4,21.3L75.4,21.8L77.7,22.6L78.2,22.7L78.5,22.9L78.9,22.9L80.5,23.7L83.6,24.9L84.4,25.5L84.7,25.6L85.0,25.9L86.1,26.3L87.1,27.1L87.9,27.5L90.9,29.6L92.6,31.1L93.9,32.1L96.9,35.2L100.2,39.4L101.8,42.1L102.0,42.8L102.3,43.0L102.7,44.1L103.2,44.9L103.2,45.1L102.8,45.5L101.2,46.1L99.7,47.2L97.9,48.3L96.1,49.7L95.2,50.5L93.5,53.0L92.0,55.7L91.8,56.5L91.2,57.6L90.9,59.0L90.7,59.2L90.2,62.1L90.1,65.7L90.5,68.5L91.1,70.6L91.4,71.1L91.9,72.8L92.5,73.9L94.7,77.0L96.8,79.3L97.8,80.0L98.9,81.0L101.1,82.3L102.6,82.9L103.0,83.3L103.0,83.8L100.6,88.3L98.1,91.8L96.6,93.6L93.6,96.6L89.5,99.8L87.1,101.4L85.9,102.0L84.7,102.9L81.7,104.2L80.2,105.0L79.8,105.0L78.9,105.4L77.3,105.8L76.2,106.3L75.5,106.4L74.7,106.7L73.2,106.9L72.5,107.2L66.5,108.0L60.8,107.9L57.9,107.6L55.3,107.0L54.4,106.9L52.4,106.3L51.3,106.1L50.8,105.8L49.9,105.7L49.5,105.3L48.2,105.0L47.7,104.7L46.2,104.2L45.9,104.0L45.3,103.9L42.3,102.2L41.4,101.6L40.2,101.0L38.7,99.7L36.3,98.1L32.1,94.3L30.7,92.7L29.0,90.6L27.7,88.5L27.4,87.9L26.3,86.4L24.9,83.8L24.9,83.4L25.1,83.0L28.9,81.1L31.3,79.2L33.2,77.4L33.7,76.5L34.5,75.7L35.8,73.5L36.8,71.1L37.1,70.1L37.4,69.3L37.9,65.8L38.0,62.3L37.9,60.6L37.6,59.9L37.5,58.7L36.6,56.1L34.8,52.7L33.9,51.5L31.4,48.8L29.0,47.1L27.3,46.3L26.6,45.7L25.8,45.4L25.0,44.7L25.0,44.3L25.6,43.3L26.7,41.1L29.4,37.2L31.7,34.5L34.5,31.7L37.5,29.2L42.2,26.1L47.2,23.6L48.2,23.3L49.2,22.8L54.4,21.3L56.8,21.1L58.0,20.7Z" fill="#000" fill-rule="evenodd"/>
</svg>