<svg xmlns="http://www.w3.org/2000/svg" viewBox="0 0 128 128" width="128" height="128">
  <path d="M34.0,119.5L33.7,119.2L33.4,119.2L32.9,119.6L32.6,120.2L34.0,120.2Z M37.7,119.5L37.5,119.2L37.1,119.1L36.8,119.5L36.4,120.2L37.7,120.2Z M28.9,119.3L28.9,120.1L29.4,120.0L29.7,120.2L30.1,120.2L30.1,119.5L29.9,119.1Z M39.1,120.2L39.6,120.2L39.6,120.0L40.1,119.5L41.3,119.5L41.5,119.4L41.5,119.1L39.5,119.1L39.1,119.6Z M54.5,74.1L52.3,74.7L51.0,75.5L50.0,76.5L48.9,78.3L48.5,80.1L48.5,82.1L48.9,83.7L49.7,85.1L50.8,86.2L51.8,87.0L52.8,87.4L53.9,87.7L55.5,87.7L57.1,87.4L58.1,87.0L59.3,86.2L60.5,84.9L61.0,84.1L61.6,82.3L61.7,80.1L61.3,78.6L60.8,77.5L60.3,76.7L58.9,75.4L58.2,74.9L56.8,74.3L55.5,74.1Z M65.0,9.8L65.0,11.4L64.7,12.6L64.7,14.5L64.0,18.6L63.3,21.8L63.0,22.5L62.7,23.7L62.2,24.8L61.2,26.2L61.0,26.8L60.0,27.9L58.2,29.7L56.3,31.1L53.7,32.6L52.3,33.1L52.1,33.4L51.1,33.8L49.5,34.5L48.9,34.5L48.5,34.8L48.0,34.9L47.4,35.2L44.2,35.8L43.9,36.0L38.7,36.8L38.5,37.1L43.2,37.2L49.2,37.1L53.4,37.3L60.6,37.3L62.6,37.4L62.9,37.7L62.8,38.1L61.3,39.6L60.6,40.0L59.8,40.7L58.3,41.8L55.0,43.5L54.5,43.6L54.2,43.9L52.3,44.5L52.0,44.7L49.7,45.3L48.9,45.6L44.8,46.5L37.1,47.3L37.1,47.5L44.1,47.6L55.3,47.6L56.2,47.8L57.7,47.7L62.6,47.9L63.0,48.2L63.0,48.4L62.2,50.1L61.0,51.6L59.9,52.7L57.9,54.3L55.8,55.3L55.4,55.6L52.1,57.0L47.4,57.8L43.3,58.2L42.0,58.2L39.7,58.5L36.0,58.7L35.3,58.8L35.2,59.0L44.1,59.1L48.3,59.2L55.7,59.2L56.0,59.5L56.0,59.7L55.5,60.6L54.6,61.8L52.6,63.8L49.5,66.0L46.1,67.7L45.4,67.8L44.8,68.2L42.6,68.9L39.8,69.6L38.9,70.0L36.8,70.0L33.4,70.6L31.1,70.7L30.7,71.0L33.6,71.1L54.7,71.1L57.2,71.3L58.4,71.5L60.4,72.3L60.7,72.6L61.5,73.0L63.0,74.7L63.8,75.8L64.7,77.6L65.4,79.4L65.8,81.2L66.2,84.2L66.4,85.3L67.6,98.1L68.0,108.0L68.2,117.0L68.3,117.2L68.6,113.5L68.6,110.3L68.7,109.0L68.8,106.1L69.0,105.4L69.1,101.4L69.8,92.5L70.0,92.1L70.5,87.4L71.4,80.9L72.2,77.8L73.0,76.1L75.1,73.7L76.3,72.9L77.2,72.4L77.7,72.3L78.1,72.0L79.9,71.5L86.0,71.4L95.0,71.6L97.4,71.5L97.6,71.4L94.5,71.1L91.8,70.7L89.3,70.4L86.0,69.6L85.2,69.6L82.4,68.7L79.9,67.8L76.2,66.0L73.8,64.4L71.4,62.4L70.7,62.4L69.9,63.5L68.7,64.7L66.9,65.6L65.3,66.0L64.0,66.0L62.8,65.7L61.5,65.2L60.4,64.4L59.7,63.7L58.9,62.4L58.4,61.1L58.2,60.2L58.3,59.5L58.5,59.3L70.5,59.3L91.8,59.5L93.0,59.4L92.8,59.4L92.6,59.2L90.7,59.1L90.1,59.0L88.2,58.9L81.8,58.2L80.6,57.9L80.0,57.9L78.9,57.7L76.6,56.9L73.6,55.5L71.1,54.0L68.8,51.9L67.5,50.1L67.3,49.4L66.9,48.9L66.7,48.2L67.1,47.9L85.3,48.0L91.8,47.9L91.7,47.7L91.3,47.6L90.1,47.6L87.4,47.3L87.0,47.2L85.1,46.9L84.1,46.6L83.1,46.5L82.5,46.3L79.5,45.6L76.2,44.3L75.7,44.0L75.3,43.9L72.6,42.5L72.3,42.1L71.0,41.5L70.2,40.8L68.9,40.0L67.2,38.1L67.1,37.7L67.3,37.5L68.0,37.4L88.9,37.6L91.8,37.4L91.7,37.3L91.2,37.1L89.5,36.9L88.9,36.7L88.0,36.6L86.6,36.2L84.7,35.9L83.2,35.3L82.4,35.2L79.6,34.2L77.2,33.0L76.8,32.9L73.4,30.9L71.3,29.2L70.5,28.4L69.0,26.2L68.0,24.2L67.1,21.8L66.5,19.9L66.4,18.6L66.1,17.6L66.0,16.1L65.8,15.0L65.6,12.6L65.4,11.8L65.4,10.0Z" fill="#000" fill-rule="evenodd"/>
</svg>