<svg xmlns="http://www.w3.org/2000/svg" viewBox="0 0 128 128" width="128" height="128">
  <path d="M118.6,41.6L118.5,41.3L118.2,41.1L115.9,41.0L95.1,41.1L94.1,41.3L92.5,41.4L91.5,41.7L90.2,41.9L89.4,42.2L88.0,42.2L87.1,42.8L84.5,43.9L81.8,45.7L79.6,47.7L77.6,49.8L77.1,50.7L75.9,52.2L74.2,55.3L73.3,58.0L73.1,58.8L72.8,59.5L72.4,61.7L72.1,62.2L71.9,62.5L71.7,62.5L71.5,62.2L71.5,52.9L71.4,50.7L71.5,48.2L71.5,41.9L71.2,41.6L57.0,41.3L56.6,41.5L56.5,41.9L56.5,47.2L56.3,49.5L56.3,53.3L56.2,56.3L56.2,58.1L56.1,58.6L55.8,58.7L55.3,57.9L55.2,57.5L54.2,55.1L53.4,53.8L53.2,53.4L52.4,52.0L50.2,49.0L47.3,46.2L46.1,45.3L42.3,43.3L41.0,43.0L40.0,42.5L37.4,41.9L34.6,41.6L32.3,41.4L25.9,41.5L10.0,41.3L9.6,41.6L9.4,54.6L9.6,54.9L9.9,55.1L16.4,55.1L19.0,55.1L19.6,55.3L21.0,55.1L22.5,55.1L25.6,55.4L33.1,55.4L34.5,55.6L35.4,55.9L36.2,56.0L38.4,57.2L39.5,58.1L40.2,59.0L41.1,60.8L41.6,63.1L41.6,65.4L41.2,67.4L40.3,69.2L38.2,71.4L36.9,72.0L34.0,72.8L33.0,72.9L30.9,72.8L29.5,72.4L27.8,71.7L27.3,71.3L27.0,71.2L25.6,69.9L24.8,68.9L23.9,67.1L23.4,65.4L23.1,65.1L17.8,64.9L13.9,65.0L11.4,64.9L9.3,64.9L9.0,65.2L9.3,67.2L9.5,67.8L10.3,70.8L11.5,74.1L12.2,75.2L12.4,75.8L13.2,77.0L13.4,77.5L15.6,80.0L17.0,81.4L18.8,82.8L19.8,83.3L20.5,83.9L23.2,85.5L26.0,86.5L26.6,86.5L29.3,87.1L31.5,87.3L35.2,87.0L37.1,86.5L38.8,86.2L39.7,85.8L41.7,85.3L44.2,84.0L44.9,83.4L46.6,82.4L47.3,81.8L49.9,79.3L51.5,77.5L51.8,76.9L52.1,76.5L52.3,75.9L52.9,75.3L53.8,73.8L53.9,73.4L55.3,70.8L55.4,70.2L55.6,69.8L55.9,69.0L56.2,68.7L56.4,68.7L56.6,68.9L56.8,83.5L56.7,85.0L56.8,85.4L57.1,85.6L57.9,85.7L62.1,85.7L68.3,85.9L71.2,85.8L71.5,85.4L71.5,68.4L71.7,68.1L71.9,68.1L72.1,68.3L73.2,71.3L74.5,73.4L75.4,75.3L77.1,77.9L78.1,78.9L78.3,79.2L80.5,81.4L81.7,82.4L82.1,82.6L83.0,83.3L84.2,84.1L86.0,85.0L87.4,85.5L87.7,85.7L91.6,86.7L94.2,86.9L98.0,86.9L99.9,86.7L101.8,86.2L103.0,86.1L105.9,85.2L107.6,84.4L108.4,83.8L108.8,83.6L110.9,82.2L113.5,79.5L114.1,78.5L115.2,77.1L116.7,74.5L117.1,73.4L117.1,73.2L118.1,70.8L118.9,67.9L119.0,66.7L119.2,65.8L119.1,65.2L118.6,64.8L108.4,64.6L107.8,64.8L105.5,64.9L105.2,65.4L105.1,65.9L103.8,68.7L103.4,69.3L101.3,71.3L100.6,71.7L99.9,72.0L99.6,72.0L99.3,72.3L98.2,72.6L97.1,72.8L96.5,73.0L94.8,73.0L92.3,72.4L90.9,71.7L88.9,70.0L88.3,69.0L87.4,67.3L86.9,65.4L86.8,62.6L87.2,60.6L87.8,59.3L88.6,58.2L90.1,56.8L92.5,55.6L94.6,55.0L96.1,54.8L114.6,54.8L117.8,54.8L118.2,54.6L118.4,54.3L118.5,52.5Z" fill="#000" fill-rule="evenodd"/>
</svg>