<svg xmlns="http://www.w3.org/2000/svg" viewBox="0 0 128 128" width="128" height="128">
  <path d="M9.2,35.4L9.2,49.2L9.4,51.6L9.3,69.3L9.5,73.0L9.4,74.7L9.5,80.9L9.5,89.0L9.7,92.8L9.9,93.0L12.0,93.1L19.1,93.1L21.6,93.0L43.0,93.0L65.7,93.3L86.7,93.1L118.1,93.2L118.4,93.1L118.6,92.9L118.8,87.5L118.7,86.1L118.5,85.8L113.3,80.3L100.9,67.8L97.6,64.2L97.6,63.8L99.2,62.1L101.4,60.1L103.2,58.3L113.3,48.8L118.8,43.3L119.0,42.5L119.1,36.3L119.0,36.0L118.5,35.6L95.9,35.6L89.3,35.4L82.2,35.5L81.3,35.4L79.7,35.4L62.4,35.3L61.2,36.2L39.6,57.7L39.1,57.7L37.8,56.6L34.6,53.3L33.4,52.3L31.6,50.3L16.5,35.2L15.7,35.0L10.8,35.0L9.5,35.1Z M108.3,85.5L108.3,85.7L108.1,85.9L107.0,85.9L75.7,85.9L75.3,85.7L75.3,85.5L77.6,83.1L78.6,82.3L85.3,75.6L85.9,75.1L86.1,74.8L91.9,69.3L92.4,69.3L97.2,74.0L97.3,74.3L98.0,74.8L99.6,76.6L101.6,78.5L102.9,80.0L106.9,83.9Z M22.3,85.4L23.1,84.4L38.3,69.2L39.1,68.7L39.6,68.8L40.9,69.9L56.4,85.4L56.3,85.8L56.1,85.9L22.5,85.8L22.3,85.5Z M69.8,46.2L79.2,55.8L80.2,56.9L86.7,63.4L86.8,63.8L86.8,64.2L86.1,64.9L80.4,70.3L76.9,73.8L76.7,73.9L72.3,78.4L71.9,78.6L70.1,80.5L69.7,80.5L69.5,80.1L69.4,76.7L69.5,68.7L69.3,46.7L69.5,46.3Z M62.0,46.2L62.2,46.4L62.3,47.4L62.2,69.0L62.4,73.4L62.4,80.1L62.2,80.6L62.0,80.7L60.4,79.2L44.8,63.6L44.7,63.4L44.8,62.9L49.9,57.7L54.1,53.8L60.2,47.6L60.5,47.5L61.4,46.5Z M16.6,46.0L17.0,46.0L31.8,60.8L33.7,63.0L33.7,63.4L32.6,64.7L30.4,66.8L29.6,67.8L27.2,70.1L25.8,71.6L24.8,72.5L17.0,80.3L16.8,80.3L16.5,79.8L16.6,78.0L16.4,65.7L16.4,46.3Z M77.2,43.1L77.3,42.9L77.8,42.9L85.9,42.9L93.4,43.0L105.1,42.9L107.9,43.0L108.2,43.3L108.2,43.5L99.6,52.0L97.6,53.8L92.6,58.5L92.0,58.5L91.5,58.2L88.4,55.0L88.2,54.6L87.1,53.7L86.5,52.9L81.1,47.5L79.6,45.8L78.4,44.7L77.2,43.3Z" fill="#000" fill-rule="evenodd"/>
</svg>