<svg xmlns="http://www.w3.org/2000/svg" viewBox="0 0 128 128" width="128" height="128">
  <path d="M88.3,115.8L88.0,115.9L87.8,116.5L87.9,116.8L88.3,116.8L88.5,116.2L88.5,116.0Z M62.5,53.6L58.9,53.8L56.5,54.8L54.7,55.9L53.6,57.0L52.7,58.1L51.9,59.6L51.2,62.3L51.3,65.7L51.8,67.3L52.0,67.7L52.3,68.7L53.5,70.3L53.9,70.6L54.7,71.7L56.4,72.9L58.3,73.9L60.1,74.2L61.3,74.2L63.3,73.9L64.8,73.5L67.3,72.1L69.6,69.7L70.4,68.4L70.5,67.7L70.8,67.2L70.9,66.6L71.2,66.0L71.3,63.3L71.1,61.4L70.8,60.2L69.3,57.6L68.0,56.1L66.5,54.9L66.1,54.9L65.3,54.4Z M30.9,13.1L30.7,13.5L29.3,14.5L27.7,16.2L27.1,16.9L25.4,20.2L24.8,22.4L24.4,24.8L24.0,26.4L24.0,27.3L23.6,29.7L23.5,31.9L23.3,32.6L23.1,34.4L22.9,35.2L22.7,38.8L22.3,40.8L22.2,42.9L22.0,43.9L21.9,45.6L21.8,46.1L21.8,47.4L21.6,48.0L21.5,49.7L21.1,51.2L21.1,52.4L21.4,54.1L21.0,56.1L21.0,57.7L21.1,58.2L21.1,64.0L21.4,65.5L21.5,67.4L22.1,70.9L22.2,72.4L22.9,75.8L22.9,82.7L23.3,84.5L23.3,86.2L23.6,87.5L23.6,88.8L23.7,89.9L24.3,92.3L24.3,93.5L24.5,94.1L24.8,96.0L25.0,96.4L25.5,96.7L26.7,96.5L27.1,96.8L28.7,98.3L29.9,99.8L30.4,100.4L32.1,101.0L32.8,101.6L33.0,102.3L33.1,103.2L32.7,103.9L31.6,104.4L30.0,104.5L29.5,104.9L29.5,105.1L29.5,106.6L29.7,106.9L31.0,108.2L31.3,108.7L31.2,109.3L30.7,110.0L30.7,110.4L31.8,111.1L33.2,112.2L35.0,113.3L35.8,114.2L36.1,114.8L36.5,115.2L37.5,115.5L39.0,116.0L40.5,116.9L42.3,117.4L45.0,117.5L47.0,117.8L48.0,117.8L49.8,118.2L53.8,118.4L57.2,119.1L61.3,119.1L62.3,118.9L64.5,118.9L66.0,118.7L68.1,118.6L70.1,118.3L71.9,118.2L73.7,117.9L74.4,117.9L76.4,117.3L77.0,117.3L78.6,116.9L79.2,116.9L81.8,116.5L83.5,115.7L84.9,115.4L87.1,114.6L88.7,114.4L90.1,113.7L91.5,113.5L92.6,113.0L93.8,112.0L95.1,111.4L95.7,110.9L96.4,110.2L96.8,109.6L98.6,107.9L98.9,107.4L99.3,107.0L100.0,106.7L100.8,105.6L101.4,104.3L101.8,103.9L102.7,101.0L102.8,100.2L103.0,99.5L103.2,97.2L103.7,93.6L103.8,90.3L104.0,88.8L104.0,87.5L104.3,85.9L104.3,84.0L104.8,80.8L104.9,78.1L105.2,75.7L105.1,74.2L105.4,70.5L105.5,69.8L105.6,68.4L105.8,68.1L105.9,67.3L106.2,63.4L106.5,61.9L106.6,59.5L106.9,58.3L106.9,55.0L107.0,54.5L107.2,51.7L107.1,46.5L107.3,44.4L107.1,43.2L107.1,39.0L106.7,36.6L106.5,34.2L106.2,33.7L106.0,32.2L105.3,29.6L105.1,29.3L104.9,28.0L103.9,26.1L103.2,24.2L102.3,23.0L102.0,22.3L100.4,20.2L98.6,18.4L98.0,17.5L96.1,15.9L94.8,15.1L94.3,14.6L93.0,14.1L92.5,14.0L92.1,13.7L90.7,13.3L88.6,12.9L87.2,12.8L85.6,12.3L82.4,12.1L82.0,11.9L80.1,11.8L78.2,11.4L75.4,11.2L74.2,10.9L72.2,10.8L70.0,10.3L67.1,10.3L66.0,10.2L63.6,10.1L62.7,9.9L60.7,9.9L59.4,9.6L56.5,9.7L52.8,9.2L47.0,9.1L45.6,9.2L44.6,9.6L41.9,9.6L40.7,9.8L38.9,9.7L33.5,11.9L31.8,12.9Z M39.4,27.9L40.1,27.5L41.7,27.5L42.7,27.6L46.2,27.5L49.9,27.8L52.9,27.8L53.6,27.9L68.0,27.9L69.7,27.9L70.4,28.1L73.5,28.0L77.1,28.2L85.3,28.2L87.2,28.0L87.7,28.4L87.8,43.2L87.5,55.4L87.5,65.3L87.3,70.9L87.3,86.2L87.2,88.8L87.2,92.9L86.7,95.8L86.5,99.5L86.2,99.9L85.6,100.1L83.9,99.9L83.5,99.8L77.6,99.8L76.0,100.0L74.1,100.6L72.7,100.8L70.2,100.9L65.7,100.7L65.0,100.9L64.2,101.4L62.4,101.7L60.9,101.7L60.4,101.6L53.6,101.6L51.9,101.2L51.4,101.2L49.2,100.2L48.1,100.1L47.4,99.8L42.4,99.6L41.6,99.1L39.0,98.5L38.2,97.9L38.0,97.6L38.0,95.7L38.2,94.7L38.2,88.8L38.0,86.9L38.0,77.9L38.2,76.9L38.1,69.8L38.3,66.9L38.1,65.2L38.1,57.7L38.3,56.6L38.2,51.7L38.5,49.8L38.3,48.3L38.6,47.0L38.6,40.6L39.0,35.7L38.9,29.2L39.0,28.2Z" fill="#000" fill-rule="evenodd"/>
</svg>