<svg xmlns="http://www.w3.org/2000/svg" viewBox="0 0 128 128" width="128" height="128">
  <path d="M72.0,29.4L71.7,29.4L71.4,29.8L71.4,32.8L71.3,36.4L71.3,64.6L71.1,79.8L71.1,93.3L71.0,97.5L70.8,98.3L70.8,99.0L70.9,99.2L71.3,99.2L73.2,98.3L74.8,97.3L75.4,97.0L75.7,96.7L77.4,95.8L78.3,95.2L78.9,94.9L79.7,94.3L81.6,93.3L81.9,93.0L82.2,92.9L83.1,92.2L84.4,91.6L86.0,90.6L86.4,90.4L86.7,90.1L87.8,89.7L89.8,88.4L91.9,87.3L95.9,84.8L96.5,84.6L96.9,84.2L99.7,82.7L100.7,82.0L101.2,81.9L104.1,80.1L104.7,79.8L106.1,78.8L106.7,78.6L107.2,78.2L108.6,77.4L108.9,77.1L111.4,75.8L112.5,74.9L115.3,73.5L115.6,73.2L116.8,72.5L118.6,71.4L119.0,70.9L119.0,70.4L119.0,69.7L119.2,62.3L119.2,59.7L119.0,58.5L119.1,57.1L118.8,56.4L118.6,56.2L117.6,55.7L115.8,54.6L112.2,52.7L110.9,51.9L108.9,50.9L107.8,50.1L104.9,48.5L103.0,47.3L101.5,46.5L99.8,45.4L99.3,45.3L98.1,44.3L97.2,43.9L96.4,43.4L94.8,42.6L92.9,41.4L92.6,41.4L90.8,40.2L88.4,39.0L88.0,38.6L86.4,37.8L85.6,37.2L85.2,37.1L84.0,36.3L83.6,36.2L82.2,35.3L80.1,34.2L79.5,33.7L78.4,33.2L77.5,32.5L76.5,32.1L74.7,30.9L73.7,30.4L73.5,30.2L73.0,30.0Z M56.9,29.0L54.5,30.5L53.4,31.0L51.7,32.2L50.7,32.6L50.2,33.0L49.9,33.1L48.2,34.1L42.8,37.0L42.2,37.4L40.5,38.3L39.8,38.8L39.2,39.0L36.6,40.5L36.3,40.8L34.6,41.7L34.0,42.0L33.7,42.3L30.3,44.1L27.1,46.0L26.1,46.5L24.7,47.5L22.2,48.8L17.8,51.5L16.7,52.0L15.8,52.6L13.3,53.9L12.7,54.3L11.6,54.9L11.4,55.1L9.5,56.2L9.1,56.8L9.0,70.8L9.1,71.1L9.7,71.8L10.8,72.4L11.3,72.8L11.8,72.9L13.8,74.1L14.5,74.4L15.5,75.1L17.9,76.3L18.8,77.0L20.4,77.7L21.9,78.7L22.9,79.2L24.0,79.9L25.3,80.5L28.5,82.5L31.0,83.8L32.7,85.0L33.5,85.3L35.5,86.4L38.3,88.1L40.5,89.3L44.0,91.5L45.6,92.2L46.5,92.9L48.1,93.7L49.1,94.3L51.0,95.2L51.6,95.7L53.1,96.4L54.0,97.0L55.3,97.6L55.7,98.0L57.5,98.9L57.8,98.7L57.9,96.4L57.9,60.9L57.6,38.1L57.7,34.8L57.5,32.7L57.4,29.2L57.3,29.1Z" fill="#000" fill-rule="evenodd"/>
</svg>