<svg xmlns="http://www.w3.org/2000/svg" viewBox="0 0 128 128" width="128" height="128">
  <path d="M74.8,114.6L75.6,115.4L76.3,115.6L76.9,116.1L78.6,116.7L79.4,117.1L80.3,117.2L80.7,117.6L81.8,117.6L82.3,117.8L81.8,117.4L80.7,117.2L80.2,116.8L79.8,116.8L78.7,116.3L77.7,116.0L77.5,115.7L76.7,115.6L76.4,115.3L75.5,115.0Z M22.8,114.4L22.8,114.6L23.3,114.8L23.6,114.8L24.9,115.7L25.8,115.8L26.0,116.1L26.9,116.4L27.3,116.7L28.7,116.9L29.2,117.2L30.2,117.3L29.8,116.9L27.8,116.5L27.0,116.0L26.2,115.9L25.8,115.6L25.0,115.4L24.7,115.1L24.2,115.0L23.4,114.5Z M73.7,113.8L73.8,114.1L74.2,114.3L74.2,114.1Z M19.9,112.5L19.9,112.6L20.7,113.3L21.0,113.3L21.2,113.5L21.7,113.5L21.5,113.5L21.1,113.0Z M18.4,111.5L19.3,112.2L19.0,111.6L18.6,111.4Z M69.0,110.1L69.0,110.3L69.3,110.3Z M68.5,109.4L68.5,109.6L68.7,109.6Z M16.0,109.2L16.1,109.5L16.6,109.6L16.4,109.3Z M66.4,107.0L66.4,107.2L67.2,108.2L67.4,108.2L66.7,107.1Z M63.5,103.4L63.1,102.8L62.4,102.8L58.1,108.1L55.5,110.7L53.8,112.1L53.4,112.3L52.0,113.4L51.7,113.4L50.5,114.3L50.0,114.4L49.7,114.6L48.8,115.0L47.4,115.8L46.3,116.1L45.9,116.4L45.1,116.5L44.5,116.8L42.4,117.3L39.8,117.7L35.8,117.8L33.9,117.8L31.2,117.3L30.6,117.4L31.8,117.8L35.0,118.2L39.7,118.1L44.8,117.1L45.2,116.8L46.3,116.7L46.7,116.4L47.8,116.1L48.1,115.8L48.7,115.7L49.2,115.4L49.8,115.2L50.2,114.8L50.5,114.8L51.1,114.4L51.5,114.3L52.7,113.4L53.3,113.1L54.8,111.8L55.0,111.7L58.0,108.8L59.7,106.7L60.0,106.1L61.0,105.2L61.1,104.9L62.4,103.6L63.5,103.6Z M10.2,79.0L10.0,79.1L10.1,79.6Z M40.9,75.5L40.5,74.9L40.0,74.7L40.4,75.4L40.4,76.0L40.2,76.4L38.5,78.4L36.8,80.0L36.7,80.2L33.1,84.0L31.9,84.5L31.3,85.0L28.6,85.5L26.6,85.5L25.5,85.0L24.6,84.8L24.0,84.5L23.6,84.4L23.0,83.8L22.0,83.2L21.0,82.0L20.3,80.5L20.0,80.2L19.4,78.0L19.3,76.0L19.2,75.8L19.1,78.0L19.2,78.7L19.4,79.2L19.4,79.7L20.2,81.4L21.0,82.7L22.5,84.3L24.7,85.5L26.1,85.9L29.1,86.1L30.4,85.8L32.5,84.9L33.1,84.4L33.8,83.9L35.2,82.5L36.3,81.1L37.6,80.0L37.8,79.4L40.7,76.6L40.9,76.1Z M20.4,72.8L20.2,72.9L19.5,74.0L19.4,75.4L19.8,75.1L20.0,73.7L20.2,73.7Z M37.7,71.8L37.9,72.2L38.2,72.3L38.0,71.9Z M23.6,69.2L20.9,69.2L18.2,69.0L16.7,69.1L16.3,69.3L15.1,70.4L14.9,70.9L14.5,71.2L14.4,71.5L12.9,73.2L11.9,75.2L11.3,76.0L11.2,76.6L10.5,77.9L10.4,78.6L10.6,78.5L10.7,77.9L11.1,77.5L11.2,76.9L11.8,76.1L11.8,75.8L12.2,75.4L12.3,74.9L12.6,74.8L12.9,74.0L13.3,73.7L13.7,72.8L14.3,72.1L14.3,71.9L16.4,69.7L17.0,69.4L17.6,69.4L22.1,69.4L22.4,69.7L22.4,70.1L20.7,71.9L20.6,72.5L22.3,70.6L23.0,70.3L23.7,69.6Z M21.3,45.3L21.3,45.5L22.1,46.2L22.5,46.3L23.7,47.3L25.1,47.8L26.6,48.8L31.5,50.4L32.2,50.4L33.7,50.8L34.3,51.1L34.4,52.0L34.5,52.0L35.0,51.5L35.1,50.6L34.7,50.3L31.8,50.0L30.3,49.5L29.5,49.4L28.7,48.9L27.9,48.9L27.0,48.3L26.7,48.3L25.7,47.8L23.0,46.2L22.6,46.1L22.5,45.8L22.0,45.7L21.7,45.4Z M20.7,44.8L20.8,45.0L21.0,44.9Z M17.6,41.9L17.6,42.1L18.7,43.4L19.9,44.5L20.5,44.7L20.4,44.4L20.1,44.2L18.8,42.8Z M17.0,41.1L16.9,41.2L17.2,41.6L17.3,41.6Z M16.0,40.0L16.4,40.4L16.2,40.1Z M13.7,35.9L13.5,36.0L13.7,36.3Z M33.5,23.3L31.5,25.5L30.3,26.3L29.0,27.0L25.8,27.5L24.4,27.4L22.9,26.9L22.4,26.4L21.9,26.3L21.1,25.9L19.1,24.1L19.1,24.2L19.9,25.4L20.4,25.9L21.4,26.3L21.8,26.8L22.5,27.0L22.9,27.3L25.0,27.6L25.3,27.8L27.5,27.8L28.2,27.5L29.0,27.4L30.7,26.6L31.6,26.0L33.2,24.4Z M18.2,22.6L18.3,23.3L18.7,23.9L18.9,23.9L18.9,23.6L18.4,22.7Z M34.6,20.8L34.4,20.9L34.4,21.1L34.6,21.0Z M109.8,18.8L109.6,18.8L109.7,20.8L109.4,22.5L109.0,23.1L108.9,23.7L108.7,24.1L108.7,24.4L109.2,23.8L109.4,22.8L109.8,22.0Z M114.2,16.0L109.5,15.9L108.9,16.2L108.8,16.8L109.0,17.5L109.4,17.7L109.6,16.8L110.1,16.5L113.9,16.6L114.6,17.0L114.8,17.7L115.0,17.8L115.2,19.2L115.5,19.8L115.8,21.7L115.8,23.6L116.0,24.0L116.0,25.9L115.5,29.9L115.2,30.7L115.1,32.2L114.8,32.7L114.4,34.0L113.6,35.8L113.4,36.5L113.1,36.8L113.0,37.4L112.6,38.0L112.5,38.4L111.6,39.5L110.9,40.6L109.1,42.8L106.7,45.1L104.1,47.1L102.3,48.1L98.8,49.8L95.4,50.7L92.9,51.0L91.9,51.2L91.5,51.5L91.5,51.9L91.6,52.4L92.4,53.5L92.9,55.5L93.1,55.7L93.5,56.8L93.7,61.3L93.6,62.5L93.5,62.7L93.3,63.6L93.3,64.5L93.1,65.1L92.7,65.5L92.6,66.1L92.4,66.3L92.2,67.2L91.9,67.3L91.4,68.5L88.8,71.7L87.8,72.7L87.2,73.7L85.5,75.5L85.0,76.1L85.0,76.8L85.7,77.7L86.8,78.7L87.3,79.5L88.6,80.7L89.5,82.0L91.3,83.9L93.0,85.4L94.2,85.9L94.8,86.4L96.5,86.9L100.1,86.9L102.9,85.7L104.0,84.9L105.8,82.7L106.5,81.0L106.8,79.0L106.7,76.2L106.4,74.8L106.0,74.4L105.9,73.8L105.4,73.2L105.2,72.6L104.2,71.5L104.1,70.9L104.4,70.7L108.7,70.8L109.7,71.2L110.7,72.1L111.5,73.4L112.5,74.4L112.7,75.0L113.5,76.0L113.8,76.7L114.1,76.9L114.2,77.8L114.6,78.2L115.1,79.8L115.5,80.4L115.6,81.2L116.2,82.6L116.2,83.2L116.5,84.1L117.1,87.7L117.2,91.3L116.7,95.5L116.4,96.2L115.9,98.8L115.5,99.5L115.1,100.9L114.8,101.3L114.7,101.8L114.0,103.3L112.4,106.0L111.6,107.0L111.1,107.8L109.5,109.7L107.2,111.7L106.2,112.8L105.6,113.0L105.4,113.4L104.4,113.8L103.2,114.7L102.6,114.9L101.9,115.5L101.3,115.6L100.2,116.2L98.0,116.9L97.4,117.3L92.8,118.3L90.5,118.5L87.5,118.5L86.3,118.4L85.9,118.2L83.5,117.8L82.8,117.8L82.8,118.1L87.0,118.9L90.1,118.9L92.8,118.8L93.8,118.5L95.0,118.4L96.0,118.0L97.1,117.8L99.5,116.9L100.1,116.8L100.5,116.5L103.3,115.3L103.6,114.9L104.9,114.2L106.5,112.8L106.6,112.8L107.6,112.1L110.6,109.2L111.4,108.0L112.5,106.8L113.5,104.9L114.0,104.4L116.1,99.7L116.1,99.4L116.8,97.0L116.8,96.4L117.1,95.8L117.2,94.3L117.3,94.1L117.5,92.3L117.4,87.0L117.0,85.4L116.9,83.6L116.5,82.8L116.3,81.8L116.0,81.2L115.9,80.3L115.6,80.0L115.3,78.9L114.4,77.1L114.0,76.6L113.8,75.9L112.9,74.5L112.5,74.3L112.2,73.5L111.5,72.6L111.5,72.4L109.6,70.4L102.9,70.2L102.5,70.4L102.5,70.8L103.6,71.6L105.5,73.7L105.6,74.3L106.0,74.7L106.1,75.4L106.5,76.6L106.5,79.4L106.1,81.1L105.0,83.0L103.2,84.8L102.3,85.4L100.0,86.3L96.3,86.3L95.8,86.0L94.8,85.8L93.2,84.8L91.6,83.3L90.9,82.7L88.6,80.1L86.9,78.3L85.8,76.8L85.8,76.2L86.1,75.8L87.4,74.1L87.5,73.8L90.5,70.5L91.8,68.6L92.2,67.8L92.2,67.4L92.5,67.1L93.0,66.1L93.2,64.9L93.5,64.5L93.7,62.9L94.0,62.5L94.1,60.0L93.9,59.1L93.8,57.0L93.5,56.0L93.4,55.1L92.5,53.2L92.3,52.1L92.7,51.8L93.2,51.8L94.3,51.4L95.4,51.3L99.0,50.3L101.8,49.1L105.3,47.0L107.2,45.5L109.8,43.0L111.9,40.3L112.1,39.6L113.0,38.5L113.0,38.2L113.2,38.1L114.0,36.6L114.1,36.0L114.4,35.5L114.5,34.9L114.9,34.3L115.3,32.9L115.5,31.7L115.9,30.6L116.2,28.8L116.3,25.9L116.3,24.0L116.1,22.5L115.9,20.1L115.5,19.3L115.3,17.7L115.0,17.0L115.0,16.6L114.6,16.2Z M18.2,14.4L13.0,14.3L12.3,14.8L11.6,17.0L11.2,18.7L11.2,19.5L10.9,20.6L10.9,21.8L10.7,22.0L10.7,26.1L10.9,26.3L11.0,21.9L11.7,18.1L11.8,17.8L12.3,16.0L12.9,15.0L13.7,14.6L16.9,14.7L17.5,15.0L17.7,15.4L17.7,15.8L17.3,16.9L17.2,18.4L17.4,19.8L17.5,17.5L17.7,17.1L17.8,16.1L18.1,15.8L18.3,15.1L18.3,14.5Z M14.1,18.8L13.6,21.7L13.6,26.3L13.8,26.8L13.9,28.4L14.4,30.7L15.0,32.6L16.7,36.0L18.2,38.4L19.8,40.4L23.2,43.5L25.8,45.2L27.5,45.8L29.1,46.8L33.8,47.9L35.5,48.0L36.1,48.2L39.9,48.0L40.7,48.2L40.7,48.7L38.6,50.8L36.9,53.1L35.6,56.3L35.3,59.3L35.4,61.1L35.9,63.8L36.3,64.9L37.2,66.6L40.5,71.0L43.0,73.9L44.2,75.6L44.2,76.0L43.5,77.0L36.4,84.5L34.9,85.9L32.4,87.4L31.9,87.5L30.6,88.0L29.0,88.2L27.1,88.2L25.1,87.8L23.3,87.2L20.8,85.6L19.5,84.4L19.4,84.1L18.6,83.2L17.7,81.5L17.0,79.2L16.8,76.8L17.1,74.2L17.3,73.7L17.3,72.9L17.2,72.8L16.3,73.7L15.0,75.4L13.7,77.9L12.4,80.8L12.4,81.2L11.9,82.3L11.3,85.4L11.0,88.3L11.2,93.0L11.4,94.2L12.6,98.5L13.9,101.6L16.1,105.0L17.9,107.1L20.6,109.7L23.5,111.7L26.9,113.5L27.2,113.5L27.9,113.8L28.4,113.8L30.8,114.7L34.6,115.4L38.9,115.3L41.9,114.9L44.8,114.2L46.6,113.4L47.3,113.2L49.0,112.4L49.7,111.7L50.7,111.3L51.2,110.8L52.7,109.9L55.5,107.2L61.6,100.1L62.5,99.3L63.1,99.2L64.7,100.6L66.7,102.9L67.0,103.6L67.8,104.4L68.5,105.5L69.8,106.7L71.5,108.7L74.9,111.5L78.0,113.4L82.8,115.3L86.1,115.9L90.1,116.1L90.9,115.9L93.2,115.8L94.4,115.5L96.0,115.3L100.1,113.7L104.1,111.4L106.5,109.3L109.0,106.7L109.8,105.6L110.7,104.1L111.0,103.8L113.0,99.7L113.1,99.1L113.4,98.6L113.7,97.4L114.1,96.4L114.1,95.9L114.4,94.4L114.4,93.2L114.7,91.6L114.7,88.3L114.5,86.5L113.5,82.2L111.9,78.3L110.9,76.7L109.7,74.8L109.1,74.4L108.8,74.7L109.3,77.5L109.3,78.9L108.8,81.3L107.8,83.5L107.0,84.8L105.5,86.5L103.3,87.9L100.8,88.8L98.9,89.1L97.6,89.1L95.2,88.8L94.1,88.4L92.0,87.3L90.4,85.9L89.7,85.1L87.7,83.1L82.7,77.3L82.1,76.9L82.0,76.5L82.1,76.1L87.7,69.4L88.2,69.0L89.4,67.1L90.6,64.5L91.2,62.0L91.2,58.3L90.4,55.4L89.4,53.2L88.2,51.5L86.5,49.7L86.5,49.3L86.9,49.0L92.5,49.0L93.6,48.8L94.3,48.8L95.5,48.3L98.1,47.7L100.3,46.8L103.1,45.2L105.5,43.4L107.6,41.3L108.9,39.6L110.8,36.6L111.6,34.8L112.0,34.0L112.9,31.5L113.3,29.5L113.6,27.3L113.6,23.6L113.4,22.8L113.4,21.9L112.9,20.1L112.7,20.1L112.5,20.6L112.5,21.8L112.3,22.8L111.6,24.9L110.8,26.3L109.2,28.4L107.0,30.1L105.0,31.0L102.4,31.6L100.1,31.6L98.3,31.3L96.0,30.4L93.7,29.0L93.0,28.3L92.6,27.6L91.8,26.8L90.7,24.9L90.2,23.4L89.4,20.6L88.2,18.0L86.4,16.1L84.6,14.5L83.1,13.8L80.9,13.1L79.8,12.9L77.4,12.8L76.1,13.0L74.2,13.5L72.5,14.3L71.3,15.0L70.3,15.8L68.6,17.7L67.9,18.7L66.8,21.1L66.4,23.1L66.3,25.9L66.5,28.3L66.7,29.1L66.9,30.5L67.8,33.3L70.0,37.9L71.4,39.8L74.1,42.7L76.6,44.8L78.4,45.9L78.4,46.3L77.9,46.6L76.4,46.7L74.1,47.1L71.6,48.1L68.7,50.2L63.9,55.3L63.6,55.4L63.0,55.5L60.3,52.8L58.1,50.0L56.0,48.4L54.0,47.3L53.3,47.1L52.8,46.8L50.8,46.3L48.8,46.1L48.6,45.9L48.7,45.5L49.2,45.0L50.1,44.6L53.1,42.3L54.9,40.3L56.4,38.5L58.6,34.9L59.2,33.1L59.6,32.5L59.7,31.8L60.1,30.9L60.2,29.7L60.5,29.1L61.0,23.9L60.5,21.2L60.0,19.6L58.9,17.7L58.1,16.6L56.1,14.6L53.6,13.2L52.0,12.6L50.0,12.3L46.8,12.4L43.5,13.5L41.2,15.1L39.6,16.7L37.9,19.6L36.9,23.1L36.1,24.8L34.9,26.4L33.6,27.7L32.0,28.9L29.3,30.0L26.8,30.5L24.8,30.4L22.3,29.8L20.4,29.0L18.4,27.5L16.4,25.2L15.5,23.5L14.7,21.1L14.6,19.1L14.4,18.8Z M108.4,24.8L108.1,24.9L107.6,25.8L106.4,26.9L104.4,28.0L103.7,28.1L103.3,28.4L102.0,28.5L99.2,28.5L98.8,28.2L97.8,27.9L96.1,27.0L94.1,25.0L93.3,23.6L92.5,20.9L92.0,19.6L91.7,19.3L91.6,18.6L91.0,17.4L89.0,14.6L86.7,12.6L84.5,11.3L82.6,10.5L81.7,10.4L81.0,10.2L80.0,10.0L76.8,10.0L73.0,10.9L72.2,11.3L71.3,11.6L69.9,12.4L67.2,14.8L65.6,17.1L65.4,17.7L65.1,17.9L64.5,19.2L64.2,20.0L63.7,20.5L63.5,20.5L63.0,19.8L62.9,19.1L62.7,18.8L62.4,18.7L62.4,19.2L62.7,19.5L62.9,20.0L63.5,23.1L63.1,28.6L62.7,30.6L62.4,31.4L61.6,33.9L61.3,34.3L61.3,34.8L60.6,35.9L60.6,36.1L60.1,37.2L58.5,39.7L56.1,42.5L54.5,43.9L54.2,44.3L54.2,44.6L54.5,45.0L56.7,46.0L58.9,47.7L60.8,49.5L61.9,51.0L63.2,52.2L63.7,52.2L65.5,50.4L67.0,48.5L69.0,46.8L70.1,46.3L71.0,45.7L71.9,45.5L72.5,45.0L72.5,44.4L70.1,42.0L67.7,38.9L67.5,38.2L67.2,38.1L67.1,37.6L66.7,37.3L66.7,37.6L67.2,38.2L67.3,38.7L67.8,39.2L68.5,40.6L71.7,44.5L71.0,45.2L69.5,45.9L66.8,47.9L65.2,49.9L63.7,51.2L63.0,51.2L60.7,48.9L60.5,48.5L57.8,46.0L57.1,45.8L56.2,45.2L55.9,45.1L55.3,44.6L55.2,44.4L57.7,41.6L60.1,38.3L60.1,38.1L60.5,37.4L62.0,34.4L62.1,33.8L62.6,32.5L62.7,31.7L63.1,30.8L63.1,30.4L63.4,29.9L63.6,29.9L64.0,30.3L64.4,32.2L64.7,32.8L65.5,35.2L66.6,37.1L66.6,36.7L66.1,36.0L66.0,35.1L65.2,33.5L65.2,33.1L64.5,31.0L64.5,29.9L64.0,28.0L63.9,23.3L64.5,20.7L65.2,18.8L65.8,17.8L66.1,17.1L67.3,15.5L69.1,13.7L72.1,11.9L72.6,11.8L74.2,11.1L78.1,10.5L79.8,10.6L80.3,10.8L81.8,11.0L83.6,11.5L86.5,13.2L88.5,15.0L90.3,17.1L91.6,19.9L92.3,22.0L92.3,22.4L92.7,23.1L92.9,23.8L93.2,24.1L93.3,24.5L93.6,24.9L94.2,26.0L95.1,27.0L97.2,28.4L99.9,29.2L101.6,29.3L103.1,29.1L104.4,28.7L106.5,27.4L108.4,25.4Z M36.0,16.8L36.0,17.0L36.5,16.7L36.8,15.9L39.1,13.4L39.3,13.4L40.0,12.7L41.5,11.7L44.0,10.7L44.3,10.4L44.8,10.4L45.6,10.1L46.4,10.1L47.7,9.8L50.0,9.8L51.1,10.1L51.9,10.1L52.7,10.4L53.8,10.6L54.3,11.0L55.2,11.2L56.9,12.2L58.3,13.3L60.1,14.9L60.4,15.6L61.6,17.0L61.8,17.7L62.2,18.0L62.0,17.2L61.3,15.9L59.8,14.0L56.8,11.4L55.7,11.1L54.0,10.2L53.4,10.1L52.7,9.7L51.5,9.6L50.7,9.3L47.2,9.3L45.5,9.6L45.3,9.8L44.2,10.0L43.7,10.3L42.3,10.8L42.0,11.1L40.6,11.8L38.1,13.9L37.0,15.2Z" fill="#000" fill-rule="evenodd"/>
</svg>