<svg xmlns="http://www.w3.org/2000/svg" viewBox="0 0 128 128" width="128" height="128">
  <path d="M14.4,120.2L15.4,120.2L15.0,120.0L14.7,120.0Z M10.3,120.2L11.5,120.2L11.2,119.9L10.7,119.9Z M16.9,120.2L19.1,120.2L18.9,120.0L18.4,119.8L17.5,119.8L17.1,120.0Z M20.6,120.2L22.8,120.2L22.5,119.9L21.8,119.7L21.3,119.7Z M54.0,72.5L53.5,72.9L53.6,77.9L53.4,80.7L53.2,91.7L53.0,94.0L52.7,94.3L52.1,94.3L43.5,94.3L40.1,94.1L39.6,94.5L39.5,95.0L39.7,95.5L42.4,97.9L44.7,100.2L49.3,105.2L57.3,113.3L58.1,114.3L60.4,116.5L61.4,117.7L62.8,119.0L63.6,119.1L64.5,118.4L65.9,116.8L69.0,113.6L69.7,113.1L71.5,111.1L74.9,107.8L76.3,106.1L77.9,104.6L78.1,104.5L78.7,103.8L81.9,100.6L82.1,100.3L84.5,98.0L85.5,96.8L86.9,95.6L87.1,95.0L87.1,94.7L86.9,94.5L86.3,94.3L70.4,94.4L61.4,94.2L60.9,93.7L60.9,87.4L61.1,80.6L61.6,80.2L72.3,80.3L72.6,80.1L72.6,79.9L72.8,79.7L72.8,73.1L72.6,72.8L72.1,72.5Z M53.9,49.3L53.7,49.7L53.7,57.4L53.8,57.6L54.1,57.8L63.5,57.8L66.9,57.9L86.1,57.9L86.8,58.0L87.4,58.5L87.5,71.7L87.3,93.6L87.6,94.1L88.0,94.1L88.5,93.8L89.9,92.3L91.2,91.2L94.6,87.5L98.6,83.8L101.9,80.1L105.9,76.2L106.1,75.8L107.2,74.9L107.4,74.6L113.5,68.5L114.8,67.0L117.6,64.4L117.8,64.0L117.8,63.7L117.5,63.1L116.1,61.8L114.7,60.3L111.2,56.9L110.5,56.0L107.1,52.8L107.1,52.5L106.0,51.4L103.9,49.4L103.1,49.1L89.4,49.0L79.6,49.2L78.3,49.0L77.1,49.2L63.6,49.1L54.4,49.2Z M24.6,49.1L23.6,49.7L23.2,50.3L22.6,50.7L21.8,51.7L14.4,59.0L10.7,62.9L10.4,63.4L10.4,63.8L10.6,64.4L12.4,66.1L13.8,67.6L13.8,67.8L23.9,78.4L25.4,80.2L25.8,80.8L28.5,83.5L29.0,84.2L30.1,85.3L30.6,86.0L32.7,87.9L33.7,89.2L36.2,91.6L38.0,93.7L38.4,93.9L38.9,93.9L39.3,93.5L39.4,90.2L39.4,65.7L39.6,61.4L39.5,56.0L39.6,53.1L39.6,50.0L39.3,49.3L38.9,49.2L37.8,49.0L32.0,49.1L26.0,49.0Z M39.3,34.1L39.3,34.4L39.7,34.7L42.4,34.8L52.8,34.8L54.3,34.9L55.2,34.8L62.5,34.8L74.5,34.7L88.0,34.8L88.4,34.7L88.7,34.4L88.7,34.1L86.2,31.5L85.3,30.6L85.3,30.3L84.6,29.9L80.1,25.1L76.7,21.9L76.0,21.0L69.9,14.8L69.8,14.6L68.4,13.3L67.4,12.2L64.9,9.7L64.7,9.4L64.1,9.1L63.8,9.1L63.2,9.5L63.0,9.9L57.0,15.7L56.8,16.1L45.6,27.4L45.5,27.7L40.0,33.1Z" fill="#000" fill-rule="evenodd"/>
</svg>