<svg xmlns="http://www.w3.org/2000/svg" viewBox="0 0 128 128" width="128" height="128">
  <path d="M77.6,89.6L77.3,90.1L77.1,94.3L77.1,107.5L77.4,107.9L77.8,107.9L85.1,108.0L90.8,108.3L94.1,108.3L94.7,108.0L95.0,107.6L95.2,94.5L95.1,90.3L94.5,89.7L93.0,89.6L89.9,89.6L78.5,89.4Z M54.6,89.6L54.5,90.6L54.6,93.0L54.4,94.4L54.3,107.0L54.5,107.4L55.4,107.6L58.0,107.7L59.4,107.6L64.5,107.8L71.4,107.8L71.9,107.6L72.3,106.8L72.3,95.5L72.4,91.6L72.3,89.7L72.0,89.5L71.5,89.3L66.5,89.1L63.6,89.2L57.6,89.1L55.2,89.1Z M32.0,88.9L31.8,89.2L31.6,90.1L31.6,97.9L31.5,99.4L31.5,106.5L31.6,107.0L32.5,107.3L35.6,107.3L37.8,107.4L40.1,107.4L41.3,107.5L48.8,107.5L49.2,107.4L49.5,107.1L49.7,103.6L49.6,89.4L48.7,89.0L47.5,88.9Z M77.9,66.7L77.6,67.1L77.5,67.7L77.5,73.3L77.3,79.5L77.3,84.1L77.4,84.4L77.8,84.7L80.5,84.9L94.3,85.1L95.0,84.8L95.2,84.6L95.4,82.9L95.3,80.3L95.5,78.1L95.5,67.4L95.0,66.9L94.1,66.7L86.9,66.5L78.4,66.5Z M55.2,66.3L55.0,66.5L54.8,67.0L54.8,72.5L54.6,82.7L54.7,84.1L55.1,84.4L56.6,84.6L63.0,84.6L64.5,84.7L72.2,84.6L72.5,83.9L72.5,78.3L72.7,74.3L72.6,73.0L72.8,70.2L72.7,67.0L72.2,66.5L71.8,66.4L63.9,66.4L59.0,66.2Z M101.0,44.0L100.6,44.5L100.5,48.0L100.5,53.0L100.3,54.9L100.3,61.5L100.6,61.9L101.1,62.1L106.9,62.3L115.4,62.3L116.6,62.5L117.4,62.5L118.1,62.3L118.5,61.8L118.6,60.1L118.6,53.1L118.8,45.7L118.7,44.9L118.5,44.3L118.0,44.1L115.3,44.0L108.1,44.0L101.4,43.8Z M78.2,43.8L77.9,44.3L77.9,46.1L77.8,47.7L77.8,55.9L77.6,60.1L77.8,61.3L78.3,61.7L81.3,61.9L84.6,61.8L91.1,62.0L94.8,62.0L95.2,61.9L95.6,61.5L95.7,60.9L95.6,58.7L95.9,50.1L95.9,45.4L95.8,44.4L95.6,44.1L95.2,43.8L93.1,43.7L78.8,43.6Z M101.1,21.1L100.8,21.6L100.7,23.5L100.8,25.9L100.6,38.4L100.9,38.9L101.4,39.1L103.9,39.3L113.1,39.3L114.3,39.4L116.4,39.4L118.3,39.3L118.7,38.9L118.9,36.9L118.9,21.5L118.7,21.2L118.1,21.1L101.4,20.9Z M78.4,20.7L78.1,21.2L78.0,24.2L78.1,38.4L78.7,38.8L80.0,38.9L88.8,38.9L90.6,39.1L94.8,39.1L95.2,39.0L95.9,38.5L96.1,26.6L96.0,21.5L95.9,21.1L95.2,20.7L93.6,20.6L78.8,20.6Z M33.0,20.1L32.6,20.4L32.5,20.9L32.3,42.2L32.0,42.8L31.7,42.9L28.8,43.0L21.7,42.8L18.7,42.8L13.0,42.7L10.3,42.8L9.8,43.0L9.5,43.6L9.5,47.0L9.3,49.2L9.3,60.1L9.3,60.3L10.0,60.8L15.8,61.0L30.3,61.0L31.0,61.1L31.6,61.4L32.0,61.9L32.0,62.9L31.9,67.0L31.9,76.4L31.7,80.9L31.8,83.5L32.4,84.1L32.6,84.2L36.9,84.3L49.2,84.4L49.7,84.1L49.8,82.5L50.0,67.0L50.2,65.1L50.1,63.1L50.2,62.0L50.6,61.6L51.0,61.5L53.5,61.4L58.1,61.5L68.0,61.5L69.6,61.7L72.1,61.6L72.5,61.5L72.7,61.3L72.9,60.3L73.1,45.8L73.0,44.3L72.8,43.8L72.4,43.5L72.0,43.4L58.2,43.3L56.3,43.2L51.7,43.2L50.7,42.9L50.3,42.4L50.3,35.4L50.6,23.6L50.4,20.7L50.0,20.2L48.6,20.1Z" fill="#000" fill-rule="evenodd"/>
</svg>