<svg xmlns="http://www.w3.org/2000/svg" viewBox="0 0 128 128" width="128" height="128">
  <path d="M93.7,65.4L91.9,65.8L90.9,66.2L89.9,66.8L89.0,67.5L88.0,68.8L87.0,70.6L86.7,72.6L87.0,73.9L87.7,75.5L88.4,76.5L89.9,77.9L90.7,78.3L91.9,78.8L93.4,79.1L94.8,79.1L96.6,78.8L97.8,78.3L98.6,77.6L98.8,77.3L99.6,76.5L100.4,74.9L100.8,73.9L100.8,71.3L100.5,69.9L99.7,68.3L98.1,66.7L96.5,65.9L94.8,65.4Z M46.6,59.0L43.5,58.9L42.8,59.2L41.7,59.8L40.7,60.6L39.5,62.5L39.1,64.7L38.8,82.7L38.2,84.5L37.4,85.6L36.9,85.8L36.1,85.8L35.2,85.6L34.7,85.1L34.7,84.8L35.1,84.1L35.1,83.5L34.8,83.0L34.5,82.8L34.0,82.8L33.7,83.0L33.4,83.3L33.1,84.0L33.1,84.5L33.4,85.3L34.1,86.2L35.8,87.4L38.2,88.5L40.7,88.9L42.3,88.9L44.0,88.6L45.0,88.1L45.3,88.1L46.9,87.0L49.0,84.9L49.9,83.2L50.5,81.5L50.7,79.7L51.0,70.3L51.0,65.1L50.8,63.8L50.2,62.0L49.7,61.1L49.0,60.4L47.7,59.5Z M75.5,57.8L74.0,58.3L73.3,58.8L73.0,58.9L72.2,59.5L71.3,60.7L70.5,62.5L70.2,63.7L70.2,65.6L70.4,66.4L71.7,68.7L73.5,70.4L74.6,70.8L76.1,71.2L77.9,71.3L79.2,71.0L80.5,70.4L81.4,69.9L82.7,68.6L83.3,67.7L83.9,66.1L84.1,65.3L84.1,64.2L83.8,62.6L83.3,61.3L82.7,60.3L82.0,59.5L81.0,58.7L79.7,58.1L78.3,57.6L76.5,57.6Z M56.9,55.7L55.8,57.0L55.8,57.2L55.4,57.6L54.9,58.8L54.5,60.0L54.1,64.9L54.0,74.6L54.5,77.9L55.0,79.2L55.1,80.1L55.5,81.0L55.5,81.2L57.0,84.1L58.9,86.7L61.3,89.0L64.1,91.1L68.0,93.0L70.3,93.7L72.2,94.1L76.7,94.2L79.6,93.7L80.0,93.5L82.2,92.9L85.1,91.5L87.8,89.8L90.5,87.1L90.8,86.6L90.7,85.8L90.5,85.5L88.4,84.7L87.0,83.8L86.7,83.7L85.5,82.9L83.3,80.8L81.8,78.5L81.4,77.3L80.7,75.8L80.2,75.1L79.8,74.8L79.2,74.8L79.0,74.9L78.8,75.2L78.8,75.7L79.3,76.3L79.8,76.6L80.1,77.0L80.2,78.3L80.0,79.0L79.1,80.3L78.1,81.2L76.8,82.0L75.9,82.3L74.4,82.7L73.0,82.7L71.7,82.4L69.8,81.7L68.3,80.8L67.6,80.1L66.3,78.0L65.7,76.2L65.5,74.8L65.5,71.8L65.7,70.7L65.8,67.5L66.0,67.1L66.0,64.0L66.1,63.3L66.0,60.0L65.7,58.6L65.0,57.4L64.7,56.7L64.0,55.9L62.5,55.0L61.1,54.7L58.9,54.9L58.1,55.1Z M90.9,37.3L90.7,36.1L90.2,35.2L89.4,34.3L89.0,34.1L88.5,34.0L88.2,34.1L87.6,34.7L87.6,35.4L87.9,35.9L88.9,36.0L89.3,36.3L89.5,36.6L89.4,37.6L88.9,38.1L88.3,38.5L86.4,38.9L81.4,38.9L76.6,38.7L73.1,38.8L66.6,38.7L64.0,38.7L57.1,38.6L40.3,38.7L38.8,38.5L38.2,38.7L37.8,39.2L37.8,43.0L38.2,44.9L39.1,46.9L40.3,47.9L41.4,48.6L42.7,49.1L44.4,49.5L48.3,49.7L63.8,49.7L64.8,49.8L67.5,49.8L68.5,49.7L76.0,49.7L80.1,49.6L80.7,49.4L81.4,49.4L82.4,49.1L83.2,49.0L84.1,48.7L84.8,48.3L85.4,48.1L86.8,47.2L88.7,45.5L90.0,43.3L90.7,41.4L91.0,40.0Z M66.1,9.2L61.6,9.3L61.1,9.5L58.6,9.6L56.5,10.0L55.1,10.0L53.5,10.5L51.8,10.7L51.0,11.0L49.4,11.3L45.3,12.7L43.3,13.6L42.6,13.8L41.5,14.5L39.1,15.6L37.4,16.7L34.6,18.4L32.5,19.9L30.7,21.0L26.4,24.8L22.7,28.6L19.2,33.2L19.0,33.6L16.8,36.8L14.0,42.4L12.7,45.3L12.4,46.6L11.8,47.9L11.7,48.6L11.3,49.2L11.1,50.3L10.9,50.8L10.6,52.5L10.3,53.5L9.7,56.5L9.7,57.6L9.5,58.5L9.2,60.7L9.1,65.9L9.6,71.6L10.2,75.4L11.3,79.6L12.2,82.6L13.1,84.6L13.8,86.6L15.7,90.3L16.1,90.8L17.4,93.3L19.0,95.5L19.1,95.8L20.2,97.4L21.0,98.4L21.9,99.5L24.3,102.0L24.6,102.5L26.6,104.3L27.6,105.1L28.5,106.1L28.8,106.2L30.1,107.4L31.2,108.3L32.1,108.7L33.4,109.8L34.5,110.4L35.4,111.1L35.7,111.2L38.1,112.6L39.3,113.1L39.5,113.3L43.7,115.2L44.2,115.3L46.5,116.2L50.1,117.2L52.3,117.8L55.4,118.4L56.1,118.4L58.6,118.8L60.0,118.8L61.3,118.9L67.5,118.9L72.4,118.4L75.6,117.8L82.2,115.9L88.5,113.3L88.9,113.0L90.2,112.4L91.6,111.4L92.0,111.4L94.9,109.4L95.9,108.8L100.4,105.4L104.0,101.7L104.7,101.2L109.4,95.7L110.6,94.1L110.9,93.4L111.8,92.3L114.3,87.5L114.9,85.4L115.8,83.6L116.2,82.1L116.6,80.4L117.2,78.5L117.7,76.0L117.9,75.7L118.0,74.3L118.9,68.9L119.0,60.1L118.8,58.9L118.4,54.3L117.3,48.4L116.3,45.7L115.9,45.2L112.4,43.1L110.6,42.2L109.5,41.5L108.8,41.3L108.6,41.0L101.3,36.9L100.0,36.5L99.7,36.7L99.8,37.3L100.5,38.2L100.6,38.5L101.5,39.7L102.8,41.9L104.8,46.0L106.0,49.0L107.4,53.8L107.4,54.3L107.8,56.3L108.3,60.5L108.3,66.4L108.0,68.9L107.8,70.1L107.8,71.0L107.1,74.1L105.9,78.3L105.4,79.2L104.8,81.0L104.0,82.5L104.0,82.7L103.6,83.3L103.0,84.7L102.3,85.8L102.1,86.3L100.1,89.5L96.9,93.4L93.6,96.8L90.2,99.5L89.8,99.6L89.3,100.1L85.0,102.7L80.2,105.0L75.8,106.5L74.7,106.6L73.7,107.0L72.7,107.0L71.7,107.4L67.3,107.9L60.5,107.8L55.8,107.3L55.2,107.0L54.1,106.9L53.3,106.5L52.2,106.4L51.5,106.1L49.5,105.6L48.9,105.2L47.4,104.8L44.9,103.7L41.7,101.8L41.2,101.7L38.5,99.9L34.2,96.3L31.3,93.3L28.2,89.5L27.5,88.4L27.1,87.5L25.5,85.2L25.3,84.5L25.0,84.1L24.0,81.9L22.3,77.3L21.0,72.0L20.7,68.9L20.4,67.7L20.4,62.8L20.6,62.0L20.6,60.3L21.2,56.2L21.9,53.6L22.8,50.7L23.3,49.3L23.6,48.3L25.3,44.8L25.4,44.3L25.9,43.7L26.5,42.4L27.5,40.7L28.5,39.4L29.2,38.3L31.2,35.8L35.5,31.5L37.8,29.6L40.9,27.4L43.1,26.1L46.7,24.3L49.9,23.1L50.1,23.1L50.3,22.9L55.4,21.6L57.6,21.3L58.5,21.0L62.1,20.8L62.9,20.6L66.4,20.6L70.9,21.1L75.6,22.1L78.3,22.9L80.1,23.7L80.5,23.7L83.6,25.1L84.4,25.6L84.6,25.6L87.1,27.1L87.6,27.2L89.8,28.8L90.6,29.5L91.1,29.8L91.9,30.3L93.8,31.3L95.1,31.7L96.8,31.9L97.7,31.8L98.6,31.5L99.9,30.5L101.4,28.5L101.9,26.8L102.0,25.4L101.5,23.7L101.0,22.8L100.0,21.8L98.8,20.8L93.4,17.1L90.9,15.8L90.6,15.5L90.2,15.4L89.7,15.0L87.7,14.1L81.9,11.8L81.3,11.8L81.0,11.6L80.7,11.6L79.9,11.3L77.3,10.6L75.8,10.5L74.6,10.1L72.6,10.0L70.8,9.6L67.9,9.5Z" fill="#000" fill-rule="evenodd"/>
</svg>