<svg xmlns="http://www.w3.org/2000/svg" viewBox="0 0 128 128" width="128" height="128">
  <path d="M10.4,88.9L11.1,89.4L12.5,89.6L28.5,89.6L34.3,89.9L38.4,89.8L41.2,89.3L43.3,88.5L44.8,87.7L46.0,86.7L48.3,84.5L48.6,83.9L49.5,83.0L51.4,80.2L52.0,79.7L52.4,78.8L53.7,77.3L54.0,76.5L55.7,74.3L56.6,72.8L57.1,72.3L58.6,69.7L60.1,67.5L60.2,67.2L61.6,65.1L62.2,64.3L64.6,60.4L65.7,59.0L66.5,58.1L67.3,57.9L73.4,57.9L78.6,58.1L84.1,57.8L86.3,58.1L89.4,58.0L90.9,57.6L91.6,57.6L94.5,56.7L96.7,55.6L98.7,53.8L99.4,52.8L99.9,51.7L100.2,49.5L100.2,48.3L99.7,46.4L99.4,45.7L98.2,44.4L96.5,43.2L95.0,42.5L94.4,42.4L93.5,42.0L91.8,41.5L91.2,41.5L87.5,40.9L85.9,40.9L83.7,40.5L62.9,40.6L44.5,40.4L39.2,40.5L35.4,40.4L27.5,40.8L26.7,41.3L24.3,43.7L22.0,46.3L21.4,46.9L19.2,49.9L18.2,51.8L17.9,52.2L17.5,53.1L17.1,53.5L16.8,54.2L15.5,56.4L14.9,57.9L14.7,58.6L13.5,61.0L12.8,62.9L12.2,65.1L12.0,65.5L11.7,66.5L11.4,66.9L10.4,70.5L10.2,72.0L9.9,73.1L9.8,74.3L9.6,74.9L9.6,75.7L9.3,76.7L9.4,84.1L9.8,86.1L9.9,87.3Z M109.1,23.8L106.4,21.4L103.1,19.5L99.4,17.8L97.3,17.1L96.6,17.0L96.4,16.8L91.8,15.8L90.6,15.7L88.7,15.3L86.1,15.0L79.9,14.9L75.7,15.3L74.4,15.6L73.7,15.6L71.3,16.1L69.6,16.6L66.0,17.3L65.4,17.7L64.3,17.9L61.2,19.1L59.7,19.6L56.3,21.0L54.7,21.5L53.0,22.4L52.6,22.7L52.2,22.8L50.1,23.8L44.6,27.0L44.0,27.5L42.5,28.3L41.8,28.9L41.0,29.3L40.0,30.1L38.7,30.9L38.3,31.3L37.0,32.1L32.9,35.7L33.0,36.3L34.1,36.6L37.5,36.7L52.2,36.7L65.7,36.5L73.6,36.8L94.0,36.7L95.4,36.9L97.1,36.7L98.1,36.7L99.8,37.0L100.8,37.0L102.9,37.4L104.3,38.0L107.8,39.8L109.5,41.3L111.3,43.6L112.5,46.1L112.9,47.8L112.8,51.0L112.5,52.4L111.7,54.7L110.6,56.3L109.8,57.1L106.6,59.5L104.0,60.7L101.8,61.5L96.8,62.2L90.3,62.2L89.4,62.0L88.1,62.2L79.1,62.0L76.4,62.2L76.0,62.3L75.4,63.0L75.4,63.2L74.9,63.8L74.5,64.6L73.9,65.3L73.1,66.6L71.9,68.1L70.4,70.8L69.8,71.5L69.6,72.0L69.0,72.6L68.3,73.9L67.8,74.4L67.1,75.8L66.3,77.0L65.8,77.9L64.2,80.2L64.0,80.6L63.6,81.1L63.4,81.7L63.0,81.9L61.8,83.9L59.3,87.0L58.1,88.3L55.6,90.2L54.0,90.8L53.4,91.2L52.9,91.3L52.6,91.6L50.7,92.2L49.6,92.4L49.3,92.5L45.3,93.1L41.1,93.4L27.3,93.3L21.0,93.5L19.9,93.3L14.4,93.3L13.0,93.5L12.5,93.7L12.2,94.1L12.4,95.0L13.9,98.0L14.4,98.5L15.0,99.8L15.6,100.5L15.9,101.1L19.6,105.0L22.1,107.1L23.2,107.6L23.5,107.9L25.6,109.2L30.0,111.2L32.7,111.9L34.6,112.5L36.1,112.7L37.2,113.1L39.4,113.1L40.4,113.3L46.5,113.4L47.4,113.2L50.1,113.2L52.6,113.1L54.6,112.7L55.4,112.7L57.0,112.3L57.5,112.3L63.3,110.7L64.0,110.4L65.8,109.9L66.7,109.5L68.9,108.7L69.1,108.5L70.4,108.2L70.5,108.0L70.8,108.0L76.4,105.4L78.7,104.0L79.7,103.6L80.0,103.3L82.2,102.2L85.5,100.0L86.0,99.8L86.5,99.3L88.7,97.8L91.2,95.7L91.6,95.5L92.6,94.7L93.0,94.2L94.3,93.3L96.9,90.9L97.3,90.6L97.8,90.0L101.2,86.5L102.3,85.2L103.7,83.7L103.8,83.5L105.0,82.2L105.5,81.3L106.0,80.8L106.6,80.0L106.9,79.7L107.1,79.2L109.8,75.6L110.0,75.1L110.7,74.0L110.8,73.6L112.6,70.5L113.0,69.7L113.7,68.5L115.1,65.6L115.1,65.3L115.9,63.6L116.0,62.9L116.5,62.2L116.8,60.7L117.9,57.4L118.1,55.4L118.4,54.2L118.4,53.7L118.9,52.8L119.0,44.9L118.3,40.4L118.0,39.9L117.8,39.0L116.4,34.5L115.3,31.8L113.0,28.1L110.7,25.5Z" fill="#000" fill-rule="evenodd"/>
</svg>