<svg xmlns="http://www.w3.org/2000/svg" viewBox="0 0 128 128" width="128" height="128">
  <path d="M31.6,53.6L31.3,54.0L31.2,55.0L31.2,70.5L31.5,79.8L31.4,115.8L31.6,117.7L31.8,118.0L32.2,118.0L33.6,118.0L34.5,118.1L54.3,118.0L72.0,118.3L74.7,118.2L75.1,117.7L75.2,117.0L75.4,95.4L75.1,73.4L75.2,69.1L75.0,66.8L75.1,56.6L74.9,55.8L74.9,54.5L74.5,54.1L73.4,53.9L69.9,53.9L66.8,53.7L63.4,53.8L60.8,53.6L50.4,53.5Z M10.6,53.5L9.9,54.0L9.9,109.7L10.0,115.6L10.0,117.5L10.1,117.9L10.5,118.0L27.1,118.0L27.6,117.5L27.7,113.1L27.6,82.8L27.4,78.4L27.5,72.4L27.4,65.4L27.2,63.4L27.2,54.0L26.6,53.5L25.8,53.4L14.7,53.4L12.1,53.6Z M31.9,31.4L31.5,31.9L31.4,33.5L31.3,48.1L31.5,48.7L31.6,48.8L36.4,48.8L39.9,49.0L57.0,48.9L62.0,49.1L78.2,49.0L78.5,49.1L79.0,49.6L79.2,56.1L79.2,78.0L79.4,86.1L79.3,90.0L79.5,95.3L79.4,117.7L79.8,118.2L81.1,118.4L97.0,118.4L97.3,118.1L97.4,117.6L97.5,107.0L97.3,105.1L97.5,89.1L97.3,81.3L97.3,72.9L97.1,68.1L97.1,58.0L96.8,47.8L96.8,38.0L96.7,33.9L96.4,32.0L96.3,31.8L94.9,31.6L85.2,31.5L69.1,31.6L54.6,31.4L42.3,31.5L40.5,31.3Z M10.1,31.2L9.9,31.6L10.0,36.1L10.0,42.4L9.9,43.0L9.9,46.8L10.0,48.8L10.7,49.1L11.7,49.2L24.7,49.2L26.9,48.8L27.4,48.2L27.4,31.8L26.6,31.3L25.6,31.2L21.8,31.3L19.8,31.1L13.6,31.0Z M10.3,9.7L10.0,10.0L10.0,13.3L10.0,26.0L10.5,26.4L10.9,26.5L15.9,26.7L26.1,26.6L31.2,26.8L36.1,26.7L38.3,26.9L51.3,26.9L64.2,27.2L74.3,27.2L77.6,27.4L100.0,27.4L100.5,27.5L101.1,28.0L101.3,37.1L101.1,49.3L101.2,117.8L101.3,118.0L101.8,118.5L102.7,118.6L117.5,118.8L118.1,118.5L118.3,118.1L118.2,116.5L118.4,115.8L118.4,110.9L118.2,110.0L118.2,101.9L118.3,99.2L118.5,98.0L118.2,95.4L118.4,93.1L118.3,84.1L118.5,83.2L118.5,74.9L118.3,73.7L118.2,66.7L118.4,62.6L118.4,43.0L118.1,10.7L117.5,10.0L100.3,9.6L59.0,9.7L31.5,9.5L26.4,9.6L21.6,9.4L11.5,9.5Z" fill="#000" fill-rule="evenodd"/>
</svg>