<svg xmlns="http://www.w3.org/2000/svg" viewBox="0 0 128 128" width="128" height="128">
  <path d="M11.9,9.5L11.7,9.7L11.9,27.8L11.8,43.4L11.9,46.3L12.2,46.7L13.9,46.9L28.5,46.9L35.2,47.2L39.3,47.0L44.0,47.2L48.0,47.1L51.3,47.3L67.5,47.3L74.0,47.5L75.4,47.4L80.3,47.8L80.6,48.1L80.8,54.8L80.7,58.7L80.9,61.0L80.7,64.3L80.8,68.0L80.5,76.5L80.5,80.4L80.4,80.8L79.9,81.1L77.7,81.2L71.9,81.1L47.5,81.2L40.4,81.1L15.4,81.1L12.7,81.3L12.2,82.0L12.2,83.2L12.2,92.5L12.3,96.3L12.3,117.6L13.0,118.0L24.8,118.1L29.1,118.3L48.9,118.3L56.9,118.5L85.6,118.6L94.6,118.8L105.6,118.8L110.0,118.9L116.5,118.8L116.7,118.0L116.7,110.7L116.4,93.2L116.4,75.5L116.2,75.0L116.4,69.9L116.4,60.1L116.2,58.3L116.2,56.8L116.4,56.0L116.2,53.6L116.3,45.9L116.1,42.4L116.2,24.1L116.1,10.7L115.8,9.8L115.5,9.5L114.9,9.4L54.3,9.5L49.8,9.3L12.3,9.3Z" fill="#000" fill-rule="evenodd"/>
</svg>