<svg xmlns="http://www.w3.org/2000/svg" viewBox="0 0 128 128" width="128" height="128">
  <path d="M36.7,20.5L35.8,21.2L35.6,21.7L35.6,25.9L35.7,27.8L36.0,28.6L36.0,30.3L36.6,33.5L37.0,34.4L37.5,36.9L37.9,37.7L38.9,41.6L39.5,43.5L40.4,45.4L40.6,46.0L40.8,46.3L41.0,46.8L43.7,52.0L46.2,55.8L49.3,59.7L49.4,60.2L48.9,60.6L48.3,60.6L46.9,60.2L45.9,60.2L44.2,60.0L36.1,59.7L33.9,59.7L33.3,59.9L31.6,59.9L27.3,60.5L23.5,61.4L21.4,62.1L21.1,62.1L18.2,63.0L16.9,63.7L14.8,64.5L11.7,66.1L9.3,67.9L9.3,72.3L9.6,73.3L10.2,77.9L10.5,78.9L11.2,82.2L11.4,82.7L12.1,85.2L12.3,85.6L12.5,86.5L13.2,88.5L13.9,89.8L14.1,90.7L14.8,91.8L15.6,93.7L16.7,95.4L16.8,95.7L18.1,97.9L19.4,99.6L20.1,100.7L22.6,103.8L27.0,108.4L28.8,109.9L29.3,110.1L32.2,112.7L35.1,114.5L36.0,114.5L39.6,112.6L43.7,109.9L44.5,109.1L44.7,109.0L46.9,107.2L49.7,104.5L52.4,101.6L53.0,100.8L53.9,99.9L57.9,94.1L58.3,93.2L58.7,92.7L60.4,89.8L61.2,87.8L62.7,85.1L63.3,83.6L63.6,83.3L63.8,83.3L64.1,83.6L64.4,84.6L65.6,86.9L66.6,89.4L67.2,90.3L67.3,90.8L68.5,92.9L70.4,95.6L71.5,97.6L71.8,97.8L74.0,100.8L76.2,103.1L83.2,109.4L85.8,111.2L86.9,111.8L87.3,112.3L87.8,112.4L88.5,112.9L91.6,114.7L92.6,114.7L94.0,113.7L94.4,113.7L96.9,111.8L98.6,110.4L99.1,110.1L100.7,108.7L104.2,105.2L106.0,103.2L107.2,101.5L107.8,100.8L110.6,96.7L111.0,95.9L112.2,93.8L112.8,92.3L113.5,91.1L114.5,88.7L114.8,88.4L115.4,86.3L116.1,84.8L116.4,83.7L116.6,83.3L117.0,81.7L117.5,80.5L117.8,78.9L118.2,77.5L118.3,76.4L118.6,75.2L119.1,70.9L119.1,68.8L119.0,68.4L118.5,67.9L116.5,66.9L115.9,66.4L115.6,66.4L115.1,65.9L113.7,65.4L112.9,64.9L112.4,64.8L111.8,64.5L110.3,64.0L109.0,63.2L107.3,62.6L106.6,62.6L105.8,62.2L105.2,62.1L104.4,61.8L102.5,61.4L101.5,61.1L100.1,60.8L99.4,60.6L94.5,59.8L93.5,59.8L92.9,59.7L91.5,59.7L89.8,59.6L88.8,59.6L88.3,59.7L83.4,59.9L82.5,60.1L78.9,60.2L78.1,60.4L77.6,60.3L77.6,59.9L81.7,54.4L83.5,51.3L83.6,50.8L84.5,49.2L84.7,48.6L85.0,48.2L85.1,47.7L85.4,47.3L86.1,45.4L86.5,44.8L86.6,44.3L87.2,43.2L88.0,41.0L88.8,38.3L88.9,37.7L89.3,36.4L89.3,36.0L89.6,35.5L89.6,35.1L90.4,31.8L90.7,29.2L90.7,28.3L90.9,27.8L91.0,25.3L91.1,24.0L91.1,21.8L91.0,21.0L90.6,20.5L86.9,18.6L86.7,18.6L85.2,18.0L84.8,18.0L83.2,17.2L81.5,16.7L81.1,16.7L80.4,16.3L79.8,16.2L78.6,15.7L77.9,15.7L77.3,15.4L74.3,14.8L74.0,14.6L70.1,13.8L68.9,13.8L68.1,13.6L66.2,13.5L60.2,13.5L57.2,13.8L56.7,14.0L55.2,14.1L51.3,14.9L50.5,15.2L48.5,15.7L47.9,16.0L47.0,16.1L45.6,16.7L45.1,16.7L44.7,17.0L43.4,17.3L42.2,18.0L40.2,18.6L39.9,18.9Z M68.7,71.4L69.0,71.2L70.1,71.1L74.1,71.2L79.5,72.1L80.5,72.5L83.5,73.1L87.2,74.2L89.2,74.6L90.4,75.1L92.1,75.6L92.5,75.9L94.2,76.3L95.8,77.0L97.3,77.4L98.4,78.3L98.2,79.3L97.5,81.6L96.9,82.8L96.7,83.1L95.9,84.8L94.2,87.9L92.4,90.3L91.4,91.4L91.2,91.7L90.0,92.8L89.3,92.9L87.6,91.9L86.3,90.8L84.8,89.8L84.6,89.5L84.3,89.3L81.7,87.1L77.4,83.0L73.0,78.1L72.4,77.0L70.5,74.8L69.8,73.6L69.5,73.2L68.7,71.8Z M58.5,71.0L58.5,71.6L58.3,72.2L56.0,75.6L54.2,77.5L52.2,80.1L48.9,83.4L46.7,85.2L45.1,86.7L43.4,87.9L42.7,88.6L41.8,89.3L40.6,89.9L39.0,91.1L37.5,91.9L37.0,91.8L36.5,91.3L35.6,90.3L34.8,89.0L33.2,86.9L31.3,83.2L31.3,83.0L30.8,82.2L29.6,78.8L29.6,77.9L30.3,77.0L31.5,76.4L32.1,76.4L32.7,76.0L33.5,75.9L34.1,75.5L36.0,75.0L36.5,74.7L38.6,74.2L40.0,73.7L40.5,73.7L41.2,73.4L41.9,73.3L42.4,73.1L44.0,72.8L45.0,72.5L45.9,72.4L46.2,72.2L48.4,71.8L49.2,71.8L49.5,71.6L51.1,71.4L52.2,71.4L53.2,71.2L55.5,71.1L56.4,70.9Z M69.3,32.4L71.6,32.9L72.1,33.2L72.5,33.8L72.6,35.5L72.2,37.6L72.1,39.0L71.4,41.8L71.4,42.2L70.9,43.3L70.7,44.7L70.5,45.2L70.2,46.7L69.9,47.3L69.7,48.3L69.4,49.0L68.9,51.1L68.6,51.5L68.1,53.4L67.5,55.2L67.3,55.4L67.0,56.5L66.1,58.5L65.8,59.3L65.1,60.7L64.9,61.3L64.0,62.6L63.7,62.8L63.3,62.8L62.4,61.8L61.5,59.9L61.4,59.5L61.1,59.1L61.0,58.7L60.6,58.0L60.5,57.3L60.3,57.1L60.2,56.7L59.5,55.2L59.4,54.5L59.0,54.0L58.6,52.5L58.0,51.0L57.0,47.9L57.0,47.6L56.7,47.3L55.1,40.9L54.2,35.1L54.2,33.9L54.7,33.4L55.6,33.0L60.8,32.1L67.0,32.1L68.3,32.4Z" fill="#000" fill-rule="evenodd"/>
</svg>