<svg xmlns="http://www.w3.org/2000/svg" viewBox="0 0 128 128" width="128" height="128">
  <path d="M64.4,23.6L60.8,23.8L59.5,24.1L57.3,24.2L55.6,24.7L55.1,24.7L49.6,26.2L49.1,26.4L48.1,26.7L47.9,26.9L45.7,27.6L45.0,28.0L44.3,28.2L42.6,29.1L41.2,29.6L39.8,30.5L38.0,31.4L34.9,33.4L34.3,33.9L33.1,34.7L31.5,36.0L28.5,39.1L25.2,43.2L22.7,47.0L20.6,50.9L20.1,52.5L19.8,53.7L19.0,55.7L18.4,58.9L18.0,62.0L17.9,65.9L18.6,71.0L19.1,72.3L19.6,74.6L19.9,75.1L20.1,75.8L22.1,79.9L22.6,80.5L24.3,83.4L25.7,84.9L27.3,86.5L28.9,87.8L32.1,89.2L34.0,89.5L36.2,89.5L37.8,89.1L39.6,88.5L43.9,86.4L44.9,85.6L45.5,85.4L47.8,83.8L50.8,81.3L54.7,77.8L59.0,73.5L62.9,69.2L63.8,67.9L65.6,65.9L67.4,63.4L69.7,60.6L69.8,60.1L70.3,59.7L70.4,59.3L72.2,56.8L73.4,54.8L74.0,54.0L74.4,53.2L74.8,52.8L75.4,51.7L75.6,51.2L76.1,50.5L76.5,49.7L77.4,48.3L78.6,45.8L80.0,43.4L83.0,36.7L83.5,35.9L83.9,35.9L84.5,36.3L87.0,38.7L89.6,42.0L91.7,46.2L92.1,47.7L92.8,49.1L93.6,51.8L94.5,56.7L94.5,57.9L94.7,58.5L94.8,59.7L94.7,64.6L94.2,66.5L94.0,68.4L93.7,69.6L93.6,70.4L92.7,72.8L92.1,73.8L89.6,76.7L87.1,78.7L85.6,79.3L85.2,79.7L82.1,80.8L78.9,81.7L77.5,81.8L76.1,82.1L71.5,82.4L68.1,82.9L65.0,84.1L63.5,85.1L61.4,87.2L60.0,89.6L59.9,90.3L59.6,91.0L59.3,92.9L59.4,98.1L59.8,99.1L60.8,100.1L61.2,100.3L62.1,100.3L62.7,100.1L63.7,98.9L64.0,97.5L64.2,94.4L64.5,93.7L65.0,93.2L65.4,93.1L66.0,93.2L66.6,93.7L67.1,94.8L67.5,97.0L67.4,100.7L67.0,102.6L66.6,103.7L66.0,104.6L65.3,105.2L65.4,105.7L66.6,105.5L68.8,104.5L70.6,102.9L71.7,100.8L72.1,98.0L72.1,96.6L71.8,94.4L70.8,92.6L70.3,92.1L69.2,91.2L68.1,90.9L66.2,90.9L65.5,91.1L64.8,91.4L64.3,91.4L64.0,91.1L64.1,89.0L64.5,87.6L65.0,86.5L65.9,85.4L66.6,84.9L68.7,84.0L70.5,83.9L72.7,83.9L77.1,84.3L77.5,84.5L80.2,84.8L80.9,84.9L81.7,84.9L82.6,85.2L88.1,85.6L88.9,85.8L92.2,85.8L93.6,85.5L96.0,85.3L96.3,85.1L97.6,84.9L98.5,84.4L99.4,84.2L101.3,83.3L103.0,82.2L105.6,79.7L107.3,77.4L108.5,75.2L109.5,72.4L110.3,68.9L110.4,67.4L110.6,67.1L110.6,61.9L110.6,60.5L110.0,57.2L108.9,53.1L107.3,48.7L105.7,45.7L104.2,43.1L101.8,39.9L98.5,36.4L95.6,33.8L93.1,32.1L91.5,31.1L91.1,31.0L89.2,29.7L87.8,29.2L86.5,28.4L86.3,28.4L85.1,27.9L84.5,27.5L82.3,26.6L81.3,26.4L78.5,25.4L76.4,24.9L75.4,24.8L74.0,24.3L68.9,23.7Z M79.6,32.9L79.7,33.4L79.4,34.2L79.0,34.8L78.5,36.0L78.1,36.5L76.1,40.3L75.5,41.1L74.6,42.9L72.7,45.9L68.2,52.0L64.4,56.5L60.4,60.5L55.9,64.4L55.2,64.8L52.8,66.8L45.4,71.6L42.5,73.0L40.1,73.7L36.2,73.8L33.4,73.1L31.0,71.6L29.2,69.5L28.0,67.4L27.3,65.6L26.7,62.3L26.7,57.4L27.1,54.1L28.0,50.6L28.8,48.5L30.3,45.2L31.7,43.3L32.2,42.3L34.1,40.0L37.2,36.9L39.9,34.7L42.9,32.8L45.1,31.7L45.8,31.5L47.0,30.8L47.8,30.6L49.8,29.7L50.8,29.5L53.1,28.7L54.1,28.6L55.2,28.3L59.1,27.7L63.5,27.7L64.1,27.9L66.6,28.1L67.7,28.4L68.8,28.4L70.2,28.9L71.1,29.0L71.9,29.4L73.1,29.5L73.5,29.8L74.3,30.0L76.0,30.9L77.1,31.3L78.5,32.0Z M116.7,10.5L115.9,10.2L108.8,10.3L107.9,10.5L98.0,10.5L97.0,10.6L90.7,10.6L78.1,11.0L77.1,10.9L75.8,11.1L67.3,11.2L66.2,11.4L56.9,11.5L52.9,11.7L50.3,11.6L48.5,11.8L45.0,11.9L36.6,11.9L26.8,12.3L25.3,12.2L17.9,12.5L16.4,12.4L15.7,12.6L10.6,12.7L10.1,12.7L9.7,13.1L9.3,17.0L9.5,28.0L9.5,42.0L9.8,48.9L9.8,58.4L10.0,60.6L10.1,76.1L10.3,77.6L10.2,81.4L10.6,94.5L10.5,96.8L10.7,97.5L10.8,106.5L11.0,109.4L10.9,112.1L11.1,112.9L11.1,117.4L11.4,117.9L11.9,118.1L12.9,118.1L15.2,117.8L19.2,117.6L21.8,117.7L26.1,117.4L31.1,117.5L34.2,117.4L40.3,117.4L42.6,117.3L43.6,117.1L55.1,116.9L58.3,116.7L65.2,116.6L67.5,116.4L68.4,116.5L70.6,116.3L81.3,116.3L82.6,116.1L85.1,116.3L93.8,115.9L99.4,115.9L104.9,115.7L108.0,115.8L112.0,115.4L117.3,115.4L118.2,115.3L118.8,115.1L119.0,114.6L119.0,100.5L118.8,97.5L118.9,95.0L118.7,94.1L118.5,89.5L118.6,85.4L118.4,82.6L118.4,79.0L118.6,76.9L118.5,72.5L118.3,71.3L118.3,61.2L118.1,60.1L118.1,56.8L117.9,54.3L117.9,48.4L117.8,40.6L117.5,35.5L116.9,10.9Z M43.5,108.9L43.7,109.0L43.8,109.3L43.7,109.5L43.4,109.6L43.2,109.2Z M63.5,19.6L68.8,19.6L69.7,19.8L71.9,19.9L73.3,20.2L75.0,20.3L76.4,20.8L77.4,20.9L79.6,21.4L85.8,23.6L91.2,26.2L96.6,29.5L100.4,32.6L103.1,35.0L104.8,36.8L108.5,42.0L111.5,47.3L113.7,52.7L114.5,55.7L115.1,59.5L115.4,63.1L115.3,67.1L114.8,71.6L114.2,73.4L114.1,74.4L113.5,76.1L113.3,77.0L112.9,77.7L112.7,78.6L112.2,79.6L111.9,80.6L111.5,81.2L110.7,82.9L109.2,85.3L109.0,85.9L107.4,88.0L107.1,88.7L105.6,90.6L104.9,91.3L104.6,91.9L100.7,96.0L99.9,96.5L98.3,98.1L94.4,100.9L91.9,102.5L91.7,102.5L89.3,103.8L87.8,104.4L86.7,105.0L85.5,105.3L84.3,106.0L78.7,107.9L72.5,109.2L68.2,109.7L62.4,109.8L59.4,109.6L58.9,109.4L53.7,108.8L51.8,108.2L51.2,108.2L50.0,107.9L49.2,107.8L47.8,107.2L47.1,107.1L46.4,106.8L45.6,106.6L41.1,104.7L40.6,104.3L37.2,102.6L31.8,99.0L31.5,98.6L31.0,98.4L28.9,96.6L25.7,93.4L22.5,89.6L20.2,86.5L19.5,85.2L19.2,84.9L17.5,81.8L17.4,81.3L15.5,77.3L15.3,76.2L15.0,75.7L14.1,72.5L13.2,67.6L13.2,63.2L13.6,58.6L14.6,54.2L15.0,53.5L15.8,50.4L16.9,48.1L17.0,47.6L18.6,44.9L18.7,44.5L19.6,43.4L19.7,43.1L21.1,41.0L23.7,37.9L28.0,33.5L31.2,31.0L31.4,30.7L31.6,30.7L36.0,27.7L38.3,26.4L44.2,23.6L47.4,22.5L48.0,22.1L49.4,22.0L50.3,21.6L51.1,21.5L54.5,20.6L55.7,20.5L57.4,20.1L59.9,20.0Z" fill="#000" fill-rule="evenodd"/>
</svg>