<svg xmlns="http://www.w3.org/2000/svg" viewBox="0 0 128 128" width="128" height="128">
  <path d="M18.2,52.6L18.8,55.4L19.9,56.0L23.8,56.0L25.4,54.8L27.1,52.6L28.2,52.6L29.9,51.5L34.3,51.5L35.4,52.1L37.6,54.3L38.2,56.5L38.2,58.7L36.5,63.2L24.9,74.8L20.4,78.1L19.3,79.8L18.8,81.5L18.8,83.1L21.0,85.4L25.4,86.5L34.9,86.5L41.5,85.9L43.2,85.4L44.3,84.3L44.9,83.1L44.3,80.9L42.1,79.8L35.4,79.8L32.1,78.7L32.1,77.6L33.8,75.4L37.6,72.0L38.8,70.4L42.1,67.1L43.7,64.8L44.9,62.6L45.4,60.4L45.4,58.7L46.0,56.5L46.5,55.4L49.9,54.8L51.5,56.0L54.8,56.0L56.0,55.4L58.7,52.6L62.1,51.0L64.8,51.0L66.5,51.5L68.2,52.6L69.3,53.7L69.8,54.8L69.8,58.2L69.3,60.9L67.1,64.3L61.5,69.8L57.1,73.2L56.0,74.8L52.6,77.0L52.1,78.7L50.4,80.4L50.4,82.0L53.2,84.8L54.3,85.4L60.9,85.9L72.0,85.9L74.8,85.4L77.0,83.1L77.0,81.5L75.4,79.8L73.7,79.3L68.2,79.3L66.5,78.7L64.8,77.0L64.8,75.4L72.6,68.2L75.4,63.7L78.7,60.4L80.4,60.4L81.5,61.5L82.6,63.7L82.6,64.8L83.7,66.5L86.5,69.3L89.8,70.9L92.0,71.5L99.8,70.9L102.0,71.5L103.1,72.6L103.1,74.3L98.1,79.3L97.0,79.8L95.4,79.8L92.0,78.7L90.9,78.1L89.8,77.0L87.6,75.9L84.3,75.9L83.1,77.0L83.1,80.4L87.0,84.8L88.7,85.9L90.9,86.5L96.5,86.5L102.0,85.4L104.8,83.7L107.0,81.5L109.2,77.6L111.4,68.7L111.4,58.7L110.9,54.8L109.8,51.5L109.2,50.4L106.4,47.1L103.1,44.9L100.9,43.7L90.9,43.7L89.8,44.9L88.1,45.4L86.5,46.5L84.8,48.2L81.5,52.6L79.3,52.6L77.0,50.4L75.9,48.2L74.8,47.1L72.6,45.4L70.4,44.3L68.2,43.7L59.8,43.7L58.2,44.3L54.8,46.0L53.7,47.1L52.6,48.7L47.1,53.2L45.4,51.5L43.7,48.7L41.5,46.5L39.3,45.4L35.4,44.3L29.9,44.3L23.8,46.0L22.7,46.5L20.4,48.7Z M94.8,50.4L97.6,50.4L101.5,53.2L102.6,54.3L103.1,56.0L103.1,58.7L101.5,62.1L99.2,64.3L98.1,64.8L94.8,64.8L92.0,63.7L90.4,62.1L88.7,59.3L88.7,57.6L90.4,53.7L92.0,52.1L93.7,51.0L94.2,51.0Z" fill="#000" fill-rule="evenodd"/>
</svg>