<svg xmlns="http://www.w3.org/2000/svg" viewBox="0 0 128 128" width="128" height="128">
  <path d="M24.6,45.1L23.5,45.7L18.6,50.1L18.1,51.2L18.6,55.0L19.7,55.5L23.0,55.5L24.1,55.0L26.8,52.2L27.9,51.7L30.1,51.2L32.3,51.2L35.0,52.2L36.7,53.9L37.2,55.0L37.2,58.8L36.7,60.4L35.6,62.1L34.5,63.2L34.5,64.3L19.7,78.5L18.6,81.2L18.6,82.3L21.3,85.1L41.6,85.1L43.8,84.0L43.8,82.3L41.0,79.0L35.0,79.0L32.3,78.5L31.2,77.4L31.2,76.3L33.4,74.1L38.3,70.3L41.0,67.0L44.3,62.1L44.9,61.0L45.4,58.8L45.4,53.3L44.9,51.7L43.8,49.5L39.9,45.7L37.2,44.6L35.0,44.0L28.5,44.0Z M109.4,49.0L105.6,45.1L101.7,43.5L95.2,43.5L91.9,44.6L89.7,45.7L85.3,49.5L84.2,52.2L83.1,53.3L82.0,55.5L81.5,58.3L81.5,61.5L80.4,63.7L77.1,63.7L75.5,62.6L74.4,61.5L72.2,60.4L68.4,59.4L62.9,59.9L60.2,59.9L58.5,58.3L58.5,56.1L61.3,52.8L63.5,51.7L67.8,51.7L69.5,53.3L72.7,55.0L76.6,55.0L77.7,54.4L78.2,51.7L77.1,49.0L74.9,46.8L72.2,45.1L70.6,44.6L67.3,44.0L62.4,44.0L58.0,45.7L55.8,47.3L53.1,50.1L50.9,54.4L50.9,55.5L49.8,57.2L49.2,60.4L49.2,71.9L50.3,77.4L52.0,80.7L55.3,84.0L58.5,85.6L60.2,86.1L69.5,86.1L73.8,84.5L77.7,80.7L78.2,79.0L79.9,77.4L82.6,77.4L84.2,79.0L85.3,81.2L88.1,84.0L90.2,85.1L95.2,86.1L98.4,86.1L103.4,85.1L105.6,84.0L107.2,82.9L108.8,81.2L109.9,79.0L109.9,77.9L111.0,76.8L111.6,75.2L111.6,69.2L111.0,67.0L109.9,64.8L108.8,63.2L106.7,61.0L104.5,59.9L101.2,58.8L93.5,59.4L92.4,58.8L90.8,57.2L90.8,55.5L94.6,51.7L97.4,50.6L98.4,50.6L101.2,51.7L102.8,53.3L105.0,54.4L108.8,54.4L109.9,53.3L109.9,50.1Z M94.6,65.4L99.5,65.4L101.2,67.0L102.8,69.7L102.8,75.8L102.3,76.8L100.6,78.5L99.5,79.0L94.1,79.0L91.3,76.3L90.2,73.6L90.2,70.8L90.8,68.6L93.5,65.9L94.1,65.9Z M63.5,65.4L66.2,65.4L68.4,66.5L70.6,68.6L71.1,70.3L71.1,74.7L70.6,76.3L68.4,78.5L67.3,79.0L65.1,79.6L62.9,79.6L61.3,79.0L58.5,75.8L58.0,73.6L58.0,70.8L58.5,69.2L61.3,66.5L62.9,65.9Z" fill="#000" fill-rule="evenodd"/>
</svg>