<svg xmlns="http://www.w3.org/2000/svg" viewBox="0 0 128 128" width="128" height="128">
  <path d="M17.9,52.7L17.9,55.9L18.5,57.5L19.5,58.6L19.5,59.7L21.7,62.9L21.7,65.6L19.5,67.8L17.9,71.0L17.9,77.5L19.5,80.7L22.2,83.4L24.9,85.0L28.2,86.1L35.7,86.1L40.0,85.0L43.3,82.9L48.6,78.0L50.3,79.1L51.3,80.2L52.4,81.8L55.1,83.9L57.3,85.0L58.9,85.6L70.2,85.6L72.4,85.0L75.6,82.9L76.7,81.8L78.3,79.1L79.9,77.5L82.6,78.0L83.7,79.6L84.2,81.2L85.8,82.9L89.6,85.0L91.8,85.6L102.0,85.6L107.4,83.9L110.1,80.7L111.2,78.0L111.7,75.9L111.7,72.6L111.2,69.9L110.6,68.9L107.4,65.6L106.8,64.5L106.8,63.5L107.4,62.4L109.0,60.8L110.1,58.6L110.6,56.5L110.6,53.2L110.1,50.5L107.9,47.3L106.3,46.2L104.2,45.1L103.1,45.1L101.5,44.1L99.3,43.5L95.5,43.5L89.6,45.1L88.5,45.7L83.7,51.1L83.1,53.2L83.1,58.1L84.7,60.8L86.4,62.4L86.4,65.6L83.7,68.3L82.6,70.5L82.6,72.1L81.0,73.2L79.9,72.1L77.7,68.3L75.0,65.6L75.0,62.4L76.7,60.8L77.7,58.6L78.3,56.5L78.3,52.7L76.1,48.4L74.0,46.2L72.4,45.1L69.1,44.1L63.2,43.5L58.9,44.1L57.3,44.6L54.6,46.2L52.4,48.4L50.8,50.5L50.3,53.2L50.3,56.5L50.8,58.1L52.4,61.3L54.0,62.9L54.0,65.1L50.8,68.3L50.3,69.9L49.2,71.0L48.1,71.0L42.7,66.2L42.2,63.5L44.3,61.3L45.4,58.6L46.5,57.5L47.0,55.9L47.0,53.8L42.7,47.3L41.1,46.2L39.5,45.7L38.4,44.6L36.2,44.1L27.6,44.1L26.0,45.1L24.9,45.1L23.8,45.7L21.7,47.3L20.1,48.9L19.0,51.6Z M90.7,71.5L93.9,68.3L99.3,68.3L100.4,68.9L103.1,71.5L103.6,72.6L103.6,75.9L103.1,76.9L101.5,78.6L98.8,79.6L95.0,79.6L92.8,78.6L90.7,76.4L90.1,75.3L90.1,73.2Z M28.2,69.4L29.8,68.9L30.3,68.3L34.1,68.3L35.7,68.9L38.4,71.0L38.9,75.3L37.9,77.5L35.7,79.6L29.2,79.6L28.2,79.1L27.1,78.0L25.5,75.3L25.5,72.6L26.0,71.5Z M61.0,68.3L62.7,67.8L65.3,67.8L67.0,68.9L68.0,68.9L69.1,69.4L71.3,71.5L71.3,74.8L70.7,76.4L68.6,78.6L66.4,79.6L63.2,79.6L60.5,78.6L58.9,76.9L57.3,74.2L57.3,73.2L57.8,71.5Z M61.0,51.1L61.6,51.1L62.1,50.5L65.9,50.5L67.5,51.1L70.2,53.8L70.7,54.8L70.7,56.5L70.2,57.5L67.5,60.2L65.9,60.8L63.7,60.8L61.6,60.2L59.4,58.6L58.3,56.5L58.3,54.3L58.9,53.2Z M29.2,51.1L30.9,50.5L34.1,50.5L35.7,51.1L38.4,53.8L38.4,56.5L37.9,58.1L35.7,60.2L34.1,61.3L31.9,61.3L28.2,60.2L27.1,59.1L26.0,57.0L26.0,54.8L26.5,53.8Z M92.8,51.6L94.5,50.5L95.0,50.5L95.5,50.0L98.2,50.0L99.3,50.5L102.5,53.8L103.1,54.8L103.1,57.0L99.8,60.2L93.9,60.2L91.2,57.5L91.2,53.8L91.8,52.7Z" fill="#000" fill-rule="evenodd"/>
</svg>