<svg xmlns="http://www.w3.org/2000/svg" viewBox="0 0 128 128" width="128" height="128">
  <path d="M65.4,61.8L64.8,62.1L63.9,62.9L63.5,64.0L63.5,65.0L64.0,66.2L64.9,67.0L65.7,67.2L66.9,67.2L67.5,66.9L68.5,65.9L68.9,64.6L68.8,63.7L68.3,62.7L67.4,62.0L66.9,61.8Z M70.3,54.5L69.6,55.4L69.3,56.7L69.3,57.3L69.6,58.1L71.0,59.2L71.4,59.3L72.9,59.2L73.3,59.1L74.1,58.4L74.6,57.2L74.6,56.2L74.1,55.1L73.5,54.6L72.6,54.2L71.1,54.2Z M59.5,54.2L58.4,54.7L57.8,55.4L57.5,56.3L57.5,57.5L57.8,58.1L58.9,59.2L59.9,59.5L60.6,59.5L61.6,59.2L62.2,58.7L62.7,57.5L62.7,56.3L62.3,55.3L61.6,54.7L60.6,54.3Z M74.5,49.3L73.9,49.1L72.4,49.1L72.1,48.9L71.2,48.9L70.8,49.1L69.9,49.2L68.1,50.0L66.7,51.1L66.2,51.4L65.4,51.2L64.6,50.6L63.5,49.9L61.6,49.4L59.1,49.3L58.4,49.6L57.8,49.6L56.8,50.0L56.0,50.6L55.4,50.8L53.9,52.5L53.0,54.4L52.6,56.3L52.6,57.8L53.0,59.4L53.8,61.5L54.9,63.0L55.8,64.3L56.2,64.7L59.0,68.2L62.7,71.7L64.4,72.8L65.4,73.4L66.4,73.5L66.8,73.3L68.4,72.0L69.2,71.7L69.8,71.3L74.1,67.1L75.9,65.0L76.9,63.4L77.7,62.5L78.8,60.4L79.1,59.0L79.4,58.4L79.6,57.2L79.4,55.2L78.8,53.0L78.1,52.0L76.8,50.6Z M74.9,51.8L75.8,52.6L76.6,53.7L77.1,54.9L77.4,55.9L77.4,57.2L77.1,58.3L76.0,61.0L74.8,63.1L74.3,63.5L72.4,65.9L70.3,68.0L66.8,70.9L65.9,71.0L64.5,69.7L62.5,68.3L60.4,66.4L58.1,64.0L55.9,61.1L55.4,60.0L54.8,57.8L54.8,56.0L54.9,55.2L55.4,54.4L55.5,53.9L56.8,52.5L57.8,51.7L59.8,51.3L60.8,51.3L62.2,51.6L63.1,52.2L65.7,54.6L66.2,54.6L67.4,53.5L68.2,52.4L69.1,51.8L69.8,51.6L70.4,51.3L72.2,51.1L73.0,51.2Z M75.9,14.2L72.1,12.5L68.3,11.7L65.4,11.5L62.2,11.9L61.4,12.3L58.8,12.9L56.8,13.7L55.5,14.5L54.9,14.7L53.0,16.1L51.9,17.1L50.7,18.5L49.8,19.3L49.1,20.6L48.4,21.3L46.7,24.7L46.3,25.3L45.3,27.2L44.6,28.0L44.3,29.0L42.9,31.2L42.2,32.8L41.6,33.4L41.4,34.2L40.1,36.2L39.7,37.2L39.4,37.6L36.7,42.6L34.9,45.5L33.3,48.7L32.9,49.3L32.3,50.5L31.9,50.8L31.6,51.7L30.0,54.4L29.7,55.2L29.3,55.5L27.1,59.9L24.3,64.6L22.9,67.5L22.0,68.8L21.3,70.3L21.0,70.6L20.1,72.4L19.6,72.9L19.3,73.8L18.6,74.7L18.1,75.9L15.9,79.6L15.9,79.9L15.4,80.6L14.7,82.1L14.2,82.6L12.8,85.4L12.5,85.9L12.1,87.0L11.7,87.9L11.1,89.4L10.8,89.9L9.5,94.2L9.4,96.3L9.5,99.5L9.9,100.5L9.9,101.6L10.2,102.6L10.9,104.4L12.0,106.4L12.5,107.6L13.6,109.0L16.6,112.0L16.9,112.2L17.7,113.0L19.3,113.8L19.5,114.1L20.1,114.3L21.3,115.0L22.9,115.7L24.0,115.8L25.0,116.2L27.4,116.6L27.8,116.7L31.4,116.7L32.7,116.6L33.4,116.3L34.6,116.2L35.7,115.7L37.1,115.2L39.4,114.1L42.0,112.5L44.1,110.6L45.8,108.1L46.6,107.1L48.0,104.4L48.6,102.4L50.1,99.6L52.5,96.7L55.5,94.5L56.3,94.0L58.8,92.9L60.3,92.6L61.4,92.5L62.3,92.1L65.0,92.1L65.9,92.4L67.5,92.5L68.2,92.7L68.5,92.9L69.6,93.1L71.4,93.8L73.6,95.1L75.8,97.1L76.9,98.6L77.9,99.7L79.1,101.8L80.6,105.2L81.7,107.1L82.0,107.9L82.4,108.2L82.6,108.7L84.2,110.5L86.5,112.7L87.4,113.2L87.7,113.3L88.2,113.8L88.9,114.0L90.3,114.9L93.1,115.9L94.0,116.0L94.5,116.3L95.4,116.5L100.4,116.7L103.7,116.0L107.6,114.7L110.9,112.6L112.8,110.9L115.1,108.4L116.4,106.1L117.6,103.6L118.4,101.4L118.6,99.6L118.9,98.6L118.9,94.7L118.6,93.5L118.4,91.6L117.9,89.9L117.6,89.5L117.5,88.9L117.0,87.7L116.7,87.4L116.5,86.8L115.3,84.7L115.0,83.6L113.5,80.7L111.1,76.4L110.9,75.6L110.6,75.4L107.9,69.7L106.6,67.4L106.4,66.7L106.0,66.2L105.9,65.8L103.4,60.6L102.0,58.3L101.9,57.9L100.6,55.4L99.0,52.4L98.9,51.7L98.0,50.3L97.0,47.8L96.1,46.3L95.5,44.9L95.0,44.2L94.7,43.3L94.0,42.2L92.8,39.8L92.4,39.3L92.3,38.9L89.8,34.0L89.4,33.0L89.0,32.4L88.7,31.5L87.8,30.2L84.9,24.2L82.3,19.9L81.5,19.0L81.4,18.8L78.8,16.1Z M65.2,41.8L67.6,41.9L68.3,42.0L69.7,42.1L70.4,42.3L70.9,42.6L72.1,42.9L73.8,43.7L74.2,43.8L76.2,44.8L78.6,46.7L80.3,48.6L82.6,51.9L83.3,53.8L83.3,54.3L83.8,56.4L83.9,57.5L84.1,58.0L84.2,61.1L83.9,63.1L82.8,66.0L82.6,67.1L81.5,69.1L81.3,69.8L80.6,70.9L78.4,73.2L77.9,73.5L76.6,74.8L74.8,75.9L71.2,77.4L70.2,77.7L68.4,77.8L68.1,78.0L63.9,78.1L61.2,77.5L58.7,76.5L58.4,76.5L54.5,74.2L51.6,71.2L49.7,68.3L49.2,67.3L48.2,64.0L47.9,61.2L48.1,57.4L48.4,55.2L49.0,54.1L49.0,53.8L49.9,51.5L50.8,49.9L51.5,49.2L52.2,48.1L55.1,45.3L58.0,43.6L58.6,43.5L60.7,42.6L61.8,42.5L63.3,42.0Z" fill="#000" fill-rule="evenodd"/>
</svg>