<svg xmlns="http://www.w3.org/2000/svg" viewBox="0 0 128 128" width="128" height="128">
  <path d="M55.1,11.6L54.4,12.2L52.7,13.1L50.2,15.2L48.2,17.4L46.3,20.2L45.2,22.4L44.3,24.6L43.8,25.5L43.4,26.7L42.8,27.6L41.3,31.2L40.2,33.2L40.0,34.0L39.1,35.6L38.5,37.2L37.6,38.8L37.5,39.3L37.0,40.0L36.8,40.7L35.4,43.5L35.3,44.0L33.6,47.4L33.5,47.8L33.2,48.3L33.1,48.8L31.8,51.7L30.0,55.1L27.2,61.3L26.6,62.3L26.4,63.2L25.0,65.9L24.3,67.6L23.0,70.1L22.8,70.9L22.3,71.6L22.3,72.1L21.8,72.7L21.8,72.9L20.9,74.9L19.1,78.4L17.3,82.6L16.9,83.2L16.8,83.8L16.2,84.5L16.2,84.8L15.8,85.5L15.1,87.3L13.8,89.8L13.6,90.5L13.0,91.6L12.5,93.0L11.5,94.8L11.2,96.2L10.4,98.0L9.9,100.1L9.8,101.6L9.8,104.1L9.9,105.1L10.2,105.7L10.3,106.6L11.2,109.2L11.6,110.0L13.5,112.9L15.5,114.9L16.1,115.3L17.4,116.3L19.8,117.5L20.7,117.7L21.7,118.1L23.6,118.5L25.7,118.7L33.5,118.8L35.9,118.7L49.7,119.0L51.7,118.8L58.3,118.7L61.5,118.2L64.2,117.3L67.0,115.7L69.8,113.2L70.8,111.7L71.4,111.0L72.3,109.1L72.9,107.4L73.4,105.8L73.7,103.7L73.4,91.6L73.4,46.2L73.6,39.1L73.4,38.2L72.7,37.6L72.0,37.4L64.7,37.3L60.8,37.3L59.9,37.6L59.5,38.0L59.2,38.7L59.3,55.6L59.5,61.9L59.4,64.5L59.7,74.7L59.6,76.3L59.9,83.4L59.8,88.5L60.0,98.6L59.9,101.7L59.6,102.9L58.7,103.8L57.5,104.5L55.0,105.1L29.1,105.0L27.8,104.8L25.5,104.8L24.6,104.4L23.6,103.3L23.5,103.0L23.5,102.1L23.7,101.2L25.4,97.3L27.0,94.3L27.7,92.1L29.1,89.7L29.7,88.0L30.5,86.6L31.8,83.7L32.5,82.5L32.7,81.6L35.1,76.9L35.9,74.7L39.0,68.4L39.0,68.1L39.9,66.6L40.0,65.8L41.8,62.6L42.7,60.4L43.6,58.6L43.7,58.2L44.8,56.0L45.2,55.4L45.6,54.1L46.5,52.4L48.1,48.8L51.5,42.1L51.8,41.0L52.5,39.9L58.0,28.2L59.3,26.2L60.5,25.0L61.0,24.7L63.3,23.8L65.7,23.7L67.3,24.3L68.4,24.9L70.0,26.4L70.7,27.5L71.1,28.4L72.7,32.8L73.6,36.1L74.2,37.3L74.4,38.3L74.7,38.7L75.6,41.4L76.2,42.8L76.4,43.9L76.9,44.8L77.6,47.1L78.0,48.0L78.4,49.3L78.6,50.4L79.4,52.1L80.3,54.9L81.0,56.5L81.6,58.6L81.9,59.3L83.0,62.6L83.6,63.9L84.2,66.0L86.0,70.8L86.9,73.6L87.3,74.5L88.6,78.4L89.3,79.8L89.5,80.9L90.2,82.5L91.4,86.0L94.6,94.8L94.8,95.3L95.3,96.8L97.3,102.0L98.3,105.4L99.4,107.8L99.7,109.2L100.0,109.6L100.4,111.1L100.8,111.7L101.0,112.8L101.5,113.6L102.4,116.5L103.1,117.9L103.7,118.5L104.6,118.7L109.3,118.8L118.0,118.7L118.5,118.1L118.4,117.0L117.6,115.3L117.0,113.2L116.6,112.5L115.6,109.4L115.2,108.5L114.6,106.5L114.2,105.9L113.1,102.4L112.7,101.8L112.1,99.7L111.3,98.1L108.8,90.7L108.6,90.6L108.5,90.0L107.8,88.6L107.2,86.5L106.9,85.9L106.4,84.1L105.5,82.0L105.3,81.2L105.1,80.9L103.8,77.2L103.1,75.6L102.8,74.4L102.6,74.3L101.8,71.5L101.2,70.3L101.0,69.5L99.2,64.8L98.7,63.0L97.5,60.3L95.6,54.6L94.4,51.7L92.7,46.5L92.1,45.2L91.9,44.3L91.4,43.3L91.3,42.7L90.6,40.8L90.3,39.7L89.3,37.3L88.9,35.9L87.5,32.5L86.4,29.0L86.0,28.4L85.6,26.9L83.8,22.4L82.4,19.3L81.1,17.5L79.2,15.4L76.2,12.7L73.3,11.1L70.5,10.1L66.6,9.3L63.2,9.3L61.2,9.6L58.9,10.1L57.5,10.6Z" fill="#000" fill-rule="evenodd"/>
</svg>