<svg xmlns="http://www.w3.org/2000/svg" viewBox="0 0 128 128" width="128" height="128">
  <path d="M50.7,89.1L49.6,90.3L49.6,90.6L48.0,92.8L47.0,95.0L46.3,97.0L46.0,98.2L45.9,100.2L45.7,100.7L45.8,110.5L45.6,112.7L45.6,118.0L46.2,118.6L54.1,118.5L54.4,118.3L54.6,118.0L54.7,114.1L54.8,112.6L54.7,108.1L54.8,103.7L54.8,101.2L54.8,100.4L55.2,99.4L55.4,98.2L56.8,96.0L58.6,94.1L60.4,93.0L60.8,93.0L62.6,92.2L63.7,92.2L65.2,92.2L66.2,92.6L67.0,92.6L69.0,93.6L70.0,94.2L70.9,95.1L72.0,96.6L72.8,98.1L73.2,99.3L73.4,101.0L73.5,111.2L73.6,114.2L73.6,116.2L73.6,118.2L73.8,118.5L74.2,118.7L77.8,118.8L79.7,118.6L81.7,118.6L82.1,118.3L82.4,116.0L82.5,112.5L82.4,100.2L82.2,98.1L81.3,95.1L81.0,94.6L80.9,94.2L80.3,92.8L79.4,91.4L79.0,91.0L78.8,90.6L76.1,87.8L74.0,86.1L72.8,85.4L72.5,85.2L71.3,84.6L69.3,84.0L69.0,83.8L68.2,83.7L67.1,83.3L64.2,83.1L62.0,83.2L60.8,83.4L60.6,83.6L59.3,83.8L57.6,84.3L56.7,84.9L56.3,85.0L55.2,85.5L52.4,87.4Z M55.0,29.4L54.5,29.8L53.7,30.2L52.8,31.0L49.7,33.9L48.5,35.6L47.3,37.7L46.0,41.4L45.6,45.8L45.8,51.1L45.8,79.8L46.1,80.3L46.7,80.3L47.7,79.4L49.1,78.4L49.4,78.3L51.5,76.7L53.5,75.9L54.5,75.4L55.2,75.2L56.1,74.8L58.5,74.3L59.1,74.1L60.6,73.9L61.6,73.6L63.2,73.5L66.8,73.6L68.1,73.9L69.6,74.1L70.4,74.4L71.3,74.5L71.5,74.6L72.7,75.0L73.2,75.3L73.9,75.4L75.1,76.0L75.7,76.2L76.4,76.6L76.9,76.8L78.2,77.7L79.1,78.1L81.5,79.8L82.2,79.9L82.4,79.5L82.4,74.4L82.3,73.1L82.4,63.9L82.4,56.4L82.3,51.8L82.4,51.1L82.4,44.9L82.0,43.4L82.0,42.1L81.6,40.7L80.6,38.1L79.2,35.6L78.5,34.9L78.4,34.5L75.7,31.8L72.5,29.6L70.8,28.7L69.5,28.2L65.8,27.4L63.0,27.2L59.6,27.7L58.8,28.0L58.2,28.1L56.4,29.0Z M59.9,37.0L62.5,36.2L65.2,36.2L67.2,36.7L67.6,37.0L68.2,37.2L70.0,38.5L70.9,39.4L72.5,42.0L72.9,44.1L73.0,46.2L72.9,51.8L73.2,60.2L73.2,64.2L73.0,64.8L72.7,65.1L68.8,65.0L66.4,64.6L60.5,64.7L59.6,65.0L57.7,65.1L57.2,65.4L55.9,65.4L55.2,65.7L54.9,65.7L54.7,65.4L54.7,46.6L54.5,45.3L54.8,44.3L54.8,43.6L54.9,43.0L55.7,41.3L56.9,39.4L57.8,38.5Z M46.1,13.4L43.9,15.0L42.0,16.1L41.5,16.6L40.4,17.4L37.2,20.6L35.9,22.3L35.3,22.8L33.4,25.6L32.8,26.8L31.8,28.4L31.3,29.6L30.9,30.2L29.6,33.4L29.6,34.0L28.9,35.6L28.4,38.1L28.2,39.8L27.9,41.0L27.6,48.1L27.6,72.2L27.5,76.0L27.5,95.6L27.6,97.7L27.6,118.7L28.1,119.0L29.2,119.1L33.3,119.1L34.1,119.0L35.8,118.9L36.0,118.8L36.4,118.3L36.4,114.1L36.5,113.3L36.5,108.2L36.4,106.9L36.4,105.4L36.5,104.8L36.5,91.4L36.7,90.2L36.7,80.6L36.5,78.5L36.5,43.7L36.7,41.9L37.2,40.1L37.2,39.3L37.5,38.7L37.6,37.4L37.9,37.0L38.2,35.7L38.4,35.3L38.5,34.8L39.6,32.9L40.0,31.9L41.6,29.4L44.3,26.2L47.6,23.4L48.6,22.8L50.1,21.6L55.4,19.4L58.6,18.5L60.6,18.4L61.7,18.1L63.2,18.0L66.8,18.1L68.9,18.5L69.8,18.9L72.4,19.4L73.0,19.7L73.7,19.8L74.5,20.3L74.8,20.3L77.4,21.8L78.4,22.2L79.2,22.9L79.9,23.4L80.2,23.4L80.9,24.2L82.6,25.4L84.3,27.2L85.0,28.2L86.8,30.2L87.1,31.0L88.0,32.3L89.0,34.6L89.3,35.0L90.2,37.7L90.5,39.4L90.8,40.1L91.3,43.7L91.3,52.3L91.5,53.6L91.4,62.2L91.6,65.7L91.6,74.4L91.7,79.1L91.6,83.9L91.7,89.2L91.9,91.8L91.8,103.6L92.0,104.6L92.0,117.7L92.1,118.1L92.4,118.3L92.7,118.4L96.4,118.4L97.1,118.2L99.7,118.2L100.3,118.1L100.6,117.6L100.8,112.3L100.8,81.6L100.5,77.0L100.6,72.0L100.5,63.7L100.4,60.3L100.4,50.2L100.3,43.2L99.6,38.5L98.8,35.9L98.8,35.5L97.6,32.0L97.0,30.8L96.4,29.2L96.1,28.9L95.5,27.5L95.1,27.0L94.0,25.1L93.2,24.2L92.2,22.7L89.6,19.8L86.8,17.4L84.9,15.9L80.4,13.1L79.6,12.9L78.5,12.2L76.6,11.6L75.3,11.0L74.2,10.7L73.6,10.4L72.8,10.2L72.6,10.1L70.6,9.8L70.0,9.6L68.8,9.5L67.9,9.3L65.5,9.1L62.7,9.1L60.6,9.4L59.0,9.4L57.0,9.8L55.0,10.0L52.7,10.8L51.8,11.0L50.3,11.7L49.6,11.8L49.5,12.0L48.4,12.3L47.4,13.0Z" fill="#000" fill-rule="evenodd"/>
</svg>