<svg xmlns="http://www.w3.org/2000/svg" viewBox="0 0 128 128" width="128" height="128">
  <path d="M10.7,100.8L10.0,101.3L9.9,101.7L10.7,101.9L10.8,102.1L10.8,105.2L10.9,105.6L11.3,105.7L11.5,105.5L11.6,104.0L11.5,101.2L11.3,100.9Z M13.5,100.7L13.0,101.1L12.9,101.5L13.0,102.1L13.2,102.2L13.5,101.8L13.7,101.4L14.0,101.3L14.8,101.3L15.2,101.5L15.4,102.3L14.7,103.1L13.1,104.1L12.8,104.7L12.8,105.5L13.1,106.0L15.2,106.1L15.6,105.9L15.6,105.5L13.9,105.4L13.6,104.8L14.3,104.0L14.8,103.8L15.7,103.0L16.0,102.5L15.8,101.3L15.6,100.9L15.1,100.7Z M92.8,12.8L92.5,12.5L92.2,12.4L88.6,12.4L72.6,12.4L67.7,12.6L36.7,12.6L36.4,12.8L36.0,13.1L34.9,16.6L34.7,17.0L34.6,17.6L33.7,19.9L33.1,21.9L32.8,22.5L32.7,23.1L31.9,25.2L31.8,25.8L31.5,26.4L30.8,28.6L30.7,28.8L29.9,31.2L29.6,31.9L29.3,33.1L29.1,33.5L28.4,35.4L28.2,36.5L27.3,38.8L27.3,39.1L26.4,41.5L26.4,41.9L25.7,43.4L25.6,44.2L24.6,46.9L24.6,47.2L24.3,47.6L23.0,51.9L22.6,52.8L22.1,54.5L21.9,54.9L21.7,55.6L21.0,57.5L20.9,58.0L20.7,58.4L20.5,59.3L19.4,62.2L18.8,64.2L18.6,64.6L17.6,67.8L17.4,68.2L16.4,71.0L16.2,71.8L15.7,72.9L15.7,73.2L14.8,75.7L14.5,77.0L13.9,78.4L13.5,79.8L13.1,80.7L13.0,81.6L12.4,83.0L12.0,84.5L11.5,85.6L11.4,86.1L10.6,88.3L10.0,90.4L9.7,91.0L9.6,91.6L9.2,92.6L9.2,93.3L9.8,93.6L25.1,93.4L38.2,93.5L40.2,93.4L40.8,93.1L41.7,91.3L42.5,88.6L42.7,88.2L43.4,86.1L44.0,84.5L44.7,82.0L46.4,77.4L47.0,75.3L48.5,71.5L48.6,70.9L49.6,68.2L51.2,63.1L52.1,61.0L52.4,59.9L52.8,58.7L53.1,58.1L53.3,57.2L54.0,55.4L54.3,54.1L54.8,53.0L56.1,48.8L56.4,48.4L56.9,46.4L57.7,44.7L58.3,42.3L59.1,40.1L59.4,39.5L60.3,36.7L61.8,32.5L62.3,30.7L62.5,30.3L63.8,26.5L64.2,26.3L64.6,26.6L64.8,27.1L65.5,29.4L66.6,32.4L66.8,33.5L67.3,34.5L67.5,35.3L68.3,37.3L68.9,39.3L69.2,39.9L69.5,41.2L70.7,44.1L70.7,44.7L71.6,46.8L71.6,47.4L72.0,48.2L72.7,50.5L74.1,54.1L75.0,57.1L75.1,57.2L75.6,59.2L76.0,59.9L76.2,60.8L76.4,61.4L76.4,61.8L76.0,62.3L55.9,62.3L54.8,62.5L54.6,62.8L54.6,63.4L56.0,67.8L56.8,70.0L57.1,71.0L57.4,71.7L58.3,74.6L58.6,75.2L59.0,76.8L59.5,77.9L60.5,81.0L60.7,81.2L61.1,82.7L62.0,85.0L62.7,87.4L62.9,87.8L65.0,94.2L65.9,96.5L66.4,98.4L67.0,99.7L67.3,100.8L68.2,103.1L70.4,109.8L71.3,112.1L71.6,113.4L72.5,115.4L72.7,115.6L72.9,115.6L73.2,115.2L73.2,94.1L73.4,93.5L73.8,93.2L80.4,93.1L85.6,93.1L89.7,93.0L116.3,93.0L118.9,92.8L119.1,92.6L119.1,92.1L118.7,90.6L118.3,89.7L118.2,89.2L117.9,88.5L117.3,86.5L116.5,84.4L116.4,83.9L116.1,83.2L115.5,81.1L114.7,79.1L114.5,78.3L114.3,77.9L114.1,77.1L113.3,75.0L112.8,73.0L112.4,72.3L112.2,71.2L111.5,69.6L111.0,67.5L110.2,65.6L110.1,64.9L108.3,59.9L108.1,59.0L106.6,54.6L106.3,53.6L106.0,52.9L106.0,52.6L104.9,48.9L104.3,47.6L103.8,45.9L102.7,42.9L101.4,38.7L100.7,36.7L100.4,35.7L99.8,34.1L98.7,30.6L98.5,30.2L97.7,27.8L97.5,27.4L97.0,25.5L96.6,24.8L96.3,23.6L94.8,19.1L94.7,18.4L94.0,16.6L93.7,15.3Z" fill="#000" fill-rule="evenodd"/>
</svg>