<svg xmlns="http://www.w3.org/2000/svg" viewBox="0 0 128 128" width="128" height="128">
  <path d="M119.3,100.3L119.1,99.9L118.6,99.4L117.3,97.6L116.6,96.8L115.6,95.2L115.1,94.8L114.7,94.1L112.8,91.7L111.9,90.3L110.8,89.0L109.9,87.5L109.4,87.1L105.7,81.9L104.7,80.8L104.3,80.0L102.5,77.7L102.1,77.2L99.7,74.0L99.2,73.3L98.4,72.2L97.8,71.3L97.2,70.7L96.0,68.8L92.7,64.7L92.6,64.3L91.6,63.2L89.4,60.1L88.4,58.9L87.5,57.5L86.8,56.7L86.3,55.8L84.6,53.6L84.1,52.8L82.6,51.0L82.5,50.7L81.3,49.2L81.0,48.6L80.4,47.9L79.4,46.5L76.0,42.0L75.0,40.6L74.2,39.6L73.8,39.0L72.8,37.7L72.0,36.5L71.2,35.7L69.7,33.4L67.4,30.5L65.5,27.8L64.9,27.2L64.5,27.2L64.0,27.8L61.9,30.4L60.2,32.9L58.7,34.6L58.3,35.4L54.8,39.9L54.4,40.5L53.0,42.2L49.2,47.4L48.5,48.2L45.9,51.7L45.0,52.8L44.5,53.5L44.2,53.8L41.3,57.8L40.1,59.3L39.8,59.8L39.2,60.4L38.0,62.1L36.9,63.5L36.6,64.1L34.7,66.4L34.5,66.8L33.6,67.8L32.3,69.7L31.8,70.2L30.6,71.9L30.2,72.3L29.9,72.9L29.4,73.4L28.5,74.6L27.4,76.0L26.4,77.5L24.4,79.9L24.1,80.5L23.5,81.2L22.5,82.7L21.1,84.4L19.8,86.3L18.7,87.5L17.5,89.3L14.2,93.4L14.1,93.7L12.6,95.6L12.3,96.1L9.6,99.6L9.1,100.4L9.0,100.8L9.2,101.0L10.6,101.1L15.9,101.1L18.7,100.9L29.0,101.0L30.5,100.9L63.7,100.9L64.3,100.7L65.1,99.9L66.2,98.3L67.0,97.4L67.9,95.9L69.5,93.9L69.7,93.5L72.2,90.4L72.4,89.9L73.0,89.3L74.3,87.3L74.9,86.7L75.2,86.2L75.8,85.6L76.6,84.2L77.4,83.4L77.7,82.8L77.7,82.5L77.4,82.3L72.7,82.3L50.2,82.3L48.0,82.2L47.6,82.1L47.3,81.8L47.3,81.6L47.6,81.2L49.0,79.3L49.7,78.2L50.1,77.8L50.2,77.5L51.2,76.3L51.2,76.1L52.8,74.2L53.0,73.7L53.9,72.6L54.1,72.2L55.9,69.8L56.8,68.6L60.1,64.3L60.6,63.5L61.3,62.7L61.8,61.8L62.5,61.1L64.0,59.0L64.2,58.8L64.8,58.9L65.9,60.1L69.4,65.0L70.4,66.2L72.5,69.1L73.7,70.6L76.7,74.8L78.6,77.2L78.9,77.9L81.2,80.7L81.7,81.6L86.8,88.4L87.6,89.5L88.2,90.2L88.7,91.1L90.7,93.7L90.9,94.1L91.9,95.2L92.6,96.3L93.6,97.6L94.2,98.5L95.8,100.7L96.4,100.9L109.1,100.9L114.2,101.0L118.9,100.9L119.3,100.7Z" fill="#000" fill-rule="evenodd"/>
</svg>