<svg xmlns="http://www.w3.org/2000/svg" viewBox="0 0 128 128" width="128" height="128">
  <path d="M9.3,110.4L9.3,110.9L9.7,111.2L10.0,111.3L19.7,111.2L35.7,111.5L41.9,111.4L45.1,111.6L53.5,111.6L56.4,111.8L62.1,111.7L65.3,111.8L69.4,111.8L106.8,112.1L108.7,112.0L118.7,112.2L119.0,111.9L118.8,111.0L117.9,109.3L117.5,108.9L116.1,106.1L115.1,104.9L114.6,104.7L109.0,104.5L103.9,104.6L100.2,104.4L88.2,104.4L82.1,104.3L74.3,104.4L63.8,104.1L54.2,104.2L46.5,104.0L41.9,104.1L39.2,103.9L15.0,103.8L13.5,104.0L12.8,104.4L12.3,105.5L11.7,106.2L10.7,108.0L10.6,108.3L9.7,109.6Z M15.6,99.8L15.6,100.1L16.2,100.6L21.4,100.8L25.9,100.7L37.5,100.9L69.2,101.1L75.3,101.3L94.9,101.3L112.2,101.6L112.8,101.2L112.8,100.5L112.6,99.8L107.2,90.6L106.9,90.2L106.3,90.0L104.6,89.9L86.6,89.9L78.7,89.7L69.5,89.8L68.8,89.7L66.3,89.7L54.9,89.6L41.9,89.6L37.7,89.4L22.2,89.4L21.7,89.6L20.8,90.8Z M64.4,16.2L63.0,18.4L60.5,22.8L59.8,23.8L58.9,25.6L58.3,26.5L58.1,27.1L56.2,30.0L55.5,31.5L55.2,31.8L53.7,34.6L53.1,35.4L53.0,35.7L50.8,39.4L50.4,40.3L50.0,40.9L47.6,45.1L45.9,47.8L45.7,48.4L44.7,49.8L44.1,51.1L43.8,51.5L41.7,55.3L40.7,56.7L40.1,57.9L39.8,58.3L39.0,60.0L36.1,64.5L35.5,65.7L34.2,67.7L32.8,70.4L32.1,71.4L32.0,71.7L29.2,76.6L28.6,77.4L28.0,78.7L25.8,82.1L25.6,82.6L25.2,83.3L25.1,83.7L24.2,85.2L24.2,85.7L24.5,86.0L30.7,86.1L49.3,86.2L64.9,86.5L81.2,86.5L85.1,86.7L104.2,86.7L104.4,86.4L104.5,86.0L103.0,82.9L101.0,79.6L100.8,78.9L98.9,75.9L98.6,75.0L98.3,74.8L96.1,70.8L95.2,68.9L93.7,66.7L92.5,64.2L91.7,63.2L91.6,62.7L90.7,61.5L90.6,61.0L90.2,60.5L90.0,59.9L88.8,58.1L88.5,57.2L86.9,54.6L84.9,50.8L83.3,48.2L82.6,46.8L80.5,43.2L79.5,41.2L79.2,41.0L78.0,38.7L77.7,38.3L76.0,35.1L75.5,34.4L74.1,31.8L73.7,31.2L72.1,28.1L69.4,23.5L69.1,22.7L68.5,21.8L67.7,20.1L65.6,16.6L65.0,16.1Z" fill="#000" fill-rule="evenodd"/>
</svg>