<svg xmlns="http://www.w3.org/2000/svg" viewBox="0 0 128 128" width="128" height="128">
  <path d="M90.4,117.4L89.9,116.1L89.7,114.8L89.0,112.5L88.8,111.1L88.5,110.5L87.9,107.4L87.6,106.8L87.0,104.3L87.0,103.9L85.8,99.6L85.7,98.8L85.6,98.5L84.9,95.9L84.4,95.4L74.8,95.3L71.0,95.5L60.5,95.4L52.6,95.6L43.3,95.6L42.7,95.7L42.3,96.3L41.6,99.6L40.7,102.8L40.5,104.4L40.3,104.7L39.5,108.4L38.6,111.5L38.1,114.3L37.6,115.3L37.5,116.3L37.2,117.2L37.1,118.5L37.4,118.8L38.8,119.0L53.0,119.0L63.0,118.8L66.7,118.9L73.5,118.7L86.2,118.8L89.9,118.7L90.4,118.4Z M66.2,13.5L66.0,14.1L66.3,15.1L69.1,23.2L69.2,24.1L69.6,24.7L70.1,26.7L70.6,27.7L71.3,30.3L71.9,31.8L72.3,33.2L72.5,33.6L72.7,34.7L73.1,35.4L73.1,36.0L73.5,36.8L73.6,37.4L75.2,42.2L75.7,44.3L76.2,45.2L76.6,47.1L77.9,50.9L78.1,51.9L79.9,56.9L80.6,59.5L80.9,60.0L81.9,63.8L82.4,64.7L82.5,65.3L83.1,66.8L83.4,67.9L83.6,68.4L83.8,69.4L84.4,70.9L84.5,71.6L85.5,74.1L85.6,74.8L85.8,75.2L86.6,78.2L86.9,78.6L87.0,79.2L88.1,82.2L88.5,84.1L88.8,84.5L89.8,88.1L90.3,89.2L90.5,90.1L91.1,91.6L92.2,95.8L94.8,103.5L96.0,107.4L96.8,109.5L97.5,112.2L98.2,113.9L98.4,114.8L99.1,116.4L99.3,117.7L99.5,118.2L100.0,118.7L100.3,118.8L102.5,118.7L102.8,118.5L102.8,118.0L102.1,115.7L101.7,115.0L101.6,114.4L101.2,113.5L100.9,112.4L100.2,110.7L100.1,110.1L99.9,109.7L99.8,109.0L99.4,108.3L98.7,105.9L97.9,104.0L97.8,103.4L96.9,101.1L96.8,100.3L96.2,99.1L95.1,95.3L94.7,94.7L94.6,94.0L93.8,92.1L91.3,84.4L91.0,83.9L90.9,83.3L89.0,78.2L87.9,74.5L87.3,73.4L85.4,67.4L85.0,66.8L83.8,62.7L83.0,60.5L82.6,59.7L82.4,58.8L81.6,56.7L81.5,56.1L81.0,55.3L80.4,53.0L80.1,52.4L79.3,49.6L78.8,48.6L78.5,47.3L78.1,46.6L76.8,42.4L76.1,40.8L75.5,38.6L75.0,37.8L74.9,37.1L73.9,34.6L73.7,33.2L72.8,31.4L72.2,29.2L71.3,27.1L70.1,23.6L69.9,23.1L69.7,22.1L68.8,20.0L67.3,15.3L66.7,13.8Z M63.3,11.0L62.9,11.2L62.5,12.7L62.1,14.7L61.4,17.2L61.3,18.2L60.9,19.5L60.2,22.9L59.8,23.9L59.7,24.8L59.4,25.8L59.2,27.0L58.9,27.7L58.7,29.4L58.3,30.4L57.3,35.3L56.7,37.1L56.7,37.5L55.2,43.2L55.2,43.6L54.3,47.2L54.1,47.4L53.8,49.4L53.5,50.0L53.3,51.2L52.5,54.0L52.3,55.6L52.0,56.2L51.9,57.3L51.4,58.9L51.3,59.8L50.2,63.9L49.9,65.6L49.5,66.5L49.1,68.8L46.5,79.0L46.4,79.8L45.8,82.3L45.8,83.0L46.2,83.3L47.8,83.4L67.3,83.4L72.3,83.2L80.9,83.2L81.4,83.0L81.5,82.9L81.4,81.4L81.1,80.8L81.0,79.8L80.7,79.2L80.0,75.8L79.4,74.3L79.3,73.1L78.1,68.9L78.0,68.0L77.6,66.7L77.3,65.3L77.1,65.0L77.0,63.8L76.2,61.2L76.1,60.2L75.6,59.0L75.4,57.4L74.7,55.6L74.6,54.2L74.2,53.4L73.7,50.7L72.8,47.5L72.7,46.7L72.1,44.7L71.9,43.5L71.2,41.3L71.0,40.1L70.2,37.4L70.0,36.2L69.7,35.3L69.1,32.3L68.8,31.6L68.5,30.2L67.3,25.9L67.2,25.0L66.3,22.1L66.2,21.3L65.9,20.4L64.8,15.8L64.2,14.0L63.9,12.5L63.5,11.1Z M61.6,10.3L61.2,10.3L61.0,11.2L60.6,11.9L60.0,14.2L59.5,15.4L59.4,16.1L59.0,16.6L58.9,17.5L58.5,18.3L57.3,21.8L57.3,22.4L56.5,24.5L56.3,25.4L56.0,25.9L55.7,27.0L54.9,29.2L54.9,29.6L54.5,30.4L54.3,31.3L54.1,31.7L53.3,34.6L52.9,35.2L50.2,43.3L50.1,43.5L50.1,43.7L48.6,47.4L48.4,48.5L48.1,48.9L47.6,50.5L47.5,51.2L47.2,51.5L47.0,52.7L46.6,53.4L46.5,54.0L46.2,54.7L46.1,55.3L45.1,57.9L44.4,60.5L44.0,61.2L43.9,62.1L43.6,62.5L42.7,65.3L42.2,66.4L42.0,67.4L41.2,69.5L41.1,70.1L39.8,73.7L38.5,77.8L37.4,80.7L37.1,81.9L36.8,82.3L36.0,85.2L35.7,85.6L35.1,87.9L34.4,89.6L34.0,91.1L33.7,91.5L33.6,92.3L33.3,92.7L32.9,94.1L32.1,96.3L31.8,97.7L31.5,98.0L31.4,98.7L30.1,102.7L28.9,105.7L28.1,108.3L28.0,108.5L27.2,111.0L26.9,111.4L26.7,112.3L26.5,112.7L26.3,113.7L25.8,114.6L25.7,115.4L24.9,117.1L24.7,118.1L24.7,118.5L24.9,118.8L27.2,118.9L27.8,118.5L28.8,115.2L29.1,114.7L29.2,114.0L29.7,112.8L30.3,110.6L30.6,109.9L30.6,109.6L30.9,109.0L31.2,107.6L31.6,106.9L31.6,106.6L32.2,104.9L32.3,104.3L32.6,103.9L32.8,102.7L33.2,102.0L34.1,98.9L34.4,98.2L34.4,97.8L35.4,95.0L35.5,94.4L36.0,93.2L36.7,91.2L36.7,90.9L38.6,85.0L38.6,84.5L39.6,82.1L40.2,79.4L40.6,78.6L40.7,77.7L41.0,77.3L41.1,76.6L42.1,73.9L42.3,73.0L42.4,72.8L42.6,71.8L43.0,71.1L44.6,65.5L45.3,64.0L45.5,62.5L46.9,58.7L47.1,57.4L49.5,50.2L50.1,48.1L50.7,46.2L51.0,45.8L51.5,43.6L51.8,43.2L52.2,41.5L52.5,40.8L53.0,39.1L54.8,33.9L54.9,32.8L56.4,28.7L56.5,27.7L56.8,27.2L57.4,24.7L57.9,23.7L58.0,22.9L58.4,21.8L58.7,20.6L59.1,19.6L60.7,13.7L61.4,11.9Z M65.0,10.3L65.2,11.7L65.6,12.6L65.9,12.7L66.1,12.3L66.0,11.5L65.4,10.3Z M59.4,9.8L47.7,9.7L46.2,9.9L43.1,9.8L37.2,10.0L35.3,9.9L31.7,10.1L30.8,10.0L17.0,10.2L16.2,10.3L15.8,11.0L15.8,38.8L16.0,45.1L15.9,58.6L16.0,67.8L16.2,70.3L16.2,76.7L16.0,79.6L16.0,95.2L16.2,96.7L16.2,117.3L16.4,117.3L16.8,116.9L17.0,116.1L17.7,114.8L18.0,113.6L19.3,111.0L19.9,109.1L20.3,108.4L21.0,106.3L21.7,104.8L21.9,104.0L22.7,102.5L24.2,98.4L24.5,98.0L25.0,96.4L26.1,94.1L26.2,93.6L26.5,93.1L26.8,92.1L28.2,89.0L28.8,87.1L29.1,86.8L29.3,86.0L29.6,85.4L31.3,80.9L31.7,80.4L32.2,78.9L32.7,78.2L33.3,76.2L33.7,75.4L33.7,75.1L34.6,73.0L34.8,72.8L35.3,71.1L35.9,70.1L36.0,69.3L36.9,67.4L36.9,67.2L37.7,65.5L37.7,65.2L38.5,63.4L38.7,62.7L39.1,62.2L41.0,56.9L41.6,55.6L42.2,53.8L42.5,53.3L43.1,51.5L43.4,51.2L43.7,50.2L45.4,46.5L46.1,44.5L46.5,43.8L46.6,43.3L47.8,40.8L48.1,39.5L49.0,37.8L49.4,36.3L50.0,35.3L51.4,31.5L52.4,29.3L53.1,27.2L53.8,25.8L54.0,24.9L54.8,23.1L54.9,22.3L55.3,21.8L55.6,20.7L55.8,20.4L57.2,16.8L57.5,16.2L57.5,15.9L57.7,15.8L58.8,12.7L59.3,11.6L59.7,10.4L59.6,9.9Z M67.1,9.7L66.8,10.0L66.8,10.8L69.1,15.8L70.3,19.1L71.1,20.7L71.6,22.3L72.2,23.3L72.8,25.0L73.1,25.3L73.2,26.1L73.6,26.7L74.2,28.5L75.0,30.0L76.2,33.4L76.5,33.8L77.6,36.3L77.8,37.0L78.5,38.3L78.6,39.5L79.4,40.8L79.5,41.2L80.0,42.0L80.1,42.6L80.6,43.5L81.5,45.6L81.6,46.1L83.4,50.2L83.4,50.5L84.4,52.7L85.0,54.5L85.8,56.1L85.9,56.6L86.4,57.3L86.5,57.9L86.8,58.5L88.0,61.6L88.2,61.9L88.5,62.9L89.0,63.9L90.1,66.6L90.4,67.0L92.4,72.2L92.9,73.1L92.9,73.4L94.1,75.9L94.4,77.1L94.8,77.6L95.3,79.2L96.2,81.0L96.4,81.8L96.8,82.4L97.5,84.5L99.1,87.8L100.4,91.4L100.9,92.4L102.5,96.5L102.7,96.7L103.0,97.6L104.1,100.1L104.8,102.3L105.4,103.2L105.5,103.7L105.8,104.3L106.1,105.1L107.7,108.7L107.8,109.2L108.7,111.2L108.7,111.4L109.6,113.3L110.2,114.9L110.5,115.4L111.1,116.9L111.6,117.0L111.8,114.3L111.8,98.8L112.0,85.9L111.9,79.8L112.1,76.6L112.1,59.3L112.6,17.8L112.6,10.9L112.3,9.5L111.8,9.3L88.1,9.3L84.5,9.5L82.5,9.4L77.1,9.5L69.3,9.5Z" fill="#000" fill-rule="evenodd"/>
</svg>