<svg xmlns="http://www.w3.org/2000/svg" viewBox="0 0 128 128" width="128" height="128">
  <path d="M50.1,9.7L49.0,9.7L48.1,10.3L47.5,11.3L47.1,13.1L46.4,14.4L45.7,16.7L45.0,18.3L44.8,19.5L43.7,22.1L43.2,24.1L42.7,24.9L42.6,25.6L42.2,26.6L41.7,28.1L41.2,29.2L40.7,31.2L40.2,32.2L39.4,34.7L39.0,35.6L38.8,36.5L38.2,37.9L38.1,38.5L37.3,40.8L36.4,43.0L36.1,44.2L35.9,44.5L35.1,47.0L34.8,47.6L34.3,48.9L34.2,49.9L33.2,52.1L32.6,54.2L32.0,55.4L31.9,56.0L30.9,59.1L30.0,61.2L29.9,61.8L29.2,63.7L28.2,66.7L27.8,67.4L27.8,68.0L27.5,68.5L27.1,70.1L26.8,70.6L26.3,72.3L26.0,72.9L25.2,75.4L24.6,76.7L24.6,77.0L23.6,79.4L23.5,80.3L23.1,80.9L23.0,81.6L22.6,82.5L22.3,83.8L21.0,86.8L20.6,88.1L20.6,88.4L20.0,89.8L18.0,95.7L17.9,96.6L17.1,98.7L17.0,99.4L16.6,100.1L15.9,102.6L14.8,105.0L14.3,107.0L13.5,109.1L12.3,112.5L12.2,113.3L11.8,113.9L11.3,115.5L11.1,116.4L10.6,117.3L10.5,118.5L11.0,118.9L12.6,118.9L13.2,118.6L13.5,118.2L14.7,115.0L14.8,114.4L15.2,113.7L15.6,112.0L16.1,110.7L16.8,108.3L17.1,108.0L17.3,107.1L17.7,106.3L17.8,105.7L17.9,105.6L18.2,104.3L18.7,103.3L19.5,100.7L19.8,100.3L20.1,98.8L20.8,97.1L21.4,95.0L21.7,94.4L21.8,93.8L22.4,92.3L22.4,91.9L23.8,88.3L24.1,87.2L25.0,85.0L25.4,83.1L26.1,81.9L26.5,80.4L28.2,76.0L29.2,72.8L30.4,69.5L31.1,67.1L31.9,65.3L32.2,64.3L33.0,62.3L33.0,61.7L34.3,58.4L35.0,56.3L35.2,55.4L36.3,52.5L36.7,51.1L37.1,50.3L37.4,48.7L38.2,47.1L38.7,44.9L39.2,44.2L40.5,40.0L41.2,38.1L41.3,37.5L41.8,36.5L42.2,35.2L43.0,33.1L43.1,32.5L43.6,31.6L44.1,29.7L44.4,29.1L44.8,27.7L45.5,26.0L45.5,25.4L46.1,23.8L46.3,23.6L47.7,19.2L48.0,18.7L48.4,17.2L49.3,15.0L50.5,10.8L50.5,10.0Z M57.9,9.7L56.7,9.6L55.9,10.0L55.4,11.0L55.4,11.3L55.0,11.8L54.7,13.1L54.4,13.5L53.7,15.3L53.4,16.6L52.0,20.1L51.8,21.1L51.3,21.9L51.1,22.7L50.8,23.4L50.7,24.1L50.4,24.7L50.3,25.3L49.9,26.1L49.6,27.3L49.3,27.9L49.3,28.3L48.0,31.3L46.6,35.9L46.2,36.5L45.9,37.8L45.5,38.7L45.3,39.8L44.6,41.3L44.3,42.4L43.9,43.1L43.8,43.7L43.5,44.3L43.2,45.5L43.0,46.0L42.9,46.8L42.0,48.8L41.9,49.5L41.5,50.4L39.7,56.0L39.4,56.3L38.6,58.8L38.3,59.4L38.2,60.0L36.9,63.6L36.7,64.6L36.4,65.1L36.1,66.1L35.5,67.4L34.8,69.7L34.3,70.9L34.0,72.3L33.0,74.7L33.0,75.4L32.6,75.9L32.5,76.5L32.1,77.4L31.7,78.7L30.8,80.9L30.7,81.5L30.4,82.2L30.3,82.9L29.9,83.6L29.2,86.2L28.6,87.1L28.2,88.8L27.6,89.9L27.5,90.6L26.6,93.4L25.8,95.1L25.2,97.4L24.7,98.6L24.6,99.2L24.1,100.1L23.6,101.6L23.4,102.0L22.6,104.8L21.7,107.2L20.9,109.9L20.4,110.7L20.4,111.4L19.8,112.4L19.2,114.3L19.2,114.6L18.7,115.6L18.6,116.3L18.2,117.2L18.1,117.9L18.3,118.6L18.6,118.8L20.4,118.8L21.1,118.3L22.3,115.2L22.5,114.4L23.6,111.8L23.8,110.9L24.2,109.9L24.2,109.5L25.2,107.2L25.9,104.7L26.8,102.2L28.1,97.8L28.6,96.9L28.7,96.2L29.2,95.4L29.8,93.0L30.9,90.3L30.9,90.0L31.4,88.9L33.2,83.4L34.0,81.7L34.1,80.9L34.5,80.1L35.9,75.9L37.3,72.5L37.9,70.2L38.2,69.6L38.4,68.6L38.8,67.3L39.2,66.7L40.5,62.4L41.6,59.9L41.6,59.3L42.9,55.9L43.0,55.2L43.4,54.3L43.5,53.6L43.9,52.8L44.0,52.2L44.8,50.4L45.0,49.1L45.4,48.4L45.6,47.3L46.5,45.3L46.7,44.4L47.4,42.8L47.4,42.1L48.0,40.9L48.4,39.2L49.3,37.0L50.1,34.4L50.7,33.1L51.2,31.5L51.2,31.1L52.0,29.2L52.3,28.0L53.0,26.5L53.2,25.3L53.8,23.9L53.9,23.4L54.3,22.8L55.0,20.1L56.6,15.6L57.0,14.8L58.2,10.9L58.3,10.0Z M65.7,9.5L64.4,9.4L64.0,9.6L63.7,9.9L62.8,11.7L62.5,12.9L62.2,13.4L61.5,15.8L61.2,16.3L60.9,17.3L60.6,17.9L58.7,23.3L58.3,24.2L58.0,25.1L57.5,26.2L57.4,26.8L57.0,27.7L57.0,28.2L56.5,29.2L56.5,29.4L56.0,30.5L55.8,31.4L55.6,31.6L54.7,34.5L54.3,35.5L53.9,36.7L53.2,38.3L53.1,39.0L52.3,41.1L51.9,42.6L51.7,43.0L51.5,43.7L51.2,44.1L51.0,45.1L50.5,46.1L50.5,46.4L50.2,47.0L49.6,48.8L49.5,49.5L49.0,50.6L46.8,57.4L45.6,60.2L45.4,61.5L44.5,63.7L44.3,64.6L43.9,65.6L43.9,65.9L43.3,67.0L42.9,68.5L42.6,68.9L42.5,69.5L42.2,70.2L41.0,74.2L40.3,75.8L40.2,76.4L39.5,77.9L38.8,80.1L38.6,80.6L38.2,81.9L37.2,84.4L36.8,85.8L36.4,86.7L36.2,87.5L35.9,88.1L35.1,90.5L34.8,90.9L34.5,92.2L33.8,93.9L33.6,95.1L32.9,96.3L32.1,99.0L31.0,101.9L30.4,104.1L30.0,104.7L29.8,105.6L29.0,107.6L27.6,111.9L27.2,112.7L26.6,114.6L26.1,115.7L25.4,117.5L25.4,118.0L25.9,118.5L27.7,118.6L28.1,118.4L28.6,117.8L30.2,113.3L30.9,111.9L31.5,109.7L32.1,108.3L32.6,106.5L33.7,103.6L34.5,100.8L35.1,99.7L35.2,99.1L35.5,98.7L35.5,98.1L36.0,97.1L36.3,95.7L36.8,94.6L37.3,93.0L37.7,91.8L38.2,91.0L38.9,88.5L39.3,87.6L40.5,83.9L42.4,79.4L42.8,77.8L43.6,75.7L43.9,75.4L44.0,74.6L44.4,73.8L44.5,73.1L45.3,71.2L45.5,70.1L45.8,69.7L46.4,67.4L46.8,66.8L47.1,65.6L47.6,64.6L48.9,60.6L49.3,59.9L49.3,59.4L49.6,58.8L50.1,56.8L50.6,55.7L51.0,54.5L51.1,54.3L51.3,53.4L51.7,52.8L51.8,52.2L54.1,45.7L54.3,44.6L54.9,43.6L55.1,42.4L55.5,41.6L55.6,41.0L55.9,40.6L56.1,39.7L56.4,39.1L56.6,38.2L57.7,35.7L58.3,33.6L59.3,31.2L59.3,30.4L61.8,23.9L63.3,18.9L63.8,17.8L64.2,16.5L64.5,15.9L64.8,14.5L65.2,13.6L66.1,10.9L66.1,9.9Z M72.0,9.3L71.7,9.5L71.3,9.9L71.2,10.7L70.7,11.5L70.6,12.2L70.2,12.9L69.7,14.8L69.3,15.3L69.3,16.0L69.0,16.4L68.7,17.3L68.5,17.7L68.3,18.5L67.1,21.8L67.0,22.4L66.3,24.5L66.2,24.7L65.6,26.5L64.3,29.6L64.2,30.4L63.2,32.9L63.1,33.8L61.7,37.2L61.6,37.8L61.2,38.6L61.0,39.5L60.0,41.9L59.9,42.5L59.3,43.8L59.2,44.7L58.5,46.2L58.5,46.5L58.2,46.8L58.1,47.4L57.5,49.3L57.3,49.7L57.2,50.3L56.8,51.1L56.6,51.9L55.6,54.3L55.5,55.2L55.0,56.0L54.4,58.1L54.1,58.7L53.5,60.8L52.9,62.2L52.6,63.4L51.8,65.1L50.5,69.2L49.9,70.7L49.6,71.8L48.5,74.5L47.4,78.1L46.5,80.4L46.3,81.2L45.8,82.3L45.0,84.9L44.3,86.3L43.2,89.4L42.4,92.1L41.7,93.7L40.8,96.5L40.1,98.1L39.9,99.0L39.3,100.3L38.1,104.1L37.9,104.5L37.1,107.0L36.3,108.9L36.2,109.7L35.5,111.1L34.8,112.8L34.8,113.4L34.4,114.0L34.2,115.0L33.2,117.3L33.2,118.1L33.7,118.4L35.4,118.5L36.1,118.3L36.6,117.7L37.1,116.0L37.7,114.7L38.0,113.6L38.7,111.8L38.8,111.1L39.2,110.1L39.3,109.6L39.5,109.5L39.9,108.2L40.5,107.0L40.5,106.4L41.0,105.7L41.1,104.7L42.3,101.6L43.0,100.7L44.3,100.4L58.7,100.2L60.9,100.1L63.3,100.1L66.0,100.0L72.4,100.1L73.7,99.9L83.4,99.9L84.4,100.1L85.0,100.7L86.3,103.3L86.4,104.1L87.0,105.3L87.1,106.0L88.1,107.7L88.4,109.1L88.9,110.0L89.0,110.6L89.5,111.5L89.6,112.0L90.2,113.0L90.5,114.0L90.9,114.8L91.5,116.4L91.9,117.0L92.5,117.2L93.8,117.2L94.4,116.9L94.4,116.4L94.0,115.7L93.8,114.9L92.9,112.6L92.9,112.4L92.4,111.4L92.3,110.9L91.9,110.1L91.1,107.8L90.6,107.0L90.4,106.2L89.4,104.1L89.1,102.8L88.7,102.2L88.4,101.3L88.1,100.9L87.9,100.0L87.2,98.4L87.2,98.2L86.5,96.9L84.7,92.0L83.5,89.4L83.5,89.1L83.1,88.1L82.0,85.9L80.8,82.4L79.6,79.9L78.4,76.5L77.6,75.0L77.5,74.3L76.9,73.2L76.9,72.7L76.1,70.8L75.7,70.4L75.6,69.5L73.8,65.6L73.7,65.1L72.3,61.3L71.9,60.8L70.4,56.8L70.0,56.2L69.1,53.6L68.5,52.4L68.5,52.2L68.0,51.2L67.6,50.1L67.1,49.1L66.5,47.1L66.0,46.3L65.6,45.3L65.2,44.6L65.1,44.0L64.8,43.5L64.7,42.8L63.9,40.9L63.9,40.2L65.2,36.3L65.7,35.9L66.1,35.9L66.6,36.4L68.1,39.7L68.2,40.5L68.7,41.3L69.5,43.6L70.0,44.6L70.3,45.5L70.6,46.1L71.5,48.5L71.9,49.2L72.1,49.9L72.6,51.0L72.7,51.6L73.9,54.1L74.1,54.9L74.6,55.9L75.1,57.4L76.2,59.6L76.2,60.1L77.0,61.8L77.3,62.7L77.9,63.8L79.4,67.7L79.7,68.1L80.6,70.9L82.2,74.6L83.1,77.2L83.8,78.6L85.2,82.4L85.8,83.5L86.3,85.2L86.8,85.9L87.4,87.8L88.1,89.1L88.4,90.2L88.7,90.6L89.4,92.9L90.0,94.1L90.1,94.6L90.6,95.2L92.0,99.2L92.5,100.1L92.7,100.9L93.2,101.9L93.2,102.3L93.6,102.9L93.8,103.7L95.5,107.6L95.7,108.8L96.3,109.7L97.0,111.4L97.1,112.0L98.8,115.6L98.8,116.0L99.2,116.7L99.7,117.0L101.3,117.1L101.8,116.7L101.8,116.1L101.1,114.5L100.3,112.0L100.0,111.5L99.9,111.0L99.3,109.9L98.8,108.3L97.2,104.8L97.0,104.0L95.9,101.4L95.8,100.9L94.1,96.9L93.9,96.2L93.5,95.4L93.2,94.2L92.5,93.1L92.2,91.9L91.6,90.7L91.3,89.7L90.3,87.4L90.1,86.6L89.7,86.0L89.5,85.2L88.1,81.8L87.2,79.3L86.3,77.1L85.8,76.4L85.6,75.6L85.3,75.0L85.3,74.6L83.6,70.5L83.4,69.8L80.8,63.8L80.2,61.9L78.8,59.0L77.6,55.5L77.0,54.4L76.9,53.9L76.5,53.0L76.1,51.7L75.0,49.5L73.5,45.3L71.8,41.7L71.7,40.9L71.3,40.3L71.2,39.6L70.6,38.7L70.5,38.0L69.9,36.9L69.8,36.3L69.3,35.5L69.1,34.8L68.3,33.1L67.4,30.5L67.4,29.6L67.6,28.9L68.3,27.4L69.0,25.4L69.6,24.8L69.9,24.8L70.4,25.4L70.9,26.7L71.7,28.1L71.8,28.6L72.4,29.8L72.5,30.4L73.6,32.9L73.8,33.8L74.3,34.8L75.1,37.0L75.5,37.5L76.0,39.1L77.4,42.3L77.8,43.7L78.7,45.5L79.4,47.5L79.8,48.3L80.6,50.5L81.2,51.8L81.9,53.8L82.9,56.0L83.4,57.5L83.7,57.9L83.8,58.7L85.0,61.3L85.1,61.9L86.0,63.7L86.3,64.7L86.5,65.1L86.7,66.0L87.2,66.8L87.5,68.1L88.1,69.1L88.8,71.2L89.3,72.1L89.5,73.1L90.0,74.0L90.0,74.3L90.6,75.3L91.3,77.4L92.4,80.0L92.5,80.5L93.8,83.2L94.4,85.3L94.9,86.1L95.0,86.9L95.7,87.9L95.9,88.8L96.9,91.0L96.9,91.6L97.6,93.0L99.0,96.7L99.7,98.2L99.7,98.4L100.1,99.2L100.5,100.4L101.2,101.9L101.3,102.7L103.1,106.7L103.8,108.8L104.2,109.5L104.5,110.6L106.2,114.4L106.5,115.7L107.5,116.9L109.2,117.0L109.7,116.5L109.8,115.9L108.8,113.8L107.8,110.9L107.1,109.6L106.5,107.6L106.1,106.9L105.9,106.0L105.0,103.9L104.9,103.4L104.1,101.9L104.0,101.4L103.6,100.7L103.5,100.1L103.1,99.3L103.0,98.8L101.9,96.2L101.5,95.0L101.2,94.5L101.0,93.8L100.3,92.5L99.6,90.2L99.2,89.6L99.1,89.0L98.8,88.4L98.7,87.9L96.9,83.7L96.5,82.5L95.9,81.3L95.7,80.3L95.0,79.1L94.1,76.4L93.5,75.2L93.4,74.8L93.0,74.1L92.7,73.1L92.0,71.6L91.5,69.9L90.4,67.4L88.4,62.1L88.0,61.3L87.9,60.7L87.4,59.8L87.3,59.3L86.6,57.5L86.1,56.6L86.0,56.1L85.0,53.8L84.6,52.6L84.2,51.9L83.4,49.7L83.0,48.9L81.9,46.1L81.5,45.3L80.4,42.1L80.0,41.6L77.2,34.2L76.7,33.3L76.5,32.5L75.9,31.4L74.6,27.9L74.2,27.2L73.8,26.1L72.3,22.5L72.2,22.0L71.5,20.6L71.2,19.8L71.3,18.7L72.5,15.1L73.0,14.6L73.6,14.6L74.1,15.1L75.2,17.3L75.5,18.3L76.2,19.7L76.2,20.1L76.4,20.3L76.7,21.2L78.2,25.1L79.1,26.7L79.3,27.5L79.5,27.9L80.0,29.3L80.3,29.8L81.2,32.7L81.5,33.0L81.6,33.6L82.3,34.8L82.5,35.5L83.4,37.7L83.6,38.5L84.0,39.3L84.0,39.7L84.8,41.1L84.9,41.7L85.4,42.5L85.6,43.5L86.0,44.0L86.7,46.1L87.2,47.1L87.4,47.9L87.9,48.9L88.0,49.5L88.4,50.3L88.6,51.0L89.0,51.7L89.2,52.4L89.8,53.6L90.0,54.3L90.7,56.0L91.2,57.3L91.9,58.6L91.9,58.9L92.2,59.6L92.3,60.1L93.7,63.1L94.5,65.7L95.7,68.1L96.8,71.4L97.3,72.3L98.2,74.4L98.2,75.0L98.7,75.7L98.8,76.2L99.9,79.2L100.1,79.5L100.7,81.2L101.1,81.9L101.8,84.0L102.2,84.7L102.4,85.4L103.0,86.7L103.1,87.3L103.5,88.1L103.7,88.8L104.4,89.9L104.5,90.7L105.5,92.8L106.3,95.1L106.9,96.2L107.0,96.8L108.0,99.1L108.2,99.9L109.4,102.6L110.1,104.9L110.7,105.7L111.4,107.9L111.9,108.8L112.1,109.9L112.8,111.4L113.1,112.4L113.8,113.5L114.5,115.7L115.0,116.3L115.6,116.7L117.3,116.7L117.6,116.5L117.7,116.0L117.2,114.5L116.8,113.8L116.1,111.5L115.7,110.7L115.6,110.1L115.1,109.3L114.8,108.4L114.3,107.5L114.0,106.5L113.2,104.6L113.0,103.8L112.2,102.2L112.0,101.4L111.7,100.9L111.0,98.8L110.7,98.2L110.6,97.7L110.2,97.2L109.7,95.7L109.3,94.9L109.1,94.0L108.7,93.3L108.2,91.9L107.9,91.4L106.8,88.2L105.9,86.4L105.9,86.2L105.3,85.0L105.2,84.4L104.5,83.0L104.0,81.3L103.8,81.2L102.6,78.1L102.3,76.9L101.1,74.3L101.0,73.7L99.1,69.0L98.8,68.5L97.8,65.6L97.3,64.7L97.3,64.3L96.9,63.4L96.9,63.1L96.3,62.1L96.1,61.3L95.6,60.3L95.3,59.3L94.1,56.9L93.0,53.6L92.5,52.9L91.9,51.1L91.5,50.5L91.4,49.9L91.2,49.5L91.0,48.7L89.7,46.0L89.5,45.2L89.2,44.7L89.1,44.1L88.7,43.4L88.2,42.0L87.7,41.1L87.6,40.5L86.6,38.2L86.4,37.4L85.6,35.5L85.3,34.9L83.8,30.6L83.4,30.1L82.1,26.7L80.2,22.6L80.0,21.7L79.1,19.8L78.3,17.6L78.1,17.4L77.6,15.6L77.2,14.9L75.8,11.5L74.9,9.8L74.5,9.5L73.8,9.2Z M83.0,95.5L82.9,96.1L82.5,96.5L80.4,96.8L75.2,96.7L72.4,96.9L70.1,96.8L65.1,96.9L59.8,96.9L57.6,97.0L56.4,97.3L53.6,97.1L48.2,97.3L44.9,97.2L44.5,97.0L44.2,96.6L44.2,95.8L44.8,94.9L45.1,93.8L45.6,93.4L46.8,93.2L56.0,93.2L58.0,93.0L80.9,92.8L81.5,93.0L82.5,93.8L82.6,94.8Z M80.0,88.6L80.0,89.3L79.4,89.7L77.1,89.9L74.3,89.8L71.7,90.0L64.8,90.0L61.5,90.1L54.1,90.1L48.3,90.3L47.2,90.1L46.8,89.7L46.8,89.2L47.4,87.5L48.1,86.9L49.5,86.6L63.7,86.3L66.2,86.3L68.2,86.2L78.2,86.2L78.8,86.4L79.5,87.2L80.0,88.1Z M77.2,81.5L77.2,82.3L76.8,82.7L75.1,82.9L72.3,82.8L65.6,83.1L53.1,83.0L51.8,83.1L50.3,83.1L49.6,83.0L49.3,82.6L49.4,81.8L49.7,81.3L50.0,80.1L50.3,79.9L50.9,79.6L55.8,79.4L69.6,79.4L75.1,79.2L76.1,79.4L76.7,80.0L76.8,80.6Z M62.0,46.2L62.5,46.2L63.4,47.5L63.7,48.5L64.3,49.5L65.1,51.9L65.4,52.3L65.6,53.1L66.8,55.7L66.9,56.3L67.5,57.9L68.7,60.3L69.3,61.9L70.9,65.5L71.7,67.8L72.4,69.1L72.9,70.6L73.7,72.4L74.6,75.0L74.5,75.4L73.8,75.9L69.3,76.2L64.4,76.1L62.2,76.2L53.7,76.2L52.5,76.2L52.0,75.7L51.8,75.4L52.1,74.0L53.0,71.7L53.1,71.0L54.5,67.4L54.7,66.4L55.0,65.7L55.1,65.2L56.1,63.1L56.8,60.4L57.3,59.5L57.4,58.8L57.8,58.0L57.9,57.3L58.2,56.6L58.3,56.0L58.7,55.2L59.0,54.3L59.3,53.7L60.1,50.9L61.0,48.8L61.4,47.2Z" fill="#000" fill-rule="evenodd"/>
</svg>