<svg xmlns="http://www.w3.org/2000/svg" viewBox="0 0 128 128" width="128" height="128">
  <path d="M119.1,41.6L118.7,41.0L117.6,40.8L115.6,40.8L115.0,41.0L114.6,41.4L114.4,48.0L113.7,54.8L113.5,55.3L113.4,56.4L112.9,58.0L112.8,58.9L112.0,61.4L112.0,62.3L111.1,64.7L111.1,65.0L110.7,66.0L110.6,66.5L109.8,68.7L109.0,70.2L108.7,71.0L107.3,74.0L105.8,76.4L105.7,76.7L105.4,77.0L104.7,78.3L104.3,78.8L103.7,79.8L101.2,83.0L97.4,86.8L95.9,88.2L95.0,88.7L94.1,89.7L93.5,90.0L92.8,90.6L90.2,92.3L89.0,92.9L87.8,93.7L85.3,95.0L83.8,95.5L83.5,95.8L82.5,96.1L79.4,97.2L77.3,97.7L76.5,98.0L74.9,98.3L74.7,98.4L71.0,99.0L69.8,99.3L65.6,99.5L61.6,99.5L60.5,99.4L58.6,99.4L58.1,99.2L56.2,99.1L53.4,98.7L47.4,97.2L43.0,95.5L38.3,93.2L34.3,90.6L30.1,87.2L26.1,83.0L24.9,81.3L24.1,80.4L23.3,79.0L22.0,77.3L21.1,75.5L20.7,74.9L20.3,73.8L19.8,73.1L17.7,68.3L15.9,62.7L15.8,62.0L14.9,59.0L14.8,58.1L14.5,56.9L13.7,50.5L13.6,47.5L13.4,46.1L13.5,42.4L13.3,41.8L12.7,41.3L10.0,41.3L9.5,41.6L9.2,42.0L9.1,46.6L9.3,50.4L9.7,54.6L10.0,55.8L10.1,57.2L11.0,61.6L12.2,66.2L12.6,66.8L13.7,70.5L14.4,71.7L14.8,73.3L16.0,75.7L16.3,76.1L16.7,77.2L17.2,77.8L17.4,78.3L17.7,78.7L18.1,79.6L20.8,83.6L23.6,87.1L24.1,87.6L24.3,87.9L24.9,88.3L25.2,88.7L27.3,90.8L30.4,93.5L34.7,96.5L35.0,96.5L38.3,98.5L39.9,99.1L41.0,99.8L44.6,101.2L46.9,101.7L47.6,102.0L50.1,102.6L50.7,102.8L54.5,103.5L56.1,103.6L57.0,103.9L58.2,103.9L59.4,104.1L65.5,104.2L67.5,103.9L68.6,103.9L70.5,103.8L71.6,103.5L73.1,103.4L74.2,103.1L75.5,103.0L76.5,102.6L77.4,102.5L82.8,100.9L86.2,99.6L87.3,99.1L87.6,99.1L92.2,96.5L93.5,95.6L95.7,94.2L96.6,93.4L97.8,92.6L101.7,89.0L103.7,87.1L105.6,84.8L106.9,83.1L107.6,82.2L110.3,78.0L111.6,75.3L112.1,74.5L113.3,71.9L113.9,70.1L114.3,69.7L114.3,69.4L116.1,64.6L117.2,60.0L117.4,58.7L118.1,55.7L118.1,54.9L118.4,53.4L118.5,52.0L118.7,50.9L118.7,49.3L118.9,48.8Z M22.8,37.9L21.3,40.3L20.9,40.7L20.8,41.2L19.7,43.4L19.6,43.8L19.3,44.4L18.8,45.8L17.8,50.2L17.8,54.6L18.1,58.3L18.6,60.0L18.9,62.3L19.3,63.2L20.3,66.4L21.5,69.6L22.5,71.3L23.3,73.2L25.5,76.8L28.2,80.5L30.8,83.4L33.9,86.4L34.6,86.8L35.1,87.2L36.5,88.2L37.0,88.2L37.3,87.9L38.2,85.7L38.5,85.4L38.9,84.2L39.6,82.7L40.1,81.3L41.6,78.0L42.6,75.3L42.8,74.9L43.2,73.8L45.5,68.6L46.1,66.8L47.8,63.3L48.0,62.4L49.2,59.6L49.5,59.1L49.8,58.0L50.5,56.7L50.6,56.2L52.7,51.2L53.3,50.1L53.5,49.3L54.1,48.2L54.2,47.6L54.6,47.0L55.5,44.5L56.0,43.5L56.6,41.9L57.2,40.7L57.7,39.3L58.2,38.6L58.6,37.1L59.2,36.2L59.2,36.0L59.9,34.5L60.1,33.8L60.6,32.9L60.8,32.3L61.6,30.7L62.8,27.5L63.8,26.0L64.1,26.0L64.3,26.2L65.7,29.1L66.2,30.8L67.7,34.1L68.3,36.0L69.3,37.8L70.1,40.2L70.8,41.5L71.6,43.8L72.2,44.5L72.4,45.7L73.2,47.5L73.6,48.7L77.5,57.8L78.0,59.4L79.2,62.3L79.4,62.4L80.0,64.3L80.9,66.0L81.1,66.9L81.8,68.3L82.3,69.8L82.6,70.2L82.7,71.0L83.5,72.6L84.1,74.2L84.4,74.7L84.4,74.9L85.1,76.4L85.6,77.9L86.1,79.0L86.5,80.3L87.6,82.6L88.3,84.6L88.9,85.7L89.1,86.6L89.7,87.6L90.1,88.0L90.9,87.9L93.2,86.3L95.0,84.8L95.5,84.2L96.3,83.6L97.0,82.7L99.1,80.5L100.7,78.5L101.7,77.0L103.1,75.1L105.3,71.0L105.4,70.5L105.9,69.7L106.0,69.3L106.7,67.9L107.6,65.5L107.7,65.3L108.9,61.6L109.5,58.8L110.0,55.4L110.1,51.9L109.9,49.5L109.4,46.5L108.5,43.9L108.2,43.4L108.0,42.8L107.2,41.0L106.3,39.7L106.1,39.2L104.5,37.1L102.6,35.2L98.4,31.9L97.2,31.4L96.3,30.8L92.7,29.0L90.6,28.4L90.5,28.2L90.0,28.2L88.7,27.6L87.3,27.3L86.3,26.9L78.9,25.2L77.2,25.1L75.3,24.7L70.1,24.2L65.7,24.2L63.7,24.1L60.3,24.1L58.5,24.4L55.8,24.5L54.7,24.7L53.1,24.7L51.3,25.1L50.1,25.2L49.3,25.4L47.5,25.6L47.3,25.8L45.8,26.0L45.3,26.3L43.0,26.7L41.9,27.1L41.0,27.3L40.6,27.5L39.4,27.8L38.9,28.1L38.4,28.2L38.1,28.4L37.5,28.5L37.1,28.7L34.8,29.5L33.7,30.1L32.3,30.6L30.7,31.5L28.0,33.1L25.3,35.3Z" fill="#000" fill-rule="evenodd"/>
</svg>