<svg xmlns="http://www.w3.org/2000/svg" viewBox="0 0 128 128" width="128" height="128">
  <path d="M35.4,19.4L32.1,22.3L30.0,24.5L28.4,26.3L25.4,30.5L24.3,32.4L23.9,32.9L23.2,34.5L22.5,35.7L20.8,39.5L19.7,43.3L18.9,46.8L18.9,47.7L18.6,48.6L18.4,50.6L18.3,56.8L18.5,59.9L18.5,66.7L18.8,70.1L18.8,72.9L19.0,75.5L19.0,79.7L19.1,82.1L19.1,87.1L19.5,101.7L19.6,118.1L19.7,118.6L20.2,119.0L20.7,119.0L23.4,119.0L23.7,119.0L24.2,118.3L24.3,113.0L24.1,111.2L24.1,105.8L23.9,104.1L23.9,97.2L24.1,96.9L24.4,96.6L25.1,96.5L27.7,96.5L31.6,96.2L34.0,96.3L40.4,96.0L43.0,96.1L50.9,96.0L58.9,96.0L60.5,95.8L64.6,95.9L66.2,95.7L70.5,95.6L72.1,95.7L79.7,95.4L82.2,95.5L88.1,95.4L90.9,95.4L95.2,95.3L100.6,95.3L104.2,95.4L104.9,95.9L105.1,96.7L105.2,116.2L105.4,116.7L105.9,117.0L108.5,117.1L109.5,116.8L109.9,116.2L110.0,115.0L110.0,85.5L109.7,59.1L109.9,53.5L109.7,50.4L109.5,48.3L108.6,44.1L107.2,39.6L106.2,37.3L106.0,36.4L105.3,35.2L104.3,32.9L103.9,32.6L103.7,32.0L103.2,31.4L102.7,30.3L101.6,28.9L101.2,28.0L100.2,26.9L99.1,25.4L94.8,21.0L91.9,18.6L86.6,15.0L83.0,13.1L82.1,12.9L79.6,11.8L75.6,10.6L70.3,9.6L67.3,9.3L59.6,9.4L58.0,9.7L56.2,9.9L51.6,11.0L50.8,11.3L48.7,11.9L47.0,12.7L46.3,12.9L40.9,15.5Z M102.9,60.3L103.7,63.0L103.8,63.2L104.3,65.7L104.5,66.0L105.0,70.4L105.1,84.5L104.9,85.5L104.7,85.6L104.3,85.2L104.2,84.3L103.8,83.5L103.2,81.1L101.8,77.9L100.5,75.4L98.6,72.3L96.8,69.9L94.8,67.6L92.4,65.2L90.8,64.0L90.4,63.5L89.0,62.4L88.8,62.4L85.9,60.3L82.9,58.8L82.3,58.4L81.3,58.0L80.0,57.4L79.0,57.1L77.7,56.5L75.9,55.9L75.1,55.8L74.5,55.6L72.9,55.3L71.8,55.0L69.8,54.8L68.0,54.5L61.8,54.4L58.1,54.8L55.5,55.3L54.3,55.7L52.2,56.2L49.0,57.4L48.7,57.7L45.8,58.9L41.9,61.2L37.4,64.6L33.3,68.7L30.8,71.8L29.8,73.4L28.9,75.2L28.4,75.7L26.5,79.7L26.2,80.7L24.8,84.4L24.3,87.2L23.9,87.6L23.7,87.3L23.2,77.6L23.3,70.8L23.7,68.9L23.7,67.4L24.8,62.9L25.4,61.1L25.8,59.7L27.8,55.1L28.4,54.4L30.0,51.5L32.4,48.2L34.2,46.2L34.7,45.9L36.3,44.1L39.0,41.8L43.4,38.9L43.8,38.8L44.0,38.5L47.9,36.6L50.0,35.9L50.4,35.6L51.2,35.5L51.6,35.2L55.7,34.1L56.8,34.0L57.5,33.8L61.1,33.2L68.1,33.2L69.5,33.6L71.1,33.7L72.2,34.0L73.9,34.3L74.4,34.5L76.6,35.0L78.0,35.6L78.5,35.7L82.3,37.3L86.1,39.5L88.9,41.4L89.2,41.8L90.5,42.6L92.7,44.7L95.6,47.6L97.6,50.2L97.8,50.6L98.5,51.4L99.1,52.7L99.6,53.2L101.7,57.4Z" fill="#000" fill-rule="evenodd"/>
</svg>