<svg xmlns="http://www.w3.org/2000/svg" viewBox="0 0 128 128" width="128" height="128">
  <path d="M105.9,29.8L105.5,29.7L104.7,29.9L102.0,30.2L101.7,30.3L100.4,30.5L100.1,30.6L98.6,30.8L97.9,31.0L96.6,31.1L96.1,31.4L94.4,31.6L92.4,32.2L91.1,32.3L90.4,32.6L89.6,32.7L88.8,33.0L87.6,33.2L87.2,33.5L86.6,33.5L84.4,34.3L83.3,34.5L82.1,35.0L80.2,35.6L78.2,36.3L77.6,36.6L76.9,36.8L76.3,37.1L75.7,37.2L75.1,37.5L74.5,37.7L73.9,38.1L73.6,38.1L70.9,39.2L69.3,40.1L68.9,40.2L68.3,40.5L67.8,40.6L66.6,41.3L66.1,41.4L64.7,42.3L62.6,43.3L61.8,43.8L60.5,44.3L60.3,44.5L59.0,45.1L58.1,45.8L57.4,46.1L56.1,46.9L55.5,47.5L55.0,47.6L53.1,48.8L52.0,49.6L51.7,49.7L49.5,51.2L48.0,52.1L44.9,54.5L44.0,55.2L43.3,55.7L41.9,56.9L41.4,57.2L40.7,57.9L39.8,58.5L39.1,59.3L38.5,59.7L37.5,60.6L36.4,61.5L35.6,62.4L33.5,64.3L32.5,64.9L22.6,64.9L13.4,65.1L10.5,65.0L9.6,65.2L9.6,65.9L11.2,67.5L12.0,68.0L14.6,70.1L15.2,70.4L17.5,71.9L17.9,72.4L18.4,72.6L22.0,75.0L22.6,75.7L22.6,76.1L22.1,76.9L20.6,78.9L19.7,79.9L18.4,82.0L17.9,82.6L17.4,83.5L17.0,83.8L16.8,84.4L15.4,86.2L14.8,87.4L13.6,88.9L12.5,91.1L11.3,93.1L10.7,94.5L9.9,95.7L9.8,96.2L9.0,97.2L9.2,97.7L9.5,97.9L10.1,98.1L13.0,98.0L17.8,98.1L18.4,97.9L18.6,97.7L19.5,95.9L20.0,95.2L20.6,93.9L21.9,92.0L22.6,90.8L23.5,89.7L25.8,86.2L27.3,84.4L28.2,83.1L30.0,81.1L30.8,80.5L31.5,80.5L33.0,81.3L34.6,82.1L35.2,82.3L36.2,82.8L36.4,83.0L40.1,84.8L41.6,85.3L43.9,86.5L45.3,86.9L46.7,87.7L48.3,88.2L49.8,88.9L50.5,89.0L51.4,89.5L54.1,90.4L55.6,91.0L57.7,91.6L58.9,92.1L62.5,93.2L63.1,93.5L64.2,93.7L64.8,94.0L66.1,94.1L66.6,94.4L68.7,94.9L69.5,95.2L70.6,95.4L71.5,95.7L73.9,96.1L75.1,96.6L76.6,96.9L78.2,97.0L79.1,97.3L80.9,97.5L81.5,97.7L84.0,97.9L84.9,98.1L86.4,98.1L86.8,98.3L87.9,98.2L88.5,98.5L90.1,98.5L90.9,98.7L92.6,98.5L93.1,97.8L93.8,95.2L94.0,93.8L94.6,91.2L94.8,89.2L95.2,88.1L95.2,87.4L95.6,86.1L95.8,84.4L96.2,83.4L96.2,82.4L96.5,81.7L96.7,80.2L96.9,79.7L97.1,78.0L97.3,77.7L97.6,76.2L97.6,75.6L97.9,74.7L98.0,73.3L98.6,70.7L98.8,69.2L99.0,68.6L99.5,68.1L100.1,67.9L102.2,67.7L104.5,67.4L106.5,67.3L107.6,67.0L109.0,67.0L109.3,66.9L112.6,66.7L114.4,66.3L116.6,66.1L117.6,65.8L118.4,65.8L119.1,65.6L118.9,65.4L117.0,65.3L115.8,65.1L110.2,65.0L109.4,64.9L105.5,64.8L104.5,64.6L100.5,64.5L100.1,64.2L100.1,62.5L100.4,61.6L100.5,60.4L100.9,59.2L101.0,58.2L101.3,57.3L101.9,53.6L102.2,52.7L102.2,51.5L102.6,50.3L102.7,49.1L103.0,48.2L103.2,46.7L103.4,46.1L103.5,44.8L103.9,43.4L104.4,40.3L104.7,39.2L104.7,38.4L105.1,36.8L105.2,35.6L105.4,34.9L105.7,32.4L106.1,30.9L106.1,30.3Z M75.7,71.3L75.7,71.9L74.8,76.1L74.5,78.3L74.2,79.2L73.6,82.3L73.5,82.6L73.3,83.7L73.0,85.1L72.6,85.9L71.7,86.9L70.4,87.7L69.3,88.0L66.4,87.8L64.3,87.4L63.2,87.0L62.6,86.9L62.0,86.6L61.3,86.5L59.7,85.9L59.6,85.8L58.8,85.6L57.1,85.0L55.9,84.7L55.3,84.3L54.1,83.9L53.5,83.5L52.9,83.5L51.8,83.1L51.3,82.8L50.6,82.6L48.7,81.8L48.5,81.8L47.9,81.4L46.5,81.0L44.4,79.9L42.8,79.3L37.3,76.5L35.8,75.6L35.8,75.3L36.1,75.1L36.7,74.9L37.6,74.9L38.4,74.7L40.2,74.6L41.6,74.3L43.7,74.2L44.3,74.1L45.7,74.0L48.3,73.5L50.0,73.4L51.5,73.1L53.8,73.0L54.3,72.8L55.7,72.8L57.1,72.5L59.9,72.2L61.1,72.0L62.0,72.0L65.0,71.6L66.2,71.6L68.5,71.2L71.4,71.0L74.0,70.7L75.4,70.7Z M80.0,48.7L80.1,49.4L80.0,50.6L79.7,51.2L79.5,53.2L78.8,56.3L78.7,57.6L78.5,58.1L78.4,58.9L78.1,59.8L77.9,61.3L77.6,62.3L77.4,63.8L77.2,64.3L76.7,64.7L76.2,64.9L74.1,64.9L72.6,65.0L50.0,64.9L48.9,64.8L47.2,64.8L46.9,64.6L47.1,64.0L48.5,62.8L49.2,62.5L49.7,61.9L51.2,61.0L52.1,60.2L52.5,60.0L53.9,58.9L56.1,57.6L56.8,57.0L58.3,56.3L59.0,55.7L60.3,55.0L61.8,53.9L62.2,53.9L62.5,53.6L64.2,52.7L64.6,52.6L65.6,51.9L66.3,51.6L67.2,51.0L69.3,50.1L69.7,49.8L70.3,49.7L72.4,48.5L73.8,48.1L76.5,46.8L77.2,46.6L77.9,46.6L78.8,47.0L79.6,47.8Z" fill="#000" fill-rule="evenodd"/>
</svg>