<svg xmlns="http://www.w3.org/2000/svg" viewBox="0 0 128 128" width="128" height="128">
  <path d="M53.2,76.6L52.7,77.2L51.2,80.6L50.5,81.8L50.0,82.9L49.6,83.5L49.3,84.3L47.7,87.5L47.4,88.6L46.6,89.9L46.3,90.6L45.1,92.9L44.8,93.9L43.1,97.2L42.8,98.0L41.1,101.3L41.1,101.7L39.8,104.2L39.4,105.3L38.9,106.2L38.9,107.0L39.2,107.4L40.2,108.0L41.1,108.4L42.6,109.3L44.0,109.9L48.5,112.6L50.1,113.3L53.3,115.1L54.0,115.3L54.4,115.1L54.4,115.0L54.4,107.6L54.2,105.8L54.3,104.7L54.1,101.6L54.1,96.5L54.0,95.1L54.0,91.9L53.7,86.5L53.7,78.5L53.6,76.9L53.5,76.6Z M98.8,76.1L98.7,84.8L98.9,93.4L98.9,99.1L99.1,104.2L99.4,105.3L101.0,106.3L102.5,106.9L104.8,108.2L105.0,108.4L105.9,108.7L107.3,109.6L109.0,110.4L110.7,111.4L111.7,111.8L112.4,112.4L115.7,113.9L116.7,114.7L118.3,115.4L118.9,115.5L119.1,115.2L118.4,114.0L118.4,113.8L117.2,111.2L116.0,109.1L115.8,108.4L115.0,107.3L114.9,106.8L113.0,103.3L112.1,101.4L111.5,100.5L110.0,97.3L109.6,96.7L109.4,96.0L103.2,84.1L103.2,83.9L102.5,82.5L102.1,81.9L101.4,80.3L101.2,80.1L99.4,76.3L99.1,76.0Z M73.3,72.0L73.1,72.3L73.0,72.7L73.2,79.1L73.4,92.9L73.6,94.1L73.6,101.8L73.8,103.0L74.7,103.8L75.1,103.9L78.4,105.8L79.9,106.5L80.6,107.0L80.9,107.1L81.3,107.4L87.3,110.4L89.8,112.1L91.3,112.8L91.7,113.2L93.1,113.9L93.3,114.1L94.9,114.9L95.3,115.2L96.3,115.7L97.0,115.7L97.2,115.5L97.2,110.4L96.7,93.2L96.8,92.7L96.6,90.5L96.5,74.3L96.4,72.8L96.2,72.4L95.6,72.0L87.7,72.0L83.9,71.8L74.0,71.8Z M75.5,30.0L72.3,36.2L71.4,38.5L70.7,39.9L70.4,40.1L70.3,40.7L68.7,43.7L68.0,45.5L68.0,46.1L69.6,49.4L70.0,50.4L70.9,51.8L71.4,53.2L72.0,54.1L72.7,55.7L72.7,56.2L72.2,56.6L71.3,56.6L64.5,56.6L63.6,56.5L62.6,56.8L62.0,57.7L61.8,58.2L61.0,59.8L59.9,62.4L58.3,65.5L58.1,66.1L57.3,67.7L57.0,68.1L56.6,69.5L57.0,69.9L57.3,69.9L60.0,70.0L67.7,69.9L69.9,70.1L74.4,69.9L85.3,69.9L92.3,70.1L95.4,69.9L95.7,69.7L95.7,69.2L92.8,63.3L91.4,60.6L91.3,60.2L89.5,56.7L89.3,56.5L86.5,50.7L86.0,49.9L85.6,48.9L84.4,46.6L84.3,46.2L83.0,43.6L82.7,43.2L82.1,41.8L81.8,41.4L81.5,40.6L81.0,39.7L79.5,36.6L78.8,35.3L77.8,33.2L76.6,30.9L76.5,30.5L75.9,29.9Z M29.8,13.0L29.4,13.4L29.4,15.5L29.6,18.9L29.5,19.8L29.7,31.2L29.7,37.5L30.0,44.8L30.0,57.4L25.1,68.0L24.1,69.9L23.7,70.7L23.7,71.3L23.2,71.8L22.4,73.3L20.7,77.1L20.3,77.9L19.2,80.5L18.6,81.4L18.1,82.7L17.3,84.3L16.7,85.8L16.5,86.1L16.2,86.9L15.3,88.5L14.8,90.3L14.1,91.1L14.1,91.4L13.8,91.7L13.2,93.3L11.9,95.9L11.8,96.4L11.3,97.2L9.3,101.4L9.1,102.5L9.6,103.0L12.2,104.3L13.9,105.4L15.2,106.0L17.5,107.5L19.0,108.2L19.3,108.5L21.8,109.8L22.4,110.2L25.6,111.9L30.3,114.6L31.5,115.2L32.2,115.3L32.6,115.0L33.1,114.0L33.2,113.6L33.9,112.4L34.7,110.5L35.5,108.9L37.1,105.5L37.4,104.7L39.9,99.8L40.7,97.8L42.2,94.7L42.4,94.2L44.8,89.2L45.0,88.7L49.2,80.1L50.6,76.9L53.4,71.2L53.6,70.4L53.6,67.8L53.3,60.4L53.3,51.5L53.2,48.1L53.2,42.4L53.0,40.3L52.9,25.9L52.2,25.0L51.1,24.4L50.3,23.9L46.6,21.9L45.6,21.5L43.8,20.6L38.2,17.4L37.4,17.0L37.0,16.7L35.7,16.1L30.2,13.0Z M51.3,12.7L50.3,14.4L49.2,17.0L47.6,19.9L47.4,20.4L47.4,21.0L48.1,21.6L48.7,22.0L50.1,22.6L51.4,23.5L54.0,24.8L54.5,25.2L54.8,26.0L55.0,37.0L54.9,38.5L55.5,65.6L55.6,65.8L55.9,65.8L56.2,65.4L57.6,62.6L57.7,62.2L58.0,61.8L58.4,60.7L59.9,57.8L60.5,56.3L61.6,54.3L62.2,52.9L63.0,51.3L63.4,50.1L63.7,49.7L64.7,47.8L64.7,47.6L65.5,45.9L71.4,33.8L72.1,32.2L73.2,30.0L73.2,29.7L74.0,28.3L74.4,27.4L75.1,26.1L75.5,25.7L75.8,25.7L76.3,26.2L80.0,33.6L80.0,33.8L81.5,36.6L81.8,37.4L82.6,38.9L83.0,39.9L85.2,44.0L85.8,45.6L86.4,46.5L88.3,50.3L88.4,50.8L89.5,52.8L92.0,57.8L92.2,58.1L92.9,59.6L93.2,60.0L94.7,63.2L95.8,64.9L96.2,64.8L96.2,58.8L95.9,36.4L96.0,31.8L95.8,28.7L95.9,25.5L95.8,25.0L95.0,24.3L94.2,24.0L92.1,22.7L87.6,20.4L86.0,19.3L84.6,18.7L84.2,18.4L80.5,16.5L73.2,12.5L72.7,12.5L72.5,12.8L72.5,22.4L72.4,22.6L72.0,23.0L71.2,22.8L70.4,22.3L70.0,22.2L68.9,21.7L68.7,21.5L64.7,19.5L64.3,19.2L61.0,17.5L58.9,16.3L57.7,15.7L56.4,14.9L55.1,14.4L54.8,14.1L52.1,12.7Z" fill="#000" fill-rule="evenodd"/>
</svg>