<svg xmlns="http://www.w3.org/2000/svg" viewBox="0 0 128 128" width="128" height="128">
  <path d="M117.9,12.0L117.2,11.4L105.2,11.3L91.9,11.5L85.6,11.4L79.9,11.6L65.6,11.6L60.3,11.8L58.7,12.0L53.5,11.7L24.1,12.0L13.3,11.9L10.9,12.0L10.3,12.3L9.9,12.8L9.7,13.5L9.6,15.7L9.8,55.6L9.6,76.1L9.8,83.5L9.6,93.8L9.7,100.2L9.5,103.4L9.5,115.0L9.7,116.5L10.4,117.0L12.1,117.1L29.5,117.1L39.8,116.9L40.4,117.0L44.7,116.8L88.7,116.8L105.1,116.5L108.3,116.7L116.4,116.7L118.5,116.4L118.8,116.1L118.8,115.3L118.6,114.8L118.7,111.6L118.5,95.3L118.6,69.1L118.4,58.2L118.5,51.8L118.3,45.0L118.4,41.5L118.2,33.9L118.3,29.7L118.1,22.7L118.2,18.5L118.1,13.5Z M29.0,46.9L29.7,46.9L30.5,47.9L33.2,54.5L34.2,56.6L34.5,57.6L35.0,58.6L36.4,62.1L37.4,64.1L37.4,64.4L38.1,66.1L39.5,69.8L41.4,74.5L41.6,74.7L41.7,75.3L43.3,79.3L43.5,79.5L44.5,82.2L44.5,83.3L43.8,83.9L41.7,84.1L39.8,84.0L35.5,84.2L27.8,84.2L25.7,84.4L15.6,84.4L14.5,83.7L14.4,82.7L14.7,81.7L17.1,76.0L17.6,74.3L18.2,73.0L19.0,70.5L19.4,69.9L19.5,69.4L21.7,64.4L23.0,60.7L24.8,56.7L25.1,55.5L25.6,54.5L25.9,53.4L26.9,51.4L27.3,50.1L28.4,47.5Z M115.5,46.5L115.6,46.3L116.0,46.5L115.7,46.7Z M31.8,40.6L32.3,40.2L33.7,39.9L45.4,39.8L47.6,39.6L50.7,39.7L54.0,39.5L60.6,39.5L61.7,39.9L62.7,41.6L63.6,43.5L63.7,44.1L64.7,46.1L65.2,47.6L66.9,51.7L67.2,52.7L69.2,57.2L70.6,60.9L71.2,61.9L71.5,63.2L73.3,67.1L73.3,67.4L74.7,70.5L75.6,73.0L76.2,74.2L77.4,77.5L79.0,81.3L79.0,82.8L78.6,83.2L77.9,83.4L71.5,83.6L64.6,83.6L52.2,83.9L50.0,83.8L49.5,83.6L48.7,82.8L48.1,81.5L47.9,80.7L47.5,80.0L47.4,79.4L46.8,77.9L46.7,76.9L45.9,75.7L45.6,74.6L44.4,71.6L44.3,71.1L43.0,68.4L42.1,65.7L41.7,65.1L40.8,62.7L40.4,62.1L39.8,60.5L39.5,59.9L39.4,59.4L37.9,56.5L37.4,55.0L36.1,52.3L34.6,48.6L34.2,48.0L32.9,44.7L31.7,41.9Z M65.9,40.0L66.4,39.6L67.6,39.4L75.0,39.2L77.7,39.3L85.4,39.0L93.8,39.0L94.7,39.1L95.4,39.5L96.0,40.1L96.9,41.9L100.3,50.1L100.5,50.9L101.4,52.4L102.0,54.3L103.3,57.0L103.8,58.6L104.3,59.3L104.4,59.9L106.2,64.2L107.4,67.6L108.0,68.8L109.0,71.5L109.4,72.2L112.9,81.0L112.8,82.5L112.3,82.9L111.2,83.1L107.0,83.1L98.9,83.3L92.5,83.3L91.2,83.4L84.5,83.3L83.5,83.0L83.0,82.4L81.7,79.9L81.4,78.7L79.5,74.4L79.2,73.4L78.3,71.4L78.3,71.2L77.1,68.7L76.5,66.9L73.7,60.6L73.5,59.5L73.0,58.7L72.9,58.1L72.0,56.6L71.5,55.0L71.1,54.2L69.4,49.8L67.3,45.1L65.8,41.1Z" fill="#000" fill-rule="evenodd"/>
</svg>