<svg xmlns="http://www.w3.org/2000/svg" viewBox="0 0 128 128" width="128" height="128">
  <path d="M49.7,9.4L47.3,9.3L41.6,9.5L35.4,9.5L34.8,9.6L34.7,9.9L36.0,10.9L37.2,12.3L37.3,12.7L37.8,13.3L38.6,14.5L40.3,18.4L41.4,21.9L42.3,26.1L42.8,29.0L43.1,32.4L43.0,37.6L42.4,42.6L41.5,46.8L39.6,52.3L37.6,56.2L36.0,58.6L34.0,60.8L32.2,62.5L31.8,62.6L31.1,63.2L30.2,63.5L28.5,64.3L28.3,64.6L28.4,65.1L30.2,65.8L31.3,66.4L33.4,68.1L35.9,70.6L37.8,73.2L39.7,76.8L40.0,77.7L41.4,81.1L42.6,85.8L43.0,88.2L43.3,89.5L43.6,93.8L43.6,97.6L43.3,101.4L43.1,102.4L42.9,104.1L42.6,104.8L42.6,105.7L41.4,109.8L40.1,112.9L39.2,114.5L38.1,116.2L36.0,118.4L36.0,118.8L36.7,119.0L50.9,119.0L52.2,118.6L55.0,116.8L56.9,115.0L58.4,113.3L59.8,111.4L59.8,111.0L60.7,109.7L61.0,109.1L61.9,107.5L62.3,106.4L62.5,106.1L62.5,105.8L62.9,105.1L62.9,104.8L63.3,104.1L63.4,103.5L64.2,101.5L64.4,100.3L64.7,99.5L64.9,98.5L65.2,97.7L65.3,96.6L65.7,95.1L65.8,93.9L66.0,93.3L66.2,89.9L66.1,85.7L65.6,81.3L64.7,77.4L63.3,73.5L61.1,69.2L59.8,67.3L57.1,64.9L57.1,64.6L58.2,63.6L58.8,63.3L60.3,61.6L62.0,58.9L63.7,55.3L63.8,54.7L64.6,52.3L64.7,51.2L65.1,49.9L65.7,45.9L65.9,43.5L65.9,40.1L65.7,37.2L65.2,34.5L65.1,32.9L63.9,28.3L63.8,28.1L63.4,26.7L63.0,25.9L63.0,25.5L62.5,24.4L62.0,23.0L61.7,22.7L61.6,22.0L60.3,19.6L58.5,16.6L56.7,14.3L53.7,11.4L51.7,10.1L50.7,9.6Z M53.2,78.9L53.8,79.0L54.5,79.5L54.8,80.3L54.8,80.7L55.4,82.9L55.8,86.3L55.8,93.1L55.2,97.6L54.9,98.5L54.9,99.0L54.6,99.7L54.1,102.1L53.6,103.3L52.8,105.9L52.2,107.1L52.0,107.7L51.7,108.1L51.4,108.0L51.9,106.6L52.2,104.6L52.5,103.5L53.1,99.8L53.1,98.2L53.2,97.6L53.3,92.7L53.1,89.3L52.8,87.5L52.4,85.8L52.4,85.2L51.6,82.0L51.0,80.5L50.9,79.5L51.3,79.0Z M46.8,58.5L50.2,58.5L50.5,58.6L50.8,59.0L50.4,59.9L49.3,61.4L47.5,63.1L45.9,64.2L45.4,64.3L45.3,64.9L45.5,65.1L46.2,65.4L48.0,66.7L49.9,68.6L50.7,69.9L50.7,70.4L50.1,70.8L46.8,70.7L46.2,70.5L44.2,68.2L42.6,66.8L41.1,65.7L39.6,65.0L39.4,64.6L41.6,63.3L43.4,62.0L45.3,60.0L45.8,59.2Z M50.6,20.6L51.0,20.6L51.2,21.3L51.7,22.0L53.2,25.9L53.7,27.8L54.8,32.0L55.4,36.9L55.5,43.5L55.1,46.6L54.3,49.6L53.6,50.1L53.2,50.2L51.4,50.2L51.1,50.1L50.8,49.8L50.8,49.2L51.2,48.2L51.3,47.5L51.9,45.4L52.2,43.2L52.3,42.9L52.8,38.5L52.8,34.6L52.6,32.5L52.6,30.6L52.3,29.4L52.3,28.8L51.4,24.0L50.6,21.0Z M59.3,9.4L58.9,9.8L61.1,11.4L62.5,12.8L65.3,16.6L65.6,17.3L66.0,17.8L68.0,21.9L69.1,25.0L70.3,29.9L70.8,33.4L70.9,37.0L70.8,41.0L70.1,46.5L69.1,50.8L68.3,53.0L67.7,54.1L67.5,54.9L66.6,56.7L66.4,56.9L66.0,57.9L63.7,60.9L62.1,62.4L58.5,64.6L58.5,64.8L58.9,65.2L59.4,65.3L60.4,65.9L62.0,66.9L64.1,69.0L65.9,71.4L67.5,74.4L67.6,74.8L68.8,77.4L69.9,81.2L70.9,86.4L71.3,90.4L71.2,95.2L70.9,97.7L70.4,100.7L69.5,104.3L68.3,107.6L68.2,108.3L67.3,110.0L66.9,111.3L65.3,113.7L63.9,115.4L62.2,117.1L60.3,118.6L60.3,118.9L60.8,119.0L71.3,119.1L72.6,118.7L73.0,118.4L75.1,117.4L76.6,116.3L78.5,114.8L79.8,113.5L81.3,111.7L81.5,111.2L83.1,109.2L83.9,107.6L84.5,107.0L85.3,105.2L85.8,104.4L86.7,102.4L87.9,99.5L88.6,97.1L88.6,96.8L89.2,95.1L89.8,92.3L89.9,92.0L90.2,91.9L90.3,94.0L90.0,96.1L89.9,97.8L89.3,101.2L87.8,105.9L86.5,109.0L86.0,109.7L85.8,110.3L85.4,111.3L85.0,111.6L84.9,112.1L82.3,115.6L80.1,117.6L78.5,118.6L78.6,118.9L78.8,119.0L85.1,119.2L87.5,118.9L89.6,117.9L90.5,117.2L92.3,115.6L93.7,113.9L95.1,111.8L96.4,109.4L96.4,109.2L96.8,108.4L97.8,105.7L98.6,103.2L98.6,102.2L99.1,100.8L99.2,99.7L99.5,99.0L99.7,97.3L99.7,96.3L99.9,94.4L99.9,89.1L99.7,87.7L99.7,86.7L98.7,81.8L98.2,79.9L98.0,79.5L97.3,77.4L95.9,74.4L94.7,72.5L94.6,72.2L93.8,71.2L93.7,70.8L93.0,69.9L90.5,67.1L90.3,67.1L90.0,66.7L88.8,65.7L87.6,65.1L87.4,64.7L87.4,64.6L87.6,64.3L88.5,63.8L90.0,62.8L91.3,61.6L93.3,59.4L95.1,56.7L95.6,55.5L95.9,55.2L96.7,53.6L96.9,52.8L97.2,52.5L97.4,51.5L98.2,49.8L99.1,46.2L99.1,45.6L99.6,43.0L99.9,39.5L99.9,33.8L99.7,33.1L99.4,29.8L98.9,27.9L98.6,26.2L96.9,21.1L95.2,17.5L94.1,15.6L92.7,13.8L92.4,13.3L90.0,11.0L88.3,9.9L87.3,9.4L86.4,9.2L78.3,9.1L77.4,9.3L77.4,9.6L77.6,9.8L78.3,10.1L80.2,11.5L82.9,14.3L84.7,17.0L84.9,17.5L85.3,17.9L85.4,18.4L86.1,19.5L88.1,24.6L89.4,29.1L89.9,32.0L90.2,35.1L90.2,37.8L90.0,37.7L89.8,37.3L89.3,34.6L88.9,33.4L88.6,32.2L88.4,31.8L88.3,31.1L87.1,28.1L86.9,27.3L86.6,26.8L86.1,25.5L85.2,23.7L84.5,22.5L84.2,21.9L83.4,20.9L83.2,20.4L82.3,19.1L81.9,18.4L79.7,15.7L79.6,15.4L77.9,13.6L76.1,12.2L73.8,10.5L71.9,9.5L70.7,9.2L69.3,9.1Z M81.4,37.6L81.5,37.8L82.1,40.0L82.1,40.5L82.3,41.3L82.4,42.6L82.7,43.7L82.7,45.2L82.7,49.5L82.1,52.9L80.7,57.1L79.9,58.7L79.0,60.0L78.8,60.5L78.1,61.6L76.9,62.9L75.6,64.0L74.8,64.3L74.7,64.5L74.7,64.8L76.5,66.1L77.8,67.4L79.0,69.1L80.2,71.3L81.0,73.2L82.2,76.8L82.7,80.7L82.8,84.5L82.3,88.6L82.0,90.2L81.8,90.8L81.4,90.8L81.3,87.0L80.5,82.1L79.1,77.2L78.8,76.9L78.8,76.4L78.1,75.1L77.9,74.4L76.6,71.7L76.1,71.3L76.1,71.0L75.7,70.7L75.0,69.5L74.4,68.7L71.6,66.2L69.3,64.8L69.3,64.6L69.5,64.3L70.4,63.9L72.5,62.5L74.4,60.7L75.6,59.2L77.8,55.3L79.2,51.3L80.3,47.5L81.0,43.1L81.0,37.7Z" fill="#000" fill-rule="evenodd"/>
</svg>