<svg xmlns="http://www.w3.org/2000/svg" viewBox="0 0 128 128" width="128" height="128">
  <path d="M111.6,28.5L109.3,26.2L107.3,24.5L104.7,22.6L102.6,21.6L102.1,21.2L101.9,21.2L100.3,20.4L99.2,20.2L98.5,19.8L97.5,19.6L97.1,19.4L95.1,18.8L94.0,18.8L92.1,18.3L88.8,18.1L83.8,18.4L79.7,19.3L78.7,19.7L77.9,19.8L77.3,20.2L76.7,20.3L75.9,20.7L75.7,20.7L71.9,22.6L68.1,25.3L66.8,26.5L64.9,28.1L64.4,28.1L64.1,27.9L60.8,24.9L59.1,23.7L58.7,23.6L58.0,23.0L56.5,22.1L53.8,20.8L51.1,19.7L50.4,19.6L48.2,18.9L42.8,18.2L40.9,18.1L37.1,18.4L36.2,18.7L34.1,18.9L32.7,19.3L31.6,19.7L31.2,19.7L27.3,21.3L24.1,23.2L21.5,24.9L17.8,28.5L16.8,29.7L14.5,32.9L14.1,33.8L12.7,36.3L11.6,39.2L10.5,43.0L10.1,46.1L9.9,48.2L9.8,52.7L9.8,69.8L9.6,73.6L9.5,86.0L9.4,88.2L9.4,92.4L9.3,102.6L9.4,103.9L9.9,105.4L10.9,107.2L11.9,108.2L13.9,109.5L16.4,110.1L17.9,110.1L19.2,109.9L20.4,109.5L21.7,108.7L23.6,107.0L24.2,106.0L24.9,104.1L25.2,101.8L25.3,70.1L25.5,64.1L25.5,53.2L25.7,48.8L26.1,45.8L27.1,42.9L29.0,39.7L30.9,37.6L33.8,35.6L35.8,34.7L37.0,34.5L37.5,34.2L40.6,33.8L41.8,33.8L44.0,34.0L45.6,34.4L47.8,35.2L50.9,37.1L53.1,39.2L54.1,40.7L55.3,42.9L56.2,45.6L56.5,47.4L56.6,57.3L56.4,63.7L55.7,64.2L53.9,64.3L42.5,64.1L36.9,64.2L34.5,64.6L34.3,64.8L32.8,65.3L32.0,65.7L31.0,66.7L29.8,68.1L29.4,69.0L29.0,70.5L28.9,73.1L29.6,75.4L30.4,76.8L31.6,78.0L32.5,78.6L33.6,79.2L34.5,79.5L37.1,79.8L54.6,79.8L55.8,79.8L56.3,80.4L56.3,89.9L56.1,96.7L56.1,102.9L56.3,104.4L56.8,105.6L57.7,107.3L59.0,108.4L60.7,109.5L62.1,109.9L63.1,110.1L64.5,110.1L66.6,109.6L67.6,109.2L69.4,107.8L70.6,106.2L71.5,103.9L71.8,102.1L71.8,98.0L71.9,95.6L71.9,91.7L72.1,88.1L72.1,81.7L72.2,80.1L72.5,79.7L73.0,79.4L73.9,79.3L86.6,79.2L90.0,79.1L93.2,78.6L94.0,78.3L95.2,78.2L98.3,77.2L99.9,76.6L103.5,74.7L107.5,72.0L109.5,70.2L111.4,68.2L113.3,65.8L114.4,64.0L114.8,63.4L116.6,59.9L117.4,57.4L117.7,57.0L118.4,54.1L118.8,51.3L118.9,49.8L118.8,45.1L118.6,43.8L118.4,43.0L118.4,42.2L117.8,39.8L117.4,39.1L117.2,38.1L115.8,34.7L113.9,31.4Z M99.4,38.3L100.9,40.1L101.2,40.7L101.9,41.7L102.2,42.9L102.5,43.1L103.2,45.9L103.2,46.8L103.4,47.2L103.4,49.7L103.2,51.0L102.8,52.3L102.8,52.7L101.7,55.1L100.5,57.2L98.3,59.6L96.8,60.9L95.2,61.9L92.8,62.9L90.0,63.6L87.8,63.9L75.7,64.0L73.0,63.9L72.5,63.4L72.3,63.1L72.3,59.6L72.5,56.5L72.5,50.5L72.7,46.6L73.5,43.6L74.7,41.2L76.4,38.8L78.1,37.1L80.1,35.9L80.2,35.7L82.9,34.5L85.9,33.7L87.3,33.5L88.9,33.5L90.8,33.7L91.5,33.9L92.0,33.9L95.2,35.1L96.9,36.1Z" fill="#000" fill-rule="evenodd"/>
</svg>