<svg xmlns="http://www.w3.org/2000/svg" viewBox="0 0 128 128" width="128" height="128">
  <path d="M30.3,97.0L30.3,97.5L31.7,98.3L32.3,98.5L32.7,98.8L33.7,99.2L34.4,99.6L36.4,100.5L41.1,102.2L45.3,103.4L46.6,103.7L48.5,104.2L51.2,104.7L51.6,104.7L52.2,105.0L55.9,105.4L56.9,105.6L60.6,105.8L65.2,105.9L67.0,105.7L69.3,105.7L71.5,105.4L72.5,105.4L75.9,105.0L80.5,104.1L84.0,103.1L84.3,103.1L85.0,102.8L85.2,102.6L85.2,101.8L83.6,98.9L83.5,98.3L81.4,94.2L80.8,93.3L80.8,93.1L80.6,92.9L79.1,89.8L78.5,88.8L78.0,87.5L77.1,86.1L77.1,85.7L75.8,83.2L75.5,82.9L75.1,82.9L74.6,83.7L72.8,87.2L72.1,88.4L71.4,89.9L70.7,90.9L70.1,92.2L70.1,92.6L69.4,93.6L66.6,99.4L66.0,100.4L63.9,104.6L63.6,104.8L63.2,104.7L63.0,104.5L62.3,103.1L61.6,101.9L61.6,101.5L61.3,101.1L60.7,99.9L59.6,97.9L59.5,97.5L58.5,95.5L58.3,95.3L57.6,93.7L57.0,92.9L56.8,92.1L56.2,91.1L56.1,90.7L53.6,86.0L49.3,77.2L49.0,76.8L46.3,71.1L45.5,69.8L45.4,69.4L45.0,68.9L44.7,68.9L44.5,69.1L43.5,71.1L43.1,71.7L41.9,73.9L41.4,75.3L40.8,76.1L39.4,79.1L38.0,81.6Z M56.6,45.8L56.3,45.9L54.6,49.2L54.6,49.8L54.9,50.5L55.7,52.2L55.9,52.5L57.2,55.2L57.9,56.3L58.0,56.8L59.0,58.4L60.6,62.0L61.1,62.7L62.1,64.9L62.3,65.1L63.1,67.0L63.7,67.8L64.7,70.2L65.3,71.1L65.4,71.5L67.8,76.3L68.1,76.7L69.8,80.1L70.0,80.6L70.5,81.5L70.7,81.8L71.1,81.8L71.3,81.6L71.8,80.5L72.4,79.8L72.6,79.0L73.0,78.3L73.0,77.5L72.3,76.0L72.1,75.8L68.5,68.6L66.8,65.5L66.7,65.1L66.5,64.9L65.0,61.6L64.7,61.3L64.5,60.7L64.0,59.9L63.4,58.6L62.4,56.6L62.2,56.3L60.8,53.3L60.1,52.2L59.2,50.3L59.0,49.8L58.7,49.4L58.2,48.1L57.3,46.6L57.1,46.0Z M101.0,32.7L100.6,33.0L100.2,33.7L97.4,39.3L96.7,40.6L96.1,41.9L95.0,43.8L93.3,47.3L92.6,48.5L91.7,50.5L91.4,50.9L89.9,53.9L89.7,54.2L89.3,55.2L85.3,63.0L85.2,63.4L85.2,64.3L86.6,67.2L86.8,67.4L87.6,69.4L88.8,71.7L89.1,72.1L91.1,76.2L91.9,77.7L92.6,79.3L93.5,80.7L95.0,83.9L95.4,84.5L96.9,87.6L98.3,90.3L100.7,95.0L101.0,95.4L101.7,95.4L105.2,93.0L107.3,91.2L109.7,88.8L109.8,88.6L110.5,87.8L112.6,85.2L113.1,84.5L113.1,84.2L114.0,83.0L114.6,81.7L115.2,80.9L115.4,80.2L116.4,78.3L116.5,77.6L117.2,76.2L118.5,71.2L119.1,67.4L119.2,62.2L118.9,59.4L118.7,58.6L118.5,57.2L117.4,52.9L116.9,51.8L116.7,50.9L116.2,49.8L116.1,49.3L114.7,46.5L114.0,45.5L113.8,45.0L112.2,42.6L109.6,39.4L107.1,36.9L105.6,35.6L102.1,33.0L101.4,32.7Z M26.9,32.5L26.3,32.5L24.9,33.4L23.0,34.7L19.9,37.4L17.9,39.6L16.5,41.3L14.5,44.3L12.1,48.9L11.0,52.2L10.7,52.8L9.6,57.2L9.1,62.1L9.1,65.6L9.2,66.4L9.2,67.7L9.4,69.3L10.0,72.4L11.2,76.6L12.5,79.5L12.5,79.7L13.3,81.4L15.1,84.5L15.5,84.9L17.2,87.3L20.8,91.2L22.6,92.8L25.4,94.9L26.2,95.3L26.5,95.3L26.8,95.0L27.0,94.5L27.3,94.3L27.4,93.7L28.6,91.7L28.7,91.2L30.3,88.2L31.0,86.8L31.2,86.6L31.8,85.1L33.4,82.2L36.5,76.0L36.9,75.4L37.7,73.8L38.0,73.4L38.7,71.7L39.3,70.7L39.4,70.3L39.7,70.1L41.1,67.0L41.8,66.0L42.5,64.2L42.5,63.5L41.9,62.2L41.6,61.8L36.3,50.9L35.2,49.0L32.4,43.1L31.7,42.1L31.1,40.7L29.6,37.7L29.5,37.4L29.0,36.7L28.6,35.5L27.4,33.4L27.3,33.0Z M42.8,25.6L42.8,26.1L43.5,27.6L43.6,28.0L46.8,34.4L47.1,34.7L47.8,36.4L48.9,38.4L49.2,39.2L50.0,40.7L51.9,44.5L52.3,44.6L52.6,44.5L52.9,43.8L53.1,43.6L54.5,40.7L54.8,40.3L55.2,39.1L55.6,38.8L56.6,36.6L56.8,36.4L58.3,33.1L61.3,27.6L61.3,27.3L62.0,26.3L62.6,24.9L62.9,24.6L63.4,23.5L63.7,23.3L64.0,23.3L64.6,23.9L64.7,24.3L65.0,24.6L65.2,25.3L65.8,26.3L66.4,27.7L67.0,28.7L68.0,30.7L68.8,32.1L69.2,33.1L70.4,35.4L71.4,37.6L72.1,38.7L75.1,44.8L75.7,45.6L75.8,46.2L77.1,48.8L77.5,49.2L78.5,51.5L78.8,51.9L82.2,58.6L82.5,58.9L82.9,58.9L83.0,58.7L83.5,57.6L83.9,57.2L84.0,56.6L85.5,53.9L86.2,52.5L86.4,52.2L87.6,49.8L88.0,49.1L89.9,45.1L90.6,43.9L91.9,41.2L92.3,40.7L94.6,36.1L95.3,35.0L97.2,31.2L97.2,30.8L96.9,30.4L95.3,29.6L95.0,29.5L94.5,29.2L92.7,28.5L92.5,28.3L91.9,28.1L91.2,27.7L88.2,26.7L86.6,26.0L83.3,25.1L82.4,24.9L81.7,24.6L80.6,24.5L79.9,24.2L78.9,24.1L78.2,23.9L77.2,23.8L74.7,23.3L73.8,23.3L70.8,22.8L67.9,22.6L61.6,22.4L56.6,22.6L53.2,23.0L48.3,23.9L47.4,24.2L44.4,24.8L43.1,25.3Z" fill="#000" fill-rule="evenodd"/>
</svg>