<svg xmlns="http://www.w3.org/2000/svg" viewBox="0 0 128 128" width="128" height="128">
  <path d="M80.2,75.4L79.7,75.7L79.7,75.9L80.4,77.4L80.6,77.4L80.7,75.5L80.6,75.4Z M67.8,74.3L67.4,74.6L67.4,74.8L67.8,75.4L67.9,76.0L68.2,76.2L68.3,74.5L68.2,74.3Z M67.2,14.1L66.9,14.1L66.7,14.3L64.9,17.8L64.3,18.8L63.6,20.4L63.1,21.2L63.1,21.4L62.9,21.6L62.0,23.5L61.3,24.6L61.2,25.1L60.9,25.5L60.7,26.0L59.6,27.8L58.6,30.0L58.0,30.9L57.0,33.1L56.8,33.3L56.6,33.9L56.3,34.2L55.4,36.4L55.0,36.9L54.5,38.1L54.3,38.4L53.8,39.2L53.7,39.7L53.0,40.8L47.8,51.5L43.2,60.3L42.8,61.5L42.2,62.4L39.9,67.1L38.9,68.9L38.2,70.4L37.9,70.9L37.8,71.3L37.4,71.7L35.2,76.4L34.6,77.3L34.4,78.0L33.8,78.9L32.7,81.1L31.4,83.5L30.9,84.6L30.5,85.1L28.0,90.3L27.7,90.7L26.0,94.2L25.3,95.4L22.4,101.2L22.2,101.4L20.7,104.5L20.4,105.0L19.9,106.1L17.0,111.6L16.4,112.2L15.9,112.4L11.6,112.3L9.4,112.4L9.0,112.9L9.0,113.4L9.2,113.8L26.1,113.7L26.4,113.5L26.5,113.0L26.5,112.4L26.1,112.1L21.7,112.3L20.0,112.2L19.8,111.7L22.3,106.9L22.6,106.2L23.1,105.3L23.7,103.9L25.2,101.2L25.3,100.7L26.0,99.7L26.1,99.2L28.3,94.9L28.6,94.6L28.7,94.1L29.2,93.3L32.4,86.8L34.3,83.3L34.6,82.5L35.1,81.7L36.2,79.3L36.6,78.9L36.6,78.5L36.9,78.1L37.6,76.7L38.2,75.6L39.4,73.2L39.6,72.7L40.4,71.3L40.4,71.0L41.1,69.9L41.2,69.6L41.6,69.2L41.9,69.3L42.0,75.4L41.8,91.6L41.8,112.2L41.7,112.6L41.5,112.8L41.0,113.0L39.4,113.0L39.2,113.2L39.3,113.5L39.7,113.6L45.4,113.5L49.7,113.7L77.4,113.7L78.4,113.6L79.0,113.3L80.2,113.0L82.1,112.1L84.6,110.0L86.4,107.6L87.0,106.1L87.8,103.8L88.0,102.3L88.0,100.3L87.6,97.8L87.1,96.5L86.2,94.6L85.1,93.1L83.7,91.6L81.5,89.9L80.5,89.5L80.2,89.2L80.2,89.0L80.7,88.6L81.9,87.8L83.1,86.9L83.6,86.2L84.1,85.8L85.3,83.6L85.8,82.0L86.2,79.2L86.0,77.9L86.1,77.3L86.3,77.3L88.1,80.9L89.4,83.8L90.4,85.8L92.2,89.8L93.2,91.8L94.2,94.1L94.6,94.9L94.7,95.2L94.9,95.5L95.7,97.4L96.5,98.9L96.6,99.3L98.0,102.3L98.7,103.9L99.3,104.9L99.4,105.5L100.5,107.6L100.6,108.0L101.8,110.4L102.2,111.6L102.6,112.2L102.6,112.5L102.2,112.8L94.1,112.7L93.9,112.8L93.6,113.1L93.7,113.6L94.0,113.8L95.0,113.9L100.2,113.9L114.5,114.3L118.7,114.3L119.2,113.9L119.2,113.4L118.9,113.1L118.6,113.0L112.8,113.0L112.5,112.8L111.8,111.3L111.5,110.7L111.1,109.7L110.1,107.7L109.8,106.9L109.2,105.8L108.3,103.6L107.6,102.5L107.6,102.1L106.3,99.6L106.2,99.3L105.6,98.1L105.5,97.7L103.4,93.3L103.2,92.8L102.7,91.9L101.8,89.6L99.4,84.9L99.4,84.7L98.5,82.8L98.1,81.7L97.5,80.6L97.4,80.2L96.9,79.3L94.9,74.8L94.2,73.6L94.0,72.9L93.4,71.8L93.3,71.3L92.1,69.0L92.0,68.6L91.3,67.3L90.5,65.3L89.7,63.8L89.7,63.6L89.3,63.0L89.1,62.3L88.1,60.3L88.0,59.9L87.2,58.4L86.8,57.3L86.5,56.8L86.3,56.2L85.7,55.1L85.4,54.3L84.4,52.3L84.2,51.6L83.9,51.2L82.5,47.8L81.5,45.8L81.4,45.4L81.0,44.7L80.2,42.6L79.5,41.4L78.8,39.6L78.3,38.8L78.2,38.1L77.9,37.7L76.6,34.5L76.3,34.1L75.8,32.7L74.7,30.5L74.1,28.9L73.1,26.9L73.0,26.5L70.6,21.6L70.4,20.9L68.7,17.4L68.4,16.5L68.1,16.1L67.6,14.7Z M44.9,112.0L45.4,111.5L58.3,111.5L59.8,111.9L61.0,112.1L61.1,112.2L62.6,112.4L62.9,112.6L62.8,112.8L62.4,112.9L47.5,112.9L45.1,112.7L44.9,112.4Z M60.7,111.6L60.8,111.5L64.8,111.4L70.1,111.5L70.3,111.7L70.0,111.9L69.1,112.0L68.8,112.1L67.8,112.3L64.3,112.4L61.0,112.0Z M48.2,111.0L48.3,110.7L56.3,110.7L56.5,110.9L56.1,111.1L50.3,111.1Z M58.4,110.7L67.1,110.6L70.7,110.8L70.6,111.0L70.1,111.0L58.6,111.0L58.5,111.0Z M54.9,109.8L54.8,110.1L51.2,110.0L51.3,109.8L51.6,109.7L54.6,109.7Z M45.1,106.5L45.3,106.7L45.2,108.2L45.3,109.1L45.3,110.5L45.1,110.7L44.9,110.6L44.9,106.9Z M54.7,109.1L54.9,108.9L55.9,108.8L56.0,108.6L55.9,108.3L55.3,108.3L55.2,108.0L55.4,107.8L56.2,107.7L58.2,107.6L58.3,107.4L58.0,107.2L57.7,107.1L57.7,106.8L57.8,106.7L58.8,106.8L60.4,108.0L60.5,108.3L61.2,108.6L61.5,108.6L60.6,108.1L59.7,107.1L59.7,106.9L60.2,106.6L60.2,106.1L60.4,105.8L69.5,105.8L70.9,105.9L71.1,106.0L71.1,106.3L70.6,107.2L69.2,108.6L68.7,108.9L68.4,108.9L67.7,109.2L66.5,109.4L64.9,109.5L63.5,109.4L62.1,109.0L62.2,109.1L63.7,109.7L63.9,109.8L63.8,110.0L63.6,110.1L56.4,110.1L55.2,109.5Z M75.3,105.6L75.3,106.9L75.0,107.2L74.6,107.4L74.7,107.8L75.0,107.8L75.2,108.0L75.0,108.5L74.0,109.4L72.3,110.5L71.7,110.5L71.6,108.7L71.3,108.8L71.0,109.4L70.6,109.9L70.0,110.1L66.8,110.0L66.8,109.9L67.0,109.7L67.6,109.6L68.2,109.2L68.4,109.2L70.3,108.1L72.2,106.1L72.7,105.9L74.4,105.9L75.1,105.5Z M48.2,103.9L48.2,106.2L48.0,108.3L47.9,105.8Z M70.1,99.4L70.4,100.1L70.4,101.2L70.3,101.7L69.8,102.4L69.8,102.8L70.0,102.7L70.9,102.1L71.0,102.1L71.3,102.4L71.7,103.6L71.7,105.0L71.4,105.4L70.7,105.6L63.5,105.5L62.6,105.3L62.7,105.1L63.2,105.0L63.2,104.3L64.1,104.3L64.5,104.2L64.4,103.9L64.1,103.8L63.8,103.5L63.8,101.1L63.9,100.2L64.0,100.1L64.3,100.1L64.3,100.9L64.7,101.9L65.2,102.5L65.9,103.1L66.4,103.1L66.0,102.6L66.0,102.3L66.4,102.1L66.5,101.8L65.9,101.4L65.9,100.7L66.1,100.6L66.3,100.6L66.7,100.9L66.8,101.2L66.8,101.6L67.2,102.5L67.3,103.5L67.6,104.4L67.8,104.4L68.1,103.8L68.4,103.5L68.2,102.9L68.4,102.4L68.8,101.7L68.8,100.8L69.3,100.1L69.6,99.4L69.8,99.3L70.0,99.3Z M68.7,96.8L68.9,96.9L68.9,97.1L68.7,97.6L68.9,97.6L69.0,97.8L68.7,99.4L68.6,99.7L68.4,99.8L68.1,99.6L67.8,98.2L67.8,97.8L67.7,97.4L67.7,97.0L67.8,96.8Z M45.2,94.9L45.3,95.4L45.3,106.0L45.0,106.1L44.9,95.2Z M67.2,91.8L67.4,92.0L67.4,92.6L67.0,92.8L66.8,92.5L66.7,92.1L67.0,91.8Z M62.9,91.4L63.2,91.5L63.4,91.9L63.5,102.9L63.3,103.5L63.1,103.7L62.8,103.7L62.5,103.4L62.5,93.8L62.6,91.7Z M73.1,91.3L73.4,91.6L73.3,98.5L73.3,98.7L72.8,98.8L72.5,98.5L72.4,97.9L72.4,92.8L72.5,91.7L72.8,91.3Z M80.8,90.5L81.8,91.5L82.3,92.1L83.2,93.8L83.9,95.6L84.5,98.7L84.5,102.0L84.2,104.4L83.5,107.2L82.8,108.3L82.7,108.9L81.9,110.0L80.7,111.3L79.9,111.9L78.2,112.6L75.5,112.9L71.8,112.9L68.7,112.7L68.7,112.5L71.2,112.0L72.5,111.5L72.8,111.5L73.6,111.0L74.3,110.8L74.6,110.5L73.9,110.8L73.6,110.8L73.3,111.0L73.1,111.0L72.7,111.0L72.8,110.8L74.4,109.7L76.1,108.1L76.4,107.9L77.6,108.0L77.5,108.6L78.2,108.4L78.9,108.7L79.1,108.6L79.2,108.0L79.1,106.2L78.9,106.3L78.6,107.0L78.2,107.3L77.4,107.2L77.2,106.9L77.2,106.6L77.7,105.2L78.1,104.6L78.3,103.8L78.6,103.4L79.2,101.2L79.4,100.9L79.9,96.1L79.9,94.8L80.1,93.7L80.1,90.7L80.2,90.5Z M66.2,90.1L66.6,90.1L67.0,90.7L66.9,91.1L66.7,91.4L66.2,91.4L66.0,91.2L66.1,90.2Z M77.5,89.9L77.7,90.1L77.7,97.0L77.5,102.9L77.4,103.1L77.2,103.2L77.2,90.6L77.2,90.0Z M62.8,89.8L63.2,89.8L63.3,89.9L63.3,90.4L63.1,90.6L62.7,90.5L62.6,89.9Z M72.8,89.6L73.1,89.6L73.3,89.9L73.3,90.4L73.1,90.6L72.5,90.5L72.5,90.0Z M70.3,89.6L70.4,89.6L70.7,89.9L70.6,90.7L70.3,90.9L70.2,90.7L70.2,90.4L70.0,90.1Z M68.4,89.6L68.8,89.6L69.2,90.0L69.5,91.2L69.5,91.6L69.3,91.8L68.8,91.6L68.4,91.0L68.1,90.2L68.1,89.7Z M77.5,87.3L77.7,87.6L77.6,88.5L77.3,88.4L77.2,87.7Z M62.8,85.9L63.1,86.1L63.4,87.4L63.3,88.5L62.9,88.8L62.6,88.5L62.6,86.1Z M77.5,85.0L77.6,86.3L77.3,86.9L77.2,85.5Z M64.7,84.7L65.4,86.1L65.4,86.6L65.2,86.8L65.1,86.8L64.8,86.6L64.5,85.3L64.5,84.9Z M73.2,82.0L73.4,82.1L73.5,82.4L73.4,88.4L73.1,88.7L72.8,88.8L72.5,88.4L72.5,84.5L73.1,82.2Z M72.7,80.1L72.9,80.1L73.0,80.4L72.8,80.9L72.6,80.9L72.5,80.8L72.5,80.3Z M50.8,72.3L50.9,72.1L51.4,71.9L54.3,71.9L54.6,72.2L54.4,72.4L51.1,72.5Z M45.6,71.5L45.6,82.9L45.6,85.3L45.4,85.8L45.1,86.1L45.1,79.0L45.3,73.2L45.3,72.0Z M58.2,71.2L58.3,71.0L58.8,70.8L67.9,70.8L70.1,70.9L70.9,71.1L70.8,71.3L69.5,71.4L59.1,71.4L58.4,71.3Z M48.4,71.1L48.7,70.8L56.2,70.8L56.5,71.0L56.3,71.3L54.8,71.4L48.6,71.4Z M81.0,71.0L82.4,72.5L83.0,73.7L83.5,75.1L83.8,76.8L83.8,80.2L83.7,82.0L83.4,83.4L82.8,84.9L82.2,85.9L81.8,86.5L80.8,87.4L80.3,87.7L79.9,87.6L79.8,87.2L79.6,85.0L79.3,84.1L79.1,82.5L78.9,82.2L78.4,79.9L78.1,79.2L78.0,78.5L77.3,77.1L77.4,74.9L77.7,74.6L78.3,74.5L78.3,74.2L76.1,74.1L75.9,74.0L75.1,73.3L75.2,73.8L74.6,74.3L74.7,74.5L75.2,74.6L75.5,74.8L75.6,77.0L75.5,77.9L75.1,78.4L73.7,78.5L73.1,79.3L72.3,79.5L72.2,79.7L72.2,83.1L72.0,85.3L71.6,86.9L71.3,87.2L71.0,87.1L70.7,86.8L70.5,86.8L70.8,88.4L70.3,88.9L69.7,88.9L69.1,88.6L68.7,88.6L68.4,88.8L67.9,88.8L67.8,88.6L67.8,88.4L66.9,87.2L66.7,86.5L66.9,85.9L66.2,85.4L64.3,79.9L63.9,79.5L63.3,79.4L62.6,78.5L62.0,78.3L61.8,78.1L61.8,77.7L62.2,77.4L62.1,77.3L60.1,77.0L59.9,76.9L59.9,76.7L60.2,76.4L60.2,76.1L59.6,75.9L59.6,75.7L60.4,75.1L62.3,74.3L63.7,74.0L64.5,74.0L64.5,73.9L62.0,74.0L60.0,74.7L58.4,75.9L57.9,75.9L57.7,75.7L57.8,75.5L58.1,75.4L58.1,75.1L55.8,74.9L55.6,74.7L55.8,74.6L56.3,74.4L56.1,74.1L53.6,74.0L53.6,73.8L54.0,73.3L54.9,72.9L61.0,72.8L68.3,72.8L68.5,72.9L69.0,73.4L69.2,74.2L69.5,74.4L69.7,73.6L69.5,72.6L69.1,72.4L56.6,72.5L56.2,72.4L56.0,72.3L56.1,72.1L56.5,71.9L70.3,71.8L70.6,71.9L71.1,72.2L71.4,72.9L71.7,72.7L71.7,72.1L71.9,71.6L72.4,71.5L72.9,71.8L73.3,71.8L72.5,71.2L70.3,70.4L67.2,70.2L62.0,70.3L61.7,70.2L61.8,69.9L62.1,69.8L62.8,69.8L65.9,69.3L68.0,69.4L69.1,69.7L70.3,69.9L73.0,70.7L73.3,71.0L73.9,71.1L74.2,71.3L74.3,71.3L73.9,70.9L72.1,70.0L71.0,69.6L69.4,69.3L69.2,69.1L69.2,68.9L75.3,68.8L76.6,69.0L79.0,69.7Z M62.1,69.2L61.5,69.4L59.7,69.8L59.0,70.2L57.4,70.3L45.8,70.2L45.5,70.1L45.3,69.8L45.3,69.3L45.6,69.1L46.4,68.9L61.9,68.9Z M42.3,67.5L42.6,67.2L42.9,67.1L81.5,67.2L81.7,67.2L82.2,67.9L82.4,68.4L82.7,69.0L83.5,71.0L84.3,72.5L84.2,72.8L84.0,72.8L82.3,70.9L81.0,69.9L79.9,69.2L78.6,68.6L76.2,68.1L50.8,68.1L43.7,68.0L42.5,68.0L42.3,67.8Z M63.2,26.5L63.5,26.7L65.2,30.6L65.5,31.0L65.6,31.6L65.9,32.0L66.5,33.6L70.0,41.1L70.3,42.5L70.9,42.8L76.2,54.8L77.4,57.1L78.0,58.9L80.3,63.7L80.5,64.4L80.2,64.7L78.6,64.7L64.0,64.6L53.9,64.7L44.2,64.5L44.1,64.4L44.0,64.0L44.8,62.7L44.9,62.1L45.3,61.6L45.8,60.3L47.2,57.8L47.3,57.5L48.7,54.5L49.3,53.6L53.7,44.7L53.8,44.4L54.3,43.3L54.5,43.1L55.8,40.6L55.9,40.1L57.5,36.9L57.8,36.5L60.4,31.0L61.1,30.0L61.9,28.2L62.9,26.5Z" fill="#000" fill-rule="evenodd"/>
</svg>