<svg xmlns="http://www.w3.org/2000/svg" viewBox="0 0 128 128" width="128" height="128">
  <path d="M92.2,19.7L91.7,19.7L91.7,20.0L91.1,22.0L90.7,23.6L90.5,24.2L90.3,25.3L89.0,30.0L88.8,31.4L88.5,31.9L88.4,32.6L88.0,33.8L88.0,34.2L87.5,35.8L87.4,36.9L87.1,37.5L87.0,38.7L86.7,39.2L86.6,40.4L86.2,41.5L85.3,45.4L84.8,46.9L84.6,48.5L82.7,55.3L82.2,57.6L81.4,60.5L81.3,61.2L80.9,62.4L80.8,63.4L80.5,63.9L80.3,65.2L80.1,65.7L79.8,67.4L79.4,68.3L79.0,70.8L78.4,72.8L78.1,73.2L77.9,73.2L77.7,72.9L76.9,69.6L76.8,69.4L76.6,68.1L76.3,67.2L75.9,65.0L75.3,63.1L75.0,61.1L74.6,60.4L74.5,59.3L74.2,58.3L74.1,57.1L73.3,54.5L72.4,50.2L72.0,49.0L71.9,48.1L71.7,47.5L71.0,44.3L70.8,43.7L70.6,42.5L70.3,41.7L69.8,39.2L69.3,37.4L69.3,37.0L69.0,36.3L68.8,34.8L68.5,33.8L68.3,32.4L68.1,32.2L67.8,30.6L67.7,30.3L67.5,29.3L66.7,26.3L66.5,25.2L66.3,24.6L65.7,21.7L65.1,19.5L64.7,19.5L64.6,19.7L63.8,22.6L63.8,23.0L63.2,24.7L62.4,28.3L62.1,28.9L61.9,30.4L61.3,32.0L61.2,32.8L60.8,34.0L60.2,36.7L59.9,37.4L59.8,38.2L59.4,39.4L59.3,40.6L59.0,41.1L58.9,42.1L58.5,42.9L58.5,43.4L58.0,44.9L57.9,46.0L57.6,46.5L57.1,49.0L56.6,50.1L56.4,51.6L55.6,54.1L55.6,54.5L55.3,55.4L54.9,57.2L54.6,58.0L54.4,59.1L54.2,59.7L54.1,60.5L53.4,62.9L53.1,64.3L52.7,65.5L52.5,66.8L52.1,67.6L52.0,68.6L51.7,69.1L50.8,73.1L50.5,73.4L50.3,73.4L49.9,73.0L49.8,71.8L49.4,70.8L48.8,67.8L48.6,67.2L48.3,65.7L48.1,65.5L48.1,64.7L47.7,63.7L47.7,63.2L47.0,60.6L46.9,59.7L46.5,58.4L46.3,56.9L46.0,56.3L45.4,52.8L44.4,49.0L44.2,47.7L44.0,47.1L43.3,43.9L43.1,43.3L42.5,40.2L42.2,39.3L42.2,38.8L41.8,37.4L41.7,36.5L41.1,34.4L41.1,33.9L40.9,33.3L40.7,32.0L40.5,31.6L39.6,27.0L39.3,26.0L39.2,24.6L38.7,23.3L38.7,22.5L38.3,21.7L38.3,21.2L37.8,19.6L37.4,19.7L37.2,20.1L36.8,22.1L36.0,24.5L35.8,25.7L35.6,26.1L34.8,29.0L34.5,29.8L34.4,30.5L34.1,31.4L33.4,34.3L33.2,34.9L32.9,36.3L32.1,39.2L32.0,39.9L31.8,40.4L31.1,43.3L30.9,43.8L30.6,45.1L29.3,49.8L29.0,51.5L28.8,52.1L28.8,52.6L28.3,53.9L27.8,56.2L26.8,59.6L26.8,60.0L26.1,62.4L25.9,63.5L25.7,64.0L24.8,67.9L24.1,70.0L23.5,72.7L23.1,73.6L22.9,75.0L22.6,75.5L22.1,77.5L22.1,78.3L21.7,79.1L21.5,80.4L21.2,81.1L19.7,87.3L18.8,90.2L18.8,90.6L18.4,91.8L18.1,93.3L17.9,93.8L17.7,95.1L17.4,95.6L17.2,97.0L16.9,97.8L16.8,98.9L16.3,100.4L15.9,102.5L15.4,103.9L14.7,106.7L14.3,107.2L13.9,107.4L9.6,107.5L9.2,107.8L9.2,108.3L9.8,108.8L10.5,108.9L20.4,108.8L21.3,108.6L21.7,108.3L21.6,107.7L21.2,107.4L17.1,107.3L16.7,107.2L16.3,106.9L16.3,106.7L17.0,104.3L17.6,101.5L17.9,100.6L17.9,100.2L18.2,99.3L18.3,98.6L18.6,98.0L18.6,97.3L18.8,97.0L18.8,96.6L19.2,95.4L19.5,93.6L20.0,92.2L20.3,90.6L20.8,88.9L21.1,87.5L21.5,86.4L21.7,85.1L21.9,84.8L22.1,83.3L22.5,82.6L23.0,80.3L23.3,79.5L23.6,79.1L24.8,79.0L45.9,79.0L46.4,79.3L46.8,79.3L47.3,79.0L48.6,79.0L48.9,79.0L49.1,79.4L49.1,80.0L48.6,82.1L48.5,82.8L48.1,83.9L48.0,84.7L47.0,88.1L46.5,90.6L45.6,93.5L45.4,95.1L44.2,99.1L44.1,100.2L43.6,101.4L43.3,103.1L43.2,103.3L43.1,104.1L42.7,105.0L42.4,106.6L42.1,107.0L41.7,107.2L37.3,107.2L36.9,107.6L36.9,108.0L37.0,108.3L37.4,108.5L47.1,108.6L49.0,108.5L49.4,108.3L49.4,107.6L49.0,107.2L44.5,107.2L44.1,106.8L44.1,106.3L45.3,101.4L45.4,101.3L45.6,100.2L46.1,98.7L46.1,98.2L46.3,98.0L46.5,96.6L46.8,96.1L46.8,95.5L47.2,94.3L47.6,92.4L47.7,92.2L48.9,87.5L49.2,86.6L49.9,83.7L50.3,83.3L50.6,83.5L50.8,84.3L51.0,84.8L52.4,90.7L52.4,91.1L52.8,92.4L52.9,93.3L53.6,95.8L53.8,96.9L54.1,97.8L54.1,98.2L54.8,101.0L54.9,102.0L55.3,102.7L55.4,103.9L55.7,104.5L56.1,106.7L55.7,107.1L53.9,107.2L51.3,107.2L50.8,107.6L50.8,108.2L51.0,108.5L51.7,108.6L55.3,108.7L55.8,108.5L61.9,108.5L62.8,108.5L63.3,107.9L63.3,107.6L62.7,107.1L58.4,107.1L58.0,106.7L57.6,106.0L55.3,95.6L55.1,95.3L54.9,94.2L54.6,93.3L54.4,92.0L53.8,89.8L53.4,87.4L53.0,86.4L52.9,85.3L52.2,83.0L52.1,81.6L51.8,81.1L51.6,79.9L51.7,79.2L52.1,79.0L55.4,78.9L75.8,78.9L76.3,79.0L76.7,79.2L76.7,80.1L76.5,80.8L76.3,81.4L75.9,83.0L75.8,83.3L75.0,86.6L74.9,86.9L74.8,87.8L73.6,91.9L73.6,92.8L72.7,95.7L72.5,97.1L72.1,98.2L71.8,100.1L71.4,101.0L71.3,102.2L70.7,104.0L70.7,104.4L70.4,105.1L70.2,106.2L70.0,106.7L69.5,107.0L65.1,107.1L64.8,107.2L64.6,107.6L64.6,108.1L65.1,108.5L74.5,108.5L76.8,108.5L77.2,108.1L77.2,107.4L76.9,107.2L72.4,107.0L71.8,106.7L71.8,106.2L72.6,102.7L72.9,101.8L73.8,97.7L74.8,94.2L75.0,93.1L75.2,92.6L75.7,90.2L76.0,89.3L76.5,87.4L76.6,86.6L77.1,85.1L77.1,84.6L77.6,82.8L77.8,82.6L78.1,82.6L78.4,83.0L79.0,85.9L79.4,87.0L79.6,88.4L79.8,88.7L80.4,92.1L80.6,92.4L81.2,94.7L81.7,97.2L82.1,98.8L82.1,99.2L82.4,99.6L82.5,100.5L83.9,106.0L83.9,106.7L83.5,107.0L79.0,107.0L78.6,107.3L78.6,108.1L79.2,108.5L90.7,108.5L91.1,108.3L91.3,108.0L91.3,107.6L91.1,107.2L90.0,107.0L86.1,107.0L85.7,106.8L85.5,106.3L85.2,104.7L84.8,103.9L84.2,100.5L83.7,99.1L83.5,97.3L83.1,96.4L82.9,94.8L82.6,94.0L82.5,93.0L82.1,92.2L82.0,91.0L81.7,90.4L81.6,89.3L81.2,88.0L80.7,85.5L80.3,84.6L80.2,83.4L79.9,82.6L79.7,81.2L79.4,80.3L79.3,79.2L79.5,79.0L81.3,78.8L104.5,78.9L104.9,79.3L105.1,79.8L105.3,80.8L105.5,81.3L106.1,84.2L106.5,85.5L106.7,86.7L107.0,87.5L107.2,89.1L107.7,90.6L107.9,91.7L108.2,92.6L108.3,93.3L108.7,94.7L109.2,97.1L109.4,97.7L109.6,98.8L110.3,101.3L110.3,101.8L111.3,105.7L111.3,106.5L110.9,106.8L107.0,107.0L106.5,107.3L106.4,107.9L106.8,108.3L107.1,108.4L111.1,108.5L118.4,108.4L119.0,108.0L119.1,107.4L118.6,106.9L113.7,106.8L113.2,106.3L113.0,105.7L112.0,101.4L111.7,100.5L111.2,98.4L110.9,97.6L110.8,96.4L110.1,94.1L110.0,93.2L109.6,92.0L109.5,91.2L109.2,90.5L109.0,89.3L108.4,86.9L108.3,86.2L108.0,85.3L107.5,82.8L107.1,81.6L107.0,80.8L106.7,79.9L106.5,78.8L106.2,78.0L106.1,77.1L105.7,75.9L105.6,75.0L105.4,74.4L105.3,73.6L104.5,70.8L104.2,69.2L104.0,68.7L103.1,64.5L102.7,63.2L102.6,62.3L102.1,60.6L101.8,58.7L101.5,58.2L101.4,57.1L101.0,56.2L100.9,55.0L100.5,54.0L100.5,53.1L100.2,52.6L99.3,49.0L98.7,46.1L98.0,43.7L97.8,42.5L97.0,39.6L96.9,38.8L95.7,34.1L94.8,29.9L93.6,25.4L92.8,21.5L92.4,20.7Z M37.6,26.2L37.9,26.6L39.1,31.8L39.3,32.4L39.8,35.3L40.7,38.8L40.7,39.3L41.1,40.6L41.8,44.1L42.0,44.6L43.2,50.4L43.5,51.3L43.6,52.1L43.7,52.4L43.8,53.1L44.3,54.7L44.4,55.7L44.5,56.0L44.8,57.7L45.2,59.3L45.4,59.6L45.5,60.9L45.9,62.3L45.9,62.8L46.5,64.9L47.2,68.7L48.0,71.4L48.1,72.7L48.6,73.9L49.0,76.3L49.0,76.9L48.6,77.3L47.5,77.5L24.5,77.4L24.0,77.0L24.0,76.4L24.3,75.9L24.5,74.5L24.8,74.0L24.9,72.8L25.2,72.4L25.4,70.9L26.1,69.0L26.3,67.6L26.6,67.0L27.0,65.1L27.1,64.9L27.1,64.5L27.4,63.8L27.9,61.5L28.3,60.3L28.4,59.5L28.6,59.0L28.8,58.0L29.5,55.7L29.8,54.3L30.1,53.5L30.3,52.1L31.1,49.6L31.3,48.2L31.5,47.7L31.8,46.2L32.1,45.4L32.5,43.8L32.7,42.7L32.9,42.2L33.0,41.4L33.3,40.5L34.9,34.2L35.2,33.5L35.4,32.3L35.7,31.5L36.9,27.0L37.2,26.4L37.4,26.2Z M92.0,25.5L92.3,25.8L92.4,26.5L92.7,27.3L92.7,27.7L93.2,29.3L93.2,29.8L93.5,30.6L94.5,35.2L94.7,35.5L95.2,38.3L95.6,39.5L95.8,40.9L96.1,41.7L96.2,42.5L96.9,45.1L97.1,46.4L97.5,47.5L97.7,48.7L98.5,51.8L98.7,53.4L99.1,54.2L99.3,55.8L99.9,57.7L100.1,59.2L100.4,59.7L100.9,62.4L101.3,63.5L101.7,65.9L103.0,71.0L103.1,71.8L103.9,75.1L104.0,75.9L104.2,76.5L104.2,76.9L104.0,77.2L103.7,77.3L79.7,77.3L79.4,77.2L79.1,77.0L79.1,76.3L80.7,70.1L81.0,68.3L81.2,67.7L81.3,66.9L81.7,66.1L82.2,63.4L82.5,62.9L82.5,62.3L83.2,59.8L83.7,57.3L84.0,56.5L84.2,55.4L84.6,54.4L84.7,53.6L85.0,52.8L85.3,51.2L85.7,49.9L86.2,47.7L86.4,47.2L86.8,45.0L87.4,43.2L87.5,42.0L87.9,41.2L88.0,39.9L88.4,38.9L89.4,34.1L89.7,33.5L89.8,32.4L90.1,31.8L91.0,28.2L91.1,27.5L91.3,26.9L91.5,26.0L91.9,25.5Z M65.1,25.5L65.2,25.7L65.4,26.6L65.6,27.1L65.8,28.3L66.5,30.6L66.7,32.3L67.2,34.0L67.2,34.4L67.9,36.9L68.6,40.5L68.9,41.4L69.1,42.6L69.2,42.8L69.5,44.5L69.8,45.4L69.9,46.2L70.2,47.0L70.6,49.4L71.0,50.6L71.3,52.2L71.8,54.2L71.8,54.7L72.3,56.0L72.5,57.6L73.6,62.2L73.6,62.7L74.1,64.1L74.2,65.4L74.9,67.7L75.4,70.3L75.7,71.1L76.2,74.0L76.3,74.2L76.3,74.6L76.8,76.4L76.8,76.9L76.3,77.3L75.3,77.4L74.3,77.3L68.7,77.5L60.0,77.5L52.1,77.3L51.7,77.2L51.7,75.9L52.1,75.0L52.2,73.7L52.6,72.7L53.1,70.1L53.4,69.6L54.0,66.6L54.4,65.4L54.8,63.3L55.2,62.5L55.3,61.2L55.7,60.2L55.7,59.7L56.7,56.3L57.0,54.9L57.8,52.1L57.9,51.3L58.4,49.7L58.5,48.7L58.7,48.6L58.9,47.5L59.3,46.2L59.6,44.7L60.4,41.8L60.4,41.2L60.6,40.8L60.8,39.6L61.1,38.9L61.4,37.5L62.0,35.2L62.2,34.0L62.4,33.4L63.5,28.9L63.8,28.4L64.0,27.1L64.2,26.6L64.4,25.8L64.7,25.5Z" fill="#000" fill-rule="evenodd"/>
</svg>