<svg xmlns="http://www.w3.org/2000/svg" viewBox="0 0 128 128" width="128" height="128">
  <path d="M64.4,9.3L50.5,20.1L49.0,21.2L45.5,24.0L44.9,24.4L40.3,28.2L39.7,28.5L38.7,29.4L37.7,29.9L36.1,31.1L35.4,31.9L34.5,32.5L33.9,33.2L33.7,33.6L33.5,45.5L33.3,46.1L32.1,47.3L29.3,49.4L21.8,55.6L15.2,60.8L13.3,62.4L11.0,64.2L10.4,64.8L10.3,68.0L10.4,77.0L10.4,77.2L10.8,77.3L11.2,77.1L11.6,76.6L11.8,76.6L12.9,75.5L14.0,74.9L14.9,74.1L16.9,72.8L17.7,72.0L19.9,70.5L21.5,69.0L22.0,68.8L23.6,67.4L24.9,66.6L25.6,65.8L27.1,64.8L32.9,60.2L33.9,59.6L34.5,59.6L34.9,59.8L39.3,63.3L48.5,70.9L50.2,72.2L51.1,73.0L51.7,73.4L55.3,76.4L55.8,76.6L56.6,77.3L57.4,77.8L58.7,79.1L61.8,81.5L62.9,82.7L63.2,91.1L63.1,93.7L63.4,95.5L63.6,96.2L64.5,97.1L67.2,99.2L69.0,100.7L73.3,104.0L75.4,105.8L77.6,107.3L81.9,110.8L85.1,113.1L87.1,114.9L88.7,116.0L92.2,118.8L93.0,118.9L95.3,117.0L98.1,115.1L101.9,112.0L102.0,112.0L107.9,107.3L108.2,107.2L108.8,106.7L110.1,105.8L112.4,103.9L116.4,100.9L117.3,100.1L117.6,98.9L117.6,90.3L117.7,89.3L117.6,86.7L117.4,86.4L117.0,86.4L116.2,86.9L111.6,90.3L111.1,90.9L110.5,91.1L105.1,95.6L102.6,97.4L101.9,98.1L101.7,98.2L99.5,100.0L98.9,100.3L95.4,103.1L93.6,104.3L93.2,104.3L92.9,104.0L92.9,83.9L93.4,83.3L102.8,83.2L117.1,83.4L117.5,83.1L117.5,82.8L117.1,82.5L108.5,82.5L103.1,82.3L97.7,82.4L93.8,82.3L93.3,82.1L93.0,81.8L92.9,81.4L92.9,69.9L93.1,61.2L93.4,60.9L93.7,60.9L94.7,61.5L96.5,63.1L97.9,64.1L99.6,65.8L100.2,66.0L101.8,67.4L105.1,69.9L106.3,71.0L109.5,73.5L117.0,79.7L117.6,79.7L117.9,79.4L117.9,66.7L117.7,66.3L116.8,65.4L98.4,50.7L94.3,47.0L94.1,46.3L94.2,34.4L93.9,33.3L82.9,24.3L81.3,22.7L79.9,21.7L77.3,19.4L76.1,18.6L74.3,16.9L73.0,16.0L71.2,14.3L70.5,13.9L66.7,10.5L65.2,9.4Z M65.4,83.2L67.4,83.0L91.5,83.2L91.9,83.6L92.1,84.4L91.9,104.3L91.7,104.5L91.3,104.5L90.5,104.1L86.5,100.8L84.2,99.2L81.4,96.7L80.1,95.9L78.2,94.3L77.3,93.8L74.7,91.4L74.1,91.1L73.2,90.2L72.6,89.9L66.0,84.4L65.3,83.7Z M92.1,61.0L92.1,80.1L92.0,81.5L91.8,82.0L91.1,82.3L69.7,82.3L65.2,82.0L65.1,81.4L66.1,80.6L69.0,78.2L69.2,78.2L73.7,74.5L74.0,74.4L75.1,73.4L76.5,72.5L78.1,71.0L80.3,69.4L85.4,65.3L91.3,60.8L91.8,60.7Z M36.2,47.0L36.6,46.6L53.5,46.9L60.5,47.2L63.3,47.1L71.3,47.4L81.1,47.4L88.1,47.6L90.0,47.8L90.7,47.7L91.1,47.8L91.1,48.2L87.9,51.0L86.9,51.6L81.5,55.9L80.9,56.2L79.9,57.2L70.6,64.1L67.0,67.0L64.1,69.2L63.4,69.3L62.9,69.0L59.1,65.8L56.3,63.8L46.5,55.7L42.4,52.6L38.8,49.6L37.3,48.2L36.3,47.5Z M35.7,45.0L38.2,42.9L39.0,42.4L42.3,39.6L42.6,39.5L43.2,38.9L44.6,38.0L46.8,36.0L47.1,35.9L50.0,33.5L52.4,31.8L52.6,31.5L56.8,28.3L57.8,27.3L59.7,26.1L62.9,23.4L63.6,22.9L64.3,22.9L65.7,23.8L67.7,25.7L77.4,33.6L78.4,34.6L80.8,36.6L81.0,36.6L82.1,37.7L84.0,39.2L85.0,40.1L86.6,41.3L89.3,43.7L92.0,45.9L92.0,46.1L91.6,46.5L90.7,46.5L90.2,46.6L71.8,46.5L70.1,46.3L63.7,46.3L52.4,46.0L49.6,46.1L40.7,45.7L37.0,45.7L36.0,45.6L35.7,45.3Z" fill="#000" fill-rule="evenodd"/>
</svg>