<svg xmlns="http://www.w3.org/2000/svg" viewBox="0 0 128 128" width="128" height="128">
  <path d="M57.6,65.1L57.1,65.2L55.1,67.2L50.2,72.4L47.5,75.0L45.1,77.6L39.5,83.4L34.9,87.8L34.4,88.5L32.4,90.4L22.4,101.0L20.6,102.6L18.4,105.0L15.1,108.4L12.6,111.2L10.7,113.0L10.1,113.8L10.0,114.4L10.4,114.8L17.4,114.8L18.9,115.0L24.8,114.9L40.9,115.2L46.5,115.1L51.2,115.3L55.2,115.1L57.1,115.2L57.4,115.1L57.9,114.6L58.1,113.3L58.1,86.3L57.9,81.8L58.1,78.0L57.9,73.3L58.0,65.9L57.9,65.3Z M57.7,14.0L57.0,14.1L36.4,34.6L35.1,36.1L29.0,42.2L28.5,42.9L22.9,48.4L22.4,49.0L18.8,52.5L18.5,52.9L15.0,56.7L13.1,58.5L9.5,62.5L9.2,62.9L9.2,63.2L9.6,63.5L13.2,63.7L34.9,63.7L42.5,63.9L54.0,63.8L55.9,64.0L57.1,63.9L57.8,63.4L58.0,40.9L57.9,33.5L58.1,21.7L58.0,14.5Z M118.9,13.8L118.6,13.6L116.0,13.4L80.6,13.1L72.8,13.2L71.6,13.3L71.3,13.7L71.0,14.4L70.8,32.3L70.8,61.4L70.9,62.2L71.1,62.6L71.4,62.7L71.8,62.5L73.3,61.0L85.9,48.2L87.1,46.9L87.4,46.8L94.8,39.1L99.6,34.4L107.2,26.4L114.0,19.8L119.0,14.3Z M100.2,22.6L100.7,23.3L100.5,23.8L100.0,23.1Z" fill="#000" fill-rule="evenodd"/>
</svg>