<svg xmlns="http://www.w3.org/2000/svg" viewBox="0 0 128 128" width="128" height="128">
  <path d="M33.4,24.5L31.5,27.4L30.6,29.4L30.0,32.0L29.6,35.0L29.5,50.5L29.5,63.8L29.4,85.9L29.1,86.2L28.6,86.2L27.6,85.7L27.1,85.5L25.2,84.4L24.5,83.8L23.8,83.6L20.8,81.4L18.8,80.4L17.9,80.0L16.2,79.8L14.8,79.9L12.8,80.5L11.5,81.4L10.5,82.5L9.6,84.2L9.3,85.7L9.3,87.6L9.8,89.6L10.8,91.1L12.3,92.6L17.2,95.9L21.7,98.4L21.9,98.7L22.8,99.0L23.9,99.7L24.5,99.9L25.1,100.3L25.5,100.4L25.9,100.7L27.6,101.4L29.0,102.1L30.3,102.7L30.8,102.8L31.3,103.1L31.5,103.1L33.9,104.1L34.7,104.3L35.3,104.6L35.6,104.6L36.0,104.9L37.4,105.2L38.6,105.7L38.9,105.7L41.5,106.5L42.9,106.8L43.2,106.7L43.5,105.0L43.5,93.9L43.6,89.4L43.8,89.2L44.4,89.1L46.6,89.7L47.2,90.3L47.3,94.9L47.1,105.2L47.2,107.3L47.4,107.6L47.9,108.0L49.2,108.2L49.9,108.4L51.7,108.6L53.0,108.9L54.6,109.0L55.7,109.3L59.3,109.6L60.7,109.6L61.2,109.3L61.3,106.4L61.3,103.9L61.4,95.7L61.3,92.2L61.6,55.5L61.5,52.1L61.7,36.9L61.8,34.9L62.3,33.9L63.0,33.3L64.1,33.2L64.6,33.5L65.0,34.0L65.3,34.7L65.4,35.4L65.2,47.8L65.3,73.0L65.2,78.9L65.2,84.3L65.1,95.8L65.2,109.5L65.4,109.8L70.5,109.8L71.2,109.6L72.4,109.6L73.3,109.4L74.4,109.4L75.1,109.3L77.5,109.1L78.4,108.8L79.8,108.8L83.5,108.1L91.5,106.1L94.1,105.2L96.2,104.6L97.5,104.0L98.4,103.8L101.0,102.6L101.9,102.4L106.0,100.3L106.8,100.1L109.6,98.5L110.0,98.3L110.7,97.8L112.0,97.3L113.1,96.4L115.5,95.0L117.5,93.3L118.4,92.0L119.0,90.3L119.1,87.9L118.8,86.6L118.3,85.3L116.9,83.6L114.9,82.1L113.1,81.5L110.7,81.4L108.9,81.9L107.4,82.8L106.6,83.2L105.0,84.3L104.4,84.5L103.5,85.2L103.0,85.3L102.8,85.6L102.1,85.8L101.9,86.1L99.5,87.2L98.8,87.5L96.8,88.6L93.1,90.1L91.2,90.7L90.8,91.0L90.3,91.0L89.4,91.5L88.8,91.5L87.9,92.0L86.4,92.3L86.0,92.5L80.8,93.8L80.0,93.8L79.7,93.5L79.6,92.4L79.7,91.1L80.1,90.6L86.1,89.1L89.1,88.1L89.3,87.9L91.5,87.2L92.1,86.9L92.6,86.8L93.2,86.4L94.0,86.2L94.2,86.0L94.5,86.0L96.1,85.2L96.3,85.2L97.2,84.7L97.7,84.2L98.0,82.2L97.9,76.1L98.0,70.0L98.0,69.3L97.8,68.9L97.3,68.8L92.5,71.7L91.9,71.8L91.7,72.1L90.3,72.7L89.7,73.1L85.0,75.0L84.5,75.1L82.9,75.7L80.6,76.3L80.0,76.2L79.7,75.8L79.7,61.0L79.9,55.1L79.8,46.1L80.0,41.8L80.0,35.8L80.2,34.7L81.0,33.8L81.7,33.6L82.1,33.6L82.7,33.8L83.4,34.6L83.6,35.6L83.5,60.4L83.3,67.9L83.5,71.6L83.6,71.7L84.4,71.7L86.2,71.1L87.8,70.3L88.4,70.2L88.7,69.9L89.3,69.8L90.5,69.0L93.5,67.5L95.2,66.3L95.8,66.0L96.9,65.2L97.6,64.5L97.8,64.0L98.0,58.5L97.9,54.3L98.0,51.9L98.0,46.6L98.1,41.0L98.1,34.7L98.0,32.9L97.4,30.2L96.9,29.2L96.6,28.3L96.4,28.0L96.1,27.1L95.0,25.4L94.1,24.4L91.6,22.0L89.5,20.7L87.5,19.8L85.0,19.2L82.3,18.8L80.2,18.9L77.7,19.4L75.7,20.1L73.3,21.3L72.7,21.3L70.9,20.2L69.5,19.6L66.6,18.7L64.6,18.5L62.8,18.5L60.3,18.8L57.2,19.8L56.8,20.1L56.4,20.2L54.8,21.1L53.7,21.1L53.2,20.6L52.6,20.5L52.3,20.2L51.3,19.8L48.8,19.1L48.0,18.9L45.0,18.7L41.7,19.2L41.1,19.6L40.5,19.6L39.2,20.1L36.8,21.5L35.3,22.6Z M45.1,33.4L46.2,33.5L46.6,33.7L47.0,34.2L47.4,35.4L47.4,36.9L47.3,64.4L47.4,70.4L47.3,74.6L47.0,75.5L46.9,75.6L45.1,75.3L44.8,75.1L44.2,74.9L43.8,74.6L43.6,74.1L43.6,51.2L43.8,45.9L43.8,36.1L44.0,34.6L44.4,33.9L44.7,33.6Z" fill="#000" fill-rule="evenodd"/>
</svg>