<svg xmlns="http://www.w3.org/2000/svg" viewBox="0 0 128 128" width="128" height="128">
  <path d="M63.1,9.2L62.8,9.5L62.4,10.6L61.6,12.0L60.8,14.1L60.0,15.7L59.0,18.5L57.9,20.7L56.7,23.9L56.1,25.0L55.1,27.4L54.5,28.4L53.8,30.3L53.3,31.3L53.0,32.1L52.6,32.8L51.8,35.0L50.8,37.0L50.1,39.0L49.2,40.7L49.1,41.3L48.6,42.2L48.5,42.7L47.9,44.0L47.9,44.3L47.5,44.9L47.0,46.2L46.7,46.7L46.6,47.1L45.2,50.1L45.2,50.6L44.7,51.4L44.5,52.3L43.1,55.3L42.7,56.4L41.7,59.1L40.7,60.8L40.2,62.2L39.6,63.2L39.5,63.8L38.7,65.3L38.5,66.1L38.2,66.6L37.8,67.8L37.5,68.2L36.8,69.9L36.7,70.3L36.3,71.0L35.8,72.3L35.6,72.6L35.3,73.6L34.8,74.5L34.7,75.0L34.3,75.6L34.1,76.6L33.4,77.7L33.3,78.4L32.6,79.5L32.2,80.9L31.5,82.1L31.4,82.7L30.9,83.6L30.0,86.1L29.1,87.8L29.0,88.2L28.6,89.0L28.1,90.4L27.5,91.5L27.1,92.8L26.5,93.9L26.5,94.1L26.2,94.6L25.2,97.0L25.2,97.2L24.7,98.1L23.9,100.2L23.7,100.5L23.4,101.5L22.2,104.1L21.9,104.6L21.7,105.1L21.4,105.6L21.3,106.0L21.0,106.6L20.6,107.6L20.1,108.6L19.7,109.7L19.2,110.7L18.8,111.8L17.2,114.9L16.6,116.4L16.4,117.1L16.9,117.5L18.1,117.6L33.3,117.4L38.5,117.7L39.9,117.5L40.3,117.4L40.5,117.1L40.6,116.6L41.0,115.6L41.7,113.9L42.2,112.8L43.8,108.5L44.5,107.2L44.7,107.0L45.2,106.9L45.9,107.9L46.9,109.7L47.4,110.2L47.7,110.7L48.1,111.1L48.3,111.5L49.8,113.1L50.6,113.6L52.2,115.1L53.4,116.0L54.6,116.6L55.0,116.7L55.3,117.0L56.9,117.8L59.2,118.5L61.4,118.8L61.8,119.0L65.6,119.2L68.7,118.6L71.4,117.7L73.5,116.6L74.0,116.4L76.6,114.8L79.2,112.6L80.0,111.7L80.3,111.1L81.7,109.3L82.7,107.6L83.0,107.4L83.4,107.4L83.8,107.7L85.0,110.2L85.8,112.4L87.0,114.6L87.3,115.6L87.9,116.7L88.1,117.3L88.5,117.8L94.0,117.8L94.9,117.7L111.3,117.8L111.6,117.7L111.8,117.4L111.6,116.8L110.9,115.6L110.8,115.0L110.4,114.5L109.8,112.6L108.3,109.7L107.7,108.1L106.9,106.5L106.3,105.0L105.3,103.0L104.6,101.2L103.5,98.9L103.5,98.7L102.1,95.7L100.5,92.0L100.0,91.1L99.2,88.9L98.4,87.5L97.9,86.1L97.5,85.4L97.5,85.1L97.1,84.5L96.2,82.2L94.7,79.2L93.9,77.0L93.2,75.9L92.7,74.4L91.7,72.4L91.4,71.4L90.9,70.7L90.4,69.4L90.2,68.6L89.2,66.8L89.2,66.5L88.4,65.0L87.8,63.3L87.1,61.9L87.0,61.3L85.7,58.9L84.6,56.2L83.2,53.4L83.1,52.9L82.4,51.6L82.3,51.0L81.5,49.4L80.4,46.8L80.2,46.4L79.7,45.4L79.6,44.9L78.9,43.4L77.5,40.0L76.8,38.9L76.5,38.0L76.3,37.7L75.8,36.4L75.3,35.5L75.1,35.0L74.5,33.9L73.1,30.4L72.4,29.2L72.4,28.9L71.9,27.9L71.5,26.8L70.7,25.3L70.5,24.6L69.8,23.6L69.2,21.7L67.7,18.3L67.3,17.6L66.5,15.5L65.5,13.5L65.2,12.7L64.5,11.3L63.9,9.7L63.5,9.2Z M58.2,39.8L62.5,39.7L68.3,39.8L68.8,39.9L69.2,40.4L69.2,42.4L69.7,44.4L69.5,45.0L69.7,48.2L69.4,49.1L69.4,51.7L69.5,53.8L69.4,57.1L69.6,58.0L69.6,64.4L69.8,65.1L69.8,72.8L69.9,73.9L69.8,77.3L69.8,79.1L69.9,79.4L70.5,79.8L71.3,80.1L73.3,81.0L75.8,82.6L77.7,84.4L80.1,87.3L81.7,90.8L82.4,93.1L82.8,95.5L82.8,97.6L82.8,98.3L82.5,98.5L80.3,98.4L70.7,98.4L63.0,98.3L50.0,98.3L45.7,98.1L44.9,98.0L44.5,97.5L44.5,96.7L44.9,94.2L46.4,90.0L48.7,86.1L50.9,83.7L51.3,83.6L53.0,82.2L57.1,79.7L57.9,78.8L57.9,61.5L57.8,58.4L57.9,56.6L57.7,52.7L57.6,40.3L57.9,40.0Z" fill="#000" fill-rule="evenodd"/>
</svg>