<svg xmlns="http://www.w3.org/2000/svg" viewBox="0 0 128 128" width="128" height="128">
  <path d="M39.5,42.5L37.6,41.9L35.6,41.4L31.7,41.1L28.1,41.4L27.3,41.7L25.5,41.9L24.5,42.4L24.2,42.4L20.2,44.3L16.7,47.0L15.1,48.6L13.6,50.4L12.7,51.7L11.5,54.0L10.4,56.8L10.3,57.6L9.8,59.4L9.4,62.4L9.4,64.3L9.7,67.1L10.3,69.9L11.0,71.9L12.6,75.3L13.4,76.4L13.9,77.0L14.3,77.7L16.6,80.2L18.0,81.4L19.3,82.3L21.6,83.6L22.7,83.8L23.2,83.0L24.7,79.1L25.1,78.5L27.9,71.5L28.6,70.1L30.6,65.1L32.3,61.5L32.5,60.8L34.6,56.2L34.8,55.5L35.8,53.6L36.4,51.8L36.7,51.5L37.3,49.6L38.3,47.8L38.8,46.2L40.1,43.3L40.1,43.0Z M56.5,10.2L55.7,11.0L55.4,11.8L54.6,13.4L54.2,14.9L52.9,17.3L52.3,18.9L52.0,19.4L51.6,20.5L50.5,22.8L50.2,23.7L48.7,26.9L48.3,28.1L48.0,28.5L47.5,30.1L47.0,30.9L47.0,31.2L46.1,33.1L45.9,33.9L45.6,34.4L45.4,35.2L44.5,37.0L44.2,38.0L43.8,38.5L43.7,39.0L43.3,39.8L43.2,40.3L42.7,41.1L42.5,41.9L41.4,44.1L41.0,45.2L40.3,46.7L40.2,47.3L39.0,49.6L38.0,52.3L37.1,53.9L36.7,55.0L36.5,55.2L36.2,56.3L34.9,59.0L33.2,63.4L32.7,64.1L32.6,64.6L31.7,66.4L31.0,68.5L30.7,68.8L29.5,71.8L29.2,72.3L27.8,75.8L27.0,77.3L26.0,79.9L24.7,82.4L24.6,82.9L24.2,83.8L24.0,84.6L23.5,85.3L23.3,86.1L22.8,87.2L22.6,88.0L21.8,89.4L20.9,91.5L20.7,91.9L20.5,92.6L19.6,94.5L19.3,95.6L18.5,97.1L17.3,100.1L16.8,100.8L16.7,101.3L15.9,103.0L15.7,103.8L14.8,105.6L14.7,106.2L14.3,106.9L12.9,110.4L12.3,111.6L11.7,113.1L11.3,113.7L10.4,116.2L10.2,117.4L10.6,117.8L11.6,117.9L24.6,117.9L27.9,118.1L28.9,118.0L29.5,117.7L29.8,117.3L30.6,115.9L30.7,115.2L32.1,112.2L32.2,111.6L33.1,109.8L33.8,107.8L35.1,105.1L35.4,104.1L35.9,103.3L36.0,102.6L36.8,101.2L37.5,99.1L38.2,97.8L38.5,96.8L38.8,96.4L38.9,95.8L39.7,94.1L39.7,93.8L40.5,92.3L40.7,91.5L42.1,88.7L42.9,86.5L43.2,86.1L43.5,85.2L44.4,83.4L44.9,81.8L45.8,80.0L46.9,77.1L48.1,74.4L49.0,73.5L49.8,73.3L56.5,73.2L58.6,73.4L62.5,73.3L63.3,73.4L64.0,74.1L64.0,106.8L63.8,111.5L63.9,117.3L64.0,117.7L64.8,118.1L65.5,118.2L81.2,118.2L82.0,118.0L82.3,117.6L82.5,116.3L82.4,100.0L82.6,93.0L82.5,79.0L82.7,74.1L83.3,73.5L84.4,73.3L99.4,73.2L100.0,73.5L100.4,74.1L100.4,75.2L99.7,78.4L99.5,80.6L99.1,81.8L99.1,82.3L98.5,84.9L98.4,85.9L97.9,87.0L97.3,89.6L96.5,91.5L96.1,93.3L95.5,94.5L95.1,96.1L93.4,100.2L90.5,106.2L90.2,106.5L89.8,107.4L89.6,107.6L88.9,108.9L88.4,109.6L88.0,110.5L86.4,112.9L86.1,113.6L83.6,117.0L83.4,117.7L83.8,118.1L85.7,118.2L103.2,118.0L104.5,117.8L105.3,117.1L106.2,115.2L107.0,114.1L107.3,113.0L108.3,111.2L110.5,106.5L112.3,101.7L112.5,100.9L113.2,99.2L113.8,96.8L114.6,95.0L114.9,93.1L115.3,92.2L115.4,91.4L116.0,89.3L116.2,87.9L116.5,87.3L116.8,85.0L117.4,82.7L117.5,81.4L118.0,78.8L118.2,75.5L118.6,73.3L118.9,65.4L118.9,58.6L118.6,55.9L118.6,54.4L118.4,53.6L118.1,50.1L117.8,48.4L117.7,46.8L117.3,45.3L117.2,44.1L115.7,36.9L115.2,35.6L115.0,34.4L112.9,27.7L112.5,27.0L111.6,24.3L111.0,23.0L110.8,22.3L110.5,21.9L110.3,21.2L109.5,19.6L109.0,18.2L108.1,16.5L108.0,16.1L106.7,13.9L106.0,12.2L105.2,11.1L104.4,10.5L92.5,10.4L87.4,10.2L84.5,10.3L84.2,10.5L84.2,11.2L84.4,11.7L85.6,13.3L90.2,20.6L91.0,22.4L91.8,23.5L93.0,26.2L93.8,27.7L94.6,30.6L94.8,30.8L95.6,33.2L96.3,34.3L96.9,36.2L97.6,39.2L98.3,41.0L99.7,48.1L99.8,49.5L100.4,52.1L100.4,53.6L100.0,54.0L99.5,54.2L85.3,54.2L83.4,54.0L82.8,53.6L82.6,51.7L82.7,21.7L82.6,11.1L82.4,10.7L82.0,10.3L81.4,10.2Z M81.1,73.4L81.3,73.7L81.6,74.4L81.7,76.2L81.5,91.6L81.5,114.1L81.3,116.4L81.0,116.9L80.4,117.1L70.6,117.2L66.5,117.1L65.4,116.9L64.9,116.2L64.9,97.5L65.1,90.9L65.1,79.0L65.2,74.2L65.7,73.5L66.4,73.3L79.6,73.2Z M64.0,39.0L64.1,49.6L64.0,53.6L63.6,53.9L62.9,54.1L57.9,54.0L57.3,53.5L57.3,53.1L58.1,50.9L58.5,50.4L58.7,49.4L60.2,46.2L60.3,45.7L60.7,45.2L60.8,44.5L61.2,43.8L62.3,40.9L63.3,39.0Z M81.1,11.3L81.5,11.7L81.8,12.2L81.8,37.5L81.6,42.9L81.8,52.5L81.6,53.6L80.8,54.1L73.4,54.2L72.2,54.0L66.0,54.1L65.3,53.7L65.1,52.8L65.1,36.5L65.1,33.9L64.7,33.7L63.9,34.9L63.6,35.9L63.1,36.6L62.6,37.8L62.5,38.4L61.6,40.1L61.5,40.7L61.2,41.0L60.5,43.1L59.6,44.9L59.5,45.4L59.3,45.6L58.6,47.6L57.5,49.7L57.5,50.3L57.1,50.8L57.0,51.4L56.5,52.2L56.4,52.9L55.6,54.3L55.4,55.3L54.1,58.1L53.7,59.2L52.2,62.4L51.8,63.6L51.4,64.2L51.1,65.4L50.1,67.2L49.8,68.4L49.4,69.0L49.3,69.6L47.9,72.3L47.6,73.6L46.8,75.2L46.7,75.7L45.7,77.5L44.6,80.5L43.5,82.5L42.3,85.9L41.4,87.4L41.3,88.2L40.4,89.8L40.3,90.7L39.8,91.5L39.2,93.1L38.1,95.5L37.9,96.2L37.3,97.3L37.2,97.9L36.3,99.6L36.2,100.1L35.8,100.8L35.6,101.6L33.7,105.9L33.6,106.5L32.4,108.8L32.4,109.1L32.0,109.7L31.0,112.4L30.7,112.8L30.2,114.3L29.2,116.3L28.9,116.6L28.0,117.0L15.7,117.0L12.6,116.9L12.1,116.7L11.6,116.2L11.9,115.2L12.3,114.5L12.5,113.5L12.7,113.3L13.4,111.3L14.2,109.9L14.5,108.8L14.8,108.3L15.9,105.7L16.1,105.0L16.5,104.5L18.6,99.3L19.0,98.5L19.1,97.9L19.7,96.9L20.6,94.4L21.0,93.6L21.7,91.8L21.9,91.6L21.9,91.4L22.7,89.9L23.5,87.7L24.5,85.7L25.2,83.8L26.2,81.8L26.6,80.4L27.8,77.9L28.3,76.5L29.6,73.8L30.3,71.9L31.8,68.6L32.8,66.1L33.7,64.3L34.9,61.3L35.8,59.5L36.1,58.3L37.2,56.1L38.0,54.1L38.6,52.9L39.2,51.3L39.9,50.2L40.3,48.7L42.5,44.1L42.5,43.7L42.9,43.1L43.0,42.6L43.6,41.3L44.5,39.1L45.1,37.9L46.5,34.4L47.3,32.9L48.2,30.4L48.5,30.1L48.6,29.6L48.9,29.0L49.3,27.9L50.4,25.7L51.1,23.6L52.2,21.6L53.3,18.6L54.2,17.0L54.2,16.7L55.1,15.0L55.2,14.5L56.3,12.1L56.6,11.7L57.3,11.2L57.7,11.1L78.2,11.0Z" fill="#000" fill-rule="evenodd"/>
</svg>