<svg xmlns="http://www.w3.org/2000/svg" viewBox="0 0 128 128" width="128" height="128">
  <path d="M32.1,114.5L31.8,114.7L31.5,115.2L31.6,115.8L31.9,115.8L32.2,115.2L32.5,115.0L33.2,115.0L33.5,115.2L33.8,115.6L33.8,115.8L33.2,116.4L32.9,116.4L32.6,116.7L32.8,117.0L33.2,117.2L33.7,117.6L33.8,118.2L33.2,118.8L32.9,118.9L32.5,118.7L31.9,118.0L31.7,118.0L31.6,118.1L31.5,118.6L31.9,119.3L32.1,119.4L33.7,119.4L34.2,118.8L34.4,118.2L34.1,117.0L34.1,116.5L34.3,116.2L34.2,115.0L33.6,114.5Z M29.6,114.4L28.4,114.5L28.1,115.0L27.9,115.6L28.1,117.1L27.8,117.7L27.8,118.8L28.5,119.4L28.8,119.5L30.2,119.3L30.6,118.9L30.7,117.7L30.5,117.1L30.5,116.7L30.6,116.4L30.7,115.9L30.6,115.1L30.3,114.6Z M28.7,117.3L29.7,117.3L30.0,117.5L30.1,118.3L29.7,118.9L28.9,118.9L28.5,118.4L28.5,117.7Z M29.3,115.0L29.7,115.1L30.1,115.6L30.0,116.1L29.5,116.4L28.8,116.4L28.5,115.8L28.7,115.3Z M87.1,9.1L86.5,9.1L85.4,9.7L85.2,9.7L84.0,10.4L83.5,11.0L82.9,11.2L81.4,12.1L80.2,13.1L79.6,13.4L78.2,14.5L76.2,16.6L75.0,18.5L74.1,19.7L73.7,20.6L73.2,22.1L72.5,23.7L71.8,26.9L71.8,29.9L71.9,31.7L72.1,32.6L72.5,34.9L73.4,39.0L74.0,40.6L74.0,41.0L74.4,42.7L74.8,43.9L74.8,44.2L75.2,45.3L75.6,47.0L75.6,47.4L76.1,48.8L78.2,57.3L79.0,59.5L79.3,61.3L79.8,62.9L79.9,63.6L80.2,64.6L80.3,65.7L80.6,66.7L80.6,67.8L80.4,68.6L80.1,69.0L79.3,69.8L77.3,70.2L76.5,70.2L75.7,70.0L75.2,69.5L74.2,67.0L73.9,65.4L73.7,65.0L73.2,63.1L73.2,62.7L72.5,60.7L72.2,59.5L71.8,58.6L71.5,57.3L70.9,55.7L70.7,54.5L70.5,54.1L70.3,53.1L68.0,43.6L67.7,43.0L67.1,42.5L66.7,42.3L64.1,42.4L62.6,42.3L61.0,42.3L60.5,42.6L60.0,43.4L59.9,44.5L59.5,45.3L59.1,47.1L58.7,48.4L58.6,49.1L57.9,51.0L57.8,51.7L57.5,53.0L57.1,53.7L57.1,54.1L56.7,55.4L56.5,56.7L56.1,57.7L55.9,58.6L54.9,61.6L54.7,63.1L53.9,65.4L53.8,66.7L53.2,68.1L52.9,69.1L52.3,69.8L51.9,70.1L50.3,70.1L48.8,69.5L48.3,69.1L47.9,68.5L47.5,67.5L47.5,65.6L47.6,65.3L48.1,62.9L49.5,58.3L50.0,55.9L50.3,55.1L50.3,54.8L50.6,54.2L50.7,53.1L51.1,52.5L51.1,52.2L51.3,51.7L51.3,51.4L52.3,48.3L52.3,47.5L52.7,46.5L53.2,44.2L53.6,43.4L53.8,42.3L54.2,41.3L54.5,39.5L54.9,38.6L55.4,36.8L55.4,36.3L55.9,34.7L56.6,31.4L56.7,29.6L56.9,28.9L56.8,27.6L57.0,26.0L56.5,23.0L55.9,21.4L55.5,20.6L55.1,20.2L54.9,19.6L54.6,19.4L54.6,19.0L54.3,18.7L52.6,16.1L50.3,13.8L47.3,11.7L45.4,10.7L42.4,9.6L41.5,9.6L41.1,10.0L40.5,11.6L40.5,12.2L40.1,13.4L39.6,15.9L39.1,17.3L38.5,20.8L38.1,21.8L37.9,23.2L37.6,23.9L37.5,24.6L37.0,26.0L37.0,26.8L36.3,28.9L35.4,32.4L35.4,33.2L34.9,34.6L34.7,36.1L33.8,39.4L33.5,40.5L32.8,43.6L32.5,44.1L31.9,46.8L31.6,47.6L31.6,48.3L31.1,49.6L31.0,50.9L30.3,52.8L30.3,53.9L30.0,54.3L29.4,56.7L29.4,57.2L29.2,57.8L29.0,59.3L28.7,59.8L28.1,62.8L28.1,65.6L28.3,66.9L28.7,67.8L29.0,69.8L29.8,71.1L32.9,74.2L33.8,74.9L34.2,75.1L35.4,75.9L37.3,76.7L39.2,77.2L42.4,77.7L43.4,77.7L45.4,78.0L47.3,78.0L49.2,78.2L51.6,78.2L52.7,78.4L56.2,78.5L57.2,78.9L57.8,79.3L58.5,80.3L58.9,81.0L59.2,82.6L59.6,91.2L59.7,98.2L59.9,98.9L59.9,103.9L60.0,104.9L59.9,114.4L60.0,117.9L60.2,118.6L60.8,119.0L66.7,119.0L67.1,118.9L67.5,118.5L67.7,118.0L67.9,115.6L67.7,115.0L67.7,107.4L67.9,103.9L68.0,102.9L68.0,96.7L68.1,95.9L68.3,93.1L68.5,84.5L68.6,83.8L68.6,82.6L69.0,80.8L69.5,80.0L70.6,79.0L71.6,78.5L72.5,78.4L78.5,78.3L79.2,78.1L85.0,78.1L88.8,77.4L91.3,76.8L94.0,75.5L95.5,74.4L96.4,73.6L98.2,71.5L99.1,69.9L99.7,68.2L100.1,65.6L100.1,63.1L99.8,61.4L99.5,60.5L99.3,59.1L98.7,56.9L98.5,55.5L97.7,52.0L97.4,50.9L96.7,48.0L96.4,47.1L94.4,38.7L94.0,37.6L93.4,34.9L93.2,34.3L93.1,33.6L92.8,32.7L92.7,32.1L91.9,29.0L91.7,27.9L90.5,22.8L90.5,22.4L89.8,20.3L88.7,14.6L88.4,14.0L88.1,11.4L87.6,10.0L87.5,9.4L87.3,9.1Z M59.0,68.5L59.7,66.1L60.5,65.3L61.4,65.2L63.2,65.2L64.2,65.3L67.3,65.3L67.7,65.4L68.1,65.8L68.3,66.3L68.7,68.2L69.0,68.8L69.0,69.5L68.6,70.0L67.4,70.2L63.5,70.2L61.7,70.1L59.8,70.1L59.4,69.9L59.1,69.6Z M63.9,49.9L64.2,49.9L64.5,50.1L64.8,50.9L64.8,51.2L65.0,51.7L65.1,53.0L65.5,54.1L65.7,55.1L66.0,56.0L66.1,56.9L66.7,58.9L66.6,59.6L66.3,59.9L65.5,60.2L63.0,60.2L61.9,60.0L61.4,59.5L61.4,58.9L62.0,56.9L62.1,56.0L62.3,54.9L62.5,54.7L62.6,53.9L62.9,53.3L63.6,50.3Z" fill="#000" fill-rule="evenodd"/>
</svg>