<svg xmlns="http://www.w3.org/2000/svg" viewBox="0 0 128 128" width="128" height="128">
  <path d="M20.5,15.0L17.6,17.7L15.8,20.1L14.3,22.4L12.8,25.5L11.9,28.3L11.2,32.3L11.1,37.1L11.4,37.6L13.8,37.8L25.9,37.8L31.4,38.0L37.7,37.9L61.0,38.2L70.6,38.1L79.1,38.3L89.1,38.3L89.7,38.8L89.8,39.2L89.8,43.9L89.5,46.0L88.8,47.7L87.4,49.2L85.5,50.0L83.9,50.2L66.8,50.0L37.3,50.0L36.3,50.2L34.9,50.2L30.3,50.8L28.3,51.4L27.3,51.8L26.3,52.1L24.4,53.0L20.5,55.6L17.5,58.5L16.1,60.1L16.1,60.3L14.2,63.2L13.7,64.4L13.2,65.2L12.3,67.7L11.8,69.5L11.1,74.5L11.1,77.7L10.9,78.4L10.9,81.7L11.1,84.9L11.1,98.1L10.9,99.7L10.9,100.5L11.1,101.1L10.9,103.9L10.9,116.4L11.1,118.5L11.6,118.8L14.5,118.9L45.5,118.9L51.3,118.8L57.3,118.3L61.7,117.1L62.1,116.8L63.5,116.4L66.1,115.0L68.7,113.2L71.4,110.5L73.2,108.5L74.7,106.3L76.2,103.3L77.5,99.3L78.0,96.7L78.1,94.2L78.1,91.3L78.0,90.8L77.7,90.4L43.8,90.4L39.4,90.3L39.2,90.2L38.9,89.8L38.9,80.0L39.1,78.8L39.6,78.4L40.4,78.3L43.3,78.4L52.0,78.2L74.6,78.2L89.0,78.4L89.7,78.9L89.9,102.3L89.8,117.8L90.1,118.3L90.7,118.5L95.3,118.3L98.4,117.8L99.8,117.2L100.5,117.1L103.8,115.7L105.3,114.9L107.1,113.6L109.3,111.7L111.1,109.8L112.5,108.0L114.6,104.5L115.4,102.6L115.8,101.0L116.0,100.8L116.2,99.8L116.5,99.3L116.8,96.0L117.0,95.4L117.2,91.7L117.2,76.4L117.5,74.0L117.3,70.0L117.4,11.1L117.2,10.5L116.8,10.3L115.8,10.2L113.2,10.3L104.5,10.0L95.0,10.0L73.9,9.7L70.8,9.7L64.6,9.5L48.0,9.6L43.2,9.4L36.1,9.4L31.9,9.7L31.1,10.0L29.3,10.3L27.9,10.8L25.2,11.9L23.7,12.7L21.6,14.1Z" fill="#000" fill-rule="evenodd"/>
</svg>