<svg xmlns="http://www.w3.org/2000/svg" viewBox="0 0 128 128" width="128" height="128">
  <path d="M118.7,97.8L118.5,97.3L118.1,97.1L116.9,97.1L100.3,97.1L93.5,97.2L76.1,97.1L71.4,97.3L61.5,97.2L56.0,97.4L34.0,97.3L33.5,97.5L33.3,98.0L33.5,118.2L34.0,118.8L34.4,118.9L83.1,118.9L118.1,118.7L118.3,118.6L118.7,118.1Z M31.7,76.9L13.6,76.9L10.8,77.1L10.3,77.7L10.7,118.1L11.1,118.6L17.0,118.7L19.5,118.5L23.9,118.6L26.2,118.4L31.5,118.5L32.0,118.3L32.1,118.1L32.3,106.0L31.9,97.8L32.0,82.5L31.9,77.1Z M95.4,54.1L95.2,53.6L94.8,53.5L78.7,53.6L72.0,53.8L53.7,53.8L40.9,54.0L30.5,53.9L20.9,54.1L11.1,54.1L10.3,54.4L10.1,54.9L10.3,75.0L10.4,75.3L11.0,75.8L11.8,75.9L31.2,75.8L34.4,75.6L41.6,75.5L44.3,75.6L60.5,75.4L68.5,75.5L94.9,75.3L95.4,74.9L95.5,73.9Z M95.3,10.3L94.8,9.8L82.5,10.0L77.1,9.9L75.3,10.1L72.7,9.9L71.3,10.1L68.3,10.0L65.1,10.2L50.4,10.2L32.8,10.5L25.0,10.4L10.0,10.7L9.6,11.5L9.5,13.0L9.7,16.0L9.9,31.9L10.1,32.3L10.5,32.5L14.7,32.6L25.5,32.3L38.7,32.4L60.5,32.1L64.8,32.2L67.1,32.0L82.3,32.0L85.1,31.8L88.4,31.9L94.3,31.7L95.1,31.8L95.5,31.4L95.5,27.3L95.4,24.8Z M117.6,9.4L97.7,9.6L96.8,9.8L96.5,10.1L96.4,17.4L96.6,20.7L96.5,31.3L96.7,34.5L96.6,36.2L96.8,45.3L96.7,67.1L96.9,69.8L96.8,74.2L97.1,88.1L97.0,95.0L97.1,95.4L97.5,95.7L118.2,95.7L118.7,95.4L118.8,88.0L118.5,59.7L118.6,38.5L118.5,28.1L118.3,23.0L118.3,10.2L118.1,9.6Z" fill="#000" fill-rule="evenodd"/>
</svg>