<svg xmlns="http://www.w3.org/2000/svg" viewBox="0 0 128 128" width="128" height="128">
  <path d="M93.7,9.7L90.5,9.3L86.4,9.3L83.0,9.7L80.2,10.3L78.2,10.9L77.6,11.3L76.2,11.7L75.4,12.3L74.7,12.4L73.4,13.1L71.6,14.6L70.3,15.4L67.7,17.9L67.4,18.5L65.7,20.4L64.4,22.4L63.2,25.1L62.9,25.6L62.6,26.6L61.8,28.3L60.1,33.5L59.6,36.4L58.8,39.2L58.5,41.0L58.1,42.0L58.0,43.3L57.1,47.5L57.0,48.9L56.7,49.7L56.5,51.5L55.6,55.9L55.5,57.0L54.5,60.3L54.1,62.5L53.1,65.7L51.7,68.8L51.1,69.7L49.5,71.2L48.2,72.0L47.1,72.5L46.8,72.7L45.0,73.4L43.1,73.7L41.8,73.7L41.1,73.9L38.2,73.7L36.4,73.3L34.2,72.3L32.6,71.3L30.6,69.8L28.8,67.8L27.5,65.8L26.2,63.1L24.7,58.5L24.1,54.6L24.0,50.7L24.3,47.6L24.8,44.1L25.2,42.7L25.2,42.0L25.0,41.7L24.5,41.6L13.9,41.7L13.6,41.8L13.2,42.4L13.1,44.0L13.0,44.6L12.8,49.3L12.6,50.7L12.6,60.1L13.1,65.1L13.4,66.6L13.5,68.0L14.0,70.5L14.3,71.8L14.9,73.4L15.5,75.4L17.7,80.1L17.9,80.7L20.2,84.6L22.5,87.1L23.6,88.1L25.2,89.4L26.0,89.8L27.3,90.7L30.3,92.2L33.0,93.0L36.2,93.7L39.5,93.9L94.8,93.8L96.8,94.2L98.1,95.0L99.4,96.1L100.7,98.5L100.9,99.6L100.9,101.0L100.7,102.2L100.0,103.6L98.8,104.8L97.9,105.5L95.8,106.6L92.4,107.1L87.6,107.3L78.6,107.2L73.0,106.9L71.6,106.9L71.2,107.1L71.0,107.9L71.0,112.2L71.2,115.2L71.1,118.0L71.2,118.3L71.6,118.5L73.2,118.7L75.2,118.6L78.4,118.9L91.5,118.9L95.5,118.4L99.2,117.5L99.7,117.3L100.8,117.1L101.5,116.6L101.9,116.6L102.5,116.2L104.0,115.6L105.8,114.4L107.2,113.2L109.9,110.5L111.8,107.8L112.1,107.1L112.9,105.7L113.8,103.3L113.9,102.5L114.2,101.7L114.6,100.2L114.9,95.2L114.7,91.3L113.6,86.7L112.8,84.9L112.8,84.7L111.4,82.2L110.2,80.6L109.1,79.5L107.7,78.2L105.3,76.5L104.9,76.4L104.1,75.9L100.6,74.5L98.1,73.8L97.5,73.8L96.4,73.5L96.3,73.0L99.9,70.1L105.9,64.0L107.0,62.6L108.6,60.8L111.4,56.4L112.3,54.6L114.2,49.4L114.4,48.2L114.8,47.3L114.9,45.6L115.3,44.2L115.7,37.4L115.5,36.6L115.5,34.3L115.2,31.2L115.0,31.0L114.9,29.8L114.2,27.6L113.2,24.8L111.4,21.4L110.6,20.1L109.0,18.2L107.1,16.3L103.8,14.0L99.8,11.7L97.7,11.0L97.4,10.7L97.0,10.7Z M95.9,34.6L97.3,35.9L98.8,38.2L99.4,39.6L99.9,41.5L99.9,41.9L100.2,42.8L100.3,48.3L99.8,51.7L99.4,52.7L99.3,54.2L97.8,58.3L97.6,58.6L97.2,59.6L95.9,61.8L93.5,64.8L88.8,68.9L85.8,70.7L85.2,70.9L84.0,71.5L82.1,72.1L78.9,72.8L74.7,73.4L64.9,73.3L62.3,73.0L61.8,72.8L61.6,72.6L61.7,71.5L63.8,66.8L64.0,65.8L64.8,64.4L64.9,63.9L65.2,63.2L67.4,57.0L67.5,56.2L67.9,55.4L68.2,54.1L68.9,51.9L69.0,50.9L69.3,49.8L69.5,48.6L69.9,47.8L70.1,46.4L70.9,44.2L71.1,42.9L71.4,42.4L71.7,41.5L72.6,39.5L74.6,36.3L76.9,34.1L80.2,32.3L84.0,31.5L89.5,31.7L91.3,32.1L92.9,32.6L93.2,32.9L94.6,33.6Z" fill="#000" fill-rule="evenodd"/>
</svg>