<svg xmlns="http://www.w3.org/2000/svg" viewBox="0 0 128 128" width="128" height="128">
  <path d="M56.4,9.2L50.2,9.4L45.6,9.9L40.7,10.7L35.4,12.0L29.6,14.0L26.2,15.4L22.6,17.1L22.4,17.3L21.6,17.7L19.9,18.7L19.3,19.6L19.0,20.7L19.0,38.1L19.2,39.1L19.4,39.5L19.8,39.9L20.9,39.8L21.6,39.4L22.3,38.8L24.7,37.2L26.1,36.2L29.9,34.0L30.5,33.8L31.8,33.1L33.3,32.5L34.3,31.9L34.6,31.9L35.4,31.5L38.9,30.3L43.0,29.2L44.1,29.2L44.7,29.5L45.2,30.0L45.5,31.6L45.5,33.8L45.6,45.4L45.5,46.0L45.3,46.5L44.6,47.3L40.6,48.8L40.1,49.2L38.7,49.7L36.6,50.8L35.9,51.4L34.3,52.3L31.7,54.4L31.5,54.5L28.0,57.9L24.9,61.8L24.0,63.4L23.1,64.7L22.1,66.7L22.0,67.1L21.6,67.9L20.2,71.4L19.5,74.2L18.9,77.9L18.7,79.8L18.7,85.3L18.9,85.9L19.0,88.1L19.4,89.8L19.6,91.2L20.7,94.5L20.7,94.8L21.1,95.5L21.5,96.8L22.9,99.9L23.5,100.7L24.0,101.7L26.4,105.1L28.4,107.5L30.7,109.8L32.5,111.3L34.7,113.0L39.2,115.6L40.0,115.8L41.2,116.5L43.6,117.2L44.0,117.5L44.8,117.6L45.4,117.9L49.9,118.8L54.5,119.2L58.3,119.1L60.7,118.8L61.9,118.8L64.8,118.4L65.4,118.1L67.3,117.9L69.2,117.4L69.7,117.1L70.0,117.1L71.3,116.6L71.9,116.6L72.5,116.2L73.4,116.0L73.5,115.8L74.5,115.6L79.2,113.5L81.3,112.5L81.6,112.2L84.3,110.7L87.9,108.3L88.8,107.4L90.2,106.5L91.8,105.0L95.6,101.2L99.2,96.7L100.6,94.8L102.4,92.0L102.6,91.3L103.3,90.4L104.7,87.5L104.7,87.2L105.5,85.9L105.5,85.4L106.9,82.1L107.9,78.4L108.0,77.7L108.2,77.1L109.2,71.4L109.6,66.5L109.6,61.4L108.8,55.2L108.3,52.6L107.8,51.0L107.8,50.6L107.1,48.4L107.1,48.0L106.4,46.1L106.2,45.7L106.1,45.1L104.4,41.2L104.2,40.4L101.1,34.9L99.7,32.7L98.5,31.3L98.1,30.6L95.1,27.1L93.0,24.9L92.5,24.5L90.6,22.7L87.0,19.8L82.8,16.9L78.1,14.4L72.7,12.2L71.6,11.9L70.8,11.5L70.0,11.4L69.0,11.0L68.1,10.9L67.2,10.5L61.7,9.6L60.6,9.6L58.8,9.2Z M44.1,68.2L45.0,68.3L45.5,68.9L45.7,69.5L45.8,72.7L45.7,76.9L45.9,78.9L45.9,96.1L45.6,96.8L45.2,97.2L44.7,97.4L44.4,97.4L43.2,96.7L40.9,94.4L39.6,92.7L38.4,90.7L37.5,88.4L37.0,86.7L36.6,84.1L36.6,81.4L36.9,78.9L37.4,77.0L38.4,74.6L39.8,72.2L41.4,70.2L43.3,68.5Z M64.9,29.7L66.5,29.8L69.0,30.7L72.9,32.6L75.0,34.0L76.1,34.9L76.9,35.3L79.3,37.4L82.0,40.2L83.9,42.5L86.3,46.2L87.1,48.0L87.8,49.1L87.8,49.3L88.2,50.1L89.2,52.7L90.5,57.5L90.9,60.3L91.1,62.5L91.0,67.9L90.6,71.0L89.7,74.5L88.2,79.0L86.4,82.7L84.6,85.4L83.3,87.2L80.7,90.1L79.0,91.8L76.3,94.0L74.7,95.1L71.6,96.9L70.2,97.5L69.5,97.9L68.8,98.1L68.3,98.4L68.1,98.4L67.3,98.8L66.3,99.1L65.4,99.1L64.9,99.0L64.4,98.5L64.0,98.1L63.9,94.0L64.0,89.0L63.8,79.3L63.9,69.3L63.7,62.0L63.8,52.6L63.6,32.3L63.8,30.6L64.1,30.1Z" fill="#000" fill-rule="evenodd"/>
</svg>