<svg xmlns="http://www.w3.org/2000/svg" viewBox="0 0 128 128" width="128" height="128">
  <path d="M42.6,16.1L40.0,18.3L38.4,19.9L37.2,21.5L35.9,23.7L35.3,25.1L35.1,25.9L34.8,26.3L34.1,29.4L34.1,32.7L34.6,35.1L35.2,36.7L35.8,38.0L37.4,40.1L39.4,41.6L40.8,42.3L42.5,42.8L43.7,43.0L46.0,43.0L47.9,42.6L50.3,41.5L51.8,40.3L53.0,39.0L54.4,36.4L55.1,33.7L55.1,31.6L54.6,29.2L53.9,27.3L53.1,26.3L52.0,25.2L50.8,24.3L47.9,22.9L46.9,22.1L46.3,21.3L46.1,20.4L46.1,19.7L46.6,18.1L47.3,17.3L48.6,15.9L50.1,15.0L51.6,14.4L53.2,13.9L56.4,13.9L59.1,14.6L61.5,15.8L63.7,17.5L65.4,19.5L66.6,21.7L66.6,22.0L67.1,22.8L67.4,23.7L67.8,25.7L67.8,28.6L67.4,31.0L66.2,33.8L64.7,36.1L62.3,38.7L59.0,41.3L56.9,42.6L53.6,44.3L49.8,45.9L47.1,46.9L46.2,47.3L41.9,48.6L41.3,49.0L40.6,49.1L39.1,49.7L38.9,49.9L37.6,50.1L35.3,51.0L32.9,51.6L28.4,53.6L27.8,54.1L26.6,54.7L24.5,56.0L21.3,58.6L19.0,61.0L16.0,65.0L13.5,69.7L12.9,71.5L12.3,72.6L11.5,75.4L10.8,78.8L10.5,83.7L10.8,88.3L12.0,93.7L13.3,97.2L14.1,98.8L14.3,99.5L15.2,101.2L17.3,104.3L19.1,106.5L22.1,109.5L24.1,111.2L27.3,113.5L31.4,115.6L32.5,115.9L33.0,116.2L35.0,116.8L37.4,117.4L38.0,117.7L40.1,118.1L41.1,118.1L42.9,118.3L45.3,118.3L49.4,118.0L52.0,117.6L56.8,116.2L61.9,113.6L66.0,110.9L67.9,109.2L69.6,107.5L71.5,105.3L72.2,104.3L72.4,103.8L72.8,103.4L73.7,102.1L73.8,101.7L74.2,101.2L76.0,97.3L76.4,96.9L76.8,96.9L77.5,98.1L77.9,99.2L78.9,101.1L80.3,103.0L80.3,103.2L81.9,105.6L84.3,108.0L84.7,108.6L86.7,110.5L87.4,110.8L89.3,112.4L91.0,113.4L91.3,113.7L93.8,115.0L94.3,115.3L94.7,115.4L95.5,115.9L95.8,115.9L96.3,116.3L97.4,116.6L97.5,116.8L101.2,117.8L103.1,118.1L103.8,118.3L106.2,118.5L107.0,118.8L116.4,118.8L116.8,118.4L116.9,117.5L117.5,82.9L117.6,78.4L117.5,75.8L117.7,71.9L117.7,65.2L117.5,64.8L116.6,64.6L112.3,64.5L111.9,64.3L111.0,64.2L108.9,63.5L107.4,62.5L106.0,61.3L104.3,59.2L103.7,58.0L102.1,53.2L101.5,50.5L100.3,46.9L100.1,45.8L99.5,44.3L99.4,43.5L98.5,40.7L97.8,37.9L96.4,33.8L96.2,32.9L94.2,28.3L93.3,27.0L93.1,26.5L92.4,25.2L91.2,23.9L91.1,23.5L89.8,21.9L86.8,18.8L83.1,15.8L81.4,14.6L80.6,14.4L80.2,14.0L77.4,12.6L74.4,11.3L72.0,10.6L69.9,10.2L68.7,9.8L65.8,9.7L65.2,9.5L60.9,9.5L55.9,10.2L52.4,11.2L48.4,12.8L47.2,13.5L45.0,14.5L43.1,15.9Z M66.1,39.8L66.2,40.7L65.7,42.9L65.4,45.4L64.0,51.1L62.7,54.7L62.4,55.0L61.7,56.8L60.2,59.2L59.4,60.1L59.3,60.4L57.0,62.7L55.5,63.5L54.2,63.8L52.5,63.8L51.6,63.6L49.6,62.5L48.7,61.5L48.0,60.5L47.4,58.4L47.4,56.5L47.8,55.0L48.4,54.0L49.7,52.6L50.8,51.7L52.0,51.2L52.4,50.7L53.2,50.4L55.7,48.6L56.2,48.5L58.7,46.5L59.7,45.9L64.0,41.8L64.1,41.5L65.6,39.8Z" fill="#000" fill-rule="evenodd"/>
</svg>