<svg xmlns="http://www.w3.org/2000/svg" viewBox="0 0 128 128" width="128" height="128">
  <path d="M30.2,20.7L27.1,23.4L26.8,23.4L24.5,25.9L24.3,26.3L21.8,28.9L20.9,30.4L19.8,31.6L19.6,32.2L19.2,32.5L18.8,33.2L18.4,33.6L17.8,35.0L15.7,38.5L15.1,39.6L14.1,42.2L13.8,42.7L13.0,45.5L12.6,46.3L11.9,48.4L11.7,49.3L11.3,50.5L11.2,51.3L10.9,52.2L10.2,56.8L9.9,60.1L9.8,60.7L9.7,67.0L10.4,73.8L10.8,75.1L11.5,78.2L12.3,80.7L12.7,81.6L12.9,82.7L14.6,86.4L15.7,88.6L16.7,90.1L17.5,92.0L18.0,92.7L18.4,93.5L19.8,95.4L20.2,96.3L21.7,98.0L22.0,98.7L23.4,100.1L24.1,101.0L25.4,102.4L26.2,103.0L27.3,104.2L30.2,106.8L34.7,110.0L37.6,111.7L41.2,113.5L41.7,113.9L45.9,115.7L49.2,116.8L51.2,117.2L52.2,117.6L53.9,117.8L54.8,118.1L58.1,118.6L59.4,118.6L60.6,118.9L63.2,119.1L68.3,119.1L69.5,118.8L73.5,118.4L77.1,117.6L77.7,117.6L80.2,116.7L80.9,116.6L84.8,115.0L86.4,114.5L90.2,112.7L92.3,111.4L94.4,110.3L96.5,108.8L97.0,108.2L98.5,107.2L99.9,105.8L100.0,105.2L99.7,105.0L98.7,104.9L94.4,105.0L91.9,104.8L87.9,104.8L85.9,104.6L83.4,104.1L80.5,103.2L77.8,101.6L77.0,100.8L76.5,100.5L74.6,98.5L73.6,96.9L72.4,94.5L71.4,91.6L71.4,90.8L71.0,88.8L70.8,73.3L70.8,40.4L71.0,36.0L71.0,30.6L70.9,28.8L70.6,26.7L70.2,25.5L69.6,24.3L69.1,23.5L67.4,21.7L67.0,21.5L66.5,21.1L64.0,20.1L52.4,19.8L32.3,19.6L31.6,19.8Z M47.3,36.3L50.5,36.4L51.2,36.6L52.7,36.8L53.9,37.2L54.7,37.3L55.1,37.5L56.0,37.8L57.4,38.5L58.2,38.7L58.9,39.3L60.2,40.0L61.4,40.9L63.4,42.9L65.3,45.4L66.4,47.4L66.4,47.6L67.4,50.1L67.7,51.7L67.7,52.5L67.9,53.4L68.2,57.0L68.1,83.5L68.0,87.2L67.7,89.8L67.4,90.7L65.4,95.2L64.5,96.5L63.1,98.2L60.7,100.4L60.5,100.5L59.0,101.7L57.7,102.3L56.9,102.4L55.4,103.2L54.8,103.3L53.9,103.7L52.6,103.7L50.9,104.1L46.8,104.1L43.3,103.2L42.9,103.2L41.8,102.8L39.4,101.6L37.7,100.4L34.2,96.9L33.6,95.7L32.7,94.7L31.9,93.1L30.5,88.9L29.8,85.6L29.5,83.0L29.4,82.6L29.4,81.0L29.1,79.6L28.9,75.6L28.9,66.2L29.0,63.4L29.2,62.6L29.3,59.4L29.6,56.8L29.6,55.4L29.8,54.3L29.9,53.2L30.7,50.1L32.3,46.0L34.0,43.3L34.8,42.5L37.3,40.1L38.2,39.4L40.2,38.2L42.0,37.4L44.8,36.6Z M38.1,15.7L37.5,16.3L37.5,16.5L37.8,16.7L38.4,16.9L40.7,16.9L42.6,17.1L48.8,17.0L52.0,17.1L52.6,17.2L54.7,17.1L58.5,17.1L59.1,17.3L73.9,17.3L77.7,17.5L78.4,17.8L80.0,17.9L82.8,18.9L83.0,19.2L83.7,19.4L86.0,20.9L87.2,22.0L88.8,23.7L90.6,26.4L91.5,28.4L92.2,30.6L92.4,33.8L92.5,40.6L92.3,42.6L92.5,45.4L92.5,87.4L92.6,93.6L92.9,95.0L92.9,95.6L93.3,96.8L94.2,98.4L94.8,99.2L96.5,100.6L97.9,101.2L100.1,101.7L100.9,101.7L101.6,101.9L103.3,101.9L104.2,101.6L105.3,100.5L107.6,97.7L110.1,94.3L110.4,93.6L111.1,92.6L112.4,90.3L113.9,86.9L114.7,85.2L114.7,85.0L115.5,83.0L115.7,82.2L116.0,81.6L117.4,75.9L117.6,73.8L117.8,73.1L118.1,70.3L118.2,69.6L118.3,67.1L118.5,65.6L118.5,60.4L118.3,57.0L117.8,54.9L117.7,53.5L116.9,51.2L116.8,50.2L115.7,46.7L114.4,43.3L112.4,39.3L112.1,38.3L110.8,36.1L110.0,35.0L109.7,34.4L109.3,34.0L108.2,32.3L107.9,31.7L106.7,30.2L106.2,29.4L105.1,28.1L100.3,23.3L95.7,19.6L95.2,19.4L94.1,18.5L91.9,17.1L91.0,16.7L89.7,15.8L88.9,15.5L85.9,13.9L84.3,13.4L83.6,13.0L81.3,12.1L75.8,10.4L67.5,9.3L65.7,9.3L64.7,9.1L61.9,9.1L61.3,9.3L58.7,9.4L57.2,9.7L55.1,9.9L54.2,10.2L52.7,10.3L51.2,10.8L49.2,11.2L48.7,11.5L45.4,12.4L43.3,13.3L42.5,13.5L41.2,14.2L39.9,14.6Z" fill="#000" fill-rule="evenodd"/>
</svg>