<svg xmlns="http://www.w3.org/2000/svg" viewBox="0 0 128 128" width="128" height="128">
  <path d="M38.2,65.6L35.6,66.0L32.1,66.9L31.3,67.3L30.5,67.4L27.8,68.8L25.2,70.5L22.6,72.7L21.1,74.2L20.8,74.8L19.5,76.1L17.6,79.1L17.4,79.8L16.8,80.6L16.6,81.3L15.8,83.0L15.7,83.7L14.9,86.1L14.9,86.7L14.7,87.9L14.4,91.7L14.4,93.9L14.7,95.5L14.7,96.4L15.3,99.6L16.4,102.6L17.2,104.3L18.6,106.9L19.8,108.6L21.1,110.1L24.3,113.1L24.8,113.3L26.0,114.3L27.2,115.1L27.8,115.3L28.3,115.7L29.6,116.3L30.2,116.6L30.6,116.7L31.0,117.0L31.2,117.0L33.5,117.9L35.3,118.3L36.3,118.6L38.3,118.7L39.0,118.9L43.6,118.9L47.8,118.1L49.7,117.5L50.2,117.2L51.5,116.9L52.8,116.2L53.2,116.1L53.9,115.6L55.8,114.6L58.3,112.7L59.9,111.3L62.3,108.7L64.5,105.4L65.3,103.5L65.7,102.8L66.9,99.4L67.5,97.1L67.7,95.9L67.7,95.0L67.9,94.2L67.9,90.6L67.7,89.8L67.6,88.1L67.2,86.5L67.1,85.6L66.7,84.7L66.6,84.0L66.1,82.8L65.9,82.0L65.2,80.7L64.6,79.2L63.5,77.3L61.9,75.2L58.8,72.0L57.5,70.9L55.2,69.3L54.7,69.2L52.8,68.0L47.8,66.3L47.0,66.2L45.6,65.7L42.9,65.5Z M42.0,9.3L40.9,9.5L39.5,9.5L37.3,9.8L36.4,10.2L34.5,10.5L33.5,11.0L33.0,11.1L29.0,13.1L27.2,14.4L24.3,17.0L23.1,18.4L21.7,20.3L19.3,24.7L18.3,28.4L18.2,29.6L17.8,31.2L17.7,36.3L18.2,38.5L18.2,39.2L18.7,40.7L19.0,42.0L20.3,44.7L20.6,45.6L21.4,47.0L23.9,50.2L25.5,51.9L27.5,53.6L29.2,54.5L30.3,55.4L33.3,56.8L34.5,57.1L35.4,57.5L39.2,58.2L42.6,58.3L44.2,58.2L45.8,57.9L47.5,57.7L48.3,57.4L48.7,57.4L50.9,56.5L51.5,56.4L54.6,54.7L55.5,54.0L56.8,53.3L57.6,52.7L60.1,50.2L62.5,47.0L64.7,42.8L66.0,38.0L66.1,36.6L66.3,36.0L66.3,32.0L65.7,27.5L65.0,25.5L64.5,24.5L63.7,22.4L61.7,19.3L60.1,17.4L58.2,15.6L56.8,14.3L54.8,13.0L52.4,11.6L50.3,10.9L49.8,10.5L47.3,10.0L46.5,9.7L43.2,9.3Z M64.9,9.5L64.9,9.8L67.5,10.8L70.0,12.3L72.5,14.5L73.7,16.2L74.5,17.8L74.9,19.2L75.2,19.6L75.9,22.7L76.1,27.8L76.1,47.9L75.9,51.7L75.7,86.4L75.9,89.9L75.6,110.7L75.7,117.2L75.9,117.5L76.6,118.1L79.8,118.2L96.4,118.2L101.8,118.0L109.7,118.1L112.3,117.8L112.5,117.7L112.8,117.2L112.9,116.4L112.9,111.9L113.2,104.2L113.1,101.2L113.2,100.5L113.2,83.7L113.4,82.4L113.5,79.0L113.4,76.9L113.8,58.8L113.7,45.0L113.9,38.1L113.8,32.0L114.0,27.8L113.8,24.6L113.6,24.1L113.5,22.6L112.5,19.2L111.0,16.3L109.5,14.6L109.5,14.4L107.3,12.3L105.8,11.3L104.0,10.5L101.3,9.7L99.1,9.5L91.2,9.5L89.0,9.3L85.9,9.3L85.5,9.5L66.4,9.2Z" fill="#000" fill-rule="evenodd"/>
</svg>