<svg xmlns="http://www.w3.org/2000/svg" viewBox="0 0 128 128" width="128" height="128">
  <path d="M56.7,63.8L53.7,64.3L52.6,64.7L52.1,64.8L48.5,66.3L45.8,68.2L44.7,69.1L43.0,70.9L40.7,74.1L39.7,75.9L38.9,78.2L38.0,82.3L38.0,86.8L38.3,88.5L38.3,89.0L38.8,91.1L40.1,94.5L40.9,95.9L41.2,96.2L41.9,97.4L44.8,100.6L46.6,102.0L48.4,103.1L49.8,103.8L50.0,103.8L52.8,105.0L54.1,105.2L54.8,105.4L57.5,105.7L59.8,105.7L61.5,105.5L62.5,105.2L64.0,105.0L64.6,104.7L66.6,104.1L68.5,103.2L70.0,102.3L71.8,100.9L74.4,98.3L76.4,95.6L77.2,93.8L78.3,91.0L78.8,88.9L78.8,88.3L79.0,87.9L79.2,86.6L79.1,82.2L78.7,79.9L78.4,79.0L78.2,78.1L76.5,74.4L76.0,73.8L76.0,73.7L75.1,72.2L73.4,70.2L71.1,68.2L70.9,68.1L70.6,67.7L67.7,65.9L64.1,64.5L62.7,64.2L62.0,64.0L60.3,63.8Z M56.6,72.0L59.7,71.9L61.3,72.1L64.0,73.0L66.2,74.4L67.3,75.3L68.5,76.6L69.8,78.6L70.5,80.0L70.9,81.2L71.4,83.6L71.3,86.4L71.0,88.1L70.6,89.2L69.7,91.2L68.1,93.3L66.0,95.3L64.4,96.3L62.4,97.1L62.0,97.3L59.9,97.7L56.8,97.7L55.8,97.4L54.9,97.3L52.8,96.4L50.4,94.9L49.4,93.8L49.0,93.2L48.3,92.6L47.1,90.9L46.1,88.4L45.7,86.3L45.7,83.2L46.2,81.0L47.0,79.0L48.4,76.9L50.5,74.6L52.3,73.4L54.0,72.6Z M48.7,24.6L46.3,26.1L44.6,27.6L43.4,28.8L41.3,31.5L39.4,35.0L38.5,37.7L38.0,40.3L38.1,42.6L38.5,42.9L45.2,42.9L45.6,42.4L46.0,40.2L46.4,38.8L47.1,37.2L47.7,36.0L48.9,34.4L51.1,32.4L52.5,31.7L52.7,31.4L53.9,30.9L54.1,30.9L54.7,30.5L56.9,30.0L60.2,30.0L60.7,30.3L62.1,30.5L62.8,30.9L63.5,31.0L64.1,31.4L64.4,31.4L66.3,32.6L68.7,35.1L70.1,37.4L71.0,40.0L71.1,40.7L71.1,42.2L71.4,43.2L71.3,51.9L71.0,52.4L70.2,52.4L68.2,51.8L67.6,51.4L66.4,51.3L65.0,50.9L61.9,50.4L58.5,50.2L54.4,50.5L52.9,50.8L51.6,50.9L49.9,51.3L46.7,52.3L44.9,53.2L43.9,53.5L43.0,54.2L42.7,54.2L40.1,55.8L37.8,57.4L36.0,58.9L32.3,62.8L31.5,64.0L31.0,64.5L29.4,66.8L27.3,71.1L26.3,73.7L25.5,76.5L24.9,79.3L24.6,82.2L24.5,86.8L25.0,90.8L25.4,92.8L26.0,94.8L26.9,97.6L27.3,98.0L27.4,98.7L28.1,100.0L29.4,102.4L31.5,105.5L34.3,108.7L38.8,112.6L41.0,114.0L45.6,116.4L47.0,116.8L47.9,117.2L50.0,117.7L51.2,118.1L52.9,118.4L56.8,118.8L60.0,118.8L62.7,118.5L67.5,117.6L69.9,116.7L70.2,116.7L71.4,116.1L72.1,116.1L74.3,117.4L74.7,117.5L75.9,118.1L77.9,118.8L79.7,119.0L98.7,119.1L101.9,119.0L103.1,118.9L103.4,118.6L103.5,117.7L103.6,112.0L103.5,111.3L103.1,111.0L86.7,111.0L84.2,110.8L80.8,110.8L79.8,110.3L79.2,109.8L78.8,108.7L78.8,101.9L78.7,101.6L78.2,101.6L75.5,104.2L72.9,106.2L70.3,107.8L68.1,108.7L68.0,108.9L63.5,110.3L59.9,110.7L55.5,110.7L51.0,109.8L48.1,108.7L44.6,106.8L42.0,105.0L39.6,102.7L38.1,100.9L37.7,100.3L37.4,100.1L35.5,97.0L33.7,93.0L33.0,90.1L33.0,89.6L32.6,87.7L32.4,85.8L32.5,82.4L33.2,78.2L33.8,76.7L34.0,75.7L34.4,75.2L34.5,74.4L35.9,71.6L36.9,70.2L37.2,69.6L39.4,66.8L41.3,65.0L41.5,64.9L44.0,62.9L47.1,61.0L48.0,60.6L48.3,60.6L48.4,60.5L49.1,60.3L50.3,59.7L52.0,59.4L53.7,58.9L56.4,58.5L60.4,58.5L62.2,58.7L63.7,59.1L64.4,59.1L64.6,59.3L66.1,59.6L70.3,61.3L70.8,61.7L72.2,62.5L73.3,63.2L75.4,64.9L77.4,66.8L77.5,67.1L78.4,68.0L78.9,68.0L79.2,67.6L79.1,55.7L79.2,47.1L79.1,40.8L78.6,37.9L78.1,36.2L77.3,34.2L77.0,33.8L76.6,32.8L75.6,31.3L75.2,30.9L74.8,30.1L73.1,28.1L70.6,26.0L68.5,24.7L66.8,23.8L64.7,23.0L63.2,22.6L62.8,22.4L60.6,22.1L57.0,22.1L56.2,22.2L54.7,22.3L50.7,23.5Z M38.3,15.9L35.9,18.0L32.7,21.3L29.9,25.1L29.6,25.9L28.9,27.0L27.0,30.9L25.4,36.0L24.7,40.7L24.8,42.9L25.2,43.2L25.6,43.3L30.7,43.3L31.9,43.2L32.3,43.0L32.7,42.4L32.7,41.3L33.0,40.2L33.1,38.3L34.5,33.7L35.4,32.0L35.5,31.6L37.6,28.1L39.9,25.3L42.2,23.1L42.6,22.9L44.5,21.4L46.3,20.3L47.7,19.7L48.5,19.3L52.2,18.0L53.6,17.8L54.9,17.4L56.1,17.4L57.0,17.3L60.5,17.3L61.1,17.4L62.6,17.5L64.3,17.9L65.2,18.0L65.9,18.3L66.9,18.5L71.6,20.7L74.2,22.5L76.1,24.1L77.7,25.7L80.0,28.5L80.5,29.6L80.9,30.0L81.5,31.3L81.9,31.9L83.3,35.4L83.9,38.1L84.0,39.1L84.3,40.4L84.5,43.1L84.3,66.7L84.3,101.9L84.6,104.0L84.9,104.6L85.5,105.2L86.0,105.4L87.1,105.6L102.6,105.8L103.5,105.6L103.8,105.0L103.8,98.1L103.3,97.7L102.3,97.6L94.5,97.6L93.2,97.1L92.8,96.5L92.5,95.6L92.5,76.2L92.4,67.0L92.4,61.3L92.5,56.9L92.5,46.4L92.4,42.6L92.2,39.0L91.6,35.8L91.3,35.0L91.1,33.7L90.4,31.7L89.5,29.6L89.2,28.8L88.2,26.7L85.8,23.0L84.2,21.0L82.9,19.6L80.5,17.3L79.0,16.2L77.5,14.8L74.0,12.8L69.6,10.9L66.1,9.9L63.5,9.5L59.9,9.2L56.4,9.2L52.6,9.7L50.2,10.3L49.6,10.6L48.4,10.7L46.7,11.2L45.1,12.1L43.0,12.9Z" fill="#000" fill-rule="evenodd"/>
</svg>