<svg xmlns="http://www.w3.org/2000/svg" viewBox="0 0 128 128" width="128" height="128">
  <path d="M33.5,19.5L29.4,23.0L26.8,25.8L23.9,29.3L21.6,32.7L21.2,33.5L20.3,34.9L20.1,35.5L18.8,38.0L17.6,41.0L17.2,41.7L17.1,42.3L16.8,42.9L15.8,46.2L14.8,50.6L14.1,55.9L14.1,60.7L14.6,66.0L15.0,67.4L15.2,68.8L16.4,72.6L18.2,76.7L19.9,79.9L20.4,80.5L20.6,81.0L21.8,82.4L22.7,83.8L25.4,86.7L28.2,89.5L29.0,89.9L31.6,91.9L36.9,95.1L37.9,95.4L40.9,96.6L43.6,97.4L44.1,97.6L45.8,97.9L46.6,98.2L52.0,98.8L57.6,98.7L61.7,98.2L62.1,98.0L64.0,97.6L66.1,96.9L67.2,96.7L69.7,95.7L72.7,94.3L74.1,93.4L75.3,92.8L75.7,92.4L76.3,92.1L79.5,89.8L80.2,89.0L81.0,88.6L82.9,86.6L85.0,84.2L85.1,84.0L86.4,82.5L87.5,80.8L88.0,79.9L88.4,79.5L90.1,76.4L90.2,75.9L90.6,75.2L92.3,70.6L92.4,69.8L93.3,66.4L94.0,60.5L94.3,60.0L100.3,59.9L112.6,60.1L113.0,60.4L113.0,61.6L113.0,63.6L112.4,68.3L112.2,68.8L111.8,71.6L111.5,72.3L111.2,73.9L110.7,75.4L110.5,76.5L109.4,79.5L109.1,80.2L108.9,81.0L107.7,83.3L107.5,84.2L104.9,89.0L103.8,90.5L102.5,92.7L99.5,96.5L95.4,101.0L91.9,104.1L87.2,107.8L86.6,107.9L85.7,108.7L82.7,110.4L82.4,110.6L78.5,112.5L75.2,114.0L68.3,116.2L67.0,116.3L64.6,117.0L59.3,117.7L54.4,117.9L54.2,118.1L54.5,118.4L55.5,118.5L62.6,118.5L69.3,118.7L73.3,118.6L76.6,118.8L82.8,118.8L83.8,119.0L84.7,118.8L90.1,118.8L92.6,119.0L109.4,119.0L112.9,118.8L113.3,118.2L113.4,117.4L113.8,80.4L113.9,78.2L113.9,76.2L114.1,68.1L114.1,58.8L113.8,56.0L113.7,53.8L112.7,47.8L112.0,45.1L110.5,40.9L110.1,40.3L110.1,39.8L107.4,34.5L105.0,30.7L103.7,29.2L103.5,28.7L100.9,25.7L97.0,21.9L92.9,18.5L90.6,17.0L90.3,16.9L88.1,15.5L85.2,14.0L83.3,13.3L82.8,12.9L82.2,12.8L81.6,12.5L80.8,12.3L80.3,12.0L78.4,11.4L77.7,11.3L76.7,10.9L75.8,10.8L73.3,10.1L70.8,9.8L69.8,9.6L66.0,9.3L59.6,9.4L57.6,9.8L56.8,9.8L56.4,9.9L55.0,10.0L50.8,10.9L50.1,11.3L49.4,11.4L48.3,11.8L47.4,12.0L47.0,12.3L44.8,13.0L42.1,14.4L41.8,14.4L37.9,16.5Z" fill="#000" fill-rule="evenodd"/>
</svg>