<svg xmlns="http://www.w3.org/2000/svg" viewBox="0 0 128 128" width="128" height="128">
  <path d="M9.4,9.8L9.6,10.3L15.6,16.4L16.7,17.2L19.0,19.7L19.9,20.3L31.7,32.0L96.1,32.0L96.7,32.4L96.8,33.3L96.8,40.7L96.7,41.0L96.1,41.4L10.5,41.4L10.3,41.8L10.2,42.8L10.1,69.1L10.3,89.0L10.5,92.3L10.5,100.7L10.7,104.2L10.8,111.4L10.7,112.8L10.9,117.8L11.4,118.2L17.3,118.1L23.2,118.2L25.9,118.4L46.1,118.3L46.4,118.4L50.6,118.4L53.5,118.3L58.9,118.3L60.4,118.4L61.1,118.6L61.5,118.6L62.0,118.2L62.4,118.1L68.4,118.1L69.6,118.2L70.2,118.4L70.7,118.4L71.4,118.1L73.7,118.2L76.5,118.0L80.9,118.0L84.9,117.8L89.4,117.9L90.8,117.7L101.7,117.7L106.8,117.5L113.4,117.6L117.2,117.5L117.6,117.4L117.9,117.1L118.1,112.3L118.0,109.0L118.2,108.2L118.1,102.5L118.4,87.0L118.4,71.8L118.6,60.6L118.5,48.9L118.6,40.3L118.8,36.9L118.7,27.5L118.9,18.2L118.9,11.1L118.7,10.0L118.0,9.7L106.6,9.8L91.5,9.6L9.7,9.6Z M104.2,66.2L104.8,66.2L105.0,66.7L104.9,67.1L104.3,66.8Z M96.7,42.6L96.8,53.7L96.5,94.6L96.4,95.4L96.0,95.8L95.0,96.0L92.7,95.9L76.7,96.0L68.5,95.9L57.6,96.0L55.2,96.1L44.3,96.0L43.3,96.2L33.5,96.2L32.7,96.0L32.5,95.7L32.4,93.1L32.5,91.7L32.3,89.7L32.1,78.2L32.1,42.7L32.5,42.6L33.0,43.1L34.2,44.9L34.8,46.0L35.5,47.0L36.0,48.0L36.4,48.4L36.9,49.5L38.9,52.6L39.7,53.7L40.1,54.5L41.4,56.4L42.0,57.5L43.4,59.5L43.5,59.9L44.6,61.5L45.2,62.6L45.7,63.3L48.4,67.6L50.3,70.5L50.6,71.1L52.4,73.7L52.6,74.3L54.3,76.7L56.1,79.7L59.1,84.1L64.1,92.1L64.4,92.4L64.7,92.4L65.4,91.6L66.3,90.0L67.7,88.0L69.2,85.5L70.0,84.3L70.7,83.0L71.2,82.3L71.2,82.1L72.7,79.7L73.1,79.4L73.3,78.8L74.3,77.4L74.5,76.9L74.9,76.6L75.0,76.2L76.2,74.4L78.3,70.7L79.2,69.6L80.9,66.7L82.5,64.4L83.1,63.1L84.0,61.9L84.1,61.6L84.7,60.8L84.7,60.6L86.7,57.6L86.9,57.1L90.8,51.0L92.7,47.8L93.1,47.4L95.6,43.2L96.2,42.4L96.4,42.4Z" fill="#000" fill-rule="evenodd"/>
</svg>