<svg xmlns="http://www.w3.org/2000/svg" viewBox="0 0 128 128" width="128" height="128">
  <path d="M43.2,50.5L41.4,53.1L40.5,54.8L39.7,56.8L38.9,59.7L38.4,62.9L38.5,66.0L38.8,67.9L39.1,68.8L39.4,70.4L41.0,74.3L43.0,77.2L45.6,80.0L47.8,81.7L51.1,83.5L53.7,84.4L56.5,85.1L61.7,85.2L65.3,84.4L66.2,84.0L66.7,83.9L68.0,83.4L68.7,82.8L68.6,81.5L68.3,81.1L68.1,80.0L67.7,79.1L66.6,74.7L66.5,73.7L66.2,72.5L65.8,69.3L65.6,68.9L65.1,68.9L64.0,70.0L62.9,70.8L62.0,71.2L60.3,71.6L58.1,71.5L56.4,70.9L54.4,69.5L53.3,68.2L52.8,67.3L52.3,65.8L52.1,63.7L52.4,62.0L53.3,60.2L54.6,58.6L56.5,57.4L58.1,56.9L60.0,56.8L62.1,57.4L63.8,58.4L65.4,60.0L66.2,61.5L66.8,63.8L67.1,69.9L67.3,70.9L67.4,71.1L67.5,72.2L68.0,74.9L69.9,81.3L70.2,81.9L70.5,83.0L70.8,83.4L71.7,85.6L73.1,88.7L75.9,93.0L78.6,96.6L79.0,97.0L80.6,98.9L85.1,103.1L87.9,105.5L89.3,106.3L91.3,107.8L92.8,108.5L93.1,108.8L93.7,109.0L94.0,109.3L96.8,110.7L98.1,111.1L99.0,111.6L101.1,112.4L101.9,112.6L103.6,113.2L104.5,113.4L105.0,113.6L106.7,114.0L108.3,114.5L111.8,114.9L112.3,115.0L116.0,115.3L118.2,115.3L118.7,114.9L118.9,106.2L118.8,102.3L118.3,101.8L113.7,101.6L111.0,101.1L110.0,100.8L109.0,100.7L106.7,99.9L105.9,99.7L105.3,99.4L103.5,98.8L100.4,97.2L97.3,95.3L96.7,95.0L93.7,92.6L92.2,91.3L89.8,88.8L87.6,86.1L85.7,83.1L85.6,82.6L84.0,80.0L82.6,76.6L81.9,74.3L81.6,72.7L81.2,71.5L80.8,69.0L80.4,65.5L80.4,63.4L80.2,60.6L79.7,58.4L79.0,56.3L77.1,52.5L75.3,50.2L72.8,47.8L71.3,46.7L70.3,46.1L69.2,45.3L65.7,43.9L64.5,43.7L63.9,43.4L60.8,42.9L57.9,42.9L57.2,43.1L56.4,43.1L53.7,43.7L52.8,44.1L52.0,44.2L49.7,45.3L47.9,46.3L46.3,47.6Z M30.2,44.1L27.4,49.3L26.0,52.9L25.1,56.3L24.6,59.0L24.5,60.9L24.3,62.3L24.5,67.7L25.0,71.2L25.9,74.6L27.2,78.1L29.0,81.7L30.6,84.3L31.8,85.8L33.3,87.6L35.5,89.9L38.0,92.0L40.7,94.0L45.0,96.2L46.3,96.7L47.1,97.1L49.0,97.7L49.2,97.9L53.1,98.8L53.7,98.8L54.6,99.1L56.4,99.3L62.5,99.3L64.1,99.0L65.7,98.9L66.7,98.6L68.2,98.3L68.7,98.1L69.7,97.9L70.1,97.7L72.1,97.1L74.9,95.8L75.5,95.3L75.5,94.9L73.4,91.8L72.0,89.1L71.7,88.9L71.1,87.4L70.8,87.2L70.3,85.7L69.6,84.6L69.0,84.5L67.2,85.3L64.5,86.1L63.6,86.2L62.3,86.5L59.7,86.7L56.9,86.5L54.2,86.1L52.7,85.6L49.8,84.5L47.1,83.0L45.0,81.4L42.7,79.1L41.5,77.7L40.0,75.3L38.9,73.1L37.9,70.3L37.2,67.5L36.9,64.2L37.0,62.5L37.5,59.1L38.4,56.2L39.0,54.6L40.4,52.0L41.9,49.9L44.2,47.4L46.4,45.6L48.4,44.3L48.8,44.2L50.7,43.2L54.1,42.1L55.9,41.9L56.8,41.6L61.4,41.5L62.7,41.9L63.9,41.9L64.8,42.3L66.0,42.5L68.3,43.3L69.0,43.7L70.2,44.2L72.5,45.7L73.9,46.8L76.7,49.6L78.4,52.0L79.4,53.6L80.2,55.4L81.2,58.4L81.7,61.6L82.1,67.7L82.3,68.7L82.4,69.9L83.5,74.5L83.9,75.3L84.5,77.3L85.5,79.3L85.6,79.9L86.6,81.7L87.0,82.1L88.6,84.8L88.9,85.0L89.8,86.4L93.0,89.8L95.7,92.2L99.4,94.9L101.4,96.1L106.6,98.3L111.9,99.7L114.5,100.0L114.9,100.1L118.3,100.2L118.9,99.8L119.0,92.4L118.9,88.0L118.8,87.7L117.9,87.4L115.3,87.2L113.0,86.7L109.7,85.6L107.7,84.8L105.6,83.5L103.1,81.7L100.9,79.5L99.3,77.6L98.0,75.6L97.9,75.2L97.0,73.8L96.6,72.5L96.1,71.7L95.3,69.0L95.0,66.9L94.8,66.0L94.7,62.6L94.2,58.2L92.9,52.9L92.3,51.5L92.3,51.2L92.1,50.9L91.0,48.3L90.7,47.9L90.0,46.3L87.8,43.0L85.6,40.3L83.7,38.3L81.8,36.6L78.5,34.1L75.9,32.7L72.0,30.9L70.0,30.2L66.8,29.4L61.0,28.7L56.8,28.8L54.1,29.0L50.3,29.8L46.3,31.1L45.9,31.4L44.4,32.0L44.0,32.3L41.5,33.6L38.9,35.2L36.2,37.3L32.5,41.1Z M57.8,13.0L56.9,13.1L55.1,13.1L52.4,13.4L48.5,14.0L43.7,15.3L38.0,17.5L36.9,18.2L36.2,18.4L35.9,18.7L33.7,19.8L33.2,20.2L32.6,20.5L30.5,22.0L29.8,22.3L25.3,26.0L21.1,30.4L19.5,32.4L17.7,35.1L17.3,35.5L16.6,36.9L16.2,37.2L15.6,38.6L15.2,39.1L13.0,43.9L12.0,46.7L11.8,47.5L11.3,48.6L10.2,53.2L9.4,58.3L9.1,62.1L9.2,67.7L9.7,72.2L10.2,74.1L10.6,76.4L10.9,77.2L11.1,78.2L11.8,80.5L12.9,83.2L12.9,83.5L13.7,85.0L13.9,85.6L16.3,90.3L16.6,90.5L17.4,92.2L18.7,93.7L19.0,94.4L20.5,96.1L21.4,97.5L22.7,98.7L22.9,99.1L26.2,102.2L28.3,104.0L30.5,105.7L32.6,107.1L32.9,107.1L33.5,107.6L34.1,107.9L34.8,108.4L35.3,108.5L38.0,110.1L39.2,110.5L40.6,111.2L42.0,111.6L42.6,111.9L46.7,113.2L47.9,113.4L49.1,113.8L50.6,114.0L51.6,114.3L57.7,114.9L62.5,114.9L65.9,114.6L69.7,113.9L71.2,113.7L71.7,113.5L72.6,113.4L73.4,113.1L76.0,112.4L79.8,111.0L84.1,108.6L84.6,108.4L85.0,108.1L85.6,107.9L86.8,107.1L87.0,106.6L84.3,104.4L83.0,103.2L82.7,103.1L79.1,99.4L76.9,96.7L76.1,96.8L73.8,97.9L73.4,98.0L71.7,98.8L70.8,99.0L70.2,99.3L69.8,99.3L69.2,99.6L67.4,99.9L66.4,100.2L63.0,100.7L60.3,100.9L55.9,100.7L52.7,100.2L52.0,100.0L50.2,99.6L49.4,99.3L48.9,99.3L47.5,98.8L43.2,97.0L39.4,94.8L38.5,94.1L38.0,93.9L34.8,91.3L33.4,90.0L31.9,88.3L29.7,85.6L27.9,82.8L26.5,80.1L26.4,79.7L26.2,79.4L26.1,79.0L25.1,76.9L24.3,74.4L23.7,72.2L23.1,69.3L22.9,67.3L22.7,63.6L22.8,61.6L23.2,58.2L23.4,57.7L23.4,57.0L24.2,53.7L25.9,48.9L27.9,45.1L28.8,43.7L29.1,43.3L29.7,42.2L30.7,41.1L31.7,39.7L33.2,38.1L36.2,35.4L36.8,35.0L38.4,33.7L40.8,32.2L43.7,30.6L48.0,28.9L49.4,28.7L51.1,28.1L52.0,28.0L53.7,27.6L57.1,27.3L61.9,27.3L66.6,27.9L68.8,28.4L71.1,29.2L71.7,29.3L72.4,29.7L73.2,29.9L74.8,30.6L79.2,33.0L81.8,34.8L83.5,36.1L86.5,39.1L88.0,40.8L89.0,42.3L89.4,42.6L91.2,45.4L92.5,47.8L93.8,50.8L95.2,55.4L95.7,57.6L95.7,58.2L96.1,60.7L96.3,65.1L96.6,67.1L97.0,69.4L97.3,69.9L97.6,71.2L99.1,74.3L100.0,75.8L102.1,78.4L103.6,80.0L105.3,81.3L107.2,82.6L107.4,82.6L108.8,83.5L109.0,83.5L110.8,84.4L113.6,85.2L114.8,85.4L116.2,85.8L118.8,85.8L119.0,85.5L119.1,82.1L118.9,77.2L119.0,72.1L118.7,71.7L118.3,71.5L116.5,71.2L114.4,70.3L112.8,69.0L111.6,67.3L111.0,65.6L110.9,64.4L110.6,63.7L110.5,61.2L110.2,59.9L110.1,57.8L109.4,53.0L109.3,52.8L109.0,51.3L108.5,49.5L106.9,44.7L106.5,44.1L105.9,42.5L105.7,42.2L105.5,41.6L105.2,41.2L104.4,39.5L102.1,35.5L99.6,32.1L98.7,31.0L98.3,30.4L97.4,29.6L96.0,27.9L92.1,24.4L88.5,21.7L83.5,18.7L80.2,17.1L78.7,16.6L77.3,16.0L73.9,14.9L72.7,14.7L72.5,14.5L67.7,13.5L66.8,13.5L65.7,13.3L63.1,13.1Z" fill="#000" fill-rule="evenodd"/>
</svg>