<svg xmlns="http://www.w3.org/2000/svg" viewBox="0 0 128 128" width="128" height="128">
  <path d="M61.1,9.1L58.1,9.4L55.8,9.8L55.2,9.8L54.1,10.1L52.1,10.4L50.5,10.9L49.7,11.0L44.4,12.8L43.9,13.1L43.2,13.3L42.9,13.5L42.3,13.7L41.6,14.1L40.5,14.5L38.3,15.6L37.5,16.2L36.8,16.4L35.8,17.2L35.4,17.3L31.2,20.2L27.0,23.7L22.9,27.9L19.8,31.9L18.5,33.7L18.3,34.1L18.0,34.5L17.7,35.2L16.9,36.2L14.3,41.5L14.1,42.2L13.7,42.8L13.1,44.6L12.5,45.9L11.8,48.4L11.4,49.4L11.3,50.1L10.8,51.7L9.8,57.7L9.5,64.2L9.5,67.4L10.0,72.6L11.2,78.1L12.4,82.3L14.7,87.7L17.1,92.5L17.7,93.3L18.0,93.9L18.3,94.2L19.3,95.8L22.4,99.9L24.2,102.0L26.9,104.7L29.6,107.0L31.8,108.7L35.1,111.0L38.9,113.2L43.1,115.0L44.5,115.5L45.4,116.0L47.5,116.6L48.2,116.9L49.2,117.1L51.3,117.7L55.7,118.5L59.0,118.9L59.7,118.9L60.8,119.1L65.9,119.2L68.7,119.0L70.5,118.7L73.5,118.4L75.4,117.9L75.8,117.9L78.9,117.2L79.8,116.7L80.2,116.7L81.0,116.4L81.5,116.3L85.2,115.0L85.7,114.6L86.2,114.6L90.6,112.4L94.5,110.0L97.1,108.1L99.7,106.0L103.5,102.5L107.7,97.6L110.3,93.7L112.3,90.4L113.3,88.4L113.3,88.0L114.1,86.6L114.2,86.2L115.1,84.1L115.3,83.5L115.6,82.9L115.6,82.6L115.9,82.2L116.4,80.5L116.5,79.8L116.9,78.6L118.3,72.0L118.4,70.6L118.6,69.3L118.8,66.4L118.8,61.2L118.3,56.5L117.9,54.6L117.6,52.6L116.3,47.7L115.2,44.7L115.0,43.7L114.3,42.4L114.2,41.9L113.4,40.5L113.4,40.2L112.0,37.5L111.5,36.7L110.6,34.9L110.3,34.6L108.8,32.3L105.9,28.5L103.4,25.7L101.2,23.7L97.7,20.6L93.1,17.4L90.2,15.7L89.2,15.3L88.0,14.6L87.5,14.4L87.2,14.2L86.6,14.0L85.2,13.3L83.3,12.6L82.7,12.3L80.1,11.4L78.6,11.1L78.1,10.8L72.6,9.7L72.0,9.7L69.5,9.3L66.9,9.1Z M67.6,14.9L84.3,14.9L85.2,15.0L85.7,15.4L85.6,60.6L85.9,61.0L86.4,61.2L87.7,61.6L90.5,62.7L92.6,63.8L92.9,64.1L94.1,64.7L96.1,66.3L98.9,69.0L99.9,70.2L101.2,72.1L103.0,75.4L104.2,78.3L105.1,82.3L105.1,84.0L104.9,84.4L104.4,84.5L95.6,84.5L95.0,84.4L94.7,83.8L94.4,82.5L93.9,80.6L93.1,78.9L92.2,77.4L90.8,75.7L89.3,74.3L88.0,73.3L86.2,72.4L85.7,72.4L85.5,73.3L85.6,74.4L85.4,84.0L85.2,84.4L84.9,84.5L75.7,84.5L74.2,84.4L73.7,84.0L73.7,72.4L73.6,72.2L73.1,72.2L72.5,72.4L71.6,73.1L70.7,73.6L69.2,74.8L67.2,77.0L66.0,78.8L65.2,80.5L64.6,82.1L64.2,84.8L64.2,87.3L64.3,88.8L64.5,89.1L64.8,90.9L66.1,93.9L67.7,96.2L69.0,97.5L70.5,98.8L72.0,99.8L74.7,101.0L76.3,101.4L78.2,101.7L79.5,101.8L81.4,101.7L83.5,101.2L85.4,100.6L85.8,100.3L87.1,99.7L89.1,98.4L91.3,96.3L92.5,94.7L93.4,93.0L93.9,91.8L93.9,91.3L94.3,90.8L94.4,89.9L94.5,89.6L95.1,89.2L104.3,89.2L104.7,89.3L105.1,89.6L104.7,92.6L103.3,96.6L101.6,99.9L100.8,101.2L99.2,103.2L96.1,106.3L94.7,107.4L94.3,107.6L92.6,108.8L88.6,110.7L84.1,111.9L79.7,112.3L76.0,112.0L73.5,111.6L71.5,111.0L69.0,110.0L65.0,107.8L62.1,105.6L60.4,103.8L59.4,102.6L57.7,100.2L56.1,97.4L56.0,96.9L55.1,94.8L54.3,92.0L53.9,89.6L53.7,85.1L53.9,82.3L54.3,80.4L55.2,77.3L55.7,76.4L56.1,75.2L57.3,72.9L58.2,71.5L60.6,68.6L62.1,67.1L63.4,65.9L63.7,65.9L63.9,65.5L67.1,63.4L69.1,62.5L71.1,61.8L71.4,61.6L73.3,61.1L73.6,60.9L73.7,60.6L73.9,52.9L73.9,25.9L73.7,25.8L73.3,26.0L72.7,26.9L70.2,29.8L69.3,31.1L69.2,31.5L68.5,32.1L66.9,34.3L66.1,35.2L65.6,36.0L62.1,40.5L61.5,41.4L59.4,44.0L58.2,45.6L51.3,54.5L50.9,55.1L46.8,60.3L41.1,67.9L40.0,69.2L39.4,70.1L38.9,70.6L34.7,76.2L34.1,76.7L33.3,78.0L28.5,84.1L27.7,84.3L19.0,84.3L14.3,84.1L14.2,84.0L14.2,83.7L16.2,81.1L16.9,80.5L17.3,79.7L18.6,78.1L23.2,72.0L24.9,70.0L30.3,62.7L34.5,57.5L36.3,54.9L41.9,47.8L42.9,46.3L44.6,44.3L47.9,39.8L48.8,38.8L49.5,37.8L51.5,35.4L52.6,33.8L53.6,32.6L56.7,28.5L57.8,27.2L62.4,21.1L65.5,17.3L66.5,15.7L67.1,15.1Z" fill="#000" fill-rule="evenodd"/>
</svg>