<svg xmlns="http://www.w3.org/2000/svg" viewBox="0 0 128 128" width="128" height="128">
  <path d="M66.6,41.8L66.5,49.9L66.5,52.6L66.4,56.6L66.5,62.9L66.2,71.7L66.2,75.3L66.5,75.7L66.9,75.9L101.1,75.9L117.0,75.7L118.3,75.8L118.6,75.7L118.8,75.5L119.0,75.1L119.1,56.5L119.1,42.7L118.8,42.1L117.9,41.9L85.0,41.6L83.5,41.4L81.1,41.5L75.9,41.3L67.3,41.3L67.0,41.4Z M75.7,50.9L76.2,50.5L107.7,50.6L110.1,50.8L110.5,51.2L110.7,52.1L110.5,66.3L110.0,66.7L108.8,66.9L96.6,66.8L94.1,66.9L92.9,66.8L84.9,66.9L77.3,66.8L76.0,66.6L75.6,66.3L75.4,65.4L75.6,60.5L75.5,57.3Z M9.5,41.3L9.3,48.9L9.3,63.9L9.5,64.2L9.9,64.5L17.9,64.5L18.5,64.3L18.7,63.5L18.8,50.8L19.2,50.3L36.2,50.2L54.1,50.3L54.5,50.4L55.0,51.2L54.9,65.4L54.8,66.1L54.5,66.6L36.4,66.6L10.0,66.5L9.6,66.6L9.3,66.9L9.2,70.5L9.3,74.6L9.0,85.9L9.2,87.0L9.5,87.3L100.7,87.3L105.3,87.1L118.2,87.0L118.5,87.0L118.8,86.7L119.0,79.3L118.8,78.4L118.6,78.1L118.1,78.0L107.9,77.9L100.5,78.1L85.5,78.1L79.2,77.9L65.3,78.0L64.6,77.8L64.3,77.5L64.1,77.1L64.4,41.8L64.0,41.3L63.2,41.2L62.5,41.3L58.0,41.1L50.1,41.2L48.9,41.0L44.9,41.1L11.2,40.9L9.9,41.0Z M18.6,76.3L18.9,76.0L19.8,75.9L53.4,75.9L54.4,76.0L54.7,76.3L54.7,77.4L54.4,77.7L53.8,77.9L48.4,78.0L37.2,77.8L19.5,77.8L18.9,77.7L18.7,77.5Z" fill="#000" fill-rule="evenodd"/>
</svg>