<svg xmlns="http://www.w3.org/2000/svg" viewBox="0 0 128 128" width="128" height="128">
  <path d="M66.5,19.6L66.1,19.8L66.1,20.1L66.2,20.3L68.1,21.0L71.9,23.3L74.0,25.0L75.9,27.1L78.0,29.8L78.1,30.2L78.7,31.0L80.1,34.2L80.1,34.5L80.3,34.8L80.5,36.0L81.0,37.2L81.1,38.4L81.5,40.1L81.6,42.5L81.6,48.9L81.5,51.4L81.5,60.9L81.3,62.2L81.3,65.1L81.0,67.8L80.8,74.2L80.5,76.7L80.4,84.0L80.1,86.3L80.0,93.4L80.0,98.8L80.1,100.7L81.0,103.8L82.1,106.4L83.9,108.7L84.9,109.8L86.5,110.8L87.6,111.3L95.0,111.5L103.2,111.4L106.4,111.6L108.6,111.6L108.8,111.5L108.8,111.2L107.0,110.5L104.6,109.3L102.4,107.3L101.6,106.3L100.7,104.5L100.4,104.3L99.9,102.9L99.6,100.8L99.4,97.7L99.2,96.8L99.2,89.4L99.5,87.9L99.7,79.7L100.1,75.9L100.2,71.2L100.6,67.9L100.6,65.2L100.8,63.5L101.0,58.1L101.1,57.1L101.0,53.7L101.2,51.4L101.3,41.7L101.1,38.6L100.6,34.8L100.2,33.7L99.9,32.0L98.6,28.9L96.8,26.3L94.0,23.5L92.9,22.8L92.2,22.5L90.9,21.7L87.6,20.4L85.7,20.2L76.1,20.1L75.2,19.9L71.6,19.9Z M16.6,18.4L16.4,18.5L16.4,18.7L16.8,19.1L17.5,19.2L18.1,19.4L18.9,20.1L19.4,20.8L19.7,22.5L19.4,30.0L19.8,31.8L20.2,33.0L21.0,34.3L22.0,35.5L23.1,36.3L24.2,36.9L25.3,37.3L29.2,37.7L33.6,37.6L35.4,37.4L38.4,37.3L41.6,36.8L45.2,36.7L46.5,36.5L52.1,36.5L54.7,37.0L56.4,37.5L58.6,38.6L59.6,39.4L60.6,40.5L62.2,43.0L62.5,44.2L62.7,44.4L63.3,46.8L63.3,49.6L62.7,51.6L61.7,53.7L61.1,54.2L60.7,55.0L57.7,58.0L56.9,58.4L54.6,60.2L52.0,61.7L51.5,62.2L47.8,64.1L47.3,64.5L46.6,64.7L35.8,70.9L34.4,72.0L32.2,73.4L29.6,75.4L28.6,76.5L27.8,77.1L25.5,79.7L24.1,81.7L23.0,83.6L21.9,87.8L21.7,91.5L22.1,93.7L22.1,94.7L23.0,98.1L23.7,99.4L25.2,101.9L28.4,105.6L30.3,107.0L30.8,107.2L32.4,108.4L33.2,108.7L34.0,109.4L35.9,110.1L37.0,110.4L37.4,110.7L39.5,111.3L45.1,112.1L52.1,112.1L57.0,111.5L59.1,111.0L60.2,110.6L61.3,110.4L63.5,109.6L64.2,109.5L66.8,108.4L70.5,106.0L73.1,104.1L77.0,100.2L77.2,99.8L77.4,94.9L77.4,91.7L77.8,86.8L77.8,84.2L77.6,84.0L77.0,84.4L75.5,86.2L72.1,89.4L70.5,90.5L70.0,91.0L69.0,91.5L68.0,92.2L63.8,94.4L63.3,94.5L61.9,95.2L59.4,96.0L58.9,96.0L56.5,96.5L54.0,96.6L51.8,96.4L49.7,95.9L47.1,94.4L45.8,93.1L44.9,91.2L44.3,89.2L44.3,86.7L44.8,84.8L45.2,84.1L45.2,83.8L45.5,83.6L45.7,83.0L46.4,82.1L48.4,80.0L49.3,79.4L51.1,78.0L53.7,76.4L54.2,75.9L54.9,75.6L55.9,74.9L56.5,74.6L57.5,73.8L58.7,73.3L61.6,71.3L63.9,70.0L64.3,69.6L68.5,66.8L71.9,64.0L73.8,62.1L75.5,59.9L76.6,58.2L78.1,55.1L79.3,51.1L79.6,48.7L79.6,43.6L79.3,40.6L78.7,37.4L77.3,33.6L75.9,30.5L74.0,27.9L71.0,25.1L69.6,24.1L68.4,23.5L67.5,22.9L64.3,21.3L60.5,19.9L55.9,18.8L51.4,18.2L46.1,18.2L42.0,18.7L40.5,19.1L38.1,20.1L36.7,21.0L35.2,22.7L34.5,23.8L33.9,25.7L33.6,27.2L33.6,30.4L34.0,32.5L33.9,33.6L33.5,33.9L32.0,34.1L29.9,33.8L28.9,33.3L27.6,32.1L27.1,31.3L26.7,28.4L26.6,22.0L26.4,21.1L25.8,20.1L24.5,19.0L23.6,18.7L22.0,18.4Z M45.4,22.4L47.0,22.4L48.8,23.0L49.3,23.4L51.0,25.1L51.5,26.4L51.6,27.7L51.4,29.0L50.6,30.7L49.1,32.0L47.2,32.7L45.0,32.5L43.4,31.8L41.8,30.2L41.1,28.3L41.2,26.4L42.0,24.8L43.1,23.5L43.7,23.1Z M11.1,9.6L10.8,10.8L10.9,11.4L10.6,20.2L10.7,24.4L10.5,27.7L10.6,30.0L10.2,43.5L10.3,45.9L10.2,48.6L10.0,76.3L9.7,89.9L9.8,95.2L9.5,108.4L9.6,117.0L10.1,117.2L12.3,117.3L17.2,117.2L33.4,117.4L37.8,117.6L42.7,117.6L45.0,117.8L64.3,118.0L66.4,118.2L76.8,118.2L91.6,118.5L93.1,118.5L95.6,118.6L102.8,118.6L105.0,118.8L110.1,118.9L116.0,118.8L116.3,118.5L116.4,117.6L116.4,111.1L116.8,102.3L116.8,97.4L117.1,90.0L117.1,84.1L117.3,82.2L117.4,69.7L117.6,68.1L117.5,64.8L117.7,62.6L118.1,34.7L118.3,32.3L118.4,23.2L118.8,15.4L118.8,12.1L118.6,11.5L117.9,11.3L87.2,10.8L84.7,10.6L63.4,10.3L56.0,10.0L48.4,10.1L41.9,9.8L29.3,9.7L24.3,9.5L22.2,9.6L14.6,9.4L11.5,9.5Z M13.3,11.5L22.8,11.4L33.6,11.7L52.1,11.9L55.2,12.1L56.8,12.0L78.8,12.4L86.7,12.4L89.9,12.6L95.0,12.6L102.9,12.9L109.0,12.9L110.7,13.1L115.0,13.1L116.2,13.2L116.6,13.6L116.8,14.8L116.4,31.0L116.4,41.6L116.2,44.4L116.2,52.0L115.9,65.7L115.7,69.0L115.8,71.7L115.6,75.6L115.6,81.2L115.4,82.9L115.0,101.0L114.7,109.9L114.6,116.2L114.2,116.7L113.7,117.0L109.5,117.0L99.6,116.7L97.7,116.8L78.4,116.4L77.1,116.5L44.8,115.7L40.3,115.8L37.0,115.7L15.2,115.3L11.9,115.1L11.5,114.5L11.4,111.1L11.6,99.6L11.5,97.2L11.6,73.3L11.9,64.1L11.9,46.5L12.1,45.3L12.1,42.2L12.3,39.2L12.4,27.5L12.6,23.9L12.5,22.7L12.8,13.1L13.0,12.0Z" fill="#000" fill-rule="evenodd"/>
</svg>