<svg xmlns="http://www.w3.org/2000/svg" viewBox="0 0 128 128" width="128" height="128">
  <path d="M108.2,17.7L106.3,16.1L104.8,15.0L100.9,12.9L96.6,11.5L92.3,10.8L89.2,10.8L87.0,10.9L76.3,11.0L75.2,11.2L71.4,11.2L69.3,11.4L62.6,11.4L55.7,11.7L49.8,11.7L48.8,11.8L39.7,11.9L35.1,12.2L26.7,12.3L24.9,12.5L21.5,12.4L18.7,12.6L10.6,12.7L9.9,12.7L9.5,13.1L9.4,21.3L9.7,28.7L9.9,48.2L10.2,55.2L10.3,66.0L10.7,73.9L10.7,80.5L10.9,93.3L11.2,98.7L11.3,106.7L11.5,108.1L11.6,115.9L11.7,116.7L12.1,117.2L14.8,117.4L45.1,117.0L66.6,117.0L67.7,116.8L69.5,116.9L72.9,116.7L80.4,116.7L82.4,116.5L87.5,116.6L89.2,116.4L93.7,116.4L96.6,116.1L97.7,115.7L98.9,115.5L101.9,114.5L103.9,113.6L105.3,112.7L105.8,112.5L106.2,112.2L106.7,112.0L109.1,110.2L111.3,108.2L113.0,106.3L114.7,103.9L115.5,102.6L116.8,100.0L117.1,98.8L117.8,97.2L118.4,94.6L118.9,91.3L118.8,86.7L118.2,83.3L116.4,78.1L114.3,74.4L112.8,72.5L110.4,70.0L108.3,68.3L107.5,67.9L106.9,67.4L105.5,66.7L104.3,65.9L99.6,64.0L98.0,63.7L97.4,63.4L93.4,62.9L79.2,63.1L78.6,62.6L78.7,62.1L79.1,61.8L79.5,61.7L84.2,61.7L85.2,61.5L89.2,61.6L90.0,61.4L91.4,61.4L92.9,61.2L94.8,61.1L98.4,60.2L98.8,59.9L100.8,59.2L102.8,58.2L106.8,55.5L109.3,53.1L110.8,51.3L111.3,50.5L112.3,49.2L113.6,46.8L114.3,45.1L115.4,41.4L116.0,37.9L115.9,32.8L115.5,30.6L114.9,28.2L114.5,27.5L114.2,26.2L112.8,23.4L110.9,20.6Z M63.8,76.3L64.3,76.3L64.7,76.6L65.0,93.5L64.6,94.2L64.0,94.1L63.9,93.9L63.7,92.5L63.4,76.6Z M48.6,62.8L48.6,63.1L48.2,63.5L45.3,63.7L30.9,63.9L30.5,63.6L30.5,63.1L30.8,62.8L33.5,62.5L48.0,62.3L48.3,62.4Z M63.0,31.1L63.4,31.2L63.8,31.7L64.0,34.2L64.1,48.4L63.7,49.0L63.1,49.0L62.7,48.5L62.5,32.2L62.6,31.4Z" fill="#000" fill-rule="evenodd"/>
</svg>