<svg xmlns="http://www.w3.org/2000/svg" viewBox="0 0 128 128" width="128" height="128">
  <path d="M107.5,17.7L104.9,15.5L103.1,14.3L101.5,13.3L98.2,11.7L93.6,10.2L88.4,9.5L44.8,9.5L43.5,9.7L11.8,9.6L11.3,9.8L10.9,10.1L10.8,27.0L11.0,43.2L11.0,69.1L10.8,83.4L11.0,101.2L10.8,105.2L10.8,117.4L10.9,118.2L11.2,118.5L11.8,118.7L17.3,118.8L50.7,118.8L85.2,119.0L88.9,118.8L93.7,117.9L95.7,117.3L96.8,116.8L97.1,116.8L97.6,116.5L98.2,116.5L100.2,115.4L100.7,115.0L101.6,114.8L106.2,111.5L109.3,108.4L112.3,104.6L114.1,101.4L115.1,99.0L116.6,94.0L117.2,90.6L117.4,87.1L117.0,82.1L116.8,81.1L116.6,80.8L116.5,78.9L115.5,75.9L115.1,75.4L114.5,73.3L114.1,72.8L113.4,71.4L110.4,66.9L108.6,64.8L108.5,64.1L109.1,63.2L111.3,60.7L111.5,60.3L112.8,58.4L114.9,54.6L115.0,53.9L115.3,53.5L116.0,51.5L116.2,50.5L116.5,49.9L117.2,46.7L117.4,44.3L117.6,43.7L117.6,39.6L117.1,35.3L116.7,34.2L116.6,33.2L116.2,32.0L115.8,30.4L115.0,28.5L113.8,26.0L113.4,25.6L113.3,25.1L112.7,23.9L111.5,22.4L110.4,20.8Z M29.1,27.6L30.3,27.3L86.2,27.3L89.1,27.6L91.9,28.5L92.9,29.0L94.6,30.1L96.2,31.4L97.4,32.9L99.1,36.0L99.8,38.1L100.1,40.9L99.8,44.4L98.7,47.4L97.0,50.1L95.6,51.6L94.4,52.6L91.5,54.2L89.8,54.9L86.8,55.3L70.7,55.4L68.8,55.6L65.4,55.6L62.4,55.4L62.3,55.2L62.4,54.8L69.9,48.4L75.6,43.0L76.2,42.7L77.3,41.4L77.3,40.7L76.4,39.5L71.2,34.4L66.2,29.1L65.5,28.5L64.8,28.5L62.7,30.4L56.5,36.8L55.4,38.2L50.7,42.8L50.1,43.6L48.5,45.1L48.1,45.7L39.0,54.9L38.1,55.9L35.0,59.0L34.0,60.2L30.6,63.6L30.3,64.1L30.3,64.6L30.6,65.1L32.1,66.5L35.6,70.3L40.3,74.9L48.4,83.4L64.6,99.5L65.3,99.5L76.2,88.6L76.8,88.0L77.0,87.3L76.7,86.9L74.0,84.3L69.1,79.9L67.8,78.5L67.1,77.9L63.4,74.3L62.6,73.8L62.3,73.2L62.4,73.0L71.5,73.0L80.1,73.3L87.0,73.3L90.3,73.9L91.9,74.5L94.8,76.3L97.2,78.8L98.8,82.0L99.7,85.3L99.6,88.8L99.3,90.4L98.6,92.5L97.5,94.8L96.3,96.4L95.0,97.7L92.9,99.2L92.1,99.5L91.7,99.9L90.3,100.3L87.7,100.9L84.3,101.1L79.6,101.1L78.4,100.9L70.9,100.8L69.1,100.9L66.5,100.7L34.1,100.7L29.5,100.6L29.1,100.5L28.5,100.1L28.3,96.8L28.5,76.1L28.4,71.8L28.6,66.3L28.7,28.4L28.8,27.9Z" fill="#000" fill-rule="evenodd"/>
</svg>