<svg xmlns="http://www.w3.org/2000/svg" viewBox="0 0 128 128" width="128" height="128">
  <path d="M10.0,11.8L9.8,12.4L9.9,13.6L9.7,17.2L9.7,37.4L9.5,52.1L9.6,71.5L9.4,79.0L9.5,92.2L9.3,100.4L9.4,115.6L9.8,116.2L11.1,116.4L23.2,116.6L57.8,116.6L61.7,116.7L65.3,116.6L74.4,116.8L90.3,116.8L93.5,116.6L95.9,116.4L99.1,115.6L99.9,115.5L100.5,115.1L101.3,114.9L102.2,114.5L103.7,113.9L104.9,113.1L106.3,112.4L107.7,111.3L108.5,110.8L111.5,108.1L113.5,105.7L114.1,104.7L114.5,104.3L115.6,102.4L117.0,99.3L117.1,98.7L117.5,98.0L117.7,97.0L118.0,96.2L118.6,93.4L118.7,92.0L118.9,91.4L119.0,87.8L118.5,83.8L118.2,83.1L118.0,81.5L117.4,79.9L117.2,79.7L117.0,78.7L115.9,76.4L115.6,76.1L114.1,73.4L111.6,70.3L109.1,68.0L107.5,66.7L104.9,65.0L104.5,64.6L104.5,64.4L105.4,63.6L105.8,63.5L108.1,62.0L108.4,61.5L109.3,60.9L112.1,58.1L114.1,55.6L116.1,51.9L116.1,51.6L116.4,51.2L117.1,49.3L117.1,49.0L117.4,48.5L117.7,47.1L118.0,46.5L118.1,44.8L118.5,43.6L118.7,41.8L118.6,36.6L118.0,33.2L117.6,31.9L117.2,31.2L117.0,30.1L116.6,29.5L116.1,28.3L115.1,26.3L113.6,23.9L111.2,21.3L107.1,17.7L105.4,16.5L102.2,14.7L97.9,13.2L96.6,13.0L94.5,12.4L89.3,12.0L67.1,12.0L62.5,11.8L52.0,11.8L50.8,12.1L50.6,12.4L50.5,14.1L50.6,38.3L50.7,38.7L51.7,39.0L52.4,38.9L60.1,39.1L82.9,39.2L85.3,39.7L86.9,40.7L87.4,41.2L88.2,42.4L88.6,44.4L88.6,45.3L88.3,46.7L87.8,48.1L87.3,48.8L86.5,49.6L85.3,50.3L82.6,51.0L51.2,50.8L50.7,51.0L50.4,51.5L50.4,77.2L50.8,77.8L51.1,77.9L63.0,77.9L67.2,78.1L72.3,77.9L83.4,78.0L84.5,78.3L85.4,78.9L85.9,78.9L87.3,80.4L88.0,81.8L88.3,82.8L88.3,84.7L87.7,86.5L87.0,87.6L86.2,88.4L85.5,88.8L84.9,89.0L84.3,89.4L82.7,89.8L47.1,89.6L40.0,89.4L39.2,89.2L38.7,88.7L38.7,61.0L38.9,59.1L38.9,39.4L39.1,38.7L39.0,13.0L38.8,12.0L38.1,11.6L36.2,11.5L21.5,11.6L10.5,11.4Z" fill="#000" fill-rule="evenodd"/>
</svg>