<svg xmlns="http://www.w3.org/2000/svg" viewBox="0 0 128 128" width="128" height="128">
  <path d="M47.0,9.0L46.8,9.0L46.2,9.4L42.5,13.8L41.7,14.6L41.2,15.4L41.3,15.7L41.5,16.0L45.0,19.1L46.2,20.0L46.5,20.4L49.6,23.1L50.1,23.7L52.3,25.4L54.4,27.4L54.9,27.7L56.0,28.7L56.3,28.8L56.7,29.2L59.7,31.7L63.2,34.8L64.2,35.6L68.2,39.1L71.0,41.4L73.8,44.0L73.9,44.2L73.7,44.7L72.8,45.5L68.5,49.1L66.2,51.1L65.6,51.6L63.8,53.2L62.1,54.5L61.3,55.4L58.8,57.2L55.8,60.0L51.9,63.1L50.9,64.1L50.8,64.4L50.9,64.8L51.7,65.7L56.5,69.9L57.7,71.0L58.4,71.5L59.2,72.4L60.2,73.2L63.9,76.6L64.2,76.8L67.5,79.9L67.7,79.9L70.6,82.7L72.4,84.2L73.6,85.4L73.6,85.8L71.8,87.5L70.8,88.1L69.4,89.4L64.0,93.8L62.2,95.5L60.9,96.4L56.9,99.8L53.4,102.6L51.8,104.1L51.6,104.2L50.2,105.3L49.8,105.5L49.6,105.5L49.5,105.4L49.4,105.0L49.6,83.5L49.6,77.6L49.7,74.8L49.7,52.9L49.8,50.6L49.8,43.0L49.9,38.0L49.9,24.0L49.8,23.8L49.4,23.7L42.5,23.6L41.7,23.7L41.4,23.8L41.3,24.1L41.2,34.0L41.2,36.3L41.0,60.0L41.1,68.2L40.9,78.4L41.0,81.4L40.9,91.4L40.9,104.0L41.0,105.5L41.3,105.7L49.0,105.9L49.1,106.2L48.7,106.6L48.1,107.0L47.3,107.8L42.4,111.8L41.4,112.8L41.4,113.2L42.0,114.1L44.7,117.2L45.6,118.5L46.4,119.2L46.7,119.2L47.1,119.0L51.7,115.1L53.0,114.1L53.7,113.4L57.2,110.7L59.6,108.6L60.8,107.7L65.0,104.2L65.7,103.8L66.4,103.1L69.9,100.3L72.0,98.5L72.5,98.2L78.7,93.1L78.9,93.0L82.0,90.5L82.2,90.4L84.6,88.5L85.2,87.9L86.8,86.7L87.3,86.1L87.2,85.8L85.9,84.5L78.9,78.4L75.9,75.5L72.0,72.2L70.6,70.8L64.1,64.9L64.0,64.4L64.8,63.5L66.7,62.0L69.0,59.9L69.6,59.5L74.6,55.2L76.1,54.0L78.8,51.6L81.2,49.6L81.6,49.2L86.6,45.1L87.3,44.5L87.3,44.0L86.1,42.7L81.2,38.5L80.6,37.9L78.8,36.5L72.5,31.0L70.8,29.6L68.9,27.8L68.0,27.1L66.9,26.1L64.0,23.6L63.5,23.1L62.1,21.9L61.3,21.1L59.2,19.5L58.3,18.5L57.6,18.1L57.3,17.7L52.8,13.9L51.9,12.9L51.6,12.9L48.6,10.1L47.4,9.1Z" fill="#000" fill-rule="evenodd"/>
</svg>