<svg xmlns="http://www.w3.org/2000/svg" viewBox="0 0 128 128" width="128" height="128">
  <path d="M58.6,9.3L54.1,10.0L50.6,10.8L48.5,11.6L47.8,11.7L46.9,12.1L44.8,12.7L44.5,13.0L42.9,13.5L40.1,14.8L39.7,15.2L39.0,15.4L34.3,18.2L33.6,18.8L32.3,19.6L31.7,20.3L29.1,22.2L24.7,26.3L21.4,30.2L18.8,33.9L18.2,35.1L18.3,35.6L18.7,35.7L26.1,35.9L34.3,35.9L35.9,36.0L41.9,36.1L42.4,36.3L43.4,36.3L43.9,36.4L45.1,36.5L46.0,36.8L48.3,37.8L49.7,38.7L51.7,40.8L52.9,42.5L53.8,44.1L54.2,45.4L54.7,47.5L54.8,51.4L54.7,52.4L53.6,55.4L52.1,58.0L51.2,59.0L49.0,60.7L46.6,61.9L44.4,62.5L39.6,62.7L28.3,62.5L25.4,62.5L24.7,62.4L19.4,62.5L14.5,62.3L13.9,62.7L13.8,63.1L13.8,63.6L14.0,64.0L14.9,64.2L22.4,64.4L26.6,64.3L28.4,64.5L42.8,64.6L43.3,64.7L45.3,64.9L46.9,65.4L48.6,66.4L50.2,67.7L51.6,69.2L52.1,70.0L52.5,70.4L53.3,72.0L53.6,73.4L54.0,74.4L54.3,76.8L54.3,77.9L53.8,80.5L52.8,83.5L51.6,85.5L50.3,86.9L48.9,88.1L46.3,89.4L44.6,89.8L42.8,90.2L38.4,90.3L37.8,90.2L33.2,90.3L25.6,89.9L24.1,90.0L21.0,89.8L17.8,89.8L17.4,90.1L17.3,90.7L18.0,92.3L18.7,93.1L19.3,94.4L21.9,98.1L23.7,100.0L24.7,101.2L27.1,103.7L32.1,108.0L34.4,109.5L36.2,110.9L38.6,112.1L40.0,113.1L40.8,113.3L41.8,114.0L43.5,114.6L44.9,115.4L46.9,116.0L47.3,116.3L48.5,116.5L50.7,117.3L52.6,117.8L54.2,118.0L55.1,118.4L55.7,118.4L58.3,118.9L59.7,118.9L62.0,119.1L65.7,119.1L70.3,118.9L73.3,118.5L74.4,118.1L77.7,117.6L81.9,116.2L82.4,116.1L82.9,115.8L86.8,114.3L90.5,112.4L91.8,111.5L92.4,111.3L93.4,110.5L94.5,109.9L95.3,109.2L95.6,109.1L97.6,107.4L99.4,106.1L102.5,103.1L105.5,99.8L106.7,98.2L107.6,96.8L108.0,95.9L108.9,94.7L109.7,92.8L109.6,91.9L109.2,91.7L95.0,91.7L84.7,91.6L83.6,91.4L81.1,90.7L79.9,90.3L77.3,88.4L75.9,87.0L74.4,84.9L73.8,83.9L73.7,83.2L73.4,82.8L73.2,81.7L72.9,81.2L72.7,79.8L72.6,77.5L72.9,75.1L74.2,72.0L75.9,69.4L77.6,67.7L78.5,67.0L79.8,66.4L80.1,66.4L80.7,66.0L83.8,65.2L85.9,65.1L91.8,65.4L112.8,65.7L113.9,65.6L114.2,65.5L114.5,65.0L114.5,64.5L114.3,64.1L113.8,63.8L109.8,63.8L108.7,63.7L105.6,63.7L103.3,63.5L90.5,63.5L83.9,63.3L81.6,62.7L78.6,60.7L76.5,58.5L75.2,56.4L74.2,53.7L73.9,51.4L73.8,49.3L74.7,45.6L75.7,43.5L77.1,41.7L79.4,39.6L80.4,39.1L80.9,38.6L83.5,37.7L84.3,37.6L85.8,37.2L107.2,37.3L109.7,37.3L110.0,37.0L110.1,36.4L109.4,35.1L108.4,33.3L107.3,32.0L106.9,31.2L105.0,28.9L101.3,25.1L100.7,24.7L99.9,23.9L96.8,21.3L93.0,18.7L91.8,18.0L90.5,17.1L86.8,15.2L86.0,14.7L84.2,13.8L83.9,13.8L82.2,13.0L79.4,11.9L78.4,11.7L77.7,11.3L76.3,11.1L74.3,10.4L72.5,10.1L71.7,9.9L69.4,9.7L69.0,9.5L64.8,9.2L62.1,9.1Z" fill="#000" fill-rule="evenodd"/>
</svg>