<svg xmlns="http://www.w3.org/2000/svg" viewBox="0 0 128 128" width="128" height="128">
  <path d="M80.1,9.2L78.8,9.3L77.1,9.8L74.5,11.1L72.2,12.6L71.1,13.1L70.0,13.9L66.5,15.8L65.6,16.5L65.1,16.7L63.1,18.0L61.7,18.6L61.1,19.1L58.9,20.3L56.5,22.4L55.3,23.9L54.6,25.3L54.4,26.3L54.0,26.9L53.8,28.1L53.6,37.8L53.7,39.1L53.5,39.3L52.9,39.2L50.8,38.2L49.9,37.5L47.9,36.5L45.1,34.7L42.6,33.3L41.4,32.4L40.4,32.0L39.7,32.0L37.0,33.4L35.0,34.7L34.5,34.9L34.2,35.2L33.4,35.6L32.2,36.4L31.5,36.6L26.8,39.6L26.2,39.8L24.1,41.1L21.9,42.3L18.8,44.2L18.7,44.5L19.0,44.9L21.1,46.1L22.1,46.9L24.2,48.0L28.0,50.3L28.6,50.6L29.8,51.4L30.5,51.7L33.3,53.4L34.3,53.9L35.2,54.5L35.9,54.8L36.2,55.1L39.0,56.6L39.7,57.2L40.5,57.5L41.1,58.0L41.6,58.2L42.5,58.9L43.2,59.1L43.8,59.6L50.3,63.3L51.2,64.0L51.2,64.3L48.1,66.3L47.8,66.4L46.8,67.1L46.1,67.4L45.0,68.2L44.3,68.4L43.8,68.8L43.5,68.9L41.4,70.2L39.6,71.2L34.1,74.5L33.4,74.8L31.3,76.2L30.6,76.4L29.4,77.2L29.1,77.3L28.4,77.8L22.2,81.4L20.3,82.7L19.3,83.1L18.8,83.5L18.7,84.1L21.5,86.0L22.0,86.2L23.5,87.1L25.7,88.4L26.6,89.0L28.1,89.7L28.9,90.3L30.4,91.1L32.9,92.7L33.6,92.9L34.5,93.6L36.0,94.3L38.8,96.0L39.6,96.4L40.5,96.2L42.0,95.2L43.2,94.7L44.4,93.8L44.8,93.8L45.3,93.3L47.0,92.4L48.9,91.2L51.1,90.1L51.3,89.8L52.0,89.6L53.0,88.9L53.6,88.9L53.9,89.3L53.9,98.8L54.1,100.6L54.4,101.9L55.1,103.6L55.8,104.9L56.5,105.7L58.3,107.4L60.2,108.6L62.3,109.8L64.8,111.4L66.9,112.5L68.7,113.7L70.8,114.8L73.3,116.3L75.7,117.5L75.9,117.7L78.1,118.7L79.4,118.8L80.1,119.1L82.4,119.1L84.5,118.7L87.2,117.6L89.9,116.1L90.4,115.9L93.3,114.1L95.0,113.3L102.3,109.0L102.9,108.7L105.4,106.9L107.2,105.0L108.1,103.6L108.2,103.2L108.6,102.7L109.2,101.0L109.5,99.3L109.6,97.8L109.4,88.4L109.5,83.5L109.4,78.5L109.3,76.9L108.9,75.3L107.7,73.0L106.3,71.2L105.3,70.2L104.3,69.5L103.7,69.2L103.1,68.7L101.5,67.8L101.2,67.5L99.8,66.9L98.0,65.6L96.2,64.7L95.9,64.3L95.9,63.8L97.1,62.9L98.1,62.4L99.1,61.6L99.9,61.4L102.7,59.6L103.1,59.5L105.2,58.0L106.0,57.3L107.4,55.6L108.5,53.5L108.9,52.4L109.3,50.3L109.1,29.0L109.0,27.8L108.0,25.2L107.2,23.9L106.2,22.6L104.1,20.8L99.4,18.0L98.7,17.7L96.5,16.4L96.1,16.1L94.9,15.5L92.9,14.2L91.6,13.6L91.1,13.2L89.3,12.2L88.8,12.0L87.2,10.9L84.9,9.8L82.7,9.2Z M103.2,96.0L103.6,97.5L103.6,99.1L103.5,99.9L102.7,101.4L101.5,102.7L100.6,103.2L100.2,103.6L98.8,104.2L97.8,105.0L96.3,105.7L95.4,106.3L92.7,107.7L92.2,108.1L90.7,108.9L90.2,109.3L88.8,110.0L87.5,110.8L83.9,112.9L82.6,113.3L80.5,113.3L79.0,112.7L77.8,112.0L77.4,111.9L76.0,111.0L75.5,110.8L75.4,110.7L74.7,110.3L74.1,109.9L72.6,109.0L71.8,108.2L71.8,107.9L72.7,107.2L75.9,105.5L76.2,105.2L77.7,104.5L81.7,102.0L83.1,101.3L83.6,100.9L84.7,100.3L85.0,100.2L87.1,98.8L87.6,98.7L89.3,97.5L91.1,96.6L94.7,94.3L95.9,93.8L98.2,92.4L99.1,92.3L101.7,93.8L102.7,94.9Z M76.6,78.9L80.4,81.1L80.7,81.3L81.3,81.6L84.3,83.5L86.7,84.8L89.7,86.7L91.1,87.4L92.4,88.4L92.4,88.8L91.0,89.9L90.6,90.0L89.6,90.7L87.6,91.9L87.1,92.0L86.2,92.7L85.6,92.9L83.2,94.5L82.3,94.9L76.9,98.1L76.3,98.2L76.1,97.9L75.9,97.0L75.9,80.2L76.0,79.0Z M53.8,69.9L53.9,79.6L53.9,81.2L53.7,81.6L53.3,82.0L52.1,82.7L49.6,84.1L46.3,86.2L44.3,87.2L41.4,89.1L40.3,89.6L39.6,89.5L38.7,88.8L37.3,88.2L35.6,87.1L35.1,86.9L34.8,86.6L32.7,85.5L32.2,85.1L30.9,84.4L30.1,83.7L30.2,83.3L31.2,82.5L32.2,82.0L35.0,80.2L36.0,79.7L37.2,78.9L39.5,77.7L40.3,77.0L43.9,75.0L44.8,74.4L46.3,73.6L47.2,73.0L51.9,70.2L53.0,69.6L53.5,69.6Z M59.7,69.1L60.2,69.1L61.5,69.8L65.1,72.1L66.2,72.6L66.9,73.2L69.5,74.6L69.9,75.2L70.0,77.1L70.1,101.5L70.0,101.9L69.1,102.7L67.7,103.4L66.1,103.9L65.3,104.0L64.0,103.8L63.1,103.4L62.9,103.4L62.0,102.9L61.0,101.8L60.3,100.9L59.8,99.2L59.6,97.8L59.4,77.3L59.5,69.6Z M103.4,47.9L103.6,49.3L103.5,50.8L102.7,52.6L101.6,53.7L98.2,55.6L98.0,55.8L97.4,56.1L96.5,56.7L94.5,57.8L94.0,58.2L93.3,58.4L92.9,58.8L89.9,60.5L89.0,60.4L86.6,59.1L85.7,58.4L80.5,55.4L79.4,54.5L79.4,54.3L80.3,53.5L81.3,53.0L86.1,50.0L86.7,49.8L87.8,49.0L90.2,47.7L92.4,46.3L93.0,46.1L95.1,44.7L97.9,43.2L98.5,43.2L99.1,43.4L100.3,44.2L100.8,44.4L101.6,45.0L102.7,46.3Z M29.8,44.2L30.4,43.6L31.3,43.2L33.7,41.7L35.0,41.0L37.4,39.5L39.6,38.3L40.1,38.3L42.0,39.3L42.5,39.7L43.2,40.0L44.1,40.6L45.7,41.4L46.0,41.8L49.0,43.5L49.5,43.9L50.4,44.3L53.3,46.1L53.6,46.2L53.7,46.3L54.2,46.5L56.1,47.7L56.7,48.0L57.2,48.4L59.7,49.8L62.6,51.6L63.9,52.2L66.0,53.6L67.3,54.2L68.4,55.0L71.1,56.5L73.2,57.8L74.2,58.3L75.5,59.2L76.8,59.7L80.2,61.9L80.8,62.1L82.4,63.2L84.9,64.6L88.0,66.5L88.3,66.5L93.8,69.9L94.5,70.2L95.0,70.6L96.7,71.5L97.0,71.8L98.5,72.6L101.1,74.3L102.3,75.4L103.2,76.9L103.5,78.1L103.6,79.9L103.5,87.5L102.9,87.6L101.7,87.0L101.4,86.6L98.9,85.4L97.8,84.6L97.4,84.5L97.1,84.3L95.6,83.5L94.9,83.0L94.4,82.8L91.6,81.0L88.4,79.2L87.5,78.6L86.6,78.1L85.0,77.1L84.5,76.9L83.3,76.1L81.8,75.4L78.7,73.4L77.3,72.7L77.2,72.6L75.9,71.9L74.9,71.2L73.6,70.5L73.1,70.1L71.6,69.4L71.4,69.1L71.0,69.1L70.5,68.6L66.9,66.5L66.5,66.4L65.6,65.7L64.2,65.0L60.9,62.9L59.8,62.4L57.7,61.1L55.5,59.9L54.5,59.2L52.6,58.2L52.2,57.9L50.9,57.2L47.5,55.1L46.4,54.6L45.7,54.0L44.8,53.6L42.5,52.1L41.0,51.4L40.8,51.2L40.1,50.9L38.3,49.7L35.0,47.9L34.5,47.5L33.8,47.2L30.2,45.0L29.8,44.6Z M76.0,30.2L76.3,30.2L79.0,31.6L80.1,32.4L80.8,32.7L82.6,33.8L84.0,34.6L87.3,36.6L90.0,38.0L91.0,38.7L92.0,39.3L92.4,39.8L92.4,40.0L92.1,40.4L91.4,40.7L88.2,42.7L84.8,44.7L84.2,45.0L83.5,45.4L82.5,45.9L81.9,46.4L76.5,49.5L75.9,49.4L75.7,48.1L75.7,32.1L75.8,30.6Z M69.1,20.8L69.5,20.9L69.8,21.3L70.0,25.4L69.9,30.1L70.0,35.2L70.0,48.3L69.7,48.8L69.1,48.7L66.6,47.4L65.5,46.6L64.0,45.9L63.1,45.2L62.4,45.0L60.1,43.5L59.6,43.0L59.4,42.6L59.3,40.2L59.3,29.6L59.6,28.1L60.2,26.9L61.1,25.7L61.6,25.3L66.0,22.6L67.0,22.1L68.3,21.2Z M76.4,17.2L77.8,15.8L79.8,14.8L82.1,14.8L82.6,15.0L91.0,19.6L92.3,20.5L94.1,21.4L95.1,22.1L95.9,22.5L96.9,23.2L98.5,23.9L98.8,24.3L99.0,24.3L101.1,25.7L102.1,26.8L102.5,27.5L103.4,29.9L103.4,38.9L103.2,39.1L102.8,39.1L99.7,37.4L99.5,37.1L97.9,36.4L97.7,36.1L94.0,34.1L89.8,31.5L89.0,31.1L87.6,30.2L87.3,30.2L86.8,29.8L85.6,29.2L83.1,27.5L82.5,27.3L81.3,26.5L81.1,26.5L80.2,25.8L76.2,23.5L75.6,22.7L75.5,19.8L75.9,18.3Z" fill="#000" fill-rule="evenodd"/>
</svg>