<svg xmlns="http://www.w3.org/2000/svg" viewBox="0 0 128 128" width="128" height="128">
  <path d="M56.4,73.2L53.4,74.1L51.8,74.9L50.0,76.4L47.8,78.9L46.8,80.8L46.0,83.0L45.9,84.6L45.9,87.9L46.5,89.8L47.5,92.0L49.0,94.1L51.1,96.0L52.9,97.1L55.6,98.1L57.9,98.5L60.2,98.4L61.0,98.1L62.2,97.9L64.4,97.0L66.2,95.8L68.4,93.7L68.4,93.5L68.9,93.0L69.3,92.3L70.5,89.5L71.0,87.0L70.9,84.2L70.1,80.9L69.3,79.4L67.9,77.5L65.8,75.5L63.6,74.2L61.2,73.4L59.4,73.1Z M19.2,51.5L17.4,52.0L16.2,52.5L14.4,53.6L13.7,54.2L12.0,56.0L10.8,57.8L10.2,58.9L10.1,59.5L9.6,60.6L9.6,61.1L9.3,61.9L9.2,65.4L9.5,66.7L10.2,69.0L11.6,71.5L12.4,72.4L14.9,74.6L16.2,75.3L18.0,75.9L18.1,76.0L20.0,76.5L22.2,76.5L25.1,76.2L26.9,75.6L29.3,74.3L29.8,73.8L30.6,73.4L32.1,71.9L33.0,70.6L34.0,68.7L34.0,68.4L34.4,67.5L34.6,66.2L34.7,62.9L34.4,60.7L33.2,58.0L31.7,55.9L29.7,54.0L28.3,53.2L26.4,52.2L24.5,51.5L22.2,51.3Z M56.4,30.5L53.6,31.3L51.7,32.3L50.5,33.2L49.2,34.5L47.9,36.1L47.3,37.1L46.5,39.1L46.0,40.9L45.9,43.3L46.2,45.6L47.1,48.2L48.2,50.1L48.9,50.9L51.5,53.3L54.6,54.9L57.5,55.6L59.5,55.6L61.9,55.2L64.0,54.4L64.2,54.2L64.4,54.2L66.5,52.9L68.3,51.1L69.6,49.2L69.8,48.5L70.2,48.0L71.0,44.9L71.1,42.0L70.8,40.2L69.7,37.2L68.8,35.6L67.3,33.9L65.6,32.5L62.5,31.0L60.7,30.5Z M37.5,12.8L37.3,14.7L37.2,19.1L37.0,20.3L37.1,29.9L37.0,38.9L36.9,42.7L36.9,61.6L36.8,67.0L36.6,69.3L36.8,74.7L36.8,112.1L36.9,114.5L37.0,115.6L37.6,115.9L38.2,115.9L39.0,115.5L40.7,115.0L41.4,114.6L42.0,114.5L45.2,113.3L46.9,112.8L47.7,112.4L48.9,112.1L49.0,112.0L50.0,111.7L51.6,111.0L54.8,109.9L55.9,109.7L58.6,108.6L60.9,107.9L62.5,107.2L64.3,106.6L64.9,106.2L66.0,106.0L66.1,105.8L66.7,105.7L68.7,104.9L71.5,104.0L74.2,102.9L75.2,102.6L78.9,101.2L80.3,100.8L80.6,100.6L81.6,100.3L82.2,100.0L83.0,99.8L83.3,99.6L84.5,99.3L86.0,98.6L89.4,97.5L90.9,96.8L93.0,96.2L94.9,95.4L96.9,94.8L97.5,94.4L100.6,93.4L101.7,92.9L104.6,91.9L109.4,90.1L110.4,89.8L110.8,89.5L114.2,88.4L116.1,87.6L117.8,87.1L118.4,86.6L118.4,86.3L118.3,86.1L116.6,85.4L115.7,84.9L110.6,83.1L109.0,82.4L107.5,81.9L101.0,79.3L97.6,78.1L94.6,76.8L90.5,75.3L87.3,73.9L86.2,73.6L84.8,72.9L84.0,72.8L83.4,72.4L81.3,71.7L79.7,71.0L79.0,70.8L78.8,70.6L77.6,70.3L75.8,69.4L74.3,68.9L73.9,68.7L70.7,67.6L70.1,67.2L69.3,67.0L66.3,65.8L65.8,65.7L65.0,65.2L63.9,64.9L63.7,64.3L64.0,64.0L66.3,63.3L66.9,62.9L67.9,62.7L68.0,62.5L68.4,62.5L68.8,62.2L70.1,61.9L70.7,61.6L75.9,59.8L77.0,59.2L80.9,58.0L81.3,57.7L82.6,57.4L83.2,57.0L84.7,56.6L87.7,55.4L89.1,55.1L91.2,54.3L91.8,53.9L95.9,52.6L96.4,52.3L103.5,49.9L104.1,49.6L106.4,48.9L106.7,48.6L108.9,48.0L110.6,47.3L111.5,47.1L115.8,45.4L118.5,44.5L119.0,44.0L118.7,43.6L116.6,42.8L113.9,41.6L113.0,41.4L111.2,40.5L109.8,40.1L109.0,39.6L107.2,39.0L106.5,38.6L104.9,38.2L104.0,37.7L95.2,34.3L94.9,34.0L94.3,33.9L87.5,31.1L86.7,30.9L86.1,30.6L84.0,29.9L83.4,29.5L82.9,29.5L80.3,28.4L79.3,28.1L77.2,27.1L73.4,25.8L70.2,24.4L68.8,24.0L67.8,23.5L63.1,21.8L62.5,21.4L61.9,21.3L60.1,20.6L59.6,20.5L58.9,20.0L57.8,19.8L56.4,19.1L54.4,18.5L53.0,17.8L50.9,17.1L50.6,16.9L46.7,15.6L45.3,15.0L44.3,14.7L42.4,13.9L41.9,13.8L41.1,13.4L39.1,12.8L38.2,12.3L38.0,12.3Z M43.6,65.0L44.1,64.7L45.3,64.9L49.4,66.6L54.1,68.2L55.4,68.9L56.4,69.2L57.9,69.9L60.1,70.5L63.0,71.7L64.0,72.0L65.6,72.8L67.8,73.5L68.1,73.7L69.5,74.3L69.7,74.3L70.5,74.7L71.2,74.9L71.4,75.1L75.0,76.3L78.0,77.6L78.7,77.7L80.3,78.4L83.8,79.6L84.3,80.0L84.8,80.0L86.6,80.9L88.7,81.6L90.3,82.4L92.2,83.0L95.3,84.3L97.5,85.1L99.7,86.1L99.9,86.3L99.9,86.6L99.5,87.0L95.9,88.2L90.4,90.3L88.4,90.9L86.4,91.8L85.7,91.9L84.9,92.3L82.9,92.9L82.6,93.1L81.9,93.3L81.5,93.6L80.2,93.9L74.0,96.2L69.4,97.8L67.9,98.5L66.7,98.7L65.5,99.1L65.2,99.4L60.3,101.0L56.3,102.6L54.8,103.0L48.3,105.5L45.7,106.2L44.5,106.8L43.8,106.8L43.5,106.5L43.5,99.4L43.5,70.5Z M44.0,22.2L44.2,21.9L45.0,21.9L45.6,22.1L47.1,22.8L48.9,23.3L50.3,24.0L53.0,24.8L54.3,25.4L56.9,26.3L57.7,26.7L59.4,27.2L62.4,28.5L63.1,28.7L64.9,29.5L65.4,29.5L66.1,30.0L72.1,32.1L73.2,32.7L74.2,33.0L75.2,33.5L77.8,34.3L80.7,35.5L81.9,35.9L83.3,36.6L84.2,36.8L84.8,37.2L87.5,38.1L89.4,39.0L90.2,39.2L91.8,40.0L92.5,40.2L94.3,41.0L98.2,42.5L99.5,43.1L99.8,43.4L99.8,43.7L99.4,43.9L96.6,44.9L96.2,45.1L94.2,45.7L93.0,46.2L92.7,46.2L91.4,46.7L90.6,47.1L89.7,47.3L88.0,48.0L80.9,50.4L79.2,51.2L77.2,51.8L74.9,52.7L73.8,53.0L73.0,53.4L71.2,53.9L70.3,54.4L65.8,55.8L65.2,56.2L63.1,56.8L62.5,57.1L61.8,57.3L61.6,57.5L60.4,57.7L60.2,57.9L58.1,58.6L57.5,58.9L55.4,59.5L55.0,59.8L51.5,61.0L50.9,61.3L47.2,62.5L46.8,62.8L45.9,62.9L45.3,63.3L44.1,63.5L43.8,63.4L43.5,62.9L43.5,52.0L43.7,46.0L43.6,42.2L43.8,37.6L43.8,28.9L44.0,28.2Z" fill="#000" fill-rule="evenodd"/>
</svg>