<svg xmlns="http://www.w3.org/2000/svg" viewBox="0 0 128 128" width="128" height="128">
  <path d="M59.9,80.5L57.8,81.4L56.4,82.3L54.6,84.0L53.7,85.2L52.6,87.8L52.3,89.5L52.2,91.5L52.5,93.6L53.3,95.6L54.3,97.5L56.2,99.5L57.3,100.3L59.4,101.3L61.3,101.8L63.5,101.9L64.6,101.6L65.4,101.6L67.4,101.0L69.3,99.9L70.7,98.7L72.3,96.4L73.1,94.6L73.5,92.2L73.5,89.8L73.1,87.9L72.3,85.8L71.5,84.6L70.7,83.6L68.9,82.0L66.5,80.8L64.7,80.3L63.8,80.2L61.8,80.2Z M61.1,26.2L59.7,26.5L56.8,27.9L55.6,28.9L54.4,30.1L53.1,32.2L52.3,34.3L52.1,36.5L52.1,38.8L52.5,40.4L53.0,41.8L53.7,43.2L54.1,43.6L54.2,43.9L56.1,45.8L57.8,47.0L58.5,47.1L59.3,47.5L61.2,48.1L63.5,48.2L65.4,47.9L68.1,46.9L69.9,45.7L71.6,43.8L72.7,42.2L73.2,40.6L73.7,38.2L73.6,36.3L73.1,33.8L72.7,32.5L71.6,30.8L71.1,30.0L69.4,28.4L68.6,28.0L67.4,27.2L65.1,26.4L64.2,26.2Z M27.1,9.4L26.9,9.9L27.0,12.6L26.8,15.6L26.7,29.4L26.7,68.4L26.9,72.0L26.8,98.0L26.9,110.2L27.0,113.9L27.0,116.5L27.1,117.9L27.4,118.2L27.9,118.3L36.2,118.3L39.7,118.5L48.3,118.6L50.3,118.7L53.1,118.6L59.7,119.0L75.3,119.0L76.0,118.9L79.0,118.6L79.6,118.4L80.4,118.3L81.3,118.0L82.4,117.8L85.7,116.6L88.5,115.1L91.4,113.0L94.1,110.6L96.9,107.1L99.2,102.7L100.2,99.9L100.4,99.0L100.8,98.0L101.4,94.7L101.5,92.7L101.5,89.9L101.1,86.6L100.7,84.6L100.5,84.2L100.0,82.2L99.5,81.3L99.0,79.8L98.8,79.5L98.5,78.6L98.2,78.4L97.1,76.2L95.5,74.0L94.2,72.5L92.4,70.6L90.5,68.9L87.7,67.2L84.0,65.3L82.0,64.7L81.2,64.3L80.3,64.1L79.9,63.8L79.9,63.6L80.0,63.5L80.7,63.4L82.9,62.6L85.2,61.6L85.4,61.4L87.8,60.1L88.9,59.4L91.9,56.9L93.7,55.0L95.4,52.8L95.5,52.5L96.0,51.9L96.9,50.3L97.1,50.1L97.4,49.4L97.6,49.2L98.6,46.7L99.4,44.6L100.1,41.0L100.3,38.5L100.2,34.7L99.9,32.1L99.2,29.1L97.8,25.2L96.2,22.4L95.1,20.6L92.9,17.9L89.3,14.7L88.5,14.3L87.1,13.2L86.8,13.1L86.4,12.8L84.8,11.9L81.8,10.8L79.6,10.3L79.1,10.1L75.4,9.6L57.7,9.4L55.9,9.3L52.9,9.4L50.2,9.2L43.6,9.3L40.4,9.1L29.4,9.1L27.4,9.2Z M62.7,10.5L67.2,10.9L67.8,11.1L69.1,11.3L70.0,11.7L70.5,11.7L74.4,13.3L77.9,15.5L79.9,17.1L81.7,18.8L84.1,22.0L86.0,25.0L87.6,29.0L88.0,30.4L88.7,34.1L88.7,35.3L88.9,36.3L88.7,40.6L88.1,43.8L87.3,46.2L86.6,48.1L85.1,51.0L84.6,51.5L83.5,53.4L81.2,56.0L79.7,57.4L76.9,59.6L73.2,61.6L69.9,62.8L67.5,63.3L66.2,63.6L66.2,63.9L69.1,64.5L70.2,64.9L70.5,64.9L70.7,65.1L72.7,65.6L75.8,67.2L79.1,69.4L82.7,72.8L85.4,76.4L87.8,81.1L89.2,85.8L89.6,88.7L89.7,92.6L89.6,94.2L89.1,97.0L88.9,97.5L88.3,99.8L87.4,102.1L86.0,104.8L84.8,106.9L82.7,109.5L81.2,111.1L78.5,113.3L77.5,113.8L76.3,114.7L74.5,115.7L74.3,115.7L71.8,116.8L67.0,118.0L64.6,118.2L64.0,118.2L61.8,118.3L60.4,118.2L59.8,117.9L58.0,117.8L54.4,116.8L53.9,116.5L53.4,116.4L49.7,114.6L46.7,112.5L44.6,110.8L43.3,109.5L42.6,108.5L41.8,107.6L39.2,103.5L38.6,102.3L38.5,101.8L37.7,100.0L36.7,96.1L36.3,93.5L36.3,89.0L36.6,87.0L36.6,86.2L37.0,84.2L37.9,81.0L39.1,78.3L39.6,77.7L40.8,75.6L43.0,72.6L45.1,70.6L47.2,68.9L50.7,66.7L53.3,65.6L53.6,65.4L55.2,64.8L56.1,64.7L56.5,64.4L59.2,64.0L59.7,63.8L59.7,63.6L58.9,63.4L58.0,63.3L57.3,63.1L56.5,63.0L54.7,62.4L49.8,60.2L46.7,58.0L45.6,57.1L42.4,53.8L41.0,51.8L39.9,50.0L38.6,47.2L38.3,46.0L38.0,45.6L37.2,42.5L36.7,39.9L36.7,35.6L36.7,34.1L37.1,33.1L37.5,30.4L38.2,28.3L38.5,27.8L38.9,26.6L40.2,24.0L42.8,20.1L46.5,16.4L47.1,16.1L48.0,15.2L49.6,14.3L51.2,13.3L51.6,13.2L52.2,12.8L54.6,11.8L54.9,11.8L56.2,11.4L59.2,10.7Z" fill="#000" fill-rule="evenodd"/>
</svg>