<svg xmlns="http://www.w3.org/2000/svg" viewBox="0 0 128 128" width="128" height="128">
  <path d="M11.4,9.5L11.1,9.9L11.0,17.8L10.8,20.0L10.9,33.1L10.7,42.2L10.6,59.0L10.3,67.0L10.2,76.1L10.2,117.6L10.4,118.1L10.8,118.4L11.4,118.5L14.9,118.4L26.8,118.6L73.7,118.6L87.0,118.9L115.6,118.9L116.3,118.7L116.7,118.0L116.5,106.3L116.7,105.5L116.6,101.8L117.0,92.9L116.9,89.9L117.1,86.9L117.4,52.1L117.6,49.0L117.5,47.1L117.7,46.4L117.6,45.9L117.8,38.3L117.8,29.2L118.0,25.2L118.0,21.0L118.2,19.1L118.1,11.5L117.8,11.2L115.1,11.2L114.6,11.0L110.5,11.0L103.1,10.8L95.6,10.8L91.1,10.6L84.5,10.6L81.9,10.4L71.4,10.2L69.6,10.0L66.7,10.2L57.3,9.8L55.9,9.9L51.3,9.7L39.0,9.7L35.5,9.5L27.8,9.6L11.8,9.4Z M115.2,101.9L115.2,104.9L115.4,105.7L115.3,117.1L114.9,117.3L114.5,117.4L100.5,117.4L100.3,117.2L100.4,116.8L101.9,116.1L105.0,114.3L106.3,113.2L109.0,110.7L111.8,107.3L114.1,103.5L114.5,102.5L114.8,102.0Z M62.5,100.1L62.6,112.4L62.4,117.0L62.1,117.2L61.7,117.3L46.0,117.2L45.8,117.0L45.9,116.7L48.6,115.6L49.3,115.0L51.4,113.9L53.8,112.0L56.3,109.6L57.4,108.1L58.2,107.4L58.4,106.9L59.9,104.9L61.3,101.9L61.5,101.1L62.0,100.2Z M116.2,47.5L116.4,47.6L116.5,48.6L116.3,52.0L116.4,56.5L116.2,57.1L116.3,60.5L116.2,68.5L116.0,69.9L116.1,73.3L115.9,74.4L115.9,78.5L115.8,79.4L115.8,82.6L115.7,82.8L115.3,82.8L115.1,82.6L114.9,81.7L114.0,79.5L113.1,77.8L110.5,74.2L106.9,70.6L104.5,68.7L102.9,67.7L100.6,66.5L98.2,65.6L98.1,65.2L98.5,64.8L99.5,64.6L103.8,62.6L105.5,61.4L108.4,59.0L111.2,56.0L113.6,52.7L115.2,49.4L115.8,47.7L116.0,47.5Z M62.7,45.8L63.0,45.9L63.2,46.3L62.9,59.6L63.0,61.3L62.8,67.6L62.7,82.2L62.6,82.9L62.1,82.9L61.4,80.9L60.5,78.9L58.6,75.7L56.1,72.5L53.6,70.1L51.6,68.5L50.8,68.1L50.0,67.4L46.8,65.8L44.6,65.1L44.3,64.5L44.7,64.1L46.8,63.5L49.9,62.0L52.1,60.5L55.1,58.0L56.9,56.1L59.4,53.0L59.5,52.6L60.2,51.6L61.3,49.4L62.2,47.4L62.6,46.0Z M99.3,12.4L111.1,12.4L112.6,12.6L116.1,12.7L116.9,13.3L116.8,30.1L116.7,30.6L116.5,30.8L116.3,30.8L116.0,30.4L115.8,29.2L113.7,24.9L113.2,24.4L112.7,23.2L110.7,20.8L110.6,20.5L108.3,18.2L107.6,17.7L105.7,16.2L103.2,14.8L102.9,14.5L99.4,12.9L99.2,12.7Z M47.4,11.9L59.6,11.8L63.1,12.0L63.5,12.2L63.7,13.3L63.8,15.8L63.6,17.1L63.8,19.3L63.8,22.5L63.6,25.0L63.6,29.5L63.4,30.6L63.1,31.0L62.8,30.9L62.2,28.5L60.9,25.4L58.8,22.0L58.4,21.6L57.9,20.7L56.9,19.6L56.8,19.3L53.1,15.8L50.4,13.9L47.5,12.4L47.3,12.2Z" fill="#000" fill-rule="evenodd"/>
</svg>