<svg xmlns="http://www.w3.org/2000/svg" viewBox="0 0 128 128" width="128" height="128">
  <path d="M62.9,9.8L62.3,9.6L41.0,9.8L10.0,9.8L9.6,10.1L9.5,11.3L9.6,15.4L9.4,24.9L9.6,28.9L9.4,66.8L9.4,117.7L9.6,118.4L9.9,118.7L12.4,118.9L14.4,118.7L18.5,118.8L20.8,118.6L35.0,118.7L37.0,118.5L62.1,118.5L62.6,118.4L63.1,117.9L63.2,70.7L62.8,68.3L62.3,67.4L61.5,66.4L60.8,66.0L59.9,65.5L59.1,65.3L56.5,65.1L18.5,65.2L17.7,65.4L17.3,65.8L17.2,66.5L17.2,71.2L17.5,71.7L28.8,71.9L54.0,71.8L55.3,71.9L56.3,72.5L56.6,73.2L56.6,110.8L56.4,111.3L56.1,111.6L54.0,111.8L47.4,111.7L41.3,111.9L16.5,111.8L16.0,111.2L15.8,92.5L16.0,16.9L16.7,16.5L55.2,16.4L56.1,16.5L56.6,16.8L56.6,52.4L56.5,55.2L56.0,56.2L55.8,56.5L54.9,56.8L18.0,57.0L17.6,57.1L17.3,57.4L17.2,58.1L17.2,63.0L17.4,63.3L18.0,63.7L58.6,63.6L60.2,63.2L61.6,62.3L62.6,61.0L63.2,59.2L63.2,51.5L63.3,45.7L63.3,10.9L63.3,10.2Z M61.1,11.7L61.5,12.1L61.6,12.8L61.6,43.6L61.4,58.6L60.9,59.9L60.3,60.7L59.0,61.5L57.5,61.8L47.3,61.8L42.5,61.9L19.7,61.8L19.4,61.8L19.0,61.2L19.0,59.4L19.4,58.9L20.3,58.8L53.6,58.8L56.3,58.6L57.5,57.8L58.2,56.5L58.5,48.4L58.5,15.7L58.2,14.7L57.7,14.5L38.6,14.4L28.0,14.6L20.6,14.5L14.8,14.6L14.4,14.8L14.1,15.9L13.9,31.3L14.0,58.7L13.9,80.1L14.0,87.8L14.0,111.8L14.2,113.6L14.4,113.8L17.1,114.0L30.0,113.9L36.4,113.7L57.9,113.7L58.3,113.3L58.4,111.7L58.4,72.1L57.9,71.0L56.8,70.2L55.0,70.0L19.4,70.0L19.0,69.2L19.0,67.8L19.3,67.2L19.6,67.1L32.9,66.9L56.0,66.9L58.1,67.0L59.1,67.2L59.9,67.7L60.8,68.8L61.3,69.9L61.4,70.7L61.3,116.3L60.6,116.7L57.5,116.8L39.0,116.7L11.8,116.9L11.4,116.7L11.3,116.4L11.2,77.7L11.4,64.6L11.3,12.5L11.5,12.1L12.5,11.8L31.2,11.8L46.9,11.6Z M118.3,9.5L75.2,9.7L67.1,9.6L65.6,9.7L65.0,10.2L65.1,12.1L64.9,12.5L64.8,25.0L64.9,59.1L65.3,60.5L66.1,61.7L67.2,62.7L69.1,63.4L75.3,63.6L95.8,63.4L107.8,63.5L109.8,63.4L110.1,63.3L110.5,62.8L110.4,57.1L110.0,56.7L109.6,56.6L98.8,56.6L92.8,56.8L72.9,56.8L72.0,56.3L71.5,55.5L71.5,25.9L71.6,17.1L71.8,16.7L72.5,16.4L77.5,16.5L93.3,16.3L111.4,16.3L112.1,16.8L112.2,17.6L112.1,33.3L112.3,42.8L112.2,78.4L112.4,111.2L112.2,111.6L111.6,111.8L72.2,111.7L71.7,111.4L71.5,109.7L71.5,73.4L71.7,72.3L72.1,71.9L73.2,71.6L109.7,71.5L110.3,71.3L110.5,70.8L110.6,67.2L110.4,65.3L110.0,65.0L109.6,64.9L82.0,65.2L72.7,65.0L69.4,65.1L67.6,65.6L66.2,66.7L65.4,67.9L64.8,69.6L64.9,117.4L65.1,118.2L65.6,118.5L97.8,118.5L100.9,118.7L110.7,118.6L111.2,118.8L118.0,118.8L118.5,118.5L118.8,118.2L118.8,10.3L118.6,9.8Z M116.3,11.5L116.8,11.9L116.9,12.2L116.8,29.3L117.0,57.2L117.0,116.2L116.7,116.5L115.9,116.7L67.1,116.7L66.6,116.2L66.5,115.5L66.6,70.8L66.9,69.2L67.5,68.3L68.2,67.6L69.1,67.2L70.3,67.0L108.3,66.9L108.7,67.3L108.8,67.7L108.6,69.3L108.3,69.6L107.3,69.7L104.3,69.6L99.9,69.8L96.3,69.7L77.8,69.9L73.0,69.8L71.5,69.9L70.6,70.2L70.2,70.5L69.9,71.2L69.7,72.4L69.7,112.7L69.9,113.3L70.4,113.7L71.0,113.8L112.7,113.8L113.7,113.7L114.2,113.1L114.2,17.7L114.1,16.3L114.1,14.8L113.6,14.3L112.8,14.2L109.0,14.2L107.6,14.4L101.9,14.3L90.2,14.5L70.3,14.5L69.9,15.0L69.7,16.8L69.7,55.3L69.8,56.8L70.2,57.7L71.1,58.5L72.9,58.8L87.2,58.6L108.2,58.6L108.4,58.7L108.7,59.0L108.8,61.0L108.6,61.3L108.3,61.5L107.2,61.6L69.8,61.6L68.2,61.2L67.4,60.4L66.7,58.9L66.5,57.5L66.8,25.3L66.7,13.7L66.9,12.2L67.5,11.7L68.8,11.6L86.2,11.7L92.4,11.5Z" fill="#000" fill-rule="evenodd"/>
</svg>