<svg xmlns="http://www.w3.org/2000/svg" viewBox="0 0 128 128" width="128" height="128">
  <path d="M64.8,9.2L64.3,9.3L63.8,10.0L63.8,16.1L64.1,21.3L64.5,21.8L67.3,21.9L68.3,22.3L69.5,22.4L71.4,23.1L74.7,24.8L76.5,26.3L78.3,28.1L78.7,28.7L79.4,29.5L81.1,32.5L82.1,35.4L82.5,37.4L82.6,38.5L82.6,41.2L82.4,43.0L81.6,45.9L80.7,48.0L80.1,49.1L79.8,49.5L79.7,49.9L78.0,52.0L76.3,53.5L75.2,54.4L73.8,55.3L73.3,55.5L72.2,56.2L71.0,56.7L70.2,56.8L69.8,57.1L68.5,57.2L67.7,57.5L65.0,57.7L64.4,58.2L64.3,58.6L64.3,67.3L64.4,69.1L64.6,70.0L65.2,70.3L67.0,70.3L67.8,70.5L69.4,70.8L71.8,71.6L73.0,72.1L74.5,73.0L76.7,74.6L78.7,76.6L79.7,77.8L81.6,81.2L82.6,84.4L82.8,85.5L82.8,86.7L83.0,87.4L83.0,89.3L82.7,91.6L82.4,92.9L82.1,93.6L82.0,94.5L80.6,97.4L78.8,100.0L76.3,102.4L74.5,103.7L72.5,104.7L70.7,105.4L69.0,105.9L67.0,106.1L66.5,106.3L65.6,106.3L65.3,106.4L64.9,106.8L64.8,107.4L64.8,111.9L65.0,118.4L65.5,119.0L67.1,119.1L68.9,118.9L71.7,118.4L72.9,118.1L73.6,117.8L74.0,117.8L75.0,117.3L75.9,117.1L76.1,116.9L78.6,115.9L78.8,115.7L81.6,114.2L84.2,112.3L87.5,109.1L89.8,106.3L91.4,103.7L91.6,103.2L92.0,102.6L92.1,102.2L92.8,101.0L93.4,98.8L93.6,98.5L93.8,97.7L94.1,97.1L94.7,94.4L95.0,93.0L95.2,89.9L95.0,85.4L94.6,82.5L94.3,81.6L94.1,80.7L93.0,77.4L90.4,72.5L88.3,69.6L87.3,68.4L84.7,65.8L83.2,64.6L83.1,64.1L83.3,63.8L84.2,62.9L85.1,62.2L87.2,60.2L88.3,58.7L88.5,58.6L90.2,56.4L92.1,53.0L92.5,51.8L92.9,51.2L93.4,49.6L93.6,49.2L94.6,45.5L94.6,44.1L95.0,41.8L95.1,39.5L94.8,35.6L94.5,34.6L94.3,33.4L94.0,32.5L94.0,32.0L92.8,28.5L90.7,24.3L90.4,24.0L90.3,23.6L89.6,23.0L89.2,22.1L87.4,19.6L84.7,17.0L82.7,15.4L81.9,14.9L81.1,14.2L79.7,13.5L79.1,13.0L76.6,11.8L74.0,10.7L71.0,9.9L67.7,9.2Z M34.6,9.1L33.4,9.3L33.1,9.8L33.0,10.3L33.2,20.9L33.4,21.4L34.0,21.7L34.8,21.7L36.5,22.0L37.3,22.0L40.1,22.7L43.1,24.2L46.0,26.4L48.2,28.8L49.9,31.5L51.0,34.4L51.6,37.0L51.8,38.5L51.8,41.1L51.5,42.9L51.0,45.0L50.5,46.3L50.4,46.5L50.3,47.0L49.7,48.0L49.5,48.3L49.2,49.1L48.6,50.1L47.4,51.3L47.2,51.7L44.6,54.1L41.9,55.8L39.9,56.7L37.4,57.4L33.9,57.7L33.4,58.2L33.2,58.9L33.4,62.8L33.4,67.6L33.4,69.1L33.7,70.0L34.1,70.3L36.8,70.5L38.4,70.9L41.8,72.1L43.5,73.1L45.3,74.4L47.6,76.5L48.9,78.2L50.3,80.7L51.1,82.7L51.9,85.3L52.1,86.9L52.1,90.3L51.5,93.4L51.0,95.2L50.2,97.0L49.6,98.1L48.0,100.3L45.8,102.4L43.9,103.9L42.7,104.4L42.1,104.8L41.2,105.1L40.7,105.4L38.5,106.1L38.1,106.1L37.0,106.4L34.9,106.5L34.3,106.9L34.0,107.5L34.1,112.3L34.1,115.2L34.2,115.9L34.2,118.4L34.3,118.7L34.7,119.1L36.3,119.1L37.7,119.1L40.2,118.7L43.9,117.7L45.3,117.3L49.3,115.2L50.1,115.0L51.1,114.0L53.7,112.2L56.6,109.4L56.8,109.1L59.0,106.6L60.2,104.6L61.5,102.4L62.4,100.3L62.9,98.5L63.2,97.8L63.4,96.8L63.6,96.3L63.8,95.2L64.0,94.5L64.4,90.5L64.4,87.1L64.2,85.0L64.0,83.4L63.1,80.0L62.4,77.6L61.6,76.3L61.5,75.7L59.5,72.2L57.8,69.9L56.8,68.9L56.0,67.9L52.2,64.4L52.2,64.0L53.0,63.0L54.3,62.0L55.5,60.8L58.0,57.9L59.7,55.5L60.4,54.1L60.7,53.7L61.1,52.7L61.5,52.0L61.9,50.9L62.4,49.9L63.6,45.9L63.7,44.8L64.1,42.8L64.2,39.6L64.1,36.7L63.8,34.3L63.1,31.6L61.8,27.7L59.7,23.5L57.6,20.5L55.9,18.7L53.7,16.6L51.9,15.0L48.5,12.9L46.0,11.6L44.1,10.9L43.9,10.7L40.8,9.8L38.2,9.3Z" fill="#000" fill-rule="evenodd"/>
</svg>