<svg xmlns="http://www.w3.org/2000/svg" viewBox="0 0 128 128" width="128" height="128">
  <path d="M118.5,16.0L109.3,15.8L95.2,15.8L93.9,16.0L60.9,15.9L58.9,16.1L37.5,16.1L34.4,16.2L24.7,16.2L23.9,16.3L19.8,16.4L12.6,16.2L9.6,16.3L9.3,16.5L9.3,16.8L10.1,17.0L12.9,17.1L14.9,16.9L17.2,17.0L18.7,16.7L19.3,17.0L20.5,17.1L20.7,17.3L20.8,17.8L20.7,23.8L20.9,27.6L20.7,29.3L20.8,32.1L21.0,33.3L20.9,47.8L21.0,48.8L21.0,59.8L21.1,65.5L21.0,68.8L21.2,73.0L21.1,83.7L21.3,88.5L21.3,104.3L21.5,105.9L21.5,109.1L21.3,109.9L21.3,110.9L21.0,111.3L19.8,111.5L10.8,111.4L9.6,111.7L9.6,111.9L9.7,112.1L10.5,112.2L27.7,112.1L29.0,112.3L32.5,112.1L51.6,112.0L58.9,112.2L59.6,112.0L62.7,112.2L64.6,112.0L70.4,112.2L71.4,112.0L72.8,112.2L107.9,112.1L113.6,112.3L114.9,112.2L115.8,112.4L118.2,112.2L118.5,111.8L118.6,111.5L118.4,105.2L118.6,100.5L118.6,92.4L118.4,92.0L117.9,92.1L117.6,92.4L117.4,94.6L116.7,96.9L116.2,97.7L115.6,99.5L114.4,101.5L111.5,104.6L110.3,105.5L109.7,106.1L108.8,106.5L107.9,107.3L104.7,109.0L103.9,109.1L102.9,109.6L102.0,109.9L101.2,110.0L100.4,110.3L99.2,110.6L95.5,111.1L95.0,111.3L93.4,111.3L88.7,111.3L88.4,111.1L88.3,66.6L88.5,65.5L89.0,65.2L93.6,65.1L96.1,65.4L97.4,65.4L100.6,66.1L101.1,66.1L103.5,67.0L104.6,67.5L104.8,67.5L105.2,67.7L106.1,68.1L108.7,69.6L110.2,70.7L112.8,73.2L113.8,74.4L114.6,75.8L115.6,77.1L115.9,77.9L116.2,78.3L116.5,79.0L116.9,79.5L117.0,80.4L117.5,82.2L117.6,83.8L117.9,84.2L118.3,84.2L118.6,83.8L118.5,82.0L118.7,78.5L118.8,70.8L118.7,61.8L118.9,61.0L118.9,59.3L118.7,57.5L118.8,45.4L118.5,45.0L118.1,45.0L117.9,45.4L117.8,46.4L117.2,49.1L116.1,51.1L115.9,52.2L115.6,52.8L113.9,55.1L110.7,58.5L109.6,59.3L109.3,59.4L107.3,60.7L105.1,61.7L104.4,61.9L102.9,62.6L100.7,63.1L99.4,63.6L98.7,63.6L96.0,64.1L92.1,64.4L89.0,64.4L88.4,64.1L88.3,22.4L88.5,18.2L88.4,17.5L88.6,17.1L89.1,16.7L94.7,16.7L97.8,17.1L101.3,17.9L102.7,18.5L104.1,18.8L104.7,19.1L105.3,19.3L105.8,19.7L108.0,20.7L108.9,21.6L109.8,22.1L112.5,24.8L113.2,25.8L113.9,26.5L114.4,27.4L115.3,28.6L115.7,29.8L117.0,32.2L117.7,34.5L117.9,36.4L118.2,36.8L118.6,36.7L118.8,35.7L118.9,33.8L118.8,23.9L119.0,17.1L119.0,16.5Z M51.9,65.4L56.0,66.4L56.9,66.8L58.0,67.1L61.3,68.5L62.3,69.2L63.0,69.4L65.3,71.3L65.6,71.4L66.9,72.5L68.0,73.8L68.7,74.8L69.5,75.6L70.7,77.5L72.0,80.3L72.6,82.0L73.7,86.7L73.5,91.7L73.2,92.4L73.1,94.1L72.6,95.9L71.6,98.2L70.9,99.2L70.3,100.5L68.9,102.4L67.2,104.2L64.2,106.6L62.9,107.3L62.0,107.9L60.9,108.5L59.6,109.0L58.8,109.5L55.5,110.4L53.4,110.8L52.8,110.8L52.1,111.1L51.0,111.1L49.7,111.3L44.8,111.3L44.5,111.0L44.4,109.7L44.5,102.1L44.3,98.6L44.4,96.4L44.2,89.1L44.2,65.7L44.5,65.4L45.3,65.2L48.7,65.1L50.7,65.4Z M114.3,18.4L114.7,18.4L114.9,18.5L114.9,19.0L114.5,19.3L114.1,19.3L113.8,19.0L113.8,18.8Z M45.7,16.7L50.6,16.9L51.2,17.1L52.4,17.1L56.9,18.3L57.2,18.5L58.1,18.7L58.8,19.1L59.4,19.2L60.8,20.1L61.3,20.2L62.1,20.8L63.1,21.3L63.8,22.0L65.6,23.3L67.1,24.8L68.1,26.1L69.0,27.0L71.1,30.4L71.2,30.9L71.7,31.7L72.8,34.8L73.1,36.0L73.3,38.9L73.5,39.3L73.5,41.4L73.1,45.3L72.6,47.5L72.2,48.2L71.9,49.4L70.2,52.5L69.1,54.2L67.9,55.6L65.1,58.3L63.9,59.2L60.6,61.2L60.0,61.4L59.6,61.6L58.8,61.8L58.3,62.1L57.7,62.3L57.1,62.6L56.4,62.7L55.7,63.1L52.0,64.0L49.6,64.2L48.4,64.4L46.4,64.5L44.5,64.4L44.2,64.1L44.1,62.3L44.2,60.0L43.9,51.7L43.9,17.8L44.0,17.3L44.4,16.9Z" fill="#000" fill-rule="evenodd"/>
</svg>