<svg xmlns="http://www.w3.org/2000/svg" viewBox="0 0 128 128" width="128" height="128">
  <path d="M115.8,25.0L113.9,23.3L111.8,22.0L109.9,21.4L108.6,21.1L107.3,21.0L106.0,20.7L94.2,20.4L93.4,20.2L87.6,20.2L83.3,20.4L82.7,20.6L82.4,20.9L82.1,21.6L82.1,22.1L81.5,24.3L80.9,27.3L80.7,27.8L80.3,30.2L79.9,31.2L79.6,33.0L78.8,36.5L78.8,37.0L78.5,37.4L78.0,40.1L77.7,41.0L77.6,42.2L77.4,42.5L77.4,42.9L77.2,43.6L76.9,45.5L76.2,48.1L76.2,48.6L75.8,50.2L75.7,51.1L75.5,51.4L75.0,54.2L74.1,57.2L73.8,59.4L73.5,60.1L72.7,60.2L70.2,58.9L69.6,58.8L69.1,58.4L68.6,58.3L67.0,57.5L66.6,57.4L65.2,56.5L61.5,54.8L61.2,54.5L60.6,54.3L60.3,54.0L58.3,53.1L57.9,53.1L57.4,53.5L57.2,53.9L56.9,56.0L56.6,56.6L56.2,58.5L56.1,59.4L55.7,60.2L55.4,62.5L55.7,62.9L56.9,63.1L72.8,63.1L80.3,62.9L82.0,63.1L89.8,63.0L93.9,63.1L94.2,63.4L94.2,63.6L93.1,64.8L91.1,66.4L87.4,69.9L86.4,70.6L85.9,71.2L84.9,71.9L74.8,80.9L74.6,80.9L72.0,83.3L70.4,84.5L69.8,85.2L68.0,86.7L67.7,86.8L66.5,88.1L65.5,88.8L60.4,93.5L59.0,94.5L57.6,95.9L56.9,96.4L55.3,97.9L54.4,98.6L49.8,102.9L49.0,103.4L45.3,106.6L44.5,106.7L43.7,105.6L43.2,104.2L42.8,103.7L40.2,97.8L39.8,97.1L39.7,96.7L39.3,96.2L38.5,94.1L37.7,92.5L37.3,91.5L37.1,91.3L36.3,89.7L35.5,87.8L34.1,85.0L34.0,84.6L32.6,81.5L32.2,80.9L32.1,80.4L31.1,78.5L31.0,78.1L30.6,77.5L30.6,77.2L29.8,75.5L29.3,74.8L29.2,74.1L28.4,72.9L28.2,72.1L27.5,70.8L27.5,70.5L26.9,69.7L25.9,67.0L24.9,64.9L24.7,64.0L25.0,63.7L25.2,63.6L31.1,63.6L39.1,63.3L46.2,63.3L52.2,63.1L52.7,62.9L52.8,62.6L53.2,61.6L53.3,60.4L53.8,58.9L53.9,57.3L54.2,56.8L54.8,53.9L55.3,52.5L55.3,51.9L55.8,50.1L56.2,49.7L56.8,49.7L57.2,50.0L57.7,50.1L59.4,51.0L59.9,51.1L61.4,52.0L62.2,52.2L62.5,52.5L63.1,52.7L63.6,53.0L64.1,53.1L64.6,53.4L65.1,53.5L65.6,52.7L65.6,51.7L65.9,50.2L66.1,47.2L66.5,45.5L66.8,42.4L67.0,41.2L67.0,39.9L67.3,38.7L67.4,36.7L67.8,34.2L68.0,31.1L68.6,29.0L69.2,27.4L69.5,26.3L71.4,21.8L71.6,21.2L71.6,20.5L71.1,20.1L65.0,20.1L59.0,20.3L29.1,20.2L28.6,20.4L28.0,21.0L27.7,22.5L27.4,23.3L27.2,24.8L26.9,25.5L26.7,27.1L26.4,27.7L26.3,29.1L25.4,32.5L25.0,35.2L23.5,41.4L23.4,42.4L23.0,43.8L22.9,44.7L22.6,45.2L22.2,47.7L21.5,50.2L21.4,51.2L21.0,52.5L20.7,54.3L20.3,55.7L20.1,57.6L19.5,59.2L18.9,62.4L18.5,63.5L18.3,64.9L17.9,66.1L17.8,67.1L17.1,70.0L17.0,71.1L16.7,71.8L16.2,74.3L16.0,74.6L15.7,77.1L15.3,78.1L15.0,80.3L14.6,81.8L14.3,83.4L14.0,84.0L14.0,84.6L13.7,85.8L13.7,86.3L13.4,87.0L12.7,90.8L12.3,91.9L12.0,94.4L11.6,95.3L11.5,96.6L11.1,97.5L10.7,99.3L10.7,99.9L10.4,100.4L10.0,103.3L9.8,103.6L9.6,105.4L9.3,106.0L9.2,106.9L9.4,107.3L10.1,107.7L29.0,107.9L49.0,107.8L53.9,107.9L66.4,107.9L67.1,108.0L71.5,108.0L73.3,108.2L78.3,108.0L79.7,107.7L83.5,107.2L84.2,106.8L86.4,106.2L87.1,105.9L87.9,105.7L88.2,105.4L89.0,105.3L91.3,104.2L92.0,103.9L92.5,103.6L94.8,102.4L95.8,101.7L96.3,101.5L97.6,100.4L98.4,100.0L99.5,99.2L104.8,94.2L108.8,89.2L109.1,88.6L110.9,85.8L111.5,84.3L111.8,83.8L112.9,80.1L113.4,77.4L113.3,74.1L112.4,70.6L111.3,68.4L110.4,67.2L109.1,65.8L106.7,64.3L105.0,63.4L104.1,63.2L103.6,63.0L100.4,62.5L100.1,62.2L100.1,61.9L101.7,60.5L106.4,56.0L109.4,53.3L112.7,49.9L115.6,45.7L116.6,43.6L116.7,43.2L117.0,42.9L117.7,41.6L118.5,39.0L118.9,37.3L119.0,34.7L118.9,32.7L118.7,31.8L118.6,30.6L118.0,28.7L116.9,26.6L116.5,26.3Z" fill="#000" fill-rule="evenodd"/>
</svg>