<svg xmlns="http://www.w3.org/2000/svg" viewBox="0 0 128 128" width="128" height="128">
  <path d="M50.2,39.7L49.8,39.4L46.7,39.3L34.0,39.4L33.7,39.5L33.5,40.9L33.7,46.1L33.7,51.5L34.1,51.9L38.0,52.0L49.9,51.9L50.3,51.8L50.4,51.3L50.3,47.8L50.5,47.2L50.3,46.7Z M118.8,43.0L118.0,41.6L116.4,40.1L114.5,39.2L112.6,39.0L104.5,39.1L102.8,39.1L98.9,39.2L78.1,39.2L75.5,39.4L73.4,39.3L62.5,39.4L62.3,39.7L62.3,55.9L62.2,57.4L61.9,57.7L49.7,57.9L42.4,57.8L35.6,57.9L22.7,57.9L21.7,57.9L21.4,58.3L21.5,69.8L21.8,70.2L22.8,70.4L61.8,70.4L62.2,70.7L62.2,75.5L61.8,75.9L61.4,76.0L50.9,76.1L9.8,76.1L9.4,76.4L9.1,76.6L9.1,76.9L9.3,88.3L9.5,88.6L9.7,88.7L81.6,88.6L84.5,88.8L91.5,88.8L99.9,89.0L102.4,88.9L108.6,89.2L113.8,89.1L115.1,88.6L115.4,88.4L115.6,88.4L116.4,88.0L117.7,86.6L118.6,85.0L118.9,83.3L119.0,71.8L118.9,69.1L118.5,67.8L117.6,66.3L116.6,65.3L115.8,64.7L115.4,64.6L115.1,64.3L115.1,64.0L115.3,63.7L115.6,63.7L116.5,63.0L117.7,62.0L118.6,60.5L118.6,59.9L118.9,59.2L119.1,56.5L119.0,54.6L119.2,50.6L119.2,44.8L119.1,44.0Z M75.1,70.7L75.4,70.4L75.7,70.4L104.3,70.5L105.0,70.7L105.6,71.3L105.8,71.8L105.8,74.9L105.5,75.7L104.6,76.4L96.8,76.4L83.0,76.1L77.4,76.2L75.5,76.1L75.2,75.9L75.1,75.6L75.0,74.9Z M75.1,52.5L75.4,52.1L76.4,51.9L104.6,52.0L105.4,52.5L105.7,53.1L105.8,56.6L105.6,57.0L105.2,57.5L104.5,57.8L103.4,57.9L75.6,57.8L75.2,57.6L75.1,57.2Z" fill="#000" fill-rule="evenodd"/>
</svg>