<svg xmlns="http://www.w3.org/2000/svg" viewBox="0 0 128 128" width="128" height="128">
  <path d="M67.0,9.3L65.2,9.7L63.9,9.8L62.4,10.1L61.7,10.1L57.7,11.2L56.9,11.3L56.4,11.5L55.6,11.6L52.0,13.1L51.1,13.2L50.4,13.6L48.5,14.4L47.7,14.9L44.7,16.3L43.1,17.4L42.4,17.6L40.2,19.2L39.7,19.4L38.7,20.2L38.2,20.5L37.2,21.4L36.7,21.7L35.3,23.1L31.8,26.2L28.3,30.1L27.7,31.1L27.0,31.8L25.4,34.2L24.8,34.8L23.5,37.2L22.6,38.5L22.2,39.5L21.9,39.9L21.7,40.6L21.3,41.3L20.2,44.1L20.0,44.3L19.5,46.1L18.6,47.9L18.4,49.2L17.7,51.2L17.5,52.8L17.1,54.0L16.7,56.2L16.6,57.7L16.2,59.4L16.1,68.3L16.4,69.3L16.4,71.2L16.8,72.6L16.9,74.6L17.6,76.6L17.7,77.7L18.1,78.3L18.7,81.0L19.0,81.3L19.1,82.1L19.9,84.2L20.0,84.8L20.8,86.2L21.3,87.6L22.0,88.8L23.2,91.3L24.3,92.9L24.5,93.4L26.3,95.9L26.5,96.3L27.0,96.8L27.7,97.9L28.9,99.5L33.2,103.9L34.4,104.8L35.7,106.1L37.6,107.6L39.4,108.9L42.0,110.4L42.8,111.2L43.5,111.4L44.2,111.9L45.9,112.7L46.4,113.0L50.8,115.1L52.9,115.8L53.2,116.0L57.8,117.4L58.9,117.5L60.1,118.0L61.4,118.0L62.2,118.3L63.0,118.3L65.8,118.9L67.7,118.9L68.6,119.1L77.7,119.0L78.9,118.9L79.6,118.6L83.7,118.1L85.6,117.6L86.5,117.2L87.5,117.2L88.9,116.7L90.6,116.3L91.2,116.0L93.4,115.3L94.2,114.9L95.9,114.3L98.5,113.0L98.8,113.0L100.1,112.0L101.3,111.5L103.7,109.9L104.2,109.7L105.9,108.5L108.5,105.9L108.9,105.2L109.4,104.6L109.5,104.1L110.2,103.1L110.6,101.4L110.6,99.8L110.9,98.6L110.8,97.5L109.8,95.2L108.5,93.7L106.8,92.7L104.4,92.4L103.7,92.4L101.9,92.7L101.0,93.0L99.9,94.0L98.7,94.2L97.1,95.2L96.6,95.3L95.0,96.2L90.4,98.0L87.8,98.5L85.8,99.0L83.1,99.2L82.5,99.4L77.4,99.5L72.7,99.0L71.8,98.6L70.6,98.5L69.7,98.2L68.2,98.0L67.8,97.7L65.8,97.1L65.3,96.8L64.6,96.6L63.0,95.8L62.2,95.2L62.0,94.6L62.2,94.4L63.6,94.3L65.3,94.5L76.2,94.4L77.0,94.6L83.1,94.6L84.7,94.6L86.7,94.2L88.8,93.6L90.1,92.9L90.9,92.7L91.4,92.4L92.2,92.1L92.7,91.6L94.5,90.4L96.8,88.1L98.1,86.4L98.3,85.9L98.9,85.1L100.4,81.4L100.9,78.9L100.9,74.8L100.6,73.8L100.5,72.4L100.2,71.3L99.5,69.6L99.5,69.4L97.9,66.5L97.0,65.5L95.9,64.1L95.8,63.6L98.5,60.2L98.8,59.4L99.4,58.6L100.1,57.2L100.4,56.8L101.0,55.0L101.0,54.3L101.4,53.2L101.7,51.2L101.7,49.7L101.3,46.5L101.0,46.1L101.0,45.3L100.4,43.6L99.7,42.5L99.3,41.5L97.8,39.4L95.8,37.3L93.8,35.7L92.0,34.6L90.4,33.9L89.7,33.5L88.5,33.4L87.4,32.9L86.8,32.9L85.9,32.5L83.9,32.5L83.5,32.4L81.0,32.5L79.8,32.3L64.4,32.5L63.3,32.3L63.1,32.1L63.1,31.7L64.0,31.2L66.6,30.0L68.0,29.6L68.6,29.3L70.2,29.0L70.7,28.7L71.3,28.7L72.0,28.4L76.1,27.9L78.8,27.7L82.3,27.7L82.9,27.9L84.7,28.0L87.6,28.5L88.7,28.9L90.0,29.0L90.4,29.3L91.3,29.4L92.1,29.8L94.0,30.3L95.8,31.1L96.6,31.6L97.7,32.0L98.4,32.5L99.5,32.9L99.7,33.2L100.4,33.4L101.0,33.9L102.6,34.6L104.5,34.9L106.2,34.9L108.5,34.1L109.4,33.5L110.2,32.8L110.6,32.1L111.2,31.5L111.6,30.7L112.1,28.8L112.1,27.7L112.0,26.8L111.2,24.7L109.6,22.6L107.6,20.7L105.4,19.0L104.4,18.4L103.0,17.5L101.4,16.6L99.4,15.4L99.0,15.3L96.8,14.2L96.2,14.1L94.9,13.5L93.7,13.1L93.4,12.8L90.6,11.8L88.7,11.4L87.3,10.9L86.3,10.9L84.7,10.4L82.8,10.2L81.6,9.8L80.9,9.8L78.4,9.4L77.2,9.4L75.8,9.1Z M78.7,104.6L78.8,106.4L78.1,108.5L78.1,108.9L77.5,110.5L77.2,110.9L76.6,112.3L75.5,113.7L73.6,115.4L73.0,115.6L73.5,114.7L75.2,112.7L76.4,110.8L77.7,107.6L77.7,107.2L78.3,105.5L78.5,104.6Z M78.7,103.0L79.0,103.1L79.0,103.9L78.6,104.1L78.5,103.4Z M93.2,100.4L93.6,100.7L94.0,101.5L94.0,102.1L94.7,104.1L94.7,106.8L94.0,109.6L93.4,110.9L93.2,111.8L92.7,112.5L92.4,112.5L92.4,112.0L93.1,110.3L93.7,106.1L93.9,105.6L93.5,102.6L93.2,101.1L93.0,100.6L93.1,100.4Z M57.8,98.3L57.8,99.0L57.5,99.3L56.5,101.2L55.9,101.8L55.3,102.7L53.4,104.7L52.4,105.3L51.5,106.1L49.7,107.2L48.6,107.5L47.7,108.2L46.3,108.8L44.6,109.2L43.6,109.7L43.0,109.7L42.8,109.6L42.8,109.4L43.2,109.2L44.6,108.8L47.7,107.4L48.5,107.2L49.1,106.6L49.7,106.4L50.0,106.1L50.8,105.6L53.9,102.6L56.0,100.4L56.2,99.9L57.2,98.8L57.3,98.6L57.6,98.2Z M40.1,72.0L39.0,73.4L37.8,74.5L36.9,75.0L35.8,76.1L33.3,78.1L32.3,78.6L31.9,79.0L30.2,80.1L29.5,80.8L28.2,81.8L25.7,84.3L25.2,84.3L25.3,83.7L27.1,81.7L28.7,80.3L30.9,78.2L32.2,77.5L33.4,76.4L37.1,74.0L39.3,72.2L39.8,71.8Z M40.9,70.8L40.9,70.9L40.4,71.1L40.6,70.8Z M72.7,70.5L73.3,70.0L74.1,69.9L77.3,69.8L83.3,69.9L84.7,70.4L85.8,71.1L86.5,71.8L87.1,72.6L87.8,74.1L87.9,74.8L87.9,76.4L87.3,78.1L86.4,79.5L85.0,80.7L83.8,81.4L82.5,81.7L80.9,81.8L74.0,81.8L73.1,81.6L72.5,81.1L72.4,80.9L72.4,78.3L72.6,77.2L72.5,71.2Z M23.5,48.1L23.9,48.3L24.8,49.2L27.7,51.0L28.1,51.0L29.4,51.9L29.9,51.9L32.2,53.2L32.6,53.2L33.2,53.6L34.7,54.2L37.5,55.8L38.5,56.7L38.9,57.1L38.8,57.3L37.7,56.9L36.1,56.0L35.6,55.9L34.1,55.1L32.6,54.6L31.4,53.8L30.7,53.6L29.9,53.2L28.7,52.8L27.1,51.8L26.1,51.3L24.0,49.3L23.5,48.6Z M72.8,46.2L73.4,45.7L74.0,45.7L74.4,45.6L81.6,45.6L82.9,45.7L83.2,45.8L83.9,45.9L85.6,46.6L86.8,47.6L87.4,48.6L88.2,50.2L88.2,52.3L88.2,53.0L87.7,54.1L86.8,55.4L85.6,56.5L84.8,56.9L84.0,57.1L83.8,57.2L82.4,57.3L82.0,57.5L79.0,57.5L78.2,57.6L76.3,57.6L75.3,57.5L74.2,57.8L73.5,57.7L72.9,57.1L72.8,55.9L72.7,55.4L72.7,52.3L72.8,51.3Z M59.1,33.8L59.6,33.8L59.8,34.1L60.0,34.7L59.9,41.9L60.0,43.3L60.0,50.1L59.9,54.7L60.0,57.2L60.0,60.9L59.9,67.3L59.9,83.0L59.7,84.3L59.8,91.2L59.6,92.9L59.3,93.2L58.7,93.2L57.4,92.2L56.1,91.0L55.1,90.2L52.6,88.0L52.0,87.1L50.3,85.4L48.9,83.6L48.6,82.8L47.7,81.8L47.5,81.0L47.2,80.7L46.8,80.0L46.4,78.8L45.9,78.0L45.5,77.3L45.3,76.0L44.9,74.8L44.5,74.1L44.2,72.2L43.9,71.4L43.5,69.4L43.3,67.6L43.3,66.4L42.8,65.1L42.8,63.8L43.3,62.0L43.3,59.1L43.7,57.4L44.0,55.5L44.2,55.1L44.6,53.4L45.4,51.5L45.4,51.2L46.0,50.0L46.3,49.0L47.7,46.2L49.5,43.3L50.7,41.9L51.2,41.1L53.4,38.6L56.0,36.0L57.4,34.9Z M58.0,28.8L58.2,29.0L58.1,29.4L57.8,29.2Z M95.3,18.7L95.7,19.1L95.8,20.6L96.2,21.6L96.5,22.9L96.2,24.4L96.2,25.3L96.0,25.9L96.0,26.4L95.7,26.8L95.5,26.8L95.5,25.8L95.8,24.5L95.8,22.2L95.6,20.8L95.3,20.2L95.3,19.4L95.2,19.2Z M45.1,18.2L45.9,18.2L46.8,18.8L47.5,18.8L47.8,19.1L49.0,19.4L49.5,19.8L50.5,20.4L51.7,21.5L52.5,22.0L54.4,23.9L56.2,26.0L56.5,26.6L56.8,26.8L57.6,28.1L57.4,28.5L56.7,27.9L55.3,25.8L51.3,22.2L50.1,21.3L48.9,20.6L48.1,20.0L47.4,19.7L47.1,19.4L45.8,18.8L45.3,18.7L45.1,18.5Z M75.6,11.6L76.0,11.7L76.1,11.9L77.7,13.6L78.2,14.4L79.1,15.5L79.2,15.8L79.6,16.4L79.8,17.1L80.1,17.5L80.3,18.3L80.8,19.5L81.1,21.2L81.2,24.5L81.0,24.9L80.7,25.0L80.6,24.7L80.7,22.3L80.3,20.5L79.6,18.8L79.5,18.1L79.1,17.5L79.0,17.1L78.3,15.9L78.1,15.4L77.9,15.2L77.7,14.7L76.9,13.9L75.5,11.8Z" fill="#000" fill-rule="evenodd"/>
</svg>