<svg xmlns="http://www.w3.org/2000/svg" viewBox="0 0 128 128" width="128" height="128">
  <path d="M57.1,33.5L56.8,33.7L57.0,34.3L58.8,36.7L60.1,39.4L60.7,41.2L61.0,42.7L61.3,44.8L61.2,48.5L60.8,50.7L60.2,52.6L59.7,53.7L58.3,56.2L56.1,58.8L54.4,60.4L52.8,61.5L49.9,63.0L46.8,63.8L45.2,64.0L44.9,64.3L44.9,64.6L47.8,65.2L49.1,65.7L49.9,65.9L51.8,66.8L54.1,68.2L57.4,71.6L58.8,73.6L60.1,76.6L60.3,77.6L60.7,78.7L61.0,80.6L61.1,83.1L60.9,85.4L60.5,87.4L59.8,89.7L59.0,91.3L58.1,92.8L56.8,94.4L56.8,94.9L62.0,95.1L87.2,95.1L96.2,94.8L98.1,94.6L100.4,93.9L101.6,93.3L103.3,92.1L104.5,90.9L105.8,89.2L107.0,87.0L107.2,86.1L107.5,85.3L107.8,83.2L107.9,81.7L107.7,79.2L107.0,76.4L106.8,76.0L106.6,75.3L105.2,72.5L103.4,70.0L101.4,68.0L100.3,67.1L98.1,65.8L97.7,65.7L96.4,65.0L95.2,64.6L94.9,64.3L94.9,64.1L95.0,64.0L97.8,62.9L100.1,61.4L101.2,60.5L103.1,58.7L104.2,57.3L105.2,55.7L106.6,52.7L106.8,51.6L107.0,51.4L107.5,49.0L107.5,48.4L107.7,48.0L107.7,43.9L107.4,42.5L106.7,40.3L105.0,37.6L103.8,36.3L102.0,35.0L100.2,34.2L97.9,33.7L90.4,33.5Z M78.5,40.9L85.8,40.9L86.8,41.1L88.6,42.1L89.2,42.9L90.2,44.4L90.4,45.4L90.5,46.8L90.2,49.7L89.1,53.2L88.1,55.2L87.2,56.4L85.4,58.6L83.5,60.4L81.8,61.5L80.8,61.9L80.4,62.3L77.6,63.4L76.4,63.5L75.4,63.9L74.3,63.9L73.6,64.3L73.6,64.5L73.8,64.6L76.4,64.9L79.5,65.9L82.3,67.4L83.9,68.6L85.7,70.3L86.8,71.6L88.3,74.0L89.3,76.4L90.0,78.7L90.3,80.2L90.2,82.4L89.8,83.9L88.7,85.6L87.2,86.8L85.2,87.5L79.7,87.6L77.8,87.5L77.4,87.2L77.4,86.6L77.9,84.4L77.9,81.4L77.6,78.9L77.3,77.5L76.9,76.8L76.8,75.8L75.8,73.6L75.2,72.8L74.8,72.0L74.6,71.8L74.5,71.5L73.2,69.8L71.5,68.2L69.4,66.6L68.1,65.8L67.1,65.3L65.0,64.5L64.5,64.1L64.9,63.8L66.8,63.1L69.9,61.4L70.6,60.8L71.4,60.3L74.0,57.5L75.5,55.2L76.8,52.6L77.4,50.4L77.9,46.9L78.0,41.4Z M11.8,35.1L10.8,37.2L10.1,39.4L9.4,42.3L9.2,44.1L9.3,47.2L10.1,51.2L10.6,52.8L11.3,54.2L11.4,54.8L12.9,57.4L13.3,57.8L15.0,60.3L17.4,62.6L18.1,63.1L18.7,63.7L18.7,64.0L18.1,64.9L17.6,65.1L15.4,67.1L13.9,68.9L12.3,71.2L10.9,74.0L10.8,74.8L10.0,76.8L9.9,77.6L9.5,79.2L9.4,80.8L9.4,83.2L9.6,85.2L10.0,87.2L10.2,87.5L10.8,89.7L11.1,90.3L11.1,90.7L12.0,92.3L13.1,94.1L13.4,94.7L15.6,97.5L17.1,98.9L19.4,100.6L23.1,102.5L25.3,103.2L25.4,103.3L28.3,103.9L31.8,104.2L39.9,104.5L58.8,104.6L65.7,104.7L85.8,104.7L92.4,104.6L98.5,104.7L99.0,104.5L100.9,104.4L101.9,104.1L103.3,103.8L105.5,103.1L106.2,102.6L106.7,102.6L109.1,101.1L110.9,99.7L112.4,98.3L114.0,96.5L115.6,94.1L117.3,90.6L117.5,89.7L117.8,88.9L117.9,88.2L118.3,87.0L118.3,86.3L118.7,83.8L118.6,79.8L118.2,77.2L117.2,73.8L115.9,70.7L114.6,68.7L113.2,67.1L113.1,66.8L111.1,64.8L110.3,64.1L110.2,63.8L113.2,60.9L114.6,59.1L116.4,56.3L117.7,53.2L117.9,52.2L118.5,50.6L119.0,47.0L119.1,44.4L118.8,42.7L118.8,41.8L118.3,39.1L117.3,36.1L116.4,34.1L114.9,31.7L113.3,29.8L111.8,28.3L109.4,26.5L108.8,26.3L107.8,25.5L106.3,24.9L105.7,24.6L104.2,24.1L101.8,23.7L97.5,23.6L94.9,23.8L86.4,23.8L80.9,23.6L37.7,23.8L30.9,23.5L28.4,23.7L27.1,24.0L26.2,24.1L23.8,24.9L23.2,25.0L20.2,26.4L18.4,27.6L16.1,29.5L15.0,30.5L12.8,33.5Z M28.0,64.9L32.1,64.6L34.9,65.0L38.6,66.3L41.3,67.8L43.7,69.7L44.6,70.7L46.0,72.5L47.8,75.9L48.7,78.9L49.0,80.5L49.0,83.7L48.6,86.2L48.0,88.7L47.0,90.8L46.3,91.9L44.5,94.2L42.4,96.2L38.8,98.4L36.0,99.3L32.6,99.8L28.8,99.6L27.5,99.4L24.3,98.4L21.7,97.0L20.1,95.9L17.5,93.3L16.5,91.8L16.1,91.3L14.5,88.2L14.0,86.2L13.5,83.8L13.5,80.1L14.1,77.2L15.2,74.4L15.5,74.2L15.6,73.6L16.3,72.5L18.2,70.1L19.8,68.6L21.2,67.6L24.3,66.0L26.5,65.2Z M45.3,27.7L100.1,27.6L101.5,27.8L103.5,28.3L105.0,29.0L105.7,29.1L107.5,30.2L107.8,30.5L109.5,31.8L110.3,32.6L111.5,34.1L113.1,36.7L114.3,39.5L114.6,41.3L115.0,42.3L115.1,43.9L115.0,47.7L114.5,50.6L113.8,52.5L112.6,55.1L111.9,56.4L110.3,58.4L108.5,60.1L105.7,61.9L104.9,62.2L104.3,62.5L103.4,62.9L101.7,63.2L101.5,63.4L98.7,63.7L98.4,64.0L98.4,64.2L98.5,64.4L101.8,64.7L103.5,65.0L104.4,65.4L106.1,66.3L106.5,66.4L109.2,68.2L110.0,69.0L111.9,71.2L112.9,72.6L113.7,74.3L114.3,75.9L115.0,78.3L115.4,81.3L115.3,83.6L114.9,86.7L114.4,88.6L113.0,91.8L111.3,94.2L109.1,96.5L107.3,97.6L107.2,97.9L104.8,99.0L102.8,99.8L100.6,100.2L85.1,100.5L55.2,100.5L45.4,100.2L45.0,100.1L44.9,100.0L44.9,99.6L47.1,97.5L48.6,95.6L50.3,92.9L51.6,90.4L52.6,87.0L53.0,83.8L53.0,80.5L52.7,79.7L52.7,78.3L52.2,77.3L52.1,76.4L51.6,74.8L50.7,72.9L50.7,72.7L50.4,72.2L49.8,71.0L48.1,68.6L45.7,66.0L44.9,65.5L43.9,64.4L43.9,63.9L45.4,62.6L48.3,59.7L49.9,57.5L51.7,53.7L52.5,51.2L52.7,49.7L52.9,49.4L53.2,46.8L53.2,44.5L53.0,42.5L51.6,37.4L49.8,33.8L48.5,32.1L48.4,31.6L47.0,30.1L45.1,28.4L45.0,27.9Z M32.3,27.6L34.8,27.9L35.4,28.2L37.0,28.5L38.3,29.0L40.6,30.2L42.4,31.5L44.2,33.1L45.4,34.6L46.3,35.7L48.0,39.1L48.9,42.7L49.1,46.0L48.5,50.0L48.1,50.7L48.0,51.6L46.8,54.0L45.9,55.4L44.8,56.8L42.5,59.0L41.3,60.0L39.8,60.8L39.6,61.0L36.4,62.3L33.3,62.9L29.2,62.9L27.9,62.7L25.6,62.1L24.3,61.6L22.4,60.7L20.9,59.8L19.5,58.7L18.2,57.5L17.2,56.3L16.5,55.2L16.3,54.7L15.6,54.0L14.3,51.1L14.0,50.1L13.5,47.4L13.5,43.5L14.0,40.7L15.4,37.2L16.5,35.3L17.6,34.0L19.4,32.1L21.2,30.7L22.5,30.0L26.0,28.4L28.6,27.8Z" fill="#000" fill-rule="evenodd"/>
</svg>