<svg xmlns="http://www.w3.org/2000/svg" viewBox="0 0 128 128" width="128" height="128">
  <path d="M46.0,68.0L45.7,68.3L45.6,70.2L45.9,71.3L47.3,72.3L48.4,72.9L48.8,72.9L49.0,72.7L48.9,69.6L48.4,69.0L47.2,68.5L46.7,68.1Z M41.5,67.7L40.8,67.9L39.0,69.0L38.8,69.3L38.8,72.8L39.4,72.8L41.3,71.6L41.9,70.8L41.9,68.4L41.8,68.1Z M34.2,63.8L34.3,64.2L34.9,64.9L36.3,65.6L36.9,65.6L37.7,65.2L39.0,64.4L39.3,64.0L38.0,63.1L36.7,62.5L36.3,62.5L34.6,63.3Z M53.7,63.8L52.4,62.7L51.4,62.2L50.8,62.2L48.6,63.6L48.1,64.2L49.9,65.8L50.8,65.9L51.6,65.5L52.6,64.6L53.0,64.4Z M49.1,55.1L48.6,55.1L46.4,56.4L46.0,56.7L45.8,57.6L45.8,59.8L46.0,60.1L46.5,60.2L47.1,59.9L47.3,59.7L48.7,59.0L49.3,58.4Z M38.8,55.1L38.6,58.9L39.1,59.4L39.5,59.7L39.9,59.8L41.0,60.4L41.7,60.4L41.9,60.1L41.9,56.8L41.7,56.4L41.2,56.0L40.5,55.7L39.7,55.1Z M10.5,29.9L10.4,30.4L10.4,53.8L10.0,69.8L10.1,72.7L10.0,77.1L10.0,89.0L9.8,97.2L9.3,97.9L9.3,98.6L9.9,98.8L13.0,98.9L37.8,98.9L44.7,98.7L50.7,98.9L64.2,98.8L67.1,98.9L91.3,98.9L97.3,98.6L99.7,98.7L100.2,98.5L101.9,98.5L105.6,97.6L106.3,97.2L106.7,97.1L108.0,96.4L109.8,95.2L110.7,94.8L112.4,93.5L114.6,91.1L116.6,88.1L117.9,85.2L118.0,84.6L118.3,83.8L118.4,83.0L118.8,82.1L119.0,79.4L118.9,75.5L118.6,74.8L118.5,73.8L117.9,72.1L117.7,71.2L116.7,69.4L116.4,68.8L116.2,68.6L115.2,66.7L114.2,65.1L113.5,64.2L113.4,63.6L115.7,60.8L116.2,59.9L116.5,59.5L116.7,59.0L117.5,57.7L118.2,55.6L118.5,54.2L118.6,54.0L118.7,52.9L119.0,51.4L119.1,48.7L118.9,46.9L118.5,44.7L117.8,42.6L116.3,39.5L115.4,38.2L114.1,36.8L113.8,36.1L113.4,35.7L112.5,35.1L110.9,33.8L110.2,33.4L109.3,32.6L108.7,32.4L108.4,32.1L105.0,30.6L103.6,30.2L100.4,30.0L98.5,29.8L97.2,29.9L89.3,29.7L72.6,29.7L72.1,29.5L71.8,29.5L71.4,29.7L29.3,29.6L12.8,29.8L12.0,29.6L11.6,29.3L11.0,29.4Z M77.8,70.1L78.3,69.6L79.3,69.5L90.7,69.5L100.1,69.7L102.0,70.0L102.9,70.3L103.9,70.8L105.9,72.6L106.5,73.3L107.6,75.3L108.2,77.8L108.1,79.9L107.8,81.2L106.7,83.5L105.7,84.6L104.4,85.7L102.6,86.6L100.7,87.2L87.3,87.2L84.3,87.0L78.5,87.1L77.6,86.8L77.4,84.2Z M43.0,40.9L45.2,40.9L45.6,41.1L45.9,41.4L45.9,43.1L46.2,43.4L47.0,43.2L47.4,42.9L48.1,42.6L49.6,41.7L50.3,41.7L51.2,42.0L53.2,42.8L53.5,43.0L53.5,43.4L53.2,43.7L52.8,43.8L52.0,44.5L49.1,46.3L47.6,47.0L46.9,47.5L46.2,48.2L45.9,49.3L46.0,52.1L46.4,52.2L47.8,51.5L48.6,50.8L49.7,50.3L52.1,48.8L52.8,48.8L53.0,49.1L53.1,50.1L53.0,56.0L53.3,56.2L53.8,56.2L54.7,55.5L55.1,55.5L55.4,55.1L56.3,54.7L56.7,54.1L56.8,46.3L56.8,45.9L57.1,45.6L57.5,45.6L58.0,46.0L59.7,47.0L60.3,47.5L60.4,51.6L60.6,51.8L61.2,51.8L62.2,51.1L62.8,51.0L63.3,51.4L64.2,52.9L64.5,53.8L64.5,54.1L64.0,54.7L63.7,54.7L62.9,55.4L62.9,56.0L64.2,56.8L65.0,57.2L66.1,58.1L66.6,60.7L66.5,61.6L66.2,61.8L65.6,61.7L60.8,59.0L59.9,58.3L58.8,57.8L58.1,57.8L57.3,58.5L56.6,58.7L55.2,59.7L55.2,60.0L56.2,60.8L57.7,61.5L58.0,61.8L60.3,63.1L60.8,63.3L61.2,63.8L61.2,64.0L61.1,64.3L60.4,64.9L57.2,66.8L56.7,67.3L56.3,67.3L55.3,68.2L55.3,68.5L56.4,69.4L57.0,69.6L57.7,70.1L58.2,70.2L59.1,69.9L61.6,68.3L63.8,67.2L64.8,66.4L65.2,66.4L66.4,65.7L66.8,65.6L67.1,66.0L66.8,68.7L66.4,69.7L65.5,70.3L64.5,70.9L64.1,71.3L63.1,71.8L62.5,72.4L62.5,72.7L63.8,73.6L64.2,73.7L64.5,73.9L64.5,74.3L63.6,75.9L63.5,76.5L62.8,77.2L62.3,77.1L61.8,76.7L61.4,76.6L61.0,76.3L60.7,76.3L60.3,76.5L60.1,77.8L60.0,80.4L59.9,80.7L58.6,82.0L57.3,82.9L56.7,83.1L56.4,82.8L56.0,73.7L55.6,73.3L55.1,73.0L53.8,72.1L53.1,72.1L52.9,72.5L52.8,78.1L52.7,78.7L52.3,79.1L51.9,79.1L50.9,78.7L46.5,76.1L46.0,76.1L45.6,76.4L45.6,77.0L45.6,79.6L46.2,80.3L46.9,80.5L48.4,81.6L48.9,81.7L49.8,82.4L52.5,83.8L52.9,84.2L53.4,84.3L53.6,84.6L53.6,84.8L52.5,85.6L52.0,85.7L50.6,86.4L50.2,86.4L48.6,85.6L46.4,84.3L45.8,84.2L45.5,84.5L45.5,86.7L45.1,87.1L44.8,87.2L41.8,87.0L41.7,86.8L41.6,84.8L41.2,84.2L40.7,84.3L39.1,85.1L37.8,86.0L37.3,86.2L36.4,86.2L36.0,86.0L33.8,85.0L33.6,84.7L33.6,84.4L34.1,84.0L36.1,83.0L37.3,82.2L38.1,81.9L39.9,80.7L41.2,80.1L41.7,79.6L41.8,78.9L41.8,76.4L41.5,76.0L40.7,76.3L36.2,79.0L35.5,79.3L35.1,79.0L34.8,76.6L34.7,72.3L34.5,71.9L34.2,71.9L33.7,72.1L32.5,72.9L31.1,73.7L30.8,74.1L30.9,82.2L30.7,82.5L30.3,82.5L28.2,81.2L27.6,80.6L27.4,77.2L27.8,76.6L27.8,76.1L27.7,75.9L26.9,75.9L25.2,76.8L24.8,76.8L24.4,76.4L23.2,74.2L23.2,73.8L25.0,72.5L25.0,72.0L24.5,71.6L21.6,69.9L21.3,69.6L21.2,69.3L21.1,66.4L21.4,65.9L22.1,66.0L23.0,66.4L23.3,66.7L25.6,67.8L26.3,68.4L29.2,70.0L29.9,69.9L30.9,69.2L32.1,68.7L32.5,68.4L32.4,67.9L31.9,67.4L31.3,67.2L29.8,66.1L28.3,65.4L26.9,64.2L26.9,63.8L27.3,63.4L28.0,63.2L32.5,60.5L32.5,60.0L31.0,59.3L30.4,58.8L29.5,58.3L28.8,58.4L25.5,60.3L24.7,60.5L23.4,61.3L22.9,61.5L22.6,61.7L21.3,62.3L21.2,61.6L21.3,61.3L21.3,60.8L21.6,60.3L21.6,59.7L21.9,58.5L22.9,57.5L24.7,56.4L25.2,56.0L25.2,55.6L23.6,54.7L23.3,54.3L23.3,54.0L24.6,51.7L24.9,51.5L25.6,51.6L27.1,52.4L27.6,52.4L27.8,52.1L28.0,51.1L27.9,49.8L28.2,48.6L28.2,47.1L28.6,46.5L30.5,45.2L31.0,45.1L31.2,45.6L31.2,46.8L31.4,54.4L31.8,55.0L33.0,55.8L34.4,56.5L34.8,56.5L35.1,56.2L35.2,55.1L35.1,49.9L35.3,49.2L35.6,49.0L36.0,49.0L40.8,51.6L41.7,51.9L42.0,51.5L42.0,47.9L41.2,47.2L40.2,46.7L37.9,45.2L36.6,44.6L35.2,43.7L34.9,43.6L34.7,43.4L34.7,43.0L34.9,42.8L37.0,41.8L38.1,41.7L41.2,43.4L41.8,43.4L42.1,43.1L42.3,42.4L42.3,41.6L42.7,41.0Z M107.6,46.5L108.1,48.2L108.1,50.4L107.8,52.1L107.0,54.1L106.0,55.5L105.0,56.4L103.0,57.7L101.2,58.3L99.6,58.6L82.0,58.6L78.6,58.5L78.2,58.1L78.2,57.1L78.1,56.4L78.3,43.5L78.5,42.5L78.5,41.2L78.6,41.1L79.1,40.9L94.2,40.9L95.5,40.8L100.9,40.9L102.0,41.2L102.4,41.4L102.9,41.6L104.6,42.6L106.3,44.3L107.1,45.4Z M54.0,36.4L54.4,36.5L54.7,36.9L54.7,37.3L54.2,37.6L54.0,37.6L53.7,37.2L53.7,36.8Z" fill="#000" fill-rule="evenodd"/>
</svg>