<svg xmlns="http://www.w3.org/2000/svg" viewBox="0 0 128 128" width="128" height="128">
  <path d="M39.0,63.4L37.8,65.8L37.5,67.1L37.3,68.5L37.5,70.8L38.6,73.8L40.1,75.9L41.4,77.4L41.4,77.8L40.9,78.6L39.8,79.8L38.4,82.0L38.2,82.9L37.5,84.4L37.5,88.4L38.3,91.0L39.3,92.7L41.3,94.6L43.3,95.9L45.9,96.8L48.6,97.3L68.3,97.3L68.7,97.2L69.2,96.7L69.2,90.8L69.3,90.4L69.3,89.9L69.2,89.5L69.2,73.7L69.0,68.6L69.2,68.0L69.6,67.6L78.7,67.6L79.6,67.8L80.9,68.6L81.6,69.4L81.9,70.2L81.9,71.1L81.6,72.1L80.9,72.8L80.8,73.1L80.0,73.8L79.0,74.0L72.1,74.1L71.4,74.7L71.3,76.4L71.3,78.9L71.4,79.5L71.4,80.4L71.9,81.0L72.2,81.1L78.2,81.1L79.2,81.2L80.3,82.2L80.9,82.4L81.2,82.7L81.7,83.8L81.7,84.9L81.5,85.6L80.3,86.9L79.5,87.3L78.5,87.5L76.3,87.6L73.2,87.5L72.2,87.4L71.6,87.7L71.2,88.5L71.4,91.2L71.3,92.3L71.4,96.8L72.0,97.3L73.7,97.2L79.4,97.3L81.3,97.2L83.2,96.8L84.4,96.4L86.0,95.5L87.5,94.3L88.8,92.8L89.4,91.5L89.9,90.9L90.4,89.2L90.7,87.2L90.7,84.1L90.1,82.8L89.7,82.3L88.8,80.4L87.2,78.8L86.5,78.2L86.4,77.6L86.9,77.0L88.3,75.7L89.8,73.4L90.3,71.9L90.4,71.1L90.6,70.8L90.8,69.5L90.7,66.7L89.8,64.3L88.7,62.6L86.7,60.6L85.0,59.5L84.5,59.2L84.1,59.2L83.3,58.8L82.5,58.6L82.1,58.4L80.6,58.2L60.2,58.2L59.7,58.6L59.3,59.1L59.2,59.9L59.2,66.0L59.3,67.5L59.3,86.3L59.0,86.9L58.6,87.4L57.8,87.6L56.1,87.5L54.3,87.7L50.1,87.6L48.9,87.4L47.9,87.1L47.0,86.2L46.5,85.3L46.4,84.9L46.5,83.3L47.7,81.8L48.9,81.1L50.3,80.9L56.6,81.0L57.0,80.6L57.0,74.7L56.6,74.1L54.8,73.9L52.5,74.0L48.8,73.9L47.6,73.2L47.1,72.8L46.5,72.0L46.3,71.5L46.3,70.2L46.7,69.1L47.6,68.2L48.0,68.0L50.0,67.5L56.1,67.5L56.8,67.2L57.1,66.9L57.1,59.5L56.9,58.6L56.6,58.3L56.1,58.2L48.5,58.1L47.6,58.3L45.3,58.6L43.5,59.1L42.3,59.9L40.4,61.7Z M53.4,51.9L53.7,52.1L54.4,52.3L55.4,52.4L56.1,52.7L56.7,52.7L57.8,53.1L58.5,53.1L59.3,53.3L65.8,53.5L66.3,53.3L69.3,53.2L70.1,52.9L71.0,52.9L72.5,52.6L74.6,52.0L74.8,51.9L74.9,51.4L74.7,51.3L72.5,50.8L71.4,50.4L69.5,50.1L65.6,49.7L62.1,49.7L58.1,50.1L57.3,50.3L54.3,50.8L53.4,51.3Z M45.4,27.8L45.3,28.5L45.7,30.2L46.7,33.0L46.9,33.9L47.6,35.6L47.7,36.7L48.1,37.6L48.3,38.4L48.6,38.9L49.0,40.4L49.3,40.8L49.7,42.7L50.5,44.9L50.7,45.7L51.0,46.4L51.6,48.5L52.1,49.1L53.0,49.2L53.9,48.9L55.2,48.7L57.0,48.2L58.1,48.2L61.6,47.7L65.6,47.6L66.6,47.8L67.7,47.8L68.6,47.8L68.9,48.0L71.4,48.2L72.1,48.4L73.8,48.7L75.4,49.3L76.3,49.3L76.8,48.8L77.4,46.5L78.2,44.7L78.8,42.4L79.4,41.1L79.7,39.7L80.0,39.3L80.2,38.4L81.2,35.8L82.5,31.3L83.1,29.9L83.3,28.7L83.3,28.3L83.1,27.9L82.3,27.6L80.1,27.6L79.5,27.8L78.0,28.5L76.6,29.8L75.8,30.8L75.0,33.0L74.8,34.0L74.3,35.2L74.0,37.4L72.8,42.0L72.3,42.6L71.7,42.9L71.3,42.9L70.2,42.6L69.6,42.0L69.8,39.9L70.0,39.3L70.0,38.3L70.3,36.7L70.4,34.4L70.5,33.9L70.7,32.1L70.6,30.0L70.1,28.1L69.2,27.0L68.1,25.9L67.4,25.5L66.6,25.3L65.8,24.9L65.1,24.8L63.4,24.9L62.3,25.0L61.6,25.3L59.3,27.1L58.2,28.9L57.8,29.9L57.8,33.2L57.9,33.9L57.9,35.0L58.1,35.5L58.4,39.3L58.6,40.2L58.7,41.5L58.5,42.0L58.1,42.4L56.8,42.9L56.1,42.9L55.7,42.4L55.2,41.1L55.2,40.4L54.3,36.7L54.2,35.7L53.9,35.0L53.8,33.8L53.0,31.3L52.3,30.1L50.7,28.6L49.2,27.7L47.4,27.4L46.2,27.4L45.7,27.6Z M47.6,30.1L48.0,29.6L48.7,29.6L49.3,29.8L51.1,31.7L51.5,32.5L52.1,34.7L53.0,39.2L53.4,40.2L53.6,41.8L54.3,44.5L54.9,44.9L55.7,44.9L57.0,44.6L58.2,44.6L59.2,44.4L59.9,44.2L60.6,43.7L60.6,41.1L60.4,40.8L60.4,40.2L60.1,38.3L60.1,37.1L59.9,35.8L59.7,35.4L59.5,30.9L60.0,29.3L60.8,28.0L61.6,27.3L62.6,26.8L63.8,26.6L65.6,26.7L67.5,28.0L68.5,29.3L68.8,30.6L68.8,31.8L68.3,37.6L68.1,38.3L68.1,39.3L67.8,40.2L67.8,42.5L67.7,43.5L67.9,44.0L68.8,44.3L71.0,44.5L72.9,45.0L73.3,45.0L73.9,44.7L74.2,44.2L74.4,43.3L74.6,42.8L74.8,41.5L75.3,39.9L75.8,37.3L76.0,36.8L76.2,35.6L76.7,34.2L76.8,33.4L76.9,33.2L77.2,32.1L77.9,31.1L79.1,30.1L80.5,29.8L80.8,30.0L80.8,30.7L77.2,42.2L76.1,44.9L76.0,45.6L75.7,46.2L75.7,46.5L75.3,47.0L75.0,47.2L74.2,47.2L72.4,46.7L70.6,46.5L68.7,46.1L66.6,45.9L64.1,45.8L59.1,46.0L58.1,46.3L57.5,46.3L56.3,46.7L54.8,46.8L53.5,47.1L53.1,47.0L52.9,46.8L52.0,44.6L51.8,43.8L51.1,41.8L50.7,40.1L50.2,38.5L50.1,37.9L49.5,36.6L49.1,34.8L48.6,33.7L48.6,33.4L47.7,30.7Z M60.8,9.2L57.1,9.6L53.8,10.3L52.4,10.5L49.6,11.4L47.6,12.0L46.2,12.7L44.4,13.7L43.8,13.9L38.9,16.9L38.1,17.8L35.5,20.0L33.1,22.4L32.5,23.2L31.1,24.7L30.5,25.9L28.3,29.3L27.6,30.7L26.3,32.9L26.0,33.9L25.6,34.8L25.5,35.2L24.7,36.9L24.2,38.5L23.8,39.2L23.8,39.8L22.9,42.2L22.7,43.8L22.0,45.9L21.9,47.3L21.6,47.8L21.5,49.5L21.1,51.5L21.1,52.8L20.7,54.6L20.7,56.5L20.5,58.9L20.5,68.5L20.6,69.3L20.6,70.8L20.8,71.7L21.1,77.5L21.4,78.2L21.5,79.5L22.0,81.7L22.0,83.3L22.6,85.6L22.9,87.1L23.3,89.1L23.6,89.6L23.7,90.3L24.1,91.2L24.2,92.3L24.6,93.0L24.7,93.8L25.1,94.8L25.5,95.2L25.6,95.7L26.5,97.5L27.0,99.0L28.2,100.6L28.7,101.6L28.8,102.0L30.0,103.7L31.0,104.9L32.1,106.3L35.0,109.4L36.8,110.9L41.2,113.9L43.1,114.8L44.4,115.3L45.3,115.8L48.9,117.0L51.8,117.6L52.9,117.9L53.7,117.9L54.3,118.2L56.0,118.4L56.2,118.6L58.1,118.7L59.9,119.1L64.7,119.1L66.2,119.0L67.6,118.8L69.2,118.8L71.7,118.4L72.6,118.2L73.2,118.2L74.4,117.8L75.5,117.6L76.0,117.4L80.0,116.4L81.5,115.7L83.0,115.2L83.6,114.8L85.2,114.2L85.8,113.8L86.3,113.7L87.4,113.0L88.2,112.6L89.8,111.3L91.0,110.6L92.8,109.0L95.2,106.6L98.1,103.0L99.9,100.3L100.4,99.0L100.7,98.6L102.6,94.6L103.1,92.8L104.2,90.2L104.7,87.9L104.9,87.4L105.1,86.2L105.6,84.7L105.9,82.4L106.0,82.0L106.0,81.3L106.2,80.9L106.3,79.5L106.5,79.3L106.8,77.8L107.2,74.4L107.2,73.4L107.4,73.0L107.4,71.4L107.5,70.7L107.7,67.2L107.8,59.5L107.6,56.1L107.3,54.2L107.2,51.5L106.8,49.9L106.6,48.3L106.2,46.4L106.2,45.7L105.9,45.0L105.5,42.6L105.1,41.5L105.1,40.9L104.7,39.9L104.4,38.5L103.9,37.4L103.7,36.1L102.7,34.2L102.2,32.6L99.7,28.0L96.3,23.3L94.2,21.3L93.7,20.6L89.4,16.9L87.2,15.4L87.0,15.4L86.2,14.9L85.8,14.8L85.2,14.3L81.6,12.6L80.5,12.3L80.0,12.0L77.0,11.1L74.1,10.5L73.7,10.2L71.7,10.0L70.1,9.6L67.8,9.5L65.9,9.2Z M60.4,10.1L65.1,10.1L65.8,10.3L67.9,10.3L68.7,10.5L69.6,10.5L73.8,11.2L77.3,12.1L78.5,12.7L79.2,12.8L80.8,13.5L81.6,13.7L82.1,14.0L83.9,14.6L84.3,15.0L86.4,16.0L89.1,17.8L92.8,21.2L94.6,23.1L95.1,24.0L96.3,25.6L97.2,27.1L97.4,27.6L97.9,28.3L98.4,29.6L99.8,32.5L100.1,33.5L100.5,34.3L100.6,35.2L101.5,37.1L101.8,38.4L101.8,38.9L102.7,42.0L102.7,42.6L103.2,44.5L103.3,46.0L103.4,46.5L103.5,47.8L103.7,48.2L103.8,50.0L104.1,50.9L104.2,53.2L104.5,55.3L104.7,57.9L104.5,59.3L104.7,63.4L104.6,67.2L104.4,68.1L104.4,70.9L104.2,73.4L104.0,74.7L103.9,76.9L103.7,77.9L103.7,78.7L103.4,80.1L103.1,81.0L102.8,83.8L102.0,86.9L102.0,87.9L101.5,89.1L101.5,89.8L101.1,91.0L100.9,91.9L100.3,93.5L99.7,94.9L99.5,95.6L99.2,96.1L99.0,96.8L98.2,98.6L97.6,99.5L97.1,100.8L95.7,103.3L93.0,106.7L90.0,109.6L87.3,111.6L84.5,113.4L83.6,113.7L82.0,114.5L81.7,114.5L78.8,115.8L77.8,116.0L75.9,116.6L74.1,117.0L73.7,117.0L72.0,117.5L70.7,117.6L70.3,117.8L68.3,117.9L67.7,118.0L66.5,118.0L65.8,118.2L65.2,118.1L61.2,118.3L57.7,118.0L53.7,117.4L53.0,117.1L50.2,116.6L49.5,116.2L48.9,116.1L47.6,115.7L47.3,115.4L46.6,115.2L44.5,114.1L44.0,114.0L43.2,113.4L42.3,113.0L41.4,112.2L41.1,112.1L39.5,111.0L37.0,108.9L35.6,107.5L34.2,105.8L33.8,105.2L32.8,104.2L32.1,102.9L31.5,102.2L31.3,101.6L30.1,99.5L29.9,99.0L29.5,98.4L28.7,96.2L28.3,95.5L28.1,94.7L27.9,94.6L27.8,93.7L27.3,92.6L27.2,91.8L26.9,91.1L26.7,90.2L26.4,89.5L26.4,89.1L26.0,88.2L25.8,86.5L25.2,84.2L25.1,82.2L24.7,80.3L24.7,79.1L24.3,77.7L24.2,75.2L23.9,73.4L24.0,72.7L23.8,71.6L23.8,68.0L23.6,66.0L23.6,60.5L23.8,55.1L24.0,53.4L24.2,50.6L25.1,44.2L25.5,43.2L25.7,41.5L26.4,39.9L26.5,38.6L26.9,37.3L27.3,36.8L27.8,34.8L28.7,33.1L29.0,31.9L30.3,29.3L31.4,27.8L31.9,26.4L35.1,22.1L38.0,19.2L39.4,18.2L40.7,17.0L41.5,16.6L42.2,15.9L42.8,15.7L43.1,15.5L45.4,14.3L46.1,13.8L47.5,13.4L49.1,12.6L49.6,12.5L51.5,11.8L53.0,11.6L54.3,11.0L55.2,10.8Z" fill="#000" fill-rule="evenodd"/>
</svg>