<svg xmlns="http://www.w3.org/2000/svg" viewBox="0 0 128 128" width="128" height="128">
  <path d="M40.8,23.2L40.8,23.3L41.1,23.6L44.8,23.8L45.5,24.0L47.5,24.0L50.2,24.4L51.9,24.5L52.8,24.8L55.0,25.0L58.1,25.8L63.0,27.4L66.7,29.3L68.4,30.5L68.8,30.7L70.0,31.6L72.8,34.3L75.5,38.3L76.6,40.4L76.9,41.5L77.9,45.6L78.0,49.2L77.8,51.0L76.9,53.7L76.2,55.2L75.2,56.4L74.5,57.2L72.6,58.6L70.6,59.5L67.7,60.1L64.6,60.1L63.4,59.9L60.9,59.2L59.0,58.5L55.9,56.9L53.3,55.0L49.2,51.2L47.5,49.2L47.3,48.8L46.8,48.3L46.6,47.9L45.5,46.4L45.3,45.9L44.9,45.5L44.1,44.0L43.1,42.6L41.7,39.1L41.2,37.3L40.9,35.5L40.3,35.4L40.2,35.6L40.1,36.1L40.2,55.6L40.4,57.0L40.6,59.7L41.8,63.2L43.0,65.4L44.4,66.9L44.7,67.3L45.2,67.6L46.6,68.8L48.5,69.7L50.0,70.2L52.5,70.6L56.5,70.7L64.4,70.4L66.8,70.4L68.7,70.6L71.7,71.4L74.4,73.0L76.3,75.0L77.1,76.2L78.0,78.4L78.7,81.8L78.7,85.2L78.2,88.2L77.7,89.8L77.4,90.4L77.3,91.0L76.3,92.7L74.9,94.6L72.5,97.1L69.9,99.1L68.1,100.2L65.5,101.3L63.0,102.3L62.2,102.4L60.7,102.9L58.4,103.4L57.9,103.4L56.3,103.8L47.3,104.7L42.3,104.9L40.5,105.3L40.5,105.6L40.9,105.8L76.3,105.7L78.1,105.4L82.0,105.3L85.7,104.7L89.0,103.7L92.8,101.9L94.9,100.5L96.8,98.6L98.3,96.8L100.1,94.0L101.1,91.4L101.9,88.6L102.0,86.7L102.0,84.2L101.9,82.3L101.1,79.5L100.0,77.1L99.1,75.7L97.3,73.7L95.8,72.3L93.4,70.7L91.6,69.9L91.6,69.5L91.8,69.3L93.5,69.0L94.9,69.0L100.2,68.6L102.5,68.6L103.6,68.8L104.4,68.7L107.2,68.9L109.8,69.4L110.3,69.7L111.0,69.8L112.8,70.4L113.2,70.6L113.6,70.7L115.6,71.7L117.2,72.8L118.3,73.9L118.9,73.9L119.0,73.7L119.0,72.5L118.2,69.6L116.7,66.7L115.4,65.2L114.2,64.1L112.2,62.6L110.6,61.9L107.5,60.9L106.5,60.9L104.7,60.4L103.0,60.4L101.6,60.2L97.8,60.1L92.1,60.3L91.6,60.1L91.6,59.9L92.0,59.6L92.6,59.3L94.4,57.9L95.8,56.4L96.5,55.4L96.9,55.1L98.5,52.3L99.5,49.1L99.9,45.6L99.9,43.5L99.7,41.6L99.0,38.1L98.3,36.4L97.2,34.3L94.5,30.8L93.3,29.6L90.3,27.4L86.4,25.5L85.4,25.3L84.9,25.0L83.7,24.8L82.8,24.4L81.5,24.3L81.3,24.1L76.2,23.5L70.4,23.2L41.2,23.0Z M109.0,63.7L109.6,63.7L110.0,63.8L110.6,64.4L110.7,65.5L110.2,66.3L109.6,66.6L108.5,66.4L107.8,65.6L107.8,64.8L108.0,64.4L108.5,63.9Z M9.9,22.6L9.6,22.8L9.4,23.5L9.6,31.8L9.6,54.8L9.4,68.2L9.5,94.5L9.3,95.4L9.4,105.0L9.5,105.3L10.1,105.7L12.2,105.8L36.8,105.7L37.0,105.6L37.5,104.8L37.5,83.0L37.7,62.2L37.6,54.9L37.9,41.5L37.7,27.5L37.5,23.3L37.2,22.9L36.4,22.7L34.3,22.7L31.1,22.6L27.3,22.7L15.3,22.5Z" fill="#000" fill-rule="evenodd"/>
</svg>