<svg xmlns="http://www.w3.org/2000/svg" viewBox="0 0 128 128" width="128" height="128">
  <path d="M58.2,9.4L52.1,10.4L51.5,10.6L50.4,10.8L49.3,11.2L47.9,11.5L46.8,12.0L44.7,12.6L42.9,13.3L40.9,14.3L40.0,14.7L38.1,15.6L37.5,16.1L34.4,17.7L32.7,18.9L31.1,20.2L30.3,20.6L24.5,26.0L21.6,29.3L19.0,32.6L18.9,33.0L17.2,35.4L16.7,36.7L16.1,37.4L13.3,43.4L11.4,49.1L11.2,50.2L10.5,52.8L10.3,54.4L10.0,55.3L9.8,57.5L9.7,58.1L9.4,62.8L9.4,65.1L9.7,69.3L10.0,70.8L10.1,72.4L10.6,75.1L11.7,79.6L12.3,81.0L12.5,82.1L13.7,84.8L13.8,85.3L16.2,90.4L18.1,93.5L18.7,94.2L19.0,95.0L20.7,97.1L20.9,97.6L22.0,98.7L22.3,99.3L24.3,101.5L26.5,103.7L28.1,105.1L29.1,106.2L29.7,106.5L30.2,107.0L33.1,109.2L34.0,109.7L34.4,110.1L38.1,112.3L41.8,114.1L42.2,114.2L42.7,114.6L43.2,114.6L43.8,115.1L45.3,115.5L45.9,115.9L47.2,116.1L47.5,116.4L48.6,116.6L49.0,116.9L50.0,117.0L51.8,117.6L54.0,117.9L54.6,118.2L55.5,118.3L56.7,118.6L58.3,118.7L60.7,119.0L69.1,119.0L71.1,118.7L72.1,118.7L77.0,117.8L77.5,117.5L78.9,117.3L79.6,116.9L81.3,116.5L82.2,116.1L82.8,116.0L85.2,115.1L86.1,114.6L86.7,114.5L91.7,111.9L96.7,108.7L97.8,107.6L98.5,107.3L100.8,105.3L104.4,101.8L107.5,98.2L107.7,97.7L108.9,96.3L111.2,92.7L113.4,88.5L114.2,86.5L114.6,86.0L115.3,83.8L115.6,83.2L115.8,82.4L116.1,81.7L116.2,81.1L116.5,80.3L116.6,79.6L116.9,78.9L117.4,76.8L118.2,72.2L118.3,71.7L118.4,69.9L118.8,67.5L118.8,61.9L118.7,61.2L118.5,58.6L118.3,57.4L118.3,56.8L118.0,55.8L118.0,55.3L117.5,52.9L117.2,51.8L116.9,50.3L116.3,48.5L116.2,47.7L114.4,42.7L113.6,41.2L113.5,40.8L113.1,40.1L113.1,39.9L112.7,39.5L111.6,37.2L110.8,35.9L110.5,35.3L107.1,30.3L105.3,28.3L104.8,27.6L102.1,24.7L99.7,22.5L95.0,19.0L94.2,18.5L92.9,17.6L92.2,17.2L89.4,15.5L86.4,14.0L86.0,13.9L84.5,13.2L83.8,13.0L83.5,12.8L82.4,12.5L81.7,12.1L81.1,12.0L79.2,11.3L73.2,9.9L68.6,9.3L65.6,9.2L61.5,9.2L59.8,9.4Z M46.1,29.3L48.0,29.3L48.7,29.4L50.9,29.6L53.1,30.1L56.2,31.2L58.9,32.8L60.6,34.2L62.4,35.9L63.1,37.0L63.7,37.6L65.4,41.2L65.8,42.7L66.1,45.0L66.1,47.4L65.8,49.1L65.3,50.7L64.3,52.6L63.3,54.0L61.5,55.9L59.3,57.4L57.4,58.3L55.2,59.0L54.8,59.2L52.5,59.7L50.7,59.8L49.5,60.1L46.9,60.1L44.5,60.3L38.1,60.0L36.1,59.6L35.0,59.5L34.0,59.1L32.5,58.9L31.3,58.5L29.4,58.2L26.5,57.1L25.7,57.0L25.2,57.3L25.0,58.2L24.7,60.0L24.6,65.0L25.1,69.7L25.3,70.4L25.7,70.7L26.3,70.7L26.7,70.4L30.7,69.2L35.9,68.0L40.9,67.5L45.9,67.5L48.2,67.7L53.0,68.5L57.1,69.9L58.5,70.7L60.8,72.2L63.3,74.9L63.9,75.9L64.8,77.8L65.4,80.3L65.6,83.2L65.2,85.9L65.0,86.5L64.7,87.7L63.1,91.0L62.0,92.5L60.2,94.3L58.6,95.5L56.6,96.7L54.4,97.7L53.5,97.8L52.9,98.1L50.8,98.5L48.9,98.7L46.2,98.7L43.7,98.3L40.6,97.6L38.1,96.6L36.5,95.9L34.9,94.9L34.3,94.3L33.5,94.0L32.9,93.5L30.2,90.7L28.0,87.8L27.4,86.6L26.1,84.7L26.0,84.3L25.3,83.0L24.1,80.4L23.7,79.1L23.4,78.6L21.8,73.1L21.6,71.1L21.3,69.8L20.9,66.6L20.9,62.4L21.2,59.0L21.4,57.2L21.7,56.4L21.7,55.8L22.5,52.4L24.5,46.8L26.4,42.8L28.0,40.0L28.6,39.5L29.9,37.6L32.7,34.9L35.6,32.8L36.8,32.1L38.1,31.2L39.8,30.6L42.8,29.7L43.7,29.5L45.6,29.4Z M61.0,21.0L66.4,20.9L69.1,21.2L74.6,22.3L78.1,23.3L82.3,25.1L83.8,25.9L84.2,26.0L85.7,27.0L87.3,27.9L88.0,28.5L90.8,30.4L92.4,31.7L96.4,35.8L96.5,36.0L98.4,38.1L99.3,39.4L99.4,39.7L99.8,40.1L101.6,43.1L102.9,45.6L102.9,45.8L103.4,46.7L105.2,51.2L106.4,55.8L106.5,57.0L106.9,58.6L106.9,59.5L107.1,60.6L107.3,65.6L107.2,67.8L107.0,69.2L107.0,70.3L106.7,71.4L106.7,72.1L106.6,72.5L106.4,73.9L106.2,74.5L105.9,75.8L105.7,76.0L105.7,76.8L104.1,81.3L103.9,81.6L102.8,84.2L102.4,84.7L100.9,87.6L99.6,89.3L99.3,89.9L98.3,91.0L98.1,91.5L96.9,92.8L96.5,93.4L94.0,95.9L91.4,98.3L87.2,101.2L82.5,103.8L80.2,104.6L78.6,105.3L77.5,105.6L77.0,105.8L74.5,106.5L69.7,107.3L66.0,107.6L60.5,107.4L58.9,107.1L57.6,107.0L55.2,106.4L54.8,106.4L51.2,105.3L50.8,105.0L51.2,104.8L53.9,104.8L54.6,104.7L59.0,104.5L60.6,104.1L62.1,104.0L64.0,103.5L64.5,103.5L67.3,102.7L67.6,102.7L71.4,101.3L73.7,100.1L75.4,99.2L77.9,97.4L80.6,94.5L82.3,92.3L83.8,89.4L83.9,88.9L84.8,86.7L85.3,83.6L85.3,80.9L85.1,78.7L84.1,75.8L82.8,73.2L82.2,72.4L82.2,71.9L82.9,71.6L84.2,71.6L85.0,71.3L88.0,70.8L93.3,69.3L95.3,68.3L96.4,67.9L97.6,67.1L98.7,66.6L100.4,65.3L100.5,64.7L99.8,63.9L99.0,63.5L97.0,62.1L92.1,59.8L88.4,58.6L87.4,58.4L86.5,58.1L84.7,57.8L84.1,57.6L82.9,57.5L82.3,57.2L82.2,56.8L83.1,55.6L84.7,52.5L85.3,50.4L85.8,47.4L85.8,45.2L85.3,42.1L84.5,39.7L83.8,38.6L83.8,38.1L82.9,36.7L80.4,33.5L78.3,31.6L75.6,29.6L74.2,28.9L73.7,28.5L70.3,26.9L68.4,26.4L67.5,25.9L66.1,25.5L65.8,25.5L65.3,25.2L64.7,25.1L63.4,24.7L62.4,24.6L60.0,24.1L58.6,24.0L57.2,23.7L51.2,23.5L50.9,23.2L51.5,22.8L55.2,21.8L56.3,21.8L57.9,21.3L59.7,21.3Z" fill="#000" fill-rule="evenodd"/>
</svg>