<svg xmlns="http://www.w3.org/2000/svg" viewBox="0 0 128 128" width="128" height="128">
  <path d="M60.7,38.1L55.8,39.1L54.4,39.7L54.0,40.0L53.4,40.1L52.2,40.7L51.3,41.0L51.0,41.3L50.2,41.6L46.9,43.9L44.6,46.1L42.0,49.1L39.4,53.5L38.3,57.0L37.9,57.8L37.3,61.9L37.2,65.4L37.4,67.7L37.6,68.1L37.7,69.3L37.9,70.0L38.1,71.3L39.0,73.8L39.9,75.9L41.0,78.0L42.1,79.5L42.5,80.2L44.4,82.5L47.3,85.2L49.7,86.8L52.7,88.3L55.0,89.2L59.9,90.3L62.0,90.5L66.8,90.4L71.3,89.4L72.3,89.0L73.2,88.8L75.6,87.7L76.9,86.9L79.9,84.8L81.9,83.0L84.0,80.7L84.1,80.4L84.9,79.5L85.5,78.3L86.5,77.0L87.7,74.5L88.9,71.0L89.0,69.6L89.4,68.4L89.4,67.1L89.6,66.4L89.7,63.1L89.5,62.2L89.5,61.2L88.9,58.0L88.3,56.0L87.1,53.0L86.1,51.1L83.2,47.2L79.6,43.7L78.7,42.9L75.3,40.8L71.4,39.2L69.4,38.7L66.9,38.2L64.9,38.0Z M117.3,10.7L116.6,10.4L107.1,10.4L102.1,10.5L99.7,10.4L97.5,10.6L95.7,10.5L92.0,10.7L64.7,11.0L62.3,11.2L57.5,11.1L56.9,11.3L55.9,11.1L50.0,11.3L41.8,11.3L41.4,11.1L40.3,11.1L39.5,11.4L38.2,11.4L37.8,11.7L37.6,12.2L37.6,21.2L37.8,22.8L37.8,30.6L38.0,30.9L38.8,30.9L41.5,29.0L45.2,27.0L47.8,25.9L52.1,24.4L56.6,23.4L62.1,22.8L65.6,22.8L70.3,23.4L71.1,23.6L73.1,23.9L76.2,24.8L80.4,26.5L84.2,28.5L86.2,29.9L87.2,30.5L89.1,31.9L93.1,35.5L93.3,35.9L95.2,37.9L95.6,38.6L96.8,40.0L99.0,43.4L99.1,43.8L100.1,45.4L101.5,48.3L103.3,53.4L104.0,56.5L104.7,62.6L104.6,66.8L104.3,70.6L104.0,71.5L103.5,74.5L102.1,78.9L101.1,81.3L100.5,82.4L100.3,83.1L98.8,85.7L97.3,88.1L95.0,91.0L93.2,93.0L90.8,95.3L88.5,97.3L86.8,98.5L86.4,98.9L84.7,99.9L82.6,100.9L81.9,101.5L80.7,102.1L79.8,102.3L77.3,103.5L71.2,105.2L68.5,105.7L65.8,105.8L59.9,105.7L57.7,105.6L56.3,105.2L55.1,105.1L51.4,104.1L50.1,103.5L49.3,103.3L44.5,101.2L39.6,98.2L35.4,94.9L31.9,91.2L30.8,89.8L30.3,88.9L29.7,88.3L29.1,87.1L28.3,86.2L28.3,86.0L27.1,84.2L27.1,84.0L26.1,82.2L24.6,78.5L23.8,76.1L23.8,75.8L23.5,75.2L22.5,70.4L22.2,67.2L22.2,48.7L22.0,35.0L22.1,32.2L21.9,31.2L22.1,28.3L22.1,22.5L21.8,12.1L21.4,11.6L21.1,11.6L10.6,11.7L9.8,12.0L9.4,12.5L9.6,66.0L9.8,71.7L9.8,117.5L10.3,117.8L11.4,117.9L23.5,117.9L29.1,117.7L45.5,117.7L68.3,117.5L72.6,117.6L80.6,117.4L84.3,117.5L97.8,117.2L102.1,117.3L107.8,117.1L110.7,117.2L113.7,117.0L116.7,117.0L117.0,116.8L117.3,115.4L117.3,92.2L117.5,84.5L117.4,69.3L117.6,68.5L117.4,66.4L117.4,20.8L117.6,17.8L117.6,13.2L117.5,11.5Z" fill="#000" fill-rule="evenodd"/>
</svg>