<svg xmlns="http://www.w3.org/2000/svg" viewBox="0 0 128 128" width="128" height="128">
  <path d="M9.5,16.0L9.3,22.8L9.3,28.6L9.5,30.0L9.3,33.5L9.5,37.2L9.5,65.8L9.7,69.3L10.5,72.6L11.4,75.0L12.5,77.2L14.7,80.2L15.8,81.4L16.3,81.7L17.9,83.2L20.6,85.0L22.8,86.0L25.0,86.7L28.0,87.3L31.9,87.4L34.2,87.1L36.0,86.7L38.5,85.8L40.4,84.8L41.5,84.3L45.3,82.3L45.5,82.3L51.0,79.6L52.3,79.1L56.1,77.1L56.6,77.0L57.1,76.6L57.4,76.6L61.4,74.5L61.6,74.5L63.3,73.6L67.2,71.9L70.0,70.4L73.3,68.9L76.3,67.4L79.4,66.0L81.4,65.6L84.4,65.6L86.5,66.0L88.8,67.1L90.0,67.9L92.1,70.0L92.7,71.1L93.1,71.5L94.0,73.6L94.5,76.2L94.5,77.8L94.2,80.0L93.6,81.5L91.9,84.3L89.4,86.5L89.0,86.6L88.2,87.1L87.0,87.5L86.4,87.9L85.3,88.1L82.8,88.4L34.8,88.5L33.6,88.3L28.0,88.3L26.7,88.5L19.9,88.5L14.3,88.7L13.1,88.6L10.5,88.8L9.9,89.3L9.8,93.7L9.9,95.6L9.9,102.2L10.1,103.8L10.1,110.0L10.2,111.4L10.4,111.9L10.7,112.2L11.3,112.5L12.5,112.6L25.5,112.5L30.2,112.7L47.9,112.8L71.2,112.7L77.2,112.8L84.2,112.8L86.9,112.4L88.3,112.4L89.8,112.1L90.5,111.9L91.1,111.9L94.9,110.8L98.1,109.4L100.3,108.3L100.9,107.9L103.7,106.1L106.8,103.7L110.0,100.5L111.5,98.7L112.1,97.7L113.8,95.4L115.5,92.2L116.5,89.9L117.2,87.4L117.5,87.0L117.6,86.1L118.4,83.2L118.8,80.0L118.9,75.1L118.6,72.0L118.3,71.2L118.1,69.5L116.8,64.9L115.9,63.0L115.9,62.7L113.5,58.2L111.5,55.3L109.0,52.4L104.7,48.5L101.0,46.0L99.0,44.9L98.3,44.8L97.9,44.4L97.6,44.4L97.0,44.0L92.6,42.4L91.5,42.2L91.3,42.0L89.4,41.8L88.6,41.5L84.6,41.0L80.6,41.0L77.5,41.3L72.7,42.4L68.1,44.0L58.5,48.8L56.8,49.5L55.4,50.3L54.9,50.4L53.4,51.3L52.7,51.5L50.1,52.8L48.9,53.3L47.1,54.3L43.9,55.7L43.4,56.1L39.8,57.6L39.1,58.1L38.6,58.2L37.4,58.9L36.7,59.1L35.2,59.8L34.6,59.8L34.1,59.3L33.9,54.4L33.9,23.8L33.8,17.1L33.6,16.1L33.0,15.7L25.5,15.5L13.1,15.4L10.1,15.5Z" fill="#000" fill-rule="evenodd"/>
</svg>