<svg xmlns="http://www.w3.org/2000/svg" viewBox="0 0 128 128" width="128" height="128">
  <path d="M71.5,69.9L71.1,70.2L71.1,83.4L71.5,83.6L75.6,83.6L76.0,83.0L76.0,70.8L75.8,70.1L75.4,69.9Z M53.3,69.8L53.1,69.9L52.7,70.3L52.7,83.0L53.3,83.5L57.2,83.5L57.5,83.2L57.6,70.6L57.4,70.2L56.8,69.8Z M18.5,9.6L18.3,9.7L18.2,10.3L18.3,12.3L18.1,14.7L18.5,40.3L18.5,80.7L18.7,83.6L19.5,87.7L19.5,88.2L20.9,92.6L23.0,97.7L23.4,98.3L24.1,99.9L26.7,104.0L29.7,107.8L33.8,112.0L35.5,113.3L36.4,114.1L41.0,117.4L42.4,118.0L42.6,118.3L44.1,118.9L84.5,118.9L88.5,116.8L89.4,116.1L91.0,115.1L94.2,112.7L97.4,109.6L99.1,107.7L102.3,103.5L105.3,98.4L106.9,94.8L108.3,91.1L108.6,89.1L109.4,86.6L110.1,81.0L110.2,77.9L110.0,72.9L109.6,71.3L109.4,68.7L109.1,67.9L109.0,66.9L108.6,66.1L107.8,62.8L107.6,62.6L107.1,60.7L105.4,56.9L104.0,54.2L103.1,53.0L102.9,52.3L101.4,50.1L99.9,48.3L99.0,47.0L95.8,43.5L90.9,39.4L87.5,37.2L85.4,36.0L67.7,35.8L39.9,35.8L38.4,35.5L38.2,35.3L38.0,25.5L38.0,15.3L37.8,9.7L37.3,9.4L24.1,9.3L18.9,9.4Z M47.4,55.1L47.6,55.1L48.2,54.6L49.3,54.2L62.6,54.3L79.1,54.3L80.4,55.0L80.8,55.4L81.5,55.9L84.7,59.0L85.7,60.2L87.4,62.7L88.9,65.2L88.9,65.5L89.4,66.5L90.1,68.6L90.5,69.3L91.1,72.0L91.6,75.1L91.5,81.0L90.8,84.5L90.6,85.1L90.6,85.4L89.9,87.4L88.9,89.9L88.3,90.7L87.7,92.0L86.4,94.0L85.8,94.6L85.4,95.2L82.8,98.0L80.5,99.9L79.2,100.3L70.8,100.3L66.0,100.1L53.3,100.3L48.5,100.1L47.8,99.7L45.4,97.8L43.6,96.0L40.9,92.3L39.1,88.8L37.8,85.4L37.6,84.3L37.2,82.9L37.0,81.0L36.7,79.9L36.6,75.5L36.8,73.8L37.4,70.3L38.2,68.1L39.2,65.4L40.5,63.1L41.9,60.8L43.1,59.3L45.8,56.5L46.4,56.1Z" fill="#000" fill-rule="evenodd"/>
</svg>