<svg xmlns="http://www.w3.org/2000/svg" viewBox="0 0 128 128" width="128" height="128">
  <path d="M19.0,95.9L18.5,96.4L17.2,98.9L17.1,99.7L17.3,99.9L18.6,100.0L19.0,100.2L19.0,100.5L19.4,100.5L19.7,99.8L19.7,99.5L19.5,99.2L19.5,96.5L19.4,96.2L19.2,95.9Z M18.9,97.3L19.0,97.5L19.0,98.7L18.9,99.2L18.5,99.5L18.0,99.5L17.6,99.3L17.6,99.1L18.4,97.5L18.6,97.3Z M14.2,95.8L13.6,96.3L13.6,97.2L13.7,97.2L13.9,97.0L13.9,96.8L14.5,96.2L15.1,96.2L15.7,96.7L15.7,97.5L14.7,98.1L14.7,98.3L15.2,98.5L15.7,98.9L15.7,99.8L15.2,100.3L14.4,100.3L14.0,100.0L13.8,99.4L13.7,99.3L13.5,99.5L13.5,100.2L13.7,100.4L15.9,100.5L16.2,99.8L16.2,98.9L16.0,98.4L16.0,98.0L16.3,96.9L16.0,96.2L15.4,95.8Z M10.4,95.7L10.0,96.1L9.8,96.4L9.8,97.1L10.1,97.2L10.4,96.4L10.5,96.2L11.4,96.1L11.7,96.2L12.1,96.7L12.1,97.2L11.4,98.0L10.7,98.4L9.9,99.2L9.8,100.3L9.8,100.5L12.4,100.5L12.3,100.2L12.1,100.2L10.7,100.2L10.4,100.0L10.3,99.8L10.4,99.3L11.0,98.8L11.8,98.3L12.4,97.8L12.6,97.2L12.4,96.2L12.0,95.7Z M66.6,40.7L66.3,41.0L66.2,41.6L66.1,44.6L66.1,59.1L65.9,69.1L65.9,82.1L65.7,86.4L65.7,98.7L66.1,99.2L68.0,99.4L74.0,99.3L74.3,99.0L74.5,88.5L74.4,86.0L74.6,76.7L75.0,76.6L75.3,76.9L76.9,79.2L79.1,81.7L81.1,83.4L84.1,85.3L85.9,86.2L86.7,86.4L86.9,86.6L88.1,87.0L89.2,87.3L89.6,87.5L92.1,88.0L94.5,88.2L99.1,88.0L99.9,87.7L100.8,87.6L102.5,87.1L105.4,86.0L106.0,85.6L106.5,85.4L107.6,84.7L107.9,84.7L110.0,83.2L111.7,81.8L114.0,79.2L116.3,75.9L116.4,75.4L117.2,74.0L117.3,73.5L117.6,72.9L118.2,71.3L118.2,70.9L118.4,70.6L118.6,69.5L118.9,68.6L118.9,67.4L119.2,66.3L119.1,61.6L118.9,59.8L118.2,57.0L116.9,53.7L115.1,50.7L112.9,48.0L111.0,46.1L108.7,44.3L106.4,43.0L103.6,41.7L101.9,41.2L98.1,40.4L93.0,40.4L92.3,40.7L91.0,40.7L90.0,41.1L88.6,41.3L88.2,41.6L86.4,42.2L83.8,43.5L81.8,44.8L79.2,47.0L76.5,50.1L75.8,51.1L75.5,51.5L75.2,51.5L75.0,51.4L74.9,40.0L74.6,39.8L68.6,39.8L67.7,40.0Z M80.1,67.7L80.4,66.8L81.0,65.8L82.1,64.7L83.5,63.9L84.4,63.7L86.1,63.8L87.1,64.3L88.8,65.5L89.8,66.4L91.3,67.5L93.3,68.6L94.0,68.8L95.6,68.8L96.6,68.6L98.0,67.9L101.2,65.6L103.1,64.5L104.8,64.0L106.1,64.0L106.5,64.1L107.2,64.6L107.9,64.8L109.3,66.2L109.8,67.3L110.0,68.5L109.5,70.7L108.5,72.8L107.1,74.7L105.2,76.5L103.6,77.5L102.2,78.1L101.7,78.3L101.2,78.6L100.4,78.8L99.8,79.1L98.9,79.2L97.5,79.7L96.5,79.7L95.9,79.8L93.5,79.8L91.2,79.4L88.5,78.5L86.4,77.3L84.6,76.0L82.4,73.9L81.4,72.5L80.7,71.2L80.1,69.5Z M109.4,50.4L109.4,50.6L109.1,51.0L107.4,52.8L105.8,54.0L104.4,54.8L103.9,54.8L103.1,55.2L101.1,55.6L98.8,55.5L97.3,55.1L96.9,54.8L96.9,54.1L97.5,53.1L98.7,51.5L100.4,50.2L101.3,49.8L101.8,49.7L102.5,49.3L103.4,49.0L104.1,48.9L106.3,48.9L107.8,49.3L108.9,49.9Z M81.1,49.5L81.5,49.1L82.2,48.8L84.5,48.3L86.7,48.3L88.8,48.9L90.6,49.8L91.6,50.7L92.2,51.5L92.7,52.5L93.2,54.5L92.9,54.9L91.9,55.2L89.6,55.2L87.7,54.8L86.9,54.4L86.4,54.3L85.1,53.6L83.7,52.5L81.4,50.2L81.1,49.9Z M9.7,28.9L9.4,29.4L9.4,34.2L9.4,36.9L9.3,42.3L9.4,44.9L9.2,50.7L9.2,63.1L9.1,69.3L9.2,87.7L9.6,88.1L10.1,88.2L15.4,88.3L18.0,88.1L18.1,88.0L18.3,84.1L18.3,78.2L18.3,77.5L18.6,77.2L18.7,77.2L19.1,77.5L20.5,79.4L22.6,81.6L25.4,83.8L27.3,85.0L30.5,86.4L31.6,86.7L32.4,87.1L34.0,87.3L35.1,87.7L37.7,87.9L39.8,87.9L41.9,87.7L43.9,87.3L47.4,86.3L50.2,84.9L52.8,83.2L55.9,80.4L58.2,77.4L59.3,75.6L60.5,73.0L61.6,69.7L62.0,67.1L62.2,65.6L62.2,62.3L61.8,59.4L61.3,57.5L61.2,56.8L60.6,55.1L60.0,53.9L59.4,52.4L58.4,51.1L58.1,50.3L57.1,49.1L55.8,47.5L54.6,46.3L53.2,45.2L49.9,43.0L49.4,42.8L48.2,42.1L47.7,42.0L45.6,41.1L44.9,41.0L42.2,40.3L39.9,40.1L36.3,40.2L33.1,40.7L32.4,41.0L31.8,41.1L29.9,41.8L26.6,43.4L24.2,45.1L22.9,46.2L20.4,48.7L19.5,49.9L18.8,50.6L18.6,50.6L18.5,50.5L18.5,38.7L18.6,33.7L18.6,29.0L18.3,28.8L17.0,28.8L12.7,28.8Z M26.0,71.9L26.6,70.6L27.7,68.8L29.2,67.1L30.5,66.0L33.5,64.3L34.5,64.1L35.1,63.8L36.9,63.3L39.7,63.3L42.3,64.0L42.8,64.3L44.5,65.0L46.8,66.3L48.2,67.4L49.9,69.3L51.1,71.2L51.7,73.1L51.8,75.3L51.7,76.2L51.3,77.2L50.2,78.8L49.2,79.5L47.8,79.8L46.7,79.9L46.1,79.8L44.8,79.1L42.3,76.3L40.6,74.9L39.3,74.4L38.4,74.4L36.9,75.0L34.8,76.8L32.9,78.9L32.1,79.5L31.1,79.8L30.0,79.9L28.6,79.6L27.8,79.2L26.6,78.1L26.2,77.4L25.8,76.5L25.6,75.7L25.7,73.3Z M41.2,49.2L41.6,48.7L42.0,48.6L42.6,48.3L43.6,48.2L45.8,48.2L46.9,48.5L49.0,49.5L50.8,50.8L52.3,52.5L52.6,53.0L52.7,53.5L52.3,53.9L51.4,54.4L49.4,54.8L48.5,54.8L46.0,54.2L44.9,53.7L43.2,52.3L41.8,50.7L41.3,49.7Z M36.3,48.9L36.4,49.2L36.2,49.7L34.8,51.5L33.9,52.4L32.8,53.2L32.4,53.4L31.5,54.1L30.7,54.5L29.2,54.8L28.0,54.8L26.1,54.4L25.2,54.0L24.9,53.6L24.9,53.1L25.8,51.7L26.5,51.0L28.5,49.5L30.0,48.7L31.7,48.2L34.4,48.1L35.3,48.2Z" fill="#000" fill-rule="evenodd"/>
</svg>