<svg xmlns="http://www.w3.org/2000/svg" viewBox="0 0 128 128" width="128" height="128">
  <path d="M15.0,12.9L14.4,13.5L14.3,13.7L13.7,14.2L13.7,14.4L13.4,14.7L12.9,15.3L12.9,15.5L12.3,16.3L11.5,17.9L10.9,19.2L10.5,20.6L10.4,21.0L10.3,21.5L10.1,23.4L10.1,28.3L10.0,30.1L10.1,31.3L10.1,34.6L10.0,35.3L10.1,36.8L10.0,38.5L10.1,39.2L10.1,40.1L10.2,43.5L10.1,45.1L10.1,49.6L10.1,50.6L10.0,52.9L10.1,56.1L10.0,56.5L10.0,57.7L10.0,59.7L10.0,64.7L9.9,65.4L9.9,68.1L9.9,69.3L9.8,71.9L9.7,72.8L9.8,73.9L9.6,76.0L9.6,79.5L9.5,81.2L9.5,84.5L9.5,85.4L9.5,87.5L9.4,89.0L9.4,91.4L9.3,93.9L9.3,94.9L9.2,97.1L9.2,100.5L9.1,101.3L9.1,102.5L9.0,103.5L9.0,104.7L9.2,105.7L9.2,106.6L9.5,107.8L9.9,109.0L10.0,109.6L10.4,110.4L10.5,110.7L11.2,112.1L11.5,112.5L11.9,113.3L12.4,113.7L13.0,114.6L13.8,115.3L13.8,115.4L14.2,115.8L14.6,116.1L14.8,116.2L15.5,116.8L17.0,117.7L17.3,117.8L18.0,118.2L18.2,118.2L19.4,118.7L19.8,118.8L19.9,118.9L20.4,119.1L21.6,119.3L22.1,119.4L22.5,119.5L23.4,119.5L29.6,119.5L30.4,119.6L32.0,119.5L32.5,119.6L34.0,119.6L37.6,119.6L38.3,119.7L39.9,119.7L43.0,119.7L45.7,119.7L62.3,119.7L68.7,119.6L69.3,119.7L77.9,119.7L78.9,119.8L80.5,119.7L82.5,119.7L83.8,119.8L84.7,119.8L85.0,119.7L90.1,119.7L90.7,119.8L91.5,119.8L91.9,119.7L95.7,119.8L96.6,119.7L101.1,119.7L103.5,119.6L104.3,119.7L104.7,119.6L105.8,119.5L106.5,119.3L107.0,119.3L108.1,118.9L109.1,118.6L110.9,117.6L112.2,116.8L112.8,116.3L113.2,116.1L114.4,115.0L115.2,114.1L115.8,113.3L116.1,112.9L117.2,111.0L117.3,110.7L117.6,110.1L117.7,109.8L118.1,108.9L118.7,106.3L118.8,104.7L118.9,104.1L119.0,95.0L118.9,91.4L119.0,88.6L118.9,88.0L118.9,83.3L118.9,83.1L118.7,82.9L118.1,82.7L117.4,82.8L116.6,82.7L112.3,82.7L111.6,82.6L108.1,82.7L105.1,82.6L101.4,82.7L100.9,82.6L99.7,82.6L99.2,82.6L97.7,82.6L92.9,82.6L91.9,82.6L91.5,82.8L90.9,82.8L90.2,83.0L90.1,83.1L89.7,83.2L88.7,83.6L88.5,83.7L88.3,83.7L88.0,83.9L86.7,84.8L86.3,85.0L86.1,85.2L85.9,85.4L85.5,85.7L84.2,87.2L84.2,87.4L84.0,87.6L82.9,89.5L82.7,90.1L82.4,91.0L82.2,91.7L82.1,92.9L82.1,93.3L82.0,93.7L82.0,95.9L82.0,96.7L81.9,97.0L81.9,98.4L81.8,100.7L81.8,100.8L81.5,101.0L78.6,101.0L77.9,101.0L77.5,101.0L77.0,101.0L76.8,101.0L76.7,100.6L76.7,100.0L76.7,95.7L76.8,95.2L76.8,93.3L76.8,91.7L76.9,91.6L76.9,90.9L77.0,90.7L77.1,89.6L77.9,87.4L78.5,85.9L78.8,85.5L79.0,85.0L79.8,83.9L80.5,83.1L81.8,81.7L82.5,81.1L83.6,80.2L83.8,80.2L83.9,80.0L85.1,79.3L86.2,78.8L86.7,78.6L86.9,78.5L87.1,78.4L87.4,78.3L87.9,78.1L88.5,78.0L88.8,77.9L89.1,77.9L89.8,77.7L90.5,77.7L90.9,77.6L92.0,77.5L92.5,77.5L96.8,77.5L97.0,77.4L99.7,77.4L101.1,77.5L101.2,77.4L106.5,77.4L106.9,77.4L118.5,77.4L118.7,77.1L118.8,77.0L118.7,76.2L118.6,76.1L118.0,76.0L111.0,76.0L110.4,76.1L102.8,76.1L102.3,76.0L100.1,76.1L99.6,76.0L97.2,76.1L96.7,76.0L87.3,76.0L85.3,76.0L83.2,76.0L82.5,75.9L81.8,75.9L81.5,76.0L80.6,75.9L79.4,76.0L78.0,76.0L76.5,76.1L75.8,76.2L74.6,76.7L74.5,76.7L73.5,77.1L72.9,77.4L71.4,78.5L70.2,79.5L69.7,80.0L68.8,81.1L68.6,81.5L68.3,82.0L68.0,82.6L67.9,82.8L67.5,83.6L67.4,83.9L67.3,84.3L66.9,85.4L66.9,85.6L66.7,86.6L66.7,87.4L66.5,88.1L66.5,95.4L66.4,98.2L66.5,101.6L66.4,102.1L66.4,103.3L66.3,106.5L66.4,106.9L66.3,107.3L66.1,107.4L65.6,107.4L64.5,107.4L64.2,107.3L63.7,107.4L61.4,107.3L61.1,107.2L60.9,107.0L61.0,105.0L60.9,103.2L60.9,100.4L61.0,99.5L61.0,98.1L61.1,97.9L61.0,97.6L61.0,94.8L61.0,92.3L61.0,90.9L61.1,90.4L61.1,86.9L61.2,86.2L61.2,85.6L61.3,85.0L61.4,84.5L61.7,82.9L61.9,82.5L62.4,80.9L63.6,78.6L63.8,78.4L64.4,77.5L65.9,75.9L66.7,75.2L68.1,74.0L68.9,73.5L71.2,72.3L72.7,71.7L74.4,71.3L74.9,71.3L75.5,71.3L76.2,71.1L76.4,71.1L76.6,71.2L76.9,71.2L77.1,71.1L79.5,71.1L82.5,71.1L82.9,71.1L87.6,71.1L90.0,71.0L95.7,71.1L96.6,71.0L97.7,71.0L98.7,71.0L102.0,71.0L102.9,71.0L109.9,71.0L112.2,71.0L112.8,71.1L113.7,71.1L114.2,71.0L118.5,71.0L118.6,71.0L118.7,70.8L118.7,69.9L118.6,69.7L118.4,69.6L112.3,69.6L112.0,69.7L110.8,69.7L109.8,69.6L109.2,69.7L99.8,69.7L99.2,69.6L98.0,69.7L97.4,69.6L96.1,69.6L95.2,69.7L94.1,69.6L92.4,69.6L87.1,69.6L72.6,69.6L71.0,69.6L69.4,69.6L69.0,69.5L67.6,69.6L67.0,69.5L62.5,69.5L61.3,69.6L59.5,70.0L59.0,70.2L58.9,70.3L58.6,70.4L57.5,70.9L57.3,71.1L56.8,71.3L56.1,71.7L55.9,72.0L55.6,72.1L55.3,72.5L55.0,72.7L53.9,73.7L53.3,74.5L52.4,75.8L51.6,77.5L51.5,77.8L51.2,79.2L51.1,79.8L51.0,80.2L51.0,80.6L51.0,82.0L50.9,82.5L50.9,84.1L50.9,90.6L50.9,91.3L50.9,92.1L50.8,93.9L50.7,94.9L50.5,95.1L49.7,95.1L46.6,95.1L45.7,95.0L45.5,94.9L45.4,93.6L45.5,85.3L45.5,84.7L45.6,84.5L45.6,84.2L45.5,84.0L45.5,82.5L45.6,81.7L45.6,80.7L45.7,79.8L45.7,78.9L46.0,77.4L46.1,77.3L46.1,76.8L46.3,76.3L46.5,75.7L46.7,75.1L46.7,74.9L47.5,73.2L48.2,71.9L48.5,71.5L49.0,71.0L49.2,70.7L50.9,68.9L52.4,67.6L53.2,67.2L53.5,66.9L55.3,66.0L56.0,65.7L57.3,65.3L57.4,65.3L57.6,65.2L58.4,65.1L59.4,64.9L62.0,64.9L62.5,64.9L63.5,64.8L65.7,64.9L68.7,64.8L72.0,64.9L72.2,64.8L74.8,64.8L76.2,64.8L78.8,64.8L81.1,64.7L89.3,64.8L97.3,64.8L97.7,64.8L99.2,64.8L99.6,64.8L110.1,64.8L111.2,64.7L116.3,64.7L117.0,64.7L118.5,64.7L118.7,64.5L118.7,63.6L118.5,63.4L118.3,63.3L116.3,63.4L114.5,63.3L114.1,63.4L111.4,63.4L110.6,63.3L107.9,63.3L106.0,63.4L104.8,63.3L103.3,63.4L102.2,63.3L98.4,63.3L97.1,63.3L81.1,63.3L77.4,63.4L75.7,63.4L74.0,63.3L63.1,63.3L62.8,63.4L61.1,63.4L60.7,63.3L59.6,63.3L58.2,63.1L57.7,62.9L57.4,62.9L57.0,62.7L56.3,62.6L56.3,62.5L55.4,62.2L54.5,61.8L53.5,61.2L53.0,61.0L51.3,59.7L50.6,59.0L49.0,57.3L48.6,56.7L48.5,56.5L48.4,56.3L48.2,56.2L47.8,55.5L47.2,54.3L46.7,53.0L46.7,52.6L46.4,51.9L46.4,51.7L46.1,50.6L45.9,48.9L45.9,36.5L46.0,35.2L45.9,34.1L46.0,30.5L46.1,28.5L46.1,27.0L46.3,26.9L50.2,26.9L51.1,27.0L51.3,27.2L51.3,28.0L51.2,28.3L51.3,30.0L51.3,37.4L51.3,39.4L51.3,45.7L51.2,46.1L51.4,47.4L51.4,48.2L51.5,48.7L51.7,49.3L51.9,50.2L52.1,50.7L52.2,51.2L52.9,52.5L53.4,53.3L53.6,53.4L53.9,54.0L54.4,54.6L54.4,54.7L55.5,55.6L56.3,56.3L56.4,56.3L56.8,56.6L57.0,56.7L57.3,57.0L57.8,57.2L58.6,57.6L59.2,57.7L59.4,57.9L60.0,58.0L60.3,58.1L60.7,58.2L61.0,58.3L62.3,58.5L64.1,58.5L64.5,58.5L68.7,58.5L69.3,58.4L71.2,58.4L76.2,58.5L77.0,58.4L77.8,58.4L78.2,58.4L79.7,58.4L80.2,58.4L81.3,58.4L82.3,58.3L83.8,58.3L85.2,58.3L88.2,58.3L88.4,58.3L88.7,58.3L88.8,58.3L89.6,58.2L97.4,58.3L98.7,58.2L100.6,58.2L101.2,58.3L103.6,58.3L104.7,58.2L110.2,58.2L112.8,58.2L113.7,58.3L118.5,58.3L118.7,58.1L118.8,57.9L118.8,57.5L118.7,57.1L118.4,57.0L117.8,57.0L115.8,57.0L114.9,57.0L114.2,57.0L107.4,57.0L107.1,57.0L103.7,56.9L102.8,57.0L102.1,56.9L85.3,56.9L84.0,56.8L81.6,56.9L80.4,56.8L76.5,56.8L74.6,56.7L73.8,56.5L73.3,56.5L72.8,56.3L72.3,56.1L72.0,56.1L71.8,56.0L71.6,55.9L71.3,55.7L71.0,55.6L70.5,55.3L69.6,54.9L69.0,54.5L68.2,54.1L66.3,52.6L65.8,52.0L65.7,51.9L65.2,51.4L64.8,50.8L64.6,50.5L64.3,50.1L64.2,49.9L63.8,49.4L63.7,49.1L63.3,48.6L62.7,47.3L62.1,45.6L62.1,45.1L61.9,44.6L61.7,43.1L61.7,35.9L61.7,34.4L61.8,34.2L61.8,33.9L61.7,33.8L61.7,33.6L61.9,33.4L63.3,33.4L65.5,33.5L66.8,33.6L67.0,33.8L67.0,34.9L67.1,36.8L67.0,38.5L67.1,39.3L67.0,40.4L67.1,41.4L67.3,42.5L67.6,43.5L67.6,43.6L68.3,45.1L68.8,46.2L69.6,47.3L70.2,48.0L70.5,48.2L70.8,48.6L70.9,48.6L71.2,48.9L71.8,49.3L72.0,49.6L72.5,50.0L73.0,50.3L73.3,50.4L73.5,50.5L73.6,50.6L74.3,50.8L74.9,51.1L75.6,51.4L75.9,51.5L77.0,51.8L77.6,51.8L78.5,52.0L81.9,52.0L83.2,51.9L84.2,52.0L85.3,51.9L85.5,52.0L89.1,52.0L89.4,51.9L89.8,51.9L90.2,52.0L91.5,52.0L93.9,52.0L95.8,52.0L96.6,52.0L98.1,51.9L102.6,52.0L103.2,51.9L106.4,52.0L107.0,51.9L116.7,51.9L117.1,51.9L118.6,51.9L118.8,51.7L118.8,50.7L118.7,50.6L118.5,50.5L112.9,50.5L111.3,50.4L110.2,50.4L109.4,50.5L108.7,50.4L107.7,50.5L107.3,50.4L105.0,50.4L104.3,50.5L102.5,50.4L101.3,50.5L92.0,50.5L91.6,50.4L90.5,50.4L89.3,50.2L88.5,50.0L88.2,49.9L87.8,49.8L86.0,49.0L85.6,48.8L85.1,48.6L83.9,47.9L83.7,47.7L83.2,47.3L82.4,46.5L82.1,46.3L81.2,45.5L80.4,44.6L79.1,42.7L78.4,41.4L77.7,39.4L77.4,38.3L77.1,37.1L77.1,35.1L77.0,34.4L77.0,26.0L77.1,25.6L77.1,24.5L77.0,24.0L77.0,21.2L77.3,21.0L82.4,21.0L82.6,21.2L82.5,25.8L82.6,26.8L82.6,32.7L82.5,33.5L82.5,35.4L82.6,35.7L82.6,36.2L82.8,37.0L83.0,37.9L83.4,38.9L83.8,39.5L84.0,40.0L84.2,40.2L84.2,40.3L84.6,40.9L85.5,42.1L86.5,43.1L87.2,43.7L88.7,44.6L89.0,44.6L89.9,45.1L90.5,45.2L91.5,45.5L92.2,45.5L93.1,45.7L96.3,45.7L96.5,45.7L98.9,45.7L99.3,45.7L101.8,45.7L102.9,45.7L104.9,45.7L108.6,45.6L110.3,45.6L111.1,45.7L112.7,45.7L113.9,45.7L114.3,45.7L115.4,45.7L115.8,45.6L116.8,45.7L117.5,45.6L118.4,45.6L118.8,45.5L118.9,45.4L119.0,44.8L119.0,42.4L119.0,40.6L119.0,37.5L119.1,37.3L119.1,36.9L119.0,36.1L118.9,32.1L119.0,29.2L119.0,27.0L119.0,24.9L119.1,24.4L119.0,24.1L119.1,23.3L118.9,21.1L118.8,20.8L118.7,20.0L118.5,19.3L118.0,18.0L117.4,16.8L116.7,15.6L116.2,15.0L116.1,14.8L114.8,13.4L114.3,12.8L113.1,11.8L111.0,10.4L110.7,10.3L110.1,10.0L109.8,9.9L109.4,9.7L108.9,9.5L108.6,9.4L108.1,9.2L107.5,9.1L106.9,8.9L105.9,8.8L105.6,8.7L103.9,8.6L103.2,8.5L102.9,8.4L102.6,8.5L98.9,8.5L98.2,8.5L96.8,8.5L96.4,8.4L85.9,8.4L83.3,8.4L82.8,8.3L82.4,8.3L82.2,8.4L80.5,8.4L80.0,8.3L77.1,8.3L76.8,8.4L71.0,8.4L70.7,8.3L64.1,8.3L63.7,8.4L62.8,8.3L62.5,8.4L57.7,8.4L57.2,8.3L55.5,8.3L51.7,8.5L50.6,8.4L50.3,8.5L48.0,8.4L44.7,8.4L41.5,8.5L39.1,8.5L38.7,8.4L38.2,8.6L37.5,8.5L36.3,8.6L34.7,8.6L34.6,8.5L34.3,8.5L34.1,8.6L31.7,8.6L31.5,8.5L31.1,8.5L30.9,8.6L29.9,8.6L28.3,8.6L27.0,8.7L25.5,8.7L25.2,8.7L23.4,8.8L23.1,8.9L22.7,8.9L22.2,9.1L21.9,9.1L20.8,9.4L19.6,9.9L19.0,10.1L18.8,10.3L17.3,11.1L16.9,11.4L16.1,11.9Z" fill="#000" fill-rule="evenodd"/>
</svg>