<svg xmlns="http://www.w3.org/2000/svg" viewBox="0 0 128 128" width="128" height="128">
  <path d="M80.4,11.8L79.6,11.9L79.3,12.4L79.2,26.2L79.3,30.0L79.1,33.5L79.1,39.6L78.9,44.7L79.0,46.4L78.8,52.6L78.6,52.8L78.4,52.8L76.5,50.7L73.8,48.7L72.5,48.1L72.1,47.7L69.7,46.7L68.6,46.5L67.7,46.2L65.4,45.9L62.0,46.0L61.0,46.3L60.0,46.4L59.0,46.8L57.6,47.1L54.5,48.7L52.5,50.2L50.7,52.0L49.2,54.1L49.1,54.5L48.1,56.1L47.8,57.0L47.5,57.4L47.3,58.3L46.8,59.5L46.4,61.9L46.4,65.9L46.6,67.1L47.4,70.0L48.6,72.7L50.1,75.0L52.1,77.2L53.6,78.5L55.2,79.5L56.3,80.1L56.8,80.3L57.1,80.5L59.8,81.5L63.5,82.0L65.6,82.0L66.2,82.0L66.5,81.8L68.1,81.7L70.7,80.9L72.7,80.0L72.9,79.8L73.9,79.3L76.3,77.4L77.9,75.8L78.4,75.7L78.5,75.9L78.6,79.8L78.4,90.1L78.4,94.7L78.3,98.8L78.4,104.7L78.2,108.7L78.3,109.6L78.1,110.9L78.3,112.2L78.2,116.4L78.7,116.9L79.3,116.9L79.8,116.7L81.1,116.4L82.5,115.8L83.2,115.6L83.8,115.3L84.8,115.1L85.3,114.7L86.5,114.3L87.5,113.8L87.7,113.6L88.3,113.4L90.3,112.4L95.5,109.2L97.6,107.5L98.8,106.6L102.2,103.7L105.7,99.8L106.4,99.0L106.5,98.6L107.7,97.4L108.1,96.6L108.6,96.1L109.6,94.5L110.0,94.1L110.4,93.2L111.1,92.2L112.1,90.3L112.3,90.1L114.9,84.6L116.5,80.2L116.8,78.6L117.3,77.2L117.4,75.9L117.9,74.7L118.3,72.0L118.6,68.0L118.7,67.1L118.7,64.4L119.0,63.4L119.0,62.3L118.8,61.7L118.6,58.8L118.6,57.3L118.1,55.6L117.9,54.0L117.7,53.3L117.6,51.1L116.8,49.5L116.6,48.4L115.2,44.4L113.6,41.1L113.6,40.8L112.9,39.6L112.3,38.2L111.9,37.7L110.2,34.5L109.6,33.8L109.0,32.5L107.8,31.3L104.0,26.5L99.2,22.0L96.4,20.0L95.8,19.3L94.9,18.8L92.8,17.3L89.4,15.7L87.6,14.6L86.9,14.4L86.5,14.2L86.3,14.2L85.3,13.7L84.5,13.4L82.9,12.6L82.3,12.5Z M65.4,9.1L64.7,9.1L64.4,9.3L63.3,9.4L61.5,9.3L60.5,9.4L60.0,9.5L57.5,9.6L56.0,9.9L54.9,10.0L53.7,10.4L53.0,10.4L51.4,10.8L48.9,11.3L48.3,11.6L47.4,11.8L45.1,12.7L44.4,12.9L40.1,14.6L39.7,15.0L36.0,16.8L34.5,17.9L33.8,18.2L30.9,20.4L30.1,20.8L28.1,22.6L27.6,22.8L23.7,26.8L20.1,31.0L19.9,31.4L19.2,32.2L17.4,34.9L17.1,35.6L16.0,37.2L15.2,38.8L14.9,39.2L14.9,39.4L14.1,40.9L13.5,42.6L12.4,45.2L11.9,47.1L11.5,48.1L11.3,49.4L11.0,49.9L10.6,52.3L10.4,52.9L10.3,53.9L10.1,54.6L9.9,56.5L9.7,57.0L9.6,59.4L9.3,61.5L9.5,68.5L10.1,73.7L10.5,74.6L10.6,75.4L10.9,76.3L11.0,77.3L11.3,78.1L11.4,79.1L13.3,84.6L13.5,84.9L14.0,86.3L15.4,89.1L16.9,91.9L18.3,93.9L18.6,94.6L22.3,99.4L24.6,102.1L27.3,104.7L31.9,108.5L34.4,110.2L37.5,112.1L42.7,114.7L44.5,115.3L44.9,115.5L45.9,115.8L46.2,116.0L47.0,116.2L47.4,116.4L53.2,118.0L53.7,118.0L55.9,118.5L56.5,118.5L57.8,118.8L60.4,118.9L61.1,119.0L62.9,119.1L67.3,119.0L68.3,118.9L70.8,118.8L71.9,118.5L74.0,118.2L74.8,117.9L75.0,117.6L75.2,116.4L75.4,106.8L75.3,105.0L75.6,84.8L75.5,82.0L75.2,81.7L74.5,81.8L74.0,82.1L70.7,83.6L70.0,83.7L68.8,84.1L68.4,84.1L67.8,84.3L66.0,84.6L63.9,84.6L61.0,84.3L58.4,83.7L57.8,83.3L55.9,82.7L52.6,80.9L50.4,79.1L49.1,77.8L47.2,75.4L45.8,72.9L45.7,72.4L44.9,70.6L44.4,69.2L44.1,67.8L44.0,67.6L43.7,64.5L43.7,62.8L44.0,60.8L44.1,60.4L44.5,58.3L44.6,58.1L44.8,57.3L45.8,54.7L47.2,52.3L48.8,50.2L50.0,49.0L51.9,47.4L54.7,45.7L57.1,44.6L60.1,43.8L61.5,43.7L62.8,43.4L65.6,43.4L66.9,43.6L67.6,43.6L70.1,44.3L71.7,45.0L72.5,45.1L73.2,45.6L73.6,45.6L74.8,46.4L75.4,46.6L75.5,46.8L75.8,46.8L76.1,46.4L76.3,41.5L76.2,39.4L76.3,34.2L76.3,24.8L76.6,15.1L76.5,11.2L75.9,10.6L73.8,10.3L72.8,9.9L71.2,9.9L70.4,9.6L65.9,9.4Z" fill="#000" fill-rule="evenodd"/>
</svg>