<svg xmlns="http://www.w3.org/2000/svg" viewBox="0 0 128 128" width="128" height="128">
  <path d="M91.5,16.8L90.7,16.9L90.5,18.1L90.5,42.1L90.3,45.7L90.4,46.6L90.3,48.1L90.4,49.3L90.4,52.8L90.3,54.6L90.4,60.2L90.3,65.3L90.3,78.8L90.1,80.6L90.2,84.4L89.9,97.1L90.0,102.5L89.9,107.2L89.9,111.2L90.0,111.5L90.3,111.8L90.7,111.8L91.5,111.4L92.6,110.6L93.1,110.3L93.9,109.7L94.7,109.3L97.4,107.2L98.4,106.2L99.2,105.6L102.3,102.7L105.3,99.3L105.4,99.1L107.5,96.4L109.5,93.3L110.2,92.5L110.9,90.9L111.8,89.5L112.3,88.0L113.8,85.1L115.6,79.8L116.7,75.3L117.1,73.2L117.7,68.4L117.8,64.8L117.6,58.4L117.4,57.2L117.1,54.7L117.0,54.4L116.8,53.1L116.3,51.0L116.1,50.4L115.4,47.6L115.2,47.3L115.2,47.0L114.0,43.4L111.3,37.6L110.7,36.9L109.8,34.9L107.1,31.0L103.5,26.6L100.7,23.7L97.5,21.0L96.6,20.4L94.7,18.8L94.0,18.5L92.5,17.4Z M62.7,9.1L56.6,9.6L55.7,9.8L54.4,10.0L54.0,10.2L53.1,10.2L52.3,10.6L51.3,10.6L47.3,11.8L46.8,12.2L46.3,12.2L42.7,13.7L40.6,14.8L39.1,15.4L38.9,15.7L38.0,16.0L36.9,16.8L36.1,17.2L35.6,17.7L34.0,18.6L29.8,21.8L27.3,24.1L27.1,24.5L25.7,25.8L22.1,30.0L20.1,32.9L19.7,33.7L18.8,34.5L18.6,35.3L17.7,36.6L16.7,38.6L16.2,39.2L15.8,40.0L15.0,42.5L14.7,42.8L13.9,44.7L13.8,45.6L12.9,47.9L12.7,48.8L11.8,51.6L11.5,53.9L11.0,56.0L10.6,59.6L10.5,66.2L11.0,72.4L11.4,73.6L11.5,75.2L11.8,76.0L11.9,77.2L12.9,80.7L14.7,85.9L16.6,90.0L17.3,91.0L18.0,92.5L19.6,94.8L19.8,95.5L22.7,99.4L23.2,99.8L24.9,101.9L26.1,103.1L26.3,103.4L26.9,104.0L28.1,105.0L30.2,107.0L32.2,108.6L34.5,110.0L34.9,110.4L37.9,112.2L39.1,112.8L39.3,113.0L44.0,115.3L44.9,115.5L46.3,116.2L47.2,116.3L50.4,117.4L52.8,117.8L53.7,118.2L54.9,118.2L57.2,118.7L59.6,119.0L60.8,119.0L61.9,119.1L65.6,119.1L70.7,118.8L71.7,118.5L73.0,118.4L74.0,118.1L75.4,117.9L81.5,116.2L82.3,115.8L83.4,115.4L84.6,114.7L84.8,113.4L84.8,101.3L85.0,99.0L84.9,92.9L85.1,81.9L84.9,81.1L84.4,81.0L84.1,81.1L83.5,81.9L82.7,82.6L81.3,84.1L77.9,86.7L75.7,87.9L75.3,88.2L74.8,88.3L74.5,88.5L74.0,88.6L70.8,89.9L67.2,90.6L66.4,90.6L65.6,90.7L63.3,90.7L60.0,90.4L55.7,89.4L54.3,88.7L53.2,88.3L52.5,87.9L52.1,87.8L51.6,87.4L51.1,87.2L47.9,85.0L45.0,82.3L42.9,79.7L41.0,76.6L39.4,72.8L38.5,69.3L38.1,65.6L38.1,61.6L38.7,58.1L38.9,57.6L39.2,56.4L40.1,53.9L41.6,50.7L42.4,49.4L44.1,46.9L45.6,45.3L48.3,42.9L51.6,40.6L52.4,40.3L53.2,39.7L54.3,39.4L54.8,39.1L57.6,38.1L59.2,37.9L59.7,37.7L62.0,37.5L62.8,37.3L66.8,37.4L67.9,37.7L68.4,37.7L69.3,38.0L70.2,38.1L71.2,38.5L72.3,38.6L74.0,39.4L74.3,39.4L77.5,41.1L79.0,42.1L81.7,44.3L84.6,47.3L85.1,47.3L85.1,47.2L85.3,44.4L85.2,43.1L85.4,36.8L85.4,25.8L85.5,22.5L85.5,16.3L85.5,14.2L85.3,13.8L84.4,13.1L82.9,12.6L82.3,12.2L81.6,12.2L80.1,11.6L79.3,11.4L78.7,11.1L77.1,10.8L75.7,10.3L73.2,10.0L72.5,9.8L68.5,9.3L66.9,9.3L66.3,9.1Z" fill="#000" fill-rule="evenodd"/>
</svg>