<svg xmlns="http://www.w3.org/2000/svg" viewBox="0 0 128 128" width="128" height="128">
  <path d="M54.1,62.4L54.1,64.2L54.4,66.0L55.0,67.9L56.1,69.8L57.1,70.8L59.0,72.3L61.1,73.2L62.2,73.4L65.1,73.6L65.6,73.4L65.9,73.4L67.8,72.8L69.4,71.9L70.9,70.5L72.0,69.0L73.2,66.8L74.1,66.2L78.8,66.1L81.4,66.3L82.0,66.1L82.5,65.6L82.6,63.0L82.5,62.3L82.1,61.5L81.6,61.3L78.2,61.3L76.9,61.0L76.5,61.0L75.7,61.2L74.0,61.1L73.5,60.8L73.1,60.4L72.7,59.8L72.5,59.1L71.6,57.7L69.6,55.7L67.7,54.5L66.1,53.9L64.5,53.6L62.8,53.7L60.9,54.1L60.5,54.4L59.8,54.5L58.9,55.0L57.3,56.1L56.1,57.4L56.1,57.6L55.6,58.1L54.5,60.7Z M61.9,9.1L56.2,9.6L53.9,10.1L53.2,10.1L46.6,11.9L41.4,14.0L37.3,16.0L32.1,19.4L27.7,23.1L24.4,26.5L23.8,27.3L21.7,29.6L20.9,30.9L20.2,31.7L19.3,33.4L18.1,35.0L17.0,37.0L16.4,38.0L16.2,38.8L15.3,40.5L15.3,40.8L14.4,42.5L14.1,43.5L13.3,45.2L13.3,45.9L12.8,46.8L12.8,47.2L12.4,48.1L12.4,48.9L11.9,50.3L10.7,56.2L10.5,60.1L10.3,60.9L10.3,66.5L10.7,70.4L11.0,71.6L11.1,73.1L11.7,76.6L13.5,82.7L14.4,84.7L14.9,86.2L17.6,91.7L20.6,96.3L21.1,96.8L22.6,99.0L25.0,101.7L28.5,105.2L30.6,107.1L32.2,108.3L33.2,108.9L34.9,110.1L38.3,112.2L39.1,112.6L42.0,114.2L42.6,114.3L43.9,115.0L45.1,115.4L46.0,115.8L46.9,116.0L47.2,116.3L50.2,117.2L52.0,117.5L52.8,117.8L54.4,118.1L56.5,118.6L57.4,118.6L61.9,119.1L67.0,119.1L72.6,118.5L73.2,118.3L74.7,118.1L76.1,117.7L76.6,117.7L79.9,116.8L80.7,116.4L81.6,116.3L86.6,114.3L91.3,111.8L95.0,109.3L97.6,107.2L99.1,106.1L101.7,103.6L105.1,100.0L106.0,98.6L107.2,97.4L107.7,96.4L108.9,94.9L109.1,94.4L109.5,94.0L110.6,92.1L113.3,86.8L113.5,86.0L114.1,85.0L114.5,83.7L114.8,83.1L115.7,80.4L116.2,78.3L116.4,77.8L117.4,72.4L117.5,67.8L117.1,67.4L111.8,67.3L109.4,67.1L101.4,67.1L94.6,66.9L89.5,66.9L86.7,66.8L83.3,66.9L82.8,67.4L82.6,67.7L81.9,70.3L81.2,72.0L80.3,73.8L78.7,76.1L77.8,77.1L75.7,79.2L73.4,80.6L72.6,81.2L72.1,81.3L71.3,81.8L69.0,82.6L66.6,83.2L62.0,83.3L58.5,82.6L57.7,82.2L57.1,82.1L54.4,80.8L53.6,80.2L52.3,79.5L51.1,78.4L48.7,75.7L47.2,73.6L46.3,71.7L45.2,68.7L45.2,68.2L44.9,67.2L44.7,64.8L44.7,61.9L45.1,59.2L45.8,56.8L46.1,56.3L46.3,55.6L47.2,53.7L47.6,53.2L47.6,52.9L48.5,52.0L49.4,50.6L50.8,49.2L52.7,47.6L55.3,46.0L56.2,45.6L56.9,45.5L57.5,45.1L58.4,45.0L59.4,44.6L61.6,44.2L64.4,44.0L65.2,44.2L66.9,44.3L67.4,44.5L69.0,44.7L70.4,45.4L71.2,45.5L72.4,46.2L73.1,46.4L74.9,47.6L76.3,48.7L77.3,49.8L78.2,50.6L78.7,51.4L79.4,52.1L80.1,53.2L81.6,56.0L82.9,60.3L83.5,60.8L88.7,61.0L106.0,61.1L108.0,61.2L116.0,61.3L117.7,61.1L118.0,60.6L117.6,55.8L117.2,53.5L116.8,52.2L116.7,51.2L116.4,50.4L115.6,47.4L115.4,47.0L115.3,46.4L114.0,43.0L113.9,42.5L113.1,40.9L112.6,39.5L112.1,38.8L111.3,37.2L111.2,36.7L110.4,35.7L108.6,32.7L107.5,31.4L107.2,30.9L105.7,28.9L103.0,25.8L100.5,23.5L95.2,19.1L91.0,16.4L86.6,14.1L82.7,12.4L81.7,12.2L80.9,11.8L80.2,11.7L79.3,11.3L77.2,10.8L76.5,10.5L75.3,10.3L74.1,10.0L72.8,9.9L71.2,9.5L66.1,9.1Z" fill="#000" fill-rule="evenodd"/>
</svg>