<svg xmlns="http://www.w3.org/2000/svg" viewBox="0 0 128 128" width="128" height="128">
  <path d="M26.5,29.6L23.8,32.3L23.7,32.6L22.3,33.9L21.8,34.6L17.4,39.0L13.2,43.4L11.6,44.9L9.9,46.8L9.7,47.2L9.7,59.3L10.0,74.3L9.9,75.8L10.1,78.6L10.0,90.8L10.2,94.4L10.2,104.9L10.3,107.1L10.3,109.4L10.2,111.2L10.4,118.4L10.9,118.8L11.6,118.9L29.8,118.4L33.7,118.5L39.0,118.3L41.2,118.4L48.2,118.2L80.9,117.9L81.9,117.8L82.6,117.6L99.3,100.7L99.8,100.2L99.8,99.8L99.1,99.6L95.9,99.8L94.3,99.6L92.5,99.8L80.5,99.8L62.5,100.1L56.6,100.0L51.4,100.2L33.4,100.4L29.3,100.3L28.5,99.8L28.2,67.5L28.0,62.6L28.0,51.1L27.7,42.3L27.7,29.8L27.4,29.4Z M117.9,9.8L117.4,9.5L105.2,9.5L91.0,9.8L88.8,9.7L81.0,9.9L74.8,9.8L46.2,10.1L45.6,10.2L43.4,12.4L42.6,13.5L35.0,21.1L34.2,22.0L28.3,27.9L28.0,28.4L28.1,28.8L57.8,28.8L58.9,28.6L61.7,28.7L65.8,28.5L68.4,28.6L98.8,28.3L99.6,28.7L99.8,29.4L99.8,39.0L100.0,44.8L100.0,61.5L99.8,63.4L99.4,63.8L95.0,64.0L85.7,64.0L82.6,63.9L82.3,63.6L82.1,63.0L81.9,46.8L81.8,46.6L81.3,46.3L46.7,46.6L46.2,46.7L45.8,47.3L46.0,52.9L46.0,65.3L46.2,71.5L46.1,81.4L46.5,82.2L46.8,82.4L52.5,82.4L77.0,82.0L90.1,82.0L93.5,81.8L99.4,81.9L100.0,82.4L100.1,82.7L100.0,97.4L100.2,98.9L100.4,99.1L100.8,99.1L103.6,96.5L104.1,95.8L104.4,95.6L107.9,92.0L118.6,81.2L118.6,76.0L118.4,74.8L118.4,40.8L118.2,35.7L118.1,14.4Z" fill="#000" fill-rule="evenodd"/>
</svg>