<svg xmlns="http://www.w3.org/2000/svg" viewBox="0 0 128 128" width="128" height="128">
  <path d="M117.7,10.9L117.0,10.6L114.0,10.7L106.4,10.6L105.6,11.0L105.6,17.0L105.8,19.4L105.7,21.0L105.9,22.0L105.8,28.4L106.0,31.6L106.0,47.6L106.3,54.0L106.3,64.2L106.5,69.7L106.4,71.3L106.6,77.0L106.7,86.8L106.9,88.0L107.1,103.4L107.0,104.1L106.6,104.6L87.9,104.9L74.7,104.9L63.0,104.7L30.1,104.8L23.4,104.6L22.6,103.9L22.5,96.8L22.5,94.0L22.9,93.6L23.6,93.4L64.0,93.4L67.3,93.2L82.8,93.4L86.8,93.3L92.6,93.5L94.1,93.4L94.6,93.2L95.0,92.6L94.9,84.8L94.7,83.5L94.7,81.8L94.1,81.3L87.6,81.2L82.3,81.4L76.7,81.2L67.4,81.3L61.2,81.1L35.6,81.1L32.8,81.0L19.0,81.0L17.3,81.1L10.1,81.1L9.6,81.4L9.4,82.0L9.6,94.8L9.5,106.1L9.7,108.1L9.6,113.3L9.8,114.3L9.8,116.5L10.0,117.1L10.1,117.3L11.1,117.5L36.7,117.5L45.6,117.7L116.9,117.7L118.3,117.4L118.7,117.1L118.9,116.6L118.9,95.2L118.6,83.8L118.6,75.3L118.4,74.5L118.4,64.5L118.2,62.1L118.2,59.4L118.4,57.5L118.4,45.2L118.2,42.4L118.3,26.2L118.1,21.9L118.2,12.5Z" fill="#000" fill-rule="evenodd"/>
</svg>