<svg xmlns="http://www.w3.org/2000/svg" viewBox="0 0 128 128" width="128" height="128">
  <path d="M118.1,61.8L117.4,58.9L116.9,58.1L116.6,57.0L114.9,54.3L112.3,51.8L110.3,50.3L107.9,49.1L105.6,48.4L103.4,48.0L90.0,48.0L88.5,48.2L69.4,48.3L62.4,48.5L60.1,49.0L59.4,49.4L58.6,49.6L56.1,50.8L54.2,52.2L52.7,53.7L51.3,55.3L50.4,56.8L49.1,59.6L48.4,63.0L48.4,66.5L48.9,68.9L49.5,70.7L50.8,73.3L51.7,74.6L53.0,76.1L54.7,77.5L57.3,79.1L59.6,80.0L62.3,80.5L64.6,80.5L68.2,80.7L86.8,80.7L103.4,80.6L107.3,79.7L110.6,78.4L112.9,76.7L115.0,74.4L115.7,73.4L116.7,71.6L117.4,70.1L117.8,68.4L118.3,65.5L118.3,63.6Z M112.0,14.8L109.9,13.3L106.6,11.9L103.9,11.2L101.3,11.1L98.4,10.8L70.6,10.9L67.4,11.3L64.6,11.4L62.8,11.8L60.7,11.9L52.2,13.3L47.9,14.3L45.3,15.2L40.7,17.0L40.4,17.3L38.7,17.9L38.3,18.3L36.5,19.1L34.8,20.3L33.5,20.9L32.2,21.9L32.0,21.9L28.4,24.6L25.7,27.0L21.1,31.8L18.3,35.4L17.5,36.8L17.1,37.2L16.1,39.0L15.5,40.6L15.1,41.1L15.0,41.6L13.9,43.8L13.6,44.2L11.9,48.6L10.5,53.8L9.7,58.7L9.6,60.8L9.4,61.8L9.5,63.2L9.3,65.0L9.4,68.4L9.6,69.2L9.6,70.9L9.8,72.5L10.7,76.9L11.3,79.1L12.4,81.7L12.6,82.1L13.2,83.7L14.4,85.9L15.3,88.0L17.8,92.3L19.2,94.5L19.9,95.1L21.0,96.7L24.2,100.3L25.9,101.9L26.8,102.5L30.7,105.9L32.9,107.2L33.3,107.6L33.6,107.7L36.0,109.3L38.8,110.7L39.1,110.7L43.3,112.7L45.7,113.4L47.6,114.1L58.8,116.7L61.5,116.9L63.7,117.2L69.0,117.5L104.2,117.4L106.5,117.1L109.6,116.0L111.7,114.8L113.6,113.1L115.7,110.8L116.7,109.2L117.9,106.5L118.5,104.6L118.9,102.5L118.9,99.5L118.3,96.6L117.1,93.6L115.4,91.0L113.6,89.1L112.2,87.9L110.6,86.9L107.8,85.6L104.8,84.8L103.0,84.5L64.4,84.5L61.6,84.3L58.4,83.7L55.5,82.5L52.3,80.6L49.9,78.8L47.5,76.2L46.5,74.6L46.1,74.2L46.0,73.8L44.8,71.3L44.1,68.3L43.8,66.4L43.8,63.0L44.1,61.1L45.2,57.7L46.8,54.6L48.8,51.9L51.2,49.6L53.9,47.7L56.4,46.5L60.1,45.5L62.2,45.3L63.4,45.1L65.3,45.0L80.8,44.9L83.7,44.7L88.6,44.8L93.1,44.6L99.6,44.6L102.2,44.2L105.2,43.5L106.1,43.0L108.6,42.2L111.1,40.8L113.8,38.4L115.7,35.7L117.1,32.8L117.6,31.2L117.8,29.5L117.8,25.8L117.7,24.2L117.2,22.3L116.0,19.7L114.9,18.1L114.8,17.7L114.1,17.0L113.9,16.6Z" fill="#000" fill-rule="evenodd"/>
</svg>