<svg xmlns="http://www.w3.org/2000/svg" viewBox="0 0 128 128" width="128" height="128">
  <path d="M32.9,13.9L28.3,16.8L24.8,19.7L21.2,23.6L21.0,24.1L20.4,24.7L20.1,25.3L19.3,26.3L17.3,29.3L14.8,34.6L14.5,36.2L14.2,36.7L13.2,40.3L13.0,42.5L12.6,43.9L12.3,49.2L12.4,51.9L12.2,52.8L12.2,63.6L12.4,66.1L12.2,70.4L12.4,72.3L12.4,82.2L12.5,84.5L12.8,85.9L12.8,87.8L13.1,88.8L13.6,89.9L13.9,91.2L15.4,94.7L15.6,95.8L16.2,96.8L16.5,97.7L17.2,99.1L18.0,100.2L18.7,101.6L20.6,104.2L21.8,105.6L23.7,108.0L24.4,108.4L26.0,110.2L26.9,110.6L29.1,112.4L32.9,114.8L34.4,115.3L36.0,116.2L36.6,116.3L37.1,116.6L41.3,117.9L43.1,118.2L44.2,118.6L45.2,118.6L46.7,118.9L49.7,119.0L52.9,118.9L53.6,118.7L62.9,118.8L63.4,118.6L72.9,118.6L74.2,118.5L79.2,118.5L85.2,117.6L86.1,117.2L86.9,117.1L87.7,116.8L88.8,116.6L92.5,115.2L95.9,113.4L96.6,113.3L97.6,112.4L98.5,111.9L100.4,110.6L105.6,106.0L106.1,105.2L107.2,104.2L107.5,103.5L108.1,102.9L108.8,101.7L110.7,99.1L113.2,94.1L114.8,89.1L115.6,86.0L116.0,82.9L116.1,78.2L115.8,68.0L115.7,67.6L115.0,66.9L114.2,66.7L105.5,66.7L100.1,66.9L96.3,66.8L74.2,67.0L73.8,67.1L73.1,67.6L73.0,68.1L73.0,80.3L73.1,81.6L73.6,82.2L74.3,82.1L76.8,80.1L77.8,79.5L78.5,78.8L79.0,78.6L82.1,76.2L82.5,76.1L83.8,75.1L86.0,74.3L88.7,74.3L91.0,75.0L93.0,76.6L93.6,77.2L93.8,77.8L94.3,78.3L94.7,79.1L95.5,81.6L95.5,83.5L95.3,84.8L95.0,86.0L94.5,86.9L94.0,87.5L93.8,88.1L91.5,90.5L90.0,91.4L87.8,93.4L87.3,93.6L82.6,97.4L81.4,98.2L80.7,98.9L78.3,100.6L75.8,102.7L74.7,103.4L73.1,104.9L71.6,105.9L69.3,107.9L67.1,108.8L65.8,109.2L63.3,109.2L61.0,108.4L60.5,108.0L57.5,106.0L56.4,105.0L55.1,104.3L53.4,102.8L52.4,102.2L50.9,101.0L47.3,98.5L45.5,97.0L41.9,94.3L41.1,93.9L39.7,92.7L38.8,92.1L37.7,91.3L36.8,90.7L35.1,89.1L34.4,88.4L33.7,87.2L33.1,84.7L33.2,81.8L33.7,79.9L34.5,78.7L34.7,78.2L36.4,76.5L37.5,75.7L39.5,74.9L42.5,74.7L43.6,74.9L45.3,75.5L48.2,77.5L51.0,79.7L52.4,80.5L53.9,81.8L54.9,82.2L55.3,82.2L55.7,82.0L56.0,80.8L56.0,78.7L55.8,76.9L55.9,64.5L55.7,54.0L55.8,38.8L55.7,37.2L55.7,29.1L56.0,26.6L56.4,25.1L57.6,23.1L59.5,21.1L60.5,20.6L63.1,19.8L66.2,19.8L68.2,20.6L70.1,22.3L71.5,23.9L72.2,25.4L72.7,27.8L72.7,32.9L72.9,33.8L72.9,63.0L73.0,63.3L73.4,63.9L74.1,64.1L78.5,64.1L81.6,64.0L91.8,64.0L97.7,63.9L101.9,64.0L104.6,63.8L114.7,63.8L114.9,63.7L115.5,63.1L115.7,59.5L115.5,48.8L115.6,46.6L115.2,42.0L113.5,35.3L111.5,30.7L111.5,30.5L109.9,27.6L107.7,24.4L103.7,19.9L99.6,16.5L99.2,16.3L98.5,15.7L96.8,14.7L92.0,12.2L91.2,12.0L90.5,11.7L87.9,10.9L87.5,10.7L86.0,10.4L84.9,10.1L83.6,10.0L82.7,9.7L79.8,9.4L47.8,9.4L45.2,9.7L44.2,10.0L43.3,10.0L42.0,10.4L41.3,10.5L39.3,11.0L36.0,12.3Z" fill="#000" fill-rule="evenodd"/>
</svg>