<svg xmlns="http://www.w3.org/2000/svg" viewBox="0 0 128 128" width="128" height="128">
  <path d="M117.8,72.2L117.6,72.2L117.1,73.6L116.8,75.5L116.0,78.5L114.5,83.2L113.3,86.1L111.1,90.6L110.0,92.3L109.4,93.2L109.3,93.6L108.7,94.2L107.7,95.9L107.2,96.4L106.8,97.2L106.1,97.9L105.6,98.6L104.4,99.9L103.8,100.7L102.9,101.5L102.2,102.5L101.1,103.2L100.8,103.7L99.2,105.2L96.6,107.4L93.0,109.9L88.1,112.7L84.6,114.3L80.5,115.9L80.1,115.9L79.2,116.2L79.0,116.4L77.8,116.6L76.8,116.9L75.2,117.2L74.9,117.4L71.4,118.0L70.9,118.3L71.0,118.5L91.6,118.6L94.2,118.4L105.8,118.3L117.4,118.3L117.9,118.1L118.3,117.4L118.3,87.9L118.1,84.7L118.1,74.3Z M60.2,10.0L59.0,10.3L57.2,10.3L56.7,10.5L54.3,10.8L53.4,11.1L51.7,11.3L46.8,12.7L46.2,13.1L44.4,13.7L41.0,15.2L39.2,16.2L37.5,17.0L37.0,17.4L36.0,17.9L34.0,19.3L33.5,19.5L33.1,20.0L32.3,20.4L27.4,24.4L23.7,28.1L22.3,29.9L21.8,30.3L20.4,32.4L20.1,33.0L19.0,34.4L18.8,34.9L18.4,35.3L18.2,35.8L17.7,36.5L17.5,37.1L17.1,37.5L16.9,38.1L15.5,40.5L15.4,41.0L14.3,43.3L12.8,47.0L12.0,49.9L11.7,50.9L11.7,51.3L11.3,52.5L10.5,56.3L10.0,62.0L10.0,67.5L10.2,69.7L11.1,75.6L12.3,80.5L13.5,84.1L14.3,85.6L14.4,86.2L15.0,87.1L16.0,89.5L17.0,91.1L17.7,92.6L19.6,95.4L19.6,95.7L20.5,96.7L21.7,98.5L22.8,99.7L23.8,101.0L26.2,103.4L30.3,107.1L34.7,110.3L39.7,113.2L40.8,113.6L41.0,113.8L42.6,114.5L43.0,114.6L43.3,114.9L44.2,115.1L44.6,115.3L45.7,115.6L46.4,116.0L48.1,116.6L53.4,118.0L58.7,118.7L62.9,118.9L64.5,118.8L64.7,118.7L64.9,118.3L64.8,101.2L65.5,100.6L69.4,100.2L71.7,99.8L72.4,99.5L73.7,99.3L74.5,98.9L77.1,98.2L78.6,97.4L79.5,97.1L82.5,95.5L83.9,94.5L85.2,93.8L86.8,92.6L90.2,89.3L93.6,85.4L96.1,81.2L97.7,78.0L98.5,75.6L99.4,72.3L100.2,67.7L100.4,64.7L100.3,61.7L99.7,57.3L99.1,54.7L98.4,52.9L98.3,52.2L97.3,49.7L97.2,49.2L96.8,48.7L95.6,46.1L93.5,42.9L90.0,38.7L87.7,36.6L86.7,35.8L85.1,34.3L83.4,33.5L80.9,32.0L77.6,30.4L75.4,29.7L74.7,29.4L73.9,29.3L73.4,29.0L68.4,28.0L65.5,28.0L64.7,27.8L64.4,27.5L64.2,26.4L64.1,10.5L63.7,10.0Z M61.6,28.5L63.2,28.5L63.7,29.0L63.8,29.5L63.8,45.2L63.2,45.9L61.2,46.2L59.4,46.6L57.3,47.4L54.9,48.6L52.4,50.5L49.9,53.1L48.9,54.8L48.5,55.4L47.0,58.7L46.2,62.2L46.1,65.4L46.4,67.5L47.0,69.7L47.6,71.5L49.0,74.3L51.5,77.2L54.3,79.5L56.3,80.6L58.5,81.6L60.9,82.2L63.2,82.4L63.9,82.7L64.1,83.1L64.3,99.3L63.9,100.0L63.4,100.0L61.2,100.0L58.9,99.5L57.0,99.3L54.4,98.7L52.3,97.9L51.2,97.6L50.8,97.3L48.2,96.3L46.7,95.5L45.3,94.5L45.0,94.5L41.9,92.3L39.0,89.6L36.8,87.3L36.6,86.8L36.3,86.5L35.3,85.3L35.1,84.8L34.3,83.9L33.5,82.4L33.1,81.8L32.4,80.3L32.1,80.1L31.1,77.7L29.4,72.4L28.9,69.6L28.6,65.2L28.7,61.5L29.0,58.3L30.1,54.0L30.5,52.9L31.1,51.0L32.2,48.7L32.8,47.9L33.2,46.8L34.8,44.2L37.5,40.7L41.3,36.9L44.7,34.3L45.6,33.9L47.0,32.9L50.0,31.4L53.6,30.0L57.3,29.1Z M69.6,10.1L69.6,10.4L75.4,11.3L76.0,11.6L77.7,11.9L77.9,12.1L80.9,12.8L81.4,13.1L82.5,13.4L83.4,13.9L83.9,14.0L84.3,14.3L84.6,14.3L86.7,15.3L87.1,15.4L90.3,17.1L90.6,17.3L91.4,17.6L91.6,17.9L92.2,18.1L94.3,19.6L95.3,20.2L100.3,24.3L103.2,27.2L106.1,30.5L109.2,34.7L109.5,35.5L110.0,36.1L111.1,37.9L111.7,39.3L112.4,40.3L114.7,45.9L116.3,51.0L117.3,55.6L117.8,55.5L118.0,54.7L118.0,39.4L117.8,25.7L117.9,23.0L117.7,21.9L117.7,10.9L117.6,9.9L117.4,9.7L116.8,9.5L103.8,9.5L80.3,9.8L72.3,9.7Z" fill="#000" fill-rule="evenodd"/>
</svg>