<svg xmlns="http://www.w3.org/2000/svg" viewBox="0 0 128 128" width="128" height="128">
  <path d="M67.1,9.0L60.7,9.2L56.1,9.8L52.4,10.8L52.0,10.8L50.3,11.4L49.7,11.5L47.4,12.3L47.0,12.5L44.7,13.5L44.5,13.5L43.2,14.1L43.0,14.4L41.7,14.9L41.2,15.3L40.9,15.4L40.7,15.6L39.4,16.3L39.1,16.6L38.7,16.7L33.6,20.5L29.8,24.1L28.1,25.9L27.5,26.7L26.4,27.9L24.1,31.0L22.8,33.3L22.4,33.7L22.0,34.7L21.0,36.3L20.7,37.0L19.2,40.0L18.5,42.3L18.3,42.6L18.0,43.5L17.8,43.9L17.6,44.8L17.3,45.5L16.8,47.4L16.7,48.6L16.4,49.2L15.1,57.3L14.6,62.5L14.8,70.9L14.9,71.5L14.9,72.5L15.2,74.1L15.2,75.3L16.0,79.7L16.4,81.0L16.4,81.8L16.8,83.0L17.2,84.7L17.6,85.6L17.8,86.5L18.0,86.8L18.8,88.8L19.4,90.0L19.6,90.8L20.0,91.5L20.1,91.9L21.2,93.8L21.4,94.3L21.9,94.8L22.7,96.4L24.8,99.6L25.4,100.2L26.6,101.8L28.5,103.9L30.5,106.0L34.3,109.2L36.5,110.8L36.9,111.2L38.1,111.8L38.4,112.1L40.7,113.4L42.4,114.1L42.7,114.3L44.1,114.9L44.5,115.2L45.1,115.4L48.0,116.6L53.0,118.0L55.2,118.5L58.3,118.8L58.8,119.0L60.3,119.0L62.6,119.2L68.5,119.0L70.6,118.7L71.4,118.5L74.8,117.9L80.1,116.4L81.4,115.8L81.9,115.7L84.0,114.8L88.4,112.7L92.9,109.7L95.5,107.7L97.2,106.1L98.3,105.3L102.2,101.0L105.7,96.4L107.7,93.2L110.1,88.4L110.3,87.7L110.5,87.3L111.1,85.6L111.5,84.8L112.0,83.4L112.0,82.7L112.3,82.3L112.5,81.3L112.8,80.8L112.8,80.3L113.6,76.5L113.5,75.6L113.4,75.3L113.1,75.2L102.5,75.1L100.9,75.2L100.5,75.3L100.2,75.6L99.8,76.7L99.6,77.7L99.3,78.3L98.2,81.8L97.9,82.2L97.8,82.6L96.2,85.7L96.1,86.1L93.6,90.1L90.6,93.7L88.3,95.9L86.5,97.4L82.6,100.1L79.0,102.0L78.5,102.1L77.6,102.6L76.1,103.0L75.2,103.5L73.3,104.0L73.1,104.1L70.2,104.8L65.1,105.3L60.3,105.1L59.0,104.9L58.3,104.9L55.6,104.3L55.3,104.1L53.8,103.8L52.1,103.3L51.7,103.0L49.9,102.4L49.0,102.0L48.6,101.7L48.1,101.5L46.5,100.5L45.0,99.8L43.4,98.5L42.7,98.2L39.5,95.4L37.7,93.6L36.3,91.8L34.6,89.5L34.4,88.9L33.2,87.2L33.1,86.8L32.5,85.7L31.4,83.5L31.4,83.3L30.5,81.3L30.5,80.9L29.7,78.8L29.7,78.5L28.8,75.4L28.6,74.4L28.5,74.2L28.4,73.2L27.8,70.1L27.4,65.8L27.3,63.5L27.4,57.3L27.7,56.1L27.8,53.8L28.1,53.0L28.3,51.3L28.7,50.2L29.3,47.8L29.5,47.6L29.7,46.7L30.8,43.8L32.5,40.4L35.5,36.0L38.7,32.4L40.3,30.8L44.9,27.4L45.3,27.2L46.2,26.5L46.9,26.2L47.9,25.6L52.7,23.5L53.6,23.3L55.5,22.7L57.4,22.2L62.6,21.4L66.6,21.4L70.5,21.8L73.3,22.3L74.6,22.7L75.4,22.8L77.1,23.4L79.9,24.6L80.5,24.7L81.7,25.4L82.2,25.6L83.2,26.2L83.7,26.4L86.4,28.2L88.2,29.6L88.5,29.9L89.0,30.2L90.8,31.9L93.6,35.0L95.1,37.0L97.8,41.2L97.9,41.7L99.1,44.2L99.2,44.6L99.9,46.2L100.1,47.2L100.4,47.9L100.4,48.3L99.8,48.8L97.1,48.9L96.7,48.7L96.1,48.1L95.5,46.2L94.2,43.5L93.9,43.1L93.7,42.6L92.4,40.4L91.6,39.4L90.7,38.0L87.9,34.9L83.7,31.3L83.4,31.3L82.2,30.5L79.0,28.6L78.5,28.6L78.2,28.3L77.5,28.2L77.1,27.8L75.9,27.4L71.8,26.2L66.7,25.5L62.2,25.6L58.7,26.2L55.5,27.0L51.9,28.2L49.7,29.4L49.1,29.6L47.2,30.8L44.1,33.0L40.6,36.4L38.8,38.4L36.3,42.1L35.3,44.1L35.1,44.3L34.2,46.3L34.0,47.2L33.3,48.6L32.7,51.0L32.5,51.5L32.2,53.2L31.6,56.3L31.6,56.8L31.4,57.2L31.2,60.9L31.2,64.5L31.7,70.5L32.1,71.9L32.5,74.8L32.6,75.0L32.9,76.3L34.2,80.4L35.6,83.4L35.9,83.7L36.0,84.2L36.3,84.5L36.5,85.1L37.1,85.8L38.1,87.7L40.3,90.6L43.0,93.3L44.0,94.2L44.6,94.6L45.4,95.3L47.4,96.7L51.3,98.8L54.7,100.1L58.4,101.0L59.3,101.0L60.2,101.3L61.6,101.4L65.3,101.5L69.8,101.0L70.5,100.8L71.6,100.6L72.8,100.2L73.2,100.2L74.0,99.8L74.8,99.7L75.1,99.4L76.8,98.9L78.4,98.0L78.8,97.9L81.0,96.7L82.1,95.9L82.6,95.7L85.0,93.8L85.5,93.5L88.3,90.7L88.9,89.9L89.9,88.8L91.5,86.5L92.3,85.0L92.9,84.2L93.0,83.8L94.6,80.5L94.8,79.5L95.6,77.6L96.0,75.9L95.5,75.4L95.3,75.3L86.0,75.2L83.8,75.2L83.3,75.8L82.2,78.1L80.4,80.8L79.3,82.2L77.1,84.3L76.7,84.5L75.7,85.3L74.9,85.7L74.0,86.4L72.1,87.3L69.5,88.2L66.9,88.7L65.3,88.9L61.4,88.7L60.2,88.5L59.6,88.2L59.1,88.2L57.3,87.6L56.4,87.1L55.5,86.8L54.4,86.1L53.5,85.6L51.9,84.4L49.3,81.8L47.7,79.6L47.3,78.5L46.5,77.1L45.5,74.7L44.6,71.6L44.2,68.8L44.0,68.0L43.9,63.8L44.1,61.9L44.0,61.4L44.1,59.7L44.2,59.1L44.2,57.6L45.3,53.2L46.0,51.3L46.9,49.7L47.0,49.1L48.4,47.0L49.4,45.7L51.0,44.1L52.5,42.8L54.4,41.5L56.9,40.3L59.8,39.2L60.5,39.1L61.5,38.8L63.8,38.6L65.7,38.6L67.7,38.7L70.6,39.4L72.1,40.0L72.8,40.2L74.8,41.1L76.7,42.3L78.3,43.5L80.1,45.4L81.9,47.7L82.5,48.9L83.1,49.7L84.1,52.0L84.2,52.5L84.5,53.0L85.0,53.2L87.2,53.3L87.7,53.2L88.0,52.9L88.1,52.6L88.0,51.8L87.7,51.4L87.7,50.9L87.1,49.7L86.8,48.7L85.7,46.7L85.5,46.5L85.3,46.0L84.1,44.2L81.9,41.7L80.4,40.3L77.1,38.0L75.9,37.4L75.7,37.2L74.0,36.5L73.6,36.2L71.2,35.4L67.4,34.7L62.6,34.7L60.0,35.1L57.1,35.9L56.6,36.2L54.4,37.0L52.0,38.4L49.4,40.3L46.2,43.4L44.5,45.9L43.1,48.2L42.0,50.9L41.3,53.2L40.7,56.0L40.7,57.5L40.3,60.5L40.3,65.5L40.5,69.3L41.0,72.4L41.8,75.9L43.4,79.8L45.0,82.5L47.0,85.1L48.5,86.6L51.0,88.7L53.2,90.0L55.2,91.1L56.8,91.7L59.5,92.4L61.3,92.8L64.7,92.9L67.5,92.7L70.9,92.0L72.9,91.3L73.2,91.1L75.2,90.3L78.5,88.2L80.9,86.2L81.9,85.2L83.6,83.1L85.7,80.0L86.5,79.7L88.5,79.7L89.0,79.9L89.3,80.2L89.3,80.4L88.4,82.5L85.7,86.4L82.3,89.9L79.1,92.3L78.6,92.4L77.7,93.1L77.2,93.2L75.9,94.0L75.5,94.1L73.8,94.9L72.0,95.5L71.4,95.8L70.5,95.9L69.7,96.1L67.0,96.6L62.8,96.7L59.4,96.3L56.3,95.5L52.7,94.2L52.4,94.0L51.0,93.3L48.1,91.4L46.1,89.7L43.8,87.5L43.7,87.2L42.6,86.0L40.8,83.5L39.4,80.6L38.9,79.3L38.5,78.7L38.3,77.9L38.2,77.8L37.7,76.3L37.6,75.7L37.2,74.8L37.2,74.1L36.9,73.6L36.7,72.0L36.3,70.6L36.3,69.9L36.0,68.5L35.9,66.7L35.7,66.0L35.6,62.5L35.9,57.3L36.1,56.4L36.1,55.6L36.4,53.8L36.8,53.0L37.2,51.0L37.6,50.1L37.7,49.3L38.3,48.1L38.6,47.2L39.3,46.0L39.5,45.4L41.2,42.6L43.4,39.9L45.7,37.5L48.9,34.9L51.8,33.3L52.1,33.1L54.7,32.1L55.0,31.8L55.8,31.7L57.2,31.1L59.4,30.7L60.4,30.4L61.4,30.4L63.0,30.1L66.2,30.1L68.3,30.2L72.4,31.0L75.6,32.1L76.3,32.5L77.9,33.1L80.0,34.3L81.4,35.2L84.1,37.3L85.9,39.1L88.9,43.0L89.4,44.0L90.1,45.0L91.6,48.1L92.9,52.1L93.0,52.7L93.5,53.2L100.4,53.4L101.9,53.2L103.7,53.3L105.0,53.2L105.3,52.8L105.3,51.7L105.0,50.1L104.4,47.7L104.4,47.4L103.8,45.7L103.6,45.3L103.1,43.7L102.8,43.2L102.2,41.6L101.9,41.1L101.8,40.7L99.6,36.6L99.3,36.3L98.0,34.3L95.1,30.7L92.4,28.0L88.9,25.1L84.2,22.1L81.2,20.7L79.3,19.9L77.6,19.3L77.2,19.3L76.4,18.9L75.2,18.8L73.2,18.1L68.8,17.5L64.8,17.3L62.5,17.4L61.8,17.6L60.3,17.6L56.0,18.3L53.7,18.9L52.8,19.3L51.9,19.5L50.8,19.9L50.5,20.1L49.7,20.3L48.7,20.8L47.5,21.2L47.1,21.5L44.9,22.6L41.5,24.8L37.2,28.3L33.6,32.0L32.1,34.0L30.4,36.4L28.8,39.2L28.6,39.5L27.8,41.1L27.5,41.5L26.2,44.6L25.2,47.7L23.9,52.8L23.9,54.2L23.5,56.3L23.1,60.5L23.1,63.6L23.2,65.1L23.2,67.1L23.4,67.8L23.6,71.4L23.9,72.6L23.9,73.9L25.0,79.0L25.6,81.0L25.8,81.8L26.1,82.5L26.2,83.2L26.6,83.7L26.6,84.2L27.0,84.7L27.1,85.3L27.4,85.8L28.9,89.0L29.1,89.3L30.2,91.3L32.3,94.3L34.7,97.2L37.5,99.9L39.6,101.8L43.0,104.1L45.2,105.3L45.4,105.5L46.5,105.9L47.4,106.5L48.9,106.9L50.3,107.7L51.3,107.9L51.9,108.2L52.5,108.3L53.2,108.6L55.2,109.0L56.0,109.3L60.7,110.0L66.1,110.0L70.6,109.6L71.3,109.3L73.2,109.0L73.8,108.8L76.4,108.1L79.8,106.9L81.3,106.1L81.7,106.0L82.1,105.7L83.4,105.1L86.1,103.5L90.4,100.4L93.7,97.2L94.0,96.8L95.5,95.3L96.5,94.0L96.7,93.6L97.9,92.3L100.7,87.3L101.4,85.6L101.8,85.2L102.8,82.4L103.1,81.9L103.6,80.3L104.2,79.6L107.4,79.5L107.8,79.6L108.1,79.9L108.1,80.5L108.0,81.4L107.7,82.1L107.5,83.0L107.1,84.2L106.7,85.0L106.7,85.3L106.2,86.1L106.1,86.5L104.1,90.7L103.8,91.1L103.4,91.9L100.8,95.8L98.9,98.2L96.5,100.8L93.6,103.5L91.9,104.9L91.1,105.4L89.5,106.7L87.2,108.1L84.6,109.6L83.4,110.0L82.5,110.6L82.1,110.7L81.8,110.9L78.4,112.2L77.6,112.4L77.1,112.7L76.3,112.8L75.9,113.1L75.5,113.1L73.1,113.7L67.9,114.5L62.9,114.7L59.8,114.5L56.2,114.1L55.2,113.8L54.0,113.6L50.9,112.8L48.2,111.7L47.7,111.6L45.9,110.8L45.0,110.4L43.6,109.6L42.8,109.4L41.9,108.8L40.7,108.2L37.0,105.7L32.4,101.6L29.7,98.6L27.3,95.5L26.4,94.0L25.4,92.5L24.1,89.8L23.5,88.8L22.9,87.2L22.2,85.7L21.5,83.6L21.3,83.2L21.1,82.2L20.9,81.8L20.7,81.0L20.5,80.4L19.9,77.6L19.8,76.7L19.5,75.9L19.5,75.2L19.2,73.4L18.9,70.0L18.8,69.2L18.6,62.0L19.2,56.4L19.4,55.4L19.5,54.3L19.9,52.7L19.9,51.7L20.5,49.3L20.5,48.9L22.3,43.2L24.0,39.1L26.0,35.4L29.3,30.7L33.3,26.2L35.2,24.5L36.0,23.7L40.0,20.7L41.1,20.1L41.5,19.7L41.8,19.6L42.0,19.4L42.5,19.2L42.7,19.0L43.5,18.7L43.8,18.4L44.2,18.3L45.3,17.6L45.7,17.6L47.4,16.7L48.9,16.1L49.3,15.9L53.1,14.8L53.3,14.6L55.3,14.2L55.6,14.1L56.7,14.0L57.8,13.7L61.6,13.2L67.3,13.1L72.1,13.6L72.8,13.8L74.4,14.1L77.9,14.9L80.5,15.8L81.0,16.1L81.4,16.2L82.2,16.6L82.9,16.8L87.2,18.9L91.2,21.5L95.5,25.0L98.8,28.4L99.5,29.4L100.6,30.5L102.7,33.6L103.7,35.2L104.2,36.0L106.1,39.8L106.3,40.4L107.2,42.3L107.7,44.0L108.0,44.4L108.1,45.0L109.2,49.1L109.3,50.1L109.9,52.9L110.4,53.3L112.8,53.3L113.3,53.0L113.4,51.3L113.2,50.7L113.2,50.0L113.0,49.3L112.9,48.1L112.4,45.6L112.1,45.2L112.0,44.3L111.6,43.7L111.6,43.0L111.2,42.3L111.0,41.4L110.7,40.8L110.3,39.5L109.8,38.7L108.8,36.3L107.4,34.0L106.4,32.0L104.1,28.6L101.8,25.9L98.5,22.4L98.1,22.2L95.7,19.9L91.1,16.6L88.8,15.3L87.7,14.6L84.8,13.2L83.4,12.7L83.0,12.4L82.4,12.3L81.8,12.0L80.2,11.4L79.5,11.3L78.9,11.0L77.8,11.0L75.7,10.1L72.8,9.8L72.0,9.5L71.2,9.5L70.2,9.3Z" fill="#000" fill-rule="evenodd"/>
</svg>