<svg xmlns="http://www.w3.org/2000/svg" viewBox="0 0 128 128" width="128" height="128">
  <path d="M64.1,9.1L62.2,9.4L58.2,9.5L56.5,9.9L53.8,10.0L53.2,10.4L52.0,10.5L51.0,10.8L50.1,10.9L49.3,11.3L48.2,11.5L47.8,11.7L47.0,11.9L46.6,12.1L45.0,12.6L44.0,13.1L42.7,13.5L37.8,16.0L37.3,16.4L36.2,16.9L32.8,19.1L32.7,19.1L28.4,22.4L25.6,25.0L22.2,28.8L21.8,29.4L20.4,31.1L20.4,31.2L19.2,32.8L18.9,33.4L18.5,33.8L15.8,38.1L15.6,38.8L14.9,40.1L14.7,40.4L14.6,40.9L13.5,42.9L13.2,44.0L12.9,44.5L11.9,47.2L11.7,48.4L11.4,48.9L11.4,49.2L10.9,50.7L10.8,52.1L10.1,54.4L10.0,56.1L9.5,58.1L9.6,60.2L9.5,61.9L9.5,64.1L9.7,64.9L9.7,66.2L9.5,67.3L9.6,69.7L10.4,74.1L10.4,74.9L10.6,75.4L10.8,76.6L11.6,79.3L11.7,80.0L12.5,82.1L12.8,83.5L15.4,89.4L17.6,93.3L20.5,97.6L24.0,101.7L27.6,105.2L30.6,107.7L33.6,109.9L36.1,111.5L37.1,111.9L39.1,113.1L42.3,114.6L46.4,116.2L47.6,116.4L48.2,116.7L49.5,117.2L50.2,117.2L51.9,117.7L52.7,117.8L54.7,118.3L56.0,118.4L57.6,118.7L59.1,118.8L60.2,119.0L62.5,119.1L66.1,119.0L67.5,118.8L70.1,118.7L71.1,118.5L74.0,118.1L74.5,117.9L75.4,117.8L76.7,117.4L77.4,117.4L79.7,116.7L82.2,115.9L85.5,114.6L85.7,114.6L86.2,114.2L86.8,114.1L88.9,112.9L89.3,112.9L89.8,112.4L90.3,112.3L93.8,110.2L94.1,109.9L95.9,108.7L98.9,106.4L101.7,103.9L104.7,100.9L106.6,98.7L107.6,97.2L108.2,96.5L109.8,94.1L110.9,93.0L111.3,91.8L111.8,91.3L112.2,90.7L112.4,89.7L113.7,87.1L114.7,84.7L115.4,83.8L115.6,82.7L115.9,82.2L117.2,78.5L118.5,71.1L118.8,67.3L118.8,64.3L118.5,60.1L118.6,58.4L118.3,57.3L118.1,55.6L117.9,54.8L117.8,53.8L117.6,53.0L117.6,52.1L117.2,50.9L116.9,50.3L116.7,49.1L115.3,44.8L114.1,41.8L112.3,38.2L110.8,35.6L109.9,34.2L109.2,33.0L108.6,32.4L106.9,30.0L104.7,27.3L100.0,22.7L96.1,19.6L91.1,16.4L87.5,14.5L86.2,14.0L85.6,13.6L85.1,13.5L83.6,12.8L82.5,12.5L82.1,12.3L80.4,11.7L79.8,11.7L77.6,10.9L76.1,10.7L75.2,10.4L70.2,9.5L68.9,9.5L67.2,9.3L65.5,9.3Z M103.8,70.7L104.6,71.7L104.7,73.9L104.5,76.5L103.6,79.9L102.9,81.9L102.5,82.7L102.1,84.0L100.0,88.3L99.4,89.0L98.8,90.1L98.5,90.4L98.0,91.3L97.1,92.3L96.7,93.1L95.3,94.7L91.5,98.2L90.1,99.4L88.3,100.4L85.7,101.8L84.9,102.0L83.5,102.7L81.0,103.7L79.6,103.9L77.2,104.6L75.9,104.7L74.5,104.7L73.9,104.7L73.3,104.3L72.7,103.8L72.2,102.5L72.1,101.7L71.7,100.3L71.0,94.0L71.0,91.8L70.5,87.0L70.4,79.5L70.2,77.2L70.3,71.3L70.5,70.7L70.7,70.2L71.5,69.6L72.8,69.2L85.3,69.1L86.2,69.3L88.3,69.2L90.9,69.4L94.3,69.4L97.4,69.9L100.2,70.0Z M54.0,22.1L55.6,22.2L56.2,22.5L56.7,23.0L57.2,24.2L57.2,24.6L57.6,26.1L57.7,28.0L58.0,29.5L58.0,30.6L58.2,31.4L58.1,34.5L58.3,37.4L58.2,41.9L58.6,44.5L58.6,55.7L58.5,56.7L57.7,57.6L56.7,57.9L51.2,57.9L49.3,57.8L48.8,57.6L46.4,57.8L41.7,57.3L40.1,57.3L39.1,57.0L37.6,56.9L35.9,56.5L34.9,56.6L34.5,57.4L34.5,70.6L34.6,70.9L34.9,71.2L36.1,71.3L37.2,71.0L38.5,70.8L39.2,70.6L42.5,70.3L44.4,70.0L45.8,70.0L47.5,69.8L55.7,69.6L57.0,69.8L57.5,70.1L58.1,70.7L58.3,71.5L58.5,73.0L58.6,84.6L58.4,85.5L58.5,88.8L58.1,92.2L58.2,93.7L58.0,96.2L57.7,98.4L57.7,100.0L57.4,101.0L57.3,102.5L56.9,103.6L56.3,104.2L54.9,104.6L54.1,104.6L52.7,104.3L51.3,104.1L50.8,103.8L48.5,103.3L47.7,102.9L47.0,102.7L46.9,102.5L44.9,101.9L41.4,100.1L39.8,99.1L38.9,98.4L38.1,98.0L36.4,96.5L35.0,95.6L32.7,93.3L31.6,92.1L30.5,90.5L28.7,88.3L28.5,87.8L27.6,86.6L27.5,86.2L27.2,85.9L27.1,85.4L26.3,84.1L25.8,82.6L25.5,82.2L25.3,81.4L25.0,81.0L25.0,80.7L24.6,79.9L23.2,75.4L22.7,73.2L22.5,71.6L22.3,70.7L22.3,69.4L22.0,67.2L21.9,65.5L22.0,62.1L22.4,55.6L22.6,55.1L22.9,52.5L23.5,50.8L24.0,48.5L24.3,47.9L25.0,45.7L25.4,45.0L25.5,44.6L26.0,43.8L26.4,42.7L27.6,41.0L28.1,40.0L28.5,39.7L28.9,38.7L29.8,37.6L29.8,37.3L31.1,35.7L31.8,34.6L35.5,30.9L38.1,28.7L38.8,28.4L39.1,28.0L39.5,27.9L41.6,26.4L44.8,24.8L45.1,24.8L45.7,24.5L49.3,23.1L52.6,22.3Z M72.7,22.3L73.4,22.0L76.0,22.0L78.1,22.3L81.1,23.2L84.4,24.5L88.1,26.3L92.1,29.4L95.1,32.4L96.4,34.1L97.0,34.7L99.1,37.7L101.0,41.1L101.2,41.9L101.8,43.0L102.1,43.9L102.5,44.8L104.2,51.0L104.5,52.7L104.4,54.8L103.7,55.7L102.4,56.3L98.0,57.0L96.3,57.1L94.4,57.4L92.0,57.4L90.9,57.6L90.0,57.5L86.1,57.9L76.0,57.8L74.5,58.0L72.1,58.0L71.6,57.9L70.8,57.3L70.5,56.6L70.3,54.7L70.5,38.2L70.7,37.5L70.7,36.3L70.9,34.5L71.0,30.5L71.5,25.2L72.0,23.2Z" fill="#000" fill-rule="evenodd"/>
</svg>