<svg xmlns="http://www.w3.org/2000/svg" viewBox="0 0 128 128" width="128" height="128">
  <path d="M62.3,51.4L60.4,51.9L60.1,52.2L59.1,52.4L58.2,52.9L55.3,55.1L53.1,57.7L51.9,59.6L51.1,61.9L50.8,63.1L50.6,65.0L50.6,67.0L50.8,67.6L50.9,68.9L51.9,71.8L52.9,73.4L53.9,74.7L54.1,75.1L55.4,76.5L57.4,78.1L58.8,78.6L59.5,79.1L61.2,79.7L63.8,80.1L67.3,79.9L68.9,79.4L70.3,79.1L70.8,78.7L71.5,78.5L74.0,76.8L76.1,74.8L76.2,74.3L77.4,72.9L78.6,70.0L79.0,68.0L79.2,66.3L79.2,64.1L78.1,60.4L77.3,58.6L76.0,56.7L74.5,55.2L73.0,54.0L71.5,53.0L70.1,52.5L68.7,51.8L67.2,51.5L64.7,51.3Z M27.6,27.5L27.4,28.0L27.3,28.9L27.2,43.3L27.2,101.4L27.4,101.7L27.8,102.0L29.9,102.1L69.9,102.1L74.2,102.3L84.8,102.2L86.2,102.4L89.1,102.2L98.9,102.3L100.9,102.1L101.2,101.7L101.3,99.8L101.2,95.5L101.4,92.9L101.4,84.5L101.6,81.8L101.5,77.3L101.7,76.7L101.7,68.6L101.3,66.6L101.1,66.3L100.5,65.9L87.5,65.9L87.0,66.1L86.3,66.7L86.1,67.2L86.0,68.9L85.9,85.9L85.4,86.4L84.6,86.6L60.8,86.6L55.1,86.5L54.2,86.3L53.4,86.5L49.3,86.6L48.6,86.4L44.0,86.4L43.6,86.1L43.3,85.2L43.3,56.0L43.7,54.9L43.7,54.5L43.3,53.7L43.4,43.5L43.6,42.6L44.0,42.2L48.5,42.1L49.9,42.1L50.9,42.0L56.2,42.0L57.1,42.1L58.2,42.0L85.4,42.0L85.9,42.4L86.1,44.0L85.9,46.7L86.1,47.5L86.0,54.1L86.2,62.3L86.9,62.7L88.0,62.8L98.3,62.9L100.7,62.8L101.3,62.4L101.5,59.7L101.1,36.3L101.2,32.9L101.0,28.4L100.5,27.5L100.1,27.4L99.0,27.3L91.2,27.2L85.3,27.4L69.2,27.4L48.9,27.1L29.9,27.1L28.3,27.2Z M117.7,9.6L116.6,9.4L115.6,9.6L112.1,9.7L104.1,9.4L90.7,9.5L88.4,9.3L79.9,9.4L73.4,9.3L68.1,9.4L63.1,9.3L62.8,9.5L58.6,9.3L53.6,9.5L36.0,9.4L29.0,9.6L25.0,9.5L23.5,9.7L18.9,9.6L17.8,9.8L16.6,9.7L13.9,9.9L11.0,9.9L10.4,10.1L10.0,10.5L9.8,12.5L10.1,41.6L10.0,49.3L10.2,52.8L10.1,64.6L10.3,89.1L10.3,114.4L10.4,116.5L10.5,117.5L10.8,118.2L11.2,118.6L11.9,118.7L14.1,118.8L25.0,118.8L26.4,118.7L37.4,118.7L37.9,118.8L50.5,118.7L75.2,118.7L79.3,118.6L85.8,118.6L90.7,118.7L100.5,118.6L110.7,118.6L112.7,118.7L116.1,118.7L117.1,118.8L117.8,118.3L118.0,115.4L117.8,106.0L118.1,104.4L117.9,92.1L118.3,70.2L118.1,67.3L117.7,66.3L117.4,66.0L108.0,65.8L104.5,66.0L104.1,66.2L103.9,66.5L103.7,69.6L103.8,73.1L103.6,79.8L103.7,102.7L103.5,104.0L102.8,104.5L102.1,104.6L87.3,104.5L83.5,104.7L79.7,104.5L74.2,104.5L72.2,104.3L52.0,104.3L43.8,104.5L36.0,104.5L35.0,104.3L31.1,104.3L30.4,104.5L25.4,104.4L25.1,104.2L24.9,103.6L25.0,93.5L24.8,78.7L24.8,58.3L25.0,55.5L24.8,26.3L24.9,25.2L25.3,24.8L29.6,24.6L32.2,24.7L33.6,24.5L54.0,24.5L55.9,24.7L82.4,24.4L103.3,24.5L103.7,24.9L103.9,25.9L103.7,62.3L104.2,62.8L114.8,62.8L116.2,62.7L117.6,62.7L118.0,62.5L118.2,61.6L118.2,47.8L118.4,43.8L118.2,42.6L118.3,10.8L118.1,10.0Z" fill="#000" fill-rule="evenodd"/>
</svg>