<svg xmlns="http://www.w3.org/2000/svg" viewBox="0 0 128 128" width="128" height="128">
  <path d="M118.9,68.5L119.1,57.0L118.8,56.6L118.5,56.6L73.5,56.5L71.9,56.4L71.6,56.2L71.7,55.8L73.0,54.4L74.0,53.2L80.4,46.8L95.2,31.3L98.7,27.5L98.7,27.1L98.5,27.0L95.6,26.9L82.0,26.8L81.4,26.9L80.7,26.9L80.1,27.2L79.8,27.9L79.2,28.2L75.9,31.4L75.7,31.7L74.1,33.3L70.8,36.8L67.1,40.5L66.3,41.4L61.5,46.1L60.0,47.8L55.8,51.9L51.9,56.0L51.1,56.4L29.1,56.3L27.5,56.2L26.1,55.9L24.5,55.1L23.8,54.6L23.0,53.7L21.9,52.3L21.4,50.7L21.2,49.7L21.2,47.9L21.4,47.1L22.0,45.4L23.3,43.6L25.1,42.2L25.9,41.8L27.1,41.4L59.2,41.4L59.5,41.0L59.6,40.3L59.7,29.2L59.3,28.7L28.2,28.6L24.8,29.0L22.9,29.5L21.1,30.1L20.7,30.4L19.8,30.7L19.0,31.3L18.0,31.7L16.0,33.3L14.0,35.3L12.6,37.1L11.8,38.4L11.0,39.8L10.1,42.0L9.2,45.1L9.1,46.7L9.2,51.2L9.6,53.8L10.5,56.3L11.4,58.3L13.1,60.8L15.4,63.4L16.9,64.7L18.6,65.7L19.1,66.2L22.2,67.6L24.3,68.2L24.8,68.2L25.7,68.5L26.3,68.5L26.8,68.6L33.1,68.8L47.4,68.8L48.3,69.0L64.8,84.3L66.7,86.2L67.1,86.4L73.3,92.4L74.7,93.5L75.5,94.4L80.2,98.8L80.8,99.2L82.4,100.8L83.3,101.4L100.8,101.4L101.0,101.1L101.1,100.3L101.2,84.8L101.1,81.9L101.3,78.4L101.3,74.0L101.5,69.4L102.0,69.0L102.6,68.9L108.3,69.0L109.6,68.9L117.7,69.0L118.4,68.9Z M69.0,69.2L69.3,68.9L83.7,68.9L86.9,68.9L87.6,69.2L87.8,69.5L87.9,70.3L87.7,85.7L87.6,86.7L87.4,86.9L87.0,86.9L85.3,85.3L83.6,83.5L83.2,83.3L74.6,74.8L73.8,74.2L72.1,72.5L69.3,69.9L69.0,69.5Z" fill="#000" fill-rule="evenodd"/>
</svg>