<svg xmlns="http://www.w3.org/2000/svg" viewBox="0 0 128 128" width="128" height="128">
  <path d="M9.5,50.9L9.2,53.7L9.1,59.1L9.1,73.9L9.3,75.8L10.3,78.3L10.7,78.9L11.4,80.2L13.1,81.9L14.1,82.7L16.1,83.7L17.5,84.2L19.5,84.5L25.4,84.6L38.2,84.6L53.8,85.0L59.0,85.0L61.5,84.5L62.4,84.2L64.3,83.3L66.2,81.6L66.4,81.3L66.9,80.9L67.2,80.3L67.5,80.0L68.4,78.3L69.2,75.7L69.3,73.8L69.4,54.4L69.7,53.2L70.1,52.6L70.5,52.2L71.6,51.8L72.4,51.8L73.0,51.9L73.6,52.3L77.6,56.6L77.7,56.8L85.1,65.2L85.2,65.5L86.7,67.1L86.8,67.3L89.1,69.8L89.5,70.5L90.9,71.8L92.5,73.8L93.4,74.8L97.1,79.1L97.5,79.5L99.9,82.2L101.2,83.4L103.0,84.5L105.0,85.4L107.2,85.7L108.9,85.7L109.7,85.6L111.9,85.0L113.6,84.2L115.3,82.8L116.4,81.6L117.3,80.3L117.6,79.5L118.0,78.9L118.7,76.7L118.9,74.6L119.0,71.7L118.9,65.7L119.1,60.7L119.0,56.5L119.1,44.1L119.1,43.9L118.6,43.7L117.4,43.5L111.5,43.5L111.2,43.6L111.0,43.9L110.8,48.8L110.9,54.9L110.7,65.9L110.7,74.6L110.4,75.7L110.1,76.2L109.6,76.7L109.0,77.0L108.4,77.1L107.3,77.1L106.7,77.0L105.8,76.2L104.6,75.0L104.1,74.3L102.8,73.0L102.1,72.1L101.6,71.7L100.7,70.4L100.2,69.9L98.4,68.0L96.9,66.1L95.9,65.0L95.7,64.7L92.9,61.6L92.6,61.1L89.2,57.3L89.0,57.0L86.4,54.0L86.0,53.7L85.4,52.8L84.2,51.6L84.2,51.4L81.0,47.6L78.6,45.3L77.1,44.4L75.4,43.6L73.3,43.2L70.6,43.2L70.0,43.4L69.0,43.5L67.7,44.0L67.5,44.2L66.9,44.4L65.5,45.3L63.6,47.2L62.7,48.6L61.6,51.2L61.5,52.2L61.2,52.8L61.2,73.8L60.9,74.9L60.0,75.9L59.6,76.2L58.4,76.5L51.6,76.5L50.4,76.3L48.9,76.4L44.4,76.2L20.4,76.0L19.0,75.6L18.3,75.2L17.9,74.8L17.4,73.8L17.2,71.0L17.4,65.6L17.4,53.9L17.5,53.2L17.7,52.6L18.1,52.0L18.7,51.5L20.0,51.0L29.6,51.0L35.8,51.2L38.9,51.1L42.9,51.3L44.5,51.2L49.7,51.4L52.5,51.3L52.9,51.0L52.9,50.6L52.9,43.2L52.6,42.9L51.3,42.7L34.6,42.6L28.4,42.5L18.4,42.6L16.6,43.0L15.5,43.5L14.7,43.9L12.8,45.3L12.0,46.1L10.8,47.7L9.8,49.7Z" fill="#000" fill-rule="evenodd"/>
</svg>