<svg xmlns="http://www.w3.org/2000/svg" viewBox="0 0 128 128" width="128" height="128">
  <path d="M74.3,9.1L72.8,9.4L69.4,9.5L68.2,9.8L67.0,9.9L64.2,10.5L63.9,10.6L63.5,10.6L60.6,11.4L58.4,12.2L54.8,13.6L49.6,16.2L46.6,18.1L45.6,18.9L45.0,19.3L44.3,19.9L43.3,20.5L40.8,22.7L36.9,26.5L35.2,28.4L34.1,30.0L33.6,30.5L29.9,36.0L27.6,40.5L25.4,45.8L25.2,47.0L24.8,47.8L24.3,49.5L24.1,50.8L23.9,51.1L23.4,53.1L23.3,54.6L23.0,55.4L22.5,59.4L22.5,65.8L22.9,71.1L24.1,77.5L24.4,78.3L25.3,81.7L26.9,85.9L27.7,87.4L27.7,87.6L28.1,88.5L28.2,88.9L29.2,90.4L30.1,92.4L32.0,95.5L32.4,95.9L34.5,98.8L38.8,103.6L41.2,105.8L43.1,107.2L45.0,108.9L45.5,109.1L45.9,109.5L46.5,109.8L47.7,110.7L51.4,112.8L56.6,115.2L61.7,117.0L62.3,117.0L64.7,117.8L65.7,117.8L67.2,118.2L68.8,118.4L69.8,118.6L74.1,119.0L76.4,119.1L77.3,118.9L77.6,118.6L77.7,117.9L77.6,112.3L77.7,103.8L77.7,99.7L77.9,72.8L78.0,72.5L78.4,72.1L79.4,73.3L79.7,73.9L80.5,75.0L83.2,79.2L83.6,79.6L84.4,81.0L84.9,81.6L85.0,82.1L85.4,82.5L86.8,84.7L87.2,85.2L87.5,85.8L89.0,87.9L89.1,88.2L90.2,89.7L90.2,89.9L90.9,90.8L91.7,92.3L92.8,93.6L93.2,94.4L95.6,98.0L95.7,98.4L96.8,99.9L98.3,102.3L99.5,103.9L99.5,104.2L100.8,105.9L101.8,107.6L103.4,109.9L104.1,111.1L104.7,111.8L105.0,111.8L105.1,111.6L105.3,105.2L105.2,97.5L105.4,94.0L105.4,78.8L105.5,70.0L105.5,48.3L105.1,48.0L99.1,47.9L98.7,48.0L98.4,48.3L98.3,55.8L98.3,86.5L98.1,86.8L97.7,86.9L96.0,84.7L95.8,84.1L94.9,83.0L92.8,79.5L91.2,77.3L91.0,76.8L90.7,76.5L89.3,74.3L88.9,73.9L88.8,73.4L87.1,71.0L87.0,70.7L86.0,69.4L85.8,68.9L85.3,68.3L83.9,66.0L83.6,65.7L83.5,65.4L82.5,64.0L82.0,63.0L80.5,60.7L80.1,60.3L79.9,59.9L78.9,58.6L78.1,57.2L76.1,54.3L75.8,53.7L75.2,52.9L74.7,51.9L72.9,49.1L72.5,48.8L72.5,48.5L72.1,48.2L71.2,46.6L70.8,46.3L70.5,46.4L70.3,47.5L70.2,51.3L70.2,72.3L70.0,91.0L70.1,92.9L70.0,94.8L69.7,95.2L68.3,95.1L65.9,94.3L65.3,93.9L64.1,93.5L62.4,92.7L62.2,92.4L60.5,91.6L57.5,89.6L53.9,86.2L51.5,83.5L50.2,81.3L49.9,81.0L49.6,80.4L48.6,78.7L47.1,75.6L45.9,71.5L45.3,68.3L45.0,64.7L45.1,60.7L45.5,57.8L45.7,57.4L45.9,56.3L46.3,55.2L46.3,54.8L47.5,51.2L49.9,46.7L52.1,43.5L53.7,41.7L55.8,39.6L57.8,38.0L60.2,36.3L64.2,34.2L66.0,33.6L66.7,33.2L69.7,32.3L71.0,32.1L72.1,31.8L76.1,31.4L78.1,31.4L82.7,31.9L87.2,33.0L91.0,34.5L95.2,36.8L98.9,39.8L102.0,43.1L103.5,45.0L104.7,46.8L105.2,47.3L105.5,47.2L105.8,33.0L105.8,20.1L105.7,18.1L105.5,17.7L104.8,17.1L102.7,15.8L99.9,14.4L99.6,14.4L97.9,13.5L97.4,13.4L96.9,13.1L93.7,11.9L90.0,10.8L84.4,9.7L79.3,9.2Z" fill="#000" fill-rule="evenodd"/>
</svg>