<svg xmlns="http://www.w3.org/2000/svg" viewBox="0 0 128 128" width="128" height="128">
  <path d="M62.5,9.1L59.9,9.2L59.4,9.4L58.7,9.4L57.9,9.6L56.4,9.8L55.2,10.2L53.2,10.5L52.6,10.9L50.7,11.3L47.2,12.8L43.2,15.1L38.7,18.5L36.1,21.1L34.2,23.2L33.4,24.5L32.3,25.8L31.8,26.5L31.6,27.1L31.4,27.3L31.2,27.8L30.8,28.3L30.3,29.5L30.0,29.9L28.4,33.4L27.3,36.5L27.3,37.2L26.9,38.4L26.9,38.8L26.5,40.2L25.9,44.6L25.8,49.5L25.9,50.8L26.5,55.3L27.4,58.9L28.8,62.8L28.9,63.7L28.3,65.1L28.2,65.5L27.6,66.8L27.2,68.3L26.6,69.9L25.9,72.4L25.6,74.7L25.4,76.8L25.2,77.5L25.2,82.3L25.6,86.5L26.0,88.6L26.9,91.9L27.3,92.7L27.8,94.5L28.9,97.1L30.7,100.6L33.7,104.8L36.8,108.3L40.4,111.3L43.2,113.4L47.5,115.6L51.6,117.2L54.6,118.2L59.0,118.9L61.4,119.2L66.4,119.2L68.5,119.0L69.3,118.8L70.5,118.7L74.5,117.8L78.4,116.5L83.0,114.3L86.4,112.1L90.5,108.9L91.5,107.7L92.7,106.5L95.6,102.9L96.3,101.7L96.7,101.1L97.0,100.4L97.3,100.1L99.4,96.0L99.4,95.7L100.8,92.2L102.1,86.8L102.4,83.6L102.4,78.0L101.8,73.6L100.7,69.5L100.5,69.1L100.4,68.3L99.7,66.7L99.5,66.0L98.0,62.8L97.0,61.3L96.4,60.1L94.6,57.3L92.9,55.3L90.9,53.3L88.1,50.7L84.8,48.3L83.5,47.6L82.4,46.8L80.2,45.7L77.5,44.5L75.1,43.6L73.8,43.3L72.8,43.0L70.9,42.6L69.9,42.5L68.9,42.2L65.5,42.0L64.7,41.8L60.5,41.9L55.7,42.6L53.9,43.0L53.0,43.3L51.8,43.6L47.2,45.4L46.8,45.7L44.7,46.7L43.4,47.5L42.1,48.2L39.2,50.5L38.7,50.8L38.2,50.8L38.0,50.6L37.9,50.0L37.7,48.4L37.8,46.2L38.1,43.5L38.7,40.7L39.2,38.9L40.7,35.5L43.0,31.8L44.5,30.0L47.4,27.1L48.8,26.0L51.1,24.5L54.2,23.0L58.1,21.7L62.1,21.1L63.3,21.1L64.1,21.0L65.4,21.0L66.2,21.1L68.2,21.2L68.7,21.5L70.0,21.6L71.9,22.1L72.3,22.3L74.4,23.0L76.5,24.1L77.2,24.3L79.7,25.9L81.3,27.2L83.9,29.7L85.0,30.9L86.8,33.4L87.8,35.0L88.8,37.2L88.8,37.5L89.7,39.6L90.3,42.0L90.5,42.4L90.5,43.0L90.8,44.4L91.0,46.9L91.3,47.7L94.6,50.9L96.1,52.7L97.8,55.1L99.1,57.3L99.5,57.8L100.3,59.4L100.7,59.8L101.2,59.8L101.5,59.4L102.4,55.6L103.0,50.8L103.1,46.1L102.8,43.4L102.6,42.6L102.1,39.7L101.7,38.2L101.5,37.3L100.6,34.4L99.7,32.2L98.7,30.3L98.6,30.0L97.1,27.3L94.4,23.6L91.7,20.6L88.6,17.7L85.0,15.1L84.5,15.0L83.3,14.1L81.6,13.3L77.2,11.3L76.3,11.2L74.3,10.4L69.7,9.5L68.2,9.4L67.2,9.1L65.9,9.1Z M62.0,53.8L66.6,53.9L69.3,54.3L71.0,54.8L73.4,55.6L73.9,56.0L74.3,56.0L76.3,57.0L79.6,59.0L81.3,60.4L84.4,63.6L84.7,64.1L85.6,65.2L86.0,65.9L86.5,66.6L86.7,67.2L87.9,69.2L89.0,71.7L89.9,75.0L90.1,76.7L90.3,77.1L90.5,79.6L90.3,83.2L90.1,85.0L89.5,87.8L88.8,89.9L87.3,93.1L86.3,94.6L86.3,94.8L85.0,96.6L83.0,98.9L81.1,100.7L79.5,102.0L77.2,103.6L75.4,104.5L73.5,105.4L73.2,105.4L72.7,105.7L70.0,106.5L67.6,107.0L64.0,107.3L61.4,107.2L60.4,107.0L59.0,106.9L55.5,106.1L52.2,104.8L50.5,103.9L49.5,103.2L49.1,103.1L48.0,102.1L47.3,101.8L45.5,100.2L42.3,96.6L40.7,94.2L40.4,93.3L40.0,92.9L39.4,91.6L38.4,89.0L37.7,86.3L37.7,85.7L37.3,83.7L37.2,81.8L37.3,77.8L37.6,76.8L37.9,76.5L38.2,76.5L38.7,76.7L40.9,78.5L43.3,80.1L43.7,80.6L44.6,80.9L46.4,82.1L51.2,84.3L52.0,84.5L54.6,85.4L56.1,85.7L57.0,86.0L58.1,86.0L59.4,86.4L60.1,86.4L61.4,86.6L67.4,86.6L71.1,86.2L72.7,85.7L75.4,85.2L77.9,84.3L78.6,84.0L79.2,83.8L82.1,82.5L82.5,82.4L83.2,81.9L85.7,80.4L86.0,80.0L86.6,79.2L86.6,78.1L86.0,75.1L85.4,72.8L84.7,71.3L83.6,69.0L82.7,67.8L82.0,67.8L80.7,69.0L79.9,69.4L77.9,70.9L75.3,72.3L73.8,72.8L73.7,73.0L70.6,73.9L69.4,74.1L68.8,74.3L65.5,74.5L64.8,74.7L63.6,74.7L61.6,74.4L59.8,74.3L57.9,73.8L54.4,72.6L51.8,71.3L49.8,70.1L47.1,67.9L45.2,66.1L43.7,64.2L43.6,63.6L44.0,62.8L46.4,60.4L49.0,58.4L50.9,57.1L52.4,56.3L56.0,54.9L57.7,54.6L58.6,54.3Z" fill="#000" fill-rule="evenodd"/>
</svg>