<svg xmlns="http://www.w3.org/2000/svg" viewBox="0 0 128 128" width="128" height="128">
  <path d="M9.9,46.8L9.3,49.0L9.0,50.3L9.1,53.3L9.9,56.4L10.7,58.0L12.3,60.2L14.5,62.2L14.8,62.2L15.7,62.9L17.1,63.6L19.6,64.3L23.0,64.6L26.1,64.5L33.7,64.6L57.1,64.8L59.0,64.9L59.4,65.0L59.6,65.5L59.5,71.8L59.2,72.1L58.7,72.2L56.2,72.2L56.0,72.2L55.9,72.7L62.6,79.4L63.2,80.2L62.9,80.5L54.5,80.6L10.3,80.2L9.9,80.3L9.7,80.9L9.7,88.5L9.9,88.8L14.8,89.0L26.1,89.0L35.2,89.1L38.2,89.0L55.1,89.3L80.4,89.2L95.6,89.3L117.4,89.3L117.9,89.0L118.0,81.1L117.7,80.7L67.3,80.6L65.2,80.5L65.1,80.5L65.0,80.2L65.7,79.2L69.6,75.4L72.1,72.8L72.1,72.3L71.8,72.2L69.0,72.2L68.6,71.9L68.4,71.3L68.6,66.3L68.5,65.5L68.7,65.2L69.0,64.9L72.0,64.9L79.7,65.0L105.9,65.0L108.8,64.7L110.7,64.2L112.2,63.6L113.2,62.9L113.5,62.8L115.1,61.5L116.4,60.0L117.3,58.8L117.8,57.8L118.0,57.6L118.2,56.8L118.5,56.3L119.0,54.2L119.2,52.5L119.2,51.4L118.9,49.4L118.2,47.2L117.2,45.4L116.3,44.0L113.9,41.8L113.4,41.6L113.1,41.3L110.8,40.2L109.3,39.8L107.7,39.6L102.2,39.3L100.4,39.4L87.3,39.3L73.9,39.3L70.6,39.3L68.8,39.8L68.4,39.8L66.5,40.5L66.1,40.8L65.5,41.1L64.0,42.2L63.1,43.0L62.1,44.2L61.1,45.7L60.1,48.4L59.7,51.1L59.6,55.5L59.5,55.7L59.1,56.0L48.4,56.1L47.2,55.9L41.7,56.0L41.0,55.8L40.4,55.8L39.8,56.0L31.3,55.8L21.3,55.8L19.9,55.4L18.7,54.4L18.2,53.8L17.8,53.0L17.7,52.0L17.7,51.2L17.8,50.6L18.1,50.0L18.5,49.6L18.7,49.1L20.0,48.0L21.0,47.7L26.7,47.8L59.3,48.0L59.6,47.7L59.6,41.8L59.6,39.6L59.3,39.3L59.1,39.2L38.2,38.9L26.1,38.9L19.7,39.1L18.5,39.3L16.6,39.9L16.0,40.4L15.4,40.5L13.3,42.1L12.1,43.3L11.2,44.4Z M68.5,55.2L68.6,51.1L68.8,50.2L69.3,49.4L70.2,48.6L70.9,48.3L71.8,48.2L75.6,48.1L86.1,48.2L107.1,48.2L108.5,48.7L109.7,49.7L110.1,50.3L110.5,51.8L110.5,53.0L109.9,54.4L108.6,55.6L108.1,55.9L107.1,56.2L71.8,56.1L69.1,56.1L68.7,55.8Z" fill="#000" fill-rule="evenodd"/>
</svg>