<svg xmlns="http://www.w3.org/2000/svg" viewBox="0 0 128 128" width="128" height="128">
  <path d="M18.6,14.9L15.7,16.5L15.0,17.0L13.3,18.8L11.3,21.4L10.0,24.2L9.2,27.6L9.2,31.5L9.7,33.6L10.6,36.2L11.6,38.0L12.6,39.4L14.7,41.6L23.1,48.9L28.0,53.5L37.4,61.8L39.2,63.3L43.7,67.5L48.4,71.4L52.5,75.3L53.2,75.8L54.3,76.8L56.7,78.8L57.3,79.5L57.6,80.6L57.5,108.9L57.7,109.8L58.0,110.9L58.6,112.0L60.3,113.7L61.1,114.1L62.6,114.6L63.9,114.8L64.9,114.7L66.5,114.3L67.6,113.6L69.2,111.8L69.7,110.8L70.1,109.4L70.1,95.4L69.9,86.1L70.1,84.6L70.1,80.2L70.2,79.7L81.8,69.5L83.0,68.6L84.5,67.1L85.6,66.2L86.5,65.7L87.9,64.3L92.4,60.4L92.8,59.9L94.8,58.4L99.5,54.2L105.2,49.4L105.7,48.8L109.3,45.9L111.3,44.0L113.2,42.5L115.5,40.0L116.9,38.1L117.9,36.1L118.4,34.6L118.8,32.5L119.0,31.0L118.9,28.4L118.6,27.0L118.5,26.0L118.2,25.1L117.8,24.4L117.7,23.8L117.3,23.2L116.7,21.8L115.1,19.7L112.7,17.4L110.4,16.0L107.7,14.9L105.6,14.3L102.1,14.1L69.7,13.9L68.3,14.0L67.7,14.3L66.6,14.4L64.2,15.4L62.6,16.4L60.7,18.2L59.7,19.6L59.0,20.8L58.4,22.3L58.0,23.5L57.9,24.4L57.8,24.8L57.5,45.9L57.5,61.9L57.2,62.3L56.9,62.3L55.1,60.9L52.1,58.1L51.0,57.2L49.1,55.5L48.8,55.3L48.4,54.8L45.7,52.6L43.3,50.3L43.0,50.1L42.5,49.6L38.2,45.9L35.6,43.4L34.2,42.3L33.5,41.5L29.4,38.0L23.2,32.4L22.9,32.3L21.9,30.9L21.6,30.0L21.7,28.5L22.1,27.5L23.3,26.5L24.3,26.2L45.3,26.2L49.1,26.4L49.8,26.3L50.1,26.1L51.0,25.9L52.3,25.2L53.8,23.8L54.6,22.4L55.0,21.2L55.0,19.0L54.8,18.7L54.6,17.7L53.7,16.1L52.4,14.9L51.7,14.4L50.2,13.9L48.8,13.7L23.9,13.6L21.6,13.9Z M105.7,27.9L106.4,29.2L106.5,30.8L106.0,31.9L104.5,33.5L95.1,41.4L94.1,42.4L89.7,46.1L88.9,46.8L87.4,48.1L85.0,50.1L84.2,50.8L82.9,51.6L81.6,52.8L80.2,53.9L76.2,57.5L74.2,59.0L72.9,60.4L71.7,61.5L70.4,62.3L70.1,62.0L70.1,56.8L70.0,53.8L70.1,47.8L70.1,29.8L70.2,29.1L70.8,28.0L71.9,27.0L72.8,26.5L74.3,26.4L83.7,26.5L89.4,26.5L91.2,26.6L99.0,26.5L103.5,26.7L104.9,27.2Z M43.0,15.4L44.1,15.3L44.7,15.5L45.7,16.1L46.2,16.9L46.4,17.3L46.4,18.5L45.9,19.4L45.1,20.1L44.3,20.4L43.5,20.4L42.8,20.2L42.2,19.7L41.6,18.9L41.3,17.9L41.6,16.7L42.4,15.8L42.5,15.8Z" fill="#000" fill-rule="evenodd"/>
</svg>