<svg xmlns="http://www.w3.org/2000/svg" viewBox="0 0 128 128" width="128" height="128">
  <path d="M26.2,112.1L25.6,112.4L25.2,113.0L25.2,114.2L25.4,115.0L25.0,115.8L25.1,117.1L25.6,117.8L27.5,117.9L27.9,117.4L28.2,116.8L28.2,115.7L27.8,114.9L28.2,113.7L28.1,112.9L27.3,112.1Z M26.1,115.2L27.0,115.2L27.5,115.6L27.7,115.9L27.7,116.6L27.2,117.2L26.2,117.3L25.7,117.1L25.5,116.7L25.5,115.9Z M26.3,112.6L27.1,112.6L27.7,113.3L27.6,114.1L27.0,114.6L26.6,114.6L26.0,114.3L25.6,113.9L25.7,113.1Z M22.7,112.1L21.7,112.9L21.7,113.2L22.5,113.0L22.8,113.1L22.9,113.3L23.0,117.4L23.3,117.3L23.4,112.5L23.2,112.1Z M17.8,112.0L16.9,112.5L16.9,113.4L17.2,113.4L17.3,113.0L17.8,112.6L18.5,112.5L19.3,112.9L19.4,113.5L19.2,113.9L18.8,114.2L18.3,114.3L18.1,114.5L18.1,114.9L18.6,115.0L19.2,115.5L19.3,116.6L18.7,117.1L18.5,117.2L17.6,117.1L17.1,116.1L16.7,116.3L16.6,116.6L17.3,117.6L17.6,117.8L18.7,117.8L19.6,117.1L19.8,116.5L19.8,115.6L19.5,114.9L19.5,114.3L19.8,113.9L19.8,112.9L19.7,112.6L19.1,112.1Z M93.4,9.3L87.3,9.3L86.0,9.4L77.7,9.4L74.8,9.6L63.2,9.8L48.7,9.8L42.0,10.0L36.1,9.9L35.4,10.5L33.6,14.2L32.3,16.3L31.9,17.4L31.6,17.6L29.2,22.5L27.8,24.7L27.6,25.5L26.9,26.7L26.8,27.2L26.4,27.6L26.2,28.4L24.9,30.6L24.1,32.6L23.3,34.1L21.8,37.5L21.7,38.0L21.4,38.6L21.2,39.3L20.8,40.1L20.8,40.4L20.4,41.0L20.2,42.2L19.8,42.8L19.3,44.9L18.8,46.0L18.6,47.3L18.3,47.9L18.2,48.8L17.8,50.1L17.4,52.0L17.2,54.4L17.2,57.9L17.6,61.8L19.0,68.1L20.1,71.5L20.7,73.0L21.5,75.4L21.7,75.8L21.9,76.5L22.2,76.9L22.5,77.9L23.7,80.4L23.8,80.9L24.6,82.5L24.7,83.0L25.7,85.0L27.2,88.7L27.6,89.2L27.7,89.6L28.0,90.2L28.1,90.6L29.0,92.3L29.8,94.3L32.4,99.8L32.6,100.4L33.1,101.3L33.9,103.2L34.7,103.7L50.8,103.6L62.4,103.8L62.7,104.1L62.9,106.2L62.9,118.0L62.9,118.6L63.4,119.1L64.6,119.1L65.1,118.7L65.3,113.6L65.2,104.6L65.4,104.1L65.7,103.8L66.5,103.6L78.4,103.8L93.6,103.8L94.3,103.4L96.5,99.1L97.0,98.4L97.4,97.2L98.0,96.3L98.8,94.7L100.4,91.7L101.2,89.8L102.5,87.7L102.7,86.9L104.0,84.5L104.0,84.1L104.6,83.2L105.1,81.6L105.9,80.1L106.7,77.6L107.0,77.4L107.1,76.4L108.0,74.3L108.2,73.2L109.0,70.9L110.5,64.6L110.6,63.3L110.9,61.7L111.1,58.5L111.1,55.2L110.8,52.8L110.4,50.5L110.3,49.4L109.5,46.6L109.4,45.8L109.0,44.6L108.9,44.0L108.6,43.6L107.8,41.1L107.7,40.9L107.4,39.9L107.1,39.5L106.5,37.8L106.0,36.7L106.0,36.3L105.2,34.8L105.0,34.1L104.1,32.4L103.6,30.8L100.3,23.6L99.3,21.9L97.8,18.3L96.8,16.5L96.1,14.6L94.9,12.0L94.8,11.5L94.3,10.6Z M66.3,12.8L67.1,13.5L72.0,19.9L74.9,24.2L75.5,25.1L76.3,26.1L77.8,28.6L77.8,28.9L78.6,30.0L78.7,30.3L79.6,31.7L80.1,32.9L80.5,33.3L80.7,34.0L82.1,36.4L83.6,40.1L84.0,40.8L84.1,41.5L84.4,41.8L84.6,42.5L84.8,43.0L85.1,44.0L85.9,46.0L86.1,47.1L86.3,47.6L87.4,52.1L87.9,56.5L87.9,58.6L87.6,62.5L87.4,64.0L87.1,64.5L86.9,65.7L86.4,67.3L86.4,67.7L84.6,73.0L84.1,73.7L84.1,74.0L81.5,79.5L76.7,87.2L76.3,87.6L75.8,88.6L75.4,89.0L74.5,90.4L74.1,90.9L73.9,91.3L69.3,97.3L68.2,98.9L65.9,101.5L65.4,101.5L65.2,101.4L65.1,100.5L65.4,63.3L65.4,28.7L65.6,24.1L65.7,14.4L65.8,13.0L65.9,12.8Z M63.0,12.8L63.2,13.0L63.3,13.6L63.0,28.5L63.0,45.7L62.9,56.0L62.9,93.8L62.8,101.4L62.5,101.6L62.3,101.6L61.4,100.8L60.2,99.4L60.0,99.0L57.8,96.2L57.1,95.0L56.6,94.5L54.9,91.8L53.6,90.2L52.1,87.5L50.8,85.6L49.2,82.8L49.0,82.3L48.3,81.3L48.0,80.6L44.9,74.7L44.9,74.5L43.9,72.6L42.5,69.1L41.9,67.0L41.4,66.0L41.3,65.3L41.0,64.6L40.0,59.7L39.8,58.0L39.8,55.7L40.2,51.3L41.0,47.7L41.2,47.3L41.4,46.2L41.7,45.8L42.5,43.1L43.3,41.6L43.4,41.0L44.3,39.2L44.9,37.8L45.2,37.3L46.9,34.1L47.3,33.6L47.4,33.3L47.9,32.7L48.2,31.9L49.4,30.0L52.5,25.8L53.7,23.9L54.6,22.9L56.3,20.5L59.2,16.9L59.7,16.2L60.6,15.4L61.1,14.5L62.3,13.1L62.7,12.8Z" fill="#000" fill-rule="evenodd"/>
</svg>