<svg xmlns="http://www.w3.org/2000/svg" viewBox="0 0 128 128" width="128" height="128">
  <path d="M30.0,22.2L25.9,25.8L22.4,29.5L19.1,33.6L16.2,38.2L14.0,42.4L11.9,47.8L10.4,53.1L9.5,58.9L9.2,64.2L9.4,68.9L9.7,70.2L9.8,72.0L10.0,73.1L10.2,73.7L10.4,75.5L10.7,76.0L10.7,76.6L11.8,80.4L13.3,84.4L15.7,89.6L18.8,94.4L22.2,98.7L25.3,102.0L29.4,105.6L32.4,107.8L33.0,108.1L36.4,110.3L40.7,112.5L41.8,112.7L42.1,113.0L44.3,113.9L45.2,114.1L46.2,114.6L47.3,114.7L47.8,115.1L48.9,115.3L49.5,115.6L50.7,115.8L51.4,115.8L52.3,116.2L53.4,116.3L55.3,116.8L56.4,116.8L59.8,117.2L62.2,117.2L63.3,117.4L66.3,117.5L82.5,117.5L93.0,117.7L95.0,117.6L99.5,116.8L100.6,116.3L101.5,116.1L103.4,115.3L104.3,114.7L104.9,114.6L105.2,114.3L106.0,114.0L107.4,113.1L110.4,110.7L113.0,108.1L113.1,107.8L114.5,106.1L116.6,102.5L118.1,98.3L118.7,95.8L118.9,93.6L118.9,88.8L118.5,86.9L118.5,86.3L118.2,85.6L117.9,84.3L117.5,83.2L117.4,82.4L115.4,78.3L112.5,74.6L109.4,71.5L106.0,69.1L103.1,67.7L99.5,66.4L98.0,66.1L94.0,65.6L90.9,65.6L89.4,65.4L78.6,65.4L76.9,65.2L64.4,65.3L63.5,65.0L63.1,64.6L63.1,64.1L63.6,63.5L64.2,63.2L65.0,63.1L85.7,63.2L90.4,63.4L91.2,63.3L108.3,63.5L111.0,63.7L117.6,63.6L117.9,63.4L118.1,62.9L118.3,55.9L118.5,39.2L118.1,38.7L117.5,38.5L82.1,37.9L79.5,38.0L71.7,37.8L63.5,37.8L59.5,38.1L55.7,38.9L54.7,39.3L53.6,39.6L50.9,40.9L47.7,42.9L45.7,44.6L42.5,47.8L41.0,50.0L39.0,53.6L37.9,56.5L37.6,57.7L37.4,57.9L36.8,61.5L36.7,65.7L37.4,70.5L37.7,71.1L38.3,73.4L39.2,75.0L39.2,75.5L39.9,76.8L41.0,78.3L41.6,79.5L44.6,82.8L47.8,85.5L50.3,87.1L52.8,88.3L53.2,88.4L53.8,88.8L54.5,88.8L55.2,89.2L56.4,89.6L59.4,90.2L61.5,90.4L70.8,90.3L78.5,90.4L81.5,90.6L91.2,90.6L92.1,90.9L92.4,91.2L92.4,92.0L91.7,92.7L78.7,92.7L72.9,92.5L65.0,92.7L60.2,92.6L59.0,92.3L57.5,92.2L56.8,92.0L56.0,91.9L51.0,90.1L50.5,89.8L48.6,88.8L45.2,86.6L42.7,84.4L41.5,83.1L39.5,80.5L38.7,79.2L36.9,75.9L35.3,71.5L34.8,69.3L34.6,67.0L34.4,66.2L34.4,62.6L34.9,58.9L35.6,56.0L36.1,54.4L38.5,49.4L40.6,46.4L43.7,43.2L46.3,41.1L48.0,39.9L48.4,39.8L49.3,39.2L51.4,38.1L55.4,36.6L57.0,36.3L58.1,36.0L61.9,35.5L69.4,35.5L74.7,35.7L83.0,35.7L110.0,36.1L118.0,36.1L118.4,36.0L118.6,35.4L118.8,27.2L118.8,11.9L118.4,11.5L117.7,11.3L107.1,11.2L104.9,11.1L74.0,10.8L68.3,10.6L61.7,10.7L57.2,11.1L51.7,12.0L50.4,12.4L49.2,12.6L46.0,13.6L43.0,14.9L42.0,15.2L39.1,16.6L38.4,16.8L37.2,17.7L34.7,19.0Z" fill="#000" fill-rule="evenodd"/>
</svg>