<svg xmlns="http://www.w3.org/2000/svg" viewBox="0 0 128 128" width="128" height="128">
  <path d="M14.9,42.9L13.4,45.9L13.0,46.4L12.5,47.8L11.8,49.1L11.2,51.0L10.9,51.6L10.8,52.6L10.4,53.7L10.3,54.4L10.0,55.0L10.0,55.8L9.5,58.3L9.1,61.5L9.1,66.6L9.7,71.4L10.5,75.3L11.4,77.7L11.8,79.2L12.9,81.5L13.0,81.9L14.4,84.4L14.5,84.8L15.5,86.2L16.2,87.5L17.5,89.3L19.4,91.4L19.8,92.0L22.4,94.4L23.0,95.1L24.7,96.4L28.8,99.2L31.5,100.6L32.1,101.0L32.8,101.2L33.4,101.6L34.4,101.8L35.3,102.3L37.5,103.0L38.2,103.4L42.3,104.5L46.9,105.1L51.5,105.2L52.6,105.0L54.0,105.0L54.9,104.8L55.5,104.8L56.9,104.5L57.8,104.4L58.4,104.1L59.1,104.1L60.0,103.7L61.0,103.6L61.7,103.3L63.4,102.8L64.0,102.5L65.0,102.2L66.4,101.5L67.0,101.3L68.4,100.7L68.7,100.3L69.4,100.0L69.9,99.6L71.1,99.1L73.6,97.4L74.1,97.2L74.7,97.2L77.1,99.4L79.0,100.7L81.1,101.8L82.0,102.5L82.3,102.5L84.2,103.4L87.3,104.4L88.2,104.8L88.9,104.8L90.1,105.2L91.7,105.5L95.4,105.4L96.5,105.2L97.1,105.2L97.5,105.0L98.9,104.9L101.5,104.4L101.9,104.1L102.6,104.1L104.1,103.5L105.6,102.6L107.1,101.9L109.7,100.0L112.8,96.6L114.7,94.0L116.0,91.7L116.5,90.0L116.9,89.3L117.0,88.7L117.3,88.2L117.4,87.4L117.8,86.3L118.0,85.0L118.1,84.6L118.3,82.7L118.2,78.3L118.0,77.6L118.0,76.8L117.7,75.6L116.9,72.8L116.5,72.1L115.7,69.9L115.0,68.9L113.9,66.9L112.3,64.8L110.0,62.5L106.9,60.1L106.3,59.9L105.8,59.5L104.5,58.9L103.7,58.4L103.0,58.2L101.5,57.6L100.0,57.3L98.9,56.9L97.0,56.5L94.8,56.4L92.5,56.1L90.6,55.3L89.5,54.5L88.7,53.6L87.6,51.9L87.2,50.8L87.0,49.4L87.0,47.4L87.2,46.7L88.1,44.6L89.1,43.5L90.8,42.2L91.8,41.6L92.5,41.5L93.0,41.3L93.9,41.1L95.8,41.1L96.8,41.4L98.1,41.9L98.4,42.2L99.5,42.8L100.6,43.9L101.5,45.3L102.0,46.6L102.4,48.6L102.9,49.0L116.4,49.4L118.3,49.3L119.1,48.8L119.1,47.2L118.8,46.4L118.8,44.3L118.3,42.6L118.3,41.9L117.7,40.0L117.4,39.6L116.8,37.8L116.3,36.9L115.8,36.3L115.7,35.9L113.8,33.2L111.1,30.3L110.1,29.5L109.7,29.2L108.6,28.3L104.9,26.2L104.5,26.1L103.3,25.4L102.2,25.2L102.0,25.0L101.1,24.9L100.3,24.6L97.7,24.1L94.4,23.9L92.8,24.1L91.5,24.1L90.8,24.3L89.6,24.4L88.4,24.8L87.5,25.0L86.7,25.4L86.1,25.4L85.7,25.8L85.3,25.8L83.9,26.5L83.5,26.6L82.9,27.0L82.3,27.3L79.8,29.0L76.6,31.8L75.8,31.9L73.1,29.9L71.9,29.2L70.7,28.4L70.4,28.3L68.1,26.9L65.1,25.6L64.0,25.3L62.9,24.7L59.8,23.9L55.8,23.2L54.6,23.1L53.9,22.8L52.4,22.8L47.3,22.8L45.2,23.2L43.2,23.3L40.7,23.9L39.9,24.0L39.2,24.3L35.9,25.3L35.1,25.7L34.5,25.8L33.4,26.3L33.0,26.6L30.9,27.5L26.5,30.3L23.5,32.5L19.4,36.6L16.7,40.0L16.6,40.4Z M13.4,68.5L14.0,68.5L14.0,68.6L13.8,68.8L13.4,68.7Z M28.0,53.5L29.1,51.9L29.2,51.4L30.0,50.5L30.6,49.4L31.5,48.4L32.8,46.8L34.4,45.3L36.9,43.4L40.9,41.3L41.9,41.1L42.5,40.8L43.4,40.6L44.4,40.2L44.9,40.2L45.6,40.0L46.9,39.9L48.1,39.6L51.6,39.6L53.2,39.8L57.5,40.8L58.0,41.1L59.6,41.6L60.1,41.9L60.9,42.2L61.9,42.9L63.0,43.4L63.7,44.1L64.7,44.6L67.4,47.1L68.5,48.6L69.0,49.1L70.0,50.6L71.1,56.1L71.2,56.2L71.9,58.3L72.2,58.8L73.1,61.0L74.2,62.8L75.2,63.8L75.7,64.7L78.6,67.7L81.2,69.6L83.4,70.9L84.0,71.1L84.2,71.3L84.8,71.5L85.3,71.8L88.9,73.0L91.2,73.3L91.6,73.4L94.4,73.7L96.1,74.0L97.6,74.6L99.3,76.0L99.8,76.7L100.7,78.3L101.1,80.0L101.1,82.0L100.6,84.1L100.0,85.2L99.1,86.4L98.3,87.2L97.6,87.6L95.6,88.5L94.2,88.8L92.7,88.7L91.2,88.4L90.1,87.8L89.7,87.7L89.1,87.3L88.0,86.3L86.8,84.6L86.6,83.9L86.3,83.3L86.1,81.8L85.7,81.0L85.4,80.9L81.6,80.6L79.3,80.7L69.2,80.4L68.1,80.5L67.3,80.8L63.4,84.0L62.1,84.9L59.0,86.5L58.4,86.5L56.9,87.2L56.1,87.3L55.3,87.6L54.9,87.6L53.4,88.0L52.7,88.0L51.9,88.3L49.1,88.4L45.6,88.0L44.7,87.7L43.6,87.6L39.8,86.2L39.4,85.9L39.0,85.8L38.1,85.4L37.7,85.0L36.9,84.6L35.9,83.8L34.8,83.1L31.5,80.0L31.0,79.1L30.3,78.3L28.4,75.5L28.4,75.1L27.7,73.7L27.5,73.0L27.0,72.2L25.8,67.3L25.7,65.0L25.8,62.5L26.0,61.4L26.2,59.5L26.6,57.8L26.6,57.4Z" fill="#000" fill-rule="evenodd"/>
</svg>