<svg xmlns="http://www.w3.org/2000/svg" viewBox="0 0 128 128" width="128" height="128">
  <path d="M23.5,120.2L24.1,120.2L24.4,120.1L26.2,120.2L25.6,119.6L25.2,119.5L24.2,119.6L23.6,119.9Z M15.3,120.2L15.8,120.2L16.4,120.0L16.8,120.0L17.3,120.2L18.1,120.2L17.5,119.7L17.0,119.5L15.9,119.6L15.5,119.8Z M19.3,120.2L19.8,120.2L20.3,120.0L21.2,120.0L21.6,120.2L22.1,120.2L21.8,119.7L21.0,119.4L20.0,119.5Z M57.2,9.3L56.7,9.5L56.3,10.2L56.3,11.2L56.5,11.8L56.4,16.9L56.3,17.2L55.9,17.6L54.0,17.6L53.2,17.8L31.9,17.8L30.1,17.9L28.7,18.3L27.2,18.5L25.7,19.0L23.3,20.2L20.8,22.1L18.3,24.9L18.3,25.2L17.7,25.8L17.5,26.4L16.8,27.7L15.4,31.1L15.0,34.1L15.0,41.1L14.7,48.5L14.7,73.8L14.8,78.2L14.7,90.1L15.0,94.3L15.5,96.9L15.9,97.7L16.0,98.5L16.4,99.7L17.5,101.9L17.8,102.2L17.9,102.6L19.3,104.7L22.3,107.5L24.4,108.9L24.8,109.0L26.1,109.7L28.3,110.5L28.8,110.5L29.5,110.8L31.2,111.0L32.6,111.0L33.3,111.2L43.6,111.4L45.5,111.3L48.2,111.5L49.7,111.4L55.8,111.5L56.1,111.8L56.3,112.6L56.3,118.2L56.4,118.7L56.7,118.9L70.1,118.9L70.4,118.6L70.5,118.2L70.5,112.5L70.6,112.1L71.1,111.6L87.5,111.3L92.3,111.4L95.4,111.3L96.4,111.0L97.6,111.0L99.1,110.8L99.9,110.4L100.8,110.3L102.0,110.0L104.6,108.9L106.2,108.0L107.6,106.7L107.9,106.5L109.5,104.9L110.9,102.7L111.2,101.7L111.4,101.4L112.2,99.0L112.2,98.4L112.6,97.2L112.6,96.5L113.1,93.0L113.4,77.7L113.3,75.1L113.2,75.0L112.6,74.7L107.8,74.5L97.8,74.6L97.5,75.1L97.2,80.3L97.4,86.0L97.1,92.2L96.9,93.0L96.2,94.4L95.1,95.5L94.2,96.1L93.3,96.5L90.7,96.7L71.4,96.6L70.8,96.2L70.8,92.6L71.4,92.1L87.6,92.1L89.0,91.9L90.3,91.5L91.5,90.7L92.1,89.8L92.5,87.9L92.7,72.3L92.7,61.5L92.2,59.6L91.6,58.6L90.5,57.7L89.7,57.2L88.3,56.9L71.6,56.6L71.1,56.0L71.1,52.2L71.2,51.4L71.5,51.1L77.6,51.2L78.3,51.7L78.6,52.2L78.7,52.8L79.2,53.5L79.7,53.6L92.3,53.6L92.7,53.4L92.9,53.0L92.8,50.6L93.1,46.1L93.0,43.0L92.6,41.2L91.7,39.6L90.2,38.5L88.8,37.9L87.7,37.7L71.5,37.4L71.2,37.2L71.1,36.8L71.2,33.1L71.5,32.9L72.1,32.8L89.8,32.9L93.3,33.0L94.5,33.5L96.1,34.6L97.0,35.9L97.6,37.2L97.7,38.8L97.8,42.5L97.6,52.1L97.7,53.3L97.9,53.5L98.6,53.6L101.9,53.6L104.0,53.5L113.0,53.6L113.4,53.4L113.6,53.0L113.6,36.5L113.3,32.9L113.3,31.7L113.0,30.2L112.2,27.6L111.6,26.1L110.2,23.9L107.6,21.4L105.5,19.9L104.8,19.7L103.3,18.9L102.7,18.8L101.8,18.4L100.8,18.3L100.4,18.1L96.5,17.8L80.2,17.8L77.6,17.6L74.5,17.7L71.9,17.5L71.3,17.1L71.2,16.6L71.2,10.3L71.1,9.9L70.8,9.4L69.4,9.3Z M71.0,71.9L71.5,71.4L71.9,71.3L76.7,71.3L77.6,71.6L78.1,72.2L78.2,72.7L78.1,76.3L77.9,76.8L77.5,77.3L76.5,77.6L73.4,77.7L71.4,77.5L71.0,77.0Z M56.3,51.2L56.4,56.0L56.0,56.6L53.7,56.8L50.3,56.7L49.2,56.2L49.0,55.4L48.9,52.8L49.1,51.7L49.7,51.0L54.9,50.8L55.9,50.9Z M33.3,33.5L35.2,33.1L37.1,33.0L53.9,33.0L55.7,33.1L56.4,33.6L56.5,36.9L56.1,37.3L55.7,37.5L54.5,37.4L39.8,37.6L37.8,38.1L36.8,38.7L35.8,40.1L35.2,42.5L35.0,46.6L35.0,66.5L35.5,68.3L36.3,69.5L37.4,70.4L38.4,70.9L39.6,71.2L55.3,71.3L55.7,71.4L56.1,71.6L56.2,72.7L56.2,77.0L56.0,77.4L55.3,77.6L49.7,77.4L49.0,76.8L48.7,75.8L48.7,74.8L48.3,74.4L48.1,74.3L45.4,74.4L44.5,74.2L35.8,74.2L35.3,74.4L35.0,74.7L34.9,85.8L35.1,88.4L35.4,89.4L36.1,90.6L36.9,91.3L38.0,91.7L39.1,91.9L43.3,92.1L55.6,92.1L56.1,92.4L56.1,92.9L56.1,95.8L56.1,96.3L55.6,96.6L50.2,96.6L48.3,96.8L43.0,96.6L36.7,96.6L34.7,96.3L33.2,95.7L31.4,94.1L30.7,92.8L30.4,90.6L30.4,78.9L30.6,74.3L30.4,69.5L30.6,66.5L30.8,36.8L30.9,36.2L31.4,35.1L32.0,34.4Z" fill="#000" fill-rule="evenodd"/>
</svg>