<svg xmlns="http://www.w3.org/2000/svg" viewBox="0 0 128 128" width="128" height="128">
  <path d="M98.6,9.2L98.2,9.2L94.3,13.4L92.6,15.0L88.5,19.5L78.3,30.1L78.1,30.5L74.7,34.0L73.4,35.4L71.4,37.3L71.2,37.7L65.2,43.9L65.0,44.3L61.9,47.4L59.3,50.3L58.6,50.9L55.3,54.6L51.2,58.8L49.4,60.7L49.2,61.0L46.8,63.4L45.9,64.6L44.8,65.6L44.4,66.1L43.1,67.4L42.3,68.3L38.4,72.3L37.4,73.5L35.3,75.6L32.2,78.9L31.9,79.4L31.4,79.8L31.0,80.3L30.4,80.8L29.5,82.5L29.0,84.2L28.9,85.7L29.4,87.8L30.4,89.6L32.4,91.6L32.6,92.0L37.5,96.8L37.5,97.0L46.0,105.5L46.5,106.2L47.6,107.1L48.2,107.8L52.0,111.6L52.7,112.5L58.0,117.8L60.1,118.9L61.6,119.2L62.6,119.2L63.5,119.0L64.4,118.7L65.5,118.1L67.6,116.5L74.4,109.5L75.5,108.1L79.8,103.7L80.7,102.6L81.3,102.1L81.3,101.8L83.7,99.5L83.9,99.2L86.0,97.0L86.9,95.9L88.4,94.5L88.5,94.3L89.9,92.7L93.1,89.4L93.8,88.5L95.8,86.3L96.0,86.0L97.6,84.2L98.9,82.0L98.9,81.3L99.2,80.0L99.2,78.9L98.9,77.2L98.7,76.5L97.6,74.7L95.9,73.0L94.4,72.3L92.6,71.8L86.3,71.7L78.6,71.7L78.3,71.5L78.2,71.3L79.8,69.6L79.8,69.4L81.9,67.3L82.9,66.1L92.1,56.3L92.3,56.0L93.5,54.8L95.2,52.7L98.8,49.2L98.9,48.7L99.0,47.6L98.8,31.6L98.4,31.5L98.1,31.6L96.9,32.8L96.7,33.2L94.1,35.7L94.0,36.0L91.8,38.2L90.6,39.6L83.1,47.3L81.1,49.7L80.1,50.6L79.2,51.7L66.0,65.6L65.8,66.0L63.6,68.2L60.0,72.0L59.8,72.3L58.6,73.4L53.9,78.6L53.3,78.9L48.2,84.5L48.2,84.8L48.7,85.1L59.5,85.0L60.7,85.1L61.5,85.0L65.9,85.0L67.4,84.8L69.3,84.9L79.1,84.8L79.5,84.9L79.6,85.2L77.9,87.2L77.0,88.1L76.8,88.4L70.6,94.8L69.4,96.3L67.9,97.8L67.6,98.2L66.8,98.9L62.5,103.6L61.7,103.6L57.3,99.1L57.2,98.9L54.0,95.8L52.7,94.3L44.3,85.8L44.0,85.4L44.0,84.8L48.5,79.8L52.5,75.8L55.3,72.7L61.0,66.7L61.2,66.4L65.7,61.8L67.0,60.3L67.8,59.5L71.9,55.0L74.7,52.2L74.8,51.9L77.7,49.0L77.9,48.6L84.2,42.0L84.9,41.1L86.4,39.6L86.5,39.4L92.6,33.1L92.7,32.8L94.3,31.3L94.7,30.8L95.9,29.6L96.0,29.4L98.4,27.0L98.8,26.2L98.9,25.9L98.8,11.7L98.8,9.3Z M31.7,8.6L30.7,9.0L30.1,9.5L29.8,9.9L29.4,11.5L29.4,12.5L29.9,13.9L30.7,14.6L31.6,15.0L32.8,15.0L33.6,14.6L34.2,13.9L34.3,13.4L33.7,13.4L33.4,13.8L32.8,14.3L31.6,14.3L30.7,13.7L30.2,12.8L30.1,11.9L30.2,11.0L30.5,10.1L31.4,9.3L31.9,9.2L32.8,9.3L33.7,10.0L34.2,10.0L34.2,9.7L34.0,9.4L33.4,8.8L32.8,8.6Z" fill="#000" fill-rule="evenodd"/>
</svg>