<svg xmlns="http://www.w3.org/2000/svg" viewBox="0 0 128 128" width="128" height="128">
  <path d="M88.7,27.4L88.3,27.2L87.8,27.2L87.4,27.4L80.1,35.0L76.6,38.5L75.4,39.8L73.9,41.2L73.8,41.4L67.7,47.6L64.1,51.4L62.5,52.9L59.9,55.7L56.1,59.5L55.8,60.0L55.3,60.3L54.6,61.2L50.7,65.0L49.7,66.4L48.8,68.2L48.2,70.0L48.0,72.1L48.3,74.6L48.9,76.3L50.0,78.4L51.2,79.8L53.5,81.8L54.3,81.9L54.6,81.8L56.5,79.9L57.1,79.1L59.5,76.9L59.7,76.6L71.0,65.0L71.7,64.1L73.9,61.9L74.3,61.4L76.6,59.2L83.8,51.5L87.0,48.4L87.3,48.0L90.6,44.7L92.3,42.4L92.8,41.5L93.6,38.9L93.8,37.2L93.8,35.2L92.9,32.4L91.6,30.2Z M52.3,9.4L51.7,9.6L51.1,9.9L49.8,11.2L49.0,12.2L42.7,18.6L42.0,19.4L40.4,21.0L37.9,23.7L37.5,23.9L37.0,24.6L29.2,32.6L22.3,39.5L20.6,41.4L18.8,43.2L14.8,47.4L13.0,50.1L11.6,53.0L11.0,54.8L10.2,58.7L10.2,63.4L10.5,64.8L10.6,66.0L11.4,69.0L13.0,72.2L14.2,74.0L15.4,75.5L31.0,91.1L31.5,91.8L35.0,95.1L41.0,101.4L41.8,102.0L43.2,103.6L54.9,115.2L56.4,116.4L58.5,117.6L61.7,118.7L64.8,119.1L67.5,119.0L69.8,118.4L71.5,117.8L74.4,116.1L75.5,115.1L78.0,112.6L83.2,107.0L84.8,105.5L85.7,104.4L86.8,103.4L88.3,101.7L89.9,100.2L90.2,99.7L94.7,95.2L95.9,93.8L99.0,90.7L100.9,88.7L101.4,88.5L101.8,88.1L102.6,86.9L104.0,85.5L104.2,85.2L108.2,81.0L109.0,80.2L110.2,78.9L111.2,78.4L111.7,77.4L113.0,76.3L113.2,75.9L114.2,75.0L115.5,73.0L116.9,70.4L117.2,69.4L117.4,68.3L117.8,67.5L117.9,65.8L118.1,65.3L118.1,63.0L117.8,60.8L117.0,57.8L116.0,55.8L115.4,55.0L115.3,54.6L114.3,53.4L110.6,49.7L110.1,49.6L109.8,49.9L109.8,53.4L109.2,56.8L108.3,59.1L107.7,60.2L107.1,61.5L106.0,63.0L99.5,69.7L98.6,70.7L97.0,72.3L94.3,75.2L92.2,77.3L89.8,79.9L89.2,80.3L89.0,80.7L86.9,82.7L86.7,83.0L84.1,85.7L82.2,87.8L80.2,89.7L80.1,90.0L77.9,92.1L76.3,93.9L69.8,100.6L68.1,101.9L65.7,103.2L63.3,104.0L60.7,104.3L57.6,104.2L55.4,103.7L54.2,103.1L53.9,103.1L52.7,102.4L52.1,102.2L51.1,101.4L48.5,99.1L47.2,97.5L45.0,95.5L42.6,92.9L37.4,87.8L36.3,86.6L29.4,79.7L27.7,77.7L25.9,74.9L25.0,72.8L24.7,71.4L24.6,71.2L23.9,67.5L23.9,65.1L24.2,63.0L24.6,61.1L25.3,59.3L25.5,58.3L26.4,56.5L27.6,54.6L28.7,53.4L28.9,53.1L30.8,51.0L33.0,49.0L33.7,48.0L35.4,46.4L38.3,43.2L45.0,36.6L46.6,34.6L54.2,27.0L54.3,26.6L57.3,23.9L58.6,22.4L58.8,22.1L64.9,16.0L65.0,15.7L68.5,12.2L70.4,10.1L70.4,9.7L70.2,9.5L69.6,9.4Z M96.8,9.4L95.5,9.3L87.1,9.4L85.9,9.2L85.4,9.4L78.6,9.4L77.8,9.8L75.4,12.1L73.8,13.9L72.0,15.5L71.7,16.0L68.0,19.8L67.7,19.9L65.7,22.2L61.2,26.7L53.2,35.2L50.5,37.8L44.6,44.1L40.2,48.4L36.8,52.2L35.9,52.9L34.5,54.5L33.0,55.8L31.1,58.3L30.4,59.6L29.8,60.9L29.2,63.2L29.2,64.0L29.0,65.4L29.0,66.9L29.2,68.6L29.7,70.5L30.2,71.8L31.3,73.8L32.2,75.1L34.0,77.1L41.1,84.2L41.6,84.9L49.9,93.4L53.6,97.0L54.6,97.8L56.4,98.7L58.4,99.3L61.0,99.4L63.4,98.8L64.9,98.1L66.3,97.1L73.8,89.5L75.7,87.4L77.8,85.4L78.6,84.3L84.5,78.4L85.4,77.3L88.2,74.6L88.4,74.2L90.7,71.9L94.0,68.4L102.6,59.8L103.9,57.9L105.3,55.3L105.7,53.7L105.8,53.4L106.1,52.1L106.1,49.1L105.6,46.6L105.4,46.4L105.3,45.7L104.9,44.7L104.6,44.3L104.5,43.9L103.3,42.2L101.9,40.8L101.8,40.6L98.6,37.4L98.0,37.2L97.6,37.6L97.5,40.1L96.7,43.6L95.2,46.6L94.4,47.7L93.4,48.8L91.9,50.2L91.5,50.8L85.4,56.9L82.7,59.8L80.0,62.5L75.8,67.0L71.3,71.5L66.6,76.4L64.0,79.0L59.2,84.1L56.7,86.5L55.7,87.1L54.3,87.4L53.5,87.4L52.1,87.1L51.0,86.6L48.1,83.7L45.9,81.3L45.0,79.8L43.9,77.3L43.4,75.5L43.1,72.8L43.1,71.4L43.4,69.0L43.8,67.4L45.0,64.6L45.4,64.2L45.6,63.7L46.8,62.1L51.0,57.8L55.2,53.3L63.0,45.4L63.2,45.0L64.2,44.2L64.5,43.6L65.4,42.9L69.8,38.4L70.2,37.8L71.8,36.4L73.5,34.5L73.9,34.2L74.2,33.8L77.3,30.8L77.8,30.2L78.6,29.4L82.8,24.9L84.6,23.2L87.0,20.6L91.2,16.3L91.7,15.7L95.1,12.2L96.9,10.3L97.1,9.7Z" fill="#000" fill-rule="evenodd"/>
</svg>