<svg xmlns="http://www.w3.org/2000/svg" viewBox="0 0 128 128" width="128" height="128">
  <path d="M46.2,46.0L42.6,46.5L40.9,47.1L40.3,47.2L39.9,47.5L38.6,48.0L36.4,49.4L33.1,52.2L30.7,55.7L30.0,57.4L29.7,58.3L29.6,58.4L28.8,61.8L28.7,63.7L28.7,65.9L29.1,68.1L29.6,69.6L29.6,69.9L30.8,72.7L31.1,72.9L31.5,74.0L32.5,75.3L35.1,78.1L38.0,80.0L39.2,80.7L39.5,80.7L41.5,81.5L44.4,82.1L48.0,82.2L48.4,82.1L50.6,81.9L53.3,81.0L53.7,81.0L57.7,78.7L58.3,78.0L58.9,77.7L59.8,76.8L62.1,73.8L63.5,71.0L64.2,68.9L64.8,66.4L64.8,62.4L64.1,58.7L63.7,58.0L63.3,56.7L62.3,54.7L59.8,51.6L58.8,50.6L56.1,48.6L53.3,47.2L51.1,46.6L50.9,46.5L49.6,46.3Z M46.4,56.7L47.2,56.9L48.5,56.9L48.7,57.1L49.3,57.1L49.9,57.5L50.4,57.7L51.8,58.8L52.8,59.9L53.6,61.2L54.1,63.5L54.1,65.2L53.8,66.4L53.1,68.0L52.6,68.8L51.5,69.9L50.2,70.8L50.0,70.8L49.3,71.2L48.5,71.4L46.7,71.6L45.7,71.6L44.1,71.1L43.2,70.6L42.1,69.9L41.3,69.1L40.2,67.5L39.7,66.3L39.5,65.2L39.5,63.5L39.7,62.3L40.2,60.8L41.3,59.3L42.2,58.4L43.2,57.7L44.6,57.1Z M112.8,37.7L112.2,37.2L111.6,37.2L111.2,37.5L108.0,40.5L106.9,41.8L106.3,42.2L105.6,43.1L104.5,44.0L103.8,44.9L102.5,46.0L101.9,46.8L100.3,48.3L99.9,48.6L95.2,53.5L93.9,54.7L92.9,55.7L92.5,55.9L92.2,55.9L91.6,55.6L73.3,37.5L72.4,37.5L71.4,38.2L65.9,43.8L65.6,44.2L65.6,44.7L66.5,45.8L69.8,48.9L78.0,57.1L79.3,58.2L82.5,61.5L83.3,62.1L84.5,63.6L84.4,64.2L82.1,66.5L81.9,66.9L81.2,67.4L80.3,68.5L72.5,76.3L70.2,78.4L66.9,81.9L66.4,82.2L66.0,82.8L66.2,83.6L72.5,89.8L72.8,89.9L73.4,89.9L74.3,89.3L75.9,87.6L77.1,86.5L79.3,84.2L82.4,81.2L83.1,80.4L84.1,79.5L88.0,75.6L91.4,72.1L92.2,71.5L92.7,71.5L93.4,72.0L98.6,77.2L103.3,81.7L106.4,84.8L106.9,85.2L110.1,88.5L111.3,89.4L112.0,89.5L112.3,89.3L113.8,87.8L114.1,87.4L116.3,85.2L116.7,85.0L118.2,83.4L118.6,82.6L118.5,81.9L114.8,78.2L108.4,72.1L106.9,70.4L105.4,69.1L102.2,65.9L101.6,65.2L100.9,64.5L100.3,63.8L100.3,63.5L100.9,62.7L101.6,62.1L107.9,55.7L111.8,51.9L112.0,51.9L113.2,50.4L114.5,49.2L114.7,49.1L115.8,48.0L117.0,46.7L117.5,46.5L118.1,45.9L119.2,44.2L119.0,43.8L116.6,41.4L115.9,40.9Z M45.2,26.5L43.7,26.6L41.3,27.0L39.4,27.1L38.9,27.4L38.2,27.4L36.2,28.0L35.5,28.3L34.6,28.4L32.8,29.1L32.1,29.6L31.7,29.7L29.1,30.9L28.7,31.2L28.0,31.4L27.0,32.2L26.1,32.7L22.5,35.4L20.4,37.3L17.6,40.5L15.5,43.2L14.3,45.2L14.1,45.8L13.3,46.9L12.8,48.1L12.5,48.7L12.4,49.1L11.9,49.9L10.8,53.4L10.7,54.0L10.4,54.7L9.9,56.5L9.7,58.3L9.5,58.6L9.4,60.7L9.1,62.0L9.1,65.3L9.2,67.8L9.4,68.3L9.7,71.6L10.2,73.3L10.4,74.2L11.5,77.7L12.4,79.3L12.6,80.1L14.2,83.1L15.2,84.7L15.4,85.7L15.9,86.5L17.8,88.1L17.9,88.5L19.6,90.5L20.3,91.0L20.5,91.3L24.0,94.2L26.3,95.7L26.9,96.2L29.1,97.5L33.3,99.3L34.5,99.6L34.8,99.9L35.5,100.0L36.4,100.3L37.2,100.5L37.6,100.7L39.8,101.2L41.2,101.3L43.8,101.6L48.0,101.7L53.0,101.3L53.5,101.0L55.0,100.8L55.2,100.6L56.1,100.6L56.7,100.3L57.1,100.3L58.5,99.8L60.4,99.0L61.3,98.8L62.1,98.3L64.1,97.5L68.2,95.1L70.4,93.0L70.5,92.5L68.8,90.6L67.2,89.2L64.3,86.2L63.6,85.8L62.8,85.8L62.2,86.2L61.8,86.4L60.8,87.1L59.1,87.9L58.5,88.4L58.1,88.5L57.4,88.9L56.0,89.5L53.0,90.4L51.8,90.5L51.1,90.8L48.5,91.1L45.3,91.1L44.7,90.9L42.8,90.8L41.5,90.6L41.3,90.5L40.3,90.4L39.9,90.2L37.7,89.5L36.5,88.9L35.5,88.6L32.5,87.0L32.1,86.6L31.9,86.6L29.6,84.8L27.7,83.1L25.7,81.0L24.3,78.9L22.1,75.0L21.2,72.5L21.1,71.9L20.9,71.5L20.6,70.3L20.1,67.9L19.9,65.0L20.0,60.9L21.1,56.1L21.7,54.7L22.1,53.4L23.5,50.7L24.4,49.2L25.8,47.5L26.4,46.6L29.1,43.9L31.8,41.8L32.7,41.3L33.0,41.0L33.8,40.6L34.6,40.0L36.9,39.0L39.4,38.2L40.5,37.8L41.5,37.8L42.5,37.5L43.2,37.5L44.3,37.2L45.3,37.2L46.1,37.1L49.6,37.2L52.4,37.7L55.0,38.4L55.7,38.8L56.7,39.0L60.1,40.7L62.4,42.1L63.1,42.2L63.5,41.9L65.4,40.1L65.9,39.5L69.3,36.0L70.0,35.1L70.0,34.8L69.0,33.8L66.9,32.3L66.2,32.1L65.2,31.3L60.5,29.1L60.0,29.0L59.4,28.7L58.4,28.4L58.1,28.2L57.5,28.1L56.2,27.7L55.4,27.6L55.1,27.4L52.0,26.8L48.8,26.5Z" fill="#000" fill-rule="evenodd"/>
</svg>