<svg xmlns="http://www.w3.org/2000/svg" viewBox="0 0 128 128" width="128" height="128">
  <path d="M46.8,29.8L33.9,30.0L31.6,30.4L30.4,30.8L28.4,32.3L26.7,34.0L25.4,35.1L23.6,36.9L22.5,37.8L20.2,39.9L18.6,41.3L14.8,45.0L14.5,45.0L11.5,47.7L10.3,49.2L9.5,50.7L9.1,52.1L9.1,61.9L9.3,65.6L9.5,77.8L9.6,78.7L10.0,79.7L11.0,81.0L13.2,83.2L15.9,85.4L18.4,87.7L21.1,90.1L22.4,91.4L23.6,92.2L24.1,92.8L25.3,93.7L25.6,94.1L27.2,95.4L29.7,97.7L30.9,98.5L31.9,98.8L33.7,99.3L46.0,99.1L46.5,98.7L46.7,97.5L46.5,85.0L46.5,84.7L46.2,84.4L45.1,84.3L38.8,84.4L28.3,84.4L27.7,84.4L26.6,83.9L26.1,83.4L25.5,82.7L25.5,82.4L25.2,82.0L25.0,81.2L24.9,79.9L25.0,75.5L24.9,74.3L24.9,72.6L24.8,68.4L24.8,59.4L24.6,51.0L24.7,47.9L25.1,46.5L25.7,46.0L26.1,45.3L27.0,44.6L27.7,44.4L28.7,44.3L35.0,44.1L45.6,44.1L47.3,43.8L47.5,43.6L47.6,43.0L47.5,31.4L47.4,30.2L47.1,29.9Z M25.6,86.2L26.6,86.3L27.0,86.9L27.0,88.4L26.7,88.7L26.4,88.8L25.6,88.7L25.3,88.4L25.1,87.0L25.3,86.6Z M35.0,86.1L35.7,86.1L36.2,86.4L36.3,88.2L35.8,88.7L34.8,88.6L34.5,88.2L34.5,86.6Z M30.4,86.1L31.2,86.2L31.6,86.7L31.6,88.4L31.3,88.7L30.8,88.8L30.2,88.7L30.0,88.4L29.8,88.0L29.8,86.7L29.9,86.5Z M39.6,86.0L40.5,86.1L40.9,86.4L40.9,88.1L40.6,88.6L39.8,88.7L39.3,88.3L39.1,86.7L39.2,86.4Z M44.5,86.0L45.1,86.0L45.6,86.4L45.6,88.1L45.3,88.5L44.8,88.7L44.3,88.6L44.0,88.3L43.8,87.8L43.8,86.4Z M11.4,78.8L11.5,78.6L12.0,78.4L13.5,78.5L13.8,78.8L14.0,79.7L13.6,80.1L11.8,80.1L11.6,80.0L11.4,79.7Z M11.3,74.3L11.8,73.8L12.0,73.7L13.2,73.7L13.5,73.8L13.9,74.3L14.0,74.7L13.6,75.3L12.9,75.5L12.2,75.5L11.6,75.3L11.5,75.2Z M11.3,69.5L11.5,69.2L11.9,69.0L13.4,69.1L13.8,69.6L13.8,70.2L13.5,70.6L13.2,70.7L11.6,70.6L11.3,70.2Z M11.5,64.5L12.3,64.3L13.5,64.5L13.8,64.9L13.8,65.7L13.4,66.0L11.5,65.9L11.4,65.9L11.2,65.4Z M11.2,60.1L11.5,59.7L11.8,59.6L13.1,59.6L13.7,59.9L13.8,60.7L13.6,61.1L13.2,61.3L11.8,61.3L11.2,61.0Z M11.1,55.3L11.5,54.9L13.2,54.9L13.6,55.2L13.7,56.1L13.3,56.5L11.5,56.5L11.1,56.1Z M11.2,50.4L11.5,50.2L11.9,50.1L13.2,50.2L13.3,50.3L13.5,50.7L13.5,51.3L13.1,51.7L11.9,51.8L11.5,51.7L11.1,51.0Z M25.3,39.9L26.1,39.9L26.4,40.1L26.6,40.4L26.6,41.6L26.5,42.2L26.2,42.4L25.4,42.4L24.9,42.0L24.9,40.3Z M30.2,39.8L30.9,39.9L31.1,40.1L31.3,40.6L31.3,41.6L31.2,42.0L30.7,42.4L30.0,42.3L29.7,42.0L29.5,41.6L29.5,40.7L29.7,40.1Z M34.7,39.7L35.3,39.7L35.9,40.1L36.1,40.9L36.0,41.6L35.8,42.0L35.4,42.3L34.8,42.3L34.5,42.2L34.2,41.8L34.3,40.1Z M39.4,39.6L40.1,39.6L40.6,40.1L40.7,41.6L40.6,41.8L40.1,42.3L39.4,42.3L38.9,41.8L38.9,40.3Z M44.1,39.5L44.9,39.6L45.2,39.9L45.4,40.3L45.4,41.7L45.0,42.1L44.1,42.1L43.6,41.6L43.6,39.9Z M82.9,29.4L73.2,29.4L72.1,29.6L70.2,30.4L69.3,31.0L67.7,32.3L66.1,33.9L60.6,38.6L60.4,38.6L59.6,39.5L59.1,39.7L57.0,41.6L52.4,45.3L51.2,46.5L50.5,46.9L49.6,47.8L48.9,48.8L48.4,49.7L47.9,51.4L47.8,52.5L47.8,57.8L48.0,69.9L47.9,79.0L48.1,81.7L48.2,88.7L48.1,98.2L48.3,98.8L48.5,99.0L59.1,99.2L61.4,99.0L64.1,99.0L64.7,98.6L64.8,91.8L65.0,91.5L64.8,90.8L64.9,82.7L64.7,75.2L64.8,70.7L64.7,66.5L64.7,47.6L65.0,46.1L65.4,45.7L65.8,44.9L66.4,44.3L67.3,43.8L69.4,43.6L71.8,43.5L81.9,43.5L83.0,43.4L83.4,43.2L83.5,42.6L83.5,30.3L83.2,29.6Z M50.2,97.0L50.7,96.5L52.2,96.5L52.5,96.6L52.9,97.1L52.9,97.7L52.6,98.1L52.2,98.2L50.8,98.2L50.5,98.2L50.2,97.8Z M50.2,92.3L50.5,91.8L51.3,91.7L52.0,91.8L52.6,92.1L52.8,92.5L52.7,93.1L52.0,93.5L50.9,93.5L50.3,93.1L50.2,92.8Z M50.2,87.4L50.5,87.1L52.0,87.1L52.4,87.2L52.7,87.5L52.8,88.1L52.7,88.3L52.2,88.7L51.2,88.8L50.7,88.7L50.4,88.4L50.2,87.9Z M50.1,83.0L50.7,82.3L51.9,82.3L52.7,82.9L52.7,83.4L52.3,84.0L52.1,84.0L50.7,84.0L50.2,83.7Z M50.0,78.2L50.5,77.6L51.7,77.6L52.2,77.7L52.7,78.2L52.7,78.6L52.6,79.0L52.1,79.3L50.8,79.3L50.2,79.0Z M50.0,73.5L50.5,72.9L52.0,72.9L52.6,73.4L52.6,74.3L52.3,74.5L51.9,74.6L50.5,74.6L50.0,74.0Z M49.9,68.9L50.5,68.2L51.9,68.2L52.6,68.7L52.6,69.3L52.5,69.6L52.1,69.9L50.6,69.9L50.0,69.4Z M49.9,64.2L50.3,63.5L51.6,63.5L52.0,63.5L52.5,64.0L52.6,64.5L52.5,64.8L51.9,65.2L50.6,65.2L50.3,65.1L49.9,64.6Z M49.9,59.5L50.0,59.1L50.4,58.8L51.9,58.8L52.4,59.1L52.5,59.8L52.1,60.4L50.7,60.5L50.2,60.3L50.0,60.1Z M49.8,54.5L50.2,54.1L50.4,54.0L51.6,54.0L52.1,54.1L52.4,54.4L52.5,55.0L52.3,55.4L52.0,55.7L50.3,55.7L49.9,55.4Z M49.8,49.6L50.2,49.3L51.8,49.3L52.2,49.6L52.4,50.2L52.2,50.6L51.9,50.9L50.3,50.9L50.1,50.8L49.8,50.4Z M71.3,39.2L71.9,39.3L72.3,40.1L72.2,41.3L71.7,41.9L70.9,41.8L70.4,41.3L70.5,39.8L71.0,39.3Z M66.4,39.2L67.2,39.3L67.6,39.9L67.6,41.0L67.4,41.6L67.0,41.9L66.4,41.9L66.0,41.7L65.7,41.3L65.7,39.9L65.9,39.5Z M80.5,39.1L81.2,39.1L81.7,39.6L81.7,41.3L81.4,41.6L80.9,41.8L80.3,41.7L80.0,41.4L79.8,40.9L79.9,39.6L80.2,39.3Z M75.8,39.1L76.6,39.3L77.0,39.8L76.9,41.3L76.5,41.8L75.6,41.7L75.2,41.1L75.2,39.7L75.3,39.5Z M105.7,29.1L103.5,29.8L102.8,30.2L101.0,31.6L99.0,33.5L98.2,34.1L96.5,35.7L95.1,36.8L93.3,38.5L92.9,38.7L90.6,40.8L90.0,41.2L88.6,42.6L88.2,42.8L87.2,43.8L86.0,44.6L83.2,47.0L82.2,48.1L81.7,49.0L81.2,51.0L81.2,77.9L81.7,79.3L83.6,81.3L85.0,82.4L86.9,84.3L88.4,85.4L92.3,89.0L93.1,89.5L94.6,91.0L98.3,94.0L102.8,98.0L104.8,98.7L105.7,98.8L111.4,98.8L113.1,98.7L113.5,98.8L114.4,98.7L117.6,98.8L118.6,98.5L118.9,98.3L118.9,98.0L119.0,84.7L118.9,84.2L118.6,83.9L118.0,83.7L99.9,83.7L99.0,83.5L98.2,83.0L97.1,81.8L96.9,81.0L96.7,47.7L96.9,47.2L96.9,46.3L97.2,45.5L97.8,44.6L98.5,44.0L99.4,43.5L100.2,43.3L104.1,43.1L113.6,43.1L114.2,43.3L115.7,43.1L117.2,43.2L118.2,43.1L118.6,43.0L119.0,42.6L119.0,29.2L118.5,28.8L108.1,29.0L107.1,28.9Z M102.3,85.5L103.2,85.5L103.5,85.7L103.7,86.5L103.5,87.7L103.1,88.1L102.4,88.1L102.1,88.0L101.8,87.5L101.8,86.0Z M116.5,85.4L117.1,85.4L117.5,85.6L117.9,86.1L117.9,87.6L117.7,88.1L117.3,88.2L116.5,88.1L116.2,87.8L116.0,87.5L115.9,86.0L116.1,85.7Z M111.6,85.5L112.6,85.4L113.0,85.7L113.1,86.4L113.1,87.5L112.7,88.1L111.8,88.1L111.3,87.6L111.2,86.0Z M97.7,85.4L98.4,85.5L98.8,85.9L99.0,86.4L98.9,87.6L98.7,87.9L98.3,88.2L97.6,88.1L97.1,87.7L97.1,85.9Z M107.0,85.4L107.8,85.4L108.2,85.7L108.4,86.0L108.4,87.6L107.9,88.1L107.1,88.1L106.7,87.8L106.5,87.4L106.5,86.0Z M83.2,78.1L83.5,77.7L84.0,77.6L85.3,77.6L85.9,78.2L85.9,78.8L85.5,79.3L85.2,79.4L83.7,79.3L83.2,79.0Z M83.2,73.4L83.7,72.9L85.3,72.9L85.9,73.6L85.9,74.3L85.2,74.6L83.5,74.6L83.2,74.1Z M83.2,69.0L83.3,68.5L83.5,68.3L84.0,68.2L85.5,68.2L85.9,68.9L85.9,69.5L85.5,69.8L85.0,69.9L84.0,69.9L83.5,69.8L83.3,69.6Z M83.2,63.8L83.8,63.5L85.2,63.5L85.8,63.8L85.9,64.5L85.8,64.8L85.4,65.1L84.8,65.2L84.1,65.2L83.6,65.1L83.2,64.5Z M83.3,59.0L83.9,58.7L85.5,58.8L85.9,59.4L85.9,59.9L85.3,60.5L84.5,60.5L83.5,60.4L83.2,60.0Z M83.2,54.4L83.7,54.0L85.4,54.0L85.9,54.4L85.8,55.3L85.3,55.7L83.7,55.7L83.2,55.3Z M83.1,49.7L83.7,49.2L85.1,49.2L85.5,49.4L85.8,49.6L85.9,50.4L85.5,50.8L85.2,50.9L83.9,50.9L83.5,50.8L83.2,50.4Z M97.5,38.8L98.3,38.9L98.7,39.5L98.7,40.9L98.3,41.3L98.0,41.5L97.3,41.5L96.8,40.9L96.8,39.3L97.2,38.9Z M102.4,38.7L103.1,38.9L103.4,39.2L103.4,39.5L103.4,40.9L103.1,41.4L102.8,41.5L102.2,41.5L101.9,41.3L101.5,40.9L101.7,39.1L101.9,38.9Z M111.7,38.6L112.4,38.6L112.8,39.0L112.9,39.3L112.9,40.7L112.8,40.9L112.4,41.4L111.6,41.3L111.2,41.0L111.1,40.8L111.1,39.3L111.3,38.9Z M107.1,38.6L107.6,38.7L108.1,39.2L108.1,39.5L108.1,40.9L107.8,41.3L106.9,41.4L106.6,41.3L106.3,40.9L106.3,39.3L106.7,38.8Z M116.5,38.6L117.3,38.6L117.8,39.3L117.8,40.7L117.2,41.3L116.4,41.3L116.0,41.0L115.8,40.7L115.9,39.0L116.2,38.7Z" fill="#000" fill-rule="evenodd"/>
</svg>