<svg xmlns="http://www.w3.org/2000/svg" viewBox="0 0 128 128" width="128" height="128">
  <path d="M72.5,48.1L71.9,49.8L71.8,51.9L71.7,78.8L72.1,79.9L73.0,81.0L73.7,81.5L75.4,82.0L114.5,82.0L118.6,81.9L119.0,81.6L119.1,75.6L118.9,75.2L118.7,75.0L117.0,74.8L98.4,74.8L96.0,74.7L82.1,74.7L80.1,74.7L79.5,74.5L79.2,74.2L78.9,73.5L79.0,56.1L79.2,54.3L79.8,53.5L80.9,53.3L104.6,53.5L108.8,53.3L118.3,53.4L118.6,53.3L118.9,53.1L119.0,52.2L118.9,47.6L118.9,47.0L118.6,46.6L118.2,46.5L114.7,46.4L104.6,46.5L75.4,46.2L73.7,46.9Z M56.8,46.6L56.5,46.2L55.3,46.2L36.9,46.2L21.8,46.3L13.9,46.2L12.1,46.6L11.3,46.9L10.4,47.9L10.0,48.5L9.7,49.5L9.4,60.1L9.4,66.8L9.2,70.8L9.3,75.9L9.1,76.6L9.1,77.8L9.3,79.2L9.9,80.5L10.8,81.4L11.4,81.7L12.9,82.0L24.3,81.8L33.7,82.0L51.4,82.0L56.2,81.8L56.4,81.6L56.6,79.7L56.6,75.3L56.5,75.0L56.2,74.7L50.8,74.5L44.5,74.5L40.1,74.7L33.3,74.7L29.4,74.5L17.4,74.5L16.8,74.3L16.4,73.8L16.3,73.5L16.2,67.2L16.6,54.8L16.8,54.0L17.4,53.5L17.9,53.3L21.6,53.3L56.3,53.3L56.7,53.0L56.8,52.6Z M10.2,36.9L10.0,38.3L9.9,42.8L10.2,43.3L10.5,43.3L23.3,43.2L33.0,43.3L38.4,43.1L42.5,43.3L58.2,43.2L60.2,43.3L60.5,43.7L60.7,44.4L60.7,53.2L60.5,59.5L60.6,65.9L60.4,76.3L60.4,78.5L60.3,84.4L59.9,84.8L59.1,85.0L20.4,84.8L9.6,84.9L9.2,85.2L9.1,85.4L9.1,91.5L9.4,91.8L9.7,92.0L10.6,92.1L32.1,92.1L41.1,92.3L59.8,92.3L64.0,92.1L75.8,92.1L83.7,92.3L100.5,92.3L108.0,92.1L117.3,92.2L118.6,92.1L118.9,91.8L119.2,90.5L119.2,86.1L119.0,85.4L118.7,85.1L105.4,85.1L97.9,85.0L68.6,85.0L68.1,84.8L67.7,84.1L67.9,63.8L68.0,59.4L68.0,45.3L68.1,43.8L68.5,43.3L118.3,43.3L118.8,43.0L118.7,37.9L118.6,37.0L118.3,36.8L117.9,36.6L115.3,36.5L97.8,36.5L97.1,36.4L69.5,36.4L61.8,36.2L52.0,36.3L50.1,36.2L36.8,36.2L35.8,36.0L35.0,36.3L24.2,36.2L21.5,36.4L10.7,36.5L10.4,36.6Z" fill="#000" fill-rule="evenodd"/>
</svg>