<svg xmlns="http://www.w3.org/2000/svg" viewBox="0 0 128 128" width="128" height="128">
  <path d="M41.7,42.5L40.3,42.7L38.5,43.1L36.6,44.1L35.0,45.7L34.2,47.0L33.9,47.9L33.7,49.4L33.5,55.6L33.5,78.6L33.7,79.9L34.5,82.2L35.4,83.5L36.5,84.3L38.1,85.2L39.7,85.7L41.7,86.0L43.5,86.0L46.1,85.5L46.3,85.3L46.7,85.3L48.4,84.3L49.3,83.5L50.5,82.0L51.0,81.0L51.4,78.1L51.4,70.5L51.0,70.1L50.5,70.0L45.3,70.1L45.0,70.5L44.9,71.6L44.9,77.8L44.7,78.5L43.9,79.4L43.2,79.7L41.6,79.6L41.1,79.4L40.3,78.6L40.0,77.5L40.1,60.4L40.0,57.2L40.1,50.3L40.4,49.6L41.3,48.7L42.0,48.4L43.1,48.4L43.8,48.7L44.3,49.1L44.6,49.8L44.9,50.8L44.9,57.7L45.2,58.3L45.7,58.4L50.2,58.4L50.8,58.3L51.3,58.1L51.4,50.4L51.1,47.9L50.6,46.3L49.9,45.3L48.7,44.2L47.0,43.2L46.4,43.1L45.4,42.7L44.5,42.7L43.8,42.5Z M81.8,42.5L81.3,43.0L81.1,44.5L81.0,46.3L80.4,49.1L80.4,51.3L80.0,52.5L80.0,53.5L79.6,55.2L79.5,57.4L79.0,59.8L78.4,64.9L78.1,65.9L77.6,71.1L77.4,71.5L77.1,75.1L76.0,82.3L76.0,83.3L75.8,84.1L75.7,85.0L75.8,85.4L76.3,85.7L79.5,85.7L82.2,85.5L82.6,84.8L83.1,79.7L83.1,78.7L83.4,77.1L83.4,76.0L83.6,74.8L84.1,74.3L87.9,74.2L88.4,74.3L88.9,75.0L89.4,78.9L89.7,80.9L90.0,84.4L90.2,85.1L90.4,85.4L91.1,85.6L96.6,85.6L97.1,85.2L97.1,84.8L96.8,83.8L96.6,81.8L96.4,80.8L96.3,79.4L95.8,77.1L95.7,75.5L95.4,74.1L95.3,72.8L94.9,70.7L94.6,67.6L94.4,67.4L93.8,62.1L93.5,61.2L93.2,58.2L92.6,54.9L92.6,54.3L91.9,50.0L91.8,48.4L91.5,47.6L91.1,44.2L91.0,43.8L91.0,43.0L90.6,42.5L90.3,42.3L85.7,42.3Z M86.0,52.4L86.3,52.5L86.7,55.2L86.7,56.2L87.1,58.3L87.3,61.7L87.5,62.4L87.5,63.4L87.7,64.0L87.7,65.0L88.0,67.3L87.3,67.6L85.4,67.6L84.8,67.5L84.4,67.3L84.6,63.6L85.0,61.8L85.0,59.1L85.2,58.6L85.2,57.6L85.6,55.5L85.8,52.6Z M64.1,42.2L60.9,42.7L58.8,43.8L57.4,45.0L56.7,46.0L56.1,47.0L56.0,47.7L55.8,48.4L55.6,49.8L55.5,53.7L55.6,78.0L56.0,80.5L56.4,81.7L57.1,82.8L58.3,84.0L59.7,84.9L61.6,85.6L63.3,85.9L65.9,85.9L67.8,85.6L69.8,84.8L71.2,83.8L72.1,82.8L73.1,81.2L73.6,78.6L73.5,70.5L73.5,70.2L72.8,69.8L69.6,69.8L67.3,70.0L67.1,70.2L67.0,70.6L67.0,77.6L66.8,78.5L65.9,79.4L65.1,79.6L63.6,79.6L62.6,78.7L62.1,76.9L62.1,73.1L62.2,50.0L62.5,49.3L63.2,48.5L64.2,48.2L65.6,48.4L66.7,49.3L66.9,50.4L67.0,52.1L66.9,57.5L67.1,57.9L67.6,58.3L72.8,58.2L73.1,58.1L73.4,57.8L73.5,50.1L73.4,49.6L73.3,48.2L73.0,46.8L72.2,45.3L71.2,44.3L69.8,43.3L67.7,42.5Z M103.3,36.3L102.7,36.0L102.4,36.1L102.2,41.1L102.3,67.5L102.5,72.9L102.5,91.6L102.3,91.9L101.9,92.1L99.1,92.2L54.1,92.2L48.7,92.4L45.3,92.3L39.9,92.5L27.3,92.6L27.4,93.1L44.9,111.2L45.3,111.4L73.7,111.2L118.6,111.3L118.9,111.0L119.0,108.0L118.7,96.2L118.5,95.5L118.3,89.4L118.1,88.8L118.1,83.5L117.9,82.9L117.7,72.7L117.5,72.0L117.5,68.9L117.3,67.6L117.2,59.0L117.0,56.1L116.7,50.2L116.4,49.8L112.0,45.3L111.5,44.6Z M84.3,17.0L80.3,16.9L77.6,17.1L64.4,17.2L59.0,17.5L50.1,17.5L48.1,17.7L32.1,17.8L21.8,18.0L11.8,18.0L9.9,18.1L9.5,18.4L9.4,18.9L9.3,23.7L9.4,33.4L9.4,64.4L9.5,74.3L9.9,75.0L16.3,81.7L18.7,84.1L23.1,88.7L23.2,88.9L23.8,89.4L26.3,91.9L26.9,92.1L27.0,91.9L27.1,88.0L27.1,46.3L27.2,38.2L27.5,37.1L28.0,36.9L31.6,36.9L33.4,36.7L37.0,36.8L54.3,36.4L56.0,36.5L59.0,36.3L67.8,36.3L80.5,36.0L91.9,35.9L96.6,35.7L97.9,35.8L102.0,35.5L102.0,35.1L99.7,32.7L99.4,32.2Z" fill="#000" fill-rule="evenodd"/>
</svg>