<svg xmlns="http://www.w3.org/2000/svg" viewBox="0 0 128 128" width="128" height="128">
  <path d="M13.0,117.7L13.1,118.2L13.4,118.3L17.4,118.5L20.7,118.4L30.1,118.6L46.9,118.6L52.3,118.8L86.1,118.8L100.0,118.6L110.5,118.8L115.2,118.7L116.0,118.5L116.0,118.0L115.2,116.9L92.1,93.9L90.0,92.0L65.3,67.3L64.7,66.8L64.3,66.8L63.7,67.2L41.8,89.1L33.4,97.2L31.1,99.6L29.2,101.3L28.5,102.2L25.1,105.5L23.9,106.8L13.4,117.1Z M46.8,104.1L64.1,86.9L64.9,86.8L82.3,104.0L82.5,104.5L82.3,104.7L81.1,104.9L50.3,104.9L47.0,104.7L46.8,104.5Z M118.3,13.1L117.9,13.3L109.7,21.5L107.9,23.1L90.3,40.9L88.8,42.2L81.2,50.0L77.8,53.2L75.4,55.7L74.1,56.8L72.7,58.3L67.5,63.3L66.9,64.1L66.9,64.7L67.6,65.6L73.2,71.1L74.2,71.6L104.0,71.6L104.7,72.2L104.8,81.6L104.6,81.8L104.3,81.8L103.7,81.4L97.0,74.7L96.5,74.5L77.5,74.5L77.4,75.2L80.2,78.2L86.5,84.3L96.3,94.2L97.6,95.3L109.2,106.9L118.2,115.5L118.7,115.4L118.8,115.2L118.9,112.2L118.7,58.2L118.0,57.7L95.7,57.7L94.7,57.6L94.3,57.2L94.3,56.9L100.8,50.5L100.9,50.1L104.4,47.0L104.6,47.0L104.8,47.1L104.9,53.7L105.1,54.2L105.7,54.4L116.0,54.5L117.9,54.4L118.6,54.0L118.8,51.2L118.8,25.1L118.6,13.5Z M108.8,99.6L109.3,99.7L109.0,100.2L108.6,100.1L108.6,99.8Z M9.8,12.6L9.5,13.0L9.4,14.3L9.5,38.7L9.7,44.9L9.6,65.4L9.9,91.0L9.8,114.0L10.1,115.5L10.4,115.5L13.1,113.1L25.2,101.0L26.2,100.1L40.5,85.8L41.7,84.8L43.7,82.7L44.9,81.6L47.9,78.6L56.5,70.3L59.9,66.7L59.9,66.5L59.5,66.1L58.9,66.0L41.2,65.9L40.5,66.1L24.8,81.6L24.3,81.9L23.9,81.8L23.7,79.7L23.8,62.9L23.6,51.6L23.8,49.3L23.8,46.6L24.2,46.4L24.9,46.8L40.4,62.3L41.1,62.7L42.3,62.9L46.4,62.9L47.7,63.1L49.5,62.9L59.0,63.0L59.9,62.8L60.0,62.2L25.3,27.4L19.5,21.8L18.1,20.3L10.3,12.6Z M12.4,9.9L12.4,10.3L17.7,15.7L35.8,33.8L36.3,34.4L37.4,35.4L48.8,46.9L50.0,47.9L50.7,48.8L53.3,51.3L54.3,52.2L59.6,57.7L64.0,61.9L64.9,61.8L69.0,57.8L89.1,37.6L89.9,37.0L90.4,36.3L115.6,11.1L115.6,10.5L114.8,10.3L95.8,10.3L91.6,10.1L85.5,10.1L84.5,9.8L83.8,10.0L75.7,10.0L56.9,9.7L13.2,9.5Z M47.3,24.3L47.5,24.2L80.3,24.3L81.5,24.5L81.6,24.9L80.8,26.0L77.0,29.9L72.3,34.4L65.2,41.5L64.7,41.8L64.3,41.8L62.4,39.9L61.7,39.4L61.1,38.6L58.4,36.1L51.5,29.2L50.9,28.4L47.7,25.2L47.3,24.6Z" fill="#000" fill-rule="evenodd"/>
</svg>