<svg xmlns="http://www.w3.org/2000/svg" viewBox="0 0 128 128" width="128" height="128">
  <path d="M50.8,85.0L50.9,85.2L51.5,85.3L66.0,85.3L68.7,85.5L79.1,85.5L81.9,85.2L84.7,84.7L87.7,83.8L89.5,83.0L89.9,83.0L92.3,81.8L92.7,81.4L94.3,80.5L94.9,80.0L96.8,78.6L99.1,76.4L101.5,73.4L102.0,72.6L102.0,72.3L101.8,72.2L101.5,72.1L58.5,72.1L58.2,72.3L57.7,73.0L57.1,74.1L56.3,75.3L55.7,76.4L54.6,78.1L54.1,79.2L53.5,80.2L53.2,80.8L51.7,83.3L51.6,83.6L51.0,84.4Z M56.2,72.3L55.7,72.0L12.2,72.2L11.6,72.5L9.4,76.2L9.0,78.0L9.0,79.3L9.4,81.2L9.8,82.0L10.6,83.1L11.5,84.0L12.7,84.7L13.6,85.2L14.9,85.5L33.2,85.5L36.1,85.3L48.0,85.4L48.7,85.2L49.6,84.1L50.2,82.9L50.8,81.9L51.0,81.4L52.0,79.9L52.5,78.8L52.9,78.3L53.5,77.2L53.8,76.7L53.9,76.4L55.3,74.2L55.5,73.6L56.1,72.8Z M110.4,58.0L110.2,57.7L110.0,57.7L66.8,57.8L66.5,57.9L66.2,58.4L61.9,65.9L61.4,66.5L60.8,67.7L60.1,68.8L59.9,69.4L59.6,69.7L59.4,70.5L59.6,70.6L60.1,70.7L102.8,70.7L103.1,70.6L103.4,70.3L105.7,66.2L108.3,62.1L108.8,61.0L110.3,58.5Z M30.6,70.6L30.9,70.8L57.2,70.6L57.9,69.7L59.6,66.8L59.6,66.5L61.6,63.2L61.7,62.9L62.6,61.7L63.2,60.4L64.0,59.3L64.5,58.2L64.4,57.8L63.8,57.7L44.2,57.7L41.7,57.9L39.9,58.4L38.4,59.1L37.7,59.6L35.6,61.5L34.8,62.5L33.9,64.4L33.5,64.8L33.0,65.9L30.5,70.1Z M37.0,65.6L37.7,65.5L38.1,65.7L38.7,66.0L39.2,66.5L39.2,66.7L39.2,67.9L38.6,68.5L37.8,68.9L37.1,68.9L36.4,68.6L35.7,67.6L35.7,66.9L36.0,66.3L36.4,65.9Z M73.1,43.1L72.9,43.0L67.6,42.9L41.7,42.9L39.2,43.2L36.7,43.7L36.0,44.0L35.6,44.0L34.8,44.4L34.1,44.5L33.6,44.8L33.1,44.9L32.6,45.3L32.3,45.3L30.1,46.4L28.4,47.6L27.9,48.1L27.5,48.3L24.4,51.2L23.5,52.3L22.6,53.7L21.3,56.0L20.7,56.8L19.4,59.1L18.5,60.6L16.6,63.9L15.8,65.1L14.7,67.3L13.7,68.7L13.5,69.4L13.0,70.0L13.0,70.5L13.2,70.8L28.3,70.7L28.6,70.6L29.0,70.1L33.0,62.9L33.2,62.7L34.0,61.3L34.7,60.4L36.1,59.1L37.3,58.3L38.9,57.4L40.8,56.8L41.4,56.8L43.1,56.4L44.6,56.3L65.1,56.3L65.6,56.2L65.9,55.9L66.3,55.0L66.9,54.2L68.2,51.7L69.5,49.7L70.1,48.4L70.9,47.4L71.1,46.8L72.4,44.7L72.5,44.2L72.8,43.9L73.1,43.5Z M119.2,43.0L119.0,42.8L118.7,42.7L94.3,42.8L90.9,42.8L88.0,43.0L83.8,43.8L81.5,44.5L80.2,45.2L78.6,45.8L78.4,46.0L77.8,46.2L75.7,47.5L74.5,48.4L73.5,49.1L71.2,51.1L69.9,52.5L68.5,54.4L67.8,55.7L67.7,56.0L68.1,56.3L111.2,56.3L111.9,55.8L112.4,55.0L113.7,52.5L114.0,52.2L114.2,51.8L114.8,50.9L115.4,49.7L115.7,49.4L116.2,48.3L117.4,46.4L117.5,46.1L118.6,44.4L118.7,43.9L119.1,43.5Z" fill="#000" fill-rule="evenodd"/>
</svg>