<svg xmlns="http://www.w3.org/2000/svg" viewBox="0 0 128 128" width="128" height="128">
  <path d="M62.4,9.1L59.9,9.3L57.7,9.6L56.6,9.6L54.4,10.1L53.4,10.2L52.7,10.4L51.3,10.7L50.1,11.1L49.4,11.2L44.8,12.7L44.0,13.1L43.1,13.4L42.8,13.6L42.2,13.8L41.8,14.1L41.3,14.2L40.9,14.5L40.3,14.7L37.8,16.0L32.6,19.2L29.4,21.7L26.5,24.3L24.5,26.2L20.4,30.9L18.1,34.3L17.5,35.3L17.2,35.7L17.0,36.3L16.4,37.1L15.6,38.8L14.5,40.6L12.7,44.8L12.0,47.0L11.7,47.4L11.1,50.1L10.9,50.5L10.8,51.3L10.3,52.8L10.1,54.3L9.8,55.3L9.4,58.5L9.4,59.9L9.2,60.6L9.1,67.1L9.3,69.6L9.8,73.3L10.0,73.8L10.0,74.7L10.7,77.4L10.9,78.6L12.6,84.0L12.9,84.3L13.0,85.0L13.4,85.4L13.5,85.9L14.3,87.7L14.4,88.1L15.3,89.7L15.8,90.8L16.5,91.9L16.7,92.4L20.4,97.9L23.5,101.5L27.8,105.8L32.3,109.3L36.7,112.0L41.4,114.4L46.1,116.3L50.3,117.5L54.4,118.4L55.7,118.4L56.3,118.6L61.4,119.1L67.7,119.0L73.1,118.4L77.4,117.5L82.0,116.1L82.3,115.8L83.2,115.7L83.7,115.4L84.4,115.2L84.9,114.9L85.4,114.8L87.0,114.0L87.6,113.8L89.4,112.8L90.7,112.2L93.2,110.6L93.5,110.6L94.9,109.5L95.8,109.0L100.2,105.5L104.2,101.6L106.7,98.8L110.0,94.4L110.2,93.9L111.4,92.1L111.5,91.8L112.8,89.7L113.2,88.7L113.2,88.4L114.1,86.9L114.3,86.2L114.6,85.7L115.0,84.5L115.6,83.3L115.6,83.1L116.0,82.3L116.8,79.7L116.8,79.4L117.0,79.2L117.5,76.9L118.1,74.7L118.5,71.7L118.9,70.3L118.9,69.1L119.1,67.1L119.1,64.9L118.9,64.5L118.5,64.3L111.8,64.4L101.3,64.2L101.0,63.9L100.6,59.2L100.3,58.3L100.3,57.6L100.0,56.0L99.7,55.2L99.2,52.9L98.4,51.3L97.9,49.6L96.5,46.7L95.5,45.0L94.9,44.2L94.8,43.9L93.0,41.4L91.4,39.6L88.8,37.0L86.3,35.0L85.9,34.8L82.9,32.8L80.6,31.7L80.3,31.4L79.9,31.3L79.1,30.9L78.6,30.8L77.2,30.1L76.2,29.9L75.6,29.6L74.6,29.4L74.1,29.2L69.4,28.2L66.5,27.9L64.9,28.0L64.5,28.3L64.6,33.2L64.9,33.5L66.6,33.5L69.4,34.0L73.1,35.3L75.3,36.4L77.1,37.6L79.2,39.5L82.2,42.7L83.5,44.7L84.5,46.6L85.1,47.5L85.3,48.3L86.2,50.1L86.4,50.8L87.0,52.0L87.5,53.8L87.7,54.9L88.0,55.5L88.0,56.0L87.6,56.1L87.0,54.4L85.8,52.0L83.4,48.8L81.2,46.4L79.4,44.9L77.4,43.5L75.8,42.7L75.2,42.5L74.4,42.0L72.7,41.3L69.0,40.3L65.9,40.0L63.6,40.0L62.9,40.1L61.9,40.1L59.4,40.5L58.5,40.9L57.9,40.9L57.1,41.3L56.5,41.4L56.2,41.6L55.4,41.8L53.4,42.7L51.1,44.0L48.3,46.3L46.2,48.3L44.8,50.1L44.6,50.6L43.7,51.8L42.0,55.3L40.9,58.4L40.5,60.8L40.2,63.3L40.0,63.8L39.8,64.0L38.5,64.2L28.3,64.1L27.9,63.8L27.8,63.5L27.9,60.7L28.7,55.2L29.7,50.5L30.6,47.9L30.6,47.5L31.0,46.6L31.0,46.4L32.9,41.8L35.7,36.6L36.1,36.3L36.1,36.0L38.3,32.8L40.7,29.9L41.5,29.1L41.6,28.8L45.0,25.5L47.6,23.5L49.2,22.7L49.8,22.2L50.1,22.2L51.5,21.4L52.0,21.3L52.5,21.0L55.2,20.0L58.8,19.1L61.8,18.7L64.4,18.6L64.8,18.3L64.9,17.9L64.9,9.5L64.9,9.3L64.4,9.1Z M28.9,75.1L29.2,74.5L31.2,79.7L32.1,81.2L32.6,82.3L33.9,84.5L36.6,88.0L40.7,92.1L44.0,94.5L47.6,96.7L48.0,96.8L48.7,97.2L49.1,97.3L50.7,98.1L51.4,98.3L53.2,99.0L53.9,99.1L54.5,99.4L54.9,99.4L55.8,99.7L56.8,99.8L58.0,100.2L61.4,100.6L66.2,100.6L70.1,100.2L71.8,99.9L76.7,98.5L77.4,98.1L78.4,97.8L79.1,97.4L79.7,97.2L80.4,96.8L81.0,96.7L81.2,96.4L81.6,96.3L84.2,94.6L84.4,94.6L86.8,92.8L89.1,91.0L90.4,89.7L93.6,86.0L95.1,83.8L96.2,81.8L96.5,81.5L97.9,78.8L98.9,76.2L99.2,75.1L99.6,74.7L99.7,74.9L99.6,76.0L99.3,77.0L99.3,77.5L98.4,80.5L98.0,81.1L97.5,83.1L97.1,83.8L97.0,84.3L96.7,84.8L96.6,85.3L95.7,87.0L95.6,87.4L95.4,87.6L94.2,90.0L94.0,90.2L92.3,93.2L91.8,93.8L91.1,94.9L90.0,96.3L89.7,96.8L87.0,100.1L84.8,102.3L82.8,103.9L81.2,105.0L80.2,105.5L79.9,105.8L77.8,106.8L77.2,107.2L75.2,108.0L74.6,108.1L74.0,108.4L71.8,109.1L68.4,109.7L66.2,110.0L63.1,110.0L59.6,109.7L56.4,109.0L53.1,108.0L49.3,106.2L48.3,105.4L47.5,105.1L45.5,103.7L42.7,101.3L41.4,100.0L37.7,95.4L37.3,94.6L36.9,94.2L36.8,93.9L35.6,92.3L35.5,91.9L34.4,90.1L34.1,89.5L33.9,89.3L32.7,87.0L31.2,83.2L29.7,78.6L29.2,76.2L29.2,75.7Z M63.8,51.1L65.6,51.1L66.6,51.3L68.5,51.9L70.1,52.9L72.5,55.3L73.9,57.5L74.7,59.4L75.2,61.1L75.4,62.8L75.4,64.1L75.6,64.5L75.9,64.7L76.6,64.8L80.6,64.8L80.9,64.9L81.0,65.2L81.1,66.0L80.9,68.4L80.1,71.8L79.1,74.4L77.7,77.0L75.5,79.7L74.5,80.6L72.9,81.8L69.7,83.4L69.2,83.4L67.4,83.9L66.8,83.9L66.3,84.0L65.2,84.0L64.6,84.2L64.4,84.6L64.4,87.7L64.5,88.5L67.5,88.5L69.7,88.1L72.5,87.3L76.1,85.8L77.7,84.6L78.7,84.1L80.8,82.3L83.0,80.1L85.3,77.1L86.6,74.7L87.0,73.6L87.4,72.8L87.5,72.7L87.7,72.9L87.5,74.3L86.7,76.6L85.7,79.1L85.4,79.4L85.4,79.7L84.5,81.4L82.5,84.5L80.8,86.7L78.8,88.8L77.4,90.0L76.2,90.8L74.5,91.8L72.2,92.8L69.3,93.7L66.1,94.2L62.4,94.2L61.3,94.1L58.3,93.4L56.3,92.7L54.2,91.6L51.3,89.7L48.3,86.8L46.4,84.5L45.6,83.2L43.8,79.7L43.1,78.0L42.9,77.7L42.3,75.8L42.1,75.4L41.6,73.6L41.6,73.1L41.3,72.1L40.6,67.9L40.6,65.0L41.0,64.6L43.6,64.4L47.7,64.5L48.1,64.9L48.6,68.0L49.0,69.5L49.4,70.3L49.4,70.5L49.7,71.0L49.8,71.5L50.1,71.8L51.1,73.7L52.5,75.4L53.5,76.4L55.2,77.8L57.7,79.2L58.4,79.4L60.4,80.2L62.0,80.6L63.1,80.8L64.3,80.7L64.5,80.4L64.5,78.0L64.1,77.5L62.7,77.4L61.4,77.0L59.6,75.9L57.5,74.1L56.2,72.5L55.2,70.7L55.2,70.4L54.4,68.8L54.0,66.7L53.8,65.2L54.0,61.4L55.0,58.4L55.3,57.9L55.4,57.5L56.4,56.0L57.1,55.0L58.5,53.5L60.2,52.2L61.8,51.4Z M49.4,56.7L50.0,55.2L50.4,54.4L50.6,53.5L52.1,50.9L52.7,50.3L53.2,49.3L55.7,47.1L57.0,46.3L59.5,45.2L59.9,45.2L61.4,44.7L63.1,44.4L66.2,44.4L68.7,44.9L71.3,45.9L73.3,47.1L74.8,48.3L76.1,49.6L77.1,50.9L78.5,53.0L78.6,53.4L78.9,53.9L79.5,55.3L79.6,55.7L79.9,56.4L80.0,57.1L80.2,57.6L80.1,58.0L80.0,58.0L79.7,57.8L78.8,55.9L77.5,54.1L76.0,52.5L74.0,50.9L71.8,49.6L70.1,48.9L68.2,48.3L66.2,48.0L63.3,48.0L62.2,48.3L61.0,48.3L57.5,49.6L54.8,51.3L52.5,53.3L50.7,55.6L50.4,56.4L49.6,57.5L49.4,57.4Z" fill="#000" fill-rule="evenodd"/>
</svg>