<svg xmlns="http://www.w3.org/2000/svg" viewBox="0 0 128 128" width="128" height="128">
  <path d="M9.2,60.3L9.1,61.7L9.1,65.6L9.5,68.8L9.8,69.4L9.8,70.2L10.4,71.7L11.2,73.5L11.4,74.3L12.3,76.0L13.9,78.4L14.5,79.0L14.6,79.3L15.5,80.3L17.8,82.5L18.9,83.3L19.7,84.0L21.0,84.6L21.9,85.3L24.8,86.6L28.1,87.5L31.9,88.0L35.3,87.8L37.8,87.4L40.3,86.6L42.7,85.7L45.2,84.2L46.9,82.9L49.5,80.4L53.3,76.4L53.7,76.2L71.5,76.3L73.6,76.3L74.1,76.5L74.4,76.8L74.6,87.6L74.7,87.8L75.3,88.1L83.2,88.1L89.1,88.2L90.0,87.9L90.3,87.7L90.5,83.3L90.5,77.9L90.6,76.9L91.1,76.4L117.0,76.4L118.2,76.3L118.7,76.0L118.8,72.2L118.8,68.7L118.9,61.9L118.8,61.6L118.5,61.4L91.4,61.3L91.1,61.2L90.7,60.8L90.7,58.1L91.1,57.5L92.0,57.4L118.6,57.4L119.0,57.0L119.0,54.0L119.1,51.4L119.1,43.4L118.8,43.1L118.2,42.9L114.6,42.9L113.9,43.0L93.5,42.9L91.7,43.0L77.4,42.9L63.3,43.1L63.0,43.2L62.1,44.2L58.5,48.1L57.8,48.7L57.6,49.1L44.6,63.1L44.5,63.4L43.3,64.5L41.6,66.5L38.3,70.0L36.7,71.3L34.9,72.1L33.6,72.4L31.3,72.4L29.3,71.9L28.0,71.2L27.0,70.4L25.9,69.2L25.2,68.1L24.5,66.5L24.2,65.2L24.1,64.9L24.1,63.3L24.4,61.7L24.8,60.4L25.7,58.8L27.3,57.2L28.4,56.5L29.7,55.9L31.1,55.5L33.1,55.5L35.9,56.3L37.8,57.5L39.2,59.0L40.5,61.7L41.0,61.8L42.2,60.8L42.4,60.5L51.4,50.8L51.4,50.2L51.2,49.6L50.3,48.4L48.1,46.2L47.1,45.3L44.3,43.4L41.5,42.0L38.0,40.7L36.8,40.5L36.5,40.4L34.9,40.1L30.3,40.0L28.4,40.2L26.8,40.7L26.1,40.8L24.7,41.2L22.4,42.2L21.6,42.6L21.3,42.7L18.1,44.7L17.6,45.2L17.4,45.3L15.5,47.2L15.4,47.5L14.5,48.2L13.9,49.1L13.2,49.9L11.4,53.1L10.1,56.6L10.0,57.2L9.5,58.5L9.5,59.5Z M74.5,54.0L74.7,54.1L74.7,59.9L74.6,60.7L74.1,61.1L73.6,61.3L69.3,61.3L68.2,61.1L67.9,60.8L67.9,60.7L69.1,59.1L73.9,54.0Z" fill="#000" fill-rule="evenodd"/>
</svg>