<svg xmlns="http://www.w3.org/2000/svg" viewBox="0 0 128 128" width="128" height="128">
  <path d="M12.2,49.8L11.6,51.3L11.5,51.8L11.3,52.1L11.0,53.1L10.8,53.3L10.2,55.4L9.3,59.8L9.1,62.9L9.1,65.9L9.5,69.7L9.8,70.7L9.8,71.2L10.4,73.4L11.6,76.8L12.2,78.4L13.1,80.0L13.5,80.9L13.9,81.4L14.5,82.5L16.3,84.9L18.8,87.9L20.1,89.1L20.9,89.6L21.2,90.1L24.3,92.3L27.5,94.2L28.6,94.6L29.2,95.0L32.7,96.3L34.9,96.9L36.9,97.3L40.6,97.8L45.0,97.8L46.2,97.5L48.2,97.4L50.8,96.9L55.6,95.3L59.3,93.5L60.1,93.5L61.8,94.5L63.3,95.2L66.9,96.5L69.3,97.1L69.7,97.1L70.2,97.3L72.6,97.5L74.2,97.8L117.8,98.0L118.3,97.9L118.8,97.5L118.8,91.8L118.5,91.3L116.6,91.1L98.3,91.1L97.7,90.9L97.7,90.5L100.3,88.2L102.7,85.7L104.3,83.5L106.4,80.1L106.6,79.4L106.9,79.1L107.6,77.4L108.7,74.5L109.7,71.0L109.9,69.1L110.1,68.4L110.6,68.0L111.2,68.0L117.0,68.0L118.2,68.0L118.7,67.7L118.9,67.1L119.0,66.5L119.1,62.0L118.9,61.2L118.6,61.0L118.2,60.9L110.6,60.9L110.1,60.2L109.4,56.1L108.6,53.3L108.2,52.5L108.0,51.6L107.6,50.9L107.3,49.9L106.5,48.1L106.2,47.7L105.4,46.3L103.2,43.1L101.0,40.6L98.3,38.0L97.8,37.7L97.7,37.4L98.0,37.2L101.8,37.1L105.3,37.2L118.8,37.0L119.1,36.7L119.2,33.8L119.1,30.9L118.7,30.5L109.3,30.5L105.3,30.3L73.5,30.4L70.7,30.8L67.5,31.5L63.7,32.8L60.1,34.6L59.4,34.5L56.2,32.9L56.0,32.9L54.3,32.2L52.5,31.6L49.6,30.8L46.0,30.3L44.3,30.2L40.0,30.3L36.7,30.8L32.7,31.7L31.5,32.1L29.0,33.2L28.8,33.2L26.2,34.6L24.8,35.6L24.5,35.7L23.9,36.2L21.9,37.5L19.6,39.5L16.3,43.0L14.0,46.3Z M78.7,68.0L78.9,67.8L79.7,67.7L87.1,67.7L94.6,68.0L96.0,67.9L99.1,68.0L102.7,68.0L103.0,68.2L103.1,68.5L102.6,71.2L101.8,73.8L101.4,74.4L101.3,74.8L100.6,76.1L100.6,76.5L99.7,77.8L99.3,78.8L97.6,81.1L95.1,83.7L93.2,85.4L92.0,86.1L91.5,86.1L91.0,85.6L89.8,83.8L88.2,81.6L87.9,81.0L87.0,79.9L86.8,79.4L86.3,79.0L85.7,77.9L84.7,76.7L83.6,75.0L82.3,73.4L81.6,72.3L79.8,70.0L78.9,68.5Z M67.0,64.7L67.4,64.7L68.3,65.8L68.9,66.8L71.3,69.9L71.6,70.6L72.2,71.1L73.4,72.9L74.3,74.0L75.2,75.3L75.4,75.5L76.1,76.6L77.2,77.8L77.5,78.5L79.6,81.1L79.8,81.6L82.1,84.4L82.5,85.2L83.0,85.6L83.1,86.0L84.6,87.8L84.9,88.4L85.4,89.0L85.4,89.3L85.2,89.6L83.0,90.2L82.6,90.5L80.4,90.8L78.4,91.1L75.7,91.1L71.5,90.7L71.2,90.5L69.6,90.2L67.4,89.5L67.1,89.2L66.9,88.3L66.8,65.1Z M59.0,43.6L59.5,43.6L59.6,43.8L59.8,50.1L59.8,83.2L59.7,84.4L59.4,84.6L59.2,84.6L58.7,84.3L56.2,81.8L55.1,80.3L54.6,79.8L53.2,77.6L52.1,75.5L51.8,74.6L51.5,74.1L51.4,73.7L50.7,71.8L50.6,71.2L50.2,70.0L50.1,68.6L49.9,68.0L49.6,65.7L49.7,61.8L49.9,60.7L49.9,59.9L50.8,56.4L51.3,54.8L52.3,52.2L53.5,50.2L53.6,49.9L55.2,47.6L57.3,45.1L58.3,44.2Z M103.2,59.7L103.1,60.8L102.4,60.9L88.5,60.9L80.5,60.8L79.2,60.9L78.4,60.8L78.0,60.5L78.1,60.1L82.0,55.1L82.6,54.1L84.9,51.2L85.1,50.8L85.7,50.2L86.6,48.8L88.8,46.0L88.8,45.9L90.0,44.5L91.3,42.7L91.8,42.2L92.0,42.2L92.4,42.2L94.3,43.6L96.7,46.0L97.2,46.8L97.8,47.4L99.0,49.1L100.6,51.7L101.8,54.5L102.2,55.9L102.6,56.6Z M85.1,38.5L85.4,38.8L85.4,39.2L84.5,40.5L83.6,41.4L83.0,42.5L81.8,43.9L81.3,44.8L79.8,46.4L79.2,47.4L78.0,48.9L77.8,49.2L77.4,49.7L74.9,53.0L74.4,53.6L73.0,55.6L71.9,56.8L70.3,59.2L69.0,60.6L67.4,62.9L66.9,62.8L66.7,62.4L66.7,53.0L66.6,52.4L66.6,39.2L67.3,38.7L69.9,37.8L70.9,37.7L71.6,37.5L73.2,37.3L74.3,37.1L78.3,37.1L79.0,37.2L79.9,37.2L83.1,37.8Z M41.9,36.9L45.5,37.0L48.4,37.5L49.6,37.8L50.1,37.8L52.7,38.7L53.4,39.3L53.4,39.5L50.9,42.2L50.6,42.7L49.9,43.4L47.9,46.4L47.6,46.7L47.5,47.2L47.2,47.5L45.9,50.0L44.3,54.6L43.8,56.7L43.8,57.1L43.5,57.7L43.5,58.3L43.2,60.0L42.9,63.7L43.1,67.7L43.5,70.2L44.4,74.1L45.6,77.4L46.9,80.1L47.2,80.5L47.9,81.8L49.4,84.1L49.9,84.6L50.0,85.0L53.1,88.3L53.2,88.7L52.6,89.2L52.0,89.3L51.8,89.5L49.1,90.3L47.0,90.8L43.7,91.1L41.1,91.0L38.4,90.7L35.5,90.0L31.6,88.6L29.3,87.4L29.1,87.2L28.2,86.7L25.2,84.5L23.7,83.1L21.5,80.6L20.4,79.1L19.8,78.0L19.2,77.3L19.1,76.8L18.3,75.6L18.3,75.3L17.5,73.5L16.6,70.5L16.1,68.3L15.8,64.9L15.9,61.6L16.5,57.9L17.2,55.4L17.4,55.2L18.2,52.9L19.7,50.1L21.4,47.5L23.3,45.3L25.5,43.3L25.7,43.2L26.3,42.6L27.0,42.2L27.7,41.6L29.5,40.4L32.1,39.2L32.4,39.2L33.2,38.7L34.0,38.5L34.4,38.3L37.1,37.5L40.3,37.0Z" fill="#000" fill-rule="evenodd"/>
</svg>