<svg xmlns="http://www.w3.org/2000/svg" viewBox="0 0 128 128" width="128" height="128">
  <path d="M56.8,63.6L56.3,63.6L56.0,64.1L56.0,65.1L56.2,65.5L56.2,66.2L56.3,66.4L56.6,66.4L56.9,66.0L56.9,64.6L57.0,64.2L57.0,63.6Z M45.8,50.3L44.0,51.9L43.9,52.2L42.7,53.5L41.2,56.1L40.3,58.1L40.3,58.6L39.9,59.4L39.8,60.2L39.6,60.6L39.3,62.0L39.1,63.8L38.9,64.4L38.9,67.7L39.1,68.3L39.1,69.5L38.8,70.7L38.7,72.0L38.5,72.7L38.5,76.8L38.8,78.5L39.4,81.1L40.5,83.6L40.6,84.3L41.4,86.1L41.7,86.4L42.9,88.6L45.5,92.2L46.7,93.6L49.9,96.7L52.2,98.6L55.0,100.4L57.1,101.5L60.8,102.7L64.3,103.3L68.1,103.3L68.6,103.1L70.1,103.0L73.9,101.8L74.4,101.5L75.5,101.4L76.8,101.9L77.3,102.4L78.7,103.2L80.9,103.3L89.7,103.0L90.0,102.8L90.0,101.2L89.9,80.4L89.0,79.3L85.9,76.8L84.9,75.8L82.4,73.7L82.5,73.4L82.8,73.3L88.8,73.3L89.1,73.3L89.4,72.9L89.5,56.9L89.1,55.8L87.3,53.9L87.0,53.5L86.5,53.1L86.2,52.7L81.4,47.5L80.6,47.1L71.4,47.1L70.1,47.8L68.7,47.8L67.3,47.3L66.2,47.1L65.5,46.9L62.5,46.4L60.8,46.3L56.3,46.3L55.8,46.5L53.9,46.7L53.4,46.9L52.5,47.0L51.2,47.5L50.7,47.6L47.7,49.0Z M56.2,92.9L56.2,92.7L61.7,92.7L61.8,93.2L57.1,93.2Z M77.9,91.5L78.1,91.4L80.1,91.4L80.6,91.5L80.6,91.7L80.4,91.9L80.0,91.9L78.2,91.9Z M50.3,91.2L50.7,90.9L55.8,90.9L56.5,91.0L57.1,91.3L57.0,91.5L56.6,91.5L50.9,91.5L50.5,91.5Z M79.0,90.0L79.3,89.8L80.4,90.0L80.5,90.3L79.1,90.3L79.0,90.2Z M71.5,89.9L71.0,90.5L70.1,90.7L68.1,90.9L68.0,90.6L69.5,90.3L70.9,89.7L71.4,89.7Z M47.7,89.4L52.5,89.2L53.2,89.4L53.4,89.6L53.0,89.9L48.2,90.0L47.7,89.8Z M46.1,88.2L46.2,88.0L46.5,87.9L49.8,88.2Z M44.7,86.8L44.8,86.5L45.3,86.4L47.7,86.6L47.7,86.9L45.0,86.9Z M55.2,86.4L55.6,86.3L56.1,86.5L56.5,86.5L57.3,87.2L57.5,87.7L57.5,88.6L57.0,89.2L56.2,89.3L55.5,88.9L55.1,88.5L54.9,88.2L54.9,87.5Z M43.5,85.3L43.5,85.1L43.9,84.9L45.2,84.9L45.8,85.1L46.0,85.2L45.8,85.5L43.8,85.5Z M74.6,83.3L75.1,83.9L75.2,85.0L75.5,85.2L76.7,85.2L76.7,85.6L76.5,86.1L75.2,87.9L74.1,88.9L73.8,88.8L73.8,88.4L74.3,87.2L74.3,85.2L73.9,84.7L73.5,84.7L73.4,84.5L73.3,84.1L74.0,83.3Z M70.0,83.1L69.9,84.1L69.0,85.0L67.9,85.4L66.3,85.1L66.3,84.8L66.7,84.7L67.9,84.4L67.9,83.6L68.0,83.4L69.3,82.9L69.7,82.9Z M42.0,82.5L42.0,82.2L42.2,82.1L43.4,82.1L43.9,82.2L43.8,82.5L43.2,82.6Z M48.3,81.4L48.6,81.7L48.8,83.5L49.2,83.7L49.3,83.5L49.2,82.3L49.5,81.8L49.8,81.9L50.2,82.8L50.0,83.7L49.8,84.3L49.3,84.9L48.3,84.7L47.7,83.9L47.7,82.3L47.8,81.9Z M41.4,80.6L41.8,80.7L41.8,80.9L41.5,80.9L41.4,80.8Z M76.9,80.3L77.7,80.3L77.8,80.5L77.9,81.9L77.5,83.6L77.2,83.4L77.1,82.7L76.8,82.2L76.8,81.7L76.5,80.8L76.5,80.5Z M41.8,78.4L42.5,78.4L43.4,78.7L43.2,78.8L42.2,78.8L41.8,78.6Z M74.8,78.2L75.3,78.2L76.0,78.9L76.0,79.3L75.6,79.6L75.6,80.3L75.9,80.7L75.9,81.0L76.1,81.3L76.2,81.8L76.5,82.2L76.5,82.4L76.2,82.6L75.9,82.6L75.2,82.2L74.8,81.7L74.4,80.9L74.4,79.0L74.5,78.4Z M76.2,75.5L76.7,75.7L77.3,76.4L77.3,76.8L77.1,77.2L77.1,77.7L77.4,78.2L77.5,78.9L77.1,79.0L76.0,77.9L75.7,76.4L75.8,75.9Z M40.2,71.6L40.6,71.6L40.9,71.9L40.4,72.0L40.2,71.9Z M54.1,70.8L54.9,70.9L55.7,71.6L55.4,71.8L54.5,71.4L54.1,71.0Z M58.9,69.5L58.9,69.9L57.7,70.6L56.7,70.7L56.4,70.3L56.5,69.8L57.0,69.3L57.5,69.1L58.3,69.1Z M55.1,68.9L55.3,69.1L55.0,69.1Z M41.4,73.6L41.9,72.8L42.6,72.1L43.6,71.5L44.0,71.0L44.4,70.9L44.8,70.5L45.5,70.3L45.8,70.0L46.3,69.9L46.9,69.9L47.3,69.7L48.4,69.5L48.3,69.2L47.8,69.0L47.3,68.9L47.0,68.6L47.1,68.5L48.2,68.9L52.0,69.3L52.3,69.9L53.6,70.5L53.2,70.7L52.1,70.3L50.0,70.1L47.1,70.3L46.2,70.4L45.9,70.7L44.8,70.9L44.0,71.6L44.0,71.8L43.9,72.0L44.4,72.0L44.7,71.7L45.1,71.7L47.3,71.0L49.6,70.9L49.9,71.1L49.9,71.2L50.3,71.6L51.7,72.0L53.2,72.8L53.6,73.2L54.0,73.3L55.9,75.2L57.2,77.4L57.8,78.6L59.0,79.6L60.0,81.3L61.5,83.0L62.7,83.9L63.5,84.2L64.0,84.5L64.9,84.7L64.9,85.1L64.6,85.5L64.6,86.0L65.0,86.4L66.2,87.3L66.2,87.9L65.7,88.1L64.9,88.1L64.6,87.7L64.6,87.6L64.8,87.3L64.7,86.9L64.0,86.2L62.5,84.3L59.9,84.3L59.2,84.1L58.4,83.5L57.5,82.3L57.4,81.3L57.6,80.5L57.5,79.8L57.1,79.3L56.8,79.2L56.0,79.2L55.6,79.6L55.4,80.3L55.7,81.4L56.2,82.3L58.2,83.8L58.9,85.1L58.9,85.7L58.4,86.3L57.9,86.1L57.1,85.5L56.7,85.5L56.3,86.0L56.0,85.9L55.6,85.4L55.5,85.0L54.9,83.9L54.5,81.1L54.5,79.2L54.1,78.6L53.9,79.2L53.9,82.5L54.9,85.6L54.8,85.8L54.1,85.9L53.4,86.8L52.5,86.8L52.0,86.0L51.7,85.0L52.0,83.9L52.8,82.4L52.8,80.9L52.6,80.6L52.3,80.5L52.1,81.3L51.8,81.7L51.3,81.7L50.6,80.8L50.1,80.7L49.5,80.9L49.4,80.5L49.4,80.1L49.6,78.7L50.0,77.9L50.3,77.8L50.5,78.1L51.1,78.3L51.5,78.7L51.9,79.6L52.4,79.9L53.2,77.8L53.2,76.5L52.9,76.3L52.4,76.1L52.0,76.3L51.5,76.7L51.2,76.7L50.9,76.3L50.8,75.6L50.1,73.8L49.5,73.4L48.3,73.1L48.2,73.3L48.2,73.6L48.6,74.6L48.9,75.7L48.8,79.8L48.5,80.2L47.3,80.2L46.9,80.5L46.5,80.5L46.1,79.9L46.1,78.9L46.5,78.1L47.5,76.5L47.7,75.6L47.7,74.6L47.3,73.7L46.7,73.0L45.5,72.5L44.6,72.6L43.9,72.9L43.5,73.5L43.4,74.4L43.5,74.9L44.2,75.7L44.3,76.1L43.3,77.1L42.5,77.3L41.6,77.0L41.1,77.0L40.6,76.6L40.7,75.0Z M42.3,67.8L42.5,67.9L42.5,68.2L42.3,68.3L42.1,69.3L41.2,70.1L40.9,70.2L40.3,69.6L40.3,68.9L40.6,68.3L41.2,67.8Z M69.6,62.9L70.3,63.3L71.2,64.3L71.9,65.6L72.6,67.4L74.6,69.8L76.6,72.5L77.4,73.2L77.3,73.4L73.5,73.5L73.1,73.7L72.7,76.3L72.2,78.0L71.1,79.9L69.6,81.4L68.2,82.2L67.6,82.2L67.2,81.8L67.1,81.3L67.0,78.2L66.5,77.0L66.5,76.5L66.8,75.8L66.7,74.3L67.0,72.9L67.0,69.5L67.3,65.6L67.5,64.7L67.9,63.8L68.4,63.2L69.2,62.9Z M54.9,61.9L55.0,61.7L55.3,61.9Z M56.8,60.4L57.0,60.2L58.4,60.2L58.8,60.6L58.3,60.6Z M55.7,60.4L55.8,60.2L56.2,60.2L56.2,60.6L55.8,60.6Z M51.4,59.7L51.7,60.2L51.7,60.7L51.5,61.4L50.9,61.9L50.7,61.7L50.8,61.0L50.7,60.5L50.4,60.5L49.8,61.1L49.0,61.8L48.5,62.5L48.3,63.2L47.9,63.6L47.7,63.6L47.0,62.9L46.4,61.6L46.4,60.9L46.5,60.6L46.5,60.3L46.9,59.8L47.3,59.8L47.5,60.0L47.5,61.5L47.7,61.7L48.5,61.8L48.9,61.3L49.0,60.5L49.4,59.9L50.0,59.5L50.8,59.4Z M73.5,60.3L73.5,59.9L73.8,59.4L74.0,59.3L74.4,59.7L75.0,59.5L75.4,59.6L75.3,60.1L74.6,60.8L74.0,60.8Z M55.5,59.2L55.8,58.9L56.5,58.9L58.9,58.9L59.5,58.9L59.9,59.2L59.6,59.5L55.9,59.5L55.7,59.4Z M74.2,58.1L74.5,58.1L74.4,58.8L74.0,58.7L74.0,58.3Z M57.1,56.4L66.0,56.3L68.7,56.4L68.9,56.7L68.6,56.9L57.8,56.8L57.1,56.7Z M76.0,56.2L76.5,56.1L76.8,56.5L77.0,57.2L77.0,58.1L76.2,58.1L75.7,57.8L75.8,56.7Z M77.9,56.0L78.2,56.4L79.0,58.9L79.0,60.2L78.7,61.2L78.5,61.5L78.4,61.9L78.0,62.5L77.4,63.1L76.5,63.6L75.9,63.6L75.5,63.2L75.3,62.9L75.4,61.8L75.8,61.0L76.4,60.4L76.9,60.3L77.0,61.0L76.5,61.9L76.6,62.3L77.1,62.3L77.2,62.0L77.6,61.5L77.7,60.9L77.9,60.4L78.0,58.1L77.9,57.2L77.7,56.8L77.6,56.4Z M57.1,55.1L57.6,54.8L68.1,54.9L68.5,55.0L68.7,55.1L68.4,55.5L62.1,55.5L57.5,55.4L57.3,55.3Z M61.4,53.6L61.6,53.4L62.3,53.4L67.5,53.4L67.9,53.6L68.0,53.9L66.3,54.1L62.0,53.9L61.4,53.8Z M71.9,52.4L72.2,52.4L73.3,53.6L74.1,53.8L74.5,54.3L74.4,54.6L73.7,54.6L73.1,54.9L73.1,55.6L73.3,57.0L72.9,57.4L72.2,57.4L71.8,57.1L71.9,56.7L72.1,56.7L72.3,56.4L72.2,54.0L71.8,52.7Z M65.2,52.1L65.3,51.9L65.8,51.9L65.9,52.2L65.4,52.2Z M57.2,50.1L58.2,50.3L58.9,50.6L59.4,51.1L59.4,51.6L59.0,51.9L58.2,51.1L57.9,51.0L57.1,50.4Z M64.6,48.9L64.8,49.2L63.7,49.2L63.4,49.4L63.3,49.7L62.9,49.8L61.5,49.2L60.7,48.6L59.6,48.9L58.3,48.7L57.5,48.7L56.9,49.1L57.0,50.1L56.8,50.1L55.5,49.3L54.3,49.1L52.8,49.1L51.7,49.4L51.6,49.6L52.0,49.9L53.2,49.8L55.2,50.2L57.0,51.6L57.5,51.8L58.4,51.9L58.6,52.1L58.5,52.3L57.4,52.2L55.2,50.8L53.9,50.3L50.7,50.4L50.4,50.5L50.3,51.3L49.0,52.8L49.0,53.7L49.6,53.9L50.2,53.8L51.0,52.6L51.7,52.0L52.8,52.0L53.2,52.2L53.6,52.6L53.7,53.3L53.2,54.1L51.7,55.0L51.3,56.0L51.7,56.5L52.4,56.5L53.2,55.9L53.7,55.9L54.0,56.1L53.9,56.9L53.4,57.5L52.7,57.9L51.4,58.2L50.0,58.2L49.8,58.1L49.8,57.7L50.3,56.9L50.3,56.7L49.5,56.8L49.4,56.6L49.4,56.2L50.6,54.7L50.6,54.4L49.5,55.0L48.4,56.3L48.4,56.4L47.8,57.2L47.5,58.2L46.5,59.1L45.8,60.6L45.6,62.3L45.7,63.2L45.7,64.3L45.9,64.8L46.5,65.2L47.1,65.2L47.6,64.8L48.0,64.8L48.2,65.0L48.6,65.8L49.0,66.4L50.1,67.2L50.6,67.0L49.5,65.7L49.8,65.2L50.7,65.3L51.1,64.7L51.1,64.1L51.2,63.6L51.5,63.3L52.2,63.4L52.2,65.7L52.4,66.5L53.1,67.2L53.6,67.4L54.2,67.4L54.8,67.1L55.1,66.8L55.4,66.1L55.1,64.4L55.4,63.4L55.9,62.9L56.4,62.7L57.2,62.7L57.8,62.9L58.5,63.5L58.9,64.3L59.1,65.5L58.8,66.4L58.3,67.3L57.6,68.0L57.3,68.1L56.9,68.5L56.6,68.6L56.4,68.3L56.8,68.1L56.8,67.9L57.2,67.4L55.9,67.8L55.3,68.1L54.5,68.2L53.7,68.4L52.5,68.5L50.1,68.4L49.1,68.1L48.7,68.1L47.7,67.6L47.3,67.0L45.6,65.4L44.6,63.8L43.8,61.4L43.6,60.1L43.6,58.6L43.9,57.9L43.9,57.0L44.8,55.2L45.1,55.0L45.3,54.4L45.7,54.0L45.7,53.8L45.4,53.4L45.4,53.1L45.7,52.6L46.5,51.8L47.2,51.3L47.3,51.3L47.7,50.9L48.2,50.7L48.5,50.9L47.4,52.2L46.9,53.7L45.7,55.1L45.5,55.8L45.6,56.6L46.0,57.0L46.6,57.0L47.3,56.4L47.7,55.6L47.7,53.3L48.0,52.2L48.7,51.3L49.4,50.9L49.2,50.6L48.6,50.5L48.6,50.4L49.2,49.8L50.4,49.2L51.8,48.1L52.9,47.9L53.7,47.6L56.9,47.1L59.3,47.3L58.7,47.8L59.0,48.0L61.7,48.2L63.7,48.7L64.2,48.7Z M26.2,41.6L26.0,41.9L25.9,42.4L25.9,47.9L26.2,57.5L26.2,68.1L26.3,69.1L26.6,103.3L26.8,106.3L26.8,115.1L27.0,118.4L27.5,118.8L30.2,118.9L32.5,118.8L51.9,119.0L58.3,118.9L65.3,119.1L99.5,119.1L101.9,118.9L102.2,118.5L102.3,117.1L102.3,100.5L102.2,97.1L102.1,88.5L102.2,72.8L102.0,62.7L102.0,42.5L101.8,41.9L101.6,41.6L101.1,41.6L93.6,41.5L92.9,41.6L92.5,41.7L92.2,42.2L92.2,74.6L92.4,78.3L92.3,79.1L92.5,94.0L92.4,109.2L92.1,109.4L91.8,109.5L88.0,109.6L72.4,109.6L71.0,109.4L45.6,109.4L37.2,109.2L36.7,109.2L36.3,108.8L36.1,101.2L35.9,99.3L35.9,88.1L35.6,74.5L35.5,61.5L35.2,47.2L35.3,45.3L35.1,41.9L34.6,41.6L33.5,41.5L26.7,41.5Z M52.8,24.4L52.6,24.9L52.8,40.9L52.8,41.4L53.2,41.8L56.0,42.0L73.9,42.0L74.4,41.6L74.6,24.7L74.2,24.3L72.5,24.1L53.2,24.1Z M40.3,9.9L40.3,19.8L40.4,20.8L40.6,21.0L41.0,21.2L62.5,21.2L70.7,21.3L82.3,21.3L86.1,21.3L86.6,21.1L86.9,20.7L86.9,9.9L86.8,9.6L86.2,9.2L41.5,9.1L40.7,9.3Z" fill="#000" fill-rule="evenodd"/>
</svg>