<svg xmlns="http://www.w3.org/2000/svg" viewBox="0 0 128 128" width="128" height="128">
  <path d="M110.8,16.0L109.2,14.6L107.4,13.6L106.6,12.9L103.0,11.5L101.6,11.2L101.0,10.9L98.7,10.6L97.6,10.4L90.6,10.4L89.5,10.6L87.3,10.8L85.7,11.3L85.2,11.3L84.5,11.6L84.1,11.6L83.2,12.0L81.0,12.5L79.4,13.3L75.9,14.7L73.3,16.2L72.4,16.5L69.5,18.4L68.6,18.7L68.0,19.2L66.7,19.8L66.1,20.4L64.9,21.0L61.8,23.1L61.0,23.8L58.9,25.2L57.5,26.5L56.2,27.3L52.4,30.4L51.5,31.0L49.4,32.9L48.7,33.4L44.4,37.1L44.2,37.2L43.5,37.9L39.4,41.6L38.7,42.4L37.7,43.2L29.7,51.4L28.5,53.0L25.5,56.2L25.0,57.1L22.1,60.7L22.1,60.9L19.8,64.0L19.3,65.1L18.1,66.7L17.8,67.4L17.4,67.7L17.2,68.5L16.2,69.9L13.7,75.0L12.0,79.2L10.5,84.1L10.2,86.4L9.9,87.2L9.9,88.0L9.4,90.8L9.6,97.1L10.1,100.1L11.6,104.9L13.3,108.0L15.2,110.4L18.5,113.2L19.6,114.1L21.5,115.2L23.4,116.1L26.3,117.1L27.9,117.4L28.1,117.6L30.1,117.7L47.6,118.0L49.4,117.8L102.2,117.8L117.8,117.6L118.5,117.4L118.8,116.7L118.7,79.5L118.8,78.1L118.6,67.0L117.8,66.5L107.5,66.5L103.8,66.7L84.7,66.7L83.5,66.4L82.5,66.4L81.2,66.0L78.9,65.4L76.8,64.6L74.1,62.9L71.8,60.8L70.5,59.3L69.5,57.5L68.6,55.1L68.2,51.9L68.3,50.4L68.8,48.0L69.5,46.4L71.0,43.6L73.4,40.3L75.9,37.4L79.2,34.4L81.6,33.0L82.9,32.1L85.6,30.9L89.3,29.8L90.9,29.6L92.1,29.6L93.8,29.9L95.3,30.5L96.5,31.6L97.1,32.5L97.7,33.9L97.9,35.4L98.1,42.1L98.0,44.7L98.3,46.1L98.7,46.4L100.3,46.7L102.2,47.6L104.0,49.1L104.8,50.0L105.4,51.4L105.4,51.7L105.6,51.9L105.9,53.1L106.1,60.7L106.6,61.3L107.4,61.3L107.8,61.1L108.2,60.6L108.5,60.6L109.0,61.2L109.4,61.4L110.3,61.3L110.6,60.8L110.8,59.8L110.7,55.3L110.9,52.6L111.5,50.8L111.9,49.9L112.8,48.8L114.0,47.7L116.0,46.7L117.8,46.4L118.4,45.9L118.5,45.6L118.4,32.5L118.0,28.2L117.0,24.8L115.7,22.0L113.4,18.6Z M107.8,34.8L108.8,34.8L109.5,35.0L110.4,36.0L110.6,36.8L110.4,38.2L109.6,39.0L108.8,39.6L108.5,40.5L108.4,46.2L108.1,45.9L108.0,44.7L108.1,43.7L107.9,42.5L108.1,42.0L108.1,40.7L107.9,40.6L107.6,39.6L106.3,38.4L105.9,37.6L106.0,36.4L106.3,35.7L107.1,35.0Z" fill="#000" fill-rule="evenodd"/>
</svg>