<svg xmlns="http://www.w3.org/2000/svg" viewBox="0 0 128 128" width="128" height="128">
  <path d="M43.5,77.0L43.7,78.0L45.1,80.8L47.2,83.9L49.3,86.5L51.5,88.7L54.1,90.8L56.4,92.4L57.0,92.6L57.8,93.2L58.2,93.3L59.1,93.8L59.9,93.8L60.2,93.7L69.8,84.0L72.8,81.2L76.2,77.6L76.2,77.4L75.7,77.0L67.6,77.0L65.4,76.8L62.3,76.9L51.1,76.7L43.9,76.7Z M84.7,71.9L84.3,71.9L83.9,72.2L80.7,75.5L71.1,84.7L61.9,94.0L61.8,94.6L62.1,95.0L63.8,95.7L65.7,96.1L66.5,96.4L69.3,96.8L69.7,97.0L72.5,97.2L75.8,97.2L79.2,96.9L83.0,96.0L83.7,95.7L84.5,95.5L84.8,95.2L85.0,76.1L84.9,72.4Z M86.7,61.7L86.5,62.2L86.4,90.6L86.6,94.2L86.8,94.4L87.5,94.4L92.2,91.8L92.9,91.2L94.2,90.4L97.9,86.9L100.0,84.4L100.6,83.4L101.5,82.3L103.3,79.1L103.3,78.3L102.9,77.8L96.5,71.4L96.1,70.8L89.3,64.0L87.5,62.0L87.0,61.7Z M81.4,52.8L81.2,53.1L81.2,53.3L81.5,53.8L84.2,56.4L86.8,59.4L91.2,63.6L93.7,66.4L100.4,73.1L102.6,75.5L103.7,76.4L104.2,76.4L104.5,76.1L104.5,75.8L105.3,73.8L106.1,70.2L106.6,66.1L106.5,61.7L106.3,61.1L106.1,58.7L105.9,58.1L105.3,55.3L105.0,54.6L104.9,53.8L104.5,53.3L104.2,53.1L102.9,53.0Z M43.2,51.8L42.7,52.4L41.6,55.8L40.9,59.1L40.5,63.8L40.9,69.1L41.2,69.8L41.9,73.5L42.5,74.7L42.9,75.2L60.8,75.4L66.0,75.2L66.1,75.1L66.0,74.5L60.3,68.9L56.6,64.8L52.6,60.9L51.8,59.9L47.0,55.2L44.2,52.3L43.5,51.8Z M71.3,50.5L71.3,51.0L71.8,51.2L83.4,51.5L85.7,51.4L93.7,51.6L103.1,51.6L103.4,51.6L103.7,51.1L103.7,50.6L103.3,50.0L103.0,49.2L100.9,45.7L99.1,43.2L97.9,41.9L95.4,39.3L93.3,37.6L90.0,35.5L88.0,34.5L87.6,34.5L87.0,34.8Z M59.9,33.8L59.4,34.2L57.0,35.3L54.9,36.7L52.0,38.9L50.5,40.2L47.9,43.2L46.1,45.5L44.5,48.3L44.0,49.3L44.0,49.7L44.3,50.4L48.8,54.9L59.8,66.1L60.2,66.4L60.6,66.5L61.0,66.1L60.9,60.3L61.1,51.1L61.1,38.4L60.9,34.0L60.7,33.8Z M85.7,33.5L84.2,32.8L80.7,31.8L80.2,31.8L78.2,31.3L74.4,30.9L71.9,30.9L68.6,31.3L67.3,31.6L66.7,31.6L63.1,32.6L62.5,33.1L62.3,34.5L62.3,50.0L62.4,56.1L62.6,56.5L63.2,56.5L76.5,43.2L77.5,42.4L85.6,34.1Z M69.0,9.2L67.2,9.5L64.4,9.8L64.0,9.9L62.1,10.2L61.2,10.5L60.3,10.6L59.4,10.9L58.6,11.0L57.5,11.5L56.1,11.8L55.2,12.3L53.3,12.8L50.4,14.1L49.9,14.4L49.6,14.4L46.4,16.1L41.5,19.2L38.8,21.4L38.1,21.9L35.4,24.3L31.4,28.5L31.1,29.1L29.2,31.4L29.2,31.6L27.2,34.3L25.6,36.9L24.9,38.4L24.5,38.9L24.3,39.5L23.9,40.1L23.9,40.4L23.5,41.0L21.4,46.6L20.7,49.2L20.3,50.3L19.4,54.4L19.4,55.7L19.2,56.1L19.0,58.0L18.9,59.6L18.7,60.2L18.5,65.6L18.7,66.5L18.9,69.6L19.5,73.5L19.5,74.1L19.8,75.1L19.9,76.0L20.3,77.2L20.4,78.0L20.8,79.0L21.0,80.1L21.5,81.4L21.9,82.6L22.0,82.8L22.2,83.5L23.4,86.2L23.5,86.8L23.9,87.4L25.5,90.5L26.0,91.3L26.2,91.8L28.3,94.9L29.3,96.5L29.9,97.1L31.6,99.4L33.4,101.5L35.7,103.7L39.1,106.8L40.0,107.4L41.7,108.8L42.1,109.0L44.2,110.4L45.1,110.9L46.5,111.9L47.0,112.0L48.3,112.8L50.8,114.0L51.7,114.4L53.0,115.1L54.0,115.3L54.4,115.6L55.3,115.8L55.6,116.1L56.5,116.2L56.8,116.5L58.8,117.0L59.5,117.3L61.1,117.6L62.0,117.9L63.4,118.1L64.4,118.4L69.9,119.0L75.6,119.1L80.5,118.8L81.4,118.5L82.7,118.5L89.7,116.9L94.6,115.2L97.1,114.0L97.7,113.8L97.9,113.6L99.4,112.9L100.4,112.3L101.7,111.6L102.8,110.9L103.3,110.7L105.8,109.0L108.3,107.0L109.0,105.9L109.2,105.3L109.1,102.3L109.4,94.4L109.3,85.9L109.5,83.9L109.4,55.4L109.5,52.4L109.5,48.2L109.7,37.4L109.5,23.9L109.3,23.1L108.3,21.9L106.1,20.1L104.7,19.0L104.4,19.0L102.8,17.7L99.5,15.7L96.9,14.4L96.6,14.4L96.4,14.2L92.3,12.5L90.9,12.1L89.7,11.5L83.9,10.1L80.4,9.6L79.4,9.4L76.8,9.3L75.6,9.1Z M72.5,29.4L74.9,29.4L79.5,30.0L82.1,30.5L82.3,30.7L83.5,30.9L85.0,31.4L85.5,31.8L87.5,32.4L87.7,32.6L88.3,32.8L90.0,33.7L93.3,35.7L95.4,37.4L95.9,37.7L100.2,42.1L101.2,43.7L101.9,44.3L103.1,46.2L105.1,50.1L106.1,52.8L106.6,54.8L107.0,55.5L107.3,57.1L107.4,57.4L107.6,59.1L107.9,60.2L108.1,62.3L108.1,66.9L107.8,69.8L107.0,73.3L106.5,74.9L106.1,76.3L105.0,79.1L103.4,82.2L100.8,85.9L99.6,87.3L96.8,90.2L95.5,91.3L94.5,92.0L92.9,93.2L92.6,93.3L92.0,93.8L89.0,95.4L86.4,96.6L82.6,97.8L78.4,98.6L75.2,98.8L71.5,98.7L66.7,98.1L66.1,97.9L64.7,97.6L63.7,97.2L63.4,97.2L62.8,96.9L62.3,96.8L61.8,96.5L61.0,96.3L56.8,94.3L54.0,92.5L51.5,90.7L49.2,88.6L46.9,85.9L45.0,83.4L43.3,80.4L41.5,76.7L41.0,74.7L40.6,73.9L40.5,73.1L40.2,72.4L40.1,71.6L40.0,71.4L39.9,70.5L39.6,69.8L39.2,64.7L39.3,60.8L39.5,60.3L39.6,58.4L40.2,55.6L40.4,55.3L40.6,54.1L41.3,51.9L42.9,48.4L43.1,48.2L43.5,47.2L43.8,47.0L44.2,46.0L45.0,45.0L45.0,44.7L45.5,44.0L48.3,40.4L50.8,38.0L52.4,36.7L54.1,35.6L54.5,35.2L57.4,33.4L57.9,33.3L60.1,32.2L60.7,32.0L62.3,31.3L63.5,31.0L65.5,30.3L66.0,30.3L67.7,29.9Z" fill="#000" fill-rule="evenodd"/>
</svg>