<svg xmlns="http://www.w3.org/2000/svg" viewBox="0 0 128 128" width="128" height="128">
  <path d="M55.8,57.7L55.5,58.2L55.4,60.0L55.5,66.9L55.9,67.6L56.8,67.8L67.4,67.7L68.5,68.1L68.9,68.6L69.0,69.1L69.1,70.8L69.1,88.0L69.3,89.5L69.8,89.8L79.3,89.8L79.8,89.1L79.7,63.9L79.4,62.0L78.4,60.0L76.9,58.6L75.5,57.9L74.8,57.8L74.2,57.5L73.4,57.4L60.9,57.4L56.2,57.5Z M105.7,57.4L87.6,57.4L86.7,57.6L85.3,58.2L84.0,59.1L83.3,59.9L82.7,60.8L82.1,62.4L82.0,64.3L82.1,89.2L82.5,89.8L91.8,89.9L92.2,89.8L92.4,89.6L92.6,89.0L92.6,69.2L92.9,68.4L93.4,67.8L93.7,67.6L94.9,67.4L96.3,67.5L105.7,67.3L106.2,66.8L106.3,66.4L106.2,58.1Z M82.1,35.8L78.5,36.1L75.6,37.3L74.1,38.4L72.4,40.4L71.7,41.6L70.8,44.1L70.6,45.4L70.7,48.0L71.3,50.1L72.2,51.7L73.4,53.3L74.9,54.7L76.6,55.8L77.9,56.3L80.2,56.8L82.7,56.7L84.1,56.4L85.7,55.8L87.4,54.7L89.3,52.8L90.1,51.8L90.9,49.9L91.4,48.2L91.6,46.8L91.5,44.9L90.9,42.7L90.1,40.9L88.9,39.4L87.5,37.9L86.2,37.1L83.7,36.1Z M25.3,25.8L22.6,28.8L19.0,33.5L16.1,38.3L14.3,42.0L13.9,43.1L13.5,43.7L13.4,44.3L13.1,44.9L12.8,45.9L12.6,46.1L12.4,47.2L11.5,49.4L10.8,52.7L10.8,53.4L10.3,54.9L9.7,60.3L9.6,65.6L9.8,70.3L11.0,76.8L13.0,83.6L14.6,87.3L16.2,90.4L17.0,91.8L17.3,92.5L17.9,93.2L18.6,94.6L19.9,96.5L24.1,101.5L27.0,104.4L28.0,105.1L28.4,105.6L32.8,109.1L36.2,111.3L37.1,111.6L38.3,112.4L41.0,113.8L48.3,116.6L52.6,117.7L53.3,117.7L56.6,118.3L61.2,118.6L62.2,118.8L90.5,118.9L118.2,118.8L118.6,118.5L118.4,118.2L117.9,117.9L117.9,95.7L118.1,94.4L117.9,82.1L118.1,68.8L117.8,68.4L117.5,68.9L117.5,69.8L117.1,72.4L116.3,75.0L116.1,76.1L114.9,79.2L113.4,82.2L112.4,83.7L111.6,85.2L109.2,88.5L108.0,89.9L105.5,92.2L103.4,93.8L102.6,94.7L100.9,95.8L98.3,97.3L93.8,99.4L91.0,100.3L90.3,100.4L87.3,101.3L84.0,101.6L83.3,101.8L79.5,101.8L77.1,101.7L74.9,101.3L73.9,101.3L72.8,100.9L71.9,100.8L68.4,99.8L66.6,98.9L65.6,98.6L61.9,96.8L60.1,95.6L59.1,94.8L58.6,94.6L55.6,92.1L53.7,90.3L51.1,87.2L48.6,83.6L46.5,79.4L45.0,75.4L44.0,71.2L43.5,67.8L43.3,64.4L43.5,60.7L43.9,59.1L44.1,57.1L45.0,53.3L45.4,52.5L46.2,49.9L47.7,46.6L49.5,43.7L51.3,41.1L54.2,37.8L56.8,35.5L60.1,32.9L63.7,30.9L66.3,29.7L67.1,29.5L67.6,29.2L69.6,28.5L70.0,28.5L70.8,28.1L72.0,27.9L72.6,27.7L74.3,27.5L75.8,27.1L78.2,27.0L79.0,26.8L81.8,26.8L85.4,27.1L88.6,27.8L92.4,28.8L92.9,29.1L95.2,29.8L98.4,31.3L102.4,34.0L104.7,35.8L108.0,39.0L109.5,40.7L111.6,43.5L113.1,46.0L113.4,47.0L114.0,47.7L115.7,51.7L116.3,54.1L116.8,55.6L117.7,59.9L118.0,59.9L118.2,52.3L118.0,37.0L118.1,27.9L117.9,22.6L118.0,9.8L117.8,9.6L113.3,9.4L66.3,9.4L64.1,9.6L60.9,9.6L54.6,10.3L53.3,10.7L51.9,10.9L48.4,11.8L44.8,13.1L39.9,15.1L34.3,18.4L31.9,20.2L30.8,20.9Z" fill="#000" fill-rule="evenodd"/>
</svg>