<svg xmlns="http://www.w3.org/2000/svg" viewBox="0 0 128 128" width="128" height="128">
  <path d="M66.9,38.7L66.7,38.7L66.4,39.2L66.2,40.5L65.9,41.0L65.7,42.3L65.5,42.7L65.2,44.0L65.2,44.7L65.4,45.4L66.0,46.6L67.2,48.1L67.5,49.1L68.0,49.7L68.2,50.5L68.2,51.7L67.9,52.6L67.5,52.7L67.2,52.4L66.6,52.1L66.1,51.6L63.1,49.4L62.5,48.4L62.4,46.7L63.3,45.2L64.1,44.3L64.2,44.0L64.9,43.1L64.9,42.3L64.7,41.3L64.1,40.1L64.0,39.7L63.7,39.3L63.2,39.2L63.1,39.3L63.1,40.0L63.9,42.0L63.9,42.6L63.2,44.0L62.8,44.4L62.4,44.5L62.1,44.1L62.0,42.6L61.6,41.0L61.5,40.8L61.2,40.8L60.9,41.3L61.2,43.9L61.2,44.8L61.5,46.0L61.5,47.3L61.3,47.4L60.8,47.5L59.4,46.2L58.8,45.4L58.8,44.7L59.1,41.4L59.1,40.3L58.9,40.1L58.5,40.1L58.1,40.4L58.0,43.6L57.8,44.4L57.8,45.7L58.0,46.3L58.9,47.1L60.5,48.9L62.1,50.1L64.5,52.3L65.8,53.2L67.5,54.8L67.5,55.1L67.3,55.3L66.8,55.4L64.8,55.1L63.1,54.4L62.7,54.0L62.4,51.7L62.2,51.4L61.9,51.1L61.4,51.1L61.3,51.6L61.5,54.0L61.8,54.6L62.1,54.9L63.6,55.6L67.0,56.6L67.4,57.0L67.3,58.5L66.3,61.3L65.9,61.6L65.8,61.6L65.5,61.3L65.5,60.6L65.7,59.8L66.0,59.4L66.2,58.8L66.5,58.2L66.4,57.5L65.8,57.5L65.7,57.6L64.4,60.5L64.3,61.4L65.5,62.9L65.5,63.4L64.7,65.0L64.5,65.2L64.2,65.2L63.9,65.0L63.1,63.3L62.9,62.7L63.0,62.0L63.4,61.2L63.8,59.8L63.9,57.1L63.7,56.8L63.4,56.8L63.1,57.1L62.9,58.8L62.7,59.7L62.5,60.2L62.2,60.5L62.0,60.5L61.7,60.1L61.7,59.8L61.3,59.2L61.3,58.9L60.9,58.4L60.4,56.8L59.7,55.4L59.8,54.7L60.1,53.6L60.2,52.7L59.8,50.9L59.3,49.7L59.3,49.4L58.8,48.4L58.3,48.4L58.1,48.6L58.2,49.7L58.5,50.3L58.7,51.2L59.1,52.3L59.0,53.7L58.4,55.7L58.1,55.9L57.8,55.8L56.2,54.6L55.6,53.9L55.4,53.5L55.4,52.8L56.4,50.1L56.4,49.7L56.8,48.4L56.8,47.7L56.6,47.0L55.9,45.3L54.8,43.2L54.6,42.4L54.2,42.0L54.1,42.0L53.8,42.3L53.8,43.0L55.1,45.7L55.6,47.4L55.6,48.4L55.4,49.6L55.0,50.7L54.6,51.1L54.3,50.9L53.4,48.9L52.8,47.4L52.7,47.2L52.5,46.4L51.7,44.4L51.2,43.9L51.0,43.9L50.6,44.2L50.5,44.7L51.5,47.0L51.7,47.9L52.5,49.3L53.0,51.1L54.3,54.4L55.9,56.1L56.8,56.7L57.8,57.6L58.2,58.3L58.2,58.8L57.7,58.9L54.8,58.1L54.1,57.6L53.3,55.8L53.1,54.4L52.4,52.1L50.1,49.6L49.2,48.2L48.1,46.9L47.6,47.0L47.5,47.5L47.8,48.1L49.6,50.4L49.6,50.5L49.2,50.8L48.7,50.7L47.7,49.9L47.4,49.9L47.3,50.1L47.3,50.4L48.1,51.4L48.5,51.6L49.6,51.7L50.5,51.9L51.1,52.3L51.6,52.8L52.3,54.8L52.4,56.4L52.7,57.1L52.6,57.7L52.4,57.9L52.0,57.9L51.6,57.5L51.2,56.4L50.6,55.8L50.0,54.7L49.1,53.5L45.7,50.1L45.3,50.0L45.0,50.1L45.0,50.6L46.7,52.1L47.7,53.4L47.7,53.7L47.5,53.8L46.3,53.8L46.1,54.1L46.2,54.4L46.5,54.5L48.1,54.6L48.7,54.8L49.7,55.8L50.3,57.1L50.5,58.1L50.3,58.3L49.8,58.3L47.3,57.5L46.6,56.8L45.5,55.2L45.0,54.7L44.4,54.6L42.1,55.5L41.9,55.8L41.9,56.1L42.5,56.2L43.9,55.6L44.4,55.6L45.0,56.1L45.4,56.9L45.4,57.1L44.8,57.7L43.4,58.2L41.7,58.4L41.3,58.7L41.4,59.0L43.5,59.1L45.7,58.2L46.4,58.2L48.7,59.0L49.1,59.0L50.0,59.4L51.1,59.4L53.0,58.6L53.8,58.6L55.4,59.5L57.1,60.0L59.4,61.1L59.8,61.5L60.1,62.5L60.1,63.1L58.9,62.9L58.1,62.5L56.2,62.0L55.9,61.8L55.2,61.6L53.5,60.9L52.6,61.0L49.9,61.7L49.3,61.7L47.7,61.2L47.4,61.0L46.4,60.8L45.0,60.1L44.0,60.1L42.0,60.5L41.1,60.8L40.9,61.1L40.8,61.5L41.3,61.5L41.6,61.4L43.3,61.1L45.1,61.1L46.7,61.5L48.1,62.2L49.4,62.5L50.2,62.5L52.4,61.8L53.1,61.8L54.3,62.1L54.9,62.5L55.5,62.6L56.8,63.4L57.6,63.5L58.6,64.1L59.4,64.2L59.8,64.5L61.1,65.2L61.5,65.7L61.5,66.5L61.3,66.7L60.8,66.8L58.7,66.8L58.2,66.2L57.6,64.9L57.3,64.6L56.8,64.4L55.8,64.2L55.3,64.2L54.1,63.8L53.4,63.0L53.1,63.0L53.0,63.2L53.0,63.6L53.3,64.0L54.2,64.5L55.4,64.8L56.3,65.2L56.7,65.6L57.1,66.4L57.1,66.7L56.8,66.9L55.9,67.1L54.8,67.0L53.0,65.6L51.8,64.5L51.1,64.1L49.6,64.1L48.4,63.8L46.6,63.5L45.0,63.1L41.5,63.4L40.9,63.5L40.6,63.8L40.6,64.1L41.0,64.3L41.6,64.2L43.2,64.1L43.7,63.9L44.6,63.9L48.0,64.8L48.1,65.1L47.7,65.5L44.3,66.9L41.3,67.0L41.1,67.3L41.4,67.6L41.8,67.8L43.1,67.9L44.4,67.9L45.6,67.2L46.6,66.9L49.2,65.8L49.4,65.7L49.8,65.6L50.5,65.2L50.9,65.2L51.8,65.6L54.7,68.1L55.3,68.4L55.9,68.4L56.3,68.5L56.3,68.8L55.5,69.3L53.6,69.5L53.0,69.8L52.3,69.8L49.6,67.9L48.7,67.9L47.5,68.2L43.3,68.9L42.7,69.2L42.7,69.6L42.9,69.8L43.3,69.8L44.0,69.5L44.9,69.5L45.8,69.2L46.7,69.1L48.5,68.7L49.2,68.7L49.7,69.0L50.4,69.6L50.4,69.9L50.1,70.2L48.7,70.4L47.4,71.2L47.0,71.3L45.9,71.9L45.8,72.3L46.0,72.6L46.4,72.6L49.1,71.2L50.1,70.9L51.0,70.9L53.3,70.5L54.2,70.5L54.5,70.8L54.4,71.2L53.8,71.8L52.0,72.3L51.1,72.7L50.6,72.8L49.4,73.3L49.3,73.6L49.4,74.0L49.8,74.0L50.9,73.6L52.4,73.2L54.4,72.3L55.1,72.2L55.5,71.8L56.1,70.7L56.4,70.3L58.9,68.6L59.8,68.5L60.9,68.5L61.9,68.6L62.4,68.9L62.5,69.2L62.1,69.7L60.4,70.4L59.9,70.7L59.6,70.7L59.0,71.1L58.1,71.4L56.9,72.1L54.8,74.2L53.8,75.6L53.8,76.5L53.9,76.6L54.2,76.6L54.7,76.2L55.7,74.6L57.2,72.9L58.3,72.3L59.6,72.1L59.8,72.2L59.8,72.8L59.0,73.7L57.5,74.2L56.7,75.2L56.5,75.5L56.5,76.3L56.8,76.6L57.1,76.6L57.3,76.3L57.3,76.0L57.6,75.4L57.9,75.0L59.1,74.6L59.8,74.5L60.3,74.1L60.8,72.7L61.4,71.7L61.7,71.6L62.1,71.6L62.3,71.8L61.3,76.6L61.2,77.6L61.1,77.9L61.1,78.6L60.8,79.4L60.6,80.9L60.2,82.0L59.9,83.9L59.5,85.1L59.0,88.0L59.6,88.6L60.2,88.8L64.2,89.3L68.0,89.3L69.3,89.1L71.8,88.7L72.9,88.3L73.3,88.3L73.6,88.1L73.9,87.8L73.8,86.9L73.6,86.4L73.5,85.3L73.2,84.5L73.0,82.9L72.8,82.3L72.6,81.3L72.3,80.6L71.9,78.3L71.4,76.8L71.4,76.4L70.8,74.2L70.8,73.6L70.5,72.6L70.5,72.1L70.8,71.6L71.6,71.6L73.1,71.9L73.2,72.4L72.6,73.5L72.6,74.1L72.8,74.5L74.6,76.2L75.1,76.1L75.1,75.7L74.9,75.2L73.6,74.0L73.9,73.2L74.5,72.8L74.9,72.9L75.9,74.0L76.4,74.2L78.6,74.2L80.4,74.9L80.8,75.2L81.2,75.2L81.4,74.9L81.4,74.6L81.1,74.2L80.6,74.2L78.9,73.4L76.5,73.2L74.5,71.2L72.2,70.5L71.9,70.2L71.9,69.9L72.5,69.1L73.5,69.0L74.6,69.3L75.9,69.5L76.3,69.6L78.8,72.2L79.5,72.5L81.8,72.1L82.0,71.9L82.0,71.6L81.6,71.3L80.2,71.6L79.3,71.4L78.0,70.2L77.6,69.6L77.6,69.5L77.9,69.2L78.6,69.0L79.3,69.0L82.3,70.5L83.2,70.5L83.8,70.4L84.2,70.2L86.0,69.6L86.3,69.4L86.0,68.9L85.3,68.9L85.1,69.1L84.6,69.2L83.6,69.6L82.4,69.8L79.5,68.2L78.3,68.2L76.7,68.5L75.8,68.5L75.0,68.2L73.9,67.7L73.8,67.5L73.9,67.1L74.4,66.5L75.0,66.2L77.8,66.2L78.9,65.8L79.8,65.5L80.4,65.4L80.8,65.5L81.7,66.5L83.0,67.4L85.0,67.5L87.3,67.4L87.6,67.0L87.3,66.8L83.6,66.5L82.9,66.0L82.5,65.8L82.2,65.5L82.2,65.3L82.5,65.1L86.0,65.4L87.3,65.7L88.3,65.8L89.7,65.5L89.9,65.3L89.8,64.8L89.0,64.8L87.9,65.0L87.5,64.8L84.2,64.5L83.3,64.5L82.3,64.2L80.9,64.2L77.8,65.2L76.9,65.2L76.8,65.2L76.7,64.8L77.2,64.2L78.2,63.5L79.4,62.4L82.3,61.5L83.0,61.6L84.1,62.5L86.2,63.9L87.3,63.9L89.8,63.1L90.3,62.8L90.3,62.4L90.2,62.2L89.7,62.2L87.2,62.9L86.3,62.8L84.6,61.7L84.1,61.2L84.1,61.1L84.4,60.8L86.0,61.1L87.0,61.1L88.0,60.6L89.3,59.8L90.3,59.8L90.7,59.5L90.7,59.2L90.6,59.1L89.3,59.1L88.6,59.3L87.9,59.8L87.0,60.1L86.2,60.1L85.1,59.9L85.0,59.8L85.0,59.4L85.5,58.6L86.2,58.0L86.7,57.8L89.8,57.7L90.0,57.6L90.0,57.3L89.6,57.0L86.0,57.1L85.3,57.3L82.9,60.0L81.6,60.5L81.0,60.5L81.1,60.0L82.6,58.1L84.0,56.8L86.7,55.7L88.7,55.3L89.3,54.9L89.3,54.5L88.7,54.4L86.0,55.1L85.3,55.4L84.1,55.7L83.3,56.1L82.3,57.1L81.6,57.6L81.5,57.5L81.6,56.8L82.0,56.0L82.4,55.4L83.2,55.0L83.8,54.9L84.6,54.5L85.9,54.2L87.0,53.7L88.0,53.4L88.3,53.1L88.3,52.8L88.0,52.5L86.7,52.8L86.3,53.0L85.7,53.1L84.3,53.7L81.8,54.4L81.2,55.0L80.9,55.7L80.3,56.8L80.0,57.5L79.4,58.5L79.3,59.1L78.3,60.9L77.8,61.5L75.0,64.0L74.2,64.5L73.6,65.2L73.1,65.2L72.8,64.9L72.6,64.5L72.6,63.4L73.3,62.5L74.6,61.7L76.1,60.5L77.0,60.1L77.2,59.5L76.9,59.2L76.4,59.3L75.8,59.8L74.7,60.5L72.2,62.2L71.5,62.9L71.3,63.5L71.6,65.0L71.5,66.6L71.1,67.2L70.4,67.6L69.9,67.6L69.7,67.3L69.3,65.6L69.4,63.8L69.9,62.9L71.1,61.3L71.6,60.1L72.4,59.0L72.8,58.6L73.3,58.4L76.2,58.5L76.6,58.3L76.9,58.0L78.0,56.3L78.2,55.8L78.6,55.4L79.0,55.1L79.8,54.8L80.1,54.5L80.1,54.2L79.9,54.1L79.4,54.1L78.2,54.5L77.6,55.0L76.6,56.7L75.9,57.5L75.2,57.7L73.9,57.5L73.7,57.4L73.9,56.8L75.2,54.8L75.8,54.1L76.4,53.7L77.7,53.4L79.0,52.8L79.6,52.8L81.8,52.0L83.2,51.7L87.2,51.7L87.7,51.3L87.7,51.0L87.5,50.9L83.6,51.0L83.5,50.8L83.5,50.7L83.9,50.3L85.5,49.3L85.9,48.9L85.8,48.4L85.2,48.4L82.8,49.9L82.0,50.7L81.8,50.7L80.9,51.3L79.5,51.6L77.7,52.2L77.2,52.1L76.9,51.4L76.9,49.7L77.3,49.1L77.7,48.9L78.3,48.7L79.0,48.7L81.6,48.4L83.5,46.8L83.6,46.3L83.3,46.0L83.0,46.0L82.7,46.2L81.6,47.2L80.9,47.7L78.9,47.8L78.6,47.6L78.7,47.2L81.3,44.4L81.3,44.2L81.1,44.0L80.2,44.3L76.7,48.0L75.9,49.1L75.8,51.1L75.6,52.0L72.2,56.9L71.5,57.8L71.2,57.8L70.9,57.6L70.9,56.1L71.8,54.5L73.5,52.2L73.7,51.5L73.7,50.7L73.5,50.5L73.2,50.5L72.9,50.8L72.3,52.3L71.3,53.4L70.0,55.6L70.0,59.6L69.6,60.5L69.2,60.9L69.1,60.9L68.9,60.8L68.9,60.1L69.1,59.8L69.3,55.4L69.5,54.6L69.5,53.1L69.8,52.1L73.2,49.7L73.8,49.0L74.0,48.3L74.6,47.7L75.2,47.5L75.6,47.5L76.4,47.2L77.4,46.5L77.8,46.0L78.7,44.2L78.7,44.0L79.0,43.4L79.1,42.7L78.9,42.6L78.6,42.6L78.3,42.8L77.6,44.1L76.8,45.4L76.4,45.8L75.8,46.2L74.6,46.6L74.3,46.3L74.3,45.7L74.7,44.3L75.9,42.6L76.4,41.7L76.3,41.0L75.8,41.1L75.2,41.7L75.2,41.9L74.4,43.0L74.3,43.3L73.8,44.0L73.2,45.4L73.2,46.7L72.6,48.6L72.2,49.0L70.6,50.3L69.9,50.7L69.5,50.7L69.3,50.5L69.2,49.7L68.9,49.3L68.6,48.1L68.6,47.2L69.2,46.4L70.5,45.6L71.7,45.0L72.4,44.3L72.7,43.7L72.7,43.5L73.9,40.5L73.8,39.9L73.1,39.8L72.9,40.0L71.5,43.5L70.2,44.7L69.9,44.7L69.5,45.0L69.0,45.1L68.8,44.9L68.9,43.8L69.0,43.5L69.4,41.1L69.5,40.9L69.5,40.5L69.9,39.5L69.8,39.2L69.1,39.2L68.8,39.5L68.3,41.3L67.9,43.8L67.9,45.4L67.6,46.0L67.2,46.1L66.7,45.5L66.3,44.6L66.3,44.1L66.7,42.6L66.7,42.0L67.0,41.1L67.2,39.5L67.2,39.0Z M109.1,36.2L105.6,33.0L104.1,32.0L103.1,31.1L102.5,30.9L101.5,30.1L101.0,29.9L100.2,29.3L99.5,29.1L99.3,28.9L98.0,28.3L97.6,27.9L97.4,27.9L96.5,27.5L96.0,27.3L94.9,26.6L94.3,26.5L93.3,25.9L92.2,25.6L90.7,24.9L88.8,24.4L87.9,24.0L87.0,23.9L86.3,23.6L85.8,23.5L85.6,23.3L82.1,22.5L81.2,22.4L76.9,21.5L76.1,21.5L74.6,21.2L70.9,21.1L70.5,20.9L67.1,20.9L64.8,20.9L64.0,21.1L61.7,21.1L61.0,21.2L59.3,21.2L56.4,21.6L55.6,21.6L51.7,22.2L47.7,23.2L46.7,23.2L46.1,23.6L45.6,23.6L44.4,24.1L43.2,24.3L42.8,24.6L40.3,25.3L39.6,25.9L38.7,26.0L38.1,26.4L36.0,27.5L35.3,27.6L32.6,28.8L31.6,29.5L30.9,29.7L30.7,29.9L28.6,31.0L25.2,33.5L23.6,34.8L23.2,35.0L22.3,36.0L21.3,36.9L18.0,40.3L15.8,43.4L15.8,43.5L14.8,45.0L14.4,45.4L13.6,46.9L13.5,47.3L13.2,47.6L12.3,49.8L11.4,51.7L11.3,52.3L10.7,53.8L10.4,55.4L10.0,56.2L9.8,57.7L9.4,59.8L9.2,62.5L9.1,63.2L9.1,67.8L9.4,70.2L9.4,71.0L9.7,71.9L9.8,72.8L10.1,73.7L10.3,75.2L10.8,76.9L11.4,78.1L11.5,78.9L11.8,79.5L11.8,79.7L13.3,82.7L15.1,85.6L16.8,88.1L17.5,88.9L17.8,89.3L19.3,91.1L23.4,94.9L24.2,95.4L26.6,97.4L28.2,98.1L29.2,98.9L30.4,99.4L31.3,100.1L31.9,100.3L33.3,101.1L33.7,101.2L34.0,101.4L34.6,101.6L35.3,102.0L35.8,102.1L36.0,102.2L37.5,102.7L38.5,103.1L39.4,103.4L39.6,103.5L40.5,103.8L40.9,104.0L43.9,104.9L44.6,105.0L45.8,105.4L46.7,105.5L48.1,105.8L49.7,106.1L50.4,106.3L51.0,106.3L52.3,106.6L54.3,106.8L54.6,106.9L57.0,107.0L58.4,107.2L61.2,107.2L63.0,107.4L65.1,107.2L69.3,107.1L72.7,106.9L73.7,106.7L75.6,106.7L77.5,106.3L80.0,106.1L82.9,105.3L84.0,105.2L84.8,104.8L87.0,104.5L89.0,103.9L89.6,103.6L90.5,103.4L91.8,102.8L93.1,102.3L97.4,100.1L98.4,99.4L98.7,99.3L100.5,98.1L100.8,98.1L102.4,96.8L104.4,95.6L108.5,92.1L111.2,89.3L111.3,89.0L112.1,88.2L112.6,87.3L113.2,86.7L114.5,84.8L116.8,80.9L116.8,80.6L117.5,79.3L117.6,78.5L117.9,77.9L118.2,76.9L118.4,76.5L118.8,75.2L119.0,73.3L119.2,72.9L119.0,72.3L117.1,72.2L98.9,72.0L96.2,72.1L95.3,72.2L95.0,72.5L95.1,73.3L94.9,74.4L94.8,75.6L94.4,77.1L94.1,77.6L94.0,78.6L93.2,80.4L92.7,81.2L92.3,82.0L90.1,85.2L88.9,86.5L86.4,88.8L83.7,90.8L81.4,92.1L81.1,92.4L79.6,93.0L79.2,93.4L77.0,94.1L76.1,94.6L75.0,94.7L74.2,95.1L72.6,95.4L71.9,95.7L67.4,96.2L62.3,96.1L59.7,95.8L56.2,95.0L53.7,94.1L50.4,92.7L49.1,91.8L48.1,91.4L45.0,89.0L41.9,86.1L41.3,85.2L39.5,83.1L39.2,82.5L38.1,81.0L36.3,77.4L36.2,76.9L35.8,76.3L35.3,74.9L35.1,74.5L34.5,72.2L33.9,69.0L33.6,67.3L33.6,62.6L34.0,59.3L34.4,57.5L34.6,56.4L35.0,55.2L35.1,54.5L36.0,52.7L36.1,52.0L38.5,47.4L40.3,44.9L42.5,42.3L44.3,40.5L48.0,37.6L49.0,37.1L49.7,36.6L51.1,36.0L51.5,35.6L53.6,34.6L53.8,34.6L54.4,34.3L54.8,34.3L56.7,33.5L57.2,33.4L57.8,33.1L59.0,33.0L60.0,32.6L61.7,32.5L63.0,32.2L66.9,32.1L70.7,32.4L71.6,32.6L72.6,32.7L73.1,33.0L74.1,33.1L76.0,33.8L76.6,33.9L78.7,34.7L79.8,35.3L81.6,36.1L84.3,37.9L85.1,38.6L85.5,38.7L87.1,40.0L89.4,42.4L91.8,45.2L93.0,47.3L93.4,48.4L94.4,50.4L95.0,52.1L95.3,53.6L95.4,54.6L95.7,55.0L99.0,55.1L101.4,55.1L101.8,55.0L105.8,55.1L118.6,55.1L118.9,54.8L118.9,54.0L118.3,51.5L117.9,50.4L117.6,49.9L117.4,49.1L116.3,46.8L116.3,46.6L116.0,46.2L115.9,45.7L115.2,44.5L114.9,43.8L113.5,41.8L113.2,41.3L111.5,39.0L110.8,38.0Z" fill="#000" fill-rule="evenodd"/>
</svg>