<svg xmlns="http://www.w3.org/2000/svg" viewBox="0 0 128 128" width="128" height="128">
  <path d="M55.5,59.8L55.2,60.0L55.1,60.9L55.2,62.7L55.0,66.3L55.0,75.0L54.7,88.6L54.8,91.5L54.9,92.3L55.3,92.8L57.9,92.9L73.2,92.8L73.6,92.5L73.7,92.0L73.8,89.9L73.7,77.2L73.9,73.4L73.8,60.4L73.6,59.9L73.0,59.6L68.8,59.6L56.1,59.6Z M59.0,62.9L70.2,62.8L70.8,63.0L71.1,63.4L71.1,75.2L70.9,83.3L70.9,88.1L70.8,88.9L70.7,89.2L70.3,89.5L65.5,89.7L59.7,89.6L58.9,89.5L58.6,89.3L58.2,88.9L58.2,87.6L58.0,86.7L58.2,73.6L58.2,68.8L58.4,63.6L58.6,63.2Z M55.5,38.7L55.3,42.2L55.4,44.4L55.2,51.3L55.3,53.0L55.7,53.5L57.3,53.7L72.6,53.5L73.6,53.3L74.0,53.0L74.2,51.9L74.1,50.9L74.3,45.5L74.3,39.0L74.0,38.3L71.8,38.3L71.4,38.8L71.3,39.9L71.0,40.4L70.7,40.4L70.0,40.0L69.8,40.0L69.4,40.2L69.4,43.0L69.8,43.3L70.0,43.3L70.5,42.9L70.9,42.9L71.2,43.2L71.3,43.5L71.1,48.3L70.8,48.8L70.2,48.9L69.5,48.8L69.2,48.4L69.3,47.9L69.8,47.2L69.9,46.4L69.8,46.1L69.0,45.5L68.6,45.6L67.9,46.2L67.8,46.6L67.8,47.2L68.3,47.9L68.2,48.6L67.9,48.9L67.2,48.9L66.9,48.8L66.6,48.4L66.5,43.7L66.7,39.6L67.0,39.1L68.2,39.1L68.4,38.7L68.3,37.4L68.2,37.1L67.3,37.1L66.9,36.9L66.9,35.7L66.6,35.3L64.4,35.2L64.0,35.4L63.9,35.8L63.9,36.7L63.5,37.2L62.3,37.4L62.2,37.5L62.3,39.3L62.7,39.4L63.2,39.1L63.7,39.2L63.9,40.6L63.8,48.0L63.6,48.5L62.9,49.0L62.0,49.0L61.5,48.6L61.5,48.2L62.0,47.5L62.1,46.7L61.9,46.2L61.4,45.7L61.0,45.7L60.2,46.5L60.1,47.5L60.2,47.7L60.7,48.2L60.7,48.5L60.3,48.8L59.2,49.0L58.6,48.6L58.6,48.3L58.6,43.2L59.0,42.9L59.4,42.9L60.5,43.7L60.9,43.7L61.1,43.6L61.1,40.6L60.9,40.2L60.5,40.2L60.2,40.4L59.4,41.0L58.9,41.0L58.6,40.5L58.6,38.9L58.6,38.5L58.4,38.3L57.9,38.2L56.1,38.2Z M63.2,9.1L59.0,9.5L57.4,10.0L56.3,10.1L54.8,10.6L53.1,10.8L51.0,11.5L48.3,12.6L48.1,12.6L45.4,13.8L44.1,14.6L43.6,14.8L43.3,15.1L42.3,15.7L41.7,15.9L38.4,18.3L35.9,20.4L35.6,20.6L32.2,23.8L30.8,25.5L30.5,26.2L29.3,27.4L28.8,28.4L27.9,29.5L26.8,31.6L26.4,32.0L25.0,34.8L24.5,36.2L23.7,37.9L23.5,38.8L22.8,40.2L22.3,41.7L22.2,42.8L21.8,43.9L20.9,48.6L20.9,49.6L20.6,50.5L20.5,52.2L20.2,54.1L20.2,55.4L20.0,57.4L20.0,59.3L19.8,60.5L19.8,66.6L20.1,68.5L20.1,70.1L20.4,73.0L20.4,74.1L20.6,75.4L20.7,77.4L21.4,81.5L21.4,82.2L21.6,82.8L21.7,83.8L22.1,84.7L22.3,86.2L22.9,88.0L23.2,88.7L23.2,89.1L24.7,93.0L25.8,95.1L26.0,95.6L26.2,95.9L26.4,96.4L27.0,97.6L29.0,101.0L30.7,103.2L32.6,105.4L34.2,107.0L34.7,107.3L35.5,108.3L40.1,111.9L41.4,112.6L44.3,114.4L47.2,115.8L49.1,116.5L51.6,117.3L52.0,117.5L53.3,117.7L53.9,117.9L55.4,118.1L56.4,118.5L57.7,118.5L58.6,118.9L59.9,119.0L66.5,119.1L70.7,118.6L71.3,118.4L72.8,118.2L73.6,117.9L76.1,117.4L77.8,116.8L79.2,116.4L82.7,114.9L85.4,113.5L85.9,113.1L86.4,113.0L89.7,110.8L94.0,107.2L97.0,104.1L99.0,101.8L99.4,101.2L99.6,101.0L99.8,100.6L101.9,97.6L104.5,92.6L105.2,90.6L105.9,88.9L106.1,88.0L106.5,86.9L106.6,85.6L107.0,84.9L107.0,84.3L107.3,83.3L107.5,81.5L107.7,80.7L107.9,78.6L108.2,77.6L108.3,75.9L108.4,71.7L108.0,71.1L107.6,71.0L92.4,70.9L90.5,71.1L90.1,71.7L90.1,72.7L90.3,73.4L90.2,76.6L89.8,79.8L88.6,84.2L86.6,88.2L84.7,91.0L81.8,94.2L80.6,95.2L78.2,96.8L75.1,98.6L72.4,99.7L70.4,100.3L66.2,101.0L63.6,101.0L60.1,100.7L58.7,100.5L58.2,100.2L57.3,100.1L55.4,99.5L52.7,98.3L50.2,96.8L48.1,95.3L45.8,93.0L44.1,91.0L43.2,89.7L42.0,87.6L41.0,85.1L40.8,83.9L40.5,83.1L40.4,82.2L40.2,81.7L40.0,80.6L39.7,79.7L39.3,77.6L39.3,76.4L38.6,70.3L38.5,64.3L38.5,59.6L38.8,57.3L39.1,50.8L39.6,48.0L39.9,47.4L40.0,46.7L40.4,45.6L40.8,44.0L42.4,40.2L43.6,37.9L44.7,36.5L46.0,35.0L49.1,32.3L51.3,31.0L52.0,30.4L54.7,29.0L58.7,27.7L61.9,27.1L65.7,27.0L69.0,27.4L71.8,28.1L72.5,28.2L73.7,28.6L75.0,29.3L76.5,29.9L80.4,32.5L82.0,33.8L84.3,36.2L87.0,40.3L88.5,43.4L89.5,47.2L89.9,50.4L89.9,52.6L90.1,53.3L90.6,53.5L106.9,53.3L107.5,53.1L107.9,52.5L107.9,49.6L107.5,44.8L107.0,43.0L106.8,41.7L105.5,37.5L105.2,36.9L105.2,36.6L104.3,34.5L103.9,33.9L103.9,33.7L103.4,32.9L102.8,31.5L102.1,30.5L101.6,29.2L99.9,26.6L99.3,25.1L97.0,22.4L96.2,21.2L94.7,19.6L92.8,18.7L92.4,18.3L89.7,17.0L87.8,15.6L87.4,15.5L85.9,14.5L83.6,13.4L82.9,13.2L82.3,12.8L81.5,12.4L80.7,12.3L77.9,11.1L77.0,11.0L76.1,10.6L71.2,9.6L69.8,9.5L68.2,9.5L67.0,9.2Z" fill="#000" fill-rule="evenodd"/>
</svg>