<svg xmlns="http://www.w3.org/2000/svg" viewBox="0 0 128 128" width="128" height="128">
  <path d="M48.5,12.4L47.6,12.1L38.1,12.1L36.0,12.3L26.6,12.2L11.1,12.4L9.9,12.6L9.6,13.1L9.5,16.0L9.7,50.6L10.3,51.3L10.8,51.3L22.0,51.3L26.4,51.2L48.2,51.2L48.7,50.4L48.9,47.8L48.9,12.9Z M103.8,27.5L102.4,26.0L99.6,23.7L98.6,23.1L97.3,22.0L96.4,21.5L93.7,19.7L92.8,19.3L91.9,18.6L89.6,17.4L89.0,17.2L86.2,15.9L85.8,15.8L85.2,15.4L83.2,14.8L82.8,14.5L79.4,13.6L77.8,13.4L76.6,12.9L71.5,12.2L69.0,12.1L67.8,11.9L54.5,12.1L53.6,12.4L53.6,13.0L53.8,13.4L63.5,22.9L63.9,23.1L65.0,24.4L72.2,31.2L72.6,31.8L76.3,35.3L77.1,36.4L77.2,37.1L77.1,78.5L76.7,79.1L76.2,79.3L70.1,79.2L64.3,79.3L58.1,79.3L57.0,79.1L56.5,79.3L54.2,79.3L34.4,79.3L33.3,78.8L27.4,73.0L22.0,67.9L18.6,64.5L18.0,63.7L15.8,61.8L13.5,59.4L10.6,56.6L9.8,56.6L9.7,56.7L9.5,66.6L9.4,115.2L10.1,116.1L28.1,116.2L45.6,116.1L60.4,116.3L70.0,116.1L73.5,115.7L74.3,115.4L76.3,115.2L77.6,114.8L78.8,114.7L79.5,114.4L85.2,112.6L87.1,111.7L87.8,111.3L89.4,110.8L91.3,109.7L91.6,109.4L92.8,108.9L95.6,106.9L96.3,106.6L99.7,104.1L101.9,102.0L102.3,101.8L106.3,97.7L106.4,97.4L107.8,95.8L109.7,93.2L113.1,87.7L113.3,86.9L115.1,83.3L116.1,80.8L116.2,80.2L116.7,79.2L118.0,73.9L118.6,69.7L118.9,65.5L118.8,59.8L118.3,56.9L118.3,55.7L117.2,50.5L116.4,48.4L116.1,47.0L115.4,45.5L115.1,44.5L114.8,44.2L114.4,42.8L113.3,40.9L113.1,40.3L111.6,37.7L111.5,37.3L108.0,32.2Z" fill="#000" fill-rule="evenodd"/>
</svg>