<svg xmlns="http://www.w3.org/2000/svg" viewBox="0 0 128 128" width="128" height="128">
  <path d="M71.7,11.9L70.2,12.2L69.8,12.6L69.7,13.3L69.6,30.3L69.7,35.2L69.7,43.8L70.0,45.8L70.6,46.5L71.2,46.6L74.1,46.8L78.8,46.7L83.0,46.9L83.3,47.0L83.6,47.3L83.6,47.6L82.9,48.4L82.2,48.6L82.0,48.9L80.9,49.3L79.9,49.9L78.2,50.7L77.9,51.0L77.3,51.2L76.0,52.0L74.6,52.6L73.1,53.5L69.6,55.2L69.3,55.5L68.6,55.7L67.3,56.5L66.5,56.8L66.0,57.1L64.5,57.8L64.3,58.0L63.5,58.3L63.0,58.7L62.4,58.9L61.9,59.2L61.4,59.3L61.0,59.7L60.5,59.8L59.9,60.2L59.4,60.3L58.0,61.2L57.5,61.3L57.3,61.6L56.7,61.8L54.3,63.2L54.2,63.8L54.6,64.3L55.9,65.0L58.3,66.1L59.1,66.7L59.9,67.0L61.4,67.9L66.5,70.4L66.7,70.7L69.8,72.1L71.8,73.2L72.6,73.5L72.8,73.8L73.2,73.9L73.8,74.3L74.4,74.5L75.7,75.3L76.1,75.4L76.8,75.9L77.2,76.0L77.7,76.3L78.5,76.6L78.9,77.0L80.4,77.6L80.9,78.0L83.5,79.4L84.2,80.0L84.2,80.3L83.7,80.7L83.0,80.8L81.1,80.7L71.4,80.9L71.0,81.0L70.6,81.4L70.3,81.8L70.1,84.0L70.3,90.0L70.2,98.9L70.6,115.4L71.0,116.2L71.7,116.6L74.8,116.6L76.2,116.4L77.9,116.3L81.8,115.4L86.8,113.8L92.6,111.3L93.7,110.4L94.6,110.1L96.0,109.1L96.2,109.1L97.6,108.1L98.5,107.2L100.0,106.3L104.9,101.6L107.9,98.1L109.3,96.1L109.8,95.6L110.6,94.2L111.8,92.6L112.5,90.9L112.8,90.7L113.9,88.3L114.0,87.6L114.9,86.2L116.9,80.6L117.0,79.5L117.5,78.4L117.6,77.3L118.5,73.2L119.0,68.3L119.0,61.8L118.7,59.3L118.5,56.5L118.3,55.6L118.1,55.4L117.9,53.2L117.6,52.7L117.3,51.0L117.0,50.6L116.9,49.6L116.5,48.6L116.5,48.2L116.0,47.2L115.9,46.5L115.5,45.7L114.8,43.4L112.3,38.3L111.0,36.3L110.4,35.1L106.7,30.0L104.4,27.3L100.6,23.7L97.5,21.2L97.2,21.1L94.4,19.1L92.4,18.0L92.2,17.8L90.2,16.7L85.5,14.7L82.5,13.7L80.3,13.3L79.6,12.9L77.9,12.7L75.9,12.3Z M10.8,11.7L10.3,11.9L9.8,12.5L9.4,13.6L9.6,15.2L9.5,17.2L9.7,21.9L9.6,54.1L9.8,58.3L9.7,65.7L9.9,76.9L10.0,81.0L9.9,82.6L9.9,90.7L10.0,96.1L10.0,113.5L10.1,114.9L10.4,115.5L11.1,116.1L13.0,116.3L34.9,116.4L35.4,116.2L35.8,115.6L36.1,114.1L35.9,81.7L35.4,81.1L35.1,81.0L29.7,80.8L22.2,80.8L21.5,80.7L21.3,80.4L21.3,80.1L21.7,79.5L25.0,77.8L25.3,77.5L29.0,75.8L30.3,75.0L30.7,74.9L32.0,74.3L32.3,74.0L33.1,73.7L35.0,72.5L37.8,71.2L38.4,70.8L39.9,70.2L41.9,69.0L42.3,68.9L43.6,68.2L44.8,67.4L45.5,67.2L48.7,65.4L49.6,65.0L51.1,64.1L51.2,63.5L50.4,62.8L49.1,62.1L48.8,61.8L48.1,61.6L46.2,60.5L44.1,59.6L42.9,58.8L40.5,57.7L40.0,57.3L39.6,57.2L38.8,56.8L38.6,56.8L37.9,56.3L35.8,55.3L35.4,55.2L34.7,54.7L34.2,54.6L33.7,54.2L33.3,54.1L32.8,53.7L28.0,51.5L26.9,50.7L25.2,50.0L24.9,49.7L22.3,48.5L21.3,47.8L21.3,47.3L21.6,47.0L22.1,46.9L27.4,46.8L28.2,46.6L31.6,46.7L32.7,46.5L34.7,46.5L35.2,46.4L35.7,45.7L35.7,43.0L35.8,41.1L35.7,39.5L35.7,35.9L35.6,30.3L35.6,14.7L35.4,12.4L34.8,11.8L34.1,11.6L22.0,11.6Z" fill="#000" fill-rule="evenodd"/>
</svg>