<svg xmlns="http://www.w3.org/2000/svg" viewBox="0 0 128 128" width="128" height="128">
  <path d="M115.7,48.1L114.7,46.6L114.0,45.0L111.6,41.3L109.1,38.4L106.9,36.4L104.7,34.5L100.9,31.7L99.7,31.2L96.2,29.4L95.6,29.2L94.4,28.7L93.5,28.5L92.4,28.1L89.2,27.5L87.8,27.1L85.4,27.0L84.9,26.8L82.8,26.8L80.5,26.6L78.6,26.7L75.3,26.5L66.8,26.4L64.0,26.6L56.0,26.5L51.9,26.7L47.2,26.6L37.7,26.8L29.2,26.7L28.4,26.9L19.2,26.8L15.3,27.0L9.5,27.0L9.4,27.1L9.2,27.9L9.1,30.2L9.5,60.3L10.0,60.3L11.1,58.5L11.8,57.7L12.5,56.5L13.4,55.3L14.3,54.5L14.7,53.8L19.3,49.1L21.8,47.2L23.6,46.0L23.9,45.9L24.3,45.5L28.0,43.5L28.7,43.2L30.1,42.4L33.2,41.4L33.9,41.0L34.4,40.9L35.5,40.4L36.7,40.3L39.8,39.5L41.5,39.3L43.4,38.9L46.0,38.7L49.4,38.5L51.6,38.7L53.7,38.6L57.8,39.2L58.6,39.2L60.1,39.6L61.8,39.8L62.0,40.0L62.7,40.0L64.1,40.5L64.8,40.8L65.4,40.9L65.6,41.1L66.0,41.2L68.3,42.3L68.8,42.4L69.8,42.9L70.0,43.1L70.5,43.3L71.6,44.0L74.5,46.2L76.2,48.0L77.9,49.9L78.4,50.8L79.2,51.6L80.8,54.6L80.9,55.0L81.2,55.5L81.4,56.3L82.1,58.2L82.3,59.5L82.7,60.7L82.7,62.1L82.8,62.7L82.8,65.8L82.7,66.5L82.7,67.3L82.5,67.7L82.4,69.3L82.2,70.2L82.1,71.2L81.6,72.7L81.4,73.1L81.2,74.1L79.9,76.8L79.0,78.2L77.1,80.4L75.6,81.9L71.6,84.6L70.5,85.1L70.1,85.4L67.5,86.4L66.6,86.6L64.8,87.2L62.4,87.4L59.2,87.4L56.9,87.1L55.8,86.6L55.0,86.5L54.1,86.1L53.9,86.1L52.1,85.3L50.1,84.1L47.9,82.3L47.0,81.4L45.7,79.4L44.8,77.5L44.5,76.3L44.2,75.4L44.0,73.6L44.2,70.7L45.1,68.1L46.0,66.5L47.8,64.3L48.6,63.6L49.7,62.8L50.2,62.6L50.5,62.3L52.9,61.5L55.4,61.3L56.8,61.4L58.3,61.9L59.4,62.3L59.8,62.7L60.1,62.8L61.5,64.1L62.4,65.1L63.1,66.2L63.2,66.8L63.6,67.3L63.6,68.0L64.0,69.0L64.2,69.9L64.2,74.0L64.4,74.2L64.7,74.2L65.9,73.6L67.6,72.4L69.2,70.7L69.7,69.9L70.6,68.9L71.4,67.4L71.7,66.3L72.0,65.7L72.1,65.0L72.3,64.5L72.5,63.4L72.5,60.5L72.2,58.8L72.2,57.7L71.7,56.8L71.6,56.1L70.8,54.7L70.7,54.2L70.4,53.7L70.1,52.9L69.3,51.7L66.6,49.0L65.2,48.0L64.1,47.1L63.8,47.0L62.9,46.4L60.2,45.1L59.0,44.7L58.1,44.5L57.6,44.3L56.6,44.1L55.3,43.6L54.5,43.6L53.8,43.4L51.3,43.2L50.6,43.1L46.7,43.1L44.1,43.2L41.4,43.6L38.6,44.2L37.5,44.7L35.5,45.1L34.0,45.9L32.6,46.3L30.2,47.5L29.3,47.8L24.2,51.1L21.1,53.9L20.8,54.4L19.1,56.1L17.7,57.7L16.4,59.6L16.2,60.0L15.6,60.7L15.3,61.3L15.0,61.6L14.9,61.9L14.6,62.2L14.0,63.8L13.3,65.0L13.2,65.4L12.9,65.9L12.7,66.5L12.4,67.0L12.2,67.7L11.8,68.5L11.7,69.0L11.4,69.7L11.3,70.4L11.2,70.7L10.9,72.5L10.6,73.4L10.1,77.4L9.9,82.9L10.0,90.6L10.1,93.9L10.1,100.8L10.3,101.5L10.6,101.7L11.7,101.8L14.4,101.8L15.4,101.7L23.3,101.7L26.7,101.5L59.5,101.6L60.1,101.4L74.1,101.5L82.0,101.3L83.3,101.1L84.7,101.1L86.4,100.8L89.5,100.5L90.8,100.1L91.0,100.0L92.3,99.7L92.8,99.5L93.7,99.3L95.5,98.8L96.0,98.5L96.4,98.5L96.8,98.2L98.6,97.5L99.5,97.0L99.8,96.8L102.2,95.7L102.6,95.3L103.6,94.7L104.6,93.8L105.8,93.1L107.9,91.1L109.6,89.5L110.1,88.6L111.4,87.2L112.3,85.7L113.2,84.5L113.7,83.5L114.3,82.6L116.3,78.6L116.4,78.1L117.0,77.0L117.5,75.5L117.7,74.7L118.0,74.0L118.1,73.2L118.4,72.4L118.6,70.6L118.8,69.9L118.8,68.6L119.0,68.0L119.1,64.6L119.1,61.4L119.0,60.4L119.0,58.9L118.4,55.8L118.1,54.9L118.0,54.0L117.7,53.3L117.1,51.1L116.4,49.9Z" fill="#000" fill-rule="evenodd"/>
</svg>