<svg xmlns="http://www.w3.org/2000/svg" viewBox="0 0 128 128" width="128" height="128">
  <path d="M9.7,61.5L9.6,62.3L9.3,63.3L9.1,67.5L9.2,72.0L9.0,83.6L9.0,97.5L9.2,98.8L9.7,98.8L10.7,97.8L15.1,93.5L15.6,92.7L15.7,65.0L16.0,63.5L16.7,62.6L17.5,62.5L17.8,62.9L17.7,89.7L17.9,90.1L18.3,90.0L19.0,89.5L24.0,84.5L24.4,83.9L24.6,62.7L24.8,61.9L24.9,61.6L25.2,61.5L26.0,61.5L26.3,61.6L26.5,61.9L26.5,62.6L26.5,76.2L26.3,76.9L26.5,77.5L26.5,81.0L26.7,81.3L27.1,81.2L32.2,76.2L33.3,74.8L33.5,66.5L33.4,63.1L33.5,62.0L34.1,61.5L35.0,61.6L35.3,61.9L35.4,62.3L35.4,71.9L35.7,72.1L36.2,71.9L37.4,70.8L39.8,68.6L42.1,66.1L42.3,65.7L42.3,61.9L42.9,61.4L48.0,61.3L49.2,61.5L50.8,61.5L52.6,61.3L83.8,61.3L85.0,61.6L85.6,62.0L86.1,62.5L86.6,63.5L86.6,64.8L86.1,65.7L85.6,66.3L85.1,66.6L83.8,66.9L69.2,67.0L61.1,66.8L42.8,67.0L42.0,67.4L39.7,69.9L37.1,72.4L36.5,73.1L36.6,73.5L36.9,73.6L42.9,73.6L51.1,73.7L52.1,73.6L83.5,73.7L84.0,73.6L86.0,73.5L86.9,73.1L87.8,73.0L88.1,72.7L88.8,72.5L90.0,71.7L91.0,70.8L92.1,69.5L92.9,68.0L93.1,67.1L93.3,66.7L93.6,64.9L93.6,63.2L93.3,61.4L92.4,59.4L91.7,58.3L90.3,56.8L88.7,55.7L86.9,54.9L85.3,54.6L84.0,54.6L43.4,54.5L42.7,54.4L42.4,53.9L42.4,53.5L42.6,52.8L42.9,52.6L44.6,52.4L60.4,52.6L71.3,52.5L85.4,52.6L87.0,52.8L87.9,53.2L88.7,53.4L88.9,53.6L89.4,53.7L91.2,54.9L93.1,56.8L94.3,58.5L95.4,61.4L95.7,63.7L95.5,66.1L95.1,67.8L94.2,70.0L92.8,71.9L91.7,73.0L89.3,74.6L88.3,75.0L86.7,75.5L83.7,75.9L79.4,75.9L34.0,75.9L33.5,76.1L28.7,80.8L27.6,82.3L27.7,82.6L28.4,82.8L29.7,82.7L33.3,82.9L37.6,82.7L60.2,82.9L84.6,82.8L86.9,82.5L88.7,82.1L92.0,81.0L93.0,80.4L93.6,80.1L94.5,79.4L95.3,79.0L97.8,76.6L99.1,75.0L99.8,73.7L100.1,73.4L101.3,70.8L102.1,68.0L102.3,67.0L102.4,63.0L102.3,62.4L102.3,61.4L101.8,59.1L101.5,58.4L101.2,57.4L100.2,55.1L99.2,53.5L98.3,52.4L96.3,50.2L94.8,49.0L92.6,47.6L90.0,46.6L89.0,46.4L88.5,46.1L87.3,46.0L86.7,45.7L85.0,45.6L43.0,45.5L42.7,45.4L42.4,45.1L42.4,44.0L42.8,43.7L45.2,43.5L70.5,43.8L86.6,43.8L89.5,44.4L89.9,44.6L92.0,45.3L93.6,46.1L96.6,48.0L97.7,49.1L98.0,49.2L98.9,50.2L101.2,53.2L103.1,56.9L103.1,57.6L103.7,59.1L104.0,61.0L104.2,61.3L104.3,62.6L104.3,65.5L103.8,69.0L102.5,72.8L101.8,74.3L101.0,75.4L100.4,76.5L98.9,78.3L97.0,80.1L95.2,81.4L94.8,81.6L94.5,81.9L92.1,83.1L88.6,84.2L86.9,84.5L86.0,84.7L84.6,84.8L25.7,84.8L24.7,85.1L24.0,85.7L23.4,86.4L19.2,90.8L19.2,91.3L81.4,91.3L82.8,91.2L85.2,91.2L88.8,90.7L89.7,90.4L90.2,90.4L92.1,89.9L93.0,89.5L94.3,89.1L94.9,88.7L95.4,88.6L95.8,88.3L96.5,88.1L99.2,86.5L102.1,84.2L104.4,81.7L106.0,79.6L107.5,77.1L108.6,74.9L109.7,71.8L109.9,70.8L110.2,69.9L110.3,68.9L110.6,67.5L110.7,65.7L110.7,62.5L110.3,59.1L110.1,58.6L109.9,57.4L108.6,53.7L108.2,53.0L107.4,51.1L106.0,48.9L104.0,46.4L101.0,43.4L98.8,41.7L98.6,41.7L96.2,40.2L92.7,38.7L90.4,38.0L87.3,37.4L82.9,37.2L63.7,37.2L43.7,36.9L43.3,36.6L43.2,36.3L43.6,35.6L44.3,35.2L49.4,35.0L56.9,35.2L71.5,35.2L74.1,35.3L85.7,35.3L89.4,35.6L91.3,36.0L94.0,36.9L96.7,38.1L98.5,39.1L100.5,40.3L101.8,41.3L102.4,41.9L102.7,42.0L105.0,44.3L107.1,46.9L108.4,50.0L109.7,51.1L110.4,52.4L110.7,53.4L111.0,54.2L112.0,57.5L112.8,62.3L112.8,66.7L112.3,69.8L111.9,71.8L111.4,73.4L110.4,76.1L110.0,76.7L109.4,78.1L107.8,80.9L107.2,81.4L106.2,82.9L104.4,84.9L101.0,87.8L100.6,88.0L99.1,89.1L97.8,89.9L96.4,90.5L95.8,90.8L94.2,91.4L93.9,91.6L92.9,91.8L92.2,92.1L91.8,92.1L90.2,92.6L88.1,93.0L85.6,93.2L71.9,93.2L64.5,93.4L57.6,93.3L41.4,93.4L16.9,93.4L16.4,93.6L11.0,99.0L10.6,99.5L10.6,99.7L10.7,99.9L68.7,99.7L81.0,99.8L84.1,99.7L85.1,99.6L86.7,99.6L88.0,99.4L89.1,99.4L91.0,98.9L92.3,98.8L93.4,98.4L93.8,98.4L96.1,97.6L96.5,97.3L97.6,97.0L98.3,96.6L99.4,96.2L99.6,96.0L100.3,95.8L100.5,95.6L101.2,95.3L101.4,95.1L101.8,95.0L103.1,94.2L104.1,93.4L105.0,92.8L106.9,91.3L109.1,89.3L109.4,88.9L111.0,87.2L113.9,83.1L114.2,82.5L114.5,82.0L115.0,81.0L115.3,80.7L116.2,78.5L116.6,77.9L116.6,77.6L117.0,76.9L117.1,76.0L117.4,75.7L117.5,75.0L117.9,74.0L118.0,73.4L118.2,73.0L118.3,71.7L118.7,70.3L118.7,69.6L119.1,67.0L119.1,61.3L118.7,59.1L118.6,58.0L118.2,55.9L118.0,55.4L117.8,54.4L117.5,53.8L117.4,52.9L117.1,52.6L116.5,50.8L116.3,50.5L116.2,50.0L114.5,46.5L112.3,43.2L110.1,40.5L108.9,39.2L105.6,36.2L103.1,34.3L99.7,32.4L95.6,30.6L94.3,30.3L93.4,29.9L89.5,29.1L85.7,28.7L79.2,28.6L76.3,28.6L54.5,28.4L52.2,28.5L44.4,28.3L43.0,28.6L41.6,29.0L40.0,29.9L37.7,32.0L37.1,32.8L36.4,34.3L36.3,34.6L36.0,35.1L35.7,36.3L35.2,37.1L34.4,37.2L32.7,37.7L32.0,38.1L31.6,38.1L30.6,38.8L29.3,40.0L27.9,41.7L27.0,43.5L26.6,44.9L25.9,45.7L24.1,46.1L23.1,46.5L21.7,47.4L20.5,48.6L19.2,50.2L18.3,52.3L18.1,53.1L17.6,54.2L17.3,54.5L16.7,54.6L16.3,54.9L15.4,55.1L14.4,55.6L13.2,56.3L11.6,57.9L10.7,59.1L10.3,59.9Z M25.7,52.8L26.3,52.8L26.6,53.1L26.6,54.1L26.4,54.4L25.9,54.6L25.0,54.5L24.8,54.3L24.9,53.6L25.2,53.1Z M33.9,52.5L34.7,52.4L35.1,52.6L35.4,52.8L35.4,53.9L35.1,54.4L34.1,54.5L33.6,54.1L33.5,53.0Z M35.5,44.2L35.5,45.4L35.3,45.6L34.0,45.7L33.7,45.4L33.7,44.9L34.2,44.2L34.9,43.9L35.3,44.0Z" fill="#000" fill-rule="evenodd"/>
</svg>