<svg xmlns="http://www.w3.org/2000/svg" viewBox="0 0 128 128" width="128" height="128">
  <path d="M12.4,30.7L11.6,32.2L11.4,32.9L10.7,34.4L9.8,37.1L9.5,39.8L9.5,41.9L9.8,44.7L10.0,45.4L10.2,46.6L10.6,47.7L11.7,50.3L12.1,50.6L12.6,51.6L13.6,53.0L16.4,56.0L19.1,57.9L22.0,59.4L25.6,60.3L29.3,60.6L37.3,60.6L39.0,60.8L39.5,61.2L39.6,61.8L39.6,67.2L39.5,67.5L39.1,67.9L38.1,68.1L26.1,67.9L24.8,68.1L23.0,68.5L21.0,69.2L17.8,71.1L15.6,72.8L13.1,75.5L12.0,76.9L11.4,78.2L11.1,78.6L10.3,80.7L10.1,81.6L9.8,82.4L9.2,86.0L9.3,89.6L10.2,93.2L11.2,95.7L12.5,97.9L13.9,99.7L15.0,100.9L16.5,102.2L19.2,104.0L20.7,104.8L23.3,105.8L26.9,106.3L30.4,106.3L31.6,106.1L34.6,105.3L37.1,104.2L39.0,103.1L41.8,100.8L43.4,98.9L44.1,97.7L44.6,97.1L45.9,94.4L46.9,91.6L47.4,87.9L47.4,77.4L47.5,76.5L47.9,76.1L49.0,76.1L50.2,76.4L52.7,77.4L54.3,78.6L55.7,79.9L56.7,81.3L57.3,82.5L58.1,84.4L58.4,86.8L58.4,88.3L58.6,90.8L59.6,93.9L60.5,96.0L61.6,97.8L63.9,100.7L66.1,102.7L67.9,103.8L69.8,104.8L71.8,105.6L75.9,106.4L80.5,106.4L81.1,106.3L82.3,106.3L87.8,105.3L93.1,103.6L93.8,103.2L95.0,102.8L97.3,101.6L97.8,101.2L98.7,100.9L99.4,100.3L100.6,99.7L102.9,98.0L106.1,95.2L107.8,93.6L109.8,91.3L112.0,88.3L114.2,84.7L115.7,81.6L115.9,80.8L116.7,79.2L116.8,78.6L117.1,78.0L117.7,75.5L117.9,75.0L118.1,73.8L118.4,73.0L119.0,68.5L119.0,60.9L118.6,58.7L118.4,56.7L118.1,55.8L117.9,54.3L117.7,53.8L117.0,51.1L116.8,51.0L116.2,48.7L113.4,43.2L111.4,40.2L110.4,38.9L110.3,38.6L108.8,36.8L106.5,34.4L102.9,31.2L102.5,31.0L101.6,30.2L99.7,29.0L95.9,26.8L91.6,25.0L89.9,24.4L89.2,24.3L88.2,23.9L86.1,23.4L85.0,23.3L84.3,23.1L81.8,22.8L73.7,22.5L51.1,22.3L47.5,22.2L45.4,22.2L40.4,22.1L33.8,22.1L29.7,21.8L26.8,21.8L24.5,22.2L24.0,22.4L22.8,22.7L21.5,23.1L18.7,24.5L16.6,25.9L13.9,28.6Z M39.0,76.0L39.4,76.4L39.6,76.9L39.6,78.8L39.6,83.5L39.5,88.2L39.3,88.6L39.1,89.9L38.6,91.5L38.4,91.7L38.1,92.4L37.3,93.8L36.1,95.3L34.7,96.5L32.7,97.6L30.1,98.4L29.3,98.4L26.8,98.4L25.8,98.2L23.8,97.5L21.9,96.5L20.5,95.3L19.4,94.0L18.1,91.8L17.4,90.0L17.1,88.2L17.1,85.9L17.6,83.4L18.1,82.4L19.1,80.7L20.1,79.4L21.0,78.5L22.8,77.2L24.0,76.6L26.4,76.0L27.8,75.8L33.6,75.8Z M19.1,35.0L20.0,33.8L21.1,32.6L23.0,31.3L25.6,30.2L27.4,29.9L36.8,29.9L42.0,30.1L43.2,30.0L60.0,30.4L77.4,30.4L78.3,30.5L82.1,30.8L84.6,31.3L85.2,31.3L86.0,31.6L87.2,31.8L87.5,32.0L88.9,32.4L90.2,33.0L91.2,33.3L91.5,33.5L92.1,33.7L92.3,34.0L92.8,34.0L93.2,34.4L94.5,34.9L95.7,35.8L96.2,35.9L99.1,38.1L103.0,41.9L104.7,44.1L107.0,47.5L107.0,47.8L108.0,49.3L109.8,53.7L111.0,58.5L111.3,61.0L111.4,61.5L111.5,66.4L111.4,68.6L110.6,72.5L109.9,74.6L109.8,75.2L108.3,79.1L107.4,80.9L106.6,82.0L105.5,84.0L104.8,84.9L104.5,85.4L102.6,87.7L101.5,88.9L96.9,92.6L95.0,94.0L94.3,94.3L93.6,94.8L92.8,95.1L92.3,95.5L91.0,95.9L90.5,96.2L89.8,96.4L89.4,96.6L88.1,97.1L87.4,97.2L86.6,97.5L85.9,97.6L85.0,97.9L83.8,98.0L82.7,98.3L81.8,98.3L80.6,98.5L76.2,98.6L74.2,98.2L72.6,97.6L70.8,96.5L69.3,95.2L68.3,94.0L67.3,92.2L66.4,89.6L65.9,83.8L65.5,82.8L65.4,81.8L64.5,79.5L62.6,76.2L61.5,74.6L59.0,72.2L56.7,70.6L54.8,69.6L52.5,68.7L51.5,68.6L50.9,68.3L49.5,68.2L49.1,68.0L48.4,68.0L47.9,67.8L47.6,67.4L47.5,67.0L47.4,61.7L47.5,61.3L47.9,60.8L48.5,60.7L62.8,60.8L65.0,60.8L66.1,61.1L66.2,61.4L65.9,61.9L61.6,66.2L60.1,67.7L59.8,68.4L59.9,68.9L60.3,69.5L63.6,72.9L64.5,73.6L65.0,73.7L65.5,73.4L70.4,68.5L72.3,66.5L74.3,64.5L74.7,64.0L80.4,58.3L81.1,57.4L81.1,56.7L71.5,46.4L70.6,45.6L67.8,42.4L66.4,41.1L65.1,40.0L64.3,40.2L62.4,42.0L62.1,42.4L60.0,44.7L59.9,45.4L66.3,52.4L66.3,52.7L66.1,52.9L55.2,53.0L48.4,52.9L47.7,52.7L47.5,52.4L47.4,50.6L47.4,34.4L47.0,33.8L46.5,33.7L41.0,33.6L40.3,33.7L40.0,33.9L39.8,34.2L39.6,36.8L39.6,50.5L39.6,52.1L39.2,52.6L38.7,52.8L29.1,52.7L26.5,52.5L24.9,52.0L22.7,51.0L21.0,49.6L19.1,47.5L18.1,45.4L17.9,44.5L17.6,43.9L17.4,42.2L17.4,39.9L17.6,38.8L18.1,37.1L18.4,36.6L18.4,36.4Z" fill="#000" fill-rule="evenodd"/>
</svg>