<svg xmlns="http://www.w3.org/2000/svg" viewBox="0 0 128 128" width="128" height="128">
  <path d="M21.8,49.9L19.6,50.5L19.1,50.9L17.9,51.3L15.9,52.5L14.8,53.3L12.9,55.3L12.5,56.0L11.7,57.0L11.5,57.5L10.6,59.0L9.6,62.3L9.4,64.9L9.6,68.4L9.8,69.1L9.9,70.0L10.9,72.6L11.8,74.2L12.7,75.4L15.5,78.2L17.8,79.7L20.8,80.9L23.6,81.4L26.0,81.4L27.7,81.2L30.5,80.4L33.0,79.2L34.8,77.9L37.4,75.3L39.4,71.9L40.2,69.5L40.5,67.0L40.5,64.4L40.4,62.8L40.0,61.3L39.4,59.5L38.8,58.4L38.6,58.1L38.5,57.7L37.4,56.0L35.9,54.3L34.5,53.0L32.8,51.9L31.0,50.9L28.1,50.0L25.9,49.6L23.9,49.6Z M24.4,53.8L24.9,53.9L25.2,54.2L25.4,55.3L25.4,62.3L25.5,63.0L25.8,63.4L26.5,63.5L33.6,59.1L34.3,59.0L34.8,59.5L34.8,59.8L34.3,60.4L31.0,62.3L30.2,63.0L27.1,64.8L26.8,65.2L26.8,65.7L27.9,66.6L28.9,67.1L30.7,68.3L34.0,70.0L35.0,70.9L34.9,71.4L34.5,71.6L33.8,71.5L30.5,69.5L28.5,68.5L26.9,67.4L25.9,67.4L25.7,67.7L25.7,76.8L25.2,77.1L24.6,77.0L24.2,76.7L24.1,67.6L23.8,67.4L23.3,67.3L22.4,67.7L17.6,70.7L16.8,71.0L16.2,71.6L15.3,71.7L14.8,71.4L14.8,70.8L15.7,70.0L16.3,69.9L16.6,69.5L17.7,69.0L21.6,66.6L22.5,65.8L22.5,65.3L21.6,64.5L20.1,63.8L19.4,63.2L18.7,63.0L17.5,62.2L15.1,60.8L14.6,60.3L14.6,60.0L14.9,59.7L15.6,59.7L19.1,61.5L20.5,62.4L21.1,62.6L22.6,63.6L23.7,63.6L23.9,63.2L23.8,54.2Z M78.7,48.7L76.9,49.0L74.9,49.5L72.2,50.7L70.5,51.8L68.8,53.2L67.0,55.3L66.0,57.1L65.0,59.1L64.4,61.4L64.1,63.1L64.2,66.8L64.7,69.3L65.2,70.2L65.3,70.8L66.5,73.3L68.6,75.9L69.8,77.0L73.0,79.1L76.0,80.3L78.6,80.7L82.4,80.6L85.6,79.8L87.8,78.7L90.1,77.2L92.1,75.1L92.4,74.6L93.7,72.9L95.2,70.0L95.9,66.6L95.9,62.8L95.4,60.4L93.9,56.9L92.5,54.7L90.0,52.2L88.3,51.1L85.2,49.5L83.3,49.0L82.0,48.8Z M79.4,52.9L80.0,52.9L80.4,53.2L80.5,53.5L80.5,56.3L80.7,59.1L80.6,62.0L80.8,62.4L81.5,62.5L82.0,62.3L88.6,58.3L89.3,58.2L90.0,58.7L90.0,59.2L89.2,59.9L84.7,62.5L84.1,63.0L82.9,63.6L81.9,64.6L81.9,64.9L82.1,65.2L82.7,65.7L85.6,67.4L86.1,67.5L86.5,67.9L86.8,68.0L89.8,69.8L90.1,70.1L90.1,70.6L89.6,70.9L88.9,70.8L81.7,66.9L81.1,67.0L80.9,67.4L81.0,76.0L80.6,76.5L80.3,76.6L79.7,76.5L79.3,76.0L79.0,67.3L78.8,66.7L78.1,66.6L77.4,67.0L75.3,68.4L74.9,68.5L74.7,68.8L73.8,69.1L73.5,69.5L71.1,70.8L70.2,70.9L69.9,70.8L69.6,70.5L69.7,70.1L71.0,69.1L75.6,66.5L77.0,65.5L77.3,65.1L77.4,64.7L76.9,64.0L74.4,62.8L73.2,62.0L69.9,60.2L69.4,59.7L69.5,59.1L70.8,59.1L77.7,63.1L78.9,63.0L79.0,62.5L78.9,53.4Z M100.4,24.2L97.5,22.3L95.2,21.2L94.5,21.0L93.1,20.2L92.3,20.0L90.7,19.3L89.4,19.0L87.1,18.2L81.8,17.5L79.0,17.3L66.9,17.5L65.0,17.4L62.7,17.6L51.7,17.7L49.0,17.8L44.1,17.8L42.9,18.0L35.2,18.1L34.5,18.4L34.5,18.7L35.0,19.0L42.9,18.9L43.5,19.1L43.8,19.4L43.9,20.0L44.4,40.3L44.3,42.2L44.5,43.1L44.4,44.3L44.7,51.5L44.6,54.5L44.7,56.0L44.8,65.9L45.0,68.1L45.0,71.6L45.2,72.6L45.3,85.5L45.5,88.8L45.8,107.7L45.7,109.5L45.2,110.1L36.2,110.3L35.8,110.4L35.8,110.7L36.0,110.9L49.7,111.0L64.8,110.6L72.3,110.6L73.8,110.4L79.0,110.4L79.8,110.2L81.3,110.2L84.6,109.9L87.9,109.3L93.2,107.7L94.9,106.8L95.2,106.8L97.1,106.0L100.1,104.3L102.6,102.5L105.1,100.3L108.1,97.2L108.7,96.2L109.7,95.1L112.5,90.7L114.0,88.0L114.8,85.6L115.7,83.8L117.3,78.6L118.4,72.3L118.7,68.3L118.9,62.3L118.5,56.3L117.6,51.0L117.0,48.5L116.6,47.6L116.6,47.2L116.2,46.0L116.1,45.3L114.7,41.5L113.2,38.3L111.4,35.7L111.1,35.0L109.2,32.7L108.7,32.3L108.4,31.7L104.6,27.7L103.4,26.8L102.8,26.1L100.9,24.7Z M82.1,18.5L83.5,18.8L84.8,19.3L85.0,19.5L85.5,19.5L87.2,20.3L88.6,21.2L90.1,22.4L94.2,26.5L96.0,29.1L96.5,30.2L97.0,30.8L97.2,31.4L98.1,32.8L99.3,35.2L100.9,40.0L101.1,41.0L101.4,42.0L101.5,43.2L101.9,44.2L102.0,46.0L102.3,47.6L102.5,50.6L102.7,51.5L102.7,54.6L102.9,56.8L103.0,59.7L102.9,72.3L102.8,73.6L102.6,78.2L102.2,82.0L101.0,88.6L100.4,90.7L99.7,92.5L99.6,93.1L98.6,95.2L98.0,96.6L96.0,100.1L94.3,102.3L92.1,104.4L90.8,105.6L90.6,105.6L89.3,106.7L88.4,107.1L88.0,107.6L87.5,107.7L86.7,108.1L85.3,108.5L80.9,109.4L73.5,109.8L61.0,109.8L60.6,109.4L60.5,109.2L60.5,103.4L60.3,101.7L60.2,91.4L59.9,79.5L59.9,70.9L59.4,56.4L59.4,48.3L59.3,46.2L59.3,44.4L59.2,42.7L59.2,37.4L59.0,36.0L59.0,30.9L58.7,25.4L58.7,19.0L59.4,18.6L60.3,18.4L68.5,18.1L77.9,18.0Z" fill="#000" fill-rule="evenodd"/>
</svg>