<svg xmlns="http://www.w3.org/2000/svg" viewBox="0 0 128 128" width="128" height="128">
  <path d="M47.2,40.1L47.7,40.8L48.1,41.0L52.6,41.0L56.2,41.7L58.1,42.4L60.4,43.1L61.5,43.3L63.6,43.3L66.0,42.8L73.0,40.7L79.5,37.7L79.9,37.4L80.0,36.9L79.1,36.3L78.5,36.2L77.7,35.7L77.0,35.5L70.7,31.7L67.3,30.0L66.7,29.9L66.3,29.7L64.2,28.9L60.4,28.8L58.5,29.3L57.0,30.0L55.0,31.3L54.3,32.0L53.6,32.5L47.7,38.9L47.3,39.5Z M57.2,31.8L57.2,32.4L56.5,33.4L56.2,34.7L56.3,37.1L56.8,38.4L57.5,39.6L57.5,39.8L57.2,40.0L56.4,40.0L55.6,39.6L54.0,39.3L51.2,39.3L49.1,39.7L48.8,39.6L48.5,39.3L48.5,39.0L48.8,38.8L49.4,38.6L50.8,37.1L51.9,35.6L53.9,33.6L56.5,31.8Z M63.8,40.6L63.8,40.4L64.3,40.0L65.5,38.5L66.1,37.4L66.4,36.0L66.3,33.9L65.8,32.5L65.1,31.6L65.1,31.3L65.3,31.0L66.1,31.0L68.0,31.9L70.6,33.2L70.9,33.5L73.6,34.9L74.8,35.7L76.8,36.8L76.9,37.3L76.7,37.5L75.1,38.3L74.8,38.3L74.2,38.7L73.6,38.8L73.0,39.1L71.0,39.8L70.0,40.0L69.4,40.2L66.4,40.8L64.2,40.9Z M9.4,12.5L9.5,13.5L10.0,13.8L11.9,14.3L13.2,14.4L19.3,15.4L20.7,15.5L21.8,15.8L22.4,16.1L22.7,16.9L22.9,18.2L22.9,20.0L23.4,23.3L23.4,25.9L23.6,26.6L23.6,28.7L23.8,30.7L23.7,32.1L24.0,36.1L24.0,45.9L23.9,56.7L24.0,66.4L24.2,73.3L24.0,75.2L24.0,78.0L24.2,78.9L24.2,79.8L24.0,80.8L23.9,91.7L23.4,98.9L23.4,100.7L23.1,102.9L23.0,105.3L22.9,106.2L22.9,107.3L22.2,112.3L21.8,114.0L21.2,114.4L18.0,114.8L11.2,115.0L10.7,115.3L10.8,115.8L11.4,116.0L18.6,116.0L22.3,116.3L37.7,116.4L43.6,116.1L52.1,116.1L53.7,116.3L59.7,116.3L62.4,116.0L63.8,116.0L67.6,115.4L72.5,114.1L76.6,112.5L77.1,112.4L78.9,111.5L79.2,111.5L80.2,110.9L80.7,110.8L84.7,108.8L87.1,107.4L87.5,107.3L87.9,106.9L91.0,104.9L94.4,102.1L98.2,98.6L102.8,93.7L103.3,92.9L104.3,91.9L105.3,90.4L105.8,90.1L108.5,86.1L109.0,84.9L111.1,81.3L111.5,80.4L111.9,80.0L112.0,79.5L112.5,78.6L113.3,76.6L113.6,75.7L114.0,75.2L114.2,74.4L114.8,73.1L115.3,71.4L115.5,70.9L116.7,67.0L117.2,64.5L117.7,62.5L118.8,55.1L118.8,49.6L118.5,45.6L117.7,41.2L116.5,36.9L114.5,32.6L111.9,28.2L109.0,24.9L105.6,21.7L103.6,20.1L101.7,18.9L101.1,18.7L100.8,18.4L98.5,17.2L96.4,16.3L92.3,14.9L91.1,14.8L88.0,13.9L85.6,13.7L84.8,13.4L82.0,13.1L80.1,12.7L72.1,12.2L66.6,12.2L60.2,12.5L59.3,12.6L56.4,12.7L53.6,13.1L48.6,13.3L44.0,13.7L29.8,13.8L23.3,13.6L19.1,13.1L18.0,13.1L16.5,12.7L15.0,12.7L10.6,12.0L10.0,12.0Z M36.5,52.2L37.8,52.2L38.6,52.6L39.1,53.0L39.8,54.4L39.7,55.8L39.2,56.7L38.9,57.1L38.0,57.5L36.7,57.5L35.7,57.1L35.2,56.6L34.4,55.2L34.4,54.1L34.7,53.4L35.4,52.6Z M68.6,15.7L72.1,16.7L73.2,16.9L74.3,17.3L74.9,17.4L75.4,17.7L76.1,17.9L79.8,19.6L82.7,21.5L85.0,23.3L88.2,26.5L90.5,29.7L92.6,33.8L93.8,37.2L94.6,40.1L95.0,43.9L95.2,44.2L95.4,45.2L95.6,48.1L95.9,49.4L96.0,53.3L96.0,58.7L95.9,59.8L95.9,62.4L95.1,67.5L95.1,68.4L93.4,77.7L92.4,80.7L92.1,82.1L91.8,82.5L91.8,83.0L90.8,85.6L90.8,86.0L90.3,87.0L89.6,88.9L89.2,89.4L89.2,89.8L88.7,90.6L88.2,92.0L87.2,93.9L87.2,94.2L86.2,95.8L85.5,97.3L84.6,98.4L83.9,99.5L83.6,99.7L83.3,100.5L82.9,100.7L81.7,102.4L79.1,105.1L76.7,106.9L75.5,108.0L71.0,110.8L65.7,113.0L64.0,113.3L63.1,113.7L59.9,114.3L59.2,114.5L58.3,114.5L56.3,114.9L54.2,115.1L50.0,114.9L46.9,114.3L45.0,113.8L44.0,112.9L43.5,111.8L43.4,110.3L43.6,108.6L44.1,107.5L45.3,106.3L46.8,105.2L47.3,104.5L47.2,104.0L45.2,104.0L44.1,103.5L43.5,102.8L43.2,101.9L42.8,100.4L42.8,99.4L43.1,98.5L43.8,97.7L44.8,97.1L46.7,97.0L47.7,96.7L48.5,96.7L50.2,96.0L51.4,94.8L52.0,93.7L52.0,92.5L51.6,92.2L51.1,92.2L48.5,93.4L46.8,93.8L45.6,93.8L44.7,93.6L43.6,92.6L43.3,92.0L42.8,90.2L42.8,88.2L43.3,87.0L43.7,86.5L44.9,86.2L46.5,86.3L48.6,86.1L49.6,85.7L50.7,84.9L51.4,83.4L51.3,81.9L50.8,81.0L50.2,80.7L46.8,80.7L43.2,81.1L41.3,81.1L41.2,80.9L40.8,79.8L40.5,71.7L40.5,60.1L40.6,56.4L40.8,54.8L40.7,50.9L41.0,44.7L41.1,37.6L41.5,30.6L41.5,22.4L41.7,21.6L41.7,19.7L42.0,16.4L42.4,15.7L43.0,15.5L49.2,15.3L57.1,14.9L63.0,14.9L65.7,15.2L66.2,15.4L67.0,15.4L67.9,15.7Z" fill="#000" fill-rule="evenodd"/>
</svg>