<svg xmlns="http://www.w3.org/2000/svg" viewBox="0 0 128 128" width="128" height="128">
  <path d="M40.0,86.1L39.5,87.6L39.6,89.2L40.3,90.9L40.7,91.3L41.7,92.0L47.0,94.4L55.3,98.6L58.3,99.8L59.2,100.0L61.2,99.9L62.7,99.3L63.7,98.1L64.1,96.8L64.1,95.3L64.0,94.8L63.3,93.3L62.6,92.5L61.8,91.9L59.3,90.5L58.8,90.4L58.2,90.1L57.6,89.9L57.3,89.6L56.7,89.4L56.1,89.0L53.4,87.8L52.5,87.2L50.4,86.3L48.9,85.5L48.2,85.3L44.9,84.0L43.5,83.9L42.3,84.2L41.0,84.9Z M81.6,35.6L80.5,35.4L79.5,35.0L76.9,34.9L76.2,34.7L67.4,34.8L65.6,35.0L61.7,35.0L59.3,36.2L58.5,36.9L57.4,37.4L57.1,37.8L52.3,40.5L50.9,41.5L47.7,43.3L46.8,44.0L46.6,44.4L46.6,48.3L46.7,48.9L47.1,69.8L47.3,70.9L47.4,73.3L47.4,82.4L47.6,83.3L48.0,83.9L50.6,84.9L55.4,87.3L57.4,88.2L58.6,88.6L58.9,88.9L60.1,89.5L60.6,89.6L64.4,91.6L65.4,91.8L71.9,91.7L74.8,91.4L77.4,91.5L80.8,90.9L84.7,89.7L86.6,88.9L89.3,87.4L91.4,86.1L93.1,84.7L95.2,82.5L97.4,79.8L99.0,77.0L99.1,76.6L99.4,76.4L100.6,73.7L101.0,72.0L101.5,71.1L101.5,70.6L102.2,67.3L102.5,65.4L102.5,61.9L102.0,58.1L101.3,55.0L99.5,50.5L98.3,48.3L98.0,48.0L97.8,47.5L96.0,45.1L93.3,42.2L91.1,40.3L88.2,38.3L84.3,36.5Z M87.8,47.9L89.4,49.5L91.7,52.5L92.0,53.4L92.4,53.9L93.9,57.8L94.7,61.6L94.6,65.3L93.9,68.8L93.4,70.0L93.2,70.8L92.2,72.9L91.8,73.5L91.6,74.0L91.0,75.0L89.7,76.6L87.8,78.5L84.7,80.7L82.6,81.8L79.6,82.8L76.8,83.3L71.8,83.4L71.0,83.6L67.8,83.5L66.2,83.6L65.5,83.8L63.5,83.6L63.0,83.8L61.0,83.8L59.9,83.6L57.2,83.8L56.4,83.5L56.0,83.0L56.0,82.4L55.7,81.7L55.8,77.7L55.5,75.1L55.6,72.4L55.4,70.9L55.3,63.3L55.2,59.8L55.3,57.2L55.1,56.2L55.1,51.7L54.9,49.0L54.9,44.2L55.2,43.6L55.4,43.3L56.1,43.1L58.1,42.9L75.0,42.8L75.9,42.7L77.5,43.0L78.6,43.0L82.0,44.1L84.1,45.2L86.2,46.6L87.5,47.8Z M61.4,27.8L59.9,26.5L59.2,26.3L57.6,26.3L56.8,26.5L56.3,26.5L55.3,27.0L53.1,28.4L50.6,29.8L47.9,31.7L46.6,32.4L46.3,32.8L40.7,36.2L39.9,37.0L39.3,38.7L39.3,40.1L39.8,41.5L40.9,42.7L42.0,43.4L43.0,43.6L44.8,43.5L48.5,41.6L49.4,40.8L51.5,39.8L53.2,38.7L53.9,38.4L55.3,37.3L55.9,37.1L58.2,35.6L59.8,34.8L61.1,33.6L62.0,32.2L62.2,31.2L62.1,29.2Z M116.0,11.3L115.3,11.0L107.6,11.1L105.5,11.3L103.1,11.2L92.0,11.5L91.0,11.4L76.5,11.6L74.6,11.8L70.8,11.7L68.5,11.8L59.3,11.8L52.8,12.1L36.6,12.1L33.1,12.4L13.9,12.3L10.3,12.4L9.6,12.8L9.4,13.3L9.4,13.8L9.6,14.7L9.7,24.4L9.9,25.0L10.2,44.7L10.5,47.7L10.4,51.4L10.7,58.7L10.6,61.3L10.8,62.1L10.9,63.9L10.8,68.4L10.9,71.0L11.0,72.2L11.0,80.0L11.3,86.5L11.4,94.8L11.6,96.7L11.5,99.9L11.7,101.7L11.7,106.1L11.8,108.4L11.8,113.4L12.0,114.8L11.9,116.2L12.4,116.7L14.2,117.0L18.6,117.1L34.0,117.1L82.5,117.2L95.0,117.1L118.1,117.1L118.7,116.6L118.9,116.2L118.9,113.7L118.7,111.5L118.8,109.5L118.5,103.9L118.3,95.4L118.1,94.8L118.2,92.4L118.0,86.9L118.1,80.4L117.9,79.8L117.8,77.3L117.6,76.2L117.6,57.7L117.4,56.8L117.2,52.9L117.2,42.9L117.0,41.5L117.1,38.7L116.9,36.7L116.9,30.6L116.7,29.4L116.7,26.8L116.5,25.3L116.6,18.7L116.3,14.7L116.4,12.8L116.3,11.8Z M107.5,20.5L107.8,20.8L108.1,21.6L108.1,26.6L108.3,29.0L108.3,32.3L108.4,33.6L108.6,46.3L108.8,47.1L108.9,51.2L108.8,54.5L109.0,55.8L108.9,58.2L109.1,60.1L109.4,76.8L109.6,78.2L109.5,81.4L109.7,83.3L109.8,87.2L109.7,90.1L109.9,91.5L109.9,94.7L110.2,98.8L110.1,101.6L110.4,102.7L110.3,107.0L110.1,107.5L109.7,107.7L108.9,107.9L101.5,108.1L99.5,107.9L91.9,108.1L86.8,107.9L66.4,108.0L57.5,107.7L57.0,107.5L56.6,107.2L56.5,106.8L56.3,100.8L55.9,100.1L42.8,93.6L38.1,91.6L30.6,91.5L29.6,91.7L27.4,91.6L27.1,91.8L26.9,92.7L27.0,98.6L27.1,99.5L27.4,100.0L27.9,100.2L36.4,100.2L41.0,100.0L45.8,100.0L47.3,100.2L47.8,100.7L48.0,101.7L48.0,107.2L47.5,107.6L46.2,107.8L21.6,108.0L20.9,107.8L20.5,107.4L20.4,99.7L20.2,98.8L20.3,96.7L20.0,95.1L20.1,90.5L19.9,88.3L19.6,69.7L19.5,68.7L19.5,58.5L18.8,40.2L18.9,38.2L18.7,30.2L18.6,28.5L18.6,22.3L18.7,21.5L19.2,21.1L20.3,20.8L32.9,20.8L37.9,20.7L38.6,20.5L39.8,20.5L41.5,20.7L44.7,20.6L45.5,20.9L45.8,21.4L46.0,22.3L46.0,26.3L45.6,26.5L44.9,26.7L42.7,26.7L41.8,26.9L30.1,26.9L28.4,27.1L25.7,27.1L25.1,27.7L25.1,34.8L25.2,35.1L25.4,35.4L26.0,35.6L35.1,35.4L39.1,35.5L39.8,35.2L42.5,33.7L44.7,32.1L46.5,31.2L47.7,30.2L49.7,29.2L52.7,27.2L53.2,26.7L54.2,26.2L54.5,25.6L54.6,24.9L54.4,23.2L54.5,21.5L54.9,20.9L55.6,20.5L63.3,20.4L67.2,20.5L71.6,20.4L82.8,20.4L87.1,20.2L102.8,20.2L106.3,20.3Z" fill="#000" fill-rule="evenodd"/>
</svg>