<svg xmlns="http://www.w3.org/2000/svg" viewBox="0 0 128 128" width="128" height="128">
  <path d="M117.7,12.5L117.3,12.1L116.8,12.0L96.8,11.9L95.4,12.0L64.9,12.0L61.5,12.2L58.4,12.1L50.1,12.4L45.4,12.3L32.8,12.6L14.8,12.5L13.6,12.7L11.3,12.6L10.2,12.9L9.7,13.4L9.5,14.2L9.5,39.0L9.7,46.3L9.5,48.8L9.7,53.1L9.7,65.8L9.8,67.5L9.7,71.3L9.8,72.6L9.7,78.9L9.9,79.8L9.9,93.5L10.1,95.1L9.9,97.0L10.2,99.5L10.2,109.7L10.4,111.1L10.4,115.2L10.6,116.0L11.3,116.4L16.0,116.1L21.0,116.4L22.8,116.2L31.6,116.3L32.3,116.1L33.9,116.1L35.2,116.3L40.6,116.3L42.0,116.1L44.1,116.3L53.3,116.3L53.8,116.1L57.2,116.2L61.4,116.0L64.7,116.3L67.6,116.2L69.3,116.0L75.9,116.0L78.2,115.9L81.8,116.0L83.3,115.8L85.8,115.8L87.3,116.0L90.1,115.8L96.7,115.8L98.4,115.6L105.1,115.7L106.5,115.5L114.3,115.6L115.3,115.4L116.9,115.5L118.3,115.2L118.7,114.4L118.6,112.1L118.8,110.1L118.8,106.7L118.6,105.4L118.7,95.8L118.5,95.0L118.5,92.7L118.7,91.4L118.5,86.5L118.6,81.0L118.4,79.3L118.6,78.0L118.6,69.4L118.3,68.5L118.3,64.8L118.5,63.7L118.5,57.2L118.3,56.5L118.3,31.4L118.2,29.8L118.3,22.7L118.1,18.8L118.2,17.5L118.0,16.6L118.1,14.4L118.0,13.3Z M25.8,95.3L26.0,95.1L26.8,95.1L27.0,95.2L27.0,95.5L26.2,95.6Z M55.5,94.6L56.0,94.3L56.6,94.3L58.8,95.2L59.6,95.8L61.0,97.1L61.2,97.1L64.1,99.7L67.1,101.7L67.6,101.9L68.2,102.3L68.2,102.5L67.5,103.0L67.1,103.0L66.5,103.3L64.7,103.5L63.3,103.4L61.4,102.7L59.9,101.7L58.3,100.1L58.2,99.7L56.2,96.9L55.4,95.1Z M60.9,94.5L61.3,94.2L63.2,94.1L64.4,94.3L65.6,94.9L66.7,95.2L68.5,96.1L70.2,96.8L73.4,98.3L74.3,98.5L74.9,98.9L76.4,99.2L77.0,99.8L76.4,100.4L73.0,101.7L71.3,101.7L68.7,100.9L66.4,99.6L63.3,97.3L60.9,95.0Z M67.6,93.7L68.3,93.1L69.3,93.0L69.8,92.8L73.2,92.8L76.4,93.4L78.8,93.6L79.9,93.9L84.3,94.3L84.6,94.6L84.6,95.0L83.4,96.3L81.6,97.3L79.7,97.9L78.5,98.0L76.2,97.6L73.2,96.3L71.8,96.0L70.2,95.1L69.3,94.9L68.8,94.5L68.3,94.3Z M48.6,91.8L49.5,91.8L50.4,92.2L52.2,93.8L54.4,97.0L55.9,98.8L57.0,100.5L59.5,103.2L59.5,103.4L59.3,103.6L57.8,103.7L57.2,103.5L56.1,103.3L53.8,102.0L52.8,101.0L51.7,99.6L51.4,98.8L50.4,97.6L49.7,96.3L48.9,94.1L48.8,93.1L48.4,92.3L48.4,92.1Z M24.3,89.1L24.6,88.8L25.2,88.7L25.9,88.9L26.8,89.4L27.3,89.5L32.3,92.2L34.2,93.5L35.1,94.0L36.2,94.3L36.9,94.9L36.9,95.1L36.6,95.4L35.9,95.6L35.3,95.9L34.1,95.9L33.5,95.8L31.4,95.6L27.1,93.4L25.5,92.9L24.8,92.6L24.3,91.8Z M47.7,88.7L48.1,88.4L48.9,88.3L49.2,88.4L49.4,89.0L49.0,89.3L48.5,89.4L48.1,89.3L47.7,88.9Z M92.0,88.0L92.0,88.3L91.2,89.9L89.6,91.4L87.9,92.3L85.8,92.8L83.2,92.8L79.8,92.6L79.5,92.4L76.3,91.8L75.0,91.2L75.0,90.9L75.7,90.3L77.7,89.5L79.6,88.9L81.3,88.6L82.8,88.6L83.9,88.3L87.3,88.2L90.4,87.7L91.8,87.7Z M28.9,88.0L29.2,87.8L29.9,87.6L31.9,87.6L33.1,87.8L34.6,88.3L35.5,89.2L35.7,91.0L35.6,91.9L34.8,92.0L33.5,91.4L31.4,89.9L30.1,89.4L29.0,88.4Z M43.9,86.7L44.7,86.7L45.8,88.3L46.5,90.2L47.2,93.6L47.6,94.4L48.4,97.1L50.6,101.0L50.6,101.5L50.3,101.8L48.6,101.9L47.7,101.6L46.4,100.8L44.5,99.0L43.5,97.0L43.2,95.9L43.2,94.3L42.9,92.1L43.1,90.9L43.2,88.3L43.6,87.7L43.7,87.0Z M54.5,80.9L54.3,82.1L53.8,82.7L53.1,83.9L51.5,85.5L50.0,86.4L49.7,86.4L48.3,87.0L47.2,87.0L46.2,86.3L45.5,85.1L45.5,84.3L46.5,83.6L51.4,81.8L53.4,80.6L54.2,80.6Z M42.9,79.7L43.4,80.0L43.4,83.2L43.0,84.4L42.5,87.2L42.2,88.0L41.9,89.3L41.8,95.0L42.0,95.9L41.7,96.2L40.9,96.2L40.5,96.0L39.2,94.7L37.5,92.1L36.9,90.3L36.9,88.0L37.9,84.8L38.5,83.7L39.8,82.2L40.0,81.8L40.7,81.0L42.2,79.9Z M97.5,79.7L97.2,80.9L96.6,81.8L95.9,83.2L94.4,84.4L93.8,85.0L91.8,86.1L88.8,86.5L85.1,86.6L83.8,86.9L82.2,86.8L81.6,86.5L81.7,86.1L83.2,84.9L86.5,83.2L88.5,82.6L89.5,81.9L91.1,81.6L93.7,80.4L94.7,80.3L96.6,79.3L97.1,79.4Z M44.4,73.0L44.6,73.2L44.4,75.5L43.8,76.5L38.8,81.2L38.3,82.0L37.0,83.5L36.3,84.9L36.2,85.3L36.0,85.6L35.4,85.6L35.0,85.4L34.3,84.0L34.1,81.9L34.3,80.5L34.7,79.1L35.9,77.2L37.6,75.6L40.1,74.2L40.7,74.1L42.4,73.3L43.9,72.9Z M100.1,71.0L100.2,72.4L99.5,74.4L98.4,76.0L97.8,76.7L96.6,77.4L95.8,78.2L94.7,78.7L90.3,80.3L88.3,80.8L87.1,81.3L86.3,81.2L86.2,80.6L86.7,80.1L87.0,79.3L88.2,77.9L89.8,76.7L91.3,75.7L93.7,74.5L94.4,74.0L96.8,72.5L97.0,72.3L98.1,71.9L99.2,70.8L99.8,70.7Z M53.6,68.6L54.2,69.2L54.7,69.9L55.3,71.6L55.5,72.8L55.4,74.9L55.2,75.8L54.5,77.7L53.0,79.4L51.4,80.3L50.6,80.5L49.0,81.4L48.2,81.7L47.8,81.7L46.4,82.1L45.4,82.1L44.8,81.6L44.8,80.7L45.3,79.9L47.7,77.7L48.1,77.5L50.2,75.5L51.5,73.4L52.4,71.2L52.8,69.1L53.1,68.6Z M41.9,68.6L43.4,70.9L43.4,71.3L43.0,71.7L41.8,72.4L40.7,72.6L40.3,72.9L39.6,73.1L38.3,74.0L37.2,74.4L36.1,75.4L34.3,76.6L33.7,76.4L33.5,75.7L34.3,73.5L35.4,71.6L37.4,69.6L39.2,68.6L40.7,68.1L41.4,68.2Z M40.7,65.6L40.8,66.2L40.2,66.8L38.7,67.0L38.2,66.7L38.3,66.3L39.3,65.2L40.2,65.1Z M100.6,62.0L100.9,62.5L100.9,64.7L100.5,65.3L100.4,66.7L100.0,67.3L99.8,67.9L99.0,69.2L97.7,70.4L95.3,72.0L94.4,72.5L93.9,72.9L92.6,73.6L92.3,73.6L91.0,74.3L90.2,74.3L89.9,74.1L90.0,73.3L91.2,71.3L92.0,70.3L95.1,67.4L95.3,67.0L99.0,63.3L99.5,62.5L99.8,62.1Z M48.2,60.0L49.7,61.5L50.5,63.2L50.9,63.7L51.5,65.3L51.7,68.0L51.6,69.8L51.3,71.0L50.3,73.1L49.3,74.7L47.4,76.4L46.6,76.5L46.3,76.4L45.9,75.8L45.7,74.8L45.7,73.2L45.9,72.1L46.2,71.6L46.2,70.8L46.5,70.0L46.7,68.1L47.0,66.5L47.1,64.5L47.6,61.5L47.5,60.4L47.8,60.1Z M53.4,56.1L53.8,56.5L53.7,58.2L53.3,59.5L52.5,61.1L52.0,61.4L51.5,61.4L50.6,60.6L50.0,59.4L49.9,58.8L53.0,56.1Z M43.7,52.9L44.1,53.0L44.7,53.6L45.4,55.0L46.3,58.9L46.3,62.4L45.9,66.3L45.5,67.5L45.3,69.4L44.9,69.9L44.4,69.9L44.1,69.7L43.2,68.4L42.0,65.6L41.4,63.0L41.3,60.0L41.7,58.5L41.7,57.7L42.8,53.8L43.0,53.4Z M99.4,52.4L99.7,52.7L99.8,53.1L100.3,53.8L100.7,55.8L100.6,57.2L99.9,59.3L99.1,61.0L95.3,65.3L93.0,67.3L92.5,67.9L91.9,67.9L91.6,67.6L91.8,66.1L93.2,63.2L93.3,62.8L94.3,61.3L95.5,58.8L96.4,57.8L96.5,57.2L96.9,56.7L97.6,55.1L98.1,54.3L98.5,52.7L98.9,52.4Z M42.1,46.0L42.4,46.1L42.9,46.5L43.4,47.4L43.4,49.7L43.1,50.7L41.9,52.7L41.7,53.8L40.7,55.7L40.7,56.7L40.4,57.7L39.9,61.7L39.7,61.8L39.4,61.8L37.9,60.3L37.2,58.2L36.9,56.4L37.0,53.1L37.7,50.7L38.9,48.8L40.1,47.6L40.7,46.6L41.2,46.2Z M53.3,44.4L54.3,45.8L54.7,47.0L54.8,48.3L54.8,49.6L54.1,52.1L53.5,53.4L52.3,54.9L50.0,57.0L49.2,57.5L48.5,57.6L48.1,57.4L47.3,56.7L46.9,55.9L46.9,54.1L48.7,52.1L49.4,50.8L50.7,49.0L52.2,46.0L52.4,44.6L52.7,44.4Z M95.1,43.3L95.7,43.7L97.1,45.7L97.4,46.3L97.8,48.6L97.6,51.5L97.4,52.3L97.2,52.4L97.1,53.2L95.4,56.8L94.4,58.2L93.3,60.2L92.7,60.8L92.3,60.8L91.9,60.3L91.7,58.6L92.0,54.9L92.7,53.3L92.9,51.5L93.8,49.2L94.0,47.2L94.3,46.0L94.3,43.6L94.5,43.4Z M39.6,40.7L40.2,41.4L40.7,42.9L41.3,43.7L41.3,44.3L40.8,44.9L38.3,47.4L37.6,48.6L37.2,49.2L36.6,50.6L36.0,51.7L35.7,52.0L35.3,52.0L34.8,51.5L34.5,49.6L34.5,47.7L35.1,45.7L36.2,43.5L36.9,42.7L38.6,41.0L39.1,40.7Z M37.3,39.3L37.6,39.7L37.6,40.2L36.1,41.9L35.4,42.2L35.1,41.9L35.4,40.2L35.8,39.5L36.2,39.2Z M88.4,36.2L88.9,36.3L89.7,36.8L90.8,37.9L91.5,38.9L92.5,41.5L92.9,43.7L93.0,46.8L92.5,48.0L92.4,49.2L92.1,49.7L91.9,51.1L91.4,52.5L91.4,53.3L90.8,54.0L90.4,54.0L89.9,53.6L89.0,51.8L88.7,50.0L88.7,41.1L88.5,40.4L88.5,38.5L88.0,36.9L88.0,36.5Z M45.0,32.4L45.8,32.6L47.2,33.4L48.4,34.4L48.5,34.8L49.3,35.5L50.1,36.8L50.2,37.5L50.9,39.4L51.1,40.7L51.2,43.3L50.9,44.8L50.1,47.1L48.8,49.7L47.0,51.7L46.5,51.7L46.1,51.3L45.9,50.1L45.9,48.7L46.3,47.6L46.3,46.8L46.7,45.3L46.6,43.9L46.9,42.1L46.9,41.1L46.5,38.4L46.2,37.5L46.1,36.2L45.7,35.2L44.4,33.0L44.4,32.7Z M26.2,31.7L26.6,31.4L27.3,31.4L28.9,32.3L30.6,33.9L31.7,35.3L31.7,35.8L31.5,36.0L29.3,35.9L27.6,35.4L26.8,35.0L26.3,34.5L26.0,33.6L26.0,32.3Z M80.1,30.9L81.1,30.9L83.1,32.1L85.1,34.0L86.3,36.2L86.7,37.3L87.0,40.1L87.3,41.5L87.3,46.1L87.2,46.3L86.8,46.6L86.2,46.5L85.5,45.9L83.8,42.7L82.7,39.8L82.2,37.1L80.8,34.1L80.3,32.2L79.8,31.3Z M44.8,30.5L45.4,30.0L46.4,29.7L48.8,29.7L50.2,30.2L51.0,30.3L52.9,31.0L54.8,32.1L57.9,33.9L58.2,34.2L58.2,34.5L57.0,35.3L55.5,35.5L53.3,35.4L51.1,34.9L50.5,34.6L47.6,32.0L46.2,31.1L45.0,30.7Z M35.7,28.5L36.4,28.5L37.3,28.8L38.2,28.9L39.7,29.6L41.6,31.3L42.6,32.5L43.7,34.2L44.6,36.4L45.2,38.4L45.2,40.6L45.4,41.5L45.4,42.5L45.1,43.9L45.1,44.9L44.9,45.3L44.2,45.3L43.7,44.8L43.5,44.4L42.6,43.4L42.5,43.1L41.9,42.2L40.6,39.1L40.4,38.1L40.0,37.4L39.4,35.5L38.4,33.7L37.6,31.7L36.3,30.0L35.4,29.1L35.4,28.8Z M28.0,27.8L28.5,27.5L29.6,27.5L30.4,27.6L32.1,28.4L33.6,29.3L35.3,31.0L36.6,32.7L37.4,34.3L37.7,34.8L38.3,36.8L38.7,37.5L38.6,38.1L37.6,38.1L34.1,35.9L33.1,35.0L32.6,34.1L28.0,29.7L27.8,29.3Z M69.9,26.8L71.4,26.8L73.0,27.3L74.2,27.8L75.9,29.0L77.9,31.1L78.9,32.7L80.0,35.3L81.7,40.5L81.7,41.0L81.5,41.2L80.7,41.2L79.1,40.3L77.3,38.6L76.0,36.8L75.0,34.8L74.5,34.0L73.3,31.7L71.5,29.4L70.7,28.2L69.8,27.4L69.7,27.0Z M50.4,28.0L51.6,27.3L53.2,26.8L55.9,26.8L56.5,27.1L57.6,27.3L59.8,28.4L60.9,29.4L62.5,30.6L66.5,34.5L66.7,35.1L66.2,35.4L64.0,35.5L62.4,35.0L61.8,34.5L61.5,34.5L60.8,34.1L56.8,31.5L55.9,31.1L53.3,29.7L50.7,28.7L50.4,28.4Z M60.2,26.4L60.8,26.0L61.2,26.0L63.7,26.0L65.0,26.3L65.9,26.7L68.0,27.9L70.1,29.8L71.8,32.0L73.9,35.4L74.2,36.3L74.7,37.0L74.6,37.5L73.5,37.5L70.6,36.5L68.4,34.6L66.1,32.0L62.4,28.3L61.2,27.5L60.6,27.2L60.2,26.8Z" fill="#000" fill-rule="evenodd"/>
</svg>