<svg xmlns="http://www.w3.org/2000/svg" viewBox="0 0 128 128" width="128" height="128">
  <path d="M10.5,22.7L9.7,22.9L9.4,23.3L9.2,24.0L9.4,39.4L9.3,44.8L9.4,47.5L9.4,54.7L9.5,58.3L9.4,68.2L9.6,72.9L9.6,85.7L9.8,89.0L9.7,94.7L9.8,95.4L9.9,102.4L10.2,104.9L10.3,105.2L10.7,105.5L12.7,105.6L15.4,105.2L16.9,105.2L17.8,104.8L19.9,104.4L20.8,104.0L23.3,103.4L27.6,101.6L30.0,100.4L30.9,99.6L31.7,99.2L34.1,97.6L34.5,97.1L35.0,96.8L39.6,92.5L40.5,91.3L42.0,89.6L44.3,86.1L44.3,85.9L44.8,85.4L45.4,84.0L45.9,83.4L47.4,80.2L48.0,78.2L48.6,76.8L48.7,76.1L49.0,75.3L49.8,72.5L50.5,67.8L50.7,63.6L50.6,60.6L50.4,60.1L50.3,58.5L50.0,57.2L49.9,56.1L49.3,53.9L48.7,51.4L47.9,49.1L47.5,48.5L47.1,47.1L45.8,44.3L44.9,42.8L44.4,41.8L44.1,41.4L42.6,39.1L39.1,34.9L35.3,31.3L34.2,30.7L32.2,29.1L30.1,27.8L28.9,27.2L28.3,26.8L26.2,25.9L25.7,25.6L22.1,24.2L17.9,23.2L14.5,22.8Z M89.1,22.6L87.0,22.8L84.9,23.2L84.3,23.2L83.5,23.4L82.4,23.5L81.5,23.8L80.8,23.9L79.3,24.5L78.5,24.7L78.2,24.9L77.7,25.0L73.4,27.1L72.9,27.6L71.6,28.1L70.4,29.1L69.2,29.8L68.1,30.8L67.2,31.3L66.0,32.6L64.7,33.7L63.6,35.0L63.0,35.6L61.4,37.6L61.1,38.2L60.2,39.3L59.6,40.4L59.1,40.9L57.5,43.9L57.1,44.5L55.1,49.4L55.0,50.0L54.5,51.1L53.9,53.5L53.6,54.3L53.5,55.2L53.1,56.7L53.1,57.9L52.7,59.3L52.7,61.1L52.6,62.0L52.6,65.6L52.9,67.3L53.0,68.9L54.3,74.8L54.9,76.9L55.5,78.3L55.7,79.0L56.5,80.6L56.7,81.4L58.2,84.3L58.6,84.8L59.3,86.2L60.0,87.0L60.4,87.9L63.2,91.5L65.3,93.7L66.4,94.6L67.9,96.0L69.3,96.9L70.9,98.2L73.3,99.6L73.7,99.9L74.2,100.0L76.6,101.2L78.0,101.7L78.6,101.8L79.5,102.2L81.4,102.7L83.6,103.1L85.0,103.2L86.3,103.5L87.6,103.6L88.2,103.7L93.3,103.8L96.9,103.4L97.5,103.2L98.4,103.0L99.2,102.7L101.6,102.1L102.2,101.8L103.2,101.6L103.3,101.4L105.3,100.7L105.8,100.4L107.1,99.9L107.5,99.6L108.9,98.9L109.8,98.3L110.5,98.0L110.5,97.6L109.6,97.6L107.5,98.4L105.7,98.6L104.9,98.8L99.3,99.0L95.9,98.4L94.9,98.0L94.4,98.0L92.7,97.5L92.5,97.3L90.4,96.6L89.3,95.9L88.6,95.7L85.0,93.2L82.9,91.5L81.8,90.4L79.1,87.1L78.3,85.8L78.2,85.5L77.8,85.0L76.5,82.5L75.6,79.9L75.2,79.1L74.9,76.9L74.7,76.7L74.2,73.1L74.4,68.5L74.6,67.4L74.7,66.2L74.9,65.6L75.1,64.5L75.8,62.9L75.8,62.7L76.1,62.4L76.6,60.8L78.2,58.4L79.5,57.0L81.7,55.1L83.8,53.9L85.7,53.2L87.0,53.1L88.3,52.7L90.9,52.8L91.5,53.1L92.5,53.2L93.8,53.8L95.6,55.1L96.6,55.9L97.7,57.4L98.1,58.2L98.8,60.4L99.0,61.6L98.9,63.5L98.6,64.2L98.5,64.8L98.0,66.2L97.2,67.5L96.4,68.2L94.5,69.4L92.7,69.9L91.2,69.9L89.5,69.3L89.1,69.3L88.8,69.5L88.8,69.7L89.9,71.0L91.3,72.2L93.6,73.5L94.3,73.7L94.7,73.9L97.0,74.5L99.2,74.8L100.9,74.8L102.8,74.5L106.4,73.3L109.8,71.3L111.8,69.7L113.3,68.3L115.2,65.8L116.5,63.8L116.6,63.3L117.0,62.8L118.4,58.3L119.0,54.4L119.0,50.9L118.8,49.6L118.8,47.8L118.5,45.4L117.8,42.8L117.5,42.5L117.0,40.7L116.4,39.1L116.2,38.8L116.0,38.1L114.1,34.9L113.5,34.2L113.3,33.7L112.0,32.1L110.2,30.2L107.1,27.6L106.1,27.2L105.6,26.7L104.7,26.3L104.4,26.0L103.8,25.9L103.6,25.6L102.4,25.1L100.6,24.4L100.0,24.1L99.7,24.1L98.2,23.6L96.7,23.4L96.3,23.2L95.3,23.2L93.5,22.8L91.5,22.6Z M53.9,60.0L54.1,59.7L54.4,59.7L54.6,59.9L54.3,60.2L54.1,60.2Z" fill="#000" fill-rule="evenodd"/>
</svg>