<svg xmlns="http://www.w3.org/2000/svg" viewBox="0 0 128 128" width="128" height="128">
  <path d="M119.0,63.2L118.8,62.9L118.1,62.2L116.7,61.1L114.3,59.0L109.6,55.3L105.9,52.0L105.3,51.7L101.6,48.5L100.5,47.7L96.6,44.3L95.2,43.3L93.6,41.8L89.3,38.4L88.7,37.7L87.9,37.2L85.1,34.8L84.9,34.7L80.3,30.7L78.4,29.2L76.8,27.7L76.0,27.1L73.9,25.2L72.8,24.4L71.2,23.0L68.4,20.8L65.7,18.3L65.0,17.8L64.5,17.8L64.3,18.0L64.2,18.9L64.5,62.4L64.4,62.7L64.1,63.0L63.6,62.9L62.3,62.0L59.4,59.3L58.6,58.8L57.7,57.9L51.6,53.0L50.4,51.9L50.1,51.8L49.8,51.4L48.3,50.3L47.3,49.3L39.4,42.8L38.4,41.9L37.8,41.5L31.5,35.9L31.2,35.9L29.5,34.3L27.9,33.1L10.2,18.3L9.5,18.2L9.3,18.5L9.5,37.9L9.7,39.8L9.7,46.0L10.0,56.0L9.9,58.5L10.1,71.1L10.2,89.6L10.5,104.1L10.4,106.1L10.6,109.2L10.5,109.9L10.8,110.4L11.3,110.4L12.1,109.9L18.1,104.6L19.6,103.4L23.7,99.7L24.7,98.9L25.1,98.5L25.8,98.0L27.7,96.2L29.1,95.1L29.5,94.7L31.3,93.2L32.0,92.4L32.3,92.2L37.1,88.2L50.1,76.5L50.4,76.5L54.6,72.6L54.9,72.5L55.8,71.5L57.9,69.8L61.7,66.4L63.3,65.0L63.9,64.8L64.2,64.8L64.4,64.9L64.6,70.4L64.6,86.0L64.8,109.3L65.0,110.1L65.1,110.3L65.7,110.2L66.3,109.8L68.4,107.8L70.6,106.1L71.6,105.1L71.9,104.9L72.8,104.1L73.0,104.0L73.8,103.2L76.7,100.9L77.2,100.3L83.0,95.3L84.6,93.7L85.3,93.2L86.1,92.5L87.0,91.8L89.0,89.9L89.7,89.4L91.6,87.6L95.3,84.4L95.7,84.3L101.7,78.8L103.7,77.2L104.3,76.5L106.8,74.5L107.2,74.0L108.7,72.8L110.5,71.1L111.3,70.5L112.4,69.5L117.4,65.3L118.8,63.9Z M22.3,44.5L22.9,44.6L24.0,45.4L24.7,46.1L26.7,47.6L31.7,51.8L32.4,52.2L36.1,55.4L37.3,56.3L39.8,58.5L40.4,58.8L43.9,61.8L44.5,62.2L46.2,63.7L46.2,64.0L45.9,64.4L44.2,66.0L41.3,68.4L40.5,69.3L40.1,69.5L34.3,74.9L32.8,76.1L32.2,76.8L29.0,79.6L27.6,81.0L25.7,82.5L23.8,84.3L23.0,84.8L22.6,84.8L22.3,84.5L22.3,84.1L22.0,44.9Z M76.9,43.7L77.7,44.0L79.3,45.3L81.8,47.5L82.8,48.2L83.5,48.9L84.2,49.3L88.6,53.1L90.2,54.3L90.7,54.8L91.2,55.1L94.5,57.9L95.9,58.9L96.7,59.7L97.3,60.0L100.4,62.6L100.7,63.1L100.6,63.7L98.7,65.4L94.0,69.5L91.2,72.1L88.2,74.7L87.6,75.4L87.4,75.4L85.5,77.1L83.1,79.3L81.8,80.3L81.2,81.0L80.9,81.1L78.5,83.3L77.6,84.0L77.2,83.9L76.9,83.6L76.8,59.3L76.6,52.0L76.6,44.0Z" fill="#000" fill-rule="evenodd"/>
</svg>