<svg xmlns="http://www.w3.org/2000/svg" viewBox="0 0 128 128" width="128" height="128">
  <path d="M65.3,16.7L65.0,17.2L64.9,18.1L64.7,41.2L64.7,110.8L64.8,111.1L65.1,111.4L65.4,111.5L81.7,111.5L87.9,106.0L88.6,105.5L91.8,102.5L94.2,100.4L94.6,100.0L106.3,89.5L109.6,86.7L111.9,84.5L117.5,79.6L119.0,78.1L119.1,51.2L118.9,50.6L118.2,49.8L116.1,48.1L113.8,45.8L112.6,44.9L106.7,39.3L104.4,37.4L97.7,31.1L95.0,28.7L93.1,26.8L88.9,23.1L85.9,20.2L85.5,20.0L82.7,17.3L82.2,17.1L81.6,16.9L73.5,16.7Z M82.2,40.3L86.6,44.1L87.1,44.8L98.7,55.3L100.3,56.9L107.2,63.1L108.2,64.1L108.3,64.7L107.5,65.6L91.3,80.1L90.9,80.3L90.3,81.0L89.9,81.2L88.9,82.2L84.7,85.8L83.6,86.9L82.2,88.1L81.8,88.1L81.6,87.9L81.5,85.7L81.6,80.0L81.4,72.1L81.6,59.9L81.6,43.9L81.7,40.8L81.8,40.4Z M47.3,16.8L46.1,17.7L43.5,20.2L41.4,21.9L41.0,22.4L37.6,25.5L37.2,25.7L32.9,29.7L31.0,31.3L28.4,33.8L27.7,34.2L26.9,35.1L24.1,37.4L21.8,39.7L20.3,40.8L17.2,43.8L15.8,44.9L9.4,50.6L9.3,51.2L9.3,77.5L9.7,78.2L11.4,79.7L12.7,80.7L13.5,81.5L18.9,86.3L19.7,87.1L20.0,87.3L23.8,90.7L25.6,92.1L26.2,92.9L27.1,93.5L28.5,95.0L32.3,98.2L34.6,100.3L35.5,101.0L36.1,101.7L38.3,103.5L39.6,104.8L40.1,105.1L44.4,109.1L44.8,109.3L47.0,111.4L63.6,111.5L64.0,111.3L64.1,110.6L64.0,46.2L64.3,35.2L64.2,32.1L64.4,25.8L64.4,17.3L64.1,16.8L63.0,16.7L49.9,16.7Z M47.0,40.7L47.2,40.9L47.2,82.9L47.2,88.0L47.1,88.2L46.7,88.2L45.3,87.2L44.6,86.3L36.3,78.9L33.4,76.1L26.8,70.2L26.0,69.3L22.2,66.0L20.6,64.3L20.6,64.0L21.7,62.8L23.7,61.1L24.5,60.3L26.7,58.5L27.6,57.5L29.1,56.3L31.4,54.1L36.6,49.7L37.0,49.2L42.5,44.4L43.8,43.1L45.1,42.2L46.6,40.7Z" fill="#000" fill-rule="evenodd"/>
</svg>