<svg xmlns="http://www.w3.org/2000/svg" viewBox="0 0 128 128" width="128" height="128">
  <path d="M118.5,9.6L117.9,9.4L94.8,9.5L93.9,9.3L92.9,9.5L87.5,9.4L83.7,9.6L51.2,9.7L29.8,9.5L10.2,9.6L9.7,9.7L9.5,10.4L9.5,14.9L9.7,23.0L9.7,34.2L9.9,37.0L10.0,56.0L10.2,57.2L10.2,64.3L10.4,69.3L10.3,71.8L10.5,81.3L10.5,85.0L10.6,89.5L10.6,97.5L10.8,101.6L10.8,114.5L10.9,116.7L11.2,117.7L11.8,118.0L49.4,118.3L56.7,118.2L59.1,118.3L65.4,118.3L75.7,118.4L81.4,118.3L84.1,118.5L92.4,118.4L93.2,118.6L110.3,118.7L114.1,118.9L116.6,118.9L117.3,118.8L117.5,118.5L117.7,114.8L117.6,109.0L117.8,107.8L117.8,81.1L118.0,79.1L117.9,78.2L118.1,66.7L118.0,58.6L117.5,58.2L112.5,58.1L98.4,58.1L98.0,58.4L97.8,59.0L97.9,60.8L97.7,70.4L97.8,75.9L97.6,86.4L97.6,98.1L97.2,98.5L96.2,98.7L86.3,98.6L84.5,98.2L83.7,97.9L83.2,97.8L82.0,97.2L80.9,96.4L80.1,95.5L78.7,93.7L77.4,90.5L77.2,88.4L77.2,59.8L77.3,59.2L77.2,57.2L77.2,43.5L77.4,39.3L77.6,39.1L77.9,37.6L79.1,35.0L79.7,34.3L81.8,32.2L82.9,31.5L85.3,30.7L86.7,30.5L88.0,30.6L93.1,30.4L118.2,30.4L118.5,30.0L118.6,28.6L118.8,9.8Z M30.4,30.5L46.0,30.4L49.4,30.9L51.6,31.7L52.8,32.6L53.9,33.7L55.5,35.6L56.6,38.4L56.9,41.4L57.0,56.0L57.0,57.9L57.1,61.6L57.1,88.3L56.8,90.6L55.7,93.5L53.7,96.1L53.1,96.4L52.2,97.2L51.5,97.4L51.2,97.7L48.2,98.2L32.1,98.2L31.0,98.0L30.5,97.4L30.3,96.1L30.4,90.8L30.2,88.1L30.3,84.3L30.1,79.7L30.2,71.8L29.9,60.2L30.0,54.5L29.8,53.1L29.7,50.1L29.8,41.5L29.6,39.9L29.6,31.3L29.7,31.0Z" fill="#000" fill-rule="evenodd"/>
</svg>