<svg xmlns="http://www.w3.org/2000/svg" viewBox="0 0 128 128" width="128" height="128">
  <path d="M78.7,10.0L74.8,9.3L71.3,9.0L64.8,9.0L64.3,9.1L63.9,9.5L63.7,11.3L63.8,15.1L63.6,22.0L63.7,24.8L63.6,47.8L63.5,49.6L63.4,49.9L63.2,50.0L62.9,49.8L62.2,47.5L62.1,47.3L61.9,46.6L61.4,45.5L60.1,42.9L58.9,41.0L57.3,39.0L54.5,36.1L51.2,33.6L48.9,32.2L48.3,32.1L47.0,31.4L42.8,30.0L38.8,29.4L33.8,29.4L32.0,29.7L28.9,30.4L27.3,31.0L25.8,31.7L25.5,31.7L23.4,32.8L20.8,34.4L18.1,36.7L16.8,38.0L14.8,40.4L12.9,43.3L12.0,45.1L12.0,45.3L11.7,45.8L10.7,48.4L10.7,49.0L10.3,49.7L9.9,51.8L9.5,54.5L9.6,63.0L9.8,64.2L10.1,64.6L40.6,64.6L49.7,64.7L49.8,64.9L49.5,65.2L48.5,65.4L48.1,65.6L47.3,65.7L46.7,66.1L45.8,66.3L41.9,68.3L39.6,69.8L39.4,70.0L38.2,70.9L35.6,73.5L33.8,75.8L32.8,77.2L31.1,80.4L31.1,80.7L30.1,82.8L29.4,85.4L28.8,89.3L28.8,93.5L29.4,97.9L30.3,100.9L31.2,103.2L32.1,105.0L33.5,107.1L35.8,110.1L38.6,112.8L39.8,113.7L42.0,115.2L45.0,116.7L48.7,118.1L52.7,118.9L55.5,119.1L62.5,119.2L63.4,119.1L63.7,118.9L63.7,83.9L63.9,79.7L64.0,79.7L64.5,80.4L64.7,81.2L65.9,84.1L66.2,84.6L66.4,85.3L67.3,86.6L67.4,87.0L67.8,87.4L67.8,87.6L70.1,90.7L72.8,93.4L74.5,94.8L78.0,97.0L79.1,97.4L79.5,97.8L80.0,97.8L80.8,98.3L81.4,98.4L84.2,99.4L87.6,100.1L90.8,100.3L95.3,100.0L99.0,99.1L99.5,98.8L100.1,98.7L100.7,98.4L102.3,97.8L102.7,97.5L104.2,96.9L107.0,95.1L109.6,93.0L112.3,90.1L114.0,87.8L114.1,87.5L114.8,86.6L116.2,83.8L117.4,80.5L118.3,76.6L118.5,74.7L118.7,68.1L118.5,67.5L118.5,65.0L118.4,64.6L118.0,64.4L104.8,64.4L98.3,64.2L78.3,64.2L77.7,64.2L77.5,63.9L78.4,63.5L78.7,63.5L79.7,63.1L80.6,63.0L82.9,62.0L85.5,60.7L89.0,58.2L90.3,57.1L92.5,54.8L94.1,52.6L95.7,50.0L96.1,49.2L96.3,49.0L96.4,48.6L97.2,47.1L98.5,42.6L98.9,40.2L99.1,38.3L99.0,33.1L98.7,31.8L98.6,30.7L98.1,29.4L98.0,28.7L96.3,24.3L95.1,22.4L95.0,22.1L94.1,20.8L91.6,17.7L88.8,15.1L88.6,15.0L88.3,14.7L87.9,14.4L87.5,14.0L86.0,13.2L84.9,12.4L82.9,11.4Z M71.7,73.4L72.1,73.0L74.2,72.8L108.3,72.8L110.0,73.0L110.4,73.5L110.4,74.6L109.9,77.3L108.8,80.7L108.4,81.1L107.3,83.2L106.2,84.8L104.9,86.3L103.6,87.5L101.0,89.4L100.7,89.5L99.4,90.3L97.6,91.1L95.3,91.7L94.3,91.8L93.6,92.0L90.7,92.2L87.0,91.8L83.9,90.8L81.5,89.7L80.3,89.0L78.7,87.8L77.7,87.0L75.4,84.4L74.7,83.2L74.4,82.9L73.0,80.3L72.0,76.9L71.7,74.3Z M54.1,72.7L55.2,72.7L55.7,73.1L55.9,109.5L55.8,110.5L55.4,110.9L55.1,111.0L51.9,110.7L49.0,109.8L46.2,108.5L44.5,107.4L42.8,105.9L40.8,103.8L39.1,101.3L38.5,100.2L37.7,98.3L37.7,97.8L37.3,96.8L36.7,93.3L36.7,90.1L36.9,88.6L37.2,87.6L37.3,86.5L37.8,85.1L39.2,82.2L40.0,80.9L41.6,78.9L41.7,78.7L44.9,76.0L47.4,74.5L50.9,73.2Z M17.5,55.4L17.7,53.5L18.2,51.4L19.2,48.7L20.6,46.1L21.2,45.4L21.5,44.9L22.1,44.1L23.8,42.4L25.0,41.4L27.3,39.9L28.4,39.3L30.8,38.3L34.3,37.5L37.8,37.5L41.2,37.9L44.7,39.2L47.3,40.7L48.2,41.4L50.9,44.0L52.7,46.4L54.3,49.4L55.2,52.6L55.5,54.6L55.6,55.1L55.6,56.3L55.3,56.7L54.3,56.9L34.3,56.9L27.0,57.0L18.8,57.0L18.0,56.9L17.6,56.6L17.5,56.1Z M73.3,17.3L75.2,17.5L77.0,17.9L78.1,18.4L78.7,18.5L79.2,18.8L80.0,19.0L80.2,19.3L80.8,19.4L83.5,21.2L85.3,22.9L86.7,24.4L88.4,26.9L89.1,28.3L90.1,30.6L90.2,31.3L90.6,32.3L90.7,33.4L90.9,34.2L91.0,37.9L90.5,41.3L90.2,42.0L90.0,42.9L89.1,45.0L87.8,47.6L86.4,49.3L84.4,51.4L84.1,51.6L83.3,52.3L81.3,53.7L78.7,54.9L75.4,55.9L74.8,55.9L73.3,56.2L72.2,56.2L71.7,55.8L71.6,52.6L71.7,20.5L71.8,17.8L72.1,17.4Z" fill="#000" fill-rule="evenodd"/>
</svg>