<svg xmlns="http://www.w3.org/2000/svg" viewBox="0 0 128 128" width="128" height="128">
  <path d="M114.1,33.5L112.7,31.8L110.7,29.6L109.1,28.2L105.6,25.9L103.0,24.7L102.6,24.3L101.9,24.2L101.4,23.8L100.9,23.8L100.3,23.4L96.0,22.2L93.7,21.6L93.1,21.6L92.7,21.5L91.7,21.4L90.5,21.1L88.6,21.0L87.3,20.7L86.3,20.8L86.1,23.1L86.2,24.5L86.1,39.1L86.1,56.2L86.0,57.1L85.5,57.4L82.1,57.4L81.7,57.1L81.1,52.9L80.5,50.8L80.2,49.4L79.7,47.8L79.1,45.8L78.3,43.8L77.9,43.2L77.4,41.8L75.8,39.1L73.3,35.7L70.4,32.5L68.0,30.4L65.1,28.2L62.3,26.4L60.5,25.5L59.5,24.9L56.5,23.5L52.1,22.0L48.4,21.1L47.8,21.1L47.5,21.4L47.5,39.6L47.7,47.9L47.6,57.0L47.2,57.5L44.0,57.6L43.5,57.5L43.2,57.1L42.6,52.5L41.6,48.6L40.2,44.9L38.3,41.0L37.6,40.1L37.1,39.1L34.7,35.7L33.5,34.4L29.5,30.7L25.2,27.6L24.1,27.1L22.8,26.3L17.2,23.8L15.3,23.2L14.6,22.8L10.7,21.8L9.6,21.7L9.3,22.1L9.2,22.7L9.2,31.1L9.5,46.6L9.4,49.1L9.6,57.8L9.6,66.5L9.9,78.3L9.9,87.9L10.0,90.2L10.0,106.9L10.2,107.3L10.5,107.5L11.6,107.3L15.4,105.8L17.1,104.8L18.3,104.4L19.9,103.4L21.9,102.5L22.6,101.9L23.1,101.7L24.3,100.8L25.7,100.0L28.3,98.0L30.1,96.4L32.8,93.6L34.8,91.3L38.4,85.8L39.0,84.2L40.2,81.8L40.4,81.0L40.7,80.7L40.9,79.7L41.3,78.8L42.3,75.2L43.0,70.5L43.5,70.2L44.2,70.1L47.3,70.2L47.7,70.6L47.8,71.3L47.7,72.8L47.8,82.4L47.8,106.5L48.0,106.9L48.8,107.0L50.1,106.7L51.7,105.9L52.5,105.8L55.2,104.5L55.6,104.4L57.0,103.7L57.4,103.6L58.8,102.6L60.1,102.1L65.5,98.4L68.2,96.1L68.9,95.6L70.9,93.6L74.5,89.3L74.7,88.9L76.4,86.4L77.4,84.2L77.7,83.8L78.6,81.3L79.1,80.2L80.0,77.2L80.7,74.4L80.7,73.5L81.2,70.5L81.3,70.3L82.1,70.2L85.7,70.2L86.0,70.4L86.1,71.2L86.0,96.1L86.1,99.9L86.1,107.2L86.4,107.5L87.3,107.5L89.0,107.2L89.6,106.9L90.5,106.9L92.5,106.3L93.2,106.2L96.1,105.3L96.3,105.1L98.6,104.3L102.8,102.4L103.0,102.1L104.4,101.5L107.8,99.4L110.1,97.7L111.1,96.7L112.6,95.3L113.1,94.5L114.3,93.3L114.5,92.9L115.0,92.3L115.7,91.3L116.9,89.0L117.2,88.0L117.8,86.7L118.2,85.4L118.9,82.1L119.1,77.7L118.7,76.1L118.6,75.1L117.8,72.4L117.3,71.4L117.2,71.0L116.9,70.7L116.2,69.2L114.5,67.0L112.6,65.2L110.6,63.7L110.1,63.1L110.2,62.7L110.9,62.1L113.1,60.0L114.9,57.4L116.8,53.7L116.9,53.2L117.2,52.5L117.8,49.8L118.0,48.1L118.0,44.9L117.6,42.1L117.4,41.6L117.2,40.2L115.8,36.2Z M98.4,70.1L100.1,70.4L102.2,71.2L103.3,71.8L103.8,72.2L104.1,72.3L105.6,73.7L107.0,75.6L107.7,77.9L107.8,80.9L107.5,82.8L106.9,84.6L106.2,85.9L105.1,87.6L103.4,89.5L101.3,91.2L99.7,92.1L98.6,92.6L97.8,93.1L97.4,93.2L97.0,92.9L96.9,92.4L96.9,89.9L96.9,70.5L97.5,70.1Z M20.4,38.4L21.2,38.4L22.1,38.9L23.8,40.2L25.1,41.5L26.6,43.1L27.1,43.9L27.9,44.9L28.3,45.8L28.5,46.0L29.5,48.0L31.2,52.4L32.1,56.3L32.2,57.8L32.5,59.3L32.7,63.9L32.5,66.7L32.3,67.5L32.3,68.8L32.0,70.3L31.7,72.5L31.5,73.2L31.2,74.7L30.6,76.2L30.2,77.8L28.9,80.7L27.1,83.8L25.7,85.6L23.3,87.9L21.6,89.1L21.0,89.3L20.7,88.9L20.5,84.2L20.6,76.7L20.4,73.3L20.4,62.9L20.2,50.2L20.2,38.6Z M59.1,37.9L59.6,38.0L59.9,38.4L60.8,38.9L63.4,41.1L65.5,43.6L67.3,46.6L68.5,49.0L68.9,50.1L69.2,50.7L69.7,52.4L70.5,56.6L70.9,60.2L70.9,66.1L70.6,68.6L70.3,70.1L70.2,71.2L69.9,71.8L69.7,73.3L68.1,78.1L66.8,80.7L64.8,83.8L64.1,84.5L63.4,85.6L61.2,87.8L59.3,89.1L58.7,89.1L58.6,88.0L58.5,70.2L58.6,44.3L58.6,39.0L58.6,38.2Z M97.3,34.1L98.2,34.2L100.7,35.5L102.6,36.8L104.5,38.7L106.0,40.8L106.6,42.0L107.1,43.7L107.4,45.9L107.3,48.1L106.8,50.1L106.0,51.9L105.0,53.4L103.4,54.8L102.3,55.6L100.2,56.6L98.5,57.1L97.5,57.1L97.1,56.8L96.9,56.4L97.0,35.6L97.1,34.3Z" fill="#000" fill-rule="evenodd"/>
</svg>