<svg xmlns="http://www.w3.org/2000/svg" viewBox="0 0 128 128" width="128" height="128">
  <path d="M64.5,61.0L62.0,61.1L59.0,61.9L57.9,62.6L57.2,62.8L55.4,64.1L53.4,66.1L52.0,68.2L51.2,70.2L50.7,72.1L50.5,73.3L50.6,75.9L51.0,78.1L52.3,81.2L53.7,83.2L55.4,84.9L58.1,86.6L61.2,87.6L63.3,87.8L65.6,87.8L68.2,87.2L70.3,86.2L72.0,85.1L74.4,82.8L75.6,80.9L76.8,78.1L77.2,75.8L77.1,72.6L76.7,70.6L76.3,69.7L76.2,69.2L75.2,67.2L73.9,65.4L71.4,63.3L69.5,62.2L67.4,61.5Z M108.4,9.5L101.3,9.3L93.3,9.2L92.9,9.4L92.6,9.7L92.5,30.0L92.6,73.5L92.5,77.1L91.9,80.5L91.0,83.8L90.2,85.7L90.1,86.2L88.5,89.2L85.9,92.9L82.7,96.1L82.1,96.6L80.4,98.0L76.4,100.4L72.0,102.1L71.2,102.1L69.0,102.7L65.3,103.2L60.7,103.0L56.6,102.2L53.5,101.2L49.9,99.5L49.6,99.2L49.1,99.0L47.3,97.7L46.4,97.1L42.7,93.7L40.6,91.1L38.5,87.7L38.1,86.6L37.7,86.1L36.5,82.7L36.1,81.2L35.9,80.7L35.8,79.6L35.5,78.9L35.4,77.7L35.3,72.0L35.9,68.0L36.3,66.2L37.2,63.6L38.3,61.3L39.4,59.3L39.6,58.8L42.2,55.4L45.0,52.6L47.9,50.3L48.4,50.1L50.7,48.7L53.2,47.7L53.7,47.3L54.8,47.1L56.6,46.4L57.6,46.2L58.5,45.9L60.6,45.7L61.8,45.5L65.7,45.5L68.9,45.9L72.5,46.7L73.2,47.1L74.4,47.4L76.3,48.4L76.9,48.5L77.2,48.2L77.4,47.5L77.3,32.5L77.1,31.4L76.6,30.9L75.9,30.7L75.5,30.7L74.2,30.3L73.3,30.2L72.2,29.8L70.9,29.8L69.5,29.4L66.2,29.2L62.2,29.2L58.9,29.4L57.4,29.8L56.0,29.8L55.0,30.2L53.6,30.3L53.0,30.6L50.5,31.2L48.2,32.1L48.0,32.1L46.2,33.0L45.5,33.1L44.7,33.6L43.2,34.2L37.7,37.7L33.9,40.8L30.6,44.1L27.9,47.5L26.7,49.5L26.3,49.9L25.6,51.2L24.8,52.5L23.4,55.4L21.8,59.3L20.6,63.4L19.8,67.6L19.4,71.8L19.4,76.2L19.8,80.5L20.8,85.6L21.1,86.2L21.4,87.6L23.4,92.6L25.6,96.9L25.9,97.2L26.2,98.0L29.0,102.0L33.1,106.5L34.4,107.5L35.6,108.7L36.5,109.4L37.2,109.7L38.5,110.9L43.2,113.8L45.9,115.2L49.7,116.7L54.7,118.1L55.8,118.2L57.7,118.6L62.8,119.1L68.6,118.9L69.8,118.6L70.7,118.6L72.3,118.2L73.4,118.1L77.7,117.0L81.4,115.7L84.0,114.5L85.5,113.6L86.5,113.1L88.9,111.6L92.5,108.9L96.3,105.4L96.5,105.0L97.4,104.2L98.8,102.6L101.5,98.8L104.0,94.4L104.0,93.9L105.4,91.2L105.6,90.2L106.3,88.5L107.1,86.1L107.6,83.4L107.9,82.4L107.9,81.7L108.4,79.1L108.5,77.2L108.5,75.1L108.7,73.6L108.7,22.8L108.9,21.5L108.7,20.8L108.8,10.8L108.7,9.9Z" fill="#000" fill-rule="evenodd"/>
</svg>