<svg xmlns="http://www.w3.org/2000/svg" viewBox="0 0 128 128" width="128" height="128">
  <path d="M23.5,37.0L23.4,37.2L23.2,38.0L23.2,44.9L23.4,46.5L23.3,48.7L23.4,49.7L23.5,53.2L23.5,69.0L23.7,74.0L23.7,80.8L23.8,81.7L23.8,84.3L23.9,86.2L23.9,92.1L24.0,92.4L25.2,93.5L25.4,93.8L29.4,97.9L30.5,98.8L30.8,99.3L33.9,102.3L34.4,102.9L35.4,103.8L36.4,105.0L39.0,107.5L39.3,107.9L42.9,111.3L43.7,112.2L46.3,114.8L47.4,116.0L50.2,118.7L51.0,119.0L84.9,119.1L88.1,118.9L95.6,118.9L98.5,119.1L102.7,119.1L104.6,118.9L104.9,118.7L105.1,118.2L105.1,112.1L105.0,107.6L105.0,99.8L105.1,95.1L105.0,91.6L105.0,37.2L104.7,36.8L100.4,32.2L99.0,30.9L96.8,28.6L93.9,25.8L81.0,12.4L77.8,9.2L77.4,9.2L77.2,9.4L77.1,25.2L77.3,30.9L77.3,62.6L76.9,62.7L76.6,62.7L71.3,57.5L70.0,56.3L68.8,55.1L68.5,54.9L63.8,50.4L60.0,47.0L58.8,45.7L49.6,37.0L49.0,36.7L47.9,36.5L42.1,36.7L39.8,36.6L36.8,36.8L27.3,36.7L23.9,36.8Z M50.6,63.9L51.1,63.7L53.7,63.9L59.4,64.0L76.1,63.9L76.8,64.0L77.3,64.3L77.4,72.0L77.4,84.7L77.5,90.1L77.4,91.8L77.0,92.3L76.4,92.5L58.0,92.5L54.5,92.4L51.3,92.5L50.8,92.1L50.6,91.0L50.4,79.1L50.5,78.1L50.3,74.5L50.3,66.4L50.4,64.2Z" fill="#000" fill-rule="evenodd"/>
</svg>