<svg xmlns="http://www.w3.org/2000/svg" viewBox="0 0 128 128" width="128" height="128">
  <path d="M64.6,9.4L64.0,9.4L63.8,9.6L62.2,12.5L62.1,13.0L61.2,14.7L61.0,15.6L60.6,16.5L60.5,17.1L60.2,17.5L59.6,19.6L59.0,22.9L58.6,25.8L58.6,35.7L58.5,36.3L58.0,37.0L56.7,37.4L56.3,37.7L55.4,37.9L55.0,38.1L54.2,38.2L51.7,39.1L48.6,40.0L47.7,40.5L46.8,40.6L46.5,40.9L44.2,41.4L40.5,42.8L38.6,43.2L37.9,43.6L37.1,43.7L36.6,43.9L35.6,44.1L35.3,44.4L34.4,44.6L33.6,44.9L33.0,45.0L32.6,45.3L30.7,45.9L30.0,46.0L29.3,46.4L28.4,46.5L27.4,47.0L27.0,47.0L25.9,47.4L25.3,47.5L21.7,48.9L19.0,49.6L16.9,50.4L16.2,50.5L15.6,50.8L13.1,51.6L12.8,51.8L11.7,52.2L11.7,52.6L12.9,52.7L57.3,52.3L58.0,52.4L58.4,52.5L58.6,52.9L58.8,58.9L58.8,72.6L58.7,74.9L58.4,75.2L58.0,75.1L55.2,72.6L53.6,71.5L53.4,71.5L53.1,71.2L49.9,69.5L46.8,68.3L45.1,67.9L42.2,67.4L38.9,67.2L34.8,67.4L33.6,67.8L31.5,68.0L31.3,68.2L30.2,68.4L28.0,69.1L25.7,70.1L23.1,71.5L20.5,73.4L19.2,74.5L17.5,76.3L16.1,78.1L15.0,79.7L15.0,79.8L14.5,80.5L14.3,81.0L13.5,82.3L12.4,84.8L12.2,85.7L11.9,86.4L11.8,87.3L11.4,88.4L10.9,92.5L11.0,96.1L11.4,97.8L11.4,98.7L11.5,99.5L12.8,103.1L14.5,106.6L14.8,107.0L16.0,108.9L19.8,112.8L20.9,113.8L23.6,115.5L24.5,115.8L26.1,116.8L27.6,117.3L28.0,117.5L29.4,117.8L31.9,118.5L35.3,119.0L41.1,119.0L44.1,118.6L47.0,117.7L48.0,117.5L48.5,117.2L50.8,116.2L51.4,115.8L52.7,115.1L54.2,114.2L56.1,112.7L57.6,111.3L58.3,110.8L58.5,110.8L58.8,111.2L58.9,117.5L59.3,118.0L69.6,118.0L70.2,117.6L70.4,109.7L70.4,76.9L70.2,68.8L70.3,53.4L70.4,53.0L70.7,52.5L71.1,52.4L71.9,52.3L78.7,52.4L87.2,52.2L94.8,52.3L100.5,52.1L106.6,52.2L116.7,52.1L117.2,51.9L117.1,51.6L115.6,51.0L114.9,50.9L114.1,50.6L112.8,50.3L112.3,50.0L111.4,49.9L110.6,49.5L109.9,49.4L104.5,47.6L103.1,47.3L100.9,46.5L99.8,46.4L99.2,46.0L98.1,45.8L94.2,44.5L92.8,44.2L92.0,43.9L91.4,43.8L89.7,43.1L89.3,43.1L88.4,42.7L87.7,42.6L82.9,41.0L82.1,40.9L81.6,40.6L78.1,39.6L76.7,39.1L74.3,38.4L72.9,38.1L72.7,37.9L70.6,37.2L70.3,36.8L70.1,34.8L70.2,28.0L69.8,24.3L69.2,21.0L68.8,19.9L68.7,19.1L68.3,17.9L68.1,16.8L67.8,16.1L67.7,15.4L67.3,14.8L67.0,13.8L66.0,11.4Z M34.3,79.5L37.2,78.7L39.8,78.3L42.5,78.3L44.1,78.5L44.6,78.7L45.7,78.8L47.0,79.2L48.3,79.5L51.6,81.1L53.7,82.6L54.7,83.6L56.3,85.8L57.6,88.9L58.0,91.1L58.1,94.0L57.7,96.5L56.7,99.6L55.7,101.3L54.2,103.2L51.9,105.3L49.9,106.5L47.3,107.6L46.3,107.7L45.4,108.1L42.5,108.4L38.8,108.4L36.4,107.9L35.4,107.8L33.6,107.1L31.4,106.0L29.6,104.8L27.6,102.8L26.0,100.5L25.2,98.7L24.8,97.3L24.4,95.2L24.5,91.0L25.0,89.1L25.5,87.5L26.2,85.9L26.8,85.1L29.3,82.4L32.0,80.5L33.9,79.8Z" fill="#000" fill-rule="evenodd"/>
</svg>