<svg xmlns="http://www.w3.org/2000/svg" viewBox="0 0 128 128" width="128" height="128">
  <path d="M62.9,9.0L62.8,9.1L62.8,9.6L63.4,12.4L64.2,14.2L64.8,15.3L64.8,15.7L66.4,18.4L68.8,21.5L70.3,23.3L73.6,26.5L74.3,27.0L75.4,28.0L76.8,29.0L77.7,29.8L80.8,32.1L83.5,33.8L84.2,34.3L85.1,34.7L85.7,35.2L86.6,35.7L88.6,37.0L89.1,37.2L90.2,38.1L91.0,38.6L94.1,41.2L96.0,43.1L97.9,45.2L100.3,48.4L102.9,52.5L103.1,53.1L103.7,54.0L104.3,55.4L104.5,56.1L104.8,56.5L105.8,59.2L106.6,61.7L107.7,66.2L107.8,68.1L108.1,69.4L108.1,70.6L108.2,71.4L108.2,76.1L108.1,78.1L107.9,78.9L107.8,80.1L107.6,81.8L107.3,83.0L107.0,83.8L106.6,85.8L105.9,87.7L105.9,88.1L105.5,89.1L105.5,89.4L105.1,90.0L105.0,90.4L103.7,93.0L103.6,93.5L101.3,97.6L99.1,100.6L95.9,104.3L95.7,104.2L96.1,103.3L96.9,102.5L97.8,101.2L100.1,97.7L100.3,97.1L101.0,96.1L101.4,95.3L101.4,95.1L101.6,94.7L101.8,94.3L102.1,93.7L102.1,93.5L102.5,92.7L103.9,88.8L104.1,88.0L104.7,85.7L104.7,85.2L105.0,84.3L105.3,82.1L105.3,81.2L105.5,80.8L105.5,79.8L105.6,78.9L105.6,75.5L105.3,71.4L104.5,67.5L104.2,66.6L104.0,65.4L103.3,63.5L102.9,62.2L102.3,61.1L102.3,60.7L101.8,59.9L101.7,59.4L100.8,57.9L100.4,56.9L98.2,53.3L97.8,53.0L96.6,51.2L95.6,50.1L95.5,49.9L93.0,47.2L91.6,46.0L88.6,43.5L83.7,40.3L81.9,38.9L81.6,38.8L79.0,36.7L78.8,36.6L76.3,34.4L75.3,33.6L73.4,31.9L72.8,31.7L72.6,31.4L72.4,30.9L69.0,27.2L67.9,25.7L67.5,25.3L67.1,24.5L66.5,23.5L65.3,21.4L65.3,21.2L65.0,20.6L64.4,19.0L64.3,18.8L63.7,16.6L63.4,16.1L63.2,16.0L63.1,16.1L63.1,16.7L63.3,17.2L63.6,18.8L64.0,19.6L64.2,20.2L64.4,20.7L64.5,21.1L64.8,21.5L65.7,23.6L66.0,23.9L66.2,24.3L68.3,27.4L68.7,27.7L68.9,28.1L69.7,29.0L69.8,29.2L73.9,33.3L77.9,36.7L78.1,36.8L81.2,39.2L81.5,39.4L83.3,40.8L84.7,41.6L85.5,42.3L88.1,43.9L88.5,44.3L89.6,45.0L89.8,45.3L90.3,45.6L93.0,48.1L95.6,50.9L96.1,51.7L96.3,51.8L96.5,52.3L97.1,53.0L97.8,54.0L98.8,55.3L99.1,56.1L99.9,57.3L100.4,58.4L100.6,58.7L102.1,62.0L103.6,66.5L103.7,67.4L104.4,70.1L104.4,70.6L104.7,71.9L104.9,74.6L104.9,79.2L104.7,81.8L104.4,83.7L104.2,84.3L104.2,84.9L104.0,86.0L103.7,86.6L103.5,88.1L102.7,90.4L102.5,90.7L102.5,91.0L102.3,91.4L102.0,92.2L101.4,93.3L101.4,93.7L99.8,96.9L98.0,99.8L96.6,101.8L94.3,104.5L92.9,105.9L92.8,105.5L95.4,102.2L97.1,99.5L98.0,97.9L98.6,96.4L98.6,96.2L98.8,96.0L99.2,95.3L99.2,94.9L99.8,93.5L99.9,93.0L100.2,92.3L100.3,91.8L100.6,91.0L100.6,90.7L101.0,89.8L101.2,88.5L101.4,88.0L101.4,87.5L101.7,85.9L102.0,83.5L102.1,78.3L101.4,73.1L101.0,71.4L100.8,70.9L100.6,70.0L100.4,69.7L99.6,67.0L99.3,66.5L98.9,65.2L98.6,64.9L98.5,64.4L98.2,64.0L98.1,63.6L97.8,63.3L97.7,62.9L97.5,62.7L97.3,62.2L96.1,60.2L95.6,59.6L95.1,58.7L93.3,56.5L93.3,56.3L91.5,54.4L89.1,52.1L85.8,49.5L85.4,49.3L84.7,48.7L81.6,46.3L79.6,44.6L78.9,44.1L77.5,42.6L76.3,41.7L72.8,38.1L69.1,33.9L67.3,31.3L66.7,30.2L66.5,30.0L65.2,27.6L64.8,26.6L64.5,26.2L64.1,24.9L63.9,24.7L63.7,23.6L63.5,23.3L63.4,22.9L63.2,22.9L63.0,23.0L63.0,23.3L63.3,23.9L63.4,24.7L63.7,25.1L64.2,26.7L65.2,28.9L65.3,29.2L65.9,30.0L66.0,30.3L66.7,31.4L66.8,31.7L69.1,34.9L70.8,36.9L71.3,37.4L73.6,39.9L76.8,43.0L79.3,45.3L80.4,46.1L81.8,47.4L88.3,52.2L91.6,55.4L93.9,58.1L95.5,60.4L95.9,61.2L96.1,61.5L98.2,65.3L98.6,66.5L98.8,66.8L99.0,67.5L99.2,67.9L99.6,69.5L99.9,70.1L100.0,70.8L100.6,73.2L100.8,74.7L101.0,75.4L101.2,77.2L101.4,78.0L101.3,83.8L101.1,84.7L101.0,86.0L100.8,87.1L100.7,87.9L99.5,92.4L98.1,96.0L96.1,99.8L94.4,102.4L92.2,105.2L91.5,105.8L91.3,105.9L91.4,105.5L93.1,103.1L93.6,102.2L94.3,101.2L94.5,100.6L95.0,99.9L95.1,99.6L95.4,99.2L95.5,98.8L95.8,98.3L95.9,97.8L96.5,96.5L96.6,96.0L96.9,95.5L97.3,94.1L97.3,93.9L97.6,93.3L97.8,92.1L98.0,91.6L98.8,87.1L98.9,84.2L98.8,80.5L98.6,80.1L98.6,79.5L98.2,76.5L97.9,75.8L97.9,75.4L97.6,74.6L97.3,73.4L96.6,71.3L96.3,70.7L95.9,69.4L95.2,68.4L94.4,66.7L92.5,63.8L90.1,60.7L87.4,58.1L86.1,57.0L85.7,56.8L84.5,55.8L82.3,54.2L76.3,49.3L73.2,46.3L70.5,43.5L69.1,41.8L67.9,40.0L67.6,39.7L65.7,36.4L65.0,34.7L64.9,34.1L64.4,33.1L63.9,30.9L63.5,29.8L63.6,29.4L63.3,29.0L61.2,29.0L60.7,29.1L58.6,29.2L55.6,29.7L54.8,30.0L53.8,30.1L51.9,30.7L51.3,30.7L50.9,31.0L50.2,31.1L47.2,32.2L46.8,32.5L45.6,32.9L44.0,33.7L43.6,34.0L43.3,34.1L42.2,34.6L38.6,36.9L36.7,38.2L34.0,40.5L31.9,42.7L30.4,44.3L28.2,46.9L27.4,48.2L25.9,50.4L25.6,51.1L25.1,51.8L24.9,52.3L23.9,54.1L23.8,54.4L23.2,55.6L23.1,56.1L22.0,58.5L21.1,61.5L20.9,61.9L19.8,66.9L19.6,68.7L19.6,69.5L19.4,69.9L19.4,71.2L19.3,71.8L19.2,75.3L19.4,79.3L19.6,80.1L19.7,81.4L20.0,82.8L20.1,83.6L21.2,87.8L22.1,90.4L23.1,92.9L23.3,93.3L23.5,93.9L25.6,97.9L27.6,100.9L29.4,103.2L30.7,104.7L34.1,108.1L36.4,110.0L39.2,112.0L43.1,114.3L43.5,114.4L45.4,115.4L47.1,116.1L51.3,117.6L55.0,118.4L59.9,119.2L65.2,119.3L68.2,119.1L68.9,118.9L70.0,118.8L73.1,118.3L73.6,118.1L77.1,117.2L77.6,117.0L78.3,116.8L78.6,116.6L79.3,116.4L79.6,116.2L80.2,116.1L81.6,115.4L81.8,115.4L82.0,115.2L82.5,115.0L83.4,114.4L85.9,113.2L88.6,111.6L89.4,111.0L89.7,110.8L93.5,107.8L96.7,104.7L99.1,101.9L101.9,98.0L102.3,97.2L102.9,96.5L104.5,93.5L106.3,89.1L106.6,87.9L107.0,87.1L107.4,85.9L108.4,81.1L108.8,77.9L109.0,73.6L108.9,70.8L108.5,66.9L108.3,66.3L108.2,65.4L107.9,64.2L107.8,63.2L107.6,62.7L107.0,60.4L105.9,57.2L104.9,54.8L102.7,50.7L101.1,48.5L101.0,48.1L97.9,44.1L94.0,40.2L93.0,39.4L89.6,36.8L88.1,35.9L87.9,35.6L87.5,35.5L87.3,35.3L85.1,34.1L84.0,33.3L83.2,32.9L81.8,31.8L81.5,31.7L78.7,29.6L78.3,29.4L73.4,25.4L69.5,21.4L67.7,19.1L67.1,18.1L66.5,17.3L66.4,16.9L65.6,15.8L64.3,12.7L63.6,10.2L63.4,9.2L63.3,9.0Z M79.5,112.5L79.5,112.6L79.1,113.1L78.8,113.0L78.8,112.9L79.2,112.5Z M63.2,105.7L65.2,105.7L66.0,105.8L67.1,106.1L67.9,106.6L68.8,107.4L69.9,108.6L70.5,109.6L70.9,111.1L71.0,112.8L70.8,113.7L70.0,115.7L69.0,116.8L68.2,117.6L67.4,118.0L65.7,118.6L64.1,118.6L63.0,118.4L62.1,118.2L60.7,117.4L59.6,116.4L58.9,115.4L58.7,114.9L58.5,114.5L58.1,113.2L58.1,111.1L58.5,109.6L59.3,108.2L60.1,107.3L61.0,106.6L62.2,106.0Z M65.5,98.7L66.2,99.2L66.7,100.7L66.8,101.2L67.3,102.3L67.5,102.8L67.8,103.3L68.0,104.1L68.3,104.7L68.3,104.9L68.5,105.3L68.8,106.3L68.5,106.4L66.8,105.5L65.8,105.3L63.4,105.3L62.2,105.6L60.7,106.3L60.2,106.6L59.3,107.4L58.1,109.4L57.7,111.1L57.6,112.5L57.7,113.6L58.1,114.9L59.0,116.4L58.9,116.6L58.7,116.6L57.4,115.6L55.9,113.8L55.8,113.5L55.4,112.9L54.8,111.2L54.5,109.8L54.4,108.0L54.7,106.3L55.0,105.5L55.2,104.8L55.4,104.6L55.5,104.1L55.8,103.9L55.9,103.4L56.7,102.3L58.1,100.8L59.1,100.2L60.2,99.6L60.7,99.3L62.0,98.9L63.9,98.6Z M63.9,92.0L64.3,92.5L64.5,93.6L64.8,94.3L65.0,95.6L65.2,95.9L65.6,97.3L65.6,97.8L65.3,98.1L63.1,98.2L61.1,98.6L58.9,99.7L57.7,100.5L56.2,102.1L55.2,103.7L54.5,105.3L54.0,107.4L54.1,110.3L54.7,112.6L55.2,113.6L56.2,115.1L56.1,115.3L55.9,115.3L55.6,115.1L53.6,113.0L53.2,112.2L52.9,111.9L52.1,110.5L52.1,110.1L51.8,109.8L51.7,109.2L51.2,107.4L51.1,106.2L51.1,104.0L51.3,102.4L51.7,101.3L51.9,100.6L53.1,98.1L53.7,97.4L54.2,96.7L55.4,95.4L56.6,94.3L57.3,93.9L59.6,92.7L60.1,92.6L60.6,92.4L62.6,92.0Z M63.1,84.8L63.4,85.0L63.6,87.9L63.9,89.5L64.0,91.0L63.6,91.3L61.7,91.5L60.1,92.0L59.6,92.2L59.1,92.3L57.7,93.0L56.2,93.9L55.2,94.8L54.1,95.9L53.0,97.2L51.8,99.3L51.0,101.5L50.7,103.1L50.5,104.7L50.6,107.0L50.9,108.0L51.0,109.0L51.2,109.3L51.4,110.2L52.3,112.1L52.9,113.0L54.2,114.6L54.0,114.8L53.5,114.6L51.5,112.7L50.7,111.6L49.6,110.0L48.8,108.4L48.7,107.8L48.4,107.4L48.4,107.2L48.1,106.5L47.6,104.6L47.4,103.0L47.4,100.3L47.6,99.4L47.6,98.8L47.9,98.0L48.1,96.7L49.2,94.1L50.3,92.2L51.5,90.6L53.2,89.0L55.2,87.4L57.7,86.1L60.6,85.1L62.5,84.8Z M58.9,78.5L60.7,78.1L62.2,77.9L63.0,77.9L63.4,78.2L63.8,81.6L64.1,82.4L64.4,84.2L64.6,84.8L64.6,85.1L65.3,87.1L65.3,87.3L66.3,90.2L66.7,90.9L66.7,91.3L67.0,91.7L67.1,92.1L67.9,93.9L68.0,94.3L68.2,94.5L68.5,95.5L68.7,95.7L68.8,96.0L69.3,96.7L69.7,97.9L71.4,100.7L71.6,101.4L72.8,103.2L73.9,105.5L74.4,107.7L74.3,110.0L73.9,111.8L72.9,113.9L72.1,115.0L70.7,116.4L70.1,116.6L70.0,116.5L70.0,116.2L70.3,116.0L70.8,115.1L71.3,113.2L71.3,110.8L70.8,109.1L70.5,108.7L70.3,108.1L69.5,106.9L69.2,105.9L68.9,105.5L68.9,105.0L68.1,103.7L68.1,103.3L67.6,102.1L67.4,101.2L67.3,101.0L67.2,100.6L66.8,99.8L66.7,99.2L66.4,98.6L66.3,97.9L66.0,97.6L65.7,96.5L65.7,96.1L65.4,95.3L65.2,94.0L64.9,93.4L64.6,91.4L64.2,90.2L64.2,89.4L64.0,88.5L63.9,86.9L63.7,85.9L63.8,84.7L63.5,84.3L63.0,84.3L61.3,84.5L59.6,84.9L57.6,85.5L57.0,85.9L56.6,86.0L56.4,86.2L55.2,86.8L53.2,88.3L50.7,90.8L49.8,92.1L49.4,93.0L48.9,93.6L48.7,94.3L48.4,94.7L47.7,96.6L47.2,99.0L47.0,101.0L47.0,103.6L47.4,105.2L47.4,105.7L48.1,108.0L49.2,110.2L50.8,112.7L50.7,112.9L50.3,112.7L49.5,111.9L48.1,110.2L47.0,108.6L46.8,108.2L46.2,107.3L45.4,105.5L45.2,104.9L44.8,103.7L44.4,102.4L44.1,100.0L44.1,96.2L44.4,95.1L44.4,94.5L44.6,93.8L44.7,93.0L45.0,92.4L45.2,91.5L45.6,90.6L45.8,89.8L46.2,89.4L46.2,89.0L46.5,88.8L46.7,88.2L47.2,87.5L47.4,87.0L48.8,85.2L51.7,82.3L53.2,81.2L54.2,80.7L54.4,80.5L55.0,80.2L55.2,80.0L56.0,79.6L57.3,79.2L57.7,78.9Z M54.2,73.3L54.8,73.2L55.8,72.6L57.0,72.2L59.9,71.5L62.0,71.2L63.0,71.2L63.4,71.5L63.7,74.6L64.2,76.9L64.5,77.8L64.8,79.3L65.4,80.4L65.7,81.6L66.3,82.6L66.3,83.0L68.2,86.8L70.0,89.8L70.2,90.3L70.6,90.8L70.8,91.2L73.4,94.9L74.2,95.9L74.6,96.5L74.9,96.9L76.3,99.2L76.7,100.4L76.9,100.8L77.5,103.1L77.6,106.1L77.3,108.2L77.0,109.3L75.9,112.0L75.5,112.3L75.5,112.5L74.2,114.1L73.2,115.1L72.9,115.3L72.7,115.2L72.7,115.0L73.8,113.3L74.4,111.8L74.6,111.0L74.7,109.5L74.8,109.1L74.8,107.2L74.6,106.9L74.6,106.1L74.2,104.8L73.8,104.1L73.7,103.7L73.5,103.5L73.3,103.0L72.6,101.8L72.3,101.5L72.2,101.0L71.8,100.3L71.6,100.0L71.2,99.0L70.1,97.3L69.9,96.7L68.9,94.9L68.5,93.9L68.2,93.4L68.1,92.8L67.5,91.7L67.1,90.6L66.9,90.4L66.7,89.5L66.3,88.8L66.3,88.3L65.8,87.5L65.3,85.5L64.9,84.5L64.8,83.8L64.6,83.6L64.4,82.3L64.4,81.8L64.1,81.1L63.9,78.0L63.8,77.6L63.4,77.3L61.1,77.5L60.9,77.7L59.3,77.9L57.2,78.5L56.8,78.8L56.4,78.9L54.0,80.1L53.3,80.6L52.8,80.8L50.7,82.4L48.9,84.1L46.8,86.8L46.6,87.5L46.0,88.3L45.8,88.8L44.9,90.7L44.6,91.7L44.6,92.0L44.3,92.6L44.2,93.4L44.0,93.6L43.5,97.1L43.6,100.2L44.0,102.5L44.7,105.1L46.0,108.1L47.6,110.6L49.7,112.9L49.6,113.3L48.8,112.7L47.8,111.9L45.8,109.6L44.0,107.2L42.5,104.4L42.3,103.7L41.9,102.8L41.9,102.5L41.7,102.2L41.3,100.9L41.3,100.2L40.8,98.4L40.7,96.9L40.6,96.5L40.6,93.2L40.7,91.9L40.9,91.6L41.1,90.0L41.4,88.7L41.9,87.4L41.9,86.9L42.5,85.6L42.8,85.1L43.1,84.3L43.7,83.1L45.6,80.3L46.2,79.5L48.4,77.3L49.8,76.1L50.2,75.9L51.5,74.8Z M53.4,66.3L56.8,65.0L57.5,64.9L59.5,64.3L62.9,64.0L63.3,64.4L63.4,65.6L63.7,67.2L63.7,67.7L64.4,70.7L64.8,71.9L65.2,72.4L65.2,72.6L65.5,73.1L65.6,73.7L67.1,76.7L67.5,77.1L67.5,77.4L69.4,80.7L70.5,82.2L74.2,87.1L75.4,88.4L76.5,89.8L77.7,91.1L78.9,92.9L79.0,93.3L79.4,93.9L80.6,96.9L80.8,98.5L81.1,99.4L81.2,100.7L81.2,103.1L80.9,104.9L80.0,108.1L79.4,109.0L79.1,109.8L78.1,111.4L77.3,112.4L75.9,114.0L75.0,114.7L74.8,114.7L74.7,114.4L76.3,112.3L77.1,110.5L77.9,108.0L78.1,105.5L78.1,103.5L77.8,102.5L77.7,101.4L76.9,99.2L75.6,96.9L74.8,95.8L74.1,95.1L73.4,93.9L72.0,91.9L71.6,91.2L70.9,90.3L70.4,89.3L70.1,89.0L69.3,87.4L68.9,87.0L68.6,86.1L68.3,85.8L66.7,82.6L66.7,82.2L66.1,81.2L65.8,80.2L65.6,80.0L65.5,79.3L65.2,78.9L65.2,78.6L64.6,76.9L64.0,74.0L64.0,72.8L63.8,72.3L63.8,71.2L63.7,70.8L63.4,70.5L60.9,70.7L59.9,71.0L58.9,71.1L56.2,71.9L54.7,72.5L54.3,72.8L53.9,72.8L52.7,73.6L52.3,73.7L50.2,75.0L48.4,76.5L46.5,78.3L46.4,78.5L45.7,79.2L43.8,81.7L41.9,85.3L41.9,85.7L41.1,87.7L40.2,91.6L40.0,95.3L40.3,98.7L40.9,101.6L41.6,103.4L41.7,103.9L42.3,105.2L42.5,105.7L44.3,108.7L45.5,110.3L46.5,111.5L46.5,111.6L46.2,111.7L45.4,111.0L42.8,108.2L41.5,106.5L40.9,105.3L40.3,104.4L39.9,103.6L39.9,103.4L39.5,102.9L39.5,102.6L38.7,101.0L38.4,99.8L38.2,99.4L38.0,98.6L37.8,98.3L37.8,97.8L37.6,97.6L37.2,94.7L37.2,94.1L37.0,93.7L37.0,92.0L37.0,89.4L37.4,86.6L38.0,83.6L38.3,83.1L38.4,82.6L38.6,82.2L38.8,81.3L39.1,80.9L40.0,78.9L40.5,78.1L41.1,76.9L42.6,74.7L44.0,73.0L46.0,71.0L47.7,69.6L48.8,68.9L48.9,68.9L49.9,68.1Z M50.2,60.6L53.1,59.3L56.2,58.3L60.7,57.4L62.2,57.2L63.1,57.3L63.4,57.8L63.8,60.5L64.2,62.7L64.8,64.3L66.0,67.3L67.5,70.0L69.3,73.0L70.4,74.3L71.2,75.5L75.9,80.9L77.3,82.5L79.1,84.2L80.3,85.6L82.0,88.3L83.4,91.4L84.1,94.0L84.5,96.7L84.5,99.3L84.3,99.8L84.3,100.8L83.4,104.5L82.6,106.6L81.8,108.0L81.2,108.8L80.8,109.7L80.1,110.6L78.3,112.5L78.1,112.4L78.1,112.2L78.3,111.9L79.4,110.0L79.8,109.6L79.8,109.4L80.8,107.2L81.4,104.3L81.6,102.7L81.6,99.6L81.3,97.8L81.0,97.1L80.9,96.3L80.4,94.7L80.0,94.2L79.7,93.3L79.4,93.0L78.7,91.8L74.4,86.6L71.6,82.8L70.1,80.6L69.4,79.4L68.9,78.8L68.5,77.9L67.9,77.1L67.4,76.1L67.2,75.9L67.1,75.4L65.8,72.9L65.1,71.1L65.1,70.8L65.0,70.7L64.5,69.1L64.4,68.2L64.2,67.7L64.0,66.3L63.8,65.6L63.7,63.9L63.4,63.5L63.1,63.4L61.5,63.5L60.1,63.7L56.8,64.4L53.7,65.5L49.8,67.5L49.2,67.9L48.3,68.4L47.9,68.8L46.9,69.5L43.9,72.3L42.3,74.1L40.9,76.2L40.5,76.9L40.2,77.2L40.1,77.5L39.1,79.3L38.4,81.1L38.3,81.2L38.3,81.5L38.0,82.0L37.2,84.6L36.8,87.5L36.6,87.8L36.6,88.6L36.5,89.4L36.5,93.8L36.8,96.3L37.1,97.1L37.3,98.5L38.3,101.6L38.8,102.7L39.1,103.5L40.3,105.7L41.7,107.8L43.5,110.0L43.6,110.4L43.1,110.1L40.5,107.4L38.4,104.5L37.6,103.1L37.2,102.7L36.8,101.5L36.2,100.4L36.1,100.1L35.4,98.6L34.9,96.7L34.4,95.5L33.8,92.4L33.5,89.1L33.5,86.9L33.7,84.9L34.0,82.6L34.8,79.1L35.2,78.5L35.4,77.4L35.7,77.1L35.9,76.3L36.2,75.7L36.3,75.3L36.5,75.1L37.8,72.4L38.0,72.2L39.1,70.5L39.3,70.0L40.2,69.0L40.5,68.5L41.3,67.5L44.9,64.1L47.8,62.0L48.0,62.0Z M48.7,53.6L49.2,53.4L51.3,52.4L51.9,52.2L52.1,52.1L54.5,51.3L56.0,50.9L56.2,50.8L56.5,50.8L58.1,50.4L58.6,50.4L59.3,50.2L61.3,50.0L62.8,50.1L63.0,50.3L63.2,51.6L63.4,52.4L63.4,53.0L63.7,54.1L63.8,54.8L64.1,55.5L64.2,56.0L64.4,56.6L64.7,57.5L65.2,58.4L65.6,59.7L65.9,59.9L66.8,61.7L67.4,62.5L68.0,63.6L71.0,67.7L72.4,69.3L72.8,69.8L75.1,72.4L79.1,76.3L80.4,77.4L82.6,79.8L84.5,82.4L84.7,83.0L85.3,83.9L86.1,85.7L86.1,85.9L86.8,87.6L87.5,90.2L87.5,90.8L87.8,92.9L87.8,96.1L87.4,99.4L87.1,100.2L87.1,100.5L86.4,102.7L86.1,103.2L86.1,103.7L84.5,106.9L84.1,107.2L83.2,108.8L81.9,110.4L80.6,111.8L80.0,112.3L79.7,112.3L79.8,111.8L81.0,110.3L82.2,108.3L82.3,108.0L83.0,106.8L83.4,105.5L83.8,104.9L83.8,104.3L84.1,103.9L84.4,102.2L84.7,101.4L84.8,99.8L84.9,99.4L84.9,95.9L84.3,92.6L83.1,89.3L81.3,86.1L79.0,83.4L75.6,79.8L73.6,77.6L73.1,76.8L71.9,75.4L71.6,74.8L70.1,73.1L68.9,71.0L67.9,69.8L67.5,68.7L66.5,67.0L66.1,66.0L65.6,65.0L65.6,64.6L65.0,63.6L64.8,62.6L64.6,62.1L64.6,61.5L64.2,60.5L64.2,59.5L63.9,58.3L63.8,57.0L63.6,56.7L63.4,56.6L62.2,56.6L60.3,56.8L58.7,57.1L57.9,57.2L55.9,57.7L55.6,57.9L55.0,57.9L54.5,58.2L53.8,58.3L53.4,58.6L51.9,59.1L48.7,60.7L46.1,62.4L43.5,64.4L41.2,66.7L39.9,68.3L37.7,71.2L35.7,74.9L35.6,75.3L35.4,75.7L35.0,77.0L34.7,77.3L33.8,80.4L33.7,81.5L33.5,82.0L33.3,83.2L33.0,85.7L33.0,90.7L33.1,91.2L33.1,91.8L33.5,94.1L34.2,97.1L35.8,101.2L37.6,104.6L38.9,106.6L40.3,108.4L40.3,108.6L40.1,108.6L39.4,108.0L37.0,105.3L35.2,102.7L35.1,102.4L34.7,101.9L34.5,101.5L33.9,100.5L33.9,100.3L32.9,98.6L31.7,95.3L31.6,94.8L30.9,92.7L30.7,91.5L30.1,87.9L29.9,84.2L30.1,80.8L30.3,79.9L30.3,79.1L30.5,78.5L30.5,78.0L30.9,76.9L31.0,76.0L31.3,75.3L31.3,75.0L31.7,73.9L31.7,73.4L32.1,72.6L32.2,72.2L32.4,71.9L32.5,71.3L33.1,70.3L33.3,69.6L34.7,66.8L35.4,65.8L36.0,64.8L38.2,61.9L41.7,58.4L44.1,56.4L46.8,54.6L48.0,54.0L48.5,53.8Z M45.7,48.4L46.2,48.2L47.9,47.2L49.7,46.4L50.1,46.4L50.7,46.0L51.3,45.9L52.5,45.4L54.4,44.9L55.0,44.6L58.5,43.9L61.7,43.5L62.8,43.5L63.2,44.0L63.4,45.4L63.6,46.4L63.7,46.6L63.8,47.4L64.2,49.3L64.5,49.7L64.6,50.1L64.8,50.5L65.1,51.4L66.0,53.4L66.7,54.2L66.9,54.8L68.7,57.5L71.6,60.9L75.5,65.0L78.7,67.9L80.6,69.3L81.2,69.9L81.4,69.9L84.3,72.8L86.4,75.3L87.7,77.5L89.2,80.4L89.5,81.4L89.8,81.8L89.9,82.6L90.2,83.3L90.6,85.0L90.8,85.7L90.9,86.6L91.2,88.1L91.3,89.1L91.3,92.4L91.0,95.2L90.6,97.5L90.0,99.4L89.7,100.2L89.6,100.6L87.9,104.3L87.1,105.7L85.5,108.0L84.2,109.4L82.2,111.3L82.0,111.1L84.7,107.6L86.1,104.9L86.5,103.8L86.7,103.4L86.8,102.9L87.1,102.4L87.2,101.8L87.3,101.6L87.4,101.0L87.6,100.6L87.9,99.4L88.3,96.7L88.3,93.8L88.1,90.8L87.3,87.5L86.4,84.9L85.3,82.7L84.3,81.0L82.5,78.7L81.4,77.5L80.8,77.0L80.2,76.3L79.9,76.2L76.6,73.0L72.5,68.5L69.1,64.1L67.9,62.2L67.7,62.0L67.5,61.5L66.7,60.5L64.9,56.6L64.8,55.9L64.6,55.8L64.4,55.0L64.2,54.6L63.6,51.6L63.5,49.6L63.2,49.3L61.0,49.3L56.2,50.1L55.6,50.4L53.5,50.9L53.2,51.1L51.5,51.6L51.1,51.9L49.8,52.3L47.4,53.6L47.2,53.8L46.7,54.0L43.1,56.4L40.7,58.4L37.6,61.7L36.2,63.4L35.8,64.1L35.4,64.6L35.4,64.7L34.6,65.7L33.4,68.0L33.2,68.2L33.1,68.5L32.9,68.9L32.8,69.2L32.0,70.8L31.5,72.2L31.4,72.3L31.2,73.2L31.0,73.4L30.9,74.3L30.5,75.1L29.9,77.8L29.8,79.2L29.5,80.6L29.5,82.0L29.4,82.6L29.4,86.7L29.7,89.7L29.9,90.3L29.9,91.0L30.2,92.3L30.4,93.0L30.6,93.9L31.7,97.1L33.5,101.1L35.1,103.8L36.1,105.1L36.3,105.5L36.2,105.7L35.4,105.0L35.2,104.7L34.3,103.8L31.7,99.7L31.5,99.3L31.0,98.4L30.9,98.1L30.5,97.5L30.1,96.4L29.8,95.9L29.7,95.5L29.4,94.9L29.2,94.3L29.0,94.1L29.0,93.6L28.6,92.8L28.6,92.6L28.2,91.5L28.2,91.2L27.9,90.2L27.9,89.8L27.5,88.3L27.4,87.1L27.2,86.4L26.9,83.4L27.0,78.2L27.1,77.8L27.2,76.2L27.4,75.5L27.4,74.9L27.5,74.6L27.6,73.8L27.7,73.6L27.7,73.1L28.0,72.5L28.2,71.3L28.4,70.9L28.4,70.3L29.2,67.9L30.2,65.6L30.3,65.2L30.9,64.3L31.1,63.8L32.9,60.5L35.6,57.0L37.0,55.3L39.7,52.7L42.3,50.6Z M43.3,42.1L43.7,41.9L45.4,40.9L48.2,39.7L48.6,39.4L50.0,38.9L50.7,38.6L51.4,38.4L53.0,37.9L53.5,37.8L54.9,37.4L58.8,36.6L61.5,36.4L62.8,36.4L63.1,36.5L63.3,36.8L63.5,38.4L64.2,41.1L64.4,41.5L65.0,43.4L65.3,44.0L65.7,45.0L65.9,45.2L66.9,47.1L69.3,50.7L70.9,52.5L71.4,53.0L73.0,54.8L76.1,57.9L76.3,58.1L78.0,59.6L78.5,59.9L79.1,60.5L82.2,63.2L83.1,63.6L83.7,64.3L84.4,64.8L85.9,66.2L88.6,69.3L89.4,70.5L89.9,71.2L90.3,72.0L91.2,73.5L92.3,75.9L92.4,76.4L92.6,76.7L93.0,77.9L93.2,78.2L94.0,81.2L94.3,83.1L94.7,86.6L94.6,89.7L94.3,91.2L94.3,92.0L93.5,96.1L93.2,96.6L93.0,97.3L92.4,98.8L92.4,99.2L91.8,100.2L91.3,101.5L90.6,102.7L90.4,103.2L89.3,104.8L89.3,104.9L88.9,105.3L88.1,106.5L86.2,108.6L86.1,108.9L85.1,109.8L84.9,109.6L85.0,109.3L85.7,108.6L87.3,106.3L87.7,105.5L88.1,104.9L88.3,104.3L88.6,104.1L88.7,103.7L89.1,103.1L89.4,102.2L89.8,101.6L89.8,101.2L90.1,100.8L90.2,100.4L90.6,99.4L91.4,95.7L91.5,94.7L91.6,94.6L91.8,92.0L91.8,88.8L91.3,85.4L90.6,82.8L90.5,82.2L90.2,81.6L89.8,80.6L88.7,78.0L87.2,75.6L85.7,73.5L83.8,71.4L82.0,69.8L81.5,69.5L81.2,69.1L77.1,65.7L76.0,64.5L74.8,63.5L73.2,62.0L72.8,61.3L69.9,58.2L68.0,55.5L66.5,53.1L66.0,52.1L66.0,51.8L65.6,51.2L65.3,50.3L64.8,49.2L64.0,46.4L63.6,43.4L63.4,43.1L63.0,42.8L59.1,43.1L55.6,43.7L54.6,44.1L53.8,44.2L53.4,44.4L52.8,44.5L48.7,46.0L45.3,47.8L42.6,49.5L42.1,49.9L41.8,50.1L38.8,52.5L36.2,55.2L33.4,58.5L32.4,60.1L32.1,60.4L31.3,62.0L30.9,62.4L29.4,65.4L28.6,67.8L28.3,68.3L28.2,68.7L28.0,69.2L27.6,71.0L27.4,71.4L27.1,73.0L26.8,73.6L26.8,74.4L26.6,75.2L26.6,75.9L26.3,77.7L26.3,78.8L26.2,79.5L26.2,83.7L26.5,86.7L27.2,90.4L28.0,93.2L28.8,95.6L29.3,96.5L29.4,96.9L29.7,97.4L29.8,97.8L31.5,100.9L33.3,103.7L34.7,105.5L34.7,105.7L34.4,105.6L32.7,103.8L31.4,102.2L29.6,99.6L29.5,99.3L28.8,98.4L28.0,96.5L27.6,95.9L27.5,95.6L26.8,94.4L26.7,93.9L26.1,92.5L26.0,92.1L25.8,91.8L25.7,91.4L25.5,91.0L24.9,88.8L24.7,88.2L24.0,85.3L23.9,84.3L23.6,82.6L23.5,81.3L23.4,81.1L23.4,75.0L23.9,70.4L24.2,69.6L24.4,68.3L24.6,67.9L24.7,67.1L24.9,66.5L25.0,66.0L25.3,65.2L25.3,64.9L25.8,63.6L25.8,63.4L26.4,62.1L26.6,61.5L26.8,61.1L27.0,60.5L29.2,56.2L29.4,56.0L30.3,54.4L30.5,54.3L31.4,53.0L33.7,50.1L36.5,47.2L38.6,45.4L40.5,44.0Z M41.4,36.0L44.7,34.2L45.4,33.9L45.7,33.7L45.9,33.7L47.2,33.1L47.7,32.9L49.1,32.3L49.9,32.1L50.2,31.9L50.9,31.8L51.5,31.5L52.3,31.4L54.6,30.7L58.2,30.0L59.1,30.0L59.5,29.9L61.5,29.7L62.8,29.8L63.2,30.1L64.2,34.4L64.9,36.1L65.6,37.3L65.6,37.6L65.9,37.9L66.0,38.2L67.9,41.1L69.7,43.5L71.4,45.2L72.4,46.4L75.0,49.1L75.4,49.3L76.7,50.5L78.7,52.1L79.3,52.7L83.7,56.0L85.1,56.9L87.7,59.1L90.4,62.0L92.9,65.4L93.9,67.1L94.1,67.6L94.3,67.8L95.1,69.3L95.5,70.6L95.7,70.8L95.8,71.2L96.5,73.0L96.6,73.6L96.9,74.0L97.1,75.1L97.3,75.5L97.5,76.7L97.7,77.2L98.1,79.7L98.3,82.0L98.3,85.9L98.2,86.6L98.1,88.2L97.7,90.4L97.3,91.4L97.2,92.5L96.9,93.3L96.6,94.6L95.3,98.0L94.1,100.3L93.6,101.0L93.0,102.3L91.4,104.5L88.9,107.6L87.2,109.2L86.9,109.4L86.7,109.2L89.2,106.1L91.3,102.8L91.3,102.6L92.9,99.4L93.3,98.2L93.5,97.8L94.6,93.9L95.1,90.0L95.2,86.1L95.1,85.6L95.1,84.5L94.8,82.8L94.8,82.2L93.7,77.9L92.8,75.5L92.4,74.8L92.4,74.4L92.0,73.7L91.5,72.9L91.3,72.4L91.1,72.2L90.6,71.2L90.3,70.9L89.8,70.0L89.2,69.3L89.2,69.1L88.3,68.0L86.5,65.9L84.8,64.3L83.8,63.6L83.1,62.9L82.1,62.2L81.2,61.4L80.0,60.5L79.8,60.2L77.8,58.6L75.2,56.2L72.1,53.0L70.6,51.3L69.5,49.7L69.1,49.4L68.2,48.0L67.6,47.2L67.5,47.0L66.5,45.3L66.4,45.0L66.1,44.7L66.0,44.4L65.6,43.7L64.6,40.9L64.5,40.0L64.2,39.4L63.8,36.3L63.4,35.7L60.7,35.7L60.3,35.8L58.1,36.0L54.5,36.7L53.0,37.1L49.7,38.2L49.3,38.4L48.5,38.6L47.3,39.2L46.8,39.4L44.6,40.5L43.1,41.4L42.7,41.5L41.3,42.5L40.9,42.7L38.4,44.6L35.4,47.2L34.3,48.4L33.5,49.1L31.8,51.2L31.6,51.6L31.1,52.1L28.8,55.5L28.6,56.0L27.4,58.0L26.4,60.1L26.4,60.3L26.1,60.7L26.0,61.1L25.7,61.5L25.6,62.1L25.0,63.4L24.9,64.1L24.7,64.4L23.8,67.4L23.4,69.7L23.2,70.3L23.0,72.4L22.8,73.3L22.6,77.2L22.7,81.4L23.0,83.7L23.6,87.1L24.9,91.7L25.8,94.1L26.4,95.1L26.4,95.3L27.0,96.5L28.4,99.1L30.3,102.1L32.1,104.3L32.5,104.8L32.7,105.1L32.5,105.2L31.8,104.7L30.2,102.9L28.7,100.8L28.3,100.4L26.6,97.8L25.4,95.7L24.6,94.1L24.5,93.8L24.2,93.3L24.1,93.0L23.8,92.6L23.4,91.4L23.3,91.2L23.2,90.8L23.1,90.7L21.7,86.5L21.6,85.7L21.2,84.5L21.2,84.0L21.0,83.6L21.0,83.2L20.8,82.6L20.8,82.0L20.6,81.8L20.4,80.8L20.0,75.5L20.1,71.5L20.2,70.7L20.2,69.7L20.4,68.9L20.6,67.5L21.4,63.4L21.5,63.2L21.7,62.4L22.1,61.3L22.1,60.8L22.9,58.7L23.1,58.4L23.5,57.0L24.0,56.1L24.0,55.9L24.2,55.7L24.3,55.2L24.7,54.6L24.7,54.4L26.6,50.9L29.2,47.0L32.5,43.2L35.3,40.5L38.6,37.8L41.1,36.3Z" fill="#000" fill-rule="evenodd"/>
</svg>