<svg xmlns="http://www.w3.org/2000/svg" viewBox="0 0 128 128" width="128" height="128">
  <path d="M11.3,35.8L10.1,38.5L9.3,41.8L9.1,43.1L9.1,46.2L9.3,47.7L9.5,48.6L9.5,49.1L10.0,50.4L10.1,51.1L11.0,53.5L11.7,54.7L12.6,55.9L13.0,56.6L15.2,58.9L17.5,60.7L20.6,62.4L21.7,62.8L24.4,63.4L28.3,63.6L39.1,63.5L43.1,63.6L43.8,63.8L43.7,64.0L41.8,64.1L30.3,64.1L29.5,63.9L21.7,64.1L17.4,64.0L11.4,64.2L11.1,64.4L11.0,65.1L11.1,72.6L11.1,82.2L11.3,86.8L11.3,98.4L11.4,100.9L11.7,101.2L12.1,101.3L42.0,101.5L45.6,101.3L45.8,100.9L45.9,100.2L45.7,69.6L46.1,69.1L69.9,69.0L71.7,69.3L73.4,69.9L74.1,70.3L74.5,70.4L74.8,70.7L75.2,70.8L75.6,71.1L76.4,71.6L77.6,72.6L79.3,74.5L80.5,76.3L81.0,77.5L81.4,78.0L81.4,78.4L81.9,79.6L82.2,81.9L82.2,84.9L81.8,86.7L81.5,87.3L81.1,88.7L80.2,90.3L78.5,92.5L77.2,93.8L76.0,94.6L74.5,95.4L72.3,96.3L68.9,96.9L49.9,96.9L49.6,96.9L49.4,97.3L49.4,100.8L49.6,101.3L49.9,101.5L100.9,101.7L103.6,101.4L107.4,100.4L107.9,100.1L108.4,99.9L108.8,99.6L109.4,99.4L112.0,97.7L112.8,97.0L114.7,95.0L116.3,93.0L117.0,91.5L117.3,91.3L117.4,90.6L117.7,90.2L117.9,89.4L118.2,89.0L118.2,88.6L118.7,87.1L119.1,84.2L119.1,81.8L119.0,80.2L118.6,78.3L117.8,75.8L117.2,74.6L117.0,74.4L116.8,73.9L116.6,73.7L115.9,72.3L114.7,70.9L112.8,68.9L112.0,68.3L111.4,67.7L110.2,66.9L107.2,65.4L106.8,65.4L105.4,64.8L104.1,64.5L103.1,64.4L102.6,64.2L98.5,64.2L96.5,64.1L74.8,64.1L71.5,64.2L70.5,64.1L45.7,64.2L45.3,64.0L45.3,63.8L45.6,63.7L48.8,63.5L51.3,63.7L60.0,63.7L66.7,63.5L80.5,63.6L82.5,63.4L100.6,63.6L103.5,63.4L113.4,63.5L114.0,63.4L116.7,63.3L117.0,63.0L117.1,45.3L117.1,30.4L117.0,27.9L116.7,27.2L116.3,27.1L114.6,27.1L109.3,27.0L87.9,27.0L82.4,27.1L82.1,27.7L82.0,28.4L81.9,52.6L81.9,57.9L81.8,58.5L81.4,58.8L60.9,59.0L57.6,58.9L55.5,58.7L53.9,58.3L52.5,57.8L50.8,56.8L50.4,56.5L49.6,56.0L48.4,54.9L46.9,53.2L45.7,50.8L45.5,50.2L45.3,49.9L44.7,47.8L44.7,46.4L44.5,45.4L44.7,43.0L45.0,41.5L46.1,39.0L46.6,38.1L47.9,36.4L49.1,35.2L51.3,33.6L51.6,33.5L52.4,33.0L54.3,32.3L55.4,32.1L57.1,32.0L57.6,31.9L61.0,31.9L64.2,31.7L77.7,31.6L78.0,31.3L78.2,30.3L78.1,27.8L77.7,27.1L74.1,27.0L70.5,27.1L52.3,26.7L43.4,26.8L37.1,26.7L29.8,26.7L28.8,26.5L24.8,26.6L23.1,26.9L20.3,27.7L17.1,29.5L15.6,30.6L13.6,32.6L12.0,34.6Z M111.5,76.2L111.6,76.6L111.3,76.7L111.1,76.4Z" fill="#000" fill-rule="evenodd"/>
</svg>