<svg xmlns="http://www.w3.org/2000/svg" viewBox="0 0 128 128" width="128" height="128">
  <path d="M80.1,18.0L78.7,17.7L76.0,17.8L74.0,18.4L72.6,19.2L72.4,19.2L71.3,19.8L69.9,20.9L68.9,22.0L67.8,23.7L67.6,24.4L67.2,25.0L67.1,26.1L66.9,26.7L66.6,28.7L66.6,40.2L66.8,48.8L66.7,51.0L66.9,52.1L66.8,57.0L66.5,57.3L65.6,57.4L61.5,57.3L61.1,56.9L61.3,55.9L61.3,44.4L61.1,40.9L61.2,35.1L61.1,32.1L60.9,18.3L60.6,17.9L60.2,17.8L49.4,17.8L49.1,17.9L48.9,18.3L49.0,43.3L49.0,57.6L48.6,57.8L47.4,57.7L38.4,57.7L33.7,57.8L32.0,57.7L23.4,57.9L21.4,57.8L18.6,57.9L17.7,58.1L16.0,58.3L14.4,58.8L12.8,60.1L11.3,61.7L10.7,62.5L9.9,63.8L9.3,66.1L9.3,67.0L9.1,68.3L9.3,70.7L9.5,71.4L10.5,73.5L11.2,74.3L12.3,75.9L14.9,78.7L21.0,84.6L23.8,87.2L34.7,98.2L35.0,98.3L44.9,108.1L46.2,109.1L47.9,110.0L50.0,110.4L52.6,110.5L53.6,110.4L55.5,109.5L55.8,109.5L57.4,108.6L59.3,107.1L60.1,106.1L60.9,104.3L61.5,101.6L61.7,98.6L61.5,74.2L61.7,71.0L61.9,70.6L66.7,70.6L67.0,71.2L67.2,91.3L67.4,96.8L67.3,100.1L67.6,102.5L67.9,103.6L68.7,105.2L69.4,106.4L71.3,108.2L72.2,108.9L74.1,109.8L75.8,110.3L79.0,110.4L80.5,110.0L81.2,109.6L81.5,109.5L81.9,109.2L83.1,108.5L84.2,107.5L89.1,102.6L89.6,102.0L93.1,98.5L95.5,95.8L98.0,93.4L100.6,90.6L104.4,86.8L105.1,86.0L109.5,81.6L112.2,78.8L112.3,78.2L110.6,76.4L109.2,74.7L106.8,72.2L105.9,71.2L105.9,70.9L106.4,70.6L108.7,70.6L110.7,70.3L112.0,69.9L113.1,69.2L113.7,69.0L115.5,67.7L116.6,66.6L117.9,64.9L118.7,63.1L119.1,60.3L119.1,58.7L118.8,57.1L117.7,54.7L116.4,52.8L113.1,49.3L109.2,45.6L108.5,44.7L99.3,35.5L98.1,34.1L94.1,30.2L93.7,29.9L92.7,28.8L85.2,21.4L82.3,19.0Z M25.7,70.5L27.1,70.5L27.7,70.6L32.5,70.6L34.5,70.8L48.5,70.7L49.0,71.0L49.0,82.3L49.2,87.1L49.2,94.7L49.0,95.0L48.6,95.0L48.1,94.3L42.1,88.2L41.9,87.9L39.4,85.4L39.0,84.9L27.3,73.0L26.7,72.1L25.7,71.0L25.6,70.6Z M102.5,70.3L102.7,70.6L102.7,70.7L98.7,75.2L95.9,77.9L94.5,79.6L81.0,93.2L80.8,93.5L80.5,93.9L79.9,94.1L79.7,93.8L79.8,81.0L79.8,73.3L79.8,71.8L80.1,70.6L80.3,70.4L80.6,70.3L81.5,70.3L82.4,70.5L86.9,70.3Z M79.6,34.6L79.9,34.3L80.1,34.3L82.2,36.2L89.4,43.4L92.4,46.3L93.0,47.0L94.4,48.2L96.0,49.9L96.5,50.5L101.7,55.6L102.0,55.9L103.0,57.0L103.0,57.4L102.8,57.6L102.5,57.7L95.9,57.6L83.7,57.7L80.1,57.7L79.6,57.3L79.4,56.5L79.4,40.1L79.6,39.2Z" fill="#000" fill-rule="evenodd"/>
</svg>