<svg xmlns="http://www.w3.org/2000/svg" viewBox="0 0 128 128" width="128" height="128">
  <path d="M88.3,9.7L87.5,9.5L78.1,9.7L65.8,9.7L64.6,9.9L64.3,10.2L64.2,14.1L64.3,31.6L64.2,38.1L64.0,40.5L63.5,41.0L46.2,41.1L39.3,42.4L35.7,43.6L30.9,45.7L29.9,46.4L29.1,46.7L26.7,48.3L23.5,50.9L20.5,53.8L18.6,56.0L16.8,58.5L15.3,61.1L12.8,66.6L11.8,69.4L11.0,73.0L10.5,76.2L10.5,83.9L11.1,87.8L11.9,91.2L13.0,93.6L13.5,95.4L14.2,96.4L15.1,98.5L17.5,102.4L18.1,103.0L19.2,104.6L21.1,106.7L23.8,109.3L26.2,111.3L30.1,113.8L34.1,115.9L36.1,116.5L36.4,116.8L37.5,117.0L38.6,117.5L39.4,117.5L40.0,117.8L41.3,118.0L42.0,118.3L47.4,118.9L52.6,118.9L56.6,118.4L57.4,118.1L59.6,117.7L63.8,116.3L67.0,115.0L68.6,113.9L70.2,113.2L74.9,109.8L77.4,107.5L79.6,105.0L81.5,102.6L83.0,100.3L84.2,98.2L86.1,94.0L87.3,90.2L87.6,88.6L87.8,88.2L88.0,86.9L88.1,85.5L88.3,85.1L88.6,82.5L88.6,66.0L88.8,65.6L89.2,65.2L92.6,65.1L93.1,65.3L93.5,66.0L93.5,100.4L93.7,107.9L93.7,116.9L93.9,117.8L94.1,118.0L94.5,118.1L105.4,118.1L117.1,117.9L117.5,117.5L117.6,116.3L117.6,57.2L117.5,41.3L117.1,40.9L116.2,40.8L89.4,40.8L88.8,40.3L88.6,39.0L88.7,12.1L88.6,10.1Z M63.5,65.3L64.1,65.8L64.3,67.9L64.2,81.9L63.9,83.0L63.9,83.5L63.0,86.2L61.8,88.3L60.8,89.6L58.5,91.8L56.2,93.2L53.7,94.2L51.2,94.7L48.2,94.7L44.7,94.0L41.8,92.7L39.9,91.4L37.7,89.2L36.7,87.8L35.4,85.0L34.9,83.2L34.7,81.8L34.8,77.7L35.4,75.2L36.4,73.0L38.5,70.2L40.6,68.3L43.1,66.7L46.5,65.6L49.0,65.3Z M117.4,9.4L116.5,9.3L110.1,9.4L97.2,9.4L94.1,9.6L93.8,9.9L93.6,11.3L93.8,27.7L93.7,31.4L93.8,34.7L94.1,35.4L95.4,35.6L117.2,35.3L117.6,35.0L117.6,15.7L117.8,11.9L117.6,9.8Z" fill="#000" fill-rule="evenodd"/>
</svg>