<svg xmlns="http://www.w3.org/2000/svg" viewBox="0 0 128 128" width="128" height="128">
  <path d="M73.6,9.4L73.0,9.4L72.1,10.2L71.8,10.8L65.8,17.0L58.9,23.9L53.8,29.4L52.5,30.5L51.1,32.2L42.8,40.5L38.9,44.7L38.9,45.1L39.1,45.3L41.1,45.3L52.3,45.2L53.9,45.3L54.3,46.1L54.3,51.3L54.5,53.3L54.3,57.8L54.0,58.1L53.2,58.2L49.7,57.0L48.4,56.8L46.1,56.1L43.4,55.8L37.8,55.9L33.2,56.7L29.1,58.1L24.9,60.1L22.0,62.1L19.0,64.7L18.3,65.6L17.6,66.2L15.1,69.3L14.3,70.8L13.7,71.5L12.0,74.8L11.9,75.6L11.5,76.3L10.4,79.7L10.4,80.2L9.8,82.8L9.7,84.8L9.5,85.7L9.5,88.5L9.9,92.7L10.6,96.0L10.9,96.6L11.6,98.9L12.7,101.1L13.0,102.2L13.7,103.1L13.8,103.4L14.1,103.8L14.3,104.3L15.8,106.5L18.2,109.3L20.4,111.3L23.0,113.4L25.7,115.1L27.1,115.6L28.4,116.3L32.5,117.8L35.2,118.4L36.9,118.6L38.5,119.0L41.4,119.0L45.3,118.5L46.5,118.5L47.4,118.1L48.3,118.1L49.8,117.5L50.8,117.3L55.1,115.5L58.2,113.7L59.0,113.1L61.5,111.5L63.7,109.6L64.4,109.5L65.2,110.1L68.1,112.6L68.9,113.1L69.1,113.3L71.8,115.0L73.2,115.6L73.7,116.0L74.4,116.1L76.2,117.1L77.6,117.3L78.4,117.8L78.9,117.8L80.2,118.2L82.0,118.4L82.6,118.6L83.8,118.6L84.4,118.8L86.8,119.0L88.9,118.8L91.3,118.8L93.2,118.5L94.1,118.1L96.6,117.6L99.0,116.6L100.0,116.3L103.3,114.6L106.7,112.2L108.7,110.5L111.0,108.2L112.5,106.4L115.4,101.6L115.5,101.2L116.8,98.6L118.0,95.1L118.4,92.7L118.6,90.8L118.9,90.0L118.9,87.0L118.7,86.6L118.2,86.3L111.4,86.2L100.7,86.4L100.2,86.9L100.1,89.0L99.1,92.2L98.2,94.0L97.0,95.6L96.1,96.6L94.1,98.2L91.9,99.3L90.8,99.5L90.6,99.7L88.7,100.1L87.0,100.2L84.9,99.9L82.5,99.2L80.4,98.1L78.7,96.9L77.1,95.2L75.6,92.5L74.8,90.0L74.6,88.3L74.6,70.6L74.4,64.7L74.5,61.5L74.3,51.9L74.5,45.6L74.6,45.3L75.3,44.7L90.1,44.7L93.8,44.5L94.5,44.3L94.7,44.1L94.9,43.4L94.7,39.0L94.8,26.1L94.5,24.7L94.2,24.4L93.5,24.2L86.6,24.4L75.3,24.4L74.8,24.2L74.4,23.6L74.3,22.7L74.4,20.9L74.1,16.6L74.1,11.2L74.0,10.1Z M39.4,74.8L41.8,74.8L44.5,75.2L47.2,76.4L48.0,77.0L48.6,77.3L50.8,79.5L52.2,81.7L53.2,84.1L53.5,86.4L53.5,88.0L53.0,91.3L52.2,93.2L50.9,95.3L48.8,97.4L46.7,98.7L44.3,99.7L41.4,100.2L38.8,100.0L35.9,99.2L34.0,98.2L32.0,96.5L30.7,95.2L29.7,93.5L29.1,91.7L28.7,91.2L28.3,89.2L28.3,86.5L28.7,83.9L29.8,81.4L31.2,79.3L33.4,77.3L34.8,76.4L37.5,75.2Z" fill="#000" fill-rule="evenodd"/>
</svg>