<svg xmlns="http://www.w3.org/2000/svg" viewBox="0 0 128 128" width="128" height="128">
  <path d="M53.4,58.1L52.3,59.7L52.0,60.8L51.9,62.4L52.4,66.0L52.9,67.7L53.2,68.2L53.6,69.4L54.0,70.0L54.2,70.6L55.1,72.1L56.4,73.8L58.0,75.4L59.0,76.2L61.6,78.0L62.9,78.7L64.8,79.4L65.0,79.5L67.9,80.3L69.9,80.5L72.2,80.5L74.0,80.3L76.0,79.9L77.8,79.4L80.9,77.8L83.3,76.2L85.1,74.5L85.3,74.4L85.9,74.6L87.2,75.8L88.7,77.0L91.4,78.7L92.0,78.8L92.5,79.1L93.4,79.4L93.7,79.6L95.8,80.2L97.0,80.3L98.1,80.5L101.4,80.6L105.0,79.9L108.0,78.9L109.2,78.3L109.6,78.6L109.7,82.9L109.5,84.9L108.8,87.0L108.0,88.5L107.6,89.2L105.8,90.8L104.9,91.4L104.3,91.6L104.1,91.8L101.9,92.5L100.7,92.5L100.1,92.7L99.0,92.7L97.1,92.3L94.6,91.2L93.5,90.3L91.2,88.0L90.8,87.8L90.4,87.4L89.2,86.9L87.2,86.9L86.1,87.2L84.6,88.5L84.0,89.5L83.5,91.3L83.7,92.5L84.1,93.5L84.6,94.3L86.1,96.2L88.8,98.3L90.8,99.6L93.1,100.7L93.8,100.8L94.1,101.1L96.6,101.6L97.8,101.7L98.4,101.9L101.5,101.9L102.1,101.7L103.7,101.6L104.7,101.4L108.2,100.2L109.3,99.4L110.0,99.2L111.2,98.4L112.1,97.6L112.4,97.5L114.1,95.8L115.3,94.5L115.4,94.1L116.6,92.5L117.4,90.9L117.6,90.2L117.8,89.9L118.4,88.2L119.0,84.6L119.0,70.9L118.9,64.0L119.0,62.1L118.8,59.5L118.2,56.7L117.4,54.4L117.1,54.0L116.5,52.6L115.9,51.8L115.3,50.8L114.1,49.3L112.1,47.3L110.0,45.7L106.3,43.9L103.1,43.1L100.2,42.8L97.2,42.9L94.6,43.5L93.3,44.0L93.0,44.0L92.5,44.3L91.2,44.8L90.2,45.4L89.6,45.7L87.7,47.0L86.0,48.6L84.1,50.9L82.7,53.3L81.7,55.6L81.4,56.7L80.9,59.3L80.7,62.9L80.3,64.8L79.5,66.6L77.8,68.5L76.2,69.8L74.6,70.6L73.6,70.9L73.1,71.1L69.7,71.2L67.7,70.7L66.6,70.2L66.1,69.8L65.0,69.3L64.3,68.6L62.8,66.8L61.8,64.8L61.5,63.6L61.3,61.4L60.9,59.8L60.5,59.0L59.7,58.1L59.1,57.6L57.7,57.1L55.9,57.0L54.5,57.5Z M97.4,52.2L98.7,51.9L101.1,52.0L102.1,52.3L102.8,52.4L104.6,53.2L105.8,54.0L107.8,56.1L108.7,57.6L109.3,59.3L109.6,60.7L109.5,63.6L109.2,64.7L108.0,67.2L106.5,68.8L104.4,70.3L103.1,70.9L102.5,70.9L101.7,71.3L99.2,71.3L97.5,71.1L96.1,70.7L94.3,69.8L93.6,69.3L91.7,67.3L91.7,67.0L91.3,66.6L90.9,65.8L90.2,64.0L89.9,62.3L90.0,60.3L90.2,59.6L90.4,58.5L91.7,55.9L93.3,54.3L94.1,53.7L96.1,52.6Z M74.2,54.2L72.5,51.0L71.2,49.3L69.8,47.9L67.1,45.7L65.0,44.5L63.3,43.9L63.0,43.6L59.2,42.7L54.8,42.7L50.6,43.6L47.7,44.8L47.2,44.9L46.9,44.5L46.9,44.0L46.9,42.4L46.8,39.7L46.8,35.9L46.9,32.6L46.9,31.1L46.6,29.8L46.1,28.7L45.7,28.1L44.5,27.0L43.0,26.4L41.3,26.4L39.6,26.9L38.1,28.5L37.5,30.1L37.4,35.1L37.5,44.6L37.3,44.9L36.9,44.9L36.3,44.5L35.7,44.4L35.1,44.0L32.0,43.1L28.8,42.7L26.4,42.7L25.7,42.8L25.0,43.0L23.8,43.1L22.9,43.5L20.6,44.1L16.8,46.2L16.6,46.5L14.7,48.1L13.1,50.0L12.9,50.4L12.2,51.2L11.6,52.4L10.8,53.7L10.1,55.6L9.4,58.6L9.4,59.7L9.2,60.9L9.2,62.6L9.4,63.1L9.4,63.9L9.6,64.9L9.8,65.4L9.9,66.7L10.6,68.5L11.5,70.4L12.7,72.3L13.9,73.8L15.6,75.7L17.9,77.4L20.0,78.6L21.8,79.3L24.4,80.1L26.0,80.3L26.8,80.5L29.2,80.5L31.2,80.2L31.9,80.2L32.7,79.9L33.9,79.7L34.4,79.4L35.9,78.9L37.5,78.1L38.2,78.1L40.0,79.8L41.2,80.3L42.8,80.4L44.1,80.2L45.1,79.7L45.7,79.2L46.5,78.3L46.9,77.3L47.1,76.5L47.0,60.9L47.2,59.6L47.7,58.0L48.2,56.8L49.0,55.7L50.8,53.8L52.9,52.6L53.6,52.5L54.2,52.2L55.4,51.9L57.4,51.9L58.9,52.2L59.3,52.4L60.3,52.6L62.0,53.5L62.9,54.2L64.3,55.6L65.6,57.9L66.2,59.8L66.4,62.5L67.0,63.9L67.5,64.6L68.2,65.3L68.9,65.8L70.2,66.2L72.0,66.1L73.2,65.7L74.2,65.1L74.6,64.6L75.5,63.2L75.8,62.0L75.7,59.5L75.0,56.3L74.3,54.7Z M27.1,51.8L28.6,51.8L31.0,52.2L33.0,53.0L33.4,53.4L33.7,53.5L35.7,55.4L36.6,56.7L37.6,59.2L37.9,60.7L37.9,62.8L37.5,64.4L37.1,65.5L36.7,66.1L36.7,66.5L35.6,67.9L33.9,69.5L31.9,70.6L30.3,71.1L29.0,71.2L28.5,71.3L26.1,71.1L25.6,70.9L25.0,70.8L23.6,70.1L22.2,69.3L20.3,67.3L19.5,66.0L18.7,64.0L18.4,62.0L18.5,59.9L18.8,58.5L19.6,56.7L20.9,55.0L22.4,53.7L24.0,52.7L25.3,52.2Z" fill="#000" fill-rule="evenodd"/>
</svg>