<svg xmlns="http://www.w3.org/2000/svg" viewBox="0 0 128 128" width="128" height="128">
  <path d="M28.9,67.4L26.6,68.1L25.4,68.7L24.1,69.8L22.9,71.0L22.2,71.9L21.0,74.3L20.9,75.3L20.7,75.8L20.6,78.0L20.9,79.7L21.4,81.1L22.5,82.9L23.7,84.3L25.6,85.8L27.4,86.6L29.8,87.2L31.9,87.2L33.1,87.0L34.5,86.5L36.3,85.6L37.9,84.3L38.8,83.2L39.6,82.0L40.3,80.3L40.7,78.3L40.6,76.0L40.0,73.6L39.2,72.1L38.5,71.1L37.2,69.7L35.8,68.7L34.8,68.2L34.2,68.0L33.8,67.7L33.0,67.7L32.5,67.4L31.4,67.3Z M29.2,70.6L32.2,70.6L33.2,71.0L34.1,71.4L34.8,71.9L35.9,73.0L36.4,73.8L37.1,75.2L37.4,76.5L37.4,77.6L37.1,79.4L36.2,81.2L35.3,82.3L34.2,83.1L32.8,83.9L32.2,83.9L31.2,84.1L29.6,84.0L28.8,83.9L28.3,83.6L27.6,83.4L26.5,82.6L25.8,82.0L24.9,80.7L24.3,79.4L24.0,78.0L24.0,76.5L24.3,75.4L24.9,74.1L25.9,72.7L26.9,71.8L27.9,71.2L28.9,70.9Z M99.2,66.9L96.8,66.9L96.4,67.0L95.4,67.1L95.2,67.2L94.3,67.4L91.8,68.7L90.0,70.4L88.8,72.0L88.1,73.9L87.7,75.8L87.8,78.2L88.1,79.9L89.0,81.9L89.4,82.2L89.8,83.0L91.6,84.8L93.3,86.0L94.3,86.3L95.2,86.4L95.9,86.7L97.0,86.9L99.6,86.7L100.1,86.4L101.1,86.3L102.2,85.8L103.9,84.6L105.1,83.4L106.1,81.9L107.0,79.7L107.5,77.6L107.5,75.6L106.7,72.7L105.5,70.7L103.9,69.1L102.6,68.2L101.0,67.4L99.9,67.2Z M96.8,70.2L98.4,70.2L100.1,70.6L101.5,71.4L102.6,72.4L103.4,73.6L104.0,75.2L104.2,76.5L104.1,78.2L103.5,79.6L103.4,80.0L102.8,80.9L101.5,82.3L100.9,82.7L99.9,83.2L97.9,83.6L96.6,83.5L95.7,83.1L95.1,83.1L93.8,82.3L92.6,81.0L92.1,80.4L91.6,79.0L91.3,77.7L91.3,76.3L91.4,75.4L92.1,73.5L92.4,73.2L92.7,72.6L93.8,71.4L94.5,71.0L95.4,70.6Z M118.9,73.3L118.5,71.9L118.5,71.5L118.0,70.1L118.0,69.9L117.8,69.0L117.4,68.4L116.7,66.7L116.2,66.1L116.2,66.0L115.8,65.5L115.8,65.2L115.5,64.9L114.6,63.3L114.0,62.8L113.5,62.1L110.9,59.6L110.5,59.5L109.7,58.9L107.8,57.6L106.8,57.1L106.0,56.9L105.6,56.6L104.0,56.2L103.6,55.9L103.0,55.9L102.4,55.7L99.1,55.2L92.6,55.2L92.1,55.0L91.8,54.7L91.6,52.7L91.6,41.2L91.8,40.0L91.8,38.4L91.6,37.2L91.7,30.9L91.4,29.5L91.2,29.3L90.8,29.2L89.4,29.1L69.0,29.2L68.5,29.3L66.2,29.4L65.2,29.8L64.1,29.9L62.9,30.5L60.3,31.4L59.2,32.1L58.7,32.2L57.8,33.1L56.2,34.1L55.0,35.2L53.1,37.3L51.9,38.9L51.4,40.0L50.8,40.7L50.2,41.2L39.4,41.2L37.9,41.2L37.6,41.4L37.4,41.7L37.2,42.8L37.1,54.1L36.9,54.4L36.9,55.1L36.4,55.4L33.7,55.6L29.7,55.5L25.9,56.0L25.8,56.2L25.2,56.2L22.9,57.0L22.7,57.0L22.1,57.4L21.7,57.4L20.2,58.2L17.0,60.5L15.6,61.7L13.9,63.5L13.6,64.0L12.9,65.0L12.2,66.0L11.7,67.0L11.4,67.5L10.3,69.9L9.5,72.5L9.2,74.3L9.0,77.2L9.1,79.7L9.3,80.6L9.3,81.2L9.7,82.2L9.7,83.1L10.0,83.7L10.0,84.0L10.2,84.3L10.3,84.8L10.9,86.3L11.3,86.9L11.7,87.8L12.3,88.9L12.6,89.2L12.9,89.8L14.6,91.9L17.0,94.1L18.5,95.3L20.0,96.2L21.0,96.6L22.0,97.2L24.9,98.2L26.5,98.6L26.9,98.6L27.5,98.8L29.2,99.0L37.6,99.2L42.3,99.2L46.1,99.0L54.3,99.0L57.1,99.1L59.4,99.0L60.1,98.8L61.5,98.6L64.1,98.1L64.4,97.8L65.3,97.6L65.4,97.5L66.2,97.3L68.7,96.1L70.4,95.1L71.0,94.5L72.0,93.9L74.4,91.4L75.4,90.2L76.0,89.2L76.5,88.6L77.4,86.9L77.7,86.6L78.1,86.6L78.3,86.9L78.9,88.0L79.3,88.5L79.9,89.5L81.3,91.2L83.6,93.5L84.9,94.6L85.4,94.8L86.9,95.9L89.6,97.1L90.0,97.2L90.3,97.4L90.6,97.4L91.2,97.7L92.0,97.8L92.7,98.2L96.4,98.7L98.2,98.7L100.4,98.6L101.9,98.2L102.7,98.1L103.3,97.8L104.3,97.6L106.8,96.6L108.9,95.4L110.8,94.1L111.9,93.2L112.9,92.0L113.5,91.5L114.2,90.5L114.6,90.2L114.7,89.9L115.7,88.7L116.6,87.2L116.6,86.8L117.3,85.6L117.5,84.8L118.5,82.0L118.8,81.2L119.1,77.7L119.1,75.5Z M51.8,63.8L52.2,63.8L53.1,65.0L53.8,65.7L54.8,66.9L56.9,68.6L57.3,68.8L57.9,69.3L58.8,69.7L59.2,70.1L60.9,71.0L61.9,71.8L62.9,73.0L63.3,73.3L63.7,74.0L64.3,75.5L64.5,76.5L64.5,78.3L64.0,79.8L63.7,80.2L63.7,80.4L62.8,81.6L61.7,82.6L60.7,83.2L59.0,83.7L57.1,83.7L55.9,83.4L54.1,82.4L53.1,81.4L52.1,79.7L51.9,79.0L51.6,77.2L51.4,74.2L51.4,65.0L51.6,64.0Z M67.0,44.9L68.5,44.4L70.4,44.4L71.5,44.6L72.0,44.9L72.6,45.0L73.8,45.8L74.8,46.8L75.9,48.6L75.9,48.8L76.1,49.1L76.4,50.5L76.3,64.0L76.1,64.4L75.9,64.4L73.4,61.7L70.2,59.1L69.3,58.6L68.8,58.2L68.2,57.9L67.1,57.2L66.6,57.0L65.8,56.4L64.5,55.1L63.6,53.5L63.3,52.1L63.3,50.0L63.6,48.6L64.3,47.4L65.6,45.9Z M115.4,73.8L115.6,76.3L115.6,78.8L115.3,79.9L115.2,80.9L114.1,84.3L112.7,86.9L111.7,88.1L111.3,88.8L108.8,91.3L106.5,93.0L103.4,94.4L102.3,94.6L101.9,94.9L100.7,95.0L99.9,95.3L95.3,95.3L93.1,94.9L91.6,94.4L88.5,93.0L86.5,91.7L84.6,89.9L82.3,87.0L80.6,83.8L79.7,80.7L79.6,79.9L79.6,74.5L79.7,73.9L79.6,71.6L79.8,69.7L79.7,67.8L79.8,62.2L79.8,50.8L79.7,49.8L79.1,47.8L78.6,46.6L77.9,45.4L76.0,43.3L75.1,42.6L74.2,42.2L73.7,41.9L73.3,41.8L72.7,41.5L71.1,41.1L68.8,41.0L67.6,41.2L65.8,41.8L64.6,42.4L63.4,43.4L61.9,45.0L61.2,46.2L60.3,47.9L60.0,49.8L60.0,52.0L60.2,53.7L61.0,55.9L62.0,57.4L63.4,58.8L63.9,59.0L65.0,59.9L66.8,60.8L68.7,62.0L70.5,63.5L72.1,65.2L73.4,67.1L74.8,69.5L74.8,69.7L74.9,69.9L75.6,71.6L76.3,75.0L76.2,79.0L75.7,81.6L75.0,83.6L75.0,83.9L73.4,87.1L72.9,87.5L71.9,89.1L69.5,91.4L67.8,92.7L64.5,94.4L63.4,94.7L63.1,94.9L62.3,94.9L61.4,95.3L59.8,95.5L59.5,95.6L58.2,95.6L57.4,95.8L48.0,95.8L46.0,95.9L31.8,95.9L28.5,95.7L27.1,95.5L26.0,95.1L25.2,95.1L21.2,93.2L20.4,92.7L17.9,90.6L16.3,88.8L15.3,87.4L14.0,85.1L14.0,84.8L13.6,84.0L13.4,83.3L12.9,81.9L12.4,79.0L12.3,76.8L12.4,75.3L12.9,72.9L14.0,69.5L15.8,66.4L16.8,65.2L18.6,63.3L19.5,62.8L20.2,62.1L22.1,60.9L24.1,60.0L24.6,59.9L25.6,59.5L26.7,59.2L27.6,59.1L28.3,58.9L29.8,58.9L30.3,58.8L40.0,58.6L40.3,58.2L40.5,57.3L40.4,46.4L40.6,44.9L40.9,44.6L41.4,44.4L47.5,44.4L48.0,44.6L48.2,44.9L48.3,48.4L48.2,51.4L48.2,55.9L48.1,60.9L48.2,62.2L48.0,76.3L48.2,78.5L48.7,80.7L49.6,82.4L50.3,83.4L51.7,84.8L52.6,85.6L54.8,86.6L56.3,87.0L57.5,87.1L59.5,87.0L60.4,86.8L61.1,86.7L61.9,86.3L62.1,86.3L64.1,85.1L65.7,83.7L65.9,83.2L66.7,82.2L67.5,80.6L67.7,79.7L67.8,79.4L68.0,78.4L68.1,76.9L67.9,74.9L67.6,73.8L67.3,73.3L67.1,72.7L66.7,72.1L66.4,71.5L64.9,69.7L63.3,68.5L60.2,66.8L59.4,66.1L57.9,65.1L56.0,63.3L54.3,60.8L54.3,60.6L53.6,59.6L53.1,58.6L52.3,56.2L51.7,53.1L51.6,49.7L51.8,49.2L51.9,47.5L53.1,43.9L54.3,41.4L56.5,38.4L59.1,36.1L60.4,35.1L61.0,34.9L62.3,34.1L63.9,33.4L64.6,33.4L66.1,32.9L67.5,32.7L68.3,32.5L70.4,32.6L73.2,32.4L74.0,32.5L85.8,32.4L87.7,32.6L88.1,32.9L88.2,33.6L88.2,36.6L88.4,37.3L88.4,38.6L88.1,40.6L88.1,58.0L88.5,58.4L88.9,58.5L96.0,58.6L96.5,58.4L97.3,58.4L101.2,58.8L102.8,59.3L104.1,59.6L105.8,60.4L107.5,61.5L107.7,61.5L108.6,62.2L110.0,63.5L110.4,63.8L111.7,65.1L112.4,66.2L113.8,68.5L114.4,69.9L114.5,70.5L115.0,71.9L115.1,72.6Z" fill="#000" fill-rule="evenodd"/>
</svg>