<svg xmlns="http://www.w3.org/2000/svg" viewBox="0 0 128 128" width="128" height="128">
  <path d="M112.5,71.5L112.0,71.4L110.3,73.0L105.7,77.9L102.1,81.3L101.5,82.1L89.6,94.0L85.7,98.2L82.9,100.8L77.1,106.9L67.1,116.9L67.0,117.2L66.1,118.0L66.0,118.4L66.2,118.5L94.5,118.5L95.7,118.4L111.7,118.5L112.0,118.4L112.4,118.0L112.5,116.3L112.5,108.0L112.7,102.6L112.7,72.0Z M63.2,70.6L45.0,70.5L16.6,70.8L15.9,71.1L15.7,71.4L15.6,74.7L15.7,84.8L15.5,89.7L15.6,95.1L15.5,105.2L15.5,118.4L15.7,118.9L16.1,119.1L35.9,119.1L38.0,119.0L38.3,118.6L38.5,117.9L38.5,114.7L38.5,99.8L38.7,87.8L38.8,87.5L39.3,87.1L40.3,87.2L40.6,87.5L40.7,87.9L40.7,98.3L40.5,105.2L40.5,118.4L40.7,118.7L41.1,118.9L51.1,118.9L54.8,118.7L57.2,118.8L62.4,118.7L62.8,118.6L63.2,118.4L63.4,116.8L63.5,112.1L63.4,107.9L63.6,101.0L63.5,95.3L63.7,71.3L63.6,70.9Z M110.0,70.3L101.5,70.3L97.8,70.5L67.0,70.4L65.9,70.5L65.4,70.8L65.3,102.4L65.4,108.1L65.1,114.8L65.3,115.4L65.9,115.5L67.6,113.8L69.6,111.9L77.2,104.3L79.4,102.0L96.8,84.6L97.5,83.8L101.5,79.7L102.2,79.2L103.6,77.7L110.2,71.1L110.3,70.6Z M65.9,21.0L65.4,21.5L65.4,68.3L66.0,68.7L75.8,68.9L107.5,68.9L111.8,68.8L112.3,68.7L112.6,68.1L112.7,67.6L112.7,53.9L112.6,53.2L112.4,52.8L112.0,52.6L89.3,52.6L88.9,52.5L88.5,52.1L88.4,51.6L88.9,51.1L89.4,51.0L107.9,51.0L111.9,50.8L112.5,50.4L112.7,49.5L112.7,35.7L112.9,23.0L112.7,21.8L112.4,21.5L112.0,21.4L96.1,21.2L93.0,21.0L90.6,21.2L90.2,21.6L90.1,35.9L90.0,36.6L89.7,36.9L88.9,37.0L88.7,36.9L88.3,36.3L88.2,21.7L87.8,21.1L81.8,21.0L76.4,21.0L71.3,20.9Z M63.4,9.8L63.1,9.6L60.6,9.5L48.8,9.4L48.0,9.2L42.3,9.2L41.3,9.4L40.9,9.8L40.8,39.8L40.7,51.8L40.4,52.5L40.1,52.7L39.3,52.6L38.8,52.0L38.8,21.1L38.1,20.6L27.7,20.4L17.7,20.4L16.5,20.6L16.1,21.0L15.9,23.9L16.0,35.3L15.8,38.4L15.9,41.9L15.7,67.8L15.8,68.4L16.2,68.8L61.0,68.8L63.1,68.7L63.4,68.6L63.7,68.0L63.7,56.7L63.7,15.7L63.7,10.5Z" fill="#000" fill-rule="evenodd"/>
</svg>