<svg xmlns="http://www.w3.org/2000/svg" viewBox="0 0 128 128" width="128" height="128">
  <path d="M8.3,29.9L8.3,30.1L9.0,30.7L9.8,31.2L10.4,31.7L10.8,31.9L11.2,32.2L11.6,32.4L11.9,32.6L13.2,33.4L14.2,34.1L14.7,34.3L15.3,34.8L15.8,35.0L17.0,35.9L17.2,35.9L17.8,36.4L17.9,36.4L18.5,36.8L19.5,37.4L20.9,38.2L21.4,38.6L21.6,38.6L21.9,38.9L23.5,39.8L23.9,40.1L24.4,40.3L24.8,40.6L25.0,40.7L26.1,41.5L26.6,41.7L26.7,41.8L27.7,42.4L28.0,42.6L29.1,43.2L30.1,43.9L30.2,43.9L30.6,44.2L32.8,45.5L33.5,46.0L34.4,46.5L35.4,47.1L35.5,47.2L36.7,48.0L36.9,48.0L37.6,48.5L38.0,48.7L39.5,49.6L41.6,50.9L42.8,51.7L43.1,51.8L43.7,52.2L44.6,52.7L44.8,52.9L45.0,52.9L45.1,53.0L46.0,53.6L46.2,53.7L46.5,53.9L46.7,54.0L47.9,54.7L48.2,54.9L48.5,55.1L49.7,55.9L50.9,56.6L51.9,57.3L52.4,57.5L52.8,57.8L53.1,57.9L53.7,58.3L54.5,58.7L54.8,59.0L54.9,59.0L55.4,59.4L57.0,60.3L57.4,60.6L57.8,60.7L57.9,60.9L58.7,61.3L59.0,61.5L60.1,62.1L60.5,62.4L61.7,63.1L61.9,63.3L62.0,63.3L62.4,63.6L63.0,63.9L63.1,64.0L63.4,64.3L63.4,64.4L62.8,64.9L62.3,65.1L61.3,65.8L60.9,66.0L59.7,66.8L59.1,67.0L58.6,67.4L57.5,68.0L56.7,68.5L56.4,68.7L55.3,69.4L55.0,69.5L54.2,70.0L54.1,70.1L53.6,70.4L53.0,70.7L52.3,71.2L52.0,71.3L51.7,71.5L50.7,72.1L50.6,72.2L49.8,72.6L49.4,72.9L48.9,73.1L48.6,73.4L47.4,74.1L47.0,74.4L45.6,75.2L45.4,75.3L44.6,75.7L44.0,76.1L43.9,76.2L42.9,76.8L42.1,77.2L41.7,77.5L41.1,77.8L40.8,78.1L40.4,78.2L39.9,78.6L39.2,78.9L39.0,79.1L36.7,80.4L34.3,82.0L34.0,82.1L33.5,82.4L33.5,82.4L33.0,82.7L32.8,82.8L30.9,84.0L30.7,84.1L29.3,85.0L28.2,85.6L27.6,86.0L27.4,86.0L26.6,86.5L26.5,86.6L26.3,86.7L26.2,86.8L25.3,87.4L24.8,87.6L24.4,87.9L24.2,88.0L23.6,88.4L23.4,88.4L22.1,89.3L21.8,89.4L21.3,89.7L21.1,89.8L20.6,90.1L20.1,90.4L19.3,90.9L19.2,90.9L19.1,91.1L18.6,91.3L18.3,91.5L17.7,91.9L17.3,92.2L16.9,92.3L16.8,92.4L16.4,92.6L15.8,93.0L14.6,93.8L14.2,94.0L13.6,94.3L13.2,94.6L12.9,94.7L12.3,95.1L10.6,96.1L8.5,97.5L8.3,97.7L8.3,97.9L8.4,97.9L8.8,98.0L16.9,98.0L17.6,98.0L22.3,98.1L22.9,98.1L27.4,98.2L30.6,98.2L34.2,98.3L46.5,98.3L48.7,98.4L49.2,98.3L54.5,98.4L63.6,98.4L63.8,98.3L64.2,98.3L64.4,98.4L64.8,98.3L66.0,98.4L80.8,98.4L81.7,98.3L94.4,98.3L96.3,98.3L99.7,98.3L106.2,98.2L112.3,98.3L113.7,98.2L114.5,98.2L119.2,98.2L119.3,98.2L119.5,98.0L119.5,97.6L119.5,96.2L119.6,95.3L119.6,92.9L119.7,89.4L119.6,87.6L119.7,82.8L119.7,82.0L119.8,81.5L119.8,64.8L119.8,64.7L119.8,64.3L119.8,63.6L119.8,61.8L119.9,61.4L119.9,40.4L119.8,39.1L119.8,34.4L119.8,33.9L119.8,30.8L119.7,30.6L119.6,30.5L119.2,30.4L112.9,30.3L109.3,30.3L107.7,30.2L105.1,30.2L94.7,30.1L84.8,30.1L70.4,30.0L68.6,30.0L66.9,29.9L64.3,29.9L63.7,30.0L63.4,29.9L60.1,29.9L49.7,29.9L48.4,29.8L45.7,29.9L42.9,29.8L41.7,29.8L40.0,29.8L32.8,29.8L31.3,29.7L29.6,29.8L27.0,29.7L24.2,29.8L21.2,29.8L20.0,29.7L12.8,29.7L11.8,29.8L9.1,29.8L8.4,29.8Z M64.3,64.9L64.5,64.9L64.9,65.1L65.9,65.7L66.5,66.0L67.8,66.8L68.0,66.9L68.6,67.3L69.2,67.7L69.4,67.8L69.6,67.9L70.2,68.3L70.5,68.4L70.6,68.5L71.0,68.7L71.6,69.2L72.3,69.5L74.1,70.7L74.9,71.1L75.1,71.3L76.1,71.8L76.2,71.9L78.3,73.2L78.8,73.5L80.0,74.2L81.0,74.9L81.7,75.2L82.0,75.4L83.0,76.0L83.5,76.4L83.9,76.5L84.3,76.8L84.4,76.9L84.8,77.1L85.0,77.3L85.3,77.5L85.8,77.7L86.2,78.0L86.4,78.1L87.0,78.5L87.3,78.6L87.6,78.9L88.0,79.1L88.5,79.4L88.9,79.6L89.0,79.7L89.5,80.0L89.9,80.2L90.1,80.3L90.4,80.6L90.6,80.6L90.8,80.8L91.2,81.0L91.5,81.2L91.5,81.4L91.3,81.6L89.4,82.8L89.2,82.8L88.6,83.3L88.0,83.5L87.1,84.2L86.6,84.4L86.1,84.8L85.6,85.0L84.9,85.5L83.6,86.2L83.2,86.5L82.6,86.8L82.4,87.0L82.0,87.2L81.5,87.5L81.3,87.6L81.0,87.8L80.7,87.9L79.8,88.5L79.4,88.8L78.5,89.3L76.0,90.8L75.2,91.3L73.4,92.4L73.1,92.6L72.7,92.8L72.5,92.9L71.8,93.4L71.4,93.6L70.6,94.1L70.0,94.4L69.5,94.7L69.4,94.8L69.0,95.0L68.0,95.6L67.9,95.7L67.6,95.8L67.2,96.0L67.0,96.1L65.8,96.8L65.4,97.0L65.1,97.3L64.4,97.8L64.2,97.8L64.1,97.7L64.0,97.3L64.0,94.1L64.1,93.7L64.1,91.0L64.0,87.9L64.1,84.6L64.0,83.9L64.1,83.6L64.0,83.3L64.0,78.7L64.1,76.7L64.1,73.8L64.1,71.2L64.1,65.3L64.2,65.1Z M92.5,48.0L92.6,48.0L93.6,48.5L95.2,49.6L95.7,49.8L95.9,50.0L96.1,50.1L97.3,50.9L98.1,51.3L99.2,52.0L99.4,52.1L100.5,52.8L101.9,53.6L102.0,53.7L103.0,54.3L103.3,54.6L104.7,55.4L104.9,55.5L105.1,55.6L105.5,55.8L106.9,56.8L108.0,57.3L108.8,57.9L109.2,58.1L109.4,58.3L109.9,58.6L110.4,59.0L110.6,59.1L110.8,59.2L111.1,59.3L111.9,59.9L112.0,59.9L112.5,60.2L113.1,60.5L114.6,61.5L115.1,61.8L115.8,62.2L117.6,63.3L117.8,63.4L118.2,63.6L118.5,63.9L119.3,64.4L119.4,64.5L119.4,64.6L119.1,64.9L118.8,65.0L118.5,65.3L118.4,65.3L118.2,65.5L117.8,65.7L117.2,66.1L115.9,66.8L115.8,67.0L114.6,67.6L114.0,68.0L113.9,68.1L112.7,68.8L112.6,68.8L112.4,69.0L112.2,69.1L111.3,69.6L111.1,69.7L110.7,70.0L109.4,70.7L108.3,71.4L106.7,72.4L106.6,72.5L106.0,72.8L105.5,73.2L105.4,73.2L104.8,73.6L104.5,73.7L102.7,74.8L101.9,75.2L101.6,75.5L101.5,75.5L101.1,75.8L100.6,76.0L100.2,76.3L99.3,76.8L99.2,76.9L98.5,77.4L98.2,77.5L97.6,77.9L97.4,77.9L96.8,78.3L96.5,78.5L95.4,79.2L95.1,79.3L94.8,79.6L94.6,79.6L93.9,80.1L93.3,80.4L92.7,80.8L92.4,80.7L92.3,80.6L92.2,80.4L92.2,74.9L92.3,72.8L92.3,55.4L92.3,53.0L92.4,52.4L92.3,50.6L92.3,48.4L92.4,48.2Z M64.0,30.5L64.3,30.5L66.3,31.8L66.5,31.9L67.6,32.5L68.0,32.8L68.7,33.2L69.7,33.9L70.4,34.3L70.8,34.6L70.9,34.6L71.4,34.9L72.3,35.4L72.6,35.7L73.5,36.2L73.8,36.4L74.6,36.8L75.2,37.2L77.8,38.8L78.1,39.1L78.3,39.1L79.2,39.7L79.8,40.0L80.0,40.2L80.6,40.6L81.1,40.9L81.1,40.9L81.6,41.2L82.8,41.9L82.9,42.0L83.2,42.1L83.7,42.5L84.2,42.8L84.7,43.2L85.7,43.7L86.4,44.2L86.6,44.3L87.3,44.7L88.2,45.3L88.4,45.4L89.3,46.0L89.5,46.1L89.9,46.3L90.8,46.9L91.0,47.0L91.5,47.4L91.5,47.5L91.2,47.8L90.2,48.4L89.0,49.1L88.8,49.3L88.3,49.5L87.3,50.2L87.0,50.3L86.8,50.5L86.3,50.8L84.4,52.0L83.6,52.4L82.5,53.1L81.9,53.4L80.6,54.3L80.2,54.4L79.4,55.0L79.2,55.1L75.1,57.6L74.5,57.9L74.2,58.1L73.8,58.3L73.0,58.8L71.4,59.7L70.3,60.4L69.0,61.1L68.7,61.4L67.6,62.0L67.4,62.1L67.1,62.3L66.2,62.9L65.9,63.0L65.8,63.1L64.5,63.8L64.3,63.8L64.2,63.7L64.1,61.6L64.1,52.4L64.1,50.1L64.1,49.0L64.0,39.6L63.8,32.5L63.8,30.9L63.9,30.5Z" fill="#000" fill-rule="evenodd"/>
</svg>