<svg xmlns="http://www.w3.org/2000/svg" viewBox="0 0 128 128" width="128" height="128">
  <path d="M118.5,55.2L117.5,50.3L117.3,49.7L117.0,48.4L116.5,47.0L116.3,45.9L115.0,42.6L114.3,42.0L106.1,41.9L102.0,42.1L93.9,42.1L90.6,42.3L81.9,42.3L80.6,42.3L79.9,42.8L80.0,55.0L80.1,55.9L80.7,56.3L90.8,56.4L93.0,56.2L96.2,56.3L102.1,56.1L117.1,56.0L117.8,56.0L118.3,55.7Z M62.9,9.1L56.9,9.6L52.2,10.5L49.7,11.2L48.7,11.6L47.8,11.8L47.4,12.0L46.4,12.2L46.0,12.5L43.6,13.3L38.3,15.9L33.0,19.3L30.8,20.9L30.5,21.3L28.1,23.2L25.2,26.0L22.8,28.6L21.5,30.4L21.0,30.9L20.4,31.9L19.6,32.8L19.5,33.2L17.8,35.7L17.0,37.1L16.2,38.3L16.1,38.8L15.8,39.2L13.3,44.9L11.7,49.5L10.6,54.3L9.8,60.4L9.8,62.0L9.7,63.1L9.7,65.7L10.1,71.6L11.1,76.9L11.6,78.5L11.9,80.1L12.3,81.0L12.9,83.0L13.3,84.0L13.6,85.0L14.3,86.5L15.1,88.3L16.7,91.4L18.1,93.6L18.4,94.3L19.3,95.4L20.3,97.0L23.4,100.8L27.3,104.8L31.0,107.8L33.7,109.9L35.0,110.5L35.3,110.9L38.6,112.7L39.0,112.9L39.3,113.1L44.3,115.3L49.8,117.2L50.6,117.3L51.8,117.7L52.7,117.8L53.6,118.1L54.9,118.2L57.6,118.7L58.5,118.7L59.8,118.9L64.7,119.1L69.2,118.9L74.7,118.1L75.3,117.9L78.4,117.2L80.5,116.5L81.4,116.3L82.1,115.9L84.0,115.3L84.7,114.9L86.8,114.2L87.4,113.8L88.1,113.6L89.9,112.7L90.8,112.0L92.2,111.3L95.6,109.1L100.6,105.2L102.3,103.5L102.7,103.4L102.7,103.1L104.5,101.3L105.3,100.3L105.3,100.0L105.1,99.8L97.0,99.8L84.6,99.9L84.1,99.8L83.7,99.4L83.6,97.3L83.7,93.7L83.5,92.3L83.7,85.7L84.2,85.3L102.7,85.2L105.8,85.0L111.1,85.1L114.6,84.9L115.0,84.7L115.4,84.0L116.1,82.1L116.9,79.4L117.2,78.7L118.5,72.8L118.6,71.1L118.3,70.9L117.8,70.7L110.9,70.7L110.4,71.0L109.7,71.0L109.2,70.7L97.4,71.0L83.8,71.0L80.6,71.2L80.3,71.5L80.1,72.0L80.1,87.0L80.3,92.9L80.1,99.5L79.5,100.0L72.7,100.0L70.2,100.2L65.5,100.2L64.8,99.8L64.7,99.1L64.5,87.4L64.6,84.7L64.3,75.9L64.4,71.1L64.2,66.5L64.2,47.6L64.1,43.2L64.1,29.0L64.2,28.3L64.8,27.9L74.4,27.7L82.1,27.7L85.7,27.5L90.3,27.6L91.6,27.4L102.1,27.4L104.1,27.3L104.8,27.1L104.8,26.8L103.8,25.6L101.8,23.6L98.5,20.8L95.9,18.9L91.2,15.9L90.2,15.5L89.4,15.0L88.7,14.8L87.4,14.0L86.6,13.8L86.3,13.6L81.3,11.7L79.9,11.4L78.9,10.9L76.0,10.3L75.0,10.2L72.2,9.6L69.3,9.3L66.4,9.1Z" fill="#000" fill-rule="evenodd"/>
</svg>