<svg xmlns="http://www.w3.org/2000/svg" viewBox="0 0 128 128" width="128" height="128">
  <path d="M115.5,17.7L114.3,17.5L110.2,17.8L106.7,17.7L103.4,17.9L91.9,17.8L91.1,17.1L91.0,12.6L90.8,10.0L90.3,9.4L90.0,9.3L85.2,9.5L84.7,9.7L84.1,10.4L84.1,11.0L83.7,12.1L82.7,13.7L81.5,14.5L80.5,14.9L78.3,15.2L61.3,15.2L57.7,15.5L56.3,15.8L55.8,16.1L55.3,16.2L53.3,17.4L51.6,19.3L50.5,21.2L49.6,23.8L48.9,29.4L48.4,29.8L47.7,30.0L45.3,29.9L43.3,30.2L41.2,30.3L40.4,30.6L38.4,30.8L35.8,31.5L35.4,31.8L34.0,32.1L31.0,33.7L30.2,34.3L29.8,34.4L27.6,36.1L26.9,37.0L25.9,37.7L24.0,39.8L23.3,41.1L21.9,43.0L20.4,46.0L20.1,47.2L19.6,48.3L18.7,52.6L18.7,55.9L19.2,59.3L19.6,60.6L19.6,61.0L20.2,62.9L21.1,64.6L21.2,65.0L21.6,65.7L21.6,66.4L21.2,67.1L20.2,68.1L19.9,68.6L18.6,70.2L17.3,72.2L16.5,73.2L16.3,73.8L15.9,74.3L14.1,77.8L13.3,80.0L12.8,82.2L12.8,82.7L12.6,83.0L12.0,87.3L12.1,92.2L12.4,94.0L12.5,95.2L13.3,98.2L15.3,103.1L16.1,104.4L16.6,105.0L16.7,105.4L17.8,106.9L20.3,109.7L23.3,112.5L25.3,113.8L26.8,114.9L29.2,116.2L30.8,116.7L31.4,117.0L32.2,117.2L33.2,117.7L34.8,117.9L35.6,118.3L37.7,118.5L38.1,118.7L40.3,119.0L44.5,118.9L47.3,118.5L49.9,117.9L54.9,116.1L58.6,114.1L59.4,113.5L59.9,113.3L62.2,111.4L64.8,108.9L67.1,106.2L69.8,101.8L70.9,99.4L70.9,99.1L71.9,96.3L72.4,93.7L72.8,87.9L72.8,84.7L72.6,83.2L72.3,82.4L71.3,81.4L70.5,81.0L69.9,81.0L69.3,81.2L68.3,82.2L68.0,83.7L68.1,89.4L67.1,95.8L66.7,96.4L66.0,98.8L65.0,100.8L63.5,103.2L62.1,104.9L58.8,108.1L57.3,109.3L53.6,111.4L53.0,111.5L51.3,112.3L46.7,113.7L43.5,114.1L39.2,114.0L34.8,113.1L32.5,112.3L28.0,109.9L25.0,107.6L22.1,104.4L20.2,101.3L19.1,98.9L18.4,98.2L18.4,97.4L18.2,97.0L18.2,96.4L17.4,94.0L17.0,90.3L17.2,85.4L18.3,80.9L18.9,78.9L19.5,77.6L19.9,77.2L20.7,75.5L21.3,75.0L22.0,73.8L22.5,73.4L24.4,71.4L24.7,71.3L25.3,71.3L26.0,71.6L27.9,73.4L29.3,74.2L30.4,75.0L33.1,76.4L34.8,76.9L36.9,77.7L38.2,77.9L39.3,78.3L44.5,78.4L47.3,77.6L49.0,77.0L51.9,75.2L54.1,72.9L55.2,70.9L55.7,69.2L55.7,67.0L55.5,65.7L55.1,64.6L54.5,63.4L52.6,61.5L51.1,60.4L48.6,59.3L47.3,58.9L45.0,58.6L43.3,58.5L38.3,58.6L37.4,58.9L37.0,58.9L36.2,59.2L33.4,59.8L31.4,60.7L30.3,60.9L28.5,61.8L27.9,61.9L27.6,62.2L27.1,62.4L26.4,62.4L25.8,61.9L24.7,59.5L24.1,56.7L24.1,53.5L24.6,50.3L25.6,47.3L26.8,45.0L27.7,44.1L28.3,43.1L30.0,41.2L31.9,39.6L34.1,38.2L35.9,37.4L38.4,36.6L39.9,36.3L41.0,36.3L41.5,36.1L47.0,35.9L48.4,36.0L48.9,36.3L49.1,36.9L49.3,39.7L49.5,41.1L49.5,42.2L50.5,46.7L51.8,49.2L53.2,50.4L54.7,51.3L57.1,52.2L59.9,52.6L66.3,52.5L77.3,52.5L78.4,52.3L81.0,52.4L82.9,53.1L84.3,54.6L84.9,55.7L85.1,56.6L85.8,57.1L88.7,57.2L89.2,57.0L90.5,57.0L91.0,56.8L91.2,56.5L91.3,50.4L91.6,49.7L92.0,49.3L93.0,49.1L96.1,49.0L102.7,49.1L103.9,48.9L105.5,49.0L114.3,48.6L115.1,48.4L115.9,47.5L115.9,46.8L116.1,46.3L116.2,44.3L115.9,43.6L115.5,43.2L114.8,42.9L102.3,43.3L98.5,43.2L97.4,43.3L92.1,43.3L91.8,42.9L91.6,42.3L91.2,37.6L91.1,24.2L91.8,23.6L92.8,23.5L103.9,23.5L109.8,23.2L113.8,23.2L115.6,22.9L116.0,22.4L116.3,21.4L116.3,19.7L116.1,18.8L115.8,18.0Z M50.6,67.0L50.6,68.1L50.3,69.4L49.8,70.2L49.3,70.8L46.7,72.3L44.3,72.9L41.9,73.0L40.4,72.7L39.6,72.7L36.0,71.8L34.5,71.2L32.0,69.8L30.4,68.3L29.9,67.6L30.0,67.1L30.5,66.7L31.9,65.9L36.1,64.2L38.6,63.7L43.7,63.3L45.4,63.5L48.5,64.5L49.5,65.0L50.2,65.8Z M115.6,46.6L114.8,47.4L113.5,47.7L108.6,47.9L106.0,47.8L103.3,48.0L92.1,48.1L91.7,47.7L91.6,47.4L91.5,45.1L92.0,44.5L92.3,44.4L94.6,44.4L95.5,44.3L99.3,44.3L106.4,44.2L109.6,43.9L113.8,43.9L114.6,44.0L115.3,44.6L115.5,45.0Z M115.5,20.5L115.4,21.2L114.7,21.9L114.3,22.0L92.4,22.5L91.9,22.5L91.5,22.1L91.3,21.5L91.3,19.5L91.7,19.1L92.0,19.0L113.8,18.6L114.5,18.7L115.3,19.4Z" fill="#000" fill-rule="evenodd"/>
</svg>