<svg xmlns="http://www.w3.org/2000/svg" viewBox="0 0 128 128" width="128" height="128">
  <path d="M65.6,76.2L65.5,88.6L65.6,90.6L66.0,91.2L80.2,91.4L96.6,91.3L109.6,91.4L112.3,91.3L118.3,91.3L118.5,90.9L118.6,79.7L118.8,76.2L118.7,76.0L118.2,75.7L105.5,75.6L101.8,75.8L92.0,75.8L85.1,75.6L66.6,75.6L65.9,75.8Z M9.1,75.4L9.0,89.2L9.2,90.2L9.7,90.5L11.9,90.7L15.0,90.6L16.9,90.8L21.0,90.7L30.9,90.9L32.7,90.8L35.6,91.0L49.6,91.1L55.0,91.1L58.3,91.2L61.6,91.1L62.2,90.8L62.3,87.3L62.3,76.4L62.2,75.9L61.8,75.6L51.1,75.6L42.9,75.4L41.0,75.5L36.2,75.3L26.3,75.3L25.5,75.3L24.1,75.2L21.2,75.3L10.4,75.0L9.5,75.0Z M9.1,56.5L9.2,59.3L9.0,61.5L9.0,68.0L9.2,68.6L9.2,71.0L9.5,71.5L39.1,72.0L57.0,72.0L59.1,72.1L61.8,72.0L62.2,71.7L62.2,71.5L62.4,58.9L62.3,56.8L61.9,56.5L56.9,56.5L53.7,56.3L47.6,56.4L41.7,56.2L34.1,56.2L32.3,56.1L22.2,56.1L11.3,55.8L9.5,55.9Z M65.8,38.1L65.7,51.3L65.8,52.4L65.9,52.7L66.2,52.9L91.5,53.1L95.0,53.0L98.6,53.2L114.2,53.3L117.9,53.4L118.6,53.3L118.9,53.1L119.0,52.9L119.2,44.7L119.2,38.1L118.8,37.8L116.9,37.9L111.5,37.7L96.3,37.8L92.9,37.6L68.8,37.6L67.8,37.5L66.3,37.5Z M9.2,37.6L9.2,41.3L9.3,42.2L9.3,45.1L9.2,45.8L9.2,51.8L9.5,52.2L9.8,52.4L22.5,52.5L25.0,52.4L28.0,52.6L28.9,52.5L34.4,52.7L40.9,52.6L49.7,52.8L52.8,52.7L56.0,52.9L61.8,52.9L62.3,52.6L62.5,49.5L62.5,38.3L62.4,37.8L62.0,37.5L46.8,37.5L44.3,37.4L38.0,37.5L35.8,37.3L23.2,37.2L20.4,37.0L14.4,37.0L13.5,36.9L10.1,36.9L9.5,37.1Z" fill="#000" fill-rule="evenodd"/>
</svg>