<svg xmlns="http://www.w3.org/2000/svg" viewBox="0 0 128 128" width="128" height="128">
  <path d="M92.9,94.6L92.7,94.5L91.8,94.8L90.5,96.1L89.7,97.5L89.7,98.0L90.2,98.0L90.6,97.5L90.8,97.0L91.5,96.1L92.9,94.9Z M92.7,87.6L92.7,87.8L94.4,88.2L95.4,89.1L96.8,89.6L97.2,90.0L98.6,90.8L99.5,90.6L97.9,89.3L95.9,88.2L95.3,88.1L94.2,87.7Z M85.1,71.9L84.9,72.0L84.9,72.3L85.1,72.3Z M80.2,41.4L79.8,42.1L79.8,48.7L79.6,49.7L79.6,50.7L79.1,53.0L79.1,53.6L78.9,53.7L78.2,55.7L77.7,56.3L77.6,56.7L78.0,56.4L78.0,56.3L78.9,55.1L79.4,53.5L80.0,51.0L80.0,50.1L80.1,49.3L80.2,42.2L80.9,41.8L82.9,41.8L84.8,42.0L85.1,42.3L85.1,60.7L84.9,68.1L85.1,68.4L85.1,69.0L84.9,69.7L85.2,70.6L85.2,58.8L85.4,54.7L85.2,52.2L85.4,50.5L85.4,41.7L84.9,41.4Z M100.2,38.6L99.7,38.6L97.1,40.0L96.8,40.3L96.0,40.5L95.3,41.2L94.9,41.3L93.9,41.4L93.7,41.7L95.2,41.7L95.4,41.5L96.6,41.3L97.5,41.0L100.1,39.4L100.3,39.0Z M91.0,31.3L91.0,31.8L91.5,32.7L92.2,33.7L92.7,34.3L93.4,34.7L94.0,34.7L93.8,34.2L92.5,33.1L91.9,32.2L91.8,31.7L91.3,31.2Z M101.7,22.9L101.8,23.3L102.0,23.3L102.0,23.1Z M86.5,22.5L86.4,22.7L86.6,23.1L86.9,23.2Z M106.9,20.9L106.9,21.2L107.4,21.6L107.7,22.3L108.2,23.1L108.6,23.2L109.2,23.2L109.4,23.1L109.2,22.5L107.7,20.9Z M18.3,9.4L18.1,9.9L18.1,13.6L18.2,14.7L18.4,14.9L29.2,15.3L35.1,15.3L36.4,15.6L36.5,19.5L36.5,23.8L36.4,28.6L36.4,37.9L36.2,42.1L36.3,54.5L36.1,57.6L36.1,76.2L35.7,112.2L35.4,112.7L33.6,112.9L28.4,112.7L17.9,112.7L17.5,113.0L17.5,113.5L17.4,117.3L17.5,118.3L18.0,118.5L19.3,118.4L32.1,118.7L39.8,118.6L49.9,118.8L78.1,118.7L85.6,118.9L109.4,118.9L109.6,118.3L109.6,118.0L108.8,118.6L97.5,118.6L88.6,118.4L68.8,118.5L60.4,118.3L59.5,118.5L58.3,118.3L51.3,118.4L44.1,118.2L42.0,118.3L18.4,118.1L17.8,117.5L17.9,113.7L18.2,113.3L22.2,113.2L27.0,113.4L35.8,113.4L36.2,112.9L36.4,103.5L36.4,84.3L36.5,78.7L36.5,73.2L36.6,65.5L36.5,51.3L36.8,36.6L36.8,15.3L36.5,14.9L35.6,14.8L32.5,14.9L30.3,14.7L28.8,14.8L19.0,14.6L18.5,14.1L18.5,10.6L18.7,10.1L19.4,9.8L22.6,9.8L32.7,10.0L39.6,10.0L45.0,10.2L46.7,10.1L50.7,10.3L51.7,10.2L53.8,10.3L53.9,10.7L51.3,11.2L20.0,10.7L19.5,11.2L19.4,13.2L19.7,13.7L20.3,13.9L36.4,14.1L37.2,14.2L37.7,14.7L37.8,26.2L37.6,30.7L37.7,33.2L37.4,65.8L37.4,69.5L37.2,93.7L37.2,106.4L37.0,113.1L36.8,113.5L36.1,114.0L33.2,114.1L19.5,113.8L19.2,113.9L18.8,114.4L18.8,116.8L19.1,117.1L19.6,117.2L30.7,117.3L61.0,117.3L69.6,117.5L85.8,117.4L92.3,117.6L106.8,117.6L107.9,117.4L108.2,117.1L108.3,110.7L108.9,109.7L109.2,109.7L109.6,110.3L109.7,105.5L109.6,104.8L109.0,104.9L108.4,104.2L108.3,99.8L108.5,78.9L108.2,78.5L107.7,78.3L105.9,78.3L105.8,78.2L105.7,77.9L105.9,77.6L106.6,77.4L108.8,77.5L109.4,77.7L109.8,78.2L109.8,77.4L109.1,77.1L107.6,77.2L106.4,77.1L105.8,76.9L105.0,75.3L104.1,74.4L103.1,74.1L101.7,74.1L100.7,74.4L99.8,74.8L98.7,75.8L98.0,77.1L97.2,79.4L97.2,81.7L97.3,82.2L97.6,79.5L98.1,78.2L98.1,77.8L98.6,76.6L99.5,75.6L100.9,74.7L103.0,74.6L104.4,75.3L104.8,75.8L104.8,76.1L104.5,76.6L104.0,76.7L103.4,76.2L103.0,76.0L102.6,76.0L102.2,76.3L102.1,76.7L101.7,77.2L100.8,77.5L100.7,77.9L101.2,78.1L101.5,78.3L101.6,78.9L101.0,79.0L99.9,80.4L99.5,81.6L99.3,84.3L99.1,84.9L98.7,85.2L97.8,85.0L97.4,85.4L97.1,85.4L96.3,84.9L95.3,84.5L94.8,84.0L94.4,84.0L93.6,84.7L93.0,84.9L91.2,86.1L91.2,86.4L91.9,86.4L92.9,86.8L93.5,86.9L93.6,86.6L93.4,86.1L92.6,86.1L92.5,85.9L92.5,85.7L92.9,85.2L93.7,85.2L94.9,86.2L95.5,86.1L95.7,85.5L95.9,85.3L96.3,85.3L96.7,85.6L97.0,85.6L97.8,86.5L98.1,87.1L98.2,88.2L98.5,88.7L98.9,88.7L99.1,88.6L99.1,88.3L98.9,88.1L98.9,87.5L99.6,86.9L99.8,85.9L100.2,85.5L100.8,85.4L101.3,85.9L101.4,86.4L102.2,87.1L102.3,87.8L103.0,87.9L102.9,88.3L102.2,88.3L102.0,88.7L101.2,88.6L101.0,88.9L100.9,89.7L101.1,90.8L101.7,92.0L102.6,92.8L102.9,93.3L104.1,96.5L104.5,97.9L104.8,100.3L104.8,102.9L104.2,104.8L103.4,106.2L101.8,107.9L100.8,108.7L98.9,109.7L96.8,110.4L94.6,110.4L93.0,110.2L91.5,109.6L90.3,108.9L90.3,108.7L90.8,108.4L91.4,108.4L92.0,108.7L92.9,108.9L94.5,108.9L95.5,108.7L96.2,108.4L96.7,108.3L97.6,107.7L100.1,105.3L100.4,105.3L100.6,105.5L100.6,105.9L100.1,106.5L100.1,106.7L100.4,106.7L101.3,106.0L101.9,106.3L102.1,106.2L102.9,105.4L103.6,103.8L103.6,102.5L104.0,101.4L104.0,100.1L103.9,99.5L103.3,98.1L102.5,97.3L101.6,96.9L101.0,96.8L100.8,96.6L100.8,96.3L101.0,96.0L101.0,95.6L100.6,95.0L100.9,94.7L102.0,94.9L102.0,94.5L101.8,94.3L100.8,94.1L99.1,93.1L96.7,92.3L96.3,91.8L96.9,91.8L97.2,91.6L97.2,91.4L95.1,91.3L94.3,91.6L93.7,91.5L93.6,91.2L93.8,90.7L92.7,90.6L91.9,89.8L91.7,89.5L91.8,89.1L92.4,88.8L92.4,88.5L91.6,88.0L90.6,88.0L90.4,87.7L90.2,87.7L90.1,88.1L90.7,89.1L90.9,90.0L92.4,91.4L92.9,91.5L93.1,92.0L92.0,92.6L91.2,92.9L89.8,93.8L87.9,95.9L87.8,96.3L87.1,97.8L86.8,99.3L86.9,101.5L87.5,103.1L87.9,103.8L87.9,104.2L87.6,104.6L87.0,104.7L86.0,105.2L85.9,105.5L86.7,105.1L87.6,104.9L88.4,105.0L89.0,105.5L89.0,105.8L88.6,106.1L87.1,106.0L86.4,106.7L86.0,107.4L85.9,108.6L86.0,109.2L86.6,110.3L87.4,111.0L88.5,111.4L89.6,111.3L89.7,111.5L89.7,112.0L89.5,112.5L88.8,112.6L87.7,112.2L87.2,111.7L86.6,111.6L86.2,111.3L85.1,111.4L84.9,111.2L84.3,111.2L83.9,111.4L83.1,111.4L82.4,111.5L82.1,111.0L82.0,111.0L80.9,111.7L79.9,112.2L78.3,112.2L77.6,111.9L77.1,111.4L76.8,110.8L76.6,109.7L76.8,109.2L77.5,108.5L78.2,108.4L78.6,108.7L78.6,108.9L78.4,109.1L77.9,109.2L77.3,109.8L77.2,110.3L77.3,111.0L78.5,111.0L79.1,111.3L79.7,111.3L80.4,110.7L82.0,110.1L82.9,109.4L84.9,106.8L85.3,106.0L84.6,106.6L82.2,109.2L81.7,109.6L80.5,110.2L80.1,110.1L80.3,109.3L80.2,108.6L79.4,107.7L78.9,107.6L78.2,107.6L77.3,107.9L76.3,108.9L76.2,109.6L76.2,110.5L76.5,111.5L77.0,112.0L77.7,112.5L77.8,112.8L77.5,113.1L69.4,113.2L61.6,112.9L61.2,112.5L61.2,111.8L61.2,107.3L61.3,101.3L61.3,68.1L61.5,66.7L61.7,66.3L62.1,66.1L66.6,66.1L70.5,66.4L70.7,66.6L72.3,66.8L74.4,67.8L75.4,68.6L76.2,69.5L76.5,69.7L78.3,72.3L78.4,72.7L79.1,73.8L79.6,76.3L79.7,78.2L79.6,87.7L79.9,88.2L80.2,88.4L84.8,88.5L85.1,88.1L85.3,73.4L85.1,72.5L84.9,73.6L85.0,80.9L84.9,87.6L84.4,88.0L80.6,88.0L80.1,87.7L80.0,87.1L80.1,77.1L79.8,75.2L79.5,74.2L79.2,73.7L79.2,73.4L78.8,72.7L78.7,72.1L77.4,70.1L75.3,67.9L73.8,67.0L71.8,66.3L70.2,65.9L68.5,65.8L61.6,65.7L61.2,65.9L61.1,66.3L61.0,71.6L61.1,83.0L60.9,84.4L61.0,102.7L60.8,107.3L60.8,113.1L61.2,113.4L64.5,113.5L76.4,113.4L77.7,113.6L103.9,113.7L104.6,112.7L104.9,112.7L105.2,113.0L105.1,113.9L104.4,114.3L84.1,114.2L69.1,114.3L61.2,114.2L60.2,114.0L59.9,113.7L59.8,113.4L60.0,102.4L60.0,68.9L60.2,65.4L60.6,64.9L68.5,65.0L71.7,65.5L72.9,65.9L75.0,66.8L76.9,68.4L78.1,69.7L79.2,71.3L80.4,74.0L80.5,75.0L80.9,76.3L81.0,78.2L81.0,86.8L81.5,87.3L83.4,87.3L83.9,86.8L83.9,86.2L83.9,68.2L84.0,61.3L84.0,43.0L83.5,42.6L82.2,42.6L82.0,42.7L81.5,43.2L81.3,43.9L81.2,49.1L80.9,52.1L80.5,53.8L79.3,56.4L78.6,57.5L77.1,59.2L75.8,60.2L73.7,61.2L71.5,61.7L66.2,61.8L60.5,61.6L60.1,61.2L60.1,57.6L60.2,57.2L60.9,57.1L61.1,57.3L61.1,60.3L61.5,60.9L69.8,61.0L72.5,60.5L74.8,59.5L75.0,59.3L75.4,59.2L76.3,58.3L77.4,57.2L77.5,56.9L77.3,56.9L76.6,57.5L76.5,57.8L75.3,58.8L73.5,59.7L73.0,59.8L72.4,60.2L70.7,60.4L63.0,60.5L62.1,60.4L61.6,60.1L61.5,59.8L61.5,57.6L61.6,57.3L61.9,57.0L63.8,56.6L64.8,56.6L67.5,56.1L70.9,54.5L73.2,52.6L74.0,51.8L75.6,49.7L77.2,46.0L77.7,43.9L77.8,41.8L77.5,41.4L76.2,41.2L75.8,40.9L75.6,40.3L73.7,40.1L73.5,39.9L73.5,39.2L73.3,38.8L72.0,38.7L71.8,38.5L71.8,38.0L72.1,37.7L73.0,37.9L73.2,37.6L71.5,37.5L71.3,37.4L71.4,36.9L71.6,36.6L72.9,36.6L73.7,36.4L73.3,36.1L73.3,35.7L73.6,35.4L75.0,35.4L75.2,35.1L75.0,34.8L75.4,34.6L76.7,34.6L77.1,34.4L77.2,34.1L78.1,33.9L78.2,33.7L78.3,33.3L78.2,32.6L78.8,31.1L79.5,30.8L80.1,31.3L80.3,31.3L80.5,31.1L80.5,30.4L80.7,30.2L82.1,30.4L83.8,30.0L84.5,29.7L85.6,28.2L85.8,27.4L85.8,26.8L85.5,25.5L85.1,25.0L83.9,24.0L83.4,24.1L83.7,24.1L83.9,24.4L83.9,24.6L84.5,25.0L84.5,25.8L83.9,25.8L82.6,25.1L82.4,25.1L82.1,26.0L81.6,26.4L81.0,26.3L80.6,26.0L80.6,25.7L80.3,25.2L79.8,24.8L79.1,24.4L78.0,24.3L77.7,24.1L78.1,23.8L79.5,23.4L81.5,23.4L82.0,23.6L82.7,23.6L82.6,23.3L82.0,23.0L81.0,23.0L80.6,22.8L80.6,22.5L80.9,22.2L80.9,22.1L80.3,21.5L80.4,21.3L81.2,21.0L81.8,20.4L82.0,20.1L82.0,19.1L82.5,19.0L83.3,19.4L85.6,21.6L85.7,21.9L86.0,22.1L85.9,21.7L85.2,20.9L84.8,20.1L83.9,19.1L82.4,18.2L81.8,18.0L81.2,17.6L80.6,17.6L80.2,17.9L79.2,17.9L79.0,18.1L78.9,18.9L79.5,19.6L79.8,19.7L79.9,20.1L79.4,20.3L78.9,20.3L78.4,19.8L78.2,19.3L78.2,18.1L78.9,17.2L79.3,16.9L80.3,16.6L81.5,16.7L82.5,17.2L83.3,17.9L83.7,18.0L83.9,17.5L85.4,17.5L86.0,17.9L86.7,17.7L87.7,17.8L89.0,17.4L89.6,16.9L90.4,16.5L90.9,16.5L91.2,16.8L91.3,17.5L91.0,17.8L90.0,17.7L88.8,18.2L87.7,19.4L87.5,20.3L87.5,21.4L87.8,22.4L88.7,23.2L89.9,23.2L90.5,23.4L90.5,23.7L90.2,24.0L89.7,24.1L89.0,24.1L87.7,23.8L87.1,23.3L87.2,23.7L87.4,23.7L87.8,24.1L89.0,24.6L89.4,24.9L89.4,25.1L88.6,26.7L88.1,28.1L88.1,30.1L88.6,31.9L89.1,33.2L89.6,33.8L90.5,34.5L90.0,33.8L90.0,33.6L89.6,32.9L89.1,31.7L88.8,30.7L88.8,29.2L89.6,28.3L90.4,27.9L91.0,27.2L91.6,26.2L92.4,25.5L93.5,24.9L94.0,24.8L94.2,25.0L94.1,25.3L92.4,26.9L92.5,27.2L92.7,27.2L93.3,26.8L93.9,26.9L94.3,27.9L94.3,28.3L93.6,29.1L93.3,29.9L93.3,31.7L94.0,33.2L94.7,33.9L95.4,34.4L96.7,34.7L97.3,35.2L97.3,35.5L97.1,35.9L96.6,36.4L95.5,36.8L94.3,36.8L93.6,36.5L93.2,36.5L92.5,36.0L92.1,36.2L92.5,36.3L93.1,36.7L93.7,36.9L94.0,37.2L94.0,37.6L93.7,37.9L93.4,38.0L92.0,39.2L92.1,40.0L91.7,40.4L91.7,41.0L92.0,41.2L92.5,41.2L93.3,40.9L93.3,40.4L92.9,40.3L92.6,39.9L93.7,38.7L94.8,38.6L94.8,38.2L95.1,37.8L95.5,37.8L95.7,38.0L96.4,38.2L98.0,38.1L98.4,37.9L98.4,37.6L98.1,37.6L97.4,37.3L99.0,37.0L100.2,36.5L100.9,36.0L101.1,36.0L102.1,35.5L102.8,35.4L103.1,34.9L103.0,34.6L102.0,34.8L102.0,34.5L102.1,34.1L102.1,33.6L102.0,33.0L102.2,32.7L103.2,32.6L104.5,31.6L105.2,29.8L105.3,28.4L104.9,27.3L104.9,26.0L104.6,25.0L103.6,23.5L102.9,23.5L102.9,24.1L102.6,24.1L102.5,23.7L102.1,23.6L102.0,24.1L101.9,24.2L101.6,24.2L100.5,23.3L99.3,22.0L97.7,20.9L95.9,20.3L94.4,20.3L93.3,20.5L92.6,20.8L92.0,20.7L91.9,20.3L92.2,20.0L93.3,19.4L94.8,19.1L98.1,19.0L100.5,19.7L102.0,20.6L103.9,22.2L105.5,24.5L106.0,26.2L106.2,28.7L105.6,32.0L104.9,33.9L104.6,34.6L103.9,36.5L102.6,37.8L101.9,39.6L101.9,40.5L102.0,41.0L102.5,41.1L102.9,40.9L103.2,41.2L103.0,42.6L102.3,43.1L102.1,43.8L102.0,44.0L101.5,44.1L101.0,44.1L100.6,43.5L100.6,42.7L99.7,42.1L99.7,41.7L100.1,41.0L100.0,40.7L99.6,40.7L99.1,41.3L98.9,42.7L97.5,44.1L96.7,44.1L96.4,43.8L96.3,43.2L95.8,43.2L94.6,44.1L93.6,44.1L93.3,43.8L93.4,43.3L93.5,43.1L94.4,43.1L94.6,42.6L94.5,42.4L94.0,42.4L93.1,42.9L92.2,43.1L92.3,43.3L92.5,43.4L93.1,44.0L93.5,44.1L94.0,44.5L95.4,44.6L95.4,45.4L95.9,45.3L96.3,45.0L97.4,44.5L98.0,44.1L98.2,44.1L98.4,44.3L98.4,44.9L98.2,45.7L97.9,47.9L98.0,50.2L98.4,52.0L99.0,52.8L99.0,53.2L99.8,54.3L100.6,55.0L102.4,55.6L104.1,55.5L105.2,55.0L105.8,54.4L106.2,53.1L106.3,52.2L105.9,51.3L105.9,50.9L106.2,50.7L109.7,50.6L110.0,50.1L110.0,49.1L109.8,48.8L109.7,49.7L109.2,50.2L105.4,50.1L104.8,49.8L104.8,36.0L105.0,34.9L105.4,34.6L105.7,34.9L105.8,35.3L105.6,41.3L105.6,49.1L106.2,49.6L108.2,49.6L108.6,49.3L108.7,48.8L108.6,48.0L108.8,30.9L109.1,29.6L108.9,28.4L108.9,25.5L109.0,25.2L109.6,25.1L110.0,25.7L110.0,27.7L110.2,27.6L110.4,24.0L109.8,24.1L109.6,24.2L109.0,24.2L108.0,24.0L107.4,23.2L106.8,23.4L106.2,23.3L106.2,22.9L106.5,22.6L106.4,21.3L104.8,19.8L103.9,19.2L101.8,18.3L98.9,17.6L96.0,17.6L93.4,18.4L91.4,19.6L89.5,21.8L89.1,21.7L89.1,21.5L89.7,20.3L90.8,19.0L91.4,18.7L92.5,17.8L94.1,17.0L95.8,16.5L97.7,16.3L100.0,16.3L101.9,16.5L105.8,17.7L105.8,18.1L105.0,18.1L103.5,17.5L102.8,17.6L103.9,18.3L105.8,18.7L106.0,18.9L108.7,19.2L109.5,19.6L109.4,20.0L108.7,20.2L108.7,20.4L109.5,21.0L110.1,21.0L110.3,21.2L110.3,21.3L109.8,21.9L110.3,22.3L110.6,22.4L110.3,17.9L110.4,12.9L110.5,11.9L110.4,10.7L109.9,10.5L104.3,10.5L97.2,10.2L89.3,10.3L83.1,10.1L78.5,10.2L63.0,9.9L61.5,10.0L58.5,9.9L32.4,9.6L21.4,9.2L18.8,9.2Z M109.1,106.7L109.0,107.2L108.4,107.8L108.4,108.1L108.6,108.6L108.3,108.8L107.7,108.9L107.2,109.4L107.2,109.6L107.8,109.8L107.9,110.2L107.7,110.4L107.3,110.5L104.1,110.8L101.9,111.5L101.4,111.7L101.4,112.1L101.9,112.1L102.8,111.7L103.6,111.6L104.1,111.9L101.7,112.7L99.8,113.1L97.5,113.3L94.4,112.9L93.4,112.6L91.3,111.7L89.9,110.5L89.4,110.3L88.7,109.6L87.5,107.7L87.5,107.3L87.8,107.2L88.5,107.8L89.1,108.8L89.9,109.6L90.6,110.2L92.4,111.1L94.6,111.8L97.6,111.8L99.9,111.4L100.9,110.9L101.5,110.8L102.0,110.5L103.4,109.8L103.8,109.4L104.8,108.6L105.1,108.6L105.5,108.9L106.0,108.9L106.5,108.6L107.6,107.6L108.0,106.8L107.8,106.5L106.9,106.7L106.0,107.8L105.4,108.4L105.0,108.1L105.0,106.9L104.8,106.5L105.0,106.3L105.3,106.3L105.8,106.7L106.7,105.8L108.2,105.6L108.8,106.0Z M98.3,103.6L98.3,103.8L98.1,104.0L97.2,104.0L97.2,103.8L97.8,103.2L98.1,103.2Z M88.1,101.6L88.4,101.7L88.6,102.2L88.2,102.4L88.0,102.0Z M97.8,95.2L98.2,95.4L98.2,95.8L96.8,97.3L96.7,98.3L96.4,98.7L96.0,98.6L95.3,98.2L95.4,97.6L96.3,96.7L96.3,96.4L95.7,96.5L94.9,97.3L94.3,97.3L94.0,97.1L94.0,96.8L94.4,96.3L95.4,95.3L96.3,95.1Z M99.0,94.3L99.1,94.1L99.6,94.0L100.0,94.4L99.9,94.7L99.3,94.8L99.0,94.5Z M96.3,93.4L96.3,93.3L96.9,92.8L97.6,92.9L97.8,93.4L96.9,93.6L96.5,93.6Z M94.9,92.5L95.4,92.7L96.2,93.4L96.3,94.3L96.0,94.5L94.6,94.9L93.9,95.3L92.5,96.5L92.2,97.1L92.0,97.9L92.0,99.1L92.4,100.1L93.1,101.1L92.9,102.2L92.5,102.7L92.1,102.7L91.6,102.2L91.2,102.1L91.2,102.5L92.9,104.1L93.0,104.7L92.6,104.7L91.5,104.1L90.1,102.9L89.4,101.6L87.7,100.2L87.6,98.8L87.8,97.7L88.6,96.0L90.0,94.2L91.3,93.3L92.4,92.7L93.0,92.5Z M104.9,79.1L105.1,79.1L105.4,79.4L105.4,92.2L105.3,96.5L105.1,97.1L104.8,97.1L104.7,96.9L104.4,96.1L104.3,93.8L104.6,79.5Z M101.1,79.6L101.8,79.4L101.9,78.8L102.4,78.9L103.1,79.2L103.2,79.6L102.9,80.0Z M42.6,56.6L43.0,56.6L43.2,57.0L43.2,57.4L42.9,57.7L42.6,57.7L42.3,57.4L42.3,56.9Z M44.1,56.4L44.8,56.3L45.1,56.7L45.7,56.8L46.3,56.4L46.6,56.4L46.8,56.6L46.8,56.9L45.8,57.7L45.0,57.8L44.5,57.6L44.1,57.2Z M42.6,55.1L42.7,55.3L41.4,56.4L41.1,56.3L41.2,55.7L41.7,55.2L42.1,55.0Z M103.4,52.6L103.8,53.0L103.5,53.1L103.3,52.9Z M102.5,49.8L103.4,49.8L103.6,49.8L103.9,50.5L103.3,50.8L102.8,50.9L102.5,50.7Z M99.5,44.4L99.9,44.5L100.1,44.8L100.1,47.2L100.5,48.0L100.8,49.4L101.0,49.5L101.2,49.9L102.0,51.0L102.0,51.5L101.5,51.7L101.4,52.1L102.1,52.5L103.1,53.7L103.9,53.6L104.5,53.2L105.5,53.2L105.7,53.6L105.0,54.6L103.7,55.2L102.1,55.2L100.7,54.6L99.4,53.4L99.2,52.8L98.9,52.5L98.3,50.5L98.2,49.0L98.2,47.5L98.5,45.5L99.1,45.0Z M66.8,37.4L66.8,37.7L66.2,38.3L65.9,38.2L66.1,37.5L66.4,37.3Z M39.3,35.4L39.6,35.4L39.9,35.6L40.1,36.6L40.6,37.2L41.1,38.2L40.9,39.3L41.2,39.3L41.9,39.0L41.9,39.7L42.5,40.5L43.1,41.6L43.1,42.8L43.6,43.0L44.0,43.4L44.5,45.3L45.0,46.0L45.5,48.0L45.8,49.9L45.8,50.9L45.6,51.6L45.3,51.6L45.1,51.1L45.0,49.8L43.9,46.7L40.7,40.2L40.6,39.3L40.3,38.9L40.1,37.7L39.3,36.2Z M100.5,34.6L100.9,34.7L101.0,35.2L100.7,35.5L100.5,35.5L100.2,35.2L100.2,34.9Z M74.1,34.7L74.2,34.5L74.8,34.6L74.8,34.8Z M39.0,32.6L39.3,32.7L39.6,33.0L39.5,33.4L39.1,34.0L38.8,33.9L38.7,33.6L38.8,32.7Z M38.7,30.8L38.9,30.8L39.3,31.3L39.2,31.7L38.9,31.9L38.7,31.9L38.4,31.6L38.4,31.2Z M95.2,32.5L95.4,32.2L96.3,32.2L97.1,33.0L97.4,32.9L97.5,32.7L96.7,31.9L96.6,31.3L96.7,31.0L97.6,30.8L97.9,31.0L98.1,32.3L99.2,33.6L99.2,34.0L99.0,34.3L97.2,34.3L96.3,33.8L95.3,32.8Z M71.2,30.8L72.2,31.7L72.2,32.2L71.6,33.1L70.5,33.8L70.5,33.2L71.0,32.1L71.0,30.8Z M67.0,30.1L67.4,30.0L67.6,30.5Z M70.8,30.1L70.9,30.6L70.6,30.8L69.8,31.5L69.1,31.5L69.3,30.8L69.8,30.2L70.3,29.9L70.6,29.9Z M40.5,29.9L40.8,30.0L41.3,30.8L41.3,31.3L41.1,31.3L40.5,30.4Z M83.0,28.2L83.1,28.8L82.4,29.3L81.8,29.2L81.7,28.9L82.2,28.2Z M65.8,27.4L65.9,27.4L66.3,27.9L66.3,28.4L65.9,28.7L65.6,27.9L65.6,27.6Z M89.6,26.6L90.0,26.8L89.8,27.0L89.7,27.7L89.5,27.9L89.3,27.7L89.3,27.2L89.6,27.0Z M63.7,26.1L64.4,28.2L64.4,28.6L64.0,28.9L64.0,29.3L64.4,29.7L64.4,29.9L63.8,30.4L63.7,31.2L63.4,31.4L63.4,31.6L63.7,31.7L63.8,32.2L63.5,32.5L63.3,33.1L63.1,33.3L62.5,33.5L62.3,33.7L62.7,34.0L62.7,34.3L62.1,34.4L61.7,34.7L61.7,36.6L61.3,36.8L61.2,36.6L61.2,35.3L60.7,34.7L60.2,33.7L60.2,32.4L60.3,31.7L60.6,31.4L61.0,31.5L61.5,32.1L62.1,32.0L62.2,31.8L62.3,31.4L62.0,30.3L62.0,28.8L62.3,28.4L63.1,28.4L63.5,28.0L63.0,27.3L62.9,26.4L63.1,26.0Z M42.5,25.9L42.9,26.0L44.0,27.0L44.1,27.4L45.0,28.5L46.1,28.9L47.6,29.8L47.9,29.8L48.4,29.5L48.9,29.5L49.1,29.7L49.1,30.0L48.7,30.8L48.4,30.8L48.4,30.6L47.9,30.3L47.0,30.4L46.6,30.0L46.0,30.1L45.7,29.6L45.4,29.5L45.0,29.8L44.7,29.3L43.8,29.3L43.5,29.0L43.5,28.6L43.1,28.2L43.1,27.7L42.3,26.6Z M45.7,25.8L46.4,26.4L46.8,27.2L46.0,27.0L45.3,26.2Z M98.8,25.5L99.0,25.8L98.7,25.7Z M39.8,23.2L39.8,26.6L39.1,27.0L39.1,28.4L38.9,28.7L38.5,28.8L38.4,28.6L38.6,26.7L39.2,25.3L39.2,24.1L39.5,23.2Z M44.6,22.7L45.1,24.8L45.0,25.4L44.3,24.4L44.2,23.0Z M41.9,21.3L42.2,21.4L41.9,22.2Z M72.4,21.2L72.5,21.3L72.5,24.5L72.5,24.7L72.1,24.8L71.8,24.5L71.2,23.2L70.6,22.7L70.5,22.1L70.8,21.7L71.6,21.5Z M59.0,19.0L61.4,19.0L62.6,19.2L63.1,19.4L63.2,19.6L62.9,19.9L62.1,20.1L61.1,20.5L59.5,21.7L59.0,22.4L58.9,22.8L58.5,23.1L57.9,26.0L57.9,33.8L57.7,40.6L57.8,44.7L58.3,46.8L58.5,47.0L58.8,47.8L60.0,48.9L61.3,49.7L61.4,49.9L61.2,50.1L59.4,50.1L56.5,49.6L56.4,49.4L55.4,49.1L53.9,48.4L52.2,47.2L50.7,45.9L49.3,43.9L48.6,42.1L48.2,41.5L47.6,39.1L47.4,36.5L47.6,35.2L48.4,34.6L48.8,34.5L49.6,34.0L50.1,33.4L50.8,32.9L51.7,32.1L52.1,31.4L52.1,31.1L51.7,30.7L49.2,28.9L49.2,28.5L49.6,27.9L49.7,27.5L49.6,27.0L49.3,26.7L49.3,26.0L49.8,24.8L50.3,24.2L50.4,23.7L50.7,23.6L51.9,22.2L53.6,20.8L55.1,20.0L56.4,19.6L56.5,19.4Z M73.5,18.2L73.9,18.8L73.8,28.9L73.6,29.7L73.4,30.0L72.2,30.1L71.8,29.8L71.5,28.7L71.4,27.5L70.1,24.1L69.5,23.2L67.9,21.9L66.2,21.2L65.4,21.0L64.0,21.0L63.1,21.2L61.5,21.9L60.1,23.2L59.4,24.6L59.2,25.9L59.0,44.0L59.2,45.2L59.8,46.8L61.0,47.9L61.5,48.3L62.3,48.6L65.1,48.6L66.5,48.1L68.4,46.7L69.1,45.8L69.7,44.8L70.4,42.8L70.7,39.9L71.0,39.3L72.6,39.3L73.0,39.5L73.0,41.0L72.7,42.9L72.2,44.5L71.0,46.9L70.0,48.3L68.7,49.6L66.3,50.8L64.0,51.6L61.9,51.8L59.2,51.7L57.5,51.5L56.0,51.0L54.9,50.4L53.3,49.8L51.6,48.6L49.9,47.0L48.7,45.5L47.8,43.7L47.5,43.4L46.6,41.2L46.3,39.5L46.1,39.2L46.0,38.0L46.0,36.0L46.1,35.6L46.6,35.3L46.9,35.5L47.1,38.3L47.5,39.6L47.5,40.2L47.8,41.2L48.2,42.2L48.3,42.8L49.9,45.5L50.3,45.8L51.0,46.8L53.7,48.8L54.4,49.0L55.5,49.7L57.1,50.2L58.7,50.6L62.3,50.7L64.6,50.3L66.9,49.5L67.8,49.0L69.8,47.2L70.6,46.0L71.6,43.8L72.2,41.2L72.1,40.5L71.8,40.5L71.3,43.1L70.5,45.3L69.5,46.9L68.4,47.9L67.0,48.8L65.3,49.4L63.0,49.4L61.4,49.1L59.9,48.2L58.6,46.9L58.6,46.2L58.3,45.7L58.2,44.6L58.1,43.1L58.3,41.1L58.2,31.1L58.3,29.5L58.3,25.5L58.9,23.5L59.5,22.7L59.5,22.5L60.6,21.4L61.9,20.7L62.7,20.4L64.0,20.3L65.3,20.3L66.3,20.4L67.8,21.0L69.2,21.7L71.0,23.6L72.0,26.0L72.4,27.2L72.5,28.5L72.7,28.9L72.9,28.7L73.0,28.0L73.1,19.8L73.0,19.6L72.5,19.6L71.8,20.6L71.0,21.2L69.9,21.2L68.5,20.7L66.4,19.7L63.9,18.9L60.5,18.4L57.8,18.7L55.1,19.5L53.9,20.1L52.9,20.8L51.3,22.4L51.0,22.5L50.5,23.2L50.4,23.7L50.0,24.0L49.8,24.5L49.4,24.9L48.7,26.3L48.4,26.6L47.9,26.7L47.8,26.5L47.8,25.9L48.8,23.9L50.4,21.7L51.7,20.4L53.4,19.4L55.2,18.4L56.1,18.2L59.3,17.7L62.6,17.9L65.2,18.6L66.9,19.3L68.1,19.9L69.6,20.3L70.5,20.3L70.9,20.2L71.6,19.4L72.3,18.3Z M43.8,16.8L43.7,17.7L42.7,19.3L42.6,19.8L42.3,20.1L42.2,20.1L41.9,19.8L42.1,18.5L42.5,17.7L43.5,16.7Z M45.0,15.5L45.2,16.0L45.0,16.3L43.9,16.5L43.9,16.4L44.5,15.6Z M68.1,14.9L69.0,14.6L75.0,14.6L79.5,14.8L85.0,14.7L89.2,14.9L104.5,14.9L105.6,15.1L105.8,15.5L105.9,16.4L105.8,16.5L105.4,16.7L105.1,16.5L105.1,16.3L104.6,15.8L104.2,15.7L86.6,15.6L85.8,15.5L70.1,15.5L68.3,15.3L68.1,15.2Z M64.7,13.8L65.1,13.9L65.1,14.2L64.8,14.2L64.6,14.0Z M53.6,15.1L53.6,14.6L54.2,13.7L55.2,12.8L55.2,12.2L55.4,12.1L57.9,11.9L58.1,12.0L58.2,12.4L56.7,12.7L56.4,12.9L56.2,13.3L57.0,13.4L57.4,13.6L58.6,13.6L59.3,14.0L60.6,14.1L60.3,14.6L58.6,15.3L57.5,15.3L57.0,14.6L56.6,14.6L55.7,15.1L55.1,15.3L54.0,15.3Z M53.5,11.6L53.5,11.4L53.9,11.1L55.8,10.9L57.8,10.9L58.3,11.0L58.6,11.4L56.4,11.5L55.2,11.8L54.1,11.8Z M59.7,10.4L77.0,10.6L80.1,10.5L84.6,10.7L86.6,10.6L99.7,10.8L109.5,10.8L110.0,11.1L110.2,11.7L110.0,15.8L110.1,18.4L109.9,18.9L109.6,19.0L109.1,18.6L109.0,12.5L108.8,12.0L108.1,11.8L97.5,11.8L79.5,11.5L77.7,11.6L66.5,11.3L64.0,11.4L62.2,11.3L59.8,10.8Z" fill="#000" fill-rule="evenodd"/>
</svg>