<svg xmlns="http://www.w3.org/2000/svg" viewBox="0 0 128 128" width="128" height="128">
  <path d="M118.9,26.6L118.1,26.4L116.0,26.8L114.1,27.0L111.1,27.6L109.2,27.8L108.1,28.1L101.6,29.1L100.9,29.3L99.7,29.3L99.0,29.5L96.6,29.9L96.2,30.0L93.9,30.3L92.4,30.6L91.8,30.6L87.6,31.4L85.2,31.7L83.4,31.8L81.8,32.2L80.5,32.3L76.9,33.0L75.6,33.1L74.3,33.4L69.6,34.1L66.7,34.7L65.9,34.8L65.2,35.1L65.0,35.4L64.9,42.5L65.0,44.1L65.0,54.2L65.0,55.2L65.3,55.5L66.4,55.6L71.2,54.7L72.2,54.6L73.4,54.3L75.4,54.2L77.4,53.7L80.8,53.2L82.8,52.7L87.9,51.9L89.7,51.7L96.8,50.5L97.2,50.6L97.6,50.9L97.6,52.0L97.2,52.6L96.1,52.9L95.6,52.9L94.7,53.2L94.0,53.2L92.4,53.6L91.0,53.7L89.0,54.1L86.9,54.3L86.5,54.5L84.4,54.7L83.5,55.0L82.4,55.0L81.2,55.4L76.1,56.1L75.2,56.3L74.6,56.3L72.7,56.7L69.4,57.1L68.8,57.4L66.6,57.7L65.2,58.1L65.0,58.7L65.1,79.2L65.5,79.4L66.8,79.3L67.1,79.2L68.3,79.1L71.5,78.4L72.1,78.4L73.5,78.2L73.8,78.0L78.4,77.4L81.8,76.7L84.0,76.4L85.6,76.0L87.8,75.8L89.9,75.3L90.6,75.3L93.6,74.7L94.3,74.7L96.4,74.2L97.3,74.2L97.6,74.6L97.7,75.9L97.3,76.4L96.8,76.7L96.0,76.7L95.5,76.9L94.0,77.0L91.7,77.6L88.8,77.9L88.4,78.0L86.4,78.3L86.1,78.4L85.4,78.4L82.2,78.9L80.5,79.3L79.6,79.4L79.2,79.6L77.1,79.8L76.3,80.1L74.3,80.3L73.9,80.5L72.6,80.5L71.4,80.9L66.3,81.6L65.4,81.8L65.0,82.2L65.0,84.7L65.0,95.1L64.9,99.1L64.7,100.1L64.8,102.3L65.0,102.6L66.3,102.6L67.1,102.4L69.3,102.2L69.8,102.0L70.5,102.0L71.3,101.8L73.4,101.5L73.9,101.4L75.8,101.2L78.8,100.6L79.4,100.6L82.6,100.0L84.7,99.7L85.1,99.6L85.9,99.5L86.8,99.3L87.4,99.3L91.6,98.5L93.3,98.3L96.0,97.7L96.6,97.7L98.2,97.3L99.5,97.2L103.5,96.4L106.3,96.1L107.4,95.8L111.2,95.2L111.4,95.1L118.2,94.0L118.8,93.6L118.9,89.8L118.9,87.2L119.0,72.2L119.0,26.9Z M97.3,32.5L97.3,32.7L97.0,32.8L97.0,32.6Z M9.7,25.7L9.5,26.1L9.5,27.2L9.5,32.4L9.4,38.9L9.4,67.1L9.2,69.6L9.3,76.5L9.1,83.8L9.1,91.8L9.3,92.0L9.9,92.4L11.1,92.7L12.2,92.8L12.8,93.0L17.2,93.8L17.9,94.0L18.9,94.1L20.0,94.4L21.5,94.6L22.4,94.9L23.6,95.0L24.8,95.3L26.2,95.5L27.9,96.0L30.5,96.4L31.7,96.8L33.8,97.1L35.0,97.4L37.8,97.7L38.8,98.1L41.3,98.5L41.6,98.6L42.3,98.6L45.1,99.3L46.1,99.3L48.2,99.9L49.2,100.0L50.1,100.4L51.0,100.4L51.7,100.6L53.5,100.9L57.3,101.8L58.5,101.9L60.2,102.4L61.7,102.6L62.4,102.6L62.7,102.2L62.9,96.0L62.8,93.8L63.0,90.1L63.0,84.1L62.9,82.4L62.3,81.8L59.8,81.3L58.8,81.0L55.4,80.5L54.3,80.2L52.5,80.0L47.1,78.8L44.3,78.4L39.3,77.4L33.5,76.4L32.0,76.0L31.5,76.0L30.9,75.9L30.5,75.5L30.4,74.1L30.8,73.6L32.8,73.8L34.2,74.2L35.3,74.2L36.9,74.7L38.3,74.8L40.1,75.3L42.6,75.6L44.3,76.0L45.7,76.2L46.4,76.4L49.0,76.7L49.9,77.1L50.6,77.1L52.5,77.6L52.9,77.6L55.8,78.2L56.8,78.3L61.2,79.2L62.1,79.2L62.5,79.2L62.7,79.0L62.9,77.5L63.0,74.2L62.8,61.8L62.9,60.1L62.7,58.3L62.4,57.9L58.8,57.2L58.3,57.2L56.4,56.7L55.9,56.7L53.3,56.2L51.8,56.0L50.4,55.6L49.4,55.5L45.1,54.6L41.6,54.1L40.1,53.7L39.1,53.6L38.3,53.3L37.8,53.3L33.6,52.5L31.4,52.1L30.8,51.9L30.5,51.4L30.5,50.4L30.7,50.0L30.8,49.8L31.6,49.8L31.9,50.0L33.8,50.2L34.5,50.4L37.3,50.8L37.9,51.1L38.4,51.1L43.2,52.1L45.4,52.5L46.0,52.7L47.5,52.9L48.8,53.2L50.1,53.3L52.0,53.8L52.5,53.8L54.2,54.2L56.9,54.6L58.8,55.1L61.7,55.6L62.3,55.6L62.6,55.3L62.8,54.7L62.7,35.6L62.5,35.1L62.3,34.9L61.7,34.6L58.1,33.9L54.5,33.4L52.9,33.0L51.9,32.9L51.3,32.7L50.2,32.6L48.9,32.3L46.9,32.0L46.2,31.8L44.6,31.6L43.3,31.2L39.4,30.7L35.8,29.9L32.5,29.4L31.5,29.1L28.4,28.7L27.0,28.3L24.9,28.0L22.4,27.4L21.2,27.4L20.4,27.1L18.3,26.9L16.2,26.4L15.6,26.4L11.3,25.6L10.0,25.5Z" fill="#000" fill-rule="evenodd"/>
</svg>