<svg xmlns="http://www.w3.org/2000/svg" viewBox="0 0 128 128" width="128" height="128">
  <path d="M114.7,12.1L110.8,12.4L106.3,13.2L105.1,13.6L103.0,13.9L102.6,14.2L98.1,15.6L97.7,15.8L95.9,16.5L93.6,17.6L88.1,20.8L82.8,24.8L78.9,28.5L76.9,30.7L74.9,33.2L72.1,37.3L70.3,40.4L68.0,45.4L66.5,49.8L66.4,50.6L65.6,53.4L65.6,54.4L65.2,55.4L64.9,57.7L64.6,58.7L64.6,59.9L64.3,62.0L64.2,65.6L64.8,71.9L65.7,76.5L67.2,81.8L67.9,83.4L67.9,83.7L69.0,86.3L71.6,91.4L74.4,95.6L75.4,96.9L75.9,97.7L79.7,101.9L83.7,105.6L88.5,109.1L93.2,111.8L95.3,112.8L97.4,113.6L97.9,114.0L102.5,115.5L106.8,116.5L112.7,117.4L116.9,117.5L117.5,117.1L117.6,116.7L117.8,95.2L118.1,79.1L118.2,63.0L118.4,61.9L118.3,57.3L117.7,56.9L116.1,57.0L110.5,56.8L101.8,56.8L101.2,57.2L101.1,58.6L101.2,63.9L101.0,70.2L101.1,74.5L100.8,82.4L100.8,94.3L100.7,95.3L100.3,95.6L99.7,95.6L98.6,95.1L95.9,93.2L94.5,91.9L90.3,87.6L87.6,83.8L85.3,79.5L85.0,78.4L84.7,78.1L84.3,77.0L84.0,75.7L83.7,75.2L82.9,72.0L82.6,71.4L82.5,68.8L82.2,67.2L82.3,62.1L82.6,60.7L82.8,57.8L83.3,56.3L83.5,55.0L84.5,51.9L84.9,51.3L85.0,50.9L86.0,49.1L86.2,48.4L88.2,45.0L90.0,42.5L91.4,41.0L91.6,40.6L94.7,37.6L96.7,36.0L99.6,34.0L103.9,31.8L106.5,30.7L110.3,29.7L115.4,28.9L117.9,28.9L118.5,28.7L118.7,28.1L118.7,20.4L118.9,14.0L118.8,12.6L118.5,12.2L118.0,12.1Z M12.4,10.8L11.3,10.8L10.7,11.1L10.5,11.6L10.3,24.0L10.4,27.2L11.0,27.6L13.8,27.8L15.1,28.1L16.2,28.1L17.8,28.6L18.8,28.7L19.3,28.9L20.2,29.1L23.2,30.2L28.6,32.9L31.5,34.9L35.4,38.4L38.9,42.6L38.9,42.8L39.9,44.2L39.9,44.4L41.1,46.1L42.8,49.5L44.0,53.0L44.5,55.2L44.5,55.8L43.8,56.3L31.2,56.3L28.8,56.1L18.9,56.1L13.0,55.8L10.3,55.9L10.1,56.4L10.1,60.7L9.9,63.5L9.9,70.5L10.1,71.1L11.1,71.3L15.7,71.1L17.7,71.3L40.8,71.3L43.9,71.4L44.5,71.8L44.5,72.4L44.0,73.8L43.8,75.0L43.0,77.3L40.7,82.0L38.9,84.7L36.6,87.6L33.0,91.2L29.9,93.6L27.9,94.7L27.3,95.2L23.3,97.2L17.6,99.1L13.8,99.7L12.4,99.7L10.2,100.0L9.6,100.5L9.3,114.4L9.4,116.3L9.7,116.7L10.0,116.8L15.2,116.6L16.8,116.2L19.0,116.0L23.2,115.1L24.4,114.6L26.2,114.2L28.6,113.3L29.7,113.0L30.1,112.7L30.8,112.5L31.4,112.2L31.7,112.2L35.0,110.5L39.4,108.0L43.6,104.9L46.4,102.5L49.4,99.4L51.6,96.9L54.0,93.7L54.7,92.5L56.4,90.0L58.6,85.7L58.6,85.4L59.2,84.4L60.3,81.2L60.5,80.7L61.6,77.0L61.8,76.7L62.8,71.4L62.8,70.2L63.1,69.5L63.4,66.4L63.4,61.0L63.2,60.2L62.9,56.4L62.6,54.7L62.3,54.1L62.3,53.4L61.8,51.1L61.7,50.1L59.7,44.2L58.9,42.6L58.7,41.8L58.3,41.2L56.0,36.7L55.1,35.6L53.9,33.5L53.6,33.3L53.5,32.9L52.6,31.9L51.4,30.3L49.1,27.7L48.3,26.9L47.7,26.2L45.0,23.7L42.0,21.3L38.1,18.7L37.4,18.4L35.3,17.1L34.0,16.5L32.9,15.8L31.9,15.6L28.7,14.1L23.5,12.5L17.3,11.3Z" fill="#000" fill-rule="evenodd"/>
</svg>