<svg xmlns="http://www.w3.org/2000/svg" viewBox="0 0 128 128" width="128" height="128">
  <path d="M118.6,10.0L117.9,9.7L116.1,9.6L112.7,9.7L105.0,9.5L77.0,9.5L68.4,9.7L65.8,9.6L40.9,9.9L13.4,9.9L10.1,10.0L9.7,10.3L9.5,11.3L9.7,19.0L9.6,24.5L9.8,30.7L9.8,46.5L10.0,47.1L10.0,47.6L9.8,48.0L10.2,88.9L10.2,116.3L10.3,117.4L10.8,118.1L14.9,118.3L31.3,118.3L41.9,118.1L64.6,118.1L75.2,118.3L81.4,118.2L98.9,118.4L104.4,118.6L112.7,118.6L116.4,118.8L117.6,118.7L117.9,118.5L118.2,117.6L118.3,115.9L118.3,105.0L118.5,100.4L118.6,89.4L118.5,39.7L118.6,23.2L118.8,19.3L118.8,10.3Z M15.3,39.3L15.8,38.9L16.4,38.8L36.7,38.7L37.5,38.9L38.1,39.8L41.0,61.8L41.6,63.8L41.9,64.0L42.2,64.0L42.7,63.8L43.6,60.4L43.6,59.9L45.0,55.0L45.6,51.6L45.9,51.0L47.4,44.4L49.1,38.6L50.6,35.4L51.8,34.1L52.7,33.5L54.7,32.9L56.1,32.9L57.2,33.1L58.5,33.7L60.5,35.7L61.1,36.7L62.0,39.0L62.9,43.2L64.0,50.3L64.6,55.0L65.0,56.7L65.0,57.4L65.3,58.3L65.5,58.4L66.1,58.6L69.5,58.6L69.8,58.5L70.3,58.1L70.3,51.2L70.5,48.4L70.4,45.4L70.6,40.7L70.5,37.5L70.6,35.0L70.8,34.3L71.1,34.1L71.7,33.9L82.6,33.8L102.3,34.0L110.2,34.3L111.0,35.1L111.0,47.7L110.9,48.3L110.5,48.7L109.3,48.9L101.6,48.8L98.9,48.6L87.2,48.7L86.7,49.1L86.6,49.5L86.5,57.6L86.7,58.4L87.4,58.8L98.0,58.9L102.7,59.1L105.2,59.0L106.8,59.2L108.8,59.2L110.5,59.5L110.7,59.8L111.0,61.7L110.9,72.2L110.2,72.9L109.7,73.0L90.7,72.8L87.1,72.9L86.6,73.3L86.5,73.5L86.4,80.7L86.7,81.4L87.0,81.7L87.9,81.9L105.1,82.3L110.0,82.6L110.8,83.3L110.9,93.8L110.8,95.1L110.6,95.6L110.1,96.1L109.4,96.2L106.2,96.2L102.2,96.0L71.7,95.6L70.9,95.4L70.5,94.8L70.4,92.0L70.5,76.3L70.3,73.3L69.9,73.0L69.2,72.7L59.3,72.7L58.6,72.5L58.1,71.9L57.5,68.4L57.0,66.6L56.6,63.8L56.3,63.3L55.9,63.2L55.4,63.5L54.8,65.3L53.9,70.7L53.7,71.0L53.5,72.3L53.0,73.7L52.9,74.8L52.7,75.3L52.2,77.2L51.9,79.3L51.3,81.0L51.3,81.5L50.0,86.5L49.7,88.2L49.3,89.2L49.1,90.5L47.6,93.7L46.7,94.9L45.7,95.7L44.3,96.4L43.0,96.7L41.6,96.7L39.4,96.0L38.6,95.6L37.6,94.5L37.2,93.7L36.4,92.8L36.0,91.3L35.7,90.8L35.7,90.3L35.1,88.6L35.1,87.8L34.8,86.9L34.7,85.6L34.3,84.2L34.3,83.2L33.8,81.0L33.4,77.8L32.8,75.7L32.8,75.0L32.6,74.3L32.3,73.8L30.5,73.5L16.3,73.5L15.8,73.4L15.4,72.9L15.2,67.7L15.2,61.3L15.4,60.1L15.8,59.8L17.1,59.7L29.1,59.6L29.5,59.5L29.9,59.1L29.1,54.1L28.9,53.4L28.3,52.9L17.3,52.9L15.8,52.8L15.3,52.5L15.1,52.1L15.0,47.7L15.1,39.8Z" fill="#000" fill-rule="evenodd"/>
</svg>