<svg xmlns="http://www.w3.org/2000/svg" viewBox="0 0 128 128" width="128" height="128">
  <path d="M59.8,37.9L48.8,37.9L40.3,38.0L38.4,38.0L24.0,38.2L16.4,38.2L9.9,38.4L9.5,38.5L9.2,38.8L9.1,47.4L9.2,68.6L9.2,72.5L9.3,77.2L9.2,80.9L9.4,88.9L9.5,89.2L9.8,89.5L10.3,89.7L17.6,89.7L27.2,90.0L35.5,90.0L39.6,90.1L47.6,90.0L50.8,90.2L59.6,90.2L60.1,90.0L60.3,89.9L60.4,88.1L60.4,77.4L60.3,76.9L60.1,76.6L59.6,76.5L52.3,76.4L48.4,76.5L41.6,76.3L30.7,76.3L30.1,76.8L29.9,77.3L29.2,78.2L27.8,79.3L26.2,80.0L24.0,80.0L23.1,79.8L22.0,79.3L20.5,78.1L19.7,76.9L19.2,75.5L19.0,74.7L19.1,73.4L19.3,72.3L20.3,70.6L21.8,69.2L22.7,68.8L24.1,68.4L25.5,68.4L27.2,68.9L28.5,69.7L29.8,70.9L30.8,71.0L59.9,71.0L60.2,70.6L60.3,70.1L60.4,64.0L60.2,63.4L60.3,58.3L60.2,57.7L59.9,57.3L55.8,57.1L30.1,57.2L29.6,57.4L28.3,58.8L27.0,59.5L25.7,59.9L23.8,59.9L22.8,59.6L21.8,59.1L21.2,58.7L20.1,57.7L19.5,56.5L19.0,54.7L19.0,53.7L19.2,53.0L19.7,51.6L20.3,50.6L21.2,49.7L22.3,48.9L23.7,48.5L25.5,48.3L26.4,48.5L28.2,49.4L29.2,50.3L30.2,51.7L30.9,51.9L48.3,51.7L54.8,51.8L60.0,51.7L60.3,51.1L60.3,38.4Z M66.4,38.0L66.3,38.2L66.2,39.5L66.2,58.3L66.4,74.9L66.3,79.6L66.4,82.0L66.4,86.0L66.5,90.0L66.7,90.2L68.7,90.3L79.1,90.4L79.4,90.3L79.8,89.9L79.9,60.6L79.8,60.0L79.5,59.4L78.7,58.8L77.6,57.8L76.7,56.3L76.3,54.8L76.3,53.4L76.7,51.7L77.0,51.1L78.2,49.6L79.0,49.0L80.5,48.3L81.6,48.0L82.9,48.0L83.9,48.1L84.7,48.4L85.9,49.0L86.5,49.5L87.3,50.3L87.9,51.4L88.4,52.6L88.5,53.4L88.5,54.8L88.2,56.0L87.5,57.4L86.2,58.8L85.9,59.4L85.9,89.9L86.3,90.3L87.5,90.4L99.1,90.4L99.3,90.2L99.6,85.2L99.5,79.5L99.6,75.6L99.6,71.7L99.7,59.9L99.4,58.9L98.2,57.6L97.6,56.6L97.1,54.8L97.1,53.4L97.4,51.9L97.9,50.8L99.2,49.4L100.4,48.6L101.3,48.2L102.5,48.0L104.1,48.0L105.2,48.3L106.6,49.0L107.3,49.5L108.3,50.6L108.7,51.3L109.3,53.1L109.3,54.7L109.0,56.0L108.6,56.9L107.6,58.3L106.2,59.4L105.8,60.0L105.6,65.6L105.6,89.9L105.8,90.2L106.2,90.4L115.7,90.5L118.5,90.3L118.8,90.0L118.8,89.2L118.9,80.3L119.1,77.5L119.0,73.7L119.1,68.3L119.1,65.6L119.2,55.7L119.1,48.7L119.1,44.0L119.0,38.4L118.5,38.0L117.4,37.9L109.5,37.8L106.6,37.9L92.5,37.7L72.5,37.7L66.7,37.8Z" fill="#000" fill-rule="evenodd"/>
</svg>