<svg xmlns="http://www.w3.org/2000/svg" viewBox="0 0 128 128" width="128" height="128">
  <path d="M36.4,9.2L35.9,9.9L35.9,10.7L36.1,11.5L36.1,37.4L36.2,38.7L36.3,57.6L36.5,68.1L36.4,73.3L36.6,74.0L36.5,83.0L36.6,88.8L36.7,89.4L36.6,90.8L36.7,92.6L36.7,106.4L36.6,106.9L36.6,107.5L36.7,108.2L36.7,118.1L36.9,118.8L37.0,119.0L37.8,119.2L42.3,119.2L43.1,119.0L43.5,118.6L43.5,104.7L43.4,99.1L43.5,95.0L43.2,86.4L43.3,82.6L43.1,73.1L43.3,70.2L43.7,69.6L44.9,69.5L59.2,69.5L60.9,69.6L61.4,70.2L61.5,72.1L61.4,73.3L61.7,86.5L61.6,91.2L61.8,96.8L61.8,116.5L61.8,118.5L62.0,118.8L62.3,119.0L68.2,119.0L68.7,118.6L68.7,98.9L68.5,92.3L68.6,84.8L68.4,82.2L68.4,70.2L68.8,69.6L70.4,69.5L84.6,69.5L84.9,69.6L85.3,70.0L85.5,70.6L85.6,74.7L85.6,83.5L85.7,88.7L85.9,117.8L86.0,118.4L86.6,118.7L90.2,118.7L92.1,118.5L92.3,118.2L92.4,117.8L92.3,100.2L92.1,98.3L92.2,94.5L92.1,93.3L92.1,90.6L92.0,87.8L91.9,69.3L91.8,65.6L91.8,63.8L91.8,62.8L91.6,62.5L91.1,62.2L90.0,62.1L86.6,62.1L85.4,62.3L73.4,62.2L71.6,62.3L68.2,62.2L63.4,62.3L44.1,62.3L43.6,62.1L43.4,61.9L43.1,60.9L43.0,43.0L43.1,42.3L43.4,42.0L43.8,41.9L52.8,41.6L56.3,41.8L84.0,41.8L84.9,41.9L90.8,41.9L91.1,41.9L91.4,41.6L91.5,41.2L91.5,35.3L91.2,35.0L90.8,34.8L61.4,34.6L56.5,34.7L43.8,34.7L43.3,34.5L43.0,34.1L42.9,33.8L42.8,16.7L42.9,16.4L43.1,16.1L44.4,15.9L55.7,15.8L66.5,15.9L70.0,16.1L75.1,16.0L77.7,16.1L90.6,16.3L91.0,16.2L91.2,15.9L91.2,9.9L90.7,9.5L89.6,9.5L81.9,9.4L78.6,9.2L76.9,9.3L64.1,9.1L42.0,9.1Z" fill="#000" fill-rule="evenodd"/>
</svg>