<svg xmlns="http://www.w3.org/2000/svg" viewBox="0 0 128 128" width="128" height="128">
  <path d="M107.7,9.3L98.0,9.2L94.9,9.4L87.0,9.3L85.3,9.5L82.7,9.4L68.2,9.7L51.4,9.7L48.6,9.8L46.9,10.2L45.7,10.3L45.0,10.5L43.8,10.7L40.3,11.8L37.0,13.3L35.4,14.4L34.7,14.6L33.8,15.3L32.9,15.8L30.7,17.5L27.6,20.7L24.7,24.5L22.9,27.7L21.9,30.1L21.7,30.2L20.5,34.0L19.8,38.2L19.5,43.0L19.9,47.2L20.3,49.3L21.6,53.7L22.7,56.3L24.9,60.2L25.5,60.9L25.9,61.6L27.8,64.0L30.1,66.2L32.5,68.2L34.4,69.6L34.9,69.7L36.0,70.5L38.4,71.7L42.4,73.3L46.9,74.3L48.6,74.4L49.2,74.5L61.9,74.6L62.3,74.8L62.6,75.2L62.6,80.6L62.8,82.8L62.9,89.3L62.8,91.9L63.0,94.3L62.9,98.0L63.1,100.8L63.1,115.7L63.1,118.0L63.3,118.3L63.7,118.7L84.7,118.8L93.3,118.9L99.3,118.9L107.6,119.0L108.1,118.9L108.5,118.8L108.7,118.5L108.7,101.5L108.5,99.1L108.1,98.7L107.6,98.5L86.1,98.5L84.0,98.2L83.7,97.9L83.5,96.7L83.4,81.4L83.5,75.2L83.6,74.9L84.0,74.6L107.6,74.6L108.2,74.3L108.2,56.1L108.1,54.7L107.5,54.1L107.1,54.0L84.1,54.0L83.7,53.8L83.4,53.4L83.2,51.1L83.3,47.9L83.1,32.4L83.2,30.6L83.5,30.3L84.9,30.1L107.5,30.1L108.0,29.7L108.1,29.4L108.1,10.8L108.1,9.7Z M61.9,30.6L62.2,31.1L62.4,34.3L62.3,42.1L62.5,49.0L62.3,53.7L61.9,54.0L58.0,54.1L52.3,54.1L50.3,54.0L47.6,53.3L46.0,52.5L44.8,51.7L42.7,49.6L41.5,47.6L40.6,45.4L40.3,43.9L40.3,41.6L40.5,41.0L40.4,39.7L40.6,39.1L41.6,36.5L42.7,34.9L44.3,33.2L46.0,32.0L47.6,31.3L49.6,30.7L51.5,30.4L61.5,30.4Z" fill="#000" fill-rule="evenodd"/>
</svg>