<svg xmlns="http://www.w3.org/2000/svg" viewBox="0 0 128 128" width="128" height="128">
  <path d="M89.7,18.5L89.4,18.6L88.9,19.4L88.8,27.8L89.0,81.4L89.0,109.0L89.5,109.6L92.1,109.6L97.9,109.1L99.9,108.6L100.8,108.1L101.9,106.9L102.5,105.3L102.8,103.8L103.1,96.8L103.0,26.3L102.7,23.9L102.2,22.0L101.5,21.1L100.0,19.8L99.0,19.4L97.2,19.0Z M94.0,22.3L94.8,22.3L96.4,22.7L97.7,23.4L98.0,23.9L98.6,25.4L98.7,28.7L98.9,29.7L98.8,47.9L99.1,99.8L98.8,102.3L98.1,104.0L96.9,105.3L96.1,105.8L95.0,106.1L94.0,106.1L93.3,105.5L93.1,102.3L93.2,85.6L93.0,72.3L93.0,28.0L93.2,22.9L93.5,22.5Z M13.1,11.1L10.8,11.1L10.0,11.5L9.8,11.9L9.9,14.2L10.5,14.7L11.4,14.7L12.3,14.9L12.8,15.5L13.1,16.9L13.1,20.0L12.7,20.5L12.1,20.8L10.2,20.9L9.7,21.4L9.7,49.1L9.6,56.9L9.6,58.4L10.0,59.1L10.6,59.3L11.1,59.2L11.9,59.4L12.7,60.0L13.0,62.1L13.1,65.7L12.8,66.1L12.5,66.3L10.2,66.6L9.9,66.8L9.6,67.3L9.6,99.2L9.5,102.9L9.6,106.6L9.6,107.9L9.6,108.3L9.8,108.5L10.6,108.8L12.0,109.0L12.5,109.5L12.5,110.2L12.7,111.2L12.7,113.8L12.5,115.2L12.2,115.8L11.2,116.0L10.0,116.0L9.6,116.4L9.5,116.9L9.6,117.8L9.7,118.2L10.3,118.5L14.9,118.7L15.5,118.5L15.9,118.2L16.2,114.4L16.2,106.9L16.0,106.5L15.5,106.0L14.8,105.8L13.9,105.2L13.5,103.8L13.7,89.8L13.7,74.5L13.8,71.4L14.0,70.3L14.7,69.8L15.9,69.4L16.2,69.1L16.4,68.5L16.4,57.0L16.0,56.3L15.5,56.0L14.4,55.8L13.9,55.2L13.7,54.8L13.8,27.8L13.9,25.8L14.1,25.1L14.7,24.5L15.8,24.2L16.3,23.3L16.3,15.5L16.5,12.4L16.3,11.6L15.7,11.1Z M27.9,10.9L19.5,11.1L18.9,11.1L18.2,11.8L18.1,12.1L18.1,14.1L18.3,14.5L18.9,14.9L24.5,14.9L25.1,15.1L25.8,16.0L25.8,19.1L25.5,19.8L25.2,20.0L20.5,20.1L19.9,20.3L19.7,20.6L19.4,21.6L19.4,26.1L19.6,27.2L19.4,35.5L19.4,58.6L19.7,59.4L20.4,59.7L24.4,59.7L25.2,59.9L25.8,60.5L26.0,62.0L25.9,64.1L25.7,64.9L25.3,65.3L24.6,65.5L20.2,65.5L19.5,66.2L19.3,67.3L19.2,108.4L19.3,108.7L19.9,109.2L20.2,109.3L24.7,109.4L25.2,109.6L25.8,110.3L25.8,114.4L25.4,114.9L24.6,115.2L19.3,115.2L18.7,115.4L18.4,115.6L18.3,116.1L18.4,118.2L19.0,118.6L19.9,118.7L21.4,118.6L28.3,118.8L29.3,118.5L29.7,118.2L29.9,117.2L29.9,106.8L29.6,106.3L28.9,105.9L24.2,105.7L23.2,105.1L22.9,104.2L23.1,97.0L23.0,92.5L23.2,70.9L23.6,70.0L23.9,69.8L24.4,69.6L29.1,69.5L29.8,68.8L30.0,67.8L29.8,58.2L29.9,57.6L29.8,56.8L29.5,56.3L29.1,56.0L28.7,55.9L25.0,55.9L24.2,55.7L23.5,55.2L23.2,54.7L23.2,25.8L23.5,25.0L24.1,24.4L24.6,24.3L27.9,24.3L29.1,24.0L29.6,23.4L29.8,22.2L29.8,12.1L29.5,11.3L29.2,11.1Z M34.1,10.8L33.1,11.1L32.7,11.9L32.7,13.8L32.8,14.0L33.4,14.6L44.7,14.5L45.2,14.6L45.9,15.2L46.0,15.5L46.0,18.9L45.9,19.3L45.6,19.6L44.5,19.9L37.0,20.0L36.1,20.3L35.8,20.7L35.6,22.9L35.8,55.9L35.7,58.8L36.2,59.5L37.5,59.6L44.9,59.6L45.6,59.9L46.1,60.9L46.1,64.4L45.8,64.9L45.3,65.2L44.5,65.4L36.7,65.4L36.1,65.8L35.9,66.4L35.7,71.2L35.7,108.3L35.9,108.9L36.3,109.3L44.7,109.5L45.7,109.7L46.1,110.4L46.1,114.2L45.1,115.2L33.9,115.1L33.3,115.3L32.7,116.1L32.7,117.9L33.2,118.6L34.0,118.8L48.4,118.8L49.4,118.5L49.8,117.5L49.9,108.0L49.7,106.2L49.4,106.0L48.4,105.8L40.8,105.7L40.4,105.5L39.7,105.0L39.4,103.5L39.6,83.0L39.5,78.2L39.6,71.7L39.8,70.3L40.3,69.7L40.8,69.5L42.6,69.5L43.4,69.3L49.2,69.2L49.8,68.6L50.0,66.8L49.9,57.0L49.8,56.4L49.5,56.0L48.9,55.7L41.1,55.7L40.3,55.4L39.9,55.1L39.7,54.6L39.7,25.9L40.0,24.6L40.5,24.3L41.3,24.0L48.7,23.9L49.5,23.6L49.8,23.0L50.0,11.7L49.9,11.1L49.6,10.8L49.3,10.7Z M76.6,10.0L54.3,10.4L53.4,11.1L53.4,11.9L53.2,12.4L53.3,13.6L53.7,14.0L54.5,14.2L61.2,14.2L62.5,14.0L71.4,14.0L72.8,14.2L73.1,14.7L73.2,15.4L73.1,18.7L72.5,19.3L71.4,19.5L63.5,19.6L59.9,19.8L59.5,20.1L59.3,20.9L59.3,50.0L59.5,58.6L60.0,59.3L60.5,59.4L71.6,59.3L72.7,59.6L73.0,60.0L73.1,60.6L73.1,64.3L72.8,64.8L71.5,65.1L61.1,65.1L59.9,65.4L59.5,66.1L59.5,108.5L59.9,109.2L61.1,109.4L63.4,109.4L64.2,109.6L66.7,109.5L67.4,109.3L72.3,109.4L72.7,109.6L73.1,110.2L73.1,114.0L72.8,114.8L72.4,115.0L71.0,115.2L69.2,115.0L54.5,115.1L53.9,115.3L53.7,115.5L53.4,116.3L53.5,118.0L53.8,118.4L54.3,118.6L67.8,118.8L69.7,118.6L72.2,118.8L74.9,118.8L76.3,118.6L77.0,118.0L77.2,114.8L77.1,106.4L76.8,106.1L76.1,105.8L74.7,105.7L64.9,105.7L64.1,105.4L63.8,105.1L63.5,103.9L63.7,88.3L63.6,77.7L63.8,70.1L64.2,69.5L64.7,69.2L65.3,69.1L76.0,69.1L76.8,68.9L77.1,68.4L77.2,61.0L77.1,56.0L76.5,55.5L65.0,55.5L64.2,55.3L63.7,54.6L63.5,51.6L63.6,40.5L63.8,39.8L63.6,39.0L63.7,25.3L64.0,24.1L64.8,23.6L69.9,23.4L75.8,23.4L76.9,23.0L77.2,22.2L77.3,11.3L77.2,10.3Z M107.3,9.8L104.9,9.6L103.6,9.4L95.3,9.5L93.3,9.6L89.3,9.6L88.4,9.8L81.6,9.7L80.9,9.8L80.3,10.1L80.1,11.3L80.1,13.0L80.5,13.6L80.9,13.7L96.4,13.4L103.8,13.6L106.6,14.5L108.7,15.8L110.9,18.0L112.5,20.9L113.1,22.9L113.8,25.8L113.8,27.6L114.0,29.3L113.9,62.0L114.0,63.7L114.0,70.3L114.1,75.4L114.0,79.1L114.2,82.9L114.2,100.0L113.8,105.7L112.7,108.8L111.6,110.5L109.7,112.5L107.6,113.7L104.5,114.7L103.8,114.7L102.8,115.0L80.9,115.0L80.2,115.5L80.1,116.1L80.2,118.1L80.4,118.4L80.9,118.6L91.0,118.6L92.8,118.8L101.3,118.9L105.5,118.4L109.2,117.4L110.1,116.9L110.9,116.8L112.7,115.6L113.8,114.9L115.4,113.1L116.6,111.1L117.7,107.5L118.3,104.7L118.4,102.1L118.6,100.0L118.5,92.4L118.7,90.1L118.5,78.0L118.7,77.3L118.5,73.1L118.6,62.5L118.4,60.4L118.4,45.5L118.3,42.2L118.4,30.3L118.1,25.3L117.7,22.8L117.3,21.9L116.9,20.2L116.7,19.8L115.9,17.4L114.6,15.1L112.7,13.0L109.7,10.9Z" fill="#000" fill-rule="evenodd"/>
</svg>