<svg xmlns="http://www.w3.org/2000/svg" viewBox="0 0 128 128" width="128" height="128">
  <path d="M17.7,86.2L17.8,86.7L18.2,87.7L20.4,92.0L22.6,95.6L23.0,96.0L24.4,98.0L26.8,101.0L29.8,104.1L33.3,107.3L36.6,109.9L39.6,111.8L40.2,112.0L40.7,112.4L42.9,113.5L43.3,113.8L46.0,115.1L50.7,116.8L51.6,117.0L51.9,117.1L54.3,117.7L54.9,117.9L59.2,118.7L62.2,119.0L63.0,119.1L65.8,119.2L69.7,119.1L72.1,118.9L75.2,118.3L76.4,118.2L81.0,117.1L84.2,116.1L84.9,115.7L86.4,115.2L87.8,114.5L88.3,114.4L88.5,114.2L89.0,114.0L91.0,113.1L93.2,111.7L94.2,111.2L94.6,110.8L95.7,110.3L97.3,109.0L98.1,108.6L102.0,105.4L104.4,103.0L106.7,100.6L109.7,96.8L111.9,93.6L112.8,91.8L113.3,91.2L113.5,90.6L113.8,90.3L113.9,89.8L114.2,89.5L115.1,87.5L115.0,87.1L114.6,87.0L99.0,86.7L96.1,86.6L95.0,86.7L94.0,86.5L83.2,86.4L71.7,86.1L63.4,86.1L57.0,85.9L51.2,86.0L47.9,85.9L38.0,85.9L18.4,85.8L18.1,85.9Z M14.9,79.0L15.3,79.7L15.6,80.8L16.0,81.7L16.2,81.9L16.7,82.1L18.1,82.2L39.7,82.3L52.9,82.7L61.4,82.7L63.9,82.8L81.6,83.1L84.2,82.9L86.3,82.6L89.0,82.0L89.7,81.7L90.5,81.6L94.5,80.1L98.9,77.6L102.0,75.2L105.9,71.3L108.3,68.0L109.3,66.3L110.8,63.3L111.6,61.4L112.8,57.4L113.5,54.2L113.7,53.6L113.7,52.4L113.9,52.0L113.8,50.2L113.6,49.8L113.1,49.6L104.7,49.3L102.8,49.4L95.8,49.3L93.2,49.2L73.7,49.0L63.1,48.8L54.7,48.8L54.0,48.6L41.8,48.7L21.2,48.4L15.8,48.5L15.4,48.8L15.1,49.6L14.1,54.2L13.6,57.1L13.2,61.9L13.3,68.1L13.6,70.6L13.6,71.7L14.2,75.6L14.9,78.0Z M41.6,9.2L41.3,9.2L41.0,9.6L40.5,10.0L40.5,10.2L40.9,10.6L41.3,10.7L41.7,10.5L41.7,9.6Z M16.9,44.1L16.9,44.6L17.3,44.9L46.3,45.2L49.5,45.3L65.4,45.4L83.2,45.7L93.9,45.7L105.6,46.0L113.1,46.0L113.4,45.8L113.5,44.7L112.8,41.1L112.2,39.4L112.0,38.5L111.6,37.5L111.6,37.2L111.1,36.3L110.8,35.4L110.4,34.7L110.3,34.2L109.0,31.8L107.5,29.5L104.2,25.3L100.6,21.7L99.5,20.8L96.1,18.2L93.6,16.6L92.7,16.2L91.8,15.5L89.4,14.3L88.7,14.1L88.3,13.7L87.9,13.7L87.3,13.3L86.8,13.3L86.3,12.9L85.6,12.8L85.3,12.5L83.3,11.9L82.7,11.6L82.1,11.5L81.2,11.1L79.6,10.8L79.1,10.6L77.4,10.2L76.8,10.2L74.8,9.7L73.2,9.6L71.7,9.3L69.2,9.1L64.4,9.1L62.2,9.3L56.4,10.1L55.5,10.4L54.3,10.6L53.5,10.9L51.2,11.4L48.8,12.2L43.8,14.4L40.5,16.1L40.2,16.5L39.6,16.7L36.1,19.0L33.3,21.2L31.0,23.2L27.9,26.3L24.8,29.9L22.2,33.7L19.8,37.7L18.2,40.9Z" fill="#000" fill-rule="evenodd"/>
</svg>