<svg xmlns="http://www.w3.org/2000/svg" viewBox="0 0 128 128" width="128" height="128">
  <path d="M61.3,9.1L60.0,9.4L57.8,9.5L55.8,9.8L51.9,10.9L51.0,11.3L50.5,11.4L49.9,11.7L48.9,11.9L47.5,12.6L45.6,13.2L43.2,14.3L42.7,14.4L40.7,15.6L38.3,16.8L35.7,18.5L35.1,18.8L34.2,19.6L31.5,21.3L30.0,22.8L27.2,25.1L21.6,31.1L19.7,33.9L18.4,36.0L17.9,36.6L17.8,37.1L17.0,38.4L16.2,40.1L15.4,41.4L14.4,43.4L14.2,43.9L14.0,44.2L13.7,45.0L13.5,45.4L13.3,46.2L12.5,48.4L12.5,48.7L12.1,49.6L12.0,50.6L11.7,51.4L11.2,54.6L10.7,56.5L10.6,58.7L10.4,60.0L10.5,61.3L10.3,63.4L10.3,67.0L10.5,67.3L10.5,70.7L11.1,73.6L11.4,76.3L11.7,77.1L12.1,78.9L12.9,80.8L13.2,82.3L13.8,83.6L14.5,85.7L15.2,87.0L15.8,88.3L17.4,91.1L17.6,91.7L17.8,92.0L19.3,94.5L20.0,95.3L20.7,96.5L23.1,99.1L23.9,100.5L25.4,101.8L26.8,103.4L31.1,107.3L32.7,108.3L32.9,108.6L35.4,110.4L37.3,111.5L38.2,112.1L42.8,114.5L43.6,114.6L44.6,115.2L45.5,115.4L46.9,116.1L48.5,116.6L49.3,116.7L50.1,117.0L50.9,117.2L51.7,117.6L52.8,117.9L54.6,118.2L55.4,118.4L56.6,118.4L58.3,118.8L59.1,118.8L59.8,119.0L61.6,119.0L62.4,119.1L66.1,119.1L67.5,119.0L69.0,119.0L72.4,118.5L78.9,117.0L79.3,116.8L80.0,116.7L81.7,116.1L83.1,115.5L83.7,115.4L84.7,115.0L87.5,113.6L88.1,113.4L88.7,112.9L91.5,111.5L97.1,107.6L98.9,106.1L99.8,105.2L101.4,103.9L105.3,99.8L105.8,98.8L108.1,96.0L108.6,94.9L109.4,94.0L109.9,93.0L110.8,91.8L112.6,88.3L113.5,86.0L113.9,85.5L114.3,84.3L114.9,83.0L115.4,80.9L115.6,80.3L115.5,79.8L115.3,79.6L114.6,79.4L112.6,79.3L111.8,79.2L111.0,79.3L101.7,79.1L101.0,79.3L100.7,79.4L100.4,79.9L99.5,81.8L96.8,86.5L94.3,89.9L92.2,92.3L88.9,95.3L86.0,97.6L85.7,97.7L83.2,99.2L81.6,99.9L80.3,100.7L78.6,101.4L77.5,101.7L76.7,102.1L73.8,103.2L72.5,103.4L71.9,103.7L70.9,103.8L69.3,104.2L67.5,104.4L64.6,104.6L62.4,104.6L58.3,104.1L57.7,103.8L55.4,103.6L54.6,103.3L53.8,103.2L53.3,103.0L52.3,102.8L51.7,102.5L49.9,101.9L47.2,100.6L46.5,100.2L45.8,99.9L43.3,98.5L38.3,94.7L33.5,89.7L33.2,89.1L31.7,87.3L31.0,86.0L30.2,85.0L27.8,80.0L27.7,79.4L27.5,79.1L27.2,78.1L26.5,76.5L25.5,71.8L25.5,70.1L26.0,69.7L26.5,69.5L30.6,69.6L34.3,69.5L35.1,69.6L40.4,69.6L41.1,69.8L45.6,69.6L56.9,70.0L85.4,70.0L88.9,70.1L90.3,70.3L101.9,70.2L104.1,70.3L109.8,70.3L111.1,70.5L113.5,70.3L116.5,70.4L117.4,70.1L117.8,69.5L117.9,68.7L117.9,60.9L117.9,60.5L117.5,60.1L117.5,59.6L117.8,58.9L117.8,58.0L117.5,56.7L117.4,54.7L117.1,53.6L117.0,52.5L116.1,49.3L116.0,48.6L115.7,47.9L115.5,47.0L115.1,46.1L115.1,45.8L114.3,43.8L113.8,42.3L112.0,38.5L111.7,38.1L111.2,36.9L110.8,36.4L109.9,34.8L109.1,33.8L108.5,32.6L107.8,31.8L107.7,31.4L103.2,26.1L99.1,22.1L97.7,21.2L96.1,19.7L93.8,18.1L92.9,17.3L91.7,16.8L89.5,15.6L88.9,15.2L86.8,14.1L86.1,13.9L84.8,13.2L84.1,13.1L83.1,12.5L80.8,11.8L80.4,11.5L79.3,11.3L78.9,11.1L75.8,10.1L75.2,10.1L73.4,9.7L70.8,9.4L69.7,9.2L69.0,9.2L68.1,9.5L67.5,9.1Z M74.7,27.1L75.6,27.0L77.3,27.8L78.3,28.0L79.8,28.7L81.6,29.3L84.4,30.9L85.1,31.1L88.1,33.3L90.2,35.1L90.9,35.6L92.5,37.2L93.4,38.5L94.6,39.7L95.5,41.1L96.5,42.4L97.9,44.5L99.6,47.7L99.6,47.9L99.9,48.4L101.3,52.4L101.7,53.9L101.7,55.0L101.2,55.4L99.4,55.6L98.3,55.4L91.5,55.5L89.8,55.3L75.5,55.3L71.8,55.1L71.5,54.8L71.6,54.4L72.2,53.9L72.8,53.6L73.6,52.8L74.5,52.2L75.3,51.2L75.9,50.7L76.7,49.6L77.0,49.0L78.5,46.6L78.7,45.6L79.0,45.1L79.4,44.1L79.6,42.3L79.9,41.7L79.9,38.3L79.5,35.9L79.1,34.6L78.7,34.1L78.2,32.4L77.4,31.1L77.3,30.8L76.0,29.1L74.6,27.5Z M53.8,26.7L53.9,27.2L51.7,29.4L51.0,30.4L50.1,32.2L49.5,33.7L49.3,34.0L49.0,35.0L48.7,35.6L48.3,37.4L48.3,41.3L48.8,44.1L49.0,44.6L49.2,45.5L49.7,47.0L50.4,48.2L51.9,50.3L52.7,51.0L53.1,51.5L54.4,52.8L55.0,53.3L55.4,53.4L56.1,54.0L56.3,54.5L55.8,54.9L49.9,55.0L43.5,54.9L39.0,54.7L38.3,54.8L34.6,54.6L29.6,54.6L29.1,54.4L26.8,54.3L26.4,54.0L26.4,53.3L26.8,52.1L28.1,48.8L28.3,48.2L28.4,48.0L28.5,47.5L29.2,46.2L30.5,43.8L31.3,42.8L31.8,41.8L34.7,38.6L35.0,38.0L38.0,35.1L39.2,34.0L40.7,33.1L41.4,32.4L42.6,31.8L44.0,30.7L48.9,28.1L52.1,27.0L53.4,26.6Z" fill="#000" fill-rule="evenodd"/>
</svg>