<svg xmlns="http://www.w3.org/2000/svg" viewBox="0 0 128 128" width="128" height="128">
  <path d="M61.3,10.0L56.6,10.5L53.8,11.0L52.7,11.3L51.8,11.4L50.1,12.0L49.0,12.1L47.6,12.7L46.2,13.0L45.6,13.3L42.1,14.6L39.4,16.0L39.0,16.0L38.7,16.3L38.2,16.4L37.9,16.7L35.6,17.9L34.8,18.4L34.2,18.7L33.2,19.5L32.1,20.1L29.0,22.4L26.8,24.3L25.6,25.6L23.9,27.1L20.6,30.8L17.4,35.5L16.6,37.0L15.9,37.9L14.1,41.6L13.9,42.2L13.2,43.5L13.0,44.3L12.6,44.8L11.7,47.6L11.7,47.9L11.3,48.9L10.6,51.6L9.6,56.6L9.1,61.6L9.1,67.4L9.7,72.3L10.9,77.9L11.9,81.3L12.7,83.2L12.8,83.7L14.3,86.8L14.4,87.2L15.4,89.2L15.7,89.4L15.9,90.0L16.6,90.9L17.6,92.8L20.7,97.1L22.2,98.8L23.0,99.6L23.4,100.3L27.4,104.1L31.4,107.3L33.3,108.6L34.5,109.2L35.4,110.0L37.2,111.0L41.8,113.3L46.6,115.2L49.7,116.1L52.2,116.7L52.7,116.9L53.8,117.0L54.9,117.3L56.1,117.4L57.0,117.6L62.4,118.2L68.6,118.1L73.7,117.6L77.3,116.8L78.2,116.5L78.6,116.5L84.1,114.8L84.8,114.4L85.5,114.3L86.9,113.6L87.5,113.4L90.9,111.7L93.3,110.2L93.8,110.0L94.3,109.6L95.8,108.7L98.4,106.8L99.1,106.0L100.0,105.5L103.8,101.8L106.3,99.2L110.0,94.4L111.2,92.5L112.3,90.4L113.0,89.4L114.5,86.0L114.8,85.6L114.9,85.1L115.2,84.5L115.5,83.4L115.7,83.2L116.1,82.1L116.3,81.1L116.7,80.3L117.3,77.7L117.5,77.2L117.6,76.4L118.0,75.1L118.1,73.9L118.4,73.0L118.4,72.3L118.9,69.6L119.0,68.0L118.8,67.6L118.4,67.4L111.7,67.4L110.4,67.6L107.3,67.6L106.7,68.0L106.5,68.8L106.3,70.8L105.9,73.0L104.8,77.2L103.9,79.4L103.8,80.1L101.0,85.5L100.2,86.6L99.8,87.6L99.0,88.5L98.8,88.9L97.8,90.4L95.0,93.4L91.4,96.8L91.1,96.8L90.5,97.5L89.1,98.3L87.8,99.3L86.6,100.0L85.8,100.6L84.6,101.1L84.2,101.4L82.5,102.3L78.1,104.0L76.9,104.3L76.2,104.6L75.8,104.6L73.1,105.3L69.0,106.0L66.1,106.1L62.6,106.1L61.6,106.0L59.3,105.9L54.6,105.0L49.8,103.6L46.7,102.4L43.1,100.5L40.3,98.8L37.0,96.4L33.0,92.7L30.2,89.4L27.9,86.4L27.6,85.6L26.5,83.9L24.8,80.5L23.4,76.5L22.6,73.7L22.1,71.1L21.8,68.5L21.7,68.0L21.6,65.7L21.8,65.4L22.2,65.1L25.6,65.0L72.0,65.6L111.0,65.6L111.9,65.4L116.6,65.4L118.5,65.2L118.9,65.0L119.0,64.7L119.1,62.6L119.0,59.5L118.8,58.9L118.6,56.0L117.4,49.6L117.2,49.5L116.5,46.8L116.2,46.4L116.1,45.6L115.8,45.3L115.2,43.3L114.8,42.6L114.3,41.2L113.5,39.9L113.0,38.6L112.2,37.4L111.0,35.1L110.5,34.4L110.3,34.0L109.3,32.6L109.2,32.3L104.7,26.9L101.5,23.8L96.6,19.9L95.1,18.8L93.5,18.0L92.6,17.2L89.3,15.6L89.0,15.4L86.5,14.4L86.0,14.0L82.6,12.8L81.8,12.6L81.2,12.3L76.2,11.0L74.1,10.8L72.8,10.4L67.3,10.0Z M21.7,60.2L21.8,59.6L21.8,58.6L22.0,58.1L22.1,57.0L23.4,51.6L24.8,48.0L26.1,45.2L27.3,43.1L28.1,42.0L28.4,41.2L29.0,40.7L29.6,39.6L31.0,37.7L32.7,35.9L36.0,32.7L36.2,32.6L36.8,32.0L39.2,30.2L42.8,28.0L47.0,25.8L47.5,25.7L50.0,24.7L51.0,24.4L53.0,23.7L56.6,22.9L60.6,22.4L65.5,22.2L69.7,22.5L70.6,22.8L71.9,22.8L72.7,23.1L74.0,23.2L75.6,23.7L76.0,23.7L76.9,24.1L77.5,24.2L78.2,24.5L80.2,25.2L80.5,25.4L81.3,25.6L81.8,26.0L82.3,26.0L83.4,26.5L83.6,26.8L84.7,27.2L87.4,28.8L87.7,29.1L89.6,30.3L93.1,33.1L96.8,36.9L98.6,39.1L99.8,40.8L100.7,42.5L101.2,43.1L102.4,45.5L102.9,46.2L104.6,50.4L105.8,54.9L106.6,58.9L106.7,63.2L106.5,63.6L104.8,63.8L103.0,63.7L95.6,64.0L63.9,64.0L57.3,63.8L40.8,63.7L39.8,63.6L34.2,63.6L28.2,63.4L23.4,63.4L22.2,63.2L21.7,62.8Z" fill="#000" fill-rule="evenodd"/>
</svg>