<svg xmlns="http://www.w3.org/2000/svg" viewBox="0 0 128 128" width="128" height="128">
  <path d="M9.6,62.7L10.0,72.0L10.6,73.8L10.6,74.4L11.1,76.8L11.5,78.1L11.6,78.9L12.9,83.2L13.3,83.9L13.8,85.2L13.8,85.5L14.0,85.8L14.2,86.4L15.3,88.3L15.4,88.7L17.2,92.1L17.5,92.5L17.8,93.1L19.0,95.1L22.5,99.7L25.0,102.2L25.3,102.7L29.8,107.0L30.3,107.3L31.3,108.1L31.9,108.3L33.6,109.7L35.7,111.0L36.5,111.4L38.1,112.5L39.3,113.2L40.0,113.4L41.3,114.2L47.0,116.3L53.1,118.0L54.4,118.1L55.3,118.3L58.3,118.7L59.1,118.7L60.5,119.1L65.9,119.1L67.2,118.9L70.5,118.8L71.2,118.5L74.0,118.1L74.6,117.9L75.7,117.8L81.6,116.0L85.1,114.5L87.6,113.6L89.0,112.7L89.7,112.5L92.3,110.9L93.5,110.4L95.1,109.1L95.6,109.0L100.2,105.2L104.8,100.6L108.5,95.7L109.7,94.4L110.1,93.5L111.0,92.1L111.0,91.8L111.9,90.5L113.0,88.2L113.6,87.2L113.7,86.8L114.4,85.4L114.6,84.7L114.9,84.1L115.5,82.6L115.7,81.8L116.3,80.2L116.5,79.3L116.8,78.5L117.0,77.3L117.6,75.5L117.5,75.1L117.0,74.6L113.2,74.6L112.6,75.0L111.4,79.7L109.3,84.9L108.1,87.4L105.1,92.4L101.3,97.2L96.5,102.2L93.2,104.7L92.5,105.1L90.5,106.6L89.2,107.3L88.9,107.5L88.3,107.8L88.0,108.1L86.9,108.7L85.6,109.1L85.5,109.3L84.9,109.4L82.2,110.7L81.0,111.2L78.3,111.8L77.7,112.2L77.0,112.5L75.3,112.7L74.7,113.0L73.3,113.1L71.4,113.6L70.2,113.6L68.7,113.9L64.8,114.1L64.2,114.2L60.2,114.2L56.7,113.8L55.7,113.4L54.7,113.4L53.8,113.0L51.7,112.7L47.8,111.5L46.5,111.0L45.9,110.6L44.0,110.0L43.3,109.5L41.6,108.8L40.8,108.3L39.4,107.7L35.3,105.0L34.4,104.2L33.1,103.3L32.2,102.4L31.3,101.9L28.7,99.4L24.7,95.0L23.8,93.6L23.4,93.2L22.4,91.5L22.3,91.2L20.6,88.7L20.1,87.4L18.7,84.9L18.3,83.6L18.0,83.2L17.8,82.3L17.5,81.9L16.9,79.8L16.1,78.4L15.5,75.5L15.5,74.6L15.3,74.2L15.3,73.6L14.8,72.1L14.4,69.9L14.3,67.5L14.3,62.6L14.4,62.0L14.8,61.7L16.1,61.6L18.7,61.8L26.9,61.7L39.1,61.9L41.7,62.0L50.6,61.9L54.0,62.0L60.7,61.9L62.4,62.1L66.1,62.2L72.7,62.1L96.6,62.5L103.6,62.3L105.2,62.5L108.9,62.5L109.2,62.3L109.3,61.5L109.1,59.3L108.8,58.3L108.1,58.0L106.4,57.9L95.0,57.8L94.0,57.6L89.9,57.7L88.3,57.6L86.9,57.6L86.3,57.5L84.8,57.5L83.9,57.6L73.8,57.6L72.2,57.5L63.6,57.6L62.5,57.4L48.8,57.4L46.8,57.3L45.8,57.2L29.9,57.2L28.5,57.0L27.4,57.2L15.8,57.2L14.6,57.0L13.9,57.0L13.4,57.2L10.5,57.1L10.0,57.5Z M10.8,52.2L10.8,52.9L11.0,53.1L12.0,53.3L14.9,53.2L15.6,52.7L16.0,51.9L16.6,49.3L17.3,47.8L17.5,46.6L18.9,43.6L19.3,42.9L19.4,42.3L19.7,41.6L20.4,40.7L20.7,39.8L21.9,37.6L23.2,36.0L23.8,34.8L26.2,32.0L26.6,31.3L30.4,27.4L33.6,24.6L37.9,21.5L39.4,20.9L39.9,20.5L41.2,19.8L42.9,18.8L44.2,18.3L44.6,18.0L47.2,17.2L48.0,16.7L48.4,16.7L49.4,16.2L50.5,16.0L51.0,15.8L51.9,15.7L53.0,15.3L54.7,15.1L55.4,14.8L56.2,14.8L57.9,14.5L60.3,14.5L62.1,14.2L65.9,14.2L68.2,14.3L68.9,14.5L70.2,14.5L72.6,14.9L73.8,15.0L75.7,15.7L77.4,15.9L78.0,16.2L79.1,16.4L81.0,17.2L82.9,17.7L84.0,18.3L85.1,18.7L85.5,19.0L85.9,19.1L89.4,21.0L91.3,22.2L93.3,23.8L94.0,24.1L95.6,25.5L96.7,26.2L101.7,31.1L103.3,32.9L105.0,35.3L105.5,36.3L105.9,36.8L106.4,38.0L107.0,38.8L108.0,40.7L108.9,42.1L110.2,44.8L110.8,47.0L111.6,49.1L112.3,51.6L112.5,53.2L112.9,54.2L113.0,55.0L113.3,56.0L113.3,57.2L113.5,57.9L113.4,59.2L113.8,61.9L113.8,64.9L113.6,66.2L113.0,66.6L105.2,66.6L101.7,66.4L91.5,66.4L87.9,66.2L78.3,66.2L75.0,66.1L71.9,66.1L71.3,66.0L66.2,66.0L65.5,65.8L62.6,66.0L59.1,66.0L57.1,65.8L52.7,65.9L52.1,65.7L49.5,65.7L20.1,65.7L19.1,65.8L18.9,66.1L18.8,66.6L19.0,69.0L19.4,70.1L19.9,70.3L23.6,70.2L27.2,70.4L29.6,70.3L34.7,70.4L39.4,70.4L56.1,70.5L68.0,70.8L74.0,70.8L77.0,70.9L78.7,70.8L80.0,71.0L83.5,70.9L84.2,71.1L95.8,71.1L96.3,71.2L101.9,71.2L103.9,71.4L105.4,71.2L108.9,71.2L110.2,71.4L116.6,71.3L117.4,71.5L117.9,71.3L118.3,70.8L118.4,66.9L118.6,66.4L118.7,65.3L118.6,60.9L118.3,59.7L118.2,57.5L117.9,56.2L117.8,54.4L117.4,53.3L117.4,52.2L116.9,50.8L116.7,49.8L116.6,49.5L116.3,48.2L115.0,44.3L114.3,42.9L113.6,40.9L112.3,38.7L110.6,35.4L110.2,35.0L109.7,33.9L108.2,32.1L107.9,31.4L107.2,30.6L105.9,28.8L104.7,27.4L100.6,23.4L97.4,20.6L95.3,19.1L94.9,19.0L94.2,18.4L92.7,17.6L92.1,17.0L88.7,15.1L88.0,14.9L85.0,13.3L84.3,13.2L83.5,12.8L82.9,12.7L82.3,12.4L81.5,12.2L79.3,11.4L76.6,10.8L73.6,10.0L71.1,9.8L69.6,9.5L67.6,9.5L66.0,9.2L63.6,9.3L62.9,9.1L60.0,9.2L59.5,9.4L57.9,9.5L57.3,9.7L53.7,10.0L52.1,10.6L50.0,10.9L48.9,11.4L48.1,11.5L47.2,11.9L45.9,12.2L42.9,13.5L41.2,14.4L40.7,14.6L36.1,17.0L34.8,18.0L31.0,20.5L29.4,22.0L27.3,23.7L23.9,27.1L21.2,30.6L19.5,32.5L18.2,34.9L17.6,35.8L17.4,36.4L16.7,37.3L14.3,42.1L13.9,43.5L13.2,44.5L13.0,45.6L12.5,47.0L12.2,47.6L11.6,49.4L11.6,49.7L11.2,50.6Z" fill="#000" fill-rule="evenodd"/>
</svg>