<svg xmlns="http://www.w3.org/2000/svg" viewBox="0 0 128 128" width="128" height="128">
  <path d="M118.1,55.4L117.2,52.5L116.4,50.7L114.3,46.8L112.1,43.9L108.7,40.3L107.9,39.9L107.3,39.3L106.2,38.5L103.7,37.0L100.5,35.4L96.2,34.1L93.9,33.6L88.8,33.2L88.1,33.4L86.5,33.4L83.9,33.7L82.5,34.1L81.7,34.2L77.9,35.3L75.6,36.3L73.2,37.6L71.0,39.2L70.4,39.4L68.8,40.7L68.4,41.0L66.3,43.0L64.8,44.9L64.1,45.6L63.6,45.7L62.8,45.0L60.6,42.7L57.3,39.9L54.8,38.2L50.4,36.1L47.8,35.3L46.8,35.1L45.9,34.7L43.0,34.2L41.5,34.2L40.8,34.0L36.5,34.0L35.8,34.2L34.8,34.2L33.4,34.5L32.4,34.5L29.3,35.4L28.7,35.7L27.9,35.9L26.5,36.6L25.7,36.8L23.4,38.1L21.4,39.3L19.5,41.0L19.3,41.0L16.4,43.9L14.5,46.3L12.1,50.3L10.9,53.1L10.4,54.8L10.0,55.7L9.9,57.0L9.6,57.9L9.5,59.0L9.2,60.6L9.1,65.6L9.2,67.6L9.5,68.6L9.6,69.7L9.8,70.3L10.0,71.8L10.2,72.0L10.3,72.9L11.0,74.7L11.1,75.1L12.3,77.9L13.3,79.5L13.7,80.4L15.4,82.8L17.1,84.8L20.3,87.9L23.2,90.1L27.0,92.2L27.8,92.4L28.3,92.7L28.8,92.8L29.1,93.1L32.2,94.1L33.3,94.2L34.0,94.5L35.1,94.5L36.2,94.9L41.0,94.9L42.7,94.9L43.5,94.6L45.9,94.3L49.7,93.3L52.3,92.1L52.6,92.1L53.0,91.8L53.4,91.7L55.6,90.4L56.1,90.0L56.4,89.9L58.7,88.3L60.2,87.0L62.0,85.2L63.1,83.9L64.2,82.9L64.5,82.9L67.4,86.0L68.3,86.7L69.0,87.5L72.7,90.1L74.0,90.6L74.2,90.9L76.0,91.8L77.5,92.3L78.0,92.6L81.4,93.6L81.9,93.6L83.3,94.0L86.2,94.2L86.8,94.4L90.4,94.3L93.6,93.9L96.3,93.3L99.0,92.4L100.2,92.0L100.8,91.6L101.2,91.5L102.9,90.5L104.3,89.9L104.8,89.4L106.9,88.1L107.2,88.1L107.4,88.4L107.5,93.8L107.8,94.0L118.3,93.8L118.9,93.5L119.1,93.0L119.1,64.4L119.1,60.8L118.9,59.6L118.7,58.8L118.6,57.6L118.4,56.8L118.3,56.6Z M103.0,75.9L103.0,76.0L102.4,76.8L101.2,78.0L98.9,79.8L97.4,80.6L96.2,81.1L95.6,81.5L93.0,82.3L92.1,82.4L91.4,82.7L90.4,82.7L89.6,82.8L85.4,82.6L84.7,82.3L83.2,82.1L81.1,81.3L79.2,80.4L77.1,79.1L75.4,77.6L74.5,76.4L74.6,76.1L75.3,75.9L79.3,75.9L80.5,75.7L86.4,75.8L89.7,75.6L96.9,75.6L98.3,75.5L102.5,75.5Z M23.2,54.2L23.9,53.2L24.0,52.9L26.3,50.4L28.1,48.9L30.2,47.6L32.2,46.8L34.9,45.9L36.1,45.8L37.0,45.6L40.4,45.6L43.6,46.0L46.2,46.9L48.9,48.2L50.5,49.3L51.9,50.4L53.6,52.1L55.0,54.1L55.2,54.7L54.9,54.9L54.6,55.0L35.6,55.0L24.2,54.7L23.5,54.6L23.2,54.3Z M107.6,62.1L107.6,64.9L107.4,65.6L107.3,65.9L106.9,66.2L101.9,66.3L91.8,66.3L90.0,66.5L84.0,66.5L79.6,66.6L60.5,66.6L58.5,66.8L58.1,67.2L57.5,70.1L57.2,70.8L56.9,71.9L55.6,74.4L54.3,76.3L53.0,77.7L51.6,79.1L48.7,81.1L45.8,82.4L45.2,82.5L44.3,82.9L42.4,83.3L40.1,83.5L38.3,83.5L35.6,83.1L32.7,82.3L29.9,80.9L27.5,79.2L24.7,76.3L23.0,74.1L22.6,73.1L22.1,72.3L21.3,70.4L20.4,66.7L20.4,64.7L21.0,64.4L23.9,64.4L26.3,64.5L37.2,64.5L40.7,64.7L58.5,64.7L69.2,64.5L69.5,64.3L69.9,60.4L70.3,59.2L70.5,58.2L70.8,57.5L70.9,57.1L71.2,56.6L71.4,56.0L72.8,53.6L73.5,52.5L74.7,51.1L76.1,49.7L77.6,48.5L80.7,46.7L84.3,45.3L88.3,44.9L90.3,44.9L94.0,45.5L94.4,45.7L96.7,46.5L98.5,47.5L100.1,48.5L103.0,51.2L104.6,53.3L105.1,54.4L105.4,54.7L106.7,57.7L107.3,59.9Z" fill="#000" fill-rule="evenodd"/>
</svg>