<svg xmlns="http://www.w3.org/2000/svg" viewBox="0 0 128 128" width="128" height="128">
  <path d="M118.6,33.2L118.2,32.9L117.4,32.8L99.5,33.0L57.8,33.0L57.5,33.3L57.4,33.8L57.6,38.8L57.6,66.9L57.7,67.8L57.6,71.6L57.8,72.8L57.6,75.4L57.6,81.9L57.1,82.5L56.4,82.6L55.4,82.5L41.1,82.7L22.5,82.6L22.2,82.2L22.1,81.1L22.1,79.7L22.0,77.3L22.0,72.4L22.1,71.7L22.6,71.4L34.9,71.2L38.3,71.1L39.9,71.2L45.7,71.0L46.1,70.8L46.1,67.8L46.0,65.8L46.0,50.7L45.7,33.6L45.3,33.3L45.0,33.2L11.2,33.3L9.4,33.5L9.2,33.8L9.1,34.2L9.1,40.5L9.4,51.6L9.3,57.3L9.4,63.1L9.4,94.3L9.7,95.1L10.1,95.4L11.0,95.5L14.4,95.5L19.4,95.3L25.7,95.4L51.7,95.2L57.9,95.4L59.9,95.2L68.0,95.3L70.0,95.1L70.3,94.7L70.4,93.1L70.2,69.0L70.3,65.6L70.1,54.7L70.2,46.4L70.6,46.0L70.9,45.9L79.8,45.9L83.6,45.7L88.2,45.8L97.0,45.7L104.9,45.7L105.5,45.7L105.9,46.1L106.1,47.4L106.0,57.2L105.8,57.6L105.2,57.7L82.4,57.8L82.0,57.9L81.6,58.3L81.6,63.3L81.8,65.9L81.7,76.9L81.9,79.9L81.9,91.8L82.0,95.0L82.3,95.1L83.1,95.2L97.1,95.1L106.7,95.1L116.1,95.0L117.8,95.1L118.7,95.0L119.0,94.7L119.1,94.2L119.1,75.2L118.9,64.4L118.9,47.9L118.7,45.1L118.8,43.1Z M105.8,70.8L106.2,71.2L106.2,71.8L106.3,78.0L106.2,81.5L106.1,81.9L105.5,82.3L95.9,82.3L95.0,82.2L94.7,81.8L94.6,80.4L94.5,71.8L94.7,71.2L95.0,70.8L95.3,70.8L104.9,70.6Z M22.1,46.5L22.5,46.3L32.5,46.2L32.9,46.3L33.1,46.5L33.3,46.9L33.4,57.0L33.3,57.6L33.0,57.9L31.6,58.0L22.6,58.0L22.0,57.6L21.8,54.0L21.8,47.0Z" fill="#000" fill-rule="evenodd"/>
</svg>