<svg xmlns="http://www.w3.org/2000/svg" viewBox="0 0 128 128" width="128" height="128">
  <path d="M41.2,40.0L40.6,39.1L37.8,36.7L37.2,36.4L36.1,35.6L33.6,34.6L30.6,34.0L26.8,34.0L23.8,34.4L20.7,35.6L18.8,36.7L17.3,37.7L15.0,39.8L13.4,42.0L11.9,44.6L11.5,45.7L11.2,47.6L11.4,47.9L12.0,48.0L30.4,48.0L31.0,47.5L32.0,45.5L32.6,44.9L32.8,44.4L35.2,42.3L36.5,41.5L37.6,41.2L38.2,40.9L40.6,40.5L41.1,40.3Z M50.2,28.1L49.7,28.3L52.5,31.3L55.8,36.3L56.0,36.8L56.8,38.3L57.2,39.4L57.8,40.5L58.6,43.1L59.1,43.9L60.1,48.1L60.3,49.9L60.6,51.6L60.6,53.2L60.9,54.6L60.8,60.3L60.7,60.9L60.4,61.4L60.0,61.6L49.7,61.6L41.8,61.3L27.5,61.4L21.6,61.3L11.4,61.3L10.8,61.3L10.4,61.7L10.4,63.0L11.2,67.1L12.6,70.7L14.2,73.6L15.1,74.9L15.8,76.2L18.2,79.1L21.0,81.7L25.5,84.6L31.3,87.5L35.9,89.0L37.0,89.1L37.2,88.9L37.2,88.7L36.5,88.0L34.3,85.2L33.4,83.7L31.9,80.9L30.4,76.9L30.2,75.7L30.6,75.3L52.5,75.3L56.6,75.6L72.3,75.6L73.7,75.4L74.2,74.9L74.7,72.8L74.9,69.1L74.9,65.4L74.4,60.1L73.8,57.1L73.2,54.9L73.0,54.4L72.6,52.9L70.7,48.7L70.2,48.1L68.9,45.6L68.3,45.0L67.8,44.0L66.7,42.7L66.4,42.2L63.9,39.2L59.1,34.5L55.2,31.7L54.7,31.2L54.2,30.9L53.2,30.1L51.2,28.6Z M91.7,16.3L91.4,16.2L91.0,16.3L91.0,16.5L93.5,19.9L96.5,24.8L98.0,27.7L98.6,29.2L98.7,29.7L99.0,30.2L99.8,32.2L100.8,35.3L101.2,37.1L101.4,37.8L101.4,38.3L102.1,41.5L102.2,42.7L102.5,44.5L102.5,45.4L102.7,46.0L102.7,55.6L102.4,56.8L102.2,60.1L101.2,65.4L100.0,69.1L99.4,70.9L99.2,71.1L98.3,73.7L97.2,76.1L96.9,76.5L96.7,77.1L94.5,81.0L92.9,83.2L91.8,84.5L91.6,85.0L88.0,89.1L83.9,92.5L83.1,93.3L82.1,94.0L81.5,94.3L79.3,96.0L78.7,96.2L78.0,96.7L76.0,97.7L75.4,98.1L73.2,99.3L69.9,100.5L69.3,100.9L68.5,101.0L68.1,101.3L65.2,102.2L64.2,102.4L63.4,102.7L62.6,102.8L61.6,103.2L60.6,103.3L59.6,103.6L53.7,104.3L49.6,104.5L43.8,104.1L42.6,103.9L39.4,103.5L38.5,103.3L37.2,103.2L36.6,102.9L35.0,102.7L31.2,101.7L26.8,100.3L21.7,98.0L18.6,96.4L15.1,94.3L14.7,94.3L14.8,94.7L16.3,96.5L17.2,97.3L17.8,98.0L22.0,102.4L22.3,102.6L24.4,104.5L25.8,105.7L27.9,107.5L30.6,109.5L34.3,111.7L38.3,113.7L39.0,113.9L41.5,115.0L47.4,116.9L48.6,117.1L49.6,117.5L50.1,117.5L51.3,117.8L51.9,117.8L52.6,118.1L53.4,118.1L54.5,118.3L56.0,118.4L57.1,118.7L58.3,118.7L59.7,118.9L65.8,119.0L70.1,118.8L72.9,118.3L73.3,118.2L76.0,117.8L80.8,116.5L82.9,115.6L83.7,115.4L85.3,114.6L86.7,114.1L91.5,111.7L95.3,109.1L96.4,108.1L98.8,106.3L103.3,102.0L103.9,101.1L105.4,99.5L109.6,93.7L109.9,93.0L110.4,92.4L111.1,91.0L111.9,89.9L113.2,87.1L113.8,85.5L114.3,84.8L114.6,83.5L115.5,80.9L115.7,80.5L115.9,79.4L116.3,78.3L117.1,74.4L117.7,68.6L117.9,65.4L117.8,61.3L117.4,55.9L116.1,49.4L115.8,49.0L115.6,47.7L114.8,45.4L113.8,42.7L112.4,40.1L112.3,39.7L110.3,36.0L107.7,31.9L104.7,28.2L101.2,24.7L100.7,24.4L97.9,21.6Z M20.0,20.5L20.2,21.1L20.9,21.1L23.5,20.5L27.6,20.2L29.5,20.2L32.8,20.5L34.2,20.7L34.5,20.9L35.4,21.0L38.7,21.8L41.2,22.8L43.6,24.1L45.3,25.2L45.6,25.3L47.3,26.5L48.2,26.7L52.2,25.9L55.6,25.7L57.0,25.7L60.3,26.0L62.8,26.1L64.1,26.5L65.7,26.6L71.7,28.4L73.0,29.0L73.6,29.2L78.1,31.3L79.3,32.2L81.2,33.2L82.0,34.0L83.7,35.0L85.9,37.1L86.2,37.1L86.2,36.6L85.6,34.9L85.2,34.2L85.0,33.2L84.4,32.5L84.4,32.1L83.9,31.6L83.8,31.1L83.4,30.7L82.6,29.2L81.6,27.8L81.4,27.4L78.4,23.5L74.1,19.1L71.7,17.1L70.6,16.5L69.0,15.4L68.7,15.3L68.0,14.8L66.7,14.2L66.1,13.8L64.8,13.3L64.2,12.8L63.8,12.7L62.1,11.9L59.9,11.3L59.1,10.9L58.3,10.8L57.8,10.5L56.4,10.3L55.5,9.9L54.3,9.8L52.9,9.5L49.6,9.2L44.0,9.4L39.9,10.0L37.8,10.5L37.4,10.8L36.4,10.9L34.6,11.6L33.2,12.0L32.2,12.6L31.0,12.9L29.2,13.8L28.0,14.6L26.2,15.5L25.6,16.0L25.0,16.3L24.0,17.1L23.4,17.5Z" fill="#000" fill-rule="evenodd"/>
</svg>