<svg xmlns="http://www.w3.org/2000/svg" viewBox="0 0 128 128" width="128" height="128">
  <path d="M33.7,24.9L33.0,26.1L32.5,26.5L31.4,28.1L30.4,30.1L29.5,32.4L28.6,36.6L28.5,40.4L28.7,42.4L29.2,45.2L31.1,49.8L32.5,52.2L34.2,54.3L35.3,55.3L36.0,56.4L32.7,60.3L31.4,62.4L30.1,65.3L29.2,67.9L29.1,68.8L28.7,70.5L28.6,75.0L29.0,78.1L29.4,78.9L29.5,79.7L30.5,82.5L31.4,84.4L33.7,87.7L37.1,90.8L40.5,93.1L44.2,94.7L46.2,95.2L47.3,95.3L48.2,95.6L51.7,95.9L60.5,95.8L61.7,95.6L65.8,95.5L66.9,95.2L68.5,95.1L71.4,94.4L74.0,93.4L74.8,92.9L75.1,92.9L77.1,91.8L77.5,91.4L79.2,90.4L79.8,89.8L80.7,89.2L81.6,88.2L82.7,87.4L82.8,87.0L84.3,85.5L85.0,84.4L86.0,83.1L87.5,80.1L87.5,79.8L88.2,78.6L88.9,76.3L89.0,75.5L89.4,74.3L89.4,73.4L89.7,71.9L89.8,68.4L89.9,57.5L90.2,57.2L90.9,57.4L94.3,59.9L95.3,60.8L95.2,61.6L93.6,65.8L93.7,66.5L94.2,66.5L94.9,66.1L98.3,63.5L98.9,63.4L99.6,63.7L103.3,66.5L104.0,66.7L104.2,66.5L104.2,65.9L103.8,64.7L103.5,64.1L102.5,61.1L102.5,60.5L103.5,59.6L103.6,59.6L106.2,57.6L107.2,57.0L107.7,57.1L107.8,57.3L107.8,95.1L108.1,95.5L108.6,95.7L116.5,95.7L118.2,95.6L118.7,95.2L118.7,55.7L118.8,48.4L118.8,44.9L118.9,42.5L118.8,34.6L118.6,32.6L118.1,30.8L116.7,27.4L114.8,24.5L113.5,23.0L111.6,21.2L108.6,19.2L107.3,18.6L104.7,17.6L103.4,17.4L103.1,17.2L101.7,16.9L96.0,16.9L94.8,17.1L92.1,17.9L88.6,19.5L86.7,20.8L84.8,22.4L82.7,24.9L80.8,27.9L80.1,30.0L79.8,30.4L78.8,35.2L78.6,45.2L78.5,67.7L78.3,68.3L78.2,71.0L77.8,72.7L77.5,74.6L76.0,77.5L75.0,78.9L72.9,81.1L70.7,82.6L68.8,83.5L68.3,83.6L67.0,84.2L62.5,84.9L52.3,85.0L49.2,84.5L47.8,84.2L45.4,83.2L44.2,82.3L42.0,80.2L41.9,79.8L40.9,78.4L39.9,75.5L39.8,71.7L40.0,70.6L40.5,69.2L41.1,67.9L42.5,65.8L44.7,63.7L47.0,62.5L48.4,62.1L50.7,61.7L52.3,61.6L61.7,61.6L62.3,61.4L62.7,60.9L62.7,51.5L62.3,50.9L61.6,50.7L54.6,50.9L49.7,50.7L47.2,50.1L45.4,49.3L43.3,47.7L42.2,46.5L41.5,45.5L41.3,44.9L40.7,43.9L39.9,41.5L39.7,40.1L39.8,37.2L40.5,35.1L41.3,33.6L42.4,31.9L43.7,30.7L44.9,29.7L46.5,28.8L49.4,27.9L53.1,27.9L53.8,28.2L54.7,28.3L56.7,29.0L58.9,30.5L60.5,32.1L61.7,34.0L62.5,35.9L62.8,36.4L63.5,36.6L72.9,36.6L73.5,36.5L73.8,36.2L73.7,34.6L73.3,33.1L72.2,29.8L71.0,27.6L69.4,25.3L66.4,22.3L65.0,21.1L62.2,19.3L59.5,18.1L58.6,17.9L57.6,17.5L54.4,16.9L52.7,16.8L50.1,16.8L47.8,16.9L45.6,17.4L42.6,18.4L40.7,19.2L37.3,21.4L35.4,23.1Z M95.4,28.4L98.4,27.8L100.2,27.9L102.0,28.4L102.8,28.8L103.3,28.9L104.5,29.7L105.9,31.1L107.1,33.1L107.4,34.4L107.7,35.0L107.7,35.7L107.9,36.2L107.8,54.6L107.7,55.6L107.2,56.0L102.3,56.2L101.4,56.1L100.8,55.6L100.7,55.2L100.3,54.6L100.2,54.1L99.7,52.9L99.6,52.2L99.0,51.5L98.7,51.5L98.5,51.7L97.9,53.5L97.6,54.2L97.5,54.9L97.2,55.4L96.5,56.1L91.5,56.2L90.4,56.0L89.9,55.5L89.9,44.0L90.1,40.1L90.0,36.1L90.3,34.3L90.7,33.1L91.1,32.2L91.9,31.2L93.3,29.7Z M9.7,26.8L9.4,27.7L9.4,42.6L9.6,54.0L9.6,74.6L9.8,83.1L9.8,110.6L10.1,111.3L11.1,111.6L17.0,111.7L31.6,111.5L35.1,111.6L36.6,111.4L63.2,111.2L108.2,111.2L108.8,110.8L118.2,101.5L118.3,100.9L118.0,100.7L107.7,100.5L100.5,100.7L83.4,100.5L68.4,100.7L64.4,100.6L37.5,100.9L21.5,100.9L21.1,100.7L20.9,100.4L20.9,95.8L20.9,56.7L20.6,29.3L20.7,17.2L20.3,16.7L19.8,16.8Z" fill="#000" fill-rule="evenodd"/>
</svg>