<svg xmlns="http://www.w3.org/2000/svg" viewBox="0 0 128 128" width="128" height="128">
  <path d="M10.2,55.3L9.9,56.6L9.6,57.7L9.5,58.7L9.3,59.6L9.3,60.5L9.0,62.1L9.1,66.7L9.3,68.4L9.5,69.2L9.6,70.0L9.9,70.8L10.4,72.9L11.4,75.4L12.7,77.8L13.6,79.4L14.2,80.0L14.4,80.5L15.8,82.2L17.3,83.5L19.4,85.3L20.9,86.0L21.1,86.2L23.0,87.1L25.8,88.1L27.6,88.6L31.0,89.0L35.1,89.0L37.1,88.7L38.4,88.7L40.0,88.2L40.4,88.2L43.4,87.2L46.2,85.6L48.4,83.8L48.8,83.6L50.5,85.1L51.5,85.7L52.2,86.3L52.8,86.5L53.7,87.2L54.3,87.4L54.7,87.6L55.3,87.7L55.6,88.0L56.8,88.4L57.5,88.6L58.2,88.9L59.3,89.0L59.9,89.3L63.2,89.6L67.2,89.6L70.4,89.3L71.9,88.9L72.4,88.7L74.3,88.1L75.2,87.7L75.4,87.7L76.5,87.0L77.0,86.8L78.1,86.2L78.6,86.0L78.9,85.7L80.5,84.7L80.8,84.7L83.2,86.7L83.3,86.7L84.8,87.7L87.4,88.8L88.4,89.0L88.7,89.3L91.8,89.8L95.4,89.9L95.9,89.7L97.0,89.6L98.5,89.3L100.3,88.6L100.8,88.2L101.8,87.7L102.8,87.1L104.6,85.6L105.1,85.6L105.2,85.8L105.5,86.9L106.0,88.2L106.5,88.7L106.7,88.8L118.8,88.8L119.1,88.6L119.1,88.3L118.7,87.7L118.6,87.3L118.0,86.2L117.5,84.6L117.2,83.2L116.9,80.7L117.1,73.2L117.0,63.4L117.2,60.6L117.1,54.0L116.9,52.1L116.3,50.2L115.1,47.6L114.4,46.7L112.9,45.0L111.0,43.4L110.4,43.1L110.1,42.9L107.8,41.7L106.1,41.0L105.2,40.9L104.5,40.6L103.3,40.4L101.9,40.0L100.2,39.8L94.6,39.7L92.3,39.9L91.7,40.2L91.0,40.2L89.0,40.6L85.7,41.9L83.2,43.6L81.4,45.2L81.0,45.2L79.8,44.0L77.9,42.4L75.5,41.2L74.0,40.6L73.7,40.4L72.5,40.2L71.8,39.9L71.1,39.8L70.3,39.5L67.3,39.0L61.7,39.0L61.4,39.2L60.5,39.2L58.3,39.6L56.0,40.4L55.7,40.4L54.8,40.8L53.7,41.5L52.9,41.8L52.1,42.4L49.4,44.8L48.8,44.8L47.4,43.3L45.6,41.9L43.4,40.7L40.9,39.6L39.6,39.3L39.3,39.2L35.3,38.5L30.9,38.4L29.1,38.6L26.1,39.2L22.8,40.3L21.2,41.2L20.2,41.8L19.9,41.9L17.9,43.4L16.5,44.6L14.8,46.4L13.1,48.7L13.0,49.0L12.7,49.3L11.7,51.3Z M21.7,67.7L22.0,67.2L28.0,67.2L34.1,67.4L47.2,67.5L48.4,67.6L59.9,67.7L66.2,68.1L68.7,68.4L70.6,68.9L72.1,69.4L72.9,69.8L73.7,70.4L74.3,70.9L74.6,71.5L74.9,72.8L74.9,74.1L74.4,75.6L73.7,76.7L72.1,78.2L70.3,79.2L69.2,79.5L67.2,79.8L63.9,79.8L63.5,79.6L62.0,79.4L60.5,78.9L59.0,78.0L58.2,77.3L57.1,75.9L56.2,74.2L55.9,72.3L55.8,71.1L55.6,70.6L55.4,70.6L43.0,70.3L42.6,70.4L42.2,70.6L41.6,73.0L40.7,74.9L40.1,75.8L38.3,77.4L36.8,78.3L35.0,78.9L32.7,79.2L31.0,79.2L29.9,79.0L28.9,78.7L28.4,78.4L27.9,78.3L26.3,77.5L24.8,76.1L23.6,74.6L22.8,73.1L22.2,71.5L21.8,69.1Z M105.2,67.1L105.0,71.6L104.8,72.8L104.4,73.7L104.4,73.9L103.6,75.6L103.1,76.3L102.2,77.3L101.1,78.1L100.0,78.6L99.3,79.0L96.0,79.8L92.7,79.7L90.6,79.2L89.0,78.3L87.7,77.1L87.4,76.6L86.9,75.6L86.7,74.6L86.8,72.5L87.3,71.5L88.2,70.6L88.6,70.5L89.3,70.0L89.8,69.7L90.2,69.7L91.7,69.3L92.3,69.3L96.5,68.5L97.2,68.5L100.0,67.9L101.1,67.8L101.7,67.6L103.4,67.4L104.7,66.8L104.9,66.8Z M56.9,53.6L57.1,52.8L57.8,51.4L59.0,50.1L60.1,49.4L62.2,48.6L63.0,48.5L63.4,48.4L67.4,48.4L70.1,49.1L71.8,50.1L72.7,51.0L73.6,52.2L73.9,52.8L74.5,55.0L74.6,56.8L74.8,57.1L75.2,57.4L78.5,57.5L86.9,57.6L87.1,57.5L87.4,57.1L87.6,55.3L88.2,53.5L89.1,52.1L89.9,51.2L91.5,50.1L91.9,50.0L92.6,49.6L93.0,49.5L93.6,49.2L95.1,49.0L96.9,48.9L99.6,49.2L100.4,49.6L100.9,49.7L101.7,50.0L103.3,50.9L104.0,51.5L104.6,52.3L105.1,53.9L105.1,55.3L104.6,56.4L103.7,57.4L101.9,58.2L101.0,58.4L100.3,58.4L99.5,58.6L97.1,58.8L96.3,59.0L93.6,59.3L92.2,59.6L90.7,59.7L90.1,59.9L89.4,59.9L86.5,60.5L84.1,61.4L82.9,62.1L81.5,63.4L80.9,63.5L79.9,62.6L78.2,61.4L76.3,60.5L73.7,59.8L73.0,59.7L72.7,59.6L71.3,59.5L70.3,59.2L68.4,59.1L67.2,58.8L63.0,58.5L62.1,58.3L61.4,58.3L59.6,57.8L58.4,57.2L57.4,56.2L57.1,55.8L56.9,54.9Z M22.5,56.5L23.1,54.4L23.6,53.4L24.7,51.6L26.3,50.1L27.2,49.4L28.2,48.8L29.9,48.2L31.4,47.9L33.6,47.9L35.0,48.3L35.8,48.4L36.1,48.6L37.6,49.2L38.9,50.1L40.1,51.3L40.7,52.2L41.6,54.0L42.3,56.4L42.4,57.4L42.1,57.7L41.5,57.8L24.5,57.6L22.8,57.4L22.5,57.2Z" fill="#000" fill-rule="evenodd"/>
</svg>