<svg xmlns="http://www.w3.org/2000/svg" viewBox="0 0 128 128" width="128" height="128">
  <path d="M119.2,63.5L119.1,62.1L118.5,59.8L117.9,58.5L116.9,56.9L115.2,55.1L113.8,54.0L112.8,53.4L110.5,52.6L107.5,52.2L104.5,52.1L64.5,52.2L62.2,52.2L58.8,52.3L55.3,52.3L53.0,52.5L50.5,53.6L49.1,54.5L48.0,55.9L47.4,56.9L47.0,58.0L46.8,59.2L46.9,61.5L47.7,63.5L48.4,64.5L49.2,65.3L50.2,66.1L51.2,66.6L53.3,67.2L54.8,67.3L72.7,67.2L73.4,67.5L73.9,68.0L74.1,68.4L74.1,68.9L73.9,69.4L73.3,69.9L72.5,70.1L50.8,70.0L38.7,70.2L20.5,70.2L18.3,69.4L16.8,68.0L16.3,67.2L16.0,66.4L15.8,65.2L15.8,63.9L16.1,63.2L16.4,63.3L16.7,64.5L17.3,65.7L18.3,66.6L19.8,67.4L36.6,67.4L39.6,67.0L40.0,66.8L41.1,66.4L42.0,65.9L43.2,64.8L43.9,63.9L44.5,62.5L44.9,61.1L44.8,58.9L44.4,57.5L43.7,56.1L42.8,55.0L42.2,54.4L40.8,53.5L40.1,53.2L38.3,52.8L37.5,52.8L37.0,52.6L21.9,52.6L19.1,52.8L17.5,53.0L15.6,53.9L15.3,54.0L13.0,55.5L11.1,57.6L10.2,59.4L10.0,59.6L9.2,62.5L9.1,65.1L9.3,66.6L9.7,68.2L10.8,70.6L11.4,71.4L12.9,73.0L14.4,74.2L16.1,75.0L18.9,75.8L20.5,76.0L22.6,76.1L56.0,76.1L70.9,75.9L72.0,75.8L73.9,75.8L74.3,75.6L75.2,75.5L76.3,75.2L77.9,74.4L79.2,73.0L80.0,71.6L80.5,70.5L80.5,69.6L80.7,69.3L80.7,67.7L80.4,66.3L80.1,65.8L79.9,65.0L79.3,64.1L78.0,62.9L76.4,61.9L75.0,61.5L74.0,61.4L55.4,61.4L54.5,61.1L54.0,60.5L53.9,59.7L54.3,59.0L54.8,58.6L55.6,58.4L59.3,58.3L65.8,58.5L76.2,58.3L80.7,58.4L82.2,58.3L87.3,58.3L107.4,58.1L108.0,58.3L109.7,59.0L111.3,60.5L111.6,61.1L112.2,62.6L112.5,64.3L112.3,65.5L112.1,66.1L111.9,66.4L111.6,66.4L111.4,64.7L111.0,63.3L109.8,62.2L109.0,61.7L107.8,61.4L106.4,61.1L90.0,61.1L87.8,61.6L86.6,62.1L85.6,62.8L84.7,63.7L83.9,64.9L83.3,66.3L83.0,67.5L83.0,69.4L83.3,71.0L84.0,72.4L84.7,73.3L85.8,74.5L87.6,75.5L89.2,75.8L108.6,75.7L110.4,75.4L111.5,75.0L111.7,74.8L113.8,73.8L115.3,72.6L116.4,71.5L116.5,71.3L117.7,69.9L118.0,69.2L118.9,66.6L119.1,65.5Z M111.3,67.4L111.3,67.6L110.2,68.7L109.7,69.0L108.3,69.7L107.3,69.9L103.0,69.9L102.5,70.0L99.6,69.9L94.0,69.9L93.0,70.0L91.2,70.0L90.5,69.7L89.9,69.0L89.9,68.3L90.1,67.9L90.5,67.5L91.2,67.2L98.6,67.3L109.0,67.2L111.1,67.2Z M38.1,59.7L38.1,60.3L38.0,60.7L37.5,61.1L36.9,61.5L33.3,61.6L31.1,61.6L28.1,61.7L26.2,61.6L20.6,61.8L16.9,61.7L16.7,61.6L16.8,61.2L17.2,60.6L18.1,59.7L18.9,59.3L19.7,59.0L20.8,58.8L23.1,58.7L24.4,58.9L32.4,58.6L36.4,58.7L37.5,58.9L37.8,59.1Z" fill="#000" fill-rule="evenodd"/>
</svg>