<svg xmlns="http://www.w3.org/2000/svg" viewBox="0 0 128 128" width="128" height="128">
  <path d="M93.1,45.7L91.5,45.9L89.4,46.4L86.1,47.8L83.6,49.4L80.8,52.2L80.0,53.1L79.1,54.7L77.8,57.9L77.1,61.0L77.0,65.0L77.8,68.8L78.9,71.4L80.6,73.9L82.4,75.8L83.9,77.0L88.1,79.1L90.5,79.8L94.6,80.1L97.6,79.8L99.4,79.3L101.6,78.5L103.8,77.0L106.7,74.2L107.4,72.7L107.6,71.8L107.6,70.5L107.4,69.5L106.5,67.9L106.0,67.6L104.9,67.1L103.6,67.2L101.5,68.0L99.2,68.6L96.9,68.5L95.1,67.8L94.1,67.2L92.4,65.2L91.7,63.9L91.5,63.2L91.3,62.8L91.0,61.7L90.9,58.9L91.2,57.5L91.6,56.5L92.3,55.8L93.1,55.4L94.3,55.2L95.3,55.5L96.2,56.3L96.9,57.5L97.4,59.3L97.9,60.3L98.8,61.4L99.6,62.0L100.7,62.5L102.0,62.9L102.8,62.9L104.0,62.6L105.7,61.9L107.3,60.6L108.4,58.6L108.8,56.6L108.8,55.3L108.1,52.6L106.9,50.8L105.7,49.5L103.8,47.9L101.7,46.8L99.2,46.1L95.7,45.7Z M67.2,39.3L65.5,39.4L63.8,40.3L62.8,40.9L62.3,41.1L51.4,48.8L51.0,49.2L50.6,50.3L50.6,51.8L51.0,53.0L51.4,53.5L52.3,53.8L54.7,53.9L55.2,54.3L55.4,55.0L55.5,70.2L55.9,73.0L56.6,75.3L58.0,77.2L59.5,78.5L61.7,79.6L62.8,79.8L63.8,80.1L66.6,80.2L70.0,79.7L71.4,79.2L73.1,78.4L75.4,76.7L76.6,75.4L77.5,73.9L77.8,72.5L77.8,71.9L77.5,70.9L77.0,70.1L76.3,69.5L74.9,69.5L74.2,70.1L72.4,70.7L71.7,70.6L70.5,70.0L69.8,69.3L69.3,68.1L69.1,66.7L69.1,58.1L69.4,55.0L69.9,54.3L70.5,54.1L75.5,54.2L76.8,54.1L77.3,53.5L77.6,52.7L77.8,50.5L77.7,48.2L77.4,47.7L76.8,47.3L70.9,47.2L70.1,46.8L69.8,46.4L69.7,45.4L69.7,41.5L69.5,40.5L68.7,39.6Z M117.8,9.6L115.8,9.4L104.4,9.6L98.9,9.5L94.0,9.7L83.8,9.7L79.1,9.8L43.6,9.9L39.8,9.7L32.6,9.9L19.3,9.9L10.5,9.7L10.2,10.0L10.0,11.0L10.0,43.6L9.8,55.4L10.0,73.9L9.7,85.1L9.7,102.0L9.5,110.1L9.7,111.3L9.6,118.0L9.7,118.4L10.0,118.7L10.7,118.9L16.7,118.9L31.8,118.6L33.6,118.7L38.2,118.5L40.1,118.6L47.1,118.3L49.0,118.4L74.6,118.2L90.1,118.3L117.9,118.3L118.3,118.3L118.7,117.9L118.8,107.1L118.7,96.5L118.5,94.7L118.6,73.9L118.3,50.1L118.5,48.6L118.2,24.5L118.3,13.2L118.2,10.0Z M33.4,56.3L34.1,54.7L35.1,53.5L36.3,52.9L37.9,52.9L39.3,53.7L40.1,54.5L40.8,55.8L40.9,57.2L40.2,58.0L39.3,58.3L34.5,58.5L33.9,58.3L33.5,57.8Z M32.5,15.2L33.3,15.0L36.5,13.5L36.8,13.5L37.6,13.0L38.7,12.8L40.9,12.1L44.3,11.3L47.7,10.9L50.7,10.7L56.4,10.7L59.9,10.5L74.8,10.6L82.9,11.2L87.4,12.0L88.3,12.4L90.7,13.0L93.0,14.1L93.2,14.1L97.6,16.2L101.2,18.7L102.5,19.7L102.9,20.2L103.7,20.6L106.8,23.6L108.7,25.9L109.0,26.5L109.8,27.3L112.9,32.4L114.5,35.9L115.6,38.9L115.7,39.7L116.5,42.3L117.4,47.4L117.6,49.5L117.5,53.1L117.6,56.2L117.6,61.4L117.5,61.6L117.4,62.2L116.8,63.2L116.0,63.9L115.2,64.4L113.3,65.0L111.3,66.7L110.3,67.8L110.2,68.2L109.7,69.1L108.8,71.8L108.8,73.1L109.0,74.3L109.3,75.3L110.1,77.0L112.7,79.5L114.1,81.3L114.8,82.5L115.6,84.5L115.8,85.4L115.9,87.7L115.6,89.3L114.6,91.8L114.3,92.4L114.3,92.7L112.5,96.3L111.4,98.1L110.9,98.7L110.7,99.3L106.9,104.2L103.5,107.5L99.5,110.4L99.2,110.5L97.5,111.6L94.8,113.0L94.6,113.0L92.9,113.9L90.3,114.8L90.1,115.0L89.5,115.1L87.6,115.7L86.9,115.8L86.6,116.0L85.1,116.2L80.8,117.1L69.2,117.5L58.3,117.5L54.7,117.7L49.1,117.7L45.1,117.5L39.7,116.2L37.4,115.4L37.0,115.2L35.3,114.7L33.0,113.5L32.5,113.4L32.2,113.1L31.6,112.9L31.0,112.4L28.9,111.3L24.6,107.9L20.7,104.0L18.3,101.1L15.6,97.0L15.0,95.6L14.1,93.9L12.6,89.9L11.5,84.7L11.4,83.1L11.0,81.1L10.9,76.1L10.7,75.2L10.7,73.4L10.9,72.3L10.8,69.8L10.9,68.9L11.5,67.0L12.2,65.9L12.8,65.3L13.7,64.7L15.4,64.1L16.9,64.1L19.0,64.7L19.7,65.1L20.5,65.9L21.3,67.1L22.7,70.7L22.7,70.9L23.6,72.6L24.8,74.4L27.7,77.3L30.4,79.0L31.8,79.5L34.4,80.1L36.5,80.3L39.1,80.3L39.7,80.1L40.6,80.1L40.9,80.0L41.8,79.9L43.6,79.3L45.4,78.5L47.4,77.1L48.2,76.5L50.4,73.9L50.7,73.4L51.0,72.4L51.0,70.9L50.6,69.8L49.6,68.6L49.0,68.3L47.6,68.4L45.4,69.8L43.6,70.6L41.7,71.0L40.3,71.1L38.7,70.8L37.6,70.2L36.6,69.4L35.5,68.1L34.6,66.0L34.7,65.1L35.1,64.7L35.5,64.6L39.9,64.6L45.5,64.3L48.8,64.4L50.2,64.1L50.8,63.5L51.5,61.8L51.8,59.4L51.7,57.0L51.1,55.0L49.1,51.6L47.0,49.5L44.6,47.9L43.2,47.3L42.6,47.2L41.4,46.7L39.4,46.4L36.4,46.4L33.4,46.8L31.0,47.7L30.2,48.2L28.8,48.8L25.1,51.9L23.9,52.6L21.9,53.4L20.5,53.7L18.9,53.7L18.4,53.5L17.9,53.5L15.9,52.7L13.7,51.2L13.1,50.6L12.0,48.8L11.5,46.8L11.4,44.2L11.7,42.4L12.4,39.4L14.2,34.5L14.6,34.1L15.2,32.5L17.0,29.3L19.8,25.4L21.9,23.2L23.0,22.2L24.2,21.0L28.4,17.7L30.4,16.4L32.4,15.4Z" fill="#000" fill-rule="evenodd"/>
</svg>