<svg xmlns="http://www.w3.org/2000/svg" viewBox="0 0 128 128" width="128" height="128">
  <path d="M56.3,57.0L56.2,58.6L55.9,81.2L55.9,85.0L56.3,85.3L66.3,85.6L88.7,85.8L92.6,85.7L96.4,85.9L117.4,86.1L117.7,86.0L117.9,85.6L118.0,81.3L118.0,79.9L118.1,77.3L118.0,75.1L118.2,71.6L118.2,65.5L118.4,64.0L118.4,57.9L118.0,57.6L116.1,57.4L105.3,57.3L103.6,57.2L94.5,57.2L91.3,57.0L88.7,57.1L70.5,56.8L63.0,56.8L58.1,56.6L56.7,56.7Z M9.9,56.3L9.6,56.9L9.3,81.6L9.1,86.8L9.1,98.3L9.3,104.0L10.0,104.3L20.4,104.3L25.3,104.4L52.1,104.3L52.4,104.0L52.4,103.6L52.4,94.2L52.7,82.9L52.8,69.8L52.9,68.0L52.8,63.0L53.0,61.4L52.9,56.9L52.6,56.7L52.0,56.6L41.9,56.6L35.8,56.4L30.5,56.5L17.4,56.3Z M10.0,24.4L10.0,26.4L9.9,27.0L9.8,44.5L9.6,46.0L9.6,52.8L10.0,53.2L12.2,53.3L29.8,53.5L32.4,53.7L35.7,53.6L54.3,53.8L55.8,53.7L65.4,54.0L72.3,54.0L80.6,54.2L83.0,54.2L86.4,54.3L98.8,54.4L110.1,54.6L117.9,54.6L118.4,54.2L118.5,48.5L118.7,47.4L118.6,43.4L118.8,42.4L118.9,35.9L119.0,34.5L118.9,31.1L119.1,29.9L119.1,26.1L119.0,25.7L118.6,25.4L116.7,25.3L106.8,25.3L97.5,25.1L95.6,25.2L92.2,25.0L90.5,25.1L84.8,24.9L77.1,24.9L74.4,24.8L67.0,24.8L65.1,24.6L61.4,24.7L42.7,24.4L39.1,24.3L37.3,24.4L36.2,24.2L32.3,24.3L32.0,24.1L28.8,24.2L15.1,23.9L10.5,23.9Z" fill="#000" fill-rule="evenodd"/>
</svg>