<svg xmlns="http://www.w3.org/2000/svg" viewBox="0 0 128 128" width="128" height="128">
  <path d="M9.0,64.5L9.2,64.9L15.0,70.7L15.2,71.1L16.6,72.4L25.3,81.1L25.9,81.6L26.2,81.6L26.4,81.2L26.3,71.6L26.5,70.8L27.0,70.5L45.2,70.5L50.6,70.6L52.1,70.8L52.4,71.1L52.6,73.3L52.5,75.6L52.6,96.7L52.8,97.1L53.0,97.2L53.2,97.1L65.5,84.9L65.6,72.0L65.7,71.3L65.8,71.0L66.0,70.8L66.6,70.7L77.5,70.7L105.3,70.9L105.7,70.8L106.0,70.6L106.1,58.4L105.9,58.0L105.4,57.7L66.8,57.6L65.9,57.4L65.7,57.2L65.6,56.9L65.6,45.3L65.7,44.7L66.1,44.4L74.3,44.2L106.1,44.3L106.6,44.0L109.5,41.0L109.9,40.7L111.6,39.0L111.9,38.8L118.9,31.8L119.2,31.4L119.2,31.1L118.6,31.0L103.7,30.9L63.0,31.0L52.9,30.9L52.4,31.1L52.3,31.3L52.2,32.0L52.3,56.9L51.9,57.4L51.3,57.5L42.1,57.6L28.5,57.5L26.7,57.4L26.4,57.1L26.2,56.3L26.1,47.1L25.9,46.8L25.6,46.8L21.1,51.3L9.1,63.7L9.0,64.0Z" fill="#000" fill-rule="evenodd"/>
</svg>