<svg xmlns="http://www.w3.org/2000/svg" viewBox="0 0 128 128" width="128" height="128">
  <path d="M80.3,10.3L78.2,9.6L75.8,9.1L73.5,9.0L69.3,9.0L67.9,9.4L66.1,9.5L62.1,10.6L59.4,11.6L55.9,13.2L55.1,13.8L54.2,14.3L52.7,15.2L49.5,17.6L47.5,19.4L44.9,22.3L43.4,24.2L43.1,24.8L42.4,25.6L42.4,25.9L41.0,27.9L40.7,28.5L40.7,28.7L40.2,29.4L40.1,30.0L39.6,30.7L39.6,31.0L38.6,33.3L37.7,36.0L37.0,39.1L36.5,42.8L36.4,45.0L36.5,90.8L36.4,112.9L36.4,114.5L36.6,114.8L36.8,116.6L37.3,117.6L38.5,118.7L40.0,119.2L42.1,119.2L42.8,119.0L44.0,118.3L44.8,117.5L45.6,116.4L45.9,115.1L46.2,108.2L46.0,106.5L46.2,97.8L46.1,92.6L46.2,86.6L46.3,84.6L46.7,84.6L47.0,84.7L48.4,86.2L50.3,87.7L53.8,89.6L55.7,90.1L56.1,90.4L58.7,90.9L62.2,91.0L63.8,90.8L66.0,90.4L66.4,90.1L67.5,89.9L70.2,88.6L71.8,87.5L74.2,85.6L75.1,84.5L76.0,83.3L76.5,82.7L77.1,81.5L77.5,81.1L78.2,79.6L79.3,76.1L79.6,73.4L79.4,69.4L78.9,67.2L78.2,65.3L76.8,62.7L75.1,60.5L73.2,58.6L71.8,57.5L71.3,57.3L70.9,57.0L70.6,56.9L69.4,56.1L68.4,55.8L67.8,55.4L64.6,54.6L64.0,54.6L63.0,54.4L59.9,54.4L57.8,54.6L54.2,55.7L51.9,56.8L49.9,58.2L48.3,59.6L46.7,61.1L46.4,61.1L46.2,60.9L46.1,59.6L46.1,55.1L46.2,53.5L46.4,53.2L46.6,51.9L47.5,50.0L48.4,49.1L48.4,48.8L50.3,47.5L52.0,46.6L55.1,46.2L72.7,46.2L76.9,45.9L79.3,45.2L79.8,44.9L81.6,44.2L82.4,43.7L82.7,43.6L85.9,41.2L87.2,39.9L87.5,39.4L88.8,37.6L89.6,36.3L91.1,32.6L91.6,30.6L91.8,28.7L91.8,25.8L91.4,23.3L90.2,19.7L89.3,17.9L87.5,15.4L85.9,13.7L85.2,13.2L83.5,11.9L82.2,11.1Z M36.8,7.7L36.9,12.4L37.0,12.5L37.3,12.6L37.6,12.2L37.5,11.0L37.6,10.2L38.0,9.9L38.3,9.8L40.1,9.8L40.4,9.6L40.3,9.3L40.2,9.2L38.0,9.1L37.6,8.7L37.6,7.7Z" fill="#000" fill-rule="evenodd"/>
</svg>