<svg xmlns="http://www.w3.org/2000/svg" viewBox="0 0 128 128" width="128" height="128">
  <path d="M53.1,90.2L53.0,90.8L54.5,92.3L54.8,92.8L58.1,96.2L59.0,97.4L60.7,98.9L61.5,99.3L62.2,99.4L63.1,99.1L64.9,99.1L65.6,98.8L65.7,96.1L65.7,90.9L65.3,90.6L63.8,90.3L56.9,90.2L55.0,90.1Z M79.0,94.9L78.4,93.8L72.8,88.5L71.0,86.6L70.3,86.4L70.0,86.7L69.9,105.2L69.7,105.6L69.2,105.7L57.6,105.7L53.6,105.9L38.4,105.7L32.1,105.8L31.4,105.7L27.3,105.8L9.8,105.8L9.3,106.1L9.3,106.3L9.7,107.0L12.7,110.0L12.8,110.3L17.4,114.9L18.0,115.1L29.1,115.1L33.2,114.9L63.7,115.0L65.5,114.8L69.7,114.8L70.9,115.0L73.7,115.0L76.0,115.2L78.0,115.1L78.5,114.8L78.7,114.4L78.7,106.8L79.0,101.0Z M53.6,53.1L53.6,53.7L54.6,54.7L55.2,55.2L56.8,56.8L57.0,56.9L60.3,60.0L61.7,61.5L62.4,62.0L70.4,62.0L71.0,61.5L71.1,54.0L70.8,53.4L70.4,53.2L67.2,53.1L65.7,53.2L54.2,52.9Z M76.0,49.8L75.8,49.8L75.5,50.0L75.3,51.7L75.4,53.3L75.2,55.6L75.2,60.6L75.0,64.1L74.9,68.7L74.5,69.0L74.0,69.2L58.5,69.1L58.3,69.2L57.9,69.6L57.8,82.5L58.0,83.5L57.9,86.2L58.3,86.8L63.7,86.9L64.3,87.1L65.7,87.0L66.1,86.7L66.3,79.9L66.4,79.2L67.0,78.9L81.8,79.0L83.2,78.9L83.6,78.8L84.0,78.1L83.8,69.4L84.0,62.0L83.9,57.4L83.4,56.5L82.2,55.4L77.7,51.1L77.3,50.9L76.7,50.2Z M58.2,48.7L58.7,49.2L60.1,49.2L65.6,49.2L66.0,49.1L66.2,48.9L66.2,47.9L66.4,46.9L66.4,45.2L66.6,44.0L66.5,42.8L66.7,42.3L66.8,41.2L67.1,40.9L67.6,40.7L69.1,40.5L72.1,40.7L83.7,40.8L84.1,40.2L84.1,36.3L83.9,32.6L83.5,32.3L78.8,32.2L71.7,32.3L67.7,32.1L60.8,32.1L58.8,32.3L58.5,32.5L58.3,33.5L58.3,39.0L58.1,41.6Z M10.5,32.0L10.4,32.3L12.7,35.0L17.5,39.8L19.4,40.0L22.0,40.0L22.7,39.9L23.2,39.5L23.3,34.8L23.0,32.4L22.7,32.0L20.8,32.0L19.9,31.8L10.8,31.8Z M88.7,28.7L88.5,33.7L88.5,44.6L88.8,45.1L96.6,45.2L97.1,44.6L97.3,36.3L90.5,29.6L90.2,29.5L89.2,28.6Z M27.9,28.4L27.6,28.4L27.4,28.6L27.4,29.7L27.2,38.0L27.2,43.0L27.0,45.2L27.0,59.2L26.8,63.3L26.9,66.2L26.7,67.1L26.8,70.7L26.7,73.8L26.7,77.7L26.4,89.5L26.0,90.0L25.4,90.2L24.1,90.1L22.9,90.2L15.5,90.2L14.6,90.5L14.3,90.8L14.3,101.6L14.4,101.8L14.9,102.3L15.3,102.3L18.9,102.3L20.1,102.5L22.0,102.3L22.7,101.6L22.8,101.3L23.0,99.8L23.5,99.3L34.7,99.2L35.1,98.9L35.2,98.6L35.1,96.9L35.4,92.8L35.4,88.2L35.4,81.5L35.6,64.6L35.9,59.3L35.9,51.8L36.4,38.9L36.3,36.7L35.5,35.8L32.2,32.4L31.9,32.3L30.9,31.3L30.2,30.4Z M15.5,16.7L15.5,22.9L15.3,27.1L15.7,27.7L16.1,27.8L18.8,27.8L20.0,28.0L23.1,27.9L23.4,27.7L23.6,27.1L23.5,25.7L23.7,25.3L24.0,25.0L24.9,24.8L42.6,25.0L53.6,24.8L70.7,24.9L77.0,25.0L83.7,25.0L86.2,25.1L105.4,25.1L105.8,25.0L106.1,24.7L106.3,17.6L106.2,16.9L105.8,16.5L104.0,16.5L102.9,16.3L76.7,16.3L75.3,16.2L54.2,16.1L52.2,16.4L51.5,16.4L50.7,16.1L22.5,16.1L19.9,15.9L16.3,15.9L15.6,16.4Z M111.3,13.1L110.7,13.5L110.7,13.9L110.7,17.6L110.5,20.2L110.5,23.4L110.3,25.3L110.1,35.1L110.1,43.2L109.9,48.5L109.4,49.0L108.7,49.1L85.8,48.9L84.9,49.0L84.5,49.2L84.3,49.3L84.4,49.8L85.9,51.7L88.8,54.6L89.1,55.1L90.6,56.6L91.0,57.1L92.2,58.1L95.6,58.3L111.0,58.3L117.6,58.6L118.0,58.4L118.2,58.0L118.6,50.2L118.7,38.2L118.9,32.2L118.8,30.0L119.0,21.0L118.8,20.3L115.9,17.7Z" fill="#000" fill-rule="evenodd"/>
</svg>