<svg xmlns="http://www.w3.org/2000/svg" viewBox="0 0 128 128" width="128" height="128">
  <path d="M117.7,12.6L116.8,11.7L116.0,11.3L113.6,10.9L110.8,10.8L90.2,10.8L61.1,11.1L59.7,11.2L58.7,11.5L57.1,11.7L54.7,12.4L52.2,13.6L51.7,14.1L48.6,16.2L47.0,17.8L46.5,18.1L39.9,24.1L37.9,26.1L35.6,28.0L29.4,33.9L25.4,37.4L19.8,42.8L19.2,43.3L15.6,46.6L11.3,50.9L10.2,52.9L9.7,54.2L9.5,55.7L9.5,57.9L9.9,59.4L11.0,61.2L13.1,63.5L17.4,67.2L22.2,71.7L23.0,72.3L24.5,73.8L27.1,75.9L28.1,77.0L28.0,77.2L27.3,77.5L26.2,76.9L21.6,72.7L21.2,72.5L11.0,63.2L10.0,63.1L9.7,63.4L9.7,74.6L9.6,75.0L9.5,80.0L9.5,96.6L9.6,108.3L9.6,111.5L9.6,114.2L10.4,116.0L11.8,117.0L13.1,117.4L14.7,117.5L27.3,117.5L36.8,117.3L51.7,117.5L53.1,116.8L53.7,116.3L54.1,115.5L54.4,114.2L54.6,103.2L54.0,101.5L47.2,95.2L45.4,93.8L41.2,90.0L37.6,87.1L35.5,85.0L33.2,83.1L32.3,82.1L30.6,80.8L28.7,79.0L28.5,79.0L28.1,78.5L28.3,78.2L29.6,78.3L30.7,79.0L34.2,82.3L35.5,83.1L37.8,85.4L39.0,86.2L41.4,88.6L45.6,92.0L46.7,93.2L49.4,95.5L53.0,97.7L55.0,98.5L57.4,98.9L61.8,99.3L88.9,99.1L108.2,99.3L115.1,99.1L116.6,98.8L117.6,98.1L118.2,97.1L118.5,95.9L118.8,93.4L118.8,73.7L118.7,66.2L118.2,63.3L117.2,62.0L116.0,61.3L114.3,61.1L80.8,61.2L59.6,61.1L58.2,60.8L56.6,60.0L55.4,58.9L54.5,57.0L54.3,55.0L54.6,53.7L54.9,52.8L56.5,50.9L57.6,50.3L58.9,49.9L59.7,49.9L61.2,49.6L71.7,49.7L81.2,49.5L85.0,49.5L94.2,49.4L113.1,49.4L115.5,49.3L116.2,49.0L117.2,48.3L117.8,47.7L118.5,45.7L118.6,44.9L118.5,15.0L118.3,13.7Z" fill="#000" fill-rule="evenodd"/>
</svg>