<svg xmlns="http://www.w3.org/2000/svg" viewBox="0 0 128 128" width="128" height="128">
  <path d="M33.4,58.7L33.0,59.2L33.0,59.6L33.0,65.0L32.9,87.1L33.2,116.1L33.1,117.2L33.3,118.5L33.6,118.9L34.4,119.2L53.9,119.1L54.2,118.9L54.7,118.3L54.9,116.8L54.9,83.9L54.9,80.8L54.7,80.2L54.6,80.0L53.8,79.5L52.1,78.8L49.3,77.5L46.4,75.6L44.1,73.9L40.9,70.7L39.1,68.6L38.5,67.5L38.1,67.0L37.3,65.9L35.5,62.6L35.0,61.3L34.7,60.6L34.7,60.3L34.3,59.6L34.1,59.0L33.9,58.7Z M93.5,54.7L93.3,53.9L92.9,53.4L92.0,52.9L91.0,52.8L60.4,52.8L59.1,52.9L58.6,53.2L58.6,53.6L58.7,53.9L59.6,54.9L61.3,55.9L63.6,56.6L66.4,56.8L91.6,56.7L92.4,56.5L93.2,55.9L93.4,55.4Z M95.0,12.1L94.4,12.1L94.0,12.8L92.8,13.7L92.3,13.9L91.1,14.2L86.8,14.2L74.5,14.1L73.3,14.2L66.0,14.2L60.0,14.6L58.7,14.8L55.3,15.7L55.2,15.9L53.6,16.4L51.6,17.2L49.9,18.2L47.6,19.6L44.4,22.0L41.9,24.4L39.9,26.8L38.5,29.0L38.1,29.3L36.0,33.3L35.7,34.4L35.0,35.5L35.0,36.1L34.7,36.7L34.4,37.9L34.2,38.4L34.0,40.0L33.6,41.1L33.6,41.7L33.2,44.0L33.0,47.2L33.3,52.1L33.9,55.5L34.3,56.4L34.3,56.9L34.6,58.2L35.5,60.7L37.7,65.2L39.2,67.1L39.5,67.7L41.2,69.8L42.8,71.5L45.5,73.9L46.7,74.8L47.1,74.9L47.5,75.3L48.2,75.7L49.7,76.7L52.2,78.0L53.0,78.2L53.6,78.5L54.1,78.6L54.5,78.8L57.6,79.8L60.0,80.2L62.0,80.4L62.7,80.5L76.8,80.5L80.1,80.4L90.3,80.4L91.5,80.3L93.0,79.8L94.0,79.1L94.6,78.5L95.3,76.9L95.5,75.3L95.3,69.9L95.3,56.8L95.3,56.3L95.0,55.9L94.3,55.9L93.8,56.6L93.2,57.0L92.4,57.4L91.6,57.6L74.8,57.6L70.1,57.7L67.3,57.6L64.6,57.6L63.0,57.4L60.5,56.5L58.6,55.2L57.5,54.1L56.2,52.1L55.6,50.6L55.2,49.3L55.1,47.7L55.2,46.0L55.6,44.2L56.6,41.9L57.3,40.9L59.5,38.9L60.5,38.3L62.5,37.5L63.7,37.3L65.5,37.1L69.5,37.1L71.7,37.0L75.0,37.1L77.6,36.9L79.1,37.0L80.3,36.8L82.1,36.9L85.8,36.7L87.1,36.7L90.3,36.6L91.4,36.4L92.6,36.1L93.6,35.4L94.3,34.6L94.9,33.5L95.3,30.9L95.3,12.5Z M93.3,10.2L92.6,9.5L91.9,9.3L85.8,9.1L80.1,9.1L79.1,9.2L74.8,9.1L70.7,9.1L70.1,9.2L55.9,9.1L54.0,9.3L39.5,9.3L36.7,9.5L33.7,9.5L33.2,9.8L33.0,10.1L33.0,10.8L33.0,15.3L32.9,16.6L33.0,18.1L32.8,24.3L32.8,37.0L33.0,37.3L33.5,37.4L33.9,37.0L34.2,35.7L34.5,35.3L34.7,34.6L35.7,32.7L36.0,31.7L37.4,29.0L39.1,26.6L41.3,23.9L43.0,22.1L46.4,19.3L48.6,17.9L51.5,16.3L52.5,16.0L54.0,15.2L56.2,14.6L56.6,14.4L59.9,13.7L60.8,13.7L62.2,13.5L64.5,13.5L67.4,13.2L81.8,13.3L90.1,13.2L91.6,13.1L92.1,12.9L92.7,12.5L93.3,11.9L93.5,11.4L93.5,10.7Z" fill="#000" fill-rule="evenodd"/>
</svg>