<svg xmlns="http://www.w3.org/2000/svg" viewBox="0 0 128 128" width="128" height="128">
  <path d="M9.5,92.7L9.7,92.9L10.5,93.0L21.2,93.2L23.9,93.2L24.2,92.9L24.2,87.5L24.1,77.1L24.2,74.5L24.2,74.2L24.6,74.0L28.9,73.9L39.6,74.1L50.5,74.1L55.2,74.3L55.7,73.8L55.8,64.5L55.7,64.0L55.2,63.7L52.9,63.6L36.0,63.8L26.5,63.7L25.1,63.6L24.5,63.4L24.2,63.0L24.1,62.3L24.2,50.4L24.3,49.9L24.6,49.7L25.2,49.5L53.1,49.5L55.0,47.7L55.7,46.8L56.7,45.9L60.6,41.8L62.7,39.8L63.0,39.3L66.7,35.6L67.3,35.3L67.8,35.4L74.3,41.6L75.9,43.2L78.7,45.8L81.2,48.3L85.0,51.9L88.3,55.3L89.0,55.8L96.5,63.3L96.7,63.9L95.2,65.7L72.1,88.5L71.5,89.0L69.2,91.3L68.6,91.7L68.2,91.7L67.9,91.4L67.8,89.6L67.9,84.0L67.8,79.9L67.8,38.2L67.6,37.6L67.1,37.6L57.9,47.0L57.5,47.5L57.4,48.1L57.4,93.0L57.7,93.5L71.7,93.7L89.3,93.7L89.7,93.5L91.3,91.8L95.0,88.4L95.4,87.9L98.9,84.3L100.7,82.6L100.8,82.4L102.2,81.1L110.5,72.9L111.0,72.2L113.9,69.5L114.9,68.3L119.0,64.3L119.1,63.8L118.7,63.0L117.5,62.0L115.0,59.6L114.5,58.9L113.4,58.1L89.5,34.6L88.3,34.4L69.6,34.4L61.3,34.6L52.5,34.6L44.8,34.4L38.1,34.5L37.7,34.7L35.4,37.1L28.2,44.4L25.1,47.7L24.7,48.2L21.6,51.2L21.2,51.8L17.4,55.6L17.1,56.0L15.0,58.1L14.4,58.8L13.1,60.0L12.4,60.8L10.1,63.0L9.4,64.0L9.2,65.3L9.2,66.2L9.3,67.3L9.4,72.6L9.3,87.8L9.5,88.6Z" fill="#000" fill-rule="evenodd"/>
</svg>