<svg xmlns="http://www.w3.org/2000/svg" viewBox="0 0 128 128" width="128" height="128">
  <path d="M89.4,15.6L88.5,15.5L88.1,16.1L88.0,16.6L88.0,20.1L87.8,21.0L87.8,32.2L87.7,33.0L87.7,38.0L87.6,38.9L87.0,39.6L86.3,39.9L83.2,39.9L78.1,39.7L73.7,39.8L67.1,39.6L44.2,39.4L43.4,39.7L43.1,40.2L42.9,43.2L42.9,53.2L42.8,62.8L42.8,63.1L43.1,63.4L43.6,63.6L44.3,63.5L46.2,63.7L47.8,63.5L49.3,63.5L50.4,63.7L85.1,63.7L86.7,63.8L87.1,64.2L87.4,65.1L87.2,79.8L87.3,83.6L87.1,85.8L87.2,88.6L87.0,90.3L86.3,91.0L85.7,91.1L67.8,91.1L62.5,91.0L48.2,91.0L43.6,90.8L43.2,91.0L42.8,91.3L42.7,92.0L42.6,97.3L42.6,112.9L42.9,114.0L43.3,114.5L44.1,114.9L46.9,115.9L47.2,115.9L51.0,117.1L53.7,117.6L55.5,117.8L56.6,118.1L57.8,118.1L60.3,118.5L66.0,118.6L68.1,118.5L69.2,118.2L72.2,118.1L74.8,117.6L75.5,117.3L76.4,117.2L78.1,116.7L81.0,115.9L84.8,114.6L90.3,112.0L90.8,111.6L94.4,109.5L99.3,105.9L101.4,103.8L102.7,102.7L104.3,101.2L105.7,99.3L107.1,97.9L107.8,96.8L108.4,96.2L108.7,95.5L110.0,93.8L111.2,91.7L111.6,90.9L112.3,90.0L112.9,88.6L113.3,88.1L114.2,86.4L114.7,85.0L115.0,83.9L115.4,83.2L116.0,81.6L116.5,79.6L116.8,79.0L117.3,77.4L117.4,76.6L117.9,75.0L118.5,71.3L118.6,70.9L118.7,69.3L118.9,67.7L118.9,67.2L119.0,66.7L118.9,65.4L119.0,62.5L118.8,60.7L118.8,58.2L118.6,56.9L118.4,56.1L118.1,53.5L117.4,50.6L117.1,49.8L116.8,48.1L116.2,46.7L115.8,45.2L115.0,43.1L113.8,40.8L113.8,40.4L112.5,37.8L112.1,37.3L112.0,36.9L111.6,36.4L111.5,36.0L111.2,35.7L111.0,35.2L110.4,34.4L109.6,33.1L105.5,27.9L104.2,26.7L103.3,25.7L100.0,22.6L97.9,21.1L97.5,20.6L93.1,17.6L92.8,17.6L92.3,17.2L91.8,17.0L91.5,16.7Z M85.0,13.6L82.8,12.9L82.5,12.6L81.7,12.5L80.7,12.1L80.0,12.0L79.6,11.7L78.4,11.5L77.5,11.1L76.7,11.1L73.9,10.4L72.7,10.4L70.0,9.9L66.2,9.8L64.7,9.6L58.3,9.9L54.7,10.4L53.4,10.8L51.2,11.2L49.5,11.8L48.8,11.9L44.6,13.3L44.2,13.5L41.3,14.6L38.6,16.0L37.6,16.8L35.2,18.1L33.7,19.1L32.9,19.5L32.4,20.0L31.3,20.7L30.3,21.6L29.2,22.4L28.1,23.5L26.6,24.6L25.8,25.4L25.5,25.8L24.9,26.3L22.9,28.3L19.0,33.3L18.7,33.9L17.7,35.2L17.4,36.0L16.9,36.5L15.9,38.6L15.2,39.5L14.0,42.4L13.1,44.1L12.7,45.1L12.7,45.5L12.2,47.1L11.6,48.5L10.0,54.8L10.0,55.7L9.5,57.9L9.2,63.1L9.2,66.4L9.5,67.3L9.6,71.5L10.0,73.2L10.2,74.7L10.6,76.2L10.6,76.6L10.9,77.5L11.0,78.2L11.7,80.7L12.0,81.1L12.5,82.8L13.4,85.3L14.5,87.3L15.1,89.0L15.6,89.6L16.1,90.7L16.7,91.4L17.5,93.0L18.5,94.5L18.8,95.0L21.5,98.7L24.8,102.2L27.7,105.1L32.9,109.1L34.0,109.7L35.7,110.9L40.2,113.2L40.8,113.3L41.2,112.9L41.4,111.7L41.4,102.2L41.6,97.6L41.5,91.3L41.6,90.0L42.1,89.4L42.7,89.1L50.2,89.1L57.0,89.3L64.6,89.3L65.9,89.1L70.2,89.3L79.6,89.3L83.4,89.1L85.1,89.2L85.4,89.1L85.7,88.8L85.9,87.3L85.8,86.9L86.0,86.0L85.9,83.5L86.0,81.7L86.2,71.0L86.0,66.0L85.6,65.6L82.6,65.4L80.0,65.5L73.8,65.3L42.8,65.3L42.4,65.1L42.0,64.7L41.8,64.4L41.7,63.4L42.0,39.2L42.2,38.5L42.8,37.9L43.6,37.7L58.2,37.8L60.0,38.0L61.2,37.8L70.8,38.0L81.3,38.0L83.3,37.8L84.9,38.0L85.9,37.9L86.2,37.7L86.5,36.8L86.5,15.1L86.2,14.3L86.0,14.1Z" fill="#000" fill-rule="evenodd"/>
</svg>