<svg xmlns="http://www.w3.org/2000/svg" viewBox="0 0 128 128" width="128" height="128">
  <path d="M108.8,9.6L108.1,9.3L98.4,9.3L86.5,9.6L85.1,9.5L81.6,9.6L72.8,9.6L71.8,9.8L71.4,10.5L71.3,27.3L71.5,27.8L71.9,28.0L73.7,28.2L88.5,28.0L89.2,28.6L89.4,29.0L89.5,41.9L89.3,42.5L88.8,42.9L87.8,43.0L81.2,43.0L78.7,43.1L73.8,43.1L72.0,43.3L71.6,43.7L71.4,44.2L71.5,48.5L71.3,49.6L71.5,52.6L71.5,61.0L71.8,61.5L74.1,61.7L88.8,61.5L89.3,62.0L89.5,63.4L89.4,97.2L89.0,97.5L87.7,97.7L74.7,97.9L74.3,97.7L73.9,97.4L73.7,96.7L73.7,80.5L73.6,80.1L73.2,79.7L65.3,79.7L64.3,79.9L60.8,79.9L56.0,79.9L55.2,80.0L54.9,80.4L54.7,81.6L54.7,97.6L54.4,98.0L53.6,98.3L49.5,98.3L46.7,98.4L40.1,98.4L39.4,98.3L39.1,97.9L38.9,92.1L39.0,70.4L38.8,69.6L39.0,62.9L39.3,62.4L39.7,62.3L40.7,62.2L54.7,62.1L56.0,62.0L56.4,61.8L56.8,61.5L56.8,44.1L56.1,43.5L55.8,43.4L39.8,43.5L39.3,43.3L39.1,43.1L38.9,42.5L38.6,42.2L38.1,42.1L37.8,41.7L37.8,41.5L38.5,41.2L38.8,40.7L38.8,29.9L39.1,29.1L39.5,28.8L49.4,28.5L55.8,28.5L56.4,28.2L56.8,27.2L56.7,10.6L56.1,10.0L38.1,10.1L30.1,10.3L26.9,10.2L25.5,10.4L19.7,10.3L19.3,10.6L19.2,11.1L19.1,21.5L19.2,44.2L19.0,64.0L19.2,78.8L19.1,103.4L19.2,109.7L19.1,115.0L19.2,118.3L19.4,118.7L20.9,119.0L26.0,119.0L29.8,118.8L35.2,118.8L37.2,118.6L41.4,118.7L61.9,118.3L69.3,118.3L73.5,118.1L78.6,118.2L79.2,118.0L82.0,118.1L84.5,117.9L89.5,117.9L98.0,117.6L101.0,117.7L102.1,117.6L104.6,117.5L108.0,117.6L108.7,117.5L109.2,117.0L109.1,115.5L109.3,113.7L109.3,85.3L109.1,83.8L109.1,54.3L109.3,49.6L109.1,46.7L109.2,32.2L109.0,29.7L109.0,12.1L108.9,9.9Z M106.8,81.9L107.0,82.5L107.0,114.7L106.5,115.2L106.2,115.4L102.1,115.6L95.0,115.5L81.2,115.9L74.2,115.9L67.9,116.1L64.5,116.0L60.6,116.2L50.2,116.2L47.8,116.5L46.8,116.3L23.1,116.7L22.3,116.6L21.7,116.2L21.5,115.0L21.5,104.9L21.4,101.7L21.2,100.3L21.4,96.6L21.2,94.6L21.4,92.5L21.3,83.5L21.5,82.9L21.7,82.6L29.5,82.6L32.7,82.4L35.5,82.4L36.5,82.6L36.8,83.2L36.9,100.0L37.2,100.5L37.6,100.7L41.6,100.8L49.6,100.5L56.1,100.5L56.8,100.2L56.9,99.8L57.1,89.9L56.9,88.0L56.9,82.9L57.0,82.6L57.7,82.1L64.6,81.9L69.9,81.9L71.1,82.1L71.3,82.3L71.5,83.2L71.6,99.6L72.0,100.0L72.2,100.1L77.1,100.2L79.3,100.0L81.1,100.1L82.5,100.0L90.2,100.0L90.9,99.9L91.3,99.5L91.5,99.0L91.4,82.7L91.9,81.8L92.2,81.6L93.6,81.6L94.4,81.5L99.0,81.4L106.2,81.5Z M53.6,12.2L54.4,12.8L54.5,13.8L54.4,16.3L54.6,17.1L54.5,25.5L54.4,25.9L53.9,26.3L52.4,26.3L44.7,26.3L41.5,26.5L37.5,26.5L37.1,26.7L36.8,27.4L36.8,42.0L36.8,45.1L37.5,45.7L43.5,45.8L44.2,45.6L51.9,45.6L54.1,45.8L54.4,46.2L54.6,46.7L54.6,59.3L54.2,59.8L52.4,59.9L46.8,59.9L45.8,60.1L42.7,60.0L37.6,60.2L36.9,60.8L36.8,61.4L36.8,79.5L36.7,79.9L36.1,80.1L35.5,80.2L24.0,80.4L21.7,80.2L21.4,79.7L21.3,79.1L21.3,68.8L21.1,66.6L21.2,64.9L21.4,64.3L21.4,62.4L21.2,60.7L21.2,23.7L21.4,22.3L21.3,15.2L21.6,13.0L21.8,12.6L22.7,12.4L28.2,12.5L32.5,12.3L38.4,12.4L39.6,12.2Z M74.4,11.8L80.7,11.6L92.9,11.6L102.4,11.3L105.8,11.4L106.3,11.6L106.6,12.1L106.9,35.1L106.8,41.3L107.0,75.7L106.9,78.7L106.4,79.1L105.6,79.3L92.6,79.4L91.9,79.1L91.6,78.9L91.4,78.2L91.4,61.2L91.2,60.1L90.9,59.7L89.8,59.4L82.2,59.5L79.9,59.7L74.5,59.6L73.8,59.1L73.6,58.1L73.6,46.3L73.8,45.7L74.1,45.5L79.4,45.2L81.8,45.3L83.3,45.1L89.5,45.1L90.9,44.9L91.2,44.7L91.4,44.3L91.2,26.3L90.5,25.9L89.3,25.8L77.7,26.0L74.1,25.9L73.6,25.4L73.6,24.9L73.6,12.4L73.9,12.0Z" fill="#000" fill-rule="evenodd"/>
</svg>