<svg xmlns="http://www.w3.org/2000/svg" viewBox="0 0 128 128" width="128" height="128">
  <path d="M28.1,16.6L26.9,17.7L25.6,19.3L24.9,20.8L24.0,23.2L23.5,25.2L23.3,27.9L23.1,35.8L22.9,36.4L22.3,37.0L21.3,37.2L10.3,37.3L9.6,37.6L9.3,38.4L9.4,44.0L9.8,44.5L11.3,44.8L14.8,44.7L16.3,44.9L21.9,44.9L22.6,45.1L23.1,45.9L23.3,48.7L23.3,63.9L23.1,71.2L23.2,82.4L23.5,83.0L24.1,83.3L26.6,83.5L54.2,83.5L55.7,83.7L56.0,83.9L56.1,84.5L55.5,85.8L53.7,88.1L53.5,88.7L52.4,90.0L51.4,91.8L50.8,92.3L50.0,93.7L48.4,95.7L48.0,96.4L47.5,96.9L47.3,97.3L46.3,98.7L46.0,99.4L45.6,99.8L45.0,100.8L43.7,102.6L43.5,103.0L42.9,103.7L42.7,104.1L42.2,104.6L41.3,106.1L40.4,107.3L40.2,107.8L39.8,108.4L39.8,108.8L40.1,109.5L39.8,109.7L39.0,109.7L38.4,110.3L37.5,111.8L36.5,113.0L36.4,114.0L36.9,114.4L37.6,114.5L46.4,114.5L47.3,114.4L48.1,114.0L48.8,113.2L49.6,111.8L50.7,110.4L50.9,110.0L53.4,106.6L54.2,105.1L55.3,103.9L55.8,102.8L56.6,101.9L58.1,99.4L59.2,98.0L61.6,94.2L62.8,92.8L63.0,92.4L64.3,90.6L66.4,87.3L67.7,85.8L67.7,85.5L68.4,84.9L68.6,84.8L69.5,84.9L70.5,85.9L70.6,86.4L71.1,86.9L71.4,87.4L72.6,88.9L73.9,90.7L76.5,93.9L77.2,95.1L77.9,96.0L79.0,97.5L82.5,102.0L84.1,104.2L84.7,104.8L84.8,105.3L86.3,107.3L87.7,108.9L88.6,110.3L91.2,113.5L91.9,114.0L92.9,114.2L98.2,114.2L101.7,114.0L102.2,113.6L102.2,113.0L101.5,111.8L99.5,109.4L96.8,105.5L95.9,104.6L93.9,101.7L93.4,101.2L92.5,99.8L91.7,99.0L91.5,98.5L89.5,96.0L88.8,94.8L88.2,94.3L87.5,93.1L87.2,92.9L87.0,92.5L84.8,89.8L84.7,89.3L81.3,84.5L81.3,84.0L81.5,83.7L82.2,83.4L92.6,83.4L99.7,83.1L101.8,82.6L103.1,82.5L103.5,82.3L106.0,81.5L108.8,80.0L111.4,78.0L113.6,75.7L115.4,73.3L116.7,70.9L117.3,69.4L118.1,67.1L118.2,65.9L118.4,65.6L119.0,61.0L119.0,58.9L118.7,55.6L117.7,51.4L116.5,48.4L114.0,44.6L112.3,42.7L109.9,40.8L107.2,39.3L105.7,38.6L104.3,38.3L103.1,37.9L100.8,37.5L99.7,37.5L98.2,37.3L88.8,37.3L87.9,36.9L87.6,36.7L87.3,35.8L87.3,25.4L87.5,20.6L87.5,15.5L87.1,14.6L86.6,14.2L77.6,13.8L75.5,14.0L69.8,14.0L65.3,13.8L54.3,13.8L51.8,14.1L50.8,14.4L49.2,14.4L48.1,13.8L46.5,13.7L37.4,13.8L33.8,14.3L31.8,14.7L29.8,15.5Z M34.9,54.2L35.4,54.1L35.6,54.3L36.1,55.4L37.1,56.9L38.9,58.9L40.1,59.9L42.6,61.2L46.5,62.6L47.7,62.8L48.1,63.1L49.5,63.3L50.0,63.6L50.6,63.7L51.9,64.2L54.1,64.7L54.9,65.1L58.5,66.1L61.2,67.2L63.0,68.1L64.4,69.4L65.2,70.7L65.4,71.5L65.4,72.7L64.6,74.8L63.9,75.5L62.3,76.3L59.9,76.7L45.5,76.7L37.8,76.5L36.9,76.6L35.7,76.5L35.2,76.3L34.8,75.8L34.6,74.9L34.8,63.6L34.7,58.4Z M46.0,47.1L46.7,46.3L48.0,45.4L49.9,44.9L58.2,44.7L74.0,44.8L74.8,45.0L75.6,45.5L75.9,46.5L75.9,60.5L75.8,65.1L75.5,67.0L75.3,67.2L74.9,67.1L74.1,65.3L72.2,62.5L70.5,60.9L69.6,60.3L69.1,60.1L68.7,59.8L65.4,58.3L63.6,57.7L63.4,57.5L60.3,56.6L58.6,55.9L57.5,55.8L56.8,55.4L54.4,54.8L53.5,54.4L53.1,54.4L52.7,54.1L49.0,52.9L47.2,51.9L46.3,51.1L45.7,49.7L45.7,48.4Z M96.2,44.3L99.0,44.4L100.9,45.0L102.5,45.9L104.8,48.0L105.8,49.5L107.0,51.8L107.8,54.5L108.3,57.6L108.4,61.3L108.0,64.7L107.2,68.1L105.9,71.0L104.2,73.4L101.9,75.2L101.1,75.7L99.7,76.2L97.4,76.7L95.8,76.6L94.4,76.3L92.7,75.7L90.9,74.6L89.1,72.8L88.1,71.5L88.0,70.8L87.5,70.2L86.8,68.1L86.1,65.6L85.9,63.7L85.8,60.2L86.1,55.8L86.8,53.5L86.8,53.1L87.8,50.5L89.5,47.9L91.1,46.3L92.4,45.4L93.3,45.1L93.6,44.9Z M34.9,25.3L35.7,23.6L36.9,22.5L38.4,21.9L40.1,21.8L40.6,21.7L44.1,21.8L50.7,21.6L61.4,21.8L64.0,21.7L71.1,21.7L74.7,21.8L75.3,22.1L75.8,22.5L75.9,23.2L75.9,31.8L75.8,36.1L75.5,36.6L74.8,37.1L71.7,37.3L64.7,37.1L35.8,37.1L34.9,36.4L34.8,35.9L34.7,26.4Z" fill="#000" fill-rule="evenodd"/>
</svg>