<svg xmlns="http://www.w3.org/2000/svg" viewBox="0 0 128 128" width="128" height="128">
  <path d="M117.5,9.9L116.6,9.6L110.9,9.6L100.9,9.6L90.6,9.5L74.1,9.5L68.3,9.6L50.2,9.6L45.4,9.8L42.6,9.6L41.5,9.8L24.7,9.8L21.6,10.0L20.1,9.9L18.8,10.1L11.8,10.1L9.8,10.3L9.5,10.5L9.5,11.2L11.3,12.8L11.9,13.1L12.1,13.4L13.2,14.2L15.8,16.4L18.2,18.1L18.9,18.8L19.6,19.2L24.4,23.2L27.4,25.5L30.3,28.0L35.1,31.7L37.2,33.6L37.5,33.7L42.1,37.6L43.6,38.6L45.0,39.9L46.1,40.7L48.4,42.7L52.0,45.5L53.4,46.8L54.1,47.2L54.7,47.8L55.2,48.1L57.5,50.1L61.5,53.2L65.1,56.3L65.4,56.4L67.0,57.9L70.9,60.9L72.5,62.5L73.3,63.0L74.3,64.0L74.3,64.2L74.1,64.4L71.4,64.3L69.9,64.0L68.2,64.0L61.4,64.0L55.6,64.4L53.7,64.9L51.9,65.1L50.6,65.5L49.2,65.6L48.7,65.9L47.4,66.1L46.6,66.5L45.8,66.6L43.6,67.4L42.6,67.6L41.8,68.0L39.9,68.5L37.7,69.6L36.8,69.9L35.4,70.6L34.2,71.1L30.4,73.1L29.3,73.9L29.0,74.0L23.5,77.6L20.2,80.5L19.6,80.8L14.7,85.6L10.8,90.2L9.8,91.5L9.8,92.5L10.0,92.8L13.2,96.7L18.1,101.5L22.0,104.7L23.9,105.9L25.5,107.2L26.6,107.8L27.3,108.3L28.7,109.2L29.3,109.3L30.5,110.2L36.8,113.3L43.0,115.5L48.4,117.0L56.0,118.4L59.9,118.5L60.2,118.7L62.3,118.8L69.9,118.6L71.1,118.4L74.4,118.1L77.0,117.6L83.4,116.1L84.2,115.7L85.5,115.4L86.0,115.2L87.1,114.9L87.3,114.7L89.7,113.8L91.4,113.0L92.8,112.5L96.2,110.8L100.9,108.1L107.3,103.5L109.0,101.9L110.8,100.4L114.4,96.9L117.6,93.2L118.8,91.4L118.8,90.6L118.4,89.7L111.9,82.8L107.4,78.9L106.3,77.7L105.5,77.2L103.2,75.0L98.4,71.2L96.9,69.8L95.7,68.9L93.7,67.1L93.0,66.8L91.7,65.5L90.1,64.4L88.6,63.0L86.9,61.8L86.1,61.0L85.3,60.5L80.3,56.3L78.1,54.7L75.0,51.9L71.9,49.6L70.8,48.5L68.4,46.7L64.4,43.3L62.8,42.2L60.5,40.1L60.2,40.0L57.6,37.7L57.7,37.2L58.1,37.0L60.7,36.9L68.7,36.9L75.7,36.8L117.5,36.8L118.3,36.3L118.4,35.3L118.4,28.7L118.2,27.8L117.4,27.3L81.8,27.2L78.9,27.4L75.3,27.3L69.5,27.5L65.3,27.4L61.5,27.6L45.8,27.7L44.8,27.4L44.2,27.0L43.4,26.3L40.4,24.0L39.5,23.1L36.2,20.4L35.6,19.8L35.6,19.4L35.8,19.2L37.4,19.1L52.9,19.1L55.4,18.9L68.5,18.9L70.1,18.7L106.5,18.7L114.3,18.9L117.2,18.8L117.8,18.7L118.3,17.9L118.2,12.0L118.0,11.3L118.0,10.6Z M63.0,82.5L65.5,82.5L66.7,82.7L68.3,83.3L69.4,83.9L71.2,85.6L72.5,87.6L73.0,88.9L73.3,90.9L73.3,92.4L72.9,94.3L72.2,95.8L71.2,97.3L70.3,98.2L68.8,99.3L67.6,99.9L65.2,100.4L63.1,100.3L61.6,100.0L59.8,99.2L58.7,98.5L57.5,97.2L56.5,95.7L56.0,94.7L55.5,93.1L55.5,90.0L56.0,88.3L57.0,86.3L58.8,84.4L59.7,83.7L61.7,82.8Z M56.1,74.1L56.3,74.6L55.9,74.9L54.9,75.4L54.1,76.1L53.9,76.1L51.7,77.9L50.4,79.1L49.9,80.1L48.9,81.2L47.3,84.7L46.4,87.3L46.0,89.5L45.9,92.2L46.4,95.6L47.2,98.0L47.5,98.6L48.1,100.0L48.7,100.7L49.2,101.8L51.6,104.7L53.4,106.3L55.5,107.7L56.3,107.9L56.8,108.5L56.7,108.9L54.3,108.7L47.2,107.1L46.8,106.8L45.8,106.6L43.5,105.9L41.7,105.0L41.4,105.0L40.5,104.6L39.8,104.5L34.5,101.7L33.4,100.9L30.5,99.2L25.3,95.3L22.4,92.4L22.3,91.5L24.3,89.5L26.7,87.2L31.7,83.5L32.3,83.2L33.6,82.2L35.3,81.3L37.2,80.1L42.7,77.6L47.0,76.1L47.9,76.0L48.7,75.6L49.9,75.4L50.9,75.0Z M71.8,74.0L72.4,73.9L75.6,74.4L80.8,75.6L86.9,77.6L92.4,80.2L96.6,82.6L100.0,85.0L100.5,85.5L101.1,85.8L104.4,88.5L106.2,90.3L106.4,90.8L106.3,91.5L105.9,92.2L103.1,94.9L99.3,97.9L98.6,98.3L95.7,100.3L90.7,103.2L86.6,105.0L82.0,106.7L80.9,106.9L79.1,107.6L77.7,107.8L76.6,108.1L74.4,108.4L73.4,108.7L72.5,108.7L72.4,108.3L76.0,105.9L78.2,103.6L79.3,102.2L80.4,100.5L81.7,97.7L82.3,95.5L82.7,92.7L82.7,90.9L82.4,88.2L81.9,86.0L80.8,83.4L79.7,81.4L78.6,79.8L76.9,78.0L74.9,76.3L72.3,74.7L71.8,74.3Z" fill="#000" fill-rule="evenodd"/>
</svg>