<svg xmlns="http://www.w3.org/2000/svg" viewBox="0 0 128 128" width="128" height="128">
  <path d="M42.7,107.4L42.4,108.0L42.3,109.0L42.5,109.8L42.9,110.6L44.0,112.0L45.6,113.1L48.4,113.5L49.6,113.4L50.5,113.2L51.5,112.6L52.5,111.4L52.7,110.1L52.5,109.6L51.7,108.0L50.5,106.6L49.1,105.9L47.5,105.5L45.8,105.5L43.8,106.4Z M90.0,99.9L89.8,100.5L89.9,101.8L90.3,102.7L90.8,103.5L92.1,104.6L93.7,105.5L95.4,105.9L96.3,105.9L98.0,105.4L98.9,105.0L99.9,104.1L100.5,102.9L100.4,102.0L100.0,101.2L99.1,99.8L98.5,99.1L97.7,98.5L96.2,97.8L94.5,97.7L92.3,98.2L91.3,98.7Z M11.4,69.9L11.1,70.7L11.2,71.4L12.2,73.4L13.6,74.6L15.2,75.4L16.1,75.7L17.2,75.7L18.8,75.2L20.0,74.7L20.8,73.9L21.1,73.3L21.1,72.1L21.0,71.6L20.2,70.2L19.2,69.0L17.8,68.2L17.0,67.9L16.0,67.9L14.6,67.9L12.6,68.8L11.9,69.3Z M64.8,67.2L64.6,67.4L64.2,76.5L64.2,87.6L64.1,87.9L63.8,89.5L63.4,90.5L63.4,90.8L62.7,93.1L61.6,95.2L60.5,96.5L60.4,96.8L60.5,97.3L61.0,97.6L63.5,98.0L64.2,98.5L64.4,99.1L64.3,103.4L62.9,108.7L62.5,109.5L62.4,110.0L61.5,111.6L59.8,113.9L57.9,115.6L55.6,117.1L55.6,117.4L55.9,117.6L58.7,118.3L59.7,118.3L61.8,118.7L63.3,118.8L64.6,119.1L69.1,119.0L70.2,118.8L72.5,118.7L73.8,118.3L74.4,118.3L75.7,118.1L78.4,117.3L79.0,117.0L79.8,116.8L81.7,116.0L83.6,114.7L85.3,113.0L86.5,111.2L86.8,110.1L86.9,109.3L86.8,107.5L86.2,105.3L85.3,103.2L84.6,102.3L84.0,101.0L83.3,100.0L83.0,99.1L79.8,93.6L79.1,92.2L78.6,91.6L77.1,88.6L76.0,86.9L75.9,86.5L75.0,85.1L74.5,83.9L74.2,83.5L74.0,83.0L73.3,81.9L73.0,81.2L71.4,78.3L71.0,77.8L70.0,75.7L69.6,75.2L69.4,74.6L68.2,72.6L66.5,69.4L66.1,68.8L65.4,67.4L65.1,67.2Z M61.7,66.5L61.5,66.3L61.0,66.3L59.9,67.0L56.6,68.7L53.4,70.6L52.8,70.8L48.6,73.4L47.3,74.0L44.8,75.7L42.7,76.7L42.4,77.1L40.8,77.8L40.0,78.4L38.7,78.7L37.7,78.8L36.0,78.4L34.4,77.8L33.3,77.9L33.2,79.5L32.6,81.0L32.1,82.7L31.7,83.3L30.3,84.4L26.5,86.2L25.4,86.6L24.8,86.6L23.9,86.3L21.6,86.2L19.7,85.7L16.5,84.4L16.2,84.1L14.7,83.4L13.0,82.1L12.6,82.1L12.5,82.5L13.3,85.2L14.7,88.1L15.2,88.9L15.5,89.5L17.1,92.3L18.8,94.8L22.5,99.2L24.5,101.2L24.8,101.3L25.8,102.3L27.6,103.5L29.6,104.5L31.1,104.6L32.1,105.0L34.3,105.0L35.8,104.9L37.5,104.5L39.3,103.6L40.3,102.9L41.7,101.4L43.4,98.9L46.3,94.2L47.7,91.5L49.9,88.1L50.9,85.9L54.6,79.4L55.1,78.3L56.3,76.5L56.9,75.2L61.6,67.1Z M66.6,64.5L66.5,64.9L67.0,65.3L67.3,65.4L68.4,66.1L69.0,66.4L71.0,67.6L71.3,67.7L72.3,68.4L75.5,70.2L76.4,70.5L76.8,70.9L79.4,72.2L79.7,72.5L81.7,73.4L82.8,74.1L87.2,76.2L88.5,77.5L89.4,79.5L89.8,81.2L89.9,84.0L89.5,86.2L89.5,87.2L89.7,87.4L90.3,87.3L93.7,83.0L94.7,81.4L95.3,80.9L95.9,80.9L97.7,81.8L100.3,84.0L101.0,84.7L103.1,87.9L103.5,89.0L103.9,89.6L104.6,93.3L104.6,95.0L104.4,96.8L103.6,100.4L102.8,102.8L102.8,103.3L102.9,103.5L103.2,103.5L103.7,103.2L104.7,102.5L107.3,100.1L110.6,96.3L112.9,92.8L113.8,91.8L115.2,88.9L115.6,87.9L116.1,87.0L116.1,86.7L116.4,86.3L116.5,85.9L116.8,85.4L118.2,81.3L118.5,79.6L118.5,76.5L117.9,74.2L117.2,72.7L116.4,71.4L114.4,69.3L112.8,68.2L109.7,66.7L106.9,66.3L99.1,66.1L98.4,65.9L90.4,65.6L88.1,65.4L82.5,65.2L81.5,65.1L79.2,65.1L76.7,64.8L68.5,64.6L67.9,64.4Z M106.7,54.8L106.4,55.5L106.4,56.0L106.7,56.9L107.4,58.1L108.7,59.3L110.6,60.2L111.5,60.5L114.0,60.3L114.7,60.1L115.6,59.6L116.6,58.8L117.2,58.0L117.7,56.9L117.6,55.4L117.2,54.6L116.5,53.8L115.0,53.0L114.1,52.9L112.8,52.4L110.5,52.5L108.9,53.0L107.6,53.8Z M13.1,39.0L11.8,41.8L11.6,42.5L11.5,42.7L10.3,46.0L9.7,49.2L9.7,51.2L10.0,51.9L10.2,53.6L10.6,54.8L11.0,55.7L12.1,57.3L13.6,58.9L14.7,59.3L15.6,60.3L16.3,60.7L17.3,61.0L18.8,61.3L19.7,61.6L22.0,61.7L25.0,62.0L32.9,62.1L35.0,62.3L36.6,62.2L40.8,62.6L43.1,62.6L43.9,62.8L46.0,62.7L47.6,62.9L60.0,63.0L60.3,62.8L60.1,62.4L57.4,61.2L56.2,60.5L54.8,59.9L52.7,58.7L50.5,57.8L49.0,57.0L48.7,57.0L47.0,56.1L46.8,56.1L43.9,54.5L43.1,54.2L42.2,53.7L40.4,52.2L39.9,51.6L38.5,49.6L37.8,47.6L37.6,46.3L37.6,43.6L37.9,42.8L37.8,41.4L37.2,41.3L35.5,43.1L34.0,45.0L33.4,46.1L32.3,47.2L31.7,47.1L29.0,45.6L26.2,43.1L25.3,42.1L25.2,41.8L24.8,41.3L23.9,39.5L23.8,39.0L23.5,38.6L23.5,38.2L23.0,36.3L23.0,31.9L23.4,28.8L23.7,28.0L23.8,27.0L23.9,26.2L23.7,25.9L22.9,26.2L20.9,28.0L18.9,30.1L17.4,32.0L15.5,35.0L15.2,35.3L14.7,36.3L14.6,36.7Z M116.0,45.6L115.6,45.0L115.5,44.1L115.2,43.8L115.1,43.1L113.3,39.8L112.7,38.2L110.4,34.6L108.1,31.8L103.4,27.1L101.3,25.4L99.7,24.8L98.2,23.8L96.7,23.3L96.0,23.2L95.4,23.0L92.7,23.0L90.3,23.4L89.3,23.8L88.4,24.3L86.6,25.9L86.2,26.6L84.3,29.1L84.1,29.6L83.2,30.8L82.6,32.4L81.2,34.4L79.6,37.2L79.4,37.8L78.8,38.5L77.1,41.1L76.1,43.2L75.2,44.4L73.5,47.3L72.9,48.7L71.4,51.0L71.2,51.5L69.9,53.7L69.6,54.1L69.3,54.7L69.1,55.0L68.0,57.0L67.4,58.0L67.0,58.8L66.8,59.1L66.5,59.8L66.5,60.5L66.9,60.5L68.5,59.7L68.8,59.5L70.8,58.4L72.4,57.3L73.9,56.6L74.2,56.3L74.5,56.2L76.5,55.0L77.1,54.7L79.7,53.1L81.7,52.1L84.5,50.4L87.0,49.4L88.2,49.3L89.1,49.1L89.9,49.1L90.8,49.3L91.7,49.4L93.5,50.0L94.1,50.0L94.5,49.9L94.7,49.6L94.9,48.8L95.3,45.4L95.6,44.2L96.5,43.5L99.8,42.1L103.0,41.4L104.7,41.4L108.7,42.2L110.6,43.0L112.2,44.0L114.1,45.4L115.5,46.7L115.9,46.7L116.1,46.5Z M27.5,25.0L27.3,26.0L27.6,27.1L28.2,28.0L29.4,29.3L31.3,30.3L33.4,30.5L35.3,30.0L36.7,29.1L37.4,28.4L37.6,27.9L37.6,27.1L37.4,26.2L36.8,25.2L35.3,23.7L34.3,23.1L33.1,22.8L31.7,22.7L30.6,23.0L29.2,23.5L28.4,24.3L27.8,24.6Z M75.5,15.3L75.0,16.5L74.8,17.4L75.0,18.6L75.9,20.1L77.5,21.6L79.7,22.4L81.9,22.3L82.7,22.1L83.7,21.7L84.9,20.5L85.1,19.8L85.1,19.0L84.8,18.0L83.7,16.3L82.1,15.0L79.9,14.2L78.0,14.1L77.5,14.2L76.1,14.7Z M51.6,10.2L51.0,10.5L50.1,10.6L49.5,11.0L48.8,11.0L48.0,11.5L46.8,11.9L45.0,12.9L44.4,13.6L42.4,15.2L41.8,15.7L41.4,16.5L41.1,16.8L40.6,17.9L40.4,19.2L40.5,21.1L40.9,22.5L41.3,23.0L41.8,24.3L43.3,26.8L44.5,29.3L45.3,30.3L45.9,31.5L47.2,33.5L47.7,34.6L48.3,35.4L48.6,36.1L49.6,37.7L49.9,38.4L50.5,39.3L51.2,40.5L51.5,40.8L51.6,41.2L52.6,42.7L53.4,44.4L54.9,46.6L55.0,46.9L55.9,48.2L56.4,49.3L57.3,50.6L58.7,53.4L59.5,54.6L60.0,55.7L60.8,56.9L62.1,59.2L62.4,59.4L62.8,59.4L63.0,59.2L62.9,54.4L63.2,46.1L63.2,40.4L63.3,40.1L64.0,36.4L64.4,35.0L65.3,33.1L66.6,31.4L66.5,30.7L65.5,30.1L63.8,29.6L63.1,29.0L63.1,25.9L63.7,22.4L64.2,20.5L64.8,19.0L65.0,18.2L65.9,16.3L67.9,13.8L70.2,11.6L71.2,11.0L71.6,10.6L71.6,10.3L71.1,10.1L70.6,10.1L68.7,9.7L66.5,9.5L66.0,9.3L64.3,9.3L63.5,9.2L57.8,9.3L55.3,9.7L53.8,9.8L53.5,10.0Z" fill="#000" fill-rule="evenodd"/>
</svg>