<svg xmlns="http://www.w3.org/2000/svg" viewBox="0 0 128 128" width="128" height="128">
  <path d="M58.6,9.4L57.5,9.6L56.1,9.7L55.1,10.0L53.8,10.2L53.2,10.4L52.0,10.5L49.6,11.2L48.0,11.6L47.1,12.0L44.3,12.9L42.6,13.8L41.8,14.0L38.9,15.4L36.9,16.5L35.6,17.4L35.2,17.5L34.5,18.1L34.3,18.1L30.7,20.7L26.3,24.5L21.7,29.3L21.2,30.3L20.7,30.8L19.8,32.3L19.0,33.1L16.8,36.7L13.8,42.6L12.6,46.2L12.2,47.8L11.9,48.4L11.2,50.6L11.0,52.3L10.7,53.5L10.7,54.1L10.2,55.9L10.1,57.5L9.8,59.5L9.5,63.1L9.5,64.5L9.8,66.8L9.8,69.0L9.9,69.6L9.9,70.5L10.1,71.0L10.4,73.9L10.7,74.5L10.9,76.2L11.5,78.7L13.6,85.2L14.6,87.3L14.8,87.9L15.1,88.3L15.5,89.3L16.0,89.9L16.7,91.5L17.2,92.3L17.6,92.7L18.3,94.1L18.8,94.6L19.1,95.4L20.2,96.9L20.8,97.5L22.6,100.1L29.0,106.3L29.2,106.4L30.6,107.6L31.6,108.2L33.2,109.4L33.6,109.5L34.3,110.2L36.0,111.2L37.2,112.0L38.4,112.5L38.9,112.9L39.9,113.4L40.5,113.5L41.3,113.9L41.6,114.2L43.6,114.9L44.8,115.5L45.8,115.8L47.5,116.3L48.0,116.6L49.7,117.1L50.4,117.2L51.5,117.6L56.5,118.5L57.5,118.5L59.8,118.9L63.3,119.0L68.2,118.9L70.2,118.8L71.1,118.5L73.7,118.3L74.4,118.1L75.8,117.9L78.0,117.4L78.5,117.2L81.0,116.4L81.4,116.2L82.3,116.0L83.8,115.4L84.8,115.1L86.1,114.4L87.8,113.8L89.0,113.1L90.3,112.5L91.5,111.7L93.0,111.0L94.0,110.4L94.6,109.8L96.4,108.7L98.1,107.2L99.7,106.1L101.4,104.3L102.0,103.9L105.7,99.8L108.5,96.4L110.2,94.0L111.2,92.0L112.1,90.8L112.2,90.3L112.8,89.4L113.9,87.0L114.0,86.5L114.8,85.1L114.9,84.6L115.2,84.0L115.9,82.0L116.5,80.5L117.4,77.3L117.6,74.9L118.0,73.3L118.1,71.9L118.4,70.6L118.5,66.8L118.7,65.9L118.6,60.2L118.3,58.3L118.3,56.8L118.0,55.9L117.3,51.8L116.7,49.7L116.5,48.7L115.8,46.7L115.3,44.8L114.9,44.1L114.9,43.8L114.5,43.2L114.3,42.5L113.7,41.4L113.4,40.3L111.2,36.3L110.8,35.8L110.3,34.7L110.0,34.4L109.9,33.9L109.5,33.5L108.6,32.0L106.5,29.3L105.0,27.8L103.4,25.8L100.7,23.2L98.0,20.8L96.3,19.5L95.0,18.8L94.2,18.1L92.9,17.4L91.9,16.5L91.1,16.3L90.0,15.5L88.9,15.1L86.0,13.5L80.0,11.3L76.2,10.6L75.3,10.3L73.6,10.2L73.3,10.0L72.3,9.9L70.3,9.5L65.4,9.2L61.2,9.2L60.3,9.4Z M63.5,83.9L63.8,84.3L63.8,90.7L63.7,93.7L63.8,99.7L63.5,103.2L63.6,111.8L63.4,112.7L63.0,113.0L61.4,113.0L59.9,112.9L57.8,112.5L55.7,112.3L54.8,112.1L53.5,111.9L53.0,111.6L50.1,111.0L49.6,110.8L48.9,110.7L47.3,110.1L45.8,109.4L44.1,108.9L42.1,107.8L41.6,107.4L41.6,107.1L42.1,106.5L42.4,106.5L46.5,108.4L53.1,110.6L57.4,111.2L58.7,111.6L61.4,111.7L61.8,111.6L62.1,111.4L62.2,111.0L62.4,109.6L62.4,107.5L62.5,106.4L62.5,105.0L62.3,104.6L62.3,100.0L62.1,99.4L61.7,99.0L60.8,98.8L60.4,98.6L57.4,98.4L56.5,98.0L54.7,97.5L53.7,97.5L52.4,97.1L52.2,96.9L50.2,96.2L48.0,95.0L47.0,94.4L46.9,94.0L47.2,93.5L47.5,93.5L50.6,94.9L51.5,95.1L53.5,95.9L55.4,96.4L55.7,96.6L57.6,96.9L57.8,97.1L60.4,97.4L61.8,97.2L62.2,96.7L62.4,95.9L62.3,93.3L62.5,84.3L62.9,83.9Z M80.6,72.9L81.0,73.0L82.1,73.6L82.9,74.0L86.1,76.0L86.6,76.2L91.3,79.2L92.4,79.8L94.8,81.3L95.1,81.4L96.4,82.3L96.7,82.4L97.2,82.8L99.0,83.8L99.6,84.3L103.5,86.5L105.5,87.9L105.9,88.4L105.8,89.0L105.2,90.3L104.8,90.7L103.3,93.2L102.0,94.6L100.9,96.2L99.7,97.5L97.1,100.2L96.5,100.5L95.4,101.6L94.9,101.9L93.7,103.1L92.9,103.5L91.3,104.8L90.0,105.4L89.5,105.4L89.0,104.8L88.4,104.0L88.6,103.5L91.6,101.2L91.7,101.2L93.2,100.1L95.3,98.4L98.0,95.8L98.9,94.4L99.9,93.3L100.4,92.4L100.6,92.3L102.1,90.2L102.2,89.6L102.0,89.2L100.9,88.2L99.3,87.4L98.3,86.7L96.8,85.9L96.4,85.5L96.0,85.4L95.8,85.2L95.2,84.9L93.7,83.8L92.7,83.5L90.7,86.3L88.0,89.4L85.4,91.6L84.9,91.9L84.2,92.5L83.9,92.6L82.9,93.4L81.4,94.2L80.9,94.1L79.9,92.7L80.0,92.3L81.6,91.0L84.3,89.2L86.7,86.8L88.2,85.1L89.7,83.2L90.1,82.4L90.0,81.8L89.4,81.3L87.2,80.0L84.4,78.2L84.1,77.9L83.5,77.6L82.8,77.0L81.4,76.3L81.1,76.0L79.9,75.3L79.6,74.9L79.6,74.7L80.3,73.2Z M44.1,75.3L40.6,77.7L36.9,79.6L35.2,80.9L34.7,81.0L33.1,82.0L31.7,82.6L31.5,82.8L29.5,83.9L29.0,84.3L28.5,84.4L26.3,85.6L26.1,85.9L25.6,86.0L24.8,86.7L24.5,86.8L22.3,88.0L21.7,88.0L20.8,87.1L20.2,85.9L20.1,85.4L19.3,84.0L19.3,83.5L18.9,83.0L18.8,82.5L18.5,82.2L18.3,81.2L17.5,79.2L16.5,75.5L16.0,72.7L15.9,72.3L15.5,69.8L15.5,67.7L15.9,67.6L16.0,67.8L16.3,70.6L16.5,71.3L16.6,72.4L17.2,75.1L17.2,75.7L17.3,75.9L18.0,78.5L18.6,80.1L18.9,81.3L19.2,81.7L20.2,84.5L20.7,85.2L21.4,86.6L21.9,87.1L22.8,87.0L23.1,86.8L23.6,86.6L24.5,86.0L25.1,85.9L26.1,85.4L27.1,84.6L27.5,84.5L28.5,83.8L29.1,83.6L29.6,83.1L30.5,82.7L31.1,82.2L32.2,81.7L32.8,81.3L33.2,80.8L33.2,80.1L32.1,77.8L31.3,75.3L31.0,74.9L30.7,73.7L30.5,72.0L30.2,71.4L29.7,68.9L29.5,66.0L29.7,65.7L30.0,65.8L30.0,66.0L30.0,66.9L30.7,70.4L30.7,71.0L30.9,71.3L31.0,72.8L31.3,73.4L32.5,76.9L32.7,77.2L33.4,79.2L34.3,80.0L35.1,80.0L35.6,79.6L36.9,79.1L37.9,78.3L38.5,78.2L39.0,77.8L39.9,77.4L41.2,76.6L42.0,76.3L43.7,75.2Z M64.6,53.0L66.9,53.6L67.6,54.0L68.5,54.3L70.0,55.4L71.2,56.6L72.2,57.8L73.2,59.6L73.9,62.3L74.0,63.6L73.9,66.1L73.5,67.8L72.3,70.4L71.7,71.1L70.0,72.8L68.8,73.6L66.6,74.6L65.9,74.7L64.5,75.1L61.5,75.0L59.5,74.5L57.4,73.6L55.9,72.6L54.1,70.8L53.0,68.5L52.7,68.3L52.3,67.1L52.2,65.8L51.9,65.0L52.1,62.3L52.6,60.5L53.6,58.2L54.8,56.6L56.6,55.0L58.0,54.1L58.8,53.9L59.1,53.6L60.6,53.2L63.6,52.9Z M112.4,61.4L111.9,61.9L110.7,62.1L109.2,62.1L108.8,61.7L108.4,58.9L108.4,58.2L108.1,57.0L107.4,53.1L106.8,51.3L106.6,50.3L106.1,48.8L105.4,47.2L105.2,46.6L104.4,45.1L104.4,44.7L104.1,44.5L104.0,44.1L103.5,43.7L102.3,43.9L101.8,44.1L101.7,44.4L101.0,44.7L100.7,45.0L99.4,45.5L98.4,46.2L97.0,46.9L96.0,47.5L95.7,48.0L95.7,48.5L96.8,51.2L97.5,53.1L97.7,54.4L98.0,54.9L98.4,56.8L98.6,58.4L98.8,59.4L99.1,62.8L99.0,63.4L98.8,63.6L96.7,63.9L95.5,63.9L95.0,63.5L94.9,61.2L94.6,60.1L94.6,59.1L94.1,57.1L94.1,56.7L93.9,56.2L93.5,54.4L93.0,53.0L92.5,52.0L92.3,51.1L91.8,50.5L91.4,50.3L90.9,50.3L89.9,50.7L89.1,51.3L88.6,51.4L87.7,52.0L86.5,52.6L85.4,53.4L85.0,53.5L82.8,54.8L81.2,55.5L80.7,55.5L80.3,55.1L79.2,53.0L79.2,52.5L80.0,51.8L80.9,51.4L81.5,51.0L83.9,49.8L88.0,47.4L89.4,46.7L89.7,46.4L90.2,46.3L90.4,46.0L95.5,43.2L96.6,42.4L97.2,42.2L98.8,41.1L99.8,40.7L100.5,40.1L101.0,39.9L102.8,38.8L103.5,38.6L104.5,37.9L104.9,37.9L105.8,38.8L107.8,42.4L108.2,43.3L108.5,44.3L109.2,45.8L109.3,46.3L109.6,46.9L110.3,49.2L110.8,50.3L111.2,52.7L112.0,55.5L112.5,60.3Z M36.6,23.6L37.0,23.6L38.2,25.1L39.1,25.9L40.1,27.5L41.6,29.5L41.6,29.8L39.6,31.5L39.0,31.8L36.9,33.6L36.4,33.9L35.2,35.2L34.6,36.0L33.4,36.9L33.3,37.2L32.6,37.8L31.8,39.0L31.7,39.4L31.7,40.0L32.6,40.7L33.4,40.7L35.1,39.0L35.8,38.1L39.0,35.0L40.3,33.9L40.8,33.6L41.5,33.0L43.1,31.9L43.5,31.9L44.0,32.3L46.8,35.9L48.2,37.9L48.0,38.4L46.7,39.3L45.6,40.3L44.5,41.1L42.0,43.6L41.2,44.5L40.9,45.1L41.0,45.7L41.6,46.3L42.8,46.9L47.7,50.4L48.1,50.5L48.6,51.1L48.4,51.8L46.9,54.0L45.9,56.1L45.0,57.5L44.6,57.5L43.7,57.0L43.3,56.9L42.0,56.1L41.6,56.1L41.3,55.7L41.0,55.7L40.1,55.0L38.5,54.2L36.2,52.7L35.6,52.5L34.1,51.4L31.3,50.0L28.8,48.4L28.5,48.3L27.4,47.6L27.0,47.3L26.0,46.8L25.7,46.5L24.5,45.8L23.5,45.1L23.2,45.0L20.7,43.6L20.2,42.9L20.2,42.6L20.8,41.1L23.1,37.2L23.7,36.4L23.8,36.1L24.5,35.2L26.6,32.4L30.0,28.8L30.4,28.6L32.9,26.2L35.8,24.0Z M85.2,20.1L85.5,20.4L85.5,20.6L83.8,24.7L83.1,25.6L82.3,25.5L80.6,24.5L78.9,24.0L77.5,23.3L76.2,23.1L73.9,22.3L72.3,22.1L71.5,21.9L71.0,21.9L70.1,21.5L68.5,21.4L67.7,21.5L67.3,21.8L66.9,22.5L66.9,25.2L66.8,26.6L67.1,26.9L68.6,27.0L69.3,27.3L70.5,27.4L71.8,27.9L73.8,28.3L76.0,29.1L76.3,29.1L76.8,29.4L78.1,29.8L80.4,30.9L80.8,31.4L80.8,31.8L78.8,36.6L78.5,36.9L78.2,36.9L76.9,36.2L76.2,36.0L75.8,35.7L75.3,35.6L73.9,34.9L73.1,34.7L71.9,34.3L68.5,33.5L66.9,33.5L66.6,34.0L66.4,35.6L66.4,38.1L66.1,41.0L66.1,43.7L65.9,44.6L65.6,44.8L63.8,44.6L60.9,44.6L60.6,44.3L60.4,43.5L60.7,28.4L60.6,15.6L60.8,15.3L61.3,15.1L66.5,15.2L67.2,15.4L68.5,15.4L69.1,15.5L70.6,15.6L76.1,16.5L76.6,16.8L77.4,16.9L78.3,17.3L79.0,17.4L82.1,18.7L83.2,19.0Z" fill="#000" fill-rule="evenodd"/>
</svg>