<svg xmlns="http://www.w3.org/2000/svg" viewBox="0 0 128 128" width="128" height="128">
  <path d="M59.6,9.3L56.2,9.7L55.3,9.9L54.3,10.0L53.6,10.2L52.7,10.3L51.6,10.7L50.8,10.8L47.4,11.8L46.1,12.4L45.6,12.7L44.5,12.9L40.2,14.9L34.9,18.0L31.6,20.4L29.9,21.9L29.6,22.0L29.0,22.7L26.8,24.6L23.3,28.3L21.5,30.8L21.0,31.4L19.3,34.0L19.0,34.3L18.6,35.1L18.1,35.7L17.5,36.9L16.3,38.9L14.0,44.2L13.6,45.5L13.2,46.2L12.3,49.1L12.0,50.4L11.9,51.4L11.4,53.0L10.6,57.5L10.3,63.6L10.3,66.7L10.5,67.5L10.5,69.2L10.8,71.0L10.8,72.0L11.0,73.3L12.4,79.2L12.5,79.4L13.3,82.2L13.8,83.2L14.4,85.0L15.9,88.3L16.1,88.8L16.7,90.0L17.0,90.7L18.1,92.5L18.6,93.7L19.4,94.6L19.5,95.0L20.7,96.5L21.6,97.9L22.2,98.5L24.0,100.8L26.1,103.1L30.0,106.7L34.3,110.0L39.1,112.9L44.4,115.5L47.8,116.7L50.8,117.5L52.3,117.8L53.9,118.3L57.8,118.9L59.7,119.0L60.6,119.1L68.7,119.0L74.7,118.2L75.9,117.8L76.6,117.7L79.3,117.0L79.8,116.7L81.4,116.3L84.5,115.1L88.3,113.3L89.1,112.8L91.3,111.7L96.2,108.4L99.7,105.4L102.4,102.8L104.2,100.8L107.7,96.5L109.7,93.4L110.4,92.1L110.9,91.3L111.7,89.6L112.0,89.4L112.8,87.6L113.1,86.8L113.4,86.3L113.9,84.9L114.2,84.5L114.4,83.8L114.8,82.5L115.0,82.3L115.2,81.3L115.6,80.6L115.7,79.7L116.0,79.1L116.6,76.2L116.8,75.7L117.0,74.3L117.2,73.7L117.5,70.2L117.8,69.3L117.9,64.6L117.8,64.1L117.5,64.0L116.0,63.9L108.6,63.9L101.6,63.7L73.4,63.7L66.0,63.6L65.3,63.2L65.1,62.9L65.0,58.8L65.2,54.1L65.1,50.4L65.2,40.1L65.2,35.7L65.3,17.7L65.5,11.7L65.4,9.8L65.2,9.3L64.8,9.1L61.8,9.1Z" fill="#000" fill-rule="evenodd"/>
</svg>