<svg xmlns="http://www.w3.org/2000/svg" viewBox="0 0 128 128" width="128" height="128">
  <path d="M62.5,9.1L59.2,9.3L53.7,10.0L47.7,11.4L42.8,13.3L40.2,14.6L39.8,14.6L39.5,14.9L37.3,15.9L34.2,18.1L33.4,18.5L29.9,21.2L27.7,23.2L25.5,25.4L23.2,28.0L22.5,29.1L21.4,30.4L19.3,33.6L16.1,39.5L15.9,40.2L15.2,41.3L13.9,44.8L12.1,50.7L11.9,52.5L11.6,53.1L11.5,54.5L11.2,55.2L10.6,61.2L10.6,67.4L10.8,69.0L10.8,69.9L11.0,70.2L11.1,71.7L11.3,72.6L11.7,75.4L12.5,78.7L13.8,82.8L15.9,88.0L19.1,93.6L21.5,97.1L24.0,100.2L27.1,103.5L28.7,105.1L32.3,108.2L34.9,110.0L36.4,110.9L36.7,111.2L39.0,112.6L42.7,114.4L44.6,115.2L45.1,115.3L45.7,115.7L50.8,117.4L52.9,117.9L55.9,118.4L56.6,118.6L60.1,119.0L60.8,119.1L66.1,119.2L69.2,119.0L71.9,118.7L74.3,118.2L75.3,118.2L76.3,117.8L77.1,117.8L77.7,117.5L78.7,117.4L79.5,117.0L81.9,116.5L82.4,116.2L83.4,115.9L83.7,115.7L84.4,115.5L86.0,114.7L86.2,114.7L91.0,112.4L92.0,111.6L94.5,110.2L99.0,106.6L101.6,104.2L103.9,101.7L107.0,97.8L109.5,94.1L111.1,90.8L112.4,88.6L114.4,83.7L115.5,80.1L117.0,72.5L117.6,67.0L117.6,61.1L117.3,58.4L117.1,58.1L116.4,57.9L106.8,58.0L95.4,57.8L75.9,57.7L75.5,58.0L75.2,59.0L75.3,63.9L75.1,70.6L75.1,79.2L74.9,79.9L74.2,80.6L71.9,81.4L69.8,81.9L68.8,81.9L68.0,82.1L65.0,82.1L62.8,81.8L59.9,81.1L57.5,80.1L55.3,78.8L54.1,77.8L52.2,75.9L51.3,74.8L50.4,73.2L49.2,70.7L48.3,67.3L48.1,65.0L48.1,61.3L48.3,60.9L48.5,59.3L48.8,58.2L48.8,57.8L49.3,56.5L49.4,56.0L50.2,54.5L50.3,54.1L52.0,51.6L54.0,49.5L55.7,48.2L59.0,46.5L62.4,45.4L64.8,45.0L69.3,44.7L71.6,44.9L73.1,45.1L74.2,45.1L74.9,44.9L75.1,44.3L75.3,37.3L75.3,28.9L75.5,27.2L75.4,24.0L75.5,20.3L75.5,10.8L75.1,10.5L73.9,10.1L72.3,9.9L70.4,9.5L66.2,9.1Z" fill="#000" fill-rule="evenodd"/>
</svg>