<svg xmlns="http://www.w3.org/2000/svg" viewBox="0 0 128 128" width="128" height="128">
  <path d="M63.1,9.0L61.4,10.3L61.0,10.8L59.1,12.4L57.7,13.8L56.3,14.9L53.3,17.8L49.7,20.8L45.7,24.5L45.4,24.7L44.7,25.5L42.1,27.6L39.8,29.9L37.8,31.6L37.3,32.2L33.4,35.5L32.5,36.5L30.8,37.9L29.5,39.2L28.8,39.6L28.2,40.3L28.0,41.3L28.1,52.2L28.3,53.9L28.2,58.3L28.4,58.9L28.3,60.0L28.5,67.7L28.4,68.9L28.7,73.7L28.6,75.7L28.7,77.4L28.8,84.0L29.0,86.2L29.0,88.6L29.2,89.2L30.4,90.4L33.8,93.1L35.9,95.0L36.6,95.6L42.3,100.5L43.9,101.8L45.2,103.0L46.2,103.7L47.0,104.5L49.1,106.1L49.9,106.9L52.3,108.8L53.1,109.6L54.8,110.9L55.8,111.9L58.6,114.2L60.5,115.9L61.0,116.2L62.1,117.3L62.3,117.4L64.3,119.0L64.6,119.1L65.0,119.1L67.2,117.3L68.4,116.1L73.9,111.3L74.5,110.6L78.3,107.3L78.9,106.6L79.6,106.2L80.4,105.3L91.5,95.4L99.9,87.6L100.2,87.1L100.2,78.4L100.0,77.1L99.9,70.0L99.9,66.3L99.8,64.3L99.8,56.7L99.6,53.8L99.6,49.0L99.5,47.4L99.4,40.4L99.3,39.9L98.6,39.1L93.4,34.7L92.5,33.9L92.2,33.7L90.3,31.9L88.9,30.8L85.8,28.0L83.9,26.6L83.5,26.6L83.2,26.7L82.6,27.3L81.9,27.8L77.2,32.2L69.9,38.7L69.2,39.4L66.6,41.6L65.4,42.8L64.5,43.5L63.7,44.3L56.8,50.5L54.5,52.6L54.3,53.1L54.2,54.0L54.6,75.4L54.8,76.4L55.7,77.4L56.5,78.0L58.4,79.7L58.7,79.8L64.2,84.6L64.8,84.7L65.4,84.4L67.6,82.4L68.3,82.0L74.2,76.4L74.3,71.6L74.2,67.1L74.0,65.5L74.1,62.9L74.3,62.4L76.9,60.0L77.1,59.9L77.5,59.4L79.2,57.9L79.5,57.9L79.9,58.3L80.0,59.9L80.1,69.6L80.3,76.4L80.2,77.0L79.9,77.8L79.1,78.6L76.0,81.3L72.0,85.0L70.4,86.4L69.1,87.7L68.8,87.8L68.0,88.7L64.8,91.4L64.3,91.4L64.0,91.3L62.3,89.7L61.3,89.0L59.9,87.6L57.8,86.0L56.2,84.5L55.5,84.1L54.8,83.3L51.9,80.9L50.8,79.9L49.7,79.0L48.8,78.1L48.6,68.4L48.7,66.1L48.5,64.7L48.5,60.7L48.3,54.2L48.4,49.9L50.0,48.2L51.9,46.6L52.3,46.2L54.5,44.3L59.4,39.9L61.1,38.5L62.5,37.0L64.1,35.7L65.8,34.1L66.3,33.8L66.8,33.2L76.7,24.4L78.6,22.5L78.6,21.9L77.8,21.0L73.8,17.8L70.5,14.8L69.8,14.4L68.4,13.0L64.6,9.8L63.5,9.0Z" fill="#000" fill-rule="evenodd"/>
</svg>