<svg xmlns="http://www.w3.org/2000/svg" viewBox="0 0 128 128" width="128" height="128">
  <path d="M66.0,9.2L65.8,9.3L65.4,9.7L64.7,12.5L62.8,16.7L61.1,19.3L58.8,22.1L56.0,24.7L53.1,26.7L47.2,29.9L45.6,31.0L45.2,31.1L44.6,31.6L43.3,32.4L39.9,35.0L38.0,36.6L34.3,40.4L34.2,40.7L32.9,42.0L30.6,45.1L29.1,47.5L28.8,48.0L28.5,48.4L26.2,52.6L25.3,55.1L24.8,56.0L24.8,56.4L23.9,58.5L23.9,59.2L23.7,59.4L23.1,62.0L22.8,62.9L22.2,65.9L22.0,67.7L21.8,68.5L21.8,69.9L21.6,71.1L21.6,75.7L21.8,78.8L22.0,79.8L22.2,81.8L22.5,82.9L22.8,84.6L23.4,87.1L25.1,91.9L27.4,96.6L29.1,99.2L29.6,100.2L32.4,103.8L35.0,106.5L37.9,109.1L40.5,111.1L40.9,111.2L41.6,111.8L41.8,111.8L42.6,112.5L43.0,112.6L43.4,113.1L44.2,113.4L44.7,113.8L46.7,114.7L47.1,115.0L49.2,115.8L49.9,116.2L51.6,116.7L52.0,116.9L53.0,117.1L54.0,117.5L57.8,118.4L58.8,118.5L60.9,118.9L67.7,119.2L72.3,118.8L76.2,118.0L77.6,117.5L78.5,117.3L78.9,117.1L81.1,116.5L85.0,114.8L85.4,114.7L88.1,113.2L92.0,110.6L94.6,108.4L96.6,106.3L98.4,104.1L100.9,100.5L103.0,96.6L104.6,92.6L106.1,86.7L106.5,82.9L106.7,78.1L106.4,74.6L105.5,70.7L105.2,70.0L105.2,69.7L104.7,68.1L104.4,67.5L103.5,64.9L102.8,63.6L101.0,60.5L99.9,59.0L97.4,56.0L94.2,53.1L93.9,53.0L93.3,52.3L91.4,51.1L90.9,50.8L90.0,50.1L88.5,49.4L88.2,49.2L85.2,47.8L84.4,47.6L83.5,47.2L83.2,47.2L82.6,46.9L81.8,46.7L81.3,46.5L78.4,45.9L77.2,45.8L75.4,45.5L71.5,45.4L67.5,45.8L66.9,45.4L66.8,40.1L66.9,37.6L66.8,36.7L66.7,34.5L66.8,32.1L66.5,19.7L66.6,16.5L66.4,15.7L66.4,9.9Z M65.4,46.9L66.3,47.0L66.6,47.5L66.8,72.7L67.1,72.9L67.5,72.5L68.4,70.9L69.2,70.1L70.6,69.3L71.5,69.0L73.9,68.8L76.3,69.4L78.1,70.1L79.7,71.2L81.3,72.8L81.9,73.7L82.6,74.9L83.4,77.2L83.6,78.2L83.6,81.0L83.4,82.3L83.1,83.4L83.0,84.3L82.6,85.0L82.4,85.8L81.9,86.7L81.7,87.0L81.6,87.4L80.6,89.0L79.1,90.8L76.3,93.3L73.6,94.8L71.0,95.7L69.2,96.1L66.7,96.3L65.1,96.3L63.2,96.0L62.6,96.0L58.8,94.8L55.3,93.3L53.9,92.3L52.0,90.9L49.2,88.0L48.0,86.4L46.6,83.9L45.6,81.6L45.6,81.0L45.2,80.5L44.6,78.2L44.6,77.4L44.3,75.7L44.5,70.6L45.2,66.8L46.1,64.0L47.1,61.6L47.8,60.6L48.3,59.4L49.4,57.9L50.2,56.9L50.7,56.1L52.7,54.0L54.1,52.8L54.5,52.4L56.0,51.3L56.9,50.6L60.5,48.5L62.3,47.8Z" fill="#000" fill-rule="evenodd"/>
</svg>