<svg xmlns="http://www.w3.org/2000/svg" viewBox="0 0 128 128" width="128" height="128">
  <path d="M62.4,9.1L62.0,9.5L61.6,10.8L60.1,14.4L60.1,14.8L59.4,16.2L58.9,17.9L58.5,18.6L58.4,19.3L57.7,20.8L57.4,21.7L57.1,22.1L56.2,24.9L55.8,25.6L55.2,27.4L54.9,28.0L54.1,30.4L53.1,32.5L51.9,36.3L50.8,38.6L50.6,39.6L49.9,41.1L49.6,42.1L47.5,47.4L46.2,51.2L46.0,51.5L45.4,53.3L44.7,54.7L44.5,55.7L43.9,57.0L43.7,57.9L43.0,59.4L42.7,60.3L42.3,61.1L40.8,65.5L40.1,67.0L39.3,69.4L38.6,71.0L38.1,72.8L37.7,73.3L37.4,74.7L36.6,76.5L35.2,81.3L35.0,83.0L34.8,83.8L34.6,89.0L35.0,92.6L35.5,94.8L36.3,97.8L37.0,99.5L37.4,99.9L38.1,101.8L38.6,102.6L39.2,103.9L40.4,105.5L40.5,105.9L41.0,106.4L42.1,108.0L44.8,110.9L46.8,112.6L50.7,115.3L55.3,117.4L58.0,118.3L58.4,118.3L59.8,118.7L61.3,118.8L61.7,119.0L62.6,119.0L63.3,119.2L67.2,119.2L67.9,119.0L68.8,119.0L72.4,118.3L75.8,117.1L76.7,116.6L77.3,116.4L78.4,115.7L78.9,115.6L81.5,113.9L83.9,111.9L85.7,110.1L87.9,107.4L88.2,106.8L89.1,105.7L89.7,104.5L89.9,104.2L91.3,101.3L92.9,96.7L93.4,94.2L93.6,91.7L93.5,91.5L93.1,91.1L92.6,91.0L81.2,91.0L79.1,91.1L78.6,91.2L78.2,91.6L77.3,94.4L76.6,96.0L75.3,97.8L73.8,99.4L72.5,100.5L70.8,101.5L68.8,102.3L66.7,102.7L65.3,102.8L62.6,102.7L60.7,102.2L58.7,101.4L55.8,99.5L53.9,97.5L52.9,96.2L52.7,95.6L52.1,94.7L51.6,93.7L50.7,91.1L50.6,89.6L50.4,89.1L50.4,86.9L50.7,84.5L51.7,81.3L52.4,79.8L52.5,79.1L52.8,78.7L53.4,76.8L53.7,76.3L54.0,75.1L54.6,73.6L54.6,73.4L54.9,72.9L55.1,72.2L55.7,70.7L56.3,68.7L57.2,66.8L57.3,66.3L58.1,64.2L58.1,63.9L58.8,62.4L59.0,61.7L60.8,56.8L61.5,55.1L61.5,54.7L61.9,53.9L62.1,53.2L62.7,51.8L62.9,51.2L63.3,50.7L63.6,50.7L63.9,51.0L64.6,52.4L64.7,53.0L65.8,55.1L66.1,56.4L67.2,58.8L67.2,59.0L67.9,60.3L68.2,61.3L68.7,62.3L69.0,63.3L69.7,64.7L70.1,65.9L70.9,67.5L71.1,68.4L71.6,69.2L72.1,70.7L72.4,71.0L72.4,71.2L73.2,73.2L73.4,73.8L73.9,74.8L74.1,75.4L76.2,80.2L76.6,81.3L77.8,84.1L77.9,84.6L78.2,85.2L79.1,85.4L92.0,85.5L93.1,85.3L93.4,84.9L93.4,84.3L92.7,80.7L91.7,77.7L91.0,76.3L90.9,75.8L89.1,71.9L88.9,71.2L88.4,70.1L86.2,64.6L85.7,63.8L85.6,63.1L85.1,62.4L83.8,58.9L82.9,57.2L82.6,56.1L81.9,54.7L81.9,54.2L81.5,53.7L80.4,50.7L80.1,50.4L80.1,50.0L79.7,49.3L79.6,48.8L79.3,48.3L79.3,48.1L78.0,45.3L77.9,44.6L77.6,44.2L74.9,37.5L73.9,35.5L73.5,34.1L72.3,31.4L71.8,30.0L71.5,29.6L71.0,28.2L70.8,27.9L70.7,27.3L69.3,24.4L69.2,23.8L68.5,22.3L68.5,22.1L67.7,20.6L67.1,18.9L66.8,18.4L66.6,17.8L64.2,12.3L63.7,11.0L63.2,10.0L63.1,9.6L62.7,9.1Z" fill="#000" fill-rule="evenodd"/>
</svg>