<svg xmlns="http://www.w3.org/2000/svg" viewBox="0 0 128 128" width="128" height="128">
  <path d="M63.4,9.3L63.2,9.4L63.0,11.3L62.8,11.7L62.5,12.9L61.6,15.6L61.4,16.4L59.5,20.2L58.4,22.1L55.2,26.8L54.2,28.0L54.0,28.3L51.6,31.1L51.3,31.6L48.2,34.9L47.8,35.4L47.5,35.6L43.8,39.4L38.6,44.1L38.0,44.4L37.3,45.2L36.5,45.8L32.6,49.7L32.0,50.6L31.8,50.8L29.5,53.7L28.4,55.7L28.2,55.9L28.0,56.6L26.8,58.6L25.6,61.3L24.0,66.1L23.8,67.3L23.2,69.9L23.0,71.9L22.8,73.0L22.7,78.6L23.0,82.6L24.0,87.6L25.6,92.7L26.8,95.3L28.3,98.1L30.9,102.1L33.4,105.1L37.0,108.8L37.6,109.2L38.8,110.3L42.7,113.0L46.9,115.2L47.8,115.5L48.1,115.7L50.4,116.7L50.9,116.7L52.8,117.5L54.1,117.7L54.7,117.9L55.9,118.1L57.7,118.6L59.0,118.7L59.8,118.9L63.2,119.1L67.7,119.1L73.1,118.4L74.2,118.0L75.6,117.8L75.9,117.6L78.3,117.0L82.2,115.4L85.9,113.5L89.2,111.3L91.5,109.4L94.2,106.8L96.0,104.8L98.8,101.1L100.8,97.7L102.5,93.8L103.5,91.1L104.5,87.5L104.5,86.9L104.8,85.8L104.8,85.3L105.2,83.1L105.5,78.3L105.3,77.7L105.0,77.4L103.6,76.9L101.0,76.3L98.7,75.5L97.9,75.4L96.9,75.0L94.6,74.5L94.2,74.3L92.4,73.7L90.5,73.3L88.5,72.5L88.1,72.5L85.8,71.9L85.3,71.7L84.0,71.4L83.2,71.1L82.7,71.2L82.6,71.4L82.6,72.0L83.0,73.5L83.4,76.1L83.4,79.2L83.2,80.2L83.1,81.2L82.6,83.5L81.4,86.1L80.2,88.3L79.3,89.5L76.9,92.0L74.7,93.7L72.5,94.9L70.6,95.7L69.2,96.0L69.0,96.2L66.9,96.6L64.4,96.7L61.8,96.6L58.6,95.9L58.4,95.8L56.2,95.0L52.9,93.3L51.2,91.9L48.5,89.2L46.7,86.7L45.5,84.3L44.9,82.6L44.3,80.5L44.3,79.9L44.1,79.1L43.9,77.8L43.9,75.3L44.1,73.7L44.5,71.6L45.2,69.3L46.3,67.0L48.0,64.4L50.7,61.5L53.2,59.7L55.7,58.4L59.0,57.3L60.3,57.1L60.9,56.9L62.9,56.6L64.6,56.6L67.5,57.0L70.2,57.8L70.8,57.9L74.4,59.1L75.2,59.3L75.9,59.6L78.1,60.1L79.0,60.5L79.8,60.6L80.4,60.9L81.9,61.4L82.6,61.5L83.7,62.0L85.7,62.4L88.5,63.5L92.3,64.5L95.7,65.7L96.6,65.9L97.2,66.2L97.7,66.3L99.8,67.1L102.2,67.7L102.6,67.9L103.9,68.0L104.1,67.8L104.0,66.9L103.6,65.9L103.1,63.9L101.8,60.5L100.8,58.4L100.0,57.1L100.0,56.7L99.7,56.4L98.9,55.0L98.1,53.8L97.8,53.2L95.1,49.7L93.8,48.3L91.9,46.3L85.2,40.5L76.6,32.0L72.1,26.7L71.3,25.4L70.0,23.8L69.4,22.7L68.7,21.7L67.7,19.8L67.4,19.5L66.0,16.8L64.8,13.5L63.7,9.3Z" fill="#000" fill-rule="evenodd"/>
</svg>