<svg xmlns="http://www.w3.org/2000/svg" viewBox="0 0 128 128" width="128" height="128">
  <path d="M31.6,110.3L29.6,110.2L29.3,110.5L30.9,110.7L31.1,110.9L31.1,111.2L30.8,111.7L30.7,112.6L30.0,113.8L29.7,114.6L29.8,114.8L30.0,114.8L30.2,114.6L30.3,114.2L30.7,113.6L30.7,113.0L31.0,112.8L31.2,111.8L31.6,111.2Z M27.1,110.0L26.3,110.0L25.8,110.2L25.3,110.8L25.3,111.2L25.2,111.6L25.3,114.2L25.7,114.9L26.5,115.1L27.3,115.0L27.9,114.3L28.0,114.0L28.0,111.1L27.7,110.3Z M26.8,110.4L27.3,110.6L27.5,110.8L27.7,111.4L27.6,113.8L27.4,114.2L27.1,114.5L26.3,114.7L26.1,114.6L25.6,114.0L25.5,113.8L25.6,111.5L25.7,111.0L26.1,110.5Z M22.3,110.0L22.0,110.2L21.6,110.8L21.4,112.6L21.5,114.4L21.7,114.8L22.2,115.1L23.2,115.1L23.7,114.9L24.2,114.4L24.1,112.5L23.6,112.0L22.1,111.9L21.9,111.7L21.9,111.1L22.1,110.7L22.7,110.4L23.4,110.6L23.9,111.1L24.2,111.1L24.2,110.5L23.8,110.2L23.4,110.0Z M23.1,112.4L23.8,113.0L23.8,114.0L23.1,114.7L22.3,114.6L21.8,114.0L21.9,113.0L22.4,112.5Z M21.8,61.0L21.8,62.1L22.0,63.8L22.6,65.4L23.5,67.5L24.3,68.7L25.2,69.7L27.1,71.5L27.9,72.0L28.3,72.4L30.7,73.9L31.8,74.4L34.6,76.2L35.6,77.2L36.2,78.0L36.7,79.1L36.7,80.2L36.3,81.4L35.8,82.7L35.5,82.9L35.0,84.4L34.9,85.8L35.3,86.9L35.9,87.5L37.3,88.6L39.7,89.6L43.4,90.3L48.0,90.7L49.3,91.1L50.7,91.9L51.1,92.4L51.7,93.3L51.8,94.0L51.8,96.6L52.0,98.4L52.4,99.6L52.9,100.5L54.4,101.6L56.0,102.3L56.5,102.6L58.8,103.5L59.4,103.5L59.8,103.8L60.4,104.0L61.6,104.6L62.2,105.3L62.6,106.1L62.8,107.5L63.0,118.0L63.1,118.8L63.5,119.1L63.9,119.2L64.8,119.0L65.3,119.1L65.8,119.1L66.4,118.5L66.5,117.0L66.1,114.0L66.1,112.6L66.0,111.5L66.0,108.9L66.1,107.1L66.4,106.4L67.0,105.3L67.9,104.4L68.6,104.0L69.7,103.6L70.9,103.5L71.4,103.2L72.3,103.1L73.1,102.7L73.4,102.7L74.0,102.3L74.3,102.2L75.1,101.5L75.6,100.8L76.2,99.4L76.3,95.9L76.8,95.1L77.9,94.1L79.1,93.7L81.1,93.7L82.7,94.0L84.6,94.0L85.7,93.8L87.0,93.2L88.2,91.8L88.6,90.8L88.6,85.6L88.8,84.6L89.6,82.8L90.3,82.0L91.5,81.1L95.5,79.1L97.7,77.8L99.6,76.5L101.3,75.1L103.3,73.0L104.4,71.6L104.9,70.7L105.2,70.4L105.5,69.7L105.7,68.8L106.0,68.2L106.4,66.3L106.4,65.0L106.2,63.8L106.2,63.2L105.7,61.4L104.9,60.1L103.7,58.8L102.3,58.0L100.6,57.6L99.5,57.6L98.0,58.0L96.9,58.8L96.4,59.3L95.7,60.2L95.4,60.9L94.8,62.7L94.7,64.0L94.4,64.8L94.3,66.4L93.9,68.1L92.6,72.2L91.1,75.1L89.2,78.0L86.8,80.6L84.9,82.1L80.9,84.9L78.0,86.2L76.2,86.7L76.1,86.9L73.4,87.6L69.2,88.3L67.5,88.5L63.2,88.5L59.5,88.2L55.8,87.4L55.1,87.1L54.4,87.0L53.1,86.4L52.2,86.2L49.6,85.0L49.3,85.0L45.9,83.0L42.2,80.1L40.4,78.2L38.7,76.3L38.6,75.9L38.2,75.5L37.3,74.2L37.1,73.6L36.1,72.2L35.2,70.4L35.0,69.6L34.7,69.2L34.3,67.8L33.9,66.9L32.9,63.0L32.4,59.3L32.4,55.3L31.9,54.7L27.8,54.7L26.1,55.1L24.9,55.7L24.3,56.1L22.9,57.6L22.1,59.3Z M94.8,32.6L94.1,32.0L92.1,31.2L90.3,31.3L88.9,31.8L87.3,33.3L86.2,34.7L85.2,36.7L84.2,38.4L83.7,39.0L82.2,40.2L81.2,40.7L80.5,40.9L79.6,40.9L78.4,40.5L74.2,37.7L71.8,36.5L69.0,35.8L66.2,35.4L64.0,35.4L62.2,35.7L58.7,36.5L57.7,37.0L57.0,37.2L55.2,38.1L52.4,40.3L51.3,41.4L49.9,43.2L47.8,46.8L46.4,50.7L46.0,52.8L45.8,56.2L46.0,60.8L46.4,62.0L46.5,63.5L47.4,66.4L47.8,67.1L47.8,67.4L48.6,69.1L50.1,71.4L51.1,72.5L52.4,73.8L53.6,74.8L57.2,76.8L58.0,77.2L59.7,77.7L61.2,78.0L61.4,78.2L64.0,78.6L68.1,78.6L70.4,78.2L72.6,77.5L74.4,76.8L76.5,75.5L78.1,74.2L79.8,72.3L80.7,70.9L81.6,69.1L81.8,68.2L82.1,67.5L82.1,67.1L82.5,65.9L82.5,65.2L82.7,64.1L82.8,61.8L82.4,61.3L80.9,61.2L70.0,61.2L67.2,61.1L66.5,60.9L66.1,60.5L66.0,59.9L66.2,51.8L66.5,51.5L67.1,51.4L91.5,51.4L93.8,51.0L94.6,50.7L95.6,50.0L96.4,49.2L97.0,48.1L97.3,47.1L97.3,45.5L96.9,44.2L96.4,43.3L96.2,43.1L95.9,42.3L95.6,41.8L95.3,40.5L95.3,39.2L95.6,37.8L95.8,35.1L95.5,33.9Z M54.6,50.3L54.9,50.4L54.7,50.7L54.6,50.7L54.4,50.4Z M79.9,16.0L78.3,13.2L76.8,11.6L74.7,10.0L73.6,9.5L72.2,9.1L69.6,9.2L69.0,9.3L67.5,10.2L65.8,11.8L65.0,12.7L62.7,16.1L61.3,17.5L59.5,18.4L58.7,18.6L57.8,18.6L56.9,18.3L55.8,17.9L54.9,17.2L53.3,16.5L52.5,15.9L51.0,15.4L49.3,15.2L47.1,15.8L45.9,16.5L44.9,17.6L44.2,18.9L43.9,19.8L43.8,22.3L44.4,25.3L44.4,27.4L44.2,28.2L43.3,29.3L42.8,29.6L42.0,29.7L40.6,29.6L39.8,29.1L39.2,28.9L38.5,28.4L36.5,27.3L35.1,26.8L33.6,26.8L32.8,27.0L31.5,27.4L30.3,28.2L29.1,29.6L28.6,30.5L28.2,31.8L28.0,34.6L28.2,36.9L29.3,40.2L30.5,42.1L31.8,43.4L32.3,43.8L33.3,44.2L34.2,44.2L34.7,43.9L35.5,43.1L36.5,41.3L36.7,41.1L37.1,40.2L39.4,36.7L40.8,35.2L44.0,32.2L45.5,31.2L47.0,30.0L50.3,28.2L50.5,28.2L51.2,27.8L52.0,27.6L52.9,27.1L56.5,26.1L59.7,25.5L62.4,25.2L64.5,25.1L69.1,25.3L70.0,25.5L71.2,25.6L72.3,25.9L73.2,26.0L74.3,26.3L75.2,26.5L77.4,27.3L81.4,29.2L81.7,29.0L81.7,22.0L81.1,19.1Z" fill="#000" fill-rule="evenodd"/>
</svg>