<svg xmlns="http://www.w3.org/2000/svg" viewBox="0 0 128 128" width="128" height="128">
  <path d="M43.7,19.7L43.0,20.3L42.3,20.6L40.4,22.0L36.2,25.4L31.5,30.1L28.0,34.5L24.6,39.9L23.3,42.4L23.2,42.8L22.7,43.7L20.6,49.6L20.5,50.4L20.1,51.5L20.1,51.9L19.6,53.4L19.3,55.5L19.1,56.4L18.9,59.1L18.7,59.6L18.5,61.5L18.5,67.5L19.2,73.7L19.3,74.0L20.5,79.4L22.1,84.2L22.9,85.9L23.5,87.8L24.8,90.4L25.2,90.9L25.6,91.8L26.5,92.8L27.2,94.2L29.4,97.2L33.6,101.8L37.4,105.2L41.1,108.1L46.3,111.5L50.4,113.5L54.6,115.3L55.8,115.5L56.9,116.0L57.7,116.1L60.0,116.9L64.0,117.7L65.2,117.7L66.1,118.0L67.1,118.0L68.0,118.3L69.7,118.5L71.2,118.5L75.5,118.9L81.9,119.0L93.0,118.8L94.5,118.5L97.7,118.5L104.7,117.8L108.5,117.3L109.2,117.0L109.5,116.6L109.7,115.9L109.7,65.3L109.5,62.2L109.6,55.3L109.3,54.8L108.9,54.8L108.4,55.2L107.1,57.1L106.7,58.0L106.4,59.9L106.5,62.1L107.0,64.2L107.0,64.6L106.7,64.9L106.4,65.0L105.9,64.6L105.4,62.9L104.6,61.4L102.5,59.4L101.7,58.9L101.3,58.9L100.9,59.1L100.3,60.3L99.7,62.4L99.7,66.5L100.3,68.3L100.9,69.6L101.9,70.8L103.3,73.3L103.6,74.3L103.5,75.1L103.2,75.7L102.4,76.4L101.2,76.5L100.6,76.2L99.9,75.7L99.4,75.2L97.1,69.8L96.8,69.4L95.9,67.9L94.3,66.1L92.7,65.0L92.1,64.7L91.5,64.7L90.7,65.3L90.1,65.4L88.3,64.6L86.6,64.1L84.3,63.8L82.9,63.8L81.9,64.0L81.1,64.5L80.7,66.9L80.8,69.1L81.3,71.7L81.9,73.7L82.4,74.7L84.2,76.9L86.1,78.6L90.2,80.9L91.8,81.6L92.2,81.9L93.8,82.5L94.2,82.9L95.7,83.6L96.4,84.0L97.6,85.1L98.2,86.5L98.3,87.7L98.2,88.3L97.7,89.1L97.0,89.7L96.2,90.2L95.0,90.3L93.4,89.7L92.7,89.3L90.6,87.2L85.6,81.6L83.1,79.7L81.1,78.6L78.5,77.9L75.8,77.7L73.3,77.9L71.5,78.4L69.6,79.1L69.1,79.7L69.1,81.3L70.0,84.4L71.5,87.3L73.6,90.0L73.6,90.3L72.8,91.6L73.4,92.6L75.8,94.9L76.5,95.2L76.8,95.6L78.7,96.4L79.1,96.7L81.8,97.6L89.1,98.9L92.0,99.7L93.1,100.5L93.8,101.1L94.5,102.2L94.6,102.9L94.6,104.0L94.4,104.8L94.0,105.3L93.2,106.1L92.2,106.7L91.3,106.9L90.7,106.9L89.1,106.4L86.8,105.1L80.6,100.3L79.2,99.6L78.9,99.3L78.3,99.1L77.7,98.7L75.5,97.8L72.1,97.2L69.9,97.2L66.2,98.1L63.3,99.2L60.3,100.9L58.8,102.1L58.6,103.0L59.5,105.2L61.6,108.1L63.2,109.7L65.6,111.5L65.7,111.9L65.6,112.6L65.5,112.9L65.6,113.8L67.1,115.0L70.3,116.5L70.3,116.8L70.0,117.0L69.3,117.0L65.9,116.6L65.1,116.3L63.3,116.1L63.0,115.9L58.5,114.9L55.3,113.8L53.3,113.0L52.7,112.9L51.1,112.0L46.9,110.1L46.2,109.5L45.0,108.9L40.5,105.6L36.5,102.3L32.8,98.6L28.5,93.0L26.7,90.2L26.5,89.6L25.2,87.3L23.6,83.4L23.4,82.5L23.1,82.0L22.9,81.0L22.3,79.4L22.0,78.0L21.4,76.0L20.4,70.2L20.1,66.0L20.2,62.2L20.6,59.1L20.6,57.5L20.9,56.2L21.1,54.7L21.5,53.7L21.6,52.4L22.6,48.8L24.1,44.7L26.3,40.4L27.9,37.7L28.9,36.3L29.1,35.9L32.9,31.0L35.0,28.7L36.7,27.3L38.5,25.5L39.2,25.2L39.8,24.5L42.5,22.5L45.2,20.8L45.5,20.5L46.0,20.3L46.3,20.0L47.2,19.7L49.3,18.4L51.0,17.8L53.5,16.5L56.2,15.6L57.0,15.4L58.6,14.7L59.6,14.5L60.8,14.1L61.9,13.9L62.6,13.5L63.2,13.5L64.5,13.1L68.2,12.3L69.0,12.3L70.0,12.0L72.0,11.8L73.0,11.6L77.3,11.3L78.1,11.1L88.7,11.1L89.7,11.3L94.0,11.6L95.3,11.8L98.9,12.2L99.7,12.5L101.0,12.4L101.3,12.0L101.3,11.5L101.0,11.1L100.6,10.9L99.0,10.5L94.4,10.0L92.2,9.9L90.0,9.5L86.4,9.5L84.9,9.3L78.1,9.5L69.3,10.4L62.6,11.8L62.4,11.9L61.3,12.1L59.4,12.8L57.1,13.4L56.5,13.8L55.4,14.1L55.1,14.3L52.2,15.4L50.5,16.3L50.2,16.3L49.1,16.9L48.6,17.0Z" fill="#000" fill-rule="evenodd"/>
</svg>