<svg xmlns="http://www.w3.org/2000/svg" viewBox="0 0 128 128" width="128" height="128">
  <path d="M20.3,9.2L20.1,9.5L19.9,10.0L20.0,12.4L19.8,21.3L19.9,24.9L19.8,29.5L20.1,58.4L20.0,63.3L20.2,67.3L20.0,78.7L20.3,107.3L20.2,118.0L20.3,118.5L20.8,118.8L49.3,118.8L51.7,119.0L88.4,119.0L93.2,118.8L93.5,118.4L93.2,97.9L93.3,94.9L93.1,91.2L93.2,79.1L93.5,78.7L107.8,78.8L108.3,78.7L108.3,78.2L108.0,78.0L96.2,78.1L94.8,78.0L94.2,77.8L92.1,78.0L82.0,78.0L76.9,77.8L76.5,78.2L76.5,78.4L76.9,78.7L77.6,78.8L91.7,78.7L92.2,78.8L92.4,79.0L92.6,79.4L92.6,81.0L92.4,82.9L92.2,83.5L92.2,84.6L91.2,89.1L90.8,90.2L90.7,90.9L89.3,94.5L87.5,98.3L87.1,98.6L86.7,99.6L84.3,103.5L83.8,104.0L82.3,106.0L81.5,106.8L81.5,107.0L78.0,110.3L75.1,112.5L74.7,112.6L73.1,113.7L68.7,116.0L65.8,117.0L65.1,117.0L63.9,117.4L58.8,118.1L54.6,118.0L52.5,117.6L51.3,117.5L50.6,117.4L50.2,117.1L49.3,117.0L46.9,116.1L43.1,114.2L39.6,111.8L37.8,110.2L35.4,107.9L32.3,104.3L30.1,101.1L29.2,99.5L28.9,99.1L28.6,98.5L27.9,97.5L27.3,96.2L27.2,96.1L25.7,93.0L25.3,91.5L23.9,88.7L23.9,88.1L23.5,87.1L23.0,84.9L22.7,84.4L21.9,80.6L21.4,78.9L21.2,76.9L20.7,73.4L20.7,71.5L20.5,70.2L20.5,66.9L20.7,65.9L20.8,60.8L21.1,60.1L21.2,58.2L22.1,53.3L22.8,50.9L23.1,48.9L24.3,45.0L24.9,43.5L25.1,42.4L26.4,38.7L27.6,35.9L28.1,35.1L28.1,34.9L28.9,32.9L29.2,32.5L31.3,28.4L32.1,27.2L32.5,26.4L32.9,26.0L33.1,25.4L36.0,21.6L39.0,18.4L42.4,15.5L44.6,14.0L47.4,12.4L51.0,11.0L53.2,10.6L57.1,10.1L58.9,10.2L62.0,10.6L65.4,11.6L65.5,11.8L67.6,12.6L67.8,12.9L70.7,14.5L72.2,15.6L74.6,17.6L77.1,20.3L79.9,23.9L80.6,25.1L81.2,25.9L81.5,26.7L82.3,27.6L82.6,28.5L84.0,30.9L85.7,34.6L86.2,36.3L86.8,37.4L87.9,40.6L88.2,41.2L89.4,45.2L90.8,50.9L91.0,52.2L91.2,52.9L91.5,54.6L91.6,54.9L91.8,56.4L92.1,57.4L92.2,58.4L92.6,59.0L92.8,58.1L92.7,46.6L92.5,35.3L92.6,34.1L92.4,31.8L92.3,10.7L92.1,10.1L91.6,9.8L78.2,9.8L76.0,9.7L65.5,9.7L55.9,9.4L51.2,9.5L46.0,9.3L35.4,9.3L29.2,9.2Z" fill="#000" fill-rule="evenodd"/>
</svg>