<svg xmlns="http://www.w3.org/2000/svg" viewBox="0 0 128 128" width="128" height="128">
  <path d="M61.5,96.7L61.5,96.9L62.1,97.1L64.0,97.3L67.4,97.2L68.4,97.0L68.2,96.7Z M109.0,74.9L108.5,74.7L82.0,75.0L65.2,74.9L64.8,75.0L64.5,75.3L64.3,77.5L64.5,77.9L65.1,78.1L86.4,78.2L87.4,78.3L87.8,78.6L87.8,79.4L87.5,80.5L86.6,82.8L85.9,84.0L85.3,85.3L83.0,88.6L80.1,91.6L79.4,92.0L77.6,93.5L74.6,95.2L74.1,95.7L74.3,95.9L76.8,96.0L108.7,96.0L109.4,96.2L109.8,96.6L110.0,97.2L110.3,101.3L110.4,108.4L110.6,110.1L110.6,114.9L110.2,115.5L109.2,115.8L96.7,115.9L94.3,115.7L93.7,115.2L93.2,114.3L93.0,113.3L91.8,110.7L91.6,109.9L90.6,107.3L90.2,106.8L89.7,106.8L85.6,110.8L82.3,113.2L78.2,115.4L77.6,115.5L74.6,116.8L72.1,117.4L72.3,117.7L77.8,117.9L102.1,117.8L110.7,118.0L118.2,117.9L118.7,117.6L118.8,115.5L118.5,108.4L118.6,106.9L118.2,97.3L118.1,97.0L117.5,96.5L110.8,96.4L110.2,96.2L109.8,95.7L109.5,85.1L109.3,83.4L109.4,81.5L109.2,79.2L109.2,75.5Z M13.7,54.0L11.1,54.1L10.7,54.2L10.2,54.9L10.6,73.2L10.8,74.4L11.4,74.8L14.3,74.8L14.7,74.6L14.7,73.1L14.5,72.2L14.4,69.3L14.2,68.5L14.1,66.7L14.2,59.4L14.7,55.6L14.7,54.6L14.4,54.2Z M59.5,31.9L67.2,32.0L68.7,31.8L68.4,31.5L66.7,31.2L63.5,31.1L60.2,31.4L59.6,31.6Z M117.3,53.6L116.7,53.3L106.7,53.3L102.9,53.5L93.2,53.4L89.2,53.6L78.7,53.5L69.2,53.7L40.5,53.7L40.1,53.2L40.1,52.4L40.5,50.0L41.4,47.3L43.6,42.9L44.9,41.0L45.5,40.3L45.8,39.7L47.2,38.3L47.6,37.7L50.2,35.3L51.2,34.5L51.9,34.2L52.7,33.5L53.2,33.3L53.5,33.0L53.5,32.8L53.1,32.5L45.4,32.4L42.2,32.6L39.6,32.5L34.7,32.7L23.1,32.7L22.7,32.4L22.6,32.1L25.3,27.8L26.9,25.8L29.5,23.0L33.7,19.3L37.4,16.8L42.5,14.2L48.0,12.2L49.7,11.8L50.3,11.5L50.4,11.1L10.5,11.4L9.9,11.6L9.6,12.0L9.5,12.6L9.8,26.8L9.7,28.1L9.8,31.2L10.0,32.1L10.5,32.4L11.8,32.5L21.4,32.5L22.1,33.0L22.1,33.3L19.7,37.9L19.1,39.7L18.4,41.0L16.4,47.8L16.1,49.7L15.6,51.5L15.5,53.3L15.8,53.5L16.5,53.7L23.3,53.5L38.8,53.5L39.3,53.7L39.7,54.1L39.7,55.1L39.5,55.6L39.4,57.9L39.2,58.3L39.2,61.1L39.0,63.6L39.2,65.3L39.2,68.0L40.1,73.8L40.1,74.6L39.7,74.9L39.0,75.1L37.8,75.0L31.2,75.2L29.5,75.0L26.0,75.2L16.8,75.2L16.0,75.3L15.5,75.7L16.4,79.9L18.6,86.5L20.6,91.2L22.7,94.9L23.5,95.9L23.5,96.2L23.3,96.4L22.4,96.5L11.8,96.6L11.2,97.0L11.1,109.0L11.4,117.3L11.8,117.6L14.8,117.7L52.5,117.7L52.8,117.4L47.9,115.9L47.2,115.5L46.2,115.3L44.2,114.4L40.1,112.3L35.9,109.6L32.5,106.8L28.9,103.3L24.2,97.5L24.0,96.6L24.3,96.3L26.6,96.1L38.7,96.1L40.8,95.9L45.4,96.0L46.0,95.9L46.9,95.9L47.4,96.0L55.3,95.9L55.5,95.6L55.3,95.4L53.5,94.4L51.8,93.3L49.2,91.2L47.1,89.0L45.2,86.7L43.2,83.4L42.0,81.0L41.9,80.4L40.9,77.8L40.4,75.4L41.0,74.8L41.9,74.7L54.8,74.6L62.1,74.6L63.1,74.6L63.4,74.4L63.6,70.4L63.4,66.9L63.3,59.8L63.8,59.1L67.1,58.8L70.2,58.9L85.6,58.7L94.1,58.7L103.1,58.6L108.6,58.7L109.0,58.9L109.2,59.3L109.3,60.4L109.4,65.9L109.6,68.2L109.5,73.3L109.7,74.1L110.0,74.4L110.8,74.5L117.1,74.3L117.4,74.2L117.8,73.6L117.9,70.2L117.7,68.2L117.5,54.1Z M46.4,95.3L46.7,95.6L46.3,95.5Z M116.3,10.4L114.0,10.3L102.6,10.7L76.3,10.9L75.6,11.1L75.7,11.5L77.4,11.9L80.7,12.9L84.4,14.4L85.7,15.1L86.0,15.4L86.6,15.6L90.7,18.1L91.4,18.8L91.9,19.1L93.3,20.2L97.5,24.1L99.0,25.8L100.8,28.2L102.7,31.2L102.7,31.9L102.3,32.1L91.1,32.3L79.1,32.3L77.7,32.5L76.9,33.2L75.8,33.0L75.4,32.5L74.4,32.6L74.4,32.9L74.6,33.1L75.5,33.3L76.1,33.6L76.9,33.6L77.6,34.7L81.5,38.7L83.0,40.9L84.1,42.9L84.7,44.5L85.3,47.1L85.8,47.7L89.2,47.9L90.5,47.7L98.3,47.7L107.4,47.4L107.8,47.1L107.9,45.6L107.7,44.0L106.9,40.4L105.6,36.6L104.5,34.5L103.6,33.0L103.6,32.2L103.9,31.9L104.7,31.8L114.6,31.6L116.4,31.4L116.8,31.0L117.0,30.5L116.8,17.7L116.9,13.9L116.8,10.9Z" fill="#000" fill-rule="evenodd"/>
</svg>