<svg xmlns="http://www.w3.org/2000/svg" viewBox="0 0 128 128" width="128" height="128">
  <path d="M52.3,82.3L51.4,83.4L50.7,84.5L50.1,85.3L49.6,86.4L48.9,88.4L48.4,90.6L48.0,94.0L47.8,99.5L47.9,101.4L48.2,102.8L48.4,104.7L48.6,105.2L48.9,106.7L49.1,107.1L49.4,108.3L50.2,110.0L51.2,111.8L53.4,114.2L54.2,114.9L55.2,115.4L56.0,116.1L57.2,116.8L59.0,117.3L59.4,117.6L61.6,118.2L63.2,118.4L64.2,118.9L65.2,118.6L67.5,118.6L70.5,118.4L72.3,118.1L74.3,117.4L75.6,117.2L77.4,116.5L78.2,116.0L79.0,115.8L82.1,113.8L84.9,111.3L87.0,108.3L88.6,105.0L89.3,102.9L89.4,101.9L89.6,101.0L89.8,96.9L89.7,95.6L89.2,92.9L88.1,89.7L86.7,87.0L85.7,85.7L84.3,84.3L81.5,82.3L80.1,81.6L78.2,81.0L74.6,80.2L73.7,80.2L72.8,80.0L70.5,79.9L69.1,79.7L63.3,79.5L58.4,79.6L57.5,79.8L56.6,79.9L54.4,80.7Z M88.1,15.9L87.0,15.9L85.9,16.5L85.0,17.5L84.1,19.2L84.2,19.8L85.8,22.9L86.1,23.8L87.2,26.1L88.2,29.9L88.6,33.1L88.6,35.5L88.0,39.1L87.3,41.3L86.6,43.2L85.4,45.5L82.7,49.0L81.0,50.7L78.2,53.0L77.7,53.2L76.6,53.9L73.7,55.3L70.0,56.5L69.4,56.5L67.5,56.9L65.3,57.1L63.5,57.1L60.6,56.7L59.8,56.7L59.3,56.4L58.1,56.3L57.7,56.0L55.3,55.3L51.7,53.3L49.1,51.1L46.6,48.8L45.7,47.8L45.6,47.3L44.7,46.4L44.0,46.3L42.8,47.4L41.7,48.7L41.1,49.6L40.2,51.8L39.8,54.0L39.8,55.4L40.0,56.2L40.2,57.4L40.8,59.0L41.3,59.7L41.6,60.4L43.4,62.2L45.1,63.3L45.4,63.6L46.4,64.1L46.9,64.2L48.4,64.9L52.0,65.8L53.8,65.9L55.4,66.3L57.1,66.3L64.2,66.2L64.9,66.0L70.3,66.0L74.6,66.2L75.9,66.4L77.0,66.4L78.3,66.7L79.9,66.9L83.3,67.8L84.9,68.5L85.7,68.8L86.1,69.1L87.0,69.5L89.1,71.0L91.0,72.7L93.5,75.7L94.6,77.5L95.1,78.8L95.8,80.0L96.9,83.5L97.4,86.1L97.4,87.0L97.6,87.7L97.5,90.6L97.3,91.1L97.3,92.1L97.2,92.7L97.1,93.9L96.7,95.2L96.4,96.7L95.5,99.3L93.9,102.5L93.7,103.1L93.5,103.3L93.2,104.0L91.7,106.2L91.7,106.4L90.4,107.9L90.2,108.5L86.3,112.6L84.7,114.0L83.2,115.0L83.2,115.4L83.6,115.4L84.1,115.1L85.6,114.6L86.6,114.1L88.3,113.4L91.1,111.9L91.5,111.6L93.0,110.9L98.0,107.3L101.5,104.3L103.9,101.9L106.6,98.8L107.8,97.2L108.9,96.0L108.9,95.6L110.3,93.8L112.5,90.2L114.3,86.3L115.1,84.2L116.0,82.2L117.0,78.8L117.9,75.0L118.8,70.0L119.0,67.2L119.1,63.2L118.8,58.3L118.6,57.9L118.7,56.8L118.4,54.4L117.4,49.7L115.7,44.3L114.9,42.8L114.3,41.1L112.5,37.4L111.2,35.2L110.8,34.7L110.7,34.4L110.3,33.9L108.0,30.5L105.3,27.2L100.8,22.8L97.6,20.2L97.2,20.2L97.2,21.7L96.8,23.1L96.1,23.9L95.4,24.4L94.4,24.8L93.0,24.8L91.9,24.6L90.8,24.0L89.8,23.0L89.1,21.6L88.9,20.3L88.9,19.6L89.2,18.3L89.3,17.1L88.8,16.2Z M72.9,9.8L73.0,10.2L74.0,10.7L74.2,10.7L74.4,11.0L77.5,12.8L79.7,14.6L82.1,17.0L82.6,17.7L82.9,18.0L83.3,18.0L84.0,17.1L85.4,15.7L86.4,15.1L87.7,14.8L87.7,14.4L87.5,14.2L86.9,14.0L85.6,13.3L82.9,12.2L82.2,12.1L82.0,11.9L81.3,11.7L80.9,11.5L75.5,10.1L73.7,9.8Z M57.0,9.4L56.3,9.4L55.4,9.7L52.1,10.2L47.1,11.5L47.0,11.7L44.8,12.3L44.5,12.6L43.6,12.8L41.9,13.6L41.7,13.6L38.8,15.0L33.9,17.9L32.1,19.1L31.3,19.8L30.8,20.1L26.8,23.5L23.2,27.1L22.3,28.3L20.9,29.9L20.5,30.6L19.1,32.4L18.3,33.6L17.6,34.5L15.2,38.7L13.6,42.3L11.9,46.7L10.5,51.9L9.6,56.8L9.5,58.6L9.2,59.7L9.2,61.9L9.2,67.4L9.5,71.0L9.9,73.7L10.4,75.7L10.5,76.8L12.1,82.3L12.8,83.7L12.9,84.4L13.6,85.7L14.1,87.3L15.3,89.6L15.6,90.0L15.8,90.6L17.8,94.0L21.2,98.7L24.9,102.8L28.6,106.2L31.5,108.5L31.9,108.7L32.3,109.1L34.9,110.8L36.2,111.4L36.8,111.9L42.1,114.5L46.6,116.3L51.1,117.6L51.6,117.6L52.4,117.8L55.7,118.4L55.7,118.2L55.4,117.8L54.4,117.6L52.9,116.8L51.6,116.4L51.1,116.0L49.7,115.4L49.3,115.1L47.6,114.3L47.0,113.7L45.8,113.1L43.3,111.0L42.1,109.8L41.0,108.4L39.8,107.1L39.5,106.5L39.0,106.0L38.0,104.2L37.0,102.3L36.2,99.2L36.2,95.0L36.4,94.3L36.6,93.2L37.6,90.7L39.0,88.5L41.5,86.0L42.0,85.7L43.1,84.7L48.5,81.9L51.4,80.8L51.6,80.4L48.0,79.5L44.3,78.1L42.3,77.1L41.2,76.2L40.2,75.3L38.6,73.3L37.1,70.1L36.5,68.5L36.4,68.0L36.2,67.5L35.7,64.9L35.7,63.9L35.5,63.3L35.5,60.9L35.7,59.1L36.2,56.4L36.4,56.0L37.1,53.6L38.0,51.8L38.6,50.7L39.3,50.0L39.9,49.0L43.6,45.1L43.6,44.6L42.5,42.0L41.2,37.5L40.8,34.7L40.9,30.2L41.1,29.8L41.7,26.5L42.3,24.9L42.3,24.7L43.1,22.9L43.7,22.0L44.4,20.7L45.2,19.6L48.2,16.0L50.9,13.5L51.9,13.0L52.8,12.2L55.7,10.6L56.5,10.3L57.3,9.8L57.2,9.5Z M64.4,9.2L62.5,9.5L61.2,9.9L58.8,11.2L57.8,12.0L56.3,13.5L55.1,15.7L54.0,19.2L53.3,23.9L53.2,27.5L53.0,28.3L53.0,34.5L53.2,35.1L53.0,38.1L53.3,40.3L53.4,43.2L53.6,44.1L53.7,45.9L54.1,47.6L54.2,48.6L55.1,50.9L55.9,52.4L57.2,53.9L58.7,54.9L59.7,55.4L61.8,55.9L64.2,56.2L66.2,56.2L67.4,56.0L69.3,55.4L71.0,54.5L73.0,52.6L74.4,50.5L75.6,46.7L75.6,46.1L76.0,45.0L76.0,44.2L76.2,43.1L76.2,42.1L76.5,40.3L76.5,39.3L76.7,38.6L76.7,36.7L76.9,35.9L76.9,32.8L76.9,27.7L76.3,21.0L75.8,18.0L74.8,15.2L73.6,13.0L71.4,11.0L69.4,10.0L67.1,9.4Z" fill="#000" fill-rule="evenodd"/>
</svg>