<svg xmlns="http://www.w3.org/2000/svg" viewBox="0 0 128 128" width="128" height="128">
  <path d="M26.9,9.4L26.7,9.7L26.6,10.3L26.9,70.1L26.7,92.1L26.8,99.0L27.0,101.8L26.9,115.8L27.0,118.8L27.4,119.0L56.2,119.0L64.2,119.1L86.3,119.1L90.3,119.0L96.6,119.0L100.8,119.1L101.2,119.0L101.5,118.5L101.6,112.0L101.2,87.7L101.2,74.7L101.0,64.3L101.0,47.9L100.7,45.7L101.0,42.8L101.0,38.9L100.9,20.0L101.0,18.0L100.7,9.8L100.2,9.4L93.2,9.2L58.1,9.1L39.4,9.4L27.2,9.3Z M67.4,17.9L69.4,18.8L70.2,19.3L70.5,19.7L70.7,20.6L70.5,21.6L69.9,22.9L69.5,24.2L68.6,25.7L68.3,26.6L66.9,28.7L65.7,29.9L64.3,30.7L62.6,31.2L60.9,31.4L60.3,31.6L58.2,31.9L56.9,32.2L56.5,32.4L55.8,32.6L52.7,34.3L51.4,35.3L48.1,38.9L47.1,40.6L47.0,41.3L47.2,41.8L48.2,42.6L49.0,42.8L53.1,42.8L54.8,43.0L66.4,43.0L69.1,42.9L70.4,42.7L71.6,42.2L72.7,41.2L73.2,41.3L73.9,42.1L74.8,44.0L74.8,44.5L75.5,46.1L75.9,48.1L76.1,49.6L76.0,52.7L75.7,54.3L75.3,55.5L73.5,59.2L73.2,59.5L73.0,59.9L71.5,61.6L69.1,63.6L66.4,64.9L65.0,65.4L64.3,65.4L64.1,65.8L64.5,66.0L65.8,65.8L66.4,65.6L67.9,65.4L70.3,64.5L72.2,63.4L73.6,62.3L75.4,60.6L76.5,59.3L78.1,56.4L78.7,55.2L79.3,53.3L79.6,51.9L79.7,50.3L79.7,47.5L79.6,46.2L78.6,42.8L77.7,40.6L77.0,39.7L75.6,36.8L75.4,36.0L75.4,34.0L76.4,31.0L78.9,25.0L79.4,24.6L79.8,24.4L81.0,24.4L83.0,25.4L83.2,25.5L83.2,25.9L82.4,26.4L81.5,27.2L80.9,28.5L80.9,28.7L80.6,29.2L78.8,34.0L78.8,35.6L79.1,36.9L80.6,39.4L81.8,42.0L82.3,44.4L82.6,45.3L83.0,49.4L82.6,53.6L81.4,57.2L80.1,59.8L78.8,61.8L76.5,64.2L76.2,64.2L75.2,65.2L73.7,66.2L72.0,67.3L70.3,68.0L66.8,69.1L65.7,69.1L64.1,69.5L61.2,69.5L60.5,69.9L59.5,70.8L58.7,72.2L57.8,74.4L57.7,75.0L57.7,75.9L58.0,76.4L58.7,77.0L59.3,77.3L60.9,77.6L70.7,77.6L80.2,77.4L81.8,77.7L84.1,78.5L85.9,79.6L86.4,80.1L88.0,82.2L88.5,83.0L89.2,84.6L89.7,86.6L89.7,89.8L89.3,91.7L88.4,94.0L87.4,95.7L86.4,96.9L84.9,98.2L82.9,99.5L81.5,100.2L79.2,100.9L77.1,101.4L69.9,101.9L60.1,101.9L58.3,101.8L56.4,101.8L51.9,101.1L49.6,100.6L45.7,99.3L43.1,98.1L42.9,97.8L41.5,97.1L39.2,95.1L37.8,93.2L37.3,92.0L36.7,89.9L36.6,86.7L36.8,85.0L37.4,83.4L37.8,82.6L39.3,80.9L39.7,80.6L41.0,79.5L43.3,78.2L43.9,78.0L44.4,78.0L44.6,78.1L44.6,78.5L44.1,79.2L43.6,80.4L43.4,81.3L43.4,82.8L43.9,84.8L44.6,86.0L46.2,87.8L48.0,89.0L48.8,89.2L49.9,89.8L51.1,90.1L51.6,90.4L53.6,90.6L54.5,90.9L57.5,91.2L60.9,91.2L61.9,91.4L72.7,91.4L74.8,91.2L77.3,90.6L78.8,89.9L79.6,89.1L79.8,88.7L79.7,88.2L79.3,87.6L78.9,87.5L74.8,87.3L70.3,87.5L69.0,87.5L68.4,87.6L61.7,87.7L57.3,87.5L54.0,87.0L52.0,86.3L49.4,84.7L48.3,83.7L47.6,82.7L47.2,82.0L46.6,80.4L46.6,78.6L46.7,77.9L47.3,76.6L47.4,75.6L49.2,71.9L49.9,70.1L50.3,69.5L50.7,67.8L50.7,66.6L50.0,65.4L48.0,63.7L46.1,61.6L44.4,59.2L42.7,55.2L41.9,51.9L41.7,48.0L41.8,45.8L42.5,42.5L43.6,39.9L45.5,36.6L47.3,34.5L49.8,32.1L51.0,31.2L52.8,30.2L54.5,29.5L56.4,29.0L57.3,28.9L58.1,28.6L59.6,28.6L60.9,28.2L61.9,28.2L62.9,27.9L63.7,27.4L64.7,26.1L66.7,21.7L67.1,20.1L67.1,18.9L66.9,18.6L66.9,18.0L67.1,17.9Z" fill="#000" fill-rule="evenodd"/>
</svg>