<svg xmlns="http://www.w3.org/2000/svg" viewBox="0 0 128 128" width="128" height="128">
  <path d="M63.3,19.7L60.1,20.1L59.5,20.3L58.5,20.5L58.1,20.8L57.0,21.0L56.8,21.2L56.1,21.3L55.0,21.7L52.5,23.1L52.0,23.6L50.2,24.9L47.7,27.4L47.5,27.8L46.2,29.5L46.0,30.0L45.1,31.4L44.5,32.8L43.8,35.3L43.7,36.5L43.5,37.2L43.5,37.9L43.3,38.5L43.2,41.5L43.4,42.2L43.5,44.1L43.7,44.8L43.7,45.3L44.4,46.9L44.4,47.2L44.7,47.8L44.9,48.5L45.3,49.3L45.4,49.7L46.9,52.3L47.6,53.0L48.3,54.1L50.2,56.1L51.0,56.6L51.8,57.4L52.8,58.0L53.9,58.4L54.5,59.0L55.0,59.0L55.5,59.5L56.2,59.7L56.9,59.8L57.5,60.2L58.7,60.5L59.3,60.5L60.9,60.9L64.5,61.2L66.1,61.1L66.6,60.9L67.4,60.9L68.7,60.7L69.1,60.5L70.2,60.3L71.3,59.9L71.8,59.6L72.9,59.3L75.2,58.0L77.1,56.7L79.1,54.8L81.3,52.1L82.4,50.4L83.5,48.0L84.0,46.5L84.2,45.3L84.5,44.2L84.7,43.1L84.9,39.6L84.5,36.6L84.1,34.8L82.7,31.3L82.3,30.8L81.8,29.7L81.4,29.3L81.0,28.5L79.9,27.3L79.4,26.6L78.4,25.6L76.1,23.6L74.5,22.6L71.7,21.2L68.1,20.2L66.6,20.1L65.7,19.8Z M75.0,57.2L74.3,57.9L73.8,58.0L73.3,58.4L72.4,58.5L71.8,59.0L69.9,59.5L69.6,59.8L67.4,60.3L62.4,60.5L61.3,60.3L60.3,60.3L59.4,59.8L58.5,59.8L57.8,59.6L57.4,59.2L56.2,59.0L55.6,58.8L52.7,56.8L52.7,56.4L53.1,55.6L53.7,54.0L54.0,53.6L54.2,53.2L56.2,50.6L58.6,48.1L58.8,48.0L60.2,46.6L61.3,45.8L62.5,45.5L64.0,44.4L64.9,44.0L65.7,43.9L66.2,43.6L66.8,43.6L67.6,44.3L67.9,45.9L68.4,46.7L68.4,47.2L68.7,47.6L68.9,48.4L69.3,49.0L69.9,50.6L71.2,52.1L72.3,54.0L73.8,55.7L75.1,56.7Z M66.7,37.9L67.1,38.5L67.2,42.4L66.8,42.8L65.0,43.3L63.6,44.0L62.8,44.1L62.4,44.0L60.2,40.9L60.3,40.4L61.1,39.5L61.2,39.1L62.0,38.0L62.2,37.5L62.6,37.1L63.1,37.0L63.9,37.3L64.9,37.4L65.6,37.8Z M45.3,35.1L45.8,34.8L46.2,34.8L46.7,35.1L47.6,34.9L48.6,35.2L49.0,35.4L50.0,35.4L51.2,36.2L52.0,36.2L52.5,36.4L53.6,37.2L54.5,37.8L55.2,37.8L56.2,38.4L58.6,40.8L59.9,41.8L61.8,43.9L61.8,44.3L61.6,44.6L60.5,45.3L59.3,46.4L58.5,47.1L58.1,47.2L57.7,47.7L57.0,47.9L56.9,48.2L56.3,48.7L56.2,49.0L55.1,50.3L54.8,51.0L53.1,52.9L52.5,54.5L52.1,54.8L52.1,55.3L51.8,55.8L51.4,55.8L51.1,55.3L50.6,55.2L46.8,51.0L46.3,50.3L46.3,49.4L45.2,47.9L44.9,46.1L44.5,45.7L44.7,44.7L44.4,44.6L44.2,44.0L44.2,43.0L44.0,42.2L44.1,41.0L43.9,40.5L44.1,37.7L44.4,37.3L44.2,36.6L44.6,36.0L44.8,35.2Z M109.6,11.2L107.9,10.2L107.3,10.1L106.1,9.6L104.3,9.2L101.2,9.2L99.9,9.5L97.8,10.3L96.8,10.8L95.5,12.3L95.1,13.3L95.0,14.2L95.2,15.5L95.6,16.5L96.4,17.3L97.2,17.9L98.7,18.6L100.5,19.0L102.0,19.0L103.2,18.8L105.0,18.2L105.6,17.8L105.9,17.8L106.1,18.0L106.0,18.8L105.2,20.3L104.0,21.6L102.5,22.2L101.8,22.2L99.9,21.5L98.9,20.9L97.2,20.3L96.5,19.8L90.6,17.8L89.9,17.7L89.2,17.3L86.3,16.6L85.8,16.4L84.6,16.2L83.7,15.9L82.4,15.7L81.3,15.4L76.9,14.6L76.1,14.6L75.0,14.3L70.5,13.9L66.4,13.7L61.3,13.7L58.7,13.9L57.9,14.1L55.6,14.1L52.7,14.5L51.8,14.7L49.4,15.0L48.9,15.3L47.4,15.4L46.8,15.7L45.4,15.9L44.4,16.2L43.2,16.4L42.7,16.6L39.9,17.3L39.1,17.7L37.9,17.9L33.5,19.4L31.5,20.3L30.1,20.7L27.0,22.2L25.4,23.4L24.9,23.5L23.1,24.8L20.0,27.8L18.6,29.7L17.2,32.2L16.2,34.7L15.7,36.6L15.4,39.0L15.4,42.1L15.8,44.7L16.4,46.8L18.2,50.6L20.1,53.3L21.8,55.0L25.0,57.4L29.9,59.8L31.9,60.5L32.1,60.8L32.1,61.1L31.4,61.7L30.9,61.9L26.4,65.0L23.3,67.6L21.0,69.9L18.2,73.4L16.9,75.9L16.0,78.4L15.7,80.1L15.7,81.8L16.0,83.1L16.7,84.8L18.2,86.7L20.0,88.2L22.5,89.5L25.0,90.2L28.0,90.5L28.3,90.8L28.1,91.1L26.9,91.4L26.2,91.9L25.9,91.9L24.5,92.6L23.0,93.5L22.6,93.6L20.7,95.0L19.3,96.1L17.8,97.6L17.1,98.5L16.7,99.5L16.0,101.6L16.0,103.9L16.3,105.2L16.9,106.7L17.5,107.8L18.2,108.6L19.9,110.2L22.1,111.9L23.8,112.7L24.0,113.0L24.3,113.0L25.0,113.4L25.4,113.5L27.1,114.4L28.1,114.6L28.8,115.0L29.4,115.1L29.7,115.3L31.6,115.9L32.3,116.0L36.1,117.1L37.9,117.4L38.6,117.6L39.7,117.7L41.8,118.3L47.4,118.9L52.2,119.0L59.2,118.9L64.4,118.3L65.2,118.0L67.0,117.8L69.2,117.4L70.2,117.0L72.1,116.8L72.4,116.6L76.5,115.7L79.2,114.9L79.9,114.5L82.2,113.9L82.8,113.5L84.3,113.1L85.1,112.6L86.1,112.4L87.9,111.6L88.3,111.3L89.1,111.0L93.6,108.6L98.2,105.5L102.0,102.1L103.4,100.4L104.2,99.6L107.5,95.1L107.7,94.6L109.0,92.6L110.5,89.5L111.4,86.7L111.7,85.5L112.0,84.7L112.8,81.3L113.0,79.0L112.9,76.4L112.7,75.2L111.9,72.8L111.1,71.6L110.5,70.5L108.8,68.9L107.2,67.7L105.1,66.6L103.9,66.5L102.9,66.0L77.0,65.8L77.6,65.5L78.4,65.4L78.7,65.2L80.2,65.1L81.3,64.7L82.2,64.6L83.2,64.3L84.3,64.1L85.1,63.8L86.0,63.7L86.8,63.4L87.8,63.2L88.2,62.9L93.2,61.4L99.5,58.8L102.8,57.0L106.2,54.4L106.5,54.0L107.7,52.8L109.3,50.5L110.5,48.4L111.2,46.5L111.8,44.3L112.3,41.4L112.3,38.5L112.0,37.5L111.9,36.4L111.2,33.6L109.8,30.5L108.1,27.9L106.7,26.3L104.6,24.3L104.6,24.1L104.9,23.7L106.1,23.4L108.5,21.7L110.4,19.7L111.4,17.8L111.7,16.6L111.7,14.9L111.3,13.5L111.0,12.8Z M98.6,94.7L98.3,97.1L97.4,98.9L96.4,100.5L94.9,102.0L93.7,103.1L91.7,104.5L89.0,106.0L88.7,106.3L87.3,106.9L87.0,107.1L86.3,107.3L85.8,107.7L85.3,107.7L83.4,108.6L82.7,108.7L77.3,110.5L76.8,110.5L76.2,110.8L74.3,111.1L74.1,111.3L73.0,111.5L71.5,111.7L70.9,112.0L68.9,112.2L67.6,112.6L65.5,112.7L64.9,112.9L57.5,113.4L53.7,113.4L47.4,113.0L45.8,112.6L44.6,112.6L43.1,112.1L42.0,112.0L39.9,111.5L34.2,109.6L33.0,109.1L30.7,107.8L29.4,106.8L28.2,105.7L27.3,104.2L26.9,102.9L26.9,102.3L27.5,99.5L29.1,97.1L30.9,95.4L32.2,94.5L33.3,93.9L33.7,93.5L35.7,92.5L39.1,91.4L42.8,90.8L46.5,90.6L56.2,90.6L59.0,90.4L65.7,90.5L78.8,90.2L92.9,90.2L95.0,90.7L96.4,91.4L97.4,92.4L98.0,93.1Z M32.7,64.6L33.0,64.0L34.6,62.5L35.2,62.1L35.9,62.1L38.5,62.9L39.8,63.2L40.0,63.4L41.0,63.7L42.1,63.9L42.6,64.1L44.0,64.3L45.0,64.6L47.2,65.0L47.5,65.2L50.2,65.6L50.8,66.0L49.7,66.2L46.2,66.3L34.8,66.3L34.1,66.2L33.1,65.7L32.8,65.2Z M60.9,18.4L65.9,18.3L69.6,18.9L70.0,19.1L71.2,19.4L72.6,20.1L73.3,20.3L75.2,21.3L77.3,22.7L80.1,25.2L82.0,27.4L83.0,28.9L83.4,29.8L84.7,31.9L86.0,37.0L86.2,40.7L85.9,44.7L85.5,45.8L85.4,46.9L84.9,47.8L84.9,48.3L84.5,48.9L84.2,50.1L82.3,53.3L80.4,55.6L77.9,58.0L74.8,60.0L73.3,60.8L73.0,60.8L71.0,61.6L70.1,61.8L69.3,62.1L67.6,62.4L66.8,62.7L61.3,62.7L59.1,62.3L57.9,61.9L56.8,61.7L56.1,61.3L54.5,60.8L53.1,59.9L52.5,59.7L49.4,57.6L46.7,54.8L44.7,52.1L42.8,48.3L42.1,46.2L41.5,43.0L41.4,39.1L41.6,37.2L42.1,34.7L42.7,32.8L44.0,29.9L46.1,26.8L49.1,23.6L51.7,21.7L53.1,21.0L53.7,20.5L57.6,19.1L58.7,18.9L59.3,18.6L60.6,18.5Z" fill="#000" fill-rule="evenodd"/>
</svg>