<svg xmlns="http://www.w3.org/2000/svg" viewBox="0 0 128 128" width="128" height="128">
  <path d="M95.2,9.6L94.1,9.2L92.8,9.2L92.0,9.5L91.2,10.0L90.7,10.6L90.0,11.7L90.0,12.9L89.9,13.4L86.4,16.5L85.5,17.1L84.5,18.2L82.8,19.2L82.1,19.2L81.7,18.9L81.2,18.7L81.0,18.5L79.7,17.8L79.5,17.8L78.9,17.5L78.5,17.4L78.1,17.1L77.8,17.1L76.8,16.6L76.0,16.5L75.5,16.8L74.4,16.7L73.1,15.9L72.7,15.5L72.0,15.2L70.4,15.0L68.7,14.6L65.0,14.4L61.1,14.5L56.0,15.3L55.6,15.5L54.6,15.7L54.2,15.9L53.2,16.0L52.7,16.4L51.3,16.7L48.8,17.8L47.3,18.7L46.0,19.2L45.5,19.7L44.4,20.3L42.6,21.5L40.2,23.6L37.5,26.7L35.5,29.9L34.7,31.4L34.6,31.8L34.1,32.8L33.6,34.0L32.4,38.1L32.4,38.8L32.2,40.1L32.2,43.8L32.8,47.9L33.8,51.2L35.1,53.8L35.3,54.0L36.4,56.0L39.1,59.4L40.3,60.8L42.1,62.4L44.7,64.3L45.4,64.6L46.4,65.3L48.8,66.5L52.7,68.0L53.9,68.3L54.2,68.5L54.2,68.7L54.0,69.0L52.8,69.5L51.3,70.6L49.5,72.4L48.8,73.4L48.1,75.4L47.9,76.2L47.9,77.2L48.4,79.0L49.2,80.6L50.4,81.9L51.2,82.5L53.1,83.7L53.7,83.8L54.1,84.1L54.9,84.4L55.2,84.6L56.4,85.0L59.9,85.8L61.3,85.8L61.9,86.0L64.2,86.2L71.2,86.5L72.0,86.7L73.6,86.9L75.7,87.3L76.7,87.4L78.3,87.9L79.3,88.0L79.6,88.2L80.6,88.3L81.7,88.8L82.3,88.9L83.5,89.4L84.0,89.5L84.3,89.8L85.0,89.9L88.9,91.7L91.0,93.0L92.1,93.9L92.6,94.2L94.6,96.2L95.6,97.7L96.4,99.4L96.7,101.2L96.5,103.1L95.8,105.0L94.6,106.7L93.2,108.0L90.8,109.7L88.9,110.7L88.5,110.8L88.3,111.0L87.8,111.1L87.2,111.5L87.0,111.5L84.0,112.7L82.9,113.0L82.8,113.1L81.7,113.4L81.2,113.6L79.2,114.1L77.3,114.3L76.0,114.6L74.6,114.7L73.7,114.9L70.4,115.2L68.8,115.4L63.7,115.5L60.3,115.4L59.5,115.2L54.9,114.9L53.4,114.6L51.6,114.5L50.8,114.2L49.5,114.1L48.3,113.7L47.5,113.6L45.6,112.9L44.8,112.7L43.3,112.0L41.4,111.4L38.4,109.9L35.6,108.0L33.8,106.2L32.8,104.9L32.0,103.3L31.6,101.7L31.6,99.9L32.1,98.4L33.0,96.6L34.2,95.1L36.0,93.6L38.4,91.9L40.7,90.9L41.3,90.5L41.9,90.3L43.4,89.5L47.7,88.1L48.3,87.6L48.5,87.0L48.5,86.0L48.4,85.6L47.5,84.9L47.1,84.8L46.4,84.8L41.3,86.4L41.1,86.6L38.4,87.6L35.9,89.0L33.8,90.4L32.7,91.3L30.3,93.7L28.8,95.8L28.1,97.3L27.6,99.3L27.5,101.7L27.7,103.1L28.3,104.8L28.9,106.0L29.7,107.2L31.2,109.0L33.0,110.5L34.1,111.3L34.8,111.9L37.3,113.3L39.7,114.3L40.0,114.5L41.5,115.0L42.5,115.5L44.5,116.0L45.1,116.3L49.6,117.6L50.9,117.7L52.0,118.1L53.6,118.2L54.4,118.4L56.9,118.6L58.3,118.8L60.6,118.8L61.7,119.1L64.5,119.1L69.5,119.0L71.0,118.8L71.9,118.6L74.1,118.5L75.3,118.2L77.0,118.1L77.7,117.8L79.7,117.5L84.4,116.3L85.9,115.6L86.4,115.6L87.9,115.0L88.6,114.6L89.1,114.5L89.5,114.2L89.9,114.1L93.1,112.4L93.9,111.8L94.5,111.5L96.0,110.2L98.4,107.7L98.5,107.4L99.5,106.1L100.0,105.2L100.4,103.7L100.7,101.4L100.6,99.3L99.7,96.9L98.9,95.4L97.2,93.4L97.1,93.2L95.4,91.6L93.1,89.9L90.1,88.3L87.1,86.9L86.0,86.6L85.7,86.4L82.8,85.4L80.3,84.8L79.9,84.5L78.2,84.3L76.3,83.8L74.5,83.7L73.1,83.3L67.0,82.8L62.0,82.6L59.0,82.1L56.0,81.1L53.8,79.8L52.6,78.5L52.0,77.0L52.0,75.0L52.9,73.4L54.4,72.2L56.2,71.3L59.1,70.4L61.0,70.2L62.1,69.9L64.9,69.7L66.7,69.4L68.5,69.4L69.2,69.1L71.1,68.9L71.7,68.7L72.9,68.5L73.3,68.3L74.5,68.0L77.9,66.7L81.0,65.1L84.5,62.9L86.6,61.2L88.7,59.0L90.2,57.2L90.8,56.1L91.4,55.4L92.4,53.6L93.9,50.4L94.6,48.0L95.0,45.5L95.2,45.2L95.3,44.0L95.3,40.0L95.0,36.8L94.6,35.0L93.8,32.6L92.8,30.6L92.1,29.4L91.9,28.9L91.6,28.6L90.9,27.4L89.0,24.9L86.0,21.8L85.9,21.4L88.8,18.7L91.7,16.1L92.5,15.7L94.3,15.6L95.3,15.0L96.2,13.9L96.5,13.0L96.6,11.9L96.0,10.5Z" fill="#000" fill-rule="evenodd"/>
</svg>