<svg xmlns="http://www.w3.org/2000/svg" viewBox="0 0 128 128" width="128" height="128">
  <path d="M89.8,9.6L88.8,9.6L87.7,9.9L86.2,10.0L85.1,10.4L84.7,10.4L83.1,10.9L82.8,11.1L82.3,11.2L81.2,11.8L80.3,12.4L79.2,13.0L77.9,14.1L77.5,14.2L76.9,14.1L74.5,12.4L71.5,10.8L71.3,10.8L70.3,10.4L68.9,9.9L66.5,9.3L64.5,9.1L60.8,9.1L59.2,9.3L55.7,10.2L52.7,11.5L50.6,12.6L48.1,14.5L47.2,15.5L46.6,15.9L46.2,16.3L46.2,16.4L45.7,17.0L45.0,17.8L43.1,20.6L42.4,21.8L41.4,24.2L40.5,27.0L39.9,30.4L39.9,35.2L40.5,39.0L41.3,41.4L42.4,44.0L44.0,46.8L45.3,48.5L46.6,49.8L46.8,50.2L46.8,50.4L46.4,50.9L43.2,53.6L41.2,55.9L40.7,56.9L40.2,58.7L40.1,60.7L40.5,62.2L41.1,63.7L42.7,65.8L44.5,67.1L46.1,67.8L46.3,68.1L47.2,68.3L47.4,68.5L47.5,68.8L45.5,70.1L44.8,70.4L43.8,71.1L42.3,72.0L40.0,73.8L38.9,75.2L38.1,76.7L37.9,77.5L37.5,79.5L37.7,90.4L37.7,101.4L37.8,105.0L38.1,107.1L38.3,108.0L39.2,109.5L40.0,110.8L41.4,112.1L44.2,114.3L47.5,116.0L48.2,116.1L48.7,116.5L49.6,116.7L49.7,116.9L51.4,117.4L52.4,117.6L52.6,117.7L56.5,118.6L62.8,119.1L66.7,119.1L68.8,118.7L69.7,118.7L72.6,118.3L73.9,117.9L75.0,117.7L75.5,117.5L76.2,117.4L78.2,116.6L79.2,116.4L80.4,115.8L83.1,114.7L84.2,114.0L85.2,113.6L86.7,112.5L88.1,111.2L89.5,109.4L90.2,108.0L90.6,106.8L90.7,105.4L90.7,95.3L90.5,89.3L90.5,79.7L90.2,76.4L89.7,74.3L89.1,73.1L88.1,71.7L87.2,70.8L85.9,69.9L83.9,69.0L82.2,68.4L81.4,68.4L80.5,68.1L80.0,68.1L78.4,67.7L76.6,67.5L75.6,67.2L73.4,67.0L69.6,66.2L68.8,66.2L63.4,65.3L62.1,65.2L61.0,64.9L59.2,64.7L56.6,64.2L55.4,64.1L50.7,63.1L48.4,62.0L47.3,60.7L47.0,59.7L47.0,58.1L47.7,56.4L48.6,55.3L49.7,54.3L50.7,53.6L51.3,53.6L54.6,55.1L55.3,55.3L55.7,55.5L58.7,56.2L60.9,56.6L63.6,56.6L66.2,56.2L70.0,55.3L70.5,55.0L71.9,54.5L73.7,53.6L75.3,52.5L78.1,50.3L80.0,48.2L82.3,44.9L82.9,43.6L83.2,43.2L83.3,42.8L84.1,41.1L85.1,37.8L85.5,34.4L85.4,30.0L84.8,26.6L83.7,23.2L82.4,20.4L81.6,19.3L81.4,18.6L81.5,18.4L82.2,17.8L84.7,16.4L87.2,15.7L89.6,15.6L90.0,15.4L90.2,15.1L90.2,10.0Z M85.0,91.3L84.9,103.1L84.7,104.9L84.3,106.1L83.4,107.3L82.1,108.4L79.8,109.9L76.9,111.1L73.6,112.1L69.4,113.0L67.7,113.2L65.5,113.2L64.7,113.4L59.7,113.4L58.1,113.1L56.4,112.9L52.0,111.7L49.9,110.8L49.6,110.6L48.8,110.3L47.7,109.7L46.3,108.7L44.8,107.3L44.0,105.6L43.6,103.6L43.4,100.5L43.4,94.5L43.5,93.6L43.8,93.1L44.7,93.2L45.0,93.6L45.4,93.6L47.0,94.5L47.7,94.7L49.8,95.7L51.3,96.1L52.9,96.7L54.2,96.9L54.4,97.1L56.3,97.6L60.5,98.0L64.3,98.1L70.1,97.6L73.6,96.9L74.2,96.5L74.8,96.5L77.1,95.6L77.7,95.2L78.2,95.1L79.5,94.3L80.0,94.2L81.9,93.0L84.3,91.0L84.7,91.0Z M43.9,79.9L44.0,79.0L44.8,77.4L45.6,76.5L47.4,74.9L49.1,74.0L49.3,73.7L50.1,73.4L51.4,72.6L51.8,72.5L52.2,72.2L52.6,72.1L53.3,71.8L53.5,71.8L54.8,71.1L56.2,70.7L58.5,70.7L60.7,71.1L62.2,71.2L64.0,71.6L68.3,72.1L69.6,72.4L71.1,72.5L71.9,72.8L73.4,72.9L73.7,73.1L75.8,73.3L79.8,74.2L81.4,74.7L82.2,75.3L83.2,76.2L84.0,77.8L84.3,79.2L84.2,81.0L83.8,82.4L83.1,84.0L82.5,84.7L81.4,86.0L79.3,87.5L78.2,88.1L77.8,88.2L77.4,88.5L76.2,89.1L75.9,89.1L75.3,89.5L74.2,89.9L73.6,89.9L73.2,90.2L71.7,90.6L68.9,91.2L67.9,91.3L67.5,91.4L64.4,91.7L60.5,91.7L55.1,91.0L53.3,90.5L52.3,90.0L50.7,89.5L48.8,88.6L46.9,87.3L44.9,85.2L44.7,84.5L44.4,84.2L44.0,82.7Z M61.6,15.2L64.4,15.2L68.3,16.1L68.6,16.3L69.2,16.4L71.1,17.4L73.9,19.4L75.5,21.1L76.8,22.8L78.1,25.3L79.1,28.0L79.6,31.0L79.6,33.9L79.2,36.7L78.3,39.6L77.4,41.4L76.7,42.5L76.5,43.0L74.0,45.9L72.1,47.4L70.8,48.2L67.8,49.6L65.4,50.2L63.6,50.4L61.3,50.4L60.5,50.2L59.8,50.2L58.5,49.9L58.1,49.7L56.3,49.2L54.8,48.5L52.2,46.6L50.5,45.1L49.6,44.0L47.9,41.4L46.6,38.3L46.4,37.3L46.2,36.8L45.9,34.5L45.8,32.6L45.9,31.5L45.9,30.2L46.8,26.7L48.3,23.6L49.5,22.1L49.9,21.3L52.2,19.1L55.1,17.1L57.7,16.0L58.3,15.9L59.4,15.6Z" fill="#000" fill-rule="evenodd"/>
</svg>