<svg xmlns="http://www.w3.org/2000/svg" viewBox="0 0 128 128" width="128" height="128">
  <path d="M77.5,68.5L76.9,68.8L76.5,69.9L76.7,73.7L76.7,88.2L77.0,103.1L77.2,103.7L77.8,104.0L79.6,104.1L82.7,103.9L85.4,103.2L88.6,101.7L90.5,100.4L92.5,98.6L94.4,96.2L96.0,93.3L97.1,89.6L97.4,87.0L97.4,85.4L97.1,82.6L96.0,78.9L94.6,76.4L92.6,73.8L90.7,72.0L89.3,71.0L86.4,69.5L85.8,69.4L84.8,68.9L82.9,68.5Z M117.8,68.1L117.3,67.9L114.8,67.9L113.6,68.1L111.9,68.0L105.6,68.2L99.3,68.2L98.8,68.6L98.9,69.0L99.9,70.2L101.2,72.2L102.8,75.4L103.9,78.5L104.0,79.2L104.4,80.5L104.5,81.8L105.1,84.1L105.0,88.1L104.8,90.0L104.1,92.7L103.9,93.3L103.7,94.4L103.4,94.9L103.2,95.8L102.7,97.2L102.4,97.5L101.5,99.3L100.9,100.2L100.8,100.5L99.0,102.8L96.1,105.9L94.1,107.4L91.8,108.7L91.4,109.1L87.9,110.7L84.3,111.6L81.8,112.0L77.8,112.1L77.4,112.4L77.2,112.9L77.2,117.9L77.6,118.6L78.0,118.8L82.7,118.7L93.6,118.9L102.3,118.9L105.6,118.7L117.3,118.8L117.8,118.6L118.5,118.1L118.6,117.2L118.6,97.4L118.4,86.6L118.5,79.5L118.3,68.9L118.2,68.5Z M67.0,26.4L62.1,27.5L59.5,28.4L58.6,28.6L53.0,30.8L45.3,34.9L42.9,36.7L41.6,37.4L37.3,40.8L36.7,41.5L35.7,42.2L33.9,43.9L31.7,46.4L30.7,47.3L30.2,48.1L27.7,51.0L26.4,52.9L24.6,55.2L24.4,55.6L23.5,56.7L22.9,57.6L22.6,58.4L20.3,62.2L20.2,62.7L19.4,64.4L19.3,65.7L19.6,66.8L22.4,71.8L28.2,79.9L31.2,83.2L33.8,85.8L37.2,88.9L41.8,92.4L42.4,92.7L42.5,92.9L46.2,95.2L48.5,96.3L49.8,97.2L51.8,98.0L53.6,98.9L57.2,100.2L57.9,100.5L59.9,101.2L60.3,101.2L61.4,101.6L64.4,102.3L65.3,102.7L66.6,102.8L67.5,103.0L68.5,103.0L68.8,102.7L68.9,102.3L68.6,79.6L68.7,74.5L68.6,69.5L68.4,68.9L67.8,68.7L64.8,68.6L54.3,68.7L50.8,68.9L46.2,68.9L44.1,69.1L38.7,69.1L37.1,69.3L35.5,69.2L32.1,69.4L27.3,69.4L26.5,68.9L26.3,67.3L26.4,62.1L26.6,61.5L26.9,61.2L27.6,61.0L28.0,61.1L43.9,60.7L50.1,60.7L52.1,60.5L58.1,60.6L59.2,60.4L67.2,60.3L67.8,60.2L68.5,59.6L68.6,57.5L68.4,50.2L68.5,48.3L68.3,44.8L68.3,27.7L68.2,26.7L67.7,26.4Z M77.2,25.1L76.9,25.2L76.4,25.7L76.3,26.5L76.5,58.2L76.7,59.4L77.1,59.9L78.2,60.1L81.0,60.0L83.7,59.5L84.8,59.1L85.7,58.9L87.1,58.2L89.2,57.0L90.2,56.2L92.9,53.5L94.0,51.9L94.2,51.4L94.9,50.3L96.0,47.4L96.6,43.5L96.5,40.4L95.9,37.5L94.4,34.0L92.4,31.0L90.2,28.9L88.2,27.4L86.3,26.5L84.8,25.9L82.1,25.3L80.4,25.2L80.0,25.1Z M67.7,9.8L67.3,9.6L60.0,9.6L56.4,9.8L52.1,9.7L50.0,9.9L47.5,9.8L42.6,10.0L30.6,10.1L27.4,10.3L21.1,10.1L20.2,10.3L15.3,10.3L14.0,10.5L11.9,10.5L11.2,10.7L10.8,11.2L10.4,19.9L10.4,24.6L10.2,26.1L10.3,31.6L10.1,32.1L9.8,45.7L9.9,64.7L9.7,70.6L9.8,79.5L9.6,93.9L9.8,117.6L10.3,118.6L12.4,118.8L16.3,118.7L17.8,118.9L50.3,118.6L68.3,118.7L68.8,118.4L69.0,117.9L69.1,116.5L69.0,112.6L68.9,112.0L68.5,111.5L67.3,111.1L65.4,110.9L65.0,110.7L63.3,110.5L59.2,109.4L58.9,109.3L58.1,109.2L53.6,107.7L49.7,106.1L49.1,105.7L48.4,105.5L47.0,104.7L44.9,103.8L43.6,102.9L42.1,102.2L40.3,101.0L39.3,100.5L34.4,97.2L30.8,94.2L28.7,92.3L24.3,87.8L23.2,86.2L21.2,83.9L20.2,82.3L18.3,79.8L17.1,77.8L16.1,76.5L15.9,75.8L13.1,70.9L10.9,66.0L10.9,65.0L11.1,64.4L12.0,62.6L12.6,61.1L14.8,56.7L17.5,52.0L20.0,48.5L20.4,47.7L23.9,43.0L26.4,40.2L29.6,37.0L32.5,34.4L37.1,30.7L42.2,27.4L46.0,25.3L46.2,25.1L47.0,24.9L50.3,23.1L51.3,22.8L53.6,21.7L54.7,21.4L55.1,21.2L56.0,21.0L60.7,19.4L64.1,18.6L66.9,18.1L67.6,17.8L68.0,17.3L68.0,10.2Z M76.6,9.5L76.2,10.1L76.3,14.9L76.5,16.0L77.0,16.8L77.5,17.0L80.9,16.9L81.6,17.1L83.8,17.3L87.8,18.3L91.3,19.9L95.0,22.4L98.3,25.6L100.3,28.4L101.8,31.1L103.3,34.9L104.1,38.2L104.4,41.7L104.2,45.9L103.6,49.1L102.7,51.9L100.6,56.0L98.5,59.0L98.5,59.5L98.7,59.7L105.1,59.7L110.2,59.5L117.5,59.5L118.0,59.4L118.3,58.9L118.3,54.8L117.8,39.8L117.7,25.0L117.5,20.8L117.4,11.5L117.2,10.0L116.7,9.6L116.0,9.4L112.8,9.4L105.3,9.4L99.2,9.3L96.5,9.4L82.2,9.4Z" fill="#000" fill-rule="evenodd"/>
</svg>