<svg xmlns="http://www.w3.org/2000/svg" viewBox="0 0 128 128" width="128" height="128">
  <path d="M9.1,76.4L9.2,80.1L9.7,82.2L10.8,84.8L11.4,85.8L12.4,87.0L14.2,88.7L16.2,90.0L18.8,91.2L21.6,91.7L35.1,91.8L37.0,91.6L38.6,91.8L67.8,91.8L75.0,91.6L82.4,91.7L86.7,91.6L110.3,91.6L112.2,91.3L113.4,90.9L114.9,90.2L116.2,89.2L117.7,87.5L118.4,86.0L119.0,83.8L119.0,81.6L118.8,80.7L118.3,79.2L117.0,77.2L115.5,75.9L114.2,75.2L112.7,74.7L109.6,74.3L62.7,74.3L43.4,74.1L36.6,74.2L23.9,74.0L22.2,74.4L21.0,75.1L20.2,76.0L19.8,76.8L19.7,78.4L20.0,79.8L21.0,81.1L22.2,81.9L23.5,82.2L109.3,82.2L110.0,82.3L110.3,82.4L110.5,82.7L110.6,83.2L110.2,83.6L110.0,83.6L23.8,83.6L21.4,83.3L20.1,82.6L19.0,81.4L18.6,80.4L18.2,78.9L18.2,77.3L18.4,76.8L18.5,76.1L19.4,74.6L20.2,73.8L21.5,73.1L23.5,72.8L107.0,72.8L117.4,72.9L117.8,72.8L118.1,72.6L118.2,65.7L118.2,65.3L117.8,65.0L102.4,65.0L94.1,64.8L58.6,64.8L43.3,64.7L38.7,64.8L33.8,64.6L23.9,64.6L21.0,64.8L17.5,65.6L16.1,66.2L14.2,67.2L13.0,68.3L11.5,70.1L10.4,72.0L9.4,74.8Z M9.4,47.9L9.5,52.2L10.0,54.0L10.6,55.6L11.9,57.8L13.5,59.6L15.4,61.2L18.0,62.5L19.9,63.1L21.9,63.4L49.5,63.4L68.5,63.6L92.4,63.5L103.2,63.6L111.1,63.6L113.2,63.2L114.7,62.5L116.0,61.6L117.2,60.4L118.3,58.8L119.0,56.8L119.1,55.8L119.1,54.2L118.4,51.5L118.2,51.2L117.5,50.0L116.2,48.6L115.0,47.7L113.2,46.9L111.4,46.6L109.1,46.4L107.6,46.5L106.9,46.4L94.2,46.2L88.4,46.3L75.8,46.0L58.1,46.0L52.3,45.9L49.9,46.0L47.4,45.8L41.7,45.9L35.0,45.7L23.8,45.7L22.7,45.9L21.4,46.4L20.2,47.7L19.8,48.5L19.7,50.1L20.0,51.6L20.8,52.7L22.3,53.6L23.4,53.8L33.9,53.8L42.2,54.0L49.1,53.9L54.2,54.0L60.0,54.0L71.0,54.1L75.8,54.0L80.5,54.2L108.8,54.2L109.8,54.3L110.3,54.4L110.6,54.8L110.6,55.1L110.3,55.5L109.3,55.7L106.0,55.6L103.9,55.6L87.4,55.4L75.5,55.5L56.2,55.2L46.9,55.3L28.6,55.1L22.6,55.2L21.2,54.8L20.2,54.4L19.0,53.2L18.7,52.3L18.5,52.0L18.2,50.8L18.2,49.2L18.4,48.2L19.0,46.8L19.5,46.1L20.6,45.2L21.3,44.8L23.3,44.4L39.1,44.4L51.5,44.6L56.7,44.5L60.3,44.7L68.8,44.6L73.0,44.8L85.1,44.8L91.5,44.9L93.1,44.8L109.5,45.1L111.4,45.0L117.6,45.2L117.8,45.1L118.2,44.7L118.2,43.7L118.3,43.2L118.2,37.6L117.8,37.2L116.2,37.3L115.3,37.2L110.7,37.2L107.0,37.0L105.2,37.1L98.1,36.8L96.3,36.9L79.2,36.7L76.6,36.8L69.0,36.6L64.1,36.7L55.8,36.5L52.3,36.6L39.3,36.4L23.0,36.6L20.2,37.1L17.5,37.9L16.4,38.4L14.0,40.0L12.6,41.2L11.0,43.6L10.8,44.2L10.5,44.6L10.1,45.5Z" fill="#000" fill-rule="evenodd"/>
</svg>