<svg xmlns="http://www.w3.org/2000/svg" viewBox="0 0 128 128" width="128" height="128">
  <path d="M42.2,15.4L40.5,15.0L39.5,14.9L36.9,14.9L34.6,15.2L32.3,15.7L30.4,16.5L29.0,17.5L27.9,18.8L27.0,20.4L26.9,21.2L27.0,24.0L27.5,25.2L28.0,26.0L29.0,27.0L30.1,27.6L30.8,27.8L31.1,28.0L31.1,28.3L30.7,28.5L30.1,28.7L29.6,29.0L29.0,29.1L28.3,29.4L26.1,30.0L25.9,30.2L25.3,30.4L22.2,32.3L20.8,33.5L18.9,35.5L18.1,36.7L16.6,40.0L15.9,42.9L15.5,46.0L15.4,49.9L16.1,54.1L16.5,55.5L16.7,55.7L17.7,58.3L18.1,58.8L18.8,60.1L20.4,62.1L23.1,64.4L26.5,66.2L27.7,66.7L29.5,67.3L30.6,67.4L31.7,67.8L32.7,67.9L33.0,68.3L32.9,68.7L32.6,69.0L29.8,69.4L25.1,70.7L22.9,71.8L20.8,73.3L19.3,74.8L18.0,76.7L17.3,78.5L16.7,80.9L16.7,83.8L17.5,87.4L18.8,89.6L20.0,90.9L21.3,92.0L22.0,92.3L22.3,92.5L23.3,93.1L24.3,93.3L24.7,93.6L27.3,94.1L29.2,94.2L32.4,93.8L34.7,92.9L35.6,92.0L35.6,91.1L35.4,90.6L34.5,89.7L34.3,89.0L34.3,88.5L34.6,87.5L35.6,86.4L36.4,85.9L38.1,85.3L39.0,85.2L40.7,85.4L42.4,85.9L43.3,86.4L44.6,87.7L45.1,88.6L45.5,90.0L45.2,91.9L44.9,92.6L44.2,93.8L42.9,95.0L41.6,95.7L39.8,96.3L36.0,96.7L30.1,96.6L28.9,96.3L27.5,96.3L26.1,96.0L23.9,95.1L22.6,94.3L21.2,92.6L20.9,92.5L20.5,92.5L19.9,93.1L19.6,93.7L19.3,93.9L18.2,96.4L16.9,98.5L16.2,100.1L15.5,101.1L14.8,102.7L14.5,102.9L12.7,106.5L12.0,107.6L11.1,109.5L10.7,110.0L9.3,112.6L9.2,113.3L9.6,113.9L10.1,114.1L13.5,113.5L17.0,113.3L25.4,113.5L27.1,113.4L28.8,113.6L33.1,113.8L44.5,113.8L50.7,113.2L54.5,112.0L56.4,111.2L58.1,110.2L60.4,108.2L60.7,108.0L62.8,105.6L64.1,103.7L64.9,102.1L65.2,101.7L66.2,99.3L66.9,96.8L67.1,96.3L67.3,94.7L67.5,93.8L67.6,88.9L67.4,87.5L67.5,86.2L67.2,84.7L66.7,83.0L66.3,82.3L66.0,80.9L65.3,79.5L64.3,78.0L62.6,75.8L61.0,74.1L58.3,72.2L55.2,70.6L53.7,70.1L53.4,70.1L52.5,69.7L50.7,69.2L49.6,69.1L48.7,68.8L48.5,68.4L48.9,68.0L50.5,67.7L51.1,67.7L52.2,67.2L53.0,67.2L54.6,66.6L56.6,65.7L59.5,63.5L60.6,62.3L62.3,60.1L62.4,59.6L62.8,59.2L62.9,58.9L63.4,58.1L64.2,56.2L65.3,51.7L65.4,49.9L65.6,48.3L65.6,46.3L65.3,43.0L65.0,41.6L64.0,39.4L63.8,38.7L62.3,35.9L61.7,35.3L61.2,34.5L58.9,32.3L57.0,31.0L53.5,29.3L50.7,28.5L48.6,28.3L48.1,27.9L48.0,27.2L48.5,25.9L48.7,24.3L48.7,22.3L48.3,20.4L47.8,19.2L47.3,18.6L45.5,17.0L44.1,16.1Z M39.7,42.1L40.8,42.1L41.7,42.4L42.9,43.0L43.4,43.5L44.4,45.5L44.7,47.2L44.7,50.4L44.3,52.2L43.6,53.5L42.9,54.2L41.9,54.9L40.9,55.2L40.0,55.2L38.8,55.0L37.6,54.2L36.4,52.8L36.0,51.8L35.9,50.9L35.7,50.2L35.7,47.8L36.0,46.4L36.1,45.5L36.5,44.4L37.1,43.6L38.0,42.8L38.8,42.4Z M92.9,14.5L90.3,14.1L87.1,14.1L84.9,14.5L82.2,15.4L81.2,16.1L79.6,17.7L79.0,18.6L78.4,20.6L78.3,22.0L78.7,23.9L79.3,25.1L80.2,25.9L81.7,26.8L82.4,26.9L82.7,27.2L82.3,27.6L81.2,27.8L80.1,28.4L79.3,28.5L75.8,30.1L74.3,31.2L73.6,31.6L72.3,32.6L70.4,34.6L68.3,37.8L68.3,38.0L67.7,39.3L67.1,41.1L66.4,44.3L66.2,47.5L66.4,50.4L67.2,53.8L68.0,55.9L68.8,57.7L70.2,59.8L74.1,63.6L75.3,64.4L77.3,65.3L78.5,65.7L78.9,65.9L80.2,66.4L82.7,66.9L83.1,67.2L83.1,67.4L82.8,67.7L78.9,68.6L76.1,69.7L74.1,70.8L72.2,72.1L70.5,73.9L69.6,75.1L68.7,76.9L68.5,77.8L68.3,78.0L68.1,79.8L68.1,83.0L68.3,85.0L68.8,86.9L69.4,88.1L70.1,89.0L71.3,90.1L74.3,92.0L76.0,92.6L78.3,93.1L82.0,93.2L84.5,92.6L85.6,92.1L86.3,91.5L86.5,91.0L86.5,90.2L86.2,89.6L85.3,88.4L85.3,87.5L85.8,86.7L86.5,85.9L88.1,85.1L89.1,84.9L91.6,84.9L92.9,85.1L94.1,85.6L95.8,87.2L96.3,88.1L96.6,88.9L96.6,90.8L96.0,92.3L95.1,93.4L94.1,94.3L92.9,95.0L90.6,95.7L85.9,96.1L82.7,96.1L82.0,95.9L79.5,95.7L76.1,94.7L75.1,94.2L73.5,93.1L72.3,91.9L71.4,91.9L71.1,92.3L70.7,93.1L70.5,93.7L69.7,95.1L69.6,95.5L69.2,96.0L68.5,97.6L67.7,98.7L65.9,102.3L65.0,103.7L60.3,111.7L60.0,112.8L60.3,113.5L60.9,113.8L61.7,113.8L62.8,113.5L63.0,113.4L65.3,113.1L72.5,113.1L78.6,113.3L79.5,113.1L80.4,113.1L81.3,113.3L86.5,113.3L87.8,113.5L95.1,113.4L99.6,112.8L103.8,111.8L106.0,110.9L108.8,109.4L109.2,109.0L110.7,108.1L113.3,105.7L114.6,104.1L115.9,102.1L117.2,99.5L117.9,97.5L118.0,96.8L118.4,95.6L118.9,92.5L119.0,86.5L118.5,83.6L118.2,82.7L117.9,81.5L117.1,79.6L115.7,77.0L114.8,75.7L112.5,73.4L111.5,72.9L110.8,72.2L110.6,72.2L109.3,71.1L106.7,69.8L104.1,69.1L103.6,68.8L102.4,68.6L101.7,68.3L99.6,67.9L99.2,67.6L99.2,67.2L99.5,67.0L101.4,66.6L104.2,65.8L104.5,65.8L108.4,64.0L110.8,62.2L112.7,60.3L113.3,59.4L114.1,58.5L114.2,58.1L114.6,57.5L114.7,57.0L115.2,56.3L115.9,54.6L117.0,50.1L117.0,45.4L116.6,42.2L115.7,39.3L114.6,37.0L114.1,36.4L113.8,35.8L113.2,34.8L112.1,33.7L109.3,31.4L108.4,30.9L107.8,30.4L107.2,30.2L106.3,29.6L102.7,28.1L101.3,27.8L99.7,27.3L99.3,27.0L99.3,26.2L99.7,25.3L99.9,23.8L99.9,21.6L99.7,20.3L99.0,18.5L97.7,17.1L96.5,16.1L94.2,15.0Z M91.1,41.4L91.8,41.4L93.4,41.8L94.1,42.2L94.9,43.1L95.5,44.2L95.9,45.2L96.2,47.5L96.1,49.4L95.8,51.0L95.3,52.4L94.1,53.8L93.3,54.3L92.1,54.7L90.3,54.6L89.9,54.4L89.2,54.2L87.8,52.8L87.3,51.8L86.7,49.4L86.9,46.5L87.6,44.2L88.0,43.5L89.1,42.3L90.0,41.8Z" fill="#000" fill-rule="evenodd"/>
</svg>