<svg xmlns="http://www.w3.org/2000/svg" viewBox="0 0 128 128" width="128" height="128">
  <path d="M119.2,50.0L119.1,49.7L117.3,47.9L114.5,45.3L112.1,42.9L111.6,42.5L110.9,41.7L108.5,39.5L106.2,37.3L105.8,37.1L68.1,37.5L67.8,37.6L67.6,38.1L67.6,40.1L67.4,41.8L67.4,49.0L67.5,49.8L67.8,50.1L83.3,50.1L84.7,50.0L97.7,50.0L101.2,49.8L103.9,49.9L104.2,50.1L104.3,50.3L104.3,50.9L104.0,51.2L103.7,51.3L101.8,51.4L88.4,51.4L84.1,51.5L67.7,51.7L67.5,52.0L67.4,61.2L67.6,74.3L67.5,76.2L66.9,76.6L66.7,76.6L66.3,76.3L66.2,75.7L66.0,70.7L66.0,63.2L66.2,57.9L66.1,52.5L65.9,51.7L65.6,51.6L63.4,51.5L52.6,51.7L50.5,51.7L44.6,51.8L33.2,51.8L32.9,52.3L32.9,55.3L33.0,56.1L32.9,59.0L33.0,63.7L33.2,64.1L33.9,64.3L38.6,64.3L41.9,64.1L43.4,64.2L52.3,64.0L52.7,64.4L52.7,64.9L52.4,65.3L40.4,65.4L37.3,65.6L33.1,65.5L32.1,64.8L29.4,62.2L27.6,60.3L26.5,59.3L25.8,58.5L25.8,58.1L27.3,56.4L32.7,51.0L33.4,50.6L38.4,50.6L46.1,50.4L51.9,50.5L64.4,50.3L65.7,50.1L66.1,49.7L66.1,37.9L65.7,37.4L59.1,37.5L57.0,37.5L45.5,37.6L43.6,37.5L38.2,37.7L28.6,37.7L27.8,38.4L27.5,38.9L21.4,44.8L18.4,48.1L16.4,50.0L11.5,55.1L10.4,56.5L9.2,57.7L9.1,58.3L9.1,58.5L10.0,59.5L10.7,60.1L11.6,61.1L19.0,68.5L19.5,68.8L27.1,76.5L28.8,77.9L29.4,78.0L31.0,77.9L38.0,77.9L45.8,77.6L58.9,77.6L59.9,78.1L66.3,84.2L69.1,87.1L73.2,91.0L73.7,91.1L74.0,91.0L74.8,90.4L76.4,88.8L79.8,85.7L81.0,84.5L82.6,83.1L88.4,77.5L88.4,77.1L87.9,77.0L86.0,76.9L82.1,77.1L80.6,76.9L80.3,76.6L80.2,65.6L80.3,64.7L80.5,64.5L81.7,64.3L84.0,64.3L84.8,64.2L99.8,64.2L103.5,64.1L105.6,63.9L106.0,63.7L108.2,61.6L117.4,52.5L119.0,50.7L119.2,50.4Z" fill="#000" fill-rule="evenodd"/>
</svg>