<svg xmlns="http://www.w3.org/2000/svg" viewBox="0 0 128 128" width="128" height="128">
  <path d="M118.7,59.3L118.2,57.0L117.6,55.5L117.6,54.9L117.0,53.5L116.2,52.0L116.1,51.5L114.4,48.4L112.2,45.6L110.1,43.5L107.8,41.7L104.8,39.8L100.8,38.0L97.6,37.0L94.7,36.5L93.0,36.4L89.5,36.4L88.1,36.5L87.3,36.8L84.5,37.2L82.0,38.1L79.9,39.1L77.3,40.6L74.9,42.4L72.4,44.8L70.3,47.6L69.4,49.0L69.1,49.8L68.9,50.0L67.8,52.5L67.5,52.9L67.4,54.0L66.7,55.9L66.2,59.4L66.1,62.1L66.5,66.2L67.1,68.6L68.1,71.2L69.6,74.1L72.0,77.5L75.0,80.5L76.7,81.8L77.1,81.9L77.8,82.5L79.3,83.3L79.5,83.6L82.0,84.6L82.5,84.9L83.4,85.1L84.2,85.5L85.6,85.9L86.5,85.9L87.6,86.3L88.4,86.3L89.8,86.5L92.9,86.5L93.6,86.3L95.8,86.2L97.1,85.8L97.5,85.8L98.2,85.5L99.4,85.2L99.8,85.0L100.4,84.8L103.7,83.1L105.6,81.8L107.8,79.9L109.7,77.8L111.0,76.1L113.1,72.0L113.9,69.2L114.1,68.2L114.3,67.6L114.5,66.2L114.6,63.0L114.4,60.3L113.5,56.5L112.9,55.1L111.8,52.8L109.7,49.6L108.6,48.4L106.1,46.0L104.2,44.6L102.9,44.0L101.6,43.2L98.2,41.8L97.7,41.8L96.4,41.3L92.9,40.9L90.6,40.9L87.2,41.3L86.4,41.6L85.4,41.7L83.0,42.7L80.2,44.2L77.9,45.9L75.2,48.7L73.6,51.2L72.6,53.1L71.5,56.1L70.9,59.5L70.9,63.3L71.1,65.1L71.6,67.1L72.8,70.2L73.8,72.1L75.6,74.5L77.7,76.6L80.0,78.4L81.6,79.3L81.9,79.6L84.2,80.7L86.1,81.3L87.5,81.6L90.7,82.0L95.0,81.8L97.9,81.0L100.8,79.6L103.3,77.9L104.8,76.6L106.0,75.3L107.8,72.8L109.3,69.5L109.8,67.4L110.1,65.1L110.1,62.7L110.0,61.0L109.5,58.8L109.3,58.4L109.0,57.1L108.3,55.7L107.5,54.4L107.4,53.9L106.1,52.2L103.3,49.4L102.2,48.5L100.4,47.5L97.7,46.3L95.9,45.8L93.0,45.3L90.4,45.3L87.9,45.7L85.4,46.6L83.5,47.4L81.8,48.6L80.9,49.3L78.9,51.5L77.5,53.7L76.5,55.7L75.7,58.3L75.7,58.9L75.5,60.1L75.5,62.2L75.7,64.3L76.4,66.7L77.7,69.4L78.0,69.8L78.7,70.9L80.1,72.6L82.7,74.7L84.6,75.8L86.1,76.4L87.8,76.9L89.5,77.3L92.6,77.3L95.5,76.9L97.1,76.2L97.4,76.2L98.7,75.5L100.3,74.4L102.0,72.9L103.3,71.3L104.2,69.7L104.7,68.6L105.2,66.8L105.6,64.1L105.5,61.3L105.1,60.4L105.0,59.5L104.7,58.9L104.5,58.2L103.7,56.6L102.6,55.0L100.9,53.3L99.7,52.4L98.3,51.5L97.3,51.1L97.0,51.1L96.6,50.7L93.9,50.0L89.9,50.0L87.1,50.9L85.2,52.0L84.8,52.4L84.3,52.6L82.8,54.3L82.0,55.5L80.9,57.6L80.4,59.7L80.3,62.3L80.9,64.7L81.5,65.3L82.6,65.2L82.8,64.9L82.8,64.5L82.5,63.7L82.2,61.5L82.5,58.9L82.9,57.8L83.8,56.0L85.4,54.3L86.9,53.2L87.5,52.9L87.9,52.6L89.1,52.2L90.7,51.9L93.8,52.0L95.7,52.5L98.5,54.0L99.7,54.9L101.0,56.2L102.0,57.7L102.6,58.8L102.6,59.0L103.1,60.1L103.6,62.6L103.6,65.0L103.0,67.7L102.2,69.3L101.9,69.6L101.5,70.4L100.5,71.7L98.9,73.1L98.1,73.7L96.2,74.7L95.9,74.7L94.4,75.1L93.0,75.4L89.9,75.3L88.3,75.0L86.7,74.4L84.8,73.6L83.5,72.7L81.2,70.7L80.1,69.4L78.7,66.8L77.9,64.5L77.6,62.6L77.6,60.1L78.1,57.4L78.6,55.9L79.4,54.7L79.5,54.2L80.2,53.1L81.6,51.4L82.6,50.6L84.4,49.3L87.5,47.9L88.5,47.7L89.0,47.5L90.1,47.5L90.7,47.3L92.5,47.3L95.1,47.7L95.9,48.0L96.8,48.1L98.5,48.8L101.5,50.5L102.5,51.3L104.6,53.5L105.7,55.1L105.8,55.4L106.7,57.0L107.7,59.7L108.0,61.2L108.2,63.1L108.1,65.6L107.5,68.6L106.8,70.2L106.1,71.7L104.8,73.7L102.1,76.4L100.4,77.6L98.5,78.6L95.9,79.5L94.1,79.8L92.6,79.9L89.7,79.9L87.4,79.5L85.4,78.8L83.4,78.0L82.3,77.3L81.8,77.1L79.2,75.1L77.6,73.6L76.4,72.0L75.3,70.4L74.1,67.9L73.3,65.0L72.9,62.2L72.9,60.1L73.3,57.4L73.5,56.8L73.7,55.6L74.5,54.0L74.5,53.5L75.5,51.8L75.8,51.4L76.5,50.3L78.4,48.1L79.5,47.1L82.0,45.4L84.7,44.0L87.6,43.2L88.4,43.0L90.8,42.8L91.4,42.7L92.3,42.7L96.8,43.3L99.6,44.3L102.2,45.5L102.4,45.8L103.7,46.5L106.3,48.6L108.0,50.5L109.6,52.6L110.8,54.8L111.6,57.1L111.7,57.7L112.3,59.5L112.7,62.1L112.7,64.8L112.5,66.9L112.0,69.1L111.2,71.8L109.6,74.8L108.5,76.4L107.2,77.9L105.8,79.3L105.6,79.4L104.8,80.1L103.5,81.0L101.7,82.2L100.0,82.8L99.7,83.0L98.8,83.3L98.7,83.4L96.9,84.0L94.5,84.4L92.3,84.5L89.5,84.4L87.0,84.0L86.1,83.7L85.3,83.7L83.1,82.9L80.0,81.4L77.9,80.0L76.0,78.4L72.9,75.2L71.5,73.2L70.3,70.8L69.2,67.9L68.5,64.9L68.2,62.5L68.3,58.9L68.8,56.0L69.8,52.8L70.2,52.0L70.2,51.8L71.1,49.9L71.9,48.9L72.5,47.9L74.7,45.3L76.4,43.7L77.9,42.5L80.0,41.2L83.6,39.5L85.8,39.0L86.6,38.7L87.6,38.6L89.0,38.3L93.4,38.3L95.9,38.6L96.6,38.8L97.5,38.9L98.3,39.2L99.0,39.3L100.7,39.8L102.5,40.6L105.1,42.1L107.8,44.0L109.9,45.8L112.0,48.2L114.2,51.7L115.3,54.1L115.8,55.6L116.0,55.7L116.2,56.8L116.4,57.1L116.6,58.9L117.0,60.4L117.2,63.8L116.9,67.9L116.2,70.9L114.7,74.9L114.1,75.8L113.3,77.4L111.4,80.0L109.0,82.5L106.7,84.4L103.0,86.6L100.0,87.8L97.4,88.5L94.0,89.0L88.9,89.1L87.1,88.9L84.6,88.5L81.7,87.6L79.1,86.5L76.8,85.3L75.2,84.1L74.6,83.9L74.0,83.3L72.2,81.9L69.6,79.3L68.5,77.9L66.8,75.4L65.9,73.5L64.6,70.2L64.4,68.9L63.9,67.8L63.8,67.0L63.5,66.0L63.5,65.5L63.3,64.9L63.1,63.8L62.8,62.7L62.6,61.2L62.1,59.4L62.1,58.7L60.9,55.0L60.4,54.2L59.5,52.2L58.2,49.9L57.3,48.8L56.6,48.1L56.3,47.5L54.0,45.1L51.1,42.8L49.8,42.1L47.2,40.7L44.5,39.7L41.2,38.8L38.6,38.4L35.8,38.3L33.2,38.3L31.4,38.6L30.7,38.8L30.1,38.8L29.2,39.1L28.0,39.4L27.7,39.6L25.7,40.2L25.4,40.5L23.0,41.5L19.9,43.5L18.3,44.9L17.8,45.2L14.6,48.6L13.1,50.7L11.9,53.0L10.8,55.5L10.0,57.4L9.5,59.7L9.5,60.3L9.3,60.7L9.1,62.3L9.1,65.2L9.3,66.8L9.3,69.2L9.7,71.4L10.7,74.3L12.6,78.3L13.4,79.4L13.8,80.2L15.5,82.3L18.5,85.2L21.7,87.4L24.1,88.7L27.6,90.0L29.0,90.3L31.8,91.0L33.3,91.2L36.1,91.2L38.5,91.1L43.0,90.2L45.6,89.3L46.3,88.9L46.5,88.9L48.8,87.8L50.2,86.9L50.8,86.7L53.5,84.6L55.3,82.9L57.6,80.3L57.9,80.3L58.1,80.7L58.3,88.5L58.5,91.4L58.9,91.9L59.5,91.9L60.3,91.8L60.5,91.5L60.6,91.1L60.4,82.3L60.3,80.3L60.3,78.9L60.2,78.0L60.1,75.8L59.9,75.4L59.5,75.1L47.2,75.4L45.4,75.3L44.1,75.4L43.1,75.6L42.9,76.1L42.9,76.6L43.0,77.3L43.4,77.5L56.1,77.3L56.4,77.4L56.4,77.9L54.9,80.0L53.1,82.0L52.3,82.8L48.9,85.2L46.4,86.6L44.6,87.4L43.7,87.6L43.2,87.9L42.3,88.1L41.1,88.5L38.2,88.9L35.3,89.1L32.6,88.9L29.6,88.4L26.0,87.1L23.9,86.2L22.3,85.2L19.2,82.9L16.2,79.7L13.7,75.9L12.7,73.9L12.4,72.4L11.9,71.0L11.4,69.3L10.9,64.9L11.0,62.6L11.7,58.5L12.3,56.6L13.9,53.1L16.3,49.6L18.7,47.1L21.7,44.7L24.7,42.9L27.7,41.6L28.8,41.3L29.9,41.0L30.3,41.0L31.2,40.6L34.7,40.2L38.1,40.3L40.8,40.7L41.4,41.0L42.6,41.1L44.1,41.7L45.4,42.1L45.7,42.4L47.0,42.8L47.9,43.3L50.8,45.1L53.8,47.8L55.8,50.2L57.0,52.0L57.9,53.6L58.1,54.3L58.6,55.0L59.0,56.3L59.5,57.2L60.3,60.4L61.8,68.4L62.3,70.2L63.3,73.1L64.1,74.9L66.0,78.2L68.4,81.2L70.4,83.3L72.2,84.8L74.8,86.6L75.4,86.8L76.4,87.5L78.2,88.4L80.9,89.4L82.7,89.9L83.1,90.1L84.2,90.3L84.8,90.5L87.0,90.8L88.6,91.1L90.2,91.2L94.3,91.0L97.6,90.5L98.1,90.3L99.2,90.1L102.7,88.9L105.6,87.4L109.2,84.9L111.2,83.2L113.1,81.0L114.4,79.2L114.6,78.7L116.1,76.5L117.5,73.2L118.1,71.3L118.7,68.4L119.1,66.1L119.1,62.2Z" fill="#000" fill-rule="evenodd"/>
</svg>