<svg xmlns="http://www.w3.org/2000/svg" viewBox="0 0 128 128" width="128" height="128">
  <path d="M10.2,55.2L9.6,57.8L9.1,62.6L9.2,66.4L9.3,67.9L9.5,68.9L9.5,69.8L10.2,72.7L11.8,77.5L13.4,80.7L14.9,83.1L16.5,85.2L19.2,88.3L21.7,90.4L25.3,92.9L28.6,94.5L31.8,95.8L34.3,96.5L37.6,97.1L39.9,97.3L44.9,97.3L48.4,96.8L51.9,95.9L55.0,94.8L55.5,94.5L57.0,93.8L58.5,92.9L59.1,92.8L63.7,89.4L64.2,89.4L64.5,89.6L65.4,90.4L68.2,92.4L72.0,94.6L72.5,94.7L74.2,95.6L74.7,95.6L76.1,96.3L76.5,96.3L76.9,96.5L80.3,97.3L84.1,97.8L88.6,97.8L91.0,97.6L91.8,97.3L93.3,97.2L94.2,96.9L95.3,96.7L95.7,96.5L96.7,96.3L96.9,96.1L98.9,95.5L100.2,94.8L100.8,94.6L101.0,94.4L103.2,93.3L105.3,91.9L107.8,89.9L109.1,88.7L111.9,85.7L113.3,83.8L114.4,81.9L114.8,81.4L116.5,78.0L117.8,74.6L118.6,71.1L118.9,69.3L119.2,63.8L119.0,62.1L118.4,61.6L115.8,61.5L104.9,61.3L95.9,61.3L94.2,61.2L67.9,61.0L66.5,60.9L66.1,60.5L66.5,58.5L67.0,57.1L68.5,53.9L69.0,53.3L69.5,52.4L71.3,50.1L72.7,48.8L75.2,47.0L76.7,46.3L77.0,46.0L77.6,45.6L80.9,44.5L84.8,43.9L88.5,43.9L91.4,44.6L91.7,44.7L93.5,45.2L96.2,46.4L96.5,46.7L98.0,47.6L100.8,49.9L102.6,52.1L104.4,54.9L105.6,57.8L105.9,58.1L106.6,58.3L117.7,58.4L118.2,58.2L118.4,57.9L118.2,56.7L117.8,55.4L117.7,54.8L117.2,53.4L117.1,53.3L117.0,52.8L116.4,51.5L116.1,50.6L115.7,50.1L115.7,49.8L115.4,49.4L114.3,47.3L111.9,43.9L110.2,42.0L108.1,39.8L106.0,38.0L101.8,35.3L99.7,34.2L98.3,33.8L98.0,33.5L96.7,33.1L96.0,32.9L95.5,32.6L93.4,32.1L92.5,31.8L89.1,31.3L83.7,31.2L78.8,31.8L78.2,32.1L76.2,32.5L73.4,33.5L72.8,33.9L72.4,34.0L70.6,34.9L67.8,36.5L67.3,37.0L65.7,38.0L62.5,40.9L61.9,41.7L61.2,42.2L59.4,44.6L57.7,47.1L56.6,49.3L56.3,49.7L56.1,50.2L55.3,51.8L55.2,52.4L54.8,53.1L54.3,54.6L53.9,55.1L53.6,55.0L53.6,54.0L53.6,31.4L53.5,30.7L53.0,30.5L51.2,30.4L40.5,30.5L37.7,30.7L36.9,31.0L35.5,31.1L33.5,31.6L32.8,31.9L32.1,32.0L29.1,33.1L25.8,34.7L23.4,36.2L23.1,36.5L22.7,36.6L18.8,40.0L17.8,41.1L17.2,41.7L16.1,43.3L15.3,44.2L13.0,47.8L11.3,51.7Z M67.6,72.9L67.8,72.6L69.1,72.4L77.3,72.6L78.6,72.5L102.9,72.7L104.5,72.9L104.8,73.1L104.9,73.5L103.6,75.9L101.5,78.7L99.0,81.0L97.3,82.2L96.3,82.7L96.1,82.9L95.6,83.1L95.2,83.4L93.5,84.1L91.7,84.6L89.4,85.1L87.2,85.3L85.7,85.3L83.4,85.1L80.3,84.4L76.9,83.0L76.7,82.7L76.1,82.5L74.6,81.6L72.7,80.0L69.9,77.2L68.4,74.8L67.6,73.1Z M39.4,43.4L40.9,43.4L41.3,43.9L41.3,71.8L41.5,72.1L42.0,72.3L52.2,72.3L53.6,72.5L54.0,73.0L55.0,76.1L55.6,77.2L55.8,78.0L56.0,78.4L56.0,79.0L55.6,79.6L53.4,81.3L51.5,82.4L47.8,83.9L47.3,84.0L46.8,84.2L45.5,84.4L44.6,84.6L42.9,84.8L40.7,84.8L39.0,84.6L38.7,84.5L38.2,84.5L35.4,83.8L33.7,83.1L33.5,82.9L32.0,82.3L31.7,82.0L30.7,81.5L29.0,80.3L26.0,77.4L25.9,77.2L25.1,76.3L23.9,74.3L22.2,70.4L22.0,69.5L21.7,68.3L21.5,66.6L21.3,65.6L21.3,62.1L21.6,60.6L21.7,59.6L22.0,58.1L23.0,55.5L23.8,53.8L25.7,51.0L26.3,50.4L26.5,50.1L28.5,48.1L30.2,46.8L31.8,45.8L35.4,44.2L36.9,43.9L37.4,43.7L38.5,43.6Z" fill="#000" fill-rule="evenodd"/>
</svg>