<svg xmlns="http://www.w3.org/2000/svg" viewBox="0 0 128 128" width="128" height="128">
  <path d="M12.9,46.8L11.0,51.0L10.7,52.6L10.2,53.8L9.5,57.1L9.1,61.1L9.1,64.8L9.3,66.3L9.5,68.9L10.2,72.7L11.6,77.2L11.8,77.5L12.1,78.5L13.1,80.2L13.3,81.0L15.6,85.2L19.1,89.4L21.0,91.2L24.2,93.8L27.6,96.1L29.7,97.1L30.7,97.8L32.2,98.3L32.8,98.7L34.7,99.5L35.6,99.7L37.1,100.2L38.7,100.6L39.5,100.9L41.3,101.3L44.2,101.7L44.6,101.8L45.9,102.0L46.9,102.0L48.7,102.2L52.2,102.2L53.1,102.5L59.2,102.4L68.7,102.5L118.1,102.5L118.6,102.2L118.8,93.5L118.8,56.8L119.0,51.3L118.9,39.1L119.1,35.5L119.1,27.2L118.8,26.8L117.3,26.6L109.9,26.3L99.0,26.3L58.7,25.7L47.8,25.8L46.6,26.0L43.8,26.0L42.3,26.3L40.8,26.4L39.0,26.8L38.7,27.0L37.4,27.3L36.8,27.5L35.7,27.7L35.1,28.0L34.3,28.2L31.8,29.3L30.3,29.7L29.7,30.1L28.9,30.4L27.1,31.5L22.6,34.8L21.2,36.2L20.6,36.7L18.4,38.9L16.1,41.8L13.9,45.1L13.4,46.2Z M110.8,64.4L111.2,64.5L111.4,64.8L111.5,67.0L111.3,67.4L110.9,67.8L110.2,68.0L109.7,68.3L108.5,68.6L106.2,70.1L105.0,71.5L104.0,73.0L103.9,73.6L103.5,74.3L103.2,75.3L103.2,77.6L103.6,79.5L104.0,80.6L105.3,82.6L106.2,83.6L107.6,84.5L109.7,85.5L111.2,85.9L111.6,86.3L111.7,89.3L111.2,89.8L110.1,89.7L109.6,89.5L107.8,89.0L106.2,88.2L104.0,86.8L102.6,85.5L101.2,83.6L100.3,81.9L99.5,79.7L99.1,77.2L99.1,75.0L99.5,73.2L99.8,72.8L100.0,71.9L101.3,69.7L103.3,67.5L105.8,65.8L106.8,65.3L109.1,64.6Z M109.7,58.2L111.0,58.2L111.3,58.5L111.3,61.3L110.9,61.7L109.6,61.8L109.0,62.1L108.5,62.2L105.7,63.5L105.1,63.6L104.1,64.3L103.2,64.7L101.3,66.1L99.3,68.6L98.7,69.5L98.5,70.2L97.8,71.5L97.1,73.6L96.8,74.9L96.8,78.3L96.9,79.2L97.2,80.6L97.6,81.3L97.6,81.9L98.3,83.2L98.9,84.6L99.5,85.5L100.2,86.3L100.6,86.9L102.0,88.1L104.0,89.6L104.6,89.8L105.6,90.5L106.5,90.8L106.9,91.0L107.8,91.2L108.8,91.5L110.7,91.8L111.2,92.0L111.6,92.4L111.7,94.6L111.6,95.2L111.2,95.7L109.3,95.6L104.4,94.4L102.2,93.2L101.7,93.0L101.0,92.7L100.5,92.1L99.5,91.5L96.6,88.5L94.7,85.3L93.3,81.5L92.7,78.6L92.7,75.5L92.9,73.9L93.2,73.0L93.2,72.6L93.8,70.8L94.6,69.0L94.9,68.8L95.2,68.0L96.1,66.6L96.8,65.8L97.8,64.5L100.2,62.2L101.8,61.0L105.0,59.3L105.5,59.2L106.8,58.7Z M75.7,47.1L77.0,46.5L77.7,46.3L78.6,46.3L80.7,46.7L81.8,47.4L82.5,48.0L83.6,49.7L84.0,51.1L84.0,51.9L83.4,55.6L83.6,56.8L83.7,57.2L84.0,57.6L84.0,57.9L83.8,58.2L82.2,58.2L81.0,57.8L80.4,57.8L79.3,58.2L78.6,58.2L77.4,57.8L76.7,57.8L75.5,58.4L74.5,58.4L73.9,58.2L73.7,58.0L73.7,57.4L74.3,56.3L74.3,55.5L73.5,52.5L73.5,50.4L73.8,49.3L74.4,48.4Z M111.3,33.9L111.3,34.2L110.7,35.5L110.4,35.7L109.9,36.9L109.6,37.3L108.9,38.7L108.6,39.1L107.8,40.9L105.8,44.6L101.7,52.8L100.6,54.6L98.5,58.8L97.6,60.2L97.6,60.6L97.3,60.8L95.7,64.0L94.1,66.9L93.8,67.7L93.5,67.9L92.8,69.4L91.8,71.2L91.4,72.1L90.8,73.1L89.7,75.2L89.4,75.6L88.7,77.1L86.7,80.6L83.5,86.8L81.0,91.1L80.9,91.4L80.2,92.4L79.7,93.6L79.1,94.3L78.7,94.3L78.5,94.1L78.3,93.6L77.7,92.7L77.0,91.2L75.8,89.3L75.2,87.9L74.9,87.7L73.8,85.3L73.2,84.5L73.0,83.8L72.6,83.2L71.9,81.9L71.5,81.3L70.7,79.6L70.0,78.5L69.5,77.4L69.3,77.2L65.6,70.3L64.4,68.1L63.8,66.9L63.0,65.7L62.8,65.1L60.9,61.7L60.3,60.5L59.6,59.4L59.0,58.0L58.7,57.8L57.8,55.8L54.7,50.2L53.9,48.5L52.1,45.3L51.3,43.6L50.7,43.1L50.1,42.9L47.5,42.9L43.2,43.4L41.6,43.9L41.2,43.9L38.5,44.8L35.2,46.8L32.8,48.9L30.6,51.2L28.9,53.7L28.0,55.7L27.0,58.6L26.6,60.2L26.4,61.9L26.2,62.9L26.2,63.8L26.3,64.4L26.3,66.3L26.6,68.5L26.8,69.6L27.1,70.2L27.5,71.6L28.2,73.1L29.8,75.6L30.2,76.0L30.5,76.6L33.6,79.9L37.6,82.9L38.0,82.9L38.7,83.3L39.5,83.5L40.9,84.3L43.3,84.9L44.3,84.9L44.6,84.7L44.8,84.2L44.6,78.3L44.6,70.1L44.1,69.5L43.6,69.4L41.2,69.4L40.6,69.3L38.2,69.3L36.5,69.1L36.2,68.9L36.1,68.5L36.1,65.9L36.3,65.5L36.5,65.4L37.9,65.3L41.9,65.5L42.5,65.6L47.8,65.8L48.2,65.9L48.5,66.2L48.5,71.8L48.6,76.1L48.6,88.6L48.1,89.4L45.7,89.4L45.2,89.2L42.5,88.8L40.9,88.2L40.1,88.1L39.2,87.8L38.5,87.6L36.4,86.5L35.9,86.4L34.6,85.9L32.4,84.2L31.9,83.6L31.2,83.2L29.3,81.5L26.2,77.6L24.0,73.6L23.7,72.5L23.0,70.6L22.4,67.2L22.1,65.2L22.2,60.9L22.5,59.8L22.6,58.7L23.0,57.7L23.6,55.4L25.4,51.5L27.0,48.9L28.6,47.2L31.5,44.7L34.2,42.6L37.7,40.8L38.2,40.7L39.0,40.3L39.6,40.2L39.9,39.9L41.3,39.5L42.6,39.4L44.3,39.0L49.9,38.7L52.3,38.9L53.0,39.1L53.8,40.2L54.2,41.3L55.1,42.6L55.7,43.9L57.2,46.6L57.9,48.1L58.6,49.2L60.0,52.0L61.5,54.6L61.7,55.1L63.9,59.0L64.0,59.4L65.7,62.4L66.2,63.6L66.8,64.5L67.8,66.6L68.1,66.8L68.1,67.2L68.7,68.3L69.5,69.6L70.7,72.0L71.2,72.7L72.0,74.6L72.9,76.1L73.4,77.2L73.9,77.9L74.5,79.2L75.2,80.4L76.7,83.6L78.0,85.5L78.4,86.5L78.7,86.7L79.1,86.7L79.8,85.4L80.0,85.1L82.5,80.1L83.7,78.2L84.4,76.8L85.6,74.6L86.6,72.7L87.0,72.0L87.6,70.8L88.0,70.3L88.5,69.0L89.6,67.4L91.9,62.9L92.3,62.2L92.6,61.6L93.8,59.7L94.2,58.6L95.1,57.3L95.5,56.5L96.2,55.3L97.3,53.0L98.0,51.9L98.7,50.4L99.0,50.1L99.1,49.7L99.8,48.5L101.3,45.3L103.7,41.2L104.4,39.8L104.6,39.5L105.6,37.4L106.0,36.9L107.4,34.3L108.0,33.6L110.8,33.6Z M83.0,33.8L84.4,33.1L86.5,33.1L87.0,33.4L87.3,33.4L88.5,33.8L89.6,34.6L90.5,35.7L91.0,36.7L91.2,38.7L90.8,41.9L90.6,42.3L90.7,44.0L90.4,44.4L90.1,44.5L89.3,44.5L88.6,44.3L87.8,44.3L86.3,44.8L84.9,44.6L84.0,44.2L83.4,44.3L83.1,44.5L82.4,44.7L81.3,44.7L81.0,44.4L80.9,44.0L81.4,43.3L81.6,42.5L81.5,41.7L81.1,40.5L80.9,39.1L80.9,37.8L81.0,36.5L82.0,34.7L82.4,34.2Z M67.8,34.2L68.3,33.8L69.7,33.2L72.2,33.1L73.9,33.4L74.3,33.6L75.8,35.2L76.4,36.5L76.8,38.3L76.8,39.1L76.5,40.7L76.1,41.7L76.1,42.8L76.8,43.8L76.9,44.3L76.6,44.6L76.3,44.8L75.7,44.8L74.1,44.2L73.5,44.2L72.1,44.8L71.0,44.8L70.0,44.3L69.3,44.3L68.1,44.8L66.9,44.8L66.5,44.5L66.6,44.0L66.8,43.8L67.1,43.1L67.2,41.9L66.4,39.3L66.3,36.9L66.6,35.7L67.0,35.0Z M104.4,33.6L104.5,33.9L104.1,34.8L102.3,38.0L100.2,42.2L99.5,43.3L98.2,45.9L95.8,50.1L94.0,53.8L92.6,56.2L91.9,57.8L91.5,58.3L90.4,60.5L90.0,61.1L89.3,62.7L88.3,64.3L87.9,65.3L87.4,66.1L85.0,70.7L84.7,71.1L84.4,71.9L83.6,73.0L83.5,73.5L83.2,73.8L81.1,77.9L80.0,80.4L79.5,81.1L79.1,81.5L78.7,81.5L78.3,81.2L76.4,77.7L74.9,74.8L74.2,73.6L73.4,71.9L72.2,69.9L70.8,67.1L69.7,65.3L69.0,63.8L68.8,63.6L68.1,62.1L67.0,60.3L66.1,58.3L64.4,55.4L63.9,54.2L63.5,53.7L63.1,52.7L61.5,49.9L58.5,44.0L58.2,43.6L57.6,42.1L56.4,39.7L54.9,37.2L54.6,37.0L53.9,36.8L52.3,36.8L51.7,36.7L48.6,36.8L46.7,36.8L45.7,37.0L42.6,37.2L41.2,37.6L40.1,37.7L35.7,39.5L33.7,40.5L32.8,41.1L32.3,41.3L29.4,43.5L27.3,45.5L25.8,47.1L24.1,49.3L22.5,52.0L22.2,53.1L21.4,55.0L21.4,55.3L21.0,56.3L20.7,57.8L20.6,58.0L20.0,61.6L19.9,64.3L20.1,66.5L20.9,70.7L21.3,71.7L21.4,72.3L21.9,73.2L23.6,77.2L24.4,78.3L24.9,79.4L26.2,80.9L26.3,81.1L29.3,84.4L31.2,85.9L34.2,87.8L34.7,88.2L36.1,88.9L41.7,90.8L44.0,91.2L44.4,91.3L44.9,91.3L45.8,91.5L47.7,91.6L48.2,91.8L50.8,91.9L51.3,91.8L51.6,91.4L51.6,84.1L51.5,77.6L51.5,63.6L51.2,63.3L51.0,63.2L48.5,63.1L44.4,63.1L36.6,62.8L36.2,62.5L36.2,59.8L36.4,59.5L36.8,59.2L38.7,59.1L41.7,59.2L50.5,59.2L54.1,59.5L54.6,59.9L54.7,62.9L54.6,66.4L54.8,71.7L54.8,79.4L54.9,83.6L54.9,94.7L54.6,95.5L53.7,95.7L44.6,95.5L42.1,95.3L40.5,94.8L39.5,94.6L38.8,94.3L36.7,93.8L36.1,93.4L34.9,92.9L34.5,92.6L33.3,92.2L32.4,91.7L31.6,91.0L31.2,90.9L29.3,89.8L28.1,88.7L27.1,88.1L22.3,83.1L22.1,82.7L20.9,81.1L20.6,80.6L19.9,79.6L19.6,78.8L19.1,78.2L18.1,75.7L17.6,74.6L17.2,73.2L16.8,72.4L16.3,69.7L16.0,68.9L15.9,67.1L15.7,66.5L15.6,63.8L15.7,62.0L15.9,61.0L15.9,59.4L16.5,56.3L16.9,55.2L17.1,54.3L17.9,52.3L18.4,51.3L18.7,50.5L19.7,48.5L20.6,47.2L22.1,44.8L22.9,44.0L23.2,43.3L27.4,39.5L30.0,37.8L30.6,37.3L31.4,37.0L32.5,36.3L32.7,36.3L35.1,35.1L35.6,35.0L36.0,34.7L38.2,34.1L38.5,33.8L39.7,33.7L40.1,33.4L42.4,33.0L44.0,32.9L45.9,32.6L56.4,32.6L56.8,32.7L57.3,33.3L58.6,35.9L59.3,37.0L61.1,40.7L61.4,41.0L61.8,42.1L63.5,45.0L63.8,45.8L64.1,46.2L64.3,46.6L65.5,48.9L66.5,50.9L67.6,52.8L67.8,53.4L68.5,54.6L70.6,58.7L72.7,62.5L73.4,64.1L74.3,65.5L75.2,67.4L75.4,67.6L76.0,68.9L77.3,71.2L77.8,72.4L78.3,73.1L78.3,73.4L78.7,73.7L79.0,73.7L79.3,73.4L79.8,72.2L80.5,71.1L81.1,69.7L82.1,68.1L85.1,62.4L85.7,61.4L86.3,60.1L86.7,59.6L88.1,56.7L89.4,54.6L89.7,53.9L89.9,53.7L90.4,52.6L90.9,51.8L92.8,48.2L93.4,47.0L93.7,46.6L95.6,42.8L96.0,42.3L96.8,40.5L97.7,39.1L100.0,34.6L100.8,33.4L103.6,33.4L104.2,33.4Z" fill="#000" fill-rule="evenodd"/>
</svg>