<svg xmlns="http://www.w3.org/2000/svg" viewBox="0 0 128 128" width="128" height="128">
  <path d="M68.2,9.2L63.8,9.2L60.8,9.5L58.5,10.0L57.5,10.4L56.6,10.6L56.2,10.8L55.4,11.0L55.1,11.2L53.0,12.0L49.0,14.7L46.0,17.5L45.0,18.8L44.8,19.2L43.1,21.6L41.7,24.7L40.9,27.5L40.3,31.4L40.4,35.6L40.8,38.1L40.5,38.3L40.2,38.3L38.0,37.4L36.4,37.0L34.3,36.7L33.8,36.6L30.3,36.6L27.9,36.9L24.9,37.7L21.8,39.1L19.7,40.4L18.0,41.8L15.7,44.0L14.0,46.0L13.7,46.6L13.1,47.5L11.6,50.4L10.6,53.1L9.8,56.2L9.4,59.3L9.4,63.3L9.5,65.3L10.3,69.2L11.7,73.0L13.0,75.2L13.1,75.6L14.1,77.1L14.2,77.4L14.6,78.0L17.2,80.8L19.9,83.0L21.8,84.3L25.5,86.0L28.5,86.9L31.4,87.2L34.6,87.2L36.0,87.1L37.3,86.7L37.9,86.7L38.0,86.9L38.0,87.3L37.4,88.8L36.6,92.2L36.5,94.5L36.5,97.0L36.8,98.6L36.9,99.9L37.7,102.8L38.7,105.2L40.4,108.2L42.4,110.7L43.9,112.3L46.6,114.4L48.9,115.9L51.1,117.0L51.6,117.0L51.9,117.3L53.5,117.9L56.6,118.6L59.0,119.0L64.9,119.0L66.3,118.7L68.3,118.4L69.5,118.1L72.2,117.2L75.0,115.9L78.2,113.7L81.2,110.8L83.0,108.4L84.6,105.7L85.9,102.5L86.5,100.1L86.9,97.1L86.8,93.6L86.6,92.7L86.5,92.5L86.5,91.9L86.0,90.0L86.2,89.9L86.7,89.9L86.9,90.1L87.5,90.3L88.0,90.6L92.0,91.7L95.0,91.9L97.2,91.8L100.0,91.5L101.1,91.1L101.8,91.0L102.3,90.8L102.6,90.8L103.9,90.2L104.6,90.0L105.0,89.7L105.4,89.6L107.0,88.8L109.0,87.5L111.0,85.8L113.5,83.3L114.9,81.3L115.8,79.7L116.5,78.4L117.0,76.9L117.2,76.6L118.1,73.9L118.7,70.7L118.7,66.5L118.9,65.4L118.9,63.5L118.7,61.9L118.4,60.8L118.2,59.5L117.7,57.5L117.5,57.3L117.0,55.8L116.3,54.4L115.1,52.2L113.5,49.9L110.3,46.5L109.2,45.6L106.7,43.9L105.9,43.5L104.8,43.1L103.4,42.4L102.9,42.3L100.7,41.6L99.2,41.3L98.4,41.1L96.0,40.9L93.3,41.0L89.3,41.8L89.2,41.7L89.2,41.4L89.6,40.7L90.3,38.6L90.8,36.6L91.1,34.4L91.0,30.3L90.3,27.0L89.6,24.8L88.6,22.7L87.4,20.6L86.3,19.0L83.5,16.1L81.7,14.5L79.6,13.1L76.2,11.3L74.5,10.6L72.6,10.1L71.5,9.9L71.0,9.7L68.7,9.4Z M57.3,71.6L57.6,71.6L57.7,71.7L57.8,93.6L58.0,94.3L59.1,94.5L64.4,94.5L64.7,94.2L64.8,87.5L64.6,83.7L64.8,82.4L64.8,77.6L65.1,77.2L65.4,77.1L66.2,77.2L67.7,77.6L68.0,77.9L68.9,78.1L70.9,79.1L73.1,80.6L74.4,81.7L76.1,83.5L77.7,85.8L78.5,87.5L79.4,90.4L79.8,93.4L79.8,95.2L79.5,98.0L79.0,99.9L78.5,101.2L77.1,104.0L76.2,105.2L74.5,107.0L72.2,108.8L69.2,110.3L66.1,111.3L65.0,111.4L63.5,111.7L59.7,111.6L58.9,111.4L57.4,111.2L56.5,110.9L56.1,110.9L54.1,110.2L53.6,109.9L53.0,109.7L50.3,108.1L47.8,105.8L46.2,103.7L45.5,102.4L44.5,100.3L44.2,99.2L43.7,96.3L43.6,93.9L43.8,92.0L44.5,89.2L44.9,88.1L45.7,86.6L47.2,84.5L48.1,83.5L52.2,79.3L54.0,77.1L55.7,74.7L55.9,74.0L56.7,72.6L57.0,71.9Z M59.1,59.3L60.3,59.2L62.2,59.6L65.4,59.9L67.9,59.8L68.5,59.9L69.0,60.3L69.0,61.0L68.4,63.8L68.2,67.7L68.3,69.5L68.1,69.8L67.8,70.0L67.4,70.0L66.0,69.7L62.8,69.3L59.0,69.3L58.4,69.2L58.0,68.8L58.8,64.7L59.0,59.5Z M90.4,48.4L92.2,48.2L95.3,48.2L97.4,48.4L100.5,49.3L103.4,50.8L104.6,51.6L105.6,52.4L107.6,54.5L108.8,56.4L109.9,58.7L110.6,60.6L111.0,62.4L111.2,64.4L111.3,67.4L110.9,70.3L110.3,72.6L109.5,74.7L108.6,76.4L106.5,79.3L105.4,80.3L103.3,82.0L100.3,83.5L97.7,84.2L94.9,84.5L91.8,84.4L89.7,84.0L89.3,83.7L88.3,83.5L86.9,82.9L85.2,81.9L83.0,80.3L79.6,77.3L78.0,75.7L75.3,73.5L73.4,72.3L72.4,71.9L71.7,71.4L70.6,71.1L70.2,70.7L70.4,70.4L70.9,70.3L88.8,70.3L93.2,70.2L93.7,69.9L93.8,64.2L93.7,63.6L93.2,63.3L76.5,63.3L76.1,62.8L76.4,60.7L76.6,60.3L77.3,58.1L78.1,56.7L79.6,54.5L82.1,52.1L84.7,50.4L87.4,49.1Z M28.7,44.5L31.0,44.1L34.1,44.1L36.3,44.5L37.6,44.8L38.1,45.1L38.6,45.2L40.7,46.3L42.5,47.5L45.2,49.8L46.0,50.6L49.1,53.4L51.3,55.2L53.9,57.0L56.6,58.2L56.7,58.5L56.5,58.7L46.0,58.7L45.1,58.5L41.4,58.6L34.2,58.3L33.7,58.7L33.6,64.2L33.7,64.9L34.0,65.2L38.6,65.3L40.6,65.5L49.3,65.6L50.5,65.6L50.8,65.8L51.0,66.5L50.8,67.6L50.1,70.1L48.9,72.3L47.9,73.9L46.1,75.8L43.5,77.8L41.6,78.8L39.9,79.4L39.6,79.4L39.0,79.8L38.3,79.8L37.2,80.2L35.7,80.3L33.3,80.3L32.7,80.2L31.5,80.2L28.2,79.3L27.6,78.9L26.9,78.8L26.6,78.5L25.6,78.1L22.8,76.2L21.6,74.9L20.4,73.4L18.7,70.8L18.6,70.2L18.0,69.2L17.3,67.2L16.7,63.5L16.7,59.7L16.9,58.9L17.1,57.3L17.4,56.4L17.6,55.4L17.9,54.8L18.4,53.2L20.0,50.5L21.1,49.1L22.9,47.4L25.0,46.0L26.9,45.1L27.7,45.0Z M61.1,17.2L63.8,16.8L67.9,16.9L68.8,17.2L70.4,17.4L71.1,17.7L72.1,17.9L74.1,18.7L75.8,19.7L77.7,21.0L79.0,22.3L80.5,24.2L82.2,26.9L82.9,28.9L83.4,30.9L83.6,32.2L83.6,35.3L83.4,35.8L83.4,36.7L82.8,39.0L81.8,41.2L80.9,42.7L79.1,45.0L77.3,46.8L73.2,51.6L71.2,54.7L69.9,57.8L69.6,58.1L69.5,58.1L69.2,57.8L69.1,57.3L69.1,34.9L68.8,34.5L63.8,34.4L62.3,34.4L62.1,34.6L61.9,36.0L62.0,50.0L61.9,51.5L61.5,51.9L60.3,51.8L58.8,51.4L58.0,51.0L57.5,50.9L56.4,50.3L55.7,50.0L53.4,48.3L51.4,46.3L49.5,43.6L48.6,41.8L47.7,39.1L47.2,35.7L47.2,33.9L47.5,32.3L47.5,31.5L48.1,28.4L48.6,27.1L49.5,25.2L50.8,23.4L51.6,22.5L54.2,20.2L55.7,19.3L57.6,18.3Z" fill="#000" fill-rule="evenodd"/>
</svg>