<svg xmlns="http://www.w3.org/2000/svg" viewBox="0 0 128 128" width="128" height="128">
  <path d="M48.5,102.2L48.3,103.3L47.8,104.2L47.8,104.9L47.3,107.6L47.3,109.1L47.7,111.9L48.6,114.4L49.4,115.8L50.8,117.2L51.7,117.7L52.5,118.5L53.0,118.5L54.1,118.9L55.2,119.0L72.9,118.9L74.3,119.1L78.0,118.9L78.2,118.1L78.1,114.5L77.7,114.1L76.9,113.9L76.5,113.5L76.5,113.4L77.7,111.6L78.4,109.0L78.5,107.9L78.3,105.3L78.0,104.1L77.6,103.6L77.5,103.0L77.0,102.1L76.4,101.4L74.6,99.7L73.0,99.0L72.6,98.6L69.9,98.0L68.1,97.7L64.8,97.7L63.8,98.1L62.4,98.5L61.9,98.8L61.3,99.0L59.3,100.3L57.0,103.2L56.4,104.6L56.2,106.0L55.9,106.5L55.9,108.3L56.2,109.4L56.4,110.8L56.8,112.0L57.7,113.1L57.6,113.8L57.5,114.0L57.0,114.1L55.1,114.0L53.2,113.2L52.1,111.9L51.4,110.1L51.4,107.4L51.9,105.9L52.5,105.0L54.1,103.6L54.0,98.6L53.8,98.5L53.3,98.5L52.9,98.7L52.5,98.7L51.7,99.0L50.5,99.9L49.5,101.0Z M62.6,103.7L64.3,102.9L66.1,102.7L68.5,102.8L68.9,102.9L70.4,103.1L71.5,103.7L73.1,105.3L73.5,105.9L74.0,107.9L74.0,108.7L73.8,110.0L73.5,110.7L72.9,111.7L71.4,113.3L70.8,113.7L68.8,114.3L64.7,114.3L63.9,114.0L62.2,113.1L61.0,111.8L60.5,110.9L60.4,109.9L60.1,108.5L60.1,107.8L60.4,106.6L61.0,105.5Z M74.5,90.5L73.8,91.1L72.7,92.4L72.4,93.0L72.4,93.5L72.6,93.9L74.8,96.1L75.1,96.3L75.8,96.3L76.5,95.8L77.2,95.6L77.6,95.3L77.7,93.9L77.6,91.4L77.2,90.9L75.9,90.8L75.0,90.5Z M24.2,82.1L23.3,82.9L22.4,83.7L21.1,85.4L20.0,87.5L19.9,88.5L19.5,89.3L19.4,89.5L19.0,89.5L18.4,88.8L18.0,88.7L17.5,88.8L15.2,91.1L14.9,91.5L15.0,92.2L16.4,93.8L18.6,96.0L19.2,96.7L21.3,98.7L21.5,99.0L22.9,100.4L23.7,101.4L29.4,107.0L31.1,108.6L34.1,110.0L36.7,110.1L38.7,109.6L40.7,108.5L42.0,107.5L44.5,105.2L45.5,103.9L46.4,102.4L46.9,101.1L47.1,99.4L47.0,97.7L46.8,96.6L46.4,95.8L45.8,95.1L45.4,95.0L45.1,95.2L42.2,98.1L42.1,99.2L42.4,100.2L42.4,100.7L41.1,102.8L39.6,104.5L38.0,105.4L36.4,105.9L35.6,105.8L34.6,105.3L32.2,103.1L32.2,102.8L32.4,102.6L33.8,102.1L34.7,102.0L35.2,101.6L36.7,101.0L38.6,99.3L39.4,98.3L39.7,97.4L40.3,96.5L40.8,94.5L40.9,92.2L40.5,89.7L39.3,87.2L37.5,85.0L35.6,83.3L34.2,82.4L33.7,82.2L33.2,81.8L32.2,81.4L31.1,81.2L28.2,81.1L26.3,81.3Z M28.1,85.7L29.7,85.8L32.2,86.8L34.5,89.2L35.2,90.1L35.8,91.4L36.0,92.7L36.0,94.4L35.7,95.5L35.2,96.4L33.9,97.9L33.1,98.4L31.0,99.3L29.5,99.2L28.9,98.9L28.2,98.7L27.0,97.9L25.0,96.0L24.1,94.8L23.5,93.8L23.1,92.6L22.9,91.6L23.1,90.1L23.9,88.5L25.2,87.1L26.3,86.3Z M101.4,80.8L99.4,80.3L97.9,80.3L97.4,80.6L95.7,80.9L94.9,81.3L94.5,81.7L94.4,82.0L95.0,83.0L97.7,85.7L98.3,85.8L99.3,85.4L100.7,85.4L102.5,86.8L103.8,88.2L104.9,90.1L105.1,90.8L105.1,91.7L104.3,93.5L103.7,94.4L102.9,95.2L102.3,95.3L102.0,95.0L101.5,93.5L101.4,92.9L100.9,92.1L100.7,91.4L99.6,90.0L98.3,88.7L96.8,87.8L94.5,87.0L93.3,86.7L91.6,86.7L89.8,87.1L87.6,88.1L87.2,88.5L84.9,90.0L83.5,91.5L82.7,92.7L81.8,93.7L80.7,96.1L80.3,97.8L80.3,100.2L80.6,102.0L80.9,102.8L81.6,103.7L82.0,104.6L83.0,105.9L83.9,106.8L85.3,107.5L86.0,108.0L86.9,108.2L87.7,108.6L88.5,108.7L88.6,108.8L88.6,109.2L88.2,110.0L88.2,110.6L89.9,112.5L91.0,113.4L91.6,113.3L93.7,111.4L102.1,102.9L104.1,101.1L107.5,97.7L108.6,96.4L109.5,94.6L109.9,93.1L109.8,90.1L108.8,87.5L107.7,86.0L105.7,83.9L103.9,82.2L103.3,81.7L102.0,81.2Z M94.1,91.8L96.4,93.1L97.5,94.3L98.6,96.8L98.5,98.3L98.2,99.4L97.8,100.1L96.6,101.5L95.0,103.1L92.8,104.8L91.9,105.0L90.0,105.0L88.7,104.6L88.2,104.3L88.0,104.3L87.0,103.5L85.7,101.8L85.5,101.2L85.2,100.2L85.2,98.8L85.5,98.2L85.6,97.3L86.2,96.4L86.6,95.5L87.2,94.7L89.0,93.1L91.6,91.9L93.4,91.8Z M34.8,73.2L33.7,74.3L32.3,76.1L32.3,76.5L32.6,76.9L32.7,77.8L33.0,78.1L33.9,78.2L36.8,78.2L37.1,78.0L37.4,77.3L37.4,76.1L37.6,75.7L37.5,74.8L35.6,73.3Z M66.5,52.9L62.3,52.9L60.3,53.5L59.3,54.0L59.1,54.2L58.3,54.5L56.6,55.7L55.1,57.1L53.9,58.8L53.7,59.6L53.1,60.8L52.6,63.4L52.6,65.1L52.9,65.9L52.9,66.8L53.5,68.7L54.0,69.4L54.4,70.5L55.2,71.7L56.8,73.1L59.8,74.9L60.9,75.1L62.4,75.6L64.0,75.7L66.6,75.2L67.6,74.7L68.6,74.4L69.5,73.7L71.1,72.8L72.1,71.8L73.8,69.4L74.1,68.4L74.6,67.2L74.6,66.7L75.0,65.5L75.1,63.7L75.0,62.5L74.7,61.8L74.7,61.2L73.9,59.0L72.4,56.6L71.2,55.3L70.1,54.7L69.5,54.1L69.0,54.0L68.6,53.6Z M64.9,57.9L66.7,58.4L67.4,58.9L68.7,60.3L69.7,62.4L69.8,65.1L69.5,66.1L68.7,67.8L68.1,68.6L67.4,69.2L65.7,70.0L63.6,70.5L62.2,70.2L60.2,69.3L58.8,67.9L57.9,65.9L57.7,64.7L57.8,62.9L58.1,62.0L58.8,60.7L60.7,58.8L62.0,58.2L62.8,57.9Z M95.0,49.8L91.0,49.8L90.5,50.4L90.4,50.7L90.4,51.6L90.3,52.1L90.3,53.3L90.8,53.8L91.3,54.0L92.3,54.9L92.9,54.9L93.3,54.7L95.6,52.4L95.8,52.1L95.8,51.5L95.5,51.1L95.4,50.4Z M104.3,48.8L102.5,49.7L102.1,49.8L101.1,50.5L99.3,52.4L98.8,53.7L98.1,54.8L97.5,57.2L97.2,58.7L97.2,62.2L97.9,65.1L98.8,67.0L99.6,68.0L100.0,68.6L101.4,69.9L102.6,70.6L103.5,70.8L103.9,71.0L104.9,71.4L107.2,71.5L110.2,71.0L111.0,70.5L111.9,70.1L112.7,69.7L113.1,69.8L113.2,70.7L113.2,72.2L112.9,73.3L112.4,74.1L111.2,75.2L109.9,75.7L108.6,75.8L107.0,75.8L105.0,75.4L104.6,75.2L103.8,74.5L103.3,73.4L102.6,73.1L101.9,73.1L98.3,73.3L97.9,73.7L98.0,74.8L98.7,76.1L98.8,76.5L99.8,77.8L102.1,79.3L105.2,80.1L107.3,80.3L109.0,80.3L112.4,79.8L113.6,79.3L114.0,78.9L114.8,78.6L116.3,77.3L117.0,76.4L117.2,75.6L117.4,75.4L117.9,73.0L118.3,67.1L118.3,62.3L118.5,60.2L118.5,55.3L118.3,53.0L118.4,49.2L118.2,48.9L117.6,48.8L115.0,48.8L114.1,48.9L113.7,49.4L113.6,50.0L113.2,50.3L113.0,50.3L111.9,49.8L111.6,49.5L110.7,49.1L108.7,48.6L107.7,48.5L106.4,48.5L104.9,48.8Z M108.8,53.0L110.7,53.6L111.1,53.9L112.6,55.3L113.0,56.0L113.4,57.2L113.6,58.7L113.5,62.0L113.3,63.2L113.0,64.2L111.3,66.0L110.7,66.4L109.3,66.8L107.3,67.0L106.0,66.8L105.2,66.4L104.3,65.7L103.3,64.6L102.8,63.8L102.6,62.9L102.3,62.2L102.2,60.8L102.2,59.3L102.3,58.2L102.8,56.6L103.2,55.7L103.9,54.9L105.6,53.6L107.5,53.0Z M25.9,49.1L24.4,48.6L22.9,48.5L21.4,48.1L18.1,48.4L15.2,49.2L13.5,50.0L11.8,51.5L10.8,52.8L10.1,55.0L10.0,59.8L9.8,61.1L9.9,66.4L9.7,77.5L9.9,78.3L10.3,78.8L13.8,78.9L14.0,78.8L14.4,78.3L14.7,77.4L15.3,77.4L16.6,78.2L18.1,78.9L18.7,79.0L19.6,79.3L20.4,79.4L22.7,79.3L23.8,78.9L24.4,78.5L25.3,78.2L26.4,77.4L26.8,77.2L28.4,75.6L29.6,73.6L30.2,71.8L30.6,70.2L30.8,68.8L30.8,66.6L30.6,65.2L30.2,63.9L30.1,63.1L29.0,60.8L28.3,59.9L26.7,58.4L26.2,58.3L25.3,57.8L25.0,57.4L23.1,56.9L20.3,56.8L19.3,57.0L17.2,57.6L15.4,58.5L15.1,58.5L14.8,58.3L14.8,57.9L14.8,56.1L15.6,53.9L16.7,52.8L17.8,52.4L19.1,52.2L21.1,52.2L22.0,52.3L23.5,53.0L25.3,54.8L26.0,54.9L29.6,54.9L29.8,54.6L29.8,54.1L29.5,53.5L29.3,52.8L28.5,51.4L26.7,49.6Z M18.8,61.1L21.0,61.0L22.3,61.4L23.0,61.8L24.1,62.8L25.2,64.3L25.7,65.5L25.8,66.3L25.8,69.8L25.0,72.1L24.6,72.6L22.7,74.4L20.5,75.0L19.1,74.9L17.5,74.4L16.6,73.8L15.4,72.4L15.2,72.0L15.0,71.3L14.9,65.3L15.3,63.5L15.6,63.1L16.9,61.9L17.9,61.3Z M51.7,32.1L50.8,32.5L50.4,32.9L50.2,33.4L50.2,37.1L50.7,37.5L53.1,37.6L53.8,37.1L53.9,36.7L55.0,35.6L55.1,34.9L52.3,32.1Z M66.2,31.5L64.5,31.5L63.5,31.7L61.8,32.4L61.2,32.8L60.1,34.0L58.8,36.6L58.7,37.5L58.2,39.3L58.2,40.0L58.0,40.8L57.8,42.4L57.4,43.9L57.0,44.8L56.4,45.5L55.6,45.5L53.9,44.7L52.5,43.5L50.3,42.1L49.1,41.1L47.0,40.2L45.8,39.9L43.7,40.0L41.2,41.0L40.3,42.0L39.2,43.9L38.4,46.3L38.4,48.4L39.0,50.5L40.2,52.6L40.7,53.2L41.1,54.0L41.1,54.5L40.9,54.8L40.5,54.9L39.8,55.3L38.3,55.3L36.6,55.8L34.7,56.8L33.0,58.7L32.2,60.3L31.8,61.9L32.1,64.4L32.4,65.5L33.2,66.8L33.7,67.4L34.5,68.0L35.2,68.4L35.9,68.9L36.9,69.3L39.1,69.7L40.2,70.0L42.1,70.1L42.5,70.4L43.4,70.6L44.9,71.4L45.3,71.9L45.3,73.1L44.8,74.4L43.6,75.8L41.3,79.0L40.3,81.2L40.1,82.3L39.8,83.3L39.8,84.2L40.3,85.9L41.3,87.8L42.2,88.5L44.5,89.9L45.3,90.1L47.4,90.1L49.4,89.7L50.6,89.0L51.4,88.8L53.3,87.3L53.9,87.1L54.2,87.4L54.3,87.6L54.3,88.4L54.6,89.2L54.7,90.6L55.1,91.9L55.7,92.9L56.9,94.5L57.5,95.1L59.3,96.3L61.0,96.9L62.2,96.9L63.5,96.9L65.5,96.1L66.6,95.2L68.0,93.5L68.9,91.2L69.1,89.7L69.5,88.6L69.5,88.0L69.8,86.3L70.2,85.1L70.3,84.5L70.8,83.4L71.2,82.9L72.2,82.9L73.8,83.5L76.1,85.4L77.7,86.3L78.7,87.1L81.4,88.4L83.8,88.4L84.6,88.0L85.4,87.9L87.2,86.6L88.2,85.5L88.6,84.8L89.3,83.2L89.4,82.2L89.4,79.9L89.2,78.7L88.7,77.3L86.7,74.2L86.7,73.5L87.5,73.3L89.0,73.1L89.4,72.9L90.5,72.7L92.0,72.1L93.0,71.4L94.2,70.3L95.4,68.9L96.1,67.0L96.2,65.5L96.2,64.0L96.0,63.0L95.0,61.2L94.2,60.3L92.1,59.0L91.5,58.7L90.0,58.5L88.9,58.1L86.1,57.9L84.2,57.4L83.8,57.1L83.1,57.0L82.5,56.2L82.5,55.3L82.8,54.6L83.5,53.6L83.9,52.7L85.6,50.7L86.4,49.7L87.0,48.3L87.3,48.0L87.7,47.2L88.0,46.0L88.2,45.7L88.2,44.1L88.0,43.5L87.7,42.2L86.6,40.5L85.7,39.6L84.4,38.7L82.6,38.1L80.7,37.9L77.8,38.5L76.6,39.3L76.1,39.4L74.3,40.7L73.7,40.9L73.2,40.3L73.0,38.6L72.7,37.1L72.4,36.5L72.2,35.8L71.6,34.8L70.4,33.3L69.4,32.4L67.4,31.6Z M65.7,36.4L67.2,36.9L68.2,37.9L68.7,39.6L69.0,42.2L68.6,44.5L68.2,45.2L67.4,46.4L66.1,47.9L66.1,48.5L67.3,50.4L68.1,51.5L68.8,52.1L70.2,52.2L71.6,51.9L72.5,51.9L73.3,51.6L73.8,50.9L73.8,49.4L74.0,48.5L74.7,47.2L75.0,46.4L76.2,45.0L78.0,43.4L79.7,42.8L80.5,42.7L81.6,43.0L82.6,43.7L82.8,44.6L82.7,46.0L81.0,48.9L79.5,51.0L78.0,53.6L77.6,54.5L77.3,55.7L77.3,57.1L77.6,58.7L78.0,59.6L78.7,60.4L81.0,61.7L82.1,62.0L83.1,62.4L86.1,62.6L88.1,63.3L88.9,63.3L90.0,63.8L90.9,64.9L91.1,65.4L91.1,66.2L90.8,66.9L90.5,67.4L89.7,68.0L88.4,68.6L87.1,68.7L86.0,69.0L84.9,69.1L83.5,68.7L83.0,68.4L81.4,67.7L79.7,66.2L79.1,66.2L76.4,68.3L75.9,69.0L75.8,70.2L76.0,71.0L76.1,72.2L76.6,73.8L77.1,74.1L79.1,74.3L80.6,74.9L82.8,76.7L83.7,77.8L84.5,79.3L84.8,80.2L84.8,81.2L84.5,81.8L83.5,82.8L82.9,83.0L82.1,83.0L81.7,82.8L80.7,82.5L80.0,82.1L78.0,80.5L76.3,79.5L75.6,78.8L74.6,78.2L73.8,77.9L73.3,77.6L71.8,77.3L70.5,77.3L69.9,77.6L68.9,77.8L67.8,78.5L67.0,79.5L65.9,81.7L65.3,83.6L65.3,84.7L64.9,86.5L64.6,87.5L64.6,88.1L64.0,90.3L63.7,90.7L62.7,91.6L62.3,91.8L61.2,91.8L60.6,91.5L59.9,90.9L59.3,90.1L58.7,87.5L58.7,85.9L58.9,84.9L58.9,84.3L59.8,82.6L60.0,82.0L61.4,80.5L61.6,80.1L61.6,79.7L60.0,77.6L59.1,76.1L58.8,76.0L58.2,76.0L57.3,76.2L54.6,76.5L54.2,76.9L53.9,79.0L53.0,81.3L51.9,82.6L50.0,84.5L48.7,85.3L47.5,85.5L46.0,85.2L45.5,84.9L45.0,84.3L44.9,83.6L44.9,82.4L45.5,81.1L47.8,77.8L48.7,76.8L49.6,75.2L49.7,74.8L50.0,74.4L50.6,72.3L50.6,71.0L50.4,70.3L50.1,69.6L49.2,68.2L47.9,67.1L47.0,66.6L46.2,66.4L45.8,66.2L42.9,65.9L40.9,65.5L38.8,64.8L38.6,64.6L37.7,64.2L37.2,63.7L36.8,62.9L36.7,62.2L37.3,61.0L38.6,59.9L39.6,59.4L40.7,59.2L43.6,59.3L44.4,59.5L46.8,60.8L48.0,62.0L48.6,62.0L48.9,61.8L49.4,61.3L51.1,60.2L51.8,59.4L51.9,59.1L51.8,56.4L51.6,54.9L51.4,54.6L51.1,54.5L49.3,54.2L47.5,53.6L45.8,52.3L44.5,51.1L43.6,49.8L43.2,48.7L43.0,47.5L43.1,46.9L43.5,46.0L44.4,45.2L45.8,45.2L46.4,45.5L46.9,45.9L47.5,46.1L49.2,47.4L53.4,50.2L54.1,50.3L54.6,50.6L55.6,50.8L57.2,50.8L58.5,50.6L59.9,49.4L60.9,48.4L61.2,47.8L61.3,47.3L61.7,46.7L62.3,44.2L62.7,40.9L63.2,39.2L64.0,37.5L64.8,36.6L65.3,36.4Z M88.1,18.4L85.5,20.4L84.7,21.2L84.4,21.3L84.4,21.5L82.2,23.7L81.3,25.0L80.6,26.9L80.4,28.3L80.4,30.2L80.6,31.1L81.2,32.0L81.4,32.8L81.8,33.1L82.3,33.0L85.4,30.1L85.6,29.5L85.6,29.1L85.4,28.5L85.4,27.4L85.6,26.6L86.9,25.0L88.1,23.8L89.3,22.9L89.9,22.8L90.4,22.5L91.2,22.2L91.9,22.2L93.0,22.6L94.8,23.9L95.4,24.4L95.5,24.9L95.3,25.2L94.2,25.6L93.7,25.9L93.0,26.0L91.7,26.6L90.5,27.4L88.8,29.3L88.6,29.9L87.7,31.1L87.1,32.8L86.9,34.5L86.9,35.9L87.1,37.7L87.7,39.4L88.4,40.5L88.8,40.9L89.2,41.7L91.2,43.9L93.0,45.3L93.5,45.5L95.3,46.5L95.9,46.8L96.4,46.8L97.9,47.2L99.9,47.2L103.0,46.4L105.4,44.7L106.7,43.4L107.7,41.8L108.5,39.8L108.5,39.3L108.6,38.9L108.9,38.7L109.4,38.7L110.0,39.1L110.7,39.0L111.5,38.4L113.4,36.4L113.5,35.8L113.3,35.5L111.6,33.7L106.0,28.2L98.2,20.2L96.7,18.9L96.2,18.7L95.6,18.1L94.3,17.6L93.4,17.5L91.2,17.5L89.7,17.8Z M96.4,28.8L98.9,28.9L99.5,29.3L99.9,29.4L100.9,29.9L101.7,30.5L103.5,32.5L104.3,33.6L105.0,35.4L105.0,37.1L104.5,38.6L104.0,39.4L102.9,40.6L101.8,41.4L101.2,41.6L100.6,41.9L99.6,42.2L98.8,42.2L97.6,41.9L97.3,41.7L96.3,41.3L95.6,40.7L94.8,40.2L93.5,38.8L92.4,37.2L91.9,35.6L91.8,34.1L92.0,33.1L92.5,32.0L93.6,30.5L94.2,30.0Z M101.5,24.5L101.8,24.6L101.7,24.8L101.4,24.7Z M36.8,14.6L36.4,14.6L36.0,15.0L21.5,29.9L19.7,32.0L18.8,34.3L18.6,36.4L18.6,37.8L18.8,38.3L20.5,41.7L22.0,43.4L23.4,44.9L25.1,46.2L27.5,47.5L28.8,47.7L29.2,47.8L30.1,47.8L31.4,47.4L32.9,46.6L33.4,46.1L33.4,45.7L31.1,43.2L30.2,42.4L29.7,42.3L28.5,42.8L27.4,42.6L25.8,41.6L24.1,39.8L23.7,39.0L23.3,37.9L23.2,36.1L23.5,35.1L24.1,33.9L25.2,32.8L25.5,32.7L26.0,32.7L26.3,33.0L26.7,34.7L27.5,36.2L28.9,38.1L30.2,39.3L31.7,40.3L32.2,40.5L32.7,40.8L34.4,41.2L36.0,41.3L38.8,40.5L40.3,39.9L43.2,37.7L45.3,35.5L45.7,34.7L46.1,34.2L46.8,32.8L46.9,32.1L47.4,31.1L47.5,30.2L47.5,28.7L47.4,28.2L47.3,27.1L46.8,25.4L46.0,23.6L45.1,22.4L43.2,20.9L41.8,20.1L40.1,19.7L39.6,19.5L39.4,19.3L39.4,18.7L39.7,18.2L39.6,17.6L39.0,16.8Z M39.0,23.4L40.8,24.3L41.6,25.2L42.5,26.6L42.8,27.3L42.8,29.2L42.2,31.1L41.7,32.2L40.0,34.0L39.8,34.5L38.9,35.4L38.5,35.5L37.6,36.2L36.1,36.6L33.5,36.2L31.5,34.9L29.8,32.6L29.5,31.5L29.5,29.9L29.9,28.8L30.9,27.1L33.3,24.8L34.1,24.2L35.5,23.5L37.2,23.1L37.8,23.1Z M78.8,12.5L78.2,11.7L76.9,10.4L75.1,9.5L73.2,9.1L63.5,9.1L49.9,9.5L49.5,10.0L49.3,13.6L50.0,14.3L50.5,14.6L50.6,15.1L50.2,15.5L49.4,17.2L48.9,18.5L48.7,19.9L48.8,22.0L49.5,24.1L49.9,25.1L50.7,26.3L51.6,27.1L51.7,27.3L53.4,29.0L55.5,29.9L58.3,30.6L61.8,30.7L63.2,30.4L65.7,29.6L67.6,28.6L68.5,27.9L69.1,27.3L70.7,24.7L70.8,24.2L71.2,23.2L71.5,22.0L71.5,18.6L71.2,17.5L69.9,14.6L70.4,14.2L72.1,14.2L73.0,14.5L73.8,15.0L75.1,16.3L75.6,17.1L75.9,18.0L76.0,20.4L75.8,21.5L75.1,22.8L73.6,24.3L73.3,25.6L73.4,29.4L73.8,29.6L74.6,29.6L75.5,29.3L77.4,27.9L78.7,26.4L79.3,25.6L79.4,24.8L80.0,23.3L80.2,20.9L80.2,16.8L79.6,14.2Z M56.1,14.9L58.0,14.2L59.8,14.1L63.2,14.2L64.1,14.4L65.2,14.9L66.5,16.3L66.8,16.9L67.2,18.5L67.2,20.4L67.0,21.6L66.3,23.1L64.4,24.8L63.2,25.0L62.2,25.5L58.5,25.5L57.3,25.1L57.0,25.1L55.4,24.1L54.4,23.1L53.6,21.6L53.4,19.7L53.5,18.8L54.2,16.8L54.8,16.0Z" fill="#000" fill-rule="evenodd"/>
</svg>