<svg xmlns="http://www.w3.org/2000/svg" viewBox="0 0 128 128" width="128" height="128">
  <path d="M59.2,83.6L58.9,84.0L58.8,118.0L59.1,118.6L60.1,118.9L61.8,118.9L62.7,119.0L68.2,118.9L68.6,118.7L68.9,118.2L69.0,115.1L69.1,84.4L68.9,83.8L68.5,83.7L60.0,83.5Z M46.8,71.7L46.6,71.9L46.5,72.3L46.5,88.8L46.2,90.4L46.4,92.1L46.3,114.7L46.5,115.6L46.9,116.0L49.4,116.9L50.5,117.0L52.8,117.8L54.1,117.9L54.7,118.2L56.4,118.2L56.7,117.8L56.9,104.8L56.9,81.9L57.5,81.4L69.6,81.5L70.7,81.6L71.1,82.1L71.2,82.8L71.0,94.9L71.0,118.1L71.4,118.5L72.7,118.5L78.6,117.2L81.0,116.4L81.3,115.7L81.4,113.7L81.4,72.5L81.2,72.2L80.6,71.9L77.3,71.8L64.8,71.8L47.2,71.5Z M108.5,33.3L108.2,33.7L108.2,34.5L108.2,44.9L108.1,64.7L108.1,90.3L108.2,95.0L108.5,95.5L108.7,95.5L109.0,95.3L110.4,93.0L110.8,92.5L111.0,92.0L111.3,91.7L112.2,89.8L112.8,88.8L114.3,85.3L114.4,84.9L115.7,81.6L116.6,78.0L117.1,76.6L117.1,76.0L117.5,74.5L117.5,73.9L118.0,71.5L118.0,70.7L118.2,69.5L118.4,63.2L118.0,58.3L117.8,57.3L117.7,56.0L117.5,55.2L117.3,53.5L116.6,51.0L116.4,49.9L115.7,47.8L115.6,47.2L114.3,43.5L113.9,43.0L113.5,41.9L111.9,38.4L110.7,36.1L108.9,33.4Z M20.1,32.6L19.8,32.6L19.1,33.2L18.7,34.0L17.9,35.1L17.8,35.5L16.9,36.9L15.2,40.1L15.0,40.7L14.7,41.2L13.7,43.5L12.2,47.7L11.7,50.3L11.3,51.1L10.6,54.8L10.5,56.3L10.3,57.1L10.0,60.3L10.0,62.1L9.9,63.6L10.0,68.3L10.3,69.7L10.4,72.1L11.4,76.9L12.2,79.9L13.8,84.5L14.8,86.6L14.9,87.0L17.3,91.7L17.6,92.0L19.0,94.3L19.4,94.6L19.6,94.6L19.8,94.4L19.9,92.6L19.9,76.1L20.1,67.0L20.0,56.3L20.2,43.8L20.2,32.9Z M96.6,20.4L96.0,20.5L95.9,20.8L95.9,34.0L95.7,41.9L95.7,104.2L95.8,108.2L96.1,108.4L96.5,108.4L98.3,107.1L100.8,104.9L103.7,102.0L103.8,101.8L105.8,99.5L106.1,98.6L106.2,97.3L106.1,86.4L106.2,30.1L106.2,29.7L105.4,28.7L103.7,26.7L99.3,22.4Z M31.9,19.8L29.9,21.2L26.3,24.4L24.5,26.4L24.2,26.9L23.4,27.6L22.4,28.9L22.2,29.4L21.9,50.8L22.0,56.2L21.8,68.3L21.9,72.7L21.8,77.2L21.8,97.9L22.0,98.5L24.8,101.7L29.1,105.8L31.4,107.6L31.9,107.6L32.1,107.1L32.4,81.1L32.3,76.8L32.4,68.8L32.4,63.5L32.5,53.6L32.5,36.2L32.7,21.2L32.5,19.9Z M42.3,13.6L38.5,15.4L38.3,15.6L36.1,16.8L35.1,17.5L34.8,17.9L34.6,18.3L34.4,44.3L34.4,63.4L34.2,71.9L34.3,78.1L34.1,82.1L34.2,93.8L34.0,105.5L34.2,109.3L34.4,109.6L35.2,110.4L38.4,112.3L43.0,114.5L43.5,114.7L43.9,114.7L44.2,114.5L44.4,113.5L44.4,91.3L44.5,84.9L44.5,78.8L44.6,73.4L44.5,70.5L44.6,70.0L44.9,69.7L45.7,69.5L53.5,69.5L63.2,69.8L68.1,69.7L82.3,69.9L83.0,70.0L83.2,70.3L83.4,70.7L83.4,114.9L83.5,115.1L84.0,115.3L84.8,115.0L86.3,114.3L86.5,114.3L91.1,112.0L93.2,110.6L93.5,110.3L93.6,109.9L93.6,76.6L93.8,73.6L93.7,60.6L93.9,40.3L93.8,18.5L93.4,18.0L92.3,17.2L91.7,17.0L89.9,15.8L87.1,14.3L84.4,13.2L83.9,13.2L83.5,13.7L83.5,20.8L83.4,36.7L83.4,58.1L83.1,58.7L82.3,58.8L77.0,58.6L64.1,58.6L60.8,58.5L45.4,58.4L44.8,58.0L44.6,57.3L44.6,42.1L44.8,40.9L44.7,24.3L44.9,19.7L44.9,13.3L44.6,13.0L44.3,12.9Z M47.3,11.8L47.0,12.1L46.8,12.5L46.7,14.1L46.7,32.4L46.6,41.5L46.6,56.1L47.0,56.4L48.0,56.5L51.1,56.4L60.6,56.5L61.9,56.6L68.1,56.5L76.6,56.7L81.0,56.6L81.4,56.1L81.4,46.9L81.4,35.1L81.5,12.8L81.4,12.3L80.5,11.8L78.6,11.2L78.0,11.1L76.4,10.6L75.7,10.5L75.2,10.2L74.5,10.2L72.5,9.8L71.7,9.8L71.4,10.0L71.3,11.6L71.3,40.6L71.2,46.2L70.7,46.7L65.0,46.7L57.7,46.5L57.2,46.2L57.1,45.9L57.1,23.3L57.3,17.5L57.3,10.7L57.1,9.7L56.3,9.5L56.0,9.7L53.8,10.0L53.2,10.2L52.2,10.3L51.4,10.6L49.9,10.9Z M59.9,9.2L59.3,9.7L59.1,10.2L59.1,33.6L59.0,36.2L59.1,37.7L59.0,40.4L59.1,43.8L59.2,44.2L59.6,44.4L60.8,44.6L68.8,44.6L69.3,44.2L69.3,9.9L69.3,9.7L68.8,9.4L67.7,9.2Z" fill="#000" fill-rule="evenodd"/>
</svg>