<svg xmlns="http://www.w3.org/2000/svg" viewBox="0 0 128 128" width="128" height="128">
  <path d="M58.5,9.4L55.5,9.9L54.8,9.9L53.8,10.2L52.5,10.4L51.7,10.7L50.5,10.8L49.7,11.2L48.9,11.2L47.1,12.0L46.6,12.0L45.8,12.5L45.3,12.5L43.4,13.3L43.2,13.3L42.5,13.7L41.8,13.9L40.5,14.6L39.2,15.1L38.8,15.4L36.4,16.7L33.0,18.8L28.8,22.1L23.9,26.8L22.0,28.9L18.9,33.0L16.0,37.8L14.1,41.5L13.6,42.9L13.1,43.7L12.7,44.8L12.7,45.2L12.4,45.8L11.4,48.9L11.2,50.0L10.7,51.4L10.7,51.8L9.8,55.6L9.6,57.8L9.6,58.9L9.3,62.1L9.3,65.6L9.4,66.7L9.5,69.3L10.0,73.1L10.7,76.9L11.9,81.2L13.0,84.1L13.7,85.6L13.7,85.8L15.7,89.8L15.9,90.6L16.7,91.7L17.3,92.8L18.0,93.8L18.4,94.6L18.9,95.1L19.5,96.2L21.0,98.0L21.5,98.8L23.8,101.5L28.7,106.2L31.3,108.1L32.2,108.9L37.4,112.2L37.8,112.3L40.1,113.6L41.5,114.2L42.0,114.5L43.3,114.9L45.7,116.0L47.9,116.5L48.3,116.8L49.2,116.9L50.4,117.3L55.8,118.5L61.5,119.0L68.4,118.9L71.0,118.5L72.0,118.5L72.8,118.3L74.9,118.1L77.1,117.4L78.5,117.2L79.3,116.8L79.9,116.8L81.9,116.0L82.5,116.0L83.8,115.3L84.7,115.1L85.1,114.7L86.8,114.2L87.3,113.8L87.7,113.8L88.8,113.2L89.0,113.0L89.7,112.7L90.7,112.1L91.4,111.8L92.4,111.1L92.9,110.9L94.5,109.8L94.7,109.8L99.1,106.6L101.1,104.8L101.6,104.2L101.8,104.1L105.8,100.1L106.8,98.6L107.6,97.9L108.7,96.3L109.4,95.6L112.8,90.0L114.8,85.7L116.7,80.4L117.0,79.0L117.3,78.4L117.4,77.3L117.7,76.7L117.8,76.0L117.9,75.7L118.2,73.8L118.4,73.1L118.6,72.0L118.7,70.1L118.8,69.6L119.1,67.2L119.1,61.4L118.4,55.7L117.5,51.2L117.0,49.8L116.8,48.5L115.4,44.4L114.9,43.3L114.5,42.0L114.2,41.7L114.1,41.3L113.7,40.8L113.6,40.3L113.2,39.6L113.2,39.4L112.8,38.9L112.3,37.5L111.9,37.2L110.3,34.4L106.8,29.5L105.6,28.1L102.1,24.3L98.2,21.0L95.6,19.0L94.5,18.4L93.3,17.6L90.2,15.7L89.4,15.4L89.0,15.0L83.5,12.6L79.6,11.3L78.3,11.1L77.9,10.8L76.4,10.6L75.9,10.4L74.3,10.2L73.3,9.9L72.0,9.8L69.9,9.4L68.5,9.4L66.3,9.1L62.6,9.1L61.5,9.3Z M37.0,96.9L37.3,94.0L37.6,93.2L37.7,91.8L38.2,90.2L38.4,88.9L39.8,84.5L40.7,82.8L41.1,81.8L42.1,80.0L42.3,79.5L43.8,77.2L44.5,76.5L45.3,75.3L47.8,73.0L50.1,71.1L52.3,69.8L52.8,69.7L53.0,69.4L55.5,68.4L58.1,67.6L59.0,67.5L60.1,67.2L62.8,66.8L66.3,66.8L66.9,67.0L68.2,67.1L70.4,67.6L72.0,68.1L72.6,68.2L72.9,68.5L75.3,69.3L77.3,70.5L79.8,72.3L81.6,73.8L83.5,75.8L85.2,78.2L86.3,80.0L86.7,80.5L88.1,83.3L89.2,86.2L89.2,86.5L89.9,88.3L90.6,91.1L90.7,92.7L91.1,94.8L91.4,98.1L91.3,98.5L90.8,98.8L89.0,98.9L71.7,98.9L71.2,98.8L70.8,98.4L70.5,96.9L70.5,95.7L70.1,91.9L70.0,89.2L69.6,85.7L69.5,83.1L69.4,82.3L69.4,80.8L69.2,80.4L69.1,77.9L68.6,72.3L68.1,71.1L67.7,70.5L67.1,69.9L66.1,69.3L64.4,68.9L63.1,69.0L61.7,69.7L60.6,70.9L60.0,72.3L59.5,76.1L59.5,77.8L59.3,79.1L58.8,84.5L58.9,85.7L58.6,86.5L58.5,88.4L58.2,90.9L58.1,93.5L57.9,94.6L57.8,96.8L57.6,98.5L57.0,98.9L49.7,99.0L37.4,99.0L37.0,98.5Z M91.4,30.7L91.4,31.6L91.1,33.3L91.0,34.9L90.6,36.5L90.6,37.0L90.3,37.6L90.1,39.1L89.6,40.2L88.8,42.9L88.4,43.7L88.2,44.4L87.6,45.7L87.3,46.0L86.6,47.6L85.6,49.2L84.9,49.9L83.9,51.6L81.0,54.5L80.6,54.8L79.8,55.6L78.6,56.5L78.3,56.6L78.0,56.9L76.7,57.9L76.1,58.0L73.7,59.2L71.5,60.0L68.6,60.8L65.3,61.2L62.7,61.2L59.3,60.8L56.9,60.1L56.2,60.0L55.1,59.5L54.2,59.3L53.4,58.8L53.0,58.7L51.7,57.9L51.3,57.9L49.7,56.7L49.1,56.4L46.2,54.0L44.5,52.1L43.2,50.5L40.9,46.5L40.7,45.7L39.9,44.4L38.6,40.8L38.4,39.5L38.1,38.7L37.5,35.8L37.5,34.9L37.3,34.5L37.1,32.7L37.1,30.8L37.3,30.6L37.6,30.4L42.6,30.4L45.8,30.3L57.0,30.3L57.4,30.4L57.7,30.7L58.3,38.4L58.6,40.5L58.6,42.2L58.9,43.9L58.9,46.6L59.2,48.3L59.2,49.8L59.5,52.2L59.6,54.1L59.9,56.1L60.6,57.4L61.5,58.3L63.0,59.0L64.5,59.1L65.9,58.7L66.9,58.2L67.7,57.3L68.5,55.5L69.1,51.3L69.1,48.9L69.5,46.6L69.5,45.5L69.9,41.2L70.0,39.0L70.3,37.6L70.8,31.6L71.1,30.5L71.5,30.2L75.3,30.1L90.2,30.1L91.0,30.2Z" fill="#000" fill-rule="evenodd"/>
</svg>