<svg xmlns="http://www.w3.org/2000/svg" viewBox="0 0 128 128" width="128" height="128">
  <path d="M10.1,71.0L10.1,72.1L10.8,76.4L11.6,79.4L11.8,79.9L12.0,80.8L13.9,85.9L15.7,89.7L16.5,91.1L16.7,91.6L17.3,92.4L17.4,92.7L18.3,94.2L21.4,98.6L24.8,102.5L27.6,105.2L31.5,108.5L31.7,108.5L32.0,108.8L35.9,111.4L40.1,113.6L40.6,113.8L40.9,114.0L41.3,114.1L41.9,114.5L43.9,115.2L45.2,115.8L46.0,116.0L48.1,116.8L53.2,118.1L55.0,118.3L55.7,118.5L58.2,118.7L59.4,118.9L62.7,119.1L68.6,118.9L72.8,118.5L73.6,118.2L75.3,118.0L76.3,117.7L77.2,117.6L77.7,117.3L79.0,117.1L79.5,116.9L80.1,116.8L83.1,115.8L83.4,115.6L85.3,115.0L87.0,114.2L87.6,114.0L93.5,110.9L94.9,109.8L96.2,109.0L97.0,108.4L97.6,108.1L102.0,104.4L102.9,103.3L105.1,101.2L106.3,99.7L106.6,99.2L107.7,98.1L110.3,94.4L111.3,92.7L111.4,92.4L111.6,92.2L112.0,91.2L112.3,90.9L113.4,88.4L113.7,88.0L116.1,81.8L116.5,79.9L117.3,77.5L117.4,76.3L117.9,74.4L117.9,73.6L118.1,72.1L118.1,71.6L117.9,71.3L117.6,71.2L104.9,71.3L103.3,71.6L102.2,71.9L100.3,72.8L99.3,73.4L97.6,75.1L96.7,76.3L95.8,78.0L95.4,79.3L95.2,80.7L95.1,82.6L95.2,84.7L94.9,90.7L94.7,92.1L93.8,94.0L93.2,95.1L91.6,96.8L90.5,97.6L89.1,98.4L86.6,99.2L83.5,99.3L81.4,98.8L79.4,97.8L77.9,96.7L76.7,95.5L75.7,94.1L75.1,92.4L74.9,92.1L74.5,90.5L74.4,84.6L74.4,81.2L74.3,80.1L73.6,77.6L73.1,76.9L72.6,75.9L71.1,74.2L69.7,73.0L67.1,71.8L64.3,71.3L63.2,71.3L61.0,71.7L58.9,72.6L56.9,73.8L55.3,75.7L54.4,77.6L53.7,79.3L53.6,80.5L53.3,90.7L52.7,92.6L51.8,94.5L50.2,96.4L48.5,97.6L46.7,98.4L46.1,98.5L45.7,98.7L44.6,98.9L42.5,98.9L41.2,98.7L40.7,98.5L39.9,98.3L38.8,97.8L37.5,97.0L36.0,95.7L36.0,95.5L35.0,94.4L34.3,93.1L33.6,91.2L33.5,90.0L33.5,80.3L33.3,79.1L32.5,76.6L32.2,76.3L31.7,75.2L29.7,73.1L28.2,72.0L26.4,71.1L24.2,70.6L11.5,70.5L10.3,70.7Z M10.0,56.4L10.1,57.0L10.5,57.3L19.1,57.3L20.5,57.5L23.5,57.5L25.0,57.3L26.4,56.9L29.0,55.5L30.5,54.3L32.1,52.1L32.5,51.3L33.1,49.5L33.3,48.0L33.3,46.3L33.1,44.8L33.1,38.5L33.5,36.7L34.6,34.5L35.8,32.9L36.8,31.9L38.7,30.7L41.1,29.9L44.4,29.7L46.9,30.4L48.1,30.8L49.4,31.7L50.6,32.9L51.5,33.9L52.4,35.4L53.1,37.4L53.3,38.2L53.5,40.2L53.4,46.2L53.6,49.2L54.1,50.9L54.7,52.2L56.1,54.1L58.0,55.9L59.2,56.6L62.0,57.6L64.6,57.8L65.8,57.6L67.8,57.1L69.3,56.3L71.0,55.0L72.5,53.3L73.6,51.3L74.0,50.0L74.2,49.6L74.4,47.7L74.4,39.0L75.1,36.5L76.1,34.4L76.6,33.7L78.7,31.7L80.7,30.6L83.2,29.9L86.0,29.9L88.2,30.4L89.3,30.8L90.7,31.7L92.9,33.7L94.3,36.0L94.9,37.5L95.1,39.5L95.3,48.4L95.4,49.6L96.2,52.0L97.3,53.9L98.7,55.4L100.3,56.7L100.8,56.8L101.8,57.5L103.6,57.9L104.7,58.1L107.7,58.2L117.7,58.0L117.9,57.9L118.3,57.5L117.9,54.0L116.6,48.1L115.4,44.3L114.7,42.9L114.3,41.7L112.6,38.1L111.3,36.0L110.6,34.5L110.1,34.1L109.6,33.1L109.1,32.5L108.4,31.3L104.5,26.5L101.0,23.2L97.1,20.0L92.2,16.8L90.7,16.1L88.3,14.7L85.8,13.7L85.2,13.5L84.9,13.2L84.2,13.1L83.7,12.8L83.2,12.7L82.7,12.4L81.7,12.2L81.5,12.0L80.7,11.8L78.9,11.1L74.8,10.2L69.7,9.5L63.6,9.1L62.2,9.3L59.4,9.3L53.6,10.1L52.7,10.4L51.8,10.5L50.9,10.8L50.1,10.9L45.3,12.4L41.4,14.0L40.4,14.5L40.0,14.6L37.3,16.0L33.6,18.3L29.3,21.5L26.0,24.5L22.8,27.8L21.4,29.5L21.0,30.3L20.2,31.0L19.1,32.8L18.5,33.5L17.7,34.9L16.8,36.2L15.1,39.6L14.7,40.0L14.3,41.4L13.3,43.5L13.3,43.7L12.2,46.7L11.5,48.8L10.9,51.5L10.6,52.4Z" fill="#000" fill-rule="evenodd"/>
</svg>