<svg xmlns="http://www.w3.org/2000/svg" viewBox="0 0 128 128" width="128" height="128">
  <path d="M117.5,87.3L116.5,83.3L115.3,80.2L114.5,79.0L113.3,76.6L110.5,73.2L107.4,70.3L106.1,69.6L105.2,68.9L102.3,67.3L100.1,66.4L99.4,66.3L98.2,65.9L97.2,65.8L96.5,65.5L94.7,65.2L93.4,65.2L93.1,65.6L93.0,67.3L93.2,78.7L93.2,91.8L93.0,92.1L92.6,92.4L91.6,92.5L90.9,92.2L90.5,91.6L90.5,78.3L90.4,74.5L90.5,66.0L90.1,65.5L67.5,65.5L64.5,65.8L64.1,65.6L58.7,65.6L57.4,65.4L52.6,65.5L51.7,65.3L38.6,65.4L38.4,65.5L38.1,66.0L38.2,92.3L38.1,92.6L37.6,93.0L36.5,93.0L36.1,92.8L35.7,92.3L35.5,89.4L35.6,66.0L35.5,65.7L35.1,65.5L32.3,65.7L31.5,66.0L30.0,66.1L26.2,67.5L25.0,68.2L23.9,68.7L23.3,69.2L21.5,70.2L19.4,72.0L18.1,73.3L15.5,76.2L15.5,76.6L14.2,78.4L13.5,79.9L13.5,80.1L12.7,81.3L11.4,85.3L10.7,89.2L10.4,90.5L10.4,91.2L10.9,96.3L12.1,101.0L12.5,101.9L13.2,103.6L14.6,106.1L15.4,107.0L16.1,108.3L17.1,109.6L19.4,111.9L22.0,114.0L23.8,115.3L26.6,116.7L29.0,117.4L31.3,118.3L33.9,118.9L38.0,119.0L39.7,119.0L41.1,118.7L41.4,118.5L41.8,118.5L44.5,117.7L46.0,117.0L47.6,116.4L50.4,115.0L51.6,114.1L52.4,113.4L53.5,112.7L55.1,111.2L57.0,109.2L58.6,106.8L60.3,103.7L60.4,103.2L61.2,101.7L62.2,98.7L62.4,97.0L62.8,95.5L63.0,92.8L63.2,92.0L63.5,91.7L63.8,91.5L64.4,91.5L64.9,92.0L65.2,95.6L65.5,97.0L66.2,99.5L67.3,102.5L68.5,105.0L69.1,105.8L69.6,106.9L71.5,109.2L73.4,111.2L73.6,111.3L75.2,112.8L77.3,114.3L78.5,114.9L79.8,115.7L83.5,117.1L86.3,117.7L88.9,118.0L89.4,118.1L92.5,118.2L94.4,117.9L96.3,117.8L97.4,117.4L98.2,117.3L102.2,115.9L105.7,113.8L106.1,113.7L107.9,112.1L108.6,111.7L111.3,109.0L112.8,107.0L114.9,103.7L115.8,101.8L116.2,100.3L116.6,99.2L116.7,98.5L117.1,97.7L117.5,96.0L117.7,93.0L117.7,88.8Z M10.8,34.8L10.9,39.9L11.5,42.8L12.2,45.1L12.9,46.7L13.4,48.1L14.5,50.0L14.5,50.3L15.5,51.9L17.5,54.3L20.7,57.5L21.2,57.7L23.5,59.4L24.7,60.1L28.7,61.9L30.2,62.1L31.1,62.5L32.4,62.6L34.5,63.0L35.5,63.0L35.8,62.2L35.7,47.7L35.9,46.0L35.9,41.5L35.7,41.0L35.7,36.5L36.0,35.4L36.5,35.0L37.8,35.1L38.2,35.5L38.4,36.0L38.5,41.4L38.3,47.0L38.5,49.9L38.3,53.1L38.3,61.6L38.4,62.1L38.8,62.7L39.1,62.8L42.2,62.8L43.5,62.6L47.4,62.5L54.7,62.7L56.5,62.5L60.2,62.4L63.3,62.5L66.8,62.3L77.7,62.2L80.8,62.4L90.3,62.4L90.5,62.0L90.5,56.2L90.6,55.2L90.5,51.8L90.5,36.0L90.6,35.3L91.6,34.7L92.2,34.7L92.5,34.9L93.0,35.3L93.1,36.0L93.2,40.5L93.0,43.5L93.0,62.1L93.2,62.3L95.9,62.3L98.5,61.7L101.2,60.8L105.3,58.7L106.0,58.0L107.7,57.0L109.6,55.3L111.4,53.4L112.4,52.1L112.5,51.7L113.8,50.2L116.0,46.0L117.5,40.7L117.8,38.0L117.8,34.0L117.5,32.7L117.5,31.7L116.0,26.2L113.5,21.2L111.0,18.0L109.4,16.4L107.5,14.9L104.3,12.6L102.8,11.9L101.9,11.6L100.4,10.8L98.3,10.1L97.9,10.1L97.7,10.0L93.0,9.3L88.8,9.4L85.6,9.9L83.8,10.4L82.7,11.0L81.4,11.3L77.3,13.5L73.3,16.7L72.0,18.0L69.5,21.1L68.5,23.0L67.7,24.9L67.4,25.4L66.9,26.9L66.5,27.5L66.3,29.0L65.9,30.0L65.7,31.9L65.3,34.0L65.1,35.7L64.6,36.0L63.8,36.0L63.5,35.8L63.3,35.4L63.1,33.2L62.5,30.2L61.3,26.2L60.3,24.0L59.3,22.1L57.5,19.8L57.2,19.1L53.6,15.5L49.2,12.5L48.4,12.3L47.7,11.9L46.0,11.1L44.2,10.6L43.8,10.3L42.6,10.1L41.3,9.7L37.2,9.3L35.6,9.3L32.7,9.7L29.3,10.6L27.8,11.1L24.0,13.0L20.6,15.4L17.4,18.7L15.2,21.6L14.7,22.6L14.2,23.2L13.7,24.1L13.7,24.4L12.8,26.0L11.7,29.4L11.6,30.5L11.4,31.4L11.2,33.1Z" fill="#000" fill-rule="evenodd"/>
</svg>