<svg xmlns="http://www.w3.org/2000/svg" viewBox="0 0 128 128" width="128" height="128">
  <path d="M118.2,11.7L117.8,11.3L116.7,11.2L87.9,11.2L78.6,11.4L78.2,12.0L78.1,14.9L78.1,37.7L78.0,42.1L77.7,43.1L76.4,44.2L66.6,51.3L65.3,52.4L64.6,52.8L63.3,53.8L62.5,54.3L59.3,56.7L55.7,59.2L55.2,59.7L54.7,59.9L53.8,60.7L50.2,63.2L49.1,63.6L46.6,63.7L23.9,63.8L23.6,63.7L23.4,63.5L23.4,63.2L26.0,60.9L26.6,60.7L29.7,58.2L32.0,56.6L35.9,53.6L36.4,53.4L37.3,52.6L37.8,52.4L38.7,51.5L41.4,49.7L43.7,47.9L48.4,44.6L49.2,43.8L49.5,43.4L49.6,27.9L49.5,12.5L49.3,11.8L48.7,11.4L15.6,11.7L12.6,11.6L9.8,11.8L9.4,12.4L9.4,30.3L9.6,56.0L9.7,59.3L9.7,74.4L9.8,75.6L9.7,83.6L9.9,94.8L9.9,110.5L10.0,115.9L10.2,116.8L10.7,117.1L47.4,117.1L49.5,116.9L49.9,116.4L50.0,114.1L49.9,86.5L50.0,84.7L50.3,84.1L51.7,82.9L52.6,82.3L61.6,75.5L78.2,63.7L79.0,63.5L83.4,63.4L101.9,63.4L104.1,63.5L104.4,63.8L104.4,64.0L103.5,65.0L102.6,65.5L98.5,68.7L91.8,73.4L90.4,74.7L89.6,75.0L88.9,75.7L84.0,79.2L83.1,80.0L82.0,80.7L79.4,82.6L78.4,83.6L78.3,98.4L78.4,112.7L78.6,116.4L78.7,116.7L79.0,117.0L80.2,117.1L118.3,116.9L118.6,116.6L118.8,115.1L118.7,83.0L118.4,73.5L118.4,43.1L118.3,25.5L118.3,18.0Z" fill="#000" fill-rule="evenodd"/>
</svg>