<svg xmlns="http://www.w3.org/2000/svg" viewBox="0 0 128 128" width="128" height="128">
  <path d="M72.5,82.4L71.3,82.2L65.4,82.2L60.4,82.4L56.1,82.3L55.5,82.5L55.2,82.8L55.0,91.5L55.0,117.8L55.2,118.7L55.6,118.9L71.8,118.9L72.2,118.8L72.5,118.5L72.7,116.4L72.7,99.4L73.0,83.5L72.9,83.0Z M11.6,10.8L11.3,11.1L11.1,11.7L11.0,13.1L11.2,15.9L11.0,20.6L11.0,35.7L10.8,38.5L10.9,51.3L10.7,67.1L10.8,80.6L10.6,109.9L10.7,117.8L11.0,118.6L11.6,118.8L31.9,118.8L36.6,119.0L37.1,118.9L37.7,118.3L37.9,116.5L37.8,113.5L38.0,109.2L38.0,87.5L38.2,86.4L38.1,65.0L38.2,56.1L38.2,35.3L39.0,34.6L53.8,34.6L54.4,34.9L55.0,35.8L55.1,62.6L55.2,64.5L55.4,64.8L55.7,65.0L59.6,65.1L68.9,64.9L70.4,65.0L72.3,64.9L73.0,64.5L73.2,35.1L73.4,34.8L74.3,34.5L82.1,34.4L88.7,34.5L89.5,34.9L89.8,36.0L90.0,57.1L90.0,73.3L89.8,83.9L89.8,111.3L90.0,118.5L90.8,118.8L115.7,118.7L116.7,118.7L117.2,118.5L117.4,117.7L117.5,114.7L117.5,75.8L117.7,67.2L117.5,62.1L117.5,31.0L117.4,26.5L117.4,20.2L117.3,11.5L117.1,10.5L116.5,10.1L115.2,9.9L110.7,9.9L109.1,10.1L93.7,10.0L90.3,10.2L89.8,10.8L89.8,30.1L89.7,33.5L89.3,34.1L88.8,34.1L87.8,33.3L86.3,31.9L84.3,29.7L82.2,27.9L77.5,23.1L76.6,22.3L63.6,9.5L63.0,9.4L62.6,9.6L61.9,10.4L60.0,12.6L58.4,14.1L56.2,16.7L49.6,23.3L49.2,24.0L40.0,33.7L39.1,34.4L38.7,34.3L38.4,34.0L38.2,33.2L38.2,14.9L38.1,11.4L38.0,10.9L37.6,10.5L37.2,10.3L31.5,10.3L18.8,10.6L15.6,10.6L12.4,10.6Z" fill="#000" fill-rule="evenodd"/>
</svg>