<svg xmlns="http://www.w3.org/2000/svg" viewBox="0 0 128 128" width="128" height="128">
  <path d="M46.0,15.9L45.6,16.2L45.4,21.8L45.4,48.5L45.2,50.5L44.9,50.7L41.8,50.8L38.5,50.6L36.8,50.7L31.9,50.7L30.9,50.5L29.0,50.5L28.1,50.7L13.7,50.6L10.0,50.7L9.6,50.7L9.3,51.0L9.3,53.6L9.5,57.4L9.5,59.5L9.8,60.8L9.8,62.8L10.0,63.9L10.0,65.3L10.3,66.6L10.4,67.8L12.0,74.7L12.8,76.3L12.9,77.1L14.2,80.1L14.7,81.6L16.2,84.3L17.7,86.6L18.1,87.3L19.6,89.3L20.4,90.7L24.5,95.4L25.5,96.3L26.5,97.5L27.0,97.9L28.3,99.1L28.9,99.5L30.1,100.5L32.5,102.1L33.0,102.6L33.9,103.2L35.2,103.9L36.1,104.6L38.7,105.9L39.4,106.2L39.8,106.4L40.0,106.4L41.5,107.3L43.5,107.9L45.3,108.8L46.9,109.3L48.1,109.8L50.2,110.3L51.4,110.8L53.5,111.3L55.5,111.4L57.1,111.8L58.1,111.8L59.6,112.1L65.1,112.3L68.0,112.3L69.3,112.0L71.8,111.9L72.3,111.8L73.6,111.7L75.8,111.3L82.0,109.7L87.3,107.8L88.2,107.2L89.1,106.9L90.6,106.0L92.6,105.1L94.8,103.5L95.5,103.2L96.0,102.8L96.9,102.3L97.7,101.5L98.2,101.3L98.6,100.8L100.8,99.3L104.9,95.3L105.4,94.4L106.5,93.3L109.8,89.0L111.6,86.0L112.0,85.5L112.4,84.5L113.3,83.1L114.0,81.0L114.3,80.5L114.9,79.0L116.0,76.8L116.3,75.9L116.4,75.2L116.7,74.4L117.5,70.9L117.7,70.3L117.8,69.2L118.4,66.3L118.7,62.9L118.7,60.0L119.0,57.1L119.0,53.5L118.8,52.3L118.3,51.9L115.7,51.7L104.4,51.7L99.1,51.6L86.0,51.5L82.9,51.3L82.7,51.1L82.5,50.5L82.7,36.5L82.7,16.7L82.2,16.3L75.8,16.1L69.9,16.1L69.4,16.2L69.2,16.7L69.0,21.8L69.0,26.8L69.2,29.2L69.0,50.7L68.7,51.1L68.4,51.2L59.6,51.1L59.1,50.6L59.1,16.5L58.8,16.2L58.1,16.0L56.7,16.1L55.6,15.9Z M22.5,62.6L22.9,62.0L23.1,61.9L23.7,61.8L27.0,61.8L29.8,62.0L44.5,62.0L45.3,62.2L45.6,62.5L45.4,79.3L45.5,90.2L45.8,90.6L49.0,90.8L58.6,90.8L59.1,90.4L59.1,88.2L59.2,87.3L59.1,81.4L59.3,77.9L59.4,62.8L60.0,62.3L66.8,62.2L68.6,62.4L69.0,62.8L69.0,87.2L69.2,90.6L69.7,90.8L73.8,90.8L78.4,91.1L79.5,91.2L81.6,91.2L82.1,91.1L82.5,90.8L82.4,89.5L82.7,76.9L82.6,73.5L82.7,69.7L82.7,64.3L82.8,62.9L83.2,62.5L83.5,62.5L100.7,62.8L103.8,62.7L105.4,62.8L106.0,63.0L106.2,63.1L106.2,64.0L105.8,67.4L105.0,70.6L104.4,71.9L103.7,74.3L101.8,78.4L101.4,78.9L100.8,80.2L100.3,80.8L99.4,82.3L98.9,82.8L98.5,83.6L96.7,85.5L95.5,87.1L94.0,88.5L92.6,90.0L91.1,91.1L89.8,92.2L89.2,92.5L88.0,93.5L86.5,94.4L83.7,95.8L82.2,96.7L79.6,97.7L79.0,97.8L76.8,98.6L74.9,99.1L71.9,99.7L71.2,99.7L70.5,100.0L67.0,100.1L65.8,100.4L64.1,100.5L63.0,100.3L61.5,100.3L60.9,100.1L59.0,99.9L57.8,99.9L54.1,99.1L53.1,98.7L52.4,98.6L49.7,97.7L49.3,97.5L48.0,97.1L43.1,94.8L42.2,94.1L40.3,93.0L39.2,92.0L36.6,90.2L35.1,88.8L30.9,84.2L28.7,81.2L27.5,79.1L26.8,78.0L26.6,77.3L25.8,75.9L25.4,74.6L24.9,73.6L24.8,73.1L23.6,70.3L23.5,69.4L23.1,68.5L23.1,68.0L22.6,65.7Z" fill="#000" fill-rule="evenodd"/>
</svg>