<svg xmlns="http://www.w3.org/2000/svg" viewBox="0 0 128 128" width="128" height="128">
  <path d="M10.1,71.6L9.9,72.0L9.8,79.8L9.9,115.3L10.0,117.9L10.4,118.6L10.8,118.8L16.6,118.8L32.9,118.5L35.3,118.6L37.0,118.5L42.1,118.5L44.0,118.4L56.7,118.4L57.2,118.3L57.6,117.9L57.6,117.4L57.3,117.0L56.8,116.8L46.2,116.8L37.5,117.0L35.4,116.9L19.4,117.2L14.1,117.2L12.9,117.1L12.6,116.9L12.1,116.2L11.9,111.6L12.0,100.3L11.8,89.8L11.9,78.1L11.7,76.1L11.8,72.4L11.5,71.7L10.7,71.4Z M25.5,71.6L25.3,72.1L25.2,73.6L25.3,101.9L25.5,103.0L26.1,103.4L37.2,103.4L53.1,103.1L55.1,103.2L56.9,103.1L57.5,102.8L57.5,102.0L57.1,101.5L56.6,101.4L41.0,101.4L28.5,101.6L27.9,101.4L27.4,100.7L27.2,79.0L27.3,72.7L27.1,71.8L26.7,71.4L26.1,71.3Z M118.1,71.0L117.3,70.9L117.0,71.1L116.9,71.4L116.7,92.1L116.8,103.4L116.6,115.8L116.0,116.2L114.5,116.3L104.6,116.3L93.8,116.6L73.0,116.6L71.8,116.7L71.4,116.9L71.2,117.2L71.2,117.8L71.6,118.2L83.9,118.3L85.8,118.1L98.0,118.1L101.3,117.9L110.7,118.0L114.9,117.8L117.2,117.9L118.1,117.5L118.4,116.8L118.4,102.5L118.6,101.3L118.6,100.7L118.4,100.2L118.6,87.1L118.5,71.8Z M103.4,71.2L102.8,70.8L102.2,70.8L101.8,71.2L101.7,97.8L101.6,100.4L101.1,100.9L98.9,101.1L72.3,101.3L71.6,101.5L71.2,101.9L71.2,102.5L71.4,102.9L71.8,103.0L79.2,103.0L88.7,102.9L99.0,102.9L102.7,102.8L103.2,102.6L103.4,102.3L103.6,97.0L103.6,72.6Z M87.9,40.4L87.0,40.2L72.5,40.2L71.9,40.3L71.4,40.6L71.1,41.0L71.1,56.0L70.9,56.6L70.5,57.0L58.6,57.0L58.0,56.6L57.8,56.2L57.7,53.8L57.8,41.4L57.5,40.7L57.3,40.5L55.9,40.3L42.4,40.3L41.4,40.4L40.8,40.7L40.5,41.6L40.5,82.6L40.7,87.4L41.0,87.8L41.4,88.0L57.3,87.8L57.5,87.6L57.7,86.9L57.8,73.4L58.2,72.9L59.3,72.6L68.8,72.6L70.5,72.7L71.0,73.2L71.1,87.1L71.5,87.6L72.0,87.8L75.7,87.8L79.0,87.6L87.3,87.6L87.7,87.5L88.1,87.2L88.4,83.6L88.3,58.0L88.5,43.6L88.4,40.9Z M86.0,42.1L86.3,42.4L86.4,42.9L86.4,84.3L86.3,85.5L85.7,85.9L84.5,86.0L73.7,85.9L73.2,85.5L72.9,84.6L73.0,74.7L72.9,71.5L72.2,71.0L71.0,70.9L61.2,70.9L56.4,71.1L56.0,71.6L55.8,78.3L55.9,84.6L55.7,85.6L55.4,85.9L54.3,86.1L43.4,86.1L42.8,85.7L42.6,84.9L42.5,58.3L42.6,42.9L42.8,42.5L43.3,42.1L44.0,42.0L54.9,42.1L55.7,42.6L55.8,57.9L56.2,58.5L56.6,58.7L71.7,58.7L72.5,58.5L72.9,58.2L73.0,57.4L73.0,44.0L73.2,42.5L73.9,42.0L85.2,41.9Z M57.1,25.0L26.2,24.9L25.6,25.0L25.2,25.4L25.0,27.0L25.2,42.0L25.1,55.5L25.2,58.2L25.6,58.7L26.5,58.8L27.2,58.4L27.2,37.2L27.0,35.3L27.2,27.2L27.9,26.7L28.4,26.6L42.7,26.7L57.0,26.5L57.3,26.4L57.7,25.8L57.7,25.6Z M71.4,25.1L71.3,25.9L71.6,26.3L73.1,26.5L100.4,26.4L101.2,26.6L101.7,27.1L101.8,40.6L101.8,52.2L101.7,57.8L101.8,58.1L102.3,58.4L102.8,58.4L103.2,58.3L103.6,57.6L103.6,25.6L102.9,25.0L102.6,24.9L100.0,24.8L77.4,24.8L72.0,24.9Z M71.6,9.7L71.4,10.0L71.5,10.7L71.8,11.0L73.0,11.2L110.7,11.1L116.1,11.2L116.7,11.5L117.0,12.0L116.9,57.7L117.1,58.1L117.4,58.4L118.2,58.3L118.4,58.1L118.6,55.8L118.7,47.0L118.6,43.3L118.8,11.1L118.6,10.0L118.0,9.6L117.5,9.5L114.0,9.5L102.2,9.5L92.7,9.6L72.0,9.5Z M57.3,9.7L55.2,9.5L42.6,9.5L10.5,9.5L9.9,9.7L9.5,10.6L9.5,22.8L9.7,30.1L9.7,57.7L9.8,58.3L10.3,58.8L11.3,58.7L11.6,58.4L11.7,57.9L11.7,25.2L11.5,13.1L11.7,11.7L12.1,11.4L12.8,11.2L56.8,11.2L57.5,10.7L57.5,10.0Z" fill="#000" fill-rule="evenodd"/>
</svg>