<svg xmlns="http://www.w3.org/2000/svg" viewBox="0 0 128 128" width="128" height="128">
  <path d="M13.1,18.1L12.8,18.7L12.0,19.7L10.6,22.5L9.9,24.6L9.4,28.5L9.5,30.5L9.9,33.3L11.0,36.1L12.3,38.6L13.4,40.1L14.5,41.2L15.1,41.4L15.7,42.2L16.5,43.1L18.5,44.4L21.1,45.7L21.5,46.1L21.7,46.6L21.7,47.2L21.1,48.0L20.5,48.1L17.9,49.5L15.6,51.2L13.2,53.8L12.7,54.8L11.9,55.7L10.5,59.2L9.9,61.8L9.9,66.3L10.4,68.8L11.5,71.6L12.9,73.9L15.4,76.8L18.5,79.1L21.4,80.5L21.9,81.2L21.8,82.2L21.4,82.7L19.8,83.3L18.5,84.1L15.9,85.9L14.2,87.5L12.2,90.4L11.3,91.9L10.2,95.4L9.8,98.3L9.9,101.6L10.2,102.4L10.5,104.0L11.2,106.1L12.7,108.6L13.3,109.6L15.5,111.9L18.5,114.2L19.8,114.9L21.7,115.8L25.2,116.6L30.5,116.6L30.9,116.4L32.2,116.3L34.3,115.7L36.2,114.7L36.7,114.6L38.3,113.7L40.7,111.7L41.8,110.6L43.2,108.8L44.2,107.4L44.9,105.5L45.3,105.0L45.9,102.5L46.2,100.6L46.2,97.4L46.0,96.6L46.0,95.8L45.6,93.9L43.9,90.1L41.8,87.4L40.1,85.8L38.7,84.6L35.6,82.9L35.2,82.8L34.6,82.2L34.5,81.2L35.4,80.2L36.8,79.7L39.2,78.2L41.3,76.4L43.1,74.1L44.4,72.2L44.9,70.8L45.6,70.2L47.2,70.3L47.8,71.1L48.9,73.4L50.4,75.0L50.5,75.4L53.7,78.3L57.0,80.1L60.1,81.2L62.5,81.5L66.1,81.5L68.0,81.2L68.7,81.2L71.4,80.3L73.6,79.2L76.5,77.1L78.7,74.9L80.3,72.3L80.6,71.9L80.9,70.9L81.5,70.3L82.6,70.1L83.3,70.4L83.6,70.8L84.0,71.6L84.2,71.7L84.4,72.3L85.9,74.6L87.9,76.8L90.4,78.8L92.3,79.9L92.7,79.9L93.9,80.7L94.2,81.1L94.2,81.8L93.7,82.5L90.7,84.0L88.4,85.7L86.7,87.4L84.9,89.9L83.6,92.5L83.0,94.2L82.4,96.8L82.4,100.7L82.8,101.9L82.9,103.2L83.9,106.0L84.3,106.5L85.0,107.9L86.1,109.5L88.4,112.0L90.6,113.6L92.3,114.6L95.6,115.9L97.4,116.3L100.2,116.6L103.3,116.4L105.5,116.0L107.8,115.2L109.3,114.6L110.8,113.6L112.4,112.4L114.3,110.6L115.5,109.1L117.0,106.6L118.2,103.4L118.6,100.7L118.6,98.2L118.4,95.5L118.0,94.6L117.9,93.9L116.8,91.2L115.5,89.1L113.0,86.2L112.7,86.1L111.6,85.1L109.0,83.4L107.1,82.6L106.7,81.9L106.7,81.0L107.6,80.2L107.8,80.2L108.8,79.8L109.1,79.5L110.0,79.1L111.3,78.3L112.8,77.0L114.5,75.3L116.2,73.1L117.6,70.2L118.1,68.9L118.5,66.6L118.7,64.1L118.6,62.1L118.4,61.7L118.4,60.5L117.5,57.8L116.2,55.3L114.4,52.9L112.8,51.3L110.6,49.7L107.3,48.0L106.8,47.3L106.8,46.4L107.2,45.9L110.2,44.4L110.7,43.9L110.8,43.9L113.0,42.2L115.3,39.8L116.6,37.9L117.5,36.1L117.8,35.0L118.1,34.6L118.7,31.9L118.9,30.0L118.9,27.6L118.6,25.4L118.4,24.7L118.1,23.3L116.5,20.0L115.2,18.2L112.9,16.0L110.1,14.0L108.2,13.1L107.1,12.8L106.3,12.4L104.9,12.0L103.0,11.8L98.9,11.8L95.5,12.4L93.9,13.1L93.3,13.2L92.7,13.5L91.9,13.8L91.1,14.5L90.1,14.9L89.1,15.9L88.4,16.3L86.1,18.7L83.9,22.2L82.8,25.5L82.7,26.7L82.4,27.6L82.4,31.6L82.9,34.0L83.2,34.5L83.4,35.5L84.4,37.7L86.4,40.6L88.4,42.7L89.4,43.5L89.6,43.5L91.4,44.9L93.7,45.9L94.2,46.5L94.2,47.3L93.7,48.0L92.7,48.5L91.2,49.2L90.8,49.6L89.7,50.2L87.3,52.3L85.4,54.5L84.2,56.5L83.5,58.1L83.1,58.4L81.5,58.3L81.2,58.0L79.7,55.1L78.5,53.5L76.1,51.1L74.0,49.6L71.6,48.3L69.3,47.5L68.2,47.2L67.0,47.2L66.1,46.9L64.9,46.8L61.4,47.0L59.6,47.5L59.2,47.5L56.0,48.7L55.5,49.1L54.5,49.6L52.4,51.1L50.9,52.5L49.1,54.7L47.7,57.1L47.5,57.8L47.1,58.3L45.4,58.3L44.5,57.2L43.6,55.2L42.5,53.7L40.0,51.2L38.1,49.7L35.1,48.1L34.3,47.4L34.3,46.3L34.6,45.9L35.2,45.5L35.9,45.3L38.8,43.6L42.0,40.6L43.7,38.4L44.6,36.5L45.3,34.7L45.9,32.6L46.0,30.9L46.0,27.9L45.9,26.3L44.8,22.8L42.8,19.2L39.9,16.2L37.0,14.1L35.5,13.4L34.9,13.0L33.8,12.6L31.3,11.9L29.1,11.6L26.0,11.6L23.2,11.9L22.9,12.1L21.7,12.4L21.2,12.7L20.2,12.9L17.3,14.4L15.5,15.8Z M27.3,93.4L29.4,93.4L30.4,93.7L31.6,94.4L33.0,95.8L33.4,96.4L33.9,98.0L33.9,100.0L33.7,101.0L33.0,102.2L31.4,103.8L29.3,104.7L27.2,104.8L26.0,104.5L23.9,103.3L23.0,102.2L22.5,101.2L22.5,100.9L22.1,99.8L22.1,98.4L22.6,96.8L23.6,95.3L25.7,93.8Z M99.7,93.3L101.2,93.3L102.4,93.5L104.1,94.5L105.2,95.6L105.9,96.6L106.3,98.0L106.3,100.2L105.8,101.5L104.9,102.6L103.4,103.9L102.7,104.2L101.2,104.6L100.1,104.6L99.0,104.4L98.2,104.1L97.1,103.5L95.5,101.9L94.9,100.9L94.6,99.6L94.6,98.1L94.9,96.9L95.9,95.2L96.6,94.6L98.2,93.6Z M99.5,58.7L101.9,58.7L103.0,59.1L104.1,59.8L104.8,60.4L105.6,61.4L106.1,62.2L106.3,63.3L106.3,65.6L105.6,67.2L104.6,68.3L103.7,69.0L102.8,69.4L101.5,69.8L99.3,69.8L97.9,69.3L97.4,69.0L97.1,68.9L95.4,67.3L94.9,66.3L94.5,64.8L94.4,64.0L94.7,62.7L95.5,61.2L96.3,60.2L97.2,59.5Z M62.7,58.7L65.2,58.6L67.0,59.1L68.8,60.5L69.9,62.0L70.2,63.7L70.2,64.8L69.7,66.6L69.1,67.6L68.2,68.5L66.5,69.5L65.1,69.9L63.8,69.9L62.2,69.5L60.1,68.2L59.4,67.4L59.3,67.0L58.9,66.5L58.4,64.9L58.4,63.5L58.9,61.9L59.5,60.9L60.4,60.1L61.6,59.2Z M27.8,58.6L30.0,58.8L31.1,59.4L32.3,60.2L33.5,61.8L33.9,63.5L33.9,65.2L33.8,66.1L32.9,67.6L31.7,68.8L30.0,69.6L28.6,69.9L27.5,69.9L25.8,69.5L24.2,68.5L23.1,67.3L22.6,66.4L22.2,64.8L22.2,63.2L22.5,62.2L23.5,60.6L24.6,59.7L26.2,58.8Z M99.7,23.7L101.6,23.7L102.8,24.0L103.7,24.4L104.2,24.9L104.6,25.0L105.5,26.0L106.0,26.8L106.6,28.8L106.6,29.8L106.3,31.3L105.2,33.0L103.6,34.4L101.6,35.1L100.1,35.2L98.8,35.0L96.9,34.0L95.5,32.5L95.2,31.6L94.9,31.4L94.6,30.0L94.6,28.5L95.0,27.2L95.5,26.4L96.1,25.6L97.6,24.4L98.6,24.0Z M26.4,23.5L28.6,23.4L30.4,24.0L30.8,24.3L31.3,24.5L32.3,25.5L33.2,26.7L33.7,27.8L33.8,30.1L33.4,31.4L32.8,32.4L32.0,33.3L30.7,34.3L29.0,34.9L26.8,34.9L26.0,34.7L23.9,33.6L22.5,31.9L21.8,30.2L21.8,27.9L21.9,27.4L22.6,26.1L24.1,24.5L25.3,23.9Z" fill="#000" fill-rule="evenodd"/>
</svg>