<svg xmlns="http://www.w3.org/2000/svg" viewBox="0 0 128 128" width="128" height="128">
  <path d="M84.6,97.9L84.5,98.0L83.8,99.5L83.3,101.5L82.7,102.7L82.4,103.7L80.8,107.0L80.8,108.4L80.9,109.2L81.3,110.2L82.4,111.4L83.5,112.0L85.2,112.1L86.2,111.9L87.0,111.5L87.7,110.9L88.5,109.6L88.8,108.1L88.7,107.4L88.3,106.1L87.1,103.9L86.9,103.2L86.2,101.7L86.0,101.0L85.7,100.5L85.5,99.7L85.1,98.9L84.9,98.1Z M44.1,97.5L43.8,97.7L43.4,99.3L43.0,99.9L41.9,103.4L40.4,106.7L40.3,108.6L40.8,109.8L41.2,110.4L42.0,111.1L43.3,111.7L44.7,111.7L46.0,111.3L46.8,110.8L47.6,110.0L48.1,108.9L48.2,107.7L48.1,107.1L47.4,105.4L47.4,105.2L46.1,102.7L44.8,99.3L44.4,97.9Z M30.2,27.9L29.1,29.0L28.7,29.9L28.5,30.9L28.5,31.8L28.9,32.8L29.2,33.3L30.2,34.3L31.4,34.9L33.0,35.0L34.1,34.7L36.5,33.3L38.0,33.3L38.4,33.4L39.2,34.1L39.6,35.3L40.0,92.9L39.8,93.8L39.1,94.5L38.2,94.8L36.9,94.7L34.9,93.5L33.7,93.0L32.7,93.0L30.9,93.7L29.9,94.6L29.6,95.1L29.1,96.4L29.2,98.0L29.8,99.3L31.3,100.6L33.4,101.2L35.8,101.3L37.4,101.0L39.6,100.2L41.0,99.2L41.7,98.5L42.9,97.0L43.4,95.7L43.7,94.7L43.9,94.4L44.2,94.5L44.9,96.3L46.1,98.1L48.0,99.8L48.6,100.2L49.0,100.3L49.6,100.7L50.5,101.0L52.1,101.4L54.0,101.5L55.9,101.1L57.4,100.5L58.6,99.3L59.0,98.4L59.1,97.6L59.1,96.8L58.5,95.1L57.5,94.1L56.2,93.4L54.8,93.3L53.5,93.6L51.6,94.8L50.4,95.1L49.5,94.8L48.9,94.5L48.5,94.0L48.1,93.2L48.0,89.4L48.0,68.4L48.6,68.0L59.8,68.0L68.6,68.2L75.2,68.1L79.9,68.2L80.3,68.3L80.6,68.6L80.8,78.5L80.7,93.8L80.2,94.9L79.6,95.4L79.1,95.5L78.1,95.5L77.1,95.1L75.7,93.8L74.3,93.3L73.1,93.2L71.5,93.7L70.6,94.5L69.6,96.0L69.4,97.6L69.5,98.1L70.0,99.2L71.4,100.6L71.7,100.6L72.3,101.0L73.6,101.5L75.9,101.7L77.2,101.5L78.7,101.1L80.8,100.1L81.6,99.4L82.9,98.0L83.8,96.7L84.3,95.1L84.4,94.4L84.6,94.1L85.0,94.3L85.2,95.5L86.3,97.7L87.1,98.7L88.8,100.2L89.3,100.4L90.5,101.1L92.7,101.7L95.0,101.7L96.6,101.4L98.0,100.7L99.1,99.8L99.5,98.9L99.8,98.1L99.8,96.8L99.5,95.6L98.3,94.2L97.4,93.7L96.5,93.4L94.9,93.5L93.9,93.9L92.8,94.8L91.6,95.5L90.6,95.6L89.8,95.3L89.1,94.7L88.5,93.3L88.6,83.3L88.5,77.1L88.5,62.0L88.3,59.1L88.5,57.6L88.5,49.5L88.3,48.2L88.3,36.1L88.4,35.1L88.9,34.1L89.7,33.3L90.4,33.1L91.2,33.1L91.8,33.3L93.1,34.2L94.6,34.9L96.1,34.9L97.0,34.7L98.0,34.1L99.0,33.0L99.5,31.8L99.5,30.1L99.3,29.5L98.7,28.6L97.6,27.6L95.7,26.9L94.1,26.6L92.5,26.6L90.7,27.0L88.6,27.9L86.6,29.5L85.2,31.5L84.7,32.7L84.6,33.3L84.3,33.7L84.0,33.5L83.8,32.8L83.3,31.5L82.1,29.9L80.3,28.2L79.0,27.4L78.3,27.3L77.9,27.0L77.0,26.8L76.1,26.8L75.7,26.6L73.3,26.7L72.3,27.1L71.5,27.3L70.6,27.9L70.0,28.6L69.5,29.3L69.2,30.4L69.2,31.7L69.4,32.5L70.2,33.7L71.4,34.6L72.3,34.9L74.0,34.9L75.2,34.5L76.6,33.3L77.8,32.9L78.3,32.9L79.0,33.2L80.0,33.9L80.3,34.6L80.4,35.1L80.6,43.1L80.6,59.5L80.3,60.1L49.5,60.2L48.3,60.1L47.8,59.6L47.6,42.3L47.7,34.7L48.0,34.2L48.5,33.6L49.4,33.1L50.5,33.1L51.3,33.3L52.8,34.5L54.3,35.0L55.9,34.9L56.9,34.5L58.1,33.3L58.7,31.9L58.7,30.3L58.3,29.1L57.8,28.4L56.8,27.6L55.5,27.0L52.9,26.6L51.4,26.7L49.9,27.0L47.9,27.9L47.1,28.5L45.8,29.8L44.8,31.1L44.3,32.1L43.8,33.5L43.5,33.8L43.3,33.4L42.9,32.1L41.7,30.2L39.8,28.4L38.0,27.4L36.5,27.0L35.3,26.8L33.5,26.8L31.1,27.4Z M43.2,16.3L42.1,16.5L41.5,16.8L40.4,17.8L39.9,18.5L39.5,20.0L39.5,20.6L39.7,21.5L42.0,26.3L42.5,27.9L42.9,28.7L43.1,29.8L43.5,30.5L43.8,30.5L43.9,30.4L44.3,29.1L44.3,28.8L44.6,28.2L44.6,27.8L45.6,25.2L47.3,21.7L47.6,20.5L47.6,19.7L47.4,19.0L47.0,18.2L46.2,17.2L44.9,16.5Z M83.4,16.2L82.1,16.7L80.8,17.9L80.3,19.0L80.2,20.3L80.4,21.5L82.5,25.6L83.3,27.6L83.4,28.3L83.8,28.9L84.2,30.4L84.3,30.8L84.6,30.8L85.8,26.8L86.0,26.4L86.8,24.0L88.1,21.1L88.2,19.7L87.6,18.0L86.3,16.7L84.9,16.2Z M88.7,9.9L86.0,9.2L82.9,9.1L81.2,9.5L79.1,10.2L77.0,11.6L75.5,13.1L74.7,14.2L73.6,16.2L73.1,18.1L73.0,19.3L72.6,19.9L69.9,20.5L69.5,20.7L68.8,20.9L67.0,21.8L65.3,23.1L64.2,24.3L63.8,24.4L61.7,22.4L60.4,21.6L58.7,20.7L57.1,20.3L55.6,20.2L55.1,20.0L54.8,19.7L54.5,18.0L54.0,16.4L53.4,15.0L52.1,13.2L50.6,11.7L49.3,10.8L47.5,9.9L45.3,9.4L43.9,9.2L42.1,9.2L41.1,9.4L39.1,9.9L37.3,11.0L36.3,11.7L34.0,14.1L32.7,16.9L32.2,19.8L31.9,20.1L28.6,20.7L26.1,22.0L24.8,23.1L23.6,24.4L22.4,26.4L21.7,28.1L21.6,28.9L21.5,29.2L21.3,31.6L21.7,34.0L22.1,34.9L22.1,35.2L23.1,37.0L24.0,38.2L25.1,39.3L26.5,40.4L28.7,41.4L30.6,41.9L32.1,42.1L32.5,42.4L32.6,42.7L32.7,59.4L32.9,75.9L32.8,77.6L33.0,84.3L32.9,85.6L32.6,86.0L30.2,86.4L27.8,87.3L26.1,88.3L24.1,90.4L22.7,92.8L22.2,94.3L22.0,95.5L22.0,98.0L22.4,100.2L22.8,101.2L23.0,101.5L23.5,102.6L24.0,103.3L25.0,104.4L26.3,105.7L28.3,106.9L30.0,107.5L32.7,108.0L33.1,108.5L33.1,109.5L33.4,110.1L33.6,111.2L35.0,113.9L37.0,116.0L37.9,116.8L39.6,117.7L40.3,117.9L40.8,118.2L41.8,118.4L42.4,118.6L45.6,118.7L47.8,118.2L48.2,118.0L49.3,117.6L50.8,116.8L51.4,116.1L51.8,115.9L53.5,114.1L54.4,112.6L55.2,110.3L55.4,108.7L55.7,108.3L56.4,108.0L58.0,107.8L60.0,107.1L61.7,106.1L64.2,103.9L64.7,103.9L65.7,104.9L66.8,105.9L69.1,107.3L71.3,107.9L71.9,107.9L73.2,108.2L73.6,108.7L73.8,110.4L74.1,111.6L75.2,113.8L76.1,115.1L78.3,117.1L80.5,118.4L82.8,119.0L83.7,119.2L86.8,119.0L88.5,118.5L90.7,117.5L91.9,116.6L93.0,115.6L94.1,114.2L94.6,113.3L95.0,112.8L95.7,110.6L96.0,109.1L96.2,108.6L96.7,108.3L98.3,108.2L99.6,107.8L101.3,107.0L103.2,105.7L104.2,104.6L105.5,103.0L105.5,102.6L105.9,102.1L106.8,99.7L106.9,98.4L106.9,96.4L106.5,94.2L105.5,91.7L105.1,91.4L104.7,90.7L103.3,89.1L101.5,87.8L98.9,86.7L96.7,86.4L96.3,86.2L95.8,85.6L95.7,78.3L95.5,45.8L95.6,42.4L95.9,42.1L96.2,41.9L97.8,41.8L98.6,41.4L99.6,41.3L100.1,41.0L100.8,40.7L101.9,40.1L103.1,39.1L104.1,38.1L104.9,37.1L105.5,35.8L105.8,35.5L106.4,33.7L106.7,31.9L106.7,30.0L106.4,28.6L105.9,26.8L104.9,24.9L103.7,23.4L102.7,22.5L101.3,21.5L99.7,20.7L97.8,20.2L96.0,20.0L95.5,19.6L94.8,16.3L94.2,15.0L93.4,13.8L92.7,12.9L91.0,11.3L89.7,10.4Z M50.9,113.0L51.0,112.9L51.4,112.8L51.8,113.0L51.8,113.2L51.6,113.4L51.2,113.4Z M55.3,75.5L55.7,75.3L57.0,75.2L72.8,75.4L73.2,75.5L73.3,75.9L73.4,77.0L73.4,85.6L73.2,85.9L72.9,86.1L71.9,86.2L70.1,86.6L68.3,87.4L66.8,88.3L64.4,90.5L64.0,90.5L62.1,88.7L61.2,88.0L59.0,86.9L58.1,86.6L57.6,86.6L57.1,86.4L55.7,86.2L55.3,85.7L55.2,85.5L55.2,75.9Z M55.1,42.3L55.3,42.1L55.8,41.9L57.0,41.9L59.2,41.2L61.4,40.0L63.8,37.8L64.4,37.9L65.5,39.1L67.8,40.7L70.2,41.7L72.7,42.1L73.2,42.6L73.2,44.0L73.2,52.7L72.9,52.9L72.6,53.0L70.6,53.1L55.8,53.1L55.2,52.9L55.0,52.0L54.9,49.4L54.9,42.7Z M87.3,13.8L88.4,14.5L89.5,15.5L90.2,16.4L91.0,17.9L91.2,19.0L91.3,23.1L91.5,23.9L93.2,24.0L96.7,24.1L97.8,24.4L99.1,25.0L100.4,25.9L101.7,27.6L102.3,28.9L102.6,30.4L102.6,31.9L102.2,33.5L101.3,35.0L99.8,36.5L98.6,37.3L96.6,37.9L92.1,38.0L91.7,38.2L91.6,38.5L91.7,73.2L91.9,77.5L91.8,89.7L91.9,90.0L92.3,90.4L96.1,90.4L97.5,90.7L99.7,91.6L100.6,92.3L101.9,93.8L102.5,94.9L102.8,95.9L103.0,97.6L102.7,99.2L102.4,100.1L101.8,101.1L100.4,102.7L98.3,104.0L97.0,104.3L95.3,104.3L94.9,104.4L92.3,104.4L91.9,104.6L91.8,105.4L91.8,109.3L91.6,110.0L90.8,111.9L90.2,112.6L89.1,113.7L87.6,114.6L86.0,115.1L83.8,115.1L81.9,114.6L80.5,113.7L79.5,112.8L78.2,110.7L77.7,109.1L77.6,104.9L77.4,104.4L76.6,104.1L72.3,104.0L70.8,103.6L69.7,103.0L68.3,101.8L67.4,100.6L66.7,98.9L66.4,97.6L66.4,96.4L67.2,94.1L68.1,92.7L69.4,91.5L70.8,90.8L72.5,90.3L77.1,90.3L77.5,90.0L77.6,82.0L77.4,71.7L77.0,71.3L72.9,71.2L51.9,71.2L51.3,71.4L51.0,71.7L51.0,72.2L51.1,79.2L51.1,89.7L51.3,90.0L51.6,90.2L55.1,90.3L57.0,90.6L57.9,90.9L59.0,91.5L60.0,92.3L60.8,93.3L61.7,94.8L62.2,97.2L62.0,99.0L61.4,100.6L60.6,101.7L59.5,102.7L58.7,103.2L57.6,103.7L56.4,104.0L51.8,104.0L51.3,104.4L51.2,108.6L50.7,110.6L49.8,112.1L48.9,113.0L47.9,113.8L46.0,114.5L44.9,114.7L43.0,114.6L41.5,114.1L39.6,113.0L38.3,111.6L37.7,110.4L37.2,109.1L37.0,107.9L37.0,104.4L36.6,104.0L31.9,103.8L30.7,103.5L29.0,102.6L27.2,100.8L26.4,99.2L26.1,98.1L26.0,96.1L26.4,94.4L26.7,94.2L27.0,93.4L27.6,92.5L29.1,91.2L30.1,90.6L30.7,90.5L31.4,90.2L32.8,90.0L36.5,90.0L36.8,89.7L36.9,82.7L36.7,74.6L36.7,64.8L36.5,59.1L36.6,50.0L36.5,38.4L36.1,38.0L32.6,38.1L30.8,37.9L29.7,37.5L28.0,36.5L27.0,35.5L25.9,33.8L25.8,32.9L25.5,32.5L25.5,30.2L25.9,28.4L26.8,27.0L28.0,25.7L29.8,24.6L31.7,24.1L35.9,24.0L36.3,23.7L36.4,19.7L36.5,18.5L37.2,16.9L37.7,16.2L38.9,14.9L39.5,14.4L40.4,13.9L41.2,13.8L41.6,13.5L43.4,13.3L45.5,13.5L47.2,14.2L49.1,15.9L49.7,16.8L50.2,17.7L50.6,19.1L50.7,23.7L51.3,24.1L54.4,24.1L56.1,24.3L57.4,24.7L58.7,25.3L59.6,26.1L60.4,26.8L60.9,27.6L61.5,28.7L61.9,30.7L61.8,32.3L61.2,34.0L60.2,35.5L58.7,36.8L57.0,37.7L55.3,38.0L51.9,38.0L51.3,38.0L50.8,38.5L50.9,54.1L51.0,55.0L51.0,56.5L51.1,56.8L51.5,57.0L77.0,57.0L77.4,56.6L77.4,55.5L77.4,38.4L77.1,38.1L76.6,38.0L72.3,38.0L70.1,37.4L69.0,36.7L67.7,35.5L67.1,34.6L66.7,33.8L66.2,32.1L66.0,30.3L66.4,28.8L67.3,27.0L68.4,25.8L69.3,25.3L69.7,24.9L70.5,24.5L71.9,24.1L76.7,24.0L77.0,23.8L77.2,22.7L77.2,18.5L77.7,17.2L78.2,16.3L78.7,15.6L79.6,14.7L81.0,13.8L83.2,13.1L85.1,13.1L86.1,13.3L86.3,13.5Z" fill="#000" fill-rule="evenodd"/>
</svg>