<svg xmlns="http://www.w3.org/2000/svg" viewBox="0 0 128 128" width="128" height="128">
  <path d="M115.8,26.2L113.0,23.2L110.5,21.4L108.4,20.4L106.4,19.7L103.3,18.9L99.7,18.8L98.0,18.9L94.6,19.3L92.6,19.8L91.8,20.2L90.9,20.4L89.1,21.3L88.6,21.4L86.1,22.8L84.1,24.4L80.9,27.5L78.5,30.8L77.6,32.4L77.3,33.1L77.0,33.5L76.9,34.0L75.7,36.3L74.7,39.2L74.5,39.7L73.7,42.2L73.4,42.9L73.2,44.2L72.4,46.8L72.2,48.0L71.8,48.9L71.7,50.3L70.7,54.4L70.4,56.3L69.9,57.0L69.0,57.2L59.2,57.2L58.6,57.0L58.2,56.6L58.2,55.3L58.6,53.6L58.9,50.7L59.2,49.4L59.2,48.8L59.6,47.4L59.9,45.1L60.2,44.3L60.4,42.6L60.7,41.8L60.9,40.0L61.3,39.0L61.5,37.4L61.9,35.8L62.0,34.8L62.3,34.3L62.6,32.5L63.2,31.0L63.4,29.9L64.5,26.8L65.1,24.4L65.6,23.2L66.5,20.5L66.5,19.8L66.2,19.3L65.6,19.2L65.1,19.4L62.9,20.6L60.9,21.4L60.1,21.5L58.8,21.9L53.7,22.7L50.0,22.8L49.1,23.0L46.8,22.9L44.9,23.1L38.7,23.2L37.8,23.4L36.8,23.4L35.7,23.6L33.6,23.7L32.1,24.1L31.6,24.1L28.6,24.8L26.9,25.5L26.1,25.7L23.8,26.9L22.4,27.9L19.8,30.4L18.7,32.1L17.4,34.6L16.7,37.0L16.3,39.7L16.5,42.8L17.3,45.9L18.3,47.7L19.0,48.6L20.5,50.0L22.7,51.6L23.9,52.0L26.0,52.5L28.2,52.5L30.2,52.1L32.6,51.0L34.1,49.8L35.3,48.5L36.5,46.3L36.9,44.5L36.8,42.4L36.3,41.0L35.8,40.1L34.7,39.1L34.0,39.3L33.2,40.0L32.2,40.0L31.5,39.7L30.7,38.9L30.6,38.2L30.6,37.2L30.7,36.4L31.5,35.0L32.0,34.4L33.4,33.5L34.8,32.9L38.0,32.3L45.8,32.2L48.1,32.0L48.6,31.8L50.6,31.6L50.8,31.8L50.8,32.2L49.4,34.9L48.6,37.0L47.0,42.4L46.9,43.4L45.9,47.6L45.7,49.1L45.3,50.3L44.6,56.1L44.4,57.3L43.7,57.8L38.2,58.3L36.8,58.7L35.5,58.8L34.7,59.0L32.8,59.3L28.3,60.8L25.3,62.2L21.3,64.5L18.0,67.2L16.3,68.9L13.5,72.6L11.3,77.1L10.1,80.4L9.3,84.5L9.2,88.1L9.6,92.5L10.3,95.4L11.4,98.2L13.3,101.3L15.5,103.8L18.0,105.8L19.8,106.9L22.4,108.1L25.3,108.9L25.7,108.9L26.0,109.1L27.1,109.1L28.8,109.3L31.4,109.3L35.9,108.7L36.6,108.3L37.0,108.3L38.0,107.9L38.8,107.7L39.6,107.3L40.0,107.2L41.2,106.4L41.7,106.2L43.8,104.6L45.3,103.3L47.5,100.9L49.6,97.7L49.8,97.1L50.7,95.6L50.8,95.0L51.2,94.5L51.3,93.9L51.7,93.4L51.8,92.5L52.3,91.7L52.6,90.0L53.6,87.0L54.8,82.3L54.9,81.1L55.1,80.8L55.3,78.3L55.8,76.0L55.9,74.3L56.2,73.3L56.4,70.5L56.9,68.3L57.5,67.9L58.8,67.8L67.6,67.8L68.0,67.9L68.4,68.5L67.5,78.8L67.5,83.0L67.7,86.2L68.2,89.8L69.3,93.6L69.7,94.3L70.2,96.0L71.5,98.5L73.1,100.9L76.2,104.2L78.9,106.2L82.0,107.8L82.6,107.9L83.5,108.3L84.3,108.4L84.5,108.6L86.6,109.1L89.9,109.5L94.7,109.4L98.1,108.7L98.6,108.4L101.2,107.7L102.0,107.3L102.5,107.2L106.3,104.8L109.4,102.0L111.7,99.3L113.8,95.6L113.9,95.2L114.7,93.6L115.5,91.3L115.9,89.1L116.2,85.5L115.8,81.1L115.2,78.6L114.9,78.1L114.7,77.4L114.4,76.9L114.3,76.4L112.9,74.4L111.9,73.1L110.3,71.5L108.6,70.2L106.3,69.1L104.8,68.8L103.3,68.6L100.9,68.7L99.0,69.0L98.5,69.3L97.5,69.6L95.3,70.8L93.1,72.9L92.5,73.7L91.5,75.8L91.1,76.9L90.8,79.0L90.9,81.8L91.3,83.3L91.9,84.6L92.8,85.8L94.5,87.3L95.6,88.0L97.5,88.4L98.5,88.4L98.9,88.2L98.9,86.3L99.5,85.4L100.0,85.1L100.5,85.0L101.8,85.1L102.7,85.5L103.4,86.3L103.8,87.5L103.9,89.6L103.6,91.3L103.5,91.5L102.7,93.4L101.3,95.3L100.1,96.4L98.3,97.5L96.3,98.3L94.6,98.5L92.7,98.5L90.0,98.1L89.9,97.9L89.0,97.6L87.2,96.6L84.9,94.4L83.9,92.8L83.3,91.3L82.9,90.8L82.7,89.7L82.3,89.1L82.1,87.9L81.9,87.5L81.3,83.3L81.2,79.7L81.7,72.0L81.9,71.4L82.3,68.0L82.7,67.2L84.0,66.8L86.9,66.6L91.1,65.7L97.2,63.7L101.4,61.8L104.5,60.1L108.4,57.2L111.2,54.5L113.3,52.2L115.2,49.4L116.3,47.5L116.4,47.0L116.9,46.2L118.2,42.7L118.9,39.7L119.1,35.9L118.9,33.6L118.4,32.0L118.4,31.5L117.2,28.3Z M42.9,69.0L43.2,69.3L43.0,71.9L42.8,72.4L42.8,73.3L41.8,77.8L41.8,78.6L41.3,80.4L41.1,81.9L40.8,82.6L40.8,83.4L40.1,85.0L40.1,85.4L39.8,85.8L39.1,88.1L37.6,90.9L36.3,92.5L35.0,93.7L33.6,94.6L32.6,95.1L30.8,95.6L27.3,95.5L26.9,95.4L24.9,94.5L23.4,93.2L22.3,91.3L21.7,89.5L21.7,88.8L21.6,88.2L21.6,86.4L21.8,84.3L22.8,81.0L23.1,80.8L23.9,79.0L25.1,77.2L25.8,76.3L28.4,73.8L30.5,72.4L32.6,71.3L33.6,71.0L35.5,70.2L36.2,70.1L36.6,69.9L37.8,69.7L38.9,69.3L41.7,68.9Z M102.5,31.6L103.9,32.9L104.9,34.7L105.5,36.7L105.5,39.5L105.2,41.1L104.4,43.8L103.4,45.8L101.8,48.1L100.9,49.1L98.7,51.2L97.3,52.3L94.3,54.2L93.4,54.4L92.6,54.9L88.2,56.1L85.3,56.5L84.3,56.5L83.9,56.2L83.9,55.4L84.2,54.7L84.2,53.7L84.6,52.2L84.8,50.7L85.3,49.3L85.4,48.2L85.7,47.2L85.9,45.9L86.2,45.4L86.3,44.8L86.8,43.4L86.9,42.6L87.4,41.0L88.2,39.5L88.2,38.9L90.0,35.9L91.4,34.1L92.7,32.7L94.0,31.8L94.3,31.8L95.9,30.9L97.7,30.5L100.0,30.5L101.8,31.1Z" fill="#000" fill-rule="evenodd"/>
</svg>