<svg xmlns="http://www.w3.org/2000/svg" viewBox="0 0 128 128" width="128" height="128">
  <path d="M94.0,92.8L92.8,92.5L91.3,92.7L88.5,94.0L85.4,95.8L84.6,96.1L81.7,97.8L80.4,98.3L78.6,98.9L78.1,99.4L78.1,100.5L78.3,101.4L78.7,102.2L79.2,103.0L80.1,103.8L81.8,104.8L84.0,104.8L85.8,104.0L87.0,103.0L87.8,102.2L91.2,97.6L91.6,96.9L93.9,94.0L94.2,93.5L94.2,93.2Z M36.2,92.8L35.8,92.6L34.4,92.5L32.9,93.2L32.2,93.6L31.1,94.2L29.3,95.6L26.9,97.2L25.0,98.7L22.7,100.2L21.2,101.4L21.1,102.1L21.4,102.4L21.5,103.0L22.9,104.5L23.5,104.9L24.1,105.1L24.6,105.5L26.6,105.7L27.8,105.5L28.9,105.0L30.6,103.5L33.4,99.0L35.4,95.0L36.0,94.1L36.3,93.4Z M98.6,92.3L98.2,92.1L97.1,92.3L95.4,93.6L93.7,95.7L92.8,97.1L91.5,98.8L89.7,101.5L87.6,104.1L87.4,104.5L87.4,104.9L87.6,105.3L88.9,106.9L90.2,107.6L91.2,107.8L93.3,107.8L93.9,107.7L95.2,106.9L96.3,105.7L97.2,103.7L97.3,102.8L97.5,102.6L97.5,101.6L97.8,100.8L97.8,100.2L98.1,99.4L98.2,97.9L98.5,96.1L98.5,95.2L98.9,93.5L98.9,92.6Z M40.4,91.2L40.0,91.2L39.0,91.6L38.3,92.3L37.5,93.4L36.8,94.6L36.2,95.5L35.6,96.9L35.1,97.5L33.3,101.3L32.6,102.2L32.1,103.2L31.1,104.5L30.9,104.8L30.9,105.4L30.7,105.7L30.7,106.0L32.3,107.3L33.6,107.9L34.6,108.1L35.8,108.1L36.7,107.9L38.0,107.3L38.5,106.9L39.5,105.7L40.1,104.5L40.6,100.9L40.6,97.5L40.8,91.7L40.7,91.5Z M31.4,92.2L30.9,91.6L29.7,91.2L28.6,91.2L24.8,91.8L23.9,92.1L23.5,92.1L22.2,92.5L17.4,93.5L16.4,93.5L15.9,93.6L14.9,93.6L14.7,93.7L14.3,94.3L14.3,95.7L14.5,96.7L14.7,97.4L15.5,98.7L16.8,99.9L18.2,100.4L20.1,100.4L21.1,100.1L21.9,99.6L22.1,99.4L24.3,98.0L25.0,97.4L27.0,95.9L29.1,94.3L31.0,93.0L31.3,92.7Z M89.1,91.9L88.5,91.1L87.8,90.8L86.7,90.4L85.3,90.3L80.6,90.4L77.1,90.8L73.6,90.8L72.8,90.6L71.8,90.6L71.5,90.8L71.2,91.7L71.2,94.4L71.6,95.6L72.0,95.9L72.1,96.3L73.0,97.2L73.9,97.8L74.7,98.1L75.6,98.3L76.9,98.3L78.9,97.8L82.3,96.3L83.3,95.6L88.5,92.9L89.0,92.5Z M102.6,89.3L102.2,89.3L101.4,89.7L100.4,90.8L99.8,92.4L99.7,94.0L99.4,94.9L98.9,100.7L98.7,102.4L98.2,104.3L98.1,105.3L98.5,106.0L99.8,106.5L101.8,106.6L102.6,106.5L103.5,106.1L104.2,105.6L105.5,104.2L105.9,103.4L106.1,102.8L106.1,100.5L105.9,99.7L105.7,99.3L105.5,97.9L104.8,95.9L104.6,95.0L103.6,91.6L103.3,90.8L103.1,90.0L102.9,89.6Z M43.5,88.1L42.9,88.5L42.4,89.1L41.9,90.0L41.8,90.8L41.5,94.6L41.5,101.6L41.3,104.6L41.8,105.2L42.7,105.4L43.8,105.5L45.8,105.3L46.9,104.7L48.0,103.7L48.4,103.1L48.9,101.8L48.9,100.0L48.6,98.7L48.1,97.8L48.1,97.1L47.7,96.4L46.8,94.0L45.4,91.1L45.4,90.6L45.0,90.1L45.0,89.7L44.4,88.5L44.0,88.1Z M104.4,84.6L103.8,85.1L103.4,86.0L103.4,87.2L103.5,88.3L104.2,90.4L104.9,92.9L105.0,93.2L105.2,94.1L105.7,95.1L105.7,95.6L106.0,96.3L106.5,98.5L106.9,99.2L107.2,100.9L107.3,101.2L107.7,101.4L109.2,101.4L110.0,101.2L110.9,100.8L112.0,99.9L112.7,99.2L113.5,97.3L113.5,95.6L112.8,94.0L111.6,92.3L108.8,89.3L108.1,88.4L106.1,86.2L105.1,85.0L104.7,84.6Z M10.5,86.5L10.4,88.1L10.5,89.1L11.0,90.3L11.6,91.0L12.5,91.9L14.1,92.5L16.6,92.6L18.0,92.3L18.7,92.3L22.8,91.2L23.7,91.2L24.9,90.8L26.9,90.5L27.3,90.4L27.6,90.0L27.6,89.6L27.4,89.1L26.7,88.4L26.1,87.9L24.6,87.3L20.8,86.3L19.9,86.2L19.0,85.9L17.2,85.7L15.8,85.2L13.5,84.6L12.3,84.1L11.7,84.1L11.2,84.6L10.9,85.1Z M45.6,82.3L44.8,83.4L44.5,84.5L44.5,85.9L44.8,87.2L45.4,88.2L46.4,91.2L48.5,95.8L48.6,96.3L48.9,96.8L49.9,99.4L50.5,100.0L51.6,100.0L52.4,99.8L54.0,99.0L55.2,97.9L55.2,97.5L55.5,97.3L56.0,95.9L56.0,94.5L55.6,93.3L55.1,92.3L54.1,90.9L52.1,88.7L47.4,83.8L46.2,82.4Z M104.4,80.5L104.2,81.0L104.2,81.9L104.6,82.9L105.2,83.8L107.5,86.5L111.2,90.4L112.5,92.0L113.4,93.4L113.9,93.9L114.7,93.9L115.7,93.2L117.1,91.7L117.6,90.6L117.9,89.3L117.9,88.0L117.5,86.5L116.7,85.6L115.2,84.2L112.5,82.8L108.5,81.6L105.3,80.3L104.7,80.3Z M68.8,82.0L68.4,83.7L68.4,85.3L68.7,86.4L69.5,87.8L70.5,88.8L71.6,89.3L73.0,89.7L75.2,89.8L75.9,89.7L78.0,89.7L81.4,89.3L85.3,89.3L85.7,89.2L85.9,88.9L85.9,88.5L85.7,87.9L84.6,86.9L82.2,85.2L77.9,83.2L77.3,83.0L74.9,81.8L74.4,81.7L71.2,79.9L70.5,79.9L70.1,80.2L69.7,80.6Z M103.4,77.9L103.4,78.3L103.8,78.7L104.9,79.2L105.3,79.3L105.5,79.5L106.0,79.5L108.0,80.3L110.4,81.0L110.8,81.3L113.0,81.9L113.4,82.2L114.3,82.5L117.1,84.1L117.5,84.1L118.2,83.2L118.8,82.2L119.1,80.9L118.9,79.1L118.5,78.2L117.9,77.5L117.3,77.1L116.5,76.7L115.5,76.4L112.6,76.1L109.6,76.1L106.6,76.3L105.5,76.6L104.7,77.1L103.8,77.5Z M10.0,75.9L9.6,76.7L9.4,77.6L9.2,78.2L9.2,79.4L9.4,80.3L9.9,81.2L10.7,82.1L11.4,82.6L12.9,83.4L14.8,83.9L15.1,84.1L18.3,84.9L19.1,85.0L19.6,85.2L20.5,85.3L23.9,86.1L24.8,86.0L25.0,85.4L24.6,84.4L22.8,82.4L21.0,80.7L20.0,80.1L17.1,77.6L15.9,76.8L12.9,74.0L12.4,73.9L12.0,74.0L11.4,74.4Z M46.2,73.6L45.7,74.1L45.2,74.9L44.9,76.0L44.9,77.7L45.4,79.2L45.8,80.2L47.0,81.9L48.8,84.0L54.3,89.7L55.7,91.6L56.2,92.0L56.9,92.0L57.4,91.7L58.6,90.4L59.1,89.5L59.5,87.8L59.5,85.9L58.9,84.4L58.1,83.3L55.7,81.0L55.0,80.5L54.3,79.8L53.2,79.1L49.8,76.2L49.6,76.1L47.2,73.9L46.6,73.5Z M116.7,71.9L116.4,71.4L115.2,71.6L114.3,72.1L114.0,72.4L111.6,73.6L111.3,73.8L110.8,73.9L110.4,74.2L109.8,74.4L109.5,74.7L109.3,75.1L113.5,75.2L114.7,75.3L115.9,75.2L116.4,74.8L116.7,74.3L116.9,73.2Z M46.2,71.1L46.3,71.9L48.3,73.9L50.4,75.6L51.3,76.2L51.5,76.5L53.2,77.9L54.4,79.0L54.7,79.1L55.4,79.8L55.9,80.0L58.3,82.2L59.0,82.2L59.4,81.8L60.1,80.5L60.4,79.5L60.6,78.1L60.4,76.1L59.9,74.8L59.5,74.0L58.5,72.8L57.1,71.5L56.6,71.2L56.0,71.1L53.3,72.4L51.5,72.7L49.6,72.4L48.1,71.6L47.0,70.8L46.6,70.8Z M70.4,70.0L68.9,71.7L68.4,72.8L68.1,74.0L68.5,75.9L68.8,76.6L69.4,77.4L70.8,78.6L72.8,79.9L76.3,81.4L77.0,81.8L79.3,82.8L79.9,83.2L82.2,84.2L82.9,84.6L83.7,84.6L83.9,84.2L84.2,82.6L84.2,81.4L83.8,80.2L82.8,78.8L81.7,77.8L79.4,76.2L78.4,75.3L75.3,73.0L74.8,72.8L71.2,70.0Z M69.0,68.2L68.5,68.3L67.2,69.7L66.4,70.9L66.4,71.2L66.7,71.6L67.0,71.7L67.5,71.7L68.1,71.2L69.7,69.2L69.7,68.9Z M16.0,65.4L14.3,66.4L13.3,67.4L12.7,69.0L12.6,69.7L12.7,71.2L12.9,71.6L13.0,72.0L13.8,73.4L15.5,75.2L16.3,75.8L17.5,76.9L19.6,78.5L23.2,81.6L23.6,81.8L24.0,81.8L24.2,81.6L24.5,80.9L24.0,78.5L23.2,76.4L22.9,76.0L22.4,74.8L21.5,73.3L21.4,72.8L20.7,71.6L20.1,70.3L19.3,69.0L19.2,68.6L18.5,67.2L18.0,65.7L17.6,65.1L17.3,65.0Z M69.4,60.3L68.5,61.5L68.0,62.9L68.1,64.7L68.7,66.3L70.2,68.0L74.6,71.2L77.2,73.4L78.7,74.4L79.5,75.2L79.9,75.3L81.9,77.0L82.8,77.0L83.4,76.0L83.8,75.2L83.9,74.7L83.9,73.1L83.8,72.3L83.6,72.1L83.4,71.3L82.9,70.6L80.8,68.5L74.8,63.3L71.1,59.9L70.4,59.6Z M23.2,59.0L22.4,59.1L21.5,59.5L20.7,60.0L19.8,61.0L18.9,62.6L18.8,64.8L19.3,66.5L19.7,67.2L19.8,67.6L21.1,70.2L21.4,70.5L22.3,72.4L22.5,72.9L23.1,74.0L23.3,74.5L23.6,74.9L23.6,75.2L24.1,76.0L24.3,76.9L24.6,77.2L25.1,77.2L25.9,76.5L26.2,75.9L26.6,73.8L26.5,68.9L26.2,64.1L26.2,61.7L26.4,60.6L26.4,59.8L25.4,59.1L24.6,59.0Z M68.8,57.9L68.3,57.8L68.0,57.9L66.3,59.6L62.6,64.2L60.3,67.0L57.6,69.7L57.4,70.1L57.4,70.5L57.9,71.1L58.7,71.6L60.5,72.2L61.7,72.3L62.7,72.0L63.5,71.7L64.8,70.9L67.6,67.9L68.0,67.3L68.0,66.7L67.6,66.2L67.6,65.9L67.1,64.9L67.0,63.1L67.2,62.1L67.7,60.7L68.5,59.5L69.3,58.7L69.3,58.3Z M85.0,57.2L84.1,57.0L83.2,57.9L82.7,58.7L82.7,59.1L83.3,59.8L83.9,59.8L85.2,58.0L85.3,57.5Z M92.2,56.8L91.2,56.4L89.8,56.4L88.5,56.7L87.6,57.1L86.3,58.2L84.4,60.7L84.2,61.2L84.2,61.8L84.6,63.2L84.6,64.8L84.3,66.5L83.9,67.3L83.8,68.1L83.2,69.1L83.2,69.5L84.1,70.9L84.4,71.0L84.9,70.9L87.0,68.4L90.0,64.2L90.2,63.6L91.4,61.9L91.6,61.5L93.2,58.9L93.5,57.9L93.3,57.6L92.7,57.2Z M36.1,56.8L34.4,56.2L32.7,56.1L30.9,56.5L29.3,57.5L28.2,58.6L27.6,60.1L27.2,62.5L27.3,67.8L27.5,69.3L27.6,73.2L27.8,73.6L28.7,73.6L29.3,73.2L29.9,72.5L30.8,70.9L31.6,69.0L31.7,68.5L32.2,67.4L32.3,66.9L32.6,66.5L33.4,64.6L33.5,64.1L34.2,62.7L34.7,61.5L35.3,60.2L36.8,57.7L36.8,57.3Z M98.4,56.0L97.4,56.1L96.6,56.5L95.8,57.1L95.1,57.9L94.0,59.6L92.4,62.2L90.6,64.9L90.4,65.4L89.8,66.1L88.1,68.6L87.0,70.0L86.9,70.4L86.9,70.9L87.1,71.2L88.4,72.0L89.8,72.4L91.6,72.5L92.8,72.3L93.6,71.9L94.4,71.4L95.3,70.4L95.9,69.6L96.7,67.0L96.9,66.1L97.1,65.8L97.3,64.2L97.6,63.4L97.8,61.9L98.0,61.2L98.1,60.2L98.7,57.1L98.7,56.4Z M66.7,57.0L65.4,56.3L64.0,56.0L62.7,56.0L61.7,56.1L60.3,56.8L59.9,57.1L59.2,57.5L56.6,60.1L52.1,65.2L47.8,69.6L47.7,70.1L48.8,70.9L49.6,71.3L50.8,71.6L52.8,71.6L53.5,71.3L54.9,70.5L57.2,68.6L60.5,65.1L62.4,62.8L63.0,61.8L66.7,57.8L66.9,57.5Z M56.7,57.8L56.0,57.1L54.8,56.3L53.5,55.9L52.0,55.9L50.9,56.1L49.0,57.1L46.8,59.3L45.5,60.7L42.0,65.0L41.6,65.7L37.5,70.4L37.6,70.9L38.6,71.6L39.9,72.0L41.9,72.0L43.1,71.6L44.8,70.7L45.9,69.8L50.1,65.8L52.8,62.6L56.8,58.3Z M46.0,56.8L45.0,56.0L44.4,55.7L43.4,55.5L42.0,55.4L40.7,55.7L40.3,56.0L39.9,56.1L38.0,57.9L37.3,58.8L36.1,60.8L35.6,62.1L35.3,62.5L34.4,64.4L33.8,66.2L33.6,66.5L33.1,68.1L32.6,69.1L32.5,69.8L32.1,70.4L32.0,71.0L32.0,71.4L32.1,71.6L33.1,71.8L33.6,71.8L34.6,71.6L35.6,70.9L37.4,68.9L40.3,65.6L42.8,62.2L46.4,58.2L46.6,57.8L46.6,57.5Z M102.5,53.3L102.2,53.3L101.6,53.6L100.9,54.2L100.3,54.9L99.8,56.5L99.8,57.1L99.5,57.7L99.1,60.4L98.8,62.6L98.6,63.2L98.0,66.4L97.7,67.2L97.5,68.1L97.1,69.2L97.1,69.9L97.5,70.3L98.7,70.8L100.7,70.9L102.1,70.7L103.3,70.2L103.8,69.8L104.8,68.8L105.1,68.2L105.6,66.6L105.6,64.1L105.3,63.0L105.1,61.7L104.3,59.3L104.2,58.7L103.4,55.9L103.3,55.6L103.2,55.0L103.0,54.5L102.9,53.9Z M45.1,53.1L44.6,54.0L44.6,54.6L44.8,54.8L47.1,56.7L48.0,56.7L48.5,56.1L48.5,55.8L48.1,55.2L46.2,53.2L45.8,53.0Z M11.2,55.0L11.6,55.6L12.3,55.6L13.2,55.2L13.6,54.9L14.9,54.4L15.4,54.1L16.8,53.6L17.5,53.2L19.0,52.6L19.4,52.3L19.3,52.1L15.1,51.3L13.4,50.9L12.4,50.5L11.7,50.5L11.3,50.9L11.1,51.2L10.9,52.4L10.9,54.0Z M70.2,49.2L69.5,49.9L68.7,51.0L68.1,52.7L68.1,54.4L68.3,55.2L68.8,56.2L69.3,56.9L72.1,59.7L78.3,65.0L79.2,65.9L79.9,66.3L81.8,68.1L82.3,68.1L82.7,67.7L83.4,66.3L83.7,64.7L83.7,63.9L83.4,62.6L82.6,60.8L80.9,58.6L77.7,55.4L74.0,52.2L71.4,49.7L70.7,49.2Z M104.1,48.7L103.7,49.1L103.3,50.0L103.1,51.1L103.4,52.7L103.7,53.4L103.9,54.7L104.1,55.2L104.6,57.1L105.0,58.1L105.7,60.5L106.0,61.2L106.1,62.2L106.4,62.6L106.8,64.7L106.8,65.3L106.9,65.6L107.3,65.8L108.7,65.8L109.1,65.5L110.0,65.4L111.5,64.5L112.8,63.0L113.1,62.3L113.3,61.3L113.3,60.3L113.1,59.0L112.5,57.8L111.6,56.4L110.0,54.5L105.4,49.6L104.4,48.7Z M44.3,45.7L43.8,47.3L43.8,48.1L44.0,49.1L44.4,49.9L45.6,51.6L47.4,53.5L49.3,55.2L50.1,55.4L52.1,54.8L53.5,54.9L54.4,55.2L56.2,56.0L57.7,57.1L58.3,57.0L59.6,55.7L59.6,55.0L59.0,53.7L58.6,53.2L56.7,51.6L52.1,48.8L51.4,48.5L49.9,47.7L49.7,47.7L48.7,47.2L45.5,45.1L45.0,45.1Z M103.8,43.4L103.4,44.0L103.4,45.0L103.8,46.1L104.1,46.6L104.3,47.1L105.3,48.2L108.1,50.9L111.5,54.4L112.4,55.5L113.6,57.2L114.3,57.3L114.9,57.0L116.6,55.3L117.5,53.6L117.6,52.7L117.6,51.3L117.5,50.8L117.5,50.1L117.1,49.2L116.6,48.5L115.7,47.7L114.8,47.0L113.1,46.2L109.2,45.0L108.3,44.6L107.5,44.5L104.7,43.4Z M9.5,43.0L9.1,44.3L9.2,45.8L9.4,46.4L9.4,46.7L9.9,47.5L10.9,48.5L12.5,49.6L14.6,50.2L17.2,50.5L17.6,50.7L19.9,50.9L21.0,51.1L22.8,51.0L24.6,50.1L25.0,49.7L25.0,49.3L24.7,48.9L23.3,47.5L22.1,46.8L21.4,46.2L20.3,45.7L18.4,44.4L17.0,43.7L12.6,40.7L12.2,40.6L11.5,40.7L10.2,41.8Z M43.5,40.4L43.5,41.4L44.1,42.7L44.6,43.3L46.5,44.8L50.6,47.2L54.1,48.9L55.3,49.7L56.8,50.5L57.7,51.3L58.1,51.3L58.4,51.2L59.1,50.4L59.5,49.5L59.9,47.9L59.9,45.7L59.5,44.4L59.0,43.5L57.6,42.3L56.4,41.7L54.4,41.2L53.6,41.2L50.3,40.7L46.9,40.6L44.6,40.2L43.8,40.2Z M70.2,39.0L69.1,40.3L68.5,42.1L68.5,44.1L69.3,46.0L70.5,47.6L73.6,50.5L76.8,53.5L77.1,53.6L81.2,57.5L81.7,57.9L82.1,57.8L82.7,57.1L83.2,56.2L83.7,54.5L83.7,52.7L83.4,51.8L83.0,51.0L81.4,48.9L78.6,46.2L75.8,43.7L72.4,40.3L71.3,38.8L70.9,38.7Z M101.1,39.0L101.1,39.7L101.7,40.7L103.1,41.8L104.5,42.4L109.9,44.0L110.2,44.0L110.7,44.2L111.0,44.2L112.2,44.6L112.8,45.0L113.5,45.1L115.5,46.1L115.8,46.3L116.3,46.4L116.7,46.1L117.5,44.6L117.9,43.0L117.9,41.9L117.5,40.3L116.7,38.9L115.3,37.6L114.3,37.2L112.9,37.0L111.2,37.0L108.8,37.2L108.5,37.4L107.2,37.5L106.8,37.6L104.5,38.0L103.4,38.3L102.2,38.3L101.3,38.7Z M57.9,36.7L57.9,35.9L57.5,34.7L57.0,33.8L56.2,33.0L55.2,32.4L53.8,32.1L51.7,32.2L50.9,32.5L50.4,32.8L49.7,32.9L47.1,33.9L46.0,34.2L45.0,34.8L44.2,34.9L42.9,35.6L42.3,35.7L41.1,36.2L40.5,36.3L40.1,36.6L40.1,37.2L40.8,38.0L41.5,38.4L42.4,38.7L42.7,38.7L42.9,38.9L44.5,39.1L44.8,39.3L47.0,39.6L47.8,39.6L49.0,39.9L50.7,39.9L52.1,40.1L53.3,40.1L56.0,40.6L56.8,40.6L57.4,40.0L57.7,39.1Z M13.9,31.7L13.3,32.1L12.1,33.3L11.7,33.9L11.4,34.8L11.3,35.6L11.3,37.0L11.8,38.4L12.9,39.7L15.5,41.6L22.7,46.1L23.1,46.2L23.6,46.2L24.0,45.1L24.0,44.0L23.6,42.7L22.9,41.5L22.7,40.9L21.9,39.8L21.8,39.5L19.4,35.8L19.2,35.2L18.0,33.6L17.1,32.0L16.1,31.0L14.9,31.3Z M74.4,30.5L73.6,30.9L72.3,32.1L71.6,33.5L71.3,34.7L71.3,35.3L71.6,36.9L72.6,38.8L74.8,41.3L78.4,44.6L81.8,48.1L82.3,48.2L82.8,47.8L83.4,46.2L83.3,44.8L82.6,42.7L81.1,39.9L80.8,39.5L80.7,39.2L80.4,38.8L80.3,38.3L80.0,38.1L79.9,37.6L79.6,37.4L78.7,35.6L78.5,35.0L77.9,34.0L77.8,33.6L77.2,32.5L76.4,30.2L75.6,30.1Z M113.5,32.3L112.9,31.1L112.3,30.1L111.2,29.2L109.6,28.6L107.5,28.6L105.9,29.2L100.4,33.0L97.7,35.2L97.1,35.9L97.1,36.3L97.3,36.6L98.2,37.5L98.9,37.7L101.0,37.6L104.2,36.8L105.4,36.7L107.1,36.3L109.6,36.0L110.6,35.8L112.9,35.8L113.4,35.3L113.6,34.5L113.6,33.1Z M52.3,27.7L51.7,26.7L50.7,25.7L49.0,24.9L46.8,24.8L45.6,25.2L44.3,26.0L43.0,27.0L42.2,28.0L41.2,28.7L38.6,31.7L36.8,33.4L36.3,33.8L35.8,34.4L35.8,34.9L36.3,35.4L36.9,35.7L37.7,35.8L39.2,35.6L41.8,34.8L43.0,34.2L44.7,33.6L44.9,33.5L46.4,33.1L48.6,32.1L49.9,31.8L50.6,31.4L52.0,31.1L52.3,30.9L52.8,30.4L52.8,29.1Z M81.8,24.1L80.3,24.3L79.3,24.9L78.3,25.8L77.7,26.8L77.5,27.5L77.4,29.2L77.9,31.3L79.1,34.3L79.4,34.5L80.0,36.0L80.3,36.2L80.4,36.7L81.1,37.8L82.9,41.4L83.2,41.6L83.7,41.6L84.4,41.1L85.2,39.9L85.4,38.3L85.5,35.5L85.3,34.7L85.3,32.9L85.1,30.9L85.2,25.7L85.1,25.2L84.6,24.6L83.7,24.3Z M21.4,24.0L20.4,24.3L19.5,24.8L18.7,25.5L18.1,26.2L17.6,27.1L17.4,27.8L17.4,29.8L17.7,30.9L18.0,31.3L19.0,33.3L20.0,34.8L20.7,36.0L21.4,37.0L22.9,39.8L23.9,41.1L24.3,41.1L25.1,39.9L25.5,38.3L25.5,36.0L25.2,33.6L25.0,30.1L24.7,28.9L24.6,24.9L24.3,24.5L23.5,24.1Z M104.6,24.5L104.0,23.9L103.0,23.3L102.2,23.0L101.1,22.8L99.9,22.8L99.1,23.0L98.0,23.5L97.5,23.9L96.3,25.4L94.6,28.4L91.9,34.0L91.6,34.8L91.6,35.3L92.2,35.8L92.9,36.0L94.0,36.0L94.9,35.7L99.1,32.6L102.1,30.1L105.6,27.8L105.9,27.4L105.9,26.9L105.1,25.1Z M93.3,21.3L92.4,21.1L90.8,21.1L89.5,21.5L88.1,22.3L87.6,22.8L86.8,24.2L86.3,26.5L86.2,30.5L86.5,33.3L86.5,37.4L86.9,37.8L87.5,37.8L88.3,37.5L89.2,36.7L89.6,36.1L90.5,34.4L90.9,33.3L91.4,32.5L92.0,31.0L92.4,30.4L92.4,30.0L94.2,26.5L95.9,23.8L95.9,23.1L95.2,22.4Z M43.2,21.5L42.1,20.7L40.6,20.3L39.6,20.3L37.8,20.8L36.9,21.5L36.1,22.3L35.5,23.2L34.4,25.3L34.0,26.7L33.0,28.9L32.9,29.3L32.7,29.7L31.7,32.8L31.3,33.5L30.9,34.7L31.3,35.2L32.8,35.2L34.2,34.4L41.4,27.0L44.4,24.4L44.6,24.1L44.4,23.1L44.0,22.4Z M32.1,20.3L31.2,20.2L29.7,20.2L28.3,20.7L27.0,21.9L26.6,22.4L26.0,23.6L25.8,25.0L25.8,28.3L26.2,33.1L26.3,33.7L26.5,37.2L26.9,37.7L27.2,37.7L27.8,37.5L28.4,37.0L28.9,36.4L30.3,33.5L30.9,31.5L31.2,31.2L31.3,30.7L31.8,29.3L31.8,28.9L32.0,28.8L32.6,26.8L33.0,26.2L33.2,25.4L33.9,24.0L34.0,23.5L34.4,22.7L34.5,22.3L34.4,21.8L33.8,21.2Z" fill="#000" fill-rule="evenodd"/>
</svg>