<svg xmlns="http://www.w3.org/2000/svg" viewBox="0 0 128 128" width="128" height="128">
  <path d="M118.5,17.2L118.1,17.0L115.9,16.8L97.8,17.0L32.2,16.9L22.4,17.1L9.8,17.1L9.5,17.5L9.4,19.4L9.5,20.6L9.4,46.5L9.5,68.8L9.4,72.6L9.7,91.6L9.6,102.1L9.8,108.4L9.7,110.7L9.9,111.3L10.4,111.5L56.9,111.3L63.7,111.4L94.7,111.2L103.4,111.0L117.4,111.0L118.6,110.8L118.8,110.6L118.9,95.6L118.9,18.1Z M79.6,73.3L80.0,73.3L80.0,73.5L79.3,74.1L78.7,75.4L78.7,76.7L79.1,77.5L79.7,78.2L80.4,78.7L81.9,78.8L82.6,78.6L83.1,78.2L83.5,77.6L83.5,76.3L82.6,75.4L81.7,75.4L81.3,75.8L81.3,76.8L81.1,76.8L80.8,76.5L80.7,76.0L80.9,75.6L81.6,75.0L82.4,74.9L83.1,75.1L83.6,75.5L84.0,76.1L84.1,77.3L83.9,78.1L83.0,78.9L81.9,79.4L80.5,79.4L80.0,78.9L79.4,78.7L78.6,78.0L78.2,76.9L78.2,75.4L78.6,74.3Z M84.0,69.6L84.6,69.6L85.2,69.8L87.5,71.2L89.1,73.2L89.4,73.9L89.9,75.5L89.9,78.5L89.3,80.5L88.4,81.9L87.2,83.1L86.0,84.0L85.4,83.8L86.0,83.5L87.7,82.0L87.8,81.7L88.4,81.1L88.8,80.3L89.4,78.2L89.4,76.0L88.9,73.9L88.0,72.3L86.6,71.1L85.3,70.4L84.4,70.2L84.0,69.9Z M82.9,69.3L83.0,69.7L82.3,69.7L79.3,70.4L78.6,71.0L78.1,71.2L76.5,73.0L75.9,74.5L75.7,75.7L75.9,77.8L76.7,79.4L77.9,80.7L79.4,81.5L80.9,81.8L82.1,81.7L83.5,81.3L84.9,80.2L85.6,79.4L86.2,78.6L86.4,78.0L86.3,75.6L85.7,74.5L85.0,73.7L83.8,73.0L83.2,72.8L81.6,72.8L80.7,73.1L80.3,72.8L81.2,72.4L82.7,72.2L84.4,72.8L85.2,73.3L85.9,74.0L86.7,75.5L86.9,76.1L86.8,78.2L86.2,79.7L85.9,79.9L85.3,80.7L84.4,81.4L84.0,81.5L83.3,82.0L82.0,82.3L79.6,82.1L77.8,81.3L76.0,79.6L75.6,78.6L75.1,76.8L75.3,74.3L75.6,73.4L76.4,72.0L78.2,70.5L79.2,70.2L79.5,69.9L80.7,69.4Z M82.9,66.3L83.6,66.4L83.7,66.7L81.8,66.7L81.2,66.8L80.1,66.8L79.1,67.1L78.6,67.4L78.3,67.4L76.7,68.3L75.8,69.1L74.1,70.9L73.3,72.5L72.7,74.2L72.5,76.3L72.7,77.8L73.5,80.3L74.5,81.7L75.8,82.9L77.3,84.0L78.9,84.6L80.6,84.9L82.6,84.8L85.0,84.0L85.3,84.0L85.3,84.2L84.7,84.7L82.0,85.5L80.5,85.5L78.5,85.2L76.3,84.1L74.9,83.1L73.4,81.3L72.7,80.0L72.0,78.1L72.1,74.1L72.7,72.2L73.8,70.2L76.2,68.0L78.0,67.1L79.6,66.6L81.2,66.3Z M37.9,33.2L38.2,33.0L38.4,33.2L38.5,34.7L38.4,54.2L38.6,56.4L38.5,65.1L38.7,65.6L39.0,65.3L39.3,63.9L39.9,62.3L41.4,59.4L43.6,57.0L45.2,55.7L47.7,54.4L50.2,53.6L51.7,53.4L53.7,53.4L55.9,53.7L57.3,54.1L59.9,55.2L61.0,56.0L63.0,58.1L64.4,60.3L65.3,63.1L65.8,66.7L65.8,70.3L65.6,72.7L65.8,77.5L66.2,79.9L66.8,82.0L67.8,83.9L68.1,84.2L69.0,85.6L71.0,87.8L73.5,89.5L75.5,90.3L75.7,90.5L78.5,91.2L82.4,91.4L86.0,90.7L88.0,89.9L90.3,88.5L92.8,86.0L94.6,83.1L94.6,82.8L95.1,81.7L95.2,80.9L95.5,80.3L95.8,78.8L95.9,76.2L95.7,75.4L95.7,74.4L95.1,72.2L94.2,70.5L94.2,70.2L93.9,69.9L93.6,69.3L93.3,69.0L93.1,68.5L90.8,66.3L88.2,64.8L87.0,64.4L85.7,63.8L82.5,63.4L81.2,63.4L80.0,63.6L78.0,64.2L77.6,64.2L75.1,65.3L73.8,66.3L72.1,68.0L70.7,70.1L69.8,72.0L69.3,74.8L69.3,76.7L69.5,78.7L70.4,81.3L71.4,82.8L71.5,83.2L73.2,85.1L75.7,86.8L76.9,87.2L77.8,87.7L80.6,88.1L83.1,88.0L85.0,87.5L86.8,86.7L87.6,86.2L88.2,85.9L90.3,83.8L91.5,81.8L92.2,79.9L92.6,78.1L92.6,75.9L92.3,74.1L91.6,72.2L90.6,70.6L89.0,69.0L87.0,67.8L84.8,67.1L84.0,66.6L85.2,66.6L88.2,67.9L90.0,69.3L91.6,71.3L92.6,73.3L93.2,75.4L93.1,78.6L92.6,80.6L92.0,82.0L90.9,83.9L88.9,86.0L88.0,86.6L86.6,87.5L83.7,88.5L82.2,88.7L78.7,88.6L76.7,88.0L74.1,86.6L72.8,85.6L71.5,84.3L70.3,82.6L69.9,81.9L68.9,78.8L68.7,77.4L68.7,74.9L68.9,73.4L69.3,72.5L69.6,70.8L70.4,69.6L70.4,69.3L71.5,67.8L72.0,67.3L72.6,66.6L74.1,65.4L74.6,65.3L75.0,64.8L76.7,64.0L78.1,63.7L79.8,63.1L80.7,63.1L81.3,62.9L83.6,62.9L85.2,63.2L85.6,63.5L86.7,63.7L88.3,64.2L90.6,65.5L91.0,66.0L92.0,66.7L93.1,67.8L93.2,68.0L93.7,68.5L93.9,69.1L94.2,69.3L95.3,71.1L96.0,72.9L96.4,75.3L96.4,78.6L96.0,80.7L95.3,82.5L95.2,83.0L94.6,83.9L94.5,84.5L93.3,86.1L93.1,86.6L91.2,88.6L89.5,89.8L88.1,90.4L87.4,90.8L85.8,91.4L82.7,92.0L79.8,92.0L77.4,91.8L76.8,91.5L75.8,91.3L74.5,90.6L74.2,90.6L72.9,89.8L72.3,89.6L70.0,87.8L68.3,86.1L67.2,84.4L66.1,82.0L65.4,79.9L65.1,77.3L65.0,74.0L65.1,66.2L64.6,63.0L64.4,62.7L64.1,61.4L63.4,59.8L61.9,57.8L59.8,56.0L57.5,54.8L54.2,53.9L51.8,53.9L49.3,54.4L47.9,54.9L47.2,55.0L46.7,55.5L46.2,55.7L44.8,56.7L43.3,58.0L42.0,59.7L40.8,61.8L40.0,63.9L39.6,65.9L39.2,66.9L39.1,68.3L38.9,68.8L38.6,74.1L38.6,84.7L38.3,85.0L38.0,85.0L37.8,84.8L37.9,50.7L37.7,41.6Z" fill="#000" fill-rule="evenodd"/>
</svg>