<svg xmlns="http://www.w3.org/2000/svg" viewBox="0 0 128 128" width="128" height="128">
  <path d="M71.1,32.0L70.6,32.0L70.0,32.4L69.5,32.4L69.3,32.7L68.6,32.8L65.3,34.5L64.8,34.6L62.8,35.8L62.9,36.0L63.1,36.1L65.4,36.1L66.5,36.3L66.8,36.6L66.6,37.6L66.2,38.0L65.2,40.4L64.5,41.5L64.3,42.2L59.3,52.1L59.1,52.4L58.1,54.3L57.5,55.8L55.3,60.1L55.3,60.4L54.5,61.8L54.3,62.3L50.0,70.9L49.7,71.6L46.9,77.2L46.4,78.4L44.7,81.4L44.5,82.1L42.7,85.6L42.5,86.2L41.8,87.3L41.6,88.0L41.2,88.9L40.9,89.1L40.9,89.4L39.4,92.4L39.2,93.0L38.2,94.6L38.1,95.0L36.3,98.7L36.2,99.1L35.4,100.4L33.7,103.6L33.5,104.4L32.5,106.1L31.7,108.0L31.8,108.5L32.4,109.1L32.9,109.0L33.3,108.7L33.9,107.5L34.4,106.3L36.2,103.0L36.3,102.6L36.7,102.0L37.7,99.6L38.0,99.3L39.4,96.4L39.5,96.0L40.2,95.0L40.4,94.2L41.1,93.1L42.9,89.4L43.2,88.6L44.0,87.2L44.1,86.8L44.7,85.8L44.9,85.2L47.3,80.3L48.1,79.3L49.4,78.0L51.9,76.4L52.5,76.3L53.0,75.9L56.5,74.5L59.6,73.7L62.2,73.3L65.3,73.2L68.0,73.4L70.3,73.8L72.3,74.5L74.5,75.7L75.5,76.7L76.5,78.2L76.9,79.6L76.9,81.1L76.5,82.8L76.2,83.3L76.2,83.7L75.6,84.8L75.5,85.2L75.3,85.5L75.1,86.0L73.5,89.0L73.3,89.7L72.2,91.7L71.0,94.3L70.8,94.5L70.6,95.1L70.2,95.6L69.7,97.0L68.8,98.0L67.4,98.7L66.3,99.6L65.8,100.5L65.7,101.2L65.7,102.3L66.0,102.9L66.6,103.5L67.7,103.9L68.7,103.9L69.7,103.7L71.0,103.0L71.9,101.9L72.2,100.9L72.2,99.9L71.9,99.1L71.3,98.2L71.3,97.8L72.1,96.0L72.4,95.6L72.6,94.9L73.5,93.1L73.8,92.7L73.9,92.3L74.7,90.9L75.3,89.5L75.6,89.1L76.3,87.4L77.0,86.3L78.2,83.4L78.7,81.6L78.8,79.6L78.4,77.8L77.6,76.5L76.0,74.7L74.4,73.6L73.4,73.1L70.4,72.1L69.7,72.1L68.8,71.9L67.0,71.6L62.1,71.6L58.5,72.3L53.8,73.7L50.8,75.1L50.5,75.2L50.3,74.9L50.3,74.5L50.6,74.0L50.6,73.7L55.2,64.8L55.2,64.4L57.1,60.8L57.2,60.3L57.9,59.2L59.0,57.0L59.1,56.5L59.3,56.3L59.9,55.2L60.0,54.8L60.3,54.3L61.5,51.7L63.0,49.0L65.4,43.8L66.4,42.2L66.5,41.8L70.9,33.0L71.1,32.8Z M60.0,9.2L58.1,9.4L57.2,9.7L56.0,9.7L54.3,10.0L53.7,10.2L52.8,10.3L51.5,10.7L51.1,10.7L49.1,11.2L48.6,11.4L47.4,11.7L46.3,12.2L44.8,12.6L40.6,14.4L40.3,14.6L38.8,15.3L38.5,15.5L37.9,15.7L37.7,16.0L35.6,17.0L35.3,17.4L34.5,17.8L31.2,20.1L27.6,23.0L23.4,27.1L22.7,28.2L21.3,29.7L20.8,30.5L19.8,31.6L19.5,32.3L18.3,33.8L18.0,34.6L17.3,35.5L17.1,35.9L15.1,39.3L13.6,42.5L12.0,46.8L11.1,50.2L10.6,51.1L10.6,52.3L10.1,54.2L9.7,56.6L9.2,63.1L9.3,67.8L9.5,70.2L9.7,71.0L10.0,73.7L10.8,77.6L11.1,78.4L11.2,79.2L11.5,79.9L11.7,80.8L11.9,81.3L12.5,83.4L12.7,83.8L13.4,85.6L14.1,86.9L14.2,87.4L14.8,88.9L15.8,90.4L16.1,91.1L16.3,91.3L16.5,91.9L16.8,92.2L16.8,92.5L17.1,92.8L17.4,93.4L20.1,97.4L23.8,101.7L25.2,103.0L25.6,103.0L26.2,102.3L26.7,101.2L26.8,100.8L28.4,97.9L28.6,97.1L28.9,96.7L29.1,96.1L29.4,95.7L29.5,95.3L29.8,94.9L30.0,94.3L30.8,93.0L31.0,92.3L31.7,91.2L32.3,89.8L32.7,89.1L32.8,88.7L33.0,88.5L33.3,87.7L33.5,87.5L34.4,85.5L35.4,83.9L35.5,83.2L37.1,80.2L37.6,79.0L38.2,78.0L38.8,77.4L38.8,76.8L39.0,76.3L39.8,74.9L39.8,74.6L41.1,72.3L42.9,68.5L43.1,68.0L43.4,67.7L43.4,67.3L44.3,65.7L44.6,64.9L45.3,63.7L45.3,63.5L45.7,62.8L45.9,62.2L49.1,56.0L49.1,55.6L49.4,55.3L50.5,52.9L50.8,52.6L52.2,49.3L52.6,48.8L52.9,48.1L57.7,38.6L57.6,38.0L57.3,37.7L56.9,37.7L52.1,37.7L48.3,37.8L47.8,37.7L47.7,37.6L47.7,37.2L48.1,36.9L50.8,35.5L51.7,35.3L52.1,35.0L55.0,33.5L56.2,33.1L60.5,31.0L60.7,31.0L63.1,29.9L65.4,28.7L67.8,27.7L69.3,26.9L70.6,26.4L71.0,26.1L73.1,25.1L73.7,24.9L74.3,24.5L76.3,23.7L78.9,22.4L79.6,22.3L80.9,21.5L85.5,19.7L85.8,20.0L85.8,20.1L85.2,21.4L84.8,22.0L84.2,23.5L83.9,23.9L81.5,29.0L80.6,30.6L80.5,31.1L77.8,36.1L77.8,36.3L77.3,37.0L76.6,38.4L76.3,39.1L75.8,40.0L74.5,42.6L74.4,43.0L73.8,43.9L72.9,46.0L64.9,61.9L64.9,62.2L64.0,63.9L63.4,65.3L63.4,66.0L64.0,66.1L67.1,65.5L69.1,65.3L71.9,65.3L74.2,65.5L77.9,66.3L78.9,66.8L79.7,67.0L82.3,68.4L83.8,69.6L85.4,71.5L86.4,73.5L86.8,74.5L87.4,77.2L87.3,80.2L86.7,82.8L86.0,84.6L85.7,85.1L85.7,85.5L84.6,88.0L82.5,91.9L82.4,92.3L81.7,93.6L81.5,94.3L79.9,97.1L79.2,98.9L78.5,100.0L78.3,100.7L77.4,102.2L76.9,103.4L76.4,104.1L76.0,105.3L75.2,106.6L74.9,107.5L74.2,108.3L73.4,108.5L67.8,108.6L66.6,108.8L60.3,108.8L57.0,108.9L56.0,108.7L55.8,108.5L55.8,107.9L57.4,104.8L57.6,104.2L57.9,103.9L58.4,102.8L58.6,102.2L60.2,99.3L60.3,98.9L61.8,96.0L62.0,95.7L62.2,95.1L62.5,94.7L62.6,94.3L63.4,92.8L64.0,91.4L64.4,90.9L64.4,90.7L66.2,87.3L66.2,86.9L67.5,84.2L67.7,83.1L67.7,82.2L67.5,81.6L66.8,80.7L65.3,79.8L63.9,79.6L62.2,79.5L59.9,79.8L59.3,80.1L58.7,80.2L58.0,80.6L57.5,80.7L55.9,81.7L54.6,83.1L54.0,84.1L53.5,85.4L52.8,86.4L52.6,87.0L52.3,87.4L49.5,93.1L49.4,93.5L48.0,96.1L48.0,96.4L47.2,97.8L47.1,98.2L46.4,99.5L46.2,100.0L45.2,102.0L44.9,102.4L44.8,102.8L44.5,103.2L44.4,103.6L43.4,105.3L43.4,105.6L42.6,107.0L42.2,108.1L40.8,110.7L40.5,111.7L39.9,112.6L40.0,113.3L40.3,113.6L41.3,114.2L45.6,116.0L47.0,116.3L49.7,117.3L50.3,117.3L51.0,117.6L52.1,117.7L52.7,118.0L57.6,118.8L62.2,119.1L67.1,119.1L68.4,118.9L71.7,118.6L72.5,118.4L74.0,118.2L74.6,118.0L75.7,117.9L77.2,117.6L82.5,115.9L85.6,114.7L87.2,113.9L88.4,113.5L92.3,111.4L97.0,108.2L100.6,105.3L104.0,101.9L107.7,97.6L109.2,95.3L110.1,94.3L111.4,92.2L111.9,90.8L112.7,89.7L115.4,83.8L117.0,78.9L117.2,77.2L117.4,77.0L117.4,76.6L117.6,75.9L118.3,72.8L118.3,72.1L118.7,69.8L118.9,67.5L118.9,62.0L118.8,60.9L118.6,57.6L118.4,56.6L118.1,54.3L117.7,52.8L117.6,51.7L117.4,51.3L117.3,50.4L116.9,49.3L116.9,48.8L116.5,47.8L116.0,46.0L115.2,43.8L114.9,43.3L114.8,42.7L114.3,41.9L114.0,40.9L112.4,37.8L111.0,35.5L110.9,35.1L110.1,34.2L109.7,33.3L108.1,31.1L103.7,26.0L100.4,22.8L99.6,22.3L97.8,20.6L96.5,19.7L95.8,19.3L95.0,18.6L91.5,16.4L89.5,15.4L88.6,14.8L87.8,14.4L87.3,14.4L85.6,13.5L84.7,13.2L84.4,13.0L83.3,12.6L82.1,12.2L82.0,12.1L81.0,11.8L80.6,11.6L79.7,11.4L78.9,11.1L77.8,10.9L77.0,10.6L76.0,10.5L75.1,10.2L70.1,9.5L66.5,9.1Z" fill="#000" fill-rule="evenodd"/>
</svg>