<svg xmlns="http://www.w3.org/2000/svg" viewBox="0 0 128 128" width="128" height="128">
  <path d="M50.9,23.0L49.9,23.5L48.8,23.9L48.4,24.2L48.0,24.3L46.6,25.1L45.9,25.2L45.5,25.5L42.9,26.7L39.2,28.5L37.6,29.2L32.6,31.7L32.0,31.8L28.8,33.5L28.1,33.7L27.1,34.3L23.7,35.8L21.6,36.9L20.0,37.5L14.4,40.3L13.8,40.5L12.3,41.3L11.9,41.4L10.0,42.3L9.3,42.9L9.1,43.3L9.1,46.2L9.3,52.9L9.3,54.2L9.6,67.3L9.6,80.2L9.7,80.6L10.1,81.0L11.6,81.7L12.2,82.1L14.2,83.0L14.4,83.2L21.9,87.0L22.5,87.1L22.6,86.9L22.8,86.6L22.8,82.5L22.6,79.8L22.7,73.4L22.6,69.9L22.6,67.7L22.5,57.8L22.6,56.4L22.8,56.1L23.7,56.2L24.3,56.6L25.5,57.1L27.1,58.0L27.4,58.0L28.5,58.6L30.0,59.2L30.2,59.5L32.2,60.3L34.2,61.4L34.6,61.4L35.4,61.9L36.6,62.4L37.7,63.0L43.2,65.5L44.1,66.4L44.1,73.3L44.4,82.1L44.4,93.6L44.5,98.3L45.1,98.9L45.6,99.1L46.0,99.4L50.1,101.3L51.4,102.1L51.8,102.2L54.3,103.6L56.2,104.4L56.9,104.9L57.8,105.3L58.5,105.3L63.9,102.6L64.7,102.3L68.1,100.6L68.6,100.4L69.2,100.0L69.5,99.9L71.3,99.0L71.7,98.9L72.7,98.3L73.2,98.1L75.4,96.9L75.9,96.8L76.2,96.5L78.8,95.4L79.2,95.1L81.0,94.3L81.8,94.0L85.5,92.1L85.9,92.0L88.4,90.7L88.6,90.7L90.1,89.9L90.9,89.6L92.6,88.7L95.1,87.6L98.5,85.8L99.1,85.7L102.5,83.9L103.5,83.5L104.1,83.0L104.7,82.9L108.1,80.9L110.9,79.0L113.6,76.4L113.6,76.2L114.4,75.3L115.4,73.7L117.2,70.2L117.8,68.3L118.0,67.2L118.7,64.3L119.1,60.1L119.0,57.3L118.7,55.5L118.4,54.0L117.7,52.3L116.6,50.6L115.4,49.4L113.8,48.4L111.9,47.7L109.5,47.6L107.2,48.0L104.7,48.8L104.0,49.2L102.8,49.6L101.2,50.4L97.1,52.2L96.2,52.8L93.7,53.9L91.9,54.8L91.5,54.9L89.3,56.1L88.9,56.2L88.1,56.6L86.2,57.5L85.8,57.8L85.0,58.1L82.9,59.2L81.8,59.6L79.4,60.9L76.8,62.0L76.4,62.3L75.1,62.9L74.5,63.3L71.4,64.6L69.5,65.7L68.8,65.8L62.1,69.2L60.7,69.8L59.6,69.7L59.0,69.1L58.9,68.0L59.4,67.0L60.1,66.3L60.8,65.8L62.9,64.7L64.1,64.4L65.1,63.7L66.6,63.1L68.0,62.3L68.4,62.2L70.5,61.0L72.9,60.0L73.2,59.7L74.0,59.5L74.9,58.9L76.2,58.4L76.6,58.1L77.0,58.0L80.3,56.3L81.5,55.9L83.0,55.0L84.3,54.5L86.6,53.3L86.9,53.3L90.1,51.6L91.0,51.3L96.1,48.7L97.2,48.3L100.5,46.6L100.9,46.5L101.3,46.2L102.5,45.7L102.9,45.4L103.8,45.1L103.9,44.9L103.9,44.4L99.9,42.7L99.1,42.5L97.9,41.8L97.3,41.7L93.7,40.1L92.9,39.9L91.7,39.2L90.1,38.7L89.4,38.3L88.9,38.1L88.3,38.1L83.7,40.4L83.1,40.6L81.4,41.4L81.1,41.7L79.2,42.5L72.9,45.7L71.5,46.2L67.6,48.3L66.4,48.8L64.0,50.0L63.6,50.1L62.4,50.8L60.3,51.7L54.4,54.8L53.3,54.8L50.1,53.3L48.5,52.6L47.4,52.0L44.8,50.9L40.3,48.7L40.0,48.6L39.5,48.3L37.2,47.4L36.8,47.0L33.7,45.6L32.9,45.1L32.9,44.9L33.2,44.7L35.0,43.7L37.7,42.3L38.4,42.1L39.4,41.4L41.0,40.8L41.2,40.6L45.4,38.7L47.6,37.5L48.0,37.4L50.2,36.4L50.7,36.0L53.2,35.0L54.2,34.4L58.9,32.2L59.3,31.8L59.9,31.7L60.3,31.4L64.1,29.7L65.1,29.2L65.2,28.9L65.2,28.8L64.8,28.4L62.9,27.7L62.4,27.4L61.2,27.0L60.7,26.7L58.7,25.9L55.9,24.7L55.1,24.5L54.2,24.0L52.8,23.5L52.1,23.1Z M106.3,63.9L106.5,64.4L106.5,65.0L106.2,66.2L105.2,67.3L103.4,68.4L100.1,70.1L97.0,71.4L96.1,72.0L95.5,72.1L94.4,72.8L94.0,72.9L91.0,74.4L90.1,74.7L88.8,75.4L88.0,75.8L86.8,76.3L83.2,78.1L82.9,78.2L78.1,80.6L75.7,81.7L74.7,82.3L74.3,82.4L72.7,83.2L68.1,85.4L65.5,86.7L65.3,86.7L63.7,87.6L63.0,87.8L60.3,89.2L59.7,89.5L59.3,89.5L59.1,89.2L59.1,86.2L59.4,85.8L59.9,85.4L68.1,81.4L71.0,80.1L74.7,78.2L75.5,78.0L75.7,77.7L77.6,76.8L78.2,76.6L78.9,76.2L79.9,75.8L80.2,75.5L83.4,74.1L85.1,73.2L85.5,72.9L86.9,72.4L90.6,70.5L95.0,68.4L95.4,68.4L96.1,67.9L97.3,67.4L97.7,67.1L99.1,66.6L100.5,65.8L100.9,65.7L102.1,65.0L102.5,64.9L103.2,64.5L105.2,63.6L106.1,63.6Z" fill="#000" fill-rule="evenodd"/>
</svg>