<svg xmlns="http://www.w3.org/2000/svg" viewBox="0 0 128 128" width="128" height="128">
  <path d="M118.1,15.7L117.4,15.3L114.1,15.2L103.1,15.2L98.8,15.4L94.4,15.4L93.5,15.7L93.3,19.5L93.6,34.5L93.5,50.6L93.1,51.3L92.5,51.5L84.3,51.7L64.9,51.7L64.2,51.6L63.8,51.0L63.8,50.2L63.6,49.6L63.7,44.5L63.4,29.5L63.2,27.3L63.3,23.8L63.1,22.2L63.1,18.0L63.0,16.5L62.4,16.0L52.1,15.8L38.3,15.8L37.7,16.0L37.4,16.6L37.8,34.3L37.7,36.4L37.3,36.7L36.0,36.9L20.1,37.0L16.1,37.2L13.6,37.1L10.2,37.2L9.8,37.4L9.4,37.8L9.4,53.5L9.7,54.2L10.1,54.3L12.8,54.4L36.9,54.2L37.8,54.4L38.2,54.9L38.6,70.9L38.5,73.3L37.9,73.9L35.7,74.0L18.3,74.1L10.4,74.4L10.0,74.8L9.9,75.2L9.9,89.9L10.0,90.8L10.2,91.2L10.9,91.5L13.7,91.6L22.5,91.5L35.9,91.5L38.3,91.7L38.7,92.3L38.8,92.8L38.9,108.8L39.0,111.2L39.2,112.1L39.4,112.4L41.0,112.7L45.1,112.8L45.5,112.6L52.2,112.6L57.5,112.4L63.5,112.5L64.0,112.2L64.2,111.6L64.1,92.7L64.0,86.7L64.0,76.8L64.5,76.2L65.2,76.0L83.6,76.0L84.6,75.8L85.8,75.9L91.6,75.9L93.3,76.1L93.6,76.5L93.8,76.9L94.3,107.6L94.5,112.1L94.7,112.4L95.5,112.7L102.3,112.7L107.9,112.9L109.3,113.1L117.6,113.1L118.4,113.0L118.8,112.6L119.0,111.9L119.0,108.1L118.8,104.9L118.8,89.6L118.6,87.6L118.6,77.9L118.4,73.1L118.3,61.7L118.3,20.7L118.2,16.7Z" fill="#000" fill-rule="evenodd"/>
</svg>