<svg xmlns="http://www.w3.org/2000/svg" viewBox="0 0 128 128" width="128" height="128">
  <path d="M118.5,9.9L117.9,9.4L107.9,9.4L105.0,9.6L104.6,9.8L104.4,10.0L104.2,21.9L104.3,55.0L104.1,55.9L103.9,56.1L103.0,56.3L73.5,56.5L67.7,56.7L66.1,56.6L56.5,56.8L45.0,56.8L44.7,56.5L44.7,56.3L45.6,55.1L47.0,53.8L55.6,44.7L79.9,20.2L80.0,19.7L79.7,19.0L70.9,10.2L70.0,10.1L69.4,10.5L66.1,14.0L55.4,24.7L54.5,25.7L45.1,35.0L44.5,35.8L36.6,43.6L35.8,44.8L33.4,46.8L26.0,54.6L24.3,56.1L23.7,55.9L23.7,11.2L23.5,10.7L22.9,10.3L11.5,10.4L10.7,10.5L10.0,11.0L9.8,11.8L9.7,15.5L9.8,36.5L9.7,43.4L9.5,44.7L9.7,45.2L9.6,69.1L9.8,71.1L9.7,78.2L9.9,89.9L9.9,118.1L10.3,118.7L10.8,118.9L21.7,119.0L22.8,118.9L23.6,118.1L23.6,73.0L23.7,72.0L24.1,71.6L24.8,71.4L29.7,71.3L38.2,71.4L41.8,71.2L50.1,71.3L55.1,71.1L70.2,71.1L79.9,70.9L83.1,71.1L83.4,71.4L83.4,71.7L81.1,74.3L55.5,99.8L52.4,103.2L47.8,107.8L47.1,108.7L47.1,109.4L56.2,118.5L56.9,118.5L64.4,111.2L65.0,110.4L86.4,88.9L87.8,87.3L90.2,85.0L90.7,84.7L91.9,83.5L92.3,82.9L103.5,71.8L104.0,71.8L104.3,72.1L104.4,74.5L104.4,117.9L104.6,118.2L105.4,118.6L117.6,118.5L118.2,118.1L118.4,117.8L118.4,111.2L118.6,107.7L118.6,85.2L118.8,77.7L118.8,17.1L118.7,10.8Z" fill="#000" fill-rule="evenodd"/>
</svg>