<svg xmlns="http://www.w3.org/2000/svg" viewBox="0 0 128 128" width="128" height="128">
  <path d="M34.2,9.5L34.0,9.8L33.9,10.2L33.9,20.2L33.7,22.1L33.8,27.7L33.5,40.9L33.6,49.9L33.2,53.8L32.8,54.4L31.2,54.7L29.9,54.5L22.8,54.6L13.6,54.4L13.1,54.6L12.9,55.0L12.7,81.0L12.5,92.5L12.5,99.4L12.3,102.1L12.4,103.6L12.2,104.8L12.2,116.6L12.0,118.2L12.5,118.5L16.5,118.6L35.3,118.6L45.0,118.8L57.0,118.7L81.0,119.0L114.2,119.0L114.8,118.8L115.1,118.0L115.1,112.9L115.3,111.7L115.4,104.3L115.5,103.2L115.6,100.7L115.5,96.3L115.8,87.6L115.8,82.5L116.0,81.4L115.9,79.7L116.1,74.4L116.1,67.7L116.4,58.8L116.3,55.5L115.6,55.0L114.5,54.9L98.9,55.0L96.5,54.8L95.8,54.2L96.4,23.3L96.4,10.2L96.1,10.0L95.2,9.9L85.8,9.7L77.0,9.7L76.3,10.0L76.1,10.8L76.1,12.2L75.9,12.8L76.0,15.5L75.7,23.7L75.7,26.0L75.5,36.7L75.6,39.0L75.3,45.1L75.3,51.1L75.0,53.9L74.8,54.3L74.2,54.8L54.8,54.7L54.1,54.3L53.8,53.5L54.0,48.2L53.9,47.5L54.1,38.8L54.0,36.0L54.3,9.8L53.9,9.5L53.0,9.4L35.0,9.3Z M75.5,55.0L76.4,54.8L86.4,54.8L90.0,55.0L95.1,55.0L95.4,55.1L96.0,55.7L96.1,58.0L95.9,63.8L95.9,70.1L95.1,97.2L95.0,99.2L94.5,99.7L94.1,99.9L91.0,100.0L76.2,99.8L75.0,99.6L74.3,99.1L74.2,94.4L74.4,90.9L74.8,55.9L75.1,55.3Z M33.9,54.8L39.1,54.6L53.1,54.7L53.5,54.8L54.3,55.5L54.3,74.1L54.0,82.5L54.1,86.5L53.9,92.0L53.9,98.0L53.7,99.2L53.1,99.6L35.0,99.7L33.5,99.6L32.8,99.0L32.6,98.5L32.5,91.6L32.7,90.5L32.6,84.6L32.7,76.0L32.9,72.8L32.8,70.9L32.9,61.5L33.0,58.4L32.9,57.1L33.2,55.4Z" fill="#000" fill-rule="evenodd"/>
</svg>