<svg xmlns="http://www.w3.org/2000/svg" viewBox="0 0 128 128" width="128" height="128">
  <path d="M90.0,32.4L89.9,32.2L89.1,32.4L88.8,32.7L87.2,33.5L85.5,34.7L83.2,36.0L77.1,39.9L75.5,40.8L72.6,42.9L71.2,43.6L70.8,44.0L68.9,45.3L68.2,45.5L67.9,45.9L66.9,46.4L65.7,47.3L65.2,47.5L64.1,48.3L63.6,48.5L62.7,49.2L61.9,49.6L60.9,50.3L60.4,50.5L57.6,52.3L57.2,52.4L56.0,53.3L55.6,53.4L54.9,54.0L49.9,56.9L49.5,57.2L49.1,57.3L48.0,58.2L47.2,58.5L46.1,59.3L45.1,59.7L44.2,60.4L44.1,60.9L44.9,61.2L46.4,61.0L54.4,61.0L58.8,60.8L64.2,60.3L68.5,59.6L71.8,58.8L74.3,57.8L75.4,57.5L77.5,56.3L77.8,56.1L78.1,56.0L80.3,54.4L82.2,52.6L84.3,49.9L85.8,47.2L86.8,45.2L86.9,44.6L87.9,42.4L88.2,40.9L88.4,40.4L88.8,38.7L89.2,37.4L89.8,34.2L90.0,33.9Z M84.6,27.1L84.3,26.9L82.2,26.8L73.6,26.8L68.4,27.0L67.2,27.2L64.8,27.4L61.7,28.0L60.8,28.3L58.1,28.9L57.3,29.2L55.1,29.9L53.6,30.7L52.3,31.3L50.2,32.6L48.6,33.8L46.5,35.7L44.1,38.6L43.8,39.3L42.5,41.5L41.5,44.4L40.7,48.1L40.4,51.1L40.4,53.9L40.6,54.1L41.0,54.1L44.7,51.9L45.1,51.6L46.0,51.2L47.7,50.2L51.6,47.5L51.9,47.4L53.1,46.5L54.9,45.5L57.1,44.0L59.3,42.8L59.7,42.5L61.8,41.3L63.6,40.0L65.0,39.3L65.4,38.9L66.4,38.4L67.6,37.5L69.1,36.8L70.0,36.1L71.5,35.3L73.6,34.0L73.9,33.9L75.4,32.9L76.3,32.5L79.2,30.5L79.9,30.2L84.1,27.8L84.5,27.4Z M23.5,10.5L22.3,11.7L21.2,13.6L21.0,14.7L20.7,32.5L20.8,36.0L20.7,43.9L20.7,52.6L20.7,58.0L20.5,58.4L20.5,59.0L20.7,59.3L20.7,71.5L20.5,72.2L20.6,85.9L20.4,90.2L20.5,96.0L20.3,100.7L20.3,112.1L20.7,114.7L21.5,116.4L23.3,118.0L25.5,118.8L30.3,119.0L40.7,119.0L41.6,118.8L98.2,118.8L102.0,118.7L104.0,118.3L104.7,118.0L105.1,117.6L105.6,117.4L106.6,116.4L107.3,115.1L107.8,112.5L107.7,92.1L107.9,64.9L107.7,55.1L107.8,44.4L107.6,40.5L107.8,39.8L107.7,35.8L107.9,30.0L108.0,17.0L107.8,14.8L107.4,13.7L106.8,12.5L105.2,10.9L104.0,10.4L101.6,9.8L76.3,9.8L57.3,9.5L51.3,9.6L44.2,9.4L28.1,9.3L26.8,9.4L25.1,9.8Z M97.5,20.4L97.8,20.7L97.9,21.9L97.7,27.1L97.3,31.4L97.3,32.5L96.8,36.0L96.0,39.6L96.0,40.3L95.3,43.9L94.4,46.4L94.3,47.1L93.5,49.1L93.1,49.7L92.9,50.5L92.2,51.9L89.8,55.5L88.5,57.1L86.2,59.5L83.5,61.7L81.7,63.0L80.2,63.6L79.8,64.0L79.1,64.2L77.5,65.1L75.6,65.6L74.0,66.3L72.0,66.9L71.2,67.0L69.7,67.4L61.7,68.4L57.9,68.6L41.6,68.6L40.8,69.0L40.7,70.6L40.8,73.9L40.6,76.2L41.0,76.3L41.5,76.3L42.8,75.3L44.6,74.5L45.3,74.3L45.5,74.1L47.5,73.7L49.9,73.6L52.3,73.8L54.4,74.5L56.4,75.7L57.6,76.6L58.4,77.5L59.3,79.1L59.8,80.5L60.0,81.9L59.9,92.9L60.0,97.4L60.5,98.7L61.6,100.1L62.0,100.4L63.5,100.9L65.5,100.9L67.2,100.3L67.8,100.0L68.9,98.7L69.3,97.4L69.6,93.9L69.6,89.0L69.8,87.1L69.8,76.3L70.1,75.6L71.9,75.4L77.4,75.4L77.8,75.6L77.8,86.9L78.0,96.1L78.7,98.4L79.5,99.5L80.2,100.1L81.1,100.6L82.2,100.9L84.0,100.8L86.0,100.0L86.9,99.1L87.4,98.0L87.6,95.5L87.5,94.0L87.7,89.7L87.7,81.3L88.2,78.2L88.5,77.7L88.8,76.8L89.5,76.3L97.3,76.3L97.4,76.8L96.8,78.2L96.4,79.7L96.0,83.0L96.1,91.4L95.9,98.4L95.4,101.0L95.2,101.8L93.8,104.5L92.0,106.4L91.0,107.1L88.9,108.1L86.3,108.8L81.6,108.9L80.9,108.6L80.0,108.6L79.1,108.3L77.2,107.4L76.4,106.9L74.9,105.5L74.0,104.2L73.6,104.1L72.2,105.8L70.8,107.0L69.0,108.0L68.3,108.1L67.3,108.5L65.7,108.6L65.4,108.8L62.2,108.9L60.2,108.4L59.1,108.3L58.4,108.1L55.4,106.4L54.0,105.0L53.0,103.6L52.5,102.5L52.3,101.6L51.9,100.8L51.5,95.4L51.7,86.4L51.3,83.9L50.8,82.9L50.1,82.4L48.7,81.8L46.6,81.5L45.6,81.7L45.3,81.8L44.9,81.8L43.4,82.6L41.6,84.4L40.9,85.9L40.7,87.2L40.6,90.0L40.4,91.1L40.2,105.2L40.0,106.8L39.8,107.1L39.1,107.3L32.6,107.2L32.2,107.0L31.9,106.6L31.8,106.0L31.8,93.3L32.1,80.1L32.0,67.2L32.2,66.5L32.4,50.1L33.0,45.6L33.7,43.4L34.4,40.8L35.0,39.2L35.3,38.7L35.4,38.2L36.4,36.5L36.7,35.8L37.8,34.4L39.0,32.3L43.1,28.2L45.1,26.7L47.7,25.0L52.8,22.5L53.9,22.3L54.3,22.0L55.6,21.7L57.5,21.0L59.3,20.6L59.9,20.6L61.4,20.2L64.3,19.8L66.6,19.8L68.4,19.5L70.9,19.5L72.8,19.3L89.5,19.6L90.9,19.8L93.6,19.8L94.2,19.9L95.6,19.9L96.9,20.1Z" fill="#000" fill-rule="evenodd"/>
</svg>