<svg xmlns="http://www.w3.org/2000/svg" viewBox="0 0 128 128" width="128" height="128">
  <path d="M78.0,65.8L78.0,66.2L79.0,67.9L79.8,68.4L80.4,68.5L81.1,68.4L82.0,67.8L82.5,67.6L83.0,67.7L83.2,68.0L84.0,68.4L85.4,68.4L86.4,67.8L86.9,66.8L86.8,66.5L85.9,66.5L85.3,66.8L83.9,66.8L82.9,66.3L82.1,66.4L81.1,66.7L80.1,66.7L79.6,66.5L78.7,65.8Z M79.4,62.4L79.0,62.8L79.0,63.5L79.3,63.9L80.0,64.1L80.4,63.9L80.6,63.1L80.4,62.6L80.0,62.4Z M85.5,62.3L85.1,62.9L85.2,63.5L85.5,63.8L86.3,63.8L86.7,63.3L86.6,62.6L86.3,62.3Z M40.5,63.4L41.6,64.8L42.7,65.2L43.8,65.0L45.3,64.0L45.9,64.2L46.9,64.9L48.6,64.9L49.0,64.7L50.0,63.7L50.1,63.4L50.0,63.0L49.3,62.9L48.6,63.2L46.9,63.2L45.5,62.2L44.8,62.4L43.8,63.2L43.3,63.4L42.1,63.4L40.9,62.9L40.5,63.0Z M48.5,58.4L47.8,59.1L47.8,59.5L48.2,60.0L49.0,60.1L49.5,59.7L49.5,58.9L49.0,58.4Z M41.8,58.5L41.6,58.9L41.7,59.7L42.1,60.0L43.0,60.0L43.3,59.6L43.3,58.9L42.7,58.3L42.1,58.3Z M10.9,9.5L10.5,9.9L10.4,16.7L10.5,22.5L10.3,38.0L10.3,70.1L10.0,112.0L10.1,118.4L10.4,118.7L11.1,118.9L80.3,118.3L113.2,118.4L117.4,118.2L117.8,117.8L117.9,116.4L117.8,93.5L118.0,85.1L117.9,82.9L118.1,78.5L118.0,73.9L118.2,62.8L118.2,11.3L118.0,10.7L117.3,10.3L95.8,10.1L92.2,9.9L75.3,9.9L65.5,9.8L49.9,9.8L25.0,9.5L22.5,9.6L16.1,9.4Z M38.5,55.7L38.8,55.4L39.6,55.1L41.4,55.1L51.5,55.1L52.9,55.3L53.2,55.6L53.4,56.3L53.4,67.9L53.5,68.1L54.0,68.6L54.5,68.7L74.5,68.7L75.3,68.4L75.5,67.8L75.4,65.4L75.6,61.9L75.4,59.5L76.0,58.9L77.7,58.7L89.3,58.8L90.3,59.2L90.6,59.7L90.3,95.0L90.1,95.6L89.8,95.8L88.4,96.1L76.0,96.0L75.4,95.5L75.4,84.1L75.2,83.7L74.7,83.4L72.5,83.3L54.0,83.4L53.5,83.7L53.4,84.1L53.2,86.1L53.2,94.5L53.1,95.5L52.8,95.9L52.4,96.1L40.3,96.2L38.6,95.8L38.2,95.3L38.2,84.1L38.5,68.0L38.4,62.8L38.6,56.6Z M88.2,35.3L89.1,35.8L90.5,37.4L90.8,38.3L90.9,39.5L90.4,41.0L88.6,42.7L87.9,43.8L87.9,44.0L88.4,44.3L88.8,44.2L89.6,43.1L90.7,42.1L91.1,41.9L92.4,41.7L93.9,42.1L94.7,42.6L95.8,43.8L96.9,45.4L97.3,47.3L97.3,48.4L97.0,49.7L95.9,50.9L94.7,51.7L93.7,51.9L91.0,51.8L90.7,52.0L90.5,56.7L90.0,57.2L83.4,57.3L76.9,57.2L76.0,57.0L75.5,56.5L75.6,55.7L75.4,50.0L75.1,49.7L74.6,49.7L73.6,50.1L72.5,50.1L71.4,49.5L70.6,48.6L69.8,47.4L69.6,46.1L69.5,43.7L69.7,42.0L70.1,41.1L70.9,40.1L72.5,38.9L73.8,38.5L75.3,38.4L75.6,38.6L76.2,38.7L77.0,39.1L77.7,39.8L78.4,41.1L79.0,41.5L79.3,41.5L79.8,41.0L79.8,40.5L79.2,38.5L79.3,37.4L79.8,36.1L80.7,35.3L81.8,34.7L83.4,34.3L85.5,34.3L87.0,34.7Z M52.7,27.2L53.5,27.7L54.5,28.7L54.9,29.5L54.9,30.8L54.4,31.7L52.9,33.4L52.7,33.8L52.8,34.2L53.0,34.4L53.7,34.4L55.1,33.1L56.2,32.6L56.7,32.6L57.6,32.9L58.4,33.5L59.6,34.6L60.2,35.7L60.9,37.9L61.0,39.9L60.3,42.3L59.8,43.5L58.8,44.6L57.6,45.3L56.0,45.4L54.3,44.8L53.9,44.8L53.5,45.1L53.4,46.5L53.4,52.8L52.9,53.3L39.8,53.4L38.9,53.2L38.6,52.7L38.6,43.0L38.2,42.6L37.7,42.6L36.3,43.3L35.1,43.3L33.7,42.5L32.4,41.2L31.7,39.3L31.7,37.5L32.0,36.7L32.0,36.2L32.7,34.7L33.4,33.7L34.6,32.4L35.8,31.9L37.1,31.7L37.8,31.8L38.8,32.2L40.8,34.9L41.6,34.9L41.8,34.7L41.8,34.1L41.1,33.0L40.5,31.4L40.7,30.1L41.6,28.6L42.8,27.5L44.6,26.6L45.7,26.2L48.0,26.0L50.6,26.3Z" fill="#000" fill-rule="evenodd"/>
</svg>