<svg xmlns="http://www.w3.org/2000/svg" viewBox="0 0 128 128" width="128" height="128">
  <path d="M76.2,46.1L73.7,47.2L73.1,47.6L71.1,49.4L69.9,51.1L69.2,52.9L68.8,54.8L68.8,56.5L69.1,58.5L70.0,60.7L71.1,62.4L72.2,63.5L73.9,64.8L76.0,65.6L78.4,66.1L79.8,66.1L81.5,65.8L82.9,65.3L84.1,64.7L85.0,64.1L86.5,62.7L87.3,61.7L87.7,60.7L87.9,60.5L88.3,59.4L88.5,59.1L88.8,57.9L88.9,54.9L88.6,53.7L87.9,51.7L87.2,50.4L85.8,48.7L84.0,47.2L82.1,46.4L79.9,45.9L77.6,45.9Z M33.9,32.0L33.5,31.6L33.0,31.5L27.2,31.6L26.8,31.9L26.8,39.2L26.3,39.7L17.4,39.8L16.7,39.6L16.4,39.2L16.2,32.0L16.1,31.8L15.5,31.6L10.2,31.7L9.6,31.9L9.3,32.4L9.3,52.9L9.5,55.0L10.3,55.3L16.0,55.1L16.3,54.6L16.2,51.0L16.3,47.6L16.5,47.1L17.2,46.8L22.4,46.7L25.7,46.8L26.7,47.2L26.9,48.2L26.8,54.9L26.9,55.1L27.4,55.3L33.3,55.3L34.0,55.0L33.9,42.3Z M103.5,26.5L98.1,23.0L95.4,21.6L92.4,20.3L91.5,20.0L91.3,19.9L86.1,18.5L81.7,18.0L79.1,17.9L78.2,18.0L73.3,18.2L70.0,18.7L69.0,19.1L66.7,19.6L64.3,20.6L64.0,20.6L60.7,22.1L56.8,24.6L54.1,26.8L52.5,28.3L49.9,31.3L49.7,31.9L48.6,33.3L46.9,36.4L45.7,39.5L45.0,42.0L44.4,45.3L44.2,47.2L44.2,50.4L44.4,53.4L44.7,55.9L45.7,59.7L46.7,62.2L47.3,63.1L47.8,64.3L49.7,67.2L50.7,68.5L54.0,71.8L55.4,72.9L56.1,73.2L57.7,74.3L60.6,75.7L63.8,76.7L67.8,77.4L72.6,77.4L76.3,76.7L78.8,75.7L80.3,75.0L83.0,73.2L85.2,71.0L86.4,69.5L87.8,67.1L88.0,66.5L88.5,65.6L89.1,63.8L89.4,62.7L89.5,61.0L89.1,61.1L88.8,61.4L88.3,62.4L88.2,62.8L87.8,63.2L87.8,63.7L85.4,66.2L84.1,67.3L82.7,68.1L80.3,69.1L79.0,69.2L78.1,69.4L75.4,69.4L73.8,69.1L72.8,68.7L72.2,68.6L69.7,67.2L67.8,65.7L66.4,64.2L65.6,62.9L64.2,59.9L63.9,58.5L63.7,57.9L63.5,56.2L63.5,53.5L63.7,52.0L64.1,50.0L64.5,48.7L66.0,45.9L66.7,45.2L66.9,44.7L68.6,42.9L71.1,41.0L74.2,39.5L76.1,38.9L76.7,38.9L78.3,38.5L80.5,38.5L82.6,38.8L85.4,39.6L88.4,41.0L91.1,42.9L92.2,44.0L93.8,45.9L94.4,46.9L94.8,47.2L95.7,49.1L96.9,52.8L97.1,52.9L97.1,53.4L97.4,54.6L97.4,55.2L97.9,57.3L98.0,61.1L97.9,62.1L97.8,64.3L97.4,65.3L97.1,67.5L96.7,68.4L96.4,69.4L94.4,73.8L91.6,77.8L91.0,78.4L90.8,78.8L88.9,80.8L86.2,83.1L83.5,84.7L78.9,86.8L75.4,87.8L74.1,87.8L72.4,88.2L66.1,88.2L64.9,87.9L62.6,87.8L58.3,86.7L54.8,85.4L54.2,85.1L54.0,85.1L50.8,83.3L47.6,80.7L46.3,79.8L44.7,78.1L43.9,77.5L41.4,74.5L38.4,70.3L37.8,68.9L36.9,67.5L36.6,66.5L36.2,65.8L35.6,64.3L34.5,60.9L34.1,60.4L33.6,60.2L16.1,60.1L10.4,60.3L10.1,60.5L10.0,61.7L10.4,63.6L10.5,65.0L11.7,68.9L11.9,70.4L12.2,70.8L12.4,71.9L13.6,74.9L14.2,76.2L14.6,77.2L16.0,80.2L16.4,80.8L17.1,82.2L17.4,82.6L18.1,84.0L19.3,85.9L22.3,89.7L26.8,94.4L28.5,96.0L31.4,98.5L35.8,101.6L38.6,103.3L43.4,105.6L49.2,107.8L49.7,107.8L50.5,108.1L51.3,108.2L52.1,108.6L53.1,108.7L54.4,109.2L55.5,109.3L57.3,109.7L58.6,109.8L60.3,110.1L63.7,110.4L69.9,110.4L72.6,110.2L73.9,110.0L76.0,109.8L77.3,109.4L77.8,109.4L79.5,108.9L82.9,108.3L87.4,106.8L91.2,105.1L91.6,104.8L93.3,104.0L94.2,103.3L96.4,102.1L101.3,98.4L102.5,97.1L102.8,97.0L104.3,95.7L107.2,92.5L107.4,92.1L108.0,91.6L109.4,89.7L110.1,88.5L110.9,87.8L111.9,86.0L112.2,85.2L112.9,84.3L114.4,81.4L114.4,81.0L115.0,80.2L115.9,77.6L116.3,77.0L116.3,76.8L116.6,76.2L118.0,71.3L118.9,66.0L118.8,64.4L118.9,63.7L118.9,59.8L118.6,54.9L118.2,53.5L118.2,51.9L117.5,49.3L117.4,48.2L117.0,47.5L116.3,44.7L114.4,40.1L114.1,39.8L113.8,39.1L112.3,36.4L110.5,34.0L110.5,33.9L109.8,33.1L109.5,32.6L108.0,30.7L105.2,28.0Z" fill="#000" fill-rule="evenodd"/>
</svg>