<svg xmlns="http://www.w3.org/2000/svg" viewBox="0 0 128 128" width="128" height="128">
  <path d="M83.9,75.5L83.5,75.2L83.0,75.1L68.4,75.3L67.9,75.8L67.9,80.3L68.1,80.6L68.6,80.7L71.0,80.7L71.6,80.8L71.9,80.9L72.2,81.3L72.2,82.4L72.1,82.8L71.9,83.0L70.1,83.2L60.2,83.2L58.7,83.3L57.6,83.3L57.0,83.0L56.9,82.1L56.9,81.1L57.3,80.8L60.6,80.7L61.1,80.4L61.3,79.9L61.3,75.9L61.1,75.5L60.2,75.3L45.4,75.4L45.0,75.5L44.7,76.0L44.6,76.7L44.6,79.7L44.8,80.5L45.2,80.7L48.4,80.8L48.7,80.9L49.1,81.4L49.2,85.9L49.2,92.5L49.1,93.4L48.8,93.8L48.3,94.0L45.4,94.0L45.1,94.1L44.9,94.3L44.8,95.0L44.8,98.6L45.1,98.9L45.4,99.0L60.8,98.9L61.0,98.8L61.4,98.4L61.3,94.5L60.9,94.0L60.7,94.0L57.9,94.0L57.0,93.7L57.0,91.1L57.4,90.8L59.4,90.6L71.2,90.6L71.7,90.8L72.2,91.1L72.2,93.2L72.1,93.6L71.8,93.8L71.2,94.0L68.7,94.0L68.3,94.0L68.0,94.3L67.9,98.1L68.0,98.4L68.2,98.7L68.7,98.8L78.6,98.7L83.6,98.7L83.8,98.6L84.1,98.1L84.1,95.0L84.0,94.1L83.8,94.0L83.2,93.8L80.3,93.8L79.9,93.5L79.8,93.3L79.7,83.8L79.7,81.1L80.0,80.8L80.7,80.6L83.5,80.6L83.9,80.2L84.1,78.6L84.1,76.2Z M44.0,37.8L43.6,38.3L43.5,49.6L43.6,53.5L43.6,57.5L43.5,61.2L43.3,61.6L42.4,62.4L41.9,62.8L39.3,65.2L36.9,68.1L36.5,68.9L36.0,69.3L35.9,69.8L34.7,71.6L33.6,73.8L33.3,74.7L32.7,75.3L32.8,76.1L32.3,77.2L31.9,77.7L31.4,77.8L31.4,78.0L31.8,78.4L31.9,78.9L31.2,81.6L30.9,84.8L30.9,89.7L31.2,91.1L31.3,92.5L31.6,93.4L32.0,95.5L32.8,97.9L33.1,98.6L33.5,99.7L35.1,102.9L36.8,105.5L39.5,108.8L41.2,110.4L41.5,110.6L43.3,112.2L47.0,114.7L49.3,115.9L49.7,115.9L51.7,116.9L55.4,118.1L59.9,119.0L63.1,119.2L65.7,119.2L68.4,119.1L69.8,118.8L70.7,118.7L71.7,118.4L73.0,118.2L75.1,117.5L75.8,117.3L79.1,116.1L81.3,115.0L82.8,114.1L86.2,111.7L89.2,108.9L92.0,105.4L94.0,101.9L95.7,97.7L96.7,93.5L97.2,89.4L97.3,85.3L97.2,83.1L97.1,82.1L96.3,78.3L95.6,76.3L95.4,75.3L94.8,74.0L94.6,73.4L93.9,71.8L93.0,70.4L92.8,69.9L92.6,69.6L91.9,68.4L90.8,66.9L87.5,63.2L85.6,61.6L85.3,61.1L85.0,52.3L85.0,38.1L84.4,37.8Z M51.8,43.9L56.2,43.8L70.1,43.8L77.1,43.9L77.3,44.2L77.5,44.8L77.7,61.3L77.9,64.9L79.7,65.9L81.1,66.9L81.6,67.5L81.8,67.5L84.3,69.9L86.3,72.4L88.2,75.4L89.1,77.3L89.5,78.6L89.6,78.8L90.0,80.3L90.4,81.0L90.5,82.3L90.7,83.0L91.0,85.5L90.8,90.2L89.9,94.0L89.4,95.5L89.1,96.1L88.4,97.8L88.2,98.0L88.2,98.4L87.2,99.8L86.5,101.0L85.2,102.6L85.1,102.8L82.6,105.4L80.5,107.1L80.3,107.4L76.2,109.6L75.9,109.7L74.6,110.3L73.9,110.5L71.8,111.3L71.0,111.4L70.4,111.6L69.9,111.6L68.5,112.0L66.2,112.2L63.4,112.2L61.1,112.1L59.0,111.8L58.0,111.4L56.2,111.0L52.5,109.6L50.4,108.5L49.9,108.0L48.0,106.8L46.4,105.6L43.5,102.5L42.1,100.6L40.8,98.5L40.0,96.6L39.6,96.0L39.1,94.5L38.9,93.6L38.5,92.3L38.2,90.2L38.0,89.3L37.9,84.8L38.1,84.1L38.1,82.7L38.5,81.6L38.7,80.5L39.3,78.9L40.0,76.9L40.3,76.5L40.7,75.5L40.9,75.3L41.3,74.3L42.1,73.1L42.4,72.6L45.3,69.1L47.7,66.9L49.7,65.5L50.7,65.0L51.3,64.3L51.3,44.5Z M82.8,27.7L82.7,27.5L82.1,27.3L80.0,27.3L76.8,27.7L75.2,27.7L73.3,28.0L70.6,28.1L70.0,28.2L69.0,28.2L62.5,28.8L61.4,28.8L57.2,29.3L55.6,29.3L54.1,29.5L52.3,29.5L51.8,29.6L49.9,29.7L49.1,29.9L47.7,29.9L46.0,30.1L45.4,30.4L45.4,36.5L45.8,37.0L48.3,37.0L50.6,36.7L56.6,36.3L57.3,36.2L59.7,36.1L61.2,35.9L62.9,35.9L64.0,35.7L66.8,35.6L67.8,35.4L68.8,35.4L69.4,35.3L73.8,35.1L74.4,34.9L76.2,34.9L77.7,34.6L79.2,34.6L80.6,34.4L82.1,34.4L82.7,34.0Z M82.6,17.3L82.4,17.0L82.1,16.8L81.2,16.8L79.1,17.1L77.7,17.1L70.1,17.7L67.8,17.7L65.5,18.0L64.3,18.0L60.7,18.4L59.5,18.4L58.8,18.5L56.1,18.6L55.3,18.8L51.3,19.0L50.7,19.1L49.4,19.1L49.0,19.3L47.8,19.3L45.8,19.5L45.5,19.7L45.4,20.1L45.4,26.3L45.7,26.5L49.4,26.4L54.1,25.9L56.3,25.8L57.0,25.7L58.5,25.7L59.9,25.5L61.1,25.5L62.8,25.2L66.4,25.1L67.8,24.9L70.3,24.8L71.7,24.6L73.6,24.5L75.4,24.3L82.1,23.9L82.6,23.4L82.7,22.6Z M55.1,15.7L55.2,16.2L55.5,16.4L56.8,16.5L59.3,16.4L72.7,16.5L73.1,16.3L73.0,15.1L72.7,14.0L72.6,13.3L72.3,12.5L71.7,10.1L71.3,9.3L70.5,9.1L57.4,9.1L57.1,9.2L56.7,9.8Z" fill="#000" fill-rule="evenodd"/>
</svg>