<svg xmlns="http://www.w3.org/2000/svg" viewBox="0 0 128 128" width="128" height="128">
  <path d="M58.3,70.6L58.2,79.0L58.3,81.3L58.6,81.7L59.0,81.9L68.2,81.7L69.4,81.8L70.4,81.6L70.6,81.3L70.6,70.7L70.3,70.2L59.9,70.2L58.8,70.2Z M58.0,47.2L57.9,47.4L58.0,54.3L58.0,56.3L58.0,58.1L58.2,58.4L58.7,58.7L69.6,58.6L70.1,58.4L70.4,58.2L70.4,47.4L70.2,47.0L69.8,46.8L58.5,46.8Z M118.9,23.7L118.3,23.3L109.0,23.2L78.7,23.4L76.3,23.3L60.1,23.6L54.8,23.5L42.4,23.7L35.4,23.7L29.0,24.0L27.2,23.8L26.7,24.0L18.2,24.1L14.0,24.3L10.8,24.3L9.6,24.6L9.3,24.9L9.2,26.0L9.4,34.5L9.4,45.4L9.6,51.8L9.6,60.1L9.7,64.8L10.0,94.6L10.1,103.9L10.4,104.7L10.8,104.9L19.9,105.1L45.4,104.9L59.0,105.0L66.8,104.8L69.7,104.9L72.8,104.8L81.1,104.8L103.8,104.3L118.1,104.1L118.6,103.9L118.9,103.5L119.0,102.2Z M106.7,35.7L106.7,49.6L106.8,58.7L106.8,72.0L106.9,80.9L106.8,92.0L106.6,92.4L105.7,92.6L102.7,92.7L101.4,92.6L97.8,92.8L90.4,92.8L87.1,92.9L71.0,93.2L46.7,93.2L46.4,92.8L46.3,92.1L46.1,83.7L46.1,74.7L46.0,70.7L45.5,70.3L34.5,70.3L34.0,70.5L33.6,70.9L33.6,81.2L33.8,82.2L33.7,87.3L33.9,92.1L33.7,93.0L33.1,93.4L22.9,93.4L22.4,93.2L22.1,92.9L21.9,92.3L22.0,90.0L21.8,88.6L21.8,79.4L21.6,76.1L21.6,63.7L21.2,41.2L21.2,36.4L21.6,36.0L27.5,35.9L30.3,35.7L32.1,35.7L32.7,35.9L33.1,36.2L33.1,37.4L33.1,42.1L33.5,56.1L33.4,57.8L33.6,58.6L34.1,58.8L44.6,58.8L45.6,58.7L45.9,58.3L45.6,41.8L45.6,36.1L45.9,35.8L46.5,35.6L55.8,35.4L67.2,35.5L72.2,35.3L81.5,35.3L82.0,35.5L82.4,36.1L82.4,38.0L82.4,50.4L82.6,55.9L82.8,81.2L83.2,81.6L94.3,81.5L94.8,81.3L95.0,81.0L95.1,74.8L94.9,66.1L94.9,35.8L95.2,35.5L95.8,35.3L102.7,35.2L106.2,35.3Z" fill="#000" fill-rule="evenodd"/>
</svg>