<svg xmlns="http://www.w3.org/2000/svg" viewBox="0 0 128 128" width="128" height="128">
  <path d="M18.8,97.3L18.8,98.2L18.8,101.3L18.8,103.8L18.9,114.3L18.8,119.7L19.0,119.9L33.7,119.9L34.1,119.8L34.9,119.9L39.0,119.8L50.5,119.9L51.5,119.8L59.9,119.8L68.7,119.8L69.9,119.8L75.1,119.8L81.5,119.8L82.8,119.8L109.3,119.8L109.4,119.8L109.5,119.6L109.4,118.1L109.5,117.2L109.4,114.8L109.4,112.6L109.4,106.8L109.4,97.5L109.3,97.3L83.0,97.3L80.3,97.3L72.8,97.3L71.6,97.3L70.4,97.3L65.8,97.3L65.1,97.3L53.8,97.3L50.0,97.2L47.3,97.2L46.5,97.3L27.5,97.3L25.0,97.2L19.1,97.2L18.9,97.3Z M46.2,63.0L38.5,63.0L28.7,63.1L26.4,63.1L23.9,63.1L22.1,63.1L21.1,63.2L18.8,63.2L18.7,63.3L18.7,75.5L18.7,80.4L18.8,83.2L18.7,90.0L18.8,90.1L19.2,90.2L23.7,90.2L27.6,90.1L32.0,90.2L34.6,90.1L38.0,90.1L46.5,90.1L46.6,89.4L46.6,88.9L46.6,88.1L46.6,84.3L46.5,82.1L46.5,80.7L46.5,76.3L46.5,72.5L46.4,66.2L46.4,65.1L46.4,63.4L46.3,63.2Z M18.6,29.2L18.6,55.7L18.7,55.8L19.5,55.8L27.5,55.8L32.6,55.8L55.9,55.7L56.6,55.7L59.3,55.7L60.0,55.7L63.5,55.7L67.6,55.7L81.2,55.7L81.3,55.7L81.4,55.9L81.5,73.9L81.4,76.2L81.5,76.9L81.5,77.5L81.5,82.3L81.5,89.2L81.6,89.9L81.8,90.0L86.3,90.0L90.2,89.9L94.5,90.0L94.7,89.8L94.8,89.9L94.8,89.9L106.0,89.9L107.4,89.9L108.7,89.9L109.2,89.9L109.3,89.8L109.4,89.5L109.3,82.9L109.3,69.1L109.2,68.0L109.2,61.8L109.2,57.7L109.2,45.6L109.1,43.5L109.1,29.0L109.0,28.8L84.9,28.8L84.7,28.7L84.6,27.0L84.4,25.9L84.4,25.6L84.3,24.8L84.3,24.5L84.1,24.3L84.1,24.0L84.0,23.7L84.0,23.5L83.8,23.2L83.8,22.9L83.7,22.8L83.5,21.9L83.3,21.6L83.2,21.3L83.1,21.0L82.9,20.5L82.0,18.6L81.6,18.1L81.5,17.9L81.3,17.5L81.2,17.4L81.1,17.3L80.5,16.5L79.9,15.7L79.6,15.3L78.9,14.6L78.1,13.8L77.9,13.5L76.1,12.1L74.5,11.1L74.2,11.0L74.0,10.8L73.4,10.4L72.9,10.2L72.6,10.1L72.3,9.9L71.7,9.7L71.5,9.6L71.3,9.5L71.0,9.4L70.9,9.4L70.1,9.1L69.6,9.0L69.2,8.8L67.7,8.5L66.8,8.4L65.9,8.3L65.5,8.2L63.6,8.2L62.3,8.2L61.9,8.3L61.4,8.3L61.0,8.4L60.4,8.5L59.4,8.7L59.0,8.8L58.8,8.8L58.0,9.0L57.8,9.1L56.9,9.4L56.4,9.6L56.2,9.7L55.7,9.9L55.6,9.9L55.3,10.1L54.9,10.3L54.5,10.5L53.6,10.9L53.4,11.1L52.8,11.4L52.3,11.8L51.8,12.1L51.7,12.2L51.5,12.3L50.0,13.5L48.6,14.9L47.6,16.0L47.3,16.5L47.2,16.6L47.1,16.9L46.8,17.1L46.3,18.0L46.1,18.4L45.8,18.7L45.4,19.5L45.2,19.9L45.1,20.1L44.9,20.5L44.5,21.6L44.4,21.7L44.3,22.0L44.1,22.6L44.0,23.0L43.9,23.1L43.9,23.5L43.7,23.7L43.3,25.5L43.1,27.5L43.1,27.8L43.0,28.4L43.0,28.8L42.9,28.9L41.7,28.9L41.1,28.9L37.9,29.0L31.9,29.0L30.8,29.1L30.2,29.0L28.7,29.1L27.0,29.1L24.3,29.1L23.2,29.1L21.5,29.1L19.9,29.1L18.8,29.1Z M36.2,41.6L36.3,41.5L36.4,41.7L36.4,41.9L36.3,41.9L36.2,41.8Z M84.6,29.0L84.6,29.9L84.6,30.7L84.6,31.2L84.4,31.6L84.4,32.1L84.3,32.4L84.3,32.7L84.2,33.1L84.1,33.6L84.0,33.8L83.8,34.7L83.2,36.6L83.1,36.8L83.0,37.0L82.8,37.5L82.7,37.7L82.6,38.0L81.5,40.0L81.3,40.3L81.1,40.6L81.0,40.7L80.8,41.0L80.3,41.7L79.0,43.2L77.2,44.9L75.9,45.9L74.1,47.1L73.5,47.4L73.3,47.5L73.2,47.6L73.0,47.6L72.6,47.9L72.5,47.9L71.9,48.2L71.5,48.3L71.1,48.5L70.6,48.6L70.3,48.8L68.8,49.2L66.6,49.6L66.0,49.7L65.2,49.8L63.4,49.8L62.2,49.7L59.9,49.4L59.5,49.3L59.1,49.2L57.9,48.9L57.8,48.8L57.4,48.8L56.4,48.4L56.3,48.3L56.1,48.3L55.9,48.2L55.9,48.2L55.7,48.1L55.5,48.0L55.4,47.9L54.7,47.7L54.5,47.5L53.4,46.9L52.9,46.6L52.8,46.6L52.1,46.1L51.2,45.5L50.9,45.2L50.6,45.0L49.5,44.0L48.7,43.2L47.6,41.9L46.8,40.9L46.7,40.6L45.8,39.2L45.7,39.1L45.6,38.9L45.5,38.7L45.0,37.8L45.0,37.5L44.9,37.3L44.9,37.2L44.5,36.5L44.5,36.3L44.4,36.2L44.3,35.9L44.2,35.8L44.1,35.1L43.8,34.3L43.7,33.8L43.6,33.4L43.6,33.2L43.6,33.1L43.5,32.8L43.5,32.6L43.5,32.4L43.4,32.3L43.4,32.1L43.3,31.8L43.2,29.7L43.2,29.1L43.3,29.0L43.8,29.0L47.4,29.0L56.2,28.9L63.6,28.9L63.8,29.0L64.0,29.0L64.1,28.9L66.3,28.9L72.3,28.9L72.8,28.9L79.7,28.9L81.3,28.9L84.4,28.9L84.5,28.9Z" fill="#000" fill-rule="evenodd"/>
</svg>