<svg xmlns="http://www.w3.org/2000/svg" viewBox="0 0 128 128" width="128" height="128">
  <path d="M66.4,47.0L64.3,47.3L63.9,47.6L61.9,48.0L61.0,48.6L60.5,48.7L59.8,49.1L57.8,50.4L57.2,51.1L56.0,52.2L54.4,54.1L53.9,55.0L53.4,55.7L52.7,57.2L51.9,59.6L51.3,62.3L51.3,65.6L51.5,66.1L51.6,67.7L52.0,69.2L52.5,70.7L53.5,72.6L53.9,73.1L54.6,74.4L57.6,77.3L60.2,79.1L61.8,79.9L62.9,80.2L63.5,80.5L65.2,80.9L67.1,81.1L70.3,81.0L71.9,80.8L75.1,79.7L76.5,79.1L77.6,78.4L78.9,77.3L80.0,76.6L81.5,74.8L81.8,74.3L82.5,73.5L83.4,72.0L84.6,69.1L85.2,66.1L85.2,61.9L84.8,59.8L84.5,58.8L84.5,58.5L83.4,56.0L83.1,55.7L82.7,54.7L82.0,53.8L81.8,53.4L81.2,52.6L79.4,50.9L78.9,50.7L77.3,49.4L76.9,49.3L76.1,48.7L72.8,47.4L70.7,47.0Z M64.8,9.1L60.9,9.5L60.2,9.7L58.5,9.9L57.9,10.1L56.4,10.3L55.6,10.6L55.1,10.6L54.4,10.9L51.9,11.6L51.5,11.8L50.8,11.9L50.2,12.3L47.7,13.1L45.3,14.2L42.3,15.8L41.4,16.2L36.6,19.3L32.8,22.4L28.8,26.4L28.6,26.7L27.2,28.2L26.2,29.6L25.6,30.2L25.4,30.7L23.7,32.8L22.8,34.4L22.6,34.5L22.5,34.9L21.2,36.9L19.9,39.3L18.9,41.9L18.3,42.9L16.5,47.9L16.0,50.2L15.8,50.5L15.6,52.0L15.2,53.3L15.1,54.6L14.8,55.3L14.3,60.2L14.3,62.4L14.1,64.1L14.2,67.2L14.8,73.1L15.2,74.6L15.3,75.8L16.2,79.3L18.0,84.8L20.2,89.6L22.6,93.8L26.2,98.9L30.1,103.3L32.8,105.9L37.2,109.3L37.7,109.5L38.0,109.8L40.8,111.6L45.3,114.0L49.4,115.7L55.0,117.5L56.4,117.7L57.2,118.0L58.1,118.1L59.7,118.5L61.3,118.6L62.2,118.8L67.3,119.2L71.6,119.1L74.4,118.8L79.3,117.8L81.0,117.2L83.4,116.6L84.9,115.9L85.4,115.8L88.6,114.3L92.5,112.0L96.6,109.0L99.5,106.4L102.8,102.9L104.7,100.4L105.3,99.3L106.4,97.8L107.3,96.2L107.7,95.7L110.3,90.1L111.9,85.6L112.9,81.8L113.5,79.0L113.6,77.2L113.9,76.1L114.0,73.5L114.0,69.1L113.9,68.4L113.9,67.2L113.5,64.7L113.5,63.9L111.8,57.0L110.7,54.0L110.3,53.4L109.0,50.4L106.7,46.3L105.6,44.9L105.5,44.6L104.3,42.9L100.5,39.0L97.3,36.3L94.2,34.2L93.5,33.8L91.8,32.8L91.4,32.7L90.8,32.3L86.9,30.5L86.2,30.3L85.9,30.1L83.3,29.3L82.0,29.0L81.7,28.8L80.4,28.6L79.6,28.3L73.7,27.6L69.7,27.4L68.2,27.6L66.2,27.6L63.7,28.0L62.9,28.0L61.7,28.3L60.8,28.4L59.9,28.7L59.1,28.8L58.8,29.0L57.9,29.2L57.3,29.5L55.6,30.0L51.2,32.1L47.0,34.9L44.2,37.2L42.1,39.4L40.4,41.4L38.7,43.7L36.6,47.1L34.5,51.9L33.5,55.7L33.3,57.1L32.8,58.8L32.8,60.1L32.6,61.2L32.4,63.3L32.5,66.8L32.8,69.0L33.4,72.6L33.6,73.1L33.8,74.4L34.9,77.3L35.5,78.6L35.5,79.0L36.0,79.9L36.3,80.8L36.8,81.4L37.5,82.8L38.8,84.9L41.3,88.2L44.9,91.8L47.5,93.8L49.5,95.2L53.2,97.3L58.0,99.0L59.5,99.4L61.6,100.0L62.9,100.1L65.6,100.5L67.8,100.5L68.3,100.4L68.7,100.1L68.8,95.9L68.6,94.4L68.8,93.1L68.5,83.6L68.0,83.1L66.6,83.1L63.8,82.6L62.8,82.2L62.3,82.1L60.6,81.4L60.2,81.3L58.7,80.5L56.8,79.3L55.7,78.2L54.3,76.8L54.0,76.4L53.5,75.9L52.1,73.9L50.8,71.5L50.4,70.2L49.6,67.0L49.4,65.4L49.4,63.0L49.9,59.5L51.2,56.0L52.5,53.5L52.9,53.1L53.4,52.3L56.0,49.5L58.1,48.0L59.4,47.3L60.3,46.7L61.8,46.1L64.6,45.3L66.9,44.9L68.9,44.7L72.6,44.7L76.2,45.2L79.6,46.0L81.8,46.9L83.9,47.9L86.9,49.8L88.1,50.8L90.4,53.2L91.2,54.4L91.8,55.0L93.4,57.5L94.8,60.4L96.0,64.1L96.9,68.2L97.1,71.6L96.9,76.0L96.3,78.9L95.4,82.2L94.4,84.7L93.2,86.7L93.1,87.2L91.9,89.1L89.0,92.8L88.0,93.8L87.9,94.1L86.8,95.2L85.9,95.9L82.9,98.0L81.9,98.5L81.4,98.9L79.5,99.7L78.7,99.9L76.8,100.6L73.6,101.5L72.3,101.5L71.2,101.8L65.0,101.8L64.0,101.5L61.5,101.2L57.2,100.2L56.7,99.9L53.6,98.9L50.5,97.3L46.5,94.8L44.4,93.1L41.8,90.7L40.0,88.6L39.3,87.6L38.6,86.9L38.6,86.8L37.0,84.7L34.9,80.8L33.5,77.8L33.3,76.8L32.8,75.7L31.7,71.4L31.4,69.0L31.1,66.3L31.1,61.9L31.5,58.2L31.8,57.1L32.0,55.7L32.3,54.8L32.5,53.6L33.1,52.3L33.5,50.7L34.9,47.6L35.5,46.2L37.6,42.8L38.5,41.7L38.9,41.0L42.1,37.3L43.9,35.6L45.8,34.0L49.4,31.5L51.1,30.6L54.9,28.8L57.0,28.2L57.4,27.9L60.2,27.2L63.9,26.5L67.3,26.3L67.8,25.9L67.9,25.1L67.7,9.5L67.1,9.1Z" fill="#000" fill-rule="evenodd"/>
</svg>