<svg xmlns="http://www.w3.org/2000/svg" viewBox="0 0 128 128" width="128" height="128">
  <path d="M62.9,36.4L60.1,37.1L58.7,37.6L56.9,38.7L55.9,39.6L54.4,41.2L53.6,42.3L52.3,45.2L51.9,47.4L51.8,48.7L52.0,54.3L52.0,62.8L52.2,66.4L52.1,68.9L52.2,79.6L52.4,81.8L53.2,84.6L54.5,87.0L56.1,88.8L58.0,90.3L59.4,91.0L61.0,91.7L63.4,92.2L65.7,92.2L67.8,91.8L69.8,91.1L71.8,89.9L73.0,88.8L74.9,86.7L75.9,84.3L76.4,82.6L76.7,81.0L76.7,76.7L76.4,68.9L76.4,62.8L76.3,58.6L76.3,56.4L76.1,47.4L75.3,44.6L75.0,44.1L74.3,42.4L73.4,41.1L71.6,39.2L69.5,37.8L67.0,36.8L65.1,36.4Z M95.3,19.6L92.7,18.4L90.6,17.8L88.7,17.8L86.9,18.0L84.6,18.8L82.8,19.7L82.0,20.4L80.1,22.3L79.2,23.7L78.2,25.7L77.9,26.7L77.6,28.4L77.6,30.8L77.8,32.6L78.4,34.4L79.0,35.8L80.6,37.8L82.5,39.6L85.2,41.9L87.2,44.0L87.4,44.5L88.0,45.0L90.9,49.2L92.4,52.2L93.3,54.4L93.3,54.7L93.4,54.8L94.4,58.5L94.8,60.9L95.0,63.5L95.0,66.3L94.7,69.5L94.6,70.5L94.4,70.7L94.2,72.3L93.9,73.0L93.9,73.4L93.4,74.9L92.6,76.7L92.5,77.2L90.6,80.8L88.4,84.0L85.8,86.9L82.2,89.9L79.0,91.8L78.4,92.0L75.3,93.5L71.7,94.5L67.7,95.2L66.5,95.2L65.8,95.4L62.4,95.4L59.0,94.8L58.4,94.8L55.8,94.2L55.1,93.9L52.7,93.1L48.2,90.9L47.5,90.4L46.7,89.9L46.2,89.4L45.5,89.1L44.3,88.0L44.0,88.0L42.0,86.1L39.9,83.7L37.8,80.7L36.2,77.9L34.8,74.5L33.7,70.4L33.3,67.3L33.2,64.9L33.3,61.6L33.8,58.1L35.1,53.8L37.1,49.5L37.4,49.2L37.5,48.8L38.9,46.6L41.6,43.4L43.7,41.3L45.8,39.5L47.6,37.6L49.0,35.2L49.7,32.6L49.9,30.7L49.7,28.2L49.4,27.7L49.2,26.5L48.5,25.0L47.9,23.8L47.4,23.3L47.0,22.7L45.9,21.6L44.2,20.4L43.3,19.9L40.8,19.0L39.0,18.7L37.4,18.7L36.3,18.9L34.4,19.4L31.5,20.9L29.6,22.3L26.8,24.7L23.2,28.3L21.7,30.1L20.7,31.6L19.6,32.8L19.4,33.3L18.9,33.8L18.5,34.5L17.6,35.7L17.1,36.7L16.3,37.9L14.5,41.4L13.4,44.3L12.9,45.2L12.4,46.9L12.0,47.8L11.7,48.9L11.0,51.1L10.1,55.4L9.6,58.6L9.4,60.8L9.2,66.3L9.7,72.3L10.4,76.1L10.9,77.8L11.0,78.5L12.0,82.0L12.3,82.5L13.4,85.5L16.6,91.9L17.6,93.6L18.3,94.5L18.5,94.9L20.1,97.0L20.3,97.5L22.5,99.9L22.6,100.2L26.4,104.1L27.8,105.2L28.2,105.7L28.5,105.8L29.1,106.5L29.6,106.7L30.8,107.8L36.4,111.4L41.1,113.9L46.6,116.0L50.8,117.2L56.4,118.4L61.5,119.0L68.3,119.0L73.6,118.4L74.3,118.1L75.8,118.0L79.8,117.1L83.7,115.8L88.7,113.7L89.7,113.1L90.1,113.0L93.6,111.1L94.2,110.6L94.9,110.2L96.9,108.8L97.8,108.3L98.4,107.6L99.8,106.7L102.3,104.2L102.7,104.0L104.7,102.0L104.8,101.8L105.5,101.1L107.0,99.4L107.9,98.0L109.6,95.9L111.5,92.9L112.2,91.5L112.5,91.1L113.7,88.7L114.7,86.3L115.1,85.7L116.8,80.8L117.9,76.6L118.8,71.0L119.0,66.5L118.9,61.1L118.2,55.2L116.9,49.7L115.2,44.7L114.1,42.3L113.8,41.5L112.9,40.0L112.7,39.2L112.4,39.0L112.3,38.5L108.8,32.9L108.3,32.4L108.2,32.0L107.7,31.5L105.9,29.1L102.9,25.8L100.8,23.8L100.0,23.2L99.4,22.5L97.8,21.3Z M62.0,9.3L61.0,9.4L59.5,9.9L57.6,10.8L56.0,11.9L54.1,13.8L54.0,14.2L53.6,14.6L52.8,15.9L52.1,17.8L51.6,20.0L51.5,22.6L52.0,25.2L52.8,27.1L53.9,28.9L56.0,31.0L58.3,32.5L60.0,33.1L62.5,33.6L65.0,33.6L65.5,33.5L66.1,33.5L66.5,33.2L67.6,33.0L69.9,31.8L71.6,30.6L73.5,28.4L74.8,26.0L75.3,24.0L75.5,23.1L75.4,19.6L74.9,17.4L73.6,14.7L72.5,13.2L70.9,11.7L69.4,10.8L67.0,9.7L65.1,9.3Z" fill="#000" fill-rule="evenodd"/>
</svg>