<svg xmlns="http://www.w3.org/2000/svg" viewBox="0 0 128 128" width="128" height="128">
  <path d="M66.5,38.1L66.1,38.2L65.8,38.7L65.8,41.1L66.4,41.7L71.6,41.9L74.9,41.8L77.1,42.0L78.1,42.3L79.0,42.4L82.1,43.5L82.6,43.8L84.2,44.5L86.4,45.9L89.1,48.3L90.5,49.7L92.5,52.4L94.1,55.5L95.2,59.3L95.7,61.8L95.7,66.2L95.1,68.6L95.1,69.8L94.7,70.4L94.6,71.0L94.3,71.6L94.1,72.3L93.7,73.1L93.6,73.5L92.7,75.3L92.0,76.1L91.0,77.7L88.5,80.3L87.1,81.6L84.7,83.2L83.4,83.9L83.1,83.9L82.3,84.4L80.0,85.2L78.0,85.7L76.1,86.0L73.4,85.9L72.0,86.1L65.3,86.1L64.7,86.3L64.5,86.9L64.6,89.3L65.0,89.9L65.4,89.9L66.4,89.9L70.3,90.0L75.3,90.0L77.1,89.9L79.3,89.5L79.8,89.3L80.7,89.1L83.4,88.2L86.8,86.4L89.0,85.0L91.4,83.0L93.8,80.4L95.5,77.8L96.4,75.9L97.0,75.1L97.6,73.7L98.7,70.5L99.4,66.8L99.4,61.2L98.5,57.0L98.2,56.4L98.0,55.2L96.2,51.2L94.8,49.1L93.6,47.5L90.3,44.2L88.1,42.4L87.5,42.2L86.0,41.1L82.9,39.7L79.7,38.7L78.3,38.5L77.0,38.1L74.9,38.0Z M112.5,41.7L111.5,40.4L110.0,38.1L106.7,34.4L104.3,32.1L104.0,32.0L103.3,31.3L102.3,30.7L101.5,29.9L98.9,28.2L96.7,26.9L93.3,25.3L89.0,23.6L88.0,23.5L86.9,23.1L84.5,22.7L84.1,22.5L80.9,22.1L67.1,22.0L66.2,22.2L65.8,22.7L65.7,25.1L65.8,25.3L66.3,25.7L78.6,25.7L81.1,25.9L84.3,26.3L86.7,27.0L88.0,27.1L91.7,28.6L96.5,31.0L100.5,33.7L104.1,36.8L104.7,37.6L105.3,38.1L105.5,38.6L107.1,40.4L107.7,40.9L107.9,41.6L109.0,42.9L110.1,44.7L110.8,46.0L111.1,47.2L112.0,48.5L113.6,52.5L114.6,56.4L115.4,62.3L115.4,64.9L115.2,66.2L115.3,69.2L114.7,71.4L114.6,72.5L114.2,73.4L113.7,75.6L113.3,76.5L113.2,77.1L112.4,79.3L110.9,82.5L110.1,83.6L110.1,83.8L109.8,84.1L108.4,86.3L107.9,86.8L107.7,87.2L106.2,88.9L106.2,89.1L102.3,93.1L101.6,93.6L99.5,95.4L96.9,97.2L95.8,97.7L95.0,98.3L93.3,99.1L93.0,99.3L89.1,100.8L84.7,101.9L82.5,102.2L74.1,102.4L51.9,102.4L41.2,102.6L39.4,102.4L10.3,102.4L9.7,102.7L9.7,106.0L10.2,106.4L32.5,106.4L40.9,106.3L79.8,106.4L85.2,105.8L87.5,105.3L88.4,105.0L89.1,104.9L93.5,103.3L94.5,102.7L96.9,101.6L101.0,99.1L103.1,97.5L104.6,96.0L104.9,95.9L108.1,92.7L108.6,91.9L110.8,89.5L111.1,88.8L112.6,86.9L114.6,83.2L114.8,82.6L115.8,80.7L116.0,79.7L117.2,76.7L117.6,75.1L117.7,74.8L118.2,72.9L118.3,71.6L118.8,69.4L119.0,64.8L119.0,61.9L118.5,57.3L117.7,53.4L115.7,47.7L114.9,46.3L114.1,44.5L113.3,43.3Z M9.9,22.3L9.5,23.0L9.4,23.5L9.3,26.6L9.4,28.1L9.2,32.6L9.2,40.3L9.5,41.4L9.8,41.8L10.1,41.9L21.8,42.0L22.5,42.2L23.1,42.6L23.3,44.1L23.4,57.9L23.3,78.2L23.5,79.8L23.5,83.9L23.2,85.4L22.7,85.8L21.4,86.1L11.0,86.1L10.3,86.3L9.9,86.6L9.8,89.3L9.9,89.7L10.3,89.9L26.3,90.0L26.8,89.9L27.4,89.5L27.5,86.4L27.4,81.4L27.4,79.0L27.3,77.3L27.4,71.9L27.2,65.0L27.3,45.0L27.1,38.7L26.8,38.1L26.2,38.0L15.0,37.9L13.7,37.7L13.3,37.1L13.2,35.3L13.2,27.2L13.4,26.4L13.7,26.0L14.7,25.8L21.7,25.8L25.6,25.6L31.2,25.7L47.3,25.5L55.3,25.6L56.1,25.8L56.7,26.3L56.8,27.3L57.0,31.4L56.9,36.7L56.7,37.3L56.3,37.7L55.1,37.9L43.5,38.0L43.0,38.3L42.6,39.5L42.6,67.3L42.8,71.7L42.9,88.8L43.3,89.4L43.7,89.5L46.0,89.6L46.5,89.3L46.7,86.7L46.5,80.5L46.6,71.8L46.4,69.2L46.5,61.3L46.3,54.5L46.3,43.1L46.4,42.8L46.9,42.2L47.4,41.9L58.5,41.8L59.9,41.7L60.5,41.4L60.7,40.6L60.8,36.7L60.6,23.6L60.4,22.4L59.9,22.0L59.6,21.9L23.5,21.9L22.3,22.1L10.9,22.1Z" fill="#000" fill-rule="evenodd"/>
</svg>