<svg xmlns="http://www.w3.org/2000/svg" viewBox="0 0 128 128" width="128" height="128">
  <path d="M47.8,89.5L45.4,90.1L43.7,90.8L42.2,91.9L41.6,92.1L40.8,92.8L39.2,94.4L37.9,96.4L37.3,97.6L37.3,98.2L36.9,99.1L36.4,101.1L36.4,104.3L36.7,105.4L36.9,105.9L36.9,106.6L37.8,108.9L39.6,111.5L42.0,113.7L42.3,113.8L43.2,114.5L44.1,114.8L44.4,115.0L47.0,115.9L49.4,116.1L52.0,115.9L55.3,114.8L57.4,113.6L58.3,112.8L59.9,111.1L60.0,110.7L60.3,110.5L61.5,108.7L62.1,107.0L62.6,104.7L62.7,102.0L62.4,99.9L61.5,97.4L60.8,95.9L60.5,95.6L60.1,94.9L58.1,92.6L56.5,91.5L54.9,90.6L51.9,89.6L50.6,89.5Z M90.1,38.5L89.0,38.4L67.9,38.4L67.1,38.7L66.9,39.1L66.9,65.5L67.1,71.2L67.0,82.0L67.1,89.3L67.1,109.6L67.1,118.5L67.2,118.8L67.5,119.1L68.3,119.1L70.8,118.5L74.9,116.9L78.4,114.9L79.9,113.8L81.3,112.5L81.6,112.4L83.2,110.8L84.4,109.4L86.4,106.5L88.5,102.2L89.7,98.8L90.4,94.4L90.6,92.2L90.7,87.7L90.7,65.6L90.5,56.7L90.6,39.3L90.4,38.8Z M60.8,38.5L60.2,38.4L54.0,38.2L39.3,38.5L38.2,38.5L37.6,39.1L37.6,83.9L37.8,85.5L37.9,85.8L38.2,86.1L53.1,86.2L60.0,86.1L60.7,86.1L61.1,85.8L61.2,84.8L61.2,40.2L61.1,39.0Z M47.1,9.3L45.4,9.7L43.7,10.4L42.2,11.2L40.9,12.2L39.3,13.8L38.4,15.1L37.2,17.4L36.4,19.6L36.2,21.1L36.3,24.6L36.5,25.7L37.2,27.7L38.2,29.7L39.5,31.4L40.8,32.7L42.3,33.7L42.6,34.0L43.5,34.5L45.9,35.4L47.8,35.7L51.3,35.7L53.1,35.3L55.4,34.4L57.5,33.0L59.8,30.8L60.6,29.5L61.1,28.6L61.5,28.0L62.3,25.6L62.6,23.6L62.6,21.7L62.4,20.2L61.7,17.4L60.8,15.6L59.0,13.3L56.9,11.5L55.3,10.5L54.0,9.9L52.2,9.3L51.0,9.1L48.3,9.1Z M77.6,9.0L75.3,9.5L73.6,10.1L72.3,10.8L70.3,12.1L68.5,13.9L68.3,14.3L67.8,14.8L66.8,16.5L66.7,17.1L66.1,18.3L65.6,20.1L65.6,20.9L65.5,21.6L65.5,23.3L65.9,25.9L67.2,28.9L68.4,30.8L70.2,32.5L72.7,34.2L74.5,35.0L77.4,35.7L79.4,35.7L82.3,35.3L84.4,34.5L86.3,33.5L87.7,32.3L88.5,31.5L90.2,29.2L91.3,27.1L91.8,25.1L92.0,23.6L92.0,21.4L91.8,19.7L91.0,17.1L89.9,15.0L88.5,13.3L87.5,12.3L85.7,11.0L85.3,10.9L84.3,10.3L82.6,9.6L82.0,9.5L80.9,9.1Z" fill="#000" fill-rule="evenodd"/>
</svg>