<svg xmlns="http://www.w3.org/2000/svg" viewBox="0 0 128 128" width="128" height="128">
  <path d="M89.6,72.2L89.1,72.8L89.0,74.0L89.0,81.6L88.9,83.5L88.9,87.8L88.7,89.0L88.8,91.3L89.1,91.9L89.5,92.0L91.4,92.0L91.9,91.9L92.2,91.5L92.1,88.0L91.9,87.4L91.9,81.1L91.7,80.6L91.7,77.9L91.4,75.5L91.4,73.5L91.3,72.8L90.9,72.3L90.5,72.1Z M89.8,51.4L89.6,51.6L89.6,53.4L89.4,54.8L89.4,59.4L89.2,60.3L89.3,63.3L89.1,67.4L89.2,68.2L89.6,68.7L90.6,68.8L90.9,68.4L91.1,67.3L90.9,65.8L90.9,62.1L90.6,60.4L90.7,59.1L90.5,58.3L90.5,56.2L90.4,55.6L90.3,52.4L90.1,52.1L90.0,51.4Z M12.8,20.1L12.6,20.4L12.5,21.8L12.4,22.3L12.5,24.5L12.7,26.0L13.7,27.1L14.3,27.5L15.4,28.0L17.7,28.6L18.2,28.9L18.4,29.6L18.4,32.2L18.5,33.9L18.4,48.7L17.9,49.3L16.9,49.3L15.5,48.9L13.4,47.7L12.9,47.7L12.5,48.3L12.5,57.2L12.7,59.6L12.6,66.1L12.8,68.9L12.8,84.7L13.0,86.1L13.0,89.4L13.3,90.0L14.0,90.6L15.1,91.2L15.9,91.4L16.4,91.7L18.7,92.2L19.0,92.8L19.0,95.7L19.3,98.9L19.2,101.6L19.4,102.5L19.2,104.3L19.3,112.5L19.1,112.8L18.7,113.1L17.9,113.1L16.2,112.5L14.0,111.2L13.4,111.3L13.4,115.5L13.7,116.3L15.1,117.4L16.6,118.2L19.1,118.8L22.0,118.8L23.5,119.0L35.5,119.0L39.0,118.8L43.5,119.0L59.8,118.8L81.5,118.9L83.4,118.7L86.2,118.8L94.4,118.6L110.4,118.6L111.1,118.4L112.7,118.4L114.0,117.9L114.8,117.8L115.7,117.0L115.9,116.8L116.0,116.1L115.9,111.6L115.5,111.2L115.2,111.2L112.7,112.4L111.6,112.6L110.8,112.6L110.4,112.3L110.2,111.4L110.3,109.0L110.1,107.9L110.2,102.7L110.0,93.0L110.7,92.2L112.5,92.1L113.3,91.9L114.2,91.5L115.3,90.5L115.5,89.1L115.5,82.6L115.4,80.7L115.5,74.2L115.3,70.7L115.3,66.0L115.1,63.9L115.2,55.8L115.0,48.8L114.5,48.2L114.0,48.2L112.3,49.3L110.5,49.7L109.8,49.6L109.4,48.9L109.5,46.4L109.3,41.9L109.4,38.8L109.2,30.0L109.7,29.3L110.5,29.0L111.9,28.8L113.3,28.2L114.1,27.4L114.3,27.1L114.6,25.6L114.4,23.0L114.5,21.1L114.0,20.3L113.6,20.3L112.9,20.6L112.4,21.1L111.0,21.7L109.1,22.2L108.5,22.5L106.5,22.8L105.4,22.8L103.5,23.1L81.1,23.1L71.2,23.3L68.9,23.1L51.4,23.2L47.0,23.0L43.3,23.1L40.1,22.9L22.8,22.8L18.5,22.2L18.3,22.0L16.2,21.5L14.8,21.0L13.4,20.0Z M84.2,29.3L96.0,29.3L96.5,29.7L96.9,31.4L97.1,35.6L97.0,49.0L96.8,49.6L96.6,49.8L93.9,49.8L93.4,50.2L93.2,50.8L93.4,56.2L93.5,57.5L93.5,59.8L93.9,64.0L94.0,69.1L94.2,70.5L94.3,73.6L94.5,74.6L94.5,76.7L94.9,80.4L95.2,90.3L95.5,91.5L96.0,91.9L96.7,92.0L97.4,92.4L97.6,93.5L97.8,109.8L97.7,112.1L97.2,112.7L96.8,112.8L84.7,112.8L84.3,112.6L83.8,111.9L83.8,104.2L83.6,103.5L83.6,92.9L84.3,92.3L85.3,92.3L85.8,91.7L86.1,84.2L86.1,81.8L86.2,79.7L86.2,74.5L86.5,72.2L86.5,67.1L87.0,54.0L87.0,50.7L86.7,50.2L86.1,49.8L83.7,49.7L83.3,49.4L83.1,49.0L83.2,46.2L83.1,42.2L83.1,30.5L83.2,29.8L83.5,29.5Z M58.0,29.2L67.6,29.2L68.6,29.4L70.0,29.4L70.4,29.8L70.7,43.0L70.5,46.3L70.8,49.2L70.7,51.6L71.0,61.6L70.6,62.2L69.7,62.5L68.3,62.5L68.0,62.4L67.4,61.6L67.5,58.5L67.3,57.7L67.2,51.1L67.0,50.0L66.4,49.6L64.3,49.6L63.8,50.1L63.6,50.8L63.9,62.3L63.9,68.1L64.0,68.5L64.6,68.9L66.9,69.0L67.3,69.4L67.6,70.2L67.6,71.7L67.1,72.4L64.6,72.6L64.2,72.8L64.1,73.2L64.3,90.9L64.6,91.5L65.1,91.9L66.9,92.1L70.6,92.1L71.0,92.6L71.2,111.4L71.1,112.5L70.5,112.9L70.1,113.0L63.2,113.1L58.5,112.9L57.9,112.7L57.6,112.5L57.5,112.1L57.5,103.3L57.3,102.2L57.4,92.7L57.9,92.2L60.2,91.9L60.7,91.6L60.6,70.9L60.4,69.6L60.5,66.9L60.4,59.4L60.2,58.6L60.2,50.7L59.9,50.2L59.5,49.8L57.3,49.6L56.8,49.0L56.9,42.6L56.8,37.9L56.6,35.7L56.8,33.4L56.7,30.3L57.2,29.4Z M31.8,29.0L43.1,29.0L43.8,29.2L44.3,29.7L44.5,30.3L44.6,48.9L44.4,49.3L43.9,49.6L40.7,49.9L40.5,50.2L40.2,51.7L40.2,63.1L40.4,64.1L40.7,90.5L41.2,91.9L42.4,92.1L44.4,92.2L44.7,92.3L45.1,92.9L45.4,111.9L45.2,112.6L44.9,112.9L44.4,113.0L38.0,113.0L36.9,112.8L32.7,112.9L32.1,112.8L31.7,112.5L31.6,109.2L31.6,105.3L31.5,100.5L31.6,93.1L31.6,92.8L32.2,92.2L34.5,92.1L35.4,91.9L35.8,91.5L35.8,90.3L36.0,89.6L36.0,81.8L35.8,79.7L35.7,59.8L35.5,58.2L35.7,50.2L35.5,49.8L34.8,49.3L31.7,49.3L31.4,49.2L31.1,48.3L31.1,34.1L30.9,29.7L31.2,29.3Z M86.1,15.4L86.1,16.6L86.8,18.2L87.8,19.3L89.0,20.1L91.1,21.2L93.1,21.7L97.8,22.4L103.9,22.4L108.1,21.8L108.7,21.5L110.5,21.1L112.8,19.8L114.0,18.3L114.3,17.4L114.2,15.9L113.6,14.6L112.4,13.3L111.5,12.7L109.3,11.6L107.0,11.1L106.3,10.7L103.0,10.2L99.7,10.2L96.5,10.4L92.0,11.1L89.8,12.0L87.9,13.0L86.9,14.0Z M12.3,15.6L12.4,17.0L12.9,18.1L14.2,19.3L16.6,20.5L17.3,20.6L18.4,21.1L19.6,21.2L20.7,21.5L24.6,21.7L25.5,21.9L30.2,21.7L32.6,21.4L33.6,21.0L35.8,20.6L37.3,20.0L38.5,19.4L40.2,17.8L40.8,16.5L40.8,15.0L40.3,13.9L38.7,12.3L38.1,12.1L37.5,11.6L35.5,10.8L34.3,10.6L34.0,10.4L33.3,10.4L32.5,10.0L31.0,9.9L29.8,9.6L27.1,9.4L22.1,9.6L20.1,10.1L19.6,10.1L18.8,10.5L17.0,11.0L15.5,11.7L14.3,12.5L13.3,13.5L12.7,14.3Z" fill="#000" fill-rule="evenodd"/>
</svg>