<svg xmlns="http://www.w3.org/2000/svg" viewBox="0 0 128 128" width="128" height="128">
  <path d="M72.2,100.9L72.0,101.3L72.0,103.1L72.3,103.6L72.9,103.6L73.2,103.1L73.2,101.4L72.9,100.9Z M18.6,100.9L18.3,101.2L18.3,103.3L18.6,103.6L19.3,103.6L19.6,103.1L19.6,101.4L19.2,100.9Z M22.7,100.8L22.4,100.9L22.2,101.4L22.2,103.3L22.6,103.6L23.2,103.6L23.4,103.5L23.5,103.1L23.5,101.4L23.2,100.9Z M82.2,95.2L81.8,95.5L81.8,97.6L82.2,97.9L82.7,97.9L83.1,97.5L83.1,95.5L82.7,95.2Z M47.8,95.1L47.5,95.4L47.5,97.4L47.8,97.8L48.4,97.8L48.6,97.7L48.7,97.3L48.7,95.7L48.6,95.2Z M26.7,95.1L26.3,95.3L26.3,95.6L26.3,97.5L26.5,97.9L27.3,97.9L27.6,97.4L27.5,95.4L27.1,95.1Z M18.8,95.1L18.4,95.4L18.4,97.7L18.7,98.0L19.1,98.0L19.6,97.6L19.7,95.9L19.6,95.5L19.3,95.1Z M16.8,95.1L16.4,95.3L16.3,95.6L16.3,97.5L16.6,97.9L17.1,98.0L17.3,97.9L17.6,97.5L17.7,95.9L17.6,95.3L17.3,95.1Z M14.9,95.1L14.6,95.2L14.4,95.5L14.3,97.5L14.6,97.9L15.2,97.9L15.6,97.6L15.7,95.7L15.3,95.2Z M80.1,89.5L79.9,89.8L79.9,91.7L80.3,92.2L80.7,92.2L81.1,91.9L81.1,89.9L80.8,89.5Z M74.4,89.4L74.0,89.8L73.9,91.4L74.3,92.1L74.8,92.2L75.1,91.9L75.2,91.7L75.2,89.9L74.9,89.5Z M72.5,89.4L72.1,89.7L72.0,90.0L72.0,91.5L72.2,92.1L72.9,92.2L73.2,91.9L73.2,91.6L73.2,89.8L73.0,89.5Z M68.6,89.4L68.1,89.8L68.0,91.6L68.2,92.0L69.0,92.1L69.3,91.6L69.3,89.8L69.1,89.5Z M55.6,89.4L55.3,89.8L55.3,91.7L55.7,92.1L56.2,92.1L56.5,91.9L56.6,90.0L56.4,89.5Z M45.7,89.4L45.4,89.7L45.4,91.9L45.8,92.1L46.4,92.1L46.7,91.7L46.7,89.8L46.4,89.4Z M25.1,89.4L24.6,89.5L24.4,89.8L24.3,91.3L24.4,91.9L24.7,92.2L25.5,92.1L25.7,91.9L25.7,90.0L25.6,89.7Z M12.7,89.5L12.5,89.6L12.3,90.0L12.3,91.9L12.8,92.2L13.4,92.2L13.5,92.1L13.7,91.6L13.7,90.1L13.6,89.7L13.4,89.5Z M41.8,89.3L41.5,89.6L41.5,91.7L41.7,92.0L42.4,92.1L42.7,91.7L42.8,90.0L42.5,89.4Z M39.9,89.3L39.6,89.7L39.5,90.0L39.5,91.6L39.8,92.0L40.4,92.1L40.8,91.8L40.8,91.3L40.8,89.7L40.4,89.3Z M20.9,89.3L20.5,89.7L20.4,90.0L20.4,91.8L20.7,92.1L21.3,92.2L21.5,92.1L21.8,91.7L21.8,89.8L21.5,89.5Z M34.7,83.8L34.2,84.4L34.2,86.0L34.4,86.4L35.1,86.6L35.5,86.3L35.6,84.5L35.5,84.1L35.2,83.8Z M28.6,83.8L28.3,84.3L28.3,86.0L28.6,86.5L29.1,86.6L29.6,86.3L29.6,86.0L29.6,84.4L29.3,83.8Z M82.2,83.6L81.9,84.0L81.9,86.2L82.2,86.4L82.8,86.4L83.2,86.0L83.2,84.1L82.9,83.7Z M76.5,83.6L76.0,84.0L75.9,84.5L76.0,86.0L76.1,86.3L76.8,86.5L77.1,86.1L77.2,84.2L76.8,83.6Z M71.0,83.6L70.7,83.6L70.1,84.2L70.1,86.1L70.4,86.4L71.0,86.4L71.3,86.0L71.4,84.7L71.3,84.0Z M47.9,83.6L47.5,84.1L47.5,85.9L47.7,86.3L48.1,86.4L48.4,86.3L48.6,86.0L48.7,84.3L48.6,83.9L48.5,83.7Z M32.6,78.1L32.3,78.7L32.3,80.4L32.4,80.8L33.0,80.9L33.3,80.8L33.5,80.5L33.6,78.9L33.5,78.5L33.3,78.1Z M88.2,78.0L87.7,78.3L87.7,80.4L88.1,80.8L88.5,80.8L89.0,80.4L89.0,78.4L88.6,78.0Z M84.3,78.0L83.8,78.2L83.8,80.4L84.2,80.8L84.7,80.8L85.1,80.2L85.0,78.3L84.6,78.0Z M61.5,78.0L61.3,78.2L61.2,80.2L61.5,80.7L62.0,80.8L62.5,80.3L62.6,78.5L62.5,78.2L62.2,78.0Z M59.6,78.0L59.3,78.2L59.3,80.3L59.7,80.7L60.4,80.6L60.5,80.2L60.5,78.5L60.3,78.0Z M54.2,78.0L53.5,78.0L53.4,78.2L53.4,80.3L53.7,80.7L53.9,80.8L54.2,80.7L54.5,80.4L54.6,80.1L54.6,78.4Z M22.9,78.0L22.5,78.4L22.5,80.2L22.9,80.8L23.5,80.8L23.8,80.3L23.8,78.4L23.5,78.0Z M12.9,78.0L12.5,78.4L12.5,80.3L12.9,80.8L13.2,80.8L13.7,80.5L13.8,78.5L13.6,78.1Z M52.3,77.9L51.7,78.0L51.4,78.3L51.4,80.1L51.8,80.7L52.3,80.7L52.6,80.3L52.6,78.2Z M16.9,78.0L16.5,78.5L16.5,80.3L16.8,80.7L17.3,80.8L17.8,80.4L17.9,80.2L17.8,78.4L17.6,78.0Z M9.4,22.9L9.4,105.1L9.7,105.5L55.3,105.5L66.0,105.7L91.9,105.6L92.2,105.4L92.4,101.6L92.1,51.4L92.7,51.1L118.5,51.1L119.0,50.7L119.0,23.1L118.6,22.7L95.0,22.6L94.0,22.7L93.3,23.2L92.4,22.7L91.9,22.6L75.4,22.6L64.8,22.7L56.6,22.6L17.6,22.5L9.8,22.6Z M64.9,83.6L65.0,103.9L64.4,104.3L54.3,104.3L47.3,104.2L47.1,103.9L47.3,103.7L49.5,102.9L50.3,102.3L51.0,102.0L54.0,100.1L55.8,98.6L58.3,96.0L60.2,93.6L62.2,90.2L63.9,86.0L64.6,83.6Z M38.5,51.2L39.8,51.2L43.1,51.7L45.8,52.5L46.5,52.8L47.0,52.9L47.4,53.3L48.0,53.4L48.6,53.8L49.1,53.9L53.2,56.4L54.7,57.6L56.8,59.7L57.9,61.0L59.5,63.2L60.9,65.7L61.4,66.9L61.7,67.4L63.2,71.8L63.6,74.4L63.7,76.6L63.7,78.5L63.5,81.8L63.1,84.1L62.6,85.2L62.1,87.0L60.4,90.7L59.6,91.9L59.3,92.5L56.7,95.8L53.1,99.1L52.4,99.4L52.0,99.8L50.6,100.7L48.2,102.0L48.0,102.0L47.2,102.4L47.0,102.4L44.6,103.3L43.6,103.6L43.0,103.6L41.4,104.0L39.7,104.2L38.6,104.1L38.3,103.7L38.2,102.8L38.2,69.1L38.0,57.9L38.1,51.7Z M11.2,51.1L36.1,51.1L36.6,51.3L36.8,52.3L36.7,54.5L36.9,67.7L36.9,102.5L36.8,103.9L36.3,104.2L11.2,104.3L10.8,104.0L10.8,51.5Z M46.7,51.1L60.7,51.0L63.8,51.1L64.5,51.2L64.8,51.5L64.8,70.2L64.7,70.7L64.3,70.8L63.7,68.7L62.9,66.9L62.5,65.7L61.4,63.5L60.3,61.8L57.9,58.9L55.0,56.1L52.0,53.9L49.8,52.6L46.9,51.5Z M117.4,25.4L117.7,26.0L117.5,49.5L117.0,49.7L115.7,49.8L104.3,49.8L93.6,49.6L93.3,49.1L93.3,47.7L93.7,45.3L95.1,40.7L95.8,39.4L96.1,38.7L97.7,36.1L98.6,34.8L101.1,32.2L102.6,30.8L105.2,28.9L106.3,28.2L109.0,27.1L110.4,26.6L111.0,26.3L113.4,25.7L115.9,25.4Z M112.9,24.3L112.7,24.4L112.3,24.4L109.5,25.3L109.0,25.6L107.7,26.0L107.1,26.5L106.7,26.6L106.1,27.0L105.7,27.1L105.4,27.4L103.9,28.1L100.6,30.8L97.9,33.5L97.0,34.9L96.5,35.4L96.1,36.3L95.4,37.2L95.2,37.7L94.9,38.2L93.5,41.1L92.7,44.2L92.5,44.5L92.1,44.5L92.0,25.0L92.1,24.3L92.2,24.1L112.3,24.0Z M38.2,24.1L45.0,23.9L62.6,24.1L85.8,23.9L89.9,24.0L90.3,24.1L90.5,24.3L90.7,41.5L90.6,48.8L91.0,82.2L91.0,103.8L90.6,104.2L67.1,104.3L66.6,104.2L66.5,103.9L66.5,91.1L66.3,84.9L66.4,76.9L66.2,70.7L66.3,66.0L66.1,59.8L66.1,50.0L65.8,49.8L54.1,49.6L38.4,49.6L38.1,49.4L38.0,48.9L37.9,31.1L38.0,24.3Z M10.7,24.2L11.7,23.9L35.2,23.9L36.3,24.3L36.6,24.8L36.7,48.8L36.5,49.5L36.1,49.7L11.7,49.8L11.0,49.6L10.8,49.5L10.7,48.0L10.7,36.6L10.6,32.2Z" fill="#000" fill-rule="evenodd"/>
</svg>