<svg xmlns="http://www.w3.org/2000/svg" viewBox="0 0 128 128" width="128" height="128">
  <path d="M79.5,84.4L79.7,85.0L79.9,85.2L80.3,85.3L99.7,85.4L100.6,85.2L101.0,84.9L100.9,84.1L100.7,83.8L99.8,83.6L79.9,83.5L79.6,83.7Z M43.2,83.6L43.2,84.4L43.4,84.8L43.7,85.0L44.6,85.1L61.1,85.1L61.6,85.0L61.9,84.7L62.0,84.4L61.9,83.6L61.5,83.2L44.2,83.1L43.4,83.2Z M9.3,84.4L9.6,84.8L9.8,84.8L18.0,85.0L19.1,84.8L26.9,84.9L28.7,84.8L28.9,84.4L29.0,83.6L28.9,83.2L28.6,83.1L27.4,83.0L26.2,83.1L24.2,82.9L10.9,82.9L9.7,83.0L9.4,83.3Z M67.6,84.8L68.1,85.1L69.2,85.1L69.5,84.9L70.3,83.0L70.5,82.0L71.4,79.5L71.4,79.2L72.4,76.7L73.5,73.1L73.7,72.6L74.2,72.2L83.4,72.2L84.1,72.8L84.3,73.4L84.8,75.1L85.1,75.8L85.1,76.4L84.8,76.7L80.0,76.8L79.6,77.2L79.6,78.0L80.0,78.5L80.9,78.6L87.7,78.5L87.8,77.7L85.4,70.9L85.0,70.5L72.4,70.5L72.0,70.8L71.7,71.6L71.6,72.2L71.0,73.8L69.9,77.4L69.7,77.8L68.9,80.4L67.6,84.0Z M53.5,67.0L53.5,68.2L53.7,68.4L54.3,68.6L61.2,68.6L61.5,68.5L61.7,68.2L61.7,67.0L61.2,66.7L54.5,66.6L53.8,66.7Z M53.6,60.5L53.6,61.6L53.8,61.9L54.3,62.0L61.4,62.1L61.8,61.8L61.9,61.3L61.8,60.5L61.4,60.1L53.9,60.2Z M78.6,51.7L78.3,52.1L77.9,53.6L77.0,55.9L77.0,56.2L76.7,56.6L76.3,58.2L76.1,58.4L76.0,58.9L74.3,63.9L74.3,64.2L73.8,65.5L73.8,66.0L74.3,66.2L83.3,66.1L83.6,65.9L83.7,65.6L83.5,64.7L83.2,64.0L79.4,52.3L79.1,51.7Z M78.7,57.5L78.9,57.5L79.2,57.8L79.6,59.2L79.9,59.6L80.1,60.8L80.9,62.9L81.0,64.0L80.6,64.4L76.9,64.4L76.5,64.1L76.8,62.6L77.6,60.7L77.8,59.7L78.5,57.7Z M72.7,50.7L71.3,50.6L70.8,51.1L70.5,51.5L69.7,53.9L68.1,59.0L67.9,59.4L67.2,61.9L66.9,62.4L66.8,63.3L66.4,64.3L66.3,64.8L66.1,65.2L65.4,67.7L65.1,68.1L65.0,68.6L64.6,69.7L64.5,70.3L64.2,70.9L63.7,72.8L63.4,73.4L62.9,75.0L62.4,76.1L62.0,76.5L61.1,76.7L50.1,76.7L49.7,76.9L49.7,77.6L49.7,78.1L50.0,78.4L50.5,78.5L56.3,78.6L63.3,78.5L63.8,78.1L64.4,76.5L64.6,76.3L64.6,76.1L65.0,75.0L65.4,73.5L65.9,72.4L66.2,71.2L67.7,66.7L68.1,65.6L68.3,64.8L69.7,61.0L69.7,60.7L70.7,58.1L71.2,56.0L71.4,55.8L71.4,55.4L72.0,53.8L72.4,52.6L72.7,51.9L72.8,50.8Z M32.9,50.3L31.9,50.3L31.7,50.8L31.7,51.5L32.1,51.9L34.1,52.3L35.9,53.0L37.2,53.8L37.6,54.3L38.0,54.6L39.8,56.6L40.7,58.2L41.5,60.1L42.0,62.4L42.0,64.8L41.5,67.7L40.7,69.7L39.5,71.4L38.6,72.6L36.5,74.5L34.1,75.7L31.9,76.3L31.7,76.7L31.7,77.5L32.1,77.9L33.9,77.7L36.0,77.1L38.2,75.7L39.9,74.2L41.5,72.2L42.7,70.2L43.5,67.7L43.9,65.2L43.8,62.2L43.4,60.4L42.5,57.8L40.9,55.2L40.2,54.3L38.7,52.9L36.8,51.6L34.7,50.7Z M95.0,49.9L94.5,50.3L94.4,50.6L94.5,51.3L94.8,51.6L98.6,51.7L99.2,52.1L99.2,77.1L99.3,78.1L99.4,78.4L99.8,78.5L100.7,78.5L101.0,78.3L101.2,77.9L101.1,70.3L101.3,60.5L101.3,50.6L101.2,50.3L100.6,49.9Z M10.1,49.6L9.6,49.8L9.4,50.1L9.4,51.0L9.5,51.4L11.3,51.5L13.4,51.5L14.0,51.7L14.3,52.1L14.5,59.7L14.4,75.4L14.3,76.0L13.7,76.5L9.8,76.6L9.4,76.9L9.4,77.9L9.8,78.2L10.9,78.3L15.9,78.3L16.3,78.1L16.5,77.1L16.5,60.2L16.4,50.0L16.0,49.7L15.7,49.6Z M94.8,43.6L94.4,44.0L94.5,44.8L95.0,45.2L112.4,45.1L112.8,45.4L112.9,48.9L112.8,49.4L112.4,49.8L111.5,49.9L108.0,49.9L107.6,50.3L107.4,68.8L107.5,78.2L107.9,78.7L108.3,78.8L118.7,78.8L119.0,78.3L118.9,68.9L118.3,68.5L117.4,68.5L117.1,68.6L116.8,69.0L116.7,76.3L116.3,76.9L116.0,77.0L110.0,76.9L109.7,76.8L109.5,75.8L109.6,52.0L109.9,51.8L110.4,51.7L114.3,51.7L114.9,51.3L115.1,49.5L115.1,44.4L114.7,43.6L114.4,43.5L108.3,43.5L105.3,43.6Z M73.2,43.6L72.8,44.0L72.7,44.8L73.1,45.2L82.2,45.2L83.0,45.2L83.4,45.6L85.6,51.7L85.6,52.0L85.8,52.4L85.9,53.0L87.6,57.7L89.1,62.6L89.3,63.0L90.5,66.7L91.1,68.0L91.6,69.8L92.0,70.7L92.0,71.3L92.4,71.8L93.3,74.8L93.5,75.7L94.4,78.2L95.0,78.6L96.0,78.5L96.2,78.4L96.1,77.5L95.1,74.4L94.8,74.0L93.9,70.8L93.6,70.3L93.6,69.9L93.2,69.1L92.0,65.5L91.8,65.1L91.8,64.8L89.6,58.3L89.3,57.2L88.9,56.3L88.5,54.9L88.3,54.5L87.3,51.3L86.5,49.1L86.1,47.6L85.5,46.2L85.5,45.9L84.6,43.8L84.2,43.6L83.3,43.5Z M43.8,43.8L43.8,44.8L44.2,45.2L44.6,45.2L59.5,45.2L60.3,45.5L60.5,45.8L60.6,46.9L60.4,49.3L60.0,49.8L50.1,49.9L49.8,50.3L49.8,51.3L50.0,51.5L61.7,51.7L62.1,51.6L62.4,51.4L62.5,45.2L62.3,43.8L62.0,43.6L44.2,43.5Z M32.1,43.5L31.7,43.6L31.6,44.0L31.6,44.5L31.8,45.0L32.5,45.2L35.4,45.5L35.6,45.6L37.1,45.9L37.5,46.1L38.0,46.2L39.5,46.9L41.3,48.1L44.0,50.6L45.7,52.6L47.3,55.3L48.4,58.1L49.2,61.9L49.1,66.3L48.6,68.8L47.4,71.9L45.8,75.0L45.1,75.6L43.9,77.2L42.5,78.6L41.5,79.5L41.1,79.7L39.9,80.5L39.2,80.8L39.0,81.0L37.6,81.7L37.3,81.7L35.4,82.4L33.0,82.8L31.9,82.9L31.6,83.2L31.5,84.4L31.8,84.8L33.6,84.8L36.1,84.3L38.9,83.3L40.8,82.4L42.6,81.3L43.8,80.3L45.3,78.9L47.1,76.8L47.1,76.6L47.7,76.0L47.7,75.7L48.2,75.0L49.7,72.2L50.5,69.8L51.1,66.5L51.2,63.2L51.0,61.0L50.5,59.2L50.5,58.4L49.2,54.9L48.7,53.9L48.5,53.7L48.3,53.2L45.7,49.6L43.9,47.9L42.5,46.7L41.8,46.4L41.3,46.0L39.9,45.2L38.7,44.8L38.4,44.5L37.6,44.4L36.2,43.9L33.9,43.5Z M9.5,43.2L9.1,43.7L9.1,44.1L9.3,44.7L9.8,45.0L20.1,45.2L25.3,45.1L26.6,45.2L27.0,45.6L27.1,46.5L27.0,49.4L26.7,49.7L23.0,49.7L22.7,49.8L22.4,50.0L22.3,50.5L22.3,77.4L22.4,77.9L22.7,78.1L23.9,78.1L24.2,77.8L24.3,77.4L24.4,75.0L24.4,52.2L24.6,51.9L25.2,51.7L28.0,51.7L28.6,51.6L29.0,51.3L29.2,50.4L29.2,46.8L29.0,46.0L29.1,44.5L28.9,43.7L28.6,43.4L17.3,43.3L12.9,43.2Z" fill="#000" fill-rule="evenodd"/>
</svg>