<svg xmlns="http://www.w3.org/2000/svg" viewBox="0 0 128 128" width="128" height="128">
  <path d="M59.4,8.9L59.2,9.1L59.1,9.9L59.1,60.6L59.0,67.0L58.9,68.2L58.5,68.4L58.0,68.5L49.5,68.6L13.1,68.5L12.8,68.6L12.8,68.9L18.4,74.6L23.2,79.1L37.7,93.5L38.0,93.7L39.5,95.2L41.1,96.7L47.3,103.0L48.8,104.3L63.3,118.8L64.0,119.3L64.4,119.3L70.4,113.5L80.2,103.7L83.9,100.2L90.5,93.6L91.0,93.2L93.7,90.4L94.5,89.8L104.6,79.7L107.3,77.2L107.6,76.7L109.6,74.9L111.5,72.9L112.0,72.5L113.6,70.8L115.3,69.3L115.4,69.1L115.3,68.8L115.2,68.7L110.3,68.6L103.0,68.6L99.1,68.5L94.3,68.6L89.2,68.4L85.6,68.6L71.3,68.5L70.5,68.4L70.0,68.1L69.8,67.5L69.9,66.3L70.1,65.8L70.5,65.7L73.7,65.6L114.8,65.6L115.3,65.5L115.4,65.3L113.6,63.3L108.2,58.0L107.6,57.3L99.3,48.9L99.1,48.6L97.7,47.3L97.2,46.7L85.7,35.2L84.7,34.0L83.8,33.3L80.6,30.1L79.0,28.4L65.7,15.1L59.7,8.9Z M40.3,79.9L40.9,79.6L43.9,79.5L58.7,79.6L58.9,79.9L59.0,81.9L58.9,97.7L58.7,97.9L58.2,98.0L50.3,90.2L49.5,89.3L49.0,88.9L42.3,82.2L40.4,80.1Z M88.1,79.7L88.2,80.0L88.0,80.2L80.8,87.3L78.5,89.4L71.5,96.4L70.3,97.4L69.9,97.4L69.8,97.3L69.8,80.2L70.2,79.6L71.2,79.4L85.7,79.6L86.3,79.5L87.8,79.6Z M70.2,35.6L70.8,35.7L84.7,49.5L85.9,50.9L86.9,51.8L87.3,52.3L88.4,53.4L88.8,53.9L88.7,54.2L87.0,54.3L70.5,54.3L70.0,53.9L69.9,40.5L70.0,38.4L70.0,35.9Z" fill="#000" fill-rule="evenodd"/>
</svg>