<svg xmlns="http://www.w3.org/2000/svg" viewBox="0 0 128 128" width="128" height="128">
  <path d="M61.2,43.0L60.5,42.9L49.5,42.9L47.6,43.0L41.3,43.1L34.3,43.0L31.0,43.1L30.5,43.2L30.2,43.7L30.1,47.1L30.4,69.9L30.4,93.3L30.5,99.6L30.4,105.5L30.6,109.7L30.5,112.7L30.6,118.5L30.7,118.8L31.0,119.1L31.5,119.0L33.6,117.1L36.1,114.5L36.8,113.9L44.4,106.5L52.9,98.4L54.5,96.8L55.1,96.3L59.6,92.0L61.5,90.0L61.6,89.1L61.7,84.7L61.6,78.1L61.8,70.2L61.8,43.9L61.6,43.3Z M97.9,43.1L97.6,42.9L92.6,42.8L72.2,42.9L65.9,42.9L65.2,43.0L64.8,43.5L64.6,66.8L64.6,89.0L64.8,89.9L65.0,90.1L65.5,90.2L69.0,90.3L82.1,90.3L84.0,90.5L96.4,90.5L97.0,90.4L97.3,90.2L97.6,89.3L97.6,86.6L97.6,84.4L97.7,78.4L97.8,64.7L97.9,63.4L97.9,61.4L98.1,53.5L98.1,43.5Z M65.1,9.6L64.9,11.1L64.8,39.3L64.9,39.6L65.2,40.1L67.3,40.2L83.1,40.1L86.1,40.2L96.7,40.1L97.5,40.0L97.8,39.9L97.8,39.6L97.5,39.1L96.9,38.7L95.3,37.1L95.0,36.9L94.0,35.8L93.7,35.7L92.7,34.6L87.9,30.2L87.0,29.2L86.1,28.6L85.1,27.5L84.5,27.0L79.7,22.3L78.6,21.5L77.6,20.4L73.7,16.9L71.9,15.0L71.0,14.4L70.1,13.4L69.4,12.9L66.4,9.9L65.6,9.4L65.3,9.4Z M61.8,9.4L61.2,9.0L49.4,9.0L47.6,9.2L39.8,9.3L38.5,9.4L35.5,9.3L30.7,9.4L30.2,9.9L30.1,11.9L30.2,15.4L30.1,20.8L30.1,30.0L30.2,39.7L30.4,40.1L31.0,40.3L58.8,40.3L61.1,40.2L61.5,40.1L61.8,39.6L61.9,9.9Z" fill="#000" fill-rule="evenodd"/>
</svg>