<svg xmlns="http://www.w3.org/2000/svg" viewBox="0 0 128 128" width="128" height="128">
  <path d="M64.5,32.4L64.3,32.6L64.2,33.9L64.3,34.7L64.6,35.0L65.6,35.2L67.7,35.4L68.2,35.5L68.5,35.7L70.2,36.3L71.3,37.0L72.4,37.9L73.3,39.1L74.2,41.2L74.6,43.4L74.9,47.8L74.9,52.9L74.8,54.3L74.4,56.3L74.4,56.9L73.7,58.6L73.0,59.5L71.8,60.5L70.8,61.1L69.7,61.4L68.1,61.8L64.8,61.9L64.0,62.0L63.6,62.4L63.6,64.5L63.9,64.8L66.9,64.9L69.5,65.3L70.5,65.6L71.7,66.4L72.3,67.0L73.1,67.9L73.9,69.7L74.4,72.3L74.6,75.9L74.5,81.0L74.9,84.5L75.4,86.0L75.8,86.5L76.4,88.1L77.6,89.7L79.2,91.2L80.6,92.3L80.8,92.3L82.1,93.1L82.8,93.3L83.5,93.6L83.8,93.6L85.5,94.3L86.3,94.5L86.7,94.7L87.6,94.8L89.4,95.3L89.9,95.3L91.0,95.6L94.3,95.9L96.6,96.0L99.9,95.9L101.6,95.6L102.6,95.6L104.1,95.4L105.2,95.3L105.7,95.1L107.0,94.8L107.4,94.6L108.2,94.6L108.8,94.3L109.9,94.1L112.1,93.0L113.9,92.0L115.1,90.9L116.1,90.2L117.8,88.1L118.4,86.8L119.0,84.5L119.2,83.2L119.1,81.5L118.9,80.7L118.7,80.3L118.6,79.6L118.2,78.4L117.7,77.4L116.7,76.0L115.1,74.4L114.5,74.0L112.1,72.8L111.2,72.6L110.9,72.4L109.4,72.2L107.6,72.2L104.7,72.8L103.5,73.3L102.2,74.2L100.5,76.0L99.8,77.1L99.0,78.8L98.5,80.6L98.4,82.1L98.5,84.2L98.7,85.0L99.5,87.0L100.3,88.5L101.1,89.7L102.8,91.2L103.5,91.7L103.9,92.0L103.8,92.3L103.4,92.6L101.7,93.0L99.0,93.1L97.2,92.6L96.3,92.2L94.7,90.8L94.1,89.7L93.3,87.4L93.0,85.1L93.1,79.9L93.0,76.4L92.5,74.0L91.8,72.0L90.4,69.7L90.2,69.5L89.5,68.4L88.1,67.0L86.8,66.0L86.2,65.8L85.8,65.4L84.3,64.6L84.0,64.6L83.7,64.4L82.7,64.2L81.5,63.7L81.6,63.5L83.4,63.0L85.8,61.9L89.0,59.3L89.6,58.8L89.7,58.5L90.4,57.8L91.2,57.3L91.6,56.7L91.8,56.0L92.2,55.4L92.3,54.6L93.0,52.6L93.0,51.9L93.3,51.3L93.3,48.2L92.8,44.8L92.5,43.7L92.3,43.4L92.2,43.0L91.9,42.5L91.7,42.0L90.9,40.4L89.9,39.1L89.3,38.6L88.9,38.0L87.5,36.8L84.8,35.1L83.7,34.6L83.3,34.5L82.7,34.2L79.0,33.2L76.4,32.7L75.7,32.7L73.6,32.4L71.0,32.4L70.1,32.2L66.1,32.2Z M62.2,32.4L61.4,32.2L59.6,32.2L58.6,32.4L57.0,32.4L53.4,32.6L52.8,32.9L50.7,33.1L50.0,33.3L49.2,33.4L46.9,33.9L46.6,34.1L45.1,34.6L44.7,34.9L44.0,35.1L43.8,35.3L43.4,35.4L42.4,36.1L41.9,36.3L40.8,37.2L40.4,37.6L39.9,38.0L39.1,38.9L37.9,40.7L37.8,41.0L37.3,41.7L37.0,42.4L36.8,43.3L36.5,43.9L36.3,45.5L36.1,45.7L35.7,49.7L35.5,56.1L35.5,64.8L35.4,69.5L35.5,71.5L35.3,74.3L35.3,83.7L35.2,84.5L35.2,85.5L35.0,86.6L34.3,88.6L34.0,88.9L33.9,89.4L33.1,90.5L31.9,91.7L30.2,92.5L28.9,92.9L27.9,93.0L26.0,93.0L24.0,92.5L23.6,92.2L23.6,91.9L23.8,91.7L24.1,91.6L25.0,91.0L26.5,89.7L27.5,88.6L27.7,87.9L28.1,87.6L28.7,86.3L29.3,84.5L29.5,82.5L29.3,80.6L28.8,78.9L28.1,77.4L26.4,75.1L25.1,74.0L23.9,73.2L21.6,72.3L20.9,72.2L20.4,72.0L18.6,71.9L17.8,72.0L15.9,72.4L15.8,72.6L14.4,73.1L13.1,73.8L11.3,75.7L10.4,77.0L10.2,77.5L9.8,78.0L9.5,79.5L9.2,80.1L9.1,80.8L9.1,83.7L9.5,85.8L10.8,88.6L12.1,90.2L12.9,91.0L14.6,92.3L16.3,93.2L16.7,93.3L17.1,93.5L19.4,94.5L20.5,94.6L21.0,94.9L22.1,95.1L23.3,95.4L24.3,95.5L24.6,95.6L25.8,95.7L26.4,95.9L27.9,95.9L29.0,96.0L32.4,96.0L36.5,95.6L37.8,95.4L38.1,95.3L39.0,95.2L42.4,94.2L42.5,94.1L43.1,93.9L44.3,93.3L45.6,92.8L47.2,91.9L49.2,90.4L50.5,89.1L52.1,86.6L52.7,84.9L53.2,82.6L53.5,79.7L53.6,73.8L53.6,67.1L53.8,65.9L53.8,58.4L53.9,57.0L53.9,47.7L54.0,43.8L54.2,43.4L54.2,42.5L54.3,41.7L55.0,39.6L55.8,38.3L56.7,37.3L57.9,36.5L58.9,36.0L59.9,35.7L60.3,35.5L61.7,35.3L62.2,35.1L62.4,34.9L62.4,32.8Z" fill="#000" fill-rule="evenodd"/>
</svg>