<svg xmlns="http://www.w3.org/2000/svg" viewBox="0 0 128 128" width="128" height="128">
  <path d="M43.6,110.8L43.6,117.6L43.9,119.0L44.2,119.2L45.0,119.3L51.0,119.3L52.4,119.1L52.6,118.8L52.4,118.7L50.7,118.1L48.8,117.1L47.8,116.4L45.8,114.3L44.9,112.8L44.0,110.7Z M43.4,88.3L43.2,89.0L43.3,99.5L43.5,101.7L44.1,102.1L50.1,102.1L50.5,102.5L50.6,102.9L50.8,108.7L51.1,109.7L51.5,110.3L52.7,111.3L53.6,111.8L54.6,112.0L55.4,111.9L56.2,111.5L57.0,111.0L57.7,110.2L58.2,109.3L58.3,108.5L58.3,106.4L57.1,103.9L55.6,102.4L53.1,100.2L51.3,98.4L48.3,95.8L46.8,94.3L45.3,92.4L44.3,90.4L43.9,88.8L43.5,88.3Z M51.1,75.6L48.6,75.5L43.6,75.6L43.3,75.9L43.1,76.2L43.2,83.3L43.4,83.6L43.6,83.6L44.7,80.9L46.2,78.9L47.0,78.2L48.8,76.9L51.0,76.1Z M86.6,75.1L84.5,74.9L69.0,75.0L65.8,75.2L61.8,75.2L60.7,75.4L56.6,75.3L55.4,75.5L55.5,75.8L57.7,76.5L59.7,77.6L61.4,79.2L62.6,80.9L63.6,83.5L63.8,85.4L63.8,89.3L63.5,89.7L63.1,89.8L57.5,89.9L56.9,89.5L56.8,89.1L56.8,85.9L56.4,84.8L56.2,84.3L55.5,83.5L54.1,82.9L52.7,83.0L51.2,84.3L50.7,85.8L50.7,86.5L50.9,87.7L51.6,89.1L52.5,90.2L55.0,92.6L56.8,94.0L62.0,99.1L63.3,101.0L64.3,102.9L64.9,104.7L65.2,106.7L65.2,108.6L64.9,111.2L64.6,112.0L63.1,114.7L62.5,115.4L60.7,117.0L58.7,118.1L57.4,118.6L57.0,118.9L69.2,119.0L73.8,118.8L86.5,118.8L87.2,118.7L87.4,118.4L87.6,118.0L87.6,114.5L87.4,108.6L87.4,100.5L87.3,98.0L87.3,93.9L87.2,92.0L87.1,77.3L87.0,75.6Z M108.4,45.8L108.2,45.8L107.8,46.2L106.9,48.4L105.3,50.8L104.4,51.7L102.3,53.2L101.2,53.8L99.4,54.4L97.7,54.6L94.6,54.7L94.2,54.8L94.0,55.1L94.0,70.6L94.1,73.4L94.3,73.7L97.9,73.9L102.4,73.9L104.0,73.7L108.3,73.7L108.7,73.5L108.7,53.3L108.5,48.7L108.6,46.5Z M19.8,44.5L19.9,53.1L20.1,53.4L20.4,53.7L26.1,53.7L28.7,53.4L28.6,53.1L27.4,52.7L25.5,51.8L23.7,50.4L22.5,49.1L21.7,48.0L20.6,45.7L20.4,44.6L20.2,44.4Z M98.1,38.4L96.5,38.2L94.4,38.3L94.0,38.4L93.6,39.0L93.6,46.2L93.7,46.9L93.9,47.3L94.1,47.5L96.4,47.6L98.0,47.3L98.8,47.0L99.5,46.4L100.2,45.7L100.7,45.0L101.1,43.5L101.1,42.3L100.8,41.0L100.3,40.1L99.7,39.4Z M86.0,31.0L77.6,30.9L65.1,31.1L64.6,31.4L64.3,31.8L64.3,42.0L64.4,45.2L64.3,47.9L64.5,50.0L64.4,52.5L64.6,53.3L64.8,56.6L64.8,63.3L65.0,65.7L65.0,73.7L65.4,74.1L81.6,73.8L85.6,74.0L86.5,73.9L86.8,73.7L87.0,72.1L86.7,53.7L86.8,51.2L86.5,39.4L86.5,32.5L86.3,31.4Z M99.2,30.9L98.9,31.2L101.0,31.9L101.4,32.2L102.2,32.4L104.2,33.9L105.5,35.2L106.5,36.6L107.5,38.3L108.0,39.9L108.3,39.9L108.5,38.5L108.5,33.4L108.3,31.3L108.0,30.8L104.8,30.7Z M20.0,9.4L19.7,9.6L19.5,9.9L19.4,13.0L19.6,31.2L19.7,36.1L20.0,36.4L20.5,36.6L26.2,36.6L26.7,36.8L27.0,37.0L27.1,37.4L27.2,43.1L27.6,44.2L28.6,45.5L29.8,46.1L30.5,46.3L32.4,46.1L33.1,45.7L34.2,44.6L34.6,43.6L34.8,42.4L34.8,37.1L34.6,26.9L34.6,25.3L34.3,15.6L34.4,13.3L34.1,9.9L33.8,9.5L33.1,9.4Z M62.2,9.3L42.7,9.3L41.9,9.4L41.3,9.9L41.3,19.8L41.4,22.3L41.4,28.3L41.8,42.4L41.6,44.2L41.3,45.8L40.9,46.8L39.9,48.6L39.1,49.7L37.4,51.3L35.5,52.5L33.7,53.1L33.6,53.4L46.8,53.5L60.1,53.2L61.9,53.3L63.0,53.2L63.2,53.1L63.3,50.5L63.1,45.8L63.1,37.0L63.0,32.9L63.0,23.4L62.8,22.3L62.9,19.5L62.7,16.7L62.7,13.1L62.4,9.6Z" fill="#000" fill-rule="evenodd"/>
</svg>