<svg xmlns="http://www.w3.org/2000/svg" viewBox="0 0 128 128" width="128" height="128">
  <path d="M82.7,92.0L82.7,92.4L83.0,92.6L85.3,92.7L86.5,92.7L86.8,92.3L86.7,90.4L86.5,90.1L86.2,90.0L83.8,90.1L83.4,90.5Z M67.1,90.0L66.2,92.0L66.2,92.3L66.4,92.5L69.7,92.6L70.0,92.5L70.2,92.4L70.2,90.3L70.1,89.9L69.8,89.8L67.9,89.7L67.4,89.8Z M70.0,84.3L69.9,84.3L69.5,84.8L69.3,85.4L68.3,87.4L68.4,87.8L68.6,88.0L69.6,88.0L70.0,88.0L70.2,87.8L70.2,84.7Z M86.6,84.1L86.3,84.2L84.7,87.8L84.7,88.0L85.0,88.3L86.3,88.3L86.7,88.0L86.8,84.2Z M117.5,35.7L117.2,35.5L114.4,35.5L110.7,35.5L99.6,35.4L98.8,35.6L95.1,39.3L85.5,48.3L84.8,49.2L82.3,51.4L73.8,59.6L72.0,61.2L59.6,73.0L58.7,73.7L57.8,74.7L55.8,76.4L49.5,82.5L48.9,82.9L44.8,83.0L37.0,82.9L36.1,82.8L30.0,82.9L24.0,82.7L21.4,82.8L10.9,82.6L9.4,82.7L9.1,83.0L12.9,84.0L13.8,84.2L14.2,84.4L16.5,84.9L18.1,85.4L19.4,85.6L19.9,85.9L23.9,86.8L24.8,87.1L27.6,87.8L30.3,88.5L31.2,88.7L33.3,89.3L35.0,89.6L36.0,90.0L38.3,90.5L39.8,90.9L40.1,90.9L40.5,91.2L42.1,91.4L42.3,91.6L44.8,92.3L45.5,92.3L45.8,92.1L46.0,91.8L46.4,90.6L46.9,89.8L47.5,89.6L50.2,89.7L50.6,89.6L50.9,89.2L51.6,87.5L52.8,85.1L52.9,84.6L53.3,84.0L53.8,82.5L54.7,80.9L54.9,80.4L55.9,78.4L56.6,76.8L57.2,75.8L57.6,75.3L57.8,75.2L60.9,75.4L61.4,75.3L61.8,75.5L61.9,75.9L61.4,77.0L61.0,77.7L60.9,78.3L60.1,79.8L59.4,81.5L58.5,83.1L57.9,84.7L57.3,85.9L56.2,88.6L55.9,88.9L55.6,90.0L55.2,90.5L54.7,91.9L54.7,92.2L54.9,92.4L55.2,92.5L61.4,92.5L61.8,92.2L63.7,88.6L63.8,88.0L64.4,86.9L64.6,86.5L65.5,84.7L66.4,82.5L67.0,81.4L67.9,79.3L69.6,75.9L70.2,75.5L74.0,75.6L74.3,75.7L74.4,76.1L74.5,77.6L74.7,92.1L74.7,92.3L75.1,92.5L77.8,92.6L78.4,92.2L79.4,89.8L80.5,87.8L81.0,86.5L82.3,84.0L83.0,82.4L83.9,80.8L84.1,80.2L84.8,79.0L84.8,78.6L86.1,76.0L86.4,75.8L90.7,75.9L91.1,76.1L91.1,76.5L91.1,86.8L91.3,88.7L91.2,90.7L91.3,92.3L91.5,92.7L94.9,92.8L102.7,92.8L119.2,92.6L119.1,92.4L115.4,91.6L112.6,91.2L111.5,90.9L111.0,90.9L107.7,90.2L106.7,90.1L106.1,89.9L104.4,89.7L103.5,89.4L102.6,89.4L98.9,88.6L97.6,88.5L97.1,88.3L94.4,87.8L92.8,87.4L92.4,87.4L92.0,87.3L91.8,87.0L92.2,86.0L94.5,81.2L96.7,77.0L98.5,73.4L99.9,70.9L101.2,68.0L102.3,66.3L102.4,65.8L103.1,64.7L103.3,64.0L103.9,62.8L104.2,62.4L105.4,59.8L106.0,59.1L106.7,57.4L107.7,55.5L108.0,55.0L109.9,51.1L110.4,50.2L112.6,45.8L113.0,45.1L115.1,40.9L115.1,40.7L115.8,39.6L117.1,36.7L117.3,36.5Z M97.3,41.8L100.1,41.8L101.0,42.1L102.5,42.9L104.1,44.2L105.1,45.8L105.7,47.8L105.7,49.4L105.5,49.9L105.5,50.5L105.1,51.6L104.1,53.2L103.2,54.2L102.1,55.0L100.7,55.5L99.4,55.8L97.6,55.8L96.2,55.5L94.8,54.8L93.2,53.4L92.4,52.3L92.0,51.6L91.5,49.9L91.5,48.2L91.6,47.3L92.0,46.0L92.9,44.5L93.9,43.4L94.8,42.8L96.0,42.1L96.9,42.0Z" fill="#000" fill-rule="evenodd"/>
</svg>