<svg xmlns="http://www.w3.org/2000/svg" viewBox="0 0 128 128" width="128" height="128">
  <path d="M119.6,62.5L119.4,62.3L117.7,62.3L116.8,62.3L116.5,62.4L113.6,62.4L113.3,62.3L111.9,62.4L109.9,62.4L109.3,62.5L107.1,62.4L105.0,62.5L104.5,62.6L104.0,62.8L103.7,63.0L103.1,63.6L103.0,63.9L102.9,64.2L102.9,64.6L103.1,65.2L103.5,65.5L103.7,65.7L104.2,65.8L105.2,66.0L107.4,66.0L108.0,66.1L111.4,66.1L112.1,66.0L116.1,66.0L119.5,66.0L119.6,65.8Z M119.6,53.8L119.4,53.7L117.3,53.7L117.0,53.8L113.9,53.8L113.1,53.8L109.3,53.9L108.9,54.0L108.0,54.0L106.3,54.1L105.4,54.3L104.3,54.4L103.7,54.6L103.1,54.7L102.6,54.9L102.1,54.9L101.4,55.1L100.5,55.5L100.3,55.6L100.2,55.6L99.5,55.9L98.4,56.6L98.0,56.8L97.8,56.9L96.9,57.7L96.8,57.8L96.1,58.6L96.1,58.7L95.7,59.1L95.5,59.5L95.2,59.8L94.6,61.0L94.6,61.4L94.5,61.5L94.3,62.3L94.1,63.6L94.1,65.3L94.2,66.3L94.4,66.9L94.6,67.5L95.0,68.4L95.4,69.3L95.7,69.5L96.2,70.3L97.4,71.4L98.8,72.4L100.3,73.2L100.5,73.2L101.2,73.5L101.5,73.5L102.1,73.7L102.9,73.9L103.4,73.9L103.6,74.0L104.1,74.0L104.3,74.1L104.6,74.1L105.4,74.2L105.8,74.2L106.4,74.3L107.8,74.4L109.9,74.4L110.4,74.5L110.8,74.5L111.1,74.5L113.5,74.5L114.0,74.6L118.7,74.7L119.5,74.7L119.7,74.6L119.6,72.7L119.6,70.0L119.6,69.8L119.5,69.7L113.3,69.7L112.8,69.8L112.4,69.8L111.8,69.8L108.7,69.8L108.2,69.7L106.6,69.7L105.5,69.5L103.3,69.1L102.9,68.9L102.5,68.9L101.4,68.3L100.9,67.8L100.2,67.2L99.9,66.7L99.6,66.1L99.4,65.6L99.2,64.6L99.3,63.0L99.4,62.9L99.5,62.4L100.0,61.5L100.5,60.9L101.3,60.1L102.3,59.6L102.9,59.4L104.0,59.1L105.3,58.9L106.5,58.8L106.8,58.8L107.7,58.8L107.9,58.7L108.7,58.7L109.0,58.6L113.2,58.6L113.6,58.6L116.0,58.6L117.5,58.5L119.4,58.5L119.6,58.4L119.6,58.3L119.7,53.9Z M119.4,43.6L115.6,43.6L114.9,43.6L112.9,43.7L112.2,43.8L111.0,43.7L110.4,43.8L110.2,43.8L109.2,43.8L108.3,43.9L107.4,43.9L107.0,44.0L106.3,44.1L105.5,44.2L105.0,44.2L104.7,44.3L104.4,44.3L103.3,44.5L102.9,44.5L101.5,44.8L101.2,44.9L100.7,45.0L100.3,45.1L100.1,45.2L99.6,45.3L98.7,45.6L98.5,45.6L98.3,45.7L98.0,45.8L97.8,45.9L97.5,46.0L97.3,46.1L97.1,46.1L96.9,46.3L96.6,46.3L96.5,46.4L96.2,46.5L96.1,46.6L95.6,46.8L94.5,47.3L94.2,47.4L93.3,48.0L92.9,48.3L92.1,48.8L91.2,49.6L90.5,50.1L88.9,51.7L88.6,51.9L88.3,52.3L87.8,52.9L87.1,53.7L86.7,54.2L86.3,55.1L86.0,55.5L85.7,56.1L85.5,56.7L85.2,57.3L84.6,59.0L84.5,59.6L84.4,59.9L84.3,60.6L84.1,61.4L84.0,62.2L83.9,63.2L83.9,65.2L84.1,67.0L84.4,68.6L85.0,70.7L85.2,71.1L85.3,71.3L85.5,72.0L86.4,73.9L86.7,74.2L87.1,74.8L87.6,75.4L87.8,75.8L88.1,76.1L88.7,76.9L89.2,77.4L89.3,77.5L89.9,78.1L90.6,78.8L90.8,78.9L92.3,80.1L92.6,80.3L93.1,80.7L94.3,81.3L95.0,81.6L95.7,82.0L96.4,82.3L96.7,82.3L97.4,82.6L98.3,82.9L98.7,83.0L99.1,83.1L99.3,83.2L99.6,83.2L100.2,83.4L101.1,83.6L101.4,83.7L101.8,83.7L102.1,83.8L102.5,83.8L103.7,84.0L105.6,84.2L106.1,84.3L107.9,84.3L108.7,84.4L109.3,84.5L111.1,84.5L111.7,84.6L112.5,84.6L112.9,84.7L118.0,84.7L119.7,84.6L119.7,84.4L119.7,78.5L119.6,78.4L114.3,78.4L113.1,78.3L111.8,78.4L111.5,78.3L109.8,78.3L108.3,78.3L107.6,78.2L107.1,78.2L106.5,78.1L104.7,78.0L104.2,77.8L103.9,77.8L103.3,77.7L103.2,77.7L102.9,77.7L101.8,77.4L101.1,77.3L99.3,76.7L98.7,76.4L98.0,76.2L95.9,74.9L94.4,73.7L93.4,72.7L92.8,72.0L91.8,70.3L90.9,68.2L90.8,67.9L90.7,67.6L90.5,66.6L90.3,65.7L90.3,64.6L90.3,63.6L90.4,62.0L90.7,61.3L90.7,61.1L90.8,60.8L90.9,60.4L91.1,59.8L91.2,59.6L91.2,59.3L91.6,58.5L91.7,58.3L92.3,57.3L93.2,56.1L94.8,54.4L96.5,53.1L97.0,52.9L97.3,52.6L97.6,52.5L98.4,52.1L99.1,51.8L99.3,51.7L100.0,51.5L100.2,51.5L100.4,51.4L101.2,51.2L101.7,51.0L102.3,50.9L103.2,50.7L104.0,50.6L104.9,50.4L105.8,50.4L106.3,50.3L107.6,50.2L107.9,50.1L108.7,50.1L109.3,50.0L111.7,49.9L117.7,49.8L119.4,49.9L119.5,49.8L119.6,49.7L119.5,47.5L119.6,46.8L119.6,43.8Z M119.4,32.0L117.1,31.9L116.3,32.0L114.0,32.0L113.7,32.0L112.8,32.0L112.4,32.1L111.2,32.1L109.5,32.2L108.3,32.2L108.0,32.3L107.3,32.3L105.8,32.4L104.5,32.6L103.2,32.7L102.9,32.8L101.9,32.9L101.2,33.1L101.0,33.1L100.2,33.3L99.7,33.3L98.6,33.6L97.5,33.8L97.2,33.9L96.8,34.0L96.6,34.1L96.3,34.2L95.5,34.5L95.2,34.5L95.0,34.6L94.5,34.7L94.1,35.0L93.8,35.0L93.4,35.2L93.2,35.2L92.7,35.4L91.8,35.9L91.4,36.0L90.5,36.4L90.4,36.5L89.7,36.9L89.6,37.0L88.9,37.3L88.7,37.4L88.4,37.5L88.3,37.7L87.3,38.2L86.2,39.0L85.9,39.1L85.4,39.4L85.0,39.8L84.5,40.1L83.7,40.8L83.1,41.2L82.6,41.7L82.0,42.1L81.5,42.7L81.3,42.8L81.2,43.0L80.7,43.4L78.6,45.9L76.8,48.3L75.5,50.6L75.1,51.7L74.8,52.2L74.6,52.7L74.3,53.2L73.3,55.8L73.3,56.3L73.2,56.4L72.9,57.7L72.8,57.9L72.5,59.5L72.4,60.0L72.4,60.6L72.1,62.2L72.1,63.0L72.0,63.5L72.0,65.1L72.2,67.3L72.4,68.5L72.4,69.4L72.5,69.6L72.7,70.3L72.9,70.9L72.9,71.1L73.0,71.7L73.3,72.3L73.5,73.1L73.7,73.9L73.8,74.0L74.0,74.6L74.5,75.9L75.1,77.3L76.1,79.2L76.9,80.5L77.1,80.6L77.2,80.9L77.5,81.4L79.4,83.9L79.8,84.3L80.0,84.4L80.3,84.8L80.5,85.1L81.7,86.3L83.1,87.5L83.4,87.8L84.2,88.6L85.2,89.4L85.7,89.7L87.4,90.9L87.6,90.9L88.3,91.5L88.7,91.6L88.9,91.6L89.8,92.1L90.5,92.4L91.3,92.8L91.7,92.9L93.3,93.6L94.1,93.7L94.2,93.8L94.7,93.9L95.2,94.1L96.1,94.3L96.3,94.5L96.8,94.5L97.0,94.6L97.4,94.7L97.8,94.8L99.3,95.2L99.9,95.2L100.2,95.4L101.1,95.4L101.7,95.5L101.9,95.6L102.9,95.7L103.1,95.7L104.9,95.8L105.2,95.9L107.2,96.0L108.9,96.2L117.2,96.4L118.6,96.4L119.6,96.5L119.7,96.4L119.8,96.2L119.8,90.0L119.8,88.4L119.6,88.2L118.4,88.2L118.0,88.3L116.9,88.3L116.7,88.2L113.3,88.2L112.3,88.3L111.7,88.2L110.4,88.2L109.1,88.1L108.7,88.0L108.3,88.1L107.9,88.0L106.5,88.0L104.8,87.8L104.0,87.8L103.2,87.6L102.2,87.5L101.3,87.3L100.7,87.3L100.2,87.1L99.8,87.1L99.1,86.9L98.5,86.8L98.2,86.6L97.8,86.6L96.9,86.2L96.6,86.2L96.3,86.0L96.0,86.0L94.6,85.4L94.2,85.3L93.4,84.8L92.7,84.6L92.6,84.5L92.4,84.4L91.8,84.0L91.5,83.9L91.2,83.6L91.0,83.5L90.3,82.9L89.5,82.5L89.0,82.0L88.1,81.3L87.7,80.8L87.4,80.6L85.9,79.0L85.5,78.4L85.0,78.0L84.4,77.1L84.1,76.6L83.7,76.0L83.4,75.4L83.3,75.2L82.7,74.3L82.6,74.2L82.2,73.1L82.0,72.8L81.8,72.3L81.6,71.8L81.5,71.5L81.4,71.3L81.2,70.5L80.9,69.5L80.9,69.4L80.6,68.3L80.6,67.8L80.4,66.9L80.4,66.6L80.3,66.2L80.2,64.9L80.2,63.4L80.3,61.9L80.5,61.4L80.5,60.7L80.8,59.6L80.8,59.2L81.0,58.7L81.0,58.5L81.1,58.3L81.2,58.0L81.4,57.6L81.4,57.3L81.7,56.3L82.0,55.8L82.3,55.1L83.7,52.6L84.1,52.1L84.4,51.5L84.8,51.1L85.2,50.5L86.6,48.8L88.1,47.2L89.0,46.5L90.9,45.1L92.0,44.5L92.5,44.1L92.6,44.1L93.7,43.5L94.0,43.4L94.9,43.0L95.2,42.9L95.4,42.8L95.5,42.8L95.9,42.6L96.2,42.5L96.9,42.2L97.2,42.1L97.8,41.9L98.1,41.8L98.3,41.7L100.1,41.2L100.7,41.1L101.8,40.8L102.7,40.8L103.4,40.6L104.6,40.5L105.8,40.3L107.7,40.2L107.9,40.2L108.7,40.2L109.4,40.1L111.6,40.1L112.0,40.1L112.2,40.0L113.6,40.0L114.0,39.9L114.5,40.0L115.2,40.0L115.5,39.9L119.4,39.8L119.5,39.7L119.5,39.6L119.5,38.2L119.5,32.2Z M8.4,19.7L8.3,19.8L8.3,19.9L8.3,24.0L8.4,25.1L8.4,29.4L8.5,35.1L8.5,44.7L8.5,48.0L8.6,49.4L8.6,56.8L8.6,59.5L8.6,61.8L8.6,62.5L8.6,67.3L8.7,70.6L8.7,71.6L8.7,73.8L8.7,82.4L8.8,84.3L8.8,87.7L8.9,88.1L8.9,94.6L9.0,99.0L9.1,103.9L9.0,109.3L9.1,109.4L9.2,109.4L10.1,109.4L10.6,109.4L11.1,109.4L12.5,109.5L12.6,109.4L12.7,109.3L12.7,107.3L12.7,102.7L12.6,102.5L12.6,101.6L12.6,98.6L12.5,97.0L12.6,96.3L12.5,95.3L12.5,94.7L12.5,92.7L12.5,89.0L12.4,83.0L12.4,75.0L12.3,74.5L12.3,72.2L12.3,71.5L12.3,70.8L12.2,68.2L12.2,56.9L12.2,55.2L12.2,53.8L12.1,49.8L12.1,42.5L12.0,37.9L12.1,36.9L11.9,21.7L11.9,20.0L11.9,19.8L11.7,19.7Z M15.8,19.7L15.7,19.7L15.6,19.8L15.6,24.9L15.7,28.1L15.7,37.7L15.7,40.1L15.7,42.4L15.8,44.4L15.7,45.3L15.8,47.7L15.8,51.1L15.9,57.6L15.9,59.2L16.0,62.0L16.0,69.5L16.0,72.7L16.0,75.0L16.1,84.9L16.2,86.7L16.1,87.6L16.2,88.7L16.2,92.3L16.3,101.1L16.3,104.1L16.4,105.3L16.4,109.2L16.6,109.4L16.9,109.4L20.2,109.3L21.5,109.4L21.6,109.2L21.5,105.8L21.5,104.9L21.5,103.6L21.4,102.0L21.4,96.0L21.3,93.8L21.3,88.9L21.3,87.3L21.2,86.8L21.2,83.1L21.2,81.1L21.2,77.3L21.2,75.7L21.2,74.8L21.1,71.2L21.1,70.4L21.0,62.4L21.0,55.5L20.9,51.9L21.0,51.0L20.9,46.8L20.9,42.5L20.8,41.1L20.8,39.7L20.8,37.5L20.8,36.0L20.7,33.1L20.8,30.6L20.7,29.4L20.7,27.0L20.6,25.9L20.6,24.4L20.5,21.6L20.6,19.9L20.6,19.8L20.4,19.7Z M24.4,19.7L24.3,19.8L24.3,24.1L24.4,25.3L24.4,26.9L24.4,28.9L24.4,30.1L24.5,33.1L24.5,49.4L24.5,50.8L24.5,51.8L24.6,54.5L24.6,58.5L24.7,64.5L24.8,74.6L24.9,76.8L24.9,81.3L24.9,83.3L24.9,85.7L25.0,87.0L25.0,92.1L25.1,94.8L25.0,97.6L25.1,98.2L25.1,100.7L25.1,103.0L25.1,103.8L25.2,107.7L25.2,109.2L25.2,109.3L25.3,109.4L31.6,109.4L31.7,109.3L31.8,107.9L31.8,99.3L31.7,97.9L31.6,91.1L31.7,89.1L31.5,82.7L31.6,81.7L31.5,79.7L31.4,73.5L31.5,71.6L31.4,66.7L31.4,63.1L31.3,41.0L31.1,26.6L31.1,26.0L31.1,25.6L31.1,19.8L31.0,19.7L30.9,19.7Z M42.5,19.5L36.9,19.6L34.8,19.5L34.7,19.6L34.6,19.7L34.6,22.2L34.6,24.1L34.6,25.2L34.7,27.0L34.7,38.2L34.8,47.5L34.8,56.0L34.8,59.1L34.9,59.9L34.9,63.1L34.9,64.0L34.9,65.4L35.0,70.5L35.0,71.6L35.0,73.5L35.0,77.6L35.1,81.1L35.1,83.4L35.2,87.7L35.2,95.7L35.3,104.1L35.3,108.8L35.4,109.2L35.5,109.3L43.6,109.3L43.7,109.3L43.8,109.1L43.8,108.5L43.7,108.0L43.7,104.2L43.6,101.1L43.6,95.9L43.6,91.7L43.6,81.7L43.5,78.8L43.5,69.8L43.5,68.4L43.5,65.9L43.4,63.3L43.5,62.3L43.4,61.3L43.4,58.7L43.3,55.2L43.4,54.5L43.3,51.0L43.3,50.7L43.3,45.9L43.3,41.0L43.1,36.1L43.1,29.4L43.0,26.2L43.0,19.7L42.9,19.6Z M46.6,19.4L46.5,19.5L46.4,19.6L46.4,24.8L46.5,32.3L46.5,39.7L46.5,42.2L46.5,43.6L46.6,47.3L46.6,51.0L46.6,53.2L46.6,57.4L46.7,59.5L46.7,61.9L46.7,62.7L46.7,63.1L46.8,66.3L46.8,71.8L46.8,73.8L46.8,83.2L46.9,88.2L46.9,91.3L46.9,94.6L46.9,96.5L47.0,101.2L47.0,108.9L47.1,109.1L50.4,109.1L50.7,109.1L53.1,109.1L57.3,109.1L57.4,109.1L57.5,109.0L57.4,103.2L57.4,99.8L57.3,98.8L57.3,93.1L57.2,91.9L57.2,86.2L57.2,82.8L57.2,75.9L57.1,66.6L57.2,65.1L57.1,61.0L57.1,38.6L57.0,32.2L57.0,19.6L56.9,19.4L56.8,19.4L55.4,19.4L51.0,19.4L47.6,19.5Z M119.3,18.5L115.4,18.5L114.4,18.6L112.3,18.6L111.9,18.6L109.7,18.7L109.4,18.7L108.7,18.7L107.8,18.8L106.1,18.8L105.3,18.9L104.2,19.0L102.9,19.1L102.1,19.3L99.2,19.6L97.2,20.0L96.9,20.0L95.8,20.3L95.2,20.4L95.1,20.5L93.8,20.8L92.4,21.2L92.1,21.2L89.3,22.2L88.3,22.6L86.7,23.2L85.6,23.7L85.4,23.8L84.1,24.5L83.2,24.8L81.5,25.8L80.8,26.1L79.7,26.9L78.9,27.4L78.4,27.8L77.7,28.2L74.5,30.7L73.4,31.7L72.4,32.7L69.6,35.5L69.3,35.9L68.9,36.4L68.2,37.3L67.7,38.0L67.5,38.2L67.3,38.5L66.7,39.2L66.5,39.6L65.4,41.1L65.2,41.5L65.0,41.9L64.9,42.1L64.2,43.2L62.9,45.6L62.6,46.5L62.2,47.2L62.0,47.8L61.6,48.6L61.5,49.1L61.3,49.3L61.3,49.6L60.8,50.7L60.8,50.9L60.6,51.5L60.6,51.6L60.1,53.0L60.0,53.4L59.9,53.6L59.7,54.5L59.6,54.9L59.4,55.7L59.3,56.7L59.1,56.9L58.8,58.7L58.8,59.4L58.7,59.8L58.7,60.1L58.5,61.2L58.5,62.3L58.4,62.7L58.4,65.4L58.6,67.3L58.6,68.0L58.6,68.4L58.7,69.7L58.9,70.5L59.0,71.0L59.1,71.9L59.4,72.9L59.9,75.0L60.1,75.6L60.3,76.3L60.4,76.6L60.9,78.3L61.4,79.4L61.6,79.9L61.8,80.4L62.2,81.6L62.5,82.0L62.6,82.3L63.1,83.4L63.5,84.3L63.9,84.9L64.2,85.5L64.9,86.5L65.0,86.9L65.3,87.3L65.8,87.9L65.9,88.2L66.7,89.4L68.7,91.9L69.7,93.0L70.3,93.9L70.8,94.3L70.9,94.5L71.6,95.2L72.1,95.6L73.5,97.0L74.0,97.4L74.6,98.0L74.7,98.1L75.0,98.4L77.0,99.9L77.8,100.5L79.6,101.7L79.9,101.9L81.1,102.6L82.4,103.3L82.8,103.6L83.5,103.8L84.2,104.3L85.3,104.7L85.5,104.9L86.1,105.1L86.1,105.1L86.5,105.2L86.8,105.3L87.0,105.4L87.2,105.5L88.0,105.8L88.5,106.0L89.0,106.2L89.2,106.3L90.0,106.5L90.2,106.6L90.5,106.7L90.7,106.8L91.2,106.9L91.5,107.0L91.7,107.0L92.4,107.3L93.1,107.4L93.9,107.7L94.3,107.7L94.9,107.9L95.8,108.1L96.5,108.3L96.8,108.3L96.9,108.4L97.6,108.4L98.1,108.6L99.0,108.7L100.1,108.9L101.0,108.9L102.5,109.2L104.1,109.2L104.7,109.3L105.6,109.4L106.7,109.5L107.9,109.6L110.8,109.5L111.4,109.6L113.0,109.6L114.2,109.7L119.5,109.5L119.7,109.4L119.7,109.3L119.8,108.9L119.8,103.5L119.8,99.7L119.7,99.6L119.4,99.6L110.2,99.6L105.2,99.3L104.4,99.1L103.8,99.1L103.3,99.0L101.9,98.9L100.3,98.6L99.9,98.6L99.2,98.4L98.7,98.4L97.3,98.0L97.1,97.9L96.4,97.8L95.5,97.6L94.7,97.4L94.1,97.2L93.1,96.9L92.4,96.6L92.2,96.6L91.9,96.5L91.1,96.3L88.2,94.9L86.3,93.9L86.2,93.8L86.0,93.7L85.0,93.1L84.9,93.0L83.5,92.1L82.6,91.4L82.0,91.0L80.8,89.9L80.5,89.8L80.2,89.4L79.3,88.6L78.5,87.8L78.3,87.6L77.3,86.6L76.4,85.5L76.0,84.9L75.4,84.2L75.1,83.7L74.4,82.8L73.6,81.4L73.0,80.5L72.0,78.6L71.7,77.7L71.5,77.5L71.2,76.7L71.0,76.1L70.8,75.5L70.7,75.2L70.6,75.0L70.4,74.6L70.4,74.3L70.1,73.7L70.0,73.1L69.9,73.0L69.8,72.3L69.6,71.5L69.5,70.9L69.3,70.3L69.3,70.2L69.2,70.1L69.0,69.1L69.0,68.8L68.9,68.0L68.8,67.1L68.7,66.5L68.6,65.0L68.6,62.0L68.8,60.3L68.9,59.4L69.0,58.8L69.1,57.8L69.3,56.9L69.4,56.2L69.5,55.9L69.6,55.5L70.5,52.8L70.9,51.9L71.3,50.9L71.5,50.7L71.6,50.5L71.7,50.3L71.7,50.1L72.0,49.7L72.1,49.4L72.2,49.2L72.4,48.8L72.6,48.6L72.7,48.3L72.9,48.0L73.2,47.5L73.5,47.0L74.1,46.0L74.4,45.5L74.6,45.3L75.1,44.4L75.7,43.7L76.4,43.0L77.2,41.9L78.6,40.5L78.7,40.2L79.8,39.3L81.1,38.2L81.5,37.9L83.2,36.5L85.6,35.1L86.5,34.6L86.6,34.5L87.6,34.0L87.8,33.8L88.2,33.7L89.2,33.1L89.4,33.0L89.7,32.9L89.8,32.9L90.0,32.7L90.2,32.7L90.4,32.5L90.6,32.5L90.8,32.4L91.9,32.0L92.1,31.9L93.0,31.6L93.8,31.3L94.3,31.1L94.6,31.0L94.7,31.0L95.3,30.9L96.7,30.5L96.8,30.4L97.3,30.4L98.0,30.2L98.2,30.1L98.7,30.0L100.1,29.7L100.7,29.7L101.4,29.5L101.8,29.5L102.0,29.4L103.6,29.2L104.5,29.1L105.0,29.0L105.7,29.0L106.1,28.9L107.0,28.9L107.2,28.8L108.7,28.8L109.7,28.6L111.1,28.6L111.7,28.6L112.7,28.6L116.0,28.5L119.3,28.5L119.4,28.3L119.5,26.0L119.5,25.0L119.5,22.4L119.5,18.8L119.4,18.6Z" fill="#000" fill-rule="evenodd"/>
</svg>