<svg xmlns="http://www.w3.org/2000/svg" viewBox="0 0 128 128" width="128" height="128">
  <path d="M118.4,57.9L117.5,55.2L116.6,53.4L116.4,53.1L116.2,52.5L115.8,52.1L114.6,50.0L113.2,48.4L112.2,47.3L109.2,45.0L104.9,42.7L101.9,41.9L99.6,41.5L76.8,41.8L75.6,41.7L75.2,41.8L67.3,50.0L64.6,53.1L62.8,54.7L62.5,55.2L61.3,56.3L57.5,60.4L54.0,63.8L53.6,63.9L53.4,63.7L53.3,63.4L53.3,43.3L53.2,42.4L52.8,42.1L41.5,42.1L29.7,42.3L25.5,42.2L24.8,42.4L22.9,42.3L10.0,42.5L9.5,42.8L9.4,43.3L9.2,72.0L9.3,74.1L9.1,81.2L9.2,86.2L9.6,86.5L10.5,86.6L52.8,86.5L53.2,86.2L53.4,84.9L53.3,64.8L53.8,64.6L58.1,68.8L60.5,71.4L65.8,76.8L67.2,78.3L67.8,78.7L68.8,79.8L75.2,86.2L75.5,86.5L94.4,86.7L99.8,86.2L100.8,85.9L101.0,85.8L103.2,85.3L105.7,84.4L107.4,83.5L108.1,83.1L108.5,82.9L109.6,82.0L110.1,81.8L112.5,79.7L113.8,78.3L115.2,76.5L115.7,75.5L116.2,74.9L116.8,73.5L117.2,73.0L117.4,72.1L118.0,70.6L118.4,69.0L119.0,66.1L119.1,63.1L118.8,60.0Z" fill="#000" fill-rule="evenodd"/>
</svg>