<svg xmlns="http://www.w3.org/2000/svg" viewBox="0 0 128 128" width="128" height="128">
  <path d="M9.7,22.4L9.7,26.0L9.5,29.1L9.6,33.9L9.4,37.9L9.4,59.4L9.6,61.7L9.6,80.9L9.4,83.9L9.5,89.6L9.3,91.5L9.3,104.7L9.6,105.1L13.9,105.2L39.2,105.1L50.5,105.3L50.8,105.0L50.9,92.5L51.2,92.1L51.6,92.1L53.3,94.5L53.9,95.5L54.7,96.4L56.0,98.5L57.1,99.8L58.0,101.4L59.2,102.8L60.8,105.5L61.5,106.1L68.0,106.4L90.1,106.2L90.4,106.1L91.5,104.8L93.7,101.4L94.6,100.3L97.4,96.3L98.6,94.7L99.0,94.0L100.3,92.3L101.1,90.9L101.5,90.4L101.5,90.3L104.5,86.3L104.6,85.9L105.1,85.4L105.7,84.4L107.5,82.1L107.8,81.4L108.6,80.4L109.1,79.5L109.7,78.9L110.9,77.0L111.6,76.2L113.3,73.6L113.7,73.2L115.6,70.3L119.0,65.5L119.0,65.1L118.7,64.5L116.5,61.3L115.0,58.8L114.1,57.8L112.1,54.7L111.4,53.9L111.1,53.3L110.5,52.6L110.3,52.2L108.7,49.9L107.6,48.6L103.5,42.6L103.0,42.0L102.3,40.8L101.2,39.5L100.6,38.4L98.6,35.7L98.2,35.0L97.5,34.2L96.4,32.4L95.6,31.5L95.5,31.0L95.0,30.6L94.1,29.0L91.9,26.0L91.0,24.5L89.9,23.4L89.1,23.3L71.6,23.3L61.0,22.9L60.2,23.4L59.9,24.1L59.0,25.3L58.6,26.1L54.6,31.8L54.5,32.1L53.7,33.0L53.7,33.2L53.3,33.5L51.6,36.2L51.0,36.4L50.7,36.0L50.6,35.3L50.7,23.3L50.6,23.0L50.2,22.9L47.3,22.6L33.1,22.4L27.5,22.4L25.9,22.3L14.4,22.2L11.4,21.9L10.2,21.9L9.8,22.1Z M34.1,67.2L34.4,67.3L35.0,68.1L36.4,70.1L37.6,71.7L37.8,72.1L39.6,74.4L40.5,75.9L41.0,76.4L41.3,77.1L42.3,78.4L42.9,79.4L44.3,81.1L45.1,82.6L46.2,84.0L47.0,85.3L47.0,91.5L46.7,97.0L46.8,101.1L46.7,101.4L46.2,101.8L34.5,101.6L34.1,101.5L33.8,101.2L33.9,89.6L33.7,83.0L33.7,67.3Z M88.0,28.0L88.6,28.0L89.0,28.5L89.3,29.0L89.7,29.5L91.0,31.6L92.3,33.3L93.8,35.6L94.2,36.0L94.8,37.1L96.8,39.8L97.5,41.1L98.0,41.5L98.6,42.6L99.6,43.9L100.6,45.6L101.3,46.3L101.6,47.0L103.4,49.4L103.5,49.8L104.8,51.4L105.7,52.9L106.1,53.3L107.6,55.7L108.1,56.1L108.2,56.5L109.3,57.8L109.9,59.2L110.7,60.0L114.0,64.8L113.9,65.8L111.1,70.1L108.6,73.1L105.3,77.9L105.3,78.0L102.4,81.9L102.1,82.5L100.9,84.4L99.0,86.7L97.5,89.2L97.0,89.7L94.5,93.5L93.9,94.3L92.6,96.2L92.0,97.0L91.2,98.2L89.1,101.0L88.6,101.0L88.2,100.6L85.7,97.2L85.5,96.8L83.9,94.8L83.5,94.0L81.9,91.9L81.1,90.4L79.4,88.3L78.4,86.4L77.9,86.0L73.3,79.1L72.1,77.7L69.4,73.8L68.3,72.3L66.7,69.8L65.5,68.3L64.9,67.1L64.2,66.3L63.2,64.8L63.3,64.2L64.2,62.7L64.8,62.0L65.4,60.9L66.6,59.4L66.8,58.8L67.8,57.7L68.1,56.9L69.1,55.7L69.8,54.4L71.5,52.1L74.0,48.1L75.2,46.6L76.1,45.1L76.5,44.6L77.4,43.1L78.5,41.8L80.0,39.4L81.0,38.1L81.2,37.4L82.2,36.4L86.4,30.2Z M46.3,26.2L46.7,26.5L46.9,26.9L46.9,39.2L46.8,43.0L46.6,43.5L45.1,45.8L45.1,46.0L41.8,50.4L41.0,51.8L39.5,53.7L38.5,55.2L37.2,56.8L37.0,57.2L36.4,58.1L35.3,59.8L34.3,61.0L34.0,61.0L33.8,60.7L33.8,52.6L33.6,47.1L33.6,26.9L34.0,26.4L34.7,26.2L38.4,26.2L40.6,26.0Z" fill="#000" fill-rule="evenodd"/>
</svg>