<svg xmlns="http://www.w3.org/2000/svg" viewBox="0 0 128 128" width="128" height="128">
  <path d="M11.5,9.7L11.1,10.1L11.0,10.7L10.9,30.4L10.7,32.0L10.7,76.8L10.4,82.1L10.5,86.4L10.3,90.3L10.5,91.2L10.5,97.9L10.2,105.5L10.4,107.5L10.3,114.5L10.6,117.8L11.1,118.1L14.8,118.2L16.1,118.5L30.4,118.5L34.2,118.7L40.6,118.5L44.3,118.7L61.1,118.5L87.5,118.6L93.2,118.4L97.6,118.6L101.7,118.5L104.9,118.6L105.3,118.8L105.9,118.8L107.3,118.4L116.1,118.4L116.4,118.1L116.6,115.9L116.8,115.5L116.8,99.7L117.0,93.9L117.0,88.2L117.2,85.7L117.2,60.2L117.5,50.3L117.4,45.4L117.6,35.2L117.8,32.8L118.0,21.4L118.0,11.5L117.8,10.5L117.4,10.2L116.9,10.0L114.0,10.0L112.2,9.7L106.9,9.6L68.9,9.6L66.6,9.4L65.1,9.6L62.3,9.5L60.7,9.7L34.2,9.6L30.5,9.4L28.0,9.4L26.0,9.6L20.2,9.4L13.1,9.4Z M103.5,17.9L106.4,20.7L108.0,22.9L109.7,25.7L110.6,27.5L111.4,29.9L111.8,32.0L112.0,32.2L112.5,35.7L112.4,40.1L111.7,43.6L110.7,46.8L108.3,51.3L105.9,54.4L103.6,56.6L101.0,58.7L98.2,60.2L94.6,61.6L91.9,62.1L86.8,62.1L81.8,62.0L58.0,61.8L57.3,62.3L57.3,64.4L57.3,64.7L57.8,65.1L81.8,65.0L92.0,65.4L92.8,65.7L94.4,65.9L97.9,67.4L98.8,67.8L99.3,68.3L100.6,69.0L102.9,70.8L104.7,72.5L106.1,74.3L107.6,76.6L107.7,77.0L108.1,77.4L108.5,78.3L109.3,79.7L110.9,84.5L111.4,89.7L111.0,94.4L110.4,97.0L110.0,97.8L109.3,100.1L108.4,101.5L108.3,102.0L107.0,104.1L107.0,104.3L105.1,106.6L102.5,109.2L99.4,111.5L95.7,113.3L93.2,114.1L89.2,115.0L84.0,114.9L82.2,114.7L79.5,114.1L76.5,113.1L73.6,111.6L71.5,110.2L69.2,108.3L68.8,107.7L67.4,106.4L66.9,105.6L66.5,105.2L65.4,103.7L65.0,102.5L64.6,102.1L63.8,100.5L63.5,100.2L63.0,98.8L62.1,95.9L61.5,92.0L61.6,87.2L62.7,82.4L63.2,80.8L63.4,80.6L63.4,80.3L64.7,77.6L65.6,76.1L67.1,74.1L67.8,73.6L68.3,73.5L68.4,72.7L70.4,70.7L70.4,70.3L70.1,70.0L66.6,69.8L59.0,69.8L57.4,70.0L57.1,70.4L57.1,71.4L56.9,72.2L56.7,106.3L56.5,108.2L56.5,110.7L56.2,112.5L55.8,112.9L55.4,113.1L53.1,113.2L21.6,113.2L21.0,113.0L20.7,112.3L20.9,95.5L20.9,78.7L21.1,69.9L20.9,69.4L20.9,68.0L21.1,67.6L21.0,59.7L21.2,53.7L21.0,46.7L21.2,37.1L21.1,25.1L21.3,18.1L21.2,16.9L21.4,15.8L21.8,15.5L22.3,15.4L36.3,15.4L37.2,15.2L40.5,15.3L53.6,15.1L56.9,15.2L57.3,15.9L57.3,17.8L57.4,18.7L57.3,34.2L57.3,56.3L57.4,57.0L58.3,57.3L70.2,57.3L70.6,57.0L70.6,56.4L69.2,55.2L67.6,53.4L65.5,50.3L65.3,49.6L63.8,46.6L63.6,45.6L63.1,44.6L62.4,40.7L62.3,35.7L62.8,32.2L63.1,31.3L63.2,30.5L65.0,25.8L67.2,22.4L68.7,20.6L70.7,18.4L74.3,15.9L74.8,15.7L75.4,15.2L76.5,14.6L77.7,14.2L78.7,13.7L82.6,12.5L86.9,12.1L89.7,12.1L92.5,12.5L96.5,13.8L99.5,15.1L101.5,16.3L102.5,17.2Z" fill="#000" fill-rule="evenodd"/>
</svg>