<svg xmlns="http://www.w3.org/2000/svg" viewBox="0 0 128 128" width="128" height="128">
  <path d="M29.3,13.6L27.1,15.3L25.6,16.8L24.0,18.5L21.9,21.6L20.1,25.1L19.0,28.5L18.5,31.4L18.2,35.7L18.6,37.6L18.6,38.3L18.8,39.7L19.5,42.2L20.1,43.3L20.6,45.0L22.5,48.3L24.3,50.8L26.6,53.1L28.6,54.8L32.8,57.3L35.6,58.3L35.9,58.6L35.8,58.8L19.7,58.8L18.7,58.9L18.2,59.5L18.2,67.1L18.3,73.2L18.2,75.4L18.5,80.3L18.4,87.2L18.6,95.2L18.5,103.2L18.8,113.8L18.7,117.7L18.9,118.5L19.5,118.9L21.3,118.9L22.0,118.9L36.5,119.0L37.2,118.8L37.4,118.3L37.4,94.7L37.2,85.5L37.3,84.3L37.5,84.1L38.0,84.2L40.6,86.6L42.3,88.4L42.9,88.8L44.2,90.2L47.6,93.3L49.9,95.7L50.5,96.1L54.2,99.9L56.3,101.8L65.4,110.9L67.7,112.9L70.1,114.7L72.9,116.3L74.7,117.1L77.1,117.8L80.2,118.4L84.1,118.7L87.6,118.6L92.0,117.9L94.9,117.0L97.0,116.1L100.0,114.6L102.3,113.2L103.9,111.8L106.1,109.6L107.9,107.1L109.4,104.3L109.5,103.7L109.8,103.1L110.1,101.6L109.7,101.5L109.5,101.7L108.5,103.9L107.9,104.4L107.3,105.4L106.1,106.7L104.2,108.1L101.7,109.4L100.2,109.8L98.9,110.0L95.8,109.9L93.3,109.3L90.9,108.2L88.0,106.2L82.2,101.0L68.3,87.2L64.3,83.4L60.1,79.1L49.1,68.5L48.7,67.9L48.8,67.2L49.4,66.4L53.0,62.5L54.6,60.6L55.9,59.3L56.1,59.0L58.4,56.5L58.6,56.1L59.7,54.9L60.3,54.1L63.6,50.3L64.6,49.0L66.1,46.3L66.4,46.0L67.7,42.9L68.3,40.8L68.9,37.1L69.0,33.3L68.9,31.3L68.2,28.0L67.9,27.5L67.5,25.9L66.3,23.2L66.0,23.0L65.3,21.5L65.0,21.2L64.6,20.3L62.4,17.6L61.2,16.4L59.1,14.6L57.5,13.6L57.2,13.3L56.1,12.7L55.9,12.5L52.4,10.9L50.6,10.3L48.3,9.7L45.4,9.3L41.8,9.3L38.4,9.7L34.7,10.8L31.7,12.1L31.5,12.4L30.8,12.7Z M46.9,60.4L48.2,61.6L48.6,62.5L48.6,63.6L48.1,65.1L46.6,67.2L45.7,68.1L39.6,75.1L38.0,76.8L37.6,76.9L37.3,76.7L37.2,75.9L37.2,59.2L37.4,59.0L38.3,59.0L39.0,59.2L40.4,59.4L42.5,59.5L43.7,59.7L45.6,59.9Z" fill="#000" fill-rule="evenodd"/>
</svg>