<svg xmlns="http://www.w3.org/2000/svg" viewBox="0 0 128 128" width="128" height="128">
  <path d="M114.9,12.2L113.2,12.0L96.5,12.2L96.0,12.0L95.2,12.0L94.3,12.2L88.9,12.2L88.0,12.5L61.2,39.5L60.8,40.1L59.6,41.1L58.5,42.4L36.9,64.3L33.5,68.4L32.9,69.3L32.9,69.5L32.4,69.9L32.0,69.8L32.1,65.9L32.3,64.7L32.1,42.2L31.8,41.8L14.6,41.8L13.4,41.9L13.1,42.2L12.9,42.7L12.9,45.7L13.1,50.3L13.3,75.2L13.7,87.5L13.6,89.4L13.8,95.2L13.8,101.4L14.0,104.3L14.2,113.9L14.4,114.2L14.7,114.2L17.7,111.2L56.1,72.1L56.8,71.6L57.1,71.6L57.8,72.0L70.3,84.7L73.5,87.7L88.9,103.1L95.3,109.4L96.9,111.2L99.1,113.2L104.2,118.3L104.7,118.3L105.5,117.7L118.8,104.8L118.9,104.1L118.7,103.7L117.7,102.6L111.8,97.0L108.9,94.0L107.6,92.9L87.1,72.7L74.8,60.8L71.6,57.6L71.4,57.3L71.5,56.6L77.0,51.0L80.0,48.1L81.0,46.9L100.9,27.0L101.4,26.2L105.5,22.3L106.5,21.0L115.0,12.6Z M19.8,10.1L17.4,10.8L15.5,11.8L14.2,12.8L12.5,14.5L11.6,15.7L10.2,18.2L9.6,20.3L9.3,22.0L9.4,25.0L10.2,28.2L11.2,30.3L12.1,31.5L14.8,34.2L16.4,35.2L18.5,36.0L19.9,36.4L21.7,36.5L24.6,36.4L26.7,35.8L29.1,34.6L31.1,33.1L32.9,31.0L34.3,28.4L35.0,26.1L35.3,23.4L35.0,20.2L34.0,17.4L32.9,15.4L30.9,13.3L29.1,11.9L26.4,10.6L25.3,10.4L24.6,10.1Z" fill="#000" fill-rule="evenodd"/>
</svg>