<svg xmlns="http://www.w3.org/2000/svg" viewBox="0 0 128 128" width="128" height="128">
  <path d="M36.7,18.2L36.8,18.8L37.6,20.3L37.7,20.7L38.1,21.3L38.8,23.1L39.6,24.6L40.3,26.4L40.6,26.7L41.2,28.0L41.3,28.6L42.2,30.4L43.2,33.4L43.3,34.2L43.6,34.7L43.9,36.6L44.1,37.3L45.0,43.1L45.0,49.9L44.7,51.9L44.7,53.0L44.2,54.8L44.0,56.2L43.1,59.6L42.2,61.9L42.2,62.2L40.7,65.5L39.3,68.3L39.0,69.1L37.8,71.0L37.0,72.7L36.2,73.7L35.4,75.5L34.1,77.7L33.4,79.4L32.1,81.8L32.1,82.1L31.7,82.6L30.5,85.9L30.4,86.7L30.1,87.4L29.8,89.0L29.6,89.3L29.3,91.6L29.2,92.1L29.0,94.5L29.0,97.8L29.2,99.4L29.3,99.8L29.6,101.9L29.8,102.2L30.2,104.0L30.3,104.2L30.4,104.9L31.4,106.7L31.6,107.7L32.6,109.5L33.5,110.3L34.1,110.3L34.6,109.8L34.8,109.3L35.7,107.8L36.2,106.3L36.5,106.1L36.8,105.2L37.2,104.5L37.8,102.9L38.1,102.7L38.6,101.2L39.2,100.3L39.3,99.8L40.2,98.2L41.3,95.4L41.4,94.8L42.1,93.5L42.4,92.5L43.2,90.7L44.3,86.8L44.7,86.1L44.9,85.3L45.7,83.2L45.9,81.9L46.3,81.0L46.4,80.2L47.2,78.2L47.4,77.1L47.8,76.0L48.0,74.7L49.2,70.6L49.5,68.8L49.8,67.9L50.0,66.7L50.6,65.5L54.2,61.7L57.2,58.7L58.3,57.8L59.4,57.1L60.1,57.1L60.7,57.4L61.3,58.1L63.9,61.7L65.2,63.1L65.7,64.0L67.1,65.6L68.0,66.8L75.1,74.4L83.0,82.0L84.2,82.8L86.3,84.7L87.3,85.3L90.2,87.9L90.8,88.1L92.3,89.4L93.8,90.3L96.6,92.5L98.3,93.6L98.8,93.7L100.7,95.0L102.1,95.7L102.8,95.6L102.8,95.0L102.1,93.7L101.9,92.9L101.1,91.6L100.9,90.9L100.6,90.5L98.8,86.3L98.6,85.9L98.4,85.0L97.9,84.2L97.8,83.6L96.3,79.8L96.0,78.5L95.5,77.5L95.3,76.2L94.9,75.4L94.7,74.3L94.4,73.9L93.2,69.5L93.1,68.6L92.7,67.4L92.7,66.4L92.0,63.1L91.8,61.3L91.4,59.5L91.3,57.8L90.9,56.0L90.6,49.7L90.7,43.3L91.3,38.9L91.4,36.7L91.9,34.5L91.9,33.3L91.6,33.1L90.8,33.2L87.6,34.9L87.2,35.0L85.8,35.7L82.5,37.7L80.5,38.8L78.6,40.1L77.6,40.6L76.5,41.4L75.8,41.8L73.3,43.7L71.7,44.6L70.3,45.7L68.5,46.9L68.3,47.2L64.5,50.2L62.6,51.9L58.9,54.9L56.5,57.3L54.8,58.7L53.1,60.5L52.1,60.8L51.5,60.3L51.4,59.9L51.7,52.6L51.7,49.7L51.5,49.1L51.4,46.9L50.9,44.4L50.9,42.9L50.3,40.5L50.0,39.9L49.9,38.8L48.8,35.4L48.0,33.7L47.7,32.7L46.4,30.2L46.3,29.7L45.9,29.2L45.7,28.6L45.0,27.6L44.8,27.1L44.0,26.1L43.1,24.6L40.2,20.9L37.2,18.2Z M110.7,16.0L108.6,14.5L106.2,13.5L102.9,12.6L101.8,12.6L101.5,12.5L99.7,12.3L98.9,12.0L94.1,11.6L91.7,11.2L89.5,11.2L88.6,10.9L87.4,10.9L86.3,10.7L85.6,10.4L78.7,9.9L77.0,9.6L68.0,9.3L57.9,9.4L57.0,9.6L49.7,10.0L48.6,10.3L44.0,10.5L43.0,10.8L41.5,10.9L35.6,11.9L34.2,12.0L31.9,12.5L31.4,12.7L30.6,12.7L28.3,13.3L27.3,13.4L24.6,14.0L24.0,14.3L23.5,14.3L22.4,14.7L21.9,14.7L21.3,15.0L19.9,15.5L18.0,16.7L16.6,18.1L15.9,19.0L15.4,20.0L14.1,23.3L13.6,25.3L13.1,26.9L13.0,28.9L12.6,30.6L12.4,32.6L12.0,34.0L11.9,36.7L11.5,38.9L11.5,40.3L11.0,43.1L10.9,46.0L10.6,47.7L10.7,49.7L10.4,52.6L10.4,54.7L10.2,55.8L10.3,59.5L10.1,61.6L10.1,71.0L10.4,78.0L10.9,83.4L11.1,87.0L11.4,88.3L11.6,91.1L12.0,93.6L12.0,94.7L12.3,95.6L12.8,98.6L13.0,99.0L13.2,101.6L14.1,104.4L14.2,105.3L15.3,108.6L16.3,110.5L17.7,112.2L18.5,112.9L19.7,113.6L21.6,114.4L22.6,114.6L23.4,115.0L27.4,115.7L28.1,116.0L29.6,116.1L30.7,116.5L33.7,116.7L34.7,117.0L36.3,117.1L38.8,117.6L40.2,117.6L42.2,117.9L43.7,117.9L47.1,118.4L49.2,118.4L51.7,118.7L55.3,118.8L56.1,118.9L68.6,118.9L71.4,118.7L77.6,118.5L79.5,118.3L80.0,118.1L81.1,118.1L84.4,117.7L85.4,117.7L87.2,117.3L90.3,117.0L92.6,116.6L94.5,116.4L101.1,115.0L102.3,114.9L103.7,114.4L104.9,114.3L106.0,114.1L107.7,113.4L109.0,112.8L109.7,112.1L110.3,111.9L111.7,110.4L112.7,108.8L113.4,107.4L114.1,104.6L114.2,103.7L114.7,102.6L114.9,100.7L115.2,99.9L115.3,98.2L115.6,96.1L115.8,95.7L116.0,93.4L116.2,92.6L116.3,91.2L116.6,90.3L116.6,89.1L116.9,87.9L116.9,86.8L117.2,84.2L117.4,80.0L117.8,76.1L117.9,72.5L118.1,71.6L118.1,55.0L117.9,54.2L117.7,49.1L117.4,47.2L117.3,45.0L116.8,39.8L116.5,38.5L116.2,35.4L115.8,33.3L115.5,30.9L115.1,29.3L115.1,28.6L114.9,28.4L114.8,26.6L114.5,25.9L114.2,23.7L113.8,22.9L113.7,22.0L113.3,20.6L112.8,19.6L112.7,19.0L111.6,17.2Z M109.6,17.2L110.8,18.5L111.6,20.1L111.8,20.9L112.1,21.4L112.3,22.6L112.6,23.4L112.9,25.5L113.7,28.4L113.7,29.7L114.2,31.7L114.6,35.2L115.0,37.3L115.5,41.0L115.5,42.7L115.8,43.9L116.0,46.9L116.3,49.6L116.3,51.6L116.6,53.7L116.6,56.3L116.8,57.3L116.8,68.6L116.5,72.6L116.5,74.9L116.1,80.0L115.6,84.0L115.2,88.9L114.9,90.1L114.7,93.4L114.3,94.8L114.1,96.6L113.7,97.9L113.2,101.9L112.8,102.9L112.6,104.6L112.3,105.1L112.1,106.4L111.7,107.0L111.1,108.6L110.2,109.7L108.1,111.4L107.4,111.6L106.1,112.3L102.1,113.5L98.6,114.1L97.3,114.4L96.7,114.4L94.8,115.0L92.8,115.2L91.2,115.5L90.4,115.5L85.6,116.4L80.8,116.7L80.4,116.9L76.2,117.2L75.2,117.1L74.7,117.3L70.2,117.6L68.7,117.5L64.0,117.7L57.4,117.6L53.7,117.3L49.1,117.2L48.2,117.0L47.1,117.0L46.6,116.8L44.2,116.7L43.5,116.6L41.6,116.6L37.4,115.8L35.1,115.6L32.1,115.0L31.0,115.0L29.2,114.4L27.5,114.3L26.0,113.9L24.8,113.7L20.9,112.4L19.8,111.8L18.7,110.8L17.3,109.2L16.4,107.2L16.1,105.8L15.7,104.8L15.5,103.5L15.2,102.5L15.0,100.4L14.6,99.4L14.1,95.5L13.8,94.7L13.6,92.6L13.3,91.8L13.1,90.3L13.1,88.7L12.8,87.8L12.7,85.8L12.4,84.4L12.4,83.3L12.1,81.6L12.1,79.2L11.8,75.4L11.7,71.3L11.5,69.9L11.5,61.5L11.7,57.5L11.6,55.2L11.8,54.4L11.8,51.4L12.1,48.5L12.2,45.7L12.5,44.7L12.7,40.7L13.2,38.1L13.2,36.0L13.6,34.2L13.7,32.2L14.1,30.8L14.3,28.6L15.3,24.2L15.4,23.2L16.1,21.7L16.3,21.0L16.6,20.7L17.2,19.4L18.9,17.6L19.7,17.1L21.2,16.4L21.8,16.0L27.6,14.6L29.9,14.2L31.4,13.7L33.4,13.6L37.2,12.9L37.7,12.7L39.4,12.6L39.9,12.5L42.7,12.2L43.1,12.0L45.1,11.7L46.4,11.7L47.2,11.4L48.9,11.4L49.7,11.2L52.0,11.2L53.8,10.9L56.8,10.9L57.4,10.7L62.3,10.4L67.6,10.3L73.6,10.4L81.1,10.8L81.8,11.0L85.5,11.3L88.2,11.7L91.2,11.9L92.0,12.2L95.1,12.5L95.5,12.6L98.5,13.0L99.7,13.4L100.3,13.4L101.5,13.7L103.5,14.0L104.6,14.5L105.8,14.8L107.7,15.6Z" fill="#000" fill-rule="evenodd"/>
</svg>