<svg xmlns="http://www.w3.org/2000/svg" viewBox="0 0 128 128" width="128" height="128">
  <path d="M105.2,50.1L103.6,51.5L103.4,51.9L91.7,63.7L91.6,64.3L91.7,64.6L93.5,66.2L97.0,69.7L97.7,70.3L105.3,77.8L105.6,77.8L107.7,75.8L108.1,75.2L119.1,63.8L119.1,63.4L112.7,56.9L111.2,55.5L105.6,50.1Z M14.9,45.8L14.5,46.2L14.5,46.3L13.7,47.4L13.1,47.4L13.3,48.2L13.0,48.6L12.6,49.6L12.2,50.2L11.6,51.9L11.4,52.2L10.1,56.3L9.6,58.8L9.6,59.5L9.3,60.6L9.1,63.8L9.1,66.2L9.2,68.5L9.7,71.5L10.5,75.0L10.8,75.6L10.9,76.1L11.7,78.4L12.1,78.9L12.1,79.3L12.9,80.8L13.0,81.1L14.3,83.2L14.8,84.1L15.3,84.7L15.6,84.4L15.6,78.9L15.5,75.8L15.5,70.0L15.3,66.3L15.3,53.6L15.1,53.0L15.1,46.2Z M97.7,42.7L93.0,47.3L92.0,48.5L78.5,62.2L78.2,62.6L76.7,64.1L76.7,64.5L97.8,85.4L98.3,85.4L101.4,82.2L101.5,81.7L84.2,64.5L84.2,64.0L101.3,46.4L101.2,45.8L99.3,43.8L98.1,42.8Z M25.1,35.5L24.6,35.8L24.2,36.1L23.6,36.4L22.8,37.1L22.4,37.3L20.6,38.8L20.3,39.4L20.4,47.3L20.6,49.5L20.5,51.7L20.7,56.8L20.9,77.1L21.0,79.7L21.0,90.4L21.2,91.2L21.7,91.8L24.9,94.1L25.8,94.7L26.2,94.7L26.4,94.3L26.3,84.4L26.2,78.7L26.2,69.4L26.0,60.8L26.0,54.5L25.8,51.9L25.9,50.4L25.7,49.0L25.8,47.4L25.6,43.2L25.6,36.2L25.6,35.7L25.4,35.5Z M25.6,85.1L25.8,85.2L25.7,85.4L25.5,85.4Z M90.1,35.2L82.7,42.7L82.4,43.2L81.0,44.5L75.7,50.1L62.7,63.4L61.9,64.4L61.9,64.8L66.7,69.7L72.8,75.6L87.8,90.4L90.5,92.9L90.8,93.0L91.1,92.9L94.3,89.6L94.9,88.9L94.8,88.4L85.2,78.9L80.2,74.2L77.2,71.1L73.6,67.7L70.6,64.6L70.6,64.3L71.3,63.3L84.2,50.2L84.4,49.8L94.2,39.7L94.3,39.0L90.6,35.4Z M35.3,31.2L32.8,31.8L32.2,32.1L31.7,32.2L30.6,32.6L29.9,33.1L29.9,33.5L30.1,45.3L30.0,46.9L30.3,51.6L30.4,68.6L30.6,69.9L30.5,75.0L30.7,81.7L30.7,93.6L30.8,96.6L31.0,97.1L33.6,98.1L36.2,98.7L36.9,98.7L37.1,98.4L37.0,77.2L36.8,75.2L36.8,64.9L36.7,62.9L36.7,60.7L36.6,58.2L36.7,57.0L36.3,42.9L36.4,41.4L36.2,35.4L36.3,32.7L36.2,31.3L36.0,31.2Z M83.1,28.0L82.5,28.0L81.7,28.7L50.9,60.6L47.4,64.0L47.1,64.0L46.9,63.7L46.8,62.4L46.8,55.6L46.7,54.2L46.6,50.8L46.7,48.7L46.5,46.2L46.5,38.3L46.3,36.0L46.4,34.5L46.3,30.5L45.4,30.2L41.8,30.1L39.2,30.4L38.8,30.7L38.7,34.4L38.9,43.5L38.8,46.4L39.0,47.4L39.2,66.8L39.4,68.3L39.3,69.4L39.5,74.1L39.5,80.8L39.8,93.2L39.7,94.6L39.9,96.2L39.9,98.9L40.2,99.3L41.4,99.4L45.7,99.4L47.0,99.3L47.3,99.0L47.4,98.8L47.2,82.7L47.0,76.0L47.0,74.4L46.9,67.6L47.0,65.4L47.1,65.3L47.6,65.4L52.0,69.7L70.1,87.6L81.2,98.3L83.3,100.4L83.8,100.4L84.0,100.2L88.5,95.4L88.6,94.9L77.6,84.1L72.7,79.2L72.0,78.6L67.4,74.0L61.5,68.3L58.2,64.9L58.2,64.4L59.9,62.6L76.0,45.9L78.2,43.5L86.0,35.4L87.3,34.2L87.9,33.4L88.0,32.9Z" fill="#000" fill-rule="evenodd"/>
</svg>