<svg xmlns="http://www.w3.org/2000/svg" viewBox="0 0 128 128" width="128" height="128">
  <path d="M36.0,42.8L32.5,42.7L32.0,42.8L16.9,43.3L13.0,43.6L11.0,43.6L9.9,43.8L9.5,44.0L9.4,45.5L9.7,50.6L9.8,55.8L10.1,56.3L11.4,56.3L12.9,56.2L14.9,56.3L22.8,56.0L23.7,56.1L24.2,56.3L24.4,56.5L24.5,57.0L24.8,63.1L24.7,64.8L24.9,65.5L24.9,67.7L24.9,74.8L24.3,75.4L22.8,75.6L12.8,75.7L11.0,75.9L10.5,76.2L10.3,78.0L10.5,87.4L11.0,88.0L18.6,88.1L22.7,88.0L32.8,88.0L36.6,87.9L37.2,87.8L37.6,87.5L37.4,77.8L37.2,75.8L37.3,74.5L37.2,72.9L37.0,63.5L36.8,62.9L36.8,59.2L36.7,57.8L36.4,45.3L36.3,44.3L36.3,43.3Z M117.2,40.0L108.1,40.2L107.5,40.4L104.5,40.4L99.5,40.6L95.0,40.6L92.8,40.8L90.0,40.8L88.7,40.9L85.8,40.8L83.7,41.1L83.3,41.2L82.9,41.7L80.9,45.3L80.1,46.5L80.0,46.8L79.7,47.2L79.6,47.5L79.3,47.9L77.9,50.5L77.4,51.1L77.3,51.6L76.9,51.9L76.8,52.5L75.7,54.0L74.5,56.3L73.9,57.1L71.5,61.4L70.4,63.0L69.9,63.9L69.8,64.4L69.9,64.7L70.7,65.8L72.3,68.3L74.7,71.6L75.1,72.3L75.5,72.7L76.1,73.7L76.5,74.1L76.9,74.8L77.3,75.2L77.8,76.2L78.6,77.2L79.3,78.5L79.9,79.1L81.7,82.0L82.2,82.5L82.4,82.9L83.6,84.5L84.1,85.4L84.9,86.2L91.7,86.2L99.1,86.0L100.7,85.8L102.3,85.9L104.0,85.7L107.1,85.7L108.0,85.6L111.9,85.6L113.0,85.4L114.2,85.5L117.5,85.3L118.2,85.2L118.6,84.9L118.6,74.6L118.6,73.3L118.2,72.8L117.9,72.6L116.7,72.6L115.6,72.8L113.4,72.7L112.8,72.9L104.7,73.0L104.1,73.2L102.9,73.3L99.2,73.2L95.6,73.4L92.1,73.4L91.6,73.2L91.2,72.9L89.4,70.1L87.7,68.1L85.4,64.2L85.4,63.4L85.7,62.7L86.6,61.4L87.2,60.2L88.7,57.9L89.2,56.8L89.6,56.3L89.9,55.7L90.7,54.6L91.3,54.0L92.1,53.9L107.0,53.5L107.9,53.4L113.4,53.4L115.9,53.1L117.6,53.1L117.9,52.8L118.0,52.5L117.8,48.4L117.7,40.9L117.5,40.4Z M117.0,25.6L116.5,25.3L115.6,25.2L113.4,25.3L110.8,25.3L109.8,25.5L102.1,25.7L101.1,25.8L97.4,25.8L93.4,26.1L89.7,26.1L88.5,26.2L81.9,26.3L81.0,26.5L79.7,26.4L78.2,26.5L75.9,26.5L74.5,26.5L74.1,26.7L72.9,28.5L72.1,30.0L71.3,31.2L70.6,32.7L69.3,34.8L68.5,36.3L67.9,37.0L67.1,38.5L66.4,39.6L66.3,39.9L65.1,41.8L64.9,42.4L63.3,44.9L63.0,45.5L62.0,47.1L61.8,47.8L61.0,48.9L59.9,51.0L58.8,52.7L58.2,53.9L57.6,54.7L55.6,58.3L53.5,61.7L53.5,62.0L52.3,63.4L52.0,63.4L51.8,63.1L51.6,61.8L51.5,53.6L51.3,52.9L51.1,45.8L50.8,40.7L50.8,36.5L50.6,33.4L50.6,29.5L50.5,28.0L50.3,27.7L49.7,27.6L47.9,27.7L45.8,27.7L44.7,27.9L42.5,27.9L41.3,28.1L36.1,28.1L35.2,28.3L30.0,28.4L29.2,28.5L25.3,28.5L24.5,28.7L15.2,29.0L13.1,29.2L11.1,29.2L9.7,29.4L9.2,29.8L9.1,30.6L9.1,35.3L9.3,36.6L9.2,40.2L9.4,40.8L9.4,41.4L9.7,41.6L10.6,41.7L11.6,41.6L16.5,41.5L18.5,41.3L19.5,41.4L20.1,41.2L25.5,41.2L27.7,40.9L31.2,40.9L35.9,40.6L38.0,40.7L38.4,41.0L38.6,41.5L38.8,44.0L38.8,51.1L39.2,58.2L39.2,65.5L39.4,66.3L39.5,72.1L39.7,77.6L39.6,79.4L39.8,80.8L39.9,84.7L40.0,85.9L40.0,89.3L39.6,89.6L39.2,89.8L33.7,90.0L32.7,89.9L30.5,90.0L20.7,90.0L10.9,90.3L10.6,90.7L10.6,92.4L10.8,94.8L10.8,99.9L11.0,102.5L11.4,102.9L12.0,103.0L22.5,103.0L48.1,102.7L48.7,102.5L51.5,102.6L52.7,102.4L52.9,101.9L52.9,98.6L52.7,93.9L52.6,92.8L52.7,91.8L52.5,90.0L52.5,86.6L52.3,82.0L52.3,81.2L52.2,79.2L52.3,77.1L52.1,76.2L51.9,70.6L51.9,66.7L52.1,66.6L52.5,66.6L54.3,68.7L55.4,70.5L56.5,71.9L57.3,73.3L58.6,74.9L58.9,75.6L59.4,76.2L60.2,77.5L60.8,78.2L61.2,78.9L62.2,80.3L62.4,80.7L63.3,81.7L64.5,83.7L66.2,85.9L67.4,87.8L67.9,88.4L68.6,89.7L69.9,91.2L70.8,92.8L72.5,95.1L72.5,95.2L73.2,96.0L73.9,97.2L74.3,97.6L74.8,98.5L76.5,100.7L77.3,101.5L77.8,101.6L86.5,101.5L100.4,100.8L107.2,100.7L110.4,100.5L118.2,100.3L118.7,100.2L119.1,99.7L119.1,95.3L119.0,88.6L118.9,87.9L118.6,87.4L113.4,87.4L112.1,87.6L102.3,87.8L101.2,88.0L93.2,88.1L91.9,88.3L89.0,88.3L86.3,88.4L84.3,88.4L83.3,88.3L80.9,85.1L78.6,81.7L77.5,80.2L77.3,79.8L71.3,71.0L71.1,70.6L69.0,67.9L67.6,65.8L67.0,64.4L67.2,63.7L67.8,62.6L68.3,62.0L68.6,61.1L70.2,58.6L70.8,57.4L71.6,56.3L72.1,55.4L72.9,54.3L73.9,52.3L75.0,50.5L75.2,50.0L78.1,45.3L78.3,44.6L79.6,42.8L80.5,40.9L80.9,40.4L81.0,40.1L81.7,39.2L82.1,39.1L83.5,39.0L88.1,39.0L88.9,38.8L93.1,38.8L94.7,38.6L96.5,38.7L99.2,38.5L101.9,38.5L102.8,38.4L104.7,38.4L107.3,38.2L110.7,38.2L117.0,38.0L117.3,37.7L117.4,37.4L117.5,36.1L117.4,34.4L117.2,26.1Z" fill="#000" fill-rule="evenodd"/>
</svg>