<svg xmlns="http://www.w3.org/2000/svg" viewBox="0 0 128 128" width="128" height="128">
  <path d="M117.7,10.4L117.1,10.2L85.0,10.4L78.2,10.6L76.7,10.5L71.8,10.7L63.6,10.7L56.4,10.9L54.8,10.8L49.2,10.9L32.0,11.0L31.2,11.2L29.7,11.0L22.8,11.2L18.0,11.1L12.3,11.3L10.7,11.2L10.0,11.3L9.5,11.7L9.4,12.6L9.6,18.9L9.6,30.5L9.8,38.8L9.7,41.4L9.9,43.2L9.8,46.0L10.0,52.7L9.9,59.9L10.0,60.5L10.1,66.6L10.1,83.9L10.3,98.6L10.3,109.0L9.9,109.6L9.9,110.0L10.4,110.8L10.5,117.2L10.6,117.6L11.0,118.1L12.5,118.2L20.3,117.9L31.5,117.8L39.7,117.5L47.6,117.5L51.5,117.3L59.9,117.3L73.1,117.0L75.8,117.1L82.6,116.8L91.4,116.8L103.6,116.5L117.4,116.4L118.3,116.3L118.8,115.9L118.9,111.7L118.7,109.4L118.8,107.2L118.6,98.4L118.6,78.3L118.4,75.2L118.5,70.0L118.3,63.1L118.3,54.6L118.1,51.0L118.1,37.8L118.0,27.8L118.0,11.5Z M58.4,43.6L58.7,43.9L58.9,44.9L59.1,51.0L59.1,81.7L58.8,82.0L57.7,82.2L46.6,82.3L43.6,82.5L41.1,82.4L40.7,82.1L40.4,81.6L40.3,79.9L40.2,57.5L40.1,47.7L40.2,44.2L40.3,44.0L40.8,43.8L55.9,43.5Z M90.5,43.0L91.1,43.5L91.1,43.9L90.8,44.4L90.6,45.5L89.7,47.7L89.6,48.6L88.5,51.6L88.2,52.0L87.9,53.5L87.7,53.7L87.4,54.9L86.6,56.7L86.4,57.6L86.1,58.3L85.8,59.6L84.9,61.7L84.9,63.0L86.2,66.0L87.4,68.2L89.2,72.5L90.1,74.3L90.1,74.6L90.7,75.6L90.8,76.1L91.8,78.2L92.1,78.5L92.1,78.8L92.9,80.5L92.9,81.3L92.5,81.6L91.7,81.7L80.3,81.7L77.2,81.9L74.6,81.9L73.7,81.7L73.4,81.4L72.2,78.9L71.7,77.2L70.8,75.6L70.6,74.8L69.2,71.7L68.9,70.8L68.5,70.2L68.4,69.6L67.6,68.0L67.5,67.5L65.5,62.7L65.5,62.1L65.8,61.5L65.9,60.8L66.4,59.8L67.0,57.4L67.4,56.8L67.7,55.4L68.9,52.3L69.2,51.1L69.5,50.7L69.7,49.8L70.1,49.1L70.2,48.1L70.6,47.3L71.3,44.9L71.6,44.5L71.9,43.7L72.6,43.2Z" fill="#000" fill-rule="evenodd"/>
</svg>