<svg xmlns="http://www.w3.org/2000/svg" viewBox="0 0 128 128" width="128" height="128">
  <path d="M22.1,9.5L21.7,9.9L21.8,20.7L22.0,22.5L22.0,33.6L22.2,36.6L22.2,42.4L22.4,46.3L22.2,53.9L22.7,76.1L22.7,93.8L22.9,100.8L22.9,115.7L22.7,118.0L23.0,118.2L24.2,118.1L26.5,118.4L28.1,118.3L30.1,118.5L35.4,118.5L38.0,118.7L59.5,118.7L64.1,118.9L72.2,119.0L79.9,118.8L85.4,118.9L87.5,118.8L106.1,118.8L106.5,118.6L106.3,114.5L106.5,104.9L106.5,83.6L106.3,73.2L106.4,62.7L106.2,53.2L106.2,43.4L106.0,41.5L106.0,29.1L105.9,26.2L105.7,24.8L105.8,22.3L105.6,16.7L105.5,9.4L105.1,9.2L99.1,9.2L94.5,9.4L77.8,9.3L70.7,9.5L56.4,9.4L48.1,9.6L41.7,9.2L22.5,9.3Z M88.6,18.5L89.9,19.4L91.6,21.1L92.9,23.0L93.7,24.8L94.1,27.3L94.1,29.1L93.7,31.4L92.9,33.6L92.1,34.7L89.8,36.9L87.1,38.2L85.5,38.5L84.0,38.7L81.9,38.7L81.3,38.4L80.0,38.2L78.5,37.5L76.7,36.3L76.0,36.3L74.0,37.9L71.6,40.3L69.8,41.7L67.2,44.3L66.4,44.9L64.6,46.6L63.2,47.7L56.4,54.1L56.1,54.3L54.9,55.5L54.3,55.9L53.5,56.8L53.5,57.4L54.1,58.2L55.2,60.8L55.5,62.9L55.5,64.7L55.3,66.1L54.7,68.0L54.1,69.2L53.7,69.5L53.6,70.1L53.8,70.5L55.1,71.8L56.9,73.3L58.9,75.4L59.5,75.7L66.8,82.5L69.1,84.4L72.0,87.2L76.3,91.0L77.2,91.0L78.1,90.1L79.0,89.6L81.2,88.7L83.4,88.3L84.7,88.3L87.5,88.8L88.2,89.2L88.5,89.2L90.0,90.0L91.4,91.0L92.7,92.4L93.9,94.2L94.8,96.4L95.1,99.0L95.1,100.0L94.7,102.2L93.7,104.5L93.1,105.2L93.0,105.6L90.7,107.9L88.6,109.0L87.2,109.5L85.2,109.9L82.8,109.8L81.2,109.4L79.7,108.9L77.7,107.7L76.0,106.1L75.1,104.7L74.3,103.2L74.0,101.9L73.7,101.1L73.7,100.4L73.5,99.8L73.5,97.8L73.9,95.8L75.1,93.2L75.1,92.7L73.1,90.7L68.0,86.3L67.6,85.8L63.7,82.4L62.8,81.4L60.6,79.6L60.0,78.9L55.5,74.8L54.4,73.9L52.8,72.3L52.2,71.9L51.9,71.9L51.4,72.1L50.4,72.8L49.0,73.5L47.8,74.0L46.3,74.2L45.9,74.8L46.1,87.0L46.2,87.9L46.8,88.2L47.6,88.3L49.9,89.1L52.0,90.5L53.5,92.0L54.5,93.4L55.4,95.3L56.0,97.8L56.1,99.6L55.5,102.2L54.5,104.5L53.3,106.2L52.2,107.3L51.5,107.7L51.1,108.0L49.5,108.8L46.8,109.5L43.6,109.4L41.8,109.0L40.2,108.3L38.4,107.1L36.5,105.0L35.9,104.1L35.3,102.6L34.6,100.5L34.5,98.2L34.8,96.1L35.4,94.2L35.9,93.1L37.7,91.0L38.5,90.3L40.5,89.0L42.7,88.3L43.8,88.2L44.2,87.7L44.0,74.9L43.4,74.2L40.8,73.5L39.3,72.8L37.1,70.9L35.9,69.6L35.0,67.8L34.8,67.1L34.6,66.7L34.1,63.9L34.1,62.6L34.5,60.6L35.0,59.1L35.6,57.9L37.0,56.0L39.0,54.3L40.6,53.5L43.3,52.8L43.7,52.5L43.9,48.7L43.4,39.3L43.1,38.9L40.0,37.9L38.5,37.0L37.7,36.4L36.1,34.9L34.7,32.6L33.9,30.2L33.9,26.7L34.3,24.8L35.0,23.0L35.9,21.5L36.4,21.2L36.8,20.6L38.0,19.5L39.0,18.9L41.0,18.0L42.3,17.6L45.0,17.4L46.2,17.5L48.0,18.0L49.9,18.9L50.8,19.5L52.9,21.7L54.1,23.5L54.9,26.1L55.1,27.3L55.1,29.0L54.9,30.9L54.0,33.2L52.1,35.8L50.3,37.3L47.8,38.4L47.0,38.7L45.6,38.9L45.3,39.3L45.3,44.4L45.4,46.1L45.5,51.9L45.7,52.6L46.3,52.9L48.2,53.3L50.3,54.3L51.4,55.1L51.9,55.2L52.2,55.1L53.5,53.9L53.8,53.7L55.5,52.0L61.8,46.4L63.2,44.9L65.7,42.8L66.3,42.2L68.6,40.2L69.4,39.3L74.3,34.9L74.5,34.5L74.5,33.9L73.9,33.1L73.6,32.2L73.2,31.6L72.7,29.7L72.6,27.4L72.8,25.8L73.2,24.1L73.8,22.7L75.2,20.7L76.1,19.8L77.7,18.6L79.8,17.6L81.5,17.2L84.8,17.2L86.6,17.6Z" fill="#000" fill-rule="evenodd"/>
</svg>