<svg xmlns="http://www.w3.org/2000/svg" viewBox="0 0 128 128" width="128" height="128">
  <path d="M10.2,21.2L10.2,69.3L10.1,70.2L9.5,70.6L9.5,70.9L10.1,71.5L10.2,72.7L10.2,85.9L10.0,92.4L9.9,106.7L10.4,107.2L31.3,107.2L45.6,107.4L66.9,107.3L69.1,107.5L78.5,107.4L79.1,107.2L81.9,106.9L85.5,106.1L85.9,106.1L86.6,105.7L87.7,105.5L89.5,104.9L90.8,104.3L91.6,104.1L92.6,103.6L93.8,103.2L95.5,102.2L95.8,102.2L98.3,100.7L102.3,97.9L102.9,97.3L104.5,96.1L106.0,94.5L106.4,94.3L109.4,91.0L112.2,87.1L112.9,85.7L113.8,84.5L115.3,81.5L116.2,78.9L116.6,78.3L118.0,73.3L118.7,69.3L119.0,64.3L118.9,61.0L118.7,60.3L118.5,57.5L117.4,52.7L117.1,51.9L116.6,50.0L115.7,47.8L114.4,44.9L111.8,40.4L110.2,38.4L109.9,37.9L109.6,37.7L108.5,36.3L104.9,32.5L103.5,31.3L102.1,30.3L101.4,29.6L100.8,29.4L99.2,28.1L96.0,26.2L92.0,24.3L85.7,22.3L84.5,22.1L83.2,21.7L82.5,21.7L79.8,21.2L77.3,21.0L69.4,20.9L66.5,21.0L50.4,20.8L17.3,20.8L10.6,20.9Z M61.3,66.0L61.7,65.9L62.0,66.2L62.6,67.1L62.9,67.5L63.4,68.6L64.0,69.4L64.9,71.1L65.3,71.4L65.4,71.9L65.7,72.2L66.5,73.7L67.1,74.4L67.8,75.9L70.5,80.1L70.7,80.7L72.8,84.1L73.0,84.8L73.6,85.6L73.6,86.0L73.4,86.2L61.6,86.2L61.2,85.9L61.0,84.5L61.2,83.5L61.2,66.5Z M93.2,52.2L93.9,52.8L94.6,54.3L94.9,54.8L96.2,57.7L96.2,58.1L96.6,59.2L96.8,61.5L97.1,62.5L97.1,65.7L96.6,69.2L95.9,71.6L95.0,73.7L93.7,76.0L93.1,76.8L92.6,76.9L92.0,76.3L91.0,74.7L90.0,73.5L88.9,71.8L88.6,71.0L87.7,69.8L86.9,68.4L86.3,67.8L84.5,64.7L84.5,64.4L84.8,63.7L85.6,62.7L86.3,61.4L88.1,58.9L89.3,57.0L90.0,56.1L92.1,53.0L92.7,52.3Z M74.0,42.4L74.2,42.6L74.0,43.3L73.7,43.6L72.1,46.5L71.7,46.9L70.9,48.4L70.0,49.7L69.6,50.6L68.1,52.7L66.9,54.9L65.9,56.3L65.5,57.1L64.7,58.2L64.6,58.8L64.0,59.3L62.6,61.7L61.8,62.9L61.4,62.9L61.3,62.7L61.2,58.6L61.3,43.1L61.4,42.6L61.8,42.3L62.4,42.2L70.8,42.3Z M32.6,42.3L38.7,42.3L39.4,42.6L39.6,43.1L39.4,85.6L38.9,86.1L32.8,86.2L32.3,86.1L31.8,85.5L31.8,45.5L31.9,42.8Z" fill="#000" fill-rule="evenodd"/>
</svg>