<svg xmlns="http://www.w3.org/2000/svg" viewBox="0 0 128 128" width="128" height="128">
  <path d="M26.7,25.1L24.5,27.4L23.1,29.2L21.8,30.6L21.1,31.9L20.5,32.5L20.0,33.1L19.8,33.8L17.5,37.2L17.0,38.6L14.5,43.6L13.8,45.3L12.9,48.6L12.8,49.4L12.4,50.3L12.4,51.1L11.9,52.4L11.8,53.5L11.3,55.4L10.8,61.9L10.8,65.3L10.5,68.0L10.4,72.8L10.6,76.7L10.5,97.4L10.7,101.6L10.5,117.0L10.7,118.1L11.1,118.3L32.3,118.5L33.0,118.3L33.4,117.7L33.5,116.5L33.4,108.4L33.5,95.9L33.5,60.5L34.6,55.3L35.8,51.7L38.5,46.6L41.1,43.0L43.8,40.3L46.1,38.3L48.4,36.8L51.8,35.0L52.3,34.9L53.9,34.2L57.9,33.0L59.8,32.9L60.2,32.7L61.5,32.5L66.0,32.5L67.8,32.6L72.4,33.6L74.1,34.2L75.8,35.0L76.9,35.4L80.2,37.2L82.8,39.1L84.8,40.8L86.8,42.9L89.7,46.8L91.5,50.2L92.6,52.8L93.3,55.4L93.6,56.0L94.3,59.9L94.5,72.0L94.5,93.3L94.3,94.8L93.7,95.1L88.9,95.3L78.1,95.3L76.9,95.1L75.1,93.2L74.6,92.5L72.3,89.8L70.9,87.9L69.6,86.5L69.2,85.8L66.1,82.2L64.1,79.5L64.2,78.6L66.5,76.1L66.7,75.7L68.6,73.8L68.8,73.4L70.8,71.3L72.2,69.9L73.1,68.8L74.8,67.0L75.8,65.7L76.8,64.9L79.3,62.0L89.7,50.8L89.8,50.1L89.6,50.0L84.3,49.8L66.0,50.0L61.7,49.9L60.9,50.1L60.3,50.5L57.9,52.9L56.8,54.4L56.3,54.7L50.1,61.7L49.3,62.5L44.0,68.4L43.0,69.3L42.8,69.7L42.0,70.4L40.9,71.8L38.9,73.7L38.6,74.1L34.5,78.5L34.4,79.1L34.7,79.8L35.8,81.3L37.1,82.6L37.3,83.2L38.7,84.8L39.0,85.3L39.9,86.3L40.4,87.0L42.1,88.8L42.4,89.4L43.5,90.4L43.8,91.1L45.8,93.2L46.0,93.7L47.2,95.4L48.8,97.0L49.2,97.6L51.3,100.1L51.8,100.9L53.2,102.4L54.7,104.6L56.3,106.3L57.5,108.0L58.9,109.6L59.3,110.2L60.9,112.0L60.9,112.3L65.1,117.1L65.3,117.5L66.1,118.3L66.5,118.5L67.4,118.7L70.5,118.7L78.8,118.7L88.2,118.8L100.3,118.7L114.0,118.9L116.8,118.8L117.4,118.4L117.6,112.4L117.5,109.9L117.8,107.5L117.8,101.5L117.5,94.6L117.6,70.7L117.5,60.3L116.8,54.6L115.8,50.2L115.8,49.7L115.6,49.1L114.7,46.0L114.5,45.8L113.8,43.4L113.4,42.9L112.5,40.5L111.4,38.5L111.1,37.7L110.0,35.9L109.8,35.4L109.4,34.9L108.8,33.8L107.3,31.7L107.1,31.3L105.1,28.7L102.9,26.2L99.6,23.0L98.9,22.5L96.9,20.6L95.8,20.0L94.3,18.7L92.9,18.0L91.2,16.8L89.3,15.6L86.9,14.5L86.0,14.0L85.5,13.9L84.9,13.5L84.1,13.3L81.9,12.3L76.2,10.6L74.4,10.3L73.7,10.3L72.9,10.0L67.2,9.3L61.9,9.3L56.4,9.8L50.3,11.1L45.9,12.6L42.3,14.1L39.6,15.5L34.1,18.8L33.4,19.5L30.4,21.7Z" fill="#000" fill-rule="evenodd"/>
</svg>