<svg xmlns="http://www.w3.org/2000/svg" viewBox="0 0 128 128" width="128" height="128">
  <path d="M96.9,10.3L69.8,10.3L68.2,10.3L67.7,10.9L67.5,16.4L67.6,74.2L67.4,76.3L67.6,79.6L67.5,91.6L67.7,93.3L67.7,114.7L67.8,116.3L68.3,116.8L83.9,116.8L97.0,116.4L97.7,115.8L103.7,109.8L104.6,108.8L106.5,107.1L107.4,106.0L111.6,101.8L115.2,98.0L117.8,95.4L118.5,94.6L118.7,94.1L118.9,61.8L118.7,31.8L118.4,31.1L116.5,29.4L97.4,10.5Z M95.5,28.7L96.6,29.0L96.9,29.3L97.1,30.3L97.1,96.8L96.6,97.4L96.2,97.5L92.1,97.7L90.7,97.4L90.3,97.1L90.1,96.3L90.3,63.9L90.2,29.8L90.3,29.2L91.1,28.7Z M31.7,10.1L24.3,17.5L23.8,17.8L23.4,18.4L20.1,21.7L19.6,22.0L19.2,22.5L11.3,30.4L10.4,31.0L9.7,32.2L9.5,52.2L9.6,73.4L9.4,82.8L9.4,93.5L9.6,96.1L9.9,96.8L11.5,98.6L18.6,105.8L19.5,106.5L20.0,107.2L20.9,107.9L31.1,118.0L31.9,118.2L32.2,117.9L32.2,84.1L32.4,74.1L32.6,73.4L32.8,73.1L33.5,73.0L38.4,73.1L38.8,73.7L38.9,74.4L38.9,113.4L39.1,117.1L39.6,117.4L41.0,117.4L43.2,117.2L51.2,117.3L61.0,117.0L61.4,116.7L61.6,116.2L61.7,107.2L61.5,81.7L60.8,80.6L55.8,76.8L53.6,74.8L52.6,74.1L50.1,72.0L49.6,71.8L47.9,70.4L47.6,70.3L46.8,69.4L45.5,68.6L43.9,67.1L42.1,65.9L41.4,65.1L40.5,64.5L40.4,64.0L40.7,63.5L43.0,61.3L43.8,60.9L47.6,57.7L47.9,57.6L51.9,54.3L53.7,53.0L54.6,52.2L56.5,50.8L60.4,47.6L60.6,47.6L61.5,46.7L61.5,38.6L61.7,31.9L61.5,10.9L61.0,10.3L60.8,10.3L43.1,10.4L40.8,10.3L39.6,10.5L39.1,10.9L38.8,11.7L38.8,53.5L38.2,54.2L33.1,54.3L32.5,53.8L32.3,50.9L32.5,34.5L32.4,20.1L32.6,10.7L32.5,10.3L32.3,10.1Z" fill="#000" fill-rule="evenodd"/>
</svg>