<svg xmlns="http://www.w3.org/2000/svg" viewBox="0 0 128 128" width="128" height="128">
  <path d="M77.8,9.7L77.3,10.0L61.9,25.3L59.8,27.7L53.5,33.9L50.0,37.5L48.4,39.0L45.9,41.6L33.3,54.1L32.5,55.2L27.0,60.7L24.0,63.6L23.8,64.1L24.0,64.5L29.2,69.6L33.1,73.8L33.7,74.2L37.5,78.2L37.9,78.4L39.9,80.5L45.5,86.2L46.6,87.0L47.3,87.9L55.0,95.7L57.6,98.1L58.0,98.8L61.7,102.4L62.1,102.7L66.8,107.4L68.1,108.5L78.1,118.4L78.9,118.8L95.6,118.8L96.0,118.7L96.2,118.3L95.9,117.8L94.3,116.2L93.7,115.5L93.0,115.0L88.7,110.5L86.9,109.0L49.8,71.8L49.6,71.4L49.7,70.8L50.2,70.6L60.0,70.6L64.4,70.8L87.4,70.7L104.7,70.9L105.2,71.6L105.3,72.6L105.3,117.9L105.4,118.4L105.8,118.6L117.0,118.6L118.0,118.4L118.3,118.2L118.5,117.6L118.6,115.3L118.8,88.3L118.7,67.4L118.9,57.5L118.9,41.4L118.7,38.4L118.8,31.6L118.6,24.1L118.7,16.8L118.5,10.5L118.0,10.0L106.9,9.8L105.9,9.9L105.3,10.5L105.2,45.3L105.3,50.6L105.2,57.1L104.9,57.5L52.7,57.5L50.5,57.4L50.0,57.0L50.0,56.5L50.2,56.1L51.5,54.7L53.2,53.2L53.5,52.7L56.6,49.6L57.7,48.3L72.4,33.5L80.0,25.7L82.1,23.8L84.2,21.6L85.0,20.9L92.8,13.0L93.1,12.4L94.8,10.9L95.2,10.3L95.1,10.0L94.1,9.7Z M10.2,9.5L9.6,10.1L9.6,11.2L9.4,12.2L9.4,51.9L9.6,64.4L9.5,76.1L9.7,77.6L9.5,82.6L9.5,91.2L9.7,95.2L9.6,106.4L9.8,116.8L10.0,117.6L10.4,117.9L11.1,118.1L22.7,118.4L23.2,117.9L23.3,117.1L23.4,108.1L23.2,98.3L23.3,83.6L23.1,63.6L23.2,10.5L23.0,10.0L22.5,9.5Z" fill="#000" fill-rule="evenodd"/>
</svg>