<svg xmlns="http://www.w3.org/2000/svg" viewBox="0 0 128 128" width="128" height="128">
  <path d="M90.4,64.5L89.2,65.7L88.7,67.5L88.5,88.2L88.7,89.3L89.1,90.2L90.2,91.2L91.3,91.6L94.2,91.5L109.6,91.7L112.7,91.6L114.2,91.1L115.2,90.1L115.5,89.5L115.6,88.4L115.5,84.0L115.7,81.2L115.6,79.9L115.8,68.0L115.7,66.5L115.5,65.7L114.3,64.5L113.6,64.0L113.0,63.9L92.2,63.9L91.2,64.0Z M13.3,36.0L13.0,36.3L12.9,36.6L12.5,45.6L12.5,66.8L12.4,73.9L12.2,75.6L12.3,78.2L12.1,80.3L12.2,82.4L11.7,110.9L11.8,118.5L12.3,118.8L13.1,118.9L34.4,118.9L38.6,118.7L39.0,118.2L39.1,116.3L39.0,112.5L39.2,107.6L39.0,105.2L39.2,99.0L39.2,92.5L39.3,92.2L39.6,91.7L40.3,91.5L57.8,91.5L59.4,91.7L60.1,92.1L60.8,92.8L61.2,94.4L61.4,96.5L61.3,102.8L61.1,104.9L61.1,116.6L61.7,117.5L62.5,118.3L63.9,118.8L66.7,118.8L68.9,119.0L84.9,119.0L86.2,118.8L87.0,118.4L87.9,117.4L88.4,116.7L88.6,115.6L88.7,94.4L88.6,93.7L88.2,93.0L87.0,91.8L85.9,91.4L84.5,91.1L66.0,91.1L64.3,90.9L63.0,90.5L62.2,89.8L61.6,88.5L61.4,87.3L61.6,79.3L61.5,74.9L61.6,69.5L61.8,67.1L62.1,65.7L62.8,64.7L63.9,64.2L72.2,64.4L74.0,64.6L79.6,64.5L80.8,64.7L83.2,64.7L84.9,64.5L86.9,63.9L88.4,62.2L88.9,60.5L89.1,58.4L89.0,53.8L89.2,40.6L88.9,38.9L88.1,37.9L86.6,36.8L85.5,36.6L83.2,36.5L75.6,36.6L66.2,36.4L64.0,36.8L62.5,37.8L62.2,38.2L61.9,39.4L61.8,40.2L61.6,56.0L61.3,61.0L61.0,62.3L60.2,63.0L58.3,63.7L49.9,63.8L48.3,63.6L45.4,63.6L39.9,63.3L39.4,63.0L39.3,60.1L39.6,42.5L39.5,40.2L39.7,39.5L39.6,37.1L39.3,36.4L39.0,36.3L29.2,36.3L28.1,36.1L17.4,36.1L14.7,35.9Z M101.1,9.3L98.3,9.8L96.7,10.4L94.7,11.3L92.8,12.8L90.7,14.8L89.2,17.3L88.4,19.1L87.9,21.4L87.7,24.3L87.9,26.7L88.6,28.9L90.2,32.1L92.3,34.6L94.6,36.4L96.7,37.5L100.1,38.5L103.5,38.6L106.1,38.1L108.8,36.9L110.4,35.9L113.0,33.7L113.3,33.0L114.1,32.2L115.1,30.5L116.3,27.3L116.3,25.6L116.5,24.8L116.5,22.2L116.3,20.3L114.6,16.3L113.9,15.5L113.4,14.6L111.5,12.8L111.3,12.7L110.5,12.0L108.1,10.4L104.1,9.4Z" fill="#000" fill-rule="evenodd"/>
</svg>