<svg xmlns="http://www.w3.org/2000/svg" viewBox="0 0 128 128" width="128" height="128">
  <path d="M118.9,32.0L118.6,31.8L96.6,32.3L92.8,32.2L78.3,32.5L47.4,32.5L46.8,32.9L39.3,39.9L37.2,41.7L36.0,42.9L35.6,43.1L30.7,47.9L30.1,48.3L22.8,55.1L22.4,55.1L22.1,54.8L22.0,54.5L21.9,40.1L21.9,33.0L21.5,32.6L20.1,32.5L10.4,32.6L9.5,32.7L9.2,33.0L9.2,45.2L9.3,47.6L9.3,61.1L9.5,70.3L9.4,75.0L9.6,82.3L9.5,85.6L9.7,88.6L9.6,93.9L9.8,95.5L10.1,95.7L31.6,95.6L49.2,95.8L50.9,95.9L55.0,95.9L55.8,96.1L60.2,96.0L60.4,95.8L60.6,95.5L60.6,74.6L60.8,74.4L61.1,74.4L62.5,75.7L64.2,77.9L67.8,82.0L68.8,83.4L70.0,84.6L71.4,86.3L72.9,88.0L73.2,88.6L79.8,96.2L80.2,96.3L85.0,96.5L92.7,96.4L92.9,96.1L92.9,44.0L93.2,43.6L93.8,43.5L114.1,43.3L118.7,43.0L119.1,42.7L119.1,42.0L119.1,33.4Z M32.8,61.4L35.9,58.3L37.6,56.8L42.5,52.2L43.0,51.8L44.2,50.5L51.4,44.0L52.3,43.3L62.5,43.2L67.3,43.4L78.7,43.4L79.4,43.6L79.7,44.0L79.8,70.9L79.6,72.6L79.7,73.5L79.4,73.8L79.1,73.8L78.7,73.4L76.2,70.7L76.0,70.3L75.5,69.9L75.0,69.1L71.5,65.1L71.1,64.5L68.0,60.8L67.2,59.8L66.3,58.9L63.8,55.8L63.2,55.0L61.9,53.6L60.8,52.1L60.3,51.6L59.8,51.5L47.8,51.4L47.6,51.5L47.3,52.0L47.2,53.9L47.4,65.5L47.4,77.5L47.3,78.5L47.0,78.8L46.7,78.7L45.5,77.5L43.3,74.9L43.0,74.3L42.3,73.6L41.2,72.1L37.9,68.3L36.6,66.5L36.1,66.1L36.0,65.8L33.2,62.3L32.8,61.7Z" fill="#000" fill-rule="evenodd"/>
</svg>