<svg xmlns="http://www.w3.org/2000/svg" viewBox="0 0 128 128" width="128" height="128">
  <path d="M56.1,94.5L56.1,96.4L56.2,96.6L57.8,96.6L58.6,96.6L58.7,96.4L58.8,94.5L58.7,94.4L57.7,94.3L56.7,94.3L56.3,94.3Z M56.2,86.4L56.3,87.1L56.2,88.3L56.3,88.6L56.3,88.6L58.5,88.7L58.7,88.6L58.7,86.4L58.6,86.3L56.8,86.3L56.4,86.3Z M50.8,86.4L50.7,86.3L50.5,86.2L48.3,86.3L48.2,86.4L48.2,86.8L48.3,88.6L48.5,88.7L48.9,88.8L50.4,88.8L50.7,88.7L50.8,88.6Z M56.1,78.1L56.0,78.3L56.0,79.6L56.1,80.4L56.2,80.5L58.0,80.5L58.3,80.4L58.4,80.3L58.4,78.3L58.3,78.1L57.0,78.1Z M48.2,78.1L48.1,78.3L48.2,80.4L48.2,80.5L48.3,80.6L50.3,80.6L50.5,80.6L50.6,78.4L50.5,78.2L50.4,78.1L50.2,78.1L48.4,78.1Z M40.0,78.1L40.0,79.5L40.1,80.5L40.2,80.6L42.5,80.6L42.6,80.5L42.7,80.4L42.6,78.2L42.5,78.1L40.2,78.0Z M32.0,69.9L31.9,70.3L31.9,72.5L32.2,72.7L34.3,72.7L34.4,72.6L34.4,70.1L34.3,70.0L34.1,69.9Z M48.1,69.9L48.0,70.0L48.0,70.1L48.1,72.5L48.3,72.6L50.3,72.6L50.4,72.5L50.4,70.0L50.2,69.9L50.1,69.8L48.6,69.8Z M55.9,69.9L55.8,69.9L55.8,72.4L56.1,72.6L58.1,72.6L58.2,72.4L58.2,72.2L58.2,69.9L58.1,69.8L56.3,69.8Z M40.0,69.9L40.0,70.0L40.0,72.4L40.0,72.6L40.2,72.6L42.4,72.6L42.5,72.5L42.5,70.0L42.4,69.8L41.1,69.8Z M117.7,8.3L87.9,8.3L87.4,8.4L83.3,8.4L80.5,8.4L70.1,8.4L68.9,8.5L67.3,8.5L66.2,8.4L65.8,8.5L65.6,8.5L62.0,8.5L60.5,8.6L53.6,8.6L48.9,8.6L48.5,8.6L47.3,8.6L40.3,8.7L36.0,8.7L34.1,8.8L32.4,8.8L31.9,8.8L29.2,8.8L28.2,8.9L25.3,8.9L24.6,8.9L23.0,8.9L22.3,8.9L19.3,8.9L18.2,9.0L15.8,9.0L15.2,9.0L9.4,9.0L9.2,9.1L9.1,9.2L9.2,17.1L9.2,18.0L9.3,21.7L9.3,25.3L9.5,26.8L9.5,27.5L9.6,34.1L9.7,37.4L9.7,38.4L9.8,40.0L9.7,41.8L9.8,44.1L9.8,46.8L9.9,47.6L9.9,49.4L9.9,49.9L9.9,52.6L10.0,59.7L10.0,61.4L10.0,63.5L10.1,64.2L10.1,69.1L10.1,71.2L10.1,73.7L10.2,74.8L10.2,77.9L10.2,79.3L10.2,82.2L10.3,83.8L10.3,87.3L10.4,91.2L10.4,92.1L10.4,92.5L10.4,94.0L10.5,94.7L10.4,96.3L10.5,99.8L10.5,105.0L10.7,116.4L10.6,119.6L10.7,119.7L10.8,119.8L11.4,119.9L20.5,119.8L37.1,119.6L41.7,119.7L42.2,119.6L46.5,119.6L49.7,119.5L51.5,119.6L52.8,119.5L54.5,119.5L63.0,119.4L63.4,119.5L64.4,119.4L70.4,119.4L71.4,119.3L74.8,119.4L81.4,119.3L89.0,119.3L92.6,119.1L97.4,119.1L101.2,119.0L107.4,119.0L108.7,118.9L113.2,119.0L114.3,118.9L115.9,118.9L116.5,118.8L118.8,118.9L119.0,118.8L119.1,118.5L119.1,116.4L119.0,115.5L119.0,110.5L118.9,107.0L119.0,105.0L118.9,104.0L118.8,96.1L118.7,90.8L118.7,89.7L118.7,89.3L118.7,86.4L118.6,86.1L118.6,80.0L118.6,78.2L118.6,77.3L118.5,73.4L118.5,69.0L118.5,67.1L118.5,61.0L118.4,59.7L118.4,59.2L118.4,57.9L118.3,51.7L118.3,50.0L118.3,49.8L118.3,49.1L118.2,48.9L118.3,48.3L118.2,42.8L118.3,41.4L118.2,38.9L118.2,35.2L118.1,32.2L118.2,31.4L118.1,30.1L118.1,24.9L118.0,23.1L118.0,22.0L117.9,18.4L118.0,16.5L117.9,15.2L117.9,14.4L117.9,12.1L117.8,11.2L117.8,8.5Z M17.4,18.2L17.7,18.1L18.1,18.0L20.7,18.0L21.5,18.0L22.5,18.0L22.7,18.2L22.8,18.3L22.9,22.8L22.9,26.0L23.0,27.0L23.1,33.9L23.2,37.3L23.3,40.7L23.4,44.6L23.4,44.8L23.4,46.3L23.5,50.0L23.5,51.1L23.5,51.5L23.6,52.5L23.6,54.4L23.8,61.3L23.8,64.2L23.9,64.4L24.2,64.4L26.1,64.4L26.2,64.4L26.3,64.2L26.3,60.6L26.2,60.1L26.3,59.0L26.2,56.5L26.1,52.8L26.0,49.3L26.0,45.8L25.9,45.3L26.0,44.6L25.9,42.6L25.8,38.7L25.8,38.3L25.8,37.4L25.7,36.4L25.6,28.3L25.5,25.8L25.4,18.2L25.5,18.0L25.6,17.9L26.5,17.9L28.0,18.0L30.2,17.9L30.6,17.9L30.7,18.0L30.8,18.1L31.0,25.5L31.0,27.7L31.0,28.9L31.0,31.5L31.1,32.0L31.1,34.2L31.2,37.2L31.2,40.8L31.3,41.3L31.3,42.0L31.3,45.5L31.4,46.6L31.4,49.0L31.5,50.0L31.5,52.2L31.5,53.4L31.6,56.6L31.7,57.9L31.6,58.6L31.7,62.1L31.7,64.1L31.8,64.2L31.9,64.3L34.1,64.3L34.2,64.2L34.2,63.2L34.0,57.6L34.0,53.8L33.9,49.8L33.9,45.5L33.8,44.2L33.8,40.5L33.7,36.2L33.8,35.7L33.6,31.4L33.7,30.6L33.5,18.8L33.5,18.1L33.6,17.9L36.3,17.8L38.6,17.8L38.8,18.0L38.8,18.1L38.8,18.9L38.9,19.4L38.9,20.3L38.9,21.2L38.9,23.6L39.0,24.8L39.2,34.9L39.3,39.6L39.4,42.7L39.4,43.4L39.4,44.3L39.5,46.6L39.6,53.5L39.6,54.8L39.6,57.0L39.7,57.5L39.7,61.0L39.8,64.0L40.0,64.2L42.2,64.2L42.4,64.0L42.4,62.6L42.3,61.4L42.3,58.6L42.1,50.2L42.1,47.9L42.0,45.5L41.9,40.6L41.8,37.9L41.7,29.1L41.7,27.2L41.7,26.8L41.7,24.9L41.6,24.4L41.6,23.7L41.6,22.0L41.5,18.3L41.6,17.9L41.7,17.8L42.0,17.7L42.9,17.8L44.4,17.7L46.6,17.7L46.8,17.8L46.9,18.0L46.9,18.5L47.0,21.9L47.0,22.4L47.0,22.8L47.1,24.0L47.1,30.7L47.2,32.8L47.2,35.1L47.3,37.9L47.3,41.0L47.4,41.2L47.4,42.1L47.4,43.0L47.5,46.1L47.5,48.5L47.6,50.8L47.6,52.4L47.6,53.3L47.6,55.9L47.7,58.2L47.8,64.0L47.9,64.2L48.0,64.2L50.1,64.2L50.2,64.2L50.3,64.0L50.2,56.8L50.1,52.3L50.0,47.5L49.9,47.0L49.9,44.7L49.8,41.0L49.9,40.1L49.8,39.1L49.8,38.7L49.8,38.3L49.8,37.9L49.7,37.3L49.7,31.6L49.6,30.9L49.7,29.8L49.6,28.5L49.6,25.3L49.5,24.5L49.5,21.5L49.5,17.8L49.7,17.7L49.8,17.7L50.9,17.6L54.5,17.6L54.7,17.8L54.8,18.1L54.8,18.5L54.8,19.2L54.9,27.2L55.0,28.1L55.1,39.0L55.2,39.9L55.3,46.6L55.3,47.1L55.3,47.9L55.4,48.6L55.5,56.6L55.6,58.1L55.6,60.3L55.7,62.5L55.7,64.1L55.8,64.2L55.9,64.3L58.1,64.3L58.2,64.1L58.2,63.7L58.2,60.6L58.2,59.0L58.2,56.8L58.1,55.5L58.1,53.3L58.0,50.1L58.0,46.1L57.9,45.4L58.0,43.9L57.7,31.6L57.6,22.6L57.7,18.0L57.7,17.8L57.8,17.7L58.3,17.6L62.7,17.6L62.9,17.6L63.0,17.7L63.1,18.0L63.1,20.4L63.2,21.2L63.2,27.3L63.3,29.3L63.2,31.5L63.4,37.3L63.4,39.8L63.4,41.2L63.4,45.5L63.5,46.7L63.6,51.9L63.6,53.1L63.6,55.1L63.7,57.7L63.8,63.8L63.8,64.1L64.0,64.3L64.4,64.3L64.8,64.3L68.4,64.3L77.4,64.3L80.5,64.4L83.3,64.3L83.8,64.4L90.1,64.4L90.7,64.3L91.7,64.3L93.6,64.3L108.8,64.3L109.2,64.3L109.3,64.5L109.4,65.1L109.4,67.3L109.4,69.5L109.3,69.7L109.2,69.7L79.1,69.7L76.8,69.7L75.9,69.7L72.6,69.8L69.2,69.8L67.6,69.8L65.6,69.8L64.2,69.8L64.1,69.8L64.0,70.8L64.1,72.4L64.3,72.5L64.7,72.5L69.7,72.6L73.6,72.5L79.6,72.5L81.9,72.6L89.1,72.6L91.1,72.7L93.8,72.6L109.1,72.6L109.3,72.7L109.4,72.8L109.5,72.9L109.5,73.2L109.5,73.6L109.5,75.4L109.5,77.7L109.3,77.9L103.6,77.9L100.7,77.9L90.5,77.9L88.8,77.9L82.9,77.9L80.7,78.0L77.5,78.0L65.3,78.1L64.4,78.0L64.2,78.1L64.1,78.3L64.1,80.1L64.1,80.5L64.2,80.6L64.6,80.7L65.4,80.7L85.9,80.7L86.6,80.8L88.1,80.8L90.6,80.8L93.3,80.8L97.6,80.8L100.6,80.8L100.9,80.7L105.0,80.7L107.3,80.7L107.7,80.8L109.4,80.8L109.5,80.9L109.6,81.3L109.6,86.1L109.5,86.3L109.3,86.3L102.7,86.4L98.0,86.3L90.3,86.4L89.3,86.3L64.4,86.4L64.2,86.5L64.3,88.6L64.5,88.7L65.0,88.7L65.5,88.7L67.1,88.7L70.0,88.8L81.2,88.8L89.1,88.8L89.8,88.8L94.0,88.8L101.6,88.9L107.1,88.9L109.4,88.9L109.6,89.0L109.6,89.2L109.7,90.4L109.7,93.7L109.4,93.9L94.8,94.0L85.9,94.0L82.8,94.1L77.6,94.1L77.0,94.1L75.3,94.1L73.8,94.1L72.2,94.1L68.1,94.2L64.6,94.1L64.5,94.2L64.4,94.3L64.4,94.7L64.4,95.1L64.4,96.4L64.6,96.6L65.0,96.6L80.6,96.7L84.5,96.6L89.1,96.6L89.9,96.6L99.2,96.6L99.4,96.5L104.7,96.5L105.7,96.6L108.4,96.6L109.6,96.6L109.7,96.9L109.8,98.1L109.8,101.9L109.7,102.0L109.4,102.1L103.2,102.1L100.2,102.1L99.2,102.2L92.7,102.1L90.9,102.2L87.1,102.2L85.2,102.1L82.9,102.2L64.5,102.2L64.4,102.3L64.4,104.6L64.6,104.7L65.0,104.8L67.8,104.8L69.9,104.8L101.3,104.6L109.4,104.7L109.8,104.8L109.9,105.0L109.8,106.0L110.0,109.8L109.7,110.0L100.2,110.1L98.8,110.0L96.8,110.1L89.2,110.1L87.0,110.2L80.3,110.2L78.6,110.3L75.1,110.3L73.5,110.3L64.5,110.4L64.2,110.3L59.2,105.3L58.9,104.9L59.0,102.4L58.9,102.3L57.8,102.2L56.6,102.2L56.1,102.1L55.7,101.9L54.3,100.6L53.0,99.3L51.2,97.5L50.9,97.2L50.8,96.7L50.8,94.9L50.9,94.3L50.8,94.2L50.5,94.2L48.0,94.1L47.7,94.0L42.9,89.1L42.8,88.7L42.7,86.4L42.5,86.3L40.2,86.2L40.0,86.2L38.6,84.8L36.5,82.7L36.1,82.3L35.8,82.0L35.2,81.4L34.7,80.9L34.5,80.5L34.6,78.2L34.4,78.1L32.0,78.0L31.8,78.0L31.3,77.6L29.6,75.9L26.8,73.1L26.5,72.7L26.4,72.3L26.4,70.4L26.5,70.1L26.4,69.9L26.3,69.9L25.9,69.9L23.8,69.9L23.6,69.8L20.7,67.0L18.6,64.9L18.5,64.6L18.4,64.1L18.4,63.1L18.3,62.7L18.2,56.7L18.1,53.6L18.1,49.5L17.9,44.3L17.9,41.8L17.8,41.1L17.8,38.8L17.7,36.8L17.7,33.5L17.6,30.1L17.4,21.2L17.4,20.6L17.4,18.4Z" fill="#000" fill-rule="evenodd"/>
</svg>