<svg xmlns="http://www.w3.org/2000/svg" viewBox="0 0 128 128" width="128" height="128">
  <path d="M24.7,9.4L24.4,9.7L24.4,10.6L24.4,15.6L24.5,22.9L24.8,25.4L27.3,29.2L28.7,31.0L29.0,31.6L29.5,32.3L30.4,33.7L31.7,35.4L32.4,36.7L32.5,37.3L32.4,62.5L32.6,95.0L31.9,95.7L30.0,97.0L28.4,98.4L27.4,99.0L26.8,99.6L26.1,100.0L25.2,100.8L24.8,101.4L24.8,118.2L25.3,118.6L37.6,118.6L40.4,118.8L43.5,118.7L56.5,118.9L63.8,118.8L102.7,119.1L103.4,118.9L103.6,118.7L103.7,118.4L103.7,103.9L103.9,96.1L103.7,86.1L103.8,79.2L103.6,77.6L103.7,72.0L103.6,69.9L102.9,69.7L90.4,69.7L89.4,70.1L88.6,70.5L87.8,70.6L87.2,71.0L86.5,71.1L86.2,71.4L85.6,71.5L84.6,72.0L81.5,73.0L80.0,73.7L79.0,73.9L76.3,75.1L75.8,75.1L75.2,75.5L74.2,75.7L72.8,76.4L72.3,76.5L71.6,76.9L71.3,77.2L71.3,86.1L70.8,86.5L69.3,86.6L69.0,86.5L68.5,86.1L68.4,85.9L68.5,70.9L68.3,69.7L68.5,58.3L68.5,47.2L68.5,46.5L69.2,44.6L69.5,44.2L70.3,41.7L70.6,41.1L71.3,39.1L71.8,37.8L72.1,36.8L73.1,34.2L73.3,33.4L74.2,31.5L74.3,31.0L74.5,30.6L74.9,29.3L75.1,28.9L75.6,27.2L76.5,24.8L76.6,9.6L76.4,9.2L50.2,9.2L35.3,9.3L30.5,9.2Z M32.5,97.6L32.6,100.2L32.5,100.6L32.2,101.0L28.3,101.1L28.0,100.9L27.9,100.6L31.8,97.6Z M68.4,94.7L68.5,94.4L69.5,94.3L76.8,94.4L77.4,94.8L82.5,99.8L83.5,101.0L83.4,101.2L83.0,101.4L70.9,101.3L68.8,101.1L68.5,100.9L68.4,100.6Z M65.2,94.3L66.3,94.3L66.7,94.7L66.7,97.4L66.7,97.7L66.4,97.9L66.3,97.9L66.0,97.7L64.9,95.1L64.9,94.5Z M28.8,116.2L31.7,112.6L31.7,112.4L32.5,111.6L35.4,107.7L39.9,102.3L40.5,101.3L41.6,100.2L42.6,98.6L43.5,97.7L44.9,95.9L46.4,94.3L50.5,94.1L62.5,94.2L63.1,94.4L63.3,94.7L63.8,95.6L64.0,96.5L64.3,96.8L64.6,97.9L65.4,99.5L65.7,100.4L66.1,101.1L66.7,102.4L67.0,102.8L67.4,102.9L85.5,103.1L86.1,103.5L93.3,110.6L93.8,111.2L99.4,116.7L99.4,117.2L95.3,117.2L94.0,117.4L91.9,117.2L82.5,117.3L75.7,117.1L68.9,117.2L50.8,117.0L38.9,117.0L29.0,116.8L28.8,116.5Z M79.0,93.6L79.6,93.5L79.9,93.7L85.4,97.9L86.3,98.5L87.9,99.8L89.0,100.6L89.5,101.1L89.1,101.4L86.6,101.4L85.8,101.1L80.1,95.6L79.0,94.2Z M44.3,93.3L44.5,93.5L44.5,93.8L44.1,94.5L42.6,96.5L42.2,96.8L40.1,99.5L39.4,100.2L37.2,103.2L35.2,105.5L34.4,106.8L33.8,107.3L32.5,109.2L31.7,110.0L27.2,115.7L26.6,115.8L26.4,115.6L26.3,114.7L26.3,107.7L26.5,103.3L26.8,102.9L27.4,102.8L31.3,102.9L33.3,102.8L34.1,102.5L38.1,98.9L43.8,93.3Z M44.3,88.7L44.4,88.8L44.4,90.8L37.0,98.1L34.9,100.0L34.4,100.1L34.1,99.8L34.1,96.6L34.2,96.1L34.4,95.6L35.3,95.1L35.9,94.4L36.4,94.2L39.5,91.7L39.9,91.5L43.5,88.8L43.8,88.7Z M46.0,88.6L46.1,88.1L46.3,88.0L46.8,88.3L46.5,88.7Z M68.5,88.5L69.0,88.0L72.5,88.0L73.7,88.8L74.8,89.7L75.3,90.0L76.7,91.2L77.3,92.0L77.3,92.4L77.1,92.8L76.6,92.9L72.6,92.9L68.8,92.8L68.5,92.4L68.4,91.6Z M62.2,88.0L65.8,87.9L66.3,88.0L66.7,88.4L66.8,91.4L66.7,92.4L66.2,92.8L64.7,92.8L64.3,92.7L63.7,92.2L62.1,88.4L62.1,88.2Z M72.9,78.4L76.8,78.3L77.4,78.8L77.3,89.0L77.2,89.2L76.6,89.2L75.0,88.2L73.4,86.9L72.6,85.8L72.6,79.2L72.7,78.5Z M79.2,78.3L81.0,77.8L81.8,77.7L83.1,77.3L85.4,76.9L89.1,75.9L89.7,75.9L90.1,76.2L90.2,78.3L90.4,79.1L90.2,82.0L90.1,88.8L90.3,91.4L90.3,96.3L90.1,98.2L90.2,98.7L89.9,99.0L89.4,98.9L88.5,98.2L88.0,97.9L82.8,93.9L79.6,91.6L79.1,91.1L78.8,90.5L78.8,78.8L79.0,78.5Z M100.7,73.3L101.6,73.3L101.9,73.6L102.1,102.1L101.9,116.2L101.7,116.5L101.3,116.4L99.0,114.2L98.6,113.9L93.7,108.9L90.4,105.8L89.5,104.7L88.3,103.7L88.1,103.4L88.4,103.1L91.1,103.0L91.5,102.9L91.9,102.6L92.0,75.6L92.7,75.1L93.2,75.1L93.7,74.8L95.4,74.6L95.6,74.4L96.8,74.2L97.2,74.2L97.7,73.9Z M90.2,71.8L90.3,73.6L90.2,73.9L89.6,74.3L87.4,74.8L86.8,75.1L84.4,75.6L84.1,75.7L79.4,76.7L79.0,76.9L76.6,77.0L76.2,76.6L77.0,76.1L85.4,73.0L86.4,72.8L89.2,71.6L90.0,71.6Z M91.9,73.1L92.0,72.0L92.2,71.7L92.7,71.5L99.8,71.5L99.9,71.5L100.0,71.9L97.6,72.4L96.7,72.5L96.1,72.8L94.9,72.9L94.4,73.2L92.7,73.5L92.3,73.5Z M66.6,52.3L66.9,52.4L66.8,86.0L66.5,86.4L66.1,86.5L62.2,86.5L61.9,86.3L61.7,85.7L61.8,81.4L61.7,79.7L61.7,78.0L61.8,77.0L61.7,64.0L61.9,55.2L62.2,54.9L62.8,54.7L65.1,54.7L65.8,54.0L65.8,53.5Z M46.4,51.0L46.6,51.0L46.9,51.4L47.3,52.0L47.7,53.0L47.5,53.3L46.5,53.3L46.1,52.9L46.2,51.3Z M63.9,48.5L64.2,48.8L64.4,49.3L64.3,52.9L63.9,53.3L62.7,53.3L62.4,53.2L62.2,52.7L62.5,51.2L62.7,50.6L62.8,49.4L63.0,48.9L63.3,48.6Z M47.6,48.3L61.1,48.3L61.5,48.7L61.5,49.2L61.3,50.1L61.2,51.0L60.8,51.9L60.6,53.4L60.7,55.1L60.5,62.4L60.5,71.7L60.7,79.7L60.5,80.4L60.5,87.7L61.3,89.9L62.1,91.5L62.2,92.4L61.8,92.8L48.3,92.6L46.8,92.7L46.3,92.5L45.9,92.0L46.3,91.0L49.1,88.1L49.4,87.5L49.4,77.4L49.5,54.2L49.2,52.8L48.9,52.4L48.6,51.6L47.8,50.3L47.7,49.9L47.2,49.0L47.2,48.6Z M66.9,43.3L67.2,43.5L67.2,43.9L67.1,46.7L66.8,47.8L66.5,48.3L66.3,49.5L66.0,49.8L65.8,49.8L65.5,49.5L65.6,46.8L66.5,44.1L66.5,43.7L66.7,43.3Z M34.4,40.1L35.0,40.4L35.7,41.5L37.5,43.9L37.6,44.2L38.2,45.1L40.2,48.2L41.2,49.4L42.0,50.8L42.4,51.2L44.5,54.4L45.4,54.7L47.7,54.8L48.1,55.3L48.2,56.2L48.1,79.1L48.0,86.1L47.7,86.3L47.3,86.4L44.3,86.5L34.9,93.4L34.4,93.4L34.1,93.0L34.2,91.1L34.0,77.6L34.0,40.4Z M66.9,31.5L67.2,31.7L67.3,32.4L67.2,37.5L66.3,39.7L66.2,40.7L65.8,41.7L65.8,42.2L65.4,43.1L65.3,43.8L64.5,45.7L64.5,46.0L64.2,46.5L63.9,46.6L63.5,46.4L63.5,46.0L63.7,45.7L63.9,44.3L64.2,43.4L64.2,42.8L64.7,41.0L64.8,40.1L65.1,39.1L65.4,37.3L65.7,36.2L66.0,34.2L66.3,33.3L66.5,32.2Z M34.3,28.1L34.7,28.2L35.0,28.5L35.5,29.7L35.8,30.1L37.0,32.4L37.6,33.5L38.4,35.1L38.6,35.4L39.4,36.9L41.1,39.9L42.3,42.5L44.4,46.2L44.7,47.5L44.8,51.2L44.4,51.5L44.1,51.4L43.7,51.0L43.7,50.8L42.8,49.7L42.6,49.2L41.4,47.7L40.8,46.6L40.1,45.7L39.4,44.4L38.7,43.7L38.7,43.5L36.2,39.8L35.8,39.4L34.3,36.9L34.1,34.7L34.1,28.3Z M26.7,25.4L31.5,25.3L32.0,25.5L32.3,25.8L32.4,32.4L32.3,33.0L32.2,33.2L31.7,33.1L31.4,32.8L30.3,31.3L29.9,30.5L26.7,25.8Z M74.3,25.2L74.7,25.6L74.7,26.0L72.6,31.2L70.8,36.9L69.9,39.0L69.9,39.3L69.4,40.5L69.0,40.9L68.9,40.9L68.7,40.7L68.5,40.1L68.7,36.7L69.6,33.9L69.8,32.9L71.0,29.4L71.0,29.0L71.5,27.7L71.5,27.1L71.7,26.4L72.0,26.0L72.0,25.7L72.6,25.2Z M69.9,25.2L70.3,25.3L70.6,25.6L70.6,25.9L69.5,29.6L69.2,30.2L68.9,30.2L68.7,29.2L68.7,25.7L69.3,25.3Z M74.9,17.4L75.0,17.9L74.9,23.0L74.3,23.3L73.3,23.3L72.9,23.0L73.1,21.9L73.4,21.1L74.0,18.6L74.6,17.4Z M26.2,12.7L26.6,12.8L27.2,13.5L28.5,16.4L30.4,19.3L31.6,22.3L32.0,22.8L32.0,23.3L31.8,23.4L26.7,23.4L26.4,23.2L26.2,21.6L26.2,14.7L26.0,13.6L26.1,12.8Z M28.1,11.3L28.6,11.1L29.9,11.2L37.0,11.0L45.0,11.1L53.6,11.0L72.9,11.0L74.3,11.0L74.6,11.4L74.6,11.9L72.7,18.1L72.6,19.2L72.2,19.8L72.1,20.7L71.7,21.5L71.7,22.3L71.3,22.9L70.8,23.3L67.6,23.4L67.1,23.8L66.3,26.8L66.2,27.7L65.6,29.6L65.4,31.5L65.0,32.5L64.6,35.1L64.4,35.9L64.4,36.3L64.1,36.8L64.0,37.6L63.5,39.9L63.5,40.6L63.1,41.8L63.0,42.6L62.6,43.3L62.6,44.0L62.3,45.6L61.7,46.8L46.8,46.9L45.9,46.4L45.2,45.1L42.6,39.8L41.4,37.8L40.9,36.6L40.3,35.7L39.9,34.6L39.4,34.1L37.6,30.2L36.2,27.8L35.8,26.7L35.1,25.7L35.0,25.3L33.0,21.5L32.2,19.8L31.4,18.6L30.7,16.9L30.0,16.0L29.6,14.9L27.9,11.6Z" fill="#000" fill-rule="evenodd"/>
</svg>