<svg xmlns="http://www.w3.org/2000/svg" viewBox="0 0 128 128" width="128" height="128">
  <path d="M9.5,66.4L9.3,66.9L9.2,75.3L9.2,82.6L9.5,83.1L9.9,83.3L26.1,83.4L26.6,83.1L26.8,82.8L26.8,72.6L26.9,71.1L26.9,66.9L26.5,66.4L20.2,66.4L19.4,66.3L18.3,66.4L9.9,66.3Z M68.6,47.8L68.6,63.7L68.6,64.1L68.9,64.5L71.1,64.7L72.4,64.5L75.6,64.5L80.7,64.6L84.9,64.5L85.6,64.7L91.8,64.6L93.5,64.8L114.8,64.8L117.7,64.9L118.2,64.9L118.6,64.5L118.8,61.0L118.8,59.2L119.1,48.3L118.8,47.8L107.3,47.6L102.6,47.7L90.1,47.4L85.6,47.5L83.1,47.3L69.3,47.3Z M30.3,47.0L29.7,47.3L29.5,48.5L29.2,67.4L29.0,72.9L29.0,82.1L28.9,84.6L28.9,100.0L29.2,100.4L29.5,100.4L45.4,100.4L45.6,100.4L46.0,99.9L46.1,98.3L46.0,93.9L46.1,91.2L46.1,87.6L46.2,82.8L46.2,76.1L46.5,62.4L46.5,55.2L46.7,53.2L46.8,47.8L46.4,47.3L45.8,47.1L34.7,47.1L32.4,47.0Z M86.1,28.2L85.8,28.7L85.7,29.0L85.6,38.5L85.4,39.9L85.4,44.1L85.5,45.1L86.1,45.4L101.6,45.5L102.0,45.3L102.3,44.8L102.5,34.6L102.4,28.6L102.1,28.3L101.1,28.1L93.8,28.2L91.8,28.0L87.9,28.0Z M49.7,27.9L49.3,28.3L49.2,29.0L49.2,35.7L49.1,40.3L49.2,43.3L49.0,44.1L48.9,55.1L48.8,58.1L48.8,63.1L48.6,67.4L48.7,69.6L48.5,73.3L48.5,83.1L48.7,83.4L49.2,83.8L51.0,83.9L65.5,83.8L67.2,83.9L76.9,83.9L79.1,84.1L101.4,84.1L101.9,83.3L101.8,82.5L101.8,74.8L101.9,68.0L101.9,67.2L101.5,66.7L94.9,66.7L91.7,66.9L80.8,66.7L68.6,66.7L66.8,66.6L66.2,66.3L66.1,65.3L66.0,63.4L66.2,46.6L66.4,44.1L66.4,36.6L66.5,34.7L66.4,28.3L66.1,28.0L65.4,27.8L63.3,27.9L59.7,27.7L51.1,27.7Z" fill="#000" fill-rule="evenodd"/>
</svg>