<svg xmlns="http://www.w3.org/2000/svg" viewBox="0 0 128 128" width="128" height="128">
  <path d="M80.0,11.6L79.8,11.9L79.9,12.6L79.6,17.6L79.7,19.1L79.6,20.8L79.6,31.0L79.4,44.7L79.5,48.6L79.3,59.8L79.3,88.4L79.7,88.8L80.4,88.9L81.7,88.8L84.1,89.0L100.9,88.9L103.9,89.0L108.2,88.9L109.8,89.0L112.0,88.8L112.3,88.6L113.9,85.1L114.0,84.6L114.4,83.4L114.6,82.6L115.3,80.7L115.5,79.8L115.7,79.4L116.0,78.2L116.3,77.4L117.5,70.8L117.5,70.0L117.7,69.0L118.0,67.0L118.1,64.2L118.1,61.4L117.7,56.6L117.0,52.6L117.0,52.1L116.8,51.3L116.7,50.2L116.0,47.8L115.8,46.8L114.8,44.6L114.4,43.0L113.8,41.8L113.6,41.0L113.1,39.9L112.4,38.7L112.1,38.1L111.5,37.1L111.3,36.6L110.5,35.6L109.2,33.4L105.2,28.0L100.8,23.4L97.0,20.2L95.4,19.0L90.6,15.9L87.6,14.3L87.2,14.2L86.5,13.8L83.8,12.6L81.1,11.7Z M60.4,9.1L55.9,9.6L52.3,10.3L46.9,11.8L46.5,12.1L45.9,12.2L45.6,12.5L42.4,13.6L37.9,15.9L33.1,19.0L32.3,19.7L30.8,20.6L28.8,22.5L28.0,23.0L24.4,26.6L21.3,30.3L21.1,30.8L20.4,31.6L19.2,33.4L18.6,34.2L18.0,35.5L17.1,36.8L16.6,37.9L16.4,38.2L14.9,41.0L14.4,42.5L13.9,43.6L13.5,45.0L13.1,45.8L12.8,47.3L12.4,48.2L12.1,49.6L11.2,52.8L11.1,54.1L10.8,54.7L10.8,55.5L10.6,56.6L10.4,59.3L10.2,59.9L10.1,63.3L10.4,63.6L10.6,63.7L40.7,63.7L46.5,63.8L50.4,63.8L58.0,63.8L61.0,64.0L62.4,63.9L62.8,64.5L62.8,77.5L62.6,78.5L62.4,78.8L57.9,79.2L40.8,79.0L22.0,79.0L17.6,79.2L17.2,79.4L17.1,80.2L16.9,88.0L17.2,88.7L17.6,88.9L54.0,89.1L54.4,89.6L54.5,92.4L54.5,103.1L54.4,104.2L54.0,104.4L50.6,104.3L46.8,104.5L30.2,104.5L28.1,104.6L28.1,105.0L29.1,106.0L29.9,106.6L30.7,107.4L31.5,107.8L32.0,108.4L34.8,110.2L35.2,110.6L35.9,111.0L37.2,111.8L37.8,112.1L41.9,114.3L43.0,114.7L43.5,115.0L44.1,115.2L44.4,115.4L46.0,115.9L47.5,116.6L49.5,117.0L50.4,117.4L51.2,117.5L52.9,118.0L53.7,118.1L54.4,118.3L55.0,118.3L55.7,118.6L58.1,118.9L61.4,119.0L62.2,119.1L68.3,119.0L72.8,118.5L75.2,118.0L76.4,117.6L78.5,117.3L80.0,116.6L82.0,116.1L84.9,114.9L85.6,114.7L89.2,112.9L90.0,112.2L90.6,112.1L92.7,110.8L97.4,107.4L99.4,105.5L99.7,104.9L99.4,104.6L98.4,104.6L92.3,104.5L66.2,104.6L64.4,104.5L64.0,104.2L63.9,100.9L64.0,94.1L63.8,74.0L64.0,57.0L63.8,55.7L64.0,40.5L63.9,33.5L64.1,25.5L64.2,9.5L63.6,9.1Z" fill="#000" fill-rule="evenodd"/>
</svg>