<svg xmlns="http://www.w3.org/2000/svg" viewBox="0 0 128 128" width="128" height="128">
  <path d="M35.6,41.4L35.3,41.7L35.1,42.4L35.0,61.9L35.2,65.0L35.2,81.1L35.4,93.4L35.4,104.9L35.3,112.6L35.4,118.3L35.7,118.5L36.7,118.7L47.5,119.0L61.2,118.9L69.5,119.1L78.1,119.0L92.3,119.2L93.3,119.0L93.4,118.8L93.4,102.6L93.7,96.8L93.7,91.0L93.6,90.6L93.4,90.5L91.6,90.2L87.7,90.2L81.8,90.0L70.6,90.0L67.8,89.8L62.9,89.8L62.6,89.8L62.1,89.4L62.1,42.5L61.9,41.8L61.3,41.5L57.0,41.6L52.2,41.4L40.3,41.3Z M34.9,9.2L34.7,9.5L34.6,16.8L34.6,35.2L34.7,35.6L34.9,35.9L36.2,36.1L53.1,36.3L61.2,36.5L63.3,36.4L65.4,36.5L66.4,36.7L66.9,37.0L66.9,49.8L66.8,52.1L66.9,84.1L67.4,84.4L68.5,84.3L70.9,84.5L83.0,84.4L92.5,84.6L93.0,84.4L93.3,76.7L93.2,74.6L93.5,45.1L93.4,42.5L93.6,40.6L93.5,37.9L93.7,11.9L93.5,10.2L93.2,10.0L92.7,9.9L90.9,9.9L89.6,9.8L87.4,9.9L82.2,9.7L73.8,9.7L69.9,9.5L56.4,9.5L48.8,9.2L47.6,9.3L46.0,9.2Z" fill="#000" fill-rule="evenodd"/>
</svg>