<svg xmlns="http://www.w3.org/2000/svg" viewBox="0 0 128 128" width="128" height="128">
  <path d="M62.1,48.0L59.2,48.7L55.5,50.8L53.0,53.3L52.2,54.2L51.1,56.0L50.5,57.3L49.6,60.0L49.2,63.6L49.5,66.7L50.6,70.1L51.1,71.2L53.2,74.1L55.5,76.3L57.5,77.6L59.6,78.6L61.7,79.2L63.5,79.5L67.9,79.4L69.2,78.9L70.3,78.7L70.7,78.5L72.2,77.9L74.7,76.3L76.4,74.8L78.6,72.0L79.1,70.8L79.5,70.4L80.7,66.5L80.9,62.7L80.6,61.3L80.6,60.6L79.9,58.0L79.4,56.9L79.1,56.6L78.3,54.9L77.3,53.9L77.0,53.3L75.3,51.6L73.2,50.0L69.7,48.4L68.4,48.2L67.4,47.9L64.8,47.7Z M49.8,9.6L49.2,10.2L49.0,10.6L48.9,11.9L49.1,40.0L49.0,41.6L49.1,44.0L49.4,44.8L50.1,45.2L81.2,45.2L82.6,45.4L83.1,46.1L83.4,58.3L83.3,64.2L83.5,65.2L83.4,81.3L83.6,91.6L83.6,113.2L83.8,117.7L84.0,118.3L84.7,118.7L96.8,118.7L99.4,118.6L116.4,118.6L118.4,118.2L118.8,117.4L118.9,116.1L118.9,101.6L118.7,91.4L118.8,72.7L118.6,63.9L118.8,62.3L118.8,59.5L118.6,57.5L118.7,49.7L118.6,31.9L118.6,29.4L118.5,27.3L118.5,11.3L118.4,10.4L118.1,9.9L117.3,9.4L115.7,9.4L82.3,9.4L78.6,9.6L59.8,9.4Z M10.1,9.5L9.7,9.8L9.4,10.7L9.4,20.7L9.7,22.2L9.4,23.1L9.4,41.0L9.3,46.9L9.4,59.4L9.4,100.9L9.5,109.1L9.4,112.7L9.6,113.7L9.4,116.9L9.8,118.3L10.2,118.6L10.7,118.8L34.2,118.9L40.5,118.7L50.1,118.9L76.5,118.8L78.0,118.7L78.6,118.6L79.0,118.0L79.3,116.1L79.3,86.4L79.2,84.9L78.9,83.9L77.8,83.3L46.2,83.2L45.4,82.6L45.2,82.1L45.0,44.9L45.2,36.0L45.1,28.9L45.3,27.8L45.1,27.2L45.1,12.9L44.9,10.4L44.3,9.7L43.5,9.4L11.3,9.4Z" fill="#000" fill-rule="evenodd"/>
</svg>