<svg xmlns="http://www.w3.org/2000/svg" viewBox="0 0 128 128" width="128" height="128">
  <path d="M112.7,16.1L109.8,13.5L107.3,12.3L105.6,11.8L104.9,11.7L103.2,10.9L101.0,10.7L99.6,10.4L98.5,10.4L97.2,10.1L93.0,9.9L92.3,9.7L82.0,9.8L75.6,10.5L69.5,11.9L69.2,12.1L68.0,12.5L65.8,13.6L63.2,15.5L60.5,18.8L59.4,20.5L58.7,22.8L58.4,23.3L58.1,24.5L57.8,24.9L57.3,28.9L56.9,30.5L56.9,31.9L56.7,32.8L56.6,50.0L56.1,50.3L53.8,50.4L45.7,50.4L36.3,50.0L35.7,49.8L34.8,49.8L33.8,49.5L32.1,49.3L31.6,49.0L30.4,48.8L28.5,48.3L28.0,47.9L27.3,47.7L26.6,47.3L25.3,46.3L24.5,45.5L24.3,44.9L23.9,44.3L22.9,41.6L22.7,25.3L22.8,24.1L22.6,23.1L22.8,13.0L22.5,12.6L22.0,12.5L19.1,12.7L10.3,12.7L9.8,12.9L9.6,13.5L9.5,14.7L9.4,22.5L9.6,38.1L9.8,41.5L9.7,42.5L10.0,44.1L10.3,46.7L10.6,47.1L10.8,48.0L12.2,51.1L13.8,53.2L17.4,56.8L18.5,57.4L18.9,57.8L19.5,58.1L20.2,58.6L24.0,60.3L28.9,61.7L30.1,61.8L32.1,62.3L33.2,62.3L36.0,62.8L38.4,62.9L39.8,63.2L41.4,63.2L42.9,63.4L47.7,63.5L49.6,63.7L56.1,63.7L56.7,64.2L56.8,64.8L56.9,69.5L56.7,69.6L56.3,69.6L54.0,68.7L53.4,68.6L52.4,68.0L50.6,67.3L48.5,66.9L48.3,66.7L45.8,66.2L43.4,65.9L39.7,65.8L35.8,66.3L34.5,66.3L33.7,66.5L32.7,66.6L30.2,67.4L29.7,67.7L29.3,67.7L28.4,68.1L27.6,68.3L24.2,70.0L21.1,72.0L19.7,73.1L16.4,76.5L14.9,78.4L13.3,81.2L12.9,82.4L12.4,83.2L11.3,86.3L11.1,87.5L10.7,88.4L10.6,89.3L10.1,91.0L9.8,92.7L9.5,97.0L9.4,111.6L9.6,114.5L9.6,118.2L9.9,118.6L20.7,118.5L22.9,118.3L23.2,114.3L23.1,98.3L23.4,96.1L23.4,94.3L23.7,93.4L24.0,91.4L24.3,90.2L24.7,89.5L24.8,88.9L26.0,86.5L27.6,84.4L29.8,82.3L31.0,81.7L32.0,80.9L33.9,80.1L35.7,79.6L36.2,79.3L40.1,79.1L44.5,79.6L45.8,80.2L46.7,80.4L47.1,80.7L48.0,80.9L49.0,81.7L50.0,82.1L52.4,83.9L53.2,84.8L54.5,86.8L55.7,89.0L56.2,91.1L56.5,91.6L56.8,93.0L57.1,93.5L57.5,97.3L57.4,101.9L57.6,118.0L57.7,118.2L58.2,118.3L71.0,118.4L71.3,118.1L71.2,103.0L71.4,96.8L72.1,92.1L73.4,88.7L74.7,86.3L76.2,84.3L78.0,82.4L79.6,81.2L81.0,80.4L84.4,79.2L85.7,78.9L88.9,78.9L89.5,79.1L91.1,79.2L94.3,80.0L96.1,80.7L98.0,81.7L101.1,84.4L102.8,86.7L104.2,89.3L104.7,90.9L104.8,91.9L105.4,94.5L105.4,96.5L105.5,97.2L105.7,113.3L105.9,118.1L106.3,118.3L109.1,118.3L110.4,118.5L118.7,118.4L118.9,117.0L118.7,109.1L118.7,96.0L118.3,94.2L118.3,93.1L118.1,91.9L117.8,89.3L116.8,87.1L116.7,86.1L114.6,81.5L112.2,77.9L110.3,75.7L106.4,71.8L103.6,69.7L98.6,67.2L97.0,66.8L95.9,66.4L93.1,65.8L89.5,65.5L84.0,65.7L78.7,66.8L75.8,67.9L75.5,68.1L75.0,68.2L74.1,68.7L73.0,69.1L72.4,69.1L72.1,68.7L72.1,65.0L72.2,64.5L72.8,64.0L74.5,63.8L79.3,63.7L80.0,63.5L81.1,63.6L82.0,63.4L85.7,63.2L87.3,63.3L88.1,63.2L91.0,63.2L93.2,62.9L95.9,63.0L96.3,62.9L97.2,62.4L98.5,62.4L99.3,62.1L100.3,62.1L101.8,61.6L104.0,61.0L105.0,60.5L105.7,60.3L108.8,58.6L112.2,56.1L114.2,54.0L114.7,53.2L116.2,51.3L117.3,48.8L117.5,47.9L117.9,47.2L118.2,45.7L118.7,42.5L118.9,39.9L118.9,33.7L118.6,31.9L118.5,29.5L118.1,26.2L117.5,24.7L117.4,23.8L115.5,20.0L115.1,19.4L114.4,18.2Z M105.3,27.7L106.2,29.5L107.1,32.7L107.2,35.5L106.8,39.2L106.3,41.0L106.0,41.5L105.8,42.5L104.7,44.7L103.3,46.4L102.2,47.4L100.6,48.3L99.5,48.6L97.8,49.3L92.4,50.1L85.7,50.4L81.8,50.4L80.2,50.6L73.4,50.6L71.9,50.4L71.7,50.0L71.6,48.2L71.6,29.5L71.9,27.8L72.4,26.5L73.4,25.1L74.3,24.3L75.8,23.4L77.2,23.0L78.8,22.6L81.0,22.3L83.2,22.3L84.5,22.1L88.8,22.2L95.3,22.7L99.1,23.4L101.4,24.2L103.9,26.1Z" fill="#000" fill-rule="evenodd"/>
</svg>