<svg xmlns="http://www.w3.org/2000/svg" viewBox="0 0 128 128" width="128" height="128">
  <path d="M105.3,9.2L100.9,9.1L97.2,9.3L85.8,9.4L76.5,9.2L66.8,9.2L65.1,9.4L62.9,9.3L49.5,9.5L24.9,9.4L22.6,9.5L22.3,9.6L22.3,31.2L22.5,42.4L22.3,51.8L22.2,79.3L22.4,81.1L22.6,89.6L22.5,102.1L22.7,110.2L22.6,118.3L22.8,118.9L23.2,119.0L26.5,119.1L40.2,118.9L102.0,119.0L105.3,118.9L105.6,118.6L105.7,118.0L105.5,116.7L105.5,113.2L105.7,111.3L105.8,106.3L105.7,96.3L105.8,91.6L105.9,90.2L105.9,86.4L105.6,73.7L105.6,11.6L105.5,9.5Z M28.7,65.8L29.7,65.5L34.1,65.6L34.3,66.2L34.3,67.7L34.6,68.3L35.1,71.5L35.4,72.0L35.5,72.7L35.8,73.3L35.9,73.9L36.2,74.4L37.2,76.8L39.1,80.1L40.6,82.2L42.6,84.5L45.1,86.7L48.1,88.9L48.8,89.3L49.7,89.9L52.7,91.3L52.9,91.3L54.4,92.0L56.4,92.5L57.3,92.6L58.6,92.9L59.2,92.9L60.0,93.2L61.7,93.3L62.5,93.6L62.6,93.9L62.6,109.7L62.5,112.7L62.2,113.1L60.3,113.2L50.2,113.1L29.0,113.2L28.5,112.9L28.3,110.6L28.3,105.4L28.2,101.1L28.3,89.4L28.2,78.4L28.4,71.1L28.3,68.2L28.5,66.1Z M99.6,65.5L99.8,65.7L99.9,104.3L99.8,111.9L99.7,112.8L99.5,113.0L96.6,113.2L90.0,113.0L79.2,113.2L67.4,113.1L66.9,113.2L64.4,113.0L64.2,112.6L64.3,108.9L64.2,95.8L64.4,93.8L64.7,93.5L66.9,93.4L68.3,93.1L70.4,92.9L70.7,92.7L72.1,92.4L73.8,91.8L74.7,91.6L76.2,90.8L76.7,90.7L77.1,90.4L77.7,90.3L77.9,90.0L79.4,89.4L80.2,88.7L80.7,88.5L82.5,87.2L85.2,84.7L87.0,82.9L89.3,79.9L90.2,78.5L90.4,77.8L91.1,76.6L92.5,73.1L92.6,72.5L93.0,71.6L93.3,69.9L93.6,69.2L93.8,66.8L94.1,65.7L94.6,65.4Z M40.2,65.6L40.7,65.5L41.7,65.5L62.0,65.4L62.3,65.8L62.3,79.9L62.5,83.9L62.4,87.3L62.2,87.5L61.1,87.5L60.6,87.3L60.0,87.3L59.0,87.0L57.6,86.8L57.3,86.6L54.7,85.9L51.6,84.4L50.1,83.3L49.8,83.2L47.7,81.5L45.7,79.4L44.0,77.2L43.1,75.8L42.5,74.3L42.1,73.9L41.0,70.8L40.8,69.9L40.6,69.5L40.5,68.6L40.0,66.6Z M64.5,87.2L64.3,84.6L64.4,79.8L64.2,77.0L64.3,67.3L64.7,65.7L65.0,65.4L67.0,65.3L73.7,65.5L82.0,65.3L87.5,65.5L87.9,65.5L88.1,65.7L88.1,66.4L87.9,66.9L87.6,69.0L87.0,70.9L86.8,71.1L86.6,72.1L86.3,72.6L86.2,73.1L85.5,74.3L85.3,75.1L84.6,76.4L83.3,78.0L82.8,78.8L79.7,81.9L76.8,84.0L74.5,85.3L73.8,85.5L73.5,85.7L72.5,86.0L71.9,86.3L70.5,86.8L65.9,87.6L64.7,87.5Z M68.5,40.9L68.8,40.6L69.1,40.5L70.3,40.7L71.0,41.0L71.8,41.2L72.5,41.5L73.3,41.7L74.6,42.1L78.3,44.3L81.1,46.6L82.1,47.7L82.1,47.8L83.1,49.1L83.8,49.9L84.7,51.2L85.5,52.8L85.7,53.0L85.8,53.4L86.3,54.4L86.8,55.8L87.2,56.8L87.6,58.4L87.9,58.7L87.9,59.3L87.6,59.5L87.3,59.6L72.3,59.5L70.5,59.8L68.8,59.7L68.4,59.3L68.4,58.1L68.2,57.1L68.4,51.1L68.3,42.2Z M62.1,40.3L62.4,40.8L62.3,63.3L61.9,63.6L45.3,63.6L43.1,63.7L42.0,63.9L40.4,63.8L40.1,63.4L40.1,61.2L40.8,57.7L41.2,56.1L41.9,54.8L42.1,54.1L43.2,52.1L43.4,51.6L43.9,50.7L44.7,49.9L44.8,49.5L45.6,48.4L48.5,45.6L49.5,44.7L52.1,43.0L54.8,41.7L56.8,41.2L58.1,40.7L60.5,40.1L61.7,40.1Z M62.1,15.0L62.3,15.2L62.3,33.8L62.0,34.1L60.4,34.3L59.4,34.3L57.9,34.8L56.3,35.1L51.6,36.7L47.7,39.0L46.4,39.9L45.6,40.6L44.5,41.2L42.5,43.2L40.3,45.9L39.8,46.7L39.0,47.7L37.9,49.7L37.6,50.0L37.1,50.9L36.9,51.6L36.2,52.9L36.1,53.5L35.8,54.1L35.1,56.0L35.1,56.8L34.7,57.8L34.7,58.8L34.3,60.0L34.2,63.4L33.8,63.8L28.7,63.7L28.5,63.3L28.4,62.7L28.4,50.6L28.2,46.4L28.2,31.3L28.5,26.2L28.3,22.6L28.4,15.2L28.6,14.9L32.4,15.0L33.0,15.2L50.8,14.9Z M68.5,15.1L75.5,15.0L82.2,14.8L87.4,14.8L92.0,14.7L96.0,14.7L97.8,14.8L99.4,14.8L99.7,15.0L99.8,15.6L99.8,19.0L99.9,24.0L99.8,59.0L99.8,59.5L99.6,59.7L97.7,59.9L94.9,59.7L94.2,59.8L93.8,59.4L93.6,59.0L93.4,57.3L93.0,55.7L92.6,54.8L92.4,53.9L91.7,52.5L91.1,50.8L90.3,49.6L90.1,49.0L88.4,46.3L87.0,44.5L84.3,41.7L82.7,40.3L81.0,39.3L78.5,37.6L78.0,37.4L77.6,37.1L77.1,37.0L75.7,36.2L75.2,36.1L74.3,35.7L73.3,35.6L72.1,35.1L71.7,35.1L70.5,34.7L68.9,34.3L68.6,34.1L68.4,33.8L68.5,30.9L68.3,29.8L68.5,25.6L68.4,18.9L68.2,15.5Z" fill="#000" fill-rule="evenodd"/>
</svg>