<svg xmlns="http://www.w3.org/2000/svg" viewBox="0 0 128 128" width="128" height="128">
  <path d="M117.7,10.7L117.0,10.5L112.1,10.4L105.3,10.5L104.2,10.3L95.2,10.3L90.8,10.1L87.2,10.2L78.6,10.0L75.8,10.1L70.7,9.9L65.4,9.9L62.7,9.7L55.8,9.8L54.6,9.6L49.2,9.6L48.6,10.1L48.4,12.8L48.6,19.7L48.7,44.8L48.9,52.1L48.9,78.4L49.3,79.8L49.7,80.1L50.8,80.2L79.2,80.2L79.8,80.1L80.2,79.7L80.1,42.5L80.2,42.1L80.5,41.8L82.0,41.6L100.3,41.7L105.1,41.9L118.0,41.8L118.2,41.3L118.3,35.0L118.1,25.9L118.2,19.2L118.0,11.2Z M10.1,9.4L9.6,10.0L9.5,14.1L9.7,14.9L9.6,21.6L9.8,25.7L9.8,33.3L10.0,39.5L9.9,45.6L10.4,74.2L10.3,76.9L10.5,85.0L10.4,87.8L10.6,98.3L10.6,115.8L10.7,118.1L10.9,118.5L11.5,118.8L13.6,118.9L44.6,118.9L55.2,118.7L77.3,118.8L91.7,118.6L115.6,118.6L118.2,118.4L118.6,117.9L118.7,115.1L118.6,93.6L118.4,92.6L118.6,89.9L118.6,78.1L118.4,72.0L118.5,50.1L118.3,49.5L117.7,49.2L115.9,49.1L103.9,49.1L99.5,48.9L88.3,48.9L87.6,49.3L87.4,49.8L87.6,85.0L87.5,87.2L87.2,87.5L85.4,87.7L80.2,87.8L65.8,87.8L64.8,87.6L56.1,87.6L53.1,87.8L42.1,87.6L41.8,87.3L41.6,86.9L41.4,60.7L41.2,58.1L41.2,28.1L40.9,16.4L41.0,14.5L40.8,10.1L40.2,9.7L39.6,9.6L26.0,9.4Z" fill="#000" fill-rule="evenodd"/>
</svg>