<svg xmlns="http://www.w3.org/2000/svg" viewBox="0 0 128 128" width="128" height="128">
  <path d="M115.2,9.9L114.7,9.9L113.0,11.4L103.8,21.1L102.6,22.2L101.8,23.1L96.4,28.6L92.8,32.4L84.7,40.6L83.8,41.7L81.2,44.2L78.8,46.9L67.9,58.0L66.6,59.5L50.2,75.9L49.4,76.9L46.1,80.1L45.1,81.3L43.1,83.1L39.7,86.8L35.6,90.9L34.7,91.6L33.6,92.9L28.2,98.2L23.4,103.4L11.6,115.2L11.5,115.5L9.6,117.3L9.3,117.7L9.3,118.0L9.5,118.2L11.5,118.4L17.0,118.5L35.6,118.3L38.5,118.4L50.3,118.1L80.6,117.9L85.3,117.7L93.4,117.8L96.7,117.7L100.1,117.7L102.6,117.7L103.3,117.5L104.6,117.6L106.1,117.4L108.2,116.8L110.7,115.8L112.7,114.4L114.9,112.2L115.8,111.2L116.8,109.6L118.0,107.1L118.5,105.5L119.0,103.1L119.0,99.9L118.6,97.2L118.2,96.4L118.0,95.2L117.1,93.2L116.8,92.9L116.5,92.1L114.7,89.8L112.9,88.0L111.0,86.5L108.6,85.4L108.0,85.3L107.4,85.0L105.4,84.7L102.2,84.5L90.3,84.7L89.5,84.5L88.3,83.7L87.9,83.0L87.9,82.0L88.2,81.3L88.9,80.6L89.6,80.3L90.7,80.1L92.7,80.2L100.8,80.0L113.6,80.0L116.4,79.8L116.8,79.2L116.7,67.4L116.6,66.1L116.2,65.5L115.8,65.4L106.3,65.4L93.6,65.7L92.4,65.6L87.8,65.9L84.4,66.5L83.2,67.0L81.4,67.9L79.6,69.1L77.8,70.8L76.3,72.5L76.1,72.9L75.0,74.4L73.8,77.3L73.3,79.0L73.1,80.9L73.1,84.0L73.6,87.0L75.5,91.3L78.4,94.8L81.2,96.8L81.5,96.9L82.1,97.4L83.2,97.9L84.5,98.4L86.7,98.8L87.5,98.8L88.1,99.0L91.6,99.1L102.7,99.1L103.8,99.9L104.2,101.0L104.2,101.4L103.9,102.1L103.3,102.9L102.2,103.2L99.4,103.4L81.0,103.5L76.7,103.7L53.9,103.9L47.2,104.0L44.0,104.0L43.8,103.9L43.8,103.3L50.6,96.5L57.7,89.1L68.6,78.2L79.6,66.8L95.0,51.3L95.3,50.7L97.4,48.8L98.2,47.9L102.7,43.3L105.7,40.1L111.2,34.6L115.6,29.8L116.0,29.0L115.9,19.6L115.7,17.9L115.6,10.8Z" fill="#000" fill-rule="evenodd"/>
</svg>