<svg xmlns="http://www.w3.org/2000/svg" viewBox="0 0 128 128" width="128" height="128">
  <path d="M109.2,27.0L108.9,26.8L106.2,26.8L103.5,27.0L94.5,27.0L91.0,27.1L90.0,27.0L80.2,27.2L79.5,27.6L78.8,29.3L77.9,30.6L77.5,31.7L77.2,32.0L75.8,34.6L75.6,35.2L74.5,37.1L74.2,37.8L74.0,38.0L73.8,38.5L72.7,40.4L72.5,41.0L71.8,42.2L71.5,42.9L70.8,44.0L70.6,44.6L70.4,44.8L69.3,47.0L67.2,50.7L65.7,53.9L64.5,56.0L64.4,56.3L63.6,57.6L63.4,58.3L62.7,59.3L62.5,59.7L62.2,60.3L62.0,60.8L61.8,61.0L61.6,61.5L60.9,62.6L60.2,64.1L59.9,64.5L58.4,67.6L57.2,69.7L56.7,70.9L56.4,71.2L55.7,72.7L55.5,73.0L53.8,76.2L53.2,77.1L52.5,78.8L51.8,79.8L51.6,80.5L51.2,81.0L50.7,82.1L50.0,83.2L49.9,83.6L48.6,85.8L48.5,86.4L46.2,90.5L45.9,90.9L45.4,92.1L44.8,92.9L43.7,95.2L43.3,95.5L42.7,95.7L40.7,95.7L35.9,95.7L33.6,95.8L29.3,95.8L28.6,95.7L28.4,95.4L28.4,95.0L29.0,93.6L29.5,92.9L30.3,91.1L30.5,90.9L31.1,89.5L32.9,86.4L33.1,85.9L33.8,84.8L35.3,81.6L35.9,80.7L37.1,78.1L38.7,75.4L39.6,73.5L39.9,73.1L41.1,70.7L41.5,70.3L41.7,69.6L42.0,69.2L42.9,67.3L43.2,66.9L43.5,66.1L45.1,63.4L45.9,61.6L47.8,58.4L48.4,57.0L48.8,56.6L49.4,55.1L51.0,52.3L52.8,48.7L54.2,46.3L54.5,45.5L54.7,44.7L54.4,44.5L54.0,44.4L19.9,45.0L19.4,44.8L19.2,44.6L19.4,43.7L20.1,42.3L21.6,39.6L22.1,38.4L22.5,37.8L22.8,37.0L24.4,34.3L24.5,34.0L25.0,33.6L25.8,33.5L40.4,33.3L41.2,33.2L42.8,33.3L60.8,33.0L61.4,32.6L61.8,31.9L62.5,30.5L63.2,29.3L63.5,28.6L63.8,28.2L63.8,27.7L63.4,27.5L47.2,27.7L46.2,27.6L43.2,27.8L26.3,28.0L24.1,28.2L21.1,28.2L20.7,28.3L19.5,30.4L18.9,31.6L16.1,36.6L14.8,39.5L13.8,41.3L13.5,41.6L12.7,43.4L11.8,44.7L11.1,46.3L9.5,49.1L9.1,50.0L9.1,50.3L9.4,50.6L14.9,50.7L19.0,50.5L27.4,50.5L28.8,50.3L31.3,50.4L37.8,50.2L44.1,50.2L44.5,50.3L44.6,50.9L42.8,54.4L41.9,55.9L41.7,56.6L41.3,57.0L40.7,58.4L40.1,59.3L39.4,60.8L39.1,61.0L37.2,65.0L36.5,66.1L32.8,73.3L31.0,76.4L30.8,77.0L30.5,77.3L29.5,79.4L29.2,79.8L27.7,82.9L27.3,83.4L27.2,83.7L26.5,85.0L26.4,85.4L25.8,86.4L25.1,87.5L24.9,88.1L24.7,88.4L23.1,91.6L22.8,91.9L22.3,93.0L21.5,94.3L19.5,98.3L18.5,99.9L18.2,100.7L18.3,101.2L18.6,101.4L19.6,101.3L23.0,101.4L29.2,101.3L38.8,101.4L47.0,101.2L47.5,101.0L47.8,100.7L47.9,100.4L48.6,99.4L48.8,98.7L51.2,94.4L51.4,94.0L52.3,92.5L53.2,90.5L53.5,90.3L54.5,88.0L55.4,86.7L56.2,85.0L56.4,84.7L57.4,82.6L57.6,82.4L58.3,80.9L58.5,80.7L59.2,79.1L60.3,77.3L60.8,76.0L61.5,75.1L63.2,71.7L64.0,70.3L64.2,69.6L65.4,67.8L66.4,65.7L67.2,64.3L68.8,61.1L69.4,60.2L71.2,56.4L71.5,56.0L71.9,55.1L73.1,53.1L73.6,51.9L74.5,50.6L77.1,45.3L79.5,41.2L80.9,38.2L81.2,37.8L81.3,37.4L81.6,37.0L83.6,33.3L84.2,32.8L85.2,32.6L90.1,32.6L94.1,32.5L98.7,32.5L99.0,32.8L99.1,33.1L98.6,34.3L97.8,36.0L97.2,36.6L96.9,37.6L95.9,39.4L95.2,41.0L94.8,41.4L94.2,42.6L93.8,43.3L92.3,46.3L91.6,47.4L89.6,51.4L88.9,52.5L87.9,54.7L87.5,55.1L87.5,55.5L87.2,55.7L86.0,58.3L85.4,59.2L84.2,61.6L83.6,62.5L82.5,64.9L81.6,66.3L80.2,69.2L79.8,69.7L79.3,71.0L78.6,72.0L78.3,72.8L78.1,73.0L75.2,78.7L74.2,80.6L73.8,81.3L73.6,81.6L72.8,83.2L72.8,83.7L73.2,83.9L108.2,83.7L108.9,83.9L109.1,84.1L109.1,84.4L107.9,86.7L107.8,87.0L107.5,87.3L107.2,88.2L106.7,88.8L106.1,90.2L105.6,90.9L103.8,94.5L103.5,94.9L103.0,95.1L101.2,95.3L98.8,95.2L93.9,95.4L88.8,95.3L82.3,95.4L66.8,95.4L66.5,95.5L65.9,96.1L64.4,99.2L63.8,100.2L63.6,100.8L63.8,101.0L64.5,101.1L83.9,101.0L89.4,101.0L95.8,100.9L101.0,101.0L106.9,100.9L107.3,100.7L107.8,100.3L110.2,95.9L110.7,94.7L111.0,94.3L111.3,93.5L111.9,92.6L112.5,91.2L112.8,91.0L113.8,88.8L114.5,87.6L114.7,87.0L115.0,86.7L115.8,85.0L116.3,84.2L117.4,81.9L117.9,81.2L119.1,78.7L119.0,78.1L118.5,78.0L111.6,78.0L86.9,78.3L83.5,78.2L83.0,77.8L83.0,77.6L84.3,74.8L85.1,73.6L87.4,69.0L87.6,68.8L88.6,66.7L89.3,65.6L91.5,61.1L92.2,60.0L93.4,57.7L93.9,56.8L95.0,54.5L95.7,53.4L98.0,48.8L100.2,44.8L100.5,44.0L101.3,42.8L102.4,40.5L103.0,39.6L103.5,38.3L105.3,35.2L105.8,34.0L107.1,31.8L108.2,29.5L108.5,29.1L109.2,27.7Z" fill="#000" fill-rule="evenodd"/>
</svg>