<svg xmlns="http://www.w3.org/2000/svg" viewBox="0 0 128 128" width="128" height="128">
  <path d="M11.3,9.9L10.8,10.6L10.7,16.2L10.7,33.3L10.5,36.1L10.6,51.5L10.5,60.5L10.4,97.5L10.5,113.7L10.5,116.0L10.5,117.2L10.8,118.1L11.3,118.3L14.2,118.5L22.0,118.4L24.2,118.6L38.0,118.6L42.8,118.8L60.1,118.7L72.5,118.9L94.7,118.6L102.0,118.7L105.2,118.5L114.2,118.6L116.4,118.5L116.9,118.3L117.3,117.8L117.4,115.8L117.3,110.4L117.0,109.4L116.2,108.9L97.8,108.9L85.1,109.1L75.8,109.1L67.2,108.9L66.2,109.0L56.9,108.8L48.9,108.9L46.3,108.8L43.5,108.8L33.7,108.6L21.0,108.7L20.2,108.1L20.0,106.6L20.1,99.9L20.0,96.0L19.9,87.9L19.9,30.2L20.0,10.8L19.9,10.3L19.5,9.9L18.9,9.7L11.7,9.7Z M117.7,9.8L116.8,9.6L112.4,9.4L106.3,9.4L105.3,9.8L92.1,23.1L89.4,25.9L88.3,26.9L87.8,27.5L84.3,31.0L81.8,33.7L81.2,34.2L79.0,36.4L74.9,40.8L70.9,44.6L62.2,53.8L56.1,60.0L55.4,60.8L44.4,71.8L43.4,73.0L42.4,73.9L42.1,74.3L36.3,80.2L36.1,80.5L33.2,83.3L32.7,83.3L32.5,83.0L32.4,82.4L32.5,65.4L32.5,61.0L32.7,46.9L32.6,42.1L32.8,38.0L32.7,31.0L32.9,23.9L32.9,10.5L32.5,9.8L31.9,9.7L25.6,9.7L24.2,9.7L23.5,10.0L23.2,10.7L23.2,14.8L23.1,18.4L23.1,56.8L22.9,62.9L22.9,105.7L23.3,106.3L23.7,106.3L24.3,105.9L25.7,104.5L26.2,103.8L28.5,101.6L30.4,99.4L38.0,91.8L44.7,84.8L47.4,82.2L49.5,79.9L50.6,78.9L50.8,78.5L51.4,78.0L54.8,74.6L54.9,74.3L57.0,72.4L57.4,71.8L63.3,66.0L68.7,60.4L69.3,60.0L70.7,58.4L72.4,56.9L72.6,56.5L92.5,36.5L93.5,35.3L98.1,30.8L98.3,30.4L105.4,23.4L109.8,18.8L111.6,17.2L117.8,10.7L117.9,10.0Z" fill="#000" fill-rule="evenodd"/>
</svg>