<svg xmlns="http://www.w3.org/2000/svg" viewBox="0 0 128 128" width="128" height="128">
  <path d="M76.3,50.4L76.3,50.7L79.7,56.8L80.0,56.9L81.1,57.1L86.7,57.2L87.2,57.3L87.4,57.5L87.4,57.9L86.1,60.1L86.1,60.4L85.3,61.6L85.2,62.0L83.8,64.3L83.9,64.9L85.0,65.6L85.5,66.0L86.0,66.2L86.5,66.6L88.6,67.9L90.0,68.9L90.7,69.2L91.4,69.7L93.1,70.7L95.4,72.3L98.0,73.7L100.1,75.1L100.4,75.4L101.7,76.1L104.2,77.8L104.6,77.9L106.1,78.9L106.8,79.1L109.7,79.1L111.8,79.2L119.2,79.2L119.2,79.0L118.6,78.6L118.3,78.5L115.6,76.6L114.5,76.1L114.0,75.7L113.6,75.5L111.5,74.1L111.0,73.9L109.4,72.8L107.0,71.4L106.3,70.8L105.3,70.4L104.8,70.0L104.2,69.7L103.5,69.1L103.0,69.0L102.4,68.4L100.6,67.4L99.7,66.8L98.9,66.4L98.6,66.1L97.5,65.5L96.3,64.7L94.5,63.6L93.1,62.5L93.1,62.0L93.4,61.2L94.0,60.3L94.9,58.8L95.2,58.4L96.1,56.6L96.6,55.9L96.8,55.4L99.1,51.6L99.2,51.0L99.0,50.8L94.8,50.6L83.8,50.5L78.3,50.2L76.6,50.2Z M30.9,68.6L30.9,69.1L31.3,69.4L37.9,69.5L38.5,69.3L38.8,69.1L39.8,67.3L40.4,66.2L42.0,63.6L42.2,63.2L43.7,60.4L44.1,59.9L45.2,58.0L45.5,57.7L45.9,57.6L46.5,58.2L46.5,58.3L47.9,60.5L48.3,61.6L48.8,62.2L49.1,62.9L49.4,63.3L49.8,64.0L50.3,64.9L50.6,65.5L51.3,66.5L51.7,67.5L52.1,67.9L53.4,70.3L54.2,71.5L54.4,72.2L55.2,73.4L55.3,73.7L57.0,76.5L57.1,76.8L57.5,77.2L57.7,77.7L58.0,77.8L58.4,77.5L59.1,76.1L59.4,75.7L60.9,72.9L61.6,72.0L61.8,71.5L62.7,70.2L62.9,69.5L63.7,68.4L64.0,67.5L64.7,66.6L65.2,65.4L65.8,64.5L67.1,62.2L67.4,61.6L68.6,59.8L69.2,58.6L69.7,58.0L70.2,57.9L70.9,58.7L71.3,59.5L71.7,60.2L72.1,61.0L72.6,61.6L73.6,63.6L73.9,63.9L74.4,65.1L74.9,65.8L75.8,67.5L76.0,67.7L77.1,69.9L77.9,71.1L79.0,73.3L80.3,75.4L81.8,78.2L82.0,78.4L82.5,78.6L85.5,78.6L88.0,78.7L89.1,78.6L89.5,78.5L89.5,78.1L88.9,77.1L88.7,76.6L88.3,76.0L87.9,75.2L87.1,73.9L86.6,72.8L86.2,72.3L84.7,69.5L83.4,67.1L83.0,66.6L83.0,66.2L82.7,66.0L81.9,64.7L81.3,63.3L80.5,62.2L80.3,61.5L78.5,58.5L78.3,58.0L76.6,55.2L76.4,54.5L75.8,53.8L75.7,53.4L75.4,53.0L74.1,50.5L73.5,50.1L70.9,50.1L69.3,50.0L66.8,50.0L66.4,50.1L64.5,53.0L64.3,53.6L60.5,60.2L60.2,60.7L58.8,63.3L58.5,63.6L58.0,63.6L57.6,63.1L57.4,62.7L57.1,62.2L56.9,61.7L56.1,60.6L55.2,58.7L54.4,57.6L54.3,57.2L54.0,56.9L53.1,55.1L50.5,50.8L50.5,50.4L50.0,49.8L49.6,49.6L42.2,49.4L41.7,49.8L40.6,51.6L40.0,52.7L39.7,53.2L38.3,55.6L38.0,56.4L37.2,57.5L36.0,59.6L35.9,60.0L35.3,60.8L34.4,62.6L33.6,63.8L33.3,64.4L32.7,65.5L32.5,65.8L32.5,66.0Z M9.0,49.2L8.9,49.4L10.2,51.8L10.4,52.2L10.8,52.7L11.0,53.3L12.0,55.0L12.4,55.8L13.1,56.8L13.7,58.0L14.2,58.7L14.4,59.1L14.7,59.6L16.1,62.2L16.5,62.7L16.9,63.6L17.9,65.1L18.2,65.9L19.5,68.0L21.4,71.5L22.1,72.6L22.8,74.0L24.1,76.1L24.3,76.7L25.0,77.6L25.5,77.8L28.0,77.7L29.4,77.9L48.8,77.8L51.9,77.9L53.1,78.0L55.2,77.9L55.4,77.7L55.4,77.5L55.3,77.3L55.2,76.8L52.8,72.4L52.5,72.0L52.0,71.1L51.6,70.8L45.8,70.8L35.1,70.5L30.5,70.5L29.7,70.4L29.1,69.9L27.9,67.7L27.6,67.4L27.2,66.6L26.9,66.2L26.7,65.6L25.9,64.4L25.2,63.0L23.9,60.9L22.7,58.5L22.3,58.2L21.9,57.5L21.4,56.3L21.0,55.8L19.5,53.0L19.2,52.7L19.1,52.3L18.8,51.9L18.4,51.0L18.1,50.6L17.5,49.4L17.2,49.2L16.7,49.0L9.4,48.9Z" fill="#000" fill-rule="evenodd"/>
</svg>