<svg xmlns="http://www.w3.org/2000/svg" viewBox="0 0 128 128" width="128" height="128">
  <path d="M118.8,56.5L118.2,56.1L117.5,56.1L95.3,56.1L94.2,56.1L93.6,56.3L93.3,56.6L93.2,57.5L93.2,70.5L93.6,70.9L93.9,71.0L102.6,71.1L103.2,71.3L103.5,72.1L103.4,78.4L103.1,79.0L102.1,79.2L92.8,79.0L89.5,79.1L86.7,79.0L86.4,78.5L86.3,76.6L86.3,52.4L86.4,49.7L86.9,49.3L88.0,49.2L102.8,49.2L103.4,49.6L103.5,51.2L103.7,51.5L104.5,51.7L108.3,51.6L108.7,51.2L108.8,50.3L108.7,44.5L108.4,44.1L107.9,43.9L82.7,44.1L81.7,44.2L81.4,44.3L81.3,44.5L81.1,45.5L81.1,56.1L80.9,63.3L80.9,82.5L81.2,83.9L81.6,84.2L88.4,84.3L95.6,84.2L98.7,84.4L108.0,84.4L108.4,84.2L108.7,83.8L108.8,81.4L108.8,69.0L108.6,66.4L108.1,65.9L100.0,65.9L99.0,65.7L98.5,65.2L98.6,61.7L98.7,61.5L99.1,61.3L101.1,61.2L112.7,61.3L113.3,61.4L113.6,62.0L113.7,67.3L113.5,75.1L113.5,85.1L113.4,87.1L113.4,88.5L113.0,89.1L112.5,89.2L104.4,89.0L101.5,89.1L91.9,88.9L87.0,88.9L84.2,88.8L76.8,88.7L76.5,88.5L76.3,87.7L76.2,69.3L76.4,46.1L76.3,44.9L76.1,44.5L75.6,44.2L71.2,44.2L54.8,44.3L53.1,44.5L52.7,45.0L52.6,46.2L52.7,53.7L52.5,92.8L52.6,93.3L52.9,93.5L53.3,93.6L56.7,93.6L57.3,93.4L57.5,93.2L57.7,92.7L57.7,55.8L57.8,50.3L57.9,49.9L58.2,49.6L58.7,49.4L60.3,49.3L69.6,49.3L70.6,49.5L71.0,49.8L71.0,50.0L71.1,63.7L70.9,77.0L71.0,83.4L70.8,88.2L70.8,93.5L71.0,93.8L71.2,93.9L76.3,93.8L77.8,94.0L83.9,93.9L104.3,94.2L118.8,94.1L119.0,93.7L119.0,57.5L118.9,56.8Z M118.8,34.4L118.4,34.1L97.0,34.3L91.9,34.4L85.4,34.3L81.0,34.6L76.1,34.5L70.7,34.6L59.3,34.6L58.3,34.8L51.8,34.7L48.8,34.9L29.6,35.0L29.0,35.7L28.9,43.4L29.0,48.6L29.1,49.2L29.6,49.6L42.3,49.6L42.6,49.9L42.8,50.7L42.9,60.2L42.7,64.3L42.7,78.2L42.6,78.5L42.3,78.8L41.3,79.0L25.5,79.0L25.0,79.0L24.5,78.6L24.4,77.0L24.5,39.6L24.4,36.4L24.2,35.4L23.8,35.1L23.3,35.0L10.1,35.2L9.7,35.3L9.5,35.5L9.4,36.4L9.5,51.9L9.5,53.1L9.2,53.5L9.2,53.7L9.5,54.1L9.5,58.0L9.6,61.7L9.6,73.2L9.5,75.5L9.5,83.5L9.4,88.5L9.4,93.2L9.5,93.5L10.1,93.8L10.8,93.7L15.0,93.9L27.1,93.7L46.3,93.8L47.3,93.7L47.7,93.2L47.6,89.0L47.4,88.8L47.1,88.7L15.8,88.7L15.2,88.6L14.8,88.3L14.6,87.7L14.6,71.6L14.7,67.3L14.6,64.7L14.7,61.6L14.7,54.4L14.6,51.4L14.7,49.6L14.7,40.8L15.0,40.4L15.5,40.2L18.5,40.2L19.0,40.5L19.3,41.3L19.2,44.2L19.4,53.0L19.4,83.8L19.6,84.0L20.1,84.2L47.0,84.1L47.5,83.9L47.8,83.5L47.9,81.7L47.9,65.2L48.1,54.4L47.9,50.7L47.9,45.0L47.5,44.5L47.3,44.5L34.8,44.5L34.3,44.1L34.1,43.6L34.1,40.6L34.4,40.3L35.0,40.1L38.0,40.0L42.2,40.1L44.6,39.9L49.8,40.0L52.9,39.8L56.8,39.9L66.2,39.7L71.3,39.8L72.5,39.7L82.0,39.7L82.7,39.5L90.1,39.6L107.0,39.3L112.8,39.4L113.1,39.4L113.4,39.7L113.5,40.1L113.7,44.8L113.7,51.0L113.9,51.3L114.3,51.4L118.5,51.5L118.8,51.4L118.9,50.8L118.9,42.1L119.1,40.4L118.9,39.4L118.9,34.9Z M111.4,36.8L112.1,37.0L112.1,37.3L111.8,37.7L111.3,37.5L111.3,37.0Z" fill="#000" fill-rule="evenodd"/>
</svg>