<svg xmlns="http://www.w3.org/2000/svg" viewBox="0 0 128 128" width="128" height="128">
  <path d="M107.9,70.4L106.4,69.3L104.5,68.5L102.5,67.9L99.2,67.3L97.0,67.2L92.6,67.2L86.1,66.9L84.0,67.0L77.0,66.7L70.8,66.7L69.3,66.6L67.6,66.6L66.9,66.9L66.6,69.0L66.6,71.6L66.5,76.3L66.5,84.9L66.2,96.9L66.3,99.3L66.1,101.0L66.2,103.8L66.0,118.1L66.4,118.6L67.1,118.8L68.6,118.9L73.7,118.9L74.3,118.7L74.4,118.3L74.7,109.6L74.6,107.2L74.8,102.3L74.8,96.5L75.0,93.5L75.0,83.0L75.2,75.5L75.7,75.0L76.5,75.0L97.4,75.4L100.6,76.1L102.1,77.0L103.4,78.3L104.3,80.1L104.6,81.6L104.7,82.9L104.5,84.9L104.0,86.1L103.4,87.2L102.1,88.4L100.6,89.2L99.9,89.2L99.4,89.5L97.5,89.8L80.8,89.4L78.2,89.5L77.9,89.8L77.6,93.4L77.7,96.9L78.1,97.5L78.7,97.6L99.5,97.9L100.4,97.7L101.6,97.7L105.3,96.7L106.8,95.9L108.1,95.0L109.9,93.3L110.9,92.0L112.1,89.8L112.7,87.9L113.3,84.4L113.2,80.2L112.8,78.2L111.7,75.2L110.5,73.0Z M15.2,66.1L15.0,66.9L14.9,72.9L15.0,73.5L15.5,73.8L20.4,74.0L22.3,73.9L25.3,74.1L26.2,74.0L35.6,74.3L50.2,74.4L52.3,74.7L52.6,75.0L52.6,86.7L52.2,118.0L52.6,118.5L53.0,118.6L60.2,118.6L60.6,118.2L60.8,116.9L60.8,104.7L61.1,96.1L61.1,87.1L61.3,82.3L61.3,67.1L60.6,66.6L55.9,66.4L48.5,66.4L46.7,66.2L39.3,66.2L38.2,66.0L29.2,66.0L24.3,65.9L19.9,65.9L16.5,65.8L15.5,65.9Z M68.3,9.5L67.8,10.2L67.5,15.1L67.2,35.4L67.2,37.7L67.1,38.5L67.1,43.4L66.9,47.9L67.0,48.7L66.8,53.3L66.9,61.0L67.4,61.4L73.3,61.6L83.3,61.8L84.8,61.7L86.1,61.9L93.7,61.9L106.0,62.2L112.8,62.1L113.2,61.5L113.3,55.5L113.2,54.8L113.0,54.5L112.4,54.3L104.2,54.2L102.5,54.0L93.6,53.9L92.0,53.7L90.2,53.8L85.4,53.6L77.2,53.5L76.2,53.4L75.6,52.9L75.4,51.5L75.5,44.2L75.6,41.5L75.6,38.0L75.7,34.8L75.6,32.2L75.8,26.4L75.8,19.2L76.0,18.0L76.0,10.0L75.6,9.7L74.5,9.5Z M61.8,9.5L61.3,9.3L54.8,9.2L54.3,9.4L53.9,10.1L53.6,22.2L53.3,42.5L53.1,44.0L53.0,51.8L52.9,52.5L52.5,52.8L52.1,52.9L46.3,52.9L31.4,52.5L29.2,52.3L29.0,52.1L28.3,52.0L27.9,51.7L27.2,51.7L26.1,51.0L24.8,49.7L23.8,47.5L23.5,45.9L23.5,44.4L23.8,43.1L24.4,41.6L25.3,40.4L26.9,39.3L28.8,38.6L30.7,38.2L49.6,38.4L50.0,38.3L50.5,37.8L50.6,34.9L50.5,31.0L50.1,30.4L49.1,30.2L36.3,30.1L33.9,29.9L29.9,29.9L25.9,30.4L24.6,30.7L24.0,31.1L23.3,31.2L20.8,32.5L19.4,33.7L18.4,34.7L16.6,37.4L15.9,39.0L15.1,41.9L14.9,44.5L14.9,46.1L15.1,48.5L15.6,50.5L15.8,51.0L15.9,51.6L16.3,52.7L17.6,54.8L19.1,56.6L21.3,58.3L23.7,59.5L26.1,60.3L27.9,60.5L29.0,60.8L35.5,60.8L36.3,60.9L38.2,61.0L41.4,60.9L42.9,61.1L46.5,61.0L60.7,61.3L61.3,60.9L61.5,59.8L61.7,52.8L61.6,51.5L61.8,36.5L62.1,29.5L62.1,21.4L62.2,17.7L62.2,10.0Z" fill="#000" fill-rule="evenodd"/>
</svg>