<svg xmlns="http://www.w3.org/2000/svg" viewBox="0 0 128 128" width="128" height="128">
  <path d="M12.2,9.5L11.9,9.9L11.8,11.7L11.6,12.3L11.5,26.1L11.3,28.7L11.3,34.6L11.0,42.4L11.0,51.7L10.8,58.5L10.9,118.1L11.1,118.6L11.7,118.8L27.8,118.6L34.0,118.7L35.0,118.6L40.5,118.6L51.9,118.5L52.5,118.1L52.6,116.7L52.6,110.5L52.8,107.0L52.7,100.4L53.1,80.4L53.0,73.6L53.2,69.6L53.6,68.7L57.5,64.2L57.7,63.8L58.5,63.1L58.8,62.6L63.2,57.9L63.4,57.8L64.0,57.9L65.2,59.4L66.3,61.3L71.0,68.1L73.2,71.7L75.2,74.4L75.5,75.2L76.9,77.1L76.9,77.3L79.3,80.6L80.5,82.6L81.3,83.6L83.2,86.8L83.5,87.8L83.6,89.8L83.6,105.4L83.5,108.9L82.9,109.5L82.4,109.7L72.7,109.9L70.8,109.8L70.2,109.2L70.2,81.9L69.9,81.3L68.9,81.1L65.6,81.0L64.9,81.2L62.2,81.2L61.7,81.7L61.5,82.9L61.5,97.4L61.1,113.3L61.5,115.3L61.9,116.2L62.3,116.9L63.0,117.4L64.2,118.0L65.5,118.3L79.9,118.3L87.1,118.0L96.4,118.0L103.1,117.8L105.1,117.9L107.5,117.7L111.0,117.7L112.1,117.5L113.4,117.0L114.5,115.9L114.8,115.1L115.3,112.4L115.3,109.4L115.5,108.0L115.4,104.9L115.6,103.4L115.8,93.1L115.9,90.8L115.9,88.9L116.1,80.4L116.0,76.5L115.6,75.1L114.9,73.8L114.1,72.6L113.8,71.9L113.2,71.2L112.3,69.5L111.9,69.1L111.5,68.2L110.0,66.1L109.8,65.7L106.5,60.9L103.7,56.4L102.1,54.2L101.5,52.8L100.6,51.9L99.9,50.7L99.1,49.7L96.6,45.7L96.1,45.2L95.8,44.5L95.0,43.4L94.2,41.6L93.8,40.2L93.4,36.0L93.4,19.1L93.5,18.7L94.1,18.1L94.8,17.9L106.4,17.9L107.1,18.1L107.5,18.5L107.6,23.2L107.4,27.7L107.3,36.9L107.1,40.3L107.2,46.6L107.6,47.0L108.6,47.2L111.1,47.0L116.3,46.9L116.7,46.6L116.9,45.8L116.9,37.6L117.1,34.3L117.2,23.3L117.4,15.5L117.3,13.4L117.2,12.3L116.7,11.3L116.3,10.8L115.2,10.0L114.0,9.6L113.0,9.5L72.3,9.4L61.5,9.4L60.9,9.9L60.8,10.8L60.7,25.3L60.6,30.6L60.6,43.9L60.5,45.8L60.3,46.6L59.0,48.5L50.3,58.4L49.2,59.5L48.5,59.6L47.8,59.1L47.5,58.5L46.3,57.0L46.1,56.6L44.6,54.6L44.5,54.2L43.0,51.9L42.1,50.9L41.8,50.2L39.6,47.0L39.1,45.5L39.2,19.5L39.1,9.9L38.8,9.5L38.3,9.4L31.0,9.4L30.5,9.5L30.2,9.8L29.9,19.4L29.9,48.8L30.2,49.6L31.0,50.7L31.5,51.6L33.6,54.3L33.9,55.2L35.5,57.4L35.8,58.0L37.4,60.2L37.6,60.6L42.0,67.3L43.1,69.2L43.2,69.8L43.2,81.5L43.0,97.9L43.1,104.8L42.9,106.5L42.9,108.7L42.7,109.6L42.0,110.1L40.4,110.3L21.6,110.4L21.1,109.9L20.9,109.5L20.8,108.6L20.9,56.9L21.1,51.7L21.0,43.1L21.2,36.9L21.3,13.5L21.5,10.6L21.3,9.8L20.6,9.4Z M70.8,18.0L71.9,17.8L83.2,17.8L83.8,18.0L84.2,18.5L84.4,29.3L84.2,39.8L84.5,43.4L84.9,44.9L85.3,45.5L85.5,46.1L86.4,47.4L86.7,48.1L88.7,50.7L88.8,51.1L89.7,52.3L91.6,55.5L92.0,55.9L94.9,60.5L95.0,60.8L95.6,61.4L95.7,61.9L98.9,66.4L99.0,66.8L100.4,68.7L101.1,70.1L105.1,76.1L106.0,77.7L106.4,79.1L106.7,82.2L106.4,98.9L106.3,100.9L106.3,104.6L106.1,107.7L105.9,108.7L105.5,109.1L104.9,109.3L103.7,109.3L103.1,109.5L94.0,109.6L93.2,109.3L92.9,108.8L92.8,103.8L93.0,87.0L92.8,84.3L92.2,82.6L91.6,81.3L91.1,80.8L90.2,79.1L89.8,78.7L89.7,78.3L89.2,77.9L86.2,73.0L85.0,71.6L84.9,71.1L80.8,65.4L79.2,62.7L77.9,61.0L77.2,59.7L76.8,59.3L76.6,58.8L76.2,58.4L75.8,57.7L75.2,56.9L74.5,55.7L72.7,53.1L72.6,52.7L70.7,49.9L70.1,48.5L70.0,44.5L70.1,32.8L70.1,19.5L70.3,18.5Z" fill="#000" fill-rule="evenodd"/>
</svg>