<svg xmlns="http://www.w3.org/2000/svg" viewBox="0 0 128 128" width="128" height="128">
  <path d="M62.5,9.1L57.7,9.5L53.7,10.2L52.6,10.3L48.0,11.5L47.6,11.7L44.4,12.8L43.1,13.4L42.2,13.7L41.1,14.3L40.2,14.5L39.2,15.2L38.7,15.4L37.6,16.1L36.8,16.4L36.0,17.0L35.2,17.3L30.1,20.9L29.9,21.3L27.5,23.2L23.8,26.8L21.7,29.3L19.7,31.8L18.1,34.3L17.9,34.8L17.4,35.4L16.3,37.3L16.1,37.6L15.4,38.9L15.4,39.3L14.5,40.8L13.0,44.4L12.8,44.8L12.0,47.6L11.6,48.4L11.2,50.2L11.1,50.9L10.8,51.4L10.8,52.3L10.2,54.7L9.9,57.1L9.7,58.0L9.7,59.1L9.5,60.9L9.4,65.5L9.5,68.4L9.7,69.0L9.9,72.0L10.8,76.8L12.2,81.7L13.1,83.9L13.5,85.3L16.1,90.7L16.4,91.1L16.7,91.9L18.5,94.5L19.0,95.6L19.5,96.1L20.4,97.5L22.5,100.1L23.9,101.7L24.1,102.0L25.9,103.8L29.7,107.1L34.3,110.5L35.2,110.9L36.9,112.1L37.8,112.5L39.8,113.6L45.1,115.9L45.7,116.0L50.5,117.6L51.8,117.7L52.8,118.1L54.5,118.4L55.6,118.5L57.7,118.9L59.8,118.9L60.5,119.1L67.4,119.0L69.2,118.9L70.3,118.6L71.4,118.6L77.3,117.3L82.6,115.7L85.0,114.7L85.7,114.5L87.2,113.7L87.6,113.6L89.8,112.4L90.4,112.3L91.3,111.5L91.6,111.4L92.8,110.6L93.9,110.1L97.7,107.3L101.7,103.8L102.9,102.5L103.3,102.4L105.0,100.5L107.7,97.2L109.0,95.4L109.2,95.0L110.0,94.1L110.1,93.7L111.4,91.7L113.5,87.8L114.2,86.1L114.6,85.4L115.6,82.7L115.7,82.5L116.4,80.2L116.7,79.5L116.8,78.9L117.1,78.1L117.6,76.2L117.7,74.7L118.1,73.5L118.2,71.4L118.5,70.3L118.8,65.9L118.8,60.0L118.3,55.5L118.1,54.6L117.9,53.1L117.2,50.5L117.1,49.8L115.3,44.4L113.5,40.0L112.2,37.5L111.6,36.7L111.4,36.1L107.5,30.3L107.2,30.1L105.0,27.4L100.9,23.3L97.6,20.5L92.5,17.1L92.3,17.1L91.4,16.4L87.8,14.5L83.9,12.9L83.6,12.7L82.3,12.4L81.8,12.0L80.6,11.6L79.7,11.5L77.7,10.8L72.3,9.7L67.7,9.2Z M22.4,84.8L22.4,84.5L23.8,81.9L23.9,81.3L26.4,76.5L26.5,76.1L26.9,75.5L27.4,74.3L27.8,73.8L28.7,71.7L29.6,70.1L30.1,68.7L30.7,67.6L31.0,67.3L31.1,66.7L32.4,64.4L32.7,63.5L34.0,60.9L34.7,60.4L55.8,60.5L56.2,60.9L56.2,61.5L56.2,75.6L56.3,75.7L56.8,75.8L60.8,71.9L64.0,68.7L64.6,68.2L67.1,65.7L67.8,65.1L71.6,61.3L72.3,60.8L75.0,60.6L94.7,60.7L95.8,60.8L96.0,60.9L96.0,61.4L94.4,64.6L94.0,65.6L92.0,69.7L91.6,70.1L91.1,71.4L90.7,72.0L90.6,72.4L89.7,74.2L89.4,74.6L88.7,76.0L87.8,77.7L84.5,84.1L83.8,85.0L81.7,85.2L68.4,85.1L68.0,84.8L68.6,83.3L71.3,78.1L71.4,77.7L72.2,76.3L72.7,74.9L73.7,73.0L74.0,72.6L75.6,69.3L75.9,68.9L75.8,68.5L75.6,68.5L58.9,84.9L58.6,85.1L48.2,85.2L47.3,84.9L47.1,83.1L47.2,70.9L47.1,69.5L46.9,69.1L46.3,69.8L46.1,70.5L45.4,71.6L44.9,72.8L44.5,73.4L44.4,73.9L43.2,76.0L43.0,76.8L40.2,82.3L39.4,83.8L39.1,84.5L38.6,85.1L38.1,85.3L23.2,85.3L22.7,85.2Z M38.1,52.8L38.5,52.0L38.6,51.5L39.0,50.8L39.6,49.5L39.9,49.1L40.1,48.4L41.7,45.3L41.9,44.8L43.2,42.2L43.7,41.9L67.1,41.9L80.7,42.1L96.6,42.2L103.1,42.1L104.8,42.2L105.3,42.3L105.4,43.1L104.7,44.2L104.0,45.9L103.3,47.0L101.9,49.9L101.6,50.3L101.4,50.9L100.7,52.3L100.0,53.2L99.6,53.3L81.4,53.3L74.0,53.2L63.4,53.3L47.1,53.1L40.3,53.2L38.4,53.1Z" fill="#000" fill-rule="evenodd"/>
</svg>