<svg xmlns="http://www.w3.org/2000/svg" viewBox="0 0 128 128" width="128" height="128">
  <path d="M77.5,59.9L77.2,59.8L76.3,61.1L75.0,63.5L74.5,64.2L69.2,73.3L67.0,76.9L66.8,77.4L66.2,78.1L65.5,79.5L64.5,81.0L64.3,81.6L63.1,83.3L62.8,84.1L61.5,86.0L61.5,86.3L60.9,87.1L60.5,88.0L60.0,88.6L59.5,89.6L58.2,91.6L58.0,92.2L56.2,95.0L55.8,95.9L55.4,96.4L55.1,97.1L53.5,99.6L52.5,101.6L52.1,102.0L51.0,104.1L50.8,104.3L50.8,104.7L51.0,105.0L58.0,105.1L72.0,105.1L74.5,105.3L76.8,105.2L77.1,105.1L77.3,104.4L77.3,82.9L77.5,77.8L77.4,71.7L77.5,68.0L77.4,66.8L77.5,66.1Z M36.2,59.5L35.9,59.4L35.4,60.0L34.9,61.0L34.7,61.3L33.5,63.5L32.9,64.3L32.7,64.8L30.7,68.0L29.3,70.5L27.2,73.9L26.9,74.6L25.8,76.2L25.4,77.1L24.9,77.8L23.5,80.2L23.1,80.7L22.9,81.2L22.5,81.7L22.2,82.5L21.4,83.6L21.2,84.1L19.9,86.1L18.2,89.2L15.4,93.7L14.9,94.6L13.2,97.4L12.8,98.3L11.4,100.3L11.3,100.8L10.3,102.1L9.3,104.1L9.2,104.6L10.8,104.8L35.3,104.9L35.6,104.8L35.9,104.6L36.0,99.4L35.9,93.2L36.1,91.2L36.0,86.1L36.3,71.5Z M94.8,24.3L94.6,24.5L94.4,40.6L94.2,46.0L94.2,55.9L94.1,62.4L94.1,70.0L94.0,78.5L94.1,82.6L93.8,95.4L94.0,103.9L93.9,105.1L94.3,105.4L96.1,105.5L97.9,105.4L103.2,105.6L105.3,105.5L116.7,105.7L117.9,105.6L118.1,105.6L118.2,105.1L118.4,98.9L118.3,91.0L118.5,72.5L118.7,68.4L118.6,60.9L118.7,56.7L118.9,37.2L119.1,33.9L119.1,24.9L118.7,24.5L117.3,24.4L116.2,24.5L113.3,24.4L110.6,24.4L100.5,24.2Z M79.5,24.0L77.2,23.9L72.7,23.9L70.0,23.7L55.5,23.5L53.4,23.4L52.6,23.5L52.5,24.8L52.5,26.0L52.3,34.6L52.4,38.0L52.2,44.5L52.2,54.9L52.0,64.2L52.1,69.8L52.4,69.8L53.1,68.5L54.5,66.6L55.4,64.9L55.8,64.4L57.9,60.9L58.0,60.5L59.0,59.0L59.5,57.9L61.2,55.3L61.6,54.4L62.5,53.0L63.2,51.7L63.6,51.2L64.3,49.9L65.5,48.0L65.6,47.6L67.2,45.2L67.9,43.9L69.7,41.0L69.8,40.7L74.5,33.1L75.4,31.4L76.0,30.6L76.7,29.1L77.5,28.1L78.0,27.0L78.3,26.7L78.5,26.1L79.5,24.5Z M38.6,23.1L35.7,22.9L30.5,22.9L26.3,22.8L24.9,22.9L22.4,22.8L21.7,22.6L11.8,22.6L11.5,22.9L11.3,23.5L11.4,29.9L11.2,58.0L11.2,69.4L11.3,69.5L11.5,69.5L12.3,68.4L13.6,66.0L14.0,65.5L17.4,59.6L18.4,58.1L18.8,57.4L19.0,57.1L19.5,56.0L21.8,52.5L22.0,51.8L22.4,51.5L22.6,50.9L23.3,50.0L23.4,49.5L25.1,46.8L25.6,45.7L27.4,42.9L29.1,39.8L29.5,39.3L30.0,38.2L31.2,36.5L32.5,34.0L33.9,32.0L35.3,29.4L36.3,27.9L37.3,26.0L38.7,23.8L38.8,23.3Z" fill="#000" fill-rule="evenodd"/>
</svg>