<svg xmlns="http://www.w3.org/2000/svg" viewBox="0 0 128 128" width="128" height="128">
  <path d="M117.6,10.2L116.7,9.5L116.2,9.4L107.0,9.4L103.8,9.6L98.7,9.5L93.4,9.7L92.8,9.9L92.4,10.5L92.5,12.9L92.7,13.3L94.8,15.3L95.0,15.8L95.0,16.9L94.8,17.3L94.2,17.7L89.2,17.8L88.6,18.1L88.3,18.4L88.3,21.1L88.6,21.6L90.4,23.4L90.6,23.7L90.6,25.2L90.1,25.6L89.3,25.8L84.7,25.9L84.1,26.3L83.9,26.7L83.9,28.8L84.3,29.6L86.3,31.6L86.5,32.8L86.4,33.1L85.6,33.8L80.8,33.9L80.4,34.0L79.9,34.4L79.8,37.0L80.0,37.4L81.9,39.3L82.1,40.6L82.0,41.3L81.5,41.7L80.9,41.8L76.4,41.8L75.7,42.2L75.5,42.5L75.5,44.5L75.7,45.3L77.7,47.3L78.0,47.8L78.1,48.7L78.0,49.0L77.3,49.5L72.7,49.6L71.8,49.8L71.6,50.1L71.4,52.2L71.5,52.8L71.7,53.3L73.5,55.1L73.8,55.7L73.8,56.8L73.6,57.2L73.3,57.6L72.5,57.8L67.9,57.8L67.3,58.0L67.1,58.4L67.1,60.8L67.3,61.3L69.3,63.2L69.6,64.0L69.6,64.7L69.4,65.1L69.1,65.4L68.3,65.7L61.6,65.8L59.1,65.7L58.8,65.6L58.3,64.9L58.3,64.1L58.5,63.5L60.3,61.7L60.7,61.1L60.7,58.3L60.0,57.9L55.1,57.8L54.6,57.6L54.1,57.0L54.2,55.7L56.3,53.5L56.5,52.8L56.6,52.3L56.4,50.3L56.1,49.9L55.4,49.7L50.4,49.6L50.0,49.4L49.8,49.0L49.8,48.3L50.0,47.8L52.2,45.5L52.3,42.8L52.1,42.4L51.3,41.9L46.5,41.8L46.2,41.7L45.8,41.1L45.9,40.1L46.2,39.5L47.8,37.9L48.1,37.3L48.2,35.8L48.1,34.9L47.8,34.2L46.6,34.0L42.0,34.0L41.4,33.4L41.4,32.2L41.6,31.8L43.7,29.6L43.9,28.7L43.7,26.6L43.0,26.1L38.3,26.1L37.6,25.9L37.3,25.4L37.3,24.6L37.5,23.9L39.2,22.1L39.6,21.4L39.7,19.4L39.4,18.5L39.1,18.4L38.4,18.3L33.9,18.3L33.4,18.2L32.7,17.7L32.7,16.5L33.3,15.6L34.8,14.2L35.3,13.4L35.4,11.2L35.2,10.6L34.7,10.2L25.2,10.1L23.1,10.3L12.1,10.3L11.1,10.5L10.6,11.1L10.9,41.3L11.1,41.8L11.6,42.2L14.2,42.3L14.8,42.5L15.2,43.1L15.4,48.1L15.4,62.2L15.6,67.7L15.5,71.8L15.8,93.0L15.7,94.5L15.5,94.9L14.9,95.4L13.0,95.4L11.6,95.7L11.2,96.1L11.1,97.0L11.2,117.4L11.4,118.3L12.0,118.8L36.3,118.8L36.7,118.7L37.3,118.0L37.3,68.3L37.4,65.7L37.4,65.5L37.8,65.4L38.2,65.8L39.0,67.5L43.8,80.3L45.3,83.9L45.8,85.5L46.8,87.9L47.7,90.7L49.3,94.2L49.5,95.4L50.3,97.0L51.1,99.5L51.9,101.1L52.2,102.2L52.4,102.4L53.3,105.1L54.9,109.0L55.1,109.7L55.5,110.4L56.6,113.7L56.9,114.1L57.6,116.2L58.4,118.1L59.0,118.5L59.5,118.6L68.9,118.5L69.3,118.1L70.8,114.7L71.2,113.3L71.5,112.9L71.6,112.3L72.0,111.3L72.7,109.4L73.1,108.7L73.7,106.6L73.9,106.4L74.7,104.5L74.8,104.0L75.6,102.2L76.4,99.8L78.7,94.0L78.9,93.1L79.6,91.8L80.2,90.0L81.3,87.4L82.6,83.7L82.9,83.3L83.7,80.9L85.0,77.8L85.3,76.7L86.0,75.2L86.3,74.0L87.2,72.0L87.3,71.2L87.6,70.8L88.5,68.3L88.7,68.1L88.9,67.2L89.3,66.4L89.7,65.2L90.0,64.9L90.3,64.9L90.6,65.2L90.6,67.8L90.6,90.1L90.5,101.9L90.6,104.8L90.6,117.5L90.7,118.2L91.3,118.6L109.5,118.7L116.3,118.9L116.9,118.4L117.1,118.0L117.2,96.0L116.6,95.4L113.6,95.3L113.2,95.1L112.9,94.6L112.8,93.9L113.0,48.0L112.9,42.7L113.0,42.4L113.6,41.8L114.6,41.6L116.8,41.5L117.2,41.2L117.4,40.8Z" fill="#000" fill-rule="evenodd"/>
</svg>