<svg xmlns="http://www.w3.org/2000/svg" viewBox="0 0 128 128" width="128" height="128">
  <path d="M12.7,120.0L14.7,120.0L13.9,119.7L13.1,119.8Z M9.3,120.0L11.2,120.0L10.9,119.8L10.5,119.7L9.6,119.8Z M16.1,120.0L18.2,120.0L18.0,119.8L17.5,119.7L16.6,119.7Z M36.8,92.1L42.6,98.1L47.3,102.8L47.5,103.1L59.6,115.1L62.5,118.2L63.5,118.9L63.9,118.9L64.3,118.7L66.3,116.9L70.3,112.7L81.8,101.7L85.6,97.8L86.1,97.4L91.0,92.4L90.9,92.1L90.5,91.9L87.3,91.8L57.2,91.8L48.3,91.8L44.0,91.6L37.0,91.7L36.8,91.8Z M92.7,37.3L92.3,37.3L92.1,37.6L92.1,63.3L91.9,90.5L92.1,90.9L92.6,90.8L95.5,88.0L112.5,71.1L114.3,69.4L117.4,66.3L118.1,65.7L119.2,64.5L119.2,64.3L119.1,63.8L115.9,60.6L115.4,59.9Z M35.7,37.1L27.3,45.6L26.7,46.0L17.2,55.3L9.1,63.6L9.1,64.0L9.7,64.9L17.6,72.7L17.7,73.0L20.9,76.1L24.3,79.7L28.3,83.6L30.0,85.5L35.4,90.7L35.6,90.7L35.9,90.4L35.9,89.6L36.0,63.6L36.3,47.1L36.3,37.3L36.2,37.2Z M64.5,9.3L64.1,9.3L63.7,9.5L57.8,15.5L57.5,15.6L53.0,20.2L46.4,26.6L43.2,30.0L39.5,33.4L36.9,36.2L37.0,36.7L63.9,63.6L64.2,63.6L64.9,63.0L74.6,53.4L75.7,52.5L80.7,47.5L81.1,47.2L91.5,36.8L91.5,36.2L89.0,33.5L85.8,30.3L85.1,29.8L79.9,24.4L78.6,23.3L69.0,13.6L68.5,13.2L64.9,9.6Z" fill="#000" fill-rule="evenodd"/>
</svg>