<svg xmlns="http://www.w3.org/2000/svg" viewBox="0 0 128 128" width="128" height="128">
  <path d="M17.1,9.3L17.1,23.2L17.3,39.8L17.2,49.5L17.4,50.7L17.4,63.0L17.5,65.5L17.5,82.6L17.7,84.2L17.6,95.5L17.7,100.5L17.9,101.4L17.8,108.1L18.0,110.7L18.0,116.1L18.1,118.4L18.3,118.8L18.6,119.0L25.7,119.1L35.5,118.9L45.9,118.9L50.1,118.8L64.4,118.8L73.8,118.6L100.6,118.7L109.6,118.5L110.0,118.4L110.1,118.0L110.0,110.7L110.2,103.5L110.2,95.0L110.4,91.4L110.4,83.0L110.5,76.0L110.5,74.9L110.8,55.6L110.8,43.8L110.9,40.9L110.9,32.6L111.1,29.5L111.0,25.9L111.2,21.4L111.0,10.0L110.7,9.6L110.1,9.9L107.7,13.0L105.5,15.4L105.1,16.0L102.8,18.6L102.5,19.1L101.5,20.1L99.8,22.4L96.7,25.9L96.0,26.8L93.8,29.5L93.7,29.8L91.1,32.7L90.5,33.5L90.2,33.8L86.0,39.0L84.7,40.3L82.7,42.9L80.4,45.4L80.0,46.1L77.7,48.8L76.0,50.6L74.4,52.8L72.7,54.5L69.3,58.7L65.9,62.4L65.4,63.1L64.5,63.9L64.0,63.9L63.5,63.6L61.7,61.4L60.0,59.6L59.7,59.0L58.6,57.9L58.1,57.2L57.0,56.1L56.2,55.0L55.0,53.8L54.4,52.9L51.3,49.4L51.2,49.2L49.6,47.4L40.9,36.8L38.7,34.4L35.5,30.4L33.7,28.5L29.1,22.7L24.2,17.1L18.9,10.5L17.6,9.2Z M18.7,13.1L18.9,13.1L19.5,13.7L21.9,16.4L22.2,17.0L24.9,20.1L26.5,22.2L29.6,25.7L30.2,26.5L32.3,28.8L34.2,31.3L35.3,32.5L37.5,35.3L38.3,36.1L38.7,36.7L39.1,37.0L39.8,38.1L41.6,40.2L42.8,41.4L43.7,42.6L45.1,44.0L45.9,45.1L48.6,48.0L49.1,48.9L51.9,52.0L52.9,53.4L54.3,54.7L54.8,55.6L55.9,56.6L56.8,57.9L57.3,58.4L61.3,63.3L62.7,64.7L63.9,66.4L64.1,67.4L64.1,98.5L63.9,114.0L64.0,116.1L63.8,116.9L63.3,117.3L62.0,117.5L60.9,117.4L54.4,117.5L32.4,117.6L30.4,117.8L20.2,117.8L19.5,117.3L19.3,111.2L19.3,108.5L19.2,107.3L19.3,103.8L19.1,100.9L19.1,89.6L18.9,81.0L18.9,76.9L18.8,72.5L18.8,60.4L18.5,50.4L18.7,24.1L18.5,19.9L18.6,13.9L18.4,13.4Z" fill="#000" fill-rule="evenodd"/>
</svg>