<svg xmlns="http://www.w3.org/2000/svg" viewBox="0 0 128 128" width="128" height="128">
  <path d="M118.4,10.8L117.9,10.3L116.7,10.1L94.4,10.1L85.5,9.9L83.7,10.1L67.1,10.0L37.2,10.3L11.4,10.2L9.9,10.4L9.5,11.2L9.4,14.9L9.6,43.4L9.5,82.4L9.6,83.2L9.9,83.7L11.7,83.8L13.0,84.4L13.9,85.1L15.3,86.5L16.0,87.6L16.5,89.6L16.4,92.0L16.1,93.0L15.3,94.4L13.6,96.1L12.2,96.9L10.4,97.3L9.9,97.8L9.9,111.4L10.1,113.5L10.1,117.7L10.7,118.1L12.7,118.2L16.4,118.1L26.2,118.1L33.8,118.2L35.3,118.1L35.8,117.6L36.0,112.4L35.7,101.2L35.7,75.2L35.6,74.4L35.7,69.3L35.5,63.7L35.5,38.0L35.6,37.5L36.1,37.0L42.3,36.8L50.1,36.9L50.7,37.1L51.1,37.5L51.2,45.7L51.2,82.4L51.4,83.3L52.0,83.7L53.2,83.8L54.7,84.3L55.8,84.9L56.8,85.8L57.7,86.9L58.3,88.2L58.5,89.4L58.7,89.8L58.7,91.3L58.3,93.0L58.0,93.9L57.0,95.2L55.9,96.1L54.8,96.7L53.7,97.1L52.1,97.4L51.6,97.7L51.3,98.9L51.2,107.9L51.4,117.4L51.6,117.9L51.9,118.1L52.7,118.1L56.3,118.1L57.2,118.3L62.4,118.1L75.4,118.2L76.9,118.1L77.3,117.7L77.3,38.8L77.4,37.7L78.0,37.2L79.8,37.0L90.8,37.0L92.0,37.2L92.5,37.7L92.7,40.4L92.6,55.5L92.8,57.8L92.7,63.3L92.9,82.8L93.4,83.4L93.8,83.6L94.8,83.7L96.1,84.0L96.7,84.3L98.6,86.0L99.2,87.0L99.8,88.3L100.0,89.2L100.0,91.0L99.8,92.1L99.0,94.0L98.4,94.7L97.6,95.5L96.3,96.3L94.7,96.9L93.6,97.0L92.9,97.6L92.9,117.0L93.4,117.6L102.5,117.8L118.2,117.7L118.6,117.3L118.8,116.5L118.9,107.3L118.9,71.7L118.7,44.0L118.8,40.6L118.6,26.8L118.7,13.2Z" fill="#000" fill-rule="evenodd"/>
</svg>