<svg xmlns="http://www.w3.org/2000/svg" viewBox="0 0 128 128" width="128" height="128">
  <path d="M35.7,17.0L34.1,18.2L32.0,19.6L30.1,21.2L29.1,21.9L27.4,23.4L24.0,27.0L21.4,30.2L18.6,34.5L16.4,38.8L15.7,39.8L14.7,42.3L14.6,42.8L14.3,43.2L13.7,44.8L13.7,45.1L13.4,45.8L13.3,46.4L13.0,47.0L12.9,48.2L12.6,48.9L12.4,49.9L12.1,50.7L11.7,53.3L11.4,54.1L11.4,55.1L11.1,56.5L11.1,57.7L10.7,60.1L10.7,68.1L10.9,69.9L11.2,71.5L11.2,72.2L12.2,76.9L12.4,77.5L12.6,78.5L12.9,79.2L13.3,80.9L14.8,85.3L15.2,85.9L16.2,88.2L16.4,88.4L18.0,91.6L18.3,91.9L18.9,93.1L19.9,94.3L20.4,95.3L22.7,98.1L22.8,98.5L24.2,100.0L24.3,100.3L27.3,103.6L31.8,107.6L32.9,108.4L34.1,109.2L34.5,109.5L38.5,112.1L39.4,112.5L42.5,114.2L43.3,114.5L45.8,115.6L46.4,115.7L46.8,116.0L50.7,117.2L54.6,118.2L55.2,118.2L59.3,118.8L60.2,118.8L61.2,119.1L67.0,119.1L71.2,118.7L74.4,118.2L77.0,117.5L78.1,117.3L78.5,117.1L79.8,116.8L80.5,116.3L80.8,115.6L80.8,111.4L80.6,108.7L80.7,104.6L80.5,103.0L80.6,95.4L80.4,85.0L80.4,63.4L80.2,61.9L79.7,60.0L78.9,58.8L78.1,57.9L77.8,57.8L77.7,57.6L76.4,57.0L75.3,56.9L73.4,57.0L72.1,57.4L71.2,58.1L70.2,59.0L69.7,60.1L69.4,61.1L69.2,63.9L69.2,81.7L68.8,82.4L68.1,82.5L59.6,82.5L59.0,82.1L58.9,81.7L58.8,80.6L58.8,66.1L58.7,62.5L58.3,60.8L57.5,59.0L55.9,57.3L54.9,56.7L53.7,56.5L52.2,56.5L51.0,56.8L50.1,57.3L49.1,58.3L48.6,59.0L48.3,60.1L48.0,61.8L48.0,64.6L47.8,65.4L47.8,80.9L47.6,82.0L46.0,82.3L37.8,82.1L37.4,82.0L37.3,81.4L37.1,74.5L37.2,72.4L36.9,59.1L36.9,49.3L36.8,44.8L36.8,29.3L36.6,28.4L36.6,25.5L36.8,24.6L36.6,17.3L36.5,16.9Z M48.0,11.5L47.6,11.8L47.4,12.4L47.6,40.2L47.5,46.3L47.8,46.6L48.1,46.6L49.5,45.9L51.0,45.5L54.5,45.5L55.6,45.6L58.8,46.7L60.5,47.4L60.8,47.8L62.3,48.6L63.3,49.6L63.9,49.8L64.3,49.8L64.6,49.7L66.0,48.4L67.8,47.4L69.7,46.7L72.4,46.0L76.1,45.9L76.8,46.1L78.6,46.3L80.4,46.9L81.3,47.5L82.3,47.9L85.1,50.1L86.9,51.9L88.8,54.9L89.6,56.8L90.1,58.5L90.3,60.0L90.3,61.5L90.5,62.2L90.6,72.5L90.8,77.8L90.7,81.5L90.9,84.9L90.8,90.1L91.0,90.9L90.9,92.1L91.1,107.8L91.2,110.9L91.4,111.1L91.8,111.1L92.7,110.5L94.0,109.9L96.6,108.1L97.3,107.4L97.8,107.2L99.2,106.0L100.6,104.6L101.5,103.8L101.6,103.5L103.5,101.5L105.6,99.0L106.0,98.3L107.5,96.5L108.5,94.7L109.5,93.4L110.4,91.6L110.9,90.8L111.7,89.0L112.0,88.6L112.8,87.2L114.9,81.6L115.8,78.2L116.1,76.8L116.3,76.3L116.6,74.7L116.9,73.7L117.4,68.8L117.4,66.6L117.6,65.5L117.6,61.3L117.2,58.8L117.2,57.5L117.0,57.0L117.0,55.8L116.6,54.3L116.5,53.1L116.1,51.8L115.9,50.8L115.7,50.3L115.4,49.2L115.2,48.8L115.1,47.8L114.7,47.1L114.6,46.3L114.3,45.9L114.2,45.3L113.9,45.0L113.8,44.2L113.5,43.7L113.4,43.2L112.6,41.4L112.2,40.9L112.0,40.1L111.3,39.0L110.9,37.8L109.9,36.4L109.4,35.4L109.1,35.1L108.7,34.1L107.8,32.9L107.2,31.8L104.7,28.6L101.0,24.4L97.4,21.1L96.9,20.9L96.0,20.0L94.4,18.8L93.8,18.5L92.5,17.5L92.0,17.3L91.7,17.0L90.7,16.6L89.1,15.7L86.2,14.3L85.7,13.9L81.7,12.3L80.0,11.7L79.6,11.7L78.1,11.2L77.8,11.2L77.6,11.0L76.2,10.8L75.5,10.5L74.5,10.4L71.4,9.7L67.6,9.3L65.9,9.3L64.2,9.1L59.2,9.1L57.9,9.4L56.3,9.5L53.7,9.9L52.6,10.3L50.7,10.6L49.8,11.0L49.5,11.0Z" fill="#000" fill-rule="evenodd"/>
</svg>