<svg xmlns="http://www.w3.org/2000/svg" viewBox="0 0 128 128" width="128" height="128">
  <path d="M73.2,44.7L68.3,44.6L67.8,44.9L67.8,82.8L67.7,88.8L67.6,90.9L67.1,91.4L62.3,91.5L60.9,91.4L60.7,91.2L60.5,90.7L60.5,84.9L60.3,73.8L60.3,65.2L60.2,63.0L60.2,45.2L60.1,45.0L59.7,44.8L54.9,44.8L54.3,45.1L54.3,65.1L54.6,78.7L54.6,88.7L54.4,91.2L54.3,91.5L53.7,91.8L52.8,91.9L45.1,91.9L42.6,92.1L40.4,92.0L39.2,92.1L37.5,92.1L37.2,92.4L37.5,93.6L38.5,96.4L40.4,100.5L40.7,100.8L41.4,102.3L43.7,106.1L45.7,108.7L46.1,109.0L48.6,111.9L51.9,114.8L55.3,116.9L57.9,118.1L61.2,119.0L66.2,119.0L67.7,118.8L68.7,118.4L70.9,118.0L72.4,117.4L74.3,116.4L74.4,116.2L74.8,116.0L76.3,115.0L76.9,114.4L78.5,113.1L81.4,110.2L81.9,109.5L83.3,107.9L85.7,104.4L86.9,102.2L87.4,101.4L88.1,99.7L88.4,99.3L88.7,98.4L90.2,95.1L91.2,92.1L91.2,91.8L91.1,91.6L90.5,91.5L75.3,91.5L74.6,91.4L74.2,90.9L74.0,88.5L74.1,82.9L73.9,70.3L74.0,63.2L73.8,55.1L73.8,45.5L73.5,44.9Z M73.1,11.5L70.4,10.3L69.2,10.0L68.6,9.7L68.0,9.6L66.9,9.3L66.1,9.3L65.2,9.0L63.9,9.0L60.0,9.6L58.5,9.9L56.9,10.6L56.1,10.8L53.4,12.3L51.0,13.9L50.9,14.1L50.7,14.2L48.1,16.5L47.4,17.4L45.6,19.4L44.6,20.9L44.1,21.5L41.4,25.8L39.0,30.5L38.0,33.1L37.9,33.5L37.7,33.9L36.4,37.6L34.7,43.9L34.5,45.2L34.3,45.8L34.2,47.5L33.9,48.5L33.7,50.0L33.4,51.4L33.3,52.9L33.1,54.1L32.7,62.4L32.7,68.1L33.0,69.9L33.0,72.2L33.3,73.4L33.4,75.7L33.7,77.0L33.9,79.0L34.2,80.5L34.2,81.4L34.5,82.5L34.6,83.4L34.8,83.8L35.3,84.2L36.1,84.3L38.4,84.3L39.3,84.4L45.6,84.4L45.9,84.3L46.1,84.0L46.3,73.0L46.3,58.5L46.0,39.9L46.2,37.5L46.5,37.1L47.0,37.0L66.1,36.9L75.0,36.8L81.0,36.9L81.4,37.4L81.5,43.6L81.6,44.7L81.5,46.5L81.8,55.8L81.9,56.9L81.8,60.1L82.0,63.4L82.0,71.7L82.1,73.6L82.1,79.9L82.3,82.8L82.5,83.1L83.2,83.3L92.0,83.3L93.3,83.2L93.7,83.0L94.2,81.3L94.3,79.6L94.7,77.6L94.8,76.0L95.0,75.1L95.1,73.1L95.3,72.4L95.3,70.3L95.6,67.6L95.5,60.0L95.2,57.5L95.1,55.5L94.7,52.7L94.6,50.8L94.4,50.0L94.3,48.9L93.9,47.5L93.5,45.0L92.5,40.7L92.0,39.5L91.7,38.1L91.4,37.5L91.2,36.5L88.9,30.5L86.9,26.3L85.6,24.4L85.5,24.1L84.8,23.1L84.7,22.7L84.4,22.4L84.3,22.1L83.5,21.2L83.0,20.4L81.6,18.8L81.5,18.5L78.6,15.5L76.2,13.5Z" fill="#000" fill-rule="evenodd"/>
</svg>