<svg xmlns="http://www.w3.org/2000/svg" viewBox="0 0 128 128" width="128" height="128">
  <path d="M47.5,55.6L46.5,55.8L45.6,56.1L43.8,57.1L43.0,57.7L42.0,58.8L41.1,60.1L40.6,61.8L40.4,62.7L40.3,68.5L40.4,78.6L40.2,80.6L40.2,95.7L40.5,97.2L41.1,99.1L41.8,100.3L42.9,101.5L44.2,102.5L46.0,103.3L46.7,103.6L49.2,103.6L50.5,103.4L52.4,102.6L53.7,101.6L54.5,100.9L55.4,99.7L56.3,97.7L56.7,95.9L56.7,75.0L56.8,72.1L56.8,63.2L56.6,61.8L55.8,59.8L54.8,58.4L53.9,57.5L52.5,56.5L50.7,55.8L49.9,55.6Z M78.9,55.5L77.3,55.8L76.1,56.3L75.1,56.8L74.2,57.6L72.7,59.3L72.6,59.6L72.2,60.1L71.6,61.8L71.6,62.7L71.4,63.1L71.3,66.2L71.4,74.3L71.2,95.8L71.6,97.9L72.1,99.0L73.2,100.7L74.8,102.2L76.7,103.2L78.5,103.7L80.7,103.7L82.5,103.2L82.9,102.9L83.4,102.7L84.8,101.8L86.3,100.1L87.1,98.6L87.7,96.9L87.8,74.8L87.8,74.0L87.9,72.5L87.8,68.5L87.9,63.6L87.7,61.9L87.0,60.1L85.9,58.4L85.0,57.5L83.5,56.4L82.4,55.9L81.5,55.6L80.4,55.5Z M11.9,32.0L11.2,33.3L10.0,36.5L9.4,40.0L9.4,58.7L9.2,67.4L9.3,77.8L9.2,94.4L9.3,97.1L10.0,99.0L10.5,100.0L11.0,100.6L11.9,101.6L13.1,102.5L14.1,103.1L15.6,103.6L18.3,103.6L19.5,103.4L19.6,103.2L21.2,102.7L22.4,101.7L24.0,99.9L24.8,98.1L25.3,95.6L25.2,73.2L25.3,67.6L25.3,52.2L25.4,49.3L25.7,46.9L26.0,45.7L26.3,45.2L26.5,44.7L27.6,43.3L28.8,42.2L29.3,42.0L30.2,41.5L31.6,41.1L36.1,40.9L58.4,40.9L72.6,40.7L94.2,40.8L96.7,41.0L98.1,41.3L100.0,42.3L101.3,43.6L102.1,44.7L102.9,46.6L103.1,48.0L103.0,69.4L103.1,73.4L102.9,79.9L103.0,85.1L102.8,91.4L102.8,95.7L103.1,98.2L104.4,100.6L105.9,102.2L107.7,103.4L109.9,104.0L112.9,103.9L114.1,103.5L116.1,102.2L117.6,100.4L118.4,98.9L118.9,96.6L118.8,84.0L119.0,72.5L118.9,69.6L119.1,65.8L119.1,42.7L118.9,41.5L118.9,39.9L118.7,37.8L117.9,34.9L117.0,32.8L115.9,31.0L115.2,30.3L114.0,28.8L111.6,26.8L109.7,25.8L109.3,25.7L109.0,25.4L108.3,25.3L107.7,24.9L105.4,24.4L104.0,24.3L64.4,24.3L56.4,24.4L33.0,24.4L25.9,24.3L23.6,24.4L21.3,24.9L19.7,25.5L17.9,26.3L16.3,27.4L14.1,29.2L14.1,29.4L13.2,30.3Z" fill="#000" fill-rule="evenodd"/>
</svg>