<svg xmlns="http://www.w3.org/2000/svg" viewBox="0 0 128 128" width="128" height="128">
  <path d="M70.3,11.9L68.9,12.5L68.6,12.8L68.7,13.5L71.3,15.5L74.6,18.8L76.3,20.9L79.0,24.9L81.0,28.6L82.2,31.6L83.5,36.0L84.1,39.2L84.4,43.0L84.3,74.9L84.0,93.8L84.1,118.2L84.6,118.6L117.2,118.9L117.7,118.5L117.7,118.3L117.7,117.2L117.8,115.1L117.7,112.4L117.9,108.7L118.0,82.7L118.2,75.5L118.1,70.6L118.5,43.2L118.3,42.3L118.3,40.9L117.7,37.6L116.8,34.2L115.7,31.1L113.7,27.0L112.1,24.6L110.7,22.7L108.2,20.0L108.0,19.7L106.0,17.8L102.9,15.4L101.5,14.7L100.4,13.9L97.1,12.3L93.3,10.9L91.7,10.6L90.7,10.2L86.4,9.6L81.5,9.5L78.5,9.7L74.5,10.5Z M32.4,11.9L31.5,12.4L31.2,12.6L31.2,13.1L35.2,16.5L37.9,19.3L40.6,22.9L42.7,26.5L44.6,30.6L45.5,33.3L46.9,39.4L47.3,44.7L47.0,84.1L47.1,86.5L46.8,108.4L47.0,118.0L47.5,118.4L48.8,118.4L68.3,118.4L76.4,118.6L80.2,118.5L80.5,118.3L80.6,116.7L81.2,42.9L80.8,39.4L80.1,36.1L78.3,30.8L77.6,29.7L77.2,28.6L75.3,25.3L73.3,22.6L70.1,19.2L66.5,16.1L63.7,14.4L63.3,14.0L58.6,11.8L55.3,10.7L51.2,9.7L47.8,9.4L44.3,9.4L41.0,9.6L39.3,10.0L37.6,10.2L36.7,10.6L34.9,11.0Z M10.7,9.4L10.3,9.7L10.2,14.2L10.2,35.3L10.0,43.5L10.1,62.9L9.8,92.7L9.9,117.9L10.3,118.2L11.8,118.4L16.0,118.3L38.1,118.4L43.1,118.3L43.4,118.0L43.5,117.2L43.5,110.8L43.7,108.4L43.7,90.2L43.8,79.3L43.7,74.0L43.9,71.5L43.8,63.4L44.0,44.5L43.6,39.2L42.7,35.5L41.3,31.3L38.9,26.5L38.5,26.1L37.9,24.9L36.7,23.5L36.4,22.9L31.9,18.1L28.4,15.4L24.1,12.8L23.2,12.5L22.2,12.0L19.3,10.9L17.6,10.5L16.2,10.0L14.9,9.9L12.4,9.4Z" fill="#000" fill-rule="evenodd"/>
</svg>