<svg xmlns="http://www.w3.org/2000/svg" viewBox="0 0 128 128" width="128" height="128">
  <path d="M39.4,38.6L39.5,38.9L40.8,39.2L41.3,39.4L41.6,39.4L44.0,40.6L46.5,42.3L48.0,43.6L49.3,45.1L50.9,47.8L51.0,48.2L51.5,49.2L52.0,50.8L52.8,53.9L53.5,67.7L54.3,74.4L55.3,78.1L56.2,80.3L57.5,82.7L59.0,84.4L61.2,86.2L64.1,87.7L64.4,87.7L66.4,88.6L69.8,89.3L71.9,89.6L73.3,89.6L74.0,89.8L86.6,89.8L88.4,89.6L88.5,89.4L86.8,89.1L84.4,88.3L82.5,87.3L80.9,86.2L79.8,85.2L78.3,83.7L77.6,82.7L75.7,79.3L75.7,78.8L75.2,77.7L74.8,75.8L74.4,74.9L74.4,73.6L74.0,70.9L73.7,63.9L73.8,55.9L73.6,54.0L72.8,51.1L72.1,49.4L71.5,48.3L69.9,46.4L67.2,43.9L65.5,42.8L63.6,41.7L61.7,40.9L57.2,39.6L52.5,38.8L47.8,38.5Z M9.3,38.6L9.4,38.9L9.9,39.0L10.1,39.2L11.2,39.4L12.3,39.9L12.9,40.3L13.3,40.3L16.9,42.8L18.8,44.9L19.5,46.1L19.9,46.6L21.2,49.3L22.0,51.4L22.8,54.9L23.1,59.5L23.3,65.8L23.7,70.5L24.0,71.7L24.2,74.2L24.5,75.2L24.8,76.7L25.7,79.3L27.1,82.2L28.7,84.3L29.7,85.2L31.6,86.6L35.7,88.4L39.4,89.2L43.1,89.7L54.2,89.7L58.2,89.5L57.9,89.3L56.1,88.9L56.0,88.7L53.9,87.9L52.3,87.1L50.4,85.6L48.1,83.2L47.1,81.8L46.9,81.3L46.6,81.0L46.1,79.7L45.8,79.2L44.9,76.2L44.4,74.1L44.1,71.4L43.8,65.6L43.8,55.7L43.6,54.1L43.3,52.7L42.8,51.0L41.6,48.6L40.3,46.8L39.4,45.7L37.5,44.0L35.7,42.8L33.2,41.5L32.5,41.3L32.0,41.0L28.6,39.9L28.2,39.9L25.7,39.3L23.6,39.0L22.6,39.0L21.1,38.6L17.0,38.5L10.8,38.5Z M68.7,38.7L69.0,38.9L69.8,39.0L72.4,39.9L75.6,41.7L76.5,42.6L77.0,42.8L78.7,44.6L79.8,46.1L80.7,47.9L81.9,50.9L82.6,54.0L83.2,67.5L83.5,69.9L83.7,71.1L83.8,72.6L84.1,73.8L84.4,75.7L84.9,77.6L86.1,80.7L87.6,83.0L88.8,84.4L90.2,85.6L93.2,87.4L95.6,88.4L98.7,89.2L99.8,89.3L101.3,89.6L104.3,89.8L118.7,89.8L118.5,89.5L117.2,89.2L114.8,88.3L111.7,86.6L110.0,85.2L108.7,83.8L107.7,82.6L106.6,80.7L105.3,77.4L104.4,73.6L104.4,72.5L104.3,71.9L104.0,67.3L103.9,63.8L104.0,61.9L104.0,56.2L104.0,54.5L103.4,51.9L102.3,49.1L101.3,47.7L101.2,47.3L100.4,46.6L99.5,45.5L97.7,43.9L95.3,42.3L92.3,40.9L91.8,40.8L90.2,40.2L88.8,39.9L88.2,39.6L87.3,39.5L86.7,39.3L85.2,39.0L83.9,39.0L81.9,38.6L79.0,38.6L77.7,38.4L69.6,38.5Z" fill="#000" fill-rule="evenodd"/>
</svg>