<svg xmlns="http://www.w3.org/2000/svg" viewBox="0 0 128 128" width="128" height="128">
  <path d="M9.5,13.2L9.3,13.5L9.8,96.6L10.0,97.4L10.4,97.7L12.2,98.8L14.5,99.6L17.1,100.2L19.1,100.3L19.8,100.5L22.1,100.4L24.9,100.1L28.7,98.9L31.9,97.4L34.4,95.7L36.4,94.0L38.5,91.8L41.0,88.3L42.9,84.5L44.1,80.8L45.0,76.5L45.1,72.0L44.5,67.9L44.1,66.8L44.0,65.6L42.5,61.7L41.7,60.4L41.5,59.7L40.3,57.6L39.1,55.0L38.5,54.4L38.1,53.2L37.6,52.6L37.2,51.7L36.0,49.7L34.0,45.1L32.9,41.4L32.8,39.9L32.4,38.7L32.3,35.7L32.8,32.5L33.4,30.3L35.3,27.3L36.7,25.9L38.7,24.6L40.2,24.1L41.6,23.8L43.4,23.8L44.4,24.0L45.8,24.5L47.9,26.0L49.6,27.9L50.6,29.3L50.9,30.1L51.4,30.9L51.4,31.2L51.9,32.0L52.8,34.5L54.0,39.1L54.5,41.9L55.0,46.5L55.0,52.9L54.7,56.6L53.3,64.0L52.2,67.5L51.3,71.1L50.3,73.6L48.6,79.2L47.8,80.8L47.5,82.4L46.7,84.5L46.1,87.0L45.5,90.4L45.1,92.0L45.1,93.3L44.8,94.5L44.7,100.0L45.3,103.0L46.5,106.6L47.8,109.0L49.5,110.9L50.4,111.6L52.4,112.7L53.7,113.2L56.4,113.5L58.9,113.1L60.1,112.5L61.5,111.6L62.4,110.8L63.5,109.4L65.0,106.6L66.0,103.4L66.3,101.1L66.5,100.6L66.7,97.6L66.6,93.3L66.3,92.4L66.0,89.7L65.3,87.0L65.1,85.7L63.6,80.9L61.8,76.3L61.0,73.6L60.2,71.8L60.0,70.9L59.0,68.1L57.4,61.9L57.4,60.8L57.0,59.5L56.7,55.7L56.5,55.1L56.5,50.1L57.0,45.5L57.5,42.7L58.7,39.2L60.3,36.3L62.4,33.9L64.6,32.3L67.4,31.0L70.0,30.5L72.8,30.7L74.6,31.4L75.9,32.0L77.2,32.9L78.6,34.3L79.9,36.0L80.5,37.1L81.5,40.1L82.0,43.2L81.8,46.2L81.4,48.2L80.4,51.8L79.9,53.0L79.3,54.7L78.6,56.1L78.2,57.4L77.8,58.1L77.5,59.1L77.0,59.8L75.4,64.0L74.9,65.0L73.4,68.8L73.2,69.7L73.0,69.9L72.5,71.4L71.8,74.3L71.3,75.5L70.8,77.8L70.5,78.9L70.2,80.5L70.2,81.3L69.9,82.1L69.6,84.9L69.6,88.1L69.8,90.7L70.2,91.8L70.2,92.6L70.9,95.6L71.8,98.4L72.3,99.2L72.5,100.0L74.2,103.2L75.5,105.1L77.0,107.0L80.7,110.6L82.7,111.8L83.0,112.1L85.5,113.4L89.5,114.9L91.8,115.4L93.5,115.6L98.2,115.4L101.6,114.6L104.7,113.7L105.3,113.3L105.5,113.3L107.6,112.3L108.2,112.1L108.5,111.9L110.2,111.0L110.5,110.7L110.8,110.7L111.7,110.1L115.5,107.4L117.6,105.5L118.0,105.0L118.1,104.6L118.3,97.8L118.2,96.6L118.4,94.2L118.5,83.2L118.7,81.0L118.6,73.9L118.8,67.2L118.7,64.4L118.8,60.4L118.9,39.1L118.8,35.6L118.8,14.1L118.5,13.7L117.4,13.5L100.0,13.6L96.6,13.5L93.0,13.5L91.1,13.3L87.5,13.4L85.9,13.2L69.0,13.1L50.9,12.7L26.3,12.7L18.7,12.9L16.8,12.8L11.3,13.0L10.4,12.9Z" fill="#000" fill-rule="evenodd"/>
</svg>