<svg xmlns="http://www.w3.org/2000/svg" viewBox="0 0 128 128" width="128" height="128">
  <path d="M17.2,19.5L16.4,20.9L14.3,27.2L13.0,32.3L12.9,33.6L12.7,33.9L11.8,38.4L11.7,38.8L11.6,40.0L10.6,45.4L10.4,48.7L9.9,51.2L9.9,53.0L9.7,56.0L9.5,56.9L9.3,61.3L9.4,70.9L9.6,72.4L9.6,74.5L9.8,75.3L9.8,76.7L10.2,80.6L11.0,87.0L12.1,93.1L12.5,94.2L13.0,97.2L13.4,98.2L14.1,101.3L14.7,103.0L14.7,103.4L15.0,104.0L15.1,104.7L15.6,106.4L16.4,108.0L16.7,108.3L19.6,109.9L20.8,110.1L21.5,110.5L22.5,110.7L23.4,111.2L24.0,111.3L24.6,111.5L25.6,111.7L28.0,112.6L29.0,112.6L30.3,113.2L31.2,113.3L34.1,114.1L37.4,114.9L38.8,115.0L39.7,115.3L40.2,115.3L42.6,115.9L44.0,116.0L45.0,116.3L48.4,116.5L51.1,117.0L56.3,117.4L59.8,117.4L60.9,117.5L65.2,117.5L66.5,117.4L71.3,117.4L72.5,117.2L73.9,117.2L75.5,116.9L76.9,116.9L77.6,116.7L78.5,116.7L83.7,116.1L84.8,115.8L86.6,115.6L88.0,115.2L89.1,115.1L92.9,114.2L93.3,114.2L96.6,113.3L97.3,113.2L97.6,113.0L98.8,112.8L100.3,112.3L102.2,111.9L110.1,109.1L111.2,108.2L111.7,107.2L112.3,105.5L112.3,105.2L112.5,105.0L113.2,102.7L113.4,101.6L113.7,101.2L114.2,99.3L114.4,97.8L114.6,97.6L115.4,93.7L115.7,93.0L115.9,91.4L116.2,90.7L116.4,88.8L116.7,88.0L116.9,86.1L117.3,84.9L117.4,83.3L117.7,81.7L118.0,78.0L118.3,76.4L118.5,72.0L118.8,68.0L118.9,63.6L118.8,59.1L118.7,58.1L118.7,55.7L118.4,51.4L117.5,45.0L117.5,44.1L117.3,42.1L116.9,40.8L116.8,39.3L116.5,38.5L116.3,36.9L116.0,35.6L115.7,33.8L115.4,33.0L115.3,32.1L114.8,29.9L114.4,29.0L114.2,27.7L113.4,25.3L112.7,22.6L112.0,20.7L111.3,20.0L108.7,18.7L106.1,17.9L105.6,17.7L104.7,17.5L103.4,16.9L102.7,16.8L101.5,16.4L100.7,16.3L99.3,15.7L98.4,15.6L97.7,15.3L97.1,15.3L95.8,14.8L93.1,14.2L91.8,13.8L90.2,13.6L88.5,13.1L84.7,12.6L84.3,12.4L79.4,11.8L77.5,11.5L76.3,11.5L75.6,11.3L74.3,11.3L71.2,10.9L65.3,10.7L57.9,10.8L52.6,11.3L51.1,11.3L46.7,11.9L45.8,11.9L40.1,12.9L39.8,13.0L38.7,13.1L33.5,14.2L32.5,14.6L27.9,15.6L27.1,16.0L25.2,16.5L19.5,18.3L18.4,18.8Z M26.5,24.5L26.8,24.2L27.4,24.0L42.4,23.9L55.7,23.9L56.8,24.0L57.3,24.4L58.3,31.4L58.3,32.5L58.7,35.2L59.0,38.5L59.3,39.6L59.4,41.8L59.9,45.5L59.9,47.1L60.3,48.7L60.5,51.6L60.8,53.0L60.9,54.7L61.1,55.9L61.1,57.0L61.8,61.3L62.1,64.6L62.3,65.8L62.3,67.1L62.7,69.4L62.8,71.6L63.1,72.8L63.3,74.6L63.6,74.8L64.0,72.9L64.2,69.8L64.6,66.7L64.7,64.6L65.0,63.2L65.0,61.8L65.3,60.3L65.4,58.5L65.8,54.8L66.1,49.8L66.3,49.4L66.5,45.6L66.9,43.7L67.1,39.2L67.4,37.9L67.6,35.0L68.0,33.2L68.0,32.1L68.3,30.2L68.6,27.0L69.0,24.7L69.4,24.1L70.2,24.0L77.6,24.0L88.8,24.1L97.9,24.0L101.0,24.2L101.4,24.4L101.6,25.3L101.7,26.8L102.0,27.8L102.6,33.3L102.8,34.8L102.7,36.4L102.4,36.7L101.9,36.8L87.3,36.8L86.7,37.3L86.7,37.6L87.0,42.0L87.6,45.4L87.7,47.4L88.0,48.5L88.2,51.2L88.4,51.7L88.4,52.9L88.7,54.2L89.0,57.7L89.3,59.8L89.4,61.7L89.7,63.0L90.0,66.4L90.3,67.7L91.0,74.5L91.4,76.4L91.4,77.4L91.7,79.4L91.8,81.2L92.1,82.4L92.8,87.6L93.4,90.2L93.7,90.7L94.4,91.5L95.4,91.8L97.4,91.8L98.4,91.3L99.5,90.1L100.0,89.0L100.0,84.9L100.3,84.5L108.4,84.4L111.8,84.5L112.2,84.7L112.6,85.3L112.8,88.0L112.8,90.4L112.6,91.9L111.6,94.8L110.5,97.2L108.7,99.6L106.6,101.5L104.3,103.0L103.7,103.2L103.4,103.5L101.5,104.2L98.3,105.0L94.1,105.0L91.4,104.3L89.4,103.6L87.5,102.6L85.3,100.9L82.9,98.2L80.9,94.7L80.9,94.3L80.5,93.4L80.4,92.5L79.9,91.0L79.4,86.7L79.2,83.4L79.0,82.6L78.5,76.4L78.1,72.6L78.1,71.1L77.6,68.3L77.1,61.5L76.9,60.9L76.9,59.9L76.8,59.5L76.5,59.4L76.1,60.9L76.0,63.2L74.9,70.7L74.9,72.0L74.5,73.8L74.0,78.9L74.0,80.2L73.3,84.0L73.2,86.8L72.7,89.4L72.6,91.3L72.1,94.3L71.5,100.9L71.1,102.6L71.1,103.3L70.7,104.0L70.2,104.1L60.9,104.2L57.1,104.1L56.4,104.0L56.0,103.7L55.8,102.6L55.6,100.3L55.3,99.4L55.1,96.4L54.8,94.3L54.6,91.7L54.3,90.8L54.3,89.7L53.5,84.3L53.5,83.2L53.3,81.8L52.5,73.9L52.3,72.7L52.0,68.6L51.6,67.1L51.6,65.8L51.1,63.0L51.1,61.6L50.8,59.9L50.5,60.0L50.3,62.4L49.7,67.2L49.7,68.3L49.5,68.9L49.4,70.5L48.5,77.0L48.4,79.4L47.7,83.6L47.4,87.1L47.1,88.8L47.1,89.7L46.8,91.4L45.7,94.7L43.6,98.3L42.5,99.6L41.4,100.5L38.6,102.6L35.7,103.9L32.4,104.6L30.2,104.7L28.0,104.5L26.6,104.0L25.9,104.0L22.9,102.7L19.7,100.4L18.0,98.8L16.7,97.0L15.2,93.8L15.0,92.5L14.7,91.7L14.5,87.6L14.7,85.2L15.3,84.5L26.9,84.5L27.5,85.2L27.5,88.3L27.7,89.3L28.2,90.3L29.0,91.0L29.8,91.4L31.4,91.5L32.4,91.1L33.7,89.8L34.0,88.9L34.7,85.6L34.9,83.3L35.2,81.1L35.5,77.4L35.8,76.1L36.1,72.1L36.5,70.0L36.7,67.0L37.1,65.2L37.1,64.0L37.8,59.1L37.8,58.0L38.2,55.8L38.2,54.8L38.7,52.0L38.8,49.0L39.2,47.6L39.2,46.2L39.6,44.2L39.9,40.4L40.2,38.4L40.2,37.2L40.1,37.0L39.7,36.8L25.6,36.8L25.1,36.3L25.1,35.1L25.3,34.3L25.5,30.8L25.9,29.0L26.2,26.0Z" fill="#000" fill-rule="evenodd"/>
</svg>