<svg xmlns="http://www.w3.org/2000/svg" viewBox="0 0 128 128" width="128" height="128">
  <path d="M10.6,9.6L10.4,10.0L10.3,16.8L10.3,44.3L10.5,61.3L10.3,62.7L10.5,78.3L10.5,116.6L10.8,117.5L11.2,117.7L33.4,118.0L37.8,118.1L41.3,118.0L54.2,118.3L55.5,118.2L62.4,118.4L73.3,118.4L83.2,118.7L90.7,118.6L107.9,118.9L116.6,118.8L117.1,118.4L117.3,117.8L117.2,95.6L117.4,91.6L117.3,87.3L117.5,83.7L117.4,75.3L117.6,65.0L117.5,59.4L117.7,44.5L117.6,35.8L117.9,20.6L117.9,11.4L117.7,11.0L117.1,10.7L96.9,10.4L94.1,10.5L72.1,10.1L67.6,10.2L64.4,10.0L61.7,10.1L56.2,10.0L31.1,9.8L23.7,9.5L19.3,9.6L11.2,9.4Z M17.5,16.0L22.5,15.9L33.5,16.2L42.6,16.2L46.6,16.4L58.9,16.4L60.3,16.5L60.9,17.0L61.1,19.4L61.1,22.2L60.9,27.0L61.0,38.1L60.8,41.8L60.9,48.5L60.7,76.2L61.1,76.9L61.7,77.1L63.1,77.2L66.4,77.1L66.9,76.7L67.1,75.8L67.1,52.4L67.3,45.8L67.2,32.8L67.5,17.1L68.2,16.6L89.2,16.9L103.9,16.9L110.4,17.1L111.0,17.2L111.3,17.5L111.4,31.0L111.2,40.7L111.3,53.8L111.1,64.1L111.1,89.3L110.9,98.9L111.0,109.2L110.9,111.5L110.6,112.3L110.0,112.6L95.0,112.5L93.0,112.4L92.5,112.2L92.3,111.8L92.2,86.3L92.4,53.7L92.3,52.6L91.9,52.1L91.6,52.0L86.8,52.0L86.3,52.2L86.1,52.6L85.9,65.1L86.0,70.9L85.9,73.6L85.6,75.0L85.6,77.1L85.8,78.4L85.8,79.8L85.6,80.6L85.9,81.2L86.0,82.6L85.9,108.2L85.8,111.7L85.4,112.3L80.0,112.4L75.7,112.2L65.9,112.2L62.3,112.0L58.4,112.1L53.6,111.9L48.0,111.9L42.9,111.7L42.3,111.2L42.1,110.4L42.3,52.8L42.2,52.0L41.5,51.3L40.4,51.2L36.3,51.3L35.8,51.7L35.7,52.8L35.8,56.1L35.7,60.1L35.7,111.2L35.1,111.6L26.4,111.6L17.7,111.3L17.1,110.9L16.9,107.2L16.9,17.1L17.0,16.6Z" fill="#000" fill-rule="evenodd"/>
</svg>