<svg xmlns="http://www.w3.org/2000/svg" viewBox="0 0 128 128" width="128" height="128">
  <path d="M17.6,107.6L17.3,107.7L16.6,108.3L16.6,109.0L17.0,109.0L17.9,108.2L18.4,108.2L19.0,108.7L19.0,109.6L18.7,110.0L18.2,110.2L17.9,110.4L17.9,110.7L18.9,111.2L19.3,112.0L19.0,112.4L19.0,112.7L18.7,112.9L17.5,112.8L16.8,112.1L16.5,112.1L16.5,112.8L17.1,113.5L18.3,113.7L19.3,113.3L19.6,113.0L19.8,112.5L19.8,111.2L19.6,110.8L19.6,110.2L19.8,109.8L19.8,108.6L19.4,108.0L18.9,107.7Z M22.2,107.5L21.3,107.9L21.1,108.1L20.9,108.7L20.9,112.7L21.1,113.2L21.3,113.4L22.0,113.6L23.1,113.6L23.7,113.4L24.1,112.7L24.1,110.6L24.0,110.3L23.3,109.8L22.0,109.8L21.6,109.6L21.5,108.9L22.1,108.3L23.0,108.3L23.7,108.9L24.0,108.9L24.1,108.3L23.5,107.7L22.9,107.5Z M22.5,110.4L23.0,110.5L23.4,110.9L23.6,111.6L23.4,112.6L22.8,112.9L22.2,112.9L21.5,112.3L21.4,112.0L21.5,111.1L22.1,110.5Z M13.1,107.5L12.7,107.8L12.2,108.3L12.1,110.0L12.3,110.7L12.6,111.0L13.2,111.3L14.5,111.4L14.8,111.7L14.8,112.0L14.5,112.5L13.9,112.9L13.2,112.8L12.7,112.4L12.2,112.5L12.2,112.8L12.9,113.5L14.2,113.6L14.8,113.3L15.3,112.6L15.5,110.4L15.4,109.1L15.2,108.1L14.7,107.6Z M13.7,108.0L14.3,108.2L14.9,109.0L14.9,109.8L14.1,110.6L13.2,110.5L12.7,110.0L12.6,109.1L12.9,108.6Z M86.3,31.8L84.5,31.5L81.4,31.6L80.0,32.0L79.4,32.3L78.5,32.6L76.1,34.3L75.4,35.2L74.7,35.7L73.8,37.4L73.0,39.6L72.8,41.2L72.7,43.4L72.7,51.4L73.0,64.0L73.0,85.2L73.1,89.7L73.5,90.2L73.9,90.3L77.8,90.3L78.4,90.0L78.7,89.2L78.4,41.3L78.9,39.8L79.4,38.8L80.9,37.4L81.3,37.2L83.6,36.9L84.4,36.9L85.6,37.4L86.5,38.0L87.6,39.2L88.1,40.0L88.6,41.7L88.6,48.0L88.7,49.4L88.7,52.1L88.9,66.9L89.0,67.2L89.4,67.6L90.8,67.7L93.5,67.6L93.8,67.5L94.4,67.0L94.4,44.8L94.2,41.1L93.9,39.3L92.8,36.7L91.6,35.1L90.8,34.3L89.1,33.0Z M91.1,21.7L87.3,20.7L85.5,20.4L81.9,20.4L79.2,20.7L76.9,21.3L73.7,22.5L71.8,23.6L69.9,24.9L67.4,27.1L65.3,29.6L63.8,31.9L62.6,34.7L62.1,36.5L62.1,36.9L61.6,38.7L61.3,41.4L61.3,45.2L61.5,47.4L61.5,60.0L61.7,62.7L61.6,67.9L61.8,80.9L61.8,98.9L62.1,99.4L62.4,99.5L66.8,99.5L67.1,99.2L67.3,98.5L67.3,83.5L67.1,76.1L67.1,61.0L67.0,47.0L67.0,40.3L67.2,38.5L67.5,37.4L68.8,34.3L69.4,33.3L69.4,33.2L70.1,32.4L70.3,32.0L72.4,29.7L73.4,28.9L75.0,27.9L78.3,26.4L81.1,25.8L84.6,25.7L87.9,26.3L90.8,27.4L93.3,28.9L94.7,30.2L96.1,31.7L97.7,33.9L98.4,35.3L99.3,37.5L99.8,40.5L100.3,67.0L100.7,67.5L100.9,67.6L104.8,67.6L105.3,67.5L105.7,67.0L105.7,63.5L105.9,60.8L105.7,59.9L105.6,55.6L105.7,52.1L105.5,40.4L105.4,39.3L105.2,39.1L105.1,37.5L104.7,35.9L103.4,32.7L103.1,32.4L102.8,31.5L101.6,29.7L100.0,27.7L98.0,25.8L96.1,24.3L94.3,23.2L93.7,23.0L93.5,22.7Z M95.2,11.5L91.1,10.3L90.6,10.3L86.9,9.5L86.0,9.5L85.1,9.3L79.9,9.4L76.3,10.0L71.5,11.4L70.6,11.8L69.8,12.0L67.6,13.1L64.3,15.1L63.3,15.2L60.4,13.4L60.1,13.4L58.5,12.5L54.2,10.9L53.3,10.8L51.5,10.3L46.6,9.7L42.6,9.7L40.4,9.9L39.4,10.2L37.7,10.4L34.8,11.1L29.9,13.0L27.8,14.3L27.3,14.4L23.1,17.5L19.8,20.6L17.3,23.7L15.5,26.4L13.5,30.7L12.4,33.9L12.0,35.8L11.7,36.6L11.2,41.6L11.2,48.8L11.5,55.7L11.4,67.0L11.6,67.8L12.3,68.2L16.1,68.2L16.4,68.1L16.9,67.3L16.8,45.3L16.9,40.5L17.2,38.1L17.9,34.9L18.5,33.5L18.5,33.2L19.5,30.8L21.6,27.1L23.7,24.4L27.2,21.1L31.0,18.5L34.3,16.9L35.7,16.5L36.8,16.1L41.6,15.1L46.6,15.0L51.0,15.6L51.5,15.9L54.2,16.5L55.5,17.2L55.8,17.2L58.6,18.7L59.0,19.2L58.7,19.9L56.9,21.9L56.2,22.8L55.7,23.3L55.1,23.3L52.5,22.1L49.4,21.3L48.6,21.3L48.1,21.1L46.6,20.9L43.0,20.9L41.1,21.1L38.1,21.8L35.5,22.8L33.1,24.1L30.9,25.6L28.8,27.5L26.8,29.9L25.7,31.7L25.6,32.1L25.1,32.6L24.2,34.6L23.6,36.7L23.1,39.0L22.9,39.3L22.9,40.4L22.6,41.8L22.5,46.7L22.8,59.7L22.7,61.0L23.0,61.9L23.0,62.5L22.8,62.8L22.9,67.4L23.3,68.0L23.7,68.2L27.6,68.1L28.0,68.0L28.5,67.5L28.5,66.6L28.3,48.3L28.4,41.0L28.9,38.1L29.7,36.0L30.6,34.2L31.1,33.5L31.2,33.2L31.7,32.7L31.9,32.2L32.6,31.6L33.4,30.6L33.7,30.5L34.8,29.5L36.1,28.5L38.3,27.4L41.3,26.4L45.0,26.1L48.9,26.6L51.7,27.7L52.6,28.5L52.6,29.0L52.3,30.2L51.8,31.1L51.4,32.5L50.9,33.3L50.4,33.3L49.1,32.7L47.1,32.1L45.6,31.9L44.1,31.9L41.7,32.3L40.8,32.8L40.2,32.9L37.5,34.6L35.6,37.0L35.6,37.3L35.2,37.8L34.6,39.1L34.1,41.7L34.0,44.5L34.3,67.4L34.8,68.0L38.7,68.1L39.3,67.9L39.7,67.2L39.7,54.4L39.5,43.5L40.0,40.4L40.8,39.0L42.4,37.7L43.7,37.2L45.5,37.2L46.9,37.7L47.6,38.1L49.0,39.4L49.5,40.3L49.9,41.7L50.1,48.1L50.0,51.9L50.2,59.1L50.2,73.1L50.3,81.7L50.2,95.8L50.4,101.9L50.4,117.4L50.5,118.3L50.7,118.7L51.1,118.8L55.4,118.8L55.9,118.5L56.1,118.1L56.2,103.4L55.9,82.1L56.0,79.4L55.8,72.5L55.8,53.2L55.6,48.2L55.7,41.2L56.0,37.2L57.2,32.7L57.9,31.1L58.0,30.6L58.4,30.1L58.5,29.7L59.0,28.6L60.4,26.7L60.6,26.2L62.0,24.5L65.8,20.7L68.7,18.7L71.4,17.2L73.5,16.5L74.2,16.1L74.9,16.0L75.5,15.6L76.5,15.5L78.0,15.1L81.7,14.6L84.9,14.6L88.7,15.2L89.3,15.4L91.0,15.7L91.4,16.0L93.6,16.6L95.9,17.7L97.6,18.7L98.1,18.8L98.7,19.4L99.5,19.9L101.0,21.2L101.3,21.3L103.7,23.6L105.0,25.0L107.0,27.9L109.0,31.7L110.5,36.2L111.1,39.8L111.1,43.9L111.3,47.1L111.2,48.8L111.4,55.8L111.4,62.9L111.5,67.0L111.8,67.4L112.4,67.6L116.2,67.6L116.6,67.4L116.9,67.0L117.0,55.6L116.7,39.8L116.3,36.5L115.9,35.0L115.7,33.8L114.7,30.7L113.9,28.7L113.4,28.0L113.3,27.5L111.2,23.9L109.3,21.5L107.0,19.0L104.1,16.5L101.0,14.3L97.0,12.2L96.0,11.9Z" fill="#000" fill-rule="evenodd"/>
</svg>