<svg xmlns="http://www.w3.org/2000/svg" viewBox="0 0 128 128" width="128" height="128">
  <path d="M115.6,9.4L107.1,9.3L103.2,9.5L93.7,9.5L90.3,9.8L84.9,9.7L84.3,9.9L69.5,9.9L67.0,10.1L65.5,10.0L64.1,10.2L61.3,10.1L57.3,10.3L52.8,10.2L49.7,10.3L45.7,10.2L44.3,10.4L43.3,10.3L26.4,10.6L21.0,10.5L17.3,10.7L11.9,10.6L11.3,10.7L11.0,11.0L10.8,11.3L11.0,12.6L10.9,13.4L11.1,18.3L11.0,21.1L11.2,27.7L11.2,42.9L11.3,50.5L11.3,52.4L11.4,55.6L11.3,56.4L11.6,65.9L11.6,70.9L11.9,75.1L11.8,79.5L12.1,83.8L12.1,89.3L12.3,91.2L12.3,95.6L12.4,97.6L12.4,99.6L12.5,102.4L12.7,114.5L12.9,115.5L12.9,117.7L13.4,118.3L23.1,118.6L26.8,118.5L27.4,118.7L32.7,118.6L34.4,118.8L40.7,118.6L44.5,118.8L55.1,118.7L55.6,118.9L57.1,118.8L63.2,118.9L76.5,118.9L83.8,118.8L84.9,118.9L87.1,118.8L107.9,118.8L114.0,119.0L117.1,118.9L117.5,116.4L117.5,115.1L117.2,114.3L117.1,113.4L117.3,112.0L117.3,107.1L117.0,100.4L117.1,97.8L116.9,97.1L117.0,87.6L116.9,85.4L116.7,85.0L116.8,82.6L116.7,79.9L116.7,62.4L116.5,59.1L116.6,56.3L116.4,52.4L116.6,50.6L116.4,49.5L116.3,46.6L116.4,42.5L116.2,42.1L116.3,36.8L116.1,30.9L116.2,19.5L115.9,15.2L115.9,10.9L115.8,9.6Z M32.5,32.1L34.0,31.1L35.5,30.5L36.5,30.3L37.8,30.3L39.2,30.7L41.1,31.9L42.3,33.1L43.5,34.7L44.1,36.0L44.3,37.6L44.2,39.4L44.5,47.5L44.4,50.9L44.8,64.4L44.7,71.3L44.9,72.0L44.8,75.7L45.0,77.5L45.2,93.3L45.8,94.8L46.4,95.6L46.9,96.0L47.9,96.2L49.6,96.1L50.4,95.8L51.0,95.1L51.5,94.3L51.9,92.4L51.7,79.2L51.7,68.5L51.5,65.7L51.6,62.7L51.4,61.6L51.4,48.6L51.2,46.4L51.2,37.6L51.5,36.6L51.5,35.9L52.5,33.4L53.6,32.2L55.7,30.9L57.7,30.3L59.6,30.4L61.0,30.9L62.1,31.4L63.7,32.7L65.1,34.4L65.7,35.9L65.7,46.2L65.9,49.0L65.9,53.3L66.1,54.2L66.0,56.7L66.2,57.9L66.1,70.6L66.2,71.2L66.2,72.5L66.3,73.7L66.5,89.3L66.7,90.8L66.7,93.1L67.2,94.7L67.7,95.5L68.6,96.4L69.5,96.6L70.8,96.5L72.2,95.9L73.0,95.1L73.9,93.3L73.6,81.8L73.7,77.1L73.5,74.3L73.6,69.5L73.4,63.7L73.6,63.0L73.6,62.2L73.4,61.7L73.3,43.1L73.1,42.3L73.1,36.6L73.3,35.8L73.9,34.4L75.0,32.8L76.5,31.4L78.8,30.5L81.1,30.4L82.4,30.7L84.6,31.7L85.5,32.4L86.9,34.2L87.4,35.4L87.7,36.8L87.6,40.6L87.8,42.8L87.7,45.2L87.9,46.1L87.8,49.9L88.0,51.9L88.0,62.0L88.2,66.7L88.1,71.2L88.2,73.5L88.2,78.9L88.4,81.1L88.3,83.4L88.5,93.1L89.0,94.7L89.3,95.1L90.3,96.1L90.7,96.4L91.4,96.6L93.1,96.4L93.9,95.8L94.7,95.1L95.1,94.2L95.4,92.9L95.3,90.3L95.5,88.2L95.5,82.3L95.2,76.3L95.2,67.3L95.8,66.6L96.8,66.5L98.4,66.8L98.7,67.2L99.1,72.4L99.0,76.4L99.2,82.6L99.1,84.2L99.3,87.2L99.3,90.4L99.5,91.3L99.5,92.3L99.1,95.3L98.6,96.6L97.6,97.9L96.0,99.2L94.1,100.2L92.4,100.4L91.4,100.4L90.5,100.2L90.0,100.2L88.8,99.6L87.7,98.9L86.0,97.2L85.0,95.1L84.7,93.9L84.5,89.3L84.5,75.8L84.3,74.9L84.3,63.0L84.2,60.3L84.0,59.3L83.8,37.1L83.6,36.0L83.2,35.3L82.5,34.5L80.7,34.1L80.1,34.1L78.7,34.5L77.5,35.7L77.2,36.6L77.0,38.5L77.0,46.9L77.2,49.1L77.2,55.4L77.3,58.0L77.2,62.1L77.4,63.4L77.3,68.7L77.5,69.5L77.5,70.2L77.3,70.8L77.3,72.8L77.5,73.5L77.3,75.7L77.4,91.8L77.3,95.0L76.6,96.9L74.1,99.4L73.3,99.9L70.7,100.4L69.8,100.4L67.5,99.9L66.0,98.9L65.1,98.1L64.2,97.0L63.5,95.7L62.9,93.7L62.8,91.6L62.9,85.8L62.7,84.8L62.8,80.3L62.6,77.4L62.5,63.2L62.3,61.5L62.3,51.0L62.1,50.1L62.1,38.4L61.7,35.9L60.6,34.6L60.1,34.4L59.6,34.3L57.7,34.3L56.8,34.7L55.9,35.8L55.5,36.6L55.2,37.8L55.5,68.7L55.7,69.3L55.6,80.4L55.9,89.9L55.8,95.0L54.8,97.0L53.3,98.6L52.2,99.4L49.7,100.2L47.5,100.2L46.7,100.1L45.0,99.2L43.7,98.2L42.3,96.4L41.8,95.3L41.3,93.5L41.2,83.8L41.0,79.4L41.2,75.4L41.0,74.5L41.2,73.9L41.6,71.0L41.7,67.1L41.3,63.9L40.9,62.2L40.8,54.0L40.6,52.0L40.6,42.3L40.4,41.2L40.4,37.9L40.0,35.8L39.0,34.7L38.1,34.3L37.0,34.2L36.1,34.4L35.0,34.9L34.1,36.0L33.4,38.1L33.4,49.6L33.6,53.2L33.5,56.3L33.7,57.4L33.6,58.9L33.8,64.4L33.6,64.8L33.2,65.1L31.5,65.2L30.7,65.1L30.1,64.3L30.0,57.2L29.9,56.1L30.0,53.6L29.9,46.2L29.7,44.7L29.7,37.4L30.0,36.2L30.0,35.7L30.5,34.4L31.1,33.4Z" fill="#000" fill-rule="evenodd"/>
</svg>