<svg xmlns="http://www.w3.org/2000/svg" viewBox="0 0 128 128" width="128" height="128">
  <path d="M61.0,83.4L60.6,83.4L60.0,84.0L59.4,85.3L59.3,86.2L58.9,87.4L58.9,88.2L58.7,89.1L58.7,90.2L57.9,92.8L57.6,95.1L57.0,96.5L56.9,98.0L56.6,99.6L56.7,105.3L57.3,108.6L57.6,108.5L58.0,106.2L58.5,105.4L58.6,104.6L58.9,104.0L59.3,102.8L59.3,102.3L59.9,99.9L60.0,97.9L60.4,97.1L60.9,95.2L60.9,93.0L61.3,92.1L61.3,90.7L61.1,90.7L61.1,91.1L60.7,92.2L60.5,93.4L60.0,94.1L59.8,94.9L59.1,95.6L58.7,95.6L58.6,95.4L58.5,95.0L58.7,94.1L59.0,93.5L59.0,93.1L58.6,92.7L58.6,92.3L59.3,92.0L59.4,91.6L59.4,90.8L60.2,88.5L60.1,87.8L59.8,87.6L59.7,87.0L60.0,86.1L61.0,84.7L61.2,84.0L61.2,83.6Z M73.5,72.7L73.2,74.5L73.3,75.7L73.5,74.7Z M47.7,62.9L47.1,63.1L46.6,64.0L45.6,65.0L45.1,66.0L43.2,68.8L42.5,70.1L41.3,71.7L38.8,75.8L37.9,76.9L35.2,81.0L34.0,82.4L33.5,83.4L32.5,84.6L32.3,85.0L29.3,89.1L28.5,90.4L27.2,91.9L26.0,93.4L24.8,94.7L24.1,94.7L24.0,94.5L24.0,92.9L24.2,92.1L24.3,90.1L24.2,87.8L23.7,86.7L22.7,85.8L22.2,85.6L21.9,85.3L18.9,84.3L17.5,84.3L15.9,84.0L15.1,84.0L10.7,83.1L10.3,83.5L10.1,84.2L9.4,85.7L9.2,86.5L9.3,90.7L10.1,97.4L10.0,100.7L10.7,103.8L11.0,104.2L11.3,105.4L11.7,106.1L12.8,107.4L15.4,108.6L16.5,109.4L18.2,110.2L18.9,110.4L19.9,110.9L21.4,111.4L22.0,111.8L22.6,111.9L23.4,112.3L25.9,112.5L26.6,112.2L27.5,111.6L27.9,110.8L28.2,109.7L29.0,108.6L30.0,106.3L30.9,105.2L31.4,104.1L31.9,103.6L32.6,102.3L34.2,100.4L35.2,98.7L35.9,96.9L37.2,95.2L38.3,92.8L38.6,92.4L39.3,90.9L39.7,90.3L40.2,88.7L41.0,87.4L41.3,86.0L41.5,85.7L41.7,84.9L42.5,83.5L42.7,82.5L43.2,81.6L44.0,78.5L44.5,77.6L44.9,75.8L46.4,72.6L46.8,71.3L47.0,71.1L47.3,70.0L47.3,69.5L47.8,68.7L47.7,68.2L46.1,69.8L45.6,69.7L45.2,69.3L45.2,68.7L46.8,66.1L46.9,65.8L47.4,65.2L48.0,64.1L48.0,63.3Z M70.8,15.6L70.3,16.2L70.0,17.6L69.7,18.3L69.4,19.3L69.2,19.7L69.0,20.5L68.7,21.0L68.5,21.8L67.8,23.3L67.1,25.6L66.8,25.9L66.7,26.5L65.9,28.6L65.7,29.5L64.4,32.5L64.1,33.3L63.3,34.7L63.3,35.2L61.7,38.4L60.5,40.5L59.9,41.9L59.0,43.2L58.1,45.1L57.8,46.3L56.8,48.6L56.8,49.1L57.3,49.1L58.5,47.6L59.3,46.1L59.6,45.4L60.3,44.5L61.1,42.7L62.0,41.5L62.5,40.2L63.3,39.0L64.0,38.3L64.6,38.1L65.3,38.1L65.7,38.8L65.9,39.7L65.6,40.8L65.5,42.6L64.8,45.1L64.7,46.4L64.2,49.4L64.2,50.1L64.5,50.9L64.1,54.1L63.9,55.1L63.8,58.0L63.4,60.0L63.3,68.2L63.1,68.7L63.1,69.2L63.9,69.9L64.2,70.6L64.2,71.8L64.0,72.4L64.1,74.0L63.9,75.3L63.9,76.8L64.2,77.4L64.2,79.4L64.1,80.0L63.9,80.5L63.9,81.3L64.2,81.9L64.4,82.6L64.9,83.4L65.1,84.8L64.9,86.0L65.0,88.0L64.8,88.7L64.8,92.3L64.7,93.4L64.7,94.9L64.3,96.6L64.3,98.8L63.7,101.4L64.2,101.9L65.5,102.4L66.0,103.1L65.7,104.0L65.3,104.7L65.2,105.1L64.3,106.8L64.3,107.3L64.7,107.1L66.1,105.1L66.4,104.3L67.1,103.5L67.3,102.6L68.2,101.2L69.3,100.5L69.9,100.3L70.4,100.4L70.7,100.2L70.9,100.0L71.4,96.1L72.0,95.1L72.5,93.7L73.4,92.0L73.6,91.4L74.6,89.8L75.5,87.5L75.8,87.3L76.5,85.9L77.4,84.8L77.5,84.1L78.7,82.0L79.8,80.0L79.9,79.5L80.2,79.1L80.5,78.2L81.2,77.3L81.4,76.5L84.0,71.3L84.7,69.4L85.6,67.7L85.7,67.3L86.6,65.7L86.9,64.7L87.3,64.3L87.6,63.3L88.0,62.9L88.1,62.3L88.4,62.0L89.4,60.0L89.5,59.5L90.3,58.5L90.6,57.8L91.3,56.7L91.4,55.9L91.9,55.2L92.0,54.7L92.3,54.2L92.4,53.8L93.0,52.7L94.9,48.5L95.4,47.7L95.9,47.7L96.0,48.1L95.4,50.0L94.7,53.6L94.4,54.3L94.2,56.2L93.9,57.5L93.8,58.9L93.4,60.6L92.7,64.7L92.4,65.8L92.2,67.3L91.5,69.9L91.3,71.9L90.9,72.9L90.8,73.9L90.5,75.1L90.5,75.8L89.9,78.3L89.8,79.6L89.4,80.8L89.4,82.0L89.0,83.8L88.9,85.4L88.6,86.7L88.4,88.8L88.1,89.9L88.0,91.4L87.7,92.3L87.4,95.2L87.3,95.8L87.2,97.6L86.6,102.1L86.6,106.5L86.7,107.7L87.2,108.8L87.7,109.4L88.5,110.0L89.7,110.3L90.1,110.3L91.8,111.3L95.5,112.5L96.6,112.7L99.1,112.7L100.5,112.4L101.1,112.1L101.5,111.7L102.0,110.9L102.0,110.0L101.5,108.7L101.6,106.8L102.0,105.8L102.3,105.1L103.8,103.7L104.1,103.3L107.4,100.0L111.8,96.5L112.3,96.2L114.7,96.3L115.5,96.1L116.2,95.6L117.2,95.4L118.1,94.8L118.8,94.2L119.0,93.7L119.0,92.6L118.5,91.2L118.5,88.2L118.7,87.9L118.7,87.3L118.4,86.1L118.6,84.1L118.5,82.2L118.0,81.2L115.4,78.5L113.8,78.0L112.4,78.0L112.2,78.1L112.1,79.8L111.7,81.5L111.2,83.0L109.8,86.0L108.7,87.8L107.9,88.7L106.8,90.7L106.3,91.1L105.9,92.0L104.0,94.8L103.3,95.5L102.8,95.5L102.6,95.0L103.0,93.2L103.0,92.5L103.4,91.4L103.4,90.0L104.0,87.7L104.1,86.7L104.4,85.5L104.6,83.1L104.9,81.9L104.9,81.3L105.3,80.1L105.4,78.6L105.7,77.7L106.5,72.0L106.8,71.3L107.0,69.7L107.4,68.3L108.4,63.5L108.7,62.8L108.7,62.3L109.3,60.3L109.4,59.3L110.1,56.7L110.3,53.9L110.6,53.3L111.1,51.1L111.3,50.8L111.8,48.5L111.8,48.0L112.1,47.2L112.1,46.6L112.3,46.0L112.3,45.3L112.6,44.6L112.6,44.1L113.0,42.8L113.1,41.8L113.5,40.8L113.6,39.3L113.3,37.5L113.0,37.0L112.5,36.5L112.0,36.2L111.2,35.5L110.8,34.3L110.8,32.7L111.0,32.4L111.0,31.3L110.8,31.1L110.8,29.9L111.1,28.4L111.7,26.9L111.9,25.8L111.7,23.3L112.1,22.4L112.3,21.4L112.1,19.4L111.2,18.4L109.6,17.7L106.9,17.4L106.3,18.0L105.8,19.6L105.4,20.3L104.8,21.9L104.0,23.8L103.8,24.5L102.6,26.9L102.4,27.6L101.2,30.5L98.5,39.7L97.1,42.6L97.1,42.9L96.7,43.4L96.7,43.9L96.1,44.7L96.1,45.2L95.4,46.3L94.4,48.5L92.1,53.0L91.5,54.0L89.3,58.7L89.0,59.0L88.9,59.4L88.6,59.9L88.5,60.3L88.0,61.2L87.8,61.8L87.5,62.0L87.4,62.7L87.1,63.0L86.9,63.6L86.2,64.8L85.2,67.3L84.8,67.8L84.5,68.7L83.4,70.8L83.2,71.1L82.8,72.0L82.2,73.0L82.0,73.6L81.4,74.7L80.6,76.5L78.9,79.4L78.7,80.0L77.8,81.7L77.7,82.1L77.4,82.4L76.2,84.8L76.0,85.1L75.4,86.5L72.9,90.7L72.4,91.1L72.0,91.1L71.8,90.8L71.6,91.4L71.4,93.0L70.5,95.1L69.3,96.8L68.0,99.3L67.6,99.7L67.1,99.7L66.9,99.6L66.8,98.9L67.1,97.7L67.1,96.6L67.3,95.1L67.7,94.3L67.9,92.2L68.2,91.4L68.1,89.4L67.9,89.0L67.9,88.7L68.5,88.0L68.7,87.2L68.7,84.5L68.9,83.9L68.9,83.0L69.5,80.8L69.5,80.1L69.7,79.8L69.8,78.7L70.0,78.1L70.1,73.9L70.4,73.0L70.5,71.8L70.7,71.5L70.7,70.7L71.0,70.3L71.3,68.3L71.4,65.3L71.6,64.8L71.6,64.0L72.0,63.3L72.5,61.8L72.4,61.2L71.3,60.0L71.3,59.4L71.5,58.9L71.8,55.7L72.1,53.6L72.5,52.6L72.6,51.3L72.9,50.7L73.0,50.0L73.4,49.1L74.0,47.3L74.6,46.6L75.4,46.0L76.1,46.0L76.7,46.4L77.0,47.2L77.3,47.2L77.4,46.3L78.0,45.1L78.0,44.6L78.1,44.5L78.7,42.6L78.9,41.4L79.2,41.0L79.4,39.9L79.7,39.3L79.9,38.1L80.3,36.6L80.4,35.5L80.7,34.4L80.8,32.3L81.6,30.5L82.1,28.8L82.2,28.1L82.0,27.3L81.2,26.5L81.3,21.0L81.1,20.6L80.5,20.0L79.5,19.8L78.3,19.0L77.9,18.5L76.6,17.7L75.8,17.5L75.1,17.2L74.7,17.2L73.1,16.2L72.4,16.1L71.6,15.7Z M109.8,88.1L110.1,88.5L109.7,90.9L108.8,94.3L108.6,94.7L106.8,96.5L106.4,96.7L106.1,96.7L106.0,96.6L106.0,96.0L106.3,95.4L106.9,93.0L107.3,92.6L107.9,90.7L108.9,88.7L109.5,88.1Z" fill="#000" fill-rule="evenodd"/>
</svg>