<svg xmlns="http://www.w3.org/2000/svg" viewBox="0 0 128 128" width="128" height="128">
  <path d="M58.4,17.1L56.7,17.4L55.4,17.5L50.3,18.6L49.4,19.1L49.1,19.1L48.1,19.5L47.5,19.5L46.3,20.1L45.4,20.4L44.6,20.9L42.8,21.6L42.2,22.0L41.7,22.2L41.2,22.6L40.7,22.7L37.1,25.0L34.0,27.3L32.2,28.9L30.0,31.1L27.2,34.3L25.3,37.0L24.9,37.4L22.7,41.0L22.6,41.4L21.7,43.2L21.4,43.6L20.7,45.3L20.5,45.7L19.0,49.8L18.9,50.6L18.2,52.9L18.1,53.8L17.7,55.3L17.2,58.5L17.0,61.1L17.0,65.7L17.2,68.5L18.1,74.0L18.5,75.2L18.6,76.2L18.9,76.6L19.1,77.6L19.8,79.4L20.0,80.1L20.8,81.9L20.8,82.2L22.3,85.3L22.5,85.5L23.6,87.7L23.9,88.0L24.9,89.7L27.3,93.1L29.5,95.6L33.9,99.9L37.7,102.8L40.1,104.3L40.4,104.4L40.9,104.8L41.6,105.0L41.9,105.3L43.7,106.2L44.4,106.4L45.6,107.1L47.2,107.8L48.0,108.0L49.8,108.8L50.1,108.8L51.4,109.3L54.3,110.0L58.8,110.7L63.3,111.1L68.2,110.9L73.2,110.2L76.4,109.3L76.9,109.3L81.8,107.5L86.5,105.3L88.1,104.4L88.5,103.9L88.8,103.9L92.1,101.7L95.9,98.4L99.4,94.7L102.6,90.5L103.6,88.8L103.9,88.5L105.0,86.3L105.7,85.4L106.3,83.7L106.6,83.2L106.8,82.6L107.1,82.1L107.4,81.2L107.6,80.8L107.8,80.0L108.0,79.6L108.1,79.1L108.6,77.9L109.1,75.8L109.4,75.0L109.6,73.4L109.8,72.7L110.0,71.1L110.3,70.2L110.6,64.8L110.4,60.5L110.0,57.9L110.0,57.1L109.6,55.6L109.6,54.8L108.5,50.3L107.1,46.6L106.7,45.8L106.3,44.6L105.9,43.9L105.9,43.7L105.0,42.1L104.8,41.6L103.3,39.2L102.6,37.9L99.4,33.6L96.8,30.8L94.0,28.1L90.1,25.1L89.7,25.0L89.3,24.5L88.5,24.1L86.3,22.7L84.9,22.1L83.7,21.4L82.9,21.1L82.4,20.8L81.1,20.4L80.5,20.0L79.6,19.7L79.4,19.5L78.3,19.3L77.6,19.0L73.3,17.8L72.6,17.8L71.4,17.5L68.7,17.1L67.4,17.1L65.4,16.8L61.9,16.8Z M42.0,29.2L42.4,29.6L42.6,30.3L42.3,34.7L42.3,37.0L42.5,38.8L42.8,40.5L43.5,42.4L45.1,45.3L47.3,48.4L49.5,50.9L51.3,53.3L55.2,57.7L56.9,60.0L58.2,62.2L58.5,62.5L59.8,65.2L61.1,69.2L61.7,71.9L61.8,77.1L61.6,79.1L60.7,82.9L59.5,85.5L58.6,86.8L57.0,88.0L55.6,88.2L55.2,87.8L56.7,86.9L57.6,86.0L58.1,85.2L58.5,84.1L58.7,82.8L58.6,80.8L58.2,78.8L57.6,77.1L57.3,76.6L56.7,75.2L55.2,72.8L52.0,68.8L50.9,67.7L50.6,67.1L49.1,65.5L47.6,63.4L46.8,62.5L46.6,62.1L45.0,59.7L44.4,58.5L43.6,57.2L43.5,56.8L43.2,56.3L42.7,55.1L41.9,52.0L41.6,50.2L41.4,50.2L40.8,55.4L40.8,56.8L40.4,60.6L40.3,64.3L39.9,66.4L39.9,67.6L39.5,72.1L39.5,73.7L39.0,78.8L39.0,80.4L38.6,82.9L38.5,85.9L37.6,88.3L36.2,89.8L35.4,90.3L34.3,90.7L32.3,90.9L31.2,90.6L29.6,90.0L28.5,89.3L27.5,88.3L26.8,87.2L26.3,86.3L26.2,84.9L26.3,83.6L26.8,82.6L27.5,81.6L29.0,80.6L30.3,80.3L32.2,80.3L33.1,80.5L34.4,80.9L35.6,81.7L36.2,82.2L36.5,82.3L36.7,82.1L36.9,78.6L37.1,77.1L37.3,72.9L37.6,70.5L37.8,67.1L38.1,64.4L38.2,62.0L38.4,61.4L38.8,55.6L39.0,55.0L39.1,51.2L39.4,49.1L39.6,46.2L39.8,45.5L39.8,44.1L39.9,43.5L40.1,40.0L40.5,36.9L40.5,35.6L40.8,34.3L41.0,30.4L41.2,29.7L41.6,29.3Z M84.0,28.6L84.6,28.7L84.8,28.9L85.0,29.5L85.0,31.4L85.4,32.8L85.4,34.1L85.5,35.4L85.7,35.8L85.9,39.0L86.4,42.1L86.4,43.3L86.6,43.8L86.8,46.8L87.1,47.9L87.2,49.6L88.2,59.2L88.4,59.6L88.6,62.6L89.0,64.7L89.1,66.9L89.4,67.7L89.5,70.5L89.8,71.6L89.9,74.2L90.3,75.7L90.5,79.0L90.9,80.5L90.9,81.7L91.0,82.0L91.5,82.0L92.1,81.4L94.0,80.4L94.9,80.2L95.1,80.0L98.0,80.0L99.1,80.4L100.1,80.9L101.2,82.1L101.7,83.3L101.8,85.6L101.6,86.4L100.8,87.9L99.3,89.3L97.2,90.3L95.5,90.5L94.3,90.5L92.4,89.9L91.6,89.5L90.4,88.3L89.5,86.5L89.1,84.8L88.9,82.0L88.6,80.9L88.6,79.2L88.4,78.7L88.1,75.2L87.8,73.9L87.7,71.3L86.8,65.3L86.8,64.3L86.4,62.1L86.2,58.6L86.0,58.0L85.9,56.6L85.8,56.1L85.4,52.6L85.3,52.1L85.3,51.2L85.0,49.6L84.7,49.9L84.4,52.5L83.9,54.2L83.6,54.6L83.5,55.6L82.1,58.6L81.8,58.8L80.9,60.7L79.9,62.0L79.6,62.6L79.1,63.1L77.2,65.9L76.4,66.6L74.6,69.0L73.7,70.0L71.7,72.8L70.0,75.7L69.1,78.1L68.5,80.8L68.5,82.5L68.7,83.6L69.2,85.1L70.0,86.2L70.9,87.0L71.9,87.3L72.3,87.8L72.3,88.2L71.4,88.3L70.2,87.8L69.2,87.1L67.8,85.5L66.8,83.6L66.7,83.0L66.3,82.3L66.0,81.2L65.7,79.6L65.5,78.9L65.1,75.5L65.1,72.8L65.6,69.2L66.1,67.4L66.2,66.7L66.6,65.8L66.9,64.8L67.7,63.3L68.2,62.1L70.4,58.7L72.1,56.5L73.4,55.1L73.7,54.4L74.4,53.8L79.0,48.0L80.4,46.1L80.9,45.0L81.3,44.7L81.4,44.2L82.3,42.9L82.8,41.3L83.1,41.0L83.6,38.7L83.7,34.9L83.4,29.9L83.6,29.0Z M63.7,9.1L57.6,9.4L55.9,9.6L54.3,10.1L51.8,10.4L51.0,10.7L49.6,11.0L48.1,11.5L45.6,12.2L45.3,12.4L42.8,13.2L41.6,13.9L41.1,14.0L39.9,14.6L39.7,14.8L39.3,14.9L37.1,16.1L36.5,16.4L34.0,18.0L33.5,18.2L29.8,20.9L27.5,22.9L25.4,25.0L21.6,29.1L18.4,33.5L15.9,37.6L14.1,41.2L14.1,41.7L13.6,42.5L12.2,46.2L12.0,47.1L11.9,47.3L11.0,50.3L10.7,51.9L10.5,52.1L10.5,52.6L10.3,53.3L10.2,54.3L9.9,55.7L9.5,59.4L9.3,64.7L9.4,67.5L9.6,70.0L9.9,71.0L10.0,72.5L10.6,75.1L10.8,76.4L12.3,81.9L13.5,84.8L13.9,85.5L14.1,86.2L15.9,89.8L18.0,93.1L18.2,93.7L20.0,96.4L23.3,100.5L28.0,105.2L32.9,109.1L33.5,109.4L35.8,111.1L40.2,113.4L40.8,113.6L42.2,114.4L42.7,114.5L44.3,115.2L45.3,115.6L45.7,115.8L47.0,116.1L49.4,117.0L50.3,117.2L51.1,117.5L55.2,118.4L60.5,119.1L65.9,119.2L69.2,119.0L71.3,118.7L72.1,118.7L73.7,118.4L75.1,118.0L76.0,117.9L80.5,116.8L83.2,115.7L83.6,115.7L85.0,115.0L86.8,114.4L88.6,113.4L89.7,113.0L91.6,111.9L92.2,111.6L92.4,111.4L93.7,110.7L95.8,109.2L97.3,108.2L100.3,105.7L104.6,101.6L107.3,98.5L110.3,94.3L111.6,92.1L111.7,91.8L112.5,90.7L113.9,87.7L114.1,87.2L114.9,85.5L115.5,83.7L115.7,83.4L116.0,82.4L116.3,81.8L116.9,79.5L117.0,79.2L117.4,77.6L117.5,77.3L117.8,75.8L118.0,75.1L118.3,72.8L118.6,71.5L118.9,67.1L118.9,63.1L118.6,58.4L117.6,52.7L117.4,52.1L117.1,50.7L116.9,50.2L115.8,46.2L114.6,43.3L114.4,42.6L111.6,36.8L111.0,36.1L110.8,35.6L109.4,33.4L106.7,29.7L105.0,27.8L104.5,27.1L102.6,25.0L98.5,21.4L96.8,20.0L94.2,18.2L88.5,15.0L88.1,14.9L86.3,13.9L86.1,13.9L84.4,13.1L83.1,12.6L82.5,12.5L80.8,11.8L80.5,11.8L76.7,10.6L75.1,10.4L73.4,9.9L71.9,9.8L70.5,9.5L68.3,9.2Z M61.2,12.8L66.2,12.8L67.2,12.9L68.3,12.9L68.9,13.1L70.1,13.1L75.3,14.1L75.5,14.2L77.2,14.6L77.9,14.9L78.7,15.0L80.0,15.5L80.8,15.7L81.8,16.2L82.3,16.3L82.8,16.6L83.6,16.8L83.8,17.0L84.5,17.2L84.9,17.5L86.2,18.0L90.5,20.4L94.5,23.2L98.1,26.2L101.4,29.5L104.4,33.1L107.1,37.1L108.3,39.3L108.5,39.4L108.9,40.3L109.1,41.0L110.0,42.6L110.1,43.0L110.8,44.4L111.0,45.1L111.2,45.4L111.9,47.7L112.2,48.3L112.3,49.0L113.0,51.0L114.0,55.3L114.1,56.6L114.4,58.1L114.5,59.9L114.8,62.4L114.8,67.0L114.7,68.9L114.5,69.5L114.4,71.2L114.1,72.6L114.0,73.7L112.6,79.6L112.3,80.1L111.3,83.2L111.0,83.6L110.8,84.3L109.8,86.5L106.9,91.8L104.5,95.2L101.4,99.0L98.9,101.5L95.8,104.0L94.9,104.8L93.9,105.4L93.1,106.2L89.9,108.3L87.5,109.5L87.2,109.8L85.7,110.4L85.1,110.8L83.8,111.2L82.7,111.8L81.1,112.3L80.7,112.5L76.0,113.9L75.6,113.9L75.0,114.2L73.3,114.5L72.2,114.6L71.4,114.8L67.4,115.2L63.5,115.3L59.8,115.2L55.2,114.5L54.1,114.2L52.1,113.9L50.2,113.2L48.9,113.0L48.0,112.5L46.4,112.1L43.0,110.7L39.9,109.1L39.0,108.5L37.9,108.0L33.3,104.8L29.4,101.5L26.3,98.3L23.1,94.4L21.3,91.8L20.4,90.2L20.0,89.7L19.9,89.4L19.1,88.3L18.6,86.9L17.7,85.3L17.7,85.0L16.8,83.2L16.2,81.4L15.9,80.9L15.2,78.7L15.0,78.2L14.8,77.2L14.6,76.8L13.7,73.3L13.6,71.6L13.2,70.2L12.9,66.5L13.0,59.1L13.2,58.6L13.2,57.1L13.5,56.1L13.6,55.0L14.4,51.1L15.2,48.3L15.7,47.1L15.7,46.7L16.1,45.9L16.2,45.3L18.6,39.9L18.9,39.7L19.1,39.2L19.5,38.7L20.0,37.5L21.3,35.5L23.6,32.2L26.8,28.6L30.7,24.8L33.5,22.5L36.5,20.5L37.1,20.2L37.4,19.9L41.9,17.5L43.2,17.1L43.6,16.8L46.6,15.6L49.3,14.7L49.7,14.7L52.2,14.0L54.7,13.5L55.3,13.5L56.6,13.2Z" fill="#000" fill-rule="evenodd"/>
</svg>