<svg xmlns="http://www.w3.org/2000/svg" viewBox="0 0 128 128" width="128" height="128">
  <path d="M38.3,10.1L37.4,10.5L36.8,10.6L35.9,11.0L35.0,11.3L33.1,12.2L32.9,12.5L32.1,12.7L28.1,15.9L26.2,17.8L24.5,20.1L23.0,22.8L21.9,25.5L21.1,28.3L20.5,33.0L20.5,46.5L20.3,49.8L20.4,52.7L20.2,58.5L20.3,64.4L20.7,64.8L30.2,64.8L30.7,64.7L30.9,64.5L31.4,34.0L31.6,31.4L32.0,29.4L32.3,29.0L32.8,27.6L33.6,26.3L33.9,25.6L36.1,23.1L37.5,22.1L40.3,20.7L40.6,20.7L42.1,20.1L44.8,19.8L46.9,20.0L49.4,20.6L50.4,21.1L50.6,21.1L51.7,21.6L54.6,23.8L56.5,26.3L57.6,28.4L58.4,31.2L58.6,33.0L58.6,39.0L58.1,70.1L57.7,70.6L26.4,70.4L20.7,70.5L20.4,71.0L20.2,73.3L20.2,80.7L20.6,81.0L21.0,81.0L31.5,81.2L33.1,81.1L35.8,81.3L47.6,81.3L53.4,81.5L57.8,81.4L58.2,81.5L58.2,82.7L58.1,86.6L58.1,93.4L57.8,105.9L57.9,108.5L57.7,113.0L57.8,115.6L57.6,117.2L57.7,118.8L58.1,119.0L68.0,119.1L68.3,118.9L68.4,118.6L68.7,99.8L68.7,98.3L68.8,95.4L68.8,87.5L69.0,84.5L68.9,82.1L69.2,81.5L71.0,81.4L74.5,81.5L89.4,81.7L91.5,81.6L106.7,81.9L107.3,81.6L107.3,81.2L107.5,71.5L107.4,71.2L107.0,71.0L92.7,70.9L86.0,70.7L70.4,70.7L69.4,70.6L69.0,70.3L68.9,66.7L69.1,64.1L69.3,49.4L69.4,47.0L69.5,35.1L69.9,31.5L70.9,28.4L71.8,26.7L72.9,25.2L74.9,23.3L76.6,22.1L77.1,21.9L77.7,21.5L79.6,20.8L81.7,20.4L85.2,20.3L86.7,20.6L88.0,21.0L90.7,22.2L92.7,23.7L93.8,24.8L95.0,26.5L96.4,29.1L97.0,31.9L96.8,61.2L96.7,65.0L97.2,65.3L106.3,65.5L107.3,65.4L107.5,64.9L107.7,61.1L107.6,59.8L107.8,58.4L107.7,57.0L107.9,47.8L107.9,42.9L108.0,34.8L107.9,29.6L107.5,28.7L107.4,27.7L107.0,26.9L106.9,26.2L106.4,24.8L106.1,24.2L105.9,23.6L104.9,21.5L103.2,19.1L101.0,16.7L99.4,15.3L97.2,13.7L95.7,12.9L95.5,12.6L92.6,11.4L91.5,11.1L89.4,10.3L87.4,10.0L86.5,10.0L85.6,9.7L81.5,9.7L78.0,10.3L77.5,10.6L76.2,10.8L74.8,11.3L74.3,11.6L73.4,11.8L72.8,12.2L72.5,12.2L71.6,12.6L68.0,15.0L65.2,17.7L64.6,18.0L64.3,18.0L63.5,17.5L61.4,15.2L58.8,13.3L58.2,13.1L57.2,12.3L55.8,11.7L54.7,11.1L52.0,10.2L51.6,10.2L51.0,9.9L47.9,9.3L45.8,9.2L41.8,9.4L41.2,9.6L40.0,9.7L38.9,10.1Z" fill="#000" fill-rule="evenodd"/>
</svg>