<svg xmlns="http://www.w3.org/2000/svg" viewBox="0 0 128 128" width="128" height="128">
  <path d="M49.4,12.1L48.4,13.1L46.5,15.9L43.5,21.3L43.0,22.8L42.1,24.4L41.3,26.4L41.3,26.7L40.2,28.8L37.3,37.0L36.6,39.6L36.2,40.5L36.1,41.2L35.2,43.7L35.0,45.1L34.6,45.9L34.6,46.3L34.1,47.7L33.7,49.5L33.7,50.1L33.1,52.1L32.6,54.9L32.4,55.3L32.4,55.8L32.2,56.6L32.2,57.2L31.4,61.1L31.1,63.6L30.8,64.9L30.8,65.7L30.4,69.0L30.4,70.1L30.1,71.8L30.0,77.9L30.5,78.5L31.0,78.7L37.1,78.9L41.0,78.8L42.1,78.5L42.2,78.1L42.6,70.5L42.7,69.5L42.7,68.0L42.9,67.0L43.1,64.1L43.5,60.4L43.9,58.9L43.9,58.3L44.1,57.5L44.3,55.8L44.9,52.8L45.0,51.8L46.6,45.6L46.9,43.6L47.6,41.4L47.8,40.4L48.1,39.8L48.6,37.9L49.2,36.5L49.3,36.3L49.3,36.0L49.8,35.5L50.2,35.5L50.7,36.3L51.2,37.8L51.7,38.5L51.7,38.8L52.7,41.3L53.5,44.0L53.7,44.2L55.5,50.7L55.5,51.8L55.9,52.7L56.0,53.6L56.4,55.3L56.5,56.3L57.2,59.4L57.3,60.7L57.6,62.1L58.2,67.1L58.4,68.4L58.4,69.5L58.9,74.6L58.9,79.8L58.5,80.3L58.1,80.5L42.2,80.5L41.2,80.3L34.1,80.4L32.4,80.2L26.8,80.4L20.2,80.3L10.2,80.5L9.8,80.6L9.4,81.1L9.6,82.6L10.1,83.9L10.1,84.3L10.4,85.1L10.8,86.0L11.6,88.3L12.6,90.5L12.8,91.3L14.4,94.2L14.9,95.3L16.3,97.6L16.6,98.5L17.0,98.9L17.6,100.0L18.2,100.9L19.1,102.4L22.1,105.8L23.6,107.4L24.0,107.5L25.6,109.0L30.2,112.3L33.2,114.0L36.4,115.2L37.5,115.3L38.2,115.6L40.8,116.0L44.0,116.2L48.8,115.9L49.6,115.6L50.5,115.5L52.0,115.0L52.6,114.6L54.0,114.2L55.9,113.3L59.2,111.1L61.8,108.7L63.8,105.9L64.4,105.5L65.1,105.6L67.6,108.5L70.7,111.4L71.3,111.6L71.9,112.1L74.5,113.6L77.5,114.8L80.2,115.6L83.5,116.0L87.0,116.0L90.1,115.7L93.9,114.7L97.5,113.3L99.6,112.1L102.3,110.1L104.6,108.2L107.7,104.8L111.0,100.3L113.1,96.6L113.3,96.0L113.6,95.8L114.2,94.3L115.1,92.6L115.1,92.3L115.7,90.9L116.1,90.4L118.3,83.9L118.8,81.8L118.9,80.8L118.5,80.3L118.2,80.2L97.0,80.2L91.6,80.4L85.9,80.3L84.8,80.5L71.7,80.5L70.7,80.3L70.0,79.5L70.0,73.4L70.2,72.1L70.2,69.3L71.1,59.2L71.5,57.9L71.7,55.8L72.4,53.2L72.4,52.2L74.5,44.6L76.0,40.3L76.9,38.2L77.7,35.9L78.1,35.5L78.6,35.6L78.8,35.9L80.8,40.9L80.8,41.5L82.0,44.9L82.3,46.5L82.7,47.4L82.9,49.0L83.4,50.6L83.7,52.2L84.3,54.5L84.6,57.0L84.9,57.8L85.2,59.8L85.5,61.2L85.6,62.7L85.9,64.6L86.6,71.0L86.7,77.3L86.9,78.2L87.2,78.5L87.7,78.7L91.5,78.8L97.9,78.7L98.3,78.6L98.8,78.2L98.8,74.0L98.6,72.0L98.4,71.5L98.2,67.3L97.5,63.9L97.5,62.2L97.0,60.6L97.0,59.9L96.0,54.7L95.9,53.4L95.4,51.6L94.8,48.6L94.3,47.1L94.2,46.3L93.7,45.1L93.0,42.4L89.4,32.2L88.6,30.3L88.3,29.8L88.2,29.4L87.9,28.8L87.8,28.4L87.3,27.7L86.6,26.1L86.4,25.8L86.3,25.4L85.3,23.5L85.1,23.2L84.8,22.5L84.5,22.2L83.5,20.1L79.4,13.4L78.4,12.3L77.5,12.2L76.3,13.6L75.0,16.0L74.4,16.8L72.6,20.4L70.7,24.5L70.5,25.3L69.6,27.3L69.5,27.8L68.8,29.4L68.5,30.4L67.8,32.2L67.3,33.8L66.7,35.3L65.9,38.7L65.6,39.1L64.9,41.8L64.9,42.5L64.5,43.8L64.2,44.0L63.5,43.1L63.4,42.3L63.1,41.3L62.5,38.5L61.9,36.8L61.7,35.9L59.7,30.4L58.5,27.9L58.0,26.4L57.0,24.7L56.6,23.5L56.2,22.9L55.0,20.4L52.4,15.5L52.1,14.8L51.7,14.5L51.5,13.8L50.3,12.2L49.9,12.1Z M102.1,91.7L102.0,92.2L101.2,93.8L99.4,96.5L97.1,98.9L95.2,100.5L92.8,102.0L91.6,102.5L89.0,103.2L87.0,103.5L84.3,103.5L82.3,103.3L78.7,102.2L75.6,100.5L73.3,98.3L71.7,96.3L70.8,94.5L70.5,93.7L70.1,93.3L69.5,93.0L58.9,93.1L58.3,93.6L57.7,95.4L56.3,97.9L54.3,100.0L53.0,101.1L51.5,102.0L49.1,103.0L45.9,103.7L42.8,103.7L40.4,103.4L40.1,103.2L38.8,103.0L36.3,102.0L33.5,100.4L31.4,98.5L29.3,96.3L27.3,93.4L26.9,92.3L27.0,92.0L27.6,91.5L30.2,91.4L63.4,91.5L84.1,91.2L101.2,91.2L101.8,91.4Z" fill="#000" fill-rule="evenodd"/>
</svg>