<svg xmlns="http://www.w3.org/2000/svg" viewBox="0 0 128 128" width="128" height="128">
  <path d="M66.0,72.3L65.8,81.7L65.9,82.4L66.4,82.7L71.5,82.9L84.0,82.9L86.6,83.0L95.4,83.0L97.8,83.2L104.3,83.2L104.7,82.9L104.9,80.8L104.9,73.5L104.8,72.8L104.3,72.3L76.2,71.9L71.8,72.0L67.5,71.8L66.4,71.9Z M66.2,58.4L66.1,68.4L66.6,68.8L104.3,69.3L104.6,69.2L104.8,68.9L104.8,59.0L104.7,58.7L104.3,58.6L98.0,58.3L89.1,58.3L86.7,58.2L85.4,58.2L78.4,58.1L74.0,58.2L69.0,58.0L66.7,58.1Z M66.2,44.6L66.2,54.7L66.4,55.0L66.9,55.2L77.6,55.3L81.1,55.2L82.3,55.4L84.1,55.3L89.4,55.5L96.2,55.5L98.9,55.6L104.3,55.6L104.7,55.5L104.8,55.1L104.8,45.4L104.6,44.9L104.3,44.7L100.7,44.5L82.1,44.4L77.3,44.2L66.7,44.2Z M52.7,44.1L52.2,44.5L52.1,45.1L52.1,62.7L51.7,82.1L52.1,82.5L52.6,82.6L58.6,82.6L61.6,82.8L62.4,82.7L62.8,82.4L63.0,81.1L62.9,75.1L63.1,72.1L63.0,66.9L63.1,60.7L63.2,45.0L63.1,44.4L62.4,44.1Z M38.8,44.0L38.3,44.3L38.1,45.0L37.9,60.3L38.0,62.7L37.9,66.2L37.9,69.1L37.6,80.7L37.7,82.0L38.0,82.4L38.7,82.6L48.3,82.6L48.6,82.3L48.9,80.8L48.9,75.1L49.0,71.5L49.0,61.4L49.2,57.1L49.1,53.8L49.2,49.4L49.4,48.3L49.3,44.8L49.2,44.5L48.7,44.1Z M24.6,43.9L24.3,44.2L24.3,49.1L24.1,56.9L24.1,63.9L23.9,68.7L23.9,75.6L23.7,77.6L23.7,81.7L23.8,82.1L24.2,82.3L34.3,82.4L34.7,82.1L34.8,81.4L34.8,75.1L35.0,72.4L35.0,65.3L35.2,60.0L35.1,57.5L35.2,54.3L35.3,44.5L35.2,44.1L34.7,44.0Z M59.6,9.2L57.9,9.5L57.5,9.6L56.6,9.6L52.7,10.3L52.1,10.5L51.4,10.6L49.7,11.1L49.0,11.4L48.1,11.6L43.4,13.3L38.8,15.5L38.6,15.8L36.4,16.9L35.7,17.5L34.4,18.2L29.9,21.5L26.0,25.1L25.1,26.1L24.2,26.8L21.5,30.0L21.2,30.6L19.9,32.1L18.4,34.5L17.9,35.2L15.5,39.4L13.6,43.5L13.1,45.2L12.7,46.0L12.5,46.8L12.2,47.6L12.2,47.9L11.8,48.9L11.7,49.6L11.3,50.7L11.0,52.0L10.9,52.2L10.3,55.2L9.6,60.1L9.6,66.9L9.8,70.4L10.0,72.3L10.4,73.7L10.4,74.2L11.4,79.0L13.2,84.4L14.9,88.1L16.0,90.4L18.4,94.5L19.6,95.9L19.8,96.3L20.2,96.7L21.0,98.1L25.1,102.7L28.6,106.0L32.5,109.1L32.9,109.2L34.4,110.4L38.0,112.5L39.2,113.0L39.7,113.4L40.3,113.6L41.9,114.4L46.4,116.2L47.2,116.3L49.2,117.1L50.2,117.2L52.1,117.8L52.5,117.8L53.1,118.0L55.9,118.5L57.6,118.7L58.0,118.9L61.2,119.1L68.5,119.0L74.7,118.1L76.1,117.7L77.3,117.5L80.4,116.6L85.2,114.9L90.0,112.6L94.4,109.9L96.5,108.2L97.5,107.7L98.2,106.9L99.0,106.4L101.5,104.2L103.9,101.7L104.9,100.4L107.5,97.5L107.8,96.8L109.2,95.0L110.5,93.0L110.8,92.3L111.8,91.0L112.7,89.0L115.3,83.2L116.8,78.2L117.2,76.2L117.4,75.9L118.3,71.0L118.4,68.9L118.6,67.4L118.7,62.6L118.4,58.7L117.8,53.9L116.6,48.6L116.2,48.0L116.0,46.7L115.3,45.0L114.7,43.2L114.4,42.8L114.3,42.3L113.6,40.9L113.5,40.5L113.0,39.7L112.9,39.2L112.6,38.8L111.1,35.9L110.8,35.6L109.9,33.9L109.0,32.8L108.9,32.5L108.3,31.8L108.1,31.3L107.6,30.8L106.8,29.5L106.2,29.0L105.2,27.7L102.8,25.1L99.4,22.0L95.9,19.2L95.3,18.9L94.4,18.2L90.4,15.8L86.6,13.9L86.1,13.8L85.7,13.5L85.0,13.3L84.5,13.0L82.6,12.3L82.0,12.0L81.4,11.9L78.8,11.0L77.0,10.7L75.7,10.3L70.3,9.4L66.8,9.1Z M61.9,17.5L68.0,17.5L71.8,18.0L76.7,19.1L80.4,20.3L80.5,20.5L82.6,21.2L83.3,21.6L83.5,21.6L86.5,23.3L87.1,23.5L89.7,25.2L90.0,25.3L94.5,28.7L98.3,32.5L101.4,36.2L102.6,38.0L104.6,41.4L104.8,41.7L105.6,43.5L106.2,44.5L108.5,50.7L109.4,54.3L109.4,55.1L109.9,57.2L110.3,60.7L110.3,66.3L110.2,67.8L110.0,68.4L110.0,69.7L109.6,71.5L109.4,73.6L109.1,74.2L108.8,75.9L108.7,76.2L108.0,78.8L105.8,84.3L104.9,86.1L104.6,86.4L104.1,87.6L103.5,88.3L102.1,90.6L100.7,92.4L100.5,92.8L99.5,93.9L99.2,94.5L95.4,98.5L92.9,100.6L89.0,103.4L87.9,104.0L86.5,105.0L84.0,106.2L83.6,106.3L83.4,106.5L82.8,106.7L82.3,107.0L81.4,107.3L79.1,108.2L76.4,109.0L76.2,109.1L74.7,109.6L73.4,109.7L72.3,110.0L71.2,110.1L70.0,110.5L68.0,110.5L67.4,110.7L63.1,110.8L61.1,110.7L59.9,110.5L58.2,110.4L54.7,109.8L53.9,109.5L53.0,109.4L51.9,109.0L51.2,108.9L50.5,108.6L49.8,108.5L49.3,108.2L48.3,107.9L47.7,107.6L47.2,107.5L45.4,106.7L45.0,106.6L44.2,106.1L43.0,105.6L41.3,104.6L40.6,104.3L39.7,103.6L38.3,102.9L33.5,99.0L30.5,96.2L27.3,92.4L25.4,89.7L24.2,87.7L23.8,87.2L23.1,85.7L22.9,85.4L22.7,84.8L21.5,82.6L21.1,81.1L20.8,80.8L19.4,76.4L18.8,73.8L18.5,71.9L18.3,71.0L18.3,70.1L17.9,66.6L17.9,62.2L18.3,57.7L18.9,54.5L19.8,50.7L21.3,46.8L21.3,46.6L23.3,42.3L26.4,37.2L29.5,33.3L32.1,30.7L36.3,27.0L39.1,25.1L43.7,22.4L44.0,22.4L44.5,22.0L47.4,20.7L51.9,19.2L56.0,18.2L59.9,17.6L61.0,17.6Z" fill="#000" fill-rule="evenodd"/>
</svg>