<svg xmlns="http://www.w3.org/2000/svg" viewBox="0 0 128 128" width="128" height="128">
  <path d="M89.7,46.0L89.3,46.2L89.0,46.8L88.9,51.2L89.0,74.2L88.8,87.9L88.9,115.0L89.1,118.3L89.4,118.6L91.0,118.7L107.0,118.8L117.6,118.6L118.1,118.2L118.1,90.4L118.3,75.5L118.2,55.2L118.3,50.7L118.6,49.9L118.4,49.1L118.2,46.4L117.7,46.0L111.6,45.9Z M10.2,12.9L9.9,13.1L9.8,13.4L9.7,81.1L10.0,98.7L9.9,104.7L10.1,107.6L10.3,117.8L10.7,118.2L16.4,118.4L29.7,118.5L31.0,118.7L33.2,118.6L39.9,118.8L45.9,118.7L46.1,118.6L46.1,118.0L45.8,117.5L45.1,115.0L44.9,114.8L44.1,112.1L43.7,111.5L40.9,102.8L40.5,102.0L39.8,99.4L39.2,98.2L38.3,95.3L36.6,90.5L36.0,88.4L34.4,84.1L33.2,80.3L31.9,76.8L31.8,76.1L31.5,75.6L31.2,74.5L30.2,72.0L29.6,69.6L29.4,69.4L29.0,68.0L28.2,66.2L28.0,65.2L27.2,63.4L27.0,62.1L26.1,59.9L26.0,59.2L25.6,58.5L24.3,54.3L23.8,53.0L23.7,52.3L23.4,51.8L22.3,48.4L21.6,46.6L21.3,45.4L21.1,45.2L20.7,43.8L20.5,43.6L20.4,42.9L19.9,41.9L19.8,41.2L17.9,35.7L17.9,35.3L16.4,31.4L16.4,30.7L15.8,29.3L15.8,28.9L15.3,27.8L14.8,26.0L14.3,25.0L14.3,24.6L13.7,22.9L13.5,21.9L13.2,21.5L12.4,19.0L11.6,17.1L10.9,14.2Z M83.0,12.1L82.6,12.3L82.4,13.0L82.1,14.1L81.3,16.1L81.1,17.0L79.5,21.5L79.4,22.1L78.9,23.1L77.9,26.4L77.4,27.2L77.2,28.4L76.6,30.0L74.7,35.8L74.4,36.6L74.0,38.2L73.2,40.2L70.8,47.4L70.8,47.8L70.5,48.2L69.4,51.8L68.8,53.4L68.7,54.1L68.4,54.6L68.2,55.5L67.2,58.0L66.5,60.7L65.1,64.2L63.3,70.1L62.9,70.8L62.8,71.5L61.4,75.1L61.1,76.7L60.8,77.2L54.7,95.7L54.2,96.7L53.6,98.8L53.3,99.6L51.8,103.9L51.6,104.9L50.3,108.8L50.1,109.8L48.5,114.1L48.2,115.3L48.0,115.7L47.4,117.6L46.8,118.4L47.0,118.8L56.7,118.9L68.5,118.6L82.9,118.7L83.4,118.3L83.4,21.7L83.3,13.0L83.2,12.3Z M89.3,9.6L88.9,10.1L88.9,38.6L89.2,40.1L89.8,40.4L117.5,40.3L118.1,40.2L118.4,39.6L118.4,20.0L118.6,19.4L118.6,18.4L118.4,17.6L118.5,11.3L118.2,10.0L117.8,9.7L113.4,9.5Z M15.7,9.6L15.3,9.9L15.2,10.6L15.9,12.8L16.3,13.6L16.4,14.6L17.2,16.9L17.8,18.3L17.9,19.0L18.3,19.8L18.5,20.8L18.9,21.6L19.9,24.7L20.0,25.4L21.0,28.0L21.7,30.5L22.0,31.3L22.8,34.0L23.1,34.5L23.9,37.3L26.3,43.9L29.7,54.4L30.1,55.2L30.3,56.1L30.7,56.9L33.0,64.0L33.4,64.7L34.1,67.1L34.4,67.5L34.7,68.7L35.4,70.6L35.8,72.1L36.0,72.3L36.2,73.2L36.5,73.7L36.7,74.6L38.0,78.2L39.8,83.6L40.7,86.0L41.4,88.5L41.9,89.5L41.9,89.9L44.6,97.4L45.4,100.1L46.3,102.3L46.7,102.4L47.0,102.1L52.0,87.3L52.3,85.9L53.3,83.5L54.7,79.2L54.9,78.1L55.3,77.3L56.5,73.3L56.9,72.5L57.7,69.6L58.5,67.8L59.2,65.0L59.7,64.0L60.3,61.8L60.8,60.7L61.0,59.7L60.9,58.5L59.8,55.6L59.6,54.6L59.3,54.1L57.1,47.4L56.8,46.9L54.9,40.8L54.2,39.3L53.7,37.6L53.4,37.3L53.1,35.8L52.9,35.6L51.5,31.2L51.2,30.7L50.9,29.5L50.2,27.5L49.4,24.9L48.7,23.4L48.3,21.7L47.6,19.9L46.8,17.3L46.4,16.6L46.2,15.5L45.8,14.7L45.7,14.0L45.5,13.6L45.2,12.4L44.8,11.7L44.7,11.1L44.2,9.9L43.8,9.6L43.3,9.5L38.2,9.4Z" fill="#000" fill-rule="evenodd"/>
</svg>