<svg xmlns="http://www.w3.org/2000/svg" viewBox="0 0 128 128" width="128" height="128">
  <path d="M22.7,13.9L18.9,17.2L18.8,17.8L17.9,18.8L17.7,19.5L16.9,20.5L16.2,21.9L15.9,22.1L14.4,26.4L13.8,29.3L13.4,31.8L13.2,35.7L13.2,42.2L13.0,43.5L12.9,46.3L13.0,53.5L12.7,69.2L12.8,71.1L12.6,77.5L12.6,86.3L12.4,88.4L12.2,99.5L12.3,107.5L12.1,111.7L11.9,113.1L11.9,118.0L12.3,118.4L12.9,118.6L51.7,118.6L62.1,118.8L67.8,118.7L69.5,118.9L87.0,118.8L94.8,119.0L98.2,118.3L99.3,117.9L100.3,117.7L103.1,116.3L106.6,113.8L108.6,111.9L110.3,110.0L111.2,108.8L112.7,106.4L114.3,102.5L115.1,99.2L115.1,98.0L115.3,96.0L115.3,89.5L115.5,86.7L115.7,76.6L115.6,63.4L115.9,46.9L115.8,43.6L116.1,36.8L116.1,27.5L116.2,26.0L116.1,23.1L116.4,11.3L116.2,10.9L116.0,10.6L115.4,10.4L109.6,10.5L108.4,10.3L106.1,10.3L105.1,10.1L93.7,10.0L78.5,10.0L75.3,9.9L74.4,9.7L63.1,9.7L55.4,9.4L46.3,9.4L45.4,9.2L35.3,9.3L34.6,9.5L32.2,9.7L28.7,10.6L25.3,12.1Z M112.1,10.7L114.8,11.0L115.4,11.6L115.6,12.1L115.7,14.7L115.5,25.5L115.6,28.0L115.4,29.9L115.3,36.0L115.4,39.6L115.2,44.2L115.2,53.0L115.1,56.4L115.1,62.0L115.0,64.5L115.0,76.1L114.7,83.3L114.8,86.0L114.6,88.4L114.6,94.5L114.4,95.9L113.7,97.8L112.4,99.6L111.4,100.5L110.8,100.9L109.8,101.2L109.0,101.2L108.2,101.1L107.4,100.6L106.3,99.3L106.2,98.3L106.1,98.0L105.9,95.8L106.0,86.8L106.1,85.4L106.1,78.4L106.1,69.4L106.3,65.9L106.4,43.8L106.6,38.9L106.7,22.4L107.0,14.6L106.9,12.6L107.2,11.5L107.8,11.0L109.3,10.7Z M21.8,15.6L23.4,14.3L24.3,13.9L24.8,13.3L28.0,11.6L28.6,11.5L29.3,11.1L30.5,11.0L31.8,10.4L33.7,10.0L35.3,10.0L45.0,10.0L59.6,10.4L65.3,10.4L67.5,10.6L73.7,10.7L75.5,10.9L82.6,11.0L83.7,11.1L85.2,11.7L86.3,12.3L87.1,13.0L88.2,14.3L88.9,15.6L89.4,17.7L89.4,27.6L89.3,35.0L89.3,40.1L89.2,43.1L89.3,47.1L88.5,92.1L88.3,96.6L88.6,98.7L89.6,101.9L90.2,103.0L91.4,104.3L92.9,105.5L94.4,106.3L97.4,107.1L101.4,107.2L104.0,106.8L106.1,106.1L107.9,105.1L109.1,104.1L112.8,100.4L113.5,100.4L113.6,101.8L113.3,102.9L112.8,104.0L112.6,104.7L111.4,107.0L109.2,110.0L106.1,113.2L105.0,114.1L102.5,115.7L99.7,117.0L98.6,117.2L97.8,117.7L95.1,118.1L73.8,118.3L61.3,118.2L59.6,118.0L56.4,118.1L38.0,117.9L14.8,117.9L13.3,117.7L12.7,117.0L12.5,116.6L12.5,113.1L12.7,110.0L12.9,96.2L13.1,89.8L13.1,79.5L13.3,77.4L13.2,75.4L13.4,69.5L13.4,62.1L13.6,60.0L13.6,54.2L13.8,53.1L13.8,51.4L14.0,49.9L14.9,48.2L15.9,47.3L16.6,47.0L17.9,47.1L18.8,47.8L19.2,48.8L19.5,50.2L19.5,56.2L19.2,66.2L19.2,83.3L18.9,99.6L18.9,104.7L19.3,105.4L20.5,105.8L30.2,106.0L35.6,105.8L36.1,105.6L36.5,105.2L36.8,102.5L37.2,71.3L37.4,69.2L37.3,68.0L37.6,60.4L37.6,50.1L38.0,48.7L38.6,47.9L39.5,47.1L40.4,46.8L41.6,47.0L42.6,47.9L42.9,48.8L43.1,49.8L42.9,68.4L42.7,70.1L42.8,75.9L42.6,82.6L42.6,92.1L42.4,98.2L42.4,104.4L42.7,105.4L43.1,105.8L44.3,106.0L58.1,106.1L59.1,106.0L59.5,105.8L59.8,105.3L60.0,104.6L59.9,103.6L60.1,99.2L60.1,94.2L60.4,86.8L60.3,83.5L60.5,73.2L60.5,64.4L60.7,61.9L60.7,54.3L60.9,52.3L60.8,50.6L61.1,49.3L61.5,48.6L62.3,47.7L63.4,47.2L64.5,47.3L65.4,47.9L65.8,48.6L66.1,49.4L66.2,50.6L66.0,59.2L66.1,60.5L65.9,63.4L66.0,67.6L65.8,72.7L65.8,78.9L65.6,82.9L65.6,92.1L65.5,96.3L65.5,105.1L66.1,105.9L66.5,106.1L71.0,106.2L81.6,106.1L82.3,105.9L82.7,105.4L82.8,105.1L82.8,103.7L83.0,102.9L82.9,100.7L83.1,97.9L83.1,92.1L83.3,88.8L83.7,48.8L83.3,46.6L82.0,44.2L81.4,43.5L79.7,41.9L77.7,40.9L75.4,40.5L72.0,40.5L70.0,40.9L67.1,42.1L64.9,43.6L61.3,47.0L60.8,47.0L60.2,46.4L59.9,45.7L59.5,45.3L59.3,44.6L58.3,43.1L56.4,41.3L55.0,40.6L53.0,40.0L49.6,39.9L47.1,40.5L44.4,41.6L41.8,43.1L39.9,44.7L38.9,45.7L38.1,46.3L37.6,46.3L37.1,45.9L36.5,44.7L35.2,42.8L34.3,41.8L33.6,41.3L32.6,40.7L31.4,40.4L28.7,39.9L26.8,39.9L23.8,40.5L21.0,41.6L17.9,43.6L15.0,46.1L14.5,46.1L14.1,45.8L13.9,45.1L13.9,39.9L14.0,36.1L14.0,32.0L14.3,30.2L14.3,29.2L14.6,28.4L14.6,27.9L15.4,25.3L15.4,24.9L15.8,24.4L15.9,23.8L16.3,22.9L16.8,22.3L16.9,21.6L17.3,21.2L17.7,20.4L19.0,18.4L20.3,17.1L20.4,16.9Z" fill="#000" fill-rule="evenodd"/>
</svg>