<svg xmlns="http://www.w3.org/2000/svg" viewBox="0 0 128 128" width="128" height="128">
  <path d="M117.3,24.4L116.8,24.1L96.4,24.3L95.3,24.7L95.0,25.0L92.8,26.1L91.2,26.7L87.4,28.8L86.6,29.1L82.8,31.0L80.5,32.0L78.6,33.0L77.4,33.5L76.7,33.9L75.3,34.5L74.5,35.0L73.6,35.2L69.3,35.2L68.5,35.4L60.3,35.3L57.3,35.5L52.6,35.5L51.4,35.0L50.4,34.5L49.3,34.1L48.4,33.6L47.8,33.5L47.4,33.2L45.3,32.4L43.7,31.6L43.2,31.5L41.7,30.7L41.3,30.6L40.7,30.2L39.3,29.7L34.7,27.5L34.4,27.5L32.8,26.6L30.2,25.5L17.1,25.5L9.7,25.6L9.4,25.9L9.3,26.5L9.6,33.2L9.6,36.8L9.8,38.3L10.0,55.3L10.2,56.5L10.4,66.3L10.6,67.6L11.0,85.8L11.1,87.3L11.1,90.7L11.4,94.8L11.3,98.1L11.5,99.0L11.5,105.7L11.8,112.8L12.2,113.2L31.7,113.2L32.2,113.0L32.3,112.8L32.4,107.9L32.2,105.5L32.2,97.6L32.0,96.3L32.0,93.2L31.8,91.3L31.9,88.7L31.7,87.2L31.7,82.2L31.4,76.5L31.5,74.9L31.4,72.8L31.2,71.9L31.2,68.4L31.0,66.9L31.2,64.7L31.0,62.3L31.1,59.6L30.8,51.4L30.9,47.0L31.2,46.8L31.7,46.6L52.4,46.4L52.8,46.6L53.2,47.0L53.3,50.5L53.4,52.1L53.4,56.7L53.6,58.8L53.8,70.7L54.0,72.3L54.0,75.9L54.3,81.4L54.6,102.3L54.8,103.1L54.8,107.8L55.0,109.7L55.0,112.4L55.2,112.8L56.0,113.1L70.8,113.3L75.3,113.2L75.6,112.6L75.6,107.1L75.4,106.3L75.5,102.9L75.3,99.8L75.3,95.4L75.1,93.8L75.1,87.4L74.9,84.1L74.9,79.8L74.7,77.5L74.8,75.8L74.6,71.7L74.6,66.3L74.4,62.6L74.5,61.6L74.2,53.2L74.2,46.7L74.5,46.3L75.2,46.1L95.1,45.9L96.0,46.0L96.5,46.5L96.6,49.2L96.8,51.6L96.8,57.4L97.3,66.5L97.4,74.7L97.6,76.2L97.6,83.2L97.8,85.2L97.8,88.8L98.1,98.7L98.0,103.6L98.3,108.8L98.2,112.0L98.4,112.7L98.8,113.2L102.4,113.3L118.5,113.1L118.9,112.7L118.9,108.1L118.7,101.3L118.4,100.4L118.6,99.5L118.4,81.8L118.2,79.8L118.2,67.5L118.0,66.6L118.1,64.0L118.0,60.6L118.0,54.4L117.7,46.8L117.6,38.7L117.4,35.7L117.5,31.2L117.3,29.0Z M21.3,95.9L21.5,96.2L21.2,96.1Z M53.8,17.6L53.2,18.8L52.7,20.9L52.9,25.8L52.9,32.7L53.4,33.4L62.7,33.6L68.5,33.5L69.1,33.7L69.8,33.7L70.6,33.4L73.2,33.4L73.6,33.1L73.7,28.3L73.5,21.5L73.6,20.3L73.9,19.9L74.4,19.7L75.9,19.7L76.6,20.0L76.9,20.3L77.5,20.2L77.6,19.6L77.2,18.0L76.6,17.3L76.2,17.1L74.7,17.1L73.6,16.9L72.9,16.2L72.6,15.6L71.7,15.1L68.5,15.1L68.0,15.4L67.2,15.4L66.2,15.1L61.8,15.1L56.7,15.4L55.2,16.2Z M70.6,17.3L71.4,17.9L71.6,18.5L71.6,18.8L71.5,19.3L71.1,19.6L70.6,19.8L69.9,19.8L69.2,19.3L69.2,18.1L69.6,17.6Z" fill="#000" fill-rule="evenodd"/>
</svg>