<svg xmlns="http://www.w3.org/2000/svg" viewBox="0 0 128 128" width="128" height="128">
  <path d="M118.0,70.1L117.5,69.9L116.2,69.8L112.7,69.9L111.0,70.0L101.3,70.0L97.9,70.2L97.0,69.9L96.5,69.4L94.1,64.2L93.5,63.1L93.2,62.1L92.5,60.9L91.6,58.7L90.4,56.4L89.8,54.7L88.8,52.4L87.9,50.9L87.8,50.3L86.7,48.0L86.3,46.9L85.8,46.2L85.1,44.4L83.3,41.3L81.2,39.4L79.4,38.3L78.9,38.2L78.4,37.9L76.1,37.4L73.8,37.3L71.5,38.0L70.3,38.7L68.7,40.3L68.3,40.9L67.6,42.9L67.4,44.6L67.4,49.6L67.6,54.1L67.6,58.4L67.7,60.2L67.9,69.7L67.7,70.0L67.4,70.2L66.2,70.3L65.8,69.9L65.6,69.0L65.6,59.8L65.4,57.8L65.4,55.6L65.2,54.4L65.3,52.6L65.2,46.4L65.0,44.9L64.6,42.9L63.4,41.0L62.1,39.7L61.2,39.1L60.4,38.7L59.2,38.3L57.7,38.0L56.1,38.0L54.1,38.4L51.8,39.3L51.0,39.8L49.8,41.0L49.2,41.8L48.2,43.6L47.8,44.9L47.5,45.2L47.1,46.5L45.7,49.4L45.7,49.9L45.2,50.6L44.1,53.5L43.5,54.7L43.2,55.8L42.6,57.0L42.6,57.2L42.3,57.8L41.5,60.0L41.3,60.3L40.1,63.3L39.8,63.7L39.4,64.9L38.1,67.8L38.0,68.2L37.3,69.9L36.7,70.5L36.0,70.8L35.4,70.7L29.7,70.9L25.7,70.9L22.3,71.1L17.8,71.0L15.5,71.1L15.2,71.5L15.2,72.0L15.7,72.2L21.0,72.1L35.8,72.1L36.0,72.3L36.0,73.0L34.7,75.6L34.7,75.8L34.1,77.3L33.2,78.6L32.4,79.3L31.4,79.8L30.5,80.2L26.3,80.3L21.9,80.3L21.7,80.2L20.5,79.0L19.6,78.6L19.0,78.4L18.0,78.4L17.1,78.6L14.9,79.7L14.0,80.4L13.3,80.7L12.0,81.7L10.8,82.3L10.2,82.9L9.3,83.9L9.1,84.6L9.1,85.6L9.6,86.6L10.8,87.6L11.1,87.6L12.4,88.5L14.9,89.8L16.5,90.5L18.3,91.0L19.6,91.0L20.4,90.7L21.1,90.1L22.1,89.0L22.4,88.9L32.0,88.8L33.8,88.6L35.6,88.2L37.3,87.3L38.8,85.7L39.7,84.5L41.9,80.1L42.1,79.3L43.2,77.0L43.8,75.3L44.2,74.5L44.8,72.7L45.3,72.1L46.0,71.8L56.1,71.8L56.8,72.0L57.1,72.4L57.3,75.6L57.4,81.4L57.7,83.5L58.7,86.1L60.5,88.1L61.9,89.1L62.6,89.3L63.1,89.6L64.6,90.1L66.2,90.3L68.0,90.3L69.2,90.1L71.1,89.6L73.2,88.5L74.7,87.2L75.5,86.2L76.1,84.9L76.6,83.5L76.7,82.0L76.7,72.1L77.0,71.8L77.4,71.6L78.6,71.5L87.7,71.5L87.9,71.6L88.5,72.2L89.3,74.1L89.8,74.9L90.0,75.6L91.0,77.6L91.5,78.9L93.5,82.9L94.8,84.7L96.0,85.9L97.0,86.7L99.6,87.8L102.2,88.2L114.9,87.9L116.4,87.5L117.7,86.7L118.5,85.9L118.8,85.2L119.1,83.8L119.0,82.5L118.6,81.3L117.9,80.4L116.8,79.6L115.9,79.4L108.2,79.4L104.1,79.5L103.1,79.4L102.3,79.1L101.1,78.3L100.6,77.8L100.0,76.9L99.0,75.1L98.5,73.9L98.0,72.9L97.7,71.8L98.2,71.4L102.8,71.3L103.5,71.1L107.2,71.2L110.6,71.1L116.8,71.1L117.7,70.9L118.1,70.6Z M66.3,71.8L67.4,71.9L68.0,72.4L68.1,76.3L68.1,80.4L67.9,80.9L67.2,81.3L66.6,81.2L66.1,80.8L65.9,79.8L65.9,79.2L65.8,76.3L65.8,72.6L65.9,72.1Z M76.7,48.0L77.3,48.0L77.8,48.5L79.2,51.7L79.7,52.5L81.1,55.9L82.4,58.4L82.9,60.0L83.4,60.8L84.2,62.8L86.9,68.5L87.3,69.6L87.3,69.9L87.0,70.2L78.1,70.3L77.2,70.2L76.7,69.9L76.3,48.7L76.4,48.2Z M56.0,47.8L56.3,48.2L56.5,48.8L56.9,66.1L57.1,67.5L57.0,70.0L56.5,70.5L55.9,70.5L46.3,70.5L46.0,70.3L46.0,69.9L46.6,68.2L47.3,66.8L47.5,65.9L47.8,65.6L48.8,63.4L48.8,63.1L49.1,62.7L49.4,61.5L50.1,60.0L51.0,57.5L52.1,55.0L52.6,53.5L53.0,52.8L53.4,51.4L54.0,50.5L54.7,48.7L55.0,48.2L55.4,47.8Z" fill="#000" fill-rule="evenodd"/>
</svg>