<svg xmlns="http://www.w3.org/2000/svg" viewBox="0 0 128 128" width="128" height="128">
  <path d="M17.5,103.2L16.7,103.5L16.2,104.1L16.1,104.9L16.4,105.9L16.1,106.5L16.1,107.6L16.2,108.0L16.7,108.5L18.2,108.6L19.0,108.0L19.0,106.5L18.8,106.1L18.8,105.3L19.0,105.1L19.0,104.0L18.5,103.4Z M17.1,106.1L17.9,106.1L18.5,106.7L18.5,107.5L18.2,107.9L17.8,108.1L17.3,108.1L17.0,107.9L16.7,107.5L16.7,106.7Z M17.1,103.9L17.9,103.8L18.3,104.0L18.5,104.9L18.2,105.3L17.8,105.5L17.3,105.5L16.8,105.1L16.7,104.4Z M13.6,103.2L12.9,103.4L12.4,104.0L12.4,104.9L12.5,105.3L12.5,106.0L12.4,106.2L12.3,107.6L12.4,108.1L13.0,108.5L14.4,108.6L14.6,108.5L15.2,107.8L15.3,106.6L15.0,106.1L15.0,105.4L15.2,105.1L15.2,104.0L14.8,103.5L14.1,103.2Z M13.6,106.1L14.2,106.1L14.5,106.5L14.7,106.9L14.7,107.3L14.5,107.7L14.0,108.1L13.3,108.0L12.8,107.3L12.9,106.5Z M13.2,103.9L14.2,103.8L14.6,104.1L14.6,104.9L14.4,105.3L13.7,105.5L13.4,105.4L12.9,104.9L12.8,104.4Z M9.5,103.2L8.8,103.5L8.6,103.8L8.6,105.8L9.3,106.5L10.7,106.6L10.8,107.4L10.4,107.9L9.6,107.9L8.7,107.2L8.6,107.3L8.6,107.8L9.0,108.3L9.7,108.6L10.2,108.6L10.9,108.3L11.4,107.7L11.5,106.5L11.5,104.9L11.4,103.9L11.1,103.5L10.5,103.2Z M9.9,103.6L10.5,103.8L10.9,104.4L10.8,105.4L10.5,105.8L10.3,105.9L9.5,105.8L9.1,105.4L9.0,105.0L9.2,104.1L9.5,103.8Z M57.1,55.1L56.8,56.3L56.9,59.1L57.5,60.9L58.4,62.5L60.2,64.4L61.3,65.2L61.8,65.4L62.2,65.8L63.3,66.3L65.5,67.6L66.3,67.9L68.6,69.4L70.0,70.5L70.4,70.4L70.8,69.9L71.2,68.8L71.3,67.1L71.1,66.1L70.7,64.6L70.0,63.2L69.0,62.1L67.0,60.3L65.5,59.4L65.1,59.1L63.0,57.9L62.1,57.6L61.9,57.3L59.6,56.0L57.8,54.7L57.6,54.7Z M58.1,57.2L58.4,56.9L58.7,56.9L61.9,58.9L62.8,59.3L63.3,59.7L64.7,60.5L65.2,60.9L65.9,61.1L67.5,62.5L69.0,64.2L69.5,65.0L69.9,66.5L69.9,68.1L69.7,68.3L69.4,68.3L67.1,66.8L64.6,65.6L63.8,65.0L62.6,64.4L61.7,63.6L60.9,63.1L59.3,61.6L58.8,60.9L58.8,60.5L58.4,60.1L58.0,58.5Z M76.5,40.7L76.5,41.1L77.1,41.4L78.0,42.1L79.2,43.5L79.7,44.5L80.0,45.6L80.1,48.0L80.0,49.3L80.0,50.0L79.9,51.5L79.6,58.7L79.4,61.2L79.2,67.1L79.0,69.5L79.0,71.8L78.8,72.9L78.7,76.1L78.5,76.4L78.5,76.9L78.1,78.4L77.4,79.6L76.6,80.4L76.2,80.6L76.2,80.8L83.5,80.9L85.8,80.8L85.8,80.6L84.9,79.8L84.2,78.7L83.7,76.5L84.1,63.6L84.1,60.0L84.3,58.0L84.3,54.7L84.5,51.8L84.9,51.7L85.5,53.0L85.8,54.2L86.2,54.7L86.2,55.0L87.0,57.0L87.2,57.6L87.8,58.8L89.2,62.8L89.8,63.9L90.3,65.7L91.3,67.9L91.4,68.4L91.8,69.2L92.0,70.1L92.6,71.3L93.2,73.0L93.3,73.2L94.3,75.9L94.9,77.3L95.1,78.0L95.7,79.3L96.2,80.8L96.6,81.2L96.7,81.2L97.1,80.7L97.4,79.7L97.7,79.1L97.8,78.4L98.1,78.1L98.3,77.1L98.7,76.4L99.1,75.1L99.8,73.7L100.3,72.1L100.7,71.5L101.2,69.8L102.4,67.0L103.0,65.1L104.1,62.3L104.3,62.1L104.8,60.5L106.1,57.3L106.3,56.6L106.8,55.7L106.8,55.4L107.1,54.8L108.2,52.1L108.3,52.0L108.5,52.4L108.8,55.5L108.8,57.4L109.2,62.2L109.5,67.9L109.4,68.8L109.6,69.3L109.6,71.3L109.9,75.8L109.8,77.8L109.3,79.1L108.2,80.3L107.7,80.5L107.6,80.8L107.8,80.9L119.0,80.8L119.0,80.5L118.3,80.3L117.9,80.0L117.0,78.8L116.5,77.8L116.1,76.1L116.0,74.2L116.0,71.7L115.7,70.3L115.6,66.3L115.2,61.7L115.2,58.1L114.6,51.3L114.6,48.9L114.4,48.0L114.4,46.1L114.8,43.8L115.6,42.6L116.7,41.5L117.4,41.2L117.5,40.9L107.8,40.8L107.3,41.2L106.5,43.3L105.7,45.3L105.7,45.5L103.3,51.7L102.8,53.4L102.4,54.3L102.0,55.4L101.5,56.5L101.3,57.2L99.8,61.1L99.5,62.1L99.0,63.2L98.5,64.8L98.2,65.1L97.8,66.3L97.4,66.7L97.2,66.7L97.0,66.4L96.9,65.9L96.6,65.4L96.2,64.3L95.8,63.7L95.5,62.5L95.2,61.9L94.9,61.0L94.7,60.7L94.6,60.2L94.3,59.6L94.1,58.9L93.9,58.5L93.2,56.3L92.8,55.8L92.5,54.7L92.3,54.4L91.4,51.8L89.8,47.8L89.6,47.1L89.3,46.6L88.3,43.5L87.2,41.0L86.7,40.7L84.5,40.6Z M80.1,41.9L85.7,41.8L86.1,42.0L86.4,42.3L87.3,44.5L87.4,45.0L87.8,45.7L88.3,47.3L88.7,48.2L89.0,49.2L89.3,49.7L89.5,50.6L90.1,51.8L90.7,53.7L92.7,58.4L92.9,59.4L93.2,59.9L93.3,60.4L94.1,61.9L94.2,62.6L95.3,65.3L96.1,67.5L96.2,67.6L96.9,69.5L97.3,70.0L97.6,70.0L97.8,69.6L98.6,67.1L99.0,66.6L99.7,64.4L101.3,60.5L101.5,59.5L102.5,57.3L102.8,56.3L103.1,55.8L103.2,55.3L104.5,52.0L105.4,49.3L106.3,47.3L106.8,45.7L107.4,44.4L108.0,42.6L108.6,42.0L112.0,41.9L113.9,42.0L114.2,42.2L114.1,42.6L114.0,42.8L113.4,44.5L113.3,48.6L113.6,51.6L113.6,53.1L113.7,53.8L114.0,60.1L114.1,60.9L114.1,62.3L114.3,63.6L114.3,65.5L114.6,69.4L114.7,72.9L115.1,77.1L115.3,78.4L115.6,79.1L115.6,79.5L115.4,79.7L113.0,79.8L110.7,79.7L110.6,79.6L110.6,79.1L110.8,78.7L111.0,77.9L111.1,74.3L111.0,72.5L110.8,71.7L110.7,67.9L110.6,67.2L110.3,61.5L110.2,60.5L110.2,58.3L109.8,54.7L109.8,52.6L109.7,52.0L109.4,47.1L109.3,46.5L109.0,46.4L108.9,46.6L108.1,49.1L107.4,50.5L107.3,51.0L106.9,51.8L105.8,55.0L104.7,57.5L104.3,58.8L103.8,59.8L103.5,60.9L103.2,61.4L103.2,61.7L102.8,62.5L101.2,66.7L100.9,67.2L100.3,68.9L99.9,69.6L99.9,70.2L99.5,70.9L98.3,74.2L97.2,76.7L97.1,77.2L96.8,77.5L96.5,77.5L96.2,77.3L95.6,75.8L95.3,74.9L94.3,72.5L93.6,70.3L93.4,70.1L92.7,68.0L92.3,67.3L90.9,63.5L90.7,63.2L90.5,62.5L90.3,62.1L90.1,61.3L89.8,60.9L89.3,59.3L88.9,58.6L88.3,56.9L87.4,55.0L87.4,54.5L87.0,54.0L86.7,52.9L86.4,52.3L86.2,51.6L86.0,51.3L85.8,50.5L85.5,50.1L85.1,48.7L84.5,47.4L84.1,46.3L83.7,45.8L83.4,46.0L83.3,54.9L83.1,56.2L83.1,59.9L82.9,64.9L82.9,69.2L82.6,73.1L82.6,77.2L82.7,78.1L83.1,79.3L82.9,79.6L82.5,79.7L79.5,79.6L79.1,79.4L79.2,78.7L79.6,77.9L79.7,77.1L79.7,76.4L80.0,75.0L80.1,70.8L80.3,70.1L80.4,65.6L80.6,63.0L80.6,60.8L80.8,59.9L81.1,50.2L81.2,49.2L81.2,45.1L80.7,43.5L79.9,42.2Z M50.7,40.8L49.6,40.6L46.8,40.6L45.1,40.7L41.4,40.6L40.7,40.7L40.3,41.1L39.9,42.4L39.6,42.9L38.9,45.0L38.7,45.3L38.1,47.4L37.6,48.4L37.4,49.3L36.1,52.3L36.0,53.2L35.5,54.1L34.4,57.2L33.8,58.6L33.5,59.9L32.9,61.0L32.2,63.4L31.9,63.7L31.9,64.2L31.5,64.7L31.4,65.5L31.1,65.9L31.0,66.3L30.8,66.6L30.4,66.6L30.2,66.4L30.1,65.8L29.8,65.3L29.7,64.8L28.8,62.9L28.3,61.2L27.6,59.7L27.6,59.4L27.1,58.4L27.0,57.8L26.7,57.3L26.0,55.1L24.6,51.9L24.4,51.1L24.2,50.9L24.0,50.1L23.6,49.5L23.1,48.0L22.8,47.5L22.3,45.7L22.1,45.5L21.5,43.9L20.3,41.0L20.0,40.8L19.6,40.7L16.1,40.6L9.5,40.7L9.2,40.9L9.2,41.0L9.5,41.3L10.4,41.7L11.3,42.4L12.0,43.2L12.5,43.9L12.9,45.0L13.2,46.5L12.9,55.1L12.7,58.9L12.5,66.6L12.4,67.5L12.3,71.0L12.1,72.1L12.0,75.8L11.7,77.5L11.2,78.7L10.7,79.6L9.9,80.4L9.6,80.4L9.4,80.8L9.5,80.9L10.2,81.1L18.8,81.0L19.1,80.9L19.2,80.6L18.3,79.9L17.7,78.9L17.3,77.8L17.2,76.2L17.0,75.9L17.1,72.1L17.3,70.6L17.5,54.1L17.8,51.9L18.1,52.0L18.2,52.2L18.6,53.2L18.9,53.7L19.1,54.6L19.8,55.9L19.8,56.3L20.2,57.1L20.8,58.8L21.1,59.1L21.7,61.0L21.9,61.3L22.5,63.0L23.4,65.0L23.5,65.5L23.8,66.0L23.9,66.6L24.6,68.0L25.2,69.8L25.7,70.9L26.0,71.8L28.4,77.9L28.4,78.2L29.2,79.9L29.4,80.5L29.7,81.2L29.9,81.3L30.5,80.6L33.1,73.4L33.5,72.9L33.9,71.5L34.1,71.2L35.1,68.4L35.5,67.5L35.9,66.1L36.8,63.8L37.2,62.6L37.7,61.7L39.0,57.8L40.4,54.5L40.6,53.8L41.0,52.6L41.3,52.3L41.4,52.3L41.7,52.7L41.8,57.0L42.2,60.1L42.2,63.1L42.5,64.8L42.6,69.9L42.9,72.1L43.1,76.0L42.7,78.5L42.2,79.5L41.6,80.0L41.0,80.4L40.8,80.7L41.0,80.8L41.5,80.9L43.7,80.9L44.8,80.8L52.2,80.8L52.2,80.5L51.9,80.3L51.2,79.9L50.5,79.1L49.7,77.9L49.3,75.9L49.0,69.8L48.8,68.0L48.8,66.4L48.3,60.5L48.3,58.7L48.1,57.7L48.0,53.5L47.8,53.0L47.8,51.2L47.6,50.5L47.6,49.0L47.5,48.0L47.6,45.2L47.7,44.3L48.0,43.5L48.9,42.2L49.5,41.6L50.3,41.2Z M47.1,42.1L47.2,42.3L46.8,43.1L46.4,44.4L46.3,45.7L46.3,47.7L46.4,48.8L46.5,52.2L46.8,54.3L46.8,56.3L46.9,57.1L47.0,60.0L47.2,61.9L47.2,63.8L48.0,75.0L48.3,77.6L48.8,79.3L48.1,79.6L44.2,79.6L43.8,79.3L44.1,78.4L44.3,77.1L44.1,70.3L43.4,61.1L43.5,60.0L43.2,58.6L43.2,56.9L42.9,53.4L42.9,51.5L42.7,50.8L42.6,47.8L42.4,46.4L42.2,46.4L41.7,47.2L41.0,48.9L41.0,49.5L40.7,49.8L40.6,50.3L40.2,51.4L40.0,52.1L39.6,52.8L38.5,55.8L37.7,57.7L37.6,58.3L37.0,59.5L36.7,60.5L36.5,60.7L36.4,61.2L35.6,63.3L34.9,65.3L34.7,65.6L34.5,66.3L34.2,66.8L34.0,67.6L32.7,70.8L32.7,71.3L32.0,72.6L31.1,75.2L30.8,75.8L30.3,77.3L30.1,77.6L29.8,77.6L29.5,77.4L28.8,75.2L28.2,74.2L28.1,73.4L27.1,71.2L26.9,70.4L26.6,69.9L26.5,69.2L26.1,68.8L26.0,68.0L25.7,67.7L25.6,67.2L24.8,65.3L24.3,63.8L24.0,63.3L23.9,62.8L22.6,59.8L22.6,59.5L22.1,58.3L21.7,57.6L20.6,54.7L20.4,54.5L20.0,53.0L19.5,52.2L19.4,51.7L19.1,51.2L19.0,50.7L18.8,50.5L18.6,49.7L17.8,47.7L17.3,46.4L16.9,45.7L16.6,45.7L16.3,53.8L16.1,67.9L16.0,70.0L15.9,77.7L16.3,79.3L16.0,79.7L12.7,79.6L12.5,79.5L12.5,79.1L12.8,78.3L13.2,76.4L13.2,75.1L13.4,73.4L13.7,62.6L14.1,56.3L14.4,48.9L14.3,45.2L13.9,43.8L13.2,42.6L13.2,42.1L18.9,42.0L19.4,42.4L20.6,45.1L20.8,46.0L21.5,47.5L22.3,49.8L22.6,50.1L22.8,51.0L23.1,51.4L23.6,52.8L23.9,53.4L24.4,55.0L24.8,55.9L25.3,57.4L26.1,58.9L26.2,59.6L26.6,60.4L27.5,62.9L27.7,63.2L28.4,65.1L28.6,65.5L28.9,66.4L29.1,66.7L29.3,67.5L30.0,69.1L30.2,69.8L30.4,70.0L30.8,70.0L31.0,69.8L32.4,65.9L32.7,65.5L33.0,64.3L34.1,61.6L34.3,60.9L34.6,60.4L35.4,57.9L35.9,56.9L36.1,55.9L36.8,54.5L37.0,53.5L37.3,53.0L37.4,52.4L38.1,50.9L38.9,48.1L39.4,47.3L40.0,45.5L40.9,43.5L41.0,42.7L41.4,42.2L41.8,41.9L46.8,41.9Z M62.5,25.5L62.1,25.7L61.9,26.5L62.1,35.0L62.0,37.4L61.7,37.9L61.0,38.0L59.6,38.5L57.9,39.3L57.1,39.9L55.7,41.2L54.8,42.2L53.8,44.7L53.4,46.0L53.4,48.0L53.4,49.5L53.8,50.9L54.0,51.5L54.0,52.1L53.0,54.2L52.5,56.3L52.3,57.7L52.3,60.0L52.6,61.8L53.0,63.3L54.0,65.1L55.0,66.4L56.7,68.1L59.6,70.0L60.3,70.3L60.6,70.6L62.8,71.7L63.0,72.0L63.4,72.1L65.0,73.1L65.3,73.2L65.6,73.5L65.6,73.7L65.3,74.1L63.8,74.5L61.1,74.5L58.9,74.0L58.8,73.8L58.0,73.7L56.3,72.7L54.5,71.2L54.0,71.3L53.9,72.1L54.1,73.0L54.3,77.2L54.4,77.7L54.9,78.1L58.2,78.8L61.7,79.2L64.7,79.1L66.5,78.7L68.4,78.0L68.9,78.1L69.0,79.3L68.6,80.6L68.4,81.0L67.2,82.2L66.2,82.9L65.0,83.3L62.1,83.4L60.5,83.1L58.2,82.3L56.7,81.4L55.0,80.0L54.7,80.0L54.5,80.4L54.8,85.4L55.0,85.9L55.4,86.2L56.3,86.6L57.6,86.9L58.2,87.1L60.1,87.4L60.8,87.7L61.7,87.7L61.9,87.8L62.2,88.2L62.5,98.5L62.4,102.3L62.5,103.2L62.5,105.1L62.8,105.8L64.1,107.8L64.3,108.0L64.6,108.0L65.0,107.6L65.9,106.3L66.3,105.3L66.1,90.3L66.2,87.7L66.6,87.3L67.5,87.0L69.3,86.3L71.1,85.2L72.7,83.6L73.8,81.8L74.5,79.8L74.7,77.7L74.6,75.5L74.0,73.3L74.7,71.8L75.5,69.1L75.5,68.5L75.7,68.0L75.7,65.1L75.3,63.0L74.8,61.9L74.7,61.4L73.6,59.6L72.2,58.0L69.9,56.2L68.8,55.6L68.2,55.1L66.7,54.4L66.5,54.2L65.9,53.9L62.1,51.7L62.2,51.4L63.3,50.9L64.2,50.9L64.6,50.6L66.3,50.7L67.9,50.9L69.2,51.4L69.6,51.4L71.2,52.2L72.2,52.9L73.6,54.1L73.9,54.2L74.1,54.1L74.1,53.0L73.8,50.9L73.8,49.3L73.7,47.9L73.4,47.4L72.5,47.0L70.9,46.8L70.0,46.4L68.4,46.3L68.0,46.1L66.5,46.0L63.8,46.1L61.4,46.6L60.9,46.8L60.1,47.0L59.7,47.2L59.2,47.2L59.0,47.1L59.0,46.4L59.3,44.9L60.0,43.8L61.0,42.8L62.1,42.2L63.7,41.8L65.8,41.8L67.7,42.2L69.5,42.8L70.7,43.5L73.0,45.1L73.3,45.2L73.6,44.8L73.3,39.9L73.1,39.3L72.8,39.0L72.1,38.9L71.4,38.5L70.0,38.3L69.1,38.0L66.3,37.5L65.9,37.3L65.8,36.7L65.8,26.1L65.4,25.6Z M63.7,26.9L64.1,26.9L64.5,27.5L64.5,34.5L64.6,38.3L65.0,38.6L68.2,38.9L71.6,39.9L72.0,40.2L72.1,40.6L72.3,42.4L72.1,42.6L71.7,42.6L70.4,41.8L69.2,41.4L66.3,40.6L63.8,40.6L61.7,41.0L60.7,41.5L59.8,42.2L58.8,43.2L58.4,43.9L57.8,45.5L57.8,47.8L58.0,48.3L58.1,48.9L58.4,49.1L58.8,49.0L59.9,48.4L60.6,48.2L61.2,47.9L63.4,47.4L64.7,47.2L67.1,47.2L68.9,47.5L69.3,47.6L70.0,47.6L72.2,48.3L72.5,48.5L72.6,48.9L72.8,51.1L72.5,51.4L72.0,51.3L70.1,50.3L68.3,49.7L67.1,49.7L66.7,49.5L63.9,49.5L63.0,49.7L60.8,50.5L60.1,51.1L60.1,51.6L61.2,52.6L69.6,57.6L71.6,59.2L72.9,60.9L73.8,62.6L74.3,64.2L74.6,66.1L74.3,68.8L73.9,70.4L73.3,72.0L72.5,73.1L72.5,73.4L73.3,75.8L73.5,77.5L73.4,79.0L72.6,81.5L71.4,83.2L69.8,84.6L67.8,85.7L65.2,86.4L64.8,86.9L65.0,93.4L65.0,102.1L65.1,103.8L65.0,105.3L64.6,105.6L64.2,105.6L63.9,105.3L63.7,104.4L63.7,93.5L63.5,87.0L63.4,86.7L63.1,86.6L60.1,86.3L58.7,85.9L57.9,85.8L56.3,85.3L56.0,84.9L55.8,84.1L55.9,82.8L56.3,82.7L57.9,83.5L58.8,83.7L59.7,84.2L61.8,84.6L64.5,84.6L66.4,84.1L67.6,83.5L68.7,82.6L69.9,80.8L70.3,79.4L70.2,77.2L70.0,76.3L69.6,76.1L69.2,76.1L68.6,76.6L66.5,77.5L64.6,77.9L62.8,78.0L59.9,77.9L58.3,77.6L55.9,77.0L55.5,76.6L55.3,75.5L55.3,74.4L55.6,73.9L55.9,73.9L57.1,74.6L59.5,75.4L60.7,75.7L62.5,75.8L65.3,75.5L66.2,75.1L66.4,75.1L67.9,74.2L68.0,73.6L67.6,73.1L65.5,71.7L62.2,69.9L61.6,69.6L61.3,69.4L60.9,69.2L60.0,68.6L58.6,67.9L57.5,66.9L57.2,66.8L56.0,65.6L54.9,64.1L53.8,61.6L53.5,59.9L53.5,57.5L53.8,56.3L53.9,55.4L54.4,54.0L55.5,51.9L55.3,51.1L54.8,50.1L54.8,49.6L54.6,48.5L54.6,47.2L54.7,46.0L55.3,44.1L56.2,42.6L58.0,40.7L58.4,40.6L58.8,40.2L59.1,40.2L59.4,39.8L61.5,39.1L62.9,38.9L63.3,38.5L63.3,27.2Z M66.7,26.6L66.6,27.0L66.6,29.3L66.7,31.4L67.0,32.5L67.4,33.5L68.2,34.8L70.2,36.7L71.6,37.4L73.1,38.0L73.6,38.0L74.3,38.2L75.6,38.3L76.0,38.5L86.1,38.5L86.6,38.2L86.5,37.6L86.2,36.9L86.1,36.3L85.8,35.7L85.7,35.2L85.0,34.3L83.7,34.1L77.8,34.1L76.0,33.8L75.3,33.8L74.9,33.6L74.7,33.4L75.2,33.1L84.5,33.2L84.7,32.9L84.7,32.4L84.5,32.1L84.2,31.0L84.0,30.6L83.6,29.3L83.3,29.0L82.5,28.7L72.8,28.6L72.5,28.4L72.5,28.1L73.1,27.8L82.6,27.8L82.9,27.6L82.9,27.2L82.6,26.8L81.9,24.5L81.2,23.6L78.4,23.5L69.2,23.5L68.8,23.8L68.6,24.7L68.3,25.5L67.9,25.9Z M68.0,27.5L69.2,26.4L69.7,25.6L69.7,25.3L70.1,24.8L79.2,24.8L80.4,24.9L80.7,25.2L80.7,25.5L80.9,25.9L80.8,26.3L80.4,26.6L71.8,26.5L71.5,26.7L71.1,28.1L70.1,29.7L70.4,29.9L82.0,30.0L82.3,30.2L82.9,31.2L82.9,31.5L82.6,31.9L82.2,32.0L71.9,31.9L71.4,32.0L71.4,32.4L72.1,33.3L72.9,34.0L73.3,34.2L73.7,34.6L74.6,34.9L76.2,35.3L77.7,35.4L83.8,35.4L84.5,35.9L84.8,36.8L84.7,37.1L84.5,37.3L79.3,37.3L76.3,37.2L73.3,36.7L70.7,35.5L69.2,34.1L68.7,33.3L68.3,32.3L67.9,29.8L67.9,27.8Z M41.2,37.9L41.4,38.2L42.2,38.4L48.3,38.4L52.5,38.2L54.6,37.9L56.1,37.3L57.7,36.5L58.8,35.7L59.6,34.8L60.5,33.3L60.7,32.6L61.0,30.6L60.9,26.8L60.6,26.5L60.1,26.2L59.5,25.6L59.2,25.1L58.8,23.7L58.4,23.6L46.4,23.5L46.0,23.9L44.7,27.3L44.9,27.7L45.7,27.9L54.7,27.8L55.0,27.9L55.2,28.1L55.2,28.3L55.0,28.5L53.8,28.6L44.6,28.6L44.0,29.4L43.9,29.8L43.6,30.3L43.5,30.9L43.0,32.3L43.1,32.9L43.9,33.1L46.2,33.1L53.0,33.2L53.0,33.4L52.2,33.8L50.5,33.9L42.9,33.9L42.4,34.2L42.2,34.7L42.1,35.2L41.4,36.9Z M47.3,24.8L48.6,24.8L57.6,24.9L57.8,25.2L58.5,26.6L59.7,27.7L59.8,28.3L59.6,31.9L59.2,32.9L58.6,33.9L56.9,35.6L55.6,36.2L53.7,36.8L51.7,37.0L43.4,37.1L43.1,36.9L43.0,36.4L43.2,35.7L43.9,35.2L48.6,35.3L50.1,35.2L51.9,35.2L53.5,34.8L55.1,33.9L56.0,32.9L56.3,32.3L56.3,31.9L55.9,31.8L45.1,31.8L44.7,31.4L44.7,31.2L45.1,30.5L45.5,29.9L46.4,29.8L57.2,30.0L57.6,29.8L57.5,29.4L57.0,28.9L56.6,28.1L56.3,26.9L56.1,26.6L54.3,26.5L47.2,26.5L46.9,26.5L46.7,26.2L46.7,25.7L46.8,25.3Z M63.0,20.2L62.3,20.6L61.7,21.1L61.4,21.8L61.3,22.9L61.5,23.5L62.1,24.4L63.2,25.0L64.0,25.1L64.9,24.8L65.3,24.6L65.9,23.8L66.3,22.7L66.1,21.8L65.8,21.1L64.9,20.3L64.6,20.2L63.8,20.1Z M63.1,21.5L64.2,21.5L64.9,22.1L65.0,22.6L64.7,23.2L64.4,23.6L64.1,23.7L63.4,23.7L63.1,23.6L62.8,23.1L62.6,22.7L62.7,22.0Z" fill="#000" fill-rule="evenodd"/>
</svg>