<svg xmlns="http://www.w3.org/2000/svg" viewBox="0 0 128 128" width="128" height="128">
  <path d="M105.1,9.4L104.6,9.4L98.5,15.7L78.6,35.5L78.1,35.5L77.9,35.4L77.8,34.8L77.9,9.5L77.7,9.2L77.2,9.3L76.4,10.2L67.3,19.4L66.0,20.9L65.2,21.5L64.4,22.4L64.2,22.7L59.1,27.8L58.3,28.4L57.5,29.4L52.4,34.5L51.4,35.6L45.4,41.6L44.7,42.5L32.9,54.1L32.0,54.9L23.4,63.6L23.0,63.8L23.0,64.1L23.4,64.3L38.3,64.2L53.2,64.4L75.6,64.4L76.4,64.6L76.5,65.0L70.1,71.7L65.8,76.0L65.2,76.4L62.4,79.3L53.8,87.9L52.2,89.4L51.9,89.8L43.3,98.4L41.8,100.1L41.2,100.5L39.6,102.1L39.1,102.5L26.4,115.3L23.0,118.3L23.0,118.7L34.0,119.0L77.0,119.0L77.2,118.7L77.3,118.4L77.3,98.9L77.4,95.7L77.5,95.3L77.8,95.3L77.9,95.7L78.1,97.3L78.9,100.5L80.2,103.7L81.1,105.6L83.0,108.5L84.6,110.5L87.8,113.5L88.4,113.9L89.5,114.8L92.7,116.7L95.4,117.9L96.4,118.2L97.1,118.6L97.9,118.6L98.9,119.0L103.8,119.2L104.4,118.7L104.3,107.1L104.5,104.4L104.5,96.5L104.6,92.2L104.8,75.5L104.7,64.4L104.9,63.9L104.9,55.1L105.3,31.2L105.3,9.5Z M101.1,64.7L101.1,65.0L99.3,65.3L98.5,65.6L97.5,65.8L95.8,66.3L94.3,67.0L93.8,67.1L91.9,68.1L91.4,68.5L90.7,68.8L89.8,69.5L89.4,69.7L87.4,71.2L84.6,73.9L82.5,76.6L81.1,78.8L80.1,80.8L80.0,81.3L79.7,81.8L79.5,82.5L79.3,82.8L78.7,84.5L78.6,85.1L78.3,86.0L78.0,87.9L77.8,88.6L77.5,88.6L77.4,87.5L77.4,67.4L77.5,65.3L77.7,64.7L77.9,64.5L83.3,64.4L100.5,64.6Z" fill="#000" fill-rule="evenodd"/>
</svg>