<svg xmlns="http://www.w3.org/2000/svg" viewBox="0 0 128 128" width="128" height="128">
  <path d="M43.6,13.3L43.5,13.4L43.5,17.9L43.5,33.6L43.4,41.0L43.5,41.3L43.4,42.8L43.4,48.9L43.3,52.7L43.3,56.2L43.2,59.0L43.3,59.3L44.3,60.5L44.7,61.1L44.9,61.4L46.0,62.7L46.4,63.2L47.4,64.5L47.5,64.7L47.7,65.0L48.4,65.9L48.5,66.1L50.2,68.3L51.0,69.4L51.6,70.2L51.7,70.5L52.1,70.8L52.2,71.1L55.2,75.0L55.6,75.6L56.2,76.3L56.3,76.5L57.4,78.0L57.8,78.3L58.0,78.7L58.1,78.7L58.6,79.5L58.8,79.9L59.3,80.3L61.6,83.5L62.0,83.9L62.5,84.7L62.9,85.1L64.2,86.9L64.9,87.8L66.6,90.1L66.9,90.4L67.2,91.0L68.1,92.0L68.5,92.7L69.9,94.5L69.9,94.5L70.1,94.9L70.6,95.3L70.7,95.6L71.4,96.5L71.5,96.7L72.1,97.4L72.3,97.7L74.1,100.0L74.7,100.8L75.1,101.4L77.0,104.0L77.7,104.7L78.5,105.9L78.7,106.1L79.1,106.8L79.8,107.6L79.9,107.8L81.3,109.6L81.9,110.5L82.6,111.3L82.9,111.8L83.5,112.5L83.5,112.6L83.7,112.8L83.8,113.0L84.6,114.0L85.2,114.6L85.2,114.8L85.4,114.9L85.5,114.9L85.6,114.7L85.7,112.9L85.7,108.6L85.6,104.4L85.6,72.6L85.7,69.5L85.6,69.2L82.6,65.0L82.2,64.6L82.0,64.2L81.5,63.7L79.2,60.5L78.4,59.4L77.9,58.7L77.3,58.0L77.0,57.5L76.4,56.8L74.4,54.1L73.8,53.4L73.7,53.1L73.3,52.7L72.1,51.0L71.6,50.5L71.3,50.0L71.1,49.7L71.0,49.5L69.4,47.5L69.3,47.3L69.0,47.0L66.1,43.0L65.8,42.7L63.1,39.0L62.9,38.7L62.2,37.8L61.9,37.4L61.7,37.1L60.6,35.6L60.5,35.5L60.2,35.1L59.8,34.5L59.1,33.7L58.7,33.0L58.0,32.1L57.8,31.7L57.4,31.4L57.1,30.9L56.5,30.1L56.4,29.9L55.5,28.8L55.4,28.6L54.5,27.6L54.2,27.0L53.5,26.2L53.1,25.7L51.9,24.1L50.6,22.3L50.4,22.0L49.9,21.4L49.1,20.3L48.2,19.2L46.7,17.0L45.9,16.1L45.8,15.9L45.1,15.1L44.1,13.6L43.8,13.3Z M41.1,13.3L18.2,13.3L16.9,13.3L9.1,13.4L9.0,13.5L9.0,24.0L8.9,24.4L8.9,26.0L8.8,28.2L8.8,30.6L8.8,38.5L8.7,49.1L8.7,51.3L8.7,53.8L8.7,72.1L8.6,72.3L8.6,74.6L8.5,76.3L8.6,78.0L8.5,78.4L8.5,95.0L8.6,96.6L8.5,99.5L8.6,99.9L8.6,100.5L8.5,101.1L8.5,107.2L8.4,110.1L8.4,110.8L8.4,111.7L8.3,113.7L8.3,114.5L8.3,114.9L8.4,115.1L14.6,115.0L15.1,115.1L19.0,115.1L19.8,115.1L25.9,115.1L26.3,115.2L28.4,115.1L30.9,115.2L36.2,115.2L36.9,115.3L38.4,115.3L40.8,115.3L40.9,115.2L41.0,115.0L40.9,114.4L41.0,111.6L41.0,104.1L40.9,96.4L41.0,88.4L41.0,83.4L41.0,69.1L41.0,51.2L41.1,38.4L41.1,37.8L41.1,32.6L41.2,29.3L41.2,22.8L41.2,21.7L41.2,14.7L41.2,13.4Z M32.3,39.1L33.8,39.2L34.5,39.3L34.9,39.5L35.7,40.0L36.2,40.4L36.5,40.8L37.2,41.7L37.2,41.8L37.5,42.6L37.7,43.4L37.7,44.4L37.5,45.4L37.2,46.1L36.8,46.8L36.5,47.1L35.6,48.0L34.9,48.4L34.1,48.7L33.1,48.9L32.4,48.9L31.3,48.6L31.1,48.5L30.8,48.4L30.7,48.4L30.4,48.3L29.8,47.8L29.2,47.3L28.6,46.4L28.2,45.5L28.1,44.5L28.1,43.4L28.2,42.9L28.6,41.8L29.0,41.1L29.6,40.4L30.3,39.9L31.4,39.3Z M33.4,22.9L34.5,23.1L34.9,23.3L35.2,23.4L36.1,23.9L36.8,24.6L37.4,25.3L37.7,26.1L38.0,27.3L38.0,28.4L37.9,29.1L37.5,30.2L37.0,31.0L36.1,31.8L35.2,32.4L34.2,32.7L33.4,32.8L32.6,32.8L31.7,32.6L30.8,32.2L30.3,31.8L30.0,31.7L29.2,30.8L28.8,30.1L28.4,29.2L28.3,28.5L28.3,27.4L28.4,26.5L28.8,25.6L29.3,24.9L30.2,24.0L30.3,23.9L31.0,23.5L31.2,23.4L31.4,23.3L31.7,23.2L32.4,23.0Z M88.0,12.8L87.9,12.8L87.8,13.0L87.8,18.2L87.7,19.4L87.8,27.7L87.7,35.2L87.7,47.0L87.7,51.2L87.8,56.3L87.7,62.8L87.8,68.7L87.7,75.7L87.8,77.3L87.7,78.9L87.7,94.3L87.7,99.7L87.7,103.0L87.6,103.3L87.7,110.5L87.5,115.0L87.7,115.2L88.5,115.2L102.7,115.2L106.4,115.2L110.7,115.2L111.8,115.2L117.9,115.2L119.5,115.3L119.5,115.2L119.6,115.0L119.6,111.3L119.7,108.1L119.7,106.7L119.6,106.2L119.6,103.1L119.8,91.2L119.8,79.1L119.8,76.9L119.8,73.0L119.8,59.0L119.7,53.5L119.7,36.1L119.7,27.7L119.6,27.6L119.4,27.4L119.4,27.3L119.6,27.2L119.6,26.9L119.7,26.7L119.8,21.0L119.8,13.3L119.6,13.1L119.4,13.0L117.1,13.0L116.0,12.9L110.4,12.9L106.5,12.9L104.2,12.9L102.1,12.8L89.7,12.9Z M95.9,94.6L96.8,94.6L97.7,94.8L98.8,95.3L99.6,95.8L100.1,96.3L100.5,96.9L101.0,97.9L101.2,98.9L101.2,99.6L101.1,100.7L100.7,101.7L100.2,102.6L99.6,103.1L99.2,103.5L98.3,104.0L97.8,104.2L96.7,104.4L95.8,104.4L94.9,104.2L94.3,104.1L93.8,103.8L93.4,103.5L93.3,103.4L92.8,102.9L92.3,102.4L91.9,101.7L91.5,100.6L91.4,99.9L91.4,98.8L91.5,98.7L91.6,98.1L92.0,97.2L92.5,96.4L92.9,95.9L93.6,95.4L94.1,95.1L95.0,94.8L95.2,94.8Z M95.7,79.2L96.8,79.2L97.3,79.3L98.0,79.5L98.6,79.8L99.6,80.7L99.6,80.8L99.8,81.0L100.3,81.9L100.6,82.5L100.9,83.6L100.8,84.6L100.6,85.7L100.2,86.6L99.8,87.1L99.0,87.9L98.3,88.4L97.6,88.7L97.5,88.7L96.9,88.9L96.4,89.0L95.6,89.0L94.8,88.9L94.5,88.7L94.3,88.7L94.0,88.6L93.8,88.5L93.0,88.0L92.3,87.4L91.8,86.7L91.7,86.4L91.6,86.3L91.3,85.5L91.1,84.4L91.2,83.3L91.3,82.7L91.6,82.1L91.6,82.0L91.8,81.8L91.8,81.6L92.0,81.2L92.5,80.8L93.3,80.0L94.0,79.6L95.1,79.2Z M119.4,26.9L119.6,26.9L119.5,27.0L119.4,27.0Z" fill="#000" fill-rule="evenodd"/>
</svg>