<svg xmlns="http://www.w3.org/2000/svg" viewBox="0 0 128 128" width="128" height="128">
  <path d="M10.8,9.8L10.6,10.1L10.7,27.9L10.5,35.5L10.6,47.8L10.4,67.3L10.1,78.6L10.1,89.9L9.7,105.2L9.7,112.1L9.5,115.4L9.5,117.4L9.7,118.2L10.5,118.6L25.5,118.6L33.4,118.8L39.4,118.6L74.4,118.6L77.8,118.9L78.5,118.7L88.6,118.6L94.6,118.8L111.5,118.7L117.4,118.9L117.9,118.7L118.3,118.0L118.3,97.5L118.5,88.7L118.4,74.2L118.5,63.2L118.6,58.4L118.5,45.0L118.6,36.2L118.6,11.1L118.5,10.7L117.8,10.3L78.9,10.1L73.5,9.9L68.2,10.0L34.3,9.6L30.0,9.7L15.3,9.4L11.3,9.6Z M79.7,17.6L80.8,18.4L92.9,30.6L97.0,35.0L104.0,42.1L104.1,42.4L105.3,43.4L108.9,47.4L109.2,48.2L109.5,48.5L109.8,49.9L109.8,51.1L109.4,52.7L108.7,54.0L105.9,56.8L105.1,57.3L98.8,63.5L97.1,64.9L94.5,67.5L92.2,69.5L89.7,72.0L89.2,72.3L88.1,73.5L84.0,77.3L80.4,80.0L78.8,80.4L77.6,80.4L76.8,80.2L74.7,79.0L65.2,69.5L64.6,68.6L62.1,66.3L61.0,65.1L54.3,58.5L53.6,58.0L52.8,57.7L51.9,57.7L51.0,58.2L50.5,58.7L50.0,59.6L49.8,61.6L49.8,80.1L49.6,85.8L49.4,108.6L49.3,109.1L48.9,109.8L48.5,110.0L47.7,109.9L44.9,107.5L19.0,81.6L18.2,80.2L17.8,78.6L17.8,77.5L18.1,76.6L18.9,75.2L21.8,72.0L22.9,71.2L27.9,66.3L28.5,65.9L41.7,53.3L46.3,49.4L47.1,48.8L48.1,48.6L49.0,48.6L50.2,48.9L52.1,50.3L54.5,52.5L72.4,70.5L73.2,71.0L74.5,71.4L75.1,71.4L75.9,71.1L76.8,70.0L77.3,68.0L77.3,61.1L77.6,48.3L77.5,41.0L77.9,19.3L78.2,18.0L78.5,17.6Z" fill="#000" fill-rule="evenodd"/>
</svg>