<svg xmlns="http://www.w3.org/2000/svg" viewBox="0 0 128 128" width="128" height="128">
  <path d="M103.5,22.7L102.9,22.5L78.2,22.7L72.6,22.8L69.3,22.8L63.5,22.9L54.1,22.9L45.6,23.1L32.1,23.1L28.2,23.3L12.9,23.4L12.3,23.6L12.0,23.9L11.9,27.1L12.1,30.0L12.1,35.3L12.3,36.4L12.3,43.2L12.6,50.0L12.7,59.9L13.0,68.4L12.9,71.2L13.0,73.9L13.2,86.9L13.4,90.8L13.4,97.2L13.6,101.3L13.5,103.2L13.7,104.4L13.9,118.2L14.2,118.7L24.2,118.8L45.3,118.6L65.8,118.6L76.4,118.7L81.2,118.7L86.5,118.8L90.1,118.7L115.9,118.9L116.3,118.6L116.4,116.5L116.2,116.1L113.2,115.9L91.9,115.9L71.9,115.6L65.3,115.7L58.3,115.5L18.3,115.7L17.9,115.6L17.3,115.2L17.1,112.2L17.0,99.6L16.7,94.2L16.8,90.1L16.5,76.5L16.5,69.3L16.2,63.4L16.2,57.4L16.0,55.0L15.7,34.7L15.5,31.6L15.6,27.4L16.1,26.9L16.7,26.8L30.2,26.7L35.0,26.5L51.3,26.5L57.2,26.3L67.1,26.3L75.1,26.1L78.6,26.2L83.3,26.0L100.3,26.0L100.7,26.5L100.8,27.3L100.8,69.6L101.0,81.2L101.0,90.5L100.8,91.0L100.3,91.4L81.0,91.4L73.1,91.2L41.2,91.2L40.7,90.5L40.6,89.2L40.7,85.6L40.4,78.7L40.3,66.4L40.1,64.3L40.2,52.0L40.6,51.6L41.3,51.5L56.0,51.3L57.2,51.7L71.6,66.3L75.7,70.7L78.8,73.8L79.4,74.1L79.6,73.8L79.7,71.6L79.4,61.2L79.4,48.6L79.0,48.0L77.9,47.8L51.9,48.1L37.6,48.1L37.1,48.3L36.9,48.6L36.9,56.9L37.1,59.3L37.2,69.2L37.5,75.6L37.5,86.7L37.7,94.1L38.1,94.4L38.7,94.5L59.8,94.4L60.5,94.6L61.3,94.6L61.9,94.4L71.4,94.4L81.7,94.6L84.3,94.5L103.2,94.7L103.7,94.6L103.9,94.4L104.0,94.0L103.9,92.7L104.0,90.4L103.9,81.5L104.0,27.3L103.9,23.3L103.8,22.9Z M116.2,9.4L111.6,9.3L103.1,9.4L88.9,9.4L76.0,9.7L55.5,9.9L49.9,10.1L41.2,10.1L24.0,10.4L21.9,10.3L20.5,10.5L13.2,10.5L12.1,10.5L11.7,10.8L11.7,13.2L11.8,13.8L12.2,14.1L14.2,14.2L23.8,13.9L32.5,13.9L36.6,13.7L41.2,13.8L45.4,13.6L53.4,13.6L58.2,13.4L72.4,13.3L77.5,13.1L80.6,13.2L86.1,13.0L93.0,13.0L96.3,12.9L112.7,12.9L113.2,13.1L113.4,13.9L113.4,32.4L113.2,32.9L113.4,34.2L113.2,103.2L112.6,103.7L111.4,103.8L95.8,103.8L85.9,103.6L80.9,103.7L70.5,103.4L33.6,103.6L29.7,103.5L29.1,103.2L28.9,102.8L28.9,97.8L28.7,94.6L28.7,85.8L28.3,73.5L28.3,66.7L28.0,60.4L28.1,53.8L27.9,51.8L27.7,45.1L27.8,39.7L28.2,39.3L29.0,39.1L63.6,38.9L68.4,38.8L86.3,38.7L88.0,38.8L88.3,39.4L88.4,41.3L88.6,63.9L88.5,67.5L88.7,78.1L88.5,78.7L88.0,79.0L72.0,79.0L71.4,78.8L66.2,73.7L61.6,68.8L49.5,56.6L49.1,56.6L48.8,57.1L48.8,62.1L49.2,76.0L49.2,81.2L49.3,81.8L49.8,82.2L51.5,82.3L90.5,82.3L91.3,82.2L91.6,82.0L91.7,81.7L91.5,37.6L91.3,35.7L91.2,35.5L90.6,35.3L26.1,35.8L25.0,35.9L24.5,36.3L24.4,39.5L25.0,63.6L25.2,80.5L25.4,89.5L25.4,99.1L25.6,100.6L25.7,105.9L26.2,106.5L68.3,106.5L77.0,106.7L112.3,106.9L116.0,106.8L116.4,106.4L116.4,26.8L116.6,20.1L116.6,11.6L116.5,9.9Z" fill="#000" fill-rule="evenodd"/>
</svg>