<svg xmlns="http://www.w3.org/2000/svg" viewBox="0 0 128 128" width="128" height="128">
  <path d="M9.5,115.7L8.7,116.5L8.7,116.8L9.1,116.8L9.4,116.6L9.7,116.6L9.8,116.8L9.8,120.2L10.4,120.2L10.4,115.9L10.0,115.7Z M22.1,115.6L21.8,115.7L21.2,116.4L21.3,116.7L21.6,116.7L21.9,116.5L22.2,116.6L22.3,116.8L22.4,120.2L22.8,120.2L22.8,116.0L22.6,115.7Z M17.9,115.6L17.1,116.3L17.1,116.7L18.0,116.6L18.1,116.8L18.2,120.2L18.7,120.2L18.7,116.1L18.4,115.7Z M12.9,115.5L12.3,116.0L12.0,116.4L12.0,120.1L12.1,120.2L12.8,120.2L12.5,120.0L12.3,119.3L12.3,117.6L12.5,116.6L13.3,116.0L13.9,116.0L14.5,116.5L14.7,117.0L14.7,119.5L14.6,119.9L14.2,120.2L15.0,120.1L15.1,116.9L14.9,116.1L14.3,115.6L13.9,115.4Z M77.6,9.3L77.4,9.3L77.2,9.5L76.8,10.4L75.7,13.5L74.9,15.2L74.8,16.1L74.4,16.7L74.3,17.3L74.1,17.6L73.9,18.5L73.5,19.4L72.9,21.2L72.3,22.7L72.2,22.9L70.9,27.0L69.5,30.6L69.5,30.8L69.2,31.3L69.0,32.3L68.4,33.7L67.1,37.6L66.7,38.3L66.6,38.8L66.1,39.6L65.6,39.8L49.3,39.7L44.2,39.8L35.2,39.8L32.8,40.1L32.4,40.3L30.1,40.4L28.5,40.9L27.6,41.0L25.8,41.6L23.0,42.8L19.7,44.9L17.6,46.6L15.1,49.1L13.1,51.7L10.9,56.2L10.5,57.7L10.1,58.9L9.4,62.2L9.4,67.6L9.7,69.3L10.4,72.5L11.1,74.4L12.1,76.4L13.6,78.7L13.6,78.8L14.9,80.7L16.2,82.1L18.7,84.5L21.8,86.6L23.7,87.6L25.8,88.4L26.8,88.6L27.2,88.9L29.7,89.5L30.8,89.5L33.4,89.9L36.6,89.9L37.1,90.2L37.6,91.1L38.3,92.8L39.0,95.2L39.6,96.4L40.8,100.0L41.1,100.5L43.3,106.6L44.1,108.3L44.2,109.1L44.5,109.4L44.8,110.5L45.0,110.8L45.3,111.8L45.7,112.6L45.7,112.9L48.0,118.7L48.2,118.9L48.7,118.9L48.9,118.7L49.5,117.0L49.7,116.9L50.5,114.0L51.2,112.5L51.4,111.3L52.2,109.5L55.2,100.4L55.6,99.9L55.8,98.9L56.3,98.1L56.9,95.9L57.6,94.1L57.7,93.5L58.9,90.8L59.5,90.0L62.4,89.8L90.6,89.8L92.7,90.0L96.8,89.7L99.2,89.3L101.2,88.8L102.3,88.3L102.7,88.1L104.2,87.6L105.7,86.7L106.2,86.5L108.9,84.7L110.3,83.6L112.4,81.6L114.5,79.0L115.7,77.2L115.9,76.4L116.2,76.1L117.0,74.5L118.2,71.1L118.2,70.4L118.6,69.2L118.9,66.4L118.8,60.9L118.2,58.2L117.6,56.2L116.4,53.5L115.7,52.2L115.3,51.9L114.7,50.6L113.8,49.3L113.1,48.7L112.7,48.1L109.9,45.5L108.0,44.0L105.1,42.3L101.4,40.9L100.8,40.8L100.4,40.5L96.5,39.8L89.7,39.5L89.1,39.0L88.4,37.0L87.7,35.5L87.0,33.4L84.4,27.0L83.3,23.7L82.6,22.2L81.8,19.7L80.7,17.3L80.6,16.8L79.9,15.0L78.7,11.7L78.0,10.0Z M107.7,63.6L107.7,66.4L107.5,67.6L106.7,70.1L105.7,72.3L104.3,74.1L101.8,76.3L99.1,77.8L97.7,78.3L96.1,78.6L93.7,78.5L93.0,78.7L88.5,78.7L87.1,78.8L85.3,78.7L80.8,78.7L76.9,78.8L65.9,78.7L61.4,78.9L53.0,78.9L52.4,79.4L50.8,83.2L50.3,85.1L49.2,87.7L49.0,88.4L48.6,89.0L48.1,88.9L47.8,88.5L47.8,88.2L47.3,87.3L46.7,85.3L45.1,81.8L44.6,80.0L44.0,79.1L43.2,78.9L33.6,78.9L33.0,78.7L31.9,78.7L29.8,78.2L27.6,77.3L26.4,76.6L24.7,75.3L22.2,72.3L21.8,71.7L20.8,69.3L20.2,66.4L20.2,64.0L20.4,62.5L21.2,59.9L21.9,58.3L23.5,56.0L24.8,54.7L26.5,53.3L28.4,52.3L31.8,51.3L33.2,51.3L34.2,51.2L37.9,51.2L63.4,50.8L72.6,50.9L72.9,50.7L73.3,50.1L75.0,45.2L76.2,42.3L77.0,39.8L77.6,38.7L78.0,38.7L78.2,39.0L78.7,39.9L79.3,41.8L80.6,44.7L80.8,45.7L81.0,45.9L81.2,46.8L81.6,47.4L81.7,48.1L82.0,48.7L82.5,50.0L82.9,50.6L83.8,50.8L91.5,50.7L94.7,50.9L98.0,51.6L100.4,52.5L102.9,54.4L104.2,55.7L105.3,57.0L106.7,59.5L107.4,61.9Z" fill="#000" fill-rule="evenodd"/>
</svg>