<svg xmlns="http://www.w3.org/2000/svg" viewBox="0 0 128 128" width="128" height="128">
  <path d="M115.7,35.1L114.3,33.2L112.3,31.2L111.2,30.2L109.1,28.9L106.3,27.6L104.0,27.0L100.7,26.6L98.7,26.6L96.9,27.0L96.2,27.0L94.7,27.5L94.4,27.5L92.4,28.3L89.8,29.7L87.5,31.5L85.2,34.0L84.0,35.9L83.0,38.1L82.1,40.9L81.9,42.7L81.5,44.9L81.5,49.3L81.4,52.6L81.4,63.8L81.6,68.1L81.7,74.4L81.9,75.3L81.9,79.0L82.1,79.6L82.2,81.7L82.3,82.2L82.3,83.1L82.6,84.7L82.7,85.1L83.0,86.9L83.8,89.1L84.5,90.6L85.9,92.7L87.4,94.5L89.2,96.3L91.8,98.2L93.2,98.8L93.3,99.2L92.8,99.3L89.7,97.9L87.4,96.3L85.3,94.3L85.1,93.9L84.3,93.1L83.2,91.5L82.6,90.3L81.8,89.2L80.8,87.2L79.6,83.6L79.2,81.7L78.9,81.3L78.8,80.3L78.5,79.6L78.3,78.6L78.1,78.3L77.9,76.8L76.8,72.4L76.6,71.0L76.3,70.1L75.8,67.0L75.5,66.4L75.5,65.6L75.1,64.1L74.6,61.0L74.4,60.8L74.2,58.9L73.9,57.8L73.5,55.4L73.1,54.2L73.1,53.6L72.7,52.7L72.6,51.8L72.0,49.8L71.0,45.8L70.1,42.9L69.7,42.2L69.6,41.7L69.0,40.6L68.7,39.9L67.5,37.7L67.2,37.3L66.1,35.7L64.7,33.9L61.1,30.9L60.1,30.4L59.5,30.3L59.0,30.0L57.8,29.6L55.4,29.0L53.9,28.8L51.4,28.3L49.7,28.2L49.2,28.0L48.2,28.0L46.7,27.8L45.6,27.8L44.5,27.5L34.4,27.7L28.1,28.2L26.2,28.7L23.9,28.8L22.0,29.3L21.5,29.5L20.8,29.6L19.3,30.4L18.4,30.7L16.7,31.8L15.0,33.2L13.8,34.3L11.9,36.7L10.4,39.6L9.6,42.2L9.2,44.4L9.2,49.3L9.6,51.5L10.4,53.7L11.7,56.5L13.2,58.6L15.3,60.7L17.0,62.0L17.5,62.1L18.6,62.9L19.9,63.5L20.7,64.0L22.1,64.4L22.5,64.6L23.4,64.8L23.8,65.1L23.8,65.2L23.5,65.5L22.5,65.7L22.0,66.0L21.7,66.0L20.2,66.6L19.8,67.0L18.8,67.4L16.3,69.3L15.2,70.2L14.0,71.5L12.3,74.1L11.5,75.7L11.3,76.4L10.8,77.3L10.4,78.7L10.3,80.1L10.0,80.9L9.9,83.6L10.1,86.6L10.5,88.2L11.6,91.1L12.5,92.8L13.6,94.5L15.0,96.2L16.7,97.7L19.4,99.6L22.2,100.8L23.9,101.2L26.1,101.6L29.7,101.6L32.1,101.2L33.7,100.7L34.5,100.5L34.9,100.3L35.6,100.1L37.9,98.9L40.3,96.8L42.4,94.4L43.1,93.1L43.5,92.5L43.8,91.8L44.6,90.3L45.0,88.8L45.5,86.5L45.6,84.9L46.0,82.0L46.1,77.6L46.1,68.4L46.0,63.2L45.8,61.1L45.8,59.9L45.6,59.2L45.6,55.6L45.4,54.6L45.4,52.0L45.3,51.1L45.3,49.2L45.0,47.4L45.0,45.2L44.6,43.2L43.7,40.3L42.4,37.7L40.8,35.2L38.5,32.8L37.2,31.8L35.6,30.8L34.9,30.5L34.0,30.0L34.1,29.7L34.5,29.6L36.0,30.1L38.1,31.1L40.2,32.8L41.0,33.2L43.0,35.2L44.5,37.0L45.4,38.4L45.9,39.5L46.4,40.0L46.9,41.1L47.0,41.4L47.6,42.5L47.6,42.7L48.5,44.8L49.4,47.3L49.5,47.9L50.7,52.1L50.8,53.1L51.1,53.9L51.2,54.7L52.5,59.7L52.8,61.9L53.3,64.0L53.6,65.9L54.0,67.2L54.4,69.7L54.7,70.4L54.9,71.9L55.5,74.1L56.3,78.0L57.6,83.1L58.8,86.6L60.0,89.6L61.2,91.7L62.3,93.1L62.8,94.1L63.8,95.1L65.0,96.2L66.4,97.1L67.0,97.3L67.9,97.9L70.8,99.3L71.9,99.7L75.4,100.5L77.6,100.8L78.0,101.0L79.0,101.0L80.7,101.2L84.9,101.5L91.3,101.5L95.3,101.2L96.0,101.1L99.2,101.0L100.3,100.8L101.4,100.8L102.3,100.6L103.2,100.3L104.4,100.1L105.5,99.7L106.0,99.7L108.6,98.9L109.9,98.2L111.8,97.0L113.1,96.0L114.1,94.9L115.9,92.7L117.4,90.0L118.3,87.8L119.0,84.5L119.1,81.2L118.8,80.1L118.8,79.4L118.7,78.6L118.5,78.3L118.4,77.5L118.0,76.5L118.0,76.0L117.6,75.3L117.5,74.9L117.0,73.8L115.8,71.9L114.5,70.1L113.2,68.8L110.9,66.9L110.2,66.6L109.7,66.2L108.3,65.4L107.7,65.2L106.4,64.6L105.4,64.4L104.4,63.8L104.4,63.5L104.7,63.3L105.6,63.1L107.0,62.5L107.8,62.2L108.9,61.5L109.3,61.4L112.2,59.5L114.4,57.2L115.7,55.4L116.5,54.0L116.7,53.5L117.5,51.9L118.2,49.5L118.6,46.6L118.5,42.4L117.6,38.8Z M43.7,53.5L44.2,53.5L44.3,53.9L44.3,55.3L44.7,60.0L44.9,67.1L45.0,68.1L45.1,76.8L45.0,77.0L44.6,77.1L44.3,76.8L44.2,76.1L42.0,72.5L40.9,71.1L38.6,68.9L36.7,67.7L35.2,66.9L34.9,66.8L33.5,66.1L32.0,65.5L31.0,65.3L30.7,65.1L30.6,64.9L30.7,64.8L31.9,64.5L32.3,64.3L32.8,64.2L35.6,62.9L37.5,61.6L38.8,60.6L41.4,57.7L42.6,55.9Z M83.0,52.8L83.3,52.8L83.6,53.1L84.1,54.3L85.8,56.8L87.5,58.7L89.5,60.3L91.3,61.5L93.1,62.5L93.9,62.6L94.3,62.9L95.1,63.0L95.6,63.2L96.7,63.5L96.9,63.6L96.8,64.0L96.5,64.1L95.8,64.2L95.2,64.5L93.9,64.8L92.8,65.5L92.0,65.7L91.2,66.3L90.2,66.8L88.4,68.2L86.1,70.8L84.9,72.4L83.6,75.2L83.3,75.3L83.0,75.0L82.6,68.6L82.6,56.3L82.8,53.1Z" fill="#000" fill-rule="evenodd"/>
</svg>