<svg xmlns="http://www.w3.org/2000/svg" viewBox="0 0 128 128" width="128" height="128">
  <path d="M9.5,32.6L9.3,34.7L9.4,75.9L9.3,79.6L9.2,93.8L9.4,94.9L9.7,95.2L12.4,95.3L20.4,95.4L20.7,95.3L21.1,94.8L21.2,73.6L21.1,58.7L21.3,53.6L21.2,53.0L21.5,52.6L21.8,52.6L22.6,53.3L24.7,56.1L25.3,56.6L25.5,57.0L26.2,57.7L27.4,59.3L30.3,62.7L30.9,63.5L32.1,64.9L32.8,65.9L34.4,67.6L37.4,71.6L38.5,72.7L38.7,73.2L42.2,77.2L42.3,77.5L43.4,78.7L43.6,79.2L45.7,81.5L47.6,84.0L49.8,86.6L51.1,88.4L52.3,89.6L54.1,92.0L56.2,94.3L56.4,94.6L57.1,95.3L57.5,95.6L59.1,95.7L63.1,95.8L74.2,95.8L84.9,96.1L100.1,96.0L103.1,96.1L105.9,96.1L110.5,96.2L117.4,96.2L117.8,96.1L118.1,95.8L118.3,85.7L118.3,82.4L118.4,69.8L118.3,68.0L118.0,67.5L117.6,67.3L113.4,67.2L112.9,67.6L112.5,69.2L112.3,70.6L110.9,74.7L110.7,75.0L110.6,75.4L110.2,76.0L110.1,76.5L109.7,77.2L109.3,77.7L108.7,78.9L106.9,81.1L106.8,81.3L105.0,83.2L102.3,85.5L100.1,87.0L97.0,88.4L96.8,88.4L94.8,89.2L94.3,89.3L93.7,89.6L90.1,90.1L86.8,90.1L83.7,89.8L83.0,89.6L81.9,89.4L80.1,88.9L78.2,88.0L78.0,88.0L74.4,86.0L71.4,83.6L70.4,82.6L68.7,80.6L68.6,80.2L66.9,77.9L65.2,74.6L65.1,73.9L64.4,72.3L63.8,69.9L63.3,66.6L63.2,63.8L63.3,62.2L63.6,61.2L63.7,59.4L64.3,57.0L64.7,56.0L64.8,55.1L66.0,52.3L66.3,51.9L67.0,50.5L68.0,48.9L69.7,46.6L71.9,44.4L73.9,42.7L76.7,41.0L79.2,39.8L81.3,39.1L83.4,38.5L86.0,38.1L90.5,38.2L93.9,38.7L94.4,39.0L95.5,39.2L98.3,40.3L101.0,41.8L102.7,42.9L105.0,44.8L106.5,46.4L108.4,48.9L109.5,50.6L110.7,52.9L111.5,55.0L112.6,58.5L112.8,59.8L112.8,60.5L113.4,61.4L115.4,61.5L117.5,61.5L118.2,61.4L118.5,60.8L118.8,43.7L119.0,42.8L118.9,39.3L119.1,38.2L119.1,33.4L119.0,33.0L118.6,32.6L89.9,32.4L80.6,32.2L73.9,32.3L69.0,32.1L67.4,32.2L65.1,32.0L58.3,32.0L57.9,32.2L57.8,32.5L57.8,33.7L57.6,34.5L57.7,39.1L57.5,44.4L57.6,47.6L57.5,61.0L57.5,66.6L57.4,75.0L57.2,75.2L56.9,75.2L55.9,74.2L55.3,73.3L54.7,72.8L51.5,68.7L50.8,68.0L48.3,64.8L47.9,64.5L47.6,63.9L46.9,63.2L45.8,61.7L44.4,60.2L44.3,60.0L44.0,59.7L43.1,58.4L41.9,57.1L41.4,56.4L40.9,56.0L39.5,54.1L38.8,53.4L35.5,49.3L33.9,47.5L33.5,46.8L31.7,44.8L31.4,44.3L30.1,42.8L29.2,41.6L27.2,39.4L26.8,38.7L23.7,35.1L22.4,33.4L21.6,32.7L21.1,32.3L20.7,32.2L10.7,32.2L10.0,32.3Z" fill="#000" fill-rule="evenodd"/>
</svg>