<svg xmlns="http://www.w3.org/2000/svg" viewBox="0 0 128 128" width="128" height="128">
  <path d="M115.5,10.7L114.6,10.3L114.1,9.8L112.9,9.5L111.7,9.3L109.8,9.3L107.8,9.8L105.4,10.9L104.4,11.7L102.5,13.7L102.1,14.4L101.5,15.0L100.1,17.4L99.7,17.8L98.9,17.8L97.5,16.5L97.0,15.9L96.7,15.7L95.4,14.5L93.2,13.1L90.2,11.7L89.3,11.6L88.2,11.1L87.0,11.0L84.8,10.6L80.2,10.6L77.2,11.1L74.8,11.9L71.6,13.4L69.1,14.9L66.5,16.9L64.9,18.5L63.3,20.5L62.0,22.5L61.7,23.3L61.3,23.8L60.8,25.1L60.8,25.5L60.3,26.2L59.8,27.8L59.1,31.4L59.2,36.3L59.5,37.9L60.0,39.9L60.8,41.7L62.1,44.2L63.7,46.4L66.1,48.8L67.6,50.1L68.7,50.7L69.1,51.1L69.6,51.3L69.9,51.5L69.9,51.8L69.4,52.2L67.1,52.7L65.8,53.3L64.5,53.6L63.2,54.3L62.8,54.6L61.6,55.3L59.1,57.8L58.3,59.1L57.9,59.6L57.5,60.4L56.8,61.2L56.5,60.8L56.3,59.2L56.4,37.4L56.2,33.1L56.2,13.3L55.6,12.8L54.1,12.7L44.0,12.8L42.8,13.0L42.3,13.7L42.5,22.7L42.5,39.5L42.7,42.2L42.7,60.8L42.4,61.3L42.2,61.3L41.8,60.8L41.5,59.4L41.2,58.5L40.7,56.1L40.3,54.8L40.0,53.2L39.7,52.5L39.5,50.9L39.0,49.4L38.9,48.5L38.5,47.0L38.3,45.7L37.2,41.6L36.9,40.0L36.4,38.3L35.7,35.0L35.4,34.1L34.9,31.6L34.5,30.2L33.7,26.4L33.5,26.1L33.4,25.2L32.2,20.7L32.0,19.0L30.5,13.5L29.9,13.1L22.8,13.3L17.1,13.2L15.7,13.4L12.6,13.4L10.9,13.5L10.7,13.8L10.6,14.5L10.8,66.3L10.7,84.3L10.9,92.2L10.8,107.2L11.0,112.6L10.9,114.6L11.1,115.4L11.7,115.7L23.7,115.6L24.3,115.3L24.5,114.8L24.5,71.3L24.6,67.9L25.0,67.5L25.4,68.1L25.6,69.4L26.1,70.6L26.2,71.7L26.5,72.4L28.3,80.8L28.9,83.0L29.3,85.2L29.7,86.6L29.8,87.5L30.2,88.5L31.1,93.5L31.6,94.8L31.7,95.9L32.9,100.6L33.3,103.1L34.1,106.1L35.5,112.3L35.7,112.6L35.8,113.8L36.4,115.4L37.0,115.7L56.0,115.7L56.3,115.2L56.4,106.4L56.5,105.8L56.7,105.6L56.9,105.6L57.3,106.1L58.4,108.0L59.7,109.8L62.0,112.2L64.3,114.0L67.6,115.8L70.2,116.9L75.3,118.2L78.9,118.9L87.3,119.0L90.9,118.5L93.7,117.9L97.9,116.3L102.0,114.3L103.9,112.9L106.0,111.0L109.2,107.1L111.7,103.0L113.4,98.7L114.1,95.9L114.8,91.8L114.7,86.6L114.1,82.1L113.6,81.0L113.6,80.2L112.8,78.2L111.3,75.0L109.4,72.8L106.9,70.8L105.0,69.9L102.6,69.2L98.8,68.8L90.4,69.0L87.5,69.2L83.0,69.3L82.0,69.5L73.0,69.8L68.6,70.1L64.3,70.1L63.3,69.8L62.2,69.1L61.0,68.0L60.6,67.2L60.0,65.8L59.9,63.0L60.0,62.5L60.7,60.9L61.2,60.0L62.1,58.9L63.6,57.5L65.1,56.5L67.6,55.3L69.1,54.9L72.4,54.3L75.9,54.3L78.8,54.7L83.0,54.7L86.8,54.3L90.2,53.3L93.0,52.0L94.9,50.7L97.9,48.2L100.5,45.3L102.5,42.2L103.6,39.6L104.6,35.7L104.8,33.4L104.8,30.8L104.6,29.3L104.2,27.1L103.7,26.2L103.7,25.8L101.5,20.9L101.7,20.0L102.9,18.2L104.3,16.9L105.2,16.3L106.0,16.2L106.3,16.3L106.7,17.5L107.6,19.2L108.9,20.6L109.8,21.0L110.8,21.3L112.3,21.3L113.8,21.0L114.9,20.5L116.0,19.7L116.8,18.7L117.4,17.3L117.7,16.2L117.6,13.9L116.9,12.3Z" fill="#000" fill-rule="evenodd"/>
</svg>