<svg xmlns="http://www.w3.org/2000/svg" viewBox="0 0 128 128" width="128" height="128">
  <path d="M10.1,26.1L9.9,26.7L9.8,27.9L9.6,58.8L9.6,59.5L9.5,64.0L9.6,65.7L9.3,81.7L9.4,86.2L9.2,90.3L9.2,102.3L9.6,102.8L10.0,103.0L32.6,103.2L35.2,103.1L35.8,102.7L35.9,82.5L35.9,72.5L36.0,70.0L35.9,63.3L36.1,55.7L36.1,36.0L36.3,32.9L36.3,29.7L36.6,29.5L37.1,30.1L37.8,31.9L37.9,32.4L39.1,35.5L39.7,37.6L39.9,38.0L41.6,42.6L41.7,42.8L41.9,43.7L42.9,46.1L43.7,48.7L44.2,49.7L44.4,50.7L45.6,53.7L45.7,54.2L46.0,54.8L46.3,56.0L47.1,58.1L47.8,60.3L48.4,61.6L48.7,63.0L48.9,63.4L50.4,67.6L50.7,68.3L51.1,69.8L52.0,71.7L52.2,72.7L53.9,77.3L54.6,79.6L55.1,80.5L57.1,86.6L58.1,89.0L58.7,91.2L59.5,93.2L60.1,95.2L60.4,95.5L60.6,96.6L61.9,100.1L62.1,101.0L62.8,102.6L63.4,103.2L64.4,103.3L83.2,103.2L90.4,103.4L97.8,103.3L99.6,103.5L103.9,103.3L118.6,103.4L118.9,103.2L118.9,88.1L118.7,72.0L118.8,47.9L118.7,46.3L118.3,45.9L117.2,45.7L91.8,45.8L91.3,46.1L91.1,46.4L91.2,57.2L91.3,58.2L91.3,69.8L91.6,91.4L91.6,101.7L91.4,102.0L91.2,102.0L90.7,101.2L89.9,99.2L89.1,96.9L88.4,95.2L88.4,94.9L87.6,92.9L87.5,92.4L87.2,91.8L86.2,89.0L85.8,88.1L85.7,87.6L84.1,83.6L83.8,82.3L83.6,81.9L83.0,80.2L82.8,80.1L82.4,78.6L82.1,78.0L81.8,76.8L81.4,76.2L80.9,74.6L80.2,72.9L79.2,69.5L79.0,69.4L78.9,68.9L78.3,67.4L77.2,64.1L76.3,62.0L75.1,58.4L74.4,56.7L73.9,55.0L72.8,52.1L72.0,49.7L71.7,49.2L71.0,46.8L69.4,42.9L69.4,42.3L68.5,40.4L68.0,38.4L67.6,37.6L66.8,35.1L66.2,33.9L64.2,27.8L63.6,26.5L63.5,25.9L63.1,25.6L62.7,25.4L60.7,25.3L54.1,25.3L53.3,25.5L48.1,25.4L44.4,25.6L35.6,25.6L33.4,25.7L25.8,25.7L21.4,25.9L11.4,25.9L10.5,26.0Z M90.9,25.4L90.8,31.8L91.0,35.0L91.0,41.4L91.3,41.8L91.6,42.0L95.9,41.8L105.3,41.7L115.6,41.8L118.0,41.7L118.5,41.4L118.7,39.8L118.5,26.3L118.6,25.4L118.2,24.9L92.8,24.9L91.5,25.0Z" fill="#000" fill-rule="evenodd"/>
</svg>