<svg xmlns="http://www.w3.org/2000/svg" viewBox="0 0 128 128" width="128" height="128">
  <path d="M10.5,98.4L10.5,117.7L10.5,118.5L10.9,118.9L20.1,118.9L33.9,118.4L41.1,118.4L43.1,118.3L62.2,117.9L63.8,117.7L63.8,117.4L61.9,116.5L57.1,114.9L56.8,114.6L54.0,113.7L50.8,112.4L50.2,112.3L49.5,112.0L44.5,110.3L42.2,109.3L40.8,109.0L40.6,108.8L40.3,108.8L39.1,108.2L37.4,107.7L36.9,107.4L35.1,106.9L29.7,104.8L27.7,104.3L26.5,103.7L24.2,102.9L23.5,102.6L19.3,101.2L18.3,100.7L16.4,100.1L16.2,99.9L14.7,99.4L13.3,99.0L12.6,98.6L12.0,98.5L11.4,98.2L10.7,98.2Z M41.9,84.8L41.6,84.5L41.4,84.5L38.8,85.4L35.6,86.8L35.3,86.8L31.9,88.2L31.0,88.7L30.3,88.8L29.9,89.1L27.7,89.9L27.2,90.3L25.3,90.9L24.9,91.2L24.2,91.4L23.3,91.9L23.2,92.1L24.3,92.8L27.3,93.8L29.4,94.8L30.8,95.1L31.3,95.4L37.8,97.7L38.3,98.0L41.4,99.0L41.7,99.0L42.1,98.6Z M91.1,76.5L90.5,76.4L90.2,77.0L88.6,81.6L88.2,82.2L87.5,84.6L86.6,86.3L85.9,88.8L84.1,93.3L83.8,94.4L83.1,96.0L82.8,97.1L82.0,98.9L81.5,100.8L81.1,101.4L80.3,103.9L79.3,106.3L79.2,106.9L78.8,107.5L78.0,110.3L76.2,114.8L75.6,116.9L75.6,117.4L75.8,117.5L79.5,117.6L80.5,117.4L84.0,117.4L86.8,117.2L91.8,117.2L102.0,116.8L103.9,116.9L106.4,116.8L106.7,116.3L106.7,115.7L106.3,115.2L106.1,114.4L105.7,113.8L105.1,112.0L104.7,111.1L104.0,109.0L102.2,104.9L102.0,104.1L99.7,98.5L99.4,97.4L98.6,95.6L98.6,95.3L97.5,93.0L96.9,91.0L96.4,90.2L95.9,88.6L95.6,87.9L93.9,83.5L93.4,82.6L92.9,81.1Z M117.2,43.3L116.4,43.2L114.1,44.0L112.3,44.9L111.9,44.9L109.8,45.8L109.3,45.9L107.7,46.7L105.1,47.6L103.4,48.5L102.5,48.6L100.7,49.5L98.5,50.2L96.9,51.0L95.7,51.4L95.5,51.6L94.6,51.7L94.3,52.0L89.1,54.0L87.1,54.9L84.1,56.0L82.5,56.7L81.2,57.1L78.2,58.4L75.8,59.2L75.5,59.4L73.4,60.3L71.1,61.0L69.4,61.9L67.9,62.4L64.9,63.6L64.5,64.0L64.2,64.5L64.2,74.9L63.2,75.7L61.3,76.4L60.6,76.7L60.3,76.7L59.6,77.2L57.4,77.9L55.6,78.8L55.4,78.8L53.1,79.8L52.5,79.9L52.0,80.2L51.3,80.9L51.2,87.6L51.4,91.9L51.4,99.6L51.6,102.0L51.9,102.4L52.6,102.8L54.9,103.5L55.4,103.8L55.7,103.8L56.7,104.3L57.9,104.5L58.6,104.9L59.4,105.1L59.6,105.3L60.6,105.6L61.1,105.9L61.7,105.9L62.4,106.3L64.1,106.9L64.8,107.4L64.9,108.0L65.0,116.6L65.3,116.8L65.6,116.5L67.4,112.2L67.6,111.3L69.5,106.4L69.8,105.3L70.2,104.5L70.2,104.2L70.6,103.6L70.8,102.8L71.2,101.8L72.5,98.1L72.8,97.5L73.7,95.0L74.0,94.5L74.2,93.4L75.1,91.5L76.2,88.1L77.1,86.1L77.2,85.6L78.1,83.4L78.4,82.3L79.2,80.4L79.2,80.0L79.8,78.8L80.4,76.6L81.3,74.9L81.5,73.9L83.3,69.4L84.7,65.3L85.1,64.5L86.0,64.1L96.6,64.0L97.3,64.1L97.6,64.5L98.5,66.4L98.7,67.2L100.1,70.5L100.3,71.3L100.6,71.9L101.3,74.0L101.6,74.4L102.4,76.8L102.7,77.2L102.8,77.9L105.2,83.7L106.5,87.2L106.8,87.7L108.5,92.3L110.1,96.1L110.5,97.5L111.4,99.5L112.6,102.8L113.0,103.6L113.1,104.2L114.2,106.5L114.6,108.1L114.9,108.5L115.2,109.5L117.5,115.2L117.8,115.1L118.0,114.0L117.8,104.9L117.9,103.6L117.7,100.9L117.8,96.7L117.6,86.1L117.6,73.9L117.5,68.0L117.5,55.1L117.3,45.9L117.4,43.8Z M86.5,29.8L86.6,42.9L86.8,43.4L87.7,43.4L96.5,39.8L102.9,37.5L104.7,36.6L104.8,36.3L104.5,36.1L104.0,36.0L102.8,35.3L100.7,34.6L99.4,34.0L97.8,33.5L95.2,32.5L95.0,32.3L91.7,31.2L90.9,30.7L89.0,30.1L87.3,29.4L86.7,29.4Z M21.5,25.0L21.0,25.1L20.9,25.3L20.9,46.2L21.1,63.3L20.9,63.9L20.6,64.1L11.2,64.2L10.6,64.3L10.4,64.7L10.3,83.5L10.4,84.6L10.6,85.1L11.1,85.1L12.6,84.4L13.5,84.2L16.1,83.2L17.1,82.6L18.4,82.3L21.7,80.9L22.4,80.8L25.3,79.5L26.3,79.2L29.8,77.7L32.3,76.8L33.1,76.4L37.7,74.7L38.3,74.3L40.5,73.5L46.2,71.2L47.5,70.8L49.3,70.0L50.6,69.6L51.4,69.1L52.7,68.7L54.7,67.8L56.5,67.2L57.5,66.7L60.0,65.8L61.3,65.2L61.6,65.2L62.6,64.7L63.1,64.3L63.1,64.0L62.0,63.9L51.2,64.0L50.4,63.8L49.2,62.4L48.9,61.9L47.7,60.5L46.9,59.3L44.9,56.8L42.6,53.4L42.1,53.0L40.1,50.1L39.6,49.6L38.0,47.1L37.7,46.9L37.6,46.7L36.1,44.9L35.3,43.6L33.9,42.0L33.3,40.8L31.9,39.2L30.3,36.7L29.0,35.1L24.5,28.9Z M63.8,20.6L63.4,21.4L63.8,40.7L63.8,50.9L64.0,52.2L64.3,52.4L64.8,52.4L76.8,47.8L77.2,47.4L77.2,28.6L77.1,26.0L76.6,25.3L73.5,24.0L71.7,23.5L71.0,23.1L69.0,22.4L68.3,22.1L67.5,21.9L65.6,21.0L64.4,20.6Z M25.0,10.5L24.8,10.7L24.9,11.2L26.2,13.2L27.5,14.7L28.8,16.8L34.5,24.4L35.6,26.2L40.0,32.0L40.4,32.8L41.3,33.7L42.6,35.7L43.2,36.3L45.5,39.6L46.6,40.9L47.1,41.8L49.2,44.4L52.3,48.8L53.2,49.9L53.6,49.9L53.7,45.2L53.5,42.8L53.1,13.0L52.9,10.7L52.5,10.3L52.0,10.2Z M117.1,29.9L117.0,11.0L116.9,9.8L116.5,9.5L111.6,9.4L99.3,9.7L65.5,10.2L65.4,10.6L65.7,10.9L66.3,11.0L66.8,11.3L67.9,11.6L69.5,12.5L70.4,12.7L73.1,13.9L76.7,15.1L79.1,16.2L80.7,16.7L82.1,17.4L83.0,17.5L83.4,17.8L84.0,17.9L84.7,18.3L85.8,18.6L86.4,19.0L89.4,20.0L92.0,21.1L92.8,21.3L93.2,21.6L94.5,22.0L97.2,23.1L98.5,23.5L98.9,23.7L103.6,25.4L104.2,25.8L105.9,26.3L108.3,27.4L109.6,27.8L109.8,28.0L110.9,28.3L111.5,28.6L112.1,28.7L112.8,29.1L115.1,29.9L116.0,30.3L116.7,30.4Z" fill="#000" fill-rule="evenodd"/>
</svg>