<svg xmlns="http://www.w3.org/2000/svg" viewBox="0 0 128 128" width="128" height="128">
  <path d="M10.1,9.6L9.9,9.9L9.8,11.6L10.2,38.3L10.1,45.3L10.3,51.1L10.3,62.1L10.5,71.2L10.4,73.6L10.5,80.6L10.5,83.6L10.5,89.7L10.7,92.3L10.7,117.4L10.8,118.3L11.3,118.8L20.5,118.9L22.3,118.7L27.7,118.7L29.4,118.4L32.6,115.0L32.7,114.7L34.8,112.1L37.2,109.6L39.3,106.9L40.3,105.9L40.4,105.7L42.0,104.0L43.2,102.4L46.2,99.0L46.5,98.4L48.0,96.9L48.7,95.8L50.5,93.8L51.8,92.0L53.0,90.8L54.1,89.5L55.1,88.5L55.7,88.6L55.9,89.2L56.2,116.7L56.3,117.6L56.9,118.1L58.5,118.2L73.3,117.9L73.9,117.4L74.0,112.2L73.9,105.1L73.7,103.3L73.7,89.8L74.0,88.8L74.7,88.7L82.2,96.7L82.5,97.2L83.9,98.6L85.9,101.0L88.0,103.1L89.9,105.4L95.9,111.8L97.6,113.8L98.0,114.0L100.1,116.5L100.8,117.1L101.5,117.3L108.1,117.1L111.2,117.2L114.2,117.0L117.8,117.0L118.3,116.7L118.5,116.2L118.4,106.2L118.2,102.4L118.3,99.4L118.1,86.4L117.9,82.5L117.9,72.2L117.7,68.3L117.8,63.7L117.5,54.7L117.5,52.2L117.4,47.7L117.4,39.6L117.2,33.9L117.2,24.2L117.0,21.4L117.0,11.9L116.9,10.0L116.6,9.7L116.1,9.5L106.7,9.5L100.2,9.7L99.1,9.6L98.6,9.7L97.0,11.3L92.0,17.5L87.1,23.0L84.4,26.4L83.3,27.4L82.9,28.1L80.2,31.0L79.7,31.7L78.3,33.3L76.6,35.4L74.8,37.6L73.7,38.5L73.4,38.5L73.2,38.3L73.2,37.6L73.0,37.1L72.7,10.9L72.4,9.8L64.0,9.7L62.5,9.5L61.0,9.7L55.3,9.7L54.9,10.3L55.2,38.6L55.0,39.1L54.8,39.3L54.6,39.3L53.6,38.6L50.0,34.8L49.8,34.4L48.2,32.8L45.8,30.0L43.7,27.9L43.5,27.5L41.7,25.8L35.9,19.2L33.8,17.0L30.0,12.4L27.4,9.7L26.3,9.5L16.8,9.5L13.4,9.3L10.5,9.4Z M28.7,38.3L29.3,38.4L30.2,39.3L30.6,39.8L34.3,43.8L37.9,47.9L40.4,50.5L41.1,51.5L46.9,57.7L47.8,58.8L49.8,60.9L51.8,63.2L51.8,63.7L51.1,64.9L49.8,66.1L49.4,66.9L45.2,71.8L42.8,75.0L32.1,87.4L31.9,87.8L29.9,89.9L29.5,90.0L29.1,90.0L28.8,89.2L28.8,75.7L28.4,52.3L28.5,49.2L28.3,48.4L28.3,40.2L28.4,38.9Z M98.6,37.3L98.9,37.4L99.1,37.9L99.0,38.5L99.2,42.4L99.2,48.4L99.4,50.0L99.4,60.2L99.6,65.5L99.5,70.1L99.7,74.8L99.7,83.0L99.9,84.7L99.9,88.2L99.8,88.7L99.5,89.0L99.2,89.0L98.7,88.7L94.7,84.5L93.8,83.3L92.6,82.2L91.8,81.1L88.4,77.5L86.9,75.7L76.8,64.7L76.4,63.7L76.5,63.2L78.0,61.2L82.9,55.5L83.3,54.8L87.0,50.6L88.6,48.5L90.2,46.9L90.7,46.0L93.2,43.3L94.4,41.6L95.9,40.1L97.0,38.6Z" fill="#000" fill-rule="evenodd"/>
</svg>