<svg xmlns="http://www.w3.org/2000/svg" viewBox="0 0 128 128" width="128" height="128">
  <path d="M37.9,89.3L37.5,90.1L37.3,91.1L37.3,91.7L36.9,93.3L36.8,94.3L36.4,95.6L36.3,96.6L35.6,99.7L35.4,101.4L34.8,104.1L34.0,109.0L33.7,110.1L33.1,113.6L32.9,114.3L32.7,115.8L32.3,117.3L32.2,118.2L32.6,118.6L33.6,118.8L41.8,118.8L44.1,118.9L44.7,119.0L47.6,118.9L61.9,119.0L79.6,118.9L95.0,119.1L95.5,119.0L95.9,118.7L95.9,117.8L95.5,115.8L95.4,114.2L94.7,111.5L93.8,105.8L93.3,103.9L93.2,103.0L92.9,101.7L92.9,101.1L92.6,100.1L92.4,98.7L91.8,95.8L91.5,93.9L91.2,92.9L91.1,92.0L90.8,91.1L90.7,90.4L90.4,89.7L90.1,89.3L89.6,89.2L88.4,89.1L58.8,89.1L58.3,89.3L58.0,89.7L57.6,91.3L57.1,94.4L56.8,95.4L56.6,96.7L56.2,98.4L56.2,99.0L55.9,100.2L55.9,101.0L56.6,101.4L63.3,101.3L67.0,101.5L72.6,101.5L73.4,101.8L73.7,102.2L74.0,105.0L74.0,106.1L73.7,106.4L73.2,106.6L70.9,106.7L54.8,106.7L52.8,106.6L51.9,106.4L51.5,106.0L51.6,104.9L52.1,102.7L52.3,100.6L52.6,99.8L52.7,98.3L53.1,97.0L53.4,94.3L54.2,90.3L54.1,89.4L53.9,89.2L53.5,89.1L48.8,89.1L44.8,88.9L38.4,89.1Z M42.5,63.9L41.8,67.1L41.8,68.4L41.4,70.5L41.2,70.8L40.9,72.8L40.6,74.0L40.4,76.1L40.0,77.3L40.0,77.9L38.7,84.7L38.5,86.2L39.0,86.7L54.0,86.9L54.5,86.7L55.0,86.2L55.9,81.1L56.0,79.9L56.2,79.6L56.5,76.3L57.2,73.1L57.9,72.6L59.2,72.6L59.9,72.4L65.5,72.1L68.4,71.8L69.6,71.8L70.1,71.9L70.4,72.2L70.8,74.9L70.7,76.6L70.5,76.9L70.0,77.1L64.4,77.0L61.0,77.1L60.5,77.5L60.3,78.3L59.8,81.6L59.1,84.9L59.0,86.2L59.3,86.6L60.4,86.8L66.0,86.9L67.4,86.7L68.6,86.9L88.8,86.7L89.5,86.6L89.8,86.2L89.8,85.1L89.4,83.4L89.1,81.1L88.9,80.8L88.5,77.9L87.5,73.6L87.4,71.8L86.7,69.1L86.2,65.4L85.8,64.1L85.2,63.5L83.6,63.3L67.6,63.2L64.1,63.4L63.2,63.8L60.4,66.2L58.7,67.3L58.3,67.2L58.3,66.6L58.4,66.3L58.8,64.6L58.8,63.9L58.7,63.6L58.3,63.4L53.5,63.2L43.3,63.2L42.9,63.4Z M80.9,38.2L80.3,37.8L78.4,37.6L66.1,37.8L54.0,37.7L52.7,37.9L49.2,37.8L47.9,38.0L47.7,38.3L47.4,38.8L47.1,40.9L46.9,41.6L46.9,42.2L46.2,45.1L46.2,45.6L46.0,46.3L45.7,48.0L45.6,48.3L45.3,50.4L45.1,51.0L45.1,51.7L44.8,52.7L44.0,57.2L43.6,58.7L43.5,60.5L43.8,60.8L44.5,61.0L48.0,60.9L55.8,61.0L58.3,61.0L59.0,60.8L59.4,60.2L59.6,58.7L59.8,58.3L60.5,53.5L61.4,48.8L61.9,48.2L65.5,47.9L67.1,48.0L67.7,48.3L67.9,48.7L68.4,51.6L68.4,53.1L68.8,55.7L68.8,57.1L69.1,58.3L69.1,59.1L69.3,60.5L69.7,61.0L71.0,61.1L81.6,61.1L84.6,61.0L84.9,60.6L84.9,59.6L84.5,58.0L84.0,54.4L83.6,53.1L83.4,51.4L82.9,49.3L81.9,43.3L81.8,43.0L81.6,41.5L81.2,39.6L81.2,39.1Z M29.2,10.0L29.2,10.6L29.7,12.3L30.0,12.9L31.4,16.9L31.8,17.5L32.1,18.5L33.3,21.6L33.3,21.8L34.5,24.9L34.9,25.7L35.6,27.7L36.3,29.2L36.9,31.3L37.7,33.4L38.4,34.9L38.7,35.3L39.6,35.5L46.8,35.3L50.9,35.4L53.5,35.3L67.4,35.3L71.7,35.1L84.6,35.2L86.1,35.0L89.3,35.1L90.0,34.9L90.3,34.6L91.0,33.0L92.2,29.2L92.3,29.1L92.3,28.8L93.2,26.8L93.5,25.7L94.2,24.1L94.4,23.4L95.2,21.4L96.9,16.4L97.7,14.6L98.1,13.0L99.1,10.3L99.1,9.6L98.8,9.3L97.3,9.1L79.7,9.1L79.1,9.3L78.8,9.7L78.6,10.8L78.6,18.3L78.4,23.5L78.2,23.9L77.6,24.0L74.6,24.2L73.6,24.0L71.4,24.0L71.0,23.9L70.7,23.5L71.4,19.2L71.8,17.7L71.8,16.6L72.0,16.4L72.3,14.4L72.5,13.7L72.7,12.2L72.9,11.6L73.1,10.1L73.1,9.7L72.7,9.4L71.9,9.1L61.3,9.1L60.3,9.3L55.7,9.2L55.1,9.7L55.1,10.8L55.8,14.3L56.0,15.9L56.4,17.5L56.4,18.2L56.6,19.0L56.7,20.0L57.0,21.3L57.2,23.6L56.8,24.1L56.5,24.2L50.8,24.2L50.2,24.0L50.1,23.9L49.9,23.2L49.9,11.2L49.7,10.0L49.1,9.3L47.4,9.2L30.5,9.4L29.6,9.6L29.3,9.7Z" fill="#000" fill-rule="evenodd"/>
</svg>