<svg xmlns="http://www.w3.org/2000/svg" viewBox="0 0 128 128" width="128" height="128">
  <path d="M71.3,10.9L70.0,10.3L67.2,9.5L64.9,9.2L63.5,9.2L63.0,9.4L61.7,9.5L59.8,10.1L58.7,10.3L56.5,11.1L56.1,11.4L55.7,11.5L54.9,11.9L54.3,12.5L53.4,13.0L51.8,14.6L50.0,16.0L49.0,17.0L47.8,18.8L47.3,19.3L46.8,20.1L46.7,20.5L44.5,23.6L44.3,24.1L43.8,25.0L43.4,25.4L42.9,26.6L41.4,29.3L41.3,29.8L40.9,30.7L40.6,31.7L40.2,32.4L38.2,38.6L38.2,39.4L37.7,41.0L36.8,46.0L36.6,47.8L36.4,55.2L36.8,57.5L37.0,58.4L37.1,59.7L37.5,61.2L37.5,61.6L37.9,62.4L38.1,63.1L38.4,63.8L38.6,64.5L38.8,64.9L39.1,65.8L40.3,68.3L41.8,70.5L42.1,71.3L44.4,74.4L44.6,74.9L45.6,75.9L46.7,77.5L47.1,78.4L47.3,80.3L47.6,81.2L47.7,83.1L47.6,97.8L47.5,98.0L47.1,98.0L43.0,93.5L42.1,92.3L39.0,88.7L38.6,88.0L34.8,83.7L31.8,79.8L31.0,79.0L30.4,78.9L20.5,78.9L19.3,79.0L19.1,79.5L19.2,94.4L19.1,99.0L19.0,118.3L19.1,118.8L19.6,119.1L30.3,119.1L30.7,119.0L30.9,118.8L31.1,118.4L31.2,115.0L31.1,99.2L31.4,98.9L32.7,100.4L32.8,100.8L34.3,102.4L36.4,105.1L37.3,106.1L38.2,107.3L40.9,110.3L41.9,111.8L42.2,111.9L43.0,113.0L43.5,113.4L46.5,117.0L46.7,117.3L48.0,118.7L48.7,119.0L59.0,118.9L59.2,118.8L59.5,118.4L59.7,109.6L59.7,75.8L59.5,74.1L59.0,72.5L58.2,71.1L57.6,70.3L54.1,66.9L52.3,64.5L50.9,62.0L49.6,58.5L49.4,57.2L49.0,56.0L48.6,53.5L48.6,52.0L49.2,46.8L49.5,45.9L49.5,44.9L49.9,44.1L50.0,42.4L50.9,40.3L51.7,37.5L52.2,36.4L52.6,35.9L52.7,35.0L53.3,33.6L53.8,33.0L54.4,31.6L55.4,30.0L55.5,29.6L57.9,26.3L59.9,23.8L60.6,23.2L60.9,23.1L62.3,22.2L64.0,21.8L64.8,21.8L65.8,22.0L67.3,22.6L68.3,23.2L69.8,24.7L70.3,25.5L71.4,26.9L73.1,29.6L75.5,34.2L76.6,37.0L76.8,38.0L77.2,38.7L77.6,40.8L78.0,41.7L78.0,42.5L78.5,44.1L78.6,45.9L79.0,48.6L79.0,55.0L78.4,57.9L78.2,58.1L78.0,59.5L77.6,60.1L77.5,60.8L76.7,62.4L76.4,63.1L74.7,65.5L74.6,65.8L73.2,67.6L71.0,69.9L70.3,70.8L69.4,72.6L69.0,74.1L68.8,77.6L68.8,118.0L69.2,118.5L69.4,118.6L78.8,118.6L79.9,118.5L80.3,118.4L80.4,118.0L80.6,106.7L80.8,106.1L81.2,105.5L82.6,104.8L83.2,105.2L83.7,105.9L84.3,106.5L86.5,109.5L89.9,113.8L90.3,114.3L91.2,115.2L91.6,115.9L92.8,117.5L92.8,117.7L93.4,118.2L96.6,118.4L107.7,118.4L108.2,118.2L108.2,117.8L107.6,117.0L99.8,107.5L99.2,106.8L99.1,106.6L97.5,104.7L96.9,104.0L96.8,103.8L95.0,101.8L93.2,99.5L92.5,98.9L91.9,98.0L91.0,97.1L90.7,96.7L90.7,96.4L91.0,95.8L92.1,94.6L93.5,93.5L95.7,91.2L98.6,88.8L101.4,86.2L102.1,85.7L109.0,79.3L109.2,79.0L109.2,78.7L108.8,78.5L102.7,78.2L93.4,78.2L84.9,85.9L81.7,89.1L81.2,89.5L80.8,89.5L80.6,89.2L80.5,88.3L80.8,79.4L81.0,78.2L82.3,75.8L83.5,74.4L84.4,73.0L85.3,72.0L88.0,67.6L88.7,66.3L89.8,63.5L90.1,62.2L90.4,61.4L90.5,60.7L90.8,59.8L90.9,58.6L91.4,56.7L91.7,53.2L91.7,47.5L91.4,45.3L91.3,43.7L90.7,41.4L90.7,40.5L90.5,40.3L90.5,39.8L90.1,38.5L89.9,37.3L88.9,33.9L87.8,31.2L87.6,30.2L87.3,29.9L86.7,28.2L84.0,23.4L81.8,20.2L81.8,20.0L79.6,17.2L77.3,14.9L74.0,12.3Z" fill="#000" fill-rule="evenodd"/>
</svg>