<svg xmlns="http://www.w3.org/2000/svg" viewBox="0 0 128 128" width="128" height="128">
  <path d="M110.3,54.5L110.0,54.8L109.8,55.2L109.8,57.0L109.8,68.5L109.9,71.9L110.1,72.1L110.4,72.3L116.0,72.5L118.5,72.4L118.9,72.1L119.1,71.4L119.1,67.6L118.9,66.7L119.1,63.4L119.0,55.1L118.5,54.6L116.3,54.4L112.3,54.4Z M110.4,22.3L110.1,22.4L109.9,22.9L109.9,39.9L110.3,40.2L111.9,40.3L118.7,40.2L118.9,40.0L119.1,39.5L119.1,28.3L118.9,22.8L118.5,22.3L118.2,22.2Z M96.7,22.3L96.4,22.6L96.3,23.0L96.4,39.8L96.6,40.1L97.4,40.2L104.8,40.2L105.3,39.7L105.4,29.3L105.2,22.9L104.6,22.3Z M17.7,26.4L15.6,28.3L13.9,30.2L12.9,31.5L11.5,33.8L11.0,35.2L10.5,36.2L10.3,37.0L9.8,38.3L9.2,42.3L9.2,54.6L9.3,65.7L9.3,66.9L9.4,78.3L9.3,81.9L9.5,87.3L9.4,89.9L9.6,92.8L9.5,99.4L9.6,103.7L9.8,105.5L10.3,105.8L12.2,105.9L60.0,105.8L72.1,106.1L75.8,105.6L78.6,104.7L79.3,104.2L79.8,104.2L82.9,102.3L84.9,100.7L86.8,98.7L89.2,95.2L90.1,93.5L90.1,93.0L90.7,91.6L91.4,89.1L91.6,87.5L91.7,87.0L91.8,81.0L91.6,76.6L91.5,65.5L91.5,23.5L91.4,22.8L91.0,22.3L30.0,22.2L27.0,22.5L23.8,23.3L22.8,23.8L21.9,24.0L21.1,24.5L20.6,24.6Z M29.3,41.6L30.9,40.6L32.0,40.3L36.5,40.1L57.3,40.1L72.6,40.2L72.9,40.3L73.3,40.6L73.4,41.1L73.6,81.0L73.4,82.5L72.9,84.0L72.3,85.0L71.1,86.2L70.0,86.9L69.0,87.2L66.0,87.4L49.7,87.3L29.1,87.4L27.7,87.4L27.3,87.1L27.0,85.4L26.9,78.0L27.0,73.1L26.7,46.2L27.0,44.8L27.6,43.5L28.2,42.6Z" fill="#000" fill-rule="evenodd"/>
</svg>