<svg xmlns="http://www.w3.org/2000/svg" viewBox="0 0 128 128" width="128" height="128">
  <path d="M9.3,29.1L9.2,39.2L9.4,46.0L9.3,50.3L9.5,67.1L9.4,90.2L9.5,99.1L9.8,99.6L29.9,99.6L30.3,99.3L30.5,82.5L30.3,81.8L30.3,75.6L30.5,73.7L30.8,73.4L31.3,74.1L32.0,76.0L32.2,76.4L32.4,77.2L33.4,79.1L33.4,79.5L34.3,81.2L34.7,81.6L36.0,84.0L38.4,87.2L40.3,89.2L42.6,91.4L45.7,93.8L47.9,95.2L52.3,97.2L55.2,98.2L57.3,98.8L58.6,98.9L59.4,99.2L62.8,99.6L65.3,99.6L69.1,99.3L72.0,98.8L73.2,98.4L73.6,98.4L77.0,97.4L79.0,96.6L82.2,94.8L83.0,94.2L83.6,93.9L85.4,92.6L86.8,91.3L88.0,90.4L89.9,88.4L90.0,88.2L90.7,87.5L92.6,85.0L93.6,83.3L93.9,82.9L95.8,79.4L96.5,77.3L96.9,76.6L97.0,76.0L97.4,75.0L97.8,74.6L98.0,74.6L98.3,75.2L98.3,98.8L98.6,99.3L99.0,99.5L99.9,99.6L116.4,99.6L118.1,99.5L118.9,99.3L119.0,98.9L119.0,91.8L118.9,90.4L118.9,83.9L118.8,80.2L118.9,67.9L118.7,56.0L118.8,53.6L118.6,47.1L118.7,45.1L118.5,42.0L118.5,30.2L118.1,29.6L116.8,29.5L98.6,29.3L98.1,29.7L98.2,51.9L98.2,54.0L97.9,54.3L97.7,54.3L97.5,54.0L97.3,53.5L96.3,50.6L94.0,46.0L93.7,45.7L93.4,45.1L91.9,43.0L91.7,42.6L90.3,41.1L90.2,40.7L87.6,38.1L84.5,35.5L82.9,34.5L82.3,34.2L81.8,33.7L81.3,33.6L80.8,33.2L79.1,32.3L78.7,32.2L77.9,31.7L76.1,30.9L73.5,30.1L71.7,29.6L71.1,29.6L69.5,29.2L66.9,28.8L61.5,28.7L60.8,28.9L58.4,29.1L57.5,29.4L54.8,30.0L50.6,31.5L48.0,32.8L47.8,33.1L47.1,33.3L46.6,33.7L45.3,34.5L42.9,36.2L42.2,37.0L41.6,37.3L39.2,39.6L37.9,41.1L37.7,41.5L35.4,44.6L35.3,44.9L34.8,45.5L33.8,47.6L33.4,48.0L32.5,50.0L32.2,51.1L31.8,51.8L31.6,53.0L31.3,53.3L31.2,53.9L30.7,54.3L30.4,53.9L30.4,51.7L30.3,51.1L30.3,47.7L30.2,28.9L29.6,28.6L25.6,28.6L22.4,28.7L10.1,28.7L9.7,28.7Z M62.5,48.6L65.4,48.5L67.6,48.7L70.4,49.6L73.5,51.4L76.1,53.8L77.9,56.3L79.0,58.7L79.5,60.3L79.9,62.2L80.0,65.8L79.5,68.5L78.6,71.0L77.0,73.7L75.6,75.4L74.3,76.5L72.4,77.8L71.6,78.1L71.3,78.4L71.1,78.4L68.9,79.3L66.4,79.8L63.3,79.8L60.6,79.2L57.4,77.9L54.5,75.8L52.7,73.9L51.1,71.6L49.7,68.0L49.2,65.6L49.2,62.8L49.7,59.9L50.9,56.9L51.4,56.1L51.5,55.6L52.8,54.0L55.0,51.8L56.6,50.7L58.8,49.5L60.3,49.0L61.5,48.9Z" fill="#000" fill-rule="evenodd"/>
</svg>