<svg xmlns="http://www.w3.org/2000/svg" viewBox="0 0 128 128" width="128" height="128">
  <path d="M95.9,54.4L94.7,52.7L92.8,50.7L89.5,48.1L85.0,45.2L81.4,43.5L80.7,43.4L80.2,43.0L78.2,42.4L78.0,42.3L76.6,42.0L75.7,41.6L74.5,41.4L74.3,41.2L73.4,41.1L73.1,41.0L71.4,40.7L71.0,40.6L69.5,40.3L66.7,40.3L65.5,40.1L60.3,40.3L57.1,40.7L56.4,41.0L55.2,41.1L54.4,41.5L53.6,41.5L52.8,41.9L50.4,42.5L48.6,43.1L47.0,43.9L46.7,43.9L46.2,44.2L45.8,44.3L43.9,45.3L43.0,45.9L42.1,46.2L41.2,47.0L40.8,47.1L37.8,49.2L36.4,50.5L33.5,53.4L32.5,55.0L32.2,55.3L32.1,55.8L31.7,56.1L31.3,57.1L31.2,57.5L30.4,59.1L30.3,59.9L30.0,60.7L29.5,63.8L29.5,66.2L29.9,68.8L30.9,72.0L32.3,74.4L33.7,76.3L35.7,78.2L38.4,80.3L41.6,82.3L42.3,82.6L45.5,84.3L48.6,85.6L49.7,85.8L51.7,86.5L53.1,86.8L53.2,86.9L54.8,87.2L55.0,87.3L55.6,87.3L56.3,87.6L60.3,88.1L66.4,88.1L68.9,87.7L70.3,87.7L71.3,87.3L72.4,87.3L76.0,86.3L79.1,85.2L80.0,85.0L81.2,84.3L81.8,84.2L82.3,83.8L83.6,83.4L85.0,82.6L85.4,82.4L85.7,82.1L86.4,81.8L89.0,80.2L91.6,78.1L94.6,75.3L94.8,74.8L95.9,73.6L96.4,72.3L97.3,70.8L98.0,68.9L98.7,65.0L98.6,61.8L98.1,59.3L97.9,58.8L97.7,57.9Z M61.5,42.0L65.4,41.9L68.4,42.3L68.6,42.4L70.0,42.7L70.5,42.9L72.4,43.4L73.3,44.0L73.8,44.1L74.0,44.3L75.3,44.9L78.3,47.0L79.9,48.6L81.4,50.4L82.9,52.6L83.2,52.9L84.1,54.6L84.7,56.6L85.1,57.4L85.4,59.0L85.6,59.2L86.1,62.7L86.1,64.9L85.6,68.2L85.3,68.7L85.2,70.0L84.9,70.9L83.4,74.4L82.9,75.2L82.8,75.5L81.7,77.1L80.5,78.6L77.7,81.4L76.4,82.3L76.3,82.3L73.6,84.1L70.1,85.4L67.6,86.1L66.9,86.1L65.8,86.3L61.9,86.3L60.3,86.1L56.8,85.3L55.5,84.8L54.8,84.4L54.4,84.3L52.7,83.4L50.1,81.7L47.7,79.4L46.6,78.0L45.6,76.7L44.2,74.4L43.6,72.8L43.4,72.5L42.7,70.6L42.2,68.2L41.9,66.5L41.9,63.4L42.0,61.5L42.3,59.9L43.0,57.1L43.3,56.5L44.0,54.5L44.7,53.5L45.7,51.7L46.7,50.3L49.3,47.5L49.9,47.2L51.5,45.8L53.1,44.8L54.6,44.0L57.4,42.9L58.3,42.7L59.2,42.4Z M21.2,39.9L19.5,41.5L19.2,41.7L17.2,43.6L17.0,44.0L16.0,45.0L14.5,47.1L12.8,49.8L11.8,51.8L11.7,52.3L11.4,52.8L11.3,53.2L11.0,53.8L10.8,54.9L10.4,55.7L9.5,59.5L9.2,62.6L9.3,67.1L9.7,70.1L10.3,72.8L10.9,74.3L10.9,74.8L12.5,78.4L14.7,82.1L16.8,84.7L20.0,87.8L22.1,89.4L22.9,89.8L24.4,90.9L24.7,91.0L25.4,91.6L27.8,92.8L28.5,93.3L29.0,93.5L30.0,94.0L30.2,94.2L32.6,95.4L33.9,95.9L35.0,96.5L37.1,97.2L39.6,98.3L41.4,98.9L41.7,98.9L42.3,99.2L43.3,99.4L44.0,99.7L44.7,99.8L47.0,100.5L49.9,101.1L53.2,101.7L54.4,101.8L55.8,102.1L62.0,102.5L67.4,102.5L68.3,102.3L69.9,102.3L72.8,101.9L73.8,101.9L74.8,101.8L75.4,101.5L78.7,101.0L81.8,100.2L82.7,100.2L83.8,99.8L85.4,99.4L89.9,97.9L91.0,97.3L92.3,96.9L95.3,95.5L95.9,95.3L101.0,92.5L103.8,90.8L106.1,89.2L108.6,87.2L111.5,84.3L113.2,82.1L113.7,81.5L114.3,80.4L114.9,79.6L116.3,77.1L116.4,76.4L117.2,74.8L117.9,72.6L118.2,71.2L118.5,70.7L118.6,69.3L118.9,67.9L119.0,66.1L119.1,65.4L119.0,60.4L118.2,56.8L117.6,54.4L117.3,53.8L117.3,53.5L116.7,52.2L116.4,51.4L114.9,48.5L113.5,46.3L113.3,46.2L111.8,44.1L110.1,42.3L106.2,38.8L101.9,35.9L99.3,34.5L99.1,34.3L98.5,34.1L97.3,33.4L95.5,32.7L93.2,31.6L92.6,31.4L91.0,30.7L90.3,30.5L88.5,29.8L86.1,29.2L85.4,28.9L85.1,28.9L82.5,28.0L81.6,27.9L81.4,27.8L80.0,27.4L78.9,27.4L78.1,27.1L76.5,27.0L74.4,26.6L73.5,26.6L70.8,26.2L69.4,26.2L68.3,25.9L66.7,25.9L65.6,25.8L63.7,25.8L57.3,26.2L54.1,26.8L53.3,26.8L51.7,27.2L50.5,27.3L48.9,27.6L48.0,27.9L45.0,28.6L39.6,30.3L38.8,30.7L38.6,30.7L38.3,30.9L37.8,31.0L37.2,31.4L36.7,31.5L36.0,31.9L34.4,32.4L33.8,32.8L33.4,32.9L32.0,33.6L27.7,35.6L26.3,36.4L26.0,36.8L24.5,37.6L22.4,39.1Z M62.9,28.0L67.3,28.1L70.5,28.5L74.1,29.3L74.9,29.7L76.1,29.9L77.4,30.5L77.9,30.5L82.6,32.9L85.3,34.8L88.3,37.2L90.8,39.7L93.7,43.3L95.6,46.4L96.4,48.2L97.0,49.2L98.5,53.2L99.0,55.3L99.4,56.4L99.8,59.8L99.8,61.1L100.1,63.4L99.8,68.1L99.4,70.9L98.7,74.0L97.1,78.4L94.9,82.6L93.0,85.5L91.0,88.0L86.9,92.0L83.7,94.4L80.0,96.6L79.6,96.7L78.3,97.4L77.6,97.5L77.1,97.9L76.7,97.9L76.2,98.3L75.5,98.4L75.2,98.7L73.9,98.9L72.0,99.5L69.6,100.0L66.2,100.4L61.5,100.4L60.7,100.2L59.1,100.2L56.8,99.8L55.8,99.4L54.9,99.4L54.2,99.1L52.4,98.7L48.0,96.7L45.1,95.1L41.9,92.9L40.0,91.3L37.0,88.3L35.0,85.8L32.8,82.3L31.2,79.1L30.9,78.3L30.1,76.7L29.5,74.3L29.2,73.6L29.0,72.3L28.7,71.3L28.2,66.8L28.2,63.1L28.5,59.1L29.1,55.7L29.3,55.2L29.4,54.6L29.8,53.6L30.2,52.1L30.7,51.3L31.3,49.5L31.7,48.9L31.7,48.6L33.3,45.8L35.1,43.0L37.7,39.9L37.8,39.7L40.9,36.8L43.5,34.7L46.8,32.6L49.6,31.2L53.6,29.6L54.6,29.4L55.5,29.1L56.0,29.1L56.8,28.8L58.1,28.6L59.1,28.3Z" fill="#000" fill-rule="evenodd"/>
</svg>