<svg xmlns="http://www.w3.org/2000/svg" viewBox="0 0 128 128" width="128" height="128">
  <path d="M78.4,45.8L78.2,45.9L78.1,46.5L78.2,49.4L78.0,51.7L78.0,56.1L78.2,58.0L78.5,58.2L79.3,58.5L87.0,58.6L89.3,58.5L90.2,58.8L91.0,59.6L91.1,60.7L91.0,82.4L91.3,82.9L91.7,83.2L96.3,83.4L102.7,83.4L104.2,83.4L104.8,83.1L105.0,82.9L105.1,82.6L105.2,79.9L105.2,60.1L105.4,59.3L105.7,59.0L106.0,58.8L118.4,59.0L118.7,58.8L119.0,58.5L119.2,58.0L119.2,50.2L119.1,47.1L118.9,46.6L118.5,46.3L110.1,46.0L107.5,46.1L105.1,45.9L96.4,45.9L79.5,45.7Z M60.5,45.7L59.4,46.5L58.1,48.1L57.3,50.0L57.0,51.4L57.0,52.6L57.3,54.5L58.1,56.9L60.1,60.4L60.1,61.0L59.7,61.4L58.1,62.4L56.8,63.3L54.1,66.1L53.8,66.5L53.0,67.5L52.9,67.9L52.6,68.3L51.7,70.1L51.4,71.2L51.1,73.2L51.2,75.3L51.8,77.5L52.8,79.4L53.8,80.7L54.6,81.6L56.1,82.6L56.5,82.8L57.6,83.4L60.9,84.3L63.4,84.4L65.2,84.2L67.8,83.6L70.2,82.5L71.5,81.6L73.4,79.9L73.7,79.7L74.2,79.7L74.8,80.0L77.1,82.2L79.2,83.5L80.9,84.0L81.6,84.1L82.0,84.0L82.2,83.7L82.3,83.3L82.3,81.7L82.2,81.3L81.7,81.0L80.8,80.7L79.8,80.2L78.4,79.1L76.3,76.7L76.1,76.2L76.2,75.4L77.0,73.5L77.7,71.4L77.9,70.0L77.9,69.4L78.2,68.3L78.2,67.6L78.0,67.2L77.5,67.0L76.2,67.0L75.6,67.2L75.4,67.6L75.1,70.1L74.4,72.7L74.2,73.0L73.6,73.0L72.8,72.4L72.7,72.2L71.6,70.9L71.4,70.5L69.4,68.0L68.6,66.6L66.7,64.2L66.2,63.3L65.9,63.0L65.1,61.5L65.1,61.2L65.6,60.7L66.9,59.7L69.1,57.7L70.2,56.3L71.0,55.0L71.7,53.1L71.9,51.7L71.8,49.4L71.5,48.6L71.1,47.8L70.3,46.6L69.4,45.9L68.8,45.7L68.5,45.4L66.8,44.8L63.2,44.8L61.6,45.2Z M61.3,63.3L61.9,63.3L62.3,63.5L63.7,65.0L68.9,72.5L71.1,75.3L72.0,76.7L72.0,77.4L71.8,77.9L70.1,79.6L68.1,80.7L65.7,81.5L63.4,81.7L61.3,81.5L59.8,81.0L58.4,80.2L57.1,79.2L56.0,77.9L55.2,76.8L54.6,75.3L54.4,73.3L54.4,72.2L54.8,70.5L55.5,68.9L56.3,67.6L58.0,65.7L59.4,64.5Z M64.8,47.3L65.8,47.5L66.7,47.8L67.4,48.3L68.2,49.1L68.6,49.6L68.9,50.5L69.1,51.3L69.1,52.4L68.9,53.1L68.5,54.2L67.9,55.3L67.2,56.3L65.6,57.6L64.4,58.4L64.0,58.5L63.3,58.5L63.0,58.4L62.4,57.8L61.9,57.0L61.7,56.6L61.1,55.8L60.8,55.0L60.6,54.8L60.5,54.3L60.3,53.7L59.9,52.0L60.0,50.6L60.3,49.5L60.6,49.2L60.9,48.6L61.6,48.0L62.2,47.6L63.5,47.3Z M27.9,43.8L26.2,44.0L25.2,44.3L24.1,44.4L21.7,45.2L21.0,45.7L20.1,45.9L17.8,47.3L16.0,48.7L14.4,50.2L13.0,51.9L11.9,53.5L11.0,55.2L10.0,57.7L9.5,59.6L9.4,60.7L9.1,61.7L9.1,65.1L9.3,66.9L9.7,68.4L9.8,69.2L10.7,71.6L10.7,71.9L11.5,73.3L11.6,73.7L12.3,74.6L12.9,75.7L14.3,77.3L14.5,77.5L15.5,78.6L17.2,79.9L18.8,81.0L20.3,81.8L20.9,82.0L21.1,82.2L21.7,82.3L22.3,82.7L22.8,82.8L24.7,83.4L25.7,83.6L26.5,83.6L27.8,83.8L30.4,83.8L32.4,83.5L34.4,83.1L37.2,82.1L39.7,80.7L40.9,79.7L41.3,79.5L42.5,78.3L43.0,78.0L44.3,76.6L46.0,74.3L46.9,72.4L47.3,71.4L47.6,70.8L48.2,69.0L48.5,67.3L48.6,66.3L48.7,65.7L48.8,62.7L48.5,59.8L48.2,58.7L47.7,57.4L47.5,56.6L46.3,53.9L45.7,53.0L45.6,52.7L44.5,51.2L42.2,48.9L40.7,47.5L39.1,46.6L38.6,46.5L38.3,46.2L35.5,44.9L33.5,44.3L32.7,44.3L31.6,44.0Z" fill="#000" fill-rule="evenodd"/>
</svg>