<svg xmlns="http://www.w3.org/2000/svg" viewBox="0 0 128 128" width="128" height="128">
  <path d="M95.6,14.5L95.5,14.5L95.2,14.2L93.9,13.4L93.8,13.3L93.5,13.2L93.2,13.0L91.9,12.3L91.8,12.2L91.4,12.0L91.1,11.8L90.1,11.3L90.0,11.3L89.3,10.9L88.0,10.4L87.6,10.2L86.9,10.0L86.8,9.8L85.4,9.4L85.1,9.3L84.9,9.2L84.1,9.1L81.7,8.6L81.2,8.6L80.8,8.5L80.3,8.5L79.9,8.4L79.5,8.4L79.3,8.4L78.6,8.4L77.9,8.3L77.2,8.3L76.1,8.2L73.6,8.2L72.0,8.2L59.0,8.2L48.2,8.2L42.8,8.2L42.1,8.3L41.0,8.2L40.6,8.3L36.4,8.3L34.8,8.3L31.9,8.3L30.3,8.3L28.8,8.3L26.6,8.4L19.6,8.4L18.6,8.4L18.5,8.4L18.4,8.5L18.4,9.1L18.4,9.7L18.3,11.3L18.2,14.6L18.3,15.0L18.2,16.9L18.2,38.5L18.1,40.9L18.1,53.2L18.2,55.0L18.2,89.2L18.3,97.5L18.2,98.3L18.3,99.3L18.3,100.1L18.3,100.4L18.3,105.3L18.4,107.2L18.2,112.3L18.3,115.3L18.2,118.7L18.2,119.6L18.3,119.7L20.9,119.8L24.1,119.8L25.1,119.8L27.6,119.8L28.6,119.8L39.0,119.9L44.6,119.9L46.1,119.9L48.4,119.9L55.2,119.9L55.8,119.8L55.9,119.8L55.9,117.3L55.9,116.6L55.9,113.9L56.0,113.6L56.0,108.7L56.0,108.0L56.0,106.1L56.0,105.6L56.0,104.8L55.9,103.0L55.9,98.9L55.9,98.6L55.9,97.5L55.9,96.0L56.0,92.9L55.9,82.5L56.0,80.6L56.0,77.9L56.1,77.8L56.4,77.7L58.9,77.7L59.9,77.8L62.5,77.8L63.0,77.8L63.9,77.8L65.0,77.8L65.3,77.9L66.4,77.8L68.0,77.9L70.2,77.9L70.7,77.8L73.9,77.8L74.3,77.8L75.8,77.8L76.0,77.7L77.1,77.6L77.3,77.5L77.7,77.5L78.1,77.5L78.4,77.5L78.6,77.4L80.1,77.3L80.4,77.2L81.1,77.1L81.9,76.9L82.5,76.8L83.0,76.6L83.2,76.6L83.5,76.5L84.4,76.4L85.1,76.1L85.3,76.1L85.9,75.9L86.2,75.8L86.3,75.7L86.7,75.6L86.8,75.5L87.7,75.2L88.2,75.0L88.5,74.9L89.1,74.6L89.9,74.3L90.0,74.2L91.3,73.6L91.3,73.5L92.6,72.8L92.8,72.6L93.0,72.6L93.1,72.5L93.4,72.3L93.6,72.2L93.7,72.1L94.1,71.8L94.3,71.7L94.4,71.6L94.5,71.6L95.1,71.2L95.6,70.8L97.3,69.6L99.0,68.0L101.6,65.4L103.1,63.4L104.3,61.8L104.4,61.5L104.6,61.3L104.9,60.8L105.0,60.5L105.2,60.2L105.6,59.6L106.8,57.0L107.0,56.5L107.1,56.4L107.3,56.1L107.3,55.9L107.5,55.5L107.7,54.8L107.8,54.6L107.9,54.2L108.1,53.7L108.2,53.4L108.6,52.3L108.6,51.9L108.7,51.7L108.8,51.3L108.9,51.1L108.9,50.9L109.0,50.6L109.0,50.5L109.2,50.0L109.2,49.5L109.4,49.2L109.4,49.0L109.5,48.3L109.5,47.7L109.7,47.0L109.7,46.6L109.8,45.7L109.8,44.9L109.9,44.5L109.9,41.6L109.9,40.6L109.8,40.3L109.9,39.8L109.7,38.6L109.6,38.1L109.6,37.7L109.5,37.6L109.5,37.1L109.5,36.9L109.4,36.1L109.1,34.8L109.0,34.7L109.0,34.3L108.9,34.0L108.6,33.0L107.5,29.9L107.5,29.8L107.0,28.6L106.6,27.9L106.2,26.9L105.9,26.3L105.7,25.9L105.4,25.5L105.3,25.3L104.8,24.5L104.8,24.3L104.4,23.8L104.4,23.7L102.9,21.6L102.4,21.0L102.0,20.6L101.8,20.3L101.3,19.8L101.2,19.6L101.0,19.4L100.9,19.2L98.9,17.2L98.3,16.7L97.3,15.9L97.1,15.7L96.4,15.1Z M68.5,76.0L68.6,76.0L68.6,76.1L68.6,76.1L68.5,76.1L68.5,76.0Z M53.9,16.1L56.1,16.1L56.6,16.2L57.2,16.2L57.6,16.3L58.5,16.3L59.3,16.5L59.9,16.5L60.0,16.6L60.8,16.7L61.2,16.8L61.6,16.9L61.9,17.0L62.2,17.0L62.4,17.2L62.7,17.2L62.9,17.3L63.1,17.3L64.0,17.6L64.2,17.7L64.4,17.8L64.7,17.9L65.2,18.1L65.4,18.2L65.9,18.4L66.4,18.6L66.6,18.7L68.6,19.8L69.2,20.2L69.5,20.3L70.4,21.0L70.5,21.0L70.6,21.1L71.3,21.6L72.2,22.3L74.1,24.1L74.2,24.2L75.6,25.7L77.0,27.5L77.6,28.4L77.7,28.7L77.8,28.9L77.9,29.1L78.2,29.6L78.5,30.2L78.7,30.7L78.7,30.8L79.0,31.2L79.1,31.6L79.6,32.5L79.9,33.5L80.2,34.3L80.5,35.3L80.5,35.5L80.4,35.5L80.0,34.9L79.8,34.7L79.7,34.5L79.0,33.6L77.5,32.1L76.7,31.4L75.9,30.8L75.0,30.2L74.5,30.0L74.0,29.8L73.8,29.7L72.2,29.1L71.0,28.8L70.5,28.8L70.1,28.6L69.3,28.6L68.2,28.6L66.4,28.7L66.2,28.7L65.8,28.8L65.3,28.9L64.9,28.9L64.6,29.1L64.2,29.1L64.0,29.2L63.3,29.4L63.1,29.5L63.0,29.5L62.2,29.8L62.1,29.9L61.8,30.0L61.2,30.3L60.8,30.6L60.5,30.7L59.3,31.6L58.5,32.4L58.4,32.5L58.0,32.9L57.8,33.2L57.7,33.3L57.2,33.9L56.9,34.3L56.3,35.0L56.1,35.5L55.7,36.2L55.0,37.7L54.8,38.4L54.6,39.1L54.4,40.0L54.2,41.2L54.3,43.4L54.4,44.7L54.5,45.0L54.7,46.0L54.9,46.6L55.1,47.3L55.2,47.4L55.3,47.7L55.7,48.5L55.7,48.7L56.2,49.6L56.3,49.8L56.4,49.9L56.5,50.2L57.2,51.2L58.1,52.3L59.5,53.6L59.7,53.7L59.9,53.9L60.5,54.3L60.6,54.4L62.1,55.1L62.2,55.1L62.7,55.3L63.4,55.6L63.5,55.7L63.8,55.8L64.3,55.9L64.5,56.0L65.2,56.1L65.6,56.2L66.3,56.3L67.0,56.4L69.2,56.4L69.6,56.4L70.5,56.3L71.0,56.1L71.3,56.1L72.4,55.8L72.6,55.7L72.7,55.7L73.3,55.4L74.1,55.1L74.7,54.7L75.0,54.6L75.2,54.5L75.7,54.2L77.2,53.1L77.9,52.5L78.7,51.5L79.9,49.8L80.1,49.4L80.5,48.8L80.5,48.7L80.8,48.1L80.9,48.0L81.0,48.1L80.9,48.5L80.9,48.7L80.8,49.3L80.7,49.7L80.7,50.0L80.5,50.3L80.5,50.5L80.1,52.1L79.8,52.7L79.8,52.9L79.5,53.4L79.4,53.7L79.3,54.0L79.2,54.3L78.8,55.0L78.8,55.2L78.7,55.3L78.3,56.1L77.2,57.8L76.2,59.2L76.1,59.4L75.3,60.5L73.8,62.2L71.9,64.0L71.6,64.2L71.3,64.5L71.0,64.7L70.5,65.0L70.3,65.1L69.6,65.7L68.8,66.1L68.7,66.2L68.3,66.4L67.9,66.7L67.7,66.8L67.3,67.0L66.9,67.1L66.7,67.3L66.3,67.4L66.1,67.6L65.9,67.6L65.5,67.8L64.5,68.2L64.3,68.3L63.5,68.6L63.2,68.8L62.6,68.9L62.3,69.1L61.8,69.2L61.5,69.3L61.3,69.3L61.1,69.4L59.9,69.7L57.2,70.0L54.8,70.2L51.5,70.1L50.9,69.9L50.2,69.8L49.6,69.7L49.0,69.6L48.7,69.5L48.5,69.5L48.1,69.3L47.8,69.3L47.2,69.2L46.3,68.8L45.7,68.6L45.5,68.5L44.3,68.1L43.8,67.9L43.5,67.8L43.2,67.6L42.5,67.3L42.0,67.0L41.9,67.0L41.8,66.9L41.2,66.6L40.7,66.3L39.8,65.8L39.7,65.7L39.6,65.7L39.0,65.2L37.5,64.1L35.5,62.3L33.8,60.5L33.0,59.3L32.7,58.9L32.4,58.5L31.7,57.4L31.3,56.8L31.1,56.4L31.0,56.2L30.5,55.4L30.2,54.8L30.2,54.7L29.7,53.7L29.6,53.6L29.6,53.4L29.5,53.3L29.4,52.9L29.3,52.5L29.0,52.0L28.9,51.8L28.8,51.6L28.6,50.9L28.6,50.8L28.2,49.6L28.2,49.3L28.1,49.2L28.1,48.6L28.0,48.3L27.7,46.8L27.7,45.9L27.6,44.8L27.5,43.2L27.5,41.3L27.6,41.1L27.7,40.1L27.8,39.6L27.8,39.1L27.9,39.0L28.0,38.2L28.3,37.0L28.3,36.8L28.3,36.8L28.4,36.5L28.4,36.5L28.5,36.0L28.6,35.8L28.8,35.1L29.0,34.2L29.2,33.8L29.3,33.5L30.0,31.8L30.3,31.4L30.5,31.1L30.5,30.9L30.8,30.4L30.8,30.4L31.6,29.0L32.0,28.4L32.2,28.2L32.6,27.5L32.7,27.4L32.9,27.1L33.5,26.4L33.8,25.9L33.9,25.7L34.9,24.6L35.9,23.7L36.0,23.6L36.7,22.9L38.5,21.5L40.8,20.0L43.3,18.7L43.5,18.6L44.3,18.2L44.5,18.2L45.1,17.9L45.3,17.9L45.9,17.7L46.2,17.6L46.3,17.5L46.6,17.4L46.7,17.4L46.8,17.4L47.1,17.2L47.6,17.2L47.8,17.0L48.2,17.0L48.4,16.9L49.1,16.8L49.2,16.7L49.6,16.7L50.0,16.6L50.7,16.5L50.8,16.4L51.2,16.4L52.5,16.2Z" fill="#000" fill-rule="evenodd"/>
</svg>