<svg xmlns="http://www.w3.org/2000/svg" viewBox="0 0 128 128" width="128" height="128">
  <path d="M102.6,18.3L99.2,15.7L98.4,15.3L97.2,14.4L96.0,13.9L95.6,13.5L94.9,13.4L92.3,12.0L89.1,11.1L88.2,10.6L82.0,9.5L77.4,9.3L74.4,9.4L71.3,9.7L67.2,10.6L65.2,11.3L64.1,11.6L59.9,13.4L59.4,13.8L58.0,14.3L56.7,15.3L56.4,15.4L53.3,17.5L51.0,19.5L48.5,22.0L47.5,23.4L46.2,24.7L45.7,25.8L44.3,27.9L43.7,29.0L43.2,29.6L41.3,33.6L41.2,34.1L40.3,36.5L39.0,41.6L38.5,45.5L38.2,49.6L38.0,61.8L38.0,86.4L37.8,86.6L37.3,86.6L36.5,86.4L35.9,85.9L34.0,85.2L32.1,84.7L30.6,84.5L26.8,84.5L25.1,84.8L21.9,85.7L20.3,86.5L18.4,87.9L16.6,89.5L14.7,91.7L13.9,93.2L13.5,93.7L13.3,94.4L13.1,94.6L12.2,98.0L12.2,98.9L11.9,100.4L11.9,102.8L12.2,104.3L12.2,105.1L13.1,108.5L13.9,110.1L15.2,111.9L15.4,112.3L16.3,113.5L17.6,114.6L19.5,116.1L20.6,116.8L22.1,117.4L22.7,117.7L24.5,118.4L27.1,118.9L30.8,119.0L33.4,118.5L35.0,118.0L37.9,116.6L40.5,114.5L42.0,113.0L43.3,111.3L44.8,108.4L45.5,106.3L46.0,103.9L46.1,75.2L46.0,73.2L46.5,73.0L46.8,73.1L48.0,74.4L48.1,74.7L50.9,77.6L54.0,80.1L57.5,82.5L60.5,84.1L64.0,85.6L68.8,87.0L71.7,87.5L76.2,88.0L80.1,87.9L80.6,87.7L83.0,87.5L85.6,87.1L86.6,86.7L87.7,86.5L88.4,86.2L89.4,86.0L89.9,85.7L90.8,85.5L91.0,85.3L92.3,84.9L97.2,82.4L99.7,80.8L103.8,77.5L106.7,74.5L108.6,72.1L110.9,68.8L112.5,65.8L114.5,60.8L114.9,59.8L115.1,58.3L115.4,57.7L116.1,54.0L116.5,49.6L116.4,45.9L115.8,41.5L115.3,38.9L115.1,38.6L114.4,35.9L112.4,30.9L111.4,29.2L111.1,28.5L108.7,25.0L108.5,24.6L107.7,23.8L107.0,22.7Z M69.1,17.1L73.2,17.3L76.1,17.9L78.1,18.5L79.6,19.2L80.0,19.3L82.5,20.7L84.4,21.9L86.0,23.4L88.5,26.1L88.9,26.8L89.5,27.5L90.2,28.6L90.4,29.1L90.8,29.6L92.2,32.8L92.6,34.4L92.7,35.2L93.2,36.6L93.5,40.0L93.4,42.5L93.1,45.4L92.8,46.7L91.7,49.8L90.8,51.8L89.4,54.2L89.1,54.5L88.9,55.0L86.6,57.6L85.7,58.8L84.7,59.2L82.8,60.8L81.4,61.6L79.3,62.7L75.7,64.0L71.6,64.7L68.5,64.7L66.0,64.5L62.8,63.7L59.3,62.3L57.0,60.9L54.2,58.9L52.0,56.7L51.9,56.4L51.4,55.9L50.0,54.0L48.7,51.7L47.5,48.7L47.3,47.5L47.0,47.0L46.9,46.2L46.8,45.8L46.4,43.6L46.3,39.9L46.7,36.8L47.3,34.3L47.9,33.3L48.2,33.4L47.9,36.8L48.2,39.2L49.2,42.7L50.3,45.1L51.8,47.3L54.6,50.1L56.7,51.5L58.8,52.6L59.2,52.6L60.2,53.0L63.4,53.7L66.9,53.7L68.9,53.3L69.4,53.3L72.2,52.3L75.4,50.5L78.1,48.0L80.2,45.1L81.5,42.2L82.2,39.7L82.5,37.5L82.5,34.7L82.2,32.8L81.5,30.2L80.3,27.5L78.4,24.7L77.5,23.8L77.2,23.7L75.5,22.0L73.5,20.8L71.4,19.9L70.0,19.5L69.2,19.1L66.0,18.8L62.8,19.0L61.8,18.8L62.8,18.3L65.0,17.6L65.6,17.6L66.9,17.3Z" fill="#000" fill-rule="evenodd"/>
</svg>