<svg xmlns="http://www.w3.org/2000/svg" viewBox="0 0 128 128" width="128" height="128">
  <path d="M63.8,29.9L62.1,30.3L61.5,30.3L60.6,30.6L59.6,30.8L56.5,32.0L56.3,32.3L54.8,33.1L52.9,34.5L51.4,36.0L50.2,37.5L49.2,38.8L47.8,41.7L47.1,43.8L46.6,46.3L46.4,48.0L46.6,51.5L47.1,54.0L47.5,55.3L49.3,59.0L49.9,60.1L51.6,62.3L54.0,64.5L55.8,65.7L58.2,67.0L61.5,68.1L63.1,68.4L63.4,68.5L64.5,68.5L65.2,68.7L67.4,68.7L71.3,68.0L73.3,67.4L76.5,65.5L79.1,63.2L81.5,60.2L84.0,55.1L84.4,54.2L84.8,52.1L85.0,50.2L85.0,47.7L84.3,44.2L83.7,42.4L82.8,40.7L82.2,39.9L81.6,38.5L81.1,37.9L80.6,37.0L78.0,34.4L76.2,33.1L76.0,33.1L75.5,32.6L75.4,32.4L74.0,32.0L70.5,30.4L65.7,29.8Z M101.3,11.4L99.0,10.1L98.6,10.1L97.0,9.5L95.2,9.2L84.9,9.2L71.0,9.5L21.9,9.4L21.3,9.6L21.1,10.0L21.4,18.0L21.4,28.1L21.6,39.9L21.6,46.7L21.8,49.4L21.9,55.9L21.9,80.3L22.1,85.3L22.0,90.4L22.2,94.8L22.2,113.0L22.3,114.0L22.2,118.5L22.4,118.8L22.8,119.0L35.4,119.0L35.9,118.9L36.2,118.6L36.2,114.5L36.0,100.4L36.1,97.4L35.9,92.2L35.9,72.9L35.6,52.1L35.6,40.4L35.2,25.2L35.3,23.4L35.7,23.0L50.2,23.0L58.5,23.3L63.5,23.2L66.5,23.4L74.9,23.5L91.2,23.4L92.3,23.6L92.6,23.9L92.6,35.4L92.8,40.7L92.8,57.8L92.9,65.4L92.9,73.7L92.8,74.7L92.4,75.1L91.9,75.2L69.9,74.9L60.9,75.0L53.3,74.8L41.4,74.8L41.0,75.2L41.1,87.8L41.2,88.2L41.4,88.5L42.0,88.7L51.2,88.7L68.3,88.9L85.2,88.9L87.3,89.1L95.2,89.2L96.5,89.1L98.5,88.7L100.6,87.8L102.6,86.5L104.7,84.4L105.9,82.2L106.8,79.8L107.0,77.7L106.9,53.6L107.0,43.8L106.7,20.7L106.4,18.7L106.0,17.6L105.2,15.7L103.6,13.4Z" fill="#000" fill-rule="evenodd"/>
</svg>