<svg xmlns="http://www.w3.org/2000/svg" viewBox="0 0 128 128" width="128" height="128">
  <path d="M51.0,24.6L50.4,24.7L47.5,26.5L46.5,26.9L44.7,28.1L44.1,28.3L42.5,29.4L38.5,31.6L38.2,31.8L34.2,34.1L33.6,34.6L33.5,35.1L33.6,42.3L33.6,54.9L33.8,59.1L33.7,62.4L33.9,78.8L33.8,114.2L33.9,118.8L34.1,119.1L34.6,119.1L39.6,116.1L41.2,115.3L42.6,114.4L43.4,114.1L45.5,112.8L46.7,112.2L47.8,111.4L50.8,109.8L51.2,109.3L51.4,108.9L51.4,76.2L51.5,45.9L51.4,42.4L51.5,39.9L51.4,36.2L51.4,25.1Z M47.5,9.9L47.7,12.1L48.2,14.1L49.5,17.1L50.9,19.9L52.2,21.5L52.2,21.7L52.9,22.7L55.6,25.9L57.8,28.1L58.1,28.5L67.4,37.7L68.2,38.8L68.8,39.3L71.2,42.7L72.5,45.4L73.3,48.1L74.0,51.6L74.1,54.9L73.6,57.2L73.5,58.3L73.1,59.4L72.2,61.7L71.2,63.3L70.6,64.0L69.8,65.3L67.0,68.3L65.5,69.5L64.0,70.3L63.1,70.7L62.4,71.2L59.9,72.0L57.5,72.6L55.6,72.7L55.5,72.9L56.0,73.0L58.4,73.1L63.0,73.0L71.2,73.0L72.5,72.9L73.1,72.7L75.1,72.7L77.4,72.5L77.8,72.3L78.8,72.3L81.5,71.6L82.8,71.0L83.5,70.8L86.1,69.3L88.5,67.7L90.6,65.5L91.1,64.8L92.4,62.7L93.4,60.9L93.9,59.6L94.6,57.2L94.8,56.0L94.8,53.3L94.5,50.6L93.3,46.7L92.5,45.2L91.4,43.5L91.2,43.0L88.2,39.4L86.5,37.7L83.5,35.4L83.0,34.9L82.8,34.3L82.6,34.1L81.7,34.1L77.1,31.4L73.8,29.8L72.5,29.0L72.1,28.9L71.5,28.5L71.2,28.4L70.2,27.9L69.5,27.7L69.1,27.4L68.5,27.2L67.2,26.4L66.0,26.0L64.5,25.1L63.0,24.6L62.0,23.9L58.3,22.1L57.4,21.4L56.9,21.0L55.1,19.9L53.9,19.0L51.5,16.9L49.9,14.9L48.5,12.4L47.9,11.1L47.8,9.8Z" fill="#000" fill-rule="evenodd"/>
</svg>