<svg xmlns="http://www.w3.org/2000/svg" viewBox="0 0 128 128" width="128" height="128">
  <path d="M62.7,44.0L62.1,44.6L61.0,46.3L60.1,46.7L59.8,47.0L59.9,47.3L60.8,47.4L61.5,48.1L61.6,48.6L61.3,49.3L60.9,49.7L59.9,49.8L59.7,49.7L59.1,49.1L58.8,48.3L58.4,48.3L56.7,50.0L56.5,50.4L56.6,50.7L57.3,50.7L58.1,51.4L58.2,52.2L58.0,52.7L57.4,53.2L56.5,53.2L56.2,53.0L55.8,52.5L55.5,51.5L55.2,51.5L48.5,58.2L47.7,59.5L47.3,59.9L46.5,60.3L39.9,66.9L39.8,67.3L39.9,67.5L40.3,67.5L40.8,67.7L41.3,68.4L41.3,69.1L40.4,70.0L39.7,70.0L38.9,69.3L38.8,68.7L38.6,68.5L38.2,68.6L36.1,70.6L35.7,71.2L30.9,76.0L30.2,76.8L30.1,84.8L30.3,87.3L30.3,117.3L30.3,118.5L30.7,119.0L33.8,119.1L36.9,119.0L45.3,119.0L47.9,118.8L62.6,118.9L63.0,118.8L63.3,118.5L63.4,70.8L63.3,67.8L63.4,48.3L63.3,44.4L63.2,44.1Z M50.1,114.8L50.5,114.8L51.0,115.2L51.0,115.8L50.4,116.3L50.0,116.3L49.5,116.0L49.5,115.2Z M56.7,114.2L57.6,114.4L58.0,114.8L58.2,115.2L58.2,115.8L58.0,116.2L57.3,116.9L56.4,116.8L55.8,116.1L55.7,115.2L55.9,114.8Z M50.1,111.4L50.6,111.4L51.0,111.9L51.0,112.4L50.8,112.8L50.5,113.0L49.8,112.9L49.4,112.3L49.6,111.7Z M39.8,111.0L40.8,111.1L41.4,111.6L41.5,112.6L41.3,112.9L40.7,113.5L40.5,113.6L39.5,113.5L38.9,112.4L39.2,111.5Z M50.0,108.1L50.5,108.1L50.9,108.5L51.0,109.1L50.6,109.7L50.1,109.7L49.5,109.3L49.5,108.6Z M39.9,107.6L41.0,107.8L41.5,108.4L41.4,109.5L40.9,110.1L40.3,110.3L39.8,110.3L39.5,110.1L38.9,109.3L38.9,108.6L39.3,108.0Z M50.1,104.8L50.6,104.9L51.0,105.2L51.0,105.5L50.9,106.0L50.3,106.4L49.8,106.3L49.4,105.7L49.6,105.1Z M40.1,104.3L40.5,104.3L40.9,104.5L41.4,105.0L41.5,105.3L41.4,106.2L40.8,106.8L40.4,107.0L39.8,107.0L39.4,106.8L39.0,106.4L38.8,105.9L38.8,105.5L39.0,105.0Z M49.7,101.6L50.5,101.5L51.0,102.0L51.0,102.6L50.5,103.1L50.1,103.1L49.7,102.9L49.5,102.6L49.5,102.0Z M39.8,101.1L40.7,101.1L41.4,101.9L41.5,102.7L40.7,103.6L39.7,103.6L39.0,102.8L38.9,102.0L39.1,101.6Z M53.4,101.0L54.3,101.1L54.8,101.8L54.8,102.6L54.6,103.1L54.1,103.6L53.9,103.7L53.1,103.6L52.3,102.7L52.3,102.0L52.6,101.6L53.1,101.1Z M46.4,101.0L47.4,101.0L48.1,101.6L48.1,103.0L47.5,103.6L46.4,103.7L45.9,103.2L45.6,102.6L45.6,101.7Z M50.2,98.1L50.6,98.2L51.0,98.6L51.0,99.2L50.7,99.5L50.4,99.7L49.7,99.6L49.5,99.2L49.6,98.4Z M39.8,97.7L40.6,97.7L40.9,97.9L41.3,98.3L41.5,98.7L41.4,99.5L40.8,100.1L40.3,100.4L39.7,100.3L39.2,99.9L38.9,99.4L38.9,98.7L39.1,98.3Z M50.0,94.8L50.6,94.8L51.0,95.4L50.9,96.0L50.5,96.4L50.1,96.4L49.7,96.2L49.5,95.9L49.5,95.4Z M40.1,94.3L40.8,94.5L41.4,95.2L41.3,96.2L40.7,96.9L40.4,97.0L39.4,96.9L38.9,96.1L38.8,95.8L38.9,95.2L39.4,94.6Z M50.1,91.4L50.6,91.5L51.0,92.1L50.9,92.6L50.6,92.9L49.9,92.9L49.5,92.6L49.5,92.0Z M39.8,91.0L40.7,91.0L41.3,91.6L41.5,92.1L41.4,92.8L40.7,93.5L40.4,93.6L39.7,93.6L39.0,92.9L38.8,92.4L38.8,92.1L39.0,91.7Z M50.0,88.1L50.6,88.1L51.0,88.8L51.0,89.2L50.3,89.7L49.8,89.6L49.4,89.1L49.6,88.4Z M40.7,87.7L41.4,88.4L41.4,89.4L41.2,89.7L40.6,90.2L39.9,90.3L39.4,90.1L38.9,89.4L38.9,88.6L39.4,87.9L39.8,87.7Z M49.9,84.8L50.6,84.8L51.0,85.3L51.0,85.9L50.6,86.3L49.9,86.3L49.5,86.0L49.5,85.2Z M40.7,84.4L41.3,84.9L41.4,85.9L40.7,86.7L39.9,87.0L39.4,86.7L38.9,86.1L38.9,85.4L39.5,84.6L39.8,84.4Z M50.0,81.4L50.5,81.4L50.9,81.9L50.9,82.5L50.5,83.0L49.8,82.9L49.4,82.4L49.5,81.8Z M40.7,81.0L41.3,81.7L41.5,82.5L41.3,82.9L40.7,83.4L39.7,83.5L39.0,82.8L38.9,82.0L39.0,81.8L39.5,81.2L40.1,80.9Z M49.8,78.2L50.6,78.1L50.9,78.5L50.9,79.2L50.6,79.5L50.0,79.6L49.5,79.3L49.5,78.6Z M39.9,77.6L40.7,77.7L41.4,78.5L41.3,79.4L40.8,80.0L40.4,80.1L39.4,80.1L38.9,79.4L39.0,78.4L39.4,77.8Z M49.7,74.7L50.6,74.7L50.9,75.2L50.9,75.7L50.6,76.1L49.8,76.1L49.4,75.6L49.4,75.2Z M39.8,74.3L40.6,74.3L41.1,74.7L41.5,75.2L41.5,75.7L41.3,76.1L40.6,76.8L39.6,76.8L39.1,76.4L38.9,76.0L39.0,75.0L39.4,74.4Z M49.7,71.6L50.6,71.4L50.9,71.8L51.0,72.2L50.6,72.7L50.2,72.8L49.7,72.7L49.5,72.3L49.5,71.9Z M43.0,71.0L44.0,71.0L44.6,71.6L44.7,72.6L44.0,73.4L42.9,73.4L42.3,72.7L42.2,72.1L42.3,71.6Z M60.1,70.8L60.6,70.8L61.4,71.4L61.6,71.7L61.4,72.8L61.1,73.1L60.7,73.3L59.9,73.3L59.5,73.1L59.0,72.4L59.0,71.9L59.3,71.4Z M46.8,70.8L47.7,71.1L48.1,71.5L48.1,72.3L47.6,73.2L47.2,73.4L46.5,73.4L46.1,73.2L45.9,73.0L45.6,72.3L45.6,71.6L46.2,71.0Z M49.7,68.1L50.5,68.1L50.9,68.5L50.9,69.0L50.6,69.4L50.0,69.4L49.6,69.2L49.5,68.5Z M49.8,64.8L50.5,64.7L50.8,65.0L50.9,65.7L50.7,66.0L49.9,66.1L49.6,65.8L49.5,65.2Z M60.1,64.1L60.7,64.1L61.5,64.8L61.5,66.0L60.8,66.6L59.9,66.6L59.6,66.5L59.0,65.7L59.0,65.2L59.2,64.8Z M49.9,61.3L50.5,61.3L50.9,61.7L50.8,62.3L50.2,62.8L50.1,62.8L49.5,62.3L49.5,61.8Z M49.8,58.0L50.5,58.0L50.9,58.4L50.8,59.0L50.4,59.4L49.7,59.3L49.5,59.0L49.4,58.5Z M56.7,57.4L57.6,57.5L58.0,58.0L58.2,58.5L58.1,59.1L57.9,59.5L57.1,59.9L56.5,59.9L56.1,59.7L55.6,58.9L55.9,58.0L56.3,57.6Z M57.3,54.1L57.6,54.2L58.0,54.5L58.2,55.1L58.2,55.6L58.0,56.1L57.7,56.3L57.2,56.6L56.4,56.5L55.7,55.7L55.7,54.9L56.4,54.1Z M60.1,50.7L60.6,50.7L61.0,50.8L61.5,51.4L61.6,51.8L61.4,52.5L60.9,53.0L60.5,53.2L60.1,53.2L59.7,53.0L59.3,52.7L59.0,52.0L59.2,51.2Z M64.6,42.9L64.2,43.1L64.2,44.2L64.2,54.8L65.1,55.5L65.2,56.2L64.2,57.3L64.2,64.3L64.6,64.8L65.4,65.1L65.8,65.7L65.8,66.5L65.2,67.2L64.6,67.3L64.2,67.9L64.3,75.4L64.4,75.6L65.0,76.0L71.7,76.0L72.4,75.8L72.5,75.1L72.5,67.4L72.3,67.3L71.9,67.3L71.2,68.0L70.8,68.0L70.3,67.3L70.3,67.0L70.0,66.4L70.0,65.9L70.2,65.4L70.8,64.8L71.5,64.8L72.1,64.9L72.5,64.4L72.4,43.4L72.3,43.1L71.8,42.9Z M67.5,64.8L68.2,64.8L68.5,65.0L69.1,65.7L69.2,66.1L69.1,66.5L68.8,66.9L68.0,67.4L67.3,67.3L66.6,66.5L66.7,65.7L67.1,65.1Z M67.6,61.5L68.3,61.5L68.7,61.6L69.2,62.3L69.2,63.2L68.5,64.0L67.4,64.0L66.7,63.2L66.8,62.3Z M67.6,58.2L68.5,58.2L69.2,59.1L69.2,59.7L69.0,60.0L68.3,60.6L67.3,60.5L66.7,59.8L66.7,58.9L67.4,58.2Z M70.9,55.3L71.4,55.3L72.0,55.8L72.0,56.4L71.7,56.6L70.8,56.7L70.6,56.5L70.5,55.8Z M67.7,55.3L68.3,55.4L68.6,55.8L68.4,56.5L68.0,56.8L67.6,56.8L67.1,56.2L67.1,55.9Z M67.5,51.5L68.4,51.5L68.8,51.7L69.2,52.2L69.2,53.1L68.3,53.8L67.2,53.7L66.7,53.0L66.7,52.4L66.8,52.0Z M67.4,44.7L68.4,44.7L69.2,45.6L69.1,46.4L68.3,47.1L67.6,47.2L67.1,46.8L66.7,46.2L66.7,45.5L66.9,45.1Z M73.8,10.1L73.3,10.2L73.2,10.4L73.2,38.9L73.3,40.3L73.3,42.4L73.2,44.3L73.2,62.3L73.3,65.7L73.2,72.6L73.3,74.7L73.4,75.2L73.6,75.3L74.0,75.2L74.4,74.9L88.8,60.3L89.0,59.9L89.0,59.4L88.7,58.6L88.8,57.8L89.5,57.2L90.4,57.2L90.9,57.5L91.4,57.5L91.7,57.4L92.3,56.7L92.7,56.1L92.7,55.7L92.5,55.3L92.5,54.9L93.1,54.3L93.7,54.3L94.0,54.5L94.8,54.4L95.6,53.4L100.5,48.6L100.7,48.2L102.2,46.7L102.3,46.2L101.9,45.4L102.0,44.6L102.9,43.8L103.6,43.8L104.1,44.1L104.7,44.1L105.5,43.4L105.9,42.9L105.8,42.3L104.7,41.2L104.4,40.8L98.4,34.7L97.9,34.8L97.7,35.5L97.3,36.0L97.0,36.2L96.1,36.2L95.4,35.5L95.3,34.7L95.8,34.0L96.2,33.8L96.8,33.7L96.9,33.5L96.8,33.1L85.0,21.3L84.6,21.2L84.3,22.3L83.7,22.8L83.5,22.9L82.8,22.8L82.0,22.2L82.0,21.5L82.3,20.9L82.8,20.4L83.6,20.3L83.6,19.8L82.4,19.4L81.8,18.5L81.6,17.9Z M82.9,60.6L83.6,60.6L83.9,60.7L84.5,61.5L84.5,62.1L84.3,62.4L83.9,62.8L83.5,63.0L82.8,62.9L82.1,62.2L82.2,61.2Z M86.5,57.2L87.0,57.3L87.3,57.5L87.8,58.2L87.8,58.7L87.5,59.3L86.9,59.7L86.0,59.6L85.5,59.1L85.3,58.7L85.5,58.0L86.2,57.3Z M83.1,57.2L83.8,57.3L84.4,57.8L84.5,58.0L84.5,58.7L84.3,59.1L83.4,59.6L82.6,59.5L82.0,58.7L82.1,58.0L82.8,57.3Z M79.3,57.3L80.3,57.3L81.1,58.1L81.1,58.7L80.6,59.5L79.8,59.7L79.2,59.5L78.7,58.9L78.7,58.0Z M93.1,50.9L93.6,51.0L94.0,51.6L94.0,51.9L93.5,52.4L93.0,52.4L92.6,52.0L92.6,51.4Z M86.4,50.4L86.8,50.4L87.3,50.7L87.9,51.5L87.8,52.2L87.3,52.8L86.9,53.0L86.4,53.0L86.0,52.8L85.3,52.0L85.3,51.2L86.0,50.6Z M93.1,47.6L93.5,47.6L94.0,48.2L94.0,48.7L93.5,49.1L93.0,49.1L92.5,48.6L92.5,48.1Z M93.1,44.2L93.6,44.3L94.0,44.8L94.0,45.3L93.5,45.7L93.0,45.7L92.5,45.2L92.6,44.6Z M99.9,43.8L100.4,43.8L100.9,44.2L101.1,44.6L101.1,45.4L101.0,45.8L100.1,46.3L99.6,46.2L99.0,45.9L98.7,45.4L98.7,44.5L99.3,43.9Z M96.3,43.8L97.0,43.8L97.7,44.4L97.7,45.5L97.5,45.9L97.2,46.2L96.2,46.2L95.7,45.9L95.4,45.5L95.4,44.6L96.0,43.9Z M93.1,40.9L93.6,40.9L94.0,41.4L94.1,41.7L93.9,42.1L93.5,42.4L93.1,42.4L92.7,42.2L92.5,41.9L92.6,41.3Z M82.8,40.4L83.8,40.4L84.5,41.1L84.5,41.9L84.3,42.4L83.9,42.8L82.6,42.8L82.0,42.1L81.9,41.7L82.0,41.3Z M93.0,37.6L93.6,37.6L94.0,38.0L94.0,38.5L93.5,39.0L93.0,39.0L92.5,38.6L92.5,38.0Z M82.8,37.0L83.5,37.0L83.9,37.1L84.5,37.9L84.5,38.7L84.3,39.0L83.6,39.6L82.8,39.6L82.2,39.1L81.9,38.4L81.9,38.1L82.3,37.4Z M93.1,34.2L93.5,34.2L94.0,34.8L93.9,35.2L93.4,35.6L92.8,35.5L92.5,35.1L92.6,34.7Z M86.2,33.8L87.3,33.8L87.6,34.1L87.8,34.6L87.8,35.3L87.7,35.6L86.9,36.3L86.0,36.2L85.4,35.7L85.3,35.3L85.4,34.4Z M89.5,33.7L90.2,33.7L90.6,33.8L91.1,34.5L91.1,35.4L91.0,35.7L90.4,36.2L89.5,36.2L89.2,36.0L88.6,35.4L88.6,34.7L88.8,34.3L89.2,33.8Z M82.5,33.8L82.8,33.7L83.6,33.7L84.3,34.2L84.5,34.6L84.5,35.3L84.3,35.7L83.9,36.1L83.4,36.3L82.8,36.2L82.0,35.5L81.9,34.8L82.0,34.4Z M93.1,30.9L93.5,30.9L93.9,31.3L94.0,31.7L93.3,32.4L93.0,32.4L92.5,31.9L92.5,31.4Z M86.4,30.4L87.1,30.5L87.5,30.9L87.8,31.5L87.8,32.0L87.6,32.4L87.2,32.8L86.8,33.0L85.9,32.9L85.3,32.0L85.3,31.2L86.0,30.5Z M83.7,23.7L84.4,24.4L84.5,25.2L83.7,26.1L83.2,26.3L82.8,26.2L82.4,26.0L82.0,25.5L81.9,24.7L82.6,23.9L82.9,23.7Z M72.0,9.5L71.4,9.3L62.1,9.3L61.2,9.1L59.1,9.3L23.3,9.2L22.8,9.4L22.5,9.9L22.5,11.7L22.4,12.3L22.4,15.3L22.5,17.6L22.4,20.6L22.5,22.8L22.5,35.4L22.6,42.6L22.9,42.9L24.0,42.9L25.9,42.6L50.0,42.5L53.1,42.3L55.4,42.4L65.9,42.1L71.9,42.1L72.2,42.0L72.4,40.0L72.4,37.7L72.2,36.8L72.3,30.5L72.1,30.1L71.8,29.9L71.1,29.8L70.6,29.3L70.6,28.9L70.8,28.5L71.3,28.3L71.9,28.2L72.2,27.8L72.3,21.1L72.1,20.6L71.8,20.4L71.2,20.4L70.4,19.8L70.3,19.4L70.3,18.9L70.5,18.4L70.9,18.0L71.8,17.7L72.2,17.3L72.4,12.7L72.2,11.4L72.3,10.9L72.1,9.7Z M24.2,38.0L24.7,38.0L25.1,38.2L25.7,38.8L25.8,39.2L25.5,39.9L25.1,40.3L24.5,40.5L23.8,40.3L23.3,39.4L23.3,39.0L23.4,38.7Z M54.3,38.0L55.1,38.0L55.9,38.8L55.9,39.6L55.5,40.0L55.0,40.4L54.2,40.4L53.5,39.5L53.6,38.5L54.1,38.0Z M51.0,38.0L51.7,38.0L52.0,38.1L52.5,38.8L52.5,39.6L51.7,40.4L50.9,40.3L50.2,39.7L50.1,39.4L50.1,38.9L50.3,38.4Z M47.7,38.0L48.5,38.0L48.9,38.4L49.2,38.8L49.2,39.5L48.6,40.2L48.2,40.4L47.7,40.4L47.3,40.2L46.8,39.5L46.9,38.6L47.4,38.0Z M40.9,38.0L41.8,38.0L42.3,38.4L42.5,38.9L42.5,39.5L42.3,39.8L41.6,40.4L40.7,40.3L40.2,39.8L40.1,38.8Z M24.0,34.7L25.0,34.7L25.5,35.1L25.8,35.5L25.7,36.3L25.2,36.9L24.9,37.1L23.9,37.0L23.3,36.3L23.3,35.5Z M30.9,34.6L31.4,34.6L32.0,34.8L32.4,35.5L32.4,36.3L31.9,36.9L31.5,37.1L30.6,37.0L29.9,36.3L29.9,35.7L30.1,35.2Z M61.2,34.5L61.7,34.5L62.6,35.4L62.7,35.9L62.5,36.5L62.1,36.9L61.7,37.1L60.9,37.0L60.2,36.3L60.1,36.1L60.3,35.2Z M24.8,31.4L25.2,31.5L25.7,32.1L25.8,33.0L25.4,33.5L24.9,33.8L24.1,33.8L23.4,33.0L23.3,32.3L23.9,31.5Z M34.3,31.3L35.3,31.4L35.8,32.3L35.7,33.0L35.2,33.6L34.9,33.7L34.0,33.7L33.5,33.2L33.3,32.9L33.3,32.1L33.8,31.5Z M30.9,31.3L31.6,31.3L32.0,31.4L32.4,32.2L32.4,33.1L31.4,33.8L30.9,33.8L30.6,33.6L30.0,32.9L30.1,32.0L30.7,31.4Z M61.0,31.2L62.0,31.3L62.4,31.6L62.6,32.0L62.7,32.6L62.5,33.2L61.7,33.8L60.9,33.7L60.4,33.2L60.2,32.9L60.1,32.3L60.3,31.8L60.7,31.4Z M54.4,31.2L55.3,31.3L55.8,31.8L55.9,32.2L55.9,32.6L55.7,33.2L54.9,33.7L54.2,33.6L53.6,33.1L53.5,32.6L53.6,31.9L54.2,31.3Z M51.1,31.2L52.0,31.4L52.6,32.1L52.6,32.8L52.0,33.5L51.4,33.7L50.8,33.6L50.4,33.2L50.1,32.6L50.3,31.8L50.9,31.3Z M30.7,28.6L31.4,28.5L31.8,28.9L31.9,29.3L31.5,29.8L31.0,29.9L30.4,29.4L30.4,29.1Z M27.5,28.5L28.1,28.5L28.5,28.9L28.5,29.4L28.0,29.9L27.6,29.9L27.2,29.7L27.1,28.9Z M24.1,28.6L24.7,28.5L25.0,28.8L25.2,29.3L24.9,29.7L24.1,29.8L23.7,29.4L23.7,29.0Z M44.2,28.5L44.8,28.5L45.2,28.9L45.2,29.5L44.8,29.8L44.4,29.8L44.0,29.4L43.9,29.0Z M34.0,28.6L34.9,28.5L35.2,28.8L35.2,29.3L34.8,29.8L34.3,29.8L33.9,29.5L33.8,28.9Z M67.9,28.4L68.3,28.4L68.8,28.8L68.8,29.3L68.3,29.8L67.7,29.8L67.5,29.6L67.4,28.9L67.5,28.5Z M64.5,28.4L65.1,28.4L65.5,28.9L65.5,29.3L65.0,29.8L64.4,29.8L64.0,29.4L64.0,28.9Z M61.2,28.4L61.7,28.5L62.1,28.9L62.1,29.3L61.6,29.8L61.0,29.7L60.7,29.3L60.7,28.9Z M57.7,28.4L58.2,28.4L58.7,28.9L58.7,29.3L58.0,29.9L57.6,29.8L57.4,29.6L57.3,28.9Z M54.4,28.4L54.9,28.4L55.4,28.8L55.4,29.3L55.2,29.6L54.9,29.8L54.3,29.7L53.9,29.3L54.0,28.8Z M51.4,28.4L51.9,28.7L52.0,29.3L51.8,29.6L51.0,29.8L50.6,29.2L50.6,28.9L50.9,28.5Z M47.7,28.5L48.2,28.5L48.6,28.9L48.6,29.3L48.1,29.8L47.6,29.7L47.3,29.3L47.3,28.9Z M41.1,28.4L41.5,28.4L41.9,28.8L41.9,29.4L41.5,29.8L41.0,29.8L40.7,29.6L40.6,28.9Z M37.8,28.4L38.2,28.5L38.6,28.9L38.4,29.6L38.1,29.8L37.6,29.8L37.2,29.4L37.2,28.9Z M30.5,21.4L31.8,21.4L32.0,21.4L32.5,22.2L32.5,22.8L31.9,23.5L31.6,23.7L31.2,23.7L30.5,23.5L30.3,23.2L29.9,22.3Z M60.9,21.2L61.9,21.2L62.6,21.8L62.6,22.9L61.9,23.6L60.9,23.5L60.3,22.9L60.3,22.1Z M54.5,21.1L55.4,21.3L55.9,21.9L56.0,22.6L55.7,23.2L55.1,23.6L54.1,23.5L53.5,22.7L53.6,21.9L54.3,21.2Z M51.2,21.1L52.0,21.3L52.6,22.0L52.6,22.9L51.9,23.5L51.7,23.6L50.7,23.5L50.5,23.3L50.1,22.4L50.3,21.8L50.8,21.3Z M40.8,21.2L41.6,21.1L42.0,21.3L42.5,21.8L42.5,22.8L42.3,23.1L41.9,23.5L40.9,23.6L40.2,22.9L40.2,21.9Z M27.5,18.0L28.5,18.1L29.1,18.9L29.1,19.4L28.9,19.8L28.6,20.2L28.0,20.4L27.3,20.3L26.8,19.8L26.6,19.4L26.7,18.6Z M67.9,17.8L68.6,17.8L69.2,18.2L69.4,18.8L69.4,19.3L69.1,19.9L68.3,20.3L67.6,20.2L67.1,19.8L66.9,19.4L66.9,19.0L67.1,18.5Z M57.5,17.9L58.4,17.8L59.0,18.3L59.2,18.7L59.2,19.5L58.4,20.3L57.6,20.3L56.8,19.5L56.8,18.7Z M44.1,17.9L45.1,17.8L45.9,18.7L45.9,19.4L45.7,19.8L45.1,20.3L44.4,20.3L44.0,20.2L43.4,19.5L43.4,18.6Z M40.8,17.7L41.5,17.7L41.9,17.9L42.4,18.5L42.6,19.0L42.3,19.8L41.9,20.2L41.5,20.4L40.7,20.3L40.0,19.4L40.1,18.6Z M64.4,11.2L65.3,11.2L65.9,11.7L66.0,12.8L65.2,13.6L64.5,13.6L63.8,13.1L63.6,12.6L63.7,12.0L63.8,11.7Z M37.8,11.1L38.6,11.3L39.1,11.9L39.1,12.8L39.0,13.1L38.5,13.6L37.7,13.6L37.2,13.4L36.9,13.2L36.7,12.6L36.9,11.9L37.6,11.2Z" fill="#000" fill-rule="evenodd"/>
</svg>