<svg xmlns="http://www.w3.org/2000/svg" viewBox="0 0 128 128" width="128" height="128">
  <path d="M77.7,76.0L78.4,76.1L79.5,75.4L81.4,74.5L81.6,74.3L86.5,71.8L87.5,71.1L88.9,70.5L89.3,70.2L93.8,68.0L94.1,67.7L95.5,67.1L96.7,66.3L97.1,66.3L97.5,65.9L98.0,65.8L99.6,64.9L100.0,64.9L100.8,64.2L102.3,63.5L102.5,63.3L103.7,62.8L104.9,62.1L109.7,59.7L110.8,59.0L112.0,58.5L112.4,58.2L114.6,57.2L114.8,56.9L117.1,55.8L117.3,55.6L119.0,54.7L119.2,54.5L119.1,54.1L115.8,52.3L115.0,52.0L113.8,51.3L113.1,51.1L112.9,50.9L111.2,50.2L107.4,48.2L107.0,48.1L102.8,46.0L102.5,45.9L101.4,45.2L100.6,44.8L100.0,44.7L96.0,42.6L95.6,42.5L94.2,41.7L93.7,41.5L93.3,41.2L92.9,41.2L92.4,40.9L92.2,40.9L91.7,40.5L91.3,40.4L88.9,39.1L88.3,39.0L87.9,38.7L85.7,37.7L85.3,37.4L84.7,37.3L83.7,36.7L83.0,36.4L81.7,35.7L81.3,35.6L77.9,33.9L77.3,34.0L77.2,57.6L77.4,66.3L77.4,75.2Z M71.8,33.6L71.5,33.5L64.9,33.5L59.6,33.6L48.6,33.6L46.7,33.8L42.8,33.7L36.8,33.9L9.4,34.1L9.2,34.4L9.1,34.8L9.1,42.5L9.2,47.4L9.2,69.0L9.4,71.5L9.2,75.1L9.4,77.6L9.5,83.0L9.3,93.4L9.5,94.5L9.7,94.8L23.3,94.8L27.8,94.7L28.1,94.4L28.2,77.7L28.3,77.1L28.7,76.7L36.9,76.5L50.2,76.5L54.9,76.4L65.0,76.4L71.8,76.2L72.1,75.9L72.1,70.8L71.8,55.7L71.9,50.3L71.8,45.0L71.9,44.5L71.9,43.4L71.8,42.6L71.9,34.2Z M52.9,52.9L53.0,56.8L52.9,57.0L52.4,57.3L44.8,57.6L43.7,57.5L38.7,57.6L28.7,57.6L28.5,57.6L28.3,57.2L28.2,52.9L28.3,52.6L29.0,52.4L52.0,52.3L52.6,52.3Z" fill="#000" fill-rule="evenodd"/>
</svg>