<svg xmlns="http://www.w3.org/2000/svg" viewBox="0 0 128 128" width="128" height="128">
  <path d="M51.0,15.0L50.9,15.4L51.1,15.8L67.5,32.8L67.9,33.4L73.4,38.9L74.3,40.0L76.2,40.1L87.6,40.1L88.1,40.5L88.3,43.4L88.4,53.1L88.2,53.9L87.9,54.1L61.3,54.1L56.3,54.0L51.3,54.0L50.9,54.1L51.0,54.6L53.1,56.9L57.5,61.4L58.8,63.0L62.9,67.3L63.2,67.8L64.8,69.2L66.2,70.9L70.7,75.6L71.1,76.1L73.4,78.4L74.0,78.6L75.3,78.7L90.7,78.8L118.3,78.5L118.8,78.3L119.0,77.8L119.0,41.7L118.9,40.1L117.9,39.1L99.2,23.4L89.6,15.8L88.1,14.9L52.0,14.8Z M43.6,14.6L25.8,14.8L16.3,15.0L9.7,14.9L9.3,15.4L9.3,37.5L9.5,39.4L9.8,39.7L10.4,39.8L19.2,39.8L19.9,39.9L20.3,40.4L20.3,98.7L20.6,112.9L21.0,113.2L29.4,113.4L34.0,113.3L45.6,113.7L46.0,113.5L46.0,82.1L46.2,71.4L46.1,70.5L46.2,66.8L46.2,65.7L46.3,40.5L46.7,40.1L47.0,40.0L48.8,39.9L62.2,39.9L64.1,40.1L66.9,40.1L67.4,39.9L67.6,39.5L67.5,39.1L66.7,38.1L63.0,34.2L54.8,25.9L53.0,23.8L44.5,15.1Z" fill="#000" fill-rule="evenodd"/>
</svg>