<svg xmlns="http://www.w3.org/2000/svg" viewBox="0 0 128 128" width="128" height="128">
  <path d="M10.6,92.9L10.4,93.4L10.3,97.1L10.4,116.1L10.6,118.4L10.9,118.8L32.2,118.9L35.1,118.8L35.5,118.6L35.6,106.5L35.4,104.8L35.6,102.9L35.4,93.3L35.0,92.9L33.3,92.8Z M89.5,37.9L86.5,35.5L85.0,34.5L82.4,33.3L81.5,33.1L81.1,32.8L78.3,32.2L77.5,32.2L75.9,31.9L73.5,31.9L70.0,32.4L65.8,33.8L64.0,34.7L61.3,36.5L58.4,39.3L56.4,41.9L55.0,44.3L53.6,47.9L53.1,50.6L52.9,52.9L53.0,54.3L52.8,60.8L52.8,74.2L52.9,75.1L53.1,75.4L58.1,75.5L71.6,75.5L76.0,75.5L77.8,75.3L81.8,74.2L83.2,73.5L84.2,73.2L87.2,71.3L88.7,70.1L90.7,68.1L93.3,64.3L94.4,62.1L94.9,60.7L95.1,59.7L95.3,59.5L96.0,56.5L96.0,51.2L95.4,47.8L95.1,47.4L94.9,46.2L94.6,45.9L94.0,44.1L92.7,41.9L91.8,40.6Z M117.7,9.4L95.9,9.3L70.7,9.6L41.5,9.6L31.9,9.8L21.4,9.8L15.4,9.9L10.8,9.8L10.4,10.1L10.2,14.9L10.2,71.5L10.3,74.7L10.4,75.2L10.7,75.5L34.5,75.5L35.2,75.5L35.3,75.3L35.5,74.7L35.4,62.4L35.6,51.4L35.8,50.8L35.9,48.6L36.4,46.6L36.5,45.5L36.8,44.8L36.9,43.6L37.4,42.5L37.7,41.0L38.4,39.6L38.5,38.8L38.9,38.2L39.1,37.5L41.1,33.7L41.5,33.3L42.2,31.9L42.6,31.5L42.6,31.3L43.3,30.4L45.5,27.7L49.0,24.3L51.4,22.3L53.9,20.4L54.7,20.1L55.0,19.7L56.7,18.9L57.2,18.5L61.4,16.6L63.6,16.1L64.4,15.6L65.3,15.5L66.8,15.0L71.4,14.3L74.6,14.2L79.2,14.5L81.6,14.8L85.8,15.9L88.8,16.9L89.0,17.1L90.8,17.8L91.7,18.3L92.4,18.5L92.9,19.0L94.4,19.7L96.6,21.2L100.7,24.4L102.3,26.0L104.6,28.6L107.3,32.2L109.5,36.3L110.3,38.4L110.6,38.8L111.6,41.9L112.7,46.5L112.8,48.1L113.2,50.2L113.2,56.0L112.9,57.4L112.5,60.8L111.1,66.3L110.6,67.8L110.4,68.0L110.1,69.0L109.2,70.6L109.1,71.3L107.1,74.5L106.9,75.1L106.4,75.5L104.7,78.0L102.9,80.1L99.3,83.6L98.1,84.4L97.5,85.1L93.3,87.8L89.2,89.9L87.5,90.4L87.1,90.7L80.6,92.3L75.8,92.8L53.8,92.8L53.0,93.1L52.8,94.5L52.9,118.3L53.3,118.7L114.2,118.7L117.4,118.6L118.0,118.0L118.1,10.3L118.0,9.7Z" fill="#000" fill-rule="evenodd"/>
</svg>