<svg xmlns="http://www.w3.org/2000/svg" viewBox="0 0 128 128" width="128" height="128">
  <path d="M81.7,10.5L78.2,9.6L74.7,9.1L71.1,9.1L69.1,9.4L68.7,9.5L66.1,9.9L62.7,10.9L61.2,11.7L60.6,11.8L58.8,12.8L57.8,13.5L56.7,13.9L56.3,14.4L54.3,16.1L54.0,16.1L51.6,18.6L49.8,20.7L47.9,23.4L46.7,25.6L46.6,26.0L45.8,27.6L45.8,27.8L45.5,28.4L45.3,29.5L44.9,30.2L44.4,32.5L44.2,32.6L44.1,33.3L43.8,33.4L43.6,29.9L43.7,13.1L43.6,10.4L43.4,9.7L42.9,9.4L42.2,9.2L29.7,9.1L27.9,9.3L27.4,9.8L27.2,13.8L27.2,45.3L27.0,46.5L27.0,75.4L26.9,77.8L26.9,84.8L26.8,95.8L26.8,118.1L27.0,118.7L27.5,119.0L28.1,119.0L41.2,119.2L42.5,119.1L43.0,118.5L43.2,112.5L43.1,105.5L43.4,78.9L43.4,48.6L43.5,47.9L43.4,44.7L43.7,42.8L44.0,42.8L44.2,43.1L44.6,45.7L45.5,48.4L47.8,53.4L49.7,56.2L52.3,59.3L54.0,60.9L56.6,62.9L60.4,65.2L63.4,66.4L64.2,66.5L65.8,67.1L68.0,67.5L72.7,67.9L73.9,67.9L77.5,67.5L78.3,67.3L79.2,67.2L82.6,66.2L82.8,66.0L83.3,65.9L84.0,65.5L84.4,65.4L84.6,65.2L85.0,65.1L86.6,64.3L89.7,62.3L92.7,59.7L93.7,58.5L94.3,58.0L95.2,56.7L95.9,55.9L96.9,54.2L97.2,53.9L97.7,52.9L98.0,52.5L99.4,49.5L100.4,46.6L101.3,41.7L101.3,39.6L101.5,38.1L101.1,35.1L101.1,34.1L100.7,31.8L100.4,31.1L100.4,30.4L99.7,28.2L99.6,28.1L99.4,27.4L99.0,26.8L99.0,26.6L98.7,26.1L98.2,24.8L97.8,24.3L97.5,23.2L96.5,22.2L96.3,21.6L95.0,19.9L92.9,17.5L89.9,14.9L87.9,13.4L86.9,12.9L86.6,12.7L84.7,11.7L83.1,11.0L82.2,10.8Z M70.7,26.3L73.5,26.3L74.8,26.4L76.9,27.0L79.4,28.2L81.4,30.0L83.0,32.1L83.8,33.7L84.0,34.5L84.2,34.9L84.6,36.7L84.7,39.1L84.6,39.6L84.3,41.7L83.5,43.9L82.2,46.1L81.3,47.1L79.5,48.7L79.2,48.7L78.4,49.3L75.9,50.3L73.8,50.7L71.4,50.7L69.7,50.4L66.9,49.3L65.1,48.0L63.7,46.6L62.7,45.3L62.3,44.4L62.0,44.0L61.5,43.0L61.3,41.9L61.1,41.6L60.7,39.4L60.7,38.2L61.1,35.7L61.4,35.0L61.4,34.7L61.7,34.1L61.8,33.6L63.2,31.0L64.8,29.4L66.8,27.8L68.6,27.0L69.7,26.7Z" fill="#000" fill-rule="evenodd"/>
</svg>