<svg xmlns="http://www.w3.org/2000/svg" viewBox="0 0 128 128" width="128" height="128">
  <path d="M9.8,46.8L9.4,47.2L9.4,48.6L9.2,49.1L9.4,53.7L9.6,53.9L10.5,54.1L23.0,54.1L23.5,54.2L23.9,54.7L24.0,66.4L23.9,74.4L24.1,94.8L24.4,95.3L25.0,95.5L29.8,95.5L31.2,95.3L31.5,94.8L31.5,94.4L31.5,71.8L31.4,61.2L31.5,51.3L31.3,47.2L31.2,46.9L30.8,46.7L28.1,46.6L20.9,46.6L16.9,46.7L11.6,46.6L10.8,46.8Z M104.2,51.5L103.0,49.9L102.1,49.0L101.1,48.2L98.5,46.9L96.8,46.4L96.1,46.3L69.7,46.3L61.3,46.5L53.3,46.4L39.0,46.6L38.1,46.7L37.8,47.1L38.0,94.8L38.3,95.1L38.7,95.2L43.8,95.3L44.9,95.0L45.1,94.6L45.2,54.5L45.6,54.0L45.9,53.9L46.8,53.8L58.3,53.8L67.6,53.6L76.5,53.7L91.6,53.5L95.3,53.6L96.0,53.8L97.2,54.5L97.9,55.2L98.2,55.9L98.4,57.2L98.2,58.0L97.8,58.7L96.9,59.5L95.3,60.0L52.5,60.2L51.9,60.4L51.6,60.7L51.5,61.8L51.7,64.7L51.6,66.9L51.9,67.3L52.4,67.4L81.9,67.3L95.8,67.3L97.8,67.0L99.4,66.5L101.0,65.6L102.2,64.7L103.1,63.8L104.6,61.6L105.3,59.8L105.6,58.6L105.7,56.2L105.3,53.8L104.7,52.4L104.3,51.8Z M9.3,33.6L9.3,39.9L9.5,40.4L10.2,40.5L29.2,40.5L52.0,40.3L53.7,40.4L61.4,40.2L96.8,40.2L98.5,40.4L99.0,40.7L100.0,40.8L102.2,41.7L103.9,42.6L105.7,43.9L108.1,46.3L108.5,46.9L108.9,47.3L110.0,49.1L111.1,51.6L111.6,53.3L111.9,55.1L111.9,58.7L111.3,61.1L110.3,63.8L109.6,65.3L108.8,66.5L107.7,67.8L106.5,69.0L104.5,70.5L103.6,71.0L103.5,71.2L101.8,72.1L101.3,72.1L100.5,72.5L99.9,72.6L99.2,72.9L95.0,73.4L59.9,73.5L52.1,73.6L51.6,74.1L51.6,79.6L51.8,80.5L52.3,80.8L92.3,80.8L96.1,80.7L97.9,80.4L99.2,80.3L101.4,79.9L104.0,79.0L104.3,78.8L105.8,78.3L106.1,77.9L107.5,77.3L109.9,75.7L112.1,73.8L113.7,72.1L114.0,71.5L114.4,71.2L116.2,68.3L116.7,67.5L116.8,67.0L117.1,66.6L118.4,63.0L119.1,59.3L119.0,54.1L118.2,50.2L116.9,46.7L116.2,45.6L116.0,44.9L114.4,42.5L113.1,40.9L111.6,39.3L109.5,37.6L107.3,36.1L103.9,34.5L102.3,33.9L101.3,33.8L100.9,33.6L98.1,33.0L95.8,32.9L59.3,32.9L54.0,33.0L45.1,32.9L28.6,33.2L11.2,33.2L9.8,33.2Z" fill="#000" fill-rule="evenodd"/>
</svg>