<svg xmlns="http://www.w3.org/2000/svg" viewBox="0 0 128 128" width="128" height="128">
  <path d="M55.0,32.5L49.8,34.7L45.0,37.5L41.0,40.8L37.8,43.9L34.9,47.8L34.0,49.3L33.8,50.1L32.8,51.6L31.5,54.5L30.2,58.3L29.5,61.1L29.4,62.9L30.1,63.3L32.2,63.4L33.6,63.2L41.7,63.3L43.1,63.2L43.7,62.8L44.6,59.8L46.0,56.9L46.4,56.5L46.8,55.5L49.1,52.7L51.0,50.7L54.2,48.3L56.2,47.3L59.4,45.9L62.1,45.1L63.2,45.0L64.2,44.7L69.2,44.7L71.6,45.0L73.4,45.5L75.5,46.3L76.7,47.0L77.4,47.3L79.6,48.7L82.6,51.6L84.4,54.1L85.8,56.8L86.1,58.1L86.5,58.8L86.6,59.5L87.0,60.9L87.0,66.8L86.6,68.8L85.5,71.5L84.3,73.3L83.3,74.3L83.3,74.6L81.6,76.1L80.9,76.5L80.6,77.0L79.9,77.4L77.3,78.7L75.7,79.2L72.6,79.7L69.4,79.5L69.1,79.3L68.3,79.2L67.0,78.7L65.3,77.8L64.6,77.2L62.7,75.1L61.8,73.6L61.3,72.6L60.9,71.1L60.6,69.1L60.7,67.1L60.4,66.9L59.9,66.7L46.9,66.8L46.5,67.4L46.5,69.7L46.6,70.6L46.7,72.6L47.1,74.5L48.5,78.8L49.2,80.3L49.7,80.8L50.0,81.5L51.9,84.4L55.0,87.6L56.9,89.1L59.1,90.5L60.9,91.4L61.4,91.5L62.1,92.0L64.6,92.7L65.3,93.1L69.0,93.7L75.0,93.7L78.7,93.1L79.5,92.7L81.6,92.2L84.3,91.1L86.8,89.8L89.3,88.2L92.3,85.7L93.6,84.4L95.7,82.0L95.8,81.5L96.3,81.1L97.3,79.4L97.6,79.0L98.1,77.9L99.0,76.4L99.9,74.1L100.5,72.0L100.5,71.6L100.8,71.0L101.4,66.8L101.4,61.5L101.1,60.3L101.0,58.3L100.0,54.4L99.8,54.2L99.5,53.1L98.9,51.8L98.7,51.0L97.5,48.4L95.8,45.6L95.3,45.1L95.0,44.5L92.3,41.2L90.1,39.1L87.8,37.3L85.9,36.0L85.5,35.7L83.8,34.7L83.2,34.5L79.7,32.8L78.4,32.4L77.8,32.1L74.0,31.3L73.6,31.1L71.6,30.8L70.4,30.8L69.1,30.5L65.7,30.5L60.9,31.1L58.6,31.5Z M106.6,30.4L104.0,27.8L100.3,24.3L99.5,24.0L98.7,23.2L95.7,21.1L91.8,18.8L91.0,18.6L89.6,17.8L85.8,16.1L85.1,16.0L84.4,15.7L83.3,15.5L82.6,15.1L81.4,14.9L81.2,14.7L79.9,14.5L79.3,14.2L77.4,14.0L76.6,13.7L75.8,13.7L74.8,13.4L69.2,13.0L64.3,13.0L58.3,13.7L53.0,14.8L52.4,15.1L48.5,16.0L45.6,17.2L44.2,17.9L43.5,18.1L39.4,20.3L38.6,20.5L34.2,23.4L30.9,26.0L28.1,28.6L25.9,30.8L23.7,33.2L20.9,36.8L18.5,40.5L15.1,47.4L13.6,51.2L13.5,51.9L13.3,52.4L12.5,55.4L12.3,56.0L12.0,57.9L11.5,59.5L11.5,60.5L11.3,61.5L11.0,63.6L11.0,65.3L10.7,66.7L10.9,69.7L10.8,70.7L11.0,71.3L10.9,73.3L11.1,78.8L11.1,114.7L11.5,115.1L12.6,115.3L24.5,115.1L25.1,114.8L25.3,101.3L25.1,65.8L25.3,64.9L25.5,61.9L25.9,60.6L25.9,60.0L26.3,59.1L26.3,58.6L27.1,55.6L28.7,51.6L30.7,47.7L34.9,41.9L37.5,39.2L40.2,36.6L44.2,33.8L45.6,33.1L47.6,31.8L52.8,29.5L55.3,28.7L57.4,28.2L62.2,27.3L64.7,27.2L65.4,27.0L68.1,27.0L73.6,27.5L76.3,28.0L77.5,28.5L78.6,28.6L80.2,29.2L80.8,29.5L81.5,29.6L82.1,30.0L83.0,30.3L85.6,31.6L89.7,34.2L92.2,36.2L94.9,38.7L97.3,41.5L100.4,46.2L101.8,48.9L102.5,51.0L103.0,51.8L103.5,53.4L104.5,57.5L105.0,61.4L105.0,66.5L104.4,71.3L103.0,76.0L101.5,79.1L101.5,79.4L100.9,80.2L100.8,80.6L99.4,82.5L99.4,82.9L98.9,83.3L98.7,83.8L96.2,86.8L94.0,89.0L92.4,90.3L89.6,92.2L88.8,92.6L88.5,93.0L87.9,93.1L87.7,93.4L85.2,94.6L84.8,94.7L84.4,94.9L82.1,95.7L81.6,95.9L80.0,96.2L77.3,96.9L72.5,97.4L70.2,97.4L67.1,97.0L64.7,96.5L63.9,96.1L63.5,96.1L61.4,95.5L60.8,95.1L60.0,94.9L57.1,93.4L54.2,91.5L52.2,89.9L49.0,86.5L45.8,81.7L44.2,77.8L43.6,75.7L43.6,75.1L42.9,71.7L42.8,67.1L42.0,66.8L29.5,66.8L29.2,66.9L28.8,67.3L28.7,68.5L29.1,74.6L29.5,76.3L29.6,77.5L31.1,82.8L31.5,83.6L31.5,84.0L32.9,87.1L34.5,90.2L35.0,90.8L35.1,91.2L36.9,93.9L40.6,98.2L44.8,102.1L49.0,104.9L52.9,107.1L57.4,109.0L58.4,109.2L59.2,109.5L60.3,109.7L61.2,110.1L61.8,110.1L63.3,110.5L64.9,110.7L67.2,111.2L69.9,111.4L74.7,111.4L81.4,110.5L82.0,110.2L85.7,109.4L89.8,108.0L92.4,106.8L93.4,106.2L94.4,105.8L95.3,105.2L97.2,104.2L98.9,103.0L99.1,103.0L103.5,99.5L105.7,97.4L108.6,94.1L111.6,90.0L114.5,84.7L116.4,80.0L117.6,75.3L117.8,73.8L118.3,71.4L118.9,65.8L118.9,61.5L118.7,60.7L118.3,56.4L117.8,54.0L117.6,52.4L117.4,51.9L116.8,49.4L115.7,46.2L114.3,42.6L111.8,37.7L111.3,37.2L111.1,36.6L109.8,34.9L109.6,34.4L108.8,33.5L108.3,32.6Z" fill="#000" fill-rule="evenodd"/>
</svg>