<svg xmlns="http://www.w3.org/2000/svg" viewBox="0 0 128 128" width="128" height="128">
  <path d="M94.7,54.6L91.4,52.9L90.3,52.5L89.3,52.1L87.0,51.4L85.5,51.2L84.1,51.2L82.9,51.0L79.3,51.1L77.4,51.7L76.7,51.7L75.3,52.2L71.8,53.7L71.3,54.2L69.6,55.1L68.8,55.7L68.0,56.5L67.8,56.5L65.3,59.1L64.2,60.6L62.7,63.4L61.4,66.6L61.2,67.5L60.8,69.0L60.1,73.6L59.9,80.1L59.9,84.0L59.7,86.1L59.8,102.6L59.6,109.3L59.7,109.7L60.0,110.0L60.8,110.1L62.8,110.1L63.2,109.7L63.2,107.8L63.3,104.1L63.3,95.6L63.5,89.0L63.4,85.8L63.6,82.1L63.5,79.9L63.7,79.3L63.7,75.8L63.9,74.0L64.0,73.5L64.1,71.6L64.5,70.2L64.7,68.8L65.5,66.8L65.6,66.1L66.9,63.6L67.3,63.2L67.8,62.3L69.0,61.0L69.2,60.7L71.4,58.6L74.3,56.8L76.5,55.9L78.5,55.3L81.3,54.8L83.5,54.8L86.2,55.1L89.0,55.8L91.0,56.7L92.3,57.4L94.2,58.8L96.2,60.6L97.6,62.1L99.4,64.7L100.6,67.4L101.1,69.3L101.7,73.0L101.7,75.0L101.3,78.1L100.4,81.1L99.5,83.1L97.6,85.9L96.0,87.7L94.2,89.2L93.0,90.0L89.9,91.7L88.6,92.2L85.8,92.9L83.5,93.2L81.5,93.2L79.3,92.9L77.3,92.4L74.5,91.2L74.0,91.2L73.7,91.2L73.2,91.8L72.5,93.3L72.5,94.0L73.4,94.7L75.0,95.4L76.7,96.0L79.5,96.6L81.7,96.8L85.4,96.7L88.8,96.0L90.7,95.4L93.8,94.0L97.0,91.8L99.7,89.2L100.6,88.2L101.4,86.8L101.8,86.4L102.8,84.6L104.1,81.8L104.4,80.3L104.8,79.3L105.2,77.3L105.4,72.6L105.1,70.6L104.7,69.1L104.7,68.3L104.3,67.4L103.7,65.4L103.3,64.7L103.3,64.5L102.3,62.4L101.1,60.8L99.0,58.2L97.9,57.1L96.4,55.8Z M62.8,9.1L57.6,9.5L52.4,10.4L46.5,12.1L41.2,14.2L36.9,16.6L34.4,18.2L31.2,20.5L28.8,22.4L27.5,23.7L26.9,24.1L26.3,24.9L24.0,27.2L21.3,30.5L21.2,30.9L19.4,33.2L19.3,33.7L18.9,34.0L18.7,34.6L18.3,35.0L15.9,39.5L15.8,39.9L15.0,41.3L14.9,41.7L14.6,42.1L14.5,42.6L13.3,45.5L13.2,46.2L12.8,47.3L12.7,47.8L12.4,48.6L12.3,49.3L11.9,50.5L11.8,51.2L11.4,52.1L11.1,54.5L10.8,55.3L10.4,59.3L10.2,65.8L10.7,70.2L10.8,72.2L11.1,73.4L11.2,74.5L11.4,75.3L11.6,76.6L11.9,77.4L12.7,80.7L14.8,86.4L15.2,87.0L15.3,87.6L16.5,90.0L17.3,91.2L17.7,92.0L18.9,94.2L20.8,96.9L21.4,97.6L21.6,98.0L22.9,99.6L23.2,100.1L25.2,102.3L27.4,104.5L32.0,108.4L36.2,111.3L37.4,111.8L39.1,112.9L42.5,114.6L43.1,114.7L44.7,115.5L47.1,116.3L47.8,116.6L48.4,116.7L50.6,117.4L55.1,118.4L57.7,118.6L58.7,118.9L61.6,119.0L62.6,119.1L64.7,119.1L69.5,118.9L73.6,118.3L74.3,118.1L77.4,117.5L78.8,117.0L79.4,117.0L84.1,115.4L89.9,112.5L91.3,111.7L92.7,110.9L95.4,109.1L100.1,105.3L103.7,101.7L105.9,99.3L109.4,94.3L110.8,91.9L112.7,88.2L114.0,85.2L114.3,84.2L114.9,82.7L115.2,81.8L116.0,79.7L117.3,73.5L118.0,67.2L118.0,62.2L117.9,59.8L117.6,58.6L117.4,55.8L116.3,50.2L114.8,45.4L113.6,42.4L111.3,37.6L109.7,34.8L109.2,34.3L108.8,33.4L108.0,32.5L107.6,31.7L106.3,30.2L105.3,28.7L101.8,24.9L100.6,23.9L99.3,22.7L98.6,22.2L97.5,21.1L97.0,20.8L94.8,19.1L90.5,16.3L89.1,15.7L87.6,14.7L85.3,13.8L83.7,13.0L83.1,12.8L82.8,12.6L80.5,11.9L78.7,11.2L77.7,11.0L75.4,10.3L74.2,10.2L73.7,9.9L71.6,9.8L70.8,9.5L69.5,9.4L67.6,9.4L66.0,9.1Z M59.4,13.3L65.8,13.1L70.3,13.4L71.1,13.7L72.9,13.9L75.6,14.6L76.5,14.7L79.2,15.5L84.1,17.5L88.0,19.4L91.8,21.7L93.4,22.9L97.6,26.3L100.3,29.0L100.7,29.7L103.0,32.1L104.3,34.0L104.7,34.4L107.7,39.2L109.0,41.9L109.3,42.3L111.5,47.7L111.6,48.5L111.9,49.2L111.9,49.5L112.4,50.7L112.6,51.7L112.8,52.2L112.9,53.1L113.1,53.7L113.1,54.2L113.6,55.7L113.8,58.6L114.1,60.7L114.2,67.5L114.0,67.9L114.0,69.7L113.7,70.6L113.6,72.1L113.5,72.5L113.3,74.0L113.1,74.3L112.9,75.9L112.4,77.3L112.0,79.3L111.2,81.3L110.6,83.4L110.3,83.9L110.2,84.4L109.5,85.7L109.3,86.4L109.1,86.7L108.7,87.7L105.9,92.4L105.5,92.8L103.9,95.2L103.4,95.8L101.9,97.7L101.5,98.1L101.0,98.8L97.4,102.4L94.9,104.5L94.5,104.7L90.5,107.6L86.4,109.9L86.0,110.0L83.5,111.3L82.1,111.7L80.5,112.5L79.5,112.7L79.1,112.9L73.3,114.4L71.7,114.6L70.9,114.8L69.6,114.9L69.1,115.0L67.9,115.0L66.0,115.3L62.7,115.3L58.8,115.0L54.3,114.3L49.2,113.0L47.6,112.4L46.4,112.1L46.1,111.8L43.4,110.8L39.3,108.7L35.6,106.4L31.6,103.3L27.7,99.6L27.5,99.2L25.5,97.1L21.6,91.6L20.6,90.0L20.4,89.3L20.1,88.9L17.9,84.3L16.1,79.5L16.0,78.5L15.2,75.9L15.2,75.4L14.7,73.5L14.3,71.1L14.2,69.3L14.0,68.2L13.9,62.2L14.2,57.9L15.3,52.2L15.7,50.6L16.1,49.6L16.1,48.9L17.9,44.2L19.7,40.4L22.5,35.5L23.1,34.8L23.7,33.9L24.6,32.8L25.2,31.9L27.9,28.8L30.8,25.9L31.0,25.9L32.0,24.9L36.9,21.2L40.6,19.1L42.8,17.9L43.6,17.7L44.0,17.4L45.2,17.0L45.9,16.6L51.1,14.8L52.5,14.6L53.1,14.3L54.1,14.2L55.0,13.9Z" fill="#000" fill-rule="evenodd"/>
</svg>