<svg xmlns="http://www.w3.org/2000/svg" viewBox="0 0 128 128" width="128" height="128">
  <path d="M107.0,28.1L104.0,25.3L102.5,24.2L101.6,23.4L98.2,21.2L97.8,20.7L96.9,20.4L92.8,18.1L90.7,17.3L89.7,17.0L88.7,16.5L86.8,16.0L85.0,15.3L80.6,14.4L78.2,14.2L75.1,13.8L71.7,13.6L53.2,13.7L50.3,13.9L15.4,14.1L9.7,14.3L9.3,14.6L9.3,22.1L9.6,39.0L9.5,46.6L9.7,63.6L9.9,66.7L9.8,93.7L9.9,99.6L9.9,113.6L10.3,114.1L10.9,114.3L19.1,114.3L22.3,114.1L25.6,114.3L33.0,114.2L52.9,114.5L55.9,114.4L72.5,114.7L72.9,114.5L73.1,114.0L72.8,103.2L72.9,102.3L73.5,101.6L74.0,101.5L76.7,101.7L82.4,101.4L85.6,101.0L85.7,100.8L87.5,100.5L87.7,100.4L88.9,100.2L91.5,99.4L94.5,98.1L97.9,96.4L101.6,94.0L104.2,91.8L104.5,91.7L108.8,87.4L109.3,86.6L110.6,85.2L112.5,82.3L114.9,78.0L116.7,73.8L117.7,70.5L118.0,68.7L118.4,67.1L118.9,62.2L119.0,57.9L118.8,56.8L118.7,53.2L117.4,47.0L116.3,43.6L116.2,43.0L115.2,40.3L114.5,39.1L113.7,37.3L113.3,36.8L112.5,35.2L110.0,31.5Z M73.5,29.4L77.4,29.9L78.0,30.2L79.2,30.3L81.2,31.1L82.3,31.4L85.6,33.0L86.2,33.6L87.5,34.3L89.9,36.5L90.8,37.5L92.3,39.6L93.7,42.2L94.6,45.7L94.7,49.8L94.4,51.6L94.1,52.7L94.1,53.2L92.9,56.1L91.4,58.4L88.7,61.1L86.5,62.6L84.0,63.7L80.6,64.7L77.4,65.0L73.6,64.9L73.0,64.7L72.7,64.2L72.4,43.2L72.5,30.0L72.9,29.5Z M68.1,29.3L69.4,29.4L70.1,29.8L70.3,32.0L70.2,43.0L70.4,43.8L70.3,62.0L70.5,80.6L70.3,89.7L70.5,98.2L70.4,98.5L70.1,98.9L69.6,99.0L66.0,98.5L64.3,98.0L63.3,97.9L60.8,97.1L60.0,97.0L59.3,96.6L57.4,96.0L52.0,93.3L49.1,91.3L46.7,89.3L44.5,87.1L41.9,84.0L41.4,83.0L40.0,81.2L38.6,78.7L37.2,75.7L36.3,73.3L35.6,70.3L35.5,68.7L35.1,66.2L35.1,62.7L35.6,58.9L35.8,58.1L36.0,56.2L36.4,55.0L37.2,51.8L39.7,46.4L40.0,46.1L41.7,43.2L43.6,41.0L46.6,37.8L49.1,35.7L53.0,33.3L57.3,31.4L60.7,30.3L62.0,30.2L62.6,29.9L63.1,29.9L64.5,29.5L65.2,29.5Z M106.2,30.5L108.4,33.1L108.6,33.6L110.1,35.6L112.1,39.1L114.0,43.2L115.4,47.3L116.4,52.5L116.7,56.6L116.7,61.8L116.5,63.7L116.4,65.8L116.0,67.4L115.9,68.7L115.6,69.3L115.3,70.9L115.0,71.4L114.2,73.9L114.0,74.2L112.7,77.5L112.3,77.9L111.6,79.4L110.4,81.1L110.0,82.0L109.3,82.7L109.2,83.2L108.6,83.7L107.4,85.3L105.3,87.7L102.4,90.3L101.5,91.3L100.0,92.1L99.0,93.0L97.4,93.9L96.1,94.5L95.8,94.9L94.7,95.5L94.3,95.6L91.7,96.9L91.3,96.9L89.9,97.5L88.5,97.8L88.0,98.1L87.1,98.2L85.9,98.6L83.5,99.0L81.8,99.1L80.1,99.4L74.3,99.4L73.5,99.2L72.9,98.8L72.7,94.1L72.8,84.7L72.6,78.9L72.8,67.5L73.4,67.1L77.6,67.1L81.9,66.6L82.9,66.1L84.0,66.0L87.6,64.5L89.6,63.2L91.2,61.9L92.9,60.2L93.7,59.1L94.0,58.5L94.6,57.8L95.0,56.9L95.8,55.6L96.1,54.1L96.5,53.4L96.9,51.2L97.1,48.5L97.1,46.9L96.7,44.4L96.3,42.5L95.9,41.8L95.8,41.0L94.4,38.3L93.9,37.9L93.6,37.2L92.8,36.2L90.7,34.1L88.3,32.2L86.1,30.8L84.0,29.7L82.5,29.3L81.4,28.8L80.6,28.7L79.9,28.3L79.0,28.2L77.2,27.7L76.5,27.7L73.4,27.2L67.2,27.2L64.4,27.5L60.1,28.2L57.3,29.0L55.9,29.6L55.4,29.7L54.3,30.3L52.7,30.9L48.9,33.2L45.8,35.6L44.0,37.2L43.8,37.6L42.0,39.3L39.1,43.0L37.2,46.4L36.0,48.9L35.6,50.2L35.1,51.0L34.9,52.1L34.6,52.6L34.5,53.3L33.9,55.0L33.6,57.2L33.2,58.4L32.9,62.0L32.8,65.3L33.1,69.4L33.9,72.9L34.9,76.2L35.3,76.8L35.6,77.7L38.1,82.5L40.2,85.5L42.2,87.9L43.8,89.7L46.6,92.2L50.5,95.0L52.0,95.8L52.3,96.0L54.5,97.1L55.3,97.6L58.5,98.6L58.6,98.8L61.3,99.6L61.6,99.6L61.9,99.8L63.3,100.0L65.1,100.5L69.6,101.2L70.4,101.8L70.6,103.1L70.5,104.1L70.7,106.7L70.6,112.1L70.2,112.4L69.7,112.5L57.6,112.4L56.6,112.2L47.1,112.1L40.7,112.2L31.0,112.0L21.1,112.0L20.6,112.1L19.8,112.1L19.2,112.0L13.8,112.0L13.2,112.0L12.6,111.5L12.4,105.2L12.4,96.6L12.2,88.2L12.3,84.0L12.0,72.5L12.1,68.5L11.9,65.8L11.9,43.8L11.8,40.0L11.7,16.9L12.3,16.5L12.8,16.4L30.2,16.1L41.7,16.2L44.1,16.0L48.9,16.1L50.5,16.0L58.5,16.0L61.5,15.8L72.4,15.8L79.2,16.4L83.1,17.1L85.5,17.9L86.2,18.0L89.2,19.0L91.3,20.1L91.9,20.2L92.2,20.5L93.7,21.2L94.3,21.6L96.5,22.8L98.9,24.4L100.0,25.0L103.6,27.9Z" fill="#000" fill-rule="evenodd"/>
</svg>