<svg xmlns="http://www.w3.org/2000/svg" viewBox="0 0 128 128" width="128" height="128">
  <path d="M75.6,46.3L73.0,44.2L70.4,42.7L66.9,41.3L66.1,41.2L65.0,40.8L62.8,40.4L60.5,40.2L37.1,40.2L36.3,40.4L14.3,40.4L14.0,40.6L13.8,41.1L13.7,42.8L13.7,59.0L13.9,71.4L13.8,116.0L13.9,117.9L14.2,118.6L21.9,118.8L32.6,118.8L35.5,118.6L35.9,118.2L36.0,58.8L36.1,58.5L36.7,58.0L46.0,57.8L59.0,57.8L59.6,58.0L60.5,58.0L62.1,58.5L63.3,59.3L64.4,60.3L65.3,61.9L65.7,63.7L65.7,65.0L65.2,66.6L64.6,67.7L63.4,69.2L61.9,70.0L60.7,70.4L59.2,70.6L47.4,70.6L46.6,70.7L46.4,70.9L46.2,71.4L46.1,74.6L46.1,84.8L46.3,87.7L46.7,88.2L48.3,88.4L54.7,88.4L60.8,88.4L62.8,88.1L63.6,87.8L64.9,87.7L68.2,86.7L72.2,84.7L73.3,83.9L73.8,83.7L75.9,82.0L77.6,80.3L80.5,76.5L81.9,73.7L82.3,72.6L82.6,71.5L82.8,71.1L83.4,68.9L83.7,66.4L83.8,63.3L83.6,62.5L83.5,60.2L83.1,59.0L83.0,58.1L82.5,56.9L82.3,55.9L82.0,55.4L82.0,55.1L81.1,53.2L80.1,51.5L78.5,49.3Z M72.8,10.9L67.3,9.9L63.9,9.5L61.6,9.5L59.2,9.3L50.4,9.4L46.2,9.6L45.9,10.1L45.8,10.8L45.8,29.1L46.0,29.4L46.5,29.6L57.2,29.5L60.2,29.8L60.7,29.7L61.3,29.9L62.9,29.9L65.8,30.3L66.5,30.6L67.5,30.7L68.4,31.0L69.5,31.2L70.4,31.6L72.4,32.2L78.1,35.1L78.9,35.8L80.7,37.0L83.5,39.4L86.0,42.1L88.7,45.6L90.8,49.4L91.4,51.1L91.6,51.3L91.9,52.6L92.7,54.6L93.3,57.6L93.6,58.3L93.9,61.8L94.0,64.9L93.7,69.2L93.1,72.6L92.3,74.9L92.1,75.8L90.8,78.8L89.8,80.8L89.1,81.7L88.7,82.6L87.9,83.5L87.3,84.7L86.0,86.3L82.4,90.0L80.1,91.9L77.6,93.5L76.9,93.8L75.8,94.5L72.8,96.0L70.3,96.9L65.4,98.1L61.4,98.6L48.2,98.6L47.0,98.7L46.2,99.2L46.1,116.8L46.2,118.1L46.5,118.6L46.7,118.8L50.7,119.0L61.7,119.0L66.5,118.6L67.0,118.5L70.3,118.0L74.5,117.0L75.5,116.5L76.2,116.4L80.9,114.8L81.7,114.2L82.5,114.1L84.1,113.2L84.5,113.1L84.8,112.8L85.3,112.7L85.6,112.4L86.5,112.0L86.7,111.8L88.0,111.2L88.9,110.5L89.5,110.2L89.9,109.8L90.2,109.8L93.7,107.2L97.1,104.3L99.6,101.8L101.2,99.9L101.5,99.6L101.6,99.4L102.8,98.0L105.0,95.0L107.8,90.6L109.7,86.9L110.7,84.5L110.9,83.4L111.4,82.7L113.1,77.2L114.1,71.9L114.6,66.2L114.5,60.8L113.8,55.1L113.4,53.3L113.3,52.2L112.9,50.9L112.7,49.7L111.2,45.1L110.3,42.9L109.4,41.1L109.4,40.7L108.2,38.7L107.8,37.6L106.4,35.6L106.0,34.6L103.1,30.6L99.7,26.6L96.4,23.4L92.2,19.9L88.5,17.5L84.7,15.3L82.2,14.3L82.0,14.0L81.3,13.8L80.6,13.4L79.9,13.3L79.3,13.0L78.5,12.8L78.2,12.5L77.6,12.4Z" fill="#000" fill-rule="evenodd"/>
</svg>