<svg xmlns="http://www.w3.org/2000/svg" viewBox="0 0 128 128" width="128" height="128">
  <path d="M63.6,22.5L63.1,22.5L62.2,23.9L61.8,24.9L60.5,27.0L59.6,28.8L58.5,30.4L57.8,31.9L55.2,36.3L54.7,37.3L54.5,37.6L54.3,38.1L53.3,39.7L52.0,42.1L51.6,42.6L49.4,46.5L48.8,47.8L47.7,49.4L47.0,50.9L45.4,53.5L45.3,53.9L44.9,54.4L44.3,55.7L43.1,57.5L42.9,58.0L41.8,59.8L41.2,61.1L38.3,65.9L37.8,67.0L37.1,67.9L36.1,70.0L35.4,70.9L35.0,71.8L33.7,73.8L33.5,74.5L33.2,74.7L33.0,75.4L32.7,75.6L31.2,78.5L31.0,78.8L29.8,81.0L27.5,84.8L27.6,85.3L38.2,85.3L38.4,85.2L39.0,84.6L39.2,84.1L39.8,83.1L42.4,78.2L43.3,76.9L44.3,75.0L44.7,74.5L44.9,74.1L45.7,72.8L46.8,70.6L47.4,69.9L47.7,69.1L48.0,68.8L49.4,66.2L50.6,64.4L53.8,58.4L54.2,57.9L54.4,57.4L55.1,56.4L55.4,55.7L55.7,55.4L56.8,53.4L57.5,52.3L57.5,52.1L58.1,51.1L58.3,50.6L58.8,50.0L62.0,44.3L62.5,43.6L62.6,43.0L62.9,42.8L63.3,41.9L63.6,41.6L64.7,39.4L65.7,37.9L65.8,37.6L68.9,32.1L68.7,31.2L68.2,30.3L67.4,29.1L67.0,28.1L66.6,27.7L65.1,25.1L64.6,24.0Z M56.3,9.8L50.8,10.9L49.3,11.4L48.0,11.6L45.8,12.4L45.2,12.5L43.2,13.4L42.8,13.4L42.2,13.8L41.7,13.9L40.5,14.6L38.9,15.2L36.9,16.3L36.7,16.5L36.2,16.7L32.4,19.0L28.1,22.3L23.6,26.7L21.4,29.2L19.0,32.2L18.7,32.9L17.7,34.2L16.9,35.7L16.4,36.3L14.1,40.7L14.0,41.1L13.6,41.7L13.1,43.4L12.4,44.8L10.7,50.2L10.4,52.2L10.0,53.4L10.0,54.4L9.6,55.7L9.5,57.9L9.2,59.2L9.1,65.3L9.8,72.4L10.2,74.4L10.4,74.9L10.6,76.2L11.0,77.5L11.1,78.3L11.8,80.3L11.9,80.9L14.2,86.7L16.9,91.7L17.4,92.4L18.3,93.9L21.2,97.9L24.7,101.9L28.5,105.5L32.5,108.6L37.6,111.8L42.5,114.3L43.0,114.3L43.5,114.7L44.0,114.7L44.7,115.2L46.1,115.6L47.1,116.0L51.8,117.3L56.0,118.2L60.3,118.7L66.4,118.8L67.5,118.7L69.3,118.7L71.1,118.3L72.0,118.3L73.0,118.0L74.5,117.8L78.7,116.9L80.0,116.4L81.7,116.0L82.6,115.6L83.2,115.5L83.5,115.2L85.2,114.7L85.8,114.3L88.3,113.2L88.7,112.9L90.0,112.3L91.1,111.6L91.8,111.3L92.8,110.6L94.0,110.0L99.1,106.4L101.8,104.0L105.4,100.3L108.5,96.4L109.8,94.6L110.4,93.5L111.3,92.4L111.4,91.9L112.2,90.8L112.8,89.4L113.5,88.5L113.6,88.0L114.4,86.6L114.6,85.7L115.0,84.7L115.3,84.5L115.9,82.4L116.2,82.0L116.7,80.3L116.9,79.3L117.1,78.9L117.2,78.2L117.6,77.1L118.6,71.9L119.1,67.3L119.1,61.8L118.9,59.2L118.7,58.2L118.5,55.9L117.6,51.1L115.8,45.2L115.4,44.7L115.4,44.2L114.6,42.6L114.4,41.8L114.0,41.2L113.9,40.8L113.6,40.4L112.3,37.8L111.9,37.1L111.6,36.5L110.9,35.6L110.6,35.0L109.4,33.1L106.4,29.2L104.7,27.3L100.9,23.5L98.6,21.6L96.2,19.8L91.6,16.8L86.1,14.0L85.2,13.7L84.8,13.4L84.3,13.3L83.5,12.9L83.0,12.8L82.9,12.7L81.9,12.4L81.3,12.1L76.9,10.9L71.2,9.8L67.9,9.5L61.2,9.4L58.1,9.7L57.4,9.8Z M55.5,19.8L57.9,19.6L59.0,19.4L61.3,19.2L66.7,19.2L67.3,19.4L69.4,19.4L69.9,19.6L72.1,19.8L77.3,21.1L80.4,22.4L80.9,22.5L85.9,24.8L87.6,26.0L89.0,26.7L91.4,28.4L94.2,30.7L97.4,33.8L100.2,37.2L100.9,38.1L101.1,38.6L102.7,40.8L103.1,41.8L104.0,43.1L104.4,44.2L105.4,46.1L106.0,47.7L106.2,48.0L106.4,48.7L107.2,50.8L108.4,55.7L108.7,57.7L109.0,59.2L109.1,61.4L109.3,62.4L109.0,69.5L108.7,70.9L108.6,72.2L107.3,77.6L106.5,79.7L106.0,81.3L104.1,85.2L103.9,85.4L102.4,88.1L101.9,88.7L101.8,89.0L101.0,90.0L100.0,91.6L97.3,94.8L93.6,98.3L90.0,101.1L89.6,101.2L88.0,102.5L86.1,103.4L85.9,103.7L81.0,106.0L80.3,106.2L80.0,106.4L78.5,106.9L77.1,107.4L75.9,107.7L73.8,108.3L72.7,108.4L70.9,108.8L69.0,108.9L68.6,108.6L68.4,107.9L68.5,105.7L68.2,51.7L68.5,51.3L68.9,51.4L69.2,51.8L69.8,52.8L70.2,53.3L70.6,54.2L72.1,56.6L75.4,62.4L76.2,63.5L77.3,65.7L79.1,68.5L79.6,69.7L80.0,70.1L80.8,71.6L82.5,74.4L83.0,75.5L83.0,75.8L82.7,76.0L82.1,76.1L71.6,76.1L71.2,76.2L71.0,76.8L71.0,84.6L71.2,85.5L71.6,85.8L99.2,85.8L100.1,85.5L100.1,85.2L97.2,80.2L96.5,79.2L95.1,76.6L94.3,75.4L94.1,74.9L92.5,72.3L90.9,69.2L88.6,65.6L85.9,60.7L84.2,58.0L83.6,56.8L82.6,55.2L81.7,53.6L81.3,53.1L80.8,52.1L79.6,50.1L79.5,49.8L78.5,48.2L77.8,46.6L77.2,45.9L76.9,45.2L74.8,41.8L74.6,41.2L74.2,40.7L73.5,39.4L71.9,36.8L71.5,35.8L70.9,35.1L70.4,35.1L70.2,35.3L58.6,55.7L58.5,64.6L58.7,67.5L58.6,73.7L58.9,108.2L58.8,108.5L58.5,108.8L57.7,108.9L56.4,108.7L53.5,108.0L52.4,107.8L49.4,106.9L48.8,106.6L48.2,106.5L46.7,105.8L45.9,105.6L44.7,104.9L44.3,104.8L43.7,104.4L43.2,104.2L42.7,103.8L41.7,103.4L41.2,103.0L40.2,102.6L35.5,99.3L33.3,97.3L31.1,95.1L29.0,92.8L26.8,89.8L26.8,89.7L25.3,87.6L24.8,86.5L24.2,85.7L22.3,81.8L22.2,81.1L21.8,80.6L21.3,78.9L21.0,78.4L20.9,77.9L20.4,76.3L19.3,71.8L18.7,67.1L18.7,62.0L18.9,61.1L19.0,58.5L19.6,54.6L20.5,51.1L22.3,46.1L23.1,44.5L23.5,44.1L23.7,43.3L26.8,38.1L27.1,37.9L29.2,35.0L32.9,31.2L36.1,28.5L37.1,27.8L39.2,26.3L41.0,25.2L41.5,25.1L41.8,24.7L44.3,23.4L45.0,23.3L45.4,22.9L46.7,22.5L48.2,21.8L52.3,20.6Z" fill="#000" fill-rule="evenodd"/>
</svg>