<svg xmlns="http://www.w3.org/2000/svg" viewBox="0 0 128 128" width="128" height="128">
  <path d="M59.1,67.5L40.8,67.4L38.4,67.6L36.4,68.0L34.2,69.0L32.3,70.1L30.1,72.2L28.6,74.2L27.8,75.7L26.9,78.4L26.6,79.8L26.6,83.2L26.9,85.1L27.5,87.2L29.3,90.3L31.3,92.6L33.4,94.3L35.6,95.4L36.5,95.6L37.7,96.1L39.1,96.4L42.0,96.5L44.8,96.1L46.7,95.4L48.4,94.6L49.0,94.0L49.5,93.8L52.1,91.4L53.3,90.0L54.4,87.8L55.0,86.0L55.7,82.6L56.0,82.2L56.5,82.0L59.3,82.0L59.6,81.7L59.6,68.4L59.5,67.9Z M66.9,34.7L66.7,35.2L66.8,48.5L67.0,48.8L67.5,49.0L70.3,49.0L70.7,49.4L70.9,49.7L71.1,51.7L72.3,55.1L73.8,57.2L74.0,57.8L75.3,59.2L76.5,60.2L78.4,61.5L79.9,62.2L81.3,62.7L83.9,63.2L86.6,63.2L89.9,62.6L90.1,62.4L90.6,62.3L91.9,61.7L94.2,60.3L95.2,59.4L96.6,58.0L98.3,55.4L99.4,52.5L99.7,49.5L99.7,46.4L99.4,45.1L98.5,42.6L97.3,40.5L96.5,39.6L94.4,37.5L92.6,36.2L90.5,35.2L88.3,34.5L85.7,34.2L70.8,34.2L67.5,34.3Z M118.1,12.0L117.8,11.7L117.3,11.6L110.1,11.6L101.7,11.8L96.9,11.8L95.5,11.6L75.7,11.8L58.7,11.8L48.8,11.6L18.2,11.6L10.6,11.7L9.9,11.9L9.6,12.2L9.4,12.8L9.5,17.2L9.3,20.8L9.8,114.0L9.9,115.5L10.1,115.9L10.9,116.1L21.9,116.4L22.6,116.3L26.0,116.4L31.0,116.4L31.7,116.1L32.3,116.5L41.8,116.5L50.5,116.7L79.5,116.7L87.8,116.5L97.1,116.5L102.2,116.4L109.5,116.4L112.1,116.2L117.2,116.2L118.4,116.0L118.8,115.6L118.8,115.2L118.9,91.8L118.8,73.8L118.8,71.3L118.4,43.1L118.5,40.6L118.3,12.5Z M98.5,35.9L100.1,37.8L101.2,39.5L102.2,41.6L102.9,43.4L103.6,46.8L103.5,51.6L102.7,54.7L102.0,56.7L100.0,59.9L97.3,62.8L95.6,64.1L95.0,64.4L93.9,65.2L92.6,65.8L90.6,66.4L86.3,67.2L84.5,67.2L81.3,66.8L78.6,65.9L77.5,65.2L77.2,65.2L74.4,63.6L72.2,61.6L70.4,59.5L69.4,58.0L68.6,56.5L67.6,54.0L67.4,52.7L67.1,52.1L66.9,52.1L66.7,57.7L66.7,66.0L67.1,98.7L67.0,99.7L66.7,100.1L66.1,100.3L60.7,100.3L60.4,100.2L59.9,99.7L59.7,95.1L59.6,85.1L59.2,84.8L58.9,86.8L58.7,87.0L58.0,89.4L56.9,91.4L55.0,94.1L53.2,96.1L51.1,97.5L49.6,98.5L48.9,98.6L47.1,99.6L44.9,100.1L42.8,100.4L40.0,100.4L36.6,99.8L34.7,99.2L34.3,98.9L32.6,98.3L31.5,97.6L29.5,96.2L27.0,93.8L25.3,91.4L25.0,90.7L24.2,89.3L23.3,87.0L22.6,83.4L22.6,79.8L23.2,76.9L24.1,74.4L25.7,71.4L27.6,69.1L29.8,67.2L31.4,66.1L34.8,64.4L35.9,64.2L36.7,63.9L40.1,63.4L57.6,63.4L58.9,63.3L59.4,62.8L59.4,44.7L59.2,37.4L59.3,35.6L59.2,34.6L58.7,34.3L56.0,34.2L44.9,34.3L41.3,34.2L40.7,33.9L40.5,33.3L40.5,31.2L41.1,30.7L45.4,30.5L71.4,30.5L77.4,30.3L86.7,30.3L89.1,30.7L92.9,31.9L95.1,33.1L96.2,34.1L96.4,34.1Z" fill="#000" fill-rule="evenodd"/>
</svg>