<svg xmlns="http://www.w3.org/2000/svg" viewBox="0 0 128 128" width="128" height="128">
  <path d="M47.2,9.5L46.5,9.9L45.9,10.6L45.6,11.3L45.5,12.6L45.6,15.1L45.4,43.6L45.1,44.0L44.8,44.1L32.6,43.9L32.2,44.1L32.0,45.3L32.0,57.2L32.3,57.7L32.7,57.8L44.2,58.0L44.9,58.2L45.3,58.6L45.5,59.5L45.3,70.9L45.0,71.3L44.5,71.5L33.0,71.3L32.4,71.4L32.1,71.6L32.0,72.1L31.9,74.5L32.0,84.5L32.4,84.9L33.6,85.0L42.1,85.1L44.4,85.2L44.9,85.5L45.3,85.9L45.3,108.9L45.2,113.6L45.5,116.1L46.0,117.2L46.7,118.1L48.0,118.5L54.2,118.5L61.2,118.8L63.7,118.7L65.5,118.8L66.4,118.8L77.2,119.0L79.5,118.9L86.8,119.2L91.9,119.1L93.8,118.6L94.3,118.2L94.9,117.6L95.3,116.7L95.6,115.3L95.7,115.0L95.8,113.6L95.7,108.3L95.9,103.9L95.8,90.8L96.0,89.1L96.0,77.1L95.7,75.4L95.2,74.1L94.3,73.2L93.9,72.9L92.9,72.5L91.5,72.2L82.5,72.2L75.0,71.9L67.9,71.9L65.7,71.8L64.4,71.9L60.3,71.7L59.8,71.3L59.6,70.8L59.5,59.6L59.6,58.9L59.9,58.5L60.4,58.3L90.1,58.8L92.9,58.6L93.9,58.3L94.6,58.0L95.1,57.5L95.7,56.5L96.0,55.7L96.1,53.3L96.0,50.5L96.1,40.6L96.3,35.7L96.3,14.1L96.0,12.7L95.7,11.7L95.4,11.2L94.7,10.5L93.5,9.9L91.5,9.7L68.7,9.5L67.1,9.3L65.2,9.4L53.0,9.1L48.5,9.1Z M59.9,85.8L60.3,85.5L65.2,85.5L68.5,85.6L73.7,85.6L74.6,85.8L76.9,85.9L79.0,85.8L80.7,85.9L81.3,86.1L82.0,87.1L82.1,87.7L82.0,104.5L81.6,104.9L81.2,105.0L76.9,105.0L71.2,104.8L67.7,104.8L60.8,104.7L60.2,104.5L59.6,103.8L59.7,95.7L59.7,86.2Z M59.8,23.5L60.3,23.2L60.7,23.1L66.4,23.1L67.2,23.2L73.0,23.2L75.4,23.4L80.7,23.5L81.9,23.9L82.0,24.0L82.3,25.1L82.2,43.9L82.0,44.3L81.5,44.6L77.7,44.7L75.0,44.6L73.4,44.6L60.0,44.3L59.8,44.1L59.6,43.5L59.5,41.8L59.6,33.9L59.6,24.9Z" fill="#000" fill-rule="evenodd"/>
</svg>