<svg xmlns="http://www.w3.org/2000/svg" viewBox="0 0 128 128" width="128" height="128">
  <path d="M74.5,9.3L73.2,9.0L70.2,9.0L69.1,9.2L66.5,10.1L66.0,10.4L65.1,10.7L63.5,11.7L60.6,14.2L58.8,16.0L56.1,19.6L53.5,24.3L53.3,24.8L52.6,26.0L52.4,26.8L51.8,28.0L51.6,28.9L50.6,31.1L50.4,32.1L50.1,32.7L50.0,33.3L49.3,35.4L49.1,36.3L49.0,36.5L48.1,40.0L47.9,41.0L47.6,42.0L47.6,42.9L47.4,43.4L47.3,43.5L47.2,44.7L46.7,46.4L46.7,47.2L46.4,48.1L46.2,49.6L45.9,50.6L45.8,52.0L45.5,53.1L45.3,55.2L45.0,57.8L44.8,58.4L44.9,59.5L44.7,60.5L44.6,62.7L44.4,63.9L44.4,64.7L44.2,65.2L44.2,66.6L43.8,69.7L43.7,73.2L43.5,73.6L43.2,82.1L43.0,82.6L42.9,87.1L42.7,87.7L42.4,99.4L42.2,100.0L41.8,100.4L37.6,103.4L36.0,104.4L36.1,104.7L36.5,104.8L39.6,104.4L39.8,104.2L42.0,104.0L42.3,104.2L42.3,108.6L42.1,110.1L42.1,113.9L42.0,115.3L42.0,116.8L41.8,117.3L41.9,118.5L42.0,118.9L42.3,119.1L44.2,119.1L45.3,119.3L60.0,119.1L63.4,119.2L67.0,119.1L67.3,118.8L67.4,117.8L67.2,116.7L67.0,111.5L66.8,109.9L66.9,109.0L66.6,105.4L66.6,102.8L66.3,99.3L66.4,95.6L66.6,95.2L69.6,93.2L70.1,93.0L72.2,91.4L74.5,89.8L79.2,86.0L82.4,83.0L82.9,82.2L84.8,80.2L87.3,76.6L88.5,74.5L88.9,74.0L89.9,71.9L91.0,68.8L91.2,68.1L91.4,67.7L91.5,66.5L91.9,65.3L92.3,61.7L92.3,59.0L92.1,57.8L92.1,56.9L91.8,55.1L91.5,54.3L91.4,53.5L91.2,53.2L91.1,52.6L90.3,50.8L90.1,50.2L89.9,49.9L89.4,48.9L89.3,48.5L88.5,47.0L87.6,45.7L85.7,43.3L83.6,41.2L81.8,39.8L80.4,38.8L80.1,38.8L79.8,38.5L77.8,37.4L73.9,35.6L72.6,35.1L71.6,34.5L71.6,34.2L71.8,34.1L72.8,33.8L74.0,33.2L75.5,32.1L77.7,30.1L78.9,28.4L79.4,28.0L80.1,28.2L82.2,29.3L83.9,30.5L86.3,31.9L86.8,31.9L86.8,31.2L86.1,30.4L85.2,29.0L83.2,26.5L81.3,23.5L81.0,22.7L81.1,22.4L82.1,21.5L82.7,21.1L83.4,20.5L84.8,19.6L85.1,19.2L86.8,17.9L89.0,16.3L89.5,15.8L89.5,15.5L88.6,15.5L88.0,15.8L86.3,16.2L85.4,16.6L83.9,17.1L82.7,17.6L81.7,17.8L81.3,17.2L81.1,16.1L80.7,14.7L80.2,13.8L79.0,12.2L78.2,11.3L77.2,10.6L75.4,9.6Z M70.6,46.6L70.9,46.9L71.9,48.9L72.4,50.4L72.7,50.8L73.2,52.4L73.4,53.2L73.6,53.7L73.7,55.5L74.0,56.9L74.0,62.7L73.2,68.3L72.8,70.2L72.4,71.3L72.3,71.9L72.1,72.3L71.5,74.4L70.6,76.3L69.3,78.4L69.0,78.6L67.9,80.0L67.4,80.2L67.2,80.1L67.2,74.3L67.4,73.7L67.5,71.3L67.7,69.9L67.7,68.6L67.8,67.9L67.9,65.8L68.1,65.4L68.1,64.5L68.3,62.9L68.4,61.0L68.8,57.8L68.8,56.2L69.1,54.7L69.6,50.3L69.9,49.6L70.2,47.4L70.3,46.8Z M75.1,14.6L76.0,14.7L76.9,15.5L76.9,16.5L76.1,17.3L74.9,17.3L74.1,16.7L74.0,16.1L74.0,15.5L74.8,14.8Z" fill="#000" fill-rule="evenodd"/>
</svg>