<svg xmlns="http://www.w3.org/2000/svg" viewBox="0 0 128 128" width="128" height="128">
  <path d="M13.8,110.4L15.0,110.4L14.8,110.0L14.1,110.1Z M10.9,110.4L12.0,110.4L12.0,110.2L11.8,110.0L11.4,110.0Z M20.4,110.4L22.5,110.4L22.1,110.0L21.8,109.9L20.8,110.0L20.5,110.1Z M16.5,110.4L19.0,110.4L18.4,109.9L17.4,109.9L16.9,110.1Z M83.7,76.5L83.8,76.7L84.3,76.8L90.5,76.7L92.3,76.4L93.8,75.9L94.7,75.3L95.3,75.1L96.4,74.3L97.1,74.1L98.2,73.2L99.5,72.4L101.3,70.8L103.4,69.4L103.7,69.1L103.6,68.6L100.5,68.4L95.5,68.4L88.6,68.1L86.7,68.2L86.4,68.4L86.2,68.7L85.9,70.9L85.4,72.4L84.6,74.2L84.6,74.4L83.7,76.0Z M84.3,58.1L85.0,59.4L85.8,61.7L86.2,63.9L86.4,66.1L86.7,66.4L87.6,66.6L89.0,66.5L92.2,66.6L98.1,66.6L99.7,66.4L102.1,65.6L102.5,65.2L103.1,65.1L104.0,64.4L105.4,63.7L107.7,62.0L110.7,60.0L112.7,58.3L112.6,57.9L110.8,57.8L100.2,57.6L95.2,57.7L92.5,57.5L84.8,57.5L84.4,57.7Z M35.1,29.9L34.8,29.6L33.0,29.1L30.8,28.1L30.1,28.0L28.1,27.0L27.4,26.8L26.3,26.3L26.0,26.3L24.3,25.8L22.3,25.8L21.5,25.9L19.3,26.7L17.9,27.0L17.6,27.2L15.6,27.7L15.0,28.1L13.5,28.4L12.1,28.9L11.1,29.1L11.0,29.4L11.7,29.6L13.7,29.9L16.0,30.1L17.9,30.5L19.5,30.6L19.8,30.9L19.3,31.2L16.0,31.9L12.6,32.0L10.2,31.8L9.1,31.9L9.1,32.0L9.6,32.3L16.6,34.7L18.8,35.1L20.3,35.1L21.3,35.0L22.4,34.6L22.5,34.4L23.1,34.4L23.2,34.2L24.1,34.0L25.8,33.1L27.2,32.7L28.4,32.0L28.9,32.0L30.2,31.4L30.6,31.4L30.9,31.2L35.0,30.2Z M119.1,46.4L118.7,46.3L116.8,46.2L109.8,46.2L104.1,46.0L97.3,46.1L93.0,46.0L68.1,46.1L63.3,46.0L58.9,46.4L57.2,46.8L54.4,47.7L53.8,48.1L53.3,48.6L53.0,49.4L52.8,51.8L52.6,52.3L52.4,55.9L52.1,57.7L52.1,59.5L52.3,59.6L52.5,59.6L54.1,58.3L54.5,58.2L54.9,57.9L55.3,57.9L56.1,57.4L57.2,57.1L60.5,57.0L62.6,57.5L62.9,57.9L64.2,58.4L65.1,59.0L66.7,60.8L67.6,62.3L68.0,63.6L68.3,64.9L68.2,67.4L67.7,69.1L66.6,71.1L66.1,71.8L65.0,72.8L63.4,73.9L61.6,74.6L60.8,74.7L58.6,74.8L56.5,74.4L54.1,73.3L53.0,72.5L51.9,71.2L51.0,69.9L50.6,69.0L50.2,67.4L50.1,66.0L50.2,61.0L50.5,58.9L50.7,54.8L50.9,53.7L50.9,52.8L51.2,51.7L51.2,50.8L51.5,48.1L51.6,47.7L51.9,45.6L52.1,44.9L52.3,42.5L52.5,42.3L52.6,40.7L52.9,39.9L53.0,38.8L53.5,35.6L53.7,32.7L54.0,30.6L54.0,28.2L53.6,25.5L52.6,22.7L52.2,21.7L50.8,19.6L50.4,19.2L50.1,19.0L49.7,19.0L49.5,19.7L49.5,20.4L49.1,22.3L48.8,22.6L48.8,23.1L48.3,23.4L45.3,23.0L40.5,23.0L39.0,23.2L37.9,23.2L37.6,23.4L37.1,23.4L36.7,23.1L36.3,23.1L35.8,23.6L35.2,23.8L34.7,24.5L34.8,28.0L35.1,28.3L38.8,28.2L40.4,28.4L41.8,28.7L42.8,29.0L43.6,29.4L44.8,30.2L45.5,31.1L45.4,31.5L44.6,31.5L44.2,31.3L42.6,31.1L37.2,31.1L35.6,31.3L35.2,31.6L35.2,33.3L35.5,33.8L35.6,33.9L39.8,33.9L40.7,34.1L42.3,34.8L42.9,35.5L43.4,36.2L43.5,36.9L43.5,38.0L43.1,40.0L42.2,42.1L36.6,53.3L36.5,53.7L35.8,55.1L35.6,56.0L35.3,56.5L35.1,57.1L34.8,57.6L34.6,58.6L34.2,59.3L34.2,59.6L33.5,61.7L33.5,62.1L33.3,62.6L32.8,65.3L32.7,70.1L32.9,70.8L32.9,72.3L33.0,72.9L33.6,77.8L34.0,79.4L34.1,80.4L34.8,84.3L35.2,85.5L35.3,86.4L35.8,87.9L36.2,90.1L36.5,91.4L36.9,93.2L37.4,95.0L37.4,95.4L37.6,96.1L37.6,96.5L37.8,96.7L37.9,97.9L38.3,99.2L38.3,99.6L38.8,101.1L39.0,102.2L39.6,104.3L39.8,105.5L40.0,106.1L40.1,106.9L40.7,109.0L41.1,109.3L49.4,109.3L49.8,108.9L49.8,107.7L49.7,99.5L49.7,85.5L49.9,84.6L50.6,84.5L51.5,84.9L53.8,85.5L54.5,85.9L56.8,86.2L57.2,86.4L61.4,86.6L62.3,86.5L64.3,86.4L67.3,85.9L69.1,85.2L70.5,84.9L71.1,84.5L72.6,84.0L73.5,83.4L74.2,83.2L76.2,81.9L78.2,80.3L80.8,77.5L82.8,74.4L82.9,74.0L83.6,72.7L83.8,71.8L84.1,71.2L84.3,70.0L84.5,69.4L84.8,66.6L84.6,64.0L84.2,62.5L84.1,61.7L82.8,58.7L81.3,56.5L81.3,56.1L81.6,55.9L91.4,56.1L103.1,56.1L104.2,56.0L106.2,55.6L109.0,54.3L112.5,51.9L112.8,51.8L113.8,50.9L114.5,50.5L115.5,49.7L115.7,49.7L116.6,48.8L117.9,48.0L119.2,46.9Z M43.3,24.8L43.5,24.6L46.0,24.7L47.2,24.9L47.4,25.2L47.4,25.4L47.0,25.8L46.4,26.1L45.8,26.3L45.1,26.3L43.9,25.7L43.3,25.2Z" fill="#000" fill-rule="evenodd"/>
</svg>