<svg xmlns="http://www.w3.org/2000/svg" viewBox="0 0 128 128" width="128" height="128">
  <path d="M92.4,13.5L89.9,12.1L89.1,11.9L88.3,11.4L86.7,10.9L85.8,10.5L84.1,10.0L83.6,10.0L81.9,9.6L77.5,9.2L62.1,9.1L60.7,9.2L55.1,9.3L37.6,9.3L30.8,9.5L23.7,9.4L23.1,9.6L22.9,10.2L22.9,14.7L23.1,16.6L23.0,18.4L23.2,23.5L23.2,26.2L23.3,27.3L23.3,32.4L23.5,35.7L23.5,50.0L23.7,63.2L23.9,65.2L24.1,77.5L24.0,79.8L24.1,83.0L24.3,94.8L24.5,97.2L24.5,101.7L24.6,104.1L24.5,105.2L24.8,109.2L24.9,118.5L24.9,118.9L25.2,119.1L46.1,119.1L47.7,118.9L54.5,118.9L60.8,118.8L62.8,118.9L63.2,118.5L63.3,117.2L63.1,112.8L63.0,98.5L63.0,63.3L63.2,58.9L63.1,57.4L62.6,57.3L58.4,61.4L53.3,66.6L51.5,68.4L51.0,68.7L50.8,68.7L50.6,68.3L50.5,63.4L50.6,62.7L50.7,62.3L52.6,60.2L57.8,54.9L57.9,54.5L58.3,54.1L58.9,53.9L62.3,50.4L62.3,43.7L62.0,43.7L51.4,54.7L50.9,55.1L50.5,55.1L50.3,54.4L50.4,49.5L50.6,49.2L56.3,43.3L57.5,42.0L61.6,38.0L61.7,37.7L61.7,31.0L61.7,30.8L61.3,30.9L56.1,36.1L55.5,36.9L50.8,41.5L50.7,41.5L50.4,41.2L50.3,40.9L50.3,35.7L50.5,35.3L56.3,29.4L59.9,26.0L60.4,25.6L62.4,23.4L64.0,21.9L64.6,21.8L77.7,34.4L78.5,35.3L78.6,36.7L78.6,38.4L78.7,39.4L78.7,41.0L78.6,41.3L78.3,41.4L78.0,41.2L67.2,30.3L66.8,30.3L66.6,31.5L66.6,36.1L66.8,37.0L67.8,38.1L68.2,38.3L74.8,45.0L78.4,48.3L78.8,49.0L78.9,50.1L78.9,54.6L78.8,54.7L78.4,54.8L74.3,51.0L73.1,49.7L70.6,47.4L68.2,44.9L67.2,44.2L66.9,44.3L66.8,50.5L67.0,50.8L70.5,54.2L72.3,56.2L73.9,57.6L78.8,62.2L79.0,62.7L78.9,65.7L79.0,66.1L79.0,67.8L79.0,68.1L78.5,68.2L73.0,62.8L70.6,60.7L68.4,58.5L67.7,57.7L67.5,57.5L67.2,57.6L67.2,77.4L67.5,78.4L67.4,81.6L67.6,82.1L70.2,82.2L75.7,82.2L80.8,81.9L82.5,81.5L84.1,81.3L86.0,80.8L86.5,80.8L87.4,80.4L88.1,80.3L88.8,79.9L89.8,79.6L90.0,79.4L90.8,79.2L91.6,78.6L92.3,78.4L93.8,77.4L96.7,74.9L99.5,71.6L101.3,69.1L101.4,68.6L101.8,68.3L101.9,67.8L102.7,66.6L102.7,66.2L103.1,65.6L103.6,64.0L104.1,63.2L104.9,60.1L105.2,57.2L105.3,49.3L105.1,46.7L105.0,41.1L104.8,40.4L104.8,39.1L104.7,38.2L104.6,35.5L104.4,35.2L104.4,34.1L104.2,33.1L104.1,31.7L103.5,29.4L103.3,28.9L103.1,28.1L102.8,27.4L102.7,26.8L102.2,25.6L101.9,25.1L101.8,24.7L101.4,24.1L101.3,23.4L100.0,21.1L99.6,20.7L98.6,19.2L96.8,17.4L96.3,16.7L93.6,14.3Z" fill="#000" fill-rule="evenodd"/>
</svg>