<svg xmlns="http://www.w3.org/2000/svg" viewBox="0 0 128 128" width="128" height="128">
  <path d="M19.4,42.0L19.3,48.1L19.5,59.8L19.5,79.5L19.5,85.9L19.7,86.3L19.9,86.3L23.2,86.4L23.6,86.3L23.8,85.9L23.6,66.6L23.6,46.2L23.7,46.0L24.1,45.7L44.0,45.7L46.6,45.7L47.1,46.1L47.1,50.9L46.9,51.3L46.3,51.7L45.1,52.9L44.8,53.6L44.1,54.1L31.7,54.1L31.5,54.0L31.3,53.6L31.3,50.7L31.1,50.4L30.7,50.2L27.2,50.3L26.9,50.7L26.9,60.7L27.0,61.3L27.3,61.7L30.2,61.7L31.1,61.5L31.3,61.4L31.3,60.9L31.3,58.7L31.7,58.4L32.0,58.3L44.5,58.4L46.2,60.1L46.7,60.3L47.1,60.6L47.2,61.2L47.2,63.3L47.5,63.9L51.1,63.8L51.3,63.5L51.4,60.6L52.8,59.5L53.6,58.5L53.9,58.4L73.5,58.4L73.9,58.6L74.2,58.9L74.5,59.5L75.5,60.6L76.2,61.0L76.7,61.5L76.9,81.5L76.6,81.9L76.0,82.1L57.0,81.9L52.0,82.0L51.4,81.5L51.3,74.6L51.4,73.3L51.7,73.0L68.5,73.0L69.0,73.3L69.1,73.7L69.1,76.0L69.2,76.4L69.6,76.5L71.2,76.6L72.7,76.5L72.9,76.2L72.9,66.0L72.8,65.8L72.5,65.6L69.3,65.6L69.1,65.8L69.0,66.4L69.1,68.4L68.8,68.8L68.3,69.0L47.8,68.9L47.5,69.1L47.3,69.6L47.3,82.6L47.4,85.6L47.8,86.0L80.3,86.2L80.7,85.8L80.6,74.6L80.8,73.5L81.1,73.2L95.8,73.1L107.5,73.3L108.0,73.2L108.2,72.9L108.2,69.5L107.8,69.2L81.8,69.1L80.9,68.9L80.6,68.4L80.7,61.6L83.0,59.3L83.5,58.2L83.5,57.3L83.7,56.4L83.7,55.7L83.2,53.9L82.7,53.4L82.1,52.7L81.3,52.1L80.6,51.4L80.6,46.7L80.8,46.2L80.9,46.0L103.9,45.9L104.4,46.4L104.4,52.9L104.3,53.9L103.9,54.3L88.7,54.2L88.3,54.0L88.1,53.7L88.1,51.2L87.8,50.7L85.0,50.7L84.5,50.8L84.3,51.1L84.2,52.4L84.3,55.0L84.1,57.1L84.3,58.1L84.3,61.4L84.6,61.7L87.2,61.8L87.7,61.7L88.1,61.4L88.1,59.4L88.2,58.7L88.5,58.4L106.2,58.4L107.8,58.4L108.1,58.2L108.2,42.5L107.9,42.0L77.5,41.9L77.0,42.1L76.8,42.3L76.7,42.8L76.7,51.4L76.5,51.7L75.4,52.6L73.9,54.2L54.3,54.2L53.8,54.0L52.9,52.6L51.3,51.2L51.2,50.9L51.2,42.8L51.1,42.1L50.8,41.8L19.7,41.7Z M60.8,9.2L58.6,9.4L56.2,9.8L55.0,9.9L50.8,10.8L45.2,12.6L44.8,12.8L44.1,13.0L43.8,13.2L43.3,13.3L41.6,14.2L41.2,14.3L36.1,17.0L33.6,18.7L33.3,18.8L33.0,19.1L32.6,19.3L28.1,22.9L26.1,24.7L23.6,27.2L19.7,32.0L16.8,36.4L14.1,41.5L14.0,42.1L13.7,42.6L13.5,43.4L12.8,44.8L12.1,47.1L11.9,47.4L11.8,48.0L11.3,49.3L11.3,49.7L11.0,50.4L10.6,52.1L10.4,52.7L10.4,53.3L10.0,55.0L9.9,56.3L9.6,57.0L9.5,58.4L9.4,61.2L9.2,61.9L9.2,63.5L9.4,68.7L9.6,71.3L9.9,72.0L10.1,74.1L10.3,74.7L10.5,76.0L10.8,76.9L11.0,78.2L11.2,78.4L11.4,79.4L11.8,80.4L11.9,81.0L13.2,84.3L13.3,85.0L13.7,85.5L14.7,88.1L16.0,90.7L18.7,95.0L21.7,99.0L24.2,101.8L26.5,104.1L29.2,106.5L30.0,107.0L31.0,107.9L33.4,109.6L35.0,110.7L35.9,111.1L36.4,111.5L37.5,112.0L38.8,112.8L40.1,113.3L41.4,114.1L43.5,115.0L49.5,117.0L50.3,117.1L52.5,117.8L59.3,118.8L62.1,119.0L68.5,118.9L69.2,118.8L71.9,118.6L75.9,117.8L77.3,117.6L78.5,117.3L79.1,117.0L79.8,116.9L81.5,116.4L82.9,115.8L83.2,115.8L83.8,115.5L86.8,114.3L88.3,113.5L89.0,113.3L91.6,112.0L91.8,111.7L93.9,110.6L95.8,109.3L96.2,109.1L98.0,107.6L98.5,107.4L101.9,104.4L105.9,100.3L109.9,95.1L112.1,91.5L114.3,87.3L115.1,85.3L115.1,85.0L115.4,84.5L115.6,83.8L115.8,83.4L116.9,80.4L117.5,77.8L117.7,77.3L117.8,76.3L118.2,74.8L118.4,73.1L118.5,72.8L118.5,72.2L118.7,71.7L118.8,68.7L119.1,67.7L119.0,60.4L118.8,60.1L118.6,56.8L118.4,56.1L118.1,54.1L117.9,53.4L117.7,52.2L117.4,51.4L117.2,50.2L116.9,49.5L116.8,48.8L116.3,47.2L116.1,46.8L115.9,46.0L115.6,45.4L114.5,42.4L113.8,41.1L113.0,39.4L111.6,36.8L111.5,36.5L110.7,35.3L110.5,34.9L110.1,34.4L108.6,32.1L107.9,31.3L107.7,30.9L104.5,27.1L102.6,25.1L99.5,22.3L95.0,18.8L94.4,18.5L93.3,17.7L92.3,17.3L91.5,16.5L85.9,13.7L83.9,13.0L81.8,12.1L80.9,11.9L80.5,11.6L76.4,10.5L73.5,10.0L72.9,10.0L72.1,9.7L66.9,9.2Z M60.6,13.2L66.4,13.2L68.2,13.2L69.5,13.5L70.6,13.5L71.0,13.7L72.3,13.7L72.6,13.9L75.5,14.4L76.0,14.6L76.5,14.6L77.5,15.0L79.1,15.4L79.4,15.6L79.8,15.6L80.9,15.9L81.8,16.4L83.9,17.2L84.1,17.3L85.0,17.6L85.2,17.8L88.5,19.4L92.3,21.8L96.9,25.3L98.2,26.4L103.0,31.3L104.1,32.8L104.3,33.2L105.6,34.7L107.1,37.2L107.6,37.9L108.9,40.3L109.1,40.6L111.6,46.1L113.1,50.5L113.6,52.4L113.7,53.2L114.1,54.5L115.0,60.8L115.1,66.9L114.9,69.5L114.1,74.8L113.8,75.7L113.6,76.9L113.1,78.9L112.9,79.3L112.7,80.1L112.5,80.6L112.5,81.0L112.8,81.1L113.0,81.4L112.8,81.5L112.3,81.6L112.0,82.0L111.2,84.5L110.9,84.8L109.9,87.1L108.3,90.1L107.9,90.6L107.6,91.3L105.5,94.4L103.9,96.4L103.4,97.0L103.3,97.2L99.3,101.5L96.8,103.6L92.2,107.1L88.3,109.3L87.8,109.4L87.6,109.7L87.2,109.8L85.8,110.6L85.3,110.7L84.8,111.0L82.7,111.9L79.8,112.9L76.1,113.9L75.3,113.9L74.7,114.2L71.3,114.8L68.3,115.1L61.8,115.2L58.8,114.9L58.3,114.8L57.5,114.8L56.5,114.5L55.3,114.4L49.2,113.0L48.5,112.6L47.5,112.4L46.0,111.7L45.0,111.5L44.5,111.2L43.9,111.0L43.2,110.6L40.9,109.6L40.5,109.3L39.0,108.5L37.9,107.8L37.0,107.4L32.1,103.9L29.6,101.7L26.4,98.5L24.5,96.3L21.4,92.2L21.3,91.7L20.9,91.3L20.9,91.0L20.5,90.5L19.5,88.6L18.8,87.6L18.1,85.8L17.7,85.1L17.6,84.7L16.8,83.4L15.0,78.3L14.4,75.3L14.1,74.6L14.0,73.3L13.7,72.6L13.2,68.9L13.1,66.0L13.1,62.4L13.3,58.8L13.7,57.4L13.7,56.0L14.1,54.9L14.1,53.8L15.5,48.7L16.3,47.0L16.4,46.2L16.7,45.9L16.9,45.0L17.3,44.5L17.4,43.9L19.5,39.5L22.7,34.7L25.0,31.7L27.9,28.5L31.4,25.2L34.9,22.5L39.3,19.7L39.8,19.5L40.7,19.0L41.2,18.8L45.2,16.8L45.9,16.7L46.5,16.4L47.7,16.0L49.6,15.3L50.6,15.1L51.9,14.6L52.3,14.6L52.9,14.4L58.0,13.5Z" fill="#000" fill-rule="evenodd"/>
</svg>