<svg xmlns="http://www.w3.org/2000/svg" viewBox="0 0 128 128" width="128" height="128">
  <path d="M61.1,23.1L58.8,23.4L57.7,23.4L52.3,24.7L51.3,25.1L50.4,25.3L48.7,26.1L46.6,26.8L46.2,27.2L44.5,27.9L44.0,28.3L42.7,29.0L40.8,30.3L40.1,30.7L39.4,31.3L37.2,33.0L34.5,35.5L31.7,38.7L30.8,40.2L30.3,40.7L29.2,42.8L28.1,44.3L26.6,47.5L24.6,52.9L23.5,57.8L23.2,60.9L23.2,63.4L23.1,66.7L23.3,68.2L23.4,70.4L23.9,72.4L23.9,73.1L24.9,77.1L25.3,77.6L25.5,78.5L26.4,81.0L28.3,84.3L28.7,85.2L29.9,86.6L31.1,88.6L31.8,89.3L32.6,90.3L34.2,92.0L34.8,92.9L35.3,93.3L37.1,95.1L40.8,98.0L42.2,98.9L43.6,99.7L45.2,100.6L47.3,101.7L48.0,101.9L49.6,102.7L52.1,103.4L52.9,103.8L53.8,103.9L54.9,104.3L55.5,104.3L56.4,104.6L57.2,104.6L58.5,104.9L61.7,105.3L66.0,105.3L68.0,105.0L69.7,105.0L70.0,104.8L72.2,104.6L72.9,104.3L74.9,103.9L75.7,103.6L76.1,103.6L77.1,103.1L78.3,102.9L81.8,101.4L84.8,99.8L88.4,97.5L91.4,95.0L93.7,92.9L96.9,89.1L99.1,85.9L100.9,82.7L101.3,81.6L101.6,81.0L102.4,79.2L102.7,78.1L103.3,76.7L103.7,75.0L103.9,74.4L104.6,71.3L105.1,66.9L105.1,60.6L104.9,58.9L104.6,57.5L104.5,56.0L103.0,50.5L102.6,49.9L101.5,47.0L99.7,43.4L98.7,42.0L98.6,41.6L98.0,41.1L97.1,39.5L95.4,37.6L92.3,34.3L89.1,31.5L85.2,28.8L83.6,28.2L82.7,27.5L79.1,25.8L78.8,25.8L76.7,24.9L75.7,24.8L75.0,24.4L74.4,24.4L73.4,24.1L68.8,23.2L64.0,23.0Z M30.9,20.5L26.2,24.5L22.8,28.1L18.5,33.7L15.6,38.5L13.7,42.6L13.4,43.7L13.0,44.5L12.4,45.8L12.2,47.2L11.8,47.7L11.6,48.8L11.2,49.8L11.1,50.6L10.7,51.6L10.6,52.6L10.0,55.4L9.7,58.0L9.6,58.4L9.4,63.9L9.6,70.0L10.5,75.0L10.9,76.6L11.0,77.6L11.3,78.4L12.0,81.0L12.4,81.8L12.8,83.1L13.9,85.9L14.2,86.4L14.8,87.9L15.1,88.2L15.6,89.5L16.4,90.8L17.1,92.1L17.3,92.4L17.5,92.9L21.5,98.4L21.9,98.8L23.3,100.6L24.9,102.3L26.9,104.0L28.8,105.9L31.2,107.9L31.7,108.1L32.6,109.0L33.0,109.0L34.0,109.9L36.5,111.5L36.9,111.6L37.9,112.3L40.8,113.6L41.2,114.0L41.8,114.1L43.1,114.8L43.4,114.8L46.4,116.0L46.8,116.0L48.1,116.6L49.5,116.8L51.6,117.5L54.4,118.0L55.1,118.3L57.2,118.4L59.0,118.8L60.6,118.8L61.6,119.0L68.8,118.9L70.6,118.7L70.9,118.5L72.5,118.4L73.3,118.2L74.7,118.1L80.1,116.7L81.2,116.3L82.1,116.1L82.8,115.7L83.7,115.5L85.9,114.6L86.1,114.6L87.5,113.9L88.9,113.3L90.9,112.1L91.5,111.9L92.9,111.0L93.2,110.9L94.4,110.0L94.7,109.9L95.1,109.6L95.8,109.5L99.4,113.4L100.4,114.3L101.8,116.0L104.1,118.4L104.9,118.4L108.9,115.0L110.7,113.1L112.9,111.3L114.5,109.7L114.3,109.1L112.0,106.9L110.9,105.6L110.1,104.8L107.0,101.4L106.5,100.5L106.2,100.4L106.1,99.7L108.5,96.7L111.6,92.0L113.4,88.5L113.6,87.8L114.0,87.4L114.1,86.8L115.3,84.1L115.4,83.5L115.8,82.8L117.0,79.1L117.1,78.4L117.3,78.1L117.3,77.5L117.5,76.8L117.5,76.3L117.9,75.1L118.1,73.4L118.5,71.2L118.5,70.4L118.7,69.7L118.6,68.8L118.8,68.2L118.9,67.0L118.8,60.0L118.6,59.4L118.3,55.8L118.1,55.4L117.7,53.0L117.3,51.4L117.2,50.4L115.3,44.6L114.6,43.2L114.4,42.5L114.1,42.0L114.0,41.4L113.6,41.0L113.1,39.5L112.2,38.2L112.0,37.6L111.6,37.1L111.5,36.6L109.0,32.7L104.1,26.7L101.0,23.6L99.9,22.8L99.0,21.9L97.8,21.1L96.6,20.0L96.1,19.8L95.0,18.9L94.8,18.9L92.8,17.4L91.5,16.8L91.2,16.4L90.7,16.4L90.4,16.1L89.8,15.9L89.4,15.6L88.8,15.4L88.5,15.0L85.2,13.6L84.9,13.6L84.5,13.3L84.3,13.3L82.0,12.4L81.4,12.3L79.2,11.4L75.9,10.7L75.2,10.5L74.2,10.4L72.4,9.9L66.1,9.4L63.1,9.3L59.5,9.5L58.8,9.6L57.7,9.6L56.5,9.9L55.1,10.0L54.0,10.4L52.8,10.5L51.0,10.9L50.8,11.1L49.5,11.3L44.5,12.9L43.1,13.6L42.8,13.6L42.2,13.9L40.7,14.5L39.1,15.4L38.6,15.5L38.3,15.8L37.7,16.0L37.4,16.3L36.0,17.0L34.9,17.8L34.5,17.9Z M30.1,22.0L34.3,19.0L35.3,18.5L36.5,17.6L38.0,16.9L39.2,16.1L39.6,16.0L40.3,15.6L41.8,15.0L42.2,14.7L44.5,13.9L44.8,13.6L45.7,13.4L46.2,13.1L49.1,12.2L49.7,12.1L50.5,11.7L53.0,11.3L53.2,11.2L54.4,10.9L55.2,10.9L57.8,10.5L59.3,10.5L61.5,10.2L64.8,10.1L71.6,10.6L72.5,10.9L74.6,11.2L77.3,11.9L77.7,11.9L82.7,13.4L82.8,13.6L83.1,13.6L86.7,15.1L89.6,16.6L90.0,17.0L90.4,17.1L91.6,17.7L96.5,21.0L100.0,24.0L103.4,27.3L106.8,31.3L108.7,33.8L109.0,34.4L110.3,36.3L111.5,38.5L111.8,39.0L112.5,40.7L113.3,42.0L113.4,42.6L113.8,43.0L114.8,45.5L115.0,46.7L115.3,47.0L115.4,47.8L115.8,48.5L115.8,49.2L116.1,49.6L116.1,50.1L116.5,51.0L117.1,53.7L117.8,58.3L118.1,62.3L118.1,67.8L117.3,74.3L116.9,75.4L116.7,76.8L116.4,77.6L116.3,78.4L115.3,81.4L115.3,81.8L115.0,82.4L114.5,83.9L114.2,84.3L114.1,85.1L113.5,86.1L113.3,86.7L112.9,87.3L112.7,88.0L112.4,88.3L111.8,89.7L111.6,90.0L110.6,92.0L109.6,93.4L109.5,93.7L105.8,98.8L104.9,99.6L105.0,100.2L105.9,101.4L109.0,104.9L112.8,108.8L113.3,109.4L113.3,109.7L110.0,112.8L108.8,113.8L105.6,116.8L104.9,117.3L104.6,117.3L103.3,116.4L101.6,114.7L101.1,113.9L96.0,108.4L95.4,108.4L93.4,109.8L92.3,110.3L91.7,110.8L91.2,110.9L91.0,111.2L90.1,111.6L88.8,112.4L88.4,112.4L88.0,112.8L87.2,113.1L86.6,113.5L86.1,113.6L84.6,114.3L83.8,114.5L82.6,115.1L80.7,115.8L80.3,115.8L76.0,117.0L72.4,117.5L72.0,117.7L66.2,118.3L60.9,118.2L58.3,117.8L56.3,117.7L55.5,117.5L52.7,117.0L50.5,116.5L48.8,115.8L48.0,115.8L46.7,115.3L46.1,115.0L44.5,114.5L44.1,114.2L43.6,114.1L42.1,113.3L41.6,113.3L41.3,113.0L40.5,112.7L39.5,112.1L37.7,111.3L36.7,110.5L35.4,109.9L32.6,107.9L28.7,104.8L24.5,100.7L24.2,100.3L22.2,98.0L18.7,93.3L18.5,92.8L17.8,91.8L17.6,91.2L16.6,89.7L15.9,88.1L15.3,87.1L15.3,86.9L14.7,85.7L14.5,85.0L13.9,84.1L13.8,83.3L13.5,82.9L13.4,82.3L13.1,81.8L13.0,81.0L12.7,80.6L12.7,80.2L12.4,79.7L11.4,75.4L11.2,74.8L11.1,73.4L10.7,72.3L10.5,69.7L10.2,67.2L10.1,61.7L10.5,58.7L10.5,57.6L11.3,52.8L11.8,51.0L12.0,49.6L12.2,49.1L12.5,47.9L12.9,47.2L13.0,46.6L13.5,45.5L13.8,44.5L14.5,42.7L17.6,36.6L19.1,34.2L19.8,33.4L20.4,32.4L23.5,28.4L27.7,24.1Z" fill="#000" fill-rule="evenodd"/>
</svg>