<svg xmlns="http://www.w3.org/2000/svg" viewBox="0 0 128 128" width="128" height="128">
  <path d="M12.9,23.2L12.3,24.3L11.4,25.5L10.3,28.1L9.7,30.2L9.4,33.5L9.5,39.8L9.3,41.0L9.2,45.1L9.2,66.1L9.4,76.0L9.3,86.2L9.5,89.2L9.4,93.6L9.7,97.4L10.6,100.9L11.5,103.0L12.1,103.6L12.3,104.2L13.9,106.2L14.7,107.1L16.7,108.6L18.4,109.7L18.8,109.7L19.0,110.0L19.8,110.2L21.8,111.0L25.1,111.4L72.8,111.6L76.3,111.5L98.2,111.5L101.1,111.4L107.9,111.3L115.7,111.4L116.4,111.3L117.2,110.9L118.3,110.0L118.7,108.7L118.9,106.9L118.9,94.4L118.6,93.2L118.3,92.5L117.2,91.5L116.6,91.3L114.6,91.2L98.5,91.1L97.6,90.9L97.5,90.5L97.9,90.1L100.5,88.9L102.3,87.6L103.8,86.3L105.4,84.4L106.3,83.0L107.6,80.2L107.8,79.1L108.2,77.9L108.3,76.5L108.5,75.8L108.5,50.5L108.3,45.1L108.4,36.1L108.1,31.1L107.4,27.7L106.3,25.0L104.6,22.5L102.9,20.7L100.3,18.9L98.5,18.0L95.7,17.1L92.8,16.7L68.0,16.8L63.7,16.6L62.2,16.8L61.4,17.1L60.6,17.8L60.5,18.2L60.2,20.1L60.2,33.2L60.5,34.7L60.9,35.5L61.7,36.2L63.0,36.6L75.6,36.6L76.6,36.9L77.9,37.6L79.1,38.7L80.1,40.3L80.5,41.6L80.7,43.4L80.8,71.9L80.6,76.5L80.6,84.0L80.4,85.7L80.0,87.3L79.3,88.6L77.8,90.1L75.8,91.1L72.3,91.5L49.8,91.3L48.7,91.5L44.3,91.5L41.7,91.3L39.6,90.8L38.2,90.0L37.6,89.4L36.7,88.2L36.1,86.4L36.1,79.0L36.7,77.4L37.2,76.6L37.9,75.7L39.0,74.9L40.7,74.2L42.9,74.0L55.5,73.9L56.4,73.5L57.6,72.1L57.7,70.0L57.6,66.4L57.8,61.7L57.7,57.6L57.6,56.2L57.2,55.4L56.5,54.7L55.6,54.3L54.8,54.2L43.4,54.2L41.2,54.1L39.5,53.6L38.6,53.2L37.2,51.9L36.5,50.8L36.1,49.4L35.9,46.0L36.0,42.8L36.1,41.6L36.5,40.9L36.6,40.4L37.3,39.2L38.2,38.2L39.1,37.6L40.1,37.1L42.2,36.7L54.8,36.6L55.8,36.3L56.9,35.5L57.1,35.1L57.4,34.2L57.4,19.6L56.9,18.1L56.3,17.4L55.9,17.2L54.5,16.9L44.6,16.9L36.1,17.1L27.5,17.1L26.0,17.3L23.8,17.3L20.5,18.0L17.7,19.3L16.6,19.9L15.1,21.1Z" fill="#000" fill-rule="evenodd"/>
</svg>