<svg xmlns="http://www.w3.org/2000/svg" viewBox="0 0 128 128" width="128" height="128">
  <path d="M43.0,20.3L42.4,20.6L42.1,20.7L41.6,21.1L41.3,21.2L40.8,21.5L40.2,22.0L39.9,22.2L38.9,23.0L38.0,23.8L36.9,25.1L35.8,26.7L34.9,28.5L34.2,30.4L34.2,30.5L34.0,31.0L33.7,32.7L33.6,33.3L33.5,34.3L33.5,35.7L33.6,52.7L33.5,53.4L33.6,58.9L33.5,59.7L33.6,60.8L33.6,67.1L33.6,67.9L33.6,72.7L33.6,87.7L33.7,88.4L33.6,89.1L33.7,89.6L33.7,91.0L33.7,93.8L33.7,100.0L33.9,100.7L33.9,100.9L34.0,101.2L34.1,101.4L34.3,102.2L34.6,102.8L34.7,103.0L35.1,103.7L36.2,105.3L37.5,106.6L38.6,107.4L38.7,107.5L38.9,107.6L39.9,108.1L40.1,108.3L40.5,108.4L40.7,108.6L41.1,108.7L41.4,108.9L41.7,108.9L41.9,109.0L42.7,109.2L43.7,109.4L44.0,109.4L44.6,109.5L47.8,109.4L49.2,109.5L51.5,109.5L55.4,109.5L77.7,109.5L80.5,109.5L83.8,109.5L84.6,109.4L84.9,109.3L85.6,109.3L86.2,109.1L87.0,108.8L87.2,108.7L87.5,108.6L88.3,108.2L89.3,107.5L90.3,106.6L90.8,105.9L91.4,105.1L91.7,104.5L91.8,104.1L91.9,104.0L92.3,102.8L92.5,101.3L92.5,100.2L92.5,99.4L92.1,97.9L91.9,97.3L91.6,96.8L91.5,96.3L90.7,94.8L90.1,94.0L89.7,93.1L88.8,91.8L88.8,91.7L88.4,91.2L88.1,90.5L87.9,90.3L87.7,89.8L87.0,88.6L86.8,88.2L86.7,88.1L86.6,88.0L86.5,87.8L86.4,87.6L86.0,87.0L85.9,86.8L85.6,86.3L85.5,86.2L85.3,85.7L85.2,85.5L85.1,85.3L84.8,84.8L84.6,84.5L83.9,83.3L83.9,83.2L83.4,82.5L83.4,82.4L83.1,82.0L83.0,81.8L82.8,81.5L82.6,81.0L82.3,80.6L82.1,80.1L81.9,80.0L81.7,79.6L81.6,79.4L81.4,79.1L81.0,78.4L80.7,77.9L80.4,77.5L80.4,77.4L80.0,76.8L80.0,76.6L79.5,76.0L79.4,75.6L79.7,75.3L80.6,74.8L81.6,74.1L82.1,73.8L83.4,72.8L83.8,72.4L84.3,72.1L85.9,70.6L86.2,70.3L86.4,70.0L86.9,69.5L87.6,68.7L87.9,68.3L88.4,67.8L89.8,65.8L90.2,65.1L90.8,64.2L91.4,63.1L91.5,63.0L92.5,60.7L92.6,60.5L93.0,59.4L93.1,59.1L93.2,58.8L93.3,58.6L93.3,58.5L93.6,57.6L93.7,57.3L94.1,55.7L94.2,55.5L94.5,53.9L94.5,53.4L94.6,52.8L94.7,51.8L94.8,51.1L94.9,49.5L94.9,47.8L94.8,46.6L94.8,46.4L94.7,45.4L94.6,44.4L94.5,43.7L94.4,43.2L94.2,42.1L93.9,41.4L93.9,41.0L93.8,40.7L93.6,40.1L93.6,39.9L93.4,39.6L93.2,38.8L92.8,37.7L92.6,37.3L92.2,36.3L91.8,35.4L91.6,35.0L91.5,34.8L91.0,33.8L90.9,33.7L90.8,33.5L90.1,32.3L89.9,32.1L89.5,31.4L89.1,30.9L89.0,30.7L88.2,29.7L87.9,29.4L87.7,29.1L87.4,28.8L86.7,28.0L85.8,27.0L85.6,27.0L85.4,26.7L84.6,26.1L84.3,25.7L82.7,24.5L82.3,24.2L82.1,24.0L81.1,23.4L80.8,23.1L80.1,22.7L79.7,22.5L79.5,22.4L78.9,22.1L78.7,22.0L78.3,21.8L77.5,21.4L77.3,21.3L76.7,21.0L76.4,21.0L76.2,20.8L76.0,20.8L75.8,20.7L75.5,20.6L75.4,20.6L75.1,20.5L75.0,20.4L74.7,20.3L74.5,20.2L74.2,20.2L74.0,20.1L73.7,20.0L73.5,19.9L71.4,19.4L70.2,19.2L69.6,19.0L69.1,19.0L69.0,19.0L68.4,19.0L68.0,18.9L67.2,18.8L60.6,18.8L59.4,18.8L53.9,18.8L53.0,18.9L49.3,19.0L48.6,19.0L47.3,19.0L46.8,19.1L46.4,19.2L46.0,19.2L45.6,19.4L45.5,19.4L45.1,19.5L44.9,19.6L44.7,19.7L44.5,19.7L44.1,19.9L44.0,19.9L43.8,20.0L43.6,20.0Z M80.3,60.3L80.4,60.3L80.5,60.4L80.5,60.5L80.4,60.6L80.3,60.6L80.2,60.5L80.2,60.4Z M41.2,16.0L40.8,16.2L40.4,16.4L40.2,16.5L39.7,16.7L39.5,16.9L39.1,17.1L37.5,18.2L36.7,18.8L36.1,19.4L35.9,19.4L35.0,20.4L34.8,20.5L34.3,21.1L33.8,21.7L33.3,22.2L33.0,22.6L31.8,24.5L31.5,25.0L31.4,25.1L31.3,25.4L31.2,25.5L31.0,26.0L30.9,26.3L30.6,26.9L30.4,27.5L30.1,28.0L29.7,29.5L29.6,29.9L29.5,30.1L29.2,31.7L29.2,32.1L29.0,32.8L28.9,36.2L28.9,39.3L28.9,53.8L29.0,57.5L28.9,83.9L28.9,84.8L28.9,85.3L28.9,85.8L28.9,86.6L28.9,95.4L28.9,96.8L28.9,99.7L29.0,100.2L29.1,100.6L29.1,101.1L29.4,102.0L29.4,102.3L29.6,102.7L29.6,103.0L29.8,103.5L30.6,105.2L31.3,106.3L31.3,106.5L31.6,106.8L31.8,107.2L32.2,107.7L32.7,108.3L33.9,109.7L35.6,111.0L37.5,112.2L39.1,112.9L39.6,113.1L40.0,113.3L40.7,113.4L41.0,113.6L41.2,113.6L41.6,113.7L42.3,113.9L43.3,114.0L44.7,114.1L45.2,114.1L45.5,114.1L48.7,114.1L53.3,114.1L54.1,114.2L60.7,114.1L63.8,114.2L65.5,114.1L71.7,114.2L73.3,114.1L80.5,114.1L83.6,114.1L84.5,114.1L85.9,114.0L87.4,113.7L88.3,113.4L88.7,113.2L89.2,113.0L89.7,112.7L90.2,112.6L91.1,112.0L92.2,111.2L93.6,109.9L94.2,109.2L94.4,108.9L94.7,108.5L94.7,108.5L95.1,107.9L95.5,107.2L95.7,107.0L96.0,106.2L96.2,106.0L96.6,105.0L96.8,103.9L96.9,103.6L97.1,102.9L97.3,101.3L97.3,100.0L97.2,99.1L97.1,98.0L96.8,97.2L96.8,96.9L96.4,95.7L96.0,94.7L95.7,94.3L95.2,93.4L94.9,92.9L94.8,92.8L94.6,92.4L94.5,92.1L94.4,92.0L93.9,91.2L93.8,91.0L93.7,90.9L93.6,90.7L93.5,90.5L93.4,90.4L93.2,89.9L93.0,89.6L92.9,89.5L92.8,89.4L92.6,88.9L92.5,88.7L91.8,87.5L91.6,87.3L91.6,87.1L91.3,86.7L90.5,85.3L90.0,84.6L90.0,84.3L89.5,83.6L88.6,82.1L88.3,81.5L87.7,80.4L87.4,80.1L87.0,79.2L86.5,78.4L86.3,78.0L85.8,77.3L85.7,77.0L85.7,76.9L85.8,76.7L85.9,76.7L88.1,74.8L88.7,74.1L88.9,74.0L89.5,73.4L89.7,73.2L90.0,72.9L90.1,72.7L90.5,72.3L92.1,70.4L92.6,69.6L93.2,68.9L93.4,68.4L94.2,67.3L94.6,66.6L94.9,66.2L95.1,65.8L95.2,65.5L95.9,64.2L96.7,62.5L96.9,61.9L97.1,61.6L97.1,61.4L97.3,61.0L97.5,60.2L97.6,60.1L97.6,59.7L98.1,58.4L98.5,56.8L98.5,56.4L98.7,55.9L98.9,54.8L99.0,53.9L99.1,53.7L99.4,51.2L99.4,50.4L99.4,49.8L99.4,47.6L99.4,46.0L99.3,45.5L99.2,44.5L99.1,43.8L98.9,42.4L98.8,42.2L98.7,41.7L98.6,41.5L98.6,41.0L97.9,38.5L96.8,35.3L96.0,33.6L95.3,32.2L95.2,32.1L95.2,31.9L95.1,31.8L95.0,31.5L94.4,30.6L94.4,30.5L94.1,30.1L93.7,29.4L93.2,28.9L92.8,28.1L92.1,27.2L91.8,26.9L91.5,26.5L90.9,25.8L90.4,25.2L90.1,25.0L90.0,24.8L89.4,24.1L89.1,23.9L88.6,23.4L88.5,23.3L88.0,22.8L87.8,22.7L87.2,22.2L87.0,22.0L86.6,21.6L86.3,21.4L86.1,21.3L84.9,20.3L84.0,19.7L83.1,19.2L82.2,18.6L81.8,18.4L81.7,18.3L81.3,18.1L81.1,18.0L80.7,17.8L80.1,17.5L79.9,17.4L79.7,17.3L79.3,17.1L78.7,16.8L78.5,16.8L78.0,16.5L76.9,16.2L76.7,16.0L76.4,16.0L75.8,15.7L75.4,15.6L75.2,15.5L74.1,15.3L74.0,15.2L73.1,15.0L72.9,15.0L72.6,14.8L72.3,14.8L71.8,14.7L71.4,14.6L71.3,14.6L70.3,14.5L69.8,14.4L69.3,14.4L68.7,14.3L68.3,14.2L67.7,14.2L67.0,14.1L65.3,14.1L61.9,14.1L58.3,14.1L49.5,14.1L48.0,14.2L47.2,14.4L46.6,14.4L46.2,14.5L45.9,14.5L45.4,14.6L45.0,14.7L44.7,14.8L44.2,14.9L42.6,15.5L42.4,15.5L42.2,15.6Z M31.6,62.3L31.7,62.3L31.6,62.4Z M42.3,19.6L42.9,19.4L43.0,19.2L43.3,19.2L43.4,19.1L44.1,18.9L44.3,18.8L44.6,18.7L44.9,18.6L45.1,18.5L45.3,18.5L45.6,18.4L46.0,18.3L47.9,18.0L48.3,18.0L48.8,17.9L51.8,17.8L52.3,17.9L53.0,17.8L54.8,17.8L56.0,17.8L59.2,17.8L66.0,17.8L66.4,17.8L67.8,17.9L68.9,18.0L69.3,18.0L69.7,18.1L70.9,18.3L71.3,18.4L72.3,18.6L72.7,18.7L72.9,18.7L73.7,19.0L74.7,19.3L75.3,19.5L75.7,19.6L75.8,19.7L76.1,19.7L76.3,19.9L76.4,19.9L77.0,20.1L77.2,20.2L77.4,20.4L78.0,20.6L78.1,20.7L78.2,20.7L78.5,20.9L79.5,21.3L80.3,21.8L80.4,21.8L81.6,22.5L82.7,23.3L83.0,23.5L83.7,24.1L83.9,24.2L84.7,24.7L86.0,25.9L87.6,27.5L88.1,28.2L88.3,28.4L88.7,28.9L90.0,30.5L90.8,31.7L91.0,32.1L91.4,32.7L92.3,34.3L93.0,35.7L93.1,36.0L93.1,36.1L93.4,36.6L93.6,37.3L93.8,37.8L94.0,38.5L94.3,39.2L94.4,39.5L94.6,40.2L94.8,41.2L95.0,41.6L95.1,42.5L95.3,42.9L95.4,43.8L95.5,44.1L95.5,44.3L95.6,45.0L95.6,45.8L95.7,46.0L95.7,46.4L95.8,46.7L95.8,47.8L95.8,48.4L95.8,50.4L95.7,50.8L95.6,52.2L95.5,52.8L95.5,53.3L95.4,53.7L95.3,54.2L95.2,54.8L95.1,55.3L95.0,55.7L95.0,56.1L94.8,56.4L94.8,56.7L94.7,57.1L94.6,57.4L94.4,58.0L94.3,58.5L94.0,59.1L93.9,59.6L93.7,60.0L93.7,60.2L93.5,60.6L93.4,60.9L92.4,63.1L91.8,64.2L91.7,64.3L91.6,64.5L91.2,65.2L91.1,65.4L90.8,65.8L90.5,66.4L90.3,66.6L89.8,67.3L89.6,67.5L89.5,67.7L89.3,68.0L89.1,68.3L88.6,68.8L88.2,69.4L87.1,70.7L85.5,72.2L85.4,72.3L84.6,73.0L84.4,73.1L83.2,74.1L82.5,74.6L81.9,75.0L81.3,75.4L81.2,75.4L80.7,75.8L80.7,76.0L81.0,76.5L81.5,77.2L82.4,78.8L82.5,78.9L82.8,79.5L83.1,80.0L83.5,80.8L83.7,81.0L84.1,81.7L84.3,81.9L84.4,82.3L85.3,83.8L85.8,84.6L86.1,85.2L86.1,85.3L86.7,86.1L87.0,86.8L87.4,87.3L87.7,87.8L87.8,88.0L88.1,88.5L88.4,88.9L88.4,89.1L88.6,89.2L89.1,90.2L89.4,90.7L91.8,94.8L91.9,95.1L92.4,95.9L92.4,96.1L92.9,97.0L93.0,97.4L93.0,97.5L93.1,97.9L93.2,98.1L93.4,98.7L93.5,100.4L93.5,101.7L93.3,102.9L93.0,103.6L93.0,103.8L92.3,105.3L91.5,106.6L91.0,107.2L90.3,107.9L89.3,108.7L87.9,109.5L87.1,109.8L86.4,110.0L85.0,110.3L83.9,110.4L80.7,110.4L80.4,110.4L77.7,110.4L74.4,110.5L56.3,110.5L51.0,110.4L49.7,110.4L48.5,110.4L44.0,110.4L43.2,110.2L42.6,110.1L42.2,110.0L41.9,110.0L41.4,109.8L41.3,109.7L40.9,109.6L40.2,109.3L39.7,109.2L38.0,108.2L36.9,107.3L35.7,106.3L35.5,105.8L35.0,105.3L34.9,105.2L34.5,104.6L34.4,104.4L34.1,103.9L34.0,103.7L33.5,102.8L33.3,102.1L33.1,101.7L32.9,100.7L32.7,100.0L32.7,99.3L32.7,99.1L32.7,97.2L32.6,96.3L32.6,82.8L32.5,79.4L32.5,78.7L32.5,72.5L32.5,65.4L32.6,64.1L32.5,62.8L32.5,62.5L32.5,62.4L32.5,62.2L32.7,62.0L32.7,61.5L32.6,61.3L32.5,61.1L32.5,58.8L32.5,55.7L32.5,52.0L32.5,39.2L32.6,36.9L32.6,34.4L32.6,33.9L32.6,33.3L33.0,31.5L33.0,31.2L33.1,30.8L33.2,30.4L33.6,29.1L34.0,28.2L34.1,28.0L34.5,27.1L34.6,27.0L35.0,26.3L35.2,26.1L35.5,25.4L35.7,25.2L35.9,25.0L36.2,24.5L36.6,24.1L36.9,23.7L38.6,22.0L38.7,22.0L38.9,21.7L39.4,21.4L39.6,21.2L40.0,21.0L40.7,20.4Z M38.8,13.1L38.3,13.4L37.6,13.8L36.7,14.3L36.5,14.4L35.0,15.5L34.0,16.4L33.7,16.5L33.3,17.0L32.8,17.4L31.6,18.7L31.0,19.4L30.9,19.4L30.1,20.4L30.1,20.5L29.8,20.9L29.7,21.1L29.3,21.7L28.1,23.6L27.0,26.1L26.9,26.6L26.5,27.7L26.0,29.3L25.7,30.6L25.7,31.0L25.6,31.2L25.6,31.5L25.5,32.3L25.4,33.3L25.3,34.3L25.3,35.4L25.3,35.6L25.4,36.6L25.3,37.2L25.4,38.7L25.3,40.0L25.4,44.8L25.3,45.5L25.4,46.8L25.4,51.6L25.4,55.6L25.4,57.9L25.4,60.8L25.4,62.3L25.4,64.5L25.5,65.0L25.4,65.9L25.4,71.4L25.4,73.9L25.4,89.0L25.4,90.3L25.4,94.2L25.5,96.8L25.5,99.3L25.6,100.8L25.7,101.4L25.7,101.6L25.9,102.0L25.9,102.3L26.0,102.5L26.0,102.8L26.2,103.3L26.2,103.5L26.4,104.0L26.6,104.4L26.8,105.1L27.2,105.9L27.5,106.6L27.6,106.7L27.8,107.3L28.0,107.4L28.1,107.7L28.5,108.3L28.6,108.5L28.9,109.0L29.7,110.0L29.8,110.2L30.3,110.7L30.5,111.0L32.3,112.7L33.7,113.8L35.2,114.8L36.6,115.5L37.6,116.0L37.7,116.0L37.8,116.0L39.9,116.8L40.5,116.9L41.2,117.1L42.8,117.3L43.2,117.3L44.0,117.5L45.0,117.5L46.0,117.5L48.0,117.5L54.1,117.6L55.9,117.5L56.2,117.6L58.3,117.6L63.9,117.6L66.1,117.6L68.3,117.6L68.7,117.6L72.3,117.6L73.3,117.6L79.5,117.6L81.2,117.5L84.4,117.5L84.7,117.5L85.7,117.4L86.3,117.3L86.5,117.3L88.2,116.9L88.4,116.8L88.8,116.7L88.9,116.7L89.2,116.6L89.8,116.4L90.0,116.3L90.5,116.0L91.0,115.9L91.2,115.7L91.5,115.6L91.6,115.5L92.1,115.3L92.3,115.2L93.0,114.7L93.2,114.6L93.6,114.3L94.6,113.5L94.7,113.5L95.8,112.5L95.8,112.3L96.4,111.8L96.5,111.6L96.9,111.1L98.1,109.5L99.2,107.3L99.4,106.7L99.5,106.6L99.8,105.8L100.3,103.9L100.6,102.0L100.6,101.3L100.6,100.9L100.6,100.3L100.6,99.8L100.6,99.2L100.5,99.1L100.4,97.8L100.1,96.6L100.1,96.2L99.9,95.9L99.9,95.5L99.7,95.2L99.7,95.1L99.5,94.5L99.4,94.3L99.4,94.1L99.1,93.4L98.8,92.9L98.8,92.8L98.6,92.5L98.5,92.4L98.1,91.5L97.8,91.1L97.6,90.6L97.4,90.4L97.1,89.8L96.9,89.4L96.7,89.0L96.2,88.2L95.8,87.6L95.5,87.1L95.5,87.0L95.4,86.9L95.0,86.2L94.6,85.5L94.4,85.0L93.7,84.0L93.7,83.9L93.0,82.7L92.9,82.5L92.8,82.4L92.3,81.4L92.2,81.3L92.0,80.9L91.6,80.4L91.4,79.8L91.0,79.2L90.3,78.0L90.3,77.7L90.5,77.5L92.1,75.9L92.3,75.7L93.6,74.2L94.1,73.6L94.6,73.0L94.8,72.7L95.2,72.3L95.5,71.7L95.7,71.6L96.0,71.1L96.2,70.9L96.6,70.2L96.9,69.8L97.1,69.3L97.7,68.5L98.3,67.3L98.6,66.8L98.8,66.3L99.0,66.2L99.4,65.2L99.4,65.1L99.9,64.1L100.4,62.8L100.7,62.2L100.7,61.9L101.1,60.9L101.2,60.4L101.7,59.0L101.7,58.9L102.0,57.5L102.1,57.3L102.1,57.2L102.3,56.2L102.5,54.8L102.7,54.3L102.8,53.1L102.8,52.8L102.9,52.2L103.0,49.9L103.1,48.3L103.0,46.7L102.9,46.3L102.9,45.6L102.8,44.9L102.7,43.7L102.6,43.2L102.6,42.7L102.3,41.0L102.2,40.8L102.0,39.8L101.9,39.3L101.7,38.4L101.5,38.0L101.1,36.5L100.7,35.4L100.5,34.9L100.4,34.5L100.2,34.3L100.1,33.9L99.9,33.4L99.7,33.0L99.0,31.4L98.7,31.0L98.2,29.9L97.8,29.2L97.3,28.4L97.0,27.8L96.8,27.7L96.6,27.2L94.6,24.5L93.8,23.5L92.6,22.2L91.4,21.0L91.2,20.9L91.1,20.8L90.6,20.2L90.3,20.0L90.0,19.6L89.5,19.3L89.1,18.9L88.7,18.6L87.2,17.4L87.0,17.4L85.7,16.4L84.8,15.9L84.3,15.5L83.8,15.3L83.5,15.1L83.3,15.0L83.1,14.8L82.0,14.3L81.9,14.2L81.8,14.2L81.3,13.9L81.0,13.8L80.6,13.6L80.3,13.5L79.5,13.1L79.2,13.1L78.7,12.8L78.4,12.7L77.8,12.5L77.4,12.4L77.2,12.3L77.0,12.3L76.7,12.1L76.5,12.1L75.8,11.8L75.3,11.7L75.1,11.6L74.7,11.6L74.5,11.5L74.2,11.4L73.7,11.3L73.5,11.3L73.1,11.1L72.7,11.1L72.2,10.9L71.6,10.9L71.3,10.8L71.1,10.8L70.4,10.6L68.8,10.5L68.3,10.4L67.4,10.4L66.6,10.4L63.7,10.4L60.4,10.4L58.3,10.5L57.6,10.5L57.2,10.5L54.2,10.6L53.2,10.6L51.8,10.6L49.9,10.6L49.6,10.7L47.4,10.7L45.7,10.9L45.5,10.9L45.0,11.0L44.8,11.1L44.5,11.1L44.0,11.3L43.6,11.3L42.9,11.6L42.5,11.6L42.3,11.7L41.2,12.1L40.6,12.4L39.9,12.6L39.1,13.0Z M41.8,14.6L42.2,14.5L42.7,14.3L43.4,14.0L44.2,13.9L44.4,13.7L45.0,13.7L45.1,13.6L45.6,13.5L46.3,13.4L46.4,13.3L47.0,13.3L47.3,13.2L48.0,13.2L48.3,13.1L50.2,13.0L52.2,13.0L59.3,13.0L60.2,13.0L60.9,13.0L61.8,12.9L63.2,13.0L63.8,12.9L66.0,12.9L66.8,13.0L67.3,13.0L67.9,13.1L69.7,13.2L69.8,13.2L70.1,13.2L70.5,13.3L70.9,13.4L72.2,13.6L72.5,13.7L73.7,13.9L73.8,14.0L74.2,14.1L74.5,14.2L74.9,14.2L75.7,14.5L75.9,14.6L76.1,14.6L76.4,14.7L77.1,15.0L77.3,15.0L78.3,15.5L78.7,15.6L79.2,15.9L79.3,15.9L82.0,17.2L82.4,17.5L82.6,17.5L83.7,18.2L83.8,18.3L84.3,18.5L85.1,19.1L85.3,19.2L85.6,19.5L85.8,19.6L86.9,20.5L87.1,20.6L87.7,21.1L87.9,21.2L88.6,21.8L90.0,23.2L91.4,24.6L91.5,24.9L91.8,25.1L93.6,27.4L93.7,27.6L95.0,29.4L95.1,29.6L95.2,29.8L95.4,30.3L95.7,30.7L96.1,31.6L96.3,31.7L96.7,32.6L96.9,33.1L97.1,33.4L97.2,33.7L97.4,34.1L97.5,34.2L98.0,35.5L99.0,38.2L99.4,40.1L99.5,40.2L99.6,40.7L99.8,41.8L99.8,41.9L100.1,43.3L100.1,43.9L100.3,44.7L100.5,47.8L100.4,50.9L100.4,51.2L100.4,51.7L100.3,52.0L100.3,52.4L100.2,53.2L100.2,53.6L100.1,54.1L100.0,54.7L99.9,55.3L99.8,55.7L99.7,56.2L99.7,56.6L99.6,56.8L99.5,57.4L99.4,57.5L99.1,58.7L98.9,59.4L98.6,60.3L97.8,62.6L97.7,62.8L97.2,63.8L96.4,65.4L96.3,65.6L95.7,66.9L95.2,67.6L95.0,68.0L93.7,70.0L93.3,70.4L93.0,70.9L92.8,71.1L92.0,72.2L91.8,72.4L91.1,73.2L89.6,74.8L88.8,75.5L88.7,75.5L88.1,76.2L87.8,76.3L87.0,77.1L87.0,77.4L87.1,77.6L87.5,78.3L87.7,78.8L88.2,79.5L88.4,79.9L88.6,80.2L88.8,80.5L89.4,81.6L89.6,82.0L89.9,82.4L90.0,82.6L90.3,83.2L90.4,83.3L90.5,83.5L90.7,84.0L90.8,84.1L91.3,85.0L91.6,85.4L91.7,85.6L92.2,86.4L92.3,86.6L92.4,86.7L93.3,88.5L93.6,88.9L94.0,89.6L94.5,90.3L94.5,90.5L95.5,92.2L95.7,92.4L96.4,93.8L96.5,94.0L97.0,94.9L97.6,96.5L97.6,96.7L97.8,97.4L98.1,98.8L98.1,99.8L98.1,100.2L98.1,102.0L97.8,103.9L97.6,104.2L97.5,104.8L97.1,105.8L96.8,106.6L96.4,107.4L96.3,107.6L95.9,108.3L95.4,109.1L95.1,109.4L94.7,110.0L93.9,110.9L92.7,111.9L91.6,112.7L89.9,113.7L89.6,113.7L89.2,114.0L88.9,114.1L88.3,114.3L88.1,114.3L87.8,114.5L86.8,114.7L86.5,114.8L85.1,115.0L84.2,115.0L84.0,115.1L82.8,115.0L77.7,115.1L74.8,115.1L70.8,115.1L66.3,115.1L66.1,115.1L62.4,115.1L61.8,115.0L60.3,115.1L60.0,115.1L58.3,115.1L56.7,115.0L55.8,115.1L52.8,115.1L44.5,115.0L44.3,114.9L43.3,114.9L42.2,114.7L41.9,114.6L40.7,114.3L39.2,113.9L38.7,113.6L37.7,113.3L35.7,112.1L34.3,111.1L33.4,110.4L32.1,109.0L31.7,108.6L30.8,107.3L30.5,106.7L30.3,106.5L30.1,106.1L29.9,105.9L29.2,104.3L28.7,103.0L28.6,102.5L28.2,100.9L28.2,100.5L28.1,100.1L28.0,99.1L27.9,98.6L27.9,96.4L27.9,94.8L27.9,89.0L27.9,88.5L27.9,88.2L27.9,73.1L27.8,65.9L27.8,59.2L27.8,57.2L27.9,56.6L27.9,54.7L27.8,53.6L27.8,50.8L27.7,49.5L27.7,42.9L27.8,39.0L27.8,37.9L27.8,37.0L27.9,33.1L27.9,32.9L28.0,32.7L28.0,32.2L28.4,30.2L28.5,30.0L28.5,29.7L28.8,28.5L29.0,28.3L29.0,28.0L29.2,27.7L29.3,27.2L29.5,26.9L29.7,26.3L30.2,25.1L30.3,24.9L30.7,24.3L31.1,23.6L31.4,23.1L31.4,23.0L31.6,22.9L31.9,22.4L32.3,21.9L32.6,21.4L33.2,20.7L34.7,19.1L36.5,17.6L37.3,17.0L37.6,16.9L37.8,16.6L39.0,15.9Z M38.6,10.8L38.3,11.0L37.7,11.2L37.4,11.5L35.9,12.3L35.5,12.6L35.0,12.8L34.7,13.1L34.6,13.1L34.3,13.4L33.9,13.6L33.3,14.1L31.7,15.5L30.6,16.6L29.0,18.4L28.4,19.2L28.0,19.7L28.0,19.7L27.6,20.4L27.2,21.0L26.8,21.6L26.5,22.2L25.5,24.2L25.4,24.5L25.2,24.8L25.1,25.4L24.9,25.7L24.3,27.4L24.3,27.5L24.1,28.1L24.1,28.2L24.0,28.7L23.7,29.7L23.7,30.0L23.3,32.2L23.2,34.7L23.2,38.9L23.2,40.5L23.2,47.5L23.2,57.5L23.1,57.7L23.0,57.9L23.0,58.1L23.2,58.4L23.1,61.9L23.2,70.5L23.1,70.7L23.2,71.4L23.2,75.2L23.1,76.4L23.1,77.4L23.2,77.8L23.1,78.2L23.1,94.5L23.0,94.7L23.0,98.7L23.1,99.1L23.2,100.3L23.3,101.1L23.3,101.4L23.6,102.5L23.7,103.0L23.7,103.2L23.9,103.9L24.2,104.8L24.4,105.3L24.6,105.7L24.6,105.9L24.9,106.6L25.0,106.8L25.1,107.1L25.6,107.9L26.0,108.7L26.3,109.2L26.7,109.7L26.7,109.9L27.9,111.5L28.7,112.4L30.4,114.1L31.9,115.4L32.0,115.4L32.8,116.0L33.6,116.5L34.1,116.8L34.5,117.1L35.5,117.5L35.9,117.8L36.3,117.9L36.4,118.0L36.7,118.0L37.3,118.3L38.9,118.9L39.2,118.9L39.3,119.0L39.6,119.0L39.9,119.2L40.5,119.2L40.8,119.4L41.6,119.4L41.7,119.5L42.0,119.5L42.8,119.7L43.9,119.7L44.2,119.8L48.6,119.9L53.8,119.8L56.0,119.9L70.2,119.9L70.7,119.8L71.1,119.9L75.0,119.9L77.1,119.8L79.4,119.9L81.8,119.8L84.7,119.8L85.7,119.8L86.1,119.7L86.6,119.7L88.1,119.4L88.4,119.2L88.6,119.2L90.3,118.7L90.4,118.6L91.8,118.1L91.9,118.0L92.7,117.6L93.7,117.0L94.1,116.8L95.6,115.7L96.8,114.6L97.1,114.5L97.5,114.0L98.3,113.1L98.5,112.7L99.3,111.9L99.4,111.6L99.6,111.4L99.6,111.3L100.3,110.3L100.5,109.7L100.8,109.3L101.0,108.9L101.2,108.5L101.3,108.2L101.4,108.0L101.5,107.9L101.5,107.6L101.8,106.9L102.1,106.0L102.5,104.6L102.5,104.2L102.7,103.2L102.8,102.2L102.9,101.7L102.9,99.8L102.7,97.9L102.7,97.5L102.6,97.1L102.5,96.9L102.5,96.4L102.3,95.6L102.2,95.3L101.6,93.4L101.5,93.2L101.3,92.8L101.2,92.6L101.0,92.0L100.7,91.4L99.4,89.4L99.4,89.2L99.2,89.0L99.1,88.7L98.8,88.3L98.5,87.8L98.3,87.5L98.1,87.0L97.7,86.5L97.4,85.9L96.8,85.0L96.3,84.1L95.8,83.2L95.5,82.6L95.0,81.9L94.8,81.4L94.1,80.4L94.1,80.2L93.8,79.8L93.5,79.3L93.2,78.7L93.0,78.3L93.0,78.1L93.1,77.9L94.5,76.5L96.0,74.7L96.3,74.2L96.5,73.9L96.8,73.5L97.0,73.4L97.1,73.2L98.0,72.0L98.1,71.7L98.7,70.8L98.9,70.6L99.0,70.3L99.4,69.7L99.5,69.5L100.2,68.3L100.7,67.2L100.9,66.9L101.7,65.2L102.3,63.6L102.6,62.9L102.9,61.8L103.2,61.1L103.9,58.7L103.9,58.4L104.1,58.0L104.1,57.6L104.2,57.5L104.3,57.0L104.5,56.0L104.5,55.7L104.5,55.4L104.7,54.8L104.8,54.0L104.9,53.0L104.9,52.6L105.0,51.7L105.0,51.0L105.1,49.7L105.1,47.8L105.0,45.3L104.9,44.8L104.8,43.7L104.8,43.4L104.7,42.8L104.7,42.4L104.6,42.3L104.6,41.9L104.5,41.6L104.4,41.0L104.3,40.8L104.3,40.2L104.1,39.7L104.1,39.4L104.0,39.1L103.8,38.2L103.6,37.8L103.5,37.3L103.3,36.7L103.3,36.5L103.1,36.1L102.8,34.9L102.4,34.0L102.1,33.2L100.8,30.3L99.5,28.0L99.4,27.9L99.2,27.5L99.1,27.3L98.9,26.9L98.8,26.8L98.0,25.5L96.3,23.2L95.9,22.8L95.7,22.5L95.3,22.1L95.2,21.9L94.4,21.1L94.1,20.6L92.2,18.8L90.7,17.5L89.7,16.8L89.2,16.3L88.8,16.1L88.5,15.8L88.5,15.8L88.1,15.5L87.8,15.3L86.8,14.6L86.1,14.2L85.3,13.7L84.6,13.3L84.2,13.0L81.6,11.7L81.0,11.5L80.7,11.3L80.0,11.1L80.0,11.0L79.4,10.8L78.2,10.4L77.5,10.2L77.2,10.0L76.8,10.0L76.7,9.9L76.3,9.8L76.1,9.7L75.8,9.6L75.4,9.5L75.1,9.5L75.0,9.4L74.2,9.3L73.5,9.0L72.1,8.8L71.5,8.7L71.0,8.6L69.4,8.4L69.0,8.4L68.6,8.3L67.9,8.3L67.1,8.3L67.0,8.2L62.7,8.2L60.1,8.3L58.8,8.2L57.7,8.3L55.4,8.3L55.2,8.3L49.0,8.3L47.7,8.4L47.0,8.5L46.5,8.5L45.6,8.7L45.2,8.7L44.8,8.8L44.4,8.9L44.2,9.0L43.7,9.0L43.5,9.1L43.0,9.2L41.0,9.8L40.9,9.9L40.6,10.0L40.5,10.1L40.1,10.2L39.5,10.4L39.3,10.5L38.9,10.7Z M38.8,12.0L38.9,12.0L39.6,11.6L40.8,11.1L41.1,11.1L41.2,11.0L41.4,10.9L41.7,10.8L41.9,10.8L42.1,10.7L42.4,10.6L43.3,10.3L43.6,10.3L43.8,10.2L44.3,10.1L44.7,10.0L45.2,10.0L45.5,9.8L45.9,9.8L47.6,9.6L48.6,9.5L49.8,9.5L50.1,9.5L50.6,9.5L51.0,9.4L53.4,9.5L58.0,9.4L65.3,9.4L66.4,9.5L66.8,9.4L67.6,9.5L68.5,9.5L69.0,9.6L69.7,9.6L70.6,9.8L71.2,9.8L72.4,10.0L74.1,10.5L74.4,10.5L74.7,10.6L75.4,10.7L76.1,11.0L76.3,11.0L76.5,11.1L76.8,11.1L77.0,11.3L77.8,11.5L78.0,11.6L78.7,11.8L78.9,11.9L79.5,12.1L80.0,12.4L80.4,12.5L82.6,13.5L82.9,13.7L83.7,14.1L84.7,14.7L85.1,15.0L85.3,15.1L85.6,15.3L85.9,15.5L86.8,16.0L87.6,16.7L88.1,17.0L89.1,17.7L89.8,18.3L90.0,18.4L90.9,19.3L91.1,19.4L92.6,20.9L94.2,22.7L94.4,22.9L95.1,23.6L95.4,24.1L95.7,24.4L96.0,24.9L96.8,25.9L96.8,26.0L97.1,26.3L97.3,26.6L97.3,26.8L97.5,26.9L97.9,27.5L97.9,27.7L98.2,28.1L98.3,28.4L98.7,28.8L99.4,30.2L99.5,30.4L100.8,33.1L100.9,33.5L101.3,34.4L101.6,35.4L101.7,35.5L101.9,36.2L102.1,36.9L102.3,37.4L102.3,37.7L102.4,37.9L102.6,38.6L102.9,39.8L102.9,40.0L103.1,40.8L103.4,42.0L103.5,42.8L103.5,42.9L103.5,43.1L103.7,44.2L103.8,45.2L103.8,45.4L103.8,46.3L103.9,48.0L103.9,49.1L103.9,51.1L103.8,51.5L103.8,52.1L103.7,53.4L103.4,55.4L102.9,57.9L102.8,58.0L102.7,58.6L102.5,59.2L102.4,59.6L102.3,59.8L102.0,61.1L101.0,63.8L100.6,64.6L100.3,65.4L99.9,66.2L99.6,66.8L99.2,67.5L98.9,68.2L98.4,68.9L98.2,69.4L97.4,70.6L97.3,70.9L96.2,72.3L96.0,72.5L96.0,72.7L95.2,73.7L94.8,74.2L93.8,75.3L93.7,75.4L93.2,75.9L93.0,76.3L91.5,77.7L91.4,78.0L91.5,78.2L91.6,78.3L92.4,79.9L93.3,81.3L93.3,81.3L93.4,81.5L93.4,81.6L93.7,81.9L94.3,83.0L95.5,85.1L95.6,85.3L96.0,85.8L96.2,86.3L96.3,86.4L96.7,87.2L97.1,87.8L97.1,87.8L97.7,88.7L98.0,89.4L98.6,90.3L99.2,91.5L99.3,91.6L99.4,91.8L99.6,92.1L100.1,93.3L100.2,93.5L100.5,94.1L100.8,95.1L100.8,95.4L101.1,96.2L101.2,96.7L101.3,96.8L101.4,97.5L101.5,98.9L101.6,99.0L101.6,100.8L101.6,102.0L101.4,103.2L101.3,103.7L101.3,104.0L101.1,104.5L101.1,104.8L101.0,105.0L100.9,105.5L100.8,105.7L100.7,106.2L100.6,106.3L100.5,106.8L100.3,107.1L100.0,108.0L99.2,109.6L98.9,110.0L98.9,110.1L97.6,111.9L97.0,112.6L96.7,112.8L96.7,113.0L96.0,113.6L95.0,114.6L94.0,115.3L93.5,115.6L93.1,115.9L92.8,116.0L92.2,116.4L91.1,116.9L91.1,116.9L90.6,117.1L90.4,117.3L90.3,117.3L90.1,117.4L89.9,117.4L89.5,117.6L89.3,117.6L89.1,117.8L88.7,117.8L88.6,117.9L88.3,117.9L88.0,118.0L87.5,118.1L87.3,118.2L86.8,118.3L86.3,118.4L85.7,118.4L85.2,118.5L82.0,118.5L80.8,118.6L78.1,118.6L76.3,118.6L67.0,118.6L61.8,118.7L58.6,118.6L53.7,118.7L53.2,118.6L49.5,118.6L49.3,118.6L48.8,118.6L44.6,118.6L43.6,118.5L43.1,118.4L42.5,118.4L42.2,118.3L41.4,118.2L41.3,118.2L39.9,117.9L39.6,117.8L38.6,117.5L38.0,117.3L37.8,117.2L37.6,117.1L37.6,117.1L37.3,117.0L37.0,116.9L36.0,116.5L35.9,116.4L34.9,115.9L32.5,114.3L31.9,113.8L30.9,113.0L29.8,111.9L29.2,111.1L28.4,110.1L27.9,109.4L27.7,109.2L27.1,108.2L27.0,108.1L26.6,107.3L26.4,106.8L26.1,106.2L25.5,104.7L25.2,103.8L25.1,103.5L24.8,102.3L24.6,101.8L24.4,100.4L24.4,99.7L24.3,99.4L24.3,94.2L24.3,93.2L24.3,58.8L24.2,55.7L24.3,54.3L24.2,40.0L24.3,38.1L24.3,34.8L24.4,32.7L24.6,31.7L24.6,31.2L24.8,30.5L24.8,30.1L24.9,29.9L25.0,29.3L25.1,28.9L25.3,27.8L25.6,27.2L25.6,26.9L25.9,26.4L26.2,25.2L26.7,24.4L26.7,24.2L27.5,22.6L27.6,22.4L27.9,21.9L28.1,21.7L28.1,21.6L28.7,20.8L28.7,20.6L29.1,20.1L29.5,19.6L29.7,19.3L29.9,19.1L30.2,18.7L31.1,17.7L32.1,16.6L33.5,15.4L34.1,15.0L34.6,14.6L35.2,14.2L35.4,14.0L36.0,13.6L36.1,13.5L36.4,13.3L37.3,12.8L37.6,12.6L37.8,12.5L38.3,12.3Z" fill="#000" fill-rule="evenodd"/>
</svg>