<svg xmlns="http://www.w3.org/2000/svg" viewBox="0 0 128 128" width="128" height="128">
  <path d="M45.4,14.1L43.1,15.0L42.0,15.7L41.1,15.9L39.8,16.6L39.4,16.7L38.3,17.4L36.6,18.2L34.8,19.5L34.4,19.5L33.7,20.2L33.1,20.4L30.2,22.6L27.4,25.0L24.9,27.5L24.5,28.0L22.9,29.6L19.5,34.0L19.1,34.8L18.2,36.0L16.8,38.4L16.5,38.7L15.5,40.9L15.0,41.5L14.6,42.8L13.7,44.5L12.8,47.2L11.9,48.9L11.9,49.6L11.1,51.7L10.8,53.6L10.1,56.1L9.6,59.5L9.2,63.6L9.2,66.7L9.6,72.0L10.5,77.8L11.0,79.0L11.0,79.8L12.0,82.7L12.1,83.3L13.7,87.6L14.6,89.2L14.6,89.5L15.9,92.1L17.1,94.1L17.5,94.6L17.6,95.0L18.0,95.4L18.2,95.9L18.6,96.4L18.9,96.9L19.3,97.3L20.0,98.6L21.2,99.8L21.3,100.0L22.7,101.7L23.8,103.1L27.6,106.7L31.3,109.8L37.2,113.8L37.9,114.1L38.1,114.1L38.7,114.5L39.1,114.6L39.3,114.8L40.8,115.5L41.3,115.9L41.9,116.1L42.6,116.3L43.1,116.6L44.9,117.3L46.0,117.5L46.5,116.7L46.6,113.3L46.5,100.0L46.5,92.1L46.4,91.4L46.5,90.5L46.3,86.0L46.4,77.9L46.2,76.1L46.2,64.4L46.6,61.9L47.5,59.1L48.1,57.9L49.5,55.5L51.9,52.8L54.1,51.0L56.4,49.6L57.3,49.3L57.7,49.0L58.2,48.9L60.0,48.2L60.9,48.0L62.4,47.9L63.3,47.7L65.9,47.7L69.0,48.2L71.7,49.1L74.3,50.5L76.2,51.9L77.7,53.2L80.0,56.0L82.0,60.1L82.9,63.9L82.9,67.4L82.3,71.2L81.5,73.4L80.5,75.4L78.7,77.9L76.6,80.2L74.6,81.6L73.7,82.0L73.2,82.4L71.9,83.1L70.0,83.8L68.9,84.0L68.1,84.3L67.6,84.3L66.0,84.7L62.7,84.6L59.0,83.8L58.1,83.5L55.2,82.2L53.6,81.1L52.9,81.2L52.9,81.5L53.9,82.9L56.7,86.0L57.5,87.1L62.1,92.3L66.2,97.4L70.3,102.1L70.7,102.9L76.2,109.2L76.7,109.9L78.8,112.3L82.3,116.6L83.1,117.3L83.9,117.4L87.0,116.2L90.1,114.5L92.1,113.5L97.3,110.1L98.0,109.4L99.1,108.7L100.9,107.2L104.6,103.5L107.2,100.3L109.8,96.8L110.5,95.5L110.9,95.0L111.0,94.6L112.3,92.7L115.0,86.6L115.2,85.6L115.7,84.8L115.9,83.8L116.6,82.1L117.0,80.1L117.4,79.3L117.5,78.1L117.8,77.5L117.9,75.9L118.2,75.2L118.7,72.0L118.8,68.6L119.0,66.7L119.0,65.8L118.8,64.1L118.8,61.2L118.3,57.4L118.3,56.5L118.0,55.7L117.9,54.2L116.9,50.4L116.5,49.4L116.5,49.1L116.1,48.3L115.9,47.3L115.7,47.1L115.7,46.8L115.1,45.1L114.8,44.8L114.8,44.3L114.3,43.6L114.3,43.1L113.7,42.1L112.4,39.1L111.9,38.5L111.6,37.9L111.2,37.2L111.2,37.0L109.4,34.5L109.3,34.1L106.3,30.3L105.1,29.0L103.1,26.7L99.1,23.1L95.4,20.4L93.1,18.9L90.5,17.5L90.1,17.2L84.3,14.6L81.9,13.8L81.2,13.5L80.4,13.3L80.1,13.1L79.0,12.9L76.5,12.2L74.5,11.9L73.8,11.6L72.5,11.5L71.8,11.3L68.5,11.0L68.0,10.9L61.6,10.9L56.4,11.4L50.8,12.5L50.5,12.7L49.2,12.9L48.7,13.2L47.8,13.3L47.4,13.6Z" fill="#000" fill-rule="evenodd"/>
</svg>