<svg xmlns="http://www.w3.org/2000/svg" viewBox="0 0 128 128" width="128" height="128">
  <path d="M11.6,10.5L11.4,12.6L11.5,17.8L11.3,23.2L11.5,25.3L11.4,26.2L11.6,30.0L11.5,46.2L11.7,47.1L11.8,50.4L11.7,53.1L11.9,61.2L11.8,65.1L12.0,71.1L11.9,73.4L12.3,94.7L12.2,102.6L12.4,104.4L12.3,105.8L12.1,106.3L12.1,106.7L12.4,107.5L12.3,116.2L12.6,116.5L13.8,116.5L13.8,116.8L13.4,117.2L12.8,117.3L12.4,117.6L12.4,118.0L12.8,118.3L13.8,118.4L15.5,118.3L27.0,118.5L27.5,118.3L27.9,117.6L28.0,101.9L27.8,95.2L27.9,85.9L27.7,80.2L27.8,71.4L27.6,66.3L27.6,52.9L27.4,50.0L27.5,26.6L28.1,26.2L30.8,26.1L60.5,26.1L66.2,25.9L76.6,26.1L82.9,25.9L101.0,25.9L101.7,26.5L101.6,27.2L101.8,32.4L101.5,33.6L101.8,35.7L101.7,62.7L101.5,71.3L101.3,71.9L100.9,72.1L91.6,72.1L87.9,72.0L87.6,71.7L87.4,66.0L87.4,46.8L87.6,41.3L87.3,41.0L80.3,40.8L42.7,40.9L42.4,41.2L42.1,42.6L41.9,51.7L41.9,66.6L42.1,80.6L42.3,81.9L42.0,84.3L42.1,87.0L42.2,87.4L42.9,87.8L50.1,87.8L54.3,88.0L69.0,87.8L70.9,88.0L71.4,88.5L71.6,89.1L71.5,117.6L71.6,118.1L72.0,118.6L73.5,118.7L79.9,118.7L84.9,118.9L111.7,118.9L116.1,118.8L116.7,118.6L116.9,118.4L117.0,104.3L116.5,103.7L106.2,103.7L88.3,103.4L87.9,103.2L87.6,102.3L87.7,97.3L87.6,89.8L87.6,88.6L87.9,88.2L88.2,88.1L94.2,88.3L116.1,88.3L116.6,88.1L116.7,87.9L116.7,63.7L116.5,60.0L116.5,36.4L116.7,35.9L116.5,34.9L116.5,25.6L116.7,21.5L116.5,10.8L116.1,10.5L87.3,10.5L79.3,10.3L29.0,10.5L28.5,10.2L28.5,9.7L28.2,9.4L27.4,9.4L27.2,10.3L26.8,10.5L26.1,10.5L25.3,10.0L25.0,10.0L24.4,10.4L17.6,10.5L12.1,10.3Z M57.0,58.0L57.6,57.7L68.1,57.7L71.2,57.9L71.6,58.5L71.6,69.9L71.4,71.0L70.8,71.4L58.0,71.4L57.2,71.2L56.9,70.6Z" fill="#000" fill-rule="evenodd"/>
</svg>