<svg xmlns="http://www.w3.org/2000/svg" viewBox="0 0 128 128" width="128" height="128">
  <path d="M89.4,10.4L88.8,10.2L80.8,10.3L77.0,10.1L53.0,9.9L52.6,9.8L52.0,9.3L51.6,9.4L51.4,9.8L51.2,9.9L23.3,9.9L11.9,9.7L11.7,9.8L11.2,10.4L11.0,34.1L11.1,39.2L10.9,40.1L11.1,41.4L11.1,51.7L10.9,58.7L10.9,91.2L10.7,95.3L10.7,104.8L10.5,112.1L10.6,117.2L11.0,117.6L31.9,117.6L32.2,117.3L32.3,108.8L32.1,103.1L32.1,66.9L32.4,35.2L32.6,33.2L32.8,32.8L33.3,32.4L41.5,32.3L77.8,32.8L78.5,33.0L79.0,33.3L80.4,34.7L86.8,42.0L87.1,42.6L87.1,42.9L86.6,43.6L85.0,45.3L84.2,46.3L78.2,52.6L77.2,53.1L66.8,53.2L63.2,53.0L52.4,53.0L44.3,52.8L43.8,53.2L43.6,58.6L43.7,69.8L43.5,75.4L43.4,87.7L43.1,97.0L43.6,97.5L45.8,98.6L47.0,99.5L47.5,99.5L49.0,100.5L49.7,100.7L52.5,102.4L53.8,103.1L54.6,103.6L55.8,104.2L56.5,104.7L57.9,105.4L59.0,106.1L60.5,106.7L61.9,107.7L68.2,111.2L68.5,111.5L69.3,111.7L69.8,112.2L71.7,113.1L72.7,113.9L74.6,114.8L81.3,118.9L82.1,118.8L83.6,118.1L95.2,111.5L97.0,110.6L97.2,110.3L99.9,108.9L100.7,108.6L102.7,107.4L103.5,107.1L103.9,106.7L104.3,106.7L105.5,105.8L106.2,105.5L107.5,104.7L108.1,104.5L108.4,104.3L110.2,103.4L110.6,103.1L111.9,102.5L113.9,101.3L114.5,101.1L115.1,100.7L116.7,100.0L117.4,99.5L117.6,99.1L117.7,93.8L117.6,75.6L117.4,75.4L112.0,75.4L108.8,75.2L103.8,75.3L97.9,75.1L96.9,75.3L96.6,75.6L96.6,84.6L96.4,85.1L95.4,86.1L92.3,87.7L90.8,88.7L87.5,90.3L87.2,90.7L84.9,91.8L83.0,93.0L81.8,93.5L81.3,93.5L79.9,92.7L79.2,92.5L77.5,91.4L73.7,89.6L71.6,88.3L71.0,88.1L69.4,87.0L65.6,85.1L64.7,84.4L64.6,83.9L64.6,77.2L64.7,75.8L65.1,75.4L69.9,75.4L80.6,75.2L81.2,75.4L83.7,75.2L85.9,75.3L86.6,75.2L87.5,74.7L89.9,71.7L105.8,54.9L106.2,54.3L107.7,52.9L107.8,52.6L110.3,50.2L110.4,49.8L113.5,46.6L117.5,42.6L117.5,41.8L116.5,41.0L115.1,39.3L113.5,37.6L110.4,34.0L106.7,29.9L105.8,29.1L105.7,28.8L104.2,27.1L101.8,24.7L101.5,24.2L99.3,21.9L95.9,18.0L95.0,17.2Z" fill="#000" fill-rule="evenodd"/>
</svg>