<svg xmlns="http://www.w3.org/2000/svg" viewBox="0 0 128 128" width="128" height="128">
  <path d="M7.7,87.1L19.5,86.9L44.6,86.9L55.3,87.1L61.3,87.0L61.7,86.8L62.1,86.2L62.2,85.7L62.9,83.6L63.1,82.6L62.8,82.1L62.3,82.0L8.5,82.0L7.7,82.5Z M42.5,78.7L42.6,79.4L42.8,79.7L43.3,79.7L55.9,79.7L62.6,79.9L63.9,79.7L64.1,79.5L64.6,78.5L64.7,77.6L65.1,76.7L65.4,75.5L65.4,75.2L65.2,74.9L59.5,74.7L50.8,74.7L50.3,74.6L50.1,74.3L50.1,74.0L51.1,70.9L51.6,70.4L65.0,70.4L66.3,70.6L67.1,70.6L69.5,71.1L71.2,72.0L72.6,73.3L73.1,74.1L74.1,76.4L74.5,77.8L74.9,78.7L75.0,79.3L76.6,84.1L77.1,86.0L77.5,86.7L77.9,87.0L90.4,87.2L107.1,87.2L107.5,87.0L107.9,86.6L109.2,83.1L109.1,82.4L108.9,82.3L108.6,82.2L101.1,82.2L96.5,82.0L89.1,82.1L82.1,82.0L81.6,81.5L81.2,80.5L80.8,78.7L80.3,77.6L80.2,77.0L79.6,75.3L79.1,73.4L78.7,72.8L78.2,71.7L76.9,69.8L75.3,68.3L74.8,68.1L74.4,67.8L73.1,67.2L72.7,66.9L70.5,66.3L67.0,65.7L48.1,65.5L47.5,65.7L47.0,66.2L46.6,67.1L45.9,69.5L44.9,71.8L44.7,72.6L44.4,73.1L44.0,74.5L43.7,75.3L43.5,76.0L43.2,76.5L42.6,78.5Z M48.3,63.3L48.7,63.5L52.1,63.5L55.1,63.7L59.8,63.6L71.9,63.7L75.5,63.6L79.2,63.1L81.1,62.7L83.3,62.0L86.6,60.5L89.4,58.6L90.5,57.6L92.0,56.7L92.7,55.9L92.8,55.6L91.4,54.1L87.7,51.5L84.1,49.9L81.1,49.2L77.3,48.8L75.0,48.9L65.2,48.7L53.6,48.7L53.1,49.1L52.8,49.7L52.1,52.1L51.5,53.1L51.5,53.6L51.2,54.0L49.2,60.0L48.6,61.6L48.3,62.7Z M55.7,58.6L55.7,58.1L56.5,55.9L56.6,55.8L56.9,54.6L57.3,53.9L57.6,53.7L66.8,53.6L68.5,53.8L71.3,53.7L78.5,53.9L80.9,54.2L82.4,54.7L83.7,55.3L84.1,55.8L84.1,55.9L83.5,56.5L82.8,57.0L81.0,57.8L78.5,58.5L76.8,58.7L75.7,58.9L71.2,59.1L58.5,59.0L56.0,58.8Z M39.6,48.7L38.9,48.6L21.1,48.4L20.2,48.6L19.9,48.9L18.5,52.6L18.5,53.2L18.7,53.3L19.4,53.5L31.7,53.6L32.1,53.9L31.2,56.8L30.1,59.4L29.5,61.4L29.2,62.0L28.6,64.0L28.3,64.3L26.9,68.9L26.6,69.2L24.9,74.0L24.3,74.4L11.7,74.4L10.8,74.7L10.3,75.4L9.6,77.6L9.4,77.9L9.1,78.9L9.2,79.6L27.8,79.7L28.7,79.7L29.2,79.3L29.8,77.6L30.0,77.0L30.4,76.2L31.6,72.4L31.9,71.8L33.0,68.7L33.6,67.3L34.1,65.3L35.2,62.6L35.8,60.7L36.4,59.4L38.6,52.7L39.6,50.4L39.8,48.9Z M21.1,45.5L21.1,45.9L21.4,46.2L26.0,46.3L28.2,46.3L32.1,46.4L49.2,46.4L52.4,46.6L69.8,46.6L74.7,46.7L81.0,46.6L89.3,46.8L93.1,47.2L94.0,47.5L95.2,47.6L97.4,48.2L100.2,49.2L101.9,50.1L102.1,50.3L103.4,50.9L105.2,52.1L106.7,53.0L109.2,54.7L109.5,55.0L109.5,55.3L109.2,55.7L108.3,56.2L108.0,56.5L107.7,56.6L104.9,58.6L102.8,59.9L101.7,60.7L100.5,61.2L100.2,61.4L99.2,62.0L96.5,63.1L94.1,63.7L93.7,63.7L92.3,64.1L90.3,64.3L87.9,64.8L85.7,64.9L84.5,65.2L84.5,65.5L85.9,66.2L86.3,66.6L86.9,66.8L88.4,67.9L89.9,69.5L90.6,70.6L91.7,73.0L93.7,79.5L94.3,79.9L97.6,80.0L110.1,79.9L110.5,79.5L111.0,77.8L111.3,77.3L111.8,75.6L111.8,75.0L111.0,74.8L99.6,74.8L98.3,74.7L97.8,73.9L97.7,73.3L96.8,70.4L96.1,69.0L95.8,68.6L95.6,68.0L95.9,67.7L98.8,67.2L102.4,66.0L103.7,65.2L104.7,64.8L107.5,63.2L110.3,61.3L111.4,60.7L114.1,58.8L114.6,58.5L116.5,57.1L116.6,57.1L118.8,55.6L119.2,55.1L119.2,54.8L118.1,53.9L117.6,53.6L116.6,52.9L115.1,52.1L114.6,51.6L111.6,49.7L111.1,49.5L110.1,48.7L109.8,48.6L108.3,47.6L107.8,47.4L106.8,46.7L104.3,45.4L103.9,45.4L103.4,45.0L100.7,43.9L96.6,42.7L94.1,42.2L92.4,42.0L91.5,42.0L90.7,41.7L86.4,41.5L82.6,41.6L77.7,41.4L62.5,41.4L57.9,41.3L54.7,41.4L33.7,41.1L31.2,41.2L23.8,41.1L23.0,41.1L22.5,41.5L22.1,42.3Z" fill="#000" fill-rule="evenodd"/>
</svg>