<svg xmlns="http://www.w3.org/2000/svg" viewBox="0 0 128 128" width="128" height="128">
  <path d="M89.8,118.8L89.2,118.6L83.5,118.8L70.2,118.7L64.7,118.9L60.2,118.7L28.5,118.8L28.5,119.0L28.8,119.1L39.6,119.0L51.4,119.2L61.2,119.1L61.7,118.9L88.2,119.0L89.6,118.9Z M86.4,66.0L86.4,66.6L87.3,67.8L87.5,68.3L88.1,69.3L88.5,69.6L88.7,70.2L89.7,71.6L89.8,72.1L91.8,75.0L92.5,76.3L93.2,77.1L94.0,78.7L94.3,79.0L95.3,80.7L95.4,81.0L96.2,82.1L96.5,82.6L97.5,84.2L97.6,84.5L98.5,85.6L98.7,86.3L99.2,86.8L99.5,87.6L100.2,88.2L100.4,88.1L100.4,87.7L98.9,85.3L98.8,84.9L98.5,84.6L97.8,83.3L97.2,82.6L97.0,82.1L96.6,81.7L96.5,81.2L95.1,79.2L94.4,77.7L94.0,77.3L93.1,75.8L92.2,74.6L91.5,73.3L90.8,72.4L90.3,71.4L89.9,70.9L89.8,70.4L89.4,70.1L88.5,68.5L87.8,67.5L87.7,67.2L86.7,65.9Z M82.2,65.8L82.1,66.3L83.2,67.9L83.4,68.3L83.7,68.6L84.3,69.9L85.5,71.5L86.0,72.6L87.2,74.1L87.6,75.0L91.0,80.3L91.3,81.0L92.3,82.5L92.5,83.0L93.3,84.3L93.8,84.8L94.0,85.5L94.5,86.0L94.7,86.4L96.2,88.7L98.8,93.0L99.1,93.2L99.2,93.6L100.0,94.7L100.3,94.8L100.6,94.5L100.6,94.3L100.3,93.3L99.5,92.2L98.3,90.1L95.9,86.4L94.4,83.9L92.9,81.6L92.8,81.3L91.0,78.7L90.3,77.3L89.4,76.2L88.1,73.7L87.3,72.8L86.8,71.6L86.0,70.6L85.4,69.5L84.6,68.4L83.4,66.4L82.6,65.7Z M73.6,65.7L73.5,66.2L76.9,71.5L77.1,72.0L79.1,74.9L79.3,75.4L79.8,76.0L80.5,77.4L84.8,84.0L86.1,86.4L86.5,86.8L88.9,90.6L89.5,91.5L90.1,92.6L90.6,93.2L91.4,94.6L92.7,96.6L93.0,97.2L93.7,98.2L94.0,98.9L96.6,102.9L97.8,105.0L98.3,105.6L98.6,106.2L98.9,106.5L99.5,107.5L100.0,108.1L100.2,108.1L100.5,107.8L100.6,107.5L100.6,106.5L100.4,105.8L98.1,102.0L97.7,101.5L97.2,100.5L96.1,99.0L95.7,98.2L93.6,95.1L91.4,91.3L90.0,89.4L88.6,86.8L88.2,86.4L87.2,84.7L86.8,84.2L86.7,83.9L84.2,80.1L83.9,79.5L83.3,78.7L81.9,76.3L81.4,75.7L79.5,72.4L79.2,72.0L75.4,66.1L74.6,65.7Z M77.9,65.7L77.6,65.8L77.9,66.5L80.1,69.9L80.7,71.1L81.3,71.7L81.3,72.0L82.2,73.3L82.9,74.6L84.2,76.3L86.0,79.4L88.9,83.9L89.5,85.1L90.2,86.0L90.8,87.2L92.4,89.5L92.6,90.0L94.5,92.9L95.0,93.9L95.9,95.1L96.7,96.6L98.0,98.5L98.6,99.7L99.8,101.4L100.1,101.6L100.4,101.6L100.5,100.7L100.2,99.6L99.5,98.6L99.3,98.1L99.0,97.8L98.8,97.3L97.3,95.0L97.0,94.4L96.2,93.4L96.0,92.7L95.2,91.7L94.8,91.0L94.4,90.6L93.9,89.4L92.5,87.3L91.8,86.4L91.5,85.7L90.4,84.1L90.3,83.8L89.8,83.2L88.1,80.1L86.4,77.7L85.8,76.7L84.8,75.3L84.4,74.4L83.9,73.8L83.6,73.1L82.0,70.8L81.7,70.2L81.4,69.9L81.2,69.3L80.4,68.2L80.2,67.7L79.7,67.1L79.1,66.0L78.6,65.7Z M69.6,65.7L69.5,66.1L70.1,67.3L70.5,67.7L71.6,69.6L72.9,71.3L74.4,73.9L74.9,74.5L75.0,74.8L76.8,77.5L78.2,80.0L79.2,81.3L80.0,82.8L80.5,83.4L80.8,84.1L82.1,86.0L82.4,86.7L84.3,89.4L87.3,94.4L87.7,94.8L88.5,96.3L90.4,99.2L91.9,101.7L92.3,102.3L93.2,103.9L95.7,107.7L97.8,111.3L98.3,111.8L99.7,114.2L99.9,114.4L100.3,114.4L100.5,114.3L100.6,113.7L100.5,112.3L99.9,110.9L99.5,110.5L98.0,107.9L97.2,106.9L97.0,106.4L96.5,105.8L94.9,103.1L94.0,101.9L93.6,101.0L93.2,100.4L92.7,99.5L89.7,94.9L87.9,91.9L86.8,90.5L86.7,90.0L84.5,86.5L84.1,86.1L83.1,84.3L82.8,84.0L81.2,81.3L79.2,78.3L78.3,76.7L77.4,75.5L76.7,74.1L76.1,73.4L75.9,72.9L75.2,72.0L74.6,70.8L73.8,69.8L73.7,69.5L72.5,67.8L72.2,67.0L71.5,66.0L70.8,65.6L70.1,65.6Z M65.6,65.7L65.5,66.2L65.7,66.5L66.2,67.2L66.3,67.5L69.9,73.0L70.2,73.6L71.3,75.2L71.6,75.9L72.0,76.3L72.1,76.7L72.9,77.8L73.3,78.6L74.3,80.0L74.7,80.9L78.1,86.0L78.2,86.4L78.5,86.7L80.9,90.6L81.9,91.9L82.5,93.1L84.3,96.1L85.5,97.7L85.7,98.2L86.7,99.5L87.2,100.7L88.1,101.9L89.6,104.5L90.6,105.9L91.0,106.8L92.0,108.1L92.7,109.5L94.4,111.9L95.1,113.3L96.0,114.5L96.2,115.1L96.7,115.6L97.8,117.7L98.2,118.0L98.6,118.7L98.8,118.9L100.2,118.9L100.4,118.5L100.4,117.6L99.8,116.3L98.9,115.1L98.3,113.9L97.0,112.1L95.7,109.9L95.4,109.6L94.0,107.1L92.2,104.4L92.1,104.1L90.4,101.6L89.5,100.0L88.6,98.9L88.5,98.6L84.2,91.5L83.4,90.6L82.7,89.2L81.8,88.0L81.6,87.4L78.5,82.7L78.4,82.4L77.3,80.9L76.6,79.5L74.6,76.6L74.2,75.8L73.3,74.6L71.9,72.1L70.7,70.4L70.4,69.9L68.0,66.1L67.6,65.7L67.1,65.6L66.0,65.6Z M94.3,29.3L94.4,29.5L94.5,29.5Z M92.8,26.8L92.7,27.0L93.2,27.6L93.2,27.8L93.6,28.2L93.6,28.5L93.8,28.7L94.0,28.7L93.8,28.1Z M29.8,9.6L29.6,10.2L29.6,12.7L29.8,15.5L30.0,35.7L30.3,46.5L30.2,50.0L30.4,51.5L30.3,53.1L30.5,58.5L30.4,62.7L30.6,65.3L30.5,66.5L30.6,67.1L30.5,68.0L30.6,69.3L30.6,78.9L30.8,79.7L30.8,82.0L30.6,83.6L30.9,85.0L30.7,86.6L30.9,87.5L30.8,90.1L31.3,90.3L31.6,90.2L31.7,86.9L31.5,86.0L31.6,83.5L31.4,81.7L31.4,67.9L31.2,67.3L31.2,55.1L30.6,24.7L30.6,22.3L30.4,14.4L30.5,11.4L30.3,9.7L30.2,9.5Z M33.2,9.3L32.8,9.5L32.9,15.7L33.1,17.1L33.0,18.8L33.2,23.8L33.2,33.0L33.2,36.5L33.4,37.5L33.3,40.3L33.5,41.1L33.4,45.4L33.6,56.6L33.6,68.6L34.0,82.3L33.9,84.7L34.0,88.5L34.0,90.1L34.4,90.4L34.8,90.4L35.0,90.2L35.0,84.1L34.8,79.7L34.9,77.1L34.8,74.2L34.8,72.6L34.7,70.4L34.7,63.6L34.5,57.1L34.6,52.9L34.4,48.0L34.4,42.3L34.2,36.1L34.2,27.4L34.0,19.7L34.0,17.8L33.9,15.1L34.0,10.3L33.8,9.5L33.5,9.3Z M76.9,9.1L77.0,9.4L77.5,9.5L78.2,9.9L78.4,9.9L79.1,10.3L79.5,10.4L80.9,11.3L81.4,11.5L81.7,11.7L82.3,11.9L82.3,11.7L82.0,11.5L81.6,11.5L81.1,11.0L79.7,10.3L79.6,10.1L78.8,9.9L78.4,9.5L77.6,9.4L77.3,9.1Z M36.6,9.2L36.4,9.5L36.3,11.9L36.5,21.3L36.6,23.7L36.7,35.6L37.0,42.9L37.0,51.4L37.1,53.2L37.1,68.6L37.3,69.9L37.2,70.8L37.4,72.9L37.4,88.1L37.5,90.2L37.8,90.6L37.4,90.8L31.9,90.8L31.4,90.6L30.4,90.8L28.1,90.8L27.7,91.0L27.7,93.4L27.9,93.6L28.5,93.7L51.7,93.6L62.3,93.6L68.1,93.5L73.2,93.6L74.4,93.2L74.7,93.5L74.9,93.8L74.8,94.2L28.2,94.2L28.0,94.3L27.7,94.6L27.7,95.7L27.9,96.6L28.8,96.8L47.4,96.8L53.0,96.6L62.5,96.7L67.3,96.5L75.3,96.5L76.0,96.2L76.3,96.2L77.1,97.3L77.0,97.6L63.3,97.8L28.3,97.7L28.0,97.8L27.7,98.2L27.8,99.6L28.2,99.9L32.1,100.0L68.1,99.8L76.3,99.9L77.5,99.8L78.2,99.4L79.0,100.3L79.2,101.0L79.1,101.2L57.3,101.2L56.1,101.2L55.4,101.6L54.3,101.2L52.6,101.2L29.0,101.2L28.3,101.2L27.8,101.6L27.8,102.7L28.1,102.9L28.6,103.1L47.1,103.1L50.9,102.9L78.1,102.9L80.3,102.7L80.5,102.8L81.3,104.1L81.3,104.3L81.2,104.5L28.4,104.5L27.8,105.0L27.9,105.8L28.1,106.2L28.4,106.3L66.5,106.3L71.4,106.1L81.0,106.1L82.3,105.8L82.8,106.3L83.4,107.2L83.4,107.6L83.3,107.8L53.6,107.8L44.4,107.9L28.7,107.8L28.1,107.9L27.9,108.1L27.9,109.0L28.3,109.3L54.0,109.3L68.2,109.2L80.9,109.2L83.4,109.2L84.2,108.9L84.7,109.3L85.7,111.0L85.7,111.4L85.5,111.6L70.4,111.5L53.0,111.7L28.9,111.5L28.2,111.7L28.0,112.0L28.0,112.2L28.6,112.7L64.0,112.6L66.6,112.5L85.5,112.6L86.5,112.4L87.9,114.4L88.0,114.8L87.6,115.1L86.3,115.0L82.6,115.1L29.0,115.1L28.2,115.2L28.1,115.4L28.1,115.7L28.5,115.9L31.9,116.0L40.4,115.8L83.9,115.8L88.5,115.6L89.3,116.6L89.7,117.4L90.2,118.0L90.3,118.5L91.0,118.9L93.3,118.9L93.6,118.9L93.9,118.4L94.2,118.5L94.8,118.9L95.2,119.0L96.5,119.0L97.0,118.9L97.0,118.1L94.8,115.0L94.6,114.4L92.3,110.9L91.2,109.0L90.9,108.7L90.0,107.1L88.6,105.0L88.4,104.5L87.9,103.9L87.2,102.6L86.8,102.2L86.7,101.9L85.5,99.9L84.6,98.7L84.3,98.2L83.8,97.4L83.7,97.1L81.4,93.7L81.3,93.2L80.9,92.9L80.0,91.2L78.4,89.0L77.2,86.8L74.9,83.4L74.5,82.5L73.8,81.7L72.9,79.9L72.0,78.8L70.5,76.3L70.2,75.9L70.1,75.6L69.4,74.6L69.1,74.1L63.9,65.9L63.2,65.7L61.6,65.7L61.2,65.9L61.3,66.5L61.9,67.1L63.6,69.9L63.7,70.2L64.0,70.5L65.2,72.5L65.7,73.0L66.3,74.2L68.2,77.2L68.6,77.5L69.5,79.2L70.3,80.3L70.6,81.0L71.5,82.2L71.6,82.7L72.2,83.4L73.2,85.1L73.8,85.9L75.0,88.1L75.8,89.1L76.4,90.4L78.2,92.8L78.4,93.6L79.3,94.7L80.1,96.1L80.5,96.5L80.8,97.4L81.6,98.2L81.7,98.6L82.3,99.5L83.0,100.8L83.9,101.9L84.1,102.4L84.5,102.9L84.7,103.4L85.9,105.2L86.1,105.8L86.6,106.3L86.6,106.8L86.4,106.7L85.6,105.8L84.6,104.1L84.5,103.7L83.2,102.0L82.7,101.0L80.9,98.5L80.8,97.9L80.1,96.8L78.7,94.8L78.3,93.9L77.8,93.4L76.7,91.5L75.6,90.0L74.7,88.5L74.6,88.1L73.8,87.2L73.7,86.9L73.2,86.3L72.5,84.9L71.3,83.3L70.6,81.8L69.5,80.5L69.5,80.1L68.8,79.2L68.6,78.7L68.2,78.3L66.6,75.8L66.6,75.7L65.3,73.7L64.7,72.8L64.6,72.4L64.1,71.9L63.9,71.3L63.5,70.9L63.0,69.9L61.9,68.6L61.6,67.8L61.3,67.5L60.6,66.2L59.8,65.6L59.9,65.3L62.7,64.8L63.1,64.9L63.6,65.3L67.6,65.3L68.7,65.1L69.7,64.4L72.0,62.1L73.0,60.7L73.1,60.4L73.4,60.4L73.4,60.7L72.9,61.6L71.5,63.4L69.9,64.9L70.6,65.3L72.6,65.3L73.2,64.9L74.2,63.7L75.4,62.1L76.4,60.0L77.2,57.8L77.5,57.5L77.6,56.1L77.9,55.6L78.2,53.0L78.2,50.5L78.0,49.1L77.6,47.5L77.5,46.6L76.4,43.5L74.8,40.7L72.9,38.4L70.3,36.1L68.4,34.8L66.4,33.7L62.8,32.6L61.9,32.5L61.5,32.3L59.2,32.2L55.8,32.3L55.3,31.8L55.3,31.2L55.5,31.0L59.4,31.0L62.2,31.3L65.3,32.1L67.0,32.7L67.9,33.3L68.3,33.4L70.0,34.4L72.2,36.1L74.7,38.6L76.7,41.6L78.0,44.2L78.4,45.6L78.9,47.1L79.4,50.1L79.4,53.2L78.9,56.6L78.5,57.7L78.4,58.3L77.5,60.6L77.0,61.5L76.9,61.9L75.0,64.7L75.0,65.0L75.4,65.2L76.6,65.2L77.1,65.0L78.3,63.6L78.5,63.0L79.2,61.9L79.6,60.6L80.0,60.1L81.2,55.7L81.2,55.0L81.4,54.1L81.4,49.9L81.3,48.5L80.5,45.2L79.5,42.5L78.1,39.8L76.3,37.2L75.1,35.8L73.3,34.0L70.9,32.3L67.5,30.6L63.8,29.4L61.5,28.9L59.4,28.8L55.7,28.9L55.2,28.6L55.3,27.7L55.6,27.6L59.9,27.7L62.9,28.0L66.4,28.9L69.8,30.2L72.9,32.2L74.6,33.6L76.4,35.4L77.8,37.0L78.8,38.4L80.2,40.9L80.6,42.0L81.2,43.1L82.1,46.0L82.2,47.3L82.6,48.4L82.7,50.1L82.6,54.8L82.4,56.3L82.2,56.9L82.1,57.8L81.0,61.0L80.7,61.5L80.5,62.0L80.3,62.3L80.2,62.7L79.6,63.8L79.2,64.4L79.2,64.8L79.5,65.1L80.6,65.1L80.9,64.9L81.3,64.6L82.2,62.9L83.1,60.6L83.8,58.4L84.3,56.3L84.3,55.1L84.5,54.5L84.7,51.5L84.4,47.9L83.5,44.2L81.9,40.0L80.2,37.1L79.8,36.7L79.6,36.3L79.2,35.8L78.6,34.9L75.4,31.7L73.7,30.4L72.0,29.3L68.7,27.6L64.7,26.3L61.0,25.6L55.5,25.6L55.2,25.4L55.1,24.3L55.5,23.9L56.6,24.1L60.3,24.0L60.9,24.2L63.6,24.4L66.0,24.9L70.8,26.7L71.0,26.9L72.2,27.5L73.3,28.3L73.8,28.5L76.7,30.6L79.2,33.2L81.2,35.7L83.1,38.9L84.7,42.4L85.0,43.8L85.2,44.2L85.6,45.7L86.2,49.5L86.3,52.3L86.1,55.4L85.7,56.8L85.6,58.1L85.3,58.9L84.8,61.0L84.3,61.8L84.2,62.5L83.9,63.1L83.6,63.9L83.2,64.4L83.2,64.7L83.5,65.0L84.3,65.0L84.9,64.5L85.0,64.1L85.3,63.6L86.0,62.1L87.2,57.6L87.8,53.4L87.8,50.9L87.3,46.6L86.8,44.8L86.6,43.3L86.4,43.2L86.3,42.4L85.0,39.1L82.6,34.9L80.1,31.9L77.1,28.9L74.0,26.7L72.5,25.8L69.5,24.4L66.4,23.4L64.1,22.8L60.6,22.3L55.5,22.3L55.2,22.2L55.1,21.8L55.1,20.9L55.4,20.5L59.7,20.5L62.7,20.8L65.5,21.3L67.4,21.7L71.1,23.0L73.8,24.4L74.3,24.8L76.3,26.0L77.9,27.2L80.9,30.0L83.4,33.0L85.4,36.0L86.6,38.2L87.5,40.3L88.9,44.7L89.4,48.1L89.7,52.8L89.5,53.7L89.5,54.7L89.4,55.1L89.3,56.8L88.4,60.6L87.7,62.7L86.9,64.3L87.0,64.8L87.4,65.0L88.0,64.8L88.4,64.3L89.6,61.0L89.6,60.6L90.1,59.1L90.6,56.6L90.6,55.1L90.9,53.6L90.8,49.0L90.4,45.9L89.4,41.8L88.5,39.2L86.4,35.0L85.4,33.5L84.6,32.5L84.3,31.9L81.9,29.1L80.1,27.3L77.8,25.4L76.5,24.5L75.8,24.2L75.1,23.6L74.4,23.3L74.1,23.0L71.5,21.7L68.6,20.7L66.1,20.0L61.7,19.2L59.9,19.2L58.8,19.1L55.4,19.2L55.1,18.8L55.1,17.1L55.5,16.8L60.2,16.8L62.7,17.1L63.8,17.1L69.3,18.4L72.1,19.5L75.8,21.3L79.1,23.4L82.1,26.0L83.9,27.8L86.0,30.3L87.3,32.2L89.1,35.2L90.8,38.8L92.1,42.7L92.6,45.4L92.9,46.6L93.1,49.6L93.3,50.9L93.2,54.3L93.1,54.9L92.9,57.1L92.5,58.7L92.4,59.8L92.1,60.5L91.9,61.5L90.9,64.4L90.9,64.6L91.1,64.8L91.6,64.7L92.1,63.7L92.4,62.3L92.7,61.9L93.2,59.7L93.4,59.1L93.4,58.6L94.0,56.1L94.0,54.8L94.1,53.9L94.1,50.1L93.7,46.5L93.2,43.7L93.0,43.2L92.5,41.1L91.8,39.2L91.6,38.5L89.4,33.9L87.7,31.0L86.1,28.9L82.6,25.1L78.6,21.9L77.0,21.0L76.1,20.4L73.2,18.8L72.7,18.8L72.4,18.5L71.9,18.4L69.9,17.6L68.7,17.4L67.1,16.8L63.9,16.2L61.7,15.9L58.2,15.8L55.5,15.8L55.0,15.3L55.0,13.3L55.2,13.0L56.6,13.2L61.2,13.2L64.6,13.6L68.8,14.5L71.2,15.2L72.4,15.8L73.1,15.9L77.0,17.8L80.9,20.3L84.2,23.0L87.8,26.8L90.9,31.0L91.1,31.6L92.0,32.9L93.0,35.1L93.5,35.8L94.2,37.8L94.7,38.8L94.7,39.1L95.3,40.6L95.4,41.5L95.7,41.9L95.9,43.3L96.1,43.7L96.2,44.5L96.4,44.7L96.5,46.9L96.8,47.7L97.0,49.5L96.9,55.1L96.6,56.2L96.5,58.4L96.2,58.9L95.9,61.1L95.7,61.5L95.6,62.3L95.2,63.5L95.3,64.3L95.5,63.7L95.6,63.1L95.9,62.6L96.1,61.5L96.4,61.0L96.6,59.1L96.8,58.9L97.0,58.2L96.9,57.6L97.0,56.6L97.3,55.9L97.4,53.0L97.4,50.4L97.3,48.1L97.0,47.0L97.0,46.0L96.5,43.5L96.5,42.9L96.3,42.7L95.9,40.8L95.3,39.0L95.0,38.5L94.9,37.8L94.4,36.5L93.9,35.5L93.6,34.7L92.7,32.7L92.4,32.5L91.2,30.2L90.0,28.6L89.8,28.1L86.8,24.6L85.5,23.4L84.5,22.3L81.3,19.7L79.5,18.4L75.8,16.3L70.7,14.3L68.5,13.7L65.9,13.1L61.8,12.5L56.8,12.4L55.2,12.5L54.9,12.0L54.8,9.6L54.4,9.2L52.4,9.2L52.0,9.7L51.9,10.3L51.6,10.3L51.5,9.5L51.3,9.3L50.9,9.1L49.6,9.1L49.2,9.4L49.1,9.9L49.1,12.9L49.3,18.2L49.3,26.0L49.6,33.3L49.6,43.3L49.7,48.5L49.8,65.3L50.1,85.0L50.1,87.7L50.2,90.2L50.5,90.5L50.4,90.7L50.0,90.8L48.6,90.8L48.4,90.5L48.8,90.2L48.9,88.3L48.8,83.8L48.8,78.8L48.7,75.9L48.8,74.9L48.6,68.5L48.6,55.5L48.4,39.1L48.3,34.6L48.3,23.1L48.1,21.1L48.1,16.3L47.9,14.5L48.0,12.0L47.9,9.5L47.4,9.1L46.2,9.1L45.8,9.3L45.8,13.5L45.9,18.4L45.8,19.7L46.0,21.7L45.9,25.3L46.1,27.3L46.2,39.6L46.3,40.8L46.3,49.9L46.5,60.5L46.4,66.1L46.7,79.6L46.7,88.4L46.7,90.1L47.1,90.5L47.0,90.7L46.7,90.8L45.4,90.7L45.1,90.5L45.4,90.2L45.4,84.1L45.3,83.0L45.1,56.9L45.0,50.5L45.0,45.4L44.9,44.1L45.0,39.6L44.7,32.8L44.6,18.3L44.5,12.2L44.3,9.5L43.7,9.1L43.1,9.1L42.8,9.4L42.6,9.9L42.8,21.2L42.9,22.8L42.9,33.5L43.1,35.6L43.3,43.5L43.2,49.0L43.3,55.6L43.4,57.7L43.3,64.7L43.5,69.9L43.4,72.1L43.6,75.3L43.6,88.1L43.7,89.9L44.0,90.5L43.9,90.7L43.7,90.8L42.1,90.7L42.1,80.3L41.7,62.2L41.7,50.0L41.4,36.6L41.5,31.9L41.2,10.4L40.9,9.2L39.7,9.2L39.4,9.6L39.8,25.0L39.8,32.6L40.0,40.5L40.1,54.7L40.3,58.1L40.3,76.6L40.5,81.2L40.5,90.1L40.8,90.6L40.3,90.8L38.6,90.7L38.4,90.5L38.8,90.1L38.5,75.1L38.6,72.7L38.3,65.5L38.3,49.4L38.2,46.0L38.2,36.4L37.9,32.3L38.0,28.3L37.8,27.4L37.9,20.1L37.8,16.7L37.8,9.9L37.4,9.2Z M86.9,107.1L87.7,107.9L87.9,108.5L88.3,109.0L88.5,109.6L88.9,110.1L89.1,110.5L89.5,110.9L90.0,112.0L90.6,112.7L90.9,113.4L90.7,113.6L89.2,111.4L89.0,110.9L88.7,110.6L88.5,110.1L88.1,109.7L87.7,108.8L86.8,107.7L86.7,107.2Z M67.1,90.6L67.3,90.4L68.2,90.4L68.6,90.7Z M65.4,90.5L65.3,90.7L62.6,90.5Z M55.6,90.4L56.2,90.3L56.4,90.4L56.4,90.7L55.7,90.7Z M72.7,90.6L72.5,90.8L71.5,90.6L71.5,90.4L72.1,90.2L72.6,90.2Z M52.6,66.8L52.7,67.3L52.6,71.9L52.8,72.2L52.9,73.5L52.8,79.5L53.0,80.3L52.9,89.9L53.4,90.5L53.3,90.7L52.5,90.8L52.1,90.6L52.1,90.5L52.5,90.2L52.6,89.8L52.5,89.7L52.6,87.0L52.5,86.0L52.6,81.2L52.4,80.0L52.3,75.4L52.4,69.1L52.2,68.5L52.3,67.0Z M52.6,61.5L52.8,62.5L52.7,64.7L52.4,64.8L52.2,61.9Z M74.2,58.3L74.5,58.4L74.4,58.9L74.2,59.0L74.0,59.8L73.8,60.0L73.6,59.9L73.6,59.4L74.0,59.0L74.0,58.6Z M52.6,57.7L52.6,58.2L52.4,58.5L52.3,57.8Z M74.8,57.0L75.0,57.2L74.9,57.6L74.5,57.7L74.5,57.2Z M75.3,55.9L75.3,56.5L75.2,56.7L74.9,56.8L74.9,56.2L75.0,55.9Z M52.5,52.0L52.5,55.4L52.6,56.2L52.4,56.4L52.2,56.0L52.2,53.1Z M74.7,47.2L75.0,47.1L75.3,47.5L75.4,47.9L75.2,48.4L75.0,48.2L75.0,47.7Z M74.0,44.3L74.5,45.2L74.5,45.8L74.2,45.7L73.8,45.0L73.7,44.6Z M52.4,42.9L52.6,43.3L52.6,44.5L52.5,44.6L52.2,48.9L52.2,43.2Z M52.5,40.3L52.6,40.5L52.3,41.8L52.2,41.1Z M55.5,34.8L61.0,34.8L63.9,35.4L66.5,36.4L68.1,37.4L68.2,37.6L68.9,37.9L71.0,39.9L71.2,40.2L72.0,40.9L72.9,42.4L73.3,42.9L73.8,44.1L73.6,44.2L73.5,43.9L72.9,43.1L72.6,42.5L71.1,40.9L70.6,40.2L69.1,38.9L68.6,38.4L68.1,38.2L67.3,37.5L65.6,36.8L65.1,36.5L62.6,35.7L59.9,35.3L57.5,35.2L55.7,35.3L55.4,35.1Z M52.2,32.7L52.4,32.8L52.4,33.7L52.2,33.8L52.0,34.3L52.0,33.1Z M52.2,24.8L52.4,24.9L52.2,26.9Z M52.2,21.3L52.2,21.6L52.4,21.7L52.3,23.0L52.1,23.0L52.0,22.7Z M52.0,11.1L51.7,12.6L51.7,12.0Z M56.0,9.1L56.0,9.3L56.4,9.5L58.8,9.4L62.4,9.5L67.6,10.3L73.2,12.0L76.3,13.3L77.2,13.6L77.5,13.8L78.1,14.1L81.3,15.9L83.8,17.7L84.3,18.2L84.9,18.5L88.2,21.7L88.7,22.3L89.9,23.4L91.4,25.3L92.3,26.2L92.1,25.6L91.2,24.7L91.2,24.5L90.8,24.1L90.6,23.6L88.1,20.9L86.3,19.2L85.5,18.7L84.9,18.0L83.1,16.7L81.7,15.8L81.4,15.5L80.4,14.9L79.3,14.4L79.1,14.1L78.6,14.0L77.3,13.2L76.3,12.7L75.7,12.6L75.4,12.4L75.0,12.3L72.8,11.2L71.6,10.9L71.1,10.9L70.2,10.5L68.8,10.3L68.2,10.0L65.7,9.5L61.1,9.1Z" fill="#000" fill-rule="evenodd"/>
</svg>