<svg xmlns="http://www.w3.org/2000/svg" viewBox="0 0 128 128" width="128" height="128">
  <path d="M75.3,23.0L72.1,21.9L70.2,21.4L68.9,21.3L68.5,21.1L64.9,20.9L10.5,20.8L9.9,20.9L9.5,21.1L9.3,21.7L9.3,33.8L9.5,44.4L9.4,55.9L9.6,60.6L9.5,64.1L9.6,84.3L9.7,88.1L9.7,106.1L9.8,107.1L10.3,107.7L11.4,107.9L32.4,107.8L34.4,107.7L34.7,107.6L35.0,107.2L35.2,98.5L35.2,85.6L34.9,51.3L35.0,48.5L35.3,47.5L36.3,47.2L54.8,47.2L58.4,47.4L59.5,47.6L61.3,48.5L61.9,49.1L62.4,49.9L62.9,51.1L63.0,51.8L62.9,53.6L62.1,55.1L60.1,57.2L59.8,57.7L59.2,58.1L57.1,60.2L56.7,60.7L52.0,65.5L51.7,65.7L49.2,68.4L48.8,68.5L48.7,68.9L45.8,71.6L45.7,71.9L43.0,74.5L42.8,74.9L40.1,77.5L39.0,78.8L39.1,79.4L39.2,79.5L66.6,79.6L73.5,79.4L74.7,78.7L82.1,71.1L82.4,70.5L84.1,68.6L84.7,67.6L87.0,63.5L87.0,63.2L87.7,61.6L88.8,58.7L89.3,56.6L90.0,51.7L90.0,48.0L89.5,43.8L89.0,41.6L88.6,40.3L88.6,39.9L88.2,39.1L87.7,37.3L86.3,34.5L85.9,33.6L84.1,30.7L81.6,27.6L79.5,25.7L77.4,24.1Z M118.4,20.5L118.0,20.4L94.2,20.4L93.5,20.5L93.1,21.0L93.0,32.2L93.0,54.9L92.7,72.1L92.8,75.4L92.6,76.5L91.9,78.3L91.4,79.1L90.3,80.2L89.7,80.6L88.0,81.3L85.9,81.6L76.9,81.6L71.9,81.4L44.5,81.4L39.8,81.5L39.5,81.6L39.2,81.8L39.4,82.5L60.2,103.4L61.0,104.4L63.8,107.0L64.9,107.3L95.8,107.3L98.9,107.2L100.1,107.0L101.8,106.6L105.1,105.3L107.6,104.0L109.3,102.8L109.4,102.8L111.2,101.4L112.9,99.7L112.9,99.5L114.2,98.0L115.0,96.9L115.3,96.3L115.9,95.5L117.1,93.2L117.5,91.9L117.9,91.0L118.2,89.6L118.4,89.0L118.9,85.6L118.9,24.8L118.9,21.1Z" fill="#000" fill-rule="evenodd"/>
</svg>