<svg xmlns="http://www.w3.org/2000/svg" viewBox="0 0 128 128" width="128" height="128">
  <path d="M28.6,15.7L25.5,18.0L22.1,21.1L19.2,24.4L16.2,28.5L14.7,31.2L12.8,35.7L11.8,38.7L11.7,39.5L11.2,40.6L10.8,42.6L10.3,45.9L10.1,49.0L10.1,59.1L10.4,73.2L10.6,75.8L10.6,87.5L10.8,89.1L10.8,112.0L11.0,117.1L11.1,117.6L11.5,118.0L12.1,118.2L14.9,118.4L22.7,118.5L34.3,118.3L37.0,118.0L37.5,117.5L37.6,112.8L37.5,108.3L37.7,88.6L37.5,86.3L37.5,85.0L37.7,83.9L37.7,73.3L37.5,56.2L37.5,53.9L37.4,52.7L37.5,49.1L38.1,46.0L38.6,44.8L39.2,43.5L39.5,43.2L39.7,42.7L42.0,40.0L44.2,38.2L45.5,37.6L47.6,36.8L50.3,36.2L52.0,36.2L55.1,36.8L57.2,37.7L57.5,37.7L57.8,38.0L58.7,38.3L60.0,39.3L62.1,41.3L63.9,44.0L65.1,46.9L65.3,48.0L65.4,49.7L65.2,50.5L64.8,50.8L63.3,51.1L55.0,50.9L48.7,51.0L42.0,50.8L40.2,51.0L39.6,51.6L39.3,53.6L39.2,57.2L39.4,61.0L39.3,69.8L39.5,81.6L39.9,85.3L40.3,86.4L40.4,87.5L41.1,90.3L42.9,95.2L44.7,98.8L47.0,102.4L48.7,104.5L48.8,104.8L51.5,107.6L52.0,108.2L52.3,108.4L54.0,110.0L55.6,111.3L58.3,113.1L62.6,115.4L66.5,117.0L67.8,117.3L68.8,117.6L73.3,118.6L76.6,118.8L81.8,118.8L84.6,118.6L86.0,118.2L87.5,118.0L88.1,117.7L88.8,117.6L91.1,116.9L93.0,116.1L93.6,116.0L94.1,115.6L94.7,115.5L96.9,114.4L98.3,113.5L98.9,113.3L102.1,111.0L104.0,109.3L107.3,106.1L108.5,104.8L108.6,104.3L109.3,103.7L112.0,99.6L112.1,99.3L113.3,97.2L115.3,92.3L116.2,89.4L117.4,83.4L117.8,80.1L118.0,76.6L117.9,48.8L118.1,47.8L118.0,24.2L118.2,18.4L118.1,12.2L117.8,10.8L117.4,10.5L116.6,10.4L103.7,10.3L99.6,10.0L93.8,10.0L93.5,10.1L93.0,10.6L93.0,29.8L92.8,47.9L92.8,56.8L93.0,69.4L92.9,71.7L93.1,76.0L93.0,80.9L92.4,83.3L91.4,85.7L90.6,86.8L90.1,87.4L89.7,88.1L88.1,89.7L86.2,91.1L84.7,91.8L83.9,92.0L83.3,92.3L80.3,92.9L78.3,92.9L76.8,92.7L74.1,92.0L73.0,91.4L72.4,90.9L72.0,90.8L70.1,89.4L67.9,86.8L66.9,85.1L66.4,83.7L65.9,81.8L65.7,79.3L66.0,78.5L66.5,77.9L67.2,77.8L76.0,77.8L77.2,77.9L89.7,77.9L90.8,77.8L91.4,77.3L91.6,76.0L91.7,72.1L91.4,58.8L91.5,50.1L91.0,45.1L89.9,39.9L88.4,35.3L86.7,31.6L85.4,29.4L85.3,29.0L84.3,27.6L84.1,27.2L82.6,25.1L80.1,22.3L77.6,19.8L73.8,16.7L73.5,16.6L71.9,15.4L70.4,14.5L69.9,14.3L69.6,14.1L66.1,12.4L65.6,12.3L65.2,12.0L63.5,11.4L62.8,11.3L62.1,10.9L58.5,10.0L54.4,9.3L52.1,9.2L47.1,9.3L42.9,9.9L38.6,11.0L38.1,11.3L37.7,11.3L35.4,12.3L34.7,12.5L32.8,13.4L32.2,13.6L31.2,14.3L30.4,14.6L29.2,15.4Z" fill="#000" fill-rule="evenodd"/>
</svg>