<svg xmlns="http://www.w3.org/2000/svg" viewBox="0 0 128 128" width="128" height="128">
  <path d="M84.1,37.6L84.0,38.7L84.1,49.5L84.5,50.1L97.5,50.2L100.4,50.1L101.2,49.9L101.3,49.5L101.2,41.1L100.9,37.5L100.8,37.4L100.4,37.2L90.1,37.1L88.8,37.2L85.4,37.2L84.5,37.4Z M9.8,23.5L9.6,24.3L9.6,29.9L9.4,35.2L9.5,39.8L9.4,41.4L9.4,60.4L9.2,71.4L9.3,75.6L9.1,82.1L9.1,98.1L9.2,98.5L9.4,98.9L11.5,99.0L18.6,99.0L22.3,99.2L26.2,99.2L26.6,98.9L26.7,98.0L26.7,79.7L26.9,76.7L26.8,76.0L27.1,75.6L27.5,75.7L27.8,76.0L28.3,76.1L28.6,76.4L29.9,77.0L30.1,77.2L30.7,77.5L32.0,78.3L32.4,78.4L35.5,80.1L37.3,80.9L38.1,81.4L40.7,82.6L42.8,83.9L47.0,86.0L48.3,86.8L50.0,87.5L50.9,88.1L52.5,88.9L54.4,90.0L55.1,90.1L57.1,91.3L57.8,91.5L58.3,91.9L59.5,92.4L60.0,92.8L62.1,93.7L63.2,94.4L64.2,94.8L65.0,95.3L66.5,96.0L66.8,96.2L72.6,99.1L73.3,99.6L73.7,99.7L74.8,100.3L75.8,100.6L77.6,101.5L78.9,101.9L79.2,102.1L81.4,102.8L82.9,103.4L86.2,104.2L87.1,104.5L91.2,105.1L95.0,105.2L98.9,104.6L99.6,104.4L101.0,104.1L101.4,103.9L103.2,103.4L104.9,102.5L105.3,102.5L107.0,101.5L108.5,100.4L109.0,100.1L112.3,97.3L114.2,95.2L115.0,94.0L115.2,93.3L115.4,93.1L116.3,91.5L116.5,90.9L117.3,89.4L117.9,87.3L118.2,86.9L118.3,85.8L118.5,85.6L118.5,85.2L118.7,84.5L118.7,83.6L119.0,82.6L119.1,80.7L119.1,78.2L118.9,77.2L119.0,76.0L118.3,72.7L116.5,67.6L116.0,66.8L115.7,66.4L115.4,65.4L113.4,62.4L110.6,59.5L108.4,57.6L106.6,56.6L105.7,55.9L105.1,55.6L104.9,55.4L103.9,54.9L103.3,54.8L102.0,54.1L100.9,53.9L99.6,53.4L98.1,53.1L94.6,52.7L91.3,52.8L88.4,53.1L84.2,54.1L83.2,54.6L82.3,54.8L79.2,56.5L76.5,58.3L74.9,59.6L72.3,62.4L70.3,65.2L69.0,67.5L67.7,70.4L67.2,72.1L66.9,73.6L66.8,73.8L66.2,77.3L65.9,77.6L65.5,77.6L64.8,77.2L62.8,76.3L62.3,75.9L61.5,75.5L60.9,75.3L57.2,73.2L56.0,72.6L55.6,72.3L55.1,72.1L54.8,71.9L54.4,71.7L53.4,71.1L52.6,70.8L49.2,68.8L47.6,68.1L46.7,67.5L46.0,67.2L45.7,66.9L44.6,66.4L44.3,66.0L42.1,65.0L41.9,64.8L40.5,64.1L40.3,63.9L40.4,63.6L41.2,63.4L43.6,63.3L44.5,63.5L50.8,63.3L59.5,63.3L59.9,63.0L60.2,49.1L60.0,39.9L60.1,26.8L60.0,24.1L59.7,23.5L58.9,23.3L44.6,23.2L23.9,23.3L18.9,23.2L17.8,23.1L11.1,23.1L10.2,23.2Z M91.3,70.0L93.3,70.0L95.2,70.4L95.9,70.6L98.1,71.8L100.1,73.8L100.9,74.9L101.6,76.5L102.0,78.3L102.0,80.1L101.7,81.8L100.7,84.0L100.0,85.1L99.0,86.1L97.6,87.3L95.8,88.1L94.9,88.3L93.7,88.7L90.6,88.6L89.0,88.1L88.6,87.8L87.0,87.1L86.1,86.4L84.5,84.6L83.6,82.7L83.3,81.4L83.2,81.2L83.2,78.4L83.4,77.6L83.6,76.5L84.0,75.9L84.1,75.5L85.1,73.8L86.4,72.4L87.8,71.3L89.4,70.5Z M27.0,38.1L27.2,37.9L27.5,37.8L31.7,37.7L41.9,37.9L42.2,38.2L42.3,38.7L42.3,42.6L42.4,44.1L42.3,49.0L42.0,49.3L41.5,49.5L28.5,49.5L27.2,49.4L27.0,49.1L26.7,42.6L26.7,39.4L26.8,38.5Z" fill="#000" fill-rule="evenodd"/>
</svg>