<svg xmlns="http://www.w3.org/2000/svg" viewBox="0 0 128 128" width="128" height="128">
  <path d="M9.2,33.3L9.1,38.4L9.2,39.4L9.0,53.1L9.2,87.3L9.1,88.6L9.2,89.4L9.5,89.7L15.9,89.8L27.2,89.8L27.7,90.1L27.8,91.8L27.8,94.5L28.1,94.9L28.4,95.0L51.0,94.9L51.3,94.6L51.4,94.4L51.3,86.9L51.5,71.0L51.9,70.7L52.6,70.6L65.6,70.7L66.0,70.9L67.5,72.4L69.6,74.7L71.3,76.4L73.7,79.0L75.0,80.3L87.0,92.8L89.4,95.1L89.7,95.3L118.3,95.3L118.7,95.0L118.4,94.4L117.1,93.2L116.4,92.2L114.5,90.2L112.7,88.1L109.3,84.5L107.3,82.1L103.3,77.9L101.6,75.8L100.4,74.7L99.2,73.3L98.5,72.6L97.6,71.4L97.8,71.1L102.0,71.1L106.1,70.8L106.9,70.5L108.4,70.2L111.0,69.1L112.3,68.2L113.9,67.0L115.4,65.3L116.7,63.5L117.9,61.2L118.4,60.0L118.9,57.7L119.2,55.4L119.2,53.8L118.7,50.9L117.8,48.4L116.6,46.2L116.1,45.6L116.1,45.5L113.6,42.8L111.9,41.5L111.6,41.4L110.4,40.7L109.9,40.6L109.0,40.1L105.5,39.3L97.0,39.2L94.9,37.2L93.0,35.9L91.5,35.1L88.9,34.1L85.9,33.5L84.6,33.5L83.8,33.4L61.9,33.4L59.4,33.2L46.7,33.2L38.6,33.0L36.6,33.1L31.7,33.0L11.4,33.0L9.5,33.0Z M51.6,53.6L51.6,51.0L51.9,50.8L52.3,50.7L68.6,50.9L68.9,51.0L69.0,51.6L68.4,52.8L67.7,53.4L67.1,53.9L66.0,54.4L52.2,54.4L51.6,54.0Z" fill="#000" fill-rule="evenodd"/>
</svg>