<svg xmlns="http://www.w3.org/2000/svg" viewBox="0 0 128 128" width="128" height="128">
  <path d="M9.6,30.6L9.5,31.5L9.6,36.4L9.4,40.4L9.5,69.8L9.2,96.5L9.3,96.6L12.9,96.8L24.6,96.8L31.2,96.7L31.5,96.5L31.6,92.3L31.5,87.9L31.5,80.5L31.6,77.8L31.6,63.2L31.7,61.9L31.9,61.4L31.9,60.2L32.5,57.2L33.3,55.4L33.6,55.1L33.8,54.6L34.3,53.8L35.4,52.7L36.5,51.8L38.1,51.0L38.9,50.9L39.9,50.6L41.4,50.6L42.8,50.8L43.8,51.1L44.2,51.3L44.9,51.6L46.0,52.3L47.2,53.8L47.5,54.4L47.9,55.6L48.2,57.1L48.5,59.1L48.6,62.4L48.6,71.9L48.4,79.4L48.5,85.7L48.3,88.7L48.4,96.1L48.7,96.6L53.6,96.8L53.9,96.5L53.8,95.2L53.8,86.3L53.9,84.7L54.2,84.5L54.8,85.3L55.3,87.0L55.6,87.4L56.6,89.4L58.7,92.1L60.7,93.9L63.4,95.7L64.6,96.3L65.9,96.6L67.1,97.2L68.8,97.4L69.4,97.6L71.1,97.7L71.8,97.9L75.3,97.9L78.1,97.7L79.0,97.5L80.5,97.4L82.8,96.8L83.5,96.5L84.1,96.5L84.9,96.1L85.6,95.9L86.1,95.5L87.1,95.1L87.4,94.8L88.4,94.2L90.6,92.4L92.0,90.6L92.7,90.1L93.0,90.1L93.3,90.4L93.5,90.9L93.4,96.4L93.7,96.7L97.7,96.8L106.9,96.8L112.4,96.9L117.0,96.9L118.1,96.8L118.5,96.7L118.7,96.1L118.7,77.1L118.9,71.6L119.1,52.9L118.7,52.6L118.3,52.5L102.3,52.4L99.1,52.2L98.7,51.9L98.6,51.1L98.7,48.1L99.1,47.5L109.7,47.5L115.0,47.8L118.5,47.8L118.9,47.6L119.1,47.1L118.9,40.2L119.1,35.4L119.1,31.5L118.9,31.2L118.3,31.1L113.5,30.9L88.2,30.7L84.0,30.5L80.0,30.6L79.0,30.4L74.6,30.5L73.1,30.8L71.2,30.8L70.0,31.1L69.1,31.2L67.1,32.0L66.0,32.3L64.4,33.3L62.7,34.7L61.8,35.7L61.2,35.9L59.4,34.2L57.7,33.0L57.1,32.7L56.8,32.4L56.5,32.3L56.1,32.0L54.2,31.2L50.7,30.5L45.3,30.4L41.1,31.2L39.3,31.8L39.1,32.0L37.7,32.6L34.9,34.7L33.0,36.7L32.1,38.2L31.9,38.4L31.7,38.4L31.5,38.1L31.2,34.5L31.0,32.9L31.0,31.5L30.8,30.8L18.2,30.6L16.6,30.4L10.0,30.4Z M93.0,66.8L93.2,67.6L93.1,70.5L92.9,72.6L92.6,73.7L92.5,74.6L92.4,74.7L91.9,76.2L91.5,76.9L90.8,77.9L89.8,78.8L88.4,79.9L86.9,80.7L85.0,81.3L83.1,81.7L80.2,81.7L79.1,81.5L78.1,81.0L77.2,80.2L76.4,79.0L76.0,77.8L75.9,76.2L76.0,75.6L76.5,74.1L77.9,72.5L79.0,71.9L79.2,71.9L79.5,71.6L81.7,70.7L82.2,70.7L88.0,69.2L88.3,69.0L90.6,68.0L92.4,66.8Z M16.5,64.6L16.8,64.7L16.8,64.9L16.6,65.2L16.3,65.1L16.3,64.7Z M92.3,47.9L92.8,49.5L92.8,52.3L92.4,53.6L92.0,54.1L90.9,55.3L90.2,55.8L89.6,56.0L88.5,56.5L87.9,56.6L87.4,56.8L86.4,57.0L85.3,57.4L83.1,57.6L82.1,57.9L80.8,57.9L79.0,58.3L77.4,58.4L76.6,58.6L74.6,58.7L73.1,59.1L70.9,59.4L68.7,60.1L67.8,60.2L67.1,60.5L66.8,60.5L66.2,60.8L65.5,61.0L65.0,61.3L64.2,61.5L63.1,62.0L60.4,63.7L57.6,66.4L56.4,68.0L54.9,71.2L54.5,73.0L54.2,73.2L53.9,73.1L53.8,69.8L53.8,54.5L53.9,52.9L54.2,52.7L54.5,52.5L68.0,52.5L77.9,52.7L78.3,52.3L78.5,50.6L78.9,49.1L79.2,48.5L80.1,47.3L81.0,46.6L82.6,45.8L85.0,45.3L87.2,45.3L89.4,45.7L91.2,46.7Z" fill="#000" fill-rule="evenodd"/>
</svg>