<svg xmlns="http://www.w3.org/2000/svg" viewBox="0 0 128 128" width="128" height="128">
  <path d="M38.0,81.2L37.8,81.4L36.9,84.2L36.9,84.5L36.7,84.8L36.4,86.1L35.2,89.7L34.7,91.3L33.9,93.4L33.9,94.1L34.1,94.3L34.8,94.4L45.0,94.2L45.5,93.4L46.3,91.0L46.4,90.3L46.6,89.9L46.6,89.5L47.0,88.5L47.0,88.2L47.8,86.2L47.8,85.9L48.5,83.9L48.7,83.0L49.0,82.2L49.1,81.6L48.9,81.4L46.1,81.2Z M56.4,57.2L56.2,57.0L55.2,56.9L50.5,56.9L48.4,57.6L47.0,58.4L45.9,59.3L45.0,60.4L44.2,61.5L42.8,64.1L42.8,64.4L42.4,65.4L41.7,67.9L41.2,69.1L40.9,70.5L41.0,70.9L50.8,71.1L52.3,70.9L52.5,70.7L52.9,69.8L52.9,69.5L53.6,66.8L54.0,65.7L54.0,65.5L55.5,61.2L55.7,59.9L56.2,58.9L56.2,58.6L56.5,57.6Z M119.2,34.4L117.1,34.2L115.7,34.3L98.6,34.2L94.4,34.4L93.9,34.6L93.7,34.7L92.1,35.1L90.8,35.5L90.5,35.7L88.9,36.4L86.6,37.9L84.9,39.7L84.2,40.2L84.0,40.1L84.0,39.8L84.3,39.2L84.3,38.5L84.6,37.9L84.7,36.6L85.0,36.0L85.1,35.3L85.2,35.1L85.2,34.4L84.9,34.3L83.1,34.4L79.9,34.2L75.7,34.2L75.3,34.8L75.2,35.3L74.0,38.7L74.0,39.3L73.5,40.3L73.2,41.7L72.6,43.4L72.5,44.2L72.3,44.6L71.4,47.6L71.1,48.4L69.5,53.7L69.2,54.5L69.2,54.8L69.0,55.2L68.6,56.6L68.1,58.0L67.1,61.6L66.5,62.9L66.2,64.4L65.6,65.9L65.1,67.9L64.9,68.2L64.6,69.4L64.2,70.4L64.1,71.0L63.7,72.0L63.7,72.3L62.4,76.2L62.3,76.9L62.0,77.6L61.8,78.4L59.2,86.3L58.8,88.0L57.0,93.2L56.8,94.3L57.0,94.5L67.4,94.5L69.5,94.4L69.8,94.2L70.4,92.7L70.6,91.8L70.9,91.2L71.0,90.3L71.4,89.5L71.4,88.9L71.8,88.2L71.8,87.9L72.2,86.8L72.6,85.0L72.8,84.6L73.3,82.7L73.6,81.9L73.8,81.1L74.3,79.6L74.4,79.1L74.7,78.3L75.3,76.2L75.5,75.9L76.2,73.2L76.5,72.4L76.8,71.5L77.0,70.9L77.1,70.4L77.4,69.8L77.9,67.6L78.6,65.7L78.7,65.1L79.0,64.3L79.3,62.9L80.0,61.2L80.6,59.4L81.2,58.6L81.7,57.3L83.0,55.2L84.9,53.0L87.9,50.7L88.5,50.3L88.9,50.2L90.3,49.4L90.6,49.4L90.9,49.1L92.1,48.6L93.6,48.2L94.1,48.0L95.2,47.9L96.9,47.7L103.5,47.8L115.4,47.8L115.8,47.2L116.4,45.4L116.4,44.9L116.8,44.1L117.5,41.3L117.6,41.1L118.1,38.9L118.6,37.4L118.6,37.2L118.8,37.0L118.8,36.4L119.1,35.7L119.2,35.0Z M74.7,74.3L74.9,74.5L74.6,74.5Z M72.3,34.4L72.0,34.2L62.4,34.2L59.2,34.0L52.5,34.1L49.6,34.0L49.1,34.1L47.5,34.2L45.5,34.6L43.6,35.2L42.0,35.9L40.1,37.2L38.6,38.5L36.7,40.4L36.5,40.4L36.5,39.3L36.9,38.5L36.9,37.7L37.9,34.7L38.0,33.8L37.2,33.7L29.1,33.7L28.1,33.8L27.9,34.0L27.0,36.6L26.9,37.4L26.4,38.8L25.6,41.5L24.5,44.9L24.3,45.6L24.2,45.8L24.1,46.6L23.3,49.2L23.0,50.6L22.5,51.8L22.1,53.2L21.9,53.7L21.2,55.9L20.8,57.0L20.6,57.8L20.4,58.3L19.5,61.1L19.1,62.1L18.9,63.2L18.5,64.0L18.0,65.6L17.8,65.9L17.0,68.9L16.6,69.6L14.2,76.8L14.1,77.5L12.8,81.3L12.7,81.8L12.4,82.6L12.0,84.2L11.6,85.0L11.6,85.6L11.3,86.1L10.4,88.8L9.9,91.0L8.9,93.8L8.9,94.2L9.0,94.4L11.0,94.4L20.8,94.4L21.3,94.3L21.7,94.0L22.1,92.8L22.1,92.5L22.5,91.4L22.8,90.3L23.3,89.0L23.3,88.7L23.7,87.7L23.9,86.7L24.0,86.6L24.5,85.1L25.2,83.0L25.3,82.5L25.9,80.9L26.4,79.0L26.8,77.8L26.8,77.5L27.5,75.5L28.3,72.7L29.2,69.9L29.4,69.1L29.6,68.6L29.8,67.8L30.5,65.7L30.7,64.7L31.6,62.0L32.0,61.4L32.0,60.9L32.3,60.5L32.5,59.7L33.5,57.8L35.0,55.3L36.8,53.1L38.2,51.6L40.5,49.9L42.8,48.8L43.2,48.7L44.0,48.4L47.4,47.5L51.7,47.4L52.6,47.2L60.7,47.3L67.1,47.3L68.2,47.2L68.4,47.1L69.7,42.8L69.9,42.5L69.9,41.9L70.2,41.4L70.2,41.1L70.5,40.2L70.8,39.2L71.0,38.9L71.4,37.3L71.8,36.1L71.8,35.8L72.2,35.1Z" fill="#000" fill-rule="evenodd"/>
</svg>