<svg xmlns="http://www.w3.org/2000/svg" viewBox="0 0 128 128" width="128" height="128">
  <path d="M73.3,84.2L73.4,84.5L73.7,84.6L74.1,84.6L74.0,84.0L73.7,83.9Z M71.0,71.9L69.5,72.4L66.9,73.8L65.9,74.6L64.6,75.9L63.4,77.4L62.3,79.7L61.8,81.7L61.5,83.3L61.5,85.0L61.9,87.2L62.4,89.0L64.0,91.8L64.9,92.9L67.2,94.7L69.5,95.9L72.2,96.6L74.4,96.7L76.7,96.4L78.2,95.8L79.0,95.6L81.5,94.1L83.5,92.1L84.7,90.3L85.8,87.7L85.8,87.3L86.2,85.8L86.3,83.8L85.9,81.0L85.1,78.8L84.6,77.7L83.8,76.5L82.4,74.9L80.2,73.3L79.9,73.2L78.8,72.5L78.2,72.4L77.1,71.9L74.9,71.6L72.9,71.6L72.0,71.8Z M75.4,80.4L76.2,80.8L77.1,81.9L77.5,82.5L77.8,83.5L77.8,84.7L77.6,85.6L77.1,86.5L75.8,87.7L74.6,88.1L72.9,88.1L71.7,87.5L70.6,86.4L70.0,84.8L70.2,82.8L70.6,81.9L71.0,81.4L72.4,80.4L73.8,80.1Z M78.5,43.3L78.2,43.7L78.2,44.0L78.4,44.2L78.9,44.2L79.1,44.0L79.1,43.6L78.9,43.3Z M78.2,31.2L75.9,31.5L73.4,32.4L71.1,33.8L69.2,35.7L68.5,36.6L67.6,38.0L66.7,40.3L66.3,43.0L66.3,44.9L66.6,46.8L67.2,48.7L68.5,51.1L69.3,52.1L70.2,53.1L71.7,54.3L74.0,55.6L74.8,55.8L75.3,56.1L76.3,56.2L76.6,56.3L79.0,56.5L80.7,56.3L83.3,55.6L85.9,54.1L87.8,52.5L89.3,50.5L90.3,48.3L90.9,46.4L91.1,44.5L91.1,43.2L90.7,40.4L89.9,38.5L89.0,36.7L88.5,36.1L86.7,34.2L85.1,33.0L82.4,31.7L79.6,31.2Z M77.4,40.0L79.6,39.9L80.8,40.3L82.0,41.5L82.6,42.8L82.7,44.3L82.1,46.0L81.2,46.9L80.6,47.4L79.8,47.7L78.2,47.9L77.4,47.6L76.3,47.1L75.3,46.0L74.8,44.8L74.8,43.5L75.1,42.2L75.5,41.5L76.4,40.6Z M117.2,28.9L116.9,28.7L99.8,28.9L98.8,29.0L96.3,29.0L90.9,29.1L86.9,29.0L84.2,28.6L82.1,28.5L80.3,28.2L76.7,28.3L76.3,28.5L75.6,28.5L74.2,28.9L73.7,28.9L73.1,29.2L72.2,29.4L70.5,30.1L68.7,31.3L67.4,32.4L65.7,34.0L64.2,36.0L63.9,36.6L63.1,37.7L61.4,41.1L61.2,41.8L60.9,42.2L60.8,42.7L60.5,43.4L59.8,46.1L59.3,50.2L59.3,52.1L59.6,55.1L60.4,57.9L61.3,59.8L62.8,62.0L64.3,63.5L68.1,66.1L68.8,66.3L69.9,66.9L72.1,67.6L73.5,68.4L74.2,68.5L74.7,68.8L75.2,68.9L75.6,69.1L76.7,69.4L76.8,69.5L79.0,70.2L82.6,72.1L84.6,73.5L86.9,75.7L87.6,76.7L88.2,77.9L88.8,79.5L89.1,80.9L89.2,82.1L89.4,83.0L89.4,84.9L89.0,87.6L88.4,89.3L88.1,89.8L87.7,91.0L86.2,93.0L83.9,95.3L82.7,96.4L81.8,96.7L81.2,97.2L77.8,98.6L75.3,99.2L74.3,99.3L71.4,99.3L69.9,99.0L67.1,98.2L64.3,96.5L63.1,95.6L61.9,94.3L60.8,92.8L59.3,89.8L58.3,85.9L57.6,80.6L57.0,77.7L56.6,77.0L56.6,76.1L56.1,75.0L55.6,73.3L54.3,71.0L53.5,69.7L52.0,68.0L50.6,66.8L49.4,66.1L49.1,65.8L48.2,65.3L47.5,65.2L47.0,64.8L45.5,64.3L44.9,64.0L44.0,63.8L43.2,63.5L41.7,63.3L41.5,63.1L41.9,62.8L42.3,62.8L42.9,62.6L43.6,62.5L46.2,61.6L47.5,60.8L48.7,60.3L49.8,59.5L51.0,58.4L51.7,58.0L52.2,57.3L53.3,56.2L54.7,54.4L55.9,52.1L56.8,49.4L57.0,47.8L57.1,44.4L56.9,42.6L56.3,40.5L56.2,40.3L56.0,39.6L55.5,38.5L54.2,36.5L53.0,35.1L51.3,33.5L50.3,32.8L48.1,31.6L47.2,31.3L46.1,30.9L42.1,30.0L36.9,29.7L33.2,29.9L21.9,29.9L10.4,30.1L10.3,30.3L10.4,30.6L10.5,30.7L12.0,30.8L13.8,31.1L15.3,31.6L17.2,32.7L18.0,33.5L19.1,35.0L19.9,36.7L20.5,39.2L20.8,42.6L20.9,56.7L21.2,75.6L21.2,84.4L20.8,89.9L20.1,92.8L19.9,93.1L19.5,94.1L18.2,96.0L16.9,97.3L15.7,98.2L14.8,98.6L12.7,99.0L9.4,99.1L9.1,99.4L9.1,99.5L9.4,99.8L10.1,99.8L17.7,99.7L28.9,99.7L34.5,99.5L36.9,99.6L40.0,99.4L41.1,99.5L42.0,99.4L42.0,99.0L41.9,99.0L40.5,99.0L39.4,98.7L38.8,98.7L37.5,98.3L35.8,97.5L35.4,97.5L34.5,96.7L34.1,96.6L33.2,95.8L32.3,94.5L31.8,93.3L31.6,93.0L31.5,92.3L31.1,91.2L30.6,85.7L30.7,79.5L30.5,65.4L30.5,64.8L30.9,64.2L31.3,64.0L32.4,63.8L38.5,63.7L40.3,63.9L41.9,64.5L42.6,64.9L43.8,66.2L44.9,68.3L45.1,69.2L45.4,69.9L45.6,71.0L45.8,71.3L46.4,74.1L46.4,74.7L46.8,76.1L46.9,78.0L47.2,79.6L47.4,82.1L47.5,82.5L47.8,84.6L48.0,85.3L48.1,86.5L49.0,89.4L50.1,91.3L51.1,92.6L52.8,94.4L54.4,95.6L56.2,96.7L56.9,97.0L57.1,97.2L57.7,97.4L58.1,97.7L60.6,98.5L65.7,99.5L69.8,99.9L74.8,99.8L78.5,99.2L80.1,98.6L82.7,97.4L85.5,95.4L87.9,93.0L90.3,90.2L92.4,87.0L92.6,86.5L93.7,84.1L94.6,81.5L95.2,78.9L95.3,77.4L95.3,75.2L95.0,72.5L94.4,70.2L94.1,69.9L94.1,69.4L92.6,67.2L91.2,65.7L90.6,65.3L89.9,64.6L89.0,63.9L87.3,62.9L87.0,62.9L86.2,62.4L85.8,62.3L85.2,61.9L82.0,60.7L80.8,60.4L79.0,59.7L77.6,59.5L76.2,59.0L74.9,58.4L74.0,58.1L73.7,57.9L73.1,57.8L72.5,57.4L72.1,57.3L69.8,55.7L69.5,55.6L66.8,53.2L65.6,51.7L64.4,49.4L64.3,48.9L64.0,48.3L64.0,48.0L63.6,47.1L63.4,46.0L63.3,42.6L63.6,40.4L63.8,40.0L64.0,39.0L65.4,35.8L67.2,33.5L69.5,31.5L71.8,30.2L74.5,29.4L77.6,28.9L80.3,28.9L82.0,29.0L85.8,29.7L89.1,30.7L92.2,32.7L93.6,33.9L95.1,35.6L96.4,38.1L96.6,38.9L96.8,39.2L97.0,40.2L97.3,41.0L97.7,43.4L97.9,46.6L97.9,65.0L98.1,79.7L97.9,80.4L97.7,84.6L97.5,84.8L97.3,86.8L96.4,90.0L95.6,91.7L94.3,93.7L93.0,95.2L91.5,96.6L89.9,97.5L88.0,98.1L86.1,98.3L85.8,98.5L85.8,98.6L86.1,99.0L86.9,99.0L101.7,99.0L115.2,98.9L118.9,98.7L119.1,98.6L119.1,98.3L118.9,98.2L117.9,98.1L116.0,97.7L114.1,97.1L112.8,96.4L111.1,94.9L109.8,93.3L109.2,92.2L109.2,91.8L108.9,91.4L108.0,88.1L108.0,87.3L107.7,85.5L107.6,83.0L107.5,60.1L107.6,53.5L107.7,52.1L107.6,47.9L107.9,42.6L108.2,40.4L108.4,40.0L108.5,38.8L109.3,36.1L109.7,35.5L110.7,33.5L111.7,32.2L112.5,31.4L113.8,30.5L115.1,29.7L117.2,29.3Z M40.4,30.7L42.6,31.7L43.8,32.9L45.1,35.2L45.9,37.4L46.4,40.0L46.4,41.1L46.7,42.3L46.8,45.3L46.8,49.7L46.3,53.2L46.0,53.7L46.0,54.5L45.6,55.3L45.3,56.5L44.5,58.3L43.0,60.4L42.1,61.2L41.1,61.9L39.9,62.5L37.2,63.1L33.5,63.2L31.3,63.1L30.7,62.9L30.5,61.4L30.5,52.1L30.3,50.1L30.2,31.3L30.7,30.6L31.8,30.5L38.5,30.4Z" fill="#000" fill-rule="evenodd"/>
</svg>