<svg xmlns="http://www.w3.org/2000/svg" viewBox="0 0 128 128" width="128" height="128">
  <path d="M106.5,48.8L106.0,49.3L106.0,69.4L106.2,75.1L106.0,83.9L106.1,88.3L106.0,89.1L106.5,91.3L107.3,93.1L108.0,94.1L109.9,95.7L111.7,96.7L114.2,97.7L115.4,98.3L116.3,98.5L117.0,99.0L117.9,99.3L118.4,99.3L118.5,99.2L118.8,98.5L118.7,97.2L118.9,93.6L118.7,73.8L118.8,62.9L118.6,58.2L118.7,53.4L118.5,49.6L118.4,49.1L117.8,48.8L110.8,48.7L109.0,48.8L108.1,48.6Z M72.0,48.5L71.5,49.1L71.4,50.9L71.5,60.7L71.7,62.1L71.7,73.8L71.5,78.1L71.5,89.1L71.7,90.0L72.2,91.7L73.0,93.3L74.8,95.1L76.0,96.0L79.0,97.5L80.5,98.0L81.1,98.3L81.8,98.5L82.5,98.9L83.3,99.1L83.7,99.1L84.1,98.5L84.2,97.8L84.1,84.4L84.3,71.2L84.2,70.1L84.2,61.1L84.1,49.1L83.8,48.8L83.1,48.5Z M44.5,48.5L44.3,48.6L43.9,49.0L43.8,52.1L43.8,88.1L43.9,89.7L44.3,91.2L45.1,92.9L45.7,93.8L47.7,95.5L52.1,97.7L52.4,97.7L55.0,98.9L56.3,99.1L56.6,98.6L56.6,49.1L56.4,48.8L56.0,48.4Z M10.0,48.4L9.6,48.6L9.2,49.2L9.3,68.4L9.1,82.4L9.2,88.2L9.5,90.0L10.0,91.7L10.6,92.8L10.8,93.6L12.1,94.7L13.0,95.4L14.5,96.2L14.7,96.2L15.2,96.5L16.2,96.8L16.5,97.1L16.9,97.2L20.7,98.9L21.3,99.0L21.8,98.5L21.8,80.3L21.6,74.5L21.8,62.5L21.7,49.1L21.4,48.6L20.9,48.4Z M91.3,48.2L89.0,49.4L87.6,50.9L86.6,53.0L86.4,53.9L86.3,55.4L86.6,56.7L87.2,58.3L87.8,59.2L88.8,60.2L90.0,61.1L91.0,61.6L92.2,61.9L94.4,62.0L95.2,61.8L96.4,61.2L97.0,61.1L97.9,60.4L99.2,59.1L99.8,57.8L100.3,55.9L100.3,54.1L100.0,53.0L99.7,52.0L99.0,50.9L97.5,49.3L96.3,48.6L94.9,48.1L93.5,47.9Z M30.1,47.5L29.3,47.7L27.5,48.4L26.2,49.3L25.4,50.1L24.7,51.3L24.1,53.0L24.0,55.3L24.4,56.9L24.8,57.9L25.6,59.2L26.7,60.3L28.2,61.2L29.8,61.6L31.3,61.7L33.5,61.3L34.8,60.6L36.0,59.7L37.2,58.0L37.7,56.9L38.0,55.3L38.0,53.7L37.6,52.2L37.0,51.0L36.4,50.1L35.3,49.0L34.0,48.2L33.1,47.8L31.8,47.5Z M110.8,29.5L109.2,30.0L108.2,30.6L107.3,31.4L106.1,33.0L105.4,35.1L105.3,36.7L105.6,38.1L105.9,39.0L106.8,40.6L107.2,41.1L108.6,42.3L110.3,43.0L111.4,43.3L112.8,43.3L113.2,43.2L114.2,43.1L115.5,42.5L116.4,41.9L117.4,41.0L118.1,40.0L118.8,38.5L119.0,37.1L119.0,35.6L118.7,34.2L117.8,32.5L116.9,31.3L116.1,30.6L115.0,30.0L113.7,29.5L112.2,29.4Z M48.6,29.0L48.0,29.4L47.2,29.6L46.0,30.3L44.3,32.1L43.8,33.0L43.3,35.0L43.4,37.6L43.8,39.0L44.9,40.6L46.0,41.7L46.8,42.3L47.8,42.7L48.1,42.7L49.4,43.1L51.7,43.0L53.0,42.6L54.3,41.9L55.3,41.1L56.2,40.0L57.1,38.0L57.2,37.2L57.2,35.0L56.9,33.8L56.1,32.2L55.3,31.2L54.1,30.2L52.9,29.5L51.6,29.0Z" fill="#000" fill-rule="evenodd"/>
</svg>