<svg xmlns="http://www.w3.org/2000/svg" viewBox="0 0 128 128" width="128" height="128">
  <path d="M87.3,68.3L87.3,87.9L87.8,88.3L90.6,88.3L93.1,88.2L93.5,87.9L93.7,75.0L93.7,74.7L94.3,74.3L97.7,74.3L98.7,74.7L99.4,75.0L100.1,75.7L100.5,76.8L100.6,87.9L100.9,88.0L106.6,87.9L106.8,87.7L106.9,87.4L106.8,78.4L106.6,74.8L106.0,72.3L105.4,71.3L105.0,70.6L104.2,69.9L102.6,68.9L101.7,68.6L100.4,68.5L99.7,68.3L93.7,68.2L90.8,68.1L87.7,68.1Z M20.1,67.6L19.9,70.1L19.9,74.3L19.8,75.6L19.8,82.0L19.6,86.1L19.7,87.3L20.3,87.6L25.7,87.6L26.0,87.5L26.2,87.3L26.2,74.7L26.3,74.4L26.6,74.2L30.5,74.2L31.0,74.3L32.0,75.0L32.5,75.6L32.7,76.0L32.8,77.7L32.8,83.9L32.7,85.3L32.7,87.0L32.8,87.4L33.2,87.7L38.7,87.9L39.0,87.7L39.2,83.9L39.0,74.4L38.9,73.9L38.8,72.8L38.4,71.3L38.0,70.7L38.0,70.4L37.1,69.5L35.5,68.5L34.5,68.1L32.4,67.6L29.9,67.5L20.7,67.4Z M87.6,49.1L87.5,49.5L87.4,50.6L87.5,63.8L87.8,64.2L93.6,64.2L95.9,64.5L98.7,64.5L100.8,64.3L103.8,63.5L104.7,63.2L105.7,62.3L106.8,61.1L107.6,59.2L107.7,58.2L107.7,55.7L107.6,54.8L107.2,53.7L107.1,53.0L106.6,52.2L105.5,51.2L104.8,50.6L103.7,50.1L103.2,50.0L102.9,49.8L101.2,49.4L98.4,49.0L96.7,49.1L89.8,48.9L87.9,49.0Z M94.0,55.3L94.5,54.9L95.2,54.8L100.4,54.9L100.9,55.1L101.5,55.6L101.8,56.2L102.0,57.2L101.8,57.7L101.3,58.2L100.4,58.6L94.4,58.6L94.0,58.4L93.8,58.0Z M20.0,48.7L20.0,63.3L20.3,63.8L21.7,63.9L33.3,63.9L34.6,63.8L35.6,63.5L37.7,62.5L38.6,61.7L39.8,60.1L40.5,58.6L40.7,57.5L40.7,54.7L40.3,53.3L39.6,52.1L38.3,50.6L37.5,50.0L35.8,49.2L32.3,48.6L20.8,48.4L20.3,48.5Z M26.5,55.0L26.6,54.8L27.0,54.4L32.5,54.5L33.4,54.8L34.0,55.4L34.3,55.8L34.3,56.6L34.1,57.2L33.7,57.7L32.8,58.0L27.2,58.0L26.9,57.8L26.6,57.5Z M9.6,39.3L9.3,51.5L9.3,67.3L9.2,71.2L9.2,80.5L9.0,85.8L9.1,86.8L9.5,87.4L12.0,87.6L15.3,87.6L15.5,87.5L15.8,87.2L15.9,77.4L15.8,70.0L16.1,51.5L16.0,50.6L16.1,45.4L16.4,45.2L18.2,45.1L35.8,45.2L36.5,45.3L39.3,46.2L40.5,46.8L41.7,47.7L42.8,48.8L43.3,49.6L43.6,50.2L44.0,50.7L44.3,51.5L44.8,53.7L44.8,55.6L44.3,59.1L43.5,61.1L41.8,63.3L40.0,64.8L38.4,65.6L38.3,65.7L38.3,66.1L40.0,66.9L41.3,67.9L42.2,68.8L42.7,69.7L42.9,70.9L43.0,72.9L43.2,74.1L43.3,78.9L43.9,80.8L44.5,82.1L45.6,83.7L46.1,84.2L47.8,85.6L50.8,87.5L52.9,88.3L57.4,89.2L61.6,89.5L63.1,89.5L64.8,89.7L69.6,89.5L71.7,89.2L73.3,88.7L73.9,88.4L76.4,87.5L77.2,87.0L78.8,85.8L80.1,84.5L81.3,83.1L82.2,80.9L82.8,79.2L83.1,76.7L83.2,74.7L83.2,56.4L83.3,52.3L83.2,50.6L83.4,49.6L83.5,45.9L83.9,45.6L84.6,45.5L89.3,45.6L101.5,45.6L103.1,45.9L104.2,45.9L106.0,46.3L107.3,46.8L108.9,47.8L110.4,49.1L110.7,49.6L111.0,49.9L111.9,51.7L112.2,53.6L112.5,54.6L112.5,56.6L112.4,58.5L112.2,58.8L112.2,59.8L111.9,60.3L111.9,60.9L111.6,61.5L110.3,63.2L109.2,64.2L108.4,64.9L107.3,65.6L106.0,66.1L106.0,66.5L106.6,66.9L107.0,67.1L108.3,68.2L109.3,69.4L110.0,70.7L110.5,72.5L110.7,74.0L110.7,81.1L110.6,87.5L110.8,87.9L112.0,88.0L117.3,88.0L117.5,87.8L117.4,81.7L117.7,81.2L117.7,80.9L117.5,80.7L117.7,79.5L117.5,79.2L117.5,73.0L117.3,71.9L117.3,71.0L116.8,69.6L116.1,67.9L114.7,66.5L114.7,65.9L115.7,64.8L117.3,62.7L118.0,61.4L118.4,60.3L118.9,58.2L119.0,56.9L119.1,54.2L119.0,52.3L118.7,50.9L118.4,50.3L118.4,49.9L118.1,49.3L117.8,48.3L116.5,45.9L115.3,44.5L113.3,42.6L111.3,41.4L109.6,40.6L106.8,39.7L105.1,39.5L104.3,39.3L100.8,39.1L99.6,38.9L77.3,38.9L77.0,39.2L77.0,39.7L76.9,50.9L77.0,57.3L77.0,71.9L76.9,75.5L76.4,77.6L76.0,78.6L75.4,79.3L73.9,80.9L73.1,81.5L71.1,82.4L69.9,82.6L69.4,82.8L67.0,83.2L61.8,83.2L59.5,83.0L57.2,82.6L56.1,82.1L55.3,82.0L54.1,81.4L53.8,81.3L52.3,80.4L51.3,79.4L50.7,78.5L50.5,78.1L50.1,77.5L49.7,76.2L49.5,75.0L49.2,70.0L48.9,68.9L48.1,67.2L47.6,66.7L47.5,66.2L47.5,65.4L49.3,62.7L50.5,60.2L51.0,58.9L51.1,57.7L51.4,56.6L51.5,55.5L51.3,51.2L50.4,48.0L49.2,45.4L48.1,44.0L46.2,42.2L45.0,41.3L42.5,40.0L40.0,39.2L38.0,39.1L37.3,38.8L34.7,38.8L33.4,38.7L16.8,38.8L12.6,38.8L10.2,38.8L9.9,38.9Z M72.3,38.6L67.1,38.5L66.5,38.9L66.5,58.2L66.4,66.3L66.5,69.5L66.4,71.3L66.2,71.9L66.0,72.3L65.3,73.0L64.0,73.4L63.0,73.4L61.4,73.1L60.8,72.8L60.4,72.5L60.1,71.9L60.0,71.1L60.0,64.8L59.7,64.5L58.0,64.4L56.9,64.2L54.1,64.1L53.7,64.2L53.5,64.4L53.5,71.7L53.8,73.1L53.8,74.0L54.2,75.3L54.6,76.1L55.3,77.1L56.6,78.1L58.1,78.7L60.3,79.3L62.3,79.3L63.0,79.5L66.1,79.3L67.6,79.0L69.0,78.4L69.9,77.7L71.1,76.5L72.0,74.8L72.7,71.6L72.7,69.4L72.7,52.4L72.9,52.0L72.8,51.2L73.0,41.8L72.8,39.0Z" fill="#000" fill-rule="evenodd"/>
</svg>