<svg xmlns="http://www.w3.org/2000/svg" viewBox="0 0 128 128" width="128" height="128">
  <path d="M118.7,89.6L118.5,89.3L118.1,89.0L111.8,89.0L98.4,89.1L68.4,89.1L62.9,89.3L41.6,89.2L39.5,89.4L33.3,89.2L25.8,89.2L25.4,89.6L25.3,90.7L25.3,97.8L25.4,99.6L25.4,101.9L25.5,102.3L26.0,102.6L28.0,102.6L44.2,102.6L54.0,102.5L73.7,102.6L81.4,102.4L97.8,102.4L100.9,102.2L113.3,102.2L117.2,102.3L117.6,102.7L117.9,102.7L118.5,102.2L118.9,101.8L118.9,99.0L119.0,98.2L118.8,97.4L118.7,96.5Z M48.2,72.4L47.3,72.4L45.6,72.7L44.3,73.2L43.4,73.8L41.7,75.4L41.3,76.0L40.8,77.0L40.4,78.2L40.3,80.2L40.6,81.8L41.1,83.2L41.7,84.3L43.0,85.6L44.0,86.4L45.2,86.8L47.1,87.3L48.8,87.2L50.3,86.8L52.4,85.6L53.7,84.2L54.2,83.5L54.8,82.1L55.0,80.8L55.0,78.8L54.8,77.5L54.2,76.3L53.0,74.8L51.8,73.7L49.5,72.7Z M46.0,74.7L47.2,74.5L48.6,74.5L49.6,74.7L50.9,75.5L52.6,77.5L53.1,79.4L53.0,80.9L52.8,81.6L52.1,83.0L51.3,83.9L50.5,84.3L50.0,84.9L49.1,85.1L47.3,85.2L45.7,84.8L44.4,84.1L43.8,83.5L42.8,82.0L42.7,81.6L42.4,80.9L42.4,79.2L42.9,77.5L43.8,76.2L44.3,75.6L44.9,75.2Z M46.7,56.6L46.4,56.8L45.6,56.9L43.8,57.6L42.9,58.2L41.1,60.2L40.6,61.1L40.3,62.1L40.1,63.4L40.1,65.0L40.4,66.3L41.2,68.1L42.1,69.1L43.3,70.1L44.8,71.0L45.4,71.0L45.9,71.3L47.0,71.5L48.2,71.5L50.4,70.9L51.8,70.1L53.0,69.0L53.9,67.8L54.4,66.5L54.7,64.9L54.8,64.7L54.9,63.6L54.7,62.5L53.9,60.6L53.3,59.6L51.8,58.1L50.0,57.1L48.6,56.7Z M46.1,58.7L48.4,58.7L50.0,59.3L50.8,59.8L51.7,60.8L52.5,62.1L52.8,63.1L52.8,65.1L52.6,65.9L52.1,66.9L50.7,68.4L49.8,69.0L48.7,69.3L48.5,69.4L46.9,69.4L46.3,69.2L45.6,69.1L44.4,68.4L43.0,67.1L42.3,65.8L42.1,63.4L42.4,62.2L42.9,60.9L43.3,60.5L44.3,59.6Z M25.1,42.1L24.8,42.5L24.8,71.9L24.9,75.2L25.0,86.1L25.3,86.6L25.6,86.8L37.4,86.7L37.7,86.4L37.8,86.2L37.8,42.9L37.5,42.4L36.2,42.1Z M10.0,42.0L9.8,42.1L9.6,42.4L9.6,55.6L9.7,56.9L9.6,59.2L9.8,59.9L9.8,63.1L9.6,63.5L9.7,66.6L9.6,67.3L9.6,75.0L9.7,79.9L9.9,95.6L9.8,101.8L9.9,102.1L10.4,102.5L22.1,102.6L22.5,102.3L22.6,102.1L22.6,75.1L22.4,64.6L22.5,62.3L22.3,58.9L22.4,53.1L22.2,48.7L22.2,42.9L22.0,42.3L21.4,42.0Z M73.7,41.6L73.2,42.0L73.1,42.9L73.1,53.0L73.2,60.4L73.2,81.3L73.3,86.1L73.7,86.4L74.3,86.5L86.2,86.5L86.6,86.4L86.8,86.1L86.8,85.4L86.7,73.3L86.8,68.3L86.6,66.1L86.7,60.4L86.5,52.8L86.5,42.5L86.3,42.1L85.5,41.9L81.1,41.8L78.9,41.6Z M90.2,41.6L89.9,41.8L89.7,42.5L89.7,59.6L89.9,65.6L89.8,79.2L90.0,86.1L90.3,86.4L91.0,86.5L102.3,86.4L102.6,85.9L102.6,81.1L102.5,52.4L102.6,50.2L102.1,47.2L101.6,45.6L100.9,44.4L99.4,42.9L97.8,42.1L96.0,41.6L94.2,41.6L93.6,41.5Z M57.7,41.6L57.3,41.9L57.1,42.3L57.3,86.2L57.8,86.7L58.7,86.8L64.2,86.6L69.8,86.7L70.1,86.6L70.4,86.1L70.5,75.5L70.4,58.1L70.2,52.4L70.2,45.6L70.1,42.1L69.9,41.8L69.7,41.6L69.2,41.6Z M46.7,41.2L44.8,41.6L43.8,42.1L43.1,42.6L42.5,43.3L42.0,43.7L40.9,45.3L40.3,46.5L40.0,48.2L40.1,49.5L40.4,50.8L41.1,52.1L42.0,53.3L43.0,54.3L44.3,55.1L45.1,55.3L45.7,55.7L47.2,56.0L48.4,56.0L50.0,55.6L50.5,55.2L51.7,54.8L53.0,53.6L53.5,52.6L54.0,52.1L54.6,50.8L54.9,48.7L54.8,47.2L54.6,46.4L53.7,44.6L53.3,44.0L51.8,42.5L50.5,41.8L49.1,41.2Z M105.8,25.6L105.4,26.2L105.3,29.6L105.3,52.4L105.5,56.3L105.4,65.6L105.6,73.8L105.6,85.6L105.9,86.3L107.0,86.4L118.2,86.4L118.4,86.0L118.4,84.7L118.6,83.7L118.5,74.5L118.7,72.0L118.7,68.4L118.9,67.9L118.9,67.3L118.7,66.8L118.8,50.2L118.9,48.2L118.7,44.0L118.7,41.2L118.9,39.4L118.8,26.1L118.5,25.7L118.2,25.5L116.9,25.4L108.3,25.4Z M9.2,26.6L9.2,38.2L9.4,39.0L9.7,39.2L40.3,39.3L55.1,39.0L98.2,39.0L101.3,39.0L101.8,38.8L102.0,38.6L102.1,38.2L102.1,26.8L102.0,25.9L101.8,25.6L101.4,25.4L87.2,25.4L83.5,25.5L75.0,25.4L52.4,25.4L46.1,25.5L9.6,25.7L9.3,26.0Z" fill="#000" fill-rule="evenodd"/>
</svg>