<svg xmlns="http://www.w3.org/2000/svg" viewBox="0 0 128 128" width="128" height="128">
  <path d="M63.6,10.1L58.9,10.3L53.6,11.2L53.1,11.4L51.5,11.6L47.1,12.9L42.1,14.8L37.1,17.3L34.0,19.3L33.4,19.6L31.3,21.2L30.6,21.6L28.5,23.4L27.9,23.7L27.4,24.3L27.1,24.5L25.9,25.7L25.5,25.9L21.6,30.3L21.2,30.8L19.3,33.3L19.0,33.9L18.0,35.2L17.7,35.8L17.2,36.6L16.6,37.8L15.8,39.0L15.8,39.3L15.5,39.5L15.5,39.7L14.8,41.0L13.5,44.2L13.3,44.3L12.6,46.5L12.2,47.3L11.7,49.4L10.9,51.4L9.9,56.6L9.8,57.9L9.5,59.6L9.2,63.0L9.2,66.9L9.6,71.5L10.5,76.7L11.4,79.6L13.3,85.2L16.1,90.6L18.9,95.0L23.6,100.8L24.4,101.5L27.4,104.4L29.9,106.6L30.5,106.9L31.0,107.4L31.3,107.5L32.5,108.5L35.4,110.3L40.6,113.1L41.3,113.3L42.6,114.0L43.5,114.2L43.9,114.5L47.9,115.9L51.1,116.7L52.8,116.9L53.3,117.2L55.6,117.4L57.7,117.8L62.7,118.2L65.5,118.2L70.2,117.8L71.0,117.6L72.4,117.5L75.5,116.9L76.2,116.7L76.7,116.7L82.2,115.1L86.6,113.3L90.3,111.5L92.8,110.0L95.7,108.0L96.5,107.4L96.6,107.4L98.2,106.2L99.0,105.4L100.6,104.3L104.4,100.5L105.5,99.2L105.9,98.9L107.3,97.1L107.7,96.8L110.8,92.3L110.8,92.0L112.1,90.1L113.7,87.0L114.9,84.3L115.3,83.1L116.4,80.3L117.7,75.6L118.5,71.4L119.0,66.0L119.0,60.8L118.4,55.3L118.1,54.3L118.0,53.1L117.7,52.2L117.6,51.4L117.3,50.6L117.1,49.5L115.5,44.5L114.9,43.3L114.8,42.8L113.6,40.3L113.6,40.1L110.9,35.3L110.5,34.9L110.4,34.5L108.5,31.7L106.3,29.0L104.1,26.8L103.9,26.4L100.8,23.5L98.2,21.4L97.4,21.0L96.6,20.2L95.5,19.6L93.9,18.4L89.5,16.0L89.3,16.0L85.9,14.3L85.1,14.1L84.8,13.8L84.1,13.7L83.0,13.2L77.4,11.6L72.7,10.7L69.7,10.3L68.5,10.3L67.7,10.2Z M98.0,42.8L100.7,45.5L101.8,46.7L104.0,49.9L105.5,52.7L106.6,55.8L107.3,58.7L107.7,62.0L107.8,65.9L107.5,70.3L107.2,71.5L107.0,73.0L106.4,75.6L105.8,77.2L105.7,77.8L105.1,78.9L104.7,80.3L103.9,81.9L103.8,82.4L103.4,83.0L103.3,83.4L103.1,83.6L101.9,85.8L101.5,86.2L101.0,87.3L98.3,91.0L95.4,94.3L94.8,94.8L92.9,96.7L89.9,98.8L89.3,99.5L86.9,100.8L86.5,101.2L86.0,101.4L84.9,102.1L84.5,102.2L84.0,102.6L83.7,102.6L82.9,103.1L82.5,103.2L82.1,103.5L80.6,104.0L79.8,104.5L78.0,105.0L77.4,105.3L76.5,105.5L75.8,105.8L72.3,106.6L71.6,106.6L69.7,107.0L65.5,107.4L62.9,107.4L59.1,107.1L58.6,107.0L56.4,106.7L52.3,105.8L48.3,104.5L44.7,102.9L44.4,102.6L44.8,102.3L47.4,102.6L49.7,102.6L54.2,102.3L55.7,102.0L57.3,101.8L58.0,101.6L58.8,101.5L60.0,101.1L61.0,100.9L64.1,99.9L67.4,98.3L67.6,98.3L68.0,98.0L69.6,97.2L70.6,96.5L72.3,95.5L75.5,93.1L79.9,88.7L80.0,88.4L80.5,88.0L80.7,87.5L82.7,84.9L83.2,83.9L83.8,83.2L84.1,82.4L84.8,81.5L85.0,80.7L86.5,77.8L86.7,77.1L87.6,74.7L88.4,71.5L89.0,67.1L89.1,62.0L89.0,60.5L88.9,59.8L88.6,59.3L88.3,59.2L72.1,58.9L62.8,58.9L59.5,58.8L54.2,58.9L52.2,58.8L51.8,58.6L51.5,58.3L51.5,57.8L52.0,55.9L52.2,55.7L52.4,54.9L52.8,54.2L52.9,53.8L53.3,53.2L53.7,51.8L54.6,50.4L54.9,49.7L57.7,45.9L58.8,44.7L61.9,41.9L64.0,40.6L64.4,40.3L67.1,38.8L69.1,37.9L69.8,37.8L71.5,37.1L74.6,36.5L78.0,36.1L82.5,36.1L83.4,36.4L85.0,36.6L85.6,36.8L86.5,36.9L88.5,37.5L89.1,37.8L90.0,38.0L91.7,38.8L92.1,38.9L94.0,39.9L96.6,41.7Z M83.2,25.2L83.4,25.4L83.4,25.6L83.2,25.9L80.0,25.6L75.5,25.7L70.4,26.4L67.4,27.2L66.5,27.6L63.7,28.4L61.3,29.5L60.9,29.6L59.5,30.5L57.1,31.8L56.5,32.3L56.2,32.4L55.8,32.8L55.4,33.0L54.9,33.5L53.5,34.3L52.5,35.2L49.2,38.4L47.1,40.9L45.0,43.7L43.5,46.2L42.9,47.7L42.6,48.1L42.1,49.5L41.7,50.2L41.6,50.7L41.3,51.3L41.2,51.9L40.8,52.6L40.3,54.3L40.3,54.7L39.7,56.5L39.0,60.7L38.8,64.0L39.0,68.7L39.2,69.1L39.6,69.5L51.8,69.6L75.7,69.6L76.3,69.8L76.7,70.3L76.6,71.1L75.1,75.5L73.8,78.0L73.1,78.9L72.7,79.8L70.8,82.3L67.7,85.4L67.5,85.5L65.8,86.9L62.4,89.0L60.3,90.1L58.7,90.5L58.2,90.9L57.2,91.0L55.0,91.8L53.9,91.9L52.1,92.3L47.4,92.3L44.9,92.2L44.2,91.9L42.7,91.8L40.0,91.0L37.6,90.1L36.8,89.7L36.6,89.7L33.7,88.2L32.3,87.2L31.4,86.5L30.7,86.1L29.3,84.9L27.2,82.7L25.3,80.4L23.2,76.8L22.4,75.0L22.2,74.4L22.0,74.0L21.2,71.8L20.6,68.8L20.3,66.5L20.3,62.9L20.6,59.3L20.7,58.8L20.8,57.6L21.2,56.5L21.2,55.8L21.3,55.6L21.6,54.0L21.9,53.4L22.4,51.3L23.3,48.6L24.2,46.8L24.3,46.4L26.3,42.6L28.5,39.2L30.7,36.4L33.5,33.5L36.6,30.7L38.5,29.3L42.0,27.0L45.6,25.1L48.2,24.0L54.1,22.1L55.0,22.0L56.9,21.5L58.6,21.4L59.1,21.2L62.0,21.0L64.9,20.9L69.0,21.1L69.7,21.3L72.0,21.4L72.9,21.8L74.5,22.0L76.5,22.6L77.0,22.8L77.7,22.9L80.3,23.9Z" fill="#000" fill-rule="evenodd"/>
</svg>