<svg xmlns="http://www.w3.org/2000/svg" viewBox="0 0 128 128" width="128" height="128">
  <path d="M62.5,9.1L58.3,9.5L57.3,9.7L55.7,9.8L54.2,10.1L53.2,10.2L52.1,10.4L51.7,10.7L51.0,10.7L50.4,11.2L50.4,17.0L50.5,30.6L50.5,51.8L50.4,61.3L50.5,67.0L50.5,77.3L50.7,78.5L50.6,81.2L50.8,81.8L50.6,83.4L50.7,87.6L50.5,88.5L50.2,88.8L49.5,88.7L46.7,86.7L42.7,83.0L40.8,80.5L40.8,80.2L39.4,78.0L39.2,77.5L38.7,76.8L37.9,74.6L37.8,74.4L37.2,72.8L36.7,70.4L36.3,69.1L36.2,68.3L36.1,68.0L35.9,65.9L35.9,62.5L36.1,60.9L36.2,60.4L36.3,58.8L36.7,57.5L36.9,56.3L37.3,55.4L37.5,54.5L37.9,53.4L39.1,51.1L39.5,50.1L41.4,46.9L43.4,44.5L46.2,41.8L46.5,41.7L47.9,40.5L49.1,39.9L49.5,39.5L49.5,38.9L49.1,38.0L48.1,36.6L47.0,34.4L46.6,33.9L45.8,32.4L44.9,31.1L44.8,30.7L44.0,29.4L43.8,28.8L42.1,26.1L41.4,24.7L40.0,22.4L39.7,21.7L38.8,20.5L38.4,19.6L37.7,18.7L37.0,17.3L36.2,17.2L35.8,17.4L34.3,18.3L33.7,18.8L31.7,20.1L31.2,20.6L29.7,21.6L26.5,24.4L22.4,28.9L22.1,29.5L21.6,29.9L21.0,31.2L19.9,32.4L19.7,32.9L18.0,35.2L17.9,35.5L16.6,37.7L15.3,40.4L15.2,41.1L14.8,41.6L13.9,44.0L13.5,44.7L12.7,47.4L12.0,49.2L11.8,50.4L11.1,52.7L11.0,54.6L10.2,58.1L10.0,61.4L10.0,65.3L10.2,66.5L10.2,68.4L10.6,70.6L10.7,72.1L10.9,73.4L11.2,74.2L11.2,74.9L11.7,77.8L14.4,85.8L15.2,87.2L16.4,90.1L19.5,95.1L20.8,96.8L21.7,98.1L23.3,99.9L24.5,101.4L27.0,104.1L28.8,105.7L31.2,107.5L32.0,108.2L36.2,111.1L37.6,111.9L38.4,112.3L39.5,113.0L41.9,114.2L43.7,114.8L45.2,115.6L46.0,115.7L47.7,116.4L48.3,116.5L48.9,116.9L50.0,117.1L50.3,117.3L51.7,117.5L52.5,117.8L53.8,118.0L54.2,118.2L60.0,118.9L67.7,119.0L69.2,118.8L72.1,118.6L75.2,118.1L77.4,117.4L77.7,117.0L78.0,109.3L77.9,79.5L78.0,69.0L78.0,47.7L77.9,39.8L78.1,39.6L78.9,39.6L81.3,41.0L84.7,44.1L86.9,46.7L88.9,49.8L90.2,52.3L90.8,54.2L91.4,55.7L92.4,59.5L92.7,61.4L92.8,64.6L92.6,67.6L92.1,70.7L91.8,71.5L91.4,73.1L90.9,74.2L90.5,75.5L88.9,78.8L86.4,82.3L83.0,85.9L81.3,87.3L79.8,88.2L79.0,88.9L79.0,89.6L80.4,91.8L81.6,94.2L82.3,95.1L82.6,95.8L83.2,97.0L84.7,99.3L86.2,102.3L87.6,104.6L88.0,105.6L89.6,108.1L89.7,108.5L90.1,108.9L91.1,111.0L91.4,111.3L92.2,111.3L93.3,110.6L94.8,109.8L96.4,108.5L96.8,108.3L100.1,105.7L102.2,103.8L105.8,99.7L107.0,98.0L108.5,96.1L109.3,94.6L110.1,93.7L110.6,92.6L111.4,91.4L112.1,89.9L112.4,89.5L113.8,86.7L113.9,86.0L114.8,84.3L114.8,83.8L115.2,83.2L116.1,80.3L117.3,75.9L117.9,71.3L118.0,68.8L118.3,66.5L118.1,59.7L118.0,57.9L117.7,57.0L117.7,55.4L117.5,54.6L117.4,53.3L117.0,52.1L116.9,51.3L116.7,50.7L116.4,49.1L114.6,43.7L113.9,42.5L113.4,40.8L112.6,39.2L112.5,38.8L112.0,37.9L111.7,37.5L111.0,36.2L110.2,35.0L110.2,34.7L107.6,30.9L106.1,29.3L106.0,28.9L104.9,27.6L103.1,25.8L103.0,25.5L101.4,24.0L101.1,23.6L96.7,20.0L95.5,19.4L93.1,17.6L91.1,16.6L90.5,16.1L90.2,16.1L89.9,15.7L85.1,13.3L84.8,13.3L84.5,13.1L83.8,12.9L81.5,11.9L78.5,11.1L77.8,10.7L74.2,9.9L73.4,9.9L68.4,9.2Z M63.8,51.7L66.1,51.9L68.0,52.3L69.7,53.0L71.3,54.2L73.4,56.3L74.6,58.0L75.5,60.4L75.6,61.8L75.9,62.6L75.7,65.7L75.1,68.1L74.5,69.5L73.9,70.1L73.0,71.7L71.4,73.0L67.8,75.0L66.3,75.1L65.0,75.5L63.6,75.5L61.1,75.0L60.0,74.5L59.8,74.5L57.0,73.0L55.4,71.4L54.2,69.8L53.1,67.3L52.6,64.2L52.6,61.7L53.1,59.2L53.8,57.7L54.7,56.3L56.3,54.7L57.9,53.5L61.0,52.1Z" fill="#000" fill-rule="evenodd"/>
</svg>