<svg xmlns="http://www.w3.org/2000/svg" viewBox="0 0 128 128" width="128" height="128">
  <path d="M104.3,22.9L103.6,22.6L100.2,22.5L85.1,22.5L72.8,22.7L69.1,22.6L66.9,22.8L35.6,22.8L32.0,22.9L31.1,23.2L30.6,23.9L30.0,24.5L21.8,33.5L21.6,33.8L20.0,35.5L18.4,37.7L17.4,38.6L17.1,39.2L16.4,40.0L14.3,42.8L12.8,44.6L10.4,47.9L9.9,48.4L9.3,49.6L9.3,50.1L10.0,51.4L15.4,58.3L16.9,60.0L18.9,62.7L19.8,63.6L23.6,68.3L26.5,71.7L29.2,74.4L30.2,75.7L31.3,76.6L33.3,76.8L47.8,76.8L53.0,76.9L61.5,76.8L65.7,77.1L74.0,77.1L79.5,77.3L81.9,77.2L83.2,77.3L83.7,77.8L83.7,78.5L83.3,79.0L82.6,79.2L20.8,79.2L20.4,79.5L20.2,79.9L20.3,88.0L20.1,95.5L20.2,99.4L20.0,104.3L20.2,104.7L21.0,105.0L23.1,104.9L25.9,105.1L33.2,105.1L35.5,105.1L44.6,105.3L74.4,105.5L78.9,105.6L81.2,105.6L82.6,105.7L91.7,105.7L92.4,105.6L95.5,102.2L96.9,100.9L97.4,100.2L99.2,98.5L99.7,97.8L101.5,96.2L103.4,94.1L107.0,90.6L112.6,84.8L115.7,81.4L118.3,78.9L119.0,77.9L119.0,77.3L115.2,73.3L104.2,62.6L94.0,52.2L92.5,51.0L92.0,50.8L69.8,51.0L40.6,51.0L40.1,50.5L40.1,49.0L40.6,48.6L41.7,48.3L64.4,48.3L73.3,48.5L92.5,48.4L96.4,48.6L104.0,48.5L104.3,48.3L104.5,48.0L104.3,46.6L104.3,34.0L104.6,32.6L104.4,31.1L104.6,25.7L104.5,23.2Z" fill="#000" fill-rule="evenodd"/>
</svg>