<svg xmlns="http://www.w3.org/2000/svg" viewBox="0 0 128 128" width="128" height="128">
  <path d="M10.4,9.5L10.0,10.1L9.9,11.0L10.0,12.7L9.8,22.0L10.0,26.8L9.8,34.8L9.9,57.0L9.7,67.5L9.8,85.4L9.6,95.7L9.6,118.1L9.8,118.5L10.5,118.8L18.9,118.9L117.7,118.9L118.2,118.7L118.5,118.0L118.5,91.9L118.7,83.8L118.5,45.2L118.7,41.4L118.6,10.4L118.3,9.8L117.7,9.4L41.1,9.4L38.2,9.6L21.6,9.4Z M109.9,45.0L110.2,45.6L110.2,102.8L110.1,108.6L110.0,109.6L109.6,110.1L86.7,110.2L68.9,110.0L67.3,110.2L21.1,110.2L19.1,110.1L18.4,109.5L18.3,108.1L18.5,102.7L18.5,92.5L18.7,92.1L19.2,91.8L22.7,91.9L24.6,91.7L56.4,91.7L57.8,91.9L60.1,91.7L67.9,91.6L68.2,91.2L68.3,88.6L68.4,67.5L68.2,45.5L68.7,44.7L98.4,44.6L102.2,44.8L103.3,44.6L109.4,44.7Z M110.0,18.3L110.2,18.7L110.2,35.1L110.0,35.6L109.4,36.0L65.5,36.0L62.3,35.8L60.3,36.0L59.8,36.5L59.7,81.8L59.5,82.7L59.2,83.1L43.4,83.0L19.3,83.2L18.6,82.8L18.5,19.1L18.6,18.6L19.0,18.1L19.6,17.9L85.8,18.0L88.9,17.8L89.5,18.0L109.2,17.9Z" fill="#000" fill-rule="evenodd"/>
</svg>