<svg xmlns="http://www.w3.org/2000/svg" viewBox="0 0 128 128" width="128" height="128">
  <path d="M116.1,68.4L113.5,63.5L111.8,61.2L107.9,56.9L103.8,53.7L101.2,52.0L98.1,50.5L94.9,49.3L92.0,48.4L90.9,48.4L89.7,48.0L87.0,47.7L84.7,47.7L84.4,48.1L84.3,48.5L84.4,51.4L84.1,65.9L84.2,72.0L84.0,78.1L84.1,81.9L83.9,83.9L83.6,84.3L83.3,84.5L81.8,84.6L64.5,84.4L54.7,84.5L46.0,84.3L21.9,84.3L16.4,84.1L13.6,84.2L13.3,84.5L13.1,85.0L13.0,88.5L13.0,117.2L13.3,117.5L13.8,117.7L29.2,118.0L84.4,118.0L86.2,117.6L88.8,117.4L89.8,117.1L90.4,117.1L91.6,116.8L91.9,116.6L93.1,116.4L94.2,116.0L94.6,116.0L96.0,115.5L96.8,115.1L97.4,115.0L99.4,114.1L102.3,112.4L105.1,110.4L108.1,107.9L110.1,105.8L112.3,103.2L113.8,100.8L115.4,98.0L115.6,97.4L116.6,95.4L116.7,94.8L116.8,94.7L117.9,91.1L118.6,88.2L118.9,85.5L119.0,80.4L118.9,79.3L118.8,78.8L118.7,77.1L118.2,74.7L117.9,74.1L117.8,73.2L117.5,72.3L117.3,71.3L116.8,70.5L116.8,69.9Z M61.9,47.5L58.8,48.3L58.6,48.4L57.8,48.6L55.5,49.7L54.5,50.5L53.9,50.7L50.6,53.9L49.5,55.5L48.6,57.1L47.6,59.7L47.0,61.8L46.8,63.3L46.9,66.9L47.9,70.8L49.0,73.0L51.1,75.7L52.8,77.5L54.9,79.0L57.5,80.4L59.5,81.0L61.3,81.4L64.8,81.7L66.9,81.4L69.1,80.8L70.8,80.0L71.5,79.8L73.3,78.8L76.3,76.4L78.1,74.2L78.3,73.6L79.6,71.4L80.2,70.0L80.8,67.8L81.0,66.6L81.1,63.3L80.6,60.3L79.9,58.1L79.4,57.4L79.3,57.0L77.8,54.5L76.6,53.0L74.2,50.8L70.9,48.8L70.0,48.6L69.3,48.3L68.0,47.9L64.9,47.4Z M9.3,48.6L9.7,50.6L9.9,52.7L10.2,53.3L10.3,54.7L10.7,55.7L10.8,56.4L11.2,57.0L11.3,58.1L11.8,59.0L12.8,61.6L14.5,64.4L14.6,64.9L16.4,67.4L17.7,69.1L20.4,71.8L22.3,73.5L25.5,75.8L27.1,76.7L29.1,77.7L29.7,77.9L30.2,78.3L32.5,79.2L36.3,80.4L41.5,81.1L43.3,81.1L43.7,80.7L43.9,45.5L44.0,45.0L44.6,44.4L59.2,44.4L59.8,44.6L82.3,44.6L91.1,44.8L94.2,44.7L95.5,44.9L115.3,44.8L115.7,44.5L115.8,44.1L116.0,33.3L115.9,30.7L116.3,11.4L115.8,10.8L115.5,10.7L100.1,10.7L95.4,10.5L90.4,10.6L88.6,10.4L87.2,10.6L83.1,10.4L79.7,10.5L75.0,10.3L72.4,10.4L63.9,10.2L44.8,10.2L42.5,10.4L41.1,10.7L40.0,10.7L34.5,11.8L34.1,12.1L33.0,12.4L32.3,12.8L31.9,12.8L31.3,13.1L30.4,13.4L28.0,14.7L27.5,14.8L25.0,16.3L24.1,17.2L23.0,17.8L22.4,18.3L21.3,19.1L18.6,21.8L17.8,22.8L16.9,23.7L14.8,26.7L13.8,28.3L12.3,31.4L11.3,34.2L10.9,35.1L10.7,36.2L10.4,36.7L10.2,38.0L10.0,38.7L9.7,40.1L9.3,45.1Z M17.4,50.2L17.7,50.3L17.6,50.6L17.2,50.5Z" fill="#000" fill-rule="evenodd"/>
</svg>