<svg xmlns="http://www.w3.org/2000/svg" viewBox="0 0 128 128" width="128" height="128">
  <path d="M116.4,62.6L115.6,61.3L115.4,60.7L113.1,57.4L110.8,55.1L110.6,55.0L109.1,53.7L108.6,53.5L107.5,52.5L106.1,51.8L104.8,51.0L104.6,51.0L103.1,50.3L101.0,49.7L100.4,49.7L99.7,49.3L98.2,49.0L97.9,48.9L92.8,48.4L74.3,48.4L73.1,48.3L69.0,48.4L38.5,48.4L38.2,48.7L38.1,49.2L38.0,51.8L38.0,58.9L38.1,59.6L38.5,59.9L45.9,60.1L50.0,59.9L85.5,59.9L88.9,60.3L91.9,61.0L94.1,61.9L96.0,63.0L98.0,65.0L99.7,67.5L100.9,70.7L101.2,72.1L101.3,75.8L100.9,77.9L99.9,80.5L99.3,81.6L98.4,82.6L98.2,83.0L96.1,85.1L94.5,86.2L94.1,86.3L93.7,86.7L92.6,87.2L91.8,87.5L90.6,87.8L89.9,88.1L89.1,88.3L84.8,88.6L76.5,88.4L75.7,88.6L69.7,88.4L55.5,88.6L54.2,88.4L48.2,88.4L46.2,88.6L38.8,88.5L38.3,89.1L38.2,89.4L38.1,97.5L38.1,99.5L38.5,99.9L43.7,99.9L49.5,99.7L50.3,99.9L54.4,99.7L73.0,99.7L73.6,99.5L76.9,99.6L77.6,99.8L78.7,99.5L92.9,99.5L95.1,99.5L95.8,99.3L97.8,99.3L100.8,98.8L101.0,98.6L101.8,98.5L102.6,98.2L103.2,98.1L104.6,97.6L108.0,95.3L109.3,94.3L110.5,93.2L110.8,93.0L112.6,91.1L116.0,86.3L116.5,85.2L116.6,84.9L117.0,84.1L117.9,81.7L118.9,78.3L118.9,77.3L119.1,75.7L119.0,72.0L118.6,69.1L118.1,67.2Z M11.5,42.8L11.4,43.4L10.6,45.1L10.2,46.6L9.8,47.5L9.7,48.5L9.3,50.7L9.3,52.1L9.1,52.5L9.1,53.9L9.3,57.9L9.8,60.4L10.8,63.4L11.4,64.7L11.7,65.1L12.7,67.2L14.9,70.0L15.3,70.7L16.2,71.8L17.9,73.5L21.4,76.1L21.8,76.3L23.8,77.4L27.2,78.7L28.3,78.8L28.5,79.0L29.5,79.2L31.6,79.4L32.0,79.6L34.8,79.7L54.1,80.0L57.0,79.9L58.1,80.0L68.2,80.0L69.7,80.2L72.1,80.0L75.5,80.2L84.4,80.0L85.3,80.1L88.8,80.0L89.1,79.8L89.3,68.8L88.9,68.6L58.6,68.6L57.5,68.5L43.1,68.5L41.7,68.4L39.2,68.0L38.5,67.7L37.6,67.6L35.4,66.8L32.8,65.1L30.3,62.7L29.4,61.7L29.1,61.0L28.9,60.7L28.6,59.8L28.0,58.8L27.5,56.8L27.3,54.6L27.5,52.0L28.1,49.8L29.3,47.3L30.6,45.4L30.9,45.3L31.2,44.9L31.6,44.6L33.0,43.1L34.7,41.8L36.5,40.9L37.6,40.7L39.4,40.1L42.5,39.8L43.3,39.9L64.1,39.6L66.4,39.7L71.3,39.6L88.9,39.6L89.2,39.3L89.3,38.5L89.3,31.5L89.5,28.9L89.2,28.6L75.9,28.5L46.4,28.5L35.2,28.4L29.9,28.5L28.9,28.8L27.3,29.0L24.6,30.1L23.6,30.2L23.3,30.5L22.3,31.1L21.7,31.4L20.8,32.1L20.1,32.4L18.2,34.0L17.9,34.1L17.1,35.0L16.5,35.5L16.3,35.9L15.6,36.5L14.9,37.6L14.1,38.4L13.7,39.2L13.3,39.6Z" fill="#000" fill-rule="evenodd"/>
</svg>