<svg xmlns="http://www.w3.org/2000/svg" viewBox="0 0 128 128" width="128" height="128">
  <path d="M116.6,9.5L112.3,9.5L110.9,9.3L110.6,9.5L102.2,9.6L100.1,9.8L98.0,9.7L94.2,9.9L81.6,10.0L68.6,10.3L63.7,10.3L62.1,10.5L54.2,10.5L50.8,10.7L38.7,10.8L34.7,10.6L33.7,10.8L19.5,11.0L18.2,10.9L11.8,11.1L11.4,11.4L11.2,16.5L11.4,22.8L11.3,31.6L11.5,35.5L11.4,61.2L11.5,69.0L11.7,69.7L12.0,69.9L17.6,70.0L34.2,69.7L39.3,69.8L44.8,69.7L61.4,69.7L65.1,69.8L72.5,69.8L73.2,70.4L73.3,73.8L73.3,91.1L73.1,91.5L73.3,92.3L73.3,107.4L72.7,107.9L72.5,108.0L59.6,108.3L57.3,108.5L52.6,108.4L50.0,108.6L41.2,108.6L34.1,108.8L26.5,108.7L25.5,108.9L24.4,108.9L22.1,108.7L21.3,107.9L21.2,106.7L21.2,88.2L21.3,87.7L21.6,87.3L37.9,87.2L41.7,87.4L42.0,87.6L42.3,88.1L42.4,96.6L42.6,98.9L42.5,100.6L42.8,101.3L43.2,101.5L47.6,101.5L48.8,101.3L50.8,101.3L52.0,101.0L52.2,100.7L52.4,85.1L52.3,76.5L52.0,76.2L38.9,76.4L37.0,76.3L24.7,76.7L12.6,76.7L11.3,76.8L11.1,77.2L11.3,81.8L11.3,84.9L11.1,87.4L11.2,108.1L11.0,108.7L11.1,110.4L11.1,112.8L11.3,114.3L11.2,118.2L11.5,118.8L13.1,119.0L27.8,118.8L34.0,118.9L36.0,118.7L49.1,118.8L56.3,118.6L78.9,118.6L82.0,118.4L85.1,118.5L86.1,118.3L88.2,118.6L88.6,118.4L93.4,118.3L99.8,118.4L100.9,118.2L115.7,118.2L116.6,118.1L117.0,117.9L117.2,117.5L117.3,112.1L117.3,86.1L117.1,84.8L117.3,81.0L117.3,72.3L117.1,63.0L117.2,59.4L117.1,58.9L116.9,58.7L114.2,58.3L112.8,58.3L110.5,58.5L106.1,58.5L98.3,58.8L95.3,58.7L92.7,58.9L90.2,58.8L84.3,59.0L81.2,58.9L77.7,59.1L31.9,59.7L22.5,59.6L21.8,59.4L21.4,59.1L21.3,58.3L21.3,22.0L21.5,21.2L22.4,20.9L29.3,20.9L33.8,20.7L37.9,20.8L44.3,20.5L57.3,20.4L58.1,20.9L58.4,20.9L59.0,20.4L59.6,20.3L64.5,20.3L72.6,20.3L73.2,20.8L73.4,22.4L73.4,29.7L73.6,30.6L73.6,40.1L73.5,40.9L72.9,41.6L64.8,41.9L52.9,41.9L52.4,41.4L52.3,40.9L52.3,27.8L43.5,27.7L42.7,27.9L42.5,28.1L42.4,52.2L42.8,52.5L64.8,52.4L66.6,52.2L94.3,52.2L101.3,52.2L103.2,52.0L114.0,52.1L114.8,51.9L116.9,51.8L117.1,51.4L117.1,24.3L116.9,17.2L117.0,14.2L116.9,11.2L116.9,9.9Z" fill="#000" fill-rule="evenodd"/>
</svg>