<svg xmlns="http://www.w3.org/2000/svg" viewBox="0 0 128 128" width="128" height="128">
  <path d="M64.5,9.0L64.1,9.0L63.7,9.2L61.2,10.8L60.4,11.1L56.4,13.5L56.2,13.7L54.5,14.5L52.4,15.8L52.0,16.0L50.9,16.7L50.3,17.0L49.2,17.7L48.6,17.9L48.1,18.3L46.9,18.9L44.1,20.6L42.9,21.2L41.3,22.2L36.1,25.1L35.6,25.5L30.9,28.1L30.3,28.5L27.6,30.0L26.7,30.6L25.6,31.2L24.5,31.9L23.7,32.4L23.3,32.5L21.9,33.5L20.1,34.5L18.7,35.1L17.1,36.2L16.5,36.5L16.2,36.8L16.0,37.2L16.2,38.2L16.2,90.4L16.0,91.7L16.3,92.1L16.8,92.1L17.6,91.6L18.3,91.5L21.1,90.3L22.2,90.0L22.7,89.7L24.8,89.0L25.3,88.7L28.1,87.7L28.3,87.5L28.9,87.4L29.5,87.1L30.2,86.9L33.4,85.6L35.6,85.0L36.3,84.6L39.1,83.7L39.7,83.4L40.8,83.1L42.2,82.4L43.2,82.2L44.5,81.6L45.0,81.5L46.1,81.0L46.6,80.9L47.4,80.5L49.3,79.9L51.3,79.0L51.8,78.9L54.4,77.8L56.2,77.3L56.5,77.0L59.7,75.9L60.9,75.4L64.8,74.0L65.5,73.6L67.0,73.2L70.6,71.7L72.1,71.3L72.7,71.0L73.4,70.8L78.2,68.9L78.9,68.8L79.4,68.4L81.2,67.9L81.6,67.6L83.1,67.2L83.6,66.9L84.7,66.6L85.0,66.4L85.6,66.2L86.0,66.0L86.7,65.9L87.3,65.6L89.5,64.9L89.6,64.7L90.1,64.6L91.9,63.9L92.2,63.9L93.2,63.5L93.6,63.5L93.9,64.0L93.9,71.9L94.0,76.3L94.0,80.8L93.9,81.2L90.5,83.2L90.1,83.4L87.7,84.8L87.4,84.9L86.6,85.5L85.8,85.9L85.4,86.2L84.4,86.7L84.3,86.9L83.3,87.3L81.4,88.5L80.7,88.8L78.6,90.2L77.2,90.9L76.2,91.6L74.4,92.5L73.7,93.0L73.1,93.2L72.0,94.0L71.7,94.1L70.5,94.8L64.4,98.3L63.6,98.4L60.5,96.7L59.6,96.0L58.1,95.3L54.3,93.0L53.9,92.9L53.4,92.5L53.0,92.4L52.6,92.0L50.3,90.8L48.9,89.7L47.3,89.1L46.6,88.5L44.5,87.3L43.8,87.1L42.6,86.2L40.7,85.2L40.0,85.2L31.8,88.3L30.3,89.0L29.5,89.2L29.1,89.4L28.3,89.6L27.9,89.9L27.4,90.0L25.9,90.7L25.1,90.9L24.7,91.1L24.1,91.2L23.5,91.6L23.0,91.6L21.2,92.4L19.1,93.1L19.0,93.5L19.9,94.2L21.4,94.9L22.2,95.5L24.7,96.7L25.0,97.0L25.5,97.2L26.4,97.7L27.2,98.3L28.5,98.9L28.9,99.3L30.7,100.2L32.6,101.4L34.5,102.4L35.5,103.1L36.6,103.6L37.8,104.4L38.5,104.7L39.3,105.3L40.0,105.6L42.3,107.0L44.1,107.8L46.1,109.1L48.2,110.2L49.9,111.3L52.2,112.5L53.0,113.1L55.1,114.2L57.8,115.8L59.4,116.7L60.3,117.3L61.6,118.0L63.5,119.2L64.5,119.1L65.4,118.3L66.4,117.9L68.0,116.7L70.1,115.7L79.7,109.9L81.6,108.9L83.2,107.8L83.5,107.7L83.9,107.4L87.0,105.6L88.2,104.9L88.6,104.7L89.6,104.0L89.9,104.0L91.0,103.2L94.2,101.5L94.7,101.1L96.6,100.1L97.5,99.3L99.1,98.6L100.4,97.7L102.5,96.6L105.5,94.7L105.9,94.5L109.1,92.6L111.4,91.3L111.7,91.0L111.8,90.4L111.8,83.8L112.2,83.3L112.2,83.0L111.8,82.7L111.7,82.4L111.7,69.7L111.3,45.8L111.5,38.7L111.3,37.3L111.1,37.0L110.8,37.0L109.9,37.1L108.3,37.8L107.6,38.0L107.0,38.3L106.1,38.5L105.8,38.7L104.9,38.9L104.2,39.2L102.6,39.7L99.5,41.0L98.7,41.2L97.8,41.7L95.9,42.2L95.6,42.4L94.7,42.7L94.4,42.9L93.4,43.1L92.0,43.7L91.1,44.0L89.6,44.6L89.0,44.7L87.4,45.3L87.3,45.5L86.7,45.6L86.2,45.9L84.2,46.5L83.9,46.7L83.2,46.8L82.7,47.2L81.3,47.6L80.7,47.7L80.3,48.0L78.8,48.4L78.1,48.8L77.8,48.8L74.8,50.0L72.4,50.7L71.1,51.3L68.2,52.2L67.4,52.6L65.3,53.2L61.1,54.9L59.5,55.4L59.0,55.7L58.3,55.8L56.7,56.5L53.0,57.8L52.4,58.1L51.7,58.3L50.5,58.8L49.4,59.1L48.3,59.6L46.9,60.0L46.6,60.2L42.9,61.5L41.6,62.1L41.1,62.1L38.0,63.4L37.3,63.5L34.2,64.6L33.7,64.6L33.4,64.3L33.3,60.2L33.5,57.0L33.3,56.6L33.3,47.4L33.5,47.0L34.0,46.5L35.7,45.6L36.6,44.9L37.2,44.6L38.1,44.0L38.7,43.8L38.9,43.6L40.0,43.0L40.6,42.5L42.5,41.6L44.5,40.2L47.3,38.7L47.3,38.6L47.8,38.4L49.0,37.6L49.3,37.5L49.5,37.3L52.2,35.8L53.2,35.1L54.3,34.6L55.4,33.8L55.9,33.7L58.1,32.2L60.3,31.2L61.3,30.5L61.9,30.3L62.1,30.0L63.4,29.4L64.0,29.4L64.7,29.8L66.1,30.5L66.4,30.7L66.8,30.9L68.9,32.2L69.9,32.6L72.2,34.1L74.1,35.1L75.0,35.7L75.9,36.0L79.9,38.6L81.4,39.3L81.9,39.7L83.0,40.2L83.2,40.5L83.7,40.6L83.9,40.8L84.4,41.0L85.6,41.8L86.1,41.9L87.0,42.7L88.0,43.1L88.9,43.0L90.4,42.3L91.0,42.1L91.3,41.9L91.6,41.9L92.4,41.5L93.1,41.4L95.9,40.2L96.5,40.1L97.0,39.8L97.8,39.5L99.7,38.7L100.0,38.7L100.3,38.5L103.3,37.5L104.8,36.8L105.8,36.6L106.1,36.4L106.8,36.2L107.2,36.0L109.0,35.4L109.1,35.1L108.7,34.6L108.3,34.5L107.4,33.8L106.5,33.4L105.1,32.4L104.5,32.2L103.7,31.6L102.3,30.9L100.4,29.7L97.7,28.2L97.4,27.9L95.9,27.1L95.3,26.8L94.8,26.5L93.4,25.8L91.5,24.5L90.2,23.9L87.7,22.4L87.5,22.4L87.0,22.0L85.9,21.4L84.8,20.7L83.5,20.1L83.2,19.8L82.9,19.7L82.6,19.4L82.0,19.2L81.1,18.6L80.7,18.4L80.4,18.1L78.3,17.0L77.6,16.5L74.4,14.8L72.9,13.8L71.4,13.1L70.4,12.4Z" fill="#000" fill-rule="evenodd"/>
</svg>