<svg xmlns="http://www.w3.org/2000/svg" viewBox="0 0 128 128" width="128" height="128">
  <path d="M108.2,25.7L103.9,22.0L101.1,20.2L96.8,18.1L96.0,17.9L95.7,17.6L93.3,16.9L92.9,16.6L92.1,16.5L91.0,16.2L87.1,15.5L84.1,15.2L81.2,15.2L80.4,15.4L78.6,15.4L76.4,15.6L71.3,16.9L68.9,17.9L68.0,18.2L66.7,18.9L65.7,19.2L62.0,21.4L61.7,21.8L60.0,22.7L57.3,25.2L54.0,28.7L52.8,30.3L52.7,30.7L50.1,34.3L49.3,36.1L48.3,37.1L48.2,37.5L48.1,38.6L47.6,39.3L47.0,41.1L47.0,42.2L46.5,43.8L45.9,47.4L45.6,51.3L45.6,53.6L45.9,57.0L46.8,61.7L47.2,62.5L47.4,63.7L48.1,64.4L50.4,65.1L52.3,66.1L53.5,66.9L55.1,68.5L56.0,69.6L57.2,71.7L58.0,74.7L58.2,75.7L58.2,77.6L57.7,80.0L56.7,82.4L55.8,83.8L54.4,85.5L51.9,87.4L49.9,88.4L47.5,89.0L44.6,89.1L43.3,88.9L41.5,88.3L39.1,87.1L37.3,85.6L36.0,84.3L34.5,81.8L33.7,79.2L33.5,77.7L33.5,75.6L34.0,73.1L34.4,72.1L34.4,71.8L35.5,69.7L37.0,67.9L38.2,66.8L39.4,65.9L41.4,65.0L41.6,64.9L41.5,64.6L17.0,64.4L11.9,64.5L11.5,64.9L10.8,66.7L10.7,67.6L10.1,69.7L9.7,72.9L9.3,77.5L9.6,78.7L9.6,79.7L10.0,83.1L10.4,84.9L10.7,85.7L11.5,88.6L13.3,93.0L15.5,96.8L16.9,98.9L18.7,101.0L21.2,103.5L24.1,106.0L27.3,108.1L30.1,109.6L33.1,110.8L38.0,112.4L39.5,112.5L41.0,112.9L44.4,113.2L47.0,113.2L50.4,112.9L51.2,112.6L53.1,112.4L54.1,112.1L54.9,112.0L55.8,111.6L57.1,111.4L61.5,109.6L64.3,108.1L68.5,105.3L70.9,103.1L73.8,99.9L75.2,98.2L77.7,94.2L78.5,92.5L78.9,91.8L80.7,87.2L81.4,84.9L82.2,80.6L82.4,77.1L82.3,73.0L81.7,69.4L80.6,65.3L80.0,64.4L78.1,63.9L77.8,63.6L76.0,62.9L74.3,61.6L72.8,60.3L71.0,57.6L70.0,54.6L69.9,50.5L70.5,48.3L71.0,46.9L72.1,45.1L73.0,43.9L74.6,42.4L76.1,41.3L79.2,40.0L81.4,39.7L83.6,39.7L84.0,39.8L85.3,40.0L88.1,41.1L89.6,42.1L91.1,43.4L92.1,44.4L93.5,46.9L94.4,49.7L94.6,51.6L94.6,52.8L94.3,54.7L93.7,56.8L92.5,59.0L92.1,59.5L91.8,60.0L89.6,62.1L87.0,63.6L86.6,63.6L86.3,63.9L85.8,64.0L85.6,64.4L113.7,64.4L116.1,64.2L116.5,64.0L117.0,63.5L118.0,59.6L118.3,59.0L118.4,57.0L118.7,56.2L118.9,54.0L118.9,48.5L118.5,46.4L118.4,44.9L118.1,43.5L118.0,42.5L116.2,37.5L113.8,32.7L112.9,31.3L111.0,29.0L110.9,28.7Z" fill="#000" fill-rule="evenodd"/>
</svg>