<svg xmlns="http://www.w3.org/2000/svg" viewBox="0 0 128 128" width="128" height="128">
  <path d="M9.3,102.4L9.7,102.8L11.3,102.9L16.3,102.9L20.1,103.1L22.4,103.0L31.9,103.3L33.9,103.2L38.9,103.4L44.1,103.4L46.3,103.6L51.0,103.6L53.7,103.7L66.4,103.6L84.5,103.6L88.5,103.7L97.8,103.8L98.8,103.5L100.1,103.4L100.9,103.1L101.6,103.0L104.4,102.0L107.2,100.5L109.5,99.0L110.6,98.0L113.3,95.2L115.1,92.6L117.0,88.9L118.0,85.4L118.4,83.5L118.5,81.3L118.4,80.7L117.6,80.5L111.3,80.4L108.8,80.2L103.2,80.2L94.4,80.0L92.6,80.0L83.5,79.8L67.8,79.6L63.8,79.7L62.6,79.5L52.3,79.5L49.6,79.4L37.0,79.4L34.3,79.3L33.3,79.1L30.8,79.1L27.9,79.5L27.3,79.8L25.9,80.0L24.3,80.6L20.4,82.6L17.1,85.0L15.0,87.2L12.6,90.5L11.7,92.2L10.7,94.5L9.6,98.8L9.4,99.9Z M9.1,52.3L9.3,55.5L9.6,56.7L9.7,57.6L10.4,59.8L11.2,61.6L11.3,62.2L11.7,62.6L12.8,65.0L14.3,66.9L15.3,68.0L15.7,68.5L17.7,70.3L18.3,70.9L19.6,71.8L20.5,72.2L20.9,72.5L22.1,73.2L24.2,74.0L24.9,74.4L25.9,74.6L26.2,74.7L27.8,75.2L29.9,75.5L42.4,75.5L50.4,75.7L62.2,75.7L66.0,75.9L67.2,75.8L74.0,76.0L77.5,75.9L85.0,76.1L87.0,76.0L94.9,76.3L101.2,76.3L102.8,76.5L106.2,76.4L117.9,76.7L118.4,76.3L118.2,72.7L117.2,68.9L116.6,67.5L116.4,66.8L115.1,64.2L112.7,60.8L110.1,58.3L108.3,56.8L106.7,55.9L104.2,54.6L100.3,53.3L98.1,52.8L96.2,52.7L91.4,52.7L82.6,52.4L75.6,52.4L60.5,52.1L50.7,52.1L47.8,52.0L45.0,52.0L42.4,51.9L35.2,52.0L32.9,51.8L30.7,51.9L9.7,51.7L9.5,51.8Z M9.5,47.1L9.6,47.4L10.3,47.6L20.9,47.7L25.8,47.9L40.6,47.9L42.5,48.0L63.1,48.3L64.7,48.5L67.2,48.4L73.5,48.5L80.0,48.5L81.6,48.7L85.6,48.8L96.1,48.8L97.9,48.6L99.0,48.3L100.5,48.1L101.0,47.9L103.1,47.4L106.5,45.9L110.3,43.4L113.3,40.5L114.6,38.9L115.7,37.1L117.3,33.9L117.5,33.2L118.0,32.1L118.7,29.5L119.0,29.2L119.0,28.7L118.8,28.1L118.9,27.1L119.0,26.7L118.9,25.4L118.5,25.1L114.0,25.0L100.9,25.1L69.5,24.9L58.1,24.9L51.5,24.8L36.7,24.7L34.3,24.6L33.3,24.4L28.8,24.8L25.1,25.7L21.8,27.2L18.7,29.1L15.8,31.8L14.3,33.6L12.3,36.6L10.8,39.9L9.7,43.9L9.6,44.9Z" fill="#000" fill-rule="evenodd"/>
</svg>