<svg xmlns="http://www.w3.org/2000/svg" viewBox="0 0 128 128" width="128" height="128">
  <path d="M25.2,33.4L20.8,36.9L17.8,39.9L15.4,43.0L14.4,44.5L14.2,45.1L12.7,47.5L12.5,48.2L12.0,49.2L11.9,49.6L11.2,51.0L10.8,52.5L10.0,55.0L9.8,57.0L9.4,58.8L9.1,61.4L9.1,65.3L9.6,69.3L10.0,71.3L10.9,74.7L11.4,75.9L11.7,76.7L12.5,78.3L13.0,79.5L14.2,81.5L14.4,82.0L14.7,82.4L15.0,83.0L16.0,84.2L16.3,84.7L16.8,85.2L18.1,87.0L21.2,90.0L22.6,91.0L24.2,92.4L24.9,92.7L26.4,93.9L28.1,94.8L28.6,95.0L29.0,95.3L29.9,95.7L30.3,95.7L30.7,95.3L30.8,94.1L30.9,93.7L30.9,90.3L31.0,86.8L31.2,74.7L31.3,74.2L31.7,73.8L39.3,73.8L44.4,73.9L45.0,74.1L52.0,74.4L52.5,74.9L52.6,75.2L52.6,76.9L52.4,79.4L52.4,81.9L52.2,83.7L52.2,87.9L52.0,89.5L52.0,93.5L52.1,95.2L52.4,96.3L53.0,97.9L53.9,99.2L53.9,99.6L55.3,100.7L57.3,101.9L57.9,102.0L58.3,102.3L59.8,102.7L61.7,103.1L65.4,103.2L65.7,102.9L67.0,102.8L68.5,102.3L70.8,101.2L71.8,100.2L72.5,99.3L73.4,98.0L74.2,95.5L74.4,93.7L74.4,91.6L74.7,88.6L74.7,85.2L74.3,82.5L73.5,80.8L72.9,79.7L72.0,78.7L70.9,77.8L69.1,76.6L67.4,75.9L63.5,74.0L62.6,73.8L61.2,73.1L60.5,72.9L59.2,72.2L56.7,71.3L54.9,70.4L53.4,69.9L53.2,69.6L52.7,69.6L52.1,69.2L49.6,68.2L49.0,67.8L46.4,66.8L43.2,65.2L40.9,63.7L38.9,61.7L37.2,59.6L35.9,57.7L35.8,57.4L35.1,56.4L35.1,56.0L34.3,54.5L34.2,54.0L33.8,53.2L33.1,50.5L32.7,48.2L32.7,42.9L33.0,33.8L32.9,30.0L31.9,30.0L30.4,30.7L29.6,31.0Z M58.7,26.1L57.3,27.1L56.1,28.4L55.3,30.0L54.6,32.1L54.3,37.6L54.2,41.0L54.3,42.5L55.0,44.3L55.3,45.3L57.8,47.8L59.8,49.1L62.2,50.2L63.3,50.5L63.8,50.8L65.2,51.4L66.4,52.0L69.1,53.1L71.7,54.4L72.8,54.8L75.5,56.1L76.4,56.3L77.4,56.9L78.7,57.4L80.9,58.4L81.3,58.5L82.0,58.9L83.2,59.4L84.4,60.0L84.8,60.1L86.5,61.2L88.8,63.2L90.8,65.4L91.9,66.9L93.8,70.2L95.0,73.0L95.8,75.9L95.9,76.9L96.0,80.8L95.8,83.1L95.9,84.4L95.6,88.4L95.5,97.0L95.8,97.3L96.2,97.3L96.8,97.0L97.7,96.8L98.3,96.4L101.8,94.8L105.2,92.5L108.0,90.2L110.6,87.6L112.3,85.2L113.1,84.4L113.6,83.5L114.2,82.8L115.7,79.8L115.7,79.5L116.4,78.2L117.3,75.9L118.1,72.8L118.3,72.2L118.3,71.7L118.7,70.4L119.2,65.5L119.1,61.8L118.6,58.1L118.1,55.8L117.9,55.4L117.4,53.5L116.9,52.5L116.9,51.9L116.5,51.3L115.7,49.4L115.3,48.7L115.1,48.2L114.6,47.4L114.0,46.2L112.6,44.3L112.4,43.8L110.6,41.6L107.2,38.2L104.6,36.1L102.1,34.5L99.4,33.0L98.8,32.9L98.3,32.6L97.5,32.5L97.4,32.7L97.1,38.1L96.9,50.8L96.8,51.8L96.5,52.1L90.2,52.1L87.5,51.8L76.9,51.5L76.6,51.3L76.4,50.7L76.4,44.8L76.7,37.5L76.7,33.0L76.4,31.6L75.9,30.6L75.9,30.4L75.4,29.4L75.0,28.9L74.7,28.1L74.2,27.8L73.1,26.8L71.4,25.7L70.8,25.6L70.3,25.3L67.5,24.8L63.5,24.7L62.1,24.8L60.2,25.4L60.1,25.5L59.5,25.7Z" fill="#000" fill-rule="evenodd"/>
</svg>