<svg xmlns="http://www.w3.org/2000/svg" viewBox="0 0 128 128" width="128" height="128">
  <path d="M10.3,48.1L10.3,49.1L10.0,50.3L10.1,52.3L9.8,54.1L10.0,56.6L9.9,61.6L9.9,68.5L9.8,70.0L9.6,70.5L9.7,76.8L9.5,77.5L9.4,89.3L9.9,90.0L11.1,90.2L11.8,90.2L12.5,90.0L15.3,89.9L17.5,90.1L23.9,90.1L26.9,90.3L31.0,90.3L31.9,90.5L34.8,90.5L35.9,90.6L36.3,90.8L37.1,90.8L37.6,91.4L38.0,95.8L38.3,96.8L38.3,97.3L39.5,101.5L40.2,103.0L40.6,103.5L41.4,105.2L42.2,106.3L45.5,109.6L48.3,111.3L50.7,112.3L51.3,112.4L51.6,112.7L53.9,113.5L54.7,113.5L55.4,113.9L60.0,114.7L63.3,114.8L64.6,115.0L69.6,114.7L74.7,113.9L76.2,113.5L77.0,113.2L77.8,113.1L81.7,111.4L84.5,109.3L86.5,107.2L87.5,105.7L88.3,104.2L89.0,102.4L89.4,99.5L89.7,98.8L89.6,95.4L89.3,93.4L88.9,92.2L88.9,91.9L87.6,89.1L86.3,87.4L84.2,85.3L82.0,83.8L80.1,82.8L79.5,82.7L77.9,81.9L77.0,81.7L75.2,81.0L72.2,80.3L71.0,79.8L67.2,78.9L65.8,78.7L60.9,77.5L53.8,76.1L52.3,75.7L51.4,75.6L49.2,75.1L47.8,74.6L46.8,74.5L45.2,73.9L44.7,73.9L40.8,72.6L39.8,72.4L39.3,72.1L38.4,72.0L36.1,71.0L35.0,70.7L34.6,70.4L30.7,68.8L30.1,68.5L29.2,68.2L28.9,67.9L28.3,67.8L27.0,67.1L26.7,66.8L26.1,66.7L23.5,65.0L21.6,63.6L20.0,62.1L19.7,62.0L18.6,60.8L18.2,60.6L15.6,57.8L14.6,56.4L14.5,56.0L14.1,55.7L13.5,54.4L13.2,53.5L12.5,52.3L12.4,51.5L11.7,49.4L11.6,48.6L11.4,48.2L11.0,47.9L10.5,47.9Z M40.6,21.5L38.9,24.7L38.2,27.7L38.2,31.0L38.6,34.1L39.4,36.6L41.3,39.9L42.4,41.2L45.1,43.5L47.3,45.0L48.2,45.3L50.2,46.5L51.5,46.9L52.3,47.2L53.2,47.3L55.0,47.9L57.0,48.9L59.7,49.1L60.6,49.4L61.8,49.4L62.9,49.8L64.7,50.1L67.3,50.7L68.8,50.9L73.2,52.1L74.9,52.3L76.4,52.8L78.5,53.2L79.7,53.7L80.6,53.8L81.7,54.1L84.5,54.8L86.8,55.6L87.3,55.9L88.4,56.1L88.6,56.3L91.2,57.1L94.3,58.7L95.5,59.2L96.3,59.3L97.2,59.8L98.9,60.4L100.3,61.3L101.1,61.6L104.1,63.6L105.0,64.5L105.5,64.8L106.5,65.8L107.7,66.6L108.8,67.7L109.1,67.9L110.2,68.9L110.6,69.7L112.2,71.7L112.5,72.2L113.6,73.4L113.7,74.2L114.2,75.2L115.7,77.5L116.2,78.7L116.7,81.0L116.9,81.1L117.5,81.1L117.7,81.0L117.9,80.2L118.0,67.3L118.2,65.6L118.3,55.9L118.5,54.1L118.6,45.3L118.9,39.7L118.6,39.3L91.6,38.7L91.0,38.5L90.7,38.0L90.5,34.5L90.1,33.1L89.9,31.3L89.5,30.5L89.1,28.7L88.6,27.8L88.5,27.2L87.5,25.7L87.1,24.3L86.3,23.5L85.7,22.7L84.1,20.9L82.0,19.1L80.1,17.8L77.2,16.3L75.0,15.7L74.6,15.4L71.5,14.5L65.4,13.6L61.2,13.4L57.0,13.5L54.3,13.8L51.7,14.3L48.0,15.5L46.1,16.4L43.9,18.0L42.6,19.0Z" fill="#000" fill-rule="evenodd"/>
</svg>