<svg xmlns="http://www.w3.org/2000/svg" viewBox="0 0 128 128" width="128" height="128">
  <path d="M40.2,43.7L40.2,45.1L40.0,46.3L40.0,49.9L40.2,50.6L40.2,52.4L39.8,53.5L39.8,54.5L39.9,54.8L40.1,56.0L40.0,57.9L39.9,58.3L40.1,64.5L39.9,66.1L40.0,67.1L40.1,70.4L39.8,75.4L39.9,76.9L40.1,77.6L40.1,78.3L40.6,78.8L41.5,79.1L47.3,79.0L49.6,79.2L50.4,79.0L51.0,79.0L52.4,79.3L54.9,79.4L55.3,79.7L55.4,80.5L55.2,80.8L55.2,81.1L55.4,81.7L55.3,97.8L55.2,101.0L55.1,101.6L55.2,103.8L55.1,110.5L55.5,112.0L55.6,112.9L55.9,113.6L56.0,114.1L57.2,116.4L57.9,117.2L59.0,118.1L60.0,118.7L61.6,119.1L63.7,119.2L65.1,119.0L66.5,118.4L68.4,117.2L69.8,115.7L70.5,114.6L70.9,113.7L71.3,112.0L71.6,104.0L71.7,89.9L70.9,86.8L69.8,84.6L67.8,81.7L66.1,79.9L66.0,79.6L64.0,77.3L63.1,76.4L61.9,74.7L60.4,73.2L59.7,72.1L56.2,68.2L51.8,62.8L48.1,58.6L46.0,56.1L45.5,55.1L45.0,54.4L43.4,51.5L42.9,50.2L42.2,48.7L40.9,44.8L40.8,44.3L40.7,44.0Z M61.6,9.3L59.5,10.4L58.9,10.8L57.6,12.2L56.8,13.9L56.2,16.3L56.1,18.0L56.1,35.7L56.4,39.2L56.7,39.9L56.9,41.1L57.9,43.2L59.5,46.0L64.0,51.2L66.1,53.3L68.6,56.4L70.9,58.8L73.8,62.2L76.8,65.5L78.9,68.2L81.0,70.5L82.7,72.9L82.9,73.2L83.6,74.0L84.5,75.6L85.5,78.1L86.4,81.6L86.6,81.8L86.6,82.6L87.2,84.1L87.5,85.4L87.5,85.9L87.7,86.1L88.0,86.1L88.1,83.1L88.1,58.9L88.5,58.2L88.5,57.9L88.1,57.6L88.1,57.3L88.1,54.8L88.3,51.2L88.2,48.5L88.1,48.2L87.6,48.1L73.3,48.1L72.9,47.9L72.6,47.5L72.4,46.1L72.3,23.8L72.6,23.1L72.3,22.4L72.3,21.2L72.4,17.3L72.2,16.6L72.2,15.9L71.9,14.8L71.4,13.6L70.5,12.1L69.1,10.8L67.7,9.9L66.6,9.4L65.1,9.0L63.2,9.0Z" fill="#000" fill-rule="evenodd"/>
</svg>