<svg xmlns="http://www.w3.org/2000/svg" viewBox="0 0 128 128" width="128" height="128">
  <path d="M95.4,28.1L95.2,27.9L94.2,28.0L92.9,28.9L91.8,29.3L89.5,30.7L89.1,30.8L88.2,31.3L87.5,31.6L86.3,32.4L85.2,32.8L83.3,34.0L82.0,34.5L81.1,35.2L80.7,35.3L79.9,35.8L78.9,36.2L77.2,37.3L76.1,37.7L75.0,38.4L73.6,39.0L72.6,39.7L71.5,40.2L69.9,41.1L69.3,41.6L69.3,42.2L69.5,42.6L70.7,43.0L69.9,43.2L69.7,43.5L69.7,44.5L69.9,44.8L70.2,45.1L71.1,45.2L73.9,45.2L74.9,45.3L75.9,45.2L77.3,45.4L83.7,45.5L84.6,45.6L88.7,45.5L92.2,45.8L94.1,45.7L96.6,45.8L98.8,45.8L99.3,45.7L99.4,45.3L99.4,42.5L98.7,37.4L98.4,36.7L98.1,36.5L97.4,36.4L96.9,36.7L96.5,36.4L97.6,36.2L98.1,35.7L98.2,35.3L97.2,32.2Z M70.8,42.6L71.0,42.9L70.7,42.8Z M71.6,42.4L71.8,42.6L71.6,42.6Z M72.0,42.3L72.2,42.2L72.5,42.5L72.3,42.6Z M73.6,42.1L73.6,41.9L74.2,42.2Z M77.6,41.3L76.5,41.6L76.2,41.3L77.1,41.1Z M77.8,40.9L78.1,40.9L78.5,41.1L78.1,41.2Z M78.7,40.7L78.9,40.9L78.6,40.9Z M79.7,40.5L79.8,40.7L79.6,40.6Z M81.6,40.0L81.9,40.0L82.0,39.9L82.6,40.1L82.1,40.3Z M83.2,39.6L83.3,39.9L83.1,39.8Z M83.7,39.6L83.9,39.4L84.3,39.6L84.0,39.7Z M92.1,37.7L89.9,38.3L89.5,38.3L89.0,38.6L88.0,38.8L87.5,38.8L86.2,39.3L85.6,39.0L86.8,38.8L87.3,38.6L87.8,38.6L88.2,38.3L89.2,38.2L89.6,38.0L90.4,37.9L91.8,37.5Z M95.6,36.9L93.9,37.4L93.0,37.4L93.2,37.1L94.1,37.0L94.3,36.9L95.4,36.7Z M60.9,9.1L59.0,9.4L57.7,9.4L56.9,9.7L56.1,9.8L55.4,10.7L55.0,10.4L54.3,10.4L54.0,10.5L53.3,10.6L50.8,11.5L48.2,12.7L47.4,13.3L47.2,14.3L46.9,14.0L46.4,13.9L45.7,14.2L44.1,15.2L41.3,17.4L40.3,18.4L40.1,18.7L40.4,19.4L40.8,19.8L40.7,20.1L40.5,20.1L39.8,19.5L39.1,19.5L36.6,22.4L34.5,25.6L34.6,26.1L35.4,26.7L35.4,27.0L34.1,26.6L33.5,27.3L32.3,29.9L31.7,31.5L31.4,31.8L31.0,33.7L31.0,34.3L31.3,34.5L32.3,34.9L33.6,35.2L34.9,35.7L35.2,35.7L37.0,36.4L38.3,36.7L40.6,37.5L41.1,37.5L42.6,38.1L43.3,38.2L43.4,38.3L44.3,38.6L44.7,38.8L46.0,39.0L46.8,39.4L47.3,39.5L47.4,39.8L45.6,39.4L45.5,39.3L45.2,39.3L43.6,38.7L42.7,38.6L40.3,37.7L39.9,37.7L38.8,37.3L35.5,36.4L34.6,36.1L33.0,35.7L31.7,35.2L30.6,35.2L29.9,38.3L29.9,39.0L29.5,41.5L29.5,42.8L30.0,43.2L30.7,43.3L31.1,43.5L31.0,43.7L29.9,43.7L29.5,44.1L29.6,47.0L29.4,47.2L29.3,47.5L29.7,48.3L30.1,51.0L30.7,52.1L31.9,52.0L32.4,51.8L35.1,51.3L36.6,50.8L37.0,50.8L38.5,50.4L39.3,50.3L40.8,49.8L41.5,49.7L43.6,49.1L45.7,48.7L46.4,48.5L46.9,48.5L47.1,48.4L50.2,47.7L50.4,47.9L48.6,48.4L48.1,48.6L46.0,49.0L45.5,49.2L44.5,49.4L43.7,49.7L40.0,50.5L38.4,51.0L37.2,51.2L35.8,51.7L33.3,52.3L32.8,52.3L32.6,52.4L31.0,52.8L30.7,53.3L30.9,54.3L31.7,56.6L32.2,57.7L32.6,59.0L33.1,59.7L33.3,60.3L33.6,60.5L34.2,60.6L35.6,60.0L36.6,59.3L37.2,59.1L37.2,59.0L37.8,58.8L38.1,58.5L38.6,58.3L38.7,58.2L39.2,58.0L39.6,57.7L40.3,57.5L40.4,57.3L40.8,57.2L41.2,56.9L43.0,56.0L43.6,55.6L44.0,55.5L45.1,54.8L45.4,54.9L45.3,55.2L44.8,55.3L44.0,55.9L43.1,56.2L42.2,56.9L42.0,56.9L41.5,57.2L41.1,57.3L40.8,57.6L39.7,58.2L39.2,58.5L38.8,58.6L38.2,59.0L37.8,59.3L37.3,59.5L36.5,60.1L35.4,60.5L34.7,61.1L34.4,61.1L34.3,61.4L34.3,61.8L35.2,63.4L36.2,64.7L36.3,65.1L38.4,67.6L38.9,68.0L39.6,68.0L39.6,68.8L39.8,69.1L42.0,71.1L45.7,73.9L46.7,73.9L46.9,74.1L46.9,74.5L47.3,74.8L50.3,76.4L51.0,76.6L51.4,76.9L53.4,77.6L54.1,77.6L54.4,77.4L54.4,77.0L54.5,76.9L54.7,77.0L54.6,77.6L55.2,78.2L57.2,78.6L57.8,78.8L61.5,79.3L63.2,79.3L63.7,78.9L63.8,77.3L64.0,77.5L64.0,78.9L64.2,79.3L64.7,79.5L65.5,79.6L67.0,80.4L68.2,81.8L68.7,83.1L68.9,84.0L68.6,86.1L68.1,87.1L67.0,88.3L65.2,89.1L64.7,89.3L63.8,89.3L62.6,89.1L60.9,88.3L59.9,87.3L59.5,86.6L59.4,86.1L59.1,85.5L59.0,84.6L58.8,84.4L58.5,84.2L41.7,84.0L36.5,83.8L35.6,83.8L32.9,83.7L29.7,83.7L29.4,83.8L29.1,84.0L29.1,84.5L28.7,85.1L28.7,85.4L29.2,86.4L29.2,87.4L29.6,90.5L30.4,93.9L31.2,96.2L32.3,98.9L34.3,102.5L35.9,105.0L38.8,108.3L41.1,110.5L43.4,112.4L45.4,113.8L46.0,114.0L46.3,114.4L48.8,115.7L49.2,116.0L50.8,116.7L52.0,117.0L52.8,117.3L53.4,117.4L53.7,117.6L54.3,117.7L56.6,118.4L58.0,118.6L58.6,118.9L62.6,119.2L66.1,119.2L69.7,118.8L72.6,118.2L75.9,117.2L79.1,115.9L82.4,114.1L85.2,112.2L87.4,110.4L89.9,107.9L92.2,104.9L93.0,104.3L93.4,103.3L93.8,102.7L95.8,99.0L96.7,96.8L96.8,96.2L97.1,95.7L97.3,94.9L97.9,93.0L98.1,91.6L98.4,90.6L98.5,89.3L98.9,87.2L98.9,83.5L98.6,79.2L97.6,74.6L97.1,73.5L96.7,72.1L95.7,69.8L95.6,69.5L94.4,67.2L92.8,64.6L89.8,60.9L87.2,58.3L85.6,56.9L83.5,55.4L83.0,55.2L82.6,54.8L78.9,52.7L77.7,52.2L77.5,52.2L76.8,51.8L76.4,51.7L75.5,51.3L75.3,51.3L75.0,51.1L74.5,51.0L73.8,50.7L70.8,50.0L70.3,50.2L70.2,50.4L70.0,50.5L69.0,49.8L67.8,49.7L67.6,49.8L67.2,50.3L66.5,49.7L66.1,49.6L65.8,49.9L65.7,50.1L65.4,50.1L65.2,49.9L64.7,49.9L64.3,50.3L64.1,50.3L63.6,49.7L63.4,49.7L62.2,49.7L61.9,49.3L61.2,49.4L61.1,49.3L60.9,48.6L60.6,48.4L60.0,48.5L59.9,48.4L60.0,47.8L59.7,47.4L59.2,47.4L59.3,46.9L59.3,46.4L59.0,46.1L58.3,46.0L57.8,46.2L57.1,46.3L56.8,46.5L55.9,46.5L56.2,46.2L58.3,45.8L59.0,45.3L59.0,45.1L58.6,44.7L57.7,44.5L57.8,44.2L58.6,44.2L58.8,44.0L58.8,43.5L57.2,42.6L58.8,42.9L59.1,42.7L59.2,42.1L58.9,41.6L59.0,41.3L59.6,41.3L59.8,41.1L59.8,40.6L59.6,40.2L59.6,40.0L60.1,40.2L60.7,40.1L61.0,39.8L60.9,39.0L61.2,38.7L61.6,39.2L62.2,39.2L62.4,39.0L62.4,38.3L62.2,37.4L62.3,37.1L62.5,37.3L62.6,38.0L63.1,38.7L63.5,38.7L63.7,38.5L63.8,37.7L63.8,35.8L63.9,35.4L64.2,35.4L64.2,35.7L64.2,37.7L64.3,38.5L64.6,38.7L64.9,38.7L65.5,38.3L65.7,38.4L65.8,38.9L66.1,39.2L66.7,39.2L67.1,39.0L67.2,39.6L67.6,40.0L68.1,40.0L68.4,39.8L71.3,36.9L71.7,36.7L71.9,36.9L68.6,40.3L68.5,40.7L68.7,40.9L69.4,40.9L69.7,40.6L70.2,40.6L70.6,40.3L71.2,40.0L71.6,39.6L73.4,38.8L74.4,38.1L75.5,37.7L77.3,36.6L80.5,35.0L81.2,34.4L82.4,33.9L82.9,33.5L83.3,33.5L84.3,32.8L85.0,32.6L85.9,31.9L86.6,31.5L87.2,31.4L87.6,31.0L87.9,30.9L88.9,30.2L90.1,29.8L90.9,29.2L91.5,29.0L92.2,28.5L93.8,27.7L94.7,27.1L94.5,26.6L93.3,24.7L92.6,23.8L92.2,23.1L91.2,21.8L90.5,21.1L90.1,20.5L89.8,20.4L89.3,20.4L88.5,20.9L88.2,21.4L85.8,23.6L85.6,23.4L86.7,22.1L88.4,20.7L89.0,19.6L88.9,19.3L86.5,17.1L83.7,15.0L82.7,14.4L82.0,14.3L81.3,15.2L81.1,15.1L81.4,13.9L81.1,13.4L77.9,11.8L77.5,11.7L74.7,10.7L74.0,10.7L73.7,11.0L73.4,12.1L73.1,12.7L72.9,13.8L72.6,14.2L72.5,14.9L72.3,15.3L72.0,15.3L72.2,14.4L72.4,14.1L72.6,12.7L73.0,11.8L73.2,11.0L73.2,10.5L72.9,10.2L70.7,9.6L69.6,9.5L68.7,9.3L67.4,9.1L65.0,9.1L64.7,9.3L64.5,9.6L64.2,9.6L63.8,9.1Z M55.1,75.7L55.0,76.0L54.7,76.0L54.7,75.9Z M78.7,71.0L79.0,71.3L79.4,72.4L80.1,73.3L80.1,73.6L80.4,74.0L80.3,74.4L80.1,74.3L79.8,73.7L79.4,73.1L79.4,72.9L78.5,71.3Z M56.6,70.2L56.6,70.8L56.3,71.8L56.0,72.0L55.9,71.8L55.9,71.6L56.3,70.5L56.3,70.2Z M78.1,70.1L78.3,70.3L78.1,70.5L78.0,70.4Z M87.4,68.5L87.6,68.8L87.3,68.7Z M86.4,67.5L86.6,67.6L86.6,67.9L86.3,67.6Z M46.3,61.7L45.6,62.5L45.0,63.0L44.0,64.0L43.6,64.3L42.6,65.3L42.1,65.3L42.7,64.7L42.9,64.6L43.3,64.1L44.8,62.8L46.0,61.7Z M48.9,58.9L49.0,58.8L49.2,59.0Z M49.8,57.9L50.0,58.2L49.7,58.2Z M50.6,57.2L50.9,57.3L50.7,57.5L50.5,57.4Z M51.2,56.9L51.2,56.6L51.5,56.8Z M53.5,54.7L53.5,54.9L52.9,55.4L52.7,55.3L53.0,54.9L53.2,54.7Z M45.6,54.6L45.8,54.5L46.0,54.7Z M46.3,54.2L46.6,53.9L46.9,54.0L46.9,54.2L46.6,54.4L46.5,54.4Z M47.2,53.8L47.3,53.6L47.6,53.9Z M48.9,52.8L49.0,53.0L48.8,53.0Z M50.0,52.6L49.3,52.9L49.1,52.7L49.5,52.4L49.9,52.3Z M51.9,51.1L52.1,51.3L51.8,51.3Z M52.2,51.0L52.4,50.9L52.5,51.1L52.4,51.2Z M57.4,48.1L57.6,48.4L57.3,48.3Z M52.7,47.3L52.5,47.4L51.8,47.5L51.7,47.7L51.4,47.5L51.8,47.3Z M52.8,47.1L53.0,47.3L52.8,47.2Z M55.7,46.7L55.3,46.7L55.1,46.8L54.7,46.8L54.3,47.1L53.2,47.1L53.6,46.8L54.0,46.8L54.1,46.7L54.6,46.7L55.1,46.5Z M50.1,44.2L50.2,44.1L54.9,44.1L55.5,44.4L52.4,44.4Z M45.6,44.0L45.6,43.9L46.2,44.1Z M41.1,43.9L41.1,43.7L43.3,43.7L43.8,43.8L44.3,44.1L42.3,44.1L42.0,43.9Z M32.3,43.6L32.3,43.5L36.5,43.5L37.3,43.5L37.6,43.8L37.5,43.9L33.9,43.9L33.5,43.7Z M52.8,41.5L52.9,41.3L53.4,41.3L53.7,41.5L54.3,41.6L55.2,41.9L55.5,42.2L55.1,42.2Z M51.4,40.9L51.6,41.1L51.3,41.0Z M51.2,40.7L51.3,40.9L51.1,40.9Z M47.9,40.0L48.0,39.8L48.7,39.9L50.8,40.6L50.7,40.8L50.0,40.7Z M56.1,39.6L56.1,39.8L55.9,39.7Z M55.3,39.2L55.8,39.3L55.8,39.6L55.2,39.3Z M52.5,37.7L52.5,37.5L52.9,37.7Z M51.9,37.0L52.1,37.3L51.8,37.2Z M51.1,36.5L51.5,36.6L51.8,36.8L51.8,37.1L51.1,36.9Z M62.1,36.2L62.2,36.4L62.0,36.8Z M72.5,36.2L72.4,36.4L72.2,36.3Z M48.9,35.3L49.4,35.4L49.5,35.7L49.0,35.6L48.9,35.4Z M44.0,32.4L44.2,32.2L44.6,32.3L44.6,32.6Z M37.9,28.4L38.2,28.4L39.2,29.0L39.2,29.2L38.9,29.2L37.9,28.7Z M35.4,27.0L35.6,27.0L35.9,27.1L35.9,27.3L35.6,27.3Z M85.5,23.8L82.4,26.9L82.0,27.1L79.6,29.6L79.2,29.9L77.2,31.9L76.9,32.0L76.2,32.8L75.5,33.3L74.2,34.8L72.7,36.1L72.5,36.1L72.6,35.7L75.1,33.4L75.4,33.2L75.9,32.5L77.5,31.1L78.5,30.1L78.7,30.0L79.4,29.2L80.5,28.3L81.2,27.5L83.3,25.6L83.6,25.1L84.3,24.7L85.3,23.7Z M77.5,21.0L77.7,21.1L77.7,21.3L77.4,21.8L77.2,21.7L77.2,21.5Z M41.4,21.0L41.7,20.9L41.7,21.2Z M57.9,19.9L58.2,20.5L58.0,21.1L57.7,20.5Z M64.4,19.5L64.3,19.8L64.1,19.8L64.1,19.6Z M70.9,19.1L71.1,19.1L71.0,19.8L70.7,19.8Z M79.1,18.8L78.6,19.7L78.4,19.7L78.4,19.5L78.6,19.2L78.7,18.9Z M79.8,17.5L79.8,17.7L79.4,17.9L79.4,17.7Z M57.0,17.1L57.3,17.2L57.3,17.8L57.7,18.8L57.6,19.1L57.3,19.0L57.3,18.4L57.1,18.1Z M80.7,15.9L80.7,16.2L80.4,16.7L80.1,16.7L80.4,15.9Z M71.9,15.6L72.1,15.6L72.0,16.6L71.7,17.2L71.6,18.0L71.2,18.7L71.0,18.8L71.0,18.5L71.2,18.2L71.2,17.8L71.3,17.6L71.3,17.2L71.6,16.9Z M56.5,14.4L56.7,14.6L56.5,15.1L56.3,14.8Z M55.8,11.8L56.0,12.0L55.8,12.5L55.7,12.0Z M64.5,10.4L64.5,12.0L64.4,12.0L64.2,12.5L64.2,11.0L64.2,10.7Z M64.5,9.9L64.5,10.2L64.2,10.1L64.2,10.0Z" fill="#000" fill-rule="evenodd"/>
</svg>