<svg xmlns="http://www.w3.org/2000/svg" viewBox="0 0 128 128" width="128" height="128">
  <path d="M17.5,23.4L17.0,24.5L15.7,26.9L13.7,31.9L12.2,36.5L11.7,37.8L11.6,38.6L10.8,40.9L10.8,41.5L10.1,44.7L9.6,47.8L9.5,50.1L9.2,51.7L9.1,55.4L9.5,62.4L10.0,66.0L11.0,70.7L11.3,71.6L11.4,72.3L12.4,75.0L12.6,75.3L12.9,76.3L13.1,76.7L13.8,78.6L14.8,81.0L16.5,83.9L16.6,84.2L18.7,87.4L21.2,90.3L25.2,94.4L30.2,98.4L33.8,100.5L36.0,101.6L36.8,101.8L40.3,103.4L42.4,104.0L42.7,104.3L43.7,104.4L44.6,104.8L45.5,104.9L46.4,105.3L47.4,105.3L48.6,105.7L50.2,105.9L51.0,106.1L54.7,106.5L58.8,106.3L60.7,106.0L62.7,105.8L63.7,105.6L64.4,105.6L65.7,105.2L66.5,105.1L67.4,104.8L68.3,104.6L71.3,103.5L72.1,103.1L73.7,102.6L76.1,101.3L81.3,97.8L83.1,96.2L86.0,93.4L88.6,90.1L90.4,87.1L90.5,86.6L91.2,85.3L92.4,82.3L93.7,77.1L94.0,77.0L94.1,77.7L93.9,79.1L93.6,80.2L93.5,81.1L93.0,83.2L93.0,86.4L93.3,88.8L94.4,91.3L95.1,92.4L97.5,95.0L99.9,97.2L100.3,97.5L100.7,98.0L101.9,99.0L102.1,99.1L104.2,101.0L104.8,101.4L105.6,102.2L109.1,105.0L109.4,105.2L110.4,105.2L110.7,104.9L111.4,104.0L112.2,102.0L112.9,100.7L115.1,95.3L116.1,92.3L116.4,90.9L116.7,90.2L117.6,86.5L117.9,84.9L118.5,82.6L118.9,78.7L119.0,72.5L118.9,67.8L118.1,62.7L116.9,57.2L115.2,51.8L114.8,51.1L114.0,48.9L113.1,47.4L113.0,46.9L112.4,45.9L112.1,45.6L110.8,43.3L110.4,42.9L110.2,42.5L108.5,40.0L106.8,38.3L106.7,37.9L101.8,33.2L99.0,30.9L98.0,30.4L97.0,29.6L94.2,27.9L92.8,27.3L92.2,26.9L89.4,25.6L88.9,25.5L86.9,24.5L84.1,23.6L81.2,22.9L80.9,22.7L75.4,21.9L67.7,21.8L62.8,22.5L61.9,22.8L59.2,23.4L58.6,23.7L58.3,23.7L57.2,24.1L55.8,24.9L54.5,25.3L51.7,26.8L50.2,27.8L46.7,30.5L43.4,33.7L42.1,35.2L42.0,35.4L41.1,36.3L38.3,40.5L36.8,43.6L36.6,44.4L36.3,45.0L36.2,45.5L35.8,46.2L34.8,49.5L34.8,50.2L34.6,50.8L34.4,52.0L34.3,53.6L34.1,54.0L33.7,55.7L33.5,55.0L33.7,52.8L34.0,51.6L34.0,50.9L34.6,48.4L34.6,47.0L34.9,46.5L35.3,43.2L35.2,40.4L34.4,37.8L32.8,35.6L27.9,30.9L26.4,29.6L26.1,29.6L25.5,28.8L24.2,27.9L23.2,26.9L22.3,26.3L18.8,23.3L18.5,23.2L17.8,23.2Z M34.2,63.8L34.4,63.2L34.7,64.0L34.8,64.8L35.2,65.5L35.4,66.4L35.7,66.8L36.3,68.9L36.9,69.8L36.9,70.2L37.3,70.7L37.5,71.2L38.9,73.3L39.2,74.0L39.8,74.6L41.7,76.8L42.0,76.9L42.8,77.8L43.4,78.1L44.5,79.1L45.4,79.5L46.1,80.1L49.4,81.7L51.6,82.4L54.8,82.8L58.4,82.7L61.4,82.1L62.3,81.7L63.2,81.5L64.0,81.1L65.7,80.4L67.9,79.0L70.5,76.5L72.0,74.2L72.2,74.2L72.2,74.4L72.0,74.7L72.0,75.0L71.3,75.9L70.9,76.8L69.6,78.4L68.1,79.5L67.5,79.8L65.5,81.2L63.5,82.1L61.4,82.8L59.7,83.1L56.6,83.4L53.4,83.2L50.6,82.7L47.5,81.5L44.4,79.7L42.8,78.4L39.8,75.5L39.1,74.5L38.9,74.1L38.2,73.3L38.1,72.9L37.8,72.6L37.2,71.5L36.8,71.0L36.6,70.3L35.9,69.3L35.9,68.8L35.5,68.4L35.0,67.2L34.8,65.9L34.5,65.1L34.3,64.0Z M93.2,62.3L93.4,62.4L93.5,63.0L93.9,63.8L94.3,65.9L94.7,71.6L94.6,73.9L94.3,75.6L94.0,75.5L93.9,75.2L94.1,72.8L94.1,67.4L93.8,66.5L93.7,65.5L93.4,64.8L93.3,62.9L93.1,62.7Z M93.0,61.3L93.2,61.6L93.2,61.9L93.0,62.1L92.8,61.6Z M55.3,59.7L55.6,59.9L55.8,60.7L56.5,62.4L57.5,63.4L58.4,64.1L60.8,64.9L62.6,65.0L65.6,65.5L66.8,65.9L67.5,65.9L68.6,66.5L69.6,67.7L69.8,68.5L69.7,69.7L69.1,70.8L68.3,71.6L67.0,72.2L64.9,72.3L63.8,72.1L62.3,71.6L60.2,70.2L58.4,68.3L56.7,65.9L55.8,63.8L55.3,61.8L55.1,60.3Z M33.7,57.7L33.9,57.8L33.9,58.2L33.6,58.5L33.5,57.9Z M59.6,59.0L60.1,58.5L60.9,58.0L62.3,57.5L64.1,57.5L65.9,57.9L66.8,58.3L68.8,59.5L69.5,60.0L71.0,61.8L71.9,63.4L72.8,65.5L73.2,68.3L73.1,71.1L72.7,71.2L72.6,70.7L72.4,69.1L71.8,67.7L71.3,66.8L70.1,65.8L68.8,65.1L66.9,64.6L61.8,63.9L60.4,63.4L59.3,62.5L58.8,61.5L58.8,60.5L59.0,59.9Z M57.9,51.6L59.3,49.6L60.5,48.6L63.2,46.7L64.5,46.2L65.3,45.6L66.5,45.2L66.9,45.2L67.5,44.8L70.1,44.3L74.8,44.3L75.7,44.5L76.1,44.5L76.6,44.8L77.8,44.9L79.5,45.6L80.2,45.8L82.2,46.9L84.2,48.3L87.3,51.3L88.5,52.9L88.9,53.2L90.4,55.5L90.9,56.4L91.4,57.1L91.5,57.5L91.2,57.7L90.7,57.0L90.3,56.2L89.1,54.6L86.6,51.4L83.6,48.7L81.5,47.3L79.5,46.3L77.7,45.8L76.7,45.4L74.8,45.0L73.3,44.8L69.7,45.0L67.8,45.4L66.8,45.8L66.4,45.8L65.7,46.2L65.1,46.3L64.9,46.5L64.5,46.5L64.2,46.9L63.5,47.2L63.0,47.6L62.3,47.8L61.1,49.0L60.3,49.5L58.1,51.9L57.9,51.7Z" fill="#000" fill-rule="evenodd"/>
</svg>