<svg xmlns="http://www.w3.org/2000/svg" viewBox="0 0 128 128" width="128" height="128">
  <path d="M105.6,85.1L104.5,81.2L103.3,78.4L101.6,75.5L100.2,73.8L100.0,73.2L97.9,70.8L95.2,68.5L93.2,67.2L93.0,67.2L92.6,66.8L90.3,65.7L81.4,65.7L77.1,65.9L53.7,65.9L42.8,66.1L42.0,66.4L42.1,66.9L43.2,67.9L45.5,70.5L48.5,74.4L50.5,77.6L52.7,81.7L53.9,84.9L54.0,85.8L54.4,87.3L54.7,90.2L54.5,90.7L54.2,91.0L41.2,91.2L34.4,91.1L26.7,91.3L11.3,91.2L10.0,91.3L9.4,91.6L9.4,93.3L9.6,93.9L9.6,95.0L10.2,97.8L11.2,101.0L12.9,104.7L14.6,107.5L15.3,108.1L15.5,108.6L18.1,111.4L20.8,113.6L24.8,116.1L27.8,117.3L31.6,118.4L35.4,118.9L75.0,118.8L80.5,118.6L83.7,118.1L84.9,117.7L85.7,117.6L88.6,116.6L90.1,115.7L90.9,115.5L93.1,114.2L95.8,112.3L97.8,110.5L98.0,110.1L100.1,107.9L101.5,105.8L102.1,104.7L102.4,104.4L104.1,101.2L105.4,96.9L106.0,92.6L106.0,88.4Z M51.9,100.4L51.9,101.0L50.6,102.7L48.6,104.8L47.0,106.0L46.4,106.3L45.8,106.8L45.1,107.0L44.8,107.3L44.1,107.5L43.7,107.8L42.7,108.0L42.2,108.3L38.7,109.0L35.7,109.0L34.1,108.8L31.4,108.1L29.2,107.2L27.8,106.5L25.4,104.6L24.0,103.4L22.3,101.1L22.3,100.6L22.6,100.3L26.7,100.2L37.1,100.2L42.6,100.1L50.9,100.1L51.6,100.2Z M89.0,75.2L90.8,77.0L91.8,78.2L92.8,79.7L93.6,81.5L93.9,81.7L93.9,82.0L95.2,85.2L95.7,87.5L95.8,89.4L95.8,92.1L95.7,93.9L94.8,97.2L93.6,100.2L93.4,100.5L92.3,102.5L90.8,104.5L88.5,106.8L86.5,108.3L84.4,109.5L83.6,109.7L76.4,109.9L58.9,109.9L58.4,109.5L58.4,109.1L59.1,108.3L59.3,107.9L60.1,106.8L62.2,103.0L63.3,100.4L64.2,97.0L64.8,93.7L64.9,89.5L64.2,85.0L63.8,83.2L63.0,81.2L62.9,81.0L62.8,80.5L61.2,77.1L60.8,76.7L60.5,76.0L60.5,75.5L60.8,75.2L61.3,75.1L66.8,75.1L67.6,75.0L71.7,75.0L87.9,74.9Z M118.1,30.5L117.6,29.3L116.9,28.6L116.8,26.7L115.6,24.1L114.5,22.2L112.7,19.6L111.4,18.1L109.7,16.4L105.8,13.5L105.7,13.5L104.1,12.4L101.7,11.3L98.5,10.2L96.7,9.8L92.2,9.3L48.4,9.6L46.2,9.8L45.3,10.1L43.8,10.2L43.1,10.5L42.0,10.7L40.9,11.2L40.5,11.2L36.1,13.2L32.0,16.0L29.9,17.9L27.9,20.1L25.2,24.3L24.0,26.8L23.1,29.5L23.1,29.9L22.5,31.5L22.1,34.4L22.1,40.8L22.3,41.8L22.6,44.0L22.9,44.5L23.1,45.7L24.2,48.7L25.6,51.7L27.8,54.7L28.9,56.0L29.2,56.5L30.4,57.8L33.9,60.7L34.6,61.1L36.0,62.1L37.0,62.6L55.2,62.7L64.4,62.5L84.9,62.5L85.4,62.4L85.7,62.1L85.6,61.8L84.2,60.3L82.2,57.6L81.1,56.4L80.9,56.0L80.3,55.2L80.1,54.8L79.6,54.3L78.0,51.9L77.4,50.7L77.1,50.3L76.2,48.6L75.9,48.1L74.6,45.2L73.6,41.8L73.2,38.9L73.3,37.9L73.8,37.6L81.2,37.4L83.6,37.5L93.3,37.3L100.6,37.4L107.3,37.2L118.2,37.2L118.5,37.1L118.9,36.6L118.9,34.5Z M76.2,27.6L78.2,25.1L81.1,22.5L81.6,22.3L82.2,21.9L84.0,21.0L86.9,20.0L91.3,19.4L93.9,19.7L96.9,20.4L98.5,21.1L99.9,21.8L101.9,23.1L103.1,24.2L103.2,24.5L104.6,25.7L105.4,26.7L105.7,27.5L105.7,27.9L105.6,28.1L97.6,28.1L96.3,28.3L80.7,28.4L76.8,28.3L76.2,27.8Z M39.5,21.5L42.4,19.4L43.3,19.0L44.6,18.7L68.9,18.6L69.5,18.7L69.7,19.0L69.5,19.5L68.9,20.1L68.9,20.3L66.9,23.2L65.6,25.7L64.7,28.0L63.9,30.7L63.3,33.5L63.1,35.5L63.1,40.2L63.7,43.6L64.3,46.2L64.8,47.1L65.3,48.8L67.0,52.1L67.3,52.6L67.3,53.1L67.2,53.3L46.6,53.4L45.2,53.6L39.8,53.5L39.0,53.3L38.6,53.0L37.5,51.9L36.6,50.7L36.0,50.0L34.8,48.2L33.3,44.8L32.7,43.1L32.2,40.9L32.1,39.3L32.1,35.9L32.8,32.0L33.3,30.3L34.4,28.0L36.4,24.8L38.0,22.9Z" fill="#000" fill-rule="evenodd"/>
</svg>