<svg xmlns="http://www.w3.org/2000/svg" viewBox="0 0 128 128" width="128" height="128">
  <path d="M102.9,13.4L100.6,11.9L99.1,11.3L97.7,10.4L93.6,9.5L90.4,9.3L85.9,9.8L84.4,10.3L83.5,10.8L83.0,10.9L80.6,12.0L79.6,12.7L76.8,15.0L75.2,17.0L74.2,18.4L72.8,21.4L71.8,24.4L71.5,26.1L71.5,29.1L71.8,32.3L72.9,36.0L73.9,38.2L75.6,40.7L78.3,43.4L81.3,45.5L83.7,46.6L84.1,47.0L84.1,47.5L83.7,47.8L83.0,48.0L70.7,48.0L67.2,47.4L66.4,47.1L65.0,46.9L63.6,46.4L61.2,45.3L58.7,43.4L56.0,40.6L55.4,39.3L54.5,38.1L53.8,35.9L53.4,35.3L52.5,30.5L52.5,26.5L52.9,24.9L52.9,24.4L54.0,21.3L55.2,19.1L56.3,17.5L59.5,14.3L60.1,14.0L61.5,12.9L63.5,11.8L65.2,11.3L65.4,11.1L67.5,10.5L67.9,10.3L67.9,10.1L59.1,10.0L56.7,9.8L38.8,10.1L25.2,10.2L16.7,10.5L14.7,10.4L10.9,10.7L10.6,11.2L10.3,20.6L10.3,30.1L10.1,34.5L10.1,68.1L9.9,79.7L10.4,80.1L11.2,80.2L30.6,80.2L32.5,80.6L32.6,81.1L32.2,81.5L31.6,81.6L29.6,82.7L25.7,85.6L24.1,87.1L22.6,88.9L21.5,90.7L20.6,92.9L20.3,93.3L19.3,97.0L19.1,100.0L19.3,102.8L19.8,105.5L21.7,109.8L22.3,110.7L23.4,112.2L26.5,115.1L28.0,116.1L29.4,116.8L32.6,118.1L36.7,118.9L39.8,118.8L44.3,118.1L47.7,116.7L50.2,115.1L52.6,112.9L53.9,111.4L55.3,109.1L55.5,108.6L56.3,107.2L57.0,105.5L57.5,103.6L57.6,101.8L57.6,97.6L57.5,96.4L55.9,91.3L54.4,88.9L51.2,85.3L51.0,85.2L49.9,84.3L48.1,83.3L47.8,83.0L45.1,81.7L44.9,81.0L45.3,80.5L46.5,80.3L58.2,80.3L61.8,80.8L65.5,81.9L68.6,83.7L70.0,84.7L71.2,85.9L73.4,88.5L75.2,91.9L75.8,93.8L76.7,98.0L76.7,101.2L76.1,104.2L74.7,107.7L73.6,109.7L71.1,112.6L68.9,114.5L68.1,115.1L67.7,115.1L66.4,116.1L62.9,117.5L62.8,117.9L75.2,118.0L83.6,117.8L101.6,117.8L115.1,117.6L117.3,117.7L117.8,117.3L117.8,111.3L118.0,109.4L118.1,103.1L118.1,87.6L118.2,81.7L118.3,66.0L118.2,57.9L118.2,48.5L117.7,48.1L113.0,48.0L99.5,48.0L98.7,47.9L97.9,47.3L98.0,46.9L98.3,46.6L100.2,45.7L102.7,44.0L105.3,41.7L107.1,39.2L108.7,36.2L108.9,35.3L109.4,34.4L109.8,33.2L110.2,29.8L110.2,27.1L110.0,26.2L109.9,24.2L109.4,23.0L109.1,21.7L106.8,17.4L104.7,15.0Z" fill="#000" fill-rule="evenodd"/>
</svg>