<svg xmlns="http://www.w3.org/2000/svg" viewBox="0 0 128 128" width="128" height="128">
  <path d="M119.0,26.0L118.6,25.8L101.8,25.9L99.9,26.1L79.5,26.0L77.1,26.2L75.8,26.0L72.6,26.2L36.4,26.2L33.4,26.6L28.1,28.0L23.5,30.2L21.8,31.3L19.3,33.3L17.2,35.3L15.6,37.1L14.6,38.4L13.7,40.0L13.4,40.3L11.4,44.3L10.1,48.3L9.6,50.2L9.5,52.2L9.3,52.4L9.3,53.7L9.2,54.7L9.2,57.5L9.5,60.4L10.6,65.0L11.0,66.2L11.4,66.7L12.3,69.2L13.4,71.0L14.2,72.1L14.5,72.7L17.5,76.3L21.0,79.5L24.4,81.7L27.3,83.1L27.5,83.3L28.2,83.5L30.2,84.4L33.8,85.2L34.4,85.6L34.4,85.9L34.0,86.2L16.0,86.4L9.7,86.2L9.3,86.8L9.6,101.8L9.9,102.0L10.5,102.1L12.8,102.1L14.4,102.3L26.7,102.4L61.4,102.4L71.3,102.3L90.3,102.3L92.1,102.1L92.4,101.9L93.7,101.9L97.4,101.0L101.5,99.6L103.4,98.5L104.8,97.6L104.9,97.4L105.5,97.2L109.3,94.1L112.0,90.9L114.1,87.9L116.5,83.0L117.8,78.0L117.9,75.9L118.2,74.6L118.3,70.6L117.9,68.1L117.8,66.8L116.9,63.3L115.0,58.9L114.3,57.9L114.2,57.4L113.3,56.2L113.3,56.1L112.0,54.4L110.3,52.4L108.8,50.9L107.2,49.6L104.6,47.8L100.0,45.5L98.9,45.2L98.0,44.7L95.1,44.2L94.8,43.8L94.8,43.5L95.4,43.0L98.7,42.8L112.5,42.6L113.8,42.5L118.6,42.5L118.9,42.2L119.0,39.9Z M101.5,68.8L102.1,71.3L102.1,74.9L102.0,75.6L101.4,77.7L100.5,79.5L99.3,81.1L97.5,83.0L95.2,84.5L94.6,84.6L94.3,84.9L93.5,85.1L92.9,85.4L90.3,85.9L88.5,85.9L87.5,86.0L70.5,86.4L45.6,86.3L43.4,86.1L43.2,85.5L43.5,85.3L44.2,85.1L44.6,85.1L44.8,84.9L46.5,84.6L50.1,83.4L50.3,83.3L50.9,83.1L52.8,81.9L54.3,81.2L56.5,79.6L57.0,79.5L59.0,78.1L59.4,78.0L63.1,75.4L64.1,74.9L66.9,73.1L67.2,72.8L69.6,71.4L72.2,69.6L72.5,69.5L73.0,69.1L74.2,68.4L74.5,68.1L74.9,67.9L78.4,65.6L79.6,64.9L79.9,64.6L80.7,64.2L82.2,63.2L83.3,62.7L84.5,61.9L86.3,61.1L88.9,60.6L91.8,60.7L93.6,61.1L96.3,62.4L98.0,63.6L99.4,65.1L100.5,66.7Z M26.1,59.4L25.6,56.5L25.7,54.3L26.4,51.4L27.4,49.3L28.7,47.5L30.0,46.2L31.5,45.0L32.4,44.4L33.2,44.3L34.7,43.6L38.5,43.1L40.3,43.2L44.6,43.0L53.4,42.9L82.5,42.9L85.7,43.1L86.1,43.4L86.1,43.6L85.7,43.9L83.8,44.4L83.4,44.4L82.4,44.8L81.2,45.1L81.1,45.2L79.0,46.0L75.4,47.8L69.4,51.8L69.0,51.9L66.0,53.9L65.5,54.1L64.2,54.9L63.9,55.2L61.3,56.7L59.9,57.8L59.0,58.2L55.7,60.5L50.0,64.0L49.2,64.7L48.5,65.0L45.9,66.6L42.0,68.3L41.3,68.3L41.0,68.5L39.5,68.8L37.2,68.8L35.8,68.6L34.8,68.2L34.0,68.0L32.1,67.1L29.9,65.5L27.9,63.3L26.8,61.4Z" fill="#000" fill-rule="evenodd"/>
</svg>