<svg xmlns="http://www.w3.org/2000/svg" viewBox="0 0 128 128" width="128" height="128">
  <path d="M71.9,69.4L71.5,69.7L71.5,70.2L71.5,79.5L71.6,80.0L71.6,84.5L72.0,86.2L72.8,88.4L73.8,90.2L74.4,90.9L77.3,93.6L79.6,95.0L82.7,96.4L83.6,96.5L84.5,96.9L85.3,97.0L86.8,97.4L91.7,97.7L92.2,97.5L94.7,97.4L95.4,97.1L96.5,97.0L97.9,96.6L99.4,96.4L100.8,95.7L102.4,95.2L103.8,94.4L104.3,94.2L107.1,92.1L108.6,90.3L109.5,88.8L110.6,86.4L110.8,85.0L110.8,82.5L110.1,79.7L109.4,78.1L108.8,77.3L108.7,77.0L107.0,75.0L107.1,74.7L107.4,74.5L107.3,74.1L107.0,74.1L106.6,74.3L106.4,74.3L105.6,73.9L104.7,73.2L104.2,72.9L103.8,72.6L101.2,71.2L100.6,71.1L99.9,70.7L95.2,69.4L94.4,69.4L93.8,69.2L84.4,69.4Z M73.7,70.9L74.9,70.7L83.4,70.8L83.8,70.7L92.5,70.7L93.0,70.8L94.8,70.9L95.1,71.1L96.9,71.3L99.9,72.2L103.0,73.8L104.7,75.0L105.9,76.1L107.6,78.2L108.6,80.4L109.0,81.9L109.1,84.6L109.0,85.4L108.6,87.0L107.9,88.2L107.0,89.5L104.9,91.7L102.1,93.5L100.2,94.4L99.1,94.7L98.7,95.0L94.4,95.9L89.2,96.1L85.5,95.5L83.9,95.1L82.2,94.5L81.7,94.2L81.4,94.2L79.8,93.2L79.2,93.0L77.4,91.7L75.2,89.4L74.2,87.9L73.8,87.0L73.3,84.8L73.2,82.7L73.2,74.2L73.3,71.5Z M109.7,39.7L109.2,38.8L108.1,37.3L105.2,34.8L102.9,33.3L102.5,33.2L101.6,32.8L101.3,32.8L101.0,32.5L100.3,32.4L99.7,32.0L97.8,31.5L97.2,31.5L95.2,31.1L92.6,30.9L87.9,31.1L85.5,31.5L84.4,31.9L83.2,32.1L79.2,33.7L77.0,35.1L74.1,37.8L73.3,39.1L72.2,41.7L71.9,42.9L71.6,44.8L71.6,57.4L71.8,58.6L72.4,59.0L85.9,59.0L87.0,59.1L89.6,59.1L90.5,59.0L95.1,59.0L97.4,58.6L100.4,57.7L101.4,57.3L104.6,55.6L106.8,53.9L108.9,51.5L110.0,49.5L110.4,48.4L110.7,47.0L110.8,43.2L110.4,41.6Z M108.6,41.3L109.2,43.6L109.2,45.6L109.0,47.2L108.3,49.1L107.7,50.4L107.3,50.8L107.0,51.3L106.2,52.3L105.3,53.2L104.0,54.2L103.6,54.3L103.1,54.8L102.5,55.1L101.4,55.7L100.9,55.8L100.3,56.2L97.8,56.7L96.5,57.1L92.7,57.6L90.5,57.7L75.1,57.5L73.8,57.3L73.4,57.0L73.2,55.2L73.2,44.8L73.4,43.1L73.8,41.8L74.6,40.1L75.9,38.4L77.9,36.6L78.0,36.6L79.2,35.7L80.6,34.9L81.0,34.6L83.9,33.5L85.7,33.0L86.9,32.9L88.0,32.6L89.1,32.6L90.1,32.4L93.1,32.4L93.6,32.5L94.8,32.5L95.6,32.8L96.9,32.9L98.1,33.3L98.6,33.3L102.1,34.8L104.8,36.6L107.0,38.8Z M12.6,36.7L11.3,39.3L10.4,42.0L10.0,44.5L10.0,48.5L10.6,50.9L11.2,52.3L12.2,54.0L12.4,54.7L13.2,55.5L14.1,56.6L14.3,57.1L13.8,57.4L10.4,57.3L9.9,57.5L9.4,58.1L9.5,64.6L9.3,65.6L9.5,66.1L9.5,70.2L9.6,70.5L10.1,70.7L11.7,70.9L13.8,70.7L15.8,70.8L16.1,71.0L16.1,71.2L16.0,71.5L14.0,73.4L13.9,73.7L13.4,74.2L12.9,75.1L12.4,75.8L11.7,76.3L11.3,77.3L11.3,77.7L10.8,79.1L10.0,82.7L10.0,85.6L10.5,87.6L11.2,89.6L12.4,91.9L13.5,93.6L16.0,96.2L16.9,96.9L19.5,98.7L21.6,99.8L21.9,100.0L25.2,101.4L29.7,102.6L34.5,103.2L39.2,103.3L41.0,103.0L43.3,103.0L44.2,102.7L44.7,102.7L46.0,102.3L46.8,102.2L51.0,100.8L51.7,100.4L52.7,100.1L54.8,99.1L55.3,99.0L55.7,99.4L55.9,102.8L56.3,103.3L56.5,103.4L62.8,103.4L67.9,103.2L70.9,103.3L72.4,103.1L72.9,102.7L73.1,101.9L73.2,99.3L73.5,99.0L73.9,99.0L74.5,99.4L75.0,99.5L76.6,100.4L78.4,100.9L79.2,101.3L80.7,101.8L81.9,102.0L84.4,102.6L88.2,103.1L94.4,103.2L95.2,103.0L97.2,102.8L98.5,102.4L99.5,102.3L100.4,102.0L101.6,101.8L104.0,101.0L104.8,100.6L105.6,100.4L108.7,98.7L109.2,98.3L110.0,97.9L112.2,96.2L114.9,93.4L116.7,90.8L117.9,88.3L118.7,85.2L118.7,80.6L117.6,77.1L116.3,75.0L116.5,74.7L116.8,74.6L116.7,74.4L116.2,74.3L115.5,73.7L114.6,72.5L113.3,71.0L113.7,70.7L117.9,70.7L118.4,70.4L118.5,70.1L118.6,65.0L118.9,64.1L118.7,63.4L118.7,60.8L118.9,59.7L118.9,58.9L118.5,57.5L118.3,57.3L114.7,57.1L114.5,56.9L114.5,56.5L115.5,55.3L116.4,53.6L116.7,53.0L117.6,51.3L118.1,49.8L118.7,47.0L118.7,42.3L118.3,40.7L118.3,40.0L117.6,38.8L117.4,37.8L115.1,34.9L114.8,34.2L114.4,33.8L113.9,33.6L111.5,31.4L109.8,30.2L107.9,29.2L107.7,28.9L103.2,27.1L102.2,26.9L101.6,26.6L100.4,26.4L99.6,26.1L99.1,26.1L97.9,25.8L93.9,25.4L88.3,25.4L84.4,25.9L81.2,26.5L80.4,26.9L80.1,26.9L79.6,27.2L77.7,27.6L77.0,28.0L76.0,28.4L74.5,29.3L73.7,29.6L73.3,29.6L73.2,29.4L72.8,28.4L72.8,25.6L72.2,25.1L59.7,25.0L57.9,25.2L57.3,25.0L55.7,25.1L55.3,25.5L55.2,26.3L55.2,28.9L55.2,29.1L54.6,29.3L52.2,28.2L51.7,27.9L51.2,27.8L51.0,27.6L50.1,27.4L49.7,27.2L45.9,26.1L44.9,26.0L44.0,25.8L43.3,25.8L42.8,25.6L40.6,25.5L39.8,25.4L34.1,25.4L33.5,25.6L32.8,25.6L31.1,26.0L29.9,26.1L28.6,26.5L27.7,26.5L27.1,26.9L24.8,27.6L22.7,28.5L22.1,28.9L21.9,28.9L20.7,29.5L17.0,31.9L15.5,33.4L15.0,33.6L14.3,34.5L14.1,34.9Z M19.9,80.6L21.2,78.1L23.3,75.8L24.3,75.0L25.4,74.3L27.7,73.2L28.4,73.0L30.2,72.2L31.1,72.0L32.0,71.7L33.4,71.5L34.5,71.2L35.1,71.2L36.9,70.9L40.4,70.9L42.6,71.1L45.0,71.6L48.7,73.2L50.4,74.1L50.6,74.4L52.2,75.6L53.8,77.2L54.9,78.9L56.0,81.8L56.0,84.0L55.9,85.3L55.3,87.0L54.4,88.8L53.8,89.6L52.1,91.3L49.6,93.1L48.0,93.9L45.6,94.9L41.4,95.9L37.4,96.2L34.0,96.1L32.6,95.9L32.3,95.7L30.9,95.5L27.2,94.1L24.2,92.3L22.3,90.5L21.3,89.3L20.0,87.2L19.9,86.6L19.5,85.4L19.4,83.6L19.5,81.9Z M117.1,59.0L117.2,63.6L117.2,68.8L116.6,69.3L111.1,69.2L107.2,66.7L106.7,66.5L104.9,65.5L103.8,65.0L103.0,64.8L102.4,64.3L102.4,64.2L102.7,63.9L104.9,63.2L107.5,61.8L108.7,61.3L110.6,60.1L112.1,58.9L112.5,58.7L113.7,58.6L116.7,58.6Z M20.4,40.4L21.3,39.0L22.6,37.7L22.8,37.4L25.3,35.5L26.9,34.6L28.3,34.1L29.0,33.7L31.5,33.0L33.0,32.8L34.3,32.5L35.9,32.5L37.4,32.4L40.4,32.4L42.7,32.8L43.2,33.0L45.2,33.3L45.8,33.7L47.9,34.4L48.9,34.9L49.1,35.1L49.6,35.3L52.3,37.3L54.2,39.5L55.3,41.7L55.8,43.4L55.9,44.2L56.0,55.5L55.8,57.4L55.5,57.7L51.2,57.8L46.7,57.6L41.7,57.8L35.0,57.7L31.2,57.1L28.1,56.0L24.9,54.4L23.0,53.0L21.2,50.9L20.5,50.0L20.2,49.2L20.0,49.1L19.3,47.0L19.1,45.7L19.1,44.3L19.4,42.9Z M13.5,38.1L15.3,35.7L17.5,33.5L19.6,31.9L22.5,30.1L23.5,29.8L25.2,28.9L27.9,28.0L29.1,27.9L30.3,27.5L31.4,27.4L32.1,27.2L34.2,26.9L39.5,26.8L43.5,27.1L44.8,27.4L45.9,27.5L46.7,27.8L47.7,28.0L48.5,28.4L49.4,28.5L50.0,28.9L50.4,28.9L51.0,29.3L51.4,29.4L53.9,30.8L55.4,32.0L56.0,32.4L56.5,32.4L56.7,32.0L56.7,28.8L56.9,28.3L56.8,27.1L57.3,26.8L57.9,26.6L70.8,26.7L71.2,27.0L71.4,27.6L71.3,29.3L71.5,30.2L71.5,31.9L71.5,32.4L71.9,32.8L72.4,32.8L74.2,31.3L75.8,30.3L77.2,29.8L77.8,29.4L79.1,28.9L81.0,28.3L82.3,28.0L83.4,27.6L88.8,26.8L94.1,26.7L95.4,27.0L96.8,27.0L98.4,27.4L99.7,27.6L100.8,28.0L101.2,28.0L103.9,28.9L104.3,28.9L106.4,29.9L109.2,31.6L112.0,33.7L114.5,36.4L115.5,38.1L116.4,40.0L117.2,42.3L117.3,45.6L117.2,47.4L116.7,49.0L116.7,49.4L116.2,51.0L115.8,51.7L115.8,51.9L114.6,53.8L112.6,56.2L110.3,58.2L107.6,60.1L104.7,61.6L104.2,61.6L103.4,62.1L102.6,62.2L102.1,62.5L100.4,63.1L97.3,63.8L96.9,64.2L97.1,64.5L97.8,64.6L98.5,64.9L100.8,65.5L101.2,65.7L102.1,65.9L103.5,66.4L105.1,67.2L108.0,69.0L108.3,69.0L110.3,70.5L110.8,71.1L111.4,71.4L113.8,74.0L114.6,75.0L115.8,77.1L116.2,78.4L116.5,78.9L117.1,81.6L117.1,84.0L116.8,85.5L116.4,86.7L116.4,87.0L115.1,90.1L112.3,93.8L109.4,96.4L108.0,97.2L106.7,98.2L105.5,98.7L104.8,99.1L102.2,100.0L100.1,100.5L99.4,100.8L97.7,101.0L96.1,101.3L91.3,101.6L87.3,101.2L86.9,101.1L84.4,100.8L82.3,100.4L81.6,100.0L80.9,100.0L80.5,99.7L79.3,99.5L78.9,99.2L77.5,98.8L74.2,97.4L72.1,96.0L71.5,96.0L71.3,96.3L71.3,101.1L71.1,101.4L70.4,101.6L68.3,101.7L57.8,101.7L57.4,101.3L57.4,97.8L59.7,96.0L62.9,92.8L64.2,91.0L64.2,90.9L65.3,89.1L66.0,87.2L66.7,84.5L66.8,81.0L66.4,78.0L65.8,75.8L64.6,73.4L63.5,71.8L62.9,71.2L62.6,70.6L60.2,68.3L58.8,67.5L57.2,66.2L56.2,65.7L55.4,65.1L53.3,64.0L52.6,63.8L50.0,62.6L49.5,62.5L49.0,62.2L47.6,61.6L46.0,61.2L44.9,61.0L42.9,60.3L41.6,60.0L40.7,59.6L40.7,59.4L41.1,59.2L43.7,59.3L45.7,59.1L47.4,59.3L57.1,59.1L57.5,58.6L57.4,49.6L57.2,42.9L56.8,41.4L56.0,39.7L54.7,37.6L54.2,37.0L51.7,34.9L49.1,33.2L47.6,32.8L47.4,32.6L46.0,32.0L45.3,31.9L45.1,31.8L43.8,31.5L42.1,31.2L41.8,31.1L38.8,30.9L35.9,30.9L35.0,31.1L33.8,31.1L30.6,31.6L30.2,31.9L29.0,32.1L25.9,33.4L25.7,33.6L24.1,34.5L22.4,35.7L21.3,36.7L19.6,38.7L18.4,41.0L17.7,43.4L17.7,45.9L18.0,47.4L18.6,49.1L19.5,51.0L20.3,52.2L21.1,53.0L23.3,55.0L25.0,56.0L29.2,58.0L30.1,58.2L31.8,58.7L32.2,59.0L33.5,59.2L34.3,59.5L35.0,59.6L35.8,59.9L36.8,60.1L37.6,60.4L40.3,61.0L42.4,61.6L42.8,61.9L44.2,62.1L44.8,62.5L45.6,62.6L46.1,62.9L49.1,63.9L53.7,65.9L57.4,68.1L59.9,70.2L61.2,71.7L62.1,72.4L62.4,73.2L62.7,73.5L64.1,75.9L65.1,79.0L65.3,80.5L65.4,82.3L65.2,83.9L64.9,84.9L64.9,85.4L64.6,86.3L64.2,87.3L63.9,87.7L63.4,89.3L63.0,90.0L62.5,90.5L62.5,90.6L61.6,91.9L59.8,93.9L57.3,96.0L56.2,96.5L55.4,97.2L54.4,97.7L53.9,98.2L51.7,99.1L49.4,100.0L48.6,100.1L48.0,100.4L46.6,100.7L45.0,101.2L43.1,101.4L42.7,101.6L41.5,101.6L39.7,101.8L34.0,101.8L32.4,101.5L30.6,101.3L28.7,100.8L28.2,100.6L24.4,99.5L21.7,98.2L21.4,97.9L20.1,97.4L18.9,96.5L18.0,95.7L17.1,95.2L15.0,93.1L13.5,91.0L12.8,89.6L11.9,87.0L11.8,85.9L11.7,85.4L11.7,82.3L12.2,79.9L13.2,77.5L13.8,76.3L15.3,74.3L18.3,71.2L18.5,71.2L19.7,70.2L20.3,70.0L20.4,69.8L20.4,69.5L19.9,69.4L12.5,69.3L11.7,69.2L11.2,68.8L11.1,60.8L11.3,59.3L11.6,59.0L12.9,58.9L16.0,59.0L18.6,61.0L20.1,61.9L21.8,63.2L23.7,64.2L24.8,65.0L25.2,65.1L26.8,65.9L30.4,67.5L31.6,67.8L33.2,68.5L34.1,68.6L34.9,69.0L35.4,69.0L35.8,69.2L35.8,69.4L35.4,69.6L32.8,69.9L28.5,71.1L26.4,72.0L24.5,73.1L23.1,74.1L21.6,75.4L20.3,76.8L19.9,77.6L19.4,78.3L18.4,80.5L17.9,82.7L17.8,84.7L18.1,86.6L19.1,89.1L19.5,89.5L20.0,90.4L20.8,91.3L20.9,91.5L23.3,93.8L23.9,94.0L24.9,94.8L26.8,95.7L29.8,96.8L31.1,96.9L32.4,97.3L35.0,97.5L39.2,97.6L40.5,97.5L44.5,96.9L47.4,96.0L47.9,95.6L50.0,94.8L52.0,93.7L52.6,93.1L53.5,92.5L55.6,90.2L56.7,88.1L57.3,86.4L57.8,84.0L57.8,81.5L57.3,80.0L56.4,77.8L55.5,76.5L53.3,74.1L52.6,73.7L51.8,73.0L51.5,72.9L51.0,72.4L49.7,72.0L49.1,71.5L48.9,71.5L47.4,70.8L45.6,70.2L43.3,69.6L42.3,69.2L41.6,69.1L40.5,68.7L39.7,68.6L38.1,68.1L37.5,68.1L36.5,67.7L35.5,67.5L34.8,67.2L32.7,66.6L31.1,65.9L28.8,65.1L26.9,64.1L25.5,63.6L25.3,63.4L21.3,61.2L19.5,59.9L16.6,57.3L15.3,55.9L13.9,53.9L13.8,53.5L13.3,53.0L13.0,52.5L12.4,51.8L12.1,51.1L12.1,50.4L11.4,48.5L11.3,47.3L11.3,45.7L11.5,43.3L12.4,40.3L13.2,38.9Z" fill="#000" fill-rule="evenodd"/>
</svg>