<svg xmlns="http://www.w3.org/2000/svg" viewBox="0 0 128 128" width="128" height="128">
  <path d="M11.8,15.0L10.6,16.5L10.6,16.8L10.2,17.3L9.7,19.3L9.4,21.3L9.6,46.1L9.5,55.1L10.0,58.3L10.9,60.3L11.9,61.5L13.5,63.0L15.5,63.9L17.5,64.4L37.5,64.4L44.3,64.2L46.3,64.3L46.6,64.5L46.7,64.8L46.2,65.1L40.1,65.2L11.3,65.2L10.2,65.4L10.0,65.7L10.0,89.0L10.2,97.5L10.1,104.4L10.2,114.2L10.3,115.2L10.7,115.9L14.3,116.1L17.6,116.0L18.0,115.8L18.3,114.9L18.1,107.9L18.2,107.5L18.7,107.0L19.0,106.9L38.7,106.7L62.4,106.7L67.8,106.5L71.7,106.6L85.3,106.3L102.0,106.3L103.8,106.1L106.2,105.1L107.4,104.1L108.3,103.2L109.1,102.1L109.4,101.3L109.8,100.7L110.2,98.6L110.2,73.3L109.7,70.6L109.0,69.1L108.2,68.1L106.8,66.7L105.6,65.9L104.2,65.3L102.7,65.0L101.2,65.0L47.4,65.1L47.0,64.9L47.0,64.6L47.2,64.4L48.6,64.2L101.9,64.2L103.1,64.3L104.7,64.7L106.3,65.3L108.2,66.8L109.4,68.1L110.2,69.7L110.7,71.1L110.9,72.3L110.8,74.4L111.0,75.1L111.0,78.1L110.7,81.4L110.9,83.5L110.7,86.1L110.9,86.5L110.9,92.8L111.1,98.3L110.7,100.5L109.8,102.7L108.6,104.2L106.6,105.8L106.1,106.0L105.6,106.4L104.9,106.5L104.1,106.9L102.1,107.1L98.6,107.0L86.4,107.2L82.3,107.2L77.8,107.3L76.5,107.2L59.3,107.5L56.8,107.4L42.2,107.7L33.5,107.6L21.3,107.9L19.8,107.8L19.3,108.1L19.1,108.5L19.0,110.3L19.1,115.0L19.2,115.5L19.5,115.9L38.4,115.9L41.7,115.7L51.7,115.8L66.1,115.5L69.3,115.6L79.6,115.3L84.5,115.4L90.6,115.2L102.4,115.2L106.0,114.8L107.1,114.3L108.1,114.1L110.1,113.0L111.8,112.0L114.6,109.4L116.5,106.9L117.6,104.7L117.8,103.9L118.2,103.0L118.8,99.9L118.9,73.6L118.6,70.5L118.3,69.7L118.1,68.4L117.4,66.4L116.6,64.9L115.2,62.7L112.7,60.1L110.3,58.4L108.6,57.5L107.8,57.3L107.2,57.0L106.0,56.8L105.0,56.4L103.0,56.3L102.1,56.1L62.8,56.1L51.3,56.3L18.3,56.2L17.9,55.8L17.7,55.3L17.8,53.4L17.5,38.3L17.5,21.3L17.6,21.0L18.3,20.5L19.7,20.4L55.4,20.6L65.1,20.8L66.5,20.7L74.1,20.9L84.9,20.8L93.7,21.0L99.8,20.9L103.7,21.1L118.2,21.1L118.8,20.8L118.9,20.4L118.9,13.6L118.5,13.2L107.4,13.1L106.2,13.1L100.2,13.0L78.2,13.0L64.5,12.7L47.8,12.7L17.0,12.3L15.7,12.5L14.0,13.1Z M102.2,73.9L102.2,86.5L102.4,93.8L102.3,97.3L101.8,97.8L101.5,97.9L93.2,97.9L87.1,98.1L86.2,98.0L69.8,98.4L57.8,98.3L37.9,98.6L26.5,98.6L25.7,99.2L25.4,99.1L24.7,98.6L18.4,98.5L18.0,98.0L17.9,90.3L17.9,85.4L17.8,82.5L17.9,74.3L17.9,74.0L18.4,73.6L24.4,73.4L70.2,73.4L81.0,73.2L92.7,73.2L101.7,73.4Z" fill="#000" fill-rule="evenodd"/>
</svg>