<svg xmlns="http://www.w3.org/2000/svg" viewBox="0 0 128 128" width="128" height="128">
  <path d="M114.7,10.8L113.4,9.9L111.5,9.4L86.9,9.5L69.9,9.8L56.8,9.7L54.4,9.8L29.9,10.2L29.1,10.4L18.2,10.5L17.5,10.7L15.4,10.8L14.2,11.1L12.9,11.7L11.7,12.7L11.1,13.4L10.3,15.1L10.1,15.9L10.1,18.2L9.9,19.1L9.9,56.2L9.7,67.5L9.8,72.5L9.8,98.2L10.6,98.5L31.1,98.5L36.9,98.3L44.2,98.3L47.1,97.7L48.0,96.8L48.3,96.2L48.3,95.3L48.1,94.6L47.3,93.7L46.8,93.4L45.3,93.2L31.7,93.3L30.4,93.1L28.3,92.7L25.2,91.5L21.8,89.5L19.3,86.9L18.8,86.0L18.2,85.3L17.5,83.6L17.1,83.1L16.5,81.6L16.1,80.7L15.4,77.8L15.4,73.1L16.1,69.6L17.9,65.7L20.9,61.8L22.4,60.6L24.6,59.1L27.3,57.7L28.9,57.6L30.1,57.2L31.8,57.1L32.5,56.9L37.1,56.6L48.6,56.6L49.6,56.4L51.3,56.4L52.0,56.2L52.4,56.0L52.6,54.8L52.5,54.0L52.7,53.5L53.0,53.2L53.4,53.2L53.9,53.5L55.0,54.6L57.1,57.0L60.0,59.9L60.1,60.2L62.6,62.9L63.3,64.0L63.3,64.5L63.0,65.0L60.5,67.8L60.3,68.3L58.7,70.0L56.6,72.6L54.6,74.7L53.6,76.0L53.0,76.0L52.7,75.7L52.5,75.1L52.5,72.5L52.0,72.0L49.2,72.0L46.1,72.1L34.3,72.2L32.5,73.0L31.8,73.8L31.3,75.1L31.4,76.0L31.8,76.7L32.3,77.1L33.2,77.5L34.1,77.7L50.0,77.8L51.4,78.0L53.1,78.4L56.3,79.9L57.4,80.6L59.6,82.8L62.1,86.2L63.1,88.4L63.9,90.9L64.1,94.4L64.0,96.7L63.7,99.5L62.9,101.5L62.6,102.8L61.2,105.6L60.1,107.0L59.7,107.6L57.2,110.0L55.0,111.3L53.5,111.9L52.5,112.4L51.0,113.0L49.4,113.3L44.4,113.6L42.0,113.5L18.5,113.8L11.3,113.7L10.8,114.0L10.7,114.7L11.5,116.8L12.9,118.2L14.9,118.8L23.2,118.9L32.0,118.7L51.0,118.6L53.9,118.4L57.4,118.5L65.6,118.3L82.3,118.4L89.2,118.2L111.5,118.2L114.7,117.8L115.9,117.2L117.0,116.3L117.7,115.1L118.2,112.8L118.5,106.8L118.6,95.9L118.4,87.7L118.4,62.6L118.2,61.9L118.4,31.0L118.1,30.4L117.1,30.1L108.1,30.1L104.8,30.3L84.3,30.3L82.6,30.6L81.7,31.3L81.4,32.1L81.3,32.9L81.6,34.0L82.4,34.7L84.0,35.3L97.1,35.2L100.0,35.6L101.3,36.1L103.9,36.7L106.0,37.9L107.4,38.9L110.3,41.9L111.6,43.9L112.8,46.2L113.3,47.5L114.1,51.6L114.1,55.8L113.6,57.6L113.6,58.2L113.4,59.1L113.1,59.4L113.1,59.8L112.3,61.8L112.0,62.1L111.7,63.0L110.7,64.3L108.0,67.2L105.4,69.0L103.8,69.7L103.0,70.2L101.7,70.6L96.7,71.6L87.2,71.8L85.5,72.0L77.5,72.0L76.9,72.2L76.6,72.7L76.4,75.3L76.2,75.7L75.8,75.8L75.3,75.5L73.6,73.8L73.3,73.3L70.3,70.2L69.7,69.3L68.8,68.6L66.9,66.1L65.9,65.2L65.0,63.9L65.0,63.4L65.8,62.2L68.9,59.1L70.5,56.9L75.3,51.5L76.2,51.2L76.5,51.5L76.5,55.3L76.8,55.9L77.6,56.0L94.3,55.9L96.1,55.5L97.1,54.7L97.5,54.1L97.5,53.1L97.1,52.3L96.0,51.3L94.8,50.9L88.3,50.7L82.3,50.8L78.8,50.3L76.5,49.6L75.2,49.1L73.8,48.2L72.8,47.8L71.4,46.7L68.2,43.3L66.9,41.2L65.8,38.1L65.5,35.6L65.3,33.0L65.5,30.3L65.8,28.9L65.9,27.6L66.7,25.4L68.3,22.6L68.5,22.0L69.9,20.4L70.4,19.4L72.1,17.8L75.1,16.2L75.3,16.0L77.7,14.9L80.9,14.1L100.1,14.1L104.1,13.9L116.0,14.0L116.5,13.8L116.5,13.1L116.1,12.4Z" fill="#000" fill-rule="evenodd"/>
</svg>