<svg xmlns="http://www.w3.org/2000/svg" viewBox="0 0 128 128" width="128" height="128">
  <path d="M66.6,65.8L65.9,65.8L65.4,66.2L65.2,66.6L65.2,102.3L65.1,103.6L65.1,107.1L64.9,107.8L64.5,108.3L64.1,108.5L63.3,108.5L62.9,108.3L62.4,107.8L62.1,107.1L62.1,88.0L61.9,85.2L61.4,84.8L59.3,84.7L46.4,84.4L45.2,84.4L44.9,84.6L44.7,85.0L44.6,85.5L44.7,99.2L45.1,102.8L45.6,104.8L45.9,105.5L46.1,106.3L47.4,109.2L48.3,110.4L48.6,111.0L50.8,113.4L52.6,115.1L54.6,116.6L57.2,117.8L60.2,118.8L61.8,118.9L62.1,119.1L62.7,119.1L65.2,119.1L65.8,119.0L67.7,118.8L69.4,118.4L71.0,117.9L73.6,116.6L76.2,114.7L77.7,113.3L78.9,111.9L80.5,109.5L81.1,108.4L82.4,104.9L83.1,100.6L83.0,91.9L83.0,90.8L82.7,83.5L82.3,80.8L81.4,77.9L80.8,76.7L80.7,76.3L80.3,75.8L79.7,74.7L78.6,73.1L76.2,70.5L74.6,69.1L73.1,68.1L70.5,66.9L67.9,66.0Z M69.4,52.3L67.7,55.0L66.9,56.7L65.8,60.0L65.7,61.1L65.7,61.9L66.0,62.3L66.3,62.5L75.0,62.6L77.1,62.8L106.6,63.0L107.3,63.3L107.9,63.8L108.1,64.1L108.2,64.7L108.0,65.2L107.4,65.8L106.6,66.0L104.3,66.1L100.6,65.9L86.1,65.9L84.9,66.0L84.4,66.2L84.2,66.4L84.1,67.1L84.2,73.6L84.1,77.9L84.2,82.8L84.7,83.4L86.4,83.6L89.9,83.7L100.5,83.7L103.2,83.3L105.2,82.6L105.9,82.6L107.7,81.8L110.2,80.2L111.7,79.0L112.8,77.9L114.7,75.5L115.5,74.2L116.4,72.3L117.3,69.5L117.7,67.7L117.9,66.2L117.9,63.5L117.5,60.5L117.2,59.2L116.3,56.7L114.7,53.7L112.5,50.9L110.6,49.2L109.4,48.3L107.5,47.2L106.3,46.7L105.7,46.3L103.1,45.4L98.5,44.7L86.0,44.7L80.8,45.0L77.1,46.2L73.9,48.0L72.4,49.1Z M13.8,52.6L13.1,54.0L12.8,54.3L11.6,56.7L11.1,58.1L10.5,60.7L10.3,63.5L10.3,65.5L11.1,69.5L11.9,71.6L12.8,73.3L14.0,75.1L15.3,76.6L15.6,77.1L17.1,78.6L19.6,80.4L20.5,80.8L21.6,81.5L23.1,82.2L25.3,82.8L26.3,83.0L35.8,83.3L44.9,83.3L46.7,83.0L48.9,82.6L51.6,81.5L52.7,80.9L55.4,79.0L57.2,77.4L58.9,75.4L59.0,75.0L59.7,74.1L61.2,71.1L62.2,67.8L62.3,66.6L61.9,66.0L61.1,65.8L53.2,65.8L46.4,65.5L44.0,65.6L32.0,65.4L30.3,65.5L29.4,65.3L24.9,65.4L20.6,65.1L20.2,64.9L19.8,64.4L19.5,63.6L19.8,62.8L20.2,62.4L21.1,62.2L36.6,62.2L39.9,62.4L43.1,62.3L43.5,61.8L43.4,45.4L43.2,45.0L42.9,44.7L41.7,44.6L30.7,44.5L27.8,44.7L25.0,45.1L24.6,45.4L23.4,45.6L21.4,46.3L20.6,46.7L20.2,47.1L19.2,47.6L17.8,48.5L16.4,49.7L14.7,51.5Z M65.8,9.2L61.9,9.2L60.3,9.3L59.6,9.6L58.5,9.8L57.4,10.2L57.1,10.4L56.4,10.6L54.7,11.4L52.0,13.2L50.8,14.4L50.4,14.6L48.9,16.2L47.2,18.8L47.1,19.1L46.8,19.5L46.5,20.2L46.5,20.6L46.0,21.3L45.6,22.6L45.5,23.4L45.1,24.6L45.1,25.3L45.0,25.9L44.8,27.8L44.7,33.3L44.8,44.3L45.2,47.2L45.5,47.9L45.7,48.8L46.5,51.1L47.7,53.3L48.9,55.0L50.5,56.9L50.9,57.1L51.7,57.9L55.0,60.2L58.2,61.6L58.8,61.7L60.3,62.2L61.5,62.2L61.9,61.6L62.1,53.0L62.0,23.7L62.2,20.2L62.5,19.6L62.9,19.1L63.3,19.0L64.0,19.0L64.6,19.3L65.1,19.9L65.3,21.2L65.3,42.1L65.5,43.2L66.0,43.6L66.5,43.7L81.8,43.9L82.3,43.7L82.6,43.3L82.7,42.8L82.3,25.5L81.6,22.5L80.4,19.4L80.0,18.9L79.4,17.8L78.1,16.1L76.1,14.0L74.6,12.7L74.2,12.5L72.8,11.5L70.2,10.3L68.8,9.8Z" fill="#000" fill-rule="evenodd"/>
</svg>