<svg xmlns="http://www.w3.org/2000/svg" viewBox="0 0 128 128" width="128" height="128">
  <path d="M118.2,9.5L117.0,9.4L50.1,9.9L19.8,9.9L16.7,10.3L15.9,10.5L15.7,10.7L15.0,10.8L13.4,11.6L11.5,13.5L11.3,14.0L11.0,14.4L10.5,15.8L9.8,19.9L9.8,53.7L10.0,55.4L10.3,56.1L10.3,56.7L10.6,57.7L11.1,58.8L12.4,60.3L13.4,61.0L15.3,61.9L16.7,62.3L20.2,62.6L88.5,62.6L91.7,62.7L92.3,62.9L92.6,63.2L92.5,64.0L92.2,64.1L88.1,64.3L19.6,64.3L10.4,64.5L10.0,64.9L9.8,65.7L9.8,89.1L9.9,89.5L10.4,89.9L39.5,89.9L49.9,90.1L50.6,90.2L51.1,90.6L51.2,91.8L51.1,92.4L50.9,92.7L47.9,92.9L13.0,92.9L10.4,93.1L10.0,93.5L9.9,94.1L9.9,116.1L10.1,118.4L10.5,118.7L12.4,118.9L30.9,118.9L63.2,118.6L117.2,118.5L118.0,118.1L118.2,112.4L118.2,97.6L118.1,93.5L117.8,93.1L117.0,92.9L77.7,92.9L77.2,92.7L76.9,92.4L76.9,90.4L77.5,90.0L78.1,89.9L108.6,89.9L111.0,89.7L112.9,89.1L115.0,88.1L116.2,86.9L117.0,85.6L117.7,83.8L117.7,82.9L118.1,80.5L118.1,57.2L118.3,52.1L118.3,45.7L117.8,42.7L116.8,40.6L115.3,39.0L113.8,38.2L112.2,37.6L109.9,37.1L108.6,37.0L36.2,37.0L35.5,36.6L35.5,36.3L35.9,35.7L36.5,35.5L64.4,35.6L117.7,35.4L118.1,35.3L118.5,34.7L118.4,26.7L118.5,10.5L118.5,9.8Z M116.4,11.2L116.9,11.9L117.0,13.2L116.8,32.4L116.6,33.3L115.9,33.7L114.2,33.9L107.9,33.8L93.2,33.9L35.3,33.9L34.1,34.2L33.9,34.7L34.0,38.2L34.4,38.5L34.9,38.6L107.7,38.6L110.0,38.8L112.2,39.3L113.3,39.7L114.5,40.7L115.6,42.0L116.2,43.3L116.8,47.2L116.6,68.9L116.4,72.2L116.5,80.0L116.2,83.1L115.7,84.1L115.7,84.4L115.2,85.1L115.0,85.5L113.9,86.8L112.8,87.4L111.5,87.9L109.1,88.4L75.8,88.4L75.5,88.6L75.3,89.0L75.3,93.6L75.6,94.2L76.2,94.4L88.4,94.5L110.9,94.3L115.6,94.5L116.1,94.7L116.4,95.0L116.5,96.0L116.5,106.1L116.3,108.8L116.2,116.3L115.8,116.6L114.0,116.6L112.8,116.9L104.1,117.0L63.4,117.0L33.8,117.2L13.8,117.2L12.3,117.1L11.9,117.0L11.5,116.5L11.4,115.9L11.4,95.9L11.5,95.2L11.8,94.8L12.4,94.6L15.5,94.5L52.1,94.5L52.5,94.3L52.7,94.1L52.8,89.2L52.5,88.6L51.6,88.4L12.2,88.4L11.5,87.7L11.3,82.2L11.3,67.3L11.4,66.5L11.8,66.0L12.3,65.8L19.9,65.7L33.4,65.9L93.2,65.8L93.9,65.6L94.1,65.4L94.2,64.8L94.2,61.6L94.0,61.1L93.0,61.0L19.8,61.2L16.9,60.9L16.3,60.6L15.9,60.6L14.6,59.9L13.7,59.3L12.3,57.6L11.7,56.2L11.3,53.8L11.3,19.7L11.7,16.9L12.4,15.1L13.3,13.8L14.3,12.8L16.1,12.1L19.4,11.5L20.9,11.4L57.3,11.4L68.6,11.3L70.6,11.1L83.7,11.2L98.0,11.0L115.7,11.0Z" fill="#000" fill-rule="evenodd"/>
</svg>