<svg xmlns="http://www.w3.org/2000/svg" viewBox="0 0 128 128" width="128" height="128">
  <path d="M119.1,39.4L118.8,39.1L117.8,39.0L98.0,39.2L96.1,39.3L92.3,39.3L90.6,39.5L79.6,39.6L77.7,39.9L75.1,40.4L74.3,40.7L73.7,40.8L72.0,41.3L70.2,42.0L68.3,43.0L68.0,43.3L66.0,44.5L63.6,46.6L61.7,48.4L60.1,50.2L60.0,50.4L58.4,52.2L58.0,53.0L56.1,55.5L53.1,60.0L51.5,62.0L51.4,62.3L50.3,63.7L49.4,65.2L48.8,65.8L47.6,67.7L45.8,69.5L43.0,71.8L41.5,72.7L39.8,73.3L37.6,73.9L36.3,73.9L35.2,74.2L18.1,74.2L16.3,74.4L15.6,75.2L14.4,77.9L13.8,79.0L13.5,79.8L12.7,81.1L12.7,81.4L12.1,82.3L11.8,83.2L11.5,83.5L11.0,84.8L10.7,85.3L10.2,86.5L10.0,86.7L9.4,88.2L9.2,88.5L9.2,89.0L9.5,89.2L40.5,89.0L44.9,88.3L45.9,88.0L47.8,87.2L50.5,85.8L52.5,84.3L54.1,82.9L55.8,81.2L57.5,79.3L57.6,79.1L58.3,78.3L58.3,78.0L59.2,77.0L60.0,75.8L61.2,74.2L62.1,72.9L62.4,72.5L62.6,72.1L65.9,67.7L66.6,66.6L68.2,64.6L68.2,64.3L70.2,61.5L71.4,60.2L71.4,60.0L73.8,57.6L75.5,56.4L77.2,55.4L79.8,54.5L81.7,54.1L82.7,54.1L84.6,54.1L84.8,54.4L84.8,54.9L84.4,55.5L83.8,57.0L83.2,57.9L83.1,58.3L82.6,59.3L82.5,59.7L80.1,64.5L79.8,65.2L79.6,65.4L79.3,66.4L78.4,67.8L78.2,68.4L78.0,68.6L77.9,69.0L76.4,72.1L75.9,73.3L74.3,76.3L73.9,77.3L71.6,81.8L71.4,82.3L70.5,84.1L70.3,84.3L69.9,85.5L68.5,88.1L68.5,88.7L68.7,88.8L69.1,88.9L84.3,89.0L84.8,88.6L93.0,72.3L93.3,71.5L94.4,69.5L94.4,69.2L95.3,67.6L95.8,66.5L98.8,60.6L99.8,58.4L100.7,56.9L101.7,54.7L101.9,54.6L102.5,54.4L111.1,54.4L111.8,54.2L112.2,53.7L112.4,53.2L113.7,50.6L113.8,50.1L114.6,48.8L115.0,47.7L115.3,47.3L116.3,45.1L117.6,42.8L118.7,40.2L119.1,39.6Z" fill="#000" fill-rule="evenodd"/>
</svg>