<svg xmlns="http://www.w3.org/2000/svg" viewBox="0 0 128 128" width="128" height="128">
  <path d="M118.9,44.2L118.5,43.8L117.1,43.7L110.5,43.7L110.2,43.9L110.0,44.2L110.0,56.4L110.1,58.5L110.2,76.3L110.1,77.1L110.1,79.0L109.9,80.5L109.5,81.2L108.8,81.8L107.4,82.2L106.2,82.1L105.2,81.7L104.7,81.1L104.2,79.9L104.1,72.0L104.2,62.7L104.0,59.9L104.0,56.7L103.8,51.8L103.5,49.5L103.1,48.2L102.6,47.4L101.5,45.8L100.2,44.8L98.3,43.8L97.6,43.7L96.4,43.4L95.4,43.4L94.2,43.2L90.1,43.2L86.3,43.5L83.9,44.2L82.9,44.9L81.0,46.7L80.5,47.4L79.7,49.3L79.6,50.4L79.6,63.4L79.7,65.4L79.7,78.1L79.6,79.3L79.2,80.7L78.9,81.2L78.5,81.7L77.5,82.1L76.3,82.2L75.6,82.2L74.6,81.7L74.1,81.2L73.5,80.0L73.4,72.4L73.3,69.5L73.4,66.2L73.2,62.2L73.2,55.0L73.0,51.1L72.7,50.1L72.7,49.5L72.0,48.0L71.1,46.8L69.8,45.6L68.6,45.1L66.6,44.6L63.2,44.4L60.5,44.4L59.1,44.2L54.6,44.2L51.9,44.4L45.7,44.2L24.2,44.2L21.5,44.2L20.7,44.4L18.5,44.4L17.3,44.6L16.2,44.6L15.2,44.7L13.9,45.1L12.7,45.8L12.3,46.3L12.1,46.3L10.8,48.0L10.0,49.9L10.0,50.1L9.3,52.5L9.2,53.5L9.0,54.3L9.0,58.6L9.2,59.9L9.2,61.0L9.6,61.6L9.8,62.8L10.4,64.2L11.1,65.7L12.2,66.9L13.5,67.9L14.4,68.4L15.2,68.6L15.9,69.0L17.3,69.3L18.5,69.3L28.2,69.3L35.2,69.1L47.2,69.1L49.8,69.3L51.2,69.7L51.9,70.3L52.6,71.4L52.7,72.1L52.7,73.2L52.3,74.3L51.7,75.0L50.7,75.5L48.6,75.7L13.5,75.9L11.6,75.8L10.2,75.9L9.8,76.2L9.7,76.6L9.7,83.3L9.8,84.5L9.9,84.8L10.4,85.0L13.7,85.0L22.1,85.0L23.1,84.9L25.5,85.0L29.5,84.8L44.2,84.8L45.0,84.7L46.4,84.7L48.5,84.5L50.8,83.8L52.0,83.0L53.3,81.8L54.1,80.7L54.9,79.0L55.4,77.6L55.5,76.9L55.8,75.6L55.9,74.0L55.8,70.0L55.5,67.9L55.3,67.1L55.2,66.4L54.5,64.5L53.9,63.5L52.8,62.3L51.6,61.5L50.1,60.8L48.1,60.2L46.1,60.1L40.1,60.1L37.5,60.2L23.0,60.1L17.0,60.2L14.2,59.9L12.9,59.4L12.2,58.7L11.8,57.9L11.7,57.3L11.8,55.7L12.3,54.7L12.8,54.2L13.2,54.0L14.0,53.7L15.8,53.5L29.5,53.5L38.0,53.3L61.4,53.3L62.5,53.7L63.4,54.6L63.7,55.2L64.0,56.2L64.1,60.1L64.1,61.0L64.3,70.3L64.3,75.7L64.8,78.9L65.3,80.0L66.0,81.2L67.5,82.6L69.3,83.8L71.2,84.5L72.6,84.6L73.3,84.8L75.1,85.0L79.5,84.9L80.4,84.7L81.3,84.6L82.0,84.3L82.7,84.1L83.8,83.7L84.6,83.3L85.7,82.4L87.3,80.6L88.0,79.0L88.3,77.9L88.5,76.4L88.5,67.6L88.2,59.9L88.3,49.4L88.5,48.4L89.2,47.2L89.9,46.7L91.1,46.3L92.4,46.3L93.3,46.7L94.0,47.3L94.3,48.0L94.6,49.2L94.6,51.6L94.7,53.9L94.7,55.6L94.8,58.3L94.8,64.5L94.9,66.9L95.0,68.0L95.1,76.0L95.4,77.2L95.4,78.1L95.6,79.1L96.5,81.0L98.0,82.5L98.7,83.0L100.4,84.0L102.1,84.5L104.0,84.8L105.0,85.0L108.8,85.0L110.4,84.7L111.5,84.6L113.5,84.1L114.3,83.7L115.3,83.1L116.5,82.2L117.1,81.4L118.1,80.0L118.5,79.0L119.0,76.8L119.2,74.1L119.2,69.9L119.1,63.3L119.1,50.1L118.9,47.7Z" fill="#000" fill-rule="evenodd"/>
</svg>