<svg xmlns="http://www.w3.org/2000/svg" viewBox="0 0 128 128" width="128" height="128">
  <path d="M41.0,9.7L40.6,10.1L40.2,12.0L39.7,13.1L39.2,14.1L37.9,15.3L35.0,16.9L33.9,17.3L32.5,18.0L31.5,18.3L30.4,18.9L30.1,19.1L29.4,19.3L27.4,20.2L26.9,20.6L26.4,20.7L24.1,21.8L23.6,22.3L21.4,23.4L18.0,25.7L16.4,27.4L15.0,29.1L14.1,30.6L12.1,35.1L11.6,37.3L11.2,39.9L10.9,47.0L11.1,63.5L11.4,64.0L11.8,64.0L13.8,64.0L14.5,63.7L14.7,63.3L14.7,59.2L14.9,56.4L15.1,55.9L15.3,54.3L16.3,51.7L17.8,49.1L19.7,47.3L22.2,45.5L26.3,43.3L26.8,43.3L27.4,42.9L27.9,42.8L28.4,42.4L29.2,42.1L31.1,41.1L31.3,40.9L32.1,40.6L34.0,39.2L35.6,37.8L37.2,36.0L38.7,34.1L39.4,32.8L39.8,32.5L40.0,32.7L40.1,35.3L39.8,55.2L39.8,73.6L40.0,78.7L39.9,83.9L39.8,84.1L39.4,84.2L37.0,81.4L35.7,80.3L33.6,78.9L33.3,78.8L32.4,78.2L31.8,78.1L31.1,77.6L29.9,77.2L29.3,77.1L28.8,76.8L26.3,76.2L22.6,76.2L21.4,76.5L19.6,76.8L17.9,77.4L15.9,78.4L14.7,79.4L14.1,79.7L12.8,81.0L10.9,83.5L10.7,84.3L10.2,85.2L9.6,86.8L9.4,87.9L9.3,91.6L9.6,94.0L10.3,96.0L11.4,98.2L12.4,99.8L13.9,101.6L15.9,103.6L17.5,104.8L21.1,106.9L21.6,107.0L22.5,107.6L24.4,108.3L25.1,108.4L25.7,108.8L30.7,110.1L32.2,110.2L33.6,110.4L34.6,110.4L36.0,110.7L38.8,110.8L44.6,110.6L48.8,110.2L51.4,109.5L53.0,109.3L58.5,107.5L59.6,106.8L62.0,105.9L63.5,105.0L64.1,104.8L67.4,102.7L71.3,99.3L73.0,97.6L75.7,94.4L76.8,92.9L77.4,91.8L78.7,88.9L79.5,86.1L79.6,85.1L79.9,84.0L80.0,82.6L80.3,81.3L80.3,80.2L80.6,78.7L80.6,77.2L80.8,75.7L80.9,59.9L80.7,56.3L81.0,37.7L81.6,32.7L82.0,31.4L82.6,30.0L82.8,29.2L83.4,28.4L84.1,26.7L85.6,24.7L86.8,23.5L89.4,21.9L92.3,20.8L96.0,20.0L100.8,20.0L103.0,20.3L103.4,20.5L103.5,20.8L103.3,21.0L102.0,20.8L98.4,20.8L95.5,21.4L94.0,22.0L93.2,22.2L91.4,23.0L90.6,23.6L88.0,26.1L87.2,27.2L86.2,29.4L85.9,30.6L85.7,31.2L85.4,33.3L85.2,33.7L85.0,35.4L84.9,39.7L84.7,41.0L84.7,116.6L84.8,118.1L85.2,118.5L88.0,118.5L88.4,117.7L88.6,116.7L89.0,116.2L89.2,115.5L90.0,114.4L90.9,113.6L94.0,111.5L96.8,110.2L97.0,110.0L98.5,109.3L99.7,108.6L100.5,108.4L103.4,106.8L104.9,106.3L105.4,105.9L105.9,105.7L106.8,105.0L107.5,104.7L109.0,103.7L111.4,101.7L112.7,100.2L113.4,99.1L114.2,98.1L114.9,96.8L115.3,96.3L115.6,95.4L116.3,94.2L117.0,91.5L117.3,88.7L117.5,88.0L117.5,81.7L117.6,79.3L117.7,72.4L117.9,68.9L117.9,64.1L117.6,63.5L114.3,63.5L113.9,64.0L113.8,70.7L113.4,72.8L112.7,75.1L111.1,77.6L109.1,79.7L106.5,81.6L104.4,82.7L103.7,82.9L101.7,83.9L101.5,83.9L100.9,84.3L100.5,84.4L99.7,84.8L98.1,85.5L95.5,87.1L94.2,88.2L92.5,89.7L91.3,91.2L89.9,93.3L89.3,94.6L88.7,96.2L88.3,96.2L88.2,94.6L88.3,84.8L88.3,69.2L88.2,50.6L88.3,43.4L88.4,42.5L88.9,42.4L89.1,42.6L89.3,43.1L91.3,45.6L94.0,48.2L95.5,49.1L97.5,50.1L98.5,50.5L102.2,51.3L105.5,51.4L109.0,50.8L109.5,50.5L110.2,50.4L110.7,50.0L111.3,49.9L112.5,49.4L114.8,47.7L116.8,45.5L118.3,42.7L118.5,41.5L118.8,40.5L119.0,37.7L118.7,35.1L117.9,31.8L116.3,28.6L115.7,27.7L113.8,25.5L112.0,24.2L111.8,23.9L108.9,22.1L108.2,21.5L105.7,20.2L104.9,20.1L104.1,19.6L103.7,19.6L100.8,18.6L96.8,17.7L95.5,17.6L94.5,17.3L91.8,16.9L83.5,17.1L80.8,17.6L78.6,17.8L74.5,18.7L72.8,19.3L72.5,19.3L70.8,19.9L69.4,20.5L68.6,20.7L67.7,21.3L66.3,21.8L65.8,22.2L62.6,23.8L59.7,25.8L56.5,28.7L53.3,32.4L51.9,34.6L50.8,36.5L50.7,37.0L49.7,39.1L49.5,40.0L49.3,40.5L49.0,41.7L48.6,42.5L48.2,44.3L47.7,48.6L47.5,52.3L47.3,89.1L47.0,92.6L46.6,95.2L45.4,98.8L44.4,100.7L43.5,101.9L41.5,104.1L40.2,105.1L37.8,106.5L36.3,107.0L35.9,107.0L34.3,107.5L31.1,107.8L26.8,107.6L24.0,106.8L23.6,106.6L23.2,106.6L22.6,106.2L21.6,106.0L21.1,105.7L20.3,105.1L20.4,104.8L21.4,104.9L22.2,105.4L22.6,105.4L24.1,105.9L27.5,106.5L30.7,106.5L34.2,105.7L36.8,104.5L38.3,103.5L40.3,101.7L40.8,100.7L41.2,100.2L42.3,97.6L43.1,94.4L43.3,77.3L43.2,60.0L43.4,44.5L43.3,35.8L43.7,10.4L43.5,9.8L43.3,9.7Z M104.7,20.9L105.7,21.1L106.0,21.4L105.9,21.6L105.4,21.6L104.6,21.2Z" fill="#000" fill-rule="evenodd"/>
</svg>