<svg xmlns="http://www.w3.org/2000/svg" viewBox="0 0 128 128" width="128" height="128">
  <path d="M75.7,29.5L75.6,29.7L76.6,30.7L81.6,35.4L82.7,36.6L84.6,38.3L90.7,44.3L91.9,45.6L92.5,47.1L92.5,48.8L92.2,49.3L92.2,49.6L91.3,51.1L86.5,56.0L84.7,57.6L83.9,58.5L79.0,63.3L77.1,65.6L76.2,67.4L75.1,70.6L75.1,71.6L74.9,72.4L75.0,74.0L75.2,75.4L75.5,75.8L75.7,76.9L76.1,77.5L76.3,78.2L77.2,79.8L79.4,82.5L84.5,87.9L84.7,88.3L90.0,94.0L90.2,94.4L92.0,96.2L92.2,96.5L92.5,96.8L93.5,98.0L94.6,99.0L112.5,99.1L119.0,98.8L119.1,98.7L119.1,98.4L118.6,97.7L111.6,90.6L111.0,89.9L107.9,86.8L105.6,84.3L103.9,82.7L102.4,80.9L100.7,79.3L99.4,77.7L98.8,76.7L98.3,75.1L98.3,73.2L98.4,72.5L99.2,70.8L99.8,69.9L101.4,68.0L110.2,59.4L112.1,57.3L113.0,56.6L114.3,55.1L114.4,54.8L115.6,53.2L115.9,52.5L116.5,50.8L116.5,48.0L116.2,46.4L115.8,45.8L115.6,45.2L114.8,43.7L113.6,42.3L110.3,39.0L108.5,37.1L108.1,36.9L102.4,31.2L101.9,30.8L101.2,30.0L100.5,29.5L94.3,29.5L89.4,29.3L76.2,29.3Z M94.2,94.1L94.4,94.3L94.1,94.2Z M55.5,29.2L55.3,29.2L55.0,29.7L54.9,35.2L54.8,66.4L54.6,73.4L54.7,98.6L54.9,98.9L55.5,99.1L73.9,99.0L74.2,98.8L74.3,98.5L74.4,72.6L74.3,62.0L74.5,38.3L74.4,29.7L74.1,29.4L73.4,29.2L62.8,29.1Z M53.7,29.3L51.8,29.2L42.0,29.1L28.8,29.2L27.3,30.4L17.5,39.7L17.0,40.0L14.8,42.3L13.4,44.1L13.0,45.0L12.5,46.4L12.3,48.3L12.3,49.3L12.5,50.6L13.0,52.0L13.8,53.5L15.2,55.4L29.1,69.5L30.4,71.8L30.7,73.2L30.7,74.4L30.3,76.0L29.3,77.6L28.7,78.5L11.5,95.7L9.1,98.2L9.1,98.8L14.7,98.9L34.1,98.9L34.4,98.8L35.9,97.2L37.7,95.1L40.0,92.7L49.2,82.5L49.8,82.0L49.9,81.8L50.8,80.9L52.1,79.1L53.1,77.2L53.7,75.7L53.7,75.3L53.9,74.8L53.9,73.9L54.0,73.2L54.0,70.7L53.7,69.4L53.1,68.0L53.0,67.5L51.4,64.8L50.1,63.3L38.2,51.2L36.9,49.3L36.7,48.2L36.7,47.2L36.9,46.2L37.7,44.9L38.5,44.0L41.3,41.2L41.7,41.0L42.5,40.1L44.6,38.3L45.3,37.5L45.7,37.3L48.0,35.0L48.3,34.9L49.0,34.1L50.1,33.2L53.8,29.5Z" fill="#000" fill-rule="evenodd"/>
</svg>