<svg xmlns="http://www.w3.org/2000/svg" viewBox="0 0 128 128" width="128" height="128">
  <path d="M117.8,44.1L116.1,40.9L115.5,40.2L115.2,39.6L114.5,38.8L111.8,36.2L110.8,35.6L110.2,35.2L108.4,34.2L105.4,33.0L101.6,32.4L97.9,32.4L97.0,32.8L95.7,32.7L92.4,33.9L89.6,35.3L87.5,36.8L86.2,38.1L84.1,40.7L82.4,44.1L81.9,45.7L81.7,46.7L81.5,47.0L81.2,47.1L80.8,46.7L80.4,45.3L79.6,43.4L78.5,41.3L76.1,38.1L75.1,37.1L74.8,37.0L73.8,36.2L71.8,34.8L70.6,34.3L69.9,33.9L66.0,32.7L64.5,32.5L60.7,32.6L59.6,33.0L58.7,33.0L57.1,33.5L54.7,34.5L53.1,35.3L51.4,36.5L49.0,38.8L47.3,41.0L46.2,43.0L45.7,44.5L45.5,44.7L45.0,46.4L44.8,47.4L44.6,47.7L44.4,47.7L43.9,47.1L43.5,45.7L42.7,44.0L42.4,43.0L41.8,42.1L41.1,41.3L40.7,40.7L40.0,39.7L37.2,37.0L36.3,36.3L34.3,35.1L32.3,34.3L31.6,34.3L30.4,33.9L27.7,33.4L24.8,33.4L23.6,33.7L22.4,33.9L20.9,34.3L18.7,35.3L16.6,36.6L15.8,37.2L13.4,39.5L11.9,41.6L10.9,43.4L9.5,47.6L9.4,49.4L9.1,50.6L9.1,52.1L9.4,53.2L9.5,54.4L9.9,56.4L10.9,59.1L13.0,62.5L14.8,64.5L17.8,66.9L19.2,67.6L19.5,67.9L21.7,68.8L23.2,69.2L26.2,69.7L27.7,69.7L28.9,69.9L30.6,70.5L32.1,71.6L33.3,72.7L34.0,73.7L34.6,75.0L34.9,75.9L35.0,76.0L35.2,76.9L35.1,79.6L34.7,80.5L34.6,80.9L34.0,82.1L32.8,83.4L32.5,83.6L31.8,84.3L30.0,85.0L29.1,85.2L28.4,85.5L27.2,85.7L26.5,86.0L25.1,86.2L24.6,85.7L24.6,85.0L24.4,84.5L22.8,83.5L21.5,82.2L20.3,79.8L20.1,78.3L19.9,77.9L19.5,77.6L10.9,77.6L10.6,77.7L10.4,77.9L10.3,78.6L10.5,79.0L10.5,79.9L11.2,83.0L12.0,84.8L13.8,87.7L15.1,89.4L17.2,91.4L18.8,92.6L21.1,93.9L23.5,94.8L26.7,95.4L30.3,95.4L33.0,95.0L35.6,94.0L38.1,92.5L41.1,89.8L42.5,87.9L43.8,85.5L44.4,83.5L44.8,82.6L44.9,82.1L45.0,81.8L45.4,81.5L45.6,81.5L45.9,81.9L46.9,84.9L48.0,86.8L49.4,88.8L51.3,90.9L53.1,92.4L55.9,94.0L58.2,95.0L59.8,95.4L63.5,95.9L66.1,95.8L66.7,95.6L68.1,95.4L70.2,94.7L70.5,94.7L71.2,94.3L72.1,94.0L73.4,93.3L74.9,92.3L77.5,89.8L77.8,89.3L78.9,87.9L79.8,86.4L80.9,83.9L81.3,82.3L81.6,81.6L81.8,81.4L82.0,81.4L82.3,81.8L82.6,83.0L83.8,85.5L85.0,87.5L86.3,89.1L88.0,90.9L89.7,92.2L91.4,93.3L94.6,94.7L96.2,95.1L98.7,95.6L102.8,95.7L105.5,95.2L107.5,94.6L110.0,93.4L110.8,92.8L112.1,91.8L112.5,91.6L114.9,89.2L116.2,87.6L117.4,85.5L118.4,82.8L118.7,81.5L118.9,79.9L119.1,79.0L119.1,63.5L119.0,61.4L118.8,60.1L118.7,57.5L118.5,55.5L118.3,46.3L118.2,45.3Z M20.5,46.9L21.6,45.7L23.4,44.6L24.7,44.0L25.2,44.0L28.3,42.9L29.0,42.8L29.5,43.0L29.6,43.3L29.8,44.4L30.1,44.7L31.6,45.9L33.1,47.7L33.7,49.0L34.2,50.7L34.5,51.3L35.3,51.4L43.6,51.4L44.0,51.6L44.4,52.2L44.7,54.6L45.4,57.0L45.7,57.8L45.8,58.3L46.7,60.0L48.2,62.5L49.7,64.1L50.9,65.2L52.5,66.5L52.7,66.5L53.1,66.9L55.8,68.3L57.6,68.9L61.1,69.7L64.3,69.8L66.3,70.3L67.2,70.8L67.5,71.1L68.2,71.5L69.9,73.2L70.8,74.8L71.3,76.9L71.3,78.3L71.0,80.1L70.6,81.1L70.0,82.2L68.6,83.6L67.9,84.3L67.0,84.7L66.0,85.1L63.9,85.6L62.5,86.1L62.2,86.1L61.5,86.4L60.5,86.4L60.2,86.0L60.2,85.3L59.9,84.6L58.2,83.3L57.6,82.7L56.5,81.1L55.8,79.5L55.6,78.1L55.2,77.7L46.5,77.7L45.8,77.6L45.4,77.0L45.4,75.6L45.1,74.9L45.1,74.5L44.7,72.6L44.1,71.1L43.4,69.6L42.9,69.0L42.0,67.3L41.5,66.5L40.4,65.3L39.0,63.9L37.3,62.7L36.7,62.5L35.1,61.4L33.0,60.5L31.9,60.2L31.3,59.9L29.7,59.6L26.7,59.5L24.2,58.9L22.2,57.8L20.7,56.2L19.8,54.6L19.2,53.1L19.1,52.1L19.2,50.3L19.4,49.3Z M107.5,81.4L106.9,82.2L105.3,83.8L104.6,84.2L104.2,84.6L104.0,85.1L104.0,86.1L103.7,86.3L102.8,86.3L99.0,85.0L97.9,84.8L95.9,83.8L94.2,82.3L92.9,80.0L92.5,78.4L92.5,76.0L93.0,74.2L94.0,72.5L95.0,71.6L96.5,70.5L97.7,69.9L99.8,69.5L100.1,69.2L100.1,59.7L100.0,59.2L99.4,58.8L98.9,58.8L97.7,59.1L94.7,59.6L94.0,60.0L93.5,60.1L92.7,60.5L91.1,61.2L88.0,63.3L86.2,65.2L84.5,67.4L83.7,68.7L83.0,70.4L82.3,72.4L82.1,73.2L81.8,73.6L81.6,73.6L81.3,73.2L80.3,70.5L79.1,68.3L78.4,67.3L75.9,64.7L73.2,62.3L71.8,61.4L70.5,60.8L68.5,60.3L67.9,60.0L66.5,59.8L65.8,59.6L64.5,59.5L63.5,59.3L62.5,59.3L60.6,59.0L58.9,58.3L57.8,57.5L56.4,56.1L56.0,55.4L55.9,55.0L55.2,53.8L54.9,52.4L54.9,49.9L55.1,49.2L55.8,47.4L56.5,46.4L57.7,45.3L58.9,44.4L60.6,43.7L62.5,43.2L63.2,42.9L63.8,42.8L64.5,42.5L65.6,42.4L65.9,42.9L66.0,43.7L66.2,44.1L66.5,44.5L67.9,45.4L68.6,46.1L69.6,47.6L70.4,49.5L70.6,50.7L70.9,50.9L71.6,51.1L90.7,51.0L91.5,50.8L91.8,50.5L92.3,48.2L93.1,46.5L95.2,44.4L97.0,43.4L98.1,43.0L100.2,42.4L101.3,41.8L103.1,41.8L103.4,42.1L103.6,43.3L103.8,43.6L105.6,45.0L106.3,45.7L107.0,46.7L107.8,48.6L108.1,50.1L108.4,66.6L108.4,77.6L108.2,79.3Z" fill="#000" fill-rule="evenodd"/>
</svg>