<svg xmlns="http://www.w3.org/2000/svg" viewBox="0 0 128 128" width="128" height="128">
  <path d="M104.5,9.5L103.5,9.7L103.3,10.1L103.3,33.1L103.6,51.7L103.4,70.3L103.6,76.1L103.5,85.7L103.7,92.3L103.7,117.4L103.9,118.0L104.4,118.3L116.8,118.4L117.3,118.3L117.6,117.9L117.7,113.9L117.7,78.6L117.6,70.0L117.7,64.3L117.7,35.9L117.6,33.3L117.6,10.0L117.3,9.6L116.7,9.5Z M87.3,9.6L87.0,9.9L86.9,18.3L87.0,37.2L87.5,37.8L89.5,38.1L97.9,38.3L100.5,38.2L101.0,37.8L100.8,12.6L100.6,11.9L100.6,10.1L100.2,9.6L98.4,9.5L92.3,9.5Z M48.8,9.6L48.4,9.9L48.2,27.1L48.4,29.3L48.4,39.2L48.2,40.0L47.3,41.3L39.6,49.0L38.9,50.0L38.0,50.7L37.8,51.1L34.2,54.7L33.0,56.0L23.2,65.9L21.6,67.8L14.9,74.6L14.6,75.0L11.8,77.8L10.5,79.3L10.6,80.2L18.0,87.8L20.1,90.1L22.9,92.8L24.8,95.0L27.0,97.1L28.1,98.4L29.5,99.7L31.6,102.0L31.9,102.5L34.2,104.8L34.4,105.2L34.0,105.5L12.7,105.5L11.3,105.7L11.0,106.1L10.9,108.4L11.0,118.2L11.3,118.5L11.9,118.7L60.0,118.7L60.6,118.9L62.0,118.8L62.4,118.4L62.5,116.7L62.3,94.3L62.9,94.2L64.2,95.2L65.4,96.6L71.3,102.5L73.7,105.0L86.6,117.9L87.7,118.2L92.1,118.2L94.1,118.4L100.6,118.3L101.1,117.8L101.2,114.7L101.0,98.8L101.0,41.2L100.8,40.8L100.3,40.6L98.0,40.6L96.4,40.4L87.4,40.2L86.7,40.5L83.2,44.3L75.3,52.1L74.2,53.4L66.9,60.6L66.0,61.7L63.1,64.5L62.7,64.5L62.3,64.0L62.5,61.6L62.3,47.9L62.4,39.9L62.2,28.6L62.2,15.2L62.0,9.8L61.7,9.6L61.1,9.5Z M47.8,60.8L48.1,60.8L48.3,61.0L48.4,62.0L48.5,98.6L48.3,99.1L47.8,98.9L43.8,94.7L41.6,92.6L40.9,91.7L29.6,80.4L29.7,80.0L34.1,75.4L35.1,74.3L35.2,74.0L36.6,72.7L38.0,70.9L40.8,68.1L42.0,66.7L42.9,65.8L46.1,62.3Z M86.5,60.1L87.1,60.2L87.3,97.8L87.2,98.7L86.9,99.1L86.5,99.1L85.9,98.6L85.7,98.0L83.6,95.7L82.3,94.5L77.7,89.7L70.3,82.2L69.1,81.2L69.0,80.9L68.0,79.9L68.0,79.5L69.4,77.9L77.9,69.2L79.0,67.8L80.8,66.0L81.0,65.6Z" fill="#000" fill-rule="evenodd"/>
</svg>