<svg xmlns="http://www.w3.org/2000/svg" viewBox="0 0 128 128" width="128" height="128">
  <path d="M14.6,13.2L12.3,15.7L11.2,17.6L10.6,19.2L10.1,22.0L9.9,35.2L10.0,36.8L9.8,42.0L9.9,47.2L9.7,53.3L9.8,56.9L10.3,57.9L11.6,59.5L11.9,60.1L14.1,62.8L14.4,63.3L14.8,63.6L17.4,67.3L19.1,69.2L20.3,71.0L20.2,71.7L18.1,71.9L10.3,71.9L9.7,72.3L9.6,79.5L9.6,81.6L9.5,88.0L9.6,93.4L9.4,105.3L9.6,107.3L10.2,109.7L11.0,111.4L12.7,113.9L14.1,115.3L15.0,115.8L15.4,116.2L16.4,116.8L16.7,116.8L17.4,117.3L18.2,117.5L18.6,117.7L19.7,117.9L20.3,118.2L21.7,118.4L24.4,118.4L25.6,118.2L27.6,117.7L29.7,116.7L31.2,115.7L33.1,114.0L33.9,113.1L35.2,111.1L36.0,109.6L36.4,108.1L37.1,107.4L37.4,107.5L37.7,109.0L39.2,111.9L40.4,113.4L42.5,115.5L44.5,116.7L47.0,117.7L49.1,118.2L52.0,118.2L54.1,117.8L55.7,117.4L57.7,116.3L59.4,115.2L61.2,113.3L62.3,112.0L63.9,108.9L64.3,107.3L64.8,106.8L65.0,107.0L65.5,109.0L66.5,111.0L68.4,113.5L70.5,115.5L72.9,116.8L75.4,117.7L76.6,117.8L80.2,117.8L82.8,117.2L84.8,116.2L87.0,114.7L88.7,113.1L90.1,111.0L91.0,109.0L91.8,106.8L91.9,106.0L92.2,105.8L92.5,106.2L92.6,107.5L93.4,109.7L94.2,111.3L95.4,112.9L95.4,113.1L97.6,115.0L99.5,116.2L100.8,116.8L103.5,117.6L107.9,117.6L109.9,117.0L111.7,116.2L112.8,115.6L114.9,113.9L116.4,112.2L117.2,110.8L118.3,108.3L118.8,105.7L118.8,94.1L118.5,74.9L118.0,73.6L113.9,68.5L113.6,67.9L112.5,66.8L112.3,66.2L110.5,64.1L110.5,63.9L108.9,61.9L107.6,60.0L106.4,58.7L104.7,56.3L104.1,55.8L102.6,53.7L102.2,53.0L102.1,49.1L102.2,44.8L102.3,44.1L102.3,43.5L102.1,42.6L102.1,23.4L102.2,22.6L102.7,21.9L103.4,21.2L104.1,20.8L105.6,20.8L106.5,21.2L107.4,22.1L107.9,23.3L107.9,50.2L108.0,57.2L108.1,59.5L108.5,59.9L109.0,60.0L118.0,59.9L118.4,59.3L118.4,58.9L118.4,23.2L118.2,21.4L117.4,18.7L116.2,16.4L115.2,15.1L113.9,13.8L112.5,12.7L110.7,11.8L108.7,11.0L106.2,10.5L103.9,10.5L101.2,11.1L99.5,11.7L98.0,12.4L95.9,14.1L94.6,15.4L93.6,16.5L93.0,17.7L92.2,19.5L91.5,22.1L91.2,22.0L91.1,21.2L90.5,19.1L89.4,17.0L88.2,15.3L86.8,13.9L85.3,12.7L83.8,11.8L80.7,10.8L78.7,10.5L76.9,10.5L73.4,11.3L72.1,11.8L69.5,13.5L67.5,15.5L66.4,17.1L65.5,19.1L65.0,20.6L64.9,22.4L64.4,23.5L64.1,21.3L63.5,19.0L62.5,16.9L61.0,14.8L58.8,12.9L57.1,11.8L54.7,10.8L52.7,10.3L49.3,10.3L46.9,10.7L44.5,11.8L42.4,13.1L40.7,14.7L39.2,16.6L38.1,19.1L37.8,20.3L37.4,20.9L37.1,20.8L36.9,20.6L36.4,18.7L35.4,16.5L34.0,14.6L32.1,12.8L30.8,11.8L27.6,10.3L24.3,9.9L22.2,9.9L20.8,10.1L17.4,11.3L15.9,12.1Z M48.8,72.1L50.8,74.5L51.9,76.1L53.5,78.0L53.8,78.9L53.9,79.6L53.8,105.0L53.5,105.9L52.4,107.0L51.6,107.4L50.3,107.4L49.2,106.8L48.4,105.9L47.9,104.5L48.0,72.4L48.1,72.2Z M20.6,72.1L21.1,72.1L22.3,73.4L25.9,78.2L26.3,79.1L26.4,91.3L26.2,105.4L25.8,106.4L25.2,107.1L23.9,107.7L22.6,107.7L21.7,107.4L20.6,106.2L20.1,104.8L20.3,89.8L20.3,72.7Z M54.0,59.8L63.5,59.7L64.1,59.0L64.2,57.8L64.4,57.3L64.6,57.1L64.9,57.2L65.0,57.6L65.8,58.9L67.2,60.5L68.4,62.2L69.9,64.1L70.6,65.1L71.2,65.7L71.5,66.4L72.1,67.0L72.8,68.0L73.5,68.8L74.9,70.6L75.4,71.6L79.3,76.3L80.7,78.2L81.2,79.5L81.1,82.1L81.3,104.4L80.8,105.7L79.8,106.7L78.6,107.1L77.8,107.1L77.1,106.8L76.5,106.4L75.8,105.6L75.4,104.5L75.4,93.9L75.2,83.6L75.3,81.6L75.1,75.6L75.3,73.2L74.9,72.1L74.2,71.8L66.1,71.9L65.3,72.5L65.0,75.1L64.6,75.6L64.1,73.8L61.2,70.2L59.4,67.6L58.0,66.0L56.6,64.0L54.3,61.0L53.8,60.3L53.8,60.0Z M64.5,51.3L64.9,51.5L64.9,52.3L64.5,52.4Z M64.4,43.7L64.7,43.8L64.4,44.4L64.2,43.9Z M91.7,33.9L91.7,35.2L91.4,35.1L91.3,34.8L91.3,33.9Z M91.6,28.9L91.7,29.2L91.5,29.5L91.3,29.4Z M91.5,23.0L91.6,23.5L91.3,24.9L91.2,24.6Z M76.8,21.0L78.5,20.9L79.2,21.2L80.3,22.3L80.7,23.2L80.8,23.8L80.8,56.1L80.9,58.9L81.1,59.4L81.5,59.7L82.2,59.9L90.2,59.9L90.7,59.7L91.1,59.3L91.4,57.4L91.6,57.1L91.9,57.2L92.0,57.8L94.5,61.1L95.2,61.8L97.0,64.3L97.6,64.8L99.5,67.6L100.2,68.2L102.7,71.8L104.2,73.5L105.2,75.0L107.3,77.5L108.0,78.5L108.1,79.1L108.4,104.3L108.0,105.8L107.1,106.7L106.7,106.9L105.5,107.1L104.4,106.8L102.8,105.5L102.6,105.0L102.7,100.9L102.5,94.1L102.6,89.9L102.3,73.3L102.1,72.3L101.5,72.0L93.0,72.0L92.6,72.1L92.2,72.7L92.0,74.8L91.8,75.0L91.5,74.8L91.0,73.7L89.7,72.2L89.4,71.7L87.5,69.4L87.1,68.6L84.2,65.0L83.9,64.5L83.4,64.1L83.0,63.3L81.6,61.6L80.7,60.3L77.2,55.9L77.1,55.5L76.5,54.9L75.2,53.0L75.0,49.1L75.0,24.2L75.3,22.5L75.7,22.0Z M50.5,20.4L51.5,20.5L52.4,20.8L53.4,21.8L53.8,23.0L53.9,57.5L53.8,59.0L53.7,59.6L53.4,59.6L52.4,58.7L49.3,54.7L48.0,52.8L47.9,22.9L48.1,22.1L48.6,21.4L49.5,20.6Z M23.1,20.0L24.4,20.1L25.6,20.7L26.4,22.1L26.7,23.4L26.4,59.1L26.9,59.6L35.7,59.6L36.2,59.4L36.6,59.0L36.9,58.0L36.9,57.0L37.0,56.6L37.3,56.4L38.1,58.1L40.3,60.7L43.4,64.9L44.7,66.4L46.4,68.7L46.8,69.5L47.4,70.1L47.9,71.1L47.9,71.3L47.6,71.7L46.2,71.9L38.3,72.0L37.8,72.3L37.5,74.0L37.2,74.4L37.0,74.4L34.6,71.1L33.0,69.2L32.6,68.6L32.0,68.0L30.9,66.3L27.3,61.9L26.1,60.0L24.3,57.9L24.0,57.4L21.7,54.5L20.6,52.8L20.4,47.0L20.6,22.9L21.0,21.4L21.9,20.5Z" fill="#000" fill-rule="evenodd"/>
</svg>