<svg xmlns="http://www.w3.org/2000/svg" viewBox="0 0 128 128" width="128" height="128">
  <path d="M98.7,38.4L95.6,38.3L91.3,38.5L72.3,38.7L65.0,39.0L57.0,39.0L54.0,39.1L48.6,39.1L47.1,39.3L31.1,39.3L29.9,39.4L29.5,39.7L29.4,45.3L29.5,48.3L29.6,55.8L29.8,56.8L29.9,56.9L30.4,57.1L55.3,56.9L55.9,57.3L56.1,65.2L56.2,66.2L56.2,71.5L56.4,73.9L56.3,75.6L56.5,81.0L56.5,89.8L56.7,97.3L56.6,99.0L56.8,99.5L57.2,99.8L57.8,99.8L63.9,99.8L64.8,99.6L67.0,99.7L73.7,99.4L74.0,99.0L74.1,95.9L74.0,76.7L73.7,67.6L73.8,65.3L73.6,63.0L73.6,57.5L73.8,56.9L74.1,56.6L74.6,56.5L92.4,56.3L94.2,56.1L98.4,56.1L99.0,55.9L99.1,55.3L99.1,44.2L99.0,43.7L99.0,38.8Z M61.5,9.1L60.8,9.3L59.8,9.3L57.1,9.7L56.4,9.7L51.9,10.6L46.4,12.3L45.7,12.6L45.3,12.7L44.9,12.9L44.4,13.0L43.8,13.4L43.3,13.5L42.8,13.8L42.0,14.0L35.7,17.4L34.9,18.0L34.1,18.4L33.3,19.1L33.0,19.2L32.4,19.8L31.6,20.2L31.3,20.6L30.7,20.9L28.6,22.8L28.4,22.8L24.5,26.5L20.8,31.0L17.7,35.5L17.4,36.1L16.8,37.1L15.4,39.8L14.9,41.1L14.5,41.8L13.9,43.6L13.6,44.0L13.0,46.0L12.7,46.5L12.6,47.3L12.3,47.9L12.0,49.1L11.4,50.7L11.2,52.4L10.8,53.7L10.7,55.0L10.4,56.1L10.0,60.7L9.9,67.1L10.3,70.2L10.5,72.7L10.7,73.4L10.9,75.0L11.3,76.8L11.6,77.3L11.8,78.9L12.0,79.3L12.2,80.2L12.5,80.8L13.2,83.1L13.9,84.8L14.4,86.2L14.7,86.7L14.9,87.3L15.3,87.9L15.3,88.3L15.7,88.7L16.3,90.2L16.5,90.5L16.7,91.1L17.0,91.3L18.1,93.4L20.0,96.3L21.7,98.5L22.7,99.6L23.0,100.2L28.0,105.2L30.2,107.1L32.5,108.9L34.9,110.5L36.9,111.5L37.1,111.8L37.4,111.9L37.9,112.3L38.6,112.5L39.0,112.8L43.1,114.8L45.3,115.5L46.2,116.0L48.3,116.5L49.6,117.0L50.3,117.1L50.7,117.3L56.8,118.6L59.0,118.8L60.3,119.0L66.5,119.1L70.7,118.7L71.9,118.4L75.0,117.9L76.9,117.4L77.3,117.2L79.0,116.9L79.7,116.4L81.5,116.0L82.3,115.6L82.8,115.5L84.4,114.7L86.1,114.1L87.2,113.5L87.9,113.2L88.2,112.9L88.9,112.7L89.8,112.1L90.6,111.9L91.1,111.5L92.0,111.0L92.1,110.8L92.6,110.6L93.6,109.8L94.1,109.7L95.0,109.0L96.0,108.4L100.0,105.2L101.6,103.5L102.0,103.3L104.0,101.3L106.3,98.6L107.2,97.3L107.9,96.5L108.5,95.4L108.9,95.1L110.6,92.5L113.0,88.1L113.3,87.1L114.3,85.2L114.8,83.6L115.2,82.9L115.2,82.3L115.8,80.7L116.0,80.5L116.0,79.8L116.5,78.4L116.7,77.3L117.0,76.5L117.1,75.6L117.4,74.6L117.5,73.6L117.8,72.3L118.2,67.8L118.4,63.0L117.8,56.7L117.6,55.9L117.6,55.3L116.9,51.9L116.6,51.1L116.4,49.9L115.2,46.3L115.2,45.7L114.9,45.4L113.5,41.5L110.8,36.3L108.1,32.0L105.7,29.0L105.0,28.2L104.0,26.9L100.7,23.6L97.8,20.9L94.4,18.2L90.2,15.6L85.2,13.2L79.8,11.2L74.8,10.0L69.7,9.3L68.5,9.3L67.7,9.1L66.1,9.1Z M62.5,14.7L69.4,14.9L71.0,15.2L72.7,15.3L73.9,15.7L75.3,15.8L76.1,16.1L77.7,16.5L81.4,17.7L84.8,19.1L89.4,21.6L91.6,23.2L92.4,23.6L94.0,24.9L97.7,28.2L101.0,31.8L101.1,32.2L102.2,33.4L104.3,36.4L104.8,37.5L105.9,39.0L108.0,43.0L108.0,43.2L108.4,43.8L108.5,44.4L109.3,45.9L109.9,48.1L110.2,48.7L110.3,49.4L111.0,51.5L111.2,52.8L111.5,53.6L111.6,54.5L112.0,56.1L112.5,59.5L112.7,63.6L112.7,67.5L112.1,72.5L111.7,74.0L111.7,74.5L111.2,76.5L109.9,80.8L109.5,81.5L109.4,82.0L107.3,86.9L104.8,91.1L103.0,93.7L101.8,95.1L101.5,95.6L98.2,99.2L95.6,101.6L90.8,105.2L89.8,105.7L89.5,106.0L89.0,106.2L88.7,106.5L88.1,106.8L87.2,107.4L86.5,107.7L86.3,107.9L85.7,108.1L85.5,108.3L84.4,108.9L83.7,109.0L81.6,110.1L80.9,110.2L77.5,111.6L77.2,111.6L75.8,112.1L71.5,113.1L66.8,113.6L61.3,113.6L59.0,113.3L57.5,113.2L56.7,113.0L54.5,112.7L53.2,112.3L53.0,112.2L51.6,111.9L46.1,110.1L44.1,109.1L43.2,108.8L42.6,108.4L41.5,107.9L39.1,106.6L37.9,105.7L37.4,105.6L35.0,103.7L33.6,102.8L31.4,100.7L30.3,99.9L27.4,96.9L24.4,93.0L24.0,92.3L23.5,91.7L23.3,91.2L22.5,90.2L21.7,88.8L21.4,88.0L21.1,87.7L20.7,86.8L20.3,86.2L19.7,84.5L19.0,83.1L18.8,82.4L18.1,80.9L17.5,78.8L17.1,78.2L17.1,77.6L16.8,76.8L16.6,75.4L16.3,74.6L16.1,73.2L15.9,72.5L15.3,66.8L15.3,63.2L15.4,60.1L15.7,58.4L15.8,56.8L16.8,51.9L17.1,51.1L17.7,48.9L17.9,48.6L18.3,47.3L18.5,46.5L18.8,45.9L19.0,45.3L19.3,44.8L19.5,44.1L19.7,43.8L19.9,43.2L22.2,38.8L25.2,34.4L28.0,31.0L30.8,28.2L34.3,25.2L35.1,24.7L36.4,23.6L38.2,22.4L38.6,22.4L39.6,21.5L40.4,21.2L41.1,20.7L42.8,19.9L43.6,19.6L43.8,19.4L44.2,19.3L45.9,18.4L47.7,17.8L48.0,17.6L48.9,17.4L49.4,17.1L50.3,17.0L50.9,16.6L51.9,16.5L52.7,16.1L57.6,15.2L60.3,14.9L61.9,14.9Z" fill="#000" fill-rule="evenodd"/>
</svg>