<svg xmlns="http://www.w3.org/2000/svg" viewBox="0 0 128 128" width="128" height="128">
  <path d="M65.6,12.9L65.4,13.0L65.3,13.2L65.1,35.5L65.0,40.8L65.1,45.8L64.9,52.1L64.9,63.7L65.2,64.7L67.1,68.2L67.1,68.4L70.5,75.2L70.5,75.5L78.4,91.4L79.9,94.6L80.2,95.0L80.3,95.5L81.3,97.4L82.0,99.0L82.4,99.5L83.2,101.2L83.3,101.6L84.5,103.9L85.5,106.1L87.8,110.6L88.7,112.6L89.6,114.1L89.8,114.9L90.2,115.5L90.4,115.5L90.7,115.2L91.0,86.0L90.9,77.5L91.0,65.5L90.9,64.7L88.8,60.4L88.0,58.6L87.6,58.0L87.1,56.7L86.7,56.3L85.7,53.9L85.1,52.8L84.1,50.5L83.3,49.2L82.8,47.9L82.4,47.4L82.4,47.0L81.1,44.6L80.6,43.5L78.9,40.2L77.0,35.9L73.7,29.4L73.6,29.0L72.3,26.6L72.3,26.2L71.3,24.4L70.9,23.9L70.5,22.6L68.9,19.5L68.8,19.1L68.4,18.6L68.0,17.4L66.8,15.2L65.9,13.2Z M63.4,12.8L63.0,13.1L62.6,13.7L62.6,14.1L62.3,14.3L60.2,18.6L58.1,22.6L56.6,25.7L55.9,26.9L55.3,28.3L55.0,28.7L53.5,31.9L53.2,32.1L51.3,36.2L51.0,36.4L50.8,37.1L50.4,37.7L49.9,38.6L49.9,38.8L49.3,39.9L49.1,40.6L48.9,40.8L48.6,41.5L48.4,41.7L47.8,43.1L47.3,43.8L46.5,45.4L46.4,45.8L45.6,47.1L45.4,47.8L44.4,49.6L41.3,55.8L40.6,57.0L37.1,64.0L37.0,66.1L37.0,99.0L36.8,108.7L36.8,114.4L37.0,114.8L37.3,114.7L38.0,113.4L38.8,112.0L39.7,109.9L40.6,108.5L40.6,108.1L42.8,104.0L42.9,103.6L43.6,102.4L43.7,102.0L44.1,101.5L45.2,99.1L45.8,98.1L47.3,94.9L47.8,94.0L49.0,91.5L49.3,91.1L52.9,83.8L53.4,83.1L54.6,80.7L54.9,80.4L55.2,79.3L57.0,76.0L59.3,71.2L61.3,67.6L61.5,66.9L62.3,65.6L63.2,63.7L63.6,13.1Z M35.1,9.3L34.8,9.6L34.9,15.8L34.8,21.6L34.8,33.3L34.6,38.5L34.6,57.4L34.5,60.5L34.5,64.7L34.4,73.0L34.5,80.8L34.3,102.9L34.4,118.2L34.8,118.5L35.2,118.6L38.8,118.7L49.6,118.6L63.3,118.8L68.0,118.8L70.8,118.9L82.4,119.1L92.8,119.1L93.2,118.5L93.4,108.4L93.3,102.6L93.5,98.2L93.4,92.6L93.5,81.1L93.5,74.1L93.6,68.0L93.8,44.9L93.7,42.5L93.9,34.1L93.8,31.7L93.9,28.6L93.9,10.1L93.6,9.8L93.0,9.6L79.1,9.6L67.0,9.4L65.2,9.5L61.8,9.3L58.2,9.4L41.3,9.2L35.4,9.2Z M36.2,10.1L40.6,10.0L84.9,10.6L91.1,10.5L92.7,10.7L93.0,10.8L93.2,12.1L93.2,18.1L93.0,25.6L93.0,42.7L92.8,48.2L92.9,56.0L92.8,60.8L92.8,80.4L92.6,82.0L92.6,115.1L92.5,117.7L92.2,118.1L91.9,118.3L76.8,118.0L75.2,118.1L66.6,117.9L60.6,118.0L56.8,117.8L50.1,117.9L45.7,117.7L37.8,117.7L35.5,117.6L35.0,117.0L35.0,109.9L35.2,105.1L35.2,81.0L35.3,76.7L35.2,71.2L35.4,66.0L35.5,33.7L35.6,29.1L35.5,24.6L35.7,21.5L35.7,11.8L35.9,10.4Z" fill="#000" fill-rule="evenodd"/>
</svg>