<svg xmlns="http://www.w3.org/2000/svg" viewBox="0 0 128 128" width="128" height="128">
  <path d="M116.1,86.4L116.5,85.6L116.5,85.3L117.2,83.9L118.2,80.3L119.0,76.2L119.0,71.6L118.6,68.2L118.3,67.7L117.8,65.4L116.5,62.2L115.9,61.4L115.3,59.9L114.7,59.4L113.9,58.1L112.5,56.3L108.4,52.9L106.8,51.8L104.2,50.5L100.2,49.1L97.4,48.6L95.1,48.5L91.9,48.5L90.6,48.9L89.6,48.9L85.5,50.3L83.1,51.7L82.1,52.5L80.7,53.4L77.6,56.6L75.7,59.7L75.0,61.0L74.7,62.1L74.3,62.7L74.3,63.1L74.1,63.5L73.8,64.8L73.5,65.6L73.4,67.5L73.1,68.4L73.2,72.1L73.4,72.9L73.5,73.9L74.1,75.9L74.6,77.0L74.6,77.4L75.4,79.0L76.9,81.2L78.1,82.6L81.0,85.2L84.3,86.9L86.3,87.6L87.1,87.7L87.8,88.0L90.1,88.2L92.8,88.2L93.4,88.0L94.9,87.8L95.8,87.4L96.5,87.2L97.6,86.6L98.0,86.5L98.3,86.2L99.6,85.5L100.2,84.9L100.7,84.6L103.0,82.1L103.6,81.1L104.0,80.2L104.3,79.9L105.1,78.1L105.4,76.4L105.7,75.4L105.7,72.5L105.3,71.0L105.0,70.6L103.9,70.3L100.2,70.3L95.5,70.5L95.1,70.8L94.9,71.1L94.9,73.8L94.5,75.0L94.1,75.8L93.3,76.6L93.0,76.6L92.7,77.0L91.7,77.2L90.1,77.2L89.2,77.0L88.0,76.6L86.9,75.9L85.3,74.2L84.4,72.1L84.0,70.9L84.1,68.2L84.4,67.1L84.8,65.8L86.0,63.6L87.6,62.0L89.2,60.8L91.5,59.8L93.4,59.3L95.9,59.4L96.6,59.6L98.2,59.9L98.6,60.1L99.5,60.3L100.7,60.8L102.3,61.9L103.3,62.6L104.8,64.0L106.0,65.6L107.2,67.7L107.8,69.2L108.2,70.9L108.4,72.3L108.4,74.7L108.2,76.5L107.8,78.1L107.1,80.3L106.8,80.6L106.4,81.6L105.4,83.4L104.4,84.6L102.9,86.2L101.0,87.8L99.0,89.0L97.5,89.6L97.0,89.9L95.6,90.4L93.3,90.9L91.4,91.0L88.0,90.9L84.5,90.0L83.0,89.2L81.8,88.8L79.9,87.8L77.4,85.8L76.2,84.7L74.7,82.9L72.7,79.9L72.7,79.6L71.4,76.6L70.9,74.6L70.9,74.1L70.5,72.2L70.5,54.6L70.3,51.8L70.2,40.0L70.3,38.4L70.5,37.8L71.2,37.4L72.3,37.2L94.8,37.2L98.3,37.4L101.6,37.3L103.7,37.5L107.6,37.3L117.7,37.3L118.0,37.1L118.2,36.3L118.3,27.3L118.2,26.9L117.9,26.4L117.1,26.2L96.0,26.2L94.5,26.4L66.2,26.3L63.8,26.5L54.4,26.4L42.4,26.5L33.1,26.4L18.4,26.5L9.9,26.3L9.4,26.5L9.3,26.9L9.2,28.0L9.2,36.7L9.3,37.0L9.5,37.1L10.2,37.3L19.5,37.2L28.9,37.4L31.0,37.2L40.0,37.3L41.6,37.5L57.1,37.3L58.3,37.5L58.7,37.9L59.0,38.3L59.1,39.5L59.2,43.5L59.1,47.2L59.3,49.7L59.2,50.3L59.5,67.5L59.4,70.1L59.8,73.0L59.8,74.6L60.0,75.5L60.2,76.9L60.8,79.5L62.5,83.8L63.2,85.3L64.4,87.3L64.9,87.9L65.2,88.4L65.6,88.9L66.0,89.7L67.7,91.6L71.1,94.9L73.1,96.4L76.3,98.4L80.4,100.2L81.1,100.2L81.5,100.5L82.3,100.7L83.4,101.1L86.9,101.8L90.1,102.0L92.3,102.0L95.2,101.7L96.3,101.4L98.0,101.1L100.7,100.3L101.2,100.0L101.7,99.9L106.0,97.6L108.8,95.7L110.0,94.5L111.9,92.6L113.7,90.5L114.5,89.2Z" fill="#000" fill-rule="evenodd"/>
</svg>