<svg xmlns="http://www.w3.org/2000/svg" viewBox="0 0 128 128" width="128" height="128">
  <path d="M108.7,9.5L107.9,9.4L105.9,9.3L103.0,9.5L87.3,9.4L54.0,9.6L52.2,9.5L46.4,9.8L25.2,9.7L20.2,9.8L19.4,10.1L19.3,10.6L19.3,29.8L19.4,30.7L19.9,30.9L22.3,31.0L43.1,30.9L52.5,31.0L53.0,31.2L53.3,31.9L53.3,54.9L53.7,55.3L57.1,55.5L60.6,56.4L60.8,56.6L62.9,57.4L63.2,57.7L63.7,57.8L65.4,58.9L67.6,60.8L69.6,63.1L71.5,66.2L72.4,68.2L73.6,72.7L73.7,74.9L73.9,75.9L73.7,78.2L72.9,82.2L71.9,84.7L70.4,87.7L68.7,89.9L66.7,92.0L63.5,94.4L60.9,95.7L58.8,96.6L57.9,96.8L57.5,97.1L55.8,97.3L54.8,97.7L53.7,97.8L53.2,98.2L53.1,118.5L53.4,119.0L54.3,119.0L56.2,118.5L57.3,118.5L58.4,118.1L60.0,117.8L60.9,117.5L62.0,117.3L62.5,117.0L63.5,116.9L65.4,116.1L66.6,115.8L67.9,115.1L68.5,115.0L69.2,114.6L69.5,114.6L70.2,114.1L70.8,113.9L71.1,113.7L71.9,113.4L75.4,111.4L78.6,109.0L80.0,107.9L80.6,107.2L81.0,107.0L83.3,104.7L83.4,104.3L86.2,101.2L88.4,97.9L88.5,97.5L88.8,97.2L89.7,95.5L89.8,95.0L90.8,93.2L91.4,91.5L91.7,91.1L92.3,89.0L92.7,88.3L92.8,87.2L93.2,86.2L94.2,81.0L94.4,78.6L94.4,73.1L94.2,72.3L93.9,69.0L93.5,66.8L92.4,62.8L90.6,58.1L87.7,52.9L84.0,48.2L81.8,46.0L77.9,42.9L74.4,40.7L70.1,38.7L67.2,37.7L66.0,37.1L65.0,37.0L62.8,36.2L61.9,36.0L61.1,35.6L60.4,34.8L60.2,34.4L60.2,32.9L60.4,32.4L60.9,31.7L61.7,31.2L63.7,30.8L108.2,30.8L108.7,30.4L108.8,30.1L109.0,9.9Z" fill="#000" fill-rule="evenodd"/>
</svg>