<svg xmlns="http://www.w3.org/2000/svg" viewBox="0 0 128 128" width="128" height="128">
  <path d="M116.6,40.5L103.6,40.5L91.9,40.3L85.7,40.4L84.2,40.7L83.2,41.1L81.7,42.4L81.0,43.6L80.4,45.6L80.2,47.7L80.1,56.7L80.5,109.9L80.4,113.8L80.5,118.5L81.0,118.9L84.8,118.9L85.2,118.5L85.1,58.8L85.4,56.3L85.8,55.4L86.6,54.2L87.2,53.7L88.3,53.1L90.0,53.0L116.7,52.9L117.1,52.1L117.2,41.2L117.0,40.7Z M11.6,40.3L11.2,40.6L11.0,41.2L11.0,51.2L11.1,52.7L11.5,53.1L27.4,53.1L38.9,53.0L40.7,53.1L41.6,53.4L42.9,54.5L43.5,55.4L44.1,57.3L44.1,58.3L44.2,83.1L44.4,92.8L44.3,95.9L44.7,118.3L45.1,118.6L45.5,118.6L49.2,118.6L49.4,118.3L49.4,104.6L49.1,79.9L49.1,47.6L48.9,45.2L48.4,43.7L47.5,42.1L46.6,41.3L45.3,40.6L44.1,40.3Z M116.8,25.5L96.1,25.4L85.9,25.2L81.6,25.3L79.6,25.6L77.5,26.4L76.5,27.1L75.5,28.1L74.2,30.2L73.6,32.3L73.2,35.2L73.0,43.7L73.0,68.6L73.2,77.0L73.4,108.4L73.3,116.2L73.4,118.5L73.6,118.7L77.7,118.8L78.1,118.5L78.1,89.6L77.8,68.8L77.9,46.6L78.1,44.7L78.8,42.3L79.7,40.9L81.5,39.2L82.4,38.7L85.0,37.9L116.6,38.0L117.0,37.8L117.3,36.2L117.4,26.3L117.2,25.7Z M11.4,24.9L11.2,25.0L10.9,25.7L10.9,30.0L11.1,37.1L11.5,37.6L24.3,37.7L44.1,37.7L46.2,38.2L48.0,39.2L49.3,40.4L50.4,42.0L50.8,43.1L51.3,45.2L51.4,47.1L51.4,78.4L51.6,79.9L51.8,118.2L52.1,118.6L56.3,118.6L56.6,118.3L56.6,101.2L56.3,82.3L56.3,71.7L56.6,69.4L56.5,66.4L56.8,65.6L56.8,64.8L56.2,62.3L56.2,34.8L55.9,32.5L55.6,30.9L55.2,30.2L55.1,29.7L53.7,27.5L52.8,26.7L51.3,25.8L49.2,25.1L45.0,24.8L42.5,24.9L27.4,24.8Z M117.2,10.5L89.4,10.1L88.1,10.2L84.1,10.0L78.1,10.0L74.8,10.3L71.9,11.2L70.0,12.4L68.6,14.0L67.4,16.2L66.5,19.2L66.0,22.6L65.9,31.4L65.8,59.4L66.0,85.0L66.0,114.0L66.1,118.6L66.5,118.8L70.5,118.8L70.8,118.6L71.0,117.9L71.0,86.6L70.9,84.1L70.7,83.5L70.6,78.6L70.8,77.7L70.7,36.8L71.0,32.6L71.6,30.1L72.2,28.7L73.2,27.0L74.5,25.5L75.6,24.7L77.2,23.7L79.0,23.2L79.6,23.2L81.1,22.8L84.3,22.7L90.6,22.9L95.2,22.8L109.6,23.0L117.0,22.9L117.4,22.4L117.4,21.5L117.5,11.0Z M11.2,9.4L10.8,9.9L10.7,13.2L10.9,21.5L11.3,22.1L17.2,22.2L44.4,22.3L50.0,22.7L51.9,23.3L53.3,24.1L53.9,24.3L56.1,26.5L57.0,28.0L58.1,30.7L58.6,34.4L58.5,64.0L58.8,83.9L58.7,86.1L59.0,116.8L58.9,117.7L59.0,118.5L59.4,118.7L63.3,118.8L63.7,118.5L63.8,114.4L63.7,85.8L63.4,67.4L63.4,38.1L63.6,32.8L63.6,23.6L63.4,19.7L62.9,17.6L62.1,15.7L60.8,13.3L59.3,11.9L58.6,11.4L56.4,10.4L53.2,9.8L51.0,9.6L17.4,9.3Z" fill="#000" fill-rule="evenodd"/>
</svg>