<svg xmlns="http://www.w3.org/2000/svg" viewBox="0 0 128 128" width="128" height="128">
  <path d="M9.1,39.1L9.5,39.4L10.3,39.5L19.8,39.5L28.4,39.7L31.0,39.6L45.0,39.8L45.3,39.9L45.8,40.5L45.9,41.8L45.5,43.1L45.5,43.5L45.3,44.1L44.8,46.5L44.1,49.0L44.1,49.5L43.6,51.1L43.5,51.8L43.3,52.4L42.9,54.2L42.4,56.0L42.4,56.5L41.5,59.8L41.1,62.0L40.5,64.0L40.4,64.8L40.0,65.8L39.9,66.6L39.6,67.6L39.6,68.1L39.3,69.0L38.6,72.0L38.6,72.4L38.4,72.6L38.1,74.3L37.4,76.6L37.4,77.0L36.8,79.3L36.7,80.2L36.3,81.4L36.2,82.2L35.7,84.1L35.5,84.7L34.8,87.9L34.3,89.9L34.2,90.1L33.9,91.6L33.6,92.4L33.2,94.4L33.0,95.0L32.3,98.6L32.4,99.8L32.9,101.0L33.9,102.0L34.7,102.5L35.8,102.9L39.5,103.3L42.5,103.2L57.8,103.5L60.0,103.2L61.6,102.5L63.0,100.9L63.8,99.3L64.0,98.2L64.3,97.3L64.4,96.5L64.7,95.6L65.1,93.5L65.5,92.6L65.6,91.2L65.9,90.5L66.8,86.5L67.5,83.9L67.6,82.8L67.9,82.3L68.1,81.1L68.4,80.1L68.5,79.2L68.8,78.4L68.9,77.7L69.7,74.7L69.8,73.5L70.1,73.0L70.3,71.6L70.6,71.1L70.7,69.9L71.1,69.0L71.1,68.2L71.5,67.0L72.0,64.3L73.0,60.6L73.5,58.1L73.6,57.9L73.7,57.1L74.4,54.7L74.8,52.4L75.0,51.8L75.8,48.2L76.0,47.8L76.2,46.6L76.5,45.7L76.6,44.5L76.9,44.0L76.9,43.6L77.4,42.2L77.5,41.5L77.9,40.6L78.7,40.1L80.0,39.8L114.2,39.5L115.5,39.3L115.9,38.9L116.4,37.6L116.3,37.4L115.8,37.2L108.1,37.2L103.5,37.4L95.1,37.4L81.5,37.6L80.1,37.5L78.2,37.7L77.2,38.0L76.6,38.4L75.7,40.1L75.2,41.6L75.0,42.8L74.3,45.4L74.2,46.2L73.7,48.2L73.4,49.0L73.3,49.9L72.8,51.7L72.8,52.5L72.6,52.7L72.3,54.3L71.4,57.8L70.6,61.5L70.3,62.1L69.7,65.4L69.3,66.7L69.2,67.5L68.4,70.5L68.3,71.3L68.0,72.3L67.7,73.7L67.6,73.9L67.4,75.1L66.6,78.1L66.5,78.9L66.4,79.1L65.8,81.2L65.4,83.2L65.2,83.4L64.9,85.5L62.0,97.5L61.1,99.5L59.9,100.7L59.3,101.0L58.5,101.2L56.6,101.4L52.2,101.2L49.7,101.3L46.6,101.2L38.8,101.2L37.7,101.0L36.2,100.5L35.4,99.8L34.8,98.7L35.0,96.3L35.6,93.6L35.6,93.2L36.4,90.8L36.5,89.3L37.0,87.5L37.0,87.0L37.2,86.8L37.4,85.9L37.5,85.1L38.8,79.9L39.2,78.8L40.1,74.3L40.3,73.9L40.6,73.0L40.6,72.5L41.9,67.5L42.4,65.0L42.6,64.5L42.8,63.3L44.4,57.1L44.5,56.1L44.9,55.0L45.8,50.8L46.0,50.3L46.0,49.9L46.3,49.3L46.5,47.9L46.7,47.7L46.7,46.9L47.1,45.6L47.1,45.2L47.5,43.9L47.5,43.5L48.2,41.4L48.4,40.5L48.4,39.2L48.2,38.7L47.3,37.9L46.8,37.7L45.6,37.6L12.0,37.2L9.9,37.3L9.5,37.5L9.1,38.6Z M117.1,33.7L116.8,33.3L105.2,33.3L102.6,33.5L101.4,33.4L77.0,33.7L74.9,34.1L74.0,34.6L73.2,35.3L72.6,36.6L71.4,41.8L71.2,42.0L71.0,43.5L70.7,44.0L70.5,45.3L70.3,45.6L70.1,47.1L69.9,47.3L69.7,48.7L69.3,49.7L69.2,50.9L68.9,51.5L68.7,53.1L68.4,54.1L67.8,57.0L67.4,58.2L66.0,64.7L65.9,64.9L65.6,66.3L65.4,66.9L65.1,68.7L64.9,68.9L64.6,70.6L64.2,71.7L63.8,74.0L63.1,76.5L62.5,79.8L62.1,81.0L61.9,82.1L61.3,84.3L61.0,85.2L60.8,86.6L60.2,88.8L59.9,90.3L59.7,90.8L59.6,91.5L59.3,92.4L58.9,94.3L58.6,95.1L58.5,95.6L58.1,96.4L57.2,97.2L56.0,97.6L48.5,97.3L47.7,97.2L43.4,97.2L40.8,96.9L39.9,96.4L39.6,96.0L39.5,95.4L39.9,93.0L40.6,90.2L40.6,89.7L41.6,86.3L42.0,84.1L42.1,83.8L42.6,81.9L42.6,81.5L43.0,80.2L43.1,79.4L43.5,78.1L43.6,77.3L44.3,75.0L45.6,69.0L47.6,60.9L48.3,57.6L48.9,55.3L49.2,53.8L49.5,52.9L49.5,52.5L49.8,51.0L50.1,50.4L50.1,49.9L50.2,49.7L50.9,47.1L50.9,46.7L51.2,45.8L51.2,45.4L51.7,43.9L52.2,41.1L52.7,39.9L52.7,39.1L53.1,38.2L53.2,37.1L53.2,35.6L53.0,34.8L52.5,34.2L51.8,33.8L51.4,33.7L41.6,33.7L39.6,33.6L33.3,33.7L14.3,33.4L10.6,33.5L10.3,33.8L10.1,34.2L10.1,34.9L10.4,35.3L15.5,35.4L25.7,35.4L28.3,35.6L35.2,35.5L39.8,35.7L45.4,35.6L46.4,35.8L49.7,35.7L50.4,35.8L50.8,36.2L51.0,36.7L50.9,39.0L50.5,40.3L50.2,41.8L49.6,43.8L49.5,44.6L49.0,46.2L48.4,48.9L47.4,52.4L47.1,53.8L46.8,54.6L46.8,55.1L46.5,56.0L46.5,56.4L45.8,59.1L45.6,59.7L45.4,61.0L45.0,61.9L44.9,63.1L43.6,68.0L43.5,68.7L43.3,69.0L42.9,71.2L42.6,71.9L42.6,72.3L42.4,72.5L41.8,75.7L41.3,77.2L41.0,79.0L40.7,79.4L40.4,81.2L39.9,82.9L39.9,83.3L39.7,83.9L39.7,84.3L39.0,86.9L38.7,88.4L37.6,92.4L37.5,93.3L36.9,95.5L36.9,97.3L37.3,98.0L37.7,98.4L38.5,98.9L39.4,99.1L49.2,99.5L50.4,99.4L52.4,99.6L56.1,99.6L57.8,99.4L58.5,99.0L59.5,98.1L60.2,96.7L61.1,93.0L61.5,91.8L61.9,89.5L62.4,87.9L62.5,87.1L62.8,86.2L63.4,83.4L63.9,81.6L64.0,80.9L64.2,80.2L64.2,79.8L64.8,78.1L65.1,76.2L67.0,68.8L67.1,68.0L67.5,66.8L67.6,66.0L68.3,63.4L68.5,61.9L68.9,60.7L69.4,58.1L69.8,56.8L69.8,56.4L70.2,55.5L71.2,50.4L71.4,50.1L71.7,48.4L71.9,47.9L72.0,47.0L72.8,44.1L73.1,42.7L73.3,42.2L73.4,41.4L73.8,40.1L73.9,39.2L74.4,37.9L74.8,37.1L75.4,36.5L76.6,35.9L78.4,35.7L84.7,35.7L90.4,35.5L92.2,35.6L116.3,35.1L117.0,34.7Z M118.1,29.3L117.8,29.0L112.0,28.9L99.8,29.2L94.5,29.2L92.3,29.4L80.5,29.4L73.6,29.5L71.9,29.8L71.0,30.1L70.1,31.0L69.7,32.0L69.1,34.5L68.9,34.8L68.8,35.8L68.5,36.7L68.4,37.5L64.9,51.4L64.2,54.7L63.6,57.1L63.5,57.9L63.0,59.4L62.9,60.6L62.6,61.2L61.6,66.0L61.2,66.8L60.7,69.6L59.9,72.5L59.3,75.4L57.8,81.5L57.3,84.1L56.9,84.9L56.5,87.3L56.1,88.2L55.4,91.7L54.9,92.6L54.0,93.3L51.7,93.5L48.6,93.4L45.1,93.0L44.4,92.2L44.3,90.9L44.5,89.6L44.8,88.8L44.9,87.7L45.3,86.6L45.6,84.7L46.0,83.6L46.2,82.3L46.4,81.7L46.9,79.3L47.3,78.1L47.3,77.6L47.7,76.4L48.0,74.7L48.4,73.8L48.4,73.0L49.1,70.7L49.2,69.9L50.3,65.6L50.5,64.0L51.8,59.2L51.8,58.7L52.2,57.2L52.3,56.3L53.2,53.1L53.9,49.9L54.5,47.7L54.6,46.9L54.8,46.7L55.0,45.2L55.2,44.8L55.7,42.5L56.1,41.3L56.5,38.9L56.7,38.6L56.8,37.8L57.0,37.3L57.2,36.2L57.6,34.9L58.1,32.4L58.1,31.1L57.6,30.2L57.1,29.8L56.1,29.6L39.2,29.6L27.9,29.4L26.0,29.5L18.4,29.3L12.0,29.4L11.5,29.5L11.2,29.9L11.0,31.0L11.1,31.2L11.4,31.5L13.8,31.5L17.3,31.5L18.6,31.6L25.8,31.6L32.6,31.8L35.1,31.7L49.5,32.0L54.2,31.9L54.6,32.0L55.2,32.4L55.6,33.2L55.6,34.3L55.2,36.8L54.5,39.1L54.3,40.5L54.0,40.9L54.0,41.9L53.5,43.9L53.2,44.4L52.6,47.3L52.3,47.9L52.0,49.6L52.0,50.3L51.6,51.2L50.9,54.5L50.5,55.5L50.1,58.0L49.7,59.3L49.4,60.7L49.1,61.8L49.0,62.7L48.6,64.0L48.6,64.4L48.4,64.9L48.3,65.7L47.8,67.2L47.1,70.5L46.7,71.4L46.0,75.0L45.5,76.6L45.5,77.0L45.0,78.5L44.1,82.6L44.0,82.8L43.9,83.6L43.4,85.2L43.3,86.0L43.0,86.9L42.4,89.8L42.0,90.9L41.9,92.2L41.9,93.1L42.2,93.9L42.8,94.5L43.4,94.8L46.5,95.3L54.4,95.6L55.4,95.3L56.1,94.9L56.7,94.3L57.3,92.9L57.7,90.7L57.9,90.1L59.1,85.4L59.1,84.9L59.2,84.6L59.3,84.0L59.9,81.8L61.0,76.8L61.6,74.6L61.7,73.8L62.0,73.3L62.2,71.9L62.6,70.8L63.1,68.3L63.3,68.1L63.4,67.2L63.5,67.0L64.0,64.4L64.9,61.3L65.4,58.8L65.8,57.6L65.9,56.7L66.1,56.3L66.3,55.0L67.4,50.6L67.6,49.1L67.8,49.0L68.4,46.3L68.8,45.2L68.9,43.9L69.8,41.1L69.8,40.4L70.1,39.8L70.3,38.4L70.6,37.5L70.8,36.4L71.1,35.9L71.2,34.9L71.4,34.6L71.6,33.6L71.9,33.2L72.0,32.8L72.8,32.2L74.3,31.9L108.1,31.4L109.1,31.2L114.9,31.2L117.3,31.1L117.7,30.9L118.0,30.4Z M119.1,25.2L119.0,25.0L118.7,24.7L113.8,24.7L90.9,25.2L88.8,25.4L73.6,25.5L70.8,25.6L69.1,26.0L67.9,26.8L67.2,27.5L66.4,29.3L66.0,31.0L65.9,31.2L65.5,32.8L65.3,33.4L65.1,34.5L65.0,34.8L64.5,36.7L64.3,38.0L63.9,39.2L63.8,40.4L63.4,41.2L63.4,41.9L62.5,44.9L62.0,47.8L61.2,50.6L61.2,51.4L60.8,52.6L59.8,57.2L59.5,57.7L58.9,61.0L58.4,62.7L58.4,63.1L57.4,67.1L57.0,69.0L56.8,69.5L56.6,70.6L56.3,71.4L55.2,76.5L55.0,77.2L54.8,78.4L54.3,80.2L54.3,80.7L53.5,83.7L53.4,84.5L52.3,88.4L52.2,88.8L51.4,89.4L49.3,89.3L48.7,88.8L48.7,88.3L49.1,86.9L49.4,84.9L50.0,83.1L50.1,82.3L51.0,79.0L51.2,77.5L51.6,76.4L51.8,74.9L52.5,72.6L52.5,72.1L53.0,70.7L53.4,68.6L53.6,68.1L54.1,65.4L54.3,65.2L54.6,63.5L54.8,62.8L54.9,61.9L55.9,58.4L56.8,54.1L57.2,52.8L57.3,51.9L57.6,51.1L58.0,48.9L58.4,47.8L58.9,45.1L59.2,44.2L59.3,43.3L59.7,42.2L59.8,41.4L60.4,38.8L60.7,38.3L61.2,35.3L61.6,34.5L61.7,33.3L62.5,30.7L62.5,30.3L62.9,28.9L62.9,28.2L62.5,27.1L62.1,26.6L61.2,26.0L59.3,25.7L38.7,25.5L36.9,25.6L15.1,25.3L12.5,25.4L12.2,25.7L12.1,26.4L12.1,27.1L12.4,27.3L20.7,27.4L24.6,27.6L27.1,27.5L29.8,27.7L32.4,27.6L38.9,27.7L43.7,27.7L58.8,27.8L59.7,28.1L60.4,28.7L60.4,30.3L59.5,33.2L59.3,34.6L59.0,35.5L58.9,36.3L58.6,37.2L58.4,38.5L58.2,39.0L58.0,40.1L57.6,41.4L57.4,42.6L57.1,43.5L57.1,44.0L56.3,46.9L55.7,50.3L54.1,56.3L53.9,57.9L53.5,59.0L53.4,59.8L52.2,64.6L51.3,68.8L51.0,69.6L50.8,70.9L50.5,71.5L50.2,73.4L50.0,73.9L49.9,74.8L49.5,76.0L49.2,77.8L48.5,80.1L48.4,81.0L47.6,83.8L46.5,88.8L46.6,90.5L47.3,91.2L48.4,91.4L51.9,91.6L53.0,91.3L53.5,90.8L53.8,90.3L54.3,88.8L54.4,87.9L56.1,80.7L56.4,79.3L56.5,79.0L56.8,77.5L56.9,77.2L57.4,75.3L57.8,73.1L58.6,70.2L58.8,69.6L59.1,68.0L59.7,65.8L59.7,65.4L60.2,63.8L60.6,61.7L60.8,61.1L61.7,56.8L62.1,55.5L62.7,52.8L62.9,52.5L63.3,50.3L63.6,49.4L63.8,48.2L64.1,47.3L64.5,45.4L64.5,44.9L64.6,44.7L65.1,42.7L65.4,41.1L65.7,40.3L66.2,37.8L66.6,36.6L66.7,35.8L67.0,35.0L67.1,34.2L67.4,33.3L68.0,30.5L68.5,29.2L69.3,28.4L70.3,27.9L71.7,27.7L89.9,27.5L98.0,27.2L102.2,27.2L106.9,26.9L117.9,26.8L118.7,26.5L118.9,26.0Z" fill="#000" fill-rule="evenodd"/>
</svg>