<svg xmlns="http://www.w3.org/2000/svg" viewBox="0 0 128 128" width="128" height="128">
  <path d="M41.8,11.6L40.1,12.3L38.2,13.4L36.1,15.3L35.0,16.7L34.1,18.1L33.6,19.4L32.7,23.9L32.4,27.9L32.3,28.8L32.3,31.8L32.1,32.8L32.3,59.5L32.1,60.8L32.3,63.3L32.2,68.7L32.4,74.1L32.3,84.6L32.6,88.2L32.6,94.4L33.0,100.8L33.0,103.5L33.2,106.4L34.1,109.9L34.5,110.6L35.0,111.9L35.8,113.1L37.0,114.3L38.6,115.4L41.6,116.6L43.0,117.0L49.6,118.4L50.5,118.4L51.8,118.6L53.8,118.7L55.4,119.0L58.3,119.0L59.7,119.1L71.0,119.1L72.4,119.0L75.9,118.9L80.2,118.5L81.3,118.1L85.7,117.1L88.6,115.9L90.6,114.8L92.6,112.8L94.2,110.1L94.9,108.2L95.5,104.1L95.7,100.0L95.9,98.0L95.9,91.8L96.1,86.0L96.1,83.1L96.0,82.3L96.1,81.3L96.1,70.0L96.0,68.6L96.0,54.9L95.8,53.1L95.9,48.3L95.7,42.3L95.7,40.7L95.6,36.6L95.6,32.3L95.4,30.9L95.4,28.6L95.0,24.5L94.5,21.1L93.6,18.5L93.1,17.5L92.5,16.9L92.0,16.0L91.1,15.2L91.0,14.9L89.0,13.2L86.9,12.0L85.0,11.4L84.0,11.2L82.7,10.7L81.0,10.3L80.5,10.3L78.8,9.9L78.0,9.9L75.5,9.5L74.3,9.5L73.2,9.3L70.9,9.3L69.6,9.1L57.4,9.2L54.7,9.6L52.6,9.6L50.7,9.9L49.8,10.1L47.6,10.3L46.4,10.5L45.9,10.7L43.7,11.1Z M37.3,51.3L38.4,51.1L42.4,51.1L46.3,51.0L54.1,51.0L54.6,51.0L55.4,51.4L55.7,51.7L56.0,52.6L56.2,60.0L56.2,68.0L56.3,69.8L56.2,72.9L56.4,74.5L56.3,78.1L56.5,78.9L56.4,91.7L56.6,100.2L56.6,101.6L56.7,104.9L56.7,108.8L56.2,112.3L55.8,113.3L55.4,114.2L54.7,114.8L54.0,115.3L52.6,115.7L50.0,115.7L49.0,115.3L47.7,115.3L47.1,115.0L44.2,114.4L41.5,113.2L40.1,112.4L38.4,110.5L37.8,109.3L37.6,109.1L37.0,107.2L36.5,103.3L36.2,97.2L36.0,96.1L36.1,92.5L36.0,88.8L35.9,87.2L35.8,78.9L35.6,77.9L35.6,61.7L35.8,53.5L36.2,52.2L36.8,51.5Z M90.2,51.0L91.1,51.3L91.9,52.1L92.1,52.8L92.4,57.1L92.4,65.8L92.7,68.0L92.7,91.3L92.5,97.1L92.4,98.3L92.1,103.9L91.6,107.0L90.9,109.1L89.7,110.9L88.4,112.1L86.2,113.4L84.6,114.1L80.1,115.3L77.6,115.4L75.9,115.3L74.8,114.9L74.1,114.2L73.6,113.5L73.0,111.3L72.6,107.8L72.6,106.6L72.4,103.7L72.2,94.5L72.3,87.0L72.2,84.9L72.2,78.3L72.0,76.8L72.1,70.4L71.9,69.1L72.0,66.0L71.8,65.4L72.0,62.6L71.8,61.5L71.8,58.2L72.0,57.2L71.8,55.4L71.8,51.9L72.1,51.4L72.6,51.0L74.0,50.9Z M36.3,37.9L39.5,38.2L41.5,38.5L42.9,38.5L44.0,38.8L47.3,38.9L50.0,39.3L54.0,39.5L69.4,39.5L73.4,39.2L76.7,39.2L77.3,39.1L81.0,39.1L87.1,38.5L87.6,38.3L88.6,38.3L89.7,38.1L91.2,38.1L91.4,38.2L91.9,38.8L92.2,42.8L92.2,47.0L91.7,47.7L90.2,47.9L71.5,47.9L68.8,48.1L68.2,48.5L68.4,51.2L68.2,56.4L68.2,67.8L68.4,73.1L68.3,81.1L68.5,82.3L68.5,93.4L68.3,94.3L68.5,97.7L68.5,104.3L68.6,105.1L68.5,107.3L68.9,109.5L68.9,111.1L69.4,113.7L70.1,115.5L70.0,115.9L69.8,116.1L68.9,116.3L66.5,116.4L60.6,116.4L59.5,116.3L59.1,116.1L59.1,115.3L59.5,114.3L59.9,111.4L60.1,104.1L60.1,100.8L59.9,99.6L59.9,93.5L59.8,90.6L59.9,87.3L59.6,74.4L59.7,71.6L59.5,70.3L59.5,54.9L59.4,53.9L59.4,52.1L59.2,50.6L59.2,48.1L59.0,47.8L58.6,47.7L56.0,48.0L49.2,48.0L47.5,48.1L43.6,48.0L36.4,48.0L36.0,47.7L35.8,47.3L35.8,39.1L36.0,38.3Z M36.7,21.7L37.0,20.6L37.3,20.2L37.8,18.9L38.5,17.8L40.1,16.2L42.2,15.1L44.0,14.4L45.7,14.0L47.2,13.5L48.0,13.4L49.3,13.0L51.4,12.7L52.5,12.7L53.1,12.5L54.1,12.5L56.2,12.3L65.1,12.0L66.8,12.2L71.8,12.2L72.6,12.4L75.0,12.6L75.9,12.8L78.5,13.2L78.9,13.3L79.5,13.3L81.1,13.9L82.0,13.9L83.3,14.2L83.9,14.5L85.1,14.8L87.7,16.2L89.5,18.1L90.8,20.5L91.6,23.0L91.7,26.7L92.0,27.6L92.0,31.7L91.9,33.1L91.6,33.8L90.9,34.4L88.4,35.0L84.6,35.5L83.8,35.8L82.2,35.8L77.1,36.3L71.4,36.5L70.1,36.6L57.2,36.7L54.5,36.6L53.8,36.5L49.6,36.5L46.5,36.2L45.8,36.1L45.1,36.2L43.7,35.8L42.1,35.8L41.3,35.5L39.3,35.3L37.5,34.8L36.7,34.3L36.4,34.1L35.9,32.8L35.8,29.8L36.0,28.2L36.3,23.9L36.6,23.0Z" fill="#000" fill-rule="evenodd"/>
</svg>