<svg xmlns="http://www.w3.org/2000/svg" viewBox="0 0 128 128" width="128" height="128">
  <path d="M62.4,9.1L59.1,9.3L57.9,9.5L56.3,9.6L51.4,10.4L44.9,12.2L44.1,12.6L42.5,13.1L42.3,13.3L41.6,13.5L40.9,13.9L39.7,14.3L36.5,16.1L35.4,16.9L34.0,17.6L30.3,20.2L26.9,23.2L24.0,26.1L22.5,27.9L21.6,28.7L19.8,31.4L19.2,32.6L18.6,33.2L18.1,33.9L15.7,38.4L15.7,38.9L14.5,41.7L14.3,42.4L13.7,43.9L13.4,44.9L12.8,46.5L12.6,47.7L12.3,48.5L12.1,50.0L11.9,50.3L11.6,52.4L11.4,52.7L10.8,57.1L10.6,61.3L10.6,65.5L10.9,69.0L11.3,71.7L11.3,72.4L12.3,76.6L12.9,78.4L13.0,79.1L13.8,81.9L14.3,82.8L14.3,83.1L16.1,87.7L16.8,88.8L17.7,91.0L19.2,93.8L21.2,96.9L22.2,98.1L23.2,98.1L23.9,97.7L24.6,97.5L24.8,97.3L25.4,97.1L25.7,96.9L26.3,96.7L27.1,96.2L27.5,96.1L29.3,95.3L30.8,94.2L32.3,93.4L33.5,92.2L34.3,91.8L38.2,88.4L40.7,85.7L44.1,81.4L44.2,80.9L45.4,79.1L46.4,76.7L47.6,74.2L47.6,74.0L48.8,71.1L49.0,70.3L49.2,69.9L49.5,68.5L49.8,67.8L49.9,67.0L50.2,66.2L50.4,64.9L50.8,63.5L50.8,62.8L51.2,59.7L51.2,57.5L50.8,57.0L34.6,57.1L33.1,56.9L25.5,57.0L22.9,56.8L22.5,56.5L22.4,56.1L20.8,54.3L18.9,51.9L18.1,51.1L17.9,50.5L17.2,49.7L15.3,47.1L15.3,46.8L15.5,46.5L51.6,46.6L54.7,49.7L58.9,54.6L60.6,56.3L61.3,57.3L61.4,58.2L61.4,60.7L61.2,63.8L60.9,65.9L60.6,67.0L60.4,68.5L60.2,69.0L59.5,71.6L59.5,72.0L59.2,72.8L58.7,74.8L58.3,75.6L57.5,78.4L56.9,79.2L56.6,80.3L55.9,81.9L54.6,84.3L53.6,85.9L53.4,86.5L52.0,88.6L51.8,89.0L48.3,93.4L47.5,94.2L47.2,94.3L44.9,96.8L42.4,98.9L37.4,102.5L35.4,103.5L35.2,103.7L34.6,104.0L34.3,104.2L33.0,104.8L32.2,105.3L30.6,106.1L30.4,106.3L30.4,106.8L31.5,107.8L35.8,110.9L36.3,111.1L37.9,112.1L38.7,112.4L39.0,112.7L41.4,113.9L42.3,114.2L42.9,114.6L44.1,115.0L44.8,115.4L46.5,116.1L52.0,117.8L55.7,118.6L57.6,118.8L58.7,118.8L60.2,119.0L64.8,119.2L69.9,118.8L70.8,118.6L72.9,118.3L73.4,118.1L74.5,117.8L76.4,117.6L78.0,117.0L78.7,117.0L80.8,116.3L82.1,115.7L84.9,114.7L86.3,114.0L86.9,113.5L87.7,113.4L88.8,112.7L89.1,112.4L90.6,111.7L91.4,111.1L92.7,110.4L94.4,109.2L94.8,109.1L97.6,107.0L102.6,102.4L102.8,102.0L103.9,100.8L104.8,99.4L105.7,98.6L107.9,95.7L108.0,95.3L108.5,94.6L109.9,92.1L111.0,90.4L112.3,87.9L112.4,87.2L113.2,85.7L113.6,84.3L114.4,82.6L114.6,81.8L115.0,80.9L115.1,79.9L115.5,78.8L115.5,78.4L115.9,77.7L116.0,76.4L116.3,75.9L116.3,75.4L116.7,74.1L116.8,71.9L117.3,69.7L117.4,67.5L117.6,65.6L117.6,60.9L117.4,59.9L117.0,55.7L116.8,54.9L116.7,53.8L116.4,52.8L116.3,51.3L115.9,50.4L115.9,49.5L115.5,48.8L115.5,48.2L115.1,47.6L114.1,44.4L113.3,42.9L112.7,41.3L110.4,36.6L109.8,35.9L107.6,32.2L106.3,30.7L106.2,30.5L105.6,29.9L104.0,30.3L103.1,30.8L99.9,31.9L97.0,33.4L91.8,36.4L89.1,38.3L88.3,39.2L86.5,40.6L83.9,43.3L83.5,43.8L82.3,45.0L80.2,47.9L78.8,50.3L78.6,50.8L78.2,51.4L76.4,55.1L76.0,56.8L75.6,57.5L74.7,60.3L74.3,62.4L73.8,64.1L73.7,65.8L73.6,66.3L73.5,68.0L73.3,68.8L73.3,70.7L73.4,71.1L73.9,71.3L76.4,71.3L77.3,71.5L89.3,71.4L93.2,71.6L99.4,71.6L102.5,71.9L105.2,74.5L106.3,76.0L107.6,77.3L108.4,78.5L110.0,80.1L111.2,81.6L111.4,82.1L111.1,82.4L82.3,82.4L80.8,82.3L79.2,82.4L73.7,82.3L73.3,82.2L68.7,77.5L66.9,75.2L65.4,73.8L63.6,71.7L63.4,71.3L63.7,65.1L63.9,64.4L64.0,63.0L64.3,61.8L64.5,60.4L65.8,55.0L66.2,54.2L66.7,52.6L67.1,52.0L67.6,50.2L68.1,49.4L68.5,48.2L68.9,47.6L68.9,47.2L69.3,46.8L69.9,45.4L70.1,45.3L70.8,43.9L71.5,42.9L72.1,41.7L73.5,39.7L74.1,39.1L74.8,38.2L75.6,37.4L77.0,35.5L82.5,30.2L84.7,28.4L85.8,27.7L86.9,26.7L88.6,25.4L88.8,25.4L91.4,23.7L96.2,21.2L96.4,21.1L96.4,20.6L94.3,18.9L91.3,17.0L90.2,16.5L89.1,15.7L86.1,14.2L85.6,14.1L84.1,13.3L83.3,13.2L82.6,12.8L82.1,12.7L80.8,12.0L75.2,10.5L74.6,10.5L72.5,10.0L66.5,9.2Z" fill="#000" fill-rule="evenodd"/>
</svg>