<svg xmlns="http://www.w3.org/2000/svg" viewBox="0 0 128 128" width="128" height="128">
  <path d="M81.3,105.7L81.2,106.7L81.2,117.0L81.3,118.2L81.8,118.8L82.6,119.0L94.3,119.1L94.9,118.9L95.0,118.4L95.0,106.1L94.6,105.6L93.2,105.4L90.2,105.3L82.2,105.3L81.7,105.4Z M65.3,105.6L65.2,106.0L65.2,116.3L65.3,118.4L65.6,118.8L69.5,118.9L78.5,118.9L78.8,118.7L79.0,118.3L79.0,106.4L78.8,105.7L78.6,105.4L77.7,105.3L67.7,105.3L65.8,105.3Z M49.6,105.4L49.4,105.7L49.3,106.5L49.4,117.7L49.6,118.5L49.9,118.8L52.2,118.8L61.7,118.8L62.6,118.7L62.8,118.4L62.9,118.1L62.9,106.5L62.8,105.8L62.6,105.4L62.2,105.3L51.8,105.2L50.0,105.3Z M33.7,105.7L33.6,108.2L33.7,117.4L33.7,118.1L34.1,118.6L35.3,118.8L46.4,118.8L46.9,118.6L47.2,118.1L47.2,106.5L47.1,105.8L46.8,105.3L45.4,105.2L40.1,105.2L39.4,105.3L36.6,105.3L34.3,105.3Z M33.9,73.7L33.7,73.9L33.5,74.4L33.5,93.8L33.7,100.8L33.6,101.8L33.8,102.8L34.1,103.0L35.4,103.1L45.2,103.0L48.6,103.2L61.9,103.2L62.5,103.0L62.8,102.8L62.9,99.5L62.9,94.0L62.8,89.4L62.8,78.3L62.8,74.4L62.5,73.6L61.7,73.4L34.7,73.5Z M65.3,73.5L65.0,74.1L64.9,77.3L65.2,102.3L65.3,102.8L66.0,103.2L83.0,103.2L88.7,103.3L94.5,103.2L94.9,102.8L95.0,101.8L94.8,75.5L94.7,73.8L94.1,73.4L92.9,73.4L68.6,73.4Z M94.4,9.6L94.0,9.2L93.3,9.1L77.8,9.4L61.6,9.4L60.9,9.6L35.4,9.8L33.7,9.9L33.3,10.2L33.2,10.6L33.1,30.4L33.4,55.0L33.4,67.8L33.6,70.9L34.0,71.1L36.1,71.2L79.2,71.2L90.0,71.0L93.1,71.1L94.3,71.0L94.7,70.7L94.7,51.2L94.6,20.6L94.4,19.3L94.6,17.4Z" fill="#000" fill-rule="evenodd"/>
</svg>