<svg xmlns="http://www.w3.org/2000/svg" viewBox="0 0 128 128" width="128" height="128">
  <path d="M119.3,38.3L119.0,38.0L117.8,38.0L116.9,38.2L85.5,38.2L82.6,38.5L79.5,39.8L78.3,40.8L77.1,41.9L75.9,43.5L75.4,45.0L75.2,45.4L74.8,47.2L74.7,50.2L74.2,52.2L74.0,52.6L73.9,53.2L73.7,53.9L72.9,55.1L71.3,56.6L69.6,57.8L67.6,58.5L66.0,58.8L63.0,58.8L62.1,58.4L61.1,58.2L58.9,57.1L57.3,55.6L56.2,54.2L55.9,53.6L55.5,53.2L55.2,52.3L54.6,50.2L54.5,47.9L54.2,46.7L54.0,46.2L53.8,45.3L52.9,43.6L52.4,43.0L52.3,42.6L50.9,41.1L48.7,39.6L46.8,38.7L44.5,38.3L41.0,38.2L38.7,38.4L34.5,38.3L22.8,38.5L13.6,38.4L13.0,38.3L9.4,38.4L9.0,38.5L9.0,38.7L22.1,49.3L22.9,50.1L24.6,51.5L25.9,52.7L29.4,55.6L32.5,58.8L34.2,59.0L42.1,59.0L44.5,58.8L46.1,58.6L46.3,58.4L46.8,58.3L48.8,57.6L50.2,56.6L51.9,55.2L52.6,54.3L53.3,53.2L53.8,53.2L53.9,53.5L54.2,62.3L54.1,65.9L54.3,66.8L54.2,73.7L54.3,75.6L54.3,78.2L54.5,79.0L54.5,80.2L54.8,81.8L55.1,82.4L55.1,82.7L55.5,83.9L56.5,85.7L57.2,86.7L58.8,88.1L60.0,88.9L62.0,89.8L63.4,90.1L66.1,90.2L67.6,89.8L69.3,89.2L70.7,88.4L71.9,87.4L73.4,85.5L74.0,84.3L74.7,82.5L75.2,79.4L75.2,78.3L75.4,77.2L75.4,68.0L75.6,65.5L75.6,54.9L75.6,53.7L75.8,53.6L76.1,53.6L76.6,54.2L77.7,55.5L78.5,56.3L79.5,56.9L81.7,58.0L82.7,58.2L83.4,58.5L85.4,58.7L96.9,58.6L108.0,48.4L109.5,47.2L111.0,45.7L111.3,45.6L111.9,45.0L112.5,44.5L118.1,39.4L118.8,39.0L119.3,38.5Z" fill="#000" fill-rule="evenodd"/>
</svg>