<svg xmlns="http://www.w3.org/2000/svg" viewBox="0 0 128 128" width="128" height="128">
  <path d="M60.5,9.1L60.0,9.3L58.0,9.4L56.4,9.7L54.2,10.0L53.5,10.2L52.6,10.3L52.0,10.5L49.3,11.1L44.5,12.7L43.6,13.2L42.7,13.5L40.5,14.6L39.8,14.8L39.3,15.2L38.9,15.3L38.6,16.2L38.8,17.6L37.9,18.2L37.1,18.3L36.2,18.6L33.8,18.4L33.4,18.6L32.7,19.1L32.3,19.5L30.9,20.4L27.1,23.6L23.4,27.5L22.2,29.0L21.7,29.5L20.3,31.6L19.9,32.0L19.3,33.0L18.2,34.3L17.9,35.1L16.7,37.0L16.6,37.3L16.4,37.6L15.5,39.5L14.9,40.5L14.0,42.5L12.0,47.9L10.7,53.4L10.0,57.9L9.7,62.8L9.8,67.7L10.2,71.5L11.6,78.4L12.9,82.9L14.8,87.6L16.4,90.7L17.9,93.3L21.1,98.0L24.2,101.6L28.6,105.9L31.6,108.3L32.1,108.6L33.6,109.7L34.0,109.9L35.8,111.2L36.8,111.6L38.0,112.5L43.4,115.1L47.1,116.4L51.0,117.5L51.4,117.5L54.8,118.4L57.0,118.7L61.4,119.1L68.4,119.0L70.0,118.7L71.5,118.6L74.1,118.2L74.7,118.0L76.3,117.7L81.2,116.3L82.7,115.7L84.7,115.0L87.4,113.7L88.5,113.3L93.7,110.2L97.9,107.1L100.5,104.8L100.8,104.7L105.1,100.1L106.6,98.2L107.4,97.3L110.9,92.1L113.6,86.9L115.5,82.2L116.9,77.2L117.9,72.2L118.0,70.8L118.2,69.6L118.5,66.0L118.4,60.3L118.2,59.5L118.2,58.3L118.0,57.2L117.6,53.7L116.6,49.9L116.5,49.2L114.7,43.8L113.6,41.1L112.6,39.2L112.5,38.8L109.6,33.8L109.0,33.1L108.9,32.7L107.6,30.9L104.5,27.1L101.9,24.5L99.8,22.5L95.3,18.9L94.4,18.5L93.8,17.9L92.2,17.0L90.9,16.3L90.6,16.0L85.8,13.5L82.0,12.2L81.6,11.9L76.8,10.5L75.5,10.4L74.5,10.0L72.8,9.9L72.0,9.6L70.3,9.4L68.4,9.3L67.6,9.1Z M106.2,32.9L108.4,36.1L109.0,37.4L109.4,37.9L111.4,41.7L112.1,43.5L112.4,44.4L112.9,45.3L113.8,47.9L114.2,50.0L114.7,51.0L114.9,52.6L115.3,54.1L115.7,56.7L115.6,58.1L116.0,59.2L116.2,62.8L116.2,66.4L116.0,69.9L115.6,71.6L115.6,72.8L115.1,74.7L115.1,75.4L114.7,76.2L114.6,77.4L114.0,79.1L113.9,79.9L112.9,82.3L112.8,83.1L112.5,83.4L111.9,85.2L111.5,85.8L111.0,87.2L110.7,87.6L110.0,89.1L109.7,89.5L108.3,92.1L105.5,96.1L103.2,98.9L101.0,101.2L100.8,101.4L100.5,101.4L99.9,100.9L97.0,95.1L95.7,92.9L94.4,90.0L93.4,88.4L92.8,87.0L91.9,85.5L91.8,84.9L91.4,84.5L90.4,82.3L89.9,81.4L89.6,81.0L89.1,79.7L87.8,77.4L85.8,73.3L85.5,72.9L84.3,70.4L83.7,69.5L83.5,68.9L83.3,68.6L79.3,60.7L78.2,58.9L74.2,51.0L73.9,50.7L73.5,50.8L73.2,51.2L73.0,52.0L72.4,53.2L71.8,54.9L70.1,58.7L69.1,61.3L68.0,63.5L67.8,64.2L67.8,65.0L70.2,69.8L70.4,70.4L70.9,71.1L72.5,74.4L72.7,74.9L74.1,77.8L74.6,78.3L75.6,80.7L75.8,81.4L75.5,81.7L73.3,81.8L63.5,81.8L60.6,82.0L60.2,82.4L56.6,91.1L56.6,91.7L56.9,92.0L61.9,92.1L63.7,92.0L80.7,92.0L81.2,92.1L81.6,92.4L82.1,93.5L83.1,95.7L83.4,96.1L86.1,101.7L86.7,102.3L87.9,102.5L92.8,102.3L94.8,102.4L96.3,102.2L99.1,102.3L99.4,102.6L99.4,102.8L96.6,105.3L95.8,105.8L94.0,107.4L91.8,108.8L88.3,110.9L87.8,111.0L85.8,112.1L83.0,113.3L79.2,114.6L76.8,115.2L76.3,115.4L71.5,116.3L68.3,116.7L61.8,116.8L58.3,116.6L57.1,116.3L55.2,116.2L53.9,115.8L52.9,115.7L52.6,115.5L51.0,115.2L48.6,114.4L47.5,114.1L47.3,114.0L45.2,113.3L44.3,112.8L43.3,112.5L40.2,111.0L35.5,108.3L35.1,107.8L31.8,105.6L31.0,104.8L30.6,104.6L27.9,102.0L27.7,101.6L28.0,101.2L47.9,101.0L48.6,100.8L50.1,100.8L50.5,100.5L51.2,99.4L52.5,95.9L53.5,93.7L53.5,93.4L54.2,92.1L54.7,90.7L56.1,87.5L56.3,86.8L57.2,84.9L58.1,82.5L58.5,81.8L58.7,80.9L59.5,79.4L59.5,79.2L60.2,77.6L61.2,75.0L61.4,74.8L61.8,73.4L62.2,72.9L62.9,70.9L64.0,68.7L64.9,66.0L65.9,64.0L66.9,61.5L67.1,61.3L67.1,61.1L67.6,60.0L67.8,59.4L68.4,58.2L69.5,55.2L72.3,48.8L72.9,48.3L73.5,48.2L79.1,48.2L83.3,48.0L89.1,48.1L89.6,47.9L92.6,47.9L95.1,47.7L95.3,47.5L96.1,45.6L96.4,45.1L97.1,43.0L97.6,42.1L97.9,40.9L98.4,40.0L98.6,39.4L98.8,39.1L99.9,36.2L100.2,35.6L100.5,34.8L100.9,34.2L101.0,33.5L102.4,30.3L103.0,29.5L103.5,29.6Z M100.1,26.0L101.8,27.7L102.0,28.1L102.0,28.4L101.9,28.5L98.3,28.6L97.4,28.8L95.5,28.7L76.0,29.2L71.2,29.2L62.4,29.5L47.5,29.7L46.5,29.8L27.0,30.2L26.3,30.3L25.2,32.1L24.7,33.8L24.3,34.4L23.5,36.5L23.1,37.0L21.9,40.0L19.9,44.3L19.2,46.1L19.1,46.6L18.8,47.0L18.3,48.3L18.3,48.6L18.6,48.9L28.2,49.0L39.4,48.8L48.0,48.8L48.6,49.2L48.6,49.5L47.9,50.9L47.8,51.4L45.4,57.0L45.4,57.2L44.4,59.3L44.2,59.9L43.4,61.6L41.7,66.0L40.8,67.7L40.4,69.1L39.7,70.5L39.3,71.6L38.3,73.9L38.0,74.8L37.2,76.3L36.7,77.8L36.5,78.1L35.4,80.9L34.1,83.7L34.0,84.4L32.3,88.1L32.3,88.4L31.4,90.1L31.4,90.6L30.9,91.2L30.9,91.8L30.1,93.3L29.7,94.4L29.5,94.7L29.4,95.2L29.2,95.5L28.1,98.2L27.3,99.9L27.3,100.2L27.0,100.5L26.3,100.4L24.8,98.9L22.2,95.5L21.9,95.2L21.9,95.1L21.6,94.7L21.3,94.1L19.9,92.1L18.1,88.9L17.8,88.3L17.5,87.9L17.4,87.5L16.6,85.9L15.3,82.7L13.7,77.4L13.7,77.0L12.9,73.7L12.3,69.1L12.0,65.3L12.1,60.9L12.4,59.4L12.4,57.5L12.9,55.5L12.9,55.0L13.9,50.1L14.8,47.2L15.1,46.9L15.5,45.3L16.2,43.6L16.5,43.1L16.9,41.9L19.8,36.5L20.1,36.2L21.1,34.5L21.7,33.8L22.5,32.5L24.2,30.5L24.3,30.3L26.1,28.3L26.4,27.6L29.0,25.0L30.6,23.7L31.4,22.9L34.5,20.7L36.4,19.5L37.3,18.7L38.4,18.2L39.1,17.7L39.3,17.7L40.6,17.1L41.1,16.9L42.6,16.1L47.1,14.3L48.6,13.8L49.2,13.7L50.4,13.2L51.8,13.0L53.4,12.5L57.8,11.8L60.3,11.5L66.8,11.4L69.6,11.8L70.6,11.8L72.9,12.2L73.5,12.2L75.7,12.7L76.6,13.1L78.1,13.3L78.8,13.6L81.2,14.3L81.5,14.5L83.1,15.0L84.8,15.8L85.3,15.9L89.2,17.9L89.7,18.3L90.8,18.8L92.3,19.9L93.1,20.2L93.5,20.7L96.5,22.8Z" fill="#000" fill-rule="evenodd"/>
</svg>