<svg xmlns="http://www.w3.org/2000/svg" viewBox="0 0 128 128" width="128" height="128">
  <path d="M13.4,11.6L12.6,12.5L12.4,13.1L12.6,16.4L12.4,33.1L12.8,34.4L14.3,35.0L48.0,34.8L50.3,35.0L51.0,35.2L52.0,36.3L52.2,36.9L52.0,63.8L52.2,78.8L52.2,103.0L52.0,112.0L52.2,114.1L52.0,116.1L52.2,116.6L53.0,117.2L72.7,117.2L74.7,116.8L75.4,116.1L75.6,106.8L75.2,82.1L75.4,65.0L75.2,43.3L75.4,37.3L75.6,36.3L76.6,35.2L77.0,35.0L78.7,34.8L89.8,34.8L90.8,35.0L99.6,34.6L106.9,34.8L115.2,34.6L115.6,34.4L116.3,33.8L116.5,32.3L116.0,29.4L116.0,22.1L115.6,13.5L115.4,12.7L114.4,11.9L112.1,11.6L91.8,11.9L83.5,11.6L61.8,11.6L57.8,11.9L45.1,11.9L39.3,11.6L34.5,11.9L17.6,11.9Z" fill="#000" fill-rule="evenodd"/>
</svg>