<svg xmlns="http://www.w3.org/2000/svg" viewBox="0 0 128 128" width="128" height="128">
  <path d="M117.2,9.6L116.5,9.4L88.3,9.5L83.8,9.6L72.3,9.6L71.3,9.8L51.7,9.8L46.5,10.0L39.8,10.0L37.1,10.2L24.6,10.1L16.4,10.4L11.5,10.4L10.1,10.5L9.6,10.7L9.5,15.9L9.8,22.7L9.7,27.6L9.9,29.4L9.9,31.4L10.3,32.1L10.7,32.3L14.2,32.1L21.5,32.1L23.0,31.9L27.2,31.8L29.7,31.9L52.0,31.7L52.6,31.9L53.0,32.6L53.2,40.0L53.3,61.4L53.5,62.8L53.3,65.8L52.8,66.2L51.9,66.3L33.6,66.6L32.9,66.4L32.5,66.0L32.5,62.7L32.3,61.0L32.4,59.0L32.1,37.2L31.8,37.0L31.0,36.7L27.3,36.9L17.3,36.9L14.2,37.1L10.6,37.1L10.2,37.4L10.0,37.8L10.0,45.6L10.3,63.8L10.7,116.9L10.8,118.2L11.2,118.7L13.1,118.8L19.0,118.6L32.2,118.5L32.7,117.9L32.7,89.2L33.1,88.6L33.5,88.5L43.3,88.2L52.6,88.2L53.3,88.4L53.7,88.8L54.0,114.2L53.9,116.2L54.0,117.4L54.2,117.8L54.6,118.1L55.7,118.2L58.9,118.0L74.3,117.9L75.2,117.7L75.4,117.5L75.6,115.2L75.4,103.1L75.4,88.7L75.7,88.1L76.3,88.0L94.4,87.7L95.7,87.9L96.3,88.3L96.5,92.4L96.4,95.4L96.7,116.1L97.0,117.2L97.8,117.5L107.2,117.2L117.2,117.2L117.6,117.4L118.0,117.4L118.5,117.0L118.7,116.5L118.8,112.2L118.6,110.3L118.4,93.1L118.5,90.1L118.3,85.8L118.4,80.7L118.2,75.4L118.3,69.8L118.0,51.0L118.1,44.8L117.9,43.9L118.0,37.7L117.7,35.9L117.1,35.6L104.4,35.6L98.6,35.7L96.6,35.7L95.9,36.0L95.8,37.0L96.0,65.0L95.6,65.6L94.0,65.8L75.8,66.0L75.6,65.9L75.1,65.3L74.8,46.3L74.8,32.9L75.0,31.9L75.6,31.4L76.2,31.3L99.3,31.2L113.7,30.9L116.6,31.0L117.4,30.8L117.7,30.5L117.7,29.7L117.5,10.2Z M74.2,66.7L74.5,67.0L74.6,67.8L74.8,84.9L74.7,86.9L74.1,87.4L67.2,87.4L64.0,87.6L54.5,87.5L54.2,87.2L54.0,85.7L54.0,67.3L54.5,66.8L57.2,66.6L73.4,66.4Z" fill="#000" fill-rule="evenodd"/>
</svg>