<svg xmlns="http://www.w3.org/2000/svg" viewBox="0 0 128 128" width="128" height="128">
  <path d="M98.4,45.6L98.1,45.5L94.6,45.5L84.1,45.7L71.1,45.7L66.6,45.8L66.1,46.0L65.8,46.4L65.7,48.0L65.7,53.7L65.9,56.5L65.8,64.4L65.9,66.7L65.9,75.5L66.0,77.7L66.4,77.8L74.7,69.8L82.1,62.3L85.9,58.6L87.5,56.9L88.1,56.5L98.4,46.2Z M63.1,9.2L50.8,21.5L50.0,22.5L43.3,29.2L43.2,29.5L41.8,30.6L37.2,35.3L32.9,39.8L27.0,45.6L26.8,46.0L26.7,46.9L26.7,52.4L26.6,56.3L26.6,65.2L26.7,69.2L26.9,83.6L27.0,85.9L27.5,89.3L28.3,92.4L29.7,96.4L31.4,100.0L33.0,102.6L35.3,105.7L36.2,106.6L36.2,106.7L39.2,109.7L42.9,112.6L43.1,112.6L43.9,113.2L46.7,114.9L50.3,116.5L54.6,117.9L55.4,118.0L57.9,118.6L60.0,118.9L64.7,119.2L67.0,119.1L68.4,118.8L69.9,118.8L71.5,118.4L72.4,118.3L72.9,118.1L74.3,117.8L74.7,117.6L75.6,117.4L79.3,116.0L80.4,115.4L80.8,115.3L84.9,113.0L86.9,111.5L87.3,111.3L87.9,110.7L88.7,110.1L92.9,105.9L92.9,105.7L93.6,105.0L94.9,103.4L97.1,99.8L98.0,98.1L98.1,97.5L98.8,96.1L99.6,94.2L100.5,91.1L101.1,88.1L101.2,85.6L101.4,84.5L101.4,64.0L101.6,58.9L101.6,47.1L101.4,46.2L101.1,46.2L100.7,46.4L94.5,52.4L79.6,67.4L78.7,68.1L77.3,69.7L76.6,70.2L73.8,73.1L73.5,73.3L70.0,76.8L69.4,77.5L68.4,78.3L66.0,80.7L65.2,81.3L64.7,81.3L64.4,81.0L64.2,80.5L64.2,72.6L64.1,69.1L64.2,67.4L63.9,53.9L64.0,49.3L63.8,39.7L63.8,33.5L63.7,21.1L63.8,17.0L63.6,13.1L63.7,10.1L63.6,9.3L63.5,9.2Z" fill="#000" fill-rule="evenodd"/>
</svg>