<svg xmlns="http://www.w3.org/2000/svg" viewBox="0 0 128 128" width="128" height="128">
  <path d="M109.0,117.1L108.9,116.9L107.8,114.2L107.1,112.9L106.9,112.2L106.5,111.5L106.0,110.2L105.7,109.7L105.1,108.2L104.6,107.4L104.3,106.3L103.2,104.0L102.7,102.5L102.2,101.9L101.7,100.3L100.2,97.2L99.6,95.6L98.2,92.7L98.2,92.4L97.8,91.8L97.3,90.5L96.8,89.5L95.6,86.7L95.2,86.0L94.8,84.6L94.3,83.9L94.1,83.1L93.0,80.9L92.7,80.0L92.1,79.0L91.8,78.8L91.5,78.8L90.8,79.6L89.7,81.3L89.2,81.8L88.3,83.1L88.3,83.3L87.7,83.8L87.2,84.8L86.7,85.4L86.3,86.1L84.5,88.5L83.6,90.1L78.8,96.7L78.0,98.0L76.8,99.5L75.8,101.1L74.6,102.7L70.6,108.6L69.6,109.7L68.9,110.9L67.6,112.6L67.2,113.5L66.4,114.4L66.2,114.8L65.1,116.1L64.7,116.9L64.1,117.5L63.8,117.5L63.2,117.0L61.3,114.6L61.1,114.1L60.8,113.8L60.6,113.4L59.3,111.7L58.4,110.2L57.7,109.6L57.1,108.5L56.6,108.0L55.3,105.9L54.8,105.5L54.2,104.3L52.9,102.8L52.9,102.7L51.4,100.8L51.4,100.4L48.9,97.2L48.4,96.4L45.8,93.0L43.4,89.3L40.3,85.3L38.6,82.5L37.1,80.7L36.4,80.6L35.8,81.5L35.3,83.0L31.9,90.5L31.4,92.1L29.7,95.5L29.4,96.5L28.5,98.6L28.5,98.9L27.6,100.6L26.7,103.0L26.1,104.3L26.0,104.8L25.5,105.5L25.4,106.0L24.9,106.8L24.3,108.2L23.9,109.5L23.5,110.3L23.5,110.6L23.0,111.3L22.9,111.7L21.8,114.2L21.8,114.5L21.0,116.1L21.0,116.3L20.3,117.8L20.2,118.6L20.7,119.0L27.6,119.0L35.6,118.8L58.0,118.8L59.4,118.6L62.1,118.7L63.2,118.5L76.4,118.6L84.5,118.5L100.6,118.5L104.3,118.3L108.1,118.3L108.8,118.2L109.1,117.8Z M114.0,47.1L113.2,46.8L107.8,46.8L106.5,47.0L80.1,47.0L71.4,47.3L70.3,47.2L68.4,47.3L67.7,47.4L67.3,48.0L67.5,65.4L67.4,70.5L67.6,79.8L67.4,81.0L67.5,84.0L67.4,84.4L67.1,84.7L66.7,84.8L63.3,84.9L62.1,84.8L61.7,84.6L61.6,84.2L61.5,82.9L61.5,70.1L61.3,62.6L61.4,52.9L61.1,48.1L60.9,47.8L60.4,47.5L57.7,47.4L48.7,47.4L32.7,47.7L30.1,47.6L25.9,47.8L16.3,47.8L14.5,47.9L14.1,48.1L13.7,48.7L13.6,57.0L13.8,73.3L13.7,79.8L13.9,84.9L13.8,91.5L14.0,100.5L13.7,100.9L13.7,101.1L13.9,101.5L14.0,102.8L13.9,104.7L14.1,109.3L13.8,111.3L14.1,111.9L14.1,116.5L14.2,117.4L14.6,117.5L15.0,117.0L15.4,115.9L17.6,110.9L18.1,109.6L19.2,107.2L19.4,106.5L20.1,105.1L22.1,100.1L23.1,98.0L23.5,96.8L24.2,95.5L24.3,94.9L25.2,93.2L25.7,91.7L26.5,90.1L26.8,89.1L27.2,88.4L28.6,84.9L29.4,83.3L29.7,82.4L31.1,79.4L31.1,79.1L31.9,77.5L33.2,74.3L33.6,73.6L34.4,71.5L35.2,69.8L35.7,69.3L36.0,69.3L36.6,69.9L41.0,75.8L41.2,76.4L42.5,77.9L42.7,78.3L45.9,82.8L46.3,83.5L49.0,87.1L49.8,88.4L50.4,89.0L51.3,90.4L53.3,93.1L55.0,95.7L55.7,96.4L57.0,98.5L58.7,100.6L59.6,102.1L62.1,105.4L62.4,106.0L63.9,107.9L64.4,107.9L65.0,107.3L65.5,106.5L66.6,105.1L69.2,101.2L70.9,99.1L70.9,98.9L71.9,97.4L76.4,91.3L76.5,90.9L77.0,90.4L77.2,90.0L78.8,87.8L79.1,87.0L79.8,86.4L82.0,83.1L82.5,82.6L85.4,78.2L86.1,77.4L87.0,75.9L87.6,75.4L88.4,74.1L88.7,73.7L88.9,73.3L90.8,70.9L90.9,70.3L92.4,68.6L93.0,68.5L93.5,69.2L94.5,71.2L94.6,71.7L95.0,72.4L96.6,76.4L97.1,77.1L97.2,77.5L98.0,79.3L99.7,83.4L100.1,83.9L100.2,84.4L102.9,90.4L103.8,92.7L104.3,93.6L104.4,94.0L106.6,98.8L106.6,99.1L107.5,100.9L107.5,101.1L108.0,101.9L108.3,103.1L109.5,105.5L110.0,107.0L110.5,107.7L111.8,111.0L112.2,111.7L112.2,112.0L112.7,112.8L113.8,115.7L114.5,116.8L114.7,116.9L114.9,116.9L115.1,116.1L114.9,109.7L114.9,98.0L114.7,91.5L114.6,66.9L114.4,61.3L114.5,55.5L114.3,51.4L114.4,48.9L114.3,47.5Z M14.5,42.2L15.0,42.5L23.4,42.5L26.4,42.3L30.8,42.4L61.4,42.0L77.4,42.0L84.0,41.9L89.6,41.9L92.4,41.8L102.8,41.7L107.2,41.8L108.2,41.6L112.9,41.6L113.3,41.3L113.3,41.1L111.4,39.6L108.2,37.8L107.6,37.2L106.3,36.5L105.1,35.6L103.8,34.9L98.8,31.5L97.9,31.0L91.8,27.0L91.2,26.8L88.7,25.1L88.5,25.1L88.4,24.8L87.7,24.5L86.7,23.7L85.3,23.0L84.4,22.2L81.9,20.8L80.9,20.0L78.3,18.3L77.8,18.2L75.8,16.7L74.7,16.2L73.6,15.4L73.2,15.2L72.7,14.8L71.6,14.2L67.4,11.3L66.8,11.1L64.6,9.5L63.9,9.3L63.3,9.3L62.6,9.5L61.1,10.7L59.6,11.6L58.9,12.2L55.5,14.3L55.2,14.7L55.0,14.7L48.4,19.1L47.9,19.3L47.3,19.9L44.6,21.6L43.4,22.6L42.5,23.0L42.1,23.4L37.1,26.6L36.7,27.0L36.0,27.4L34.2,28.7L32.9,29.4L30.5,31.2L29.6,31.6L28.4,32.6L24.4,35.2L23.4,36.0L20.2,37.9L15.7,41.1L15.0,41.5L14.6,41.9Z" fill="#000" fill-rule="evenodd"/>
</svg>