<svg xmlns="http://www.w3.org/2000/svg" viewBox="0 0 128 128" width="128" height="128">
  <path d="M22.8,93.9L22.3,94.6L22.4,95.2L22.5,95.2L23.2,94.3L24.1,94.3L24.6,94.4L24.9,94.7L25.1,95.4L24.4,96.3L23.8,96.7L23.4,96.8L23.1,97.1L22.9,97.1L22.5,97.6L22.2,98.2L22.2,99.0L22.6,99.3L24.9,99.4L25.3,99.2L25.2,98.9L23.2,98.8L22.9,98.6L22.8,98.2L23.9,97.1L24.7,96.7L25.3,96.2L25.4,95.8L25.4,94.6L25.2,94.2L24.6,93.8L23.7,93.7Z M19.0,93.6L18.3,94.2L18.2,96.3L18.9,97.1L19.5,97.2L20.4,97.2L20.7,97.5L20.5,98.3L19.8,98.8L18.9,98.6L18.5,98.1L18.3,98.1L18.3,98.5L18.7,99.2L19.5,99.3L20.4,99.3L21.1,98.6L21.2,98.1L21.2,94.6L21.1,94.2L20.6,93.7Z M20.0,94.2L20.4,94.3L20.7,94.8L20.7,95.9L20.0,96.6L19.4,96.7L18.8,96.2L18.7,94.8L18.8,94.5L19.1,94.3Z M15.0,93.6L14.2,94.2L14.1,94.5L14.2,95.0L14.3,95.0L15.2,94.2L16.1,94.2L16.4,94.5L16.4,95.6L15.5,96.4L15.6,96.6L16.2,96.8L16.4,97.1L16.5,98.1L16.1,98.6L15.8,98.7L14.9,98.6L14.3,97.8L14.1,97.8L14.0,98.4L14.1,98.6L14.9,99.2L16.3,99.2L16.9,98.6L17.0,98.1L17.0,96.9L16.9,96.6L17.1,95.0L17.0,94.3L16.5,93.7Z M11.6,93.6L11.3,93.8L10.7,94.6L11.8,94.7L11.9,94.9L11.8,97.6L11.9,98.5L12.1,98.7L12.3,98.5L12.4,97.9L12.4,93.9L12.1,93.6Z M40.5,11.5L40.1,11.8L40.0,12.1L40.0,41.4L39.9,42.7L39.4,42.8L36.8,42.9L10.2,42.9L9.7,43.0L9.3,43.5L9.3,47.6L9.7,48.1L13.1,48.3L39.6,48.3L40.0,48.6L40.0,49.2L40.1,83.5L40.5,83.8L44.8,83.9L73.7,83.9L76.4,84.0L76.7,84.3L76.8,84.9L76.8,96.7L76.7,101.2L76.5,101.6L76.5,102.0L76.7,102.3L76.8,116.1L76.9,116.5L77.9,116.7L81.7,116.6L82.0,116.3L82.1,114.6L82.3,84.9L82.4,84.4L82.7,84.0L118.1,84.0L118.5,83.9L118.7,83.5L118.7,82.2L118.7,71.8L118.9,69.2L118.8,43.5L118.5,43.2L118.0,43.1L92.1,43.1L87.4,42.9L77.4,43.0L77.2,43.1L76.9,43.6L76.9,65.2L76.8,73.7L76.9,76.6L76.7,78.2L76.2,78.4L72.7,78.5L58.3,78.3L53.5,78.4L47.2,78.3L46.0,78.2L45.8,78.0L45.6,77.3L45.6,71.7L45.8,69.2L45.6,67.8L45.7,48.8L46.2,48.3L73.9,48.3L74.2,48.0L74.3,47.7L74.4,43.9L74.3,43.4L74.0,43.0L54.6,42.8L50.5,42.9L46.2,42.7L45.8,42.4L45.7,42.0L45.8,41.1L45.6,38.9L45.8,33.4L45.6,32.5L45.8,27.0L45.7,21.8L45.9,20.6L45.7,19.3L45.6,12.0L45.2,11.5Z M82.6,48.7L83.2,48.3L89.4,48.3L103.5,48.4L111.1,48.3L113.1,48.5L113.4,49.1L113.4,60.1L113.2,69.9L113.3,72.6L113.1,78.3L112.6,78.6L90.2,78.6L82.7,78.4L82.4,78.0L82.3,76.7L82.3,72.0L82.5,70.6L82.5,49.2Z" fill="#000" fill-rule="evenodd"/>
</svg>