<svg xmlns="http://www.w3.org/2000/svg" viewBox="0 0 128 128" width="128" height="128">
  <path d="M9.1,29.0L9.1,29.4L9.4,29.7L15.4,30.0L17.0,30.7L17.9,31.6L18.3,32.7L18.6,33.9L18.7,36.0L18.4,37.0L18.2,37.2L17.3,37.5L9.9,37.4L9.5,37.6L9.4,38.2L9.8,38.5L17.6,38.7L18.2,38.9L18.5,39.2L18.7,39.8L18.8,43.2L18.7,44.6L18.7,58.5L18.8,59.5L18.8,62.7L18.9,64.0L19.6,67.9L20.5,70.9L22.4,74.3L23.6,75.9L24.7,76.8L25.2,77.6L27.5,79.3L28.7,79.9L28.9,80.1L29.5,80.3L31.0,81.1L31.8,81.2L31.9,81.4L33.5,81.7L34.4,82.1L37.4,82.5L41.5,82.4L43.7,81.9L45.3,81.2L45.7,81.2L47.7,80.2L49.2,79.1L49.8,78.9L51.9,77.2L52.2,77.1L53.4,75.9L54.5,74.5L55.6,72.5L56.1,71.0L56.2,70.0L56.2,68.0L55.8,66.3L55.0,64.5L53.8,63.2L53.1,62.7L51.4,61.8L50.0,61.4L47.3,61.4L46.0,61.7L45.1,62.0L43.8,62.8L42.4,64.1L41.9,64.7L41.3,66.0L40.7,68.1L40.6,69.5L40.8,70.8L41.2,72.1L41.8,73.4L42.4,74.1L44.0,75.6L44.6,75.9L44.8,76.1L45.5,76.3L46.1,76.6L49.5,77.1L49.7,77.3L49.7,77.7L48.6,78.6L46.7,79.2L45.4,79.5L42.2,79.3L41.4,79.0L40.2,78.7L40.0,78.6L39.4,78.4L38.0,77.7L36.6,76.7L34.9,74.9L33.7,72.6L33.4,71.2L33.1,70.6L33.1,69.9L32.9,69.6L32.9,54.5L32.7,51.4L32.8,44.3L32.6,43.1L32.6,41.0L32.8,40.5L32.8,39.7L33.0,39.4L33.5,39.0L36.6,38.7L44.3,38.6L54.0,38.8L55.8,39.0L57.6,39.8L58.3,40.3L58.8,40.5L59.9,41.9L60.6,43.4L60.9,44.7L61.0,46.8L61.1,47.8L61.0,50.3L61.2,51.7L61.3,62.5L61.0,80.0L61.0,93.1L60.6,95.6L60.1,96.6L59.4,97.5L58.3,98.2L57.5,98.4L53.9,98.8L53.6,99.1L53.6,99.3L53.8,99.5L58.3,99.6L67.5,99.6L71.8,99.5L75.1,99.5L78.3,99.4L82.5,99.5L82.9,99.4L83.0,99.2L82.9,98.5L79.2,98.2L77.4,97.8L76.9,97.5L76.2,96.9L75.5,95.9L75.1,94.7L74.9,93.4L74.7,89.6L74.7,66.2L75.1,65.0L74.8,63.9L74.8,54.2L74.9,46.5L75.3,43.9L75.8,42.7L76.2,41.7L77.1,40.7L79.0,39.4L80.8,38.9L82.6,38.6L85.7,38.5L86.5,38.7L87.7,38.7L88.9,39.0L90.0,39.1L91.9,39.7L93.1,40.3L93.8,40.5L96.3,41.9L98.1,43.2L99.4,44.4L101.0,46.4L102.4,49.2L103.2,51.1L103.4,52.2L103.9,53.6L104.2,55.5L104.3,57.5L104.5,58.4L104.3,62.6L103.8,65.1L103.8,65.8L103.6,66.4L103.0,69.0L101.9,71.6L100.2,74.4L98.1,76.4L97.4,77.0L96.2,77.6L96.0,77.8L95.4,78.0L94.7,78.4L93.3,78.7L91.9,78.9L89.7,78.9L88.4,78.7L86.7,78.2L86.4,78.0L85.8,77.8L85.4,77.5L84.8,77.3L84.1,76.7L84.2,76.3L84.9,76.3L86.2,76.6L87.5,76.6L88.4,76.4L89.6,76.0L90.4,75.6L91.6,74.7L92.5,73.8L93.3,72.6L93.8,71.6L94.3,70.0L94.3,67.3L94.0,66.1L93.2,64.5L91.9,62.9L90.6,61.9L89.5,61.3L87.4,60.8L85.9,60.8L84.5,61.2L82.7,61.9L81.4,62.9L80.4,64.0L79.3,65.9L79.0,66.9L78.8,67.8L78.8,69.5L79.0,70.6L79.8,72.6L80.8,74.4L82.6,76.5L84.0,77.8L86.8,79.6L89.6,80.8L89.9,81.0L90.9,81.2L91.3,81.5L93.9,82.0L95.7,82.1L100.2,82.0L101.6,81.7L104.2,81.0L106.3,80.2L108.0,79.3L108.4,79.0L109.5,78.3L111.2,76.8L112.1,76.3L114.6,73.4L115.5,72.2L116.7,70.3L116.7,69.9L117.8,67.7L118.6,64.8L118.7,63.8L118.9,63.1L119.1,61.4L119.1,58.7L118.9,56.4L118.6,54.6L118.2,53.4L118.2,53.1L117.0,50.2L115.4,47.4L113.3,44.6L110.6,42.0L107.8,40.2L106.0,39.4L104.8,39.0L104.3,38.7L100.2,37.7L96.7,37.5L86.0,37.6L83.6,37.4L75.8,37.5L67.4,37.3L47.6,37.4L43.5,37.2L34.2,37.4L33.3,37.2L32.9,36.8L32.7,30.0L32.6,29.4L32.3,28.8L25.7,28.6L10.4,28.6L9.6,28.7Z" fill="#000" fill-rule="evenodd"/>
</svg>