<svg xmlns="http://www.w3.org/2000/svg" viewBox="0 0 128 128" width="128" height="128">
  <path d="M53.8,64.7L53.8,83.8L54.0,86.9L54.3,87.3L80.8,87.3L81.1,87.4L82.0,87.4L82.2,87.3L117.9,87.3L118.3,87.3L118.8,86.7L118.8,83.9L119.1,83.6L119.1,83.4L118.8,82.9L118.8,67.6L118.6,64.9L118.3,64.7L117.4,64.6L106.0,64.6L104.6,64.4L98.3,64.4L97.9,64.1L97.9,62.7L97.6,60.2L97.6,58.8L97.9,57.7L97.9,50.5L97.6,49.4L97.8,48.2L97.7,46.5L97.3,44.6L97.3,41.4L96.8,41.0L87.5,41.0L81.5,40.8L76.0,40.9L75.7,41.3L75.7,64.0L75.4,64.3L75.1,64.4L54.4,64.3L54.1,64.4Z M9.2,41.5L9.1,42.4L9.0,51.7L9.1,62.5L9.2,62.8L9.7,63.1L10.4,63.2L17.3,63.0L30.3,63.1L30.7,63.4L30.8,64.0L30.9,69.1L30.9,86.7L30.9,87.0L31.3,87.3L40.9,87.3L43.0,87.3L43.7,87.6L44.2,87.3L51.8,87.3L52.5,87.1L52.7,86.6L52.7,65.0L52.8,63.5L53.2,63.2L57.2,63.1L67.3,63.1L73.1,63.3L74.3,63.1L74.6,62.7L74.7,52.6L74.5,47.8L74.5,41.4L74.4,41.0L74.1,40.8L46.3,40.6L23.7,40.7L22.8,40.5L22.2,40.7L20.1,40.6L9.7,40.9L9.5,41.0Z" fill="#000" fill-rule="evenodd"/>
</svg>