<svg xmlns="http://www.w3.org/2000/svg" viewBox="0 0 128 128" width="128" height="128">
  <path d="M78.8,12.9L69.0,12.9L66.2,13.0L65.9,13.3L65.8,20.3L65.8,22.8L65.7,36.3L65.8,44.3L65.7,56.8L65.6,57.1L65.4,57.3L64.5,57.5L62.6,57.4L62.4,57.2L62.2,56.6L62.2,55.6L62.4,55.2L62.4,13.2L62.2,13.0L49.9,12.9L48.8,13.1L47.2,14.8L44.1,18.4L39.4,23.5L36.3,27.1L31.2,32.6L28.1,36.2L21.4,43.6L18.4,47.1L17.2,48.3L15.9,49.9L10.3,56.2L9.3,57.4L9.2,60.2L9.1,66.9L9.2,71.3L9.4,71.5L32.3,71.6L33.0,71.4L48.5,71.4L48.9,71.7L48.9,103.2L48.8,103.9L48.9,104.2L49.0,108.4L48.9,114.8L49.1,115.1L49.3,115.2L61.5,115.3L61.9,115.1L62.0,115.0L62.0,93.9L62.2,84.9L62.1,82.2L62.2,72.1L62.6,71.7L65.1,71.7L65.5,72.0L65.5,85.0L65.7,95.9L65.7,108.6L65.4,113.4L65.5,115.0L65.8,115.3L78.4,115.3L79.0,115.1L81.2,112.8L82.7,111.0L85.9,107.8L88.9,104.4L89.6,103.5L90.5,102.7L92.5,100.4L93.3,99.6L98.4,94.1L99.7,92.4L102.5,89.6L103.2,88.7L104.6,87.3L106.3,85.4L106.5,85.1L107.2,84.5L108.2,83.3L110.2,81.1L110.9,80.2L117.4,73.3L117.6,73.0L118.8,71.8L118.9,71.4L119.1,65.3L119.1,58.6L118.9,58.3L118.7,58.1L114.4,58.0L79.6,57.7L79.3,57.4L79.1,54.5L79.3,37.9L79.1,27.3L79.1,13.4Z M101.2,71.5L101.2,72.1L98.2,75.1L94.4,79.2L89.4,84.3L88.9,85.0L79.2,94.6L78.8,94.5L78.8,81.8L78.9,79.3L78.8,72.5L78.9,71.7L79.2,71.5L88.2,71.5L88.5,71.7L89.1,71.7L89.5,71.5Z M48.8,34.3L48.9,34.4L48.6,57.6L48.3,57.9L29.8,57.7L27.6,57.9L27.5,57.7L27.5,57.5L31.8,52.9L35.9,48.2L37.1,47.0L37.2,46.8L38.6,45.1L44.1,39.2L47.1,35.7L48.3,34.4Z" fill="#000" fill-rule="evenodd"/>
</svg>