<svg xmlns="http://www.w3.org/2000/svg" viewBox="0 0 128 128" width="128" height="128">
  <path d="M93.3,46.7L93.0,46.9L92.8,47.4L92.8,55.6L92.7,62.4L92.7,98.3L93.2,98.5L118.7,98.5L118.9,98.3L119.1,97.6L119.0,90.7L118.6,90.2L103.4,90.2L102.0,90.1L101.5,89.7L101.6,89.2L101.1,88.3L101.1,75.3L101.3,68.5L101.2,59.0L101.4,55.5L101.6,55.2L102.0,55.1L118.7,55.1L119.0,54.8L118.9,47.1L118.6,46.8L118.3,46.7L112.0,46.7Z M119.0,100.3L118.6,99.9L117.8,99.8L91.8,99.8L91.2,99.3L91.1,91.7L91.3,48.5L91.2,47.1L90.8,46.7L67.2,46.7L65.1,46.8L64.7,47.2L64.6,50.3L64.6,54.1L64.7,54.8L65.0,55.0L65.4,55.1L68.6,55.1L69.0,55.3L69.0,55.5L68.0,56.2L67.3,57.0L66.6,58.7L66.6,60.8L66.7,61.4L67.2,62.6L67.2,63.0L64.8,64.5L63.9,65.5L63.3,66.6L62.9,67.9L62.9,68.8L63.2,69.8L63.9,71.1L64.9,72.2L64.8,72.5L63.3,72.7L62.8,73.3L62.7,89.4L62.6,89.8L62.0,90.2L46.1,90.2L45.6,90.2L45.3,89.9L45.1,88.5L45.1,72.3L45.3,59.7L45.2,57.0L45.4,55.5L45.5,55.4L46.2,55.2L59.6,55.2L62.5,55.1L63.1,54.8L63.2,54.0L63.2,47.6L63.0,47.2L62.7,46.9L60.7,46.8L37.5,46.9L37.3,47.0L36.9,47.4L36.7,55.2L36.8,72.6L36.7,86.9L36.7,98.0L37.0,98.5L38.3,98.6L68.0,98.6L70.7,98.4L71.0,98.2L71.1,97.8L71.2,92.1L71.1,90.2L71.3,73.0L71.0,72.6L71.0,72.2L72.8,70.6L73.3,70.5L73.8,70.9L74.2,71.3L75.5,72.2L75.4,72.5L73.3,72.6L72.7,73.0L72.6,98.6L72.5,99.3L72.0,99.8L35.6,99.8L35.2,99.3L35.2,98.6L35.3,77.1L35.2,72.5L35.4,65.8L35.4,47.8L35.2,47.2L33.0,47.0L11.2,47.1L9.9,47.2L9.4,47.5L9.3,54.8L9.4,55.2L12.4,55.4L26.5,55.3L27.0,55.6L27.1,75.5L26.9,107.0L27.0,107.9L27.3,108.2L66.2,108.0L66.5,108.1L66.9,108.6L67.4,108.7L67.9,108.1L68.2,108.0L80.5,108.0L80.9,107.9L81.2,86.4L81.2,73.1L80.9,72.4L82.3,71.2L82.5,71.2L82.7,71.4L82.8,73.3L82.6,85.3L82.6,107.3L82.9,107.9L84.4,108.0L103.9,107.9L104.5,108.2L105.1,108.2L105.9,107.9L118.4,107.9L118.9,107.6L119.0,106.9Z M67.2,64.1L67.8,63.9L68.2,64.2L69.2,65.8L72.3,69.5L72.3,70.0L71.4,70.6L70.8,70.6L70.0,70.3L69.1,69.6L67.6,68.1L67.1,67.3L66.7,66.1L66.8,64.8Z M76.9,63.4L77.3,63.3L77.7,63.6L78.0,64.6L78.6,65.2L79.5,65.7L81.0,65.7L82.3,64.9L82.6,65.0L82.8,65.8L82.7,67.0L82.6,67.2L82.1,67.3L81.8,67.1L81.7,67.3L82.0,68.1L82.0,68.8L81.5,69.4L80.6,69.5L79.4,68.8L78.3,68.0L76.0,65.6L76.0,64.9L76.6,63.6Z M70.9,55.7L71.5,55.6L72.1,55.9L72.9,56.9L73.4,57.7L73.6,59.6L73.6,60.1L73.1,60.7L72.6,60.8L72.1,60.5L70.6,58.1L70.5,56.4Z M75.1,55.2L82.5,55.2L82.8,55.7L82.9,56.4L82.7,61.2L82.5,61.4L82.3,61.4L81.0,60.6L79.6,60.6L78.8,60.9L77.1,62.5L76.6,63.3L75.5,64.4L75.0,64.4L73.3,62.2L73.2,61.6L73.8,61.1L74.4,60.9L75.2,60.4L76.0,59.6L76.4,58.9L76.3,57.1L75.8,56.3L75.1,55.5Z M93.0,20.0L92.8,22.8L92.9,24.3L92.8,31.3L92.8,43.7L92.8,45.1L93.2,45.5L118.5,45.6L118.8,45.4L119.0,44.8L118.9,37.8L118.7,37.4L118.3,37.2L107.6,37.2L101.5,37.1L101.2,36.7L101.1,35.9L101.2,34.2L101.0,32.6L101.2,30.6L101.1,20.0L101.0,19.8L100.5,19.6L93.7,19.6L93.3,19.7Z M37.4,19.7L37.0,20.2L36.8,31.9L36.9,45.3L37.4,45.6L62.5,45.6L63.0,45.4L63.2,44.9L63.2,37.7L62.8,37.4L47.9,37.3L45.9,37.2L45.4,36.8L45.3,19.9L44.8,19.6Z M35.4,19.8L34.8,19.6L28.3,19.6L27.8,19.7L27.4,20.1L27.2,22.3L27.3,24.9L27.1,29.1L27.1,35.4L27.1,36.3L26.4,37.2L25.2,37.4L14.8,37.3L9.7,37.5L9.5,37.6L9.4,38.1L9.4,45.3L9.7,45.6L10.6,45.7L34.8,45.6L35.2,45.4L35.4,44.3L35.4,32.2L35.6,29.3L35.6,20.2Z M91.2,19.9L90.8,19.6L86.9,19.5L83.6,19.6L83.2,20.0L83.0,20.9L82.9,35.2L82.8,36.5L82.6,37.0L82.3,37.1L81.0,37.2L65.1,37.3L64.7,37.8L64.7,38.6L64.7,44.8L64.8,45.3L65.5,45.5L69.9,45.6L90.8,45.5L91.2,45.2Z" fill="#000" fill-rule="evenodd"/>
</svg>