<svg xmlns="http://www.w3.org/2000/svg" viewBox="0 0 128 128" width="128" height="128">
  <path d="M37.5,17.8L36.1,18.6L35.7,18.7L34.0,19.8L32.6,20.5L30.5,22.1L29.8,22.4L25.0,26.4L22.1,29.4L19.0,33.3L16.1,37.7L13.7,42.4L12.7,44.7L11.6,48.0L10.5,51.9L9.8,55.4L9.2,60.4L9.1,66.7L9.5,71.5L9.8,72.2L9.9,73.8L10.3,74.9L10.7,77.4L11.8,81.0L12.0,81.1L13.0,84.4L13.5,85.2L13.5,85.5L13.9,86.1L14.8,88.2L16.4,91.1L17.0,91.9L17.6,92.9L18.0,93.3L18.3,93.9L20.2,96.5L22.0,98.6L24.5,101.2L28.3,104.5L29.4,105.2L30.1,105.9L30.8,106.2L33.0,107.8L34.5,108.4L35.2,109.1L40.5,111.6L41.3,111.7L42.2,112.1L44.3,112.7L45.6,113.2L51.7,114.4L54.4,114.7L57.7,114.8L57.9,114.7L58.2,114.3L58.4,110.8L58.4,100.2L58.6,99.6L58.6,80.5L58.0,80.2L48.6,80.1L47.5,80.2L47.2,80.3L47.0,81.1L46.7,97.5L46.6,97.9L46.2,98.3L45.3,98.4L35.8,98.4L35.4,98.0L35.4,97.4L35.4,89.7L35.6,72.8L35.8,71.9L35.8,70.9L35.9,70.4L36.4,70.1L36.8,70.0L46.8,69.9L63.3,70.0L68.0,70.2L92.4,70.3L93.0,70.8L93.0,71.5L93.0,85.2L92.8,97.6L92.6,98.2L92.3,98.4L84.9,98.5L82.2,98.4L81.7,98.1L81.6,80.7L81.3,80.4L80.9,80.3L80.1,80.2L70.8,80.3L70.4,80.3L70.2,80.5L70.0,81.5L69.9,83.7L70.0,101.1L69.8,114.1L70.0,114.6L70.3,114.8L71.3,114.8L72.0,114.6L72.6,114.7L77.5,114.1L82.5,113.2L85.2,112.3L85.8,112.2L87.2,111.6L88.1,111.4L90.1,110.5L90.5,110.4L95.3,107.8L95.7,107.4L98.1,105.9L99.3,104.9L99.9,104.5L102.7,102.1L105.7,99.1L108.0,96.4L108.7,95.7L109.5,95.3L110.3,94.5L111.1,93.2L112.1,91.2L112.2,90.8L112.4,90.6L112.6,90.0L112.9,89.6L113.5,88.1L113.9,87.4L114.4,85.7L115.2,84.2L115.3,83.6L115.6,83.2L116.5,80.3L116.7,79.5L117.0,78.7L117.1,78.0L117.6,76.7L117.7,75.7L118.5,71.9L118.5,70.9L118.7,70.1L118.7,69.1L118.9,68.7L118.9,65.7L119.1,64.8L118.9,59.4L118.7,58.9L118.6,57.5L118.1,54.9L118.1,54.4L117.0,49.8L115.6,45.3L114.8,43.8L114.7,43.1L113.1,39.8L110.9,35.9L110.4,35.3L110.1,34.6L108.9,33.2L108.0,31.8L105.4,28.7L101.7,25.1L98.1,22.3L97.2,21.8L96.5,21.2L94.1,19.7L91.5,18.4L91.1,18.0L89.5,17.3L87.6,16.7L87.4,16.5L82.6,15.1L78.2,14.2L75.2,13.8L73.8,13.8L72.6,13.6L71.0,13.7L70.6,14.0L70.5,14.5L70.5,17.0L70.4,18.6L70.4,47.9L70.9,48.3L71.9,48.4L81.3,48.5L81.7,48.3L82.0,47.8L82.1,47.3L82.0,45.1L82.2,38.9L82.2,31.7L82.4,30.5L83.0,30.1L83.4,30.0L92.7,30.2L93.3,30.7L93.4,31.8L93.4,39.7L93.2,42.1L93.3,44.0L93.1,47.0L93.3,54.7L93.2,56.9L93.0,57.8L92.4,58.2L90.5,58.3L68.4,58.3L62.1,58.2L53.0,58.2L50.6,58.0L37.9,57.9L36.2,57.7L35.9,57.5L35.8,57.2L35.8,53.0L35.9,46.6L35.9,39.3L36.1,36.8L36.2,30.4L36.3,29.7L36.7,29.4L45.0,29.4L46.6,29.5L47.2,29.9L47.4,30.6L47.3,47.5L47.5,47.8L48.2,48.1L58.3,48.2L58.5,48.1L58.9,47.7L59.0,47.3L59.0,43.5L59.2,40.7L59.1,37.0L59.2,33.6L59.3,14.3L59.1,13.6L58.8,13.4L56.6,13.4L52.9,13.9L51.9,13.9L49.8,14.3L48.7,14.3L48.0,14.6L45.1,15.1L43.0,15.9L42.5,16.0Z" fill="#000" fill-rule="evenodd"/>
</svg>