<svg xmlns="http://www.w3.org/2000/svg" viewBox="0 0 128 128" width="128" height="128">
  <path d="M48.9,9.3L48.5,9.7L48.5,10.3L48.5,28.1L48.5,41.5L48.3,41.9L47.7,42.3L47.0,42.4L19.3,42.4L16.3,42.2L13.1,42.2L12.7,42.6L12.6,43.4L12.6,57.0L13.0,57.3L46.3,57.3L47.6,57.4L48.4,57.9L48.5,58.3L48.5,62.8L48.4,67.3L48.4,108.0L48.2,116.1L48.5,116.5L62.1,116.6L62.5,116.4L63.1,115.8L63.7,114.9L66.6,112.0L69.4,108.6L70.5,107.5L81.4,94.9L83.1,93.3L83.9,93.2L84.6,93.8L86.3,96.2L86.9,96.8L87.5,97.9L88.3,98.8L89.9,101.1L90.5,101.7L92.2,104.1L94.4,106.9L95.5,108.5L98.9,112.8L102.5,117.8L103.4,118.9L104.1,119.0L105.5,117.7L106.2,117.4L107.0,116.6L109.1,115.0L110.6,113.7L111.2,113.4L115.0,110.2L115.3,110.1L115.7,109.7L115.7,109.3L115.2,108.6L113.8,107.1L113.2,106.2L109.4,101.5L108.8,100.5L108.3,100.2L103.3,93.6L101.6,91.6L100.8,90.4L100.0,89.6L98.4,87.3L96.5,85.2L94.3,82.2L94.0,81.2L94.6,80.0L98.4,75.9L98.9,75.1L100.2,73.7L100.6,73.1L102.8,70.8L108.1,64.6L112.0,60.5L112.2,60.1L114.0,58.0L114.3,57.5L114.4,43.2L113.9,42.8L108.0,42.9L100.4,42.6L85.6,42.6L72.5,42.4L69.7,42.6L68.4,42.4L64.9,42.5L63.5,42.3L63.2,42.0L63.1,41.5L63.1,30.0L63.2,22.4L63.1,21.1L63.3,15.8L63.2,9.7L62.8,9.4L60.5,9.5L54.7,9.3Z M63.5,65.7L64.1,66.3L65.7,68.4L67.4,70.5L68.6,72.4L72.1,76.9L72.3,77.3L75.2,81.2L75.3,82.0L75.0,82.9L73.5,84.7L72.6,85.6L71.6,87.1L70.1,88.5L69.1,89.9L67.1,92.0L65.5,94.0L63.8,95.7L63.1,95.9L62.8,95.1L62.8,73.5L63.0,65.9L63.1,65.7Z M75.6,58.3L76.1,58.0L78.2,58.0L96.0,58.1L96.2,58.3L96.2,58.7L93.4,62.1L91.5,64.1L90.9,64.9L90.1,65.7L89.0,67.0L88.4,67.5L87.2,69.2L85.9,70.4L85.4,70.6L84.5,69.8L83.6,68.7L82.9,67.6L81.5,66.1L79.5,63.3L75.8,58.8Z" fill="#000" fill-rule="evenodd"/>
</svg>