<svg xmlns="http://www.w3.org/2000/svg" viewBox="0 0 128 128" width="128" height="128">
  <path d="M86.3,72.6L86.0,73.0L85.9,74.6L85.9,90.7L85.7,98.9L85.8,118.2L86.4,118.8L101.2,118.9L101.7,118.4L101.7,91.4L101.9,86.9L101.8,73.0L101.3,72.6L100.1,72.5Z M93.6,41.1L91.8,41.3L90.8,41.8L90.5,41.8L89.1,42.6L87.7,43.9L86.9,44.9L85.9,47.1L85.6,48.3L85.5,50.1L86.0,52.4L86.7,54.0L87.2,54.8L89.1,56.5L90.5,57.4L92.0,57.9L95.4,58.0L97.9,57.1L99.7,55.9L100.5,55.0L101.4,53.7L102.0,52.4L102.4,50.3L102.4,48.8L102.1,47.0L101.4,45.4L100.3,43.9L99.3,42.9L97.6,41.8L96.4,41.4L94.6,41.1Z M117.4,26.6L106.1,26.6L101.5,26.9L101.5,27.2L101.7,27.4L104.7,28.7L108.2,30.9L110.7,33.2L113.1,36.2L114.8,39.1L115.7,41.6L116.8,45.8L116.8,47.1L117.1,49.0L116.8,53.0L115.9,56.4L115.4,57.2L115.4,57.5L114.6,59.5L112.5,63.2L111.1,65.0L107.4,68.4L104.0,70.6L101.7,71.6L101.7,72.1L114.3,72.1L117.4,72.0L117.6,71.6L117.5,45.1L117.7,42.6L117.9,27.4L117.7,26.9Z M117.6,9.5L110.6,9.4L108.6,9.6L103.8,9.6L99.2,9.8L97.8,9.7L94.3,9.9L77.8,10.0L65.5,10.4L54.0,10.5L51.0,10.6L45.9,10.6L43.6,10.8L33.8,10.8L32.3,11.0L11.4,11.4L10.6,11.6L10.5,11.8L10.3,21.2L10.4,26.5L10.5,26.8L10.9,27.2L24.0,27.1L27.3,26.9L40.0,26.7L41.4,26.8L52.3,26.5L54.7,26.6L55.4,27.2L55.4,32.8L55.6,33.1L55.5,46.9L55.7,67.0L55.6,74.5L55.8,116.5L55.9,118.0L56.1,118.5L56.4,118.7L70.1,118.8L70.7,118.7L71.0,118.5L71.2,118.1L71.5,61.7L71.5,26.8L71.9,26.4L74.2,26.2L117.4,25.7L117.7,25.4L117.8,25.1L118.0,10.5L117.9,9.9Z" fill="#000" fill-rule="evenodd"/>
</svg>