<svg xmlns="http://www.w3.org/2000/svg" viewBox="0 0 128 128" width="128" height="128">
  <path d="M18.8,117.5L18.2,117.4L17.6,118.1L16.6,120.2L17.4,120.1L17.5,119.7L18.1,119.2L18.5,119.5L18.4,120.2L19.0,120.2L19.0,117.8Z M13.6,117.3L13.2,117.5L12.7,118.1L12.6,118.4L12.7,118.5L13.2,118.5L13.5,118.4L13.9,118.7L13.8,120.2L14.5,120.2L14.4,117.7L14.2,117.4Z M25.5,117.3L25.2,117.9L25.1,119.9L25.3,120.1L26.0,120.1L26.8,119.9L27.4,120.2L28.1,120.2L27.5,119.4L26.1,119.3L25.7,118.7L25.7,118.4L26.1,118.0L26.8,117.8L27.7,117.8L27.9,117.4L27.0,117.2Z M21.2,117.3L20.6,118.3L20.5,119.7L20.5,120.2L21.0,120.2L21.1,118.4L21.8,117.8L22.6,117.8L23.2,118.3L23.4,118.7L23.4,120.2L23.9,120.2L23.9,118.8L23.6,117.8L23.0,117.2Z M68.2,65.8L67.0,66.8L66.5,67.6L65.2,70.4L64.8,72.2L64.6,74.5L64.5,80.8L64.8,89.5L65.1,91.6L65.2,94.2L65.7,97.4L65.7,98.1L66.2,99.7L66.9,101.5L68.5,103.9L70.1,105.4L72.8,107.0L76.6,108.0L80.8,108.4L90.4,108.5L94.7,108.2L95.9,107.8L96.9,107.7L98.8,107.0L100.1,106.5L101.5,105.4L103.3,103.6L104.1,102.4L104.8,100.6L105.5,97.6L105.8,93.6L105.9,83.0L105.5,75.3L105.2,73.1L104.6,70.7L103.7,68.4L103.3,68.0L102.9,67.2L101.4,65.6L100.2,64.7L98.0,63.6L94.6,62.8L91.3,62.4L83.8,62.4L81.5,62.6L78.6,62.6L78.0,62.8L77.1,62.8L76.5,63.1L76.4,63.3L76.4,65.2L76.7,69.3L77.3,72.2L77.9,73.3L78.9,74.4L79.6,74.9L81.4,75.3L81.6,75.5L81.6,76.0L69.7,76.0L69.0,75.5L68.9,74.9L69.0,65.9L68.7,65.6Z M81.8,67.2L85.2,67.0L89.6,67.0L93.5,67.3L95.5,67.6L96.5,68.0L98.0,68.9L98.8,69.6L99.9,71.1L100.5,73.1L101.0,77.1L101.0,81.3L101.2,83.7L101.1,96.4L100.7,97.8L100.6,98.9L100.2,100.0L98.5,102.0L96.8,102.9L95.5,103.3L92.6,103.6L92.0,103.8L87.3,103.9L81.4,103.8L77.0,103.3L76.7,103.1L74.7,102.7L72.7,101.7L71.1,100.1L70.0,98.1L69.5,95.3L69.3,91.3L69.0,88.7L68.9,81.4L69.1,80.9L69.5,80.7L83.9,80.7L84.4,80.3L84.9,79.2L86.1,75.5L86.2,74.9L86.7,73.7L86.8,72.5L86.4,72.2L83.2,71.7L82.1,71.1L81.6,70.6L81.2,69.1L81.2,67.7Z M96.7,22.6L95.0,21.4L94.1,21.2L93.9,21.0L91.5,20.5L87.0,20.3L84.3,20.5L83.2,20.4L80.5,20.6L76.2,20.7L75.7,21.1L75.6,28.1L75.9,46.0L76.2,46.4L76.8,46.6L87.6,46.6L91.7,46.2L94.1,45.6L95.9,44.6L97.1,43.7L98.1,42.7L99.2,41.0L99.7,40.0L100.2,38.4L100.5,36.3L100.6,32.5L100.4,30.2L100.3,29.8L100.1,28.3L99.6,26.8L98.9,25.3L98.1,24.0Z M80.9,26.0L81.4,25.8L84.6,25.6L90.5,25.7L92.5,26.1L93.3,26.5L94.7,27.7L95.5,29.4L95.9,31.3L95.9,35.8L95.3,38.1L94.7,39.1L93.8,40.1L93.0,40.7L92.0,41.1L88.1,41.5L81.2,41.5L80.7,41.1L80.5,26.6Z M104.9,13.2L103.0,12.1L102.4,11.6L101.8,11.5L101.1,11.0L99.5,10.5L98.7,10.4L97.6,10.0L93.4,9.5L88.1,9.3L64.8,9.8L63.4,10.0L59.1,10.0L58.7,10.2L58.5,10.6L58.3,11.7L58.0,12.5L57.9,14.2L57.6,15.2L57.3,17.4L57.1,17.8L56.8,20.2L57.1,20.6L57.4,20.7L60.1,20.7L61.4,21.0L62.0,21.2L62.8,22.0L63.3,23.0L63.7,26.1L64.0,39.7L63.9,41.0L63.7,41.2L56.7,41.4L53.6,41.3L51.8,41.5L30.7,41.4L27.4,41.5L15.6,41.5L14.9,42.0L13.9,47.3L13.0,51.1L12.6,53.7L11.0,60.6L10.8,62.1L11.1,62.4L19.7,62.4L20.1,62.2L20.5,61.3L20.7,60.4L21.4,59.2L22.8,57.9L24.4,57.4L26.1,57.2L31.6,57.2L33.5,57.3L34.0,57.7L34.3,66.0L34.6,88.4L34.6,101.5L34.4,106.8L34.7,107.4L36.4,107.6L53.6,107.5L53.9,107.3L54.4,106.6L54.5,105.7L55.3,103.2L55.9,103.2L57.3,106.7L58.7,109.1L59.9,110.8L61.9,112.8L63.9,114.4L67.3,116.4L69.9,117.3L74.6,118.4L77.3,118.6L78.8,118.6L79.3,118.8L87.7,118.8L90.1,118.4L91.2,118.4L93.3,117.9L96.0,116.8L100.1,114.4L105.3,110.7L106.1,109.9L106.7,109.7L109.6,107.2L112.1,104.8L114.5,102.0L115.3,100.8L116.2,99.1L116.8,97.0L117.1,95.2L117.1,93.0L117.3,92.2L117.3,89.7L117.5,87.9L117.4,78.6L117.2,77.8L117.1,73.9L116.3,68.2L115.4,65.3L113.9,62.0L112.8,60.4L112.7,60.1L110.4,57.5L107.3,55.1L104.5,53.9L103.5,53.7L102.5,53.2L99.7,52.9L98.8,52.6L97.4,52.6L97.2,52.3L97.2,52.0L99.2,50.5L104.2,46.6L108.6,42.5L109.9,40.8L111.5,38.0L112.1,35.8L112.4,32.1L112.3,28.0L112.0,25.5L111.2,21.9L109.6,18.3L107.9,16.0L105.8,13.9Z M63.7,57.4L64.2,57.5L64.4,57.9L64.5,60.0L64.3,60.6L59.9,64.5L57.0,67.6L56.0,69.1L55.5,69.4L54.4,71.7L54.0,73.0L53.8,75.3L53.8,84.1L54.0,90.2L54.2,91.3L54.3,94.6L54.6,97.4L54.5,98.1L53.5,98.2L52.6,97.9L51.6,96.8L51.1,95.9L51.0,94.7L50.9,94.1L50.3,83.9L50.3,80.4L50.0,73.8L50.0,68.7L49.7,61.8L49.7,58.2L49.9,57.4L50.4,57.2L53.7,57.1Z M101.7,17.5L103.3,19.0L105.0,21.2L106.0,23.0L106.9,26.4L107.4,30.2L107.3,34.2L107.0,35.9L106.3,37.4L104.7,39.6L102.2,42.1L101.8,42.3L100.0,44.0L94.9,47.7L90.0,50.8L87.5,51.8L85.7,52.1L82.2,52.3L77.9,52.2L76.5,52.4L76.1,52.8L76.2,58.6L76.4,59.0L77.2,59.1L77.7,58.9L79.7,58.2L80.5,57.7L82.9,57.1L83.2,56.9L84.4,56.7L92.2,56.4L97.8,56.8L99.6,57.1L102.4,57.8L104.5,58.9L106.0,59.8L108.0,61.7L109.3,63.3L110.4,65.4L111.0,66.8L111.7,69.6L111.8,70.6L111.9,71.0L112.1,74.0L112.5,76.4L112.7,81.3L112.6,92.2L112.2,95.9L111.9,97.0L111.1,98.4L109.7,100.3L105.8,104.1L99.1,109.4L94.5,112.2L93.5,112.5L91.7,113.4L90.6,113.8L88.6,114.2L83.4,114.3L79.4,114.2L78.6,114.1L74.8,113.9L73.3,113.7L69.2,112.5L66.2,110.8L64.3,109.2L62.3,106.8L60.6,103.4L59.7,100.8L59.1,96.6L58.9,92.6L58.6,90.6L58.6,88.1L58.4,86.7L58.4,84.0L58.2,80.3L58.2,76.4L58.6,74.0L59.8,71.6L61.4,69.6L63.4,67.6L66.0,65.3L67.6,64.2L68.9,63.0L69.1,62.1L69.2,59.4L69.1,53.0L68.6,52.4L68.4,52.3L66.5,52.4L64.3,52.2L46.0,52.2L45.3,52.4L45.1,52.8L45.1,59.1L46.1,90.0L46.4,91.8L46.6,96.3L46.9,98.3L47.8,100.0L49.4,101.4L50.1,101.8L51.1,102.0L51.4,102.4L51.0,102.7L40.7,102.7L39.7,102.5L39.3,102.2L39.2,99.0L39.2,80.7L38.9,73.4L38.8,64.0L38.5,59.5L38.4,53.8L38.2,52.7L37.9,52.4L37.4,52.2L24.8,52.4L23.4,52.7L22.3,52.7L20.3,53.5L18.5,55.2L17.4,57.2L17.0,58.4L16.7,58.7L16.5,58.7L16.2,58.4L16.2,57.9L16.8,55.8L17.0,54.5L17.4,53.4L17.5,52.2L17.8,51.0L18.0,49.7L18.7,47.3L19.1,46.8L19.5,46.7L24.7,46.6L36.3,46.7L40.8,46.5L52.0,46.6L68.5,46.4L69.0,46.0L69.1,42.9L68.5,25.2L68.4,22.4L68.1,20.9L67.4,19.1L66.4,17.8L64.8,16.7L64.2,16.5L61.9,16.3L61.5,16.0L61.6,15.5L62.3,15.4L73.6,15.2L74.8,15.0L79.5,15.1L90.2,14.7L93.0,14.8L95.9,15.2L98.2,15.7L100.0,16.5Z" fill="#000" fill-rule="evenodd"/>
</svg>