<svg xmlns="http://www.w3.org/2000/svg" viewBox="0 0 128 128" width="128" height="128">
  <path d="M21.6,15.3L21.4,15.4L21.3,17.3L21.2,31.1L20.8,43.0L21.0,47.1L21.3,47.1L21.5,46.6L22.0,41.3L22.7,38.5L24.0,34.9L25.6,31.5L25.6,31.3L28.0,27.4L29.2,26.2L29.4,25.6L31.6,23.5L32.9,22.4L34.5,21.3L38.0,19.6L39.3,19.2L42.2,18.1L43.1,18.0L44.5,17.6L46.4,17.4L47.9,17.1L50.0,17.0L51.1,16.7L56.3,16.5L62.2,16.6L62.7,16.6L63.0,16.9L63.0,17.3L61.9,19.5L61.4,20.1L61.3,20.5L60.4,21.7L59.5,23.4L58.9,24.0L58.8,24.4L58.4,25.0L58.3,25.3L57.9,25.7L57.4,26.8L55.6,29.5L55.4,30.0L54.7,30.9L53.3,33.4L52.6,34.1L52.4,34.6L52.0,35.2L51.5,36.2L51.1,36.6L50.1,38.4L49.3,39.4L48.7,40.6L47.5,42.4L46.9,43.5L46.6,43.8L46.4,44.3L45.3,45.7L45.2,46.3L44.8,46.6L43.4,49.2L43.0,49.5L42.4,50.8L41.7,51.5L41.4,52.2L39.4,55.3L38.5,57.0L37.5,58.2L36.8,59.7L35.7,61.1L35.6,61.5L34.3,63.5L33.7,64.6L32.4,66.3L32.3,66.8L31.6,67.6L30.9,68.8L30.3,69.5L29.8,70.5L27.9,72.7L25.7,74.8L23.4,76.7L22.5,77.2L21.7,77.8L20.6,78.3L20.3,78.5L18.2,79.5L15.3,80.2L13.7,80.5L9.8,80.5L9.4,80.8L9.5,81.3L44.8,81.3L45.7,81.2L46.0,81.1L46.0,80.7L45.7,80.5L39.3,80.4L35.8,79.9L35.0,79.7L33.4,78.9L32.1,77.7L31.4,76.4L31.1,75.5L31.1,73.3L31.6,70.8L33.2,67.0L33.8,66.2L34.1,65.5L34.9,64.3L35.6,63.0L35.8,62.7L35.9,62.4L36.5,61.6L39.4,56.7L41.4,53.8L41.7,53.0L42.5,52.0L44.1,49.1L44.7,48.4L45.2,48.2L47.0,48.2L62.0,48.3L63.3,48.5L63.6,48.7L64.0,49.1L64.0,50.3L64.0,91.4L64.2,96.5L64.1,111.4L63.8,111.9L63.5,112.0L51.1,112.0L46.5,112.1L46.0,112.4L46.0,112.7L46.4,112.9L68.5,112.8L89.9,113.2L90.5,113.1L94.8,113.3L96.1,113.1L96.2,112.7L96.0,112.6L94.9,112.4L79.1,112.1L78.4,112.0L78.2,111.7L77.9,110.3L77.7,103.9L77.8,82.1L78.2,81.7L78.4,81.6L91.9,81.7L98.8,81.3L104.2,80.4L106.5,79.6L107.3,79.1L107.9,79.0L109.8,78.0L111.2,77.1L113.7,74.7L115.6,72.3L116.2,71.1L116.8,69.5L117.4,67.0L117.5,65.2L117.4,61.5L116.1,57.6L115.5,56.5L113.9,54.3L112.6,53.1L111.3,52.1L111.0,52.1L109.9,51.3L107.0,50.0L105.8,49.7L103.7,49.0L99.0,48.2L93.0,47.9L81.5,47.9L80.7,47.7L78.2,47.7L77.7,47.5L77.5,46.2L77.5,35.5L77.4,17.5L77.5,17.0L77.9,16.7L83.7,16.6L89.5,17.0L93.7,17.6L94.6,17.9L96.4,18.1L96.9,18.4L97.9,18.5L99.6,19.2L104.1,21.3L104.6,21.7L106.8,23.0L109.6,25.3L112.4,28.4L114.0,30.6L114.1,30.9L114.9,32.1L115.7,33.7L116.5,35.6L117.5,38.6L118.2,42.5L118.3,46.3L118.6,46.8L118.8,46.7L118.9,46.3L118.9,39.9L118.7,20.7L118.5,16.2L118.1,15.9L110.8,15.9L77.5,15.9L72.3,15.8L61.5,15.8L54.2,15.6L51.1,15.7L47.9,15.5L37.1,15.4L34.3,15.3L31.1,15.3L24.8,15.1L22.1,15.1Z M77.9,48.8L78.4,48.6L83.6,48.8L85.6,48.7L90.1,48.9L91.1,49.3L92.1,49.4L94.7,50.3L95.6,50.8L95.9,50.8L96.2,51.1L97.1,51.5L98.8,52.8L100.3,54.3L101.3,55.6L102.7,57.9L103.7,60.5L104.4,64.0L104.4,66.9L104.0,69.2L103.4,71.1L102.7,72.4L101.3,74.5L99.9,75.9L99.0,76.6L98.3,77.2L95.3,79.1L94.8,79.2L94.1,79.5L93.0,79.7L92.5,79.9L90.4,80.5L85.0,80.9L82.4,80.9L80.0,80.7L78.8,80.8L78.1,80.5L77.7,80.2L77.8,79.8L77.6,77.8L77.7,71.8L77.5,64.6L77.5,50.1L77.6,49.1Z M63.6,18.5L63.8,18.7L63.9,19.8L64.0,46.5L63.8,47.3L63.4,47.5L47.2,47.5L45.8,47.3L45.6,47.1L45.6,46.8L45.9,46.3L47.1,44.5L47.3,43.9L47.7,43.6L47.8,43.2L49.2,41.1L49.4,40.4L50.6,38.8L50.8,38.3L51.1,37.9L51.7,36.9L53.1,34.7L53.3,34.2L54.5,32.5L54.9,31.7L56.3,29.5L58.0,26.7L58.3,26.3L58.4,25.9L58.7,25.6L58.9,25.0L59.4,24.6L59.4,24.4L60.3,22.9L60.7,22.5L61.4,21.2L61.7,20.9L62.1,20.1L63.3,18.5Z" fill="#000" fill-rule="evenodd"/>
</svg>