<svg xmlns="http://www.w3.org/2000/svg" viewBox="0 0 128 128" width="128" height="128">
  <path d="M8.9,51.1L9.0,51.5L10.3,51.7L14.6,51.7L15.9,51.9L30.3,52.1L31.1,52.1L31.6,52.5L31.5,52.9L30.9,54.0L30.3,54.9L29.4,56.6L29.0,57.0L27.7,59.5L27.2,60.1L26.9,60.8L25.2,63.4L24.7,64.5L23.9,65.5L23.7,66.2L20.9,70.6L20.5,71.7L17.9,75.7L17.5,76.7L17.3,77.4L17.4,78.8L17.7,79.5L18.5,80.5L19.4,81.0L20.1,81.2L21.4,81.2L22.1,81.1L22.8,80.8L29.4,77.0L29.7,76.9L30.0,76.6L33.4,74.8L33.9,74.4L34.3,74.2L35.4,73.5L38.2,72.1L38.9,71.5L39.4,71.3L42.0,69.7L44.3,68.5L44.5,68.3L44.8,68.2L45.7,67.6L49.3,65.6L50.2,65.0L54.9,62.5L55.3,62.5L55.3,63.0L55.1,63.2L54.7,64.0L53.6,65.9L53.0,67.1L52.7,67.4L52.6,67.8L52.3,68.0L52.2,68.5L50.8,70.6L50.5,71.4L50.1,71.9L49.2,73.6L48.7,74.2L48.2,75.2L47.9,75.6L47.1,77.1L46.7,77.7L45.8,79.2L45.8,79.6L46.2,80.0L47.2,80.6L47.7,80.8L48.0,81.1L49.5,81.9L50.1,81.9L50.4,81.5L51.4,79.7L52.8,77.4L54.3,74.7L55.0,73.8L55.2,73.3L55.7,72.5L55.8,72.1L56.2,71.7L56.3,71.3L58.0,68.5L58.1,68.3L58.4,68.0L58.8,67.1L63.3,59.6L64.1,57.9L64.3,56.8L64.3,56.3L63.7,54.8L62.8,53.9L62.0,53.5L61.4,53.4L60.5,53.4L59.6,53.6L58.0,54.6L57.6,54.9L56.9,55.2L55.5,56.1L55.1,56.2L54.5,56.6L54.3,56.7L53.9,57.0L52.6,57.6L51.5,58.4L47.3,60.7L46.9,61.0L45.0,62.2L43.9,62.7L42.5,63.6L42.1,63.7L38.9,65.6L37.3,66.4L34.3,68.3L33.6,68.5L32.5,69.3L30.6,70.2L30.2,70.6L27.2,72.1L26.9,72.2L26.7,72.0L26.7,71.7L27.1,70.8L27.6,70.1L28.2,68.9L28.7,68.3L32.2,62.1L32.7,61.3L33.9,59.2L34.5,58.4L35.0,57.2L35.7,56.3L38.2,52.1L38.5,50.9L38.5,49.9L38.4,49.2L37.7,48.2L37.1,47.6L36.3,47.2L35.0,46.9L12.2,46.4L11.6,46.6L10.9,47.4Z M118.8,47.4L118.1,46.6L117.0,46.0L116.4,45.9L115.6,45.9L114.5,46.2L113.0,47.0L112.8,47.3L112.1,47.6L110.3,48.7L108.1,49.9L106.8,50.8L106.5,50.8L104.8,51.9L104.1,52.3L103.6,52.7L101.6,53.7L99.7,54.9L98.6,55.5L98.3,55.7L97.9,55.9L95.3,57.4L94.9,57.6L90.9,60.0L89.5,60.7L87.9,61.7L87.5,61.9L86.2,62.7L85.4,63.1L84.1,64.0L83.4,64.2L81.7,65.3L80.7,65.7L79.2,66.6L78.8,66.6L78.6,66.3L78.4,65.2L78.0,64.2L77.2,63.1L75.9,61.9L75.9,61.4L76.7,60.8L77.9,60.3L79.2,59.3L81.3,58.3L82.8,56.8L83.5,55.7L83.9,54.0L84.0,53.1L83.9,52.2L83.5,51.2L83.1,50.4L82.6,49.7L81.6,48.7L79.8,47.8L76.7,47.5L72.4,47.5L69.5,47.4L65.2,47.4L55.5,47.2L55.2,47.3L54.7,47.7L53.6,49.7L53.3,50.2L52.8,51.1L52.5,51.6L52.5,52.2L53.0,52.4L55.9,52.4L59.6,52.6L64.7,52.5L77.3,52.8L77.7,52.9L78.1,53.4L78.1,54.0L78.0,54.2L77.6,54.6L73.7,56.9L71.3,58.2L70.3,58.9L66.9,60.7L66.6,61.0L64.8,61.9L64.1,62.5L63.9,62.7L64.0,63.3L66.1,66.6L66.7,66.6L68.0,65.9L68.7,65.4L69.7,65.0L70.8,64.9L71.6,65.1L72.4,65.7L73.0,66.2L73.3,66.8L73.6,67.6L73.5,69.1L73.2,69.8L72.3,70.8L71.8,71.0L67.9,73.4L67.2,73.7L65.8,74.6L65.0,74.9L63.0,76.2L60.3,77.8L59.9,78.2L59.9,78.5L60.3,79.3L62.0,82.1L62.2,82.3L63.0,82.2L64.0,81.5L66.1,80.4L67.9,79.1L68.2,79.1L70.1,78.0L70.3,77.8L71.4,77.2L72.2,76.7L72.6,76.5L73.3,76.0L75.0,75.1L75.4,74.8L77.7,73.6L78.1,73.3L80.7,71.7L82.4,70.8L83.5,70.2L85.6,69.0L85.8,68.8L87.2,68.1L88.4,67.3L90.3,66.3L93.9,64.2L94.7,63.8L95.9,63.0L96.2,62.9L96.7,62.5L97.0,62.5L98.6,61.5L98.9,61.2L99.3,61.1L100.5,60.4L101.3,60.0L103.5,58.5L104.7,57.9L106.1,57.0L106.5,56.9L109.0,55.5L109.8,55.3L109.8,55.8L109.0,57.3L108.8,57.5L107.9,59.0L107.7,59.3L107.1,60.4L106.4,61.3L105.4,63.3L104.9,63.8L104.4,64.9L103.1,66.8L100.9,70.6L100.1,71.8L99.4,72.9L98.8,73.8L98.6,74.0L98.2,74.0L97.8,73.6L96.6,71.5L95.9,70.6L95.6,70.0L95.1,69.3L93.9,67.2L93.5,66.8L93.0,66.8L91.9,67.3L91.5,67.6L89.8,68.5L89.2,69.1L89.3,69.7L90.1,70.8L91.1,72.7L91.4,73.1L92.6,75.2L93.6,76.6L94.1,77.8L94.7,78.5L95.8,80.4L96.4,81.0L97.3,81.4L98.8,81.6L99.7,81.4L100.1,81.2L101.1,80.2L101.8,79.3L102.5,78.0L103.7,76.1L104.0,75.5L105.2,73.7L106.2,71.9L106.9,70.9L107.2,70.3L107.8,69.5L108.5,68.1L109.0,67.5L109.9,65.8L111.0,64.2L112.6,61.4L113.0,60.9L113.5,60.0L113.8,59.5L114.3,58.6L114.6,58.2L116.2,55.5L116.7,54.4L118.7,51.3L119.2,50.4L119.3,49.7L119.2,48.4Z" fill="#000" fill-rule="evenodd"/>
</svg>