<svg xmlns="http://www.w3.org/2000/svg" viewBox="0 0 128 128" width="128" height="128">
  <path d="M100.3,44.0L99.2,43.8L97.9,43.8L96.0,44.1L93.7,45.1L91.1,47.0L89.8,48.3L88.7,49.7L87.1,51.9L85.0,55.9L84.6,57.0L83.7,58.7L82.3,63.1L82.1,64.1L81.9,64.6L81.7,65.6L81.4,66.6L81.2,68.2L80.8,70.8L80.8,72.0L80.6,73.1L80.6,75.5L80.9,78.3L81.4,79.8L81.6,80.1L81.7,80.6L82.4,81.8L83.0,82.6L84.1,83.6L85.5,84.5L87.6,85.0L89.7,85.0L90.6,84.9L93.1,83.8L94.3,83.0L95.8,81.7L98.6,78.8L100.6,75.9L103.0,71.5L104.7,67.6L105.9,63.4L106.6,60.3L107.0,57.0L107.0,54.5L106.8,52.8L106.1,49.9L105.5,48.6L104.2,46.7L103.0,45.5L102.0,44.7Z M64.0,9.1L63.1,9.3L59.1,9.4L52.9,10.4L49.0,11.3L48.6,11.6L46.7,12.0L45.9,12.5L43.9,13.1L38.7,15.5L36.5,16.7L33.0,19.0L32.0,19.9L30.6,20.8L28.6,22.4L24.7,26.1L21.1,30.3L19.3,32.7L18.8,33.7L17.4,35.8L14.7,40.8L13.1,44.7L12.1,47.4L12.0,48.4L11.2,50.6L10.3,55.3L9.7,60.4L9.6,65.9L9.9,70.6L10.2,71.4L10.8,75.4L11.1,76.3L11.1,76.7L11.6,79.0L12.5,81.2L12.5,81.8L14.2,86.2L16.5,90.8L18.7,94.4L19.8,95.9L20.0,96.3L23.9,101.1L27.1,104.4L29.8,106.7L31.6,108.1L35.3,110.7L36.9,111.6L37.8,112.2L39.3,112.9L39.6,113.1L40.4,113.4L41.2,114.0L43.3,115.0L45.2,115.6L45.6,115.9L49.8,117.2L51.1,117.4L51.9,117.7L54.0,118.2L55.8,118.4L56.6,118.6L59.1,118.9L60.4,118.9L61.2,119.0L65.6,119.1L69.8,118.8L70.3,118.6L73.3,118.3L75.7,117.8L80.4,116.5L81.3,116.1L82.3,115.9L82.6,115.6L83.5,115.4L84.9,114.7L85.4,114.7L86.2,114.2L87.3,113.8L87.7,113.4L90.6,112.0L92.5,110.8L93.1,110.5L94.5,109.6L95.2,108.9L95.8,108.7L99.6,105.6L103.4,102.0L106.2,98.9L110.0,93.6L112.6,89.1L113.1,87.8L113.5,87.2L114.0,85.8L114.5,85.0L114.7,84.1L115.3,82.9L115.6,81.6L115.8,81.5L116.0,80.4L116.3,80.0L116.5,78.8L116.8,78.2L117.0,76.8L117.2,76.2L117.5,74.4L117.7,73.8L118.1,71.2L118.5,67.0L118.6,62.6L118.1,55.8L117.9,55.4L117.2,51.6L116.9,50.8L116.4,48.3L115.3,45.1L114.7,44.0L114.2,42.3L111.6,37.1L111.2,36.6L110.4,35.2L110.0,34.6L108.1,31.6L104.4,27.1L100.4,23.1L96.6,20.0L96.0,19.7L93.1,17.6L89.2,15.4L86.0,13.8L84.6,13.3L84.1,13.0L83.8,13.0L80.3,11.6L79.6,11.6L79.1,11.3L75.0,10.3L74.4,10.3L72.8,9.9L71.4,9.8L70.1,9.5L68.9,9.5L67.1,9.3L65.1,9.3Z M68.9,43.0L69.0,43.0L69.1,43.6L68.9,43.9L68.7,44.5L66.5,49.1L66.3,49.9L65.7,51.0L65.7,51.5L65.9,51.7L68.9,51.9L69.0,52.1L68.9,53.0L68.2,54.3L68.1,54.7L67.7,55.4L67.4,55.7L63.7,55.9L63.0,56.7L62.1,59.2L61.7,59.9L60.1,63.2L60.1,63.4L59.3,65.0L59.3,65.2L58.5,66.8L58.5,67.0L57.4,69.0L57.4,69.3L56.6,70.8L56.6,71.0L55.3,74.0L55.2,74.4L54.3,76.0L54.3,76.2L53.9,76.9L53.8,77.4L53.1,78.7L51.9,81.5L51.5,82.1L50.2,85.4L49.5,86.5L49.5,86.7L48.5,88.8L48.1,90.0L47.3,91.3L46.8,92.6L46.5,93.1L46.4,93.7L46.1,94.0L44.4,98.0L43.8,99.2L43.7,99.6L43.3,100.3L42.2,103.0L42.0,103.2L41.3,105.8L41.2,109.2L41.3,110.4L42.2,112.1L42.1,112.6L41.2,112.4L38.6,110.9L36.2,109.2L34.0,106.8L33.3,105.8L32.0,103.2L31.1,100.2L30.5,96.4L30.4,93.4L30.7,89.4L30.8,89.0L30.9,88.1L31.6,85.1L32.8,81.1L33.6,79.5L34.9,76.1L36.1,73.7L36.9,71.8L37.3,71.1L37.8,69.7L39.1,67.3L40.3,64.6L40.4,64.2L40.9,63.4L41.0,62.8L41.4,62.1L42.8,58.9L43.5,57.5L43.9,56.6L43.9,56.2L43.5,55.8L42.1,55.7L41.9,55.5L41.9,54.9L42.3,54.3L43.0,52.4L43.8,51.7L45.8,51.6L46.4,51.2L47.7,48.5L47.7,48.1L48.1,47.7L48.2,47.0L48.9,45.9L50.0,43.1L50.5,42.7L58.3,42.7L63.3,42.9L65.0,42.8Z M42.7,42.6L43.0,43.0L42.9,43.7L39.7,50.6L39.7,51.3L39.9,51.5L41.7,51.7L41.9,51.9L41.9,52.3L40.6,55.3L40.2,55.7L37.8,55.7L37.1,56.4L36.5,57.9L35.2,60.4L35.1,60.8L34.7,61.5L34.6,61.9L33.8,63.5L33.7,64.2L33.2,65.0L31.4,69.1L31.1,69.6L30.6,71.0L30.0,71.9L29.9,72.4L29.1,74.0L29.0,74.4L28.6,75.0L28.6,75.2L27.8,76.9L27.6,77.8L26.9,79.3L26.3,81.0L25.8,82.0L25.2,83.7L24.4,87.5L24.2,90.0L24.3,93.5L24.8,96.4L25.2,98.6L26.0,100.6L26.0,100.8L25.8,101.0L24.6,99.8L24.5,99.6L22.2,96.9L21.9,96.4L20.4,94.5L18.0,90.8L17.2,89.1L16.3,86.4L15.4,83.3L14.7,79.5L14.6,77.8L14.4,76.3L14.5,70.7L14.6,70.1L15.0,67.2L15.9,62.9L16.1,62.4L16.7,60.0L17.4,58.1L17.6,57.0L18.0,56.4L18.0,56.0L17.6,55.7L14.9,55.6L14.6,55.3L14.6,54.9L15.9,51.9L16.3,51.5L16.7,51.4L19.7,51.4L20.3,50.9L21.4,48.3L21.9,47.5L22.5,46.0L23.4,44.3L23.5,43.9L23.7,43.5L23.9,43.0L24.4,42.5L38.8,42.5Z M109.2,48.3L110.7,49.8L113.1,52.9L114.5,55.3L115.3,57.1L116.3,60.0L116.6,61.7L116.8,62.0L117.2,65.2L117.2,67.6L116.8,70.8L115.9,73.8L114.8,76.1L112.9,79.1L111.1,81.2L109.9,82.4L107.5,84.3L105.6,85.4L104.1,86.1L103.7,86.4L99.9,87.8L97.8,88.1L96.6,88.4L92.1,88.4L91.2,88.1L90.1,88.0L89.4,87.7L88.4,87.5L87.6,87.1L87.4,87.1L85.4,86.2L83.5,84.7L81.8,82.9L81.1,82.0L80.9,81.6L80.7,81.3L80.3,81.4L80.0,81.8L80.0,82.4L79.4,85.4L79.1,87.4L78.3,90.6L78.1,92.1L77.7,93.1L77.2,95.2L76.9,95.6L76.5,97.1L75.5,99.1L75.3,99.8L75.1,100.0L74.9,100.6L73.5,103.2L71.3,106.5L70.6,107.0L70.1,107.9L68.2,109.8L65.1,112.3L63.8,113.2L61.6,114.3L59.4,115.1L57.8,115.5L55.2,115.9L52.3,115.9L48.9,115.4L46.3,114.6L46.2,114.3L46.4,114.1L48.1,113.6L49.4,112.9L50.8,111.8L53.1,109.4L54.7,106.8L56.1,104.2L56.7,102.4L57.0,102.0L57.1,101.4L57.9,99.4L59.1,95.3L60.3,89.9L60.8,86.1L61.0,85.0L61.2,82.0L62.1,77.0L63.5,70.8L63.7,70.6L64.5,67.9L66.4,63.0L67.9,60.0L68.9,58.5L69.3,57.4L69.7,57.0L71.6,54.3L73.7,51.9L76.1,49.7L78.4,47.9L80.7,46.4L81.3,46.2L83.6,44.9L85.1,44.3L86.2,44.0L88.2,43.3L90.4,42.8L93.1,42.4L97.8,42.4L102.1,43.6L103.9,44.4L106.2,45.7Z" fill="#000" fill-rule="evenodd"/>
</svg>