<svg xmlns="http://www.w3.org/2000/svg" viewBox="0 0 128 128" width="128" height="128">
  <path d="M51.6,64.4L50.3,64.6L49.7,64.8L49.3,64.8L47.6,65.3L44.7,66.3L43.6,66.8L43.4,67.0L43.0,67.1L42.7,67.4L40.8,68.4L39.7,69.2L39.4,69.3L38.0,70.3L36.4,71.9L33.7,74.9L31.6,78.0L30.0,81.1L28.9,84.4L28.4,86.7L28.0,88.8L27.9,91.7L28.2,96.1L29.0,99.6L29.6,101.6L30.4,103.3L31.9,106.3L33.3,108.3L34.6,110.0L36.9,112.2L39.1,114.0L41.2,115.5L41.5,115.6L43.3,116.6L45.5,117.6L48.4,118.5L49.5,118.7L51.0,119.1L52.7,119.2L53.0,118.9L53.1,118.5L52.8,89.7L52.8,67.8L52.7,64.8L52.4,64.4Z M76.0,64.1L75.5,64.3L75.3,64.8L75.3,70.3L75.4,73.0L75.3,81.4L75.6,97.2L75.5,101.4L75.7,105.5L75.7,118.1L75.9,118.8L76.2,118.9L77.4,118.9L81.1,118.1L81.4,117.9L82.0,117.8L83.1,117.3L83.8,117.2L87.5,115.3L87.8,115.0L89.7,113.9L91.3,112.5L91.6,112.3L93.4,110.5L95.0,108.6L95.3,108.1L96.3,106.9L97.7,104.5L98.7,102.4L99.6,100.0L100.5,96.2L100.5,95.4L100.8,93.4L100.8,89.7L100.4,86.5L100.0,85.2L100.0,84.7L98.7,80.9L98.2,79.8L97.8,79.2L97.5,78.5L95.9,75.9L93.8,73.2L90.8,70.3L88.9,69.0L88.4,68.5L85.7,66.9L82.9,65.7L82.6,65.7L82.0,65.3L81.0,65.0L77.4,64.2Z M57.2,9.1L56.9,9.3L56.6,9.9L56.8,15.7L56.8,35.4L57.0,46.8L56.9,48.0L56.3,48.3L55.5,48.4L31.7,48.5L28.5,48.5L25.9,48.6L22.1,48.6L21.7,48.9L21.6,49.1L21.6,61.7L21.7,62.1L22.1,62.6L22.5,62.7L56.7,62.6L57.0,62.9L57.2,64.6L57.3,69.9L57.2,80.1L57.4,97.6L57.3,102.4L57.5,112.2L57.4,115.9L57.6,117.0L57.5,118.3L57.7,118.7L58.1,119.0L71.0,118.9L71.5,118.6L71.5,118.2L71.6,108.9L71.4,107.7L71.3,77.1L71.1,72.6L71.1,65.5L71.3,62.7L71.6,62.5L72.3,62.3L77.6,62.4L87.7,62.2L97.7,62.3L104.3,62.2L106.3,62.0L106.6,61.7L106.7,61.4L106.7,48.6L106.4,48.1L106.0,48.1L83.5,48.1L76.8,48.3L73.1,48.3L71.4,48.1L71.1,47.8L71.0,47.3L70.8,9.5L70.4,9.1Z" fill="#000" fill-rule="evenodd"/>
</svg>