<svg xmlns="http://www.w3.org/2000/svg" viewBox="0 0 128 128" width="128" height="128">
  <path d="M13.6,119.4L13.6,119.4L13.7,119.2L13.6,118.8Z M17.7,118.9L17.8,118.9L17.8,118.7L17.7,118.8Z M16.6,118.6L16.4,118.7L15.7,119.1L15.6,119.4L15.5,119.7L15.6,119.8L15.8,119.9L16.2,119.9L16.5,119.8L16.5,119.7L16.4,119.6L15.9,119.6L15.7,119.4L16.2,119.0L16.4,118.9L16.6,118.7Z M17.9,118.4L17.8,118.4L17.7,118.6L17.8,118.7Z M14.9,118.0L14.7,118.1L14.6,118.6L14.5,118.6L14.5,118.7L14.5,118.9L14.4,119.1L14.2,119.3L14.2,119.4L14.3,119.5L14.6,119.5L14.8,119.6L15.1,119.7L15.1,119.6L15.2,119.5L15.2,119.4L15.1,119.1L15.0,119.1L14.8,119.3L14.5,119.3L14.4,119.2L14.5,118.9L14.7,118.8L14.9,118.7L15.1,118.5L15.1,118.1L15.0,118.0Z M17.1,118.0L17.1,118.2L17.1,118.2L17.6,118.2L17.8,118.3L17.9,118.3L17.9,118.2L17.8,118.0Z M13.3,118.0L13.2,118.2L13.1,118.3L13.3,118.4L13.5,118.4L13.6,118.5L13.6,118.5L13.7,118.1L13.6,118.0Z M15.7,118.1L15.7,118.3L15.8,118.3L16.0,118.1L16.2,118.2L16.4,118.3L16.6,118.3L16.4,118.0L16.2,117.9L15.9,118.0Z M115.4,8.2L112.1,8.2L107.9,8.4L106.5,8.4L105.4,8.4L104.6,8.5L102.7,8.5L102.1,8.5L100.9,8.5L99.8,8.6L98.3,8.6L96.9,8.6L96.7,8.6L96.3,8.6L93.9,8.6L92.2,8.6L90.9,8.7L90.5,8.7L84.6,8.8L81.6,8.9L80.8,8.8L79.9,8.9L73.7,8.9L71.4,9.0L69.7,9.0L69.4,8.9L69.1,8.9L68.9,9.0L68.4,9.0L60.7,9.1L60.0,9.2L57.4,9.2L57.2,9.3L57.2,10.4L57.2,11.1L57.2,11.4L57.3,14.0L57.3,15.7L57.3,16.6L57.3,18.8L57.4,19.5L57.4,22.2L57.5,22.9L57.5,25.1L57.5,25.5L57.5,29.4L57.6,30.3L57.7,31.3L57.6,32.2L57.7,34.6L57.7,37.6L57.8,43.4L57.9,43.9L58.0,49.1L57.9,50.7L58.0,51.7L58.0,53.4L58.0,55.9L58.0,58.2L58.1,59.1L58.1,61.3L58.2,62.1L58.2,65.3L58.2,72.6L58.3,73.8L58.4,75.4L58.5,76.9L58.9,78.8L59.5,80.2L59.7,80.4L60.1,81.1L60.9,82.0L62.2,83.3L62.3,83.3L62.6,83.6L62.8,83.6L63.5,84.1L63.9,84.3L64.4,84.6L65.5,85.0L66.6,85.4L67.2,85.4L67.4,85.5L67.7,85.5L69.4,85.5L70.7,85.4L71.4,85.2L72.7,84.8L74.2,84.0L75.5,83.0L76.0,82.6L76.3,82.1L76.9,81.5L77.1,81.1L77.3,81.0L77.3,80.9L77.7,80.4L78.0,79.7L78.4,78.4L78.4,78.3L78.6,77.6L78.8,75.7L78.9,70.2L78.9,68.3L78.8,66.4L78.8,60.8L78.8,59.7L78.8,59.3L78.8,58.0L78.7,54.4L78.6,52.3L78.6,49.4L78.6,48.7L78.6,47.1L78.5,46.4L78.5,43.7L78.4,42.9L78.4,37.3L78.3,36.7L78.4,35.1L78.3,34.3L78.3,34.2L78.1,34.1L73.3,34.1L70.8,34.1L67.0,34.1L66.8,34.0L66.9,33.8L68.0,32.6L68.1,32.4L68.7,31.9L69.3,31.3L69.6,30.9L69.8,30.8L71.7,28.9L72.8,27.8L72.9,27.6L74.4,26.1L74.9,25.6L78.2,22.3L79.5,21.0L82.3,18.2L82.5,18.0L83.1,17.4L83.4,17.1L83.7,16.9L86.4,14.2L86.7,14.2L86.9,14.3L88.5,15.9L88.6,16.0L90.9,18.4L91.4,18.8L92.6,20.0L95.0,22.3L96.9,24.1L97.4,24.6L100.5,27.6L101.6,28.6L101.7,28.8L102.7,29.7L103.3,30.4L103.7,30.7L106.2,33.2L107.0,33.9L107.0,34.0L106.9,34.1L105.1,34.1L104.4,34.1L102.6,34.2L96.9,34.2L95.9,34.2L95.7,34.3L95.7,35.8L95.8,36.1L95.8,36.5L95.7,36.8L95.8,37.0L95.8,39.4L95.9,42.0L95.9,43.9L96.0,45.5L96.1,54.2L96.3,61.0L96.3,67.2L96.5,71.8L96.5,78.8L96.4,80.1L96.3,80.7L96.3,81.0L96.3,81.1L96.3,81.6L96.2,82.3L96.0,82.7L96.0,83.1L95.8,83.9L95.8,84.4L95.5,85.1L95.4,85.4L95.2,86.0L95.1,86.3L94.9,87.0L94.4,88.0L94.3,88.3L93.9,88.9L93.5,89.7L93.4,89.9L92.8,90.8L92.5,91.1L92.2,91.6L92.0,91.8L91.5,92.5L90.8,93.3L89.8,94.4L88.9,95.2L88.8,95.2L88.5,95.5L88.4,95.6L88.1,95.9L87.8,96.0L87.3,96.4L87.0,96.7L86.7,96.8L86.6,97.0L86.1,97.3L85.9,97.4L85.3,97.8L85.1,97.9L84.6,98.3L84.0,98.6L83.8,98.7L83.7,98.8L83.3,99.0L82.8,99.3L82.2,99.6L81.2,100.1L79.4,100.8L78.3,101.2L77.7,101.4L76.2,101.8L75.9,101.9L74.6,102.2L73.9,102.3L73.5,102.4L73.2,102.4L72.4,102.6L71.3,102.6L70.6,102.7L66.3,102.7L65.5,102.6L64.5,102.6L64.0,102.4L63.3,102.4L61.7,102.0L61.3,101.9L60.9,101.8L60.3,101.7L60.2,101.6L59.9,101.6L59.7,101.5L59.4,101.4L59.1,101.3L58.8,101.2L57.9,100.9L57.1,100.6L56.6,100.3L56.0,100.2L55.8,100.0L53.8,99.1L52.1,98.1L51.6,97.7L51.2,97.5L50.5,96.9L50.2,96.8L48.4,95.3L47.1,94.0L47.0,93.9L46.9,93.8L46.2,93.2L45.3,92.2L45.1,91.8L45.0,91.6L44.3,90.8L43.9,90.0L43.8,89.8L43.4,89.3L42.7,88.0L42.7,87.9L42.2,86.8L42.0,86.0L41.9,85.9L41.8,85.3L41.6,84.7L41.6,84.3L41.3,83.2L41.3,82.8L41.1,82.1L41.1,81.8L40.9,80.2L40.9,79.2L40.9,78.7L40.8,76.7L40.8,73.6L40.7,71.1L40.8,70.2L40.7,67.4L40.7,66.0L40.6,63.7L40.7,63.2L40.6,62.2L40.6,60.2L40.5,59.4L40.6,56.2L40.5,54.5L40.5,53.8L40.5,51.8L40.4,51.6L40.5,49.7L40.4,49.3L40.4,48.2L40.3,47.8L40.2,41.3L40.1,39.4L40.1,34.6L40.2,34.4L40.3,34.3L40.5,34.2L41.7,34.2L43.9,34.1L45.3,34.2L46.1,34.1L49.0,34.1L50.4,34.1L51.3,34.1L51.4,34.0L51.4,33.8L51.3,33.7L51.1,33.6L49.2,31.6L48.9,31.4L47.6,30.1L47.4,29.9L46.2,28.8L44.7,27.3L43.8,26.4L43.6,26.3L43.2,25.8L43.1,25.8L42.9,25.6L42.6,25.4L42.0,24.7L40.9,23.7L40.0,22.8L39.7,22.5L38.4,21.3L38.2,21.2L37.0,19.9L36.7,19.7L35.9,18.9L35.8,18.9L35.5,18.5L35.3,18.4L34.5,17.6L33.6,16.8L31.1,14.3L30.9,14.3L29.3,15.9L29.1,16.2L28.7,16.4L28.6,16.6L28.0,17.1L28.0,17.3L27.5,17.8L27.2,18.0L26.9,18.4L20.5,24.8L20.1,25.3L18.8,26.6L18.5,27.0L17.7,27.6L17.6,27.8L16.6,28.8L16.4,29.0L15.8,29.6L14.5,31.0L14.3,31.1L13.8,31.6L13.5,32.0L13.2,32.3L12.8,32.7L12.5,33.0L12.2,33.3L12.1,33.4L12.0,33.5L11.7,33.8L11.5,34.1L11.4,34.2L11.6,34.3L15.9,34.3L16.5,34.4L17.0,34.4L17.4,34.4L22.3,34.5L22.5,34.6L22.5,35.7L22.5,36.4L22.6,39.1L22.5,41.3L22.6,42.1L22.6,43.1L22.7,43.5L22.6,44.5L22.7,47.2L22.7,47.8L22.8,50.2L22.8,54.5L22.8,55.0L22.8,58.6L22.9,60.1L23.0,62.7L23.0,63.0L23.0,64.2L23.0,65.9L23.0,69.4L23.1,71.4L23.1,75.9L23.2,79.1L23.3,80.1L23.3,81.4L23.5,82.4L23.5,83.0L23.9,85.9L24.1,86.7L24.2,87.0L24.5,88.0L24.6,88.7L24.9,89.2L24.9,89.4L25.1,90.1L25.1,90.3L25.3,90.6L25.4,91.2L25.6,91.5L25.6,91.7L25.8,92.0L26.0,92.5L26.6,93.5L26.8,94.0L27.6,95.5L27.8,96.0L28.2,96.6L28.3,96.8L28.5,97.1L28.9,97.7L28.9,97.8L29.5,98.5L29.6,98.8L30.0,99.3L30.1,99.4L30.2,99.6L30.5,99.9L30.6,100.2L31.4,101.0L31.4,101.2L31.9,101.7L31.9,101.8L32.5,102.4L32.6,102.6L33.0,103.1L33.9,104.0L34.2,104.3L35.2,105.4L35.4,105.7L36.4,106.5L36.6,106.8L36.7,106.9L37.2,107.3L37.6,107.6L37.9,107.9L38.4,108.3L38.8,108.6L38.9,108.7L39.6,109.3L40.0,109.6L40.4,110.0L40.9,110.3L41.0,110.4L41.5,110.7L42.0,111.1L42.9,111.7L43.8,112.2L44.1,112.5L44.7,112.8L45.2,113.2L45.9,113.6L47.1,114.2L47.3,114.3L47.7,114.5L48.3,114.8L48.7,114.9L49.1,115.2L49.6,115.4L50.6,115.9L53.7,117.1L54.2,117.2L54.5,117.4L54.7,117.4L55.3,117.6L55.7,117.7L57.2,118.2L58.0,118.4L60.2,118.9L61.5,119.2L61.8,119.2L62.4,119.3L62.8,119.3L63.3,119.4L64.3,119.5L64.4,119.6L65.7,119.6L66.1,119.7L66.7,119.7L67.0,119.8L68.8,119.9L71.9,119.9L72.9,119.8L73.4,119.7L74.7,119.6L75.5,119.5L76.1,119.5L77.1,119.3L77.5,119.3L78.1,119.1L78.5,119.1L78.9,119.0L79.2,119.0L80.2,118.8L80.6,118.7L81.0,118.6L81.1,118.5L81.6,118.5L81.7,118.4L82.9,118.1L84.2,117.7L84.9,117.5L85.6,117.2L85.9,117.2L86.0,117.1L86.3,117.0L86.5,116.9L87.3,116.7L87.4,116.6L88.5,116.2L89.1,115.9L89.2,115.9L90.6,115.3L90.9,115.2L92.9,114.2L93.2,114.0L93.8,113.7L94.3,113.4L94.6,113.2L95.6,112.6L95.9,112.5L96.2,112.2L96.8,111.9L98.5,110.8L98.7,110.6L99.3,110.2L99.5,110.0L99.7,109.9L99.9,109.7L100.9,109.0L102.1,108.0L102.6,107.7L103.9,106.4L104.3,106.1L105.2,105.2L105.5,104.8L106.7,103.6L107.0,103.2L107.1,103.1L108.1,102.0L109.6,100.1L110.0,99.5L110.7,98.6L111.7,97.0L111.9,96.5L112.3,96.0L112.9,94.8L112.9,94.6L113.2,94.2L113.3,93.8L113.6,93.3L114.0,92.4L114.1,91.8L114.2,91.5L114.7,90.2L114.7,90.1L115.0,89.1L115.3,88.2L115.4,87.1L115.7,86.2L115.8,85.4L116.0,84.6L116.0,84.3L116.1,83.6L116.1,83.3L116.3,82.7L116.3,82.2L116.3,81.7L116.3,81.1L116.6,79.0L116.6,77.1L116.7,75.7L116.6,74.8L116.7,71.2L116.6,60.1L116.5,59.4L116.5,59.0L116.5,58.6L116.5,55.7L116.4,55.1L116.4,52.7L116.4,51.6L116.3,50.9L116.4,50.3L116.3,49.7L116.3,46.9L116.1,43.2L116.1,41.0L116.0,36.8L116.0,34.4L115.9,31.5L115.9,29.4L115.8,27.0L115.8,25.0L115.8,23.5L115.8,22.8L115.7,20.2L115.7,18.0L115.6,14.7L115.6,12.4L115.6,11.6L115.6,11.0L115.5,10.5L115.5,9.1L115.5,8.4Z" fill="#000" fill-rule="evenodd"/>
</svg>