<svg xmlns="http://www.w3.org/2000/svg" viewBox="0 0 128 128" width="128" height="128">
  <path d="M118.1,13.6L109.3,13.5L100.0,13.7L82.1,13.7L75.3,13.5L74.8,13.7L74.6,14.2L74.7,24.5L74.6,24.8L74.6,25.4L74.8,26.5L74.7,39.8L74.9,47.3L74.9,60.4L74.6,62.4L74.6,64.6L74.1,66.6L73.9,68.3L73.4,69.5L73.3,70.5L72.9,72.5L72.6,73.0L72.5,73.5L71.2,77.0L70.0,79.7L68.0,83.3L67.2,84.2L67.0,85.0L65.0,87.6L64.7,88.2L63.4,89.6L62.3,91.1L59.4,94.0L58.9,94.2L56.3,96.7L50.7,100.5L45.1,103.3L44.4,103.5L44.0,103.8L42.5,104.4L41.6,104.6L41.2,104.8L40.1,105.0L39.4,105.4L38.5,105.5L36.1,106.3L34.3,106.6L33.8,106.9L32.5,107.2L26.6,107.8L25.2,108.2L24.9,108.7L25.0,114.0L25.1,114.5L25.5,115.0L28.0,115.2L48.7,115.2L50.9,115.0L115.4,115.0L118.1,114.8L118.6,114.3L118.8,113.0L118.5,76.9L118.5,61.6L118.7,60.2L118.5,59.0L118.4,51.4L118.6,49.8L118.4,46.3L118.4,14.1Z M39.6,13.4L36.9,13.6L31.8,13.5L30.5,13.3L29.5,13.5L21.6,13.6L9.9,13.5L9.5,13.9L9.4,15.1L9.6,22.8L9.6,38.8L9.6,54.3L9.7,55.7L9.7,58.5L9.9,60.3L10.5,62.5L11.7,65.4L12.9,67.0L15.4,69.4L17.1,70.7L17.9,71.1L18.7,71.6L21.2,72.6L24.9,73.1L27.2,73.1L30.6,72.2L33.7,70.8L36.6,68.4L37.2,67.6L38.7,65.5L40.2,62.3L40.3,61.5L40.7,60.5L41.1,56.8L41.1,51.5L40.9,48.9L40.8,41.4L40.8,21.9L40.7,16.0L40.5,14.0L40.2,13.6Z" fill="#000" fill-rule="evenodd"/>
</svg>