<svg xmlns="http://www.w3.org/2000/svg" viewBox="0 0 128 128" width="128" height="128">
  <path d="M98.8,32.8L97.7,32.5L93.9,31.8L93.0,31.5L90.8,31.2L89.3,30.7L86.5,30.3L85.1,29.8L83.2,29.4L81.8,29.0L80.1,28.9L79.8,29.2L79.8,40.6L80.0,45.1L80.2,46.3L80.2,52.1L80.3,55.9L80.3,69.7L80.2,72.5L79.7,75.1L79.3,76.5L78.5,77.9L78.4,78.4L77.2,79.8L76.8,80.6L74.9,82.4L72.3,84.1L70.8,84.8L67.5,85.9L66.0,86.0L62.1,86.0L60.8,85.9L60.5,85.7L59.3,85.6L57.7,85.0L57.3,85.0L56.3,84.4L55.9,84.1L55.5,83.9L53.7,82.7L51.5,80.5L50.1,78.4L48.8,75.2L47.8,70.5L47.5,63.7L47.4,52.9L47.2,49.2L47.1,36.6L46.9,31.5L46.9,29.8L46.8,29.4L46.0,29.3L44.2,29.5L43.2,29.8L39.1,30.7L38.4,30.9L34.9,31.6L32.3,32.3L31.3,32.4L30.5,32.7L28.6,33.1L28.0,33.4L27.9,38.4L28.0,41.3L28.1,47.5L28.5,54.2L28.6,70.5L28.9,74.3L29.1,75.3L29.3,77.1L29.8,79.2L30.9,82.2L31.2,83.2L33.3,87.4L34.6,89.4L35.2,90.5L35.8,91.3L36.8,92.8L39.7,95.6L42.4,97.9L45.2,99.9L48.3,101.6L48.5,101.6L49.6,102.2L50.1,102.3L52.0,103.1L53.2,103.5L53.6,103.7L55.7,104.2L56.4,104.5L59.1,105.0L61.0,105.1L62.4,105.4L65.8,105.4L68.7,105.2L72.1,104.6L75.3,103.7L76.9,103.1L77.6,102.9L79.3,102.2L79.5,102.2L82.3,100.7L84.2,99.4L84.8,99.1L86.0,98.0L88.2,96.4L90.6,93.9L94.0,89.7L96.4,85.6L97.7,82.2L97.8,81.3L98.5,79.3L98.6,78.3L98.9,77.7L99.2,74.8L99.2,72.3L99.6,70.5L99.6,59.3L99.5,57.2L99.5,52.9L99.4,46.2L99.4,36.6L99.3,34.0L99.1,33.2Z M75.8,21.3L75.7,21.1L74.8,21.2L71.1,24.1L69.1,25.4L67.6,26.7L66.8,27.1L64.9,28.5L64.0,29.1L63.3,29.1L62.4,28.7L53.7,22.5L52.1,21.5L51.7,21.3L51.2,21.4L51.0,21.7L51.0,29.3L51.2,36.5L51.4,37.1L51.5,37.3L52.0,37.3L52.9,36.8L54.6,35.6L57.7,33.7L59.8,32.1L61.3,31.2L62.7,30.1L63.6,29.7L64.0,29.8L64.9,30.2L66.1,31.1L67.3,31.7L68.0,32.3L70.5,33.9L72.5,35.2L72.6,35.2L73.3,35.8L75.2,37.0L75.8,37.0L76.1,36.7L75.9,32.5Z M55.0,10.7L54.2,11.0L52.7,11.1L52.0,11.4L51.4,11.4L50.4,11.7L49.6,11.8L47.4,12.5L46.0,12.8L45.1,13.2L44.2,13.4L43.2,13.9L41.6,14.4L39.5,15.5L38.8,15.6L36.2,17.0L35.8,17.3L35.3,17.5L32.0,19.6L28.1,22.6L23.4,27.2L21.7,29.1L20.2,31.2L18.3,33.4L17.6,34.8L17.1,35.4L16.6,36.6L15.5,38.1L13.4,42.5L12.8,44.7L12.3,45.4L11.4,47.7L10.0,53.9L9.8,56.0L9.6,57.1L9.5,58.7L9.3,59.3L9.2,63.5L9.4,64.9L9.4,68.9L10.3,72.6L10.4,73.5L11.1,76.2L11.2,77.0L11.6,78.0L11.6,78.4L12.1,79.8L12.4,80.4L13.7,84.1L16.4,89.8L17.7,91.9L18.2,92.8L22.7,98.9L26.2,102.7L27.4,103.6L29.7,105.8L31.5,107.1L33.9,108.5L35.2,109.7L35.7,109.8L37.0,110.9L37.9,111.2L41.1,112.9L42.7,113.4L43.9,114.1L49.2,115.9L49.9,116.0L52.7,116.8L53.9,116.9L55.6,117.3L57.2,117.4L58.5,117.7L61.3,117.8L63.5,118.0L68.7,117.9L73.1,117.5L73.4,117.3L76.4,116.8L77.4,116.5L77.9,116.5L79.6,116.1L81.1,115.6L82.7,115.2L83.5,114.8L84.4,114.6L86.0,113.7L87.8,113.0L88.6,112.8L89.4,112.3L90.4,112.0L90.7,111.6L92.6,110.7L93.7,109.8L95.5,108.9L96.6,108.0L98.4,106.8L99.8,105.5L101.1,104.6L105.0,100.4L105.8,99.5L107.6,97.5L108.5,96.2L108.7,95.8L109.2,95.3L109.4,94.9L110.3,93.6L111.6,91.4L111.9,90.6L112.2,90.3L113.1,88.7L114.7,84.9L115.2,84.2L117.0,78.8L118.2,73.6L118.3,72.5L118.6,71.8L118.6,70.0L118.8,68.7L118.8,67.2L119.0,66.1L119.0,61.3L118.6,57.4L118.4,57.0L118.1,54.4L117.9,53.2L117.5,52.3L117.2,50.2L116.6,48.7L116.1,46.6L115.7,45.6L115.5,45.2L115.1,44.0L114.5,43.0L114.4,42.3L112.8,39.1L112.5,38.7L112.1,37.9L111.2,36.4L110.7,35.8L110.6,35.3L109.1,33.5L108.7,32.7L107.8,31.6L107.5,30.9L106.3,29.7L105.9,29.0L105.6,28.9L100.0,23.4L98.6,22.2L97.3,21.4L95.7,20.0L94.8,19.5L94.0,18.8L91.2,17.3L90.5,16.7L88.4,15.9L87.4,15.2L86.5,15.0L84.9,14.1L84.7,14.1L83.7,13.7L82.9,13.5L82.0,13.1L81.1,12.9L77.8,11.9L77.4,11.9L76.1,11.4L75.5,11.4L75.3,11.2L74.1,11.0L73.2,11.0L72.3,10.7L71.4,10.7L70.2,10.5L66.3,10.1L61.8,10.1L61.1,10.3L58.9,10.3L57.5,10.5Z M58.3,13.5L60.0,13.5L60.9,13.3L62.6,13.3L63.6,13.2L68.2,13.4L72.1,13.9L72.8,14.1L73.9,14.3L75.6,14.9L76.8,15.0L78.7,15.8L79.7,15.9L83.8,17.7L85.8,18.4L88.4,19.8L88.8,20.1L89.2,20.2L89.6,20.5L91.0,21.2L96.4,24.9L98.6,26.6L103.2,31.2L103.3,31.5L103.9,32.1L106.8,35.9L109.1,39.6L109.2,39.9L109.5,40.3L109.6,40.7L110.0,41.2L111.2,43.3L111.7,45.1L112.6,46.9L113.4,49.8L114.1,51.9L114.3,53.4L114.8,54.8L115.2,57.7L115.5,60.4L115.5,62.8L115.7,63.6L115.7,64.8L115.4,66.7L115.4,69.3L115.0,70.9L114.9,73.0L113.9,76.7L113.9,77.7L112.8,80.7L112.7,81.3L110.7,86.2L109.7,87.7L109.3,88.7L108.5,89.9L107.7,91.4L107.0,92.2L106.3,93.3L105.0,95.0L103.9,96.7L100.8,99.9L100.5,100.0L100.4,100.3L99.0,101.7L98.6,101.8L97.1,103.3L96.6,103.6L96.0,104.1L93.6,105.9L92.3,106.6L91.7,107.1L91.0,107.4L88.6,108.9L87.8,109.2L87.3,109.5L86.8,109.6L84.0,110.9L83.3,111.1L80.7,112.2L78.4,112.9L77.4,113.0L75.7,113.6L74.4,113.8L73.1,114.3L70.3,114.7L60.9,114.8L59.2,114.6L58.0,114.3L56.8,114.2L55.9,113.9L53.7,113.6L48.4,112.3L45.9,111.4L43.2,110.2L42.8,110.1L41.1,109.3L40.7,108.9L39.9,108.6L39.5,108.3L38.5,107.9L37.5,107.2L36.9,106.9L34.7,105.4L34.3,105.2L32.2,103.5L30.3,102.2L29.4,101.1L28.8,100.9L26.4,98.2L23.5,95.0L22.6,93.6L21.7,92.5L21.3,91.8L19.6,89.6L18.8,88.2L18.3,87.7L18.2,86.9L17.3,84.7L16.4,83.1L15.9,81.2L14.8,78.5L14.8,78.1L14.4,77.0L13.5,73.0L12.9,68.9L12.7,64.9L12.8,58.3L13.3,55.0L13.6,54.2L13.7,53.2L14.1,51.2L14.6,50.2L14.8,48.7L15.6,46.8L16.1,45.1L16.5,44.3L16.6,43.9L17.2,42.9L18.3,40.3L19.5,38.1L21.7,34.8L23.4,32.7L23.8,32.1L24.4,31.4L24.5,31.2L28.0,27.5L28.5,27.2L29.1,26.5L29.4,26.3L31.0,24.9L33.0,23.5L34.2,22.5L39.7,19.0L41.0,18.4L41.2,18.4L42.4,17.7L43.1,17.6L43.6,17.3L47.4,15.9L48.7,15.6L50.5,15.0L52.3,14.7L53.3,14.3L55.9,13.8L57.9,13.7Z" fill="#000" fill-rule="evenodd"/>
</svg>