<svg xmlns="http://www.w3.org/2000/svg" viewBox="0 0 128 128" width="128" height="128">
  <path d="M10.0,9.4L9.7,9.9L9.7,13.0L9.9,16.0L9.8,18.5L10.0,21.1L9.9,22.9L10.0,28.1L10.0,33.0L10.2,46.2L10.2,58.3L10.6,64.0L11.3,67.4L12.1,70.3L13.3,73.6L15.2,77.5L17.0,80.4L19.6,83.8L21.7,86.0L23.8,87.8L26.7,90.1L28.9,91.6L30.7,92.6L31.6,92.9L32.7,93.5L33.1,93.6L34.4,94.5L34.8,95.2L34.9,95.7L35.4,96.5L35.5,96.9L35.7,97.2L36.6,99.1L36.9,99.4L38.0,101.4L40.8,105.1L43.9,108.4L47.3,111.2L48.1,111.6L49.3,112.5L49.9,112.7L50.7,113.4L52.4,114.2L52.9,114.6L53.4,114.7L53.8,115.0L54.1,115.0L55.1,115.6L56.9,116.2L57.3,116.2L60.2,117.3L61.2,117.4L61.9,117.6L64.6,118.2L71.1,118.6L75.0,118.5L96.3,118.8L98.7,118.7L105.7,118.9L118.0,118.9L118.4,118.7L118.6,118.3L118.7,115.6L118.6,108.1L118.5,107.8L118.1,107.5L86.3,107.3L80.2,107.1L75.8,107.2L68.4,107.1L65.5,106.9L63.5,106.5L62.3,106.0L61.0,105.8L59.3,105.1L56.5,103.7L54.5,102.4L51.8,100.3L49.2,97.5L49.3,97.0L49.5,96.9L52.1,96.8L74.3,97.0L78.9,96.9L90.2,97.1L95.6,97.0L97.2,97.2L118.2,97.2L118.6,96.8L118.6,86.9L118.5,86.5L118.3,86.3L114.7,86.1L98.2,86.1L97.2,85.9L97.1,85.5L100.1,81.7L101.9,78.8L102.3,78.5L103.9,75.1L105.4,71.5L106.9,65.8L107.5,59.6L107.4,54.8L107.7,54.0L108.2,53.8L110.8,53.7L117.8,53.8L118.4,53.3L118.5,44.7L118.4,43.0L117.9,42.6L98.9,42.6L89.9,42.4L68.4,42.4L65.3,42.9L63.6,43.5L60.5,45.2L58.5,46.7L56.7,48.6L56.1,49.5L56.0,49.9L55.3,50.7L54.8,51.8L54.0,53.8L53.6,55.6L53.3,58.3L53.3,63.7L53.0,64.0L52.3,64.2L48.5,64.3L46.4,64.0L45.4,63.6L43.7,62.1L43.2,61.3L43.0,60.6L42.7,60.1L42.5,58.2L42.8,54.1L43.4,51.2L44.3,48.7L45.3,46.4L47.3,43.0L49.4,40.3L51.5,38.2L53.2,36.8L56.4,34.8L58.7,33.7L62.7,32.3L63.1,32.3L64.4,31.9L65.3,31.9L67.6,31.5L90.1,31.5L96.9,31.7L108.8,31.6L116.7,31.8L118.0,31.7L118.4,31.4L118.5,31.2L118.4,21.0L118.2,20.9L117.4,20.8L111.7,20.9L107.7,20.7L107.4,20.2L107.3,10.5L107.1,10.1L106.7,9.9L96.1,10.0L96.1,19.6L95.9,20.3L95.4,20.7L87.6,20.7L85.9,20.5L85.7,20.2L85.5,13.3L85.6,11.4L85.4,9.9L85.0,9.7L75.2,9.7L74.7,10.1L74.6,20.0L74.2,20.5L66.8,20.5L62.9,20.9L62.1,21.2L60.2,21.5L58.4,22.2L57.6,22.2L56.6,22.7L55.8,22.9L55.0,23.4L54.4,23.5L54.0,23.7L52.0,24.6L51.7,24.8L50.4,25.5L46.3,28.2L43.7,30.4L43.0,30.9L42.6,30.6L42.5,29.5L42.4,10.1L42.2,9.5L34.0,9.4L31.8,9.5L31.5,10.1L31.7,33.5L31.9,36.8L31.9,53.9L32.0,60.0L32.8,63.9L34.2,66.9L35.7,69.1L37.5,71.1L39.3,72.4L41.2,73.6L42.0,73.7L43.4,74.4L44.2,74.5L44.8,74.8L47.2,75.0L62.1,75.2L64.6,75.1L66.0,75.3L71.0,75.2L72.9,74.9L74.2,74.6L76.7,73.6L80.1,71.4L81.5,70.0L83.6,67.2L84.6,64.7L85.4,62.1L85.8,57.8L85.7,54.3L86.1,53.6L94.2,53.6L95.7,53.7L96.1,54.0L96.1,60.4L96.0,62.3L95.5,65.0L95.2,65.7L95.0,66.8L93.9,69.9L91.9,73.6L89.7,76.6L86.8,79.5L83.3,82.0L81.5,83.0L78.3,84.3L77.1,84.6L76.9,84.8L75.8,84.9L74.6,85.3L73.8,85.3L71.6,85.7L59.2,85.8L56.3,85.6L53.7,85.7L45.9,85.5L43.2,85.2L42.8,85.0L40.9,84.6L38.6,83.9L35.2,82.2L32.5,80.5L30.5,78.8L27.8,76.1L25.4,72.9L24.1,70.5L23.6,69.0L23.0,68.0L22.6,66.6L22.4,65.5L22.1,65.0L21.5,60.9L21.3,49.0L21.4,45.6L21.2,41.3L21.3,39.4L21.1,38.6L21.2,31.9L21.0,26.2L21.1,24.3L20.9,10.0L20.8,9.7L20.3,9.4L17.4,9.3Z M74.3,53.7L74.6,54.0L74.7,54.4L74.8,58.5L74.5,60.5L73.7,62.1L72.1,63.4L70.0,64.2L64.5,64.1L64.2,63.8L64.2,62.2L64.0,61.2L64.2,58.1L64.6,56.9L65.2,55.8L66.6,54.4L67.3,54.2L67.6,53.9L68.2,53.7Z" fill="#000" fill-rule="evenodd"/>
</svg>