<svg xmlns="http://www.w3.org/2000/svg" viewBox="0 0 128 128" width="128" height="128">
  <path d="M119.1,43.3L118.8,43.0L118.3,42.8L108.9,42.8L104.8,42.7L93.4,42.7L93.1,43.0L93.0,43.3L93.0,49.4L92.9,49.9L92.3,50.3L71.9,50.5L71.0,50.4L67.6,50.5L57.1,50.5L53.7,50.7L53.5,50.8L53.3,51.3L53.3,53.0L53.5,53.8L54.1,54.0L73.5,53.7L92.2,53.7L92.5,53.7L92.9,54.2L93.0,54.6L93.1,56.0L93.0,59.4L92.7,60.0L92.1,60.1L78.2,60.1L70.2,60.3L69.1,60.2L67.8,60.3L67.1,60.5L66.5,60.3L53.6,60.4L53.3,61.0L53.2,62.6L53.3,63.4L53.8,63.7L58.4,63.6L64.3,63.6L71.8,63.5L77.7,63.6L80.7,63.4L92.4,63.4L92.8,63.7L93.0,64.3L93.0,70.3L92.7,70.8L92.3,71.0L83.7,71.1L75.0,71.1L73.0,71.0L72.4,71.1L63.4,71.2L38.7,71.2L36.0,71.1L35.7,70.8L35.6,70.2L35.5,67.8L35.6,50.3L35.5,43.8L35.3,43.4L35.0,43.2L34.5,43.1L9.7,43.4L9.3,43.7L9.2,45.3L9.2,50.6L9.0,55.3L9.2,63.5L9.0,64.5L9.2,69.2L9.1,76.0L9.4,78.9L10.1,80.6L10.7,81.6L11.1,82.2L12.6,83.6L13.9,84.4L15.3,84.9L16.8,85.1L17.6,85.1L18.2,85.3L41.3,85.3L50.3,85.5L53.7,85.4L67.5,85.6L73.5,85.4L109.5,85.3L110.5,85.3L113.1,84.7L114.4,84.1L115.5,83.5L117.5,81.5L118.6,79.2L119.1,77.2L119.1,65.3L119.2,61.8L119.3,53.2L119.2,44.9Z" fill="#000" fill-rule="evenodd"/>
</svg>