<svg xmlns="http://www.w3.org/2000/svg" viewBox="0 0 128 128" width="128" height="128">
  <path d="M37.4,70.0L36.5,70.9L35.6,72.3L35.3,73.1L35.0,75.5L34.8,98.1L35.0,100.6L35.3,102.2L35.8,103.5L36.4,104.3L37.3,105.2L38.5,106.1L40.4,106.8L42.8,107.2L53.2,107.3L62.4,107.5L73.2,107.4L73.6,106.7L73.7,96.2L73.3,95.7L57.6,95.6L55.2,95.4L52.3,95.5L50.6,95.3L48.7,95.3L47.6,94.9L46.8,94.2L46.7,93.8L46.5,93.0L46.6,82.5L47.0,81.1L47.8,80.4L48.8,80.0L61.4,80.0L65.2,80.2L73.3,80.1L73.6,79.7L73.7,78.7L73.6,73.9L73.8,71.9L73.8,69.7L73.6,68.7L73.3,68.5L72.3,68.3L63.6,68.3L61.3,68.2L41.5,68.0L40.0,68.5L39.7,68.5L38.5,69.2Z M92.9,35.5L92.0,35.3L84.6,35.3L82.3,35.4L81.8,35.9L81.8,43.4L81.7,50.1L81.7,65.1L81.2,66.7L80.4,67.5L79.8,67.9L79.1,68.2L76.8,68.4L76.3,69.0L76.3,79.5L76.4,80.0L76.8,80.3L80.0,80.4L84.1,80.4L86.1,80.3L86.6,80.0L87.8,79.8L88.6,79.4L89.6,78.6L90.0,78.5L91.0,77.5L91.8,76.5L92.5,74.9L92.7,74.1L92.9,74.0L93.2,72.3L93.4,67.8L93.5,36.8L93.4,35.8Z M82.0,21.3L81.7,21.6L81.7,22.8L81.7,31.9L81.9,32.5L82.6,32.8L93.2,32.8L93.4,32.5L93.5,31.6L93.4,21.8L93.1,21.5L92.5,21.3Z M35.6,21.1L35.4,21.5L35.2,22.2L35.1,26.1L35.2,52.7L35.8,55.0L36.3,56.3L36.9,57.1L38.3,58.5L39.9,59.4L42.2,60.0L44.1,60.2L55.5,60.3L58.5,60.3L62.0,60.4L65.6,60.4L66.6,60.3L68.4,59.9L69.4,59.6L69.9,59.3L70.1,59.3L70.9,58.7L72.3,57.3L73.2,55.9L73.2,55.6L73.5,54.9L73.8,52.8L73.9,28.4L73.8,22.3L73.7,21.5L73.0,21.1L64.0,21.1L63.0,21.2L62.7,21.6L62.5,40.2L62.6,42.7L62.5,46.2L62.1,47.3L61.2,48.2L60.3,48.5L58.9,48.6L49.4,48.5L48.5,48.2L47.9,47.9L47.3,47.3L46.8,46.0L46.8,43.9L46.8,22.3L46.6,21.1L45.8,21.0L37.2,21.0Z M26.6,10.8L25.8,11.6L24.8,13.0L24.1,14.4L23.7,16.2L23.5,19.2L23.6,25.3L23.4,27.9L23.5,35.2L23.2,72.2L23.3,74.5L23.1,79.7L23.2,90.0L23.0,93.9L23.0,111.2L23.1,112.1L23.4,112.9L23.5,113.7L24.6,115.7L25.8,116.9L28.0,118.0L31.1,118.6L34.6,118.7L37.0,118.7L40.8,118.8L50.6,118.8L55.0,119.0L65.2,119.1L93.5,119.1L96.2,119.0L98.5,118.6L99.3,118.3L101.0,117.4L102.3,116.2L103.0,115.3L104.0,113.3L104.5,110.9L104.7,107.1L104.7,100.6L104.8,97.6L104.7,90.1L104.9,87.8L104.8,79.3L105.0,73.2L105.0,63.1L105.2,62.9L105.2,62.3L105.0,62.1L105.2,58.5L105.1,40.3L105.2,30.5L105.2,17.6L104.7,15.1L103.9,13.2L102.6,11.8L100.4,10.2L99.8,9.9L97.9,9.5L96.0,9.4L93.2,9.5L62.1,9.2L31.1,9.2L30.0,9.3L28.7,9.8L28.5,9.9L27.5,10.3Z M31.0,16.1L32.0,15.6L33.6,15.3L92.7,15.7L96.1,15.9L97.3,16.4L98.2,17.2L98.8,18.2L98.9,19.4L98.9,60.4L98.7,74.0L98.7,92.8L98.5,100.0L98.6,105.7L98.5,108.0L98.3,110.2L98.1,110.8L97.7,111.4L96.7,112.4L95.1,113.0L90.0,113.2L76.8,113.0L63.6,113.1L58.2,112.9L46.7,112.9L33.3,112.7L32.1,112.5L31.0,112.1L29.9,111.2L29.3,110.0L29.1,107.3L29.3,80.8L29.2,73.4L29.5,62.9L29.3,50.7L29.3,42.3L29.5,41.2L29.4,23.0L29.6,18.3L30.1,17.0Z" fill="#000" fill-rule="evenodd"/>
</svg>