<svg xmlns="http://www.w3.org/2000/svg" viewBox="0 0 128 128" width="128" height="128">
  <path d="M9.4,46.6L9.3,46.9L9.3,55.8L9.2,56.4L9.2,67.8L9.5,70.1L10.2,72.3L11.4,74.8L12.5,76.3L14.7,78.6L16.7,80.0L19.2,81.3L21.9,82.0L24.1,82.2L26.1,82.2L28.0,82.0L30.3,81.2L32.0,80.5L33.2,79.7L35.2,78.2L36.8,76.5L37.6,75.3L38.9,73.1L39.2,72.2L40.0,69.5L40.2,68.0L40.3,66.3L40.3,48.1L40.1,47.0L39.8,46.7L38.8,46.6L22.5,46.6L12.5,46.4L9.8,46.5Z M11.4,48.5L12.3,48.3L13.9,48.4L18.9,48.3L35.8,48.3L38.2,48.4L38.7,48.9L38.9,58.3L38.7,62.1L38.7,67.2L38.5,68.8L37.7,71.9L37.0,73.1L36.7,73.9L35.3,75.7L33.1,77.9L32.3,78.3L31.9,78.6L30.6,79.2L30.2,79.5L29.8,79.5L28.7,80.0L27.9,80.0L27.0,80.3L25.9,80.5L22.8,80.4L20.3,79.7L17.9,78.6L16.1,77.3L13.6,74.7L12.4,72.8L12.3,72.5L11.7,71.2L11.4,70.3L11.0,68.2L10.8,61.0L10.8,56.1L10.9,53.6L10.8,51.5L11.0,49.0L11.1,48.7Z M100.3,45.9L99.9,46.0L99.6,46.3L98.0,49.4L97.5,49.9L97.4,50.5L96.0,52.8L95.9,53.2L95.5,53.7L95.5,53.9L94.3,55.8L93.2,57.9L92.7,58.6L92.1,60.0L91.7,60.4L90.8,62.2L90.5,62.5L89.4,64.7L88.6,65.9L87.5,68.1L86.8,69.2L86.6,69.7L86.4,70.0L83.5,75.3L83.1,75.8L82.8,76.5L82.6,76.7L81.8,78.3L81.1,79.4L80.3,81.0L80.2,81.4L80.4,81.7L87.8,81.7L99.7,81.5L101.9,81.6L109.1,81.4L118.6,81.4L118.8,81.4L119.1,81.1L118.8,79.9L118.0,78.6L117.5,77.3L115.8,74.3L115.8,74.1L114.3,71.5L113.6,70.1L113.4,69.9L112.0,67.1L110.6,64.7L110.3,63.9L108.9,61.6L108.7,61.0L108.5,60.8L108.3,60.2L106.3,56.7L106.0,56.0L105.4,55.1L103.8,52.0L103.6,51.8L103.1,50.6L102.2,49.2L100.7,46.3Z M100.4,49.7L100.7,49.9L101.6,51.9L102.0,52.3L103.4,55.1L103.8,55.7L104.3,56.8L104.6,57.1L104.9,58.0L105.8,59.4L106.5,60.8L106.8,61.2L107.8,63.3L108.0,63.6L109.5,66.6L112.7,72.5L113.0,73.3L113.3,73.7L113.4,74.0L114.2,75.3L114.4,76.0L115.4,77.6L115.8,78.6L116.0,78.9L116.1,79.4L115.7,79.7L114.0,79.8L97.4,79.8L85.5,80.0L83.3,79.9L83.1,79.7L83.2,79.3L83.4,79.1L85.0,76.0L85.4,75.4L85.5,75.1L85.8,74.8L88.2,70.7L89.3,68.5L89.6,68.0L89.8,67.6L90.4,66.7L90.5,66.3L90.9,65.9L91.0,65.5L92.4,63.3L93.8,60.5L94.1,60.0L94.2,59.7L95.3,58.0L95.7,57.1L96.2,56.3L96.3,55.9L98.8,51.8L99.2,50.8L99.9,49.7Z M60.8,45.8L60.5,46.0L59.8,46.0L58.1,46.4L56.7,46.9L54.5,48.0L52.3,49.5L50.0,51.7L49.2,52.7L47.6,55.0L47.0,56.3L46.9,56.7L46.6,57.1L46.4,58.0L46.2,58.3L45.7,59.7L45.2,63.0L45.3,66.1L45.6,68.4L46.3,70.7L47.6,73.5L48.1,74.2L48.4,74.7L50.1,76.7L52.6,79.1L53.0,79.2L54.2,80.1L55.6,80.9L58.4,82.0L61.5,82.5L65.7,82.5L67.9,82.0L68.4,81.8L69.4,81.6L71.2,80.8L72.9,80.0L73.9,79.3L75.4,78.1L76.9,76.5L77.0,76.3L77.8,75.6L78.9,74.0L79.9,72.2L80.9,69.8L81.3,68.3L81.5,66.5L81.7,66.1L81.8,65.0L81.6,61.5L80.7,57.7L80.3,57.0L80.2,56.6L79.3,54.8L77.4,52.0L76.5,51.1L74.4,49.2L73.6,48.8L72.4,48.0L70.6,47.2L70.3,47.0L69.4,46.8L69.1,46.6L68.2,46.4L67.6,46.1L64.3,45.7Z M61.4,47.8L65.1,47.8L67.6,48.3L69.0,48.7L70.1,49.3L70.9,49.5L72.9,50.8L74.9,52.4L76.5,54.1L77.6,55.8L78.4,57.4L78.7,58.3L79.2,59.4L79.8,62.5L79.8,65.0L79.6,67.0L79.1,68.7L78.2,71.4L76.8,73.8L76.0,74.7L73.5,77.2L71.2,78.6L70.7,78.8L69.3,79.5L67.8,80.0L67.5,80.0L66.8,80.3L64.8,80.6L62.1,80.6L60.5,80.3L59.8,80.0L58.7,79.8L58.2,79.5L57.7,79.5L55.4,78.3L53.1,76.7L51.2,74.9L50.7,74.1L49.6,72.8L48.4,70.3L48.3,69.9L48.0,69.4L47.6,67.8L47.1,64.7L47.1,63.0L47.5,61.7L47.7,60.2L48.0,59.6L48.1,58.8L48.4,58.3L48.8,57.1L50.3,54.5L50.7,54.1L50.8,53.8L52.9,51.6L54.0,50.7L55.2,49.9L57.9,48.7L59.5,48.2Z" fill="#000" fill-rule="evenodd"/>
</svg>