<svg xmlns="http://www.w3.org/2000/svg" viewBox="0 0 128 128" width="128" height="128">
  <path d="M82.1,73.3L81.8,84.2L81.8,87.6L82.2,89.5L83.3,91.5L84.9,93.2L85.7,93.8L86.6,94.3L88.1,94.7L91.4,94.8L117.3,94.5L117.6,94.4L117.9,94.1L118.0,89.5L117.6,89.1L117.4,89.0L91.7,89.1L90.5,89.1L89.6,88.8L88.5,88.0L87.8,86.8L87.7,86.0L87.7,78.5L87.9,75.3L87.7,73.3L87.7,73.1L87.0,72.9L83.8,72.9L82.6,73.0Z M9.2,62.9L9.2,67.4L9.4,67.6L9.8,67.8L16.4,67.8L21.1,67.8L27.3,67.9L82.3,67.9L93.3,67.8L95.2,67.8L117.5,67.7L117.9,67.6L118.4,67.2L118.5,64.0L118.4,62.4L117.8,62.0L115.0,61.8L82.5,61.8L80.0,62.0L62.1,62.0L58.6,61.8L50.7,61.9L47.9,61.8L9.8,61.8L9.4,62.1Z M119.0,34.7L118.6,34.4L118.3,34.3L116.2,34.4L96.3,34.1L90.3,34.2L89.2,34.4L87.0,35.3L85.8,36.1L84.3,37.8L83.6,39.1L82.9,41.3L82.6,45.5L82.6,49.2L82.4,52.7L82.4,56.4L82.6,56.8L83.0,57.0L86.6,57.0L87.7,56.9L88.1,56.6L88.2,55.4L88.3,52.7L88.2,49.3L88.5,43.2L88.6,42.1L89.1,41.2L89.7,40.6L90.5,40.2L91.3,40.0L118.6,40.0L118.8,39.9L119.0,39.6Z M9.4,33.8L9.4,40.8L9.3,45.7L9.7,49.6L10.6,52.0L11.6,53.7L12.9,55.1L14.6,56.1L16.9,56.6L21.1,56.7L22.9,56.8L28.3,57.0L39.5,57.0L42.2,57.1L45.8,57.1L46.2,56.9L46.3,56.6L46.5,44.1L46.6,40.4L47.0,40.0L47.4,39.9L52.2,39.8L70.0,40.1L71.0,40.6L71.3,40.9L71.7,41.6L71.7,44.6L71.6,44.8L71.1,45.3L61.2,45.3L52.3,45.2L51.7,45.2L51.1,45.8L51.1,51.4L51.8,51.6L70.7,51.9L71.2,52.0L71.6,52.3L71.6,56.3L71.8,56.8L72.2,57.0L76.9,57.0L77.5,56.7L77.6,56.2L77.6,51.2L77.8,49.6L77.9,44.9L77.8,42.0L77.5,40.5L76.5,38.1L75.9,37.3L73.9,35.5L72.3,34.8L70.5,34.4L69.1,34.2L65.6,34.3L55.1,34.0L41.3,33.9L41.0,34.1L40.8,34.5L40.6,49.5L40.3,50.5L39.9,50.7L39.0,50.8L31.1,50.8L17.6,50.4L16.5,49.9L15.7,49.0L15.2,47.2L15.2,38.6L15.3,34.1L14.9,33.6L14.5,33.4L9.9,33.4Z" fill="#000" fill-rule="evenodd"/>
</svg>