<svg xmlns="http://www.w3.org/2000/svg" viewBox="0 0 128 128" width="128" height="128">
  <path d="M99.7,52.1L98.9,51.9L95.9,52.0L94.6,51.8L92.8,51.9L92.1,51.7L91.1,51.7L90.6,51.9L85.7,51.8L85.1,52.2L84.5,66.7L84.5,71.2L84.3,72.9L84.2,76.7L83.6,81.5L83.0,83.2L82.4,84.5L81.0,85.9L79.1,87.1L77.3,87.6L75.9,87.7L74.5,87.6L73.9,87.4L72.8,87.1L70.8,86.0L70.0,85.3L69.0,84.3L67.7,81.5L67.5,78.1L67.5,70.4L67.7,66.9L67.6,52.3L67.4,52.0L67.1,52.0L63.4,51.9L53.2,51.9L52.9,52.2L52.8,56.1L52.8,62.3L52.7,63.7L52.7,81.3L52.8,82.1L53.8,85.1L55.4,88.5L56.7,90.6L58.0,92.2L58.6,92.8L59.3,93.7L60.0,94.2L60.3,94.5L61.9,95.8L64.4,97.4L66.4,98.4L67.1,98.6L67.5,99.0L67.6,100.0L67.4,108.3L67.1,108.6L66.6,108.7L66.2,109.2L66.3,109.7L67.4,110.6L67.4,112.4L67.1,112.6L66.1,112.5L65.0,112.0L63.0,111.4L62.1,110.8L59.6,110.1L58.3,109.5L57.5,109.3L57.0,109.0L56.4,109.0L56.1,109.1L55.9,109.4L55.9,109.8L56.2,110.1L58.9,111.1L61.6,112.3L62.9,112.7L63.2,112.9L63.1,113.1L61.5,113.1L60.7,113.3L49.9,113.3L49.5,113.4L49.2,113.6L49.2,114.1L49.4,114.4L61.8,114.4L64.7,114.5L64.8,114.7L64.7,115.0L64.4,115.0L63.4,115.7L62.5,116.0L61.6,116.6L61.0,116.9L60.3,117.4L59.2,117.9L58.8,118.4L58.8,118.9L59.2,119.2L59.5,119.2L62.0,117.9L63.7,116.8L65.4,116.0L68.1,114.5L72.3,114.5L72.8,114.7L72.8,115.1L70.8,116.7L70.2,117.4L69.5,117.9L69.6,118.6L70.1,118.7L70.4,118.6L71.5,117.9L73.3,116.3L75.8,114.4L80.2,114.4L80.5,114.4L80.8,114.0L80.8,113.8L80.4,113.4L77.2,113.3L76.5,113.1L76.1,112.6L76.0,111.5L76.2,107.7L76.2,100.8L76.3,100.5L76.8,100.2L79.8,99.9L80.4,99.7L82.5,99.3L83.6,98.8L84.3,98.8L84.7,98.4L85.2,98.4L85.7,98.0L86.9,97.5L87.4,97.1L88.5,96.6L89.2,96.2L89.7,95.6L90.2,95.4L91.4,94.4L93.7,92.1L96.2,88.7L97.7,85.7L98.9,82.2L99.2,80.2L99.4,79.5L99.6,77.3L99.5,72.7L99.6,66.9L99.8,65.1L99.9,55.0Z M68.7,111.4L69.3,111.4L69.9,111.6L70.9,112.2L72.1,112.7L72.3,113.0L72.1,113.1L69.1,113.1L68.7,112.7Z M69.0,99.4L70.2,99.5L70.4,99.7L70.8,99.7L71.6,100.0L73.7,100.1L74.4,100.4L74.9,100.7L74.7,111.7L74.4,112.1L73.9,112.1L73.0,111.8L72.0,111.1L69.7,110.1L69.1,109.7L68.8,109.2L68.7,108.7L68.7,104.5L68.8,103.6L68.7,100.9L68.9,99.5Z M52.8,9.1L49.9,9.5L49.2,9.8L48.6,9.9L48.1,10.2L47.1,10.5L44.5,11.8L43.4,12.7L42.0,13.6L40.4,15.2L38.7,17.4L36.9,20.8L36.6,22.1L36.0,23.4L35.7,23.7L33.3,24.9L32.3,25.6L31.9,25.7L31.5,26.0L28.8,27.4L28.4,27.9L28.4,28.2L30.1,29.4L32.4,30.5L34.2,31.7L35.5,32.4L36.2,33.1L37.1,35.5L38.6,38.4L40.4,40.6L42.2,42.5L43.4,43.2L44.2,44.0L46.1,45.2L49.4,46.5L53.2,47.0L56.0,47.0L57.3,46.8L58.0,46.6L58.6,46.5L59.3,46.2L59.9,46.1L60.7,45.8L61.6,45.5L61.9,45.3L62.2,45.3L63.2,44.8L66.2,42.8L67.2,41.9L68.8,40.2L70.7,37.6L71.3,36.4L72.3,34.0L72.6,33.0L73.0,30.5L73.2,28.5L73.1,26.3L72.8,24.2L72.5,23.0L72.0,22.0L71.9,21.2L71.0,19.3L70.9,18.9L70.2,18.0L69.9,17.4L68.2,15.3L66.2,13.3L64.7,12.2L63.3,11.4L62.9,11.2L62.2,10.7L60.3,10.1L59.7,10.0L59.3,9.7L57.8,9.4L56.0,9.1Z M53.4,19.8L55.7,19.9L57.8,20.6L58.8,21.1L60.5,22.7L61.3,23.7L62.0,25.1L62.4,26.8L62.4,29.1L62.2,29.9L62.2,30.3L61.9,31.2L60.9,32.8L59.5,34.3L58.7,34.8L57.0,35.7L55.0,36.1L53.4,36.1L52.5,36.0L50.8,35.4L49.4,34.4L48.2,33.3L47.9,32.8L47.9,32.5L48.3,32.0L49.3,31.3L50.2,30.9L52.0,29.6L53.1,29.0L53.9,28.5L54.2,28.1L54.0,27.6L52.3,26.7L50.2,25.3L49.5,25.0L48.6,24.4L48.0,24.0L47.8,23.7L47.9,23.4L48.2,22.7L49.2,21.8L49.9,21.1L50.7,20.7L51.5,20.5L51.7,20.3Z" fill="#000" fill-rule="evenodd"/>
</svg>