<svg xmlns="http://www.w3.org/2000/svg" viewBox="0 0 128 128" width="128" height="128">
  <path d="M19.7,119.7L19.5,119.5L18.9,119.5L18.4,120.2L19.8,120.2Z M25.7,120.1L25.7,120.2L26.3,120.2L26.7,120.0L27.6,120.0L27.9,120.2L28.6,120.2L28.1,119.5L27.1,119.3L26.4,119.4Z M21.4,120.1L21.4,120.2L21.9,120.2L22.2,120.0L23.3,119.9L23.8,120.2L24.4,120.2L24.1,119.7L23.6,119.3L22.2,119.3L21.8,119.5Z M15.3,119.6L15.2,119.4L14.5,119.3L14.0,119.7L13.6,120.2L15.3,120.2Z M55.1,9.4L54.4,9.7L54.1,12.0L54.1,36.2L54.3,40.4L54.1,44.4L54.3,51.7L54.2,57.7L54.3,59.5L54.5,59.9L54.9,60.1L79.6,60.1L80.0,60.4L79.9,61.4L78.8,63.5L78.5,63.9L78.3,64.5L78.0,64.8L77.3,66.3L76.0,68.2L75.4,69.5L73.2,73.0L72.8,74.1L71.5,76.1L71.4,76.6L70.5,77.9L69.7,79.3L67.5,82.9L66.3,85.2L65.5,86.5L64.9,87.1L64.4,87.0L63.8,86.5L63.4,85.5L62.6,84.4L61.8,82.8L61.0,81.7L60.9,81.2L60.5,80.8L60.2,80.1L60.1,80.0L60.1,79.8L59.5,79.1L59.4,78.7L59.0,78.1L58.3,76.6L57.1,74.7L56.8,74.0L55.6,72.0L54.9,70.7L53.9,69.1L53.8,68.7L51.4,64.6L51.1,64.2L50.4,62.7L49.9,62.2L49.4,60.9L48.7,60.1L46.0,55.0L45.2,53.8L43.9,51.3L43.2,50.3L38.9,42.7L38.0,41.6L37.3,41.4L16.2,41.5L14.1,41.6L13.9,41.7L13.8,42.1L15.6,45.2L18.5,49.4L19.0,50.5L21.0,53.3L22.2,55.2L23.3,56.8L23.6,57.4L25.0,59.3L25.4,60.2L28.5,64.6L30.5,67.9L31.0,68.4L33.2,71.9L33.9,72.8L34.7,74.0L36.9,77.1L37.3,78.0L39.9,81.7L40.1,82.4L41.6,84.3L42.0,85.2L42.4,85.6L43.1,86.8L44.9,89.4L46.1,91.5L47.1,92.8L47.6,93.7L49.8,96.9L50.1,97.5L53.5,102.5L54.1,103.6L57.8,109.0L58.1,109.6L58.4,110.0L59.2,111.3L59.5,111.6L62.6,116.6L64.1,118.8L64.8,118.9L65.4,118.2L66.3,116.7L66.5,116.2L67.3,115.2L67.6,114.6L70.4,110.3L70.7,109.9L72.3,107.3L73.2,106.0L75.0,102.9L75.5,102.5L76.0,101.4L77.4,99.6L79.0,96.8L79.7,96.0L80.0,95.3L81.2,93.6L81.5,92.9L82.4,91.7L82.5,91.3L83.7,89.7L85.5,86.8L86.7,85.1L87.0,84.5L87.3,84.1L88.9,81.6L89.7,80.6L89.8,80.0L90.7,78.8L91.3,78.0L93.9,73.9L94.3,73.5L95.0,72.2L95.3,71.9L95.8,71.0L97.3,68.8L98.8,66.3L99.2,65.9L99.4,65.4L100.2,64.3L100.9,63.0L102.2,61.2L102.4,60.7L107.8,52.6L108.3,51.5L109.2,50.3L114.4,42.1L114.4,41.5L113.3,41.2L76.8,41.3L75.2,41.2L74.8,40.6L74.6,38.6L74.7,28.3L74.5,15.9L74.7,15.2L74.5,12.7L74.5,9.9L74.0,9.4Z" fill="#000" fill-rule="evenodd"/>
</svg>