<svg xmlns="http://www.w3.org/2000/svg" viewBox="0 0 128 128" width="128" height="128">
  <path d="M62.5,10.6L59.9,12.2L58.1,13.7L57.8,13.8L55.2,16.5L54.1,17.9L53.2,19.4L53.1,19.8L52.0,21.6L50.9,23.7L50.6,24.0L50.0,25.4L49.5,25.9L49.4,26.3L48.4,27.9L46.5,31.6L46.1,32.0L46.0,32.3L45.0,33.9L43.3,37.2L42.6,38.2L40.6,42.0L40.3,42.3L39.4,44.2L38.8,45.0L35.9,50.6L33.8,54.0L33.0,55.7L32.0,57.2L31.8,57.8L30.3,60.3L28.8,63.2L28.1,64.0L25.6,69.0L25.0,69.9L24.0,70.7L23.8,71.1L23.8,72.0L23.3,72.9L22.7,74.2L21.7,75.6L21.3,76.8L20.2,78.4L17.9,82.9L17.0,84.2L16.8,84.9L16.4,85.4L16.2,86.0L15.7,86.5L15.2,87.9L12.3,92.7L10.6,97.0L9.9,99.5L9.8,100.7L9.9,103.8L10.3,105.7L10.6,107.1L11.0,107.6L11.7,109.3L12.2,110.3L13.4,111.8L13.6,112.2L14.4,113.1L14.6,113.5L16.7,115.3L18.2,116.5L20.2,117.5L25.1,118.7L34.7,118.9L37.0,118.7L91.3,118.7L112.1,118.6L118.3,118.4L118.5,118.2L118.5,117.8L117.8,116.4L114.8,111.1L114.6,110.4L113.2,108.1L112.0,105.6L110.7,103.7L110.6,103.2L109.3,101.1L108.9,100.9L99.7,100.8L76.6,101.1L72.9,101.0L72.5,100.7L72.5,100.6L72.8,100.3L73.5,100.1L75.2,99.3L78.3,97.4L80.3,95.5L83.2,91.5L86.4,86.1L87.1,84.5L89.3,81.0L90.8,78.1L91.7,76.8L92.6,74.9L97.5,66.3L97.8,65.5L98.6,64.1L99.7,62.1L101.0,58.1L101.4,55.1L101.4,53.3L100.7,49.2L100.2,48.2L100.0,47.4L98.3,43.9L97.6,43.1L96.3,40.5L96.0,40.2L95.8,39.7L95.1,38.7L93.3,35.2L92.4,33.9L92.1,33.2L90.6,30.7L89.4,28.3L87.6,25.4L87.4,24.7L86.0,22.5L84.3,19.1L81.2,14.6L79.9,13.4L79.2,12.9L78.9,12.9L77.1,11.4L74.9,10.4L73.3,9.8L70.4,9.4L66.3,9.5L64.2,9.9Z M68.5,27.7L69.6,29.4L73.2,36.4L74.0,37.4L75.5,40.3L76.0,40.9L76.2,41.7L77.7,44.0L77.9,44.6L78.9,45.9L79.6,47.6L79.9,47.9L80.8,49.6L81.2,50.1L83.1,53.6L83.1,54.6L82.0,56.9L81.7,57.2L80.9,58.9L79.4,61.3L78.2,64.0L76.1,67.5L75.9,68.4L74.9,69.7L74.6,70.4L74.4,70.7L74.2,71.4L73.8,71.8L73.5,72.5L73.2,72.8L72.9,73.6L71.5,75.9L71.2,76.8L70.4,78.0L70.3,78.4L69.9,78.9L69.3,80.4L68.1,81.8L67.7,81.8L67.2,81.4L66.2,79.7L62.6,72.8L61.6,71.3L61.0,69.8L60.0,68.4L57.6,63.4L57.3,63.1L56.4,61.3L56.2,60.7L55.7,60.0L55.2,58.6L54.7,58.0L54.1,58.0L53.2,59.2L52.8,60.2L51.2,62.7L51.0,63.3L50.4,64.0L48.6,67.6L46.0,71.8L45.4,73.3L44.4,74.8L44.4,75.7L44.6,76.2L45.2,77.0L47.6,82.2L48.0,82.7L48.8,84.6L50.2,86.9L51.2,89.3L51.5,89.5L52.0,90.9L53.6,93.5L55.2,95.6L57.0,97.4L58.1,98.0L59.5,99.2L61.6,100.4L61.8,100.7L61.4,101.0L58.2,101.1L51.6,101.0L47.4,101.2L45.6,101.1L35.3,101.3L29.8,101.2L28.1,100.9L27.7,100.6L27.8,100.0L29.1,97.5L29.5,97.0L29.8,96.0L30.8,94.5L31.0,94.0L31.4,93.4L33.8,89.0L34.4,88.2L34.9,86.9L35.4,86.3L35.7,85.6L36.1,85.0L36.9,83.4L37.3,83.0L37.7,81.8L38.3,81.2L39.1,79.6L42.6,73.4L42.8,72.8L43.4,72.0L43.7,71.3L45.5,68.4L48.2,63.2L51.3,57.8L52.0,56.2L52.4,55.8L54.7,51.3L55.8,49.6L56.9,47.2L57.2,46.9L59.4,42.8L61.6,38.8L61.9,38.5L62.0,38.2L62.3,37.9L63.5,35.4L64.0,34.9L64.7,33.4L66.1,31.1L67.8,27.9Z" fill="#000" fill-rule="evenodd"/>
</svg>