<svg xmlns="http://www.w3.org/2000/svg" viewBox="0 0 128 128" width="128" height="128">
  <path d="M40.3,120.2L41.4,120.2L41.2,119.5L40.6,119.5Z M37.8,119.6L37.5,119.4L37.1,119.5L36.7,119.9L36.7,120.2L37.7,120.2Z M46.0,119.8L46.2,120.2L46.5,120.2L46.8,119.8L48.2,119.5L48.2,119.3L47.8,119.2L46.8,119.2L46.2,119.4Z M42.7,120.2L43.0,120.2L43.6,119.6L44.3,119.7L44.8,120.0L45.0,120.0L45.0,119.7L44.3,119.2L43.6,119.2L43.3,119.3L42.8,119.7Z M91.1,64.9L80.3,64.9L79.1,64.9L78.7,65.1L78.3,65.8L77.6,67.3L76.4,69.6L76.0,70.8L75.5,71.8L75.5,72.0L74.8,73.0L74.6,73.7L74.1,74.5L73.9,75.2L72.8,77.4L72.7,77.7L72.3,78.4L71.5,80.3L71.0,81.1L70.9,81.6L69.4,84.7L68.4,87.1L66.9,90.0L66.8,90.5L66.5,90.8L66.4,91.4L65.7,92.6L65.2,93.7L64.5,94.9L64.2,94.9L63.9,94.6L63.0,92.9L62.5,91.7L62.3,91.2L62.2,90.9L61.9,90.5L61.8,90.1L59.9,86.2L59.7,85.5L57.4,80.9L56.7,79.1L55.8,77.4L55.5,76.5L54.4,74.4L54.2,73.8L53.0,71.5L52.5,70.3L51.9,69.1L51.8,68.8L50.2,65.6L50.0,65.3L49.6,65.1L37.2,65.3L36.7,65.5L37.6,67.4L37.9,67.8L38.0,68.3L38.3,68.6L38.9,69.9L39.9,71.8L40.2,72.5L41.7,75.2L42.6,77.3L44.7,81.1L45.0,82.0L45.3,82.2L49.0,89.8L50.7,92.8L51.2,94.0L52.7,96.9L52.9,97.6L53.8,99.3L54.1,99.6L54.6,100.8L55.9,103.3L57.8,107.3L58.2,107.8L60.3,112.1L61.3,113.9L63.2,117.8L64.0,119.1L64.3,119.2L64.7,118.9L65.5,117.0L65.8,116.7L66.7,115.0L67.1,113.9L67.4,113.6L67.9,112.4L68.5,111.2L68.7,110.7L69.7,108.9L69.8,108.5L71.1,106.0L71.4,105.6L73.8,100.7L74.3,99.8L74.9,98.4L75.3,97.8L78.5,91.2L80.1,88.2L80.8,86.8L80.9,86.4L81.2,85.9L83.7,81.1L84.2,79.7L84.5,79.4L86.9,74.4L87.4,73.6L89.0,70.4L89.6,69.0L90.8,66.7L91.4,65.4L91.4,65.1Z M64.2,9.0L63.5,10.2L62.5,12.4L62.2,12.7L61.3,14.7L60.9,15.2L58.3,20.5L57.8,20.9L57.7,21.7L56.3,24.4L54.6,27.9L54.2,28.4L53.4,30.4L53.2,30.6L52.9,31.2L52.4,32.1L52.2,32.7L51.9,33.1L49.7,37.5L49.0,38.6L48.7,39.5L46.7,43.3L44.9,47.0L44.5,47.6L44.1,48.7L42.6,51.3L42.6,51.7L41.1,54.2L40.6,55.5L37.2,62.0L37.0,62.7L37.4,62.9L46.8,62.9L49.7,62.7L50.4,61.7L50.5,61.4L52.9,56.6L53.0,56.1L57.4,47.4L57.5,47.0L58.3,45.4L59.2,43.4L60.3,41.5L60.3,41.2L61.0,39.9L61.3,39.1L61.8,38.4L62.1,38.3L62.3,38.5L62.4,40.7L62.3,76.6L62.6,76.9L63.0,77.0L65.6,77.0L66.2,76.8L66.3,76.4L66.4,75.5L66.4,43.2L66.5,38.6L66.6,38.3L66.8,38.2L67.4,39.0L68.6,41.2L69.0,42.4L70.6,45.5L70.9,46.0L71.1,46.6L71.4,46.9L71.4,47.1L74.7,53.8L74.8,54.2L75.5,55.4L75.6,55.9L78.1,60.9L78.3,61.4L79.0,62.4L79.7,62.6L85.4,62.6L88.8,62.4L91.0,62.5L91.3,62.4L91.4,61.8L87.9,55.0L87.4,53.8L86.7,52.6L85.4,49.9L85.0,49.3L84.7,48.4L83.1,45.4L83.0,44.9L82.5,44.2L82.4,43.8L81.6,42.2L81.3,41.9L81.1,41.2L79.8,38.8L79.7,38.5L79.3,37.8L78.8,36.8L78.5,36.3L77.1,33.4L76.1,31.6L76.0,31.1L75.1,29.7L75.0,29.2L74.1,27.7L73.0,25.2L72.3,24.0L72.1,23.6L71.9,23.4L71.6,22.6L71.4,22.3L69.3,18.0L68.6,16.8L68.5,16.4L68.2,16.1L67.7,14.8L67.2,14.1L66.6,12.7L66.2,12.2L66.2,11.8L65.9,11.4L64.9,9.5L64.7,9.3L64.6,9.1Z" fill="#000" fill-rule="evenodd"/>
</svg>