<svg xmlns="http://www.w3.org/2000/svg" viewBox="0 0 128 128" width="128" height="128">
  <path d="M115.7,35.1L115.2,34.7L114.5,34.6L105.6,34.9L101.0,34.8L96.3,34.9L95.2,35.1L86.9,35.1L82.5,35.3L81.3,35.2L78.5,35.4L73.5,35.4L69.7,35.6L69.0,35.8L68.6,36.2L67.5,38.2L66.7,39.3L65.5,41.6L63.3,45.3L62.5,47.0L61.5,48.4L59.8,51.6L58.7,53.4L58.3,54.4L57.7,55.2L56.4,57.7L55.6,59.0L55.4,59.7L54.7,60.6L53.9,62.4L53.6,62.6L52.5,64.5L52.3,65.3L50.5,68.1L49.6,70.0L48.0,72.6L45.5,77.2L45.1,77.7L41.8,83.6L41.5,83.8L40.3,86.2L38.8,88.7L38.7,89.1L37.3,91.5L36.6,92.2L36.2,91.9L36.1,91.0L36.2,78.0L36.1,37.2L35.5,36.6L32.1,36.5L12.8,36.7L12.0,36.9L11.8,37.2L11.6,37.8L11.6,42.9L12.0,59.5L11.9,73.4L12.1,89.6L12.0,117.5L12.2,118.4L12.8,118.8L14.1,118.9L46.3,119.0L49.0,118.9L49.4,118.7L52.1,114.4L53.0,112.6L56.1,107.4L56.7,106.0L58.1,103.9L59.5,101.1L60.1,100.4L61.4,97.8L61.6,97.6L61.8,97.0L62.1,96.8L63.8,93.5L66.5,88.9L66.9,88.0L67.4,87.5L67.9,86.2L69.3,84.0L70.9,80.8L71.2,80.6L72.5,78.1L73.6,76.5L74.7,74.1L75.8,72.5L78.0,68.1L78.3,67.8L79.6,65.3L81.5,62.4L81.6,62.0L82.3,60.9L82.7,60.0L83.2,59.3L84.7,56.4L86.0,54.4L89.1,48.5L90.0,47.2L90.7,45.6L91.6,44.8L91.8,44.8L92.0,45.1L91.9,47.8L92.1,58.5L92.1,74.6L92.4,84.3L92.5,102.4L92.8,118.3L93.5,118.8L94.8,118.9L104.1,118.9L107.9,118.7L115.6,118.6L116.4,118.3L116.7,117.3L116.5,111.0L116.6,108.5L116.4,102.3L116.5,96.5L116.2,80.7L116.2,68.2L116.0,63.3L116.1,55.9L116.0,48.8L115.9,35.5Z M115.0,9.4L113.7,9.3L109.8,9.6L97.7,9.7L95.3,9.9L92.7,9.9L92.1,10.0L91.8,10.6L91.7,11.2L91.7,26.6L91.8,28.1L92.0,29.2L92.4,29.4L93.1,29.5L97.8,29.2L104.7,29.2L106.4,29.1L115.1,29.0L115.7,28.5L115.7,13.3L115.6,10.0Z" fill="#000" fill-rule="evenodd"/>
</svg>