<svg xmlns="http://www.w3.org/2000/svg" viewBox="0 0 128 128" width="128" height="128">
  <path d="M59.3,9.5L57.9,9.8L54.9,10.0L53.6,10.3L52.9,10.6L51.2,11.0L50.7,11.2L46.8,12.2L44.7,13.0L43.1,13.8L42.8,13.8L41.1,14.8L40.8,14.8L39.2,15.5L38.5,16.1L36.4,17.1L35.4,17.9L33.1,19.2L32.7,19.7L30.2,21.2L28.9,22.4L28.4,22.7L27.6,23.3L25.3,25.6L22.4,28.7L22.1,29.2L19.8,32.1L15.9,38.1L14.0,41.7L11.6,48.3L11.6,48.6L11.1,49.8L10.3,53.1L10.0,54.9L10.0,55.6L9.7,56.6L9.2,62.7L9.3,68.5L9.8,73.0L11.1,78.8L13.1,85.7L14.3,88.0L14.7,88.9L16.9,92.5L17.0,93.0L18.1,94.5L18.3,95.0L22.2,100.2L27.6,105.6L28.0,105.8L29.5,107.3L35.7,111.4L39.7,113.5L41.0,114.1L41.4,114.2L42.0,114.5L42.3,114.5L44.1,115.4L44.8,115.6L45.0,115.7L47.5,116.4L50.0,117.3L52.8,117.8L54.1,117.9L55.5,118.3L56.5,118.4L57.3,118.7L60.0,118.7L62.0,118.8L67.8,118.7L74.1,117.9L75.6,117.5L76.8,117.4L77.5,117.1L78.8,117.0L85.0,114.8L86.5,114.1L88.1,113.5L88.3,113.3L90.4,112.3L90.8,111.9L92.2,111.2L97.1,108.0L103.0,103.0L104.1,101.9L104.6,101.1L105.5,100.3L107.1,98.4L107.7,97.4L108.4,96.7L110.5,93.8L111.5,92.1L112.0,91.6L113.7,88.8L114.2,87.7L114.6,87.1L114.7,86.4L116.3,82.9L116.7,81.5L116.9,81.2L118.0,76.9L118.8,73.1L119.0,69.2L119.0,63.0L118.9,62.2L118.9,60.6L118.4,56.0L118.0,55.0L117.4,51.2L115.5,45.4L114.9,44.0L114.0,41.6L113.1,39.9L113.0,39.5L112.5,38.6L112.2,38.3L112.0,37.7L111.7,37.4L111.2,36.4L110.3,34.8L109.2,33.5L108.8,32.7L107.7,31.4L107.3,30.6L104.0,26.7L100.2,22.9L99.1,22.2L96.6,20.1L96.2,20.0L95.8,19.6L95.2,19.3L92.2,17.2L91.6,17.0L91.3,16.7L90.0,16.1L88.9,15.3L88.3,15.2L88.1,14.9L86.8,14.3L86.6,14.3L85.9,13.9L83.7,13.2L83.6,13.0L82.9,12.8L82.1,12.4L77.8,11.1L75.3,10.7L74.2,10.4L72.6,10.2L71.4,9.9L69.7,9.7L68.4,9.7L67.3,9.5Z M64.6,76.7L64.8,77.0L66.5,81.1L66.8,81.6L67.4,83.2L67.7,83.5L68.8,86.3L68.8,86.5L69.5,87.9L69.8,88.9L72.2,93.9L73.5,97.2L74.3,98.9L74.7,100.1L77.6,106.6L77.6,107.0L77.9,107.4L77.9,107.6L77.5,108.1L73.9,109.0L65.9,110.0L60.3,109.9L56.2,109.5L54.1,109.2L53.9,109.0L53.3,109.0L50.9,108.3L50.5,107.9L50.9,106.6L52.3,103.5L52.4,103.1L53.0,101.9L53.0,101.7L53.8,100.1L56.5,93.6L56.9,92.9L58.7,88.6L59.0,88.1L59.9,86.0L60.3,85.2L60.7,84.2L62.2,81.1L63.8,77.1L64.2,76.7Z M20.4,50.8L20.7,50.8L21.3,51.5L22.1,53.1L22.9,54.8L22.9,55.0L23.5,56.1L24.1,57.6L25.1,59.7L25.6,61.0L26.5,62.7L26.6,63.1L27.3,64.4L27.9,65.9L30.0,70.2L30.2,71.0L33.6,78.2L33.6,78.5L34.9,80.9L35.6,82.7L36.1,83.5L37.3,86.5L37.9,87.4L38.7,89.4L39.5,90.9L41.1,94.6L42.0,96.3L42.0,96.6L42.6,97.6L43.1,99.1L44.1,101.0L44.8,103.1L45.5,104.4L46.1,106.0L45.5,106.2L44.4,105.5L43.7,105.3L42.5,104.6L41.8,104.4L41.6,104.1L41.1,104.0L40.7,103.6L40.4,103.6L40.1,103.2L38.7,102.5L36.9,101.2L36.5,101.0L34.9,99.7L33.9,98.8L33.1,98.2L31.8,96.8L30.1,95.3L26.7,91.2L26.0,90.0L25.0,88.8L23.7,86.6L22.0,83.4L22.0,83.1L21.6,82.4L20.6,79.9L18.8,74.5L18.7,73.5L18.5,72.8L18.1,70.9L17.8,67.7L17.8,60.6L18.4,56.7L19.3,52.9L20.1,51.1Z M107.2,48.9L107.4,49.1L107.8,50.0L108.6,53.2L109.1,54.9L109.3,56.2L109.6,57.3L110.1,61.8L110.1,68.3L109.7,71.7L109.4,72.6L109.2,73.9L108.3,77.4L107.9,78.6L107.8,79.2L106.4,82.6L104.0,87.3L101.7,90.7L99.5,93.6L97.2,95.7L95.8,97.2L94.2,98.4L93.5,99.3L91.5,100.9L88.6,103.1L84.8,105.3L82.4,106.5L81.9,106.6L81.8,106.1L82.4,104.9L84.2,100.5L85.1,98.9L85.3,97.9L86.2,95.9L86.5,95.1L86.7,94.8L86.9,94.1L88.3,91.1L88.3,90.9L88.5,90.6L89.2,88.8L89.6,88.2L92.3,81.2L93.7,78.3L94.8,75.5L95.2,74.8L95.2,74.6L95.7,73.7L96.1,72.5L96.4,72.2L97.8,68.8L98.4,67.6L98.4,67.4L99.5,65.3L99.5,64.9L100.3,63.6L101.6,60.2L102.5,58.5L102.6,58.0L103.0,57.5L105.4,52.0L105.8,51.4L106.3,50.0L106.9,48.9Z M90.4,26.5L94.6,29.9L96.9,32.1L98.4,33.9L99.5,35.5L100.4,36.7L101.0,37.7L101.0,38.1L99.7,40.7L99.5,41.5L98.6,43.3L98.2,43.8L97.2,46.4L96.8,47.1L96.5,47.9L95.2,50.7L94.3,53.2L93.2,55.2L93.1,55.6L92.6,56.7L92.5,57.2L91.5,59.1L91.2,60.1L90.9,60.5L90.7,61.0L90.4,61.5L90.2,62.3L88.0,67.0L86.4,70.9L86.0,71.5L86.0,71.8L85.5,72.6L85.4,73.0L85.0,73.7L83.9,76.5L83.6,77.0L83.6,77.3L83.2,77.9L82.4,79.9L82.2,80.2L81.7,81.7L80.2,84.7L79.7,85.3L79.5,85.3L79.2,84.9L78.7,83.5L78.3,82.9L77.5,80.9L77.0,79.5L76.3,78.2L76.3,77.8L75.6,76.6L75.5,76.2L74.7,74.6L74.2,73.3L73.8,72.6L73.8,72.4L73.5,71.9L73.4,71.5L72.4,69.4L71.8,67.9L70.9,66.6L70.5,66.4L67.4,66.3L59.0,66.3L57.8,66.4L57.2,66.8L55.5,70.4L55.2,71.2L54.3,73.3L53.9,74.4L53.5,75.2L51.9,79.1L51.1,80.6L50.9,81.5L50.4,82.4L49.9,83.8L49.6,84.2L48.8,86.0L48.5,86.3L48.3,86.3L47.8,85.6L47.6,85.1L46.4,82.7L46.3,82.3L45.2,80.0L44.8,78.9L44.4,78.4L43.5,76.1L42.7,74.7L42.3,73.4L41.8,72.6L40.3,69.2L39.4,67.6L38.8,66.2L38.2,65.0L38.0,64.4L36.4,61.0L36.4,60.8L35.9,60.0L35.9,59.7L34.1,56.2L34.1,56.0L32.8,53.1L32.7,52.7L31.1,49.6L30.9,48.9L30.2,47.6L29.7,46.3L28.8,44.8L27.4,41.7L26.3,39.5L26.3,38.9L26.9,37.7L29.3,34.7L31.6,32.3L33.9,30.1L36.6,28.1L40.4,25.6L41.0,25.6L41.6,26.3L42.8,29.1L44.1,31.4L44.4,32.2L45.7,34.8L46.1,36.1L46.6,36.8L47.6,39.5L49.2,42.6L50.2,45.0L51.8,48.2L53.5,52.1L54.3,53.7L54.4,54.1L55.7,56.6L56.1,57.7L57.8,60.9L58.6,62.8L59.2,63.2L64.7,63.0L69.0,63.0L69.7,62.5L71.7,58.5L73.7,54.0L73.8,53.6L74.1,53.1L74.3,52.4L74.9,51.4L76.5,47.5L77.3,45.9L77.8,44.6L78.1,44.1L79.7,40.3L80.1,39.5L80.1,39.2L80.8,37.8L81.0,36.9L83.5,31.7L83.7,30.8L84.5,29.3L84.7,28.5L85.1,27.8L85.3,27.1L85.6,26.6L86.3,24.8L86.6,24.4L87.1,24.4Z M75.9,19.8L76.8,20.5L76.8,20.9L76.4,22.5L75.0,25.7L74.2,27.2L74.0,28.1L73.5,29.0L73.5,29.2L72.5,31.3L72.3,32.1L72.0,32.6L70.9,35.4L70.6,35.9L69.5,38.6L68.1,41.6L67.6,43.0L67.0,44.1L66.1,46.5L65.7,47.1L65.7,47.3L64.8,48.9L64.3,50.2L63.8,50.5L63.4,50.1L62.8,48.2L62.0,46.6L61.6,45.4L59.8,41.4L57.0,35.9L54.8,30.9L54.4,30.3L54.2,29.5L50.7,22.6L50.4,21.8L50.4,21.3L50.9,20.9L52.2,20.4L55.9,19.3L56.9,19.2L59.1,18.8L62.5,18.4L70.1,18.5L71.7,18.8L72.3,18.8Z" fill="#000" fill-rule="evenodd"/>
</svg>