<svg xmlns="http://www.w3.org/2000/svg" viewBox="0 0 128 128" width="128" height="128">
  <path d="M119.1,63.6L118.6,62.5L118.1,61.9L117.3,61.4L117.2,61.4L116.9,61.1L115.0,60.0L114.4,59.6L113.7,59.2L112.6,58.4L112.1,58.2L110.2,56.8L109.6,56.5L108.1,55.6L106.4,54.6L105.5,54.3L104.5,54.2L103.2,54.7L101.8,55.4L101.5,55.7L100.8,56.0L100.1,56.5L98.9,57.1L98.3,57.2L98.0,56.8L97.8,53.8L97.4,51.1L96.8,49.8L96.2,49.2L95.6,48.9L92.3,47.4L91.3,47.1L88.8,45.9L84.9,44.4L84.0,43.9L82.2,43.3L80.9,43.4L80.2,43.9L79.8,44.3L79.5,45.0L79.1,45.3L76.2,42.8L74.0,41.3L70.6,39.7L70.1,39.6L69.5,39.3L67.5,38.8L67.3,38.6L67.2,38.1L67.4,25.8L67.2,25.4L66.9,25.4L66.6,25.9L66.6,26.1L65.8,28.0L65.5,29.1L64.7,30.9L64.5,31.5L63.2,34.4L62.0,37.8L61.3,38.4L59.0,38.7L58.0,39.0L57.6,39.0L54.0,40.2L51.4,41.6L49.7,42.7L48.2,44.0L45.9,46.2L45.0,47.3L43.4,49.8L41.8,53.0L41.4,53.0L41.1,52.7L40.8,52.0L40.5,51.7L40.4,51.3L39.5,50.5L38.2,50.1L37.2,50.3L35.1,51.4L33.8,52.3L32.2,53.2L31.2,53.9L29.2,55.0L28.7,55.5L27.6,56.0L25.7,57.3L25.0,57.9L24.3,59.1L24.2,60.2L24.5,61.3L25.7,63.8L25.7,64.0L27.1,67.2L27.1,67.5L26.9,67.7L26.3,67.6L20.2,65.0L19.6,64.8L18.8,64.8L18.0,65.1L17.3,65.5L16.3,66.7L15.2,68.4L14.8,68.7L14.3,69.6L12.2,72.4L9.3,76.6L9.1,77.6L9.1,78.8L9.4,79.7L9.7,80.1L10.8,81.0L14.5,82.7L15.4,83.4L17.7,84.4L18.1,84.7L19.4,85.2L19.6,85.5L21.4,86.4L21.9,86.5L23.0,87.2L29.2,90.3L31.1,91.3L33.3,92.3L34.0,92.8L36.2,93.9L37.3,94.3L38.2,94.3L39.5,94.2L40.5,93.7L41.2,93.3L44.3,90.7L46.7,88.2L46.9,88.2L48.3,87.0L48.6,87.0L48.6,87.5L47.9,89.6L47.4,91.5L47.1,92.0L47.0,92.8L46.7,93.4L46.7,93.7L47.0,94.0L47.3,94.0L48.1,93.7L49.2,93.2L50.0,93.0L50.7,92.6L52.2,92.1L52.3,91.9L55.2,90.9L55.9,90.5L57.4,90.0L57.9,89.9L58.1,90.1L58.1,90.4L57.8,90.8L57.8,91.1L57.6,91.5L57.4,92.5L57.1,93.0L56.6,94.2L56.5,94.7L53.6,102.5L53.7,102.9L54.0,102.9L58.7,98.6L59.7,97.8L62.0,95.6L63.7,94.2L64.2,93.7L67.2,91.0L69.0,89.4L70.2,88.5L73.5,85.3L74.7,84.3L74.7,84.0L74.5,83.7L70.9,82.3L70.5,82.0L69.7,81.8L69.6,81.4L69.8,81.2L71.1,80.7L72.2,80.8L74.1,81.7L74.7,81.8L75.0,82.1L77.4,83.0L78.4,83.4L79.5,83.4L81.0,83.0L83.3,81.7L85.3,80.3L86.0,80.2L86.1,80.3L86.1,85.2L86.5,86.4L86.9,87.1L87.7,88.1L90.0,89.8L91.9,90.9L93.2,91.9L93.5,91.9L94.3,92.6L96.2,93.7L99.3,95.8L99.9,96.1L100.8,96.2L101.9,95.8L102.8,95.1L103.2,93.9L103.2,89.4L102.5,77.2L102.6,74.5L102.9,74.1L103.8,73.6L106.8,72.1L107.1,71.9L108.3,71.4L110.4,70.2L112.0,69.5L113.8,68.4L114.0,68.4L114.4,68.1L117.8,66.4L118.6,65.8L118.7,65.4L119.0,65.0Z M50.4,89.8L50.4,89.4L51.1,87.4L51.3,86.6L51.4,86.4L52.0,84.9L52.1,84.0L53.1,81.2L53.6,80.7L54.0,80.7L56.9,81.7L59.4,82.2L61.7,82.4L65.1,82.3L69.9,84.3L70.4,84.7L70.3,85.1L69.6,85.8L64.0,90.7L61.1,93.4L59.2,95.0L58.9,94.9L59.0,94.3L59.6,92.9L60.1,91.2L62.0,86.3L61.9,85.8L61.6,85.7L60.7,86.0L59.3,86.7L58.7,86.8L58.2,87.1L56.5,87.6L56.1,87.9L54.4,88.5L52.0,89.6L51.5,89.7L51.1,89.9L50.6,89.9Z M37.7,52.6L38.4,52.6L38.9,53.2L40.7,57.1L40.7,58.4L40.6,61.7L40.8,63.8L41.3,66.4L42.0,68.1L42.1,68.6L43.7,71.8L45.5,74.4L47.5,76.5L49.2,78.0L50.1,78.5L51.0,79.4L51.0,80.0L50.4,81.8L48.3,83.8L45.6,86.3L43.7,88.2L42.4,89.2L41.9,89.8L40.8,90.7L40.4,91.2L39.6,91.7L38.7,92.1L37.9,92.1L36.8,91.7L33.4,90.1L33.2,89.8L32.0,89.2L31.8,89.2L30.6,88.5L22.3,84.4L20.9,83.6L20.3,83.4L13.4,79.9L13.2,79.7L12.1,79.2L11.4,78.6L11.3,78.2L11.4,77.5L12.3,76.1L15.1,72.3L15.3,71.9L15.9,71.2L18.3,67.8L19.1,67.2L19.7,67.2L20.3,67.3L29.1,71.3L30.3,71.7L31.0,72.1L31.5,72.0L31.2,70.7L30.7,69.9L29.6,67.1L29.2,66.5L29.0,65.7L28.5,64.9L28.2,63.8L27.8,63.2L27.1,61.6L27.0,61.1L26.7,60.5L26.7,59.6L27.6,58.8L29.3,57.7L30.3,57.1L32.7,55.6Z M82.4,46.2L83.0,46.2L83.7,46.3L87.0,47.8L88.5,48.3L90.0,49.1L90.6,49.2L91.7,49.8L92.2,49.9L92.8,50.3L93.6,50.5L94.6,51.2L95.1,51.9L95.3,52.8L95.8,60.8L96.1,61.1L96.5,61.2L97.4,60.8L98.2,60.2L101.9,58.2L102.1,58.0L102.4,57.9L103.8,57.0L104.5,56.7L105.2,56.7L106.4,57.3L108.4,58.7L110.3,59.8L111.1,60.5L113.2,61.6L115.8,63.4L116.3,63.9L116.3,64.2L116.2,64.5L115.6,64.9L111.2,67.1L110.4,67.6L107.7,68.9L107.4,69.1L105.4,70.1L104.7,70.6L102.0,71.8L100.3,72.9L100.1,73.2L100.1,74.7L100.3,76.2L100.3,78.0L100.4,78.8L100.4,81.8L100.6,82.8L100.7,87.7L101.0,90.7L101.0,93.1L100.6,93.4L99.9,93.4L97.4,91.6L97.0,91.5L95.6,90.5L92.8,88.8L89.6,86.7L88.8,86.0L88.5,85.5L88.4,84.9L88.5,78.9L88.5,75.6L87.9,75.7L80.9,80.4L80.1,80.8L79.4,80.9L78.2,80.9L75.0,79.4L74.8,79.1L74.8,78.9L75.1,78.5L77.1,77.1L79.1,75.1L81.2,72.4L81.8,71.5L83.4,68.2L84.5,64.8L84.9,61.7L84.8,58.1L84.4,55.7L83.9,53.7L82.4,49.8L82.2,47.7L82.1,47.3L82.1,46.5Z M58.2,41.3L60.0,41.1L60.3,41.3L60.4,41.8L59.8,43.0L59.6,43.9L59.3,44.4L58.7,46.2L58.5,46.4L57.0,50.4L56.2,52.3L56.1,52.9L55.9,53.2L55.7,53.8L55.5,54.1L54.5,56.4L53.6,59.1L53.3,59.6L53.3,59.9L53.5,60.1L53.9,60.1L55.0,59.7L55.6,59.6L57.6,58.9L58.4,58.9L58.5,59.0L58.4,59.6L57.8,61.2L57.8,63.3L58.2,64.6L58.7,65.5L59.9,66.7L60.3,67.0L61.6,67.6L62.6,67.8L63.6,67.9L65.7,67.4L66.9,66.6L67.8,65.7L68.4,64.6L69.0,63.1L69.3,62.5L70.1,60.5L70.4,60.1L71.5,57.1L72.6,55.0L73.2,53.2L73.4,52.9L74.0,51.2L74.6,50.0L74.6,49.7L74.3,49.4L72.5,49.3L67.5,49.5L67.1,49.2L66.9,49.0L66.9,45.7L67.1,41.9L67.3,41.6L68.0,41.5L68.9,41.7L69.7,42.1L70.6,42.3L71.8,42.8L73.0,43.6L73.4,43.7L75.3,45.1L76.4,46.1L78.2,48.0L79.5,49.8L80.5,51.6L81.2,53.3L82.1,55.9L82.5,59.1L82.5,60.9L82.2,64.0L81.9,64.8L81.6,66.3L81.5,66.4L80.9,68.1L80.1,69.7L79.1,71.3L77.9,72.9L76.4,74.5L74.0,76.4L72.7,77.3L70.4,78.4L69.8,78.5L68.4,79.1L66.8,79.6L64.6,79.8L63.6,80.0L61.1,80.0L58.0,79.6L54.3,78.3L51.7,76.9L49.2,74.9L48.0,73.8L46.2,71.6L45.6,70.7L45.4,70.1L44.6,68.8L43.8,66.8L43.3,64.9L42.8,61.6L43.0,58.0L43.4,55.7L44.0,53.8L45.6,50.6L47.8,47.6L49.5,45.9L51.2,44.6L52.1,44.0L52.4,43.7L54.9,42.5L56.5,41.9L56.8,41.7Z M64.5,38.4L64.7,38.6L64.5,51.6L64.8,51.9L65.0,52.0L70.2,51.8L70.9,52.0L70.9,52.3L70.3,54.0L69.6,55.4L68.9,57.4L68.4,58.2L66.1,63.6L65.7,64.2L64.8,64.9L63.9,65.2L62.9,65.3L61.7,64.9L60.9,64.2L60.3,63.1L60.2,62.4L60.4,61.4L62.6,55.7L62.5,55.3L61.9,55.3L60.5,55.7L59.9,55.8L59.1,56.2L58.1,56.3L57.7,56.5L57.2,56.5L57.1,56.4L57.1,56.2L58.1,53.2L58.3,53.0L59.8,49.1L60.2,48.4L60.5,47.1L62.0,44.0L62.6,41.9L63.8,39.3Z" fill="#000" fill-rule="evenodd"/>
</svg>