<svg xmlns="http://www.w3.org/2000/svg" viewBox="0 0 128 128" width="128" height="128">
  <path d="M60.6,71.2L60.2,71.2L59.9,71.4L58.3,73.9L58.0,74.6L56.6,76.6L56.4,77.2L55.5,78.4L55.3,79.0L54.4,80.2L53.1,82.5L52.1,83.7L51.5,85.1L50.6,86.4L48.3,90.4L46.9,92.5L46.5,93.2L42.8,99.0L42.8,99.3L40.2,103.3L39.9,104.0L38.6,105.9L38.4,106.4L38.0,106.7L37.7,107.5L35.9,110.5L36.0,111.1L36.4,111.2L37.6,111.3L44.1,111.3L44.5,111.1L45.4,109.9L46.6,107.7L47.3,106.8L47.5,106.2L49.2,103.7L49.7,102.6L52.1,98.9L52.9,97.4L55.4,93.5L56.7,91.3L57.7,89.9L58.6,88.2L59.2,87.6L59.5,87.6L59.9,87.9L60.7,89.3L61.4,90.8L62.1,91.8L62.6,92.8L62.8,93.0L63.1,93.8L65.7,98.3L66.6,100.2L67.7,101.9L68.4,103.5L72.8,111.5L73.4,111.9L75.0,112.1L77.4,112.0L81.9,112.2L82.5,112.0L82.5,111.3L81.7,109.9L81.5,109.4L81.0,108.6L80.2,106.9L79.9,106.7L78.9,104.6L78.3,103.6L76.3,99.7L75.8,99.0L72.7,93.3L72.5,93.0L71.5,90.9L71.1,90.4L70.2,88.6L69.8,88.2L69.6,87.6L69.0,86.6L67.0,82.8L66.6,82.4L66.4,81.7L65.9,81.0L64.2,77.7L63.9,77.3L62.3,74.1Z M69.4,70.9L69.2,71.1L69.2,71.6L69.8,72.7L70.1,73.1L70.6,74.4L72.7,77.7L73.1,78.9L77.7,86.9L77.9,87.4L78.1,87.6L79.7,90.8L80.7,92.5L80.8,92.8L81.1,93.0L81.4,93.9L82.0,94.8L82.7,96.3L83.3,97.1L83.5,97.8L86.4,102.7L86.8,103.6L88.3,106.2L88.5,106.8L90.8,110.8L91.0,111.3L91.3,111.5L91.6,111.5L95.3,105.5L95.7,104.6L95.7,104.2L94.0,100.8L93.8,100.6L92.3,97.6L92.0,97.4L91.5,96.2L91.2,95.8L90.6,94.5L89.7,93.1L88.4,90.4L86.2,86.6L85.7,85.5L84.7,83.9L83.1,80.9L83.0,80.4L83.1,80.1L83.4,79.9L87.1,79.9L90.3,80.1L93.6,80.1L95.2,80.2L109.8,80.5L110.4,80.4L110.8,79.8L113.4,75.3L114.5,73.7L114.9,72.6L114.4,72.2L111.3,72.1L110.6,72.0L108.6,72.1L105.4,71.9L101.3,71.9L98.0,71.7L84.9,71.4L83.9,71.3L81.6,71.3L80.6,71.2L77.3,71.2L74.5,70.9Z M55.4,63.2L53.0,62.9L45.5,62.8L23.6,62.2L22.3,62.3L18.0,62.1L9.4,62.1L9.2,62.3L9.2,62.6L10.7,65.2L12.5,68.8L13.0,69.6L13.6,70.1L21.8,70.1L28.0,70.3L30.8,70.2L38.3,70.4L39.2,70.5L40.3,70.5L40.8,70.8L40.6,71.6L39.9,72.6L38.0,75.9L35.6,79.5L35.2,80.4L34.0,82.2L32.3,85.2L30.9,87.2L30.8,87.5L29.3,89.8L27.2,93.4L26.6,94.2L26.3,94.8L26.5,95.4L27.7,97.5L30.1,102.3L30.8,103.1L31.2,103.1L31.5,102.5L31.8,102.2L33.2,99.8L33.6,99.5L33.7,99.0L34.1,98.5L36.8,93.9L37.6,93.0L38.0,92.1L39.1,90.2L40.5,88.2L40.8,87.4L41.7,86.2L41.8,85.9L44.5,81.8L44.8,81.1L45.7,79.7L46.6,78.1L49.7,73.5L50.1,72.7L50.5,72.2L50.6,71.7L51.1,71.2L52.3,69.0L54.9,65.0L55.6,63.7L55.6,63.3Z M74.2,62.9L74.2,63.4L75.1,63.6L85.4,63.8L87.2,64.0L93.2,64.0L99.7,64.4L108.5,64.5L109.5,64.7L118.7,64.9L119.1,64.7L119.0,64.1L118.7,63.8L116.7,59.9L116.1,59.0L115.4,57.7L114.7,57.0L112.0,56.8L104.1,56.7L103.3,56.6L99.2,56.5L98.3,56.3L94.3,56.3L92.0,56.2L90.7,56.3L88.4,56.1L88.1,55.9L88.0,55.5L89.4,53.1L91.1,50.6L91.6,49.5L92.4,48.3L92.9,47.4L93.2,47.1L93.3,46.7L94.6,44.8L94.7,44.5L96.0,42.6L98.3,38.5L98.8,37.8L99.1,37.1L100.8,34.7L101.7,33.1L101.6,32.5L100.9,31.4L100.4,30.3L99.7,29.4L99.4,28.5L99.1,28.1L98.4,26.7L97.7,25.9L97.4,25.9L97.0,26.3L95.1,29.4L94.3,30.5L92.3,33.8L92.2,34.1L91.2,35.5L89.7,38.0L89.4,38.3L89.2,38.9L87.4,41.4L87.4,41.6L87.0,42.1L85.7,44.3L85.1,45.1L84.7,46.0L84.0,46.8L83.7,47.6L83.3,48.1L82.0,50.3L81.4,51.1L81.1,51.7L79.7,53.9L79.1,55.0L78.6,55.6L77.9,56.9L76.1,59.6L75.9,60.3Z M60.2,55.6L60.1,55.0L59.1,53.4L58.3,51.7L57.7,50.7L56.9,49.1L55.5,46.8L54.9,45.5L53.7,43.5L52.1,40.3L50.9,38.2L50.5,37.3L49.7,36.2L47.7,32.2L46.9,31.0L45.7,28.5L44.9,27.4L42.4,22.9L42.2,22.6L41.6,21.2L40.8,19.9L40.7,19.5L40.4,19.2L39.6,17.7L38.8,16.4L38.4,16.5L37.6,17.4L37.1,18.5L34.2,22.8L34.2,23.4L35.1,25.2L35.7,26.1L36.0,26.9L36.3,27.2L36.8,28.5L39.2,32.6L40.1,34.5L41.2,36.2L42.2,38.3L42.8,39.3L43.5,40.6L45.7,44.4L46.6,46.3L46.6,46.8L46.2,47.1L43.1,47.1L27.6,46.6L19.1,46.6L18.6,46.9L17.9,48.0L17.4,48.7L16.8,49.8L16.0,50.9L14.0,54.3L14.0,54.6L14.3,54.9L15.6,55.0L23.0,54.9L35.9,55.2L46.5,55.3L58.2,55.7Z M47.7,16.2L47.5,16.4L47.5,16.7L48.9,19.4L49.9,20.9L50.9,22.9L52.1,24.9L52.5,25.7L55.3,30.8L56.8,33.7L58.8,37.0L59.2,38.0L60.2,39.7L60.8,40.9L61.5,41.8L61.8,42.6L62.2,43.1L62.2,43.4L63.0,44.5L64.6,47.8L65.2,48.6L66.9,51.9L68.2,53.9L68.8,55.4L69.0,55.6L69.4,55.6L69.7,55.4L72.7,50.6L73.3,49.3L74.6,47.5L74.7,47.2L75.5,46.1L76.0,45.0L76.6,44.3L76.9,43.5L78.0,41.9L78.2,41.4L79.3,39.9L79.8,38.9L80.5,38.0L82.6,34.6L82.7,34.3L83.9,32.5L85.7,29.4L86.0,29.1L86.9,27.7L87.1,27.2L87.8,26.2L88.8,24.5L89.2,23.9L89.3,23.6L90.6,21.7L91.0,20.8L91.3,20.5L91.7,19.7L92.3,19.0L92.8,18.1L92.8,17.7L92.4,17.5L90.3,17.6L86.2,17.3L84.7,17.4L84.2,18.0L83.3,19.7L82.3,21.0L82.3,21.3L81.3,22.9L80.7,23.7L80.3,24.4L78.8,26.7L78.6,27.3L77.9,28.2L75.2,32.6L72.1,37.4L71.9,38.0L70.7,39.7L70.3,40.1L69.9,40.1L69.3,39.3L68.3,37.4L67.6,36.3L67.3,35.5L65.1,31.8L65.0,31.3L64.5,30.6L62.4,26.7L62.0,26.2L61.0,24.1L60.5,23.4L60.3,22.9L58.2,19.4L57.9,18.6L56.7,16.7L56.0,16.4L54.4,16.4L53.3,16.2Z" fill="#000" fill-rule="evenodd"/>
</svg>