<svg xmlns="http://www.w3.org/2000/svg" viewBox="0 0 128 128" width="128" height="128">
  <path d="M24.3,118.3L23.7,118.3L23.4,118.4L22.4,120.2L23.0,120.2L23.5,119.7L23.8,119.8L23.8,120.2L24.3,120.2Z M18.4,118.1L18.5,118.4L18.6,118.5L19.6,118.5L20.1,118.7L20.2,119.1L19.6,120.2L20.4,120.2L20.4,119.6L20.7,119.4L20.9,118.7L20.8,118.3L20.4,118.0L18.7,117.9Z M16.5,117.9L16.1,117.9L15.8,118.3L15.0,120.0L14.7,120.2L15.4,120.2L15.5,119.8L16.0,119.4L16.2,119.4L16.3,119.6L16.2,120.2L16.8,120.2L16.8,118.3Z M12.2,117.8L11.4,118.4L11.3,118.9L12.3,118.7L12.4,118.9L12.4,120.2L12.9,120.2L12.9,117.9L12.7,117.8Z M51.4,76.0L51.3,82.3L51.4,94.5L51.2,101.7L51.2,118.3L51.5,119.0L56.5,119.1L56.9,118.7L57.1,113.5L57.1,94.8L57.2,89.0L57.4,87.4L57.3,85.5L57.6,85.3L57.9,85.3L60.1,86.8L61.2,87.3L61.7,87.6L63.1,88.4L64.2,89.1L64.6,89.2L66.9,90.7L68.5,91.5L69.3,92.1L73.0,94.2L73.9,94.9L75.1,95.4L76.7,96.6L77.4,96.8L77.7,97.1L78.2,97.3L79.3,98.1L80.3,98.5L80.6,98.9L81.8,99.4L83.2,100.4L84.0,100.7L84.3,101.0L86.3,102.0L86.7,102.0L87.2,101.6L89.4,97.9L89.3,97.5L88.8,97.0L86.6,95.7L85.9,95.4L85.3,95.0L84.6,94.6L83.9,94.1L82.4,93.3L80.1,91.8L78.9,91.2L77.3,90.1L76.4,89.7L75.9,89.3L75.2,89.0L73.9,88.0L71.5,86.8L70.7,86.2L70.0,86.0L67.7,84.4L64.9,82.9L63.7,82.1L63.2,81.9L63.0,81.7L62.5,81.5L62.0,81.1L60.9,80.6L60.1,80.0L59.3,79.7L54.6,76.8L53.3,76.1L52.6,75.6L51.8,75.6Z M47.1,59.6L46.5,59.7L44.7,60.6L43.9,61.2L41.7,62.2L39.8,63.5L39.3,63.6L36.0,65.6L34.2,66.4L31.8,67.9L30.4,68.6L29.6,69.1L26.7,70.6L25.7,71.4L23.7,72.4L23.4,72.7L21.0,73.9L18.6,75.3L17.5,75.8L16.4,76.6L15.7,76.8L14.0,78.0L11.7,79.1L11.0,79.7L11.0,80.2L12.9,83.8L13.0,84.0L13.7,84.0L13.9,83.8L14.2,83.8L14.4,83.5L15.3,83.2L16.1,82.6L18.9,81.1L19.2,80.8L23.0,78.9L23.2,78.7L24.6,78.0L24.9,77.7L25.2,77.6L25.6,77.3L27.0,76.7L27.3,76.4L27.8,76.3L28.1,76.0L28.5,75.9L28.8,75.6L30.1,75.0L30.4,74.7L32.6,73.6L36.9,71.1L38.3,70.5L39.5,69.8L40.7,69.3L41.1,69.0L41.5,69.0L41.7,69.3L41.5,70.1L41.7,73.3L41.5,83.0L41.5,101.3L41.7,102.0L41.8,102.2L42.5,102.4L47.1,102.4L47.5,102.3L47.8,101.9L47.8,61.8L47.6,60.1L47.3,59.7Z M68.5,79.6L68.5,79.9L68.8,80.3L71.4,82.1L73.9,83.4L74.4,83.8L74.9,84.0L76.9,85.3L77.7,85.6L78.9,86.5L81.2,87.7L82.4,88.6L83.8,89.2L85.4,90.3L86.1,90.6L87.1,91.4L88.3,91.9L91.1,93.6L93.7,95.0L95.2,96.0L97.5,97.2L98.2,97.7L99.7,98.5L101.0,99.3L101.3,99.4L103.8,100.9L105.1,101.6L105.7,101.6L106.1,101.4L106.3,100.8L107.4,99.2L107.9,98.1L107.9,97.7L107.4,97.3L104.6,95.7L103.9,95.1L102.2,94.2L101.3,93.5L100.1,93.0L97.3,91.2L97.0,91.1L95.5,90.1L94.0,89.4L92.6,88.5L92.3,88.2L90.4,87.3L85.8,84.4L83.2,83.0L82.0,82.1L81.6,81.9L81.3,81.7L79.8,80.9L79.1,80.3L79.2,79.9L80.2,79.2L82.2,78.3L82.8,77.8L83.3,77.6L86.8,75.6L88.8,74.6L91.7,72.9L93.7,71.9L94.1,71.5L94.6,71.4L95.6,70.7L100.2,68.3L102.7,66.7L103.2,66.6L104.0,66.0L104.9,65.6L107.2,64.3L107.7,63.8L107.6,63.3L105.9,60.1L105.3,59.3L104.7,59.3L103.8,59.7L99.1,62.3L98.9,62.5L97.5,63.2L97.2,63.4L95.2,64.4L93.8,65.3L86.3,69.3L84.1,70.6L83.6,71.0L81.9,71.8L78.6,73.7L77.0,74.5L75.8,75.3L73.6,76.4L72.6,77.2L70.4,78.2L70.1,78.5L69.0,79.1Z M79.6,26.3L79.4,26.8L79.6,45.4L79.5,62.3L79.7,64.5L79.6,67.5L79.7,67.9L80.1,68.2L80.7,68.2L81.2,68.0L83.0,67.1L86.3,65.1L86.8,64.9L89.9,63.1L91.8,62.1L92.3,61.7L94.5,60.6L95.2,60.1L97.4,59.0L101.0,56.9L104.3,55.1L104.6,54.8L106.9,53.6L107.6,53.1L109.2,52.4L110.2,51.7L111.4,51.2L111.8,50.8L113.0,50.2L113.3,50.0L114.0,49.7L116.4,48.1L116.8,48.1L117.2,47.6L117.2,47.1L116.9,46.7L116.6,46.1L115.4,43.8L114.9,43.5L114.3,43.6L110.7,45.4L109.6,46.2L107.6,47.2L107.3,47.4L107.0,47.5L105.6,48.4L105.2,48.5L104.1,49.3L102.8,49.8L102.4,50.1L101.8,50.3L100.7,51.1L95.2,53.9L93.9,54.8L92.9,55.3L91.9,55.9L91.1,56.2L90.2,56.9L88.7,57.6L88.0,58.1L86.5,58.7L85.9,58.8L85.5,58.4L85.5,26.6L85.5,26.4L85.2,26.2L80.2,26.0L79.7,26.1Z M20.5,27.5L20.4,28.0L19.6,29.6L19.6,30.3L20.7,30.8L21.9,31.7L23.0,32.2L24.0,33.0L24.7,33.2L25.0,33.5L26.8,34.4L27.8,35.1L28.4,35.3L30.2,36.5L30.7,36.7L32.6,38.0L34.5,38.9L37.6,40.8L38.4,41.1L40.2,42.3L40.5,42.4L40.9,42.8L44.9,45.1L45.8,45.8L47.2,46.6L48.3,47.4L48.3,47.8L48.1,48.0L46.2,48.9L40.7,52.0L38.2,53.3L33.1,56.3L30.2,57.8L28.2,59.0L26.8,59.7L26.1,60.2L25.8,60.3L23.2,61.8L22.7,62.0L19.6,63.8L19.5,64.0L19.5,64.4L20.0,65.7L21.2,67.6L21.2,67.9L21.8,68.7L22.3,68.7L24.3,67.6L25.5,67.1L25.8,66.7L31.0,64.0L31.2,63.7L32.8,62.9L37.4,60.2L40.5,58.6L44.3,56.3L45.4,55.9L45.6,55.6L48.2,54.3L49.8,53.3L50.8,52.8L51.8,52.1L52.6,51.9L52.8,51.6L54.3,50.9L56.1,49.7L57.9,48.9L59.0,48.0L58.9,47.5L58.4,47.0L57.3,46.3L57.0,46.2L56.5,45.8L54.5,44.8L54.5,44.6L52.3,43.5L51.4,42.8L50.1,42.2L49.4,41.6L47.5,40.7L47.1,40.4L46.7,40.2L42.4,37.6L40.4,36.5L39.8,36.1L39.0,35.7L34.9,33.2L33.7,32.6L32.6,31.8L32.0,31.7L30.1,30.5L29.5,30.3L27.8,29.1L27.4,29.0L25.7,27.9L25.0,27.6L24.7,27.3L24.3,27.2L22.5,26.0L22.0,25.9L21.5,26.0Z M40.3,26.1L39.9,27.1L39.6,27.5L38.4,29.8L38.3,30.3L39.0,30.8L41.7,32.6L42.2,32.7L43.4,33.5L46.0,34.9L46.9,35.6L48.7,36.5L51.3,38.2L55.6,40.6L55.9,40.9L56.4,41.1L58.3,42.3L58.8,42.5L59.5,43.1L61.5,44.1L63.4,45.4L64.0,45.6L65.0,46.3L66.1,46.9L67.7,47.9L68.8,48.5L69.5,49.0L70.5,49.5L70.8,49.8L71.4,50.0L72.3,50.7L74.9,52.0L75.4,52.0L75.7,51.9L75.8,51.6L76.2,26.5L76.2,9.9L75.9,9.4L75.5,9.3L71.3,9.1L70.8,9.3L70.7,9.6L70.5,20.2L70.3,23.7L70.4,30.7L70.2,40.5L70.4,41.2L70.4,42.6L70.2,42.7L69.6,42.7L68.4,41.8L65.2,40.0L65.0,39.8L63.9,39.3L62.6,38.4L62.1,38.2L61.1,37.5L60.7,37.4L60.2,36.9L56.7,34.9L56.2,34.7L54.3,33.4L51.8,32.1L51.1,31.5L49.9,30.9L48.7,30.1L46.3,28.7L42.8,26.5L41.3,25.7L40.8,25.7Z" fill="#000" fill-rule="evenodd"/>
</svg>