<svg xmlns="http://www.w3.org/2000/svg" viewBox="0 0 128 128" width="128" height="128">
  <path d="M60.2,9.1L59.4,9.3L56.3,9.6L55.9,9.7L55.0,9.8L54.6,10.0L52.6,10.2L48.8,11.2L48.6,11.3L46.7,11.8L45.5,12.4L44.0,12.8L38.8,15.3L38.4,15.6L36.4,16.6L34.3,18.1L33.5,18.4L29.4,21.6L26.8,24.0L23.0,28.1L20.6,31.2L18.2,34.8L17.4,36.5L16.7,37.4L14.9,41.2L14.9,41.7L14.2,43.0L14.1,43.5L13.1,46.1L12.9,47.0L12.2,49.2L11.9,50.5L11.7,51.0L11.7,51.4L10.8,55.4L10.6,57.8L10.4,59.4L10.2,62.6L10.4,67.6L11.1,73.5L12.2,78.3L14.0,83.9L14.2,84.1L14.4,84.9L15.1,86.1L15.8,88.0L17.1,90.4L17.4,90.7L17.5,91.1L17.8,91.4L18.4,92.6L21.3,97.0L22.7,98.8L26.8,103.3L28.7,105.1L29.9,106.0L32.6,108.3L37.8,111.7L42.1,114.0L45.3,115.4L46.9,115.9L47.2,116.2L48.4,116.6L48.8,116.6L50.0,117.1L53.6,118.0L56.2,118.4L56.7,118.4L57.2,118.6L61.9,119.1L69.0,119.0L75.3,118.1L75.7,118.0L76.9,117.8L77.7,117.5L78.8,117.3L79.2,117.1L80.3,116.9L83.2,115.8L84.1,115.5L84.8,115.1L86.3,114.6L89.0,113.3L89.3,113.1L90.8,112.3L92.5,111.2L93.3,110.9L96.6,108.6L97.3,107.9L98.6,107.0L101.9,103.9L105.7,99.8L107.0,98.2L107.5,97.3L108.5,96.1L108.6,95.8L109.1,95.1L109.3,94.9L112.0,90.2L114.5,84.9L115.3,82.3L115.5,81.4L115.8,80.8L117.1,75.9L117.9,70.0L117.9,67.8L118.0,67.3L118.0,62.9L117.9,59.7L117.1,54.5L116.7,52.6L116.7,52.2L116.3,51.4L115.7,48.5L114.8,45.8L114.5,45.4L114.4,44.7L112.2,39.6L111.8,39.1L111.8,38.9L111.4,38.1L111.0,37.7L110.2,36.0L109.6,35.1L109.4,34.7L107.1,31.3L106.0,30.0L105.4,29.1L103.1,26.5L102.1,25.5L101.3,24.6L98.6,22.2L95.2,19.5L90.9,16.6L90.1,16.3L87.3,14.7L85.2,13.8L84.5,13.4L84.1,13.3L83.6,13.0L80.4,11.9L80.0,11.7L78.8,11.4L77.9,11.0L71.7,9.7L66.0,9.1Z M110.9,65.8L111.0,66.0L110.9,69.0L110.5,73.0L110.3,73.4L110.0,75.3L109.2,78.5L107.9,82.1L105.2,87.9L104.5,88.9L104.0,90.1L103.7,90.4L101.2,94.2L98.1,97.8L94.9,100.8L91.7,103.4L91.3,103.5L89.1,105.2L88.4,105.5L88.1,105.7L87.0,106.2L85.8,107.0L85.2,107.1L84.9,107.4L83.2,108.3L78.1,110.1L77.4,110.2L74.6,111.0L72.9,111.2L72.2,111.5L70.5,111.8L68.8,111.8L68.0,112.0L65.1,112.1L64.8,111.8L64.8,111.5L67.9,108.2L74.6,101.7L85.1,91.1L86.0,90.3L86.8,89.3L107.0,69.2L108.5,67.8L110.5,65.8Z M17.6,64.4L18.2,64.4L23.9,70.1L28.1,74.6L52.4,99.7L52.7,100.1L53.6,101.0L53.9,101.2L62.0,109.5L63.8,111.4L63.8,111.9L61.1,112.0L59.3,111.7L57.7,111.6L55.5,111.1L55.0,111.1L50.1,109.6L49.5,109.3L48.6,109.2L46.7,108.4L43.0,106.5L39.2,104.3L34.9,101.1L31.2,97.7L28.9,95.1L28.8,94.8L26.7,92.3L23.6,87.4L23.4,86.8L23.0,86.3L22.9,85.9L21.5,83.2L21.1,82.0L20.6,80.8L19.9,78.9L19.8,78.3L19.2,76.5L18.3,72.4L18.3,71.9L18.0,71.3L18.0,70.4L17.8,69.5L17.5,66.5Z M21.9,63.8L22.5,63.0L27.9,57.8L29.0,57.0L29.6,57.2L45.6,73.3L46.6,74.4L46.8,74.8L47.6,75.4L50.1,77.9L50.2,78.3L50.9,78.8L60.8,88.9L61.1,89.4L61.1,90.0L61.0,94.2L61.1,96.9L61.6,98.2L62.3,99.1L63.0,99.6L64.5,99.9L65.4,99.9L66.1,99.6L67.3,98.6L67.9,97.7L68.2,96.8L68.3,88.9L71.7,85.3L82.4,74.4L88.8,67.8L98.9,57.7L99.4,57.6L100.0,58.1L103.6,61.7L106.4,64.7L106.6,65.1L106.6,65.5L103.2,69.2L91.1,81.3L90.9,81.7L73.3,99.5L72.4,100.5L64.6,108.3L64.1,108.2L62.0,106.1L61.9,105.9L53.7,97.5L49.2,92.7L48.0,91.5L47.5,90.8L45.5,88.9L42.0,85.1L37.9,81.0L37.3,80.2L31.9,74.7L30.7,73.2L28.5,71.2L28.0,70.4L22.1,64.3Z M65.8,16.6L68.8,16.7L73.3,17.4L73.9,17.6L75.3,17.9L76.1,18.2L77.1,18.4L77.9,18.8L78.3,18.8L79.2,19.2L79.8,19.3L80.3,19.6L83.1,20.6L87.5,22.9L91.6,25.7L95.4,28.8L98.8,32.3L101.7,35.9L103.8,38.9L105.7,42.4L107.8,46.9L109.2,51.1L109.5,52.4L109.8,53.3L110.0,54.5L110.2,55.0L110.4,56.8L110.7,58.3L111.1,63.6L111.0,64.5L110.9,64.7L110.1,64.3L107.3,61.5L99.9,53.6L99.5,53.5L98.5,54.2L96.6,56.1L96.4,56.5L70.7,82.3L70.4,82.7L68.6,84.3L68.4,84.3L68.2,84.1L68.1,81.0L67.6,80.7L65.6,80.6L65.4,80.3L65.5,80.0L72.1,73.4L73.0,72.6L80.5,65.2L80.6,64.9L80.6,64.3L79.1,59.8L78.9,58.9L78.2,57.0L77.6,54.9L77.4,54.5L76.6,52.0L76.4,51.6L75.9,49.7L75.5,48.8L75.3,47.9L74.6,46.0L73.2,41.3L72.8,40.4L72.3,38.5L72.0,37.8L71.6,36.2L70.6,33.5L70.5,32.9L69.9,31.6L69.7,30.3L69.5,29.9L68.3,26.0L66.3,20.0L65.5,17.1L65.5,16.9Z M64.2,16.5L64.7,16.6L64.7,16.8L64.7,17.4L64.5,18.3L63.1,22.0L61.7,26.4L61.5,26.8L61.3,27.6L60.0,31.2L59.9,31.8L59.7,32.2L59.4,33.2L59.3,33.4L58.7,35.4L58.4,36.0L57.6,38.5L57.4,38.9L56.8,40.9L56.4,41.8L55.4,45.1L55.1,45.7L55.0,46.5L53.6,50.1L53.6,50.7L52.9,52.3L52.7,53.4L52.4,53.8L52.2,54.9L51.5,56.4L49.1,63.8L49.2,64.4L49.7,65.2L55.2,70.8L64.1,80.3L63.8,80.6L62.0,80.6L61.5,80.9L61.3,81.5L61.3,84.0L61.1,84.3L60.7,84.4L56.1,79.9L53.2,76.8L49.2,73.0L48.8,72.4L43.9,67.5L43.3,66.8L38.7,62.3L38.4,61.8L29.3,52.7L28.8,52.8L20.6,60.7L18.1,62.9L17.6,62.9L17.5,62.7L17.6,59.8L17.9,58.9L17.9,56.9L18.2,56.1L18.4,54.5L18.8,52.7L19.0,51.5L19.2,51.3L19.3,50.3L19.9,48.5L20.2,48.2L20.4,47.1L21.3,44.8L21.5,44.7L21.7,43.8L21.9,43.5L23.6,40.1L26.4,35.6L27.6,34.0L29.0,32.6L29.7,31.6L33.5,27.8L36.3,25.5L37.2,25.0L38.6,24.0L40.4,22.8L43.4,21.2L47.7,19.3L50.9,18.2L56.0,17.1L60.1,16.6Z" fill="#000" fill-rule="evenodd"/>
</svg>