<svg xmlns="http://www.w3.org/2000/svg" viewBox="0 0 128 128" width="128" height="128">
  <path d="M9.1,36.3L9.9,37.5L10.0,38.0L10.7,38.8L11.0,39.5L13.8,43.5L14.5,44.7L16.9,48.1L19.3,52.0L20.0,52.9L20.3,53.6L21.1,54.5L27.7,64.5L28.4,65.4L29.5,67.0L30.3,68.5L30.6,68.8L33.2,72.8L33.6,73.2L34.5,74.8L36.3,77.1L37.3,78.7L38.7,80.7L39.0,81.3L41.8,85.1L44.9,90.0L46.6,92.2L46.7,92.6L49.4,96.4L51.3,99.4L52.8,101.1L54.6,102.5L56.2,103.4L57.1,103.7L59.0,104.3L60.0,104.4L62.5,104.4L63.7,104.2L65.5,103.7L67.6,102.6L68.5,102.0L70.1,100.5L71.6,98.8L75.4,92.9L76.5,91.5L77.1,90.5L78.6,88.3L78.8,87.8L79.8,86.5L80.9,84.7L82.0,83.3L82.5,82.3L83.3,81.2L87.2,75.2L87.6,74.8L88.1,73.9L88.8,73.0L88.9,72.7L91.0,69.8L91.6,68.6L92.6,67.3L93.5,65.8L101.1,54.3L101.6,53.3L102.7,51.9L103.9,49.8L106.2,46.5L106.4,46.0L107.1,45.3L108.0,43.6L109.2,42.0L109.3,41.7L109.6,41.3L111.7,37.8L112.5,36.8L112.7,36.3L113.3,35.6L115.5,31.9L116.4,30.7L117.2,29.2L117.7,28.6L119.1,26.2L119.0,25.8L118.9,25.7L117.3,25.6L110.8,25.5L110.2,25.9L107.7,29.5L106.6,31.3L106.0,32.0L105.0,33.7L104.3,34.6L102.6,37.4L101.9,38.1L101.6,38.9L101.1,39.5L99.4,42.3L98.7,43.2L92.9,52.2L91.3,54.5L90.6,55.8L89.0,58.0L88.5,58.9L86.4,61.9L86.0,62.7L83.9,65.8L83.8,66.1L83.3,66.7L83.0,67.1L81.3,69.9L80.6,70.7L77.9,74.7L74.8,79.6L73.7,81.1L73.6,81.5L72.9,82.2L72.4,82.2L72.2,81.8L72.4,81.1L72.6,80.9L72.8,80.3L73.9,78.9L74.1,78.3L74.8,77.5L75.4,76.4L75.7,76.0L76.7,74.4L78.1,72.4L78.7,71.4L79.4,70.4L80.5,68.7L81.1,67.9L81.3,67.4L82.5,65.8L82.6,65.4L83.5,64.3L85.4,61.3L85.8,60.7L86.4,59.7L88.0,57.4L91.4,52.0L94.6,47.4L96.8,43.9L97.3,43.3L98.2,41.7L98.5,41.4L99.5,39.7L100.7,38.1L100.8,37.8L102.3,35.6L102.9,34.5L104.5,32.4L104.6,32.0L106.3,29.6L106.6,28.9L108.0,26.9L108.3,26.2L108.3,25.7L107.9,25.6L106.9,25.5L100.0,25.4L99.3,25.9L98.1,27.9L97.5,28.5L96.4,30.4L95.8,31.1L95.2,32.3L94.5,33.1L93.9,34.3L93.6,34.6L93.5,34.9L92.8,35.7L90.7,39.1L88.6,42.2L88.2,43.0L87.3,44.2L86.5,45.5L86.0,46.1L85.1,47.7L80.4,54.5L78.5,57.7L77.9,58.4L75.8,61.7L74.3,63.7L72.7,66.4L70.4,69.9L69.5,71.0L69.2,71.6L68.2,73.2L67.4,74.1L66.9,74.1L66.7,73.8L66.7,73.3L66.9,72.7L69.8,68.5L70.4,67.4L71.9,65.3L72.3,64.5L74.4,61.6L75.4,59.9L76.1,59.0L77.8,56.1L81.1,51.4L81.5,50.7L82.9,48.7L83.5,47.6L84.5,46.3L85.5,44.6L88.3,40.5L89.7,38.0L91.6,35.2L91.9,34.6L92.1,34.3L92.3,33.7L92.7,33.3L93.1,32.5L96.3,27.9L96.9,26.9L97.4,26.2L97.6,25.6L97.4,25.4L88.7,25.3L88.1,25.8L87.7,26.6L83.5,32.4L79.4,38.8L78.8,39.5L78.6,40.1L77.9,41.0L77.8,41.3L77.2,42.1L72.7,49.1L70.7,51.6L69.7,53.2L69.5,53.7L68.7,54.7L68.5,55.2L67.2,57.0L65.9,59.1L65.3,59.7L62.7,64.0L62.1,64.8L61.5,65.4L61.3,65.4L60.9,65.4L60.5,65.0L59.9,64.0L58.9,62.8L58.6,62.1L56.9,59.8L56.5,59.0L55.0,57.0L54.0,55.4L52.8,53.8L50.6,50.3L49.4,48.7L49.2,48.4L46.7,44.7L46.3,44.1L45.7,43.3L45.3,42.5L42.7,38.8L41.8,37.3L41.0,36.4L40.8,35.9L38.1,32.1L36.7,29.8L34.2,26.8L32.7,25.6L30.9,24.6L28.7,24.0L27.2,23.8L24.4,23.9L23.3,24.1L23.2,24.3L22.2,24.5L20.1,25.5L19.0,26.3L17.4,27.8L16.5,28.9L15.2,31.3L14.8,32.5L14.6,33.6L14.4,34.3L14.4,34.7L14.1,35.2L13.6,35.5L9.6,35.6L9.1,35.9Z M25.1,30.1L27.1,30.1L28.8,30.6L29.9,31.4L30.7,32.3L31.5,33.6L31.7,34.3L31.7,37.0L31.5,37.8L30.7,39.4L29.9,40.1L29.1,40.7L28.3,41.2L27.3,41.5L25.1,41.5L23.8,41.0L23.4,40.7L23.1,40.7L21.8,39.4L21.3,38.8L20.9,37.8L20.6,37.1L20.6,34.9L20.7,34.1L21.2,32.9L22.1,31.7L22.9,31.0L24.1,30.4Z" fill="#000" fill-rule="evenodd"/>
</svg>