<svg xmlns="http://www.w3.org/2000/svg" viewBox="0 0 128 128" width="128" height="128">
  <path d="M78.5,50.5L78.3,50.5L77.6,51.4L76.8,53.6L75.7,55.8L75.6,56.4L75.0,57.5L75.0,57.8L74.7,58.3L74.1,59.9L73.4,61.3L72.6,63.4L72.3,63.8L71.1,66.9L70.8,67.4L70.0,69.6L69.5,70.5L69.3,71.1L68.1,73.8L67.9,74.4L67.5,75.2L66.9,76.8L66.7,77.0L66.6,77.5L66.4,77.8L65.8,79.3L65.8,79.5L65.2,80.6L64.6,82.1L64.4,82.4L64.0,83.7L63.5,84.6L63.5,84.8L63.2,85.3L62.6,86.9L62.2,87.6L61.8,88.9L60.0,92.8L59.2,94.7L59.1,95.2L58.5,96.5L58.4,97.0L58.0,97.7L57.7,98.7L57.3,99.3L57.3,100.4L57.5,100.5L60.6,100.7L71.8,101.0L77.4,101.0L77.9,100.7L78.1,99.1L78.3,92.0L78.2,88.6L78.3,84.6L78.4,70.3L78.7,58.4L78.7,50.8Z M119.0,49.8L118.3,50.1L118.1,50.6L118.0,51.0L115.5,56.7L113.5,61.6L112.3,64.1L111.2,67.0L110.6,68.1L110.4,68.8L109.4,70.9L109.3,71.2L108.4,73.3L108.2,74.0L107.0,76.3L105.5,80.2L104.9,81.4L103.6,84.6L103.4,84.9L103.4,85.1L102.5,86.9L102.0,88.3L101.7,88.8L101.0,90.7L100.1,92.4L99.1,95.1L98.3,96.5L97.6,98.5L96.7,100.4L96.7,100.8L97.0,101.0L105.7,101.2L116.3,101.2L117.9,101.1L118.4,101.0L118.6,100.7L118.8,99.1L118.9,94.5L118.8,88.2L119.0,69.9L119.1,50.1Z M114.6,28.9L107.1,28.6L106.4,28.7L101.4,28.6L94.1,28.6L93.6,28.8L93.6,28.9L93.4,30.6L93.3,44.2L93.1,55.8L93.2,58.8L93.0,62.0L93.0,67.5L92.8,72.7L92.8,79.6L93.1,80.0L93.2,80.0L93.7,79.5L93.9,78.8L94.5,77.6L94.9,76.4L95.6,74.8L96.0,74.1L96.3,73.1L97.7,70.2L98.7,67.5L99.0,67.2L99.5,65.6L99.8,65.1L100.3,63.8L101.0,62.4L102.0,59.9L103.3,57.1L106.3,49.8L106.6,49.3L106.8,48.7L107.3,47.6L107.3,47.4L107.6,47.0L108.8,43.8L109.8,41.9L110.8,39.3L111.9,37.1L112.0,36.4L112.8,34.8L114.9,29.5L114.7,28.9Z M74.2,28.3L73.1,28.2L70.1,28.2L67.5,28.1L63.4,28.1L56.8,27.8L54.2,27.8L53.7,28.2L53.6,40.0L53.5,42.3L53.5,44.0L53.6,45.0L53.4,76.2L53.4,78.2L53.5,78.8L53.7,79.1L54.0,79.0L54.3,78.7L55.9,74.6L56.6,73.2L56.7,72.7L57.6,70.6L58.0,69.3L58.8,67.7L58.8,67.5L60.0,64.7L60.2,64.1L60.6,63.4L61.2,61.5L62.2,59.5L62.2,59.3L63.8,55.4L65.3,51.6L65.8,50.5L67.3,46.6L67.7,45.8L68.0,45.0L68.5,44.1L68.5,43.8L68.7,43.5L68.9,42.7L69.8,40.8L69.9,40.3L71.1,37.6L72.8,33.3L73.6,31.7L73.6,31.4L74.6,28.9L74.5,28.6Z M9.8,27.2L9.5,27.5L9.5,58.8L9.4,64.2L9.4,72.0L9.3,76.4L9.3,85.0L9.1,87.5L9.2,99.1L9.8,99.4L13.7,99.6L30.5,99.8L36.7,100.1L38.5,100.0L38.9,99.7L39.0,99.4L39.1,97.4L39.0,89.7L39.2,54.3L39.1,28.0L38.8,27.7L38.5,27.6L33.7,27.4L23.7,27.4L20.8,27.2L14.2,27.2L10.9,27.0Z" fill="#000" fill-rule="evenodd"/>
</svg>