<svg xmlns="http://www.w3.org/2000/svg" viewBox="0 0 128 128" width="128" height="128">
  <path d="M15.6,113.0L15.1,113.0L14.7,113.3L13.3,116.2L14.0,116.2L14.6,114.9L15.0,114.5L15.3,115.0L15.2,116.2L15.8,116.2L15.8,113.5Z M10.6,112.9L9.7,113.7L9.6,114.3L10.7,114.1L10.8,116.2L11.4,116.2L11.3,113.2L11.1,112.9Z M22.2,112.9L21.6,113.5L21.5,113.9L21.5,116.2L22.2,116.2L22.4,115.8L22.8,115.6L23.4,115.6L23.8,115.8L24.1,116.2L24.7,116.2L24.7,115.6L24.1,115.1L23.5,114.9L22.4,114.9L22.2,114.6L22.3,113.8L22.7,113.5L23.6,113.5L24.1,113.8L24.3,114.3L24.7,114.2L24.8,113.7L24.6,113.3L23.7,112.8L22.9,112.8Z M17.8,113.0L17.3,113.7L17.2,114.0L17.2,115.4L17.3,115.8L17.7,116.2L20.6,116.2L20.5,113.9L20.3,113.4L19.8,112.9L19.2,112.8L18.6,112.8Z M18.4,113.5L19.4,113.5L19.8,114.1L19.9,114.9L19.8,115.4L19.4,115.8L18.5,115.9L17.8,115.2L17.8,114.1Z M9.5,23.7L9.3,24.0L9.3,24.6L10.1,27.1L10.4,28.7L10.6,29.4L10.8,30.5L11.5,33.0L11.6,33.9L12.2,35.5L12.2,36.4L13.1,39.6L13.2,40.5L13.6,41.1L13.7,42.1L14.0,43.1L14.2,44.2L14.6,45.1L14.7,46.4L15.1,47.2L15.8,50.5L16.1,51.0L16.8,54.2L17.1,54.8L17.3,55.9L18.1,58.7L18.3,60.3L18.5,60.6L19.0,62.7L19.1,63.6L19.8,66.1L19.8,66.5L20.5,68.7L21.1,72.0L21.5,73.3L22.1,76.1L22.4,76.7L22.5,78.1L22.9,78.9L23.0,79.7L24.0,83.3L24.1,84.3L24.8,86.6L24.9,88.1L25.3,88.8L25.4,89.9L26.3,93.1L26.4,94.1L26.8,95.3L26.9,96.1L27.3,97.2L27.3,97.7L27.6,98.6L28.7,103.5L29.1,104.1L30.0,104.1L32.6,102.4L33.5,101.5L35.7,98.2L37.3,95.0L37.4,94.5L37.7,94.0L37.7,93.7L38.3,92.9L39.9,88.9L40.2,88.6L40.3,88.0L40.8,87.3L41.4,85.5L41.7,85.1L42.7,82.5L43.3,81.3L43.4,80.7L43.9,79.8L43.9,79.6L44.9,77.6L45.4,76.2L45.8,75.7L46.5,73.6L46.8,73.3L47.0,73.3L47.4,73.6L48.9,76.8L49.0,77.2L51.0,81.4L51.2,82.2L54.4,89.3L55.3,91.6L56.5,94.2L57.1,95.7L58.8,99.5L59.0,99.9L60.7,104.1L62.9,108.4L63.8,110.8L64.8,112.8L65.6,114.8L66.2,114.8L66.5,113.8L67.3,112.6L67.4,111.8L69.3,107.4L69.9,105.4L70.3,104.8L70.5,104.0L71.4,102.0L71.4,101.8L73.9,95.5L74.1,94.7L74.8,93.1L75.7,90.5L76.1,89.7L77.2,86.5L77.5,86.2L77.7,85.2L79.0,82.3L79.6,80.4L80.3,79.1L80.5,78.2L81.0,77.3L81.1,76.8L81.5,76.2L82.3,73.8L82.8,73.7L83.7,75.1L85.1,78.0L85.3,78.9L85.9,79.8L86.9,82.3L87.6,84.1L88.9,86.8L89.1,87.6L90.1,89.4L90.5,90.6L90.9,91.0L91.0,91.6L91.5,92.5L91.7,93.2L93.4,96.6L94.8,98.5L95.2,99.3L95.6,99.7L96.6,101.4L98.1,103.0L100.5,104.5L101.2,104.6L101.7,104.3L102.3,101.5L102.7,100.5L102.9,99.1L103.4,96.9L103.4,96.4L103.9,95.0L104.6,90.9L104.9,89.9L105.0,88.8L105.6,87.0L105.6,86.4L105.8,85.7L106.1,84.0L106.3,83.8L106.5,83.1L106.5,82.1L107.0,80.5L107.0,79.9L107.2,79.7L107.6,77.3L108.0,76.3L108.1,75.2L108.3,74.5L108.6,72.8L108.9,72.1L109.0,70.9L109.9,67.1L110.3,64.4L111.5,59.8L112.0,56.5L112.3,55.7L112.8,52.7L113.0,52.4L113.2,50.9L113.4,50.2L114.7,43.8L115.0,43.1L115.7,38.9L117.2,32.1L117.2,31.5L117.9,28.7L118.6,24.3L119.0,23.2L119.0,22.7L118.7,22.3L114.8,22.2L114.1,22.0L101.7,22.2L100.7,22.5L99.2,22.7L98.7,22.9L96.4,23.6L94.2,25.0L92.0,27.3L89.9,31.2L88.6,34.4L88.4,34.7L88.2,35.5L87.2,37.7L86.8,39.1L85.3,42.1L85.2,43.1L84.8,43.7L84.6,44.5L84.4,44.9L82.7,49.2L82.4,49.6L82.3,50.1L82.0,50.5L81.7,50.5L81.4,50.2L81.2,49.6L79.9,47.0L79.6,46.1L78.9,44.9L78.7,44.2L75.4,37.5L74.8,35.8L74.4,35.4L74.3,34.9L73.9,34.4L73.8,33.8L73.3,33.1L72.4,30.6L72.0,30.3L71.4,28.7L70.9,28.0L70.8,27.5L70.5,27.0L70.3,26.3L70.0,26.1L69.9,25.4L68.0,21.6L67.3,19.7L64.5,14.3L64.3,13.7L63.9,13.4L63.5,13.5L62.7,15.1L61.8,17.4L61.0,18.9L60.8,19.6L60.0,21.1L58.9,23.9L58.6,24.5L57.3,27.5L57.0,28.0L56.4,29.6L55.1,32.3L54.9,33.0L54.1,34.7L53.8,35.5L53.4,36.3L53.4,36.5L52.2,38.9L51.3,41.3L50.6,42.6L50.4,43.3L50.0,44.0L50.0,44.3L49.4,45.7L48.7,46.7L47.0,50.0L46.6,50.1L46.1,49.4L45.9,48.6L45.6,48.3L44.5,45.5L43.0,42.3L42.9,41.9L42.1,40.5L42.0,39.8L40.7,37.2L40.6,36.6L40.2,36.0L39.4,34.2L39.2,33.9L39.1,33.5L38.5,32.3L38.1,32.0L37.5,30.8L36.5,29.5L33.4,26.6L31.9,25.6L29.6,24.5L27.2,23.7L25.4,23.5L15.5,23.4L10.2,23.5Z M63.7,32.7L64.0,32.7L64.4,33.0L64.5,33.5L66.4,37.0L66.5,37.5L67.8,40.0L68.5,41.9L69.5,43.9L69.8,44.1L70.0,45.1L70.8,46.4L71.9,49.1L72.5,50.0L72.5,50.3L73.2,51.6L74.2,54.2L74.7,55.0L75.0,55.9L76.7,59.4L77.1,60.6L77.8,61.9L77.6,63.1L77.3,63.6L77.2,64.3L76.8,64.9L75.7,68.4L75.0,69.8L74.7,70.9L74.3,71.5L73.2,74.9L71.8,77.8L71.2,79.7L70.7,80.6L70.4,81.7L68.8,85.5L67.5,89.1L67.1,89.9L66.5,91.6L65.9,92.2L65.6,92.2L65.2,91.7L65.0,91.0L63.7,88.2L63.5,87.4L62.3,84.8L61.4,82.4L60.6,81.1L60.2,79.8L58.8,77.0L58.4,75.8L58.1,75.3L56.8,72.3L56.1,71.1L55.8,70.2L51.9,61.5L51.9,60.6L52.3,59.8L53.8,55.7L54.4,54.7L54.9,53.1L55.4,52.4L55.9,50.8L56.4,50.0L56.5,49.3L56.9,48.7L57.1,47.9L57.4,47.4L57.4,47.1L58.3,45.3L58.4,44.9L58.9,44.1L59.5,42.3L60.4,40.6L61.5,37.9L61.9,37.2L62.3,35.8L62.9,34.9L63.1,34.2L63.3,33.8L63.5,32.9Z M19.1,30.9L21.9,30.6L23.3,30.6L24.8,31.0L25.8,31.1L27.2,31.6L28.5,32.5L30.4,34.7L31.5,36.9L32.7,40.0L33.9,42.2L33.9,42.4L35.0,44.7L35.1,45.2L35.4,45.7L37.1,50.0L37.9,51.4L38.2,52.3L38.9,53.6L39.1,54.4L39.9,56.0L40.7,58.3L41.8,60.6L41.8,61.2L41.4,62.4L40.5,64.2L39.9,66.1L39.2,67.5L38.9,68.6L38.4,69.5L37.5,72.0L37.0,72.7L36.4,74.6L36.0,75.2L35.2,77.1L33.8,80.1L33.4,80.6L33.2,81.3L32.6,81.9L32.4,81.9L32.0,81.4L31.2,78.0L30.8,77.0L30.7,76.1L30.2,74.8L30.0,73.7L29.7,72.9L29.5,71.4L28.7,69.1L28.5,68.0L28.2,67.2L28.0,66.1L27.8,65.8L27.6,64.7L27.3,63.8L27.0,62.4L26.6,61.0L26.6,60.6L26.2,59.7L25.5,56.6L25.3,56.3L25.1,55.2L24.2,52.3L24.1,50.8L23.6,49.8L22.5,45.4L21.8,43.2L21.1,39.9L20.7,39.1L20.3,37.2L19.3,33.9L19.1,32.8L18.8,31.8L18.8,31.1Z M105.9,30.4L106.5,30.4L107.1,30.8L108.0,30.9L108.5,31.3L108.5,31.8L108.2,32.7L107.6,36.2L107.2,37.7L107.2,38.3L106.6,40.6L106.5,41.6L105.8,44.5L105.6,46.6L105.2,47.8L105.1,49.0L104.6,51.3L104.6,52.0L104.2,52.9L104.1,54.1L103.8,55.3L103.6,56.8L103.2,57.9L103.2,58.5L102.7,60.5L102.5,61.9L102.2,62.6L101.5,66.9L100.7,70.2L100.6,71.2L100.1,73.4L99.9,75.0L99.6,76.3L99.5,77.3L98.3,82.9L98.1,83.1L97.7,83.1L97.1,82.1L97.0,81.6L96.0,79.6L95.6,79.1L95.5,78.7L93.1,73.8L93.1,73.6L92.0,71.2L91.5,70.0L90.3,67.7L89.6,66.1L87.8,62.3L87.5,61.5L87.5,60.8L88.0,59.8L88.7,57.6L89.2,56.8L89.4,56.0L90.2,54.3L90.3,53.5L91.2,51.8L91.7,50.1L92.1,49.3L92.8,47.4L93.2,46.6L93.8,44.9L94.1,44.5L94.3,43.7L94.6,43.2L95.3,41.3L95.8,40.4L95.9,39.8L96.3,39.1L97.8,34.8L99.0,32.7L100.4,31.3L101.3,30.9L103.2,30.4Z" fill="#000" fill-rule="evenodd"/>
</svg>