<svg xmlns="http://www.w3.org/2000/svg" viewBox="0 0 128 128" width="128" height="128">
  <path d="M81.6,67.9L81.6,67.6L81.3,66.7L80.5,65.5L80.0,64.4L79.8,64.2L78.3,61.6L78.0,61.3L77.6,61.1L73.8,61.1L71.2,61.3L66.9,61.2L51.4,61.3L47.7,61.5L43.4,61.4L40.9,61.6L30.4,61.6L29.7,61.7L23.9,61.6L20.3,61.8L9.5,61.8L9.0,62.0L9.0,62.4L10.2,64.2L10.8,65.4L12.1,67.6L12.8,68.9L14.4,71.6L14.5,71.9L15.9,74.0L15.9,74.3L16.3,74.8L16.4,75.2L16.6,75.4L17.6,77.2L19.1,79.6L19.4,80.4L19.8,80.9L20.1,81.5L21.2,83.3L21.4,83.7L21.7,84.1L21.9,84.7L22.2,85.1L22.7,86.2L24.7,89.2L25.1,90.2L26.5,92.3L27.5,94.3L29.1,97.0L29.6,97.6L30.2,97.6L30.8,96.9L31.1,96.1L31.4,95.7L32.6,93.3L33.6,91.9L33.7,91.4L34.7,90.0L35.9,87.5L36.3,87.0L38.1,83.6L39.3,81.6L39.8,80.5L40.8,78.9L42.2,76.3L42.8,75.5L43.1,74.8L44.0,73.3L45.3,70.7L45.7,70.2L46.1,69.4L46.6,68.6L46.6,68.1L46.2,67.9L33.6,67.9L32.6,68.0L20.2,68.2L19.9,68.4L19.9,69.0L20.2,69.7L21.5,71.6L22.0,72.7L22.3,73.1L23.4,75.1L23.6,75.3L24.0,76.3L24.5,76.9L25.0,78.1L25.8,79.1L25.8,79.4L26.5,80.5L27.1,81.6L28.8,84.5L29.6,85.8L30.1,85.9L30.5,85.5L31.1,84.3L32.1,82.7L32.9,81.1L33.7,79.9L36.0,75.4L36.4,75.0L36.4,74.2L36.2,74.0L35.3,73.9L31.9,74.0L31.5,74.1L30.9,74.8L30.9,75.0L30.4,75.7L30.1,75.9L29.9,75.9L29.6,75.6L29.3,75.0L28.7,74.1L28.4,73.5L28.5,73.1L28.8,73.0L30.6,72.9L32.8,73.0L35.4,72.8L38.1,72.8L38.5,73.2L38.3,73.8L37.6,75.2L36.1,77.7L35.6,78.8L35.0,79.6L34.6,80.6L33.9,81.6L33.3,82.9L32.6,83.9L30.5,87.8L30.1,88.2L29.8,88.2L29.1,87.3L28.7,86.5L28.3,85.9L28.2,85.6L27.5,84.5L26.5,82.6L25.2,80.5L24.2,78.5L23.7,77.8L23.2,76.9L22.3,75.6L22.0,74.8L21.1,73.4L21.0,73.0L20.2,71.9L19.9,71.1L18.8,69.5L18.2,68.4L18.2,68.0L17.8,67.5L17.8,67.2L17.9,67.1L18.5,66.9L21.3,67.0L23.2,66.9L26.7,66.9L30.1,66.8L32.9,66.9L38.6,66.7L41.8,66.8L44.3,66.7L62.4,66.7L63.0,66.5L71.9,66.4L76.5,66.5L76.6,67.0L76.3,67.7L73.3,72.8L72.9,73.8L71.9,75.5L70.5,78.2L68.9,81.0L68.5,81.9L67.1,84.2L65.7,87.0L65.3,87.4L65.1,87.4L64.9,87.1L64.4,86.1L62.6,83.4L61.8,81.7L60.2,79.3L59.6,78.0L56.8,73.3L56.8,72.8L57.2,72.6L60.3,72.6L62.0,72.5L66.7,72.5L66.9,72.8L66.9,73.0L65.9,75.0L65.4,75.5L65.2,75.5L64.9,75.2L64.1,73.8L63.6,73.5L59.1,73.5L58.8,73.6L58.6,73.8L58.6,74.3L61.3,78.8L61.8,79.7L62.7,81.1L63.0,81.8L63.4,82.2L63.7,83.0L64.7,84.7L65.0,84.9L65.2,84.9L65.7,84.6L66.1,83.9L66.4,83.2L68.4,79.6L69.0,78.5L69.2,78.3L69.7,77.0L70.5,75.9L71.2,74.3L73.5,70.4L74.6,68.2L74.5,67.7L74.2,67.6L62.3,67.7L61.5,67.6L61.1,67.3L60.8,67.3L60.5,67.6L60.1,67.7L57.5,67.7L54.0,67.7L52.5,67.9L49.0,67.8L48.7,67.9L48.4,68.2L48.5,68.6L48.9,69.3L49.9,71.0L50.4,72.0L51.4,73.8L52.5,75.6L52.7,76.1L53.0,76.3L53.1,76.8L53.9,78.0L54.4,79.1L55.1,80.1L55.7,81.4L56.5,82.7L56.6,82.9L58.5,86.0L59.0,87.2L59.6,88.0L59.7,88.3L60.9,90.3L61.3,91.3L62.3,92.8L62.5,93.2L62.9,93.6L64.6,96.7L65.0,97.1L65.4,97.1L66.1,96.4L66.9,94.6L67.2,94.4L67.3,94.0L68.1,92.7L68.6,91.6L69.7,89.8L70.5,88.0L70.8,87.7L71.5,86.2L73.6,82.6L76.5,77.1L76.8,76.7L77.1,76.0L77.8,75.0L78.0,74.4L78.3,74.0L79.5,71.7L79.8,71.4L80.5,69.9Z M62.3,30.5L62.1,30.8L62.1,31.1L63.4,33.4L64.0,34.7L64.6,35.6L65.2,36.8L66.1,38.1L67.1,40.0L67.3,40.3L68.4,42.3L69.1,43.3L71.2,47.2L72.0,48.5L73.5,51.3L74.3,52.4L75.0,53.9L75.6,54.7L76.6,56.8L78.3,59.6L78.9,60.7L79.7,62.0L79.8,62.3L80.9,64.1L81.1,64.6L83.9,69.3L84.1,69.9L85.2,71.7L86.7,74.4L87.1,74.8L87.7,76.2L88.8,77.8L89.3,78.8L89.6,79.2L90.0,80.2L90.7,81.1L92.2,84.0L93.0,85.2L93.2,85.7L94.3,87.5L94.8,88.5L95.1,88.9L95.8,90.3L96.1,90.7L96.6,91.8L97.6,93.2L98.2,94.4L98.6,94.9L99.1,96.0L99.7,96.6L100.1,96.6L100.7,95.7L100.9,95.1L101.5,94.4L102.5,92.3L103.2,91.0L104.6,88.3L105.1,87.6L105.3,87.1L107.0,84.0L108.1,81.9L108.5,81.4L109.8,78.8L110.9,76.9L112.5,73.8L112.8,73.5L115.1,69.0L115.3,68.7L117.2,65.1L119.1,61.8L119.2,61.3L119.0,61.1L118.7,61.0L107.4,61.2L89.0,61.2L86.5,61.3L86.2,61.6L86.2,61.9L86.5,62.6L87.4,63.9L90.3,69.2L91.0,70.4L91.1,70.7L92.4,72.8L93.2,74.4L95.4,77.9L95.4,78.2L96.2,79.4L96.5,80.1L98.2,82.8L98.7,83.7L99.5,84.9L99.9,84.9L100.6,83.9L100.8,83.3L101.0,83.1L101.6,81.9L103.0,79.6L103.7,78.0L104.3,77.1L104.6,76.4L106.3,73.4L106.3,73.2L106.9,72.3L107.6,70.8L109.2,68.0L109.2,67.6L109.0,67.4L107.8,67.3L97.1,67.4L96.9,67.6L97.0,68.2L98.9,71.6L99.6,72.1L101.4,72.2L101.6,72.4L101.6,72.6L100.4,74.9L100.1,75.3L99.8,75.3L99.2,74.7L98.5,73.2L98.0,72.5L97.6,71.6L96.6,70.2L95.7,68.3L95.1,67.4L94.8,66.5L95.1,66.2L100.7,66.2L104.4,66.1L106.3,66.2L108.8,66.0L110.6,66.0L111.1,66.1L111.3,66.3L111.1,67.0L110.1,68.8L109.6,69.9L109.1,70.6L108.5,71.8L108.1,72.3L107.0,74.6L106.8,74.8L105.8,76.8L105.3,77.6L104.0,80.1L103.7,80.4L102.4,83.0L101.6,84.3L101.2,85.3L100.7,86.0L100.2,87.0L99.9,87.2L99.6,87.2L99.2,86.8L98.2,84.9L98.0,84.7L96.8,82.3L94.0,77.6L93.8,77.2L92.7,75.2L92.1,74.3L91.0,72.2L90.5,71.5L88.7,68.2L88.2,67.6L87.2,65.5L86.1,63.9L85.9,63.3L85.7,63.1L84.3,60.6L84.0,59.9L83.0,58.3L81.5,55.5L80.5,54.0L78.9,50.9L78.5,50.4L76.4,46.6L75.8,45.8L75.5,45.0L74.9,44.2L73.7,41.8L72.5,40.1L72.3,39.5L71.1,37.6L70.5,36.3L70.5,35.9L70.6,35.8L71.2,35.7L92.7,35.7L93.0,35.8L93.3,36.1L93.0,36.9L92.3,38.0L91.6,39.3L90.6,40.9L89.8,42.7L89.0,43.8L88.8,44.3L88.8,44.8L88.1,45.6L85.7,49.9L85.3,49.9L84.1,48.1L82.7,45.3L82.1,44.6L81.2,42.8L80.8,42.3L80.9,41.8L81.5,41.7L83.2,41.7L83.5,41.8L83.7,42.0L83.7,42.2L83.1,43.6L83.2,44.2L84.2,46.1L84.3,46.4L85.2,47.8L85.7,47.8L86.2,47.1L86.5,46.6L87.0,45.7L87.3,45.0L88.2,43.5L88.5,42.9L89.0,42.1L90.5,39.3L91.0,38.5L91.3,37.7L91.3,37.5L91.1,37.2L90.5,37.0L88.1,37.1L74.0,37.0L72.8,37.0L72.5,37.2L72.5,37.8L73.1,39.2L73.8,40.1L74.5,41.5L74.9,42.1L75.1,42.7L78.1,47.6L78.1,47.9L79.0,49.2L79.5,50.3L81.6,53.7L82.7,56.0L85.2,60.1L85.5,60.3L85.8,60.3L86.4,59.7L87.5,57.6L88.2,56.4L89.1,54.6L90.3,52.7L91.3,50.5L93.1,47.5L93.3,46.9L94.3,45.4L94.9,44.1L95.8,42.8L96.1,42.0L97.1,40.4L97.6,39.1L98.9,36.9L99.1,36.7L99.3,36.1L99.7,35.7L100.8,33.4L102.0,31.5L102.0,30.9L101.6,30.6L97.6,30.7L91.5,30.6L81.4,30.6L76.3,30.5Z" fill="#000" fill-rule="evenodd"/>
</svg>