<svg xmlns="http://www.w3.org/2000/svg" viewBox="0 0 128 128" width="128" height="128">
  <path d="M32.1,58.4L31.7,58.3L31.3,58.7L30.7,59.8L28.0,63.5L25.8,67.1L24.8,68.3L24.6,69.0L22.7,71.6L22.1,72.8L21.4,73.6L20.4,75.2L18.1,78.5L17.8,79.1L16.8,80.6L16.4,81.4L14.8,83.6L14.3,84.5L10.5,90.2L10.4,90.9L10.7,91.1L16.4,91.1L17.1,90.9L17.8,90.0L19.0,88.1L21.1,85.1L21.6,84.1L22.7,82.6L24.5,79.6L26.1,77.5L26.5,77.5L26.7,78.0L26.7,81.3L26.5,81.6L26.5,82.2L26.8,82.7L26.9,90.4L27.1,90.7L27.5,90.8L31.9,90.8L32.6,90.5L32.8,89.9L32.6,86.1L32.7,81.8L32.6,76.3L32.3,73.3L32.4,67.6L32.2,64.3L32.3,60.9Z M96.1,57.2L95.9,57.4L95.8,59.4L96.0,61.7L95.9,69.1L96.1,71.0L96.0,78.1L96.3,89.3L96.6,89.7L97.1,89.8L101.4,89.7L102.0,89.2L102.1,75.2L102.5,75.2L103.4,76.3L103.7,76.9L104.2,77.4L106.1,80.3L106.8,81.1L106.9,81.4L108.9,84.0L110.1,86.0L111.1,87.2L112.4,89.1L112.8,89.4L117.7,89.4L118.7,89.2L118.8,88.7L118.6,88.3L117.3,86.4L114.1,82.1L109.5,75.5L108.0,73.6L106.9,71.9L105.8,70.6L105.2,69.5L103.2,66.8L102.4,65.4L96.8,57.7L96.4,57.2Z M31.3,38.4L26.6,38.3L25.4,38.4L24.9,38.6L22.8,41.6L21.1,44.4L16.6,51.2L16.4,51.2L16.1,50.9L15.8,44.1L15.9,41.8L15.7,39.1L15.1,38.6L10.3,38.6L9.6,39.1L9.4,40.3L9.6,41.4L9.9,70.5L10.1,71.3L10.6,71.3L10.9,70.9L12.2,68.8L13.0,67.8L13.1,67.4L13.9,66.4L15.0,64.6L17.5,60.9L17.6,60.5L19.4,58.1L20.6,55.9L21.4,55.0L22.2,53.6L25.3,48.9L25.4,48.6L27.4,45.7L29.6,42.0L31.6,39.4L31.6,38.8Z M64.9,37.9L64.4,37.7L61.3,37.7L58.9,37.9L55.5,42.6L50.4,50.5L50.0,51.0L49.6,50.9L49.2,48.4L49.1,38.5L48.5,38.1L43.1,38.1L42.5,38.6L42.6,46.3L42.8,47.6L42.8,55.3L43.0,60.0L42.9,62.4L43.1,65.6L43.0,66.7L43.1,68.6L43.2,69.2L43.2,70.9L43.6,71.0L44.2,70.5L44.6,69.5L47.1,66.0L47.3,65.5L50.3,60.9L50.8,60.5L51.8,58.7L53.5,56.3L54.2,55.1L57.9,49.3L58.3,48.9L63.2,41.5L63.6,41.1L65.0,38.6Z M84.8,37.5L84.0,37.4L82.1,37.6L78.8,37.6L78.2,37.9L76.5,40.9L75.5,42.2L73.3,45.6L71.1,48.6L70.0,50.5L67.7,53.7L67.4,54.4L66.8,55.1L62.0,62.3L61.8,62.8L61.2,63.5L60.1,65.3L59.0,66.9L56.2,71.3L55.6,72.0L55.5,72.3L54.7,73.3L52.9,76.3L51.5,78.2L49.2,81.9L46.6,85.7L46.1,86.6L44.1,89.5L43.9,90.0L44.0,90.6L49.9,90.6L50.8,89.9L52.6,86.9L55.0,83.6L56.8,80.6L57.8,79.2L58.6,77.8L59.3,77.0L61.6,73.4L61.8,73.2L63.0,71.3L63.5,70.8L64.2,69.5L65.8,67.5L67.7,64.4L68.8,62.9L73.3,56.0L73.7,55.6L74.4,54.4L75.7,52.7L77.0,50.7L79.1,48.0L79.5,48.2L79.3,49.9L79.5,51.6L79.4,56.3L79.6,60.1L79.7,74.8L79.9,78.5L79.8,79.1L80.1,89.6L80.4,90.0L84.8,90.0L85.5,89.8L85.7,89.6L85.9,87.9L85.9,86.0L85.7,83.7L85.5,71.1L85.4,51.6L85.2,49.5L85.2,38.2Z M96.7,37.4L96.6,38.1L99.9,42.8L101.8,45.9L104.2,49.1L105.3,51.0L106.6,52.6L108.0,55.0L110.8,58.8L111.3,59.8L113.3,62.7L113.8,63.1L114.6,64.5L115.2,65.2L116.0,66.4L117.1,67.6L117.3,68.2L117.6,68.5L118.1,68.6L118.3,68.4L118.4,65.9L118.2,63.5L118.2,50.7L118.0,44.4L118.1,40.8L117.9,37.4L117.2,37.1L112.5,37.2L112.0,37.3L111.7,38.0L111.8,48.7L111.6,49.4L111.3,49.4L110.8,48.9L110.4,48.3L109.6,47.3L105.2,41.0L102.5,37.4L101.9,37.3L97.2,37.3Z" fill="#000" fill-rule="evenodd"/>
</svg>