<svg xmlns="http://www.w3.org/2000/svg" viewBox="0 0 128 128" width="128" height="128">
  <path d="M98.7,11.9L96.6,11.0L95.5,10.6L95.0,10.6L94.2,10.3L93.7,10.3L92.1,9.8L90.8,9.7L89.5,9.4L88.3,9.3L85.0,9.3L82.5,9.5L79.8,9.9L79.0,10.3L76.4,11.0L76.0,11.2L75.4,11.3L73.0,12.6L71.0,13.9L70.0,14.7L68.3,16.4L65.9,19.7L64.0,23.4L63.5,23.8L63.2,23.8L62.4,22.9L60.9,20.4L59.0,18.0L57.4,16.4L55.7,15.0L54.0,13.7L51.1,12.2L49.7,11.9L48.8,11.4L46.3,10.8L43.9,10.4L39.0,10.3L36.2,10.7L33.0,11.4L30.3,12.3L28.2,13.4L27.9,13.4L24.8,15.3L23.0,16.8L20.9,19.1L19.6,20.8L18.9,21.5L17.4,23.8L15.7,27.2L14.7,30.4L14.3,31.1L13.8,34.5L13.5,38.0L13.5,43.3L14.0,48.9L14.4,50.5L14.5,51.8L14.8,53.1L14.9,54.0L15.2,54.8L16.4,60.6L16.6,61.2L18.4,68.4L18.7,69.0L18.9,70.5L19.1,70.8L19.8,73.6L20.4,75.1L20.4,75.5L20.7,76.3L21.2,78.2L21.9,80.2L22.3,82.2L22.8,83.1L22.9,84.0L24.3,87.7L24.4,88.4L24.6,88.8L26.0,92.8L27.2,95.8L27.7,97.5L28.3,98.4L28.7,100.1L29.8,102.4L30.0,103.2L32.3,108.0L35.0,112.4L37.1,115.1L39.1,116.9L40.9,118.1L43.0,118.9L44.6,119.1L46.7,119.0L48.5,118.5L49.0,118.2L49.6,118.1L51.0,117.5L52.9,115.9L54.2,114.5L55.9,112.2L56.6,110.6L57.4,109.3L57.5,108.8L58.0,108.0L58.4,106.7L58.9,106.0L59.0,105.6L59.7,104.1L62.6,96.3L63.9,92.0L64.2,91.3L64.3,90.6L64.7,89.8L65.0,88.3L65.4,87.8L65.7,87.8L66.3,88.6L66.4,89.4L66.9,90.2L67.2,91.3L68.7,94.5L68.8,95.3L69.7,97.1L70.8,99.9L73.8,106.3L75.5,109.2L75.8,109.5L76.3,110.5L77.2,111.6L77.4,112.1L79.3,114.4L81.3,116.4L82.6,117.3L83.7,117.9L85.3,118.5L86.1,118.5L88.8,118.5L90.8,118.0L93.0,116.9L94.4,115.9L95.7,114.6L97.5,112.6L99.2,109.8L100.2,108.0L100.4,107.1L101.3,105.5L101.9,103.8L102.9,101.3L103.5,99.4L103.6,99.2L104.3,97.3L104.3,96.9L105.2,94.3L105.4,93.4L105.9,92.4L106.0,91.7L106.7,89.4L106.8,88.6L107.3,87.0L107.4,86.1L107.9,84.0L108.1,83.8L108.9,80.1L109.2,79.5L109.7,76.5L110.1,75.3L110.4,73.3L110.8,72.2L110.8,71.3L111.2,70.3L111.4,68.8L111.6,68.5L111.7,67.1L112.1,66.0L112.3,64.0L113.2,59.8L113.2,58.5L113.7,56.6L113.7,55.6L114.0,54.0L114.8,47.4L114.8,39.6L114.5,35.0L114.3,34.4L114.2,33.0L113.5,29.7L112.4,26.5L110.5,22.7L108.4,19.5L106.4,17.4L103.3,14.8L103.1,14.8L101.3,13.5Z M58.3,67.4L58.6,67.7L58.6,68.8L58.4,69.2L58.2,71.3L57.5,73.3L57.2,75.4L56.7,76.8L56.3,79.3L55.1,84.2L54.9,84.7L54.3,87.6L52.6,92.6L52.2,94.2L51.7,95.3L50.0,100.7L49.0,103.0L48.5,104.6L47.9,105.8L46.6,107.1L45.4,107.5L44.7,107.4L44.3,107.2L43.8,107.1L43.3,106.7L42.2,105.2L40.0,100.7L39.0,97.7L38.6,97.2L38.4,96.5L36.6,92.1L36.1,90.6L35.8,90.0L35.6,89.0L34.2,85.6L33.5,83.0L32.7,80.9L32.5,79.9L32.3,79.5L32.1,78.6L31.7,77.5L29.7,70.3L29.5,68.9L29.8,68.6L30.5,68.6L33.9,69.7L38.6,70.7L40.8,70.9L45.3,70.9L48.1,70.6L50.6,70.1L51.7,69.6L52.5,69.5L54.0,69.0L54.2,68.8L55.0,68.6L57.0,67.6L57.8,67.4Z M71.5,67.2L72.4,67.3L72.9,67.6L74.5,68.3L77.3,69.2L81.0,70.0L83.8,70.1L86.9,70.1L89.8,69.8L93.9,69.0L95.2,68.5L95.7,68.5L96.3,68.2L97.3,68.0L97.7,67.7L99.5,67.0L100.4,67.0L100.8,67.4L100.7,68.4L100.1,70.7L99.7,72.9L99.4,74.1L98.7,77.7L97.9,79.9L97.2,83.0L97.1,83.1L97.0,84.0L96.3,86.4L96.2,87.1L95.7,88.1L94.5,93.0L94.0,93.9L93.8,95.1L93.0,97.0L92.8,98.2L90.8,103.2L89.8,105.1L88.8,106.0L87.0,106.3L86.3,106.1L85.8,105.7L85.1,105.1L84.3,103.9L84.1,103.3L83.7,103.0L83.5,102.4L83.2,102.0L82.6,100.5L82.1,99.7L80.9,96.7L80.1,95.0L79.6,93.6L78.7,91.8L78.5,90.6L77.3,88.1L77.0,87.0L76.2,85.3L75.7,83.2L75.2,82.1L74.7,80.0L74.3,79.0L73.7,76.7L73.1,75.4L72.2,71.9L71.6,70.1L71.3,68.3L71.3,67.5Z M24.3,34.2L24.7,32.9L24.8,32.2L26.8,28.4L27.6,27.3L30.2,24.7L31.4,23.8L31.8,23.6L32.6,23.0L33.5,22.7L34.2,22.3L34.8,22.2L35.7,21.7L37.5,21.3L39.5,21.1L41.8,21.2L42.2,21.4L43.2,21.5L47.0,22.7L48.0,23.3L50.2,24.7L53.0,27.5L56.9,33.0L59.1,35.5L61.5,37.7L63.6,39.3L64.2,39.5L65.2,40.2L67.2,41.1L68.0,41.7L68.4,41.7L71.0,42.6L73.7,43.2L78.6,43.8L80.4,43.8L81.3,44.0L84.5,44.2L94.9,44.2L97.9,44.4L100.1,44.8L102.4,45.8L103.7,47.1L104.2,48.3L104.3,48.9L104.2,50.3L103.8,51.5L103.4,52.3L102.7,53.1L100.8,54.6L97.9,56.1L96.6,56.3L96.0,56.7L95.1,56.9L94.8,57.1L92.1,57.7L86.0,58.2L82.6,58.0L80.0,57.6L75.9,56.0L73.4,54.4L70.5,52.3L67.8,49.8L64.7,46.2L63.9,45.5L63.2,44.6L58.4,39.6L55.4,37.1L55.0,37.0L53.8,36.1L50.7,34.5L47.5,33.6L43.4,33.0L38.2,33.1L35.1,33.7L31.2,34.8L30.3,35.2L29.7,35.6L28.0,36.2L26.9,37.2L26.8,37.8L26.7,39.0L26.8,41.7L27.2,44.7L27.7,46.7L28.1,47.1L29.0,47.0L30.3,46.4L31.2,46.2L34.4,45.0L37.3,44.3L41.4,44.2L44.5,44.4L47.0,45.0L48.6,45.5L50.5,46.5L51.8,47.5L53.5,49.3L54.5,51.5L54.7,52.3L54.7,53.8L54.0,55.7L52.9,57.1L51.0,58.6L48.6,59.6L44.9,60.3L39.7,60.2L35.9,59.6L32.4,58.1L29.4,56.2L27.9,54.4L27.4,53.4L26.9,52.8L25.8,50.8L24.4,46.6L24.3,45.5L23.8,43.9L23.7,38.7L23.8,36.4Z M74.6,26.0L75.3,24.4L76.9,22.8L78.5,21.7L78.8,21.7L80.8,20.9L84.5,20.2L88.6,20.3L91.2,20.8L94.0,21.7L94.9,22.2L97.1,23.7L98.9,25.4L100.9,27.9L102.0,29.7L103.1,31.9L103.5,33.4L103.8,33.8L103.8,34.2L103.4,34.5L102.9,34.5L99.9,33.6L95.5,32.9L93.7,32.9L92.2,32.8L82.9,32.9L78.5,32.2L76.9,31.5L75.9,30.8L75.1,29.9L74.6,28.9L74.5,28.0L74.5,26.7Z" fill="#000" fill-rule="evenodd"/>
</svg>