<svg xmlns="http://www.w3.org/2000/svg" viewBox="0 0 128 128" width="128" height="128">
  <path d="M98.2,35.9L96.3,35.9L94.5,36.0L90.5,36.0L89.4,36.2L89.0,36.6L88.3,37.8L87.1,39.4L86.9,39.8L85.9,41.1L83.0,45.3L82.3,46.1L81.0,48.4L80.3,49.2L79.2,50.9L78.7,51.4L77.6,53.1L77.1,53.6L76.6,54.5L73.4,58.9L73.4,59.1L70.3,63.5L69.7,64.4L68.2,66.2L67.5,66.6L66.3,66.5L66.0,66.4L65.3,65.7L64.4,64.4L60.1,59.5L59.8,58.9L56.8,55.5L53.3,51.2L52.5,50.4L52.3,50.0L50.1,47.6L49.5,46.8L48.0,45.1L47.6,44.5L41.6,37.5L41.3,37.4L39.3,37.4L29.3,37.9L26.8,37.9L26.2,38.0L26.2,38.6L26.7,39.0L29.9,42.9L31.9,45.1L33.0,46.5L36.6,50.5L37.7,51.9L39.1,53.4L39.2,53.7L40.4,54.8L41.7,56.6L44.0,59.0L46.0,61.5L47.3,62.9L47.5,63.2L49.0,64.8L51.4,67.7L54.2,70.8L54.2,71.0L55.7,72.8L56.4,73.5L56.8,74.2L57.1,78.6L58.0,102.0L58.4,102.6L59.2,102.7L59.6,102.5L60.6,102.4L63.9,102.4L71.9,102.1L72.6,101.8L72.6,97.4L72.2,92.5L72.2,89.7L72.1,88.8L72.1,85.4L71.8,81.6L71.7,75.9L71.7,74.3L72.5,73.1L72.9,72.7L75.0,69.7L75.1,69.3L78.3,64.9L80.0,62.2L80.6,61.6L81.5,60.3L81.9,59.9L82.0,59.5L83.1,58.1L83.5,57.4L83.9,57.0L85.2,54.8L85.6,54.5L87.6,51.4L88.0,51.0L88.7,50.0L90.2,48.1L91.3,46.4L92.1,45.4L92.4,44.8L94.1,42.6L96.6,38.8L97.8,37.5L98.5,36.1Z M65.9,9.1L60.5,9.2L59.9,9.4L58.4,9.4L56.6,9.6L55.9,9.8L54.3,10.1L53.3,10.4L51.8,10.7L50.9,11.0L50.1,11.1L49.3,11.4L48.5,11.5L48.1,11.7L45.9,12.3L42.9,13.7L41.7,14.1L37.8,16.1L37.5,16.4L36.0,17.2L34.8,18.1L34.3,18.4L30.7,20.9L26.9,24.4L26.5,24.6L23.5,27.9L22.5,29.3L20.8,31.3L20.7,31.7L20.0,32.5L17.8,35.7L16.4,38.5L16.0,39.5L15.1,41.0L14.3,42.8L14.3,43.0L13.4,45.1L13.2,46.0L12.6,48.0L12.3,48.6L11.5,51.7L11.3,53.0L10.9,54.5L10.8,55.6L10.5,56.9L10.5,57.9L10.2,59.0L10.2,60.2L10.0,62.2L10.0,65.5L10.2,67.6L10.2,69.0L10.5,70.0L10.5,70.9L11.1,74.9L11.4,76.4L11.6,77.0L11.8,78.3L12.3,79.6L12.6,81.1L13.1,82.7L13.4,83.1L13.9,85.3L17.9,92.9L18.5,93.7L18.9,94.5L19.6,95.1L20.6,96.9L22.7,99.7L24.3,101.3L24.4,101.5L26.8,104.1L28.4,105.6L32.2,108.8L37.9,112.3L38.5,112.5L39.4,113.1L40.0,113.3L42.4,114.5L42.8,114.5L44.0,115.2L49.6,117.1L50.6,117.3L50.8,117.4L52.2,117.6L53.4,118.0L55.1,118.2L55.9,118.5L59.6,119.0L62.4,119.0L64.5,119.1L65.6,119.0L66.1,118.9L68.1,118.9L70.5,118.5L72.1,118.4L73.3,118.1L74.2,118.0L75.0,117.7L76.6,117.5L77.4,117.2L78.2,117.1L80.6,116.2L82.7,115.7L87.5,113.7L88.8,112.9L90.2,112.2L90.7,111.8L92.0,111.2L92.5,110.7L93.8,110.0L97.4,107.4L98.1,106.7L98.6,106.4L100.8,104.4L104.7,100.6L105.5,99.4L106.2,98.7L108.7,95.3L109.5,93.8L109.8,93.5L110.4,92.4L111.5,90.8L112.4,88.9L112.5,88.5L113.3,86.9L113.5,86.3L114.5,84.4L115.4,81.7L115.7,80.5L116.0,79.9L116.4,77.9L116.9,76.6L117.2,74.5L117.7,72.7L117.7,71.8L117.9,70.9L117.9,69.7L118.2,67.4L118.2,60.7L117.9,56.8L117.3,53.4L116.7,50.9L116.7,50.4L115.2,45.4L114.3,43.0L113.6,41.7L113.4,41.0L113.1,40.5L112.9,39.9L112.1,38.1L111.3,37.0L111.2,36.5L110.5,35.7L109.6,33.9L109.2,33.4L108.4,32.1L107.3,30.8L106.8,29.9L106.3,29.4L105.7,28.6L104.9,27.8L104.5,27.1L101.1,23.7L97.4,20.4L96.2,19.6L95.6,19.1L93.0,17.6L92.0,16.8L91.0,16.4L89.7,15.5L88.0,14.6L87.6,14.5L85.6,13.5L85.2,13.5L84.8,13.2L83.4,12.8L82.6,12.3L76.6,10.6L75.5,10.5L74.0,10.1L73.5,10.1L71.7,9.7L70.5,9.6L69.4,9.3Z M62.0,12.1L67.8,12.2L69.3,12.4L70.7,12.4L71.0,12.6L72.7,12.7L74.0,13.1L75.0,13.2L76.5,13.6L77.7,13.8L77.9,13.9L79.1,14.2L80.5,14.8L81.5,15.1L84.6,16.3L86.4,17.2L87.6,17.6L89.2,18.6L89.7,19.0L90.9,19.6L93.5,21.3L94.5,21.9L95.8,23.1L96.5,23.5L99.0,26.0L99.4,26.2L102.2,29.0L104.2,31.4L104.5,32.1L105.5,33.2L106.2,34.5L108.0,36.7L108.7,38.3L109.1,38.9L109.2,39.5L109.8,40.3L110.1,41.2L110.8,42.2L112.1,46.1L112.5,47.0L112.9,48.3L113.4,49.4L114.0,51.5L114.0,52.1L114.9,57.0L115.1,60.0L115.3,61.9L115.3,66.8L114.9,70.5L114.5,72.6L114.1,75.4L112.5,80.9L111.4,83.4L111.1,84.6L110.1,86.4L110.0,87.0L109.7,87.2L108.8,89.2L108.1,90.1L108.0,90.6L107.5,91.1L107.3,91.7L105.9,93.5L105.5,94.4L104.5,95.5L104.2,96.2L102.7,98.0L101.5,99.1L101.4,99.5L97.2,103.5L95.1,105.2L93.3,106.4L90.3,108.6L89.7,108.8L88.9,109.4L87.1,110.2L86.7,110.5L85.2,111.2L83.6,111.8L81.3,112.9L80.3,113.2L78.5,113.9L77.0,114.1L76.6,114.4L75.5,114.5L74.8,114.9L74.2,114.9L73.1,115.2L72.2,115.2L69.0,115.7L64.4,116.1L60.2,116.0L57.1,115.7L55.9,115.3L54.2,115.3L53.6,115.0L53.2,115.0L52.9,114.9L51.7,114.7L50.4,114.3L49.0,114.1L48.2,113.7L47.5,113.5L47.0,113.2L46.0,112.8L45.4,112.7L42.7,111.6L41.2,110.9L39.9,110.0L38.0,109.2L33.5,106.2L32.6,105.3L31.1,104.3L29.4,102.9L26.0,99.3L25.3,98.3L24.3,97.4L24.1,97.0L22.1,94.6L21.6,93.6L20.4,91.9L20.2,91.4L19.0,89.5L17.7,87.0L16.8,84.8L16.6,83.9L16.4,83.7L16.0,82.2L15.5,81.1L15.3,80.0L14.7,78.3L14.4,76.7L13.5,73.2L13.3,72.1L13.3,70.7L12.9,68.1L12.8,61.1L13.1,59.8L13.1,57.5L13.5,55.8L13.7,55.1L13.9,53.1L15.0,49.0L15.3,48.5L15.9,46.5L16.3,45.7L16.7,44.4L17.3,42.8L18.0,41.8L19.6,38.5L20.9,36.5L21.7,35.1L22.4,34.3L22.5,33.9L23.5,32.7L24.3,31.5L25.6,30.2L25.7,29.9L29.3,26.1L33.6,22.4L34.3,22.0L36.1,20.5L36.8,20.3L38.2,19.4L38.5,19.3L39.9,18.4L43.2,16.8L43.6,16.4L43.9,16.4L45.9,15.5L47.7,15.0L48.5,14.5L50.9,13.9L51.4,13.7L53.0,13.5L55.2,12.9L56.0,12.9L57.6,12.6L58.5,12.6L59.5,12.3Z M12.3,7.7L12.3,8.2L12.6,8.5L12.7,8.5L13.0,8.2L13.0,7.7Z" fill="#000" fill-rule="evenodd"/>
</svg>