<svg xmlns="http://www.w3.org/2000/svg" viewBox="0 0 128 128" width="128" height="128">
  <path d="M12.3,100.3L11.8,100.7L11.7,101.3L12.4,101.3L12.7,101.6L12.6,102.3L12.8,102.9L12.8,104.6L13.0,104.6L13.0,100.7L12.7,100.3Z M20.1,100.3L19.6,100.7L19.4,101.3L19.1,101.8L19.0,102.2L18.8,102.5L18.3,103.6L18.4,104.1L18.7,104.3L19.7,104.3L20.2,104.7L20.6,104.7L20.9,104.2L20.9,103.7L20.6,103.1L20.6,100.6L20.4,100.3Z M20.1,101.8L20.2,101.9L20.1,103.3L19.7,103.7L19.2,103.7L18.9,103.6L19.0,102.6L19.6,101.8Z M15.0,100.2L14.7,100.6L14.7,101.3L14.6,102.2L14.8,102.5L15.3,102.5L15.5,102.4L16.3,102.4L16.8,102.9L16.9,104.1L16.4,104.7L15.7,104.7L14.9,104.0L14.7,104.0L14.7,104.4L14.9,104.8L15.4,105.1L16.5,105.1L17.0,104.9L17.3,103.9L17.0,102.2L16.5,101.8L15.3,101.8L15.0,101.5L15.0,101.1L15.6,100.7L16.8,100.6L16.9,100.5L16.9,100.2Z M24.1,100.0L22.6,100.0L22.4,100.1L22.2,100.3L22.7,100.6L23.9,100.7L24.0,101.4L23.7,101.8L23.7,102.4L23.0,103.6L22.8,104.7L23.0,104.7L23.5,103.8L24.5,101.1L24.5,100.2Z M100.8,99.5L100.7,98.7L100.7,99.3Z M100.1,97.6L100.3,98.4L100.5,98.4L100.3,97.6Z M99.9,96.7L99.8,97.1L99.9,97.3L100.0,97.3Z M98.5,93.1L98.5,93.9L99.2,95.4L99.3,95.9L99.6,96.2L99.4,95.1L99.2,94.8L99.0,94.1L98.6,93.5Z M97.7,91.1L97.6,91.5L97.9,92.0L97.9,92.4L98.1,92.7L98.2,92.7L98.2,92.0L97.9,91.8Z M117.0,67.8L116.8,67.8L116.6,68.1L116.6,68.5L116.3,68.9L115.9,70.2L114.4,72.5L112.6,74.1L111.4,75.0L110.8,75.4L109.5,76.3L106.5,77.9L106.1,78.0L103.9,79.1L103.2,79.3L101.8,80.0L100.9,80.2L99.2,80.9L98.2,81.2L96.8,81.9L96.0,82.6L95.5,83.7L95.4,85.7L95.9,87.3L96.6,88.8L96.6,89.1L97.2,90.6L97.4,90.6L96.9,88.8L97.0,88.5L97.5,88.0L98.5,87.5L100.3,87.0L101.2,86.6L102.0,86.2L104.3,85.1L105.1,84.5L106.1,84.1L108.0,82.6L109.5,81.2L110.9,79.6L112.7,77.0L114.4,74.2L115.9,70.9L116.0,70.3L116.4,69.7L116.6,68.7L116.9,68.5Z M115.0,61.4L115.2,61.3L115.2,60.4Z M46.4,59.8L46.4,60.2L46.5,60.5L46.5,59.8Z M115.4,58.1L115.3,59.8L115.5,59.7L115.5,59.2Z M46.3,58.9L46.5,58.9L46.5,57.9L46.4,55.9Z M80.1,55.7L80.3,56.1L81.6,57.3L81.5,57.0Z M80.5,51.6L80.3,51.8L80.2,52.1L80.4,51.9Z M81.2,50.7L81.1,50.8L80.9,51.2L81.2,51.1Z M113.0,49.7L112.9,49.8L113.0,50.0L113.1,50.0Z M111.9,47.9L112.0,48.2L112.2,48.2L112.2,48.0Z M48.6,44.9L48.4,45.0L48.3,45.3L48.3,45.7L47.9,46.4L48.0,46.8L48.1,46.5L48.6,45.5Z M81.9,44.7L81.9,45.0L82.1,46.0Z M117.7,43.4L117.5,43.6L117.7,44.7L117.8,44.7Z M109.4,43.4L109.8,44.3L110.1,44.6L110.2,45.2L110.5,45.5L111.1,46.5L111.3,46.6L111.3,46.3L110.5,45.2L110.3,44.7L110.1,44.6L109.8,43.6Z M49.4,43.2L49.1,43.5L49.2,43.8Z M79.6,42.3L80.1,42.9L81.5,43.9L81.5,43.7L81.0,43.1Z M79.4,41.9L79.4,42.1L79.5,42.1Z M80.8,37.4L80.7,37.4L79.7,38.5L79.7,38.9L80.5,38.2Z M110.9,36.5L110.7,36.5L110.1,37.0L109.6,37.2L108.8,38.2L108.7,38.5L109.7,37.5L110.6,37.0L110.9,36.7Z M115.3,36.3L115.3,37.1L115.7,37.8L115.9,37.8L115.6,37.1L115.6,36.7Z M81.5,36.3L81.1,36.8L80.9,37.3L81.2,37.3L81.4,37.0Z M52.5,35.0L52.3,35.0L52.4,35.3Z M30.2,33.7L30.0,33.9L28.7,34.1L28.1,34.4L26.4,34.9L23.3,36.7L21.0,39.1L20.4,40.0L19.4,41.2L18.3,42.9L17.9,43.8L17.9,45.3L18.3,46.5L19.3,48.3L20.5,50.2L21.4,51.3L21.5,51.7L23.1,53.7L23.3,54.3L23.8,54.9L24.1,55.7L24.8,56.7L25.9,59.4L26.2,61.7L26.3,62.0L26.5,64.1L26.7,65.3L26.7,67.0L27.3,73.6L27.7,75.4L28.3,76.4L28.4,76.8L29.1,77.6L30.2,78.0L31.6,78.4L33.2,78.6L36.6,78.6L38.9,78.3L40.3,77.6L41.5,76.7L43.7,74.5L45.9,71.4L46.3,70.7L46.4,70.0L46.2,70.0L45.4,71.0L44.7,71.8L42.6,72.6L41.6,72.8L38.0,72.9L35.9,72.6L34.7,72.1L34.0,71.2L33.5,69.1L33.5,67.0L33.3,65.6L33.1,60.6L32.7,57.7L32.2,55.5L31.3,53.4L29.2,50.1L27.7,48.2L27.3,47.6L25.0,44.6L23.9,42.5L23.6,42.1L23.4,41.5L23.1,41.1L22.7,40.0L22.6,38.9L23.1,37.6L24.8,36.0L26.5,35.3L27.3,35.1L27.5,34.9L28.3,34.6L28.5,34.4L29.9,34.2L30.2,33.9L33.1,33.8L33.6,34.0L34.8,35.0L35.6,35.6L36.2,35.6L36.7,35.9L37.2,35.9L38.2,35.5L38.8,35.0L39.5,34.1L38.9,34.5L38.9,34.8L38.7,34.8L38.2,35.3L36.7,35.6L35.6,35.2L33.3,33.5Z M52.3,31.3L51.9,30.9L50.8,30.6L48.6,30.6L47.1,30.9L46.3,30.9L45.4,31.1L44.6,31.1L42.3,31.6L41.1,32.1L40.4,32.7L40.0,33.3L40.0,33.5L40.2,33.5L41.3,32.5L42.2,32.1L45.6,31.3L46.5,31.3L47.3,31.1L48.7,30.9L50.2,30.9L51.2,31.1L52.3,31.5Z M107.7,30.5L106.5,30.1L104.3,29.8L103.2,29.8L102.3,29.6L97.8,29.6L97.2,29.8L94.6,30.0L94.3,30.2L92.7,30.4L92.5,30.6L91.4,30.9L91.0,30.9L89.3,31.9L86.7,34.6L85.0,36.8L84.5,37.8L84.3,38.0L83.7,39.2L83.3,41.0L83.3,42.8L83.9,45.5L84.4,46.7L84.5,47.5L84.8,47.8L84.8,48.3L86.2,51.7L87.5,54.7L87.6,55.1L88.8,57.3L89.5,59.7L89.5,60.6L89.2,61.6L88.2,63.0L87.0,64.3L86.0,66.0L85.9,66.6L85.9,68.3L86.0,69.4L86.7,71.8L88.0,74.1L89.4,75.4L90.6,76.0L92.0,76.3L94.9,76.3L99.0,75.8L102.2,75.2L103.6,74.7L104.9,74.1L105.4,73.6L106.5,73.0L108.8,71.0L109.7,70.0L110.6,68.7L111.5,67.8L111.9,67.1L113.5,65.2L114.4,63.8L114.4,63.3L114.7,62.9L114.6,62.4L113.8,63.8L111.9,65.8L111.1,66.4L109.0,67.4L108.3,67.8L105.3,68.6L104.3,68.7L102.7,69.1L100.6,69.3L99.1,69.2L98.6,69.4L96.0,69.3L94.5,68.9L93.5,68.4L92.7,67.6L92.4,66.9L91.8,64.9L91.7,63.1L92.1,61.9L93.0,60.9L94.5,60.1L95.6,59.1L96.0,58.1L96.0,56.5L95.2,53.9L93.8,51.5L91.5,46.8L91.3,46.1L90.6,45.0L89.6,42.2L88.9,39.2L88.7,37.3L88.7,34.6L88.8,33.8L89.5,32.8L90.6,31.7L91.7,31.1L91.9,31.1L92.7,30.7L94.5,30.5L96.0,30.1L97.1,30.1L98.2,29.9L102.6,29.9L106.3,30.4L108.7,31.3L110.1,32.5L110.2,32.5L110.1,32.3L109.4,31.5Z M79.5,29.2L77.4,28.9L71.8,28.9L71.0,29.1L67.1,29.4L66.3,29.7L64.3,29.9L63.8,30.2L62.7,30.4L62.2,30.8L60.6,31.5L59.6,32.2L58.0,33.7L57.7,33.9L56.0,35.6L54.0,38.1L52.5,40.8L51.8,42.9L51.6,44.5L51.4,45.4L51.4,46.6L51.2,47.2L51.2,50.5L51.0,51.1L51.2,60.5L51.7,67.1L52.1,69.6L52.5,70.9L52.8,72.5L53.9,75.3L54.9,76.8L55.5,77.4L56.8,78.1L59.1,78.7L62.9,79.0L69.6,78.8L72.8,78.3L74.7,77.4L76.1,76.2L78.2,74.0L78.6,73.3L80.6,71.4L80.6,71.2L81.2,70.6L81.9,69.6L81.9,69.2L81.8,69.2L80.6,70.5L79.4,71.3L78.8,71.4L78.4,71.7L77.0,71.8L75.8,72.1L72.3,72.4L70.7,72.7L68.4,72.8L63.7,72.7L61.6,72.4L60.7,71.9L60.2,71.4L59.5,69.8L58.8,67.1L58.6,64.1L58.2,61.3L57.8,51.2L57.8,46.3L58.0,44.3L58.0,43.0L58.4,40.2L58.4,39.2L58.7,37.8L58.8,36.4L59.1,34.6L59.3,33.8L59.7,33.1L60.6,32.1L61.8,31.2L62.3,31.1L62.7,30.8L63.5,30.6L64.2,30.3L69.4,29.5L73.0,29.4L75.0,29.1L79.7,29.5L80.4,30.1L80.7,30.1L80.4,29.7Z M106.8,25.3L107.3,25.5L107.1,25.2Z M13.9,38.3L11.0,41.9L10.6,42.7L10.0,44.2L9.7,45.3L9.6,45.5L9.1,50.5L9.1,55.8L9.6,61.6L10.0,63.8L10.5,65.8L10.7,67.4L11.1,68.4L11.7,70.6L13.6,76.1L15.1,79.4L16.6,81.5L17.2,82.6L18.4,84.0L20.2,85.7L21.2,86.3L22.0,86.6L24.4,87.1L24.9,87.3L28.9,88.1L32.3,88.4L33.7,88.8L36.6,88.9L37.0,89.1L38.1,89.1L39.8,89.3L50.3,89.7L59.3,89.8L66.2,89.8L68.3,89.9L70.1,89.8L71.8,90.0L75.1,90.0L77.6,90.2L79.5,90.9L80.5,91.4L81.8,92.4L86.7,97.4L88.6,99.6L93.2,104.3L93.7,104.6L94.0,105.0L95.5,106.0L96.0,106.1L96.7,106.1L97.8,105.4L99.2,104.2L101.2,102.1L101.4,101.6L101.4,101.1L101.1,100.6L101.1,101.0L100.7,101.4L100.0,101.5L99.1,101.1L96.7,98.9L95.4,97.5L94.7,96.5L90.4,91.7L89.7,91.1L89.3,90.5L88.0,89.1L87.5,88.4L85.3,86.2L83.9,85.1L82.3,84.4L81.3,84.1L79.2,83.7L75.9,83.6L74.8,83.4L67.6,83.3L64.3,83.4L57.3,83.1L54.8,83.2L53.6,83.0L46.1,83.0L40.1,82.6L39.4,82.5L37.6,82.4L36.3,82.2L35.3,82.2L32.8,81.8L31.6,81.7L29.8,81.3L28.8,81.2L28.1,81.0L27.1,80.9L25.5,80.4L24.4,79.7L23.3,78.8L22.5,77.9L22.2,77.2L21.6,76.6L20.1,73.9L18.4,69.7L17.5,66.7L17.4,65.8L17.0,64.8L16.9,64.1L16.2,61.6L15.9,59.3L15.4,56.8L15.1,53.8L14.8,51.6L14.7,47.2L14.9,42.9L15.4,39.8L16.1,37.4L16.6,36.6L16.6,36.4L17.8,35.0L20.1,33.1L21.6,32.2L22.2,32.0L23.9,31.0L24.6,30.9L25.9,30.1L26.9,29.8L27.2,29.6L27.7,29.5L28.4,29.1L29.1,29.0L29.4,28.8L29.9,28.7L31.1,28.2L31.5,28.2L32.0,27.9L32.5,27.8L33.4,27.4L34.2,27.3L34.9,27.0L36.0,26.8L36.3,26.6L39.3,26.1L41.3,25.5L44.7,25.1L45.2,24.8L47.3,24.7L48.0,24.4L50.4,24.2L51.4,24.0L56.8,23.4L58.4,23.4L60.2,23.1L61.3,23.1L62.0,22.9L65.1,22.9L66.9,22.7L68.9,22.7L69.8,22.6L84.4,22.5L85.2,22.6L87.7,22.6L90.1,22.8L94.4,23.0L94.9,23.1L97.7,23.3L98.4,23.5L99.9,23.6L100.9,23.9L101.6,23.9L102.9,24.2L104.4,24.4L105.5,24.8L105.8,24.8L106.0,25.0L106.5,25.0L105.6,24.5L104.5,24.3L103.7,24.0L103.2,24.0L102.7,23.7L102.0,23.7L101.8,23.5L101.0,23.5L99.4,23.2L97.7,23.1L95.5,22.7L87.7,22.2L86.3,22.3L85.5,22.2L83.5,22.2L81.9,22.1L75.0,22.1L69.6,22.2L68.5,22.4L64.5,22.4L62.9,22.6L62.0,22.8L60.6,22.7L60.0,22.9L54.6,23.3L54.1,23.4L53.2,23.4L47.6,24.1L46.6,24.3L45.6,24.4L45.3,24.5L44.3,24.6L44.0,24.8L42.9,24.8L40.7,25.4L38.2,25.8L37.3,26.1L35.8,26.3L35.3,26.6L34.9,26.6L34.3,26.9L33.3,27.0L32.7,27.3L32.0,27.4L31.2,27.8L30.4,28.0L29.9,28.3L29.5,28.3L28.8,28.7L28.3,28.8L27.5,29.1L26.8,29.3L25.9,29.8L25.6,30.0L25.3,30.0L24.5,30.4L23.8,30.6L22.4,31.4L20.1,32.5L19.5,33.1L18.5,33.7L17.2,34.9Z" fill="#000" fill-rule="evenodd"/>
</svg>