<svg xmlns="http://www.w3.org/2000/svg" viewBox="0 0 128 128" width="128" height="128">
  <path d="M116.2,53.0L115.8,53.0L115.4,53.3L115.3,53.7L114.2,55.1L113.8,55.9L113.3,56.5L111.8,59.0L111.3,59.6L108.8,63.7L108.4,64.3L108.2,64.9L107.4,65.8L107.2,66.2L106.6,67.0L106.4,67.5L104.1,70.9L103.9,71.5L102.1,74.1L101.3,75.6L101.0,75.9L99.2,78.6L98.6,79.7L97.7,81.0L96.4,83.1L96.1,83.4L95.8,84.0L95.1,84.9L94.7,85.8L94.4,86.2L91.1,91.4L90.4,92.3L90.1,93.0L89.7,93.4L87.4,97.2L86.7,98.1L84.4,101.7L84.3,102.0L82.7,104.3L82.6,104.7L81.8,106.1L81.0,107.0L78.4,111.2L77.8,111.9L77.2,113.1L77.2,113.5L77.4,113.7L81.7,113.9L84.7,113.9L85.8,114.1L98.0,114.1L101.9,114.4L112.7,114.6L115.1,114.5L115.7,114.0L116.0,112.0L116.0,108.1L116.0,95.1L116.2,89.8L116.3,74.2L116.5,72.6L116.4,66.2L116.6,57.5L116.5,53.5Z M118.9,15.9L118.4,15.7L115.3,15.5L102.1,15.5L97.6,15.4L96.5,15.3L94.5,15.3L92.7,15.1L86.2,15.1L81.5,14.9L79.0,15.0L77.6,14.8L73.0,14.8L71.6,15.2L70.5,16.5L65.5,24.2L65.1,25.0L63.8,26.7L63.1,28.0L62.2,29.1L61.6,30.3L59.0,34.2L58.6,35.0L57.1,37.1L55.7,39.4L54.4,41.2L54.0,42.1L53.3,42.9L52.9,43.9L51.7,45.5L50.3,48.0L49.6,48.8L49.3,49.4L48.4,50.6L47.5,52.2L45.7,54.7L45.0,56.0L43.8,57.7L43.5,58.4L42.3,60.1L40.3,63.5L39.9,63.9L39.3,65.0L38.9,65.4L38.7,66.0L37.5,67.7L37.5,67.9L36.5,69.1L36.1,70.0L32.5,75.3L32.1,76.2L31.6,76.8L31.5,77.1L29.9,79.7L28.6,81.4L27.2,83.8L25.1,87.0L24.7,87.4L24.5,88.0L23.1,90.0L21.6,92.4L21.3,92.8L19.8,95.3L19.3,95.9L18.9,96.7L17.3,98.9L16.7,100.1L15.4,101.9L15.0,102.7L13.2,105.3L12.0,107.4L10.0,110.4L9.3,111.9L9.2,112.5L9.7,112.8L16.2,113.1L30.1,113.1L33.6,113.3L39.3,113.3L46.6,113.5L56.4,113.6L56.9,113.3L57.5,112.7L58.6,110.9L60.1,108.8L61.6,106.3L63.5,103.5L64.7,101.3L66.4,99.1L67.0,97.9L67.2,97.8L67.9,96.5L68.2,96.1L69.3,94.3L69.7,93.9L69.9,93.4L72.0,90.2L72.7,88.8L73.5,87.9L74.7,85.9L76.5,83.4L76.6,82.8L80.3,77.4L83.5,72.2L83.9,71.8L84.2,71.2L85.8,68.8L86.1,68.2L87.8,65.7L88.4,64.5L89.7,62.6L89.8,62.3L90.3,61.7L90.9,60.7L92.5,58.3L94.7,54.5L95.1,54.1L96.7,51.4L97.4,50.6L98.2,49.0L98.8,48.3L99.2,47.6L103.1,41.6L103.9,40.1L105.0,38.7L106.6,35.9L107.3,35.0L107.7,34.2L108.6,33.0L108.9,32.2L110.1,30.6L110.3,30.1L111.7,28.2L111.8,27.7L112.2,27.3L113.6,25.0L116.3,21.0L117.0,19.7L118.2,18.1L118.9,16.5Z M54.4,14.7L50.8,14.5L50.2,14.3L31.5,14.0L26.2,13.7L21.3,13.8L20.0,13.6L18.0,13.7L17.4,14.2L17.4,17.5L17.3,20.2L17.4,23.0L17.1,24.8L17.0,33.9L16.8,36.7L16.8,51.2L16.6,52.3L16.6,57.5L16.3,64.3L16.3,68.4L16.2,70.8L16.3,74.6L16.8,74.7L18.2,72.7L18.5,72.1L20.1,69.8L20.4,69.2L21.6,67.5L22.7,65.6L24.0,63.9L24.6,62.5L26.4,59.8L26.4,59.6L28.8,56.3L29.6,54.7L32.3,50.9L33.8,48.2L35.3,46.1L35.6,45.5L36.2,44.7L38.0,41.6L38.7,40.9L38.9,40.3L40.1,38.6L40.3,38.0L41.7,36.2L43.7,32.8L44.0,32.5L45.2,30.4L46.0,29.4L46.1,29.1L46.9,28.0L47.3,27.1L50.5,22.2L51.1,21.0L51.7,20.3L51.8,20.0L52.4,19.2L52.9,18.2L53.6,17.3L54.6,15.3L54.6,14.8Z" fill="#000" fill-rule="evenodd"/>
</svg>