<svg xmlns="http://www.w3.org/2000/svg" viewBox="0 0 128 128" width="128" height="128">
  <path d="M10.0,24.1L10.3,24.7L13.4,28.2L14.1,29.2L15.5,30.8L18.4,34.3L20.4,36.3L20.5,36.6L22.4,38.7L24.4,41.1L30.5,48.1L31.0,48.9L33.9,52.0L35.3,53.9L35.3,54.4L29.6,59.9L27.3,61.7L19.4,69.0L17.0,71.1L15.4,72.6L10.4,77.1L9.5,78.1L9.5,78.3L9.8,78.6L13.9,78.7L18.5,78.6L29.3,78.7L30.2,78.5L34.1,74.9L34.8,74.5L35.6,73.6L38.2,71.3L39.1,70.4L40.0,69.7L55.8,55.4L56.2,54.9L56.2,54.4L42.7,38.8L42.7,38.3L46.7,38.2L78.5,38.4L79.6,38.3L80.1,38.5L80.2,38.8L77.0,41.9L74.5,44.1L73.9,44.8L72.8,45.6L72.3,46.3L68.9,49.2L66.4,51.6L62.9,54.6L55.3,61.6L52.4,64.1L51.7,65.0L49.9,66.4L49.2,67.1L45.4,70.5L42.8,73.0L42.1,73.4L38.6,76.6L37.9,77.1L36.7,78.4L34.9,79.9L33.9,81.0L30.5,83.9L22.7,91.2L22.4,91.3L20.8,92.7L18.4,95.1L10.6,102.0L9.2,103.4L9.3,103.8L10.9,104.0L13.4,103.9L29.8,104.1L41.8,104.0L59.7,104.2L69.3,104.1L100.5,104.3L106.1,104.4L112.0,104.4L115.7,104.6L118.4,104.6L118.9,104.3L119.0,103.9L111.1,94.9L108.4,91.7L107.7,91.1L106.9,90.0L101.3,83.7L101.1,83.4L100.0,82.2L98.4,80.2L95.3,76.9L92.9,73.9L93.0,73.6L93.6,72.7L103.0,64.5L103.5,63.8L104.6,63.0L108.7,59.1L109.1,59.0L119.0,49.9L119.0,49.5L118.6,49.3L98.5,49.1L98.0,49.3L88.6,57.9L88.1,58.2L86.4,59.9L85.2,60.9L78.5,67.0L76.4,68.8L72.7,72.4L72.6,73.1L75.3,76.4L76.3,77.3L79.5,81.1L80.1,81.6L82.6,84.7L83.4,85.4L84.4,86.7L86.3,88.7L86.9,89.7L86.6,89.9L49.8,89.9L48.1,89.8L47.9,89.7L47.8,89.3L53.6,84.1L54.2,83.4L55.9,82.0L62.6,75.8L63.3,75.3L66.4,72.3L68.6,70.5L71.0,68.2L72.3,67.2L80.9,59.3L81.4,59.0L83.9,56.4L85.8,54.9L89.9,51.0L91.8,49.5L104.3,38.0L106.3,36.3L113.1,30.0L114.6,28.7L118.5,25.2L118.7,24.8L118.7,24.6L118.6,24.4L117.6,24.2L93.0,24.2L78.6,24.1L72.6,24.2L65.6,24.0L62.0,24.1L57.2,23.9L20.5,23.9L19.9,23.7L10.7,23.7Z" fill="#000" fill-rule="evenodd"/>
</svg>