<svg xmlns="http://www.w3.org/2000/svg" viewBox="0 0 128 128" width="128" height="128">
  <path d="M119.1,64.1L118.7,63.8L115.6,64.0L111.1,64.0L110.2,64.1L105.4,64.1L104.4,64.3L102.9,64.2L100.2,64.4L95.8,64.4L95.0,64.5L90.0,64.5L85.2,64.9L84.8,65.2L83.3,68.4L81.6,72.2L80.8,73.8L80.3,75.3L78.8,78.3L78.7,79.0L78.3,79.5L77.6,81.5L76.4,83.9L75.9,85.3L75.3,86.4L75.2,86.9L74.9,87.4L74.3,89.0L73.7,90.2L73.6,90.6L72.5,92.9L72.5,93.1L71.6,95.0L71.6,95.3L71.0,96.5L70.7,97.4L70.4,97.8L69.7,99.5L69.3,100.2L69.3,100.4L68.5,102.1L68.0,103.6L67.3,104.9L66.9,106.2L66.0,107.7L65.6,108.9L65.2,109.4L65.2,110.4L68.4,110.4L70.1,110.3L85.9,110.0L87.1,109.9L98.8,109.7L99.3,109.0L100.3,107.0L100.6,106.1L101.4,104.5L102.7,101.3L103.4,99.9L103.8,98.8L104.7,97.2L105.6,94.7L106.2,93.6L106.2,93.4L106.6,92.7L107.2,91.1L107.8,89.9L107.8,89.7L109.5,86.3L110.2,84.3L110.6,83.4L111.5,81.3L111.8,80.8L114.3,74.7L115.0,73.6L115.0,73.3L115.2,73.1L116.1,70.7L117.4,68.0L117.5,67.4L118.7,65.4Z M62.2,18.2L59.9,18.1L58.7,18.3L49.6,18.5L48.2,18.7L44.7,18.7L38.7,19.0L38.0,19.2L29.9,19.4L28.7,19.7L28.4,20.0L27.9,20.9L27.8,21.3L27.5,21.7L26.5,24.4L25.1,27.3L25.0,28.0L24.4,29.1L23.9,30.5L23.2,32.0L22.5,33.6L22.4,34.1L21.9,34.9L21.0,37.4L20.5,38.5L18.9,42.3L18.6,42.8L18.5,43.3L17.0,46.7L16.3,48.7L15.7,49.7L15.1,51.5L14.5,52.7L13.3,56.0L12.9,56.5L12.0,59.0L11.5,60.0L10.6,62.0L10.5,62.5L9.5,64.8L9.2,65.8L10.2,66.1L16.9,65.8L25.4,65.8L28.2,65.8L29.2,65.6L41.6,65.4L42.1,65.3L42.6,64.5L42.8,63.6L44.2,60.8L44.2,60.5L45.0,59.0L45.5,57.6L45.8,57.2L45.8,56.9L47.4,53.5L47.9,52.3L50.9,45.6L51.4,44.1L51.8,43.5L52.2,42.3L53.5,39.5L53.7,38.9L54.6,37.0L55.0,35.8L56.1,33.5L56.9,31.4L57.1,31.2L57.7,29.9L57.7,29.6L58.4,28.1L58.7,27.2L60.1,24.2L61.1,21.3L61.5,20.8L61.9,19.6L62.2,19.0Z M101.3,16.7L101.0,16.6L91.4,17.1L84.6,17.2L83.9,17.4L71.2,17.6L70.5,17.8L67.4,17.9L66.8,18.3L65.1,22.5L64.3,24.0L64.3,24.2L63.9,24.9L62.3,28.6L61.7,29.6L61.4,30.8L60.8,31.9L60.7,32.4L59.7,34.6L57.6,39.7L56.5,42.0L55.6,44.2L55.0,45.4L54.9,45.9L53.6,48.6L51.3,54.2L50.0,57.0L49.7,57.8L49.2,58.6L48.9,59.7L48.1,61.3L48.0,61.7L47.4,63.1L46.6,65.0L46.3,65.5L46.2,65.9L45.5,67.4L45.5,67.6L44.7,69.2L44.5,69.9L44.0,70.8L43.9,71.3L43.1,72.9L42.2,75.4L41.9,75.8L39.6,81.3L39.6,81.5L38.9,82.7L38.8,83.2L37.2,86.8L36.4,89.0L36.1,89.4L36.0,89.9L35.1,91.8L34.2,93.8L34.2,94.0L33.9,94.5L33.7,95.2L32.9,96.8L32.9,97.0L32.0,98.9L31.9,99.4L31.3,100.7L31.0,101.5L30.6,102.1L30.1,103.6L29.7,104.2L29.7,104.7L29.1,105.9L28.4,107.5L28.3,108.0L27.2,110.5L26.8,111.0L26.9,111.4L27.8,111.4L28.3,111.3L28.8,110.9L30.0,110.9L30.5,111.1L34.8,111.1L36.1,110.8L38.0,110.7L44.1,110.7L48.8,110.5L60.4,110.5L61.0,110.0L61.4,108.9L62.3,107.1L62.3,106.8L62.6,106.3L63.7,103.7L64.3,102.5L64.6,101.7L65.0,101.0L65.5,99.6L65.8,99.1L66.0,98.3L67.4,95.4L67.4,95.2L68.2,93.7L68.2,93.5L69.2,91.1L70.0,89.6L71.0,87.1L72.2,84.5L72.2,84.3L73.4,81.6L73.5,81.2L74.6,79.1L75.7,76.1L76.7,74.1L78.6,69.6L79.8,67.2L81.7,62.4L81.9,62.2L82.8,59.9L83.2,59.1L83.7,57.6L84.8,55.2L86.0,52.2L87.1,49.9L87.3,49.2L88.3,47.2L88.6,46.0L88.9,45.5L89.2,44.7L90.6,41.7L91.4,39.5L91.8,38.9L92.8,36.2L93.8,34.2L95.0,31.7L95.0,31.4L96.6,28.0L97.1,26.6L97.6,25.8L97.6,25.5L99.8,20.8L100.6,18.9L101.4,17.3Z" fill="#000" fill-rule="evenodd"/>
</svg>