<svg xmlns="http://www.w3.org/2000/svg" viewBox="0 0 128 128" width="128" height="128">
  <path d="M11.9,97.6L12.1,118.4L12.2,118.6L12.8,118.8L18.1,118.9L26.3,118.8L30.4,118.6L34.2,118.7L37.4,118.6L47.1,118.4L57.2,118.4L67.4,118.1L76.2,118.1L80.6,117.9L110.6,117.6L115.6,117.4L115.9,117.3L116.4,116.5L116.5,115.4L116.2,111.6L116.1,95.1L116.0,90.6L116.0,89.0L115.9,86.0L116.0,83.5L115.9,82.2L115.1,81.3L107.6,81.3L104.3,81.5L96.7,81.5L93.6,81.7L80.6,81.8L79.1,82.0L75.2,82.0L72.5,81.4L71.3,80.6L69.8,79.0L68.0,76.4L67.4,75.7L66.5,74.3L64.0,71.2L63.4,70.1L62.9,69.6L62.3,68.5L61.5,67.7L61.5,67.5L60.9,66.7L59.7,64.9L58.6,63.6L58.3,62.9L56.3,60.6L56.0,59.9L54.7,58.3L54.0,57.2L53.3,56.3L52.8,55.5L51.6,53.9L50.0,52.4L48.3,51.7L46.1,51.7L44.5,52.3L42.5,54.1L40.6,56.7L40.1,57.6L38.6,59.4L37.5,61.3L34.0,66.0L33.9,66.4L32.7,67.9L32.0,69.0L28.0,74.2L27.2,75.7L25.8,77.4L25.0,78.8L24.4,79.4L24.0,80.1L21.8,83.0L21.4,83.8L12.1,96.8Z M114.5,9.7L114.0,9.4L104.8,9.4L102.1,9.5L97.8,9.5L87.2,9.9L77.6,10.0L73.1,10.3L52.6,10.7L48.5,11.0L44.5,11.0L40.5,11.3L34.1,11.4L33.1,11.6L31.0,11.5L29.1,11.7L26.4,11.7L22.8,12.0L18.6,12.0L12.4,12.3L12.0,12.8L11.9,27.5L12.0,46.8L12.4,47.1L17.4,47.1L33.1,46.6L40.2,46.6L44.1,46.3L45.6,46.4L48.4,46.2L51.4,46.2L53.1,46.6L54.5,47.4L56.8,49.9L58.0,51.8L59.9,54.0L60.8,55.5L61.4,56.2L61.5,56.6L62.8,58.1L64.0,60.0L65.9,62.2L67.4,64.5L69.0,66.4L69.8,67.8L71.8,70.3L72.0,70.7L72.9,71.7L74.1,73.5L75.6,75.1L76.5,75.8L78.1,76.5L79.5,76.6L81.2,76.2L82.6,75.3L83.9,73.9L84.2,73.3L85.2,72.1L85.5,71.6L89.2,66.6L90.7,64.4L91.3,63.8L93.8,60.2L95.4,58.2L96.1,57.1L96.8,56.2L97.0,55.8L98.3,54.3L98.3,54.1L100.4,51.4L102.2,48.8L102.9,48.2L103.3,47.3L105.2,45.1L106.0,43.7L108.8,40.2L109.5,39.1L114.8,31.9L115.1,31.1L114.9,27.2L114.8,15.9L114.7,13.3L114.7,10.4Z" fill="#000" fill-rule="evenodd"/>
</svg>