<svg xmlns="http://www.w3.org/2000/svg" viewBox="0 0 128 128" width="128" height="128">
  <path d="M11.6,116.9L11.8,117.3L12.3,117.4L24.5,117.4L29.4,117.2L38.5,117.2L41.9,117.0L66.5,116.9L70.7,116.7L79.7,116.7L80.4,116.3L81.7,114.9L83.6,113.3L92.3,105.0L93.9,103.4L94.4,103.1L98.6,98.9L99.8,98.1L102.9,94.9L104.9,93.2L111.1,87.1L113.8,84.7L114.7,83.8L115.0,83.6L118.7,80.1L118.8,79.6L118.4,79.2L92.9,79.2L82.1,79.4L74.9,79.3L58.9,79.5L50.2,79.4L49.6,78.9L49.5,76.3L49.2,61.2L49.2,53.3L49.1,52.6L48.7,52.2L48.3,52.3L45.7,54.7L38.5,62.0L37.3,63.0L35.1,65.2L34.8,65.7L30.4,70.1L30.0,70.3L26.9,73.6L25.6,74.7L11.5,88.8L11.2,89.8L11.2,96.4L11.4,103.0L11.4,113.0Z M116.4,11.4L116.1,11.0L115.6,10.9L99.6,10.9L88.9,11.1L84.9,11.0L79.4,11.2L75.6,11.1L68.5,11.3L49.7,11.3L48.1,11.6L37.7,21.3L34.3,24.7L31.7,27.0L29.8,29.0L26.2,32.2L24.8,33.7L24.2,34.2L23.1,35.4L21.0,37.1L20.0,38.2L9.4,48.2L9.4,48.5L9.9,48.9L10.7,49.0L44.4,48.8L60.3,48.5L78.0,48.5L78.5,48.9L78.6,49.4L78.9,75.7L79.2,76.0L79.7,76.0L81.4,74.6L82.4,73.4L91.6,64.2L94.3,61.7L116.4,39.6L116.7,39.1L116.9,38.0L116.8,24.3L116.6,18.6L116.7,15.0Z" fill="#000" fill-rule="evenodd"/>
</svg>