<svg xmlns="http://www.w3.org/2000/svg" viewBox="0 0 128 128" width="128" height="128">
  <path d="M116.5,9.8L116.0,9.6L105.7,9.5L103.5,9.7L90.3,9.7L88.7,9.9L85.0,9.8L81.5,10.0L78.6,9.9L68.8,10.1L66.0,10.0L62.9,10.2L59.6,10.1L35.9,10.7L24.6,10.8L23.0,11.0L16.9,11.0L11.8,11.2L11.1,11.1L10.1,11.2L9.7,11.4L9.5,11.9L9.5,17.5L9.7,20.5L9.7,28.6L9.9,30.7L9.8,33.6L10.0,36.7L10.0,42.3L10.2,46.3L10.2,54.4L10.6,65.9L10.5,68.9L10.8,74.8L10.7,79.3L10.9,80.7L10.8,84.7L10.9,89.5L11.1,91.8L11.0,94.5L11.2,96.2L11.2,100.7L11.4,103.5L11.3,111.1L11.5,112.6L11.5,116.1L11.6,118.2L12.0,118.6L13.0,118.8L21.1,118.8L27.5,118.6L44.6,118.5L103.2,118.5L109.9,118.3L117.4,118.3L118.3,118.2L118.8,117.8L118.8,105.4L118.5,101.2L118.5,92.7L118.3,85.8L118.4,83.9L118.2,81.8L118.2,74.2L118.0,72.3L118.1,71.1L117.8,62.0L117.8,53.3L117.5,47.9L117.5,42.5L117.3,40.0L117.4,38.1L117.2,36.9L117.0,26.2L116.8,23.4L116.7,11.3L116.6,10.2Z M95.1,31.5L95.6,32.4L95.6,36.5L95.9,40.7L95.7,43.9L95.4,44.3L95.0,44.5L94.1,44.6L85.8,44.6L78.1,44.8L74.7,44.7L73.1,44.9L70.9,44.9L70.1,45.1L66.2,49.0L64.3,51.1L58.3,57.3L58.1,57.8L48.9,67.3L46.5,69.9L38.9,77.6L38.4,78.3L34.7,82.0L34.6,82.3L33.0,83.7L32.9,84.0L33.4,84.3L48.2,84.1L56.2,84.2L57.8,83.9L60.3,81.6L60.4,81.3L67.4,74.1L69.9,71.2L71.7,69.5L72.7,68.4L77.4,63.5L78.6,62.0L80.7,60.0L80.9,59.6L83.0,57.7L85.2,55.2L90.9,49.4L92.5,47.6L93.3,46.9L94.4,45.6L94.8,45.4L95.5,45.4L95.8,45.8L96.4,65.2L96.3,69.3L96.6,74.0L96.5,76.3L96.8,87.4L96.7,90.8L96.9,91.8L96.9,95.4L96.7,96.2L96.1,96.7L95.5,96.8L69.0,97.1L61.8,97.0L50.0,97.2L33.3,97.2L32.4,96.6L32.1,85.8L32.4,83.8L32.0,83.0L31.9,73.5L31.7,67.8L31.8,63.2L31.6,60.6L31.6,53.3L31.2,37.1L31.2,33.5L31.4,32.7L31.8,32.4L32.8,32.2L40.8,32.1L43.4,31.9L46.7,32.0L64.0,31.6L75.8,31.6L89.5,31.2L94.6,31.2Z" fill="#000" fill-rule="evenodd"/>
</svg>