<svg xmlns="http://www.w3.org/2000/svg" viewBox="0 0 128 128" width="128" height="128">
  <path d="M57.3,9.4L54.2,10.0L53.5,10.0L49.8,11.0L48.5,11.3L47.9,11.6L46.8,11.8L45.4,12.5L44.1,12.8L44.0,13.0L42.4,13.5L41.3,14.2L38.0,15.7L37.6,16.1L35.6,17.0L33.9,18.3L33.2,18.6L32.3,19.4L29.8,21.1L28.4,22.3L24.0,26.6L22.4,28.6L20.8,30.3L19.7,32.2L19.0,32.9L18.4,33.7L18.2,34.3L16.8,36.4L16.2,37.9L16.0,38.2L15.3,39.5L15.0,39.9L12.6,45.5L11.7,48.2L11.2,50.6L11.0,51.9L10.6,52.9L10.4,54.8L10.2,55.8L9.8,58.7L9.6,62.9L9.6,66.3L9.9,68.4L10.0,70.9L11.1,77.0L12.3,81.1L12.6,81.7L13.1,83.4L16.2,90.1L16.9,91.1L17.5,92.2L18.0,92.9L18.6,93.9L19.1,94.5L19.3,95.0L22.6,99.5L26.9,104.1L30.4,107.1L35.1,110.5L36.0,110.9L37.7,112.0L38.4,112.2L40.3,113.4L41.1,113.7L43.3,114.8L45.4,115.5L46.8,116.2L47.9,116.4L48.0,116.6L48.5,116.6L49.3,117.0L50.0,117.1L50.8,117.4L51.9,117.6L53.2,118.0L54.4,118.1L55.6,118.5L58.0,118.6L58.9,118.9L60.8,119.0L68.2,119.0L68.8,118.9L72.0,118.6L76.8,117.7L78.0,117.2L79.2,117.0L82.1,116.2L83.7,115.4L85.7,114.8L86.2,114.4L87.2,114.0L87.9,113.6L88.4,113.5L89.5,112.8L91.2,112.1L93.3,110.8L97.1,108.2L100.7,105.2L104.2,101.8L104.4,101.4L105.7,100.1L106.7,98.9L107.1,98.2L108.7,96.3L109.7,94.6L110.2,94.1L110.8,92.9L111.5,91.9L113.2,88.6L113.7,87.7L114.8,85.1L115.8,82.2L116.1,81.6L116.9,78.4L117.2,77.8L118.0,73.3L118.4,70.2L118.4,69.2L118.7,68.1L118.6,60.1L118.3,58.5L118.2,57.0L117.9,55.6L117.6,53.4L117.2,52.0L116.9,50.5L116.3,48.2L116.0,47.8L115.4,45.8L114.9,44.9L114.9,44.6L114.0,42.2L112.7,39.5L112.4,38.6L111.6,37.6L111.1,36.4L108.9,33.1L108.8,32.8L107.8,31.6L107.5,31.0L107.0,30.5L106.0,29.0L104.8,27.6L102.0,25.0L101.2,23.9L96.5,19.9L91.1,16.3L90.4,16.1L89.4,15.4L87.9,14.8L87.5,14.5L86.8,14.3L86.6,14.1L86.0,13.9L84.8,13.3L82.2,12.3L81.9,12.3L81.1,11.8L80.3,11.7L80.0,11.5L77.3,11.0L75.8,10.4L74.6,10.3L73.4,9.9L72.8,9.9L71.1,9.6L68.5,9.4L68.0,9.3L62.6,9.1L60.4,9.2L59.6,9.4Z M100.2,25.1L100.8,25.7L100.6,27.0L100.0,28.5L99.8,29.4L99.4,30.4L99.3,31.0L98.7,32.8L98.4,34.1L98.0,35.1L98.0,36.0L97.6,36.7L96.8,39.4L96.3,40.9L96.2,41.7L95.4,43.8L94.8,45.9L94.4,46.7L94.4,47.5L93.8,48.9L93.2,51.3L92.8,51.8L91.8,55.5L91.6,56.0L90.8,59.0L90.4,59.6L90.0,61.8L89.2,63.7L88.6,66.2L87.8,68.4L87.7,69.0L86.8,71.2L86.7,72.2L85.6,75.0L85.0,77.6L84.3,79.6L84.1,80.5L82.9,83.7L82.4,85.4L82.4,85.8L81.7,87.8L81.7,88.7L82.3,89.4L83.2,90.0L85.6,91.0L86.8,91.8L88.8,92.8L90.4,93.9L91.0,94.1L92.1,94.8L93.7,95.4L94.0,95.7L95.6,96.4L96.4,97.0L97.1,97.3L98.7,98.3L99.9,98.9L101.8,100.2L102.4,100.4L102.9,101.0L102.4,101.4L98.1,101.6L89.9,101.5L89.2,101.7L82.4,101.7L76.0,101.9L65.4,101.9L56.8,102.2L48.9,102.1L47.9,102.2L43.5,102.2L41.4,102.3L33.4,102.3L31.3,102.5L27.5,102.4L27.2,102.2L27.0,101.9L27.0,101.1L27.6,99.0L28.0,98.1L28.0,97.4L28.3,97.0L28.4,96.2L29.1,94.6L29.3,93.4L30.5,89.7L31.5,86.1L32.0,85.0L32.2,83.9L32.8,82.2L33.4,80.1L34.1,78.3L34.4,77.2L35.1,75.3L35.6,73.2L35.9,72.6L36.0,72.1L36.2,71.6L36.4,70.6L36.7,69.6L36.9,69.3L37.2,67.9L38.0,66.0L38.7,63.1L39.7,60.3L40.0,59.0L41.2,55.7L41.2,55.4L43.1,49.6L43.2,49.0L43.6,47.8L44.3,45.3L45.6,41.8L45.8,40.7L46.4,38.8L46.7,37.2L46.2,36.6L45.2,35.9L44.5,35.7L43.8,35.2L43.6,35.2L42.2,34.3L40.1,33.4L39.6,33.0L35.8,31.1L34.7,30.7L32.8,29.8L32.4,29.4L32.1,29.4L31.0,28.9L30.1,28.3L27.6,27.2L26.7,26.6L26.7,26.3L27.0,26.1L27.6,25.9L29.3,25.9L31.2,25.7L42.3,25.7L43.2,25.5L49.0,25.6L53.5,25.4L59.7,25.5L70.3,25.2L77.4,25.3L79.7,25.1L85.7,25.0L92.0,25.1L98.1,25.0Z" fill="#000" fill-rule="evenodd"/>
</svg>