<svg xmlns="http://www.w3.org/2000/svg" viewBox="0 0 128 128" width="128" height="128">
  <path d="M9.1,53.4L9.1,53.6L11.6,54.1L11.9,54.2L13.2,54.4L14.1,54.7L15.0,54.7L16.4,55.1L17.3,55.2L18.5,55.5L19.8,55.6L20.7,55.9L22.4,56.1L22.7,56.3L23.2,56.3L24.8,56.7L26.1,56.8L26.6,57.0L27.5,57.1L28.4,57.4L28.8,57.9L28.8,58.5L28.6,59.2L28.5,60.6L28.3,61.8L28.3,66.4L28.6,70.0L28.8,70.5L29.0,71.8L29.3,72.6L30.0,75.4L30.9,77.8L31.1,78.4L31.8,80.1L32.2,80.7L32.6,81.6L34.6,84.9L37.0,87.9L40.1,91.1L42.5,93.0L44.3,94.4L47.8,96.4L51.3,98.0L51.8,98.1L53.4,98.7L56.5,99.5L57.9,99.6L59.1,100.0L61.7,100.1L65.6,100.1L69.0,99.9L70.1,99.6L71.4,99.5L72.0,99.2L72.4,99.2L73.1,98.9L74.2,98.7L74.7,98.5L75.6,98.3L76.8,97.9L78.1,97.3L78.3,97.3L82.1,95.3L82.4,95.1L84.2,93.9L87.2,91.7L90.3,88.7L92.3,86.3L94.6,83.0L96.9,78.3L96.9,78.1L98.0,75.6L98.5,75.1L107.1,74.9L118.9,74.9L119.1,74.7L118.5,74.4L116.7,74.2L115.1,73.8L114.6,73.8L113.3,73.4L112.1,73.3L111.9,73.1L110.8,73.1L109.2,72.6L105.5,72.1L104.7,71.8L103.9,71.7L103.2,71.5L102.0,71.4L101.2,71.1L100.1,71.0L99.6,70.8L99.4,70.6L99.3,70.2L99.5,69.0L99.8,65.6L99.8,62.9L99.6,60.4L99.0,56.4L98.0,52.6L97.8,52.2L97.6,51.5L97.3,51.1L97.0,50.0L95.6,47.0L94.6,45.4L94.3,44.9L94.2,44.5L93.9,44.3L93.8,44.0L93.3,43.4L91.9,41.4L88.7,37.9L86.6,36.1L85.9,35.6L83.7,34.0L81.4,32.5L80.4,32.0L80.2,32.0L79.6,31.6L78.2,31.0L76.5,30.4L76.0,30.2L75.5,30.0L75.1,29.8L71.3,28.8L67.6,28.2L64.9,28.1L60.1,28.3L58.9,28.6L57.7,28.6L56.8,28.9L55.8,29.1L55.2,29.3L54.6,29.4L53.7,29.7L53.1,29.8L52.8,30.0L52.0,30.2L51.7,30.4L50.3,30.9L49.7,31.2L48.3,31.8L48.1,32.0L45.8,33.2L43.1,34.9L41.3,36.4L41.1,36.5L37.6,39.9L37.5,40.2L36.1,41.7L35.4,42.7L34.8,43.4L34.3,44.4L33.1,46.1L31.3,49.7L31.1,50.2L30.2,52.3L29.6,52.9L29.0,53.1L27.7,53.1L14.3,53.1L11.2,53.2Z M31.5,58.6L31.9,58.1L34.1,58.3L35.6,58.8L38.4,59.2L39.5,59.5L40.4,59.5L41.6,59.9L42.5,59.9L43.8,60.3L44.3,60.3L45.2,60.6L46.5,60.7L47.8,61.1L48.8,61.1L49.4,61.3L50.8,61.5L51.4,61.7L54.3,62.2L54.9,62.6L54.9,62.9L54.2,63.7L53.2,64.7L50.5,67.9L49.8,68.5L47.5,71.3L46.9,71.8L44.7,74.4L44.6,74.8L44.8,75.1L47.4,75.2L57.7,75.1L61.1,75.1L66.7,75.0L91.7,75.0L94.3,75.1L94.8,75.4L94.8,75.9L93.7,78.7L93.3,79.2L93.2,79.7L92.5,81.0L91.5,82.4L91.3,82.8L90.0,84.6L89.0,85.9L87.8,87.0L87.7,87.3L86.0,88.9L84.9,89.7L84.0,90.6L81.8,92.1L78.2,94.2L74.7,95.6L72.2,96.4L69.4,97.0L68.8,97.0L68.5,97.1L67.7,97.1L65.7,97.4L62.7,97.5L61.1,97.3L60.6,97.2L59.6,97.2L58.3,96.9L57.3,96.8L54.2,96.0L53.8,95.8L53.0,95.6L51.4,94.9L51.0,94.8L48.8,93.7L46.5,92.5L43.6,90.5L42.6,89.6L39.0,86.1L38.8,85.6L37.2,83.7L35.5,81.1L34.1,78.5L33.6,76.9L33.4,76.7L33.3,76.3L32.7,75.2L31.4,69.9L31.0,65.8L31.1,61.6L31.3,60.5L31.3,59.6Z M33.4,52.2L34.5,49.4L35.9,47.0L36.6,46.0L36.8,45.6L37.8,44.1L38.2,43.7L38.4,43.3L39.7,41.7L41.9,39.5L43.7,38.0L46.3,36.1L48.3,35.0L48.9,34.5L49.5,34.4L50.8,33.7L51.1,33.6L51.5,33.4L52.1,33.2L52.6,32.9L53.3,32.8L55.0,32.2L56.5,31.8L57.9,31.6L58.2,31.4L59.9,31.3L60.6,31.1L62.6,30.9L67.2,31.0L68.4,31.3L69.6,31.3L72.9,32.1L76.7,33.4L78.7,34.4L79.1,34.5L79.3,34.7L80.7,35.3L84.0,37.6L85.3,38.6L87.7,40.9L90.5,44.2L91.7,46.1L92.0,46.3L94.2,50.4L94.6,51.8L95.3,53.3L95.4,53.5L95.5,54.2L96.0,55.2L96.0,55.9L96.4,57.1L96.9,60.5L96.9,61.8L97.1,63.0L97.1,65.1L96.7,68.6L96.5,69.2L96.0,69.7L93.8,69.4L93.0,69.2L91.8,69.0L89.2,68.4L87.7,68.3L86.4,67.9L85.5,67.9L84.4,67.5L83.8,67.5L82.6,67.2L81.6,67.2L80.6,66.8L79.4,66.7L78.9,66.5L75.2,65.9L74.7,65.7L73.5,65.6L73.1,65.2L73.2,64.9L73.8,64.1L78.5,58.9L78.5,58.7L79.2,58.1L80.0,57.1L80.5,56.7L83.5,53.3L83.5,53.1L83.3,52.9L64.1,52.8L55.7,52.9L48.1,52.9L34.3,53.0L33.4,52.8Z" fill="#000" fill-rule="evenodd"/>
</svg>