<svg xmlns="http://www.w3.org/2000/svg" viewBox="0 0 128 128" width="128" height="128">
  <path d="M16.6,9.6L10.3,15.9L10.3,16.5L14.8,21.7L16.4,24.0L17.6,25.5L19.1,27.8L19.7,28.5L20.7,30.8L21.2,31.4L21.6,32.3L22.2,33.8L23.1,35.4L23.7,37.1L24.0,37.6L25.4,41.3L25.6,42.8L25.9,43.6L26.1,44.6L26.9,46.8L27.1,48.5L27.4,49.0L27.7,51.7L28.0,52.9L28.0,54.2L28.4,56.8L28.6,61.0L28.0,61.7L27.5,61.8L15.5,61.7L15.1,62.0L14.9,62.7L14.9,66.9L15.3,67.4L27.7,67.4L28.4,68.2L28.5,69.4L27.6,76.0L27.1,77.2L27.1,78.2L25.3,84.7L24.7,86.2L24.1,88.3L23.5,89.9L23.1,90.5L22.3,92.5L21.8,93.1L19.8,97.5L19.3,97.9L18.8,98.8L18.3,99.9L17.4,101.0L17.2,101.5L16.3,102.5L16.2,102.9L15.8,103.3L15.2,104.3L14.5,105.0L13.4,106.6L11.2,109.1L10.7,109.9L10.5,110.6L10.8,111.1L12.8,113.1L12.8,113.3L15.1,115.6L15.6,115.9L16.2,116.0L16.8,115.7L21.1,112.4L27.4,108.5L29.2,107.7L30.6,106.7L31.1,106.6L34.9,104.8L35.6,104.6L36.0,104.3L37.0,104.1L38.9,103.2L39.8,103.1L40.5,102.7L41.7,102.4L43.5,101.8L45.9,101.2L48.3,100.9L49.7,100.4L51.1,100.3L54.2,99.8L65.3,99.8L67.4,100.0L69.8,100.1L74.0,100.8L74.7,101.0L76.3,101.2L77.0,101.5L78.5,101.8L78.7,102.0L80.2,102.2L80.7,102.5L81.6,102.7L82.3,103.1L83.2,103.2L83.9,103.6L84.7,103.8L85.1,104.1L86.1,104.3L88.8,105.6L89.6,105.8L91.0,106.6L91.5,106.7L97.6,110.2L99.2,111.4L100.9,112.3L103.2,114.0L105.7,116.2L106.9,117.0L108.8,118.8L109.2,118.9L110.3,118.9L110.7,118.9L111.6,118.1L115.3,114.0L116.7,112.6L116.7,111.7L116.5,111.6L116.4,112.6L115.2,113.9L114.0,114.9L113.3,114.8L112.3,113.8L111.2,112.3L110.1,111.3L110.1,111.1L101.2,100.8L98.2,96.9L97.2,95.9L94.2,92.3L92.7,90.1L92.2,89.8L89.8,86.4L89.0,85.1L88.0,83.8L86.8,81.5L85.8,80.1L85.3,79.0L85.0,78.6L84.9,78.0L83.9,76.0L83.6,75.7L83.0,74.1L82.7,73.7L81.9,70.7L81.9,69.4L81.5,67.7L81.0,67.4L79.7,67.2L67.6,67.2L65.8,67.0L65.8,66.4L68.5,63.4L69.1,62.9L70.2,62.4L80.8,62.4L81.3,62.1L81.6,61.6L81.6,61.0L81.9,60.5L82.1,59.1L82.9,56.9L84.2,53.6L85.0,52.6L85.7,51.0L86.1,50.6L86.3,50.1L87.3,48.4L87.6,48.1L88.3,46.8L89.7,44.8L90.1,44.3L90.8,43.1L91.8,42.0L92.9,40.4L94.6,38.3L96.1,36.3L97.6,34.7L99.5,32.4L100.9,30.9L101.5,30.1L105.2,26.1L106.1,24.9L114.4,16.2L114.6,16.0L115.1,16.0L116.7,17.8L117.1,18.4L117.1,18.9L115.8,20.3L113.7,22.9L113.1,24.0L112.2,24.8L111.8,25.7L111.1,26.3L110.0,28.3L108.8,30.1L108.7,30.5L107.3,32.5L106.6,34.0L105.9,35.1L105.4,36.4L103.9,39.3L102.9,42.3L102.1,43.9L102.0,44.6L101.3,46.0L100.9,47.8L100.7,48.1L100.5,49.3L100.0,50.5L99.9,51.2L99.4,52.9L98.6,58.6L98.6,59.6L98.4,60.3L98.4,62.1L98.7,62.4L99.1,62.5L110.9,62.6L111.3,63.3L111.5,65.4L111.4,67.0L111.1,67.4L110.4,67.4L98.6,67.4L98.1,67.8L98.0,70.8L98.3,72.4L98.4,74.8L99.4,79.8L100.3,83.3L100.5,83.5L100.8,84.7L101.0,85.3L101.0,85.6L101.4,86.3L101.6,87.2L101.9,87.5L102.0,88.1L102.7,89.7L103.0,90.9L105.7,96.4L106.0,96.6L106.2,97.5L106.5,97.7L107.7,99.9L108.0,100.3L108.7,101.6L113.2,108.0L115.9,111.0L116.1,111.0L116.0,110.4L114.4,108.6L112.2,105.8L112.1,105.3L110.6,103.5L109.9,102.2L108.8,100.7L108.6,100.1L108.1,99.6L108.0,99.1L107.1,97.7L105.1,94.0L105.0,93.4L104.4,92.5L104.0,91.0L103.6,90.5L103.2,89.4L102.2,87.4L101.9,86.0L101.5,85.4L100.9,83.7L100.8,82.9L100.3,81.9L100.2,80.9L99.9,80.2L99.8,78.7L99.6,78.4L99.5,77.4L99.0,75.6L98.7,72.5L98.5,68.8L98.8,68.1L99.9,67.8L111.4,67.9L111.9,67.5L112.0,65.1L111.9,62.5L111.7,62.0L99.8,62.0L99.3,61.9L98.9,61.4L99.0,59.6L99.4,56.3L100.1,53.0L100.4,50.8L102.4,44.4L102.9,43.8L103.0,43.1L103.4,42.3L103.5,41.6L104.3,40.3L105.1,38.1L105.4,37.7L105.4,37.4L105.8,36.8L106.3,35.5L106.5,35.2L108.0,32.2L108.4,31.8L108.7,31.1L109.4,30.2L109.5,29.8L109.9,29.4L110.1,28.8L111.0,27.8L111.1,27.3L112.6,25.6L113.3,24.4L115.6,22.0L116.7,20.4L118.1,19.0L118.1,18.4L117.2,17.5L116.3,16.2L114.4,14.4L114.2,14.0L112.0,11.7L111.3,11.7L103.5,18.0L100.6,19.7L99.8,20.3L94.8,22.9L92.1,24.1L90.3,24.7L89.8,25.0L88.5,25.3L84.6,26.6L83.3,26.8L82.7,27.1L81.6,27.2L80.8,27.6L78.6,28.1L77.2,28.2L76.7,28.3L74.3,28.7L73.1,28.7L71.6,29.0L70.1,29.0L69.4,29.2L63.6,29.2L61.4,28.9L59.9,28.9L58.5,28.6L56.6,28.6L55.0,28.2L51.4,27.8L45.0,26.2L44.6,25.9L40.2,24.5L36.2,22.7L28.8,18.4L26.4,16.4L24.8,15.3L23.7,14.4L23.2,14.1L22.5,13.4L21.7,12.9L17.8,9.4L17.0,9.3Z M44.5,88.6L49.9,82.8L52.0,80.8L52.6,80.0L54.0,78.6L58.8,73.5L64.3,68.0L65.2,67.7L67.1,67.6L72.9,67.6L76.6,67.8L79.7,67.7L80.7,67.9L81.0,68.4L81.4,70.7L82.3,73.6L82.6,73.7L82.6,74.3L83.0,75.2L83.1,75.8L83.5,76.3L83.7,77.1L84.3,78.1L84.5,78.7L85.0,79.4L85.1,79.8L85.5,80.4L86.4,82.1L86.7,82.5L87.1,83.4L87.5,83.9L88.6,85.7L89.5,86.5L89.9,87.4L90.9,88.5L90.9,88.9L94.4,93.2L95.2,94.4L100.4,100.3L101.1,101.4L102.6,103.0L103.4,104.2L107.2,108.4L107.7,109.1L108.9,110.6L108.9,111.0L108.8,111.0L107.4,109.9L105.8,108.3L104.8,107.6L101.9,104.8L97.7,101.3L96.5,100.1L92.2,96.6L91.7,96.0L89.5,94.4L88.7,93.7L87.1,92.6L86.1,91.7L83.0,89.5L77.4,86.0L75.6,85.2L74.4,84.4L74.1,84.4L72.9,83.8L70.8,83.1L70.4,82.9L68.4,82.3L64.0,81.8L62.1,81.8L60.4,81.9L57.8,82.6L57.3,82.6L55.6,83.1L53.9,84.0L53.1,84.2L52.0,84.7L51.7,85.0L50.4,85.6L50.0,86.0L48.3,86.8L44.9,89.0Z M56.1,67.8L56.1,68.4L53.9,70.8L48.8,76.0L48.0,77.0L46.3,78.6L41.0,84.2L37.0,88.0L37.0,87.5L37.2,87.3L37.3,86.9L40.3,83.3L42.1,80.5L42.7,79.4L43.1,78.9L44.9,75.9L46.1,73.0L47.3,68.1L47.7,67.7L48.3,67.6L55.5,67.6Z M93.5,38.2L93.4,38.6L93.1,39.0L92.9,39.4L90.9,41.7L90.1,43.0L89.1,44.2L89.0,44.6L87.7,46.3L86.3,48.7L85.1,51.0L84.7,51.4L82.8,55.4L82.8,55.8L81.9,57.7L81.9,58.1L81.4,59.6L81.4,60.1L80.9,61.4L80.3,61.8L79.6,61.9L71.3,61.8L70.9,61.7L70.9,61.3L71.8,60.1L76.5,55.1L78.5,53.3L78.7,52.8L79.1,52.7L80.7,50.9L92.7,38.7Z M20.3,19.6L20.5,19.6L21.6,20.5L23.0,22.0L23.8,22.6L31.2,29.3L33.8,31.4L37.1,34.3L38.8,35.5L39.5,36.2L43.5,39.3L45.8,40.6L46.8,41.5L47.6,41.8L48.7,42.7L51.3,43.9L51.7,44.3L53.5,45.0L53.8,45.2L55.2,45.9L60.2,47.3L63.3,47.6L67.0,47.4L68.5,47.2L72.0,46.1L76.1,44.4L77.3,43.6L77.9,43.4L80.8,41.6L81.3,41.7L81.3,41.9L78.1,45.5L76.2,47.3L74.0,49.8L71.2,52.6L70.8,53.1L69.4,54.5L69.1,55.0L62.4,61.8L58.6,61.9L48.1,61.8L47.4,61.0L47.4,60.4L47.0,59.2L46.9,58.3L46.3,56.5L45.8,55.2L45.4,54.8L45.3,54.1L44.5,52.6L44.4,52.1L43.8,51.4L43.2,50.0L42.8,49.6L42.7,49.2L42.4,49.0L40.8,46.5L40.8,46.3L39.4,44.2L39.2,43.7L38.2,42.5L36.6,40.2L34.8,38.0L34.2,37.1L32.2,34.8L31.5,33.7L29.2,31.0L28.5,30.0L20.9,20.8L20.9,20.6L20.4,20.2Z M13.3,13.8L13.8,13.8L14.3,14.2L19.2,20.1L20.3,21.1L20.8,21.9L21.3,22.3L21.4,22.6L25.9,27.7L29.2,32.0L30.2,33.0L33.8,38.0L34.6,38.7L34.9,39.4L36.5,41.2L37.2,42.5L38.0,43.3L38.3,44.0L39.0,44.8L40.3,46.8L40.7,47.2L42.3,50.1L42.7,50.5L43.8,52.7L44.1,52.9L44.4,53.9L45.3,55.5L45.4,56.1L45.9,57.0L46.8,60.2L46.9,61.5L47.1,61.9L47.6,62.3L49.1,62.4L59.9,62.4L60.7,62.5L61.2,62.9L61.2,63.0L60.4,64.1L58.0,66.5L57.1,67.0L47.4,67.1L46.7,67.5L46.1,71.0L45.8,71.7L45.7,72.4L45.0,73.9L44.9,74.4L42.9,78.2L42.6,78.6L40.9,81.3L38.1,84.9L35.8,88.2L34.2,89.9L31.9,93.0L31.1,93.8L29.8,95.4L27.6,97.6L26.9,98.7L21.9,104.0L20.5,105.7L19.2,106.9L18.7,107.7L17.5,108.8L14.4,112.2L13.6,112.7L13.4,112.7L12.9,112.4L11.3,110.8L11.3,110.1L12.3,108.6L14.3,106.3L15.1,105.0L17.1,102.5L17.8,101.3L18.6,100.3L18.7,99.8L20.3,97.6L20.6,96.7L21.9,94.5L22.6,92.7L23.0,92.1L23.3,91.1L23.9,89.9L24.3,88.6L25.9,84.6L26.6,82.1L26.8,80.9L27.1,80.4L27.3,78.9L27.6,78.3L27.9,77.0L27.9,76.2L28.2,75.2L29.0,70.3L29.1,68.5L29.0,67.4L28.8,67.2L28.2,67.0L19.8,67.0L15.9,66.7L15.6,66.4L15.4,65.6L15.6,62.8L16.0,62.3L17.0,62.1L18.6,62.3L28.6,62.2L29.2,61.8L29.3,60.4L29.1,58.1L28.9,57.5L28.9,56.2L28.6,55.0L28.6,53.9L28.3,52.8L28.3,51.9L28.1,51.1L28.0,49.4L27.5,47.9L27.4,46.8L27.0,45.3L26.6,43.2L26.2,42.5L25.8,40.6L25.1,39.4L25.1,38.6L24.7,37.9L24.6,37.1L24.3,36.7L24.0,35.9L23.7,35.6L23.3,34.3L22.7,33.4L22.7,33.1L22.2,32.3L21.6,30.9L21.3,30.5L21.2,30.2L20.8,29.7L19.2,26.8L18.5,25.9L17.7,24.5L16.3,22.8L16.2,22.6L11.1,16.6L11.1,15.9Z" fill="#000" fill-rule="evenodd"/>
</svg>