<svg xmlns="http://www.w3.org/2000/svg" viewBox="0 0 128 128" width="128" height="128">
  <path d="M118.5,9.8L118.0,9.5L116.8,9.4L107.5,9.4L94.8,9.5L77.2,9.5L62.5,9.7L44.4,9.6L28.2,9.7L22.4,9.9L9.8,9.9L9.5,10.3L9.5,25.2L9.7,28.8L9.8,52.3L10.0,52.6L10.3,52.8L15.0,52.8L15.5,52.6L15.9,52.1L15.9,39.2L15.6,18.2L15.8,16.3L16.0,16.0L56.1,15.9L56.2,16.0L56.3,16.4L55.3,17.2L55.0,17.7L47.5,25.1L47.4,25.4L38.1,35.0L32.0,41.0L31.0,42.2L29.8,43.3L29.4,43.9L28.9,44.2L27.4,45.8L26.0,47.0L25.2,48.0L21.3,51.9L20.6,52.4L18.2,55.0L15.8,57.2L14.7,58.4L11.1,62.0L9.8,63.6L9.6,75.7L9.7,84.6L9.5,85.5L9.6,118.1L10.1,118.4L20.7,118.6L58.5,118.5L64.3,118.7L70.4,118.6L84.6,118.8L90.5,118.7L118.0,118.9L118.5,118.7L118.7,118.3L118.7,115.9L118.9,115.2L119.0,111.7L118.8,78.1L119.0,75.3L118.8,68.3L118.9,37.9L118.7,32.9L118.8,29.9L118.6,23.4Z M26.3,85.5L27.3,85.4L31.3,85.5L36.5,85.5L37.8,85.7L50.5,85.7L51.0,86.2L50.9,86.7L50.6,86.9L50.4,87.9L49.3,90.1L48.5,91.5L47.4,93.8L47.3,94.2L45.1,98.5L44.7,99.2L44.5,99.8L43.7,101.0L42.6,103.4L41.8,104.6L40.7,107.3L39.2,110.1L39.0,111.2L38.5,111.6L38.3,111.6L37.9,111.3L37.4,109.7L36.2,107.6L35.9,106.5L35.3,105.6L34.4,103.2L31.4,97.1L31.3,96.7L30.8,96.0L29.3,93.0L29.2,92.6L27.2,88.7L27.1,88.3L26.1,86.6L25.8,86.2L25.8,85.9Z M16.1,80.2L16.4,80.2L16.8,80.6L17.8,83.1L18.9,85.4L19.2,85.6L19.3,86.1L21.4,90.1L21.8,91.3L22.3,92.1L22.4,92.6L23.3,94.2L23.4,94.7L25.6,99.0L26.1,100.5L26.6,101.2L27.2,102.6L30.6,109.4L31.0,110.5L31.5,111.3L31.6,112.5L31.4,112.7L17.0,112.7L16.6,112.3L16.3,111.0L16.3,98.5L16.0,84.3L16.0,80.6Z M112.2,72.4L112.3,73.1L112.1,80.3L112.1,89.7L112.0,91.8L111.9,107.6L111.8,112.0L111.5,112.4L100.1,112.4L97.9,112.6L87.4,112.5L86.3,112.3L72.8,112.5L71.9,112.4L71.9,111.7L72.2,111.3L76.0,107.7L89.1,94.4L89.8,94.0L93.9,89.7L95.7,88.1L111.6,72.4Z M106.9,67.9L107.0,68.3L103.5,71.7L102.0,72.8L98.4,76.2L92.5,82.2L91.3,83.2L84.0,90.3L79.5,94.9L78.9,95.4L73.3,101.0L70.5,103.3L61.7,112.5L61.2,112.7L45.6,112.7L45.0,112.4L45.4,110.9L46.1,109.8L48.9,104.3L49.0,103.6L49.3,103.3L50.6,100.4L52.1,97.7L54.1,93.4L54.5,92.9L54.7,92.3L55.5,90.9L56.9,87.8L57.3,87.3L57.3,87.0L58.8,84.1L58.9,83.7L59.4,82.6L59.7,82.3L60.5,80.3L61.4,79.0L61.5,78.5L62.1,77.2L62.4,76.9L63.0,75.5L63.4,74.8L66.2,68.5L67.1,67.4L67.6,67.2L80.4,67.4L83.3,67.6L87.5,67.5L91.1,67.7L103.4,67.6L104.4,67.9L105.6,67.7Z M16.9,67.2L17.3,66.9L35.7,67.0L49.7,67.3L50.6,67.2L57.2,67.5L58.3,67.7L59.0,67.6L59.5,67.9L59.5,68.4L59.2,68.8L58.8,70.1L58.5,70.4L57.6,72.2L57.4,72.5L54.7,77.9L54.5,78.5L54.3,78.7L54.2,79.4L53.8,79.8L23.2,79.6L22.7,79.4L22.1,78.6L21.9,77.9L20.8,75.5L20.5,75.2L20.1,73.9L18.9,71.7L18.9,71.2L17.4,68.8L16.9,67.6Z M67.7,21.0L68.2,21.0L69.0,21.7L69.6,22.0L72.5,25.0L73.3,25.5L74.5,26.9L77.3,29.7L77.8,30.1L79.2,31.7L96.2,48.6L96.7,49.4L105.6,58.2L107.8,60.6L108.0,61.1L107.7,61.5L106.6,61.6L104.9,61.4L102.8,61.5L94.1,61.2L87.5,61.2L83.8,61.1L68.9,61.1L68.0,61.2L67.6,61.1L67.3,60.8L67.3,53.4L67.6,45.3L67.5,29.4L67.6,26.9L67.6,21.5Z M60.7,20.8L61.0,21.0L61.0,44.5L60.8,61.2L60.4,61.6L46.4,61.4L39.7,61.1L33.2,61.1L25.7,60.9L24.3,61.0L22.7,60.8L21.7,60.9L21.4,60.6L21.5,60.2L23.3,58.0L27.5,54.0L28.9,52.5L37.5,43.9L54.7,26.2L60.2,21.0Z M73.1,15.6L75.7,15.8L110.0,15.7L110.6,15.9L111.6,15.9L112.2,16.4L112.3,29.8L112.1,37.1L112.1,45.4L111.9,53.3L112.0,55.1L111.7,55.4L111.3,55.3L105.9,49.8L102.5,46.2L100.7,44.6L99.9,43.6L97.9,41.7L97.6,41.1L91.1,34.8L90.6,34.1L89.0,32.5L87.0,30.4L83.3,26.7L81.9,25.6L80.4,23.8L74.2,17.7L73.0,16.3L72.9,15.8Z" fill="#000" fill-rule="evenodd"/>
</svg>