<svg xmlns="http://www.w3.org/2000/svg" viewBox="0 0 128 128" width="128" height="128">
  <path d="M114.2,9.6L113.7,9.4L108.5,9.5L104.4,9.3L74.5,9.3L65.7,9.5L60.4,9.4L47.1,9.6L30.7,9.6L24.9,9.7L24.5,9.9L24.3,10.4L24.3,28.2L24.4,32.9L24.5,33.7L24.9,34.0L50.3,33.8L67.6,33.9L68.4,34.5L68.7,34.9L68.7,35.5L68.0,36.9L62.1,44.0L61.2,45.3L59.2,47.4L58.5,48.5L57.0,50.0L55.8,51.7L46.9,62.2L46.3,63.1L44.7,64.9L44.4,65.5L40.3,70.2L38.1,73.0L36.4,74.7L35.4,76.3L30.8,81.7L29.9,82.9L28.4,84.5L27.3,86.1L24.6,89.1L21.3,93.2L20.2,94.3L19.3,95.7L18.1,96.9L17.6,97.8L17.3,98.8L17.3,101.2L12.3,107.7L11.3,109.3L10.6,111.2L10.4,112.2L10.4,113.7L10.6,115.1L11.1,116.2L11.8,117.3L13.4,118.9L14.0,119.0L14.2,118.8L14.3,117.2L15.1,115.9L16.1,114.7L16.9,114.0L18.6,113.2L20.1,112.8L21.5,112.6L54.7,112.6L63.9,112.8L76.9,112.7L82.1,112.5L90.3,112.6L93.0,112.4L97.8,112.5L116.7,112.2L117.5,112.1L117.9,111.9L117.9,111.2L117.6,110.9L116.4,110.3L112.7,109.7L108.8,109.5L106.4,109.1L104.0,108.9L103.3,108.7L102.6,108.2L102.7,107.4L103.3,106.9L107.8,106.1L109.9,105.9L110.4,105.8L115.0,105.1L116.6,104.7L117.1,104.1L117.1,103.2L116.9,102.9L116.4,102.5L113.9,102.1L113.0,102.1L109.9,101.5L108.4,101.4L107.9,101.3L106.3,101.3L105.6,101.0L103.3,100.6L102.7,100.2L102.7,99.6L103.2,98.9L107.8,98.1L109.1,98.0L110.0,97.8L115.8,96.9L116.6,96.7L117.2,96.0L117.3,95.5L117.1,95.0L116.7,94.6L116.1,94.3L103.8,92.7L102.9,92.4L102.6,92.1L102.6,91.4L103.3,90.8L104.0,90.7L111.9,89.6L113.9,89.1L116.9,88.7L117.4,88.1L117.4,87.7L117.2,87.3L116.8,87.1L105.1,87.1L98.7,87.2L95.9,87.1L92.3,87.3L85.7,87.2L81.8,87.4L76.9,87.3L57.4,87.5L56.8,87.4L56.1,86.8L56.1,86.3L56.4,85.9L56.9,85.4L57.3,85.3L64.0,83.9L64.7,83.6L66.9,83.2L67.2,83.0L67.8,83.0L71.3,82.2L71.8,82.2L73.3,81.8L74.2,81.7L74.9,81.3L75.3,80.9L75.4,79.9L74.8,79.2L74.5,79.1L70.8,78.6L69.8,78.3L66.8,78.0L65.3,77.6L64.9,77.4L64.5,76.8L64.5,76.4L64.9,75.7L65.6,75.5L70.0,74.8L70.8,74.8L72.0,74.6L74.0,74.5L76.1,74.1L77.0,74.1L78.6,73.8L81.0,73.6L81.8,73.3L82.3,72.6L82.3,71.9L82.0,71.3L81.1,70.8L79.7,70.7L77.4,70.2L75.3,70.1L73.9,69.7L71.9,69.5L71.4,69.3L71.1,68.9L71.2,68.4L71.7,67.7L72.3,67.5L74.4,67.3L76.3,66.9L79.5,66.7L81.3,66.3L88.2,65.5L88.9,64.8L88.9,63.9L88.0,63.1L83.8,62.5L83.3,62.3L81.9,62.2L78.4,61.6L77.9,61.1L77.9,60.4L78.4,59.8L83.4,59.0L84.5,59.0L90.2,58.1L91.2,58.1L92.2,57.8L94.4,57.7L95.0,57.4L95.5,56.7L95.4,55.9L94.5,55.1L85.2,53.7L84.5,53.2L84.5,52.4L84.9,51.9L85.3,51.7L88.0,51.3L88.9,51.3L91.9,50.8L94.3,50.7L94.9,50.5L97.3,50.3L99.5,49.9L100.6,49.9L101.4,49.7L101.8,49.1L101.9,48.4L101.6,47.9L101.0,47.4L91.8,46.0L91.5,45.8L90.9,45.2L90.9,44.8L91.4,44.1L93.4,43.6L95.1,43.5L96.4,43.3L100.8,42.8L102.8,42.5L104.0,42.5L107.1,42.1L107.8,41.9L108.5,41.2L108.6,40.4L108.2,39.8L107.6,39.5L104.7,39.1L102.7,38.7L100.5,38.5L99.7,38.2L98.4,38.1L97.7,37.4L97.6,36.6L98.1,36.1L99.3,35.7L107.6,34.8L110.2,34.4L113.8,34.1L114.5,33.6L114.7,33.1L114.5,32.3L113.5,31.9L110.3,31.6L107.9,31.2L107.5,31.1L100.9,30.3L100.1,30.1L99.6,29.5L99.6,29.1L99.8,28.7L100.5,28.2L113.9,26.6L114.5,26.1L114.7,25.7L114.6,24.9L114.1,24.4L113.3,24.1L112.7,24.1L111.1,23.8L108.5,23.6L106.0,23.1L105.1,23.1L103.2,22.8L101.1,22.6L100.1,22.3L99.6,21.6L99.7,20.9L100.7,20.3L103.6,20.0L104.0,19.8L105.7,19.7L106.3,19.5L110.3,19.2L112.3,18.8L113.8,18.7L114.3,18.6L114.7,18.0L114.8,17.6L114.7,16.9L114.0,16.5L110.7,16.1L107.6,15.6L105.5,15.5L103.9,15.1L100.4,14.7L99.8,14.0L99.9,13.4L100.3,13.1L101.1,12.7L106.3,12.2L107.0,12.0L108.0,12.0L109.1,11.7L114.0,11.2L114.5,10.8L114.7,10.5L114.7,10.1Z M26.6,96.0L28.2,95.9L29.2,96.2L30.2,97.2L30.7,97.9L30.9,98.6L30.9,99.9L30.5,100.9L29.4,102.1L28.2,102.6L26.9,102.6L25.7,102.2L24.9,101.4L24.2,100.1L24.1,98.7L24.5,97.8L25.5,96.6Z M39.5,25.4L39.8,25.7L39.7,26.0L39.2,25.9L39.2,25.6Z" fill="#000" fill-rule="evenodd"/>
</svg>