<svg xmlns="http://www.w3.org/2000/svg" viewBox="0 0 128 128" width="128" height="128">
  <path d="M50.1,65.5L48.3,64.9L47.3,64.9L46.8,65.1L46.5,65.8L46.2,70.2L45.9,71.9L45.8,73.6L45.8,75.3L45.4,77.9L45.2,82.3L44.9,83.9L44.9,84.8L44.7,85.9L44.7,87.1L44.4,89.0L44.0,89.1L43.9,88.5L43.5,88.3L42.1,89.3L40.0,91.3L35.7,95.9L35.0,96.5L34.2,97.3L33.5,98.4L30.7,101.9L29.3,104.2L28.6,105.0L26.4,108.9L26.4,109.4L26.1,109.9L25.5,111.7L25.5,112.3L25.1,113.9L25.1,115.1L25.2,116.3L25.7,117.4L26.8,118.7L27.4,119.1L28.9,119.2L29.9,119.0L31.8,118.3L33.8,116.7L34.0,116.7L34.8,116.1L37.2,113.9L42.6,108.6L46.3,104.4L47.9,102.2L49.1,100.1L49.9,99.1L51.1,96.7L51.5,95.6L52.0,94.5L51.9,94.0L50.8,94.0L50.0,94.4L49.3,94.6L47.9,94.6L46.3,94.2L45.5,93.8L44.7,92.9L44.2,92.2L44.0,91.1L44.2,89.7L44.2,90.9L44.9,92.2L46.2,93.4L47.0,93.7L48.1,93.9L49.3,93.8L50.2,93.5L51.4,92.4L52.0,91.1L52.2,89.6L52.2,80.7L52.3,78.5L52.2,76.8L52.2,67.8L52.2,67.3L51.6,66.4L51.0,66.0Z M103.0,21.2L102.3,20.1L101.0,18.9L98.6,17.7L97.1,17.3L94.0,16.1L91.9,15.4L88.9,14.3L84.7,12.9L83.3,12.3L80.9,11.6L79.6,11.0L78.7,10.8L78.3,10.6L76.6,10.0L76.1,9.7L74.5,9.3L73.0,9.0L70.9,9.1L69.6,9.6L68.4,10.2L67.5,10.9L64.3,13.7L56.5,21.2L54.8,23.1L51.8,26.0L50.5,27.5L50.6,27.9L51.1,28.3L53.0,28.9L53.5,29.2L55.7,29.9L56.2,30.2L56.9,30.4L58.1,30.9L61.5,32.0L61.5,32.5L61.2,32.7L60.2,32.9L58.3,33.4L57.6,33.7L54.8,34.3L53.3,34.9L52.7,34.9L51.9,35.3L50.9,35.5L50.1,35.8L49.0,35.9L47.2,36.6L46.0,36.8L42.7,37.9L41.9,38.0L40.1,38.7L37.6,40.2L35.6,41.9L33.7,43.8L33.3,44.3L30.4,47.2L28.2,49.7L27.6,50.6L26.9,52.3L26.7,52.9L26.7,54.3L27.1,55.3L27.8,56.1L30.1,57.2L34.7,58.7L35.2,59.1L36.0,59.2L36.6,59.5L37.1,59.6L38.5,60.3L40.6,60.9L42.3,61.6L45.2,62.6L46.0,62.9L50.1,64.3L51.9,65.1L53.8,65.5L55.3,66.2L55.6,66.2L56.6,66.7L58.3,67.1L58.8,67.4L60.8,68.0L61.3,68.3L62.0,68.5L63.7,69.2L64.3,69.3L64.6,69.5L66.2,70.0L67.2,70.2L67.7,70.4L68.9,70.5L70.4,70.5L71.1,70.4L72.0,70.0L72.9,69.3L74.2,68.1L74.9,67.1L75.1,66.6L76.5,64.8L76.6,64.5L77.1,63.8L77.5,63.0L78.0,62.6L78.7,61.3L80.0,59.6L80.8,58.2L81.8,56.9L82.8,55.3L82.8,55.2L85.9,50.8L87.6,47.7L88.3,46.8L88.3,46.3L87.3,45.7L84.8,44.8L84.1,44.4L83.3,44.2L80.9,43.1L80.2,43.0L78.5,42.2L77.6,42.0L77.3,41.9L77.3,41.5L78.1,41.2L80.2,40.9L81.5,40.6L81.8,40.4L84.4,39.9L86.8,39.3L87.0,39.1L88.9,38.7L89.4,38.5L91.4,38.1L93.6,37.2L94.7,36.4L96.6,34.5L97.1,33.6L97.8,32.7L98.4,31.7L100.0,29.5L101.6,26.7L102.1,26.3L103.1,23.8L103.2,22.0Z M75.5,42.4L75.5,42.5L74.7,43.5L74.0,44.7L73.4,45.5L72.8,46.7L71.3,48.7L71.1,49.2L70.7,49.6L70.0,50.8L68.0,53.3L67.5,54.3L66.6,55.4L66.2,55.8L65.0,55.6L64.6,55.4L62.7,54.8L61.1,54.1L60.1,53.9L57.0,52.7L54.1,51.7L53.0,51.2L51.5,50.8L50.1,50.1L49.0,49.8L48.5,49.5L47.4,49.2L47.4,48.9L51.5,47.9L53.8,47.3L55.1,47.0L55.6,46.8L56.2,46.7L57.3,46.3L58.1,46.3L58.6,46.0L60.9,45.7L62.3,45.2L63.1,45.1L65.7,44.4L66.9,44.2L68.8,43.6L72.0,43.0L72.6,42.7L73.2,42.6L74.2,42.3L75.2,42.2Z M82.1,26.3L82.1,26.6L81.8,26.9L81.1,27.2L78.7,27.8L77.8,28.2L76.8,28.3L76.4,28.6L74.9,28.8L73.5,29.4L72.4,29.5L71.6,29.9L71.0,30.0L70.4,30.3L68.1,30.7L67.2,31.0L65.7,31.3L65.5,31.5L64.8,31.5L64.6,31.3L64.6,31.1L65.6,30.2L65.8,29.8L67.1,28.3L67.8,27.6L68.4,26.9L70.3,25.0L71.6,23.3L72.5,22.6L73.6,22.8L78.2,24.7L81.1,25.6L81.8,25.9Z M93.3,21.8L93.4,21.7L93.8,21.7L93.9,22.0L93.4,22.1Z" fill="#000" fill-rule="evenodd"/>
</svg>